<?xml version="1.0" encoding="UTF-8"?><svg id="Calque_1" xmlns="http://www.w3.org/2000/svg" viewBox="0 0 200.13 128.13"><defs><style>.cls-1,.cls-2,.cls-3,.cls-4,.cls-5,.cls-6,.cls-7,.cls-8,.cls-9,.cls-10{stroke-linecap:round;stroke-linejoin:round;}.cls-1,.cls-3,.cls-11,.cls-7,.cls-12{fill:none;}.cls-1,.cls-9{stroke:#231f20;}.cls-13,.cls-6,.cls-9{fill:#fff;}.cls-2{fill:#baa584;}.cls-2,.cls-11,.cls-14,.cls-4,.cls-5,.cls-15,.cls-6,.cls-7,.cls-16,.cls-10,.cls-17{stroke:#000;}.cls-3{stroke:#e30613;stroke-width:8px;}.cls-18{fill:#87ccf3;}.cls-11,.cls-14,.cls-15,.cls-16,.cls-12,.cls-17{stroke-miterlimit:10;}.cls-14{fill:#fce9b9;}.cls-5{fill:#76ac75;}.cls-19{fill:#bfe6fc;}.cls-15{fill:#ff6d75;}.cls-16{fill:#fab0b4;}.cls-8{stroke:#fff;}.cls-12{stroke:#ff6d75;stroke-width:2px;}.cls-10{fill:#d6d6d6;}.cls-17{fill:#f3d587;}</style></defs><rect class="cls-3" x="-882.72" y="-68.32" width="2655.08" height="1511.77"/><path class="cls-6" d="m63.14,48.81s-.03-4.65-.1-5.64c-.06-.99,1.13-3.1,1.13-3.1l3.34-3.42,1.04-2.58-.36-2.46s1.01.02,1.15,1c.15.98,1.01,2.28.47,3.19-.53.92-2.04,4.82-2.04,4.82,0,0-.41,1.15-.18,2.7s.84,5.76.84,5.76l-5.29-.28Z"/><path class="cls-5" d="m62.77,48.12l.27,11.33-3.89-7.13-3.86-6.77-8.56-1.11,10.94,20.29s4.79,3.32,7.98,2.46c3.19-.86,3.82-2.23,4.06-4.44.25-2.21-.53-15.26-.53-15.26l-6.42.63Z"/><path class="cls-8" d="m65.31,35.65c.19-.06.38-.2.53-.4.3-.4.33-.88.06-1.09-.27-.2-.73-.05-1.03.35-.3.4-.33.88-.06,1.09.13.1.32.11.5.05"/><polygon class="cls-6" points="69.77 118.99 68.98 115.53 75.43 112.87 76.92 117.7 69.77 118.99"/><path class="cls-2" d="m68.32,124h0c-.25.76.12,1.59.86,1.89.65.27,1.47.53,2.29.57,1.8.1,3.55-.78,6.28.09,2.73.87,6.6,1.33,9.07.33s2.82-2.14,2.82-2.14h0c-.85-1.28-2.13-2.22-3.61-2.62-.96-.26-2.19-.7-3.55-1.41-3.18-1.67-5.36-3.73-5.36-3.73l-8,2.18v.02s-.82,4.81-.82,4.81Z"/><path class="cls-6" d="m70.7,68.74s1.88.64,1.27,1.8-.36,1.5-.36,1.5c0,0,1.24,1,.8,2.1-.44,1.11-1.25,1.75-1.25,1.75l-1.08-1.38-.51-.67-5.6-1.87,2.03-3.89,4.69.66Z"/><path class="cls-18" d="m19.74,81.62s1.01,6.52,8.34,6.64c7.33.12,33.82-1.06,33.82-1.06,0,0-.25,6.5.7,10.17s5.91,19.51,5.91,19.51l8.28-2.96s-3.57-25.94-4.02-31.84c-.29-3.85-1-8.19-7.12-10.1-6.12-1.91-20.91-.7-21.26-.67-.34.03-15.48-.4-15.48-.4l-8.51,6.26-.66,4.47Z"/><path class="cls-7" d="m19.74,81.62s1.01,6.52,8.34,6.64c7.33.12,33.82-1.06,33.82-1.06,0,0-.25,6.5.7,10.17s5.91,19.51,5.91,19.51l8.28-2.96s-3.57-25.94-4.02-31.84c-.29-3.85-1-8.19-7.12-10.1-6.12-1.91-20.91-.7-21.26-.67-.34.03-15.48-.4-15.48-.4l-8.51,6.26-.66,4.47Z"/><polygon class="cls-10" points="59.98 102.32 64.62 126.71 61.48 126.71 53.06 99.84 59.98 102.32"/><polygon class="cls-10" points="9.94 102.7 5.5 126.67 8.46 126.67 16.86 100.22 9.94 102.7"/><path class="cls-10" d="m65.98,97.81c.21,2.21-1.48,4.15-3.7,4.23l-49.69,1.72c-2.18.08-3.99-1.67-3.99-3.84v-7.43L2.94,55.78c-.27-1.54.81-3,2.36-3.19l7.28-.9c1.46-.18,2.81.84,3.03,2.29l5.15,33.13,40.35-1.67c2.04-.08,3.79,1.45,4,3.48l.87,8.88Z"/><path class="cls-5" d="m54.25,45.77l1.09,5.69,3.43,14.37,6.88,2.2v3.93s-9.95,2.58-14.01,0c-1.22-.77-2.41-2.99-3.47-5.7l-2.44,4.95c-12.38.3-20.78,9.93-20.78,9.93l-1.68-4.59-2.45,5.5-2.6-1.07s.31-5.97,1.99-10.4c1.68-4.43,12.07-23.38,18.79-27.96,2.38-1.62,4.58-2.46,6.44-2.86,2.38-.52,4.18-.33,5.05-.17"/><line class="cls-5" x1="48.18" y1="66.28" x2="44.46" y2="53.33"/><path class="cls-7" d="m51.83,27.82c.29-2.83,2.05-6.6,6.91-6.07,6.66.73,11.09,5.51,10.93,8.3,0,0,.34,1.35-1.56,1.35"/><path class="cls-7" d="m52.26,25.47s-2.48,1.82-2.54,4.57c-.05,2.4.31,5.51-.79,7.55"/><path class="cls-6" d="m54.24,42.18c.26.58,1.98,2.53,3.91,3.78,2.06,1.32,2.82-.25,4.54-2.16,1.7-1.89,2.78-1.35,3.18-1.85.41-.51-.69-2.74.99-4.96.19-.24.34-.47.48-.72,1.16-1.97.96-3.84.76-4.87,0,0-4.77,2.22-5.64,2.49-.87.28-3.6.97-4.44-.23-.76-1.1-1.1-2.48-2.36-2.53-1.26-.05-2.64,1.75-2.05,3.08,0,0-2.31,1.12-3.61,2.11l-2.89,3.36s1.45,7.8,8.18,5.85l-1.05-3.37Z"/><ellipse class="cls-4" cx="62.94" cy="37.04" rx=".82" ry=".38" transform="translate(-5.83 61.6) rotate(-50.13)"/><path class="cls-7" d="m62.14,44.44s1.13-.11-2.6-2.04"/><line class="cls-6" x1="55.54" y1="33.1" x2="55.9" y2="33.65"/><path class="cls-7" d="m63.98,33.28s1.62.25,1.92.89"/><line class="cls-10" x1="8.6" y1="92.48" x2="65.18" y2="89.64"/><path class="cls-19" d="m133.7,65.15s-7.06-5.67-24.85-13.27c-13.39-5.72-27.17-7.41-27.17-7.41l8.29-20.86s14.61,2.63,25.8,7.08c14.7,5.84,26.22,13.6,26.22,13.6l-8.29,20.86Z"/><path class="cls-18" d="m105.83,38.93c1.4-3.51,5.37-5.23,8.89-3.83,3.51,1.4,5.23,5.37,3.83,8.89-1.4,3.51-5.37,5.23-8.89,3.83-3.51-1.4-5.23-5.37-3.83-8.89Z"/><path class="cls-18" d="m98.42,36.67c.56-1.41,2.17-2.11,3.58-1.54,1.41.56,2.11,2.17,1.54,3.58-.56,1.41-2.17,2.11-3.58,1.54-1.41-.56-2.11-2.17-1.54-3.58Z"/><path class="cls-18" d="m119.41,45.01c.56-1.41,2.17-2.11,3.58-1.54,1.41.56,2.11,2.17,1.54,3.58-.56,1.41-2.17,2.11-3.58,1.54-1.41-.56-2.11-2.17-1.54-3.58Z"/><path d="m112.56,46.78c-.59,0-1.21-.13-1.79-.38-1.21-.52-2.08-1.45-2.46-2.63-.26-.76-.29-1.61-.1-2.54l-.42-.18c-.25-.11-.37-.4-.26-.66l.27-.65c.05-.12.15-.22.27-.27.04-.02.08-.03.12-.03-.1-.14-.13-.32-.06-.49l.28-.66c.05-.12.15-.22.27-.27.06-.02.12-.04.19-.04.07,0,.13.01.2.04l.49.21c.55-.74,1.24-1.29,2.01-1.61.56-.24,1.13-.36,1.7-.36s1.18.13,1.76.38c.94.4,1.51,1,1.77,1.32.15.19.15.45,0,.63l-.63.76c-.09.11-.24.18-.38.18h-.02c-.15,0-.3-.08-.39-.21-.17-.24-.57-.6-1.11-.83-.29-.12-.58-.19-.86-.19s-.53.06-.79.17c-.32.12-.63.35-.92.68l3.08,1.32c.25.11.37.4.26.66l-.28.66c-.05.12-.15.22-.27.27-.04.02-.08.03-.12.03.1.14.13.32.06.49l-.27.65c-.05.12-.15.22-.27.27-.06.02-.12.04-.19.04s-.13-.01-.2-.04l-3.16-1.35c-.05.44-.02.83.1,1.18.21.56.64,1,1.25,1.26.45.19.9.23,1.2.23.13,0,.25,0,.34-.02.02,0,.04,0,.05,0,.13,0,.26.05.36.15.11.11.16.26.14.42l-.13.93c-.03.21-.19.38-.4.42-.22.04-.45.06-.7.06Z"/><path class="cls-13" d="m113.28,36.77c.51,0,1.03.11,1.56.34.78.33,1.29.82,1.57,1.17l-.63.76c-.24-.34-.73-.75-1.32-1-.36-.15-.71-.23-1.06-.23s-.67.07-.99.21c-.56.21-1.07.7-1.5,1.34l3.67,1.57-.28.66-3.79-1.62c-.09.17-.18.36-.26.54-.03.08-.06.15-.1.24l3.82,1.63-.27.65-3.73-1.59c-.22.81-.2,1.49,0,2.04.27.72.82,1.26,1.53,1.56.5.21,1.01.27,1.4.27.15,0,.29,0,.39-.02l-.13.93c-.17.03-.38.06-.6.06-.46,0-1.01-.09-1.6-.34-1.07-.46-1.84-1.27-2.18-2.32-.26-.77-.27-1.68.02-2.68l-.82-.35.27-.65.75.32c.03-.07.06-.13.08-.2.09-.21.19-.4.28-.58l-.78-.33.28-.66.87.37c.55-.86,1.27-1.46,2.03-1.77.49-.21.99-.32,1.51-.32m0-1c-.64,0-1.28.13-1.9.4-.74.31-1.41.81-1.97,1.46l-.14-.06c-.13-.05-.26-.08-.39-.08s-.25.02-.37.07c-.25.1-.44.29-.55.54l-.28.66c-.06.14-.09.29-.08.44-.11.1-.2.22-.26.36l-.27.65c-.21.51.02,1.09.53,1.31l.06.02c-.13.86-.06,1.67.19,2.41.41,1.3,1.39,2.34,2.73,2.91.64.27,1.33.42,1.99.42.28,0,.54-.02.79-.07.42-.08.74-.42.8-.84l.13-.93c.04-.31-.06-.61-.27-.83-.19-.19-.45-.3-.72-.3-.04,0-.07,0-.11,0-.08,0-.17.01-.28.01-.26,0-.64-.03-1.01-.19-.34-.14-.78-.43-.99-.99-.02-.07-.04-.15-.06-.23l2.47,1.05c.13.05.26.08.39.08s.25-.02.37-.07c.25-.1.44-.29.55-.54l.27-.65c.06-.14.09-.29.08-.44.11-.1.2-.22.26-.36l.28-.66c.22-.51-.02-1.09-.53-1.31l-2.34-1s.09-.04.13-.06c.24-.1.43-.15.63-.15.21,0,.43.05.66.15.42.18.76.47.9.67.18.25.47.4.78.42.01,0,.02,0,.04,0,.3,0,.58-.13.77-.36l.63-.76c.3-.37.31-.9.01-1.27-.35-.44-.97-1.04-1.96-1.46-.65-.28-1.31-.42-1.96-.42h0Z"/><rect class="cls-18" x="78.15" y="33.37" width="22.44" height="2.62" transform="translate(24.57 105.33) rotate(-68.68)"/><path class="cls-11" d="m133.7,65.15s-7.06-5.67-24.85-13.27c-13.39-5.72-27.17-7.41-27.17-7.41l8.29-20.86s14.61,2.63,25.8,7.08c14.7,5.84,26.22,13.6,26.22,13.6l-8.29,20.86Z"/><circle class="cls-17" cx="96.48" cy="56.05" r="4.98"/><path d="m96.81,58.95c-.28.05-.71.05-1.17-.15-.57-.24-.98-.67-1.15-1.23-.14-.41-.14-.89,0-1.42l-.43-.18.15-.34.4.17.04-.11c.05-.11.1-.21.15-.31l-.41-.18.15-.35.46.2c.29-.46.67-.77,1.08-.94.51-.22,1.06-.24,1.63,0,.41.18.68.43.83.62l-.34.4c-.13-.18-.38-.4-.7-.53-.38-.16-.74-.16-1.09,0-.3.11-.57.37-.8.71l1.95.83-.15.35-2.01-.86c-.05.09-.1.19-.14.29l-.05.13,2.03.87-.15.34-1.98-.84c-.12.43-.1.79,0,1.08.14.38.44.67.81.83s.75.15.95.13l-.07.49Z"/><circle class="cls-17" cx="103.68" cy="60.05" r="4.98" transform="translate(4.32 127.01) rotate(-64.05)"/><path d="m105.76,62.1c-.18.22-.52.48-1,.62-.59.17-1.18.09-1.67-.23-.37-.23-.67-.6-.89-1.11l-.45.13-.1-.36.42-.12-.03-.11c-.03-.12-.06-.23-.08-.33l-.43.12-.1-.37.48-.14c-.06-.54.04-1.02.25-1.41.26-.49.68-.85,1.27-1.02.43-.12.8-.09,1.04-.04v.53c-.22-.06-.56-.07-.89.03-.39.11-.68.34-.85.67-.16.27-.21.65-.17,1.05l2.04-.58.1.37-2.11.59c.02.1.04.21.07.31l.04.13,2.12-.6.1.36-2.07.58c.18.41.42.68.68.85.35.21.76.25,1.15.13s.68-.35.82-.49l.26.43Z"/><circle class="cls-16" cx="113.67" cy="61.41" r="3.33" transform="translate(-13.82 40.48) rotate(-19.06)"/><path d="m115.54,61.94c-.04.19-.15.45-.39.68-.29.29-.67.43-1.05.4-.29-.02-.58-.14-.87-.37l-.22.22-.17-.18.21-.2-.05-.05c-.06-.06-.11-.12-.15-.17l-.21.21-.18-.18.24-.23c-.21-.3-.3-.61-.31-.9,0-.37.12-.71.42-1,.21-.21.44-.31.6-.36l.16.31c-.14.03-.34.14-.51.3-.2.19-.29.42-.28.67,0,.21.08.45.24.67l1.01-.99.18.18-1.04,1.02c.04.05.09.11.14.16l.06.07,1.05-1.03.17.18-1.03,1c.24.18.46.27.67.28.27,0,.52-.1.72-.29s.29-.42.32-.55l.29.17Z"/><circle class="cls-14" cx="120.52" cy="70.29" r="4.98" transform="translate(-16.05 41.77) rotate(-18.46)"/><path d="m121.64,72.99c-.25.13-.66.24-1.16.18-.61-.08-1.13-.38-1.45-.86-.25-.35-.38-.81-.39-1.37l-.47-.06.04-.37.43.05v-.11c.03-.12.05-.23.07-.34l-.44-.05.05-.38.5.06c.15-.52.43-.93.77-1.2.43-.35.95-.52,1.57-.44.45.05.78.23.97.37l-.21.48c-.17-.14-.48-.27-.82-.32-.41-.05-.76.05-1.05.29-.25.19-.44.51-.57.91l2.1.26-.05.38-2.17-.27c-.02.1-.04.21-.05.32l-.02.14,2.19.27-.04.37-2.13-.26c0,.45.12.79.3,1.04.24.33.6.52,1.01.57s.76-.06.95-.14l.07.49Z"/><line class="cls-12" x1="76.74" y1="7.91" x2="137.62" y2="69.67"/><line class="cls-12" x1="76.3" y1="69.23" x2="138.06" y2="8.35"/><path class="cls-9" d="m145.92,49.02c-.09.23-.07.49.08.71.57.87,1.5,2.34,2.09,3.51,0,0-1.31.48-1.9,1.09-.59.61-.34,1.47-.34,1.47,0,0-2.54,1.53-2.81,3.42-.17,1.19.24,2.86,1.57,4.9.78,1.19,1.86,2.51,3.32,3.92l5.06-4.79-1.39-8.3c-.09-.54-.27-1.05-.53-1.53-.59-1.05-1.83-2.97-3.91-4.73-.24-.2-.57-.23-.85-.09-.18.09-.3.24-.36.4Z"/><path class="cls-15" d="m195.72,55.54v50.73h-24.03s-.37-17.15-1.1-19.87c-.38-1.42-1.79-3.97-3.19-6.39-.76,1.43-1.81,3.19-3.08,4.85-1.89,2.49-4.27,4.71-6.9,5.12-6.37.96-12.51-13.59-13.92-25.19,0,0,3.79-1.75,9.33-2.41l4.6,13.11s1.57-5.53,2.93-9.8c.8-2.51,2.06-4.86,3.69-6.95l1.63-2.07s1.99-1.36,4.6-2.72c2.61-1.36,5.82-2.72,8.26-2.72,4.88,0,15.6,3.51,15.6,3.51.48.07,1.01.35,1.6.8Z"/><path class="cls-6" d="m176,50.15c-.63.47-3.62,1.57-6.45,1.79-3,.22-2.9-1.93-3.64-5-.73-3.04-2.21-3.09-2.35-3.86-.14-.79,2.36-2.56,1.84-5.94-.06-.37-.09-.71-.09-1.06-.1-2.81,1.22-4.71,2.04-5.7,0,0,3.85,5.19,4.63,6,.78.81,3.32,3.17,4.92,2.36,1.46-.74,2.64-2.04,4.04-1.35,1.4.69,1.83,3.45.41,4.53,0,0,1.84,2.57,2.66,4.4l2.81,6.5s-7.8,6.4-13.92.35l3.11-3.02Z"/><path class="cls-1" d="m157.24,74.78c.05,1.5.18,3.61.45,5.17"/><path class="cls-7" d="m165.41,38.91s-2.63-3.63-2.45-6.73c.21-3.74,3.51-4.18,3.51-4.18,1.46-3.11,9.05-5.67,16.67-2.55,5.56,2.28,5.25,7.38,3.9,10.61"/><path class="cls-7" d="m187.95,33.26s1.61,3.42.06,6.43c-1.35,2.62-2.97,5.42-2.98,8.27"/><line class="cls-7" x1="170.39" y1="34.4" x2="167.17" y2="37.58"/><ellipse class="cls-4" cx="169.62" cy="39.49" rx=".46" ry="1" transform="translate(-4.45 34.14) rotate(-11.34)"/><line class="cls-6" x1="179.93" y1="39.58" x2="179.21" y2="39.97"/><path class="cls-11" d="m187.43,52.88s-8.18,5.79-14.54.28"/><path class="cls-7" d="m166.22,48.34s.43-.4,4.17-1.05"/></svg>