<?xml version="1.0" encoding="UTF-8"?><svg id="Calque_1" xmlns="http://www.w3.org/2000/svg" viewBox="0 0 128 128"><defs><style>.cls-1{fill:#baa584;}.cls-1,.cls-2,.cls-3,.cls-4,.cls-5,.cls-6,.cls-7,.cls-8{stroke-linejoin:round;}.cls-1,.cls-2,.cls-3,.cls-5,.cls-6,.cls-7,.cls-8{stroke-linecap:round;}.cls-1,.cls-2,.cls-4,.cls-5,.cls-6,.cls-7,.cls-8{stroke:#000;}.cls-2,.cls-9{fill:#a07637;}.cls-3{stroke:#e30613;stroke-width:8px;}.cls-3,.cls-4,.cls-6{fill:none;}.cls-4{stroke-width:2px;}.cls-5,.cls-7{fill:#fff;}.cls-7{stroke-width:.75px;}.cls-8{fill:#d6d6d6;}</style></defs><rect class="cls-3" x="-716.22" y="-68.32" width="2655.08" height="1511.77"/><path class="cls-8" d="m108.72,110.13c.32,1.33.64,2.66.97,3.99.15.63.3,1.3,0,1.81-.35.61-1.23.8-2.03.93-.46.08-.91.06-1.22-.31-.41-.49.18-.97.36-1.47.14-.39,0-.85-.13-1.29-.35-1.15-.78-2.41-1.83-3.26h0c-.07-.06-.14-.11-.21-.16-.72-.51-1.59-.76-2.42-1.06-.68-.24-1.35-.53-2.01-.85-1.55-.75-3.01-1.71-4.28-2.81-.84-.73-1.6-1.53-2.25-2.38-.12-.16-.24-.32-.35-.47-.32-.46-.61-.93-.77-1.42-.4-1.21.05-2.41.99-3.13,0,0,0,0,0,0,.16-.12.33-.23.51-.32,1.28-.66,3.02-.63,4.64-.15.09.03.2.03.31.02.43-.03.99-.25,1.41-.29.26-.03.47.01.56.2.03.05.05.11.08.16,0,0,0,.02.01.03.25.47.45.89.62,1.28.52,1.15.8,1.98,1.25,2.88.33.66.69,1.33,1.11,1.96.47.72,1.01,1.41,1.67,2.02.78.73,1.71,1.36,2.27,2.21.39.6.55,1.25.71,1.89Z"/><path class="cls-8" d="m80,103.82c0,.1,0,.2-.03.31-.07.3-.25.57-.39.85-.25.48-.41.98-.52,1.49-.14.62-.2,1.25-.25,1.86-.03.34-.06.67-.09,1.01-.06.62-.11,1.23-.17,1.85-.04.42-.08.85-.24,1.27-.04.11-.1.22-.16.34-.12.22-.26.43-.39.63-.48.72-.95,1.44-1.43,2.17-.42.64-.85,1.28-1.38,1.84-.14.15-.29.3-.47.38-.18.09-.37.1-.56.11-.83.05-1.65.04-2.45-.04-.09,0-.19-.02-.24-.09-.06-.08-.03-.2,0-.31.23-.67.84-1.27,1.49-1.44.21-.06.45-.08.62-.25.09-.09.16-.2.22-.32.28-.53.57-1.06.85-1.59.12-.23.25-.47.32-.72.09-.32.08-.63.07-.93-.07-1.8-.33-3.55-.63-5.28-.11-.64-.23-1.29-.35-1.93-.11-.62-.23-1.23-.34-1.86-.02-.09-.03-.18-.05-.27-.06.02-.47-2.03-.46-2.88,0-.07.02-.13.06-.18.27-.34,1.41.03,1.89-.24.3-.17.63-.26.95-.34.65-.17,1.34-.32,1.89-.07.51.22.78.73.98,1.29h0c.09.26.17.53.26.78.16.49.36.95.59,1.39.19.35.4.72.41,1.14Z"/><path class="cls-8" d="m104.09,83.96h0c-.56,4.53-1.59,9-3.09,13.32-.04.1-.07.2-.11.3.45.33.87.73,1.16,1.22.05.08.1.17.14.26.55,1.11.42,2.46.36,3.72-.02.59-.04,1.18,0,1.77.03.74.13,1.47.33,2.18.05.2.12.41.2.61.06.15.12.3.19.46.31.74.68,1.46.75,2.25.03.45-.04.9-.14,1.34h0c-.05.22-.11.44-.17.66-.37,1.36-.75,2.73-1.13,4.08-.06.24-.14.49-.22.73-.15.39-.36.76-.68,1.02-.63.49-1.51.45-2.3.37-.45-.05-1-.18-1.1-.62-.12-.58.65-.89,1.06-1.32.27-.29.39-.67.48-1.05.02-.08.04-.16.05-.23.27-1.27.53-2.69-.12-3.82-.39-.68-1.05-1.14-1.64-1.64-.27-.23-.52-.46-.77-.7-1.32-1.31-2.36-2.91-3.03-4.65-.18-.46-.33-.94-.45-1.42-.13-.02-.27-.03-.39-.05-.59-.07-1.19-.13-1.78-.15h-.47c-2.33.02-4.63.63-6.89,1.24-.92.24-1.85.48-2.78.68.06.14.09.29.08.44,0,.28-.13.55-.21.81-.1.27-.15.55-.18.83-.1.77,0,1.55.08,2.33.04.3.07.6.11.9.02.12.03.25.05.38.05.47.11.94.17,1.41.05.4.09.8.02,1.2-.07.32-.21.61-.35.91-.33.68-.67,1.36-1,2.04-.29.6-.58,1.2-1,1.73-.11.14-.23.27-.4.36-.16.08-.35.1-.53.11-.82.05-1.64.03-2.46-.03-.1,0-.2-.02-.26-.09-.07-.08-.07-.19-.05-.29.09-.64.58-1.19,1.21-1.36.2-.05.42-.08.57-.23.08-.08.11-.19.15-.3.11-.31.22-.62.33-.94.07-.18.14-.37.2-.55.08-.22.16-.45.18-.67.02-.23-.02-.45-.07-.67-.02-.08-.03-.14-.05-.21-.35-1.35-.8-2.67-1.3-3.96-.36-.94-.74-1.88-1.13-2.81-.11-.24-.2-.49-.3-.74-.05-.1-.09-.23-.14-.37-1.06-.24-2.08-.65-2.96-1.25-.7-.47-1.3-1.05-1.78-1.75-.03-.05-.06-.1-.09-.14-.14-.21-.26-.43-.36-.66-.49-.99-.73-2.07-.87-3.18h0c-.1-.71-.15-1.42-.2-2.12-.11-1.58-.23-3.34-.35-4.91,0-.02,0-.05,0-.06.91-.81,1.83-1.53,2.79-2.23.74-.53,1.48-1.05,2.24-1.57.17-.12.36-.24.53-.36.23.53.48,1.05.73,1.58.43.89.89,1.76,1.36,2.62.2.34.4.7.73.92.49.34,1.15.31,1.76.26,3.21-.29,6.41-.77,9.63-.92,3.11-.14,6.28.05,9.24,1.02.41-.07.79-.2,1.11-.47.55-.45.8-1.17,1.01-1.84,1.3-4.22,2.08-8.59,2.35-13,.19-3.01.13-6.03-.17-9.04-.05-.42-.09-.86.08-1.24.17-.39.65-.67,1.03-.47.24.13.36.41.46.67.29.8.51,1.61.67,2.46.19,1.02.28,2.07.34,3.11.23,3.95.11,7.92-.37,11.85Z"/><path class="cls-8" d="m71.23,83.45c.04.13.17.2.28.27.81.42,1.69.7,2.6.83.19.03.42.02.51-.14-.93-1.35-1.31-3.03-2.25-4.37-.1-.15-.23-.3-.41-.34-.3,1.17-.55,2.35-.73,3.54-.01.07-.02.15,0,.22Z"/><path class="cls-1" d="m109.41,53.94c-1.56-.12-3.11-.19-4.55-.5-1.53-.33-2.59-.17-3.96-.95-.95-.55-1.76-1.32-2.18-2.35-.32-.79-.95-3.61-.96-4.45-.01,0-.03,0-.04,0,0-.08-.01-.17-.03-.25-.07-.7-.23-1.37-.45-2,0,0,0-.01,0-.02,0,0,0,0,0-.01-.6-2.61-.96-3.73-2.97-6.66l-3.28-4.73c-.83-1.21-1.58-2.16-2.35-2.99-.73-.78-1.48-1.46-2.34-2.15-.73-.59-1.55-1.19-2.5-1.87l-2.38-3.23s0,0,0,0h0s-.03-.08-.04-.11l-.53-1.31c-.02-.05-.04-.11-.06-.16-1.14-2.9-2.81-7.51-3.66-9.22,0,0,0,0,0-.01-.12-.25-.23-.43-.31-.54-1.64-2.15-8.26-2.19-9.57.46-.08.16-.14.33-.18.52l-.18.58c-.17.63-.98,1.38-1.56,1.7l-.31.17h-.03s-2.19,1.22-2.19,1.22l-.96.53c-.38.21-.53.66-.37,1.06l.53.83.96,1.5c.04.09.08.18.13.27.03.06.07.11.1.17.21.33.49.6.82.8.49.31,1.07.46,1.68.42.08.02.16.03.24.03.12.02.24.02.36.02.31,0,.61-.04.9-.11,1.67-.39,2.36-.71,2.93.17.76.76-.71,2.36-.73,4.47,0,.53.03,1.01.08,1.46.06.5.14.93.22,1.32,0,0,0,0,0,0-.12.42-.2.84-.25,1.27-.15,1.24-.03,2.49.34,3.68.21.68.5,1.33.87,1.95l.06.1c.07.11.13.21.21.32.2.33.42.66.65.98.43.61.89,1.2,1.39,1.76.45.52.92,1.01,1.42,1.47.37.35.75.68,1.14,1l.12.49.95,3.88c.14.84.09,5.53.06,7.51-.41.4-1.07.63-1.58,1.14-.42.42-.72,1.01-.46,1.44.17.29.59.52,1.39.57l1.22.03c2.34-.1,2.39-1.71,2.31-3,0,0,0,0,0,0,.16-1.85.58-6.21,1.13-7.34l.14-1.56c.25.11.51.21.77.31.03.01.05.02.07.03,0,0,0,0,0,0-.31.8-.48,1.65-.48,2.54,0,2.82,1.68,5.16,4.21,6.55h-.1s-2.98-.19-2.98-.19c-2.59-.11-3.78,2.38-2.02,2.66h15.12c.27,0,.52-.04.75-.12h0s.03,0,.04-.02c.06-.02.11-.04.17-.07.06-.02.12-.05.18-.09.49-.25.85-.64,1.1-1.14,0,0,0,0,0,0,0,0,0,0,0,0,1.84,1.26,4.11,1.67,6.3,1.77,3.86.18,7.7.29,11.56.12.38-.02.77-.04,1.16-.06-2.27-1.56-4.76-1.87-7.2-2.06Z"/><path d="m62.7,17.17l-.73.33-.53-.83c-.17-.4,0-.86.37-1.06l.96-.53.39.68c.29.51.08,1.16-.45,1.41Z"/><path class="cls-2" d="m70.74,17.45c-.22,1.03.32,2.12,1.32,2.43.08.02.15.04.23.06,1.29.25,3.54.42,4.29-1.27.42-.79.38-1.76,0-2.95-.07-.22-.13-.45-.17-.68l-.43-2.78c-.56-1.88-3.27-2.8-3.73-.78-.12,1.49-.7,2.69-1.18,4.4l-.34,1.56Z"/><path class="cls-9" d="m76.05,19.35s.09-.08.13-.13"/><path class="cls-9" d="m75.6,19.77s0,.04,0,.05"/><path class="cls-9" d="m74.22,20.29s.06,0,.09-.02"/><line class="cls-6" x1="80.74" y1="43.71" x2="82.17" y2="37.72"/><path class="cls-6" d="m81.59,44.04s2.05-3.37,5.96-3.09"/><polygon class="cls-5" points="23.64 114.29 23.43 109.11 28.86 109.05 27.85 114.07 26.07 115.74 23.64 114.29"/><path class="cls-5" d="m29.84,117.73c-.14-.44-1.6-3.02-1.95-3.67-.71.31-1.41.48-2.18.47-.71,0-1.5-.07-2.07-.5-.36.51-.8,1.21-1.14,1.77-.3.51-.73,1.05-.95,1.62-.22.58-.12,1.25.34,1.63,1.53,1.27,5.82,1.58,7.67.17.55-.42.37-1.21.28-1.51Z"/><polygon class="cls-5" points="46.89 112.31 46.55 107.14 41.14 107.66 42.68 112.54 44.63 114.02 46.89 112.31"/><path class="cls-5" d="m41.1,116.39c.09-.45,1.26-3.17,1.54-3.85.74.23,1.45.32,2.22.24.71-.08,1.49-.23,2.01-.72.42.47.93,1.11,1.32,1.64.36.48.84.96,1.11,1.51.28.55.25,1.23-.17,1.66-1.39,1.42-5.62,2.19-7.61,1-.59-.36-.5-1.17-.44-1.47Z"/><path class="cls-5" d="m47.09,109.8s-1.72.7-3.77.99c-2.04.29-2.19.04-2.19.04l-3.73-24.62s-1.05-2.71-2.45-6.36c-.11-.29-.22-.57-.33-.88-.48-1.25-.99-2.58-1.51-3.93.05,3.99.1,7.94.14,11.75l-4.19,25.21c-1.63.58-1.75.56-3.5.56-1.62,0-1.61-.04-3.08-.62.66-8.77,1.84-24.92,1.84-24.92,0,0-3.68-17.05-2.79-25.89.43-4.26,2.33-7.75,3.64-10.08.82.69,2.19,1.25,3.22,1.5,1.69.42,2.38.48,4.08.42.27-.03.55-.04.79-.07,2.46-.28,4.04-.56,4.04-.56,0,0,3.42,7.59,4.8,12.14,1.37,4.52,3.57,22.14,3.57,22.14l1.44,23.17Z"/><path class="cls-5" d="m35.96,29.25c-.24.11-.49.19-.74.25-2.11.5-4.5-.39-5.31-.73l.25-3.57.03-.4,5.53-1.07.14,1.15.47,3.89c-.03.07-.04.15-.07.21-.02.04-.03.09-.04.13,0,.02,0,.04-.02.05h0l-.21.1Z"/><path class="cls-7" d="m49.92,64.8c.02.17.01.35.01.52,0,.47-.03.93-.04,1.4,0,.2,0,.41.06.6s.18.38.36.46.43.06.55-.1c.11-.14.11-.33.1-.51,0-.23-.02-.47-.02-.7-.01-.31-.02-.63-.05-.94-.05-.64-.17-1.3-.57-1.8-.13-.16-.73-.57-.73-.1,0,.18.14.38.2.55.06.2.11.41.13.62Z"/><path class="cls-7" d="m50.29,65.1c.02.17.01.35.01.52,0,.47-.03.93-.04,1.4,0,.2,0,.41.06.6s.18.38.36.46.43.06.55-.1c.11-.14.11-.33.1-.51,0-.23-.02-.47-.02-.7-.01-.31-.02-.63-.05-.94-.05-.64-.17-1.3-.57-1.8-.13-.16-.73-.57-.73-.1,0,.18.14.38.2.55.06.2.11.41.13.62Z"/><path class="cls-7" d="m45.72,58.67c.05-.27.87-.47,1.23-1,1.15.67,3.08,4.34,3.56,5.31.32.66.66,1.33.8,2.05.15.76.17,1.54.21,2.32,0,.12.01.25-.03.36-.07.21-.34.34-.53.2-.41-.31-.44-.95-.48-1.42-.04-.44-.05-.88-.15-1.31-.11-.42-.33-.76-.61-1.09-.2-.24-.39-.48-.6-.71-.08-.09-.16-.18-.25-.25-.12-.1-.26-.19-.42-.21-.13-.02-.34,0-.44.1-.11.11-.05.28-.02.41.03.16.1.3.17.44.12.24.26.49.31.76,0,.05.01.09.02.14.02.5-.48,1.1-.91.56-.09-.12-.15-.25-.22-.39-.3-.64-.74-1.22-.92-1.9-.12-.44-.18-.89-.25-1.33-.25-1.68-.63-2.25-.47-3.04Z"/><path class="cls-7" d="m48.87,63.13c-.06-.09-.12-.17-.19-.25-.12-.14-.27-.28-.45-.34-.18-.06-.4-.03-.52.11-.1.12-.12.29-.1.45.06.38.31.7.54,1.02.12.16.23.33.31.52-.05-.27-.19-.51-.31-.76-.07-.14-.13-.29-.17-.44-.03-.13-.09-.3.02-.41.1-.1.31-.12.44-.1.16.02.3.1.42.21Z"/><path class="cls-6" d="m32.17,9.48s0,1.03-.37,1.73h0"/><path class="cls-6" d="m30.17,11.64c-.81-.47-1.37-1.67-1.37-1.67"/><path class="cls-6" d="m27.59,21.1h0c-.1-.02-.77-.19-1.16-1.25-.43-1.14-.91-1.01-.96-2.19-.03-1.11,1.12-.63,1.25-.57"/><path class="cls-6" d="m37.02,10.94s-.8.47-1.69.64"/><path class="cls-5" d="m28.48,12.14c.51.03,1.1-.09,1.69-.51.25.15.5.22.78.19.39-.04.65-.3.83-.63,0,0,.02.02.03.02.11.1.82.72,1.69-.12.45.55,1.17.6,1.84.48.4.31.94.27.94.27.03.04.07.1.1.14,1.63,2.3,1.79,3.87,1.8,4.03.1-.41.17-.8.23-1.17-.09.69-.22,1.19-.25,1.29h0s0,.03,0,.03h0c.02.65.03,2.34-.24,4.09-.23,1.45-.66,2.95-1.46,3.91-1.84,2.24-3.04,2.29-3.22,2.27-.18.04-1.44.23-3.62-1.71-.94-.83-1.6-2.24-2.04-3.64-.53-1.68-.78-3.35-.86-4h0c-.01-.07-.02-.15-.02-.23.02.06.05.1.05.1-.02-.27-.02-.54-.02-.81.18-1.35,1.41-3.6,1.56-3.98l.18-.03Z"/><path class="cls-6" d="m26.74,16.16c-.04.26-.05.49-.03.71"/><path class="cls-6" d="m26.73,17.1s0,0-.01-.02h0c-.06-.14-.35-.8-.55-1.7v-.03c-.4-1.81-.42-4.53,2.58-5.75,0,0,.19-.99,1.45-.83,0,0,1.47-1.6,3.24-.29,1.23-.35,1.57.6,1.57.6,3.39.8,3.61,3.86,3.41,5.68,0,.04-.01.07-.01.09"/><path class="cls-6" d="m36.41,12.18s1.74,2.54,1.74,4"/><path class="cls-6" d="m26.69,16.82h0s0,.12.03.25h0s0,.03,0,.03"/><path class="cls-6" d="m38.16,16.18v-.02"/><path class="cls-6" d="m38.15,15.9s0,.09.01.25"/><path class="cls-6" d="m37.91,20.27h0c.09-.04.73-.31.95-1.42.25-1.19.75-1.14.61-2.31-.14-1.1-1.21-.45-1.32-.37"/><path class="cls-6" d="m34.22,10.1c-.22.41-.44.72-.65.93-.03.03-.04.06-.07.07"/><path class="cls-6" d="m31.81,11.22l-.02-.02"/><path class="cls-5" d="m32.99,16.03s.39,3.51,1.16,5.27c0,0-.15.36-1.29.14"/><ellipse class="cls-5" cx="30.64" cy="17.71" rx=".12" ry=".35" transform="translate(-1.28 2.42) rotate(-4.42)"/><ellipse class="cls-5" cx="35.47" cy="17.25" rx=".12" ry=".35" transform="translate(-1.23 2.79) rotate(-4.42)"/><line class="cls-5" x1="33.11" y1="75.04" x2="32.85" y2="64.26"/><path class="cls-5" d="m21.68,44.39c.81-.85,1.56-1.75,2.24-2.68.04.4.02,1.27-.04,2.37-.09,2.21-.3,5.36-.42,7.35.47.69.91,1.41,1.33,2.12.26.45.3.99.09,1.47-.03.06-.05.13-.09.2.04.02.06.03.1.04,3.84,1.23,8.03,1.37,11.96.47.8-.18,1.63-.44,2.12-1.13.08-.12.16-.24.22-.38,1.02,1.28,2.1,2.53,3.26,3.7.99.99,2.52,1.22,3.75.56.92-.49,1.45-1.43,1.45-2.4,0-.46-.12-.92-.37-1.35-.69-1.18-1.41-2.29-2.2-3.43-.44-.63-1.25-1.68-1.7-2.26-.2-.25-.3-.57-.28-.9.13-2.21,1.28-11.91-1.42-15.6-.09-.13-.16-.28-.27-.39-1.16-1.17-3.47-2.58-4.93-3.16-.1.06-.2.12-.3.17h0l-.21.1c-.24.11-.49.19-.74.25-2.11.5-4.5-.39-5.31-.73-.19-.08-.29-.13-.29-.13-1.32.17-2.62.46-3.88.88-1.38.47-2.59,1.01-3.74,1.93-1.16.94-2.19,2.03-3.16,3.16-.47.55-.93,1.1-1.39,1.67-.22.27-.45.54-.67.82"/><path class="cls-5" d="m36.48,28.98c-.1.06-.2.12-.3.17h0c-.07.04-.14.07-.21.1-.24.11-.49.19-.74.25l.79-.32.2-.08.28-.12Z"/><path class="cls-5" d="m40.7,41.75c-.05,1.28-.82,9.4-1.04,10.67-.13.74-.24,1.55-.69,2.18-.49.69-1.33.95-2.12,1.13"/><path class="cls-7" d="m32.69,59.71s-2.61-1.24-2.61-1.24c-.39-.18-.78-.34-1.16-.53-.19-.1-.38-.21-.55-.34-.16-.12-.37-.28-.07-.32.19-.02.4,0,.59.02.3.02.63.05.92-.02.17-.04.33-.14.4-.3.08-.21-.02-.45-.2-.59,0,0-.01-.01-.02-.01-.18-.14-.42-.19-.65-.23-.73-.13-1.49-.17-2.2-.35-.41-.11-.78-.28-1.21-.35-.35-.05-.7-.07-1.05-.05l-.47-.52s.02-.04.02-.04c-.14-.16-.29-.33-.43-.49-.59.93-1.18,1.86-1.78,2.79.37.29.61.46.61.46,0,0,0,0,0-.01.26,1.3,1.17,2.65,2.24,3.31.11.07.22.13.31.22.07.07.12.16.17.24.29.5.56,1.01.82,1.52.16.32.36,1.1.81,1.11.31,0,.53-.34.39-.61-.25-.5-.51-1-.78-1.49-.1-.18-.22-.36-.29-.56-.02-.06-.1-.21-.06-.28.19-.35.67.3.8.44.23.26.46.52.69.78.33.37.66.73.99,1.09.21.22.48.66.85.5.26-.11.34-.46.14-.66-.11-.11-.21-.23-.32-.34-.02-.04-.04-.08-.08-.12-.36-.41-.71-.84-1.04-1.27-.17-.22-.34-.43-.5-.65-.07-.09-.49-.43-.34-.56.16-.15.62.33.73.41.33.22.66.45.99.67.44.3.88.61,1.32.91.28.18.75.64,1.08.33.18-.17.17-.48-.02-.64-.02-.02-.04-.05-.06-.07-.56-.54-1.19-1.01-1.81-1.48-.3-.23-.61-.46-.9-.71-.15-.13-.3-.26-.44-.39-.06-.06-.24-.17-.17-.26.07-.09.27,0,.35.03.2.08.39.23.59.3.34.12.69.25,1.03.37.48.18.96.35,1.44.53.29.11.72.42,1,.16.21-.19.16-.59-.09-.71Z"/><path class="cls-5" d="m21.68,44.39c-.71.75-1.44,1.47-2.19,2.18,1.51,1.59,2.84,3.2,3.97,4.87.47.69.91,1.41,1.33,2.12.26.45.3.99.09,1.47-.03.06-.05.13-.09.2-.3.72-.64,1.42-1.06,2.09-.33.55-1.02.75-1.6.48-2.07-.96-4-2.25-5.76-3.68-1.48-1.21-2.98-2.53-3.9-4.23-1.53-2.85-.38-6.1,1.2-8.65.9-1.47,2.01-2.82,3.11-4.16"/><line class="cls-5" x1="19.5" y1="46.56" x2="16.78" y2="44.16"/><line class="cls-5" x1="33.86" y1="29.5" x2="33.11" y2="56.09"/><line class="cls-5" x1="32.56" y1="32.49" x2="35.47" y2="32.49"/><path class="cls-4" d="m70.18,22.02s4.03,2.63,10.57-1.83l27.73-14.59"/><path class="cls-8" d="m78.15,87.37c.07.39.1.78.05,1.17,0,.15-.03.29-.07.44-.04.16-.09.31-.16.46-.4.94-1.3,1.61-2.27,1.96-.07.03-.14.05-.22.07-.45.14-.92.22-1.38.27-.4.05-.81.07-1.22.08-.07,0-.14,0-.21,0-.22,0-.43,0-.65,0-1.13,0-2.25-.06-3.38-.17-.4-.04-.8-.08-1.15-.25-.35-.17-.63-.43-.85-.74h0c-.22-.31-.39-.67-.53-1.02,0-.02-.02-.05-.03-.07-.03-.07-.06-.13-.08-.21-.06-.14-.12-.28-.14-.43-.04-.26,0-.53.11-.77.03-.07.06-.14.09-.19h0c.09-.16.21-.32.34-.45.37-.38.81-.67,1.19-1.04.75-.74,1.18-1.77,1.94-2.51,0-.01.01-.01.02-.02.33-.31.71-.56,1.11-.75.19-.08.39-.15.58-.21h0c.49-.15,1.01-.21,1.53-.24.08-.48.17-.98.27-1.46.12-.59.25-1.18.41-1.76.17.04.3.19.41.34.13.19.24.38.35.57.5.86.83,1.82,1.27,2.71.26.15.5.33.7.55.14.17.27.36.4.55.54.77,1.05,1.57,1.36,2.46.01.02.02.06.04.08.06.2.11.4.15.6Z"/><path class="cls-6" d="m68.59,92.4s4.88,1.29,8.37-.8"/></svg>