<?xml version="1.0" encoding="UTF-8"?>
<svg id="Calque_1" data-name="Calque 1" xmlns="http://www.w3.org/2000/svg" viewBox="0 0 200 128">
  <defs>
    <style>
      .cls-1 {
        fill: #fff;
      }

      .cls-1, .cls-2, .cls-3, .cls-4, .cls-5 {
        stroke: #000;
      }

      .cls-1, .cls-2, .cls-6 {
        stroke-linecap: round;
        stroke-linejoin: round;
      }

      .cls-2, .cls-6, .cls-5 {
        fill: none;
      }

      .cls-7 {
        fill: #f6e7d4;
      }

      .cls-8, .cls-4 {
        fill: #fab0b4;
      }

      .cls-9, .cls-3 {
        fill: #ff6d75;
      }

      .cls-3, .cls-4, .cls-5 {
        stroke-miterlimit: 10;
      }

      .cls-6 {
        stroke: #fff;
        stroke-width: 8px;
      }
    </style>
  </defs>
  <g>
    <path class="cls-7" d="m176.53,85.44l-.07.1.07-.1Z"/>
    <path class="cls-7" d="m176.13,85.94l-.12.12.12-.12Z"/>
    <polygon class="cls-7" points="175.43 86.51 175.53 86.45 175.55 86.44 175.43 86.51"/>
    <path class="cls-7" d="m174.95,86.77l-.1.05.1-.05Z"/>
    <path class="cls-7" d="m174.25,87.01l-.15.03.15-.03Z"/>
    <g>
      <g>
        <g>
          <circle class="cls-4" cx="96.07" cy="52.61" r="11.65"/>
          <path class="cls-3" d="m96.07,55.84c1.29,0,2.33-1.04,2.33-2.33s-2.33-4.12-2.33-4.12c0,0-2.33,2.83-2.33,4.12s1.04,2.33,2.33,2.33Z"/>
        </g>
        <g>
          <circle class="cls-4" cx="122.59" cy="52.61" r="11.65"/>
          <g>
            <path class="cls-3" d="m118.3,55.84c1.29,0,2.33-1.04,2.33-2.33s-2.33-4.12-2.33-4.12c0,0-2.33,2.83-2.33,4.12s1.04,2.33,2.33,2.33Z"/>
            <path class="cls-3" d="m126.88,55.84c1.29,0,2.33-1.04,2.33-2.33s-2.33-4.12-2.33-4.12c0,0-2.33,2.83-2.33,4.12s1.04,2.33,2.33,2.33Z"/>
          </g>
        </g>
        <g>
          <circle class="cls-4" cx="149.89" cy="52.61" r="11.65"/>
          <g>
            <path class="cls-3" d="m145.6,52.61c1.29,0,2.33-1.04,2.33-2.33s-2.33-4.12-2.33-4.12c0,0-2.33,2.83-2.33,4.12s1.04,2.33,2.33,2.33Z"/>
            <path class="cls-3" d="m154.18,52.61c1.29,0,2.33-1.04,2.33-2.33s-2.33-4.12-2.33-4.12c0,0-2.33,2.83-2.33,4.12s1.04,2.33,2.33,2.33Z"/>
            <path class="cls-3" d="m149.89,60.8c1.29,0,2.33-1.04,2.33-2.33s-2.33-4.12-2.33-4.12c0,0-2.33,2.83-2.33,4.12s1.04,2.33,2.33,2.33Z"/>
          </g>
        </g>
        <g>
          <circle class="cls-4" cx="176.72" cy="52.61" r="11.65"/>
          <g>
            <path class="cls-3" d="m172.43,51.74c1.29,0,2.33-1.04,2.33-2.33s-2.33-4.12-2.33-4.12c0,0-2.33,2.83-2.33,4.12s1.04,2.33,2.33,2.33Z"/>
            <path class="cls-3" d="m181.01,51.74c1.29,0,2.33-1.04,2.33-2.33s-2.33-4.12-2.33-4.12c0,0-2.33,2.83-2.33,4.12s1.04,2.33,2.33,2.33Z"/>
            <path class="cls-3" d="m172.43,59.93c1.29,0,2.33-1.04,2.33-2.33s-2.33-4.12-2.33-4.12c0,0-2.33,2.83-2.33,4.12s1.04,2.33,2.33,2.33Z"/>
            <path class="cls-3" d="m181.01,59.93c1.29,0,2.33-1.04,2.33-2.33s-2.33-4.12-2.33-4.12c0,0-2.33,2.83-2.33,4.12s1.04,2.33,2.33,2.33Z"/>
          </g>
        </g>
      </g>
      <g>
        <line class="cls-5" x1="84.42" y1="72.26" x2="181.19" y2="72.26"/>
        <polygon points="179.73 77.24 188.37 72.26 179.73 67.27 179.73 77.24"/>
      </g>
    </g>
  </g>
  <g>
    <path class="cls-1" d="m22.39,62.5l5.43-3.39c0,.18,0,12.32-2.45,14.97l7.8,8.15c-.02.16-.04.32-.07.48,0-.03,0-.04,0-.04,0,0,1.05.94,3.1,1.29,2.05.34,4.48-.5,6.87.42,1.2.45,2.34.54,3.08.63,2.16-1.05,4.56-.62,6.46-1.22,1.98-.61,2.89-1.71,2.89-1.71.86.35,1.54.8,2.08,1.3,1.74,1.59,1.95,3.56,1.95,3.56-.06.1-.13.2-.2.29.07.29.11.46.11.46,0,0,12.89-6.88,13.85-9.45.97-2.58-1.4-17.08-1.72-22.77-.18-3.22-1.05-5.3-1.77-6.51h0c-.55-.93-1.02-1.33-1.02-1.33l-6.81-6.1c-.44.25-.87.45-1.29.61h0c-.21.32-4.83,6.89-11.64,2.27-6.98-4.72-6.56-7.4-6.56-7.4,0,0-2.05.26-4.8.86-4.15.91-9.88,2.59-12.6,5.37-2.03,2.08-5.84,5.37-9.5,8.68m43.13,26.59c1.64-3.48,4.93-8.03,5.13-8.3-.06.13-.11.2-.11.2l.65,2.9-5.67,5.2Z"/>
    <path class="cls-1" d="m57.32,89.57l5.55,22.98s-18.9,8.02-46.39,0c0,0,1.38-23.4,4.99-29.24"/>
    <circle class="cls-8" cx="41.63" cy="90.6" r="14.97"/>
    <circle class="cls-9" cx="41.63" cy="90.6" r="11.95"/>
    <path class="cls-2" d="m51.27,34.99c.32,1.18,4.72,6.12,6.87,7.3.61.34,1.52.25,2.52-.12"/>
    <path class="cls-2" d="m61.96,41.55c2.16-1.2,4.34-3.35,4.67-5.07.53-2.9,3.43-6.12,3.43-6.12"/>
    <path class="cls-2" d="m67.06,54.1s-2.15,4.94-1.29,8.05c.76,2.73-1.39,7.05-1.92,8.05,0,0,0,0,0,.02"/>
    <path class="cls-2" d="m58.7,78.52s0,0,0,.02l-3.45,3.15c.98.27,1.75.92,2.33,1.7,1.02,1.34,1.54,3.05,1.75,3.86"/>
    <path class="cls-1" d="m22.39,62.5l-4.96,3.09c2.73,2.32,4.85,5.26,4.85,5.26l3.09,3.23,7.8,8.15c-.02.16-.04.32-.07.48,0,.04-.02.11-.04.19-.16.9-.41,1.67-.72,2.31-.57,1.19-1.34,1.99-2.05,2.5-.17.13-.34.24-.5.34-.9.52-1.61.62-1.61.62-.05,0-.77-.12-6.72-5.36-1.59-1.4-3.54-3.15-5.95-5.37-11.93-10.96-10.1-12.46-9.13-16.01.53-1.94,4.74-5.99,9.18-10"/>
    <path class="cls-2" d="m17.43,65.59c-1.58-1.35-3.35-2.48-5.03-2.73"/>
    <line class="cls-2" x1="32.58" y1="56.14" x2="27.82" y2="59.11"/>
    <path class="cls-2" d="m32.59,42.5s2.57,5.32.58,9.92"/>
    <path class="cls-2" d="m65.43,30.37s-1.55.73-1.93,2.58c-.38,1.86.8,1.93-.87,2.81"/>
    <path class="cls-2" d="m67.1,21.43s3.15.86,3.27,3.36c.11,2.5-.8,6.69.83,11.27"/>
    <path class="cls-2" d="m64.38,20.86c-2.21,3.07-2.4,5.16-5.5,5.57-3.11.42-3.22,6.37-7.09,6.44-3.87.08-6.29,1.36-6.29,1.36"/>
    <path class="cls-2" d="m45.67,36.64s-8-4.13-2.59-10.23c1.55-1.74,5.58-12.41,14.3-14.17,8.71-1.76,12.42,3.6,12.42,3.6,0,0,4.21.54,3.72,5.59-.48,5.05,2.71,4.23.04,8.94-2.67,4.71,4.03,6.27-1.32,11.19-4.27,3.93-8.21,1.85-8.21,1.85"/>
    <path class="cls-2" d="m50.12,32.99s-2,4.3-7.65,4.04"/>
    <ellipse cx="66.66" cy="31.9" rx="1.1" ry=".77" transform="translate(11.74 81.36) rotate(-67.58)"/>
    <ellipse cx="60.41" cy="29.88" rx="1.1" ry=".77" transform="translate(9.75 74.33) rotate(-67.58)"/>
    <path class="cls-1" d="m43.94,89.44c-.05.12.55.45,1.43.87.09.04.18.08.28.13,2.41,1.13,6.42,2.89,5.68,3.61-.59.57-2.67-.26-4.59-1.03-.18-.08-.36-.15-.53-.21-1.19-.48-2.25-.88-2.74-.83-.05,0-.11.02-.14.04-.07.03-.1.07-.1.12,0,.24.75.69,1.74,1.23.28.16.59.32.9.48.56.3,1.15.61,1.68.92.19.11.37.21.54.32.81.49,1.42.94,1.49,1.28.1.46-.95.16-2.33-.37-.34-.12-.7-.28-1.07-.43-.55-.23-1.13-.48-1.67-.7-.45-.2-.87-.38-1.25-.53-.82-.33-1.42-.54-1.53-.46-.12.08.23.42.78.89.29.24.65.52,1.02.81.37.29.77.6,1.15.9.44.34.85.67,1.18.96.67.58,1.05,1.02.74,1.08-.19.04-.69-.07-1.43-.33-.56-.2-1.25-.47-2.03-.82-.37-.17-.76-.35-1.17-.55-.58-.28-1.18-.59-1.82-.93-.35-.2-.7-.39-1.07-.6-3.14-1.81-6.67-4.28-9.31-7.22h0s.51-.34.51-.34c.9-.68,1.53-1.63,1.97-2.51.47-.98.71-1.89.8-2.3.02-.08.03-.15.04-.19,0-.03,0-.04,0-.04,0,0,1.05.94,3.1,1.29,2.05.34,4.48-.5,6.87.42,1.2.45,2.34.54,3.08.63.72.1,1.06.2.66.69-.61.76-3.04.66-4.11.58-.32-.03-.52-.05-.52-.05l.3.12,2.39.93.53.21.29.11,4.1,1.59s2.35,1.1,1.71,1.86c-.64.76-7.39-2.09-7.58-1.63Z"/>
    <path class="cls-1" d="m59.53,86.96c-.06.1-.13.2-.2.29-.6.86-1.26,1.7-1.96,2.51-5.02,5.78-12.14,9.94-13.03,9.88-.37-.03.11-.66.86-1.47.2-.24.45-.49.69-.75.45-.48.95-.98,1.38-1.43.33-.34.61-.65.84-.91.34-.39.53-.66.42-.71-.1-.04-.45.12-.96.39-.38.21-.86.49-1.36.8-.48.29-.99.6-1.5.9-.53.32-1.06.62-1.54.89-1.18.65-2.08,1.02-2.05.58.02-.28.37-.68.88-1.13.43-.38.98-.81,1.56-1.24.32-.23.65-.47.97-.7.5-.37.97-.7,1.35-1.02.44-.34.77-.63.87-.83.09-.13.07-.22-.06-.26-.11-.04-.27-.02-.46.04-.33.09-.76.29-1.25.56-.52.28-1.1.61-1.7.96-.25.14-.5.29-.75.43-.86.48-1.69.92-2.35,1.12-.49.15-.88.18-1.11,0-.18-.13-.15-.34.04-.61.55-.79,2.49-2.08,4.13-3.14.08-.05.16-.11.24-.16,1.02-.68,1.9-1.25,2.17-1.53.07-.07.1-.12.08-.16-.04-.05-.16-.04-.36.03-1.38.43-6.26,3.22-6.91,2.64-.75-.66,1.43-2.08,1.43-2.08l5.83-3.26.09-.04,1.19-.67c-.15.04-1.1.28-2.11.39-.14.02-.29.04-.42.04-.87.07-1.72.03-2.1-.33-.02-.02-.04-.04-.04-.04-.29-.29-.19-.45.18-.6.06-.02.13-.04.21-.06.69-.21,1.92-.44,3.17-1.13.09-.05.19-.1.28-.14,2.16-1.05,4.56-.62,6.46-1.22,1.98-.61,2.89-1.71,2.89-1.71.86.35,1.54.8,2.08,1.3,1.74,1.59,1.95,3.56,1.95,3.56Z"/>
    <path class="cls-2" d="m58.7,78.52s0,0,0,.02"/>
    <path class="cls-2" d="m63.84,70.2s0,0,0,.02"/>
    <path class="cls-2" d="m37.21,67.61s9.75,7.97,21.18,5.18"/>
  </g>
  <rect class="cls-6" x="-3405.22" y="-3004.76" width="6467.34" height="6437.3"/>
</svg>