<?xml version="1.0" encoding="UTF-8"?>
<svg id="Calque_1" data-name="Calque 1" xmlns="http://www.w3.org/2000/svg" viewBox="0 0 200 128">
  <defs>
    <style>
      .cls-1 {
        fill: #f6e7d4;
      }

      .cls-2 {
        fill: #ff6d75;
      }

      .cls-2, .cls-3, .cls-4 {
        stroke: #000;
        stroke-miterlimit: 10;
      }

      .cls-3 {
        fill: #fab0b4;
      }

      .cls-5 {
        stroke: #fff;
        stroke-linecap: round;
        stroke-linejoin: round;
        stroke-width: 8px;
      }

      .cls-5, .cls-4 {
        fill: none;
      }
    </style>
  </defs>
  <path class="cls-1" d="m168.81,114.92l-.12.16.12-.16Z"/>
  <path class="cls-1" d="m168.12,115.77l-.2.21.2-.21Z"/>
  <polygon class="cls-1" points="166.92 116.76 167.1 116.66 167.13 116.63 166.92 116.76"/>
  <path class="cls-1" d="m166.1,117.21l-.17.08.17-.08Z"/>
  <path class="cls-1" d="m164.9,117.61l-.25.05.25-.05Z"/>
  <g>
    <g>
      <g>
        <circle class="cls-3" cx="30.87" cy="58.64" r="19.97"/>
        <path class="cls-2" d="m30.87,64.17c2.21,0,3.99-1.79,3.99-3.99s-3.99-7.06-3.99-7.06c0,0-3.99,4.85-3.99,7.06s1.79,3.99,3.99,3.99Z"/>
      </g>
      <g>
        <circle class="cls-3" cx="76.33" cy="58.64" r="19.97"/>
        <g>
          <path class="cls-2" d="m68.98,64.17c2.21,0,3.99-1.79,3.99-3.99s-3.99-7.06-3.99-7.06c0,0-3.99,4.85-3.99,7.06s1.79,3.99,3.99,3.99Z"/>
          <path class="cls-2" d="m83.69,64.17c2.21,0,3.99-1.79,3.99-3.99s-3.99-7.06-3.99-7.06c0,0-3.99,4.85-3.99,7.06s1.79,3.99,3.99,3.99Z"/>
        </g>
      </g>
      <g>
        <circle class="cls-3" cx="123.14" cy="58.64" r="19.97"/>
        <g>
          <path class="cls-2" d="m115.79,58.64c2.21,0,3.99-1.79,3.99-3.99s-3.99-7.06-3.99-7.06c0,0-3.99,4.85-3.99,7.06s1.79,3.99,3.99,3.99Z"/>
          <path class="cls-2" d="m130.5,58.64c2.21,0,3.99-1.79,3.99-3.99s-3.99-7.06-3.99-7.06c0,0-3.99,4.85-3.99,7.06s1.79,3.99,3.99,3.99Z"/>
          <path class="cls-2" d="m123.14,72.69c2.21,0,3.99-1.79,3.99-3.99s-3.99-7.06-3.99-7.06c0,0-3.99,4.85-3.99,7.06s1.79,3.99,3.99,3.99Z"/>
        </g>
      </g>
      <g>
        <circle class="cls-3" cx="169.13" cy="58.64" r="19.97"/>
        <g>
          <path class="cls-2" d="m161.77,57.15c2.21,0,3.99-1.79,3.99-3.99s-3.99-7.06-3.99-7.06c0,0-3.99,4.85-3.99,7.06s1.79,3.99,3.99,3.99Z"/>
          <path class="cls-2" d="m176.48,57.15c2.21,0,3.99-1.79,3.99-3.99s-3.99-7.06-3.99-7.06c0,0-3.99,4.85-3.99,7.06s1.79,3.99,3.99,3.99Z"/>
          <path class="cls-2" d="m161.77,71.19c2.21,0,3.99-1.79,3.99-3.99s-3.99-7.06-3.99-7.06c0,0-3.99,4.85-3.99,7.06s1.79,3.99,3.99,3.99Z"/>
          <path class="cls-2" d="m176.48,71.19c2.21,0,3.99-1.79,3.99-3.99s-3.99-7.06-3.99-7.06c0,0-3.99,4.85-3.99,7.06s1.79,3.99,3.99,3.99Z"/>
        </g>
      </g>
    </g>
    <g>
      <line class="cls-4" x1="10.9" y1="92.32" x2="181.92" y2="92.32"/>
      <polygon points="180.47 97.31 189.1 92.32 180.47 87.34 180.47 97.31"/>
    </g>
  </g>
  <rect class="cls-5" x="-3169.56" y="-3004.76" width="6467.34" height="6437.3"/>
</svg>