<?xml version="1.0" encoding="UTF-8"?>
<svg id="Calque_1" data-name="Calque 1" xmlns="http://www.w3.org/2000/svg" viewBox="0 0 128 128">
  <defs>
    <style>
      .cls-1 {
        fill: #76ac75;
      }

      .cls-1, .cls-2, .cls-3, .cls-4, .cls-5, .cls-6, .cls-7 {
        stroke: #000;
      }

      .cls-1, .cls-2, .cls-3, .cls-4, .cls-5, .cls-6, .cls-7, .cls-8 {
        stroke-linecap: round;
        stroke-linejoin: round;
      }

      .cls-2 {
        fill: #a07637;
      }

      .cls-3, .cls-6 {
        fill: #ffb176;
      }

      .cls-4, .cls-8 {
        fill: none;
      }

      .cls-5 {
        fill: #ffd6bb;
      }

      .cls-5, .cls-6, .cls-7 {
        stroke-width: 2px;
      }

      .cls-7 {
        fill: #ffa75f;
      }

      .cls-8 {
        stroke: #fff;
        stroke-width: 8px;
      }
    </style>
  </defs>
  <g>
    <path class="cls-5" d="m99.66,84.94c-1.34,3.16-5.01,9.13-11.46,12.53,0,0-6.52,4.39-17.83,1.48-.74-.19-1.63-.63-2.98-.45-.79.11-1.52.42-2,0-.27-.24-.23-1.03-.54-1.45-.27-.37-1.26-1.08-1.49-1.19-.66-.32-1.81-1.52-2.96-2.99-1.17-1.5-2.34-3.28-3.03-4.7-.67-1.39-1.23-2.88-1.64-4.42-1.05-4.01-1.01-8.46,1.12-12.95,1.58-3.32,4.15-6.52,7.07-9.14,2.31-2.08,4.84-3.8,7.27-4.91,2.25-1.04,4.41-1.57,6.24-1.4h.01c.4.04.79.11,1.15.21,2.78.8,5.02,2,5.16,7.38.08,2.94-.1,4.53-.5,5.48.32-.4.79-.93,1.4-1.52.73-.72,5.64-4.75,10.47-3.54,3.41.86,5.12,4.59,5.56,5.56,2.34,5.14.78,11.73-1.02,16.02Z"/>
    <path class="cls-6" d="m99.65,92.7c-4.28,5.67-9.86,7.77-12.19,8.61-1.52.55-6.42,2.17-12.74,1.47-2.86-.32-6.25-.69-9.66-3.08-2.71-1.9-4.15-4.18-5.39-6.39-.17-.3-.33-.6-.49-.89-1.3-2.37-2.92-6.07-3.45-8.67.41,1.54.97,3.03,1.64,4.42.69,1.42,1.86,3.2,3.03,4.7,1.15,1.47,2.3,2.67,2.96,2.99.23.11,1.22.82,1.49,1.19.31.42.27,1.21.54,1.45.48.42,1.21.11,2,0,1.35-.18,2.24.26,2.98.45,11.31,2.91,17.83-1.48,17.83-1.48,6.45-3.4,10.12-9.37,11.46-12.53,1.8-4.29,3.36-10.88,1.02-16.02-.44-.97-2.15-4.7-5.56-5.56-4.83-1.21-9.74,2.82-10.47,3.54-.61.59-1.08,1.12-1.4,1.52h-.01c-.05-.03-.1-.06-.15-.08.4-.95.74-2.46.66-5.4-.14-5.38-2.38-6.58-5.16-7.38-.36-.1-.75-.17-1.15-.21,1.69-.09,3.67.48,5.05,1.29,1.8,1.06,1.89,2.11,4.34,3.71.95.62,1.58,1.62,4.48,2.03,4.91.7,6.41,1.53,7.57,2.24,3.47,2.14,4.69,7.07,5.25,9.46,2.22,9.48-3.62,17.47-4.48,18.62Z"/>
    <path class="cls-2" d="m83.95,82.88c-3.34,6.56-11.96,6.06-11.96,6.06,0,0-1.6-2.72-2.16-4.61-.56-1.89-.11-4,0-6.48.11-2.47,1.89-6.19,7.45-8.86,2.94-1.41,5.04-1.18,6.49-.43.05.02.1.05.15.08h.01c1.21.67,1.95,1.69,2.35,2.35.89,1.44,1,5.33-2.33,11.89Z"/>
    <path class="cls-6" d="m71.19,56.75c-2.43,1.11-4.96,2.83-7.27,4.91-2.92,2.62-5.49,5.82-7.07,9.14-2.13,4.49-2.17,8.94-1.12,12.95.53,2.6,2.15,6.3,3.45,8.67.16.29.32.59.49.89-1.66.93-3.62,1.52-5.45,2.12-1.83.6-8.94,2.81-16.28-.97-1.26-.65-3.85-2.16-6.16-4.93-3.07-1.62-6.44-4.2-8.67-8.29-4.97-9.13-1.03-19.94,3.87-26.12,5.83-7.33,14.82-10.38,22.92-10,1,.05,1.98.15,2.94.3.99.15,1.96.36,2.9.62,1.04.29,2.09.65,3.12,1.08,5.29,2.18,10.17,5.99,12.33,9.63Z"/>
    <path class="cls-7" d="m31.78,89.53c-1-1.18-1.93-2.59-2.7-4.26-2.45-5.33-1.67-10.14-1.29-12.25.29-1.68,1.93-10.95,8.22-13.54,2.31-.95,6.51-1.52,8.22-1.74"/>
    <path class="cls-3" d="m32.48,89.53c-1-1.18-2.64-2.59-3.41-4.26-2.45-5.33-1.67-10.14-1.29-12.25.29-1.68,1.93-10.95,8.22-13.54,2.31-.95,6.51-1.52,8.22-1.74.12-.02.23-.03.32-.04,1.62-.2,3.31-.33,4.54-1.07"/>
    <path class="cls-4" d="m51.08,54.45c-.57.75-.35.37-.89,1.16-.3.44-.67.77-1.1,1.02-1.23.74-2.92.87-4.54,1.07-.09.01-.2.02-.32.04"/>
    <path class="cls-1" d="m72.2,37.9s-5.75,2.16-8,3.36c-1.6.86-3.11,2.98-5.14,5.29-.8.92-1.68,1.87-2.69,2.78-3.51,3.2-7.4,1.28-7.4,1.28,0,0,.38-3.45,1.13-6.06.14-.47.28-.9.44-1.29,1.04-2.56,3.6-4.96,8.71-6.32,5.12-1.36,12.95.96,12.95.96Z"/>
    <path class="cls-1" d="m49.09,56.63c-1.23.74-2.92.87-4.54,1.07-.09.01-.2.02-.32.04.07-.35.09-.76-.08-1.24-.1-.28-.31-.86-.86-1.26-.4-.29-.67-.25-.85-.55-.21-.35.02-.57,0-1.31-.01-.3-.04-1.01-.46-1.62-.32-.46-.61-.5-.7-.9-.08-.38.1-.72.2-.91.47-.86,1.44-1.15,1.81-1.26,1.02-.29,2.63-.33,3.03.4.22.42-.15.71.1,1.41.15.44.33.46.8,1.11.2.28.48.67.69,1.14.09.21.17.44.22.68.16.77-.14.88-.05,1.56.11.83.62,1.25,1.01,1.64Z"/>
    <path class="cls-4" d="m43.55,51.11c.25.03.9-.1,1.64-.55.76-.45,1-1.22,1.13-1.47"/>
    <g>
      <path class="cls-4" d="m84.09,71.67c.07.42.13,1.04-.06,1.74-.2.75-.47.82-.62,1.46-.27,1.17.52,1.54.22,2.41-.31.94-1.35.94-1.46,1.79-.08.65.5.82.39,1.35-.18.88-1.89.64-2.86,2.02-.34.49-.15.55-.56,1.23-.21.35-.87,1.43-2.19,1.96-1.15.46-2.19.25-2.86.11-.85-.17-1.5-.49-1.91-.73"/>
      <path class="cls-4" d="m79.1,80.92c-1.28.46-2.08,1.08-2.58,1.57-.64.63-.94,1.21-1.57,1.23-.56.02-.66-.42-1.51-.56-.78-.13-1.1.19-1.51-.06-.24-.14-.5-.47-.56-1.29"/>
      <path class="cls-4" d="m82.69,73.01c-.18.38-.44,1-.56,1.79-.17,1.11.06,1.59-.34,2.07-.34.42-.65.22-1.68.73-.81.4-1.38.91-1.68,1.18-.94.85-.88,1.18-1.35,1.29-.79.18-1.05-.76-2.35-.95-.92-.13-1.24.26-2.07,0-.59-.19-.99-.57-1.23-.84"/>
      <path class="cls-4" d="m81.34,72.9c-.03.69-.26,1.07-.45,1.29-.47.52-.98.36-1.79.95-.62.45-.44.64-.95.95-.73.46-1.12.09-2.47.39-1.05.23-1.2.54-1.74.45-.76-.13-1.27-.9-1.57-1.51"/>
      <path class="cls-4" d="m80.61,70.38c.05.19.09.48,0,.79-.11.37-.35.54-.9,1.07-.78.74-.62.69-.84.84-.63.41-1.31.4-2.07.39-.55,0-1-.02-1.51-.28-.37-.19-.63-.44-.78-.62"/>
    </g>
    <path class="cls-4" d="m45.67,54.89c.21.03.73-.11,1.33-.58s.81-1.29.92-1.55l.84-1.57s1.95-2.96,4.07-5.76c.99-1.31,2.02-2.59,2.89-3.51,2.75-2.88,10.2-3.6,10.2-3.6"/>
  </g>
  <rect class="cls-8" x="-408.12" y="-1635.28" width="3385.57" height="2571.67"/>
</svg>