<?xml version="1.0" encoding="UTF-8"?>
<svg id="Calque_1" data-name="Calque 1" xmlns="http://www.w3.org/2000/svg" viewBox="0 0 128 128">
  <defs>
    <style>
      .cls-1 {
        fill: #d6d6d6;
      }

      .cls-1, .cls-2, .cls-3, .cls-4 {
        stroke: #000;
      }

      .cls-1, .cls-2, .cls-5 {
        stroke-linecap: round;
      }

      .cls-1, .cls-5 {
        stroke-linejoin: round;
      }

      .cls-2, .cls-3, .cls-4 {
        stroke-miterlimit: 10;
      }

      .cls-2, .cls-4 {
        fill: #ffd4ad;
      }

      .cls-3 {
        fill: #fee4cb;
      }

      .cls-5 {
        fill: none;
        stroke: #fff;
        stroke-width: 8px;
      }
    </style>
  </defs>
  <path class="cls-4" d="m92.85,88.65l1.81,6.14c1.22,4.13-1.14,8.47-5.27,9.7l-1,.3c-4.33,1.28-8.92-1.22-10.2-5.55l-1.74-5.89c-.73-2.46-.02-5.03,1.61-6.78.03.16.07.32.11.48l.77,2.61c.74,2.5,3.4,3.96,5.91,3.21l.65-.19c2.5-.74,3.95-3.41,3.21-5.91l-.77-2.61c-.04-.13-.08-.27-.15-.4.3.07.6.16.89.29l1.02.53c.81.48,1.51,1.14,2.07,1.91.33.44.6.94.82,1.47h0c.09.23.17.46.24.69Z"/>
  <path class="cls-3" d="m87.94,84.15l.77,2.61c.74,2.5-.71,5.17-3.21,5.91l-.65.19c-2.52.74-5.17-.71-5.91-3.21l-.77-2.61c-.05-.16-.08-.32-.11-.48-.33-1.65.08-3.52,1.05-4.88.57-.81,1.34-1.42,2.29-1.7s1.92-.18,2.83.18c.4.14.78.35,1.15.59,1.08.72,1.96,1.8,2.41,2.99.06.12.11.27.15.4Z"/>
  <path class="cls-4" d="m84.22,80.07s.02.07.01.1c-.92-.37-1.89-.46-2.83-.18s-1.72.89-2.29,1.7c-.02-.02-.03-.06-.04-.09-.39-1.33.38-2.75,1.71-3.14l.31-.09c.64-.19,1.29-.11,1.84.17.6.3,1.09.85,1.29,1.55Z"/>
  <g>
    <path class="cls-4" d="m89.85,84.64s.95-3.03,2.15-4.63c1.19-1.6,3.74-3.35,3.74-3.35l-.74-7.19c-.03-.25-.21-.45-.45-.51h0c-.39-.09-.75.23-.71.62l.58,6.36s-3.17,2.21-3.97,3.28-2.68,4.34-2.68,4.34l2.09,1.09Z"/>
    <path class="cls-4" d="m93.62,90.26s3.56,1.61,5.55,1.85,5-.39,5-.39l4.68,5.5c.16.19.18.46.06.68h0c-.2.34-.68.38-.94.08l-4.19-4.81s-3.78.49-5.11.6c-2.12.18-4.09-.3-4.09-.3l-.95-3.23Z"/>
    <path class="cls-4" d="m91.73,86.39l5.78-2.71s3.07,1.9,5.19,1.92c1.56.02,3.64-.33,4.63-.52.33-.06.65.14.75.46h0c.11.39-.14.79-.54.84-1.29.17-3.87.49-4.79.41-1.24-.11-5-1.72-5-1.72l-5.11,2.94-.91-1.63Z"/>
    <path class="cls-4" d="m95.11,95.8l6.67,3.76s-.32,2.4.12,4.32q.35,1.52,1.08,3.48c.12.32.25.62.04.88h0c-.26.31-.84.4-1,.02-1.12-2.63-.99-2.23-1.47-4.04-.63-2.39-.29-3.92-.29-3.92l-4.8-2.34-.35-2.16Z"/>
    <path class="cls-2" d="m82.93,78.53s.18-1.27-.01-2.05-.94-2.19-.94-2.19"/>
  </g>
  <g>
    <path class="cls-4" d="m76.63,88.55s-2.44-2.02-4.32-2.72c-1.87-.7-4.96-.78-4.96-.78l-3.28-6.44c-.11-.22-.07-.49.1-.67h0c.28-.28.75-.22.94.14l2.97,5.65s3.86.13,5.11.59,4.6,2.19,4.6,2.19l-1.16,2.04Z"/>
    <path class="cls-4" d="m76.53,95.32s-2.12,3.29-3.65,4.57c-1.53,1.28-4.41,2.39-4.41,2.39l-.94,7.16c-.03.25.1.49.32.6h0c.36.18.78-.05.84-.44l.9-6.32s3.44-1.65,4.62-2.27c1.88-1,3.27-2.48,3.27-2.48l-.95-3.23Z"/>
    <path class="cls-4" d="m76.01,91.03l-6.32.87s-1.54,3.26-3.31,4.43c-1.3.86-3.23,1.7-4.17,2.08-.31.13-.47.47-.38.79h0c.11.39.55.58.91.41,1.18-.56,3.52-1.69,4.24-2.26.98-.77,3.26-4.16,3.26-4.16l5.89-.32-.12-1.86Z"/>
    <path class="cls-4" d="m78.29,100.77l-3.56,6.78s1.57,1.84,2.25,3.69q.53,1.46.99,3.5c.07.33.12.66.45.76h0c.39.12.92-.13.85-.52-.49-2.82-.38-2.41-.96-4.18-.77-2.35-1.89-3.45-1.89-3.45l2.76-4.57-.88-2Z"/>
    <path class="cls-2" d="m79.13,79.65s-.84-.97-1.1-1.73c-.27-.76-.4-2.35-.4-2.35"/>
  </g>
  <path class="cls-4" d="m45.89,49.84l-3.1,5.6c-2.09,3.77-6.84,5.13-10.61,3.05l-.92-.51c-3.95-2.19-5.39-7.21-3.21-11.16l2.98-5.38c1.24-2.25,3.56-3.54,5.96-3.61-.09.14-.18.27-.26.42l-1.32,2.38c-1.26,2.28-.44,5.2,1.86,6.47l.59.33c2.28,1.26,5.2.43,6.47-1.86l1.32-2.38c.07-.12.14-.25.18-.38.17.26.31.54.42.84l.34,1.1c.22.92.25,1.88.09,2.81-.08.54-.25,1.09-.48,1.62h0c-.09.23-.19.45-.31.66Z"/>
  <path class="cls-3" d="m45.66,43.19l-1.32,2.38c-1.26,2.28-4.18,3.12-6.47,1.86l-.59-.33c-2.3-1.27-3.12-4.18-1.86-6.47l1.32-2.38c.08-.14.17-.28.26-.42.94-1.39,2.57-2.42,4.21-2.67.97-.16,1.95-.04,2.82.44s1.48,1.24,1.86,2.15c.18.38.3.8.39,1.24.24,1.27.09,2.66-.43,3.82-.04.13-.11.26-.18.38Z"/>
  <path class="cls-4" d="m45.95,37.67s-.03.06-.06.08c-.38-.91-1-1.67-1.86-2.15s-1.84-.6-2.82-.44c0-.03.02-.07.03-.09.67-1.21,2.22-1.66,3.44-.99l.29.16c.58.32.98.84,1.17,1.42.2.64.15,1.38-.19,2.01Z"/>
  <g>
    <path class="cls-4" d="m46.65,44.89s2.82-1.45,4.8-1.72c1.98-.27,5.01.31,5.01.31l4.6-5.57c.16-.19.18-.47.05-.68h0c-.21-.34-.69-.37-.94-.07l-4.12,4.87s-3.8-.71-5.12-.53-4.97,1.14-4.97,1.14l.69,2.25Z"/>
    <path class="cls-4" d="m45.29,51.52s1.35,3.67,2.57,5.25,3.79,3.29,3.79,3.29l-.64,7.2c-.02.25-.2.46-.44.52h0c-.39.09-.75-.22-.72-.61l.49-6.36s-3-2.35-4.02-3.22c-1.62-1.38-2.66-3.13-2.66-3.13l1.63-2.94Z"/>
    <path class="cls-4" d="m46.72,47.45l5.99,2.22s.8,3.52,2.27,5.04c1.08,1.12,2.79,2.36,3.62,2.94.28.19.36.56.2.86h0c-.2.35-.66.45-.98.2-1.03-.8-3.07-2.41-3.65-3.12-.79-.96-2.28-4.77-2.28-4.77l-5.68-1.58.52-1.79Z"/>
    <path class="cls-4" d="m42.38,56.47l2,7.39s-1.93,1.45-2.99,3.12q-.84,1.31-1.72,3.21c-.14.31-.26.61-.6.64h0c-.4.04-.87-.32-.72-.7,1.09-2.65.9-2.27,1.85-3.88,1.26-2.13,2.59-2.96,2.59-2.96l-1.7-5.06,1.29-1.76Z"/>
    <path class="cls-2" d="m46.14,35.67s1.03-.76,1.45-1.45.9-2.21.9-2.21"/>
  </g>
  <g>
    <path class="cls-4" d="m34.59,38.22s-.27-3.16-1.09-4.98c-.82-1.83-2.92-4.08-2.92-4.08l2.28-6.86c.08-.24.3-.4.55-.4h0c.4,0,.68.38.56.76l-1.94,6.08s2.62,2.84,3.16,4.06c.55,1.22,1.67,4.81,1.67,4.81l-2.27.61Z"/>
    <path class="cls-4" d="m29.69,42.89s-3.83.8-5.82.61-4.8-1.46-4.8-1.46l-5.76,4.36c-.2.15-.28.41-.2.65h0c.12.38.58.52.9.29l5.13-3.79s3.59,1.3,4.86,1.7c2.03.64,4.06.59,4.06.59l1.63-2.94Z"/>
    <path class="cls-4" d="m32.38,39.52l-5.06-3.9s-3.4,1.19-5.48.75c-1.52-.32-3.48-1.11-4.41-1.51-.31-.13-.67,0-.83.29h0c-.2.35-.03.8.35.94,1.23.45,3.67,1.32,4.58,1.44,1.23.16,5.25-.59,5.25-.59l4.36,3.97,1.24-1.39Z"/>
    <path class="cls-4" d="m27.04,47.97l-7.33,2.22s-.21,2.41-1.05,4.19q-.67,1.41-1.8,3.16c-.18.28-.38.55-.23.85h0c.18.36.74.57.97.24,1.67-2.33,1.45-1.96,2.31-3.62,1.13-2.2,1.14-3.77,1.14-3.77l5.19-1.24.81-2.03Z"/>
    <path class="cls-2" d="m42.68,33.75s.1-1.28.46-2,1.4-1.93,1.4-1.93"/>
  </g>
  <path class="cls-1" d="m95.31,32.23c.19-.64.33-1.31.33-2.01,0-3.85-3.12-6.97-6.97-6.97-3.14,0-5.76,2.09-6.63,4.94-1.11-.06-2.24.12-3.32.63-3.48,1.65-4.97,5.8-3.32,9.28,1.65,3.48,5.8,4.97,9.28,3.32.11-.05.2-.13.3-.18,1.23,1.98,3.41,3.31,5.91,3.31,3.85,0,6.97-3.12,6.97-6.97,0-2.16-1-4.07-2.55-5.35Z"/>
  <path class="cls-1" d="m110.47,44.34c-.16-.42-.35-.82-.64-1.2-1.55-2.04-4.46-2.43-6.49-.88-1.66,1.26-2.21,3.42-1.52,5.28-.61.42-1.14.97-1.5,1.67-1.18,2.27-.29,5.07,1.98,6.25,2.27,1.18,5.07.29,6.25-1.98.04-.07.05-.14.09-.22,1.45.55,3.13.38,4.46-.63,2.04-1.55,2.43-4.46.88-6.49-.87-1.14-2.17-1.75-3.5-1.8Z"/>
  <path class="cls-1" d="m39.49,105.37c-.03-.56-.12-1.12-.32-1.67-1.11-3.02-4.46-4.56-7.48-3.45-2.46.91-3.91,3.3-3.77,5.79-.89.28-1.72.74-2.42,1.45-2.25,2.3-2.21,5.99.08,8.24,2.3,2.25,5.99,2.21,8.24-.08.07-.07.12-.15.18-.23,1.54,1.2,3.63,1.61,5.59.88,3.02-1.11,4.56-4.46,3.45-7.48-.63-1.69-1.96-2.9-3.54-3.45Z"/>
  <rect class="cls-5" x="-910.12" y="-3177.54" width="2244.45" height="5948.74"/>
</svg>