<?xml version="1.0" encoding="UTF-8"?>
<svg id="Calque_1" data-name="Calque 1" xmlns="http://www.w3.org/2000/svg" viewBox="0 0 200 128">
  <defs>
    <style>
      .cls-1 {
        fill: #bfe6fc;
      }

      .cls-1, .cls-2, .cls-3, .cls-4, .cls-5, .cls-6 {
        stroke-linecap: round;
        stroke-linejoin: round;
      }

      .cls-1, .cls-2, .cls-3, .cls-4, .cls-6 {
        stroke: #000;
      }

      .cls-2 {
        fill: #fff;
      }

      .cls-3, .cls-5 {
        fill: none;
      }

      .cls-4 {
        fill: #fab0b4;
      }

      .cls-5 {
        stroke: #fff;
        stroke-width: 8px;
      }
    </style>
  </defs>
  <path class="cls-3" d="m103.73,70.72l2.7.1c11.87-12.23,29.5-35.39,41.25-33.34,7.05,1.22,7.91,10.58,10.91,19.11,3,8.53,3.74,13.31,8.24,22.13l2.15,3.45c1.75,2.81,4.25,5.12,7.29,6.42.83.35,1.73.66,2.7.86,5.16,1.09,6.19.78,6.13,3.62-.07,2.83-19.37,1.73-21.78,1.67-.99-.02-1.13-1.72-.95-3.7.41-4.56-.78-9.12-3.49-12.81-.64-.87-1.34-1.83-2.13-2.89-4.94-6.7-8.96-9.65-11.48-19.04-.8-3.56-.06-5.43-.06-5.43-2.79,3.24-12.43,29.28-33.72,43.1l-7.75-23.25"/>
  <g>
    <path class="cls-1" d="m118.1,88.8s-4.04,5.75-10.3,7.07c-3.63.77-15.38,1.44-20.29-1.48l-2.78-1.3s-.02-.01-.05-.01c-.3-.11-.64.1-.87.28-.75.6-1.36,1.53-2.04,2.22-.75.77-1.55,1.54-2.49,2.1-1.71.99-3.82,1-5.74,1.39-2.1.42-4.22.75-6.35,1.01-.4.05-.79.09-1.18.14-6.25-2.27-13.73-5.8-15.09-10.05-2.4-7.52,8.87-17.81,8.87-17.81.81.07,1.73-.16,2.69-.57.01-.01.02-.02.03-.02,3.53-1.5,6.06-4.57,9.27-6.62.17-.09.33-.19.5-.3,3.55-2.08,7.78-3.55,11.95-3.13.69.08,1.38.23,2.06.43,2.38.73,4.66,2.16,6.72,3.39,1.88,1.13,3.2,2.92,4.85,4.06.8.55,1.67.96,2.72,1.05,2.8.27,2.75.11,3.13.06,3.26-.48,5.1-2.43,5.45-2.81l3.52-3.84,5.4,24.73Z"/>
    <path class="cls-2" d="m66.01,100.22s-.05.01-.07.01h0s.05,0,.07-.01Z"/>
    <path class="cls-2" d="m37.69,84.29c.13.38.25.76.38,1.15,3.66,1.72,7.27-1.72,7.27-1.72,0,0,10.64-11.72,14.46-11.35,0,0-11.24,10.27-8.87,17.78,1.01.13,4.17.64,8.68.29,9.94-.76,17.77,1.73,17.77,1.73,5.74-.72,7.45-.9,9-.91,2.53-.03,3.87,0,6.39.15,2.65.16,5.3.31,7.96.23,1.7-.05,3.93,0,5.43-.95.82-.53,1.63-1.02,2.22-1.82.51-.7.78-1.53,1.45-2.12.76-.69,2.24-.86,3.21-1.03.27-.05.42-.07.42-.07,0,0,2.48-.76,1.98.18-.5.94-.93,1.45-.26,1.37.66-.09,1.31.64,1.18,1.3-.12.67.77.96.65,1.88-.11.93.02,1.46-.58,2.19-.6.72-.26,2.06-1.5,2.73-.02.02-.05.03-.07.04-1.27.64-3.99.77-4.88.95-.92.18-8.25,1.24-13.31,2.59-2.51.67-5.85,1.05-8.78,1.26-.91.06-1.82.19-2.74.22-1.11.04-5.93.27-6.24.3-1.76.17-3.03-.04-3.05-.04-.04-.03-6.81-.7-9.84-.38h-.07c-1.01.12-1.92.18-2.55.17-2.55-.06-5.61.07-5.61.07,0,0-8.54,1.64-12.45.72-1.26-.29-2.81-.76-4.32-1.43-.62-.26-1.23-.57-1.82-.9-1.22-.69-2.34-1.52-3.14-2.5-.19-.24-.37-.47-.52-.73-.46-.76-.74-1.61-.74-2.53,0-3.26-.45-6.85,1.27-8.88-4.46-.8-9.13-5.98-9.13-5.98,0,0-6.91-6-1.5-8.96,0,0,3.05-.39,7.36,2.34,4.31,2.73,5.09,2.3,5.89,2.3s0,1.68,0,1.68c0,0,3.62,4.22,2.15,6.89-.32.59-.89,1.09-1.8,1.48-.43.17-.87.28-1.33.32"/>
    <path class="cls-2" d="m57.79,100.46s-8.54,1.63-12.45.72c-1.78-.42-4.12-1.18-6.14-2.33h0c-.32-18.65-13.77-29.58-13.77-29.58,0,0,3.06-.39,7.36,2.33,4.31,2.73,5.09,2.3,5.88,2.3s0,1.68,0,1.68c0,0,3.63,4.22,2.16,6.89-.32.59-.9,1.1-1.8,1.48-.43.18-.87.28-1.33.33.13.38.25.76.37,1.16,3.66,1.73,7.27-1.72,7.27-1.72,0,0,0,0,0-.01-.13-.33-2.91-7.4-5.93-10.71-3.05-3.34-8.09-9.1-18.5-4.4-.16.07-.31.14-.48.22-4.89,2.32-7,8.29-6.58,13.4.71,8.76,8.04,10.44,14.76,13.35,3.33,1.45,6.61,3.03,9.73,4.89.27.16.53.31.8.45,9.21,4.88,18.65-.45,18.65-.45Z"/>
    <path class="cls-2" d="m32.73,77.12s1.67-.27,1.69-2.03"/>
    <path class="cls-2" d="m97.88,69.62v11.97h-11.57v-19.42c2.38.73,4.66,2.16,6.72,3.39,1.88,1.13,3.2,2.92,4.85,4.06Z"/>
  </g>
  <g>
    <polygon class="cls-6" points="97.72 37.3 92.09 30.79 86.47 37.3 97.72 37.3"/>
    <line class="cls-3" x1="92.01" y1="37.3" x2="92.01" y2="55.17"/>
  </g>
  <path class="cls-4" d="m90.1,64.48c-.1,1.03-.13,2.47.2,4.14.39,1.96,1.13,3.47,1.7,4.43.48-.77,1.11-1.98,1.44-3.57.23-1.12.25-2.1.2-2.85"/>
  <rect class="cls-5" x="-2138.17" y="-3646.73" width="6467.34" height="6437.3"/>
</svg>