<?xml version="1.0" encoding="UTF-8"?>
<svg id="Calque_1" data-name="Calque 1" xmlns="http://www.w3.org/2000/svg" viewBox="0 0 128 128">
  <defs>
    <style>
      .cls-1 {
        fill: #fff;
      }

      .cls-1, .cls-2, .cls-3, .cls-4 {
        stroke-linecap: round;
        stroke-linejoin: round;
      }

      .cls-1, .cls-3, .cls-5 {
        stroke: #000;
      }

      .cls-2 {
        stroke: #222221;
      }

      .cls-2, .cls-3, .cls-4 {
        fill: none;
      }

      .cls-6, .cls-5 {
        fill: #d6d6d6;
      }

      .cls-7 {
        fill: #222221;
      }

      .cls-5 {
        stroke-miterlimit: 10;
      }

      .cls-4 {
        stroke: #fff;
        stroke-width: 8px;
      }
    </style>
  </defs>
  <path class="cls-1" d="m42.17,88.16c-1.43.05-2.85-.89-3.35-2.23-.31-.82-.27-1.73.06-2.54-2.25-.79-4.34-2-6.12-3.59-5.55-4.96-7.52-13.4-5.12-20.45,1.86-5.44,6.14-9.89,11.37-12.31-.25-.75-.27-1.57.02-2.31.51-1.34,1.92-2.28,3.36-2.22.42,0,.84.11,1.26.22.29.07.59.17.86.32.8.47,1.13,1.48,1.02,2.41,1.39.05,3.51.22,5.88.79,1.27.3,2.62.72,3.96,1.29,5.44,2.31,10.8,7.15,10.97,17.22,0,0,1.18,11.26-8.18,16.83-.86.51-1.75.94-2.67,1.31-1.36.54-2.77.93-4.22,1.19-2.01.37-4.09.49-6.14.4.06.15.1.29.13.42.25,1.01-.07,2.2-.97,2.72-.27.15-.56.24-.86.32-.41.12-.83.21-1.26.22Z"/>
  <path class="cls-3" d="m31.45,52.73s-3.2-4.09-20.39-3.49"/>
  <path class="cls-7" d="m44.25,54.62c-.68,0-1.22-.46-1.22-1.03s.55-1.03,1.22-1.03c.68,0,1.22.46,1.22,1.03s-.55,1.03-1.22,1.03Z"/>
  <path class="cls-7" d="m44.26,78.11c-.68,0-1.22-.46-1.22-1.03s.55-1.03,1.22-1.03,1.22.46,1.22,1.03-.55,1.03-1.22,1.03Z"/>
  <path class="cls-2" d="m40.27,65.71c.27.55.85.94,1.46.92.61-.02,1.19-.49,1.28-1.09.05-.33-.03-.66-.12-.99"/>
  <g>
    <g>
      <path class="cls-6" d="m98.45,63.44v-10.02h-2.66l-25.71,7.66.13.36-3.87,1.23c-6.19-18.85-17.8-19.07-18.29-19.07-1.15,0-2.06-.89-2.08-1.99-.02-1.12.87-2.05,1.99-2.07h.14c.53,0,13,.2,20.46,17.49l.18.41,26.48-7.9h7.12v13.91h-3.89Z"/>
      <path d="m48.11,40.03c.51,0,12.67.2,20,17.19l.35.82.85-.25,25.99-7.75h6.55v12.91h-2.89v-10.02h-3.23l-.14.04-25.13,7.49-1.01.31.13.36-2.9.92c-6.34-18.73-18.11-18.95-18.61-18.95h-.05c-.83,0-1.52-.67-1.53-1.5-.02-.85.66-1.55,1.55-1.57h.08m0-1c-.07,0-.13,0-.15,0-1.39.03-2.51,1.18-2.48,2.58.03,1.38,1.16,2.48,2.53,2.48h.05c.35,0,11.93.2,17.97,19.2l4.83-1.54c-.03-.12-.08-.24-.12-.35l25.13-7.49h2.08v10.02h4.89v-14.91h-7.69l-26.13,7.8c-7.33-17.01-19.34-17.8-20.92-17.8h0Z"/>
    </g>
    <g>
      <path class="cls-6" d="m49.29,91.01c-1.11,0-2-.87-2.03-1.97s.84-2.04,1.95-2.09c.12,0,12.14-.79,17.47-20.22l3.81,1.27-.05.2.44.23,24.92,7.43h2.66v-10.01h3.89v13.91h-7.12l-25.98-7.75-.16.44c-6.47,17.46-18.34,18.51-19.72,18.57h-.06Z"/>
      <path d="m101.85,66.34v12.91h-6.55l-25.47-7.59-.9-.27-.33.88c-6.49,17.5-18.77,18.22-19.24,18.25h-.08c-.83,0-1.51-.65-1.53-1.49-.03-.83.64-1.54,1.48-1.58.12,0,12.29-.8,17.78-20.08l2.87.95-.08.31.94.28,24.85,7.41.14.04h3.23v-10.01h2.89m1-1h-4.89v10.01h-2.08l-24.85-7.41c.03-.09.05-.19.08-.28l-4.77-1.59c-5.06,19.19-16.6,20.34-17.14,20.37-1.38.06-2.47,1.22-2.43,2.61.04,1.38,1.17,2.46,2.53,2.46h.08c.59-.03,13.41-.65,20.18-18.9l25.61,7.64h7.69v-14.91h0Z"/>
    </g>
    <path class="cls-5" d="m109.28,63.94c0,4.44-3.62,8.06-8.06,8.06s-8.06-3.62-8.06-8.06,3.61-8.07,8.06-8.07,8.06,3.62,8.06,8.07Z"/>
    <path class="cls-5" d="m108.54,38.41c-4.44,0-8.06,3.62-8.06,8.06s3.62,8.07,8.06,8.07,8.07-3.62,8.07-8.07-3.62-8.06-8.07-8.06Zm0,13.7c-3.11,0-5.64-2.52-5.64-5.64s2.52-5.64,5.64-5.64,5.64,2.53,5.64,5.64-2.52,5.64-5.64,5.64Z"/>
    <path class="cls-5" d="m108.88,72.62c-4.44,0-8.06,3.62-8.06,8.07s3.62,8.06,8.06,8.06,8.07-3.61,8.07-8.06-3.62-8.07-8.07-8.07Zm0,13.7c-3.11,0-5.64-2.52-5.64-5.64s2.52-5.64,5.64-5.64,5.64,2.53,5.64,5.64-2.52,5.64-5.64,5.64Z"/>
  </g>
  <path class="cls-3" d="m32.75,79.8s-10.46,4.16-21.7.63"/>
  <path class="cls-3" d="m22.8,55.98s-7.49-1.7-11.74-1.36"/>
  <path class="cls-3" d="m22.8,76.44s-.51.94-11.74-.4"/>
  <rect class="cls-4" x="-2267.73" y="-3875.04" width="6467.34" height="6437.3"/>
</svg>