<?xml version="1.0" encoding="UTF-8"?>
<svg id="Calque_1" data-name="Calque 1" xmlns="http://www.w3.org/2000/svg" viewBox="0 0 200 128">
  <defs>
    <style>
      .cls-1 {
        fill: #b4eac3;
      }

      .cls-1, .cls-2, .cls-3, .cls-4, .cls-5 {
        stroke-linecap: round;
        stroke-linejoin: round;
      }

      .cls-1, .cls-2, .cls-3, .cls-4, .cls-6 {
        stroke: #000;
      }

      .cls-2 {
        fill: #bfe6fc;
      }

      .cls-3 {
        fill: #fff;
      }

      .cls-4, .cls-5, .cls-6 {
        fill: none;
      }

      .cls-5 {
        stroke: #fff;
        stroke-width: 8px;
      }

      .cls-6 {
        stroke-miterlimit: 10;
      }
    </style>
  </defs>
  <polygon class="cls-3" points="156.22 93.92 158.19 127.52 162.79 127.52 160.63 88.29 162.79 127.52 174.34 127.7 182.13 78.52 156.22 93.92"/>
  <path class="cls-3" d="m47.26,40.77l-.58.17-.22-.26c.26.03.53.06.8.08Z"/>
  <path class="cls-3" d="m55.25,41.63l-.16.07c-2.38-.31-5.13-.64-7.83-.93h.03s.19-.85.46-1.67c.53,0,3.2.07,4.33.71,1.26.71,3.16,1.82,3.16,1.82Z"/>
  <path class="cls-3" d="m59.04,31.7c-1.42,1.95-2.21,3.48-.63,4.84,0,0-1.86.28-2.9-1.21.42-1.26.69-2.64.79-3.31.21-1.37,1.42-1.95,1.53-2.48.1-.53-.58-.79-1.32-1.42-.74-.63-.21-2.16.27-4.21.47-2.06.05-4.27-.27-5.22-.31-.95-1.2-1.75-2.31-.68-1.12,1.06-3.06,4.89-5.17,6.47-2.1,1.58-4.37.53-5.1.16-.74-.37-2.43-1-3.37.48-.95,1.47.84,3.31.84,3.31-.74,2.01-2.48,3.01-2.48,3.01,0,0-4.15-1.9-4.91-6.62-.01-.09-.03-.18-.04-.28-.24-1.89.06-3.9.77-5.77l.08.03-.06-.09c.36-.93.82-1.83,1.37-2.65h0c1.19-1.83,2.8-3.31,4.64-4.11,4.37-1.9,10-.89,12.16.95,2.16,1.84,2.9,1.28,3.95,1.47,1.05.2,3.74,1.79,3.74,7.96s-.16,7.42-1.58,9.37Z"/>
  <path class="cls-3" d="m34.82,18.8l-.08-.03s.01-.04.02-.06l.06.09Z"/>
  <path class="cls-3" d="m95.76,90.24c-.86.34-2.26.58-2.86.44,0,0-.14,1.02-2.67-.14,0,0-.81,1.02-2.42.63,0,0-.14.91-2.46-.07-.75-.32-1.3-.59-1.71-.82-.85-.49-1.09-.83-1.28-1.14-.28-.46-3.79-5.83-3.79-5.83,0,0-.01,0-.03,0,0,0-.01,0-.02,0,0,0-.02,0-.03,0-.33-.1-1.58-.46-3.31-.95-3.17-.9-7.97-2.22-11.69-3.14,0,0,0,0-.01,0-3.81-1.04-7.02-1.92-7.67-2.1-.26-.07-.64-.28-1.1-.58-2.55-1.67-7.6-6.22-8.36-6.91,1.05-.29,2.56-.78,4.2-1.61,1.59-.8,3.31-1.92,4.85-3.45l.49.46,3.63,3.36s11.27,5.79,14.11,6.95c2.84,1.16,6.32,3.05,7.58,2.63,1.26-.42,4.55.03,6.53,1.05.59.3,1.18.53,1.77.73.18.06.36.12.54.18,1.22.4,2.43.78,3.59,1.62.4.29.79.58,1.14.85,1.31,1.02,2.06,1.84.65,1.68-1.79-.21-3.16-1.37-3.16-1.37l-2.95.21,1.94,2.77,2.27,3.23s2.7.18,2.95.74c.09.2-.23.42-.72.61Z"/>
  <path class="cls-3" d="m83.65,90.28c-16.66.05-29.54.09-29.98.09-1.26,0-2.05-.47-2.05-.47,0,0-40.84-59.25-43.05-62.56-2.21-3.32-3.32-4.58-.87-6.87,2.2-2.06,4.11-1.03,5.45,1.18.06.1.38.58.89,1.33,3.71,5.43,17.51,25.37,17.51,25.37l.38.55c-.03.6.06,1.2.26,1.87.29.95.81,2.02,1.63,3.38,1.76,2.93,7.71,11.19,10.08,14.45.61.84.98,1.35.98,1.35,0,0,.54-.08,1.42-.32l8.62,12.44.18.26h.11c1.01,0,8.84.01,19.81.03,1.83.5,3.13.85,3.48.95.01,0,.02,0,.03,0,0,0,.02,0,.02,0,.02,0,.03,0,.03,0,0,0,3.51,5.37,3.79,5.83.19.31.43.65,1.28,1.14Z"/>
  <path class="cls-3" d="m78.49,83.28c-.34-.09-1.65-.45-3.48-.95h.16c1.73.49,2.98.85,3.31.95Z"/>
  <path class="cls-3" d="m99.7,82.38v7.85c-1.32,0-2.63,0-3.94.01.49-.19.81-.41.72-.61-.25-.55-2.95-.74-2.95-.74l-2.27-3.23-1.94-2.77,2.95-.21s1.37,1.16,3.16,1.37c1.41.17.66-.65-.65-1.68,1.62,0,3.27,0,4.92,0Z"/>
  <path class="cls-3" d="m123.92,82.41v7.74c-7.08.02-14.61.04-22.01.07v-7.84c7.38.01,14.91.02,22.01.03Z"/>
  <path class="cls-3" d="m160.31,90.05c-.23,0-3.06,0-7.66.02-6.26.02-15.79.05-26.51.08v-7.73c11.44.02,21.56.03,27.8.04,3.86,0,6.24,0,6.53,0,.03,0,.06,0,.09,0,1.94.21,1.16,7.58-.25,7.58Z"/>
  <path class="cls-3" d="m33.65,44.24c-.41.7-.77,1.35-1,1.89-.43,1.03-.69,1.89-.72,2.76l-.38-.55s-13.81-19.95-17.51-25.37c.31-.19,3.3-1.92,4.95.25,1.59,2.1,12.78,18.29,14.66,21.02Z"/>
  <path class="cls-2" d="m99.7,50.44v28.21c-.57.16-1.22.3-1.9.42-1.63.17-3.28.35-4.78.51-1.46.09-2.75.13-3.5.14-.59-.2-1.18-.43-1.77-.73-1.98-1.02-5.27-1.47-6.53-1.05-1.26.42-4.74-1.47-7.58-2.63-2.84-1.16-14.11-6.95-14.11-6.95l-3.63-3.36.37-1.38c-.28.32-.57.63-.86.92-1.54,1.53-3.25,2.65-4.85,3.45-1.64.83-3.15,1.33-4.2,1.61-.02,0-.03,0-.05.01-.88.24-1.42.32-1.42.32,0,0-.37-.51-.98-1.35-2.37-3.26-8.32-11.52-10.08-14.45-.81-1.36-1.34-2.43-1.63-3.38-.2-.66-.28-1.27-.26-1.87.03-.87.29-1.73.72-2.76.23-.54.58-1.2,1-1.89,1.67-2.81,4.38-6.32,4.38-6.32,0,0,.12.17.4.41h0c.71.64,2.42,1.81,5.6,2.11.79.08,1.61.16,2.44.24l.8.08c2.7.29,5.45.61,7.83.93,1.12.15,2.15.29,3.06.43,3.62.55,3.79,3.58,3.79,3.58,0,0,5.37-2.53,14.32-.32,8.95,2.21,10.95,9.27,10.95,9.27,6.74-4.85,12.32-5.37,12.32-5.37,0,0,.06.42.16,1.15Z"/>
  <path class="cls-3" d="m97.8,79.07c-1.53.26-3.25.42-4.78.51,1.51-.16,3.15-.34,4.78-.51Z"/>
  <path class="cls-3" d="m55.43,80.92c-.02.49-.1.95-.23,1.39h-.11l-.18-.26-8.62-12.44s.03,0,.05-.01c.76.69,5.81,5.24,8.36,6.91.5,1.55.8,3.07.73,4.41Z"/>
  <path class="cls-3" d="m78.49,83.28c-.34-.09-1.65-.45-3.48-.95-10.98-.02-18.81-.03-19.81-.03h-.11l-.18-.26c.16-.37.33-.76.52-1.13.74-1.46,1.71-2.77,2.82-2.77.73,0,2.74.43,5.22,1.04,0,0,0,0,.01,0,3.72.92,8.52,2.25,11.69,3.14,1.73.49,2.98.85,3.31.95Z"/>
  <path class="cls-3" d="m78.49,83.28c-.34-.09-1.65-.45-3.48-.95-3.07-.84-7.62-2.08-11.53-3.14,3.72.92,8.52,2.25,11.69,3.14,1.73.49,2.98.85,3.31.95Z"/>
  <line class="cls-3" x1="46.17" y1="48.34" x2="56.25" y2="63.61"/>
  <path class="cls-3" d="m57.94,48.66s1.58-2.11,4-2.95"/>
  <path class="cls-3" d="m36.13,16.06c-.55.82-1.01,1.72-1.37,2.65l.06.09-.08-.03c-.71,1.87-1.01,3.88-.77,5.77.01.1.03.19.04.28-.01.03-.03.06-.04.09-.52,1-2.58,1.89-4.26-.85-1.69-2.74-.37-4.26-.37-4.26-.95-2.32.84-2.79.84-2.79,0,0-.42-2.11,2.53-2.53,2.82-.4,3.37,1.41,3.42,1.57h0Z"/>
  <path class="cls-3" d="m29.34,19.8s1-2.69,4.32-.26"/>
  <path class="cls-3" d="m30.18,17.01s3.23-.56,4.58,1.7l.06.09-.08-.03"/>
  <path class="cls-3" d="m55.09,17.48s2.32-1.21,4,3.42c1.69,4.63,1.16,8.32.79,9.37"/>
  <path class="cls-3" d="m42.98,29.17s-.68,0-1.58-.74"/>
  <path class="cls-3" d="m41.77,25.96s.9.42.9,1.16"/>
  <path class="cls-3" d="m99.7,78.86v6.55c-3.23.09-6.11.18-8.43.24l-1.94-2.77,2.95-.21s1.37,1.16,3.16,1.37c1.41.17.66-.65-.65-1.68-.35-.27-.74-.56-1.14-.85-1.16-.84-2.37-1.22-3.59-1.62.88-.09,1.88-.2,2.96-.32,1.51-.16,3.15-.34,4.78-.51.64-.07,1.28-.14,1.9-.2Z"/>
  <path class="cls-3" d="m123.92,79.05v5.66c-7.67.23-15.45.45-22.01.64v-6.72c1.29-.14,2.47-.26,3.42-.36,1.21-.12,2.05-.21,2.32-.23.45-.03,2.37.06,4.79.21,2.23.14,4.89.32,7.27.49,1.62.12,3.1.22,4.21.3Z"/>
  <path class="cls-3" d="m161.58,80.47c0,.73-.48,1.44-1.02,2.01-.63.65-1.34,1.1-1.51,1.15-.05.02-1.94.08-5.09.18-6.03.19-16.67.51-27.82.84v-5.45c1.13,0,8.02-.03,15.16-.05,1.93,0,3.88-.01,5.74-.02h.02c1.73,0,3.38-.01,4.86-.02h0c.67,0,1.31,0,1.91,0h0s.04,0,.06,0c2.35,0,4.02-.01,4.52-.01,2.42,0,3.16-.21,3.16,1.37Z"/>
  <line class="cls-3" x1="92.49" y1="90.25" x2="88.69" y2="86.31"/>
  <line class="cls-3" x1="89.89" y1="90.26" x2="86.32" y2="87.36"/>
  <line class="cls-3" x1="87.81" y1="91.17" x2="84.43" y2="88.42"/>
  <path class="cls-3" d="m169.64,67.3c.07-.03,1.49-.68,1.26.55-.24,1.26-1.98,1.58-1.98,1.58,0,0,1.66,0,.16,1.18-1.5,1.18-4.5,2.29-6.16,2.68-1.66.4-6.24,3.71-6.48,4.19-.16.32-1.13,1.27-2.55,1.6-.02,0-.04.01-.06.01h0c-.6,0-1.24,0-1.91,0h0c-.15-.03-.3-.07-.45-.12-.35-.11-.67-.24-.97-.37-1.93-.85-2.63-1.97-3.46-2.79-.95-.95-5.53-3.08-9.4-3.24-3.76-.15-9.31-1.13-11.5-2.77v-11.97c-.12-.15-.23-.29-.34-.43.12-.91.24-1.72.34-2.34.12-.8.21-1.29.21-1.29,0,0,1.74,1.19,4.17,2.84,5.28,3.6,13.8,9.39,14.63,9.88.17.1.36.2.58.3,1.36.61,3.56,1.17,4.79,1.44.89.2,1.81.3,2.65.18.5-.07.97-.23,1.38-.49,1.11-.71,7.03-4.42,8.93-4.98,1.9-.55,3.4-2.45,4.03-3.63s1.74-1.5,2.61-.4c.87,1.11.32,2.92-.08,3.16,0,0,1.11-.24,1.26.79.16,1.03-.87,1.66-.87,1.66,0,0,1.26.39.79,1.18-.46.76-1.51,1.53-1.58,1.58Z"/>
  <path class="cls-3" d="m153.83,79.11c-.57.13-1.22.16-1.91,0,.67,0,1.31,0,1.91,0Z"/>
  <path class="cls-3" d="m150.5,78.62l-.06.45-3.38.06h-.02l-5.68.1s-.02-.03-.06-.08c-.23-.32-1.11-1.55-2-2.37-1.03-.95-6.08-2.69-8.53-2.84-1.46-.09-3.35-.75-4.63-1.27v-2.85c2.2,1.65,7.75,2.62,11.5,2.77,3.87.16,8.45,2.29,9.4,3.24.82.82,1.53,1.94,3.46,2.79Z"/>
  <path class="cls-1" d="m183.61,93.76h-32.39l1.42-3.69,1.35-3.5-.04-2.76-.02-1.35-.05-3.35h0c1.42-.35,2.39-1.3,2.55-1.62.24-.47,4.82-3.79,6.48-4.19,1.66-.39,4.66-1.5,6.16-2.68,1.5-1.18-.16-1.18-.16-1.18,0,0,1.74-.32,1.98-1.58.23-1.23-1.19-.59-1.26-.55.07-.05,1.12-.81,1.58-1.58.47-.79-.79-1.18-.79-1.18,0,0,1.03-.63.87-1.66-.16-1.03-1.26-.79-1.26-.79.39-.24.95-2.05.08-3.16-.87-1.11-1.97-.79-2.61.4s-2.13,3.08-4.03,3.63c-1.9.55-7.82,4.27-8.93,4.98-.41.27-.88.42-1.38.49-.88-.81-2.44-2.36-2.73-3.26,0,0-1.7,1.09-4.71,1.64-.22-.1-.42-.2-.58-.3-.83-.49-9.35-6.28-14.63-9.88-2.43-1.65-4.17-2.84-4.17-2.84,0,0-.08.49-.21,1.29v-3.87l.52-.66s9.72-4.74,10.59-5.29c.87-.55,1.82-1.34,2.68-2.21.7-.7,3.22-2.86,4.15-3.65.3,1.03.71,2.03,1.38,2.78,1.44,1.62,3.32.76,5.95-.66.66.38,1.11.76,1.16,1.14l.21,1.63s6.85-3.12,8.87-7.32c0,0,7.98.71,9.8,4.27,1.82,3.56,5.29,12.01,6.08,15.64.79,3.63.79,5.21,1.11,6,.32.79,4.11,7.66,5.37,16.27,1.26,8.61-.4,14.61-.4,14.61Z"/>
  <path class="cls-4" d="m170.74,44.23s-2.29,13.43-20.3,20.93"/>
  <path class="cls-4" d="m157.94,42.57s-5.61,4.42-9.16,7.58-5.37,3.55-5.37,3.55c0,0-2.53,0-3.63,2.05l-9.26.87"/>
  <path class="cls-4" d="m150.2,47s-2.11,3.83-3.93,5.25"/>
  <path class="cls-3" d="m152.52,40.92c-.38.21-.75.41-1.11.6-2.62,1.42-4.51,2.28-5.95.66-.67-.75-1.08-1.75-1.38-2.78-.43-1.5-.62-3.07-.99-4.06-.63-1.69.05-1.79.42-2.53.37-.74.89-1.58.89-1.58,0,0,2.58,2,5.16,2.63,1.75.43,3.25.3,4.4.7.55.19,1.02.5,1.39,1.04,1.16,1.69.37,3.58-2.84,5.32Z"/>
  <path class="cls-3" d="m144.83,24.33s-1.32,2.37-.16,7.03"/>
  <path class="cls-3" d="m156.27,29.81c-.78.3-2.04.73-2.7.63-1-.16-1.95-1.32-1.95-1.32,0,0-2.42.58-4.05-.48-1.64-1.05-1.59-4-2.01-4.73,0,0-.37.13-.74.76-.17.28-.33.65-.46,1.16l-.02.11c-.12.48-.21,1.08-.25,1.81,0,0-1.48-.05-2.48-3.53-.76-2.66,1.41-3.66,2.46-3.98.6,1.01,2.51,3.95,5.23,5.51,1.94,1.1,4.58,2.58,6.97,4.06Z"/>
  <path class="cls-3" d="m163.04,33.64c-.23-.16-.48-.36-.72-.62.28.18.51.34.68.47.01,0,.02.02.04.03v.13Z"/>
  <path class="cls-3" d="m157.6,30.04s-.05.03-.07.04c-.09-.09-.17-.16-.24-.23.1.06.21.13.31.19Z"/>
  <path class="cls-3" d="m162.31,33.02c-.44-.29-.99-.64-1.61-1.04.01-.08.01-.15.02-.23.65.43,1.19.83,1.48,1.16l.11.11Z"/>
  <path class="cls-3" d="m160.5,32.75s.08.07.13.11c1.13.97,1.89,1.5,2.42,1.73h0s-1.4,2.37-1.4,2.37c0,0-1.09-1.43-1.86-3.15"/>
  <path class="cls-3" d="m143.72,22.38s1.26-.63,1.84,1.53"/>
  <path class="cls-3" d="m150.04,26.38s.11.9,1.58,2.74"/>
  <line class="cls-4" x1="157.31" y1="29.8" x2="157.28" y2="29.84"/>
  <polyline class="cls-4" points="156.98 30.26 153.97 34.55 153.94 34.6"/>
  <line class="cls-4" x1="155.78" y1="37.81" x2="159.73" y2="34.12"/>
  <path class="cls-3" d="m160.5,32.75c-.15.38-.39.75-.71,1.06-.42.41-1,.74-1.74.89"/>
  <path class="cls-4" d="m157.53,30.08c-.07.06-.12.09-.12.09"/>
  <path class="cls-3" d="m157.75,29.95c-.06.03-.11.06-.15.09-.1-.06-.21-.13-.31-.19h-.01c-.21-.2-.34-.31-.34-.31,0,0-.03.01-.09.04-.11.05-.32.13-.58.23-2.39-1.48-5.03-2.96-6.97-4.06-2.72-1.56-4.63-4.5-5.23-5.51-.12-.21-.19-.34-.19-.34.89-2.1,1.84-1.52,1.84-1.52,0,0,1.01,3.09,1.06,3.16.73,1.15,6.47,5.47,8.63,6.95.68.46,1.5.96,2.34,1.46Z"/>
  <path class="cls-3" d="m164.26,34.23c-.24.44-.54.65-1.21.36-.53-.23-1.29-.76-2.42-1.73-.05-.04-.09-.07-.13-.11.1-.25.16-.51.2-.77.62.4,1.17.75,1.61,1.04.25.26.49.46.72.62.68.48,1.23.59,1.23.59Z"/>
  <path class="cls-3" d="m157.28,29.84l-.3.42c-.23-.15-.47-.3-.71-.45.26-.1.47-.18.58-.23.06-.03.09-.04.09-.04,0,0,.13.11.34.3Z"/>
  <path class="cls-3" d="m157.6,30.04s-.05.03-.07.04c-.09-.09-.17-.16-.24-.23.1.06.21.13.31.19Z"/>
  <path class="cls-3" d="m162.31,33.02c-.44-.29-.99-.64-1.61-1.04.01-.08.01-.15.02-.23.65.43,1.19.83,1.48,1.16l.11.11Z"/>
  <path class="cls-1" d="m169.58,29.8c-2.04,4.35-4.39,5.22-6.55,3.72l-.03-.03c-.18-.13-.41-.28-.69-.47l-.11-.11c-.29-.33-.83-.73-1.48-1.16.03-.67-.17-1.33-.57-1.79-.73-.84-1.85-.35-2.4-.01-.84-.5-1.66-1-2.34-1.46-2.16-1.48-7.9-5.8-8.63-6.95-.05-.07-1.06-3.16-1.06-3.16,0,0-.47-1.64,3.06-3.59,3.52-1.94,6.79-2.1,10.16-.52,3.37,1.58,5,4.37,6.21,5.26,1.22.9,6.48,5.9,4.43,10.27Z"/>
  <path class="cls-3" d="m157.28,29.84c-.14-.09-.29-.17-.43-.26.06-.03.09-.04.09-.04,0,0,.13.11.34.3Z"/>
  <path class="cls-3" d="m162.31,33.02c-.44-.29-.99-.64-1.61-1.04.01-.08.01-.15.02-.23.65.43,1.19.83,1.48,1.16l.11.11Z"/>
  <line class="cls-3" x1="80.21" y1="91" x2="74.05" y2="119.28"/>
  <line class="cls-3" x1="132.98" y1="90.52" x2="139.93" y2="120.38"/>
  <rect class="cls-3" x="99.7" y="6.63" width="2.21" height="85.31"/>
  <rect class="cls-3" x="123.92" y="6.63" width="2.21" height="85.31"/>
  <path class="cls-3" d="m123.92,6.63v80.06c-3.15.27-16.37.46-22.01-.62V6.63s1.71,1.9,3,1.9,1.16-1.16,2.84-1.16,2.32,1.9,4.32,1.9,2.53-1.9,4.32-1.9,1.79,1.47,3.48,1.47,2.04-2.21,4.06-2.21Z"/>
  <line class="cls-3" x1="105.33" y1="10.74" x2="105.33" y2="81.83"/>
  <line class="cls-3" x1="112.44" y1="10.74" x2="112.44" y2="81.83"/>
  <line class="cls-3" x1="119.71" y1="10.74" x2="119.71" y2="81.83"/>
  <path class="cls-3" d="m54.77,34.44c-.06.14-.13.25-.21.32-.52.5-1.35-.4-1.95-.59-.81-.25-2.12.37-2.52-.36-.06-.11-.09-.22-.1-.33-.06-.67.74-1.4,2.26-1.36,1.79.05,3,1.21,2.52,2.32Zm1.74-6.32c-.74-.63-.21-2.16.27-4.21.47-2.06.05-4.27-.27-5.22-.31-.95-1.2-1.75-2.31-.68-1.12,1.06-3.06,4.89-5.17,6.47-2.1,1.58-4.37.53-5.1.16-.74-.37-2.43-1-3.37.48-.95,1.47.84,3.31.84,3.31-.74,2.01-2.48,3.01-2.48,3.01l-.52,6.84.03.05c.36.32.96.77,1.87,1.18.92.41,2.14.78,3.73.93.79.08,1.61.16,2.44.24.26.03.53.06.79.09h.04s.19-.86.46-1.67c.25-.78.57-1.53.85-1.5.58.05,3.74.58,5.16.31.72-.13,1.31-1.29,1.74-2.58.42-1.26.69-2.64.79-3.31.21-1.37,1.42-1.95,1.53-2.48.1-.53-.58-.79-1.32-1.42Z"/>
  <path class="cls-3" d="m55.36,25.33s.11-1.11-1.11-1c-1.21.11-1.63-.16-1.9-.9"/>
  <path class="cls-3" d="m53.83,25.54s1.05.68,1.11,1.63c0,0-1.11-.95-2.48-.42"/>
  <path class="cls-3" d="m54.78,34.44c-.06.14-.13.25-.21.33-.52.49-1.35-.41-1.95-.59-.81-.25-2.12.36-2.53-.37-.06-.1-.09-.21-.1-.32-.06-.67.74-1.41,2.26-1.36,1.79.05,3,1.21,2.53,2.32Z"/>
  <line class="cls-4" x1="158.73" y1="31.48" x2="158.31" y2="32.25"/>
  <ellipse cx="146.56" cy="31.34" rx=".63" ry=".94"/>
  <line class="cls-6" x1="170.03" y1="62.09" x2="168.52" y2="62.76"/>
  <line class="cls-6" x1="170.42" y1="64.54" x2="169.08" y2="65.31"/>
  <rect class="cls-5" x="-2401.44" y="-3646.73" width="6467.34" height="6437.3"/>
</svg>