<?xml version="1.0" encoding="UTF-8"?>
<svg id="Calque_1" data-name="Calque 1" xmlns="http://www.w3.org/2000/svg" viewBox="0 0 200 128">
  <defs>
    <style>
      .cls-1 {
        fill: #bfe6fc;
      }

      .cls-1, .cls-2, .cls-3, .cls-4, .cls-5 {
        stroke-linecap: round;
        stroke-linejoin: round;
      }

      .cls-1, .cls-2, .cls-3, .cls-5 {
        stroke: #000;
      }

      .cls-2 {
        fill: #fff;
      }

      .cls-3, .cls-4 {
        fill: none;
      }

      .cls-4 {
        stroke: #fff;
        stroke-width: 8px;
      }
    </style>
  </defs>
  <path class="cls-3" d="m107.04,63.63l2.7.1c11.87-12.23,29.5-35.39,41.25-33.34,7.05,1.22,7.91,10.58,10.91,19.11,3,8.53,3.74,13.31,8.24,22.13l2.15,3.45c1.75,2.81,4.25,5.12,7.29,6.42.83.35,1.73.66,2.7.86,5.16,1.09,6.19.78,6.13,3.62-.07,2.83-19.37,1.73-21.78,1.67-.99-.02-1.13-1.72-.95-3.7.41-4.56-.78-9.12-3.49-12.81-.64-.87-1.34-1.83-2.13-2.89-4.94-6.7-8.96-9.65-11.48-19.04-.8-3.56-.06-5.43-.06-5.43-2.79,3.24-12.43,29.28-33.72,43.1l-7.75-23.25"/>
  <g>
    <path class="cls-1" d="m87.54,54.64c3.14.32,6.15,2.24,8.79,3.82,2.78,1.67,4.35,4.8,7.58,5.11,2.8.27,2.74.11,3.12.05,3.27-.47,5.1-2.43,5.45-2.81l3.51-3.84,5.4,24.73s-4.04,5.76-10.3,7.08c-3.63.77-15.38,1.43-20.29-1.49l-2.78-1.3s-.02,0-.03,0c-.31-.11-.65.11-.87.29-.74.6-1.36,1.52-2.04,2.22-.75.78-1.55,1.54-2.49,2.09-1.71,1-3.82,1.01-5.74,1.39-2.1.43-4.22.75-6.35,1.01-.39.05-.79.1-1.19.14-6.24-2.27-13.72-5.8-15.09-10.05-2.41-7.51,8.87-17.81,8.87-17.81.81.07,1.73-.16,2.69-.57,0,0,.02-.02.03-.02,3.54-1.5,6.07-4.57,9.28-6.62.17-.1.33-.2.5-.3,3.55-2.08,7.78-3.56,11.95-3.13Z"/>
    <path class="cls-2" d="m69.32,93.13s-.05.01-.07.01h0s.05,0,.07-.01Z"/>
    <path class="cls-2" d="m41,77.2c.13.38.25.76.38,1.15,3.66,1.72,7.27-1.72,7.27-1.72,0,0,10.64-11.72,14.46-11.35,0,0-11.24,10.27-8.87,17.78,1.01.13,4.2.91,8.68.29,5.27-.73,12.54.19,12.54.19,1.77.2,2.66-1.36,3.79-2.41,1.84-1.74,3.93-3.18,5.89-4.78,2.06-1.68,4.09-3.38,5.99-5.24,1.22-1.19,2.88-2.68,3.34-4.39.24-.94.51-1.85.39-2.84-.1-.86-.46-1.65-.38-2.54.09-1.02,1.06-2.15,1.65-2.94.17-.22.26-.34.26-.34,0,0,1.3-2.25,1.57-1.22s.31,1.7.73,1.18c.42-.52,1.39-.42,1.75.16.37.57,1.22.18,1.76.94.55.76,1.01,1.06,1.07,2,.05.94,1.21,1.69.75,3.03,0,.03-.02.05-.03.08-.5,1.33-2.41,3.27-2.94,4.01-.55.75-5.21,6.52-8,10.94-1.38,2.2-3.58,4.75-5.59,6.89-.63.66-1.21,1.38-1.86,2.02-.79.78-1.69,1.71-2.67,2.35-.04.04-.07.05-.11.07-.04.04-.1.07-.14.1-.17.11-.32.18-.49.26-.07.04-.13.06-.2.09,0,0-.03.02-.04.02-.28.12-.58.2-.87.28-.81.2-1.67.27-2.5.38-.63.08-1.24.18-1.84.38,0,0-.03,0-.04,0-.05,0-.1.02-.14.03-.19.04-.3.07-.3.07,0,0-3.93.69-6.96,1.01h-.07c-1.01.12-1.92.18-2.55.17-2.55-.06-5.61.07-5.61.07,0,0-8.54,1.64-12.45.72-1.26-.29-2.81-.76-4.32-1.43-.62-.26-1.23-.57-1.82-.9-1.22-.69-2.34-1.52-3.14-2.5-.19-.24-.37-.47-.52-.73-.46-.76-.74-1.61-.74-2.53,0-3.26-.45-6.85,1.27-8.88-4.46-.8-9.13-5.98-9.13-5.98,0,0-6.91-6-1.5-8.96,0,0,3.05-.39,7.36,2.34,4.31,2.73,5.09,2.3,5.89,2.3s0,1.68,0,1.68c0,0,3.62,4.22,2.15,6.89-.32.59-.89,1.09-1.8,1.48-.43.17-.87.28-1.33.32"/>
    <path class="cls-2" d="m61.09,93.37s-8.54,1.63-12.45.72c-1.78-.42-4.12-1.18-6.14-2.33h0c-.32-18.65-13.77-29.58-13.77-29.58,0,0,3.06-.39,7.36,2.33,4.31,2.73,5.09,2.3,5.88,2.3s0,1.68,0,1.68c0,0,3.63,4.22,2.16,6.89-.32.59-.9,1.1-1.8,1.48-.43.18-.87.28-1.33.33.13.38.25.76.37,1.16,3.66,1.73,7.27-1.72,7.27-1.72,0,0,0,0,0-.01-.13-.33-2.91-7.4-5.93-10.71-3.05-3.34-8.09-9.1-18.5-4.4-.16.07-.31.14-.48.22-4.89,2.32-7,8.29-6.58,13.4.71,8.76,8.04,10.44,14.76,13.35,3.33,1.45,6.61,3.03,9.73,4.89.27.16.53.31.8.45,9.21,4.88,18.65-.45,18.65-.45Z"/>
    <path class="cls-2" d="m36.03,70.03s1.67-.27,1.69-2.03"/>
  </g>
  <g>
    <polygon class="cls-5" points="150.9 83.43 157.41 77.81 150.9 72.18 150.9 83.43"/>
    <line class="cls-3" x1="150.9" y1="77.72" x2="133.03" y2="77.72"/>
  </g>
  <rect class="cls-4" x="-1874.9" y="-3646.73" width="6467.34" height="6437.3"/>
</svg>