<?xml version="1.0" encoding="UTF-8"?>
<svg id="Calque_1" data-name="Calque 1" xmlns="http://www.w3.org/2000/svg" viewBox="0 0 128 128">
  <defs>
    <style>
      .cls-1 {
        fill: #d6d6d6;
      }

      .cls-1, .cls-2, .cls-3, .cls-4, .cls-5, .cls-6, .cls-7, .cls-8, .cls-9 {
        stroke-linecap: round;
        stroke-linejoin: round;
      }

      .cls-1, .cls-2, .cls-3, .cls-4, .cls-5, .cls-6, .cls-7, .cls-9 {
        stroke: #000;
      }

      .cls-2 {
        fill: #afaff9;
      }

      .cls-3 {
        fill: #ff6d75;
      }

      .cls-4, .cls-5, .cls-6, .cls-9 {
        fill: #fff;
      }

      .cls-5, .cls-7 {
        stroke-width: .53px;
      }

      .cls-6 {
        stroke-width: 1.06px;
      }

      .cls-7, .cls-8 {
        fill: none;
      }

      .cls-8 {
        stroke: #fff;
        stroke-width: 8px;
      }

      .cls-9 {
        stroke-width: .71px;
      }
    </style>
  </defs>
  <g>
    <path class="cls-4" d="m55.99,24.74c11.9,1.59,7.62-12.41,6.47-14.26-1.15-1.86.13-1.5-2.24-5.21-2.37-3.71-6.03-2.38-6.03-2.38-1.92-.9-8.69-1.04-10.29,2.67-1.6,3.71-3.1,5.8-4.88,9.28,0,0-3.5,8.74,9.62,11.5"/>
    <path class="cls-4" d="m68.75,13.97s-1.36-.65-2.61-2.95c-.8-1.48-3.16-3.37-2.18-3.67.99-.31,2.5,2.19,2.78,1.47.28-.71-2.54-6.11-1.64-6.39.89-.28,3.23,4.97,3.48,4.34.25-.64-2.39-5.23-1.12-5.62,1.26-.39,2.63,5.65,3.3,5.44.68-.21-.31-4.82.71-5.13,1.02-.32.87,5.7,1.24,5.52.2-.09,1.1-3.01,1.65-2.79.62.25-.64,6.06-.31,7.54.6,2.73,3.44,16.46,1.4,18.51-2.23,2.23-13.13,8.58-16.1,7.7-2.97-.88-4.67-3.81-3.96-5.62.71-1.8,14.74-5.86,14.97-6.42.22-.57-1.6-11.93-1.6-11.93Z"/>
    <path class="cls-4" d="m80.83,107.73s2.74,11.19,4.79,12.95c2.05,1.76,8.72,5.12,6.97,5.48-1.75.36-14.66.66-14.31-1.49.35-2.15.73-3.53.73-3.53l-3.42-7.99,5.24-5.42Z"/>
    <path class="cls-4" d="m50.71,117.11s-.29,2.83-.29,4.08,1.16,4.77.62,5.31c-.54.54-15.92.47-15.92-.03s2.72-2.04,6.41-3.1c3.69-1.06,4.95-5.15,3.99-7.5l5.18,1.25Z"/>
    <path class="cls-4" d="m67.41,69.8l2.76,2.45s3.11,8.41,3.29,8.97c.25.77,10.31,33.2,10.31,33.2l-7.01,2.52s-6.95-13.54-8.1-18.24c-1.15-4.7-12.67-24.38-12.67-24.38l11.42-4.51Z"/>
    <path class="cls-4" d="m55.22,74.79l-3.36,42.97h-7.77s-2.78-32.16-1.82-43.45l12.96.48Z"/>
    <path class="cls-3" d="m41.59,31.51s4.94-1.3,10.56-1.61c2.91-.16,6.81.46,6.81.46,0,0,3.55,7.97,4.61,14.49,1.06,6.53,6.81,27.45,6.81,27.45,0,0-11.71,9.02-28.79,3.07V31.51Z"/>
    <path class="cls-4" d="m54.9,24.37s-.15,5.1.32,5.57c.48.48,1.15,1.27.44,2.49-.7,1.22-3.76.44-5.18-.26-1.37-.67-2.25-1.91-2.25-1.91l.71-8.07,5.95,2.18Z"/>
    <path class="cls-4" d="m58.67,21.88c-2.43,4.42-5.53,3.32-6.82,2.88-1.27-.46-3.8-1.44-5.09-5.57-.11-.36-.21-.76-.27-1.2-.09.49-.36.93-.99.99-1.52.15-2.93-4.37-1.09-4.95,1.2-.38,1.67.73,1.87,1.56,0-4.36,1.85-9.59,7.41-8.94,0,0,2.87-.06,4.34,2.17,1.47,2.25,3.07,8.64.64,13.05Z"/>
    <path class="cls-4" d="m41.59,31.51s-2.24.19-2.5,4.56c-.1,1.72-4.49,26.71,2.59,32.43l-.09-36.99Z"/>
    <line class="cls-2" x1="43.55" y1="122.33" x2="50.42" y2="121.19"/>
    <line class="cls-2" x1="79.01" y1="121.14" x2="84.58" y2="119.16"/>
    <ellipse class="cls-1" cx="44.79" cy="16.32" rx="2.6" ry="3.28"/>
    <path class="cls-1" d="m44.19,13.1s.05-4.88,4.67-6.87c2.91-1.26,7.03-1,8.76,1.99,0,0-9.7-4.2-11.22,5.35,0,0-1.05-.79-2.2-.47Z"/>
    <path class="cls-6" d="m53.72,12.57s.6,3.27,1.78,5.98c0,0-.23.55-1.98.21"/>
    <ellipse class="cls-6" cx="50.71" cy="15.16" rx=".19" ry=".54" transform="translate(-1.02 3.96) rotate(-4.42)"/>
    <ellipse class="cls-6" cx="56.93" cy="14.45" rx=".19" ry=".54" transform="translate(-.94 4.44) rotate(-4.42)"/>
    <path class="cls-6" d="m55.74,21.46s-1.51,1-3.48-.32"/>
    <polyline class="cls-9" points="42.96 80.52 42.96 78.27 47.41 78.73 47.38 81.44"/>
    <polyline class="cls-5" points="43.74 80.92 43.79 79.3 46.53 79.54 46.56 81.39"/>
    <path class="cls-9" d="m42.08,80.44s3.13,1.66,5.64.84c0,0-.38,6.69-3.18,6.55s-2.39-2.4-2.46-7.39Z"/>
    <path class="cls-7" d="m43.71,78.47s2.6-20.17,1-32.85c-1.6-12.68-1-25.96-1-25.96"/>
  </g>
  <rect class="cls-8" x="-988.58" y="-52.97" width="1656.38" height="875.1"/>
</svg>