<?xml version="1.0" encoding="UTF-8"?>
<svg id="Calque_1" data-name="Calque 1" xmlns="http://www.w3.org/2000/svg" viewBox="0 0 85.57 206.09">
  <defs>
    <style>
      .cls-1, .cls-2 {
        stroke: #000;
      }

      .cls-1, .cls-2, .cls-3 {
        stroke-linecap: round;
        stroke-linejoin: round;
      }

      .cls-1, .cls-4 {
        fill: #fff;
      }

      .cls-2, .cls-3 {
        fill: none;
      }

      .cls-5 {
        fill: #ed6c76;
      }

      .cls-3 {
        stroke: #fff;
        stroke-width: 8px;
      }
    </style>
  </defs>
  <rect class="cls-3" x="-1452.29" y="-536.94" width="1656.38" height="875.1"/>
  <g id="Pictos">
    <g>
      <path class="cls-4" d="m27.05,31.36c-.15-.05-1.11-.47-1.46-2.18-.37-1.83-1.14-1.73-.94-3.54.22-1.68,1.83-.69,2.03-.54"/>
      <path class="cls-2" d="m27.05,31.36c-.15-.05-1.11-.47-1.46-2.18-.37-1.83-1.14-1.73-.94-3.54.22-1.68,1.83-.69,2.03-.54"/>
      <path class="cls-1" d="m10.71,186.7l1.41-1.04,1.04-8.99s7.95,1.26,7.95,1.39-.79,8.42-.79,8.42l.57,2.3-5.87.47-3.34-.79-.94-1.73h0l-.02-.02Z"/>
      <path class="cls-1" d="m50.89,188.98l.35-8.72-9.11-.1,1.68,8.44,2.97,2.82,4.09-2.43.02-.02Z"/>
      <path class="cls-1" d="m40.52,194.72c.22-.74,2.67-5.08,3.27-6.17,1.19.52,2.35.79,3.66.79,1.19,0,2.53-.1,3.47-.84.62.87,1.36,2.03,1.93,3,.5.87,1.24,1.76,1.58,2.72.37.97.2,2.1-.57,2.75-2.57,2.13-9.78,2.65-12.87.3-.92-.72-.64-2.06-.47-2.53h0v-.02Z"/>
      <path class="cls-1" d="m.95,194.63c1.49.27,3.07.15,4.56.15,4.28,0,8.54-.2,12.83-.42.67-.02,1.39-.07,2.01-.35.5-.22.92-.59,1.19-1.04.17-.27.3-.59.35-.92v-.35c-.02-.45-.2-.89-.37-1.31-.3-.79-.45-1.36-.74-2.13-3.39,0-6.76-.64-10.03-1.51-.32.17-.67.35-.99.5l-5.67,2.87c-.77.4-1.54.77-2.3,1.16-.17.1-.37.17-.54.27-.54.27-1.31.45-1.71.94-.1.1-.17.25-.2.4-.32,1.14.74,1.61,1.66,1.76h0l-.02-.02Z"/>
      <path class="cls-1" d="m11.52,181.43s2.9,1.16,6.34,1.68c3.42.47,3.69.07,3.69.07l6.26-41.35s1.76-4.53,4.11-10.7c.17-.47.37-.97.54-1.49.82-2.08,1.68-4.33,2.53-6.59-.1,6.68-.17,13.35-.25,19.76l7.03,42.34c2.75.99,2.95.94,5.89.94,2.72,0,2.7-.07,5.17-1.04-1.11-14.73-3.09-41.87-3.09-41.87,0,0,6.19-28.65,4.68-43.48-.72-7.16-3.91-13.02-6.09-16.94-1.39,1.16-3.69,2.1-5.4,2.53-2.85.72-3.99.82-6.86.72-.45-.05-.92-.07-1.31-.12-4.13-.47-6.78-.94-6.78-.94,0,0-5.74,12.75-8.05,20.4-2.3,7.6-5.99,37.19-5.99,37.19l-2.4,38.92h-.02v-.05Z"/>
      <path class="cls-1" d="m30.22,46.1c.4.17.84.32,1.24.42,3.54.84,7.55-.67,8.91-1.24l-.42-5.99-.05-.67-9.28-1.78-.25,1.93-.79,6.54s.07.27.12.35c.02.07.05.15.07.22,0,.02,0,.07.02.1h0l.35.17h0l.07-.05Z"/>
      <path class="cls-1" d="m13.83,95.51c-.1-.45-1.46-.79-2.08-1.68-1.93,1.11-5.17,7.28-5.97,8.91-.54,1.11-1.11,2.25-1.34,3.44-.25,1.29-.3,2.57-.35,3.89,0,.2,0,.42.05.59.12.35.57.57.89.35.69-.52.74-1.61.79-2.38.05-.74.07-1.49.27-2.2.17-.72.54-1.29,1.02-1.83.35-.4,2.06-2.65,2.2-2.48.17.17.74,1.16.72,1.36-.07.27-.17.52-.27.74-.2.42-.45.82-.52,1.26,0,.07,0,.15-.02.22-.02.84.79,1.86,1.51.94.15-.2.27-.42.37-.64.52-1.06,1.24-2.06,1.54-3.19.2-.74.3-1.49.42-2.23.42-2.82,1.06-3.79.79-5.1l-.02.02Z"/>
      <path class="cls-1" d="m8.55,103.02c.1-.15.22-.3.32-.42.2-.25.45-.47.74-.57.3-.1.67-.05.87.17.17.2.2.5.17.74-.1.64-.52,1.19-.92,1.71-.2.27-.4.54-.5.87.07-.45.32-.87.52-1.29.12-.25.22-.47.27-.74.05-.22.15-.52-.05-.69-.17-.17-.52-.2-.74-.17-.25.05-.5.17-.72.35h0l.02.05Z"/>
      <path class="cls-2" d="m35.84,14.85s0,1.58.57,2.65"/>
      <path class="cls-2" d="m38.88,18.17c1.24-.72,2.08-2.55,2.08-2.55"/>
      <path class="cls-4" d="m42.84,32.65c.15-.02,1.16-.3,1.76-1.93.64-1.73,1.41-1.54,1.46-3.34.05-1.71-1.73-.97-1.91-.87"/>
      <path class="cls-2" d="m42.84,32.65c.15-.02,1.16-.3,1.76-1.93.64-1.73,1.41-1.54,1.46-3.34.05-1.71-1.73-.97-1.91-.87"/>
      <path class="cls-2" d="m28.41,17.1s1.21.72,2.57.97"/>
      <path class="cls-1" d="m41.48,18.93c-.79.05-1.68-.15-2.57-.77-.37.22-.77.35-1.19.3-.59-.05-.99-.47-1.26-.94,0,0-.02.02-.05.02-.17.15-1.24,1.11-2.57-.17-.69.84-1.81.92-2.82.72-.62.47-1.44.42-1.44.42-.05.07-.1.15-.15.22-2.5,3.52-2.75,5.92-2.77,6.19-.15-.62-.27-1.24-.35-1.81.15,1.06.35,1.81.4,1.98v.05c-.02.99-.05,3.59.37,6.26.35,2.23,1.02,4.53,2.23,5.99,2.82,3.44,4.65,3.52,4.93,3.47.27.05,2.2.35,5.55-2.62,1.44-1.26,2.45-3.42,3.14-5.57.82-2.57,1.19-5.15,1.31-6.14,0-.1.02-.22.02-.35-.02.1-.07.15-.07.15.02-.42.02-.84.02-1.24-.27-2.08-2.18-5.5-2.38-6.12l-.27-.05h-.07Z"/>
      <path class="cls-2" d="m44.16,25.1c.07.4.07.74.05,1.06"/>
      <path class="cls-2" d="m44.16,26.54h0c.1-.25.54-1.24.84-2.62v-.05c.62-2.77.64-6.93-3.96-8.81,0,0-.3-1.54-2.23-1.29,0,0-2.25-2.45-4.98-.45-1.88-.54-2.4.92-2.4.92-5.2,1.21-5.52,5.92-5.22,8.72v.15"/>
      <path class="cls-2" d="m29.35,18.98s-2.67,3.89-2.67,6.12"/>
      <path class="cls-2" d="m44.23,26.12s0,.17-.05.4v.05"/>
      <path class="cls-2" d="m26.65,25.1h0"/>
      <path class="cls-2" d="m26.68,24.68v.4"/>
      <path class="cls-2" d="m32.69,15.82c.35.64.67,1.11.99,1.44.05.05.07.1.1.1"/>
      <path class="cls-2" d="m36.38,17.52h.02"/>
      <path class="cls-2" d="m34.99,123.02l.42-18.12"/>
      <path class="cls-5" d="m54.18,71.52c-1.36-1.44-2.6-2.95-3.76-4.51-.05.67-.02,2.13.07,3.99.15,3.71.5,8.99.72,12.35-.79,1.16-1.54,2.38-2.23,3.57-.42.74-.5,1.68-.15,2.45.05.1.1.22.15.35-.07.02-.1.05-.17.05-6.46,2.06-13.49,2.3-20.08.79-1.34-.3-2.72-.74-3.57-1.88-.15-.2-.27-.4-.37-.62-1.71,2.15-3.54,4.23-5.47,6.21-1.66,1.68-4.23,2.06-6.31.94-1.56-.84-2.43-2.4-2.43-4.04,0-.77.2-1.56.62-2.28,1.16-1.98,2.38-3.84,3.71-5.77.74-1.04,2.1-2.82,2.85-3.79.32-.42.5-.97.47-1.51-.22-3.71-2.15-20.01,2.4-26.22.15-.22.27-.47.45-.67,1.93-1.98,5.82-4.33,8.27-5.3.17.1.32.2.5.3h0l.35.17c.4.17.84.32,1.24.42,3.54.84,7.55-.67,8.91-1.24.32-.15.47-.22.47-.22,2.2.3,4.41.77,6.51,1.49,2.33.79,4.36,1.71,6.26,3.22,1.93,1.58,3.66,3.42,5.3,5.3.79.92,1.56,1.86,2.33,2.8.37.45.74.92,1.11,1.36"/>
      <path class="cls-2" d="m54.18,71.52c-1.36-1.44-2.6-2.95-3.76-4.51-.05.67-.02,2.13.07,3.99.15,3.71.5,8.99.72,12.35-.79,1.16-1.54,2.38-2.23,3.57-.42.74-.5,1.68-.15,2.45.05.1.1.22.15.35-.07.02-.1.05-.17.05-6.46,2.06-13.49,2.3-20.08.79-1.34-.3-2.72-.74-3.57-1.88-.15-.2-.27-.4-.37-.62-1.71,2.15-3.54,4.23-5.47,6.21-1.66,1.68-4.23,2.06-6.31.94-1.56-.84-2.43-2.4-2.43-4.04,0-.77.2-1.56.62-2.28,1.16-1.98,2.38-3.84,3.71-5.77.74-1.04,2.1-2.82,2.85-3.79.32-.42.5-.97.47-1.51-.22-3.71-2.15-20.01,2.4-26.22.15-.22.27-.47.45-.67,1.93-1.98,5.82-4.33,8.27-5.3.17.1.32.2.5.3h0l.35.17c.4.17.84.32,1.24.42,3.54.84,7.55-.67,8.91-1.24.32-.15.47-.22.47-.22,2.2.3,4.41.77,6.51,1.49,2.33.79,4.36,1.71,6.26,3.22,1.93,1.58,3.66,3.42,5.3,5.3.79.92,1.56,1.86,2.33,2.8.37.45.74.92,1.11,1.36"/>
      <path class="cls-1" d="m29.35,45.65c.17.1.32.2.5.3h0s.25.12.35.17c.4.17.84.32,1.24.42l-1.31-.54-.35-.15-.47-.2h.05Z"/>
      <path class="cls-2" d="m22.27,67.12c.07,2.15,1.39,15.77,1.76,17.93.22,1.24.4,2.6,1.16,3.66.82,1.16,2.23,1.61,3.57,1.88"/>
      <path class="cls-1" d="m35.71,97.27l4.38-2.08c.64-.3,1.31-.57,1.96-.89.32-.17.62-.35.92-.57.27-.2.62-.47.12-.54-.32-.05-.67,0-.99.05-.5.02-1.06.07-1.56-.05-.27-.07-.54-.22-.67-.5-.15-.35.05-.74.32-.99l.02-.02c.3-.22.72-.3,1.09-.4,1.21-.22,2.5-.3,3.69-.59.69-.17,1.31-.47,2.03-.59.59-.1,1.16-.1,1.76-.1l.79-.87-.05-.07c.25-.27.5-.54.72-.84.99,1.56,1.98,3.12,2.97,4.68-.64.5-1.02.79-1.04.77h0c-.42,2.15-1.96,4.41-3.74,5.52-.17.1-.37.22-.52.37-.12.12-.2.27-.3.4-.5.84-.94,1.68-1.36,2.55-.27.54-.59,1.86-1.36,1.86-.52,0-.89-.57-.67-1.04.42-.84.87-1.68,1.31-2.5.17-.3.37-.59.5-.94.05-.1.17-.35.1-.47-.32-.59-1.14.5-1.34.74-.4.45-.77.87-1.16,1.31-.54.62-1.11,1.24-1.68,1.83-.35.4-.79,1.11-1.44.84-.42-.17-.57-.77-.25-1.11.17-.17.35-.4.54-.57.02-.07.07-.15.12-.2.59-.69,1.19-1.41,1.76-2.13.27-.37.57-.72.84-1.09.12-.15.82-.72.57-.94-.27-.27-1.04.54-1.24.67-.54.37-1.11.74-1.68,1.11-.74.52-1.49,1.04-2.2,1.54-.47.3-1.26,1.06-1.81.54-.3-.27-.27-.79.02-1.06.02-.05.07-.07.1-.12.94-.92,2.01-1.68,3.02-2.48.5-.4,1.02-.79,1.51-1.19.27-.22.5-.42.74-.67.1-.1.4-.27.27-.45-.12-.15-.47,0-.59.05-.35.12-.64.4-.99.5-.59.2-1.16.42-1.73.64-.79.3-1.61.59-2.4.89-.47.17-1.19.72-1.68.27-.35-.3-.27-.99.15-1.19h.05l.07.12Z"/>
      <path class="cls-5" d="m54.18,71.52c1.19,1.26,2.43,2.45,3.66,3.66-2.53,2.65-4.75,5.37-6.66,8.17-.79,1.16-1.54,2.38-2.23,3.57-.42.74-.5,1.68-.15,2.45.05.1.1.22.15.35.5,1.19,1.06,2.38,1.76,3.52.54.92,1.73,1.26,2.7.82,3.47-1.61,6.71-3.79,9.66-6.19,2.48-2.03,5-4.23,6.56-7.11,2.57-4.78.64-10.25-2.01-14.53-1.51-2.45-3.37-4.73-5.22-6.98"/>
      <path class="cls-2" d="m54.18,71.52c1.19,1.26,2.43,2.45,3.66,3.66-2.53,2.65-4.75,5.37-6.66,8.17-.79,1.16-1.54,2.38-2.23,3.57-.42.74-.5,1.68-.15,2.45.05.1.1.22.15.35.5,1.19,1.06,2.38,1.76,3.52.54.92,1.73,1.26,2.7.82,3.47-1.61,6.71-3.79,9.66-6.19,2.48-2.03,5-4.23,6.56-7.11,2.57-4.78.64-10.25-2.01-14.53-1.51-2.45-3.37-4.73-5.22-6.98"/>
      <path class="cls-2" d="m57.87,75.19l4.56-4.04"/>
      <path class="cls-2" d="m33.73,46.52l1.26,44.67"/>
      <path class="cls-2" d="m35.94,51.54h-4.9"/>
    </g>
  </g>
</svg>