<?xml version="1.0" encoding="UTF-8"?><svg id="Calque_1" xmlns="http://www.w3.org/2000/svg" viewBox="0 0 239.01 304.08"><defs><style>.cls-1{fill:#ead6ae;}.cls-1,.cls-2,.cls-3,.cls-4,.cls-5,.cls-6,.cls-7,.cls-8,.cls-9{stroke:#fff;}.cls-1,.cls-2,.cls-3,.cls-4,.cls-6,.cls-7,.cls-8,.cls-9{stroke-miterlimit:10;stroke-width:.5px;}.cls-2{fill:#f3dfa9;}.cls-3{fill:#f3d587;}.cls-4{fill:#fab0b4;}.cls-5{stroke-linecap:round;stroke-linejoin:round;stroke-width:8px;}.cls-5,.cls-6{fill:none;}.cls-7{fill:#bbfedb;}.cls-8{fill:#87ccf3;}.cls-9{fill:#ff6d75;}</style></defs><path class="cls-1" d="m104.61,28.48l-.25-.03-.23.1-.15.04.09.27s.22.01.24.02l.38-.24-.09-.16Z"/><polygon class="cls-1" points="106.01 29.34 105.81 29.34 105.74 29.48 105.92 29.63 106.01 29.57 106.12 29.57 106.2 29.55 106.18 29.44 106.01 29.34"/><polygon class="cls-1" points="108.34 29.26 108.34 28.95 108.17 29.13 108.24 29.41 108.34 29.26"/><polygon class="cls-1" points="108.19 30.13 107.96 30.36 108.13 30.62 108.32 30.62 108.47 30.5 108.41 30.21 108.19 30.13"/><path class="cls-1" d="m104.69,28.96l.11.22s.16-.12.16-.12l.03-.2-.17-.05-.14.15Z"/><polygon class="cls-1" points="107.63 32.04 107.71 32.21 107.91 32.14 107.75 31.94 107.63 32.04"/><polygon class="cls-1" points="106.67 31.92 106.82 32.18 106.83 32.58 107.23 32.66 107.31 32.39 106.96 32 106.67 31.92"/><polygon class="cls-1" points="106.5 29.35 106.38 29.49 106.49 29.65 106.75 29.55 106.5 29.35"/><rect class="cls-5" x="-754.76" y="-590.67" width="6562.35" height="1176.7"/><polygon class="cls-6" points="107.1 128.13 106.82 127.38 106.82 127.38 107.1 128.13"/><polygon class="cls-6" points="67.91 133.88 68.2 133.21 68.08 133.49 67.91 133.88"/><polygon class="cls-6" points="28.73 121.66 29.14 122.01 28.74 121.67 28.73 121.66"/><polygon class="cls-6" points="113.51 159.99 114.94 157.61 113.59 159.87 113.51 159.99"/><polygon class="cls-6" points="157.57 170.48 161.25 170.46 160.1 170.46 157.57 170.48"/><polygon class="cls-6" points="103.18 182.46 103.86 181.84 103.77 181.92 103.18 182.46"/><polygon class="cls-6" points="120.85 156.26 120.89 155.61 120.86 156.1 120.85 156.26"/><polygon class="cls-6" points="104.15 160.95 108.01 161.02 104.17 160.95 104.15 160.95"/><polygon class="cls-6" points="101.92 127.4 102.21 126.82 102.14 126.96 101.92 127.4"/><polygon class="cls-6" points="39.39 81.45 39.37 82.31 39.39 81.46 39.39 81.45"/><polygon class="cls-6" points="106.79 127.35 106.82 127.38 106.82 127.38 106.79 127.35"/><polygon class="cls-6" points="66.37 121.31 66.58 120.9 66.49 121.08 66.37 121.31"/><polygon class="cls-6" points="100.86 127.05 101.47 127.5 101.21 127.3 100.86 127.05"/><polygon class="cls-6" points="49.25 134.66 49.72 134.34 49.63 134.4 49.25 134.66"/><polygon class="cls-6" points="42.14 135.48 43.27 134.84 42.39 135.33 42.14 135.48"/><polygon class="cls-6" points="138.9 99.49 137.86 75.54 139.16 105.42 138.9 99.49"/><polygon class="cls-6" points="193.41 129.48 192.74 129.67 192.16 129.85 193.41 129.48"/><polygon class="cls-6" points="157.67 236.8 157.58 236.72 157.1 236.32 157.67 236.8"/><polygon class="cls-6" points="139.13 221.32 139.56 221.85 139.56 221.84 139.13 221.32"/><polygon class="cls-6" points="158.44 247.77 158.46 246.75 158.44 247.77 158.44 247.77"/><polygon class="cls-6" points="194.56 133.56 194.48 133.68 194.3 134.01 194.56 133.56"/><polygon class="cls-6" points="168.61 202.58 168.02 204.72 167.87 205.28 168.61 202.58"/><polygon class="cls-6" points="154.02 171.39 153.22 172.13 153.87 171.53 154.02 171.39"/><polygon class="cls-6" points="175.02 123.35 175.17 123.41 175.57 123.58 175.02 123.35"/><polygon class="cls-8" points="200.48 207.52 201.05 206.61 200.68 206.13 200.33 206.22 200.4 206.71 200.28 207.26 200.48 207.52"/><polygon class="cls-3" points="198.72 205.34 198.97 205.05 198.68 204.43 198.42 204.68 197.95 204.8 198.34 204.99 198.72 205.34"/><polygon class="cls-3" points="195.25 201.94 194.92 201.9 194.46 202.64 194.61 203.03 194.69 203.72 194.97 203.84 195.26 203.76 195.49 203.42 195.29 202.84 195.52 202.53 195.25 201.94"/><polygon class="cls-3" points="195.63 205.33 196.16 205.38 195.89 205.01 195.54 204.98 195.42 205.11 195.63 205.33"/><polygon class="cls-3" points="205.13 197.24 205.25 196.97 205.05 196.99 205.13 197.24"/><polygon class="cls-3" points="205.06 195.88 204.61 195.69 204.28 196.1 204.59 196.25 205.18 196.13 205.32 195.94 205.06 195.88"/><path class="cls-2" d="m16.1,64.44l-.32-.49-.81.11.17.33.56.23s.39-.17.39-.17Z"/><polygon class="cls-4" points="23.19 79.11 22.54 79.92 22.93 80.03 23.56 79.85 24.21 78.94 24.17 78.22 23.23 78.7 23.19 79.11"/><polygon class="cls-4" points="19.25 79.7 18.68 79.7 18.42 80.57 18.99 81.03 19.51 80.68 19.86 80.55 19.75 79.85 19.25 79.7"/><polygon class="cls-4" points="24.36 77.43 25.02 77.06 25.62 76.98 25.12 76.63 24.65 76.65 24.36 77.43"/><polygon class="cls-4" points="15.87 80.26 16.83 79.57 17.46 79.59 17.62 78.78 17.01 78.65 16.77 78.87 16.09 79.13 15.55 79.09 15.07 79.46 15.4 79.96 15.87 80.26"/><polygon class="cls-4" points="228.91 128.65 228.51 128.44 227.91 128.57 227.49 128.69 227.1 128.61 226.94 128.3 226.56 128.24 226.21 128.54 226.15 129.01 225.78 129.2 226.17 129.43 226.55 129.72 227.19 129.85 228.09 129.71 228.75 129.28 229.21 129.25 229.43 128.98 229.39 128.75 228.91 128.65"/><polygon class="cls-4" points="222.04 130.15 222.82 130.28 223.48 130.19 222.67 129.95 222.04 130.15"/><polygon class="cls-9" points="167.26 73.47 166.6 71.9 165.74 70.61 165.43 69.49 164.83 68.62 164.5 68.47 164.11 68.99 163.29 69.31 161.36 68.99 159.85 69.4 158.75 68.62 158.62 69.14 159.03 69.76 159.01 70.15 158.6 69.53 157.98 69.19 157.84 68.66 158.14 68.53 157.89 68.27 157.39 68.34 156.77 68.14 155.74 67.86 155.58 68.05 156.01 68.14 156.1 68.34 155.53 68.41 154.96 68.34 154.3 68.62 154.09 68.41 154.11 68.27 154.69 68.2 155.17 68 154.56 68.08 153.71 68.1 153.35 68.36 152.54 68.8 152.15 69 151.38 69.26 150.74 69.87 150.62 70.15 149.62 70.15 148.52 69.46 147.81 69.39 146.78 69.46 145.92 68.91 145.57 68.91 145.21 69.14 144.36 68.55 143.38 68.34 141.03 68.16 139.86 67.77 138.35 67.84 138.06 67.93 138.05 67.93 137.86 68.43 137.6 69.71 137.94 70.52 137.94 71.19 137.51 72.23 137.16 73.19 137.54 74 137.86 75.54 138.9 99.49 175.01 99.22 175.02 99.16 174.49 98.95 173.79 98.23 173.6 97.86 172.98 97.68 172.59 96.88 172.23 97.05 171.66 97.03 170.72 96.42 170.25 94.85 170.36 94.43 170.32 93.68 170.13 93.28 170.19 93.01 170.42 93.2 171.31 93.26 170.96 92.89 170.67 92.84 170.18 92.07 169.98 91.92 169.95 92.13 169.61 91.72 169.34 90.91 168.14 89.15 167.64 88.83 167.5 87.98 165.61 85.2 165.63 84.56 165.31 84.05 165.2 82.89 164.88 82.5 164.88 82.16 163.85 81.04 163.8 80.6 163.91 80.12 163.66 79.64 161.9 78.16 161.77 77.68 160.65 76.35 160.65 75.67 160.01 74.85 160.08 74.43 160.03 74.02 160.17 73.82 160.28 74 160.58 74 160.79 74.78 161.06 75.1 161.13 75.49 162.29 76.47 162.29 77.06 162.59 77.66 163.39 78.02 163.57 78.59 165.01 80.12 165.81 80.56 165.9 80.74 166.02 80.38 166.43 79.99 166.66 78.91 166.38 78.64 166.75 77.73 166.82 77.09 167.27 75.42 167.39 75.23 167 74.21 167.26 73.47"/><polygon class="cls-7" points="139.16 105.42 136.27 105.7 136.27 106.8 136.25 106.81 136.47 118.76 136 118.93 135.45 119.28 134.93 118.96 134.17 118.96 133.62 119.4 133.62 120.15 133.94 120.55 133.59 121.25 132.61 122.56 132.29 122.53 131.76 123.05 131.79 123.49 132.14 123.83 131.82 124.47 131.21 124.85 131.1 125.26 131.65 125.58 131.7 126.19 131.38 126.68 130.43 127.69 130.43 128.36 130.84 128.77 131.56 128.25 131.91 128.33 131.91 128.77 131.56 129 131.97 129.29 131.74 129.67 132.03 130.19 132.05 130.97 132.17 131.56 133.3 131.84 133.59 132.31 133.33 132.75 133.33 133.15 133.27 133.29 133.59 133.66 133.59 134.07 133.43 134.28 134.07 134.82 134.19 135.13 134.99 136.21 135.51 137.39 135.73 137.84 135.58 138.48 135.38 138.76 135.17 139.34 135.21 140.26 135.63 140.62 136.4 140.64 136.62 140.34 137.53 140.37 137.82 140.61 137.6 141.02 137.69 141.57 138.21 141.98 138.9 142.27 139.41 142.29 139.87 142.57 140.03 142.98 140.63 143.27 141.14 143.32 141.39 143.63 141.25 144.07 140.86 144.39 140.79 144.64 140.56 144.9 141.15 145.43 141.68 145.57 141.91 145.46 142.4 145.7 142.62 145.67 143.61 146.24 143.84 146.62 143.89 147.5 144.18 147.82 144.81 148.01 144.97 148.24 144.94 148.82 145.21 149.11 146.22 149.37 146.68 149.73 146.6 150.02 146.7 150.95 147.04 151.2 147.6 151.54 147.83 151.9 147.83 152.02 147.93 152.05 148.02 152.53 148.35 152.91 148.69 153.01 149.04 153.39 149.65 153.9 150.25 154.13 150.59 154.03 150.82 153.65 151.19 153.45 151.91 153.45 152.3 153.47 152.38 153.64 152.64 153.65 153.27 153.47 153.53 153.15 153.86 152.75 154.53 152.79 154.77 152.94 155.15 153.7 155.48 154.1 155.65 154.36 156.44 154.62 156.76 154.91 156.99 155.42 157.17 155.66 157.34 156.1 157.4 156.43 157.52 156.44 158.27 156.43 158.49 156.57 158.55 156.45 158.41 156.2 158.44 155.76 158.81 155.41 159.39 155.65 160.18 155.93 160.64 155.79 161.19 155.93 161.25 156.4 161.95 156.63 162.3 156.63 162.3 156.14 162.67 155.79 163.05 155.88 163.28 155.76 163.78 155.76 164.44 155.47 165.52 155.41 166.21 155.61 166.88 155.3 167.23 154.8 167.95 154.33 167.95 154.33 168.31 153.86 168.54 153.77 168.83 153.37 169.39 152.83 169.69 152.94 170.44 151.8 171.45 150.67 171.25 149.62 170.96 149.27 170.82 148.15 170.31 147.6 170.07 147.13 169.7 146.66 169.12 146.66 168.9 146.43 168.91 146.19 168.38 145.94 167.78 144.9 167.57 144.76 167.47 144.34 166.93 143.79 166.63 143.43 165.37 143.45 164.83 143.25 164.63 142.85 165.1 142.19 165.39 142.01 165.43 141.35 166.09 141.49 166.67 141.35 166.98 141.58 167.35 141.65 167.54 141.31 167.94 141 168.04 139.58 167.97 138.4 168.2 137.56 168.69 136.79 168.67 136.14 168.46 135.79 168.69 135.16 169.34 134.37 169.44 133.98 169.7 133.94 170.03 134.04 170.63 131.79 170.99 130.85 171.85 130.23 171.86 129.76 172.6 128.56 172.68 128.03 173.26 127.91 173.52 127.95 173.85 126.99 174.67 125.59 174.67 124.55 175.01 123.63 175.17 123.41 175.02 123.35 174.88 122.74 174.52 121.47 174.56 120.74 174.88 120.39 174.93 119.9 175.41 119.16 175.66 117.64 176 116.71 176.22 116.4 176.06 116.14 175.79 115.95 176.08 115.25 176.08 114.64 176.43 114.42 177.23 114.42 177.3 114.09 177.17 113.8 177.21 113.49 177.81 113.36 178.17 113.05 178.85 113.12 179.07 112.7 179.58 112.6 180.08 112.33 180.47 111.72 180.27 111.72 180.27 111.31 179.61 110.97 178.99 110.95 178.99 110.38 177.67 109.49 177.17 109.37 176.62 108.34 176.21 107.04 176.39 105.92 176.23 104.73 175.5 102.56 175.42 102.01 175.52 101.91 175.76 102.2 175.84 102.4 175.99 102.39 175.99 102.1 175.41 101.41 175.21 100.57 175.09 100.4 175.1 100.27 174.98 100.14 175.06 99.98 174.9 99.75 174.97 99.48 175.01 99.22 138.9 99.49 139.16 105.42"/><polygon class="cls-9" points="171.99 150.98 172.59 150.86 173.05 150.93 173.05 152.75 173.58 153.33 174.16 153.45 174.84 153.22 175.6 153.41 177.07 153.32 177.63 153.67 178.9 154.88 179.64 155.39 180.14 155.96 180.61 156.12 181.69 156.12 182.35 156.41 183.16 156.29 183.7 156.48 184.13 156.48 184.73 156.44 185.53 155.2 185.82 154.8 186.46 154.56 186.92 154.59 187.24 154.38 188.66 154.19 189.09 154.41 189.45 155.07 189.96 155.36 191.1 155.17 191.86 155.18 191.97 155.15 192.23 154.72 193.2 154.24 194.09 154.12 194.88 153.68 195.47 153.33 195.72 152.72 196.48 152.33 197 152.29 197.58 151.92 199.46 151.85 201.3 151.9 210.75 142.54 206.86 142.59 197.97 139.86 197.21 139.22 196.11 138.99 195.7 138.06 195.82 137.19 195 136.78 194.48 135.15 194.3 134.01 194.48 133.68 193.95 133.37 193.13 133.51 192.42 133.98 191.29 134.02 190.99 133.67 191.48 132.99 191.53 132.44 191.83 131.9 191.71 131.11 191.97 130.57 192.16 129.85 192.74 129.67 191.91 128.59 191.48 128.58 191.29 128.21 191.22 127.63 190.63 126.8 190.08 126.68 189.22 125.84 188.51 125.37 188.31 125.09 187.72 125.04 187.64 124.83 186.76 124.7 186.53 124.24 185.47 123.29 184.97 123.19 184.44 122.69 183.83 122.56 183.33 122.66 183.25 122.84 182.29 122.07 181.76 122.05 181.54 122.29 181.12 121.91 180.54 121.98 179.99 122.46 179.42 122.46 178.23 122.03 178.05 121.72 177.72 121.5 176.91 123.22 176.43 123.25 176.21 123.61 175.57 123.58 175.17 123.41 175.01 123.63 174.67 124.55 174.67 125.59 173.85 126.99 173.52 127.95 173.26 127.91 172.68 128.03 172.6 128.56 171.86 129.76 171.85 130.23 170.99 130.85 170.63 131.79 170.03 134.04 169.7 133.94 169.44 133.98 169.34 134.37 168.69 135.16 168.46 135.79 168.67 136.14 168.69 136.79 168.2 137.56 167.97 138.4 168.04 139.58 167.94 141 167.54 141.31 167.35 141.65 166.98 141.58 166.67 141.35 166.09 141.49 165.43 141.35 165.39 142.01 165.1 142.19 164.63 142.85 164.83 143.25 165.37 143.45 166.63 143.43 166.93 143.79 167.47 144.34 167.57 144.76 167.78 144.9 168.38 145.94 168.91 146.19 168.9 146.43 169.12 146.66 169.7 146.66 170.07 147.13 170.31 147.6 170.82 148.15 170.96 149.27 171.25 149.62 171.45 150.67 171.67 150.42 171.99 150.98"/><polygon class="cls-8" points="179.58 112.6 179.07 112.7 178.85 113.12 178.17 113.05 177.81 113.36 177.21 113.49 177.17 113.8 177.3 114.09 177.23 114.42 176.43 114.42 176.08 114.64 176.08 115.25 175.79 115.95 176.06 116.14 176.22 116.4 176 116.71 175.66 117.64 175.41 119.16 174.93 119.9 174.88 120.39 174.56 120.74 174.52 121.47 174.88 122.74 175.02 123.35 175.57 123.58 176.21 123.61 176.43 123.25 176.91 123.22 177.72 121.5 178.05 121.72 178.23 122.03 179.42 122.46 179.99 122.46 180.54 121.98 181.12 121.91 181.54 122.29 181.76 122.05 182.29 122.07 183.25 122.84 183.33 122.66 183.83 122.56 184.44 122.69 184.97 123.19 185.47 123.29 186.53 124.24 186.76 124.7 187.64 124.83 187.72 125.04 188.31 125.09 188.51 125.37 189.22 125.84 190.08 126.68 190.63 126.8 191.22 127.63 191.29 128.21 191.48 128.58 191.91 128.59 192.74 129.67 193.41 129.48 193.66 129.2 194.16 129.06 194.71 128.44 194.56 128.37 194.45 128.2 194.21 128.41 193.88 128.24 193.56 128.24 193.29 127.65 193.41 127.47 192.97 126.91 192.6 126.81 192.09 125.55 191.89 125.27 191.86 125.45 191.62 125.45 191.18 124.91 190.56 124.65 190.12 123.89 189.1 122.75 188.92 122.43 188.07 122.24 187.79 121.89 187.23 121.26 186.84 121.39 186.65 121.28 186.2 121.34 185.91 121.54 185.55 121.19 185.05 120.43 185.26 120.2 184.71 119.42 184.48 119.51 184.43 120.13 184.57 120.11 184.61 120.95 184.09 120.81 183.93 119.88 183.68 119.24 183.27 119.1 183.27 118.83 183.11 118.03 182.88 117.96 182.47 115.79 181.21 112.47 180.5 111.72 180.47 111.72 180.08 112.33 179.58 112.6"/><polygon class="cls-3" points="193.66 129.2 193.41 129.48 192.16 129.85 191.97 130.57 191.71 131.11 191.83 131.9 191.53 132.44 191.48 132.99 190.99 133.67 191.29 134.02 192.42 133.98 193.13 133.51 193.95 133.37 194.48 133.68 194.56 133.56 195.26 132.26 195.16 132.05 194.37 132.06 193.91 132.25 193.7 132.21 193.37 131.79 194.02 131.79 194.33 131.34 194.75 131.33 195.31 130.7 195.62 130.58 195.51 129.64 195.6 129.36 195.41 129.36 194.71 128.68 194.73 128.45 194.71 128.44 194.16 129.06 193.66 129.2"/><polygon class="cls-7" points="194.3 134.01 194.48 135.15 195 136.78 195.82 137.19 195.7 138.06 196.11 138.99 197.21 139.22 197.97 139.86 206.86 142.59 210.75 142.54 201.3 151.9 199.46 151.85 197.58 151.92 197 152.29 196.48 152.33 195.72 152.72 195.47 153.33 194.88 153.68 194.09 154.12 193.2 154.24 192.23 154.72 191.97 155.15 191.86 155.18 191.9 155.18 189.09 157.85 189.03 169.81 191.16 171.74 191.19 171.6 193.69 168.84 193.96 168.2 194.6 167.59 195.22 167.4 195.47 166.95 195.77 166.83 197.46 164.96 197.91 164.82 199.97 162.65 201.04 161.83 201.89 161.24 202.89 161.05 204.33 159.82 207.69 156.85 209.29 154.91 210.2 153.97 210.41 153.33 212.47 150.54 212.51 150.04 213.61 148.51 213.68 147.55 215.39 144.28 215.78 143.94 215.48 143.5 215.53 143.16 216.2 142.44 216.44 142.48 216.87 141.95 217.59 140.44 218.63 138.98 218.58 138.2 218.77 137.88 218.89 137.16 218.65 136.76 219.09 136.01 219.36 135.94 219.74 135.94 219.8 136.06 220 135.95 219.82 135.59 219.63 135.54 219.68 135.69 219.27 135.74 219.49 135.27 219.4 134.76 219.13 134.39 219.4 133.76 219.71 133.5 219.69 133.31 219.3 133.3 219.15 133.04 219.32 132.74 219.36 132.25 219.55 131.77 219.86 131.3 219.72 131.22 219.38 131.24 218.6 130.98 218.24 130.73 218.27 130.86 218.02 130.83 217.65 131.19 217.73 131.26 217.49 131.7 217.39 131.62 216.85 132.15 215.93 132.26 215.84 132.51 215.59 132.29 214.7 132.41 214.14 132.86 212.67 133.13 212.36 133.13 212.07 132.96 211.12 133.03 210.27 133.45 209.45 133.41 209 133.56 208.41 133.3 207.82 133.41 205.98 134.55 205.11 134.65 204.5 134.37 204.21 134.47 203.39 134.51 203.21 134.34 202.92 134.35 201.9 135.16 201.41 135.17 200.63 135.64 200.35 135.98 199.48 136.09 198.74 135.91 197.98 135.23 197.69 135.15 197.47 134.69 195.64 132.67 195.44 132.64 195.26 132.26 194.56 133.56 194.3 134.01"/><polygon class="cls-3" points="189.09 157.85 191.9 155.18 191.86 155.18 191.1 155.17 189.96 155.36 189.45 155.07 189.09 154.41 188.66 154.19 187.24 154.38 186.92 154.59 186.46 154.56 185.82 154.8 185.53 155.2 184.73 156.44 184.13 156.48 183.7 156.48 183.16 156.29 182.35 156.41 181.69 156.12 180.61 156.12 180.14 155.96 179.64 155.39 178.9 154.88 177.63 153.67 177.07 153.32 175.6 153.41 174.84 153.22 174.16 153.45 173.58 153.33 173.05 152.75 173.05 150.93 172.59 150.86 171.99 150.98 171.67 150.42 171.45 150.67 170.44 151.8 169.69 152.94 169.39 152.83 168.83 153.37 168.54 153.77 168.31 153.86 167.95 154.33 167.95 154.33 167.99 154.31 168.28 154.66 168.48 155.44 168.77 155.61 168.71 156.14 169.12 156.22 169.32 156.89 169.32 157.5 170.02 158.17 170.39 159.1 170.8 159.27 171.15 159.53 170.89 159.91 171.32 160.29 171.53 160.93 171.44 161.57 170.74 162.38 170.74 162.81 170.48 163.54 169.44 163.54 169.46 163.8 169.15 164.12 168.91 164.67 168.42 165.14 168.07 165.83 167.49 166.38 167.37 167.22 166.58 170.17 167.43 170.13 178.52 176.6 179.13 177.62 178.98 177.9 179.1 178.28 179.36 178.6 183.12 181.25 183.38 181.26 184.02 181 185.11 179.4 185.55 178.45 185.55 177.76 186.04 177.16 186.54 176.39 186.35 176.24 186.38 175.87 186.81 175.37 186.86 175.15 187.24 175.03 188.13 175.03 188.68 174.27 189.71 173.9 189.53 173.6 189.88 173.22 190.12 173.14 191.11 171.93 191.16 171.74 189.03 169.81 189.09 157.85"/><polygon class="cls-3" points="160.1 170.46 161.25 170.46 162.41 170.4 160.18 170.46 160.1 170.46"/><polygon class="cls-9" points="158.03 157.52 158.03 158.37 157.86 159.4 157.79 160.17 158.13 160.41 158.43 160.8 158.66 161.3 158.6 161.64 157.05 163.71 156.09 164.77 155.83 165.23 154.66 167.34 154.44 167.71 154.42 168.5 154.33 169.6 153.94 170.69 154.02 171.39 153.87 171.53 154.03 171.6 154.53 171.5 155.02 171.1 155.36 171.26 155.6 171.5 156.04 171.5 156.26 171.29 156.27 170.87 156.77 170.78 156.86 170.91 157.03 170.68 157.31 170.74 157.57 170.48 160.1 170.46 160.18 170.46 162.41 170.4 166.58 170.17 167.37 167.22 167.49 166.38 168.07 165.83 168.42 165.14 168.91 164.67 169.15 164.12 169.46 163.8 169.44 163.54 170.48 163.54 170.74 162.81 170.74 162.38 171.44 161.57 171.53 160.93 171.32 160.29 170.89 159.91 171.15 159.53 170.8 159.27 170.39 159.1 170.02 158.17 169.32 157.5 169.32 156.89 169.12 156.22 168.71 156.14 168.77 155.61 168.48 155.44 168.28 154.66 167.99 154.31 167.95 154.33 167.23 154.8 166.88 155.3 166.21 155.61 165.52 155.41 164.44 155.47 163.78 155.76 163.28 155.76 163.05 155.88 162.67 155.79 162.3 156.14 162.3 156.63 161.95 156.63 161.25 156.4 161.19 155.93 160.64 155.79 160.18 155.93 159.39 155.65 158.81 155.41 158.44 155.76 158.41 156.2 158.55 156.45 158.49 156.57 158.34 157.12 158.03 157.52"/><polygon class="cls-4" points="132.37 133.91 132 133.67 131.27 133.67 130.72 134.05 129.96 134.49 129.85 134.89 129.88 135.3 129.53 135.44 128.98 136.32 128.66 136.34 128.42 136.2 127.99 136.69 128.02 137.16 127.58 137.45 127.47 137.97 127.56 138.41 127.41 138.84 126.92 139.1 126.34 139.53 125.21 139.68 124.36 139.8 123.58 139.68 123.09 139.48 122.39 139.57 121.93 139.45 121.52 139.71 121.46 140.21 121.96 140.84 122.3 140.84 122.42 141.25 121.55 141.83 121.14 142.29 120.36 142.29 118.56 142.7 117.8 143.22 116.96 143.57 116.18 144.15 115.63 144.24 115.37 143.98 115.16 143.28 114.84 142.99 114.5 143.34 114.5 143.92 114.12 144.62 113.31 144.64 112.81 144.76 112.23 144.76 112.12 144.15 111.79 143.79 111.8 143.99 111.24 144.76 110.81 144.93 110.53 145.54 109.98 146.58 109.64 147.32 109.05 148.15 108.71 148.28 108.44 148.69 108.52 149.33 108.77 150.13 108.64 150.87 108.89 151.66 108.96 152.33 108.96 153.55 109.25 153.77 110.12 154.19 110.6 154.79 110.79 155.43 111.53 156.52 111.99 157.41 112.35 157.76 113.31 158.5 113.39 159.12 113.38 159.6 113.51 159.8 113.59 159.87 114.94 157.61 115.69 156.89 116.21 156.77 116.46 156.45 117.76 155.93 118.24 155.97 118.56 155.75 119.05 155.75 119.46 155.75 119.66 156 120.21 156.31 120.51 156.19 120.86 156.1 120.89 155.61 121.05 155.17 121.24 154.91 120.77 154.28 120.77 153.93 121.18 153.91 121.42 153.69 121.42 153.37 121.7 153.02 121.77 152.61 121.98 152.41 122.35 152.41 122.79 151.97 123.31 152.04 123.4 151.76 123.7 151.76 124.16 152.1 124.51 152.15 125.38 152.89 125.84 153.06 126.64 153.74 126.82 153.91 127.49 153.87 128.1 154.21 128.84 154.26 129.26 154.33 129.64 154.16 130.03 154.17 130.58 154.38 131.3 154.52 131.58 154.69 132.29 154.53 132.4 154.29 132.08 154.03 132.03 153.69 132.5 153.2 132.93 152.65 133.54 152.67 134.11 152.79 134.45 153.16 134.84 152.99 136.14 152.84 136.37 152.56 136.84 152.37 138.09 151.82 138.49 151.86 138.56 152.08 138.78 152.12 138.91 152.47 139.17 152.48 139.54 152.22 140.27 152.18 140.68 152.1 141.03 152.09 141.43 151.51 141.3 151.3 141.33 151.07 141.79 151.04 142.07 151.31 142.71 151.41 143.06 151.38 143.36 151.54 143.8 151.61 144.23 151.9 145.36 151.91 145.54 152.01 146.48 151.59 147.16 151.65 147.72 151.98 147.83 152.02 147.83 151.9 147.6 151.54 147.04 151.2 146.7 150.95 146.6 150.02 146.68 149.73 146.22 149.37 145.21 149.11 144.94 148.82 144.97 148.24 144.81 148.01 144.18 147.82 143.89 147.5 143.84 146.62 143.61 146.24 142.62 145.67 142.4 145.7 141.91 145.46 141.68 145.57 141.15 145.43 140.56 144.9 140.79 144.64 140.86 144.39 141.25 144.07 141.39 143.63 141.14 143.32 140.63 143.27 140.03 142.98 139.87 142.57 139.41 142.29 138.9 142.27 138.21 141.98 137.69 141.57 137.6 141.02 137.82 140.61 137.53 140.37 136.62 140.34 136.4 140.64 135.63 140.62 135.21 140.26 135.17 139.34 135.38 138.76 135.58 138.48 135.73 137.84 135.51 137.39 134.99 136.21 134.19 135.13 134.07 134.82 133.43 134.28 133.59 134.07 133.59 133.66 133.27 133.29 133.16 133.56 132.37 133.91"/><polygon class="cls-4" points="97.98 64.6 98.21 64.83 97.55 65.85 95.8 66.95 95.8 67.36 95.25 68.05 94.56 68.02 94.12 68.34 94.09 68.66 93.98 69.07 94.27 70.02 94.35 70.75 94.17 70.94 94.19 71.2 94.01 71.44 93.68 72.01 93.21 72.3 93.03 72.46 92.66 72.46 92.66 72.47 92.4 72.71 92.41 73.73 92.71 73.94 93.08 74.66 93.08 76.64 93.17 77.74 93.13 78.06 93.26 79.6 93.63 80.49 93.34 82.15 93.24 82.43 93.53 83.16 93.65 84.21 93.36 84.63 92.68 85.12 92.44 85.47 92.21 85.65 92.65 86.14 93.36 87.06 93.93 88.25 94.11 88.41 94.3 89.19 94.19 89.56 94.26 90.41 94.62 90.83 94.75 91.37 95.07 91.69 96.3 91.69 97.42 91.78 97.94 92.13 98.35 92.78 98.94 94.02 99.26 94.31 99.62 94.76 100 95.12 105.29 96.44 105.79 96.96 108.48 95.84 111.9 94.42 136.25 106.8 136.25 106.81 136.27 106.8 136.27 105.7 139.16 105.42 137.86 75.54 137.54 74 137.16 73.19 137.51 72.23 137.94 71.19 137.94 70.52 137.6 69.71 137.86 68.43 138.05 67.93 137.78 67.08 137.35 66.61 136.8 66.51 136.25 66.61 134.22 66.35 133.8 65.99 133 65.92 131.93 65.63 131.7 65.28 131.93 65.19 131.91 64.82 130.63 64.12 129.97 64.12 128.92 63.84 128.66 63.7 128.35 63.98 127.7 63.66 127.48 63.66 126.54 64.14 125.05 64.27 123.77 64.89 123.04 65.6 122.86 66.42 122.47 66.72 122.38 68.27 122.93 69.12 123.29 70.33 123.04 71.02 122.26 71.81 122.15 72.1 121.13 72.96 120.5 73.2 119.18 72.68 118.02 71.72 117.11 70.98 115.71 70.26 113.47 69.32 112.49 69.21 112.17 69.39 111 69.39 110 68.89 109.06 67.08 109.08 66.15 108.33 65.14 106.39 64.87 105.36 64.21 103.69 64.16 102.75 63.8 100.63 64.18 99.14 63.86 98.57 63.31 97.88 63.18 97.78 63.44 97.98 64.6"/><polygon class="cls-8" points="89.06 51.25 88.95 52.17 88.96 53.13 88.42 54.51 88.61 55.32 89 55.78 89.05 55.97 88.8 56.2 88.54 56.64 88.95 57.04 88.66 57.36 88.47 58.43 88.13 58.68 87.86 59.05 87.41 59.19 86.72 60 86.36 61.46 86.57 61.59 86.93 62.37 86.8 62.72 87.18 63.29 87.48 63.39 88.34 64.14 88.56 64.88 89.26 65.17 89.55 65.48 90.03 65.59 90.79 66.42 92.66 72.46 93.03 72.46 93.21 72.3 93.68 72.01 94.01 71.44 94.19 71.2 94.17 70.94 94.35 70.75 94.27 70.02 93.98 69.07 94.09 68.66 94.12 68.34 94.56 68.02 95.25 68.05 95.8 67.36 95.8 66.95 97.55 65.85 98.21 64.83 97.98 64.6 97.78 63.44 97.88 63.18 97.52 63.11 96.63 62.56 96.54 62.24 96.52 61.81 96.06 61.56 95.88 61.69 95.92 61.92 95.69 62.1 95.28 61.92 95.15 61.46 94.71 61.56 93.75 60.89 93.27 60.02 93.57 59.13 95.08 58.08 95.95 57.22 96.17 56.94 95.92 56.6 96.24 56.26 96.13 55.82 95.9 55.66 95.92 54.68 95.03 54.34 94.3 53.35 94.44 52.56 95.17 52.05 95.21 51.5 95.81 50.61 95.81 50.02 95.53 49.81 94.46 50.79 94.1 51.18 93.8 51 93.34 49.97 93.04 49.86 93.11 49.33 92.72 48.99 92.06 49.13 92.04 49.51 91.72 49.08 90.92 49.24 89.82 49.79 89.05 50.48 89.04 50.47 88.95 50.9 89.06 51.25"/><polygon class="cls-7" points="59.45 57.1 59.79 57.54 59.87 58.09 59.97 58.31 60.02 59.29 60 60.47 60.12 60.94 60.37 63.18 60.8 64.06 60.95 64.66 61.41 64.79 61.72 65.07 62.05 65.08 62.32 65.29 61.98 66.12 62.04 66.31 61.63 66.89 58.07 66.89 57.35 67.04 56.62 68.2 55.98 68.75 55.69 69.45 55.72 70.4 55.46 70.98 53.37 72.43 50.15 74.29 47.69 75.74 46.5 76.01 45.35 76.03 44.82 76.18 43.91 76.18 42.31 76.5 41.42 77.11 40.84 77.88 39.44 78.87 39.4 81.45 39.39 81.46 39.37 82.31 39.38 82.33 39.38 82.3 50.34 89.66 50.34 89.67 70.12 102.79 70.47 104.24 71.11 104.82 72.22 104.76 73.09 105.05 73.63 105.73 74.36 105.93 74.94 106.45 74.91 106.92 74.62 107.84 74.82 108.31 75.55 108.57 76.94 108.4 78.06 108.04 78.07 108.05 82.69 106.94 86.43 103.52 99.99 95.12 100 95.12 99.62 94.76 99.26 94.31 98.94 94.02 98.35 92.78 97.94 92.13 97.42 91.78 96.3 91.69 95.07 91.69 94.75 91.37 94.62 90.83 94.26 90.41 94.19 89.56 94.3 89.19 94.11 88.41 93.93 88.25 93.36 87.06 92.65 86.14 92.21 85.65 92.44 85.47 92.68 85.12 93.36 84.63 93.65 84.21 93.53 83.16 93.24 82.43 93.34 82.15 93.63 80.49 93.26 79.6 93.13 78.06 93.17 77.74 93.08 76.64 93.08 74.66 92.71 73.94 92.41 73.73 92.4 72.71 92.66 72.47 92.66 72.46 90.79 66.42 90.03 65.59 89.55 65.48 89.26 65.17 88.56 64.88 88.34 64.14 87.48 63.39 87.18 63.29 86.8 62.72 86.93 62.37 86.57 61.59 86.36 61.46 86.72 60 87.41 59.19 87.86 59.05 88.13 58.68 88.47 58.43 88.66 57.36 88.95 57.04 88.54 56.64 88.8 56.2 89.05 55.97 89 55.78 88.61 55.32 88.42 54.51 88.96 53.13 88.95 52.17 89.06 51.25 88.95 50.9 89.04 50.47 88.88 50.29 88.04 50.45 87.58 50.36 86.3 50.73 85.64 50.16 84.82 49.86 84.8 50.18 84.27 50.68 83.24 50.57 83.18 50.09 82.74 49.77 82.03 49.93 81.99 50.34 81.37 50.45 81.1 50.91 80.71 50.75 80.23 50.75 79.61 51.23 78.92 51.23 78.54 50.61 77.71 50.57 77.35 50.45 76.55 50.59 75.91 50.5 75.61 50.57 75.06 50.38 74.67 50.48 74.38 51.09 73.74 51.09 73.17 50.86 72.39 51.62 71.93 51.59 71.22 51.21 70.58 51.43 69.42 51.48 68.76 51.39 67.29 52.51 66.45 52.63 66.02 52.64 65.31 53.08 65.27 53.55 64.9 54.04 64.57 54.04 64.37 53.86 63.94 53.87 63.62 54.1 63.45 54.34 62.6 54.39 61.88 54.76 61.5 55.1 61.4 55.47 60.82 56.09 59.9 56.39 59.09 56.42 59.29 56.74 59.45 57.1"/><polygon class="cls-8" points="39.39 81.46 39.4 81.45 39.44 78.87 40.84 77.88 41.42 77.11 42.31 76.5 43.91 76.18 44.82 76.18 45.35 76.03 46.5 76.01 47.69 75.74 50.15 74.29 53.37 72.43 55.46 70.98 55.72 70.4 55.69 69.45 55.98 68.75 56.62 68.2 57.35 67.04 58.07 66.89 61.63 66.89 62.04 66.31 61.98 66.12 62.32 65.29 62.05 65.08 61.72 65.07 61.41 64.79 60.95 64.66 60.8 64.06 60.37 63.18 60.12 60.94 60 60.47 60.02 59.29 59.97 58.31 59.87 58.09 59.79 57.54 59.45 57.1 59.29 56.74 59.09 56.42 58.65 56.44 56.95 56.31 56.57 55.92 56.4 55.34 56.19 55.27 56.17 55.28 55.64 55.86 54.67 56.06 53.7 55.8 53.2 55.76 52.56 56.09 51.65 56.23 50.99 56.09 50.16 55.2 49.83 54.95 49.69 54.47 49.69 54.13 49.8 53.96 49.62 53.73 49.04 53.94 48.78 54.17 48.31 54.12 47.73 54.76 47.61 56.4 46.96 57.26 46.82 58.5 46.42 59.28 45.04 60.56 44.73 60.58 44.06 61.05 42.95 61.43 42.12 62.31 41.8 62.32 40.6 63.12 39.86 63.36 39.44 64.01 38.06 65 38.54 66.05 38.46 66.78 37.25 67.88 36.47 69.48 36.42 70.14 36.93 71.15 36.54 72.26 36.79 72.51 37.13 72.95 36.93 73.82 35.03 75.97 34.82 76.81 33.96 77.75 33 77.84 30.89 79.74 27.95 80.28 27.22 81.3 39.39 81.45 39.39 81.46"/><polygon class="cls-3" points="26.72 95.76 27.1 94.94 27.75 94.47 28.5 94.37 29.56 94.37 29.69 86.4 39.27 86.57 39.38 82.33 39.37 82.31 39.39 81.45 27.22 81.3 26.05 82.93 26.05 84.12 25.5 84.14 23.4 85.24 23.2 85.84 22.37 86.32 22.62 87.09 20.77 89.79 20.66 90.66 19.24 91.98 18.81 92.21 18.06 93.85 18.12 94.31 16.91 95.91 16.87 96.21 17.23 96.48 16.71 96.69 15.75 98.45 15.38 98.54 14.95 99 14.99 99.75 14.67 100.39 14.73 101.39 26.83 101.28 26.72 95.76"/><polygon class="cls-4" points="16.6 117.13 17.21 116.55 18.83 116.29 20.4 115.68 20.92 115.68 22.35 116.15 23.13 116.32 23.77 117.16 23.77 117.45 24.18 117.62 24.7 117.42 24.9 117.57 25.39 117.51 25.66 117.74 25.77 118.5 26.41 119.05 26.41 119.74 27.08 119.86 27.25 120.5 27.77 120.7 28.59 121.19 28.73 121.66 28.74 121.67 29.46 121.11 30.39 121.05 30.71 120.21 30.68 119.8 30.68 118.67 31.61 118.35 32.33 118.38 32.42 119.14 32.94 120.12 33.26 120.32 33.99 118.9 35.52 118.23 36.22 118.5 36.25 119.36 36.6 119.74 37.12 119.14 37.5 119.14 37.85 119.6 38.16 119.74 48.91 119.7 49.9 116.97 48.97 116.39 46.65 89.71 50.31 89.65 50.34 89.67 50.34 89.66 39.38 82.3 39.38 82.33 39.27 86.57 29.69 86.4 29.56 94.37 28.5 94.37 27.75 94.47 27.1 94.94 26.72 95.76 26.83 101.28 14.73 101.39 14.74 101.51 14.44 102.17 14.49 103.34 15.15 102.58 15.4 103.32 15.66 103.45 16.02 103.16 16.89 104.46 16.5 104.84 16.73 105.49 16.52 106.51 16.11 106.51 15.77 106.76 16.64 108.09 17.23 111.22 17.03 113.39 16.3 114.42 15.82 116.29 15.65 117.52 16.16 117.13 16.6 117.13"/><polygon class="cls-3" points="49.8 133.67 49.54 133.21 49.57 132.6 50.15 132.48 50.06 131.61 49.86 131.06 50.41 130.63 51.17 130.05 52.04 128.45 52.68 127.58 52.7 127.14 53.4 125.96 53.81 125.81 53.92 125.4 54.82 125.37 55.17 125.46 56.74 125 57 124.39 58.65 123.28 60.98 122.01 61.73 121.37 62.66 120.85 64.11 120.61 64.87 120.53 65.72 120.8 66.26 120.85 66.49 121.08 66.58 120.9 67.27 121.08 69.36 120.88 70.06 120.93 70.84 120.55 72.15 120.55 72.76 120.55 73.63 119.97 74.53 119.92 75.43 119.45 76.94 118.61 77.14 117.95 77.23 116.9 77.72 116.61 77.93 113.88 78.07 108.05 78.06 108.04 76.94 108.4 75.55 108.57 74.82 108.31 74.62 107.84 74.91 106.92 74.94 106.45 74.36 105.93 73.63 105.73 73.09 105.05 72.22 104.76 71.11 104.82 70.47 104.24 70.12 102.79 50.34 89.67 50.31 89.65 46.65 89.71 48.97 116.39 49.9 116.97 48.91 119.7 38.16 119.74 37.85 119.6 37.5 119.14 37.12 119.14 36.6 119.74 36.25 119.36 36.22 118.5 35.52 118.23 33.99 118.9 33.26 120.32 32.94 120.12 32.42 119.14 32.33 118.38 31.61 118.35 30.68 118.67 30.68 119.8 30.71 120.21 30.39 121.05 29.46 121.11 28.74 121.67 29.14 122.01 29.14 122.56 29.34 122.99 29.02 124.21 29.11 124.59 29.83 125.29 30.15 126.04 30.53 126.36 30.85 126.3 31.2 126.59 31.34 127 31.75 127.46 31.72 127.81 31.55 128.16 31.57 128.62 32.36 129.06 32.33 129.58 32.18 129.96 32.19 129.99 32.53 130.16 33.2 129.87 33.61 130.05 34.27 130.51 35.03 130.51 35.64 130.07 36.04 130.05 36.63 129.2 37.21 129.18 38.02 129.52 38.28 129.29 38.83 129.12 38.89 129.44 39.56 129.99 39.88 130.63 39.67 131.47 40.02 131.7 40.69 131.88 40.69 132.22 40.14 132.98 39.85 133.76 40.37 133.7 40.69 133.3 41.07 133.27 41.07 133.85 41.3 134.22 41.3 134.57 42.08 134.6 42.37 134.92 42.39 135.33 43.27 134.84 43.65 134.81 44.37 135.15 45.59 135.24 45.85 135.01 45.89 134.75 46.87 134.54 47.68 134.66 47.51 134.86 47.74 135.21 48.7 135.5 49.25 134.66 49.63 134.4 49.8 133.67"/><polygon class="cls-8" points="71.51 128.71 71.86 128.25 71.8 127.67 71.57 127.43 71.48 127.06 71.16 126.88 69.86 127.58 68.81 126.77 68.75 125.55 65.88 123.63 65.88 122.76 66.26 122.15 66.37 121.31 66.49 121.08 66.26 120.85 65.72 120.8 64.87 120.53 64.11 120.61 62.66 120.85 61.73 121.37 60.98 122.01 58.65 123.28 57 124.39 56.74 125 55.17 125.46 54.82 125.37 53.92 125.4 53.81 125.81 53.4 125.96 52.7 127.14 52.68 127.58 52.04 128.45 51.17 130.05 50.41 130.63 49.86 131.06 50.06 131.61 50.15 132.48 49.57 132.6 49.54 133.21 49.8 133.67 49.63 134.4 49.72 134.34 50.59 135.04 51.72 135.65 52.15 135.65 52.5 135.88 52.97 135.88 53.6 136.17 53.92 136.63 54.88 137.13 55.61 136.98 56.18 136.59 56.57 136.6 57.01 136.91 57.66 137.02 57.64 136.11 57.29 135.27 56.97 135.01 56.77 134.05 56.86 133.38 57.9 133.33 60.13 133.33 60.4 133.21 61.96 133.21 63.1 133.03 63.79 133.01 64.49 132.69 64.72 132.75 64.72 132.74 64.95 132.7 68.08 133.49 68.2 133.21 68.99 133.03 68.87 132.4 69.36 132.05 69.31 131.5 69.92 131.21 70.23 131.35 71.19 130.86 71.72 130.83 72.38 130.05 72.38 129.56 72.18 129.58 71.51 128.71"/><polygon class="cls-8" points="16.83 128.88 18.86 129.06 19.42 128.33 20.52 127.87 23.25 127.93 24.01 128.14 24 128.1 24.58 127.99 26.5 128.01 27.72 128.62 28.24 129.03 29.17 128.97 30.13 129.38 30.62 129.09 31.2 129.12 31.49 129.44 32.13 129.49 32.18 129.96 32.33 129.58 32.36 129.06 31.57 128.62 31.55 128.16 31.72 127.81 31.75 127.46 31.34 127 31.2 126.59 30.85 126.3 30.53 126.36 30.15 126.04 29.83 125.29 29.11 124.59 29.02 124.21 29.34 122.99 29.14 122.56 29.14 122.01 28.73 121.66 28.59 121.19 27.77 120.7 27.25 120.5 27.08 119.86 26.41 119.74 26.41 119.05 25.77 118.5 25.66 117.74 25.39 117.51 24.9 117.57 24.7 117.42 24.18 117.62 23.77 117.45 23.77 117.16 23.13 116.32 22.35 116.15 20.92 115.68 20.4 115.68 18.83 116.29 17.21 116.55 16.6 117.13 16.16 117.13 15.65 117.52 15.52 118.51 14.74 119.93 12.85 121.66 13.87 122.49 14.54 123.65 15.11 123.74 15.11 124.36 14.86 124.4 15.61 124.88 15.2 125.18 15.28 125.43 16.66 125.46 16.98 125.27 17.52 125.27 18.62 124.44 19.45 124.09 19.96 124.25 20.73 124.28 21.68 124.86 22.23 124.86 23.55 125.68 23.81 125.64 24.05 126.01 23.84 126.41 23.17 126.38 22.18 125.97 21.42 125.71 20.77 125.69 20.06 125.23 19.76 125.34 19.31 125.71 19.13 125.58 18.71 125.48 18.06 125.91 17.49 126.06 16.96 126.66 15.12 126.66 14.81 126.96 14.81 127.65 14.51 127.96 14.67 128.2 15.36 127.83 16.39 128.2 15.72 128.61 15.4 128.49 14.9 128.36 15.13 128.56 15.11 129.14 15.85 129.38 16.83 128.88"/><polygon class="cls-9" points="16.96 126.66 17.49 126.06 18.06 125.91 18.71 125.48 19.13 125.58 19.31 125.71 19.76 125.34 20.06 125.23 20.77 125.69 21.42 125.71 22.18 125.97 23.17 126.38 23.84 126.41 24.05 126.01 23.81 125.64 23.55 125.68 22.23 124.86 21.68 124.86 20.73 124.28 19.96 124.25 19.45 124.09 18.62 124.44 17.52 125.27 16.98 125.27 16.66 125.46 15.28 125.43 15.43 125.89 16.2 126.28 16.89 126.09 16.43 126.53 15.61 126.55 14.99 125.77 14.47 126.3 14.81 126.73 14.81 126.96 15.12 126.66 16.96 126.66"/><polygon class="cls-3" points="21.94 132.48 22.75 132.02 23.8 131.82 24.29 131.44 24.32 130.89 24 130.54 23.97 129.52 24.12 129.06 24.01 128.14 23.25 127.93 20.52 127.87 19.42 128.33 18.86 129.06 16.83 128.88 15.85 129.38 15.11 129.14 15.11 129.16 15.36 129.61 16.36 129.66 16.78 129.7 16.23 130.11 16.78 130.66 17.39 130.71 17.55 131.03 17.89 131.1 18.67 130.82 19.4 130.66 20.23 131.12 19.97 131.3 18.47 131.33 18.65 131.58 19.15 131.65 19.43 131.94 19.24 132.22 19.59 132.24 18.88 133.02 20.16 132.88 20.11 133.38 20.25 133.57 20.97 133.35 21.33 132.63 21.94 132.48"/><polygon class="cls-9" points="35.01 149.15 35.01 149.15 33.89 148.39 35.01 149.15"/><polygon class="cls-9" points="32.29 146.56 32.38 146.61 32.29 146.56 32.29 146.56"/><polygon class="cls-9" points="27.4 138.17 27.4 137.77 28.24 137.04 28.7 136.52 29.49 136.2 32.04 136.2 32.45 136.98 32.79 137.5 33.52 138.84 33.43 139.33 34.01 139.89 34.01 140.35 33.61 140.52 33.55 141.05 33.9 141.19 33.83 141.47 34.54 141.16 34.8 141.25 36.08 140.84 36.66 141.1 37.03 141.8 37.61 142.12 37.55 143.31 37.44 143.95 38.22 144.85 38.57 144.73 39.47 144.06 39.79 144.15 40.25 144.59 40.39 144.91 40.28 145.17 40.43 144.82 40.95 144.64 41.76 142.87 41.85 142.24 41.65 141.97 41.07 141.34 41.07 140.93 41.44 140.73 41.94 140.79 41.99 140.38 41.62 139.77 41.3 139.53 41.18 138.46 41.36 138.03 41.24 136.63 41.01 136.37 41.01 135.91 42.14 135.48 42.39 135.33 42.37 134.92 42.08 134.6 41.3 134.57 41.3 134.22 41.07 133.85 41.07 133.27 40.69 133.3 40.37 133.7 39.85 133.76 40.14 132.98 40.69 132.22 40.69 131.88 40.02 131.7 39.67 131.47 39.88 130.63 39.56 129.99 38.89 129.44 38.83 129.12 38.28 129.29 38.02 129.52 37.21 129.18 36.63 129.2 36.04 130.05 35.64 130.07 35.03 130.51 34.27 130.51 33.61 130.05 33.2 129.87 32.53 130.16 32.19 129.99 32.18 129.96 32.13 129.49 31.49 129.44 31.2 129.12 30.62 129.09 30.13 129.38 29.17 128.97 28.24 129.03 27.72 128.62 26.5 128.01 24.58 127.99 24 128.1 24.01 128.14 24.12 129.06 23.97 129.52 24 130.54 24.32 130.89 24.29 131.44 23.8 131.82 22.75 132.02 21.94 132.48 21.33 132.63 20.97 133.35 21.02 133.34 21.5 133.86 21.23 134.98 21.92 135.92 22.6 135.97 23.06 136.15 23.33 135.76 23.84 135.99 23.61 136.22 23.58 136.7 23.86 136.97 24.5 136.99 24.73 137.91 25.55 138.34 25.99 138.7 26.47 138.67 27.4 138.17"/><polygon class="cls-3" points="27.63 144.32 27.31 144.24 27.18 144.47 27.26 144.74 27.67 144.99 27.92 145.02 27.87 144.6 27.63 144.32"/><polygon class="cls-8" points="31.57 145.11 32.3 144.76 32.94 144.04 32.85 143.57 33.14 142.76 33.55 142.55 33.55 142.12 33.75 141.51 33.83 141.47 33.9 141.19 33.55 141.05 33.61 140.52 34.01 140.35 34.01 139.89 33.43 139.33 33.52 138.84 32.79 137.5 32.45 136.98 32.04 136.2 29.49 136.2 28.7 136.52 28.24 137.04 27.4 137.77 27.4 138.17 26.47 138.67 25.99 138.7 26.03 138.73 25.71 139.3 25.66 139.76 26.1 139.99 25.69 140.76 25.91 141.24 26.48 141.33 26.79 142.29 26.79 142.97 27.47 143.7 28.07 143.47 28.09 143.61 27.84 144.13 28.22 144.5 28.65 144.99 28.48 145.35 29.16 145.52 30.78 146.36 31.14 146.36 31.26 145.89 31.57 145.11"/><polygon class="cls-3" points="31.92 146.36 32.29 146.56 32.29 146.56 31.92 146.36"/><polygon class="cls-7" points="42.63 152.77 42.89 152.08 42.69 151.61 42.84 151.09 43.1 150.71 42.89 150.33 43.3 150.01 43.13 149.41 42.72 149.37 42.28 149.09 42.08 148.48 41.71 148.3 41.33 148.39 40.98 147.95 40.46 147.95 40.22 148.1 39.73 147.92 39.56 147.34 39.99 146.88 40.49 145.75 40.28 145.17 40.39 144.91 40.25 144.59 39.79 144.15 39.47 144.06 38.57 144.73 38.22 144.85 37.44 143.95 37.55 143.31 37.61 142.12 37.03 141.8 36.66 141.1 36.08 140.84 34.8 141.25 34.54 141.16 33.83 141.47 33.75 141.51 33.55 142.12 33.55 142.55 33.14 142.76 32.85 143.57 32.94 144.04 32.3 144.76 31.57 145.11 31.26 145.89 31.14 146.36 31.92 146.36 32.29 146.56 32.38 146.61 32.15 147.04 32.65 147.27 33.43 148.37 33.89 148.39 35.01 149.15 35.15 149.24 37.02 151.11 37.66 151.18 39.97 152.9 42.94 153.98 42.92 153.27 42.63 152.77"/><polygon class="cls-4" points="57.2 151.44 57.63 151.37 57.68 150.51 57.39 150.01 56.69 149.81 56.62 149.08 56.18 147.95 55.83 147.57 55.84 147.3 56.11 147.13 56.07 145.78 56.36 145.37 56.39 144.68 56.62 144.21 56.57 143.6 57.52 142.18 58.13 141.8 58.13 141.19 58.39 140.52 58.13 139.77 57.7 139.36 57.7 138.84 57.44 138.2 57.67 137.24 57.66 137.02 57.01 136.91 56.57 136.6 56.18 136.59 55.61 136.98 54.88 137.13 53.92 136.63 53.6 136.17 52.97 135.88 52.5 135.88 52.15 135.65 51.72 135.65 50.59 135.04 49.72 134.34 49.25 134.66 48.7 135.5 47.74 135.21 47.51 134.86 47.68 134.66 46.87 134.54 45.89 134.75 45.85 135.01 45.59 135.24 44.37 135.15 43.65 134.81 43.27 134.84 42.14 135.48 41.01 135.91 41.01 136.37 41.24 136.63 41.36 138.03 41.18 138.46 41.3 139.53 41.62 139.77 41.99 140.38 41.94 140.79 41.44 140.73 41.07 140.93 41.07 141.34 41.65 141.97 41.85 142.24 41.76 142.87 40.95 144.64 40.43 144.82 40.28 145.17 40.49 145.75 39.99 146.88 39.56 147.34 39.73 147.92 40.22 148.1 40.46 147.95 40.98 147.95 41.33 148.39 41.71 148.3 42.08 148.48 42.28 149.09 42.72 149.37 43.13 149.41 43.3 150.01 42.89 150.33 43.1 150.71 42.84 151.09 42.69 151.61 42.89 152.08 42.63 152.77 42.92 153.27 42.94 153.98 43.23 154.08 44.28 153.17 44.95 153.17 45.18 152.87 47.25 152.1 47.28 151.8 48.42 151.64 52.42 151.61 53.93 151.14 55.32 151.8 55.46 151.05 56.03 150.91 56.47 151.7 56.59 151.49 57.2 151.44"/><polygon class="cls-3" points="67.87 148.27 67.55 148.14 67.3 147.33 67.1 146.62 67.26 145.81 67.3 145.41 67.62 144.79 67.52 143.01 67.32 142.56 67.39 141.52 67.16 141.09 67.4 140.71 67.32 140.12 67.04 139.89 67.08 139.46 67.32 139 67.27 137.97 67.01 137.88 66.71 137.65 66.68 136.56 66.85 135.73 66.21 135.26 65.95 134.88 65.3 134.28 65.22 133.84 64.96 133.56 64.72 132.75 64.49 132.69 63.79 133.01 63.1 133.03 61.96 133.21 60.4 133.21 60.13 133.33 57.9 133.33 56.86 133.38 56.77 134.05 56.97 135.01 57.29 135.27 57.64 136.11 57.66 137.02 57.67 137.24 57.44 138.2 57.7 138.84 57.7 139.36 58.13 139.77 58.39 140.52 58.13 141.19 58.13 141.8 57.52 142.18 56.57 143.6 56.62 144.21 56.39 144.68 56.36 145.37 56.07 145.78 56.11 147.13 55.84 147.3 55.83 147.57 56.18 147.95 56.62 149.08 56.69 149.81 57.39 150.01 57.68 150.51 57.63 151.37 57.2 151.44 56.59 151.49 56.47 151.7 56.62 151.98 58.24 152.21 59.43 152.73 62.04 151.48 63.86 151.32 65.44 149.99 66.88 149.31 68.52 149.09 68.19 148.59 67.87 148.27"/><polygon class="cls-9" points="70.41 146.82 70.38 145.98 70.18 145.23 70.26 141.6 70.29 141.08 70.61 140.67 70.61 139.95 70.38 139.48 70.41 138.64 70.15 137.36 69.54 135.76 69.22 135.59 68.84 135.15 68.09 134.84 67.91 133.88 68.08 133.49 64.95 132.7 64.72 132.74 64.72 132.75 64.96 133.56 65.22 133.84 65.3 134.28 65.95 134.88 66.21 135.26 66.85 135.73 66.68 136.56 66.71 137.65 67.01 137.88 67.27 137.97 67.32 139 67.08 139.46 67.04 139.89 67.32 140.12 67.4 140.71 67.16 141.09 67.39 141.52 67.32 142.56 67.52 143.01 67.62 144.79 67.3 145.41 67.26 145.81 67.1 146.62 67.3 147.33 67.55 148.14 67.87 148.27 68.19 148.59 68.52 149.09 68.78 149.06 70.4 148.05 70.71 148.09 70.81 147.52 70.41 146.82"/><polygon class="cls-4" points="74.01 145.43 73.92 144.93 73.95 144.49 73.8 143.21 73.92 142.76 73.89 142.41 73.77 142.21 73.85 141.98 73.77 141.47 73.73 141.25 73.79 140.59 73.85 140.16 73.8 139.6 74.04 139.25 74.52 139.06 74.86 139 75.16 138.77 75.42 138.22 75.84 137.48 76 137.04 76.42 136.66 76.83 136.69 76.99 136.41 76.35 135.71 76.39 135.44 76.62 135.06 77.28 135.01 77.39 134.67 77.09 133.59 77.07 132.84 76.25 132.19 76.11 131.71 76.25 131.08 76.31 131.03 75.66 130.16 74.97 130.02 74.41 129.26 73.43 128.45 73.17 129 73.25 129.35 72.7 129.52 72.38 129.56 72.38 130.05 71.72 130.83 71.19 130.86 70.23 131.35 69.92 131.21 69.31 131.5 69.36 132.05 68.87 132.4 68.99 133.03 68.2 133.21 67.91 133.88 68.09 134.84 68.84 135.15 69.22 135.59 69.54 135.76 70.15 137.36 70.41 138.64 70.38 139.48 70.61 139.95 70.61 140.67 70.29 141.08 70.26 141.6 70.18 145.23 70.38 145.98 70.41 146.82 70.81 147.52 70.71 148.09 71.79 148.23 73.87 147.53 73.99 147.55 73.88 146.96 74.01 145.43"/><polygon class="cls-3" points="111.9 94.42 108.48 95.84 108.83 96.22 110.28 100.41 110.22 101.22 110.05 101.57 112.08 104.01 112.02 105.11 111.56 105.58 110.74 111.27 110.86 115.69 105.83 120.81 105.69 121.15 105.37 121.27 105.02 121.27 104.95 121.65 105.17 125.45 105.57 125.61 106.36 126.63 106.79 127.35 106.82 127.38 106.82 127.38 108.32 128.14 109 128.78 109.16 129.66 109.4 129.94 109.53 130.47 109.88 131.3 109.86 131.71 109.72 132.01 109.7 132.28 110.04 132.67 109.8 133.46 109.44 133.84 109.47 134.42 110.01 135.19 110.47 135.41 110.66 136.06 111.46 136.73 111.71 136.84 111.37 137.07 110.97 136.99 110.63 136.8 109.98 136.73 109.58 136.79 109.13 136.72 108.6 136.8 108.29 136.69 107.78 136.7 107.32 136.73 107.29 137.27 107.11 137.56 107.11 138.07 107.23 138.41 107.53 138.63 107.62 138.96 108.13 139.15 109.26 140.11 110.33 141.29 110.79 141.68 111.24 142.46 111.77 143.26 111.79 143.79 112.12 144.15 112.23 144.76 112.81 144.76 113.31 144.64 114.12 144.62 114.5 143.92 114.5 143.34 114.84 142.99 115.16 143.28 115.37 143.98 115.63 144.24 116.18 144.15 116.96 143.57 117.8 143.22 118.56 142.7 120.36 142.29 121.14 142.29 121.55 141.83 122.42 141.25 122.3 140.84 121.96 140.84 121.46 140.21 121.52 139.71 121.93 139.45 122.39 139.57 123.09 139.48 123.58 139.68 124.36 139.8 125.21 139.68 126.34 139.53 126.92 139.1 127.41 138.84 127.56 138.41 127.47 137.97 127.58 137.45 128.02 137.16 127.99 136.69 128.42 136.2 128.66 136.34 128.98 136.32 129.53 135.44 129.88 135.3 129.85 134.89 129.96 134.49 130.72 134.05 131.27 133.67 132 133.67 132.37 133.91 133.16 133.56 133.27 133.29 133.33 133.15 133.33 132.75 133.59 132.31 133.3 131.84 132.17 131.56 132.05 130.97 132.03 130.19 131.74 129.67 131.97 129.29 131.56 129 131.91 128.77 131.91 128.33 131.56 128.25 130.84 128.77 130.43 128.36 130.43 127.69 131.38 126.68 131.7 126.19 131.65 125.58 131.1 125.26 131.21 124.85 131.82 124.47 132.14 123.83 131.79 123.49 131.76 123.05 132.29 122.53 132.61 122.56 133.59 121.25 133.94 120.55 133.62 120.15 133.62 119.4 134.17 118.96 134.93 118.96 135.45 119.28 136 118.93 136.47 118.76 136.25 106.81 136.25 106.8 111.9 94.42"/><polygon class="cls-3" points="101.21 127.3 101.47 127.5 101.92 127.4 102.14 126.96 101.21 127.3"/><polygon class="cls-9" points="105.02 121.27 105.37 121.27 105.69 121.15 105.83 120.81 110.86 115.69 110.74 111.27 111.56 105.58 112.02 105.11 112.08 104.01 110.05 101.57 110.22 101.22 110.28 100.41 108.83 96.22 108.48 95.84 105.79 96.96 105.29 96.44 100 95.12 99.99 95.12 86.43 103.52 82.69 106.94 78.07 108.05 77.93 113.88 77.72 116.61 77.23 116.9 77.14 117.95 76.94 118.61 75.43 119.45 74.53 119.92 73.63 119.97 72.76 120.55 72.15 120.55 70.84 120.55 70.06 120.93 69.36 120.88 67.27 121.08 66.58 120.9 66.37 121.31 66.26 122.15 65.88 122.76 65.88 123.63 68.75 125.55 68.81 126.77 69.86 127.58 71.16 126.88 71.48 127.06 71.57 127.43 71.8 127.67 71.86 128.25 71.51 128.71 72.18 129.58 72.38 129.56 72.7 129.52 73.25 129.35 73.17 129 73.43 128.45 74.41 129.26 74.97 130.02 75.66 130.16 76.31 131.03 76.78 130.65 76.75 130.32 76.42 130.31 76.06 129.45 76.26 129.13 76.14 128.81 76.77 128.17 77.32 128.16 77.29 127.74 77.08 127.49 76.95 126.94 77.07 126.71 77.11 126.53 76.99 126.27 77.08 125.96 77.76 125.42 78.09 125.28 78.33 125.14 78.93 125.01 79.42 125.04 79.66 125.02 80.58 125.04 80.84 124.81 81.33 124.78 81.67 124.89 82.5 125.02 82.86 125.23 83.36 125.32 84.26 125.65 84.53 125.98 85.2 126.96 85.8 127.32 86.1 127.21 86.44 126.8 86.86 126.76 87.31 126.54 88.17 126.38 88.28 126.25 88.78 126.27 89.32 126.68 89.32 126.92 89.93 127.15 90.9 127.69 91.53 127.78 92.75 128.23 93.3 128.36 94.04 127.86 94.81 126.78 95.45 126.61 97.04 126.71 97.69 126.39 99.03 126.56 100 127.02 100.86 127.05 101.21 127.3 102.14 126.96 102.21 126.82 102.85 126.58 103.03 126.22 103.42 126.12 103.87 126.3 104.16 126.17 104.26 125.79 104.61 125.24 105.17 125.45 104.95 121.65 105.02 121.27"/><polygon class="cls-7" points="91.42 151.99 91.74 151.23 91.63 150.51 91.6 149.87 91.94 149.64 91.94 149.2 92.44 148.74 92.96 148.39 93.22 148.07 94.12 147.4 94.06 146.79 94.21 146.47 94.88 146.44 95.17 146.07 95.31 146.21 96.12 146.47 96.44 146.44 97.02 146.73 97.34 147.34 97.86 147.72 98.21 147.86 98.85 147.49 99.26 146.82 99.26 146.56 99.49 146.21 99.95 146.07 100.3 145.52 100.27 145.08 100.51 144.35 101.43 143.43 101.55 142.93 101.4 142.5 101.7 142.03 102.48 141.19 103.09 140.79 103.15 140.15 103.38 139.71 103.26 138.78 103.7 138.38 104.51 138.14 105.03 137.48 105.15 136.78 105.15 136 105.06 135.53 105.41 134.95 105.9 133.94 106.22 133.67 106.31 133.41 106.89 132.95 107.24 132.98 107.65 132.51 108.34 132.2 108.4 131.82 108.18 131.03 108.15 130.69 107.94 130.19 107.4 130.05 107.14 129.51 107.17 128.59 107.1 128.13 106.82 127.38 106.79 127.35 106.36 126.63 105.57 125.61 105.17 125.45 104.61 125.24 104.26 125.79 104.16 126.17 103.87 126.3 103.42 126.12 103.03 126.22 102.85 126.58 102.21 126.82 101.92 127.4 101.47 127.5 100.86 127.05 100 127.02 99.03 126.56 97.69 126.39 97.04 126.71 95.45 126.61 94.81 126.78 94.04 127.86 93.3 128.36 92.75 128.23 91.53 127.78 90.9 127.69 89.93 127.15 89.32 126.92 89.32 126.68 88.78 126.27 88.28 126.25 88.17 126.38 87.31 126.54 86.86 126.76 86.44 126.8 86.1 127.21 85.8 127.32 85.2 126.96 84.53 125.98 84.26 125.65 83.36 125.32 82.86 125.23 82.5 125.02 81.67 124.89 81.33 124.78 80.84 124.81 80.58 125.04 79.66 125.02 79.42 125.04 78.93 125.01 78.33 125.14 78.09 125.28 77.76 125.42 77.08 125.96 76.99 126.27 77.11 126.53 77.07 126.71 76.95 126.94 77.08 127.49 77.29 127.74 77.32 128.16 76.77 128.17 76.14 128.81 76.26 129.13 76.06 129.45 76.42 130.31 76.75 130.32 76.78 130.65 76.31 131.03 76.25 131.08 76.11 131.71 76.25 132.19 77.07 132.84 77.09 133.59 77.39 134.67 77.28 135.01 76.62 135.06 76.39 135.44 76.35 135.71 76.99 136.41 76.83 136.69 76.42 136.66 76 137.04 75.84 137.48 75.42 138.22 75.16 138.77 74.86 139 74.52 139.06 74.04 139.25 73.8 139.6 73.85 140.16 73.79 140.59 73.73 141.25 73.77 141.47 73.85 141.98 73.77 142.21 73.89 142.41 73.92 142.76 73.8 143.21 73.95 144.49 73.92 144.93 74.01 145.43 73.88 146.96 73.99 147.55 75.17 147.8 76.13 147.41 78.35 148.58 79.59 149.79 80.34 151.25 80.31 152.21 80.73 152.42 81.07 153.47 81.84 154.17 82.94 154.47 85.87 154.31 86.46 153.95 86.9 154.13 88.29 153.62 88.75 153.83 89.52 153.67 89.82 152.83 90.37 153.4 90.6 153.26 90.62 153.27 90.64 152.89 91.42 151.99"/><polygon class="cls-9" points="84.03 166.67 84.11 167.22 84.35 167.27 84.69 167.05 84.91 166.61 84.38 166.29 84.03 166.67"/><polygon class="cls-3" points="91.32 156.63 91.26 155.77 91.05 155.56 90.41 156.22 90.18 156.92 89.79 156.95 89.74 157.41 90.31 157.72 90.88 157.81 91.32 156.63"/><polygon class="cls-9" points="94.78 160.88 94.96 161.01 98.55 160.99 98.55 161 98.65 160.87 98.91 160.75 99.21 160.77 99.52 160.61 100.37 160.65 100.62 160.57 101.56 160.62 101.84 160.72 102.33 160.62 102.76 160.62 102.82 160.75 103.58 160.81 103.73 160.73 103.98 160.71 104.17 160.95 108.01 161.02 108.35 161.17 108.5 161.01 108.74 161.01 109.08 161.36 109.37 161.27 109.73 161.37 109.93 161.62 110.24 161.56 110.33 161.36 110.55 161.42 110.98 161.74 111.24 161.65 111.9 161.65 112.14 161.77 112.41 161.85 112.64 161.81 112.72 161.99 113.08 161.92 113.15 161.64 112.87 161.14 113 160.91 113.32 160.41 113.51 159.99 113.59 159.87 113.51 159.8 113.38 159.6 113.39 159.12 113.31 158.5 112.35 157.76 111.99 157.41 111.53 156.52 110.79 155.43 110.6 154.79 110.12 154.19 109.25 153.77 108.96 153.55 108.96 152.33 108.89 151.66 108.64 150.87 108.77 150.13 108.52 149.33 108.44 148.69 108.71 148.28 109.05 148.15 109.64 147.32 109.98 146.58 110.53 145.54 110.81 144.93 111.24 144.76 111.8 143.99 111.79 143.79 111.77 143.26 111.24 142.46 110.79 141.68 110.33 141.29 109.26 140.11 108.13 139.15 107.62 138.96 107.53 138.63 107.23 138.41 107.11 138.07 107.11 137.56 107.29 137.27 107.32 136.73 107.78 136.7 108.29 136.69 108.6 136.8 109.13 136.72 109.58 136.79 109.98 136.73 110.63 136.8 110.97 136.99 111.37 137.07 111.71 136.84 111.46 136.73 110.66 136.06 110.47 135.41 110.01 135.19 109.47 134.42 109.44 133.84 109.8 133.46 110.04 132.67 109.7 132.28 109.72 132.01 109.86 131.71 109.88 131.3 109.53 130.47 109.4 129.94 109.16 129.66 109 128.78 108.32 128.14 106.82 127.38 106.82 127.38 107.1 128.13 107.17 128.59 107.14 129.51 107.4 130.05 107.94 130.19 108.15 130.69 108.18 131.03 108.4 131.82 108.34 132.2 107.65 132.51 107.24 132.98 106.89 132.95 106.31 133.41 106.22 133.67 105.9 133.94 105.41 134.95 105.06 135.53 105.15 136 105.15 136.78 105.03 137.48 104.51 138.14 103.7 138.38 103.26 138.78 103.38 139.71 103.15 140.15 103.09 140.79 102.48 141.19 101.7 142.03 101.4 142.5 101.55 142.93 101.43 143.43 100.51 144.35 100.27 145.08 100.3 145.52 99.95 146.07 99.49 146.21 99.26 146.56 99.26 146.82 98.85 147.49 98.21 147.86 97.86 147.72 97.34 147.34 97.02 146.73 96.44 146.44 96.12 146.47 95.31 146.21 95.17 146.07 94.88 146.44 94.21 146.47 94.06 146.79 94.12 147.4 93.22 148.07 92.96 148.39 92.44 148.74 91.94 149.2 91.94 149.64 91.6 149.87 91.63 150.51 91.74 151.23 91.42 151.99 90.64 152.89 90.62 153.27 91.03 153.47 91.51 153.21 91.88 155.07 92.4 155.13 92.68 155.45 93.57 155.07 94.02 155.8 93.82 156.18 93.82 157.03 94.37 157.81 94.48 158.97 94.07 160.02 94.5 160.48 94.03 160.96 94.42 160.88 94.78 160.88"/><polygon class="cls-8" points="98.45 178.34 98.73 178.19 99.29 178.17 99.46 177.85 99.69 177.85 100.53 178.52 100.57 177.99 100.51 176.48 99.98 176.1 99.69 175.87 99.23 175.99 98.76 176.14 98.85 175.55 98.62 175.12 98.91 174.83 99.55 174.74 100.13 175.09 100.42 174.86 100.57 174.51 101.03 174.51 102.1 174.45 102.25 173.96 102.13 173.23 102.42 172.88 103 172.94 103.49 174.16 103.9 174.65 104.63 174.45 105.01 174.54 105.35 174.31 105.99 174.28 106.6 174.54 106.77 174.95 107.07 174.95 107.09 174.39 106.95 173.84 107.7 171.63 107.99 170.42 108.02 169.81 107.72 169.5 107.57 169.14 107.11 168.76 107 168.5 106.65 168.33 106.53 168.07 106.33 167.83 106.33 167.61 106.67 167.47 106.82 167.29 107.01 167.27 106.87 166.84 106.71 166.66 106.75 166.25 107.39 165.89 107.94 165.77 108.03 165.2 107.84 164.88 108.06 164.5 108 163.6 107.67 163.37 106.71 163.35 106.05 163.6 105.38 163.78 104.96 163.66 104.48 163.92 104.19 163.76 104.31 163.39 104.13 162.9 104.21 162.15 104 161.56 104.15 160.95 104.17 160.95 103.98 160.71 103.73 160.73 103.58 160.81 102.82 160.75 102.76 160.62 102.33 160.62 101.84 160.72 101.56 160.62 100.62 160.57 100.37 160.65 99.52 160.61 99.21 160.77 98.91 160.75 98.65 160.87 98.55 161 98.55 164.59 94.42 164.55 94.25 164.42 93.91 164.49 93.53 164.75 93.17 164.68 93.13 165.39 92.49 165.49 93.09 166.44 94.02 166.67 92.7 166.99 92.36 166.65 92.26 167.49 92.13 169.16 91.56 169.64 90.83 169.39 90.78 169.71 91.42 171.04 91.76 171.31 91.76 171.79 92.31 172.5 92.31 173.41 92.77 173.87 93.09 174.58 93.86 175.22 93.63 175.38 94.46 176.25 95.83 177.34 96.1 178 97.2 178.53 97.29 179.03 97.82 179.24 97.95 179.37 98.39 178.75 98.45 178.34"/><polygon class="cls-7" points="93.91 164.49 94.25 164.42 94.42 164.55 98.55 164.59 98.55 161 98.55 160.99 94.96 161.01 94.78 160.88 94.42 160.88 94.03 160.96 93.91 161.07 94.14 161.6 93.18 162.67 92.42 164.11 93.18 164.5 93.17 164.68 93.53 164.75 93.91 164.49"/><polygon class="cls-4" points="101.08 182.07 101.28 182.07 101.76 181.81 101.94 181.26 102.37 181.18 102.88 180.76 103.15 180.76 103.47 181.03 103.75 181.43 103.77 181.92 103.86 181.84 104.23 181.87 104.67 181.65 104.85 181.97 104.83 182.24 105.4 182.25 105.75 181.85 105.76 181.19 106.18 181.15 106.59 181.27 107.21 180.73 108.15 180.42 108.1 180.71 107.75 181.38 107.9 181.52 108.08 182.03 108.79 182.45 109.51 182.14 109.94 181.49 111.19 180.29 111.38 179.83 111.86 179.51 112.4 179.38 112.91 178.57 112.88 178.03 113.08 177.2 113.19 175.55 113.02 175.31 112.89 174.45 113.23 173.81 114.14 172.85 114.15 172.19 114.73 171.47 115.44 170.98 115.82 171.11 116.35 170.7 116.93 170.53 117.89 168.95 117.91 167.93 118.17 166.93 118.61 166.73 118.7 165.88 118.56 165.71 118.74 164.79 118.65 164.42 118.74 163.53 119.17 162.96 119.22 162.29 119.39 161.64 119.13 160.59 120.44 158.92 120.57 158.37 121.15 158.07 121.13 156.85 120.85 156.26 120.86 156.1 120.51 156.19 120.21 156.31 119.66 156 119.46 155.75 119.05 155.75 118.56 155.75 118.24 155.97 117.76 155.93 116.46 156.45 116.21 156.77 115.69 156.89 114.94 157.61 113.51 159.99 113.32 160.41 113 160.91 112.87 161.14 113.15 161.64 113.08 161.92 112.72 161.99 112.64 161.81 112.41 161.85 112.14 161.77 111.9 161.65 111.24 161.65 110.98 161.74 110.55 161.42 110.33 161.36 110.24 161.56 109.93 161.62 109.73 161.37 109.37 161.27 109.08 161.36 108.74 161.01 108.5 161.01 108.35 161.17 108.01 161.02 104.15 160.95 104 161.56 104.21 162.15 104.13 162.9 104.31 163.39 104.19 163.76 104.48 163.92 104.96 163.66 105.38 163.78 106.05 163.6 106.71 163.35 107.67 163.37 108 163.6 108.06 164.5 107.84 164.88 108.03 165.2 107.94 165.77 107.39 165.89 106.75 166.25 106.71 166.66 106.87 166.84 107.01 167.27 106.82 167.29 106.67 167.47 106.33 167.61 106.33 167.83 106.53 168.07 106.65 168.33 107 168.5 107.11 168.76 107.57 169.14 107.72 169.5 108.02 169.81 107.99 170.42 107.7 171.63 106.95 173.84 107.09 174.39 107.07 174.95 106.77 174.95 106.6 174.54 105.99 174.28 105.35 174.31 105.01 174.54 104.63 174.45 103.9 174.65 103.49 174.16 103 172.94 102.42 172.88 102.13 173.23 102.25 173.96 102.1 174.45 101.03 174.51 100.57 174.51 100.42 174.86 100.13 175.09 99.55 174.74 98.91 174.83 98.62 175.12 98.85 175.55 98.76 176.14 99.23 175.99 99.69 175.87 99.98 176.1 100.51 176.48 100.57 177.99 100.53 178.52 99.69 177.85 99.46 177.85 99.29 178.17 98.73 178.19 98.45 178.34 98.39 178.75 97.95 179.37 98.55 179.95 98.75 180.33 99.67 180.91 99.69 181.45 100.17 181.98 100.15 182.57 100.49 182.95 100.79 182.78 101.08 182.07"/><polygon class="cls-3" points="102.01 184.76 102.35 184.42 102.3 183.32 102.54 183.01 103.18 182.46 103.77 181.92 103.75 181.43 103.47 181.03 103.15 180.76 102.88 180.76 102.37 181.18 101.94 181.26 101.76 181.81 101.28 182.07 101.08 182.07 100.79 182.78 100.49 182.95 100.86 183.35 101.06 184.22 100.72 184.86 100.88 185.21 101.44 184.84 102.01 184.76"/><polygon class="cls-7" points="179.1 178.28 178.98 177.9 179.13 177.62 178.52 176.6 167.43 170.13 166.58 170.17 162.41 170.4 161.25 170.46 157.57 170.48 157.31 170.74 157.03 170.68 156.86 170.91 157.2 171.44 157.58 171.74 157.66 172.11 157.92 172.51 158.16 173.39 158.25 173.99 158.08 174.41 157.97 174.8 157.73 175.05 157.41 175.24 157.07 175.17 156.96 175.03 156.96 175.32 157.13 175.58 157.13 175.99 157.57 176.22 157.68 176.6 158.06 176.66 158.23 177.56 158.18 177.99 157.68 178.49 157.28 178.92 156.93 179.21 156.14 180.08 155.62 180.83 154.61 181.1 153.09 181.07 153.48 183.63 154.2 187.19 156.33 190.13 157.07 192.52 158.07 193.01 158.51 193.01 158.96 193.18 159.27 193.18 159.71 193.49 159.75 193.72 160.12 194.07 160.69 194.09 162.06 194.57 162.38 194.57 162.65 194.83 163.04 194.9 163.23 195.38 163.78 195.96 164.02 195.96 164.03 196 164.17 195.9 164.46 195.93 164.64 196.27 165 196.32 165.17 196.52 165.35 196.4 165.69 196.45 165.89 196.61 166.11 196.66 166.24 196.86 166.57 197.06 166.9 197.38 167.92 198.49 168.07 199.64 168.02 204.72 168.61 202.58 171.5 202.54 172 202.43 172.13 202.21 172.57 202.13 172.59 202.39 172.98 202.5 173.35 202.76 173.75 202.8 174.05 203.13 173.96 203.39 174.86 203.13 175.51 202.67 175.84 202.58 176.07 202.39 176.42 202.54 176.47 202.73 176.86 202.76 177.23 202.99 177.86 202.76 178.71 202.69 178.93 202.24 178.77 201.89 178.99 201.69 179.54 201.87 179.95 201.78 180.36 202.08 180.91 202.02 181.19 201.78 182.32 201.43 182.76 201.6 183.24 201.45 183.45 201.19 184.15 201.1 184.56 200.67 185.2 200.58 185.65 200.21 186 199.73 186.57 199.88 186.83 199.58 186.93 199.53 186.85 199.48 186.85 199.18 186.2 198.63 185.42 198.52 184.35 197.48 184.45 197.03 184.14 196.13 183.86 195.79 184.15 195.3 183.8 194.99 183.68 194.4 183.49 194.03 183.66 193.98 183.33 193.19 183.23 192.51 183.64 192.18 183.72 191.47 183.26 191.02 183.21 189.91 183.39 189.18 183.75 188.94 184 189.02 184.18 188.67 183.78 187.55 183.38 187.61 182.74 186.89 181.89 186.15 181.85 185.46 182.36 184.19 183 182.18 183.21 181.88 183.15 181.42 183 181.25 183.12 181.25 179.36 178.6 179.1 178.28"/><polygon class="cls-3" points="156.27 170.87 156.26 171.29 156.04 171.5 155.6 171.5 155.36 171.26 155.02 171.1 154.53 171.5 154.03 171.6 153.87 171.53 153.22 172.13 152.65 172.8 152.2 174.63 152.13 175.1 152.4 175.03 152.92 175.03 153.24 175.15 153.47 175.64 154 175.84 154.17 175.64 154.37 175.58 154.66 175.87 155.27 175.67 155.27 175.38 155.65 174.45 155.59 173.9 155.85 173.9 156.11 174.13 156.46 174.19 156.61 174.65 156.96 174.86 156.96 175.03 157.07 175.17 157.41 175.24 157.73 175.05 157.97 174.8 158.08 174.41 158.25 173.99 158.16 173.39 157.92 172.51 157.66 172.11 157.58 171.74 157.2 171.44 156.86 170.91 156.77 170.78 156.27 170.87"/><polygon class="cls-4" points="156.61 174.65 156.46 174.19 156.11 174.13 155.85 173.9 155.59 173.9 155.65 174.45 155.27 175.38 155.27 175.67 154.66 175.87 154.37 175.58 154.17 175.64 154 175.84 153.47 175.64 153.24 175.15 152.92 175.03 152.4 175.03 152.13 175.1 152.09 175.44 152.48 176.07 152.55 176.74 152.55 177.53 153.09 181.07 154.61 181.1 155.62 180.83 156.14 180.08 156.93 179.21 157.28 178.92 157.68 178.49 158.18 177.99 158.23 177.56 158.06 176.66 157.68 176.6 157.57 176.22 157.13 175.99 157.13 175.58 156.96 175.32 156.96 175.03 156.96 174.86 156.61 174.65"/><polygon class="cls-8" points="102.39 185.84 102.48 185.69 102.72 185.69 102.91 185.6 103.44 185.45 103.92 185.34 104.37 185.39 104.79 185.43 105.4 185.43 106.09 185.41 106.99 185.37 107.46 185.41 108.42 185.45 109.47 185.37 111.6 185.37 114.75 185.38 114.75 185.82 114.68 185.95 114.78 186.3 115.02 186.63 115.08 187 114.93 187.28 114.93 187.72 115.26 188.26 115.43 188.98 115.54 189.24 115.56 189.59 115.82 189.78 116.08 190.18 116.48 190.74 116.65 191.83 116.98 192 117.78 191.96 118.35 191.85 118.68 191.96 119.72 192.03 120.11 191.81 122.4 191.66 122.38 190.83 122.29 190.24 122.55 190.11 122.77 189.63 122.85 188.76 125.79 188.72 125.81 188.43 126.73 188.52 126.71 188.87 126.51 189.2 126.6 189.5 130.12 189.76 130.18 190.13 130.15 190.59 130.15 191.03 129.89 191.52 129.78 192.03 130.1 192.5 130.1 192.94 129.95 193.16 129.88 193.37 130.01 193.75 130.1 194.83 129.86 195.44 130.01 195.7 130.04 196.01 130.3 196.38 130.3 196.71 130.49 196.84 130.69 197.21 130.93 197.25 130.97 197.62 130.86 198.01 130.86 198.34 131.26 198.71 131.26 199.03 131.1 199.23 131.21 199.84 131.57 200.12 131.39 200.58 131.43 200.74 131.21 200.92 131.2 201.51 131.29 201.73 131.62 201.68 131.81 201.48 132.07 201.39 132.23 201.28 132.53 201.28 132.95 201.59 133.28 201.69 134.06 201.72 134.34 201.77 134.66 201.7 134.94 201.59 135.46 201.34 135.94 201.15 136.5 201.08 136.5 201.15 136.74 201.34 137.09 201.34 137.58 201.49 137.72 201.68 137.75 202.23 137.86 202.42 138.06 202.5 138.38 202.19 138.8 202.01 139.26 201.99 139.45 201.79 140.24 201.55 140.42 201.61 140.46 202.21 140.61 202.49 140.67 202.92 140.63 203.14 140.86 203.15 141.45 203.42 141.74 203.45 142.45 203.88 143.04 203.98 143.75 204.14 143.8 204.32 144.28 204.32 145.2 204.01 145.23 203.72 145.52 202.92 145.91 202.85 146.18 202.71 146.43 202.79 146.43 203.65 146.88 204.19 146.95 204.52 147.69 204.93 148.8 205.3 149.47 205.74 150.11 206.59 150.65 207.07 151.24 207.76 151.89 208.35 152.26 208.35 152.76 208.22 153.22 208.05 153.44 208.09 153.48 208.26 153.98 208.35 154.13 208.09 153.98 204.89 153.59 204.74 152.94 204.85 153 205.19 153.17 205.48 153.02 205.57 151.78 205.54 151.5 205.17 151.33 204.7 150.52 203.82 150.13 203.52 150.08 202.73 150.04 201.06 150.11 200.64 150.7 200.1 150.89 199.8 150.78 199.6 151.02 199.47 151.11 198.84 151.04 198.38 151.1 197.97 151.04 197.56 151.24 197.36 151.27 197.01 150.98 196.85 150.64 196.53 150.48 195.86 151.71 193.5 156.64 192.31 157.07 192.52 156.33 190.13 154.2 187.19 153.48 183.63 153.09 181.07 152.55 177.53 152.55 176.74 152.48 176.07 152.09 175.44 152.13 175.1 152.2 174.63 152.65 172.8 153.22 172.13 154.02 171.39 153.94 170.69 154.33 169.6 154.42 168.5 154.44 167.71 154.66 167.34 155.83 165.23 156.09 164.77 157.05 163.71 158.6 161.64 158.66 161.3 158.43 160.8 158.13 160.41 157.79 160.17 157.86 159.4 158.03 158.37 158.03 157.52 158.34 157.12 158.49 156.57 158.27 156.43 157.52 156.44 157.4 156.43 157.34 156.1 157.17 155.66 156.99 155.42 156.76 154.91 156.44 154.62 155.65 154.36 155.48 154.1 155.15 153.7 154.77 152.94 154.53 152.79 153.86 152.75 153.53 153.15 153.27 153.47 152.64 153.65 152.38 153.64 152.3 153.47 151.91 153.45 151.19 153.45 150.82 153.65 150.59 154.03 150.25 154.13 149.65 153.9 149.04 153.39 148.69 153.01 148.35 152.91 148.02 152.53 147.93 152.05 147.83 152.02 147.72 151.98 147.16 151.65 146.48 151.59 145.54 152.01 145.36 151.91 144.23 151.9 143.8 151.61 143.36 151.54 143.06 151.38 142.71 151.41 142.07 151.31 141.79 151.04 141.33 151.07 141.3 151.3 141.43 151.51 141.03 152.09 140.68 152.1 140.27 152.18 139.54 152.22 139.17 152.48 138.91 152.47 138.78 152.12 138.56 152.08 138.49 151.86 138.09 151.82 136.84 152.37 136.37 152.56 136.14 152.84 134.84 152.99 134.45 153.16 134.11 152.79 133.54 152.67 132.93 152.65 132.5 153.2 132.03 153.69 132.08 154.03 132.4 154.29 132.29 154.53 131.58 154.69 131.3 154.52 130.58 154.38 130.03 154.17 129.64 154.16 129.26 154.33 128.84 154.26 128.1 154.21 127.49 153.87 126.82 153.91 126.64 153.74 125.84 153.06 125.38 152.89 124.51 152.15 124.16 152.1 123.7 151.76 123.4 151.76 123.31 152.04 122.79 151.97 122.35 152.41 121.98 152.41 121.77 152.61 121.7 153.02 121.42 153.37 121.42 153.69 121.18 153.91 120.77 153.93 120.77 154.28 121.24 154.91 121.05 155.17 120.89 155.61 120.85 156.26 121.13 156.85 121.15 158.07 120.57 158.37 120.44 158.92 119.13 160.59 119.39 161.64 119.22 162.29 119.17 162.96 118.74 163.53 118.65 164.42 118.74 164.79 118.56 165.71 118.7 165.88 118.61 166.73 118.17 166.93 117.91 167.93 117.89 168.95 116.93 170.53 116.35 170.7 115.82 171.11 115.44 170.98 114.73 171.47 114.15 172.19 114.14 172.85 113.23 173.81 112.89 174.45 113.02 175.31 113.19 175.55 113.08 177.2 112.88 178.03 112.91 178.57 112.4 179.38 111.86 179.51 111.38 179.83 111.19 180.29 109.94 181.49 109.51 182.14 108.79 182.45 108.08 182.03 107.9 181.52 107.75 181.38 108.1 180.71 108.15 180.42 107.21 180.73 106.59 181.27 106.18 181.15 105.76 181.19 105.75 181.85 105.4 182.25 104.83 182.24 104.85 181.97 104.67 181.65 104.23 181.87 103.86 181.84 103.18 182.46 102.54 183.01 102.3 183.32 102.35 184.42 102.01 184.76 101.44 184.84 100.88 185.21 101.04 185.57 101.91 185.59 102.27 185.86 102.33 185.86 102.39 185.84"/><polygon class="cls-9" points="164.4 196.61 164.55 197.03 164.97 197.28 165.34 197.41 165.32 197.62 164.98 198.39 165.05 198.68 165.56 199.05 165.73 199.5 165.77 200.13 165.61 200.34 165.61 200.52 164.94 201.22 164.84 201.72 165.04 202.24 165.09 202.7 165.2 203.06 164.96 203.45 165.23 203.92 165.11 204.24 164.96 204.38 165.09 204.78 165.13 205.06 165.46 205.27 165.5 205.5 165.22 205.57 165.06 205.88 164.63 206.08 163.97 206.57 163.84 206.81 163.86 207.23 163.95 207.48 163.85 207.8 163.85 208.23 163.39 208.76 163.07 208.93 163.17 209.21 163.59 209.72 163.85 210.3 163.91 210.59 164.71 210.4 164.91 210.72 165.02 211.01 165.28 211.31 165.32 211.68 165.82 211.99 166.06 211.85 166.43 211.85 166.7 211.57 167.33 211.55 168.13 211.74 168.41 212.23 168.41 213.05 168.35 213.75 167.72 214.42 167.56 215.12 167.17 215.67 167.24 216.17 167.5 216.84 167.56 217.32 168.08 217.95 168.59 218.43 168.98 218.65 169.33 218.93 169.72 219.48 169.52 219.84 169.68 220.28 170.26 220.15 170.39 219.56 170.18 218.84 170.48 218.32 170.57 217.75 170.87 216.95 171.48 216.77 171.9 216.43 172.09 215.95 172.11 214.84 171.81 214.49 171.87 214.21 171.72 213.99 171.83 213.75 172.16 213.71 172.29 213.4 172.68 213.27 172.66 212.94 172.46 212.53 172.2 211.79 171.5 210.85 171.31 210.37 170.29 209.35 169.98 209.29 169.76 208.98 169.33 208.57 168.37 208.07 167.87 205.28 168.02 204.72 168.07 199.64 167.92 198.49 166.9 197.38 166.57 197.06 166.24 196.86 166.11 196.66 165.89 196.61 165.69 196.45 165.35 196.4 165.17 196.52 165 196.32 164.64 196.27 164.46 195.93 164.17 195.9 164.03 196 164.2 196.44 164.4 196.61"/><polygon class="cls-3" points="151.71 193.5 150.48 195.86 150.64 196.53 150.98 196.85 151.27 197.01 151.24 197.36 151.04 197.56 151.1 197.97 151.04 198.38 151.11 198.84 151.02 199.47 150.78 199.6 150.89 199.8 150.7 200.1 150.11 200.64 150.04 201.06 150.08 202.73 150.13 203.52 150.52 203.82 151.33 204.7 151.5 205.17 151.78 205.54 153.02 205.57 153.17 205.48 153 205.19 152.94 204.85 153.59 204.74 153.98 204.89 154.13 208.09 153.98 208.35 153.48 208.26 153.44 208.09 153.22 208.05 152.76 208.22 152.26 208.35 151.89 208.35 151.24 207.76 150.65 207.07 150.11 206.59 149.47 205.74 148.8 205.3 147.69 204.93 146.95 204.52 146.88 204.19 146.43 203.65 146.43 202.79 146.18 202.71 145.91 202.85 145.52 202.92 145.23 203.72 145.2 204.01 144.28 204.32 143.8 204.32 143.75 204.14 143.04 203.98 142.45 203.88 141.74 203.45 141.45 203.42 140.86 203.15 140.63 203.14 140.67 202.92 140.61 202.49 140.46 202.21 140.42 201.61 140.24 201.55 139.45 201.79 139.26 201.99 138.8 202.01 138.38 202.19 138.06 202.5 137.86 202.42 137.75 202.23 137.72 201.68 137.58 201.49 137.09 201.34 136.74 201.34 136.5 201.15 136.51 201.27 136.48 201.48 136.33 201.71 136.52 202.97 136.48 204.06 136.48 204.72 136.83 205.28 136.85 205.78 136.61 206.02 136.46 206.87 136.65 207.2 130.17 207.2 129.97 217.25 130.1 217.65 130.52 218.15 130.86 218.47 131.13 218.8 131.52 219.02 132.13 219.76 132.52 220.11 132.97 220.28 133.19 220.61 133.56 221.04 133.93 221.22 134.11 221.69 136.96 221.05 137.27 221.08 137.96 220.91 138.15 221.01 138.29 221.01 138.49 221.17 138.82 221.16 138.98 221.27 139.13 221.32 139.56 221.84 139.87 221.87 140.59 221.95 141.14 222.23 141.43 222.47 141.73 222.49 142.26 222.11 142.94 222.04 143.24 222.18 143.38 222.16 143.56 222.24 143.63 222.28 144.08 222.63 144.65 222.76 145.47 222.49 146.36 221.21 147.78 219.43 149.56 218.23 150.59 217.87 150.84 217.66 150.89 217.44 150.83 217.17 150.98 216.87 150.89 216.59 151.14 216.15 151.98 215.71 152.46 215.57 152.87 215.37 153.49 215.14 154.32 215.16 154.46 215.34 154.77 215.29 155.4 215.38 155.65 215.34 155.76 215.33 155.74 215.01 155.51 214.08 155.77 213.62 156.94 213.01 157.57 213.01 160.64 211.73 161.19 211.62 162.99 210.89 163.88 210.6 163.91 210.59 163.85 210.3 163.59 209.72 163.17 209.21 163.07 208.93 163.39 208.76 163.85 208.23 163.85 207.8 163.95 207.48 163.86 207.23 163.84 206.81 163.97 206.57 164.63 206.08 165.06 205.88 165.22 205.57 165.5 205.5 165.46 205.27 165.13 205.06 165.09 204.78 164.96 204.38 165.11 204.24 165.23 203.92 164.96 203.45 165.2 203.06 165.09 202.7 165.04 202.24 164.84 201.72 164.94 201.22 165.61 200.52 165.61 200.34 165.77 200.13 165.73 199.5 165.56 199.05 165.05 198.68 164.98 198.39 165.32 197.62 165.34 197.41 164.97 197.28 164.55 197.03 164.4 196.61 164.2 196.44 164.03 196 164.02 195.96 163.78 195.96 163.23 195.38 163.04 194.9 162.65 194.83 162.38 194.57 162.06 194.57 160.69 194.09 160.12 194.07 159.75 193.72 159.71 193.49 159.27 193.18 158.96 193.18 158.51 193.01 158.07 193.01 157.07 192.52 156.64 192.31 151.71 193.5"/><polygon class="cls-9" points="99.37 220.59 99.53 220.71 99.79 220.61 99.89 220.24 100.06 220.14 100.82 220.25 101.23 220.49 101.49 220.28 101.58 219.85 102.45 219.24 102.85 219.22 103.32 219.43 103.47 219.54 103.65 219.37 103.88 219.29 104.27 219.5 104.32 219.69 104.66 219.83 104.6 220.1 104.79 220.21 105.45 220.79 106.11 221.04 106.61 220.78 106.73 220.8 107.14 220.52 107.45 220.49 107.63 220.61 118.94 220.6 119.13 220.72 119.43 221.3 119.67 221.52 120.27 221.78 120.92 221.93 121.37 221.86 121.71 222 121.8 222.18 122.21 222.36 122.64 222.09 123.17 221.95 123.92 222.15 124.33 222.09 124.41 221.74 124.58 221.83 124.93 221.85 125.59 222.47 126.09 222.69 126.73 222.72 126.96 222.6 126.98 222.39 127.32 222.3 127.62 222.38 127.84 222.54 128.09 222.44 128.27 222.66 128.5 222.68 128.65 222.76 128.92 222.78 129.17 222.76 129.36 222.76 134.11 221.69 133.93 221.22 133.56 221.04 133.19 220.61 132.97 220.28 132.52 220.11 132.13 219.76 131.52 219.02 131.13 218.8 130.86 218.47 130.52 218.15 130.1 217.65 129.97 217.25 130.17 207.2 136.65 207.2 136.46 206.87 136.61 206.02 136.85 205.78 136.83 205.28 136.48 204.72 136.48 204.06 136.52 202.97 136.33 201.71 136.48 201.48 136.51 201.27 136.5 201.15 136.5 201.08 135.94 201.15 135.46 201.34 134.94 201.59 134.66 201.7 134.34 201.77 134.06 201.72 133.28 201.69 132.95 201.59 132.53 201.28 132.23 201.28 132.07 201.39 131.81 201.48 131.62 201.68 131.29 201.73 131.2 201.51 131.21 200.92 131.43 200.74 131.39 200.58 131.57 200.12 131.21 199.84 131.1 199.23 131.26 199.03 131.26 198.71 130.86 198.34 130.86 198.01 130.97 197.62 130.93 197.25 130.69 197.21 130.49 196.84 130.3 196.71 130.3 196.38 130.04 196.01 130.01 195.7 129.86 195.44 130.1 194.83 130.01 193.75 129.88 193.37 129.95 193.16 130.1 192.94 130.1 192.5 129.78 192.03 129.89 191.52 130.15 191.03 130.15 190.59 130.18 190.13 130.12 189.76 126.6 189.5 126.51 189.2 126.71 188.87 126.73 188.52 125.81 188.43 125.79 188.72 122.85 188.76 122.77 189.63 122.55 190.11 122.29 190.24 122.38 190.83 122.4 191.66 120.11 191.81 119.72 192.03 118.68 191.96 118.35 191.85 117.78 191.96 116.98 192 116.65 191.83 116.48 190.74 116.08 190.18 115.82 189.78 115.56 189.59 115.54 189.24 115.43 188.98 115.26 188.26 114.93 187.72 114.93 187.28 115.08 187 115.02 186.63 114.78 186.3 114.68 185.95 114.75 185.82 114.75 185.38 111.6 185.37 109.47 185.37 108.42 185.45 107.46 185.41 106.99 185.37 106.09 185.41 105.4 185.43 104.79 185.43 104.37 185.39 103.92 185.34 103.44 185.45 102.91 185.6 102.72 185.69 102.48 185.69 102.39 185.84 102.33 185.86 102.27 185.86 101.4 186.34 101.72 186.73 101.72 187.17 103.39 189.04 103.45 191.39 104.37 192.68 104.23 193.86 103.27 195.1 103.82 195.37 103.82 196.47 104.28 197.2 104.28 197.98 105.42 199.86 105.37 200.36 105.74 200.82 105.74 203.47 104.55 205.72 104.18 205.72 102.86 206.72 102.81 207.45 101.16 208.92 101.12 209.92 100.84 210.16 100.84 212.58 100.11 213.54 99.93 214.69 99.1 215.69 99.1 216.79 98.97 217.75 99.01 219.22 98.88 220.17 98.89 220.48 98.9 220.48 99.37 220.59"/><polygon class="cls-4" points="155.4 215.38 154.77 215.29 154.46 215.34 154.32 215.16 153.49 215.14 152.87 215.37 152.46 215.57 151.98 215.71 151.14 216.15 150.89 216.59 150.98 216.87 150.83 217.17 150.89 217.44 150.84 217.66 150.59 217.87 149.56 218.23 147.78 219.43 146.36 221.21 145.47 222.49 144.65 222.76 144.08 222.63 143.63 222.28 143.56 222.24 143.38 222.16 143.24 222.18 142.94 222.04 142.26 222.11 141.73 222.49 141.43 222.47 141.14 222.23 140.59 221.95 139.87 221.87 139.56 221.84 139.58 221.84 139.7 222.14 139.62 222.4 139.69 222.62 139.71 222.94 140.14 223.28 140.35 223.51 140.74 223.76 140.98 224.1 141.06 224.4 141.22 224.51 141.51 225.02 141.64 225.54 141.93 225.84 142.07 226.27 142.41 226.55 142.55 226.53 142.79 226.95 143.65 228.27 144.24 228.63 144.76 229.02 145.06 229.3 145.46 229.54 145.47 229.7 145.44 229.9 145.56 230.19 146.08 230.4 146.56 230.75 146.41 231.14 146.54 231.84 146.58 232.32 146.78 232.82 147.34 233.25 147.65 233.75 148.32 233.88 148.67 233.75 149.45 234.01 149.87 234.04 150.43 234.41 150.82 234.43 151.11 234.67 151.11 234.99 151.33 235.26 151.58 235.56 152.59 235.41 153.29 235.53 153.5 235.94 153.97 235.9 154.61 236.21 154.82 236.41 155.25 236.23 156.08 236.11 157.1 236.32 157.58 236.72 160.92 233.41 160.97 232.38 161.12 232.03 161.14 231.12 161.36 230.75 161.19 230.25 161.27 229.84 161.69 229.79 161.88 229.44 162.47 228.99 162.86 228.44 162.71 228.01 162.36 227.72 162.36 227.14 162.71 226.92 162.56 226.42 162.06 225.98 162.06 225.61 162.43 225.48 162.49 224.87 162.49 224.35 162.95 224.02 163.17 223.57 162.67 223.65 162.43 223.37 162.75 222.85 162.82 221.93 163.06 221.5 163.08 221.13 163.01 220.76 163.1 220.32 163.01 219.89 163.3 219.43 163.25 218.91 162.58 218.86 162.25 218.47 161.71 218.04 160.77 217.93 160.23 217.86 159.71 217.14 158.86 216.69 158.03 216.47 157.83 216.77 157.49 216.84 157.33 216.54 156.9 216.45 155.83 216.4 155.76 215.33 155.65 215.34 155.4 215.38"/><polygon class="cls-9" points="151.11 234.99 151.11 234.67 150.82 234.43 150.43 234.41 149.87 234.04 149.45 234.01 148.67 233.75 148.32 233.88 147.65 233.75 147.34 233.25 146.78 232.82 146.58 232.32 146.54 231.84 146.41 231.14 146.56 230.75 146.08 230.4 145.56 230.19 145.44 229.9 145.47 229.7 145.46 229.54 145.06 229.3 144.76 229.02 144.24 228.63 143.65 228.27 142.79 226.95 142.55 226.53 142.41 226.55 142.07 226.27 141.93 225.84 141.64 225.54 141.51 225.02 141.22 224.51 141.06 224.4 140.98 224.1 140.74 223.76 140.35 223.51 140.14 223.28 139.71 222.94 139.69 222.62 139.62 222.4 139.7 222.14 139.58 221.84 139.56 221.84 139.56 221.85 138.93 222.02 137.96 222.37 137.58 222.63 137.2 222.58 137.04 222.34 136.39 222.42 135.79 223.04 135.21 223.77 134.22 224.47 133.97 224.41 134.02 224 134.19 223.78 133.97 223.56 133.8 223.14 133.62 223.02 133.49 223.08 133.08 223.13 132.19 223.39 129.28 224.07 127.01 223.97 126.47 234.82 123.8 234.88 123.26 244.4 123.25 244.47 123.27 244.5 123.27 244.46 124.27 245.2 124.57 246.03 125.36 247.73 125.34 248.56 124.9 249.52 124.88 250.1 125.68 249.99 126.49 250.14 126.97 249.93 127.69 250.04 128.16 249.71 128.8 249.56 129.38 249.1 129.6 248.73 130.6 248.34 131.15 247.75 131.63 246.55 132.43 245.83 133.17 245.75 134.19 245.9 134.5 246.29 134.85 246.31 135.96 246.94 136.44 246.86 136.96 247.03 137.59 246.88 138.31 246.88 138.79 246.81 139.03 247.12 139.4 247.27 140.07 246.84 139.9 246.6 140.07 246.05 140.07 245.68 140.35 245.38 140.31 244.57 140.57 244.07 141.2 243.96 141.62 243.68 142.03 243.63 142.21 243.36 142.41 243.22 142.56 242.82 142.99 242.47 143.31 242.38 143.51 242.13 143.92 242.04 143.92 241.57 143.77 241.33 143.86 240.59 144.67 239.5 145.1 239.3 145.41 239.22 145.64 238.93 146.08 238.78 146.21 238.5 146.58 238.28 146.88 237.98 147.54 237.43 148.15 237.32 148.34 237.45 148.63 237.39 149.13 237.37 149.54 236.97 149.98 236.89 150.15 236.42 150.08 236.12 150.4 235.85 150.93 235.83 151.21 235.61 151.58 235.56 151.33 235.26 151.11 234.99"/><polygon class="cls-7" points="113.17 255.67 113.17 255.3 112.97 255.13 113.28 254.59 114.02 254.3 114.36 254.93 114.95 254.95 114.69 255.61 115.13 256.5 116.15 256.72 116.8 257.07 117.28 256.96 117.61 257.09 118.13 257.17 118.37 256.94 118.83 256.94 119.04 257.35 119.48 257.28 119.85 257.37 119.87 256.74 120.13 256.48 120.5 256.35 120.79 255.76 121.59 255.35 122.55 255.41 122.85 255.41 123.27 244.5 123.25 244.47 123.26 244.4 123.8 234.88 126.47 234.82 127.01 223.97 129.28 224.07 132.19 223.39 133.08 223.13 133.49 223.08 133.62 223.02 133.8 223.14 133.97 223.56 134.19 223.78 134.02 224 133.97 224.41 134.22 224.47 135.21 223.77 135.79 223.04 136.39 222.42 137.04 222.34 137.2 222.58 137.58 222.63 137.96 222.37 138.93 222.02 139.56 221.85 139.13 221.32 138.98 221.27 138.82 221.16 138.49 221.17 138.29 221.01 138.15 221.01 137.96 220.91 137.27 221.08 136.96 221.05 134.11 221.69 129.36 222.76 129.17 222.76 128.92 222.78 128.65 222.76 128.5 222.68 128.27 222.66 128.09 222.44 127.84 222.54 127.62 222.38 127.32 222.3 126.98 222.39 126.96 222.6 126.73 222.72 126.09 222.69 125.59 222.47 124.93 221.85 124.58 221.83 124.41 221.74 124.33 222.09 123.92 222.15 123.17 221.95 122.64 222.09 122.21 222.36 121.8 222.18 121.71 222 121.37 221.86 120.92 221.93 120.27 221.78 119.67 221.52 119.43 221.3 119.13 220.72 118.94 220.6 107.63 220.61 107.45 220.49 107.14 220.52 106.73 220.8 106.61 220.78 106.11 221.04 105.45 220.79 104.79 220.21 104.6 220.1 104.66 219.83 104.32 219.69 104.27 219.5 103.88 219.29 103.65 219.37 103.47 219.54 103.32 219.43 102.85 219.22 102.45 219.24 101.58 219.85 101.49 220.28 101.23 220.49 100.82 220.25 100.06 220.14 99.89 220.24 99.79 220.61 99.53 220.71 99.37 220.59 98.9 220.48 98.89 220.48 99.06 223.06 100.84 224.89 101.81 226.54 103.3 229.89 103.53 231.24 105.04 233.39 105.04 234.23 106.64 236.54 106.64 237.8 106.25 237.96 106.68 239.51 106.77 241.84 107.66 244.22 107.57 245.5 107.85 246.37 107.41 246.64 107.78 247.1 108 248.68 108.41 248.9 108.68 249.43 108.36 249.68 108.36 250.3 108.84 250.82 108.9 251.99 109.45 252.74 110.18 254.18 110.91 254.91 111.07 255.32 112.1 256.06 112.54 255.8 113.17 255.67"/><polygon class="cls-9" points="210.73 208.36 210.87 208.19 210.74 207.94 210.66 208.11 210.73 208.36"/><polygon class="cls-9" points="214.02 218.97 213.85 219.26 213.81 219.66 213.82 220.06 214.08 219.48 214.28 219.13 214.44 218.61 214.2 218.96 214.02 218.97"/><polygon class="cls-9" points="215.23 213.27 215.08 212.73 215.25 212.45 215.25 211.8 215.06 210.97 215.2 210.65 215.27 209.1 214.81 208.51 214.75 207.17 214.53 206.7 214.29 206.79 213.76 206.12 213.69 205.52 213.17 205.29 213.47 204.67 213.26 204.07 212.49 204.78 212.68 205.18 212.16 205.54 211.64 205.19 211.31 205.21 211.8 205.87 211.81 206.26 212.18 206.63 212.18 206.81 211.58 207.37 211.58 208.27 211.21 208.86 210.81 208.73 210.3 209.3 210.23 209.8 209.84 210.08 209.51 209.88 209.45 209.23 209.18 209.09 208.79 209.47 208.74 210.19 209.34 210.79 209.49 211.05 209.26 211.27 208.96 211.18 208.28 211.3 208.43 211.88 209.02 212.05 209.1 212.42 208.84 212.74 208.56 212.41 208.1 212.58 208 212.93 207.17 213.64 207.15 212.98 207.29 212.79 207.08 212.43 206.52 212.96 206.87 213.16 206.75 213.42 206.04 213.83 206.31 214.4 206.71 214.53 206.68 214.82 206.3 214.92 205.81 215.26 205.74 214.87 205.46 214.81 205.74 214.33 205.48 214.14 204.37 215.07 204.2 215.95 204.34 216.29 204.17 216.67 203.79 216.54 203.54 216.33 203.55 215.54 203.27 215.5 202.56 216.24 201.79 215.69 201.63 215.92 201.36 215.96 201.46 216.82 201.22 216.76 201.02 216.84 201 216.38 200.71 216.22 200.38 216.71 200.07 216.22 198.87 217.33 198.55 217.36 198.31 217.13 197.7 217.12 197.42 217.54 197.54 218.48 196.64 219.87 196.67 220.13 195.82 221.03 195.82 221.49 196.29 221.87 195.89 222.44 196.17 223.31 196.14 224.05 196.97 225.66 196.91 226.1 197.44 226.68 197.45 226.94 197.04 227.36 197.17 227.77 196.89 229.16 196.29 229.55 196.13 230.34 195.77 230.41 195.59 230.92 195.05 231.36 194.99 232.49 194.62 232.9 193.75 233.11 193.53 233.39 193.6 234.37 192.94 235.06 193.01 235.86 192.81 236.34 192.95 236.71 192.98 237.66 193.76 238.61 193.64 239.29 193.78 239.73 194.17 239.95 194.37 239.9 194.18 240.09 193.58 240.24 193.61 240.87 193.7 241.85 193.61 243.12 193.83 243.37 193.86 243.78 194.2 243.98 194.6 244.6 194.93 244.78 195.19 245.19 195.59 245.66 196.01 245.51 196.16 245.72 196.64 245.83 197.15 246.5 197.53 246.58 197.54 246.85 197.7 246.99 198.09 246.74 198.72 246.8 199.44 246.37 200.02 245.69 201.91 245.51 202.5 245.65 203.49 245.26 203.76 244.73 204.24 244.66 204.56 243.71 205.04 242.94 205.06 242.39 205.66 242.03 205.61 241.11 205.46 240.99 205.88 240.67 206.14 239.67 206.07 239.51 206.29 239.51 206.86 238.62 207.28 236.58 207.6 235.48 208.07 235.01 208.33 233.79 209.15 232.33 209.94 229.88 210.49 229.05 210.49 227.95 211.09 226.84 211.19 226.42 211.87 225.32 212.22 223.64 212.51 222.41 212.78 222.09 212.94 221.2 212.68 220.76 212.84 219.99 213.47 219.13 213.39 218.71 213.82 218.19 213.72 217.47 213.47 217.22 213.74 216.71 213.69 215.97 213.47 215.81 213.46 215.09 213.85 214.9 214.15 215.13 214.28 215.76 214.79 216.44 215.16 216.53 215.38 216.14 215.41 215.62 215.57 215.43 215.64 214.89 215.86 214.69 215.82 214.07 215.23 213.27"/><polygon class="cls-9" points="211.22 206.62 211.23 206.4 210.72 206.92 210.86 207.17 211.22 206.62"/><polygon class="cls-9" points="210.12 208.73 210.24 208.16 209.91 207.96 209.81 207.84 209.7 207.95 209.4 208.42 209.81 208.44 210.12 208.73"/><polygon class="cls-8" points="186.57 199.88 186 199.73 185.65 200.21 185.2 200.58 184.56 200.67 184.15 201.1 183.45 201.19 183.24 201.45 182.76 201.6 182.32 201.43 181.19 201.78 180.91 202.02 180.36 202.08 179.95 201.78 179.54 201.87 178.99 201.69 178.77 201.89 178.93 202.24 178.71 202.69 177.86 202.76 177.23 202.99 176.86 202.76 176.47 202.73 176.42 202.54 176.07 202.39 175.84 202.58 175.51 202.67 174.86 203.13 173.96 203.39 174.05 203.13 173.75 202.8 173.35 202.76 172.98 202.5 172.59 202.39 172.57 202.13 172.13 202.21 172 202.43 171.5 202.54 168.61 202.58 167.87 205.28 168.37 208.07 169.33 208.57 169.76 208.98 169.98 209.29 170.29 209.35 171.31 210.37 171.5 210.85 172.2 211.79 172.46 212.53 172.66 212.94 172.68 213.27 172.29 213.4 172.16 213.71 171.83 213.75 171.72 213.99 171.87 214.21 171.81 214.49 172.11 214.84 172.09 215.95 171.9 216.43 171.48 216.77 170.87 216.95 170.57 217.75 170.48 218.32 170.18 218.84 170.39 219.56 170.26 220.15 169.68 220.28 169.52 219.84 169.72 219.48 169.33 218.93 168.98 218.65 168.59 218.43 168.08 217.95 167.56 217.32 167.5 216.84 167.24 216.17 167.17 215.67 167.56 215.12 167.72 214.42 168.35 213.75 168.41 213.05 168.41 212.23 168.13 211.74 167.33 211.55 166.7 211.57 166.43 211.85 166.06 211.85 165.82 211.99 165.32 211.68 165.28 211.31 165.02 211.01 164.91 210.72 164.71 210.4 163.91 210.59 163.88 210.6 162.99 210.89 161.19 211.62 160.64 211.73 157.57 213.01 156.94 213.01 155.77 213.62 155.51 214.08 155.74 215.01 155.76 215.33 155.83 216.4 156.9 216.45 157.33 216.54 157.49 216.84 157.83 216.77 158.03 216.47 158.86 216.69 159.71 217.14 160.23 217.86 160.77 217.93 161.71 218.04 162.25 218.47 162.58 218.86 163.25 218.91 163.3 219.43 163.01 219.89 163.1 220.32 163.01 220.76 163.08 221.13 163.06 221.5 162.82 221.93 162.75 222.85 162.43 223.37 162.67 223.65 163.17 223.57 162.95 224.02 162.49 224.35 162.49 224.87 162.43 225.48 162.06 225.61 162.06 225.98 162.56 226.42 162.71 226.92 162.36 227.14 162.36 227.72 162.71 228.01 162.86 228.44 162.47 228.99 161.88 229.44 161.69 229.79 161.27 229.84 161.19 230.25 161.36 230.75 161.14 231.12 161.12 232.03 160.97 232.38 160.92 233.41 157.58 236.72 157.67 236.8 157.85 237.63 158.02 238.42 158.38 239.16 158.41 240.57 158.35 240.74 158.37 241.32 158.57 241.9 158.75 242.59 158.73 244.94 158.51 245.88 158.46 246.75 158.44 247.77 158.49 247.85 158.81 248.03 159.12 248.37 159.41 248.75 159.31 248.97 159.26 249.37 159.12 249.88 159.18 250.11 159.46 250.05 160.51 250.3 161.11 250.28 161.13 249.81 161.43 249.31 161.55 248.46 161.53 248.18 161.34 248.21 161.2 248.72 160.77 248.59 160.49 248.94 160.53 248.41 160.23 247.85 160.11 247.69 160.39 247.49 160.7 247.5 160.91 246.77 161.3 246.46 161.53 246.09 162.3 245.9 163.32 244.93 165.97 244.41 167.93 243.52 169.04 242.34 169.22 241.57 169.59 241 169.49 240.65 169.03 240.93 168.92 240.4 169.08 240.4 169.12 239.79 169.4 239.44 169.4 238.94 169.76 237.98 169.63 237.87 169.67 237.05 169.93 236.73 169.96 235.91 169.81 235.93 169.77 235.29 169.42 236.02 169.42 236.54 169.21 236.58 169.04 235.92 169.18 234.03 168.83 233.36 168.8 232.66 168.48 232.13 168.19 231.99 168.58 231.68 168.55 231.26 167.69 230.1 168.01 229.62 167.92 229.16 168.14 228.87 168.17 228.39 167.87 228.04 167.87 227.79 168.19 227.74 168.76 228.11 169.06 227.72 169.79 227.72 170.31 227.33 170.22 226.65 171.84 225.57 172.54 225.54 172.51 225.12 172.79 225.03 173.12 224.76 173.14 224.45 174.36 223.73 174.47 223.27 174.82 223.18 174.95 222.4 175.17 222.88 175.53 222.72 176.27 221.82 176.28 221.44 176.58 221.63 177.8 220.84 178.67 220.43 178.71 220.27 179.45 220.36 181.37 219.34 181.53 218.9 181.83 218.88 183.84 217.78 183.79 217.21 184.29 217.14 184.89 216.32 184.89 215.95 185.55 215.11 185.94 215.04 186.01 214.42 186.28 214.03 185.89 213.99 185.76 214.1 185.64 213.94 186.08 213.51 186.47 213.51 186.56 213.21 186.36 212.94 186.68 212.78 186.99 212.34 186.85 211.16 186.7 211.04 186.09 211.02 185.93 210.8 185.95 210.63 186.41 210.56 186.4 209.21 186.23 208.95 186.35 208.94 186.57 207.45 186.46 206.65 186.77 206.34 186.75 205.58 186.58 205.4 186.58 204.62 186.76 204.44 186.42 203.8 186.28 202.73 186.51 202.5 186.47 202.31 186.35 202.09 186.42 201.77 187.04 200.88 186.88 200.74 187.04 200.37 187.15 199.66 186.93 199.53 186.83 199.58 186.57 199.88"/><polygon class="cls-7" points="157.94 247.56 157.46 247.14 156.7 246.7 156.18 246.97 156.05 247.56 155.31 248.93 155.05 249.65 155.22 250.01 155.55 250.32 155.9 250.95 156.88 251.5 158.04 251.56 158.51 251.39 158.67 250.87 158.61 250.41 158.97 250.16 159.18 250.11 159.12 249.88 159.26 249.37 159.31 248.97 159.41 248.75 159.12 248.37 158.81 248.03 158.49 247.85 158.44 247.77 158.44 247.77 157.94 247.56"/><path class="cls-3" d="m159.46,250.05l-.28.06-.21.05-.36.25.05.46-.15.52-.47.17-1.16-.05-.98-.55-.35-.63-.33-.31-.17-.37.26-.72.74-1.37.13-.59.52-.26.76.44.48.41.5.22.02-1.02.04-.87.22-.93.03-2.35-.18-.69-.2-.58-.02-.58.06-.18-.02-1.41-.36-.74-.18-.79-.17-.83-.58-.48-1.01-.21-.83.12-.44.17-.21-.19-.64-.31-.47.03-.21-.4-.7-.12-1.01.15-.37.05-.28.22-.53.02-.32.28.07.29-.17.47-.44.09-.41.39-.5.02-.28.06-.2-.13-.61.11-.65.55-.31.3-.37.22-.13.29-.44.15-.24.28-.31.09-.44.2-.81,1.09-.09.74.15.24v.47s-.42.09-.42.09l-.2.25-.33.09-.42.35-.15.41-.2.14-.19.26-.41.06-.41.28-.63.11-.26.5.04.81-.28.31v.37l-.17.54.17.24-.67.43-.37-.15-.24-.31-.48.07h-.72l-.63.15-.52-.17-.48.08-1.11-.63-.35-.02-.31-.39-1.02-.15-.74.08-.8.72-.48,1.2-.54.59-1,.39-.22.37-.59.46-.63.15-.48.33-.72-.11-.48.22-.81-.15-.8.11.02-.57.44-.97.02-.83-.78-1.7-.31-.83-1-.74v.04s-.41,10.91-.41,10.91h-.31l-.96-.07-.8.41-.28.59-.37.13-.26.26-.02.63-.37-.09-.44.07-.22-.41h-.46l-.24.24-.52-.08-.33-.13-.48.11-.65-.35-1.02-.22-.44-.89.26-.65-.59-.02-.35-.63-.74.28-.31.54.2.18v.37l-.63.13-.44.26h.02s.16,1,.16,1l.98.71.64,1.85-.02.84.64,1.67.39,1.76.84,1.1.02.66.87,1.44-.06.46.33,1.01-.18.93-.35.39h-.27l-.3-.31-.32.3v.78l.45.78.54.48.54.97-.41.67.14.76-.21.51.03.62.39.29-.03-.56.5-.45.7.13.16.63-.25.2.28.13.43-.21.57.29.03.73.31-.18,1.5.71.29-.14.32.11.19-.43.55-.1.65-.74.73.16.15-.22.75-.04.89.32.47-.2.72-.05.18-.24.33-.27.38-.11.32.15.15-.5.48-.22h1.62s.71.39.71.39l.48-.17v-.22s.92-.18.92-.18l1.39.35.41.31,1.45.31.19-.19-.18-.38.42-.43.49.05.62.32,1.05-.02.04-.16-.45-.38.32-.55.76-.23.92-.03.33.25.68-.06.66-.41,1.16-.31v-.2l.73-.22.44-.49,2.07-1.33.51-.57v-.16s.38-.07.38-.07l3.15-3.11.14-.24h.31s.54-.65.54-.65l.56-.24.16-.84.97-.92,1.26-2.1.46-.89.57-.02.34-.64v-.3l.59-.69.37-.72.73-.47.29-.35.62-.29.18-.26h.26l.83-.98.14-.54.43-.52.3-1.16.45-.91.09-.94.37-1.1-.18-.07.37-.48v-.15s-.6.01-.6.01l-1.05-.25Zm-9.73,9.55l-.54.27.05.36.24.22-.14.48-.54.37-.36-.11-.52.1-.39.26-.53.15-.26.73-.21.25-.16.31-.55.02-.7-.28-.31-.44-.44-.37-.05-.6-.36-.41-.07-.31-.35-.35-.25-.58.41-.28.8-.62.28-.79.68-.59,1.11-.19.26-.29.38-.23.11-.24.42.02.29.21.17-.13.44.32.47-.13.66.5.48,1.17.03.73-.53.47Z"/><polygon class="cls-7" points="149.76 257.22 149.1 256.72 148.63 256.85 148.2 256.54 148.02 256.67 147.73 256.46 147.31 256.44 147.2 256.68 146.81 256.91 146.55 257.2 145.44 257.39 144.76 257.98 144.48 258.76 143.68 259.39 143.28 259.67 143.53 260.25 143.88 260.6 143.96 260.91 144.32 261.32 144.37 261.92 144.81 262.29 145.12 262.73 145.82 263.01 146.37 262.99 146.53 262.69 146.74 262.43 147 261.7 147.52 261.55 147.91 261.29 148.44 261.19 148.8 261.3 149.34 260.93 149.48 260.45 149.24 260.23 149.19 259.87 149.74 259.59 150.27 259.12 150.24 258.39 149.76 257.22"/></svg>