<?xml version="1.0" encoding="UTF-8"?>
<svg id="Calque_1" data-name="Calque 1" xmlns="http://www.w3.org/2000/svg" viewBox="0 0 200 128">
  <defs>
    <style>
      .cls-1 {
        fill: #d6d6d6;
      }

      .cls-1, .cls-2, .cls-3, .cls-4, .cls-5, .cls-6, .cls-7, .cls-8, .cls-9, .cls-10, .cls-11, .cls-12, .cls-13 {
        stroke-linecap: round;
        stroke-linejoin: round;
      }

      .cls-1, .cls-2, .cls-3, .cls-4, .cls-5, .cls-6, .cls-7, .cls-8, .cls-10, .cls-11, .cls-12, .cls-13 {
        stroke: #000;
      }

      .cls-2 {
        fill: #b2f0e9;
      }

      .cls-3 {
        fill: #f3d587;
      }

      .cls-4 {
        fill: #e9cb61;
      }

      .cls-5, .cls-8, .cls-12 {
        fill: #fff;
      }

      .cls-6, .cls-7, .cls-9, .cls-10, .cls-11, .cls-13 {
        fill: none;
      }

      .cls-7 {
        stroke-width: .6px;
      }

      .cls-8, .cls-10 {
        stroke-width: .86px;
      }

      .cls-9 {
        stroke: #fff;
        stroke-width: 8px;
      }

      .cls-11 {
        stroke-width: .9px;
      }

      .cls-12, .cls-13 {
        stroke-width: .45px;
      }
    </style>
  </defs>
  <path class="cls-1" d="m19.66,119.95c.08-.25.13-.51.13-.78,0-1.5-1.22-2.72-2.72-2.72-1.22,0-2.25.81-2.59,1.93-.43-.02-.87.05-1.29.25-1.36.64-1.94,2.26-1.3,3.62.64,1.36,2.26,1.94,3.62,1.3.04-.02.08-.05.12-.07.48.77,1.33,1.29,2.3,1.29,1.5,0,2.72-1.22,2.72-2.72,0-.84-.39-1.59-.99-2.09Z"/>
  <path class="cls-1" d="m141.17,110.79c-.12-.13-3.06-3.13-5.86-7.65-3.77-6.08-5.47-12.02-4.91-17.17.39-3.6,2.19-8.5,4.27-14.16,2.49-6.77,5.31-14.44,6.33-21.64,1.15-8.06-.21-13.98-4.15-18.09-3.73-3.9-7.78-5.87-12.04-5.87h0c-7.22,0-12.71,5.65-12.77,5.71l-1.91-1.83c.26-.27,6.34-6.52,14.68-6.52h0c5.01,0,9.7,2.25,13.95,6.69,4.54,4.74,6.13,11.38,4.86,20.3-1.06,7.47-3.93,15.28-6.47,22.18-2.02,5.5-3.77,10.26-4.12,13.53-1.19,11.1,9.92,22.56,10.03,22.68l-1.89,1.86Z"/>
  <rect class="cls-1" x="140.12" y="103.3" width="6.01" height="14.15" rx="2.21" ry="2.21" transform="translate(-36.13 133.55) rotate(-45)"/>
  <path class="cls-4" d="m82.69,62.73l-3.92,6.33s-.47-.83-.53-.83l-.23,1.03s-.45-.13-.95-.03c-.41.1-.49-1.12-.46-1.52.09-1.19.92-4.26,1.04-4.78l-.31-4.3v-.03c-.1-.73-.18-1.27-.18-1.27,0,0-.54-3.27-1.16-7.02l5.34-1.23c.12,4.93.21,10.18.26,11.43.35.63.55,1.4,1.09,2.22Z"/>
  <path class="cls-5" d="m81.34,49.08l-5.34,1.23c-.8-4.83-1.72-10.45-1.79-10.86l-6.84-8.41,5.16-5.5s8.12,13.24,8.41,14.01c.15.36.28,4.8.4,9.53Z"/>
  <path class="cls-5" d="m93.37,108.29s-.49,5.36-.17,7.11c.04.23.14.53.25.86.33.98-.58,3.98-.58,3.98l-12.22.05c-.67,0-.22-.42.32-.81.89-.63,1.6-1.05,4.42-2.37.18-.09.86-.5,1.1-.64.61-.36,1.23-.94,1.77-1.52.89-.96,1.02-5.69,1.02-5.69l4.09-.96Z"/>
  <path class="cls-3" d="m86.49,116.45c3.22.87,5.62.33,6.96-.19.33.98.94,4.69.57,4.69-3.07,0-5.65.18-14.43.04-.31,0-.28-1.09-.07-1.32.57-.66,6.73-3.08,6.97-3.22Z"/>
  <path class="cls-3" d="m108.7,44.6s-.17,7.66-2.37,12.56c-2.14,4.78-12.37,16.56-15.09,23.43.84,3.88,3.15,9.33,2.98,13.63-.19,4.87.09,17.76.09,17.76l-5.49.17-7.2-33.26,11.54-30.34,4.23-14.26,11.29,10.31Z"/>
  <path class="cls-5" d="m111.07,112.79s.25,4.36.25,4.37c.09.55.45,1.92.45,2.42,0,1.89-8.38-1.6-6.5-2.44.17-.08,1.32-1.08,1.38-1.72.09-.99.04-2.57.04-2.57l4.39-.06Z"/>
  <path class="cls-3" d="m105.28,117.12s1.97.58,2.98.72,2.34-1.07,3.05-.74c.78.36.82,3.92.82,3.92,0,0-10.49.34-13.59-.12-1.22-.18,2.73-2.43,6.75-3.78Z"/>
  <path class="cls-2" d="m63.55,26.76c-1.14-4.44,1.96-8.62,1.96-8.62,0,0,2.07-2.94,3.05-3.59,1.45-.95,3.79-3.11,9.26,1.84,3.91,3.54,20.79,13.31,29.51,23.6l-15.37,11.13s-13.47-10.03-15.22-11.22c-3.91-2.65-12.45-10.24-13.19-13.13Z"/>
  <path class="cls-3" d="m68.41,23.65c3.39,3.48,14.83,2.85,17.33,2.98,1.24.06,1.63,0,3.63-2.01,6.14,4.35,13.21,9.75,17.91,15.29,0,0,4.77,6.87,4.19,12.44-.58,5.57-2.67,28.9-2.67,28.9l2.67,31.66-5.7.13s-6.21-31.66-6.1-30.85c.12.81-7.76-31.17-7.76-31.17,0,0-13.55-9.68-15.3-10.86-3.79-2.57-11.87-10.13-13.02-13.22,0,0,1.83-1.67,2.4-4.39s0,0,0,0l2.42,1.09"/>
  <polygon class="cls-1" points="39.07 117.81 35.07 117.81 110.71 29.24 113.06 31.18 39.07 117.81"/>
  <path class="cls-4" d="m81.62,64.07c.38-.57,1.02-.82,1.48-.58.88.44,2.22,1.39,1.61,2.88-.88,2.15-4.77,5.12-5,4.4-.23-.72.17-5.32.96-5.69.45-.21.67-.6.95-1.02Z"/>
  <path class="cls-3" d="m107.46,39.48c-.27.15-.44.49-.65.73-.35.4-.81.5-1.23.24-.44-.26-.87-.59-1.16-1-.23-.31-.44-.6-.74-.82-.96-.65-.92-1.64-.86-2.62.06-.8.21-1.58.56-2.31.01-.03.01-.04.01-.06-.81-.63-1.5-1.17-1.5-1.17,0,0-2.63-2.84-5.39-5.84l3.35-3.62c2.26,3.13,4.56,6.2,6.04,7.67.1.08,1.98,1.55,2.35,1.84.65.51,2.26,2.47,2.44,2.88.36.81-2.76,3.83-3.21,4.1Z"/>
  <path class="cls-5" d="m99.85,23.01l-3.35,3.62c-2.98-3.2-6.13-6.55-6.43-6.78l-13.06.09-.26-7.27s15.49.41,16.22.77c.37.18,3.58,4.96,6.88,9.57Z"/>
  <path class="cls-1" d="m149.88,117.93c.94,0,1.79.51,2.23,1.34.19.37.29.76.29,1.18,0,1.39-1.13,2.52-2.52,2.52s-2.52-1.13-2.52-2.52c0-.47.13-.93.38-1.33.47-.74,1.27-1.19,2.14-1.19Z"/>
  <path class="cls-5" d="m169.71,105.29c-.09.1-.19.2-.28.29.09-.1.19-.2.28-.29Z"/>
  <path class="cls-5" d="m164.54,109.52s.02-.01.03-.02h0s-.02.01-.03.02Z"/>
  <path class="cls-5" d="m168.28,106.71c-.1.1-.21.19-.32.28.11-.09.22-.19.32-.28Z"/>
  <path class="cls-5" d="m167.51,107.38c-.11.09-.23.18-.34.27.11-.09.23-.18.34-.27Z"/>
  <path class="cls-5" d="m164.57,109.49c.13-.08.25-.15.38-.23-.12.08-.25.15-.38.23h0Z"/>
  <path class="cls-5" d="m166.7,108.04c-.12.09-.24.17-.36.26.12-.09.24-.17.36-.26Z"/>
  <path class="cls-5" d="m165.85,108.67c-.12.09-.25.17-.38.26.13-.09.26-.17.38-.26Z"/>
  <path class="cls-5" d="m172.1,102.32c-.08.11-.16.22-.24.33.08-.11.16-.22.24-.33Z"/>
  <path class="cls-1" d="m182.02,123.27c4.96,0,8.99-4.02,8.99-8.99,0-2.04-.68-3.92-1.83-5.43-1.64-2.16-4.24-3.56-7.16-3.56-3.2,0-6.01,1.67-7.61,4.19-.88,1.39-1.39,3.04-1.39,4.8,0,.36.02.7.06,1.04,0,0,0,.02,0,.02.52,4.47,4.33,7.92,8.93,7.92Z"/>
  <path class="cls-5" d="m168.71,106.3c.1-.1.21-.2.31-.29-.1.1-.2.2-.31.29Z"/>
  <path class="cls-5" d="m170.36,104.57c-.09.1-.18.2-.27.3.09-.1.18-.2.27-.3Z"/>
  <path class="cls-5" d="m170.98,103.83c-.08.1-.17.21-.26.31.09-.1.17-.21.26-.31Z"/>
  <path class="cls-5" d="m173.09,100.82c-.07.12-.15.23-.22.35.07-.12.15-.23.22-.35Z"/>
  <path class="cls-5" d="m172.61,101.57c-.07.11-.15.23-.23.34.08-.11.15-.22.23-.34Z"/>
  <path class="cls-5" d="m171.56,103.08c-.08.11-.16.21-.25.32.08-.1.17-.21.25-.32Z"/>
  <path class="cls-5" d="m172.39,101.91c-.09.14-.19.28-.28.42.1-.14.19-.28.28-.42Z"/>
  <path class="cls-5" d="m171.87,102.65c-.1.14-.2.28-.31.43.11-.14.21-.28.31-.43Z"/>
  <path class="cls-5" d="m170.72,104.14c-.12.14-.24.29-.36.43.12-.14.24-.29.36-.43Z"/>
  <path class="cls-5" d="m170.09,104.87c-.13.14-.25.29-.39.43.13-.14.26-.29.39-.43Z"/>
  <path class="cls-5" d="m172.87,101.16c-.09.14-.17.27-.26.4.09-.14.17-.27.26-.4Z"/>
  <path class="cls-5" d="m171.31,103.4c-.11.14-.22.29-.33.43.11-.14.22-.29.33-.43Z"/>
  <path class="cls-5" d="m169.02,106.01c.14-.14.27-.28.41-.42-.13.14-.27.28-.41.42Z"/>
  <path class="cls-5" d="m166.34,108.3c-.16.12-.33.24-.5.36.17-.12.33-.24.5-.36Z"/>
  <path class="cls-5" d="m165.47,108.92c-.17.12-.34.23-.52.34.18-.11.35-.23.52-.34Z"/>
  <path class="cls-5" d="m168.71,106.3c-.14.14-.28.27-.42.4.15-.13.28-.27.42-.4Z"/>
  <path class="cls-5" d="m167.96,106.99c-.15.13-.3.26-.45.39.15-.13.3-.26.45-.39Z"/>
  <path class="cls-5" d="m167.18,107.66c-.16.13-.31.26-.47.38.16-.13.32-.25.47-.38Z"/>
  <path class="cls-5" d="m174.44,119.52h.24s-.05-.1-.05-.1l-.14-.23c-.42-.72-.82-1.5-1.09-2.31-.03-.11-.07-.22-.09-.33-.08-.26-.13-.52-.16-.78-.03-.14-.05-.27-.05-.41,0,0,0-.02,0-.02-.04-.34-.06-.69-.06-1.04,0-1.76.51-3.41,1.39-4.8h-.16s-9.67,0-9.67,0h-1.79s-9.36,0-9.36,0c-.34,0-.67,0-1.02,0h-3.92c-.83,1.13-1.44,2.11-1.83,2.83-.05.07-.09.16-.12.22-.05.08-.07.15-.11.22-.27.5-.41.83-.44.9v.02s-.66,3.4-.66,3.4c0,.02,0,.05.02.06.27,1.03.99,1.72,2.15,2.05l.16.05.09-.14c.12-.19.26-.36.41-.5.15-.15.32-.27.51-.37,0,0,0,0,0,0,.37-.21.78-.32,1.22-.32.35,0,.69.07,1,.21.51.23.95.62,1.22,1.14l.07.12,22.27.12Z"/>
  <path class="cls-5" d="m155.17,109.41l9.78-.14c.18-.11.34-.23.51-.34h0s.05-.03.07-.05c.1-.06.2-.12.3-.2.09-.05.17-.12.25-.18.09-.06.16-.12.25-.18.05-.05.12-.09.18-.13s.12-.09.17-.13c.09-.06.16-.12.24-.19.08-.07.16-.13.23-.2.05-.05.12-.09.17-.13.05-.05.12-.09.17-.14.15-.12.3-.27.45-.39.11-.11.21-.2.31-.29h0c.08-.07.14-.13.21-.2.07-.07.14-.13.21-.2.05-.05.1-.1.16-.14.05-.05.1-.1.15-.16.14-.13.27-.27.41-.41l.29-.3c.13-.14.26-.28.38-.43.09-.1.19-.2.27-.3.12-.14.23-.29.36-.44.09-.1.17-.2.26-.3.11-.15.23-.28.33-.43.08-.1.17-.21.25-.32.11-.14.2-.29.31-.42.08-.12.16-.22.23-.34.09-.13.19-.27.28-.41.04-.05.08-.11.12-.16.04-.05.07-.12.11-.17.09-.14.18-.27.26-.41.08-.12.16-.23.23-.35.07-.12.15-.25.23-.38.07-.12.15-.25.22-.37.06-.11.12-.22.2-.34.07-.14.15-.27.22-.41.03-.05.06-.1.09-.16.03-.05.05-.11.09-.16.07-.13.14-.27.21-.41l.15-.29c.07-.15.15-.29.21-.43.04-.08.07-.16.11-.24.08-.16.15-.32.22-.47.02-.06.05-.12.09-.19.07-.17.14-.34.22-.5.02-.05.03-.09.05-.13.04-.09.08-.18.12-.27.04-.09.08-.18.11-.27l.05-.14.1-.25h0s-.41.08-.41.08l-.12.02c-1.9.4-3.24.8-3.25.8-.23.03-.47.07-.71.1l-.15.37c-1.85,4.61-6.23,11.69-15.95,12.62Z"/>
  <path class="cls-5" d="m149.54,109.49l1.81-.02c-.61-.05-1.24-.1-1.9-.19h-.09c-.17-.03-.35-.05-.53-.08l-.12-.02c-.08.1-.15.2-.21.29-.02,0-.02.02-.02.02h0s0,.02,0,.02l1.03-.02h.03Z"/>
  <path class="cls-5" d="m151.98,109.49c.14,0,.28.02.42.02h1.02c.15,0,.3,0,.44-.02h.12c.4-.02.8-.05,1.18-.09l-3.82.06c.2,0,.4.02.59.02h.04Z"/>
  <path class="cls-5" d="m149.3,108.09c3.59-4.32,10.21-9.78,21.44-11.6.05,0,.09-.02.13-.02.13-.02.26-.04.39-.06l-.15.37c-2.17,5.44-7.88,14.29-21.66,12.5h-.08c-.17-.03-.35-.06-.53-.08l-.12-.02"/>
  <path class="cls-5" d="m148.48,109.51s0,0,0-.02h0s0,.02,0,.02Z"/>
  <path class="cls-5" d="m164.76,109.38c-.05.03-.12.07-.17.11h9.82c1.6-2.52,4.41-4.2,7.61-4.2,2.93,0,5.52,1.4,7.16,3.57v-9.7c-.07-1.3-.59-2.33-1.54-3.07-2.58-1.97-7.8-1.49-11.87-.69l-.11.25-.05.14c-.03.09-.07.18-.11.27-.04.09-.07.18-.11.27-.02.04-.04.09-.05.13-.08.16-.15.33-.22.5-.03.06-.06.12-.09.19-.07.15-.14.3-.22.47-.04.08-.07.16-.11.24-.06.14-.14.28-.21.43l-.15.29c-.07.14-.14.27-.22.41-.03.05-.05.11-.08.16-.02.05-.05.11-.08.16-.08.13-.16.27-.23.41-.07.12-.13.23-.2.34-.07.12-.15.26-.22.37-.08.13-.16.26-.23.38-.07.12-.15.23-.23.35-.08.13-.16.27-.25.41-.04.05-.09.12-.12.17-.04.05-.08.11-.12.16-.09.14-.19.28-.28.41-.08.12-.16.22-.23.34-.11.13-.2.28-.31.42-.08.11-.17.22-.25.32-.1.15-.22.28-.33.43-.09.1-.17.2-.26.3-.12.15-.23.3-.36.44-.09.1-.19.2-.27.3-.12.15-.25.29-.38.43l-.29.3c-.13.14-.27.28-.41.41-.05.05-.1.1-.15.16-.05.05-.11.1-.16.15-.07.06-.14.12-.21.2-.07.07-.13.13-.21.2h0c-.1.11-.21.19-.31.29-.16.12-.3.27-.45.39-.05.05-.12.09-.17.14s-.12.09-.17.14c-.08.06-.16.12-.23.19-.08.06-.16.12-.24.19-.05.05-.11.09-.17.13s-.12.09-.19.12c-.08.06-.16.12-.24.19-.08.06-.16.12-.25.18-.1.08-.2.14-.3.2-.02.02-.05.04-.07.05h0c-.18.12-.34.23-.51.35-.06.03-.12.07-.19.11Z"/>
  <path class="cls-5" d="m162.79,109.5h1.79s0,0,.02,0h-10.6s8.8,0,8.8,0Z"/>
  <path class="cls-5" d="m145.34,117.16s0-.04-.02-.06l.65-3.4v-.02c.04-.08.18-.41.44-.9.04-.07.06-.14.11-.22.03-.06.08-.15.12-.22.4-.73,1-1.7,1.83-2.83v-.02h.02s0-.02.02-.02c.14-.23.71-1.28.79-1.38,0,0-1.83-.26-3.68.23-.83.22-1.65.59-2.31,1.2l-1.34,2.64s0,.02,0,.08l-.02.22c-.02.09-.02.2-.03.33-.04.75,0,2.03.59,2.99.08.12.16.24.25.34.05.06.1.12.16.17l2.44.88Z"/>
  <path class="cls-5" d="m146.41,112.78c-.27.5-.41.83-.44.9l2.5-4.17c-.83,1.13-1.44,2.11-1.83,2.83-.05.07-.09.16-.12.22-.05.08-.07.15-.11.22Z"/>
  <path class="cls-5" d="m145.34,117.16l.63-3.46-.65,3.4s0,.05.02.06Z"/>
  <path class="cls-5" d="m34.82,116.65l1.26,1.83c.39-.24.84-.38,1.33-.38.33,0,.65.07.94.18l4.56-5.52-3.34-1.54-4.76,5.43Z"/>
  <path class="cls-5" d="m34.84,120.6c0-.89.47-1.68,1.18-2.12l-1.26-1.83s-10.13,1.83-10.27,4.96v1.34h11.37l.1-.26c-.67-.45-1.11-1.21-1.11-2.08Z"/>
  <path class="cls-1" d="m36.08,118.48c-.7.44-1.18,1.23-1.18,2.12s.44,1.63,1.11,2.08c.4.27.88.43,1.4.43,1.39,0,2.51-1.12,2.51-2.5,0-1.05-.65-1.95-1.56-2.32-.29-.12-.61-.18-.94-.18-.49,0-.94.14-1.33.38Z"/>
  <line class="cls-6" x1="96.5" y1="26.63" x2="96.48" y2="26.64"/>
  <path class="cls-10" d="m47.71,18.44s-1.77.72-3.18-1.15c-1.7-2.26-.03-4.12-.03-4.12-.68-2.5,2.42-7.67,8.31-9.58,5.89-1.91,8.04,4.59,7.7,6.51"/>
  <path class="cls-10" d="m66.07,17.24c-1.38-1.65-3.01-5.65-3.52-7.82-.58-2.48-3.17-3.67-3.17-3.67"/>
  <path class="cls-8" d="m64.94,15.5c-1.36-.66-5.12-1.56-5.12-1.56.28-1.31-1.31-2.69-2.44-2.41-1.14.28-1.18,1.6-1.66,2.74-.52,1.24-3.13,1.13-3.97,1.04-.85-.08-5.58-1.2-5.58-1.2.02.97.18,2.7,1.61,4.27.17.2.36.38.57.57,1.95,1.7,1.38,3.93,1.84,4.32.46.38,1.33-.31,3.23,1.08,1.92,1.4,2.91,2.69,4.52,1.1,1.52-1.5,2.69-3.59,2.82-4.17,0,.35,1.96,1.69,2.78,5.47,0,0,1.42-.39,2.73-5.15"/>
  <path d="m50.48,19.43c-.33-.32-.41-.76-.19-.99.22-.23.66-.16.99.16.32.31.41.75.2.98-.22.23-.67.16-.99-.15Z"/>
  <path class="cls-13" d="m48.66,17.91s.63-1.42,2.31-.87"/>
  <path class="cls-7" d="m57.93,13.16s-.37.82.06,1.63"/>
  <path class="cls-13" d="m55.92,23.38c-.35.61-1.16.41-2.11.2,0,0,1.02-1.3,1.56-2.5.28-.62.93,1.62.54,2.3Z"/>
  <path class="cls-11" d="m59.79,13.14s.35,1.37-.68,2.62"/>
  <path class="cls-2" d="m84.55,10.92s.4,2.63.45,4.42c.03,1.2.01,6.51.01,6.51,0,0-8.66,1.98-12.06,2.11-12.48.48-7.97-8.18-6.67-9.69,2.91-3.38,18.28-3.34,18.28-3.34Z"/>
  <rect class="cls-12" x="73.1" y="29.8" width="5.81" height="3.25" transform="translate(3.26 69.81) rotate(-50.28)"/>
  <rect class="cls-9" x="-185.65" y="-308.58" width="2179.47" height="547.09"/>
</svg>