<?xml version="1.0" encoding="UTF-8"?>
<svg id="Calque_1" data-name="Calque 1" xmlns="http://www.w3.org/2000/svg" viewBox="0 0 128 128">
  <defs>
    <style>
      .cls-1, .cls-2, .cls-3, .cls-4, .cls-5, .cls-6, .cls-7, .cls-8, .cls-9, .cls-10 {
        stroke: #000;
      }

      .cls-1, .cls-2, .cls-3, .cls-4, .cls-5, .cls-6, .cls-11, .cls-10 {
        stroke-linecap: round;
        stroke-linejoin: round;
      }

      .cls-1, .cls-12 {
        fill: #76ac75;
      }

      .cls-2, .cls-13 {
        fill: #d6d6d6;
      }

      .cls-3 {
        fill: #87ccf3;
      }

      .cls-4, .cls-7 {
        fill: #baa584;
      }

      .cls-5, .cls-14, .cls-10 {
        fill: #fff;
      }

      .cls-6, .cls-11 {
        fill: none;
      }

      .cls-15 {
        fill: #00589f;
      }

      .cls-16 {
        fill: #c1c8d0;
      }

      .cls-17 {
        fill: #87f3b9;
      }

      .cls-7 {
        stroke-width: .5px;
      }

      .cls-7, .cls-8, .cls-9 {
        stroke-miterlimit: 10;
      }

      .cls-8 {
        fill: #f3d587;
      }

      .cls-9 {
        fill: #b4eac3;
      }

      .cls-11 {
        stroke: #fff;
        stroke-width: 8px;
      }

      .cls-10 {
        stroke-width: .75px;
      }
    </style>
  </defs>
  <g>
    <path class="cls-5" d="m80.66,118.59l.93-.68.69-5.97s5.28.84,5.28.92-.54,5.59-.54,5.59l.38,1.53-3.9.31-2.22-.54-.62-1.15Z"/>
    <polygon class="cls-5" points="107.38 120.08 107.62 114.3 101.55 114.22 102.68 119.83 104.66 121.7 107.38 120.08"/>
    <path class="cls-4" d="m100.46,123.91c.16-.49,1.78-3.37,2.17-4.09.79.34,1.57.53,2.44.53.79,0,1.68-.08,2.31-.56.41.57.9,1.35,1.27,1.98.34.57.81,1.17,1.06,1.81.24.65.14,1.39-.38,1.82-1.71,1.41-6.5,1.76-8.56.19-.62-.47-.41-1.36-.31-1.69Z"/>
    <path class="cls-4" d="m74.17,123.84c.98.17,2.03.09,3.03.09,2.84,0,5.68-.14,8.52-.27.45-.02.92-.05,1.33-.23.32-.15.61-.39.8-.69.12-.18.2-.39.23-.61,0-.08.01-.15,0-.23-.02-.3-.13-.6-.24-.88-.2-.52-.3-.9-.5-1.42-2.26,0-4.5-.42-6.68-1.02-.22.11-.44.22-.65.33l-3.77,1.9c-.51.26-1.02.51-1.53.77-.12.06-.24.12-.37.18-.36.18-.87.3-1.14.63-.06.08-.11.16-.14.27-.22.75.49,1.07,1.11,1.17Z"/>
    <path class="cls-3" d="m81.2,115.07s1.92.78,4.21,1.11c2.28.32,2.45.04,2.45.04l4.16-27.49s1.17-3.02,2.73-7.1c.12-.32.25-.64.37-.98.54-1.39,1.11-2.88,1.69-4.39-.06,4.45-.11,8.86-.16,13.12l4.68,28.14c1.82.65,1.95.62,3.91.62,1.81,0,1.8-.04,3.44-.69-.74-9.79-2.05-27.82-2.05-27.82,0,0,4.11-19.03,3.12-28.9-.48-4.76-2.6-8.65-4.06-11.25-.92.77-2.45,1.4-3.59,1.68-1.89.47-2.66.54-4.56.47-.3-.03-.61-.05-.88-.08-2.75-.31-4.51-.62-4.51-.62,0,0-3.82,8.47-5.36,13.55-1.53,5.05-3.98,24.72-3.98,24.72l-1.61,25.87Z"/>
    <path class="cls-5" d="m93.62,25.14c.27.12.55.21.83.28,2.35.56,5.02-.44,5.93-.82l-.28-3.99-.03-.45-6.17-1.19-.16,1.28-.52,4.34c.03.08.05.17.08.24.02.05.03.1.05.14.01.02.01.04.02.06h.01l.24.11Z"/>
    <g>
      <path class="cls-10" d="m78.04,64.83c-.02.19-.02.39-.01.58,0,.52.04,1.04.04,1.56,0,.23,0,.45-.07.67s-.2.42-.4.52-.48.07-.62-.11c-.12-.15-.12-.37-.12-.57,0-.26.02-.52.03-.78.01-.35.02-.7.05-1.05.06-.71.2-1.45.64-2.01.14-.18.81-.63.81-.12,0,.2-.16.42-.22.61-.07.23-.12.46-.14.7Z"/>
      <path class="cls-10" d="m77.63,65.16c-.02.19-.02.39-.01.58,0,.52.04,1.04.04,1.56,0,.23,0,.45-.07.67s-.2.42-.4.52-.48.07-.62-.11c-.12-.15-.12-.37-.12-.57,0-.26.02-.52.03-.78.01-.35.02-.7.05-1.05.06-.71.2-1.45.64-2.01.14-.18.81-.63.81-.12,0,.2-.16.42-.22.61-.07.23-.12.46-.14.7Z"/>
      <path class="cls-10" d="m82.73,57.98c-.06-.3-.97-.53-1.38-1.11-1.28.75-3.44,4.85-3.97,5.93-.36.73-.73,1.49-.89,2.29-.17.85-.19,1.72-.24,2.58,0,.14-.01.27.03.4.08.23.38.38.59.22.46-.34.49-1.06.53-1.59.04-.49.05-.98.17-1.46.12-.47.37-.85.68-1.21.23-.26.44-.53.67-.79.09-.1.18-.2.28-.28.14-.12.29-.21.47-.23.15-.02.38,0,.49.12.12.12.06.31.03.46-.04.17-.11.34-.19.49-.13.27-.3.54-.35.84,0,.05-.02.1-.02.15-.02.56.53,1.23,1.01.62.1-.13.17-.28.24-.43.34-.71.82-1.36,1.02-2.13.13-.49.2-.99.28-1.49.28-1.88.7-2.52.52-3.4Z"/>
      <path class="cls-10" d="m79.21,62.96c.07-.1.14-.19.22-.28.14-.16.3-.31.5-.38.2-.07.44-.04.58.12.12.13.13.33.11.5-.06.43-.35.79-.6,1.14-.13.18-.26.37-.34.58.05-.3.21-.57.35-.84.08-.16.15-.32.19-.49.03-.15.1-.34-.03-.46-.11-.11-.34-.14-.49-.12-.18.03-.33.12-.47.23Z"/>
    </g>
    <path class="cls-6" d="m97.86,3.06s0,1.15.42,1.93h.01"/>
    <path class="cls-6" d="m100.09,5.48c.91-.53,1.53-1.86,1.53-1.86"/>
    <path class="cls-6" d="m102.97,16.04h.01c.11-.02.85-.22,1.29-1.4.48-1.27,1.02-1.13,1.07-2.44.03-1.24-1.25-.7-1.4-.63"/>
    <path class="cls-6" d="m92.44,4.7s.89.53,1.88.71"/>
    <path class="cls-5" d="m101.98,6.04c-.57.03-1.23-.11-1.88-.56-.27.17-.56.25-.87.21-.44-.04-.73-.34-.93-.7-.01,0-.02.02-.03.02-.12.12-.91.81-1.88-.14-.51.61-1.31.67-2.05.53-.45.34-1.05.31-1.05.31-.04.05-.08.11-.11.16-1.82,2.57-2,4.32-2.01,4.5-.11-.46-.19-.89-.25-1.31.1.77.24,1.33.28,1.45h0s0,.03,0,.03h-.01c-.03.73-.03,2.61.26,4.56.25,1.62.74,3.29,1.63,4.37,2.06,2.5,3.39,2.56,3.59,2.54.21.05,1.61.26,4.04-1.91,1.04-.92,1.78-2.5,2.28-4.06.6-1.88.88-3.74.96-4.47h-.01c.02-.08.02-.17.02-.26-.03.07-.05.11-.05.11.02-.3.03-.61.02-.9-.2-1.51-1.58-4.02-1.74-4.45l-.2-.04Z"/>
    <path class="cls-6" d="m103.92,10.53c.04.29.05.55.03.79"/>
    <path class="cls-6" d="m103.93,11.57s0-.01.01-.02h0c.06-.15.39-.89.62-1.9v-.03c.45-2.02.47-5.06-2.88-6.42,0,0-.21-1.1-1.62-.93,0,0-1.64-1.79-3.62-.32-1.37-.39-1.75.67-1.75.67-3.79.89-4.03,4.3-3.81,6.34,0,.04.02.07.01.11"/>
    <path class="cls-6" d="m93.13,6.08s-1.95,2.83-1.95,4.47"/>
    <path class="cls-6" d="m103.98,11.26h0s0,.14-.03.28h0s0,.03,0,.03"/>
    <path class="cls-6" d="m91.17,10.54v-.02"/>
    <path class="cls-6" d="m91.18,10.23s0,.1-.01.28"/>
    <path class="cls-6" d="m91.44,15.11h-.01c-.1-.04-.81-.35-1.06-1.58-.27-1.33-.83-1.27-.68-2.58.16-1.23,1.35-.5,1.48-.41"/>
    <path class="cls-6" d="m95.57,3.76c.25.46.49.8.73,1.04.03.03.05.07.08.08"/>
    <path class="cls-6" d="m98.26,5.01l.02-.02"/>
    <path class="cls-5" d="m96.94,10.38s-.44,3.92-1.29,5.88c0,0,.17.4,1.44.15"/>
    <ellipse class="cls-5" cx="99.57" cy="12.26" rx=".39" ry=".14" transform="translate(79.67 110.58) rotate(-85.58)"/>
    <ellipse class="cls-5" cx="94.17" cy="11.74" rx=".39" ry=".14" transform="translate(75.2 104.73) rotate(-85.58)"/>
    <line class="cls-5" x1="96.81" y1="76.25" x2="97.09" y2="64.22"/>
    <path class="cls-1" d="m109.56,42.04c-.9-.95-1.74-1.95-2.5-2.99-.04.45-.02,1.42.04,2.65.1,2.47.33,5.98.47,8.21-.53.77-1.02,1.57-1.48,2.37-.29.5-.33,1.11-.1,1.64.03.07.06.15.1.22-.04.02-.07.03-.11.04-4.29,1.37-8.96,1.53-13.35.52-.89-.2-1.82-.49-2.37-1.26-.09-.13-.18-.27-.24-.42-1.14,1.43-2.35,2.82-3.64,4.13-1.1,1.11-2.81,1.36-4.19.62-1.03-.55-1.62-1.6-1.62-2.68,0-.51.13-1.03.41-1.51.77-1.32,1.57-2.56,2.46-3.83.49-.7,1.4-1.88,1.9-2.52.22-.28.33-.64.31-1-.15-2.47-1.43-13.3,1.59-17.42.1-.14.18-.31.3-.44,1.29-1.31,3.87-2.88,5.5-3.53.11.07.22.13.33.19h.01l.24.11c.27.12.55.21.83.28,2.35.56,5.02-.44,5.93-.82.21-.09.32-.15.32-.15,1.47.19,2.92.51,4.33.98,1.54.52,2.89,1.13,4.17,2.15,1.29,1.05,2.44,2.27,3.53,3.53.53.61,1.04,1.23,1.55,1.86.25.3.5.6.75.91"/>
    <path class="cls-5" d="m93.04,24.84c.11.07.22.13.33.19h.01c.08.04.16.08.24.11.27.12.55.21.83.28l-.88-.36-.22-.09-.31-.13Z"/>
    <path class="cls-6" d="m88.33,39.1c.05,1.43.92,10.49,1.16,11.91.14.83.27,1.73.77,2.43.55.77,1.48,1.06,2.37,1.26"/>
    <path class="cls-10" d="m97.28,59.14s2.91-1.38,2.91-1.38c.43-.2.87-.38,1.3-.6.21-.11.42-.23.61-.38.18-.13.41-.31.08-.35-.21-.03-.44,0-.66.03-.33.03-.7.05-1.03-.03-.19-.05-.37-.16-.44-.34-.09-.23.03-.5.22-.66,0,0,.01-.01.02-.02.21-.15.47-.21.72-.25.81-.15,1.66-.19,2.46-.39.46-.12.87-.32,1.35-.39.39-.06.78-.08,1.17-.06l.53-.58s-.03-.04-.03-.04c.16-.18.32-.37.49-.55.66,1.04,1.32,2.08,1.99,3.12-.42.32-.68.52-.68.51,0,0,0,0,0-.02-.29,1.45-1.31,2.96-2.5,3.69-.12.08-.25.15-.35.25-.08.08-.13.17-.19.27-.33.56-.63,1.12-.91,1.7-.18.36-.4,1.22-.91,1.24-.35.01-.59-.37-.44-.68.28-.56.57-1.12.87-1.67.11-.21.24-.4.33-.62.03-.07.11-.23.07-.31-.21-.39-.75.34-.89.49-.25.29-.51.58-.77.87-.37.41-.74.81-1.11,1.21-.24.25-.54.74-.95.56-.29-.12-.38-.51-.16-.74.12-.13.24-.25.36-.38.02-.05.05-.09.08-.14.4-.46.79-.93,1.17-1.42.19-.24.37-.48.56-.73.08-.1.54-.48.38-.62-.18-.17-.69.37-.82.45-.37.25-.74.5-1.11.75-.5.33-.98.68-1.48,1.02-.31.21-.83.72-1.21.37-.2-.19-.19-.54.02-.71.02-.03.04-.05.07-.08.62-.61,1.33-1.12,2.02-1.65.34-.26.68-.52,1.01-.79.17-.14.33-.29.5-.44.07-.06.27-.18.19-.29-.08-.1-.31,0-.39.03-.23.09-.43.25-.66.34-.38.14-.77.28-1.15.42-.54.2-1.07.4-1.6.6-.32.12-.8.47-1.12.18-.23-.21-.18-.66.1-.79Z"/>
    <path class="cls-1" d="m109.56,42.04c.79.84,1.61,1.64,2.44,2.43-1.69,1.77-3.17,3.57-4.43,5.44-.53.77-1.02,1.57-1.48,2.37-.29.5-.33,1.11-.1,1.64.03.07.06.15.1.22.34.8.72,1.58,1.18,2.33.37.61,1.14.84,1.79.54,2.31-1.07,4.47-2.51,6.43-4.11,1.65-1.35,3.33-2.82,4.35-4.72,1.71-3.18.43-6.81-1.34-9.66-1.01-1.64-2.24-3.15-3.47-4.64"/>
    <line class="cls-6" x1="112" y1="44.47" x2="115.03" y2="41.78"/>
    <line class="cls-2" x1="95.97" y1="25.42" x2="96.8" y2="55.1"/>
    <line class="cls-2" x1="97.43" y1="28.76" x2="94.17" y2="28.76"/>
  </g>
  <g>
    <rect class="cls-17" x="41.41" y="9.03" width="17.02" height="17.02" rx="2.71" ry="2.71"/>
    <path class="cls-6" d="m58.43,16.19v7.47c0,1.31-1.08,2.39-2.39,2.39h-12.24c-1.31,0-2.39-1.08-2.39-2.39v-12.24c0-1.31,1.08-2.39,2.39-2.39h12.24"/>
    <polyline class="cls-6" points="43.76 14.06 49.92 22.89 60.31 9.03"/>
  </g>
  <g>
    <rect class="cls-16" x="14.41" y="91.13" width="50.74" height="4.71"/>
    <g>
      <g>
        <path class="cls-15" d="m39.26,104.55c-.28,0-.56-.11-.82-.34-.42-.35-.8-.52-1.2-.52s-.85.17-1.43.54c-.31.2-.6.3-.86.3s-.47-.09-.63-.26c-.13-.14-.28-.4-.25-.84.05-.37.09-.71.13-1.04.09-.75.18-1.47.32-2.18.09-.46,0-.66-.44-.88-.54-.28-1.03-.63-1.49-.96-.98-.71-1.19-1.86-.53-2.87.45-.67,1.1-1.06,1.81-1.06.4,0,.8.12,1.17.36,0,0,1.22.77,1.48.93-.11-.26-.17-.56-.16-.9.02-1.29,1.06-2.31,2.35-2.31.58,0,1.05.19,1.39.53.34.34.51.81.5,1.37,0,.41-.1.78-.26,1.11.21-.11,1.5-.8,1.5-.8.37-.2.74-.3,1.1-.3.58,0,1.1.27,1.46.75.29.39.42.89.35,1.39s-.33.94-.73,1.24c-.81.61-1.7,1.1-2.56,1.57-.46.25-.6.44-.63.82-.07.78-.19,1.56-.31,2.32l-.12.76c-.14.93-.67,1.26-1.12,1.26Zm10.67-5.68c-.26,0-.51-.1-.75-.31-.48-.42-.93-.62-1.36-.62s-.86.19-1.36.58c-.23.18-.61.26-.88.26s-.46-.08-.59-.22c-.31-.36-.3-.94-.27-1.26.09-.91.23-1.89.41-2.98.05-.3-.01-.43-.28-.59-.35-.21-.69-.45-1.03-.68-.2-.14-.41-.29-.62-.43-.86-.57-1.14-1.36-.82-2.28.36-1.03,1.12-1.56,2.33-1.6h.1s.23.09.23.09c.19.07.48.17.75.34.4.25.83.53,1.28.82-.1-.26-.16-.55-.15-.86.02-1.25,1.1-2.27,2.4-2.27.58,0,1.06.19,1.39.54.33.35.5.82.49,1.38-.01.38-.1.74-.26,1.05.03-.01.05-.03.08-.04.38-.21.75-.42,1.13-.64.47-.27.95-.41,1.4-.41.64,0,1.18.29,1.5.8.63,1.02.28,2.23-.83,2.96l-.26.17c-.41.27-.83.55-1.3.72-.86.31-1.25.9-1.34,2.03-.05.68-.17,1.35-.27,2l-.05.32c-.14.84-.63,1.14-1.04,1.14Zm-19.73-.04c-.3,0-.6-.14-.94-.43-.4-.35-.76-.52-1.13-.52-.49,0-1,.29-1.48.6-.34.22-.62.33-.87.33h0c-.22,0-.41-.08-.56-.23-.22-.22-.31-.57-.3-1.1l.12-.86c.11-.76.23-1.55.28-2.34.01-.14-.11-.44-.28-.58-.26-.24-.57-.44-.89-.65-.23-.15-.46-.3-.67-.46-1.11-.84-1.29-1.87-.5-2.96.43-.6,1.05-.94,1.74-.94.46,0,.93.15,1.36.44.26.18,1.08.72,1.23.81-.1-.24-.15-.52-.15-.83,0-1.28,1.06-2.33,2.36-2.33.57,0,1.06.19,1.4.54.34.34.51.81.51,1.34,0,.4-.1.78-.26,1.1.07-.04.97-.55.97-.55.24-.13.4-.23.56-.3.34-.15.69-.23,1.03-.23.7,0,1.29.33,1.58.89.52.98.19,2.17-.76,2.76l-.2.13c-.71.44-1.44.9-2.21,1.27-.34.16-.47.34-.51.75-.08.65-.17,1.3-.26,1.96l-.14,1.01c-.15,1.14-.66,1.38-1.06,1.38Zm6.33-5.76c-.26,0-.49-.09-.66-.26-.18-.18-.28-.43-.28-.73l.14-1.09c.11-.82.21-1.6.33-2.38.06-.35,0-.49-.3-.66-.31-.19-.61-.41-.9-.63-.19-.15-.38-.29-.58-.42-1.12-.75-1.38-1.76-.72-2.85.4-.66,1.15-1.08,1.93-1.08.36,0,.7.09,1,.26.49.29,1,.6,1.55.97-.11-.27-.16-.57-.14-.9.05-1.24,1.14-2.29,2.38-2.29.6.02,1.09.23,1.43.6.35.38.53.89.51,1.44-.02.34-.11.66-.27.95.4-.23.79-.44,1.15-.64.49-.27.98-.4,1.42-.4.68,0,1.24.32,1.54.88.27.51.32,1.12.12,1.68-.21.59-.66,1.05-1.26,1.3-1.9.79-2.74,2.02-2.83,4.1-.04.95-.08,2.13-1.03,2.13-.42,0-.9-.26-1.75-.8-.22-.14-.38-.21-.52-.21-.07,0-.19.02-.37.15-.35.25-.76.49-1.25.72-.22.11-.44.16-.64.16Zm-4.74-5.8c-.32,0-.66-.15-1.04-.46-.39-.31-.74-.46-1.07-.46s-.66.14-1.04.42c-.18.14-.39.22-.56.29-.25.1-.47.15-.67.15-.35,0-.56-.16-.67-.29-.21-.24-.28-.59-.21-1.06.14-.99.3-1.98.48-2.96.07-.4.01-.54-.3-.7-.36-.19-.67-.43-.97-.66-.17-.13-.35-.27-.53-.39-.64-.43-1.33-1.06-1.02-2.18.33-1.15,1.21-1.73,2.62-1.73h.13l.12.06c.12.07.27.16.43.25.43.24.96.54,1.47.9-.12-.23-.2-.48-.21-.74-.03-.55.22-1.15.68-1.64.48-.51,1.12-.82,1.72-.83,1.18,0,1.96.77,1.97,1.93,0,.38-.1.74-.27,1.07.41-.24.87-.48,1.41-.73.39-.18.77-.28,1.14-.28.69,0,1.29.34,1.62.93.51.9.13,2.07-.88,2.73-.33.21-.67.4-1.01.59-.44.25-.85.48-1.24.76-.26.19-.49.54-.56.84-.13.58-.2,1.18-.28,1.81-.04.31-.07.63-.12.94-.18,1.2-.72,1.45-1.14,1.45Zm19.82,0c-.26,0-.53-.11-.79-.32-.44-.36-.85-.53-1.28-.53s-.92.18-1.56.57c-.27.17-.53.26-.76.26s-.46-.1-.62-.27c-.21-.24-.29-.61-.23-1.09.13-1.02.27-2.05.44-3.06.06-.35-.02-.46-.25-.6-.29-.17-.56-.36-.83-.56-.24-.17-.48-.34-.73-.49-.94-.57-1.26-1.4-.93-2.41.33-1,1.08-1.5,2.31-1.53h.09s.24.08.24.08c.21.07.52.17.81.35.43.26.86.52,1.27.8-.12-.25-.18-.53-.18-.82-.01-1.25,1.08-2.37,2.34-2.39h0c1.17,0,1.89.71,1.93,1.85.01.41-.09.83-.3,1.2.45-.26.9-.5,1.34-.73.42-.22.86-.34,1.29-.34.72,0,1.32.34,1.61.9.51,1.01.06,2.23-1.08,2.89l-.62.35c-.55.31-1.11.63-1.64.98-.15.1-.31.32-.33.48-.12.65-.21,1.31-.3,1.97-.06.44-.12.88-.19,1.32-.17,1.08-.85,1.17-1.05,1.17Zm-9.08-5.7c-.17,0-.43-.05-.71-.28-.46-.38-.91-.57-1.36-.57s-.95.18-1.56.56c-.3.19-.56.28-.79.28s-.42-.08-.57-.24c-.2-.21-.29-.54-.27-1,.04-.34.09-.63.13-.93.11-.73.22-1.48.27-2.21.01-.22-.11-.57-.26-.71-.27-.26-.61-.46-.97-.68-.18-.11-.35-.21-.52-.33-1.08-.73-1.36-1.83-.73-2.88.4-.67,1.13-1.09,1.9-1.09.38,0,.76.1,1.1.3.56.33,1.05.64,1.5.95-.12-.26-.18-.56-.18-.87.02-1.34,1.03-2.32,2.4-2.32,1.2.03,1.9.77,1.88,1.93,0,.39-.11.77-.29,1.09.07-.04.14-.08.21-.11.24-.13.47-.25.7-.39.27-.15.45-.26.65-.34.36-.16.72-.24,1.07-.24.68,0,1.25.31,1.56.85.54.93.17,2.23-.81,2.85-.56.35-1.14.66-1.71.96l-.41.22c-.51.27-.75.63-.79,1.18-.07.85-.2,1.7-.33,2.52l-.06.39c-.1.67-.51,1.1-1.04,1.1Z"/>
        <path class="cls-14" d="m41.92,70.01s.03,0,.05,0c.89.02,1.39.55,1.38,1.47-.01,1.02-.88,1.86-1.92,1.86,0,0-.01,0-.02,0-.86,0-1.45-.61-1.43-1.46.02-1.09.83-1.87,1.94-1.87m-4.82,1.94c.29,0,.59.08.87.24.81.48,1.6.99,2.34,1.56.37.29.7.44,1.05.44.29,0,.59-.11.92-.35.74-.53,1.57-.92,2.36-1.38.2-.11.4-.23.6-.32.31-.13.61-.2.89-.2.51,0,.93.22,1.17.62.41.71.14,1.74-.66,2.24-.68.42-1.39.78-2.09,1.16-.62.33-.97.81-1.03,1.54-.08.96-.24,1.92-.39,2.88-.07.43-.29.72-.59.72-.13,0-.27-.06-.42-.18-.57-.47-1.11-.67-1.65-.67-.59,0-1.17.24-1.8.63-.22.14-.41.21-.55.21-.29,0-.41-.27-.39-.76.14-1.04.33-2.09.4-3.14.02-.35-.15-.83-.4-1.07-.45-.42-1.03-.71-1.55-1.05-.89-.59-1.1-1.42-.59-2.27.33-.55.91-.87,1.52-.87m13.9,3.75c.88,0,1.41.52,1.44,1.41.04,1.05-.87,1.99-1.92,1.99h0c-.82,0-1.44-.64-1.45-1.47-.01-1.01.88-1.92,1.9-1.93.01,0,.02,0,.03,0m-19.83,0c.91,0,1.48.57,1.49,1.48,0,.99-.91,1.9-1.92,1.92,0,0-.02,0-.03,0-.76,0-1.48-.67-1.52-1.41-.05-.94.98-1.98,1.96-1.99,0,0,.01,0,.02,0m24.05,1.97c.54,0,.99.23,1.2.65.4.8.03,1.76-.9,2.29-.76.44-1.54.86-2.28,1.34-.25.16-.48.49-.53.78-.2,1.09-.32,2.2-.49,3.29-.08.49-.3.79-.61.79-.15,0-.32-.07-.5-.22-.55-.45-1.06-.63-1.57-.63-.59,0-1.18.25-1.8.64-.21.13-.38.19-.52.19-.32,0-.47-.31-.4-.85.13-1.02.27-2.03.44-3.04.08-.48-.03-.8-.47-1.06-.54-.32-1.02-.73-1.55-1.05-.75-.45-1-1.07-.73-1.89.26-.79.83-1.19,1.89-1.22.18.07.57.17.89.37.7.43,1.42.86,2.05,1.38.37.31.72.44,1.07.44s.69-.14,1.07-.38c.86-.56,1.76-1.05,2.66-1.53.36-.19.73-.29,1.07-.29m-19.82,0c.53,0,.97.25,1.23.7.38.67.1,1.58-.73,2.12-.74.48-1.55.85-2.26,1.36-.34.25-.64.7-.74,1.1-.21.91-.27,1.85-.41,2.78-.1.7-.32,1.07-.69,1.07-.21,0-.46-.12-.76-.36-.47-.38-.92-.56-1.35-.56s-.86.18-1.31.51c-.14.1-.3.17-.45.23-.2.08-.36.12-.5.12-.36,0-.52-.28-.44-.83.14-.98.3-1.97.48-2.94.1-.54,0-.9-.54-1.19-.52-.27-.97-.7-1.46-1.03-.61-.41-1.06-.88-.83-1.68.25-.89.92-1.4,2.18-1.4h.02c.45.27,1.22.67,1.92,1.17.95.68,1.42,1.01,1.9,1.01s.96-.32,1.93-.95c.59-.39,1.23-.71,1.87-1.02.33-.16.66-.23.95-.23m4.89,3.79s.03,0,.05,0c.86.03,1.48.69,1.44,1.57-.04.97-.96,1.84-1.94,1.84-.02,0-.04,0-.06,0-.91-.03-1.46-.64-1.42-1.56.04-1,.94-1.85,1.93-1.85m4.24,1.95c.5,0,.91.22,1.14.65.44.81.11,1.91-.92,2.34-2.05.85-3.02,2.22-3.11,4.5-.05,1.19-.16,1.69-.58,1.69-.31,0-.78-.26-1.5-.73-.27-.17-.52-.28-.77-.28-.2,0-.41.07-.63.23-.37.26-.77.49-1.18.68-.17.08-.32.12-.44.12-.3,0-.49-.21-.49-.54.16-1.2.29-2.3.47-3.4.08-.52-.05-.85-.51-1.13-.51-.3-.96-.7-1.46-1.04-.92-.62-1.12-1.36-.59-2.24.32-.53.93-.86,1.54-.86.27,0,.53.06.77.2.96.56,1.88,1.18,2.79,1.82.24.17.45.25.67.25.2,0,.41-.07.64-.22.97-.6,1.96-1.16,2.96-1.7.43-.24.85-.35,1.21-.35m-14.98,3.81h0c.88,0,1.46.57,1.45,1.43,0,1.1-.83,1.92-1.93,1.92,0,0-.02,0-.03,0-.88-.01-1.41-.57-1.41-1.46,0-1.03.87-1.88,1.91-1.88m19.77.07s.01,0,.02,0c.89,0,1.43.57,1.4,1.45-.03,1.07-.85,1.89-1.91,1.89-.9,0-1.48-.6-1.46-1.52.02-1.01.89-1.82,1.95-1.82m-24.58,1.83c.36,0,.74.12,1.11.37.8.54,1.62,1.05,2.4,1.62.25.18.49.28.73.28.19,0,.39-.06.6-.19.93-.55,1.88-1.07,2.82-1.61.17-.1.35-.2.53-.28.29-.13.58-.19.84-.19.52,0,.96.23,1.18.65.4.75.16,1.7-.6,2.17-.77.48-1.54.98-2.36,1.37-.52.24-.71.59-.77,1.1-.12.99-.26,1.98-.39,2.96-.08.64-.29.99-.61.99-.18,0-.39-.1-.64-.32-.51-.45-.98-.63-1.43-.63-.57,0-1.13.29-1.72.68-.26.17-.46.25-.62.25-.29,0-.42-.29-.4-.87.13-.98.32-2.08.4-3.18.02-.31-.18-.74-.42-.95-.48-.43-1.07-.74-1.6-1.13-.92-.69-1.04-1.45-.41-2.34.35-.49.85-.75,1.37-.75m28.79.05c.47,0,.87.2,1.11.59.49.8.22,1.74-.7,2.34-.48.31-.95.66-1.48.85-1.16.42-1.55,1.29-1.64,2.42-.06.76-.2,1.52-.32,2.28-.08.48-.3.76-.59.76-.14,0-.29-.06-.45-.2-.57-.49-1.11-.73-1.66-.73s-1.08.23-1.64.67c-.13.1-.4.17-.6.17-.11,0-.2-.02-.24-.06-.18-.21-.2-.61-.16-.92.1-.99.24-1.98.4-2.96.08-.49-.07-.8-.5-1.05-.56-.33-1.08-.74-1.62-1.1-.65-.43-.9-1-.64-1.76.28-.81.84-1.26,1.92-1.3.16.07.52.17.82.36.86.55,1.72,1.1,2.55,1.71.22.16.41.23.61.23s.4-.07.62-.21c.99-.61,2.02-1.16,3.03-1.74.41-.23.81-.35,1.17-.35m-14.85,3.81s.01,0,.02,0c.88,0,1.43.57,1.42,1.44-.01,1.1-.82,1.9-1.93,1.9-.01,0-.03,0-.04,0-.87-.01-1.39-.57-1.38-1.48.02-1.04.86-1.86,1.9-1.86m-4.84,1.91c.31,0,.62.09.93.29.89.57,1.79,1.11,2.65,1.71.24.17.45.26.66.26.17,0,.36-.06.56-.18,1.11-.64,2.25-1.23,3.38-1.83.31-.16.61-.24.89-.24.43,0,.82.19,1.1.57.43.57.37,1.5-.29,2-.79.59-1.67,1.08-2.54,1.55-.49.27-.78.56-.84,1.16-.09,1.02-.27,2.03-.42,3.04-.08.54-.34.87-.68.87-.16,0-.34-.07-.53-.23-.52-.44-1.01-.62-1.49-.62-.55,0-1.09.24-1.68.61-.25.16-.46.23-.62.23-.31,0-.46-.24-.43-.62.15-1.13.24-2.15.44-3.15.14-.68-.09-1.06-.67-1.37-.5-.26-.97-.59-1.44-.92-.79-.57-.94-1.45-.41-2.25.37-.56.89-.86,1.43-.86m8.06-25.8c-1.58,0-2.79,1.15-2.85,2.69-.21-.13-.42-.26-.65-.39-.4-.24-.86-.36-1.33-.36-.93,0-1.8.5-2.29,1.3-.76,1.26-.42,2.63.86,3.49.18.12.36.23.54.34.34.2.65.4.89.62.06.06.13.26.12.35-.01.15-.02.3-.04.45-.43-.53-1.07-.82-1.79-.82h0c-.44,0-.89.11-1.34.32-.17.08-.34.16-.5.24,0-.06,0-.11,0-.17-.01-1.4-.99-2.38-2.39-2.38h-.03c-.73,0-1.47.36-2.04.97-.48.51-.77,1.13-.8,1.74-.21-.12-.4-.23-.58-.34-.16-.09-.3-.17-.42-.24l-.21-.13h-.25c-2.06,0-2.81,1.12-3.07,2.06-.45,1.58.79,2.41,1.2,2.68.17.12.34.25.51.37.32.24.65.5,1.04.7.04.02.07.04.08.05,0,.03,0,.08-.02.17-.2,1.11-.36,2.08-.49,2.98-.08.6.02,1.08.32,1.42.19.22.46.37.76.42-.25.4-.4.86-.42,1.35-.13-.08-.25-.17-.38-.25-.5-.34-1.06-.52-1.61-.52-.83,0-1.6.41-2.11,1.13-.93,1.29-.71,2.6.6,3.59.23.17.46.33.7.48.31.2.6.39.83.6.05.04.12.18.13.24-.06.75-.17,1.52-.28,2.28-.04.28-.08.56-.12.82v.05s0,.05,0,.05c-.01.42.02,1.02.42,1.43.23.24.54.37.88.37s.7-.13,1.11-.4c.57-.37.93-.53,1.23-.53.16,0,.42.04.83.4.42.37.82.55,1.23.55.34,0,1.09-.13,1.41-1.26.18.27.41.51.7.71.47.34.98.69,1.54.99.18.1.22.15.22.15h0s.02.06-.02.24c-.15.73-.23,1.45-.32,2.22-.04.32-.08.65-.12.99v.03s0,.03,0,.03c-.04.6.18.98.37,1.18.25.26.59.41.96.41.35,0,.72-.12,1.1-.37.51-.32.89-.47,1.19-.47.18,0,.47.04.91.41.44.37.85.45,1.12.45.61,0,1.39-.43,1.57-1.64.04-.25.08-.49.12-.74.12-.77.25-1.56.32-2.36.02-.18.02-.25.37-.44.9-.5,1.81-1,2.65-1.62.02-.01.03-.02.05-.04.06.24.16.49.33.7.15.17.43.38.93.38.34,0,.82-.09,1.16-.36.41-.32.76-.48,1.08-.48s.67.17,1.07.51c.4.35.79.42,1.04.42.57,0,1.3-.4,1.49-1.52l.05-.32c.11-.66.22-1.34.28-2.04.09-1.08.46-1.43,1.04-1.64.53-.19.99-.5,1.4-.77l.26-.17c1.34-.87,1.74-2.34.97-3.57-.4-.65-1.09-1.02-1.88-1.02h0c-.53,0-1.09.16-1.62.47-.09.05-.18.1-.27.15,0-.04,0-.08,0-.12.01-.39-.05-.75-.19-1.07.05,0,.1,0,.16,0,.61,0,1.32-.41,1.5-1.55.07-.44.13-.88.19-1.32.09-.64.18-1.31.3-1.95.01-.05.09-.16.14-.19.51-.34,1.05-.64,1.61-.97.2-.12.41-.23.61-.35,1.35-.78,1.88-2.25,1.25-3.48-.36-.72-1.12-1.15-2.01-1.15h0s0,0,0,0c-.5,0-1.02.14-1.5.39-.13.07-.25.14-.38.21,0-.1,0-.19,0-.29-.05-1.39-.97-2.28-2.34-2.28h-.05c-1.46.02-2.73,1.28-2.79,2.72-.12-.07-.24-.15-.35-.22-.37-.22-.71-.34-.94-.41-.05-.02-.1-.03-.13-.04l-.17-.07h-.19c-.81.03-1.45.24-1.93.64.06-.29.22-.47.53-.64l.41-.22c.57-.3,1.17-.62,1.74-.97,1.2-.75,1.64-2.31.96-3.46-.4-.68-1.11-1.07-1.95-1.07-.41,0-.83.09-1.25.28-.22.1-.43.21-.61.32l-.03.02c0-.05,0-.11,0-.16.02-1.42-.87-2.36-2.26-2.39h-.07Zm.62,12.91c.66,0,1.21-.47,1.42-1.19.21.28.48.52.82.73.23.14.46.3.7.47.27.2.55.4.86.58.02.01.04.02.05.03,0,.02,0,.05-.01.1-.03.19-.07.39-.1.6-.4-.53-1.02-.83-1.75-.83h0c-.53,0-1.08.15-1.64.46-.07.04-.14.08-.21.12h0c.02-.39-.04-.75-.18-1.07.01,0,.02,0,.04,0h0Zm-8.75,1.1c.06-.18.22-.42.37-.53.36-.26.76-.49,1.19-.73.34-.19.69-.39,1.03-.61.17-.11.33-.24.47-.37.06.3.18.54.36.74.17.18.39.3.63.35-.23.39-.38.83-.4,1.3h0c-.25-.15-.49-.3-.73-.44-.37-.21-.79-.33-1.23-.33-.62,0-1.23.22-1.7.61h0Zm-1.99,4.6c.42,0,1.09-.17,1.44-1.19.2.26.47.51.81.73.19.13.38.27.56.41.29.22.6.45.94.66.06.03.09.06.1.07,0,0,0,.05-.02.13-.03.17-.05.34-.08.51-.41-.52-1.05-.82-1.78-.82-.41,0-.82.09-1.22.27-.18.08-.35.18-.53.28l-.07.04-.04.02c0-.06,0-.12,0-.18,0-.33-.06-.65-.17-.94.02,0,.04,0,.05,0h0Zm11.4.93c.41-.6,1.03-1.05,1.9-1.41.33-.14.62-.33.87-.56.06.23.16.43.31.59.18.2.4.33.66.39-.27.4-.43.88-.45,1.38-.15-.09-.29-.19-.43-.27-.31-.19-.62-.31-.84-.38-.05-.02-.09-.03-.12-.04l-.19-.08h-.2c-.59.03-1.09.16-1.5.38h0Zm-11.11,6.09c0-.07.02-.14.03-.21.03-.26.07-.31.26-.39.8-.38,1.54-.84,2.26-1.29l.2-.13c.13-.08.25-.17.36-.27.06.26.19.49.37.67.19.19.43.31.69.37-.22.39-.35.84-.36,1.32-.21-.13-.41-.26-.62-.39-.44-.28-.93-.43-1.41-.43-.65,0-1.27.27-1.77.75h0Zm8.98-1.24c.74,0,1.1-.46,1.29-1.03.17.19.37.37.61.53.2.13.4.28.6.42.34.24.68.48,1.06.71.04.02.06.04.08.05,0,.02,0,.04,0,.07-.03.18-.06.35-.08.52-.44-.49-1.03-.76-1.69-.76-.43,0-.88.12-1.31.35l-.58.31c0-.07,0-.14,0-.21,0-.34-.05-.66-.16-.95.06,0,.13.01.19.01h0Z"/>
      </g>
      <g>
        <path class="cls-15" d="m36.54,93.07c-.26,0-.49-.09-.66-.26-.18-.18-.28-.43-.28-.73l.14-1.09c.11-.82.21-1.6.33-2.38.06-.35,0-.49-.3-.66-.31-.19-.61-.41-.9-.63-.19-.14-.38-.29-.58-.42-1.12-.75-1.38-1.76-.72-2.85.4-.66,1.15-1.08,1.93-1.08.36,0,.7.09,1,.26.84.49,1.74,1.07,2.82,1.84.21.15.33.17.41.17.11,0,.24-.05.4-.15,1.03-.64,2.09-1.23,2.98-1.71.49-.27.98-.4,1.42-.4.68,0,1.24.32,1.54.88.27.51.32,1.12.12,1.68-.21.59-.66,1.05-1.26,1.3-1.9.79-2.74,2.02-2.83,4.1-.04.95-.08,2.13-1.03,2.13-.42,0-.9-.26-1.75-.8-.22-.14-.38-.21-.52-.21-.07,0-.19.02-.37.15-.35.25-.76.49-1.25.72-.22.11-.44.16-.64.16Z"/>
        <path class="cls-14" d="m44.53,83.42c.5,0,.91.22,1.14.65.44.81.11,1.91-.92,2.34-2.05.85-3.02,2.22-3.11,4.5-.05,1.19-.16,1.69-.58,1.69-.31,0-.78-.26-1.5-.73-.27-.17-.52-.28-.77-.28-.2,0-.41.07-.63.23-.37.26-.77.49-1.18.68-.17.08-.32.12-.44.12-.3,0-.49-.21-.49-.54.16-1.2.29-2.3.47-3.4.08-.52-.05-.85-.51-1.13-.51-.3-.96-.7-1.46-1.04-.92-.62-1.12-1.36-.59-2.24.32-.53.93-.86,1.54-.86.27,0,.53.06.77.2.96.56,1.88,1.18,2.79,1.82.24.17.45.25.67.25.2,0,.41-.07.64-.22.97-.6,1.96-1.16,2.96-1.7.43-.24.85-.35,1.21-.35m0-.91c-.53,0-1.08.15-1.64.46-.9.49-1.97,1.08-3.01,1.73-.11.07-.16.08-.17.08,0,0-.05-.02-.14-.08-1.09-.77-2-1.36-2.85-1.86-.37-.21-.79-.33-1.23-.33-.93,0-1.84.51-2.32,1.3-.78,1.3-.47,2.56.86,3.45.19.13.38.27.56.41.29.22.6.45.94.66.06.03.09.06.1.07,0,0,0,.05-.02.13-.13.78-.23,1.56-.34,2.38-.04.34-.09.69-.14,1.04v.06s0,.06,0,.06c0,.41.14.78.41,1.05.25.25.6.4.99.4.27,0,.55-.07.84-.21.51-.25.94-.49,1.31-.76.08-.05.11-.06.11-.06,0,0,.07,0,.27.14.92.59,1.46.87,1.99.87,1.39,0,1.45-1.61,1.49-2.57.07-1.9.81-2.98,2.55-3.7.72-.3,1.26-.86,1.51-1.56.24-.67.19-1.42-.15-2.04-.38-.71-1.09-1.12-1.94-1.12h0Z"/>
      </g>
      <g>
        <path class="cls-15" d="m49.93,98.87c-.25,0-.51-.1-.75-.31-.48-.42-.93-.62-1.36-.62s-.86.19-1.36.58c-.23.18-.61.26-.88.26s-.46-.08-.59-.22c-.31-.36-.3-.94-.27-1.26.09-.91.23-1.89.41-2.98.05-.3-.01-.43-.28-.59-.35-.21-.69-.45-1.03-.68-.2-.14-.41-.29-.62-.43-.86-.57-1.14-1.36-.82-2.28.36-1.03,1.12-1.56,2.33-1.6h.1s.23.09.23.09c.19.07.48.17.75.34.78.49,1.69,1.08,2.58,1.72.18.13.28.15.34.15.1,0,.22-.05.38-.14.63-.38,1.27-.74,1.91-1.1.38-.21.75-.42,1.13-.64.47-.27.95-.41,1.4-.41.64,0,1.18.29,1.5.8.63,1.02.28,2.23-.83,2.96l-.26.17c-.41.27-.83.55-1.3.72-.86.31-1.25.9-1.34,2.03-.05.68-.17,1.35-.28,2l-.05.32c-.14.84-.63,1.14-1.04,1.14Z"/>
        <path class="cls-14" d="m53.54,89.18c.47,0,.87.2,1.11.59.49.8.22,1.74-.7,2.34-.48.31-.95.66-1.48.85-1.16.42-1.55,1.29-1.64,2.42-.06.76-.2,1.52-.32,2.28-.08.48-.3.76-.59.76-.14,0-.29-.06-.45-.2-.57-.49-1.11-.73-1.66-.73-.54,0-1.08.23-1.64.67-.13.1-.4.17-.6.17-.11,0-.2-.02-.24-.06-.18-.21-.2-.61-.16-.92.1-.99.24-1.98.4-2.96.08-.49-.07-.8-.5-1.05-.56-.33-1.08-.74-1.62-1.1-.65-.43-.9-1-.64-1.76.28-.81.84-1.26,1.92-1.3.16.07.52.17.82.36.86.55,1.72,1.1,2.55,1.71.22.16.41.23.61.23s.4-.07.62-.21c.99-.61,2.02-1.16,3.03-1.74.41-.23.81-.35,1.17-.35m-8.64-.91h-.2c-1.4.06-2.32.7-2.74,1.91-.39,1.11-.02,2.14,1,2.81.2.13.4.28.6.42.34.24.68.48,1.06.71.04.02.06.04.08.05,0,.02,0,.04,0,.08-.18,1.11-.31,2.09-.41,3.01-.04.38-.04,1.1.38,1.6.15.17.43.38.93.38.34,0,.82-.09,1.16-.36.41-.32.76-.48,1.08-.48.32,0,.67.17,1.07.51.4.35.79.42,1.04.42.57,0,1.3-.4,1.49-1.52l.05-.32c.11-.66.22-1.34.28-2.04.09-1.08.46-1.43,1.04-1.64.53-.19.99-.5,1.4-.77l.26-.17c1.34-.87,1.74-2.34.97-3.57-.4-.65-1.09-1.02-1.88-1.02-.53,0-1.09.16-1.62.47-.37.21-.74.42-1.12.63-.63.36-1.29.73-1.93,1.12-.08.05-.12.07-.15.07,0,0-.04-.02-.08-.06-.9-.65-1.82-1.25-2.6-1.74-.31-.19-.62-.31-.84-.38-.05-.02-.09-.03-.12-.04l-.19-.08h0Z"/>
      </g>
      <g>
        <path class="cls-15" d="m31.8,87.27c-.32,0-.66-.15-1.04-.46-.39-.31-.74-.46-1.07-.46s-.66.14-1.04.42c-.18.14-.39.22-.56.29-.25.1-.47.15-.67.15-.35,0-.56-.16-.67-.29-.21-.24-.28-.59-.21-1.06.14-.99.3-1.98.48-2.96.07-.4.01-.54-.3-.7-.36-.19-.67-.43-.97-.66-.17-.13-.35-.27-.53-.39-.64-.43-1.33-1.06-1.02-2.18.33-1.15,1.21-1.73,2.62-1.73h.13l.12.06c.12.07.27.16.43.25.44.25,1,.57,1.52.94.85.61,1.3.93,1.64.93s.81-.31,1.68-.87c.54-.35,1.15-.68,1.93-1.05.39-.18.77-.28,1.14-.28.69,0,1.29.34,1.62.93.51.9.13,2.07-.88,2.73-.33.21-.67.4-1.01.59-.44.25-.85.48-1.24.76-.26.19-.49.54-.56.84-.13.58-.2,1.18-.28,1.81-.04.31-.07.63-.12.94-.18,1.2-.72,1.45-1.14,1.45Z"/>
        <path class="cls-14" d="m35.4,77.68c.53,0,.97.25,1.23.7.38.67.1,1.58-.73,2.12-.74.48-1.55.85-2.26,1.36-.34.25-.64.7-.74,1.1-.21.91-.27,1.85-.41,2.78-.1.7-.32,1.07-.69,1.07-.21,0-.46-.12-.76-.36-.47-.38-.92-.56-1.35-.56s-.86.18-1.31.51c-.14.1-.3.17-.45.23-.2.08-.36.12-.5.12-.36,0-.52-.28-.44-.83.14-.98.3-1.97.48-2.94.1-.54,0-.9-.54-1.19-.52-.27-.97-.7-1.46-1.03-.61-.41-1.06-.88-.83-1.68.25-.89.92-1.4,2.18-1.4h.02c.45.27,1.22.67,1.92,1.17.95.68,1.42,1.01,1.9,1.01s.96-.32,1.93-.95c.59-.39,1.23-.71,1.87-1.02.33-.16.66-.23.95-.23m0-.91c-.44,0-.89.11-1.34.32-.8.38-1.43.72-1.98,1.08-.67.43-1.24.8-1.44.8-.19,0-.72-.38-1.34-.82-.57-.41-1.14-.73-1.59-.99-.16-.09-.3-.17-.42-.24l-.21-.13h-.25c-2.06,0-2.81,1.12-3.07,2.06-.45,1.58.79,2.41,1.2,2.68.17.12.34.25.51.37.32.24.65.5,1.04.7.04.02.07.04.08.05,0,.03,0,.08-.02.17-.2,1.11-.36,2.08-.49,2.98-.08.6.02,1.08.32,1.42.25.29.61.44,1.02.44.25,0,.53-.06.83-.18.2-.08.44-.18.66-.35.3-.22.55-.33.77-.33s.49.12.79.36c.47.37.9.56,1.33.56.49,0,1.35-.24,1.59-1.84.05-.32.08-.64.12-.96.07-.61.14-1.2.27-1.75.04-.19.22-.46.39-.58.36-.26.76-.49,1.19-.73.34-.19.69-.39,1.03-.61,1.22-.79,1.66-2.22,1.03-3.33-.42-.73-1.15-1.16-2.02-1.16h0Z"/>
      </g>
      <g>
        <path class="cls-15" d="m39.26,104.55c-.28,0-.56-.11-.82-.34-.42-.35-.8-.52-1.2-.52s-.85.17-1.43.54c-.31.2-.6.3-.86.3s-.47-.09-.63-.26c-.13-.14-.28-.4-.25-.84.05-.37.09-.71.13-1.04.09-.75.18-1.47.32-2.18.09-.46,0-.66-.44-.88-.54-.28-1.03-.63-1.49-.96-.98-.71-1.19-1.86-.53-2.87.45-.67,1.1-1.06,1.81-1.06.4,0,.8.12,1.17.36l.71.45c.66.42,1.32.83,1.96,1.28.22.15.33.17.41.17.09,0,.2-.04.33-.12.83-.48,1.68-.93,2.53-1.38l.86-.46c.37-.2.74-.3,1.1-.3.58,0,1.1.27,1.46.75.29.39.42.89.35,1.39s-.33.94-.73,1.24c-.81.61-1.7,1.1-2.56,1.57-.46.25-.6.44-.63.82-.07.78-.19,1.56-.31,2.32l-.12.76c-.14.93-.67,1.26-1.12,1.26Z"/>
        <path class="cls-14" d="m33.85,94.9c.31,0,.62.09.93.29.89.57,1.79,1.11,2.65,1.71.24.17.45.26.66.26.17,0,.36-.06.56-.18,1.11-.64,2.25-1.23,3.38-1.83.31-.16.61-.24.89-.24.43,0,.82.19,1.1.57.43.57.37,1.5-.29,2-.79.59-1.67,1.08-2.54,1.55-.49.27-.78.56-.84,1.16-.09,1.02-.27,2.03-.42,3.04-.08.54-.34.87-.68.87-.16,0-.34-.07-.53-.23-.52-.44-1.01-.62-1.49-.62-.55,0-1.09.24-1.68.61-.25.16-.46.23-.62.23-.31,0-.46-.24-.43-.62.15-1.13.24-2.15.44-3.15.14-.68-.09-1.06-.67-1.37-.5-.26-.97-.59-1.44-.92-.79-.57-.94-1.45-.41-2.25.37-.56.89-.86,1.43-.86m0-.91c-.86,0-1.65.46-2.18,1.26-.8,1.2-.54,2.64.64,3.48.47.34.98.69,1.54.99.18.1.22.15.22.15h0s.02.06-.02.24c-.15.73-.23,1.45-.32,2.22-.04.32-.08.65-.12.99v.03s0,.03,0,.03c-.04.6.18.98.37,1.18.25.26.59.41.96.41.35,0,.72-.12,1.1-.37.51-.32.89-.47,1.19-.47.18,0,.47.04.91.41.44.37.85.45,1.12.45.61,0,1.39-.43,1.57-1.64.04-.25.08-.49.12-.74.12-.77.25-1.56.32-2.36.02-.18.02-.25.37-.44.91-.5,1.81-1,2.65-1.62.49-.37.81-.92.9-1.54.09-.62-.07-1.25-.44-1.73-.45-.6-1.1-.93-1.82-.93-.43,0-.88.12-1.31.35l-.86.46c-.84.44-1.71.9-2.55,1.39-.06.04-.1.05-.11.05,0,0-.05-.03-.14-.09-.65-.46-1.33-.88-1.98-1.29-.23-.15-.47-.29-.7-.44-.44-.28-.93-.43-1.41-.43h0Z"/>
      </g>
      <g>
        <path class="cls-15" d="m42.54,81.57c-.17,0-.43-.05-.71-.28-.46-.38-.91-.57-1.36-.57s-.95.18-1.56.56c-.3.19-.56.28-.79.28s-.42-.08-.57-.24c-.2-.21-.29-.54-.27-1,.04-.33.09-.63.13-.93.11-.73.22-1.48.27-2.22.01-.22-.11-.57-.26-.71-.27-.26-.61-.46-.97-.68-.18-.11-.35-.21-.52-.33-1.08-.73-1.36-1.83-.73-2.88.4-.67,1.13-1.09,1.9-1.09.38,0,.76.1,1.1.3.95.56,1.71,1.07,2.39,1.6.31.24.55.35.78.35.2,0,.41-.09.66-.26.54-.39,1.13-.7,1.7-1.01.24-.13.47-.25.7-.39.27-.15.45-.26.65-.34.36-.16.72-.24,1.07-.24.68,0,1.25.31,1.56.85.54.93.17,2.23-.81,2.85-.56.35-1.14.66-1.71.96l-.41.22c-.51.27-.75.63-.79,1.18-.07.85-.2,1.7-.33,2.52l-.06.39c-.1.67-.51,1.1-1.04,1.1Z"/>
        <path class="cls-14" d="m37.09,71.95c.29,0,.59.08.87.24.81.48,1.6.99,2.34,1.56.37.29.7.44,1.05.44.29,0,.59-.11.92-.35.74-.53,1.57-.92,2.36-1.38.2-.11.4-.23.6-.32.31-.13.61-.2.89-.2.51,0,.93.22,1.17.62.41.71.14,1.74-.66,2.24-.68.42-1.39.78-2.09,1.16-.62.33-.97.81-1.03,1.54-.08.96-.24,1.92-.39,2.88-.07.43-.29.72-.59.72-.13,0-.27-.06-.42-.18-.57-.47-1.11-.67-1.65-.67-.59,0-1.17.24-1.8.63-.22.14-.41.21-.55.21-.29,0-.41-.27-.39-.76.14-1.04.33-2.09.4-3.14.02-.35-.15-.83-.4-1.07-.45-.42-1.03-.71-1.55-1.05-.89-.59-1.1-1.42-.59-2.27.33-.55.91-.87,1.52-.87m0-.91c-.93,0-1.8.5-2.29,1.3-.76,1.26-.42,2.63.86,3.49.18.12.36.23.54.34.34.2.65.4.89.62.06.06.13.26.12.35-.05.72-.15,1.43-.26,2.18-.04.3-.09.6-.13.9v.04s0,.04,0,.04c-.03.59.1,1.02.39,1.33.23.24.55.38.9.38.32,0,.66-.11,1.03-.35.52-.33.95-.49,1.31-.49.22,0,.57.05,1.07.46.39.32.76.39,1,.39.75,0,1.35-.6,1.48-1.49l.06-.37c.13-.83.26-1.7.34-2.57.04-.4.19-.63.56-.83l.41-.22c.57-.3,1.17-.62,1.74-.97,1.2-.75,1.64-2.31.96-3.46-.4-.68-1.11-1.07-1.95-1.07-.41,0-.83.09-1.25.28-.22.1-.43.21-.61.32l-.08.05c-.23.13-.46.26-.69.38-.58.31-1.18.64-1.74,1.04-.11.08-.28.18-.4.18-.14,0-.35-.14-.5-.25-.69-.54-1.47-1.06-2.44-1.63-.4-.24-.86-.36-1.33-.36h0Z"/>
      </g>
      <g>
        <path class="cls-15" d="m30.2,98.83c-.3,0-.6-.14-.94-.43-.4-.35-.76-.52-1.13-.52-.49,0-1,.29-1.48.6-.34.22-.62.33-.87.33-.22,0-.41-.08-.56-.23-.22-.22-.31-.57-.3-1.1l.12-.86c.11-.76.23-1.55.28-2.34.01-.14-.11-.44-.28-.58-.26-.24-.57-.44-.89-.65-.23-.15-.46-.3-.67-.46-1.11-.84-1.29-1.87-.5-2.96.43-.6,1.05-.94,1.74-.94.46,0,.93.15,1.36.44.26.18.53.35.79.52.55.36,1.1.72,1.63,1.11.24.17.37.19.46.19.11,0,.23-.04.37-.12.68-.4,1.38-.8,2.07-1.19l.75-.43c.24-.13.4-.23.56-.3.34-.15.69-.23,1.03-.23.7,0,1.29.33,1.58.89.52.98.19,2.17-.76,2.76l-.2.13c-.71.44-1.44.9-2.21,1.27-.34.16-.47.34-.51.75-.08.65-.17,1.3-.26,1.96l-.14,1.01c-.15,1.14-.66,1.38-1.06,1.38Z"/>
        <path class="cls-14" d="m24.74,89.13c.36,0,.74.12,1.11.37.8.54,1.62,1.05,2.4,1.62.25.18.49.28.73.28.19,0,.39-.06.6-.19.93-.55,1.88-1.07,2.82-1.61.17-.1.35-.2.53-.28.29-.13.58-.19.84-.19.52,0,.96.23,1.18.65.4.75.16,1.7-.6,2.17-.77.48-1.54.98-2.36,1.37-.52.24-.71.59-.77,1.1-.12.99-.26,1.98-.39,2.96-.08.64-.29.99-.61.99-.18,0-.39-.1-.64-.32-.51-.45-.98-.63-1.43-.63-.57,0-1.13.28-1.72.68-.26.17-.46.25-.62.25-.29,0-.42-.29-.4-.87.13-.98.32-2.08.4-3.18.02-.31-.18-.74-.42-.95-.48-.43-1.07-.74-1.6-1.13-.92-.69-1.04-1.45-.41-2.34.35-.49.85-.75,1.37-.75m0-.91c-.83,0-1.6.41-2.11,1.13-.93,1.29-.71,2.6.6,3.59.23.17.46.33.7.48.31.2.6.39.83.6.05.04.12.18.13.24-.06.75-.17,1.52-.28,2.28-.04.28-.08.56-.12.82v.05s0,.05,0,.05c-.01.42.02,1.02.42,1.43.23.24.54.37.88.37s.7-.13,1.11-.4c.57-.37.93-.53,1.23-.53.16,0,.42.04.83.4.42.37.82.55,1.23.55.38,0,1.3-.17,1.51-1.78l.14-1.02c.09-.65.18-1.3.26-1.96.03-.26.07-.31.26-.39.8-.38,1.54-.84,2.26-1.29l.2-.13c1.15-.72,1.55-2.17.92-3.36-.37-.71-1.12-1.13-1.98-1.13-.41,0-.82.09-1.22.27-.18.08-.35.18-.53.28l-.07.04-.74.42c-.7.39-1.4.79-2.09,1.2-.08.05-.13.06-.14.06,0,0-.06,0-.19-.11-.54-.4-1.1-.76-1.64-1.12-.26-.17-.53-.35-.79-.52-.5-.34-1.06-.52-1.61-.52h0Z"/>
      </g>
      <g>
        <path class="cls-15" d="m51.62,87.27c-.26,0-.53-.11-.79-.32-.44-.36-.85-.53-1.28-.53s-.92.18-1.56.57c-.27.17-.53.26-.76.26s-.46-.1-.62-.27c-.21-.24-.29-.61-.23-1.09.13-1.02.27-2.05.44-3.06.06-.35-.02-.46-.25-.6-.29-.17-.56-.36-.83-.56-.24-.17-.48-.34-.73-.49-.94-.57-1.26-1.4-.93-2.41.33-1,1.08-1.5,2.31-1.53h.09s.24.08.24.08c.21.07.52.17.81.35.73.45,1.46.89,2.1,1.42.28.23.53.34.78.34.24,0,.51-.1.82-.31.9-.58,1.82-1.09,2.69-1.55.42-.22.86-.34,1.29-.34.72,0,1.32.34,1.61.9.51,1.01.06,2.23-1.08,2.89l-.61.35c-.55.31-1.11.63-1.64.98-.15.1-.31.32-.33.48-.12.65-.21,1.31-.3,1.97-.06.44-.12.88-.19,1.32-.17,1.08-.85,1.17-1.05,1.17Z"/>
        <path class="cls-14" d="m55.22,77.67c.54,0,.99.23,1.2.65.4.8.03,1.76-.9,2.29-.76.44-1.54.86-2.28,1.34-.25.16-.48.49-.53.78-.2,1.09-.32,2.2-.49,3.29-.08.49-.3.79-.61.79-.15,0-.32-.07-.5-.22-.55-.45-1.06-.63-1.57-.63-.59,0-1.18.25-1.8.64-.21.13-.38.19-.52.19-.32,0-.47-.31-.4-.85.13-1.02.27-2.03.44-3.04.08-.48-.03-.8-.47-1.06-.54-.32-1.02-.73-1.55-1.05-.75-.45-1-1.07-.73-1.89.26-.79.83-1.19,1.89-1.22.18.07.57.17.89.37.7.43,1.42.86,2.05,1.38.37.31.72.44,1.07.44s.69-.14,1.07-.38c.86-.56,1.76-1.05,2.66-1.53.36-.19.73-.29,1.07-.29m-8.66-.91h-.19c-1.42.05-2.34.67-2.72,1.85-.39,1.2.02,2.27,1.13,2.94.23.14.46.3.7.47.27.2.55.4.86.58.02.01.04.02.05.03,0,.02,0,.05-.01.1-.15.88-.29,1.83-.44,3.08-.08.61.04,1.1.34,1.44.24.27.58.43.96.43.32,0,.66-.11,1-.33.55-.34.97-.51,1.32-.51.2,0,.52.04.99.43.34.28.71.42,1.08.42.61,0,1.32-.41,1.5-1.55.07-.44.13-.88.19-1.32.09-.64.18-1.31.3-1.95.01-.05.09-.16.14-.19.51-.34,1.05-.64,1.61-.97.2-.12.41-.23.61-.35,1.35-.78,1.88-2.25,1.25-3.48-.36-.72-1.12-1.15-2.01-1.15-.5,0-1.02.14-1.5.39-.88.47-1.82.98-2.73,1.57-.24.15-.43.23-.58.23-.05,0-.2,0-.49-.24-.67-.55-1.41-1-2.12-1.44-.37-.22-.71-.34-.94-.41-.05-.02-.1-.03-.13-.04l-.17-.07h0Z"/>
      </g>
      <g>
        <path class="cls-15" d="m30.71,79.55c-1,0-1.92-.86-1.97-1.84-.03-.55.22-1.15.68-1.64.48-.51,1.12-.82,1.72-.83,1.18,0,1.96.77,1.97,1.93,0,1.24-1.09,2.35-2.36,2.38h-.04Z"/>
        <path class="cls-14" d="m31.17,75.7c.91,0,1.48.57,1.49,1.48,0,.99-.91,1.9-1.92,1.92,0,0-.02,0-.03,0-.76,0-1.48-.67-1.52-1.41-.05-.94.98-1.98,1.96-1.99,0,0,.01,0,.02,0m0-.91h-.03c-.73,0-1.47.36-2.04.97-.55.58-.84,1.3-.81,1.98.06,1.23,1.17,2.27,2.42,2.27,1.55-.03,2.86-1.36,2.85-2.84-.01-1.4-.99-2.38-2.39-2.38h0Z"/>
      </g>
      <g>
        <path class="cls-15" d="m39.76,85.32c-.57-.02-1.04-.22-1.38-.59-.34-.37-.5-.86-.48-1.44.05-1.24,1.14-2.29,2.38-2.29.6.02,1.09.23,1.43.6.35.38.53.89.51,1.44-.06,1.21-1.17,2.27-2.39,2.27h-.08Z"/>
        <path class="cls-14" d="m40.28,81.47s.03,0,.05,0c.86.03,1.48.69,1.44,1.57-.04.97-.96,1.84-1.94,1.84-.02,0-.04,0-.06,0-.91-.03-1.46-.64-1.42-1.56.04-1,.94-1.85,1.93-1.85m0-.91h0c-1.47,0-2.77,1.25-2.84,2.72-.03.7.18,1.31.6,1.77.42.45,1,.71,1.69.73h.09c1.47,0,2.77-1.24,2.84-2.7.03-.67-.19-1.3-.63-1.77-.43-.46-1.03-.73-1.69-.75h-.01s-.06,0-.06,0h0Z"/>
      </g>
      <g>
        <path class="cls-15" d="m41.4,73.8c-.54,0-1.02-.2-1.37-.55-.34-.35-.52-.84-.52-1.37.02-1.34,1.03-2.32,2.4-2.32,1.2.03,1.9.77,1.88,1.93-.02,1.27-1.08,2.31-2.37,2.31h-.02Z"/>
        <path class="cls-14" d="m41.92,70.01s.03,0,.05,0c.89.02,1.39.55,1.38,1.47-.01,1.02-.88,1.86-1.92,1.86,0,0-.01,0-.02,0-.86,0-1.45-.61-1.43-1.46.02-1.09.83-1.87,1.94-1.87m0-.91h0c-1.6,0-2.82,1.19-2.85,2.77-.01.65.22,1.25.64,1.69.43.44,1.03.68,1.69.69,1.56,0,2.83-1.23,2.85-2.75.02-1.42-.87-2.36-2.26-2.39h-.07Z"/>
      </g>
      <g>
        <path class="cls-15" d="m50.52,79.55c-1.06,0-1.89-.84-1.9-1.92-.01-1.25,1.08-2.37,2.34-2.39h0c1.17,0,1.89.71,1.93,1.85.02.62-.23,1.25-.68,1.72-.45.47-1.07.74-1.69.74h0Z"/>
        <path class="cls-14" d="m51,75.7c.88,0,1.41.52,1.44,1.41.04,1.05-.87,1.99-1.92,1.99h0c-.82,0-1.44-.64-1.45-1.47-.01-1.01.88-1.92,1.9-1.93.01,0,.02,0,.03,0m0-.91h-.05c-1.5.02-2.8,1.35-2.79,2.85.01,1.33,1.05,2.37,2.36,2.37.75,0,1.48-.32,2.02-.88.54-.56.83-1.31.81-2.05-.05-1.39-.97-2.28-2.34-2.28h0Z"/>
      </g>
      <g>
        <path class="cls-15" d="m48.84,91.09c-.56,0-1.04-.19-1.39-.54-.35-.36-.53-.86-.52-1.44.02-1.25,1.1-2.27,2.4-2.27.58,0,1.06.19,1.39.54.33.35.5.82.49,1.38-.04,1.33-1.05,2.33-2.36,2.33Z"/>
        <path class="cls-14" d="m49.32,87.3s.01,0,.02,0c.89,0,1.43.57,1.4,1.45-.03,1.07-.85,1.89-1.91,1.89-.9,0-1.48-.6-1.46-1.52.02-1.01.89-1.82,1.95-1.82m0-.91c-1.54,0-2.82,1.22-2.85,2.71-.01.69.22,1.32.65,1.76.43.44,1.04.68,1.71.68,1.53,0,2.77-1.22,2.81-2.77.02-.68-.19-1.27-.61-1.71-.42-.44-1-.67-1.69-.68h0s-.02,0-.02,0h0Z"/>
      </g>
      <g>
        <path class="cls-15" d="m29.04,91.02c-1.13-.02-1.86-.77-1.85-1.92,0-1.28,1.06-2.33,2.36-2.33.57,0,1.06.19,1.4.54.34.34.51.81.51,1.34,0,1.35-1.03,2.37-2.38,2.37h-.04Z"/>
        <path class="cls-14" d="m29.55,87.23h0c.88,0,1.46.57,1.45,1.43,0,1.1-.83,1.92-1.93,1.92,0,0-.02,0-.03,0-.88-.01-1.41-.57-1.41-1.46,0-1.03.87-1.88,1.91-1.88m0-.91c-1.55,0-2.81,1.25-2.81,2.78,0,1.4.92,2.35,2.3,2.37h0c1.65,0,2.87-1.21,2.88-2.81,0-.65-.22-1.24-.64-1.66-.43-.43-1.04-.67-1.71-.67h-.01Z"/>
      </g>
      <g>
        <path class="cls-15" d="m38.16,96.78c-.55,0-1.02-.2-1.34-.55-.32-.35-.49-.83-.48-1.39.02-1.29,1.06-2.31,2.35-2.31.58,0,1.05.19,1.39.53.34.34.51.81.5,1.37-.02,1.36-1.02,2.34-2.38,2.34h-.05Z"/>
        <path class="cls-14" d="m38.69,92.99s.01,0,.02,0c.88,0,1.43.57,1.42,1.44-.01,1.1-.82,1.9-1.93,1.9-.01,0-.03,0-.04,0-.87-.01-1.39-.57-1.38-1.48.02-1.04.86-1.86,1.9-1.86m0-.91c-1.55,0-2.78,1.21-2.81,2.75-.01.68.2,1.27.6,1.71.41.44.99.68,1.67.69h0s.05,0,.05,0c1.6,0,2.81-1.2,2.83-2.79,0-.67-.21-1.26-.63-1.69-.42-.43-1.01-.66-1.69-.67h0s-.02,0-.02,0h0Z"/>
      </g>
    </g>
    <g>
      <g>
        <path class="cls-15" d="m32.19,117.74c-1.15,0-2.07-.38-2.73-1.14-.65-.74-.99-1.76-.99-3.02,0-1.36.38-2.44,1.12-3.2.66-.67,1.51-1.02,2.52-1.02,1.34,0,2.34.46,2.98,1.38.35.51.54,1.04.57,1.57l.02.48h-2.31l-.09-.33c-.1-.35-.2-.52-.27-.6-.18-.21-.45-.31-.84-.31s-.67.15-.89.46c-.25.36-.38.9-.38,1.6s.13,1.2.38,1.51c.24.29.52.43.88.43s.63-.11.81-.34c.08-.1.19-.29.29-.67l.09-.34h2.36l-.09.53c-.14.88-.52,1.6-1.12,2.16-.61.57-1.39.85-2.33.85Z"/>
        <path class="cls-14" d="m32.11,109.81c1.19,0,2.06.39,2.61,1.18.3.44.47.89.49,1.33h-1.49c-.1-.34-.22-.6-.37-.77-.27-.31-.66-.46-1.18-.46s-.95.22-1.26.66c-.31.44-.46,1.06-.46,1.86s.16,1.4.49,1.8c.32.4.73.6,1.23.6s.9-.17,1.17-.51c.15-.18.27-.46.37-.83h1.48c-.13.78-.45,1.41-.98,1.9-.53.49-1.2.73-2.02.73-1.02,0-1.81-.33-2.4-.99-.58-.66-.87-1.57-.87-2.72,0-1.25.33-2.21.99-2.88.57-.59,1.31-.88,2.19-.88m0-.91c-1.14,0-2.09.39-2.84,1.15-.83.85-1.25,2.03-1.25,3.51,0,1.37.37,2.49,1.1,3.32.76.86,1.79,1.3,3.08,1.3,1.05,0,1.94-.33,2.64-.97.67-.63,1.1-1.44,1.26-2.42l.17-1.05h-3.24l-.18.67c-.09.34-.18.46-.2.49-.05.06-.14.18-.47.18-.22,0-.38-.08-.53-.26-.13-.16-.28-.5-.28-1.23,0-.6.1-1.06.3-1.34.14-.19.28-.27.52-.27.37,0,.46.11.49.15.02.02.1.12.18.43l.18.66h3.13l-.05-.95c-.03-.61-.25-1.22-.65-1.8-.73-1.05-1.86-1.58-3.35-1.58h0Z"/>
      </g>
      <g>
        <path class="cls-15" d="m41.7,117.54l-.47-1.47h-1.97l-.48,1.47h-2.53l2.87-8.04h2.33l2.85,8.04h-2.59Zm-1.16-3.6l-.29-.89-.29.89h.58Z"/>
        <path class="cls-14" d="m41.12,109.95l2.53,7.14h-1.62l-.47-1.47h-2.63l-.48,1.47h-1.56l2.55-7.14h1.69m-1.79,4.44h1.83l-.9-2.81-.93,2.81m2.43-5.35h-2.97l-.21.6-2.55,7.14-.43,1.21h3.5l.21-.62.28-.85h1.31l.27.84.2.63h3.56l-.43-1.21-2.53-7.14-.21-.6h0Z"/>
      </g>
      <g>
        <polygon class="cls-15" points="45.09 117.54 45.09 109.51 51.09 109.51 51.09 111.67 47.48 111.67 47.48 112.4 50.64 112.4 50.64 114.55 47.48 114.55 47.48 117.54 45.09 117.54"/>
        <path class="cls-14" d="m50.63,109.96v1.25h-3.61v1.64h3.16v1.24h-3.16v2.99h-1.48v-7.13h5.09m.91-.91h-6.9v8.94h3.29v-2.99h3.16v-2.88h.45v-3.07h0Z"/>
      </g>
    </g>
  </g>
  <g>
    <path class="cls-9" d="m51.92,60.4s-4.96-3.98-17.46-9.32c-9.41-4.02-19.1-5.21-19.1-5.21l5.83-14.66s10.26,1.85,18.13,4.97c10.33,4.11,18.43,9.56,18.43,9.56l-5.83,14.66Z"/>
    <path class="cls-12" d="m18.71,45.36c-.09-.04-.16-.1-.21-.19-.06-.11-.07-.24-.02-.35.11-.27.09-.57-.05-.82-.13-.25-.37-.42-.65-.48-.12-.02-.22-.1-.28-.21-.06-.11-.07-.24-.02-.35l3.6-9.04c.08-.19.28-.3.48-.25.46.11.93-.14,1.11-.59.08-.19.28-.3.48-.25,2.79.63,9.92,2.36,15.73,4.67,7.6,3.02,13.98,6.66,16.37,8.08.18.1.25.32.17.51-.18.44-.01.94.39,1.19.18.1.25.32.17.51l-3.59,9.04c-.05.11-.14.2-.26.24-.12.04-.24.02-.35-.04-.24-.15-.53-.18-.8-.1-.27.09-.49.3-.6.57-.05.11-.14.2-.26.24-.12.04-.25.02-.35-.04-2.11-1.32-6.85-4.05-14.98-7.48-6.38-2.7-12.77-4.18-16.02-4.82-.03,0-.05-.01-.07-.02Zm-.3-2.49c.32.16.58.42.75.73.18.33.25.69.21,1.05,3.39.69,9.57,2.17,15.75,4.78,7.74,3.27,12.44,5.91,14.73,7.32.22-.29.52-.51.87-.62.34-.11.71-.12,1.05-.02l3.32-8.34c-.45-.41-.66-1.03-.55-1.64-2.56-1.51-8.71-4.97-15.97-7.86-5.55-2.21-12.33-3.88-15.3-4.56-.34.52-.92.83-1.53.82l-3.32,8.35Z"/>
    <path class="cls-12" d="m32.34,41.97c.98-2.47,3.78-3.67,6.24-2.69,2.47.98,3.67,3.78,2.69,6.24-.98,2.47-3.78,3.67-6.24,2.69-2.47-.98-3.67-3.78-2.69-6.24Z"/>
    <path class="cls-12" d="m27.12,40.38c.4-.99,1.52-1.48,2.52-1.08.99.4,1.48,1.52,1.08,2.52-.4.99-1.52,1.48-2.52,1.08-.99-.4-1.48-1.52-1.08-2.52Z"/>
    <path class="cls-12" d="m41.88,46.24c.4-.99,1.52-1.48,2.52-1.08.99.4,1.48,1.52,1.08,2.52-.4.99-1.52,1.48-2.52,1.08-.99-.4-1.48-1.52-1.08-2.52Z"/>
    <g>
      <path d="m35.78,47.15s-.05,0-.07-.01l-.48-.2c-.09-.04-.14-.15-.1-.24l.25-.61c-.4-.21-.76-.51-.95-.81-.04-.07-.04-.16.02-.22l.39-.44s.08-.06.14-.06c0,0,0,0,.01,0,.06,0,.11.03.14.08.21.31.53.57.88.71.14.06.27.08.4.08.27,0,.48-.13.58-.36.13-.32,0-.62-.45-1.06-.6-.57-1.1-1.21-.76-2.04.23-.58.76-.93,1.42-.93.1,0,.2,0,.3.02l.26-.63s.05-.08.1-.1c.02,0,.05-.01.07-.01s.05,0,.07.01l.47.19c.09.04.14.15.1.24l-.24.58c.33.17.59.38.8.65.05.07.05.17-.01.24l-.4.43s-.08.06-.13.06c0,0,0,0,0,0-.05,0-.1-.03-.14-.07-.1-.12-.32-.41-.78-.6-.13-.05-.25-.08-.36-.08-.33,0-.45.24-.48.31-.12.28,0,.52.55,1.06.5.49,1.03,1.17.66,2.09-.24.6-.81.97-1.49.97-.1,0-.2,0-.3-.02l-.27.66s-.05.08-.1.1c-.02,0-.05.01-.07.01Z"/>
      <path class="cls-14" d="m37.91,40.5l.47.19-.3.74c.45.2.72.45.88.67l-.4.43c-.12-.16-.37-.45-.86-.65-.16-.07-.3-.09-.43-.09-.34,0-.56.2-.65.42-.16.4.04.71.59,1.26.66.64.89,1.2.62,1.89-.2.5-.68.86-1.32.86-.13,0-.27-.02-.42-.05l-.32.8-.48-.2.31-.77c-.44-.19-.84-.51-1.03-.81l.39-.44c.2.3.54.6.97.78.16.07.32.1.47.1.34,0,.62-.17.75-.48.17-.42-.02-.8-.49-1.26-.65-.63-.99-1.17-.72-1.84.21-.52.68-.81,1.25-.81.13,0,.27.02.41.05l.31-.77m0-.37s-.1,0-.14.03c-.09.04-.16.11-.2.2l-.2.5c-.06,0-.12,0-.18,0-.73,0-1.32.39-1.59,1.04-.38.93.2,1.66.81,2.25.5.49.47.7.41.86-.08.21-.27.25-.41.25-.1,0-.21-.02-.33-.07-.32-.13-.62-.37-.8-.64-.06-.09-.17-.15-.28-.16,0,0-.02,0-.02,0-.1,0-.2.04-.27.12l-.39.44c-.11.12-.12.3-.04.44.18.29.5.58.88.79l-.19.46c-.08.19.01.4.2.48l.48.2s.09.03.14.03.1,0,.14-.03c.09-.04.16-.11.2-.2l.21-.53c.06,0,.12,0,.18,0,.75,0,1.39-.42,1.66-1.09.41-1.02-.16-1.76-.7-2.29-.57-.56-.57-.71-.51-.86.03-.07.11-.19.31-.19.09,0,.18.02.29.07.42.17.61.42.71.54.07.08.17.14.27.14,0,0,.01,0,.02,0,.1,0,.2-.04.27-.12l.4-.43c.12-.13.13-.33.02-.47-.19-.25-.42-.45-.71-.62l.18-.43c.08-.19-.01-.4-.2-.48l-.47-.19s-.09-.03-.14-.03h0Z"/>
    </g>
    <circle class="cls-8" cx="25.76" cy="54" r="3.5"/>
    <circle class="cls-8" cx="30.83" cy="56.81" r="3.5" transform="translate(-33.74 59.67) rotate(-64.05)"/>
    <circle class="cls-7" cx="37.84" cy="57.76" r="2.34" transform="translate(-16.79 15.52) rotate(-19.06)"/>
    <path d="m29.78,58.61l.19-.47c-.27-.12-.52-.32-.63-.5l.24-.27c.12.18.33.37.59.48.33.14.64.03.75-.23s-.01-.49-.3-.78c-.4-.38-.61-.72-.44-1.13s.56-.57,1.02-.47l.19-.48.29.12-.19.46c.28.12.44.28.54.41l-.24.26c-.08-.1-.23-.28-.53-.4-.36-.15-.59.01-.66.2-.1.24.02.44.36.77.4.39.55.74.38,1.16-.15.37-.55.61-1.07.5l-.2.49-.3-.12Z"/>
    <path d="m25.7,56.08l-.02-.52c-.29,0-.6-.08-.77-.21l.11-.34c.18.12.45.21.73.2.36,0,.59-.22.58-.51s-.21-.45-.59-.59c-.52-.19-.84-.42-.86-.86s.27-.75.73-.84l-.02-.52h.31s.02.49.02.49c.3,0,.51.08.66.16l-.12.34c-.11-.06-.32-.17-.64-.16-.39,0-.52.25-.52.45,0,.27.2.39.64.57.52.2.79.46.81.92.01.4-.25.79-.77.89l.02.53h-.32Z"/>
    <path d="m38.26,59.16l-.13-.36c-.21.07-.44.08-.6.04v-.27c.16.04.36.04.56-.03.25-.09.37-.3.29-.5s-.26-.27-.56-.28c-.41-.01-.7-.1-.81-.41s.01-.6.32-.77l-.13-.36.22-.08.13.35c.22-.07.38-.06.51-.04v.27c-.09-.02-.27-.04-.49.04-.27.1-.31.3-.26.44.07.19.23.23.59.25.42.02.67.14.79.46.1.28,0,.62-.33.81l.14.37-.22.08Z"/>
  </g>
  <g>
    <line class="cls-13" x1="54.51" y1="34.88" x2="77.99" y2="33.49"/>
    <g>
      <line class="cls-6" x1="54.51" y1="34.88" x2="76.91" y2="33.55"/>
      <polygon points="73.84 37.83 73.12 37.14 76.53 33.58 72.72 30.44 73.36 29.67 77.99 33.49 73.84 37.83"/>
    </g>
  </g>
  <rect class="cls-11" x="-805.21" y="-282.18" width="1509.9" height="999.05"/>
</svg>