<?xml version="1.0" encoding="UTF-8"?><svg id="Calque_1" xmlns="http://www.w3.org/2000/svg" viewBox="0 0 200.13 128.13"><defs><style>.cls-1{fill:#bbfedb;}.cls-1,.cls-2,.cls-3,.cls-4,.cls-5,.cls-6,.cls-7,.cls-8,.cls-9,.cls-10{stroke-linejoin:round;}.cls-1,.cls-3,.cls-4,.cls-5,.cls-6,.cls-7,.cls-8,.cls-9,.cls-10{stroke:#000;}.cls-2{stroke:#e30613;stroke-width:8px;}.cls-2,.cls-5,.cls-6,.cls-8{stroke-linecap:round;}.cls-2,.cls-8{fill:none;}.cls-3{fill:#f3d587;}.cls-4,.cls-5{fill:#77eddf;}.cls-6,.cls-9{fill:#fff;}.cls-7{fill:#87ccf3;}.cls-11{fill:#fee4cb;}.cls-10{fill:#d6d6d6;}</style></defs><rect class="cls-2" x="-1880.93" y="-1253.45" width="2655.08" height="1511.77"/><path class="cls-9" d="m40.23,84.57s.75-1.87,2.34-5.14c1.59-3.27,2.8-5.89,5.7-7.57,1.87-1.03,5.85-1.72,6.78-3.4.44-1.19,1.26-2.91.49-9.72l2.13.4,6.39,4.9s-.67,3.97.49,4.57c2.38,1.18,4.34,1.32,6.17,1.46,0,0,0,0,0,0h0c6.66.02,15.07-.7,21.44-2.6,6.38-1.89,11.49-4.56,11.49-4.56,1.12-.84,1.54-2.03,1.89-3.36.35-1.33.6-2.07.88-2.03.49.06.32.95.21,1.75-.06.5.07,1.44.07,1.44,0,0,1.31-.58,2-1.33,1.05-1.16,1.72-2.63,2.24-2.35.36.19-.28,1.3-.63,1.86-.35.56-.91,1.44-.91,1.44,0,0,1.16-.67,1.75-1.19s1.3-1.33,1.65-1.09c.35.25-.6,1.37-1.12,1.89-.53.53-1.3,1.23-1.3,1.23,0,0,.81-.21,1.51-.49s1.19-.67,1.37-.39-2,1.96-3.82,3.12-3.54,2.14-3.54,2.14l-.15-.17c-.97.96-7.16,6.94-13.73,9.39-7.06,2.63-11.87,3.96-17.32,4.46.7,2.18,1.5,5.16,1.5,5.16h-25.32s-.18-.46-.45-1.21c-.58.8-.95,1.39-.95,1.39h-9.25Z"/><path class="cls-9" d="m91.25,61.85c-.14,1.4-.35,2.49-.35,2.49l-2.38.21,1.12-2.59,1.61-.1Z"/><path class="cls-9" d="m82.89,67.75c.4.16.71-.94,1.26-1.71.54-.77.87-1.16.95-1.09.08.08-.48,1.33-.74,2.18-.25.85-.56,2.29-.16,2.49.4.2.92-1.22,1.34-2.16.42-.97.81-1.6.95-1.57.07.02-.12.91-.18,1.82-.06.97.09,1.83.32,1.83.49,0,.55-1.96,1.36-3.5.81-1.53.66-1.29,2.56-3.58,0,0,6.21-4.12,10.28-8.53,5.01-5.45,8.01-9.88,11.09-13.34l-3.74-8.41c-5.04,4.48-6.09,7.02-11.32,14.97-5.23,7.94-9.95,13.17-9.95,13.17-1.05,1.05-2,1.88-3.18,3.93-.7,1.21-1.24,3.34-.84,3.5Z"/><path class="cls-4" d="m105.66,125.49h9.7c3.62-11.39,4.95-22.08,4.95-22.08l3.56-15.92.18-.77s1.06,9.44,2.23,17.32c.67,4.41,2.26,14.92,3.26,21.45h9.5c.15,0,.29,0,.44-.01-.01-6.29-.15-16.8-.55-24.25-.11-2.02.07-8.5.18-15.73.13-9.45.12-20.2-.86-24.12l-23.88.69c-.04,2.35-2.03,13.41-3.72,23.43-1.16,6.89-2.18,13.28-2.33,16-.24,4.71-1.78,17.08-2.66,23.99Z"/><path class="cls-9" d="m122.57,77.56c.11,0,.2-.08.21-.19.01-.12-.07-.22-.19-.23-1.53-.15-2.94-1.15-2.96-1.16-.09-.07-.23-.05-.29.05-.07.09-.05.23.05.29.06.04,1.52,1.08,3.16,1.24,0,0,.01,0,.02,0Z"/><path class="cls-1" d="m112.75,63.16s4.18,3.16,11.22,3.16c8.08,0,13.76-1.77,15.03-3.81l-1.07-3.31s-5.75,3.36-13.46,3.22-11.07-2.24-11.07-2.24l-.65,2.98Z"/><path class="cls-9" d="m53.09,57.32l1.24,1.02.3.25s.05,0,.07-.02c0,0,0,0,0-.02,0,0-.18-.29-.46-.59-.29-.31-.7-.64-1.14-.65Z"/><path class="cls-9" d="m54.23,57.96c.03.13.06.24.1.37l.3.25s.05,0,.07-.02c0,0,0,0,0-.02,0,0-.18-.29-.46-.59Z"/><path class="cls-9" d="m53.09,57.32l1.24,1.02.3.25s.05,0,.07-.02c0,0,0,0,0-.02,0,0-.18-.29-.46-.59-.29-.31-.7-.64-1.14-.65Z"/><path class="cls-4" d="m106.95,48.24s-5.63-2.19-7.42-7.11c0,0,7.42-12.56,12.98-15.03l2.58,12.99s-5.06,6.34-8.13,9.15Z"/><path class="cls-5" d="m128.95,31.59c-2.3-3.21-6.42-5.78-9.32-5.83-5.59-.1-8.72.23-10.37,3.38-1.6,3.06-2.34,9.5-1.8,12.1.9,4.36,3.53,5.11,4.88,9.92,1.13,4.01.41,9.48.41,9.48,0,0,4.18,3.16,11.22,3.16,8.08,0,13.76-1.77,15.03-3.81,0,0-.68-2.87-3.32-12.28-1.96-7.01-4.18-12.57-6.73-16.12Z"/><path class="cls-1" d="m121.66,27.19c-.45,3.28-9.72,7.93-9.72,7.93,0,0-1.63-6.06-1.08-7.45.55-1.39,2.41-2.25,5.65-2.26,3.24,0,5.31.58,5.15,1.78Z"/><path class="cls-9" d="m120.54,26.86c-1.82-4.46-1.81-6.25-1.81-6.25l-3.69-2.93-3.87.82c.66,2.42,1.77,7.02,1.16,9.15-.11.4,2.05,1.42,4.01,1.21,2.2-.24,4.31-1.73,4.19-2.01Z"/><path class="cls-9" d="m96.35,72.6s.73.27,2.2-.33c0,0,.06.88,1.71.11,0,0-.1.45.71.4,1.08-.07,2.79-1.23,3.69-2.33,0,0,12.29-3.07,19.53-14.47,5.21-8.21,5.39-20.3,5.39-20.3l-7.66-1.58s-1.42,11.69-4.69,17.86c-4.35,8.2-12.27,14.01-13.18,14.66-.04-.08-.07-.13-.07-.13-1.35.74-2.39.62-4,.45-1.61-.16-2.94-.49-3.08-.07-.22.64,2.08,1.35,2.93,1.77,0,0-1.19,2.31-3.48,3.96Z"/><path class="cls-10" d="m33.32,85.5v12.84c0,15,12.16,27.15,27.16,27.15h78.56c.15,0,.29,0,.44-.01,14.79-.22,26.72-12.29,26.72-27.14v-12.84s-132.88,0-132.88,0Z"/><path class="cls-10" d="m29.4,84.66c0,.98.79,1.78,1.77,1.78h139.04c.98,0,1.78-.8,1.78-1.78,0-.98-.8-1.77-1.78-1.77H31.17c-.98,0-1.77.79-1.77,1.77Z"/><path class="cls-4" d="m128.08,51.06s-6.17.7-10.93-2.66c0,0,3.54-19.94,9.11-18.08,8.83,2.94,1.82,20.74,1.82,20.74Z"/><path class="cls-3" d="m92.21,63.2c-.5-.25-3.25.71-6.34,1.36s-6.37.8-6.94,1.06c-.56.25-.62,2.04-.5,3.9.12,1.86.39,3.38,1.11,3.75.72.37,4.17.01,7.49-.56,3.32-.57,6.16-1.5,6.75-2.1s.3-2.53.02-4.12c-.28-1.59-1.01-2.99-1.6-3.29Z"/><path class="cls-11" d="m90.82,68.47c0,.5.43.93.95.95.53.02.95-.37.95-.88s-.43-.93-.95-.95c-.53-.02-.95.37-.95.88Z"/><path class="cls-11" d="m89.61,66.68c0,.23.2.43.45.44.25,0,.45-.17.45-.4,0-.23-.2-.43-.45-.44-.25,0-.45.17-.45.4Z"/><path class="cls-11" d="m90.88,64.52c0,.33.27.61.6.62.33.01.6-.25.6-.57,0-.33-.27-.61-.6-.62-.33-.01-.6.25-.6.57Z"/><path class="cls-11" d="m87.5,70c0,.33.27.61.6.62.33.01.6-.25.6-.57,0-.33-.27-.61-.6-.62-.33-.01-.6.25-.6.57Z"/><path class="cls-11" d="m82.09,70.72c0,.48.43.89.95.91.53.02.95-.36.95-.84,0-.48-.43-.89-.95-.91-.53-.02-.95.36-.95.84Z"/><path class="cls-11" d="m81.39,68.84c0,.23.21.43.48.44.26,0,.48-.17.48-.4s-.21-.43-.48-.44c-.26,0-.48.17-.48.4Z"/><path class="cls-11" d="m79.36,66.59c0,.35.3.64.67.65.37.01.67-.26.67-.61,0-.35-.3-.64-.67-.65-.37-.01-.67.26-.67.61Z"/><path class="cls-11" d="m79.74,70.64c0,.21.17.39.38.4.21,0,.38-.16.38-.37s-.17-.39-.38-.4c-.21,0-.38.16-.38.37Z"/><path class="cls-7" d="m160.26,82.89H42.38s2.38-2.86,6.03-3.18,5.05,1.27,5.05,1.27c0,0,5.84-6.99,15.18-6.77,9.34.21,14.39,5.5,14.39,5.5,0,0,.42-2.06,4.35-2.7,3.92-.64,6.31,2.54,6.31,2.54,0,0,4.91-6.67,12.19-8.26,7.29-1.59,13.88,2.54,13.88,2.54,0,0,1.82-3.02,6.17-1.91,4.35,1.11,5.33,3.97,5.33,3.97,0,0,6.17-3.33,13.18-1.91,7.01,1.43,8.55,6.03,8.55,6.03,0,0,1.68-1.27,4.35-.32s2.94,3.18,2.94,3.18Z"/><path class="cls-8" d="m59.69,43.6s0,1.47-.56,2.45h-.01"/><path class="cls-8" d="m56.81,46.64c-1.15-.68-1.92-2.39-1.92-2.39"/><path class="cls-8" d="m53,60.05h-.01c-.14-.03-1.08-.29-1.62-1.8-.59-1.63-1.28-1.45-1.33-3.12-.02-1.58,1.61-.88,1.79-.78"/><path class="cls-8" d="m66.57,45.76s-1.14.66-2.41.88"/><path class="cls-6" d="m54.41,47.33c.72.05,1.56-.12,2.41-.69.35.22.71.33,1.11.29.56-.05.93-.42,1.19-.88.01.01.03.02.04.02.16.15,1.15,1.04,2.4-.15.64.78,1.66.88,2.6.71.56.44,1.33.4,1.33.4.04.06.1.14.13.2,2.28,3.3,2.48,5.52,2.5,5.76.15-.58.26-1.14.34-1.66-.13.98-.33,1.69-.37,1.84h0s-.01.04-.01.04h.01c.02.93,0,3.33-.4,5.81-.34,2.06-.99,4.18-2.14,5.54-2.66,3.16-4.36,3.2-4.61,3.18-.26.06-2.06.31-5.12-2.49-1.32-1.19-2.24-3.21-2.85-5.21-.73-2.4-1.06-4.78-1.16-5.7h.01c-.02-.11-.03-.21-.02-.33.03.09.06.14.06.14-.03-.38-.02-.77,0-1.14.27-1.92,2.07-5.09,2.28-5.64l.26-.04Z"/><path class="cls-8" d="m51.86,53.02c-.06.36-.07.7-.05,1"/><path class="cls-8" d="m51.83,54.35s0-.01-.02-.03h0c-.08-.19-.49-1.14-.76-2.43v-.04c-.55-2.57-.52-6.45,3.76-8.13,0,0,.28-1.4,2.08-1.16,0,0,2.12-2.26,4.61-.36,1.75-.48,2.22.88,2.22.88,4.81,1.19,5.07,5.54,4.76,8.13,0,.05-.02.09-.02.13"/><path class="cls-8" d="m65.67,47.51s2.44,3.63,2.42,5.71"/><path class="cls-8" d="m51.78,53.95h0c0,.05.01.17.04.36h0s0,.04,0,.04"/><path class="cls-8" d="m68.1,53.22v-.03"/><path class="cls-8" d="m68.09,52.82s0,.13.01.36"/><path class="cls-8" d="m67.69,59.03h.01c.13-.05,1.04-.43,1.37-2,.37-1.69,1.08-1.6.9-3.27-.18-1.57-1.71-.66-1.87-.54"/><path class="cls-8" d="m62.6,44.51c-.32.58-.64,1.01-.94,1.31-.04.04-.06.08-.1.1"/><path class="cls-8" d="m59.16,46.07l-.03-.02"/><path class="cls-6" d="m60.75,52.93s.5,4.99,1.56,7.51c0,0-.22.51-1.84.17"/><path class="cls-8" d="m112.69,3.26s.13,1.43.74,2.35h.01"/><path class="cls-8" d="m115.75,6.01c1.07-.76,1.69-2.49,1.69-2.49"/><path class="cls-8" d="m120.56,18.84h.01c.13-.04,1.04-.37,1.45-1.89.44-1.64,1.14-1.52,1.05-3.16-.1-1.55-1.64-.73-1.81-.63"/><path class="cls-8" d="m106.12,5.92s1.17.56,2.43.67"/><path class="cls-6" d="m118.16,6.49c-.7.1-1.54.01-2.41-.49-.32.24-.67.38-1.07.37-.55,0-.95-.34-1.24-.76-.01.01-.03.03-.04.03-.14.16-1.04,1.11-2.36.05-.56.82-1.55.99-2.49.9-.51.48-1.27.5-1.27.5-.04.07-.09.15-.11.21-1.97,3.41-1.99,5.61-1.99,5.84-.19-.56-.34-1.09-.47-1.6.21.95.46,1.63.51,1.77h0s.01.04.01.04h-.01c.05.91.26,3.26.86,5.66.5,1.99,1.3,4.02,2.54,5.25,2.85,2.88,4.52,2.79,4.77,2.75.26.04,2.04.14,4.82-2.84,1.19-1.27,1.93-3.32,2.37-5.33.52-2.41.66-4.76.68-5.68h-.01c.01-.1,0-.21,0-.33-.02.09-.05.14-.05.14,0-.38-.04-.76-.08-1.12-.42-1.86-2.43-4.82-2.69-5.34l-.26-.02Z"/><path class="cls-8" d="m121.11,11.85c.08.35.13.68.13.98"/><path class="cls-8" d="m121.24,13.16s0-.01.01-.03h0c.06-.2.39-1.16.55-2.44v-.04c.33-2.56,0-6.36-4.34-7.67,0,0-.39-1.35-2.13-.97,0,0-2.25-2.04-4.55.02-1.76-.33-2.1,1.04-2.1,1.04-4.61,1.55-4.52,5.83-4.01,8.34.01.05.03.09.03.13"/><path class="cls-8" d="m107.14,7.56s-2.1,3.75-1.91,5.79"/><path class="cls-8" d="m121.26,12.77h0c0,.05,0,.17,0,.35h0s0,.04,0,.04"/><path class="cls-8" d="m105.22,13.35v-.03"/><path class="cls-8" d="m105.2,12.96s0,.13.02.35"/><path class="cls-8" d="m106.09,19.01h-.01c-.13-.04-1.05-.34-1.5-1.84-.5-1.62-1.19-1.48-1.15-3.13.05-1.56,1.62-.78,1.79-.68"/><path class="cls-8" d="m109.92,4.38c.36.54.71.94,1.02,1.21.04.04.07.08.11.09"/><path class="cls-8" d="m113.41,5.64l.03-.03"/><path class="cls-6" d="m110.62,14.23s-.09,4.93-.93,7.48c0,0,.25.48,1.81.02"/></svg>