<?xml version="1.0" encoding="UTF-8"?><svg id="Calque_1" xmlns="http://www.w3.org/2000/svg" viewBox="0 0 200 128"><defs><style>.cls-1{stroke:#e30613;stroke-width:8px;}.cls-1,.cls-2,.cls-3,.cls-4{stroke-linecap:round;stroke-linejoin:round;}.cls-1,.cls-3{fill:none;}.cls-5{fill:#77eddf;}.cls-5,.cls-6,.cls-7,.cls-2,.cls-3,.cls-8,.cls-9,.cls-4,.cls-10,.cls-11{stroke:#000;}.cls-5,.cls-6,.cls-7,.cls-8,.cls-9,.cls-10,.cls-11{stroke-miterlimit:10;}.cls-6{fill:#76ac75;}.cls-7{fill:#ff6d75;}.cls-2,.cls-9{fill:#fff;}.cls-8{fill:#bbfedb;}.cls-4{stroke-width:.75px;}.cls-4,.cls-10{fill:#d6d6d6;}.cls-11{fill:#f3d587;}</style></defs><circle class="cls-6" cx="100.84" cy="66.3" r="2.52"/><rect class="cls-1" x="-1293.74" y="-1253.51" width="2655.08" height="1511.77"/><path class="cls-9" d="m86.83,87.37c-.67.63-1.78-.41-1.78-.41,0,0,0,.9-.82,1.13-.84.24-1.52-.38-1.52-.38,0,0,.04.91-.91.88-.94-.02-3.32-2.57-5.66-3.87-.43-.24-.69-.48-.82-.72-5.24-1.42-11.19-2.92-18.57-8.1-9.19-6.91-13.54-23.42-13.54-23.42l8.06-7.32s4.15,14.22,11.27,22.56c4.53,5.31,14.28,10.8,18,12.94,4.39,2.9,7.12,5.93,6.28,6.72Z"/><rect class="cls-9" x="79.4" y="82.34" width="8.5" height="15.41"/><rect class="cls-11" x="79.4" y="87.18" width="8.5" height="10.57"/><rect class="cls-9" x="102.73" y="76.87" width="75.11" height="33.86"/><path class="cls-9" d="m106.71,68.52c-1.6.99-1.46,10.05-.92,17.64.55,7.6-1.83,24.75-.18,29.16,1.65,4.41,10.99,1.72,26.92,2.45,15.93.74,32.96,3.92,35.16,1.72,2.2-2.21-.82-18.38-.82-27.93s2.7-20.09,1.37-21.56c-2.36-2.61-17.85.98-31.31.49-13.46-.49-26.64-4.17-30.21-1.96Z"/><path class="cls-9" d="m168.24,69.99c-1.15-1.27-5.42-1.07-11.05-.59,2.36-.02,4.03.22,4.68.94,1.31,1.45-1.35,11.83-1.35,21.24s2.98,25.34.81,27.52c-.59.59-2.26.79-4.69.75,5.81.51,10.03.65,11.05-.37,2.2-2.21-.82-18.38-.82-27.93s2.7-20.09,1.37-21.56Z"/><path class="cls-5" d="m55.43,121.26h-16.42l-1.51-7.54s-.4,3.14-1,7.54h-17.65c.01-5.27.01-11.67.1-17.87.02-1.55.05-3.08.09-4.58.1-3.8.25-7.38.48-10.41.05-.71.11-1.39.16-2.04.21-2.07.46-3.77.78-4.98h0s29.28.86,29.28.86h.32v.12c0,.14.01.31.02.49.05.83.17,2.09.37,3.67.07.58.15,1.21.24,1.89.39,2.88.91,6.49,1.49,10.4.23,1.49.45,3.02.69,4.58.89,6.07,1.84,12.47,2.57,17.87Z"/><path class="cls-8" d="m50.42,82.89l-30.45-1.52c-.62,4.12-1.27,6.15-1.27,6.15,1.58,2.54,9.4,4.5,19.46,4.5,8.77,0,12.86-3.88,12.86-3.88,0,0-.32-1.74-.6-5.26Z"/><path class="cls-5" d="m47.57,64.02c5,.41,9.51-.76,13.25-4.3-2.92-6.81-4.25-18.39-10.57-18.14-6.13.24-7.74,10.66-2.68,22.44Z"/><rect class="cls-10" x="68.11" y="95.58" width="39.88" height="3.55" transform="translate(.12 -.11) rotate(.07)"/><path class="cls-5" d="m30.35,46.55c2.91-4.05,7.85-6.46,11.52-6.52,7.06-.12,11.02.28,13.1,4.27,2.02,3.86,2.96,12.01,2.28,15.29-1.14,5.51-4.46,6.46-6.17,12.54-1.42,5.06.41,13.74.41,13.74,0,0-5.28,3.99-14.18,3.99-10.21,0-17.39-2.24-18.99-4.81,0,0,2-6.65,5.06-18.61,2.53-9.88,3.74-15.4,6.96-19.88Z"/><path class="cls-9" d="m52.94,45.47c-.05.35-.1.72-.17,1.09-.02.15-.05.3-.07.45-.03.13-.05.26-.08.39-.04.22-.08.43-.12.63-.02.12-.05.24-.07.35-.12.55-.24,1.09-.35,1.56v.02c-.06.23-.11.44-.15.63-.13.52-.24.92-.29,1.13-.01.03-.02.06-.02.08-.01.04-.02.06-.02.06,0,0-.76-.38-1.91-1.02-.11-.06-.24-.13-.37-.21-.45-.26-.94-.53-1.45-.85-1.05-.63-2.2-1.36-3.32-2.15-.11-.08-.23-.16-.35-.26,1.03.19,3.01.41,5.56-.15,1.53-.33,2.55-1.1,3.19-1.75Z"/><path class="cls-8" d="m52.94,45.47c-.05.35-.1.72-.17,1.09-.02.15-.05.3-.07.45-.03.13-.05.26-.08.39-.04.22-.08.43-.12.63-.02.12-.05.24-.07.35-.12.55-.24,1.09-.35,1.56v.02c-.05.23-.1.44-.15.63-.13.52-.24.92-.29,1.13-.01.03-.02.06-.02.08-.01.04-.02.06-.02.06,0,0-.76-.38-1.91-1.02-.12-.06-.25-.13-.37-.21-.45-.26-.94-.53-1.45-.85-1.05-.61-2.2-1.35-3.32-2.15-.12-.08-.25-.16-.37-.26h.02c1.03.19,3.01.41,5.56-.15,1.53-.33,2.55-1.1,3.19-1.75Z"/><path class="cls-7" d="m126.58,63.04c-3.45,1.15-9.57,3.57-14.29,14.08-4.72,10.51-5.43,17.48-2.72,21.61,4.33-2.61,8.56-5.27,10.75-8.98,0,0,.94-4.49,3.31-8.86,2.36-4.37,2.95-17.86,2.95-17.86Z"/><path class="cls-7" d="m128.26,62.4c-2.81.79-5.31,2.77-8.32,8.61-1.97,3.83-2.71,5.57-2.6,9.63s2.4,6.7,3.04,8.67c1.8,5.52-1.91,11.6-1.91,11.6,0,0,2.14.9,8.44,1.35s17.45,1.46,21.5,5.63c0,0,1.91-5.63,1.58-17.34-.34-11.71.34-17.11-.56-20.38-.9-3.26-4.24-5.6-8.14-7.3-3.9-1.7-13.02-.47-13.02-.47Z"/><path class="cls-7" d="m134.85,93.89c-1.65-1.89-14.53-4.13-14.53-4.13-6.26-.47-11.34,2.6-10.75,8.98h26.81s.12-2.95-1.54-4.84Z"/><path class="cls-9" d="m118.29,94.92s-3.49.27-5.68,1.06c-1.58.57-4.19,2.84-4.19,2.84h10.01l-.14-3.9Z"/><path class="cls-7" d="m145.01,64.9c6.02,3.01,9.03,10.63,10.27,22.14,1.24,11.51-3.01,17.71-9.39,17.18s-14.88-1.95-28.7-3.19c0,0-1.95-4.07.71-6.73,2.66-2.66,13.46-4.25,24.27-2.66,0,0,.53-3.19-1.77-10.81-2.3-7.62-1.06-15.23,4.61-15.94Z"/><path class="cls-7" d="m133.14,61.77c-4.25.24-6.44,1.12-7.62,1.83s1,3.25,5.9,3.19c4.9-.06,10.45-2.36,10.57-3.25.12-.89-4.73-2-8.86-1.77Z"/><path class="cls-9" d="m132.07,65.25c-3.1-.18-5.05-2.11-5.05-2.11,1.46-.76.62-5.78.62-5.78l8.08-6.2,2.69-.5c-.97,8.6.06,10.78.62,12.29.1.23-3.68,2.48-6.96,2.29Z"/><rect class="cls-9" x="9" y="98.81" width="177.76" height="22.45"/><path class="cls-3" d="m130.86,33.15s.18,1.72.93,2.8h.02"/><path class="cls-3" d="m134.54,36.37c1.26-.94,1.95-3.04,1.95-3.04"/><path class="cls-3" d="m140.51,51.64h.02c.15-.05,1.23-.47,1.68-2.31.5-1.98,1.32-1.86,1.18-3.83-.15-1.86-1.97-.83-2.16-.7"/><path class="cls-3" d="m123.11,36.53s1.4.64,2.89.74"/><path class="cls-2" d="m137.41,36.88c-.83.14-1.83.06-2.87-.52-.38.3-.79.47-1.26.47-.65,0-1.13-.38-1.49-.88-.01.02-.03.03-.05.03-.16.19-1.21,1.37-2.8.12-.65,1-1.82,1.23-2.94,1.15-.6.59-1.5.64-1.5.64-.04.08-.1.18-.13.26-2.27,4.15-2.25,6.79-2.24,7.07-.24-.67-.43-1.3-.59-1.91.27,1.14.57,1.94.64,2.11v.02s.02.03.02.03h-.02c.08,1.1.37,3.91,1.13,6.77.63,2.38,1.63,4.79,3.12,6.23,3.44,3.38,5.42,3.23,5.72,3.17.31.04,2.42.11,5.66-3.55,1.39-1.56,2.23-4.04,2.71-6.46.57-2.91.69-5.74.7-6.84h-.02c.01-.13,0-.25-.01-.39-.03.11-.06.17-.06.17-.01-.45-.06-.91-.12-1.34-.54-2.22-2.98-5.72-3.3-6.34l-.3-.02Z"/><path class="cls-3" d="m141.02,43.24c.11.42.17.81.18,1.17"/><path class="cls-3" d="m141.2,44.8s0-.02.01-.03v-.02c.07-.22.44-1.38.6-2.93v-.05c.33-3.09-.14-7.64-5.3-9.08,0,0-.49-1.61-2.55-1.11,0,0-2.71-2.39-5.39.15-2.09-.34-2.47,1.3-2.47,1.3-5.44,1.98-5.25,7.12-4.6,10.13.02.06.03.11.04.16"/><path class="cls-3" d="m124.36,38.47s-2.41,4.57-2.15,7"/><path class="cls-3" d="m141.22,44.33v.02s0,.19,0,.41v.02s0,.03,0,.03"/><path class="cls-3" d="m122.19,45.48v-.03"/><path class="cls-3" d="m122.16,45.01s0,.16.03.42"/><path class="cls-3" d="m123.34,52.24h-.02c-.16-.04-1.25-.37-1.82-2.17-.62-1.94-1.44-1.75-1.42-3.73.03-1.87,1.91-.98,2.11-.87"/><path class="cls-3" d="m127.58,34.58c.44.64.86,1.11,1.24,1.43.05.05.08.09.13.1"/><path class="cls-3" d="m131.75,35.99l.03-.03"/><path class="cls-2" d="m130.69,44.23s0,5.92-.95,9.01c0,0,.31.57,2.15-.02"/><path class="cls-9" d="m52.96,42.45c.22.56.16,1.71-.02,3.02-.64.66-1.66,1.42-3.19,1.75-2.55.56-4.53.35-5.56.15-2.46-1.77-4.64-3.8-4.88-5.54-.12-.93.83-1.57,2.54-1.92,2.92-5.09,3.44-10.59,3.44-10.59l5.26.96,4.79,1.98c-1.06,2.2-2.72,5.92-3.37,8.87.46.38.79.82.98,1.31Z"/><path class="cls-3" d="m55.12,10.91s-.44,1.67-1.35,2.63h-.02"/><path class="cls-3" d="m50.99,13.52c-1.1-1.13-1.46-3.31-1.46-3.31"/><path class="cls-3" d="m42.75,27.69h-.02c-.14-.08-1.14-.66-1.3-2.54-.18-2.03-1.02-2.04-.58-3.96.44-1.82,2.07-.52,2.25-.36"/><path class="cls-3" d="m62.26,15.43s-1.48.41-2.97.28"/><path class="cls-2" d="m48.07,13.59c.8.27,1.8.34,2.92-.07.33.35.71.59,1.17.66.64.11,1.17-.2,1.61-.64.01.02.02.04.04.04.13.22.99,1.54,2.75.55.49,1.09,1.61,1.5,2.73,1.59.5.67,1.38.86,1.38.86.03.09.07.19.09.27,1.61,4.45,1.18,7.05,1.13,7.33.34-.62.62-1.22.87-1.79-.44,1.08-.87,1.83-.96,1.99v.02s-.02.03-.02.03h.01c-.25,1.07-.97,3.81-2.16,6.51-.99,2.25-2.34,4.48-4.04,5.68-3.92,2.81-5.86,2.35-6.14,2.25-.31-.01-2.41-.26-5.05-4.37-1.14-1.76-1.58-4.34-1.68-6.8-.12-2.96.2-5.78.36-6.86h.01c0-.12.03-.25.07-.38.01.11.03.18.03.18.08-.45.2-.89.33-1.31.87-2.11,3.83-5.19,4.23-5.75l.3.03Z"/><path class="cls-3" d="m43.54,19.31c-.17.4-.29.77-.35,1.13"/><path class="cls-3" d="m43.11,20.83s0-.02,0-.03v-.02c-.03-.23-.22-1.43-.14-2.98v-.05c.15-3.1,1.32-7.52,6.64-8.16,0,0,.73-1.52,2.69-.7,0,0,3.05-1.94,5.31.97,2.12-.02,2.24,1.67,2.24,1.67,5.07,2.8,4.09,7.85,2.98,10.71-.03.06-.05.1-.06.15"/><path class="cls-3" d="m60.73,17.17s1.68,4.88,1.05,7.25"/><path class="cls-3" d="m43.16,20.36v.02s-.04.18-.06.4v.02s0,.03,0,.03"/><path class="cls-3" d="m61.79,24.42v-.03"/><path class="cls-3" d="m61.9,23.96s-.03.15-.09.41"/><path class="cls-3" d="m59.62,30.93h.02c.16-.01,1.3-.17,2.14-1.86.91-1.82,1.69-1.51,1.98-3.46.25-1.85-1.73-1.27-1.95-1.18"/><path class="cls-3" d="m58.14,12.82c-.53.57-1.02.97-1.44,1.22-.05.04-.09.08-.14.08"/><path class="cls-3" d="m53.8,13.57l-.02-.04"/><path class="cls-2" d="m53.59,21.88s-.9,5.85-.45,9.05c0,0-.39.52-2.12-.35"/><rect class="cls-9" x="90.81" y="92.46" width="16.45" height="2.98"/><path class="cls-6" d="m92.3,92.46s4.63-6.1,14.08,0h-14.08Z"/><path class="cls-4" d="m98.99,65.71s-.05,0-.08.02c-.36.22-.71.43-1.07.65-.38.23-.76.45-1.14.68-.32.19-.64.39-.96.58-.38.23-.76.45-1.14.68-.26.16-.51.32-.77.47-.28.16-.5.39-.67.67-.19.31-.29.65-.29,1.01,0,.44-.13.82-.43,1.14-.16.17-.36.3-.56.43-.23.14-.44.3-.67.45-.29.18-.57.39-.85.58-.54.36-1.08.72-1.62,1.08-.34.23-.68.45-1.02.68-.54.36-1.07.72-1.61,1.07-.34.23-.69.46-1.03.69-.53.36-1.07.71-1.6,1.07-.35.23-.7.47-1.05.7-.47.32-.94.62-1.4.94-.47.32-.61.96-.32,1.44.29.49.91.67,1.42.41.24-.12.45-.31.67-.47.17-.13.34-.27.51-.4.43-.32.85-.64,1.28-.96.62-.47,1.24-.94,1.86-1.41.45-.34.91-.69,1.36-1.03.47-.36.95-.72,1.43-1.08.47-.36.94-.71,1.41-1.07.47-.35.93-.7,1.4-1.06.32-.24.63-.49.96-.72.43-.3.9-.37,1.39-.21.54.18,1.07.19,1.6-.05.26-.11.46-.3.68-.48.17-.14.34-.28.52-.42.31-.26.63-.52.94-.77.23-.19.46-.38.69-.56.32-.26.63-.52.95-.78.23-.19.46-.37.69-.56.17-.13.33-.27.5-.4.1-.08.12-.17.08-.28-.05-.18-1.94-2.73-2.05-2.73Z"/><line class="cls-4" x1="100.31" y1="67.74" x2="96.34" y2="70.56"/><line class="cls-4" x1="99.54" y1="66.66" x2="95.57" y2="69.49"/><path class="cls-9" d="m88.69,82.08c-.58.71-1.94-.21-1.94-.21,0,0,.39.91-.37,1.24-.81.34-1.63-.16-1.63-.16,0,0,.05.85-.9.93-.93.09-3.59-2.16-6.08-3.17-.1-.04-.19-.09-.27-.13-5.83-.65-18.96,1.91-27.18-2.5-11.2-4.71-18.2-21.15-18.2-21.15l7.13-8.22s7.07,13.96,15.85,20.55c3.34,2.51,22.19,4.3,26.98,6.95,0,.05,0,.09-.02.14,4.48,2.31,7.36,4.86,6.65,5.72Z"/><path class="cls-5" d="m38.24,69.7c4.93-.9,8.97-3.2,11.68-7.58-4.55-5.82-9.27-16.74-15.3-14.86-5.85,1.82-4.26,12.39,3.62,22.45Z"/><path class="cls-9" d="m84.49,83c-.09,0-.18-.04-.22-.12,0,0-.2-.33-.81-.78-.1-.08-.13-.22-.05-.32.08-.1.22-.13.32-.05.7.51.92.89.95.93.06.11.02.25-.09.31-.03.02-.06.03-.09.03Z"/><path class="cls-9" d="m86.73,82.25c-.08,0-.16-.03-.21-.09,0,0-.37-.5-1.01-.96-.1-.07-.13-.22-.05-.32.07-.1.22-.13.32-.05.71.51,1.09,1.04,1.11,1.06.07.1.05.25-.05.32-.04.03-.08.04-.12.04Z"/></svg>