<?xml version="1.0" encoding="UTF-8"?><svg id="Calque_1" xmlns="http://www.w3.org/2000/svg" viewBox="0 0 128 128"><defs><style>.cls-1{fill:#87f3b9;}.cls-1,.cls-2,.cls-3,.cls-4,.cls-5,.cls-6,.cls-7,.cls-8,.cls-9{stroke-linecap:round;stroke-linejoin:round;}.cls-1,.cls-2,.cls-4,.cls-5,.cls-6,.cls-7,.cls-8,.cls-10,.cls-9{stroke:#000;}.cls-2{fill:#ff6d75;}.cls-3{stroke:#e30613;stroke-width:8px;}.cls-3,.cls-7{fill:none;}.cls-4{fill:#77eddf;}.cls-5,.cls-10{fill:#fff;}.cls-6{fill:#b2f0e9;}.cls-8{fill:#fee4cb;}.cls-10{stroke-miterlimit:10;}.cls-9{fill:#d6d6d6;}</style></defs><rect class="cls-3" x="-1740.29" y="-1253.51" width="2655.08" height="1511.77"/><path class="cls-10" d="m37.53,115.57c.78-.85,1.58-2.26,1.93-2.7s3.31.42,3.31.42c0,0,.11,1.95.91,4.42.8,2.47,2.33,4.2,3.06,4.93.74.73.94,2.09,1.05,2.61s-.28,2.21-3.05,1.53c-2.77-.67-4.26-1.54-4.45-3.18-.2-1.64-.73-4.19-1.65-5.15-.92-.95-1.89-2.04-1.11-2.89Z"/><path class="cls-10" d="m16.72,115.67c.7-.77,1.43-2.04,1.74-2.43s2.98.38,2.98.38c0,0,.1,1.76.82,3.99.72,2.23,2.1,3.79,2.76,4.45.66.66.85,1.89.95,2.35s-.25,1.99-2.75,1.38c-2.5-.61-3.84-1.39-4.02-2.87-.18-1.48-.65-3.78-1.49-4.64-.83-.86-1.7-1.84-1-2.6Z"/><path class="cls-10" d="m64,117.68c-.59-.97-1.11-2.49-1.36-2.97s-3.28-.22-3.28-.22c0,0-.48,1.87-1.71,4.11-1.24,2.24-3.04,3.63-3.89,4.2-.85.57-1.31,1.85-1.51,2.33s-.15,2.19,2.66,2.06c2.81-.13,4.41-.69,4.91-2.24.5-1.55,1.49-3.92,2.56-4.67,1.07-.75,2.21-1.62,1.62-2.59Z"/><path class="cls-10" d="m74.72,117.85c-.59-.97-1.11-2.49-1.36-2.97-.26-.49-3.28-.22-3.28-.22,0,0-.48,1.87-1.71,4.11-1.24,2.24-3.04,3.63-3.89,4.2-.85.57-1.31,1.85-1.51,2.33s-.15,2.19,2.66,2.06c2.81-.13,4.41-.69,4.91-2.24.5-1.55,1.49-3.92,2.56-4.67,1.07-.75,2.21-1.62,1.62-2.59Z"/><polygon class="cls-8" points="68.9 107.05 68.9 103.32 87.01 103.32 88.73 103.32 95.18 103.32 95.18 107.05 88.73 107.05 88.73 111.49 95.18 111.49 95.18 113.36 88.73 113.36 88.73 123.53 87.01 123.53 87.01 113.36 68.9 113.36 68.9 111.49 87.01 111.49 87.01 107.05 68.9 107.05"/><path class="cls-8" d="m88.73,103.32v20.21s1.72,0,1.72,0v-10.18h21.93v10.18s3.44,0,3.44,0v-10.18s0-1.86,0-1.86v-4.44s0-3.73,0-3.73h-3.44s-21.93,0-21.93,0h-.91s-.81,0-.81,0Zm1.72,8.17v-4.44h21.93v4.44h-21.93Z"/><rect class="cls-5" x="68.09" y="93.15" width="49.31" height="10.75" rx="4.83" ry="4.83" transform="translate(185.49 197.04) rotate(-180)"/><rect class="cls-5" x="87.59" y="93.15" width="29.81" height="10.75" rx="4.83" ry="4.83" transform="translate(204.99 197.04) rotate(-180)"/><path class="cls-2" d="m65.82,76.41c3.57,2.58,6.98,3.42,10.4,4.31,0,0,.2-1.28.44-3.37-1.99-.32-3.54-.55-3.54-.55,0,0,1.49-1.91,1.86-7.45.29-4.21.03-6.83.14-9.69-.15,0-.29-.02-.43-.07-2.07-.65-4.21-1.22-5.8-1.69-.15,1.14-.23,2.42-.27,3.84,0,.23,0,.47-.03.7-.02.45-.05.89-.09,1.33,0,.24-.03.49-.06.74-.04.41-.09.81-.14,1.2-.56,4.51-1.74,8.43-2.24,9.98-.11.31-.17.52-.21.63,0,.05-.02.07-.03.08Z"/><path class="cls-2" d="m65.82,76.41c-.08-.06-.15-.11-.23-.16l.23.17h0Z"/><path class="cls-2" d="m64.8,75.66l.79.59c.08.06.15.11.23.16,0,0,.02-.03.03-.08.04-.11.11-.32.21-.63.5-1.55,1.68-5.47,2.24-9.98.05-.4.1-.8.14-1.2.03-.24.05-.49.06-.74.04-.45.07-.88.09-1.33.02-.23.02-.47.03-.7.04-1.43.13-2.71.27-3.84-.88-.25-1.6-.48-2.02-.65,0,2.62.2,5.72-.28,9.79-.61,5.17-1.52,7.89-1.75,8.47,0,.02,0,.05-.02.07,0,.04-.02.06-.02.06Z"/><path class="cls-5" d="m66.94,55.19c-.05.66-.08,1.34-.08,2.07.42.17,1.14.4,2.02.65,1.58.47,3.73,1.04,5.8,1.69.14.05.28.07.43.07-.11,2.85.16,5.48-.14,9.69-.38,5.53-1.86,7.45-1.86,7.45,0,0,1.55.23,3.54.55.49-4.3,1.16-12.03.49-18.82-.07-.74-.15-1.47-.25-2.17,0,0-.45-.7-1.15-1.65-.99-1.34-2.49-3.17-3.94-4.22-.61-.45-1.21-.75-1.77-.81-.21-.03-.41-.02-.6.03-.09.02-.17.04-.26.08-.35.16-.67.46-.93.93-.2.36-.38.72-.51,1.09,0,.03-.03.07-.05.11-.16.42-.3.84-.41,1.28-.16.62-.25,1.26-.31,1.93,0,.02,0,.05,0,.07Z"/><path class="cls-5" d="m66.06,75.71c-.11.31-.17.52-.21.63.04-.11.12-.32.21-.63Z"/><path class="cls-5" d="m65.59,76.25l.23.17h0c-.08-.07-.15-.12-.23-.17Z"/><path class="cls-9" d="m91.5,82.92s-5.45,10.32-9.36,10.32c-3.92,0-12.71,0-12.71,0,0,0-1.29,14.95-5.11,25.56,0,0-3.25,1.53-7.55-.29,0,0,0-13.08.43-20.14.67-10.89,1.22-14.72,3.23-16.91,2.01-2.2,15.31-5.14,15.31-5.14,0,0,12.61,3.73,15.77,6.59Z"/><path class="cls-9" d="m96.95,84.07s-1.62,9.17-5.54,9.17c-3.92,0-12.71,0-12.71,0,0,0-.1,15.24-3.92,25.85,0,0-3.25,1.53-7.55-.29,0,0-.39-11.52-.29-18.59.19-12.71.29-16.72,2.29-18.92,2.01-2.2,11.94-3.82,11.94-3.82,0,0,12.61,3.73,15.77,6.59Z"/><path class="cls-4" d="m49.94,27.5c5.92,3.06,12.14,13.52,15.48,16.2,3.34,2.68,12.8,7.6,12.8,7.6l-1.96,5.16s-8.89-1.29-17.06-6.16c-8.49-5.06-11.75-12.18-11.75-12.18l2.48-10.61Z"/><path class="cls-1" d="m98.77,69.16c-.48,7.55-.38,13.28-1.82,16.53,0,0-3.06-.96-6.49-3.15-3.45-2.19-7.7-4.21-11.53-4.83-.78-.12-1.56-.25-2.28-.35-1.99-.33-3.54-.56-3.54-.56,0,0,1.48-1.91,1.86-7.44.3-4.22.03-6.84.14-9.69-.15,0-.29-.02-.43-.07-2.07-.65-4.21-1.22-5.79-1.69-.89-.25-1.6-.47-2.02-.65-.04-.02-.08-.03-.12-.05-.01,0-.02,0-.02,0-.08-.04-.12-.09-.17-.17-.27-.53.19-1.89.53-3.45.11-.53.3-1.11.58-1.67.02-.04.04-.08.05-.11.23-.42.5-.85.82-1.23,0,0,0-.02.02-.03.26-.31.55-.59.87-.83.45-.35.95-.64,1.53-.84h0c.09-.03.18-.06.28-.08,1.16-.32,3.02-.3,5.29-.39.13,0,.26,0,.39-.02.22-.02.44-.03.66-.03h.07c1.48-.1,3.1-.26,4.8-.63,0,0-.05.16-.15.44h.06c5.12-.31,7.8-.45,7.8-.45,4.08.68,6.11,2.72,7.35,6.26,1.25,3.53,1.72,7.64,1.25,15.19Z"/><path class="cls-5" d="m84.98,50.34c3.59.26,6.71-1.27,6.61-1.89-.05-.3-.58-.62-1.62-.84-.61-1.96-.75-5.64-.76-6.74l-3.17.29-3.63,2.03-.55.49c.1.56.41,2.48.54,4.04-1.1.23-1.6.52-1.67.78-.14.44.66,1.57,4.25,1.84Z"/><path class="cls-2" d="m72.18,48.14c-10.49-.96-24.06-5.73-24.06-5.73,0,0-2.87,2.68-2.68,7.07,0,0,10.68,5.45,21.29,8.6,0,0-.21-4.68,2.08-7.17s3.37-2.77,3.37-2.77Z"/><path class="cls-2" d="m66.06,75.71c-.11.31-.17.52-.21.63.04-.11.12-.32.21-.63Z"/><path class="cls-2" d="m65.82,76.41c-.08-.06-.15-.11-.23-.16l.23.17h0Z"/><path class="cls-2" d="m64.84,75.53c.22-.58,1.14-3.3,1.75-8.47.49-4.08.27-7.17.28-9.79.42.17,1.14.4,2.02.65.44-3.66,1.4-5.92,2.91-7.43.15-.15.29-.28.45-.41,1.39-1.17,2.85-1.55,4.29-1.68.14,0,.26,0,.39-.02.22-.02.45-.03.67-.03h.07c1.74-.04,3.42.09,4.8-.63-3.38-.1-6.77-1.98-11.03.34h0c-.3.16-.59.35-.89.55-.49.33-.94.72-1.36,1.17-.21.23-.42.49-.61.76,0,0,0,.02-.02.03-.5.72-.94,1.58-1.27,2.62-.35,1.08-.59,2.35-.71,3.83-.02.32-.04.64-.05.98-.03.72-.03,1.49,0,2.31.35,8.14-1.38,14.23-1.68,15.21Z"/><path class="cls-6" d="m46.2,57.71c.13,5.43,2.15,21.87,1.98,29.78-.17,7.91-3.15,30.86-3.15,30.86,0,0-4.08,2.29-8.46-.19,0,0-2.31-19.43-.3-28.89l-.72-10.03s-.46,4.44-2.15,10.18c-1.69,5.74-5.16,15.29-9.01,28.32,0,0-5.74,2.95-8.6-2.79,0,0,1.36-19.03,6.66-28.08,0,0,.63-15.42.63-20.39,0-3.06.88-12.18.88-12.18l22.24,3.41Z"/><path class="cls-4" d="m43.15,25.11c-5-.79-9.84-.1-12.71,2.68-2.87,2.77-4.11,7.45-5.64,13.66-1.53,6.21-1.62,13.86-1.62,13.86,0,0,.96.48,2.87,1.82,1.91,1.34,6.31,3.34,12.14,3.44,5.83.1,8.5-2.58,8.5-2.58,0,0,.29-5.06.76-8.98.48-3.92,2.44-8.03,3.58-11.47,1.15-3.44.14-8.98.14-8.98,0,0-2.01-2.48-8.03-3.44Z"/><path class="cls-5" d="m42.86,30.08c4.08.51,5.14-2.01,4.97-3.15-.04-.28-.41-.57-1.01-.84.14-.82.37-2.05.77-3.46l-4.37-3.58-2.47-.71s0,3.78-1.91,6.43c-.8.07-1.38.29-1.56.78-.44,1.1,1.05,3.97,5.58,4.54Z"/><path class="cls-5" d="m62.08,54.86c2.22.45,3.24.04,4.94.51,1.51.41,2.52,1.26,2.33,1.78-.12.34-.54,0-1.06-.18-.46-.16-.92-.19-.94-.07-.02.13.83.4,1.18.66.54.38,1.17,1.05.97,1.4-.26.45-.73-.07-1.33-.29-.43-.16-.92-.07-.95.04-.04.13.52.23.97.49.45.26.85.72.69.92-.26.34-.41.1-1.01-.05-.72-.18-1.86-.36-3.12-.43-1.8-.09-3.08-.82-3.08-.82l-3.5-.77.88-4.05,3.02.87Z"/><path class="cls-4" d="m36.94,26.45s2.26,12.96,8.12,18.82c4.01,4.01,16.36,8.31,16.36,8.31,0,0,.17,4.25-2.22,5.88,0,0-12.54.2-21.12-6.64-8.5-6.78-8.79-19.69-8.79-19.69"/><path class="cls-5" d="m107.65,88.91c.49,1.26.57,1.57,1.59,2.01,1.02.44,2.1.69,3.25,1.07,1.15.38,1.93,1.13,1.93,1.13h-6.1s.72.75,1.06,1.26c.34.5.82,1.64.45,1.82s-1.16-.57-2.2-1.45c-1.04-.88-1.56-1.19-2.28-1.82-.72-.63-1.2-3.21-1.2-3.21l3.49-.82Z"/><path class="cls-2" d="m87.01,82.97c.57-6.31.43-11.9.14-21.79-.29-9.89,3.01-13.47,3.01-13.47,1.56.35,2.85.86,3.91,1.41,6.1,2.89,7.92,9.82,10.22,20.38,2.6,11.94,4.55,19.06,4.55,19.06,0,0-3.09,1.72-5.97,1.53,0,0-2.28-4.05-4.72-9.77-.43,3.41-.82,5.95-.82,5.95-5.66-1-10.32-3.3-10.32-3.3Z"/><line class="cls-2" x1="98.15" y1="80.32" x2="93.13" y2="66.7"/><path class="cls-7" d="m47.47,4.08s-.3,1.24-.96,1.97h-.01"/><path class="cls-7" d="m44.43,6.09c-.84-.81-1.15-2.41-1.15-2.41"/><path class="cls-7" d="m38.54,16.73h-.01c-.11-.05-.86-.46-1.02-1.85-.18-1.5-.8-1.48-.51-2.91.29-1.35,1.54-.43,1.67-.31"/><path class="cls-7" d="m52.89,7.27s-1.1.34-2.22.27"/><path class="cls-5" d="m42.25,6.21c.6.18,1.35.21,2.18-.11.25.25.54.42.89.46.48.07.87-.17,1.19-.51,0,.01.02.03.03.03.1.16.77,1.11,2.07.35.39.79,1.23,1.07,2.07,1.11.39.49,1.05.61,1.05.61.02.06.06.14.07.2,1.29,3.25,1.02,5.18.98,5.39.24-.47.44-.91.62-1.34-.31.81-.61,1.37-.68,1.49h0s-.01.03-.01.03h.01c-.17.8-.65,2.83-1.49,4.85-.7,1.68-1.67,3.35-2.91,4.28-2.88,2.16-4.33,1.86-4.54,1.79-.23,0-1.81-.14-3.86-3.12-.88-1.27-1.27-3.17-1.39-4.98-.15-2.18.04-4.27.14-5.07h.01c0-.09.02-.18.05-.28,0,.08.03.13.03.13.05-.33.13-.66.22-.97.61-1.58,2.76-3.91,3.05-4.34h.23Z"/><path class="cls-7" d="m38.97,10.53c-.12.3-.2.58-.24.84"/><path class="cls-7" d="m38.68,11.65s0-.01,0-.02h0c-.03-.18-.19-1.06-.17-2.21v-.03c.05-2.29.84-5.58,4.81-6.16,0,0,.52-1.14,2-.58,0,0,2.24-1.5,3.99.61,1.58-.06,1.71,1.18,1.71,1.18,3.85,1.96,3.21,5.7,2.44,7.84-.02.04-.04.08-.04.11"/><path class="cls-7" d="m51.78,8.58s1.35,3.57.92,5.33"/><path class="cls-7" d="m38.71,11.31h0s-.02.15-.04.31h0s0,.03,0,.03"/><path class="cls-7" d="m52.72,13.91v-.02"/><path class="cls-7" d="m52.78,13.57s-.02.11-.06.31"/><path class="cls-7" d="m51.22,18.76h.01c.12-.01.97-.16,1.56-1.42.65-1.36,1.23-1.15,1.41-2.6.15-1.37-1.32-.9-1.48-.83"/><path class="cls-7" d="m49.76,5.43c-.39.43-.74.74-1.06.93-.04.03-.07.06-.1.07"/><path class="cls-7" d="m46.53,6.07l-.02-.03"/><path class="cls-5" d="m46.53,12.21s-.56,4.34-.16,6.69c0,0-.28.39-1.59-.21"/><path class="cls-7" d="m84.1,25s.09,1.3.64,2.15h.01"/><path class="cls-7" d="m86.83,27.54c.99-.67,1.57-2.24,1.57-2.24"/><path class="cls-7" d="m91,39.26h.01c.12-.04.95-.32,1.34-1.69.43-1.48,1.06-1.36,1-2.86-.07-1.41-1.48-.69-1.64-.6"/><path class="cls-7" d="m78.09,27.31s1.05.52,2.19.64"/><path class="cls-5" d="m89.01,28.02c-.64.08-1.4-.01-2.18-.48-.3.21-.62.33-.97.32-.5-.01-.85-.32-1.11-.71-.01.01-.02.02-.04.02-.13.14-.96.99-2.15,0-.52.73-1.42.88-2.28.78-.47.43-1.16.44-1.16.44-.04.06-.08.13-.11.19-1.84,3.07-1.89,5.06-1.89,5.27-.16-.51-.29-1-.4-1.46.18.87.39,1.48.44,1.61h0s.01.04.01.04h-.01c.03.83.19,2.96.69,5.15.42,1.81,1.12,3.67,2.22,4.81,2.55,2.66,4.06,2.6,4.29,2.57.24.04,1.85.16,4.42-2.51,1.1-1.14,1.81-2.99,2.24-4.8.51-2.18.67-4.31.71-5.14h-.01c.01-.09.01-.19,0-.3-.02.08-.05.13-.05.13,0-.34-.02-.69-.06-1.02-.35-1.7-2.13-4.41-2.36-4.89l-.23-.03Z"/><path class="cls-7" d="m91.6,32.93c.07.32.11.62.11.89"/><path class="cls-7" d="m91.71,34.12s0-.01.01-.02h0c.06-.18.37-1.04.54-2.2v-.04c.34-2.32.09-5.77-3.82-7.03,0,0-.33-1.23-1.92-.92,0,0-2.01-1.89-4.13-.05-1.59-.32-1.92.91-1.92.91-4.21,1.33-4.19,5.22-3.77,7.51.01.05.02.08.02.12"/><path class="cls-7" d="m78.99,28.82s-1.96,3.38-1.82,5.23"/><path class="cls-7" d="m91.73,33.76h0s0,.15-.01.32h0s0,.04,0,.04"/><path class="cls-7" d="m77.16,34.05v-.02"/><path class="cls-7" d="m77.15,33.69s0,.12.01.32"/><path class="cls-7" d="m77.86,39.19h-.01c-.12-.04-.95-.32-1.34-1.7-.42-1.48-1.05-1.37-.99-2.86.07-1.41,1.48-.69,1.64-.59"/><path class="cls-7" d="m81.56,25.98c.32.5.63.87.91,1.12.04.04.06.07.09.08"/><path class="cls-7" d="m84.71,27.17l.02-.02"/><path class="cls-5" d="m83.68,33.37s-.16,4.47-.96,6.78c0,0,.22.44,1.64.05"/></svg>