<?xml version="1.0" encoding="UTF-8"?><svg id="Calque_1" xmlns="http://www.w3.org/2000/svg" viewBox="0 0 200 128"><defs><style>.cls-1,.cls-2,.cls-3{fill:#fff;}.cls-4{fill:#a07637;}.cls-4,.cls-5,.cls-6,.cls-2,.cls-7,.cls-8,.cls-9,.cls-10{stroke-linecap:round;stroke-linejoin:round;}.cls-4,.cls-11,.cls-6,.cls-2,.cls-7,.cls-8,.cls-9,.cls-3,.cls-12,.cls-10{stroke:#000;}.cls-5{stroke:#e30613;stroke-width:8px;}.cls-5,.cls-8{fill:none;}.cls-11{fill:#fce9b9;}.cls-11,.cls-3,.cls-12{stroke-miterlimit:10;}.cls-6{fill:#77eddf;}.cls-7{fill:#b2f0e9;}.cls-9{fill:#87ccf3;}.cls-12,.cls-10{fill:#d6d6d6;}</style></defs><rect class="cls-5" x="-1518.16" y="-1253.51" width="2655.08" height="1511.77"/><path class="cls-6" d="m132.28,28.23c-5.34,2.76-10.94,12.19-13.96,14.6-3.02,2.41-11.54,6.85-11.54,6.85l1.77,4.65s8.01-1.16,15.38-5.56c7.65-4.57,10.6-10.98,10.6-10.98l-2.24-9.56Z"/><path class="cls-7" d="m135.65,55.47c-.12,4.89-1.94,19.71-1.78,26.85.15,7.13,2.84,27.82,2.84,27.82,0,0,3.68,2.07,7.62-.17,0,0,2.08-17.52.27-26.05l.65-9.05s.41,4,1.94,9.17c1.52,5.17,4.65,13.78,8.12,25.53,0,0,5.18,2.66,7.76-2.51,0,0-1.23-17.16-6.01-25.31,0,0-.57-13.9-.57-18.38,0-2.76-.79-10.98-.79-10.98l-20.05,3.08Z"/><path class="cls-6" d="m138.4,26.07c4.51-.72,8.87-.09,11.46,2.41,2.58,2.5,3.7,6.72,5.08,12.32,1.38,5.6,1.46,12.49,1.46,12.49,0,0-.86.43-2.58,1.64-1.72,1.21-5.69,3.02-10.94,3.1-5.25.09-7.67-2.33-7.67-2.33,0,0-.26-4.57-.69-8.1-.43-3.53-2.2-7.24-3.23-10.34-1.03-3.1-.13-8.1-.13-8.1,0,0,1.81-2.24,7.24-3.1Z"/><path class="cls-2" d="m138.66,30.55c-3.68.46-4.63-1.81-4.48-2.84.04-.25.37-.52.91-.76-.12-.73-.33-1.85-.69-3.12l3.94-3.23,2.22-.64s0,3.4,1.72,5.79c.72.06,1.24.26,1.41.7.39.99-.95,3.58-5.03,4.1Z"/><path class="cls-6" d="m144,27.28s-2.03,11.68-7.32,16.97c-3.62,3.62-14.75,7.49-14.75,7.49,0,0-.15,3.83,2,5.3,0,0,11.3.18,19.04-5.99,7.67-6.12,7.93-17.75,7.93-17.75"/><path class="cls-4" d="m136.08,109.33c.54,5.63-6.88,4.03-6.81,5.74.08,1.71,8.34,1.44,9.14.23.97-1.47.22-6.6.22-6.6l-2.55.64Z"/><path class="cls-4" d="m154.73,109.2c2.15,5.62-2.5,4-1.94,5.71.56,1.71,6.01,1.45,6.56.24.67-1.47-1.98-6.59-1.98-6.59l-2.64.64Z"/><line class="cls-10" x1="9.23" y1="113.3" x2="183.64" y2="113.3"/><rect class="cls-7" x="18.78" y="83.62" width="161.23" height="20.55" rx="8.22" ry="8.22"/><path class="cls-4" d="m174.98,103.16H22.48c-.35,0-.63-.28-.63-.63v-42.03c0-.35-.28-.63-.63-.63h-3.77c-.35,0-.63.28-.63.63v52.3c0,.35.28.63.63.63h3.77c.35,0,.63-.28.63-.63v-4.68c0-.35.28-.63.63-.63h151.87c.35,0,.63.28.63.63v4.68c0,.35.28.63.63.63h3.77c.35,0,.63-.28.63-.63v-9.01c0-.35-.28-.63-.63-.63h-4.4Z"/><path class="cls-9" d="m168.77,81.22c-4.89-1.64-17.74,1.52-23.75-.88-6.01-2.4-5.73-1.39-10.34,0-4.61,1.39-4.33-1.52-6.99-.88-2.65.63-3.63,1.64-6.57,1.39-2.93-.25-61.89-6.06-56.86,2.78,0,0,14.25-.38,18.72,6.44,4.47,6.82,7.13,24.13,12.57,26.02,5.45,1.89,12.02-3.54,16.91-.88,4.89,2.65,10.06,1.89,13.83,2.15,3.77.25,7.96-2.15,13.69-1.77,5.73.38,7.54,2.53,11.18,1.01,3.63-1.52,6.15-2.4,7.82-1.14,1.68,1.26,2.79-.38,5.31-.13,2.51.25,4.19,3.28,9.5,2.78,5.31-.51-.14-35.24-5.03-36.89Z"/><path class="cls-11" d="m112.45,70.26s3.65,4.23,2.72,7.95c-.93,3.73-5.36,5.98-6.37,6.29-1.01.31-8.54-.08-11.57-.31-1.42-.11-5.16.06-6.26-2.44-1.24-2.81.53-8.46,6.45-11.32l15.02-.17Z"/><path class="cls-3" d="m99.13,50.89s-1.81,3.39-2.5,4.88c-.69,1.49-2.25,6.77-2.35,8.65-.1,1.88-3.97,9.65-4.44,11.24-.47,1.58-.55,3.62-1.34,4.69-.78,1.07-1.38,2.4-1.52,2.81s-.55.04-.45-.92c.1-.96,1.29-2.7,1.07-2.81-.23-.11-3.59.47-4.52.77-.94.3-4.29-.6-4.06-.95.23-.34,1.26-.8,3.02-1.39,1.76-.59,4.73-1.27,5.13-2.78.4-1.51,1.03-7.87,2.12-10.75,1.09-2.88,2.1-8.46,2.78-11.48,0,0,1.31-9.06,6.34-9.63"/><path class="cls-3" d="m110.49,113.61c-.93-.68-2.01-1.89-2.44-2.25s-3.16,1.08-3.16,1.08c0,0,.28,1.94,0,4.52-.28,2.58-1.43,4.59-2,5.45-.57.86-.5,2.24-.5,2.77s.72,2.11,3.3.89c2.58-1.22,3.86-2.37,3.72-4.01-.14-1.65-.14-4.25.58-5.38.71-1.12,1.44-2.38.51-3.05Z"/><path class="cls-3" d="m120.56,113.61c-.93-.68-2.01-1.89-2.44-2.25s-3.16,1.08-3.16,1.08c0,0,.28,1.94,0,4.52s-1.43,4.59-2,5.45c-.57.86-.5,2.24-.5,2.77s.72,2.11,3.3.89c2.58-1.22,3.86-2.37,3.72-4.01-.14-1.65-.14-4.25.58-5.38.71-1.12,1.44-2.38.51-3.05Z"/><path class="cls-11" d="m118.68,110.34s-4.63-22.29-8.74-30.98c-1.36-2.89-4.89-4.1-7.15-3.28h0c-2.26.83-2.85,4.94-2.06,7.1,0,0,6.47,14.78,12.72,27.68,1,2.07.72,3.33,2.97,2.5h0c2.26-.83,3.04-.87,2.25-3.03Z"/><path class="cls-11" d="m99.38,79.55c-.83-2.14-3.99-4.84-6.24-3.97h0c-2.24.87-3.1,3.73-2.41,6.84,2.44,11.01,13.11,29.36,13.11,29.36.83,2.14,1.45,1.66,3.69.78,2.24-.87,1.2-1.63.58-3.84-3.83-13.8-8.73-29.17-8.73-29.17Z"/><path class="cls-3" d="m111.58,44.79s2.69,0,5.15,7.2c1,2.93,2.36,11.49,3.11,14.47.75,2.99.65,9.38.87,10.92s3.1,2.55,4.79,3.33c1.69.78,2.66,1.35,2.85,1.72.19.37-3.25.89-4.15.49-.9-.4-4.18-1.36-4.42-1.27-.24.09.75,1.95.74,2.91-.01.97-.46,1.29-.56.86-.09-.42-.54-1.81-1.19-2.96-.66-1.15-.5-3.19-.79-4.82-.29-1.63-3.24-9.79-3.13-11.67.11-1.88-.83-7.3-1.35-8.86-.52-1.56-1.92-5.13-1.92-5.13"/><path class="cls-12" d="m114.65,70.63l-19.48-.38-.1-8.33c-.09-4.82-1.43-7.53.51-11.62,1.95-4.1,2.82-7.07,2.82-7.07l2.2-.48,8.36.97,2.61,1.05s.64,7.91,2.16,10.84c.21.41.35.84.37,1.3l.54,13.7Z"/><path class="cls-3" d="m102.07,41.06l-.88,1.24c-1.02.55-1.5,1.84-.96,4.37.55,2.53,3.96,3.76,6.52,1.43,2.56-2.32,2.22-4.37,2.22-4.37,0,0-1.3-.63-1.5-1.5l-.6-2"/><path class="cls-8" d="m104.7,23.13s0,1.12.41,1.88h.01"/><path class="cls-8" d="m106.87,25.48c.89-.51,1.49-1.81,1.49-1.81"/><path class="cls-8" d="m109.68,35.78h.01c.1-.02.83-.21,1.26-1.36.46-1.24.99-1.1,1.04-2.38.03-1.21-1.22-.69-1.36-.62"/><path class="cls-8" d="m99.41,24.72s.87.52,1.83.69"/><path class="cls-2" d="m108.71,26.03c-.55.03-1.2-.1-1.84-.55-.27.16-.55.24-.85.21-.43-.04-.71-.33-.91-.68-.01,0-.02.02-.03.02-.12.11-.89.79-1.84-.13-.5.59-1.28.66-2,.52-.43.33-1.02.3-1.02.3-.03.05-.08.11-.1.16-1.78,2.51-1.95,4.21-1.96,4.39-.11-.45-.19-.87-.25-1.27.09.75.24,1.29.27,1.41h0s0,.03,0,.03h0c-.02.71-.03,2.55.26,4.45.25,1.58.72,3.21,1.59,4.26,2.01,2.44,3.31,2.49,3.5,2.48.2.05,1.57.25,3.94-1.86,1.02-.9,1.74-2.44,2.23-3.96.58-1.83.85-3.65.94-4.36h0c.02-.08.02-.16.02-.25-.03.07-.05.11-.05.11.02-.29.03-.59.02-.88-.19-1.47-1.54-3.92-1.7-4.34l-.2-.04Z"/><path class="cls-8" d="m110.61,30.4c.04.28.05.53.03.77"/><path class="cls-8" d="m110.62,31.42s0-.01.01-.02h0c.06-.15.38-.87.6-1.85v-.03c.44-1.97.46-4.94-2.81-6.26,0,0-.2-1.08-1.58-.91,0,0-1.6-1.75-3.53-.31-1.34-.38-1.7.65-1.7.65-3.69.87-3.93,4.2-3.71,6.18,0,.04.01.07.01.1"/><path class="cls-8" d="m100.08,26.07s-1.9,2.76-1.9,4.35"/><path class="cls-8" d="m110.66,31.12h0s0,.13-.03.27h0s0,.03,0,.03"/><path class="cls-8" d="m98.17,30.42v-.02"/><path class="cls-8" d="m98.18,30.11s0,.1-.01.27"/><path class="cls-8" d="m98.44,34.87h-.01c-.1-.04-.79-.34-1.03-1.54-.27-1.3-.81-1.24-.66-2.51.15-1.2,1.31-.49,1.44-.4"/><path class="cls-8" d="m102.46,23.8c.24.45.48.78.71,1.01.03.03.05.06.08.08"/><path class="cls-8" d="m105.08,25.02l.02-.02"/><path class="cls-2" d="m103.8,30.26s-.43,3.82-1.26,5.74c0,0,.16.39,1.4.15"/><path class="cls-2" d="m56.63,82.98c.32,1.17-.38,2.37-1.55,2.69-.81.22-1.63-.04-2.17-.61l-2.13.98c-5.63,2.58-11.66,4.21-17.82,4.82l-2.29.22c-.18.76-.76,1.39-1.56,1.61-1.17.32-2.37-.38-2.69-1.55-.21-.78.02-1.57.55-2.1-2.37-5.08-3.83-10.52-4.35-16.1-.72-.19-1.32-.76-1.53-1.54-.32-1.17.37-2.37,1.55-2.69.8-.22,1.62.04,2.16.61l2.06-.95c5.63-2.58,11.66-4.21,17.82-4.82l2.21-.22c.18-.75.76-1.38,1.56-1.59,1.17-.32,2.37.38,2.69,1.55.2.74,0,1.49-.47,2.03,1.19,2.55,2.16,5.2,2.89,7.91.72,2.68,1.22,5.43,1.47,8.21.75.18,1.38.76,1.6,1.56Z"/><path class="cls-8" d="m29.03,82.8c-1.02-2.69-1.63-5.5-1.83-8.39"/><path class="cls-8" d="m50.42,77.56c.21,1.68-.35,3.22-1.66,4.59"/><path class="cls-2" d="m119.52,53.18c-2,.4-2.92.04-4.45.46-1.36.37-2.27,1.14-2.1,1.6.11.3.49,0,.95-.16.42-.14.83-.17.85-.06.02.12-.74.36-1.07.59-.48.34-1.06.94-.87,1.26.24.4.65-.06,1.2-.26.39-.14.83-.06.85.04.03.12-.47.21-.87.44-.4.23-.77.65-.62.83.23.3.37.09.91-.05.65-.16,1.67-.33,2.81-.38,1.62-.08,2.78-.74,2.78-.74l3.15-.69-.79-3.66-2.73.78Z"/><path class="cls-1" d="m65.41,63.35s3.84-11.11,20.26-14.02"/><path class="cls-8" d="m65.41,63.35s3.65-10.58,19.07-13.79"/><path d="m78.83,55.73c-.19-.2-.19-.51,0-.71l5.44-5.38-7.18-2.65c-.26-.1-.39-.38-.3-.64.1-.26.39-.39.64-.3l7.91,2.92c.16.06.28.2.32.36.04.17-.02.34-.14.46l-5.99,5.94c-.07.07-.16.11-.25.13-.16.04-.34-.01-.46-.14Z"/><path class="cls-8" d="m134.73,8.25s.26,1.09.84,1.73h.01"/><path class="cls-8" d="m137.4,10.02c.74-.71,1.01-2.12,1.01-2.12"/><path class="cls-8" d="m142.57,19.36h.01c.1-.05.76-.4.9-1.62.16-1.31.7-1.3.45-2.56-.26-1.19-1.35-.38-1.47-.27"/><path class="cls-8" d="m129.97,11.05s.97.3,1.95.24"/><path class="cls-2" d="m139.31,10.12c-.53.16-1.19.18-1.91-.1-.22.22-.48.37-.78.41-.42.06-.77-.15-1.04-.45,0,.01-.02.02-.03.03-.09.14-.68.98-1.82.31-.34.7-1.08.94-1.82.98-.34.43-.92.53-.92.53-.02.06-.05.12-.06.18-1.13,2.86-.89,4.55-.86,4.73-.21-.41-.39-.8-.54-1.18.27.71.54,1.2.6,1.3h0s.01.03.01.03h0c.15.7.57,2.49,1.31,4.26.61,1.48,1.46,2.95,2.56,3.76,2.53,1.89,3.81,1.63,3.99,1.57.21,0,1.59-.13,3.39-2.74.78-1.12,1.11-2.78,1.22-4.38.13-1.92-.04-3.75-.12-4.46h0c0-.08-.02-.16-.04-.25,0,.07-.02.12-.02.12-.05-.29-.12-.58-.19-.86-.54-1.39-2.42-3.44-2.68-3.81h-.2Z"/><path class="cls-8" d="m142.2,13.91c.1.26.18.51.21.74"/><path class="cls-8" d="m142.45,14.9s0-.01,0-.02h0c.03-.16.17-.93.15-1.94v-.03c-.05-2.01-.74-4.9-4.22-5.41,0,0-.45-1-1.75-.51,0,0-1.97-1.32-3.5.53-1.39-.05-1.5,1.04-1.5,1.04-3.38,1.72-2.82,5.01-2.14,6.89.02.04.03.07.04.1"/><path class="cls-8" d="m130.94,12.2s-1.19,3.13-.81,4.68"/><path class="cls-8" d="m142.42,14.6h0s.02.13.03.27h0s0,.03,0,.03"/><path class="cls-8" d="m130.12,16.88v-.02"/><path class="cls-8" d="m130.06,16.58s.02.1.05.27"/><path class="cls-8" d="m131.44,21.14h-.01c-.11-.01-.85-.14-1.37-1.25-.57-1.2-1.08-1.01-1.24-2.28-.14-1.2,1.16-.79,1.3-.73"/><path class="cls-8" d="m132.72,9.43c.34.38.65.65.93.82.04.03.06.05.09.06"/><path class="cls-8" d="m135.55,10l.02-.02"/><path class="cls-2" d="m135.55,15.39s.49,3.81.14,5.87c0,0,.25.34,1.4-.19"/></svg>