<?xml version="1.0" encoding="UTF-8"?>
<svg id="Calque_1" data-name="Calque 1" xmlns="http://www.w3.org/2000/svg" viewBox="0 0 172.4 131.79">
  <defs>
    <style>
      .cls-1, .cls-2, .cls-3, .cls-4, .cls-5, .cls-6, .cls-7, .cls-8, .cls-9 {
        stroke: #010101;
      }

      .cls-1, .cls-2, .cls-3, .cls-4, .cls-5, .cls-6, .cls-7, .cls-8, .cls-9, .cls-10 {
        stroke-linecap: round;
      }

      .cls-1, .cls-2, .cls-3, .cls-4, .cls-5, .cls-6, .cls-7, .cls-8, .cls-10 {
        stroke-linejoin: round;
      }

      .cls-1, .cls-11 {
        fill: #d6d7d7;
      }

      .cls-2 {
        fill: #89ccf2;
      }

      .cls-3 {
        fill: #aeadd7;
      }

      .cls-4, .cls-12 {
        fill: #fff;
      }

      .cls-5 {
        fill: #f5afb5;
      }

      .cls-6, .cls-13 {
        fill: #010101;
      }

      .cls-7, .cls-10 {
        fill: none;
      }

      .cls-8 {
        fill: #f4d688;
      }

      .cls-14 {
        fill: #1e1e1c;
      }

      .cls-9 {
        fill: #fce9b9;
        stroke-miterlimit: 10;
      }

      .cls-10 {
        stroke: #fff;
        stroke-width: 8px;
      }
    </style>
  </defs>
  <rect class="cls-10" x="-4171.85" y="-3881.45" width="6467.34" height="6437.3"/>
  <g id="Titres_catégories" data-name="Titres catégories">
    <g>
      <g>
        <path class="cls-12" d="m76.03,37.65c-1.16,2.79-1.24,3.86-2.41,6.64-1.12,2.67-4.97,6.32-6.33,6.45-2.13.23-6.04-6.18-6.46-8.49"/>
        <path class="cls-7" d="m76.03,37.65c-1.16,2.79-1.24,3.86-2.41,6.64-1.12,2.67-4.97,6.32-6.33,6.45-2.13.23-6.04-6.18-6.46-8.49"/>
        <path class="cls-12" d="m65.58,38.96c.59,1.25,1.26,3.75,1.88,5.04.17-.34,3.59-4.47,4.26-5.69.25-.81.49-1.63.63-2.46.09-.55.15-1.13.31-1.68.11-.34.26-.68.5-.97.23-.28.56-.45.83-.7.16-.17.3-.34.45-.52.54-.63,1.2-1.15,1.93-1.54.38-.18.76-.36,1.17-.46.54-.17,1.11-.28,1.5.28.23.34.12.63-.03.94.38.41.3.91.11,1.37,0,.03-.02.05-.02.07,0,.05.03.09.07.12.15.2.16.45.11.68-.12.55-.46.94-.86,1.36-.26.26-.48.58-.73.86-.59.63-1.04,1.43-1.67,2-.05.04-.09.08-.13.13-.04.07-.07.15-.09.21-.16.52.3-.46,0,0"/>
        <path class="cls-7" d="m65.58,38.96c.59,1.25,1.26,3.75,1.88,5.04.17-.34,3.59-4.47,4.26-5.69.25-.81.49-1.63.63-2.46.09-.55.15-1.13.31-1.68.11-.34.26-.68.5-.97.23-.28.56-.45.83-.7.16-.17.3-.34.45-.52.54-.63,1.2-1.15,1.93-1.54.38-.18.76-.36,1.17-.46.54-.17,1.11-.28,1.5.28.23.34.12.63-.03.94.38.41.3.91.11,1.37,0,.03-.02.05-.02.07,0,.05.03.09.07.12.15.2.16.45.11.68-.12.55-.46.94-.86,1.36-.26.26-.48.58-.73.86-.59.63-1.04,1.43-1.67,2-.05.04-.09.08-.13.13-.04.07-.07.15-.09.21-.16.52.3-.46,0,0"/>
        <path class="cls-4" d="m35.28,79.14l-.33.88-1.52,4.02c-.11.28-.41.42-.68.33-.23-.08-.38-.29-.38-.52s0-.09.02-.15l.12-.46h0l.52-1.96,2.26-2.13h0Z"/>
        <path class="cls-4" d="m40.51,41.25l-.09,7.34-.11,1.57-.11,1.68-.33,4.78-1.68,15.85c0,.11-.02.2-.07.29l.09.73s.94,2.58-.23,4.94c-.02.04-.04.08-.07.12-.68,1.42-.91,2.43-.97,3-.04.29-.28.52-.59.54h-.02c-.31,0-.58-.24-.61-.55-.05-.62-.08-1.68.2-2.82l-.99,1.3.33-.88-2.26,2.13-.52,1.95h0l-.45.6c-.17.23-.5.25-.71.07-.09-.09-.15-.23-.15-.36,0-.05,0-.12.04-.18l2.59-6.96s.94-2.51,1.44-4.3c0-.01,0-.05.02-.07l-.38-22.89s-.61-5.82-.61-11.42h5.71l-.07-.58c.2,1.37.4,2.76.61,4.12h0Z"/>
        <path class="cls-4" d="m35.28,79.14l-.33.88-2.44,3.19.52-1.95,2.26-2.13h0Z"/>
        <path class="cls-3" d="m39.89,26.09s-6.52-.31-6.46,12.59l5.99.28.46-12.87h0Z"/>
        <path class="cls-4" d="m54.53,120.12l-1.07-18.84,6.18.6-.44,18.12-4.67.12h0Z"/>
        <path class="cls-4" d="m49.43,120.37v-4.17l-.71-11.77-5.46-2.85,1.15,18.44,5.02.36h0Z"/>
        <path class="cls-3" d="m39.64,68.83l4.19,44.26h6.6l-.03-49.43,1.02-.15,2.11,49.58h6.6s.83-18.22,1.82-34.54c.17-2.9.36-5.75.54-8.41.41-5.95.03-10.34-.66-13.53-.44-2.04-.99-3.59-1.55-4.78-1.17-2.48-2.33-3.25-2.33-3.25-7.63-4.42-14.33,0-14.33,0-1.19,1.74-2.06,3.63-2.69,5.53-.28.81-.5,1.66-.69,2.48-.12.54-.23,1.07-.31,1.58-1.02,5.75-.28,10.67-.28,10.67Z"/>
        <path class="cls-3" d="m57.77,126.78l9.52.13c.7,0,1.29-.55,1.3-1.26,0-.49-.25-.94-.68-1.17l-8.1-4.33c-.18-.1-.4-.16-.61-.16h-4.13c-.6,0-1.12.42-1.25,1.02l-.79,3.55c-.02.08-.03.16-.03.24l-.02.63c-.02.71.55,1.3,1.27,1.3l1.64.03h1.88v.03h0Z"/>
        <path class="cls-3" d="m45.83,126.79l-9.53.12c-.7,0-1.28-.54-1.3-1.25,0-.49.25-.94.68-1.17l8.1-4.33c.18-.1.4-.16.61-.16h4.13c.6,0,1.12.42,1.25,1.02l.79,3.55c.02.08.03.16.03.24l.02.62c.02.73-.55,1.31-1.27,1.31l-1.64.03h-1.88v.03h0Z"/>
        <path class="cls-3" d="m39.12,56.58h3.5l17.99.03h1.93v-.15l-.7-3.01-.46-26.92c0-.09.02-.15.02-.15l-4.87-1.31-3.04-.83,2.16,1.92-5.05,4.63-5.13-4.63,2.06-1.92-2.8.65h-.02l-5.35,1.25.74,27.19-.99,3.24h0Z"/>
        <path class="cls-2" d="m45.48,26.17l5.13,4.63-3.2-6.35-1.92,1.71Z"/>
        <path class="cls-2" d="m50.6,30.8l5.05-4.63-2.03-1.81-3.02,6.43h0Z"/>
        <path class="cls-2" d="m50.6,30.8l5.05-4.63-2.03-1.81-3.02,6.43h0Z"/>
        <path class="cls-2" d="m45.48,26.17l5.13,4.63-3.2-6.35-1.92,1.71Z"/>
        <path class="cls-3" d="m50.6,30.8l5.05-4.63-2.03-1.81-3.02,6.43h0Z"/>
        <path class="cls-3" d="m45.48,26.17l5.13,4.63-3.2-6.35-1.92,1.71Z"/>
        <path class="cls-4" d="m47.55,24.25l3.06,6.55,2.89-6.55-.94-2.38h-4.64l-.38,2.38Z"/>
        <path class="cls-7" d="m50.34,3.71s0,1.16-.41,1.93h0"/>
        <path class="cls-7" d="m48.09,6.12c-.91-.53-1.54-1.87-1.54-1.87"/>
        <path class="cls-7" d="m45.2,16.75h0c-.11-.02-.86-.21-1.29-1.4-.48-1.29-1.02-1.13-1.07-2.45-.03-1.25,1.26-.71,1.4-.63"/>
        <path class="cls-7" d="m55.78,5.34s-.89.53-1.9.71"/>
        <path class="cls-4" d="m46.2,6.69c.57.03,1.23-.1,1.9-.57.28.17.57.25.87.22.44-.04.73-.33.94-.7,0,0,.02.02.03.02.12.11.91.81,1.9-.13.51.61,1.31.68,2.06.54.45.35,1.06.3,1.06.3.03.05.08.11.11.16,1.83,2.58,2,4.33,2.03,4.53.11-.46.2-.89.25-1.31-.1.78-.25,1.34-.28,1.45v.03h0c.03.73.03,2.63-.26,4.59-.25,1.63-.74,3.3-1.64,4.39-2.06,2.51-3.41,2.56-3.61,2.56-.2.05-1.62.26-4.06-1.91-1.05-.93-1.79-2.51-2.29-4.08-.6-1.9-.87-3.76-.97-4.49h0c-.02-.08-.02-.16-.02-.26.03.07.05.11.05.11-.02-.3-.03-.61-.02-.91.2-1.52,1.58-4.03,1.75-4.47l.2-.04-.02-.02h0Z"/>
        <path class="cls-7" d="m44.24,11.2c-.04.28-.05.55-.03.79"/>
        <path class="cls-7" d="m44.24,12.25s0,0,0-.02c-.06-.15-.4-.89-.62-1.91v-.03c-.46-2.03-.46-5.09,2.9-6.45,0,0,.2-1.11,1.63-.94,0,0,1.65-1.8,3.63-.33,1.39-.38,1.76.68,1.76.68,3.8.89,4.05,4.32,3.83,6.37,0,.04,0,.07,0,.1"/>
        <path class="cls-7" d="m55.09,6.73s1.95,2.85,1.95,4.49"/>
        <path class="cls-7" d="m44.19,11.94s0,.13.03.28v.03"/>
        <path class="cls-7" d="m57.05,11.22v-.02"/>
        <path class="cls-7" d="m57.05,10.91s0,.1,0,.28"/>
        <path class="cls-7" d="m56.78,15.8h0c.1-.04.81-.35,1.07-1.58.28-1.34.84-1.27.68-2.58-.16-1.24-1.35-.51-1.49-.41"/>
        <path class="cls-7" d="m52.64,4.4c-.25.46-.5.81-.73,1.05-.03.03-.05.07-.08.08"/>
        <path class="cls-7" d="m49.94,5.66l-.02-.02"/>
        <path class="cls-12" d="m51.27,11.06s.44,3.94,1.29,5.91c0,0-.16.41-1.44.15"/>
        <path class="cls-7" d="m51.27,11.06s.44,3.94,1.29,5.91c0,0-.16.41-1.44.15"/>
        <path class="cls-4" d="m48.65,13.34c.07,0,.12-.19.1-.41s-.09-.39-.16-.38c-.07,0-.12.19-.1.41s.09.39.16.38Z"/>
        <path class="cls-4" d="m54.07,12.82c.07,0,.12-.19.1-.41s-.09-.39-.16-.38c-.07,0-.12.19-.1.41.01.22.09.39.16.38Z"/>
        <path class="cls-4" d="m43.63,34.04h3.76v1.57h-3.76v-1.57Z"/>
        <path class="cls-3" d="m60.82,26.4s6.52-.33,6.46,12.58l-5.99.28-.46-12.85h0Z"/>
        <path class="cls-6" d="m78.12,32.96l-.41-3.79.51-.05.41,3.78-.51.07Z"/>
        <path class="cls-12" d="m72.48,35.1c.15-1.66.23-2.48.86-3.14.22-.23.46-.41.72-.6.63-.45,1.23-.94,1.75-1.51.15-.17.3-.34.5-.38.64-.12.41,1.02.28,1.31-.38.78-1.25,1.28-1.34,2.24-.02.25.03.52.05.76.03.47-.07.94-.2,1.39"/>
        <path class="cls-7" d="m72.48,35.1c.15-1.66.23-2.48.86-3.14.22-.23.46-.41.72-.6.63-.45,1.23-.94,1.75-1.51.15-.17.3-.34.5-.38.64-.12.41,1.02.28,1.31-.38.78-1.25,1.28-1.34,2.24-.02.25.03.52.05.76.03.47-.07.94-.2,1.39"/>
        <g>
          <path class="cls-9" d="m30.53,86.1s-.42-.75.94-1.52c1.36-.76,4.33-1.98,4.81-3.09.46-1.08-.99-1.84-2.75-1.34-1.77.48-5.8,2.85-7.45,2.35-1.65-.49-1.25-1.15-2.22-3.17-.97-2.02-4.05-2.7-4.18-3.51-.12-.8-1.42-7.38-4.04-9.93-2.62-2.56-4.24-2.37-3.83-.31.41,2.07,4.7,6.74,5.05,7.89.33,1.18,1.26,2.53.21,2.96-1.05.44-1.95,1.12-2.31,1.63-.37.5-2.37-1.15-3.3-3.16-.93-2.03-3.33-6.46-4.86-6.34-1.52.1-1.16,3.35.16,5.37,1.32,2.01,4.9,4.65,5.99,5.52,1.09.85.86.99.94,3.01.07,2.02,2.03,4.31,3.46,4.89,1.42.57,1.74,1.63.44,3.49-1.31,1.88-2.38,3.49-2.85,5.16-.46,1.69.39,2.4,1.4,1.98,1-.41,3.2-3.44,4.28-5.55,0,0,3.83,5.82,7.19,9.27,3.35,3.43,6.62,6.99,8.42,6.69,1.79-.29,1.92-1.93.73-3.41-1.2-1.47-5.43-5-3.48-7.03,1.95-2.01,7.23,6.68,9.56,4.15,2.31-2.51-5.66-8.81-6.61-9.59-.94-.81-4.73-4.48-5.64-6.37l-.05-.03h0Z"/>
          <path class="cls-7" d="m20.56,87.59s2.51-.46,3.78-3.51"/>
          <path class="cls-14" d="m16.84,82.48c.16-.13.14-.42-.04-.62-.18-.22-.46-.28-.61-.15s-.14.42.04.62c.18.22.46.28.61.15Z"/>
          <path class="cls-14" d="m19.5,80.42c.16-.15.14-.42-.04-.64-.18-.2-.46-.28-.61-.15-.16.15-.14.42.04.64.18.2.46.28.61.15Z"/>
          <path class="cls-13" d="m19.08,82.91c.22-.2.28-.51.12-.67-.15-.17-.46-.11-.68.09-.23.22-.28.52-.12.67.15.17.45.12.68-.09Z"/>
          <path class="cls-7" d="m20.59,82.69c-.6.65-1.67.07-1.67.07,0,0,.33,1.11-.26,1.58"/>
        </g>
      </g>
      <g>
        <path class="cls-4" d="m136.56,74.17c0,.23-.12.42-.23.61-1.63,2.8-3.31,5.64-5.51,8-.3.32-.61.64-.94.94l-.06.06s-.04.04-.07.07c-.03.04-.07.07-.09.09-.1.09-.2.17-.3.27-2.75,2.42-6.43,4.02-10.04,3.48-1.45-.21-2.82-.75-4.13-1.39-1.99-.99-3.83-2.21-5.52-3.61.08-.82.2-1.63.31-2.45.02-.13.04-.28.13-.38.1-.14.28-.18.45-.23.18-.04.36-.07.54-.08.09-1.5.43-2.96.99-4.35.06-.15.13-.3.26-.4.12-.1.33-.13.44,0,.07.07.09.17.11.27.1.62.15,1.26.16,1.88.09-.62.28-1.23.55-1.79.06-.1.12-.23.23-.28-.68-.44-1.35-.91-2-1.39-4.11-3.03-7.73-6.67-11.12-10.03-3.4-6.28-5.46-13.26-9.36-19.23.06,0,.1-.03.16-.04,3.82-.94,7.28-3.19,9.74-6.26v-.02c.6-.74,1.14-1.52,1.6-2.35,1.15,1.42,2.32,2.85,3.51,4.23,1.6,1.88,3.25,3.71,5.04,5.42,1.29,1.23,2.72,2.21,4.68,2.69.5.12.99.25,1.5.38,2.16.61,4.27,1.42,5.93,2.9,1.24,1.11,2.16,2.52,3.01,3.94,1.9,3.09,3.62,6.28,5.29,9.5.16.3.3.59.46.89.75,1.45,1.49,2.92,2.23,4.38.28.57.57,1.13.86,1.69.33.67.68,1.33,1.01,2,.09.18.2.38.18.6h0Z"/>
        <path class="cls-4" d="m91.06,67.42c-.26.64-.55,1.25-.91,1.84.33-.59.64-1.21.91-1.84Z"/>
        <path class="cls-4" d="m133.18,83.17c-.13,1.29-.44,2.52-.89,3.72-.26.72-.57,1.42-.94,2.1-1.44,2.75-3.59,5.19-6,7.17-4.13,3.41-9.04,5.72-13.75,8.29-2.34,1.26-4.65,2.61-7.02,3.8.41-.77.77-1.55,1.06-2.36.07-.17.12-.35.12-.52-.02-.62-.81-.97-1.39-.81-.59.17-1.02.68-1.43,1.15-.71.82-1.34,1.96-2.24,2.79-.54.5-1.19.89-2.03,1.02-2.5.38-5.08.35-7.57-.11-2.4-.44-4.73-1.26-6.83-2.49,1.49-3.54,3.21-7.13,5.93-9.96.95-.99,2.03-1.87,3.31-2.41,1.16-.49,2.44-.65,3.7-.73,3.08-.2,6.17.09,9.24.38,1.62-.97,2.94-1.95,4.25-2.92-1.29-2.38-1.33-5.48-.99-8.58.08-.82.2-1.63.31-2.45.02-.13.04-.28.13-.38.1-.14.28-.18.45-.23.18-.04.36-.07.54-.08h.02l4.41.72h0l.48.08,12.63,2.08,2.14.35,2.36.38h0Z"/>
        <path class="cls-4" d="m133.3,83.19l-.13-.02c.02-.14.04-.27.04-.41,0,.11.02.28.08.42h0Z"/>
        <path class="cls-7" d="m91.36,44.23c-.04-.07-.08-.12-.12-.18l.28.14"/>
        <path class="cls-7" d="m131.84,72.61s0,.03,0,.04h0c-.07.33-.1.68-.17,1.02-.04.2-.07.4-.12.6-.33,1.44-.78,2.89-1.75,4.01-.48.57-1.12,1.02-1.83,1.29-.71.28-1.5.38-2.3.24-3.26-.57-6.38-1.79-9.29-3.41-.27-.14-.53-.28-.78-.44-.07-.04-.16-.09-.23-.14-.18-.11-.36-.23-.54-.33-.16-.09-.31-.2-.47-.3-.17-.1-.33-.2-.49-.31"/>
        <path class="cls-4" d="m80.94,104.43c-.53-.5-1.02-1.02-1.5-1.59-3.26-3.92-4.87-9.26-3.8-14.24.33-1.5.87-2.95,1.44-4.36,1.34-3.31,2.66-6.08,4.45-9.01,1.7,9.61,1.56,19.55-.6,29.2Z"/>
        <path class="cls-4" d="m128.93,33.94c3.93-2.28,5.56-7.45,4.57-11.88-.99-4.43-4.17-8.12-7.89-10.72-1.96-1.37-4.11-2.51-6.43-3.12-6.74-1.78-14.34,1.39-18.3,7.12-3.96,5.74-6.23,12.82-3.35,19.18.46,1.02,2.92,2.79,3.79,3.48.79.64,1.79.96,2.75,1.23,3.76,1.05,7.73,1.53,11.6.99,3.87-.54,7.24-2.8,13.24-6.28v.02h.01Z"/>
        <path class="cls-4" d="m127.89,24.04c-2.88,2.44-6.58,3.78-10.33,4.21-1.75.2-3.51.2-5.28.07-2-.17-4.02-.52-6.01-1.02-.23-.91-.84-1.72-1.66-2.18-.82-.45-1.84-.55-2.72-.27-1.09.35-1.94,1.23-2.52,2.22-.71,1.22-1.07,2.76-.46,4.04.5,1.03,1.52,1.69,2.46,2.21-.23,3.22-.41,6.69,1.33,9.42.81,1.27,1.7,2.54,2.88,3.48,1.22.97,2.91,2.05,4.38,2.56,2.53.89,5.66.42,8.1-.69,3.67-1.69,6.14-5.17,8.26-8.6,1.55-2.52,2.74-5.26,3.45-8.13-.78-.92-1.24-2.08-1.49-3.27s-.3-2.39-.38-4.04h0Z"/>
        <path class="cls-4" d="m138.24,73.24c-.37-.02-.78-.06-1.02-.34-.28-.35-.08-.97.36-1.08-.53,0-.96.57-.84,1.07.13.51.78.79,1.49.34h0Z"/>
        <path class="cls-4" d="m129.68,83.67c.85.67,2,.92,3.07.69-1.05-.18-2.08-.41-3.07-.69Z"/>
        <path class="cls-12" d="m115.4,75.23s-.41-1.94-1.32-5.37l1.32,5.37Z"/>
        <path class="cls-7" d="m115.4,75.23s-.41-1.94-1.32-5.37"/>
        <path class="cls-12" d="m123.27,65.71s7.36.57,8.58,6.93l-8.58-6.93Z"/>
        <path class="cls-7" d="m123.27,65.71s7.36.57,8.58,6.93"/>
        <path class="cls-5" d="m129.13,77.97c1.35,0,2.44-1.09,2.44-2.44s-1.09-2.44-2.44-2.44-2.44,1.09-2.44,2.44,1.09,2.44,2.44,2.44Z"/>
        <path class="cls-7" d="m123.27,60.52l1.7,5.19"/>
        <path class="cls-4" d="m117.06,78.2c.06.16-.03.31-.1.46-.3.57-.62,1.13-.91,1.69-.04.04-.07.1-.08.15-.09.17-.18.32-.27.49-1.46-.76-3.09-.91-4.6-.54,0-.3,0-.6.04-.89.09-1.5.43-2.96.99-4.35.06-.15.13-.3.26-.4.12-.1.33-.13.44,0,.07.07.09.17.11.27.1.62.15,1.26.16,1.88.09-.62.28-1.23.55-1.79.06-.1.12-.23.23-.28.04-.03.08-.04.13-.06.2,0,.3.17.36.37.02.08.03.17.03.26,0,.57,0,1.13-.07,1.7.07-.58.24-1.15.51-1.66v-.03c.06-.12.13-.24.24-.3.11-.07.28-.04.33.07.04.07.03.14.02.21-.02.13-.03.26-.06.38-.07.57-.17,1.13-.28,1.7.09-.54.27-1.07.51-1.56v-.02c.04-.09.1-.2.18-.25.23-.15.54.08.6.34.03.12.02.24,0,.36-.03.15-.07.3-.12.44-.2.61-.26,1.27-.17,1.92.07-.24.14-.5.34-.65.2-.15.54-.12.62.11h.02,0Z"/>
        <path class="cls-4" d="m140.56,70.6c-1.48-.1-2.71,1.55-4.18,1.31-.59-.09-1.14-.5-1.74-.45-.79.07-1.29.86-1.87,1.4-.57.54-1.31.89-1.97,1.34-1.58,1.09-2.64,2.91-2.81,4.82-.17,1.91.54,3.88,2.05,5.1.03,1.21.07,2.45.54,3.57.33.78.87,1.46,1.39,2.12,1.05,1.31,2.11,2.66,3.41,3.64,1.26-.81,2.6-1.5,4-2.02.4-.15.81-.28,1.15-.54.64-.46.96-1.23,1.23-1.97,1.87-5.13,2.54-10.64,2.62-16.1,0-.69,0-1.44-.44-1.98-.46-.59-1.2-.08-3.39-.24h0Z"/>
        <path class="cls-4" d="m140.55,75.54c.62-.1,1.28.34,1.4.95.14.61-.27,1.29-.87,1.46.31-.28.4-.78.25-1.18-.16-.4-.52-.69-.78-1.23h0Z"/>
        <path class="cls-12" d="m140.56,70.6c-1.48-.1-2.71,1.55-4.18,1.31-.59-.09-1.14-.5-1.74-.45-.79.07-1.29.86-1.87,1.4-.57.54-1.31.89-1.97,1.34-1.58,1.09-2.64,2.91-2.81,4.82-.17,1.91.54,3.88,2.05,5.1.03,1.21.07,2.45.54,3.57.33.78.87,1.46,1.39,2.12,1.05,1.31,2.11,2.66,3.41,3.64,1.26-.81,2.6-1.5,4-2.02.4-.15.81-.28,1.15-.54.64-.46.96-1.23,1.23-1.97,1.87-5.13,2.54-10.64,2.62-16.1,0-.69,0-1.44-.44-1.98-.46-.59-1.2-.08-3.39-.24h0Z"/>
        <path class="cls-7" d="m140.56,70.6c-1.48-.1-2.71,1.55-4.18,1.31-.59-.09-1.14-.5-1.74-.45-.79.07-1.29.86-1.87,1.4-.57.54-1.31.89-1.97,1.34-1.58,1.09-2.64,2.91-2.81,4.82-.17,1.91.54,3.88,2.05,5.1.03,1.21.07,2.45.54,3.57.33.78.87,1.46,1.39,2.12,1.05,1.31,2.11,2.66,3.41,3.64,1.26-.81,2.6-1.5,4-2.02.4-.15.81-.28,1.15-.54.64-.46.96-1.23,1.23-1.97,1.87-5.13,2.54-10.64,2.62-16.1,0-.69,0-1.44-.44-1.98-.46-.59-1.2-.08-3.39-.24h0Z"/>
        <path class="cls-8" d="m137.61,95.78c-.15,1.34-.68,2.61-1.37,3.78-2.13,3.61-5.65,6.24-9.45,7.99-3.8,1.74-7.94,2.66-12.05,3.51-.41.28-.85.52-1.29.77-.16.09-.31.17-.48.25h0c-2.5,1.26-5.25,1.87-7.9,1.27-1.22-.28-2.42-.83-3.27-1.76l-10.7-2.21c-.35.44-.69.87-1.02,1.3-2.16-.76-4.23-1.76-6.16-2.95.12-.28.23-.57.36-.85,1.49-3.54,3.21-7.13,5.93-9.96.95-.99,2.03-1.87,3.31-2.41,1.16-.49,2.44-.65,3.7-.73,3.08-.2,6.17.09,9.24.38,1.62-.97,2.94-1.95,4.25-2.92-1.29-2.38-1.33-5.48-.99-8.58.08-.82.2-1.63.31-2.45.02-.13.04-.28.13-.38.1-.14.28-.18.45-.23.18-.04.36-.07.54-.08h.02c1.5-.18,3.05.06,4.41.72h0s.04.03.07.04c.11.06.23.12.33.2.09.07.18.17.23.28.07.17.06.37.04.55-.12,1.5-.24,3.01-.35,4.52,2.26-1.39,4.58-2.59,7.12-2.98,2.21-.34,4.62.02,6.37,1.34.25.18.48.38.7.62l.04.04c.78.83,1.5,1.47,2.16,2.02,1.93,1.59,3.27,2.16,3.99,3.41.07.13.15.27.21.4.3.54.54,1.12.73,1.71.36,1.09.53,2.24.41,3.38v.03Z"/>
        <path class="cls-4" d="m113.54,111.64c-.45-.2-.74-.73-.65-1.22.08-.49.53-.89,1.02-.94-.34-.21-.65-.36-.91-.6-.25-.24-.41-.58-.36-.91.07-.44.49-.75.87-.99-.46-.3-1.06-.71-.96-1.26.08-.44.57-.67,1.02-.76,1.04-.21,2.1-.04,3.15.04,2.4.18,4.82-.08,7.12-.81-1.79-.23-3.75,0-4.84-1.03-.33-.32-.21-.99.08-1.35.12-.15.3-.21.47-.27,1.42-.45,2.92-.44,4.4-.4,2.11.06,4.31.14,6.24-.68.44-.18.86-.41,1.2-.74.38-.35.65-.79.91-1.23.85-1.46,1.65-2.95,2.37-4.47.57-1.18,1.09-2.4,1.87-3.44.78-1.05,1.87-1.94,3.13-2.31.85,1.26,1.18,2.81,1.15,4.31-.02,1.52-.35,3-.73,4.47-.51,1.94-1.11,3.87-2.03,5.64-1.63,3.12-4.23,5.68-7.25,7.49-3.01,1.82-6.56,2.79-10.03,3.39-2.21.38-3.93.21-6.63-.48-.7-.18-1.1-.71-.65-1.44v-.02h.03Z"/>
        <path class="cls-4" d="m137.9,90.09c1.05,1.76,2.94,2.9,4.92,3.37,2,.46,2.98.31,5-.07,1.93-.36,3.88-1.09,5.37-2.37,1.9-1.63,2.5-3.02,3.35-5.96.37-1.26.34-3.33.07-4.63-.63-2.93-2.07-5.14-4.27-7.18-1.69-1.57-3.52-3.06-5.71-3.8-2.19-.73-4.81-.54-6.53,1.01,1.05.78,2.27,1.35,3.55,1.66-1.43.04-2.82.87-3.55,2.11.46.48,1.1.73,1.49.93.44.23.89.48,1.18.89.43.64.28,1.53-.2,2.13-.47.6-1.19.95-1.93,1.15-.76.2-1.58.26-2.3-.06-.71-.32-1.26-1.1-1.13-1.84-.33.75-.44,1.57-.55,2.38-.12.92-.24,1.84-.34,2.76-.06.52-.11,1.05.04,1.52,0,.26,0,.52.08.77.09.24.28.46.54.51.38.07.72-.28,1.11-.4-1.02.54-1.67,1.71-1.58,2.86.02.24.07.49.26.65.2.17.51.18.76.1.25-.09.46-.27.67-.44-.27.28-.53.57-.79.85-.07.07-.15.17-.15.27,0,.08.04.17.09.23.15.23.4.37.55.62v-.02h0Z"/>
        <path class="cls-7" d="m110.68,91.26s5.79,5.69,12.59-.73"/>
        <path class="cls-12" d="m106.43,94.19s2.62.59,4.65,1.69l-4.65-1.69Z"/>
        <path class="cls-7" d="m106.43,94.19s2.62.59,4.65,1.69"/>
        <path class="cls-1" d="m111.85,73.49c-4.11-3.03-7.73-6.67-11.12-10.03-3.4-6.28-5.46-13.26-9.36-19.23-.33.08-.67.16-1.01.21-4.82.07-11.18,3.25-14.63,6.66-3.55,3.49-6,7.95-7.99,12.52-2.97,6.77-5.05,13.94-6.2,21.25-.54,3.46-.87,7.01-.21,10.46.91,4.8,3.41,9.93,6.87,13.4,1.45,1.45,2.92,2.63,4.44,3.68l6.82-9.58c-3.26-3.92-4.87-9.26-3.8-14.24.33-1.5.87-2.95,1.44-4.36,1.34-3.31,2.66-6.08,4.45-9.01,1.7,9.61,1.56,19.55-.6,29.2.2.18.38.37.59.54.85.73,1.76,1.37,2.72,1.93,1.49-3.54,3.21-7.13,5.93-9.96.95-.99,2.03-1.87,3.31-2.41,1.16-.49,2.44-.65,3.7-.73,3.08-.2,6.17.09,9.24.38,1.62-.97,2.94-1.95,4.25-2.92-1.29-2.38-1.33-5.48-.99-8.59.08-.82.2-1.63.31-2.45.02-.13.04-.28.13-.38.1-.14.28-.18.45-.23.18-.04.36-.07.54-.08.09-1.5.43-2.96.99-4.35.06-.15.13-.3.26-.4.12-.1.33-.13.44,0,.07.07.09.17.11.27.1.62.15,1.26.16,1.88.09-.62.28-1.23.55-1.79.06-.1.12-.23.23-.28-.68-.44-1.35-.91-2-1.39h0Z"/>
        <path class="cls-12" d="m81.39,74.37c.06.28.1.57.15.86-1.79,2.93-3.12,5.7-4.45,9.01-.57,1.42-1.12,2.87-1.44,4.36-1.22,5.69,1.05,11.84,5.29,15.82.2.18.38.37.59.54,4.63,3.95,11.1,5.45,17.12,4.53,2.19-.33,3.12-2.48,4.27-3.81.41-.47.84-.97,1.42-1.13.59-.17,1.38.17,1.39.79,0,.18-.06.36-.12.52-.3.81-.65,1.6-1.06,2.36-.54.99-1.15,1.95-1.87,2.82,2.55.17,4.68-.65,6.85-.86.96-.09,1.97-.04,2.81.41.23.13.45.3.59.52.26.44.09,1.07-.34,1.34.57-.03.96.45.91.89-.06.44-.44.79-.86.93.44.14.68.44.78.78.03.1.04.2,0,.3-.08.37-.57.49-.78.81.11.54-.11,1.02-.44,1.36-.33.34-.74.57-1.16.79-1.71.88-3.53,1.52-5.41,1.92-8.37,2.05-18.6.65-26.34-3.76-4.1-2.4-7.68-4.31-11.12-7.78-3.46-3.47-5.96-8.58-6.87-13.4-.65-3.44-.33-7,.21-10.46,1.15-7.31,3.23-14.48,6.2-21.25l13.66,10.75h0v.03Z"/>
        <path class="cls-7" d="m112.6,112.49l-7.55.86"/>
        <path class="cls-7" d="m112.66,114.32l-8.66,1.37"/>
        <path class="cls-7" d="m112.65,116.19l-7.86,1.69"/>
        <path class="cls-7" d="m81.39,74.37c.06.28.1.57.15.86-1.79,2.93-3.12,5.7-4.45,9.01-.57,1.42-1.12,2.87-1.44,4.36-1.22,5.69,1.05,11.84,5.29,15.82.2.18.38.37.59.54,4.63,3.95,11.1,5.45,17.12,4.53,2.19-.33,3.12-2.48,4.27-3.81.41-.47.84-.97,1.42-1.13.59-.17,1.38.17,1.39.79,0,.18-.06.36-.12.52-.3.81-.65,1.6-1.06,2.36-.54.99-1.15,1.95-1.87,2.82,2.55.17,4.68-.65,6.85-.86.96-.09,1.97-.04,2.81.41.23.13.45.3.59.52.26.44.09,1.07-.34,1.34.57-.03.96.45.91.89-.06.44-.44.79-.86.93.44.14.68.44.78.78.03.1.04.2,0,.3-.08.37-.57.49-.78.81.11.54-.11,1.02-.44,1.36-.33.34-.74.57-1.16.79-1.71.88-3.53,1.52-5.41,1.92-8.37,2.05-18.6.65-26.34-3.76-4.1-2.4-7.68-4.31-11.12-7.78-3.46-3.47-5.96-8.58-6.87-13.4-.65-3.44-.33-7,.21-10.46,1.15-7.31,3.23-14.48,6.2-21.25l13.66,10.75h0v.03Z"/>
        <path class="cls-12" d="m113.51,106.98s4.25.96,7.95,0h-7.95Z"/>
        <path class="cls-7" d="m113.51,106.98s4.25.96,7.95,0"/>
        <path class="cls-12" d="m113.89,109.49s5.36.23,7.56-.32l-7.56.32Z"/>
        <path class="cls-7" d="m113.89,109.49s5.36.23,7.56-.32"/>
        <path class="cls-12" d="m113.54,111.64s5.16.74,8.32-.44l-8.32.44Z"/>
        <path class="cls-7" d="m113.54,111.64s5.16.74,8.32-.44"/>
        <path class="cls-7" d="m137.59,71.82s.65,1.42,1.35,2.21"/>
        <path class="cls-7" d="m120.36,32.08s-1.42,5.66,0,7.86c1.42,2.2-.63,3.14-3.38,1.42"/>
        <path class="cls-13" d="m113.39,34.1c.2-.94-.02-1.78-.5-1.88-.47-.1-1.02.58-1.22,1.52-.2.94.02,1.78.5,1.88.47.1,1.02-.58,1.22-1.52Z"/>
        <path class="cls-13" d="m124.09,37.45c.31-.91.19-1.77-.27-1.92-.46-.15-1.08.45-1.39,1.36s-.19,1.77.27,1.92c.46.15,1.08-.45,1.39-1.36Z"/>
        <path class="cls-7" d="m111.55,44.05s2.53,1.86,6.13,1.86"/>
        <path class="cls-7" d="m81.39,74.37v-8.66"/>
        <path class="cls-7" d="m101.79,28.31l1.11.86"/>
        <path class="cls-11" d="m88.43,80.99s7.86,9.55,18,5.3l-18-5.3Z"/>
        <path class="cls-7" d="m88.43,80.99s7.86,9.55,18,5.3"/>
        <path class="cls-12" d="m109.3,30.66s1.91-1.29,4.55-.94l-4.55.94Z"/>
        <path class="cls-7" d="m109.3,30.66s1.91-1.29,4.55-.94"/>
        <path class="cls-12" d="m124.97,31.13s1.87.99,2.58,2.79l-2.58-2.79Z"/>
        <path class="cls-7" d="m124.97,31.13s1.87.99,2.58,2.79"/>
      </g>
    </g>
  </g>
</svg>