<?xml version="1.0" encoding="UTF-8"?>
<svg id="Calque_1" data-name="Calque 1" xmlns="http://www.w3.org/2000/svg" viewBox="0 0 128 128">
  <defs>
    <style>
      .cls-1, .cls-2 {
        fill: #fab0b4;
      }

      .cls-3 {
        fill: #fff;
      }

      .cls-3, .cls-4, .cls-2, .cls-5 {
        stroke-width: 2px;
      }

      .cls-3, .cls-4, .cls-2, .cls-5, .cls-6 {
        stroke: #000;
        stroke-miterlimit: 10;
      }

      .cls-4 {
        fill: #d6d6d6;
      }

      .cls-5, .cls-7, .cls-6 {
        fill: none;
      }

      .cls-7 {
        stroke: #fff;
        stroke-linecap: round;
        stroke-linejoin: round;
        stroke-width: 8px;
      }
    </style>
  </defs>
  <path class="cls-1" d="m73.48,80.74v4.87c0,5.95,5.96,12.77,11.92,12.77s11.92-6.81,11.92-12.77v-4.87h-23.83Z"/>
  <line class="cls-5" x1="85.4" y1="98.56" x2="85.4" y2="112.91"/>
  <path class="cls-5" d="m84.6,112.91l-5.78,5.01c-.74.64-.29,1.86.69,1.86h11.77c.99,0,1.44-1.24.68-1.87l-5.99-5.01c-.4-.33-.98-.33-1.38.01Z"/>
  <path class="cls-2" d="m59.45,87.65v26.98c0,3.65-1.42,6.08-5.67,6.08h-8.51s-8.64,0-8.64,0c-4.26,0-5.68-2.43-5.68-6.07l-.03-26.94c12.4,1.48,22.68.78,28.53-.04Z"/>
  <path class="cls-2" d="m59.32,54.11h0c-12.06,2.27-26.51.39-28.44.04-.03-5.92.38-10.77,3.86-13.55,4.73-3.78,4.87-6.07,4.87-9.32v-.13h11.21v.14c0,3.24.14,5.54,4.87,9.32,3.85,3.08,3.75,6.72,3.65,13.51Z"/>
  <path class="cls-4" d="m50.81,5.75v25.4h-11.21V5.74h11.21Z"/>
  <path class="cls-3" d="m30.88,54.15l.04,33.55s16.22,2.37,28.53-.04l-.13-33.54s-15.55,1.75-28.44.04Z"/>
  <path d="m97.07,74.52v11.04c0,6.44-5.22,11.67-11.67,11.67s-11.67-5.22-11.67-11.67v-11.04h23.34m2-2h-27.34v13.04c0,7.54,6.13,13.67,13.67,13.67s13.67-6.13,13.67-13.67v-13.04h0Z"/>
  <line class="cls-6" x1="73.48" y1="80.74" x2="97.31" y2="80.74"/>
  <rect class="cls-7" x="-590.25" y="-4971.2" width="6467.34" height="6437.3"/>
</svg>