<?xml version="1.0" encoding="UTF-8"?>
<svg id="Calque_1" data-name="Calque 1" xmlns="http://www.w3.org/2000/svg" xmlns:xlink="http://www.w3.org/1999/xlink" viewBox="0 0 200.13 128.13">
  <defs>
    <style>
      .cls-1, .cls-2, .cls-3, .cls-4, .cls-5, .cls-6, .cls-7, .cls-8, .cls-9, .cls-10, .cls-11 {
        stroke-linecap: round;
        stroke-linejoin: round;
      }

      .cls-1, .cls-2, .cls-3, .cls-4, .cls-5, .cls-6, .cls-7, .cls-8, .cls-9, .cls-11 {
        stroke: #000;
      }

      .cls-1, .cls-5 {
        fill: #d6d6d6;
      }

      .cls-2, .cls-7 {
        fill: #f3d587;
      }

      .cls-3, .cls-12, .cls-6, .cls-11 {
        fill: #fff;
      }

      .cls-4, .cls-8, .cls-10 {
        fill: none;
      }

      .cls-5, .cls-6, .cls-7, .cls-8, .cls-9 {
        stroke-width: .8px;
      }

      .cls-13 {
        clip-path: url(#clippath-1);
      }

      .cls-14 {
        clip-path: url(#clippath-2);
      }

      .cls-9 {
        fill: #fab0b4;
      }

      .cls-10 {
        stroke: #fff;
        stroke-width: 8px;
      }

      .cls-11 {
        stroke-width: .75px;
      }
    </style>
    <clipPath id="clippath-1">
      <path class="cls-3" d="m27.31,68.03c.05.25.09.49.13.74-1.55,2.53-2.68,4.92-3.84,7.78-.5,1.23-.97,2.48-1.24,3.77-1.05,4.91.9,10.22,4.57,13.66.17.16.33.32.51.47,4,3.41,9.58,4.71,14.77,3.91,1.89-.29,2.7-2.15,3.69-3.29.35-.4.72-.84,1.23-.98.51-.15,1.19.16,1.2.69,0,.16-.05.31-.1.46-.25.7-.57,1.38-.92,2.04-.46.86-1,1.68-1.61,2.44,2.2.15,4.04-.57,5.92-.74.83-.08,1.7-.04,2.42.36.2.11.39.26.51.45.22.38.08.93-.3,1.15.49-.02.83.39.78.77-.04.38-.38.68-.74.81.38.12.59.38.67.67.02.08.03.17.01.26-.07.32-.49.43-.68.69.09.47-.1.88-.38,1.17-.28.29-.64.5-1,.68-1.47.75-3.04,1.31-4.66,1.65-7.22,1.77-16.05.57-22.72-3.24-3.54-2.07-6.62-3.72-9.6-6.71-2.98-2.99-5.14-7.42-5.92-11.57-.56-2.97-.28-6.04.19-9.03.99-6.31,2.79-12.5,5.35-18.36l11.78,9.29Z"/>
    </clipPath>
    <clipPath id="clippath-2">
      <path class="cls-3" d="m133.76,68.03c.05.25.09.49.13.74-1.55,2.53-2.68,4.92-3.84,7.78-.5,1.23-.97,2.48-1.24,3.77-1.05,4.91.9,10.22,4.57,13.66.17.16.33.32.51.47,4,3.41,9.58,4.71,14.77,3.91,1.89-.29,2.7-2.15,3.69-3.29.35-.4.72-.84,1.23-.98.51-.15,1.19.16,1.2.69,0,.16-.05.31-.1.46-.25.7-.57,1.38-.92,2.04-.46.86-1,1.68-1.61,2.44,2.2.15,4.04-.57,5.92-.74.83-.08,1.7-.04,2.42.36.2.11.39.26.51.45.22.38.08.93-.3,1.15.49-.02.83.39.78.77-.04.38-.38.68-.74.81.38.12.59.38.67.67.02.08.03.17.01.26-.07.32-.49.43-.68.69.09.47-.1.88-.38,1.17-.28.29-.64.5-1,.68-1.47.75-3.04,1.31-4.66,1.65-7.22,1.77-16.05.57-22.72-3.24-3.54-2.07-6.62-3.72-9.6-6.71-2.98-2.99-5.14-7.42-5.92-11.57-.56-2.97-.28-6.04.19-9.03.99-6.31,2.79-12.5,5.35-18.36l11.78,9.29Z"/>
    </clipPath>
  </defs>
  <g>
    <g>
      <path class="cls-3" d="m74.9,67.85c0,.19-.1.37-.2.53-1.41,2.42-2.85,4.87-4.75,6.91-.26.28-.53.55-.81.81l-.05.05s-.04.04-.06.06c-.02.03-.06.06-.08.08-.09.08-.17.15-.25.23-2.38,2.09-5.54,3.48-8.66,3.01-1.25-.18-2.43-.65-3.56-1.2-1.71-.85-3.3-1.91-4.76-3.12.07-.71.17-1.41.27-2.11.02-.11.04-.24.11-.33.09-.12.25-.16.39-.19.16-.03.31-.06.47-.07h0c.08-1.29.37-2.56.86-3.76.05-.13.11-.26.22-.34.1-.09.28-.11.37,0,.06.06.08.15.1.23.09.54.13,1.08.14,1.63.08-.53.24-1.06.48-1.55.05-.09.1-.19.19-.24-.59-.38-1.16-.78-1.73-1.2-3.55-2.61-6.67-5.76-9.6-8.66-2.93-5.42-4.71-11.45-8.08-16.61.05,0,.09-.02.14-.04,3.29-.81,6.28-2.76,8.4-5.41v-.02c.52-.64.98-1.32,1.38-2.03,1,1.23,2,2.46,3.03,3.65,1.38,1.63,2.81,3.21,4.35,4.68,1.11,1.07,2.35,1.91,4.03,2.32.43.1.86.22,1.29.33,1.87.53,3.68,1.23,5.12,2.5,1.07.96,1.86,2.18,2.6,3.4,1.63,2.67,3.12,5.42,4.56,8.2.14.25.26.51.4.77.65,1.25,1.28,2.52,1.92,3.78.25.49.49.97.74,1.46.29.57.58,1.15.87,1.72.08.16.17.33.16.52Z"/>
      <path class="cls-5" d="m71.98,75.62c-.11,1.11-.38,2.18-.77,3.21-.22.62-.49,1.23-.81,1.81-1.24,2.38-3.1,4.48-5.17,6.2-3.56,2.95-7.8,4.94-11.86,7.16-2.02,1.09-4.01,2.25-6.06,3.28.35-.66.66-1.34.92-2.04.06-.15.1-.3.1-.45-.02-.53-.69-.84-1.2-.69-.51.15-.88.58-1.24.99-.61.71-1.16,1.69-1.94,2.41-.47.43-1.03.77-1.75.88-2.15.33-4.38.3-6.53-.1-2.07-.37-4.08-1.09-5.89-2.15,1.28-3.05,2.77-6.16,5.11-8.6.82-.85,1.75-1.62,2.85-2.08,1-.42,2.1-.57,3.19-.63,2.66-.17,5.33.08,7.97.33,1.4-.84,2.54-1.68,3.67-2.52-1.12-2.06-1.15-4.74-.86-7.41.07-.71.17-1.41.27-2.11.02-.11.04-.24.11-.33.09-.12.25-.16.39-.19.16-.03.31-.06.47-.07h.02l3.8.62.04-3.72.25.46s5.08,2.27,7.05,2.62,5.55.32,5.55.32l2.32,2.83Z"/>
      <path class="cls-6" d="m72.09,75.64l-.11-.02c.02-.12.03-.23.04-.35,0,.1.02.24.07.37Z"/>
      <path class="cls-8" d="m35.91,42c-.03-.06-.07-.1-.1-.16l.24.12"/>
      <path class="cls-8" d="m70.83,66.5s0,.02,0,.03h0c-.06.29-.09.59-.15.89-.03.18-.06.34-.1.52-.28,1.24-.68,2.5-1.51,3.46-.41.49-.96.88-1.58,1.11-.61.25-1.29.33-1.99.21-2.81-.49-5.5-1.55-8.01-2.94-.23-.12-.45-.25-.68-.37-.06-.04-.14-.08-.2-.12-.16-.1-.31-.19-.47-.29-.14-.08-.27-.17-.41-.26-.14-.09-.28-.18-.42-.27"/>
      <path class="cls-3" d="m26.92,93.99c-.45-.43-.89-.89-1.29-1.37-2.81-3.39-4.2-8-3.28-12.29.28-1.29.75-2.54,1.24-3.77,1.16-2.86,2.3-5.25,3.84-7.78,1.47,8.3,1.35,16.88-.52,25.22Z"/>
      <path class="cls-3" d="m68.33,33.11c3.39-1.97,4.8-6.43,3.95-10.26-.86-3.83-3.6-7.01-6.81-9.26-1.69-1.19-3.54-2.16-5.54-2.69-5.82-1.54-12.37,1.19-15.78,6.15-3.41,4.96-5.37,11.08-2.9,16.56.4.88,2.52,2.41,3.27,3.01.68.55,1.54.83,2.38,1.06,3.25.91,6.67,1.33,10.01.85,3.34-.47,6.25-2.41,11.42-5.42Z"/>
      <path class="cls-3" d="m67.42,24.56c-2.48,2.11-5.68,3.27-8.91,3.63-1.51.17-3.03.18-4.55.05-1.73-.14-3.47-.45-5.18-.89-.19-.79-.73-1.49-1.43-1.88-.71-.39-1.58-.48-2.35-.23-.94.31-1.67,1.07-2.17,1.92-.62,1.05-.93,2.38-.4,3.48.43.89,1.32,1.46,2.12,1.9-.2,2.78-.35,5.78,1.15,8.13.7,1.1,1.47,2.2,2.49,3.01,1.05.84,2.51,1.77,3.78,2.22,2.18.77,4.88.37,6.98-.6,3.16-1.46,5.3-4.47,7.12-7.43,1.34-2.17,2.36-4.54,2.97-7.02-.67-.8-1.06-1.8-1.28-2.82-.22-1.02-.27-2.07-.33-3.48Z"/>
      <path class="cls-6" d="m76.35,67.05c-.32-.02-.67-.05-.87-.29-.25-.3-.07-.84.31-.93-.45,0-.83.49-.72.93.11.44.68.68,1.29.3Z"/>
      <path class="cls-6" d="m68.97,76.06c.74.57,1.73.8,2.65.6-.9-.16-1.79-.35-2.65-.6Z"/>
      <path class="cls-6" d="m56.65,68.77s-.36-1.67-1.14-4.64"/>
      <path class="cls-3" d="m63.43,60.54s6.34.49,7.41,5.99"/>
      <circle class="cls-9" cx="68.5" cy="69.02" r="2.1"/>
      <line class="cls-4" x1="63.43" y1="56.07" x2="64.91" y2="60.54"/>
      <path class="cls-6" d="m58.08,71.33c.05.14-.02.27-.09.4-.26.49-.53.97-.79,1.46-.03.04-.06.09-.07.13-.08.14-.16.28-.23.42-1.26-.65-2.66-.78-3.97-.47,0-.26,0-.52.03-.77h0c.08-1.29.37-2.56.86-3.76.05-.13.11-.26.22-.34.1-.09.28-.11.37,0,.06.06.08.15.1.23.09.54.13,1.08.14,1.63.08-.53.24-1.06.48-1.55.05-.09.1-.19.19-.24.03-.02.07-.04.11-.05.17,0,.26.14.31.32.02.07.02.15.02.22,0,.49,0,.98-.06,1.47.06-.5.21-.99.44-1.43,0,0,0-.02,0-.02.05-.1.11-.21.21-.25.1-.06.24-.04.29.06.03.06.02.12.02.18-.02.11-.02.22-.05.33-.06.49-.14.98-.24,1.47.08-.46.23-.92.44-1.35,0,0,0,0,0-.02.04-.08.09-.17.16-.22.2-.13.47.07.52.3.02.1.02.21,0,.31-.02.13-.06.25-.1.37-.18.53-.22,1.1-.14,1.66.06-.21.12-.43.3-.57.17-.13.47-.1.53.1Z"/>
      <path class="cls-6" d="m78.36,64.77c-1.28-.09-2.34,1.34-3.6,1.13-.51-.08-.98-.43-1.5-.39-.69.05-1.11.74-1.62,1.21-.5.47-1.14.76-1.7,1.15-1.36.94-2.27,2.51-2.42,4.16-.15,1.65.46,3.35,1.77,4.4.02,1.05.05,2.12.46,3.09.29.67.75,1.26,1.2,1.83.9,1.14,1.83,2.3,2.94,3.14,1.08-.7,2.24-1.29,3.45-1.74.34-.13.69-.25.99-.47.55-.4.83-1.06,1.06-1.7,1.62-4.43,2.19-9.19,2.26-13.91,0-.6,0-1.24-.37-1.71-.4-.51-1.03-.07-2.93-.21Z"/>
      <path class="cls-6" d="m78.35,69.04c.53-.09,1.1.3,1.21.82.12.53-.23,1.11-.75,1.26.28-.25.35-.67.21-1.02-.13-.34-.44-.6-.68-1.07Z"/>
      <g>
        <path class="cls-12" d="m78.36,64.77c-1.28-.09-2.34,1.34-3.6,1.13-.51-.08-.98-.43-1.5-.39-.69.05-1.11.74-1.62,1.21-.5.47-1.14.76-1.7,1.15-1.36.94-2.27,2.51-2.42,4.16-.15,1.65.46,3.35,1.77,4.4.02,1.05.05,2.12.46,3.09.29.67.75,1.26,1.2,1.83.9,1.14,1.83,2.3,2.94,3.14,1.08-.7,2.24-1.29,3.45-1.74.34-.13.69-.25.99-.47.55-.4.83-1.06,1.06-1.7,1.62-4.43,2.19-9.19,2.26-13.91,0-.6,0-1.24-.37-1.71-.4-.51-1.03-.07-2.93-.21Z"/>
        <path class="cls-4" d="m78.36,64.77c-1.28-.09-2.34,1.34-3.6,1.13-.51-.08-.98-.43-1.5-.39-.69.05-1.11.74-1.62,1.21-.5.47-1.14.76-1.7,1.15-1.36.94-2.27,2.51-2.42,4.16-.15,1.65.46,3.35,1.77,4.4.02,1.05.05,2.12.46,3.09.29.67.75,1.26,1.2,1.83.9,1.14,1.83,2.3,2.94,3.14,1.08-.7,2.24-1.29,3.45-1.74.34-.13.69-.25.99-.47.55-.4.83-1.06,1.06-1.7,1.62-4.43,2.19-9.19,2.26-13.91,0-.6,0-1.24-.37-1.71-.4-.51-1.03-.07-2.93-.21Z"/>
      </g>
      <path class="cls-2" d="m75.81,86.51c-.13,1.16-.59,2.26-1.18,3.26-1.83,3.12-4.87,5.39-8.16,6.9-3.28,1.51-6.85,2.3-10.4,3.03-.36.24-.73.45-1.12.66-.14.08-.27.15-.41.22h0c-2.15,1.09-4.53,1.62-6.82,1.1-1.05-.24-2.09-.72-2.82-1.51l-9.22-1.91c-.3.37-.6.75-.88,1.12-1.86-.65-3.64-1.51-5.32-2.54.1-.25.2-.49.31-.73,1.28-3.05,2.77-6.16,5.11-8.6.82-.85,1.75-1.62,2.85-2.08,1-.42,2.1-.57,3.19-.63,2.66-.17,5.33.08,7.97.33,1.4-.84,2.54-1.68,3.67-2.52-1.12-2.06-1.15-4.74-.86-7.41.07-.71.17-1.41.27-2.11.02-.11.04-.24.11-.33.09-.12.25-.16.39-.19.16-.03.31-.06.47-.07h.02c1.29-.16,2.63.05,3.8.62h0s.04.02.06.03c.1.05.19.1.28.17.08.06.16.14.2.24.06.15.05.32.04.48-.1,1.3-.21,2.6-.3,3.9,1.95-1.2,3.95-2.24,6.14-2.58,1.91-.29,3.99.02,5.49,1.16.22.16.41.33.61.53.02.02.02.02.04.04.68.72,1.3,1.28,1.87,1.75,1.67,1.37,2.82,1.87,3.44,2.94.06.11.13.23.18.34.26.47.46.96.63,1.48.31.94.45,1.93.35,2.92Z"/>
      <path class="cls-3" d="m55.04,100.21c-.39-.17-.64-.63-.57-1.05.07-.42.45-.77.88-.81-.29-.19-.57-.31-.78-.52-.21-.2-.36-.5-.31-.79.06-.39.42-.64.75-.85-.4-.26-.92-.61-.83-1.09.07-.38.5-.58.88-.65.89-.18,1.81-.04,2.72.04,2.07.16,4.16-.07,6.14-.69-1.55-.2-3.24,0-4.17-.89-.29-.28-.18-.86.07-1.17.1-.12.26-.18.41-.23,1.22-.39,2.52-.38,3.8-.35,1.82.05,3.71.12,5.39-.59.38-.16.74-.36,1.04-.64.32-.3.56-.69.78-1.07.74-1.26,1.42-2.55,2.04-3.86.49-1.02.94-2.07,1.62-2.98.68-.91,1.61-1.68,2.7-2,.73,1.08,1.01,2.42,1,3.73-.01,1.31-.3,2.59-.63,3.86-.44,1.67-.95,3.34-1.75,4.87-1.4,2.69-3.65,4.9-6.25,6.47-2.6,1.57-5.66,2.41-8.65,2.93-1.92.33-3.38.18-5.72-.41-.61-.16-.95-.62-.56-1.25Z"/>
      <path class="cls-3" d="m76.06,81.6c.9,1.52,2.53,2.51,4.25,2.91,1.72.4,2.58.27,4.31-.06,1.66-.31,3.35-.94,4.63-2.05,1.63-1.41,2.15-2.61,2.9-5.15.32-1.09.29-2.88.05-3.99-.54-2.53-1.79-4.44-3.68-6.2-1.46-1.35-3.04-2.65-4.93-3.28-1.89-.63-4.15-.46-5.63.87.91.68,1.96,1.17,3.06,1.43-1.24.03-2.44.75-3.06,1.82.4.42.95.63,1.29.81.38.2.77.42,1.01.77.36.55.24,1.32-.16,1.85-.4.52-1.03.82-1.67.99-.65.17-1.37.23-1.98-.05-.61-.28-1.08-.95-.97-1.6-.29.64-.38,1.35-.48,2.05-.1.79-.21,1.59-.3,2.39-.05.45-.1.9.03,1.31,0,.22,0,.45.08.66.08.21.24.4.46.44.34.06.62-.25.95-.34-.88.46-1.45,1.48-1.36,2.47.02.21.07.42.22.56.17.15.44.16.66.08.22-.08.4-.23.57-.38-.23.24-.45.49-.68.73-.06.07-.13.14-.13.23,0,.07.04.14.08.2.13.19.34.32.47.54Z"/>
      <path class="cls-4" d="m52.58,82.62s5,4.92,10.86-.63"/>
      <path class="cls-3" d="m48.91,85.14s2.27.51,4.02,1.46"/>
      <path class="cls-1" d="m53.59,67.27c-3.55-2.61-6.67-5.76-9.6-8.66-2.93-5.42-4.71-11.45-8.08-16.61-.29.07-.57.14-.87.18-4.16.06-9.65,2.81-12.62,5.75-3.06,3.01-5.17,6.86-6.9,10.81-2.56,5.85-4.36,12.04-5.35,18.35-.46,2.99-.75,6.06-.18,9.03.78,4.15,2.94,8.57,5.92,11.57,1.25,1.25,2.52,2.27,3.83,3.18l5.88-8.27c-2.81-3.39-4.2-8-3.28-12.29.28-1.29.75-2.54,1.24-3.77,1.16-2.86,2.3-5.25,3.84-7.78,1.47,8.3,1.35,16.88-.52,25.22.17.16.33.32.51.46.73.63,1.52,1.18,2.35,1.67,1.28-3.05,2.77-6.16,5.11-8.6.82-.85,1.75-1.62,2.85-2.08,1-.42,2.1-.57,3.19-.63,2.66-.17,5.33.08,7.97.33,1.4-.84,2.54-1.68,3.67-2.52-1.12-2.06-1.15-4.74-.86-7.41.07-.71.17-1.41.27-2.11.02-.11.04-.24.11-.33.09-.12.25-.16.39-.19.16-.03.31-.06.47-.07h0c.08-1.29.37-2.56.86-3.76.05-.13.11-.26.22-.34.1-.09.28-.11.37,0,.06.06.08.15.1.23.09.54.13,1.08.14,1.63.08-.53.24-1.06.48-1.55.05-.09.1-.19.19-.24-.59-.38-1.16-.78-1.73-1.2Z"/>
      <g>
        <path class="cls-12" d="m27.31,68.03c.05.25.09.49.13.74-1.55,2.53-2.68,4.92-3.84,7.78-.5,1.23-.97,2.48-1.24,3.77-1.05,4.91.9,10.22,4.57,13.66.17.16.33.32.51.47,4,3.41,9.58,4.71,14.77,3.91,1.89-.29,2.7-2.15,3.69-3.29.35-.4.72-.84,1.23-.98.51-.15,1.19.16,1.2.69,0,.16-.05.31-.1.46-.25.7-.57,1.38-.92,2.04-.46.86-1,1.68-1.61,2.44,2.2.15,4.04-.57,5.92-.74.83-.08,1.7-.04,2.42.36.2.11.39.26.51.45.22.38.08.93-.3,1.15.49-.02.83.39.78.77-.04.38-.38.68-.74.81.38.12.59.38.67.67.02.08.03.17.01.26-.07.32-.49.43-.68.69.09.47-.1.88-.38,1.17-.28.29-.64.5-1,.68-1.47.75-3.04,1.31-4.66,1.65-7.22,1.77-16.05.57-22.72-3.24-3.54-2.07-6.62-3.72-9.6-6.71-2.98-2.99-5.14-7.42-5.92-11.57-.56-2.97-.28-6.04.19-9.03.99-6.31,2.79-12.5,5.35-18.36l11.78,9.29Z"/>
        <g class="cls-13">
          <line class="cls-3" x1="54.24" y1="100.94" x2="47.72" y2="101.69"/>
          <line class="cls-3" x1="54.28" y1="102.52" x2="46.81" y2="103.7"/>
          <line class="cls-3" x1="54.28" y1="104.14" x2="47.49" y2="105.6"/>
        </g>
        <path class="cls-4" d="m27.31,68.03c.05.25.09.49.13.74-1.55,2.53-2.68,4.92-3.84,7.78-.5,1.23-.97,2.48-1.24,3.77-1.05,4.91.9,10.22,4.57,13.66.17.16.33.32.51.47,4,3.41,9.58,4.71,14.77,3.91,1.89-.29,2.7-2.15,3.69-3.29.35-.4.72-.84,1.23-.98.51-.15,1.19.16,1.2.69,0,.16-.05.31-.1.46-.25.7-.57,1.38-.92,2.04-.46.86-1,1.68-1.61,2.44,2.2.15,4.04-.57,5.92-.74.83-.08,1.7-.04,2.42.36.2.11.39.26.51.45.22.38.08.93-.3,1.15.49-.02.83.39.78.77-.04.38-.38.68-.74.81.38.12.59.38.67.67.02.08.03.17.01.26-.07.32-.49.43-.68.69.09.47-.1.88-.38,1.17-.28.29-.64.5-1,.68-1.47.75-3.04,1.31-4.66,1.65-7.22,1.77-16.05.57-22.72-3.24-3.54-2.07-6.62-3.72-9.6-6.71-2.98-2.99-5.14-7.42-5.92-11.57-.56-2.97-.28-6.04.19-9.03.99-6.31,2.79-12.5,5.35-18.36l11.78,9.29Z"/>
      </g>
      <path class="cls-3" d="m55.02,96.18s3.67.83,6.86,0"/>
      <path class="cls-3" d="m55.35,98.35s4.62.19,6.52-.28"/>
      <path class="cls-3" d="m55.04,100.21s4.46.64,7.17-.38"/>
      <path class="cls-8" d="m75.79,65.83s.57,1.22,1.17,1.91"/>
      <path class="cls-4" d="m60.93,31.5s-1.22,4.89,0,6.79c1.22,1.9-.55,2.71-2.92,1.22"/>
      <ellipse cx="54.18" cy="33.09" rx="1.5" ry=".76" transform="translate(10.57 79.23) rotate(-78.03)"/>
      <ellipse cx="63.43" cy="35.89" rx="1.5" ry=".76" transform="translate(9.01 84.37) rotate(-71.2)"/>
      <path class="cls-4" d="m53.33,41.84s2.18,1.6,5.29,1.6"/>
      <line class="cls-4" x1="27.31" y1="68.03" x2="27.31" y2="60.54"/>
      <line class="cls-3" x1="44.91" y1="28.24" x2="45.86" y2="28.99"/>
      <path class="cls-1" d="m33.38,73.74s6.77,8.24,15.53,4.58"/>
      <path class="cls-3" d="m51.39,30.28s1.65-1.12,3.93-.81"/>
      <path class="cls-3" d="m64.91,30.69s1.62.86,2.23,2.41"/>
    </g>
    <g>
      <path class="cls-3" d="m183.32,76.75c0,.19-2.29,2.13-2.39,1.97-.14-.21-11.32,1.27-14.44.8-1.25-.18-2.43-.65-3.56-1.2-1.71-.85-3.3-1.91-4.76-3.12.07-.71.17-1.41.27-2.11.02-.11.04-.24.11-.33.09-.12.7-.25.86-.26,0,0,.37-2.56.86-3.76.05-.13.5-.45.6-.35.06.06.08.15.1.23.09.54.13,1.08.14,1.63.08-.53.24-1.06.48-1.55.05-.09.1-.19.19-.24-.59-.38-1.16-.78-1.73-1.2-3.55-2.61-6.67-5.76-9.6-8.66-2.93-5.42-4.71-11.45-8.08-16.61.05,0,.09-.02.14-.04,3.29-.81,6.28-2.76,8.4-5.41v-.02c.52-.64.98-1.32,1.38-2.03,1,1.23,2,2.46,3.03,3.65,1.38,1.63,2.81,3.21,4.35,4.68,1.11,1.07,2.35,1.91,4.03,2.32.43.1.86.22,1.29.33,1.87.53,3.68,1.23,5.12,2.5,1.07.96,1.86,2.18,2.6,3.4,1.63,2.67,10.63,25.17,10.62,25.35Z"/>
      <path class="cls-8" d="m142.36,42c-.03-.06-.07-.1-.1-.16l.24.12"/>
      <path class="cls-8" d="m177.28,66.5s0,.02,0,.03h0c-.06.29-.09.59-.15.89-.03.18-.06.34-.1.52-.28,1.24-.68,2.5-1.51,3.46-.41.49-.96.88-1.58,1.11-.61.25-1.29.33-1.99.21-2.81-.49-5.5-1.55-8.01-2.94-.23-.12-.45-.25-.68-.37-.06-.04-.14-.08-.2-.12-.16-.1-.31-.19-.47-.29"/>
      <path class="cls-3" d="m133.37,93.99c-.45-.43-.89-.89-1.29-1.37-2.81-3.39-4.2-8-3.28-12.29.28-1.29.75-2.54,1.24-3.77,1.16-2.86,2.3-5.25,3.84-7.78,1.47,8.3,1.35,16.88-.52,25.22Z"/>
      <path class="cls-3" d="m174.77,33.11c3.39-1.97,4.8-6.43,3.95-10.26-.86-3.83-3.6-7.01-6.81-9.26-1.69-1.19-3.54-2.16-5.54-2.69-5.82-1.54-12.37,1.19-15.78,6.15-3.41,4.96-5.37,11.08-2.9,16.56.4.88,2.52,2.41,3.27,3.01.68.55,1.54.83,2.38,1.06,3.25.91,6.67,1.33,10.01.85,3.34-.47,6.25-2.41,11.42-5.42Z"/>
      <path class="cls-3" d="m173.87,24.56c-2.48,2.11-5.68,3.27-8.91,3.63-1.51.17-3.03.18-4.55.05-1.73-.14-3.47-.45-5.18-.89-.19-.79-.73-1.49-1.43-1.88-.71-.39-1.58-.48-2.35-.23-.94.31-1.67,1.07-2.17,1.92-.62,1.05-.93,2.38-.4,3.48.43.89,1.32,1.46,2.12,1.9-.2,2.78-.35,5.78,1.15,8.13.7,1.1,1.47,2.2,2.49,3.01,1.05.84,2.51,1.77,3.78,2.22,2.18.77,4.88.37,6.98-.6,3.16-1.46,5.3-4.47,7.12-7.43,1.34-2.17,2.36-4.54,2.97-7.02-.67-.8-1.06-1.8-1.28-2.82-.22-1.02-.27-2.07-.33-3.48Z"/>
      <path class="cls-6" d="m162.06,69.19s-.84-4.25-1.62-7.22"/>
      <path class="cls-6" d="m169.88,60.54s6.34.49,7.41,5.99"/>
      <circle class="cls-9" cx="174.95" cy="69.02" r="2.1"/>
      <line class="cls-4" x1="169.88" y1="56.07" x2="171.36" y2="60.54"/>
      <path class="cls-1" d="m167.71,74.19c-3.55-2.61-14.34-12.68-17.28-15.58-2.93-5.42-4.71-11.45-8.08-16.61-.29.07-.57.14-.87.18-4.16.06-9.65,2.81-12.62,5.75-3.06,3.01-5.17,6.86-6.9,10.81-2.56,5.85-4.36,12.04-5.35,18.35-.46,2.99-.75,6.06-.18,9.03.78,4.15,2.94,8.57,5.92,11.57,1.25,1.25,2.52,2.27,3.83,3.18l5.88-8.27c-2.81-3.39-4.2-8-3.28-12.29.28-1.29.75-2.54,1.24-3.77,1.16-2.86,2.3-5.25,3.84-7.78,1.47,8.3,1.35,16.88-.52,25.22.17.16.33.32.51.46.73.63,1.52,1.18,2.35,1.67,2.84,7.74,30.26,3.24,30.55.56.07-.71,1.97-22.42,2.11-22.45"/>
      <path class="cls-4" d="m167.37,31.5s-1.22,4.89,0,6.79c1.22,1.9-.55,2.71-2.92,1.22"/>
      <ellipse cx="160.63" cy="33.09" rx="1.5" ry=".76" transform="translate(94.94 183.36) rotate(-78.03)"/>
      <ellipse cx="169.88" cy="35.89" rx="1.5" ry=".76" transform="translate(81.15 185.14) rotate(-71.2)"/>
      <path class="cls-4" d="m159.77,41.84s2.18,1.6,5.29,1.6"/>
      <line class="cls-4" x1="133.76" y1="68.03" x2="133.76" y2="60.54"/>
      <line class="cls-3" x1="151.36" y1="28.24" x2="152.31" y2="28.99"/>
      <path class="cls-1" d="m139.82,73.74s6.77,8.24,15.53,4.58"/>
      <path class="cls-3" d="m157.84,30.28s1.65-1.12,3.93-.81"/>
      <path class="cls-3" d="m171.36,30.69s1.62.86,2.23,2.41"/>
      <g>
        <path class="cls-3" d="m162.02,67.64s-1.02.61-1.01,1.56c.02,1.63,1.61,1.77,1.61,1.77"/>
        <path class="cls-3" d="m176.99,70.92s.78.9.47,1.8c-.53,1.54-2.08,1.18-2.08,1.18"/>
        <g>
          <path class="cls-3" d="m189.47,72.35c-.06.54-.21,1.29-.36,1.49l.36-1.49Z"/>
          <path class="cls-3" d="m188.44,73.6v-.08l-.04-2.31v-.13c.14.56.16.92.2,1.32.04.51-.05.96-.16,1.2Z"/>
        </g>
        <path class="cls-4" d="m174.97,74.05c-.23.16-.47.26-.73.35"/>
        <path class="cls-11" d="m190.4,73.52c-.18.92-.71,1.84-1.2,2.33-.49.48-1.23,1.03-1.23,1.03-.03.04-.06.09-.08.13l-2.07-2.12c.13-.12.22-.2.24-.22.05-.05.1-.1.13-.17.1-.23-.18-.82-.24-1.06-.11-.43-.21-.89-.2-1.33.02-.74.45-.66.66-.55.2.1-.02.64.25,1.25.28.6.56,1.04.72.82.17-.21.3-.53.29-1.14-.01-.62-.13-1.22-.28-1.7-.15-.47.51-1.22.83-.3.07.22.13.42.18.59v.13s-.02-.1-.03-.16l.05,2.52s.01-.03.02-.05v.08c.11-.24.2-.69.16-1.2-.04-.4-.06-.76-.2-1.32,0,0,.23-.44.59-.31.34.12.54.84.5,1.38-.01.06-.01.13-.02.2l-.36,1.49c.15-.2.3-.95.36-1.49.05-.03.3-.2.5-.11.21.11.6.37.43,1.28Z"/>
        <path class="cls-11" d="m153.22,72.27l-2.91,1.47c-.07-.14-.13-.29-.2-.43,0,0-.59-.57-1-1.12-.41-.55-.8-1.55-.83-2.48-.03-.93.4-1.13.62-1.2.21-.06.44.14.48.18-.03.55.01,1.31.13,1.53l-.13-1.53c0-.07.01-.14.01-.2.04-.54.35-1.22.71-1.29.37-.07.53.4.53.4-.22.53-.3.89-.4,1.27-.12.5-.1.96-.03,1.21l.43-2.48c.08-.16.16-.34.27-.55.46-.87.99-.02.78.42-.22.45-.44,1.02-.54,1.64-.11.6-.02.94.1,1.17.13.24.48-.15.85-.71.36-.55.22-1.12.44-1.19.22-.08.66-.09.56.64-.05.45-.22.88-.4,1.29-.09.23-.46.76-.4,1.01.02.07.06.13.1.18.16.22.37.41.59.55.07.05.15.13.24.22Z"/>
        <path class="cls-3" d="m149.38,68.69l.13,1.53c-.12-.22-.16-.98-.13-1.53Z"/>
        <path class="cls-3" d="m150.63,67.6l-.43,2.48c-.07-.25-.09-.71.03-1.21.1-.38.18-.74.4-1.27Z"/>
        <path class="cls-3" d="m176.49,83.84c-.54-.1-1.22-.34-1.81-.56,0,0,0,.01,0,.04h0s.01.02.01.02c.19.46,1.37,3.45,1.29,5.67-.02.49-.06,1.02-.12,1.55-.23,2.11-.68,4.29-.68,4.29,2.59,1.83,4.67,4.24,6.09,7.08,1.28,2.55.15,5.24-1.55,7.31-.72.88-1.55,1.41-2.42,2.1-.37.3-.38.52-.12,1.98.25,1.46.68,2.76-.5,3.48-1.18.72-2.84,0-3.47-2-.38-1.18-.57-2.1-.62-2.84v-.06s-.01,0,0-.01c-.09-1.8.54-3.19.81-3.63.02-.04.48-.75.86-1.14,1.51-1.52,1.91-1.89,1.91-1.89,0,0-2.02-.45-3.54-1.82-1.03-.94-2-2.38-2.65-3.22-.16,0-.31,0-.47,0-.82-.03-1.43-.24-1.85-.47-.05-.03-.11-.05-.17-.08-.36-.22-.54-.42-.58-.47h-.01c-.05.06-.11.12-.17.17-.15.13-.31.24-.49.31-.1.05-.2.08-.31.11-.1.03-.21.05-.32.06-.88.13-1.76-.13-1.76-.13-.79.72-1.67,1.67-2.62,2.29-1.71,1.12-3.77,1.25-3.77,1.25,0,0,.34.43,1.59,2.16.3.43.53.85.66,1.2.42.97.36,2.74.27,3.8l-.02.04c-.14.73-.49,1.6-1.04,2.72-.93,1.87-2.69,2.33-3.74,1.43-1.05-.89-.43-2.11.04-3.51.48-1.4.51-1.62.19-1.97-.76-.82-1.5-1.47-2.07-2.45-1.13-1.92-1.81-4.19-1.06-6.24.15-.42.36-.83.64-1.22,1.85-2.59,4.27-4.66,7.11-6.06,0,0-.18-3.5.1-5.9.29-2.4,1.89-5.35,1.89-5.35-.54.1-1.09.15-1.59.16-1.52.05-2.94-.74-4.19-1.53-1.54-.97-3.05-2.07-4.12-3.55-.72-.98-1.3-2.1-1.82-3.21l2.91-1.47c.39.38.93,1.06,1.5,1.78.02.02.03.04.05.06.22.27.44.55.66.82.68.82,1.34,1.56,1.77,1.79,1.39.74,2.88.15,4.61-.48,1.72-.63,3.55.15,3.55.15,0,0,.02-.16.04-.41.04-.53.08-1.45-.06-2.19-.1-.68-.86-1.1-.86-1.1-.39-.26-.85-.48-1.15-.77-.29-.26-.53-.59-.72-.95-.29-.56-.47-1.19-.55-1.78-.06-.49-.07-.98-.03-1.47v-.02c.05-.59.15-1.18.28-1.77.44-1.92,1.18-3.49,2.8-4.64,1.35-.97,3-1.52,4.66-1.53,2.46,0,5.15,1.25,6.48,3.38,1.36,2.16,1.46,4.91.82,7.33-.06.23-.13.45-.21.68h0c-.27.8-.65,1.58-1.19,2.22l-.02.02c-.13.17-.28.33-.44.48-.07.07-.15.13-.23.18h0c-.23.15-.48.26-.73.36-.16.05-.32.12-.5.15-.11.02-.28.06-.49.11h-.01c-.08.02-.18.04-.27.07-.04,0-.07,0-.1.02-.13.04-.26.07-.4.12-.29.22-.39.57-.39.95,0,.24.04.48.1.71.12.53.32.96.32.96,0,0,1.93-.48,3.54.4,1.6.89,2.98,1.7,4.47,1.18.98-.34,4.37-3.34,5.31-4.19l2.07,2.12c-.73,1.1-1.47,2.14-2.4,3.08-1.29,1.3-2.95,2.16-4.62,2.88-1.35.58-2.88,1.15-4.38.87Z"/>
        <g>
          <path class="cls-3" d="m149.51,70.22c-.12-.22-.16-.98-.13-1.53l.13,1.53Z"/>
          <path class="cls-3" d="m150.63,67.6l-.43,2.48c-.07-.25-.09-.71.03-1.21.1-.38.18-.74.4-1.27Z"/>
        </g>
        <path class="cls-4" d="m160.54,96.64c.9,1.95,3.24,3.32,5.09,3.17,1.81-.15,2.52-2.74,2.67-3.94.13-.97-.15-1.78-.35-2.23"/>
        <path class="cls-4" d="m173.48,96.79c-.03,3.67-4.08,4.1-6.47,2.56"/>
        <path class="cls-3" d="m173.31,74.67c-.31.07-.62.11-.9.12-.74.03-1.8-.15-2.25-.82-.37.45-1.24.42-1.56.34s-.74-.37-.96-.84"/>
        <path class="cls-3" d="m162.04,81.87c.81-.15,1.63-.4,2.26-.79"/>
        <path class="cls-3" d="m174.76,83.36c-.71-.26-1.4-.61-1.93-1.06"/>
        <path class="cls-4" d="m157.4,110.03c.11.24.33.42.57.52s.51.13.77.13c.23,0,.47-.03.68-.13.39-.18.56-.55.6-.96"/>
        <path class="cls-4" d="m174.93,112c-.15.22-.39.36-.64.43s-.52.06-.78.01c-.23-.04-.46-.1-.66-.23-.36-.23-.31-.58-.28-.99"/>
      </g>
      <path class="cls-7" d="m178.46,97.52s5.14,3.94,3.31,8.31c-1.83,4.36-4.72,5.98-4.72,5.98,0,0,1.69,5.07-.7,5.77s-4.65-3.24-4.43-6.26,3.17-6.26,3.17-6.26c0,0-4.5-1.2-4.93-4.43s8.31-3.1,8.31-3.1Z"/>
      <path class="cls-7" d="m187.94,77.06s-1.09,2.78-3.12,4.72c-.76.74-1.65,1.35-2.66,1.66-.71.22-1.36.4-1.95.55-2.47.63-3.88.67-4.57.25,0,0,.9,2.62,1.44,5.51-.05.06-.11.12-.17.18-.3.27-.67.47-1.04.63-1.68.71-3.57.63-5.39.59-1.28-.04-2.58-.05-3.8.34-.15.05-.31.11-.41.23-.25.31-.35.89-.07,1.17.93.9,2.62.69,4.17.9-.72.22-1.45.4-2.2.51-1.3.22-2.63.28-3.94.18-.91-.08-1.83-.22-2.72-.04-.38.08-.81.27-.88.65-.09.49.43.84.83,1.1-.32.2-.67.46-.74.82-.01.01-.01.02-.01.03-.05.29.09.59.31.79.21.21.48.34.77.52-.42.04-.8.39-.87.81-.07.43.17.88.56,1.05-.07.12-.12.23-.14.33l-.72.26-8.33-.4-1.33-.06s5.39-6.57,8.3-7.28c0,0,.14-8.3,1.69-10.65,0,0-3.47.05-5.96-1.92-2.48-1.98-4.53-4.66-5.21-6.48l.53-.27,2.91-1.47.55-.28s.25,1,.95,2.06c.02.02.03.04.05.06.18.28.4.56.66.82.62.66,1.47,1.22,2.57,1.43,2.01.37,2.81-.71,4.64-.94l2.21.42s.2.06.55.14c1.31.31,4.64,1.01,6.78.56.19-.03.38-.08.55-.14,0,0,.56.14,1.55.52s3.28,1.88,5.35,1.88,5.87-4.23,5.87-4.23l.32.32,2.07,2.12.05.05Z"/>
      <path class="cls-7" d="m177.38,94.61l-16.04,5.93c.02-.1.07-.21.14-.33-.39-.17-.63-.62-.56-1.05.07-.42.45-.77.87-.81-.29-.18-.56-.31-.77-.52-.22-.2-.36-.5-.31-.79.06-.38.42-.64.75-.85-.4-.26-.92-.61-.83-1.1.07-.38.5-.57.88-.65.89-.18,1.81-.04,2.72.04,2.06.16,4.16-.08,6.14-.69-1.55-.21-3.24,0-4.17-.9-.28-.28-.18-.86.07-1.17.1-.12.26-.18.41-.23,1.22-.39,2.52-.38,3.8-.34,1.82.04,3.71.12,5.39-.59.37-.16.74-.36,1.04-.63.06-.06.12-.12.17-.18.3,1.68.49,3.45.3,4.86Z"/>
      <path class="cls-3" d="m185.05,83.75c-.01,1.3-.3,2.59-.63,3.85-.44,1.68-.95,3.34-1.75,4.87-1.41,2.7-3.66,4.91-6.26,6.48-2.6,1.57-5.65,2.41-8.65,2.93-1.92.33-3.38.18-5.72-.42-.5-.12-.82-.45-.7-.92.02-.1.07-.21.14-.33-.39-.17-.63-.62-.56-1.05.07-.42.45-.77.87-.81-.29-.18-.56-.31-.77-.52-.22-.2-.36-.5-.31-.79.06-.38.42-.64.75-.85-.4-.26-.92-.61-.83-1.1.07-.38.5-.57.88-.65.89-.18,1.81-.04,2.72.04,2.06.16,4.16-.08,6.14-.69-1.55-.21-3.24,0-4.17-.9-.28-.28-.18-.86.07-1.17.1-.12.26-.18.41-.23,1.22-.39,2.52-.38,3.8-.34,1.82.04,3.71.12,5.39-.59.37-.16.74-.36,1.04-.63.06-.06.12-.12.17-.18.24-.27.42-.58.61-.9.74-1.25,1.42-2.54,2.04-3.86.16-.33.32-.67.48-1,.59-.15,1.24-.33,1.95-.55,1.01-.31,1.9-.92,2.66-1.66.17.64.24,1.31.23,1.97Z"/>
      <path class="cls-3" d="m161.46,96.18s3.67.83,6.86,0"/>
      <path class="cls-3" d="m161.8,98.35s4.62.19,6.52-.28"/>
      <path class="cls-3" d="m161.49,100.21s4.46.64,7.17-.38"/>
      <path class="cls-7" d="m153.45,107.7l6.1-2.11s1.78,2.58.56,5.68-2.25,4.74-4.55,3.94c-2.3-.8-.66-5.44-.66-5.44l-1.45-2.06Z"/>
      <g>
        <path class="cls-12" d="m133.76,68.03c.05.25.09.49.13.74-1.55,2.53-2.68,4.92-3.84,7.78-.5,1.23-.97,2.48-1.24,3.77-1.05,4.91.9,10.22,4.57,13.66.17.16.33.32.51.47,4,3.41,9.58,4.71,14.77,3.91,1.89-.29,2.7-2.15,3.69-3.29.35-.4.72-.84,1.23-.98.51-.15,1.19.16,1.2.69,0,.16-.05.31-.1.46-.25.7-.57,1.38-.92,2.04-.46.86-1,1.68-1.61,2.44,2.2.15,4.04-.57,5.92-.74.83-.08,1.7-.04,2.42.36.2.11.39.26.51.45.22.38.08.93-.3,1.15.49-.02.83.39.78.77-.04.38-.38.68-.74.81.38.12.59.38.67.67.02.08.03.17.01.26-.07.32-.49.43-.68.69.09.47-.1.88-.38,1.17-.28.29-.64.5-1,.68-1.47.75-3.04,1.31-4.66,1.65-7.22,1.77-16.05.57-22.72-3.24-3.54-2.07-6.62-3.72-9.6-6.71-2.98-2.99-5.14-7.42-5.92-11.57-.56-2.97-.28-6.04.19-9.03.99-6.31,2.79-12.5,5.35-18.36l11.78,9.29Z"/>
        <g class="cls-14">
          <line class="cls-3" x1="160.69" y1="100.94" x2="154.17" y2="101.69"/>
          <line class="cls-3" x1="160.73" y1="102.52" x2="153.26" y2="103.7"/>
          <line class="cls-3" x1="160.73" y1="104.14" x2="153.94" y2="105.6"/>
        </g>
        <path class="cls-4" d="m133.76,68.03c.05.25.09.49.13.74-1.55,2.53-2.68,4.92-3.84,7.78-.5,1.23-.97,2.48-1.24,3.77-1.05,4.91.9,10.22,4.57,13.66.17.16.33.32.51.47,4,3.41,9.58,4.71,14.77,3.91,1.89-.29,2.7-2.15,3.69-3.29.35-.4.72-.84,1.23-.98.51-.15,1.19.16,1.2.69,0,.16-.05.31-.1.46-.25.7-.57,1.38-.92,2.04-.46.86-1,1.68-1.61,2.44,2.2.15,4.04-.57,5.92-.74.83-.08,1.7-.04,2.42.36.2.11.39.26.51.45.22.38.08.93-.3,1.15.49-.02.83.39.78.77-.04.38-.38.68-.74.81.38.12.59.38.67.67.02.08.03.17.01.26-.07.32-.49.43-.68.69.09.47-.1.88-.38,1.17-.28.29-.64.5-1,.68-1.47.75-3.04,1.31-4.66,1.65-7.22,1.77-16.05.57-22.72-3.24-3.54-2.07-6.62-3.72-9.6-6.71-2.98-2.99-5.14-7.42-5.92-11.57-.56-2.97-.28-6.04.19-9.03.99-6.31,2.79-12.5,5.35-18.36l11.78,9.29Z"/>
      </g>
      <path class="cls-4" d="m174.93,111.72c-.15.22-.38.39-.64.43-1.18.15-1.93-.28-2.12-.41"/>
      <path class="cls-4" d="m157.35,110.23c.15.22.38.39.64.43,1.18.15,1.93-.28,2.12-.41"/>
    </g>
  </g>
  <rect class="cls-10" x="-3781.44" y="-3646.67" width="6467.34" height="6437.3"/>
</svg>