<?xml version="1.0" encoding="UTF-8"?>
<svg id="Calque_1" data-name="Calque 1" xmlns="http://www.w3.org/2000/svg" xmlns:xlink="http://www.w3.org/1999/xlink" viewBox="0 0 128 128.13">
  <defs>
    <style>
      .cls-1 {
        fill: #d6d6d6;
      }

      .cls-1, .cls-2, .cls-3, .cls-4, .cls-5 {
        stroke: #000;
      }

      .cls-1, .cls-2, .cls-3, .cls-4, .cls-5, .cls-6 {
        stroke-linecap: round;
        stroke-linejoin: round;
      }

      .cls-2 {
        fill: #f3d587;
      }

      .cls-3, .cls-7 {
        fill: #fff;
      }

      .cls-4, .cls-6 {
        fill: none;
      }

      .cls-5 {
        fill: #fab0b4;
      }

      .cls-8 {
        clip-path: url(#clippath-1);
      }

      .cls-6 {
        stroke: #fff;
        stroke-width: 8px;
      }
    </style>
    <clipPath id="clippath-1">
      <path class="cls-3" d="m34.71,74.48c.06.31.11.62.16.93-1.94,3.17-3.37,6.17-4.82,9.76-.62,1.54-1.21,3.11-1.56,4.73-1.32,6.16,1.13,12.82,5.73,17.14.21.2.42.4.64.58,5.01,4.28,12.01,5.91,18.53,4.91,2.37-.36,3.38-2.69,4.62-4.13.44-.51.9-1.05,1.54-1.23.64-.19,1.49.19,1.51.86,0,.2-.06.39-.13.57-.32.88-.71,1.73-1.15,2.56-.58,1.08-1.25,2.11-2.02,3.06,2.76.18,5.06-.71,7.42-.93,1.04-.1,2.13-.05,3.04.45.25.14.49.32.64.57.28.48.1,1.16-.37,1.45.61-.03,1.04.49.98.97-.06.48-.47.86-.93,1.01.48.15.74.47.84.85.03.11.04.22.01.32-.09.4-.61.53-.85.87.12.59-.12,1.1-.47,1.47-.35.37-.8.62-1.26.86-1.85.95-3.82,1.65-5.85,2.08-9.06,2.22-20.13.71-28.5-4.07-4.44-2.6-8.31-4.66-12.04-8.42-3.74-3.76-6.45-9.3-7.43-14.51-.7-3.73-.35-7.58.23-11.33,1.24-7.92,3.5-15.68,6.71-23.02l14.78,11.65Z"/>
    </clipPath>
  </defs>
  <path class="cls-3" d="m94.4,74.26c0,.24-.13.46-.25.66-1.77,3.03-3.58,6.11-5.96,8.67-.33.35-.66.69-1.01,1.02l-.06.06s-.05.05-.08.07c-.03.04-.07.07-.1.1-.11.1-.21.19-.32.29-2.98,2.62-6.95,4.36-10.86,3.77-1.57-.23-3.05-.81-4.47-1.51-2.15-1.07-4.14-2.39-5.97-3.91.09-.89.21-1.77.34-2.65.02-.14.05-.3.14-.41.11-.15.31-.2.49-.24.2-.04.39-.07.59-.09h0c.1-1.62.46-3.21,1.08-4.71.06-.16.14-.33.28-.43.13-.11.35-.14.47-.01.08.08.1.19.12.29.11.68.16,1.36.17,2.04.1-.67.3-1.33.6-1.94.06-.11.13-.24.24-.3-.74-.48-1.46-.98-2.17-1.5-4.45-3.28-8.36-7.22-12.04-10.86-3.68-6.8-5.91-14.36-10.13-20.83.06-.01.11-.03.17-.05,4.13-1.02,7.88-3.46,10.54-6.78v-.02c.65-.8,1.23-1.65,1.73-2.55,1.25,1.54,2.51,3.08,3.8,4.58,1.73,2.04,3.52,4.02,5.45,5.87,1.39,1.34,2.95,2.4,5.06,2.91.54.13,1.08.27,1.62.42,2.34.66,4.62,1.54,6.42,3.14,1.34,1.2,2.33,2.73,3.26,4.27,2.05,3.35,3.91,6.8,5.72,10.29.17.32.33.64.5.96.81,1.57,1.61,3.16,2.41,4.74.31.61.62,1.22.93,1.83.36.72.73,1.44,1.09,2.16.1.2.21.42.2.65Z"/>
  <path class="cls-3" d="m45.17,66.95c-.28.69-.6,1.35-.98,1.99.36-.64.69-1.31.98-1.99Z"/>
  <path class="cls-3" d="m90.74,84.01c-.14,1.39-.48,2.73-.97,4.03-.28.78-.62,1.54-1.01,2.27-1.56,2.98-3.89,5.62-6.49,7.77-4.47,3.7-9.78,6.2-14.88,8.98-2.53,1.37-5.03,2.82-7.6,4.11.44-.83.83-1.68,1.15-2.56.07-.19.13-.38.13-.57-.02-.67-.87-1.05-1.51-.87-.64.19-1.11.73-1.55,1.24-.77.89-1.45,2.12-2.43,3.02-.59.54-1.29.96-2.19,1.1-2.7.42-5.49.38-8.19-.12-2.6-.47-5.12-1.37-7.39-2.7,1.61-3.83,3.47-7.72,6.41-10.78,1.03-1.07,2.2-2.03,3.58-2.61,1.26-.53,2.64-.71,4-.79,3.33-.21,6.68.1,10,.41,1.75-1.05,3.18-2.11,4.6-3.16-1.4-2.58-1.44-5.94-1.08-9.3.09-.89.21-1.77.34-2.65.02-.14.05-.3.14-.41.11-.15.31-.2.49-.24.2-.04.39-.07.59-.09h.02l4.77.78h.01l.52.09,13.67,2.25,2.32.38,2.55.42Z"/>
  <path class="cls-3" d="m90.88,84.03l-.14-.02c.02-.15.04-.29.05-.44,0,.12.02.3.09.46Z"/>
  <path class="cls-4" d="m45.5,41.84c-.04-.07-.09-.13-.13-.2l.3.15"/>
  <path class="cls-4" d="m89.3,72.57s.01.03.01.04h-.01c-.07.36-.11.74-.19,1.11-.04.22-.08.43-.13.65-.35,1.56-.85,3.13-1.89,4.34-.52.61-1.21,1.1-1.98,1.39-.77.31-1.62.42-2.49.26-3.53-.62-6.9-1.94-10.05-3.69-.29-.15-.57-.31-.85-.47-.08-.05-.17-.1-.25-.15-.2-.12-.39-.24-.59-.36-.17-.1-.34-.21-.51-.32-.18-.11-.35-.22-.53-.34"/>
  <path class="cls-3" d="m34.22,107.04c-.57-.54-1.11-1.11-1.62-1.72-3.53-4.25-5.27-10.03-4.11-15.42.35-1.62.94-3.19,1.56-4.73,1.45-3.59,2.88-6.59,4.82-9.76,1.84,10.41,1.69,21.17-.65,31.63Z"/>
  <path class="cls-3" d="m86.15,30.69c4.25-2.47,6.02-8.07,4.95-12.87-1.07-4.8-4.51-8.79-8.54-11.62-2.12-1.49-4.45-2.71-6.95-3.38-7.29-1.93-15.52,1.5-19.8,7.71-4.28,6.22-6.74,13.89-3.63,20.77.5,1.1,3.16,3.02,4.1,3.77.86.69,1.93,1.04,2.98,1.33,4.07,1.14,8.37,1.66,12.55,1.07,4.19-.59,7.83-3.03,14.33-6.8Z"/>
  <path class="cls-3" d="m85.02,19.97c-3.11,2.64-7.12,4.1-11.17,4.56-1.89.22-3.8.22-5.71.07-2.17-.18-4.35-.57-6.5-1.11-.24-.99-.91-1.86-1.8-2.36-.89-.49-1.99-.6-2.95-.29-1.18.38-2.1,1.34-2.73,2.41-.77,1.32-1.16,2.99-.5,4.37.54,1.12,1.65,1.83,2.66,2.39-.25,3.49-.44,7.25,1.44,10.2.88,1.38,1.84,2.75,3.12,3.77,1.32,1.05,3.15,2.22,4.74,2.78,2.74.97,6.12.46,8.76-.75,3.97-1.83,6.64-5.6,8.93-9.32,1.68-2.73,2.96-5.7,3.73-8.81-.84-1-1.34-2.26-1.61-3.54-.27-1.28-.33-2.59-.41-4.37Z"/>
  <path class="cls-3" d="m96.22,73.26c-.4-.02-.84-.06-1.1-.37-.31-.38-.09-1.05.39-1.17-.57,0-1.04.61-.9,1.16.14.55.85.86,1.61.37Z"/>
  <path class="cls-3" d="m86.96,84.56c.92.72,2.17,1,3.32.75-1.13-.2-2.25-.44-3.32-.75Z"/>
  <path class="cls-3" d="m71.51,75.41s-.45-2.1-1.43-5.82"/>
  <path class="cls-3" d="m80.02,65.1s7.96.62,9.29,7.51"/>
  <circle class="cls-5" cx="86.37" cy="75.74" r="2.64"/>
  <line class="cls-4" x1="80.02" y1="59.48" x2="81.86" y2="65.1"/>
  <path class="cls-3" d="m73.3,78.63c.06.17-.03.34-.11.5-.33.61-.67,1.22-.99,1.83-.04.05-.07.11-.09.16-.1.18-.2.35-.29.53-1.58-.82-3.34-.98-4.98-.59,0-.32,0-.65.04-.97h0c.1-1.62.46-3.21,1.08-4.71.06-.16.14-.33.28-.43.13-.11.35-.14.47-.01.08.08.1.19.12.29.11.68.16,1.36.17,2.04.1-.67.3-1.33.6-1.94.06-.11.13-.24.24-.3.04-.03.09-.05.14-.06.21-.01.33.18.39.4.02.09.03.19.03.28.01.62,0,1.23-.07,1.84.08-.63.26-1.24.55-1.8,0-.01,0-.02,0-.03.06-.13.14-.26.26-.32.12-.07.3-.05.36.07.04.07.03.15.02.23-.02.14-.03.28-.06.41-.07.62-.18,1.23-.3,1.84.1-.58.29-1.16.55-1.69,0,0,0,0,0-.02.05-.1.11-.21.2-.27.25-.16.59.09.65.37.03.13.02.26-.01.39-.03.16-.08.32-.13.47-.22.66-.28,1.38-.18,2.08.07-.26.15-.54.37-.71.21-.16.59-.13.67.12Z"/>
  <path class="cls-3" d="m98.73,70.4c-1.6-.11-2.93,1.68-4.52,1.42-.64-.1-1.23-.54-1.88-.49-.86.07-1.4.93-2.03,1.52-.62.59-1.42.96-2.13,1.45-1.71,1.18-2.85,3.15-3.04,5.22-.19,2.07.58,4.21,2.22,5.52.03,1.31.07,2.66.58,3.87.36.85.94,1.58,1.51,2.3,1.13,1.42,2.29,2.88,3.69,3.94,1.36-.88,2.81-1.62,4.33-2.19.43-.16.87-.31,1.24-.58.69-.5,1.04-1.33,1.33-2.13,2.03-5.56,2.75-11.53,2.84-17.44.01-.75,0-1.56-.47-2.14-.5-.64-1.3-.09-3.67-.26Z"/>
  <path class="cls-3" d="m98.72,75.75c.67-.11,1.38.37,1.52,1.03.15.66-.29,1.4-.94,1.58.34-.31.43-.84.27-1.28-.17-.43-.56-.75-.85-1.34Z"/>
  <g>
    <path class="cls-7" d="m98.73,70.4c-1.6-.11-2.93,1.68-4.52,1.42-.64-.1-1.23-.54-1.88-.49-.86.07-1.4.93-2.03,1.52-.62.59-1.42.96-2.13,1.45-1.71,1.18-2.85,3.15-3.04,5.22-.19,2.07.58,4.21,2.22,5.52.03,1.31.07,2.66.58,3.87.36.85.94,1.58,1.51,2.3,1.13,1.42,2.29,2.88,3.69,3.94,1.36-.88,2.81-1.62,4.33-2.19.43-.16.87-.31,1.24-.58.69-.5,1.04-1.33,1.33-2.13,2.03-5.56,2.75-11.53,2.84-17.44.01-.75,0-1.56-.47-2.14-.5-.64-1.3-.09-3.67-.26Z"/>
    <path class="cls-4" d="m98.73,70.4c-1.6-.11-2.93,1.68-4.52,1.42-.64-.1-1.23-.54-1.88-.49-.86.07-1.4.93-2.03,1.52-.62.59-1.42.96-2.13,1.45-1.71,1.18-2.85,3.15-3.04,5.22-.19,2.07.58,4.21,2.22,5.52.03,1.31.07,2.66.58,3.87.36.85.94,1.58,1.51,2.3,1.13,1.42,2.29,2.88,3.69,3.94,1.36-.88,2.81-1.62,4.33-2.19.43-.16.87-.31,1.24-.58.69-.5,1.04-1.33,1.33-2.13,2.03-5.56,2.75-11.53,2.84-17.44.01-.75,0-1.56-.47-2.14-.5-.64-1.3-.09-3.67-.26Z"/>
  </g>
  <path class="cls-2" d="m95.54,97.67c-.16,1.45-.74,2.83-1.48,4.09-2.3,3.91-6.11,6.76-10.23,8.66-4.12,1.89-8.59,2.89-13.04,3.8-.45.3-.92.57-1.4.83-.17.1-.34.19-.52.27h-.01c-2.7,1.37-5.68,2.03-8.55,1.38-1.32-.3-2.62-.9-3.54-1.9l-11.57-2.39c-.38.47-.75.94-1.11,1.41-2.33-.82-4.57-1.9-6.67-3.19.13-.31.25-.61.39-.92,1.61-3.83,3.47-7.72,6.41-10.78,1.03-1.07,2.2-2.03,3.58-2.61,1.26-.53,2.64-.71,4-.79,3.33-.21,6.68.1,10,.41,1.75-1.05,3.18-2.11,4.6-3.16-1.4-2.58-1.44-5.94-1.08-9.3.09-.89.21-1.77.34-2.65.02-.14.05-.3.14-.41.11-.15.31-.2.49-.24.2-.04.39-.07.59-.09h.02c1.62-.2,3.3.06,4.77.78h.01s.05.03.08.04c.12.06.24.13.35.21.1.08.2.18.25.3.08.19.06.4.05.6-.13,1.63-.26,3.26-.38,4.89,2.44-1.51,4.96-2.81,7.7-3.23,2.39-.37,5,.02,6.89,1.45.27.2.52.42.76.67.02.02.03.03.05.05.85.9,1.63,1.6,2.34,2.19,2.09,1.72,3.54,2.34,4.31,3.69.08.14.16.29.23.43.32.59.58,1.21.79,1.85.39,1.18.57,2.42.44,3.66Z"/>
  <path class="cls-3" d="m69.49,114.85c-.49-.22-.8-.79-.71-1.32.09-.53.57-.97,1.1-1.02-.37-.23-.71-.39-.98-.65-.27-.26-.45-.63-.39-.99.08-.48.53-.81.94-1.07-.5-.32-1.15-.77-1.04-1.37.09-.48.62-.72,1.1-.82,1.12-.23,2.27-.04,3.41.04,2.59.2,5.22-.09,7.71-.87-1.94-.25-4.06,0-5.23-1.12-.36-.35-.23-1.07.09-1.46.13-.16.32-.23.51-.29,1.53-.49,3.16-.48,4.76-.43,2.29.06,4.66.15,6.76-.73.47-.2.93-.45,1.3-.8.41-.38.7-.86.98-1.34.92-1.58,1.78-3.19,2.56-4.84.61-1.28,1.18-2.6,2.03-3.73.85-1.14,2.02-2.1,3.39-2.5.92,1.36,1.27,3.04,1.25,4.67-.02,1.64-.38,3.25-.79,4.84-.55,2.1-1.2,4.19-2.2,6.11-1.76,3.38-4.58,6.15-7.84,8.12-3.26,1.97-7.1,3.02-10.85,3.67-2.4.42-4.25.23-7.17-.52-.76-.2-1.19-.77-.7-1.56Z"/>
  <path class="cls-3" d="m95.85,91.51c1.13,1.9,3.18,3.14,5.33,3.65,2.16.5,3.23.34,5.41-.07,2.09-.39,4.2-1.18,5.81-2.57,2.05-1.77,2.7-3.27,3.63-6.46.4-1.37.37-3.61.07-5.01-.68-3.17-2.24-5.57-4.62-7.78-1.83-1.7-3.81-3.32-6.18-4.11-2.37-.79-5.2-.58-7.06,1.09,1.14.85,2.46,1.46,3.84,1.79-1.55.04-3.06.94-3.84,2.28.5.52,1.19.79,1.61,1.01.48.25.97.52,1.27.97.46.69.3,1.66-.21,2.31-.51.65-1.29,1.03-2.09,1.25-.82.22-1.71.28-2.49-.06-.77-.35-1.36-1.19-1.22-2-.36.81-.48,1.7-.6,2.58-.13,1-.26,1.99-.37,2.99-.06.56-.12,1.13.04,1.64,0,.28,0,.56.09.83.1.26.31.5.58.55.42.07.78-.31,1.2-.43-1.11.58-1.81,1.85-1.71,3.1.02.26.08.53.28.7.22.19.55.2.82.11.27-.1.5-.29.72-.48-.29.31-.57.61-.86.92-.08.08-.16.18-.16.29,0,.09.05.18.1.25.16.24.43.4.6.68Z"/>
  <path class="cls-4" d="m66.4,92.78s6.27,6.16,13.62-.79"/>
  <path class="cls-3" d="m61.8,95.95s2.84.64,5.04,1.83"/>
  <path class="cls-1" d="m67.67,73.53c-4.45-3.28-8.36-7.22-12.04-10.86-3.68-6.8-5.91-14.36-10.13-20.83-.36.09-.72.17-1.09.23-5.22.08-12.1,3.52-15.83,7.21-3.84,3.78-6.49,8.61-8.65,13.56-3.21,7.34-5.47,15.1-6.71,23.02-.58,3.75-.94,7.6-.23,11.33.98,5.2,3.69,10.75,7.43,14.51,1.57,1.57,3.16,2.85,4.8,3.99l7.38-10.37c-3.53-4.25-5.27-10.03-4.11-15.42.35-1.62.94-3.19,1.56-4.73,1.45-3.59,2.88-6.59,4.82-9.76,1.84,10.41,1.69,21.17-.65,31.63.21.2.42.4.64.58.92.79,1.91,1.48,2.95,2.09,1.61-3.83,3.47-7.72,6.41-10.78,1.03-1.07,2.2-2.03,3.58-2.61,1.26-.53,2.64-.71,4-.79,3.33-.21,6.68.1,10,.41,1.75-1.05,3.18-2.11,4.6-3.16-1.4-2.58-1.44-5.94-1.08-9.3.09-.89.21-1.77.34-2.65.02-.14.05-.3.14-.41.11-.15.31-.2.49-.24.2-.04.39-.07.59-.09h0c.1-1.62.46-3.21,1.08-4.71.06-.16.14-.33.28-.43.13-.11.35-.14.47-.01.08.08.1.19.12.29.11.68.16,1.36.17,2.04.1-.67.3-1.33.6-1.94.06-.11.13-.24.24-.3-.74-.48-1.46-.98-2.17-1.5Z"/>
  <g>
    <path class="cls-7" d="m34.71,74.48c.06.31.11.62.16.93-1.94,3.17-3.37,6.17-4.82,9.76-.62,1.54-1.21,3.11-1.56,4.73-1.32,6.16,1.13,12.82,5.73,17.14.21.2.42.4.64.58,5.01,4.28,12.01,5.91,18.53,4.91,2.37-.36,3.38-2.69,4.62-4.13.44-.51.9-1.05,1.54-1.23.64-.19,1.49.19,1.51.86,0,.2-.06.39-.13.57-.32.88-.71,1.73-1.15,2.56-.58,1.08-1.25,2.11-2.02,3.06,2.76.18,5.06-.71,7.42-.93,1.04-.1,2.13-.05,3.04.45.25.14.49.32.64.57.28.48.1,1.16-.37,1.45.61-.03,1.04.49.98.97-.06.48-.47.86-.93,1.01.48.15.74.47.84.85.03.11.04.22.01.32-.09.4-.61.53-.85.87.12.59-.12,1.1-.47,1.47-.35.37-.8.62-1.26.86-1.85.95-3.82,1.65-5.85,2.08-9.06,2.22-20.13.71-28.5-4.07-4.44-2.6-8.31-4.66-12.04-8.42-3.74-3.76-6.45-9.3-7.43-14.51-.7-3.73-.35-7.58.23-11.33,1.24-7.92,3.5-15.68,6.71-23.02l14.78,11.65Z"/>
    <g class="cls-8">
      <line class="cls-3" x1="68.48" y1="115.77" x2="60.31" y2="116.7"/>
      <line class="cls-3" x1="68.54" y1="117.75" x2="59.17" y2="119.23"/>
      <line class="cls-3" x1="68.53" y1="119.78" x2="60.02" y2="121.61"/>
    </g>
    <path class="cls-4" d="m34.71,74.48c.06.31.11.62.16.93-1.94,3.17-3.37,6.17-4.82,9.76-.62,1.54-1.21,3.11-1.56,4.73-1.32,6.16,1.13,12.82,5.73,17.14.21.2.42.4.64.58,5.01,4.28,12.01,5.91,18.53,4.91,2.37-.36,3.38-2.69,4.62-4.13.44-.51.9-1.05,1.54-1.23.64-.19,1.49.19,1.51.86,0,.2-.06.39-.13.57-.32.88-.71,1.73-1.15,2.56-.58,1.08-1.25,2.11-2.02,3.06,2.76.18,5.06-.71,7.42-.93,1.04-.1,2.13-.05,3.04.45.25.14.49.32.64.57.28.48.1,1.16-.37,1.45.61-.03,1.04.49.98.97-.06.48-.47.86-.93,1.01.48.15.74.47.84.85.03.11.04.22.01.32-.09.4-.61.53-.85.87.12.59-.12,1.1-.47,1.47-.35.37-.8.62-1.26.86-1.85.95-3.82,1.65-5.85,2.08-9.06,2.22-20.13.71-28.5-4.07-4.44-2.6-8.31-4.66-12.04-8.42-3.74-3.76-6.45-9.3-7.43-14.51-.7-3.73-.35-7.58.23-11.33,1.24-7.92,3.5-15.68,6.71-23.02l14.78,11.65Z"/>
  </g>
  <path class="cls-3" d="m69.46,109.8s4.6,1.04,8.6,0"/>
  <path class="cls-3" d="m69.88,112.52s5.8.24,8.18-.35"/>
  <path class="cls-3" d="m69.49,114.85s5.59.8,9-.47"/>
  <path class="cls-4" d="m95.51,71.72s.71,1.53,1.46,2.4"/>
  <path class="cls-4" d="m76.87,28.67s-1.53,6.13,0,8.51-.68,3.4-3.66,1.53"/>
  <ellipse cx="68.41" cy="30.67" rx="1.88" ry=".95" transform="translate(24.21 91.23) rotate(-78.03)"/>
  <ellipse cx="80.01" cy="34.18" rx="1.88" ry=".95" transform="translate(21.87 98.91) rotate(-71.2)"/>
  <path class="cls-4" d="m67.34,41.64s2.74,2.01,6.63,2.01"/>
  <line class="cls-4" x1="34.71" y1="74.48" x2="34.71" y2="65.1"/>
  <line class="cls-3" x1="56.78" y1="24.59" x2="57.98" y2="25.52"/>
  <path class="cls-1" d="m42.32,81.65s8.5,10.34,19.48,5.74"/>
  <path class="cls-3" d="m64.91,27.14s2.07-1.4,4.93-1.02"/>
  <path class="cls-3" d="m81.86,27.65s2.03,1.07,2.8,3.02"/>
  <rect class="cls-6" x="-3446.27" y="-3646.67" width="6467.34" height="6437.3"/>
</svg>