<?xml version="1.0" encoding="UTF-8"?>
<svg id="Calque_1" data-name="Calque 1" xmlns="http://www.w3.org/2000/svg" viewBox="0 0 200 128">
  <defs>
    <style>
      .cls-1, .cls-2, .cls-3, .cls-4, .cls-5, .cls-6, .cls-7, .cls-8, .cls-9, .cls-10, .cls-11, .cls-12, .cls-13, .cls-14 {
        stroke: #000;
      }

      .cls-1, .cls-2, .cls-5, .cls-6, .cls-7, .cls-15, .cls-12 {
        stroke-linecap: round;
      }

      .cls-1, .cls-2, .cls-5, .cls-6, .cls-7, .cls-15, .cls-12, .cls-13, .cls-14 {
        stroke-linejoin: round;
      }

      .cls-1, .cls-5, .cls-10, .cls-14 {
        fill: #d6d6d6;
      }

      .cls-2 {
        fill: #87ccf3;
      }

      .cls-3, .cls-4, .cls-8, .cls-9, .cls-10, .cls-11 {
        stroke-miterlimit: 10;
      }

      .cls-16, .cls-13 {
        fill: #f3d587;
      }

      .cls-17 {
        fill: #e9cb61;
      }

      .cls-4 {
        fill: #b2f0e9;
        stroke-width: 1.05px;
      }

      .cls-5, .cls-6, .cls-7 {
        stroke-width: 2px;
      }

      .cls-6 {
        fill: #fee4cb;
      }

      .cls-7, .cls-9 {
        fill: #fff;
      }

      .cls-8 {
        fill: #ff6d75;
      }

      .cls-15 {
        stroke: #fff;
        stroke-width: 8px;
      }

      .cls-15, .cls-11 {
        fill: none;
      }
    </style>
  </defs>
  <path class="cls-7" d="m56.24,53.89s7.77.29,11.35-9.2c1.78-4.71,3.18-12.76,4.1-19.39.85-5.97-4.04-12.56-5.59-13.25,0,0-2.73-2.51-6.65-2.82-1.75-.13-4.3-.61-7.86.36-5.67,1.53-10.09,6.88-11.03,12.11l-.16.95c-.06-.06-.12-.09-.18-.12-1.87-.7-5.37-1.25-6.4,3.63-1.11,5.27,2.99,6.4,4.8,6.55,0,0-1.42,7.65,1.19,10.86,0,0,2.54,3.84,13.98,9.79"/>
  <path class="cls-7" d="m53.22,40.21c.14-.51.5-.92.91-1.18.83-.52,1.91-.42,2.61.24.7.66.99,1.83.69,2.84h0c-.53.54-1.26.85-2.02.8-.12,0-.23-.02-.35-.04-.56-.1-1.11-.38-1.48-.86-.37-.48-.54-1.18-.36-1.81Z"/>
  <path class="cls-3" d="m68.19,32.93c-.19.13-1-.77-2.35-1.04-1.35-.29-2.49.2-2.6,0-.06-.09.16-.35.66-.58.49-.23,1.28-.38,2.12-.21.84.18,1.49.63,1.83,1.04.35.4.43.73.34.79Z"/>
  <path class="cls-3" d="m64.17,27.1c.23-.34,1.29-.13,2.52-.25,1.24-.08,2.25-.46,2.53-.16.12.15,0,.48-.43.82-.42.34-1.14.67-1.99.74-.85.07-1.62-.13-2.08-.41-.47-.27-.65-.58-.55-.74Z"/>
  <path class="cls-7" d="m57.33,42.51c.04.07-.52.52-1.64.65-.28.03-.59.04-.93-.02-.34-.05-.74-.21-1.04-.5-.29-.27-.54-.62-.7-1.01-.16-.4-.26-.85-.19-1.34.09-.47.26-.87.52-1.23.27-.36.61-.63,1.05-.77.48-.1.82,0,1.14.08.32.09.61.21.85.33.48.22.87.43,1.12.61.25.18.36.33.33.36-.03.04-.18-.02-.46-.11-.33-.11-.72-.24-1.18-.38-.25-.09-.5-.16-.79-.22-.27-.05-.61-.09-.82-.03-.22.08-.48.29-.66.54-.18.26-.32.6-.38.92-.09.63.23,1.34.64,1.76.38.41.99.47,1.49.49,1,.02,1.62-.24,1.66-.14Z"/>
  <path class="cls-7" d="m74.24,68.21s3.63,4.95,5.78,16.15c2.15,11.2,4.99,24.11-.79,28.08-3.1,2.13-10.84-7.78-10.84-7.78l-2.24-23.28-2.19-6.96,10.28-6.22Z"/>
  <path class="cls-6" d="m19.71,119.18s16.93,7.47,44.65,2.57l7.23-34.54.83,1.25,12.83-4.48s-11.6-24.45-17.39-27.64c-3.9-1.61-9.63-.88-9.63-.88-6.32-2.16-11.44,3.74-18.98-4.22-.64-.14-19.44,3.53-22.62,6.03-7.16,5.65-8.29,33.2-8.29,33.2l13.33-1.68-.6,23.95-1.35,6.43Z"/>
  <path class="cls-5" d="m42.36,50.69s10.92-13.09,12.08-13.92c2.29-1.64,6.89-1.95,8.37-.72.87.73,10.57,9.36,10.57,9.36l-2.9,6.04-10.88,8.33-17.24-9.08Z"/>
  <path class="cls-7" d="m59.28,50.07c.8.9-.89,8.82-.89,8.82,0,0-.1,1.91-.51,5.92-.34,3.47-2.79,7.45-3.44,8.48l.15.09s-9.34,18.5-13.77,28.04c-4.45,9.54-7.38,15.29-13.13,16.8-1.14.31-2.1.26-2.9,0h-.01c-5.4,0-9.32-8.08-11.03-14.25-.76-2.73-1.97-9.13-2.55-13.8l16.91-2.23.44,4.04s.1.55.25,1.49l16.64-24.7-.28-.15s-1.3-10.53-.8-12.73c.5-2.2,7.12-13.14,7.12-13.14,1.62-2.71,3.41-.39,3.41-.39,0,0,1.01-1.6,2.22-1.08,1.06.47.82,1.93.82,1.93,0,0,1.08.06,1.59,1.15.53,1.11-1.52,5.02-1.52,5.02,0,0,.5-.2,1.3.7Z"/>
  <path class="cls-7" d="m70.04,35.3c.83-3.84,1.06-6.08,1.06-6.08-6.54-.01-8.83-13.71-8.83-13.71-4.73,3.4-10.18,5.19-14.44,6.13l-7.44,9.39c.9-4.58,0-8.37,0-8.37-1.59-1.2-4.14-.22-4.14-.22-2.74-12.81,8.58-13.43,8.58-13.43,11.42-7.99,19.31,0,19.31,0,18.38,6.16,5.89,26.3,5.89,26.3Z"/>
  <line class="cls-7" x1="54.87" y1="42.36" x2="50.65" y2="50.14"/>
  <line class="cls-7" x1="57.9" y1="43.2" x2="53.79" y2="51.63"/>
  <line class="cls-7" x1="57.98" y1="49.38" x2="55.84" y2="55.23"/>
  <path class="cls-2" d="m73.39,40.8s3.84-3.87,5.21-2.11c1.37,1.76-5.21,2.11-5.21,2.11Z"/>
  <path class="cls-2" d="m74.72,43.58s4.91.51,4.11,2.57c-.8,2.06-4.11-2.57-4.11-2.57Z"/>
  <line class="cls-7" x1="60.85" y1="35.3" x2="60.85" y2="24.77"/>
  <line class="cls-5" x1="39.24" y1="51.24" x2="40.33" y2="44.22"/>
  <path class="cls-3" d="m50.08,29.29c.13.19,1.21-.36,2.57-.13,1.36.21,2.25,1.08,2.42.94.09-.06-.03-.39-.41-.78-.38-.39-1.06-.82-1.91-.95-.85-.14-1.62.06-2.08.31-.47.25-.66.53-.6.61Z"/>
  <path class="cls-3" d="m56.91,25.74c-.2-.42-1.56-.65-3.07-1.26-1.52-.58-2.68-1.36-3.1-1.18-.19.09-.11.47.33.97.43.5,1.25,1.11,2.28,1.52,1.04.41,2.04.52,2.68.45.65-.07.95-.3.87-.5Z"/>
  <line class="cls-7" x1="28.78" y1="93.47" x2="24.67" y2="99.85"/>
  <path class="cls-7" d="m78.34,112.58c-7.51,5.3-14.08-9.82-16.5-15.62-2.42-5.79-6.33-22.45-6.33-22.45l-.58-2.01,2.2-5.32,1.78-6.91-.53-10.08s-.1-2.3,1.5-1.81c0,0-1.27-1.75-.45-3,.48-.76,1.42-.48,1.42-.48,0,0-.83-1.27-.34-2.17.19-.32.47-.47.76-.5.57-.09,1.12.22,1.43.7,1.4,2.17,6.49,10.21,6.84,11.93.39,2.01-1.14,2.57-1.14,2.57,0,0,.51,2.84-1.66,4.11,0,0,.47,2.07-1.66,3.24l-.41,5.72,14.72,27.1s6.46,9.69-1.05,15Z"/>
  <line class="cls-7" x1="60.85" y1="44.88" x2="64.94" y2="51.63"/>
  <line class="cls-7" x1="59.9" y1="48.37" x2="63.23" y2="54.11"/>
  <line class="cls-5" x1="82.65" y1="21.78" x2="78.92" y2="29.22"/>
  <line class="cls-5" x1="87.35" y1="27.42" x2="81.98" y2="31.45"/>
  <line class="cls-5" x1="82.65" y1="36.34" x2="89.4" y2="36.34"/>
  <path class="cls-10" d="m192.69,107.02c0,.76-.85,2.54-2.2,2.54h-10.08c-1.36,0-2.71-.93-4.62-.93h-55.83c-1.21,0-4.09-.76-5.36-1.61-1.27-.85-1.4-1.06-1.4-1.61v-3.35c0-.51,1.53-1.06,1.53-1.95v-4.92c0-1.27,11.44-9.41,15.09-10.3s19.62-.97,23.9-.59c4.28.38,13.47,4.92,19.28,9.2,6.23,0,12.92,1.56,15.85,3.32,2.92,1.76,3.86,4.77,3.86,6.04v4.15Z"/>
  <path class="cls-4" d="m145.74,94h-17.77c.19-1.07,5.29-7.99,6.69-8.18.44-.06,1.34-.08,2.77-.08s3.09.03,4.56.05c.96.02,1.81.03,2.42.04.09.4.75,3.25,1.33,8.18Z"/>
  <path class="cls-10" d="m146.02,107.34h-8.76c-.84,0-1.7-.61-2.3-1.62-.28-.47-.95-1.37-1.73-2.41-1.03-1.38-2.31-3.09-3.08-4.36l-.05-.08c-1.34-2.2-2.3-3.79-2.12-4.86h17.77c.09.79.18,1.64.27,2.54.61,6.46.08,10.31,0,10.8Z"/>
  <circle class="cls-3" cx="176.71" cy="107.21" r="6.67"/>
  <circle class="cls-9" cx="176.71" cy="107.21" r="4.72"/>
  <circle class="cls-3" cx="126.63" cy="107.21" r="6.67"/>
  <circle class="cls-9" cx="126.63" cy="107.21" r="4.72"/>
  <path class="cls-16" d="m189.33,98.7s.76.93.91,1.38,0,.95-.61.95h-3.6c-.57,0-1.63-.87-2.22-1.57-.59-.7-1.48-1.84-1.23-1.99.25-.15,3.54.28,6.76,1.23Z"/>
  <path class="cls-3" d="m188.74,106.05c.21-.41.7-.74,1.11-.74h2.84v1.91c0,.2-.06.48-.18.78h-4.01c-.41,0-.57-.33-.37-.74l.61-1.21Z"/>
  <path class="cls-4" d="m125.31,87.06c.49.21,1.16.49,1.31.56.25.11.21.53-.49.93s-2.95,2.29-3.83,3.11-1.48,1.08-2.12,1.08h-3.09c2.15-1.75,5.41-4.02,8.22-5.69Z"/>
  <path class="cls-8" d="m114.72,100.12v-4.53h3.62c.53,0,.81.2.53.96-.28.76-1.63,2.79-2.01,3.09-.38.3-.72.53-1.21.53h-.94s0-.03,0-.04Z"/>
  <path class="cls-4" d="m167.84,94h-20.72c-.56-4.84-1.21-7.68-1.33-8.18h1.04c2.95,0,6.71.13,9.66,1.15,1.7.59,3.98,1.7,6.42,3.11,2.63,1.52,4.28,2.84,4.92,3.92Z"/>
  <path class="cls-11" d="m168.39,104.77c0,.1,0,.21,0,.32-.02,1.11-.04,2.26-1.11,2.26h-19.87c.08-.56.59-4.4,0-10.81-.08-.9-.17-1.74-.27-2.53h20.72c.16.26.25.5.29.73.25,1.51.28,8.84.25,10.03Z"/>
  <rect x="149.28" y="95.58" width="2.67" height=".69" rx=".35" ry=".35"/>
  <rect x="130.64" y="95.58" width="2.67" height=".69" rx=".35" ry=".35"/>
  <path class="cls-1" d="m99.72,90.59c.03-.38.1-.76.25-1.14.81-2.05,3.13-3.05,5.17-2.23,1.67.66,2.62,2.32,2.48,4.02.6.2,1.17.54,1.63,1.03,1.5,1.61,1.42,4.13-.19,5.63-1.61,1.5-4.13,1.42-5.63-.19-.05-.05-.08-.11-.12-.16-1.07.79-2.51,1.04-3.84.51-2.04-.81-3.05-3.13-2.23-5.17.46-1.15,1.39-1.95,2.48-2.3Z"/>
  <path class="cls-1" d="m104.42,102.5c.01-.15.04-.3.1-.44.32-.8,1.22-1.18,2.01-.87.65.26,1.02.9.97,1.56.23.08.45.21.63.4.58.63.55,1.61-.07,2.19-.63.58-1.61.55-2.19-.08-.02-.02-.03-.04-.05-.06-.42.31-.98.4-1.49.2-.8-.32-1.18-1.22-.87-2.01.18-.45.54-.76.96-.9Z"/>
  <path class="cls-1" d="m103.12,83.58c-.12-.36-.21-.74-.22-1.14-.07-2.2,1.66-4.04,3.86-4.1,1.79-.05,3.33,1.09,3.88,2.71.63-.05,1.28.03,1.91.3,2.02.88,2.94,3.23,2.06,5.24-.88,2.02-3.23,2.94-5.24,2.06-.06-.03-.11-.07-.17-.1-.67,1.15-1.89,1.95-3.32,1.99-2.2.07-4.04-1.66-4.1-3.86-.04-1.23.5-2.34,1.36-3.1Z"/>
  <path class="cls-1" d="m99.79,77.52c.12.36.21.74.22,1.14.07,2.2-1.66,4.04-3.86,4.1-1.79.05-3.33-1.09-3.88-2.71-.63.05-1.28-.03-1.91-.3-2.02-.88-2.94-3.23-2.06-5.24.88-2.02,3.23-2.94,5.24-2.06.06.03.11.07.17.1.67-1.15,1.89-1.95,3.32-1.99,2.2-.07,4.04,1.66,4.1,3.86.04,1.23-.5,2.34-1.36,3.1Z"/>
  <rect class="cls-12" x="110.7" y="104.03" width="2.5" height="1.77"/>
  <path class="cls-14" d="m166.66,19.35h-5.37c-.13,0-.27.05-.36.15-.09.09-.15.23-.15.36v1.42h6.65l-.28-1.51c-.04-.24-.26-.42-.5-.42Z"/>
  <polygon class="cls-14" points="160.78 37.62 170.42 37.62 167.59 22.08 160.78 22.08 160.78 37.62"/>
  <polygon class="cls-17" points="161.29 22.08 167.08 22.08 166.93 21.29 161.29 21.29 161.29 22.08"/>
  <path class="cls-14" d="m170.49,37.62h-9.86l-18.16-13.82c-.15-.12-.36-.14-.53-.05-.17.09-.29.26-.29.46v12.59l-17.07-12.99c-.15-.12-.36-.14-.54-.05-.17.09-.28.26-.28.46v32.32c0,.13.05.27.15.36.09.09.23.15.36.15h49.41c.15,0,.29-.07.39-.18.1-.12.14-.27.11-.42l-3.2-18.4c-.04-.25-.25-.42-.5-.42Zm-34.5,4.18c0,.12-.05.23-.13.31-.08.08-.19.13-.31.13h-6.63c-.12,0-.23-.05-.31-.13-.08-.08-.13-.2-.13-.31v-1.95c0-.12.05-.23.13-.31.08-.08.2-.13.31-.13h6.63c.12,0,.23.05.31.13.08.08.13.19.13.31v1.95Zm17.82,0c0,.12-.05.23-.13.31-.08.08-.19.13-.31.13h-6.63c-.12,0-.23-.05-.31-.13-.08-.08-.13-.2-.13-.31v-1.95c0-.12.05-.23.13-.31.08-.08.2-.13.31-.13h6.63c.12,0,.23.05.31.13.08.08.13.19.13.31v1.95Z"/>
  <path class="cls-13" d="m128.92,39.42c-.12,0-.23.05-.31.13-.08.08-.13.2-.13.31v1.95c0,.12.05.23.13.31.08.08.2.13.31.13h6.63c.12,0,.23-.05.31-.13.08-.08.13-.19.13-.31v-1.95c0-.12-.05-.23-.13-.31-.08-.08-.19-.13-.31-.13h-6.63Z"/>
  <path class="cls-13" d="m146.75,39.42c-.12,0-.23.05-.31.13-.08.08-.13.2-.13.31v1.95c0,.12.05.23.13.31.08.08.2.13.31.13h6.63c.12,0,.23-.05.31-.13.08-.08.13-.19.13-.31v-1.95c0-.12-.05-.23-.13-.31-.08-.08-.19-.13-.31-.13h-6.63Z"/>
  <polygon class="cls-13" points="123.77 24.58 141.65 37.8 141.64 35.9 123.76 22.69 123.77 24.58"/>
  <polygon class="cls-13" points="141.64 24.91 160.76 39.49 160.75 37.59 141.64 23.01 141.64 24.91"/>
  <path class="cls-14" d="m159.37,11.75c-.87-.52-2.07-.84-3.4-.84-1.48,0-2.8.4-3.68,1.02-.36-.03-.74-.05-1.13-.05-2.65,0-4.81.85-4.81,1.89s2.15,1.89,4.81,1.89c.39,0,.77-.02,1.13-.05.88.62,2.2,1.02,3.68,1.02,1.33,0,2.53-.32,3.4-.84.87.52,2.07.84,3.4.84,2.66,0,4.81-1.28,4.81-2.85s-2.15-2.86-4.81-2.86c-1.33,0-2.53.32-3.4.84Z"/>
  <rect class="cls-15" x="-219.84" y="-2126.78" width="6467.34" height="6437.3"/>
</svg>