<?xml version="1.0" encoding="UTF-8"?>
<svg id="Calque_1" data-name="Calque 1" xmlns="http://www.w3.org/2000/svg" viewBox="0 0 200 128">
  <defs>
    <style>
      .cls-1 {
        fill: #87ccf3;
      }

      .cls-1, .cls-2, .cls-3, .cls-4, .cls-5 {
        stroke: #000;
      }

      .cls-1, .cls-3, .cls-4, .cls-5, .cls-6 {
        stroke-linecap: round;
        stroke-linejoin: round;
      }

      .cls-2 {
        stroke-miterlimit: 10;
      }

      .cls-3 {
        fill: #d6d6d6;
      }

      .cls-3, .cls-4, .cls-5 {
        stroke-width: 2px;
      }

      .cls-4 {
        fill: #fee4cb;
      }

      .cls-5 {
        fill: #fff;
      }

      .cls-6 {
        fill: none;
        stroke: #fff;
        stroke-width: 8px;
      }
    </style>
  </defs>
  <path class="cls-5" d="m56.24,53.89s7.77.29,11.35-9.2c1.78-4.71,3.18-12.76,4.1-19.39.85-5.97-4.04-12.56-5.59-13.25,0,0-2.73-2.51-6.65-2.82-1.75-.13-4.3-.61-7.86.36-5.67,1.53-10.09,6.88-11.03,12.11l-.16.95c-.06-.06-.12-.09-.18-.12-1.87-.7-5.37-1.25-6.4,3.63-1.11,5.27,2.99,6.4,4.8,6.55,0,0-1.42,7.65,1.19,10.86,0,0,2.54,3.84,13.98,9.79"/>
  <path class="cls-5" d="m53.22,40.21c.14-.51.5-.92.91-1.18.83-.52,1.91-.42,2.61.24.7.66.99,1.83.69,2.84h0c-.53.54-1.26.85-2.02.8-.12,0-.23-.02-.35-.04-.56-.1-1.11-.38-1.48-.86-.37-.48-.54-1.18-.36-1.81Z"/>
  <path class="cls-2" d="m68.19,32.93c-.19.13-1-.77-2.35-1.04-1.35-.29-2.49.2-2.6,0-.06-.09.16-.35.66-.58.49-.23,1.28-.38,2.12-.21.84.18,1.49.63,1.83,1.04.35.4.43.73.34.79Z"/>
  <path class="cls-2" d="m64.17,27.1c.23-.34,1.29-.13,2.52-.25,1.24-.08,2.25-.46,2.53-.16.12.15,0,.48-.43.82-.42.34-1.14.67-1.99.74-.85.07-1.62-.13-2.08-.41-.47-.27-.65-.58-.55-.74Z"/>
  <path class="cls-5" d="m57.33,42.51c.04.07-.52.52-1.64.65-.28.03-.59.04-.93-.02-.34-.05-.74-.21-1.04-.5-.29-.27-.54-.62-.7-1.01-.16-.4-.26-.85-.19-1.34.09-.47.26-.87.52-1.23.27-.36.61-.63,1.05-.77.48-.1.82,0,1.14.08.32.09.61.21.85.33.48.22.87.43,1.12.61.25.18.36.33.33.36-.03.04-.18-.02-.46-.11-.33-.11-.72-.24-1.18-.38-.25-.09-.5-.16-.79-.22-.27-.05-.61-.09-.82-.03-.22.08-.48.29-.66.54-.18.26-.32.6-.38.92-.09.63.23,1.34.64,1.76.38.41.99.47,1.49.49,1,.02,1.62-.24,1.66-.14Z"/>
  <path class="cls-5" d="m74.24,68.21s3.63,4.95,5.78,16.15c2.15,11.2,4.99,24.11-.79,28.08-3.1,2.13-10.84-7.78-10.84-7.78l-2.24-23.28-2.19-6.96,10.28-6.22Z"/>
  <path class="cls-4" d="m19.71,119.18s16.93,7.47,44.65,2.57l7.23-34.54.83,1.25,12.83-4.48s-11.6-24.45-17.39-27.64c-3.9-1.61-9.63-.88-9.63-.88-6.32-2.16-11.44,3.74-18.98-4.22-.64-.14-19.44,3.53-22.62,6.03-7.16,5.65-8.29,33.2-8.29,33.2l13.33-1.68-.6,23.95-1.35,6.43Z"/>
  <path class="cls-3" d="m42.36,50.69s10.92-13.09,12.08-13.92c2.29-1.64,6.89-1.95,8.37-.72.87.73,10.57,9.36,10.57,9.36l-2.9,6.04-10.88,8.33-17.24-9.08Z"/>
  <path class="cls-5" d="m59.28,50.07c.8.9-.89,8.82-.89,8.82,0,0-.1,1.91-.51,5.92-.34,3.47-2.79,7.45-3.44,8.48l.15.09s-9.34,18.5-13.77,28.04c-4.45,9.54-7.38,15.29-13.13,16.8-1.14.31-2.1.26-2.9,0h-.01c-5.4,0-9.32-8.08-11.03-14.25-.76-2.73-1.97-9.13-2.55-13.8l16.91-2.23.44,4.04s.1.55.25,1.49l16.64-24.7-.28-.15s-1.3-10.53-.8-12.73c.5-2.2,7.12-13.14,7.12-13.14,1.62-2.71,3.41-.39,3.41-.39,0,0,1.01-1.6,2.22-1.08,1.06.47.82,1.93.82,1.93,0,0,1.08.06,1.59,1.15.53,1.11-1.52,5.02-1.52,5.02,0,0,.5-.2,1.3.7Z"/>
  <path class="cls-5" d="m70.04,35.3c.83-3.84,1.06-6.08,1.06-6.08-6.54-.01-8.83-13.71-8.83-13.71-4.73,3.4-10.18,5.19-14.44,6.13l-7.44,9.39c.9-4.58,0-8.37,0-8.37-1.59-1.2-4.14-.22-4.14-.22-2.74-12.81,8.58-13.43,8.58-13.43,11.42-7.99,19.31,0,19.31,0,18.38,6.16,5.89,26.3,5.89,26.3Z"/>
  <line class="cls-5" x1="54.87" y1="42.36" x2="50.65" y2="50.14"/>
  <line class="cls-5" x1="57.9" y1="43.2" x2="53.79" y2="51.63"/>
  <line class="cls-5" x1="57.98" y1="49.38" x2="55.84" y2="55.23"/>
  <path class="cls-1" d="m73.39,40.8s3.84-3.87,5.21-2.11-5.21,2.11-5.21,2.11Z"/>
  <path class="cls-1" d="m74.72,43.58s4.91.51,4.11,2.57c-.8,2.06-4.11-2.57-4.11-2.57Z"/>
  <line class="cls-5" x1="60.85" y1="35.3" x2="60.85" y2="24.77"/>
  <line class="cls-3" x1="39.24" y1="51.24" x2="40.33" y2="44.22"/>
  <path class="cls-2" d="m50.08,29.29c.13.19,1.21-.36,2.57-.13,1.36.21,2.25,1.08,2.42.94.09-.06-.03-.39-.41-.78-.38-.39-1.06-.82-1.91-.95-.85-.14-1.62.06-2.08.31-.47.25-.66.53-.6.61Z"/>
  <path class="cls-2" d="m56.91,25.74c-.2-.42-1.56-.65-3.07-1.26-1.52-.58-2.68-1.36-3.1-1.18-.19.09-.11.47.33.97.43.5,1.25,1.11,2.28,1.52,1.04.41,2.04.52,2.68.45.65-.07.95-.3.87-.5Z"/>
  <line class="cls-5" x1="28.78" y1="93.47" x2="24.67" y2="99.85"/>
  <path class="cls-5" d="m78.34,112.58c-7.51,5.3-14.08-9.82-16.5-15.62-2.42-5.79-6.33-22.45-6.33-22.45l-.58-2.01,2.2-5.32,1.78-6.91-.53-10.08s-.1-2.3,1.5-1.81c0,0-1.27-1.75-.45-3,.48-.76,1.42-.48,1.42-.48,0,0-.83-1.27-.34-2.17.19-.32.47-.47.76-.5.57-.09,1.12.22,1.43.7,1.4,2.17,6.49,10.21,6.84,11.93.39,2.01-1.14,2.57-1.14,2.57,0,0,.51,2.84-1.66,4.11,0,0,.47,2.07-1.66,3.24l-.41,5.72,14.72,27.1s6.46,9.69-1.05,15Z"/>
  <line class="cls-5" x1="60.85" y1="44.88" x2="64.94" y2="51.63"/>
  <line class="cls-5" x1="59.9" y1="48.37" x2="63.23" y2="54.11"/>
  <line class="cls-3" x1="82.65" y1="21.78" x2="78.92" y2="29.22"/>
  <line class="cls-3" x1="87.35" y1="27.42" x2="81.98" y2="31.45"/>
  <line class="cls-3" x1="82.65" y1="36.34" x2="89.4" y2="36.34"/>
  <path class="cls-3" d="m179.3,91.2c.56,2.31,1.12,4.63,1.68,6.94.26,1.09.52,2.27,0,3.16-.62,1.06-2.14,1.39-3.54,1.63-.79.14-1.58.11-2.12-.54-.72-.86.31-1.69.63-2.56.24-.68.01-1.48-.22-2.25-.61-2-1.36-4.19-3.18-5.67h0c-.12-.1-.24-.19-.36-.28-1.25-.89-2.76-1.32-4.21-1.84-1.18-.42-2.35-.92-3.49-1.47-2.69-1.31-5.23-2.97-7.44-4.89-1.47-1.27-2.79-2.66-3.91-4.14-.21-.27-.41-.55-.6-.83-.55-.8-1.05-1.61-1.34-2.47-.7-2.1.09-4.18,1.73-5.45,0,0,0,0,.01,0,.27-.21.57-.4.88-.56,2.22-1.14,5.26-1.1,8.08-.26.16.05.34.06.54.04.74-.05,1.72-.43,2.46-.5.45-.05.81.02.98.35.05.09.1.18.14.27,0,.02.01.04.02.05.43.82.78,1.55,1.08,2.22.9,1.99,1.39,3.44,2.17,5.01.58,1.15,1.2,2.31,1.93,3.42.82,1.25,1.76,2.45,2.91,3.52,1.35,1.26,2.98,2.36,3.94,3.84.68,1.04.96,2.17,1.23,3.29Z"/>
  <path class="cls-3" d="m129.34,80.22c0,.17,0,.35-.05.53-.12.52-.43,1-.68,1.49-.43.84-.71,1.71-.91,2.6-.24,1.08-.34,2.17-.44,3.24-.05.58-.11,1.17-.16,1.76-.1,1.08-.2,2.15-.29,3.22-.07.74-.14,1.49-.42,2.21-.08.2-.17.39-.27.58-.2.38-.44.74-.68,1.1-.83,1.26-1.66,2.51-2.49,3.77-.73,1.11-1.48,2.23-2.39,3.2-.25.26-.51.52-.82.66-.32.15-.65.18-.97.19-1.44.08-2.87.06-4.26-.06-.16,0-.32-.03-.41-.15-.1-.14-.05-.35.01-.54.4-1.17,1.46-2.2,2.6-2.51.37-.1.78-.14,1.08-.43.16-.15.27-.35.38-.55.49-.92.98-1.84,1.48-2.77.22-.41.43-.82.56-1.25.15-.55.14-1.1.12-1.63-.13-3.14-.57-6.17-1.1-9.18-.19-1.12-.4-2.24-.61-3.35-.2-1.08-.4-2.15-.6-3.23-.03-.15-.06-.31-.09-.47-.1.04-.82-3.54-.8-5,0-.13.04-.23.11-.31.47-.58,2.46.05,3.28-.42.53-.3,1.09-.45,1.64-.59,1.13-.29,2.34-.55,3.29-.13.89.39,1.35,1.28,1.7,2.25h0c.16.45.3.92.45,1.37.28.84.62,1.65,1.03,2.42.32.61.7,1.25.71,1.99Z"/>
  <path class="cls-3" d="m171.25,45.69h0c-.98,7.88-2.77,15.66-5.38,23.16-.07.17-.12.36-.18.53.79.58,1.52,1.27,2.02,2.12.09.15.17.29.24.45.95,1.94.74,4.28.63,6.47-.04,1.03-.07,2.06-.01,3.08.05,1.29.22,2.56.57,3.8.09.36.21.71.34,1.05.11.26.21.53.33.8.54,1.28,1.19,2.53,1.31,3.92.05.78-.07,1.57-.25,2.33h0c-.08.38-.18.76-.29,1.15-.65,2.37-1.31,4.75-1.96,7.11-.11.42-.24.86-.38,1.27-.26.69-.62,1.32-1.19,1.77-1.09.86-2.62.78-3.99.65-.79-.08-1.74-.32-1.91-1.08-.21-1.02,1.13-1.54,1.85-2.29.46-.5.67-1.16.83-1.82.04-.14.07-.28.09-.41.47-2.22.92-4.68-.21-6.64-.67-1.19-1.82-1.99-2.86-2.86-.46-.4-.91-.8-1.34-1.23-2.29-2.28-4.1-5.06-5.27-8.09-.32-.8-.58-1.63-.79-2.48-.22-.03-.46-.05-.69-.08-1.03-.12-2.07-.22-3.1-.26h-.82c-4.06.03-8.06,1.09-11.98,2.15-1.6.42-3.22.84-4.84,1.19.11.24.16.5.14.76-.01.49-.22.95-.37,1.41-.17.46-.26.95-.32,1.44-.17,1.33-.01,2.7.14,4.05.07.53.12,1.04.18,1.57.03.21.05.44.08.66.09.82.18,1.63.29,2.45.08.7.16,1.4.03,2.08-.12.55-.37,1.07-.61,1.58-.58,1.19-1.16,2.36-1.74,3.55-.5,1.04-1.02,2.1-1.74,3.01-.2.25-.41.47-.7.62-.28.14-.61.17-.92.18-1.42.08-2.85.05-4.27-.05-.17-.01-.34-.04-.45-.16-.12-.13-.12-.33-.09-.5.16-1.11,1.02-2.07,2.1-2.36.34-.09.74-.13.99-.41.13-.13.2-.33.26-.51.2-.54.38-1.08.57-1.63.12-.32.24-.65.34-.96.15-.38.28-.78.32-1.17.03-.4-.03-.78-.12-1.16-.03-.13-.05-.25-.09-.37-.61-2.35-1.4-4.64-2.27-6.89-.63-1.63-1.29-3.27-1.96-4.89-.18-.42-.36-.86-.53-1.28-.08-.17-.16-.4-.24-.65-1.85-.42-3.63-1.13-5.15-2.18-1.21-.82-2.27-1.83-3.1-3.05-.05-.08-.11-.17-.16-.25-.24-.37-.45-.75-.63-1.15-.84-1.71-1.27-3.6-1.52-5.54h0c-.17-1.24-.26-2.48-.36-3.69-.2-2.74-.41-5.81-.61-8.54,0-.04,0-.08-.01-.11,1.58-1.41,3.19-2.66,4.85-3.88,1.28-.92,2.57-1.82,3.89-2.73.3-.21.62-.42.92-.63.41.92.83,1.83,1.27,2.74.75,1.54,1.54,3.06,2.37,4.56.34.59.7,1.21,1.27,1.61.86.59,2,.54,3.06.45,5.59-.5,11.15-1.34,16.76-1.6,5.42-.24,10.92.08,16.07,1.77.71-.12,1.37-.36,1.92-.82.96-.78,1.38-2.03,1.75-3.2,2.25-7.34,3.63-14.95,4.09-22.62.33-5.23.22-10.49-.3-15.73-.08-.73-.16-1.49.14-2.16.3-.67,1.13-1.16,1.79-.82.42.22.63.71.8,1.17.5,1.38.88,2.81,1.16,4.27.33,1.78.49,3.6.59,5.4.41,6.87.2,13.78-.65,20.61Z"/>
  <path class="cls-3" d="m114.08,44.8c.07.22.29.36.5.46,1.41.73,2.95,1.22,4.52,1.44.32.05.73.04.88-.25-1.62-2.35-2.28-5.26-3.91-7.61-.18-.26-.4-.53-.71-.59-.53,2.03-.95,4.09-1.27,6.16-.02.13-.04.26,0,.39Z"/>
  <path class="cls-3" d="m126.12,51.61c.13.68.17,1.36.08,2.03-.01.26-.06.51-.12.77-.07.27-.16.53-.28.8-.7,1.64-2.26,2.8-3.94,3.41-.12.04-.25.09-.38.12-.79.24-1.59.39-2.4.47-.7.09-1.42.12-2.12.14-.12,0-.24.01-.36,0-.38,0-.75.01-1.13,0-1.96,0-3.92-.1-5.88-.29-.69-.06-1.39-.14-2-.43-.61-.29-1.09-.75-1.48-1.29h0c-.38-.54-.68-1.16-.93-1.78-.01-.04-.03-.08-.04-.13-.06-.12-.1-.23-.14-.36-.1-.25-.21-.49-.24-.76-.08-.45,0-.92.2-1.34.05-.12.11-.24.16-.34h.01c.16-.28.37-.56.58-.79.64-.66,1.41-1.17,2.07-1.81,1.31-1.29,2.06-3.09,3.37-4.37.01-.02.02-.02.04-.04.57-.54,1.23-.98,1.93-1.31.33-.14.68-.26,1.01-.36h.01c.86-.26,1.75-.37,2.66-.42.13-.84.29-1.71.47-2.55.21-1.03.44-2.04.71-3.06.3.06.53.33.71.59.23.32.42.65.61.99.86,1.5,1.45,3.17,2.21,4.72.45.26.87.58,1.22.96.25.3.48.63.69.95.93,1.35,1.83,2.73,2.36,4.28.02.04.04.1.06.14.1.35.19.69.26,1.05Z"/>
  <rect class="cls-6" x="-219.84" y="-1884.35" width="6467.34" height="6437.3"/>
</svg>