<?xml version="1.0" encoding="UTF-8"?>
<svg id="Calque_1" data-name="Calque 1" xmlns="http://www.w3.org/2000/svg" viewBox="0 0 200 128">
  <defs>
    <style>
      .cls-1 {
        fill: #87ccf3;
      }

      .cls-1, .cls-2, .cls-3, .cls-4, .cls-5, .cls-6, .cls-7, .cls-8 {
        stroke: #000;
      }

      .cls-1, .cls-3, .cls-4, .cls-5, .cls-6, .cls-7, .cls-8, .cls-9 {
        stroke-linecap: round;
        stroke-linejoin: round;
      }

      .cls-2 {
        stroke-miterlimit: 10;
      }

      .cls-3 {
        fill: #d6d6d6;
      }

      .cls-3, .cls-4, .cls-5, .cls-6, .cls-7, .cls-8 {
        stroke-width: 2px;
      }

      .cls-4 {
        fill: #a07637;
      }

      .cls-5 {
        fill: #baa584;
      }

      .cls-6 {
        fill: #fee4cb;
      }

      .cls-7 {
        fill: #fff;
      }

      .cls-8 {
        fill: #f3d587;
      }

      .cls-9 {
        fill: none;
        stroke: #fff;
        stroke-width: 8px;
      }
    </style>
  </defs>
  <path class="cls-7" d="m56.24,53.89s7.77.29,11.35-9.2c1.78-4.71,3.18-12.76,4.1-19.39.85-5.97-4.04-12.56-5.59-13.25,0,0-2.73-2.51-6.65-2.82-1.75-.13-4.3-.61-7.86.36-5.67,1.53-10.09,6.88-11.03,12.11l-.16.95c-.06-.06-.12-.09-.18-.12-1.87-.7-5.37-1.25-6.4,3.63-1.11,5.27,2.99,6.4,4.8,6.55,0,0-1.42,7.65,1.19,10.86,0,0,2.54,3.84,13.98,9.79"/>
  <path class="cls-7" d="m53.22,40.21c.14-.51.5-.92.91-1.18.83-.52,1.91-.42,2.61.24.7.66.99,1.83.69,2.84h0c-.53.54-1.26.85-2.02.8-.12,0-.23-.02-.35-.04-.56-.1-1.11-.38-1.48-.86-.37-.48-.54-1.18-.36-1.81Z"/>
  <path class="cls-2" d="m68.19,32.93c-.19.13-1-.77-2.35-1.04-1.35-.29-2.49.2-2.6,0-.06-.09.16-.35.66-.58.49-.23,1.28-.38,2.12-.21.84.18,1.49.63,1.83,1.04.35.4.43.73.34.79Z"/>
  <path class="cls-2" d="m64.17,27.1c.23-.34,1.29-.13,2.52-.25,1.24-.08,2.25-.46,2.53-.16.12.15,0,.48-.43.82-.42.34-1.14.67-1.99.74-.85.07-1.62-.13-2.08-.41-.47-.27-.65-.58-.55-.74Z"/>
  <path class="cls-7" d="m57.33,42.51c.04.07-.52.52-1.64.65-.28.03-.59.04-.93-.02-.34-.05-.74-.21-1.04-.5-.29-.27-.54-.62-.7-1.01-.16-.4-.26-.85-.19-1.34.09-.47.26-.87.52-1.23.27-.36.61-.63,1.05-.77.48-.1.82,0,1.14.08.32.09.61.21.85.33.48.22.87.43,1.12.61.25.18.36.33.33.36-.03.04-.18-.02-.46-.11-.33-.11-.72-.24-1.18-.38-.25-.09-.5-.16-.79-.22-.27-.05-.61-.09-.82-.03-.22.08-.48.29-.66.54-.18.26-.32.6-.38.92-.09.63.23,1.34.64,1.76.38.41.99.47,1.49.49,1,.02,1.62-.24,1.66-.14Z"/>
  <path class="cls-7" d="m74.24,68.21s3.63,4.95,5.78,16.15c2.15,11.2,4.99,24.11-.79,28.08-3.1,2.13-10.84-7.78-10.84-7.78l-2.24-23.28-2.19-6.96,10.28-6.22Z"/>
  <path class="cls-6" d="m19.71,119.18s16.93,7.47,44.65,2.57l7.23-34.54.83,1.25,12.83-4.48s-11.6-24.45-17.39-27.64c-3.9-1.61-9.63-.88-9.63-.88-6.32-2.16-11.44,3.74-18.98-4.22-.64-.14-19.44,3.53-22.62,6.03-7.16,5.65-8.29,33.2-8.29,33.2l13.33-1.68-.6,23.95-1.35,6.43Z"/>
  <path class="cls-3" d="m42.36,50.69s10.92-13.09,12.08-13.92c2.29-1.64,6.89-1.95,8.37-.72.87.73,10.57,9.36,10.57,9.36l-2.9,6.04-10.88,8.33-17.24-9.08Z"/>
  <path class="cls-7" d="m59.28,50.07c.8.9-.89,8.82-.89,8.82,0,0-.1,1.91-.51,5.92-.34,3.47-2.79,7.45-3.44,8.48l.15.09s-9.34,18.5-13.77,28.04c-4.45,9.54-7.38,15.29-13.13,16.8-1.14.31-2.1.26-2.9,0h-.01c-5.4,0-9.32-8.08-11.03-14.25-.76-2.73-1.97-9.13-2.55-13.8l16.91-2.23.44,4.04s.1.55.25,1.49l16.64-24.7-.28-.15s-1.3-10.53-.8-12.73c.5-2.2,7.12-13.14,7.12-13.14,1.62-2.71,3.41-.39,3.41-.39,0,0,1.01-1.6,2.22-1.08,1.06.47.82,1.93.82,1.93,0,0,1.08.06,1.59,1.15.53,1.11-1.52,5.02-1.52,5.02,0,0,.5-.2,1.3.7Z"/>
  <path class="cls-7" d="m70.04,35.3c.83-3.84,1.06-6.08,1.06-6.08-6.54-.01-8.83-13.71-8.83-13.71-4.73,3.4-10.18,5.19-14.44,6.13l-7.44,9.39c.9-4.58,0-8.37,0-8.37-1.59-1.2-4.14-.22-4.14-.22-2.74-12.81,8.58-13.43,8.58-13.43,11.42-7.99,19.31,0,19.31,0,18.38,6.16,5.89,26.3,5.89,26.3Z"/>
  <line class="cls-7" x1="54.87" y1="42.36" x2="50.65" y2="50.14"/>
  <line class="cls-7" x1="57.9" y1="43.2" x2="53.79" y2="51.63"/>
  <line class="cls-7" x1="57.98" y1="49.38" x2="55.84" y2="55.23"/>
  <path class="cls-1" d="m73.39,40.8s3.84-3.87,5.21-2.11-5.21,2.11-5.21,2.11Z"/>
  <path class="cls-1" d="m74.72,43.58s4.91.51,4.11,2.57c-.8,2.06-4.11-2.57-4.11-2.57Z"/>
  <line class="cls-7" x1="60.85" y1="35.3" x2="60.85" y2="24.77"/>
  <line class="cls-3" x1="39.24" y1="51.24" x2="40.33" y2="44.22"/>
  <path class="cls-2" d="m50.08,29.29c.13.19,1.21-.36,2.57-.13,1.36.21,2.25,1.08,2.42.94.09-.06-.03-.39-.41-.78-.38-.39-1.06-.82-1.91-.95-.85-.14-1.62.06-2.08.31-.47.25-.66.53-.6.61Z"/>
  <path class="cls-2" d="m56.91,25.74c-.2-.42-1.56-.65-3.07-1.26-1.52-.58-2.68-1.36-3.1-1.18-.19.09-.11.47.33.97.43.5,1.25,1.11,2.28,1.52,1.04.41,2.04.52,2.68.45.65-.07.95-.3.87-.5Z"/>
  <line class="cls-7" x1="28.78" y1="93.47" x2="24.67" y2="99.85"/>
  <path class="cls-7" d="m78.34,112.58c-7.51,5.3-14.08-9.82-16.5-15.62-2.42-5.79-6.33-22.45-6.33-22.45l-.58-2.01,2.2-5.32,1.78-6.91-.53-10.08s-.1-2.3,1.5-1.81c0,0-1.27-1.75-.45-3,.48-.76,1.42-.48,1.42-.48,0,0-.83-1.27-.34-2.17.19-.32.47-.47.76-.5.57-.09,1.12.22,1.43.7,1.4,2.17,6.49,10.21,6.84,11.93.39,2.01-1.14,2.57-1.14,2.57,0,0,.51,2.84-1.66,4.11,0,0,.47,2.07-1.66,3.24l-.41,5.72,14.72,27.1s6.46,9.69-1.05,15Z"/>
  <line class="cls-7" x1="60.85" y1="44.88" x2="64.94" y2="51.63"/>
  <line class="cls-7" x1="59.9" y1="48.37" x2="63.23" y2="54.11"/>
  <path class="cls-3" d="m92.17,54.11c-.23-.34-.43-.71-.55-1.13-.68-2.27.61-4.67,2.88-5.36,1.85-.56,3.77.21,4.8,1.74.65-.23,1.35-.33,2.07-.22,2.35.35,3.96,2.55,3.61,4.89-.35,2.35-2.55,3.96-4.89,3.61-.07-.01-.14-.04-.21-.05-.38,1.39-1.42,2.56-2.9,3-2.27.68-4.67-.61-5.35-2.88-.38-1.28-.13-2.58.56-3.61Z"/>
  <path class="cls-3" d="m105.08,47.04c.26-.32.55-.62.91-.86,1.97-1.33,4.64-.81,5.97,1.16,1.08,1.6.92,3.66-.23,5.1.41.55.71,1.19.82,1.91.36,2.35-1.25,4.54-3.6,4.9-2.35.36-4.54-1.25-4.9-3.6-.01-.07,0-.14-.01-.22-1.44.05-2.87-.6-3.73-1.88-1.33-1.97-.81-4.64,1.16-5.97,1.1-.75,2.43-.89,3.61-.54Z"/>
  <path class="cls-3" d="m113.62,68.21c-.23-.34-.43-.71-.55-1.13-.68-2.27.61-4.67,2.88-5.36,1.85-.56,3.77.21,4.8,1.74.65-.23,1.35-.33,2.07-.22,2.35.35,3.96,2.55,3.61,4.89-.35,2.35-2.55,3.96-4.89,3.61-.07-.01-.14-.04-.21-.05-.38,1.39-1.42,2.56-2.9,3-2.27.68-4.67-.61-5.35-2.88-.38-1.28-.13-2.58.56-3.61Z"/>
  <path class="cls-3" d="m106.52,99.39c.03-.41.11-.82.27-1.23.88-2.21,3.37-3.29,5.58-2.41,1.8.71,2.83,2.51,2.68,4.34.65.22,1.26.58,1.76,1.12,1.62,1.74,1.53,4.46-.21,6.08-1.74,1.62-4.46,1.53-6.08-.21-.05-.05-.08-.12-.13-.17-1.16.85-2.71,1.12-4.14.55-2.21-.88-3.29-3.37-2.41-5.58.49-1.24,1.5-2.1,2.68-2.49Z"/>
  <path class="cls-3" d="m125.54,111.13c.03-.41.11-.82.27-1.23.88-2.21,3.37-3.29,5.58-2.41,1.8.71,2.83,2.51,2.68,4.34.65.22,1.26.58,1.76,1.12,1.62,1.74,1.53,4.46-.21,6.08-1.74,1.62-4.46,1.53-6.08-.21-.05-.05-.08-.12-.13-.17-1.16.85-2.71,1.12-4.14.55-2.21-.88-3.29-3.37-2.41-5.58.49-1.24,1.5-2.1,2.68-2.49Z"/>
  <path class="cls-3" d="m155.43,95.27c-.23-.34-.43-.71-.55-1.13-.68-2.27.61-4.67,2.88-5.36,1.85-.56,3.77.21,4.8,1.74.65-.23,1.35-.33,2.07-.22,2.35.35,3.96,2.55,3.61,4.89-.35,2.35-2.55,3.96-4.89,3.61-.07-.01-.14-.04-.21-.05-.38,1.39-1.42,2.56-2.9,3-2.27.68-4.67-.61-5.35-2.88-.38-1.28-.13-2.58.56-3.61Z"/>
  <path class="cls-3" d="m170.38,74.66c0-.41.05-.83.18-1.24.72-2.26,3.13-3.52,5.4-2.8,1.84.59,3,2.3,2.98,4.14.66.17,1.3.49,1.83.99,1.74,1.62,1.84,4.34.22,6.08-1.62,1.74-4.34,1.84-6.08.22-.05-.05-.09-.11-.14-.16-1.09.93-2.62,1.31-4.09.84-2.26-.72-3.52-3.13-2.8-5.4.4-1.27,1.35-2.2,2.49-2.67Z"/>
  <path class="cls-3" d="m179.39,100.73c.23-.35.49-.68.83-.95,1.83-1.52,4.53-1.26,6.03.59,1.23,1.51,1.26,3.59.25,5.14.46.51.82,1.12,1,1.84.58,2.32-.81,4.68-3.11,5.26-2.3.59-4.63-.82-5.2-3.14-.02-.07-.02-.14-.03-.22-1.42.19-2.9-.33-3.88-1.53-1.5-1.85-1.24-4.58.59-6.1,1.03-.85,2.32-1.13,3.53-.89Z"/>
  <path class="cls-4" d="m148.59,57.01l28.11-30.67.75-.81.41-.45.33-.36.42-.46.75-.81,2.61-2.84c1.57-1.71,4.3-1.78,6.07-.16,1.77,1.63,1.93,4.35.36,6.07l-2.68,2.92-.75.81-.5.55-.25.28-.5.55-.76.83-27.94,30.48-.02.02c-.08-.12-.2-.23-.29-.34-.09-.11-.15-.24-.26-.34l-.2-.18-2.38-2.18-2.37-2.18-.2-.18c-.11-.1-.24-.15-.36-.23-.12-.09-.23-.19-.36-.26l.02-.02Z"/>
  <path class="cls-5" d="m141.55,62.59l4.74-5.17c.22-.24.51-.4.82-.49.45-.13.96-.09,1.44.12.14.06.25.16.38.24.12.08.24.15.34.25l.2.18,2.37,2.18,2.38,2.18.2.18c.1.1.19.21.28.32.09.12.21.23.28.36.24.46.32.96.24,1.42-.06.32-.19.61-.42.86l-4.74,5.17h-.01c-.17-.35-.35-.71-.55-1.07-.71-1.25-1.64-2.41-2.77-3.44-.07-.06-.13-.12-.2-.18h0c-.07-.06-.13-.12-.2-.18-1.13-1.04-2.36-1.86-3.66-2.47-.37-.17-.74-.32-1.12-.46h.01Z"/>
  <path class="cls-8" d="m149.49,57.71l2.37,2.18-.02.02-2.37-2.18-.2-.18c-.1-.1-.23-.17-.34-.25.12.08.25.13.36.23l.2.18Z"/>
  <path class="cls-8" d="m154.22,62.09l-2.38-2.18.02-.02,2.38,2.18.2.18c.11.1.17.22.26.34-.09-.11-.17-.22-.28-.32l-.2-.18Z"/>
  <path class="cls-8" d="m125.09,68.44c2.67-3.13,9.69-7.74,16.49-6.43h0c.42.08.84.18,1.26.31.39.12.77.26,1.15.43,1.35.57,2.66,1.41,3.91,2.6h0c1.28,1.14,2.24,2.38,2.92,3.68.2.37.37.74.52,1.11.16.4.3.82.42,1.23h0c1.88,6.67-2.1,14.07-4.99,17-7.49,7.59-2.92,18.06-2.92,18.06-1.7-.33-3.36-.82-4.97-1.42-.39-.14-.78-.29-1.16-.44-.28-1.9-.76-6.04-.07-8.49,0,0-2.22,4.46-2.95,7.13-.34-.17-.68-.35-1.01-.52-1.04-.54-2.03-1.11-2.96-1.68-.33-.2-.65-.4-.97-.6,1.51-3.2,5.77-12.03,8.7-15.88-1.21,1.56-7.9,10.18-11.35,14.08-.32-.23-.62-.45-.92-.68-.64-.48-1.22-.93-1.74-1.34-.32-.26-.62-.5-.89-.73.91-1.49,2.65-4.26,3.82-5.5h0c-1.05.93-3.51,3.01-5.58,3.95-.15-.14-.23-.22-.24-.22h0s-.24-.21-.66-.6c-.64-.6-1.7-1.63-2.96-3.02-.25-.27-.5-.55-.76-.85,1.38-1.25,3.93-3.38,8.09-6.31,0,0-6.42,3.57-9.89,4.17-.26-.32-.51-.65-.77-.98-1.04-1.35-2.09-2.85-3.08-4.46-.22-.37-.44-.74-.66-1.11,2.33.1,5.89.14,7.62-.47,0,0-5.01.17-8.34-.83-.23-.43-.45-.87-.66-1.3-.84-1.73-1.57-3.53-2.1-5.41,0,0,10.8,3.66,17.71-4.46Z"/>
  <line class="cls-3" x1="82.65" y1="21.78" x2="78.92" y2="29.22"/>
  <line class="cls-3" x1="87.35" y1="27.42" x2="81.98" y2="31.45"/>
  <line class="cls-3" x1="82.65" y1="36.34" x2="89.4" y2="36.34"/>
  <rect class="cls-9" x="-471.31" y="-2126.78" width="6467.34" height="6437.3"/>
</svg>