<?xml version="1.0" encoding="UTF-8"?>
<svg id="Calque_1" data-name="Calque 1" xmlns="http://www.w3.org/2000/svg" viewBox="0 0 200 128">
  <defs>
    <style>
      .cls-1 {
        fill: #87ccf3;
      }

      .cls-1, .cls-2, .cls-3, .cls-4, .cls-5, .cls-6, .cls-7, .cls-8 {
        stroke: #000;
      }

      .cls-1, .cls-2, .cls-4, .cls-5, .cls-6, .cls-7, .cls-8, .cls-9 {
        stroke-linecap: round;
        stroke-linejoin: round;
      }

      .cls-2, .cls-10 {
        fill: #a07637;
      }

      .cls-3 {
        stroke-miterlimit: 10;
      }

      .cls-4 {
        fill: #d6d6d6;
      }

      .cls-4, .cls-5, .cls-6, .cls-7, .cls-8 {
        stroke-width: 2px;
      }

      .cls-5 {
        fill: #baa584;
      }

      .cls-6 {
        fill: #fee4cb;
      }

      .cls-7 {
        fill: #fff;
      }

      .cls-8, .cls-9 {
        fill: none;
      }

      .cls-9 {
        stroke: #fff;
        stroke-width: 8px;
      }
    </style>
  </defs>
  <path class="cls-7" d="m56.24,53.89s7.77.29,11.35-9.2c1.78-4.71,3.18-12.76,4.1-19.39.85-5.97-4.04-12.56-5.59-13.25,0,0-2.73-2.51-6.65-2.82-1.75-.13-4.3-.61-7.86.36-5.67,1.53-10.09,6.88-11.03,12.11l-.16.95c-.06-.06-.12-.09-.18-.12-1.87-.7-5.37-1.25-6.4,3.63-1.11,5.27,2.99,6.4,4.8,6.55,0,0-1.42,7.65,1.19,10.86,0,0,2.54,3.84,13.98,9.79"/>
  <path class="cls-7" d="m53.22,40.21c.14-.51.5-.92.91-1.18.83-.52,1.91-.42,2.61.24.7.66.99,1.83.69,2.84h0c-.53.54-1.26.85-2.02.8-.12,0-.23-.02-.35-.04-.56-.1-1.11-.38-1.48-.86-.37-.48-.54-1.18-.36-1.81Z"/>
  <path class="cls-3" d="m68.19,32.93c-.19.13-1-.77-2.35-1.04-1.35-.29-2.49.2-2.6,0-.06-.09.16-.35.66-.58.49-.23,1.28-.38,2.12-.21.84.18,1.49.63,1.83,1.04.35.4.43.73.34.79Z"/>
  <path class="cls-3" d="m64.17,27.1c.23-.34,1.29-.13,2.52-.25,1.24-.08,2.25-.46,2.53-.16.12.15,0,.48-.43.82-.42.34-1.14.67-1.99.74-.85.07-1.62-.13-2.08-.41-.47-.27-.65-.58-.55-.74Z"/>
  <path class="cls-7" d="m57.33,42.51c.04.07-.52.52-1.64.65-.28.03-.59.04-.93-.02-.34-.05-.74-.21-1.04-.5-.29-.27-.54-.62-.7-1.01-.16-.4-.26-.85-.19-1.34.09-.47.26-.87.52-1.23.27-.36.61-.63,1.05-.77.48-.1.82,0,1.14.08.32.09.61.21.85.33.48.22.87.43,1.12.61.25.18.36.33.33.36-.03.04-.18-.02-.46-.11-.33-.11-.72-.24-1.18-.38-.25-.09-.5-.16-.79-.22-.27-.05-.61-.09-.82-.03-.22.08-.48.29-.66.54-.18.26-.32.6-.38.92-.09.63.23,1.34.64,1.76.38.41.99.47,1.49.49,1,.02,1.62-.24,1.66-.14Z"/>
  <path class="cls-7" d="m74.24,68.21s3.63,4.95,5.78,16.15c2.15,11.2,4.99,24.11-.79,28.08-3.1,2.13-10.84-7.78-10.84-7.78l-2.24-23.28-2.19-6.96,10.28-6.22Z"/>
  <path class="cls-6" d="m19.71,119.18s16.93,7.47,44.65,2.57l7.23-34.54.83,1.25,12.83-4.48s-11.6-24.45-17.39-27.64c-3.9-1.61-9.63-.88-9.63-.88-6.32-2.16-11.44,3.74-18.98-4.22-.64-.14-19.44,3.53-22.62,6.03-7.16,5.65-8.29,33.2-8.29,33.2l13.33-1.68-.6,23.95-1.35,6.43Z"/>
  <path class="cls-4" d="m42.36,50.69s10.92-13.09,12.08-13.92c2.29-1.64,6.89-1.95,8.37-.72.87.73,10.57,9.36,10.57,9.36l-2.9,6.04-10.88,8.33-17.24-9.08Z"/>
  <path class="cls-7" d="m59.28,50.07c.8.9-.89,8.82-.89,8.82,0,0-.1,1.91-.51,5.92-.34,3.47-2.79,7.45-3.44,8.48l.15.09s-9.34,18.5-13.77,28.04c-4.45,9.54-7.38,15.29-13.13,16.8-1.14.31-2.1.26-2.9,0h-.01c-5.4,0-9.32-8.08-11.03-14.25-.76-2.73-1.97-9.13-2.55-13.8l16.91-2.23.44,4.04s.1.55.25,1.49l16.64-24.7-.28-.15s-1.3-10.53-.8-12.73c.5-2.2,7.12-13.14,7.12-13.14,1.62-2.71,3.41-.39,3.41-.39,0,0,1.01-1.6,2.22-1.08,1.06.47.82,1.93.82,1.93,0,0,1.08.06,1.59,1.15.53,1.11-1.52,5.02-1.52,5.02,0,0,.5-.2,1.3.7Z"/>
  <path class="cls-7" d="m70.04,35.3c.83-3.84,1.06-6.08,1.06-6.08-6.54-.01-8.83-13.71-8.83-13.71-4.73,3.4-10.18,5.19-14.44,6.13l-7.44,9.39c.9-4.58,0-8.37,0-8.37-1.59-1.2-4.14-.22-4.14-.22-2.74-12.81,8.58-13.43,8.58-13.43,11.42-7.99,19.31,0,19.31,0,18.38,6.16,5.89,26.3,5.89,26.3Z"/>
  <line class="cls-7" x1="54.87" y1="42.36" x2="50.65" y2="50.14"/>
  <line class="cls-7" x1="57.9" y1="43.2" x2="53.79" y2="51.63"/>
  <line class="cls-7" x1="57.98" y1="49.38" x2="55.84" y2="55.23"/>
  <path class="cls-1" d="m73.39,40.8s3.84-3.87,5.21-2.11c1.37,1.76-5.21,2.11-5.21,2.11Z"/>
  <path class="cls-1" d="m74.72,43.58s4.91.51,4.11,2.57c-.8,2.06-4.11-2.57-4.11-2.57Z"/>
  <line class="cls-7" x1="60.85" y1="35.3" x2="60.85" y2="24.77"/>
  <line class="cls-4" x1="39.24" y1="51.24" x2="40.33" y2="44.22"/>
  <path class="cls-3" d="m50.08,29.29c.13.19,1.21-.36,2.57-.13,1.36.21,2.25,1.08,2.42.94.09-.06-.03-.39-.41-.78-.38-.39-1.06-.82-1.91-.95-.85-.14-1.62.06-2.08.31-.47.25-.66.53-.6.61Z"/>
  <path class="cls-3" d="m56.91,25.74c-.2-.42-1.56-.65-3.07-1.26-1.52-.58-2.68-1.36-3.1-1.18-.19.09-.11.47.33.97.43.5,1.25,1.11,2.28,1.52,1.04.41,2.04.52,2.68.45.65-.07.95-.3.87-.5Z"/>
  <line class="cls-7" x1="28.78" y1="93.47" x2="24.67" y2="99.85"/>
  <path class="cls-7" d="m78.34,112.58c-7.51,5.3-14.08-9.82-16.5-15.62-2.42-5.79-6.33-22.45-6.33-22.45l-.58-2.01,2.2-5.32,1.78-6.91-.53-10.08s-.1-2.3,1.5-1.81c0,0-1.27-1.75-.45-3,.48-.76,1.42-.48,1.42-.48,0,0-.83-1.27-.34-2.17.19-.32.47-.47.76-.5.57-.09,1.12.22,1.43.7,1.4,2.17,6.49,10.21,6.84,11.93.39,2.01-1.14,2.57-1.14,2.57,0,0,.51,2.84-1.66,4.11,0,0,.47,2.07-1.66,3.24l-.41,5.72,14.72,27.1s6.46,9.69-1.05,15Z"/>
  <line class="cls-7" x1="60.85" y1="44.88" x2="64.94" y2="51.63"/>
  <line class="cls-7" x1="59.9" y1="48.37" x2="63.23" y2="54.11"/>
  <line class="cls-4" x1="82.65" y1="21.78" x2="78.92" y2="29.22"/>
  <line class="cls-4" x1="87.35" y1="27.42" x2="81.98" y2="31.45"/>
  <line class="cls-4" x1="82.65" y1="36.34" x2="89.4" y2="36.34"/>
  <path class="cls-5" d="m176.45,110.44c-2.72-.21-5.4-.33-7.92-.88-2.66-.58-4.5-.29-6.89-1.66-1.65-.95-3.06-2.3-3.79-4.09-.56-1.37-1.65-6.29-1.67-7.74-.02,0-.05,0-.07,0,0-.14-.02-.29-.05-.43-.13-1.22-.4-2.39-.78-3.48,0,0,0-.02,0-.03,0,0,0-.01,0-.02-1.05-4.55-1.67-6.48-5.17-11.58l-5.71-8.23c-1.45-2.11-2.75-3.76-4.09-5.2-1.27-1.36-2.57-2.54-4.08-3.74-1.27-1.02-2.69-2.06-4.35-3.26l-4.15-5.61s0-.01,0-.02v-.02c-.03-.05-.06-.12-.08-.18l-.93-2.28c-.04-.09-.07-.18-.11-.28-1.98-5.04-4.89-13.06-6.36-16.03,0,0,0-.02-.02-.02-.21-.43-.4-.75-.54-.94-2.85-3.74-14.37-3.8-16.64.81-.14.28-.24.58-.31.9l-.3,1.01c-.3,1.1-1.7,2.4-2.72,2.95l-.53.3-.05.02-3.81,2.11-1.67.92c-.65.36-.93,1.15-.64,1.85l.93,1.44,1.67,2.62c.07.16.14.31.23.46.06.11.12.2.18.3.37.57.86,1.04,1.42,1.39.84.54,1.86.81,2.91.72.14.03.27.05.41.06.21.03.42.04.62.04.53,0,1.06-.08,1.57-.19,2.91-.68,4.1-1.23,5.09.3,1.32,1.32-1.23,4.1-1.28,7.77,0,.92.05,1.77.14,2.53.1.87.24,1.63.38,2.29,0,0,0,0,0,0-.21.73-.35,1.47-.43,2.21-.26,2.15-.05,4.34.59,6.4.36,1.18.87,2.31,1.51,3.39l.11.18c.11.19.23.37.36.56.35.58.74,1.16,1.13,1.71.75,1.06,1.55,2.08,2.42,3.06.78.9,1.6,1.76,2.47,2.56.64.61,1.3,1.19,1.98,1.74l.21.84,1.66,6.76c.25,1.45.15,9.61.1,13.06-.72.7-1.86,1.09-2.74,1.98-.72.72-1.25,1.75-.81,2.5.3.51,1.02.9,2.42.99l2.12.05c4.07-.17,4.15-2.97,4.02-5.21,0,0,0,0,0-.01.27-3.21,1.01-10.81,1.96-12.78l.25-2.72c.44.19.88.37,1.33.53.05.02.08.04.13.05,0,0,0,0,0,0-.55,1.38-.84,2.87-.84,4.42,0,4.9,2.93,8.97,7.33,11.39l-.17.02-5.18-.35c-4.5-.19-6.57,4.13-3.51,4.62h26.3c.46,0,.9-.08,1.31-.21h0s.05-.01.08-.03c.1-.03.2-.07.29-.11.11-.04.21-.09.32-.15.86-.43,1.48-1.11,1.92-1.98,0,0,0,0,0,0,0,0,0,0,0,0,3.2,2.18,7.15,2.9,10.96,3.07,6.72.3,13.4.5,20.11.21.67-.03,1.35-.06,2.02-.1-3.94-2.72-8.29-3.26-12.53-3.58Z"/>
  <path d="m95.2,46.47l-1.26.57-.93-1.44c-.29-.7-.02-1.49.64-1.85l1.67-.92.68,1.19c.51.89.14,2.02-.79,2.45Z"/>
  <path class="cls-2" d="m109.18,46.95c-.39,1.79.56,3.68,2.3,4.23.13.04.27.08.4.1,2.24.44,6.16.73,7.47-2.21.73-1.37.66-3.06,0-5.12-.12-.39-.23-.79-.29-1.19l-.75-4.83c-.98-3.28-5.68-4.87-6.49-1.35-.21,2.59-1.22,4.68-2.05,7.66l-.59,2.71Z"/>
  <path class="cls-10" d="m118.41,50.27c.08-.07.15-.15.23-.22"/>
  <path class="cls-10" d="m117.64,50.99s0,.06-.02.09"/>
  <path class="cls-10" d="m115.23,51.9c.05-.01.1-.02.15-.03"/>
  <line class="cls-8" x1="126.58" y1="92.63" x2="129.06" y2="82.21"/>
  <path class="cls-8" d="m128.04,93.22s3.57-5.86,10.37-5.37"/>
  <rect class="cls-9" x="-731.31" y="-1884.35" width="6467.34" height="6437.3"/>
</svg>