<?xml version="1.0" encoding="UTF-8"?>
<svg id="Calque_1" data-name="Calque 1" xmlns="http://www.w3.org/2000/svg" viewBox="0 0 128 128">
  <defs>
    <style>
      .cls-1 {
        fill: #d6d6d6;
      }

      .cls-1, .cls-2, .cls-3, .cls-4, .cls-5, .cls-6, .cls-7 {
        stroke-linecap: round;
        stroke-linejoin: round;
      }

      .cls-1, .cls-2, .cls-3, .cls-4, .cls-5, .cls-8 {
        stroke: #000;
      }

      .cls-2 {
        fill: #87f3b9;
      }

      .cls-3 {
        fill: #ff6d75;
      }

      .cls-4, .cls-9 {
        fill: #f3d587;
      }

      .cls-5 {
        fill: #fff;
      }

      .cls-6 {
        stroke: #f3d587;
        stroke-width: 2px;
      }

      .cls-6, .cls-7, .cls-8 {
        fill: none;
      }

      .cls-7 {
        stroke: #fff;
        stroke-width: 8px;
      }

      .cls-8 {
        stroke-miterlimit: 10;
      }
    </style>
  </defs>
  <g>
    <line class="cls-6" x1="65.71" y1="56.43" x2="112.06" y2="102.78"/>
    <line class="cls-6" x1="65.7" y1="102.77" x2="112.62" y2="57.1"/>
    <line class="cls-6" x1="56.19" y1="79.8" x2="121.74" y2="79.8"/>
    <line class="cls-6" x1="88.95" y1="112.58" x2="89.84" y2="47.1"/>
  </g>
  <rect class="cls-1" x="29.48" y="14.63" width="32.62" height="32.62"/>
  <path class="cls-2" d="m54.51,30.94c0,4.81-3.91,8.72-8.72,8.72v-17.44c4.81,0,8.72,3.9,8.72,8.71Z"/>
  <path class="cls-3" d="m45.79,22.22v17.44c-4.81,0-8.71-3.91-8.71-8.72s3.9-8.71,8.71-8.71Z"/>
  <g>
    <path class="cls-5" d="m42.82,101.77c.29-.55,1.37-1.86,2.75-3.46.41-.48.86-.99,1.31-1.51.46-.52.93-1.06,1.4-1.59,1.42-1.61,2.86-3.24,3.97-4.56h0c.86-1.02,1.53-1.85,1.83-2.33.31-.5.7-1.23,1.12-2.08.19-.39.39-.8.59-1.23.29-.63.58-1.27.87-1.92.97-2.18,1.82-4.25,2.01-4.74.37-.95,1.02-2.69.22-3.71-.8-1.02-1.93-.98-1.93-.98,0,0,.43-.81.75-1.46.11-.22-.04-.13.02-.28.59-1.46.49-2.57-.36-3.51-.04-.05-.08-.1-.13-.15-.11-.11-.23-.21-.35-.3-.36-.26-.73-.41-1.04-.49-.41-.11-.71-.1-.71-.1,0,0,.25-.52.41-1.25h0s0,0,0,0c.24-1.12.27-2.73-1.11-3.78-2.44-1.87-4.6.31-5.13.84-1.19,1.16-3.5,3.34-3.5,3.34,0,0-.44-.73-.7-1.34-.09-.27-.17-.56-.21-.87-.06-.61.08-1.08.08-1.08,0,0-.02.05-.05.11.27-1.87,1.61-7.02,2.63-9.9,1.13-3.18,3.87-11.38,4.69-14,.82-2.63,1.28-5.36-1.17-6.16-2.64-.87-3.66,1.98-4.46,3.39-.8,1.41-3.73,9.26-5,12.33-1,2.42-5.16,11.82-6.9,15.64-1.13,2.49-3.64,6.44-3.64,6.44,0,0,.15-.71.35-1.81,0-.01,0-.03,0-.05,0-.01,0-.03,0-.04.38-2.17.93-5.81.86-8.8,0-.01,0-.03,0-.03,0,0,0,0,0,.01-.02-.79-.07-1.53-.19-2.19-.78-4.49-5.7-6.13-6.88-5.29-.93.66.01,2.67.44,4.79.06.3.11.61.15.92,0,.02,0,.04,0,.05.03.3.05.6.03.9-.06,1.49-1.55,8.84-3.75,14.45-.13.34-.48,2.29-.83,4.65-.05.36-.11.73-.16,1.11-.08.57-.16,1.14-.24,1.72-.03.19-.05.38-.07.57-.05.38-.1.76-.14,1.13-.24,2.03-.4,3.82-.35,4.64.11,1.74.2,5.69.38,8.24.09,1.35-1.54,4.3-3.1,6.77-.46.73-.91,1.41-1.31,2-.32.47-.6.88-.83,1.21-.34.49-.55.77-.55.77l4.18,2.72,7.55,4.87,8.28,4.82s6.97-15.67,7.9-17.43Z"/>
    <line class="cls-5" x1="55.12" y1="67.38" x2="51.71" y2="72.72"/>
    <line class="cls-5" x1="56.95" y1="73.67" x2="54.51" y2="78.46"/>
  </g>
  <path class="cls-1" d="m96.92,107.03l-16.44.02c-.65,0-1.18.61-1.18,1.36,0,.75.53,1.35,1.19,1.36l16.44-.03c.65,0,1.18-.61,1.18-1.36,0-.75-.53-1.36-1.18-1.35Z"/>
  <path class="cls-1" d="m96.93,109.76l-16.44.03c-.65,0-1.18.61-1.18,1.36,0,.75.53,1.36,1.19,1.36h1.76s1.78,3.6,1.78,3.6c0,0,.85,1.16,1.3,1.28.44.13,5.5.68,7.06,0,0,0,.76-.22,1.36-1.38.46-.88,1.43-2.7,1.86-3.51h1.32c.65,0,1.18-.61,1.18-1.36,0-.74-.53-1.36-1.18-1.35Z"/>
  <path class="cls-1" d="m96.92,104.29l-16.44.03c-.66,0-1.18.61-1.18,1.36,0,.75.53,1.36,1.19,1.36l16.44-.02c.65,0,1.18-.61,1.18-1.36,0-.75-.53-1.36-1.18-1.35Z"/>
  <path class="cls-4" d="m92.03,104.27h4.63c.73,0,1.31-.6,1.31-1.32v-4.3c7.58-3.52,12.84-11.21,12.83-20.13-.02-12.23-9.95-22.13-22.18-22.12-12.23.02-22.13,9.95-22.11,22.18.01,8.92,5.3,16.59,12.9,20.09v4.3c0,.72.59,1.31,1.32,1.31h5.55s5.75-.02,5.75-.02Z"/>
  <g>
    <line class="cls-9" x1="67.86" y1="32.2" x2="80.52" y2="50.48"/>
    <g>
      <line class="cls-8" x1="67.86" y1="32.2" x2="79.9" y2="49.59"/>
      <polygon points="74.65 49.19 74.87 48.21 79.68 49.27 80.39 44.39 81.38 44.54 80.52 50.48 74.65 49.19"/>
    </g>
  </g>
  <rect class="cls-7" x="-5792.77" y="-5317" width="6467.34" height="6437.3"/>
</svg>