<?xml version="1.0" encoding="UTF-8"?>
<svg id="Calque_1" data-name="Calque 1" xmlns="http://www.w3.org/2000/svg" viewBox="0 0 239.01 304.08">
  <defs>
    <style>
      .cls-1 {
        fill: #8562a3;
      }

      .cls-1, .cls-2, .cls-3, .cls-4, .cls-5, .cls-6, .cls-7, .cls-8, .cls-9, .cls-10 {
        stroke: #fff;
      }

      .cls-1, .cls-2, .cls-3, .cls-4, .cls-5, .cls-6, .cls-7, .cls-8, .cls-10 {
        stroke-width: .5px;
      }

      .cls-1, .cls-2, .cls-3, .cls-4, .cls-5, .cls-6, .cls-7, .cls-10 {
        stroke-miterlimit: 10;
      }

      .cls-2 {
        fill: #ead6ae;
      }

      .cls-3 {
        fill: #f3d587;
      }

      .cls-4 {
        fill: #ff6d75;
      }

      .cls-5 {
        fill: #87ccf3;
      }

      .cls-6 {
        fill: #bbfedb;
      }

      .cls-7 {
        fill: #fab0b4;
      }

      .cls-8, .cls-9 {
        stroke-linecap: round;
        stroke-linejoin: round;
      }

      .cls-8, .cls-9, .cls-10 {
        fill: none;
      }

      .cls-9 {
        stroke-width: 8px;
      }
    </style>
  </defs>
  <path class="cls-2" d="m104.61,28.48l-.25-.03-.23.1-.15.04.09.27s.22.01.24.02l.38-.24-.09-.16Z"/>
  <polygon class="cls-2" points="106.01 29.34 105.81 29.34 105.74 29.48 105.92 29.63 106.01 29.57 106.12 29.57 106.2 29.55 106.18 29.44 106.01 29.34"/>
  <polygon class="cls-2" points="108.34 29.26 108.34 28.95 108.17 29.13 108.24 29.41 108.34 29.26"/>
  <polygon class="cls-2" points="108.19 30.13 107.96 30.36 108.13 30.62 108.32 30.62 108.47 30.5 108.41 30.21 108.19 30.13"/>
  <path class="cls-2" d="m104.69,28.96l.11.22s.16-.12.16-.12l.03-.2-.17-.05-.14.15Z"/>
  <polygon class="cls-2" points="107.63 32.04 107.71 32.21 107.91 32.14 107.75 31.94 107.63 32.04"/>
  <polygon class="cls-2" points="106.67 31.92 106.82 32.18 106.83 32.58 107.23 32.66 107.31 32.39 106.96 32 106.67 31.92"/>
  <polygon class="cls-2" points="106.5 29.35 106.38 29.49 106.49 29.65 106.75 29.55 106.5 29.35"/>
  <g>
    <polygon class="cls-10" points="112.56 42.42 111.57 43.6 110.88 44.13 111.57 43.6 112.56 42.42"/>
    <polygon class="cls-10" points="97 62.38 97.22 61.27 97.03 60.91 97.22 61.27 97 62.38"/>
    <polygon class="cls-10" points="91.76 151.28 91.33 150.38 91.32 150.38 91.76 151.28"/>
    <polygon class="cls-10" points="120.5 139.93 120.2 139.58 119.83 139.15 120.5 139.93"/>
    <polygon class="cls-10" points="105.37 56.63 105.37 56.63 104.82 56.36 105.37 56.63"/>
    <polygon class="cls-10" points="98.1 64.62 98.37 64.32 99.94 64.01 98.37 64.32 98.1 64.62"/>
    <polygon class="cls-10" points="78.66 85.98 78.58 85.65 78.42 84.93 78.66 85.98"/>
    <polygon class="cls-10" points="89.86 67.96 91.18 68.99 91.96 69.09 91.19 68.99 89.86 67.96"/>
    <polygon class="cls-10" points="86.79 49.65 87.33 49.93 87.54 51.22 87.33 49.92 86.79 49.65"/>
    <polygon class="cls-10" points="73.72 47.21 74.26 46.94 74.26 46.94 73.72 47.21"/>
    <polygon class="cls-10" points="85.9 55.91 85.9 55.91 86.15 55.08 85.9 55.91"/>
    <polygon class="cls-10" points="70.73 45.76 71.49 46.39 72.43 46.8 71.49 46.39 70.73 45.76"/>
    <polygon class="cls-4" points="126.86 268.19 126.44 267.92 126.1 268.18 126.42 268.61 127.27 268.26 126.86 268.19"/>
    <polygon class="cls-4" points="130.46 264.92 129.59 265.04 130.87 265.39 130.46 264.92"/>
    <polygon class="cls-4" points="131.85 266.22 131.54 265.74 131.08 265.88 130.84 266.29 130.48 266.32 130.02 265.86 129.42 265.93 129.18 266.63 128.53 266.53 127.88 265.98 127.64 266.27 128.44 267.35 129.18 267.45 129.18 267.76 128.44 267.76 127.98 268.05 128.1 268.46 127.45 269.13 126.99 269.11 126.97 269.42 127.69 269.8 128.05 269.42 128.7 269.9 129.08 269.27 128.36 268.94 128.94 268.6 129.93 268.7 130.65 268.34 130.67 267.62 131.51 266.99 131.85 266.22"/>
    <polygon class="cls-4" points="129.27 265.62 128.47 265.3 128.76 265.79 129.27 265.62"/>
    <polygon class="cls-4" points="136.16 266.34 135.92 265.99 135.12 265.77 134.63 265.95 134.82 266.32 134.41 266.52 133.95 265.88 133.93 265.39 132.96 265.2 132.86 265.73 132.39 265.95 132.58 266.39 132.38 266.69 132.99 267.51 132.86 267.76 132.47 267.55 131.95 267.66 130.87 269.2 131.33 269.33 131.81 270.12 132.26 270.21 132.28 269.97 131.87 269.37 132.07 269.15 132.65 269.51 132.96 269.38 132.68 269.03 132.63 268.59 133.28 268.73 133.9 268.58 133.92 268.42 133.45 268.4 133.11 268.11 133.41 267.91 133.94 268.09 134.73 267.94 135.32 267.44 135.93 267.26 135.85 266.87 135.51 266.74 135.37 266.58 135.7 266.32 136.16 266.34"/>
    <path class="cls-6" d="m143.89,63.03l-.1.24.26.84.34.5s.36.05.36.05l.07-.45-.48-.87-.46-.31Z"/>
    <polygon class="cls-6" points="143.35 71.48 143.11 71.55 142.81 71.52 142.49 71.65 141.87 72.29 141.48 73.37 141.74 73.3 141.84 73.06 142.58 72.35 142.93 72.32 143.49 71.72 143.35 71.48"/>
    <polygon class="cls-6" points="147.71 71.69 147.95 71.3 147.58 71.02 147.12 71.05 146.97 71.34 146.47 71.55 146.96 71.74 147.71 71.69"/>
    <polygon class="cls-6" points="142.34 73.05 142.08 73.39 142.28 73.44 142.77 73.34 142.95 72.92 142.8 72.76 142.34 73.05"/>
    <polygon class="cls-6" points="145.72 70.95 145.98 71.11 146.41 70.9 146.54 70.48 146.17 70.18 145.23 70.42 144.73 70.47 144.6 70.76 144.9 70.93 145.72 70.95"/>
    <polygon class="cls-6" points="144.72 69.94 145.05 69.43 145.42 69.31 145.7 68.84 145.4 68.79 144.95 69.13 144.61 69.3 144.24 69.72 144.36 70.31 144.72 69.94"/>
    <path class="cls-6" d="m196.35,96.47l-.1-1.65-.38-.24-.14-.82-1.16-2.55v-.87l-.19-1.06-2.17-.97-1.25.05-.91.39-.63-.87-.72-.14-.72-.82-.96-.48-.68-.09-1.49-1.59-1.2-1.68-.58-.14-.82-.77-.72.05-2.02-1.44h-.92l-1.01-.43-.63.34h-.96l-.58-.29-.63.29-.29.43-.38-.39-.92-.68-.14.29-.38-.34-.14.43v.34l-.53-.43-.1-.34-.4-.11.12.34-.19.13-.99-.39-.33.06-.83-.15-1.83-.87-.7.05-.04.2.14.37-.16.18-.38-.21-.17.1-.11.27-.64.3-.23.34-.09.78-.34-.58-.19-.5-.34.14.05.63-.55,1.06v.89l-.19-.84.22-.84-.12-.74.34-1.08.29-.27-.24-.21-.53-.02.7-.79-.92-.99-.53-.84-.51.05-.74-.12-.43.55-.43.21-.22-.5-.31-.19-.14-.48-.39-.31-.53.05-.26-.34-.46-.17-.26.33v-.29l-.36-.21-.24-.48-.41.17-.75-.21-.99-.58-.29-.05-.17.29-.6-.41-.43.05-.1.41-.29.02-.17-.46-.77-.02-.65.36-.36.65.05.38-.72.72-.94.55-1.2.69-.58.72-.36.94-.14.91-.31.48-.55.58.04.4.11.69-.12,1.25-.22-.76-.45-.75.02-.55.46-.58.54-.45-.09-.92.28-.77-.06-.41h-.4s-.78.26-.78.26l-.86-.25-.75.05-.6.16-.42-.36.48.06.57-.42.59-.13,1,.18.57-.13.53-.66h.24s.31.23.31.23l.34-.11.58-.34.98-.34v-.77l.87-1.01v-.72l.34-.48.05-.58-.91-.19-.72-.58h-.67l-.96.58-.82.05-1.16-.48-1.25-.09-.91.96.05.38.3.22.19.32-.43.05-.27.14-.24.58-.17-.5-.31-.12-.72.29-.77,1.08-1.03,1.18.77-1.08-.02-.69.17-.39.07-.48h-.34l-.67.55-.34.77-.34.87-.55.36.53-1.01.1-.79,1.18-1.47.29-.99.43-.6.65-.36.7-.51.51-.22.62-.94,1.56-1.59.09-.38.31-.24-.34-.43.12-.46.22-.19.02-.65-.62-.46-.7.05-.22.24-.31-.53-.43-1.25-.75-1.85-.67-.96-.48-1.28.02-.7-.17-.7-.27-.26-.11-.65-.41-.79-.17.09.05.53-.26.41-.77.5h.01s-.04.03-.04.03l-.25.39-.82,1.01-.87,1.12v.6s-.65,1.39-.65,1.39l-.54.88-.41.81-.58.1-.35.25-.13.54-.59.44-.4-.13-.03-.88-.24-.11-.09-.28-.37-.04-.47.18-.36.4-.57-.1-.46-.51v-.33s-.17-.16-.17-.16l-.21-.54-.12-.32-.45-.09-.65-.62-.87-.04-.64.29-1.38.06-.75-.19-.65.43-.11.6.62.6.16.39.31.73-.12.25-.57.02-.84-.23-.21-.16h-.28s-.06-.02-.06-.02h.02s-1.08.01-1.08.01l-.6.1-.26-.29-.98.05-.7.29-.39,1.06-1.37-.05-.7.22-.1.32-.46.55-.77.07-.1-.21-.46.12-.41.53-.53-.21-1.32-1.13-.48-.6-.02-.48-.72-.72-.6-.63-.07-.67.14-.45-.17-.34.1-.6.24-.48-.05-.72.65-1.13.22-.92.6-.75-.02-.36-.63.05-.31-.48-.22-.48-.7.05-.58-.29.29-.41.41-.65v-.89l-.55-.7-.75-.07-.36.24-.26-.29-.33-.05.07.7-.31.79-1.73,1.23-1.08.09-1.49.62h0l-.55-.26-.94.1-1.08.96-1.06.36-.36-.24-1.49.2-1.15.07-1.03-.58-1.04-.17-.96-.29.43.82.7.26.72.68.24.62-.94,1.44.17.31.19.36-.22,1.11,1.54.51,1.06-.12,1.06.22.05.68-.77.36-1.56.31-.28.3-.27.3-.31.86-1.71.89-.55.65-1.15.75-.78.94-1.36.07-.77-.11-1.32-1.03-1.28-.88-.87.1.02-.92-.13-.73-.55-.67-.18-.51-.91.24-.65.72-.43.07-.36-.34h-.65l-.41.46-3.78.02-.22,1.08.31.79,1.27.34.48.89-.36.41.38.41-.17.55-.79-.53-2.24.77.1,1.83.58.74,1.25.96.82,1.44-.05,1.13-.02.5-1.87,6.96-.56,1.84.08.33-.29.48-.72-.19.07-.22-.75-.48-.26.07h-.65l-.29-.12-.24.53-2.28.74-1.71.36-.43.43-.39.12-.69.7-.79.36-.6.38.1.87-.34.5.14.53-.91.91.31,1.16.31.6-.55.53-.48-.1-.94.6-.05.67-.34.36.22.46-.12.74-.27.63.24.55-.17.5.91.92,1.64,2.64-.84,1.06,2.07-.17.98.17.72,1.06.22.94,1.43.05,1.7.11,1.41-1.29,1.19-.69.34.36-.16.74-.24.25-.02,1.19.18,1.97.04.78.41.39.66-.11.64-.18.72-.05.37-.05.33.16.1.05h2.12s.96.04.96.04l.96-.53h.53l.72-.58h.82l.96-.29.58-1.49,1.59-1.01,1.11-.19,1.06-.53h.72l.68.48.77-.48.39.34-.1.77.39,1.2-.53.96.43,1.54-.29.67.58,1.26.77.34.24,1.01.77.38,1.06.67.72.67.29-.34,1.4-.34,1.15,1.15.87-.24,1.2,1.3.53-.05,1.44.48.92.34.19.96.67.19.87.48,1.93-.19,1.35.77.29.58-.19,1.54.29,1.25-.39.77,1.25,2.12-.1,1.54,5.88.09.29,2.12-.09,1.35,1.73.39,1.73,3.08.09,1.63-1.64,3.28.09.48-.45.61.3.35-.19.72.82.63.05,1.01.67,1.01-.34,2.02.19.82-.24.72.24.72,1.25-.1.53.24,1.54-.1.96.34,1.54-.63.82.58.63.19.24.77.84,3.63.58,1.27.6.17,1.32-.72.75.29.51.46.48.1-.33.54-.08,3.14-.14.37-.09.12v.42s-.08.35-.08.35l-.03.4.58-.38,1.54.22.05.68.63,1.42-.05,1.13.14,1.3.12,1.2-.19.48-.67-.02-.82.43-.12.27-.48.41-.22-.12-1.37.91-.26.43-.53.14-1.25,1.03-.41.14-.05.82-.46.14-.41-.07-1.06,1.3-.19.51.02.74-.48.15-.26.41-.67,1.22-.48.51-.55.91v.31l-.63.43-.09.3h.5s.36.21.36.21l1.68-.51.7.46.77,1.06.67.29.41.91.79,1.3h.38l.65-.7.34.05.77,1.25.91.41.79.17.77.77.05.91.65-.14,1.3.57.77.97.82,1.22.74.53-.14.94-.63.86.31,1.01.12.25.09.16.39.52.19.16,1.26-1.05.43-1.01.56-2.33.5-1.59.22-.31-.29-.36-.48-.79.24-.67.48-.24.03-.43.55-.63v-.48l.34.27.46.07.55-.65.07-.67.22-.22.05-.77.24-.31h.34l.24-.65-.17-.48-.36-.38.05-1.01-.29-.26.34.09.38.79.79.87h.31l.34-.19.22.21.07.58-.26.07-.31,1.15-.77,1.33-.7.02-.1.84-.24.45-.22-.07-.7.39-.51.43-.05.36-.55.09-.27.26.03.36.65.19,2.12-1.66,1.08-1.23,1.56-2.67.6-1.35.6-1.73,1.51-2.89,1.49-1.78.24-.53-.14-.19.07-.46.31-.1.24-.75.43-.26-.14-.6.14-.43-.14-.19-.26-.22.05-.67-.65-.91v-.41l.12-.41-.12-.43-.22-.96-.34-1.01.26-.24.84-.17-.22-.55-.41-.24.79-.19.02-.65-.82-.36.67-.19.43-.63.34.26,1.06-.98.62-.41-.03-.34.89-.77,1.03-.67,1.37-1.56,1.2-.14.65-.63.72-.58h.67l.43.36.51.12.02-.48.5-.89,1.42-.89.55-.17v-.26l-.34-.22-.46-.1-.22-.41.5-.12.87-.53.5.14.57-.05.41-.32.57.03-.04.27-.81.46-.84.17-.17.19.28.22,1.29-.48,1.55-.62-.13-.25.41-.35.38.06-.13.38s.04.55.1.58c.06.02.97.14.97.14l.54-.3h.92l1.11.12.67-.46v-.34s-.16-.17-.16-.17l.1-.34,1.51-1.02,1.26-.45.65-.4.19-.41-.18-.25-.55-1.27.41-.87.47-.57.03-.65.31-.26.55-.39.12-.67-.17-.1.94-1.51,1.28-1.49.02-.67-.26-2.12-.22-.41.41-1.27.33-.51.07-.43.99-.79.14-.38-.26-1.24.53-1.49-.14-1.15.19-.87-.05-.48.29-1.25-.34-4.52v-.84s.26-.63.26-.63v-.6s-.28.31-.28.31l-.53-.38v-.39l.48-.75-.12-.75.12-.51.43-.12.1-.79-.46-.75-.89-.41.24-.1.12-.29.17.36.53.31.48.17.19-.72.46.02.19.41.34.17-.36.5-.48.36-.12.41.34.02.65-.6.89-.46,1.13-1.73.5-1.27.17-.77.43-.39.43-1.15.48-.99,1.76-1.2.22-.58.53-.17.38-.63,1.49-1.35,1.32-1.78.34-.48.82-1.8.22-.79.41-.58v-.58l-.43-.65.17-.67.39-.36Z"/>
    <polygon class="cls-6" points="143.8 70.9 143.99 71.19 144.32 71.3 144.35 70.99 144.27 70.71 143.86 70.52 143.8 70.9"/>
    <polygon class="cls-7" points="131.2 52.88 130.67 53.59 130.74 54.51 130.99 55.17 130.91 55.92 130.91 56.47 131.51 56.84 131.78 57.37 132.15 57.97 132.28 58.66 132.4 58.96 132.29 59.54 131.76 60.06 131.83 60.9 132.08 61.34 131.76 62.07 130.96 62.62 130.78 62.58 130.9 62.89 131.11 63.44 131.29 63.59 131.29 63.92 131.75 64.43 132.32 64.53 132.68 64.14 133.15 63.95 133.52 63.99 133.61 64.27 133.85 64.38 133.87 65.26 134.27 65.39 134.86 64.96 134.99 64.41 135.34 64.16 135.92 64.06 136.33 63.25 136.87 62.37 137.51 60.99 137.52 60.38 138.39 59.26 139.21 58.25 139.46 57.86 139.5 57.82 140.07 57.06 140.02 56.22 139.42 55.55 139.13 55.86 138.72 55.5 138.65 54.97 137.47 53.75 137.16 53.63 136.39 52.88 134.51 52.4 133.67 51.89 132.69 51.8 132.09 52.23 131.49 52.57 131.49 52.57 131.46 52.59 131.2 52.88"/>
    <polygon class="cls-4" points="121.85 52.33 121.87 52.79 121.41 53.34 120.8 53.65 119.98 53.68 119.55 54.5 119.53 55.21 118.96 56.61 119.02 57.03 119.62 57.34 120.02 57.81 120.12 58.14 120.5 58.66 120.54 59.09 120.92 59.43 121.36 59.45 121.61 59.66 121.74 60.15 122.01 61.16 121.98 61.83 122.33 62.09 122.88 62.72 122.96 63.3 123.63 63.57 123.63 63.83 123.83 64.27 124.3 64.6 124.35 64.62 124.63 64.62 124.84 64.78 125.68 65.01 126.25 64.99 126.37 64.74 126.05 64.01 125.9 63.63 125.28 63.03 125.39 62.42 126.04 61.99 126.79 62.18 128.17 62.12 128.81 61.83 129.68 61.87 130.33 62.48 130.78 62.58 130.96 62.62 131.76 62.07 132.08 61.34 131.83 60.9 131.76 60.06 132.29 59.54 132.4 58.96 132.28 58.66 132.15 57.97 131.78 57.37 131.51 56.84 130.91 56.47 130.91 55.92 130.99 55.17 130.74 54.51 130.67 53.59 131.2 52.88 131.46 52.59 131.49 52.57 132.13 51.78 132.09 51.32 131.39 51.01 130.23 50.81 128.91 50.31 128.48 50.36 127.88 50.62 126.85 50.52 125.55 50.79 124.47 50.48 123 50.5 122.16 50.81 122.01 51.58 122.02 51.65 121.85 52.33"/>
    <polygon class="cls-5" points="111.57 43.6 110.88 44.13 110.37 44.08 109.46 45.16 109.72 45.62 109.96 46.34 110.85 46.39 111.41 46.82 111.41 47.62 110.32 48.1 109.75 47.88 109.29 48.12 108.76 47.88 108.3 48.41 108.16 49.42 107.49 50.04 107.8 50.88 108.66 52.09 109.91 53.12 109.92 53.19 110.25 53.24 110.51 53.53 110.88 53.29 111.62 53.36 112.17 54.06 112.17 54.95 111.76 55.59 111.48 56.01 112.05 56.29 112.75 56.25 112.97 56.73 113.28 57.21 113.91 57.16 113.93 57.52 113.33 58.26 113.11 59.18 112.46 60.31 112.51 61.03 112.27 61.51 112.17 62.11 112.34 62.45 112.2 62.9 112.27 63.58 112.87 64.2 113.59 64.93 113.62 65.41 114.1 66 115.42 67.14 115.95 67.35 116.36 66.82 116.81 66.71 116.91 66.92 117.68 66.85 118.14 66.3 118.23 65.98 118.93 65.76 120.3 65.82 120.69 64.76 121.38 64.47 122.37 64.42 122.63 64.71 123.23 64.61 124.31 64.61 124.3 64.6 123.83 64.27 123.63 63.83 123.63 63.57 122.96 63.3 122.88 62.72 122.33 62.09 121.98 61.83 122.01 61.16 121.74 60.15 121.61 59.66 121.36 59.45 120.92 59.43 120.54 59.09 120.5 58.66 120.12 58.14 120.02 57.81 119.62 57.34 119.02 57.03 118.96 56.61 119.53 55.21 119.55 54.5 119.98 53.68 120.8 53.65 121.41 53.34 121.87 52.79 121.85 52.33 122.02 51.65 122.01 51.58 122.01 51.58 121.82 50.91 121.82 50.09 121.6 49.59 120.36 49.25 119.27 48.12 118.66 47.64 118.25 47.85 117.58 48.08 117.12 48.6 116.97 49.22 116.85 48.43 117 47.39 117.22 46.79 116.88 45.69 116.37 45.3 115.06 44.5 114.18 43.51 114.1 42.98 113.46 42.36 112.84 42.23 112.66 42.11 112.56 42.42 111.57 43.6"/>
    <polygon class="cls-3" points="84.15 29.02 84.44 29.57 84.9 29.65 85.28 30.15 85.43 29.6 84.8 28.97 84.15 29.02"/>
    <polygon class="cls-3" points="78.77 28.01 79.2 28.61 79.85 28.59 79.27 28.06 78.77 28.01"/>
    <path class="cls-3" d="m98.65,33.78l.68.18.53-.65-.29-.45-.99.75-.33-.43-.69.51s.35.25.35.25l.74-.16Z"/>
    <polygon class="cls-3" points="74.49 30.55 72.78 31.21 71.78 32.76 71.47 33.14 70.89 33.29 70.37 34.06 69.84 34.51 68.78 36.03 68.58 36.7 68.8 37.28 68.71 38.38 68.2 39.47 68.13 39.8 68.56 39.75 69.14 39.78 70.46 42.19 71.05 43.08 71.22 43.71 70.88 44.43 70.93 44.9 70.7 45.28 70.73 45.76 71.49 46.39 72.43 46.8 73.02 46.87 73.72 47.21 74.26 46.94 74.26 46.94 74.26 46.94 75.12 46.96 75.93 47.2 76.17 46.99 77.13 46.82 78.19 47.03 78.79 47.28 81.31 49.77 82.22 49.57 82.47 49.78 82.73 49.68 83.41 49.89 83.84 50.13 84.47 49.78 85.13 49.77 86.04 49.85 86.21 49.67 86.79 49.65 87.33 49.92 87.54 51.22 87.27 51.75 87.27 52.34 87.05 52.75 86.26 52.99 85.89 53.45 86.08 54.64 86.15 55.08 85.9 55.91 85.92 56.97 86.28 57.49 86.31 57.88 87.03 59.66 85.95 61.62 86.04 62.11 86.4 62.23 86.73 61.99 86.87 62.14 87.02 62.68 87.34 62.87 87.69 63.53 87.51 63.91 87.9 64.75 88.56 66.44 88.62 67.08 88.58 67.08 89.86 67.96 91.19 68.99 91.96 69.09 93.32 69.02 94.1 68.08 95.25 67.33 95.8 66.68 97.51 65.79 97.82 64.93 98.1 64.62 98.37 64.32 99.94 64.01 100.71 63.65 100.66 62.98 99.6 62.76 98.54 62.88 97 62.38 97.22 61.27 97.03 60.91 96.86 60.6 97.8 59.15 97.56 58.53 96.83 57.85 96.14 57.59 95.7 56.77 96.67 57.06 97.7 57.23 98.73 57.81 99.89 57.74 101.38 57.54 101.74 57.78 102.8 57.43 103.88 56.46 104.82 56.36 105.37 56.63 105.37 56.63 106.86 56.01 107.94 55.91 109.67 54.68 109.99 53.89 109.92 53.19 109.91 53.12 108.66 52.09 107.8 50.88 107.49 50.04 108.16 49.42 108.3 48.41 108.76 47.88 109.29 48.12 109.75 47.88 110.32 48.1 111.41 47.62 111.41 46.82 110.85 46.39 109.96 46.34 109.72 45.62 109.46 45.16 110.37 44.08 110.88 44.13 111.57 43.6 112.56 42.42 112.66 42.11 112.48 42 111.21 41.42 110.75 41.41 110.3 41.59 109.63 41.44 109.26 41.46 108.71 41.7 107.64 41.87 106.86 41.78 106.46 41.73 107.16 41.61 107.54 41.66 108.02 41.34 108.31 40.81 109.01 40.29 109.15 39.95 108.69 39.63 108.74 39.42 108.55 38.89 107.64 38.41 106.53 38.12 106.19 37.78 105.79 37.52 105.14 37.5 104.92 37.18 104.25 36.89 103.89 36.92 103.91 37.47 103.48 36.89 103.21 36.25 102.54 35.91 102.35 35.55 102.71 35.26 104.2 35.31 104.75 34.95 105.69 34.85 105.79 34.3 104.92 34.47 103.43 34.16 102.35 34.3 101.63 34.25 100.16 34.78 99.66 34.57 99.05 34.63 97.83 35.5 97.2 35.65 96.46 36.03 96.17 36.39 95.19 36.51 94.87 36.7 94.37 36.53 92.9 35.55 92.61 34.95 92.18 34.88 90.55 34.99 87.4 35.52 85.86 35.52 85.26 35.21 85.02 34.73 85.02 34.16 85.4 34.13 85.33 33.46 84.66 32.55 84.03 32.38 82.44 32.5 81.72 32.09 81.19 32.06 80.76 32.21 80.21 31.32 80.21 30.43 79.97 29.32 79.66 29.2 78.72 29.59 77.8 30.67 78.02 31.39 78.33 31.68 78.96 31.34 79.56 31.39 80.09 31.97 79.99 32.38 79.42 32.55 78.74 32.23 78.43 32.02 78.28 32.21 78.26 32.47 77.49 32.88 76.03 33.14 74.56 33.77 74.1 34.35 74.1 34.9 74.48 35.59 74.48 36.94 74.62 37.86 74.91 38.63 74.43 39.64 73.27 40.31 72.69 40.22 72.69 39.25 72.02 38.48 71.83 37.81 72.45 37.28 72.5 36.89 73.75 35.64 73.75 34.58 73.36 33.89 73.41 33.58 73.38 33.17 72.85 32.78 72.59 32.23 72.76 31.78 73.53 31.44 74.32 31.25 75.02 30.44 74.65 30.43 74.49 30.55"/>
    <polygon class="cls-3" points="81.94 28.73 81.75 29.07 82.06 29.72 82.81 29.89 83.14 29.53 82.57 29.45 81.94 28.73"/>
    <polygon class="cls-4" points="50.63 67.61 52.13 68.59 52.72 68.6 53.5 69.42 53.38 69.91 53.51 70.35 54.53 70.43 55.7 71 56.1 71.28 57.17 71.52 57.58 71.14 57.55 70.46 58.03 70.07 58.27 70.08 59.27 70.44 59.79 70.72 59.94 71.16 60.39 71.41 60.46 71.46 60.7 71.44 61.09 71.82 62.29 72.11 63.03 72.28 63.22 72.64 64.02 73.58 64.09 74.2 64.64 75.24 65.08 75.24 66.66 75.77 67.34 76.75 67.31 77.55 67.55 77.62 68.11 77.88 68.39 78.73 68.18 79.06 68.37 79.54 68.99 79.81 69.69 79.64 70.27 79.78 71.09 79.76 71.42 79.47 72.48 78.99 73.39 79.16 74.19 79.54 75.34 79.04 75.94 79.04 76.21 79.42 76.59 79.4 77.34 79.76 77.67 80.22 78.32 80 78.37 80.46 76.21 84.11 76.33 84.52 77.07 84.45 77.91 84.37 78.42 84.93 78.58 85.65 79.14 83.81 81.02 76.85 81.04 76.35 81.09 75.21 80.27 73.77 79.02 72.81 78.44 72.07 78.35 70.24 80.58 69.47 81.38 70 81.55 69.45 81.16 69.04 81.52 68.63 81.04 67.74 79.77 67.4 79.45 66.61 79.67 65.53 83.45 65.5 83.85 65.04 84.5 65.04 84.86 65.38 85.3 65.31 85.95 64.59 86.86 64.35 87.04 64.86 87.6 65.54 87.73 66.27 87.71 67.19 88.58 67.08 88.62 67.08 88.56 66.44 87.9 64.75 87.51 63.91 87.69 63.53 87.34 62.87 87.02 62.68 86.87 62.14 86.73 61.99 86.4 62.23 86.04 62.11 85.95 61.62 87.03 59.66 86.31 57.88 86.28 57.49 85.92 56.97 85.9 55.91 85.9 55.91 86.15 55.08 86.08 54.64 85.89 53.45 86.26 52.99 87.05 52.75 87.27 52.34 87.27 51.75 87.54 51.22 87.33 49.93 86.79 49.65 86.21 49.67 86.04 49.85 85.13 49.77 84.47 49.78 83.84 50.13 83.41 49.89 82.73 49.68 82.47 49.78 82.22 49.57 81.31 49.77 78.79 47.28 78.19 47.03 77.13 46.82 76.17 46.99 75.93 47.2 75.12 46.96 74.26 46.94 74.26 46.94 73.72 47.21 73.02 46.87 72.43 46.8 71.49 46.39 70.73 45.76 70.7 45.28 70.93 44.9 70.88 44.43 71.22 43.71 71.05 43.08 70.46 42.19 69.14 39.78 68.56 39.75 68.13 39.8 68.2 39.47 68.71 38.38 68.8 37.28 68.58 36.7 68.78 36.03 69.84 34.51 70.37 34.06 70.89 33.29 71.47 33.14 71.78 32.76 72.78 31.21 74.49 30.55 74.65 30.43 75.02 30.44 75.11 30.33 75.5 30.04 75.64 29.66 75.26 29.15 74.05 28.5 73.57 28.48 73.41 28.77 73.36 29.08 72.85 29.15 72.59 29.37 72.03 29.3 71.55 29.49 71.29 29.8 71.58 30.14 71.36 30.45 70.5 30.88 69.34 31.58 68.57 32.14 67.68 32.33 66.7 32.4 65.62 32.28 64.94 32.64 64.99 33.05 65.21 33.58 65.14 34.11 64.63 34.56 64.29 34.42 64.41 33.89 64.34 33.72 64.82 33.55 64.13 33.48 63.28 33.12 62.85 33.14 61.75 33.82 61.48 34.27 60.74 35.14 59.85 36.82 59.73 37.3 59.99 37.18 60.23 37.45 60.33 38 60.14 38.6 59.65 38.84 59.03 38.89 58.55 39.16 57.68 39.99 57.32 40.19 56.67 41.15 56.29 41.2 55.74 41.22 55.93 41.85 56.51 42.5 56.51 43.31 56.17 44.03 55.81 44.01 55.21 43.51 55.28 43.27 55.49 42.88 54.99 42.67 54.77 42.04 54.04 41.39 53.9 41.97 54.01 42.41 54.31 43.24 53.83 44.1 53.6 44.91 53.19 45.23 52.86 45.25 52.43 46.26 52.57 46.39 52.71 47.16 52.77 47.92 53.43 48.73 53.69 48.71 54.01 48.54 54.19 48.84 54.28 49.57 53.87 50.03 53.85 50.32 54.25 50.76 54.25 51.69 53.82 52.01 53.55 52.49 53.82 52.6 54.08 53.21 54 54.34 54.06 55.89 53.6 56.44 53.52 56.91 53.91 57.46 54.5 57.21 54.42 57.58 54.76 58.07 55.11 58.03 55.14 58.34 54.8 58.77 54.51 59.52 53.26 60.77 52.92 61.46 51.99 62.38 50.74 62.65 49.78 63.38 48.86 64.77 48.71 65.88 48.57 66.49 49.54 66.86 50.63 67.61"/>
    <polygon class="cls-1" points="44.85 80.86 44.24 81.4 43.88 82 43.92 82.24 44.12 82.5 44.51 82.38 44.76 81.89 44.71 81.48 44.89 81.03 44.85 80.86"/>
    <polygon class="cls-5" points="45.07 84.59 44.38 84.95 43.82 85.57 43.92 86.22 44.59 86.25 45.34 85.91 45.65 86.42 46.66 86.63 47.26 86.88 48.22 88.24 48.66 88.24 49.28 87.6 51.88 82.21 52.36 81.78 55.77 80.65 57.22 79.64 59.52 77.52 60.45 75.34 61.04 75.31 61.18 75 61.35 74.23 61.28 73.6 60.59 72.3 60.62 71.95 60.46 71.46 60.46 71.46 60.39 71.41 59.94 71.16 59.79 70.72 59.27 70.44 58.27 70.08 58.03 70.07 57.55 70.46 57.58 71.14 57.17 71.52 56.1 71.28 55.7 71 54.53 70.43 53.51 70.35 53.38 69.91 53.5 69.42 52.72 68.6 52.13 68.59 50.63 67.61 49.54 66.86 48.57 66.49 48.38 67.28 47.41 67.33 45.83 68.43 45.01 68.48 44.14 68.92 44.57 69.68 44.62 70.17 44.91 70.65 44.72 71.56 43.47 72.91 43.37 73.49 43.66 73.87 43.03 74.79 42.31 74.89 41.73 75.7 41.97 76.23 42.23 76.92 42.15 77.45 42.27 78.44 41.91 79.06 41.58 79.37 41.96 79.88 42.68 80.17 43.35 80.86 43.91 81.22 44.17 81.03 44.46 80.24 44.68 79.83 45.16 79.35 45.18 79.93 45.25 80.43 45.38 80.12 45.33 79.59 45.54 79.64 45.76 80.5 45.59 81.44 45.69 81.94 45.35 82.79 44.48 83.52 44.79 83.68 45.07 84.59"/>
    <polygon class="cls-7" points="80.61 134.07 81.04 134.16 81.69 133.75 81.93 133.2 81.33 132.62 81.55 132.05 81.88 131.5 82.35 131.6 82.27 131.18 81.86 131.11 81.57 130.79 82.07 129.71 82.82 129.21 83.49 128.32 83.57 127.53 82.6 125.32 82.94 124.79 82.87 123.95 82.65 123.51 82.51 122.82 82.91 122.36 83.16 121.21 83.06 119.07 82.75 118.13 83.16 117.07 83.13 114.76 83.68 113.85 83.66 113.37 80.58 108.97 80.58 108.97 80.49 108.92 80.16 108.77 79.79 108.82 79.07 108.87 78.43 109.05 77.77 109.16 77.36 108.77 77.32 107.99 77.14 106.02 77.17 104.83 77.41 104.57 77.56 103.83 77.23 103.47 76.03 104.16 74.62 105.45 72.93 105.34 71.49 105.29 71.28 104.35 70.56 103.29 69.57 103.13 67.5 103.29 68.35 102.24 66.71 99.59 65.8 98.68 65.97 98.17 65.72 97.62 65.99 97 66.11 96.25 65.89 95.79 66.23 95.43 66.28 94.76 67.22 94.16 67.7 94.26 68.25 93.73 67.94 93.13 67.63 91.97 68.54 91.06 68.39 90.53 68.73 90.03 68.63 89.16 69.24 88.77 70.03 88.41 70.72 87.71 71.11 87.6 71.54 87.16 73.25 86.8 75.53 86.06 75.77 85.53 76.06 85.65 76.71 85.65 76.98 85.57 77.72 86.06 77.65 86.27 78.37 86.47 78.66 85.98 78.42 84.93 77.91 84.37 77.07 84.45 76.33 84.52 76.21 84.11 78.37 80.46 78.32 80 77.67 80.22 77.34 79.76 76.59 79.4 76.21 79.42 75.94 79.04 75.34 79.04 74.19 79.54 73.39 79.16 72.48 78.99 71.42 79.47 71.09 79.76 70.27 79.78 69.69 79.64 68.99 79.81 68.37 79.54 68.18 79.06 68.39 78.73 68.11 77.88 67.55 77.62 67.31 77.55 67.34 76.75 66.66 75.77 65.08 75.24 64.64 75.24 64.09 74.2 64.02 73.58 63.22 72.64 63.03 72.28 62.29 72.11 61.09 71.82 60.7 71.44 60.46 71.46 60.46 71.46 60.62 71.95 60.59 72.3 61.28 73.6 61.35 74.23 61.18 75 61.04 75.31 60.45 75.34 59.52 77.52 57.22 79.64 55.77 80.65 52.36 81.78 51.88 82.21 49.28 87.6 48.66 88.24 48.22 88.24 47.26 86.88 46.66 86.63 45.65 86.42 45.34 85.91 44.59 86.25 43.92 86.22 43.82 85.57 44.38 84.95 45.07 84.59 44.79 83.68 44.48 83.52 44.44 83.56 42.8 84.28 42.2 84.83 41.05 85.96 40.81 86.8 40.54 87.45 40.61 87.76 41.14 88.2 41.22 88.68 40.81 88.96 40.81 89.32 41.45 89.91 41.96 90.84 41.89 91.49 41.39 91.51 40.86 91.76 40.66 92.26 41.22 92.79 41.89 93.05 42.87 93.89 43.79 94.01 45.16 94.93 45.83 95.1 46 95.65 46.75 96.71 46.84 97.62 47.23 98.29 48.57 98.99 49.17 99.98 49.37 100.94 49.75 101.58 49.87 102.67 50.33 103.41 50.86 103.73 51.46 104.81 51.58 105.6 51.38 105.86 51.91 107.02 52.97 108.34 53.38 109.04 53.21 109.59 53.33 110.05 53.76 110.19 54.89 111.2 55.18 111.8 55.3 112.74 55.62 113.15 56.48 113.46 56.65 114.26 57.61 115.79 57.85 116.56 58.96 118.12 58.98 118.75 58.69 118.87 58.38 118.65 58.36 118.99 58.48 119.54 58.48 120.05 58.86 119.98 59.29 120.26 59.39 120.7 59.25 121.04 60.35 121.8 61.41 122.33 61.46 122.79 61.96 123.41 62.59 123.48 62.84 123.81 63.08 124.36 63.5 124.64 64.51 124.59 64.84 124.19 64.63 124.77 65.21 125.43 66.28 125.99 66.76 126.43 66.85 126.93 67.35 127.27 68.16 127.56 68.45 127.45 69.02 127.61 70.31 128.39 71.18 128.73 71.81 128.76 72.11 128.92 72.29 129.37 73.21 130.03 73.71 130.34 74.44 131.02 74.88 131.2 75.1 131.62 75.05 131.97 75.06 132.44 75.82 132.6 76.58 132.91 77.5 133.86 78.35 134.65 78.93 134.83 79.05 134.95 79.89 134.55 80.61 134.07"/>
    <polygon class="cls-5" points="83.66 113.37 83.68 113.85 83.13 114.76 83.16 117.07 82.75 118.13 83.06 119.07 83.16 121.21 82.91 122.36 82.51 122.82 82.65 123.51 82.87 123.95 82.94 124.79 82.6 125.32 83.57 127.53 83.49 128.32 82.82 129.21 82.07 129.71 81.57 130.79 81.86 131.11 82.27 131.18 82.35 131.6 82.51 131.64 82.58 132.48 83.25 133.08 83.61 133.42 83.71 134.04 83.57 134.7 83.68 135.05 83.85 136.18 84.38 136.93 85.9 138.16 86.03 138.67 85.64 139.64 85.88 140.31 85.06 142.09 85.54 142.77 87.18 144.3 89.64 150.91 90.55 150.91 90.79 150.47 91.32 150.38 91.33 150.38 91.75 149.85 92.33 148.64 93.63 147.29 94.5 147.01 95.32 147.73 96.28 147.63 96.86 147.49 97.58 147.68 98.78 147.44 99.41 147.54 99.56 148.4 100.04 149.8 100.28 150.18 100.57 149.8 100.52 149.17 100.9 148.55 100.9 147.92 101.43 147.15 103.36 147.15 105.04 147.2 105.68 147.79 105.95 146.67 106.84 144.84 106.91 143.95 106.79 143.04 106.45 142.51 107.51 140.94 107.94 139.69 107.94 139.14 108.71 138.63 113.28 137.37 117.08 137.42 119.3 139.06 119.83 139.15 120.2 139.58 120.65 138.96 120.55 138.48 122.19 135.21 122.09 133.57 120.36 130.49 118.63 130.1 118.72 128.75 118.43 126.63 112.56 126.54 112.65 125 111.4 122.88 111.79 122.11 111.5 120.86 111.69 119.32 111.4 118.74 110.05 117.97 108.13 118.16 107.26 117.68 106.59 117.49 106.39 116.53 105.48 116.19 104.03 115.7 103.5 115.75 102.3 114.45 101.43 114.69 100.28 113.54 98.88 113.88 98.59 114.21 97.87 113.54 96.81 112.86 96.04 112.48 95.8 111.47 95.03 111.13 94.45 109.88 94.74 109.2 94.31 107.66 94.84 106.7 94.45 105.5 94.55 104.73 94.16 104.39 93.39 104.87 92.72 104.39 91.99 104.39 90.94 104.92 89.83 105.11 88.24 106.12 87.66 107.61 86.7 107.9 85.88 107.9 85.16 108.48 84.63 108.48 83.67 109.01 82.7 108.96 80.58 108.97 80.58 108.97 83.66 113.37"/>
    <polygon class="cls-4" points="119.3 139.06 117.08 137.42 113.28 137.37 108.71 138.63 107.94 139.14 107.94 139.69 107.51 140.94 106.45 142.51 106.79 143.04 106.91 143.95 106.84 144.84 105.95 146.67 105.68 147.79 105.77 147.87 106.54 148.69 107.16 148.84 107.98 150.33 110.05 152.4 110.87 152.49 111.69 153.22 112.22 154.08 114.24 154.56 115.54 155.24 116.14 155.37 117.61 156.64 119.1 157.39 121.09 157.65 121.89 158.54 122.87 159.36 123.26 160.18 123.04 160.9 122.54 161.69 121.96 162.12 121.62 162.68 121.81 163.37 121.33 164.67 120.3 165.73 120.11 166.48 120.69 166.45 123.04 166.09 125.04 166.69 126.43 167.53 127.2 167.2 127.63 167.2 127.97 167.56 128.64 166.69 128.95 166.52 129.68 166.74 130.28 166 130.54 165.13 132.06 164.07 132.27 163.35 132.73 162.53 133.33 162.03 133.4 160.8 133.28 160.46 133.35 159.53 133.54 159.4 133.57 159 133.66 158.65 133.66 158.23 133.75 158.11 133.88 157.75 133.97 154.61 134.29 154.07 133.81 153.98 133.31 153.52 132.56 153.23 131.24 153.95 130.64 153.78 130.06 152.51 129.22 148.88 128.98 148.11 128.35 147.92 127.53 147.34 125.99 147.97 125.03 147.63 123.49 147.73 122.96 147.49 121.71 147.58 121.46 146.86 121.71 146.14 121.51 145.32 121.85 143.29 121.18 142.29 121.13 141.28 120.31 140.65 120.5 139.93 119.83 139.15 119.3 139.06"/>
    <polygon class="cls-5" points="139.5 189.7 139.41 189.54 139.29 189.29 138.98 188.28 139.6 187.42 139.75 186.48 139 185.95 138.19 184.73 137.41 183.76 136.12 183.19 135.47 183.33 135.42 182.42 134.65 181.65 133.86 181.48 132.94 181.07 132.18 179.82 131.84 179.77 131.19 180.47 130.81 180.47 130.01 179.17 129.6 178.25 128.93 177.97 128.16 176.91 127.46 176.45 125.78 176.96 125.42 176.76 124.92 176.75 124.87 176.93 124.55 177.68 123.95 178.45 124.17 179.51 123.91 180.01 124.1 180.56 123.98 182.05 123.74 182.58 123.81 183.16 123.4 183.88 123.74 184.91 123.5 185.27 123.67 186.77 123.95 187.85 123.74 188.34 123.25 188.8 123.12 189.02 123.12 189.08 123.14 190.56 123.6 191.75 124.57 193.11 124.91 193.18 125.84 194.11 126.33 194.23 127.8 194.08 128.67 194.14 129.46 194.7 129.97 194.78 130.49 194.82 130.66 194.99 130.56 195.23 130.55 195.59 131.22 195.61 131.95 195.17 132.89 195 133.55 195.23 133.97 195.48 134.32 195.41 134.81 195.6 135.3 195.65 135.63 195.41 135.71 195.01 135.88 194.89 136.16 195.13 137.4 194.67 138.21 193.75 138.42 193.39 138.3 193.29 138.63 192.77 139.27 192.17 139.27 191.23 139.8 190.61 140.08 190.38 139.89 190.22 139.5 189.7"/>
    <polygon class="cls-7" points="123.25 188.8 123.74 188.34 123.95 187.85 123.67 186.77 123.5 185.27 123.74 184.91 123.4 183.88 123.81 183.16 123.74 182.58 123.98 182.05 124.1 180.56 123.91 180.01 124.17 179.51 123.95 178.45 124.55 177.68 124.87 176.93 124.92 176.75 125.01 176.45 125.64 176.02 125.64 175.71 126.19 174.79 126.67 174.29 127.34 173.06 127.61 172.65 128.09 172.51 128.07 171.76 128.26 171.26 129.31 169.96 129.72 170.03 130.18 169.89 130.23 169.07 130.64 168.93 131.89 167.89 132.42 167.75 132.68 167.32 134.05 166.4 134.27 166.52 134.75 166.12 134.87 165.85 135.69 165.42 136.36 165.44 136.55 164.96 136.43 163.76 136.29 162.46 136.34 161.33 135.71 159.91 135.66 159.24 134.12 159.02 133.54 159.4 133.35 159.53 133.28 160.46 133.4 160.8 133.33 162.03 132.73 162.53 132.27 163.35 132.06 164.07 130.54 165.13 130.28 166 129.68 166.74 128.95 166.52 128.64 166.69 127.97 167.56 127.63 167.2 127.2 167.2 126.43 167.53 125.04 166.69 123.04 166.09 120.69 166.45 120.11 166.48 120.3 165.73 121.33 164.67 121.81 163.37 121.62 162.68 121.96 162.12 122.54 161.69 123.04 160.9 123.26 160.18 122.87 159.36 121.89 158.54 121.09 157.65 119.1 157.39 117.61 156.64 116.14 155.37 115.54 155.24 114.24 154.56 112.22 154.08 111.69 153.22 110.87 152.49 110.05 152.4 107.98 150.33 107.16 148.84 106.54 148.69 105.77 147.87 105.68 147.79 105.04 147.2 103.36 147.15 101.43 147.15 100.9 147.92 100.9 148.55 100.52 149.17 100.57 149.8 100.28 150.18 100.04 149.8 99.56 148.4 99.41 147.54 98.78 147.44 97.58 147.68 96.86 147.49 96.28 147.63 95.32 147.73 94.5 147.01 93.63 147.29 92.33 148.64 91.75 149.85 91.33 150.38 91.76 151.28 90.9 155.05 86.91 157.17 86.64 158.04 87.34 158.62 87.51 159.21 87.1 159.94 87.29 161.07 88.01 161.98 88.01 162.82 87.41 163.28 87.27 163.93 87.67 164.26 87.92 164.74 87.96 165.68 88.28 166.02 87.77 166.62 87.12 166.95 86.26 167.84 85.37 170.08 84.74 170.92 84.5 173.4 84.04 173.86 84.14 175.95 84.74 177.05 84.69 178.52 84.17 179.2 84.14 180.85 83.2 181.28 83.03 182.56 83.37 184.19 83.97 185.01 84.09 185.63 84.86 186.86 85.39 187.87 85.8 189.82 86.28 190.27 86.57 192.85 86.4 194.44 85.75 194.65 85.2 196 85.39 197.32 84.62 198.45 85.08 198.83 85.75 199.96 85.92 201.16 85.13 201.98 84.43 203.38 84.45 205.69 84.45 206.65 84.21 207.95 86.21 211.87 85.73 212.44 84.84 212.87 84.65 214.7 83.42 216.34 83.57 217.49 84.19 218.53 83.97 221.02 84.09 223.21 84.38 224.77 85.01 225.09 85.37 225.76 85.15 226.63 84.43 227.11 84.57 229.66 84.89 230.64 85.95 231 85.87 232.13 85.92 233.09 86.55 234.44 86.86 235.98 87.49 236.1 87.99 235.75 88.44 235.93 88.49 236.74 87.75 237.59 86.25 237.58 86.01 238.15 86.42 238.55 86.63 238.35 87.33 238.35 88.44 239.13 89.13 240.36 89.15 241.12 88.29 241.86 88.23 242.52 88.67 243.4 88.92 245.24 89.31 246.67 88.7 247.28 88.6 248.05 89.26 249.63 88.59 250.4 88.32 251.92 88.76 253.22 89.09 254.97 88.76 256.68 87.6 257.88 86.91 258.89 86.47 261.87 86.67 262.94 88.14 265.87 88.82 265.88 89.4 265.23 90.46 264.71 91.16 264.68 91.16 265.57 91.38 267.49 92.1 268.15 92.44 269.32 92.96 270.72 94.58 270.84 95.13 271.15 97.53 270.74 101.84 270.74 102.07 271.02 102.8 271.13 103.71 271.96 104.49 272.32 104.78 272.34 104.71 271.71 104.03 271.19 102.9 270.49 102.78 269.84 102.21 269.29 101.82 269.41 101.46 269.05 101.96 268.76 102.09 268.33 101.89 268.23 101.89 267.75 101.34 266.21 100.69 265.2 100.57 264.22 100.96 263.11 101.77 262.44 102.06 261.91 101.82 261.65 101.82 261.04 101.51 260.63 101.94 260.87 102.37 261.35 102.88 261.52 103.57 260.95 103.67 260.42 104.27 259.72 104.47 259.19 104.25 258.18 103.74 258.06 103.43 258.3 103.57 257.87 104.15 257.32 104.39 256.6 104.54 255.85 105.31 255.1 105.95 255.06 106.19 254.29 106.68 253.64 107.01 253.52 107.13 252.99 107.66 252.73 108.19 252.12 108.07 251.88 108.14 251.45 108.55 251.16 107.95 250.61 107.57 250.61 108.14 250.06 108.14 249.53 107.76 248.73 107.76 248.38 108 248.11 107.78 247.75 107.25 247.58 106.96 247.72 106.36 247.7 105.26 247.8 103.94 246.57 103.05 245.8 102.59 245.66 101.92 245.1 101.2 243.9 101.2 243.18 100.79 242.63 100.83 242.22 101.58 241.69 101.84 241.11 102.09 240.32 102.52 240.22 103.07 239.57 103.82 239.48 104.44 238.81 105.4 238.66 106 238.76 107.06 238.57 107.11 238.27 106.8 237.96 106.15 237.72 106.24 237.43 106.36 236.93 107.28 236.33 107.11 236.14 107.42 235.68 107.45 235.37 106.65 234.5 106.77 234.09 106.77 233.64 106.53 233.28 106.32 232.43 106.84 231.88 107.11 231.23 106.87 230.97 107.25 230.54 108.29 230.15 109.01 229.48 108.98 229.14 108 228.85 107.32 228.83 107.04 228.35 107.16 227.99 107.76 227.53 108.65 227.19 109.46 227.63 109.46 228.01 109.35 228.3 109.61 228.95 110.09 229.12 111.39 228.37 111.58 227.72 111.27 227.03 110.83 226.5 111.1 226.38 111.24 225.78 110.79 225.01 110.28 224.96 109.63 225.39 109.13 225.42 108.82 225.68 109.01 225.83 109.56 225.97 109.51 226.33 108.38 226.66 107.88 226.47 108.19 226.16 108.58 225.94 108.21 225.75 107.21 225.83 106.44 225.39 106.22 224.79 106.24 223.2 105.98 222 105.26 221.35 105.28 220.17 105.95 219.5 106.46 219.48 106.24 219.86 106.44 219.98 107.18 219.91 108.46 220.32 109.63 221.3 110.64 221.55 112.52 221.52 113.65 220.75 113.55 220.54 114.32 219.98 114.46 219.36 114.3 218.88 114.49 218.52 114.68 217.96 114.1 217.8 113.69 217.1 113.69 216.5 113.94 216.04 113.79 215.73 114.39 215.13 114.37 214.91 114.61 214.84 114.71 214.41 114.59 213.83 114.03 213.78 114.1 213.42 113.79 212.96 113.79 211.78 113.62 211.4 113.62 210.85 113.84 210.63 114.13 211.02 114.59 211.02 115.52 211.33 116.27 211.81 116.92 211.81 117.95 211.62 119.06 211.78 120.45 211.71 122.78 211.11 124.83 210.27 124.92 209.84 125.19 210.2 126.6 209.72 128.43 208.59 128.7 207.94 128.5 207.17 128.84 206.14 129.08 205.92 129.18 206.28 129.42 205.94 129.66 204.89 130.31 203.83 130.45 203.18 130.45 201.76 130.31 201.21 130.14 201.18 129.71 201.64 128.98 201.62 128.12 201.04 127.62 200.08 127.66 199.6 128.48 197.96 128.53 197.29 128.14 196.81 126.41 195.46 125.02 194.93 123.62 193.85 123.29 193.25 123.5 193.03 123.48 192.46 123.06 192.02 123.19 191.65 122.95 190.44 123.12 189.08 123.12 189.08 123.12 189.02 123.25 188.8"/>
    <polygon class="cls-7" points="116.15 282.75 114.92 283.04 114.23 282.97 113.41 282.22 112.45 281.93 112.13 281.57 109.54 280.73 108.82 280.49 108.77 279.72 107.93 279.02 107.06 278.9 106.68 277.8 106.32 277.15 105.5 277.29 104.77 277.02 106.34 283.24 106.57 283.3 107.76 283.07 108.68 283.07 109.57 282.9 109.46 283.12 108.91 283.23 108.02 283.54 106.43 283.6 106.75 284.87 107.11 284.87 108.24 284.48 109.63 284.6 110.59 284.53 111.96 284.67 112.71 285.08 113.48 285.35 114.23 285.16 114.83 284.55 114.97 283.98 115.69 283.76 116.01 284.03 116.85 283.54 116.72 282.97 116.15 282.75"/>
    <polygon class="cls-7" points="104.97 276.33 105.47 276.12 105.84 276.47 105.5 274.84 104.42 273.76 103.91 273.01 103.78 273.07 104.73 276.86 104.97 276.33"/>
    <polygon class="cls-7" points="120.05 283.38 119.14 283.43 118.73 283.68 119.26 284.15 120 283.68 120.67 283.51 121.28 282.95 120.5 282.91 120.05 283.38"/>
    <path class="cls-3" d="m79.06,238.9l.12-.27.84-.17.31-.34-1.39-.02-.17.53s.29.27.29.27Z"/>
    <polygon class="cls-3" points="79.52 258.88 80.09 257.98 80.47 257.83 80.22 257.29 79.45 256.94 79.32 256.75 78.95 257.09 79.3 258.22 79.27 258.73 79.52 258.88"/>
    <polygon class="cls-3" points="79.22 255.85 79 255.2 78.53 255 78.28 254.93 78.3 255.83 78.66 256.11 78.71 256.4 79.1 256.34 79.22 255.85"/>
    <polygon class="cls-3" points="79.45 260.59 79.76 260.97 79.64 261.34 79.99 261.71 80.41 261.4 80.57 260.85 80.17 260.2 79.45 260.59"/>
    <polygon class="cls-3" points="78.19 236.31 78.3 236.63 78.65 236.72 79.17 236.52 79.24 236.24 78.91 235.88 78.42 235.86 78.19 236.31"/>
    <polygon class="cls-3" points="80.54 237.92 81.02 237.96 80.83 237.22 80.54 237.92"/>
    <polygon class="cls-3" points="80.16 242.7 79.9 242.17 79.32 242.05 79.13 241.76 78.86 242.15 79.49 242.84 80.16 242.7"/>
    <polygon class="cls-3" points="81.17 265.47 81.51 265.22 81.94 264.91 81.17 264.91 81.17 265.47"/>
    <polygon class="cls-3" points="79.35 235.86 79.47 235.51 79.18 235.3 79.05 235.48 79.35 235.86"/>
    <polygon class="cls-3" points="84.71 265.82 84.14 264.9 83.72 264.88 83.28 264.52 83 264.53 82.96 264.77 83.52 265.57 84.12 265.8 84.94 266.53 84.71 265.82"/>
    <polygon class="cls-3" points="80.45 239.33 79.97 239.38 79.22 239.62 79.54 239.91 80.4 239.89 80.45 239.33"/>
    <polygon class="cls-3" points="81.6 261.98 81.92 261.76 82.08 261.09 82.28 261.67 82.4 262.39 82.76 262.61 83.21 262.24 83.24 261.24 82.88 260.32 83.02 260.08 82.92 258.85 82.54 258.13 82.2 256.67 81.77 256.35 80.83 256.35 80.47 256.67 80.5 257.41 80.88 257.82 80.69 258.4 80.79 258.76 81.07 258.73 81.34 258.35 81.29 258.81 80.81 259.22 80.14 259.34 80.81 260.66 81.02 261.45 81.6 261.98"/>
    <polygon class="cls-3" points="83.26 265.82 82.94 265.9 83.11 266.75 83.82 267.61 84.39 267.63 84.65 267.2 83.98 266.2 83.26 265.82"/>
    <polygon class="cls-3" points="80.52 242.37 80.88 241.93 80.21 241.96 80.52 242.37"/>
    <polygon class="cls-3" points="78.31 242.7 78.67 242.72 78.57 242.15 78.28 242.17 78.31 242.7"/>
    <polygon class="cls-3" points="79.25 237.58 78.91 236.93 78.24 236.91 78.38 237.32 78.33 237.84 78.74 237.68 79.25 237.58"/>
    <polygon class="cls-3" points="76.72 233.78 77.07 234.12 77.91 233.81 77.48 233.49 76.98 233.49 76.72 233.78"/>
    <polygon class="cls-3" points="78.8 234.25 79.17 234.61 79.83 234.19 78.95 233.99 78.8 234.25"/>
    <polygon class="cls-3" points="76.12 238.59 76.96 238.95 77.18 238.54 76.82 238.16 76.19 238.16 76.12 238.59"/>
    <polygon class="cls-3" points="77.33 237.83 77.58 238.09 78 237.77 77.65 237.43 77.33 237.83"/>
    <polygon class="cls-3" points="79.99 234.69 80.42 235.05 80.47 235.45 80.91 235.21 80.82 234.54 80.33 234.4 79.99 234.69"/>
    <polygon class="cls-3" points="80.33 237.6 80.33 236.74 79.68 236.98 80.33 237.6"/>
    <polygon class="cls-3" points="79.9 241.11 79.34 241.16 79.87 241.74 79.9 241.11"/>
    <polygon class="cls-3" points="80.79 255.83 81.43 255.76 82.13 255.83 81.8 254.72 81.27 254.24 81.22 253.52 80.59 253.25 80.52 252.19 79.99 252.51 79.42 252.58 79.15 252.96 79.78 253.49 80.57 254.7 80.71 254.45 81.02 254.72 80.62 255.08 80.79 255.83"/>
    <polygon class="cls-3" points="78.39 253.18 78.18 253.41 78.16 253.8 78.31 254.59 78.99 254.72 79.41 255.06 79.34 255.32 79.6 256.3 80.13 256.62 80.35 256.27 80.39 255.54 79.81 254.68 78.94 253.33 78.39 253.18"/>
    <polygon class="cls-3" points="82.66 266.04 82.66 265.47 82.47 265.11 82.3 265.59 82.49 266.28 82.66 266.04"/>
    <path class="cls-3" d="m88.08,279.15l-.29.23.71.21s-.45-.41-.42-.43Z"/>
    <polygon class="cls-3" points="86.75 270.69 86.39 269.9 86.11 269.91 86.12 270.91 86.49 271.33 87.29 271.71 87.49 271.68 87.31 271.31 86.75 270.69"/>
    <polygon class="cls-3" points="95.22 281.01 95 280.51 94.53 280.32 93.84 280.53 93.68 280.16 93.27 279.98 92.35 279.32 91.64 279.35 91.04 279.6 90.72 279.44 90.38 279.11 89.86 279.16 89.66 279.43 89.71 279.78 90.33 280.11 90.57 280.7 91.19 280.85 91.85 281.63 92.35 281.72 93.08 281.57 93.43 281.79 93.5 282.24 93.91 282.66 94.38 282.46 94.2 282.14 94.71 281.66 94.67 281.32 94.41 281.12 94.73 280.97 95.22 281.01"/>
    <polygon class="cls-3" points="87.46 272.67 87.33 272.15 86.88 272.04 86.67 272.2 87.18 272.71 87.46 272.67"/>
    <polygon class="cls-3" points="92.51 282.05 92.68 282.17 92.96 282.37 93.21 282.14 92.86 281.8 92.51 282.05"/>
    <polygon class="cls-3" points="90.84 279.11 91.49 279.11 91.6 278.91 91.42 278.65 91.14 278.62 90.49 278.15 90.2 277.83 89.43 277.83 88.9 277.54 88.34 277.33 87.78 277.3 87.33 277.03 86.63 276.21 86.24 275.95 86.06 276.26 86.21 276.91 86.64 277.71 87.33 277.81 88.25 278.21 88.58 278.69 89.08 278.69 89.35 278.53 90.24 278.87 90.84 279.11"/>
    <polygon class="cls-3" points="85.19 272.45 85.22 273.1 84.98 273.36 85.07 273.58 85.39 273.42 85.69 272.67 85.52 272.34 85.19 272.45"/>
    <polygon class="cls-3" points="86.47 271.92 86.32 271.55 85.65 271.2 85.78 271.59 86.29 271.95 86.47 271.92"/>
    <polygon class="cls-3" points="86.53 272.79 86.77 273.2 87.5 273.99 87.76 273.89 87.78 273.4 86.71 272.56 86.53 272.79"/>
    <polygon class="cls-3" points="87.12 274.36 86.61 274.55 86.87 274.76 87.5 274.72 87.61 275.07 87.95 275.36 88.24 275.52 88.58 274.97 88.37 274.33 87.58 274.46 87.12 274.36"/>
    <path class="cls-3" d="m110.38,289.69l.29.21.46-.46h-.33s-.41.29-.42.25Z"/>
    <polygon class="cls-3" points="95.18 282.26 94.79 282.7 94.8 283.14 95.24 283 95.55 282.5 95.68 282.31 95.37 282.18 95.18 282.26"/>
    <polygon class="cls-3" points="111.42 288.14 111.6 288.5 111.23 288.98 111.54 289.33 111.93 289.35 111.95 288.8 111.86 288.29 111.42 288.14"/>
    <polygon class="cls-3" points="106.05 283.62 105.43 283.21 104.27 282.77 102.59 282.27 101.82 282 101.77 282.27 101.99 282.56 101.73 282.77 101.45 282.66 100.32 282.19 99.7 281.86 99.55 282.02 99.8 282.33 101.25 283.02 101.33 283.27 100.91 283.27 100.78 283.33 100.75 283.61 100.5 283.66 100.31 283.27 99.62 282.85 99.4 283.03 99.46 283.46 99.07 283.54 97.96 283.62 97.72 283.77 97.96 284.01 97.86 284.19 97.32 284.08 96.68 284.25 96.79 284.63 97.53 284.76 98.12 284.73 98.3 284.42 98.48 284.29 98.87 284.47 99.51 284.89 99.84 284.75 100.03 284.99 100.03 285.36 100.44 285.61 99.96 285.85 99.67 286.45 100.05 286.88 100.47 286.87 100.87 287.02 101.42 287.58 101.81 287.58 101.89 287.36 101.49 287.07 100.84 286.68 100.75 286.34 100.92 286.3 101.4 286.52 101.79 286.24 101.88 285.95 101.44 285.85 101.08 285.61 102.49 285.06 103.07 284.77 105.72 285.44 106.05 285.23 105.98 284.87 106.75 284.87 106.43 283.6 106.05 283.62"/>
    <polygon class="cls-3" points="99.86 279.24 99.73 278.55 99.33 278.3 99.24 278.97 99.01 279.6 99.31 280.16 99.08 280.56 99.08 281.05 99.67 281.39 100.31 281.56 100.53 281.78 100.78 281.48 100.05 280.94 100.49 280.5 100.2 280.12 100.27 279.88 99.86 279.24"/>
    <polygon class="cls-3" points="85.49 271.64 85.48 271.05 85.14 270.72 84.87 270.42 84.66 270.55 84.53 270.88 84.65 271.38 84.77 271.56 84.83 271.84 85.11 271.91 85.49 271.64"/>
    <polygon class="cls-3" points="110.93 286.81 111.44 286.48 111.77 286.14 111.44 285.81 111.31 285.23 110.69 285.06 109.73 285.08 108.91 285.16 107.88 285.06 107.01 285.44 105.4 285.81 104.63 285.68 104.3 285.76 103.77 285.76 103.29 286 103.65 286.33 104.05 286.14 104.59 286.4 103.62 286.76 103.09 287.03 103.07 287.32 103.6 287.7 104.08 287.29 103.86 287.8 104.32 287.97 104.49 288.3 104.92 288.11 105.69 288.47 105.98 288.45 106.05 287.94 105.55 287.66 105.62 287.34 106.32 287.27 106.53 287.87 107.01 288.21 107.52 287.94 108 288.06 108.74 288.74 109.01 288.78 109.01 288.19 108.31 287.58 107.76 287.37 107.97 287.12 107.68 286.89 106.89 286.71 106.73 286.79 106.1 286.31 106.89 286.19 107.28 286.19 107.78 285.66 108.29 285.68 108.58 286.31 108.86 286.71 109.63 286.67 110.26 286.24 110.62 286.4 110.93 286.81"/>
    <polygon class="cls-3" points="98.3 286.43 98.73 286.83 99.11 286.41 98.84 286.18 98.3 286.43"/>
    <polygon class="cls-3" points="97.39 282.66 97.67 282.39 97.89 282.72 98.43 282.87 98.82 282.58 98.66 282.2 98.91 281.7 98.64 281.52 98.32 281.59 98.03 281.88 97.74 281.45 96.57 281.14 96.34 281.34 95.44 281.43 95.45 281.75 95.83 281.97 96.13 282.5 96.41 282.21 97.01 282.3 97.39 282.66"/>
    <polygon class="cls-3" points="98.92 285.43 98.46 285.2 98.3 285.6 98.51 285.82 98.89 285.81 98.92 285.43"/>
    <polygon class="cls-3" points="77.2 227.35 77.05 227.86 77.22 228.27 77.41 228.45 77.69 229.28 77.82 231.32 77.48 232.05 78.26 232.38 79.36 232.27 79.37 231.98 79.3 231.29 79.58 230.81 80.24 231.03 80.38 230.9 79.66 230.22 79.94 229.94 79.2 229.19 79.15 228.81 79.54 228.78 80.18 229.14 80.21 228.99 79.96 228.68 79.17 228.11 79.91 228.33 79.92 227.68 79.77 227.43 79.81 226.53 79.23 225.7 78.62 225.43 77.88 225.41 77.41 225.86 77.39 226.22 77.62 226.54 77.57 227.06 77.2 227.35"/>
    <polygon class="cls-3" points="83.65 270.21 83.78 270.47 83.95 270.61 83.67 270.86 83.49 271.19 83.68 271.69 84 271.91 84.4 271.98 84.06 271.46 84.4 271.21 84.42 270.58 84.18 270.15 83.65 270.21"/>
    <polygon class="cls-3" points="81.1 240.03 80.38 240.03 79.8 240.37 80.16 240.66 80.38 241.38 80.81 241.6 81.17 241.09 81.1 240.03"/>
    <polygon class="cls-3" points="81.41 236.11 81.58 236.45 82.25 236.4 81.67 235.94 81.41 236.11"/>
    <polygon class="cls-3" points="81.63 238.42 81.67 239.17 82.15 238.66 82.49 238.73 82.81 238.9 83.24 238.81 83.43 238.35 83.79 237.82 83.26 237.24 83.12 236.76 82.49 236.64 81.82 236.91 81.51 237.89 81.63 238.42"/>
    <polygon class="cls-3" points="80.62 227.51 81.19 227.99 81.43 227.63 81.1 227.29 80.62 227.51"/>
    <polygon class="cls-3" points="81.93 234.1 81.34 234.49 81.56 234.9 81.93 234.54 81.93 234.1"/>
    <polygon class="cls-3" points="84.26 269.13 84.34 268.92 84.85 268.9 84.88 268.53 83.94 267.91 83.52 267.94 83.06 267.52 82.64 267.63 82.98 268.18 82.65 268.86 82.36 269.15 82.66 269.37 83.59 269.19 84.26 269.13"/>
    <polygon class="cls-3" points="102.07 271.02 101.84 270.74 97.53 270.74 95.13 271.15 94.58 270.84 92.96 270.72 92.44 269.32 92.1 268.15 91.38 267.49 91.16 265.57 91.16 264.68 90.46 264.71 89.4 265.23 88.82 265.88 88.14 265.87 86.67 262.94 86.47 261.87 86.91 258.89 87.6 257.88 88.76 256.68 89.09 254.97 88.76 253.22 88.32 251.92 88.59 250.4 89.26 249.63 88.6 248.05 88.7 247.28 89.31 246.67 88.92 245.24 88.67 243.4 88.23 242.52 88.29 241.86 89.15 241.12 89.13 240.36 88.44 239.13 87.33 238.35 86.63 238.35 86.42 238.55 86.01 238.15 86.25 237.58 87.75 237.59 88.49 236.74 88.44 235.93 87.99 235.75 87.49 236.1 86.86 235.98 86.55 234.44 85.92 233.09 85.87 232.13 85.95 231 84.89 230.64 84.57 229.66 84.43 227.11 85.15 226.63 85.37 225.76 85.01 225.09 84.38 224.77 84.09 223.21 83.97 221.02 84.19 218.53 83.57 217.49 83.42 216.34 84.65 214.7 84.84 212.87 85.73 212.44 86.21 211.87 84.21 207.95 84.45 206.65 84.45 205.69 84.43 203.38 85.13 201.98 85.92 201.16 85.75 199.96 85.08 198.83 84.62 198.45 85.39 197.32 85.2 196 85.75 194.65 86.4 194.44 86.57 192.85 86.28 190.27 85.8 189.82 85.39 187.87 84.86 186.86 84.09 185.63 83.97 185.01 83.37 184.19 83.03 182.56 83.2 181.28 84.14 180.85 84.17 179.2 84.69 178.52 84.74 177.05 84.14 175.95 84.04 173.86 84.5 173.4 84.74 170.92 85.37 170.08 86.26 167.84 87.12 166.95 87.77 166.62 88.28 166.02 87.96 165.68 87.92 164.74 87.67 164.26 87.27 163.93 87.41 163.28 88.01 162.82 88.01 161.98 87.29 161.07 87.1 159.94 87.51 159.21 87.34 158.62 86.64 158.04 86.91 157.17 90.9 155.05 91.76 151.28 91.32 150.38 90.79 150.47 90.55 150.91 89.64 150.91 87.18 144.3 85.54 142.77 85.06 142.09 85.88 140.31 85.64 139.64 86.03 138.67 85.9 138.16 84.38 136.93 83.85 136.18 83.68 135.05 83.57 134.7 83.71 134.04 83.61 133.42 83.25 133.08 82.58 132.48 82.51 131.64 82.35 131.6 81.88 131.5 81.55 132.05 81.33 132.62 81.93 133.2 81.69 133.75 81.04 134.16 80.61 134.07 79.89 134.55 79.05 134.95 79.34 135.22 79.41 136.16 79.33 136.86 79.48 137.8 80.02 140.29 80.02 141.23 79.82 141.9 79.46 142.29 79.73 143.56 80.14 144.81 80.57 145.86 80.57 147.6 80.38 148.08 80.23 148.39 80.35 150.75 80.35 151.32 79.87 151.61 79.42 151.93 79.49 153.25 79.7 153.58 80.14 153.27 80.4 153.51 79.99 153.9 80.02 157.38 80.5 158.71 80.59 159.74 80.47 160.6 79.92 161.5 79.92 162.36 80.54 163.49 80.4 164.19 80.33 165.87 79.97 166.49 79.97 167.41 80.14 167.89 80.14 168.3 79.58 169.14 79.54 170.01 79.2 170.56 79.39 171.61 79.27 172.07 78.72 173.32 78.72 173.85 79.32 174.79 79.44 175.75 79.82 176.35 79.34 176.69 79.06 177.43 79.51 178.01 79.03 178.58 78.57 178.78 78.55 179.65 78.69 180.39 78.77 181.09 79.54 183.08 79.54 184.19 79.22 184.55 79.29 185.15 79.99 186.16 80.04 187.34 79.82 188.15 79.85 188.49 80.02 189.07 79.92 189.57 79.75 190.15 79.94 190.48 80.69 191.52 80.79 192.1 80.42 192.67 79.92 192.99 79.46 193.92 79.46 194.21 79.73 194.52 79.49 195.32 79.1 195.75 79.1 196.3 79.01 197.31 78.72 197.87 78.77 198.47 78.6 198.75 78.52 199.57 78.14 199.98 78.19 200.34 78.43 200.73 78.02 201.33 78 202.24 77.92 202.8 77.47 203.11 77.47 203.73 77.25 204.14 77.21 204.62 77.42 205.17 77.44 205.85 77.06 206.4 76.67 206.45 76.27 206.14 75.78 206.25 75.71 206.66 75.83 207.38 75.86 208.4 76.31 209.07 77.04 209.67 77.13 210.37 77.01 211.26 78.04 213.01 78.21 213.49 78.62 213.88 78.62 215 78.33 216.47 78.07 216.69 78.19 217.15 78.07 217.58 77.83 217.43 77.47 217.48 77.25 218.08 77.42 218.71 77.85 219.07 77.49 220.44 77.61 221.04 77.3 221.42 77.66 221.74 77.52 222.19 77.37 222.41 77.59 222.75 78.62 224.36 78.93 224.67 79.17 225.18 80.14 225.58 81.07 225.34 81.12 224.4 81.27 224.21 81.87 224.24 82.37 224.84 82.59 224.69 83.02 224.62 82.69 225.13 81.96 225.78 81.96 226.21 82.52 226.45 82.9 226.21 82.97 226.71 83.04 227.87 83.36 228.25 83.19 228.42 82.88 228.08 82.64 227.53 82.25 227.36 82.06 227.7 82.11 228.03 82.73 228.49 82.85 228.83 82.42 228.97 82.13 229.21 82.18 230.03 82.73 230.56 82.23 231.14 82.18 231.6 82.42 231.78 81.84 232.41 81.94 232.75 82.66 233.2 82.47 233.76 82.35 234.57 81.94 235.08 81.92 235.49 82.25 235.82 82.9 235.85 83.31 236.25 83.38 236.76 83.96 236.86 84.22 237.27 84.15 238.32 83.67 239.04 82.81 239.57 82.42 239.57 82.35 240.22 82.61 240.94 82.37 241.26 82.4 241.67 82.66 241.83 82.18 242.41 81.82 243.45 81.8 244.19 82.15 244.36 81.99 244.75 81.94 245.99 81.48 246.23 81.36 246.88 81.12 246.5 81.36 246.19 81.56 245.13 81.46 244.57 81.58 244.24 81.29 244.14 80.42 244.43 79.8 244.86 79.44 244.81 79.46 244.53 80.06 244.31 80.45 244.02 80.45 243.11 80.21 242.94 79.54 243.18 78.36 243.23 77.97 243.11 77.52 243.23 77.49 243.61 77.83 244.31 78.07 244.34 78.21 244.86 77.8 244.94 77.59 245.56 77.13 245.9 76.89 246.45 76.03 246.93 75.98 247.44 76.89 248.45 77.4 248.52 77.71 248.18 77.66 247.77 77.06 247.6 76.99 247.27 77.3 246.65 78.14 246.57 78.31 246.35 78.45 247.12 79.08 247.53 79.82 247.51 80.14 247.17 80.54 247.34 80.79 247.72 81.65 248.16 81.99 248.54 81.63 248.61 81.46 248.95 81.75 249.34 81.36 249.62 81.07 250.08 81.34 250.46 81.94 250.85 81.84 251.04 81.24 250.78 81.02 250.46 80.67 250.51 80.62 251.04 81.12 251.5 81.34 251.95 82.23 252.1 83.12 251.64 83.48 252.01 83.82 251.98 84.37 251.74 84.13 252.17 84.25 252.41 84.03 252.56 83.43 252.58 83.26 252.82 82.81 252.46 81.8 252.73 81.56 253.2 81.67 253.54 82.32 253.95 82.44 254.5 83.02 254.65 83.5 254.38 83.43 254.74 82.92 255.22 82.95 255.56 83.04 255.85 82.85 256.24 82.49 256.26 82.44 256.69 82.83 258.3 83.19 258.76 83.16 259.5 83.55 260.15 84.08 260.37 84.08 259.26 84.42 258.01 84.87 257.7 85.04 257.99 84.73 258.01 84.34 259.41 84.39 259.77 84.9 260.11 85.33 260.08 85.16 260.25 84.39 260.42 83.82 260.95 83.91 261.28 83.77 261.88 83.77 262.46 83.43 262.7 83.16 263.28 83.21 263.71 84.13 264.38 85.4 264.65 85.91 265.03 85.81 265.35 85.52 265.37 85.71 265.99 85.95 266.33 86.48 265.73 86.46 266.24 86.32 266.65 85.78 266.83 85.4 267.36 85.74 267.58 86.22 267.58 86.22 267.99 86.72 268.59 87.04 268.57 87.41 268.19 87.35 268.84 87.54 269.46 87.23 269.45 86.94 269.23 86.63 269.28 86.48 269.67 87.08 270.4 87.3 270.47 87.52 271.16 87.81 271.55 88.38 272.08 88.84 272 88.53 271.12 88.67 270.73 88.5 270.22 89.05 270.61 89.15 271.14 89.54 271.67 89.78 271.02 90.19 270.61 90.16 270.17 89.73 270.03 88.94 269.91 88.94 269.65 89.44 269.65 90.5 269.96 90.66 270.2 91.34 270.22 91.17 269.67 90.52 269.34 89.34 269.27 89.29 268.98 89.66 268.83 90.69 269.22 91.75 269.82 91.92 270.61 91.48 271.09 91.46 271.6 91.89 272.48 91.84 272.97 91.36 273.33 91.6 272.56 91.15 271.47 90.69 271.09 90.42 271.5 90.38 272.03 90.66 272.44 90.4 272.94 90.19 272.68 90.04 272.12 89.68 272.12 89.18 272.48 88.43 272.48 87.81 272.73 88.38 273.16 88.43 273.95 88.71 274.46 88.82 274.85 88.61 275.21 88.72 275.42 89.17 275.51 89.42 275 89.72 275.19 90.23 275.36 90.23 275.56 89.76 275.73 89.29 276.15 89.42 276.49 90.21 276.57 91.13 277.08 91.45 276.95 91.73 276.54 91.47 275.87 91.64 275.36 91.44 274.84 91.19 274.99 90.71 274.91 90.88 274.73 91.25 274.47 91.24 274.08 91.53 273.92 92.26 274.18 92.59 273.98 92.71 274.32 93.04 274.47 93.2 274.14 93.85 273.99 94.43 274.18 95.08 274.11 95.65 274.15 95.71 274.39 95.35 274.56 95.06 274.99 94.67 274.89 94.26 274.56 93.83 274.68 92.79 275.6 92.55 275.64 92.25 275.58 91.85 276.01 91.95 276.41 91.73 276.85 91.55 277.1 91.58 277.35 91.85 277.53 91.61 277.83 91.61 278.1 92.59 278.43 93.29 279.04 93.5 279.05 93.63 278.75 93.49 278.24 93.87 277.77 94.31 277.66 94.37 277.4 93.85 276.82 94.73 276.64 95.27 276.16 95.84 275.33 96.25 275.07 96.36 275.24 96.81 275.5 97.19 275.48 97.27 275.65 96.81 275.84 96.49 276.39 96.38 276.78 95.8 277.35 95.8 278.04 95.99 278.48 95.66 278.87 95.13 279.1 95.15 278.82 95.43 278.62 95.44 277.8 95.22 277.66 94.91 277.89 94.81 278.33 94.57 278.24 94.2 278.28 93.95 278.59 94.29 279.15 95.36 280.19 96.31 280.34 96.94 280.69 97.34 280.67 97.78 280.9 98.08 280.58 98.48 279.83 98.14 278.82 98.23 278.33 98.19 277.89 98.3 277.01 98.36 276.02 98.19 275.35 98.29 274.89 99.11 274.41 99.87 273.5 100.33 273.3 101 273.3 101.27 273.04 101.2 272.2 101.58 271.84 102.32 271.64 103.19 272.15 103.6 271.91 103.71 271.96 102.8 271.13 102.07 271.02"/>
    <polygon class="cls-3" points="104.68 276.98 104.73 276.86 103.78 273.07 102.88 273.45 102.59 273.69 102.09 273.21 101.6 273.09 101.34 273.59 101.48 274.12 101.39 274.55 100.81 275.11 100.64 275.39 99.97 275.01 99.56 274.89 99.15 275.47 99.56 275.78 100.07 275.71 99.97 276.19 99.42 276.74 99.61 277.15 99.66 277.92 100.31 278.73 100.79 278.71 101.27 278.16 102.23 277.63 102.95 277.65 103.14 278.21 102.69 278.98 102.04 279.17 101.92 279.51 100.88 280.01 100.88 280.3 100.98 280.6 101.58 281.2 102.31 281.65 102.86 281.59 103.99 281.99 105.58 283.06 106.34 283.24 104.77 277.02 104.68 276.98"/>
    <polygon class="cls-3" points="82.48 263.08 81.74 262.97 81.42 262.82 81.27 262.96 81.24 263.35 80.99 263.69 81.39 263.99 81.57 264.49 81.86 264.5 82.23 264.2 82.2 263.64 82.48 263.08"/>
    <polygon class="cls-5" points="109.44 22.87 108.65 23.92 108.77 24.57 109.32 24.84 109.66 23.92 109.44 22.87"/>
    <polygon class="cls-3" points="113.65 26.06 114.08 26.65 114.91 26.63 114.89 26 114.28 25.42 113.65 26.06"/>
    <line class="cls-8" x1="107.93" y1="28.2" x2="107.93" y2="28.2"/>
    <polygon class="cls-7" points="108.51 25.22 108.29 26.95 108.8 25.97 108.51 25.22"/>
    <polygon class="cls-7" points="106.7 29.45 106.46 30.24 107.26 30.27 107.66 29.72 107.4 29.31 106.7 29.45"/>
    <path class="cls-7" d="m108.27,28.83l-.33-.62c0,.06-.17.62-.17.62h.51Z"/>
    <polygon class="cls-4" points="109.31 33.88 108.09 34.41 107.49 34.16 106.74 34.37 106.54 34.77 107.18 35.33 107.22 35.94 106.57 36.51 105.89 36.77 106.65 37.07 108.29 36.81 108.97 36.23 108.95 35.5 108.6 34.9 109.36 34.14 109.31 33.88"/>
    <polygon class="cls-4" points="110.34 33.03 109.65 33.34 110.22 33.58 110.34 33.03"/>
  </g>
  <rect class="cls-9" x="-1467.1" y="-590.67" width="6562.35" height="1176.7"/>
</svg>