<?xml version="1.0" encoding="UTF-8"?><svg id="Calque_1" xmlns="http://www.w3.org/2000/svg" viewBox="0 0 128 128"><defs><style>.cls-1{fill:#87f3b9;}.cls-1,.cls-2,.cls-3,.cls-4{stroke-linecap:round;stroke-linejoin:round;}.cls-1,.cls-3,.cls-4{stroke:#000;}.cls-2{fill:none;stroke:#e30613;stroke-width:8px;}.cls-5,.cls-4{fill:#d6d6d6;}.cls-3{fill:#8987f3;}</style></defs><rect class="cls-2" x="-52.39" y="-462.51" width="2655.08" height="1511.77"/><path class="cls-4" d="m77.94,50.21s.51-1.38,2.38-.89c2.87.76,8.39,9.73,9.55,13.16,1.16,3.43-3.2,4.55-3.2,4.55l-8.73-16.82Z"/><path class="cls-3" d="m88.66,82.5c-3.08,12.31-15.85,14.62-19.08,11.85-1.33-1.14.9-5.04,2.17-11.16,14.9-21.55-8.61-32.88-9.17-33.14h0c-1.26-1.62-2.66-3.27-4.23-4.95-1.75-1.87,1.36-4.82,4.72-3.95,30.6,7.88,26.63,37.22,25.6,41.35Z"/><path class="cls-5" d="m41.99,89.22c-.24,0-.48-.18-.52-.42-.02-.09,0-.18.03-.26.02-.33.02-.67.02-1.01,0-.21.13-.41.33-.48.14-.05.22-.13.38-.29.09-.09.18-.19.29-.28,1.34-1.17,1.85-3.19,1.31-5.14-.68-2.46-2.67-4.39-4.32-5.79-.42-.36-.86-.71-1.29-1.07l-.22-.18c-1.58-1.29-3.22-2.62-4.54-4.27-1.53-1.92-2.68-4.07-3.41-6.41-.74-2.34-1.03-4.8-.84-7.12.2-2.51.92-4.83,2.13-6.92,1.2-2.07,2.88-3.91,5-5.48,1.94-1.44,4.16-2.56,6.61-3.32,2.49-.77,5.24-1.16,8.19-1.16h.51c2.75.05,5.64.42,8.81,1.14.22.05.38.24.39.46.01.22-.13.43-.34.5-.53.17-1.02.45-1.39.79-.09.08-.21.13-.33.13-.03,0-.07,0-.1,0-.21-.04-.42-.08-.63-.12-2.4-.45-4.72-.68-6.89-.68-.58,0-1.17.02-1.75.05-2.76.16-5.33.73-7.65,1.68-2.12.88-4.08,2.13-5.68,3.62-1.7,1.59-2.99,3.46-3.74,5.41-.78,2.02-1.08,4.12-.93,6.42.14,2.11.74,4.35,1.68,6.29,1,2.07,2.33,3.84,4.08,5.42.45.41.91.79,1.38,1.18l.88.72c1.38,1.11,2.81,2.27,4.01,3.66,1.44,1.67,3.09,4.27,2.8,7.23-.26,2.65-1.75,4.78-3.91,5.61-.09.07-.21.11-.33.11Z"/><path d="m51.11,40.11c.17,0,.34,0,.51,0,2.93.04,5.85.47,8.7,1.12-.61.2-1.15.52-1.57.89-.21-.04-.43-.09-.64-.13-2.3-.43-4.64-.69-6.98-.69-.6,0-1.19.02-1.79.05-2.67.15-5.33.7-7.81,1.72-2.1.87-4.16,2.15-5.83,3.72-1.67,1.57-3.06,3.5-3.86,5.6-.83,2.15-1.11,4.34-.96,6.64.15,2.19.77,4.49,1.73,6.48,1.04,2.15,2.43,3.97,4.2,5.57.45.41.92.8,1.4,1.19,1.67,1.37,3.41,2.67,4.83,4.31,1.62,1.88,2.93,4.3,2.68,6.85-.22,2.27-1.5,4.46-3.73,5.24.02-.39.03-.78.03-1.17.38-.14.52-.41.82-.67,1.59-1.39,2.01-3.68,1.47-5.65-.68-2.47-2.56-4.41-4.48-6.04-.43-.36-.86-.72-1.3-1.07-1.67-1.35-3.35-2.69-4.69-4.38-1.48-1.86-2.61-3.98-3.33-6.25-.7-2.23-1.01-4.6-.82-6.93.19-2.36.87-4.65,2.06-6.7,1.22-2.1,2.92-3.89,4.86-5.33,1.94-1.44,4.15-2.52,6.46-3.24,2.59-.8,5.32-1.14,8.03-1.14m-9.12,48.58c.05.02.02.03,0,.03-.03,0-.05,0,0-.03m9.12-49.58c-2.99,0-5.8.4-8.33,1.19-2.5.78-4.77,1.92-6.76,3.39-2.17,1.61-3.9,3.51-5.13,5.63-1.25,2.15-1.98,4.54-2.19,7.13-.19,2.39.1,4.92.86,7.31.76,2.4,1.93,4.61,3.5,6.57,1.35,1.69,3,3.03,4.6,4.33l.24.2c.43.35.86.7,1.28,1.06,1.6,1.36,3.52,3.22,4.16,5.55.49,1.77.03,3.58-1.16,4.63-.12.11-.22.21-.32.31-.12.13-.15.16-.18.17-.4.15-.67.53-.66.96,0,.3,0,.6-.01.9-.04.14-.06.29-.03.44.08.48.53.84,1.01.84.2,0,.4-.06.56-.17,2.31-.91,3.9-3.19,4.17-6.01.3-3.13-1.42-5.86-2.92-7.6-1.23-1.43-2.68-2.59-4.08-3.72-.29-.24-.58-.47-.88-.71-.56-.46-.98-.82-1.36-1.16-1.7-1.54-3-3.26-3.97-5.27-.91-1.89-1.49-4.06-1.63-6.11-.15-2.23.14-4.26.89-6.21.72-1.88,1.97-3.69,3.62-5.23,1.53-1.43,3.49-2.69,5.53-3.53,2.27-.94,4.79-1.49,7.48-1.65.57-.03,1.15-.05,1.73-.05,2.14,0,4.43.23,6.8.67.21.04.42.08.63.12.07.01.13.02.2.02.25,0,.48-.09.67-.26.33-.29.75-.53,1.21-.68.43-.14.71-.55.69-1-.02-.45-.34-.83-.78-.93-3.21-.73-6.12-1.11-8.91-1.15-.17,0-.35,0-.53,0h0Z"/><circle class="cls-3" cx="38.84" cy="89.08" r="5.87"/><path class="cls-1" d="m79.62,30.2v-4.49c11.87-.36,21.31,9.58,20.87,20.84h-4.47c-.8-10.16-6.27-15.58-16.4-16.36Z"/><path class="cls-1" d="m79.66,39.62v-4.61c7.18-.27,11.8,4.21,11.54,11.54h-4.61c.14-4.71-2.17-7.06-6.94-6.93Z"/><path class="cls-5" d="m71.75,83.69c-.07,0-.13-.01-.2-.04-.22-.09-.34-.33-.29-.56,2.33-11.21-.64-21.91-9.08-32.73-.14-.18-.14-.44,0-.62.1-.12.24-.19.39-.19.07,0,.14.01.21.05.11.05,11.05,5.22,13.78,15.25,1.59,5.83.1,12.1-4.41,18.63-.1.14-.25.22-.41.22Z"/><path d="m62.58,50.05c.56.26,24.07,11.59,9.17,33.14,1.62-7.8,1.69-19.21-9.17-33.14m0-1c-.3,0-.59.13-.78.38-.29.36-.29.87,0,1.24,8.34,10.69,11.28,21.27,8.98,32.32-.1.47.15.94.58,1.12.13.05.26.08.39.08.32,0,.63-.15.82-.43,4.6-6.66,6.11-13.07,4.48-19.05-2.79-10.24-13.94-15.52-14.06-15.57-.14-.06-.28-.09-.42-.09h0Z"/></svg>