<?xml version="1.0" encoding="UTF-8"?>
<svg id="Calque_1" data-name="Calque 1" xmlns="http://www.w3.org/2000/svg" viewBox="0 0 200.13 128.13">
  <defs>
    <style>
      .cls-1 {
        fill: #ff6d75;
      }

      .cls-2 {
        fill: #d6d6d6;
      }

      .cls-2, .cls-3, .cls-4 {
        stroke-width: 2px;
      }

      .cls-2, .cls-3, .cls-4, .cls-5 {
        stroke: #000;
      }

      .cls-2, .cls-5 {
        stroke-miterlimit: 10;
      }

      .cls-3, .cls-4, .cls-6 {
        stroke-linecap: round;
        stroke-linejoin: round;
      }

      .cls-3, .cls-6, .cls-5 {
        fill: none;
      }

      .cls-4 {
        fill: #fab0b4;
      }

      .cls-6 {
        stroke: #fff;
        stroke-width: 8px;
      }
    </style>
  </defs>
  <g>
    <path class="cls-3" d="m159.3,67.51c-3.5,2.84-5.41,4.8-8.85,5.6l-.06-4.98c1.99-1.85,7.42-5.49,8.89-6.22.06.17-.02,5.34.02,5.6Z"/>
    <path class="cls-3" d="m64.88,74.53c-.26.94-.29,8.57-.66,9.48-2.84-.81-5.34-3.25-8.05-4.25.11-.56-.21-3.53-.56-6.21-.03-.23-.41-3.15-.3-3.36l5.17,2.48s1.95,1.14,4.4,1.87Z"/>
    <g>
      <polygon class="cls-1" points="23.4 44.15 32.65 45.66 33.51 54.91 41.83 63.2 40.16 69.11 31.98 60.66 27.32 53.93 23.4 44.15"/>
      <polygon class="cls-1" points="164.44 42.82 165.84 49.67 163.79 57.31 160.16 60.03 160.41 66.29 166.62 60.46 171.94 50.89 177.06 40.95 164.44 42.82"/>
      <polygon class="cls-1" points="42.82 46.75 45.58 50.89 46.12 47.58 57.14 48.82 59.78 53.44 62 58.82 68.35 51.34 74.83 52.09 78.33 55.95 79.85 60.66 84.34 53.93 98.66 56.28 101.6 63.83 105.9 56.18 117.52 54.52 121.68 59.56 126.57 53.44 132.88 52.53 137.23 57.39 140.14 50.2 149.31 47.51 152.6 50.4 153.9 46.18 137.63 50.89 124.8 53.17 112.16 54.42 99.25 54.91 86.02 53.62 68.31 50.17 48.72 47.08 42.82 46.75"/>
    </g>
    <path class="cls-3" d="m47.59,66.61c-.17.97,1.35,7.47,1.09,8.42-2.14-1.05-2.59-1.4-4.6-2.67,0,0-3.12-2.12-3.3-3.03-.38-1.88.25-3.32.59-5.21.11-.61.35-.7.46-.92l5.76,3.41Z"/>
    <path class="cls-4" d="m182.94,39.85c-.26.05-2.26.45-4.54.87-2.06.36-4.34.73-5.78.86-8.73.78-17.6,3.57-26.21,6.17-.11.03-.17.05-.17.05l-3.45,1.03-.89.26s0,0-.02,0c-1.08.31-2.17.62-3.24.91-2.6.71-5.2,1.38-7.81,1.99h0c-.76.18-1.53.36-2.29.53t-.02,0c-3.65.79-7.31,1.48-11,1.99,0,0-.03,0-.09,0-.09,0-.18.02-.27.03-.06,0-.12.02-.19.03-.21.02-.46.05-.76.09-.1,0-.2.02-.31.04-.16.02-.33.04-.5.06-.13.02-.27.04-.4.05-.44.06-.87.1-1.3.14-.13,0-.27.03-.4.04-1.25.13-3.32.27-4.81.36-1.8.08-3.61.12-5.41.1-1.62-.02-3.27-.1-4.93-.23,0,0-.12,0-.33-.03-.1,0-.19-.02-.29-.03-.07,0-.15-.01-.22-.02-.17-.01-.34-.02-.51-.05-.05,0-.09,0-.14,0-.04,0-.09-.02-.14-.02-.12,0-.24-.02-.36-.04-.66-.05-1.32-.12-1.99-.21-.26-.02-.52-.06-.78-.09-.26-.02-.52-.06-.79-.09-.33-.04-.62-.08-.83-.11-.05,0-.11-.02-.17-.02-.11-.02-.23-.04-.34-.05h0c-.14-.02-.28-.04-.42-.07-.31-.05-.65-.11-1.01-.16-1.26-.17-2.53-.38-3.8-.62-.13,0-.27-.04-.4-.07-.22-.04-.39-.06-.51-.08-.03,0-.05,0-.07,0-.06,0-.09-.02-.09-.02h0c-4.17-.75-8.35-1.61-12.45-2.44-4.08-.83-8.06-1.63-11.87-2.22-1.9-.3-3.76-.57-5.56-.83-.04-.01-.09-.01-.14-.02-.1-.02-.23-.03-.38-.05-.14-.02-.31-.05-.49-.07-.1-.02-.21-.03-.32-.05-.19-.02-.39-.05-.59-.08-.67-.09-1.43-.2-2.19-.3-.2-.02-.39-.05-.58-.08-.58-.08-1.14-.16-1.66-.23-.23-.03-.45-.06-.66-.09-.63-.08-1.14-.15-1.46-.2-.1,0-.18-.02-.24-.03-.05,0-.08,0-.08,0-1.6-.22-3.19-.43-4.77-.65l-.22-.03-6.71-.96-.31-.05c-3.94-.6-7.96-1.28-12.24-2.14l-2.27-.51-.09-.02-.61-.14-.53-.12-.26-.06-.39-.09-.54-.12-.11-.03c1.7-.49,5.09-1.19,6.68-1.56,3.97-.92,7.89-1.98,11.86-2.88,9.19-2.09,18.5-3.63,27.87-4.63,6.92-.74,13.94-1.15,20.88-.31,6.11.75,12.34,4.87,18.32,4.87,6.3,0,12.4-5.58,18.66-6.63,3.09-.51,6.24-.38,9.36-.18,16.84,1.08,33.08,4.4,49.39,8.6,1.54.4,2.52.66,2.69.72Z"/>
    <path class="cls-4" d="m182.9,41.84c-1.02,9.24-7.96,22.12-13.31,29.43-13.25,18.13-31.52,29.26-53.81,32.67-25.74,3.93-58.66.33-75.33-22.14-9.29-12.52-16.09-26.17-23.31-39.95.07,0,.13,0,.2.03l.54.12.39.09.26.06.53.12.61.14s.09.02.09.02c2.95,1.01,4.25,4.59,5.39,7.17,1.52,3.43,3.28,6.56,5.6,9.54,13.34,17.16,34.31,27.86,55.74,30.16,22.87,2.45,46.26-4.12,65.71-16.41,5.92-3.74,11.7-8.16,15.61-14.07,3.81-5.77,5.54-13.15,10.6-18.08,2.28-.42,4.28-.82,4.54-.87.06.51.05,1.17-.04,1.99Z"/>
    <path class="cls-3" d="m17.35,41.87c.85.08,1.65.28,2.42.55l-.09-.02-.61-.14-.53-.12-.26-.06-.39-.09-.54-.12Z"/>
    <path class="cls-3" d="m37.33,59.52c.35.38.71.76,1.07,1.14-1.32-1.1-2.59-2.73-3.41-3.67.78.84,1.56,1.68,2.34,2.53Z"/>
    <path class="cls-3" d="m151.42,66.66h0s-.04.03-.11.07c.04,0,.08-.04.11-.07Z"/>
    <path class="cls-3" d="m61.97,63.67h0c-.03,1.07-.1,2.66-.18,4.24-.12,2.65-.26,5.26-.26,5.26l-3.01-1.46-.62-.3-6.02-2.93-4.68-2.27s-.41-4.17-1.31-9.02c-.91-4.85.39-10.45.39-10.45,0,0,.03,0,.08,0,.06,0,.14.02.24.03.32.05.83.12,1.46.2.21.03.43.06.66.09.52.07,1.08.15,1.66.23.19.03.38.06.58.08.76.1,1.52.21,2.19.3.2.03.4.06.59.08.11.02.22.03.32.05.18.02.35.05.49.07.15.02.28.04.38.05.05,0,.1,0,.14.02,1.31.18,4.17,2.99,5.97,8.75.62,1.96.87,4.49.93,6.96Z"/>
    <path class="cls-3" d="m61.93,67.95c-.13,2.98-.4,5.22-.4,5.22,0,0,.14-2.62.26-5.26.08-1.58.15-3.17.18-4.23.05,1.48.02,2.95-.04,4.27Z"/>
    <path class="cls-3" d="m79.38,67.45c0,.28,0,.58,0,.89,0,.21,0,.43,0,.64v.07c0,.21,0,.42,0,.62-.03,1.34-.07,2.8-.1,4.11-.02.96-.04,1.84-.05,2.51,0,.1,0,.19,0,.28v.09c0,.22,0,.4-.02.55,0,.28,0,.44,0,.44,0,0-1.87-.17-3.9-.4-.15,0-.29-.03-.44-.05-1.47-.16-2.95-.35-3.83-.53-1.14-.23-3.68-1.17-5.83-2.02-.1-.04-.2-.08-.29-.11-1.85-.73-3.35-1.36-3.35-1.36,0,0,.27-2.25.4-5.22.06-1.32.09-2.79.04-4.27h0c.02-.41.03-.73.03-.95,0-1.74,1.29-5.3,3.02-7.72,1.94-2.72,4.64-4.63,7.48-4.01,3.45.75,5.74,4.48,6.66,10.31.18,1.13.23,3.52.22,6.13Z"/>
    <path class="cls-3" d="m61.93,67.95c-.13,2.98-.4,5.22-.4,5.22,0,0,.14-2.62.26-5.26.08-1.58.15-3.17.18-4.23.05,1.48.02,2.95-.04,4.27Z"/>
    <path class="cls-3" d="m79.36,69.05c0,1.66-.05,3.32-.08,4.73-.03.98-.05,1.85-.08,2.5,0-.67.03-1.55.05-2.51.04-1.51.08-3.22.11-4.72Z"/>
    <path class="cls-3" d="m101.16,76.23c-.17,1.86-.33,3.14-.33,3.14,0,0-5.27.37-11.61,0-.3-.02-.61-.04-.9-.06-.32-.03-.63-.05-.94-.09-4.62-.47-8.22-1.58-8.22-1.58,0,0,0-.16,0-.44.01-.15.02-.33.02-.55v-.09c0-.09,0-.18,0-.28.03-.65.05-1.52.08-2.5.03-1.42.07-3.08.08-4.73v-.07c0-.21,0-.43,0-.64,0-.31,0-.61,0-.89.04-3.64,1.47-7.19,2.26-9.72.76-2.42,3.11-4.14,3.31-4.29h0s.03.01.09.02c.02,0,.04,0,.07,0,.12.02.29.04.51.08.13.03.27.06.4.07,1.27.24,2.54.45,3.8.62.36.05.7.11,1.01.16.14.03.28.05.42.07h0c.11,0,.23.03.34.05.06,0,.12,0,.17.02.21.03.5.07.83.11.27.03.53.07.79.09.26.03.52.07.78.09.67.09,1.33.16,1.99.21.12.02.24.03.36.04.09,0,.19.03.28.03.17.03.34.04.51.05.07,0,.15.02.22.02.1,0,.19.02.29.03.21.02.33.03.33.03,0,0,.24.75,1.5,2.57,1.27,1.82,1.76,5.61,1.91,8.36.17,3.11-.13,7.25-.39,10.06Z"/>
    <path class="cls-3" d="m79.36,69.05c0,1.66-.05,3.32-.08,4.73-.03.98-.05,1.85-.08,2.5,0-.67.03-1.55.05-2.51.04-1.51.08-3.22.11-4.72Z"/>
    <path class="cls-3" d="m86.02,53.62c.99.16,2.52.41,3.8.62-1.26-.17-2.53-.38-3.8-.62Z"/>
    <path class="cls-3" d="m93.39,54.74c1,.11,2.19.24,3.13.34-1.03-.08-2.08-.2-3.13-.34Z"/>
    <path class="cls-3" d="m96.51,55.08c.39.04.74.07,1.01.1-.33-.02-.67-.05-1.01-.1Z"/>
    <path class="cls-3" d="m122.07,66.49v10.63s-2.5,1.1-7.4,1.92c-.34.05-.68.1-1.04.16-.47.06-.96.13-1.47.19-2.86.34-9.91-.24-9.91-.24v-14.17s.59-2.88,1.6-5.4c1.13-2.84,2.79-4.09,2.79-4.09,0,0,.78-.04,1.86-.11,1.5-.09,3.57-.23,4.81-.36.13,0,.27-.03.4-.04.43-.04.86-.08,1.3-.14.13,0,.27-.03.4-.05.17-.02.34-.04.5-.06.11-.02.21-.03.31-.04.3-.04.55-.07.76-.09.07,0,.13-.02.19-.03.09,0,.18-.02.27-.03.06,0,.09,0,.09,0,0,0,2.36,1.3,3.12,3.53,1,2.92,1.43,6,1.43,8.44Z"/>
    <path class="cls-3" d="m137.69,73.28s-4.51,1.96-6.52,2.74c-.82.31-2.51.56-4.21.74-2.44.25-4.9.36-4.9.36v-13.19c0-3.69,1.14-6.16,2.49-8.05,1.14-1.59,3.66-3.16,3.97-3.35t.02,0c.76-.17,1.53-.35,2.29-.53h0c.2.1,3.16,1.57,4.47,2.96,1.36,1.43,2.05,4.51,2.24,6.36.2,1.84.15,11.97.15,11.97Z"/>
    <path class="cls-3" d="m130.83,52c-.76.18-1.53.36-2.29.53h0s2.28-.53,2.28-.53Z"/>
    <path class="cls-3" d="m152,53.21c-.05,2.21-.56,13.04-.58,13.45h0s-.04.03-.11.07c-.09.06-.24.15-.43.27-.91.55-2.78,1.69-4.13,2.49-.43.25-.8.47-1.08.63-.09.05-.2.11-.32.18-.12.07-.25.14-.38.2-.21.11-.44.23-.68.36-1.55.8-3.67,1.86-4.6,2.33-.3.14-2.08.7-2.08.7l.24-2.23s-.27-9.27-.24-11.35c.03-2.07.68-5.08,1.75-7.53,1.07-2.45,2.53-3.69,2.53-3.69l.89-.26,3.45-1.03s.06-.02.17-.05c.63-.15,2.88-.63,4.03.44.62.57,1.63,2.39,1.57,5.02Z"/>
    <path class="cls-3" d="m155.71,44.99s-1.27,1.69-2.07,3.32c-.63,1.28-1.55,2.57-1.63,4.9-.08,2.33-.54,12.8-.54,12.8,0,0,5.77-3.31,7.59-4.76s3.94-3.21,4.74-3.95c.8-.73,1.21-5.31,1.21-5.31,0,0,.25-6.01,0-7.39-.25-1.38-.56-1.78-.56-1.78l-8.73,2.17Z"/>
    <path class="cls-3" d="m45.87,65.16s-5.74-3.05-7.42-4.46c-.02-.01-.03-.03-.05-.04-1.32-1.1-2.59-2.73-3.41-3.67-.03-.03-.06-.06-.08-.09-.16-.18-.29-.33-.41-.44-.72-.69-.89-3.25-.89-3.25,0,0-.22-5.62,0-6.91l.23-1.3.43.06.31.05,6.71.96.22.03s1.5,2.14,2.22,3.67c.56,1.2,1.38,2.41,1.45,4.58.07,2.18.69,10.81.69,10.81Z"/>
    <path class="cls-3" d="m101.6,76.25l-1.26,4.43.28,8.61c-4.4.22-8.09.45-12.56.05-.06-.49-.08-6.6-.04-7.33.03-.58.15-1.88.31-2.37.29.02.6.04.9.06,6.33.37,11.61,0,11.61,0,0,0,.16-1.62.33-3.48h.27s.17.02.17.02Z"/>
    <path class="cls-3" d="m79.28,73.78c-.03.98-.05,1.85-.08,2.5,0-.67.03-1.55.05-2.51h.03Z"/>
    <path class="cls-3" d="m87.38,79.49c-.08.98-.23,8.19-.45,9.16-4.03-.35-8.04-.94-12-1.76,0-.48.05-6.76.23-7.54.08-.35.2-1.25.32-1.55,1.99.2,3.83.34,3.83.34,0,0,3.54.95,8.07,1.35Z"/>
    <path class="cls-3" d="m74.83,77.19c-.18,1.09-.42,7.75-.72,8.81-3.31-.81-6.22-1.82-9.38-3.02.08-.45-.15-6.56.02-7.17.12-.42.27-.81.42-1.17,2.16.85,4.7,1.79,5.83,2.02.88.18,2.36.37,3.83.53Z"/>
    <path class="cls-3" d="m61.93,67.95c-.13,2.98-.4,5.22-.4,5.22,0,0,.14-2.62.26-5.26l.14.04Z"/>
    <path class="cls-3" d="m55.31,70.19c-.17.97,1.09,7.95.83,8.9-2.14-1.05-5.25-2.33-7.25-3.6,0,0-.16-.78-.34-1.69-.38-1.88-.27-2.4-.68-4.75-.11-.61-.38-2.22-.27-2.44l7.72,3.58Z"/>
    <path class="cls-3" d="m114.67,87.54c-3.49.64-7.7,1.32-11.24,1.58-.66.05-1.31.09-1.98.12l-.03-7.35-.16-5.63h.16s.82-.06.82-.06v2.96s7.05.58,9.91.24c.51-.06,1.64-.23,2.11-.29.16.51.35.97.38,1.59,0,.21.02,6.66.02,6.85Z"/>
    <path class="cls-3" d="m127.35,83.24c-3.98,1.31-8.03,2.36-12.13,3.16l.24-7.11c4.9-.82,6.6-2.16,6.6-2.16,0,0,2.47-.11,4.9-.36.07.17.13.35.18.54.08.29.15,5.68.2,5.94Z"/>
    <path class="cls-3" d="m138.42,80.36c-3.98,1.31-6.41,3.15-10.51,3.95l-.56-7.36c4.9-.82,6.03-1.54,6.03-1.54,0,0,2.22-1.28,4.65-1.53.07.17.13.35.18.54.08.29.15,5.68.2,5.94Z"/>
    <path class="cls-3" d="m149.84,73.89c-4.16,2.84-6.44,4.8-10.53,5.6l-.07-6.08c2.29-.38,8.83-4.39,10.58-5.12.07.17-.03,5.34.02,5.6Z"/>
  </g>
  <rect class="cls-2" x="105.62" y="63.32" width="13.08" height="10.21" rx="2.62" ry="2.62" transform="translate(-3.96 6.96) rotate(-3.49)"/>
  <rect class="cls-2" x="125.27" y="60.91" width="9.22" height="10.21" rx="2.62" ry="2.62" transform="translate(-5.55 12.31) rotate(-5.31)"/>
  <path class="cls-2" d="m146.84,65.73l-2.71.45c-1.25.21-2.44-.63-2.65-1.88l-.59-3.47c-.21-1.25.63-2.43,1.88-2.63l2.71-.45c1.25-.21,2.44.63,2.65,1.88l.59,3.47c.21,1.25-.63,2.43-1.88,2.63Z"/>
  <path class="cls-2" d="m160.17,56.2l-2.07.57c-.95.26-1.94-.29-2.21-1.24l-.74-2.65c-.27-.95.29-1.93,1.25-2.2l2.07-.57c.95-.26,1.94.29,2.21,1.24l.74,2.65c.27.95-.29,1.93-1.25,2.2Z"/>
  <rect class="cls-2" x="84.12" y="63.32" width="13.08" height="10.21" rx="2.62" ry="2.62" transform="translate(177 142.25) rotate(-176.51)"/>
  <path class="cls-2" d="m68.05,70.02l3.34.51c1.54.23,3-.85,3.26-2.42l.73-4.38c.26-1.57-.77-3.03-2.31-3.27l-3.34-.51c-1.54-.23-3,.85-3.26,2.42l-.73,4.38c-.26,1.57.77,3.03,2.31,3.27Z"/>
  <path class="cls-2" d="m51.85,63.73l2.72.38c1.26.17,2.42-.7,2.6-1.95l.5-3.49c.18-1.25-.7-2.41-1.95-2.58l-2.72-.38c-1.26-.17-2.42.7-2.6,1.95l-.5,3.49c-.18,1.25.7,2.41,1.95,2.58Z"/>
  <path class="cls-2" d="m37.99,56.31l2.1.44c.97.2,1.92-.41,2.13-1.38l.58-2.69c.21-.96-.41-1.91-1.38-2.12l-2.1-.44c-.97-.2-1.92.41-2.13,1.38l-.58,2.69c-.21.96.41,1.91,1.38,2.12Z"/>
  <path class="cls-5" d="m33.51,50.89l3.41,1.64,21.01,9.2c.28.12.57.23.86.32l13.57,4.14c1.78.54,3.62.88,5.48,1l19.37,1.24,20.73-.89c.47-.02.94-.07,1.41-.14l14.45-2.18c.33-.05.65-.12.97-.22l12.36-3.86c.81-.25,1.59-.58,2.33-.98l9.83-7.53c.66-.36,1.29-.78,1.86-1.27l4.5-3.84"/>
  <rect class="cls-6" x="-2238.11" y="-1884.29" width="6467.34" height="6437.3"/>
</svg>