<?xml version="1.0" encoding="UTF-8"?>
<svg id="Calque_1" data-name="Calque 1" xmlns="http://www.w3.org/2000/svg" viewBox="0 0 128 128">
  <defs>
    <style>
      .cls-1, .cls-2, .cls-3, .cls-4, .cls-5 {
        stroke: #000;
      }

      .cls-1, .cls-2, .cls-6 {
        stroke-linecap: round;
        stroke-linejoin: round;
      }

      .cls-1, .cls-7 {
        fill: #87f3b9;
      }

      .cls-2, .cls-8, .cls-4 {
        fill: #fff;
      }

      .cls-3, .cls-9, .cls-4, .cls-5 {
        stroke-miterlimit: 10;
      }

      .cls-10 {
        fill: #bfe6fc;
      }

      .cls-9 {
        fill: #cfb999;
      }

      .cls-9, .cls-6 {
        stroke: #fff;
      }

      .cls-9, .cls-5 {
        stroke-width: .5px;
      }

      .cls-6 {
        stroke-width: 8px;
      }

      .cls-6, .cls-5 {
        fill: none;
      }
    </style>
  </defs>
  <g>
    <path class="cls-3" d="m74.67,5.71h-32.62c-3.31,0-5.99,2.69-5.99,5.99v82.46c0,3.31,2.69,5.99,5.99,5.99h32.62c3.31,0,6-2.68,6-5.99V11.7c0-3.31-2.69-5.99-6-5.99Zm5.77,88.46c0,3.18-2.58,5.76-5.77,5.76h-32.62c-3.18,0-5.76-2.58-5.76-5.76V11.7c0-3.18,2.58-5.77,5.76-5.77h32.62c3.18,0,5.77,2.59,5.77,5.77v82.46Z"/>
    <path class="cls-3" d="m80.43,11.7v82.46c0,3.18-2.58,5.76-5.77,5.76h-32.62c-3.18,0-5.76-2.58-5.76-5.76V11.7c0-3.18,2.58-5.77,5.76-5.77h32.62c3.18,0,5.77,2.59,5.77,5.77Z"/>
  </g>
  <path class="cls-10" d="m79,12.38v81.11c0,2.81-2.28,5.09-5.09,5.09h-31.11c-.24,0-.47-.02-.69-.05-2.48-.34-4.4-2.47-4.4-5.04V12.38c0-2.81,2.28-5.09,5.09-5.09h.9c2.8,0,5.6.05,8.4,0,0,.02-.02.05-.01.08.76-.12,1.95.21,2.5.76.88.88,1.91,2.08,3.25,2.22,1.4.14,2.51-.99,3.43-1.89,1.02-1.01,2.39-1.17,3.78-1.17h8.87c2.81,0,5.09,2.28,5.09,5.09Z"/>
  <circle class="cls-9" cx="58.09" cy="8.4" r=".9"/>
  <path class="cls-3" d="m80.53,32.93h0v-11.73h0c.44,0,.8.36.8.8v10.12c0,.44-.36.8-.8.8Z"/>
  <path class="cls-3" d="m80.53,43.04h0v-5.85h0c.44,0,.8.36.8.8v4.24c0,.44-.36.8-.8.8Z"/>
  <rect class="cls-7" x="70.93" y="9.19" width="3.03" height="2.13"/>
  <rect class="cls-8" x="73.96" y="9.19" width=".85" height="2.13"/>
  <rect x="74.81" y="9.78" width=".55" height=".94"/>
  <rect x="40.41" y="9.85" width=".71" height="1.22"/>
  <rect x="41.53" y="9.42" width=".71" height="1.65"/>
  <rect x="42.65" y="8.91" width=".71" height="2.16"/>
  <rect class="cls-5" x="70.93" y="9.19" width="3.89" height="2.13"/>
  <circle class="cls-4" cx="45.66" cy="51.79" r="3.88" transform="translate(-10.35 11.42) rotate(-12.82)"/>
  <circle class="cls-4" cx="58.3" cy="51.79" r="3.88"/>
  <circle class="cls-4" cx="71.08" cy="51.79" r="3.88" transform="translate(-10.04 17.82) rotate(-13.36)"/>
  <path d="m44.6,50.92v-.4c.37-.04.63-.1.78-.18s.26-.29.33-.61h.41v4.1h-.55v-2.92h-.97Z"/>
  <path d="m57.1,52.93c.13-.26.38-.5.75-.72l.55-.32c.25-.14.42-.27.52-.37.16-.16.24-.34.24-.55,0-.24-.07-.43-.22-.57s-.34-.21-.58-.21c-.35,0-.6.13-.74.4-.07.14-.11.34-.12.6h-.53c0-.36.07-.65.2-.88.22-.4.62-.6,1.19-.6.47,0,.82.13,1.03.38s.33.54.33.85c0,.33-.12.61-.35.85-.13.14-.37.3-.72.49l-.39.22c-.19.1-.34.2-.44.3-.19.17-.31.35-.36.55h2.25v.49h-2.83c.02-.35.09-.66.22-.93Z"/>
  <path d="m69.97,53.5c-.22-.27-.33-.59-.33-.98h.54c.02.27.07.46.15.58.13.22.38.32.73.32.27,0,.49-.07.66-.22s.25-.33.25-.56c0-.28-.09-.48-.26-.6s-.41-.17-.72-.17c-.03,0-.07,0-.1,0s-.07,0-.11,0v-.46c.05,0,.1,0,.14.01s.08,0,.12,0c.19,0,.35-.03.48-.09.22-.11.33-.3.33-.58,0-.21-.07-.36-.22-.47s-.32-.17-.51-.17c-.35,0-.58.12-.72.35-.07.13-.11.31-.12.54h-.51c0-.31.06-.57.18-.78.21-.38.58-.58,1.11-.58.42,0,.74.09.97.28s.35.46.35.81c0,.25-.07.46-.2.62-.08.1-.19.17-.33.23.22.06.39.17.51.34s.18.38.18.62c0,.39-.13.71-.39.96s-.63.37-1.1.37-.84-.13-1.06-.4Z"/>
  <circle class="cls-4" cx="45.66" cy="64.85" r="3.88" transform="translate(-13.25 11.74) rotate(-12.82)"/>
  <circle class="cls-4" cx="58.3" cy="64.85" r="3.88"/>
  <circle class="cls-4" cx="71.08" cy="64.85" r="3.88" transform="translate(-13.06 18.18) rotate(-13.36)"/>
  <path d="m45.7,66.62v-1.01h-1.81v-.51l1.89-2.62h.44v2.67h.61v.45h-.61v1.01h-.52Zm0-1.46v-1.87l-1.32,1.87h1.32Z"/>
  <path d="m57.42,65.78c.03.3.17.5.41.61.12.06.26.09.43.09.31,0,.53-.1.68-.29s.22-.41.22-.65c0-.29-.09-.51-.26-.67s-.39-.24-.63-.24c-.18,0-.33.03-.46.1s-.24.16-.33.29l-.45-.03.31-2.22h2.14v.5h-1.75l-.18,1.14c.1-.07.19-.13.27-.16.15-.06.33-.09.53-.09.38,0,.7.12.96.37s.39.55.39.93-.12.73-.36,1.03-.62.45-1.15.45c-.34,0-.63-.09-.89-.28s-.4-.48-.43-.87h.54Z"/>
  <path d="m72.13,63.09c.18.24.27.48.27.74h-.51c-.03-.16-.08-.29-.15-.38-.12-.17-.31-.26-.57-.26-.29,0-.52.13-.69.4s-.27.65-.28,1.15c.12-.17.27-.3.45-.39.16-.08.35-.12.55-.12.35,0,.65.11.9.33s.39.55.39.99c0,.37-.12.7-.37.99-.24.29-.59.43-1.04.43-.39,0-.72-.15-1-.44s-.42-.78-.42-1.48c0-.51.06-.95.19-1.3.24-.68.68-1.02,1.31-1.02.46,0,.78.12.96.36Zm-.39,3.15c.14-.18.2-.4.2-.65,0-.21-.06-.41-.18-.6s-.34-.29-.66-.29c-.22,0-.42.07-.59.22s-.25.37-.25.67c0,.26.08.48.23.66s.36.27.63.27.48-.09.61-.27Z"/>
  <circle class="cls-4" cx="45.66" cy="77.92" r="3.88" transform="translate(-16.15 12.07) rotate(-12.82)"/>
  <circle class="cls-4" cx="58.3" cy="77.92" r="3.88"/>
  <circle class="cls-4" cx="71.08" cy="77.92" r="3.88" transform="translate(-16.08 18.53) rotate(-13.36)"/>
  <path d="m47.09,76.2v.45c-.13.13-.31.35-.53.67s-.41.66-.58,1.03c-.17.36-.29.69-.38.98-.06.19-.13.5-.22.92h-.57c.13-.79.42-1.57.86-2.35.26-.46.54-.85.83-1.18h-2.28v-.52h2.86Z"/>
  <path d="m57.26,77.52c-.15-.15-.23-.35-.23-.6,0-.31.11-.57.33-.79s.54-.33.95-.33.7.1.93.31.34.45.34.73c0,.26-.07.46-.2.62-.07.09-.19.18-.34.26.17.08.3.17.4.27.18.19.27.44.27.75,0,.36-.12.67-.37.92s-.59.38-1.03.38c-.4,0-.74-.11-1.02-.33s-.42-.53-.42-.95c0-.24.06-.45.18-.63s.3-.31.53-.41c-.14-.06-.26-.13-.34-.22Zm1.67,1.86c.16-.13.24-.32.24-.58s-.08-.47-.24-.61-.37-.21-.63-.21-.45.07-.61.21-.23.34-.23.59c0,.21.07.4.21.56s.36.23.66.23c.24,0,.44-.06.6-.19Zm-.09-2.04c.13-.13.19-.28.19-.46,0-.15-.06-.29-.18-.42s-.31-.19-.56-.19-.43.06-.54.19-.17.28-.17.45c0,.19.07.35.22.45s.31.16.51.16c.23,0,.41-.06.53-.19Z"/>
  <path d="m70.26,78.93c.02.29.13.48.33.59.11.06.22.09.36.09.25,0,.46-.1.63-.31s.3-.62.37-1.26c-.12.18-.26.31-.43.38s-.35.11-.55.11c-.4,0-.71-.12-.94-.37s-.35-.57-.35-.95.11-.7.34-.99.56-.43,1.01-.43c.6,0,1.01.27,1.24.81.13.3.19.67.19,1.12,0,.5-.08.95-.23,1.34-.25.65-.68.97-1.28.97-.4,0-.71-.11-.92-.32s-.31-.48-.31-.79h.52Zm1.35-1.05c.17-.14.25-.37.25-.71,0-.3-.08-.53-.23-.68s-.35-.22-.58-.22c-.25,0-.45.08-.6.25s-.22.4-.22.68c0,.27.07.48.2.64s.34.24.62.24c.21,0,.39-.07.56-.2Z"/>
  <circle class="cls-4" cx="58.37" cy="90.99" r="3.88" transform="translate(-19.44 15.95) rotate(-13.36)"/>
  <path d="m59.51,89.53c.18.34.28.8.28,1.39,0,.56-.08,1.02-.25,1.39-.24.53-.64.79-1.18.79-.49,0-.86-.21-1.1-.64-.2-.36-.3-.84-.3-1.44,0-.47.06-.87.18-1.2.23-.62.64-.94,1.23-.94.53,0,.92.22,1.16.66Zm-.52,2.74c.16-.24.24-.68.24-1.33,0-.47-.06-.85-.17-1.15s-.34-.45-.67-.45c-.3,0-.53.14-.67.43s-.21.71-.21,1.27c0,.42.05.76.14,1.01.14.39.37.58.71.58.27,0,.48-.12.64-.36Z"/>
  <path class="cls-1" d="m62.28,40.11c-.39-.05-.79-.1-1.17-.17-5.09-.92-8.68-3.71-10.56-8.58-.59-1.53-.87-3.13-.87-4.78,0-.38.13-.68.43-.93.58-.48,1.14-.97,1.7-1.46.53-.45,1.02-.42,1.49.09,1.06,1.16,2.12,2.33,3.17,3.49.45.5.44.99-.05,1.46-.67.65-1.34,1.31-2.02,1.96-.09.09-.12.17-.09.3.29,1.11.92,2.01,1.76,2.76.63.56,1.34.98,2.16,1.2.15.04.25.02.36-.09.64-.67,1.3-1.34,1.95-2.01.46-.48.96-.49,1.46-.04,1.17,1.06,2.34,2.13,3.51,3.19.5.45.53.94.08,1.46-.45.53-.91,1.06-1.36,1.59-.19.23-.4.44-.69.55h-1.28Z"/>
  <path class="cls-1" d="m58.79,24.59v-1.76c4.65-.14,8.34,3.75,8.17,8.16h-1.75c-.31-3.98-2.46-6.1-6.42-6.4Z"/>
  <path class="cls-1" d="m58.8,28.28v-1.8c2.81-.1,4.62,1.65,4.52,4.52h-1.8c.06-1.84-.85-2.76-2.72-2.71Z"/>
  <g>
    <path class="cls-2" d="m113.86,100.12c-.2-.47-.49-1.84-.81-3.56-.1-.52-.19-1.06-.3-1.63s-.2-1.14-.3-1.73c-.31-1.75-.61-3.52-.89-4.91h0c-.21-1.09-.4-1.94-.56-2.39-.16-.46-.43-1.09-.76-1.79-.15-.33-.32-.66-.49-1.01-.25-.51-.52-1.04-.79-1.55-.91-1.75-1.8-3.37-2.02-3.74-.43-.73-1.21-2.05-2.28-2.06-1.07,0-1.63.74-1.63.74,0,0-.3-.7-.56-1.24-.09-.18-.11-.04-.17-.15-.63-1.13-1.4-1.65-2.45-1.58-.05,0-.11,0-.16,0-.13.02-.26.04-.38.07-.35.1-.64.26-.85.42-.28.21-.43.4-.43.4,0,0-.21-.43-.6-.91h0s0,0,0,0c-.6-.73-1.62-1.59-3.01-1.24-2.46.61-2.17,3.13-2.11,3.75.14,1.36.35,3.98.35,3.98,0,0-.7-.09-1.23-.24-.22-.08-.45-.18-.67-.32-.42-.28-.65-.61-.65-.61,0,0,.02.04.04.09-1.07-1.14-3.7-4.67-5.03-6.81-1.47-2.37-5.34-8.37-6.61-10.26-1.27-1.89-2.8-3.59-4.58-2.43-1.92,1.25-.62,3.39-.12,4.63.5,1.24,4.05,7.19,5.37,9.6,1.04,1.89,4.96,9.44,6.52,12.53,1.02,2.02,2.28,5.67,2.28,5.67,0,0-.38-.46-.99-1.16,0,0-.02-.02-.03-.03,0,0-.02-.02-.02-.03-1.2-1.37-3.27-3.6-5.23-5.1,0,0-.02-.02-.02-.02,0,0,0,0,0,0-.52-.4-1.03-.74-1.51-1.01-3.3-1.81-6.9.52-6.97,1.71-.06.94,1.73,1.37,3.32,2.19.23.12.45.24.67.38.01,0,.02.02.04.02.21.14.41.28.6.44.93.81,4.9,5.57,7.39,9.89.15.26,1.23,1.49,2.57,2.94.21.22.42.45.63.68.32.34.66.69.99,1.04.11.12.22.23.33.34.22.23.44.45.66.67,1.19,1.2,2.26,2.23,2.81,2.62,1.18.83,3.78,2.81,5.52,4.01.92.64,1.98,3.22,2.77,5.5.23.67.44,1.31.61,1.88.14.45.26.84.35,1.16.14.47.22.75.22.75l3.92-1.3,7.05-2.36,7.4-2.85s-6.51-12.59-7.16-14.1Z"/>
    <line class="cls-2" x1="98.03" y1="74.41" x2="99.71" y2="79.37"/>
    <line class="cls-2" x1="103.04" y1="76.48" x2="104.86" y2="80.53"/>
  </g>
  <rect class="cls-6" x="-92.81" y="-359.81" width="1447.07" height="727.52"/>
</svg>