<?xml version="1.0" encoding="UTF-8"?>
<svg id="Calque_1" data-name="Calque 1" xmlns="http://www.w3.org/2000/svg" viewBox="0 0 128 128">
  <defs>
    <style>
      .cls-1 {
        fill: #baa584;
      }

      .cls-1, .cls-2 {
        stroke: #000;
        stroke-width: 2px;
      }

      .cls-1, .cls-2, .cls-3 {
        stroke-linecap: round;
        stroke-linejoin: round;
      }

      .cls-2, .cls-3 {
        fill: none;
      }

      .cls-3 {
        stroke: #fff;
        stroke-width: 8px;
      }
    </style>
  </defs>
  <g>
    <path class="cls-1" d="m78.26,77.56c0,9.74-6.45,17.65-14.42,17.65s-14.42-7.91-14.42-17.65c0-2.41.4-4.7,1.11-6.78,1.39-4.07,3.98-7.38,7.24-9.23,1.63,1.71,3.76,2.74,6.08,2.74s4.45-1.03,6.08-2.74c4.93,2.81,8.34,8.92,8.34,16.02Z"/>
    <path class="cls-1" d="m73.23,52.79c0,3.51-1.28,6.64-3.32,8.75-1.63,1.71-3.76,2.74-6.08,2.74s-4.44-1.03-6.08-2.74c-.77-.8-1.45-1.77-1.97-2.83-.54-1.08-.93-2.27-1.14-3.54-.13-.77-.2-1.56-.2-2.37,0-1.63.27-3.17.77-4.56.82-2.33,2.27-4.27,4.08-5.5,1.34-.91,2.88-1.43,4.53-1.43,5.19,0,9.39,5.15,9.39,11.49Z"/>
    <polyline class="cls-2" points="42.78 16.65 46.1 41.79 55.23 48.23"/>
    <polyline class="cls-2" points="23.35 28.3 33.3 48.23 54.66 55.16"/>
    <polyline class="cls-2" points="21.3 69.1 39.01 69.1 44.38 62.47 55.8 58.7"/>
    <path class="cls-2" d="m33.18,111.5s.6-15.54,4.46-24.11c5.14-11.43,12.89-16.62,12.89-16.62"/>
    <path class="cls-2" d="m59.32,32.87s-1.5,1.87-1.5,4.61c0,3.49,1.5,5.24,1.5,5.24"/>
    <polyline class="cls-2" points="85.22 16.5 81.9 41.64 72.77 48.08"/>
    <polyline class="cls-2" points="104.65 28.15 94.7 48.08 73.34 55.01"/>
    <polyline class="cls-2" points="106.7 68.95 88.99 68.95 83.62 62.33 72.2 58.55"/>
    <path class="cls-2" d="m94.82,111.35s-.6-15.54-4.46-24.11c-5.14-11.43-12.89-16.62-12.89-16.62"/>
    <path class="cls-2" d="m68.68,32.73s1.5,1.87,1.5,4.61c0,3.49-1.5,5.24-1.5,5.24"/>
  </g>
  <rect class="cls-3" x="-3809.24" y="-2979.97" width="6467.34" height="6437.3"/>
</svg>