<?xml version="1.0" encoding="UTF-8"?>
<svg id="Calque_1" data-name="Calque 1" xmlns="http://www.w3.org/2000/svg" viewBox="0 0 128.13 128">
  <defs>
    <style>
      .cls-1 {
        fill: #d6d6d6;
      }

      .cls-1, .cls-2, .cls-3, .cls-4, .cls-5, .cls-6 {
        stroke: #000;
        stroke-linecap: round;
        stroke-linejoin: round;
      }

      .cls-2 {
        fill: #bfe6fc;
      }

      .cls-3, .cls-6 {
        fill: none;
      }

      .cls-4 {
        fill: #fab0b4;
      }

      .cls-5 {
        fill: #fff;
      }

      .cls-5, .cls-6 {
        stroke-width: 2px;
      }
    </style>
  </defs>
  <g>
    <circle class="cls-1" cx="61.66" cy="56.61" r="4.4"/>
    <path class="cls-1" d="m73.26,68.36v18.98c0,.95-.78,1.73-1.73,1.73s-1.73-.78-1.73-1.73v-17.58h-2.43v40.24c0,.58-.23,1.1-.62,1.48-.38.38-.91.62-1.48.62-1.17,0-2.11-.94-2.11-2.1v-23.96h-3.05v23.96c0,.58-.23,1.1-.62,1.48-.38.38-.91.62-1.49.62-1.16,0-2.1-.94-2.1-2.1v-40.24h-2.39v17.58c0,.95-.79,1.73-1.74,1.73s-1.73-.78-1.73-1.73v-18.98c0-2.38,1.94-4.33,4.33-4.33h14.58c2.39,0,4.33,1.95,4.33,4.33Z"/>
  </g>
  <rect class="cls-6" x="9.9" y="15.22" width="111.47" height="97.56"/>
  <rect class="cls-6" x="25.81" y="35.08" width="63.9" height="77.7"/>
  <rect class="cls-6" x="27.11" y="36.34" width="61.3" height="76.44"/>
  <rect class="cls-2" x="45.69" y="20.8" width="23.69" height="9.56"/>
  <circle class="cls-2" cx="102.35" cy="61.72" r="5.49"/>
  <circle class="cls-4" cx="102.35" cy="76.31" r="5.49"/>
  <g>
    <path d="m50.68,27.05c.17-.36.51-.68,1.01-.97l.75-.43c.34-.2.57-.36.71-.5.21-.22.32-.46.32-.74,0-.33-.1-.58-.29-.78s-.46-.29-.78-.29c-.48,0-.82.18-1,.55-.1.2-.15.47-.16.81h-.71c0-.49.1-.88.27-1.19.3-.54.84-.81,1.61-.81.64,0,1.11.17,1.4.52.29.35.44.73.44,1.16,0,.45-.16.83-.47,1.15-.18.19-.51.41-.98.67l-.54.3c-.26.14-.46.27-.6.4-.26.23-.42.48-.49.75h3.05v.66h-3.84c.03-.48.12-.9.3-1.26Z"/>
    <g>
      <line class="cls-3" x1="57.9" y1="26.66" x2="61.3" y2="23.77"/>
      <line class="cls-3" x1="64.7" y1="26.66" x2="61.3" y2="23.77"/>
    </g>
  </g>
  <g>
    <line class="cls-3" x1="99.4" y1="62.42" x2="102.35" y2="59.92"/>
    <line class="cls-3" x1="105.3" y1="62.42" x2="102.35" y2="59.92"/>
  </g>
  <g>
    <line class="cls-3" x1="105.3" y1="75.54" x2="102.35" y2="78.04"/>
    <line class="cls-3" x1="99.4" y1="75.54" x2="102.35" y2="78.04"/>
  </g>
  <rect class="cls-5" x="69.77" y="35.08" width="19.94" height="77.7"/>
  <rect class="cls-5" x="25.81" y="35.08" width="19.92" height="77.7"/>
</svg>