<?xml version="1.0" encoding="UTF-8"?>
<svg id="Calque_1" data-name="Calque 1" xmlns="http://www.w3.org/2000/svg" viewBox="0 0 200.13 128.13">
  <defs>
    <style>
      .cls-1 {
        fill: #76ac75;
      }

      .cls-1, .cls-2, .cls-3, .cls-4, .cls-5, .cls-6, .cls-7, .cls-8, .cls-9, .cls-10, .cls-11, .cls-12, .cls-13, .cls-14, .cls-15, .cls-16, .cls-17, .cls-18 {
        stroke: #000;
      }

      .cls-1, .cls-2, .cls-3, .cls-4, .cls-5, .cls-6, .cls-7, .cls-8, .cls-9, .cls-10, .cls-11, .cls-13, .cls-19, .cls-15, .cls-16, .cls-20 {
        stroke-linejoin: round;
      }

      .cls-1, .cls-2, .cls-3, .cls-4, .cls-5, .cls-6, .cls-7, .cls-8, .cls-9, .cls-10, .cls-11, .cls-13, .cls-19, .cls-16, .cls-20 {
        stroke-linecap: round;
      }

      .cls-2 {
        fill: #d6d6d6;
      }

      .cls-3 {
        fill: #afaff9;
      }

      .cls-4 {
        fill: #8987f3;
      }

      .cls-5 {
        fill: #b2f0e9;
      }

      .cls-6 {
        fill: #baa584;
      }

      .cls-7 {
        fill: #a07637;
      }

      .cls-8 {
        fill: #b4eac3;
      }

      .cls-9, .cls-17 {
        fill: #ff6d75;
      }

      .cls-10, .cls-12, .cls-13, .cls-18 {
        fill: #fff;
      }

      .cls-11, .cls-19, .cls-14, .cls-15 {
        fill: none;
      }

      .cls-12, .cls-13, .cls-14, .cls-15 {
        stroke-width: .59px;
      }

      .cls-12, .cls-14, .cls-17, .cls-18 {
        stroke-miterlimit: 10;
      }

      .cls-21 {
        fill: #87ccf3;
      }

      .cls-19 {
        stroke-width: 8px;
      }

      .cls-19, .cls-20 {
        stroke: #fff;
      }

      .cls-17 {
        stroke-width: .35px;
      }

      .cls-18 {
        stroke-width: .75px;
      }
    </style>
  </defs>
  <polygon class="cls-2" points="59.96 98.76 63.63 118.08 61.14 118.08 54.48 96.8 59.96 98.76"/>
  <polygon class="cls-2" points="20.32 99.07 16.81 118.06 19.15 118.06 25.81 97.11 20.32 99.07"/>
  <path class="cls-2" d="m64.71,95.19c.17,1.75-1.17,3.28-2.93,3.35l-39.36,1.36c-1.73.06-3.16-1.32-3.16-3.04v-5.88l-4.48-29.07c-.22-1.22.64-2.38,1.87-2.53l5.76-.71c1.16-.14,2.22.66,2.4,1.82l4.08,26.24,31.96-1.32c1.62-.06,3,1.15,3.16,2.76l.69,7.03Z"/>
  <line class="cls-2" x1="19.26" y1="90.97" x2="64.08" y2="88.72"/>
  <polygon class="cls-17" points="148.35 66.44 141.49 67.1 140.12 67.53 141.49 67.7 148.42 66.74 148.35 66.44"/>
  <path class="cls-12" d="m145.47,66.58s-.18-1.11-1.23-1.07-1.53,1.59-1.07,2.75,1.23.75,1.19.21-.45-1.27.27-1.79"/>
  <path class="cls-14" d="m143.08,66.45s-1.09-.3-1.09.57"/>
  <path class="cls-14" d="m142.29,67.7s.46,1.97,1.59,2.17c1.46.26.32-1.16.32-1.16"/>
  <path class="cls-14" d="m141.49,67.7s-.25,1.2.97,1.99"/>
  <path class="cls-14" d="m141.49,68.25s-.85-.03-.11,1.26"/>
  <path class="cls-12" d="m146.75,68.88c-1.52.04-3.54-.76-2.42-1.18,1.67-.62,1.91-.08,3.01,0s2.11-.36,2.11-.36c0,0,2.21.71,1.34,3.57"/>
  <path class="cls-9" d="m151.06,70.44h0c-.86-2.5-1.63-3.22-1.63-3.22,1.38-.25,10.82-.12,11.17-1.83.35-1.72,0-13.52,0-13.52l4.37,20.64s-12.08,1.4-13.91-2.06"/>
  <line class="cls-11" x1="7.36" y1="118.08" x2="197.73" y2="118.08"/>
  <path class="cls-10" d="m162.56,44.23l2.55-4.01c-.43.24-2.37.69-4.14.6-1.88-.1-1.65-1.43-1.87-3.38-.21-1.94-1.13-2.09-1.15-2.58-.02-.5,1.66-1.4,1.61-3.54,0-.23,0-.45.03-.67.16-1.75,1.13-2.82,1.71-3.37,0,0,1.98,3.52,2.4,4.09.42.56,1.81,2.23,2.87,1.85.96-.35,1.8-1.06,2.61-.52.81.54.86,2.28-.1,2.84,0,0,.94,1.74,1.3,2.94l1.73,4.44"/>
  <polygon class="cls-10" points="116.95 90.55 120.01 87.89 124.98 92.77 122.22 95.63 116.95 90.55"/>
  <path class="cls-7" d="m122.3,94.36c.47.47.71,1.12.65,1.79-.07.87-.12,2.2-1.29,3.39h0c-.5.81-1.45,1.21-2.37,1-.41-.09-.86-.23-1.31-.46-1.5-.74-2.51-2.26-5.12-2.81-2.6-.55-5.95-1.95-7.48-3.9-1.53-1.94-1.3-3.02-1.3-3.02h0c1.27-.64,2.74-.82,4.12-.46.9.23,2.09.44,3.51.49,3.34.11,6.04-.56,6.04-.56l4.55,4.54Z"/>
  <polygon class="cls-10" points="129.85 110.59 130.63 106.61 137.55 107.4 137.12 111.36 129.85 110.59"/>
  <path class="cls-7" d="m137.19,111.68c.31.55,1.2,1.4,1.19,2.87,0,.16.03.32.11.46h0c.22.4.1.91-.27,1.17-.47.33-1.15.73-1.87.9-1.34.32-2.77-.1-4.7.93-1.93,1.03-4.77,1.91-6.76,1.49-1.99-.41-2.41-1.22-2.41-1.22h0c.46-1.08,1.29-1.96,2.35-2.46.69-.33,1.55-.82,2.47-1.54,1.57-1.24,2.72-2.55,3.22-3.17.19-.23.47-.35.77-.32l5.22.44c.3.03.56.19.71.45Z"/>
  <polygon class="cls-2" points="143 98.32 139.21 117.86 142 117.86 148.77 96.26 143 98.32"/>
  <polygon class="cls-2" points="187.08 98.89 190.81 117.81 188.01 117.81 181.31 96.82 187.08 98.89"/>
  <path class="cls-2" d="m192.91,60.69l-4.71,30.59v6.19c0,1.81-1.51,3.27-3.32,3.2l-41.41-1.43c-1.85-.07-3.27-1.68-3.09-3.52l.72-7.4c.17-1.69,1.63-2.97,3.33-2.9l33.63,1.39,4.29-27.61c.19-1.22,1.31-2.06,2.53-1.91l6.06.75c1.29.16,2.19,1.38,1.96,2.66Z"/>
  <path class="cls-4" d="m118.54,88.05c.47-.55,14.02-16.47,17.61-17.86,3.59-1.39,34.35,5.86,34.35,5.86l6.6-3.05s5.29,11.5-1.78,15.1c-7.07,3.6-20.56-3.23-20.56-3.23l-16.47-5.46-13.87,15.26-5.87-6.61Z"/>
  <path class="cls-4" d="m139.38,79.77c-1.86-.62-6.07,2.57-6.51,4.53-.43,1.95-2.21,20.49-2.53,21.46l-.24,1.58,7.6.9s1.6-8.47,2.62-11.98c1.02-3.51,2.1-7.61,2.1-7.61l19.05-1.47s-20.25-6.8-22.1-7.42Z"/>
  <path class="cls-10" d="m61.52,60.22s-.02-3.27-.07-3.97c-.04-.7.79-2.18.79-2.18l2.35-2.41.73-1.82-.26-1.73s.71.01.81.7c.1.69.71,1.6.33,2.25-.38.64-1.44,3.39-1.44,3.39,0,0-.29.81-.13,1.9s.59,4.05.59,4.05l-3.72-.2Z"/>
  <path class="cls-5" d="m61.26,59.73l.19,7.97-2.74-5.02-2.71-4.76-6.02-.78,7.69,14.27s3.37,2.33,5.62,1.73c2.25-.6,2.69-1.57,2.86-3.12.17-1.56-.37-10.74-.37-10.74l-4.52.45Z"/>
  <path class="cls-20" d="m63.04,50.96c.13-.04.27-.14.37-.28.21-.28.23-.62.04-.77-.19-.14-.51-.03-.73.25-.21.28-.23.62-.04.77.09.07.22.08.35.04"/>
  <polygon class="cls-10" points="66.47 108.22 65.95 105.95 70.18 104.21 71.16 107.37 66.47 108.22"/>
  <path class="cls-6" d="m65.52,111.5h0c-.17.5.08,1.04.56,1.24.42.18.96.35,1.5.38,1.18.07,2.33-.51,4.12.06,1.79.57,4.33.87,5.94.22s1.85-1.4,1.85-1.4h0c-.56-.84-1.39-1.45-2.36-1.72-.63-.17-1.44-.46-2.32-.92-2.08-1.1-3.51-2.44-3.51-2.44l-5.24,1.43v.02s-.54,3.15-.54,3.15Z"/>
  <path class="cls-10" d="m66.83,74.24s1.32.45.89,1.26-.26,1.05-.26,1.05c0,0,.87.7.57,1.48-.31.78-.88,1.23-.88,1.23l-.76-.97-.36-.47-3.94-1.32,1.43-2.73,3.3.46Z"/>
  <g>
    <path class="cls-21" d="m30.99,81.71s.71,4.59,5.87,4.67c5.16.08,23.79-.75,23.79-.75,0,0-.17,4.57.49,7.15s4.16,13.72,4.16,13.72l5.82-2.08s-2.51-18.25-2.83-22.4c-.21-2.71-.7-4.18-5.01-5.52-4.31-1.34-16.44-.27-16.68-.25-.24.02-9.17-2.09-9.17-2.09l-5.99,4.4-.46,3.14Z"/>
    <path class="cls-11" d="m30.99,81.71s.71,4.59,5.87,4.67c5.16.08,23.79-.75,23.79-.75,0,0-.17,4.57.49,7.15s4.16,13.72,4.16,13.72l5.82-2.08s-2.51-18.25-2.83-22.4c-.21-2.71-.7-4.18-5.01-5.52-4.31-1.34-16.44-.27-16.68-.25-.24.02-9.17-2.09-9.17-2.09l-5.99,4.4-.46,3.14Z"/>
  </g>
  <path class="cls-5" d="m55.27,58.08l.76,4,2.41,10.11,4.84,1.55v2.77s-7,1.81-9.85,0c-.86-.55-1.69-2.1-2.44-4.01l-1.71,3.48c-8.71.21-14.62,6.99-14.62,6.99l-1.18-3.23-1.72,3.87-1.83-.75s.22-4.2,1.4-7.31c1.18-3.11,8.49-16.44,13.22-19.67,1.67-1.14,3.22-1.73,4.53-2.01,1.67-.36,2.94-.23,3.55-.12"/>
  <line class="cls-1" x1="50.99" y1="72.5" x2="50.25" y2="63.39"/>
  <path class="cls-11" d="m53.56,45.45c.2-1.99,1.44-4.64,4.86-4.27,4.68.51,7.8,3.87,7.69,5.84,0,0,.24.95-1.09.95"/>
  <path class="cls-11" d="m53.86,43.8s-1.74,1.28-1.79,3.21c-.04,1.69.22,3.87-.56,5.31"/>
  <path class="cls-10" d="m55.26,55.55c.19.41,1.39,1.78,2.75,2.66,1.45.93,1.99-.18,3.2-1.52,1.2-1.33,1.95-.95,2.24-1.3.29-.36-.49-1.93.7-3.49.13-.17.24-.33.34-.51.82-1.39.67-2.7.53-3.42,0,0-3.35,1.56-3.97,1.75-.61.2-2.54.69-3.12-.16-.53-.77-.77-1.75-1.66-1.78-.89-.04-1.86,1.23-1.44,2.17,0,0-1.63.79-2.54,1.49l-2.03,2.37s1.02,5.48,5.75,4.12l-.74-2.37Z"/>
  <ellipse class="cls-16" cx="61.38" cy="51.93" rx=".57" ry=".26" transform="translate(-17.83 65.75) rotate(-50.13)"/>
  <path class="cls-11" d="m60.82,57.14s.8-.08-1.83-1.43"/>
  <line class="cls-10" x1="56.17" y1="49.17" x2="56.42" y2="49.55"/>
  <path class="cls-11" d="m62.11,49.29s1.14.18,1.35.63"/>
  <path class="cls-11" d="m159.42,32.42s-1.35-2.46-.99-4.36c.43-2.3,2.51-2.32,2.51-2.32,1.15-1.81,6.06-2.8,10.54-.27,3.27,1.85,2.68,4.99,1.58,6.89"/>
  <path class="cls-11" d="m173.84,30.69s.73,2.25-.47,3.99c-1.04,1.52-2.27,3.13-2.5,4.9"/>
  <ellipse class="cls-16" cx="161.98" cy="33.11" rx=".29" ry=".63" transform="translate(-1.96 11.72) rotate(-4.12)"/>
  <line class="cls-10" x1="168.37" y1="33.98" x2="167.9" y2="34.16"/>
  <path class="cls-11" d="m159.2,38.55s1.45.79,2.79-.17"/>
  <line class="cls-11" x1="188.2" y1="91.27" x2="141.72" y2="91.27"/>
  <path class="cls-9" d="m162.56,44.23l5.44-2.39c1.29-.43,2.71-.15,3.74.74,1,.87,2.13,2.23,2.79,4.26,1.72,5.33,2.05,10.54,2.05,10.54,0,0,1.88,18.05.93,19.81l-.71,1.04-17.7-1.96,3.25-9.48"/>
  <path class="cls-9" d="m162.35,66.79c-3.15-15.25-1.37-21.27.21-22.56"/>
  <polygon class="cls-15" points="140.79 67.97 130.53 63.72 136.76 68.22 141.14 68.79 140.79 67.97"/>
  <polygon class="cls-13" points="136.76 68.22 146.44 72.5 151.45 72.5 145.11 69.36 136.76 68.22"/>
  <path class="cls-18" d="m152.86,71.6s-2.12.09-3.31.36-3.23.13-3.52.65,2.04.58,2.51.95.74.62,3.19.62,12.87-.03,12.87-.03c0,0-1.34-1.88-1.27-2.9,0,0-2.09.39-4.01.27s-3.8-.39-5.03-.71-1.8-.3-2.91.11-1.26.63-1.26.63"/>
  <path class="cls-9" d="m165.66,52.15c.33,1.27,3.26,15.23,3.26,15.23l-11.24,3.01.33,5.38s15.19-3.17,17.66-4.86c1.34-.91.49-4.16.31-6.34s-2.59-14.75-2.97-16.36c-.62-2.64-4.27-5.27-6.49-2.8-2.32,2.58-.87,6.73-.87,6.73Z"/>
  <path class="cls-10" d="m93.42,41.64c0,6.16-4.99,11.15-11.15,11.15-2.08,0-4.03-.57-5.7-1.57h0s-5.45,1.17-5.45,1.17l2.14-4.18c-1.35-1.84-2.14-4.11-2.14-6.56,0-6.15,5-11.15,11.15-11.15s11.15,5,11.15,11.15Z"/>
  <g>
    <line class="cls-11" x1="77.34" y1="38.37" x2="87.19" y2="38.37"/>
    <line class="cls-11" x1="77.34" y1="41.64" x2="87.19" y2="41.64"/>
    <line class="cls-11" x1="77.34" y1="44.91" x2="87.19" y2="44.91"/>
  </g>
  <path class="cls-10" d="m131.62,41.65c3.26,5.23,10.13,6.82,15.36,3.56,1.76-1.1,3.12-2.61,4-4.34h0s5.24-1.89,5.24-1.89l-4.03-2.42c.17-2.28-.36-4.62-1.65-6.7-3.25-5.22-10.14-6.82-15.36-3.56-5.23,3.26-6.82,10.14-3.56,15.36Z"/>
  <g>
    <line class="cls-11" x1="136.22" y1="32.49" x2="146.07" y2="32.49"/>
    <line class="cls-11" x1="136.22" y1="35.76" x2="146.07" y2="35.76"/>
    <line class="cls-11" x1="136.22" y1="39.03" x2="146.07" y2="39.03"/>
  </g>
  <rect class="cls-7" x="71.22" y="65.19" width="49.81" height="3.53"/>
  <rect class="cls-7" x="71.24" y="68.72" width="2.49" height="49.2"/>
  <rect class="cls-7" x="118.54" y="68.72" width="2.49" height="49.36"/>
  <rect class="cls-8" x="105.82" y="61.18" width="15.21" height="4.01"/>
  <rect class="cls-3" x="104.41" y="58.31" width="15.21" height="2.74"/>
  <rect class="cls-19" x="-410.65" y="-308.58" width="2179.47" height="547.09"/>
</svg>