<?xml version="1.0" encoding="UTF-8"?>
<svg id="Calque_1" data-name="Calque 1" xmlns="http://www.w3.org/2000/svg" viewBox="0 0 128 128">
  <defs>
    <style>
      .cls-1 {
        fill: #d6d6d6;
      }

      .cls-1, .cls-2 {
        stroke: #000;
        stroke-width: 2px;
      }

      .cls-1, .cls-2, .cls-3 {
        stroke-linecap: round;
        stroke-linejoin: round;
      }

      .cls-2 {
        fill: #fff;
      }

      .cls-3 {
        fill: none;
        stroke: #fff;
        stroke-width: 8px;
      }
    </style>
  </defs>
  <g id="jkvMcz">
    <path class="cls-1" d="m107.04,32.79c-3.37,4.73-5.62,10.69-3.73,17.6.82,3.01,3.04,5.16,5.07,7.38,1.19,1.3,1.8,2.65,1.68,4.45-.38,5.47-.7,10.95-.96,16.43-.23,4.87-.2,9.74.43,14.58.12.89.33,1.79.61,2.65.58,1.78,1.36,2.35,3.04,2.34,1.71-.01,2.45-.58,3.04-2.34.47-1.42.63-2.9.73-4.38.61-8.61-.4-17.14-1.08-25.7-.11-1.4-.18-2.8-.33-4.2-.15-1.43.4-2.54,1.3-3.6,1.22-1.45,2.46-2.9,3.54-4.45,2.68-3.86,2.72-8.11,1.55-12.47-.92-3.42-2.26-6.65-4.84-9.2-3.01-2.98-6.34-2.92-10.05.9Z"/>
  </g>
  <circle class="cls-2" cx="61.1" cy="64" r="38.59"/>
  <circle class="cls-2" cx="61.1" cy="64" r="31.5"/>
  <g>
    <path class="cls-1" d="m6.72,29.53c-.05.06-.07.14-.08.22-.09,1.22-.18,2.45-.27,3.67-.1,1.29-.2,2.59-.3,3.88-.08,1.09-.15,2.18-.23,3.27-.1,1.29-.2,2.59-.3,3.88-.07.88-.1,1.76-.19,2.64-.09.96.09,1.86.46,2.73.42.98,1.06,1.8,1.92,2.42,1.04.74,1.73,1.7,1.99,2.95.14.68.1,1.38.07,2.06-.04.79-.03,1.57-.07,2.36-.06,1-.04,2.01-.08,3.02-.06,1.91-.12,3.81-.16,5.72-.03,1.2-.07,2.4-.1,3.6-.05,1.89-.11,3.78-.16,5.67-.03,1.21-.07,2.42-.1,3.63-.06,1.88-.11,3.76-.16,5.64-.03,1.24-.08,2.47-.1,3.71-.04,1.65-.12,3.3-.14,4.95-.02,1.68,1.27,3.08,2.91,3.22,1.65.14,3.15-1.02,3.4-2.69.12-.79.03-1.61,0-2.41-.02-.63-.06-1.27-.08-1.9-.04-1.56-.08-3.12-.12-4.69-.07-2.28-.14-4.55-.21-6.83-.05-1.67-.11-3.34-.16-5-.05-1.75-.11-3.49-.16-5.24-.05-1.73-.11-3.46-.16-5.19-.05-1.71-.1-3.42-.16-5.14-.04-1.17-.11-2.35-.1-3.52.01-1.53.63-2.77,1.87-3.67,1.36-.98,2.27-2.25,2.61-3.91.16-.81.06-1.62.01-2.43-.04-.65-.09-1.3-.14-1.95-.08-1.19-.17-2.38-.25-3.56-.06-.87-.11-1.74-.17-2.61-.08-1.2-.17-2.39-.25-3.59-.06-.86-.12-1.73-.17-2.59-.04-.63-.09-1.25-.12-1.88-.02-.36-.2-.56-.52-.67-.53-.18-9.81,0-10.02.26Z"/>
    <g>
      <line class="cls-1" x1="13.82" y1="29.83" x2="13.82" y2="44.12"/>
      <line class="cls-1" x1="9.96" y1="29.83" x2="9.96" y2="44.12"/>
    </g>
  </g>
  <rect class="cls-3" x="-4431.8" y="-195.18" width="6562.35" height="1176.7"/>
</svg>