<?xml version="1.0" encoding="UTF-8"?><svg id="Calque_1" xmlns="http://www.w3.org/2000/svg" viewBox="0 0 129 129"><defs><style>.cls-1{fill-rule:evenodd;}.cls-1,.cls-2{fill:#0c419a;stroke-width:0px;}</style></defs><path class="cls-2" d="m64.84,72.98v-9.29h2.44v9.39c0,.54.23.7.44.7.1,0,.2,0,.3-.03l.29,1.84c-.39.15-.81.22-1.23.21-1.68.02-2.25-1.1-2.25-2.81Z"/><path class="cls-2" d="m49.19,70c.22-.68,2.38-5.48,2.38-5.48h2.57v11.08h-2.32v-6.85l-1.93,4.98h-1.47l-1.93-4.98v6.85h-2.32v-11.08h2.57s2.16,4.8,2.38,5.48h.07Z"/><path class="cls-2" d="m69.33,73.26c0-1.78,1.49-2.76,4.75-3.11-.05-.74-.52-1.19-1.41-1.19-.7,0-1.38.3-2.18.76l-.87-1.64c1.05-.7,2.27-1.08,3.52-1.11,2.11,0,3.28,1.23,3.28,3.82v4.82h-2.32v-.82s-.96,1.02-2.3,1.02c-1.53,0-2.47-1.12-2.47-2.54Zm4.76-.15v-1.47c-1.74.23-2.42.78-2.42,1.42,0,.54.37.81.95.81s1.03-.32,1.46-.76h.01Z"/><path class="cls-2" d="m55.85,73.26c0-1.78,1.49-2.76,4.75-3.11-.05-.74-.52-1.19-1.41-1.19-.7,0-1.39.3-2.18.76l-.87-1.64c1.04-.7,2.27-1.08,3.52-1.11,2.11,0,3.28,1.23,3.28,3.82v4.82h-2.32v-.82s-.96,1.02-2.3,1.02c-1.52,0-2.47-1.12-2.47-2.54Zm4.76-.15v-1.47c-1.74.23-2.42.78-2.42,1.42,0,.54.36.81.95.81s1.04-.32,1.47-.76h0Z"/><path class="cls-2" d="m83.32,63.69v4.07c-.26-.27-.57-.48-.92-.62-.35-.14-.72-.2-1.1-.18-1.74,0-3.42,1.67-3.42,4.41s1.33,4.41,3.38,4.41c1.12,0,1.99-.84,2.07-.93v.71h2.44v-11.88h-2.44Zm-1.43,10.07c-.95,0-1.51-.75-1.51-2.4s.7-2.35,1.49-2.35c.53,0,1.04.2,1.45.53v3.46c-.49.55-.91.76-1.43.76Z"/><path class="cls-2" d="m87.64,64.63c0-.77.59-1.31,1.41-1.31s1.42.54,1.42,1.31-.59,1.31-1.42,1.31-1.41-.55-1.41-1.31Zm.19,2.54h2.44v8.43h-2.44v-8.43Z"/><path class="cls-2" d="m91.79,71.39c0-2.74,1.72-4.41,3.79-4.41,2.35,0,3.64,1.75,3.64,4.05,0,.37-.03.74-.1,1.1h-4.94c.23,1.22,1.04,1.78,2.14,1.78.62,0,1.16-.25,1.76-.61l.83,1.56c-.86.6-1.88.93-2.92.95-2.44,0-4.21-1.64-4.21-4.43Zm5.34-.93c0-.93-.52-1.59-1.5-1.59-.77,0-1.31.53-1.47,1.59h2.97Z"/><path class="cls-2" d="m44.17,59.03v-9.29h2.44v9.39c0,.54.23.7.44.7.1,0,.2,0,.3-.03l.29,1.84c-.39.15-.81.22-1.23.21-1.68,0-2.25-1.11-2.25-2.81Z"/><path class="cls-2" d="m57.14,59.02l.67,2.64h2.53l-3.4-11.09h-2.8l-3.4,11.09h2.53l.67-2.64h3.21Zm-2.72-1.94l1.07-4.2h.09l1.07,4.2h-2.22Z"/><path class="cls-2" d="m60.83,60.68l1.1-1.56c.75.58,1.44.89,2.13.89.73,0,1.04-.29,1.04-.73,0-.56-.82-.81-1.67-1.15-1.01-.4-2.18-1.08-2.18-2.48,0-1.57,1.25-2.64,3.15-2.64,1.06.01,2.09.39,2.91,1.07l-1.1,1.5c-.58-.43-1.16-.72-1.74-.72-.63,0-.94.25-.94.67,0,.54.77.75,1.62,1.06,1.04.4,2.22,1,2.22,2.54s-1.18,2.72-3.39,2.72c-1.16-.03-2.27-.45-3.16-1.18Z"/><path class="cls-2" d="m68.14,60.68l1.1-1.56c.75.58,1.44.89,2.13.89.73,0,1.04-.29,1.04-.73,0-.56-.82-.81-1.67-1.15-1.01-.4-2.18-1.08-2.18-2.48,0-1.57,1.25-2.64,3.15-2.64,1.06.01,2.09.39,2.91,1.07l-1.09,1.5c-.59-.43-1.16-.72-1.74-.72-.63,0-.94.25-.94.67,0,.54.77.75,1.62,1.06,1.04.4,2.22,1,2.22,2.54s-1.18,2.72-3.39,2.72c-1.15-.04-2.27-.45-3.16-1.18Z"/><path class="cls-2" d="m85.44,53.23h2.44v1.2c.46-.93,1.6-1.26,2.17-1.25.34-.01.67.04.98.17l-.25,2.27c-.33-.14-.68-.22-1.04-.25-.49.03-.95.24-1.29.59-.34.35-.54.82-.56,1.31v4.39h-2.45v-8.42Z"/><path class="cls-2" d="m100.47,53.23h2.44v1.06c.7-.68,1.39-1.27,2.52-1.27,1.79,0,2.55,1.29,2.55,3.4v5.24h-2.45v-4.91c0-1.21-.32-1.59-1.03-1.59-.61,0-1.08.29-1.61.82v5.69h-2.44v-8.42Z"/><path class="cls-2" d="m116.46,57.44c0-2.73,1.72-4.41,3.79-4.41,2.35,0,3.64,1.75,3.64,4.05,0,.37-.03.74-.1,1.1h-4.93c.22,1.22,1.04,1.78,2.14,1.78.62,0,1.16-.25,1.76-.61l.83,1.56c-.86.6-1.88.93-2.92.95-2.44,0-4.21-1.64-4.21-4.43Zm5.34-.93c0-.93-.52-1.59-1.5-1.59-.77,0-1.31.53-1.47,1.59h2.98Z"/><path class="cls-2" d="m91.57,59.31c0-1.78,1.49-2.76,4.75-3.12-.05-.74-.52-1.19-1.41-1.19-.7,0-1.39.3-2.18.76l-.88-1.64c1.04-.7,2.27-1.08,3.52-1.11,2.11,0,3.28,1.23,3.28,3.82v4.82h-2.32v-.81s-.96,1.02-2.3,1.02c-1.5,0-2.46-1.12-2.46-2.54Zm4.76-.15v-1.47c-1.74.23-2.42.79-2.42,1.42,0,.54.36.81.95.81s1.04-.32,1.47-.76Z"/><path class="cls-2" d="m49.83,49.7c-.51,0-1.2.39-1.2,1.1,0,.13.02.26.07.39.05.12.12.23.22.33.09.09.2.17.33.22.12.05.25.08.39.07.02,0,.05,0,.07,0-.03.73-.7,1.16-1.03,1.34l.65.9c2.13-.69,2.58-4.33.51-4.35Z"/><path class="cls-2" d="m80.99,53.23v5.58c-.48.66-.85.93-1.47.93-.7,0-1.02-.38-1.02-1.59v-4.91h-2.44v5.31c0,2,.85,3.33,2.59,3.33.45,0,.89-.09,1.3-.27.41-.19.77-.46,1.06-.8v.87h2.42v-8.43h-2.44Z"/><path class="cls-2" d="m113.67,59.84c-1.06,0-1.86-.93-1.86-2.4s.75-2.41,1.93-2.41c.4.02.78.18,1.07.46l1.16-1.61c-.65-.57-1.49-.88-2.36-.87-2.28,0-4.26,1.63-4.26,4.41s1.74,4.41,4.05,4.41c1,.01,1.97-.35,2.72-1l-.9-1.69c-.49.4-.98.68-1.54.68Z"/><path class="cls-2" d="m22.93,49.81c-.04-.05-.09-.1-.14-.13-.06-.03-.12-.05-.18-.06l-.22-.02c-.15-.04-3.4.01-4.16.5-.08-.52-.26-1.14-1.15-1.33-.63-.13-1.98.46-1.53,1.81.04.11.1.21.18.3.08.09.18.16.28.21.12.06.3.03.44.39.04.1.12.09.18.07.07-.02.06-.01.14.06.01.01.03.02.05.03.02,0,.04,0,.06,0,0,0,.02.02.03.02.01,0,.03,0,.04,0,.03,0,.11-.02.13,0,.26.21.56-.12.67-.32l.42,1.26c-.1-.09-1.12-.38-1.61.17-.43.46-.74,1.11-1.1,2.21-.05.14-.13.27-.24.37-.11.1-.24.17-.39.21-.56.2-.23.46-.09.49.43.06.87.04,1.3-.05.21-.1.05-.58.28-.87l.51-.66c.02.34-.04.68-.18.99-.17.41-.68.63-.83.82-.27.34.35.37.51.32.41-.14.7-.13.87-.23.23-.13.07-.5.14-.65.21-.41.93-1.32,1.01-1.46.01-.02.02-.04.03-.06.42.13.86.19,1.31.18,1.19-.14,1.45-.98,1.33-1.63-.1-.43-.31-.83-.6-1.16-.32-.51-.49-.77-.6-.91.34-.08,2.23-.6,2.24-.59.07.15.23.19.29.23.12.07.19-.04.14-.07-.05-.03-.09-.07-.12-.13.14,0,.27,0,.41.03.13.02.22-.28.13-.34Z"/><path class="cls-1" d="m39.72,61.2c-.3-1.63-1.82-2.64-2.6-2.97-.28-.12-.56-.22-.86-.3l-.26-.09c.06-.35.46-.38.71-.89.7-1.43-.73-2.44-1.79-2.21-.5.11-.85.29-.93.67-.04.21-.2.21-.46.49-.08.09.1.23.13.29,0,.02-.05.09-.06.18-.02.09,0,.07,0,.08-.03.06-.05.13-.05.2-.04.08-.06.16-.06.25s.02.17.06.25c.11.16.18.35.22.54,0,.04,0,.07-.19,0-.05-.01-1.96-.58-2.18-.72-.21-.14-2.14-2.22-2.34-2.63-.11-.23-.23-.37-.29-.36-.45.03.33.84-.11.56-.11-.07-.45-.31-.46-.33-.08-.07-.06-.03-.12-.13-.04-.07-.09-.14-.15-.19-.05-.03-.08-.04-.11-.03-.03,0-.06.07-.07.07-.03,0-.05,0-.08,0-.11.03-.03.31,0,.45.11.3.24.59.4.87.49.33.96.62.98.63.52.61,1.14,1.37,1.68,1.94.44.46,2.43,1.63,2.5,1.66.13.08.34.5.04,3.55-.11,1.15-.93,3.58-.54,4.84.43,1.16.71,2.37.84,3.6.07.5-.32.8-.88,1.2-.22.16-.82.53-.89.59-.1.09,0,.23.13.3.17.09.34.16.51.22.33.05.66-.02.94-.18.4-.23.44-.26.68-.41.27-.17.6-.22.7-.5.11-.37-.2-.9-.17-1.15.23-1.74.53-2.6.09-3.67-.09-.21.64-2.54.7-2.23.11.61.16,2.44.18,3.79,0,.59.49,2.7.64,3.45.23,1.16-1.73,2.09-1.3,2.44.18.12.38.2.58.23.21.05.43.03.62-.05.2-.08.37-.21.49-.39.42-.52.29-.38.62-.75.29-.32.08-.87.04-1.16-.07-.59-.01-.75-.02-1.81-.02-.68.03-1.37.14-2.04.31-2.04.5-3.15.59-4.02v-.05s.15.05.21-.05c.07-.15.11-.3.12-.46.03-.11.07.03.07.03.05.12.08.24.1.37-.03.17-.09.34-.16.5-.08.23.12.26.17.28.29-.14.54-.34.74-.59.06-.17.09-.35.08-.53-.03-.39-.08-.78-.17-1.16.19-.6.68-2.08.61-2.49Zm-1.39,2.35c-.07.29-.08.01-.36,1.09l.03-.15v-.46c0-1.33-1.02-4.18-.4-3.58,0,0,.74.52.89.91.12.31.08,1.17-.16,2.19Z"/><path class="cls-2" d="m13.49,66.74c-.23-.2-1.03-1.3-1.56-1.73-.26-.29-.51-.6-.72-.93-.95-1.27-1.16-1.34-1.82-1.45-.13-.09-.09-.2-.08-.2.11-.03.22-.08.31-.15.09-.07.17-.16.22-.27.05-.1.08-.22.09-.34,0-.12-.01-.23-.05-.34-.04-.16.07-.23.07-.39,0-.21-.05-.43-.13-.63.03-.07.03-.15.02-.23-.01-.08-.05-.15-.1-.21-.46-.59-1.62-.61-2.22-.2-.48.33-.2.57-.35,1.04-.04.13-.04.27,0,.4.03.13.11.25.2.34.02.16.5.46.41.8-.09.33-.66.42-.65.42-.06.01-.12.04-.17.07-.89.51-1.75,1.24-1.86,2.05.05.65,1.06,1.59,1.71,2.09.1,1.11.8,2.82.83,2.88.1.2-.2-.15-.91-.4-.35-.12-.8-.59-.9-.03-.04.23.06.63-.16,1.13-.16.38.03.99.45.97.3,0,.48-.93.48-.93,0,0,1.46.73,2.16.49.41-.14.5-1.77.1-3.22-.14-.51.26.83,1.24,2.01.22.26.03.46.17,1.43.04.21.06.42.05.62-.03.46-.48,1.02.55,1.29,1.02.26.96.51,1.61.07.29-.2-.9-.32-1.13-1.02-.01-.05-.02-.1-.03-.15-.03-.56.23-1.86.15-2.3-.37-2.21-1.3-3.23-1.42-3.74,0-1.54-.11-2.02.03-1.68.2.36.42.7.67,1.02.03.04.08.09.12.14.08.1.18.19.28.26.64.56,1.67,1.23,1.8,1.38,0,0,.08.68.36.63.28-.05,1.48-.58,1.46-.72-.05-.25-1.23-.24-1.28-.28Zm-6.68-.86c-.19-.36-.7-1.02-.66-1.13.28-.46.59-.6.68-.57.09.03-.02,1.7-.02,1.7Z"/><path class="cls-2" d="m33.84,79.22c-.05-.03-.78-.3-1.41-1.32-.29-.46-2.43-4.44-2.72-5.21-.58-1.54-5.11-4.3-5.3-4.46-.13-.11-.12-.38-.07-.55.38-1.29.23-2.45.3-2.62.19-.44.46-1.08.26-1.49l-.46-.74s2.39.87,2.95.75c.48-.1,2.89-1.76,3.02-1.83.33-.17,1.14.08,1.95-.8.3-.33.08-.45.03-.39-.03-.05-.07-.08-.12-.09-.05-.01-.11,0-.15.02-.19.11-.86.3-.74.21.48-.36.15-.46.15-.46-.21.17-1.17.42-1.36.57-.23.18-.36.33-.46.4-.82.46-1.69.8-2.6,1.02-.2.05-2.11-1.2-3.22-1.37-.37-.09-.77-.07-1.13.04-.39.11-.36-.46-.07-.6.15-.07.41-.12.5-.31.03-.08.04-.16.04-.24,0-.08-.02-.16-.06-.24,0-.02,0-.05,0-.07,0-.02-.01-.05-.02-.07-.03-.07-.02-.03-.01-.1,0-.07-.03-.09-.05-.14,0-.04,0-.09.02-.13.23-.2.13-.29.1-.31-.05-.06-.41-.21-.44-.45-.04-.26-.12-.51-.23-.74-.02-.07-.06-.5-.25-.68-.23-.21-.72-.46-1.78-.19-.34.09-.28.26-1.13.41-1.01.19-1.57,1.7-1.48,2.32.07.51.51.26.49.49-.03.35-.07.93.68,1.15.16.05,1.13-.11,1.5-.04,0,0,.3.03.15.33-.07.15-1.05.53-1.29.64-.64.26-2.28,2.95-2.77,3.21-.29.14-.57.3-.83.49-.67.42-1.33.93-1.69.93-.48-.03-.88.2-1.2.93-.1.21-.04.32.13.37.04.05.08.08.13.11.05.03.11.04.17.04.14.13.31.05.43-.02.38-.21.46-.37.61-.43.37-.12,2.55-.96,3.04-1.34.74-.4,2.22-1.93,2.55-1.95.3-.03,1.06.64.83,1.93-.08.44-.63,1.23-.93,1.69-.6.92-.14,1.71-.26,1.91-.62,1.02-1.39,2.38-2.69,3.55-.5.33-1.57.4-2.13.57-1.29.38-2.66,1.31-3.65,1.86-.33.18-.64-.21-1.04-.26-.41-.05-.44.57-.65,1.13-.06.17-.09.25-.4.94-.12.27-.45,1.1-.12,1.45.3.41,1-.88,1.55-1.51.29-.33.46-.44,1.09-.59.4-.09,3.56-.95,5.65-1.41.05,0,.11-.02.17-.04,2.71-.7,5.53-4.25,5.57-4.24l4.61,2.29c.46.25.46,1.15,1.02,2.17.33.62.81,1.16,2.79,3.09.25.25.04.66.16,1.04.12.38.32.42.68.39.37-.03.65-.08,1-.11.44-.03.32.02.83.1.25.04.82.12,1.22-.28.71-.72-.77-.36-1.45-.71Z"/><path class="cls-2" d="m28.84,77.22s-.04-.06-.07-.09c-.03-.02-.06-.04-.1-.05-.04-.01-.07-.02-.11-.01-.04,0-.07.01-.11.03-2.1,1.07-4.42,1.59-6.78,1.53-2.35-.06-4.65-.71-6.69-1.88-.03-.02-.07-.04-.11-.04-.04,0-.08,0-.11,0-.04,0-.07.03-.1.05-.03.02-.06.05-.08.09-.02.03-.03.07-.04.11,0,.04,0,.08.01.11.01.04.03.07.05.1.02.03.06.05.09.07,2.12,1.22,4.51,1.89,6.95,1.95,2.44.06,4.86-.48,7.04-1.59.03-.02.06-.04.09-.07.02-.03.04-.06.06-.1s.02-.07.01-.11c0-.04-.01-.07-.03-.11Z"/><path class="cls-2" d="m8.91,58.77s-.08,0-.12-.03c-.07-.03-.12-.09-.15-.16-.03-.07-.02-.15,0-.21,1.26-2.78,3.35-5.11,5.99-6.64.03-.02.07-.04.11-.05.04,0,.08,0,.12,0,.04,0,.07.02.11.05.03.02.06.05.08.09.02.03.03.07.04.11,0,.04,0,.08-.01.11-.01.04-.03.07-.06.1-.03.03-.06.05-.09.07-2.54,1.48-4.55,3.71-5.76,6.39-.02.05-.06.09-.11.12-.05.03-.1.04-.15.05Z"/><path class="cls-2" d="m32.89,55.17s-.08,0-.11-.02c-.04-.02-.07-.04-.09-.07-2.23-2.53-5.29-4.17-8.62-4.65-.04,0-.07-.02-.1-.04-.03-.02-.06-.04-.08-.07-.04-.06-.06-.13-.05-.21.01-.07.05-.14.11-.19.06-.04.13-.06.21-.05,3.47.49,6.64,2.21,8.96,4.83.03.04.06.09.07.14,0,.05,0,.11-.02.16-.02.05-.06.09-.1.12-.05.03-.1.04-.15.05h0Z"/></svg>