<?xml version="1.0" encoding="UTF-8"?>
<svg id="Calque_1" data-name="Calque 1" xmlns="http://www.w3.org/2000/svg" viewBox="0 0 260 128">
  <defs>
    <style>
      .cls-1, .cls-2, .cls-3, .cls-4, .cls-5, .cls-6, .cls-7, .cls-8, .cls-9, .cls-10, .cls-11, .cls-12 {
        stroke: #000;
      }

      .cls-1, .cls-2, .cls-3, .cls-4, .cls-5, .cls-6, .cls-8, .cls-13, .cls-9, .cls-11, .cls-12 {
        stroke-linecap: round;
        stroke-linejoin: round;
      }

      .cls-1, .cls-14 {
        fill: #d6d6d6;
      }

      .cls-2 {
        fill: #87ccf3;
      }

      .cls-3, .cls-15, .cls-6, .cls-9, .cls-11, .cls-12 {
        fill: #fff;
      }

      .cls-4, .cls-7, .cls-8, .cls-13, .cls-10 {
        fill: none;
      }

      .cls-5 {
        fill: #fab0b4;
      }

      .cls-16 {
        fill: #ffb27d;
      }

      .cls-17 {
        fill: #ff6d75;
      }

      .cls-18 {
        fill: #b84c42;
      }

      .cls-19 {
        fill: #ad7041;
      }

      .cls-20 {
        fill: #415da5;
      }

      .cls-21 {
        fill: #355493;
      }

      .cls-6, .cls-8 {
        stroke-width: .5px;
      }

      .cls-7 {
        stroke-width: 2px;
      }

      .cls-7, .cls-10 {
        stroke-miterlimit: 10;
      }

      .cls-13 {
        stroke: #fff;
        stroke-width: 8px;
      }

      .cls-9 {
        stroke-width: .8px;
      }

      .cls-11 {
        stroke-width: .7px;
      }

      .cls-12 {
        stroke-width: .75px;
      }
    </style>
  </defs>
  <path class="cls-11" d="m163.75,16.23h0c.07-.03.6-.25.78-1.16.2-.98.61-.93.5-1.89-.12-.91-.99-.37-1.09-.3"/>
  <g>
    <path class="cls-16" d="m196.52,50.08s-1.53-.51-2.27-.36c-.74.15-3.04,1.22-3.09,1.45-.05.23,0,.4,0,.4h5.36s1.2-.23,1.4-.94c.2-.71-1.4-.55-1.4-.55Z"/>
    <path class="cls-19" d="m216.52,117.62c-.04.44-.28.72-.67.89,0,0,0,0,0,0-.71.31-1.91.24-3.2.07-.17-.02-.31-.04-.45-.05-.04,0-.07,0-.1,0-.03,0-.05,0-.08,0-1.29-.08-1.19.31-3.65.3-2.81-.01-3.75-.96-3.88-1.36-.11-.34,1.12-.61,2.49-.91.07-.01.13-.03.2-.04.18-.04.37-.08.55-.12,1.64-.38,3.26-.87,3.8-2.44.57-1.67.43-6.62.43-6.62h4.97s-1.3,5.47-1.17,7.05c.07.84.48,1.08.63,1.81.01.05.02.1.03.15.08.43.15.86.11,1.3Z"/>
    <path class="cls-20" d="m222.3,64.11c-.42,2.35-1.02,4.79-1.54,7.32-.83,4.07-1.46,8.39-.82,13.05.08.6.13,1.26.14,1.97.13,8.23-3.55,23.13-3.55,23.13,0,0-1,.43-2.67.35-.86-.04-2.18-.6-2.18-.6,0,0-.35-9.24-.37-21.67-.02-9.01-1.78-20.87-2.14-27.84-.22-4.22.25-9.84.25-9.84,0,0,7.33-5.89,9.96-2.88,2.6,2.98,4.49,8.21,2.92,17.02Z"/>
    <path class="cls-21" d="m219.95,84.47c.08.6.13,1.26.14,1.97-5.49-7.95-6.7-25.29-6.7-25.29l6.03,2.92s.66,3.25,1.36,7.34c-.83,4.07-1.46,8.39-.82,13.05Z"/>
    <path class="cls-19" d="m232.37,117.62c-.04.44-.28.72-.67.89,0,0,0,0,0,0-.71.31-1.91.24-3.2.07-.17-.02-.31-.04-.45-.05-.04,0-.07,0-.1,0-.03,0-.05,0-.08,0-1.29-.08-1.19.31-3.65.3-2.81-.01-3.75-.96-3.88-1.36-.11-.34,1.12-.61,2.49-.91.07-.01.13-.03.2-.04.18-.04.37-.08.55-.12,1.64-.38,3.26-.87,3.8-2.44.57-1.67-.24-6.54-.24-6.54l4.6-.38s-.29,5.55-.15,7.13c.07.84.5,1.3.66,2.03.01.05.02.1.03.15.08.43.15.86.11,1.3Z"/>
    <path class="cls-20" d="m231.73,110s-1.18.56-2.04.73c-.85.17-2.62-.16-2.62-.16-.32-3.58-1.06-9.18-2.5-15.49-1.64-7.19-4.08-15.69-7.49-23.74-.73-1.72-3.73-9.85-4.24-11.91-1.54-6.2,0-5.53,0-5.53l13.45-1.58s1.66.85,2.42,9.61c.23,2.62.26,13.95.6,16.1.33,2.03.71,3.72,1.16,4.82,2.5,6.13,1.25,27.15,1.25,27.15Z"/>
    <path class="cls-18" d="m232.37,117.62c-.04.44-.28.72-.67.89,0,0,0,0,0,0-.75.27-1.93.21-3.2.06-.17-.02-.32-.03-.45-.04-.04,0-.07,0-.1,0-.03,0-.05,0-.08,0-1.29-.08-1.19.31-3.65.3-2.81-.01-3.75-.96-3.88-1.36-.11-.34,1.12-.61,2.49-.91.36.18,2.09.96,4.24.75,1.89-.18,3.82-.94,5.17-1.13.01.05.02.1.03.15.08.43.15.86.11,1.3Z"/>
    <path class="cls-18" d="m216.52,117.62c-.04.44-.28.72-.67.89,0,0,0,0,0,0-.75.27-1.93.21-3.2.06-.17-.02-.32-.03-.45-.04-.04,0-.07,0-.1,0-.03,0-.05,0-.08,0-1.29-.08-1.19.31-3.65.3-2.81-.01-3.75-.96-3.88-1.36-.11-.34,1.12-.61,2.49-.91.36.18,2.09.96,4.24.75,1.89-.18,3.82-.94,5.17-1.13.01.05.02.1.03.15.08.43.15.86.11,1.3Z"/>
    <path class="cls-3" d="m222.02,21.76l.08,6.52-6.52-1.03-3.8-4.04c2.49-1.89,3.99-4.75,3.87-6.01-.03-.28-.06-.45-.06-.45l5.51-1.68c.07,1.46.15,2.6.24,3.49.31,3.13.69,3.21.69,3.21Z"/>
    <path class="cls-3" d="m225.45,44.3c.24,2.7,2.76,8.86,2.22,10.18-.57,1.38-1.37,2.08-3.1,2.48-1.2.28-2.84.41-5.17.52-4.94.25-10.23-.38-10.95-2.72-.35-1.13-.21-5.49-.03-7.5.38-4.17-.41-10.14-.53-14.01-.1-3.23,1.85-10.57,1.85-10.57,0,0,.88-.55,3.63-1.11,0,0,.29,3.81,2.28,4.14,3.44.57,6.21-2.58,7.02-3.85,0,0,3.95,1,5.11,2.32,1.1,1.25-.4,10.53-.74,11.42-.29.76-.56,1.51-.8,2.26-.63,1.98-1.01,3.98-.79,6.45Z"/>
    <path class="cls-12" d="m239.53,50.1s1.53-.5,2.27-.35c.74.15,3.04,1.21,3.09,1.44.05.23,0,.39,0,.39h-5.36s-1.2-.23-1.4-.93c-.2-.7,1.4-.55,1.4-.55Z"/>
    <path class="cls-15" d="m216.21,15.09s-.18.49-1.42.27c0,0-1.04-.19-.95-.74,0,0,1.06-.28,2.37.47Z"/>
    <path class="cls-3" d="m234.31,40.23c-2.5-9.63-3.86-15.13-5.91-16.79-1.81-1.47-5.71-1.61-5.71-1.61-.06,1.16,0,2.32.14,3.47l-4.8,9.14s-2.46,4.86-3.33,10.18c-.66-5.28-1.31-10.18-1.31-10.18,0,0-.62-3.12-.81-5.99.58-2.23.52-4.56.79-6.89l-.3.02c-.95.07-3.9.37-5.41,1.6-2.04,1.68-2.5,9.05-5.91,16.94,0,0-4.13,6.94-5.44,9.69,0,0,.25.38.74.66.48.28,1.08.38,1.08.38,0,0,7.45-7.33,7.93-8.49.16-.38,1.06-1.72,2.18-3.69h0s.3,10.48-.35,15c-.14.96.32,1.9,1.16,2.38,4.6,2.6,18.37,9.67,20.94,2.8.29-.77-4.75-13.86-4.06-16.69.22-.91.51-2.97.81-5.36,1.58,3.02,3.06,5.15,3.27,5.65.49,1.15,7.93,8.42,7.93,8.42,0,0,.6-.11,1.08-.38.49-.28.74-.65.74-.65-1.31-2.73-5.44-9.61-5.44-9.61Z"/>
    <path class="cls-3" d="m222.43,21.8l-4.4,12.64,4.4-4.16-.33-1.29s1.01.09,1.42-.18c.41-.27,1.37-6.73,1.37-6.73,0,0-.9-.15-1.19-.18-.32-.04-1.26-.1-1.26-.1Z"/>
    <path class="cls-3" d="m213.36,21.57s-.93,9.99.02,12.88c0,0-2.72-4.31-2.21-5.21l.99-.65s-1.91-.25-1.55-1.34c.36-1.09,1.89-5.54,1.89-5.54l.86-.14Z"/>
  </g>
  <g>
    <polygon class="cls-3" points="174.28 120.45 253.73 120.45 253.73 85.98 174.28 85.64 174.28 120.45"/>
    <rect class="cls-3" x="174.28" y="58.07" width="79.44" height="9.01"/>
  </g>
  <rect class="cls-3" x="160.81" y="51.58" width="94.6" height="6.5" rx="2.9" ry="2.9"/>
  <g>
    <rect class="cls-6" x="221.3" y="32.16" width="2.65" height="4.77" rx=".47" ry=".47" transform="translate(174.47 254.63) rotate(-86.48)"/>
    <polygon points="222.03 35.32 220.78 35.25 220.88 33.66 222.13 33.73 222.03 35.32"/>
    <path d="m224.31,34.37l-1.55-.1c-.11,0-.2-.11-.2-.22h0c0-.11.11-.2.22-.2l1.55.1c.11,0,.2.11.2.22h0c0,.12-.11.2-.22.2Z"/>
    <path d="m224.4,34.96l-1.81-.11s-.08-.04-.07-.08h0s.04-.08.08-.07l1.81.11s.08.04.07.08h0s-.04.08-.08.07Z"/>
    <path d="m224.38,35.22l-1.81-.11s-.08-.04-.07-.08h0s.04-.08.08-.07l1.81.11s.08.04.07.08h0s-.04.08-.08.07Z"/>
  </g>
  <path d="m215.3,45.09c0-.26.21-.48.48-.48s.48.21.48.48-.21.48-.48.48-.48-.21-.48-.48Z"/>
  <path d="m215.3,48.07c0-.26.21-.48.48-.48s.48.21.48.48-.21.48-.48.48-.48-.21-.48-.48Z"/>
  <polygon class="cls-1" points="175.47 85.64 253.35 85.98 253.35 67.09 175.47 67.09 175.47 85.64"/>
  <g>
    <polygon points="191.6 35.95 188.24 51.58 201.34 51.58 204.28 35.95 191.6 35.95"/>
    <polygon class="cls-14" points="192.05 36.45 189.01 50.56 200.85 50.56 203.5 36.45 192.05 36.45"/>
  </g>
  <g>
    <path d="m201.95,37.58h-9.01c-.17,0-.3.14-.3.3s.14.3.3.3h9.01c.17,0,.3-.14.3-.3s-.14-.3-.3-.3Z"/>
    <path d="m201.49,39h-9.01c-.17,0-.3.14-.3.3s.14.3.3.3h9.01c.17,0,.3-.14.3-.3s-.14-.3-.3-.3Z"/>
    <path d="m201.2,40.37h-9.01c-.17,0-.3.14-.3.3s.14.3.3.3h9.01c.17,0,.3-.14.3-.3s-.14-.3-.3-.3Z"/>
    <path d="m200.78,43.18h-9.01c-.17,0-.3.14-.3.3s.14.3.3.3h9.01c.17,0,.3-.14.3-.3s-.14-.3-.3-.3Z"/>
    <path d="m200.32,44.61h-9.01c-.17,0-.3.14-.3.3s.14.3.3.3h9.01c.17,0,.3-.14.3-.3s-.14-.3-.3-.3Z"/>
    <path d="m200.04,45.97h-9.01c-.17,0-.3.14-.3.3s.14.3.3.3h9.01c.17,0,.3-.14.3-.3s-.14-.3-.3-.3Z"/>
  </g>
  <path class="cls-3" d="m172.33,116.89l-.78-.68-.18-5.36s-4.76.37-4.76.44.08,5.01.08,5.01l-.45,1.33,3.45.55,2.01-.32.64-.98Z"/>
  <polygon class="cls-3" points="148.45 116.3 148.66 111.14 154.06 111.51 152.66 116.41 150.76 117.93 148.45 116.3"/>
  <path class="cls-3" d="m154.33,120.2c-.1-.45-1.34-3.13-1.64-3.8-.73.25-1.43.36-2.21.3-.71-.06-1.49-.19-2.02-.66-.4.48-.9,1.13-1.27,1.67-.34.49-.81.98-1.07,1.54-.26.56-.22,1.23.21,1.65,1.42,1.38,5.66,2.03,7.6.79.58-.37.47-1.18.4-1.48Z"/>
  <path class="cls-3" d="m177.72,122.03c-.89.08-1.82-.06-2.7-.13-2.53-.2-5.04-.53-7.56-.85-.4-.05-.81-.11-1.17-.3-.28-.15-.51-.39-.66-.67-.09-.17-.15-.36-.16-.56,0-.07,0-.14.01-.2.04-.27.16-.52.28-.77.22-.45.33-.78.55-1.23,2.01.16,4.03-.05,6.01-.42.19.11.37.23.56.34l3.22,1.96c.43.26.87.53,1.31.8.1.06.21.13.31.19.31.19.76.33.97.64.05.07.08.15.1.25.14.69-.51.92-1.07.97Z"/>
  <path class="cls-3" d="m172.1,113.72s-1.76.56-3.82.68c-2.05.12-2.18-.14-2.18-.14l-1.72-24.75s-3.57-18.37-3.97-19.76c-.27,3.96.07,16.21-.19,20l-6.18,24.69c-1.67.45-1.78.41-3.52.27-1.61-.13-1.6-.16-3.01-.86,1.36-8.65,3.82-24.6,3.82-24.6,0,0-2.29-17.22-.7-25.93.77-4.2,2.93-7.51,4.42-9.71.76.75,2.08,1.42,3.07,1.75,1.65.55,2.33.67,4.02.75.27,0,.55,0,.79,0,2.47-.08,4.06-.23,4.06-.23,0,0,2.79,7.81,3.79,12.44,1,4.6,1.76,22.27,1.76,22.27l-.43,23.13Z"/>
  <path d="m90.14,36.56l.32.3c.17.15.42.15.56-.01l5.73-6.47c.14-.16.12-.41-.04-.57l-.32-.3c-.17-.15-.42-.15-.56.01l-5.73,6.47c-.14.16-.12.41.04.57Z"/>
  <path class="cls-9" d="m70.71,31.31c.77-.64,6.69,2.03,6.62,2.96-.08.93,4.16,9.98,4.16,9.98l7.25-6h0c.06-.21.75-2.53.79-2.94.04-.43,1.26-1.19,1.84-1.08.57.11-.62.58-.73.98-.12.4.72.51.72.51,0,0,2.1-1.18,2.15-1.88s.48-2.16.93-1.85c.23.16.23,1.19.16,1.68.13-.56.33-1.19.51-1.25.34-.11.51.33.45.55-.06.22-.61,2.59-.78,2.85-.16.26-3.56,3.07-4.05,3.68,0,0-9.41,11.04-10.08,11.33-.59.25-2.68-3.55-4.66-6.08-1.98-2.53-7.66-11.44-5.27-13.43Z"/>
  <path class="cls-3" d="m51.07,112.91s-1.29,1.3-1.32,1.77c-.03.48-.11,5.57.41,6.04.53.48,2.08.81,1.58,1.35-.38.4-3.28.32-5.2.21-.56-.03-1.26-4.62-1.49-5.3-.32-.98-1.48-3.11-1.19-3.8.14-.33,1.2-1.09,2.17-1.73,1.01-.67,1.98-2.17,1.98-2.17l3.05,3.63Z"/>
  <path class="cls-3" d="m65.11,115.51s-1.16,3.36-1.16,3.36c-.09.53-.42,1.84-.42,2.33,0,1.82,7.98-1.54,6.19-2.35-.16-.07-.67-.65-.72-1.27-.08-.95.67-2.15.67-2.15l-4.56.07Z"/>
  <path class="cls-3" d="m77.63,53.03s.58,6.02.58,6.1c0,9.73,1.88,28.74,1.52,30.57-.87,4.46-10.26,27.22-10.26,27.22l-5.07-.62,6.61-27.25-2.43-10.97-3.44-21.68,12.49-3.37Z"/>
  <path class="cls-3" d="m60.61,58.35l-.96,5.7-2.6,23.46-9.92,22.93s1.39,3.34,3.45,3.81l15.78-23.54,9.8-30.13-.34-6.69-15.21,4.46Z"/>
  <path class="cls-5" d="m79.65,38.71l-7.03.74s-.32-5.92-.32-8.74c0-3.42.38-7.78.78-7.69,1.13.27,2.56.86,3.47,2.14,3.14,4.42,3.11,13.56,3.11,13.56Z"/>
  <path class="cls-9" d="m53.64,67.13c-1.07-1.78-1.31-1.53-1.45-1.76-.16-.27.02-4.51.02-4.51,0,0,.43-12.5.48-13.17l5.49-11.54-4.75-4.53s-5.65,12.72-5.84,13.44c-.18.72,1.12,17.71,1.19,19.21,0,0-.55,1.81-.86,2.96-.31,1.15-.11,2.39-.15,2.73,0,.05-.07,1.19.2,2.61.24,1.23.55-.04.55-.04,0,0-.05-2.35.13-2.32.14.02.09,1.31.34,2.67.06.35.13.7.19,1.01.16.83.7.97.66.07-.01-.32-.05-.84-.12-1.21-.08-.4-.03-.8-.05-1.14-.04-.69-.07-1.19-.04-1.18.04.02.12-.12.2.25.09.44.1,1.43.28,2.08.11.36.28,1.14.28,1.14,0,0,.48,1.12.55,1.12.39-.03.27-.89.06-1.37.02-.37-.19-1.18-.19-1.18,0,0-.07-1.73.16-1.75.1,0,.27,1.05.59,2.07.3.94.74,1.84.93,1.81.32-.05.09-1.13.09-1.13,0,0-.19-.75-.24-1-.05-.3-.15-1.2-.15-1.2,0,0-.2-3.16.02-3.15.22,0,.79.27.87.46.08.19.04.62.12.81.08.19.34.37.57.3s.2-1.15.2-1.15c0,0-.03-.87-.34-1.39Z"/>
  <path class="cls-5" d="m76.19,30.1c.15,1.04,2.85,29.43,2.85,29.43-12.8,6.35-19.87,1.13-19.87,1.13,0,0,.42-19.93-.08-22.65-.33-1.8-.75-13.72.39-14.06,1.45-.43,3.12-.88,4.94-1.08,1.55-.17,7.58-.26,8.66.11,0,0,2.5,2.72,3.12,7.11Z"/>
  <path class="cls-5" d="m50.34,36l6.09,4.2s3.43-5.24,5.28-7.11c2.31-2.34-.84-9.5-2.33-9.1-3.33.91-9.04,12.01-9.04,12.01Z"/>
  <path class="cls-3" d="m46.09,111.42s2.98,8.61,4.15,9.03c.31.11,1.8.39,2.08,1.07.08.2,0,.88,0,.88h-6.21s-.79-3.79-1.1-5.46c0,0-1.64-4.07-1.46-4.44.18-.37,2.55-1.07,2.55-1.07Z"/>
  <path class="cls-3" d="m62.79,121.8l.91-2.96s1.92.83,2.88.69c.96-.14,2.83-.69,2.83-.69,3.83,1.29,6.97,1.92,6.39,2.96h-13.02Z"/>
  <path class="cls-3" d="m66.12,17.06l-.94,5.91s3.45,7.52,5.51,6.89c1.73-.53.67-6.99.67-6.99,0,0-.94-3.47-.66-5.21.28-1.74-4.57-.6-4.57-.6Z"/>
  <path class="cls-3" d="m65.32,8.38c-.14-.05-1.1,6.98.73,8.92,1.83,1.94,5.39,2.57,6.66,1.04,1.41-1.69,1.34-9.24-1.5-11.24-2.84-1.99-5.89,1.27-5.89,1.27Z"/>
  <path class="cls-3" d="m68.95,8.4l-.62.82c-.52,1.08-.53,2.57-.86,3.22-.43.85-1.94,1.52-1.46,2.54.18.39.28.86.32,1.29.08.72-.02,1.46-.25,2.15l-.32.9s.04-1.75-1.97-3.27c-2-1.52-3.27-4.63-1.55-7.43,1.4-2.28,2.75-2.82,3.75-2.94,5.45-4.42,7.19,1.98,5.77,1.95-.66-.02-1.57-1.49-1.57-1.49,0,0,.49,1.69.07,1.76s-2.18-1.48-2.18-1.48c0,0,1.49,1.17.87,1.99,0,0-1.73.2-2.96-2.73"/>
  <path class="cls-3" d="m67.38,13.69c.01.86-.38,1.56-.89,1.57-.5,0-.92-.68-.94-1.54-.01-.86.38-1.56.89-1.57.5,0,.92.68.94,1.54Z"/>
  <path d="m142.49,61.93l-1.2-.31c.02-.09,2.31-9.36,4.74-18.58,1.43-5.42,2.63-9.76,3.57-12.92,1.85-6.21,2.27-6.38,2.63-6.54l.47,1.17c.09-.04.13-.09.13-.09-.3.34-1.45,2.9-5.75,19.25-2.37,9.02-4.57,17.91-4.59,18Z"/>
  <path class="cls-9" d="m183.13,61.66s-.54-.43-.71-.59c-.2-.18-.75-.78-.75-.78,0,0-1.82-2.18-1.65-2.3.17-.12.69.08.85.17.16.09.35.19.51.29.16.09.36.05.49-.14.13-.19-.42-.71-.65-.85-.71-.44-2.83-1.22-3.05-1.32-.26-.11-2.72-4.47-3.68-5.89,0,0,0,0,0,0-1.5-2.38-2.93-4.9-3.09-5.16l-3.24-11.63-4.71-.47s3.41,12.96,3.66,13.59c.12.3,4.03,5.55,4.03,5.55,2.09,2.46,3.94,4.63,4.28,5.05,0,0,.68,1.55,1.06,2.56.38,1.01,1.13,1.79,1.28,2.06.02.04.49.99,1.45,1.87.83.76.39-.35.39-.35,0,0-1.28-1.68-1.13-1.76.11-.06.76.9,1.67,1.75.23.22.46.43.68.63.56.51,1.03.31.53-.32-.18-.22-.48-.59-.73-.81-.27-.25-.44-.56-.64-.8-.39-.48-.68-.83-.66-.83.04,0,.03-.16.28.06.31.27.83.99,1.31,1.34.27.2.81.66.81.66,0,0,.96.65,1.01.6.27-.25-.28-.91-.69-1.14-.18-.28-.77-.75-.77-.75,0,0-.97-1.22-.8-1.36.14-.12,3.02,2.34,3.28,2.07.21-.22-.63-1-.63-1Z"/>
  <path class="cls-3" d="m164.7,39.16s1.48-.19,2.89-.7c.85-.31,2.26-.98,2.26-.98,0,0-.79-6.88-2.79-11.05-.82-1.72-1.66-2.55-2.82-2.75,0,0,.46,15.48.46,15.48Z"/>
  <path class="cls-3" d="m164.51,23.76c-.31-.37-4.26-.32-4.74-.36-.2-.02-.99.03-1.76.08h-.76c-.45.05-4.14.41-4.78.7-3.21,3.21-4.76,7.54-7.17,12.27,0,0,1.81,1.06,3.25,1.73.63.29,1.82.76,1.82.76l2.78-4.79s.17-.18.22-.08c.06.16-2.87,25.09-2.87,25.09,0,0,16.46,1.14,18.4.19,0,0-2.23-20.34-2.21-23.34.05-5.38-1.6-11.55-2.17-12.23Z"/>
  <path class="cls-3" d="m157.06,17.67s.22,4.71.09,6.08c-.12,1.37.66,5.94,3.94,5.8,2.66-.11,1.32-5.05,1.07-6.39-.25-1.34-1.13-6.06-1.13-6.06l-3.98.58Z"/>
  <path class="cls-3" d="m154.37,61.87v4.74c0,2.46-1.74,4.46-3.87,4.46h-3.99v-11.05h6.26c.43,0,.82.19,1.1.51.31.34.5.81.5,1.34Z"/>
  <path class="cls-3" d="m153.87,60.53h-.03c-.82,0-1.49.77-1.49,1.71v3.49c0,2.95-2.08,5.34-4.64,5.34h-2.43c-2.56,0-4.64-2.39-4.64-5.34v-3.47c0-1.24.87-2.24,1.95-2.24h10.17c.43,0,.82.19,1.1.51Z"/>
  <path d="m154.38,61.77h-1.24c0-.09.04-8.89-.08-17.85-.07-5.26-.18-9.55-.32-12.75-.25-5.47-.55-6.45-.64-6.61-.02-.29.14-.98.14-.98.22-.09.47-.07.67.07.32.22.52.64.71,2.34.12,1.05.23,2.54.32,4.43.16,3.16.27,7.5.35,12.9.13,9.18.09,18.36.09,18.45Z"/>
  <path class="cls-9" d="m160.6,53.35c.16.03,1.25.1,1.25.1,0,0,1.6-.97,1.83-.51.07.14-1.66,1.12-1.66,1.12,0,0-1.67.06-2.07.04-.74-.02-2.31-.23-4.64-1.96-2.01-1.03-12.13-6.93-12.28-8.05-.09-.66,1.45-4.13,2.94-7.26.66.37,1.68.93,2.56,1.34.42.19,1.09.46,1.49.62-.97,1.87-1.88,3.79-1.76,4.19.1.35,8.74,6.94,8.74,6.94l1.73-.24s3.04.36,3.11.73c.07.36-1.28.27-1.46.32-.1.03-.3.1-.47.21.5.24,1.29.62,1.74.64,1.02.04,2.21-.11,2.33.03.15.17-1.4.64-2.5.71-.45.02-.72-.11-.91-.08-.27.06.2.27.95.22.43-.03,1.17-.26,1.64-.33.77-.11,1.2-.05,1.27.02.11.11-2.19.85-2.19.85,0,0-1.49.2-1.84.18,0,0-.21.09.19.17Z"/>
  <path class="cls-4" d="m159.03,7.37s0,.85-.31,1.42h0"/>
  <path class="cls-4" d="m157.39,9.15c-.67-.39-1.12-1.37-1.12-1.37"/>
  <path class="cls-11" d="m155.27,16.91h0c-.08-.02-.63-.16-.95-1.03-.35-.93-.75-.83-.79-1.79-.02-.91.92-.52,1.03-.46"/>
  <path class="cls-4" d="m163.02,8.57s-.65.39-1.38.52"/>
  <path class="cls-3" d="m156,9.56c.42.02.9-.08,1.38-.41.2.12.41.18.64.16.32-.03.53-.25.68-.51,0,0,.02.01.02.01.09.09.67.59,1.39-.1.37.45.96.5,1.51.39.33.25.77.23.77.23.03.04.06.08.08.12,1.34,1.89,1.47,3.17,1.48,3.31.08-.34.14-.66.19-.96-.07.57-.18.98-.2,1.06h0s0,.02,0,.02h0c.02.54.03,1.92-.19,3.35-.19,1.19-.54,2.42-1.2,3.21-1.51,1.84-2.49,1.88-2.64,1.87-.15.03-1.19.19-2.97-1.4-.77-.68-1.31-1.84-1.68-2.99-.44-1.38-.64-2.75-.71-3.28h0c-.01-.06-.02-.12-.01-.19.02.05.04.08.04.08-.02-.22-.02-.44-.01-.66.14-1.11,1.16-2.95,1.28-3.27l.15-.03Z"/>
  <path class="cls-4" d="m154.57,12.86c-.03.21-.04.4-.02.58"/>
  <path class="cls-4" d="m154.57,13.63s0,0,0-.01h0c-.05-.11-.29-.65-.45-1.4v-.02c-.33-1.48-.34-3.72,2.12-4.72,0,0,.15-.81,1.19-.68,0,0,1.21-1.32,2.66-.24,1.01-.29,1.28.49,1.28.49,2.78.65,2.96,3.16,2.8,4.66,0,.03-.01.05,0,.08"/>
  <path class="cls-4" d="m162.51,9.59s1.43,2.08,1.43,3.28"/>
  <path class="cls-4" d="m154.53,13.4h0s0,.1.02.21h0s0,.02,0,.02"/>
  <path class="cls-4" d="m163.95,12.87v-.02"/>
  <path class="cls-4" d="m163.94,12.64s0,.08,0,.21"/>
  <path class="cls-4" d="m160.71,7.88c-.18.34-.36.59-.53.76-.02.02-.03.05-.06.06"/>
  <path class="cls-4" d="m158.74,8.81h-.02"/>
  <path class="cls-4" d="m217.84,5.74s.04.85.38,1.4h0"/>
  <path class="cls-4" d="m219.58,7.42c.65-.42,1.04-1.43,1.04-1.43"/>
  <path class="cls-8" d="m222.12,15.06h0c.08-.02.62-.19.89-1.08.3-.95.7-.87.69-1.83-.03-.91-.95-.47-1.05-.41"/>
  <path class="cls-4" d="m213.93,7.16s.68.35,1.41.45"/>
  <path class="cls-3" d="m220.98,7.76c-.42.04-.9-.03-1.4-.34-.19.13-.4.21-.63.19-.32-.01-.55-.22-.71-.48,0,0-.02.02-.02.01-.09.09-.64.63-1.39-.02-.35.47-.93.55-1.48.47-.31.27-.76.27-.76.27-.02.04-.06.08-.07.12-1.23,1.96-1.29,3.25-1.3,3.39-.1-.33-.18-.65-.24-.95.1.56.23.96.26,1.05h0s0,.02,0,.02h0c.01.54.08,1.92.38,3.34.25,1.18.68,2.39,1.37,3.14,1.61,1.75,2.59,1.74,2.74,1.72.15.03,1.19.13,2.89-1.56.73-.72,1.21-1.91,1.51-3.07.36-1.4.49-2.78.53-3.32h0c0-.06.01-.12,0-.19-.02.05-.03.08-.03.08,0-.22,0-.45-.02-.66-.21-1.1-1.32-2.88-1.46-3.19l-.15-.02Z"/>
  <path class="cls-4" d="m222.59,10.97c.04.21.06.4.06.58"/>
  <path class="cls-4" d="m222.65,11.74s0,0,0-.02h0c.04-.11.25-.67.38-1.42v-.02c.25-1.5.14-3.73-2.38-4.6,0,0-.2-.8-1.23-.62,0,0-1.28-1.25-2.67-.09-1.02-.23-1.26.56-1.26.56-2.74.81-2.78,3.32-2.54,4.81,0,.03.01.05.01.08"/>
  <path class="cls-4" d="m214.49,8.15s-1.31,2.16-1.25,3.36"/>
  <path class="cls-4" d="m222.67,11.51h0s0,.1-.01.21h0s0,.02,0,.02"/>
  <path class="cls-4" d="m213.24,11.5v-.02"/>
  <path class="cls-4" d="m213.23,11.27s0,.08,0,.21"/>
  <path class="cls-8" d="m213.62,14.84h0c-.08-.02-.61-.22-.84-1.12-.25-.96-.66-.9-.6-1.86.07-.91.97-.42,1.07-.36"/>
  <path class="cls-4" d="m216.19,6.34c.2.33.39.57.57.73.02.02.04.05.06.06"/>
  <path class="cls-4" d="m218.21,7.16l.02-.02"/>
  <g>
    <path class="cls-3" d="m10.06,110.89s-.36,4.05-1.29,4.8c-.93.74-2.17,3.5-1.55,4.99.62,1.49,3.23.97,3.23.97,0,0,1.55-1.56,1.69-4.86.14-3.29,1.07-4.97,1.07-4.97l-3.15-.93Z"/>
    <path class="cls-3" d="m24.81,112.51s.29,4.09.06,5.42c-.13.71-.84,2.18-.51,2.85.33.67.7.84.7.84l9.45.17s-.02-1.31-4.52-2.74c-.57-.18-1.19-.8-1.7-1.42-.61-.74-.66-4.34-.66-4.34l-2.82-.77Z"/>
    <path class="cls-3" d="m31.56,58.14s1.08,6.64.37,10.99c-.71,4.35-3.67,44.92-3.67,44.92l-4.5.05s-.83-16.61-.69-18.96c.14-2.34,1.13-5.96,1.13-5.96l.09-14.2,4.76-17.88,2.51,1.02Z"/>
    <path class="cls-3" d="m20.46,56.75s-2.97,4.86-3.68,8.88c-.71,4.02-.61,16.09-1.98,21.35-.74,2.85-3.2,7.19-3.62,10.88-.42,3.68-2.2,13.78-2.2,13.78l4.69.71,8.77-24.1,6.88-21.78,1.76-11.22-10.62,1.51Z"/>
    <path class="cls-3" d="m11.75,119.15c-2.03.41-3.38-.9-4.08-1.88-.52,1.11-.83,2.49-.45,3.4.62,1.49,3.23.97,3.23.97,0,0,.8-.81,1.31-2.49Z"/>
    <path class="cls-3" d="m29.98,119.05c-.16-.05-.33-.14-.49-.25-2.23.63-3.89.2-4.81-.21-.24.74-.57,1.62-.5,2.18.09.68.36.93.36.93l9.96.08s-.02-1.31-4.52-2.74Z"/>
    <path class="cls-9" d="m40.41,63.35c-.23-.15-1.91-4.98-2.6-6.58,0,0,0,0,0,0-1.07-2.66-2.04-5.46-2.15-5.74l-1.34-12.32-4.36-1.25s1.31,13.7,1.45,14.38c.07.32,2.98,6.29,2.98,6.29,1.6,2.84,3.03,5.34,3.29,5.83"/>
    <path class="cls-2" d="m30.6,29.24s1.3.66,3.06,4.59c1.64,3.66,1.91,12.15,1.91,12.15,0,0-2.61.91-4.11.6s-.86-17.34-.86-17.34Z"/>
    <path class="cls-2" d="m25.68,28.01s-.87.08-5.29,1.12c-.72.17-1.85,1.08-2.28,1.93-2.26,4.43-4.25,12.36-4.25,12.36,0,0,3.69,1.33,4.98,1.33l1.52-5.28s.59,11.13-.12,13.02c-.71,1.89-2.5,6.67-2.5,6.67,0,0,1.16,1.02,7.91,1.8,2.71.31,7.5-.33,7.5-.33,0,0-.33-7.23.21-10.37.89-5.12.92-11.25,1.01-12.02.14-1.26-2.49-8.37-3.85-9.05-.35-.17-.93-.53-1.45-.67-1.56-.4-3.39-.52-3.39-.52Z"/>
    <polygon class="cls-3" points="31.88 60.98 20.86 58.96 23.23 42.08 34.82 44.59 31.88 60.98"/>
    <path class="cls-9" d="m33.53,51.71c-.02-.07-.93.21-1.56-.09-.13-.06.44-.4.52-.51.01-.02,1.1-.49,1.1-.97s-.89-.36-.89-.36c0,0-2.57.7-2.97,1-.4.3-.59.55-.61.58-.15.02-.29.03-.38.02-2.23-.15-5.68-1.45-10.92-3.54l.54-3.13c-1.16-.17-3.12-.81-4.02-1.12-.37,2.4-1.12,6.53-.79,7.41.23.62,3.02,1.6,6.15,2.54,3.99,1.2,5.09,1.17,8.65,1.65,1.08.14,2.48.81,3.03.93.82.18,1.1.34,1.6-.05.42-.33.55-1.33.6-1.96.09-1.19.14-1.64-.05-2.41Z"/>
    <path class="cls-3" d="m26.27,22.96s-.14,3.56-.55,4.87c-.41,1.31.86,6.07,3.44,6.76,2.32.63.65-3.82.32-5.71-.04-.21.41-6.8.41-6.8l-3.63.88Z"/>
    <g>
      <path class="cls-11" d="m42.18,69.72c.02.18.01.35.01.53,0,.47-.03.95-.04,1.42,0,.2,0,.41.06.61s.18.38.37.47.43.06.56-.1c.11-.14.11-.34.11-.52,0-.24-.02-.47-.02-.71-.01-.32-.02-.64-.05-.96-.05-.65-.18-1.32-.58-1.83-.13-.16-.74-.57-.74-.11,0,.18.15.38.2.55.07.21.11.42.13.63Z"/>
      <path class="cls-11" d="m42.55,70.02c.02.18.01.35.01.53,0,.47-.03.95-.04,1.42,0,.2,0,.41.06.61s.18.38.37.47.43.06.56-.1c.11-.14.11-.34.11-.52,0-.24-.02-.47-.02-.71-.01-.32-.02-.64-.05-.96-.05-.65-.18-1.32-.58-1.83-.13-.16-.74-.57-.74-.11,0,.18.15.38.2.55.07.21.11.42.13.63Z"/>
      <path class="cls-9" d="m39.79,61.87c1.28,1.86,2.5,5.02,2.99,6.01.33.66.67,1.35.81,2.08.15.78.18,1.56.21,2.35,0,.12.01.25-.03.37-.07.21-.34.35-.54.2-.42-.31-.44-.96-.48-1.44-.04-.44-.05-.89-.16-1.33-.11-.43-.33-.77-.62-1.1-.2-.24-.4-.48-.61-.72-.08-.09-.17-.18-.26-.26-.13-.11-.27-.19-.43-.21-.14-.02-.34,0-.45.11-.11.11-.05.28-.02.42.03.16.1.31.17.45.12.25.27.49.31.77,0,.05.01.09.02.14.02.51-.49,1.12-.92.57-.09-.12-.16-.26-.22-.39-.31-.65-.75-1.23-.93-1.93-.12-.44-.19-.9-.25-1.35-.26-1.71-.83-2.48-1.09-3.34"/>
      <path class="cls-11" d="m41.11,68.02c-.06-.09-.13-.17-.2-.26-.12-.15-.27-.28-.45-.34-.18-.06-.4-.03-.53.11-.1.12-.12.3-.1.46.06.39.32.71.55,1.03.12.16.23.34.31.52-.05-.27-.19-.52-.31-.77-.07-.14-.14-.29-.17-.45-.03-.13-.09-.31.02-.42.1-.1.31-.12.45-.11.16.02.3.11.43.21Z"/>
    </g>
    <path class="cls-4" d="m27.65,11.94s0,.85-.31,1.42h0"/>
    <path class="cls-4" d="m26.01,13.71c-.67-.39-1.12-1.37-1.12-1.37"/>
    <path class="cls-11" d="m23.9,21.48h0c-.08-.02-.63-.16-.95-1.03-.35-.93-.75-.83-.79-1.79-.02-.91.92-.52,1.03-.46"/>
    <path class="cls-4" d="m31.2,12.04s-.22,1.48-.95,1.62"/>
    <path class="cls-3" d="m24.63,14.13c.42.02.9-.08,1.38-.41.2.12.41.18.64.16.32-.03.53-.25.68-.51,0,0,.02.01.02.01.09.09.67.59,1.39-.1.37.45.96.5,1.51.39.33.25.77.23.77.23.03.04.06.08.08.12,1.34,1.89,1.47,3.17,1.48,3.31.08-.34.14-.66.19-.96-.07.57-.18.98-.2,1.06h0s0,.02,0,.02h0c.02.54,0,2.1-.23,3.54-.19,1.19-1.33,3.74-2.75,4.01-3.3.63-5.48-3-5.85-4.15-.44-1.38-.5-2.11-.56-2.65h0c-.01-.06-.02-.12-.01-.19.02.05.04.08.04.08-.02-.22-.02-.44-.01-.66.14-1.11,1.16-2.95,1.28-3.27l.15-.03Z"/>
    <path class="cls-4" d="m23.2,17.42c-.03.21-.04.4-.02.58"/>
    <path class="cls-4" d="m23.19,18.19s0,0,0-.01h0c-.05-.11-.29-.65-.45-1.4v-.02c-.33-1.48-.34-3.72,2.12-4.72,0,0,.15-.81,1.19-.68,0,0,1.21-1.32,2.66-.24,1.01-.29,1.28.49,1.28.49,2.78.65,2.96,3.16,2.8,4.66,0,.03-.01.05,0,.08"/>
    <path class="cls-4" d="m31.13,14.15s1.43,2.08,1.43,3.28"/>
    <path class="cls-4" d="m23.15,17.96h0s0,.1.02.21h0s0,.02,0,.02"/>
    <path class="cls-4" d="m32.57,17.44v-.02"/>
    <path class="cls-4" d="m32.56,17.21s0,.08,0,.21"/>
    <path class="cls-4" d="m29.34,12.45c-.18.34-.36.59-.53.76-.02.02-.03.05-.06.06"/>
    <path class="cls-4" d="m27.36,13.37h-.02"/>
  </g>
  <g>
    <polygon class="cls-10" points="107.82 58.28 99.5 43.87 107.82 29.46 124.46 29.46 132.78 43.87 124.46 58.28 107.82 58.28"/>
    <g>
      <polygon class="cls-17" points="108.18 57.25 100.45 43.85 108.18 30.46 123.64 30.46 131.38 43.85 123.64 57.25 108.18 57.25"/>
      <polygon class="cls-15" points="108.62 56.48 101.34 43.85 108.62 31.23 123.2 31.23 130.49 43.85 123.2 56.48 108.62 56.48"/>
      <polygon class="cls-17" points="108.9 56 101.88 43.85 108.9 31.71 122.93 31.71 129.94 43.85 122.93 56 108.9 56"/>
    </g>
    <path class="cls-15" d="m120.85,39.81c0-.44-.44-.8-.87-.8s-.82.36-.82.8v2.66l-.29.29v-7.48c0-.44-.34-.8-.75-.8s-.75.36-.75.8v4.79c-.1-.02-.2-.03-.31-.05v-5.84c0-.44-.36-.8-.8-.8s-.8.36-.8.8v5.74s0,0,0,0c-.1,0-.19,0-.28,0v-5.05c0-.44-.36-.8-.8-.8s-.8.36-.8.8v5.2c-.11.02-.21.04-.3.06v-3.45c0-.44-.32-.8-.73-.8s-.73.36-.73.8c0,0,0,7.77,0,7.81.1,1.09,1.02,1.96,2.14,1.96,0,0,2.85,0,2.88,0,0,0,0,0,0,0,.45-.03,1.58-.08,2.73-1.17,1.25-1.18,1.27-2.13,1.27-2.18,0-.03,0-3.27,0-3.27Z"/>
    <g>
      <path class="cls-15" d="m111.26,50.5l-.7-.2c-.46-.13-.46-.33-.46-.4,0-.12.04-.22.13-.29.09-.08.23-.12.42-.12.33,0,.52.13.61.41l.05.15,1.01-.28-.04-.15c-.09-.36-.29-.65-.61-.84-.3-.19-.65-.29-1.04-.29-.47,0-.86.14-1.16.42-.31.28-.46.66-.46,1.12,0,.23.04.45.13.65.09.21.21.38.36.49.15.12.36.21.65.3l.79.23c.17.05.28.11.32.18.05.08.07.17.07.27,0,.13-.05.23-.15.31-.11.09-.28.14-.51.14-.66,0-.79-.32-.84-.56l-.03-.17-1.05.25.04.16c.11.45.34.79.68,1,.33.21.72.32,1.16.32.52,0,.96-.15,1.29-.43.34-.29.52-.7.52-1.2,0-.31-.08-.6-.24-.87-.17-.27-.49-.47-.95-.61Z"/>
      <polygon class="cls-15" points="115.9 48.55 112.58 48.55 112.58 49.59 113.68 49.59 113.68 53.53 114.8 53.53 114.8 49.59 115.9 49.59 115.9 48.55"/>
      <path class="cls-15" d="m117.93,48.48c-.59,0-1.06.25-1.42.75-.34.48-.52,1.09-.52,1.8s.16,1.32.49,1.81c.34.51.81.77,1.42.77s1.06-.25,1.42-.73c.34-.47.52-1.09.52-1.84s-.17-1.32-.5-1.8c-.34-.5-.82-.76-1.41-.76Zm-.03,4.13c-.24,0-.42-.11-.56-.35-.15-.26-.22-.67-.22-1.2,0-1.57.6-1.57.79-1.57.26,0,.44.12.57.37.14.28.21.68.21,1.18,0,.62-.08,1.04-.25,1.26-.15.21-.33.31-.55.31Z"/>
      <path class="cls-15" d="m123.52,49.02c-.26-.31-.67-.47-1.2-.47h-1.85v4.98h1.07v-1.85h.87c.43,0,.79-.15,1.08-.45.28-.29.42-.68.42-1.15,0-.41-.13-.77-.39-1.08Zm-1.98.55h.65c.24,0,.4.05.48.15.09.11.13.23.13.39,0,.17-.04.3-.14.4-.09.09-.22.14-.41.14h-.72v-1.07Z"/>
    </g>
  </g>
  <path d="m119.63,118.68h-7.17c0-1.98,1.6-3.58,3.58-3.58s3.58,1.6,3.58,3.58Z"/>
  <line class="cls-7" x1="116.14" y1="58.28" x2="116.14" y2="116.31"/>
  <rect class="cls-13" x="-32.95" y="-297.39" width="602.19" height="522.43"/>
</svg>