<?xml version="1.0" encoding="UTF-8"?>
<svg id="Calque_1" data-name="Calque 1" xmlns="http://www.w3.org/2000/svg" viewBox="0 0 128 128">
  <defs>
    <style>
      .cls-1 {
        fill: #76ac75;
      }

      .cls-1, .cls-2, .cls-3 {
        stroke-width: 2px;
      }

      .cls-1, .cls-2, .cls-3, .cls-4 {
        stroke: #000;
      }

      .cls-1, .cls-2, .cls-3, .cls-5 {
        stroke-linecap: round;
        stroke-linejoin: round;
      }

      .cls-2 {
        fill: #8987f3;
      }

      .cls-3, .cls-5 {
        fill: none;
      }

      .cls-4 {
        fill: #afaff9;
        stroke-miterlimit: 10;
      }

      .cls-5 {
        stroke: #fff;
        stroke-width: 8px;
      }
    </style>
  </defs>
  <path class="cls-2" d="m105.23,39.37c3.04,8.39-1.32,17.33-3.64,25.33-3.9,13.47-10.12,25.9-18.24,37.31-4.32,6.08-9.17,11.94-15.37,16.09-9.51,6.36-22.17,6.3-32.56,2.09-4.53-1.84-8.82-4.62-11.6-8.66-3.08-4.48-4.03-10.22-3.27-15.6.92-6.55,4.15-12.82,8.4-17.84,4.05-4.78,8.89-8.81,13.64-12.9,6.09-5.24,12.12-10.65,17.16-16.94,2.54-3.16,4.72-6.51,6.54-10.12,1.32-2.62,2.73-5.89,5.13-7.74,2.98-2.3,8.35-4.56,13.33-3.12,5.52,1.59,6.51,6.56,12.91,7.38,1.36.17,2.64.12,4.25.99,2.91,1.58,2.84,2.42,3.31,3.72Z"/>
  <path class="cls-4" d="m89.48,73.74c-3.49,5.48-7.72,13.04-14.66,20.61-7.04,7.68-15,18.53-26.73,17.2-1.64-.18-3.31-.62-4.57-1.68-1.88-1.59-2.47-4.34-1.99-6.75.55-2.75,2.26-5.71,4.58-7.33,3.42-2.39,5.92-.3,11.92-2.27,5.47-1.8,8.92-5.37,9.88-6.39,5.79-6.13,9.63-13.28,11.32-14.49,3.3-2.36,5.27-2.32,8.28-2.7,3.28-.42,3.81.91,1.97,3.81Z"/>
  <path class="cls-1" d="m113.54,42.58c-1.65,1.39-3.6,2.8-7.25,2.06-2.41-.49-3.94-1.97-4.31-2.36-2.43-2.46-2.71-5.25-2.94-5.78.07.35.42,2.01-.1,4.41-.29,1.33-1.19,2.26-2.06,3.53-.95-1.98-1.86-2.66-2.81-3.34-1.07-.77-2.2-1.27-4.31-2.96-2.16-1.73-2.64-2.17-3.76-3.69-1.23,1.3-1.7,2.04-4.21,3.62-2.44,1.54-4.3,1-5.98.88.43-1.07.85-1.18,1.77-3.33.73-1.73.81-3.57.49-4.41-.65.53-1.34,1.08-3.43,1.96-2.11.89-4.08.63-5.1.49-3.08-.41-5.05-1.84-5.78-2.74,1.82-.09,3.48-.5,4.46-.84.77-.26,1.7-.68,4.06-2.69,3.15-2.67,2.87-3.09,4.9-4.7,1.82-1.44,4.18-3.31,7.35-3.43.73-.03,1.49.04,2.18.13.74-.89,1.41-1.85,1.85-2.92.5-1.24.65-2.58.84-3.9.11-.77.23-1.55.2-2.32-.04-1.07-.43-2-1.19-2.75-.08-.08-1.29-1.09-1.4-.95,0,0,.52-.63,1.64-1.16,1.39-.66,2.66-.52,2.66-.52,3.07,3.1,5.11,7.01,5.24,11.42.04,1.54-.12,3.13-.57,4.61-.01.03,0-.05-.03.08.25.06.35.14.73.24,2.4.65,4.15,2,5,2.84,1.58,1.55,2.22,3.07,3.43,5.98.76,1.81.7,2.05,2.35,6.46,1.04,2.79,1.45,3.71,2.45,4.51,1.76,1.39,1.5,1.2,3.63,1.57Z"/>
  <path class="cls-3" d="m90.94,21.12s1.32-.37,2.65-.35c.53.01,1.26.05,2.01.17"/>
  <rect class="cls-5" x="-87.49" y="-2049.75" width="3385.57" height="2571.67"/>
</svg>