<?xml version="1.0" encoding="UTF-8"?>
<svg id="Calque_1" data-name="Calque 1" xmlns="http://www.w3.org/2000/svg" viewBox="0 0 128.13 200.13">
  <defs>
    <style>
      .cls-1 {
        stroke-width: .5px;
      }

      .cls-1, .cls-2, .cls-3, .cls-4, .cls-5, .cls-6, .cls-7, .cls-8 {
        stroke: #000;
      }

      .cls-1, .cls-2, .cls-4, .cls-9, .cls-5, .cls-6, .cls-7, .cls-8 {
        stroke-linecap: round;
      }

      .cls-1, .cls-3 {
        stroke-miterlimit: 10;
      }

      .cls-1, .cls-9, .cls-5, .cls-6, .cls-7 {
        fill: none;
      }

      .cls-2, .cls-3 {
        fill: #d6d6d6;
      }

      .cls-2, .cls-4, .cls-9, .cls-5, .cls-6, .cls-7, .cls-8 {
        stroke-linejoin: round;
      }

      .cls-2, .cls-4, .cls-5, .cls-8 {
        stroke-width: .86px;
      }

      .cls-4 {
        fill: #fff;
      }

      .cls-9 {
        stroke: #fff;
        stroke-width: 8px;
      }

      .cls-6 {
        stroke-width: .9px;
      }

      .cls-7 {
        stroke-width: .45px;
      }

      .cls-8 {
        fill: #fab0b4;
      }
    </style>
  </defs>
  <path class="cls-5" d="m80.38,127.26l-10.12,34.61s1.84,2.54,11.15,1.71l16.04-39.85-2.53-40.26"/>
  <path class="cls-2" d="m47.96,174.62s13.8,8.1,9.51,9.64c-4.29,1.53-4.36,2.28-11.27-1.86-6.9-4.14-9.18-.74-9.11-7.95"/>
  <path class="cls-2" d="m24.79,174.54s1.08,4.5,2.31,6.5,3.06,5.06-1.15,5.37-10.5,1.23-10.66-3.53,2.28-5.57,1.98-8.84"/>
  <path class="cls-8" d="m54.61,93.72s-3.86,68.91-6.02,80.72c0,0-5.49,1.84-11.49,0,0,0,.13-34.97,1.97-40.8,0,0-2.1-16.72-1.97-19.63l-10.54,60.43s-9.27.77-11.26-1.38l6.46-79.34h32.85Z"/>
  <path class="cls-5" d="m83.79,29.67s-11.46,4.37-12.63,6.44-12.31,25.24-9.86,33.65"/>
  <path class="cls-4" d="m59.06,54.36l1.38.98s7.5-15.3,10.73-21.86c.81-1.65,2.3-2.11,2.3-2.11,0,0,1.24-2.26,2.55-2.19s4.42,4.72,3.12,4.91c-1.01.15-2.37-1.88-3.7-2.44l.16,1.54-3.85,2.28s-2.03,2.85-4.54,9.21c-2.51,6.36-6.33,17.08-6.25,21.68l-.52.4s-1.74,2.99-6.95-4.45"/>
  <path class="cls-8" d="m54,59.53l.81,20.32,1.19,13.27s-13.96,13.35-34.89,0c0,0,4.75-17.16,3.15-26.59v-.02c-8.7-21.01-2.36-22.49-.31-22.85,2.14-.39,8.02-4.42,8.02-4.42,0,0,9.46,7.97,11.89,7.56,0,0,1.61-5.72,1-7.26,0,0,7.66-1.48,9.91,3.43,2.25,4.91,6.19,9.81,6.19,9.81,0,0-5.16,6.68-6.96,6.75Z"/>
  <path class="cls-5" d="m49.84,21.66s2.12-.96,1.66-3.76c-.56-3.39-3.62-3.47-3.62-3.47-1.64-2.69-8.82-4.28-15.46-.68-6.64,3.6-2.71,10.94-.73,12.25"/>
  <path class="cls-5" d="m28.79,21.36s-1.13,3.28.58,5.87c1.49,2.26,4.99,6.29,5.28,8.89"/>
  <path class="cls-5" d="m44.33,39.42c-2.1-.97-2.66-3.55-2.97-3.84.62.37,3.46,1.08,6.06.99,2.76-.1,2.46-2.05,2.83-4.92.37-2.85,1.71-3.03,1.76-3.76.05-.73-2.4-2.1-2.27-5.24.02-.34.01-.66-.02-.98-.19-2.58-1.58-4.17-2.42-5,0,0-3,5.12-3.63,5.94-.63.82-2.72,3.22-4.26,2.64-1.4-.53-2.61-1.6-3.82-.83-1.21.76-1.32,3.32.08,4.17"/>
  <path d="m48.39,24.94c0-.56-.32-1-.72-1-.39,0-.7.45-.69,1.01,0,.55.32.99.7.99.39,0,.71-.45.71-1Z"/>
  <path class="cls-7" d="m48.57,22.06s-1.79-.63-2.72,1.31"/>
  <path class="cls-7" d="m48.85,33.2c.84,0,1.74-.62,1.33-2.16,0,0-1.92.29-3.5.12-.81-.09,1.23,2.03,2.17,2.04Z"/>
  <path class="cls-6" d="m34.99,27.9s.92,1.45,2.89,1.59"/>
  <line class="cls-5" x1="53.02" y1="48.06" x2="53.94" y2="73.06"/>
  <polyline class="cls-4" points="32.59 52.84 41.21 52.43 41.6 55.8 34.24 56.3"/>
  <path class="cls-4" d="m63.5,72.04s2.35-3.58,5.01-2.76,3.27,1.84,2.05,2.05-2.4-1.79-4.09.05-3.99,10.07-14.42,8.03c-7.98-1.56-16.29-2.11-19.75-2.28-1.06-.05-2.01-.62-2.56-1.52l-3.73-6.11s8.85-2.96,10.4-4.47l.68,3.59,20.76,5.67s6.25-8.67,7.76-8.82,8.62.28,8.19,2.3"/>
  <line class="cls-5" x1="60.44" y1="55.34" x2="60" y2="57.8"/>
  <path class="cls-5" d="m75.31,36.86s8.1,3.29-4.59,29"/>
  <polyline class="cls-5" points="72.53 70.99 76.54 85.02 67.85 88.4 62.99 76.37"/>
  <path class="cls-5" d="m100.85,32.37s3.5,3.16,6.77,4.49,7.06,39.78,5.32,45.2l-8.08,1.12-.61-14.03s-2.24-6.77-3.06-8.56"/>
  <path class="cls-5" d="m105.68,46.58s-5.73,19.48-8.38,23.19l-.61,13.42s-12.71,2.86-20.67,0"/>
  <path class="cls-5" d="m79.94,113.66s-11.99,49.28-11.63,56.02c0,0-8.33,2.3-11.35-1.07,0,0,1.52-44.72,5.27-49.39s-5.52-26.53.77-42.03"/>
  <path class="cls-5" d="m86.15,21.36c-.08-4.23,2.3-7.65,2.3-7.65l-.92-.61c12.81-9.74,16.64-.38,16.64-.38,0,0,10.12,9.59-1.84,17.56,0,0-.31-1.63-2.15-2.58s.69-7.02.69-7.02"/>
  <path class="cls-5" d="m102.72,18.07s-1.98-1.76-5.55-1c-3.57.77-6.87-2.53-6.87-2.53"/>
  <path class="cls-5" d="m90.68,14.9s-4,3.4-4.26,6.51c0,0-5.29,4.95-1.11,12.81,0,0,5.67,2.34,10.62-.73"/>
  <path class="cls-5" d="m102.33,30.27s.04,3.41-4.68,1.86c0,0,.04,4.16-2.76,5.77s-2.8,2.8-2.8,2.8c0,0-.65-1.96-2.49-2.65s-2.08-3.23-2.08-3.23"/>
  <path class="cls-5" d="m96.5,24.98s-.84-1.43-2.68-1.85"/>
  <path class="cls-5" d="m90.71,21.1s-.38-1.45-2.34-1.96"/>
  <path class="cls-5" d="m90.91,22.75s-.54,2.97-1.73,3.25-.81,1.51-.81,1.51"/>
  <path class="cls-5" d="m90.71,31.19s-3.34-.12-4.41-1.79"/>
  <path class="cls-1" d="m91.37,28.05s-.46.91.42,1.99.61,2.07.61,2.07"/>
  <path class="cls-1" d="m86.77,27.16s-.81,1.05-1.8.89"/>
  <ellipse cx="93.51" cy="26.08" rx="1.04" ry=".7" transform="translate(37.62 105.45) rotate(-70.44)"/>
  <ellipse cx="88.19" cy="22.7" rx=".97" ry=".65" transform="translate(27.77 90.83) rotate(-62.87)"/>
  <path class="cls-1" d="m94.93,21.1s-.5-.69-1.36-.98-2.32-1.3-2.32-1.3"/>
  <path class="cls-1" d="m96.5,19.97s-1.19-1.13-2.68-1.36-2.22-1.27-2.22-1.27"/>
  <line class="cls-1" x1="96.2" y1="26.82" x2="95.32" y2="26.59"/>
  <line class="cls-1" x1="95.76" y1="27.89" x2="94.93" y2="27.51"/>
  <line class="cls-1" x1="87.3" y1="21.72" x2="86.92" y2="21.1"/>
  <line class="cls-1" x1="86.92" y1="22.67" x2="86.15" y2="22.33"/>
  <line class="cls-5" x1="92.1" y1="40.7" x2="84.96" y2="84.45"/>
  <path class="cls-5" d="m76.54,85.02s2.97,1.69,2.61,3.68"/>
  <line class="cls-5" x1="77" y1="92.79" x2="78.64" y2="90.19"/>
  <path class="cls-5" d="m93.97,70.99s-8.64.35-12.32-2.78"/>
  <path class="cls-5" d="m110.39,67.88s-4.5.49-4.7.33"/>
  <path class="cls-5" d="m79.94,163.63v3.37s-7.05,1.76-8.59.38l.24-4.45"/>
  <path class="cls-5" d="m79.94,167s6.67,5.24,11.43,7.03,2.3,6.38.54,5.92-21.7-3.83-21.7-3.83c0,0-2.91-3.91.77-8.59"/>
  <path class="cls-5" d="m67.08,169.97l.59,4.93s-2.76-.54-4.83,1.61-3.68-1.25-3.68-1.25"/>
  <path class="cls-5" d="m67.67,174.9s9.13,9.53,5.44,11.78-12.61.26-14.82-7.26"/>
  <path class="cls-5" d="m76.19,29.24s1.53-1.79,3.02,1.06c1.5,2.85,1.81,2.58.24,2.62"/>
  <path class="cls-5" d="m78.43,29.19s3.7,1.62,3.08,2.46-1.28.47-1.28.47"/>
  <g>
    <polygon class="cls-3" points="79.73 114.72 66.72 116.88 66.95 114.8 79.66 112.69 79.73 114.72"/>
    <polygon class="cls-3" points="114.67 113.82 103.15 114.07 101.12 114.11 81.72 114.52 81.66 112.52 101.4 112.1 103.43 112.06 114.58 111.82 114.67 113.82"/>
    <path class="cls-3" d="m119.67,181.14c.02.56-.4,1.02-.95,1.05-.55,0-1.02-.41-1.05-.96l-3-67.41-.09-2-.95-21.24c-.03-.67-.58-1.18-1.24-1.18h-30.21c-.28,0-.55.09-.76.26-.04.04-.08.08-.14.12-.23.24-.35.55-.34.89l.72,21.85.06,2,2.52,76.91c.02.55-.41,1.02-.97,1.03,0,.01-.02.01-.03.01-.54,0-.98-.43-1-.97l-2.51-76.78-.07-2.03-.72-21.95v-.02l-9.7,3.72-2.29,20.36-.23,2.08-7.43,66.11c-.05.51-.49.89-.99.89-.04,0-.07-.01-.11-.01-.55-.06-.94-.56-.88-1.11l7.5-66.75.02-.18,2.49-22.22c.04-.37.28-.69.63-.82l12.21-4.69c.57-.45,1.27-.7,2.02-.7h30.21c1.74,0,3.16,1.35,3.23,3.09l.99,22.2v.13s3.06,68.32,3.06,68.32Z"/>
    <path class="cls-3" d="m101.12,114.11l2.03-.04-8.18,59.28c-.07.5-.5.86-.99.86-.05,0-.09,0-.14-.01-.55-.07-.93-.58-.85-1.12l8.13-58.97Z"/>
    <polygon class="cls-3" points="106.56 89.4 103.43 112.06 101.4 112.1 104.53 89.4 106.56 89.4"/>
  </g>
  <path class="cls-4" d="m67.85,88.4s-.6,5.98,2.87,6.9c0,0,6.59-1.28,6.28-2.51s-2.91-2.2-2.25-4.09"/>
  <path class="cls-5" d="m31.97,39.24s2.75-2.7,4.47-5.26"/>
  <line class="cls-5" x1="24.26" y1="66.51" x2="26.01" y2="69.49"/>
  <line class="cls-5" x1="37.09" y1="65.52" x2="31.97" y2="51.36"/>
  <path class="cls-5" d="m68.31,66.77s6.86.6,5.52,2.88"/>
  <path class="cls-5" d="m64.12,69.38s.87-1.99,4.19-1.38,6.8,1.84,5.06,2.86c0,0-1.36.33-2.21-.01"/>
  <path class="cls-4" d="m114.12,88.4c1.02-3.43-2.09-6.21-2.09-6.21l-7.17,1s-.51,3.07.36,3.99c0,0,.29,2.09,1.89,2.6s5.31.72,6.16,0,.84-1.38.84-1.38Z"/>
  <rect class="cls-9" x="-1802.45" y="-68.12" width="2179.47" height="547.09"/>
</svg>