<?xml version="1.0" encoding="UTF-8"?>
<svg id="Calque_1" data-name="Calque 1" xmlns="http://www.w3.org/2000/svg" viewBox="0 0 128.13 128">
  <defs>
    <style>
      .cls-1, .cls-2, .cls-3, .cls-4, .cls-5, .cls-6, .cls-7 {
        stroke: #000;
      }

      .cls-1, .cls-2, .cls-3, .cls-4, .cls-5, .cls-6, .cls-7, .cls-8 {
        stroke-linecap: round;
        stroke-linejoin: round;
      }

      .cls-1, .cls-5 {
        fill: #87ccf3;
      }

      .cls-2, .cls-9 {
        fill: #bfe6fc;
      }

      .cls-3, .cls-6 {
        fill: #fff;
      }

      .cls-4, .cls-7, .cls-8 {
        fill: none;
      }

      .cls-5, .cls-6, .cls-7 {
        stroke-width: 2px;
      }

      .cls-8 {
        stroke: #fff;
        stroke-width: 8px;
      }
    </style>
  </defs>
  <g>
    <circle class="cls-9" cx="26.48" cy="95.02" r="2.69"/>
    <circle class="cls-9" cx="56.15" cy="100.9" r="2.69"/>
    <circle class="cls-9" cx="112.28" cy="79.41" r="2.69"/>
    <circle class="cls-9" cx="120.81" cy="62.21" r="2.69"/>
  </g>
  <line class="cls-4" x1="20.07" y1="15.94" x2="32.8" y2="27.49"/>
  <line class="cls-4" x1="10.62" y1="16.61" x2="23.35" y2="28.16"/>
  <line class="cls-4" x1="7.99" y1="23.47" x2="20.72" y2="35.02"/>
  <polygon class="cls-5" points="56.63 50.85 47.77 42.38 41.99 20.04 44.88 23.31 53.93 42.38 55.16 46.25 55.34 46.8 56.63 50.85"/>
  <polygon class="cls-5" points="49.5 49.54 25.78 49.46 24.6 47.41 47.98 46.25 49.5 49.54"/>
  <polygon class="cls-6" points="51.36 53.58 26.58 50.85 25.78 49.46 49.5 49.54 51.36 53.58"/>
  <polygon class="cls-5" points="68.2 36.05 55.16 46.25 53.92 42.38 66.95 35.45 68.2 36.05"/>
  <polygon class="cls-6" points="69.62 36.72 59.38 49.16 55.16 46.25 68.2 36.05 69.62 36.72"/>
  <path class="cls-5" d="m112.01,111.34c-3.19,3.56-16.29-2.06-20.04-4.87-3.74-2.81-10.23-10.4-11.92-11.15-1.68-.75-5.8-1.98-8.72-2.33-.97-.12-8.59-1.2-18.31-2.58-.98-.14-1.98-.28-2.99-.42-8.44-1.21-18.03-2.58-26.11-3.74-1.08-.15-2.13-.3-3.15-.45-8.64-1.23-14.89-2.13-14.89-2.13l-2.68-4.97,61.43.5-1.19-4.82-12.07-14.98v-5.82l-3.38-7.33-.22-3.87,8.86,8.47-1.29-4.05,4.05,2.36,24.55,22.1h.01l.22.2,6.87,6.18s3.8,3,7.07,5.71l.17.14c1.89,1.57,3.57,3.02,4.18,3.7,1.68,1.87,8.8,13.1,9.55,15.54.74,2.43,3.18,5.05,0,8.61Z"/>
  <polygon class="cls-7" points="56.63 50.85 47.77 42.38 55.34 46.8 56.63 50.85"/>
  <path class="cls-5" d="m124.93,42.3l-9,13.91-2.27,3.51-6.78,10.47-2.08,3.22-6.52,10.08-.17-.14-13.94-11.89-.22-.2c.44-.27,12.17-7.37,14.98-9.35,2.87-2.01,20.09-21.63,20.09-21.63l5.91,2.02Z"/>
  <path class="cls-7" d="m53.38,101.91c-.17-.37-.27-.79-.27-1.22,0-1.61,1.31-2.91,2.91-2.91.54,0,1.05.15,1.49.41"/>
  <path class="cls-7" d="m57.51,98.19c.4.23.73.56.97.95.28.45.45.98.45,1.55,0,1.6-1.3,2.91-2.91,2.91-.84,0-1.59-.35-2.12-.93l-.52-.76"/>
  <path class="cls-7" d="m53.9,102.67c-.21-.22-.39-.48-.52-.76l.52.76Z"/>
  <path class="cls-7" d="m53.38,101.91l-2.8-4.11c-.36-.28-.63-.67-.76-1.12-.07-.21-.1-.43-.1-.66,0-1.27,1.02-2.29,2.28-2.29.64,0,1.21.26,1.62.67l3.89,3.79"/>
  <line class="cls-7" x1="50.58" y1="97.8" x2="50.2" y2="97.24"/>
  <path class="cls-1" d="m54.34,97.07l-3.33-3.12-.81-.76-.17-3.2c1.01.14,2.01.28,2.99.42l.84,4.22.48,2.44Z"/>
  <path class="cls-7" d="m24.06,96.65c-.17-.37-.27-.79-.27-1.22,0-1.61,1.31-2.91,2.91-2.91.54,0,1.05.15,1.49.41"/>
  <path class="cls-7" d="m28.19,92.93c.4.23.73.56.97.95.28.45.45.98.45,1.55,0,1.6-1.3,2.91-2.91,2.91-.84,0-1.59-.35-2.12-.93l-.52-.76"/>
  <path class="cls-7" d="m24.58,97.41c-.21-.22-.39-.48-.52-.76l.52.76Z"/>
  <path class="cls-7" d="m24.06,96.65l-2.8-4.11c-.36-.28-.63-.67-.76-1.12-.07-.21-.1-.43-.1-.66,0-1.27,1.02-2.29,2.28-2.29.64,0,1.21.26,1.62.67l3.89,3.79"/>
  <line class="cls-7" x1="21.26" y1="92.54" x2="20.88" y2="91.98"/>
  <path class="cls-1" d="m25.02,91.8l-3.32-3.11-.82-.77-.11-2.12c1.02.15,2.07.3,3.15.45l.62,3.12.48,2.43Z"/>
  <path class="cls-7" d="m109.68,81.11c-.25-.32-.44-.71-.53-1.13-.36-1.57.63-3.13,2.19-3.48.53-.12,1.06-.09,1.54.07"/>
  <path class="cls-7" d="m112.88,76.57c.44.14.84.38,1.16.71.37.38.66.86.78,1.41.35,1.56-.62,3.13-2.19,3.48-.82.19-1.63.01-2.27-.44l-.68-.63"/>
  <path class="cls-7" d="m110.35,81.74c-.25-.17-.49-.38-.68-.63l.68.63Z"/>
  <path class="cls-7" d="m109.68,81.11l-3.64-3.39c-.41-.19-.76-.51-.99-.92-.11-.19-.19-.4-.24-.62-.28-1.24.49-2.46,1.72-2.74.62-.14,1.24-.01,1.73.29l4.63,2.83"/>
  <line class="cls-7" x1="106.04" y1="77.73" x2="105.54" y2="77.26"/>
  <polygon class="cls-1" points="109.54 76.18 105.61 73.88 104.8 73.41 106.88 70.19 108.53 73.91 109.54 76.18"/>
  <path class="cls-7" d="m118.2,63.91c-.25-.32-.44-.71-.53-1.13-.36-1.57.63-3.13,2.19-3.48.53-.12,1.06-.09,1.54.07"/>
  <path class="cls-7" d="m121.41,59.37c.44.14.84.38,1.16.71.37.38.66.86.78,1.41.35,1.56-.62,3.13-2.19,3.48-.82.19-1.63.01-2.27-.44l-.68-.63"/>
  <path class="cls-7" d="m118.88,64.53c-.25-.17-.49-.38-.68-.63l.68.63Z"/>
  <path class="cls-7" d="m115.93,56.21c.31.05.6.16.85.32l4.63,2.83"/>
  <path class="cls-7" d="m113.66,59.72c.22.35.54.63.91.8l3.64,3.39"/>
  <line class="cls-7" x1="114.56" y1="60.52" x2="114.07" y2="60.06"/>
  <path class="cls-2" d="m112.28,103.77s-.7,1.23-2.27,1.68c-1.57.45-2.74-.19-3.52.78-.78.97-.84,2.52,0,3.56s1.7,2.52,3.18,2.62,2.98-1.48,3.4-2.6.78-2.41.26-3.76-1.04-2.27-1.04-2.27Z"/>
  <path class="cls-4" d="m51.37,56.21l38.27,41.65c1.85,2.01,4.02,3.7,6.43,4.98l9.83,5.25"/>
  <path class="cls-4" d="m51.01,59.72l37.48,40.13c1.85,2.01,2.89,3.07,5.3,4.35l13.39,7.03"/>
  <polygon class="cls-3" points="77.62 94.44 71.17 87.96 8.24 81.74 6.47 78.73 3.2 78.7 5.88 83.67 44.99 88.8 77.62 94.44"/>
  <polygon class="cls-3" points="117.17 42.38 120.81 43.13 94.31 79.41 97.81 82.59 124.47 42.38 119.12 40.59 117.17 42.38"/>
  <polygon class="cls-3" points="94.06 91.91 95.52 93.37 93.61 97.47 91.76 95.56 94.06 91.91"/>
  <polygon class="cls-3" points="97.83 93.37 99.29 94.21 98.22 96.68 96.42 95.78 97.83 93.37"/>
  <polygon class="cls-3" points="100.52 94.44 103.5 94.44 105.54 92.24 107.17 94.69 104.44 96.96 99.29 97.75 100.52 94.44"/>
  <rect class="cls-8" x="-735.19" y="-3659.78" width="2244.45" height="5948.74"/>
</svg>