<?xml version="1.0" encoding="UTF-8"?>
<svg id="Calque_1" data-name="Calque 1" xmlns="http://www.w3.org/2000/svg" viewBox="0 0 128 128">
  <defs>
    <style>
      .cls-1, .cls-2, .cls-3, .cls-4 {
        stroke: #000;
      }

      .cls-1, .cls-2, .cls-3, .cls-4, .cls-5 {
        stroke-linecap: round;
        stroke-linejoin: round;
      }

      .cls-1, .cls-3, .cls-4, .cls-5 {
        fill: none;
      }

      .cls-2 {
        fill: #bfe6fc;
      }

      .cls-2, .cls-3 {
        stroke-width: 2px;
      }

      .cls-4 {
        stroke-dasharray: 0 0 5.45 5.45;
      }

      .cls-5 {
        stroke: #fff;
        stroke-width: 8px;
      }
    </style>
  </defs>
  <path class="cls-2" d="m18.84,80.89v11.64c0,6.14,2.86,11.6,7.34,15.12,1.13.89,2.35,1.66,3.66,2.28,2.5,1.19,5.3,1.86,8.26,1.86h51.71c2.51,0,4.91-.48,7.11-1.37,1.36-.53,2.64-1.22,3.82-2.04,5.03-3.48,8.32-9.28,8.32-15.85v-11.64s-90.23,0-90.23,0Z"/>
  <path class="cls-3" d="m24.75,90.54c0,8.82,7.15,15.96,15.96,15.96"/>
  <rect class="cls-2" x="13.6" y="74.2" width="100.8" height="6.69" rx="3.34" ry="3.34" transform="translate(128 155.09) rotate(-180)"/>
  <path class="cls-2" d="m57.27,36.38c0-4.88-5.12-8.84-11.45-8.84-6.33,0-11.46,3.96-11.46,8.84h22.9Z"/>
  <path class="cls-2" d="m96.93,110.42l5.25,7.71c.67.98,2.02,1.24,2.99.56.61-.42.94-1.09.94-1.78,0-.42-.12-.84-.37-1.21l-4.99-7.32c-1.18.82-2.46,1.51-3.82,2.04Z"/>
  <path class="cls-2" d="m20.31,116.91c0,.69.33,1.36.94,1.78.99.68,2.32.42,2.99-.56l5.6-8.2c-1.31-.62-2.54-1.39-3.66-2.28l-5.5,8.05c-.25.37-.37.79-.37,1.21Z"/>
  <g>
    <line class="cls-1" x1="46.37" y1="64.44" x2="46.37" y2="60.44"/>
    <line class="cls-4" x1="46.37" y1="54.99" x2="46.37" y2="46.82"/>
    <line class="cls-1" x1="46.37" y1="44.09" x2="46.37" y2="40.09"/>
  </g>
  <g>
    <line class="cls-1" x1="36.48" y1="64.44" x2="36.48" y2="60.44"/>
    <line class="cls-4" x1="36.48" y1="54.99" x2="36.48" y2="46.82"/>
    <line class="cls-1" x1="36.48" y1="44.09" x2="36.48" y2="40.09"/>
  </g>
  <g>
    <line class="cls-1" x1="55.59" y1="64.44" x2="55.59" y2="60.44"/>
    <line class="cls-4" x1="55.59" y1="54.99" x2="55.59" y2="46.82"/>
    <line class="cls-1" x1="55.59" y1="44.09" x2="55.59" y2="40.09"/>
  </g>
  <g>
    <line class="cls-1" x1="50.98" y1="70.78" x2="50.98" y2="66.78"/>
    <line class="cls-4" x1="50.98" y1="61.33" x2="50.98" y2="53.16"/>
    <line class="cls-1" x1="50.98" y1="50.43" x2="50.98" y2="46.43"/>
  </g>
  <g>
    <line class="cls-1" x1="41.57" y1="70.78" x2="41.57" y2="66.78"/>
    <line class="cls-4" x1="41.57" y1="61.33" x2="41.57" y2="53.16"/>
    <line class="cls-1" x1="41.57" y1="50.43" x2="41.57" y2="46.43"/>
  </g>
  <g>
    <line class="cls-3" x1="18.83" y1="22.94" x2="18.83" y2="74.2"/>
    <line class="cls-3" x1="45.82" y1="22.94" x2="45.82" y2="26.76"/>
    <path class="cls-3" d="m45.82,22.94c0-5.27-4.32-9.59-9.59-9.59h-7.81c-2.63,0-5.03,1.08-6.77,2.82-1.74,1.74-2.82,4.13-2.82,6.77"/>
  </g>
  <rect class="cls-5" x="-1744.37" y="-1884.35" width="6467.34" height="6437.3"/>
</svg>