<?xml version="1.0" encoding="UTF-8"?>
<svg id="Calque_1" data-name="Calque 1" xmlns="http://www.w3.org/2000/svg" viewBox="0 0 128 128">
  <defs>
    <style>
      .cls-1 {
        fill: #f3d587;
      }

      .cls-1, .cls-2, .cls-3, .cls-4 {
        stroke: #000;
      }

      .cls-1, .cls-5 {
        stroke-linecap: round;
        stroke-linejoin: round;
      }

      .cls-2 {
        fill: #b2f0e9;
      }

      .cls-2, .cls-3 {
        stroke-width: 2px;
      }

      .cls-2, .cls-3, .cls-4 {
        stroke-miterlimit: 10;
      }

      .cls-3 {
        fill: #77eddf;
      }

      .cls-5 {
        stroke: #fff;
        stroke-width: 8px;
      }

      .cls-5, .cls-4 {
        fill: none;
      }
    </style>
  </defs>
  <path class="cls-2" d="m32.35,100.84h52.89c1.62,0,3.1-.9,3.85-2.33,3.13-5.94,12.31-21.83,25.37-31,3.29-2.31,2.08-7.44-1.91-7.91-13.07-1.55-33.44-1.46-48.35,10.21-14.29,11.2-29.09,10.98-38.59,9.04-3.68-.75-6.54,3.14-4.68,6.4l7.64,13.39c.77,1.36,2.21,2.19,3.78,2.19Z"/>
  <path class="cls-3" d="m30.64,85.68c-7.2,0-12.56-1-13.8-1.25-2.51-.51-4.13-2.97-3.62-5.48.51-2.51,2.96-4.13,5.48-3.62,9.17,1.87,28.04,2.42,40.61-7.43,17.77-13.92,48.24-11.56,57.16-10.5,2.55.3,4.37,2.61,4.07,5.16-.3,2.55-2.61,4.37-5.16,4.07-16.53-1.95-38.44-.73-50.34,8.59-10.9,8.54-24.41,10.47-34.4,10.47Z"/>
  <path class="cls-4" d="m20.36,75.63s1.2-6.08,9.71-5.23c0,0,6.13-7.15,13.28-3.23,0,0,6.47-7.85,14.47-3.16,0,0,4.41-6.55,14.55-3.06"/>
  <circle class="cls-4" cx="49.01" cy="50.58" r="2.65"/>
  <circle class="cls-4" cx="59" cy="44.52" r="1.33"/>
  <circle class="cls-4" cx="50.33" cy="35.33" r="1.33"/>
  <path class="cls-1" d="m105.8,49.12h-10.96l-.08.05c.07-.24.12-.49.12-.75,0-1.42-1.15-2.57-2.57-2.57s-2.5,1.09-2.56,2.46l-1.51,1,1.93.52c.46.7,1.24,1.16,2.14,1.16-.02,1.05.26,5.43,6.28,5.43,8.53,0,7.22-7.3,7.22-7.3Z"/>
  <path class="cls-1" d="m95.98,51.41h5.74s.13,2.64-2.87,2.72"/>
  <rect class="cls-5" x="-787.16" y="-314.74" width="1215" height="875.1"/>
</svg>