<?xml version="1.0" encoding="UTF-8"?><svg id="Calque_1" xmlns="http://www.w3.org/2000/svg" viewBox="0 0 128 128.13"><defs><style>.cls-1,.cls-2,.cls-3{fill:#fff;}.cls-4{fill:#fce9b9;}.cls-5{stroke:#e30613;stroke-width:8px;}.cls-5,.cls-6,.cls-7{fill:none;}.cls-5,.cls-7,.cls-2,.cls-8{stroke-linecap:round;stroke-linejoin:round;}.cls-9{fill:#b8dfde;}.cls-9,.cls-6,.cls-10,.cls-7,.cls-2,.cls-3,.cls-8{stroke:#010101;}.cls-9,.cls-6,.cls-10,.cls-3{stroke-miterlimit:10;}.cls-10{fill:#8bcdcd;}.cls-11,.cls-8{fill:#f4d688;}.cls-12{fill:#f5afb5;}.cls-13{fill:#ed6d76;}.cls-14{fill:#010101;}</style></defs><rect class="cls-5" x="-186.01" y="-639.47" width="2655.08" height="1511.77"/><path class="cls-1" d="m52.91,86.45l4.57,3.85-5.19,4.01.88-2.65-3.25,2.51-.74-.07,1.95-2.43-2.73,2.1-1.13.68-.37-.9,3.15-3.09-.27-.34-2.71,2.26-1.05.86-.59-.58,1.89-2.27-1.56-.23v-.62l3.41-.32,2.3-1.41,1.46-1.35h0Z"/><path class="cls-1" d="m31.19,77.45l3.87,2.19v1.98s-6.94-1.95-6.94-1.95l3.06-2.21h0Z"/><path class="cls-2" d="m37.07,106.79c5.71-3.88,28.66-.4,32.52-9.16,3.85-8.77-3.44-12.54-3.44-12.54,0,0-1.24,1.66-3.63,3.01-2.39,1.36-4.4,2.16-5.49,3.04-2.73,2.27-6.16,5.36-5.45,3.41.18-.5.39-.93.59-1.26l-.98.44h-.01c-.96.62-2.16,1.32-2.54,1.12-.91.44-1.85.89-2.77,1.31-2.98,1.37-5.9,2.49-7.99,2.58-.22,0-.91.43-1.56.86-.48.31-.91.62-1.1.74-.26.17-.52.37-.8.59-5.21,3.97-3.05,9.74,2.67,5.88h-.01s-.01-.02-.01-.02Z"/><path class="cls-7" d="m52.28,93.1c-.08.04-.17.08-.26.12-.11.05-.21.09-.31.14"/><path class="cls-7" d="m52.8,85.92l-.09.13c-1.51,1.82-2.88,3.19-4.77,3.08-4.19-.26-2.64,2.01-.79,1.14-.29.2-3.11,2.13-1.68,3.06h-.02c.48.31.81.27,1.16.01-.37,2.47,1.92.87,2.09.75-.13.21-.21.42-.17.59.01.08.05.13.12.15.39.2,1.59-.49,2.54-1.12h.01c.2-.13.37-.24.53-.36.39-.26.67-.48.72-.5-.05.08-.1.15-.15.24-.04.05-.08.12-.11.18-.21.34-.41.76-.59,1.26-.71,1.95,5.63-3.57,5.71-3.65.26-.22.55-.44.83-.66"/><path class="cls-7" d="m53.37,91.91s-.43.24-.9.94"/><path class="cls-7" d="m31.05,76.82c-3.76,2.35-6.14,6.23-3.65,6.49"/><path class="cls-7" d="m66.34,84.62c8.09-6.53,2.05-22.92,2.05-22.92-3-9.6-9.5-6.94-10.4-9.29"/><path class="cls-7" d="m50.04,90.3c-1.97.91-2.68,2.48-3.44,3.05"/><path class="cls-7" d="m47.12,90.27s.01-.01.02-.01"/><path class="cls-7" d="m51.12,91.9s-1.83,1.22-2.41,2.19"/><path class="cls-7" d="m53.71,84.84h.01"/><path class="cls-7" d="m55.88,82.46h.02"/><path class="cls-2" d="m58.11,90.23s4.96-2.19,6.88-3.97c0,0,2.01-2.03,3.25-3.57"/><path class="cls-2" d="m36.24,79.96l2.04-3.27v.02h0s1.09,2.46-.61,6.43c0,0-5.11,10.59-1.35,16.44,0,0,0,.01.01.02,3.24-1.91,3.41-.08,7.46-2.31.84-.45,1.51-.84,2.08-1.15l2.66-1.47c-.04-.17.04-.37.17-.59-.17.13-2.48,1.72-2.09-.75-.35.26-.68.3-1.16,0-1.43-.93,1.38-2.88,1.68-3.06-1.85.89-3.41-1.38.79-1.14,1.91.12,3.27-1.26,4.77-3.08l.09-.13"/><path class="cls-2" d="m47.33,52.53s0,.04,0,0c.02-.1-1.99.27-6.59,3.5h-.01c-.1.08-.21.15-.31.23-.07.05-.13.12-.21.2-4.58,4.16-9.17,20.36-9.17,20.36"/><path class="cls-7" d="m36.24,79.96s-.22,7.73-1.81,5.78c-1.59-1.95-.99-4.85-3.12-2.44-2.13,2.41-1.74,3.98-2.58,2.42-.84-1.56.8-3.57.8-3.57"/><path class="cls-7" d="m27.96,84.39s-3.98,4.37-2.2.36l1.4-2.14"/><path class="cls-1" d="m30.82,100.05c1.68.5,2.31,1.55,2.31,1.55-.91,1.05-1.91,3.04-1.78,4.23.3,2.66-15.01-.9-12.1-5.84,1.47-2.49,7.92-.94,7.92-.94"/><path class="cls-7" d="m30.82,100.05c1.68.5,2.31,1.55,2.31,1.55-.91,1.05-1.91,3.04-1.78,4.23.3,2.66-15.01-.9-12.1-5.84,1.47-2.49,7.92-.94,7.92-.94"/><path class="cls-1" d="m28.46,88.29s3.05-.68,3.29,5.72c.07,1.6,0,6.45,0,6.45,0,0-4.08-1.62-7.86-1.86,0,0-3.74-6.21-4.73-13.72-.99-7.52,7.54-5.31,7.54-5.31l11.18,2.98s-5.04,10.32-1.57,17.03l-1.09.74s-1.72-1.43-3.17-3.54"/><path class="cls-7" d="m28.46,88.29s3.05-.68,3.29,5.72c.07,1.6,0,6.45,0,6.45,0,0-4.08-1.62-7.86-1.86,0,0-3.74-6.21-4.73-13.72-.99-7.52,7.54-5.31,7.54-5.31l11.18,2.98s-5.04,10.32-1.57,17.03l-1.09.74s-1.72-1.43-3.17-3.54"/><path class="cls-4" d="m38.27,76.71c1.5-2.73,3.81-8.45,5.31-11.32l-5.31,11.32Z"/><path class="cls-7" d="m38.27,76.71c1.5-2.73,3.81-8.45,5.31-11.32"/><path class="cls-7" d="m60.55,62.79s-.62,11.45-.04,16.36c0,0-.88-.23-4.31,2.99-.11.09-1.53,1.46-1.63,1.56l-1.87,2.35"/><path class="cls-12" d="m41.7,50.41h.02v-.02.02h-.02Z"/><path class="cls-1" d="m57.7,52.02c-.9-2.35,0-8.87,0-8.87,5.93-8.84,3.72-15.95-1.56-19.93-5.28-3.98-16.76-6.98-23.49,4.14-6.74,11.1,3.28,15.89,3.28,15.89,0,0,.93,1.42-.11,2.61-1.03,1.19,1.59,2.04,1.59,2.04,0,0,1.4,4.73,4.41,6.24,0,0,1.68.91,3.56.4,1.89-.5,3.74-2.12,3.74-2.12"/><path class="cls-7" d="m58,52.41c-.9-2.35-.29-9.26-.29-9.26,5.93-8.84,3.72-15.95-1.56-19.93-5.28-3.98-16.76-6.98-23.49,4.14-6.74,11.1,3.28,15.89,3.28,15.89,0,0,.93,1.42-.11,2.61-1.03,1.19,1.59,2.04,1.59,2.04,0,0,1.4,4.73,4.41,6.24,0,0,1.68.91,3.56.4,1.89-.5,3.74-2.12,3.74-2.12"/><path class="cls-7" d="m51.07,37.15s3.33-1.67,3.95,1.83c.62,3.49-2.46,2.96-2.46,2.96"/><path class="cls-14" d="m39.37,44.2c-.45,0-.81-.36-.81-.81,0-.45.36-.81.81-.81s.81.36.81.81c0,.45-.36.81-.81.81Z"/><path class="cls-7" d="m40.33,40.56s-1.65-1.33-3.12.32"/><path class="cls-7" d="m52.93,39.17l-.74.26"/><path class="cls-12" d="m44.76,44.75c-.95,0-1.72-.77-1.72-1.72,0-.94.77-1.72,1.72-1.72s1.72.77,1.72,1.72-.77,1.72-1.72,1.72Z"/><path class="cls-13" d="m41.71,50.39c.5.36,1.31.39,2.04-.22.59-.49.81-1.03.89-1.48h-.02s-.05,0-.09-.01c-.08,0-.18-.03-.32-.04h-.15c-.1,0-.21,0-.32.01-.23.03-.49.11-.75.24-.07.04-.13.07-.2.12-.05.02-.09.05-.14.1-.35.26-.68.67-.94,1.29h.01s0-.01,0-.01Z"/><path class="cls-12" d="m41.71,50.39c.26-.62.59-1.02.94-1.29.04-.04.09-.08.14-.1.07-.05.13-.08.2-.12.26-.14.52-.21.75-.24.12-.01.22-.03.32-.01h.15c.14,0,.24.02.32.04.04,0,.08,0,.09.01h.03c.1-.63-.11-1.11-.11-1.11-.93-1.33-2.74.64-2.74.64-.91.81-.74,1.76-.11,2.19h0s0,.01,0,.01Z"/><path class="cls-6" d="m41.87,48.26s1.81-1.97,2.74-.64c0,0,.21.48.1,1.11-.08.46-.3.99-.89,1.48-.72.62-1.53.58-2.04.22-.63-.44-.81-1.37.11-2.19"/><path class="cls-7" d="m30.33,35.15s7.24,2.83,12.37-1.54c0,0,1.95,3.89,6.43,1.31"/><path class="cls-9" d="m26.56,114.1h59.86c1.83,0,3.51-1.02,4.36-2.64,3.54-6.72,13.93-24.71,28.71-35.09,3.72-2.62,2.35-8.42-2.16-8.95-14.79-1.75-37.85-1.65-54.72,11.56-16.17,12.67-32.92,12.43-43.67,10.23-4.16-.85-7.4,3.56-5.3,7.25l8.65,15.15c.87,1.54,2.5,2.48,4.28,2.48h0s0,.01,0,.01Z"/><path class="cls-10" d="m126.37,70.78c-.34,2.87-2.94,4.94-5.82,4.61h-.02c-18.71-2.21-43.51-.83-56.97,9.72-12.34,9.67-27.63,11.85-38.93,11.85v-.02c-4.47,0-8.31-.34-11.1-.69-2.3-.3-3.89-.59-4.52-.72-2.84-.58-4.68-3.36-4.1-6.2.58-2.84,3.35-4.68,6.2-4.1.59.12,1.22.24,1.89.34,10.91,1.81,30.66,1.76,44.08-8.75,4.38-3.43,9.44-5.99,14.78-7.87h.01c19.19-6.79,42-4.95,49.9-4.01,2.88.34,4.94,2.96,4.6,5.84Z"/><path class="cls-3" d="m71.86,68.95c-5.34,1.88-10.4,4.44-14.78,7.87-13.42,10.51-33.17,10.56-44.08,8.75,0,0,1.36-6.88,10.99-5.92,0,0,6.94-8.1,15.03-3.66,0,0,7.32-8.89,16.38-3.58,0,0,4.99-7.41,16.46-3.46Z"/><line class="cls-6" x1="71.87" y1="68.95" x2="71.86" y2="68.95"/><path class="cls-3" d="m77.82,59.51c1.66,0,3-1.35,3-3s-1.35-3-3-3-3,1.35-3,3,1.35,3,3,3Z"/><path class="cls-3" d="m80.82,38.67c.83,0,1.51-.67,1.51-1.51s-.67-1.51-1.51-1.51-1.51.67-1.51,1.51.67,1.51,1.51,1.51Z"/><path class="cls-3" d="m67.72,52.03c.61,0,1.11-.49,1.11-1.11s-.49-1.11-1.11-1.11-1.11.49-1.11,1.11.49,1.11,1.11,1.11Z"/><path class="cls-3" d="m22.88,68.95c.83,0,1.51-.67,1.51-1.51s-.67-1.51-1.51-1.51-1.51.67-1.51,1.51.67,1.51,1.51,1.51Z"/><path class="cls-8" d="m109.69,55.56h-12.4l-.09.06c.08-.27.13-.55.13-.85,0-1.61-1.3-2.91-2.91-2.91s-2.83,1.23-2.9,2.78l-1.71,1.13,2.18.59c.52.79,1.41,1.31,2.42,1.31-.02,1.19.29,6.15,7.11,6.15,9.65,0,8.17-8.26,8.17-8.26h-.01,0Z"/><path class="cls-11" d="m98.58,58.16h6.49s.15,2.99-3.25,3.08l-3.24-3.08Z"/><path class="cls-7" d="m98.58,58.16h6.49s.15,2.99-3.25,3.08"/></svg>