<?xml version="1.0" encoding="UTF-8"?>
<svg id="Calque_1" data-name="Calque 1" xmlns="http://www.w3.org/2000/svg" viewBox="0 0 200 128">
  <defs>
    <style>
      .cls-1 {
        fill: #fab0b4;
      }

      .cls-2, .cls-3 {
        fill: #ff6d75;
      }

      .cls-4 {
        fill: #b4eac3;
      }

      .cls-5 {
        fill: #b2f0e9;
      }

      .cls-6, .cls-7 {
        fill: #d6d6d6;
      }

      .cls-8 {
        fill: #e1e1e1;
      }

      .cls-9, .cls-10 {
        fill: #87ccf3;
      }

      .cls-10 {
        stroke: #87ccf3;
        stroke-width: .5px;
      }

      .cls-10, .cls-3, .cls-7, .cls-11 {
        stroke-miterlimit: 10;
      }

      .cls-3, .cls-7, .cls-11 {
        stroke: #000;
      }

      .cls-11 {
        fill: #8987f3;
      }

      .cls-12 {
        fill: none;
        stroke: #fff;
        stroke-linecap: round;
        stroke-linejoin: round;
        stroke-width: 8px;
      }
    </style>
  </defs>
  <g>
    <rect class="cls-4" x="129.99" y="42.11" width="4.21" height="4.21"/>
    <rect class="cls-4" x="135.56" y="42.11" width="4.21" height="4.21"/>
    <rect class="cls-4" x="141.14" y="42.11" width="4.21" height="4.21"/>
    <rect class="cls-4" x="146.71" y="42.11" width="4.21" height="4.21"/>
    <rect class="cls-4" x="152.28" y="42.11" width="4.21" height="4.21"/>
    <rect class="cls-4" x="157.86" y="42.11" width="4.21" height="4.21"/>
    <rect class="cls-4" x="163.43" y="42.11" width="4.21" height="4.21"/>
    <rect class="cls-4" x="169.01" y="42.11" width="4.21" height="4.21"/>
    <rect class="cls-4" x="174.58" y="42.11" width="4.21" height="4.21"/>
    <rect class="cls-4" x="180.16" y="42.11" width="4.21" height="4.21"/>
    <rect class="cls-4" x="129.99" y="47.49" width="4.21" height="4.21"/>
    <rect class="cls-4" x="135.56" y="47.49" width="4.21" height="4.21"/>
    <rect class="cls-4" x="141.14" y="47.49" width="4.21" height="4.21"/>
    <rect class="cls-4" x="146.71" y="47.49" width="4.21" height="4.21"/>
    <rect class="cls-4" x="152.28" y="47.49" width="4.21" height="4.21"/>
    <rect class="cls-4" x="157.86" y="47.49" width="4.21" height="4.21"/>
    <rect class="cls-4" x="163.43" y="47.49" width="4.21" height="4.21"/>
    <rect class="cls-4" x="169.01" y="47.49" width="4.21" height="4.21"/>
    <rect class="cls-4" x="174.58" y="47.49" width="4.21" height="4.21"/>
    <rect class="cls-4" x="180.16" y="47.49" width="4.21" height="4.21"/>
    <rect class="cls-4" x="129.99" y="52.86" width="4.21" height="4.21"/>
    <rect class="cls-4" x="135.56" y="52.86" width="4.21" height="4.21"/>
    <rect class="cls-4" x="141.14" y="52.86" width="4.21" height="4.21"/>
    <rect class="cls-4" x="146.71" y="52.86" width="4.21" height="4.21"/>
    <rect class="cls-4" x="152.28" y="52.86" width="4.21" height="4.21"/>
    <rect class="cls-4" x="157.86" y="52.86" width="4.21" height="4.21"/>
    <rect class="cls-4" x="163.43" y="52.86" width="4.21" height="4.21"/>
    <rect class="cls-4" x="169.01" y="52.86" width="4.21" height="4.21"/>
    <rect class="cls-4" x="174.58" y="52.86" width="4.21" height="4.21"/>
    <rect class="cls-4" x="180.16" y="52.86" width="4.21" height="4.21"/>
    <rect class="cls-4" x="129.99" y="58.23" width="4.21" height="4.21"/>
    <rect class="cls-4" x="135.56" y="58.23" width="4.21" height="4.21"/>
    <rect class="cls-4" x="141.14" y="58.23" width="4.21" height="4.21"/>
    <rect class="cls-4" x="146.71" y="58.23" width="4.21" height="4.21"/>
    <rect class="cls-4" x="152.28" y="58.23" width="4.21" height="4.21"/>
    <rect class="cls-4" x="157.86" y="58.23" width="4.21" height="4.21"/>
    <rect class="cls-4" x="163.43" y="58.23" width="4.21" height="4.21"/>
    <rect class="cls-4" x="169.01" y="58.23" width="4.21" height="4.21"/>
    <rect class="cls-4" x="174.58" y="58.23" width="4.21" height="4.21"/>
    <rect class="cls-4" x="180.16" y="58.23" width="4.21" height="4.21"/>
    <rect class="cls-4" x="129.99" y="63.6" width="4.21" height="4.21"/>
    <rect class="cls-4" x="135.56" y="63.6" width="4.21" height="4.21"/>
    <rect class="cls-4" x="141.14" y="63.6" width="4.21" height="4.21"/>
    <rect class="cls-4" x="146.71" y="63.6" width="4.21" height="4.21"/>
    <rect class="cls-4" x="152.28" y="63.6" width="4.21" height="4.21"/>
    <rect class="cls-4" x="157.86" y="63.6" width="4.21" height="4.21"/>
    <rect class="cls-4" x="163.43" y="63.6" width="4.21" height="4.21"/>
    <rect class="cls-4" x="169.01" y="63.6" width="4.21" height="4.21"/>
    <rect class="cls-4" x="174.58" y="63.6" width="4.21" height="4.21"/>
    <rect class="cls-4" x="180.16" y="63.6" width="4.21" height="4.21"/>
    <rect class="cls-4" x="129.99" y="68.98" width="4.21" height="4.21"/>
    <rect class="cls-4" x="135.56" y="68.98" width="4.21" height="4.21"/>
    <rect class="cls-4" x="141.14" y="68.98" width="4.21" height="4.21"/>
    <rect class="cls-4" x="146.71" y="68.98" width="4.21" height="4.21"/>
    <rect class="cls-4" x="152.28" y="68.98" width="4.21" height="4.21"/>
    <rect class="cls-4" x="157.86" y="68.98" width="4.21" height="4.21"/>
    <rect class="cls-4" x="163.43" y="68.98" width="4.21" height="4.21"/>
    <rect class="cls-4" x="169.01" y="68.98" width="4.21" height="4.21"/>
    <rect class="cls-4" x="174.58" y="68.98" width="4.21" height="4.21"/>
    <rect class="cls-4" x="180.16" y="68.98" width="4.21" height="4.21"/>
    <rect class="cls-4" x="129.99" y="74.35" width="4.21" height="4.21"/>
    <rect class="cls-4" x="135.56" y="74.35" width="4.21" height="4.21"/>
    <rect class="cls-4" x="141.14" y="74.35" width="4.21" height="4.21"/>
    <rect class="cls-4" x="146.71" y="74.35" width="4.21" height="4.21"/>
    <rect class="cls-4" x="152.28" y="74.35" width="4.21" height="4.21"/>
    <rect class="cls-4" x="157.86" y="74.35" width="4.21" height="4.21"/>
    <rect class="cls-4" x="163.43" y="74.35" width="4.21" height="4.21"/>
    <rect class="cls-4" x="169.01" y="74.35" width="4.21" height="4.21"/>
    <rect class="cls-4" x="174.58" y="74.35" width="4.21" height="4.21"/>
    <rect class="cls-4" x="180.16" y="74.35" width="4.21" height="4.21"/>
    <rect class="cls-4" x="129.99" y="79.72" width="4.21" height="4.21"/>
    <rect class="cls-4" x="135.56" y="79.72" width="4.21" height="4.21"/>
    <rect class="cls-4" x="141.14" y="79.72" width="4.21" height="4.21"/>
    <rect class="cls-4" x="146.71" y="79.72" width="4.21" height="4.21"/>
    <rect class="cls-4" x="152.28" y="79.72" width="4.21" height="4.21"/>
    <rect class="cls-4" x="157.86" y="79.72" width="4.21" height="4.21"/>
    <rect class="cls-4" x="163.43" y="79.72" width="4.21" height="4.21"/>
    <rect class="cls-4" x="169.01" y="79.72" width="4.21" height="4.21"/>
    <rect class="cls-4" x="174.58" y="79.72" width="4.21" height="4.21"/>
    <rect class="cls-4" x="180.16" y="79.72" width="4.21" height="4.21"/>
    <rect class="cls-4" x="129.99" y="85.09" width="4.21" height="4.21"/>
    <rect class="cls-4" x="135.56" y="85.09" width="4.21" height="4.21"/>
    <rect class="cls-4" x="141.14" y="85.09" width="4.21" height="4.21"/>
    <rect class="cls-4" x="146.71" y="85.09" width="4.21" height="4.21"/>
    <rect class="cls-4" x="152.28" y="85.09" width="4.21" height="4.21"/>
    <rect class="cls-4" x="157.86" y="85.09" width="4.21" height="4.21"/>
    <rect class="cls-4" x="163.43" y="85.09" width="4.21" height="4.21"/>
    <rect class="cls-4" x="169.01" y="85.09" width="4.21" height="4.21"/>
    <rect class="cls-4" x="174.58" y="85.09" width="4.21" height="4.21"/>
    <rect class="cls-4" x="180.16" y="85.09" width="4.21" height="4.21"/>
    <g>
      <path class="cls-2" d="m139.31,63.82c-.08,0-.15-.02-.23-.05-.16-.08-.27-.25-.27-.44l-.09-4.07c0-.2.11-.38.29-.46.07-.03.14-.05.21-.05.12,0,.24.04.33.12l1.33,1.17c.11.1.17.23.17.38v2.03c0,.16-.08.32-.21.41l-1.24.87c-.09.06-.19.09-.29.09Z"/>
      <path d="m139.22,59.25l1.33,1.17v2.03l-1.24.87-.09-4.07m0-1c-.14,0-.29.03-.42.09-.36.17-.59.53-.58.93l.09,4.07c0,.37.22.7.55.87.14.07.3.11.45.11.2,0,.4-.06.57-.18l1.24-.87c.27-.19.43-.49.43-.82v-2.03c0-.29-.12-.56-.34-.75l-1.33-1.17c-.19-.16-.42-.25-.66-.25h0Z"/>
    </g>
    <g>
      <path class="cls-6" d="m134.95,65.35c-.07,0-.15-.02-.22-.05-.18-.08-.29-.27-.28-.46l.16-7.38c0-.2.13-.38.32-.46.06-.02.12-.03.18-.03.14,0,.27.06.37.16.78.84,1.3,1.65,1.57,2.47l1.98-.81c.06-.03.13-.04.19-.04.1,0,.19.03.27.08.14.09.22.24.23.41l.09,4.07c0,.17-.08.33-.21.42-.08.06-.19.09-.29.09-.06,0-.12-.01-.18-.03l-2.22-.87c-.34.9-.9,1.71-1.63,2.32-.09.08-.21.12-.32.12Z"/>
      <path d="m135.11,57.47c.76.82,1.4,1.76,1.6,2.81l2.51-1.03.09,4.07-2.72-1.07c-.27,1-.84,1.92-1.64,2.6.05-2.45.11-4.92.16-7.38m0-1c-.12,0-.24.02-.36.07-.38.15-.63.51-.64.91l-.08,3.69-.08,3.69c0,.39.21.75.57.92.14.07.28.1.43.1.23,0,.46-.08.65-.24.66-.56,1.2-1.27,1.57-2.06l1.77.7c.12.05.24.07.36.07.2,0,.4-.06.57-.18.27-.19.43-.51.43-.84l-.09-4.07c0-.33-.18-.63-.45-.81-.17-.11-.36-.16-.55-.16-.13,0-.26.02-.38.08l-1.51.62c-.32-.72-.81-1.43-1.49-2.16-.19-.21-.46-.32-.73-.32h0Z"/>
    </g>
    <g>
      <path class="cls-9" d="m139.31,53.51c-.08,0-.15-.02-.23-.05-.16-.08-.27-.25-.27-.44l-.09-4.07c0-.2.11-.38.29-.46.07-.03.14-.05.21-.05.12,0,.24.04.33.12l1.33,1.17c.11.1.17.23.17.38v2.03c0,.16-.08.32-.21.41l-1.24.87c-.09.06-.19.09-.29.09Z"/>
      <path d="m139.22,48.93l1.33,1.17v2.03l-1.24.87-.09-4.07m0-1c-.14,0-.29.03-.42.09-.36.17-.59.53-.58.93l.09,4.07c0,.37.22.7.55.87.14.07.3.11.45.11.2,0,.4-.06.57-.18l1.24-.87c.27-.19.43-.49.43-.82v-2.03c0-.29-.12-.56-.34-.75l-1.33-1.17c-.19-.16-.42-.25-.66-.25h0Z"/>
    </g>
    <g>
      <path class="cls-6" d="m134.95,55.03c-.07,0-.15-.02-.22-.05-.18-.08-.29-.27-.28-.46l.16-7.4c0-.2.13-.39.32-.46.06-.02.12-.03.18-.03.14,0,.27.06.37.16.8.87,1.31,1.67,1.57,2.48l1.98-.81c.06-.03.13-.04.19-.04.1,0,.19.03.27.08.14.09.22.24.23.41l.09,4.07c0,.17-.08.33-.21.42-.08.06-.19.09-.29.09-.06,0-.12-.01-.18-.03l-2.22-.87c-.34.9-.9,1.71-1.63,2.32-.09.08-.21.12-.32.12Z"/>
      <path d="m135.11,47.14c.76.84,1.4,1.76,1.6,2.83l2.51-1.03.09,4.07-2.72-1.07c-.27,1-.84,1.92-1.64,2.6.05-2.45.11-4.92.16-7.4m0-1c-.12,0-.24.02-.35.06-.38.14-.64.51-.65.91l-.16,7.4c0,.39.21.75.57.92.14.07.28.1.43.1.23,0,.46-.08.65-.24.66-.56,1.2-1.27,1.57-2.06l1.77.7c.12.05.24.07.36.07.2,0,.4-.06.57-.18.27-.19.43-.51.43-.84l-.09-4.07c0-.33-.18-.63-.45-.81-.17-.11-.36-.16-.55-.16-.13,0-.26.02-.38.08l-1.5.62c-.31-.71-.8-1.42-1.49-2.16-.19-.21-.46-.32-.74-.32h0Z"/>
    </g>
    <g>
      <path class="cls-8" d="m133.41,114.76V10.71c0-.58.47-1.05,1.05-1.05h21.61c.88,0,1.59.72,1.59,1.59v3.78h-2.09v-3.24h-20.03v102.96h-2.12Z"/>
      <path d="m156.07,10.16c.6,0,1.09.49,1.09,1.09v3.28h-1.09v-3.24h-21.03v102.96h-1.12V10.71c0-.3.25-.55.55-.55h21.61m0-1h-21.61c-.85,0-1.55.69-1.55,1.55v104.55h3.12V12.3h19.03v3.24h3.09v-4.24c0-1.2-.94-2.14-2.09-2.14h0Z"/>
    </g>
    <g>
      <rect class="cls-8" x="149.64" y="13.96" width="14.55" height="2.06"/>
      <path d="m163.69,14.46v1.07h-13.55v-1.07h13.55m1-1h-15.55v3.07h15.55v-3.07h0Z"/>
    </g>
    <path class="cls-10" d="m156.81,19.23s-.07-.37-.07-.82.03-.82.07-.82.07.37.07.82-.03.82-.07.82Z"/>
    <path class="cls-10" d="m150.71,19.69s-.07-.5-.07-1.12.03-1.12.07-1.12.07.5.07,1.12-.03,1.12-.07,1.12Z"/>
    <path class="cls-10" d="m152.86,21.03s-.07-.38-.07-.86.03-.86.07-.86.07.38.07.86-.03.86-.07.86Z"/>
    <path class="cls-10" d="m150.86,25.47s-.07-.28-.07-.62.03-.62.07-.62.07.28.07.62-.03.62-.07.62Z"/>
    <path class="cls-10" d="m154.25,24.47s-.07-.41-.07-.91.03-.91.07-.91.07.41.07.91-.03.91-.07.91Z"/>
    <path class="cls-10" d="m159.69,20.46s-.07-.37-.07-.84.03-.84.07-.84.07.37.07.84-.03.84-.07.84Z"/>
    <path class="cls-10" d="m162.32,19.74s-.07-.47-.07-1.05.03-1.05.07-1.05.07.47.07,1.05-.03,1.05-.07,1.05Z"/>
    <path class="cls-10" d="m156.22,30.64s.07-.37.07-.82-.03-.82-.07-.82-.07.37-.07.82.03.82.07.82Z"/>
    <path class="cls-10" d="m162.32,31.1s.07-.5.07-1.12c0-.62-.03-1.12-.07-1.12s-.07.5-.07,1.12.03,1.12.07,1.12Z"/>
    <path class="cls-10" d="m160.17,32.44s.07-.38.07-.86-.03-.86-.07-.86-.07.38-.07.86.03.86.07.86Z"/>
    <path class="cls-10" d="m162.18,36.88s.07-.28.07-.62c0-.34-.03-.62-.07-.62s-.07.28-.07.62.03.62.07.62Z"/>
    <path class="cls-10" d="m158.78,35.88s.07-.41.07-.91-.03-.91-.07-.91-.07.41-.07.91.03.91.07.91Z"/>
    <path class="cls-10" d="m153.34,31.87s.07-.37.07-.84-.03-.84-.07-.84-.07.37-.07.84.03.84.07.84Z"/>
    <path class="cls-10" d="m150.71,31.15s.07-.47.07-1.05-.03-1.05-.07-1.05-.07.47-.07,1.05c0,.58.03,1.05.07,1.05Z"/>
    <rect class="cls-3" x="127.23" y="8.8" width="2.38" height="105.91"/>
    <rect class="cls-5" x="14.17" y="41.77" width="4.21" height="4.21"/>
    <rect class="cls-5" x="19.74" y="41.77" width="4.21" height="4.21"/>
    <rect class="cls-5" x="25.32" y="41.77" width="4.21" height="4.21"/>
    <rect class="cls-5" x="30.89" y="41.77" width="4.21" height="4.21"/>
    <rect class="cls-5" x="36.47" y="41.77" width="4.21" height="4.21"/>
    <rect class="cls-5" x="42.04" y="41.77" width="4.21" height="4.21"/>
    <rect class="cls-5" x="47.62" y="41.77" width="4.21" height="4.21"/>
    <rect class="cls-5" x="53.19" y="41.77" width="4.21" height="4.21"/>
    <rect class="cls-5" x="58.76" y="41.77" width="4.21" height="4.21"/>
    <rect class="cls-5" x="64.34" y="41.77" width="4.21" height="4.21"/>
    <rect class="cls-5" x="14.17" y="47.15" width="4.21" height="4.21"/>
    <rect class="cls-5" x="19.74" y="47.15" width="4.21" height="4.21"/>
    <rect class="cls-5" x="25.32" y="47.15" width="4.21" height="4.21"/>
    <rect class="cls-5" x="30.89" y="47.15" width="4.21" height="4.21"/>
    <rect class="cls-5" x="36.47" y="47.15" width="4.21" height="4.21"/>
    <rect class="cls-5" x="42.04" y="47.15" width="4.21" height="4.21"/>
    <rect class="cls-5" x="47.62" y="47.15" width="4.21" height="4.21"/>
    <rect class="cls-5" x="53.19" y="47.15" width="4.21" height="4.21"/>
    <rect class="cls-5" x="58.76" y="47.15" width="4.21" height="4.21"/>
    <rect class="cls-5" x="64.34" y="47.15" width="4.21" height="4.21"/>
    <rect class="cls-5" x="14.17" y="52.52" width="4.21" height="4.21"/>
    <rect class="cls-5" x="19.74" y="52.52" width="4.21" height="4.21"/>
    <rect class="cls-5" x="25.32" y="52.52" width="4.21" height="4.21"/>
    <rect class="cls-5" x="30.89" y="52.52" width="4.21" height="4.21"/>
    <rect class="cls-5" x="36.47" y="52.52" width="4.21" height="4.21"/>
    <rect class="cls-5" x="42.04" y="52.52" width="4.21" height="4.21"/>
    <rect class="cls-5" x="47.62" y="52.52" width="4.21" height="4.21"/>
    <rect class="cls-5" x="53.19" y="52.52" width="4.21" height="4.21"/>
    <rect class="cls-5" x="58.76" y="52.52" width="4.21" height="4.21"/>
    <rect class="cls-5" x="64.34" y="52.52" width="4.21" height="4.21"/>
    <rect class="cls-5" x="14.17" y="57.89" width="4.21" height="4.21"/>
    <rect class="cls-5" x="19.74" y="57.89" width="4.21" height="4.21"/>
    <rect class="cls-5" x="25.32" y="57.89" width="4.21" height="4.21"/>
    <rect class="cls-5" x="30.89" y="57.89" width="4.21" height="4.21"/>
    <rect class="cls-5" x="36.47" y="57.89" width="4.21" height="4.21"/>
    <rect class="cls-5" x="42.04" y="57.89" width="4.21" height="4.21"/>
    <rect class="cls-5" x="47.62" y="57.89" width="4.21" height="4.21"/>
    <rect class="cls-5" x="53.19" y="57.89" width="4.21" height="4.21"/>
    <rect class="cls-5" x="58.76" y="57.89" width="4.21" height="4.21"/>
    <rect class="cls-5" x="64.34" y="57.89" width="4.21" height="4.21"/>
    <rect class="cls-5" x="14.17" y="63.26" width="4.21" height="4.21"/>
    <rect class="cls-5" x="19.74" y="63.26" width="4.21" height="4.21"/>
    <rect class="cls-5" x="25.32" y="63.26" width="4.21" height="4.21"/>
    <rect class="cls-5" x="30.89" y="63.26" width="4.21" height="4.21"/>
    <rect class="cls-5" x="36.47" y="63.26" width="4.21" height="4.21"/>
    <rect class="cls-5" x="42.04" y="63.26" width="4.21" height="4.21"/>
    <rect class="cls-5" x="47.62" y="63.26" width="4.21" height="4.21"/>
    <rect class="cls-5" x="53.19" y="63.26" width="4.21" height="4.21"/>
    <rect class="cls-5" x="58.76" y="63.26" width="4.21" height="4.21"/>
    <rect class="cls-5" x="64.34" y="63.26" width="4.21" height="4.21"/>
    <rect class="cls-5" x="14.17" y="68.63" width="4.21" height="4.21"/>
    <rect class="cls-5" x="19.74" y="68.63" width="4.21" height="4.21"/>
    <rect class="cls-5" x="25.32" y="68.63" width="4.21" height="4.21"/>
    <rect class="cls-5" x="30.89" y="68.63" width="4.21" height="4.21"/>
    <rect class="cls-5" x="36.47" y="68.63" width="4.21" height="4.21"/>
    <rect class="cls-5" x="42.04" y="68.63" width="4.21" height="4.21"/>
    <rect class="cls-5" x="47.62" y="68.63" width="4.21" height="4.21"/>
    <rect class="cls-5" x="53.19" y="68.63" width="4.21" height="4.21"/>
    <rect class="cls-5" x="58.76" y="68.63" width="4.21" height="4.21"/>
    <rect class="cls-5" x="64.34" y="68.63" width="4.21" height="4.21"/>
    <rect class="cls-5" x="14.17" y="74.01" width="4.21" height="4.21"/>
    <rect class="cls-5" x="19.74" y="74.01" width="4.21" height="4.21"/>
    <rect class="cls-5" x="25.32" y="74.01" width="4.21" height="4.21"/>
    <rect class="cls-5" x="30.89" y="74.01" width="4.21" height="4.21"/>
    <rect class="cls-5" x="36.47" y="74.01" width="4.21" height="4.21"/>
    <rect class="cls-5" x="42.04" y="74.01" width="4.21" height="4.21"/>
    <rect class="cls-5" x="47.62" y="74.01" width="4.21" height="4.21"/>
    <rect class="cls-5" x="53.19" y="74.01" width="4.21" height="4.21"/>
    <rect class="cls-5" x="58.76" y="74.01" width="4.21" height="4.21"/>
    <rect class="cls-5" x="64.34" y="74.01" width="4.21" height="4.21"/>
    <rect class="cls-5" x="14.17" y="79.38" width="4.21" height="4.21"/>
    <rect class="cls-5" x="19.74" y="79.38" width="4.21" height="4.21"/>
    <rect class="cls-5" x="25.32" y="79.38" width="4.21" height="4.21"/>
    <rect class="cls-5" x="30.89" y="79.38" width="4.21" height="4.21"/>
    <rect class="cls-5" x="36.47" y="79.38" width="4.21" height="4.21"/>
    <rect class="cls-5" x="42.04" y="79.38" width="4.21" height="4.21"/>
    <rect class="cls-5" x="47.62" y="79.38" width="4.21" height="4.21"/>
    <rect class="cls-5" x="53.19" y="79.38" width="4.21" height="4.21"/>
    <rect class="cls-5" x="58.76" y="79.38" width="4.21" height="4.21"/>
    <rect class="cls-5" x="64.34" y="79.38" width="4.21" height="4.21"/>
    <rect class="cls-5" x="14.17" y="84.75" width="4.21" height="4.21"/>
    <rect class="cls-5" x="19.74" y="84.75" width="4.21" height="4.21"/>
    <rect class="cls-5" x="25.32" y="84.75" width="4.21" height="4.21"/>
    <rect class="cls-5" x="30.89" y="84.75" width="4.21" height="4.21"/>
    <rect class="cls-5" x="36.47" y="84.75" width="4.21" height="4.21"/>
    <rect class="cls-5" x="42.04" y="84.75" width="4.21" height="4.21"/>
    <rect class="cls-5" x="47.62" y="84.75" width="4.21" height="4.21"/>
    <rect class="cls-5" x="53.19" y="84.75" width="4.21" height="4.21"/>
    <rect class="cls-5" x="58.76" y="84.75" width="4.21" height="4.21"/>
    <rect class="cls-5" x="64.34" y="84.75" width="4.21" height="4.21"/>
    <g>
      <path class="cls-2" d="m23.49,63.48c-.08,0-.15-.02-.23-.05-.16-.08-.27-.25-.27-.44l-.09-4.07c0-.2.11-.38.29-.46.07-.03.14-.05.21-.05.12,0,.24.04.33.12l1.33,1.17c.11.1.17.23.17.38v2.03c0,.16-.08.32-.21.41l-1.24.87c-.09.06-.19.09-.29.09Z"/>
      <path d="m23.4,58.9l1.33,1.17v2.03l-1.24.87-.09-4.07m0-1c-.14,0-.29.03-.42.09-.36.17-.59.53-.58.93l.09,4.07c0,.37.22.7.55.87.14.07.3.11.45.11.2,0,.4-.06.57-.18l1.24-.87c.27-.19.43-.49.43-.82v-2.03c0-.29-.12-.56-.34-.75l-1.33-1.17c-.19-.16-.42-.25-.66-.25h0Z"/>
    </g>
    <g>
      <path class="cls-6" d="m19.14,65c-.07,0-.15-.02-.22-.05-.18-.08-.29-.27-.28-.46l.16-7.38c0-.2.13-.38.32-.46.06-.02.12-.03.18-.03.14,0,.27.06.37.16.78.84,1.3,1.65,1.57,2.47l1.98-.81c.06-.03.13-.04.19-.04.1,0,.19.03.27.08.14.09.22.24.23.41l.09,4.07c0,.17-.08.33-.21.42-.08.06-.19.09-.29.09-.06,0-.12-.01-.18-.03l-2.22-.87c-.34.9-.9,1.71-1.63,2.32-.09.08-.21.12-.32.12Z"/>
      <path d="m19.3,57.13c.76.82,1.4,1.76,1.6,2.81l2.51-1.03.09,4.07-2.72-1.07c-.27,1-.84,1.92-1.64,2.6.05-2.45.11-4.92.16-7.38m0-1c-.12,0-.24.02-.36.07-.38.15-.63.51-.64.91l-.08,3.69-.08,3.69c0,.39.21.75.57.92.14.07.28.1.43.1.23,0,.46-.08.65-.24.66-.56,1.2-1.27,1.57-2.06l1.77.7c.12.05.24.07.36.07.2,0,.4-.06.57-.18.27-.19.43-.51.43-.84l-.09-4.07c0-.33-.18-.63-.45-.81-.17-.11-.36-.16-.55-.16-.13,0-.26.02-.38.08l-1.51.62c-.32-.72-.81-1.43-1.49-2.16-.19-.21-.46-.32-.73-.32h0Z"/>
    </g>
    <g>
      <path class="cls-9" d="m23.49,53.16c-.08,0-.15-.02-.23-.05-.16-.08-.27-.25-.27-.44l-.09-4.07c0-.2.11-.38.29-.46.07-.03.14-.05.21-.05.12,0,.24.04.33.12l1.33,1.17c.11.1.17.23.17.38v2.03c0,.16-.08.32-.21.41l-1.24.87c-.09.06-.19.09-.29.09Z"/>
      <path d="m23.4,48.59l1.33,1.17v2.03l-1.24.87-.09-4.07m0-1c-.14,0-.29.03-.42.09-.36.17-.59.53-.58.93l.09,4.07c0,.37.22.7.55.87.14.07.3.11.45.11.2,0,.4-.06.57-.18l1.24-.87c.27-.19.43-.49.43-.82v-2.03c0-.29-.12-.56-.34-.75l-1.33-1.17c-.19-.16-.42-.25-.66-.25h0Z"/>
    </g>
    <g>
      <path class="cls-6" d="m19.14,54.69c-.07,0-.15-.02-.22-.05-.18-.08-.29-.27-.28-.46l.16-7.4c0-.2.13-.39.32-.46.06-.02.12-.03.18-.03.14,0,.27.06.37.16.8.87,1.31,1.67,1.57,2.48l1.98-.81c.06-.03.13-.04.19-.04.1,0,.19.03.27.08.14.09.22.24.23.41l.09,4.07c0,.17-.08.33-.21.42-.08.06-.19.09-.29.09-.06,0-.12-.01-.18-.03l-2.23-.87c-.34.9-.9,1.71-1.62,2.32-.09.08-.21.12-.32.12Z"/>
      <path d="m19.3,46.8c.76.84,1.4,1.76,1.6,2.83l2.51-1.03.09,4.07-2.72-1.07c-.27,1-.84,1.92-1.64,2.6.05-2.45.11-4.92.16-7.4m0-1c-.12,0-.24.02-.35.06-.38.14-.64.51-.65.91l-.16,7.4c0,.39.21.75.57.92.14.07.28.1.43.1.23,0,.46-.08.65-.24.66-.56,1.2-1.27,1.57-2.06l1.77.7c.12.05.24.07.36.07.2,0,.4-.06.57-.18.27-.19.43-.51.43-.84l-.09-4.07c0-.33-.18-.63-.45-.81-.17-.11-.36-.16-.55-.16-.13,0-.26.02-.38.08l-1.5.62c-.31-.71-.8-1.42-1.49-2.16-.19-.21-.46-.33-.74-.33h0Z"/>
    </g>
    <g>
      <path class="cls-8" d="m17.59,114.42V10.37c0-.58.47-1.05,1.05-1.05h21.61c.88,0,1.59.72,1.59,1.59v3.78h-2.09v-3.24h-20.03v102.96h-2.12Z"/>
      <path d="m40.25,9.82c.6,0,1.09.49,1.09,1.09v3.28h-1.09v-3.24h-21.03v102.96h-1.12V10.37c0-.3.25-.55.55-.55h21.61m0-1h-21.61c-.85,0-1.55.69-1.55,1.55v104.55h3.12V11.96h19.03v3.24h3.09v-4.24c0-1.2-.94-2.14-2.09-2.14h0Z"/>
    </g>
    <g>
      <rect class="cls-8" x="33.82" y="13.62" width="14.55" height="2.07"/>
      <path d="m47.87,14.12v1.07h-13.55v-1.07h13.55m1-1h-15.55v3.07h15.55v-3.07h0Z"/>
    </g>
    <path class="cls-10" d="m40.99,18.89s-.07-.37-.07-.82.03-.82.07-.82.07.37.07.82-.03.82-.07.82Z"/>
    <path class="cls-10" d="m34.9,19.35s-.07-.5-.07-1.12.03-1.12.07-1.12.07.5.07,1.12-.03,1.12-.07,1.12Z"/>
    <path class="cls-10" d="m37.04,20.69s-.07-.38-.07-.86.03-.86.07-.86.07.38.07.86-.03.86-.07.86Z"/>
    <path class="cls-10" d="m35.04,25.13s-.07-.28-.07-.62.03-.62.07-.62.07.28.07.62-.03.62-.07.62Z"/>
    <path class="cls-10" d="m38.43,24.13s-.07-.41-.07-.91.03-.91.07-.91.07.41.07.91-.03.91-.07.91Z"/>
    <path class="cls-10" d="m43.87,20.12s-.07-.37-.07-.84.03-.84.07-.84.07.37.07.84-.03.84-.07.84Z"/>
    <path class="cls-10" d="m46.5,19.4s-.07-.47-.07-1.05.03-1.05.07-1.05.07.47.07,1.05-.03,1.05-.07,1.05Z"/>
    <path class="cls-10" d="m40.41,30.3s.07-.37.07-.82-.03-.82-.07-.82-.07.37-.07.82.03.82.07.82Z"/>
    <path class="cls-10" d="m46.5,30.76s.07-.5.07-1.12c0-.62-.03-1.12-.07-1.12s-.07.5-.07,1.12c0,.62.03,1.12.07,1.12Z"/>
    <path class="cls-10" d="m44.35,32.1s.07-.38.07-.86c0-.47-.03-.86-.07-.86s-.07.38-.07.86.03.86.07.86Z"/>
    <path class="cls-10" d="m46.36,36.54s.07-.28.07-.62c0-.34-.03-.62-.07-.62s-.07.28-.07.62c0,.34.03.62.07.62Z"/>
    <path class="cls-10" d="m42.97,35.54s.07-.41.07-.91-.03-.91-.07-.91-.07.41-.07.91c0,.5.03.91.07.91Z"/>
    <path class="cls-10" d="m37.52,31.53s.07-.37.07-.84c0-.46-.03-.84-.07-.84s-.07.37-.07.84.03.84.07.84Z"/>
    <path class="cls-10" d="m34.9,30.81s.07-.47.07-1.05c0-.58-.03-1.05-.07-1.05s-.07.47-.07,1.05c0,.58.03,1.05.07,1.05Z"/>
    <rect class="cls-1" x="72.13" y="42.11" width="4.21" height="4.21"/>
    <rect class="cls-1" x="77.7" y="42.11" width="4.21" height="4.21"/>
    <rect class="cls-1" x="83.28" y="42.11" width="4.21" height="4.21"/>
    <rect class="cls-1" x="88.85" y="42.11" width="4.21" height="4.21"/>
    <rect class="cls-1" x="94.43" y="42.11" width="4.21" height="4.21"/>
    <rect class="cls-1" x="100" y="42.11" width="4.21" height="4.21"/>
    <rect class="cls-1" x="105.57" y="42.11" width="4.21" height="4.21"/>
    <rect class="cls-1" x="111.15" y="42.11" width="4.21" height="4.21"/>
    <rect class="cls-1" x="116.72" y="42.11" width="4.21" height="4.21"/>
    <rect class="cls-1" x="122.3" y="42.11" width="4.21" height="4.21"/>
    <rect class="cls-1" x="72.13" y="47.49" width="4.21" height="4.21"/>
    <rect class="cls-1" x="77.7" y="47.49" width="4.21" height="4.21"/>
    <rect class="cls-1" x="83.28" y="47.49" width="4.21" height="4.21"/>
    <rect class="cls-1" x="88.85" y="47.49" width="4.21" height="4.21"/>
    <rect class="cls-1" x="94.43" y="47.49" width="4.21" height="4.21"/>
    <rect class="cls-1" x="100" y="47.49" width="4.21" height="4.21"/>
    <rect class="cls-1" x="105.57" y="47.49" width="4.21" height="4.21"/>
    <rect class="cls-1" x="111.15" y="47.49" width="4.21" height="4.21"/>
    <rect class="cls-1" x="116.72" y="47.49" width="4.21" height="4.21"/>
    <rect class="cls-1" x="122.3" y="47.49" width="4.21" height="4.21"/>
    <rect class="cls-1" x="72.13" y="52.86" width="4.21" height="4.21"/>
    <rect class="cls-1" x="77.7" y="52.86" width="4.21" height="4.21"/>
    <rect class="cls-1" x="83.28" y="52.86" width="4.21" height="4.21"/>
    <rect class="cls-1" x="88.85" y="52.86" width="4.21" height="4.21"/>
    <rect class="cls-1" x="94.43" y="52.86" width="4.21" height="4.21"/>
    <rect class="cls-1" x="100" y="52.86" width="4.21" height="4.21"/>
    <rect class="cls-1" x="105.57" y="52.86" width="4.21" height="4.21"/>
    <rect class="cls-1" x="111.15" y="52.86" width="4.21" height="4.21"/>
    <rect class="cls-1" x="116.72" y="52.86" width="4.21" height="4.21"/>
    <rect class="cls-1" x="122.3" y="52.86" width="4.21" height="4.21"/>
    <rect class="cls-1" x="72.13" y="58.23" width="4.21" height="4.21"/>
    <rect class="cls-1" x="77.7" y="58.23" width="4.21" height="4.21"/>
    <rect class="cls-1" x="83.28" y="58.23" width="4.21" height="4.21"/>
    <rect class="cls-1" x="88.85" y="58.23" width="4.21" height="4.21"/>
    <rect class="cls-1" x="94.43" y="58.23" width="4.21" height="4.21"/>
    <rect class="cls-1" x="100" y="58.23" width="4.21" height="4.21"/>
    <rect class="cls-1" x="105.57" y="58.23" width="4.21" height="4.21"/>
    <rect class="cls-1" x="111.15" y="58.23" width="4.21" height="4.21"/>
    <rect class="cls-1" x="116.72" y="58.23" width="4.21" height="4.21"/>
    <rect class="cls-1" x="122.3" y="58.23" width="4.21" height="4.21"/>
    <rect class="cls-1" x="72.13" y="63.6" width="4.21" height="4.21"/>
    <rect class="cls-1" x="77.7" y="63.6" width="4.21" height="4.21"/>
    <rect class="cls-1" x="83.28" y="63.6" width="4.21" height="4.21"/>
    <rect class="cls-1" x="88.85" y="63.6" width="4.21" height="4.21"/>
    <rect class="cls-1" x="94.43" y="63.6" width="4.21" height="4.21"/>
    <rect class="cls-1" x="100" y="63.6" width="4.21" height="4.21"/>
    <rect class="cls-1" x="105.57" y="63.6" width="4.21" height="4.21"/>
    <rect class="cls-1" x="111.15" y="63.6" width="4.21" height="4.21"/>
    <rect class="cls-1" x="116.72" y="63.6" width="4.21" height="4.21"/>
    <rect class="cls-1" x="122.3" y="63.6" width="4.21" height="4.21"/>
    <rect class="cls-1" x="72.13" y="68.98" width="4.21" height="4.21"/>
    <rect class="cls-1" x="77.7" y="68.98" width="4.21" height="4.21"/>
    <rect class="cls-1" x="83.28" y="68.98" width="4.21" height="4.21"/>
    <rect class="cls-1" x="88.85" y="68.98" width="4.21" height="4.21"/>
    <rect class="cls-1" x="94.43" y="68.98" width="4.21" height="4.21"/>
    <rect class="cls-1" x="100" y="68.98" width="4.21" height="4.21"/>
    <rect class="cls-1" x="105.57" y="68.98" width="4.21" height="4.21"/>
    <rect class="cls-1" x="111.15" y="68.98" width="4.21" height="4.21"/>
    <rect class="cls-1" x="116.72" y="68.98" width="4.21" height="4.21"/>
    <rect class="cls-1" x="122.3" y="68.98" width="4.21" height="4.21"/>
    <rect class="cls-1" x="72.13" y="74.35" width="4.21" height="4.21"/>
    <rect class="cls-1" x="77.7" y="74.35" width="4.21" height="4.21"/>
    <rect class="cls-1" x="83.28" y="74.35" width="4.21" height="4.21"/>
    <rect class="cls-1" x="88.85" y="74.35" width="4.21" height="4.21"/>
    <rect class="cls-1" x="94.43" y="74.35" width="4.21" height="4.21"/>
    <rect class="cls-1" x="100" y="74.35" width="4.21" height="4.21"/>
    <rect class="cls-1" x="105.57" y="74.35" width="4.21" height="4.21"/>
    <rect class="cls-1" x="111.15" y="74.35" width="4.21" height="4.21"/>
    <rect class="cls-1" x="116.72" y="74.35" width="4.21" height="4.21"/>
    <rect class="cls-1" x="122.3" y="74.35" width="4.21" height="4.21"/>
    <rect class="cls-1" x="72.13" y="79.72" width="4.21" height="4.21"/>
    <rect class="cls-1" x="77.7" y="79.72" width="4.21" height="4.21"/>
    <rect class="cls-1" x="83.28" y="79.72" width="4.21" height="4.21"/>
    <rect class="cls-1" x="88.85" y="79.72" width="4.21" height="4.21"/>
    <rect class="cls-1" x="94.43" y="79.72" width="4.21" height="4.21"/>
    <rect class="cls-1" x="100" y="79.72" width="4.21" height="4.21"/>
    <rect class="cls-1" x="105.57" y="79.72" width="4.21" height="4.21"/>
    <rect class="cls-1" x="111.15" y="79.72" width="4.21" height="4.21"/>
    <rect class="cls-1" x="116.72" y="79.72" width="4.21" height="4.21"/>
    <rect class="cls-1" x="122.3" y="79.72" width="4.21" height="4.21"/>
    <rect class="cls-1" x="72.13" y="85.09" width="4.21" height="4.21"/>
    <rect class="cls-1" x="77.7" y="85.09" width="4.21" height="4.21"/>
    <rect class="cls-1" x="83.28" y="85.09" width="4.21" height="4.21"/>
    <rect class="cls-1" x="88.85" y="85.09" width="4.21" height="4.21"/>
    <rect class="cls-1" x="94.43" y="85.09" width="4.21" height="4.21"/>
    <rect class="cls-1" x="100" y="85.09" width="4.21" height="4.21"/>
    <rect class="cls-1" x="105.57" y="85.09" width="4.21" height="4.21"/>
    <rect class="cls-1" x="111.15" y="85.09" width="4.21" height="4.21"/>
    <rect class="cls-1" x="116.72" y="85.09" width="4.21" height="4.21"/>
    <rect class="cls-1" x="122.3" y="85.09" width="4.21" height="4.21"/>
    <g>
      <path class="cls-2" d="m81.45,63.82c-.08,0-.15-.02-.23-.05-.16-.08-.27-.25-.27-.44l-.09-4.07c0-.2.11-.38.29-.46.07-.03.14-.05.21-.05.12,0,.24.04.33.12l1.33,1.17c.11.1.17.23.17.38v2.03c0,.16-.08.32-.21.41l-1.24.87c-.09.06-.19.09-.29.09Z"/>
      <path d="m81.36,59.25l1.33,1.17v2.03l-1.24.87-.09-4.07m0-1c-.14,0-.29.03-.42.09-.36.17-.59.53-.58.93l.09,4.07c0,.37.22.7.55.87.14.07.3.11.45.11.2,0,.4-.06.57-.18l1.24-.87c.27-.19.43-.49.43-.82v-2.03c0-.29-.12-.56-.34-.75l-1.33-1.17c-.19-.16-.42-.25-.66-.25h0Z"/>
    </g>
    <g>
      <path class="cls-6" d="m77.09,65.35c-.07,0-.15-.02-.22-.05-.18-.08-.29-.27-.28-.46l.16-7.38c0-.2.13-.38.32-.46.06-.02.12-.03.18-.03.14,0,.27.06.37.16.78.84,1.3,1.65,1.57,2.47l1.98-.81c.06-.03.13-.04.19-.04.1,0,.19.03.27.08.14.09.22.24.23.41l.09,4.07c0,.17-.08.33-.21.42-.08.06-.19.09-.29.09-.06,0-.12-.01-.18-.03l-2.23-.87c-.34.9-.9,1.71-1.62,2.32-.09.08-.21.12-.32.12Z"/>
      <path d="m77.25,57.47c.76.82,1.4,1.76,1.6,2.81l2.51-1.03.09,4.07-2.72-1.07c-.27,1-.84,1.92-1.64,2.6.05-2.45.11-4.92.16-7.38m0-1c-.12,0-.24.02-.36.07-.38.15-.63.51-.64.91l-.08,3.69-.08,3.69c0,.39.21.75.57.92.14.07.28.1.43.1.23,0,.46-.08.65-.24.66-.56,1.2-1.27,1.57-2.06l1.77.7c.12.05.24.07.36.07.2,0,.4-.06.57-.18.27-.19.43-.51.43-.84l-.09-4.07c0-.33-.18-.63-.45-.81-.17-.11-.36-.16-.55-.16-.13,0-.26.02-.38.08l-1.51.62c-.32-.72-.81-1.43-1.49-2.16-.19-.21-.46-.32-.73-.32h0Z"/>
    </g>
    <g>
      <path class="cls-9" d="m81.45,53.51c-.08,0-.15-.02-.23-.05-.16-.08-.27-.25-.27-.44l-.09-4.07c0-.2.11-.38.29-.46.07-.03.14-.05.21-.05.12,0,.24.04.33.12l1.33,1.17c.11.1.17.23.17.38v2.03c0,.16-.08.32-.21.41l-1.24.87c-.09.06-.19.09-.29.09Z"/>
      <path d="m81.36,48.93l1.33,1.17v2.03l-1.24.87-.09-4.07m0-1c-.14,0-.29.03-.42.09-.36.17-.59.53-.58.93l.09,4.07c0,.37.22.7.55.87.14.07.3.11.45.11.2,0,.4-.06.57-.18l1.24-.87c.27-.19.43-.49.43-.82v-2.03c0-.29-.12-.56-.34-.75l-1.33-1.17c-.19-.16-.42-.25-.66-.25h0Z"/>
    </g>
    <g>
      <path class="cls-6" d="m77.09,55.03c-.07,0-.15-.02-.22-.05-.18-.08-.29-.27-.28-.46l.16-7.4c0-.2.13-.39.32-.46.06-.02.12-.03.18-.03.14,0,.27.06.37.16.8.87,1.31,1.67,1.57,2.48l1.98-.81c.06-.03.13-.04.19-.04.1,0,.19.03.27.08.14.09.22.24.23.41l.09,4.07c0,.17-.08.33-.21.42-.08.06-.19.09-.29.09-.06,0-.12-.01-.18-.03l-2.23-.87c-.34.9-.9,1.71-1.62,2.32-.09.08-.21.12-.32.12Z"/>
      <path d="m77.25,47.14c.76.84,1.4,1.76,1.6,2.83l2.51-1.03.09,4.07-2.72-1.07c-.27,1-.84,1.92-1.64,2.6.05-2.45.11-4.92.16-7.4m0-1c-.12,0-.24.02-.35.06-.38.14-.64.51-.65.91v.18s-.16,7.21-.16,7.21c0,.39.21.75.57.92.14.07.28.1.43.1.23,0,.46-.08.65-.24.66-.56,1.2-1.27,1.57-2.06l1.77.7c.12.05.24.07.36.07.2,0,.4-.06.57-.18.27-.19.43-.51.43-.84l-.09-4.07c0-.33-.18-.63-.45-.81-.17-.11-.36-.16-.55-.16-.13,0-.26.02-.38.08l-1.5.62c-.31-.71-.8-1.42-1.49-2.16-.19-.21-.46-.32-.74-.32h0Z"/>
    </g>
    <g>
      <path class="cls-8" d="m75.55,114.76V10.71c0-.58.47-1.05,1.05-1.05h21.61c.88,0,1.59.72,1.59,1.59v3.78h-2.09v-3.24h-20.03v102.96h-2.12Z"/>
      <path d="m98.21,10.16c.6,0,1.09.49,1.09,1.09v3.28h-1.09v-3.24h-21.03v102.96h-1.12V10.71c0-.3.25-.55.55-.55h21.61m0-1h-21.61c-.85,0-1.55.69-1.55,1.55v104.55h3.12V12.3h19.03v3.24h3.09v-4.24c0-1.2-.94-2.14-2.09-2.14h0Z"/>
    </g>
    <g>
      <rect class="cls-8" x="91.78" y="13.96" width="14.55" height="2.06"/>
      <path d="m105.83,14.46v1.07h-13.55v-1.07h13.55m1-1h-15.55v3.07h15.55v-3.07h0Z"/>
    </g>
    <path class="cls-10" d="m98.95,19.23s-.07-.37-.07-.82.03-.82.07-.82.07.37.07.82-.03.82-.07.82Z"/>
    <path class="cls-10" d="m92.85,19.69s-.07-.5-.07-1.12.03-1.12.07-1.12.07.5.07,1.12-.03,1.12-.07,1.12Z"/>
    <path class="cls-10" d="m95,21.03s-.07-.38-.07-.86.03-.86.07-.86.07.38.07.86-.03.86-.07.86Z"/>
    <path class="cls-10" d="m93,25.47s-.07-.28-.07-.62.03-.62.07-.62.07.28.07.62-.03.62-.07.62Z"/>
    <path class="cls-10" d="m96.39,24.47s-.07-.41-.07-.91.03-.91.07-.91.07.41.07.91-.03.91-.07.91Z"/>
    <path class="cls-10" d="m101.83,20.46s-.07-.37-.07-.84.03-.84.07-.84.07.37.07.84-.03.84-.07.84Z"/>
    <path class="cls-10" d="m104.46,19.74s-.07-.47-.07-1.05.03-1.05.07-1.05.07.47.07,1.05-.03,1.05-.07,1.05Z"/>
    <path class="cls-10" d="m98.37,30.64s.07-.37.07-.82-.03-.82-.07-.82-.07.37-.07.82.03.82.07.82Z"/>
    <path class="cls-10" d="m104.46,31.1s.07-.5.07-1.12-.03-1.12-.07-1.12-.07.5-.07,1.12c0,.62.03,1.12.07,1.12Z"/>
    <path class="cls-10" d="m102.31,32.44s.07-.38.07-.86c0-.47-.03-.86-.07-.86s-.07.38-.07.86c0,.47.03.86.07.86Z"/>
    <path class="cls-10" d="m104.32,36.88s.07-.28.07-.62c0-.34-.03-.62-.07-.62s-.07.28-.07.62c0,.34.03.62.07.62Z"/>
    <path class="cls-10" d="m100.93,35.88s.07-.41.07-.91c0-.5-.03-.91-.07-.91s-.07.41-.07.91c0,.5.03.91.07.91Z"/>
    <path class="cls-10" d="m95.48,31.87s.07-.37.07-.84-.03-.84-.07-.84-.07.37-.07.84c0,.46.03.84.07.84Z"/>
    <path class="cls-10" d="m92.85,31.15s.07-.47.07-1.05c0-.58-.03-1.05-.07-1.05s-.07.47-.07,1.05c0,.58.03,1.05.07,1.05Z"/>
    <rect class="cls-7" x="11.55" y="8.8" width="2.38" height="105.91"/>
    <rect class="cls-11" x="69.27" y="8.8" width="2.38" height="105.91"/>
    <rect class="cls-11" x="184.37" y="8.8" width="2.38" height="105.91"/>
    <rect class="cls-7" x="8.09" y="111.71" width="183.83" height="7.49"/>
  </g>
  <rect class="cls-12" x="-1485.61" y="-55.49" width="1951.05" height="522.43"/>
</svg>