<?xml version="1.0" encoding="UTF-8"?>
<svg id="Calque_1" data-name="Calque 1" xmlns="http://www.w3.org/2000/svg" viewBox="0 0 128 128">
  <defs>
    <style>
      .cls-1, .cls-2, .cls-3, .cls-4, .cls-5 {
        stroke: #000;
      }

      .cls-1, .cls-2, .cls-3, .cls-4, .cls-5, .cls-6 {
        stroke-linecap: round;
        stroke-linejoin: round;
      }

      .cls-1, .cls-5, .cls-6 {
        fill: none;
      }

      .cls-2 {
        fill: #fce9b9;
      }

      .cls-2, .cls-3, .cls-4, .cls-5 {
        stroke-width: 2px;
      }

      .cls-3 {
        fill: #a07637;
      }

      .cls-4 {
        fill: #f3d587;
      }

      .cls-6 {
        stroke: #fff;
        stroke-width: 8px;
      }
    </style>
  </defs>
  <g>
    <path class="cls-4" d="m101.35,92.3c-1.32,3.04-4.11,9.48-9.14,10.37-.4.07-3.05.54-4.43-.93-1.07-1.15-.81-2.94-.61-4.62,0,0,.28-2.42.73-10.18.06-.96.32-6.89-2.42-12.23-.7-1.38-1.59-2.71-2.74-3.91-1.5-1.58-3-2.47-5.24-3.8-1-.6-1.96-1.11-2.88-1.54-2.74-1.32-5.01-2.03-6.36-2.65,0-.07.01-.15.01-.21.02-.79.05-1.55.06-2.25.01-.3.01-.61.01-.89v-.14c.55,0,6.81-2.38,9.32-3.28.03-.02.08-.03.11-.05.05-.02.1-.03.15-.05.03-.02.06-.03.09-.03.11-.05.21-.08.32-.11.06-.02.11-.05.16-.06.04-.01.09-.03.14-.05,1.9-.61,3.39-1.09,4.67-1.42,1.64-.4,2.97-.55,4.47-.43.77.07,1.49.19,2.18.37,3.76.93,6.34,3.21,7.28,4.04,5.35,4.84,6.13,11.53,6.68,16.24.32,2.79.82,9.96-2.57,17.78Z"/>
    <path class="cls-4" d="m68.35,59.48c0,.28,0,.59-.01.89-.01.7-.03,1.46-.06,2.25,0,.07-.01.15-.01.21-.12-.06-.24-.11-.35-.17h-.01c-1.26.15-2.87.34-4.62.78-1.26.3-2.61.76-3.97,1.42-.62.3-1.2.62-1.74.97-2.77,1.74-4.57,3.95-6.28,6.02-4.22,5.14-7.19,11.89-7.91,13.57-1.46,3.39-2.35,6.23-4,6.31-1.34.06-2.52-1.74-2.89-2.3-1.3-1.96-1.34-4.08-1.34-5.04.08-6.48,1.07-11.71,2.4-15.79,2.66-8.34,6.65-11.95,6.65-11.95,1.76-1.6,7.08-6.45,11.6-5.03.81.25,1.3.61,3.47,2.11.47.32,1.02.69,1.67,1.14.26.17.53.35.82.55,2.17,1.46,3.95,2.62,5.14,3.39.43.19.82.37,1.16.54.1.05.19.09.27.14Z"/>
    <path class="cls-4" d="m59.29,53.72c-2.17-1.5-2.65-1.86-3.47-2.11-4.53-1.41-9.84,3.43-11.6,5.03,0,0-3.98,3.61-6.65,11.95-.93-.42-1.72-1.06-2.19-1.89-.78-1.38-.45-2.87.1-5.14.93-3.86,2.61-6.51,2.9-6.99,1.19-1.84,3.88-6.04,9.22-8.53,1.9-.88,6.97-3.26,10.84-1.95.51,2.9.69,5.2.77,6.36.08,1.31.1,2.37.08,3.26Z"/>
    <path class="cls-4" d="m109.51,72.81c-.25.03-.61-.27-2.73-5.63-1.87-4.71-1.67-4.68-2.26-5.82-.76-1.47-2.95-5.72-7.55-7.16-2.14-.67-4.81-.71-7.01.05-.69-.18-1.41-.3-2.18-.37-1.5-.12-2.83.03-4.47.43-.08-3.53-1.29-7.65-2.69-12.5-.01-.03-.02-.07-.02-.1,2.54-.34,5.72.37,8.64,1.04,4.3.97,9.31,2.1,14.01,6.56.72.69,6.33,6.17,7.35,14.7.5,4.21-.18,8.73-1.08,8.82Z"/>
    <path class="cls-3" d="m45.2,99.43c-.38.99-.73,2.91-1.66,4.24-1.11,1.57-1.84,2.62-3.14,3.51-1.83,1.25-3.84,1.57-5.46,1.82-2.1.33-3.57.2-3.65.63-.07.42,1.21.96,1.32,1,1.03.43,2.07.45,3.45.25,2.59-.36,3.95-1.12,4.08-.88.14.25-1,1.35-2.44,2.01-.95.44-1.42.41-1.64.82-.2.38,1.25,3.19,3.88,4.14-.27.39-.59.81-.96,1.25-1.33,1.59-2.09,1.96-2.8,2.08-1.04.16-2.11-.44-4.26-1.64-1.2-.67-1.98-1.23-2.9-1.9-.99-.72-1.49-1.1-1.81-1.55-.9-1.26-.85-2.72-.82-3.43.05-.93.09-2.19,1-3.26,1.02-1.22,2.47-1.44,3.08-1.55,1.54-.25,2.07.29,3.61.27,1.52-.01,2.6-.54,4.09-1.26.87-.43,3.82-1.87,5.88-4.62.53-.7.88-1.34,1.13-1.95Z"/>
    <path class="cls-4" d="m85.49,74.73c-.87,5.94-4.66,11.98-6.24,14.49-3.07,4.89-6.41,10.13-12.38,12.23-2.54.89-7.35,1.85-10.27,2.44-4.46.9-5.75.95-7.81,2.12-4.01,2.27-6.2,6.03-6.2,6.03-.98,1.7-1.35,3.1-2.63,4.94-2.63-.95-4.09-3.76-3.88-4.14.21-.42.69-.38,1.64-.82,1.43-.65,2.57-1.76,2.44-2.01-.12-.24-1.49.52-4.08.88-1.39.2-2.43.18-3.45-.25-.11-.04-1.39-.59-1.32-1,.08-.43,1.55-.3,3.65-.63,1.63-.25,3.63-.56,5.46-1.82,1.3-.89,2.03-1.94,3.14-3.51.93-1.33,1.28-3.25,1.66-4.24.03-.07.06-.14.08-.19.88-2.35.23-4.32,1.87-8.27,1.59-3.8,2.63-2.98,6.07-8.79,1.52-2.56,3.31-5.72,4.17-10.05.63-3.24.3-4.97.19-6.29.54-.35,1.12-.67,1.74-.97,1.37-.67,2.71-1.12,3.97-1.42,1.75-.44,3.35-.63,4.62-.78h.01c.11.06.23.11.35.17,1.34.62,3.61,1.33,6.36,2.65.91.43,1.87.94,2.88,1.54,2.24,1.33,3.74,2.22,5.24,3.8,1.15,1.2,2.04,2.53,2.74,3.91Z"/>
    <path class="cls-2" d="m83.31,54.3c-1.29.33-2.78.81-4.67,1.42-.05.01-.09.03-.14.05-.05.01-.1.03-.16.06-.09.02-.19.07-.32.11-.03,0-.06.01-.09.03-.05.01-.1.02-.15.05-.03.01-.08.02-.11.05-2.52.9-8.77,3.28-9.32,3.28v.14c-.08-.05-.17-.09-.27-.14-.34-.17-.73-.35-1.16-.54-1.19-.77-2.97-1.93-5.14-3.39-.29-.2-.56-.38-.82-.55-.65-.45-1.2-.82-1.67-1.14.02-.89,0-1.95-.08-3.26-.08-1.15-.26-3.45-.77-6.36-.5-2.86-1.32-6.3-2.66-9.82-2.18-5.72-3.79-6.51-4.57-11.44-.4-2.45-1.15-7.17,1.3-9,2-1.48,5.15-.32,7.36.5,4.93,1.82,8.3,5.01,10.62,7.68,6.38,7.32,8.71,14.92,10.1,19.68h.01s.01.07.02.1c1.4,4.84,2.61,8.96,2.69,12.5Z"/>
    <path class="cls-5" d="m56.04,94.75c2.99-3.67,7.9-8.55,9.97-16.44,1.44-5.5.85-11.81,1.04-15.01"/>
    <path class="cls-1" d="m60.25,21.12c.22,0,.68,0,1.17-.3.45-.26.72-.62.85-.82"/>
    <path class="cls-1" d="m62.38,23.7c.33,0,1.03-.01,1.78-.36.68-.32,1.09-.76,1.29-1"/>
    <path class="cls-1" d="m64.55,26.7c.35.01,1.08-.01,1.88-.42.72-.37,1.15-.87,1.36-1.15"/>
    <path class="cls-1" d="m66.14,30.21c.4.01,1.25-.01,2.16-.46.83-.41,1.32-.97,1.56-1.28"/>
    <path class="cls-1" d="m67.78,33.78c.46.01,1.42-.01,2.46-.48.94-.42,1.51-1,1.78-1.32"/>
    <path class="cls-1" d="m69.89,37.72c.41.01,1.27-.01,2.2-.42.84-.37,1.35-.87,1.59-1.15"/>
    <path class="cls-1" d="m71.73,41.65c.35.01,1.08-.01,1.88-.42.72-.37,1.15-.87,1.36-1.15"/>
    <path class="cls-1" d="m73.35,45.01c.35.01,1.08-.01,1.88-.42.72-.37,1.15-.87,1.36-1.15"/>
    <path class="cls-1" d="m74.29,48.42c.35.01,1.08-.01,1.88-.42.72-.37,1.15-.87,1.36-1.15"/>
    <path class="cls-1" d="m74.97,52.14c.35.01,1.08-.01,1.88-.42.72-.37,1.15-.87,1.36-1.15"/>
    <path class="cls-1" d="m75.31,55.6c.35.01,1.08-.01,1.88-.42.72-.37,1.15-.87,1.36-1.15"/>
  </g>
  <rect class="cls-6" x="-263.45" y="-1403.97" width="3385.57" height="2571.67"/>
</svg>