<?xml version="1.0" encoding="UTF-8"?>
<svg id="Calque_1" data-name="Calque 1" xmlns="http://www.w3.org/2000/svg" viewBox="0 0 128 128">
  <defs>
    <style>
      .cls-1 {
        fill: #bfe6fc;
      }

      .cls-1, .cls-2, .cls-3, .cls-4 {
        stroke: #000;
      }

      .cls-1, .cls-2, .cls-3, .cls-4, .cls-5 {
        stroke-linecap: round;
        stroke-linejoin: round;
      }

      .cls-2, .cls-4, .cls-5 {
        fill: none;
      }

      .cls-3 {
        fill: #d6d6d6;
        stroke-width: 2px;
      }

      .cls-4 {
        stroke-dasharray: 0 0 5.45 5.45;
      }

      .cls-5 {
        stroke: #fff;
        stroke-width: 8px;
      }
    </style>
  </defs>
  <circle class="cls-3" cx="110.54" cy="73.81" r="5.87"/>
  <path class="cls-1" d="m69.79,27.59c0-4.88-5.12-8.84-11.45-8.84-6.33,0-11.46,3.96-11.46,8.84h22.9Z"/>
  <g>
    <line class="cls-2" x1="58.89" y1="59.65" x2="58.89" y2="55.65"/>
    <line class="cls-4" x1="58.89" y1="50.21" x2="58.89" y2="42.03"/>
    <line class="cls-2" x1="58.89" y1="39.31" x2="58.89" y2="35.31"/>
  </g>
  <g>
    <line class="cls-2" x1="49" y1="59.65" x2="49" y2="55.65"/>
    <line class="cls-4" x1="49" y1="50.21" x2="49" y2="42.03"/>
    <line class="cls-2" x1="49" y1="39.31" x2="49" y2="35.31"/>
  </g>
  <g>
    <line class="cls-2" x1="68.11" y1="59.65" x2="68.11" y2="55.65"/>
    <line class="cls-4" x1="68.11" y1="50.21" x2="68.11" y2="42.03"/>
    <line class="cls-2" x1="68.11" y1="39.31" x2="68.11" y2="35.31"/>
  </g>
  <g>
    <line class="cls-2" x1="63.5" y1="65.99" x2="63.5" y2="61.99"/>
    <line class="cls-4" x1="63.5" y1="56.54" x2="63.5" y2="48.37"/>
    <line class="cls-2" x1="63.5" y1="45.65" x2="63.5" y2="41.65"/>
  </g>
  <g>
    <line class="cls-2" x1="54.09" y1="65.99" x2="54.09" y2="61.99"/>
    <line class="cls-4" x1="54.09" y1="56.54" x2="54.09" y2="48.37"/>
    <line class="cls-2" x1="54.09" y1="45.65" x2="54.09" y2="41.65"/>
  </g>
  <g>
    <line class="cls-2" x1="58.89" y1="89.33" x2="58.89" y2="85.33"/>
    <line class="cls-4" x1="58.89" y1="79.88" x2="58.89" y2="71.71"/>
    <line class="cls-2" x1="58.89" y1="68.99" x2="58.89" y2="64.99"/>
  </g>
  <g>
    <line class="cls-2" x1="49" y1="89.33" x2="49" y2="85.33"/>
    <line class="cls-4" x1="49" y1="79.88" x2="49" y2="71.71"/>
    <line class="cls-2" x1="49" y1="68.99" x2="49" y2="64.99"/>
  </g>
  <g>
    <line class="cls-2" x1="68.11" y1="89.33" x2="68.11" y2="85.33"/>
    <line class="cls-4" x1="68.11" y1="79.88" x2="68.11" y2="71.71"/>
    <line class="cls-2" x1="68.11" y1="68.99" x2="68.11" y2="64.99"/>
  </g>
  <g>
    <line class="cls-2" x1="63.5" y1="95.67" x2="63.5" y2="91.67"/>
    <line class="cls-4" x1="63.5" y1="86.22" x2="63.5" y2="78.05"/>
    <line class="cls-2" x1="63.5" y1="75.32" x2="63.5" y2="71.32"/>
  </g>
  <g>
    <line class="cls-2" x1="54.09" y1="95.67" x2="54.09" y2="91.67"/>
    <line class="cls-4" x1="54.09" y1="86.22" x2="54.09" y2="78.05"/>
    <line class="cls-2" x1="54.09" y1="75.32" x2="54.09" y2="71.32"/>
  </g>
  <g>
    <polyline class="cls-2" points="19.9 114.25 19.9 58.12 19.9 55.08 19.9 14.16"/>
    <line class="cls-2" x1="58.34" y1="14.16" x2="58.34" y2="17.97"/>
    <path class="cls-2" d="m58.34,14.16c0-5.27-4.32-9.59-9.59-9.59h-19.26c-2.63,0-5.03,1.08-6.77,2.82s-2.82,4.13-2.82,6.77"/>
  </g>
  <rect class="cls-1" x="19.89" y="114.25" width="65.42" height="7.03"/>
  <rect class="cls-1" x="19.89" y="110.71" width="63.22" height="3.53"/>
  <line class="cls-2" x1="46.88" y1="31.06" x2="69.79" y2="31.06"/>
  <rect class="cls-1" x="19.9" y="62.08" width="6.4" height="3.04"/>
  <rect class="cls-1" x="19.9" y="62.08" width="6.4" height="3.04"/>
  <rect class="cls-1" x="21.86" y="62.08" width="11.92" height="3.04" transform="translate(-35.79 91.42) rotate(-90)"/>
  <circle class="cls-3" cx="82.86" cy="56.1" r="5.87"/>
  <rect class="cls-3" x="94.22" y="47.29" width="4.53" height="35.53" rx="1.74" ry="1.74" transform="translate(-10.52 110.79) rotate(-57.13)"/>
  <g>
    <line class="cls-2" x1="113.99" y1="31.06" x2="102.93" y2="53.01"/>
    <polygon points="100.77 48.21 101.73 47.93 103.1 52.67 107.73 50.95 108.08 51.89 102.44 53.98 100.77 48.21"/>
  </g>
  <rect class="cls-5" x="-1045.68" y="-2207.29" width="2244.45" height="5948.74"/>
</svg>