<?xml version="1.0" encoding="UTF-8"?>
<svg id="Calque_1" data-name="Calque 1" xmlns="http://www.w3.org/2000/svg" viewBox="0 0 260 128">
  <defs>
    <style>
      .cls-1, .cls-2, .cls-3 {
        stroke: #000;
      }

      .cls-1, .cls-2, .cls-3, .cls-4 {
        stroke-linecap: round;
        stroke-linejoin: round;
      }

      .cls-1, .cls-5 {
        fill: #87f3b9;
      }

      .cls-2 {
        fill: #fff;
      }

      .cls-3, .cls-4 {
        fill: none;
      }

      .cls-4 {
        stroke: #fff;
        stroke-width: 8px;
      }
    </style>
  </defs>
  <path class="cls-2" d="m119.87,42.1c-.15.02-.3.04-.44.06-1.14.16-2.45.38-4.24.78-1.05.24-2.99.98-5.09,1.44-2.7.6-3.87.51-5.38.59-1.92.11-2.39.49-5.22.91-1.92.28-6.32-1.01-11.25-1.01-2.15,0-4.09-1.29-10.36-1.89,5.88-.18,9.43.59,10.47.42,3.86-.65,9.95-1.91,12.7-2.11,3.26-.22,5.83-.39,9.51-1.08,3.89-.74,6.5-1.95,9.3-3.2,2.92-1.31,6.03-2.68,11.01-3.6.46-.08.82-.08,1.22-.08,1.62.02,1.87.56,3.33.73.86.1,1.9.18,3.3.13,1.02-.04,3.39-.09,4.8-.09.69,0,1.82.05,2.68.21,1.54.29,1.87-1.14.91-1.67-.52-.3-1.6-.79-2.53-1.02-.52-.12-2.68-.4-3.19-.43-.38-.02-.02-.33-.04-.35.44-.45,1.3-1.09,2.18-.99,1.3.14,3.39.09,3.81.27,1.34.56,2.73,1.04,3.74,1.3.41.1.69.58,1.18.87.64.37,1.15.43,1.49.4.94-.09.96-.81.49-1.23-1.16-1.05-.91-1.29-1.87-2.04-1.69-1.32-3.89-2.75-4.11-2.86-1.17-.59-1.58-.77-3.4-1.05-1.47-.23-2.54-.81-3.51-.74-5.54.41-10.96,1.83-12.51,2.08-6.43,1.03-15.01-.14-22.18,1-4.14.66-6.61,2.43-9.45,2.83-6.12.85-7.57-.16-16.26.33-5.84.33-8.32,1.17-11.61,1.07-.65-.02-2.81-.39-3.58-.36-6.79.21-9.62,3.06-11.23,8.8-.66,2.33-2.21,4.77-3.53,7.4-2.55,5.11-3.01,7.53-4.65,8.57-.43.27-1.48.48-2.61.53-.66.03-1.34.01-1.94-.09-.97-.14-1.51-.51-2.3-1.04-.48-.33-.98-.57-2.07-.77-.65-.13-1.73-.25-2.69-.35.13-.41-.04-.97-.63-1.21-.51-.2-1.18-.5-1.51-.55-.9-.16-2.42-.05-3.49-.11-.39-.02-1.09-.1-1.44.2-.34.28-.33.86.1,1.12-4.42-.02-7.1.25-8.87,1.21-3.07,1.68-5.39,5.7-5.39,8.57s2.32,6.89,5.39,8.56c1.77.96,4.45,1.24,8.87,1.22-.43.25-.44.83-.1,1.12.35.3,1.05.21,1.44.19,1.07-.05,2.59.06,3.49-.1.33-.06,1-.36,1.51-.55.59-.24.76-.81.63-1.21.96-.11,2.04-.23,2.69-.35,1.09-.21,1.59-.45,2.07-.77.79-.53,1.33-.9,2.3-1.05.6-.09,1.28-.11,1.94-.09,1.13.06,2.18.26,2.61.54,1.64,1.04,2.1,3.46,4.65,8.56,1.32,2.64,2.87,5.08,3.53,7.4,1.61,5.74,4.44,8.6,11.23,8.81.77.02,2.93-.35,3.58-.36,3.29-.1,5.77.73,11.61,1.07,8.69.49,10.14-.53,16.26.33,2.84.39,5.31,2.16,9.45,2.82,7.17,1.15,15.75-.02,22.18,1.01,1.55.24,6.97,1.67,12.51,2.07.97.07,2.04-.5,3.51-.73,1.82-.29,2.23-.47,3.4-1.06.22-.11,2.42-1.53,4.11-2.85.96-.75.71-.99,1.87-2.04.47-.43.45-1.15-.49-1.23-.33-.04-.85.03-1.49.4-.49.28-.77.76-1.18.87-1.01.25-2.4.73-3.74,1.3-.42.17-2.51.12-3.81.27-.88.09-1.74-.55-2.18-1,.02-.02-.34-.32.04-.34.51-.03,2.67-.31,3.19-.44.93-.22,2.01-.72,2.53-1.01.96-.54.63-1.96-.91-1.67-.86.16-1.99.21-2.68.21-1.41,0-3.78-.05-4.8-.09-1.4-.05-2.44.03-3.29.12-1.47.17-1.72.72-3.34.73-.4.01-.76.01-1.22-.07-9.74-1.81-12.35-5.3-20.31-6.8-3.68-.69-6.25-.86-9.51-1.09-2.75-.19-8.84-1.46-12.7-2.11-1.04-.17-4.59.6-10.47.43,6.27-.6,8.21-1.9,10.36-1.9,4.93,0,9.33-1.29,11.25-1,2.83.41,3.3.79,5.22.9,1.51.09,2.68,0,5.38.59,2.1.46,4.04,1.2,5.09,1.44,1.79.41,3.1.63,4.24.79.14.02.29.04.44.06"/>
  <path class="cls-5" d="m119.87,42.1c1.37-.19,3.05-.4,4.92-.85,2.84-.69,7.8-.99,11.96-1.26,7.66-.49,14.59-.51,20.38-.38,4.52.09,12.58.14,19,1.38,2.2.42,1.45.82,3.97.96,1.85.11,3.32.07,5.16-.09,5.87-.53,10.09-2.31,16.46-2.6,5.28-.23,9.12.72,19.18,2.44,6.81,1.17,14.24,2.85,18.62,2.21.41-.06,1.44-.19,2.51-.75.6-.32,1.33-.85,2.28-1.4,1.09-.61,2.56-1.4,2.76-2.07.31-1.06,1.36-1.25,1.92-1,.71.32.85.83.85,1.83v10.23c0,2.34-1.24,2.36-2.84,2.07-1.13-.2-1.95-.53-2.84-.5-1.24.05-1.27-.02-2.54-.27-1.36-.28-2.81-.78-4.8-.92-.21-.01-9.82.11-19.73,2.71-4.55,1.2-6.88,1.92-14.34,2.59-6.11.54-10.19-.68-14.39-.58-2.79.06-3.84.65-8.46,1.9-2.91.79-5.73,1.43-9.12,1.99-9.58,1.55-13.87,2.93-27.1,3.83-.19.01-.06.09-.06.43s-.13.42.06.43c13.23.9,17.52,2.27,27.1,3.83,3.39.55,6.21,1.19,9.12,1.98,4.62,1.26,5.67,1.84,8.46,1.91,4.2.1,8.28-1.13,14.39-.58,7.46.67,9.79,1.39,14.34,2.58,9.91,2.61,19.52,2.73,19.73,2.72,1.99-.15,3.44-.65,4.8-.92,1.27-.25,1.3-.32,2.54-.28.89.04,1.71-.29,2.84-.5,1.6-.29,2.84-.27,2.84,2.08v10.23c0,.99-.14,1.5-.85,1.83-.56.25-1.61.06-1.92-1-.2-.67-1.67-1.46-2.76-2.08-.95-.54-1.68-1.08-2.28-1.39-1.07-.56-2.1-.69-2.51-.75-4.38-.64-11.81,1.03-18.62,2.2-10.06,1.73-13.9,2.68-19.18,2.44-6.37-.29-10.59-2.07-16.46-2.59-1.84-.17-3.31-.21-5.16-.1-2.52.15-1.77.55-3.97.97-6.42,1.24-14.48,1.28-19,1.38-5.79.12-12.72.11-20.38-.39-4.16-.27-9.12-.56-11.96-1.26-1.85-.45-3.56-.66-4.92-.84"/>
  <path class="cls-3" d="m119.87,42.1c1.37-.19,3.05-.4,4.92-.85,2.84-.69,7.8-.99,11.96-1.26,7.66-.49,14.59-.51,20.38-.38,4.52.09,12.58.14,19,1.38,2.2.42,1.45.82,3.97.96,1.85.11,3.32.07,5.16-.09,5.87-.53,10.09-2.31,16.46-2.6,5.28-.23,9.12.72,19.18,2.44,6.81,1.17,14.24,2.85,18.62,2.21.41-.06,1.44-.19,2.51-.75.6-.32,1.33-.85,2.28-1.4,1.09-.61,2.56-1.4,2.76-2.07.31-1.06,1.36-1.25,1.92-1,.71.32.85.83.85,1.83v10.23c0,2.34-1.24,2.36-2.84,2.07-1.13-.2-1.95-.53-2.84-.5-1.24.05-1.27-.02-2.54-.27-1.36-.28-2.81-.78-4.8-.92-.21-.01-9.82.11-19.73,2.71-4.55,1.2-6.88,1.92-14.34,2.59-6.11.54-10.19-.68-14.39-.58-2.79.06-3.84.65-8.46,1.9-2.91.79-5.73,1.43-9.12,1.99-9.58,1.55-13.87,2.93-27.1,3.83-.19.01-.06.09-.06.43s-.13.42.06.43c13.23.9,17.52,2.27,27.1,3.83,3.39.55,6.21,1.19,9.12,1.98,4.62,1.26,5.67,1.84,8.46,1.91,4.2.1,8.28-1.13,14.39-.58,7.46.67,9.79,1.39,14.34,2.58,9.91,2.61,19.52,2.73,19.73,2.72,1.99-.15,3.44-.65,4.8-.92,1.27-.25,1.3-.32,2.54-.28.89.04,1.71-.29,2.84-.5,1.6-.29,2.84-.27,2.84,2.08v10.23c0,.99-.14,1.5-.85,1.83-.56.25-1.61.06-1.92-1-.2-.67-1.67-1.46-2.76-2.08-.95-.54-1.68-1.08-2.28-1.39-1.07-.56-2.1-.69-2.51-.75-4.38-.64-11.81,1.03-18.62,2.2-10.06,1.73-13.9,2.68-19.18,2.44-6.37-.29-10.59-2.07-16.46-2.59-1.84-.17-3.31-.21-5.16-.1-2.52.15-1.77.55-3.97.97-6.42,1.24-14.48,1.28-19,1.38-5.79.12-12.72.11-20.38-.39-4.16-.27-9.12-.56-11.96-1.26-1.85-.45-3.56-.66-4.92-.84"/>
  <path class="cls-1" d="m136.48,56.19s29.15,7.46,0,14.92"/>
  <rect class="cls-4" x="-1884.43" y="-514.74" width="6467.34" height="6437.3"/>
</svg>