<?xml version="1.0" encoding="UTF-8"?>
<svg id="Calque_1" data-name="Calque 1" xmlns="http://www.w3.org/2000/svg" viewBox="0 0 128 128">
  <defs>
    <style>
      .cls-1 {
        fill: #afaff9;
      }

      .cls-1, .cls-2 {
        stroke: #000;
        stroke-width: 2px;
      }

      .cls-1, .cls-2, .cls-3 {
        stroke-linecap: round;
        stroke-linejoin: round;
      }

      .cls-2 {
        fill: #fff;
      }

      .cls-3 {
        fill: none;
        stroke: #fff;
        stroke-width: 8px;
      }
    </style>
  </defs>
  <path class="cls-1" d="m78.35,1.76l-19,46.68s-7.45-7.17-14.62-2.82l-.72-.14s-1.69-10.69-.14-22.8c1.55-12.11,8.87-20.84,8.87-20.84l25.61-.08Z"/>
  <path class="cls-2" d="m36.97,64.5s0-4.79.7-6.48l-.7,6.48Z"/>
  <path class="cls-2" d="m40.77,60.14l-.84,6.75s-.14-5.06.84-6.75Z"/>
  <path class="cls-2" d="m43.59,69.15s0-4.23.56-6.2l-.56,6.2Z"/>
  <path class="cls-2" d="m37.67,58.02l-.7,6.48s0-4.79.7-6.48Z"/>
  <path class="cls-2" d="m40.77,60.14l-.84,6.75s-.14-5.06.84-6.75Z"/>
  <path class="cls-2" d="m44.15,62.95l-.56,6.2s0-4.23.56-6.2Z"/>
  <path class="cls-2" d="m122.84,124.66h-54.06s-6.05-5.83-10.69-7.1c-4.65-1.26-12.53-6.05-15.77-8.44-3.24-2.4-18.72-5.07-22.67-8.45-3.94-3.38-3.09-7.74,2.54-6.76,5.63.99,21.96,7.32,23.09,5.77,1.12-1.54-29.43-12.95-31.82-18.16-2.39-5.2,2.57-8.3,5.95-6.47,3.38,1.83,24.74,12.66,25.44,11.12.71-1.55-13.52-9.02-20.84-14.02-7.75-5.3-10.04-7.88-7.03-11.46,3.05-3.61,19.42,6.67,26.04,9.85,4.86,2.34,10.7,7.32,11.69,6.2.6-.69-2.21-4-4.49-6.47.18-.05-3.59-6.15-3.4-6.2,0,0,2.26-3.37,3.1-4.5.85-1.12,6.95-1.6,6.95-1.6l3.14,5.96c1.3,1.66,8.01,10.08,9.91,9.57,2.11-.56,1.75-15.48,1.83-16.33.51-5.39,7.18-12.67,11.55-14.22,4.36-1.55,8.3,1.41,8.3,2.96s-5.21,7.04-6.47,12.81c-1.27,5.77.42,15.62,2.39,23.09,1.97,7.46.28,17.03.28,17.03l35.05,25.82Z"/>
  <path class="cls-2" d="m59.35,48.45s-7.45-7.17-14.62-2.82c0,0,0,.01-.02.01,0,0-3.12,3.66-6.05,5.63-3.85,2.58-5.93,5.92-5.36,8.87.56,2.96,2.54,4.36,3.67,4.36,0,0,0-4.79.7-6.48l-.7,6.48c1.13,0,.56,2.39,2.96,2.39,0,0-.14-5.06.84-6.75l-.84,6.75s.72,3.23,4.17,2.45c1.95,1.25,1.58,2.86,6.01,1.22.17-.06-.19.05,0,0,0,0-.61-6.24,2.82-8.35,3.19-1.97,8.45,1.78,8.45,1.78,0,0-.27.77,0,0,.68-1.99.21-6.81-2.02-15.54Zm-15.19,20.7c.43-.48.46-4.76.56-6.2l-.56,6.2Z"/>
  <rect class="cls-3" x="-5376.07" y="-3342.16" width="6467.34" height="6437.3"/>
</svg>