<?xml version="1.0" encoding="UTF-8"?>
<svg id="Calque_1" data-name="Calque 1" xmlns="http://www.w3.org/2000/svg" viewBox="0 0 128 128">
  <defs>
    <style>
      .cls-1, .cls-2, .cls-3, .cls-4 {
        stroke: #000;
      }

      .cls-1, .cls-2, .cls-5 {
        stroke-linecap: round;
        stroke-linejoin: round;
      }

      .cls-1, .cls-3 {
        fill: #fff;
      }

      .cls-2, .cls-5, .cls-6 {
        fill: none;
      }

      .cls-3, .cls-4, .cls-6 {
        stroke-miterlimit: 10;
      }

      .cls-4 {
        fill: #87ccf3;
      }

      .cls-5 {
        stroke: #fff;
        stroke-width: 8px;
      }

      .cls-6 {
        stroke: #231f20;
      }
    </style>
  </defs>
  <g>
    <path class="cls-3" d="m60.95,37.31s.18-.26.49-.55c1.38-1.3,4.17-1.63,5.07,1.42.61,2.09-2.06,6.66-1.73,7.56,0,0-7.1-3.61-3.83-8.43Z"/>
    <path class="cls-3" d="m96.74,52.03s.03-.31-.03-.74c-.23-1.88-2.18-3.91-4.81-2.12-1.8,1.22-2.65,6.45-3.48,6.93,0,0,7.77,1.73,8.32-4.07Z"/>
    <path class="cls-4" d="m50.62,67.81c-2.16,2.66-7.18,9.23-7.29,12.91,0,.07-.05.13-.12.13-1.37.07-13.93,1.05-13.57,15.02,0,.1-.09.18-.18.14-1.15-.43-7.14-2.45-6.02,2.87,0,.03.02.05.04.07.46.49,6.54,6.8,10.52,4.39.03-.02.05-.04.06-.07.34-.73,5.18-10.67,12.89-7.19,0,0,13.4,2.83,6.99,13.14-.01.02-.03.04-.05.05-.47.27-5.94,3.56-.74,8.5,0,0,9.04,9.04,7.49,0l-1.22-3.42c-.03-.09.03-.19.12-.2,1.12-.06,6.81-.64,9.36-6.45h0s2.79-8.15.06-11.8c-.04-.05-.04-.1,0-.15.69-.83,7.23-8.92,7.23-14.36,0-.15.2-.2.27-.07.95,1.88,4.2,6.42,12.33,2.87,9.4-4.1,9.35-6.62,9.3-6.94,0-.02-.01-.04-.02-.06l-3.54-5.31c-.04-.05-.09-.08-.15-.06-.83.21-6.99,1.79-9,3.46-.11.09-.27-.01-.23-.15.53-1.86,1.19-7.5-7.46-13.4,0,0-6.07-6-18.12-7.15-1.72-.16-3.5.17-4.92,1.16-.74.52-1.37,1.19-1.63,2.05-.04.15-.25.16-.28,0-.46-2.22-1.85-8.22-3.91-9.96-.04-.03-.09-.04-.14-.03l-6.01,1.5c-.06.02-.11.06-.11.13-.07,1.22-.65,12.95,1.56,15.39,2.07,2.3,3.32,4.81,6.32,2.76.14-.1.31.07.2.21Z"/>
    <path class="cls-1" d="m43.51,44.04s-1.64-5.55-1.81-2.27c-.17,3.27.07,5.85.85,7.58l6.2-1.55s1.41-2.57.66-3.9c-.22-.38-.79-.33-.96.07-.22.53-.48,1.26-.48,1.76,0,0,1.16-4.17.16-5.57-.28-.4-.91-.26-1.02.21-.23.95-.58,2.71-.34,3.8,0,0,.03-2.91-.5-4.45-.15-.45-.79-.45-.93,0-.32,1.02-.67,2.74.05,4.15,0,0-.85-4.49-1.37-4.44-1.12.11-.5,4.61-.5,4.61Z"/>
    <path class="cls-1" d="m101.25,72.68s5.15-2.62,2.89-.25c-2.26,2.37-4.3,3.97-6.09,4.59l-3.49-5.28s1.26-3.08,2.74-3.44c.43-.11.78.34.6.75-.23.52-.58,1.21-.95,1.55,0,0,2.23-3.71,3.94-3.94.48-.07.81.48.55.89-.53.82-1.57,2.28-2.53,2.86,0,0,2.1-2.02,3.58-2.69.43-.2.87.27.64.68-.52.94-1.54,2.37-3.05,2.82,0,0,3.85-2.47,4.17-2.06.69.89-3.01,3.53-3.01,3.53Z"/>
    <path class="cls-3" d="m79.31,60.45s-4.3,6.8-11.02,2.15c0,0-5.42-3.1-1.89-7.58l12.91,5.42Z"/>
    <path class="cls-6" d="m50.81,91.7s12.79-22.12,17.48-29.1"/>
    <path class="cls-3" d="m64.01,36.73c-1.76,7.16-5.37,13.43.25,16.94,5.08,3.17,16.95,10.76,20.76,8.34,5.82-3.7,25.1-26.08,1.17-35.16-.29-.11-7.66-3.36-10.6-3.04-4.97.53-9.54,4.62-11.58,12.94Z"/>
    <path d="m76.23,48.61c.33.08.79-.08,1.23-.43.73-.58.85-1.82.86-1.96.02-.31-.2-.58-.51-.61-.31-.02-.58.21-.61.51-.03.37-.18.98-.44,1.18-.17.14-.35.16-.65.19-.27.03-.61.06-.93.26-.31.18-.53.49-.61.87-.11.52.04,1.13.41,1.67.12.17.31.26.5.24.1,0,.19-.04.28-.1.26-.18.32-.52.14-.78-.23-.33-.27-.63-.24-.79,0,0,.02-.38.55-.25Z"/>
    <path class="cls-2" d="m68.98,40.94s1.86,2.87,4.36,2.45"/>
    <path class="cls-2" d="m87.08,50.51s-3.41-.22-4.27-2.62"/>
    <path class="cls-2" d="m71.16,52.42s1.09,1.31,4.7,2.07"/>
    <path class="cls-2" d="m65.2,33.02s5.19,3.66,17.72,1.32"/>
    <path class="cls-2" d="m82.81,29.95s-2.32,12,12.98,19.39"/>
    <g>
      <path d="m57.35,14.98l5.92-7.49h-5.77v-2.05h8.78v1.94l-6,7.6h6.02v2.04h-8.95v-2.04Z"/>
      <path d="m67.08,15.49l4.44-5.62h-4.33v-1.54h6.59v1.46l-4.5,5.7h4.51v1.53h-6.71v-1.53Z"/>
      <path d="m74.41,15.75l3.7-4.68h-3.61v-1.28h5.49v1.21l-3.75,4.75h3.76v1.28h-5.59v-1.28Z"/>
      <path d="m80.65,12.81v-1.14h4.23v1.17l-2.63,3.04h2.72v1.15h-4.52v-1.09l2.66-3.12h-2.47Z"/>
    </g>
  </g>
  <rect class="cls-5" x="-5735.26" y="-5822" width="6467.34" height="6437.3"/>
</svg>