<?xml version="1.0" encoding="UTF-8"?>
<svg xmlns="http://www.w3.org/2000/svg" viewBox="0 0 128 128">
  <defs>
    <style>
      .cls-1, .cls-2, .cls-3 {
        fill: #fff;
      }

      .cls-4 {
        fill: #222221;
      }

      .cls-5, .cls-6 {
        fill: #87ccf3;
      }

      .cls-2, .cls-6 {
        stroke-width: 2px;
      }

      .cls-2, .cls-6, .cls-3 {
        stroke: #000;
        stroke-miterlimit: 10;
      }

      .cls-7 {
        mix-blend-mode: soft-light;
      }

      .cls-8 {
        fill: none;
        stroke: #fff;
        stroke-linecap: round;
        stroke-linejoin: round;
        stroke-width: 8px;
      }

      .cls-9 {
        isolation: isolate;
      }
    </style>
  </defs>
  <g class="cls-9">
    <g id="Calque_1" data-name="Calque 1">
      <path class="cls-6" d="m25.89,68.17c-2.1-1.05-4.61-1.22-6.84-.49-.55.18-1.11.44-1.47.89-.3-1.02-1.56-1.64-2.62-1.72-1.06-.08-2.1.31-3.02.83-.92.52-1.77,1.17-2.71,1.66-1.03.54-2.17.89-3.33,1.02-.92.1-1.96.11-2.62.76-.52.51-.65,1.33-.48,2.03.17.71.61,1.32,1.11,1.86,1.4,1.49,3.32,2.44,5.33,2.84,2.01.4,4.09.28,6.09-.16.47-.1.95-.22,1.43-.2.57.03,1.12.25,1.66.44,2.99,1.06,6.31,1.19,9.37.36.94-.26,1.9-.62,2.57-1.33.7-.73,1.03-1.74,1.17-2.74.24-1.68-.02-3.49-1.03-4.85-1.02-1.36-3-1.77-4.61-1.22Z"/>
      <g>
        <path class="cls-1" d="m85.21,60.3c.46.8,1.2,1.31,2.08,1.56.68.19,1.83.45,2.52.3.78-.17,1.52-1.4,1.87-2.04.45-.84.72-1.78.77-2.73.02-.39.08-1.05-.1-1.41-.18-.35-.76-.68-1.08-.88-1.85-1.16-4.45-1.51-5.89.46-.96,1.32-.96,3.36-.16,4.75Z"/>
        <path d="m84.35,60.81c.57.96,1.46,1.62,2.52,1.97.95.31,2.04.53,3.03.38s1.7-1.03,2.22-1.82c.57-.88,1.02-1.87,1.2-2.91s.37-2.35-.29-3.2c-.58-.74-1.6-1.24-2.46-1.59-1.77-.73-3.86-.68-5.36.61-1.85,1.58-1.99,4.53-.87,6.56.26.47.91.63,1.37.36s.62-.89.36-1.37c-.19-.34-.25-.5-.35-.93-.02-.09-.04-.18-.05-.26-.03-.2.01.23-.01-.11-.02-.22-.03-.43-.02-.65.01-.32.05-.59.18-1,.07-.2.04-.15.14-.34.04-.08.08-.15.13-.23.02-.03.19-.28.12-.18.1-.13.22-.25.35-.37,0,0,.26-.2.1-.09.05-.04.1-.07.16-.11.08-.05.16-.1.24-.14.02-.01.3-.12.1-.05.17-.06.35-.11.53-.15.06-.01.12-.02.18-.03-.23.03.08,0,.1,0,.16,0,.31,0,.47,0,.09,0,.19.01.28.02-.18-.02-.02,0,.02,0,.21.04.41.08.61.14.17.05.34.11.51.17.19.07.07.03.03.01.09.04.18.08.27.12.31.15.6.33.89.52.09.05.17.11.25.17-.12-.09.05.04.07.06l.04.03c.08.09.09.09.02,0l.04.07c-.05-.11-.05-.11-.02,0,.04-.11,0-.06,0,.03,0,.1,0,.21,0,.31,0,.19-.01.38-.03.56-.05.81-.3,1.63-.7,2.36-.15.27-.31.53-.49.79,0,0-.2.26-.09.12-.06.08-.13.15-.2.23-.04.05-.09.09-.14.14-.05.04-.09.08-.14.12.08-.06.08-.06-.01,0-.05.03-.1.06-.15.08.27-.12-.24,0,.01-.02-.21,0-.41,0-.62-.01-.34-.02.08.02-.12-.01-.13-.02-.26-.04-.38-.07-.2-.04-.41-.09-.61-.14s-.38-.1-.57-.17c-.29-.11.12.08-.15-.07-.09-.05-.19-.1-.28-.15-.29-.18-.55-.45-.74-.77-.28-.46-.9-.63-1.37-.36s-.64.9-.36,1.37Z"/>
      </g>
      <g>
        <path class="cls-1" d="m124.3,70.34c-.31-.87-.96-1.5-1.78-1.89-.63-.31-1.72-.76-2.43-.73-.79.03-1.74,1.12-2.19,1.69-.59.75-1.01,1.63-1.23,2.56-.09.38-.26,1.02-.14,1.41.12.38.63.8.91,1.05,1.63,1.46,4.12,2.26,5.88.56,1.17-1.13,1.52-3.14.98-4.65Z"/>
        <path d="m125.26,70.07c-.4-1.06-1.12-1.91-2.13-2.44-.87-.45-1.86-.86-2.85-.92s-1.87.63-2.52,1.32c-.74.78-1.34,1.67-1.74,2.67-.35.86-.74,2.11-.42,3.02.32.91,1.35,1.67,2.14,2.18,1.64,1.08,3.92,1.5,5.63.33,1.92-1.32,2.65-3.98,1.9-6.16-.18-.51-.69-.85-1.23-.7-.5.14-.87.72-.7,1.23.41,1.19.23,2.66-.61,3.56-.24.25-.44.41-.76.57-.1.05-.18.08-.37.13-.07.02-.14.03-.21.05-.21.05.04.01-.15.02-.4.02-.59.01-.9-.06-.35-.08-.66-.19-.9-.31-.67-.33-1.11-.68-1.63-1.17-.07-.07-.14-.13-.21-.21-.19-.21-.08-.08-.06-.06-.1-.09-.06-.09-.03.04-.01-.07,0-.15,0-.22,0-.24.12-.66.21-.98.1-.38.24-.74.42-1.09.08-.15.17-.3.26-.45.07-.11.14-.22.22-.32l.08-.1c-.04.06-.03.05.03-.03.2-.24.4-.47.62-.69.13-.13.27-.26.42-.37-.09.07.05-.03.06-.04.04-.03.3-.17.24-.14-.12.05.15-.04.14-.04-.21.05.04.01.1.02.09,0,.23.04.44.09.4.11.76.25,1.07.39.71.33,1.29.75,1.54,1.4.19.5.67.85,1.23.7.48-.13.89-.72.7-1.23Z"/>
      </g>
      <path class="cls-2" d="m91.95,50.3c4.67-6.14,12.84-6.85,20.9-3.41,12.17,5.19,13.51,19.15,7.84,26.8-3.21,4.06-8.14,6.91-13.56,7.46-7.01.71-14.53-2.66-18.15-8.45-1.76-2.81-2.6-6.09-2.39-9.29.31-4.75,2.43-9.24,5.36-13.1Z"/>
      <g>
        <path class="cls-5" d="m93.32,71.22c-.1.21-.27.37-.45.53-.02.01-.04.03-.06.05-1.29,1.12-2.78,1.81-4.37,2.28-1.76.54-3.64.83-5.46,1.23-2.13.46-4.26.91-6.41,1.38-.01,0-.02,0-.03,0-1.84.39-3.37,1.16-5.3,1.24-2.39.08-4.79.17-7.2.19-2.14,0-4.3-.04-6.44.11-1.34.1-2.68.28-4.01.47-.37.05-.74.11-1.11.16-1.36.2-2.73.41-4.11.53-2.7.25-5.41.24-8.12.22-.85,0-1.72-.01-2.57-.1-.41-.04-.83-.09-1.24-.18-1.26-.25-2.47-.76-3.66-1.27-3.13-1.36-5.81-2.91-7.39-5.47-.2-.33-.39-.69-.55-1.05-.19-.42-.35-.87-.49-1.34-.18-.61-.3-1.26-.37-1.97-.54-5.34,2.14-9.83,6.16-12.77,1.86-1.37,3.99-2.4,6.23-3.02,7.9-2.21,16.24-.06,24.01,1.7,8.2,1.86,17.5,3.64,25.2,7.3.39.18.78.37,1.16.57.19.09.39.2.61.32.14.08.28.16.43.25.85.5,1.82,1.15,2.72,1.89.9.74,1.73,1.59,2.32,2.48,0,0,0,.01.01.02.88,1.34,1.23,2.79.47,4.23Z"/>
        <path d="m92.46,70.71c-.23.38-.7.68-1.07.93-.54.37-1.11.68-1.71.94-1.12.49-2.33.79-3.52,1.06-2.72.6-5.46,1.14-8.18,1.72-1.25.27-2.48.55-3.7.92s-2.45.63-3.78.67c-2.89.1-5.78.16-8.68.16s-5.66.21-8.49.62-5.56.78-8.39.86c-1.39.04-2.79.03-4.19.03s-2.71.02-4.04-.24c-2.34-.47-4.7-1.61-6.73-2.83-1.83-1.1-3.45-2.56-4.29-4.56s-.97-4.52-.47-6.71c.98-4.27,4.21-7.58,8.02-9.53,4.8-2.46,10.43-2.55,15.67-1.87s10.44,2.07,15.62,3.22c5.04,1.12,10.09,2.28,14.98,3.97,2.37.82,4.71,1.76,6.94,2.92,2.06,1.07,4.26,2.54,5.54,4.51.64.99,1.01,2.11.47,3.23s1.16,2.17,1.73,1.01c1.31-2.67-.11-5.26-2.07-7.15s-4.33-3.23-6.79-4.34c-4.97-2.25-10.25-3.72-15.55-4.98-2.65-.63-5.32-1.21-7.98-1.8-2.81-.63-5.61-1.3-8.44-1.85-5.7-1.1-11.68-1.69-17.34-.07-4.71,1.35-9.18,4.45-11.47,8.86-2.25,4.32-2.31,9.99.83,13.9,1.5,1.87,3.64,3.14,5.78,4.14,1.2.57,2.44,1.12,3.7,1.53,1.37.45,2.79.61,4.23.64,3,.08,6.04.08,9.04-.18s5.91-.87,8.89-1.14,6.18-.13,9.26-.19c1.53-.03,3.06-.09,4.59-.14,1.4-.05,2.71-.36,4.04-.76,2.72-.83,5.56-1.31,8.34-1.91s5.57-.97,8.09-2.27c1.03-.53,2.24-1.27,2.85-2.28.67-1.1-1.06-2.11-1.73-1.01Z"/>
      </g>
      <g class="cls-7">
        <path class="cls-4" d="m105.08,65.61c.78-.19,1.66.15,2.09.81.39.6.44,1.62-.05,2.19-.08.09-.19.17-.32.18-.37.03-.44-.37-.4-.65.04-.24.13-.48.12-.72-.03-.53-.54-.89-1.04-.85-.27.02-.52.17-.71.35-.19.19-.27.46-.46.64-.07.06-.15.11-.24.13-.35.06-.52-.25-.47-.55.04-.25.15-.5.3-.71.28-.4.71-.72,1.19-.83Z"/>
      </g>
      <g>
        <path class="cls-1" d="m116.2,81.86c-.32.87-1.85.22-2.78.27-2.91.15-5.81.27-8.72.34-7.82.2-15.64.09-23.44-.48-4.84-.34-15.42.13-14.05-7.55.39-2.19,1.72-4.1,3.23-5.73,2.21-2.38,4.9-4.3,7.85-5.62,2.68-1.21,6.03-1.92,8.52.13.71.58,1.18,1.24,1.5,1.96.55,1.23.65,2.63.66,4.08,4.22,1.97,8.6,3.91,13.07,5.36,1.12.37,2.23.73,3.37,1,.27.07.55.13.83.19,1.31.25,2.48.15,3.79.14,2.59-.02,5.31.97,6.9,2.98,0,0,0,0,0,0,.28.63-1.92.54-3.15-.12,0,0,6.1,2.49-.52,1.83,0,0,3.07.88,2.94,1.23Z"/>
        <path d="m115.34,81.36c-.13.29.02-.06.1-.04.12.03-.31,0-.26,0-.22,0-.43-.05-.64-.08-.72-.1-1.4-.09-2.12-.05-1.83.09-3.65.17-5.48.23-3.55.12-7.09.17-10.64.16-5.96-.03-11.89-.41-17.84-.71-1.78-.09-3.54-.21-5.27-.59-1.59-.35-3.17-.86-4.22-2.02-.42-.46-.69-1.01-.82-1.73-.17-.88.02-2.07.34-3,.94-2.74,3.34-5.04,5.59-6.76,1.4-1.07,2.92-1.97,4.52-2.7,1.31-.6,2.75-1.08,4.21-1.12s2.87.44,3.89,1.56c1.17,1.29,1.26,3.12,1.28,4.77,0,.33.18.72.5.86,3.91,1.83,7.87,3.58,11.95,5,1.95.68,3.97,1.42,6.02,1.71,1.87.27,3.77-.11,5.61.31.94.21,1.84.56,2.65,1.08.38.24.72.52,1.03.84.36.36.64.85,1.21.85l-.96-.73.33-.82c.1-.04.11-.05.03-.03-.03-.02-.01.01-.07,0-.22,0-.44,0-.66-.02-.45-.06-.91-.18-1.32-.38l-.77,1.83c.18.07-.28-.12-.02,0,.17.08.34.15.51.23.43.2.84.42,1.24.66.13.08.21.14.09.05.05.04.12.15.18.17-.2-.06-.17-.48-.12-.68.07-.25.12-.3.31-.47.09-.08.17,0,.09-.04-.02,0-.14.04-.17.04-.15.02.26-.02-.05,0-.18.01-.37.02-.55.02-.59,0-1.18-.05-1.77-.11-1.15-.11-1.32,1.66-.27,1.96.41.12.82.25,1.23.38.3.1.61.2.9.33-.07-.03.19.09.26.13.04.02.09.07.13.08-.02,0-.25-.28-.28-.41v-.53.03c-.08.53.12,1.07.69,1.23.47.13,1.16-.16,1.23-.7.16-1.15-.89-1.52-1.78-1.85-.61-.23-1.23-.43-1.86-.61l-.27,1.96c1.02.1,2.45.36,3.41-.16.84-.45.81-1.46.19-2.08-.74-.74-1.87-1.16-2.82-1.55-1.05-.43-1.77,1.32-.77,1.83.9.45,1.97.73,2.98.68.9-.05,1.98-.6,1.64-1.69-.13-.42-.51-.73-.96-.73h0l.71.29c-1.09-1.33-2.6-2.25-4.23-2.76-1.82-.58-3.62-.44-5.49-.48-2-.04-3.95-.76-5.84-1.38-2.01-.66-4-1.42-5.96-2.23-2.24-.93-4.45-1.93-6.65-2.96l.5.86c-.02-1.73-.16-3.54-1.04-5.07-.81-1.4-2.15-2.44-3.68-2.93-3.03-.98-6.32.29-8.98,1.72-2.9,1.55-5.59,3.71-7.62,6.31-1.73,2.21-3.07,5.12-2.38,7.99,1,4.14,5.99,5.04,9.57,5.4,1.88.19,3.78.21,5.66.35,3.94.28,7.89.45,11.83.52,4.37.07,8.74.03,13.1-.11,2.24-.07,4.49-.18,6.73-.28,1.26-.06,3.19.74,3.9-.78.23-.49.14-1.08-.36-1.37-.43-.25-1.14-.13-1.37.36Z"/>
      </g>
      <g>
        <path class="cls-5" d="m104.7,82.48c-1.63.04-3.25.07-4.88.08-.16,0-.31,0-.48,0-1.39,0-2.77,0-4.16,0-.17,0-.33,0-.5,0-2.04-.02-4.08-.07-6.12-.15-.17,0-.34,0-.5-.02-2.04-.08-4.08-.19-6.12-.33-.17,0-.33-.02-.5-.03-.06,0-.12,0-.18-.01-1.91-.14-4.71-.14-7.32-.58-.17-.02-.33-.05-.49-.08-3.31-.62-6.2-2-6.36-5.29,0-.23,0-.46,0-.7.01-.28.05-.58.11-.89.39-2.19,1.72-4.1,3.23-5.73.1-.11.2-.22.3-.32.25-.27.52-.53.79-.79,1.97-1.86,4.24-3.38,6.7-4.49.02,0,.03-.01.05-.02.26-.12.52-.23.79-.33,2.53-.99,5.48-1.39,7.73.46.71.58,1.18,1.24,1.5,1.96.12.27.22.55.3.84.06.21.11.42.15.63.11.58.16,1.18.19,1.79,0,.07,0,.14,0,.21,0,.13,0,.26,0,.4,0,.03,0,.07,0,.11v.1c1.23.57,2.47,1.15,3.73,1.71h0c.16.07.32.14.49.21,1.3.58,2.62,1.13,3.95,1.66.15.06.3.12.46.18.93.37,1.86.72,2.8,1.05.16.05.3.1.46.16h0c.39.14.79.27,1.18.4,1.12.37,2.23.73,3.37,1-.72,2.2-.97,4.56-.71,6.86Z"/>
        <path d="m104.7,81.48c-5.3.13-10.59.12-15.89-.07-2.52-.09-5.03-.23-7.55-.41-2.35-.16-4.72-.16-7.05-.54-1.66-.27-3.58-.68-4.87-1.84-1.45-1.3-1.46-3.25-.88-5,.72-2.18,2.37-3.99,4.03-5.52,1.76-1.62,3.78-2.96,5.95-3.97,1.98-.93,4.5-1.72,6.63-.81,2.44,1.04,2.9,3.56,2.9,5.95,0,.33.18.72.5.86.73.34,1.45.68,2.18,1.01.33.15.66.3.99.45s.7.38,1.06.38l-.5-.14c2.15.96,4.32,1.86,6.52,2.69,1.08.4,1.96.71,2.95,1.03,1.15.38,2.29.74,3.47,1.03l-.7-1.23c-.73,2.3-.99,4.73-.75,7.12.06.54.42,1,1,1,.5,0,1.06-.46,1-1-.23-2.24-.01-4.45.67-6.59.16-.5-.19-1.11-.7-1.23-2.27-.55-4.42-1.31-6.52-2.1-1.1-.41-2.2-.85-3.29-1.3-.58-.24-1.15-.49-1.73-.74-.42-.18-.97-.54-1.43-.54l.5.14c-1.25-.56-2.49-1.13-3.73-1.71l.5.86c0-2.49-.44-5.07-2.45-6.75-1.94-1.62-4.45-1.85-6.84-1.3s-4.86,1.86-6.93,3.32-4.17,3.37-5.69,5.55c-1.43,2.04-2.4,4.71-1.79,7.21.48,1.96,2.03,3.32,3.81,4.09,2.23.96,4.7,1.23,7.1,1.4,2.6.18,5.21.32,7.81.46,6.56.35,13.13.4,19.7.24,1.28-.03,1.29-2.03,0-2Z"/>
      </g>
      <path class="cls-3" d="m100.82,57.09s-1.29-.89-3.01-.32"/>
      <path class="cls-3" d="m114.48,62.96s1.54.28,2.36,1.89"/>
      <path class="cls-3" d="m111.14,66.08s-.33,1.29,1.15,2.08c1.48.79,2.64-.32,2.64-.32"/>
      <path class="cls-3" d="m100.31,61.63s-.95.9-2.38.03-1.05-2.41-1.05-2.41"/>
      <path class="cls-3" d="m105.44,68.67c.35-.46.43-1.13.15-1.64-.28-.51-.93-.8-1.48-.62-.3.1-.55.32-.79.53"/>
      <g>
        <path class="cls-5" d="m18.8,84.59c10.97.48,22.11-1.3,33.08-1.65,2.15-.07,4.34-.16,6.37-.89,2.02-.74,3.89-2.22,4.54-4.28.63-1.99.02-4.22-1.19-5.93-1.2-1.71-2.94-2.97-4.73-4.06-2.4-1.47-4.95-2.69-7.59-3.66-1.65-.6-3.27-1.33-5.01-1.58-1.14-.17-2.21.06-3.24.48-.58.24-1.14.55-1.68.89-.7.44-1.55.97-2.39,1.6-1.48,1.08-2.91,2.42-3.37,3.88-.07.23-.13.46-.27.65-.11.16-.27.27-.43.38-2.88,1.96-5.97,3.62-9.2,4.92-.56.23-1.13.44-1.72.51-.68.08-1.63-.09-2.3-.19-.49-.77-2.06-1.29-2.96-1.16-.9.13-1.72.59-2.51,1.05-3.16,1.82-6.32,3.64-9.48,5.46-.33.19-.68.39-.91.71-.62.85-.1,2.07.61,2.85,1.92,2.08,4.81,2.02,7.61,1.66s4.67-.98,6.75-1.62Z"/>
        <path d="m18.8,85.59c7.4.31,14.78-.37,22.15-.97,3.72-.3,7.44-.57,11.17-.69,3.26-.11,6.64-.4,9.28-2.52,2.47-1.99,3.26-5.2,2.1-8.14-1.22-3.08-3.94-5.08-6.7-6.7-2.97-1.75-6.15-3.04-9.39-4.21-1.66-.6-3.4-1.06-5.17-.73-1.63.3-3.07,1.2-4.44,2.1-1.55,1.02-3.1,2.15-4.23,3.65-.28.37-.52.75-.71,1.17-.13.29-.18.7-.37.94-.23.29-.73.5-1.05.71-.45.29-.9.57-1.35.84-1.62.98-3.3,1.86-5.02,2.64-.87.4-1.77.83-2.7,1.08-.81.22-1.62.07-2.43-.06l.6.46c-.65-.92-1.73-1.44-2.82-1.61-1.32-.21-2.51.29-3.65.93-2.72,1.53-5.41,3.12-8.12,4.68-1.11.64-2.7,1.22-3.21,2.49s.1,2.6.93,3.55c1.65,1.88,4.24,2.32,6.62,2.19,3.01-.17,5.91-.95,8.78-1.83,1.23-.38.7-2.31-.53-1.93-1.95.6-3.91,1.17-5.93,1.5-1.84.3-3.88.53-5.68-.09-.77-.26-1.52-.76-1.99-1.43-.2-.28-.45-.7-.4-1.07.06-.42.58-.61.9-.79,2.12-1.22,4.24-2.44,6.35-3.66,1.06-.61,2.12-1.23,3.18-1.83.7-.4,1.52-.88,2.36-.75.36.06.72.18,1.04.35.38.21.6.65,1.02.77.93.27,2.11.33,3.06.16,1.07-.2,2.11-.71,3.1-1.15s2.06-.95,3.07-1.48,1.93-1.06,2.86-1.63c.45-.28.9-.56,1.34-.86.48-.32,1.03-.62,1.35-1.12.24-.36.31-.78.48-1.17.21-.47.53-.9.87-1.28.71-.79,1.55-1.46,2.42-2.07,1.63-1.15,3.55-2.57,5.64-2.53,1.12.02,2.24.42,3.28.79s2.15.79,3.21,1.21c2.07.82,4.08,1.83,5.99,2.98,1.72,1.03,3.48,2.21,4.66,3.88,1.09,1.54,1.72,3.59,1,5.42-.63,1.59-2.18,2.75-3.75,3.32-2.19.79-4.53.79-6.83.88-9.59.36-19.12,1.73-28.72,1.71-1.21,0-2.42-.03-3.63-.08-1.29-.05-1.28,1.95,0,2Z"/>
      </g>
      <rect class="cls-8" x="-496.15" y="-606.61" width="1656.38" height="875.1"/>
    </g>
  </g>
</svg>