<?xml version="1.0" encoding="UTF-8"?>
<svg id="Calque_1" data-name="Calque 1" xmlns="http://www.w3.org/2000/svg" viewBox="0 0 128 128">
  <defs>
    <style>
      .cls-1, .cls-2, .cls-3, .cls-4 {
        stroke: #000;
      }

      .cls-1, .cls-2, .cls-5, .cls-6 {
        stroke-linecap: round;
        stroke-linejoin: round;
      }

      .cls-1, .cls-3 {
        fill: #fff;
      }

      .cls-2, .cls-5, .cls-6, .cls-7 {
        fill: none;
      }

      .cls-3, .cls-4, .cls-7 {
        stroke-miterlimit: 10;
      }

      .cls-4 {
        fill: #87ccf3;
      }

      .cls-5 {
        stroke: #afaff9;
        stroke-width: 2px;
      }

      .cls-6 {
        stroke: #fff;
        stroke-width: 8px;
      }

      .cls-7 {
        stroke: #231f20;
      }
    </style>
  </defs>
  <g>
    <path class="cls-3" d="m57.37,26.14s.2-.3.56-.63c1.59-1.5,4.81-1.88,5.84,1.64.71,2.41-2.37,7.68-1.99,8.72,0,0-8.19-4.16-4.41-9.72Z"/>
    <path class="cls-3" d="m98.65,43.11s.03-.36-.03-.85c-.27-2.17-2.52-4.51-5.55-2.45-2.08,1.41-3.05,7.43-4.01,8,0,0,8.97,2,9.59-4.7Z"/>
    <path class="cls-4" d="m45.46,61.31c-2.49,3.07-8.28,10.65-8.41,14.89,0,.08-.06.15-.14.15-1.58.08-16.06,1.22-15.65,17.32,0,.12-.1.21-.21.17-1.33-.5-8.24-2.82-6.94,3.31,0,.03.02.06.04.08.53.56,7.55,7.84,12.13,5.06.03-.02.06-.05.07-.08.39-.84,5.97-12.31,14.87-8.29,0,0,15.45,3.27,8.07,15.15-.02.02-.04.05-.06.06-.54.31-6.85,4.1-.86,9.81,0,0,10.42,10.42,8.64,0l-1.41-3.95c-.04-.11.03-.22.14-.23,1.29-.07,7.85-.74,10.8-7.44h0s3.22-9.4.07-13.61c-.04-.06-.05-.12,0-.17.79-.96,8.33-10.29,8.33-16.56,0-.18.23-.23.31-.08,1.1,2.17,4.84,7.4,14.22,3.31,10.84-4.73,10.79-7.64,10.73-8,0-.03-.01-.05-.03-.07l-4.08-6.12c-.04-.06-.1-.09-.17-.07-.96.24-8.06,2.06-10.38,3.99-.13.11-.31-.02-.27-.18.61-2.15,1.37-8.65-8.61-15.46,0,0-7-6.93-20.9-8.24-1.99-.19-4.04.2-5.68,1.34-.86.6-1.58,1.37-1.88,2.36-.05.17-.29.18-.33,0-.53-2.56-2.13-9.48-4.51-11.49-.04-.04-.1-.05-.16-.03l-6.94,1.73c-.07.02-.13.07-.13.15-.08,1.4-.75,14.93,1.79,17.75,2.39,2.66,3.83,5.55,7.29,3.19.16-.11.36.09.24.24Z"/>
    <path class="cls-1" d="m37.26,33.89s-1.89-6.4-2.08-2.62c-.2,3.77.08,6.75.98,8.74l7.15-1.79s1.63-2.97.76-4.49c-.25-.44-.91-.38-1.1.09-.25.61-.55,1.45-.55,2.02,0,0,1.34-4.81.18-6.43-.33-.46-1.05-.3-1.18.25-.27,1.1-.67,3.13-.39,4.38,0,0,.03-3.36-.58-5.13-.18-.52-.91-.51-1.08,0-.37,1.18-.77,3.17.06,4.79,0,0-.99-5.18-1.58-5.13-1.29.13-.58,5.32-.58,5.32Z"/>
    <path class="cls-1" d="m103.84,66.92s5.94-3.02,3.34-.29c-2.61,2.74-4.96,4.58-7.02,5.29l-4.02-6.09s1.46-3.55,3.16-3.97c.49-.12.9.4.7.86-.27.6-.67,1.4-1.09,1.79,0,0,2.58-4.28,4.55-4.55.56-.08.94.55.63,1.03-.62.95-1.81,2.63-2.91,3.29,0,0,2.42-2.33,4.12-3.1.5-.23,1,.31.73.79-.6,1.08-1.77,2.73-3.52,3.25,0,0,4.44-2.84,4.81-2.37.79,1.02-3.47,4.07-3.47,4.07Z"/>
    <path class="cls-3" d="m78.54,52.81s-4.96,7.84-12.71,2.48c0,0-6.25-3.57-2.18-8.74l14.89,6.25Z"/>
    <path class="cls-7" d="m45.68,88.85s14.75-25.52,20.15-33.56"/>
    <path class="cls-3" d="m60.9,25.46c-2.03,8.25-6.19,15.48.29,19.53,5.86,3.66,19.54,12.41,23.94,9.61,6.72-4.26,28.95-30.07,1.35-40.55-.33-.13-8.83-3.88-12.23-3.51-5.74.62-11,5.32-13.35,14.92Z"/>
    <path class="cls-2" d="m73.81,46.97s-1.32-3.42-5.39-2.9"/>
    <path class="cls-2" d="m62.28,21.18s5.99,4.22,20.43,1.52"/>
    <path class="cls-2" d="m82.59,17.64s-2.68,13.84,14.97,22.36"/>
    <path d="m75,39.16c.38.09.92-.09,1.42-.49.84-.66.98-2.1.99-2.26.03-.36-.24-.67-.59-.7-.35-.03-.67.24-.7.59-.03.43-.21,1.13-.5,1.36-.2.16-.4.19-.75.22-.31.03-.7.07-1.07.3-.36.21-.61.57-.7,1-.13.6.04,1.3.47,1.92.14.19.36.3.58.28.11,0,.22-.05.32-.12.3-.2.37-.6.17-.9-.27-.38-.32-.73-.27-.91,0,0,.02-.44.63-.28Z"/>
    <ellipse cx="68.62" cy="30.84" rx="2.16" ry="1.36" transform="translate(14.12 82.7) rotate(-67.78)"/>
    <ellipse cx="84.69" cy="38.54" rx="2.16" ry="1.36" transform="translate(16.98 102.37) rotate(-67.78)"/>
    <path class="cls-5" d="m65.23,32.59s.61,3.27,4.76,1.67"/>
    <path class="cls-5" d="m81.24,40.11s.61,3.27,4.76,1.67"/>
  </g>
  <rect class="cls-6" x="-5582.14" y="-5822" width="6467.34" height="6437.3"/>
</svg>