<?xml version="1.0" encoding="UTF-8"?>
<svg id="Calque_1" data-name="Calque 1" xmlns="http://www.w3.org/2000/svg" viewBox="0 0 128 128">
  <defs>
    <style>
      .cls-1 {
        stroke: #222221;
      }

      .cls-1, .cls-2, .cls-3 {
        stroke-linecap: round;
        stroke-linejoin: round;
      }

      .cls-1, .cls-3 {
        fill: none;
      }

      .cls-4 {
        fill: #222221;
      }

      .cls-5, .cls-6 {
        stroke-miterlimit: 10;
      }

      .cls-5, .cls-6, .cls-2 {
        stroke: #000;
        stroke-width: 2px;
      }

      .cls-5, .cls-2 {
        fill: #fff;
      }

      .cls-6 {
        fill: #87ccf3;
      }

      .cls-3 {
        stroke: #fff;
        stroke-width: 8px;
      }
    </style>
  </defs>
  <path class="cls-2" d="m116.59,96.49c.83-.11,2.72.31,3.5.63,1.59.65,3.26,1.65,3.71,3.31.09.34.08.79-.24.95-.35.18-.73-.14-1.02-.4-.52-.44-1.14-.75-1.81-.9,1.33.67,2.5,1.65,3.41,2.82.31.4.59.97.28,1.37-.18.23-.5.3-.79.26-.29-.05-.55-.19-.8-.33-.57-.32-1.14-.65-1.71-.97-.7-.39-1.41-.79-2.2-.92,1.17.67,2.19,1.61,2.94,2.74.05.08.11.17.08.26-.02.08-.1.13-.18.17-.72.35-1.55-.13-2.25-.53-.82-.47-1.69-.84-2.59-1.1.63.42,1.2.92,1.71,1.48.2.22.4.47.45.77.05.3-.1.65-.39.72-.17.04-.35-.02-.51-.09-.79-.37-1.33-1.15-2.13-1.5-.98-.43-2.12-.14-3.19-.27-.82-.1-1.61-.46-2.17-1.06-.56-.6-.86-1.46-.74-2.27l6.64-5.14Z"/>
  <path class="cls-2" d="m96.24,102.93c.87-.06,1.72.29,2.5.68,1.6.79,3.26,1.94,3.6,3.69.07.36.03.83-.31.97-.37.16-.74-.2-1.03-.49-.5-.5-1.13-.86-1.81-1.06,1.32.79,2.47,1.89,3.32,3.17.29.44.53,1.05.19,1.44-.2.22-.54.28-.83.21-.29-.07-.55-.24-.8-.4-.57-.38-1.14-.75-1.7-1.13-.69-.46-1.4-.92-2.21-1.11,1.17.78,2.15,1.83,2.84,3.05.05.09.1.19.07.28-.03.08-.11.13-.19.16-.77.31-1.59-.25-2.29-.71-.81-.54-1.69-.99-2.6-1.33.62.48,1.18,1.04,1.66,1.66.19.25.38.52.41.83.03.31-.15.66-.46.71-.18.03-.36-.04-.52-.13-.79-.44-1.3-1.29-2.1-1.71-.98-.52-2.18-.3-3.28-.51-.84-.16-1.64-.59-2.17-1.25-.54-.67-.79-1.57-.6-2.4.03-.13.12-.3.26-.26"/>
  <path class="cls-6" d="m101.81,67.72c3.98,9.16,10.03,20.75,15.93,28.8-2.17,2.25-5.44,4.83-8.3,6.08-.98-1.06-2.2-2.18-3.19-3.24-1.29-1.39-2.58-2.78-3.76-4.27-1.64-2.09-3.04-4.36-4.16-6.77,0,0-4.6-9.19-2.8-14.56,1.8-5.37,6.28-6.04,6.28-6.04Z"/>
  <path class="cls-6" d="m35.43,89.2c-2.9-1.44-6.37-1.69-9.44-.67-.76.25-1.53.6-2.03,1.23-.41-1.41-2.16-2.26-3.62-2.37-1.46-.11-2.9.43-4.17,1.15-1.28.72-2.45,1.61-3.75,2.29-1.43.75-2.99,1.23-4.6,1.4-1.28.14-2.71.15-3.62,1.05-.72.71-.9,1.83-.67,2.81.24.98.84,1.83,1.53,2.56,1.93,2.06,4.59,3.37,7.36,3.93,2.77.55,5.65.38,8.42-.21.65-.14,1.31-.31,1.98-.28.79.04,1.54.35,2.29.61,4.13,1.47,8.71,1.64,12.94.49,1.3-.35,2.62-.86,3.55-1.83.97-1,1.42-2.4,1.62-3.78.33-2.32-.02-4.82-1.43-6.7-1.4-1.88-4.14-2.45-6.36-1.69Z"/>
  <path class="cls-6" d="m59.11,106.55c8.87,1.61,18.32-.14,26.02-4.83,7.7-4.69,13.6-12.28,16.23-20.91,1.28-4.2,1.79-11.95-.25-15.85l-23.58-1.44c-2.16,2.22-5.11,3.66-8.2,4-4.24.46-8.43-1.1-12.69-1.39-7.57-.52-15.41,3.47-18.97,10.17-1.99,3.74-3.23,7.82-2.4,11.98.48,2.41.55,5.04,1.53,7.3.42.96.92,1.91,1.07,2.95.06.38,0,.86-.34,1.02-.31.14-.65-.06-.94-.24-3.53-2.18-8.21-2.34-11.89-.42-.54-.86-2.28-1.43-3.29-1.29-1,.14-1.91.66-2.79,1.16-3.5,2.02-7.01,4.04-10.51,6.06-.37.21-.75.44-1.01.78-.69.94-.11,2.3.68,3.16,2.13,2.3,5.47,3.02,8.6,3.12,2.42.08,4.86-.15,7.18-.86,6.09,2.46,12.62,3.4,19.19,3.22,2.96-.08,5.95-.45,8.73-1.49,2.78-1.04,5.34-2.8,7-5.26l.62-.94Z"/>
  <path class="cls-6" d="m81.63,73.01c1.58,9.97,7.47,18.75,14.29,26.19.81.89,1.7,1.94,1.56,3.13-.1.83-.68,1.52-1.28,2.12-2.06,2.07-4.52,3.75-7.2,4.9-.37.16-.77.31-1.17.27-.48-.05-.86-.42-1.26-.69-5.78-4.04-10.48-12.55-11.03-13.87-2.21-5.33-4.54-10.53-5.81-16.16"/>
  <path class="cls-5" d="m114.56,25.15c-7.91-13.31-23.92-11.64-23.92-11.64-24.39.41-27.19,22.21-27.44,29.6-1.32-.16-2.75.32-3.42,1.45-.22.37-.35.8-.46,1.21-.16.59-.29,1.18-.31,1.79-.07,2.04,1.26,4.05,3.17,4.77,1.05.4,2.22.38,3.29.03,3.45,7.42,9.76,13.53,17.5,16.17,10.02,3.42,22.02.61,29.07-7.28,3.42-3.83,5.66-8.7,6.33-13.79,1-7.55.08-15.76-3.81-22.31Z"/>
  <path class="cls-1" d="m95.9,50.82c.62-.3,1.06-.96,1.04-1.65-.02-.69-.55-1.34-1.23-1.45-.37-.06-.75.04-1.11.13"/>
  <ellipse class="cls-4" cx="79.38" cy="47.23" rx="1.47" ry="1.74"/>
  <ellipse class="cls-4" cx="112.82" cy="47.23" rx="1.47" ry="1.74"/>
  <rect class="cls-3" x="-4804.29" y="-3342.16" width="6467.34" height="6437.3"/>
</svg>