<?xml version="1.0" encoding="UTF-8"?>
<svg id="Calque_1" data-name="Calque 1" xmlns="http://www.w3.org/2000/svg" viewBox="0 0 200 128">
  <defs>
    <style>
      .cls-1 {
        fill: #87ccf3;
      }

      .cls-1, .cls-2, .cls-3, .cls-4, .cls-5 {
        stroke-linecap: round;
        stroke-linejoin: round;
      }

      .cls-1, .cls-2, .cls-3, .cls-6, .cls-7 {
        stroke: #000;
      }

      .cls-2, .cls-6 {
        fill: #fff;
      }

      .cls-3, .cls-4, .cls-5, .cls-8 {
        fill: none;
      }

      .cls-4 {
        stroke: #cfaa57;
        stroke-width: 3px;
      }

      .cls-6, .cls-7, .cls-8 {
        stroke-miterlimit: 10;
      }

      .cls-7 {
        fill: #f3d587;
      }

      .cls-5 {
        stroke: #fff;
        stroke-width: 8px;
      }

      .cls-8 {
        stroke: #231f20;
      }
    </style>
  </defs>
  <rect class="cls-5" x="-4615.61" y="-6040.23" width="6467.34" height="6437.3"/>
  <g>
    <rect class="cls-1" x="5.76" y="29.16" width="73.58" height="83.76" rx="20.3" ry="20.3"/>
    <path class="cls-6" d="m40.81,45s.13-.19.35-.4c1-.95,3.02-1.18,3.67,1.03.45,1.51-1.49,4.83-1.25,5.49,0,0-5.15-2.62-2.78-6.12Z"/>
    <path class="cls-6" d="m66.78,55.68s.02-.23-.02-.53c-.17-1.37-1.58-2.83-3.49-1.54-1.31.89-1.92,4.68-2.52,5.03,0,0,5.64,1.26,6.03-2.96Z"/>
    <path class="cls-7" d="m33.32,67.13c-1.57,1.93-5.21,6.7-5.29,9.37,0,.05-.04.09-.09.09-.99.05-10.1.77-9.85,10.89,0,.07-.06.13-.13.1-.84-.31-5.18-1.78-4.37,2.08,0,.02.01.04.03.05.33.35,4.75,4.93,7.63,3.18.02-.01.04-.03.04-.05.25-.53,3.76-7.74,9.35-5.22,0,0,9.72,2.06,5.08,9.53,0,.02-.02.03-.04.04-.34.2-4.31,2.58-.54,6.17,0,0,6.56,6.56,5.43,0l-.89-2.48c-.02-.07.02-.14.09-.14.81-.04,4.94-.47,6.79-4.68h0s2.03-5.91.04-8.56c-.03-.03-.03-.08,0-.11.5-.6,5.24-6.48,5.24-10.42,0-.11.14-.15.2-.05.69,1.36,3.05,4.66,8.95,2.08,6.82-2.97,6.79-4.8,6.75-5.03,0-.02,0-.03-.02-.04l-2.57-3.85s-.07-.06-.11-.05c-.6.15-5.07,1.3-6.53,2.51-.08.07-.2-.01-.17-.11.38-1.35.86-5.44-5.41-9.72,0,0-4.4-4.36-13.15-5.19-1.25-.12-2.54.12-3.57.84-.54.38-1,.86-1.18,1.49-.03.11-.18.12-.21,0-.33-1.61-1.34-5.96-2.84-7.23-.03-.02-.06-.03-.1-.02l-4.36,1.09s-.08.05-.08.09c-.05.88-.47,9.39,1.13,11.17,1.5,1.67,2.41,3.49,4.58,2.01.1-.07.23.05.15.15Z"/>
    <path class="cls-2" d="m28.16,49.88s-1.19-4.02-1.31-1.65.05,4.25.61,5.5l4.5-1.12s1.02-1.87.48-2.83c-.16-.28-.57-.24-.69.05-.16.38-.35.91-.35,1.27,0,0,.84-3.03.12-4.04-.21-.29-.66-.19-.74.15-.17.69-.42,1.97-.25,2.75,0,0,.02-2.11-.36-3.23-.11-.33-.57-.32-.68,0-.24.74-.49,1.99.04,3.01,0,0-.62-3.26-.99-3.22-.81.08-.36,3.34-.36,3.34Z"/>
    <path class="cls-2" d="m70.05,70.66s3.74-1.9,2.1-.18c-1.64,1.72-3.12,2.88-4.42,3.33l-2.53-3.83s.92-2.23,1.99-2.5c.31-.08.57.25.44.54-.17.38-.42.88-.69,1.13,0,0,1.62-2.69,2.86-2.86.35-.05.59.35.4.65-.39.6-1.14,1.66-1.83,2.07,0,0,1.52-1.47,2.59-1.95.31-.14.63.19.46.5-.38.68-1.11,1.72-2.21,2.04,0,0,2.8-1.79,3.03-1.49.5.64-2.18,2.56-2.18,2.56Z"/>
    <path class="cls-6" d="m54.13,61.78s-3.12,4.93-7.99,1.56c0,0-3.93-2.25-1.37-5.5l9.37,3.93Z"/>
    <path class="cls-8" d="m33.46,84.46s9.28-16.05,12.68-21.11"/>
    <path class="cls-6" d="m43.03,44.58c-1.28,5.19-3.9,9.74.18,12.29,3.69,2.3,12.3,7.81,15.06,6.05,4.22-2.68,18.21-18.92.85-25.51-.21-.08-5.56-2.44-7.69-2.21-3.61.39-6.92,3.35-8.4,9.39Z"/>
    <path d="m51.37,54.59c-.14,0-.28-.05-.37-.18-.27-.39-.38-.84-.3-1.21.06-.27.21-.5.44-.63.23-.14.48-.17.67-.19.22-.02.35-.04.47-.14.18-.14.3-.59.32-.85.02-.22.22-.39.44-.37.22.02.39.21.37.44,0,.1-.09,1.01-.62,1.42-.32.25-.65.29-.89.31-.14.02.04.24,0,.33,0,.01-.38-.23-.4-.15-.03.12,0,.33.17.57.13.19.08.44-.1.57-.06.04-.13.07-.2.07Z"/>
    <path class="cls-3" d="m46.64,47.63s1.35,2.08,3.17,1.78"/>
    <path class="cls-3" d="m59.77,54.58s-2.48-.16-3.1-1.9"/>
    <path class="cls-3" d="m48.22,55.96s.79,1.89,3.41,1.5"/>
    <path class="cls-3" d="m43.9,41.88s3.77,2.65,12.86.95"/>
    <path class="cls-3" d="m56.68,39.66s-1.69,8.71,9.42,14.07"/>
  </g>
  <g>
    <rect class="cls-1" x="118.35" y="29.16" width="73.58" height="83.76" rx="20.3" ry="20.3"/>
    <path class="cls-6" d="m153.4,45s.13-.19.35-.4c1-.95,3.02-1.18,3.67,1.03.45,1.51-1.49,4.83-1.25,5.49,0,0-5.15-2.62-2.78-6.12Z"/>
    <path class="cls-6" d="m179.37,55.68s.02-.23-.02-.53c-.17-1.37-1.58-2.83-3.49-1.54-1.31.89-1.92,4.68-2.52,5.03,0,0,5.64,1.26,6.03-2.96Z"/>
    <path class="cls-7" d="m145.91,67.13c-1.57,1.93-5.21,6.7-5.29,9.37,0,.05-.04.09-.09.09-.99.05-10.1.77-9.85,10.89,0,.07-.06.13-.13.1-.84-.31-5.18-1.78-4.37,2.08,0,.02.01.04.03.05.33.35,4.75,4.93,7.63,3.18.02-.01.04-.03.04-.05.25-.53,3.76-7.74,9.35-5.22,0,0,9.72,2.06,5.08,9.53,0,.02-.02.03-.04.04-.34.2-4.31,2.58-.54,6.17,0,0,6.56,6.56,5.43,0l-.89-2.48c-.02-.07.02-.14.09-.14.81-.04,4.94-.47,6.79-4.68h0s2.03-5.91.04-8.56c-.03-.03-.03-.08,0-.11.5-.6,5.24-6.48,5.24-10.42,0-.11.14-.15.2-.05.69,1.36,3.05,4.66,8.95,2.08,6.82-2.97,6.79-4.8,6.75-5.03,0-.02,0-.03-.02-.04l-2.57-3.85s-.07-.06-.11-.05c-.6.15-5.07,1.3-6.53,2.51-.08.07-.2-.01-.17-.11.38-1.35.86-5.44-5.41-9.72,0,0-4.4-4.36-13.15-5.19-1.25-.12-2.54.12-3.57.84-.54.38-1,.86-1.18,1.49-.03.11-.18.12-.21,0-.33-1.61-1.34-5.96-2.84-7.23-.03-.02-.06-.03-.1-.02l-4.36,1.09s-.08.05-.08.09c-.05.88-.47,9.39,1.13,11.17,1.5,1.67,2.41,3.49,4.58,2.01.1-.07.23.05.15.15Z"/>
    <path class="cls-2" d="m140.75,49.88s-1.19-4.02-1.31-1.65c-.12,2.37.05,4.25.61,5.5l4.5-1.12s1.02-1.87.48-2.83c-.16-.28-.57-.24-.69.05-.16.38-.35.91-.35,1.27,0,0,.84-3.03.12-4.04-.21-.29-.66-.19-.74.15-.17.69-.42,1.97-.25,2.75,0,0,.02-2.11-.36-3.23-.11-.33-.57-.32-.68,0-.24.74-.49,1.99.04,3.01,0,0-.62-3.26-.99-3.22-.81.08-.36,3.34-.36,3.34Z"/>
    <path class="cls-2" d="m182.64,70.66s3.74-1.9,2.1-.18c-1.64,1.72-3.12,2.88-4.42,3.33l-2.53-3.83s.92-2.23,1.99-2.5c.31-.08.57.25.44.54-.17.38-.42.88-.69,1.13,0,0,1.62-2.69,2.86-2.86.35-.05.59.35.4.65-.39.6-1.14,1.66-1.83,2.07,0,0,1.52-1.47,2.59-1.95.31-.14.63.19.46.5-.38.68-1.11,1.72-2.21,2.04,0,0,2.8-1.79,3.03-1.49.5.64-2.18,2.56-2.18,2.56Z"/>
    <path class="cls-6" d="m155.63,44.58c-1.28,5.19-3.9,9.74.18,12.29,3.69,2.3,12.3,7.81,15.06,6.05,4.22-2.68,18.21-18.92.85-25.51-.21-.08-5.56-2.44-7.69-2.21-3.61.39-6.92,3.35-8.4,9.39Z"/>
    <path class="cls-3" d="m148.78,85.03s-1.12,3.86-3.24,3.41"/>
  </g>
  <g>
    <path class="cls-4" d="m106.81,65.17c1.6-1.08,4.32-2.65,6.01-3.59-2.03-1.27-3.4-2.43-5.43-3.7"/>
    <line class="cls-4" x1="87.39" y1="61.21" x2="111.22" y2="61.21"/>
  </g>
  <g>
    <path class="cls-4" d="m93.97,85.03c-1.6-1.08-4.32-2.65-6.01-3.59,2.03-1.27,3.4-2.43,5.43-3.7"/>
    <line class="cls-4" x1="113.39" y1="81.07" x2="89.56" y2="81.07"/>
  </g>
</svg>