<?xml version="1.0" encoding="UTF-8"?>
<svg id="Calque_1" data-name="Calque 1" xmlns="http://www.w3.org/2000/svg" viewBox="0 0 128 128">
  <defs>
    <style>
      .cls-1, .cls-2, .cls-3, .cls-4, .cls-5 {
        stroke-linecap: round;
        stroke-linejoin: round;
      }

      .cls-1, .cls-2, .cls-3, .cls-4, .cls-6 {
        stroke: #000;
      }

      .cls-1, .cls-4, .cls-5, .cls-6 {
        fill: none;
      }

      .cls-7 {
        fill: #fab0b4;
      }

      .cls-2 {
        fill: #d6d6d6;
      }

      .cls-2, .cls-4 {
        stroke-width: 2px;
      }

      .cls-3 {
        fill: #76ac75;
        stroke-width: .25px;
      }

      .cls-5 {
        stroke: #fff;
        stroke-width: 8px;
      }

      .cls-6 {
        stroke-miterlimit: 10;
      }
    </style>
  </defs>
  <circle cx="82.64" cy="56.73" r="1.45"/>
  <path class="cls-1" d="m81.91,50.55s.17,3.76-3.73,4.12"/>
  <polygon class="cls-7" points="82.65 69.96 82.65 69.96 82.65 69.96 82.65 69.96"/>
  <path class="cls-7" d="m88.51,68.42l-.05.02s0-.03,0-.03c.02,0,.03.02.05.02Z"/>
  <path class="cls-1" d="m83.65,35.09s-5.53,12.62-17.42,13.56"/>
  <path class="cls-4" d="m90.73,59.91s6.74,14.55-4.86,17.78c-4.24,1.17-5.87,2.55-5.82,4.06,0,.05.01.12.01.18.01.08.04.18.05.26.6,2.56,5.49,5.53,10.61,8.81h.03c.05.04.25.16.53.42.12.1.23.2.37.33,1.21,1.23,3.51,4.21,6.27,11.14-8.72,6.88-19.74,10.98-31.7,10.98-9.56,0-18.51-2.62-26.17-7.18.89-3.46,1.7-5.69,1.7-5.69,5.88-14,16.84-12.27,18.43-16.46,1.59-4.17-.8-5.15-.8-5.15-18.49-3.65-24.62-15.3-22.98-26.89,1.63-11.58,12.27-29.72,34.6-24.26,22.34,5.45,15.76,23.99,15.76,23.99"/>
  <path class="cls-2" d="m117.46,62.62c0,16.33-7.64,30.88-19.53,40.27-2.75-6.93-5.05-9.92-6.27-11.14-.14-.12-.25-.23-.37-.33-.29-.26-.48-.38-.53-.42h-.03c-5.12-3.28-10.01-6.25-10.61-8.81-.01-.08-.04-.18-.05-.26,0-.05-.01-.12-.01-.18-.05-1.51,1.58-2.89,5.82-4.06,11.61-3.23,4.86-17.78,4.86-17.78,1.08-.4,5.53-5.6-.57-4.55-2.73.47-3.39-3.13-3.39-3.13,0,0,6.58-18.54-15.76-23.99-22.33-5.46-32.97,12.68-34.6,24.26-1.63,11.59,4.5,23.24,22.98,26.89,0,0,2.4.98.8,5.15-1.59,4.18-12.55,2.45-18.43,16.46,0,0-.82,2.23-1.7,5.69-15.01-8.92-25.08-25.32-25.08-44.07,0-28.29,22.94-51.23,51.25-51.23s51.23,22.94,51.23,51.23Z"/>
  <path class="cls-6" d="m92.68,68.43s-1.89-1.52-5.96,0"/>
  <path class="cls-3" d="m92.19,58.86s5.24,15.11,7.2,13.32-7.2-13.32-7.2-13.32Z"/>
  <path class="cls-3" d="m96.13,74.42s.93,6.51,2.44,6.2-2.44-6.2-2.44-6.2Z"/>
  <path class="cls-1" d="m57.17,59.16s-6.58.24-4.59,6.19c2,5.95,6.33,2.51,6.33,2.51"/>
  <line class="cls-1" x1="55.97" y1="63.86" x2="57.33" y2="63.65"/>
  <rect class="cls-5" x="-2168.17" y="-4971.2" width="6467.34" height="6437.3"/>
</svg>