<?xml version="1.0" encoding="UTF-8"?>
<svg id="Calque_1" data-name="Calque 1" xmlns="http://www.w3.org/2000/svg" viewBox="0 0 128 128">
  <defs>
    <style>
      .cls-1 {
        fill: #222221;
      }

      .cls-2, .cls-3 {
        stroke-miterlimit: 10;
        stroke-width: 2px;
      }

      .cls-2, .cls-3, .cls-4 {
        stroke: #000;
      }

      .cls-2, .cls-4 {
        fill: #fff;
      }

      .cls-3 {
        fill: #87ccf3;
      }

      .cls-5 {
        stroke: #fff;
        stroke-width: 8px;
      }

      .cls-5, .cls-4, .cls-6 {
        stroke-linecap: round;
        stroke-linejoin: round;
      }

      .cls-5, .cls-6 {
        fill: none;
      }

      .cls-4, .cls-6 {
        stroke-width: 1.5px;
      }

      .cls-6 {
        stroke: #222221;
      }
    </style>
  </defs>
  <path class="cls-4" d="m111.4,93.42c.75-.1,2.46.28,3.16.57,1.44.58,2.94,1.48,3.35,2.98.08.31.07.72-.21.86-.31.16-.66-.13-.92-.36-.46-.4-1.03-.68-1.63-.81,1.2.61,2.25,1.48,3.07,2.55.28.36.53.88.25,1.24-.16.21-.45.27-.71.23-.26-.04-.49-.17-.72-.3-.51-.29-1.03-.58-1.54-.87-.63-.35-1.27-.72-1.98-.83,1.06.6,1.97,1.45,2.65,2.47.05.07.1.16.07.24-.02.07-.09.12-.16.15-.65.32-1.4-.12-2.03-.48-.74-.42-1.52-.76-2.34-1,.57.38,1.08.83,1.54,1.34.18.2.36.42.4.69.04.27-.09.58-.35.65-.15.04-.31-.01-.46-.08-.71-.34-1.2-1.04-1.92-1.36-.88-.39-1.91-.13-2.87-.24-.74-.09-1.45-.41-1.96-.95-.5-.54-.78-1.31-.67-2.05l5.99-4.63Z"/>
  <path class="cls-4" d="m93.06,99.22c.79-.05,1.55.26,2.25.61,1.44.71,2.94,1.75,3.25,3.33.06.33.02.75-.28.88-.34.14-.67-.18-.93-.44-.45-.45-1.02-.78-1.63-.96,1.19.72,2.23,1.7,3,2.86.26.39.48.95.17,1.3-.18.2-.49.25-.75.19-.26-.06-.5-.21-.72-.36-.51-.34-1.02-.68-1.53-1.02-.62-.41-1.26-.83-1.99-1,1.05.7,1.93,1.65,2.56,2.75.04.08.09.17.06.25-.03.07-.1.12-.17.15-.7.28-1.44-.22-2.06-.64-.73-.49-1.52-.89-2.35-1.2.56.44,1.06.94,1.49,1.5.17.22.34.47.37.74.03.28-.14.6-.41.64-.16.03-.32-.04-.47-.12-.71-.4-1.17-1.16-1.89-1.54-.89-.47-1.97-.27-2.96-.46-.76-.14-1.48-.53-1.96-1.13-.48-.6-.71-1.41-.54-2.17.03-.12.11-.27.23-.24"/>
  <path class="cls-3" d="m98.09,67.49c3.58,8.26,9.04,18.7,14.36,25.96-1.95,2.03-4.91,4.35-7.48,5.48-.89-.95-1.99-1.96-2.87-2.92-1.16-1.25-2.33-2.51-3.39-3.85-1.48-1.88-2.74-3.93-3.75-6.1,0,0-4.14-8.29-2.52-13.13,1.62-4.84,5.66-5.44,5.66-5.44Z"/>
  <path class="cls-3" d="m38.25,86.84c-2.61-1.3-5.74-1.52-8.51-.61-.69.23-1.38.54-1.83,1.11-.37-1.27-1.94-2.04-3.26-2.14-1.32-.1-2.61.39-3.76,1.04-1.15.65-2.21,1.45-3.38,2.07-1.29.67-2.7,1.11-4.14,1.26-1.15.13-2.44.13-3.26.95-.64.64-.81,1.65-.6,2.53.21.88.76,1.65,1.38,2.31,1.74,1.86,4.14,3.04,6.63,3.54,2.5.5,5.1.34,7.59-.19.59-.13,1.18-.28,1.78-.25.71.03,1.39.31,2.06.55,3.72,1.32,7.85,1.48,11.66.44,1.17-.32,2.36-.78,3.2-1.65.87-.91,1.28-2.16,1.46-3.41.3-2.09-.02-4.35-1.29-6.04-1.27-1.69-3.73-2.21-5.73-1.52Z"/>
  <path class="cls-3" d="m59.59,102.48c8,1.45,16.51-.13,23.46-4.36,6.94-4.23,12.26-11.07,14.63-18.84,1.16-3.79,1.61-10.78-.22-14.28l-21.26-1.29c-1.95,2-4.61,3.3-7.39,3.6-3.82.41-7.6-.99-11.44-1.26-6.82-.47-13.9,3.13-17.1,9.17-1.79,3.38-2.91,7.05-2.17,10.79.43,2.17.5,4.55,1.38,6.58.38.87.83,1.72.97,2.66.05.35,0,.78-.31.92-.28.12-.59-.05-.85-.21-3.18-1.96-7.4-2.11-10.72-.38-.49-.77-2.06-1.29-2.96-1.16-.9.13-1.72.59-2.51,1.05-3.16,1.82-6.32,3.64-9.48,5.46-.33.19-.68.39-.91.71-.62.85-.1,2.07.61,2.85,1.92,2.08,4.93,2.72,7.75,2.81,2.18.07,4.38-.13,6.47-.77,5.49,2.22,11.38,3.07,17.3,2.9,2.67-.07,5.37-.41,7.87-1.34,2.5-.94,4.82-2.52,6.31-4.74l.56-.85Z"/>
  <path class="cls-3" d="m79.9,72.25c1.43,8.98,6.74,16.9,12.88,23.61.73.8,1.54,1.74,1.41,2.83-.09.75-.62,1.37-1.15,1.91-1.86,1.87-4.07,3.38-6.49,4.42-.34.14-.69.28-1.06.24-.44-.05-.77-.38-1.13-.63-5.21-3.64-9.45-11.31-9.94-12.5-1.99-4.8-4.1-9.49-5.23-14.56"/>
  <path class="cls-2" d="m109.57,29.12c-7.13-12-21.57-10.49-21.57-10.49-21.98.37-24.51,20.02-24.73,26.68-1.19-.15-2.48.28-3.08,1.31-.2.34-.31.72-.41,1.1-.14.53-.26,1.07-.28,1.61-.07,1.84,1.14,3.65,2.86,4.3.94.36,2,.34,2.96.03,3.11,6.69,8.8,12.19,15.78,14.57,9.03,3.08,19.85.55,26.2-6.56,3.09-3.45,5.1-7.84,5.71-12.43.9-6.8.07-14.21-3.44-20.11Z"/>
  <path class="cls-6" d="m92.75,52.26c.56-.27.96-.87.93-1.49-.02-.62-.5-1.21-1.11-1.3-.34-.05-.68.04-1,.12"/>
  <ellipse class="cls-1" cx="77.87" cy="49.02" rx="1.33" ry="1.57"/>
  <ellipse class="cls-1" cx="108.01" cy="49.02" rx="1.33" ry="1.57"/>
  <rect class="cls-5" x="-311.72" y="-603.23" width="1656.38" height="875.1"/>
</svg>