<?xml version="1.0" encoding="UTF-8"?>
<svg id="Calque_1" data-name="Calque 1" xmlns="http://www.w3.org/2000/svg" viewBox="0 0 200 128">
  <defs>
    <style>
      .cls-1 {
        fill: #89ccf2;
      }

      .cls-1, .cls-2, .cls-3, .cls-4, .cls-5 {
        stroke: #010101;
        stroke-width: 1.25px;
      }

      .cls-1, .cls-2, .cls-4, .cls-6 {
        stroke-linecap: round;
        stroke-linejoin: round;
      }

      .cls-2, .cls-7, .cls-5 {
        fill: #fff;
      }

      .cls-3 {
        fill: #f4d688;
      }

      .cls-3, .cls-5 {
        stroke-miterlimit: 10;
      }

      .cls-4, .cls-6 {
        fill: none;
      }

      .cls-8 {
        fill: #010101;
      }

      .cls-9 {
        fill: #222221;
      }

      .cls-6 {
        stroke: #fff;
        stroke-width: 8px;
      }
    </style>
  </defs>
  <rect class="cls-6" x="-6113.51" y="-5566.62" width="6467.34" height="6437.3"/>
  <g id="Calque_2-2" data-name="Calque 2">
    <g id="Titres_catégories" data-name="Titres catégories">
      <g>
        <path class="cls-1" d="m141.19,5.73H58.81c-13.89,0-25.18,11.25-25.18,25.13v66.25c0,13.89,11.28,25.13,25.18,25.13h82.38c13.91,0,25.18-11.24,25.18-25.13V30.86c0-13.88-11.27-25.13-25.18-25.13Z"/>
        <g>
          <path class="cls-8" d="m133.35,35.77l5.93-7.5h-5.78v-2.06h8.8v1.96l-6.02,7.62h6.03v2.05h-8.98v-2.05s.02-.02.02-.02Z"/>
          <path class="cls-8" d="m143.6,35.36v-1.84h6.8v1.88l-4.21,4.89h4.36v1.84h-7.23v-1.76l4.26-5.01h-3.99,0Z"/>
          <path class="cls-8" d="m152.78,41.14v-1.42h5.94v1.46l-3.69,3.8h3.84v1.43h-6.34v-1.35l3.75-3.92h-3.5Z"/>
        </g>
        <g>
          <path class="cls-3" d="m133.49,70.55s-4.24,7.01-6.15,8.64c-1.91,1.63-.86-14.43-.86-14.43h4.56s2.45,5.79,2.45,5.79Z"/>
          <g>
            <path class="cls-7" d="m137.52,55.83c-.31.7-.29,1.45-.03,2.16.2.55.59,1.45,1.04,1.84.5.44,1.69.33,2.29.25.79-.11,1.55-.39,2.21-.83.27-.18.75-.46.9-.76.15-.29.08-.84.06-1.16-.13-1.82-1.17-3.74-3.2-3.74-1.36,0-2.73,1-3.28,2.22v.02Z"/>
            <path class="cls-8" d="m136.98,55.52c-.4.95-.39,1.91,0,2.87.28.72.63,1.58,1.29,2.04.57.4,1.38.4,2.05.35.89-.07,1.74-.27,2.54-.68.7-.36,1.62-.88,1.76-1.72.11-.7,0-1.51-.19-2.19-.37-1.39-1.31-2.73-2.77-3.09-1.88-.46-3.89.73-4.69,2.43-.14.3-.09.67.22.85.27.16.71.08.85-.22.5-1.07,1.61-1.95,2.83-1.91,1.03.03,1.78.8,2.16,1.71.2.5.3,1.02.34,1.55.02.2.07.53,0,.7-.08.2-.42.37-.6.49-.62.4-1.28.67-2.02.79q-.12.02-.29.04c-.12,0-.24.02-.37.03-.27,0-.55.02-.82-.03s-.34-.09-.5-.28c-.21-.27-.37-.6-.51-.9-.31-.68-.54-1.45-.23-2.17.13-.31.09-.67-.22-.85-.26-.15-.72-.09-.85.22l.02-.03Z"/>
          </g>
          <g>
            <path class="cls-7" d="m149.98,87.07c.43-.63.54-1.38.4-2.13-.1-.58-.33-1.53-.7-2-.41-.52-1.6-.62-2.22-.64-.79-.03-1.59.12-2.32.43-.3.13-.82.33-1.02.6-.2.26-.23.81-.26,1.13-.18,1.81.51,3.89,2.51,4.23,1.34.23,2.86-.52,3.61-1.63h0Z"/>
            <path class="cls-8" d="m150.52,87.39c.54-.84.62-1.8.43-2.76-.14-.73-.35-1.61-.88-2.17-.53-.56-1.39-.67-2.11-.74-.89-.09-1.81,0-2.66.29-.76.27-1.66.6-1.92,1.45-.21.68-.22,1.51-.14,2.21.17,1.48.89,2.89,2.34,3.46,1.8.71,3.88-.22,4.94-1.73.19-.28.05-.69-.22-.85-.31-.18-.66-.05-.85.22-.65.93-1.95,1.57-3.08,1.3-1.04-.24-1.61-1.12-1.82-2.12-.11-.5-.1-1.03-.05-1.55.02-.21.02-.52.13-.68.09-.13.44-.26.62-.34.71-.31,1.45-.46,2.23-.44.49.02,1.05.05,1.51.26.22.1.27.18.39.42.15.32.25.67.33,1.01.18.76.2,1.46-.24,2.14s.64,1.3,1.08.63h-.03Z"/>
          </g>
          <path class="cls-5" d="m147.56,55.45c6.43.12,10.92,5.28,12.57,12.39,2.49,10.74-6.24,18.51-14.18,18.45-4.31-.17-8.66-2.08-11.69-5.46-3.92-4.37-5.35-11.09-3.24-16.37,1.03-2.56,2.82-4.74,5.08-6.18,3.35-2.12,7.41-2.91,11.45-2.83h.01Z"/>
          <path class="cls-9" d="m143.71,71.81c.51.43.71,1.19.48,1.81-.21.56-.87,1.1-1.5,1.04-.1,0-.21-.05-.28-.13-.2-.23.04-.48.24-.58.18-.09.39-.15.54-.28.34-.28.34-.8.06-1.12-.15-.17-.37-.27-.59-.31-.22-.04-.44.04-.66,0-.08-.01-.15-.04-.21-.1-.21-.21-.08-.47.14-.59.19-.1.41-.14.62-.15.41,0,.83.13,1.15.39v.02Z"/>
          <path class="cls-4" d="m147.36,64.76s-.04-1.31-1.26-2.18"/>
          <path class="cls-4" d="m150.13,76.84s.57,1.17-.11,2.52"/>
          <path class="cls-4" d="m146.38,76.12s-1.03.41-.84,1.79,1.51,1.62,1.51,1.62"/>
          <path class="cls-4" d="m144.05,66.65s-1.08-.2-1.19-1.59,1.1-1.89,1.1-1.89"/>
          <path class="cls-4" d="m141.84,73.56c.48,0,.97-.27,1.18-.71.2-.44.08-1.02-.31-1.3-.22-.15-.48-.21-.74-.27"/>
          <path class="cls-3" d="m103.74,78.74c-2.8.02-8.67-.18-10.14-.18,0,0-4.84-.28-8.62.36-3.78.64-11.97,1.78-14.96,1.92-2.99.14-14.96.5-14.96.5,0,0-5.84-1.57-8.62-.5-2.78,1.07-6.55.21-6.98-1.5s2.71-4.99,5.2-6.2c2.49-1.21,6.34-4.42,8.12-3.99s11.97,2.85,12.25,2.99l12.57-11.47c1.07-2.56,6.02-7.05,6.73-7.26s6.2-1.71,7.84-1.35c1.64.36,5.56.93,8.48,1,2.92.07,3.42,1.78,5.27,1.28s5.2-.21,7.27-.28c2.07-.07,7.48.36,11.61.07,4.13-.28,9.54,1.64,9.54,1.64l-3.7,3.92-6.7,15.39-6.14,1.53"/>
          <path class="cls-2" d="m103.78,79.74c-1.36,1.05.31,3.1,2.42,3.57.77.17,4.93-.41,4.93-.41l5.56-1.5.14-4.2s-1.1-2.37-2.46-3.36-3.6-2.35-4.45-2.48c-1.1-.17-2.56-.21-2.56.71s1.92,1.85,1.92,1.85c0,0,1.14.78,1.71.85,0,0-3.14-.64-4.07-1.21s-2.28.85-.63,2.56c.55.57,2.09,1.63,2.09,1.63"/>
          <path class="cls-3" d="m77.79,59.61s1.52-4.64,7.91-6.81c10.12-3.44,16.97,7.51,7.02,15.09-1.08.82-8.66,6.03-12.51,6.46-3.85.43-9.97.93-13.11,3.28-3.13,2.35-9.26,5.98-11.33,7.19-2.07,1.21-6.84,2.49-8.55.85-1.71-1.64-1.71-4.77,1.57-6.98,3.28-2.21,6.2-2.71,6.48-2.99s2.78-2.21,3.06-2.71,7.34-7.27,11.04-9.05,7.55-3.35,8.4-4.34h.02Z"/>
          <path class="cls-3" d="m121.31,81.48s-2.35,1.64-3.7,1.64-6.28.17-6.28.17c0,0,3.11-1.5,4.2-4.33.67-1.75,1.66-5.16.52-6.7l1.92,2.96s3.28,3.92,3.35,6.27h0Z"/>
          <path class="cls-3" d="m136.27,62.18c1.85-2.38,2.82-4.68-2.23-6.53-5.06-1.85-8.17-.09-11.66,1.19s-8.9,7.98-6.27,15.74c2.64,7.76,7.76,11.82,7.76,11.82,0,0,2.79-3.75,6.91-4.91,0,0-1.35-3.21-1.85-4.13-.5-.93-1.42-4.77-1.21-6.7.21-1.92,6.7-4.1,8.55-6.48Z"/>
          <path class="cls-2" d="m130.56,79.83s3.57.37,4.42,1.37,2.21,2.21,2.71,2.35,2.35,2.14,1.5,3.28-2.28.14-2.49-.5-.6-1.41-.6-1.41c0,0,1.24,3.19-.04,3.55-1.28.36-2.45-2.96-2.45-2.96,0,0,1.42,3.43.17,3.89-1.67.62-2.76-3.25-2.76-3.25,0,0,1.19,3.54-.23,3.75s-1.99-1.78-1.99-1.78c0,0-3.28-1.5-3.63-2.49-.36-1-.76-1.52-.76-1.52,0,0,2.04-3.41,6.17-4.27h-.02Z"/>
          <path class="cls-2" d="m106.77,81.88s-2.02-.45-2.7-1.83c-1.28-2.59.78-2.78.78-2.78,0,0,.85,2.21,2.85,2.92,0,0-1.57-.5-2.56-2.14-1-1.64.48-2.34.48-2.34l3,1.84"/>
        </g>
      </g>
    </g>
  </g>
</svg>