<?xml version="1.0" encoding="UTF-8"?>
<svg xmlns="http://www.w3.org/2000/svg" viewBox="0 0 128 128">
  <defs>
    <style>
      .cls-1, .cls-2, .cls-3, .cls-4 {
        fill: #fff;
      }

      .cls-5 {
        fill: #222221;
      }

      .cls-2, .cls-6, .cls-3, .cls-4, .cls-7 {
        stroke-miterlimit: 10;
      }

      .cls-2, .cls-6, .cls-3, .cls-4, .cls-7, .cls-8 {
        stroke: #000;
      }

      .cls-2, .cls-6, .cls-8 {
        stroke-width: 2px;
      }

      .cls-6, .cls-7, .cls-8 {
        fill: #87ccf3;
      }

      .cls-9 {
        mix-blend-mode: soft-light;
      }

      .cls-10 {
        fill: none;
        stroke: #fff;
        stroke-linecap: round;
        stroke-linejoin: round;
        stroke-width: 8px;
      }

      .cls-4 {
        stroke-width: 1.5px;
      }

      .cls-7 {
        stroke-width: .76px;
      }

      .cls-8 {
        stroke-linejoin: bevel;
      }

      .cls-11 {
        isolation: isolate;
      }
    </style>
  </defs>
  <g class="cls-11">
    <g id="Calque_1" data-name="Calque 1">
      <path class="cls-7" d="m97.49,63.6s-4.24,7.01-6.15,8.64-.86-14.43-.86-14.43h4.56l2.45,5.79Z"/>
      <g>
        <path class="cls-1" d="m101.53,48.88c-.31.7-.29,1.45-.03,2.16.2.55.59,1.45,1.04,1.84.5.44,1.69.33,2.29.25.79-.11,1.55-.39,2.21-.83.27-.18.75-.46.9-.76.15-.29.08-.84.06-1.16-.13-1.82-1.17-3.74-3.2-3.74-1.36,0-2.73,1-3.28,2.22Z"/>
        <path d="m100.66,48.37c-.44,1.04-.46,2.1-.04,3.16.32.81.71,1.75,1.46,2.26.63.43,1.5.46,2.24.4.96-.07,1.87-.29,2.73-.73.79-.4,1.77-1,1.93-1.95.13-.77.01-1.64-.19-2.39-.4-1.51-1.44-2.96-3.03-3.35-2.03-.5-4.24.74-5.11,2.6-.23.49-.14,1.08.36,1.37.43.25,1.14.13,1.37-.36.07-.14.14-.28.22-.42.04-.07.09-.13.13-.2.1-.14-.15.16.05-.06.24-.25.43-.44.61-.56.29-.2.53-.31.72-.37.14-.04.28-.08.42-.11.17-.03-.23,0,.06,0,.09,0,.19,0,.28,0,.08,0,.15,0,.23.02.16.01-.22-.06.04.01.13.04.27.07.4.12-.21-.07.1.06.16.09.06.03.11.07.17.11.21.13-.12-.13.05.04.1.09.2.18.29.28.04.04.07.08.1.12-.15-.18.02.03.04.06.07.1.13.21.19.32.03.06.06.12.09.19.02.03.1.28.03.07.09.27.18.53.24.81.01.06.02.11.03.17,0,0,.04.28.02.12s.01.12.01.12c0,.08.01.16.02.23.01.15.02.29.02.44,0,.06,0,.12,0,.18,0-.3-.01.13.02-.07.02-.12-.1.08.03-.05-.05.04-.09.09-.14.13.14-.12-.11.08-.11.08-.08.05-.15.1-.23.15-.63.41-1.16.61-1.93.75-.31.05.02,0,.02,0-.02.02-.19.02-.22.02-.12.01-.24.02-.37.03-.13,0-.26,0-.39,0-.09,0-.17,0-.26-.01-.21-.01.15.05-.07-.01-.05-.01-.11-.03-.16-.04-.11-.04-.1-.03.03.02-.03-.01-.06-.03-.09-.05-.11-.1.16.19,0,0-.02-.02-.19-.22-.06-.05-.21-.28-.36-.59-.51-.9,0,.01-.12-.27-.06-.13.04.1-.06-.17-.07-.19-.06-.17-.11-.35-.16-.52-.06-.25-.04-.7.06-.94.21-.5.15-1.07-.36-1.37-.42-.25-1.16-.14-1.37.36Z"/>
      </g>
      <g>
        <path class="cls-1" d="m113.98,80.12c.43-.63.54-1.38.4-2.13-.1-.58-.33-1.53-.7-2-.41-.52-1.6-.62-2.22-.64-.79-.03-1.59.12-2.32.43-.3.13-.82.33-1.02.6-.2.26-.23.81-.26,1.13-.18,1.81.51,3.89,2.51,4.23,1.34.23,2.86-.52,3.61-1.63Z"/>
        <path d="m114.85,80.62c.6-.92.68-1.99.47-3.05-.16-.8-.4-1.73-.98-2.34s-1.55-.77-2.37-.85c-.92-.09-1.88,0-2.76.3s-1.88.72-2.18,1.71c-.22.7-.24,1.58-.16,2.31.19,1.66,1,3.18,2.61,3.82,1.96.78,4.22-.27,5.36-1.91.31-.44.08-1.11-.36-1.37-.5-.29-1.06-.09-1.37.36-.17.24.13-.13-.07.09-.04.05-.08.09-.12.14-.11.11-.22.22-.35.32.13-.11-.03.02-.06.05-.07.05-.13.09-.2.13-.05.03-.11.07-.17.1-.03.02-.37.18-.2.11-.26.11-.55.19-.83.23.22-.03-.08,0-.11,0-.06,0-.12,0-.19,0-.09,0-.19,0-.28-.02.18.02-.03-.01-.09-.03-.14-.03-.28-.08-.41-.13.21.08-.14-.08-.2-.12-.04-.03-.09-.06-.13-.09.2.13,0,0-.04-.04-.1-.09-.18-.18-.27-.28-.17-.19.1.17-.03-.05-.03-.04-.06-.09-.09-.13-.07-.11-.13-.23-.19-.35-.11-.22.02.13,0-.02-.01-.06-.05-.13-.07-.19-.05-.15-.09-.31-.13-.47-.01-.05-.02-.11-.03-.16-.06-.26,0,.14,0-.02,0-.12-.02-.25-.03-.37-.01-.3,0-.6.03-.89,0-.07.02-.14.02-.2,0-.16-.05.23,0-.05.01-.06.02-.12.04-.18.01-.05.12-.29.01-.07-.07.16-.05,0-.01.03l-.07.05s.1-.06.15-.09c.13-.07.27-.14.41-.2.01,0,.27-.11.09-.04.07-.03.15-.06.22-.08.19-.07.38-.12.57-.17.39-.09.7-.11,1.15-.1.22,0,.45.03.67.05-.25-.03.04,0,.08.01.06.01.11.02.17.03.17.04.33.08.49.14-.2-.08-.06-.03-.02,0,.04.02.09.05.13.08-.11-.09-.12-.09-.04-.02-.03-.02-.12-.19-.02-.03.04.07.08.15.12.22.14.24-.05-.18.04.1.03.09.06.18.09.27.06.18.11.37.15.55.04.15.07.3.1.45s-.01-.26.02.11c0,.11.01.22,0,.33,0-.03-.03.32-.01.2,0-.06,0-.03-.02.08-.02.07-.03.14-.06.21-.03.12-.12.28-.23.46-.29.45-.09,1.1.36,1.37.48.28,1.07.1,1.37-.36Z"/>
      </g>
      <path class="cls-2" d="m111.57,48.5c6.43.12,10.92,5.28,12.57,12.39,2.49,10.74-6.24,18.51-14.18,18.45-4.31-.17-8.66-2.08-11.69-5.46-3.92-4.37-5.35-11.09-3.24-16.37,1.03-2.56,2.82-4.74,5.08-6.18,3.35-2.12,7.41-2.91,11.45-2.83Z"/>
      <g class="cls-9">
        <path class="cls-5" d="m107.72,64.86c.51.43.71,1.19.48,1.81-.21.56-.87,1.1-1.5,1.04-.1,0-.21-.05-.28-.13-.2-.23.04-.48.24-.58.18-.09.39-.15.54-.28.34-.28.34-.8.06-1.12-.15-.17-.37-.27-.59-.31-.22-.04-.44.04-.66,0-.08-.01-.15-.04-.21-.1-.21-.21-.08-.47.14-.59.19-.1.41-.14.62-.15.41,0,.83.13,1.15.39Z"/>
      </g>
      <path class="cls-3" d="m111.36,57.81s-.04-1.31-1.26-2.18"/>
      <path class="cls-3" d="m114.13,69.88s.57,1.17-.11,2.52"/>
      <path class="cls-3" d="m110.38,69.17s-1.03.41-.84,1.79c.19,1.38,1.51,1.62,1.51,1.62"/>
      <path class="cls-3" d="m108.05,59.7s-1.08-.2-1.19-1.59c-.11-1.39,1.1-1.89,1.1-1.89"/>
      <path class="cls-3" d="m105.84,66.61c.48,0,.97-.27,1.18-.71.2-.44.08-1.02-.31-1.3-.22-.15-.48-.21-.74-.27"/>
      <path class="cls-6" d="m67.75,71.78c-2.8.02-8.67-.18-10.14-.18,0,0-4.84-.28-8.62.36-3.78.64-11.97,1.78-14.96,1.92-2.99.14-14.96.5-14.96.5,0,0-5.84-1.57-8.62-.5s-6.55.21-6.98-1.5c-.43-1.71,2.71-4.99,5.2-6.2,2.49-1.21,6.34-4.42,8.12-3.99s11.97,2.85,12.25,2.99l12.57-11.47c1.07-2.56,6.02-7.05,6.73-7.26s6.2-1.71,7.84-1.35c1.64.36,5.56.93,8.48,1,2.92.07,3.42,1.78,5.27,1.28s5.2-.21,7.27-.28c2.07-.07,7.48.36,11.61.07,4.13-.28,9.54,1.64,9.54,1.64l-3.7,3.92-6.7,15.39-6.14,1.53"/>
      <path class="cls-4" d="m67.78,72.78c-1.36,1.05.31,3.1,2.42,3.57.77.17,4.93-.41,4.93-.41l5.56-1.5.14-4.2s-1.1-2.37-2.46-3.36c-1.36-.99-3.6-2.35-4.45-2.48-1.1-.17-2.56-.21-2.56.71s1.92,1.85,1.92,1.85c0,0,1.14.78,1.71.85,0,0-3.14-.64-4.07-1.21s-2.28.85-.63,2.56c.55.57,2.09,1.63,2.09,1.63"/>
      <path class="cls-6" d="m41.79,52.66s1.52-4.64,7.91-6.81c10.12-3.44,16.97,7.51,7.02,15.09-1.08.82-8.66,6.03-12.51,6.46s-9.97.93-13.11,3.28c-3.13,2.35-9.26,5.98-11.33,7.19s-6.84,2.49-8.55.85-1.71-4.77,1.57-6.98c3.28-2.21,6.2-2.71,6.48-2.99s2.78-2.21,3.06-2.71,7.34-7.27,11.04-9.05c3.7-1.78,7.55-3.35,8.4-4.34Z"/>
      <path class="cls-8" d="m85.31,74.53s-2.35,1.64-3.7,1.64-6.28.17-6.28.17c0,0,3.11-1.5,4.2-4.33.67-1.75,1.66-5.16.52-6.7l1.92,2.96s3.28,3.92,3.35,6.27Z"/>
      <path class="cls-6" d="m100.27,55.22c1.85-2.38,2.82-4.68-2.23-6.53-5.06-1.85-8.17-.09-11.66,1.19-3.49,1.28-8.9,7.98-6.27,15.74,2.64,7.76,7.76,11.82,7.76,11.82,0,0,2.79-3.75,6.91-4.91,0,0-1.35-3.21-1.85-4.13-.5-.93-1.42-4.77-1.21-6.7.21-1.92,6.7-4.1,8.55-6.48Z"/>
      <path class="cls-4" d="m94.56,72.87s3.57.37,4.42,1.37c.85,1,2.21,2.21,2.71,2.35s2.35,2.14,1.5,3.28-2.28.14-2.49-.5-.6-1.41-.6-1.41c0,0,1.24,3.19-.04,3.55s-2.45-2.96-2.45-2.96c0,0,1.42,3.43.17,3.89-1.67.62-2.76-3.25-2.76-3.25,0,0,1.19,3.54-.23,3.75s-1.99-1.78-1.99-1.78c0,0-3.28-1.5-3.63-2.49-.36-1-.76-1.52-.76-1.52,0,0,2.04-3.41,6.17-4.27Z"/>
      <path class="cls-4" d="m70.78,74.93s-2.02-.45-2.7-1.83c-1.28-2.59.78-2.78.78-2.78,0,0,.85,2.21,2.85,2.92,0,0-1.57-.5-2.56-2.14-1-1.64.48-2.34.48-2.34l3,1.84"/>
      <rect class="cls-10" x="-1293.57" y="-314.74" width="1656.38" height="875.1"/>
    </g>
  </g>
</svg>