<?xml version="1.0" encoding="UTF-8"?>
<svg id="Calque_1" data-name="Calque 1" xmlns="http://www.w3.org/2000/svg" viewBox="0 0 128 128">
  <defs>
    <style>
      .cls-1 {
        stroke: #222221;
      }

      .cls-1, .cls-2, .cls-3, .cls-4, .cls-5 {
        stroke-linecap: round;
        stroke-linejoin: round;
      }

      .cls-1, .cls-4, .cls-5 {
        fill: none;
      }

      .cls-6 {
        fill: #222221;
      }

      .cls-2 {
        fill: #87ccf3;
      }

      .cls-2, .cls-3, .cls-4 {
        stroke: #000;
        stroke-width: 2px;
      }

      .cls-3 {
        fill: #fff;
      }

      .cls-5 {
        stroke: #fff;
        stroke-width: 8px;
      }
    </style>
  </defs>
  <path class="cls-2" d="m80.17,47.43c2.07-.66,7.4-2.43,12.76-4.63l5.54,9.87c-3.18,2.99-6.59,5.88-9.59,7.79l.62,14.1c.83,10.97,2.57,27.81,1.94,35.5l-8.41,4.69c-2.93-5.2-8.81-15.88-12.81-24.06-6.35,1.36-10.08-.1-10.1-.11-1.61,9.01-4.21,20.1-5.48,25.26l-9.4-2.56c-3.76-9.18-3.6-30.92-2.27-39.88,0,0,0,0,0,0,.51-4.76,2.45-12.42,2.45-12.42-3.32-2.1-7.04-5.38-10.39-8.66l7.08-8.52c4.95,1.99,9.83,3.38,12.14,3.27"/>
  <path class="cls-3" d="m93.02,33.06c-.09-.34-.19-.68-.37-.99-.6-1.03-1.98-1.4-3.14-1.12-.15.04-.32.09-.49.16.23-5.23-.71-10.63-3.35-15.07-6.44-10.83-19.46-9.47-19.46-9.47-19.84.33-22.12,18.07-22.32,24.08-1.07-.13-2.24.26-2.78,1.18-.18.3-.28.65-.37.99-.13.48-.24.96-.25,1.46-.06,1.66,1.03,3.3,2.58,3.88.85.32,1.81.31,2.67.02,2.8,6.04,7.94,11,14.24,13.15,8.15,2.78,17.91.49,23.65-5.92,1.83-2.05,3.24-4.48,4.15-7.07.93.37,2,.42,2.94.07,1.55-.59,2.64-2.23,2.58-3.88-.02-.49-.13-.98-.25-1.46Z"/>
  <path class="cls-3" d="m97.83,113.21c-.97,1.04-2.2,1.79-3.42,2.47-1.86,1.04-3.77,1.97-5.72,2.79-1.01.42-2.2.8-3.07.25-.34-.21-.58-.54-.81-.87-.1-.15-.77-1.3-1.79-3.11l8.41-4.69c1.92.09,3.79.4,5.65.79.56.12,1.21.33,1.35.9.14.52-.22,1.06-.6,1.47Z"/>
  <path class="cls-3" d="m54.63,115.84c-.41,1.68-.68,2.73-.73,2.89-.12.38-.25.77-.51,1.07-.67.79-1.92.78-3,.69-2.11-.2-4.21-.51-6.3-.94-1.37-.28-2.76-.62-4-1.32-.49-.28-1-.69-1.02-1.22-.04-.58.51-.98,1.01-1.26,1.66-.94,3.35-1.8,5.15-2.47l9.4,2.56Z"/>
  <path class="cls-4" d="m35.02,52.31c-5.59-5.47-10.17-10.93-10.17-10.93-1.21-.74-2.25-1.78-3.03-3.02-.38-.61-.71-1.37-.44-2.06.03-.08.07-.15.14-.19.13-.06.27.08.35.2.27.4.54.8.82,1.2-.32-.45-.64-.92-.78-1.48-.13-.55-.04-1.21.38-1.58.27.49.59.95.97,1.34-.52-.55-.74-1.4-.56-2.16.04-.16.1-.33.23-.4.23-.13.48.07.66.27.41.47.76.99,1.04,1.55-.32-.49-.53-1.07-.62-1.67-.04-.26-.05-.55.05-.79.1-.24.35-.44.59-.39.13.03.24.12.34.21.71.68,1.07,1.69,1.65,2.5.07.1.17.21.29.21.1,0,.18-.07.24-.15.26-.31.33-.76.5-1.13.18-.38.6-.71.94-.51.24.14.31.46.34.75.09.78.21,1.48.04,2.25,2.36,2.45,7.77,5.3,13.1,7.44l-7.08,8.52Z"/>
  <path class="cls-4" d="m98.46,52.66c6.17-5.8,11.52-11.96,11.52-11.96,1.21-.74,2.25-1.78,3.03-3.02.38-.61.71-1.37.44-2.06-.03-.08-.07-.15-.14-.19-.13-.06-.27.08-.35.2-.27.4-.54.8-.82,1.2.32-.45.64-.92.78-1.48.13-.55.04-1.21-.38-1.58-.26.49-.59.95-.97,1.34.52-.55.74-1.4.56-2.16-.04-.16-.1-.33-.23-.4-.23-.13-.48.07-.66.27-.41.47-.76.99-1.04,1.55.32-.49.53-1.07.62-1.67.04-.26.05-.55-.05-.79-.1-.24-.35-.44-.59-.39-.13.03-.24.12-.34.21-.71.68-1.07,1.69-1.65,2.5-.07.1-.17.21-.29.21-.1,0-.18-.07-.24-.15-.26-.31-.33-.76-.5-1.13-.18-.38-.6-.71-.94-.51-.24.14-.31.46-.34.75-.09.78-.21,1.48-.04,2.25-2.26,2.35-7.6,4.94-12.91,7.12"/>
  <path class="cls-6" d="m54.48,32.11c0,.78-.54,1.41-1.2,1.41s-1.2-.63-1.2-1.41.54-1.41,1.2-1.41,1.2.63,1.2,1.41Z"/>
  <path class="cls-6" d="m81.65,32.11c0,.78-.54,1.41-1.2,1.41s-1.2-.63-1.2-1.41.54-1.41,1.2-1.41,1.2.63,1.2,1.41Z"/>
  <path class="cls-1" d="m67.31,36.72c.63-.31,1.09-.99,1.06-1.69-.02-.7-.57-1.38-1.26-1.48-.38-.06-.77.04-1.14.14"/>
  <rect class="cls-5" x="-4994.88" y="-3342.16" width="6467.34" height="6437.3"/>
</svg>