<?xml version="1.0" encoding="UTF-8"?>
<svg id="Calque_1" data-name="Calque 1" xmlns="http://www.w3.org/2000/svg" viewBox="0 0 128 128">
  <defs>
    <style>
      .cls-1 {
        fill: #afaff9;
      }

      .cls-1, .cls-2, .cls-3, .cls-4, .cls-5 {
        stroke: #000;
      }

      .cls-1, .cls-2, .cls-3, .cls-4, .cls-6 {
        stroke-linecap: round;
        stroke-linejoin: round;
      }

      .cls-2 {
        fill: #b4eac3;
      }

      .cls-3, .cls-5 {
        fill: #fff;
      }

      .cls-4, .cls-6 {
        fill: none;
      }

      .cls-5 {
        stroke-miterlimit: 10;
      }

      .cls-6 {
        stroke: #fff;
        stroke-width: 8px;
      }
    </style>
  </defs>
  <polygon class="cls-2" points="44.26 84.37 42.94 111.27 45.81 111.27 47.03 84.66 44.26 84.37"/>
  <path class="cls-3" d="m86.52,47.18s-.83.35-.51,1.73c-6.61,2.84-9.42.94-9.42.94l.86-1.45s.01-.07.02-.1v-.08c.02-.66-.68-1.26-2.55-1.77-5.07-1.41-2.12-7.78-2.12-7.78-.47-.17-2.43-2.46.24-1.99,1.19.21,1.48-1.37,1.48-1.37,0,0-2.87-8.12,6.9-10.5,9.76-2.39,14.42,5.55,15.14,10.62.72,5.07-1.97,10.17-10.05,11.77Z"/>
  <path class="cls-2" d="m88.97,63.3c-.52,8.82-3.46,31.59-20.07,23.13-1.75-.9-3.83-.41-5.9-2.05l-1.25-2.43-6.84-15.92v-.03s-13.34-8.48-6.15-20.01c6.39-10.23,16.18-4.56,18.31-3.15.27.17.5.37.71.59.95,1.02,4.18,4.45,7.94,7.92,1.04.96,2.13,1.93,3.23,2.85,0,0,0,.01.01.02,2.5,2.1,5.03,3.97,7.12,4.97.14.07.27.13.39.19,1.27.56,2.19,1.68,2.43,3,.06.3.07.61.06.94Z"/>
  <path class="cls-1" d="m86.08,59.17c-1,1.4-2.23,2.36-2.23,2.36-1.24-.47-4.68-6.92-4.89-7.33-.01-.01-.01-.02-.01-.02,0,0,3.23-4.34,6.67-1.56,2.69,2.18,1.77,4.74.46,6.55Z"/>
  <path class="cls-4" d="m47.79,47.8s-6.52,9.53-4.84,16.33c1.67,6.8,3.68,12.78,3.68,12.78"/>
  <path class="cls-2" d="m55.28,76.91c-.05.27-.1.54-.17.81-.05.21-.09.42-.15.61-.69,2.56-.74,5.16-.51,8.15,0,0-1.69.41-3.8.46l-2.57-10.04h7.2Z"/>
  <line class="cls-4" x1="55.35" y1="76.91" x2="55.28" y2="76.91"/>
  <path class="cls-2" d="m50.65,86.95c-1.29.03-2.72-.05-4.02-.43-.89-.27-1.7-.67-2.36-1.27-.2-.16-.37-.35-.53-.56-2.85-3.64,2.9-7.78,2.9-7.78h1.45l2.57,10.04Z"/>
  <path class="cls-2" d="m50.86,117.51h-6.03l1.81-30.99c1.3.38,2.73.46,4.02.43h0s.6,29.34.6,29.34l-.39,1.22Z"/>
  <path class="cls-4" d="m73.66,88.1s1.58,5.16,2.31,11.48c1.18,10.35-4.59,26.51-4.59,26.51"/>
  <line class="cls-4" x1="44.82" y1="117.52" x2="44.82" y2="126.09"/>
  <path class="cls-3" d="m64.21,26.84h.02c.16-.05,1.31-.45,1.84-2.36.58-2.05,1.45-1.9,1.35-3.96-.11-1.95-2.06-.94-2.27-.8"/>
  <path class="cls-4" d="m55.48,7.25s-.12,1.81-.87,2.98h-.02"/>
  <path class="cls-4" d="m51.71,10.78c-1.37-.93-2.19-3.09-2.19-3.09"/>
  <path class="cls-3" d="m46.03,27.03h-.02c-.16-.05-1.32-.43-1.87-2.33-.6-2.05-1.47-1.88-1.4-3.94.09-1.95,2.04-.97,2.26-.84"/>
  <path class="cls-4" d="m63.8,10.41s-1.46.73-3.03.91"/>
  <path class="cls-3" d="m48.7,11.46c.89.11,1.94-.03,3.01-.68.41.29.86.45,1.35.43.69-.02,1.18-.45,1.54-.99.02.02.03.03.05.03.18.2,1.34,1.37,2.97,0,.73,1.01,1.98,1.2,3.16,1.06.66.59,1.61.6,1.61.6.05.08.12.18.15.26,2.57,4.23,2.66,6.99,2.66,7.28.22-.71.4-1.38.54-2.02-.24,1.2-.53,2.05-.59,2.24v.02s-.02.03-.02.03h.02c-.04,1.15-.23,4.1-.92,7.13-.57,2.51-1.52,5.08-3.04,6.66-3.5,3.7-5.6,3.63-5.91,3.58-.33.05-2.56.23-6.13-3.44-1.54-1.56-2.52-4.12-3.13-6.62-.73-3.01-.96-5.96-1.02-7.11h.02c-.02-.13-.02-.26,0-.41.03.11.07.18.07.18,0-.48.03-.95.07-1.41.48-2.35,2.92-6.12,3.23-6.78l.32-.04Z"/>
  <path class="cls-4" d="m45.15,18.28c-.1.44-.14.85-.14,1.23"/>
  <path class="cls-4" d="m45.02,19.92s0-.02-.02-.03v-.02c-.08-.23-.52-1.42-.76-3.03v-.05c-.48-3.21-.17-7.99,5.23-9.75,0,0,.45-1.71,2.65-1.28,0,0,2.77-2.63,5.71-.1,2.2-.46,2.67,1.25,2.67,1.25,5.84,1.81,5.84,7.19,5.27,10.36-.02.07-.03.12-.03.16"/>
  <path class="cls-4" d="m62.57,12.5s2.74,4.66,2.56,7.22"/>
  <path class="cls-4" d="m44.98,19.43v.02s0,.2.02.43v.02s0,.03,0,.03"/>
  <path class="cls-4" d="m65.14,19.72v-.03"/>
  <path class="cls-4" d="m65.16,19.22s0,.16-.01.44"/>
  <path class="cls-4" d="m59,8.59c-.44.69-.86,1.2-1.25,1.55-.05.05-.08.1-.13.12"/>
  <path class="cls-4" d="m54.65,10.26l-.03-.03"/>
  <line class="cls-3" x1="50.59" y1="35" x2="50.76" y2="43.13"/>
  <line class="cls-3" x1="62" y1="32.48" x2="62.93" y2="40.79"/>
  <circle cx="76.35" cy="37.26" r=".63"/>
  <path class="cls-1" d="m88.91,62.36c-.24-1.32-1.16-2.44-2.43-3-.13-.06-.26-.12-.39-.19,1.31-1.82,2.22-4.38-.46-6.55-3.44-2.78-6.67,1.56-6.67,1.56-1.1-.91-2.19-1.89-3.23-2.85l.88-1.49s2.8,1.9,9.42-.94c.03.16.09.34.16.53,0,0,4.01,7.4,2.73,12.92Z"/>
  <g>
    <path class="cls-3" d="m60.77,103.39v-.51c0-1.96-.09-3.97.17-6.65l-.17,7.16Z"/>
    <path class="cls-3" d="m56.88,116.89c3.16-.06,3.22-6.08,3.74-10.65.07-.63.12-1.23.14-1.82h-.01c.01-.26.02-.52.01-.78.01-.25.01-.51.01-.76,0-1.96-.09-3.97.17-6.65.12-1.22.31-2.58.63-4.13.1-.52.22-1.07.35-1.63.73-3.16,1.1-5.73,1.24-7.86.22-3.16-.05-5.38-.31-7.2-.02-.17-.03-.34-.03-.51-.04-1.95-.24-14.51-1-15.41-2.65-.73-6.03-.38-8.25,0,.61,1.59,1.04,4.01,1.34,6.54.35,2.91.52,5.96.6,8.03.04.97-.05,1.93-.23,2.87-.05.27-.1.54-.17.81-.05.21-.09.42-.15.61-.69,2.56-.74,5.16-.51,8.15.13,1.73.36,3.57.61,5.6.19,1.54.39,3.18.58,4.96.45,4.27,1.51,7.56,1.84,8.78-.14.14-.28.3-.41.45,0,0-4.02,4.36-1.73,3.65s-.13,7,1.53,6.96Z"/>
  </g>
  <path class="cls-3" d="m82.87,60.85s-4.24,3.84-8.87,3.28-6.83-12.12-6.83-12.12c-.65-.5-1.05-1.29-1.05-2.17,0-1.54,1.25-2.79,2.79-2.79s2.78,1.25,2.78,2.79c0,.72-.27,1.37-.72,1.85l4.71,4.33,3.28-1.84,3.91,6.67Z"/>
  <path class="cls-5" d="m63.16,59.96c-.42-.2-.87-.36-1.34-.49-2.65-.73-6.03-.38-8.25,0-1.4.23-2.34.49-2.34.49,0,0-3.27-16.68,5.71-15.89,8.96.79,6.22,15.89,6.22,15.89Z"/>
  <path class="cls-4" d="m76.13,27.56s.5,7.26,8.06,8.64c7.55,1.39,3.17,7.06,3.17,7.06l-.83,3.91"/>
  <rect class="cls-6" x="-1142.12" y="-50.12" width="1656.38" height="875.1"/>
</svg>