<?xml version="1.0" encoding="UTF-8"?>
<svg id="Calque_1" data-name="Calque 1" xmlns="http://www.w3.org/2000/svg" viewBox="0 0 200 128">
  <defs>
    <style>
      .cls-1, .cls-2, .cls-3, .cls-4, .cls-5 {
        stroke-linecap: round;
        stroke-linejoin: round;
      }

      .cls-1, .cls-2, .cls-3, .cls-6, .cls-7, .cls-8, .cls-9, .cls-10, .cls-11 {
        stroke: #010101;
      }

      .cls-1, .cls-7 {
        fill: #89ccf2;
      }

      .cls-2, .cls-8 {
        fill: #fff;
      }

      .cls-3, .cls-4, .cls-5, .cls-12, .cls-11 {
        fill: none;
      }

      .cls-4 {
        stroke: #cfaa57;
        stroke-width: 3px;
      }

      .cls-13, .cls-6 {
        fill: #010101;
      }

      .cls-6, .cls-7, .cls-8, .cls-9, .cls-10, .cls-12, .cls-11 {
        stroke-miterlimit: 10;
      }

      .cls-9 {
        fill: #d6d7d7;
      }

      .cls-10 {
        fill: #f4d688;
      }

      .cls-5 {
        stroke: #fff;
        stroke-width: 8px;
      }

      .cls-12 {
        stroke: #231f20;
      }
    </style>
  </defs>
  <rect class="cls-5" x="-4844.82" y="-6040.23" width="6467.34" height="6437.3"/>
  <g id="Titres_catégories" data-name="Titres catégories">
    <path class="cls-8" d="m165.57,79.71V25.8c0-2.77-2.25-5.01-5.01-5.01s-5.01,2.24-5.01,5.01v53.91c-4.09,1.9-6.93,6.03-6.93,10.83,0,6.6,5.35,11.95,11.95,11.95s11.95-5.35,11.95-11.95c0-4.8-2.84-8.94-6.94-10.83h0Z"/>
    <path class="cls-11" d="m165.21,26.24h4.2"/>
    <path class="cls-11" d="m165.21,30.16h4.2"/>
    <path class="cls-11" d="m165.21,34.07h4.2"/>
    <path class="cls-11" d="m165.21,37.98h4.2"/>
    <path class="cls-11" d="m165.21,41.89h4.2"/>
    <path class="cls-11" d="m165.21,49.7h4.2"/>
    <path class="cls-11" d="m165.21,45.79h4.2"/>
    <path class="cls-11" d="m165.21,53.62h4.2"/>
    <path class="cls-11" d="m165.21,57.54h4.2"/>
    <path class="cls-11" d="m165.21,61.44h4.2"/>
    <path class="cls-11" d="m165.21,65.35h4.2"/>
    <path class="cls-11" d="m165.21,69.26h4.2"/>
    <path class="cls-11" d="m165.21,73.17h4.2"/>
    <path class="cls-11" d="m165.21,77.08h4.2"/>
    <path class="cls-9" d="m163.04,26.5h-4.99v23.75h4.99v-23.75Z"/>
    <path class="cls-7" d="m169.18,90.47c0,4.76-3.86,8.62-8.62,8.62s-8.62-3.86-8.62-8.62c0-3.89,2.59-7.19,6.12-8.27v-31.93h4.99v31.94c3.55,1.07,6.13,4.37,6.13,8.26h0Z"/>
    <path class="cls-6" d="m176.05,40.22c1.08-1.16,2.57-1.73,4.46-1.73,1.76,0,3.16.5,4.21,1.48,1.05.99,1.58,2.25,1.58,3.79,0,.94-.18,1.68-.57,2.27-.38.58-1.16,1.43-2.34,2.56-.86.82-1.42,1.51-1.68,2.08-.17.37-.29.85-.35,1.45-.06.6-.57,1.05-1.17,1.05-.69,0-1.23-.6-1.16-1.29.07-.69.2-1.26.38-1.75.3-.76.96-1.65,1.99-2.65l1.08-1.04c.32-.29.58-.61.78-.94.37-.57.54-1.16.54-1.78,0-.86-.26-1.61-.79-2.24-.52-.63-1.39-.95-2.6-.95-1.49,0-2.53.54-3.11,1.64-.22.41-.38.95-.47,1.62-.08.57-.57,1-1.16,1-.72,0-1.28-.64-1.16-1.36.2-1.28.72-2.35,1.52-3.21h.01Zm4.18,15.66c.72,0,1.31.59,1.31,1.31v.12c0,.73-.59,1.32-1.31,1.32s-1.32-.59-1.32-1.32v-.12c0-.72.59-1.31,1.32-1.31Z"/>
    <g>
      <path class="cls-4" d="m137.23,61.64c1.69-1.14,4.55-2.79,6.32-3.79-2.13-1.34-3.58-2.56-5.72-3.9"/>
      <line class="cls-4" x1="116.19" y1="57.47" x2="141.28" y2="57.47"/>
    </g>
    <g>
      <g>
        <path class="cls-1" d="m83.11,12.94h-47.5c-12.64,0-22.9,10.24-22.9,22.86v60.27c0,12.64,10.26,22.86,22.9,22.86h47.5c12.66,0,22.9-10.22,22.9-22.86v-60.27c0-12.63-10.25-22.86-22.9-22.86Z"/>
        <path class="cls-8" d="m57.16,32.98s.16-.23.45-.49c1.27-1.2,3.83-1.5,4.66,1.29.57,1.92-1.9,6.12-1.59,6.96,0,0-6.54-3.32-3.52-7.74h0s0-.02,0-.02Z"/>
        <path class="cls-8" d="m90.08,46.51s.03-.29-.01-.69c-.22-1.72-2.01-3.58-4.43-1.95-1.66,1.14-2.43,5.91-3.19,6.36,0,0,7.15,1.59,7.64-3.73h-.01,0Z"/>
        <path class="cls-10" d="m47.65,60.98c-1.98,2.44-6.59,8.49-6.71,11.87,0,.06-.04.1-.1.12-1.27.06-12.81.98-12.49,13.79,0,.09-.09.16-.17.13-1.06-.39-6.57-2.26-5.55,2.63,0,.03.01.04.04.07.42.45,6.01,6.23,9.68,4.04.01-.01.04-.04.06-.07.3-.67,4.76-9.8,11.85-6.59,0,0,12.32,2.59,6.44,12.05-.01.03-.03.03-.04.04-.44.25-5.46,3.26-.7,7.8,0,0,8.33,8.3,6.9,0l-1.12-3.15c-.04-.09.01-.17.1-.17,1.03-.06,6.26-.58,8.62-5.93,0,0,2.56-7.48.04-10.83-.03-.04-.03-.09,0-.13.64-.77,6.65-8.2,6.65-13.18,0-.14.17-.19.25-.06.88,1.72,3.86,5.9,11.34,2.63,8.65-3.76,8.59-6.09,8.56-6.38,0-.01,0-.03-.01-.06l-3.26-4.88s-.09-.07-.14-.04c-.76.19-6.42,1.65-8.29,3.17-.1.07-.25-.01-.2-.14.48-1.7,1.09-6.87-6.87-12.3,0,0-5.57-5.52-16.66-6.57-1.59-.14-3.23.16-4.53,1.08-.67.46-1.27,1.09-1.5,1.88-.04.13-.23.14-.26,0-.42-2.04-1.7-7.54-3.59-9.14-.03-.04-.09-.04-.13-.03l-5.52,1.38c-.06.01-.1.06-.1.13-.06,1.11-.6,11.88,1.42,14.14,1.91,2.11,3.06,4.41,5.81,2.53.14-.1.29.06.19.19v-.03h0Z"/>
        <path class="cls-2" d="m41.12,39.16s-1.5-5.08-1.66-2.08c-.16,3.02.07,5.37.77,6.96l5.7-1.41s1.29-2.37.61-3.58c-.2-.35-.73-.3-.89.06-.2.49-.44,1.15-.44,1.62,0,0,1.08-3.83.14-5.11-.26-.36-.83-.23-.93.19-.22.88-.54,2.49-.32,3.49,0,0,.03-2.68-.46-4.09-.14-.42-.72-.41-.86,0-.29.93-.61,2.52.04,3.82,0,0-.79-4.12-1.25-4.08-1.03.1-.46,4.24-.46,4.24h0s0-.02,0-.02Z"/>
        <path class="cls-2" d="m94.23,65.45s4.73-2.4,2.66-.22c-2.08,2.17-3.96,3.64-5.6,4.21l-3.2-4.85s1.16-2.83,2.52-3.17c.39-.1.73.32.55.7-.22.46-.54,1.11-.88,1.42,0,0,2.05-3.41,3.62-3.62.44-.04.75.45.51.83-.48.76-1.44,2.1-2.33,2.62,0,0,1.94-1.85,3.3-2.46.39-.19.8.25.58.63-.48.86-1.41,2.17-2.81,2.59,0,0,3.54-2.27,3.83-1.9.64.82-2.75,3.25-2.75,3.25v-.03s-.01,0-.01,0Z"/>
        <path class="cls-8" d="m74.04,54.23s-3.96,6.25-10.13,1.97c0,0-4.98-2.84-1.73-6.96l11.88,4.98h-.01v.02Z"/>
        <path class="cls-12" d="m47.83,82.91s11.77-20.31,16.08-26.72"/>
        <path class="cls-8" d="m59.97,32.45c-1.62,6.57-4.95,12.33.23,15.55,4.67,2.91,15.59,9.88,19.1,7.66,5.36-3.38,23.09-23.94,1.06-32.28-.26-.1-7.03-3.09-9.76-2.79-4.58.49-8.76,4.23-10.66,11.88h.01s0-.02,0-.02Z"/>
        <path class="cls-13" d="m70.54,45.11c-.17.01-.35-.06-.46-.22-.33-.49-.48-1.06-.36-1.53.06-.33.26-.64.55-.8.29-.19.61-.22.86-.23.26-.03.44-.06.6-.19.23-.17.36-.75.41-1.08.01-.27.27-.49.55-.48.27.03.49.27.46.55,0,.13-.12,1.28-.79,1.81-.41.32-.83.36-1.14.39-.17.03.06.3,0,.42,0,.01-.48-.29-.51-.19-.03.14,0,.42.22.72.17.23.1.55-.13.73-.09.06-.17.09-.26.09h0Z"/>
        <path class="cls-3" d="m64.56,36.32s1.7,2.63,4.01,2.24"/>
        <path class="cls-3" d="m81.2,45.11s-3.15-.2-3.93-2.4"/>
        <path class="cls-3" d="m66.57,46.85s.99,2.4,4.31,1.91"/>
        <path class="cls-3" d="m61.06,29.04s4.77,3.35,16.31,1.2"/>
        <path class="cls-3" d="m77.27,26.22s-2.13,11.03,11.94,17.8"/>
      </g>
      <path class="cls-13" d="m29.53,17.74l6.3-7.97h-6.14v-2.19h9.35v2.08l-6.39,8.1h6.41v2.18h-9.54v-2.18l.02-.02Z"/>
      <path class="cls-13" d="m40.42,17.3v-1.96h7.22v1.99l-4.47,5.2h4.64v1.96h-7.68v-1.87l4.53-5.32h-4.24Z"/>
      <path class="cls-13" d="m50.17,23.44v-1.51h6.31v1.55l-3.92,4.04h4.08v1.52h-6.74v-1.44l3.98-4.16h-3.71Z"/>
    </g>
  </g>
</svg>