<?xml version="1.0" encoding="UTF-8"?>
<svg id="Calque_1" data-name="Calque 1" xmlns="http://www.w3.org/2000/svg" viewBox="0 0 128 128">
  <defs>
    <style>
      .cls-1 {
        fill: #d6d6d6;
      }

      .cls-1, .cls-2, .cls-3, .cls-4, .cls-5, .cls-6, .cls-7, .cls-8 {
        stroke-linecap: round;
        stroke-linejoin: round;
      }

      .cls-1, .cls-2, .cls-3, .cls-4, .cls-5, .cls-6, .cls-8 {
        stroke: #000;
      }

      .cls-2 {
        fill: #fff;
      }

      .cls-3, .cls-6, .cls-7 {
        fill: none;
      }

      .cls-4, .cls-8 {
        fill: #f9b59d;
      }

      .cls-5 {
        fill: #fab0b4;
      }

      .cls-6, .cls-8 {
        stroke-width: .5px;
      }

      .cls-7 {
        stroke: #fff;
        stroke-width: 8px;
      }
    </style>
  </defs>
  <path class="cls-1" d="m72.76,109.27c-.57,1.04-.22,2.43-.03,3.54.26,1.48.49,2.96.66,4.45.06.52.12,1.04.15,1.55.04.74.05,1.46.01,2.08-.34,4.09,0,4.65,0,4.65h-25.42s-.88-3.82-1.99-7.52c-.41-1.44-.87-2.85-1.33-4.01-1.62-4.21-2.57-15.99.96-21.96l1.58-3.38s.01-.02.02-.04c.14-.37-.14-.79-.36-1.06-.73-.9-1.84-1.65-2.69-2.48-.95-.91-1.87-1.88-2.54-3.03-1.22-2.08-1.22-4.65-1.69-6.97-.52-2.55-.92-5.13-1.24-7.72-.05-.48-.12-.96-.16-1.45,2.75-7.59,7.04-16.68,12.2-18.34,9.14-2.92,21.65,10.78,21.65,10.78-.1.99.18,2.1.69,3.27,0,.01.01.02.01.03,1,2.35.94,4.96,1.8,7.33.31.85.67,1.69,1.04,2.52.67,1.48,1.38,2.93,1.93,4.46,1.72,4.72,2.71,9.74,1.95,14.75-1.01,6.6-3.99,12.75-7.21,18.52Z"/>
  <path class="cls-5" d="m52.92,90.34c-2.14,3.51-1.12,9.41,2.16,12.93,1.13,1.21,2.6,1.99,4.26,2.27,4.13.69,8.79-1.9,9.79-5.43.14-.52.71-.9,1.97-1.66,1.1-.66,2.35-1.42,3.41-2.66,2.33-2.76,3.34-6.45,3.07-11.28-.13-2.27-.46-8.3-5.59-9.59-.14-.03-.28-.06-.42-.09l-9.05-2.97c-.41-.07-.78-.11-1.09-.14-1.88-.21-3.51.65-4.36,2.29-.85,1.64-.63,4.33,1.05,5.56.24.18.51.32.78.43,0,0-1.3,1.85-1.93,3.8-.28.86-3.71,1.38-4.05,6.55"/>
  <path class="cls-2" d="m47.28,88h-.01c-.8-.77-1.68-1.47-2.46-2.26-.94-.96-2.07-2.05-2.86-3.24-.03-.04-.06-.09-.08-.14-.04-.05-.07-.12-.11-.17-.14-.2-.23-.39-.33-.6-.04-.09-.06-.16-.1-.24-.01-.01-.02-.03-.03-.04-.14-.34-.24-.7-.34-1.06-.24-.99-.33-2.03-.45-3.04-.11-.77-.22-1.51-.47-2.23,0-.01-.01-.03-.01-.04-.02-.06-.03-.12-.04-.17-.05-.23-.09-.36-.09-.36,0,0-.83-4.77-1.23-8.47v-.07c-.14-1.22-.21-2.33-.2-3.09.07-3.09-.08-6.81-.08-6.81,0,0-1.98-10.39-.87-15.14.36-1.53.94-3.41,1.73-5.25.33-.75.69-1.5,1.09-2.21.85-1.49,1.85-2.84,3.04-3.82.29-.23.58-.45.89-.64.92-.56,1.96-.9,3.08-.9,3.95,0,8.31-.54,10.79,1.54.97-5.42,7.27-11.1,7.27-11.1,0,0,7.28-8.4,10.89-1.82,0,0,.48,3.71-2.84,8.94-3.32,5.24-2.81,6.19-2.81,7.15s-2.04,0-2.04,0c0,0-5.12,4.4-8.37,2.62-.72-.39-1.34-1.08-1.8-2.19-.22-.52-.35-1.06-.4-1.62-.47.16-.94.31-1.4.46-2.1,4.44,2.08,8.83,2.08,8.83,0,0,14.26,12.93,13.81,17.57,0,0-12.49-13.66-21.62-10.78-.16,1.23-1.11,5.1-.35,10.56.88,6.41-.23,15.24-.23,15.24l-3.06,14.61Z"/>
  <path class="cls-2" d="m38.4,55.93s-1.98-10.38-.88-15.13c.51-2.16,1.44-5.01,2.83-7.47h0c22.67-.39,35.95-16.73,35.95-16.73,0,0,.48,3.72-2.84,8.95-3.32,5.23-2.8,6.19-2.8,7.15s-2.04,0-2.04,0c0,0-5.13,4.41-8.37,2.62-.72-.39-1.34-1.09-1.79-2.19-.22-.52-.35-1.06-.4-1.61-.46.16-.93.31-1.41.45-2.1,4.44,2.09,8.84,2.09,8.84,0,0,0,0,.02-.01.4-.15,8.99-3.54,13.02-7.21,4.06-3.7,11.06-9.83,5.35-22.48-.09-.19-.18-.38-.27-.58-2.82-5.94-10.07-8.51-16.28-8-10.65.87-12.69,9.77-16.23,17.94-1.76,4.05-3.68,8.03-5.95,11.83-.2.32-.38.65-.55.97-5.93,11.19.55,22.67.55,22.67Z"/>
  <path class="cls-2" d="m64.1,90.16c-1.31-.32-1.86-.33-2.52-.19-.66.14-.68.49-1.22.23-.54-.26-.6.32-1.12,1.01-.52.69-2.42.45-3.56,2.31s-1.43,4.69,1.47,7.8c2.9,3.11,8.46.78,9.24-2,.78-2.78,4.09-3.19,5.94-5.38,1.85-2.19,2.64-5.13,2.41-9.29-.23-4.16-1.17-6.43-3.45-7-2.28-.57-6.28,2.08-6.28,2.08-.92-2.45-.7-3.91-.95-4.23-.55-.72-2.17-.89-2.95-.98s-1.24.21-1.53.77c-.29.57-.19,1.68.22,1.98.4.3,1.05-.26,1.94-.4.23.04-.47,3.16.54,5.39.59,1.31,1.73,1.51,4.04.86-1.4,2.03-1.32,2.96-1.32,2.96-1.23-.76-2.7-.67-4.23.15-1.54.82-2.67.23-3.32.34-.66.11-1.12.82-1.07,1.35s1.05,1.98,2.07,1.24c1.02-.74,4.92-.49,4.92-.49.48.81.74,1.48.74,1.48Z"/>
  <line class="cls-4" x1="65.05" y1="86.04" x2="67.58" y2="90.02"/>
  <path class="cls-3" d="m64.1,90.16s.17,4.32,2.55,5.26"/>
  <path class="cls-8" d="m60,93.27s.89.2.89,1.2"/>
  <path class="cls-6" d="m60.49,96.88s.27,1.76,1.61.73c1.39-1.07.41-1.94-.11-1.92"/>
  <rect class="cls-7" x="-429.18" y="-4216.29" width="6467.34" height="6437.3"/>
</svg>