<?xml version="1.0" encoding="UTF-8"?>
<svg xmlns="http://www.w3.org/2000/svg" viewBox="0 0 128 128.13">
  <defs>
    <style>
      .cls-1, .cls-2, .cls-3 {
        fill: #fff;
      }

      .cls-1, .cls-2, .cls-3, .cls-4, .cls-5, .cls-6 {
        stroke: #000;
      }

      .cls-1, .cls-3, .cls-5, .cls-7 {
        stroke-linecap: round;
        stroke-linejoin: round;
      }

      .cls-2, .cls-3, .cls-4, .cls-5 {
        stroke-width: 2px;
      }

      .cls-2, .cls-4, .cls-6 {
        stroke-miterlimit: 10;
      }

      .cls-4, .cls-6 {
        fill: #fab0b4;
      }

      .cls-5, .cls-7 {
        fill: none;
      }

      .cls-7 {
        stroke: #fff;
        stroke-width: 8px;
      }

      .cls-8 {
        isolation: isolate;
      }

      .cls-6 {
        mix-blend-mode: multiply;
      }
    </style>
  </defs>
  <g class="cls-8">
    <g id="Calque_1" data-name="Calque 1">
      <circle class="cls-2" cx="83.92" cy="51.24" r="34.86"/>
      <path class="cls-4" d="m90.11,63.11c0,4.1-3.32,7.42-7.42,7.42s-7.42-3.32-7.42-7.42,3.32-7.42,7.42-7.42,7.42,3.32,7.42,7.42Z"/>
      <path class="cls-6" d="m86.1,63.11c0,1.88-1.53,3.41-3.41,3.41s-3.41-1.53-3.41-3.41,1.53-3.41,3.41-3.41,3.41,1.53,3.41,3.41Z"/>
      <path class="cls-3" d="m43.76,117.9s2.5-5.05,6.15-13.46c-3.08-.85-4.93-7.84-13.55-5.6-17.32,4.5-47.17-29.96-16.2-53.56,32.27-24.59,45.98-3.27,50.15,11.4,2.41,2.1,2.9-.07,5.15.3,1.97.33,1.15,4.19.47,5.32.18.14.38.3.57.43.67-.72,2.29-2.31,3.21-1.76,1.18.7.71,4.46.71,4.46,0,0,3.52-1.87,4.23,0,.33.89-.61,1.75-1.69,2.37,3,2.97,3.83,6.29,1.04,13.97-.95,2.6-4.23,5.41-6.73,7.71l12.03,8.55"/>
      <path class="cls-5" d="m62.16,63.67s7.16.53,5.93-4.34"/>
      <path class="cls-5" d="m59.92,46.18s-4.94,3.29-4.47,10.11"/>
      <line class="cls-5" x1="49.1" y1="72.06" x2="50.77" y2="72.06"/>
      <path class="cls-1" d="m89.29,72.06s1.3,8.84,4.59,6.25c3.53-2.79-4.59-6.25-4.59-6.25Z"/>
      <path class="cls-1" d="m87.76,80.39s-1.8,8.75,2.17,7.44c4.28-1.41-2.17-7.44-2.17-7.44"/>
      <path class="cls-5" d="m49.07,48.59c1.5,6.23,2,13.17-1.07,17.93,0,0-7.62,2.27-2.3,8.07s8.7,1.39,8.7,1.39"/>
      <path class="cls-5" d="m52.06,77.46s8.14,12.53-9.57,21.45"/>
      <path class="cls-5" d="m56.73,36.79s1.56,6.44-7.66,11.8l-5.25,2.64"/>
      <rect class="cls-7" x="-3613.86" y="-3646.67" width="6467.34" height="6437.3"/>
    </g>
  </g>
</svg>