<?xml version="1.0" encoding="UTF-8"?>
<svg id="Calque_1" data-name="Calque 1" xmlns="http://www.w3.org/2000/svg" viewBox="0 0 128 128">
  <defs>
    <style>
      .cls-1 {
        fill: #d6d6d6;
      }

      .cls-1, .cls-2, .cls-3, .cls-4, .cls-5, .cls-6, .cls-7, .cls-8 {
        stroke-linecap: round;
        stroke-linejoin: round;
      }

      .cls-1, .cls-2, .cls-3, .cls-4, .cls-5, .cls-6, .cls-8 {
        stroke: #000;
      }

      .cls-2 {
        fill: #fff;
      }

      .cls-3, .cls-6, .cls-7 {
        fill: none;
      }

      .cls-4, .cls-8 {
        fill: #f9b59d;
      }

      .cls-5 {
        fill: #fab0b4;
      }

      .cls-6, .cls-8 {
        stroke-width: .5px;
      }

      .cls-7 {
        stroke: #fff;
        stroke-width: 8px;
      }
    </style>
  </defs>
  <path class="cls-1" d="m72.76,109.27c-.57,1.04-.22,2.43-.03,3.54.26,1.48.49,2.96.66,4.45.06.52.12,1.04.15,1.55.04.74.05,1.46.01,2.08-.34,4.09,0,4.65,0,4.65h-25.42s-.88-3.82-1.99-7.52c-.41-1.44-.87-2.85-1.33-4.01-1.62-4.21-2.57-15.99.96-21.96l1.58-3.38s.01-.02.02-.04c.14-.37-.14-.79-.36-1.06-.73-.9-1.84-1.65-2.69-2.48-.95-.91-1.87-1.88-2.54-3.03-1.22-2.08-1.22-4.65-1.69-6.97-.52-2.55-.92-5.13-1.24-7.72-.05-.48-.12-.96-.16-1.45,2.75-7.59,7.04-16.68,12.2-18.34,9.14-2.92,21.65,10.78,21.65,10.78-.1.99.18,2.1.69,3.27,0,.01.01.02.01.03,1,2.35.94,4.96,1.8,7.33.31.85.67,1.69,1.04,2.52.67,1.48,1.38,2.93,1.93,4.46,1.72,4.72,2.71,9.74,1.95,14.75-1.01,6.6-3.99,12.75-7.21,18.52Z"/>
  <path class="cls-5" d="m58.61,81.32c1.22-3.92,6.33-7.06,11.13-6.92,1.65.05,3.21.64,4.51,1.7,3.25,2.64,4.38,7.85,2.39,10.93-.29.45-.21,1.13.06,2.57.23,1.27.49,2.7.25,4.31-.53,3.57-2.63,6.76-6.44,9.76-1.79,1.41-6.53,5.14-10.9,2.14-.12-.08-.23-.17-.34-.26l-8.21-4.83c-.32-.26-.6-.52-.83-.72-1.4-1.28-1.83-3.07-1.16-4.78.67-1.72,2.84-3.33,4.87-2.88.3.06.58.17.84.31,0,0,.53-2.2,1.58-3.96.46-.77-1.41-3.69,2.24-7.36"/>
  <path class="cls-2" d="m47.28,88h-.01c-.8-.77-1.68-1.47-2.46-2.26-.94-.96-2.07-2.05-2.86-3.24-.03-.04-.06-.09-.08-.14-.04-.05-.07-.12-.11-.17-.14-.2-.23-.39-.33-.6-.04-.09-.06-.16-.1-.24-.01-.01-.02-.03-.03-.04-.14-.34-.24-.7-.34-1.06-.24-.99-.33-2.03-.45-3.04-.11-.77-.22-1.51-.47-2.23,0-.01-.01-.03-.01-.04-.02-.06-.03-.12-.04-.17-.05-.23-.09-.36-.09-.36,0,0-.83-4.77-1.23-8.47v-.07c-.14-1.22-.21-2.33-.2-3.09.07-3.09-.08-6.81-.08-6.81,0,0-1.98-10.39-.87-15.14.36-1.53.94-3.41,1.73-5.25.33-.75.69-1.5,1.09-2.21.85-1.49,1.85-2.84,3.04-3.82.29-.23.58-.45.89-.64.92-.56,1.96-.9,3.08-.9,3.95,0,8.31-.54,10.79,1.54.97-5.42,7.27-11.1,7.27-11.1,0,0,7.28-8.4,10.89-1.82,0,0,.48,3.71-2.84,8.94-3.32,5.24-2.81,6.19-2.81,7.15s-2.04,0-2.04,0c0,0-5.12,4.4-8.37,2.62-.72-.39-1.34-1.08-1.8-2.19-.22-.52-.35-1.06-.4-1.62-.47.16-.94.31-1.4.46-2.1,4.44,2.08,8.83,2.08,8.83,0,0,14.26,12.93,13.81,17.57,0,0-12.49-13.66-21.62-10.78-.16,1.23-1.11,5.1-.35,10.56.88,6.41-.23,15.24-.23,15.24l-3.06,14.61Z"/>
  <path class="cls-2" d="m38.4,55.93s-1.98-10.38-.88-15.13c.51-2.16,1.44-5.01,2.83-7.47h0c22.67-.39,35.95-16.73,35.95-16.73,0,0,.48,3.72-2.84,8.95-3.32,5.23-2.8,6.19-2.8,7.15,0,.96-2.04,0-2.04,0,0,0-5.13,4.41-8.37,2.62-.72-.39-1.34-1.09-1.79-2.19-.22-.52-.35-1.06-.4-1.61-.46.16-.93.31-1.41.45-2.1,4.44,2.09,8.84,2.09,8.84,0,0,0,0,.02-.01.4-.15,8.99-3.54,13.02-7.21,4.06-3.7,11.06-9.83,5.35-22.48-.09-.19-.18-.38-.27-.58-2.82-5.94-10.07-8.51-16.28-8-10.65.87-12.69,9.77-16.23,17.94-1.76,4.05-3.68,8.03-5.95,11.83-.2.32-.38.65-.55.97-5.93,11.19.55,22.67.55,22.67Z"/>
  <path class="cls-2" d="m65.86,89.82c-1.1-.77-1.48-1.18-1.81-1.77-.33-.59-.08-.84-.63-1.07-.55-.23-.16-.66.02-1.51.18-.85-1.26-2.12-.61-4.2.65-2.08,2.58-4.17,6.83-4.05,4.25.13,6.18,5.84,4.61,8.26-1.57,2.42.3,5.18-.11,8.01-.42,2.83-2.11,5.37-5.39,7.94-3.28,2.58-5.6,3.36-7.54,2.03-1.94-1.33-2.59-6.09-2.59-6.09-2.44.92-3.4,2.06-3.8,2.09-.9.06-2.11-1.04-2.68-1.56-.57-.52-.66-1.07-.43-1.66.23-.59,1.14-1.25,1.63-1.14.49.11.5.97.98,1.72.18.14,2.06-2.45,4.4-3.16,1.37-.42,2.28.3,3.32,2.47.6-2.39,1.35-2.94,1.35-2.94-1.38-.42-2.28-1.58-2.68-3.28-.4-1.7-1.59-2.16-1.94-2.72s-.13-1.38.31-1.7,2.17-.52,2.3.73c.12,1.26,2.88,4.01,2.88,4.01.93-.17,1.6-.42,1.6-.42Z"/>
  <line class="cls-4" x1="63.39" y1="93.26" x2="68.05" y2="92.52"/>
  <path class="cls-3" d="m65.86,89.82s3.36-2.72,5.64-1.56"/>
  <path class="cls-8" d="m65.48,84.7s.73.54,1.49-.12"/>
  <path class="cls-6" d="m69.89,82.62s.92-1.64,1.7.01c.8,1.71-.4,2.13-.85,1.87"/>
  <rect class="cls-7" x="-609.68" y="-4216.29" width="6467.34" height="6437.3"/>
</svg>