<?xml version="1.0" encoding="UTF-8"?>
<svg id="Calque_1" data-name="Calque 1" xmlns="http://www.w3.org/2000/svg" viewBox="0 0 128 128.13">
  <defs>
    <style>
      .cls-1, .cls-2, .cls-3, .cls-4, .cls-5, .cls-6 {
        stroke: #000;
      }

      .cls-1, .cls-2, .cls-5, .cls-7 {
        stroke-linecap: round;
        stroke-linejoin: round;
      }

      .cls-1, .cls-4, .cls-6 {
        fill: #fff;
      }

      .cls-2, .cls-7, .cls-8 {
        fill: none;
      }

      .cls-3 {
        fill: #f3d587;
      }

      .cls-3, .cls-4, .cls-5 {
        stroke-width: 2px;
      }

      .cls-3, .cls-4, .cls-6, .cls-8 {
        stroke-miterlimit: 10;
      }

      .cls-5 {
        fill: #87ccf3;
      }

      .cls-7 {
        stroke: #fff;
        stroke-width: 8px;
      }

      .cls-8 {
        stroke: #231f20;
      }
    </style>
  </defs>
  <g>
    <rect class="cls-5" x="20.13" y="12.93" width="93.12" height="106.01" rx="20.3" ry="20.3"/>
    <path class="cls-6" d="m64.49,32.98s.16-.24.45-.51c1.26-1.2,3.83-1.49,4.65,1.3.56,1.92-1.89,6.11-1.59,6.94,0,0-6.52-3.31-3.51-7.74Z"/>
    <path class="cls-6" d="m97.36,46.5s.02-.29-.02-.68c-.22-1.73-2-3.59-4.42-1.95-1.65,1.12-2.43,5.92-3.19,6.37,0,0,7.14,1.59,7.64-3.74Z"/>
    <path class="cls-3" d="m55.01,60.99c-1.98,2.44-6.59,8.48-6.7,11.86,0,.07-.05.12-.11.12-1.26.06-12.79.97-12.46,13.79,0,.09-.08.16-.17.13-1.06-.4-6.56-2.25-5.53,2.64,0,.02.02.05.03.07.42.45,6.01,6.24,9.66,4.03.02-.01.04-.04.06-.06.31-.67,4.76-9.8,11.84-6.6,0,0,12.3,2.6,6.42,12.06-.01.02-.03.04-.05.05-.43.25-5.45,3.27-.68,7.81,0,0,8.3,8.3,6.88,0l-1.12-3.14c-.03-.09.02-.18.11-.18,1.03-.05,6.25-.59,8.6-5.92h0s2.57-7.49.06-10.84c-.03-.04-.04-.1,0-.14.63-.77,6.64-8.19,6.64-13.18,0-.14.18-.19.25-.06.87,1.72,3.86,5.89,11.32,2.64,8.63-3.76,8.59-6.08,8.54-6.37,0-.02-.01-.04-.02-.05l-3.25-4.88s-.08-.07-.14-.06c-.76.19-6.42,1.64-8.26,3.18-.1.08-.25-.01-.21-.14.49-1.71,1.09-6.88-6.85-12.31,0,0-5.57-5.51-16.64-6.56-1.58-.15-3.22.16-4.52,1.07-.68.47-1.26,1.09-1.49,1.88-.04.14-.23.15-.26,0-.42-2.04-1.7-7.55-3.59-9.15-.04-.03-.08-.04-.13-.03l-5.52,1.38c-.06.01-.1.06-.1.12-.06,1.12-.59,11.89,1.43,14.13,1.9,2.11,3.05,4.42,5.8,2.54.13-.09.29.07.19.19Z"/>
    <path class="cls-1" d="m48.48,39.16s-1.5-5.09-1.66-2.09c-.16,3,.07,5.38.78,6.96l5.69-1.42s1.29-2.36.61-3.58c-.2-.35-.72-.31-.88.07-.2.48-.44,1.15-.44,1.61,0,0,1.07-3.83.15-5.12-.26-.36-.83-.24-.94.2-.21.87-.54,2.49-.31,3.49,0,0,.02-2.67-.46-4.08-.14-.41-.73-.41-.86,0-.3.94-.61,2.52.04,3.81,0,0-.78-4.13-1.26-4.08-1.02.1-.46,4.23-.46,4.23Z"/>
    <path class="cls-1" d="m101.5,65.46s4.73-2.41,2.66-.23c-2.07,2.18-3.95,3.64-5.59,4.21l-3.2-4.85s1.16-2.83,2.51-3.16c.39-.1.72.32.55.68-.21.48-.54,1.11-.87,1.43,0,0,2.05-3.41,3.62-3.62.44-.06.75.44.5.82-.49.76-1.44,2.1-2.32,2.62,0,0,1.93-1.85,3.28-2.47.4-.18.8.25.58.63-.48.86-1.41,2.18-2.8,2.59,0,0,3.54-2.26,3.83-1.89.63.81-2.76,3.24-2.76,3.24Z"/>
    <path class="cls-4" d="m81.35,54.23s-3.95,6.24-10.12,1.98c0,0-4.98-2.85-1.74-6.96l11.86,4.98Z"/>
    <path class="cls-8" d="m55.19,82.92s11.74-20.32,16.05-26.72"/>
    <path class="cls-4" d="m67.31,32.45c-1.61,6.57-4.93,12.33.23,15.55,4.66,2.91,15.56,9.88,19.06,7.65,5.35-3.4,23.05-23.94,1.08-32.29-.26-.1-7.03-3.09-9.74-2.8-4.57.49-8.76,4.24-10.63,11.88Z"/>
    <path d="m77.85,45.12c-.18.01-.35-.07-.46-.22-.34-.5-.48-1.06-.38-1.53.07-.34.27-.63.56-.8.3-.18.6-.21.85-.24.27-.03.44-.05.59-.18.23-.18.37-.74.4-1.08.03-.28.28-.49.56-.47.28.02.49.27.47.56-.01.13-.12,1.27-.79,1.8-.4.32-.82.36-1.13.39-.18.02.05.31,0,.42-.01.02-.49-.29-.51-.19-.03.15,0,.42.22.73.16.24.1.56-.13.72-.08.05-.17.09-.25.09Z"/>
    <path class="cls-2" d="m71.87,36.32s1.7,2.64,4.01,2.25"/>
    <path class="cls-2" d="m88.49,45.1s-3.13-.21-3.92-2.4"/>
    <path class="cls-2" d="m73.87,46.85s1,2.39,4.31,1.9"/>
    <path class="cls-2" d="m68.4,29.04s4.77,3.36,16.27,1.21"/>
    <path class="cls-2" d="m84.57,26.22s-2.13,11.02,11.92,17.8"/>
  </g>
  <rect class="cls-7" x="-4789.51" y="-5566.55" width="6467.34" height="6437.3"/>
</svg>