<?xml version="1.0" encoding="UTF-8"?>
<svg id="Calque_1" data-name="Calque 1" xmlns="http://www.w3.org/2000/svg" viewBox="0 0 128 128">
  <defs>
    <style>
      .cls-1 {
        stroke: #222221;
      }

      .cls-1, .cls-2, .cls-3, .cls-4 {
        stroke-linecap: round;
        stroke-linejoin: round;
      }

      .cls-1, .cls-4 {
        fill: none;
      }

      .cls-5 {
        fill: #222221;
      }

      .cls-6 {
        stroke-miterlimit: 10;
      }

      .cls-6, .cls-2, .cls-3 {
        stroke: #000;
        stroke-width: 2px;
      }

      .cls-6, .cls-3 {
        fill: #fff;
      }

      .cls-2 {
        fill: #87ccf3;
      }

      .cls-4 {
        stroke: #fff;
        stroke-width: 8px;
      }
    </style>
  </defs>
  <path class="cls-3" d="m23.08,112.33c-.86.79-1.74,1.6-2.81,2.05-1.08.45-2.41.48-3.33-.23-.41-.31-.71-.74-.99-1.17-2.31-3.44-4.16-7.18-5.51-11.1-.37-1.08-.63-2.47.23-3.21.62-.54,1.55-.47,2.35-.33,2.28.41,5.12,1.59,7.12,2.76l2.94,11.24Z"/>
  <path class="cls-3" d="m107.37,103.13c2.05-1.08,5.41-2.36,7.71-2.67.81-.11,1.74-.13,2.34.43.83.78.51,2.16.1,3.22-1.51,3.86-3.53,7.52-5.97,10.86-.3.42-.62.83-1.04,1.13-.95.67-2.28.59-3.34.09-1.06-.5-1.9-1.34-2.72-2.17"/>
  <path class="cls-2" d="m74.05,64.82c14.82-.25,13.84,21.25,13.84,21.25,1.41,2.73,2.26,5.75,2.48,8.81,5.89,1.87,12.16,4.6,17.62,7.49.27.14-.03,1.27-.11,1.56-.92,3.26-3.2,10.75-3.45,10.73-7.99-.9-15.95-2.09-23.9-3.29-11.11-1.68-33.46-.7-33.46-.7-7.99.96-16,1.72-24.02,2.29-.24.02-2.21-7.56-2.99-10.86-.07-.3-.32-1.43-.05-1.56,5.58-2.65,11.96-5.12,17.92-6.74.35-3.05,1.33-6.03,2.85-8.7,0,0-1.18-20.26,16.04-20.26h17.22Z"/>
  <path class="cls-3" d="m69.4,102.42c-.72.62-1.45,1.25-2.17,1.87-.37.32-.77.71-.76,1.2.01.47.44.86.89.98s.94.05,1.41-.03c-.29,1.7-2.59,2.44-2.94,4.13-.07.33-.03.73.24.94.25.19.59.15.89.09,1.41-.32,2.69-1.2,3.49-2.41-.84.73-1.5,1.67-1.92,2.7-.12.31-.22.69-.02.96.12.16.32.24.51.27.68.09,1.29-.39,1.79-.87.76-.72,1.47-1.47,2.15-2.27,0,1.45-1.72,2.61-1.37,4.01.04.16.11.32.25.4.17.11.39.07.59,0,1.49-.45,2.46-1.85,3.31-3.15-.19.49-.37.97-.56,1.46-.13.33-.21.79.1.96.25.14.55-.05.76-.23,1.85-1.59,3.01-3.96,3.11-6.4"/>
  <path class="cls-3" d="m59.63,102.51c.72.62,1.45,1.25,2.17,1.87.37.32.77.71.76,1.2-.01.47-.44.86-.89.98-.46.12-.94.05-1.41-.03.29,1.7,2.59,2.44,2.94,4.13.07.33.03.73-.24.94-.25.19-.59.15-.89.09-1.41-.32-2.69-1.2-3.49-2.41.84.73,1.5,1.67,1.92,2.7.12.31.22.69.02.96-.12.16-.32.24-.51.27-.68.09-1.29-.39-1.79-.87-.76-.72-1.47-1.47-2.15-2.27,0,1.45,1.72,2.61,1.37,4.01-.04.16-.11.32-.25.4-.17.11-.39.07-.59,0-1.49-.45-2.46-1.85-3.31-3.15.19.49.37.97.56,1.46.13.33.21.79-.1.96-.25.14-.55-.05-.76-.23-1.85-1.59-3.01-3.96-3.11-6.4"/>
  <path class="cls-2" d="m48.12,65.6c-4.68,1.14-7.84,6.95-7.75,10.99.25,10.73,3.12,21.4,8.33,30.78,3.54-1.37,7.51-2.66,10.76-4.62.43-.26.89-.56,1.05-1.04.14-.43,0-.89-.15-1.32-1.47-4.38-2.94-8.75-4.41-13.13-1.19-3.55-2.4-7.16-2.56-10.91"/>
  <path class="cls-2" d="m80.91,65.51c4.68,1.14,7.84,6.95,7.75,10.99-.25,10.73-3.12,21.4-8.33,30.78-3.54-1.37-7.51-2.66-10.76-4.62-.43-.26-.89-.56-1.05-1.04-.14-.43,0-.89.15-1.32,1.47-4.38,2.94-8.75,4.41-13.13,1.19-3.55,2.4-7.16,2.56-10.91"/>
  <path class="cls-6" d="m94.93,49.64c-.11-.41-.23-.82-.44-1.18-.72-1.23-2.38-1.68-3.76-1.34-.18.04-.37.11-.57.18.27-6.26-.87-12.71-4.03-18.03-7.7-12.96-23.29-11.33-23.29-11.33-23.74.4-26.47,21.62-26.71,28.81-1.28-.16-2.68.31-3.33,1.41-.21.36-.34.77-.44,1.18-.15.57-.28,1.15-.3,1.74-.07,1.98,1.23,3.94,3.09,4.65,1.02.39,2.16.37,3.2.03,3.36,7.23,9.51,13.17,17.04,15.74,9.75,3.33,21.43.59,28.3-7.09,2.2-2.46,3.88-5.36,4.96-8.46,1.11.45,2.39.51,3.51.08,1.86-.71,3.16-2.66,3.09-4.65-.02-.59-.15-1.17-.3-1.74Z"/>
  <path class="cls-5" d="m51.3,51.86c0,.84-.58,1.53-1.29,1.53s-1.29-.68-1.29-1.53.58-1.53,1.29-1.53,1.29.68,1.29,1.53Z"/>
  <path class="cls-5" d="m80.67,51.86c0,.84-.58,1.53-1.29,1.53s-1.29-.68-1.29-1.53.58-1.53,1.29-1.53,1.29.68,1.29,1.53Z"/>
  <path class="cls-1" d="m65.17,56.84c.68-.33,1.18-1.07,1.15-1.83-.03-.76-.61-1.49-1.37-1.6-.41-.06-.83.04-1.23.15"/>
  <rect class="cls-4" x="-4613.69" y="-3342.16" width="6467.34" height="6437.3"/>
</svg>