<?xml version="1.0" encoding="UTF-8"?>
<svg id="Calque_1" data-name="Calque 1" xmlns="http://www.w3.org/2000/svg" viewBox="0 0 128 128">
  <defs>
    <style>
      .cls-1 {
        fill: #ffd4ad;
      }

      .cls-1, .cls-2, .cls-3, .cls-4 {
        stroke: #000;
      }

      .cls-1, .cls-2, .cls-3, .cls-4, .cls-5 {
        stroke-linecap: round;
        stroke-linejoin: round;
      }

      .cls-2 {
        fill: #fce9b9;
      }

      .cls-2, .cls-3, .cls-4 {
        stroke-width: 2px;
      }

      .cls-3 {
        fill: #a07637;
      }

      .cls-4 {
        fill: #baa584;
      }

      .cls-5 {
        fill: none;
        stroke: #fff;
        stroke-width: 8px;
      }
    </style>
  </defs>
  <g>
    <path class="cls-1" d="m97.01,38.69c-.35.27-.7.62-1,1.06-.38.55-.67,1.02-.89,1.43-.9-.15-1.54-.96-1.48-1.88.07-.97.92-1.71,1.89-1.63.66.05,1.21.45,1.47,1.01Z"/>
    <path class="cls-1" d="m106.84,40.28c-.07.92-.82,1.62-1.72,1.64-.16-.44-.37-.95-.67-1.54-.24-.49-.53-.88-.85-1.21.34-.51.94-.83,1.6-.78.97.07,1.71.92,1.63,1.89Z"/>
    <path class="cls-1" d="m93.35,51.21c0,.1-.01.21-.01.31h-.09c-.19-.09-.4-.14-.61-.16-.17-.01-.34,0-.51.04-.04,0-.07.02-.11.03l-.34-.03s-.69-.32-.41-2.32c.2-1.43,2.73-2.51,4.16-3.01.07.1.15.21.24.31-1.29,1.28-2.17,3.07-2.3,4.83Z"/>
    <path class="cls-1" d="m93.24,51.52l-1.24-.09s.07-.02.11-.03c.17-.04.35-.05.51-.04.21.02.42.07.61.15Z"/>
    <path class="cls-1" d="m107.18,52.54l-.3-.02s-.07-.03-.1-.04c-.17-.06-.34-.1-.51-.11-.21-.02-.43,0-.63.06h-.05c.01-.1.02-.21.03-.31.13-1.82-.51-3.78-1.67-5.24.07-.07.14-.13.2-.2,1.31.68,3.78,2.16,3.77,3.64-.01,2.02-.74,2.23-.74,2.23Z"/>
    <path class="cls-1" d="m106.88,52.52l-1.24-.09c.2-.06.41-.08.63-.06.17.01.34.05.51.11.04.01.07.03.1.04Z"/>
    <path class="cls-1" d="m96.79,56.36l-3.22.9c.86-.29,1.41-1.19,1.24-2.1.54.51,1.22.92,1.98,1.2Z"/>
    <path class="cls-1" d="m104.12,57.82l-2.46-1.1.09-.08h0c.66-.17,1.27-.44,1.8-.79-.22.72.02,1.49.57,1.97Z"/>
    <path class="cls-1" d="m105.63,52.12c0,.1-.02.21-.03.31,0,0,0,.01,0,.02-.55.16-1.01.57-1.22,1.15l-.43,1.18-.36.98s-.02.06-.03.1c-.53.36-1.13.62-1.8.79h0c-.81.21-1.71.28-2.64.21-.83-.06-1.61-.23-2.32-.49-.76-.29-1.44-.69-1.98-1.2,0-.02,0-.04,0-.05l-.28-1.35h0s-.19-.9-.19-.9c-.12-.58-.5-1.04-1-1.29,0-.01,0-.02,0-.04,0-.1,0-.21.01-.31.13-1.76,1.01-3.55,2.3-4.83.12.15.26.29.41.43.41.37.92.7,1.55.93-1,.77-1.71,2.03-1.8,3.27-.15,2.05,1.43,3.26,3.47,3.41,2.05.15,3.78-.81,3.93-2.86.09-1.27-.44-2.65-1.35-3.55.64-.15,1.18-.42,1.62-.74.17-.12.32-.26.47-.39,1.16,1.47,1.8,3.43,1.67,5.24Z"/>
    <path class="cls-1" d="m103.22,51.56c-.15,2.05-1.89,3.01-3.93,2.86-2.04-.15-3.62-1.36-3.47-3.41.09-1.24.8-2.5,1.8-3.27.49.18,1.05.29,1.7.33.12,0,.23,0,.33,0,.1.02.21.04.33.05.72.07,1.35.02,1.9-.11.91.9,1.44,2.29,1.35,3.55Z"/>
    <path class="cls-1" d="m103.22,51.56c-.15,2.05-1.89,3.01-3.93,2.86-2.04-.15-3.62-1.36-3.47-3.41.09-1.24.8-2.5,1.8-3.27.49.18,1.05.29,1.7.33.12,0,.23,0,.33,0,.1.02.21.04.33.05.72.07,1.35.02,1.9-.11.91.9,1.44,2.29,1.35,3.55Z"/>
    <path class="cls-1" d="m93.57,57.26l-.22.06c-1.01.21-2.01-.44-2.22-1.45l-.47-2.25c-.2-.97.4-1.94,1.35-2.19l1.24.09s.06.03.09.04c.5.25.88.71,1,1.29l.19.9h0s.28,1.35.28,1.35c0,.02,0,.04,0,.05.17.92-.38,1.81-1.24,2.1Z"/>
    <path class="cls-1" d="m93.24,51.52l-1.24-.09s.07-.02.11-.03c.17-.04.35-.05.51-.04.21.02.42.07.61.15Z"/>
    <path class="cls-1" d="m107.9,54.89l-.79,2.16c-.36.97-1.44,1.47-2.41,1.11-.22-.08-.41-.2-.58-.34-.55-.47-.79-1.24-.57-1.97,0-.03.02-.07.03-.1l.36-.98.43-1.18c.21-.57.67-.98,1.22-1.15.02,0,.03-.01.05-.02l1.24.09c.9.39,1.35,1.43,1.01,2.37Z"/>
    <path class="cls-1" d="m106.88,52.52l-1.24-.09c.2-.06.41-.08.63-.06.17.01.34.05.51.11.04.01.07.03.1.04Z"/>
    <path class="cls-1" d="m105.12,41.92c-.16-.44-.37-.95-.67-1.54-.24-.49-.53-.88-.85-1.21-1.38-1.42-3.21-1.38-3.21-1.38,0,0-1.81-.31-3.39.91-.35.27-.7.62-1,1.06-.38.55-.67,1.02-.89,1.43-.76,1.42-.7,2.06-.7,2.06,0,0,.06,1.5.99,2.83.07.1.15.21.24.31.12.15.26.29.41.43.41.37.92.7,1.55.93.49.18,1.05.29,1.7.33.12,0,.23,0,.33,0,.1.02.21.04.33.05.72.07,1.35.02,1.9-.11.64-.15,1.18-.42,1.62-.74.17-.12.32-.26.47-.39.07-.07.14-.13.2-.2,1.09-1.17,1.36-2.61,1.36-2.61,0,0,.15-.62-.39-2.14Zm-5.16,1.88c-.77-.06-1.37-.4-1.34-.77s.67-.62,1.44-.57,1.37.4,1.34.77-.67.62-1.44.57Z"/>
    <path d="m97.51,42.04c-.02.29-.27.5-.55.48s-.5-.27-.48-.56.27-.5.56-.48.5.27.48.55Z"/>
    <path d="m103.65,42.49c-.02.29-.27.5-.55.48s-.5-.27-.48-.56.27-.5.56-.48.5.27.48.55Z"/>
    <path class="cls-1" d="m101.4,43.23c-.03.37-.67.62-1.44.57s-1.37-.4-1.34-.77.67-.62,1.44-.57,1.37.4,1.34.77Z"/>
    <line class="cls-1" x1="99.64" y1="48.07" x2="99.96" y2="43.79"/>
  </g>
  <rect class="cls-4" x="27.07" y="74.61" width="4.41" height="37.41"/>
  <rect class="cls-4" x="92.8" y="74.61" width="4.41" height="37.41"/>
  <path class="cls-4" d="m92.8,90.17v4.64c-11.39-3.48-21.99-4.64-31.08-4.64-18.17,0-30.25,4.64-30.25,4.64v-4.64s27.18-10.43,61.32,0Z"/>
  <rect class="cls-4" x="19.56" y="110.87" width="19.42" height="4.47"/>
  <rect class="cls-4" x="85.29" y="109.79" width="19.42" height="4.47"/>
  <polygon class="cls-3" points="111.92 54.78 110.61 57.79 16.13 57.79 15.34 54.78 111.92 54.78"/>
  <path class="cls-4" d="m110.61,57.79l-2.91,11.07-.12.44c-1.35,5.12-4.38,8.41-7.75,8.41H25.81c-3.84,0-7.21-4.29-8.19-10.47l-1.5-9.45h94.48Z"/>
  <polygon class="cls-2" points="9.95 39.72 19.03 9.45 53.79 54.78 9.95 39.72"/>
  <polygon class="cls-2" points="9.95 39.72 15.34 54.78 53.79 54.78 9.95 39.72"/>
  <rect class="cls-5" x="-228.47" y="-78.92" width="1215" height="875.1"/>
</svg>