<?xml version="1.0" encoding="UTF-8"?>
<svg id="Calque_1" data-name="Calque 1" xmlns="http://www.w3.org/2000/svg" viewBox="0 0 128.13 200.13">
  <defs>
    <style>
      .cls-1 {
        fill: #76ac75;
      }

      .cls-1, .cls-2, .cls-3, .cls-4, .cls-5, .cls-6, .cls-7, .cls-8, .cls-9, .cls-10, .cls-11, .cls-12 {
        stroke-linecap: round;
        stroke-linejoin: round;
      }

      .cls-1, .cls-2, .cls-3, .cls-4, .cls-5, .cls-6, .cls-7, .cls-8, .cls-9, .cls-11, .cls-12 {
        stroke: #000;
      }

      .cls-2 {
        fill: #d6d6d6;
      }

      .cls-3 {
        fill: #8987f3;
      }

      .cls-4 {
        fill: #87ccf3;
      }

      .cls-5 {
        fill: #a07637;
      }

      .cls-6, .cls-8, .cls-11 {
        fill: #fff;
      }

      .cls-7, .cls-9, .cls-10, .cls-12 {
        fill: none;
      }

      .cls-8 {
        stroke-width: 1.12px;
      }

      .cls-9 {
        stroke-width: .99px;
      }

      .cls-10 {
        stroke: #fff;
        stroke-width: 8px;
      }

      .cls-11 {
        stroke-width: .83px;
      }

      .cls-12 {
        stroke-width: .45px;
      }
    </style>
  </defs>
  <path class="cls-11" d="m115.53,111.86s2.78-1,2.67-7.44c-.03-1.69-2.91-4.93-2.91-4.93"/>
  <path class="cls-11" d="m111.59,91.17s-.83,7.67-1.06,9.5c-.32,2.53.77,3.8.88,4.93.27,2.86.36,4.18,1.2,4.36,1.45.33,1.18-4.88,1.18-4.88,0,0,1.27,1.97.99,3.52-.28,1.55-.7,6.8.84,3.85,1.55-2.96,1.66-8.33,1.66-8.33,0,0-.7-2.82-1.55-4.08s.14-6.62.14-6.62"/>
  <path class="cls-3" d="m89.63,111.93s-10.66,53.67-10.34,59.72c0,0-7.47,2.06-10.17-.96,0,0,1.36-40.08,4.72-44.25,3.35-4.18-4.95-23.78.69-37.66,8.78,5.97,18.28,8.01,28.61,5.62l2.27,36.07-14.37,35.71c-8.34.74-9.99-1.53-9.99-1.53l9.07-31.01-.47-21.7Z"/>
  <line class="cls-6" x1="61.19" y1="51.68" x2="75.27" y2="70.96"/>
  <line class="cls-6" x1="55.42" y1="56.75" x2="71.04" y2="77.16"/>
  <path class="cls-1" d="m107.11,76.93c.46,2.84.81,6.07.81,6.07l.61,14.03,7.07-.98,1.01-.14c1.74-5.42-2.2-44.64-5.03-46.76s-6.05-3.38-6.05-3.38l-4.65-1.55s1.89,5.91-.9,7.52c-2.8,1.61-3.32,3.46-3.32,3.46,0,0-1.55-2.61-3.39-3.3s-2.08-3.23-2.08-3.23l.4-4.87-11.8,4c-2.82,0-8.07,8.45-11.58,12.81-1.63,1.98-3.26,3.98-4.6,6.15-2.35,3.78-4.04,8.59-1.78,12.81,1.35,2.52,3.58,4.47,5.77,6.26,2.6,2.12,5.46,4.03,8.52,5.45.86.4,1.88.09,2.37-.72.61-.99,1.11-2.03,1.56-3.09.05-.09.09-.2.13-.29.3-.7.25-1.51-.13-2.17-.61-1.06-1.26-2.12-1.96-3.14-1.67-2.48-3.63-4.87-5.87-7.21,1.1-1.05,2.19-2.11,3.24-3.22l7.33-12.37-5.73,19.52-3.71,11.5-1.27,4.17c7.96,2.86,32.07,2.66,32.07,2.66l.61-13.42c2.66-3.71,4.57-23.08,4.57-23.08"/>
  <line class="cls-7" x1="96.66" y1="55.2" x2="94.29" y2="96.87"/>
  <path class="cls-7" d="m100.33,84s-8.52,1.5-12.58-1.11"/>
  <line class="cls-7" x1="82.1" y1="165.99" x2="81.89" y2="169.99"/>
  <line class="cls-7" x1="89.62" y1="169.65" x2="89.62" y2="166.62"/>
  <path class="cls-5" d="m100.39,181.31c-1.34-.35-14.21-2.55-18.29-3.24-.87-.14-1.58-.79-1.8-1.65-.36-1.45-.45-3.83,1.59-6.43,1.39,1.25,7.73-.34,7.73-.34,0,0,6,4.72,10.29,6.33,4.27,1.61,2.07,5.74.49,5.34Z"/>
  <line class="cls-7" x1="78.57" y1="176.76" x2="78.04" y2="172.32"/>
  <path class="cls-5" d="m83.48,187.36c-2.91,1.77-9.44.62-12.34-4.26l.55-4.91c.6.63,1.5,1.09,2.54.02,1.86-1.93,4.35-1.45,4.35-1.45,0,0,8.22,8.58,4.9,10.6Z"/>
  <path class="cls-2" d="m51.08,174.62s13.8,8.1,9.51,9.64c-4.29,1.53-4.36,2.28-11.27-1.86-6.9-4.14-9.18-.74-9.11-7.95"/>
  <path class="cls-2" d="m27.91,174.54s1.08,4.5,2.31,6.5c1.23,1.99,3.06,5.06-1.15,5.37-4.21.31-10.5,1.23-10.66-3.53s2.28-5.57,1.98-8.84"/>
  <path class="cls-4" d="m57.73,93.72s-3.86,68.91-6.02,80.72c0,0-5.49,1.84-11.49,0,0,0,.13-34.97,1.97-40.8,0,0-2.1-16.72-1.97-19.63l-10.54,60.43s-9.27.77-11.26-1.38l6.46-79.34h32.85Z"/>
  <path class="cls-2" d="m57.11,59.53l.81,20.32,1.19,13.27s-13.96,13.35-34.89,0c0,0,2.05-16.11,2.8-25.17,0,0-10.7-3.31-10.7-3.32,3.19-11.83,8.94-19.91,10.74-20.97,2.17-1.28,8.02-4.42,8.02-4.42,0,0,9.46,7.97,11.89,7.56,0,0,1.61-5.72,1-7.26,0,0,7.02-.26,9.91,3.43,3.33,4.25,6.19,9.81,6.19,9.81,0,0-5.16,6.68-6.96,6.75Z"/>
  <path class="cls-7" d="m52.95,21.66s2.12-.96,1.66-3.76c-.56-3.39-3.62-3.47-3.62-3.47-1.64-2.69-8.82-4.28-15.46-.68-6.64,3.6-2.71,10.94-.73,12.25"/>
  <path class="cls-7" d="m31.91,21.36s-1.13,3.28.58,5.87c1.49,2.26,4.99,6.29,5.28,8.89"/>
  <path class="cls-7" d="m47.45,39.42c-2.1-.97-2.66-3.55-2.97-3.84.62.37,2.58.84,5.19.75,2.76-.1,2.94-1.35,3.31-4.22.37-2.85-.25-6.31-.11-9.45.02-.34.01-.66-.02-.98-.19-2.58-1.58-4.17-2.42-5,0,0-3,5.12-3.63,5.94-.63.82-2.72,3.22-4.26,2.64-1.4-.53-2.61-1.6-3.82-.83-1.21.76-1.3,3.41.11,4.26"/>
  <path d="m52.78,24.81c0-.56-.32-1-.72-1-.39,0-.7.45-.69,1.01,0,.55.32.99.7.99.39,0,.71-.45.71-1Z"/>
  <path d="m48.17,25.88c0-.56-.32-1-.72-1-.39,0-.7.45-.69,1.01,0,.55.32.99.7.99.39,0,.71-.45.71-1Z"/>
  <path class="cls-12" d="m53.09,23.24s-.61-.84-1.78-.28"/>
  <path class="cls-12" d="m45.88,24s.83-.89,2.04-.41"/>
  <path class="cls-7" d="m38.11,27.9s.92,1.45,2.89,1.59"/>
  <line class="cls-7" x1="56.68" y1="51.4" x2="57.63" y2="73.06"/>
  <path class="cls-7" d="m35.08,39.24s.97-.58,2.69-3.13"/>
  <polyline class="cls-7" points="33.31 55.06 29.79 68.86 23.46 66.83"/>
  <path class="cls-2" d="m86.76,31.03s0-.01-.02-.03h0c-.08-.2-.52-1.17-.81-2.5v-.04c-.59-2.65-.61-6.66,3.79-8.44,0,0,.27-1.45,2.14-1.23,0,0,2.16-2.36,4.76-.42,1.81-.51,2.3.88,2.3.88,4.98,1.17,5.3,5.66,5.01,8.34,0,.06-.02.1-.02.14"/>
  <polyline class="cls-6" points="91.4 46.05 91.8 42.91 91.84 42.32 99.95 40.75 100.16 42.44 100.89 45.62"/>
  <path class="cls-7" d="m94.75,19.84s0,1.51-.55,2.53h-.01"/>
  <path class="cls-7" d="m91.81,23.01c-1.2-.69-2.01-2.45-2.01-2.45"/>
  <path class="cls-7" d="m88.03,36.91h-.01c-.14-.03-1.12-.28-1.7-1.84-.63-1.67-1.34-1.48-1.4-3.21-.04-1.64,1.54-.93,1.72-.83"/>
  <path class="cls-7" d="m101.88,21.98s-1.17.7-2.47.94"/>
  <path class="cls-6" d="m89.34,23.75c.75.04,1.61-.14,2.48-.74.36.22.74.33,1.15.28.57-.06.96-.45,1.22-.92.01.01.03.03.04.02.16.15,1.2,1.06,2.48-.18.67.8,1.72.89,2.7.7.59.45,1.38.4,1.38.4.05.07.11.14.14.21,2.4,3.38,2.63,5.68,2.65,5.92.15-.6.25-1.18.33-1.72-.13,1.01-.32,1.75-.36,1.9h0s-.01.04-.01.04h.01c.03.96.05,3.44-.35,6-.33,2.13-.97,4.33-2.14,5.74-2.71,3.29-4.46,3.36-4.73,3.34-.27.06-2.12.34-5.32-2.51-1.37-1.22-2.35-3.29-3-5.34-.78-2.47-1.15-4.92-1.27-5.88h.01c-.02-.11-.03-.22-.03-.34.03.09.03-.65.04-1.04.26-1.99,2.08-5.28,2.29-5.85l.27-.05Z"/>
  <path class="cls-7" d="m86.78,29.65c-.05.38-.07.72-.04,1.04"/>
  <path class="cls-7" d="m100.97,23.8s2.56,3.73,2.56,5.87"/>
  <path class="cls-7" d="m86.7,30.62h0c0,.05.01.18.04.37h0s0,.04,0,.04"/>
  <path class="cls-7" d="m103.55,29.67v-.03"/>
  <path class="cls-7" d="m103.53,29.26s.01.14.01.37"/>
  <path class="cls-7" d="m103.19,35.68h.01c.13-.05,1.07-.46,1.4-2.08.36-1.75,1.1-1.67.89-3.39-.21-1.62-1.77-.66-1.94-.54"/>
  <path class="cls-7" d="m97.76,20.75c-.33.6-.65,1.06-.95,1.37-.04.04-.06.09-.1.1"/>
  <path class="cls-7" d="m94.23,22.4l-.03-.03"/>
  <path class="cls-6" d="m95.96,29.46s.57,5.15,1.7,7.74c0,0-.22.53-1.89.2"/>
  <path class="cls-7" d="m50.05,24.14s.74,3.05,1.87,5.66c0,0-.22.53-1.91.2"/>
  <ellipse class="cls-6" cx="92.5" cy="31.93" rx=".18" ry=".52" transform="translate(-2.19 7.23) rotate(-4.42)"/>
  <ellipse class="cls-6" cx="99.6" cy="31.25" rx=".18" ry=".52" transform="translate(-2.11 7.78) rotate(-4.42)"/>
  <circle class="cls-7" cx="92.57" cy="32.04" r="2.47"/>
  <circle class="cls-7" cx="99.88" cy="31.3" r="2.47"/>
  <path class="cls-7" d="m94.43,30.38s1.71-1.34,3.29-.32"/>
  <line class="cls-7" x1="93.41" y1="26.95" x2="97.49" y2="26.4"/>
  <line class="cls-7" x1="92.99" y1="25.33" x2="97.07" y2="24.78"/>
  <path class="cls-7" d="m97.83,40.58c-.67.31-1.75.49-3.12-.34"/>
  <path class="cls-9" d="m52.64,32.37c-.62.42-1.66.77-3.16.17"/>
  <path class="cls-7" d="m93.15,40.72s-.63-.65.25-1.64"/>
  <path class="cls-7" d="m98.97,39.39s.84.33.46,1.59"/>
  <line class="cls-6" x1="89.89" y1="31.74" x2="86.02" y2="30.66"/>
  <line class="cls-6" x1="102.69" y1="30.33" x2="103.94" y2="29.36"/>
  <path class="cls-6" d="m18.77,65.38l9.19,2.91-8.16,33.08s.61,9.2-.94,11.03c-1.55,1.83-1.17-4.69-1.17-4.69,0,0-2.25,6.19-3.24,6.19s.87-6.34.87-6.34c0,0-2.42,8.02-3.69,7.74-1.27-.28,1.97-7.88,1.97-7.88,0,0-3.62,7.75-4.46,5.96-.49-1.06,2.98-7.09,2.98-7.09,0,0-2.58,5.04-3.36,4.69s3.64-8.85,4.97-10.04,5.02-35.57,5.02-35.57Z"/>
  <line class="cls-2" x1="71.69" y1="178.19" x2="71.73" y2="172.89"/>
  <path class="cls-6" d="m93.82,90.05s-4.23-.65-4.23-.65c-.62-.1-1.25-.15-1.87-.27-.31-.06-.62-.14-.92-.25-.27-.1-.64-.24-.24-.42.26-.11.57-.15.85-.21.43-.09.91-.2,1.3-.42.22-.13.41-.34.43-.59.03-.33-.22-.63-.53-.75-.01,0-.02,0-.03-.01-.32-.12-.67-.09-1.01-.05-1.09.12-2.18.38-3.27.43-.63.02-1.22-.07-1.86.02-.51.07-1.02.2-1.51.37l-.89-.54s.02-.07.02-.07c-.27-.17-.55-.34-.82-.52-.45,1.57-.9,3.14-1.35,4.71.65.25,1.06.4,1.06.39,0,0,0,0,0-.02.91,1.74,2.78,3.26,4.57,3.75.18.05.37.09.53.18.13.07.23.17.34.27.62.58,1.22,1.19,1.8,1.82.36.39.97,1.4,1.62,1.23.45-.12.61-.7.3-1.03-.57-.61-1.15-1.2-1.74-1.79-.22-.22-.46-.42-.65-.67-.06-.08-.23-.25-.2-.36.13-.57,1.08.15,1.31.29.43.28.87.55,1.31.82.62.38,1.24.75,1.87,1.12.39.23.96.74,1.41.35.32-.26.28-.79-.07-1-.2-.11-.4-.23-.6-.35-.04-.05-.09-.1-.16-.14-.68-.44-1.35-.89-2.02-1.36-.33-.24-.66-.47-.98-.71-.14-.1-.87-.4-.72-.65.17-.29,1.01.21,1.21.27.56.18,1.13.35,1.69.53.76.24,1.5.5,2.26.73.47.14,1.33.6,1.67.01.18-.31.04-.75-.29-.89-.03-.03-.07-.05-.12-.07-1.02-.53-2.11-.93-3.18-1.34-.53-.2-1.06-.4-1.58-.62-.27-.12-.53-.24-.79-.37-.11-.05-.41-.13-.35-.3.06-.16.39-.11.51-.11.32.02.64.16.96.18.54.03,1.08.06,1.62.1.75.05,1.51.1,2.26.15.45.03,1.19.29,1.49-.2.21-.35-.02-.9-.43-.97Z"/>
  <path class="cls-1" d="m65.45,83.95c2.6,2.12,5.39,4.92,8.45,6.34.86.4,4.04,1.97,4.53,1.16.61-.99,1.19-2.92,1.64-3.98.05-.09.09-.2.13-.29.3-.7.25-1.51-.13-2.17-.61-1.06-3.41-4-4.11-5.02-1.67-2.48-3.63-4.87-5.87-7.21"/>
  <path class="cls-8" d="m74.8,73.44c-.48.11-.95.25-1.4.44-.55.24-.98.6-1.5.88-.9.49-.84.81-1.77,1.24-.29.13-.59.28-.79.52,0,0-.01.02-.02.03-.18.24-.24.59-.05.83.15.18.4.25.64.24.42-.01.86-.17,1.26-.3.25-.09.52-.21.79-.24.41-.06.19.51.02.71-.19.23-.4.44-.62.63-.44.39-.92.73-1.37,1.1,0,0-3.07,2.52-3.08,2.52-.3.25-.22.78.13.94.48.23.95-.32,1.3-.56.58-.4,1.16-.8,1.75-1.2.42-.28.84-.57,1.26-.85.24-.17.44-.42.68-.6.09-.06.34-.54.46-.45.13.1-.35.3-.41.4-.15.23-.3.44-.46.66-.31.42-.63.83-.96,1.23-.66.83-1.34,1.65-1.9,2.54-.02.04-.04.08-.06.11-.19.27-.09.67.21.82.56.28,1.03-.48,1.34-.81.49-.54.96-1.1,1.46-1.64.37-.4.73-.81,1.1-1.21.13-.14.85-.92,1.12-.78.24.12-.2.7-.26.84-.14.34-2.09,3.22-2.1,3.28-.1.18-.2.37-.31.55-.19.33.05.75.44.8.55.07,3-3.61,3.22-4.03.11-.22.53-1.23.91-.85.07.07-1.19,2.66-1.35,3.4-.09.4.15.78.56.66.61-.18.84-1.13,1.31-1.88.41-.65,1.14-2.75,1.26-2.87,1.2-1.23.48-7.45-1.68-8.77.01,0-1.12,1.67-1.12,1.67Z"/>
  <rect class="cls-10" x="-5247.55" y="-1882.55" width="6467.34" height="6437.3"/>
</svg>