<?xml version="1.0" encoding="UTF-8"?>
<svg id="Calque_1" data-name="Calque 1" xmlns="http://www.w3.org/2000/svg" viewBox="0 0 200.13 128.13">
  <defs>
    <style>
      .cls-1, .cls-2, .cls-3, .cls-4, .cls-5, .cls-6, .cls-7, .cls-8, .cls-9, .cls-10, .cls-11, .cls-12, .cls-13, .cls-14, .cls-15, .cls-16, .cls-17, .cls-18, .cls-19, .cls-20, .cls-21, .cls-22, .cls-23, .cls-24, .cls-25, .cls-26, .cls-27, .cls-28 {
        stroke: #000;
      }

      .cls-1, .cls-9, .cls-12, .cls-21, .cls-22, .cls-29, .cls-30, .cls-24, .cls-26, .cls-28 {
        fill: none;
      }

      .cls-1, .cls-10, .cls-11, .cls-12, .cls-13, .cls-16, .cls-17, .cls-18, .cls-19, .cls-23, .cls-30, .cls-24, .cls-27, .cls-28 {
        stroke-miterlimit: 10;
      }

      .cls-1, .cls-26 {
        stroke-width: .78px;
      }

      .cls-2, .cls-3, .cls-4, .cls-5, .cls-6, .cls-7, .cls-8, .cls-9, .cls-11, .cls-12, .cls-14, .cls-15, .cls-16, .cls-20, .cls-21, .cls-22, .cls-29, .cls-23, .cls-26 {
        stroke-linecap: round;
      }

      .cls-2, .cls-3, .cls-4, .cls-5, .cls-6, .cls-7, .cls-8, .cls-9, .cls-14, .cls-15, .cls-20, .cls-21, .cls-22, .cls-29, .cls-25, .cls-26 {
        stroke-linejoin: round;
      }

      .cls-2, .cls-18 {
        fill: #d6d6d6;
      }

      .cls-3 {
        fill: #87ccf3;
      }

      .cls-4 {
        fill: #b2f0e9;
      }

      .cls-5, .cls-14 {
        fill: #ff6d75;
      }

      .cls-6 {
        fill: #bfe6fc;
      }

      .cls-7 {
        fill: #bbfedb;
      }

      .cls-8, .cls-11, .cls-15, .cls-27 {
        fill: #fff;
      }

      .cls-10 {
        stroke-width: .47px;
      }

      .cls-10, .cls-13, .cls-19 {
        fill: #8987f3;
      }

      .cls-11, .cls-13, .cls-14, .cls-15, .cls-21, .cls-22, .cls-28 {
        stroke-width: .5px;
      }

      .cls-16, .cls-23 {
        fill: #fab0b4;
      }

      .cls-17, .cls-25 {
        fill: #7bd7ff;
      }

      .cls-20 {
        stroke-width: .25px;
      }

      .cls-21 {
        stroke-dasharray: 0 0 2.56 2.56;
      }

      .cls-29 {
        stroke: #fff;
        stroke-width: 8px;
      }

      .cls-23 {
        stroke-width: 1.2px;
      }

      .cls-30 {
        stroke: #251f2d;
      }

      .cls-27 {
        stroke-width: .75px;
      }
    </style>
  </defs>
  <g>
    <g id="jkvMcz">
      <path class="cls-2" d="m119.81,86.93c-1.26,1.77-2.1,4-1.4,6.6.31,1.13,1.14,1.93,1.9,2.76.44.49.67.99.63,1.67-.14,2.05-.26,4.1-.36,6.16-.08,1.82-.07,3.65.16,5.46.04.34.12.67.23.99.22.67.51.88,1.14.88.64,0,.92-.22,1.14-.88.18-.53.23-1.09.27-1.64.23-3.22-.15-6.42-.41-9.63-.04-.52-.07-1.05-.12-1.57-.06-.54.15-.95.49-1.35.46-.54.92-1.09,1.33-1.67,1.01-1.45,1.02-3.04.58-4.67-.34-1.28-.85-2.49-1.81-3.45-1.13-1.12-2.37-1.09-3.77.34Z"/>
    </g>
    <circle class="cls-8" cx="102.6" cy="98.62" r="14.46"/>
    <circle class="cls-7" cx="102.6" cy="98.62" r="11.8"/>
    <g>
      <path class="cls-2" d="m82.23,85.7s-.03.05-.03.08c-.03.46-.07.92-.1,1.37-.04.48-.08.97-.11,1.45-.03.41-.06.82-.09,1.23-.04.48-.08.97-.11,1.45-.02.33-.04.66-.07.99-.03.36.03.7.17,1.02.16.37.4.67.72.91.39.28.65.64.75,1.11.05.26.04.52.02.77-.02.29-.01.59-.03.88-.02.38-.02.75-.03,1.13-.02.71-.04,1.43-.06,2.14-.01.45-.03.9-.04,1.35-.02.71-.04,1.41-.06,2.12-.01.45-.03.91-.04,1.36-.02.7-.04,1.41-.06,2.11-.01.46-.03.93-.04,1.39-.01.62-.04,1.24-.05,1.85,0,.63.47,1.15,1.09,1.21.62.05,1.18-.38,1.27-1.01.04-.3.01-.6,0-.9,0-.24-.02-.48-.03-.71-.02-.59-.03-1.17-.05-1.76-.02-.85-.05-1.71-.08-2.56-.02-.62-.04-1.25-.06-1.87-.02-.65-.04-1.31-.06-1.96-.02-.65-.04-1.3-.06-1.94-.02-.64-.04-1.28-.06-1.92-.02-.44-.04-.88-.04-1.32,0-.57.24-1.04.7-1.38.51-.37.85-.84.98-1.47.06-.3.02-.61,0-.91-.01-.24-.04-.49-.05-.73-.03-.45-.06-.89-.09-1.34-.02-.33-.04-.65-.07-.98-.03-.45-.06-.9-.09-1.35-.02-.32-.04-.65-.06-.97-.02-.23-.03-.47-.04-.7,0-.14-.07-.21-.2-.25-.2-.07-3.67,0-3.75.1Z"/>
      <g>
        <line class="cls-2" x1="84.89" y1="85.81" x2="84.89" y2="91.17"/>
        <line class="cls-2" x1="83.44" y1="85.81" x2="83.44" y2="91.17"/>
      </g>
    </g>
  </g>
  <g>
    <path class="cls-4" d="m111.96,11.87v4.63c0,.95-.43,1.8-1.08,2.31v2.13l-1.4-1.59s-.09,0-.13,0h-9.76l-1.39,1.58v-2.03c-.73-.51-1.22-1.4-1.22-2.41v-4.63c0-1.57,1.18-2.86,2.61-2.86h9.75c1.43,0,2.61,1.29,2.61,2.86Z"/>
    <path class="cls-8" d="m119.23,29.01c-.3.23-1.73.75-3.08.86-1.43.1-1.39-.92-1.74-2.39-.35-1.45-1.06-1.47-1.12-1.85-.07-.38,1.13-1.22.88-2.84-.03-.18-.04-.34-.04-.51-.05-1.34.58-2.25.97-2.73,0,0,1.84,2.48,2.22,2.87.37.39,1.59,1.51,2.35,1.13.7-.35,1.26-.97,1.93-.65.67.33.87,1.65.19,2.17,0,0,.88,1.23,1.27,2.1l1.34,3.11s-3.73,3.06-6.65.17l1.49-1.44Z"/>
    <path class="cls-9" d="m114.16,23.64s-1.26-1.74-1.17-3.22c.1-1.79,1.68-2,1.68-2,.7-1.49,4.33-2.71,7.97-1.22,2.66,1.09,2.51,3.53,1.86,5.07"/>
    <path class="cls-9" d="m124.94,20.94s.77,1.64.03,3.07c-.64,1.25-1.42,2.59-1.43,3.95"/>
    <line class="cls-15" x1="121.11" y1="23.96" x2="120.77" y2="24.15"/>
    <path class="cls-24" d="m124.69,30.32s-3.91,2.77-6.95.14"/>
    <path class="cls-8" d="m101.25,34.82l.68-4.05c.04-.26.13-.51.26-.75.29-.51.89-1.45,1.91-2.31.12-.1.28-.11.41-.05.09.04.15.12.18.2.04.11.04.24-.04.35-.28.42-.73,1.14-1.02,1.72,0,0,.64.23.93.53.29.3.17.72.17.72,0,0,1.24.75,1.37,1.67.08.58-.12,1.4-.77,2.39"/>
    <path class="cls-9" d="m81.04,55.82l12.9-.02-1.09-14.75c.36.68,1.92,3.74,2.53,4.53.9,1.19,2.04,2.25,3.3,2.45,3.05.46,5.98-6.5,6.66-12.04,0,0-1.81-.84-4.46-1.15l-2.2,6.27s-.75-2.64-1.4-4.68c-.38-1.2-.98-2.32-1.77-3.32l-.78-.99s-.95-.65-2.2-1.3c-1.25-.65-2.78-1.3-3.95-1.3-2.33,0-7.46,1.68-7.46,1.68-5.18,2.87-5.15,10.81-3.55,24.66h3.46"/>
    <path class="cls-8" d="m89.8,28.99c.3.23,1.73.75,3.08.86,1.43.1,1.39-.92,1.74-2.39.35-1.45,1.06-1.47,1.12-1.85.07-.38-1.13-1.22-.88-2.84.03-.18.04-.34.04-.51.05-1.34-.58-2.25-.97-2.73,0,0-1.84,2.48-2.22,2.87-.37.39-1.59,1.51-2.35,1.13-.7-.35-1.26-.97-1.93-.65-.67.33-.87,1.65-.19,2.17,0,0-.88,1.23-1.27,2.1l-1.34,3.11s3.73,3.06,6.65.17l-1.49-1.44Z"/>
    <path class="cls-14" d="m92.46,27.15c.15.62.53,1.25,1.68,1.15l.16-.72.35.05s-.84-.21-2.19-.48Z"/>
    <line class="cls-16" x1="98.66" y1="40.98" x2="98.49" y2="42.68"/>
    <path class="cls-9" d="m94.87,23.62s1.26-1.74,1.17-3.22c-.1-1.79-1.68-2-1.68-2-.7-1.49-4.33-2.71-7.97-1.22-2.66,1.09-2.51,3.53-1.86,5.07"/>
    <path class="cls-26" d="m84.09,20.92s-.77,1.64-.03,3.07c.64,1.25,1.42,2.59,1.43,3.95"/>
    <ellipse class="cls-20" cx="92.85" cy="23.89" rx=".48" ry=".22" transform="translate(51.16 110.23) rotate(-78.66)"/>
    <line class="cls-11" x1="87.92" y1="23.94" x2="88.26" y2="24.12"/>
    <path class="cls-1" d="m84.34,30.3s3.91,2.77,6.95.14"/>
    <path class="cls-22" d="m93.5,22.42s-.47-.46-1.44.25"/>
    <path class="cls-14" d="m116.46,27.18c-.15.62-.53,1.25-1.68,1.15l-.16-.72-.35.05s.84-.21,2.19-.48Z"/>
    <ellipse class="cls-20" cx="115.57" cy="23.89" rx=".22" ry=".48" transform="translate(-2.44 23.2) rotate(-11.34)"/>
    <path class="cls-22" d="m114.92,22.42s.47-.46,1.44.25"/>
    <path class="cls-24" d="m117.25,30.46c-.48.23-2.4.49-3.75,1.73s-1.94,3.24-2.25,11.05c-.31,7.8-.15,12.58-.15,12.58h13.34s5.83.02,5.83.02c.73-13.82,1.07-21.28-2.92-24.14,0,0-2.73-1.37-2.96-1.41"/>
    <line class="cls-23" x1="114.52" y1="39.29" x2="114.02" y2="55.82"/>
    <line class="cls-16" x1="80.93" y1="55.8" x2="80.62" y2="41.05"/>
    <line class="cls-16" x1="125.96" y1="55.4" x2="126.33" y2="39.62"/>
  </g>
  <g>
    <polygon class="cls-5" points="50.65 21.03 15.47 21.03 33.07 9.13 50.65 21.03"/>
    <rect class="cls-8" x="15.47" y="21.03" width="35.18" height="25.64"/>
    <rect class="cls-9" x="30.03" y="36.69" width="6.07" height="9.98"/>
    <g>
      <rect class="cls-24" x="21.77" y="26.3" width="4.72" height="6.86"/>
      <rect class="cls-24" x="39.63" y="26.3" width="4.72" height="6.86"/>
    </g>
  </g>
  <polygon class="cls-5" points="182.94 28.11 174.91 28.11 174.91 20.07 166.27 20.07 166.27 28.11 158.23 28.11 158.23 36.74 166.27 36.74 166.27 44.78 174.91 44.78 174.91 36.74 182.94 36.74 182.94 28.11"/>
  <g>
    <path class="cls-2" d="m54.11,75.25c-.2,0-.4,0-.6,0h-.06c-.12,0-.23,0-.35,0-.22,0-.44,0-.65-.02-.28,0-.56-.02-.84-.03-.09,0-.19-.01-.29-.01-.12,0-.24,0-.37-.02-.09,0-.18,0-.26-.02-.53-.03-1.05-.06-1.61-.1l-.65-.05c-.05,0-.11,0-.16-.01-.21-.02-.43-.03-.65-.05-1.1-.09-2.32-.19-3.76-.31-.22.64-.43,1.28-.62,1.92h0c-.03.09-.05.17-.08.25-.04.13-.08.25-.11.38-.02.08-.05.16-.07.24-.36,1.24-.69,2.47-.99,3.7-.01.04-.02.09-.03.14-.05.18-.09.35-.13.54h0c-.01.06-.03.11-.04.17-2.58,11.3-2.41,22.07-3.23,33.25,0,.07,0,.14-.01.21,0,.15-.02.29-.03.44,0,.07,0,.14-.01.21-.03.43-.07.85-.1,1.28,2.59.12,5.16.37,7.73.72.07-.39.15-.81.22-1.25h0c.03-.21.07-.42.11-.64,1.13-6.67,2.7-18.22,3.45-23.59h0c0-.05.01-.1.02-.15.2-1.41.34-2.37.39-2.67.03.28.1,1.16.19,2.44,0,0,0,0,0,0,.02.22.04.46.05.71.4,5.64,1.19,17.22,1.71,23.39,0,.02,0,.04,0,.06.02.22.04.42.05.63,0,0,0,.01,0,.02.04.46.08.89.12,1.27,2.58-.17,5.17-.23,7.76-.17,0-.43-.01-.85-.01-1.28,0-.05,0-.1,0-.15,0-.17,0-.34,0-.5,0-.05,0-.1,0-.15-.04-11.23.81-22.46-.64-33.42-.03-.24-.06-.47-.09-.71h0c-.03-.25-.07-.49-.11-.74h0c-.17-1.1-.35-2.2-.58-3.29-.02-.1-.04-.21-.06-.32-.02-.11-.04-.21-.07-.32-.02-.11-.04-.21-.06-.31-.13-.59-.26-1.17-.4-1.75-1.56.05-2.86.08-4.03.07-.02,0-.04,0-.05,0Z"/>
    <path class="cls-9" d="m43.46,75.93s6.32,2.12,15.03.5"/>
    <line class="cls-3" x1="50.97" y1="75.17" x2="50.33" y2="89.77"/>
    <path class="cls-9" d="m47.65,74.94s-.27,4.49-5.56,5.88"/>
    <path class="cls-9" d="m55.54,75.25s-.3,5.89,3.93,6.66"/>
    <path class="cls-17" d="m36.81,94.48c-.07-.2-.18-.29-.4-.14-.75.53-1.9.65-2.73.29-.15-.07-.28.04-.31.23-.03.18.06.33.1.5.06.34-.14,1.22.23,1.38.83.36,1.74.27,2.54-.06.18-.08.39-.12.55-.26.21-.18.19-.36.14-.66-.03-.19,0-.96-.11-1.27Z"/>
    <path class="cls-17" d="m6.39,94.48c.07-.2.18-.29.4-.14.75.53,1.9.65,2.73.29.15-.07.28.04.31.23.03.18-.06.33-.1.5-.06.34.14,1.22-.23,1.38-.83.36-1.74.27-2.54-.06-.18-.08-.39-.12-.55-.26-.21-.18-.19-.36-.14-.66.03-.19,0-.96.11-1.27Z"/>
    <path class="cls-17" d="m34.85,79.77c-.8-2.58-1.56-4.81-2.61-7.38-.17-.4-.43-.77-.77-1.04-.89-.7-1.85-1.18-3.13-1.6h0c-1.26-.42-3.78-1.16-6.73-1.16-2.95,0-5.47.74-6.73,1.16h0c-1.28.42-2.25.9-3.13,1.6-.34.27-.6.64-.77,1.04-1.05,2.57-1.82,4.8-2.61,7.38-1.64,5.3-2.59,11.43-2.65,13.47-.01.36.17,1.02.49,1.2,1.4.76,3,.68,3.86.39.38-.13.63-.78.66-1.18.35-5.43,1.72-9.99,2.41-12.09.31,6.08-.05,12.2-.14,13.57-.01.19.06.38.2.51,1.76,1.7,5.73,2.87,8.41,2.97,0,0,0,0,.01,0s0,0,.01,0c2.67-.1,6.65-1.27,8.41-2.97.14-.13.21-.32.2-.51-.09-1.37-.45-7.49-.14-13.57.69,2.1,2.06,6.66,2.41,12.09.03.39.28,1.05.66,1.18.86.29,2.46.38,3.86-.39.32-.17.5-.83.49-1.2-.06-2.04-1.02-8.17-2.65-13.47Z"/>
    <path class="cls-19" d="m21.6,71.21c.75-.03,1.44-.75,1.92-1.3.51-.58.98-1.08,1.33-1.78.04-.09.12-.31-.13-.65-.95-.17-2.04-.26-3.13-.26-1.09,0-2.17.09-3.13.26-.24.35-.17.56-.13.65.36.7.82,1.2,1.33,1.78.48.54,1.17,1.27,1.92,1.3Z"/>
    <path class="cls-25" d="m21.6,71.3c.2.53,1.02,2.32,1.04,2.34.05.12.21.21.33.09,1.33-1.25,2.32-2.78,2.95-4.53.05-.15.03-.21,0-.26-.28-.53-.64-1-1.06-1.4-.15-.14-.28.02-.35.17-.6,1.41-1.69,2.64-2.92,3.43-1.23-.79-2.32-2.02-2.92-3.43-.06-.14-.2-.31-.35-.17-.43.4-.78.87-1.06,1.4-.03.05-.05.11,0,.26.63,1.76,1.62,3.29,2.95,4.53.12.12.29.03.33-.09.01-.02.83-1.81,1.04-2.34Z"/>
    <path class="cls-10" d="m28.17,78.05c.17,0,.32.14.32.32,0,.11.02,2.76-.03,2.86-.02.05-.05.1-.09.14-.33.39-1.6,1.22-1.91,1.35-.09.04-.23.04-.32,0-.3-.13-1.57-.96-1.91-1.35-.04-.05-.07-.09-.09-.14-.05-.1-.03-2.75-.03-2.86,0-.17.14-.32.32-.32h3.74Z"/>
    <path d="m22.39,74.27c-.06-.02-.13-.02-.19,0-.04,0-.08,0-.12.03-.05.04-.08.11-.09.17,0,0,0,0,0,0,0,0,0,0,0,0-.02.1,0,.21.08.29.14.14.37.08.47-.08.1-.15.04-.36-.14-.42Z"/>
    <path d="m22.39,78.04c-.06-.02-.13-.02-.19,0-.04,0-.08,0-.12.03-.05.04-.08.11-.09.17,0,0,0,0,0,0,0,0,0,0,0,0-.02.1,0,.21.08.29.14.14.37.08.47-.08.1-.15.04-.36-.14-.42Z"/>
    <path d="m22.39,81.81c-.06-.02-.13-.02-.19,0-.04,0-.08,0-.12.03-.05.04-.08.11-.09.17,0,0,0,0,0,0,0,0,0,0,0,0-.02.1,0,.21.08.29.14.14.37.08.47-.08.1-.15.04-.36-.14-.42Z"/>
    <path d="m22.39,85.58c-.06-.02-.13-.02-.19,0-.04,0-.08,0-.12.03-.05.04-.08.11-.09.17,0,0,0,0,0,0,0,0,0,0,0,0-.02.1,0,.21.08.29.14.14.37.08.47-.08.1-.15.04-.36-.14-.42Z"/>
    <path d="m22.39,89.36c-.06-.02-.13-.02-.19,0-.04,0-.08,0-.12.03-.05.04-.08.11-.09.17,0,0,0,0,0,0,0,0,0,0,0,0-.02.1,0,.21.08.29.14.14.37.08.47-.08.1-.15.04-.36-.14-.42Z"/>
    <path d="m22.39,93.13c-.06-.02-.13-.02-.19,0-.04,0-.08,0-.12.03-.05.04-.08.11-.09.17,0,0,0,0,0,0,0,0,0,0,0,0-.02.1,0,.21.08.29.14.14.37.08.47-.08.1-.15.04-.36-.14-.42Z"/>
    <path d="m22.39,96.9c-.06-.02-.13-.02-.19,0-.04,0-.08,0-.12.03-.05.04-.08.11-.09.17,0,0,0,0,0,0,0,0,0,0,0,0-.02.1,0,.21.08.29.14.14.37.08.47-.08.1-.15.04-.36-.14-.42Z"/>
    <path class="cls-12" d="m11.32,71.79s1.41.65,1.85,4.85"/>
    <path class="cls-12" d="m31.89,71.79s-1.67,1.25-1.72,5.29"/>
    <line class="cls-13" x1="21.6" y1="71.13" x2="21.6" y2="98.62"/>
    <g>
      <path class="cls-27" d="m13.09,109.46c-.05.19-.09.37-.13.56.18.06.36.13.54.19,2.55.89,5.13,1.74,7.71,2.55,2.62.81,5.3,1.58,8.05,1.68.16,0,.31.01.47,0,.17.01.35,0,.53,0,.05-.19.07-.39.08-.58,0-.15.01-.31,0-.46,0-.05,0-.11-.01-.16-.01-.15-.04-.29-.07-.44,0-.03-.01-.05-.02-.08,0-.02,0-.04-.02-.06-.69.05-1.36.07-2.02.06-5.27-.06-9.77-1.8-12.38-3.08l-.05-.03c-1.5-.74-2.35-1.32-2.35-1.32l-.33,1.17Z"/>
      <path class="cls-18" d="m22.42,105.32c.07.18.15.35.24.53.01.03.03.07.05.1.1.18.23.4.39.64.06.09.11.18.18.27.04.06.08.12.12.18.16.22.32.43.46.62.17.21.32.38.45.5,0,0,.01.01.02.02.19.17.38.32.59.47.2.15.4.28.61.41.11.07.21.13.32.19.12.07.24.14.36.2.23.12.45.24.67.35.24.12.47.23.7.34,1.61.78,2.92,1.4,2.63,2.5-.69.05-1.36.07-2.02.06-5.27-.06-9.77-1.8-12.38-3.08l-.05-.03c-1.5-.74-2.35-1.32-2.35-1.32,0-.01,0-.02,0-.03-.08-1.05.3-2.01.73-2.71.08-.13.16-.26.24-.37.08-.1.15-.19.21-.28.24-.29.43-.46.49-.48.17-.04,2.03,2.85,5.72,1.55l1.6-.65Z"/>
      <path class="cls-30" d="m15.82,109.63s-.04-.02-.05-.03"/>
      <path class="cls-24" d="m20.82,105.98s2.09,3.64,4.58,4.61c2.49.96,2.8,2.13,2.8,2.13"/>
      <line class="cls-28" x1="23.28" y1="106.87" x2="21.96" y2="107.64"/>
      <line class="cls-28" x1="23.86" y1="107.68" x2="22.9" y2="108.75"/>
      <line class="cls-28" x1="24.92" y1="108.66" x2="24.14" y2="109.86"/>
      <line class="cls-28" x1="25.86" y1="109.27" x2="25.4" y2="110.58"/>
      <path class="cls-24" d="m14.32,105.28s1.8,2.2,1.44,4.33"/>
    </g>
    <g>
      <path class="cls-27" d="m8.51,110.71c-.07.18-.14.36-.2.54.17.08.34.17.52.25,2.43,1.2,4.87,2.36,7.34,3.47,2.5,1.13,5.07,2.21,7.78,2.66.16.02.31.05.46.06.17.03.35.05.52.06.07-.18.12-.38.16-.57.03-.15.05-.3.05-.45,0-.05,0-.11,0-.16,0-.15,0-.29-.02-.44,0-.03,0-.05,0-.08,0-.02,0-.04,0-.06-.69-.04-1.35-.1-2.01-.19-5.23-.7-9.48-2.99-11.9-4.58l-.05-.03c-1.4-.92-2.17-1.6-2.17-1.6l-.47,1.12Z"/>
      <path class="cls-18" d="m18.28,107.76c.05.19.11.37.17.55,0,.03.02.07.04.11.07.19.18.43.31.69.05.1.09.2.14.29.04.06.07.13.1.2.13.24.26.47.38.67.14.23.27.42.39.55,0,0,0,.01.01.02.16.19.34.36.53.54.18.17.36.33.56.49.1.08.19.16.29.23.11.08.22.16.33.24.21.15.42.29.63.43.22.15.43.29.65.42,1.5.97,2.73,1.75,2.31,2.8-.69-.04-1.35-.1-2.01-.19-5.23-.7-9.48-2.99-11.9-4.58l-.05-.03c-1.4-.92-2.17-1.6-2.17-1.6,0-.01,0-.02,0-.03.05-1.05.55-1.96,1.06-2.59.1-.12.19-.23.28-.33.09-.09.17-.17.25-.25.27-.26.49-.41.55-.41.18-.02,1.67,3.08,5.49,2.24l1.67-.45Z"/>
      <path class="cls-30" d="m11.21,111.22s-.04-.02-.05-.03"/>
      <path class="cls-24" d="m16.62,108.21s1.62,3.87,3.98,5.13c2.35,1.26,2.52,2.46,2.52,2.46"/>
      <line class="cls-28" x1="18.94" y1="109.4" x2="17.54" y2="110"/>
      <line class="cls-28" x1="19.43" y1="110.27" x2="18.34" y2="111.22"/>
      <line class="cls-28" x1="20.35" y1="111.38" x2="19.43" y2="112.47"/>
      <line class="cls-28" x1="21.21" y1="112.1" x2="20.59" y2="113.34"/>
      <path class="cls-24" d="m10.25,106.72s1.52,2.4.9,4.47"/>
    </g>
  </g>
  <g>
    <path class="cls-6" d="m178.67,72.97c0-2.29-2.41-4.15-5.38-4.15-2.97,0-5.39,1.86-5.39,4.15h10.77Z"/>
    <g>
      <line class="cls-22" x1="173.54" y1="88.05" x2="173.54" y2="86.16"/>
      <line class="cls-21" x1="173.54" y1="83.6" x2="173.54" y2="79.76"/>
      <line class="cls-22" x1="173.54" y1="78.48" x2="173.54" y2="76.6"/>
    </g>
    <g>
      <line class="cls-22" x1="168.89" y1="88.05" x2="168.89" y2="86.16"/>
      <line class="cls-21" x1="168.89" y1="83.6" x2="168.89" y2="79.76"/>
      <line class="cls-22" x1="168.89" y1="78.48" x2="168.89" y2="76.6"/>
    </g>
    <g>
      <line class="cls-22" x1="177.88" y1="88.05" x2="177.88" y2="86.16"/>
      <line class="cls-21" x1="177.88" y1="83.6" x2="177.88" y2="79.76"/>
      <line class="cls-22" x1="177.88" y1="78.48" x2="177.88" y2="76.6"/>
    </g>
    <g>
      <line class="cls-22" x1="175.71" y1="91.02" x2="175.71" y2="89.14"/>
      <line class="cls-21" x1="175.71" y1="86.58" x2="175.71" y2="82.74"/>
      <line class="cls-22" x1="175.71" y1="81.46" x2="175.71" y2="79.58"/>
    </g>
    <g>
      <line class="cls-22" x1="171.29" y1="91.02" x2="171.29" y2="89.14"/>
      <line class="cls-21" x1="171.29" y1="86.58" x2="171.29" y2="82.74"/>
      <line class="cls-22" x1="171.29" y1="81.46" x2="171.29" y2="79.58"/>
    </g>
    <g>
      <line class="cls-22" x1="173.54" y1="102" x2="173.54" y2="100.12"/>
      <line class="cls-21" x1="173.54" y1="97.55" x2="173.54" y2="93.71"/>
      <line class="cls-22" x1="173.54" y1="92.43" x2="173.54" y2="90.55"/>
    </g>
    <g>
      <line class="cls-22" x1="168.89" y1="102" x2="168.89" y2="100.12"/>
      <line class="cls-21" x1="168.89" y1="97.55" x2="168.89" y2="93.71"/>
      <line class="cls-22" x1="168.89" y1="92.43" x2="168.89" y2="90.55"/>
    </g>
    <g>
      <line class="cls-22" x1="177.88" y1="102" x2="177.88" y2="100.12"/>
      <line class="cls-21" x1="177.88" y1="97.55" x2="177.88" y2="93.71"/>
      <line class="cls-22" x1="177.88" y1="92.43" x2="177.88" y2="90.55"/>
    </g>
    <g>
      <line class="cls-22" x1="175.71" y1="104.97" x2="175.71" y2="103.09"/>
      <line class="cls-21" x1="175.71" y1="100.53" x2="175.71" y2="96.69"/>
      <line class="cls-22" x1="175.71" y1="95.41" x2="175.71" y2="93.53"/>
    </g>
    <g>
      <line class="cls-22" x1="171.29" y1="104.97" x2="171.29" y2="103.09"/>
      <line class="cls-21" x1="171.29" y1="100.53" x2="171.29" y2="96.69"/>
      <line class="cls-22" x1="171.29" y1="95.41" x2="171.29" y2="93.53"/>
    </g>
    <g>
      <polyline class="cls-9" points="155.21 113.71 155.21 87.32 155.21 85.89 155.21 66.66"/>
      <line class="cls-9" x1="173.28" y1="66.66" x2="173.28" y2="68.45"/>
      <path class="cls-9" d="m173.28,66.66c0-2.48-2.03-4.51-4.51-4.51h-9.06c-1.24,0-2.36.51-3.18,1.33s-1.33,1.94-1.33,3.18"/>
    </g>
    <rect class="cls-6" x="155.21" y="113.71" width="30.75" height="3.3"/>
    <rect class="cls-6" x="155.21" y="112.05" width="29.72" height="1.66"/>
    <line class="cls-9" x1="167.9" y1="74.6" x2="178.67" y2="74.6"/>
    <rect class="cls-6" x="155.21" y="89.19" width="3.01" height="1.43"/>
    <rect class="cls-6" x="155.21" y="89.19" width="3.01" height="1.43"/>
    <rect class="cls-6" x="156.14" y="89.19" width="5.6" height="1.43" transform="translate(69.03 248.84) rotate(-90)"/>
  </g>
  <rect class="cls-29" x="-185.59" y="-68.12" width="2179.47" height="547.09"/>
</svg>