<?xml version="1.0" encoding="UTF-8"?>
<svg id="Calque_1" data-name="Calque 1" xmlns="http://www.w3.org/2000/svg" viewBox="0 0 128 128.13">
  <defs>
    <style>
      .cls-1, .cls-2 {
        fill: #fff;
      }

      .cls-3 {
        fill: #a07637;
      }

      .cls-3, .cls-4, .cls-2 {
        stroke-width: 2px;
      }

      .cls-3, .cls-4, .cls-2, .cls-5 {
        stroke-linecap: round;
        stroke-linejoin: round;
      }

      .cls-3, .cls-4, .cls-2, .cls-6 {
        stroke: #000;
      }

      .cls-4 {
        fill: #bfe6fc;
      }

      .cls-5 {
        stroke: #fff;
        stroke-width: 8px;
      }

      .cls-5, .cls-6 {
        fill: none;
      }

      .cls-6 {
        stroke-miterlimit: 10;
      }
    </style>
  </defs>
  <path class="cls-4" d="m77.54,43.98c1.45,1.57,2.25,3.62,2.25,5.75v64.13c0,5.49-7.04,7.94-15.73,7.94s-15.72-2.45-15.72-7.94V49.73c0-2.13.81-4.19,2.26-5.76l.86-.93c1.45-1.57,2.26-3.62,2.26-5.76v-4.83h20.71v4.84c0,2.13.81,4.18,2.26,5.74l.86.94Z"/>
  <path class="cls-3" d="m70.8,20.96v4.56h-13.46v-4.56c0-.46.12-.88.34-1.25.76-1.27,2.49-2.58,2.85-4.01.33-1.31.49-2.65.49-4,0-.51-.02-1.02-.07-1.54-.02-.22-.05-.44-.07-.66,0-1.72,1.43-3.12,3.19-3.12s3.19,1.4,3.19,3.12c-.03.22-.05.44-.07.66-.18,2.05,0,4.1.57,6.07.35,1.25,2.04,2.36,2.7,3.48.22.36.34.79.34,1.24Z"/>
  <path class="cls-2" d="m76.56,28.38l-2.37-.19c-6.67-.54-13.36-.54-20.03-.01l-2.57.2v6.43l2.51-.2c6.67-.53,13.36-.53,20.03,0l2.44.2v-6.43Z"/>
  <path class="cls-2" d="m75.28,28.28h-.01c-7.42-.67-14.88-.67-22.29-.01h-.11s0-3.54,0-3.54h.13c7.42-.67,14.88-.67,22.29,0h0v3.55Z"/>
  <line class="cls-6" x1="53.19" y1="53.71" x2="58.85" y2="53.71"/>
  <line class="cls-6" x1="53.19" y1="62.67" x2="58.85" y2="62.67"/>
  <line class="cls-6" x1="53.19" y1="71.63" x2="58.85" y2="71.63"/>
  <line class="cls-6" x1="53.19" y1="80.59" x2="58.85" y2="80.59"/>
  <line class="cls-6" x1="53.19" y1="89.56" x2="58.85" y2="89.56"/>
  <line class="cls-6" x1="53.19" y1="98.52" x2="58.85" y2="98.52"/>
  <line class="cls-6" x1="53.19" y1="107.48" x2="58.85" y2="107.48"/>
  <path class="cls-1" d="m67.21,43.82s4.62,0,4.64,0c.72,0,1.62,3,1.79,3.55.48,1.54.56,3.05.62,4.65,0,.22.24,3.25.08,3.25-1.73,0-2.45,0-4.18,0,.11,0-.32-6.06-.4-6.54-.17-1-.46-2.01-.95-2.9-.25-.46-.98-2-1.6-2Z"/>
  <rect class="cls-5" x="-4021.16" y="-3646.67" width="6467.34" height="6437.3"/>
</svg>