<?xml version="1.0" encoding="UTF-8"?>
<svg id="Calque_1" data-name="Calque 1" xmlns="http://www.w3.org/2000/svg" viewBox="0 0 128 128">
  <defs>
    <style>
      .cls-1, .cls-2 {
        fill: #a07637;
      }

      .cls-3 {
        fill: #fee4cb;
      }

      .cls-3, .cls-4, .cls-2 {
        stroke: #000;
        stroke-miterlimit: 10;
      }

      .cls-4 {
        fill: #ffd4ad;
      }

      .cls-5 {
        fill: none;
        stroke: #fff;
        stroke-linecap: round;
        stroke-linejoin: round;
        stroke-width: 8px;
      }
    </style>
  </defs>
  <path class="cls-4" d="m113.44,116.66c-.08,1.08-.56,2.11-1.25,2.95l-.11.14c-.96,1.18-2.28,1.99-3.76,2.34-.92.21-1.88.26-2.79.03-1.06-.26-1.87-.77-2.37-1.57-.56-.9-.49-2.02.1-2.84l-.87-.2-.16.67c-.36,1.55-1.93,2.53-3.48,2.16-.77-.18-1.41-.67-1.79-1.3-.39-.63-.54-1.42-.36-2.19l.16-.67-.65-.15-.16.67c-.36,1.55-1.93,2.53-3.49,2.16-.77-.18-1.4-.66-1.79-1.3-.39-.63-.54-1.42-.36-2.19l.16-.67-.65-.15-.16.67c-.36,1.55-1.93,2.53-3.48,2.16-.78-.18-1.41-.66-1.8-1.3-.39-.63-.54-1.42-.36-2.19l.16-.67-.65-.15-.16.67c-.36,1.55-1.93,2.53-3.48,2.16-.77-.18-1.41-.66-1.79-1.3-.39-.63-.54-1.42-.36-2.19l.16-.67-.65-.15-.16.67c-.36,1.55-1.93,2.53-3.49,2.16-.77-.18-1.4-.66-1.79-1.3-.39-.63-.54-1.42-.36-2.19l.16-.67-.65-.15-.16.67c-.36,1.55-1.93,2.53-3.48,2.16-.78-.18-1.41-.67-1.8-1.3-.39-.63-.54-1.42-.36-2.19l.16-.67-1.15-.27c.16.99-.28,2.03-1.18,2.59-.79.49-1.76.59-2.82.35-.92-.21-1.76-.68-2.49-1.27-1.17-.96-1.99-2.28-2.33-3.77l-.04-.18c-.24-1.06-.22-2.2.2-3.2.31-.75.78-1.41,1.38-1.78.6-.37,1.29-.46,1.92-.32.52.12,1.02.42,1.38.86l.27-1.15-.89-.21c-1.55-.36-2.53-1.94-2.16-3.49.18-.77.66-1.41,1.3-1.79.63-.39,1.42-.54,2.19-.36l.89.21.15-.65-.89-.21c-1.55-.36-2.53-1.93-2.16-3.48.18-.77.66-1.41,1.3-1.8.63-.39,1.42-.54,2.19-.36l.89.21.15-.65-.89-.21c-1.55-.36-2.53-1.93-2.16-3.48.18-.77.66-1.41,1.3-1.8.63-.39,1.42-.54,2.19-.36l.89.21.15-.64-.89-.21c-1.55-.36-2.53-1.93-2.16-3.49.18-.77.66-1.41,1.3-1.79.63-.39,1.42-.54,2.19-.36l.89.21.15-.65-.89-.21c-1.55-.36-2.53-1.93-2.16-3.48.18-.77.66-1.41,1.3-1.8.63-.39,1.42-.54,2.19-.36l.89.21.15-.65-.89-.21c-1.55-.36-2.53-1.93-2.16-3.48.18-.77.66-1.4,1.3-1.79s1.42-.54,2.19-.36l.89.21.31-1.31c-.52.23-1.1.27-1.62.15-.63-.15-1.21-.54-1.58-1.14-.37-.6-.51-1.4-.45-2.21.07-1.09.55-2.1,1.24-2.95l.11-.14c.96-1.17,2.29-1.99,3.76-2.32.92-.22,1.88-.27,2.79-.04,1.05.26,1.87.77,2.36,1.58.62.98.47,2.23-.26,3.05l1.26.3.19-.8c.36-1.55,1.93-2.52,3.49-2.15.77.18,1.4.66,1.79,1.3.39.63.55,1.41.36,2.18l-.19.8.65.15.19-.8c.36-1.55,1.93-2.52,3.48-2.16.78.18,1.41.67,1.8,1.3.39.63.55,1.41.36,2.18l-.19.8.65.15.19-.8c.36-1.55,1.93-2.52,3.48-2.16.77.18,1.41.67,1.79,1.3.39.63.55,1.41.36,2.18l-.19.8.65.15.19-.8c.36-1.55,1.93-2.52,3.49-2.15.77.18,1.4.66,1.79,1.3.39.63.55,1.41.36,2.18l-.19.8.65.15.19-.8c.36-1.55,1.93-2.52,3.48-2.16.78.18,1.41.67,1.8,1.3.39.63.55,1.41.36,2.18l-.19.8.65.15.19-.8c.36-1.55,1.93-2.52,3.48-2.16.77.18,1.41.67,1.79,1.3.39.63.55,1.41.36,2.18l-.19.8.98.23c-.29-1.06.13-2.24,1.12-2.85.8-.5,1.75-.6,2.82-.36.92.21,1.75.68,2.48,1.28,1.17.95,1.99,2.28,2.33,3.75l.04.18c.24,1.07.22,2.2-.19,3.2-.31.75-.78,1.41-1.38,1.78-.6.37-1.29.46-1.93.31-.28-.07-.56-.18-.79-.34l-.22.95.44.1c1.55.36,2.53,1.93,2.16,3.48-.18.77-.66,1.4-1.3,1.79-.63.39-1.42.54-2.19.36l-.44-.1-.15.65.44.1c1.55.36,2.53,1.93,2.16,3.49-.18.77-.67,1.41-1.3,1.79-.63.39-1.42.54-2.19.36l-.44-.1-.15.65.44.1c1.55.36,2.53,1.93,2.16,3.48-.18.77-.67,1.41-1.3,1.8-.63.39-1.42.54-2.19.36l-.44-.1-.15.64.44.1c1.55.36,2.53,1.94,2.16,3.49-.18.77-.66,1.4-1.3,1.79-.63.39-1.42.54-2.19.36l-.44-.1-.15.65.44.1c1.55.36,2.53,1.93,2.16,3.49-.18.77-.67,1.41-1.3,1.79-.63.39-1.42.54-2.19.36l-.44-.1-.15.65.44.1c1.55.36,2.53,1.93,2.16,3.48-.18.77-.67,1.41-1.3,1.8-.63.39-1.42.54-2.19.36l-.44-.1-.18.78c.28-.03.58-.01.86.05.64.15,1.22.54,1.59,1.14.37.6.5,1.4.45,2.21Z"/>
  <g>
    <path class="cls-3" d="m40.56,9.68c-2.39-.48-9.28-1.85-16.5,1.19-3.63,1.53-5.83,3.53-9.64,7-3.54,3.23-4.61,5.08-5.15,6.21-.73,1.51-1.11,3.1-1.85,6.21-.25,1.07-1.18,4.97-1.45,7.13-.66,5.18.82,12.62,5.41,18.75,5.21,6.95,12.15,9.22,15.18,10.17,3.02.94,10.75,3.23,19.54-.13,2.06-.79,8.29-3.45,12.81-10.04,3.89-5.67,4.46-11.27,4.89-15.45.52-5.09-.09-9.04-.4-10.7-.81-4.37-2.18-7.36-2.51-8.05-1.39-2.94-2.39-5.08-4.62-6.87-1.1-.88-2.09-1.35-8.53-3.3-4.35-1.32-6.53-1.98-7.19-2.11Z"/>
    <path class="cls-2" d="m21.59,19.64c-.25.39-.9,1.4-.7,2.68.2,1.31,1.24,2.68,2.83,2.93,1.22.19,2.48-.32,3.23-1.34.71-.97.85-2.25.4-3.28-.64-1.47-2.21-1.79-3.38-2.04-.54-.11-.95-.11-1.34.05-.54.22-.82.65-1.04.99Z"/>
    <path class="cls-2" d="m14.68,30.18c-.29.06-1.33.3-2.04,1.29-.15.21-1,1.39-.5,2.73.3.79,1.07,1.63,2.14,1.69,1.14.06,1.88-.82,1.94-.89.44-.54.45-1.26.48-2.7.03-1.62-.24-1.89-.33-1.97-.47-.41-1.22-.25-1.69-.15Z"/>
    <path class="cls-2" d="m31.17,38.87c-.28-.23-1.08-.85-2.24-.84-.37,0-1.31,0-1.98.7-.82.84-.71,2.15-.4,2.94.36.93,1.08,1.4,1.58,1.72.62.4,1.47.96,2.46.7.92-.24,1.38-1.03,1.5-1.25.59-1.01.35-2.03.29-2.24-.25-.95-.9-1.47-1.21-1.72Z"/>
    <path class="cls-2" d="m39.24,26.65c-.33,0-1.15.02-2.05.55-.53.31-1.22.71-1.47,1.54-.21.71.02,1.33.07,1.47.37.92,1.26,1.28,1.91,1.54.68.27,1.31.53,1.95.26.69-.29.95-1.02,1.17-1.65.37-1.04.2-1.9.11-2.39-.14-.75-.36-.96-.44-1.03-.34-.3-.77-.3-1.25-.29Z"/>
    <path class="cls-2" d="m39.46,13.51c-.63-.35-1.26-.23-1.91-.11-.69.13-1.49.28-2.02.99-.67.9-.4,1.99-.37,2.13.27,1.04,1.21,1.88,2.35,2.02,1.11.13,2.14-.44,2.68-1.28.6-.94.4-1.93.37-2.09-.05-.24-.26-1.19-1.1-1.65Z"/>
    <path class="cls-2" d="m52.64,20.34c-.3-.16-1.02-.53-1.91-.37-.21.04-.76.14-1.14.59-.26.3-.23.52-.4.95-.4,1.02-1.02,1.03-1.21,1.69-.29,1.01.84,2.13.92,2.2,1.19,1.15,2.9.88,3.34.81.64-.1,1.58-.25,2.13-1.03.77-1.09.16-2.56,0-2.94-.12-.29-.59-1.32-1.72-1.91Z"/>
    <path class="cls-2" d="m57.96,35.38c-1-.28-1.88.14-2.2.29-.43.2-1.59.76-1.91,2.06-.02.09-.35,1.5.51,2.39,1.08,1.11,3.3.61,4.26-.51.41-.48.55-1.02.62-1.32.12-.46.39-1.53-.22-2.28-.34-.42-.81-.55-1.06-.62Z"/>
    <path class="cls-2" d="m41.19,44.12c-1.34.28-1.89,1.65-2.02,1.98-.16.4-.45,1.14-.18,1.87.56,1.54,3.36,2.34,4.62,1.21.78-.7.72-1.9.7-2.24-.02-.31-.09-1.67-1.21-2.42-.15-.1-.94-.6-1.91-.4Z"/>
    <path class="cls-2" d="m54.09,48.82c-.93-.66-2.14-.22-2.49-.09-1.31.48-1.85,1.6-1.94,1.79-.09.18-.81,1.8.12,3.22.08.11.96,1.42,2.37,1.33.96-.06,1.58-.73,1.88-1.06,1.03-1.13.99-2.54.97-2.88-.03-.63-.08-1.71-.91-2.31Z"/>
    <path class="cls-2" d="m34.25,55.98c-.18.04-1.41.34-2,1.55-.1.2-.62,1.33-.03,2.43.54,1,1.68,1.39,2.58,1.33,1.45-.09,2.74-1.38,2.76-2.79.02-1.22-.9-2-.94-2.03-.97-.8-2.14-.54-2.37-.49Z"/>
    <path class="cls-2" d="m18.5,47.61c-.95.02-1.83.04-2.52.67-.8.73-.94,1.91-.76,2.76.3,1.42,1.51,2.1,2,2.37.5.28,1.73.96,2.85.42.77-.37,1.08-1.11,1.3-1.64.17-.4.72-1.69.09-2.97-.12-.24-.5-.93-1.3-1.33-.58-.29-1.1-.28-1.67-.27Z"/>
  </g>
  <g>
    <g>
      <circle class="cls-1" cx="76.76" cy="67.37" r=".97"/>
      <circle class="cls-1" cx="83.52" cy="68.95" r=".97"/>
      <circle class="cls-1" cx="90.29" cy="70.54" r=".97"/>
      <circle class="cls-1" cx="97.05" cy="72.13" r=".97"/>
      <circle class="cls-1" cx="103.81" cy="73.71" r=".97"/>
      <circle class="cls-1" cx="110.57" cy="75.3" r=".97"/>
    </g>
    <g>
      <circle class="cls-1" cx="75.24" cy="73.86" r=".97"/>
      <circle class="cls-1" cx="82" cy="75.45" r=".97"/>
      <circle class="cls-1" cx="88.76" cy="77.04" r=".97"/>
      <circle class="cls-1" cx="95.52" cy="78.62" r=".97"/>
      <circle class="cls-1" cx="102.28" cy="80.21" r=".97"/>
      <circle class="cls-1" cx="109.04" cy="81.8" r=".97"/>
    </g>
    <g>
      <circle class="cls-1" cx="73.71" cy="80.36" r=".97"/>
      <circle class="cls-1" cx="80.48" cy="81.95" r=".97"/>
      <circle class="cls-1" cx="87.24" cy="83.53" r=".97"/>
      <circle class="cls-1" cx="94" cy="85.12" r=".97"/>
      <circle class="cls-1" cx="100.76" cy="86.71" r=".97"/>
      <circle class="cls-1" cx="107.52" cy="88.29" r=".97"/>
    </g>
    <g>
      <circle class="cls-1" cx="72.19" cy="86.86" r=".97"/>
      <circle class="cls-1" cx="78.95" cy="88.44" r=".97"/>
      <circle class="cls-1" cx="85.71" cy="90.03" r=".97"/>
      <circle class="cls-1" cx="92.47" cy="91.62" r=".97"/>
      <circle class="cls-1" cx="99.23" cy="93.2" r=".97"/>
      <circle class="cls-1" cx="106" cy="94.79" r=".97"/>
    </g>
    <g>
      <circle class="cls-1" cx="70.66" cy="93.35" r=".97"/>
      <circle class="cls-1" cx="77.43" cy="94.94" r=".97"/>
      <circle class="cls-1" cx="84.19" cy="96.53" r=".97"/>
      <circle class="cls-1" cx="90.95" cy="98.11" r=".97"/>
      <circle class="cls-1" cx="97.71" cy="99.7" r=".97"/>
      <circle class="cls-1" cx="104.47" cy="101.29" r=".97"/>
    </g>
    <g>
      <circle class="cls-1" cx="69.14" cy="99.85" r=".97"/>
      <circle class="cls-1" cx="75.9" cy="101.44" r=".97"/>
      <circle class="cls-1" cx="82.66" cy="103.02" r=".97"/>
      <circle class="cls-1" cx="89.42" cy="104.61" r=".97"/>
      <circle class="cls-1" cx="96.18" cy="106.2" r=".97"/>
      <circle class="cls-1" cx="102.95" cy="107.78" r=".97"/>
    </g>
  </g>
  <rect class="cls-5" x="-594.93" y="-848.4" width="3385.57" height="2571.67"/>
</svg>