<?xml version="1.0" encoding="UTF-8"?>
<svg id="Calque_1" data-name="Calque 1" xmlns="http://www.w3.org/2000/svg" viewBox="0 0 128 128.13">
  <defs>
    <style>
      .cls-1, .cls-2, .cls-3 {
        fill: #fff;
      }

      .cls-1, .cls-4, .cls-3 {
        stroke: #000;
      }

      .cls-1, .cls-4, .cls-3, .cls-5 {
        stroke-linecap: round;
        stroke-linejoin: round;
      }

      .cls-4 {
        fill: #87ccf3;
      }

      .cls-4, .cls-3 {
        stroke-width: 2px;
      }

      .cls-5 {
        fill: none;
        stroke: #fff;
        stroke-width: 8px;
      }
    </style>
  </defs>
  <path class="cls-3" d="m56.24,6.62h13.62c1.2,0,2.17.97,2.17,2.17v18.3h-17.97V8.79c0-1.2.97-2.17,2.17-2.17Z"/>
  <polyline class="cls-1" points="59.15 6.72 59.15 9.16 66.94 9.16 66.94 6.72 59.53 6.72"/>
  <path class="cls-3" d="m81.22,82.84c.01,11.18.01,31.39.01,31.39,0,3.7-8.03,6.67-17.97,6.67s-17.95-2.97-17.95-6.67l.07-80.6s2.54-4.51,7.97-7.05l18.98-.23s5.89,2.77,9.02,7.39l-.14,49.11Z"/>
  <path class="cls-4" d="m78.32,113.48c-1.25.6-5.86,3.25-14.97,3.25s-13.73-2.72-15.02-3.36V37.16s5.49-.87,15.02-.87,14.97.97,14.97.97v76.22Z"/>
  <g>
    <path class="cls-2" d="m58.32,94.53c0,.44-.09.79-.26,1.06-.1.16-.29.33-.55.52h.67v1.36h-7.19v-1.39h2.56c-.25-.18-.44-.37-.57-.58-.16-.25-.24-.57-.24-.96,0-.7.25-1.25.76-1.64.5-.4,1.16-.59,1.95-.59s1.51.2,2.06.59.82.94.82,1.64Zm-2.72-.76c-.38,0-.69.05-.94.15-.47.19-.7.53-.7,1.03s.23.85.69,1.04c.24.1.56.15.95.15.46,0,.83-.1,1.13-.3s.45-.51.45-.92c0-.36-.14-.64-.43-.83s-.67-.3-1.14-.3Z"/>
    <path class="cls-2" d="m50.94,89.88h1.28v1.41h-1.28v-1.41Zm1.92,0h5.32v1.41h-5.32v-1.41Z"/>
    <path class="cls-2" d="m53.1,84.87c.27-.42.73-.66,1.38-.72v1.39c-.18.02-.32.07-.42.15-.19.15-.28.41-.28.78,0,.3.05.52.14.65.09.13.21.19.33.19.16,0,.28-.07.35-.21.08-.14.2-.62.39-1.45.13-.55.33-.97.59-1.25.27-.27.6-.41,1-.41.53,0,.96.2,1.29.59.33.39.5,1,.5,1.82s-.18,1.45-.53,1.85c-.35.4-.8.6-1.35.6v-1.41c.25-.03.42-.09.53-.19.19-.17.28-.49.28-.96,0-.27-.04-.49-.12-.65-.08-.16-.2-.24-.37-.24s-.28.07-.36.2-.22.61-.42,1.45c-.15.6-.34,1.03-.56,1.27-.22.25-.54.37-.96.37-.49,0-.91-.19-1.27-.58-.35-.38-.53-.93-.53-1.63,0-.66.13-1.21.4-1.63Z"/>
    <path class="cls-2" d="m56.62,78.42c.32.04.64.2.96.49.52.46.78,1.09.78,1.91,0,.68-.22,1.27-.65,1.79s-1.15.78-2.13.78c-.92,0-1.63-.23-2.12-.7-.49-.47-.74-1.07-.74-1.82,0-.44.08-.84.25-1.2s.43-.65.79-.88c.32-.21.68-.34,1.1-.41.24-.04.6-.05,1.05-.04v3.64c.53-.02.91-.19,1.12-.5.13-.19.2-.42.2-.69,0-.29-.08-.52-.24-.7-.09-.1-.21-.18-.37-.26v-1.42Zm-1.63,1.38c-.37.02-.65.13-.84.33-.19.2-.29.45-.29.75,0,.32.1.57.3.75.2.18.48.29.82.33v-2.16Z"/>
    <path class="cls-2" d="m53.43,72.96c.46-.43,1.13-.64,2.02-.64.94,0,1.65.21,2.14.63.49.42.74.96.74,1.63,0,.42-.11.77-.32,1.05-.12.15-.29.3-.51.45h2.77v1.38h-7.42v-1.33h.79c-.23-.15-.41-.31-.55-.48-.24-.31-.36-.68-.36-1.1,0-.62.23-1.15.69-1.58Zm2.09.79c-.41,0-.77.09-1.09.28-.32.19-.47.49-.47.91,0,.5.24.85.72,1.04.25.1.58.15.97.15.62,0,1.05-.16,1.3-.49.15-.2.22-.43.22-.69,0-.39-.15-.68-.45-.89-.3-.2-.7-.3-1.2-.3Z"/>
    <path class="cls-2" d="m57.19,68.87h1.04l.02.66c.02.66-.09,1.11-.34,1.35-.16.16-.41.23-.74.23h-3.28v.74h-.99v-.74h-1.48v-1.38h1.48v-.86h.99v.86h2.81c.22,0,.35-.03.41-.08.05-.06.08-.22.08-.51,0-.04,0-.09,0-.13,0-.05,0-.09,0-.14Z"/>
    <path class="cls-2" d="m50.94,66.54h1.28v1.41h-1.28v-1.41Zm1.92,0h5.32v1.41h-5.32v-1.41Z"/>
    <path class="cls-2" d="m53.89,62.69c0,.47.2.8.6.97.21.09.48.14.81.14h2.88v1.39h-5.31v-1.34h.78c-.27-.18-.47-.35-.59-.51-.21-.29-.32-.65-.32-1.09,0-.55.14-1,.43-1.35.29-.35.77-.52,1.43-.52h3.58v1.43h-3.24c-.28,0-.5.04-.64.11-.27.14-.41.4-.41.78Z"/>
    <path class="cls-2" d="m56.62,54.53c.32.04.64.2.96.49.52.46.78,1.09.78,1.91,0,.68-.22,1.27-.65,1.79s-1.15.78-2.13.78c-.92,0-1.63-.23-2.12-.7-.49-.47-.74-1.07-.74-1.82,0-.44.08-.84.25-1.2s.43-.65.79-.88c.32-.21.68-.34,1.1-.41.24-.04.6-.05,1.05-.04v3.64c.53-.02.91-.19,1.12-.5.13-.19.2-.42.2-.69,0-.29-.08-.52-.24-.7-.09-.1-.21-.18-.37-.26v-1.42Zm-1.63,1.38c-.37.02-.65.13-.84.33-.19.2-.29.45-.29.75,0,.32.1.57.3.75.2.18.48.29.82.33v-2.16Z"/>
  </g>
  <rect class="cls-5" x="-4064.56" y="-1872.09" width="6467.34" height="6437.3"/>
</svg>