<?xml version="1.0" encoding="UTF-8"?>
<svg id="Calque_1" data-name="Calque 1" xmlns="http://www.w3.org/2000/svg" viewBox="0 0 128 128">
  <defs>
    <style>
      .cls-1 {
        fill: #fce9b9;
        stroke-width: 2px;
      }

      .cls-1, .cls-2, .cls-3 {
        stroke: #000;
      }

      .cls-1, .cls-4 {
        stroke-linecap: round;
        stroke-linejoin: round;
      }

      .cls-2 {
        fill: #fab0b4;
      }

      .cls-2, .cls-3 {
        stroke-miterlimit: 10;
      }

      .cls-4 {
        stroke: #fff;
        stroke-width: 8px;
      }

      .cls-4, .cls-3 {
        fill: none;
      }
    </style>
  </defs>
  <path class="cls-1" d="m48.84,10.86s4.67,9.59,14,9.33c9.33-.26,16.59-9.33,16.59-9.33,0,0,14.51,4.93,21.51,9.34,7,4.4,12.7,10.1,12.7,10.1l-11.4,14.51-9.85-2.33s-1.04,18.14-.26,25.66c.78,7.52,3.89,26.44,2.33,28.51-1.56,2.07-9.81,2.72-16.33,10.11-3,3.4-5.14,12.44-5.14,12.44h-16.04s-3.18-10.37-8.1-14c-4.92-3.63-13.74-6.48-13.74-6.48,0,0-.78-23.07,0-31.62.78-8.55-.35-25.92-.35-25.92l-9.5,5.18-10.89-17.62s10.63-7,16.59-9.85c5.96-2.85,17.88-8.03,17.88-8.03Z"/>
  <path class="cls-3" d="m43.37,13.26s7.96,14.4,20.63,13.54c12.67-.86,21.97-13.54,21.97-13.54l-6.43-2.02-2.04,1.94c-1.71,1.63-3.65,3.02-5.74,4.12l-2.81,1.48c-1.16.61-2.42,1.01-3.72,1.19h0c-2.33.31-4.7.15-6.96-.49l-.4-.11c-.75-.21-1.47-.54-2.13-.97h0c-2.09-1.38-3.93-3.11-5.43-5.12l-1.6-2.14-5.34,2.13Z"/>
  <polygon class="cls-2" points="29.93 43.82 19.55 25.43 15.18 28.66 25.26 45.71 29.93 43.82"/>
  <polygon class="cls-2" points="96.66 43.49 108.89 26.04 113.39 30.61 102 44.45 96.66 43.49"/>
  <circle class="cls-2" cx="60.65" cy="112.57" r="1.85"/>
  <circle class="cls-2" cx="68.56" cy="112.57" r="1.85"/>
  <rect class="cls-4" x="-4767.2" y="-5822" width="6467.34" height="6437.3"/>
</svg>