<?xml version="1.0" encoding="UTF-8"?>
<svg id="Calque_1" data-name="Calque 1" xmlns="http://www.w3.org/2000/svg" viewBox="0 0 128.13 128">
  <defs>
    <style>
      .cls-1, .cls-2 {
        fill: #fff;
      }

      .cls-1, .cls-2, .cls-3, .cls-4, .cls-5 {
        stroke-linecap: round;
        stroke-linejoin: round;
      }

      .cls-1, .cls-2, .cls-3, .cls-5 {
        stroke: #000;
      }

      .cls-6 {
        fill: #87ccf3;
      }

      .cls-2, .cls-3 {
        stroke-width: 2px;
      }

      .cls-3, .cls-4 {
        fill: none;
      }

      .cls-4 {
        stroke: #fff;
        stroke-width: 8px;
      }
    </style>
  </defs>
  <path class="cls-6" d="m80.4,58.15l7.75.41,1.75.1c-.21-.33-.44-.67-.67-1.06-.28-.46-.57-.76-.86-.94-1.14-.81-2.07-.03-1.76-2.4.06-.44,1.07-.58,2.1-.51.59.04,1.16.14,1.56.3,1.81.66,3.41,1.94,4.19,2.92,1.08,1.37,2.17,1.6,2.87,1.94.14.07.29.13.44.16h.01l1.17.07h.03l1.68.09,6.96.37,1.63.09c.88.04,1.64-.5,1.73-1.24l1.18-10.07c.09-.68-.43-1.36-1.2-1.57l-1.16.26-.26,1.38c-.16.84-.97,1.41-1.81,1.26l-5.31-.97-21.5,4.84-.54,4.58Z"/>
  <path class="cls-2" d="m67.93,52.33c.03-.29.06-.57.09-.87.64-5.84,3.38-6.26,3.47-7.75.07-1.5-4.99-4.21-4.84-10.63.03-.7,0-1.36-.07-2-.49-5.26-3.4-8.48-5.15-10.14,0,0-5.94,10.59-7.21,12.28-1.26,1.7-5.44,6.68-8.6,5.55-2.9-1.03-5.41-3.17-7.85-1.56-2.43,1.6-2.58,6.85.31,8.53,0,0-2.83,5.21-3.91,8.82l-5.18,13.33"/>
  <path class="cls-2" d="m67.43,57.2c-.46,2.61-1.51,4.24-5.02,4.42-5.31.27-11.14-1.07-12.43-1.8l7.66,12.04"/>
  <path class="cls-2" d="m63.13,106.22c12.89,2.75,27.12,5.68,30.64,6.03,7.76.76,12.6-7.26,13.23-10.01,1.48-6.49.08-36.17.08-36.17l-1.71.18-8.16.86-5.34.56-3.24,22.15-26.27-7.07c1.04,5.47,1.49,13.13.77,23.47Z"/>
  <path class="cls-2" d="m18.58,124.18c2.27-13.49,6.74-36.63,7.62-40.34,1.87-7.93,12.81-15.83,19.48-8.42.97,1.08,1.71,2.24,2.28,3.45,3.58,7.52.34,16.77.34,16.77-.22.83-.8,3.45-1.58,7.06-1.26,5.77-3.02,14.06-4.59,21.48"/>
  <path class="cls-2" d="m61.06,124.18c1.04-6.73,1.71-12.7,2.07-17.96.72-10.34.27-18-.77-23.47-1.13-6.05-2.97-9.44-4.72-10.88l-16.33-7.19c-3.88-1.3-8.14-.45-11.24,2.23-3.01,2.61-6.4,6.69-8.37,12.79-5.15,16-6.16,31.65-6.16,31.65,0,0-.56,5.34-1.23,12.83"/>
  <path class="cls-2" d="m42.13,124.18c1.57-7.42,3.33-15.71,4.59-21.48.78-3.61,1.36-6.23,1.58-7.06,0,0,3.24-9.25-.34-16.77-.57-1.21-1.31-2.37-2.28-3.45-6.67-7.41-17.61.49-19.48,8.42-.88,3.71-5.35,26.85-7.62,40.34"/>
  <path class="cls-3" d="m67.06,36.39s4.04-7.38,2.98-13.11c-1.28-6.91-7.52-6.96-7.52-6.96-3.44-5.45-18.19-8.42-31.64-.81-9.82,5.56-8.04,14.99-4.76,20.68"/>
  <path class="cls-3" d="m23.75,31.19s-2.19,6.75,1.4,11.98c3.13,4.56,6.81,9.39,7.51,14.7"/>
  <ellipse class="cls-5" cx="59.35" cy="38.45" rx="1.88" ry=".87" transform="translate(16.73 94.89) rotate(-85.88)"/>
  <line class="cls-1" x1="40.18" y1="41.07" x2="41.59" y2="41.61"/>
  <path class="cls-3" d="m80.4,58.15l7.75.41,1.75.1c-.21-.33-.44-.67-.67-1.06-.28-.46-.57-.76-.86-.94-1.14-.81-2.07-.03-1.76-2.4.06-.44,1.07-.58,2.1-.51.59.04,1.16.14,1.56.3,1.81.66,3.41,1.94,4.19,2.92,1.08,1.37,2.17,1.6,2.87,1.94.14.07.29.13.44.16h.01l1.17.07h.03l1.68.09,6.96.37,1.63.09c.88.04,1.64-.5,1.73-1.24l1.18-10.07c.09-.68-.43-1.36-1.2-1.57l-1.16.26-.26,1.38c-.16.84-.97,1.41-1.81,1.26l-5.31-.97-9.07-1.67c-.84-.14-1.41-.97-1.26-1.81l.34-1.85h0s-2.45-.47-2.45-.47l-7.63-1.4-.88,7.51-.54,4.54-.54,4.58Z"/>
  <path class="cls-3" d="m107.63,59.61l1.63.09c.88.04,1.64-.5,1.73-1.24l1.18-10.07c.09-.68-.43-1.36-1.2-1.57-.06-.01-.13-.03-.19-.04l-.88-.16"/>
  <line class="cls-3" x1="88.14" y1="58.57" x2="89.9" y2="58.67"/>
  <path class="cls-3" d="m92.11,45.25c-.16.84.41,1.67,1.26,1.81l9.07,1.67,5.31.97c.84.16,1.65-.41,1.81-1.26l.26-1.38.09-.46h0c.16-.86-.41-1.67-1.26-1.83l-14.38-2.64c-.84-.16-1.64.41-1.81,1.24h0s-.34,1.87-.34,1.87Z"/>
  <path class="cls-3" d="m88.37,56.67c.28.19.57.49.86.94.23.39.46.73.67,1.06.5.74.96,1.34,1.43,1.94.24.31.51.63.8.91.74.76,1.58,1.41,2.51,1.91l.6.31c.76.23,1.17.6,1.38.86.6.7.6,1.51.59,2.51l8.16-.86c.14-.73.33-1.54.6-2.4.31-1.06.6-1.71.9-2.34.26-.59.5-1.13.77-1.91l-6.96-.37-1.68-.09h-.03l-1.17-.07h-.01c-.16-.03-.3-.09-.44-.16-.7-.34-1.78-.57-2.87-1.94-.78-.98-2.38-2.27-4.19-2.92-.4-.16-.97-.26-1.56-.3-1.03-.07-2.04.07-2.1.51-.31,2.37.61,1.58,1.76,2.4Z"/>
  <path class="cls-3" d="m67.93,52.33c-.83.06-1.53.19-2.07.31-1.2.29-2.31.56-2.48,1.24-.17.76.91,1.61,1.48,2.05.9.7,1.83,1.07,2.57,1.26"/>
  <rect class="cls-4" x="-1491.52" y="-368.22" width="3385.57" height="2571.67"/>
</svg>