<?xml version="1.0" encoding="UTF-8"?><svg id="Calque_1" xmlns="http://www.w3.org/2000/svg" viewBox="0 0 128 128"><defs><style>.cls-1{fill:#baa584;}.cls-1,.cls-2,.cls-3,.cls-4,.cls-5{stroke-linecap:round;stroke-linejoin:round;}.cls-1,.cls-2,.cls-3,.cls-5{stroke:#000;}.cls-1,.cls-3,.cls-5{stroke-width:2px;}.cls-2{fill:#a07637;}.cls-3{fill:#fff;}.cls-6{fill:#e2edf5;}.cls-4{stroke:#fff;stroke-width:8px;}.cls-4,.cls-5{fill:none;}</style></defs><rect class="cls-4" x="-2471.16" y="-2047.77" width="3385.57" height="2571.67"/><path class="cls-6" d="m117.38,85.34c-.25.47-.51.92-.78,1.38.27-.45.53-.91.78-1.38Z"/><path class="cls-3" d="m113.82,40.97c0,2.47-3.03,4.76-8.24,6.67-4.61-4.41-21.05-7.67-40.63-7.67s-37.18,3.5-41.08,8.14c-6.02-2-9.58-4.46-9.58-7.14,0-6.68,22.28-12.1,49.76-12.1s49.77,5.42,49.77,12.1Z"/><path class="cls-3" d="m113.82,40.97c.3,80.87-47.6,75.13-47.6,75.13C9.39,116.1,14.29,40.97,14.29,40.97c0,2.68,3.56,5.14,9.58,7.14,9.05,3.02,23.68,4.97,40.18,4.97,17.35,0,32.63-2.16,41.53-5.44,5.21-1.91,8.24-4.2,8.24-6.67Z"/><path class="cls-1" d="m105.58,47.64c-8.9,3.28-24.18,5.44-41.53,5.44s-31.13-1.95-40.18-4.97c3.9-4.64,20.81-8.14,41.08-8.14s36.02,3.26,40.63,7.67Z"/><g><rect class="cls-2" x="55.08" y="63.02" width="5.76" height="7.34" transform="translate(-25.71 38.3) rotate(-30.26)"/><rect class="cls-2" x="50.11" y="65.93" width="5.76" height="7.34" transform="translate(-27.85 36.19) rotate(-30.26)"/><rect class="cls-2" x="60.06" y="60.12" width="5.76" height="7.34" transform="translate(-23.57 40.41) rotate(-30.26)"/><rect class="cls-2" x="41.43" y="68.83" width="5.76" height="7.34" transform="translate(-30.5 32.21) rotate(-30.26)"/></g><g><rect class="cls-2" x="58.78" y="69.36" width="5.76" height="7.34" transform="translate(-28.4 41.03) rotate(-30.26)"/><rect class="cls-2" x="53.8" y="72.27" width="5.76" height="7.34" transform="translate(-30.54 38.92) rotate(-30.26)"/><rect class="cls-2" x="63.76" y="66.46" width="5.76" height="7.34" transform="translate(-26.26 43.14) rotate(-30.26)"/><rect class="cls-2" x="48.83" y="75.17" width="5.76" height="7.34" transform="translate(-32.69 36.8) rotate(-30.26)"/></g><g><rect class="cls-2" x="62.48" y="75.7" width="5.76" height="7.34" transform="translate(-31.09 43.76) rotate(-30.26)"/><rect class="cls-2" x="57.5" y="78.61" width="5.76" height="7.34" transform="translate(-33.23 41.64) rotate(-30.26)"/><rect class="cls-2" x="67.46" y="72.8" width="5.76" height="7.34" transform="translate(-28.95 45.87) rotate(-30.26)"/><rect class="cls-2" x="52.53" y="81.51" width="5.76" height="7.34" transform="translate(-35.38 39.53) rotate(-30.26)"/></g><g><rect class="cls-2" x="66.18" y="82.04" width="5.76" height="7.34" transform="translate(-33.78 46.48) rotate(-30.26)"/><rect class="cls-2" x="61.2" y="84.94" width="5.76" height="7.34" transform="translate(-35.93 44.37) rotate(-30.26)"/><rect class="cls-2" x="71.16" y="79.14" width="5.76" height="7.34" transform="translate(-31.64 48.6) rotate(-30.26)"/><rect class="cls-2" x="56.22" y="87.85" width="5.76" height="7.34" transform="translate(-38.07 42.26) rotate(-30.26)"/></g><g><rect class="cls-2" x="69.88" y="88.38" width="5.76" height="7.34" transform="translate(-36.47 49.21) rotate(-30.26)"/><rect class="cls-2" x="64.9" y="91.28" width="5.76" height="7.34" transform="translate(-38.62 47.1) rotate(-30.26)"/><rect class="cls-2" x="74.85" y="85.47" width="5.76" height="7.34" transform="translate(-34.33 51.32) rotate(-30.26)"/><rect class="cls-2" x="59.92" y="94.19" width="5.76" height="7.34" transform="translate(-40.76 44.99) rotate(-30.26)"/></g><g><rect class="cls-2" x="73.58" y="94.72" width="5.76" height="7.34" transform="translate(-39.16 51.94) rotate(-30.26)"/><rect class="cls-2" x="68.6" y="97.62" width="5.76" height="7.34" transform="translate(-41.31 49.83) rotate(-30.26)"/><rect class="cls-2" x="78.55" y="91.81" width="5.76" height="7.34" transform="translate(-37.02 54.05) rotate(-30.26)"/><rect class="cls-2" x="63.62" y="100.52" width="5.76" height="7.34" transform="translate(-43.45 47.71) rotate(-30.26)"/></g><g><path class="cls-5" d="m63.8,15.12c0,4.66-6.24,4.66-6.24,9.32s6.24,4.66,6.24,9.32"/><path class="cls-5" d="m70.44,15.12c0,4.66-6.24,4.66-6.24,9.32s6.24,4.66,6.24,9.32"/></g></svg>