<?xml version="1.0" encoding="UTF-8"?><svg id="Calque_1" xmlns="http://www.w3.org/2000/svg" viewBox="0 0 128 128"><defs><style>.cls-1{fill:#a07637;}.cls-1,.cls-2,.cls-3,.cls-4{stroke-linecap:round;stroke-linejoin:round;}.cls-1,.cls-2,.cls-4{stroke:#000;stroke-width:2px;}.cls-2{fill:#fff;}.cls-5{fill:#e2edf5;}.cls-3{stroke:#fff;stroke-width:8px;}.cls-3,.cls-4{fill:none;}</style></defs><rect class="cls-3" x="-2332.77" y="-2047.77" width="3385.57" height="2571.67"/><path class="cls-5" d="m117.38,85.34c-.25.47-.51.92-.78,1.38.27-.45.53-.91.78-1.38Z"/><path class="cls-2" d="m113.82,40.97c0,2.47-3.03,4.76-8.24,6.67-4.61-4.41-21.05-7.67-40.63-7.67s-37.18,3.5-41.08,8.14c-6.02-2-9.58-4.46-9.58-7.14,0-6.68,22.28-12.1,49.76-12.1s49.77,5.42,49.77,12.1Z"/><path class="cls-2" d="m113.82,40.97c.3,80.87-47.6,75.13-47.6,75.13C9.39,116.1,14.29,40.97,14.29,40.97c0,2.68,3.56,5.14,9.58,7.14,9.05,3.02,23.68,4.97,40.18,4.97,17.35,0,32.63-2.16,41.53-5.44,5.21-1.91,8.24-4.2,8.24-6.67Z"/><path class="cls-1" d="m105.58,47.64c-8.9,3.28-24.18,5.44-41.53,5.44s-31.13-1.95-40.18-4.97c3.9-4.64,20.81-8.14,41.08-8.14s36.02,3.26,40.63,7.67Z"/><g><ellipse class="cls-1" cx="70.41" cy="82.22" rx="9.02" ry="6.71" transform="translate(-34.82 107.6) rotate(-62.99)"/><path class="cls-1" d="m74.5,74.18s-6.64,3.49-4.1,8.04c2.54,4.54-4.1,8.04-4.1,8.04"/></g><g><ellipse class="cls-1" cx="58.72" cy="85.34" rx="6.71" ry="9.02" transform="translate(-32.98 37.15) rotate(-27.75)"/><path class="cls-1" d="m54.52,77.35s-.98,7.44,4.2,7.98,4.2,7.98,4.2,7.98"/></g><g><path class="cls-4" d="m63.8,15.12c0,4.66-6.24,4.66-6.24,9.32s6.24,4.66,6.24,9.32"/><path class="cls-4" d="m70.44,15.12c0,4.66-6.24,4.66-6.24,9.32,0,4.66,6.24,4.66,6.24,9.32"/></g></svg>