<?xml version="1.0" encoding="UTF-8"?><svg id="Calque_1" xmlns="http://www.w3.org/2000/svg" viewBox="0 0 128 128"><defs><style>.cls-1,.cls-2,.cls-3,.cls-4,.cls-5,.cls-6,.cls-7,.cls-8{stroke-linecap:round;stroke-linejoin:round;}.cls-1,.cls-2,.cls-3,.cls-4,.cls-6,.cls-7,.cls-8{stroke:#000;}.cls-1,.cls-3{fill:#76ac75;}.cls-1,.cls-4,.cls-6,.cls-7{stroke-width:2px;}.cls-2{fill:#ff6d75;}.cls-4{fill:#fff;}.cls-9{fill:#e2edf5;}.cls-5{stroke:#fff;stroke-width:8px;}.cls-5,.cls-7{fill:none;}.cls-6{fill:#d6d6d6;}.cls-8{fill:#ffa75f;}</style></defs><rect class="cls-5" x="-2617.2" y="-2047.77" width="3385.57" height="2571.67"/><path class="cls-9" d="m117.38,85.34c-.25.47-.51.92-.78,1.38.27-.45.53-.91.78-1.38Z"/><path class="cls-4" d="m113.82,40.97c0,2.47-3.03,4.76-8.24,6.67-4.61-4.41-21.05-7.67-40.63-7.67s-37.18,3.5-41.08,8.14c-6.02-2-9.58-4.46-9.58-7.14,0-6.68,22.28-12.1,49.76-12.1s49.77,5.42,49.77,12.1Z"/><path class="cls-4" d="m113.82,40.97c.3,80.87-47.6,75.13-47.6,75.13C9.39,116.1,14.29,40.97,14.29,40.97c0,2.68,3.56,5.14,9.58,7.14,9.05,3.02,23.68,4.97,40.18,4.97,17.35,0,32.63-2.16,41.53-5.44,5.21-1.91,8.24-4.2,8.24-6.67Z"/><path class="cls-1" d="m105.58,47.64c-8.9,3.28-24.18,5.44-41.53,5.44s-31.13-1.95-40.18-4.97c3.9-4.64,20.81-8.14,41.08-8.14s36.02,3.26,40.63,7.67Z"/><g id="jkvMcz"><path class="cls-6" d="m42.56,50.91c-1.02-4.04-2.42-6.95-3.82-10.86-1.24-3.48-6.28-15.4-8.13-18.63-.33-.59-.75-1.17-1.19-1.68-.93-1.1-1.65-1.28-2.83-.82-1.2.48-1.57,1.08-1.48,2.48.08,1.13.4,2.2.75,3.27,2.05,6.21,8.85,20.44,11.8,26.25"/></g><g><path class="cls-7" d="m63.8,15.12c0,4.66-6.24,4.66-6.24,9.32s6.24,4.66,6.24,9.32"/><path class="cls-7" d="m70.44,15.12c0,4.66-6.24,4.66-6.24,9.32s6.24,4.66,6.24,9.32"/></g><g><path class="cls-3" d="m63.48,74.88c-.04.2-.86.25-1.58.16-1.25-.15-2.23-.73-2.5-.9-.97-.6-1.13-1.04-1.63-.97-.53.07-1.05.64-1.04,1.21,0,.41.29.7.39.8.39.42.74.3,1.03.62.33.37.22.96.14,1.4-.22,1.2-1.03,2.19-1.25,2.1-.16-.08.15-.65-.05-1.58-.13-.57-.38-.97-.59-1.29-.66-1.03-1.1-.92-1.41-1.64-.37-.86.11-1.36-.3-1.76-.39-.37-1.14-.21-1.98-.03-.61.13-.67.23-1.38.43-.06.02-.13.04-.19.06-1.24.34-1.34.17-1.72.43-.9.62-.88,1.97-1.12,1.94-.13-.01-.2-.4-.21-.71,0-.92.59-1.6,1.06-2.14.57-.65.97-1.1,1.65-1.3.21-.06.53-.12.99-.21.18-.03.38-.07.61-.11.47-.08.75-.13.83-.31.02-.06.05-.24-.38-.69-.13-.14-.28-.29-.44-.43-.36-.32-.8-.62-1.39-.69-.81-.1-.92.35-1.82.32-.97-.03-1.85-.57-1.81-.83.03-.21.59-.13,1.68-.5.93-.31.89-.48,1.41-.59,1.02-.21,2.18,0,2.91.41.02.01.05.02.07.04.7.41.9.9,1.25,1.21h0c-.23.95-.51,1.71-.51,1.71,0,0,.63.71,1.21.85.58.14,1.42-.09,1.42-.09,0,0,.12-1.9.19-3.29.12-.22.25-.44.42-.67.45-.59,1.09-.86,1.38-.96.05-.01.09-.02.11-.03.7-.2.88.06,1.47-.16.84-.32,1.19-1.13,1.31-1.08.09.05-.12.51-.39,1.25-.23.63-.33.96-.38,1.18-.07.28-.07.36-.21.58-.47.78-.94.67-1.79,1.72-.28.34-.74.91-.57,1.16.17.26.79-.17,1.6.12.58.21.96.69,1.25,1.07.35.45.28.52.56.89.75.96,1.78,1.08,1.74,1.31Z"/><g><path class="cls-2" d="m66.65,88.93c-3.08,4.81-8.58,5.76-10.03,6.02-7.83,1.35-16.25-3.47-20.39-10.83-1.07-1.91-3.54-14.08,9.1-18.21.79-.26,4.18-1.28,8.53-.54h0c.25.25.49.51.71.73.09.1.17.22.22.36.28.7.11,1.88-.12,2.86-.35-.31-.55-.79-1.25-1.21-.02-.02-.04-.03-.07-.04-.73-.41-1.89-.61-2.91-.41-.51.1-.48.28-1.41.59-1.09.37-1.66.29-1.68.5-.04.26.84.81,1.81.83.9.03,1.01-.42,1.82-.32.59.07,1.04.38,1.39.69.16.15.31.29.44.43.43.45.41.63.38.69-.07.19-.36.23-.83.31-.22.04-.43.08-.61.11-.46.09-.78.15-.99.21-.68.2-1.07.65-1.65,1.3-.47.54-1.06,1.22-1.06,2.14,0,.31.08.7.21.71.24.03.23-1.32,1.12-1.94.38-.26.48-.09,1.72-.43.07-.02.14-.04.19-.06.71-.21.77-.31,1.38-.43.84-.18,1.59-.34,1.98.03.41.4-.07.9.3,1.76.31.72.75.61,1.41,1.64.21.32.46.72.59,1.29.2.93-.11,1.5.05,1.58.22.09,1.03-.9,1.25-2.1.08-.44.2-1.03-.14-1.4-.28-.32-.64-.2-1.03-.62-.09-.1-.38-.4-.39-.8-.01-.56.52-1.14,1.04-1.21.5-.07.66.37,1.63.97.27.17,1.25.75,2.5.9.72.1,1.54.04,1.58-.16.04-.23-1-.34-1.74-1.31-.28-.36-.21-.44-.56-.89-.3-.38-.67-.85-1.25-1.07-.81-.29-1.43.14-1.6-.12-.17-.25.29-.82.57-1.16.85-1.06,1.32-.94,1.79-1.72.14-.22.14-.3.21-.58.23.14.46.3.69.46.64.46,1.29.99,1.93,1.61.33.32.65.66.97,1.02.31.36.82.95,1.36,1.75.41.6.85,1.33,1.24,2.19.54,1.14,1.01,2.49,1.26,4.06.17,1.06.68,4.28-.62,7.67-.27.71-.62,1.43-1.07,2.14Z"/><path class="cls-2" d="m58.79,66.88c-.3.1-.93.37-1.38.96-.17.23-.31.45-.42.67.04-.66.05-1.2.04-1.39,0-.21-.15-.61-.32-1.06.61.2,1.32.47,2.08.82Z"/></g><path class="cls-3" d="m56.8,71.79s-.84.23-1.42.09c-.58-.14-1.21-.85-1.21-.85,0,0,.28-.76.51-1.7h0c.23-.99.4-2.16.12-2.86-.06-.14-.13-.27-.22-.36-.22-.23-.46-.48-.71-.73h0c-.8-.83-1.68-1.72-2.3-2.09-.06-.04-.12-.07-.18-.09-.16-.08-.32-.17-.48-.28.26-.25.56-.51.81-.66.43-.25.98-.34,1.56-.35.02.02.04.03.06.04.29.14.68.44,1.08.78.6.51,1.18,1.1,1.34,1.32.11.16.36.64.6,1.19.13.27.24.56.35.84.18.45.31.86.32,1.06,0,.18,0,.73-.04,1.39-.07,1.39-.19,3.29-.19,3.29Z"/><g><path class="cls-8" d="m53.7,98.23c-.09-.13.95-.84,2.56-2.55,1.45-1.55,1.41-1.84,2.49-2.73.87-.72,1.24-.81,2.13-1.66.74-.71.91-1.05,1.49-1.7,1.16-1.29,1.6-1.14,3.1-2.44,1.92-1.65,1.52-2.16,3.34-3.5.79-.58,1.26-.78,2.12-1.58.7-.65.96-1.05,1.64-1.88,1.52-1.84,2.28-2.76,3.13-3.18,2.01-.97,4.15-.05,4.26,0,.14.06.8.37,1.46.97.14.13.29.28.43.43.05.07.11.13.16.2.16.2.31.43.44.68.18.34.32.73.41,1.16.28,1.48-.31,2.69-.48,3.02-.43.85-1.89,1.71-2.08,1.84-.55.38-.55.4-1.68.85-.92.37-.74.43-2.8,1.59-1.8,1-2.69,1.51-3.95,1.99-1.75.66-1.89.41-3.17,1.04-1.59.78-1.3,1.13-2.83,1.85-1.3.61-1.74.47-3.63,1.34-.44.2-.37.18-1.44.7-1.33.65-2.12,1-2.68,1.26-2.8,1.31-3.06,1.61-4.4,2.28Z"/><path class="cls-3" d="m92.7,76.02c-.36-.28-.54-.48-.75-.4-.22.08-.14.42-.51.84-.12.14-.37.44-.58.37-.28-.06-.12-.67-.54-1.1-.23-.25-.53-.33-.96-.44-.34-.08-.81-.19-1.28-.08-.68.19-1.32.87-2.04,1.51-.05.02-.09.02-.14.02-.51.08-.93.2-1.32.33.2-.23.36-.47.54-.73.23-.34.44-.67.61-.98.58-.51,1.59-1.32,3.03-2.13,1.35-.76,2.05-1.14,3.05-1.21.33-.03.62-.02.89.02,0,0,5.19.08,0,4Z"/><path class="cls-3" d="m81.84,78.42c-.14-.16-.28-.3-.43-.43.34-.26.8-.63,1.36-1.16.81-.76,1.27-1.32,1.52-2.09.11-.36.29-.93.02-1.36-.19-.3-.4-.23-1.03-.65-.38-.25-.86-.59-1.06-1.17-.06-.17-.17-.49-.02-.73.17-.26.58-.29.85-.31.56-.04.83.14.94,0,.11-.13-.1-.34-.16-.8-.01-.08-.12-.92.27-1.16.38-.24,1.05.24,1.12.3.64.47.79,1.19.92,1.16.1-.03-.02-.45.1-1.02.07-.31.14-.79.32-.82.28-.04.69.92.87,1.66.11.46.21.91.09,1.47-.1.46-.26.57-.62,1.36-.23.52-.2.55-.45,1.17-.15.37-.37.91-.71,1.52-.17.31-.37.64-.61.98-.18.27-.35.5-.54.73-.23.07-.44.15-.65.22-.03,0-.06.02-.08.03-.64.24-1.4.66-2.01,1.11Z"/><path class="cls-3" d="m88.42,84.44c-.4-.11-.43-1.54-.41-2.21.03-.7.15-1.16-.05-1.27-.28-.15-.78.63-1.17.48-.34-.13-.35-.87-.35-1.05,0-.39.09-.73.23-1.24.16-.55.24-.69.16-.86-.15-.31-.65-.35-.91-.37-.92-.07-1.69.26-2.19.51-.57.29-.98.6-1.3.85-.13-.25-.28-.48-.44-.68-.05-.07-.11-.13-.16-.2.6-.45,1.37-.87,2.01-1.11.03,0,.06-.02.08-.03.21-.07.42-.15.65-.22.38-.13.81-.24,1.32-.31.05,0,.09-.01.14-.02.92-.14,1.69-.24,2.58.08.3.11,1.18.47,1.82,1.34.1.14.2.3.78,1.93.55,1.56.62,1.86.46,2.01-.22.21-.79.05-1.13-.22-.42-.32-.46-.74-.59-.72-.23.03,0,1.24-.63,2.39-.2.37-.64,1-.93.92Z"/></g><path class="cls-3" d="m82.66,91.04c-.73.37-1.1.97-1.24,1.2-.59.98-.71,2.34-.11,3.42.97,1.73,3.5,2.19,4.84,1.27.71-.49.98-1.29,1.13-1.73.14-.42.53-1.57.04-2.65-.74-1.6-3.1-2.3-4.66-1.52Z"/><path class="cls-3" d="m76.05,89.83c-.87.44-1.32,1.16-1.48,1.44-.7,1.18-.86,2.81-.13,4.11,1.16,2.08,4.2,2.63,5.8,1.53.85-.58,1.17-1.55,1.36-2.08.17-.51.64-1.89.04-3.18-.89-1.92-3.72-2.77-5.59-1.82Z"/><path class="cls-3" d="m66.67,90.59c-.73.37-1.1.97-1.24,1.2-.59.98-.71,2.34-.11,3.42.97,1.73,3.5,2.19,4.84,1.27.71-.49.98-1.29,1.13-1.73.14-.42.53-1.57.04-2.65-.74-1.6-3.1-2.3-4.66-1.52Z"/></g></svg>