<?xml version="1.0" encoding="UTF-8"?>
<svg id="Calque_1" data-name="Calque 1" xmlns="http://www.w3.org/2000/svg" viewBox="0 0 128.13 128">
  <defs>
    <style>
      .cls-1 {
        fill: #d6d6d6;
      }

      .cls-1, .cls-2, .cls-3, .cls-4 {
        stroke: #000;
        stroke-width: 2px;
      }

      .cls-1, .cls-2, .cls-3, .cls-4, .cls-5 {
        stroke-linecap: round;
        stroke-linejoin: round;
      }

      .cls-2 {
        fill: #87f3b9;
      }

      .cls-3 {
        fill: #fce9b9;
      }

      .cls-4, .cls-5 {
        fill: none;
      }

      .cls-5 {
        stroke: #fff;
        stroke-width: 8px;
      }
    </style>
  </defs>
  <path class="cls-1" d="m108.61,32.55v24h-32.69v-24.03c0-1.22-.16-2.41-.45-3.55-.31-1.21-.79-2.35-1.39-3.41-2.42-4.25-7-7.12-12.24-7.12h32.66c7.8,0,14.11,6.32,14.11,14.11Z"/>
  <path class="cls-4" d="m95.28,22.38c5.68,1.82,9.79,5.37,9.79,13.44"/>
  <rect class="cls-1" x="77.44" y="56.56" width="7.98" height="62.33"/>
  <path class="cls-2" d="m93.51,6.4v5.99c0,1.46-1.18,2.64-2.64,2.64h-4.21v21.72c0,1.78-1.44,3.22-3.22,3.22-.89,0-1.69-.37-2.27-.95-.59-.58-.95-1.39-.95-2.27V6.4h13.28Z"/>
  <path class="cls-4" d="m46.28,52.85h29.64v-20.33c0-1.22-.16-2.41-.45-3.55-.31-1.21-.79-2.35-1.39-3.41-2.42-4.25-7-7.12-12.24-7.12h-1.48c-5.24,0-9.82,2.87-12.24,7.12"/>
  <path class="cls-1" d="m75.92,52.86v3.7h-43.79c-1.02,0-1.85-.83-1.85-1.85,0-.51.21-.97.54-1.31.34-.33.8-.54,1.31-.54h43.79Z"/>
  <line class="cls-4" x1="75.47" y1="28.98" x2="60.03" y2="41.46"/>
  <g>
    <path class="cls-3" d="m75.92,32.52v20.34h-35.59v-27.3h33.75c.61,1.06,1.08,2.21,1.39,3.42.29,1.14.45,2.32.45,3.54Z"/>
    <line class="cls-4" x1="40.33" y1="25.56" x2="59.99" y2="41.46"/>
    <g>
      <line class="cls-4" x1="40.33" y1="25.56" x2="59.99" y2="41.46"/>
      <line class="cls-4" x1="75.47" y1="28.98" x2="60.03" y2="41.46"/>
    </g>
    <g>
      <line class="cls-4" x1="75.92" y1="48.66" x2="63.52" y2="38.64"/>
      <line class="cls-4" x1="40.33" y1="51.72" x2="56.5" y2="38.64"/>
    </g>
  </g>
  <rect class="cls-3" x="25.31" y="71.66" width="32.2" height="22.66" transform="translate(-19.64 13.17) rotate(-14.65)"/>
  <line class="cls-4" x1="22.97" y1="76.1" x2="42.1" y2="84.74"/>
  <g>
    <line class="cls-4" x1="22.97" y1="76.1" x2="42.1" y2="84.74"/>
    <line class="cls-4" x1="53.56" y1="69.24" x2="42.13" y2="84.73"/>
  </g>
  <g>
    <line class="cls-4" x1="59.52" y1="88.59" x2="44.34" y2="81.74"/>
    <line class="cls-4" x1="28.46" y1="97.11" x2="38.71" y2="83.21"/>
  </g>
  <rect class="cls-3" x="43.05" y="89.46" width="14.22" height="20.2" transform="translate(-61.3 97.17) rotate(-62.03)"/>
  <line class="cls-4" x1="44.57" y1="88.55" x2="49.73" y2="100.66"/>
  <g>
    <line class="cls-4" x1="44.57" y1="88.55" x2="49.73" y2="100.66"/>
    <line class="cls-4" x1="61.61" y1="98.37" x2="49.75" y2="100.67"/>
  </g>
  <g>
    <line class="cls-4" x1="56.14" y1="109.84" x2="52.04" y2="100.22"/>
    <line class="cls-4" x1="38.18" y1="100.57" x2="48.82" y2="98.51"/>
  </g>
  <circle cx="83.36" cy="36.81" r="1.15"/>
  <rect class="cls-5" x="-1499.86" y="-1718.48" width="2244.45" height="5948.74"/>
</svg>