<?xml version="1.0" encoding="UTF-8"?>
<svg id="Calque_1" data-name="Calque 1" xmlns="http://www.w3.org/2000/svg" viewBox="0 0 128 128">
  <defs>
    <style>
      .cls-1 {
        fill: #f3d587;
      }

      .cls-1, .cls-2, .cls-3, .cls-4, .cls-5, .cls-6 {
        stroke: #000;
      }

      .cls-1, .cls-2, .cls-7 {
        stroke-linecap: round;
        stroke-linejoin: round;
      }

      .cls-2, .cls-7 {
        fill: none;
      }

      .cls-3, .cls-4 {
        stroke-width: 2px;
      }

      .cls-3, .cls-4, .cls-5, .cls-6 {
        stroke-miterlimit: 10;
      }

      .cls-3, .cls-5 {
        fill: #fff;
      }

      .cls-4 {
        fill: #77eddf;
      }

      .cls-6 {
        fill: #baa584;
      }

      .cls-7 {
        stroke: #fff;
        stroke-width: 8px;
      }
    </style>
  </defs>
  <path class="cls-3" d="m103.99,98.9H25.94c-1.48,0-2.84-.82-3.54-2.12l-12.71-38.38c-1.43-2.68.51-5.91,3.54-5.91h103.46c3.03,0,4.97,3.23,3.54,5.91l-12.71,38.38c-.7,1.31-2.06,2.12-3.54,2.12Z"/>
  <rect class="cls-4" x="5.2" y="52.49" width="119.54" height="8.03" rx="2.3" ry="2.3"/>
  <g>
    <path class="cls-1" d="m26.71,77.95c.31-.09.48-.42.36-.71-.14-.38-.67-.97-.87-1.54-.38-1.07-.38-2.85-.21-3.52s1.23.3,1.23.3l.91-.61c.21-.14.49-.08.63.13l.11.16c.11.16.3.24.49.19l1.17-.3c.23-.06.46.06.54.28l.22.59c.07.19.26.31.46.29l.63-.04c.3-.02.53.25.48.54v.05c-.06.27.13.52.4.54l.84.07-.27.86.61.09c.36.05.51.48.27.75-.51.58-1.34,1.38-2.17,1.68-.68.24-1.79.32-2.44.44-.5.09-.73.66-.43,1.07.36.49,1.02,1.15,1.16,1.45.27.59.43,1.89.27,2.66-.1.46-.37,1.14-.57,1.6-.1.22-.41.24-.53.04l-.67-1.07-.41.6c-.1.14-.29.17-.43.07l-.57-.41c-.09-.06-.2-.08-.3-.03l-.85.39c-.15.07-.33,0-.4-.15l-.38-.85c-.05-.11-.16-.18-.28-.18h-.85c-.17,0-.3-.14-.3-.3v-.37c0-.16-.12-.29-.27-.3l-.48-.05c-.15-.02-.27-.15-.27-.3v-.66c0-.12-.07-.23-.18-.28l-.86-.4c-.18-.09-.24-.32-.1-.47.47-.54,1.52-1.62,2.48-1.89.64-.19,1.48-.27,1.85-.38Z"/>
    <path class="cls-2" d="m31.42,76.68s-1.55.87-2.06,1.78c-.5.91-.79,3.1-.79,3.1"/>
    <path class="cls-2" d="m25.19,79.76s1.55-.87,2.06-1.78.79-3.1.79-3.1"/>
  </g>
  <g>
    <path class="cls-1" d="m32.44,89.16c.14-.29,0-.63-.3-.74-.38-.14-1.17-.14-1.73-.36-1.06-.42-2.39-1.59-2.79-2.15s1.04-.73,1.04-.73l.14-1.08c.03-.25.26-.42.51-.39l.19.02c.19.03.38-.07.47-.25l.54-1.08c.1-.21.35-.3.57-.22l.59.22c.19.07.4,0,.52-.15l.38-.5c.18-.24.54-.24.72,0l.03.04c.17.21.48.23.68.04l.6-.59.47.77.47-.39c.27-.23.7-.07.74.29.1.77.16,1.92-.16,2.74-.26.67-.93,1.56-1.28,2.13-.26.43.02.98.52,1.03.6.05,1.54-.01,1.85.08.62.19,1.71.92,2.18,1.55.29.38.61,1.02.83,1.48.1.22-.08.47-.32.43l-1.25-.2.18.71c.04.16-.06.33-.23.37l-.69.16c-.11.02-.19.1-.22.21l-.27.9c-.05.16-.22.25-.38.2l-.89-.27c-.11-.04-.24,0-.32.09l-.56.64c-.11.13-.3.14-.43.03l-.28-.24c-.12-.1-.29-.1-.41,0l-.35.33c-.11.11-.29.11-.41,0l-.5-.43c-.09-.08-.22-.1-.32-.05l-.86.39c-.19.08-.4-.03-.42-.23-.09-.71-.22-2.21.2-3.11.28-.6.77-1.3.93-1.64Z"/>
    <path class="cls-2" d="m34.58,84.77s-.37,1.74-.01,2.72,1.81,2.63,1.81,2.63"/>
    <path class="cls-2" d="m32.8,91.49s.37-1.74.01-2.72-1.81-2.63-1.81-2.63"/>
  </g>
  <g>
    <path class="cls-1" d="m44.37,73.76c.14.29.5.39.77.23.35-.21.83-.84,1.36-1.13.99-.57,2.73-.89,3.42-.86s-.07,1.27-.07,1.27l.76.78c.18.18.17.47,0,.64l-.14.13c-.14.13-.18.34-.1.52l.51,1.1c.1.21.02.46-.18.58l-.54.32c-.17.1-.26.31-.21.5l.16.61c.07.29-.14.57-.44.57h-.05c-.27,0-.48.23-.45.5l.09.83-.89-.11.02.61c.01.36-.38.59-.69.41-.66-.4-1.6-1.06-2.05-1.82-.36-.62-.65-1.7-.88-2.32-.18-.47-.78-.6-1.13-.23-.42.44-.94,1.22-1.21,1.4-.53.37-1.78.77-2.57.75-.47-.01-1.18-.15-1.67-.27-.24-.06-.31-.35-.13-.52l.93-.85-.67-.3c-.16-.07-.22-.25-.15-.41l.3-.64c.05-.1.04-.21-.03-.3l-.54-.76c-.1-.14-.06-.33.08-.42l.77-.53c.1-.07.15-.19.13-.3l-.16-.83c-.03-.16.08-.32.24-.35l.36-.07c.15-.03.26-.17.25-.32l-.04-.48c-.01-.15.09-.29.25-.32l.65-.12c.12-.02.21-.11.24-.22l.23-.91c.05-.2.27-.29.45-.19.61.37,1.87,1.2,2.32,2.09.3.59.54,1.41.71,1.75Z"/>
    <path class="cls-2" d="m46.48,78.15s-1.14-1.37-2.13-1.7-3.19-.21-3.19-.21"/>
    <path class="cls-2" d="m42.31,72.59s1.14,1.37,2.13,1.7,3.19.21,3.19.21"/>
  </g>
  <g>
    <path class="cls-1" d="m39.23,67.98c-.06.31.16.61.48.65.4.04,1.17-.16,1.77-.08,1.13.15,2.71.94,3.24,1.39s-.82.97-.82.97l.13,1.09c.03.25-.15.48-.4.51l-.19.02c-.19.02-.35.17-.39.35l-.26,1.18c-.05.23-.26.38-.49.36l-.62-.07c-.2-.02-.39.09-.47.28l-.24.58c-.12.28-.46.37-.7.19l-.04-.03c-.21-.16-.53-.11-.67.13l-.44.72-.65-.63-.35.5c-.21.29-.66.24-.79-.09-.28-.72-.63-1.82-.53-2.69.09-.72.51-1.74.71-2.38.15-.48-.26-.95-.76-.87-.6.1-1.49.4-1.81.39-.65-.03-1.88-.47-2.5-.96-.37-.3-.85-.84-1.17-1.23-.16-.19-.04-.47.21-.49l1.26-.11-.35-.64c-.08-.15-.03-.34.13-.42l.63-.33c.1-.05.16-.15.16-.26l.03-.93c0-.17.15-.3.32-.29l.93.04c.12,0,.23-.06.28-.17l.38-.76c.08-.15.26-.21.41-.13l.33.17c.14.07.31.02.39-.11l.26-.4c.08-.13.25-.18.39-.11l.59.3c.11.05.23.04.33-.03l.74-.59c.16-.13.39-.07.47.12.27.66.76,2.08.58,3.06-.12.65-.42,1.45-.49,1.82Z"/>
    <path class="cls-2" d="m38.25,72.75s-.08-1.78-.67-2.64-2.41-2.1-2.41-2.1"/>
    <path class="cls-2" d="m38.29,65.8s.08,1.78.67,2.64c.59.86,2.41,2.1,2.41,2.1"/>
  </g>
  <g>
    <path class="cls-1" d="m49.38,91.79c.04-.32-.21-.6-.53-.61-.41,0-1.15.26-1.75.23-1.14-.05-2.78-.72-3.34-1.12s.74-1.03.74-1.03l-.22-1.07c-.05-.25.11-.49.35-.54l.19-.04c.19-.04.33-.19.36-.39l.16-1.2c.03-.23.23-.4.46-.39l.63.02c.2,0,.38-.12.44-.31l.2-.6c.09-.28.43-.4.68-.24l.04.03c.23.15.53.06.65-.18l.38-.75.7.57.31-.53c.18-.31.64-.29.8.03.34.69.78,1.76.75,2.64-.03.72-.37,1.78-.51,2.43-.11.49.34.92.83.8.59-.15,1.45-.52,1.77-.53.65-.03,1.91.31,2.57.75.39.26.91.77,1.27,1.13.17.17.07.47-.17.51l-1.25.22.4.61c.09.14.05.33-.09.42l-.6.38c-.09.06-.15.16-.14.27l.04.93c0,.17-.12.31-.29.32l-.93.03c-.12,0-.23.08-.27.19l-.32.79c-.06.16-.24.23-.39.17l-.34-.14c-.14-.06-.31,0-.38.14l-.23.42c-.07.14-.24.2-.38.14l-.61-.25c-.11-.04-.24-.02-.32.06l-.69.65c-.15.14-.39.1-.48-.08-.32-.64-.93-2.01-.83-3.01.07-.66.3-1.48.34-1.85Z"/>
    <path class="cls-2" d="m49.96,86.95s.22,1.77.88,2.57,2.57,1.89,2.57,1.89"/>
    <path class="cls-2" d="m50.48,93.88s-.22-1.77-.88-2.57-2.57-1.89-2.57-1.89"/>
  </g>
  <g>
    <path class="cls-1" d="m61.91,90.68c-.22-.24-.59-.24-.8,0-.27.3-.57,1.04-.98,1.47-.79.82-2.37,1.62-3.04,1.78-.67.16-.29-1.24-.29-1.24l-.95-.54c-.22-.12-.3-.4-.17-.62l.09-.17c.1-.17.07-.38-.05-.52l-.8-.91c-.15-.17-.15-.44,0-.61l.42-.46c.14-.15.16-.37.06-.54l-.32-.54c-.15-.26-.02-.59.26-.67h.05c.26-.09.4-.37.29-.62l-.32-.78.89-.15-.19-.58c-.11-.34.2-.67.54-.58.75.2,1.84.57,2.48,1.17.52.5,1.1,1.45,1.49,1.98.3.4.92.35,1.15-.1.28-.54.56-1.43.77-1.69.41-.51,1.49-1.24,2.25-1.44.46-.12,1.18-.18,1.68-.21.24-.01.4.25.27.46l-.66,1.08.73.1c.17.02.29.18.26.35l-.11.7c-.02.11.03.22.11.28l.73.58c.13.1.15.3.05.43l-.59.72c-.08.09-.09.22-.03.33l.38.76c.08.15.02.33-.13.41l-.33.17c-.14.07-.2.23-.15.38l.17.45c.06.14,0,.31-.15.38l-.59.3c-.11.05-.17.16-.17.28l.03.94c0,.2-.18.36-.38.31-.69-.18-2.13-.63-2.81-1.35-.45-.48-.92-1.2-1.17-1.48Z"/>
    <path class="cls-2" d="m58.65,87.06s1.47,1,2.52,1.03,3.12-.69,3.12-.69"/>
    <path class="cls-2" d="m64.21,91.22s-1.47-1-2.52-1.03-3.12.69-3.12.69"/>
  </g>
  <g>
    <path class="cls-1" d="m60.18,74.99c.29-.14.39-.5.23-.77-.21-.35-.84-.83-1.13-1.36-.57-.99-.89-2.73-.86-3.42s1.27.07,1.27.07l.78-.76c.18-.18.47-.17.64,0l.13.14c.13.14.34.18.52.1l1.1-.51c.21-.1.46-.02.58.18l.32.54c.1.17.31.26.5.21l.61-.16c.29-.07.57.14.57.44v.05c0,.27.23.48.5.45l.83-.09-.11.89.61-.02c.36-.01.59.38.41.69-.4.66-1.06,1.6-1.82,2.05-.62.36-1.7.65-2.32.88-.47.18-.6.78-.23,1.13.44.42,1.22.94,1.4,1.21.37.53.77,1.78.75,2.57-.01.47-.15,1.18-.27,1.67-.06.24-.35.31-.52.13l-.85-.93-.3.67c-.07.16-.25.22-.41.15l-.64-.3c-.1-.05-.21-.04-.3.03l-.76.54c-.14.1-.33.06-.42-.08l-.53-.77c-.07-.1-.19-.15-.3-.13l-.83.16c-.16.03-.32-.08-.35-.24l-.07-.36c-.03-.15-.17-.26-.32-.25l-.48.04c-.15.01-.29-.09-.32-.25l-.12-.65c-.02-.12-.11-.21-.22-.24l-.91-.23c-.2-.05-.29-.27-.19-.45.37-.61,1.2-1.87,2.09-2.32.59-.3,1.41-.54,1.75-.71Z"/>
    <path class="cls-2" d="m64.58,72.88s-1.37,1.14-1.7,2.13-.21,3.19-.21,3.19"/>
    <path class="cls-2" d="m59.02,77.05s1.37-1.14,1.7-2.13.21-3.19.21-3.19"/>
  </g>
  <g>
    <path class="cls-6" d="m98.2,71.04c.17.7.26,1.48.34,2.13.05.4.09.78.13,1.13.16,1.55.15,2.61-.52,3.13-.94.73-2.01-.52-4.04,0-1.53.39-2.51,1.52-3.32,2.44-.93,1.07-1.13,1.72-2.05,3.4-.86,1.56-1.87,3.41-3.3,5.04-1.46,1.66-2.96,3.36-5.26,3.62-2.47.27-4.42-1.29-5.29-1.98-.58-.46-3.93-3.26-3.71-7.7.18-3.59,2.58-5.85,3.15-6.36,3-2.66,7.17-2.72,9.37-2.75,1.95-.03,3.4.25,6.09-.19,3.04-.5,3.77-1.28,4.01-1.57.41-.5.71-1.16,1.62-1.75.5-.33,1.04-.68,1.56-.55.64.16,1,1,1.22,1.98Z"/>
    <path class="cls-5" d="m112.12,67.6c.46,1.43-1.29,4.57-3.29,4.29-2-.28-3.18-1.48-3.18-1.48l-6.98,3.89c-.03-.35-.08-.73-.13-1.13-.07-.65-.17-1.43-.34-2.13l6.11-3.36s-.48-3.53,1.92-3.85c2.4-.31,2.88,2.83,2.88,2.83,0,0,2.55-.49,3.01.94Z"/>
  </g>
  <rect class="cls-7" x="-4616.6" y="-195.18" width="6562.35" height="1176.7"/>
</svg>