<?xml version="1.0" encoding="UTF-8"?>
<svg id="Calque_1" data-name="Calque 1" xmlns="http://www.w3.org/2000/svg" viewBox="0 0 200 128">
  <defs>
    <style>
      .cls-1, .cls-2, .cls-3, .cls-4, .cls-5, .cls-6 {
        stroke-linecap: round;
        stroke-linejoin: round;
      }

      .cls-1, .cls-2, .cls-3, .cls-4, .cls-6 {
        stroke: #000;
      }

      .cls-1, .cls-4, .cls-5, .cls-6 {
        fill: none;
      }

      .cls-7, .cls-2 {
        fill: #bbfedb;
      }

      .cls-8 {
        fill: #bfe6fc;
      }

      .cls-2, .cls-3, .cls-4 {
        stroke-width: 2px;
      }

      .cls-3 {
        fill: #fff;
      }

      .cls-5 {
        stroke: #fff;
        stroke-width: 8px;
      }

      .cls-6 {
        stroke-width: 3px;
      }
    </style>
  </defs>
  <path class="cls-2" d="m58.5,79.82H15.26c-2.18,0-3.95,1.77-3.95,3.95v9.42c0,2.18,1.77,3.95,3.95,3.95h43.37"/>
  <path class="cls-2" d="m53.79,97.14h116.18c2.18,0,3.95-1.77,3.95-3.95v-9.42c0-2.18-1.77-3.95-3.95-3.95H53.93"/>
  <line class="cls-1" x1="58.5" y1="82.82" x2="12.25" y2="82.82"/>
  <line class="cls-1" x1="172.97" y1="82.82" x2="53.93" y2="82.82"/>
  <line class="cls-1" x1="58.5" y1="85.62" x2="12.25" y2="85.62"/>
  <line class="cls-1" x1="172.97" y1="85.62" x2="53.93" y2="85.62"/>
  <line class="cls-1" x1="58.5" y1="88.41" x2="12.25" y2="88.41"/>
  <line class="cls-1" x1="172.97" y1="88.41" x2="53.93" y2="88.41"/>
  <line class="cls-1" x1="58.5" y1="91.2" x2="12.25" y2="91.2"/>
  <line class="cls-1" x1="172.97" y1="91.2" x2="53.93" y2="91.2"/>
  <line class="cls-1" x1="58.5" y1="93.99" x2="12.25" y2="93.99"/>
  <line class="cls-1" x1="172.97" y1="93.99" x2="53.93" y2="93.99"/>
  <g>
    <path class="cls-3" d="m59.85,77.9c.43,1.59-.51,3.24-2.11,3.67-1.1.3-2.22-.06-2.95-.84l-2.9,1.33c-7.67,3.52-15.89,5.74-24.29,6.56l-3.12.3c-.25,1.03-1.04,1.9-2.13,2.2-1.6.43-3.24-.52-3.67-2.11-.29-1.06.03-2.14.75-2.87-3.22-6.92-5.23-14.34-5.92-21.94-.98-.26-1.8-1.04-2.09-2.1-.43-1.59.51-3.24,2.11-3.67,1.09-.3,2.21.06,2.95.83l2.81-1.29c7.67-3.52,15.89-5.74,24.29-6.57l3.01-.29c.25-1.02,1.04-1.88,2.12-2.17,1.6-.43,3.24.52,3.67,2.11.27,1.01,0,2.03-.65,2.76,1.63,3.48,2.94,7.08,3.94,10.78s1.66,7.4,2.01,11.19c1.03.24,1.89,1.03,2.18,2.13Z"/>
    <path class="cls-4" d="m22.23,77.66c-1.38-3.66-2.22-7.5-2.49-11.43"/>
    <path class="cls-4" d="m51.38,70.51c.28,2.28-.48,4.39-2.27,6.26"/>
  </g>
  <g>
    <polyline class="cls-1" points="42.04 34.24 46.56 34.24 42.04 39.68 46.56 39.68"/>
    <polyline class="cls-1" points="37.19 40.19 40.71 40.19 37.19 44.44 40.71 44.44"/>
    <polyline class="cls-1" points="33.27 44.82 35.57 44.82 33.27 47.58 35.57 47.58"/>
  </g>
  <rect class="cls-7" x="144.32" y="14.77" width="29.47" height="29.47" rx="4.14" ry="4.14"/>
  <path class="cls-4" d="m173.79,27.17v12.93c0,2.28-1.86,4.14-4.14,4.14h-21.2c-2.28,0-4.14-1.86-4.14-4.14v-21.2c0-2.28,1.86-4.14,4.14-4.14h21.2"/>
  <polyline class="cls-6" points="148.4 23.47 159.06 38.76 177.05 14.77"/>
  <circle class="cls-8" cx="98.78" cy="52.85" r="25.81"/>
  <g>
    <line class="cls-1" x1="98.78" y1="6.54" x2="98.78" y2="40.36"/>
    <polygon points="93.8 38.9 98.78 47.54 103.77 38.9 93.8 38.9"/>
  </g>
  <rect class="cls-5" x="-5842.85" y="-5566.62" width="6467.34" height="6437.3"/>
</svg>