<?xml version="1.0" encoding="UTF-8"?>
<svg id="Calque_1" data-name="Calque 1" xmlns="http://www.w3.org/2000/svg" viewBox="0 0 200.13 128">
  <defs>
    <style>
      .cls-1 {
        fill: #87ccf3;
      }

      .cls-1, .cls-2, .cls-3, .cls-4, .cls-5 {
        stroke: #000;
      }

      .cls-1, .cls-2, .cls-3, .cls-5, .cls-6 {
        stroke-linecap: round;
        stroke-linejoin: round;
      }

      .cls-2 {
        fill: #bbfedb;
      }

      .cls-3 {
        fill: #ffbeed;
      }

      .cls-4 {
        fill: #afaff9;
        stroke-miterlimit: 10;
      }

      .cls-4, .cls-5 {
        stroke-width: 2px;
      }

      .cls-5, .cls-6 {
        fill: none;
      }

      .cls-6 {
        stroke: #fff;
        stroke-width: 8px;
      }
    </style>
  </defs>
  <circle class="cls-4" cx="44.88" cy="34.99" r="23.31"/>
  <path class="cls-5" d="m58.01,54.25c3.73-3.43,4.52-6.92,5.69-10.8s.84-8.33-.58-12.08c-3.01-7.94-11.68-13.92-20.27-12.93-7.03.81-13.21,6.54-14.54,13.49-1.45,7.54,2.92,16.09,10.34,18.49,1.91.62,3.88.45,5.83.03,3.56-.77,6.09-2.98,7.52-6.38,2.11-5,.58-11.69-5.15-13.4-2.13-.63-4.62-.19-6.18,1.38-1.57,1.57-1.96,4.28-.67,6.08,2.49,3.46,2.76-2.51,5.55-2.05,1.11.18,2,1.15,2.29,2.23s.06,2.27-.43,3.28c-.98,2.01-3,3.48-5.21,3.78-5.45.75-8.92-4.75-9.06-9.55-.16-5.65,3.94-10.87,9.6-11.86,5.67-.98,11.62,2.31,14.44,7.32,5.61,9.97-.17,23.65-11.38,26.15-3.44.77-6.81.44-10.08-.82-4.69-1.82-8.37-5.06-10.86-9.74-1.05-1.96-2.05-3.94-2.57-6.12-.72-3.02-.8-6.08-.25-9.12.07-.37.19-.72.26-1.08.66-3.81,2.33-7.13,4.58-10.03,3.06-3.93,7-6.71,11.7-7.97,5.04-1.36,9.46-1.21,14.43.86,8.63,3.59,13.64,10.41,14.98,18.19,1.48,8.63-3.05,17.43-9.95,22.66Z"/>
  <path class="cls-5" d="m52.97,57.24h4.92v57.19c0,1.36-1.1,2.46-2.46,2.46h0c-1.36,0-2.46-1.1-2.46-2.46v-57.19h0Z" transform="translate(-16.18 12.74) rotate(-11.45)"/>
  <path class="cls-1" d="m145.32,23.39c-2.54,1.74-4.89,4.27-5.86,7.87-2.18,8.04-2.18,17.18-5.64,20.86-2.44-1.18-3.97-2.77-4.94-4.19,1.57-4.51,1.98-11.19,3.63-17.26.82-3.05,2.63-5.33,4.7-6.99,1.47-.34,3.15-.52,5.06-.52,1.1,0,2.1.08,3.05.23Z"/>
  <path class="cls-3" d="m137.21,23.68c-2.07,1.66-3.88,3.94-4.7,6.99-1.65,6.07-2.05,12.75-3.63,17.26-1.32-1.95-1.6-3.59-1.78-3.51-.47-2.08-.76-4.09-.81-5.97-.05-2.05.06-4.04.3-5.91.87-2.09,3.19-7.23,10.61-8.85Z"/>
  <path class="cls-1" d="m155.28,29.07c-.64,1.01-1.16,2.14-1.5,3.41-2.18,8.01-2.18,17.11-5.59,20.81h-.01c-1.62.48-3.54.74-5.77.69-.88-.03-1.71-.08-2.49-.18.24-.16.47-.35.71-.54,4.02-3.25,3.9-12.92,6.2-21.38.76-2.81,2.34-4.95,4.21-6.59,1.9,1.08,3.28,2.46,4.26,3.77Z"/>
  <path class="cls-3" d="m151.03,25.3c-1.86,1.64-3.45,3.78-4.21,6.59-2.29,8.45-2.18,18.13-6.2,21.38-.24.19-.47.38-.71.54-2.51-.28-4.5-.89-6.1-1.69,3.46-3.68,3.46-12.82,5.64-20.86.97-3.6,3.31-6.13,5.86-7.87,2.31.33,4.18,1.02,5.71,1.91Z"/>
  <path class="cls-3" d="m158.26,38.44c-.05,2.1-.4,4.38-.98,6.71h0c-.77,1.6-2.95,6.35-9.08,8.14,3.41-3.7,3.41-12.8,5.59-20.81.34-1.27.86-2.41,1.5-3.41,1.85,2.44,2.36,4.66,2.57,4.31.06-.09.11-.19.18-.29.18,1.7.28,3.5.23,5.35Z"/>
  <path class="cls-1" d="m127.11,44.41h-.01c-1.03.97-2.24,3.45-3.82,4.85-2.96,2.65-8.69,5-11.07,5.37-2.37.38-.68-4.37-.68-4.37l-3.16-2.13c-.73-.49-.93-1.49-.44-2.2l.38-.55c.38-.57.35-1.3-.05-1.84l-2.53-3.38c-.49-.66-.4-1.56.19-2.12l1.61-1.5c.5-.48.64-1.23.34-1.86l-.98-1.98c-.47-.93.09-2.05,1.11-2.25l.16-.04c.93-.19,1.49-1.15,1.2-2.04l-.89-2.8,3.12-.28-.5-2.08c-.29-1.22.87-2.29,2.05-1.88,2.54.89,6.25,2.48,8.31,4.76,1.69,1.86,3.43,5.34,4.66,7.29.1.15.23-.2.5-.86-.24,1.86-.35,3.85-.3,5.91.05,1.88.34,3.89.81,5.97Z"/>
  <path class="cls-1" d="m176.62,39.6c-.29.3-.38.74-.21,1.13l1.13,2.73c.21.54-.04,1.16-.58,1.37l-1.2.49c-.49.21-.76.77-.6,1.28l.47,1.6c.15.53-.11,1.08-.6,1.28l-2.14.88c-.38.15-.63.52-.66.93l-.13,3.29c-.04.72-.73,1.2-1.4.97-2.37-.82-7.24-2.76-9.41-5.48-1.45-1.81-2.87-4.42-3.68-5.45-.05-.08-.15.13-.34.52.58-2.33.93-4.61.98-6.71.05-1.85-.05-3.65-.23-5.35,1.06-1.81,2.22-4.59,2.95-5.38,1.55-1.65,5.54-3.9,8.25-4.41,1.62-.3,4.16-.33,5.91-.29.86.02,1.32.99.83,1.68l-2.58,3.59,2.49.54c.58.11.94.69.81,1.27l-.57,2.39c-.09.38.03.77.3,1.02l2.39,2.23c.43.4.45,1.07.05,1.5l-2.24,2.37Z"/>
  <path class="cls-3" d="m120.53,73.46c-2.91,1.01-5.83,2.85-7.71,6.07-4.2,7.19-6.59,16.02-10.89,18.67-2.05-1.78-3.11-3.71-3.67-5.34,2.7-3.94,4.83-10.28,8-15.71,1.59-2.73,3.93-4.46,6.36-5.52,1.51.06,3.17.32,5.02.82,1.06.29,2.01.62,2.88,1.01Z"/>
  <path class="cls-2" d="m112.62,71.62c-2.43,1.07-4.77,2.79-6.36,5.52-3.18,5.43-5.31,11.77-8,15.71-.77-2.23-.61-3.88-.8-3.86.09-2.13.34-4.15.78-5.97.49-2,1.12-3.89,1.83-5.62,1.38-1.79,4.96-6.15,12.55-5.78Z"/>
  <path class="cls-3" d="m128.67,81.54c-.88.81-1.68,1.77-2.34,2.9-4.19,7.17-6.57,15.95-10.83,18.63h-.02c-1.69.04-3.61-.21-5.75-.84-.84-.25-1.63-.52-2.36-.82.27-.1.54-.22.82-.34,4.73-2.09,7.14-11.46,11.56-19.02,1.46-2.51,3.55-4.17,5.78-5.26,1.55,1.54,2.52,3.23,3.13,4.75Z"/>
  <path class="cls-2" d="m125.54,76.79c-2.23,1.09-4.32,2.75-5.78,5.26-4.42,7.56-6.83,16.93-11.56,19.02-.28.12-.55.24-.82.34-2.35-.92-4.11-2.04-5.45-3.22,4.3-2.65,6.69-11.48,10.89-18.67,1.88-3.22,4.8-5.06,7.71-6.07,2.14.92,3.77,2.08,5.01,3.34Z"/>
  <path class="cls-2" d="m129.09,91.36c-.6,2.02-1.53,4.13-2.7,6.22h0c-1.16,1.34-4.5,5.36-10.89,5.49,4.26-2.68,6.63-11.46,10.83-18.63.66-1.14,1.45-2.1,2.34-2.9,1.15,2.84,1.06,5.11,1.36,4.83.08-.07.16-.15.25-.23-.27,1.69-.65,3.45-1.18,5.23Z"/>
  <path class="cls-3" d="m97.46,89h-.01c-1.25.66-3.06,2.74-4.95,3.68-3.55,1.78-9.7,2.56-12.09,2.29-2.38-.25.48-4.4.48-4.4l-2.5-2.88c-.58-.66-.51-1.68.15-2.24l.51-.44c.51-.45.68-1.16.43-1.79l-1.56-3.92c-.3-.76.02-1.61.73-1.99l1.95-1.03c.61-.33.94-1.02.81-1.71l-.43-2.17c-.21-1.02.62-1.96,1.66-1.89h.17c.95.07,1.73-.71,1.69-1.65l-.13-2.93,3.09.55.06-2.14c.04-1.26,1.44-1.99,2.47-1.28,2.22,1.53,5.38,4.03,6.78,6.77,1.14,2.24,1.91,6.05,2.6,8.26.06.17.27-.14.71-.7-.72,1.74-1.35,3.63-1.83,5.62-.44,1.83-.69,3.85-.78,5.97Z"/>
  <path class="cls-3" d="m146.52,97.27c-.36.22-.56.62-.5,1.04l.38,2.93c.07.58-.34,1.11-.92,1.17l-1.28.16c-.53.08-.93.54-.92,1.08l.03,1.67c0,.55-.39,1.02-.92,1.08l-2.3.29c-.4.05-.74.33-.88.73l-.98,3.14c-.22.68-1.02.96-1.6.57-2.07-1.41-6.27-4.55-7.65-7.74-.93-2.13-1.62-5.02-2.13-6.22-.03-.09-.18.08-.46.41,1.17-2.1,2.1-4.21,2.7-6.22.53-1.77.9-3.54,1.18-5.23,1.49-1.48,3.34-3.85,4.25-4.42,1.93-1.19,6.37-2.32,9.11-2.1,1.65.13,4.1.77,5.78,1.26.82.25,1.02,1.31.37,1.83l-3.43,2.79,2.27,1.17c.53.26.73.92.45,1.44l-1.17,2.16c-.18.34-.18.75.03,1.06l1.73,2.78c.31.5.16,1.15-.34,1.46l-2.78,1.7Z"/>
  <rect class="cls-6" x="-93.32" y="-848.4" width="3385.57" height="2571.67"/>
</svg>