<?xml version="1.0" encoding="UTF-8"?>
<svg id="Calque_1" data-name="Calque 1" xmlns="http://www.w3.org/2000/svg" viewBox="0 0 128 128">
  <defs>
    <style>
      .cls-1, .cls-2, .cls-3, .cls-4 {
        fill: none;
      }

      .cls-2, .cls-3, .cls-5 {
        stroke: #000;
      }

      .cls-2, .cls-3, .cls-4 {
        stroke-linecap: round;
        stroke-linejoin: round;
      }

      .cls-6 {
        fill: #87f3b9;
      }

      .cls-3 {
        stroke-width: 2px;
      }

      .cls-5 {
        stroke-miterlimit: 10;
        stroke-width: .25px;
      }

      .cls-4 {
        stroke: #fff;
        stroke-width: 8px;
      }
    </style>
  </defs>
  <ellipse class="cls-6" cx="66.05" cy="100.08" rx="11.26" ry="8.66"/>
  <path class="cls-1" d="m32.03,59.64s-14.95-35.41,15.52-43.89c0,0,1.7-6.42,9.12-4.35,0,0,7.39-9.21,19.48-.23,0,0,6.81-2.2,9.12,4.35,0,0,27.97,4.66,15.52,43.89,0,0,.28-10.12-9.43-25.97,0,0-3.96-.06-6.17-2.75,0,0-6.76,1.66-9.88-3.77,0,0-5.1,4.33-10.74.46,0,0-4.21,4.58-10.99,1.45,0,0-2.2,2.43-8.4,2.18,0,0-.71,1.31-5.75,2.87,0,0-7.38,11.3-7.4,25.76Z"/>
  <path class="cls-2" d="m37.68,59.6s15.61-8.72,23.44,10.19"/>
  <path class="cls-2" d="m42.44,63.6s5.7-4.65,12.45,1.06"/>
  <path class="cls-2" d="m54.4,70.85s-1.62-.18-4.69.11c-5.52.52-8.2-2.47-8.2-2.47l.09-.99s7.25-6.39,14.81,2.59"/>
  <path class="cls-2" d="m60.34,81.04s-4.79,4.87,0,8.45"/>
  <path class="cls-2" d="m60.67,86.94s1.99,1.73,3.55,2.37"/>
  <path class="cls-3" d="m47.48,18.74s4.6,12.37,12.01,12.11c7.41-.26,8.37-13.53,8.37-13.53"/>
  <path class="cls-3" d="m36.12,28.56s9.11,6.58,18.78.8"/>
  <path class="cls-3" d="m33.36,35.14s9.38.08,13.28-3.4"/>
  <path class="cls-3" d="m31.79,60.4s-7.46-4.25-7.78,2.83c-.32,7.08,2.66,6.5,4.68,13.5,2.01,7,6.39,8.05,6.39,8.05"/>
  <path class="cls-2" d="m64.68,17.76s-1.14,4.88-3.36,8.31"/>
  <circle class="cls-2" cx="48.39" cy="68.38" r="2.5"/>
  <circle class="cls-5" cx="49.16" cy="68.35" r="1.23"/>
  <path class="cls-2" d="m94.66,59.37s-15.61-8.72-23.44,10.19"/>
  <path class="cls-2" d="m89.9,63.36s-5.7-4.65-12.45,1.06"/>
  <path class="cls-2" d="m72,80.82s4.79,4.87,0,8.45"/>
  <path class="cls-3" d="m96.22,28.34s-15.31,7.52-21.15-.66"/>
  <path class="cls-3" d="m98.98,34.91s-9.49.33-13.4-3.15"/>
  <path class="cls-3" d="m91.99,35.48s9.22,15.96,8.56,24.69c0,0,13.41-34.62-15.52-43.89,0,0-1.57-5.85-9.12-4.35-9.95-8.68-19.48.23-19.48.23-7.55-1.5-9.12,4.35-9.12,4.35-28.93,9.27-15.52,43.89-15.52,43.89-.66-8.74,8.56-26.39,8.56-26.39"/>
  <path class="cls-3" d="m100.65,58.51s-.72,35.15-13.88,48.76c-13.16,13.61-20.46,12.08-20.46,12.08l.23.03s-7.82,1.72-20.98-11.88c-13.16-13.61-13.88-48.76-13.88-48.76"/>
  <path class="cls-3" d="m100.55,60.17s7.46-4.25,7.78,2.83c.32,7.08-2.66,6.5-4.68,13.5-2.01,7-6.39,8.05-6.39,8.05"/>
  <path class="cls-3" d="m64.8,27.47s6.41,8.12,15.06-5.47"/>
  <path class="cls-2" d="m55.22,96h21.01s-10.5,8.76-21.01,0Z"/>
  <path class="cls-2" d="m57.63,101.03s7.96,4.73,16.5-.15"/>
  <path class="cls-2" d="m77.89,70.57s1.62-.18,4.69.11c5.52.52,8.2-2.47,8.2-2.47l-.09-.99s-7.25-6.39-14.81,2.59"/>
  <circle class="cls-2" cx="83.91" cy="68.1" r="2.5"/>
  <path class="cls-2" d="m71.67,86.94s-1.99,1.73-3.55,2.37"/>
  <circle class="cls-5" cx="84.91" cy="68.1" r="1.23"/>
  <rect class="cls-4" x="-1569.72" y="-963.94" width="6467.34" height="6437.3"/>
</svg>