<?xml version="1.0" encoding="UTF-8"?>
<svg id="Calque_1" data-name="Calque 1" xmlns="http://www.w3.org/2000/svg" viewBox="0 0 128 128">
  <defs>
    <style>
      .cls-1 {
        fill: #fab0b4;
      }

      .cls-2 {
        fill: #ff6d75;
      }

      .cls-3 {
        fill: #fff;
        stroke: #000;
        stroke-linecap: round;
        stroke-linejoin: round;
        stroke-width: 2px;
      }
    </style>
  </defs>
  <path class="cls-3" d="m16.49,103.83c.65.83,1.32,1.64,2.01,2.4,2.24,2.48,4.79,4.74,7.86,6.14,2.58,1.17,5.34,1.73,8.13,2.12,8.97-10.03,36.76-41.23,45.88-51.48,2.64.08,5.35-.37,7.88-1.41,12.04-4.91,11.16-4.97,15.13-7.19,3.25-1.82,6.96-3.25,8.43-4.55,3.95-3.5.87-5.31-1.67-5.31-4.01,0-14.57,4.54-12.29,1,.81-1.26,4.87-7.1,5.86-8.46,2.87-3.91,5.21-7.69,7.74-11.84.74-1.22,2.18-4.19,1.98-5.72-.47-3.55-3.97-3.12-6.23.24-3.24,4.83-9.87,14.88-13.92,18.88,1.12-1.96,7.34-13.23,8.39-15.2,1.1-2.03,6.16-10.46,2.6-12.24-2.3-1.16-4.57,1.17-8.82,9.28-2.63,5.02-6.33,10.87-8.98,13.96,2.1-6.18,4.52-11.39,5.74-14.42,5.5-13.68-2.81-11.18-4.67-6.01-3.02,8.42-4.01,10.73-7.73,17.71,1.19-7.34,4.09-17.32,2.92-20.4-1.02-2.7-4.23-4.13-7.05,8.11-.72,3.11-2.21,9.72-3.6,13.31-1.15,2.96-6.95,10.85-7.26,14-.07.72-.09,1.41-.07,2.09-10.96,9.5-38.12,33.03-51.82,44.05.13,2.16.4,4.3,1.18,6.33.62,1.61,1.54,3.11,2.38,4.61Z"/>
  <g>
    <circle class="cls-2" cx="60.51" cy="64.03" r="2.29"/>
    <path class="cls-1" d="m60.51,62.73c.71,0,1.29.58,1.29,1.29s-.58,1.29-1.29,1.29-1.29-.58-1.29-1.29.58-1.29,1.29-1.29m0-2c-1.82,0-3.29,1.48-3.29,3.29s1.48,3.29,3.29,3.29,3.29-1.48,3.29-3.29-1.48-3.29-3.29-3.29h0Z"/>
  </g>
  <g>
    <circle class="cls-2" cx="88" cy="46.58" r="2.29"/>
    <path class="cls-1" d="m88,45.28c.71,0,1.29.58,1.29,1.29s-.58,1.29-1.29,1.29-1.29-.58-1.29-1.29.58-1.29,1.29-1.29m0-2c-1.82,0-3.29,1.48-3.29,3.29s1.48,3.29,3.29,3.29,3.29-1.48,3.29-3.29-1.48-3.29-3.29-3.29h0Z"/>
  </g>
  <g>
    <circle class="cls-2" cx="35.58" cy="100.67" r="2.29"/>
    <path class="cls-1" d="m35.58,99.38c.71,0,1.29.58,1.29,1.29s-.58,1.29-1.29,1.29-1.29-.58-1.29-1.29.58-1.29,1.29-1.29m0-2c-1.82,0-3.29,1.48-3.29,3.29s1.48,3.29,3.29,3.29,3.29-1.48,3.29-3.29-1.48-3.29-3.29-3.29h0Z"/>
  </g>
  <g>
    <circle class="cls-2" cx="35.58" cy="83.68" r="2.29"/>
    <path class="cls-1" d="m35.58,82.39c.71,0,1.29.58,1.29,1.29s-.58,1.29-1.29,1.29-1.29-.58-1.29-1.29.58-1.29,1.29-1.29m0-2c-1.82,0-3.29,1.48-3.29,3.29s1.48,3.29,3.29,3.29,3.29-1.48,3.29-3.29-1.48-3.29-3.29-3.29h0Z"/>
  </g>
  <g>
    <circle class="cls-2" cx="53.9" cy="78.37" r="2.29"/>
    <path class="cls-1" d="m53.9,77.08c.71,0,1.29.58,1.29,1.29s-.58,1.29-1.29,1.29-1.29-.58-1.29-1.29.58-1.29,1.29-1.29m0-2c-1.82,0-3.29,1.48-3.29,3.29s1.48,3.29,3.29,3.29,3.29-1.48,3.29-3.29-1.48-3.29-3.29-3.29h0Z"/>
  </g>
  <g>
    <circle class="cls-2" cx="75.23" cy="46.58" r="2.29"/>
    <path class="cls-1" d="m75.23,45.28c.71,0,1.29.58,1.29,1.29s-.58,1.29-1.29,1.29-1.29-.58-1.29-1.29.58-1.29,1.29-1.29m0-2c-1.82,0-3.29,1.48-3.29,3.29s1.48,3.29,3.29,3.29,3.29-1.48,3.29-3.29-1.48-3.29-3.29-3.29h0Z"/>
  </g>
</svg>