<?xml version="1.0" encoding="UTF-8"?>
<svg id="Calque_1" data-name="Calque 1" xmlns="http://www.w3.org/2000/svg" viewBox="0 0 128 128">
  <defs>
    <style>
      .cls-1 {
        fill: #d6d6d6;
      }

      .cls-1, .cls-2, .cls-3, .cls-4 {
        stroke: #000;
        stroke-width: 2px;
      }

      .cls-1, .cls-3, .cls-4, .cls-5 {
        stroke-linecap: round;
        stroke-linejoin: round;
      }

      .cls-2 {
        stroke-miterlimit: 10;
      }

      .cls-2, .cls-4 {
        fill: #fff;
      }

      .cls-3 {
        fill: #ff6d75;
      }

      .cls-5 {
        fill: none;
        stroke: #fff;
        stroke-width: 8px;
      }
    </style>
  </defs>
  <g>
    <path class="cls-4" d="m116.28,48.45c0,.11.02.23.02.35.02.16.02.32,0,.47,0,.14,0,.28,0,.4,0,.16-.03.3-.04.45-.03.15-.05.3-.07.44-.03.14-.05.27-.07.4-.05.16-.09.31-.13.46-.05.12-.07.22-.11.34-.07.17-.14.34-.21.49-.03.07-.07.16-.1.23-.13.24-.26.46-.41.65-.14.18-3.93,1.87-7.86,3.25,1.99.82,2.81,2.46,2.76,2.97-.08.73-2.86,1.09-4,1.75-1.15.67-3.51,2.73-4.08,3.1-.59.36-20.03.11-20.77,0-.67-.12-13.03-11.11-14.95-12.84-.16-.08-.26-.12-.26-.12l-55.35,2.22V17.53l55.35,1.5s23.8-4.33,28.54-4.33c3.11,0,12.53,1.11,13.29,1.62,2.23,1.53,1.75,5.47,1.3,6.51-.46,1.05-1.12,1.29-1.12,1.29,0,0,3.1.94,3.94,1.54,1.92,1.36,1.97,6.33,1.36,7.23-.64.93-1.74,1.18-1.74,1.18,0,0,3.13.78,3.69,1.69,1.16,1.84,1.73,6.37.11,7.46-.61.4-1.92.98-1.92.98,0,0,2.03,1.53,2.37,2.23.18.36.29.79.37,1.24.03.09.06.18.07.29.03.16.05.32.06.49Z"/>
    <path class="cls-1" d="m65.08,45.54c-.35.32-1.06,1.02-1.62,2.09-.68,1.28-.88,3.33-.95,4.53-.03.54-.47.97-1.02.97h-8.14c-.55,0-1-.43-1.02-.97-.07-1.2-.27-3.25-.95-4.53-.36-.69-.78-1.22-1.13-1.6-.2-.21-.38-.39-.51-.5.31.11.63.17.97.17h13.43c.34,0,.65-.06.95-.16Z"/>
    <path class="cls-1" d="m65.3,24.18c-.35-.16-.75-.24-1.16-.24h-13.43c-.41,0-.79.08-1.15.23.08-.08.35-.31.69-.67.34-.38.76-.91,1.13-1.6.68-1.28.88-3.33.95-4.52.03-.55.47-.97,1.02-.97h8.14c.55,0,1,.42,1.02.97.07,1.19.27,3.24.95,4.52.74,1.4,1.71,2.18,1.83,2.28Z"/>
    <path class="cls-1" d="m67.08,26.88v15.87c0,1.28-.84,2.39-1.99,2.78-.3.1-.61.16-.95.16h-13.43c-.34,0-.66-.06-.97-.17-1.15-.4-1.97-1.49-1.97-2.77v-15.87c0-1.21.74-2.25,1.78-2.7,0,0,.02,0,.02,0h15.73c1.04.46,1.78,1.5,1.78,2.71Z"/>
    <circle class="cls-3" cx="57.43" cy="34.94" r="6.49"/>
    <path class="cls-4" d="m119.11,120.88h-35.41l-2.86-7.58c-2.54-3.03-9.32-14.14-9.69-15.22-.31-.96-.67-1.93-1.05-2.9-.38-.96-.78-1.94-1.2-2.9-.83-1.91-1.7-3.77-2.54-5.44-1.67-3.34-3.17-5.92-3.77-6.71h-.01c-.24-.31-.51-.6-.8-.88-.02,0-.03-.03-.05-.05-.3-.28-.61-.55-.94-.81-2.25-1.79-4.93-3.03-4.55-4.5.48-1.86,6.91-4.41,11.55-.51.68.57,1.38,1.28,2.08,2.07h0s.01.01.03.02h0s.05.08.09.12c2.57,2.97,5.07,7.02,6.53,9.53.02.04.04.06.06.1.04.08.09.16.14.24.68,1.19,1.09,1.96,1.09,1.96,0,0-.84-6.16-1.82-9.67-1.5-5.4-5.33-18.54-6.38-21.87-1.34-4.21-5.09-14.73-5.49-16.85-.4-2.12-1.78-5.9,1.64-7.28,3.19-1.28,5.07,1.89,6.48,5.27,1.42,3.39,5.66,14.08,7.24,18.3,1.53,4.09,4.96,11.2,6.08,12.75.76,1.04,2,1.61,2.73,1.88.32.11.65-.1.69-.43.14-1.35.48-4.57.63-6.28.11-1,.43-5.07,4.52-5.26,2.95-.14,4.35,2.63,4.83,3.91.11.3.47.42.75.26.51-.29,1.35-.62,2.37-.54,1.84.15,2.96,1.21,3.64,3.31.04.1.07.22.1.36.15.53.33,1.28.45,1.84.08.34.45.5.76.34.38-.19.93-.37,1.6-.35.19,0,.4.03.6.07,1.7.35,2.52,2.68,2.96,3.97.23.65,1.08,3.31,1.94,6.23.1.37.21.74.32,1.11.21.75.41,1.49.61,2.22.48,1.79.88,3.45,1.01,4.52.24,1.72.12,6.92,0,12-.01.64-.02,1.28-.04,1.9-.01.31-.01.63-.02.93-.01.62-.02,1.22-.03,1.8-.01.59-.02,1.15-.02,1.69-.02,2.42.01,4.32.17,5.05.13.58.6,2.32,1.25,4.7l1.73,7.58Z"/>
    <path class="cls-2" d="m61.93,79.28c.3-.06,1.27-1.48,1.18-1.75-.09-.27-3.54-3.48-4.95-3.64s-2.49.28-2.53.63c-.03.34,5.99,4.82,6.29,4.76Z"/>
    <path class="cls-2" d="m69.81,32.4c-.75-.74-1.94-1.28-3.47-.65-1.77.73-2.21,1.96-2.02,3.15.19,1.19,1.53,5.23,2.68,5.69h0s0,0,0,0c.05.02.12.03.19.04.02,0,.05,0,.08,0,.05,0,.1,0,.17,0,.03,0,.07,0,.11-.01.06,0,.12-.01.18-.02.04,0,.09-.02.13-.03.06-.01.13-.03.19-.04.05-.01.11-.03.17-.05.06-.02.12-.03.18-.05.07-.02.14-.04.21-.07.05-.02.11-.03.16-.05.08-.03.16-.06.25-.09.04-.02.09-.03.13-.05.1-.04.19-.08.29-.12.03-.01.06-.02.08-.04.11-.05.22-.1.32-.15.02,0,.03-.01.05-.02.12-.06.24-.12.35-.17,0,0,0,0,0,0,.71-.37,1.29-.78,1.45-1.08,0,0,0,0,0,0h0s.03-.05.04-.07c.26-.8-1.17-5.37-1.93-6.11Z"/>
    <path class="cls-3" d="m38.71,42.2c-.82.68-1.66,1.36-2.49,2.04-5.61-6.44-4.37-16.21,2.08-21.1.68.83,1.37,1.67,2.04,2.49-5.28,5.07-5.8,10.58-1.63,16.57Z"/>
    <path class="cls-3" d="m43.94,37.89c-.9.73-1.73,1.42-2.56,2.1-3.42-3.87-3.03-8.48,1.16-11.67.68.83,1.37,1.67,2.1,2.56-2.68,2.06-2.94,4.42-.69,7.01Z"/>
  </g>
  <rect class="cls-5" x="-391.96" y="-359.81" width="1447.07" height="727.52"/>
</svg>