<?xml version="1.0" encoding="UTF-8"?>
<svg id="Calque_1" data-name="Calque 1" xmlns="http://www.w3.org/2000/svg" viewBox="0 0 128 128">
  <defs>
    <style>
      .cls-1, .cls-2, .cls-3 {
        stroke: #000;
      }

      .cls-1, .cls-2, .cls-3, .cls-4 {
        stroke-linecap: round;
        stroke-linejoin: round;
      }

      .cls-1, .cls-4 {
        fill: none;
      }

      .cls-2 {
        fill: #76ac75;
      }

      .cls-2, .cls-3 {
        stroke-width: 2px;
      }

      .cls-3 {
        fill: #9fc69e;
      }

      .cls-4 {
        stroke: #fff;
        stroke-width: 8px;
      }
    </style>
  </defs>
  <path class="cls-3" d="m37.64,45.5l-2.5,22.76-7.78,12.87-2.69-1.92s-6.15,2.4-8.26,4.8c-2.11,2.4-3.65,4.32-5.09,5.48-1.44,1.15-3.17,2.21-3.17,2.21,0,0,4.42,8.45,6.72,10.28,2.31,1.83,4.03,2.69,5.57,4.61,1.54,1.92,2.98,4.51,4.03,5.28,1.06.77,10.46-2.5,13.63-4.42,3.18-1.92,3.27-2.02,5.87-2.4,2.59-.38,18.44-.86,22.38-.58s18.63,3.27,18.63,3.27l-3.94-11.33s-12.1-1.44-14.41-1.73c-2.31-.29-6.72-1.73-6.72-1.73l19.6-3.17-.1-8.07-8.07-3.36-13.38,3.36,8.29-7.4-6.53-8.36s-7.49,4.94-9.51,5.64c-2.02.7-3.27.99-5.38,2.62-2.11,1.63-3.75,4.52-3.75,4.52,0,0,2.79-5.44,4.23-7.14,1.44-1.7,2.69-2.66,3.27-3.43.58-.77,4.61-14.12,6.53-15.75,1.92-1.63-3.17-4.32-3.17-4.32,0,0-6.24,6.34-7.68,8.36s-.9-.37-.77-3.17c.13-2.8,2.5-6.15,2.5-6.15l-8.36-1.63Z"/>
  <g>
    <path class="cls-2" d="m57.95,48.96c-.12-.5-.05-1.05.22-1.55.4-.74,1.14-1.17,1.88-1.17-.02-.42.06-.84.27-1.23.57-1.05,1.81-1.47,2.78-.95.6.32.95.92,1,1.58.58-.32,1.27-.36,1.86-.04.64.35,1.01,1.02,1.01,1.74.63-.75,1.67-.99,2.51-.54.54.29.88.82.97,1.41.02-.06.04-.1.07-.15.57-1.05,1.81-1.47,2.78-.94.44.24.75.63.9,1.09.03-.28.12-.56.26-.83.39-.72,1.1-1.15,1.81-1.16.64-.7,1.64-.93,2.46-.49s1.14,1.31.96,2.19c.61-.39,1.37-.47,2.03-.12.97.53,1.3,1.8.74,2.84-.05.09-.1.16-.15.23.34-.02.68.05.99.22.9.49,1.25,1.64.83,2.63.26.02.52.09.76.22.97.53,1.3,1.8.74,2.85-.1.18-.22.35-.36.49.21.03.44.09.65.2.97.52,1.3,1.8.73,2.84-.1.19-.23.36-.36.5.13.04.27.09.4.16.97.53,1.3,1.8.74,2.85-.31.57-.82.96-1.38,1.1.7.61.88,1.7.39,2.62-.35.64-.94,1.05-1.57,1.14.94.54,1.25,1.79.69,2.83-.42.77-1.2,1.21-1.98,1.17.47.62.53,1.52.11,2.3-.57,1.05-1.8,1.47-2.77.94-.05-.03-.1-.06-.15-.09.38.62.42,1.46.02,2.19-.54,1-1.69,1.43-2.64,1.01.33.59.34,1.38-.03,2.07-.57,1.05-1.81,1.47-2.78.94-.3-.16-.54-.39-.7-.66v.02c-.58,1.05-1.81,1.47-2.78.94-.53-.29-.87-.78-.97-1.35-.63.67-1.62.88-2.42.45s-1.13-1.28-.98-2.13c-.61.41-1.38.49-2.04.13-.46-.25-.77-.66-.92-1.15-.24-.42-.33-.94-.22-1.45-.56.27-1.21.29-1.78-.02-.94-.51-1.28-1.72-.78-2.74-.62.44-1.42.52-2.09.16-.97-.52-1.3-1.8-.73-2.85.12-.23.28-.43.46-.59-.54.23-1.15.22-1.68-.07-.97-.53-1.3-1.8-.74-2.84.22-.4.52-.7.88-.89-.38.05-.78,0-1.15-.21-.97-.53-1.3-1.79-.73-2.84.09-.17.19-.31.31-.45-.36.03-.72-.03-1.05-.21-.97-.53-1.3-1.8-.74-2.84.12-.23.28-.42.45-.59-.91-.56-1.2-1.79-.65-2.8.24-.45.62-.8,1.05-.99-.52-.63-.62-1.58-.18-2.4.3-.56.78-.93,1.32-1.08-.62-.62-.76-1.64-.3-2.5.38-.71,1.08-1.13,1.78-1.17Z"/>
    <path class="cls-2" d="m113.09,86.08c-.3.1-.61.15-.91.14.68.26,1.23.8,1.47,1.53.4,1.16-.15,2.44-1.22,3.03.63.41,1.01,1.15.91,1.91-.11.87-.77,1.54-1.6,1.72.58.43.92,1.12.83,1.87-.06.52-.33.97-.72,1.29-.3.38-.74.66-1.25.74.44.43.69,1.03.6,1.68-.13,1.08-1.12,1.84-2.23,1.76.61.42.98,1.14.88,1.9-.14,1.11-1.19,1.89-2.34,1.75-.25-.03-.49-.11-.7-.23.39.43.6,1,.53,1.61-.14,1.11-1.19,1.89-2.33,1.75-.44-.05-.83-.24-1.13-.49.18.33.27.74.21,1.16-.14,1.12-1.17,1.89-2.33,1.75-.18-.03-.35-.06-.52-.14.15.33.23.7.17,1.08-.14,1.11-1.18,1.89-2.33,1.75-.25-.03-.48-.11-.69-.2-.19,1.05-1.22,1.78-2.33,1.65-.49-.06-.95-.28-1.27-.62-.4.73-1.23,1.17-2.13,1.06-.6-.08-1.12-.4-1.44-.85-.34.82-1.24,1.33-2.18,1.21-.78-.1-1.41-.59-1.69-1.25-.42.29-.94.43-1.49.37-.81-.1-1.46-.65-1.72-1.33-.38.17-.8.26-1.23.2-1.15-.15-1.98-1.17-1.84-2.27.09-.68.52-1.24,1.1-1.53-.49-.43-.77-1.06-.69-1.74.1-.73.58-1.32,1.24-1.6-.9-.31-1.48-1.2-1.37-2.16.08-.61.44-1.13.95-1.44-.06.01-.11,0-.16-.01-1.16-.14-1.98-1.16-1.84-2.27.06-.51.31-.95.68-1.26-.26.09-.55.11-.85.06-.8-.1-1.43-.6-1.69-1.27-.86-.34-1.43-1.2-1.31-2.14.1-.76.61-1.37,1.31-1.61-.73.06-1.44-.18-1.96-.66-1.16.09-2.26-.58-2.63-1.69-.35-1.05.04-2.19.94-2.84-.87-.17-1.63-.77-1.94-1.67-.45-1.33.31-2.78,1.68-3.25.12-.04.23-.06.33-.09-.32-.28-.58-.63-.72-1.06-.42-1.24.23-2.59,1.42-3.14-.21-.25-.4-.54-.51-.87-.45-1.33.31-2.78,1.69-3.26.24-.08.49-.13.73-.13-.17-.22-.32-.47-.42-.75-.44-1.32.31-2.77,1.69-3.24.25-.09.49-.14.74-.14-.1-.16-.17-.32-.24-.51-.45-1.32.31-2.78,1.69-3.25.63-.21,1.3-.18,1.87.05-.44-.48-.69-1.15-.66-1.84-.68.58-1.61.81-2.5.48-1.31-.47-1.99-1.97-1.49-3.33.04-.12.09-.21.13-.31-.42.09-.85.05-1.28-.1-1.23-.44-1.88-1.78-1.57-3.06-.33.02-.67-.03-1-.15-1.32-.47-1.99-1.97-1.49-3.34.09-.24.2-.46.34-.66-.27.01-.56-.03-.85-.14-.32-.12-.6-.29-.84-.52-.12.21-.28.41-.48.58-.91.77-2.23.71-2.94-.13-.43-.52-.54-1.2-.34-1.84-.66.09-1.32-.13-1.75-.64-.47-.56-.56-1.31-.3-1.99-.86.46-1.91.31-2.53-.41-.4-.47-.52-1.09-.39-1.68-.04.05-.09.09-.13.12-.91.77-2.21.7-2.94-.14-.32-.39-.46-.86-.43-1.34-.13.25-.32.48-.55.68-.6.49-1.35.66-2.01.45-.41.3-.92.46-1.48.42-.65-.04-1.2-.34-1.57-.81-.27.89-1.18,1.51-2.23,1.43-.73-.04-1.34-.42-1.69-.96-.11,1.09-1.12,1.87-2.29,1.8-.88-.06-1.6-.6-1.89-1.32-.37.68-1.16,1.11-2.04,1.04-1.19-.09-2.09-1.03-2.01-2.14.01-.05.01-.12.02-.17-.41.6-1.15.99-1.98.92-1.13-.08-2-.95-2.01-1.99-.4.55-1.12.88-1.89.83-1.19-.08-2.09-1.04-2-2.14.02-.34.13-.66.3-.91h-.01c-1.19-.09-2.09-1.04-2.01-2.14.04-.6.35-1.12.83-1.45-.86-.29-1.47-1.11-1.41-2.01.06-.86.7-1.56,1.54-1.77-.62-.39-1.01-1.05-.96-1.8.03-.52.28-.98.66-1.31.29-.4.72-.69,1.24-.8-.47-.4-.76-.99-.72-1.62.08-1.06,1.04-1.87,2.18-1.85-.66-.39-1.06-1.09-1.01-1.84.08-1.1,1.1-1.92,2.29-1.84.26.02.51.09.73.18-.43-.4-.68-.96-.63-1.56.08-1.11,1.1-1.94,2.28-1.85.45.03.86.19,1.18.43-.2-.32-.32-.72-.29-1.14.08-1.1,1.1-1.92,2.28-1.84.19.01.37.04.54.11-.17-.32-.27-.68-.24-1.04.08-1.11,1.1-1.94,2.28-1.85.26.01.49.08.72.16.13-1.05,1.13-1.83,2.28-1.74.52.03.99.24,1.34.55.35-.73,1.18-1.22,2.11-1.15.62.04,1.17.32,1.53.75.3-.82,1.18-1.38,2.15-1.3.81.05,1.48.51,1.81,1.14.4-.31.92-.47,1.49-.44.84.06,1.54.56,1.85,1.23.37-.19.78-.29,1.23-.26,1.19.09,2.1,1.04,2.02,2.14-.01.16-.04.31-.1.46.02.01.03.03.05.05.03.04.08.09.11.14-.13-.72.14-1.52.77-2.05.86-.73,2.1-.7,2.83.03-.1-.68.18-1.41.77-1.91.91-.77,2.23-.7,2.94.14.21.26.35.56.42.87h.01c.91-.79,2.21-.72,2.92.13.4.46.53,1.04.42,1.61.83-.39,1.83-.23,2.41.46.56.66.58,1.6.14,2.34.72-.16,1.46.05,1.94.61.34.4.48.9.44,1.41.03.23.02.46-.03.7.43-.09.88-.06,1.32.1.4.15.74.39,1.01.69t.01-.02c.48-1.38,1.95-2.1,3.27-1.62.72.26,1.24.81,1.48,1.48.66-.91,1.84-1.34,2.92-.96,1.02.37,1.67,1.37,1.66,2.43.69-.6,1.62-.83,2.52-.51.61.23,1.1.68,1.38,1.24.39.47.59,1.09.56,1.73.64-.42,1.46-.56,2.23-.28,1.28.46,1.94,1.88,1.54,3.2.68-.63,1.67-.87,2.57-.55,1.31.47,1.98,1.97,1.48,3.34-.1.3-.26.57-.45.8.62-.37,1.39-.46,2.11-.2,1.32.47,1.99,1.98,1.49,3.33-.18.53-.51.95-.91,1.24.47-.13.99-.12,1.48.06,1.32.47,1.99,1.96,1.49,3.32-.08.23-.17.42-.3.6.44-.1.9-.09,1.35.08,1.32.47,1.99,1.98,1.49,3.33-.1.3-.26.56-.44.8,1.25.52,1.86,1.97,1.38,3.3-.21.59-.6,1.08-1.11,1.38.77.68,1.1,1.82.71,2.88-.26.73-.78,1.27-1.43,1.54.9.64,1.29,1.87.88,3-.33.92-1.12,1.56-1.99,1.72.25.59.28,1.26.04,1.92.6.28,1.08.78,1.3,1.45.25.73.14,1.47-.24,2.09,1.12-.05,2.2.61,2.57,1.7.34,1.03-.04,2.15-.87,2.81.89.16,1.66.76,1.96,1.66.2.62.15,1.28-.12,1.85-.13.59-.48,1.14-1,1.52.73.24,1.33.8,1.59,1.56.44,1.29-.26,2.69-1.55,3.19.92.15,1.72.77,2.02,1.69.45,1.31-.3,2.77-1.69,3.24Z"/>
    <path class="cls-2" d="m76.03,38.55c.46.22.85.61,1.08,1.14.33.77.21,1.62-.25,2.2.34.24.62.57.8.98.47,1.1.03,2.34-.98,2.77-.62.27-1.31.17-1.86-.2-.11.65-.51,1.22-1.13,1.48-.67.29-1.43.15-2-.29.19.96-.26,1.92-1.13,2.3-.56.24-1.19.18-1.71-.11.03.05.05.1.07.15.47,1.1.03,2.33-.99,2.77-.46.2-.96.2-1.41.03.2.19.37.44.49.72.32.75.22,1.57-.21,2.14.15.93-.29,1.86-1.14,2.23s-1.74.08-2.31-.61c-.07.72-.49,1.37-1.17,1.66-1.02.44-2.22-.1-2.69-1.18-.04-.09-.07-.18-.09-.26-.2.28-.46.5-.79.64-.94.4-2.06-.04-2.58-.98-.18.19-.4.35-.65.46-1.02.44-2.22-.1-2.69-1.19-.08-.19-.14-.39-.16-.59-.15.15-.34.29-.56.38-1.01.43-2.21-.1-2.68-1.19-.09-.2-.14-.4-.17-.59-.11.08-.24.16-.38.21-1.02.44-2.22-.1-2.69-1.19-.26-.6-.24-1.24,0-1.77-.91.17-1.88-.36-2.29-1.32-.29-.67-.24-1.39.08-1.94-1.01.4-2.18-.14-2.64-1.22-.35-.81-.2-1.69.31-2.28-.78-.02-1.52-.53-1.87-1.34-.47-1.1-.03-2.32.98-2.76.05-.02.11-.05.16-.06-.72-.09-1.4-.58-1.73-1.34-.45-1.04-.07-2.21.85-2.7-.67-.11-1.3-.59-1.61-1.31-.47-1.1-.03-2.33.99-2.77.31-.13.64-.18.95-.14v-.02c-.48-1.1-.04-2.32.98-2.76.55-.24,1.15-.19,1.67.08-.13-.91.31-1.82,1.14-2.18.79-.34,1.7-.09,2.28.56.06-.74.48-1.39,1.16-1.68.48-.21,1-.19,1.47,0,.48.07.94.33,1.27.73.14-.61.53-1.13,1.12-1.38.98-.42,2.14.07,2.64,1.09.04-.76.48-1.44,1.17-1.74,1.01-.43,2.21.1,2.68,1.2.1.24.16.49.17.73.16-.56.54-1.04,1.09-1.27,1.02-.44,2.22.1,2.69,1.18.18.42.23.85.16,1.24.2-.33.49-.61.88-.78,1.02-.44,2.21.09,2.68,1.19.07.17.13.34.16.52.2-.3.47-.55.82-.69,1.02-.44,2.22.1,2.69,1.18.1.24.16.48.18.72,1-.36,2.14.17,2.6,1.23.2.47.24.98.12,1.44.82-.02,1.63.49,1.99,1.34.25.58.24,1.19.03,1.71.87-.11,1.76.42,2.15,1.32.32.74.22,1.55-.19,2.12Z"/>
    <path class="cls-2" d="m101.66,57.73c.4.42.63.98.63,1.6,0,.91-.53,1.71-1.29,2.1.26.39.41.84.41,1.32,0,1.3-1.05,2.35-2.34,2.35-.8,0-1.49-.4-1.91-1-.42.6-1.12,1-1.9,1-.86,0-1.61-.46-2.02-1.15-.24,1.04-1.17,1.82-2.29,1.82-.72,0-1.37-.33-1.8-.85.01.06.01.12.01.18,0,1.3-1.05,2.34-2.35,2.34-.59,0-1.13-.21-1.54-.58.13.28.19.6.19.94,0,.89-.49,1.67-1.23,2.05-.27,1-1.18,1.74-2.27,1.74s-1.91-.67-2.21-1.6c-.41.69-1.16,1.16-2.03,1.16-1.3,0-2.35-1.05-2.35-2.34,0-.11.01-.2.02-.3-.34.19-.73.3-1.15.3-1.2,0-2.2-.92-2.33-2.1-.28.12-.59.18-.91.18-1.3,0-2.35-1.05-2.35-2.35,0-.23.03-.45.1-.66-.24.09-.51.14-.78.14-1.29,0-2.34-1.05-2.34-2.34,0-.24.03-.46.1-.67-.16.03-.33.05-.51.05-1.3,0-2.35-1.05-2.35-2.35,0-.71.31-1.34.82-1.77-1.06-.23-1.86-1.17-1.86-2.31,0-.8.39-1.49.99-1.91-1.28-.03-2.29-1.08-2.29-2.35,0-.96.57-1.78,1.4-2.15-.83-.35-1.4-1.18-1.4-2.15,0-1.3,1.04-2.34,2.34-2.34.06,0,.14,0,.2.01-.74-.4-1.25-1.18-1.25-2.09,0-1.24.96-2.25,2.17-2.33-.68-.4-1.13-1.15-1.13-2,0-1.3,1.05-2.34,2.35-2.34.4,0,.77.1,1.1.27v-.02c0-1.3,1.04-2.34,2.34-2.34.71,0,1.33.3,1.76.8.28-.97,1.18-1.69,2.25-1.69s1.88.64,2.2,1.54c.41-.71,1.16-1.18,2.03-1.18.61,0,1.17.24,1.59.62.48.28.86.73,1.03,1.28.43-.55,1.1-.9,1.85-.9,1.26,0,2.28.99,2.34,2.23.4-.74,1.18-1.24,2.08-1.24,1.29,0,2.34,1.05,2.34,2.35,0,.28-.05.56-.15.81.43-.49,1.06-.81,1.77-.81,1.3,0,2.35,1.05,2.35,2.34,0,.49-.15.95-.41,1.31.37-.25.82-.4,1.31-.4,1.3,0,2.34,1.04,2.34,2.34,0,.2-.02.4-.08.59.35-.21.76-.34,1.2-.34,1.3,0,2.35,1.05,2.35,2.34,0,.28-.05.55-.14.8,1.25.06,2.24,1.1,2.24,2.35,0,.56-.19,1.09-.54,1.49.89.33,1.53,1.19,1.53,2.2,0,.69-.29,1.3-.76,1.72.99.27,1.71,1.18,1.71,2.25,0,.88-.48,1.65-1.19,2.04Z"/>
    <path class="cls-2" d="m100.48,100.25c-.08.53-.35,1.01-.8,1.37-.66.52-1.54.58-2.25.25-.14.41-.38.77-.73,1.05-.94.74-2.31.57-3.04-.37-.45-.58-.56-1.31-.36-1.96-.67.04-1.36-.25-1.8-.82-.49-.62-.58-1.43-.31-2.12-.89.42-1.98.18-2.62-.63-.41-.52-.53-1.18-.4-1.78-.04.04-.08.07-.13.11-.94.74-2.3.56-3.03-.38-.33-.43-.48-.94-.45-1.45-.13.25-.33.48-.57.67-.65.51-1.49.58-2.19.27-.88.37-1.93.13-2.55-.66s-.6-1.77-.09-2.52c-.73.09-1.5-.19-1.99-.82-.74-.94-.57-2.31.37-3.04.08-.06.15-.11.23-.15-.34-.14-.63-.36-.87-.67-.68-.87-.58-2.12.2-2.88-.24-.14-.47-.33-.65-.56-.74-.94-.57-2.31.38-3.04.16-.13.35-.23.53-.3-.2-.12-.39-.29-.55-.49-.73-.94-.56-2.3.38-3.03.17-.13.35-.24.54-.31-.11-.1-.23-.21-.33-.34-.74-.94-.57-2.31.38-3.04.52-.4,1.15-.53,1.75-.41-.44-.9-.2-2.01.63-2.66.58-.45,1.3-.56,1.95-.36-.7-.95-.52-2.27.41-3,.69-.54,1.62-.6,2.35-.2-.21-.8.07-1.68.77-2.23.94-.74,2.29-.57,3.03.38.04.05.08.1.11.15-.13-.76.15-1.58.81-2.09.9-.7,2.17-.58,2.92.26-.09-.72.2-1.47.81-1.95.94-.74,2.3-.56,3.03.38.23.29.37.62.43.95h.02c.94-.75,2.29-.58,3.03.36.4.52.54,1.14.42,1.73.86-.34,1.89-.1,2.5.68s.6,1.73.13,2.47c.75-.1,1.52.17,2.01.81.35.44.49.98.45,1.51.07.51-.04,1.04-.34,1.47.64,0,1.28.29,1.7.83.71.91.57,2.22-.29,2.96.76-.13,1.57.16,2.07.81.73.94.56,2.3-.38,3.03-.2.16-.44.28-.67.35.6.03,1.19.32,1.59.83.74.94.57,2.31-.37,3.04-.36.28-.77.43-1.18.45.39.13.75.37,1.03.73.74.94.57,2.29-.38,3.03-.15.12-.3.21-.47.28.36.14.68.36.93.68.74.94.57,2.31-.37,3.04-.2.16-.43.27-.66.35.66.94.47,2.24-.44,2.96-.41.32-.9.47-1.39.46.26.84,0,1.78-.74,2.36-.5.39-1.11.53-1.68.42.36.87.11,1.91-.66,2.51-.64.5-1.47.58-2.16.29Z"/>
  </g>
  <path class="cls-1" d="m33.93,88.38s8.46-3.49,11.6-4.96,5.87-3.05,6.85-4.67c.98-1.62,3.35-5.83,4.05-7.14s1.8-2.58,1.8-2.58"/>
  <path class="cls-1" d="m47.2,88.01s8.58-2.92,12.08-3.67,8-1.25,9-1.33"/>
  <path class="cls-1" d="m54.93,94.74s2.15-1.51,3.55-1.9c1.4-.39,4.4-.77,4.4-.77"/>
  <path class="cls-1" d="m57.01,97.6s4.33.14,6.45.51,5.99.83,5.99.83"/>
  <path class="cls-1" d="m29.28,108.11s4.08-2.79,5.25-3.91,2.29-2.13,3.41-2.85c1.9-1.23,5.92-2.41,5.92-2.41"/>
  <path class="cls-1" d="m16.26,93.41s3.8-1.29,5.7-1.9,5.31-1.9,5.31-1.9"/>
  <path class="cls-1" d="m29.71,85.9s-.35-1.66-.91-2.5c-.95-1.43-2.48-2.65-2.48-2.65"/>
  <path class="cls-1" d="m24.58,82.45s-4.27,1.3-5.33,1.34-2.67.47-3.92,1.46"/>
  <path class="cls-1" d="m12.12,93.25s2.45,1.97,3.21,3.12,1.36,2.24,1.75,3.09.71,1.33.71,1.33"/>
  <path class="cls-1" d="m41.86,62.01s.63-2.36,1.39-3.4,2.34-2.87,2.34-2.87"/>
  <rect class="cls-4" x="-238.46" y="-2285.27" width="3385.57" height="2571.67"/>
</svg>