<?xml version="1.0" encoding="UTF-8"?>
<svg id="Calque_1" data-name="Calque 1" xmlns="http://www.w3.org/2000/svg" viewBox="0 0 128 128">
  <defs>
    <style>
      .cls-1 {
        fill: #d6d6d6;
      }

      .cls-1, .cls-2, .cls-3 {
        stroke: #000;
        stroke-miterlimit: 10;
      }

      .cls-2 {
        fill: #a07637;
      }

      .cls-3 {
        fill: #baa584;
      }

      .cls-4 {
        fill: none;
        stroke: #fff;
        stroke-linecap: round;
        stroke-linejoin: round;
        stroke-width: 8px;
      }
    </style>
  </defs>
  <path class="cls-3" d="m61.85,74.16c3.65,3.37,17.31-5.48,30.51-19.77,13.2-14.29,20.94-28.62,17.29-31.99-3.65-3.37-17.32,5.48-30.52,19.77-13.2,14.29-20.94,28.62-17.29,31.99Z"/>
  <path class="cls-1" d="m115.25,28.25c-.52-.05-1,.13-1.36.45l-7.83-.82-9.21-.96c-.64-.07-1.22.4-1.29,1.04-.06.64.4,1.22,1.04,1.28l9.21.96,7.82.82c.28.39.72.67,1.23.72.96.1,1.83-.6,1.93-1.57.1-.97-.6-1.83-1.56-1.93Z"/>
  <path class="cls-1" d="m113.84,33.42c-.46-.03-.9.12-1.23.4l-7.21-1.41-8.61-1.68c-.6-.12-1.18.27-1.3.88-.12.6.27,1.18.87,1.3l8.61,1.68,7.21,1.41c.28.51.79.87,1.41.91.96.07,1.8-.66,1.86-1.62.07-.96-.66-1.8-1.62-1.86Z"/>
  <path class="cls-1" d="m110.79,37.81c-.4-.01-.77.11-1.07.33l-6.62-1.98-8.01-2.4c-.56-.17-1.15.15-1.31.71-.17.56.15,1.15.71,1.32l8.01,2.4,6.62,1.98c.24.63.84,1.09,1.56,1.12.96.03,1.76-.72,1.79-1.68.03-.96-.71-1.76-1.68-1.8Z"/>
  <path class="cls-1" d="m107.09,42.7c-.33,0-.63.1-.89.25l-6.06-2.55-7.41-3.12c-.52-.22-1.11.02-1.33.54-.22.52.03,1.11.54,1.33l7.42,3.12,6.05,2.55c.18.77.86,1.34,1.68,1.34.96,0,1.73-.78,1.73-1.74,0-.95-.78-1.73-1.73-1.73Z"/>
  <path class="cls-1" d="m103.03,47.86c-.25,0-.48.07-.68.17l-5.52-3.11-8.45-5.09c-.48-.27-1.08-.1-1.35.38-.27.48-.1,1.08.38,1.35l8.46,5.08,5.53,3.11c.09.9.86,1.59,1.78,1.55.95-.04,1.7-.84,1.66-1.79-.04-.95-.84-1.7-1.79-1.66Z"/>
  <path class="cls-1" d="m98.91,52.78c-.15.01-.3.05-.44.1l-5.02-3.68-10.52-7.66c-.43-.32-1.04-.22-1.36.21-.32.43-.23,1.04.21,1.36l10.51,7.66,5.03,3.68c0,.06,0,.12,0,.17.07.95.89,1.66,1.85,1.59.95-.07,1.66-.9,1.59-1.85-.07-.95-.9-1.66-1.85-1.59Z"/>
  <path class="cls-1" d="m96.67,58.78c-.1-.95-.96-1.63-1.9-1.52-.06,0-.12.02-.17.04l-4.54-4.26-7.65-7.31c-.39-.37-1.01-.35-1.38.04-.37.39-.35,1.01.05,1.38l7.65,7.31,4.53,4.26c-.02.15-.03.29-.02.45.1.95.95,1.63,1.9,1.52.95-.11,1.63-.96,1.52-1.91Z"/>
  <path class="cls-1" d="m92.15,63.14c-.13-.91-.95-1.54-1.86-1.46l-4.07-4.86-5.02-6c-.35-.42-.97-.47-1.39-.12-.42.35-.48.97-.12,1.39l5.02,6,4.07,4.86c-.06.22-.08.46-.04.7.14.94,1.01,1.6,1.96,1.46.94-.14,1.59-1.02,1.46-1.96Z"/>
  <path class="cls-1" d="m87.61,67.79c-.15-.81-.84-1.38-1.62-1.41l-3.61-5.49-4.42-6.72c-.31-.47-.94-.6-1.41-.29-.47.31-.6.94-.29,1.41l4.42,6.72,3.62,5.49c-.11.28-.15.6-.09.92.17.94,1.07,1.56,2.02,1.39.94-.17,1.56-1.08,1.39-2.02Z"/>
  <path class="cls-1" d="m82.77,71.66c-.16-.71-.72-1.21-1.39-1.33l-3.16-6.14-3.83-7.44c-.27-.52-.9-.72-1.42-.45-.52.27-.72.9-.46,1.42l3.82,7.44,3.16,6.15c-.16.34-.22.72-.13,1.11.21.94,1.14,1.53,2.07,1.32.94-.21,1.53-1.14,1.32-2.08Z"/>
  <path class="cls-1" d="m77.25,75.11c-.16-.6-.61-1.04-1.16-1.22l-2.7-6.83-3.23-8.16c-.22-.57-.87-.85-1.44-.62-.57.23-.85.87-.62,1.44l3.23,8.16,2.7,6.83c-.21.38-.28.83-.16,1.28.24.93,1.19,1.49,2.13,1.25.93-.24,1.49-1.19,1.25-2.13Z"/>
  <path class="cls-1" d="m72.59,77.7c-.15-.5-.5-.88-.94-1.08l-2.24-7.54-2.63-8.88c-.18-.62-.83-.97-1.45-.79-.62.18-.97.83-.79,1.45l2.63,8.88,2.24,7.54c-.25.41-.34.92-.19,1.42.27.93,1.25,1.46,2.19,1.18.93-.28,1.46-1.26,1.19-2.19Z"/>
  <path class="cls-2" d="m104.83,13.69c1.58.27,3.11.98,4.38,2.15,3.48,3.21,3.7,8.64.48,12.12,0,0-6.8-2.69-25.43,17.5-18.64,20.2-16.34,27.76-16.34,27.76-3.21,3.48-8.64,3.7-12.12.49-.19-.18-.37-.37-.54-.56l-34.27,37.13c-2.11,2.29-5.11,2.97-6.69,1.51h0L104.83,13.69Z"/>
  <path class="cls-3" d="m15.27,104.99l40.06-43.41,3.57-3.87,38.19-41.39c2.04-2.21,4.97-3.1,7.74-2.64L14.3,111.78c-1.58-1.46-1.15-4.5.96-6.79Z"/>
  <rect class="cls-4" x="-1442.17" y="-2320.85" width="6467.34" height="6437.3"/>
</svg>