<?xml version="1.0" encoding="UTF-8"?>
<svg id="Calque_1" data-name="Calque 1" xmlns="http://www.w3.org/2000/svg" viewBox="0 0 128 128">
  <defs>
    <style>
      .cls-1 {
        fill: #ff6d75;
      }

      .cls-1, .cls-2, .cls-3, .cls-4, .cls-5 {
        stroke: #000;
        stroke-miterlimit: 10;
      }

      .cls-2 {
        fill: #fff;
      }

      .cls-3 {
        fill: #eff8f6;
      }

      .cls-4 {
        fill: #77eddf;
      }

      .cls-6 {
        stroke: #fff;
        stroke-linecap: round;
        stroke-linejoin: round;
        stroke-width: 8px;
      }

      .cls-6, .cls-5 {
        fill: none;
      }
    </style>
  </defs>
  <path class="cls-3" d="m48.75,46.75l-11.68-19.45,10-6.01,1.7,2.82-6.01,3.61c-.37.22-.48.7-.26,1.06.22.37.7.49,1.06.27l6.01-3.61,1.7,2.83-6.01,3.61c-.37.22-.48.7-.26,1.06.22.37.7.49,1.06.27l6.01-3.61,1.7,2.83-6.01,3.61c-.37.22-.48.7-.26,1.06.22.37.7.49,1.06.27l6.01-3.61,1.7,2.83-6.01,3.61c-.37.22-.48.7-.26,1.06.22.37.7.49,1.06.27l6.01-3.61,1.7,2.83-10,6.01Z"/>
  <path class="cls-1" d="m91,119.67l-32.14-54.45c-1.73-2.86-3.96-5.36-6.64-7.4l-.49-.39c-2.53-1.94-4.64-4.28-6.27-6.98l-10.59-17.57c-.9-1.5-.6-3.39.62-4.54l1.28-.87,1.18-.71,12.12,20.09s0,0,0,0l.45.75c1.78,2.95,4.1,5.51,6.89,7.6,2.62,1.96,4.81,4.37,6.49,7.16l32.06,54.31-4.97,3Z"/>
  <line class="cls-5" x1="93.86" y1="39.75" x2="93.84" y2="39.75"/>
  <g>
    <path class="cls-4" d="m61.65,38.37l-10.09-17.84s-2.14-2.86,2.2-7.7l.39-.23c-1.19,2.83-.96,6.13.63,8.83l7.67,13c.44.73.56,1.58.36,2.4-.11.44-.33.84-.6,1.19l-.55.37Z"/>
    <path class="cls-2" d="m60.74,38.99c-.5.15-1.04.17-1.58.05-.92-.23-1.73-.83-2.22-1.65l-7.5-12.7c-2.25-3.82-1.02-8.72,2.74-10.93l1.58-.93c-4.34,4.84-2.2,7.7-2.2,7.7l10.09,17.84-.91.62Z"/>
  </g>
  <rect class="cls-6" x="-4594.09" y="-678.71" width="6562.35" height="1176.7"/>
</svg>