<?xml version="1.0" encoding="UTF-8"?>
<svg id="Calque_1" data-name="Calque 1" xmlns="http://www.w3.org/2000/svg" viewBox="0 0 128 128">
  <defs>
    <style>
      .cls-1 {
        fill: #ff6d75;
      }

      .cls-1, .cls-2, .cls-3, .cls-4, .cls-5, .cls-6, .cls-7 {
        stroke: #000;
        stroke-miterlimit: 10;
      }

      .cls-2 {
        fill: #fff;
      }

      .cls-3 {
        fill: #eff8f6;
      }

      .cls-4 {
        fill: #b2f0e9;
      }

      .cls-5 {
        fill: #8987f3;
      }

      .cls-6 {
        fill: #77eddf;
      }

      .cls-8 {
        stroke: #fff;
        stroke-linecap: round;
        stroke-linejoin: round;
        stroke-width: 8px;
      }

      .cls-8, .cls-7 {
        fill: none;
      }
    </style>
  </defs>
  <path class="cls-6" d="m116.12,111.66h-20.46s-3.54.46-5.64-5.75v-.46c1.87,2.44,4.86,3.89,7.99,3.83l15.06-.28c.85-.02,1.65.29,2.26.88.33.32.57.71.74,1.12l.05.67Z"/>
  <path class="cls-2" d="m116.21,112.77c-.11.51-.35,1-.73,1.41-.64.69-1.57,1.11-2.52,1.13l-14.72.28c-4.42.09-8.1-3.43-8.19-7.83l-.04-1.85c2.1,6.21,5.64,5.75,5.64,5.75h20.46l.1,1.11Z"/>
  <polygon class="cls-3" points="93.22 105.81 85.01 106.02 84.73 95.11 88.83 95 92.94 94.9 93.22 105.81"/>
  <polygon class="cls-4" points="100.92 63.14 100.09 96.93 93.86 97.09 93.85 97.09 89.06 97.21 78.01 97.49 75.39 63.14 100.92 63.14"/>
  <polygon class="cls-4" points="102.2 11.54 101.42 43.15 73.89 43.15 71.54 12.31 72.9 12.28 102.2 11.54"/>
  <polygon class="cls-5" points="101.42 43.15 100.92 63.14 75.39 63.14 73.89 43.15 101.42 43.15"/>
  <polygon class="cls-3" points="105.45 13.34 68.48 14.28 66.95 6.38 106.56 5.37 105.45 13.34"/>
  <path class="cls-3" d="m28.78,50.16l-11.68-19.45,10-6.01,1.7,2.82-6.01,3.61c-.37.22-.48.7-.26,1.06.22.37.7.49,1.06.27l6.01-3.61,1.7,2.83-6.01,3.61c-.37.22-.48.7-.26,1.06.22.37.7.49,1.06.27l6.01-3.61,1.7,2.83-6.01,3.61c-.37.22-.48.7-.26,1.06.22.37.7.49,1.06.27l6.01-3.61,1.7,2.83-6.01,3.61c-.37.22-.48.7-.26,1.06.22.37.7.49,1.06.27l6.01-3.61,1.7,2.83-10,6.01Z"/>
  <path class="cls-1" d="m71.03,123.07l-32.14-54.45c-1.73-2.86-3.96-5.36-6.64-7.4l-.49-.39c-2.53-1.94-4.64-4.28-6.27-6.98l-10.59-17.57c-.9-1.5-.6-3.39.62-4.54l1.28-.87,1.18-.71,12.12,20.09s0,0,0,0l.45.75c1.78,2.95,4.1,5.51,6.89,7.6,2.62,1.96,4.81,4.37,6.49,7.16l32.06,54.31-4.97,3Z"/>
  <path class="cls-3" d="m91.69,49.68c-.12-.67-.65-1.16-1.42-1.31-.54-.11-1.07-.04-1.65.21,0,0,0,0,0,0-.66.29-1.32.28-2.01-.01-.29-.12-.59-.2-.93-.23-.74-.07-1.5.26-1.84.81-.18.29-.27.62-.28,1.05-.01.73.18,1.34.58,1.88.07.1.13.19.19.29l.05.08c.13.22.2.46.19.71,0,.22.06,1.76.14,2.3.08.58.22,1.07.44,1.51.19.38.38.61.65.77.11.04.18.02.23-.02.46-.3.68-1.95.7-3.03,0-.51.41-.93.92-.95,0,0,.01,0,.02,0,0,0,0,0,0,0,0,0,0,0,0,0,0,0,0,0,.01,0,.24,0,.47.1.65.28.18.18.28.42.28.68.02,1.08.25,2.73.71,3.03.05.03.12.06.23.01.37-.2.87-1.31,1-1.91.16-.77.23-1.61.2-2.65v-.05c0-.1-.01-.23.05-.35l.02-.04c.1-.23.21-.46.37-.68.5-.7.67-1.47.5-2.37Z"/>
  <line class="cls-7" x1="73.89" y1="43.15" x2="73.87" y2="43.15"/>
  <path class="cls-7" d="m90.02,105.91s-.01-.01-.01-.02"/>
  <g>
    <path class="cls-6" d="m41.68,41.77l-10.09-17.84s-2.14-2.86,2.2-7.7l.39-.23c-1.19,2.83-.96,6.13.63,8.83l7.67,13c.44.73.56,1.58.36,2.4-.11.44-.33.84-.6,1.19l-.55.37Z"/>
    <path class="cls-2" d="m40.77,42.39c-.5.15-1.04.17-1.58.05-.92-.23-1.73-.83-2.22-1.65l-7.5-12.7c-2.25-3.82-1.02-8.72,2.74-10.93l1.58-.93c-4.34,4.84-2.2,7.7-2.2,7.7l10.09,17.84-.91.62Z"/>
  </g>
  <rect class="cls-8" x="-2311.71" y="-2127.84" width="6467.34" height="6437.3"/>
</svg>