<?xml version="1.0" encoding="UTF-8"?>
<svg id="Calque_1" data-name="Calque 1" xmlns="http://www.w3.org/2000/svg" viewBox="0 0 128 128">
  <defs>
    <style>
      .cls-1 {
        fill: #f3d587;
      }

      .cls-2, .cls-3 {
        fill: #fff;
      }

      .cls-4 {
        fill: #d6d6d6;
      }

      .cls-5 {
        fill: #8987f3;
      }

      .cls-6 {
        fill: #a07637;
      }

      .cls-6, .cls-7, .cls-3 {
        stroke-width: 2px;
      }

      .cls-6, .cls-7, .cls-3, .cls-8 {
        stroke-linecap: round;
        stroke-linejoin: round;
      }

      .cls-6, .cls-7, .cls-3, .cls-9 {
        stroke: #000;
      }

      .cls-7 {
        fill: #bfe6fc;
      }

      .cls-8 {
        stroke: #fff;
        stroke-width: 8px;
      }

      .cls-8, .cls-9 {
        fill: none;
      }

      .cls-9 {
        stroke-miterlimit: 10;
      }
    </style>
  </defs>
  <path class="cls-7" d="m110.49,43.24c1.45,1.57,2.25,3.62,2.25,5.75v64.13c0,5.49-7.04,7.94-15.73,7.94s-15.72-2.45-15.72-7.94V48.99c0-2.13.81-4.19,2.26-5.76l.86-.93c1.45-1.57,2.26-3.62,2.26-5.76v-4.83h20.71v4.84c0,2.13.81,4.18,2.26,5.74l.86.94Z"/>
  <path class="cls-6" d="m103.75,20.22v4.56h-13.46v-4.56c0-.46.12-.88.34-1.25.76-1.27,2.49-2.58,2.85-4.01.33-1.31.49-2.65.49-4,0-.51-.02-1.02-.07-1.54-.02-.22-.05-.44-.07-.66,0-1.72,1.43-3.12,3.19-3.12s3.19,1.4,3.19,3.12c-.03.22-.05.44-.07.66-.18,2.05,0,4.1.57,6.07.35,1.25,2.04,2.36,2.7,3.48.22.36.34.79.34,1.24Z"/>
  <path class="cls-3" d="m109.51,27.64l-2.37-.19c-6.67-.54-13.36-.54-20.03-.01l-2.57.2v6.43l2.51-.2c6.67-.53,13.36-.53,20.03,0l2.44.2v-6.43Z"/>
  <path class="cls-3" d="m108.23,27.54h-.01c-7.42-.67-14.88-.67-22.29-.01h-.11s0-3.54,0-3.54h.13c7.42-.67,14.88-.67,22.29,0h0v3.55Z"/>
  <line class="cls-9" x1="86.14" y1="52.97" x2="91.8" y2="52.97"/>
  <line class="cls-9" x1="86.14" y1="61.93" x2="91.8" y2="61.93"/>
  <line class="cls-9" x1="86.14" y1="70.89" x2="91.8" y2="70.89"/>
  <line class="cls-9" x1="86.14" y1="79.86" x2="91.8" y2="79.86"/>
  <line class="cls-9" x1="86.14" y1="88.82" x2="91.8" y2="88.82"/>
  <line class="cls-9" x1="86.14" y1="97.78" x2="91.8" y2="97.78"/>
  <line class="cls-9" x1="86.14" y1="106.74" x2="91.8" y2="106.74"/>
  <path class="cls-2" d="m100.16,43.08s4.62,0,4.64,0c.72,0,1.62,3,1.79,3.55.48,1.54.56,3.05.62,4.65,0,.22.24,3.25.08,3.25-1.73,0-2.45,0-4.18,0,.11,0-.32-6.06-.4-6.54-.17-1-.46-2.01-.95-2.9-.25-.46-.98-2-1.6-2Z"/>
  <path class="cls-1" d="m44.14,40.22c0-.41.2-.77.45-.77s.45.35.45.77-.2.78-.45.78-.45-.35-.45-.78Z"/>
  <path class="cls-2" d="m44.14,40.22c0-.41.2-.77.45-.77s.45.35.45.77-.2.78-.45.78-.45-.35-.45-.78Z"/>
  <g>
    <rect class="cls-4" x="42.39" y="57.7" width="4.38" height="52.48" rx=".14" ry=".14"/>
    <path d="m46.27,58.2v51.48h-3.38v-51.48h3.38m.36-1h-4.1c-.35,0-.64.29-.64.64v52.21c0,.35.29.64.64.64h4.1c.35,0,.64-.29.64-.64v-52.21c0-.35-.29-.64-.64-.64h0Z"/>
  </g>
  <g>
    <path class="cls-5" d="m44.58,61.43c-1.85,0-3.36-1.51-3.36-3.36V5.68l6.7-.02.02,52.41c0,1.85-1.51,3.36-3.36,3.36Z"/>
    <path d="m47.44,6.17v51.91c0,1.57-1.28,2.86-2.86,2.86s-2.86-1.28-2.86-2.86V6.17h5.71m.48-1h-6.68c-.29,0-.52.23-.52.52v52.39c0,2.13,1.73,3.86,3.86,3.86s3.86-1.73,3.86-3.86V5.68c0-.29-.23-.52-.52-.52h0Z"/>
  </g>
  <rect x="34.61" y="111" width="19.95" height=".9" transform="translate(89.16 222.9) rotate(-180)"/>
  <rect x="34.61" y="107.34" width="19.95" height=".9" transform="translate(89.16 215.58) rotate(-180)"/>
  <rect x="34.61" y="103.68" width="19.95" height=".9" transform="translate(89.16 208.26) rotate(-180)"/>
  <rect x="34.61" y="100.02" width="19.95" height=".9" transform="translate(89.16 200.94) rotate(-180)"/>
  <rect x="34.61" y="96.36" width="19.95" height=".9" transform="translate(89.16 193.63) rotate(-180)"/>
  <rect x="34.61" y="92.71" width="19.95" height=".9" transform="translate(89.16 186.31) rotate(-180)"/>
  <rect x="34.61" y="85.39" width="19.95" height=".9" transform="translate(89.16 171.67) rotate(-180)"/>
  <rect x="34.61" y="89.05" width="19.95" height=".9" transform="translate(89.16 178.99) rotate(-180)"/>
  <rect x="34.61" y="81.73" width="19.95" height=".9" transform="translate(89.16 164.35) rotate(-180)"/>
  <rect x="34.61" y="78.07" width="19.95" height=".9" transform="translate(89.16 157.04) rotate(-180)"/>
  <rect x="34.61" y="74.41" width="19.95" height=".9" transform="translate(89.16 149.72) rotate(-180)"/>
  <rect x="34.61" y="109.79" width="19.95" height=".9" transform="translate(89.16 220.48) rotate(-180)"/>
  <rect x="34.61" y="106.13" width="19.95" height=".9" transform="translate(89.16 213.16) rotate(-180)"/>
  <rect x="34.61" y="102.47" width="19.95" height=".9" transform="translate(89.16 205.84) rotate(-180)"/>
  <rect x="34.61" y="98.81" width="19.95" height=".9" transform="translate(89.16 198.52) rotate(-180)"/>
  <rect x="34.61" y="95.15" width="19.95" height=".9" transform="translate(89.16 191.2) rotate(-180)"/>
  <rect x="34.61" y="91.49" width="19.95" height=".9" transform="translate(89.16 183.89) rotate(-180)"/>
  <rect x="34.61" y="84.18" width="19.95" height=".9" transform="translate(89.16 169.25) rotate(-180)"/>
  <rect x="34.61" y="87.84" width="19.95" height=".9" transform="translate(89.16 176.57) rotate(-180)"/>
  <rect x="34.61" y="80.52" width="19.95" height=".9" transform="translate(89.16 161.93) rotate(-180)"/>
  <rect x="34.61" y="76.86" width="19.95" height=".9" transform="translate(89.16 154.62) rotate(-180)"/>
  <rect x="34.61" y="73.2" width="19.95" height=".9" transform="translate(89.16 147.3) rotate(-180)"/>
  <rect x="34.45" y="70.86" width="19.95" height=".9" transform="translate(88.85 142.61) rotate(-180)"/>
  <rect x="34.45" y="67.2" width="19.95" height=".9" transform="translate(88.85 135.3) rotate(-180)"/>
  <rect x="34.45" y="63.54" width="19.95" height=".9" transform="translate(88.85 127.98) rotate(-180)"/>
  <rect x="34.45" y="69.65" width="19.95" height=".9" transform="translate(88.85 140.19) rotate(-180)"/>
  <rect x="34.45" y="65.99" width="19.95" height=".9" transform="translate(88.85 132.87) rotate(-180)"/>
  <rect x="34.45" y="62.33" width="19.95" height=".9" transform="translate(88.85 125.56) rotate(-180)"/>
  <g>
    <rect x="44.68" y="114.08" width="7.13" height=".9" transform="translate(137.49 28.05) rotate(68.74)"/>
    <rect x="43.55" y="114.52" width="7.13" height=".9" transform="translate(137.18 29.38) rotate(68.74)"/>
  </g>
  <g>
    <rect x="41.62" y="114.69" width="7.12" height=".9" transform="translate(160.32 69.95) rotate(90)"/>
    <rect x="40.41" y="114.69" width="7.12" height=".9" transform="translate(159.11 71.16) rotate(90)"/>
  </g>
  <g>
    <rect x="37.58" y="114.08" width="7.13" height=".9" transform="translate(162.79 117.72) rotate(111.26)"/>
    <rect x="38.7" y="114.52" width="7.13" height=".9" transform="translate(164.74 117.26) rotate(111.26)"/>
  </g>
  <rect class="cls-8" x="-603.39" y="-314.74" width="1215" height="875.1"/>
</svg>