<?xml version="1.0" encoding="UTF-8"?>
<svg id="Calque_1" data-name="Calque 1" xmlns="http://www.w3.org/2000/svg" xmlns:xlink="http://www.w3.org/1999/xlink" viewBox="0 0 128 128">
  <defs>
    <style>
      .cls-1 {
        fill: #fce9b9;
      }

      .cls-1, .cls-2, .cls-3 {
        stroke: #000;
      }

      .cls-1, .cls-2, .cls-3, .cls-4 {
        stroke-linecap: round;
        stroke-linejoin: round;
      }

      .cls-2 {
        fill: #f3d587;
      }

      .cls-3 {
        fill: #fff;
        stroke-width: 2px;
      }

      .cls-5 {
        fill: url(#Dégradé_sans_nom_66);
      }

      .cls-4 {
        fill: none;
        stroke: #fff;
        stroke-width: 8px;
      }
    </style>
    <radialGradient id="Dégradé_sans_nom_66" data-name="Dégradé sans nom 66" cx="41.16" cy="87.81" fx="41.16" fy="87.81" r="10.48" gradientUnits="userSpaceOnUse">
      <stop offset="0" stop-color="#ff6d75"/>
      <stop offset=".82" stop-color="#fee4cb"/>
      <stop offset="1" stop-color="#fff"/>
    </radialGradient>
  </defs>
  <path class="cls-3" d="m16.49,103.83c.65.83,1.32,1.64,2.01,2.4,2.24,2.48,4.79,4.74,7.86,6.14,2.58,1.17,5.34,1.73,8.13,2.12,8.97-10.03,36.76-41.23,45.88-51.48,2.64.08,5.35-.37,7.88-1.41,12.04-4.91,11.16-4.97,15.13-7.19,3.25-1.82,6.96-3.25,8.43-4.55,3.95-3.5.87-5.31-1.67-5.31-4.01,0-14.57,4.54-12.29,1,.81-1.26,4.87-7.1,5.86-8.46,2.87-3.91,5.21-7.69,7.74-11.84.74-1.22,2.18-4.19,1.98-5.72-.47-3.55-3.97-3.12-6.23.24-3.24,4.83-9.87,14.88-13.92,18.88,1.12-1.96,7.34-13.23,8.39-15.2,1.1-2.03,6.16-10.46,2.6-12.24-2.3-1.16-4.57,1.17-8.82,9.28-2.63,5.02-6.33,10.87-8.98,13.96,2.1-6.18,4.52-11.39,5.74-14.42,5.5-13.68-2.81-11.18-4.67-6.01-3.02,8.42-4.01,10.73-7.73,17.71,1.19-7.34,4.09-17.32,2.92-20.4-1.02-2.7-4.23-4.13-7.05,8.11-.72,3.11-2.21,9.72-3.6,13.31-1.15,2.96-6.95,10.85-7.26,14-.07.72-.09,1.41-.07,2.09-10.96,9.5-38.12,33.03-51.82,44.05.13,2.16.4,4.3,1.18,6.33.62,1.61,1.54,3.11,2.38,4.61Z"/>
  <circle class="cls-5" cx="41.16" cy="87.81" r="10.48"/>
  <path class="cls-2" d="m51.02,74.62c-.05,5.28-3.38,9.85-10.26,9.9-15.56.13-7.23-20.51-7.23-20.51,0,0,0,8.32,3.06,4.6.94-1.14,1.5-2.45,1.8-3.73.71-2.85.18-5.48.18-5.48,8.21,2.11,12.5,9.12,12.45,15.21Z"/>
  <path class="cls-1" d="m46.9,78.85c-.03,3.02-1.93,5.64-5.87,5.67-8.9.08-4.13-11.73-4.13-11.73,0,0,0,4.76,1.75,2.63.54-.65.86-1.4,1.03-2.13.41-1.63.11-3.14.11-3.14,4.7,1.21,7.15,5.22,7.12,8.7Z"/>
  <rect class="cls-4" x="-3797.71" y="-4671.59" width="6467.34" height="6437.3"/>
</svg>