<?xml version="1.0" encoding="UTF-8"?>
<svg id="Calque_1" data-name="Calque 1" xmlns="http://www.w3.org/2000/svg" viewBox="0 0 200 128">
  <defs>
    <style>
      .cls-1 {
        fill: #fee4cb;
      }

      .cls-1, .cls-2, .cls-3, .cls-4, .cls-5, .cls-6, .cls-7 {
        stroke: #000;
      }

      .cls-1, .cls-2, .cls-3, .cls-4, .cls-5, .cls-6, .cls-7, .cls-8 {
        stroke-linecap: round;
        stroke-linejoin: round;
      }

      .cls-2, .cls-6 {
        fill: #fff;
      }

      .cls-3, .cls-7, .cls-8 {
        fill: none;
      }

      .cls-4 {
        fill: #76ac75;
      }

      .cls-4, .cls-5, .cls-6, .cls-7 {
        stroke-width: 2px;
      }

      .cls-9 {
        fill: #bfe6fc;
      }

      .cls-5 {
        fill: #d6d6d6;
      }

      .cls-8 {
        stroke: #fff;
        stroke-width: 8px;
      }
    </style>
  </defs>
  <g>
    <circle class="cls-7" cx="169.12" cy="96.59" r="10.82"/>
    <circle class="cls-7" cx="169.12" cy="96.59" r="4.39"/>
  </g>
  <g>
    <circle class="cls-7" cx="79.39" cy="96.59" r="10.82"/>
    <circle class="cls-7" cx="79.39" cy="96.59" r="4.39"/>
  </g>
  <path class="cls-4" d="m47.83,36.91h129.47c4.64,0,8.41,3.77,8.41,8.41v42c0,1.12-.91,2.03-2.03,2.03H41.51v-46.13c0-3.49,2.83-6.32,6.32-6.32Z"/>
  <path class="cls-5" d="m41.51,89.36h144.2v1.42c0,3.83-3.11,6.93-6.93,6.93H48.45c-3.83,0-6.93-3.11-6.93-6.93v-1.42h0Z"/>
  <rect class="cls-6" x="123.23" y="45.6" width="24.76" height="43.76"/>
  <path class="cls-6" d="m156.98,45.6h28.73v23.38h-17.51c-6.19,0-11.22-5.03-11.22-11.22v-12.16h0Z"/>
  <path class="cls-1" d="m181.29,75.33h4.43v8.85h-4.43c-2.44,0-4.43-1.98-4.43-4.43h0c0-2.44,1.98-4.43,4.43-4.43Z"/>
  <rect class="cls-1" x="41.51" y="72.64" width="8.85" height="5.38"/>
  <path class="cls-2" d="m41.51,78.02h8.85v2.28c0,2.92-2.37,5.28-5.28,5.28h-3.57v-7.56h0Z"/>
  <rect class="cls-6" x="99.36" y="45.6" width="15.87" height="15.87" rx="2.03" ry="2.03"/>
  <rect class="cls-6" x="76.18" y="45.6" width="15.87" height="15.87" rx="2.03" ry="2.03"/>
  <rect class="cls-6" x="52.88" y="45.6" width="15.87" height="15.87" rx="2.03" ry="2.03"/>
  <path class="cls-3" d="m185.71,48.36h4.9c1.4,0,2.53,1.13,2.53,2.53v11.44"/>
  <g>
    <path class="cls-6" d="m158.24,86.89c-5.98,0-10.83,4.85-10.83,10.82s4.85,10.83,10.83,10.83,10.82-4.85,10.82-10.83-4.85-10.82-10.82-10.82Zm0,15.22c-2.43,0-4.4-1.97-4.4-4.4s1.97-4.39,4.4-4.39,4.39,1.97,4.39,4.39-1.97,4.4-4.39,4.4Z"/>
    <path class="cls-6" d="m162.63,97.71c0,2.43-1.97,4.4-4.39,4.4s-4.4-1.97-4.4-4.4,1.97-4.39,4.4-4.39,4.39,1.97,4.39,4.39Z"/>
    <path class="cls-6" d="m162.63,97.71c0,2.43-1.97,4.4-4.39,4.4s-4.4-1.97-4.4-4.4,1.97-4.39,4.4-4.39,4.39,1.97,4.39,4.39Z"/>
  </g>
  <g>
    <path class="cls-6" d="m68.51,86.89c-5.98,0-10.83,4.85-10.83,10.82s4.85,10.83,10.83,10.83,10.82-4.85,10.82-10.83-4.85-10.82-10.82-10.82Zm0,15.22c-2.43,0-4.4-1.97-4.4-4.4s1.97-4.39,4.4-4.39,4.39,1.97,4.39,4.39-1.96,4.4-4.39,4.4Z"/>
    <path class="cls-6" d="m72.9,97.71c0,2.43-1.96,4.4-4.39,4.4s-4.4-1.97-4.4-4.4,1.97-4.39,4.4-4.39,4.39,1.97,4.39,4.39Z"/>
    <path class="cls-6" d="m72.9,97.71c0,2.43-1.96,4.4-4.39,4.4s-4.4-1.97-4.4-4.4,1.97-4.39,4.4-4.39,4.39,1.97,4.39,4.39Z"/>
  </g>
  <line class="cls-7" x1="135.61" y1="45.6" x2="135.61" y2="89.36"/>
  <line class="cls-3" x1="131.73" y1="65.79" x2="131.73" y2="70.59"/>
  <line class="cls-3" x1="139.26" y1="65.79" x2="139.26" y2="70.59"/>
  <rect class="cls-7" x="189.43" y="53.38" width="3.72" height="11.18"/>
  <path class="cls-9" d="m55.69,54.52v-6.44h8.42v2.13s-3.03-1-4.77.88c-1.74,1.88-1.74,3.43-1.74,3.43h-1.91Z"/>
  <path class="cls-9" d="m78.71,54.52v-6.44h8.42v2.13s-3.03-1-4.77.88c-1.74,1.88-1.74,3.43-1.74,3.43h-1.91Z"/>
  <path class="cls-9" d="m101.89,54.52v-6.44h8.42v2.13s-3.03-1-4.77.88c-1.74,1.88-1.74,3.43-1.74,3.43h-1.91Z"/>
  <path class="cls-9" d="m159.9,60.29v-12.21h15.97v4.05s-5.75-1.9-9.05,1.66c-3.3,3.56-3.3,6.5-3.3,6.5h-3.62Z"/>
  <line class="cls-3" x1="10.61" y1="63.13" x2="25.92" y2="63.13"/>
  <line class="cls-3" x1="4.78" y1="69.23" x2="20.09" y2="69.23"/>
  <line class="cls-3" x1="7.15" y1="75.33" x2="22.45" y2="75.33"/>
  <rect class="cls-8" x="-513.6" y="-3659.78" width="2244.45" height="5948.74"/>
</svg>