<?xml version="1.0" encoding="UTF-8"?>
<svg id="Calque_1" data-name="Calque 1" xmlns="http://www.w3.org/2000/svg" viewBox="0 0 128 128">
  <defs>
    <style>
      .cls-1, .cls-2, .cls-3 {
        stroke: #000;
      }

      .cls-1, .cls-2, .cls-3, .cls-4 {
        stroke-linecap: round;
        stroke-linejoin: round;
      }

      .cls-1, .cls-3, .cls-4 {
        fill: none;
      }

      .cls-2 {
        fill: #baa584;
      }

      .cls-2, .cls-3 {
        stroke-width: 2px;
      }

      .cls-4 {
        stroke: #fff;
        stroke-width: 8px;
      }
    </style>
  </defs>
  <path class="cls-2" d="m51.46,82.12l-.66,1.46-14.28-6.44.66-1.46c1.4-3.1,4.93-4.56,7.84-3.25l3.68,1.66c2.91,1.31,4.16,4.93,2.76,8.03Z"/>
  <path class="cls-2" d="m49.96,73.95l-.27.59-5.69-2.56.27-.59c.56-1.24,1.97-1.84,3.13-1.31l1.47.66c1.16.52,1.65,1.97,1.09,3.22Z"/>
  <path class="cls-2" d="m50.79,83.59h0s-14.28-6.45-14.28-6.45h0c-4.56,6.19-8.09,13.07-10.41,20.4-2.71,8.57-4.54,15.76-4.45,19.33.03,1.31,1.19,2.3,2.49,2.16l2.18-.24,1.3,1.82c.76,1.06,2.26,1.26,3.26.42,2.73-2.29,6.91-8.43,11.54-16.14,3.95-6.59,6.78-13.79,8.38-21.3Z"/>
  <g>
    <polyline class="cls-3" points="57.19 87.98 49.22 89.62 49.91 87.23 57.19 87.98 52.11 97.95 58.15 99.94"/>
    <polyline class="cls-3" points="51.74 118.22 44.38 112.34 47.79 101.82 45.79 98.53 44.62 100.92 47.79 101.82"/>
    <path class="cls-3" d="m60.3,64.14s-3.34,3.19-4.2,5.1c-.86,1.91-.38,9.31-.38,9.31l-3.63,2.17.05-1.96,3.57-.22"/>
    <path class="cls-1" d="m48.87,70.74c3.87-.16,7.77-.35,11.55-1.26,3.36-.81,6.61-2.02,9.75-3.44,2.74-1.24,6.01-1.84,8.98-1.09"/>
    <g>
      <path d="m48.87,70.74c.49-.17.99-.35,1.48-.49.23-.07.48.06.55.3s-.06.48-.3.55c-.07.02-.15.02-.22,0-.51-.1-1.01-.24-1.52-.37Z"/>
      <path d="m53.42,69.49l3.06-.31h.06c.55-.06,1.04.34,1.1.89.06.55-.34,1.04-.89,1.1l-3.17.32c-.55.06-1.04-.34-1.1-.89-.06-.55.34-1.04.89-1.1h.05Z"/>
      <path d="m59.49,68.66c.99-.21,1.97-.52,2.96-.77l.07-.02c.53-.14,1.08.19,1.22.72s-.19,1.08-.72,1.21c-1.04.27-2.05.58-3.11.81h-.01c-.54.12-1.07-.23-1.19-.77-.11-.54.23-1.07.77-1.19h0Z"/>
      <path d="m65.37,66.93l2.87-1.13.05-.02c.51-.2,1.09.05,1.3.56.2.51-.05,1.09-.56,1.3l-2.96,1.17c-.51.2-1.09-.05-1.3-.56-.2-.51.05-1.09.56-1.3l.05-.02Z"/>
      <path d="m71.18,64.56c1.05-.37,2.13-.64,3.24-.8.55-.08,1.05.3,1.13.85.08.55-.3,1.05-.85,1.13h0c-.96.14-1.92.38-2.85.7-.52.18-1.09-.09-1.28-.61-.18-.52.09-1.09.61-1.28h0Z"/>
      <path d="m77.72,64.26c.5.21.98.45,1.43.68-.53.05-1.04.12-1.52.16h-.05c-.24.02-.45-.16-.47-.4s.16-.45.4-.47c.07,0,.14,0,.2.03Z"/>
    </g>
    <path d="m57.62,99.88c.15-1.18,1.44-1.8,2.53-1.22,1.02.6,1.3,1.72.7,2.68-.49-.25-.81-.46-1.09-.62-.83-.5-1.07-.61-2.14-.84h0Z"/>
    <path d="m51.13,118.58c.15-1.18,1.45-1.8,2.53-1.22,1.02.6,1.3,1.72.7,2.68-.49-.25-.81-.46-1.09-.62-.83-.5-1.07-.61-2.14-.84h0Z"/>
    <path d="m61.75,60.92c1.18.15,1.8,1.44,1.22,2.53-.6,1.02-1.72,1.3-2.68.7.25-.49.46-.81.62-1.09.5-.83.61-1.07.84-2.14h0Z"/>
  </g>
  <g>
    <polyline class="cls-3" points="28.98 75.27 33.03 82.33 34.36 80.22 28.98 75.27 24.88 85.68 19.39 82.47"/>
    <polyline class="cls-3" points="9.94 99.38 19.22 100.99 24.84 91.48 28.63 90.8 27.61 93.26 24.84 91.48"/>
    <path class="cls-3" d="m44.78,57.15s-.18,4.62-1.04,6.53c-.86,1.91-6.72,6.45-6.72,6.45l.77,4.16,1.43-1.34-2.2-2.82"/>
    <path class="cls-1" d="m47.41,70.08c-2.45-3-4.88-6.05-6.71-9.49-1.62-3.05-2.86-6.29-3.88-9.58-.89-2.87-2.61-5.72-5.13-7.45"/>
    <g>
      <path d="m47.41,70.08c-.43-.29-.87-.58-1.28-.89-.2-.15-.23-.43-.09-.62.15-.2.43-.24.62-.09.06.04.11.11.14.17.22.47.41.95.61,1.43Z"/>
      <path d="m43.73,67.05l-1.86-2.59c-.32-.45-.22-1.07.23-1.39.45-.32,1.07-.22,1.39.23l.03.05,1.79,2.5.03.04c.32.45.22,1.07-.23,1.39-.45.32-1.07.22-1.4-.23Z"/>
      <path d="m40.19,61.73c-.53-.94-.97-1.91-1.45-2.86-.25-.49-.06-1.09.44-1.34s1.09-.06,1.34.44l.03.07c.46.91.89,1.85,1.38,2.73.27.48.1,1.09-.38,1.36-.48.27-1.09.1-1.36-.38h0s0,0,0,0Z"/>
      <path d="m37.48,55.93l-1.08-2.99c-.19-.52.08-1.09.6-1.28.52-.19,1.09.08,1.28.6l.02.05,1.05,2.9.02.05c.19.52-.08,1.09-.6,1.28s-1.09-.08-1.28-.6Z"/>
      <path d="m35.41,50.02c-.37-.91-.82-1.79-1.36-2.6-.3-.46-.18-1.08.28-1.39.46-.3,1.08-.18,1.39.28h0c.62.93,1.13,1.93,1.55,2.95.21.51-.04,1.09-.55,1.3-.51.21-1.09-.04-1.3-.55h0Z"/>
      <path d="m32.59,44.79c-.29-.39-.58-.81-.89-1.24.47.19.97.39,1.46.63.22.1.31.37.21.58s-.37.31-.58.21c-.06-.03-.12-.08-.16-.13l-.03-.04Z"/>
    </g>
    <path d="m19.78,82.83c-.88-.65-1.12-.76-2.05-1.05-.3-.1-.67-.2-1.18-.41.32-1.09,1.34-1.62,2.47-1.25,1.15.43,1.55,1.81.76,2.71h0Z"/>
    <path d="m10.07,100.08c-.88-.65-1.12-.76-2.05-1.05-.3-.1-.67-.2-1.18-.41.32-1.09,1.34-1.62,2.47-1.25,1.15.43,1.55,1.81.76,2.71h0Z"/>
    <path d="m46.24,53.92c-.65.88-.76,1.12-1.05,2.05-.1.3-.2.67-.41,1.18-1.09-.32-1.62-1.34-1.25-2.47.43-1.15,1.81-1.55,2.71-.76h0Z"/>
  </g>
  <path class="cls-2" d="m101.01,36.18l.38,1.56-15.21,3.74-.38-1.56c-.81-3.3,1.07-6.63,4.17-7.39l3.92-.96c3.1-.76,6.31,1.32,7.12,4.62Z"/>
  <path class="cls-2" d="m94.8,30.67l.15.63-6.06,1.49-.15-.63c-.33-1.33.42-2.66,1.65-2.97l1.56-.38c1.24-.3,2.52.53,2.84,1.86Z"/>
  <path class="cls-2" d="m101.4,37.75h0s-15.21,3.73-15.21,3.73h0c.22,7.69,1.69,15.28,4.38,22.48,3.15,8.42,6.14,15.2,8.41,17.96.83,1.01,2.35,1.08,3.29.17l1.57-1.53,2.14.63c1.25.37,2.56-.4,2.83-1.68.74-3.49.24-10.89-.88-19.82-.95-7.62-3.17-15.03-6.54-21.93Z"/>
  <g>
    <polyline class="cls-3" points="109.14 37.26 103.88 43.47 102.95 41.16 109.14 37.26 111.29 48.24 117.27 46.08"/>
    <polyline class="cls-3" points="123.5 64.43 114.08 64.33 110.28 53.96 106.68 52.6 107.23 55.2 110.28 53.96"/>
    <path class="cls-3" d="m96.89,16.58s-.66,4.57-.16,6.61c.5,2.04,5.44,7.56,5.44,7.56l-1.51,3.95-1.17-1.57,2.68-2.38"/>
    <path class="cls-1" d="m91.96,28.82c2.95-2.51,5.9-5.07,8.32-8.12,2.15-2.71,3.95-5.67,5.55-8.72,1.39-2.67,3.6-5.16,6.39-6.4"/>
    <g>
      <path d="m91.96,28.82c.28-.44.56-.88.86-1.3.14-.2.42-.25.62-.11.2.14.25.42.11.62-.04.06-.1.11-.16.14-.46.23-.94.44-1.42.65Z"/>
      <path d="m94.78,25.03l2.22-2.13.04-.04c.4-.38,1.03-.37,1.41.03.38.4.37,1.03-.03,1.41l-2.3,2.21c-.4.38-1.03.37-1.41-.03-.38-.4-.37-1.03.03-1.41l.04-.04Z"/>
      <path d="m99.04,20.63c.65-.77,1.23-1.62,1.86-2.43l.05-.06c.34-.44.96-.52,1.4-.18s.52.96.18,1.4c-.65.85-1.25,1.72-1.95,2.55h0c-.35.43-.99.49-1.41.13-.42-.35-.48-.99-.12-1.41h0Z"/>
      <path d="m102.59,15.65l1.56-2.66.02-.04c.28-.48.89-.64,1.37-.36.48.28.64.89.36,1.37h0s-1.61,2.75-1.61,2.75c-.28.48-.89.64-1.37.36-.48-.28-.64-.89-.36-1.37l.03-.05Z"/>
      <path d="m105.71,10.19c.6-.94,1.28-1.82,2.06-2.62.38-.4,1.02-.41,1.41-.03.4.38.41,1.02.03,1.41h0c-.68.7-1.28,1.48-1.81,2.31-.3.47-.91.6-1.38.31-.47-.3-.6-.91-.31-1.38h0Z"/>
      <path d="m110.68,5.93c.52-.14,1.05-.25,1.55-.35-.38.37-.74.73-1.1,1.06l-.04.03c-.18.16-.45.15-.62-.03-.16-.18-.15-.45.03-.62.05-.05.12-.08.18-.1Z"/>
    </g>
    <path d="m116.82,46.36c-.61-1.02.03-2.31,1.24-2.52,1.17-.16,2.08.55,2.2,1.68-.54.11-.92.14-1.24.19-.96.12-1.22.19-2.2.66h0Z"/>
    <path d="m123.25,65.09c-.61-1.02.03-2.31,1.24-2.52,1.17-.16,2.08.55,2.2,1.68-.54.11-.92.14-1.24.19-.96.12-1.22.19-2.2.66h0Z"/>
    <path d="m96.04,13.14c1.02-.61,2.31.03,2.52,1.24.16,1.17-.55,2.08-1.68,2.2-.11-.54-.14-.92-.19-1.24-.12-.96-.19-1.22-.66-2.2h0Z"/>
  </g>
  <g>
    <polyline class="cls-3" points="79.1 44.65 86.64 47.71 86.39 45.23 79.1 44.65 82.29 55.38 75.99 56.23"/>
    <polyline class="cls-3" points="78.98 75.38 87.28 70.92 85.83 59.97 88.4 57.09 89.12 59.66 85.83 59.97"/>
    <path class="cls-3" d="m80.36,20.65s2.71,3.74,3.21,5.78-1.31,9.22-1.31,9.22l3.17,2.8.3-1.93-3.48-.86"/>
    <path class="cls-1" d="m90.4,29.2c-3.78-.86-7.57-1.75-11.13-3.34-3.16-1.4-6.13-3.19-8.96-5.15-2.47-1.72-5.58-2.9-8.63-2.7"/>
    <g>
      <path d="m90.4,29.2c-.52.03-1.04.08-1.56.09-.25,0-.45-.19-.45-.44,0-.25.19-.45.44-.45.07,0,.15.02.21.05.46.23.91.5,1.36.75Z"/>
      <path d="m85.64,29.08l-3.06-.89c-.53-.15-.83-.71-.68-1.24.15-.53.71-.83,1.24-.68l.06.02,2.95.86h.05c.53.17.83.72.68,1.25-.15.53-.71.83-1.24.68h0Z"/>
      <path d="m79.57,27.08c-1-.41-1.94-.91-2.91-1.36-.5-.23-.72-.83-.49-1.33.23-.5.83-.72,1.33-.49l.07.03c.92.43,1.84.91,2.77,1.29.51.21.75.79.54,1.3-.21.51-.79.75-1.3.54h0s0,0,0,0Z"/>
      <path d="m73.86,24.19l-2.7-1.69c-.47-.29-.61-.91-.32-1.38.29-.47.91-.61,1.38-.32l.04.03,2.61,1.63.04.03c.47.29.61.91.32,1.38-.29.47-.91.61-1.38.32Z"/>
      <path d="m68.59,20.81c-.85-.49-1.75-.9-2.67-1.21-.52-.17-.81-.74-.63-1.26.17-.52.74-.81,1.26-.63h0c1.06.35,2.08.82,3.04,1.37.48.27.64.89.37,1.36-.28.48-.89.64-1.37.37h0Z"/>
      <path d="m63.14,18.44c-.47-.13-.96-.28-1.47-.43.49-.14,1-.29,1.53-.41.24-.05.47.1.52.33.05.24-.1.47-.33.52-.07.02-.14.01-.21,0h-.05Z"/>
    </g>
    <path d="m76.52,56.28c-1.09.03-1.35.1-2.26.44-.3.11-.65.26-1.18.41-.42-1.05.06-2.11,1.17-2.51,1.17-.37,2.34.47,2.27,1.66h0Z"/>
    <path d="m79.51,75.85c-1.09.03-1.35.09-2.26.44-.3.11-.65.26-1.18.41-.42-1.05.06-2.11,1.17-2.51,1.17-.37,2.34.47,2.27,1.66h0Z"/>
    <path d="m79.51,17.21c.03,1.09.09,1.35.44,2.26.11.3.26.65.41,1.18-1.05.42-2.11-.06-2.51-1.17-.37-1.17.47-2.34,1.66-2.27h0Z"/>
  </g>
  <rect class="cls-4" x="-565.03" y="-3177.54" width="2244.45" height="5948.74"/>
</svg>