<?xml version="1.0" encoding="UTF-8"?>
<svg id="Calque_1" data-name="Calque 1" xmlns="http://www.w3.org/2000/svg" viewBox="0 0 128 128">
  <defs>
    <style>
      .cls-1 {
        fill: #f9fbfc;
      }

      .cls-2 {
        fill: #fafbfd;
      }

      .cls-3 {
        fill: #fafcfd;
      }

      .cls-4 {
        fill: #fcfdfd;
      }

      .cls-5 {
        fill: #fbfcfd;
      }

      .cls-6 {
        fill: #fdfdfe;
      }

      .cls-7 {
        fill: #fdfefe;
      }

      .cls-8 {
        fill: #9bb3d9;
      }

      .cls-9 {
        fill: #116caf;
      }

      .cls-10 {
        fill: #156fb0;
      }

      .cls-11 {
        fill: #146eb0;
      }

      .cls-12 {
        fill: none;
        stroke: #fff;
        stroke-linecap: round;
        stroke-linejoin: round;
        stroke-width: 8px;
      }
    </style>
  </defs>
  <g>
    <path class="cls-9" d="m3.39,3.4v121.21h121.22V3.4H3.39Zm106.7,94.26c.51-2.66,1-5.22,1.48-7.8h1.31c-.72,3.83-1.44,7.64-2.16,11.45-.92.19-1.49-.03-2.02-.82-1.54-2.34-3.2-4.59-4.82-6.88-.06-.1-.14-.19-.3-.4-.53,2.77-1.04,5.41-1.54,8.06h-1.3c.72-3.83,1.43-7.62,2.16-11.46.49,0,.96-.04,1.41.02.19.03.38.25.51.43,1.67,2.33,3.32,4.66,4.98,7,.07.11.16.21.29.4Zm-37.32-6.45c.08-.45.16-.88.25-1.36h8.3c-.08.47-.15.9-.23,1.38-.93-.08-1.86-.16-2.84-.24-.65,3.46-1.3,6.86-1.95,10.3h-2.44c.63-3.4,1.27-6.79,1.93-10.3-1.06.08-2.05.15-3.02.22Zm-20.95-15.2c-1.62-.95-3.2-1.96-4.8-2.93-1.68-1.03-2.25-2.77-1.5-4.6,1.03-2.49,4.24-3.91,6.72-2.24,2.34,1.58,4.79,2.98,7.18,4.49.43.27.74.3,1.19.05,2.95-1.57,5.91-3.11,8.88-4.66.91-.48,1.86-.75,2.9-.57,1.77.3,2.9,1.63,2.88,3.75-.11,1.5-1.03,2.8-2.63,3.65-2.04,1.08-4.1,2.16-6.16,3.21-.35.18-.49.41-.54.78-.45,3.09-.92,6.18-1.34,9.27-.18,1.34-1.65,2.14-2.8,1.34-1.11-.77-2.3-1.42-3.43-2.15-.32-.21-.56-.21-.88-.04-1.38.75-2.77,1.49-4.17,2.19-.33.17-.72.3-1.08.31-.83.03-1.4-.66-1.28-1.48.45-3.07.89-6.14,1.37-9.21.09-.54,0-.86-.51-1.16Zm-3.57,17.81c.14,4.31-3.23,7.72-7.68,7.8-.6-.08-1.21-.11-1.79-.25-2.01-.49-3.19-1.97-3.27-4.04-.19-5.13,4.4-8.74,9.52-7.59,1.99.45,3.15,2,3.22,4.08Zm7.82-45.54c-1.66-.99-3.3-2.02-4.94-3.03-1.78-1.1-2.31-2.91-1.43-4.81,1.07-2.3,4.14-3.71,6.66-2.02,2.36,1.58,4.82,3,7.22,4.52.38.23.65.25,1.04.04,2.93-1.56,5.88-3.09,8.82-4.64,1.07-.56,2.17-.87,3.37-.57,1.96.49,3.01,2.43,2.38,4.45-.4,1.32-1.26,2.27-2.48,2.91-2.06,1.06-4.11,2.13-6.15,3.22-.22.12-.46.38-.49.6-.39,2.46-.74,4.94-1.1,7.41-.05.48-.11.95-.16,1.43-.06.27-.12.55-.19.82-.3,1.27-1.55,1.8-2.67,1.12-1.17-.72-2.34-1.43-3.49-2.17-.31-.2-.55-.21-.87-.04-1.38.75-2.77,1.48-4.17,2.19-.33.17-.72.29-1.08.31-.79.03-1.33-.55-1.3-1.34.01-.28.06-.56.1-.84.04-.45.09-.89.14-1.34.19-1.17.4-2.34.59-3.51.2-1.29.37-2.59.58-3.88.07-.4-.02-.62-.38-.83Zm4.73-11.59c.6-2.4,3.1-4.12,5.41-3.73,2.25.39,3.5,2.31,2.97,4.54-.52,2.13-2.63,3.78-4.83,3.78-2.52,0-4.17-2.14-3.55-4.59Zm4.26,28.76c-.56,2.08-2.63,3.67-4.79,3.67-2.52-.01-4.16-2.11-3.56-4.58.5-2.07,2.44-3.68,4.56-3.79,2.67-.14,4.48,2.11,3.79,4.7Zm14.94,8.1c-.19.1-.39.2-.6.28-1.16.46-2.11-.25-1.95-1.49.19-1.48.43-2.95.65-4.42.25-1.7.51-3.39.73-5.09.02-.18-.17-.47-.35-.58-1.53-.97-3.1-1.88-4.61-2.88-.68-.44-1.24-1.06-1.86-1.6-.29-.8-.44-1.62-.26-2.48.62-2.12,2.01-3.38,4.22-3.68.86-.12,1.67.09,2.41.55,2.55,1.58,5.1,3.15,7.64,4.74.31.19.55.24.88.06,2.48-1.32,4.98-2.62,7.47-3.93.14-.07.26-.18.39-.28.79-.34,1.56-.76,2.38-1.01,1.41-.42,2.76-.15,3.75.97,1.05,1.18,1.12,2.58.46,4.01-.17.36-.39.7-.58,1.05-.97,1.05-2.28,1.58-3.5,2.23-1.44.76-2.88,1.52-4.34,2.25-.32.17-.46.36-.51.73-.43,3.05-.92,6.1-1.32,9.15-.22,1.64-1.76,2.32-3,1.41-1.03-.75-2.16-1.34-3.22-2.04-.36-.24-.62-.21-.98-.02-1.29.71-2.6,1.38-3.9,2.07Zm3.21-22.91c.58-2.4,3.09-4.15,5.39-3.76,2.31.4,3.57,2.38,2.97,4.64-.56,2.09-2.62,3.68-4.78,3.68-2.53,0-4.18-2.1-3.58-4.56Zm20-26.8c1.95.44,3.04,2.36,2.48,4.35-.38,1.36-1.22,2.34-2.45,3-1.98,1.04-3.95,2.09-5.95,3.08-.56.28-.77.64-.85,1.23-.42,3.01-.87,6.02-1.32,9.03-.22,1.42-1.54,2.01-2.77,1.25-1.15-.71-2.3-1.41-3.43-2.14-.32-.21-.55-.2-.87-.03-1.37.74-2.74,1.46-4.12,2.17-.3.15-.63.29-.96.32-.92.1-1.49-.48-1.44-1.54.25-1.72.52-3.58.79-5.43.19-1.34.37-2.67.6-4,.06-.38-.04-.54-.34-.72-1.69-1.03-3.36-2.07-5.05-3.1-1.6-.99-2.18-2.67-1.51-4.45.98-2.6,4.24-4.07,6.8-2.35,2.37,1.6,4.86,3.02,7.28,4.54.36.24.63.2.98.02,2.92-1.55,5.85-3.06,8.77-4.61,1.06-.57,2.16-.89,3.36-.62Zm-15.99-.62c.32-2.55,2.99-4.58,5.47-4.17,2.25.37,3.52,2.28,2.99,4.52-.5,2.13-2.61,3.8-4.8,3.81-2.35,0-3.96-1.82-3.66-4.16Zm-22.4-14.04c.4-2.51,3.01-4.45,5.45-4.06,2.23.37,3.5,2.26,3.01,4.47-.48,2.15-2.61,3.86-4.82,3.86-2.4,0-4.02-1.9-3.64-4.27Zm-10.07,2.06c1.29-1.3,3.58-2.03,5.63-.68,2.41,1.57,4.89,3.03,7.33,4.57.36.22.62.21.98.02,2.94-1.56,5.89-3.09,8.82-4.64,1.15-.6,2.33-.92,3.61-.51,1.44.47,2.35,1.73,2.34,3.42-.12,1.67-1.04,3-2.66,3.86-2.04,1.09-4.09,2.15-6.15,3.21-.32.17-.47.35-.52.72-.42,3.01-.87,6.02-1.32,9.03-.02.18-.05.36-.09.54-.28,1.22-1.56,1.79-2.64,1.14-1.2-.73-2.39-1.5-3.6-2.21-.19-.12-.54-.13-.74-.03-1.32.66-2.61,1.35-3.91,2.04-.18.09-.35.19-.54.28-.56.25-1.13.32-1.66-.05-.52-.37-.55-.91-.47-1.48.21-1.43.42-2.87.64-4.3.25-1.69.51-3.39.73-5.08.03-.18-.16-.48-.33-.59-1.56-.99-3.1-2.04-4.73-2.9-2.74-1.45-2.56-4.53-.72-6.36Zm-16.44,12.01c.3-2.7,3.24-4.77,5.86-4.14,1.99.48,3.1,2.41,2.6,4.49-.53,2.14-2.62,3.77-4.83,3.76-2.34,0-3.9-1.77-3.63-4.11Zm-11.23,3.82c.89-2.77,4.3-4.29,6.84-2.58,2.37,1.6,4.86,3.03,7.28,4.55.36.22.62.23.99.04,2.9-1.54,5.82-3.04,8.72-4.58,1.18-.63,2.38-.99,3.71-.57,1.45.45,2.35,1.7,2.35,3.51-.12,1.54-1,2.88-2.59,3.74-2.01,1.07-4.03,2.12-6.06,3.15-.44.22-.64.47-.71.99-.41,3.01-.9,6.02-1.3,9.03-.22,1.57-1.74,2.24-2.94,1.38-1.07-.76-2.23-1.38-3.32-2.1-.32-.2-.55-.19-.88-.02-1.32.73-2.67,1.42-4,2.12-.22.11-.43.24-.66.31-1.12.37-2.01-.37-1.85-1.53.19-1.42.41-2.83.62-4.25.26-1.73.51-3.47.79-5.2.06-.36-.12-.5-.37-.66-1.69-1.03-3.37-2.07-5.05-3.1-1.53-.95-2.12-2.51-1.57-4.23Zm15.72,23.5c-.08,2.94-3.35,5.33-6.11,4.47-.39-.12-.76-.33-1.14-.48-.05-.06-.09-.13-.13-.19-1.28-1.11-1.4-2.52-1.09-4.05.48-.71.86-1.52,1.45-2.11,1.09-1.09,2.47-1.57,4.03-1.3,1.87.32,3.04,1.78,2.99,3.66Zm-19.43,3.48c1.18-2.08,3.99-3.26,6.22-1.86,2.51,1.59,5.06,3.14,7.59,4.72.43.27.74.22,1.02-.17.69-.32,1.39-.62,2.06-.97,2.36-1.22,4.71-2.46,7.07-3.68.94-.5,1.95-.65,2.99-.4,1.99.49,3.03,2.51,2.35,4.57-.43,1.27-1.27,2.18-2.45,2.79-2.02,1.05-4.03,2.11-6.05,3.14-.41.21-.59.46-.65.91-.43,3.1-.88,6.18-1.34,9.27-.21,1.39-1.57,1.99-2.79,1.25-1.15-.71-2.3-1.41-3.43-2.14-.31-.21-.55-.2-.87-.03-1.38.75-2.77,1.49-4.17,2.19-.33.17-.72.29-1.09.3-.82.03-1.39-.64-1.28-1.47.45-3.07.89-6.14,1.37-9.2.08-.54.03-.87-.5-1.17-1.6-.93-3.18-1.9-4.73-2.92-.56-.37-1-.91-1.49-1.37-.59-1.28-.52-2.53.17-3.76Zm-2.84,35.82h2.45c-.64,3.39-1.27,6.76-1.93,10.23,1.28-.08,2.48-.16,3.72-.24-.08.47-.16.92-.24,1.39h-6.15c.72-3.81,1.43-7.59,2.15-11.38Zm-10.65,7.98c-.33,0-.55.07-.71.4-.42.85-.9,1.67-1.3,2.53-.19.41-.4.59-.86.52-.27-.05-.56-.01-.94-.01.12-.21.21-.38.31-.55,1.97-3.34,3.97-6.68,5.9-10.05.45-.78.9-1.24,1.9-.91.77,3.81,1.54,7.66,2.32,11.53h-2.78c-.14-.96-.31-1.93-.42-2.9-.05-.43-.19-.58-.63-.56-.93.03-1.86.02-2.79,0Zm5.78,15.02c-.4,1.85-.8,3.73-1.21,5.64h-2.84c.84-3.96,1.68-7.9,2.52-11.85h7.16c-.11.5-.2.95-.31,1.42-1.21-.05-2.43-.07-3.65-.17-.52-.04-.69.15-.77.63-.18,1.01-.41,2.01-.62,3.02h4.22c-.09.42-.18.88-.27,1.31h-4.23Zm13.16,5.63c-.19-1.17-.37-2.34-.56-3.56-1.45,0-2.83-.01-4.22.01-.15.01-.35.19-.44.34-.55.89-1.1,1.78-1.59,2.71-.21.4-.44.55-.89.49-.34-.04-.7-.01-1.14-.01.14-.23.23-.41.34-.57,2.35-3.54,4.71-7.08,7.04-10.64.35-.54.69-.9,1.38-.74.17.04.36,0,.61,0,.9,3.99,1.8,7.96,2.7,11.97h-3.23Zm4.22-17.26h-6.16c.72-3.8,1.43-7.57,2.15-11.37h2.45c-.64,3.41-1.27,6.76-1.93,10.23,1.29-.08,2.5-.16,3.72-.24-.08.47-.15.91-.23,1.38Zm16.18,17.27h-2.99c.28-2.6.56-5.2.86-7.97-.2.23-.31.32-.39.43-1.71,2.32-3.43,4.63-5.13,6.96-.29.4-.57.66-1.12.48-.8-2.49-1.61-5.01-2.42-7.53-.06-.02-.13-.03-.19-.04-.81,2.54-1.62,5.09-2.44,7.66h-1.62c.04-.14.08-.29.13-.42,1.34-3.6,2.7-7.2,4.03-10.81.17-.45.33-.66.84-.55.29.06.6,0,.95-.03.86,2.66,1.73,5.33,2.62,8.08.17-.18.29-.3.39-.43,1.84-2.43,3.68-4.86,5.5-7.29.2-.27.38-.41.74-.34.35.07.72.02,1.12.02-.29,3.9-.58,7.83-.88,11.78Zm5.67,0h-2.85c.85-3.96,1.68-7.89,2.51-11.81h2.84c-.83,3.95-1.67,7.88-2.5,11.81Zm1.47-17.16c-1.08.09-2.19.24-3.24.07-2.81-.46-4.16-2.42-3.79-5.26.63-4.81,5.45-7.83,9.98-6.25.3.1.59.25.95.41-.25.61-.48,1.19-.74,1.81-.12-.08-.21-.1-.24-.15-1.03-1.82-3.18-1.79-4.73-.65-1.89,1.4-3.05,4.92-2.39,7.16.44,1.49,1.87,2.38,3.45,2.01.8-.19,1.55-.62,2.32-.96.14-.05.26-.14.46-.25-.18,1.3-.87,1.97-2.03,2.06Zm9.13,17.08h-7.13c.83-3.92,1.65-7.82,2.48-11.73h2.84c-.73,3.48-1.46,6.95-2.22,10.53,1.48-.07,2.88-.14,4.31-.21-.09.47-.18.91-.28,1.41Zm1.05-20.57c-1.22,0-2.39-.02-3.55.01-.16.01-.38.21-.47.37-.46.83-.91,1.66-1.31,2.51-.2.43-.42.64-.91.55-.27-.05-.55-.01-.89-.01.11-.2.18-.36.27-.51,2-3.39,4.03-6.75,5.97-10.17.45-.8.95-1.09,1.85-.85.76,3.81,1.54,7.67,2.32,11.55h-2.78c-.16-1.11-.33-2.26-.5-3.45Zm1.67,20.65c.85-3.97,1.68-7.89,2.52-11.81h2.84c-.84,3.95-1.67,7.89-2.51,11.81h-2.85Zm13.93-.01c-.18-1.17-.38-2.35-.57-3.56-1.45,0-2.82-.01-4.18.02-.17,0-.38.19-.48.36-.56.91-1.11,1.82-1.62,2.76-.18.34-.38.45-.75.42-.39-.04-.79-.01-1.27-.01.15-.24.26-.41.36-.57,2.35-3.55,4.72-7.08,7.05-10.64.35-.54.67-.92,1.37-.75.17.04.36,0,.62,0,.89,3.96,1.79,7.94,2.7,11.97h-3.23Zm1.7-17.19h-2.46c.72-3.83,1.44-7.62,2.16-11.44h2.45c-.71,3.81-1.43,7.61-2.15,11.44Zm12.63-11.57c2.32.54,3.53,2.59,3.19,5.17-.52,3.91-3.65,6.63-7.84,6.65-.86.03-1.87-.14-2.79-.65-1.54-.86-2.14-2.27-2.1-3.94.13-5.3,4.84-8.31,9.54-7.23Zm-1.98,28.71h-7.13c.84-3.94,1.67-7.85,2.5-11.75h2.84c-.74,3.49-1.47,6.95-2.23,10.53,1.47-.07,2.87-.14,4.31-.21-.11.53-.2.98-.29,1.43Zm10.96-5.52c-.33-.02-.71-.05-1.08-.06-.93-.02-1.85-.06-2.78-.05-.14,0-.38.16-.41.29-.31,1.33-.58,2.67-.88,4.12,1.47-.06,2.89-.13,4.34-.19-.09.45-.18.9-.28,1.39h-7.17c.83-3.92,1.67-7.84,2.5-11.77h7.15c-.09.48-.19.95-.28,1.42-1.4-.07-2.8-.14-4.27-.21-.27,1.26-.53,2.47-.79,3.69h4.23c-.08.4-.17.85-.28,1.37Zm5.82-2.49c.48.32,1.01.57,1.52.86.23.12.47.24.69.37,1.97,1.18,2.33,3.09.9,4.9-1.06,1.35-2.52,1.96-4.18,2.15-1.3.15-2.56.04-3.78-.68.43-.76.69-1.57,1.19-2.25.76,1.93,2.53,2.53,4.12,1.44,1.24-.85,1.23-2.28-.05-3.04-.61-.36-1.26-.63-1.88-.97-1.6-.88-2.06-2.09-1.4-3.8.74-1.93,2.27-2.81,4.23-3.03,1.23-.13,2.45-.02,3.57.77-.36.61-.7,1.2-1.09,1.88-.13-.23-.21-.32-.25-.42-.37-.88-.9-1.24-1.8-1.24-1.16,0-1.97.47-2.31,1.32-.29.73-.15,1.29.52,1.74Zm6.06-16.94c.55.37,1.13.7,1.69,1.05,1.8,1.12,2.21,2.77,1.17,4.6-1.32,2.31-4.86,3.18-7.04,1.69.31-.71.62-1.43.94-2.15.05.01.1.02.16.03.03.09.08.16.1.25.23,1.18,1.11,1.78,2.29,1.57,1.22-.21,2.07-1.27,1.81-2.36-.08-.35-.37-.72-.66-.95-.49-.38-1.07-.64-1.61-.96-1.36-.8-1.78-1.73-1.46-3.29.6-3.02,4.5-4.58,6.84-2.64-.28.55-.57,1.12-.91,1.79-.14-.22-.2-.29-.23-.38-.35-.94-.9-1.31-1.82-1.21-1.01.11-1.69.73-1.82,1.64-.09.56.1,1.01.55,1.32Z"/>
    <rect class="cls-8" x="13.8" y="50.37" width="100.5" height="7.39"/>
    <path class="cls-6" d="m56.97,27.43c-.12,1.54-1,2.88-2.59,3.74-2.01,1.07-4.03,2.12-6.06,3.15-.44.22-.64.47-.71.99-.41,3.01-.9,6.02-1.3,9.03-.22,1.57-1.74,2.24-2.94,1.38-1.07-.76-2.23-1.38-3.32-2.1-.32-.2-.55-.19-.88-.02-1.32.73-2.67,1.42-4,2.12-.22.11-.43.24-.66.31-1.12.37-2.01-.37-1.85-1.53.19-1.42.41-2.83.62-4.25.26-1.73.51-3.47.79-5.2.06-.36-.12-.5-.37-.66-1.69-1.03-3.37-2.07-5.05-3.1-1.53-.95-2.12-2.51-1.57-4.23.89-2.77,4.3-4.29,6.84-2.58,2.37,1.6,4.86,3.03,7.28,4.55.36.22.62.23.99.04,2.9-1.54,5.82-3.04,8.72-4.58,1.18-.63,2.38-.99,3.71-.57,1.45.45,2.35,1.7,2.35,3.51Z"/>
    <path class="cls-6" d="m101.35,56.71c-.17.36-.39.7-.58,1.05-.97,1.05-2.28,1.58-3.5,2.23-1.44.76-2.88,1.52-4.34,2.25-.32.17-.46.36-.51.73-.43,3.05-.92,6.1-1.32,9.15-.22,1.64-1.76,2.32-3,1.41-1.03-.75-2.16-1.34-3.22-2.04-.36-.24-.62-.21-.98-.02-1.29.71-2.6,1.38-3.9,2.07-.19.1-.39.2-.6.28-1.16.46-2.11-.25-1.95-1.49.19-1.48.43-2.95.65-4.42.25-1.7.51-3.39.73-5.09.02-.18-.17-.47-.35-.58-1.53-.97-3.1-1.88-4.61-2.88-.68-.44-1.24-1.06-1.86-1.6-.29-.8-.44-1.62-.26-2.48.62-2.12,2.01-3.38,4.22-3.68.86-.12,1.67.09,2.41.55,2.55,1.58,5.1,3.15,7.64,4.74.31.19.55.24.88.06,2.48-1.32,4.98-2.62,7.47-3.93.14-.07.26-.18.39-.28.79-.34,1.56-.76,2.38-1.01,1.41-.42,2.76-.15,3.75.97,1.05,1.18,1.12,2.58.46,4.01Z"/>
    <path class="cls-6" d="m79.19,42.21c-.4,1.32-1.26,2.27-2.48,2.91-2.06,1.06-4.11,2.13-6.15,3.22-.22.12-.46.38-.49.6-.39,2.46-.74,4.94-1.1,7.41-.05.48-.11.95-.16,1.43-.06.27-.12.55-.19.82-.3,1.27-1.55,1.8-2.67,1.12-1.17-.72-2.34-1.43-3.49-2.17-.31-.2-.55-.21-.87-.04-1.38.75-2.77,1.48-4.17,2.19-.33.17-.72.29-1.08.31-.79.03-1.33-.55-1.3-1.34.01-.28.06-.56.1-.84.04-.45.09-.89.14-1.34.19-1.17.4-2.34.59-3.51.2-1.29.37-2.59.58-3.88.07-.4-.02-.62-.38-.83-1.66-.99-3.3-2.02-4.94-3.03-1.78-1.1-2.31-2.91-1.43-4.81,1.07-2.3,4.14-3.71,6.66-2.02,2.36,1.58,4.82,3,7.22,4.52.38.23.65.25,1.04.04,2.93-1.56,5.88-3.09,8.82-4.64,1.07-.56,2.17-.87,3.37-.57,1.96.49,3.01,2.43,2.38,4.45Z"/>
    <path class="cls-6" d="m75.27,69.29c-.11,1.5-1.03,2.8-2.63,3.65-2.04,1.08-4.1,2.16-6.16,3.21-.35.18-.49.41-.54.78-.45,3.09-.92,6.18-1.34,9.27-.18,1.34-1.65,2.14-2.8,1.34-1.11-.77-2.3-1.42-3.43-2.15-.32-.21-.56-.21-.88-.04-1.38.75-2.77,1.49-4.17,2.19-.33.17-.72.3-1.08.31-.83.03-1.4-.66-1.28-1.48.45-3.07.89-6.14,1.37-9.21.09-.54,0-.86-.51-1.16-1.62-.95-3.2-1.96-4.8-2.93-1.68-1.03-2.25-2.77-1.5-4.6,1.03-2.49,4.24-3.91,6.72-2.24,2.34,1.58,4.79,2.98,7.18,4.49.43.27.74.3,1.19.05,2.95-1.57,5.91-3.11,8.88-4.66.91-.48,1.86-.75,2.9-.57,1.77.3,2.9,1.63,2.88,3.75Z"/>
    <path class="cls-6" d="m83.46,13.41c-.12,1.67-1.04,3-2.66,3.86-2.04,1.09-4.09,2.15-6.15,3.21-.32.17-.47.35-.52.72-.42,3.01-.87,6.02-1.32,9.03-.02.18-.05.36-.09.54-.28,1.22-1.56,1.79-2.64,1.14-1.2-.73-2.39-1.5-3.6-2.21-.19-.12-.54-.13-.74-.03-1.32.66-2.61,1.35-3.91,2.04-.18.09-.35.19-.54.28-.56.25-1.13.32-1.66-.05-.52-.37-.55-.91-.47-1.48.21-1.43.42-2.87.64-4.3.25-1.69.51-3.39.73-5.08.03-.18-.16-.48-.33-.59-1.56-.99-3.1-2.04-4.73-2.9-2.74-1.45-2.56-4.53-.72-6.36,1.29-1.3,3.58-2.03,5.63-.68,2.41,1.57,4.89,3.03,7.33,4.57.36.22.62.21.98.02,2.94-1.56,5.89-3.09,8.82-4.64,1.15-.6,2.33-.92,3.61-.51,1.44.47,2.35,1.73,2.34,3.42Z"/>
    <path class="cls-6" d="m105.69,28.18c-.38,1.36-1.22,2.34-2.45,3-1.98,1.04-3.95,2.09-5.95,3.08-.56.28-.77.64-.85,1.23-.42,3.01-.87,6.02-1.32,9.03-.22,1.42-1.54,2.01-2.77,1.25-1.15-.71-2.3-1.41-3.43-2.14-.32-.21-.55-.2-.87-.03-1.37.74-2.74,1.46-4.12,2.17-.3.15-.63.29-.96.32-.92.1-1.49-.48-1.44-1.54.25-1.72.52-3.58.79-5.43.19-1.34.37-2.67.6-4,.06-.38-.04-.54-.34-.72-1.69-1.03-3.36-2.07-5.05-3.1-1.6-.99-2.18-2.67-1.51-4.45.98-2.6,4.24-4.07,6.8-2.35,2.37,1.6,4.86,3.02,7.28,4.54.36.24.63.2.98.02,2.92-1.55,5.85-3.06,8.77-4.61,1.06-.57,2.16-.89,3.36-.62,1.95.44,3.04,2.36,2.48,4.35Z"/>
    <path class="cls-7" d="m52.67,56.26c-.43,1.27-1.27,2.18-2.45,2.79-2.02,1.05-4.03,2.11-6.05,3.14-.41.21-.59.46-.65.91-.43,3.1-.88,6.18-1.34,9.27-.21,1.39-1.57,1.99-2.79,1.25-1.15-.71-2.3-1.41-3.43-2.14-.31-.21-.55-.2-.87-.03-1.38.75-2.77,1.49-4.17,2.19-.33.17-.72.29-1.09.3-.82.03-1.39-.64-1.28-1.47.45-3.07.89-6.14,1.37-9.2.08-.54.03-.87-.5-1.17-1.6-.93-3.18-1.9-4.73-2.92-.56-.37-1-.91-1.49-1.37-.59-1.28-.52-2.53.17-3.76,1.18-2.08,3.99-3.26,6.22-1.86,2.51,1.59,5.06,3.14,7.59,4.72.43.27.74.22,1.02-.17.69-.32,1.39-.62,2.06-.97,2.36-1.22,4.71-2.46,7.07-3.68.94-.5,1.95-.65,2.99-.4,1.99.49,3.03,2.51,2.35,4.57Z"/>
    <path class="cls-3" d="m50.1,106.72c-.29,3.9-.58,7.83-.88,11.78h-2.99c.28-2.6.56-5.2.86-7.97-.2.23-.31.32-.39.43-1.71,2.32-3.43,4.63-5.13,6.96-.29.4-.57.66-1.12.48-.8-2.49-1.61-5.01-2.42-7.53-.06-.02-.13-.03-.19-.04-.81,2.54-1.62,5.09-2.44,7.66h-1.62c.04-.14.08-.29.13-.42,1.34-3.6,2.7-7.2,4.03-10.81.17-.45.33-.66.84-.55.29.06.6,0,.95-.03.86,2.66,1.73,5.33,2.62,8.08.17-.18.29-.3.39-.43,1.84-2.43,3.68-4.86,5.5-7.29.2-.27.38-.41.74-.34.35.07.72.02,1.12.02Z"/>
    <path class="cls-3" d="m96.47,89.73c-4.7-1.08-9.41,1.93-9.54,7.23-.04,1.67.56,3.08,2.1,3.94.92.51,1.93.68,2.79.65,4.19-.02,7.32-2.74,7.84-6.65.34-2.58-.87-4.63-3.19-5.17Zm-1.01,8.98c-.33.45-.73.87-1.18,1.19-1,.7-2.12.92-3.26.39-1.11-.52-1.43-1.57-1.44-2.67-.02-1.97.48-3.84,1.66-5.45.36-.5.89-.95,1.44-1.24,2.16-1.13,4.11-.04,4.34,2.37.02.2.01.41.01.61-.08,1.74-.53,3.38-1.57,4.8Z"/>
    <path class="cls-3" d="m45.03,89.73c-5.12-1.15-9.71,2.46-9.52,7.59.08,2.07,1.26,3.55,3.27,4.04.58.14,1.19.17,1.79.25,4.45-.08,7.82-3.49,7.68-7.8-.07-2.08-1.23-3.63-3.22-4.08Zm.55,4.16c-.09,1.95-.61,3.76-1.91,5.28-.59.69-1.33,1.15-2.24,1.33-1.62.32-2.98-.52-3.19-2.14-.32-2.42.3-4.66,1.87-6.54.44-.53,1.17-.95,1.85-1.15,1.98-.57,3.41.49,3.62,2.55.02.22,0,.45,0,.67Z"/>
    <path class="cls-2" d="m112.88,89.85c-.72,3.83-1.44,7.64-2.16,11.45-.92.19-1.49-.03-2.02-.82-1.54-2.34-3.2-4.59-4.82-6.88-.06-.1-.14-.19-.3-.4-.53,2.77-1.04,5.41-1.54,8.06h-1.3c.72-3.83,1.43-7.62,2.16-11.46.49,0,.96-.04,1.41.02.19.03.38.25.51.43,1.67,2.33,3.32,4.66,4.98,7,.07.11.16.21.29.4.51-2.66,1-5.22,1.48-7.8h1.31Z"/>
    <path class="cls-4" d="m73.28,9.59c-.48,2.15-2.61,3.86-4.82,3.86-2.4,0-4.02-1.9-3.64-4.27.4-2.51,3.01-4.45,5.45-4.06,2.23.37,3.5,2.26,3.01,4.47Z"/>
    <path class="cls-4" d="m95.68,23.57c-.5,2.13-2.61,3.8-4.8,3.81-2.35,0-3.96-1.82-3.66-4.16.32-2.55,2.99-4.58,5.47-4.17,2.25.37,3.52,2.28,2.99,4.52Z"/>
    <path class="cls-4" d="m46.77,23.59c-.53,2.14-2.62,3.77-4.83,3.76-2.34,0-3.9-1.77-3.63-4.11.3-2.7,3.24-4.77,5.86-4.14,1.99.48,3.1,2.41,2.6,4.49Z"/>
    <path class="cls-4" d="m69.18,37.49c-.52,2.13-2.63,3.78-4.83,3.78-2.52,0-4.17-2.14-3.55-4.59.6-2.4,3.1-4.12,5.41-3.73,2.25.39,3.5,2.31,2.97,4.54Z"/>
    <path class="cls-6" d="m42.8,50.57c-.08,2.94-3.35,5.33-6.11,4.47-.39-.12-.76-.33-1.14-.48-.05-.06-.09-.13-.13-.19-1.28-1.11-1.4-2.52-1.09-4.05.48-.71.86-1.52,1.45-2.11,1.09-1.09,2.47-1.57,4.03-1.3,1.87.32,3.04,1.78,2.99,3.66Z"/>
    <path class="cls-4" d="m91.57,51.52c-.56,2.09-2.62,3.68-4.78,3.68-2.53,0-4.18-2.1-3.58-4.56.58-2.4,3.09-4.15,5.39-3.76,2.31.4,3.57,2.38,2.97,4.64Z"/>
    <path class="cls-6" d="m65.06,65.45c-.56,2.08-2.63,3.67-4.79,3.67-2.52-.01-4.16-2.11-3.56-4.58.5-2.07,2.44-3.68,4.56-3.79,2.67-.14,4.48,2.11,3.79,4.7Z"/>
    <path class="cls-2" d="m82.67,106.52c-.26,0-.45.04-.62,0-.7-.17-1.02.21-1.37.75-2.33,3.56-4.7,7.09-7.05,10.64-.1.16-.21.33-.36.57.48,0,.88-.03,1.27.01.37.03.57-.08.75-.42.51-.94,1.06-1.85,1.62-2.76.1-.17.31-.36.48-.36,1.36-.03,2.73-.02,4.18-.02.19,1.21.39,2.39.57,3.56h3.23c-.91-4.03-1.81-8.01-2.7-11.97Zm-4.79,7.32c.88-1.34,1.71-2.62,2.63-4.03.29,1.45.55,2.72.82,4.03h-3.45Z"/>
    <path class="cls-3" d="m29.35,106.52c-.25,0-.44.04-.61,0-.69-.16-1.03.2-1.38.74-2.33,3.56-4.69,7.1-7.04,10.64-.11.16-.2.34-.34.57.44,0,.8-.03,1.14.01.45.06.68-.09.89-.49.49-.93,1.04-1.82,1.59-2.71.09-.15.29-.33.44-.34,1.39-.02,2.77-.01,4.22-.01.19,1.22.37,2.39.56,3.56h3.23c-.9-4.01-1.8-7.98-2.7-11.97Zm-4.78,7.33c.86-1.34,1.69-2.62,2.61-4.03.29,1.41.56,2.68.84,4.03h-3.45Z"/>
    <path class="cls-1" d="m102.29,107.86c-.27,1.26-.53,2.47-.79,3.69h4.23c-.08.4-.17.85-.28,1.37-.33-.02-.71-.05-1.08-.06-.93-.02-1.85-.06-2.78-.05-.14,0-.38.16-.41.29-.31,1.33-.58,2.67-.88,4.12,1.47-.06,2.89-.13,4.34-.19-.09.45-.18.9-.28,1.39h-7.17c.83-3.92,1.67-7.84,2.5-11.77h7.15c-.09.48-.19.95-.28,1.42-1.4-.07-2.8-.14-4.27-.21Z"/>
    <path class="cls-3" d="m114.38,116.57c-1.06,1.35-2.52,1.96-4.18,2.15-1.3.15-2.56.04-3.78-.68.43-.76.69-1.57,1.19-2.25.76,1.93,2.53,2.53,4.12,1.44,1.24-.85,1.23-2.28-.05-3.04-.61-.36-1.26-.63-1.88-.97-1.6-.88-2.06-2.09-1.4-3.8.74-1.93,2.27-2.81,4.23-3.03,1.23-.13,2.45-.02,3.57.77-.36.61-.7,1.2-1.09,1.88-.13-.23-.21-.32-.25-.42-.37-.88-.9-1.24-1.8-1.24-1.16,0-1.97.47-2.31,1.32-.29.73-.15,1.29.52,1.74.48.32,1.01.57,1.52.86.23.12.47.24.69.37,1.97,1.18,2.33,3.09.9,4.9Z"/>
    <path class="cls-1" d="m14.18,89.77c-1-.33-1.45.13-1.9.91-1.93,3.37-3.93,6.71-5.9,10.05-.1.17-.19.34-.31.55.38,0,.67-.04.94.01.46.07.67-.11.86-.52.4-.86.88-1.68,1.3-2.53.16-.33.38-.41.71-.4.93.02,1.86.03,2.79,0,.44-.02.58.13.63.56.11.97.28,1.94.42,2.9h2.78c-.78-3.87-1.55-7.72-2.32-11.53Zm-4.14,7.01c.76-1.3,1.46-2.51,2.26-3.88.26,1.39.48,2.62.72,3.88h-2.98Z"/>
    <path class="cls-1" d="m67.5,89.76c-.9-.24-1.4.05-1.85.85-1.94,3.42-3.97,6.78-5.97,10.17-.09.15-.16.31-.27.51.34,0,.62-.04.89.01.49.09.71-.12.91-.55.4-.85.85-1.68,1.31-2.51.09-.16.31-.36.47-.37,1.16-.03,2.33-.01,3.55-.01.17,1.19.34,2.34.5,3.45h2.78c-.78-3.88-1.56-7.74-2.32-11.55Zm-4.13,7.03c.74-1.29,1.46-2.53,2.26-3.89.25,1.39.47,2.62.7,3.89h-2.96Z"/>
    <path class="cls-1" d="m16.56,108.53c-.18,1.01-.41,2.01-.62,3.02h4.22c-.09.42-.18.88-.27,1.31h-4.23c-.4,1.85-.8,3.73-1.21,5.64h-2.84c.84-3.96,1.68-7.9,2.52-11.85h7.16c-.11.5-.2.95-.31,1.42-1.21-.05-2.43-.07-3.65-.17-.52-.04-.69.15-.77.63Z"/>
    <path class="cls-2" d="m60.26,90.32c-.25.61-.48,1.19-.74,1.81-.12-.08-.21-.1-.24-.15-1.03-1.82-3.18-1.79-4.73-.65-1.89,1.4-3.05,4.92-2.39,7.16.44,1.49,1.87,2.38,3.45,2.01.8-.19,1.55-.62,2.32-.96.14-.05.26-.14.46-.25-.18,1.3-.87,1.97-2.03,2.06-1.08.09-2.19.24-3.24.07-2.81-.46-4.16-2.42-3.79-5.26.63-4.81,5.45-7.83,9.98-6.25.3.1.59.25.95.41Z"/>
    <path class="cls-2" d="m120.19,99.15c-1.32,2.31-4.86,3.18-7.04,1.69.31-.71.62-1.43.94-2.15.05.01.1.02.16.03.03.09.08.16.1.25.23,1.18,1.11,1.78,2.29,1.57,1.22-.21,2.07-1.27,1.81-2.36-.08-.35-.37-.72-.66-.95-.49-.38-1.07-.64-1.61-.96-1.36-.8-1.78-1.73-1.46-3.29.6-3.02,4.5-4.58,6.84-2.64-.28.55-.57,1.12-.91,1.79-.14-.22-.2-.29-.23-.38-.35-.94-.9-1.31-1.82-1.21-1.01.11-1.69.73-1.82,1.64-.09.56.1,1.01.55,1.32.55.37,1.13.7,1.69,1.05,1.8,1.12,2.21,2.77,1.17,4.6Z"/>
    <path class="cls-3" d="m94.78,117.02c-.11.53-.2.98-.29,1.43h-7.13c.84-3.94,1.67-7.85,2.5-11.75h2.84c-.74,3.49-1.47,6.95-2.23,10.53,1.47-.07,2.87-.14,4.31-.21Z"/>
    <path class="cls-3" d="m65.77,117.02c-.09.47-.18.91-.28,1.41h-7.13c.83-3.92,1.65-7.82,2.48-11.73h2.84c-.73,3.48-1.46,6.95-2.22,10.53,1.48-.07,2.88-.14,4.31-.21Z"/>
    <path class="cls-1" d="m81.32,89.84c-.08.47-.15.9-.23,1.38-.93-.08-1.86-.16-2.84-.24-.65,3.46-1.3,6.86-1.95,10.3h-2.44c.63-3.4,1.27-6.79,1.93-10.3-1.06.08-2.05.15-3.02.22.08-.45.16-.88.25-1.36h8.3Z"/>
    <path class="cls-5" d="m57.39,106.7c-.83,3.95-1.67,7.88-2.5,11.81h-2.85c.85-3.96,1.68-7.89,2.51-11.81h2.84Z"/>
    <path class="cls-5" d="m73.57,106.7c-.84,3.95-1.67,7.89-2.51,11.81h-2.85c.85-3.97,1.68-7.89,2.52-11.81h2.84Z"/>
    <path class="cls-2" d="m24.77,99.85c-.08.47-.16.92-.24,1.39h-6.15c.72-3.81,1.43-7.59,2.15-11.38h2.45c-.64,3.39-1.27,6.76-1.93,10.23,1.28-.08,2.48-.16,3.72-.24Z"/>
    <path class="cls-2" d="m33.27,99.85c-.08.47-.15.91-.23,1.38h-6.16c.72-3.8,1.43-7.57,2.15-11.37h2.45c-.64,3.41-1.27,6.76-1.93,10.23,1.29-.08,2.5-.16,3.72-.24Z"/>
    <path class="cls-5" d="m85.99,89.86c-.71,3.81-1.43,7.61-2.15,11.44h-2.46c.72-3.83,1.44-7.62,2.16-11.44h2.45Z"/>
    <path class="cls-9" d="m97.03,93.91c-.08,1.74-.53,3.38-1.56,4.8-.33.45-.73.87-1.19,1.19-1,.7-2.12.92-3.26.39-1.11-.52-1.43-1.57-1.44-2.67-.01-1.97.48-3.84,1.66-5.45.37-.5.89-.95,1.45-1.24,2.16-1.13,4.1-.04,4.34,2.37.02.2,0,.4,0,.6Z"/>
    <path class="cls-9" d="m45.58,93.89c-.09,1.96-.61,3.76-1.91,5.28-.59.69-1.33,1.15-2.24,1.33-1.62.32-2.98-.52-3.19-2.14-.32-2.42.3-4.66,1.87-6.53.45-.54,1.17-.96,1.85-1.15,1.98-.57,3.41.49,3.62,2.56.02.22,0,.44,0,.66Z"/>
    <path class="cls-10" d="m80.51,109.82c.29,1.45.55,2.72.82,4.03h-3.45c.88-1.34,1.71-2.62,2.63-4.03Z"/>
    <path class="cls-10" d="m28.02,113.85h-3.45c.87-1.34,1.69-2.61,2.61-4.03.29,1.41.56,2.68.84,4.03Z"/>
    <path class="cls-11" d="m10.04,96.78c.75-1.3,1.46-2.51,2.26-3.88.26,1.39.49,2.62.72,3.88h-2.97Z"/>
    <path class="cls-11" d="m65.63,92.9c.25,1.39.48,2.62.71,3.89h-2.96c.75-1.29,1.47-2.52,2.26-3.89Z"/>
  </g>
  <rect class="cls-12" x="-882.48" y="-260.19" width="1951.05" height="522.43"/>
</svg>