<?xml version="1.0" encoding="UTF-8"?>
<svg id="Calque_1" data-name="Calque 1" xmlns="http://www.w3.org/2000/svg" viewBox="0 0 200 128">
  <defs>
    <style>
      .cls-1 {
        fill: #ff6d75;
        stroke-miterlimit: 10;
      }

      .cls-1, .cls-2, .cls-3, .cls-4 {
        stroke-width: 2px;
      }

      .cls-1, .cls-3, .cls-4 {
        stroke: #000;
      }

      .cls-2 {
        stroke: #f3d587;
      }

      .cls-2, .cls-3, .cls-4, .cls-5 {
        stroke-linecap: round;
        stroke-linejoin: round;
      }

      .cls-2, .cls-4 {
        fill: #f3d587;
      }

      .cls-3 {
        fill: #fce9b9;
      }

      .cls-5 {
        fill: none;
        stroke: #fff;
        stroke-width: 8px;
      }
    </style>
  </defs>
  <g>
    <path class="cls-3" d="m23.1,24.28h73.12c1.95,0,3.54,1.59,3.54,3.54v49.59c0,1.95-1.59,3.54-3.54,3.54H23.1c-1.95,0-3.54-1.59-3.54-3.54V27.82c0-1.95,1.59-3.54,3.54-3.54Z"/>
    <path class="cls-3" d="m179.86,27.82v49.59c0,1.95-1.58,3.54-3.54,3.54h-73.12c-1.95,0-3.54-1.58-3.54-3.54V27.82c0-1.96,1.59-3.54,3.54-3.54h73.12c.22,0,.43.02.63.06,1.65.3,2.91,1.74,2.91,3.48Z"/>
    <rect class="cls-3" x="19.55" y="70.12" width="159.62" height="29.38"/>
    <rect class="cls-4" x="33.44" y="68.81" width="133.12" height="3.31"/>
    <path class="cls-2" d="m36.46,33.11c0,.83-.68,1.51-1.51,1.51s-1.51-.68-1.51-1.51.68-1.51,1.51-1.51,1.51.68,1.51,1.51Z"/>
    <path class="cls-2" d="m85.9,33.11c0,.83-.68,1.51-1.51,1.51s-1.51-.68-1.51-1.51.68-1.51,1.51-1.51,1.51.68,1.51,1.51Z"/>
    <path class="cls-2" d="m168.07,33.11c0,.83-.68,1.51-1.51,1.51s-1.51-.68-1.51-1.51.68-1.51,1.51-1.51,1.51.68,1.51,1.51Z"/>
    <path class="cls-2" d="m114.61,33.11c0,.83-.68,1.51-1.51,1.51s-1.51-.68-1.51-1.51.68-1.51,1.51-1.51,1.51.68,1.51,1.51Z"/>
    <path class="cls-2" d="m85.9,62.9c0,.83-.68,1.51-1.51,1.51s-1.51-.68-1.51-1.51.68-1.51,1.51-1.51,1.51.68,1.51,1.51Z"/>
    <path class="cls-2" d="m161.62,62.9c0,.83-.68,1.51-1.51,1.51s-1.51-.68-1.51-1.51.68-1.51,1.51-1.51,1.51.68,1.51,1.51Z"/>
    <path class="cls-2" d="m114.61,62.9c0,.83-.68,1.51-1.51,1.51s-1.51-.68-1.51-1.51.68-1.51,1.51-1.51,1.51.68,1.51,1.51Z"/>
    <path class="cls-2" d="m45.6,62.9c0,.83-.68,1.51-1.51,1.51s-1.51-.68-1.51-1.51.68-1.51,1.51-1.51,1.51.68,1.51,1.51Z"/>
    <path class="cls-2" d="m61.77,46.73c0,.83-.68,1.51-1.51,1.51s-1.51-.68-1.51-1.51.68-1.51,1.51-1.51,1.51.68,1.51,1.51Z"/>
    <path class="cls-2" d="m141.27,46.73c0,.83-.68,1.51-1.51,1.51s-1.51-.68-1.51-1.51.68-1.51,1.51-1.51,1.51.68,1.51,1.51Z"/>
    <path class="cls-4" d="m33.44,58.4v38.47c0,3.78-3.06,6.85-6.85,6.85h-11.54c-3.78,0-6.85-3.06-6.85-6.85v-38.47c0-3.78,3.06-6.85,6.85-6.85h11.54c.45,0,.89.04,1.31.13,3.15.61,5.54,3.38,5.54,6.72Z"/>
    <rect class="cls-4" x="166.56" y="51.56" width="25.23" height="52.16" rx="6.85" ry="6.85"/>
    <path class="cls-1" d="m66.63,56.71s-.01-.07-.02-.11c-.05-.26-.1-.51-.15-.77-.01-.07-.03-.14-.04-.2-.05-.28-.1-.56-.15-.83,0-.05-.02-.1-.03-.16-.04-.22-.07-.44-.11-.65-.01-.08-.02-.16-.04-.23-.04-.26-.07-.51-.1-.74-.38-4.31.16-12.02-.71-12.48-.7-.37-1.38.53-3.52.16-6.31-1.09-10.89-.86-11.68-.7-.81,0-5.33.74-11.28,3.12-.23.09-.44.16-.64.22-.06.02-.12.03-.18.05-.13.03-.26.06-.38.08-.06,0-.12.02-.18.03-.12.01-.23.02-.34.03-.04,0-.09,0-.13,0-.77.02-1.24-.14-1.62.17-.76.64,1.38,8.06,1.91,12.35.38,4.31-.16,12.02.71,12.48.7.37,1.38-.53,3.52-.16,6.31,1.09,10.87.65,11.66.49.81,0,5.36-.53,11.3-2.91,2.01-.81,2.86-.07,3.47-.58.26-.22.18-1.22-.05-2.62,0-.04-.01-.09-.02-.13-.29-1.66-.77-3.83-1.19-5.91Z"/>
    <path class="cls-1" d="m159.79,43.75c-.38-.3-.85-.12-1.62-.12-.04,0-.09,0-.13,0-.11,0-.22,0-.34-.02-.06,0-.12-.01-.18-.02-.12-.02-.25-.04-.38-.06-.06-.01-.12-.02-.19-.04-.2-.05-.42-.11-.65-.19-6.02-2.17-10.58-2.74-11.38-2.72-.79-.13-5.38-.2-11.65,1.12-2.12.44-2.83-.43-3.52-.03-.86.49-.04,8.18-.27,12.5-.02.24-.05.49-.08.75,0,.07-.02.15-.03.22-.03.22-.05.44-.09.67,0,.05-.01.09-.02.14-.04.28-.08.57-.13.86,0,.05-.02.1-.02.15-.04.29-.09.57-.14.87,0,0,0,.01,0,.02-.65,3.95-1.56,8.28-.97,8.74.63.48,1.45-.28,3.49.45,6.03,2.17,10.59,2.53,11.4,2.5.79.13,5.37.41,11.63-.9,2.12-.44,2.83.43,3.52.03.86-.49.04-8.18.27-12.5.37-4.31,2.25-11.81,1.46-12.41Z"/>
  </g>
  <rect class="cls-5" x="-1182.66" y="-1946.55" width="2244.45" height="5948.74"/>
</svg>