<?xml version="1.0" encoding="UTF-8"?>
<svg id="Calque_1" data-name="Calque 1" xmlns="http://www.w3.org/2000/svg" viewBox="0 0 128 128">
  <defs>
    <style>
      .cls-1 {
        fill: #76ac75;
      }

      .cls-2 {
        stroke: #000;
        stroke-miterlimit: 10;
        stroke-width: 2px;
      }

      .cls-2, .cls-3 {
        fill: none;
      }

      .cls-3 {
        stroke: #fff;
        stroke-linecap: round;
        stroke-linejoin: round;
        stroke-width: 8px;
      }
    </style>
  </defs>
  <g>
    <line class="cls-2" x1="63.5" y1="124.55" x2="63.5" y2="93.24"/>
    <g>
      <path class="cls-1" d="m98.41,107.1c-17.83,0-31.23-9.81-34.76-12.68-3.55,2.88-16.92,12.68-34.77,12.68h0c-1.87,0-3.76-.11-5.62-.33l-2.03-.24,1.43-1.46c6.67-6.77,15.84-10.67,24.01-12.47-11.45-1.82-27.42-6.67-40.7-19.28l-1.48-1.41,2.02-.31c2.6-.4,5.33-.6,8.1-.6,9.77,0,20.39,2.5,30.1,6.99-11-10.34-22.74-24.67-26.74-41.25l-.48-1.99,1.86.84c13.39,6.04,27.46,21.29,36.34,34.62-3.73-19.94-1.14-42,7.21-60.11l.93-2.02.89,2.04c10.57,24.14,8.62,47.54,5.36,62.42,9.1-14.41,24.06-30.73,37.86-36.96l1.86-.84-.48,1.99c-4,16.57-15.74,30.9-26.74,41.25,9.72-4.49,20.33-6.99,30.1-6.99,2.77,0,5.49.2,8.1.6l2.02.31-1.48,1.41c-13.28,12.61-29.25,17.46-40.7,19.28,8.17,1.8,17.34,5.7,24,12.47l1.43,1.46-2.03.24c-1.86.22-3.75.33-5.63.33Z"/>
      <path d="m63.81,10.55c12.13,27.7,7.71,54.32,3.57,68.65,8.41-15.81,25.49-35.69,40.98-42.68-4.76,19.73-20.81,36.3-32.64,46.24,10.13-6.09,23.64-10.75,36.97-10.75,2.67,0,5.32.19,7.95.58-16.1,15.29-36.11,19.07-47.66,19.88,10.17.73,22.72,4.94,30.94,13.3-1.88.22-3.72.32-5.51.32-18.63,0-32.39-10.98-34.6-12.85h-.31c-2.17,1.83-15.96,12.85-34.62,12.85-1.79,0-3.63-.1-5.51-.32,8.23-8.35,20.78-12.57,30.95-13.3-11.56-.81-31.56-4.58-47.67-19.88,2.62-.4,5.28-.58,7.95-.58,13.33,0,26.84,4.65,36.97,10.75-11.83-9.94-27.87-26.51-32.64-46.24,14.34,6.47,30.03,23.99,38.96,39.09-4.23-16.69-4.95-41.5,5.92-65.07m.05-4.88l-1.86,4.04c-7.83,16.97-10.64,37.38-8,56.32-8.98-12.49-21.89-25.76-34.23-31.33l-3.73-1.68.96,3.97c3.6,14.9,13.34,27.98,23.24,38.04-8.45-3.24-17.34-5.01-25.63-5.01-2.82,0-5.59.2-8.25.61l-4.04.61,2.96,2.81c11.82,11.23,25.75,16.38,36.81,18.72-7.1,2.15-14.49,5.87-20.14,11.6l-2.87,2.91,4.06.48c1.89.22,3.83.34,5.74.34,17.24,0,30.38-8.97,34.77-12.4,4.38,3.42,17.53,12.4,34.76,12.4,1.92,0,3.85-.11,5.74-.34l4.05-.48-2.86-2.91c-5.64-5.73-13.03-9.45-20.13-11.6,11.06-2.34,24.98-7.49,36.8-18.72l2.96-2.81-4.04-.61c-2.65-.4-5.43-.61-8.25-.61-8.29,0-17.18,1.77-25.63,5.01,9.91-10.06,19.65-23.14,23.24-38.04l.96-3.97-3.73,1.68c-12.8,5.78-26.2,19.57-35.49,33.05,2.58-14.99,3.14-36.19-6.41-58l-1.78-4.08h0Z"/>
    </g>
  </g>
  <rect class="cls-3" x="-437.61" y="-4971.2" width="6467.34" height="6437.3"/>
</svg>