<?xml version="1.0" encoding="UTF-8"?>
<svg id="Calque_1" data-name="Calque 1" xmlns="http://www.w3.org/2000/svg" viewBox="0 0 200 128">
  <defs>
    <style>
      .cls-1, .cls-2, .cls-3, .cls-4, .cls-5, .cls-6, .cls-7, .cls-8, .cls-9, .cls-10, .cls-11, .cls-12 {
        stroke-linecap: round;
        stroke-linejoin: round;
      }

      .cls-1, .cls-2, .cls-3, .cls-4, .cls-5, .cls-6, .cls-7, .cls-8, .cls-9, .cls-10, .cls-12 {
        stroke: #000;
      }

      .cls-1, .cls-13 {
        fill: #d6d6d6;
      }

      .cls-2 {
        fill: #87f3b9;
      }

      .cls-3 {
        fill: #87ccf3;
      }

      .cls-4 {
        fill: #b2f0e9;
      }

      .cls-5 {
        fill: #a07637;
      }

      .cls-6 {
        fill: #ff6d75;
      }

      .cls-7 {
        fill: #f3d587;
      }

      .cls-8 {
        fill: #ffbeed;
      }

      .cls-9, .cls-12 {
        fill: #fff;
      }

      .cls-10, .cls-11 {
        fill: none;
      }

      .cls-11 {
        stroke: #fff;
        stroke-width: 8px;
      }

      .cls-12 {
        stroke-width: .7px;
      }
    </style>
  </defs>
  <g>
    <polygon class="cls-1" points="40.77 111.12 41.46 111.12 40.36 77.68 39.67 77.68 40.77 111.12"/>
    <polygon class="cls-1" points="21.87 111.12 21.17 111.12 22.28 77.68 22.97 77.68 21.87 111.12"/>
  </g>
  <path class="cls-9" d="m118.12,36.2l-1.59-7.64s-2.62,3.18-3.54,10.12c-.87,6.61-1.76,5.36-4.61,13.54-.12.34-.4.6-.75.69-.16.04-.33.07-.5.07-.49,0-1.81.28-2.13.59-.31.31-.73.8-.73.8h4.22s.7.16.88-.99c0,0,4.99-6.85,5.84-8.21.85-1.36,2.9-8.98,2.9-8.98Z"/>
  <path class="cls-1" d="m127.27,27.64c1.12.36,1.55,1.62,1.55,1.62,1.97,2.15,3.09,12.08,3.06,12.44-.1,1.3.05,3.31.05,3.31,0,0-10.42,2.84-13.5,1.38-.5-.24-.81-.6-.84-1.11-.09-1.67-.27-3.25-.48-4.72-4.75-.68-5.62-3.08-5.62-3.08,0,0,.8-3.24,2.79-6.38,1.98-3.13,3.26-3.13,3.26-3.13h0c1.36-.47,3.28-.48,3.28-.48.36.44,2.41,1.86,4.86,1.84,0,0,1.84.26,1.59-1.69l-.69-1.56"/>
  <path class="cls-12" d="m120.7,23.11h0c-.07-.02-.58-.15-.88-.95-.32-.86-.69-.76-.73-1.66-.02-.84.85-.48.95-.43"/>
  <path class="cls-9" d="m121.38,16.32c.39.02.83-.07,1.28-.38.19.11.38.17.59.15.3-.03.49-.23.63-.48,0,0,.01.01.02.01.08.08.62.55,1.28-.09.34.41.89.46,1.39.36.3.23.71.21.71.21.02.03.06.07.07.11,1.24,1.75,1.36,2.93,1.37,3.06.08-.31.13-.61.17-.89-.07.52-.16.9-.19.98h0s0,.02,0,.02h0c.02.5,0,1.94-.21,3.27-.17,1.1-1.23,3.46-2.55,3.71-3.04.58-5.06-2.77-5.4-3.83-.4-1.28-.46-1.95-.52-2.45h0c-.01-.06-.02-.11-.01-.18.02.05.03.08.03.08-.02-.2-.02-.41-.01-.61.13-1.03,1.07-2.73,1.18-3.02l.14-.03Z"/>
  <path class="cls-10" d="m120.06,19.36c-.03.19-.04.37-.02.54"/>
  <path class="cls-10" d="m120.05,20.08s0,0,0-.01h0c-.04-.1-.27-.61-.42-1.29v-.02c-.31-1.37-.32-3.44,1.96-4.36,0,0,.14-.75,1.1-.63,0,0,1.11-1.22,2.46-.22.93-.26,1.19.46,1.19.46,2.57.6,2.74,2.92,2.59,4.31,0,.03-.01.05,0,.07"/>
  <path class="cls-10" d="m127.39,16.34s1.32,1.92,1.32,3.03"/>
  <path class="cls-10" d="m120.02,19.87h0s0,.09.02.19h0s0,.02,0,.02"/>
  <path class="cls-10" d="m128.72,19.38h0"/>
  <path class="cls-10" d="m128.71,19.16s0,.07,0,.19"/>
  <path class="cls-10" d="m123.9,15.62h-.02"/>
  <path class="cls-9" d="m141.93,53.59c-.31-.31-1.64-.59-2.13-.59h0c-.47,0-.88-.33-1-.79-1.67-6.87-3.85-6.92-4.72-13.51-.92-6.95-4.15-8.04-4.15-8.04l-.98,5.56s2.05,7.62,2.9,8.98c.73,1.17,4.5,6.37,5.56,7.83.15.2.27.43.32.68.18.77.71.69.71.69h4.22s-.42-.49-.73-.8Z"/>
  <path class="cls-1" d="m128.38,28s2.34.77,3.04,2.09c.7,1.32,3.28,9.14,3.28,9.14,0,0-.55,2.56-3.57,2.2-3.02-.36-2.74-13.44-2.74-13.44Z"/>
  <path class="cls-7" d="m119.55,27.55s1.66,2.18,2.34,4.46h-1.21s-1.12-3.42-1.96-4.34l.83-.12Z"/>
  <path class="cls-7" d="m127.27,27.64c.84,1.01,1.99,4.54,1.99,4.54l1.16-.18c-.49-1.73-1.5-3.24-2.04-4.01-.35-.12-.76-.29-1.12-.36Z"/>
  <path class="cls-7" d="m132.11,44.15l-.25-2.95h0s0-.03,0-.03h0s-.16-1.89-.16-1.89h0s-.11-1.23-.11-1.23v-.08s-.05-.48-.05-.48l-.42-4.86c-.04-.41-.36-.72-.74-.75h0c-.06,0-.12,0-.18,0-.04,0-.08.01-.12.02-.12.02-.25.04-.39.06-.07.01-.14.02-.22.03-.26.03-.55.07-.86.1h0c-1.64.16-3.99.24-6.68-.09-.03,0-.06,0-.09,0h-.38s0,0,0,0h-.75s-.02,0-.02,0c-.56,0-1.01.47-1.01,1.05,0,1.19-.04,3.22-.24,5.32h0c-.18,1.98-.51,4.01-1.08,5.43,0,0,0,0,0,0-.19.48-.41.88-.66,1.2-.05.06-.08.12-.11.18-.03.07-.05.14-.06.22l-1.23,8.97h15.97c.02-3.26.03-8.98-.14-10.23Z"/>
  <rect class="cls-1" x="105.25" y="54.38" width="87.47" height="49.71"/>
  <rect class="cls-9" x="103.25" y="54.39" width="91.3" height="1.88"/>
  <rect class="cls-9" x="146.55" y="53.01" width="23.32" height="1.38"/>
  <path class="cls-6" d="m159.36,46.61h-10.37c0,2.17,1.34,4.03,3.23,4.8h0v1.42h3.95v-1.42h-.04c1.9-.77,3.23-2.63,3.23-4.8Z"/>
  <polygon class="cls-9" points="165.43 52.99 161.75 52.99 161.58 46.45 165.59 46.45 165.43 52.99"/>
  <polygon class="cls-4" points="92.26 68.15 89.3 68.15 89.16 62.88 92.39 62.88 92.26 68.15"/>
  <line class="cls-9" x1="120.81" y1="27.49" x2="122.14" y2="24.94"/>
  <path class="cls-9" d="m77.98,52.77s2.97-2.16.03-6.23c-2.95-4.07-7.84-1.12-7.84-1.12,0,0-4.83,2.35-1.73,7.67"/>
  <g>
    <path class="cls-5" d="m30.73,110.68c-.05.23-1.24.43-3.07.05-1.82-.38-1.74-.81-1.53-1.48.22-.66,1.29-1.44,1.42-2.09.01-.11.02-.26.02-.45h3.26c.06.46.13.85.25,1.11.46,1.03-.3,2.63-.36,2.86Z"/>
    <path class="cls-3" d="m30.84,106.71h-3.26s-.82-3.7-1.7-8.12c-1.13-5.69-2.35-12.55-2.02-14.14.57-2.84,2.62-2.87,2.62-2.87,0,0,4.01-.3,4.23,7.45.05,1.42.07,5.56.08,9.45.01,4.16.01,8.03.01,8.05.01.06.01.13.02.19Z"/>
    <path class="cls-5" d="m35.85,110.73c-1.83.38-3.02.18-3.07-.05-.06-.23-.83-1.83-.36-2.86l3.54-.66c.13.65,1.2,1.43,1.42,2.09.22.67.29,1.09-1.53,1.48Z"/>
    <path class="cls-3" d="m37.63,98.6c-.88,4.41-1.7,8.12-1.7,8.12,0,.18.01.34.02.45l-3.54.66c.13-.29.22-.76.28-1.3,0-.01,0-3.89.01-8.05.01-3.9.04-8.03.08-9.45.23-7.75,4.23-7.45,4.23-7.45,0,0,2.06.04,2.62,2.87.32,1.6-.89,8.46-2.02,14.14Z"/>
  </g>
  <g>
    <path class="cls-9" d="m39.55,50.35c-2.09-1.15-1.95-1.95-2.72-3.02-1.44-2.02-2.39-2.41-3.31-2.37,0,0-4.91-1.76-7.4,2.37-1.38,2.31-.75,3.19-1.11,4.47s-2.2,1.58-1.71,3.27c.49,1.7,1.36,1.73,1.36,1.73,0,0-.32,1.53.85,2.65,1.19,1.13,3.5,1.72,5.1,1.06,0,0,2.87.64,5.17-.73,2.3-1.36,1.43-1.11,2.44-1.41,1.02-.3,3.36-2.49,2.32-4.39,0,0,1.09-2.48-1.01-3.63Zm-5.7,6.82c-1.9.36-3.81-.89-4.8-2.96-.43.18-1.01-.19-1.31-.83-.26-.58-.2-1.2.13-1.47.04-.04.07-.06.12-.08.13-.06.28-.06.42-.04.05.02.11.04.17.06,1.76-.3,5.02-1.89,5.35-5.32,1.5.66,2.75,2.29,3.15,4.35.58,3.01-.87,5.82-3.24,6.28Z"/>
    <path class="cls-9" d="m28.58,51.85c-.06.02-.11.04-.17.04-.22.04-.4.05-.54.02.04-.04.07-.06.12-.08.13-.06.28-.06.42-.04.05.02.11.04.17.06Z"/>
  </g>
  <path class="cls-4" d="m28.31,58.38s-1.62-.23-4.13,2.19c-2.52,2.42-5.91,5.38-4.44,7.74l6.18-.15s3.74-4.39,3.79-4.62c.05-.23-1.39-5.17-1.39-5.17Z"/>
  <path class="cls-4" d="m35.52,58.38s2.17-.23,4.69,2.2c2.52,2.42,5.91,5.38,4.44,7.74l-6.18-.15s-3.74-4.39-3.79-4.62c-.05-.23.84-5.17.84-5.17Z"/>
  <path class="cls-4" d="m31.95,79.51c4.61-.23,8.34-1.31,8.34-1.31l-1.62-13.47c-.68-5.7-2.52-6.29-3.02-6.34-.04,0-.09,0-.13,0h0s0,0,0,0c-1-.03-2.3-.1-3.57-.18h0s-.07,0-.11,0c-.04,0-.07,0-.11,0h0c-1.27.1-2.57.17-3.57.19h0s0,0,0,0c-.05,0-.09,0-.13,0-.51.05-2.34.64-3.02,6.34l-1.62,13.47s3.74,1.08,8.34,1.31h0s.07,0,.11,0c.04,0,.07,0,.11,0h0Z"/>
  <g>
    <path class="cls-9" d="m35.18,68.46c.08-.12-.12-.33-.27-.49-.17-.17-1.17-.6-1.34-.66-.17-.05-1.63.15-2.19.34-.56.18-.93.11-.93.11-.15-.03-.37-.07-.54-.11l-.35,1.3c1.31-.02,2.68.08,2.81.08.39,0,1.12-.42,1.28-.48.17-.06.51-.01.73.09.23.11.89.36,1,.3.11-.06-.22-.49-.22-.49Z"/>
    <path class="cls-9" d="m30.54,67.77s-7.37-2.69-9.03-2.19-2.32,2.06-1.82,3.05c.5.99,10.27.32,10.27.32l.58-1.19Z"/>
  </g>
  <path class="cls-9" d="m33.63,56.03s.21,1.81.33,2.73c.04.35-.26.63-.59.74-.89.3-2.12.66-3.16-.5-.09-.11-.46-.68-.44-.83l.5-3.6,3.35,1.45Z"/>
  <g>
    <path class="cls-9" d="m33.85,57.17c-1.9.36-3.81-.89-4.8-2.96-.43.18-1.01-.19-1.31-.83-.26-.58-.2-1.2.13-1.47.14.02.32.01.54-.02.06,0,.11-.01.17-.04,1.76-.3,5.02-1.89,5.35-5.32,1.5.66,2.75,2.29,3.15,4.35.58,3.01-.87,5.82-3.24,6.28Z"/>
    <path class="cls-9" d="m28.58,51.85c-.06.02-.11.04-.17.04-.22.04-.4.05-.54.02.04-.04.07-.06.12-.08.13-.06.28-.06.42-.04.05.02.11.04.17.06Z"/>
    <path class="cls-9" d="m28.58,51.85c-.06.02-.11.04-.17.04v-.1s.11.04.17.06Z"/>
  </g>
  <path class="cls-9" d="m33.85,67.77s7.37-2.69,9.03-2.19c1.66.5,2.28,2.13,1.78,3.12-.5.99-10.71.44-10.71.44l-.1-1.37Z"/>
  <rect class="cls-1" x="97.05" y="70.84" width="1.37" height="40.28" transform="translate(195.47 181.96) rotate(-180)"/>
  <path class="cls-9" d="m35.14,67.36c-.29.04-.51.06-.54.05-.12-.06-.54-.3-.81-.33-.27-.03-.71-.2-.84-.18-.13.02-.77.36-.86.37-.09.02-.19.1-.24.15-.06.04-.69.15-.81.24-.12.09-.11.47-.02.56,0,0,0,.03-.05.08-.06.05-.11.23-.09.32.02.1.13.24.26.22,0,0,.07,0,.08.03,0,.02-.02.16.03.28.04.12.16.18.37.17,0,0-.1.46.34.42l.6-.06s.33.05.48.03c.14-.03,1.04-.15,1.11-.2.06-.04.21-.15.25-.15.04,0,.48-.14.54-.18.02-.01.1-.04.2-.07v-1.74Z"/>
  <path class="cls-9" d="m28.58,51.85c-.06.02-.11.04-.17.04-.22.04-.4.05-.54.02.04-.04.07-.06.12-.08.13-.06.28-.06.42-.04.05.02.11.04.17.06Z"/>
  <g>
    <path class="cls-5" d="m71.53,110.68c-.05.23-1.24.43-3.07.05-1.82-.38-1.74-.81-1.53-1.48.22-.66,1.29-1.44,1.42-2.09.01-.11.02-.26.02-.45h3.26c.06.46.13.85.25,1.11.46,1.03-.3,2.63-.36,2.86Z"/>
    <path class="cls-3" d="m71.64,106.71h-3.26s-.82-3.7-1.7-8.12c-1.13-5.69-2.35-12.55-2.02-14.14.57-2.84,2.62-2.87,2.62-2.87,0,0,4.01-.3,4.23,7.45.05,1.42.07,5.56.08,9.45.01,4.16.01,8.03.01,8.05.01.06.01.13.02.19Z"/>
    <path class="cls-5" d="m76.65,110.73c-1.83.38-3.02.18-3.07-.05-.06-.23-.83-1.83-.36-2.86l3.54-.66c.13.65,1.2,1.43,1.42,2.09.22.67.29,1.09-1.53,1.48Z"/>
    <path class="cls-3" d="m78.43,98.6c-.88,4.41-1.7,8.12-1.7,8.12,0,.18.01.34.02.45l-3.54.66c.13-.29.22-.76.28-1.3,0-.01,0-3.89.01-8.05.01-3.9.04-8.03.08-9.45.23-7.75,4.23-7.45,4.23-7.45,0,0,2.06.04,2.62,2.87.32,1.6-.89,8.46-2.02,14.14Z"/>
  </g>
  <g>
    <polygon class="cls-1" points="82.12 111.12 82.81 111.12 81.71 77.68 81.01 77.68 82.12 111.12"/>
    <polygon class="cls-1" points="63.22 111.12 62.52 111.12 63.63 77.68 64.32 77.68 63.22 111.12"/>
  </g>
  <path class="cls-8" d="m69.11,58.38s-1.62-.23-4.13,2.19c-2.52,2.42-5.91,5.38-4.44,7.74l6.18-.15s3.74-4.39,3.79-4.62c.05-.23-1.39-5.17-1.39-5.17Z"/>
  <path class="cls-8" d="m76.32,58.38s2.17-.23,4.69,2.2c2.52,2.42,5.91,5.38,4.44,7.74l-6.18-.15s-3.74-4.39-3.79-4.62c-.05-.23.84-5.17.84-5.17Z"/>
  <path class="cls-8" d="m72.75,79.51c4.61-.23,8.34-1.31,8.34-1.31l-1.62-13.47c-.68-5.7-2.52-6.29-3.02-6.34-.04,0-.09,0-.13,0,0,0,0,0,0,0h0c-1-.03-2.3-.1-3.57-.18h0s-.07,0-.11,0c-.04,0-.07,0-.11,0h0c-1.27.1-2.57.17-3.57.19h0s0,0,0,0c-.05,0-.09,0-.13,0-.51.05-2.34.64-3.02,6.34l-1.62,13.47s3.74,1.08,8.34,1.31h0s.07,0,.11,0c.04,0,.07,0,.11,0h0Z"/>
  <g>
    <path class="cls-9" d="m75.98,68.46c.08-.12-.12-.33-.27-.49-.17-.17-1.17-.6-1.34-.66-.17-.05-1.63.15-2.19.34-.56.18-.93.11-.93.11-.15-.03-.37-.07-.54-.11l-.35,1.3c1.31-.02,2.68.08,2.81.08.39,0,1.12-.42,1.28-.48.17-.06.51-.01.73.09.23.11.89.36,1,.3.11-.06-.22-.49-.22-.49Z"/>
    <path class="cls-9" d="m71.34,67.77s-7.37-2.69-9.03-2.19-2.32,2.06-1.82,3.05c.5.99,10.27.32,10.27.32l.58-1.19Z"/>
  </g>
  <path class="cls-9" d="m74.43,56.03s.21,1.81.33,2.73c.04.35-.26.63-.59.74-.89.3-2.12.66-3.16-.5-.09-.11-.46-.68-.44-.83l.5-3.6,3.35,1.45Z"/>
  <g>
    <path class="cls-9" d="m74.65,57.17c-1.9.36-3.81-.89-4.8-2.96-.43.18-1.01-.19-1.31-.83-.26-.58-.2-1.2.13-1.47.14.02.32.01.54-.02.06,0,.11-.01.17-.04,1.76-.3,5.02-1.89,5.35-5.32,1.5.66,2.75,2.29,3.15,4.35.58,3.01-.87,5.82-3.24,6.28Z"/>
    <path class="cls-9" d="m69.38,51.85c-.06.02-.11.04-.17.04-.22.04-.4.05-.54.02.04-.04.07-.06.12-.08.13-.06.28-.06.42-.04.05.02.11.04.17.06Z"/>
    <path class="cls-9" d="m69.38,51.85c-.06.02-.11.04-.17.04v-.1s.11.04.17.06Z"/>
  </g>
  <path class="cls-9" d="m74.65,67.77s7.37-2.69,9.03-2.19c1.66.5,2.28,2.13,1.78,3.12-.5.99-10.71.44-10.71.44l-.1-1.37Z"/>
  <rect class="cls-5" x="7.26" y="70.84" width="1.37" height="40.28" transform="translate(15.89 181.96) rotate(-180)"/>
  <path class="cls-9" d="m75.94,67.36c-.29.04-.51.06-.54.05-.12-.06-.54-.3-.81-.33-.27-.03-.71-.2-.84-.18-.13.02-.77.36-.86.37-.09.02-.19.1-.24.15-.06.04-.69.15-.81.24-.12.09-.11.47-.02.56,0,0,0,.03-.05.08-.06.05-.11.23-.09.32.02.1.13.24.26.22,0,0,.07,0,.08.03,0,.02-.02.16.03.28.04.12.16.18.37.17,0,0-.1.46.34.42l.6-.06s.33.05.48.03c.14-.03,1.04-.15,1.11-.2.06-.04.21-.15.25-.15.04,0,.48-.14.54-.18.02-.01.1-.04.2-.07v-1.74Z"/>
  <rect class="cls-1" x="4.68" y="68.85" width="97.19" height="1.99" transform="translate(106.55 139.69) rotate(-180)"/>
  <path class="cls-9" d="m69.38,51.85c-.06.02-.11.04-.17.04-.22.04-.4.05-.54.02.04-.04.07-.06.12-.08.13-.06.28-.06.42-.04.05.02.11.04.17.06Z"/>
  <rect class="cls-1" x="8.63" y="76.53" width="88.42" height="7.98"/>
  <path class="cls-6" d="m78.7,62.27h-10.42c0,2.18,1.34,4.05,3.25,4.83h0v1.43h3.97v-1.43h-.04c1.9-.78,3.25-2.64,3.25-4.83Z"/>
  <polygon class="cls-4" points="51.26 68.27 48.3 68.27 48.16 63.01 51.39 63.01 51.26 68.27"/>
  <path class="cls-6" d="m37.7,62.39h-10.42c0,2.18,1.34,4.05,3.25,4.83h0v1.43h3.97v-1.43h-.04c1.9-.78,3.25-2.64,3.25-4.83Z"/>
  <path class="cls-9" d="m183.31,55.18c-7.18.96-4.6-7.48-3.9-8.6.69-1.12-.08-.91,1.35-3.15,1.43-2.24,3.64-1.44,3.64-1.44,1.16-.54,5.24-.63,6.2,1.61.97,2.24,1.87,3.5,2.95,5.6,0,0,2.11,5.27-5.8,6.94"/>
  <path class="cls-5" d="m169.87,115.47c.21,1.3-7.58,1.12-8.64.9-1.05-.22,2.97-2.25,4.21-3.31.2-.17.41-.5.63-.92l3.36,1.2s.22.83.44,2.13Z"/>
  <path class="cls-9" d="m171.49,108.52l-2.06,4.82-3.36-1.2c1.1-2.16,2.26-6.89,2.26-6.89l3.16,3.27Z"/>
  <path class="cls-5" d="m195.9,116.55c0,.31-9.28.35-9.6.02-.33-.32.37-2.45.37-3.2l4.15.69c.34.27.74.49,1.21.62,2.23.64,3.87,1.57,3.87,1.87Z"/>
  <path class="cls-9" d="m190.82,114.06l-4.15-.69c0-.75-.17-2.46-.17-2.46l3.13-.75c-.46,1.12-.08,2.89,1.19,3.9Z"/>
  <path class="cls-3" d="m176.42,82.36l-1.66,1.48s-1.87,5.07-1.98,5.41c-.15.47-6.22,20.03-6.22,20.03l4.23,1.52s4.19-8.17,4.89-11.01c.69-2.84,7.64-14.71,7.64-14.71l-6.89-2.72Z"/>
  <path class="cls-3" d="m183.78,85.37l2.03,25.93h4.69s1.68-19.4,1.1-26.22l-7.82.29Z"/>
  <path class="cls-2" d="m192,59.26v26.46c-10.31,3.59-17.37-1.85-17.37-1.85,0,0,.53-1.92,1.21-4.5,1.07-4.03,2.51-9.66,2.9-12.06.62-3.82,2.65-8.44,2.77-8.73h.01s2.36-.38,4.11-.29c3.39.19,6.37.97,6.37.97Z"/>
  <path class="cls-9" d="m183.97,54.96s.09,3.07-.2,3.36c-.29.29-.69.77-.27,1.5.42.73,2.27.27,3.13-.15.82-.4,1.36-1.15,1.36-1.15l-.43-4.87-3.59,1.31Z"/>
  <path class="cls-9" d="m181.69,53.45c1.47,2.66,3.33,2.01,4.11,1.74.77-.27,2.29-.87,3.07-3.36.06-.22.13-.46.16-.72.05.29.22.56.6.6.92.09,1.77-2.64.66-2.99-.72-.23-1.01.44-1.13.94,0-2.63-1.12-5.79-4.47-5.39,0,0-1.73-.04-2.62,1.31-.89,1.36-1.85,5.21-.38,7.88Z"/>
  <path class="cls-9" d="m192,59.26s1.35.12,1.51,2.75c.06,1.04,2.71,16.11-1.56,19.57l.06-22.32Z"/>
  <path class="cls-9" d="m181.51,58.58c-.12.29-2.15,4.91-2.77,8.73-.39,2.4-1.83,8.03-2.9,12.06-.43-18.29,5.37-20.68,5.67-20.79Z"/>
  <path class="cls-10" d="m181.52,58.57h-.01"/>
  <rect class="cls-9" x="150.07" y="5.68" width="22.39" height="32.17"/>
  <g>
    <g>
      <path class="cls-13" d="m167.74,34.65c-.81-.02-1.5-.69-1.56-1.49-.02-.28,0-.56,0-.84v-.35c.02-.49.04-.99.06-1.48l.18-5.86c.01-.46.03-.92.04-1.38,0,0,0-.31,0-.34h-.44s-.24-.18-.24-.18c-.08-.08-.17-.23-.16-.46l.02-.69c.01-.39.02-.78.05-1.16l.04-.81c.02-.47.05-.93.09-1.39,0,0,.08-.97.1-1.23.05-.47.1-.93.15-1.4.06-.52.14-1.04.22-1.55.16-.97.41-2.24.83-3.47.17-.51.35-.91.54-1.26.03-.06.06-.11.1-.16.13-.17.32-.27.53-.27h.07l.12.03c.28.08.46.32.48.61.02.36.01.72.01,1.08v6.27c0,.41,0,.81.01,1.22.01.46.03.92.04,1.38l.12,4.29c0,.31.02.62.03.92.02.42.03.84.04,1.25.01.49.09,3.33.09,3.33.02.68.04,1.36.06,2.04v.44c.02.25.03.5.04.75,0,0,.02.4.02.49,0,.45-.17.87-.48,1.18-.31.31-.73.48-1.17.48h-.05Z"/>
      <path d="m168.31,9.38s.04,0,.06,0c.07.02.11.07.11.15.02.47,0,.95,0,1.43,0,.27,0,.53,0,.8,0,.47,0,.94,0,1.42,0,1.12,0,2.24,0,3.36,0,.52,0,1.04.01,1.56.02.77.05,1.54.07,2.31.02.55.03,1.11.04,1.66.01.41.02.82.04,1.24.01.47.02.93.04,1.4.02.41.03.83.04,1.24.02.68.04,1.36.06,2.04.01.43.02.86.04,1.29.02.68.04,1.36.06,2.04.01.4.03.79.03,1.19,0,.16.02.33.02.49,0,.65-.5,1.16-1.15,1.16-.01,0-.02,0-.03,0-.54-.01-1.04-.48-1.07-1.02-.03-.38.01-.77.02-1.15.01-.67.04-1.35.06-2.02.01-.38.02-.76.04-1.14.03-.84.05-1.67.08-2.51.01-.4.02-.79.04-1.19.02-.62.03-1.24.06-1.86.01-.25,0-.5.03-.75,0-.08-.02-.11-.1-.11,0,0,0,0,0,0-.07,0-.13,0-.2,0-.08,0-.17,0-.25,0-.07,0-.13,0-.2,0,0,0,0,0,0,0-.08,0-.11-.03-.1-.11.02-.62.03-1.23.07-1.85.02-.27.03-.55.04-.82.02-.46.05-.92.09-1.37.03-.41.06-.81.1-1.22.05-.46.1-.93.15-1.39.06-.51.14-1.02.22-1.53.19-1.15.43-2.29.81-3.39.14-.4.3-.8.51-1.18.02-.04.04-.07.06-.1.03-.04.07-.06.12-.06m0-1c-.37,0-.7.17-.92.47-.05.06-.09.14-.13.21-.28.5-.46,1-.58,1.34-.44,1.27-.69,2.57-.85,3.55-.09.52-.16,1.05-.23,1.58-.06.47-.11.94-.16,1.41-.03.26-.05.52-.07.78l-.04.45c-.04.47-.07.94-.09,1.41v.31c-.02.17-.03.34-.04.5-.02.4-.04.8-.05,1.2,0,.22-.01.44-.02.66-.02.41.15.67.3.82.09.09.27.24.53.3-.02.38-.03.77-.04,1.16l-.02.56-.04,1.19-.08,2.51-.02.57-.02.57-.02.63c-.01.47-.03.93-.04,1.4,0,.12,0,.23-.01.35-.01.28-.03.57,0,.89.07,1.05.99,1.93,2.04,1.95h.01s.05,0,.05,0c.58,0,1.13-.22,1.53-.63.41-.41.63-.96.62-1.54,0-.1,0-.2,0-.29,0-.07,0-.14,0-.2,0-.25-.01-.5-.02-.75v-.45c-.03-.68-.05-1.36-.07-2.05-.01-.28-.02-.55-.02-.83v-.46s-.03-.65-.03-.65c-.01-.46-.03-.92-.04-1.38,0-.42-.02-.84-.04-1.26-.01-.31-.02-.62-.03-.93v-.45s-.02-.41-.02-.41l-.02-.82-.02-.62c0-.35-.02-.7-.03-1.04l-.03-.88c-.02-.47-.03-.95-.04-1.42,0-.43,0-.86,0-1.3v-2.76s0-.84,0-.84v-1.82s0-.4,0-.4v-.37c0-.37,0-.73,0-1.09-.02-.5-.35-.92-.83-1.06-.11-.03-.23-.05-.34-.05h0Z"/>
    </g>
    <g>
      <path class="cls-13" d="m156.56,34.66c-.8,0-1.49-.6-1.61-1.39-.04-.26-.03-.51-.01-.74l.04-.88.36-11.74c.01-.31.03-.62.02-.92,0-.39-.15-.68-.46-.91-.61-.44-.99-1.01-1.12-1.7-.06-.31-.04-.6-.02-.85l.38-5.43c.01-.15.02-.31.03-.46.02-.33.21-.59.53-.69.08-.03.17-.04.26-.04.43,0,.77.34.77.77v2.04s.07-1.89.07-2.05c0-.39.23-.67.62-.75h.05s.12-.02.12-.02c.21,0,.37.08.47.13.12.06.31.21.31.54,0,0,.04,1.59.04,1.78,0,.3.02.6.03.91v-2.59c0-.37.17-.61.51-.73l.08-.03h.17c.24-.01.47.09.62.28l.1.12.04.24.39,5.23.02.34c.01.2.02.39.04.59.04.4-.03.82-.2,1.22-.19.44-.48.8-.85,1.07-.29.2-.45.44-.51.75-.04.17-.03.37-.01.59,0,.16.01.31.01.46,0,.13,0,.27.01.4.01.22.02.44.02.66l.32,11.17c.01.33.02.66.03.98.01.86-.64,1.58-1.49,1.65h-.14Z"/>
      <path d="m154.93,9.38c.15,0,.27.11.27.27v6.13c0,.12,0,.12.1.12,0,0,.02,0,.02,0,.11,0,.22,0,.32,0s.22,0,.33,0c0,0,0,0,0,0,.06,0,.08-.02.09-.08.02-.23.02-.46.03-.69.02-.53.03-1.06.05-1.58.02-.58.04-1.15.06-1.73.02-.57.03-1.13.06-1.7,0-.16.01-.31.02-.47,0-.16.07-.24.23-.27.02,0,.04,0,.06,0,.09,0,.17.04.25.08.04.02.03.07.03.11,0,.2,0,.4.02.59.01.4.01.79.03,1.19.02.71.04,1.41.06,2.12.01.47.03.93.04,1.4,0,.32.02.64.03.96,0,.05.01.07.07.07,0,0,0,0,0,0,.23,0,.47,0,.7,0,.13,0,.13,0,.13-.13v-6.12c0-.15.04-.21.17-.26.03,0,.06-.01.08-.01.09,0,.17.04.23.11.02.02.03.05.03.08.03.44.06.87.1,1.31.04.46.07.92.11,1.38.03.39.05.78.08,1.17.03.46.07.92.11,1.38.02.31.04.63.07.94.03.34-.03.66-.17.97-.15.35-.38.64-.69.86-.37.26-.62.6-.71,1.05-.05.24-.04.49-.02.73.02.28.01.56.03.84.02.36.01.72.03,1.08.02.68.04,1.36.06,2.04.01.43.03.86.04,1.28.02.67.04,1.35.06,2.02.01.43.02.86.04,1.29.02.67.04,1.34.06,2.01.01.44.03.88.04,1.32.01.59.04,1.18.05,1.76,0,.6-.45,1.1-1.04,1.15-.03,0-.06,0-.1,0-.55,0-1.03-.4-1.11-.96-.04-.28,0-.57,0-.86,0-.23.02-.45.03-.68.02-.56.03-1.11.04-1.67.02-.81.05-1.62.07-2.43.02-.59.04-1.19.06-1.78.02-.62.04-1.24.06-1.87.02-.62.04-1.23.06-1.85.02-.61.04-1.22.06-1.83.02-.42.04-.84.04-1.25,0-.55-.22-.99-.67-1.31-.48-.35-.81-.8-.93-1.39-.06-.29-.02-.58,0-.87.01-.23.03-.46.05-.7.03-.42.06-.85.09-1.27.02-.31.04-.62.06-.93.03-.43.06-.85.09-1.28.02-.31.04-.61.06-.92.01-.22.03-.45.04-.67,0-.13.07-.2.19-.24.03-.01.07-.02.1-.02m0-1c-.14,0-.29.02-.42.07-.51.17-.84.61-.86,1.15,0,.15-.02.31-.03.46v.19s-.03.31-.03.31l-.04.61-.04.64-.04.64-.03.42-.03.51-.05.76-.04.51-.02.24c-.01.16-.02.31-.03.47v.14c-.03.27-.05.61.02.98.16.81.61,1.49,1.32,2.01.18.13.25.27.25.51,0,.3-.01.61-.02.92v.29c-.03.41-.04.82-.05,1.23l-.02.61-.02.62-.04,1.23-.04,1.24-.02.63-.02.72-.03,1.07v.41c-.03.68-.06,1.35-.07,2.03l-.02.84-.02.83c0,.11,0,.21-.01.32,0,.12-.01.24-.01.36v.19c-.02.25-.03.53.01.84.15,1.04,1.06,1.82,2.1,1.82.06,0,.12,0,.18,0,1.11-.09,1.97-1.04,1.95-2.16,0-.34-.02-.68-.03-1.02,0-.25-.02-.5-.02-.75,0-.26-.01-.52-.02-.78l-.02-.54v-.34c-.02-.56-.04-1.11-.06-1.67l-.04-1.29-.04-1.44-.02-.58v-.5s-.04-.78-.04-.78c-.02-.68-.04-1.36-.06-2.05,0-.14,0-.28,0-.42,0-.22,0-.45-.02-.67,0-.13,0-.26-.01-.39,0-.15,0-.3-.01-.45-.01-.19-.02-.36,0-.48.03-.13.08-.28.31-.44.45-.32.8-.75,1.02-1.28.21-.48.29-.98.24-1.46-.02-.18-.03-.37-.04-.55l-.02-.37-.05-.69-.05-.69-.04-.58-.04-.59-.06-.83-.04-.55-.09-1.3c-.03-.31-.15-.52-.26-.65-.24-.29-.62-.47-1-.47-.14,0-.28.02-.41.07-.14.05-.27.11-.37.2-.05-.03-.09-.06-.12-.07-.13-.07-.38-.19-.71-.19-.09,0-.18,0-.27.03-.21.05-.4.13-.55.25-.22-.18-.49-.28-.8-.28h0Z"/>
    </g>
  </g>
  <rect class="cls-9" x="22" y="67.86" width="23.32" height="1.38"/>
  <rect class="cls-9" x="60.98" y="67.63" width="23.32" height="1.38"/>
  <rect class="cls-11" x="-1312.65" y="-214.82" width="2244.45" height="5948.74"/>
</svg>