<?xml version="1.0" encoding="UTF-8"?>
<svg id="Calque_1" data-name="Calque 1" xmlns="http://www.w3.org/2000/svg" viewBox="0 0 166.44 114.57">
  <defs>
    <style>
      .cls-1 {
        fill: #f4f3f4;
      }

      .cls-2 {
        fill: #111;
      }

      .cls-3 {
        stroke-miterlimit: 10;
        stroke-width: 1px;
      }

      .cls-3, .cls-4, .cls-5, .cls-6 {
        stroke: #000;
      }

      .cls-3, .cls-6 {
        fill: #f4d587;
      }

      .cls-4 {
        fill: #fdeab9;
      }

      .cls-4, .cls-5, .cls-7, .cls-6, .cls-8, .cls-9, .cls-10, .cls-11, .cls-12, .cls-13 {
        stroke-miterlimit: 10;
      }

      .cls-5, .cls-7 {
        fill: #fff;
      }

      .cls-7, .cls-8 {
        stroke: #010101;
      }

      .cls-14 {
        stroke: #fff;
        stroke-linecap: round;
        stroke-linejoin: round;
        stroke-width: 8px;
      }

      .cls-14, .cls-8, .cls-9, .cls-10, .cls-11, .cls-12, .cls-13 {
        fill: none;
      }

      .cls-9 {
        stroke: #f07e1a;
      }

      .cls-10 {
        stroke: #64328a;
      }

      .cls-11 {
        stroke: #2dabe3;
      }

      .cls-12 {
        stroke: #aaca43;
      }

      .cls-13 {
        stroke: #cfe3f0;
      }
    </style>
  </defs>
  <rect class="cls-14" x="-520.8" y="-79.69" width="1509.9" height="999.05"/>
  <g id="Titres_catégories" data-name="Titres catégories">
    <g>
      <path class="cls-7" d="m145.77,103.31l-58.34,9.95V16.71l56.94-9.67c2.34-.46,4.5,1.41,4.5,3.89v88.49c0,1.91-1.3,3.53-3.1,3.89h0Z"/>
      <path class="cls-7" d="m151.75,113.05l-64.32.63V17.14l65.37-.47c1.88.28,3.28,1.95,3.28,3.92v88.56c0,2.41-2.04,4.25-4.32,3.92h0v-.02Z"/>
      <path class="cls-11" d="m147.93,46.99h7.12"/>
      <path class="cls-11" d="m88.42,46.99h7.42"/>
      <path class="cls-1" d="m141.35,89.03h-38.04c-1.33,0-2.4,1.08-2.4,2.4v10.68c0,1.33,1.08,2.41,2.4,2.41h38.04c1.33,0,2.4-1.08,2.4-2.41v-10.68c0-1.33-1.08-2.4-2.4-2.4Z"/>
      <path class="cls-8" d="m115.22,94.79h.75"/>
      <path class="cls-8" d="m116.97,94.79h22.65"/>
      <path class="cls-8" d="m140.13,94.79h.75"/>
      <path class="cls-8" d="m111.94,99.84h.75"/>
      <path class="cls-8" d="m113.63,99.84h26.02"/>
      <path class="cls-8" d="m140.13,99.84h.75"/>
      <path class="cls-2" d="m103.97,98.24h.27l.83,1.35v-1.35h.22v1.66h-.26l-.84-1.35v1.35h-.22v-1.66h0Z"/>
      <path class="cls-2" d="m106.5,98.82c.1.1.16.25.16.45s-.05.36-.14.48-.24.2-.44.2c-.16,0-.29-.06-.4-.17-.1-.11-.14-.27-.14-.46,0-.2.05-.37.15-.48.1-.12.24-.17.42-.17.15,0,.29.04.39.16h0Zm-.12.8c.05-.11.08-.22.08-.35,0-.11-.02-.21-.06-.27-.06-.11-.15-.17-.3-.17-.12,0-.21.05-.27.15-.06.09-.09.2-.09.33s.03.24.09.32c.06.09.14.14.27.14s.23-.05.28-.15Z"/>
      <path class="cls-2" d="m106.92,98.7h.2v.16s.09-.1.13-.12c.07-.05.14-.07.23-.07s.17.04.24.07c.04.04.07.07.1.12.05-.06.09-.11.16-.14.06-.02.13-.05.21-.05.16,0,.28.06.33.19.03.06.05.15.05.25v.81h-.21v-.84c0-.07-.02-.12-.06-.17-.04-.02-.09-.04-.15-.04-.08,0-.15.02-.21.07s-.09.14-.09.26v.71h-.21v-.79c0-.09,0-.14-.03-.17-.03-.06-.09-.09-.17-.09s-.15.02-.21.09c-.07.05-.1.17-.1.32v.64h-.2v-1.22h-.02,0Z"/>
      <path class="cls-2" d="m109.6,98.7h.24v.25h-.24v-.25Zm0,.95h.24v.25h-.24v-.25Z"/>
      <path class="cls-2" d="m103.99,93.19h.74c.15,0,.27.04.36.12.09.09.13.2.13.35,0,.13-.04.25-.12.34-.09.1-.2.14-.37.14h-.52v.7h-.23v-1.66h.01Zm.87.24s-.11-.04-.2-.04h-.45v.58h.45c.11,0,.18-.02.25-.07.07-.04.1-.11.1-.23s-.05-.21-.13-.25h-.02Z"/>
      <path class="cls-2" d="m105.5,93.64h.19v.21s.06-.09.11-.15c.07-.06.13-.09.22-.09h.07v.22h-.08c-.11,0-.18.04-.24.1-.06.07-.09.14-.09.23v.7h-.2v-1.22h.02Z"/>
      <path class="cls-2" d="m107.02,93.67c.08.04.14.1.18.16.04.06.07.13.08.22,0,.06.02.14.02.27h-.88c0,.12.03.22.09.29.06.08.13.11.25.11.1,0,.19-.04.26-.1.04-.04.06-.09.08-.14h.2s-.02.09-.06.15c-.04.06-.07.1-.1.13-.07.06-.14.1-.23.12-.05,0-.1.02-.16.02-.15,0-.28-.06-.38-.16-.1-.11-.16-.27-.16-.47s.05-.35.16-.47c.1-.12.24-.18.41-.18.09,0,.17.02.25.06h-.01Zm.08.46c0-.09-.03-.16-.06-.21-.06-.09-.15-.15-.28-.15-.09,0-.17.04-.24.1-.07.07-.1.15-.1.26h.68Zm-.09-1l-.3.32h-.15l.21-.32h.25,0Z"/>
      <path class="cls-2" d="m107.55,93.64h.19v.17c.06-.08.11-.12.18-.15s.13-.05.22-.05c.17,0,.29.06.35.18.04.07.05.16.05.29v.78h-.21v-.77c0-.08,0-.13-.03-.18-.04-.08-.11-.11-.2-.11-.05,0-.09,0-.11.02-.06.02-.1.05-.15.09-.04.04-.06.09-.07.12,0,.04-.02.1-.02.18v.64h-.2v-1.22h0Z"/>
      <path class="cls-2" d="m109.73,93.77c.1.1.16.26.16.46s-.05.36-.14.48-.24.19-.44.19c-.16,0-.29-.06-.4-.17-.1-.11-.14-.27-.14-.46,0-.2.05-.37.15-.48.11-.12.24-.18.42-.18.15,0,.29.05.39.16Zm-.12.81c.05-.11.08-.22.08-.34,0-.11-.02-.21-.06-.28-.06-.11-.15-.17-.29-.17-.12,0-.21.05-.27.14-.06.1-.09.21-.09.34s.03.24.09.32c.06.09.14.13.27.13s.23-.05.28-.15h-.01Z"/>
      <path class="cls-2" d="m110.14,93.64h.2v.17c.05-.06.1-.1.13-.13.07-.05.14-.07.23-.07.1,0,.17.03.24.08.04.03.07.07.1.12.05-.07.1-.11.16-.14.06-.03.13-.05.21-.05.16,0,.28.06.33.18.03.07.05.15.05.26v.81h-.21v-.85c0-.08-.02-.13-.06-.17-.04-.03-.08-.05-.15-.05-.08,0-.15.03-.21.08-.06.06-.09.14-.09.27v.7h-.21v-.79c0-.09,0-.14-.03-.18-.03-.06-.09-.09-.17-.09s-.15.03-.21.09c-.07.06-.1.17-.1.32v.64h-.2v-1.22h-.02v.02Z"/>
      <path class="cls-2" d="m112.82,93.66h.24v.25h-.24v-.25Zm0,.95h.24v.25h-.24v-.25Z"/>
      <path class="cls-2" d="m102.61,45.51c.24.23.37.48.39.78h-.45c-.05-.22-.15-.39-.3-.52s-.36-.19-.63-.19c-.33,0-.6.11-.8.35-.2.24-.3.6-.3,1.08,0,.4.09.72.28.97.18.25.46.37.82.37.33,0,.59-.13.76-.39.09-.14.16-.32.21-.54h.45c-.04.36-.17.65-.4.9-.27.3-.63.44-1.08.44-.39,0-.72-.12-.99-.36-.35-.31-.52-.81-.52-1.47,0-.5.13-.91.4-1.23.28-.35.67-.52,1.18-.52.43,0,.76.11.99.34h0Z"/>
      <path class="cls-2" d="m104.62,45.26h.52l1.23,3.41h-.5l-.34-1.02h-1.35l-.37,1.02h-.47l1.28-3.41Zm.76,2.01l-.51-1.5-.55,1.5h1.06Z"/>
      <path class="cls-2" d="m106.85,45.26h1.55c.26,0,.47.04.63.11.31.14.47.42.47.81,0,.2-.04.37-.12.5s-.2.24-.35.31c.13.06.24.12.3.21.07.09.1.23.11.43l.02.46c0,.13.02.23.04.3.03.1.08.18.15.21v.08h-.57s-.03-.07-.04-.11c0-.05-.02-.13-.03-.27l-.03-.57c0-.22-.09-.37-.24-.45-.09-.04-.22-.07-.4-.07h-1.02v1.46h-.47v-3.41h-.02.02Zm1.5,1.56c.21,0,.38-.04.5-.13s.18-.24.18-.47-.09-.41-.26-.49c-.1-.05-.22-.07-.37-.07h-1.09v1.17h1.04Z"/>
      <path class="cls-2" d="m110.22,45.26h.54l1.7,2.75v-2.75h.44v3.41h-.51l-1.73-2.74v2.74h-.44s0-3.41,0-3.41Z"/>
      <path class="cls-2" d="m113.7,45.26h2.47v.42h-2.02v1.03h1.87v.4h-1.87v1.16h2.06v.41h-2.51v-3.41h0Z"/>
      <path class="cls-2" d="m119.3,45.26v.41h-1.15v3h-.47v-3h-1.15v-.41h2.77Z"/>
      <path class="cls-2" d="m120.98,45.26h1.36c.47,0,.82.16,1.07.49.23.3.34.68.34,1.15,0,.36-.07.68-.2.98-.24.51-.65.78-1.22.78h-1.36v-3.41h.01Zm1.27,3.03c.15,0,.28-.02.38-.05.17-.06.31-.18.43-.35.08-.14.15-.31.19-.53.02-.13.04-.25.04-.36,0-.42-.09-.75-.25-.99s-.43-.35-.79-.35h-.8v2.61h.81v.02h0Z"/>
      <path class="cls-2" d="m124.43,45.26h2.47v.42h-2.02v1.03h1.87v.4h-1.87v1.16h2.06v.41h-2.51v-3.41h0Z"/>
      <path class="cls-2" d="m129.17,47.57c0,.19.06.35.13.47.15.23.41.34.78.34.16,0,.31-.03.46-.08.27-.1.4-.27.4-.51,0-.19-.06-.31-.17-.4-.11-.08-.29-.14-.53-.2l-.45-.1c-.3-.07-.5-.14-.62-.23-.21-.14-.31-.35-.31-.64s.11-.56.31-.75c.21-.2.49-.29.87-.29.35,0,.65.09.88.26.24.17.36.45.36.83h-.44c-.02-.18-.07-.32-.14-.42-.13-.18-.36-.27-.68-.27-.26,0-.45.06-.56.17-.11.11-.17.25-.17.4,0,.17.07.28.2.37.09.05.29.11.6.19l.47.11c.23.05.4.12.51.22.21.16.31.39.31.69,0,.38-.13.65-.4.81-.27.16-.58.25-.93.25-.41,0-.74-.1-.97-.32-.24-.22-.35-.5-.34-.87h.44v-.03h-.01Z"/>
      <path class="cls-2" d="m133.03,45.26h.52l1.23,3.41h-.5l-.34-1.02h-1.35l-.37,1.02h-.47l1.28-3.41Zm.76,2.01l-.51-1.5-.55,1.5h1.06Z"/>
      <path class="cls-2" d="m135.2,45.26h.54l1.7,2.75v-2.75h.44v3.41h-.51l-1.73-2.74v2.74h-.44v-3.41Z"/>
      <path class="cls-2" d="m141.11,45.26v.41h-1.15v3h-.47v-3h-1.15v-.41h2.77Z"/>
      <path class="cls-2" d="m141.57,45.26h2.47v.42h-2.02v1.03h1.87v.4h-1.87v1.16h2.06v.41h-2.51v-3.41h0Zm1.79-.96l-.62.67h-.32l.43-.67h.51Z"/>
      <path class="cls-9" d="m142.31,41.94h-40.69l-6.41,5.05,6.41,5.05h40.69l6.41-5.05-6.41-5.05Z"/>
      <path class="cls-10" d="m103.4,41.95h15.37"/>
      <path class="cls-13" d="m125.78,41.95h11.27"/>
      <path class="cls-10" d="m118.96,52.05h11.27"/>
      <path class="cls-12" d="m101.76,52.05h11.27"/>
    </g>
    <g>
      <path class="cls-5" d="m20.33,41.86s.64-4.51.99-7.08c.67-4.93,16.76-17.27,31.35-12.11,6.22,2.2,17.69,16.77,12.35,30.71-.03.04-8.15,10.08-15.33,10.46-6.5.34-21-8.15-25.05-10.62s-4.3-11.36-4.3-11.36h0Z"/>
      <g>
        <g>
          <g>
            <g>
              <path class="cls-5" d="m31.91,45.37l-.11,1.44s-1.07.43-1.69-1.75c-.61-2.18-.26-5.75.74-6.4.99-.65,2.68,0,3.08,1.12.4,1.13-1.91,4.13-2.02,5.58h0Z"/>
              <path class="cls-5" d="m31.33,39.63s1.1.42.43,4.58"/>
            </g>
            <g>
              <path class="cls-5" d="m51.29,54.3l-1.03,1.02s.37,1.09,2.42.15c2.05-.95,4.54-3.54,4.39-4.72s-1.74-2.04-2.86-1.61-1.91,4.13-2.93,5.16h0Z"/>
              <path class="cls-5" d="m56.04,51.02s-1.03-.57-3.76,2.65"/>
            </g>
          </g>
          <path class="cls-5" d="m54.4,51.68c-3.37,6.36-11.5,9.04-16.77,6.61-4.97-2.29-8.52-10.36-5.86-17.05,2.82-7.1,8.18-11.15,16.77-6.61,9.68,5.12,9.66,9.87,5.86,17.05Z"/>
          <g>
            <g>
              <path class="cls-5" d="m40.93,43.97c-.49,1.05-1.71,1.53-2.74,1.05-1.03-.47-1.47-1.71-.98-2.77"/>
              <path class="cls-5" d="m49.63,48.64c-.49,1.05-1.71,1.53-2.74,1.05s-1.47-1.71-.98-2.77"/>
            </g>
            <path class="cls-5" d="m40.97,49.02c.54.38,1.4.18,1.72-.4s.04-1.41-.57-1.67"/>
          </g>
        </g>
        <g>
          <path class="cls-4" d="m31.76,35.92s10.49-8.9,18.84-5.83c8.77,3.23,9.18,18.9,7.36,20.98,0,0-.23-4.65-26.2-15.15Z"/>
          <path class="cls-6" d="m30,39.61s5.3-.41,14.6,4.22c7.14,3.55,7.95,6.15,11.04,9.78,0,0,4.79-3.05,2.65-6.52-1.93-3.12-11.52-12.33-24.23-12.26-1.66,0-3.71,1.35-4.07,4.78h0Z"/>
          <g>
            <g>
              <path class="cls-6" d="m51.73,30.05s-5.72.71-7.96-6.36c-2.23-7.07,4.13-3,5.49-1.39,2.42,2.89,3.62,5.32,2.47,7.75Z"/>
              <path class="cls-5" d="m46.61,23.3s3.2,2.89,5.13,6.74"/>
            </g>
            <g>
              <path class="cls-6" d="m51.31,30.45s3.18,4.81,10.01,1.92c6.83-2.89-.4-5.1-2.51-5.08-3.77.04-6.39.7-7.5,3.16Z"/>
              <path class="cls-5" d="m59.77,29.97s-4.28-.56-8.46.48"/>
            </g>
            <path class="cls-3" d="m52.46,27.95h0c.84.39,1.21,1.39.82,2.23l-.44.94c-.39.84-1.39,1.21-2.23.82h0c-.84-.39-1.21-1.39-.82-2.23l.44-.94c.39-.84,1.39-1.21,2.23-.82Z"/>
          </g>
        </g>
      </g>
      <path class="cls-6" d="m21.63,41.22s8.52,11.15,33.64,17.1l1.08,4.22s-18.53,9.84-24.23,8.07c-5.7-1.77-11.2-25.1-11.2-25.1l.71-4.3h0Z"/>
      <path class="cls-6" d="m32.1,67.49c13.05.06,32.67-14.11,32.67-14.11,0,0-12.63,31.23-19.81,40.61-7.18,9.38-19.63,5.44-26.71,1.7-7.08-3.75-8.97-15.73-8.97-15.73l22.81-12.47h0Z"/>
      <path class="cls-6" d="m32.1,67.49c13.05.06,31.94-13.38,31.94-13.38,0,0-11.9,30.5-19.08,39.88-7.18,9.38-19.63,5.44-26.71,1.7-7.08-3.75-8.97-15.73-8.97-15.73l22.81-12.47h0Z"/>
      <path class="cls-6" d="m20.51,36.92c.19,13.36,23.83,55.7,24.45,56.8,0,0-5.25,17.58-23.59,9.87-18.34-7.7-19.1-15.03-17.56-20.91,1.54-5.89,16.71-45.76,16.71-45.76h-.01Z"/>
      <path class="cls-6" d="m21.25,36.92c.02,1.36-.02,1.96.33,3.69,3.64,17.95,23.39,53.12,23.39,53.12,0,0-5.25,17.58-23.59,9.87-18.35-7.71-19.11-15.04-17.57-20.92,1.05-4,8.61-24.14,13.35-36.64.49-1.29.95-2.5,1.37-3.6,1.5-3.93,2.72-5.52,2.72-5.52Z"/>
    </g>
  </g>
</svg>