<?xml version="1.0" encoding="UTF-8"?>
<svg id="Calque_1" data-name="Calque 1" xmlns="http://www.w3.org/2000/svg" viewBox="0 0 128 128">
  <defs>
    <style>
      .cls-1 {
        stroke-dasharray: 0 0 1.66 1.05;
      }

      .cls-1, .cls-2, .cls-3, .cls-4, .cls-5, .cls-6, .cls-7, .cls-8, .cls-9 {
        stroke-miterlimit: 10;
        stroke-width: 2px;
      }

      .cls-1, .cls-2, .cls-5, .cls-9 {
        stroke: #000;
      }

      .cls-1, .cls-4, .cls-5, .cls-6, .cls-7, .cls-8, .cls-10, .cls-9 {
        fill: none;
      }

      .cls-11 {
        fill: #f4f4f4;
      }

      .cls-12 {
        fill: #111;
      }

      .cls-2, .cls-3 {
        fill: #fff;
      }

      .cls-3 {
        stroke: #29abe2;
      }

      .cls-4 {
        stroke: #662d91;
      }

      .cls-6 {
        stroke: #cfe3f0;
      }

      .cls-7 {
        stroke: #aad83a;
      }

      .cls-8 {
        stroke: #f67e11;
      }

      .cls-10 {
        stroke: #fff;
        stroke-linecap: round;
        stroke-linejoin: round;
        stroke-width: 8px;
      }

      .cls-9 {
        stroke-dasharray: 0 0 1.55 .99;
      }
    </style>
  </defs>
  <path class="cls-2" d="m88.75,108.77l-61.45,10.48V17.56l59.98-10.19c2.46-.48,4.74,1.49,4.74,4.1v93.2c0,2.01-1.37,3.73-3.26,4.1Z"/>
  <path class="cls-2" d="m95.05,119.03l-67.75.66V18.01l68.85-.5c1.98.29,3.45,2.05,3.45,4.13v93.27c0,2.53-2.15,4.48-4.55,4.13Z"/>
  <line class="cls-3" x1="91.03" y1="49.45" x2="98.53" y2="49.45"/>
  <line class="cls-3" x1="28.35" y1="49.45" x2="36.16" y2="49.45"/>
  <rect class="cls-11" x="41.5" y="93.73" width="45.13" height="16.31" rx="2.53" ry="2.53"/>
  <g>
    <line class="cls-5" x1="56.57" y1="99.8" x2="57.36" y2="99.8"/>
    <line class="cls-1" x1="58.42" y1="99.8" x2="82.28" y2="99.8"/>
    <line class="cls-5" x1="82.81" y1="99.8" x2="83.6" y2="99.8"/>
  </g>
  <g>
    <line class="cls-5" x1="53.12" y1="105.12" x2="53.91" y2="105.12"/>
    <line class="cls-9" x1="54.9" y1="105.12" x2="82.31" y2="105.12"/>
    <line class="cls-5" x1="82.81" y1="105.12" x2="83.6" y2="105.12"/>
  </g>
  <g>
    <path class="cls-12" d="m44.73,103.43h.28l.87,1.42v-1.42h.23v1.75h-.27l-.89-1.42v1.42h-.23v-1.75Z"/>
    <path class="cls-12" d="m47.39,104.04c.11.11.17.27.17.48s-.05.38-.15.51c-.1.13-.25.2-.46.2-.17,0-.31-.06-.42-.18-.1-.12-.15-.28-.15-.48,0-.21.05-.39.16-.51.11-.13.25-.19.44-.19.16,0,.3.05.41.17Zm-.13.85c.05-.11.08-.23.08-.36,0-.12-.02-.22-.06-.29-.06-.12-.16-.18-.31-.18-.13,0-.22.05-.28.15-.06.1-.09.22-.09.36s.03.25.09.34c.06.09.15.14.28.14.14,0,.24-.05.29-.16Z"/>
    <path class="cls-12" d="m47.83,103.91h.21v.18c.05-.06.1-.11.14-.14.07-.05.15-.07.24-.07.1,0,.18.03.25.08.04.03.07.07.1.13.05-.07.1-.12.17-.15.06-.03.14-.05.22-.05.17,0,.29.06.35.19.03.07.05.16.05.27v.85h-.22v-.89c0-.08-.02-.14-.06-.18-.04-.03-.09-.05-.16-.05-.08,0-.16.03-.22.08-.06.06-.09.15-.09.28v.74h-.22v-.83c0-.09-.01-.15-.03-.19-.03-.06-.09-.09-.18-.09-.08,0-.16.03-.22.09-.07.06-.1.18-.1.34v.68h-.21v-1.28Z"/>
    <path class="cls-12" d="m50.65,103.92h.25v.26h-.25v-.26Zm0,1h.25v.26h-.25v-.26Z"/>
  </g>
  <g>
    <path class="cls-12" d="m44.75,98.11h.78c.16,0,.28.04.38.13.09.09.14.21.14.37,0,.14-.04.26-.13.36s-.21.15-.39.15h-.55v.74h-.24v-1.75Zm.92.24c-.05-.03-.12-.04-.21-.04h-.47v.61h.47c.11,0,.19-.02.26-.07.07-.04.1-.12.1-.24,0-.13-.05-.22-.14-.26Z"/>
    <path class="cls-12" d="m46.34,98.59h.2v.22s.06-.09.12-.16c.07-.06.14-.09.23-.09,0,0,.01,0,.02,0s.03,0,.05,0v.23s-.02,0-.04,0-.02,0-.04,0c-.11,0-.19.04-.25.1-.06.07-.09.15-.09.24v.74h-.21v-1.28Z"/>
    <path class="cls-12" d="m47.94,98.62c.08.04.15.1.19.17.04.06.07.14.09.23.01.06.02.15.02.28h-.93c0,.13.03.23.09.31.06.08.14.12.26.12.11,0,.2-.04.27-.11.04-.04.06-.09.08-.15h.21s-.02.1-.06.16-.07.1-.1.14c-.07.06-.15.11-.24.13-.05.01-.11.02-.17.02-.16,0-.29-.06-.4-.17-.11-.12-.17-.28-.17-.49s.05-.37.17-.5c.11-.13.25-.19.43-.19.09,0,.18.02.26.06Zm.08.5c0-.09-.03-.17-.06-.22-.06-.1-.16-.16-.29-.16-.1,0-.18.04-.25.11s-.1.16-.11.27h.7Zm-.09-1.05l-.32.34h-.16l.22-.34h.26Z"/>
    <path class="cls-12" d="m48.5,98.59h.2v.18c.06-.08.12-.13.19-.16s.14-.05.23-.05c.18,0,.3.06.37.19.04.07.05.17.05.3v.82h-.22v-.81c0-.08-.01-.14-.03-.19-.04-.08-.11-.12-.21-.12-.05,0-.09,0-.12.02-.06.02-.11.05-.16.1-.04.04-.06.09-.07.13s-.02.11-.02.19v.67h-.21v-1.28Z"/>
    <path class="cls-12" d="m50.79,98.72c.11.11.17.27.17.48s-.05.38-.15.51c-.1.13-.25.2-.46.2-.17,0-.31-.06-.42-.18-.1-.12-.15-.28-.15-.48,0-.21.05-.39.16-.51.11-.13.25-.19.44-.19.16,0,.3.05.41.17Zm-.13.85c.05-.11.08-.23.08-.36,0-.12-.02-.22-.06-.29-.06-.12-.16-.18-.31-.18-.13,0-.22.05-.28.15-.06.1-.09.22-.09.36s.03.25.09.34c.06.09.15.14.28.14.14,0,.24-.05.29-.16Z"/>
    <path class="cls-12" d="m51.22,98.59h.21v.18c.05-.06.1-.11.14-.14.07-.05.15-.07.24-.07.1,0,.18.03.25.08.04.03.07.07.1.13.05-.07.1-.12.17-.15.06-.03.14-.05.22-.05.17,0,.29.06.35.19.03.07.05.16.05.27v.85h-.22v-.89c0-.08-.02-.14-.06-.18-.04-.03-.09-.05-.16-.05-.08,0-.16.03-.22.08-.06.06-.09.15-.09.28v.74h-.22v-.83c0-.09-.01-.15-.03-.19-.03-.06-.09-.09-.18-.09-.08,0-.16.03-.22.09-.07.06-.1.18-.1.34v.68h-.21v-1.28Z"/>
    <path class="cls-12" d="m54.05,98.61h.25v.26h-.25v-.26Zm0,1h.25v.26h-.25v-.26Z"/>
  </g>
  <g>
    <path class="cls-12" d="m43.29,47.89c.25.24.39.51.41.82h-.47c-.05-.23-.16-.41-.32-.55-.16-.14-.38-.2-.66-.2-.35,0-.63.12-.84.37-.21.25-.32.63-.32,1.14,0,.42.1.76.29,1.02.19.26.48.39.86.39.35,0,.62-.14.8-.41.1-.15.17-.34.22-.57h.47c-.04.38-.18.69-.42.95-.28.31-.66.46-1.14.46-.41,0-.76-.13-1.04-.38-.37-.33-.55-.85-.55-1.55,0-.53.14-.96.42-1.3.3-.37.71-.55,1.24-.55.45,0,.8.12,1.04.36Z"/>
    <path class="cls-12" d="m45.41,47.63h.55l1.3,3.59h-.53l-.36-1.07h-1.42l-.39,1.07h-.5l1.35-3.59Zm.8,2.12l-.54-1.58-.58,1.58h1.12Z"/>
    <path class="cls-12" d="m47.76,47.63h1.63c.27,0,.49.04.66.12.33.15.5.44.5.85,0,.21-.04.39-.13.53-.09.14-.21.25-.37.33.14.06.25.13.32.22.07.09.11.24.12.45l.02.48c0,.14.02.24.04.31.03.11.08.19.16.22v.08h-.6s-.03-.07-.04-.12-.02-.14-.03-.28l-.03-.6c-.01-.23-.09-.39-.25-.47-.09-.04-.23-.07-.42-.07h-1.07v1.54h-.49v-3.59Zm1.58,1.64c.22,0,.4-.04.53-.14.13-.09.19-.25.19-.49,0-.25-.09-.43-.27-.52-.1-.05-.23-.07-.39-.07h-1.15v1.23h1.09Z"/>
    <path class="cls-12" d="m51.31,47.63h.57l1.79,2.9v-2.9h.46v3.59h-.54l-1.82-2.89v2.89h-.46v-3.59Z"/>
    <path class="cls-12" d="m54.97,47.63h2.6v.44h-2.13v1.09h1.97v.42h-1.97v1.22h2.17v.43h-2.64v-3.59Z"/>
    <path class="cls-12" d="m60.87,47.63v.43h-1.21v3.16h-.49v-3.16h-1.21v-.43h2.91Z"/>
    <path class="cls-12" d="m62.64,47.63h1.43c.49,0,.86.17,1.13.52.24.32.36.72.36,1.21,0,.38-.07.72-.21,1.03-.25.54-.68.82-1.28.82h-1.43v-3.59Zm1.34,3.17c.16,0,.29-.02.4-.05.18-.06.33-.19.45-.37.09-.15.16-.33.2-.56.02-.14.04-.26.04-.38,0-.44-.09-.79-.26-1.04-.17-.25-.45-.37-.83-.37h-.84v2.75h.85Z"/>
    <path class="cls-12" d="m66.27,47.63h2.6v.44h-2.13v1.09h1.97v.42h-1.97v1.22h2.17v.43h-2.64v-3.59Z"/>
    <path class="cls-12" d="m71.27,50.06c.01.2.06.37.14.5.16.24.43.36.82.36.17,0,.33-.03.48-.08.28-.1.42-.28.42-.54,0-.2-.06-.33-.18-.42-.12-.08-.31-.15-.56-.21l-.47-.11c-.31-.07-.53-.15-.65-.24-.22-.15-.33-.37-.33-.67,0-.32.11-.59.33-.79.22-.21.52-.31.92-.31.37,0,.68.09.93.27s.38.47.38.87h-.46c-.02-.19-.07-.34-.15-.44-.14-.19-.38-.28-.72-.28-.27,0-.47.06-.59.18-.12.12-.18.26-.18.42,0,.18.07.3.21.39.09.05.3.12.63.2l.49.12c.24.05.42.13.54.23.22.17.33.41.33.73,0,.4-.14.68-.42.85-.28.17-.61.26-.98.26-.43,0-.78-.11-1.02-.34-.25-.23-.37-.53-.36-.92h.46Z"/>
    <path class="cls-12" d="m75.33,47.63h.55l1.3,3.59h-.53l-.36-1.07h-1.42l-.39,1.07h-.5l1.35-3.59Zm.8,2.12l-.54-1.58-.58,1.58h1.12Z"/>
    <path class="cls-12" d="m77.62,47.63h.57l1.79,2.9v-2.9h.46v3.59h-.54l-1.82-2.89v2.89h-.46v-3.59Z"/>
    <path class="cls-12" d="m83.84,47.63v.43h-1.21v3.16h-.49v-3.16h-1.21v-.43h2.91Z"/>
    <path class="cls-12" d="m84.33,47.63h2.6v.44h-2.13v1.09h1.97v.42h-1.97v1.22h2.17v.43h-2.64v-3.59Zm1.88-.99l-.65.71h-.34l.45-.71h.54Z"/>
  </g>
  <polygon class="cls-8" points="85.11 44.13 42.25 44.13 35.5 49.45 42.25 54.77 85.11 54.77 91.86 49.45 85.11 44.13"/>
  <line class="cls-4" x1="44.12" y1="44.14" x2="60.31" y2="44.14"/>
  <line class="cls-6" x1="67.7" y1="44.14" x2="79.57" y2="44.14"/>
  <line class="cls-4" x1="60.51" y1="54.78" x2="72.38" y2="54.78"/>
  <line class="cls-7" x1="42.4" y1="54.78" x2="54.27" y2="54.78"/>
  <rect class="cls-10" x="-907.55" y="-536.83" width="1509.9" height="999.05"/>
</svg>