<?xml version="1.0" encoding="UTF-8"?>
<svg id="Calque_1" data-name="Calque 1" xmlns="http://www.w3.org/2000/svg" viewBox="0 0 223.29 111.99">
  <defs>
    <style>
      .cls-1 {
        fill: #f4f3f4;
      }

      .cls-2 {
        fill: #111;
      }

      .cls-3 {
        fill: #fff;
      }

      .cls-3, .cls-4 {
        stroke: #010101;
      }

      .cls-3, .cls-4, .cls-5, .cls-6, .cls-7, .cls-8, .cls-9 {
        stroke-miterlimit: 10;
      }

      .cls-10 {
        stroke: #fff;
        stroke-linecap: round;
        stroke-linejoin: round;
        stroke-width: 8px;
      }

      .cls-10, .cls-4, .cls-5, .cls-6, .cls-7, .cls-8, .cls-9 {
        fill: none;
      }

      .cls-5 {
        stroke: #f07e1a;
      }

      .cls-6 {
        stroke: #64328a;
      }

      .cls-7 {
        stroke: #2dabe3;
      }

      .cls-8 {
        stroke: #aaca43;
      }

      .cls-9 {
        stroke: #cfe3f0;
      }
    </style>
  </defs>
  <rect class="cls-10" x="-716.21" y="-76.94" width="1509.9" height="999.05"/>
  <g id="Titres_catégories" data-name="Titres catégories">
    <g>
      <path class="cls-3" d="m134.07,98.59l-54.76,9.34V17.3l53.45-9.08c2.19-.43,4.23,1.33,4.23,3.66v83.06c0,1.79-1.22,3.32-2.9,3.66h-.01Z"/>
      <path class="cls-3" d="m139.69,107.72l-60.38.59V17.7l61.35-.45c1.77.26,3.08,1.83,3.08,3.68v83.13c0,2.26-1.91,3.99-4.05,3.68h0s0-.01,0-.01Z"/>
      <path class="cls-7" d="m136.1,45.72h6.69"/>
      <path class="cls-7" d="m80.25,45.72h6.96"/>
      <path class="cls-1" d="m129.93,85.18h-35.71c-1.24,0-2.25,1.01-2.25,2.25v10.02c0,1.24,1.01,2.26,2.25,2.26h35.71c1.24,0,2.25-1.01,2.25-2.26v-10.02c0-1.24-1.01-2.25-2.25-2.25Z"/>
      <path class="cls-4" d="m105.39,90.59h.7"/>
      <path class="cls-4" d="m107.04,90.59h21.27"/>
      <path class="cls-4" d="m128.77,90.59h.7"/>
      <path class="cls-4" d="m102.32,95.33h.7"/>
      <path class="cls-4" d="m103.91,95.33h24.43"/>
      <path class="cls-4" d="m128.77,95.33h.7"/>
      <path class="cls-2" d="m94.84,93.83h.25l.78,1.27v-1.27h.21v1.56h-.24l-.79-1.27v1.27h-.21v-1.56h0,0Z"/>
      <path class="cls-2" d="m97.21,94.37c.1.09.15.23.15.42s-.05.34-.13.45c-.09.12-.22.19-.41.19-.15,0-.28-.06-.37-.17-.09-.11-.13-.26-.13-.43,0-.19.05-.35.14-.45.1-.12.23-.17.39-.17.15,0,.27.03.37.15h0Zm-.12.76c.05-.11.07-.21.07-.33,0-.11-.02-.2-.05-.26-.05-.11-.15-.17-.28-.17-.11,0-.19.05-.25.14-.05.08-.08.19-.08.31s.03.22.08.31c.05.08.13.13.25.13.13,0,.21-.05.26-.14h0Z"/>
      <path class="cls-2" d="m97.61,94.26h.19v.15s.09-.09.13-.12c.06-.05.13-.07.21-.07.09,0,.16.03.22.07.03.03.06.07.09.12.05-.06.09-.11.15-.13.05-.03.13-.05.19-.05.15,0,.26.06.31.17.03.06.05.14.05.23v.76h-.19v-.79c0-.07-.02-.12-.05-.17-.03-.02-.08-.03-.14-.03-.07,0-.15.03-.2.07s-.08.13-.08.25v.66h-.19v-.74c0-.08,0-.13-.03-.17-.03-.06-.08-.08-.16-.08-.07,0-.15.03-.19.08-.06.05-.09.17-.09.31v.6h-.19v-1.14h-.02s0,0,0,0Z"/>
      <path class="cls-2" d="m100.12,94.26h.22v.23h-.22v-.23Zm0,.9h.22v.23h-.22v-.23Z"/>
      <path class="cls-2" d="m94.86,89.09h.7c.14,0,.25.03.34.11.08.08.13.19.13.33,0,.13-.03.23-.11.32-.08.09-.19.13-.35.13h-.49v.66h-.21v-1.56h0,0Zm.82.22s-.11-.03-.19-.03h-.42v.54h.42c.1,0,.17-.02.23-.06.06-.03.09-.11.09-.21,0-.12-.05-.2-.13-.23h0Z"/>
      <path class="cls-2" d="m96.28,89.52h.18v.19s.05-.08.11-.14c.06-.05.13-.08.21-.08h.06v.21h-.07c-.1,0-.17.03-.23.09-.05.06-.08.13-.08.21v.66h-.19v-1.14h.01Z"/>
      <path class="cls-2" d="m97.71,89.54c.07.03.13.09.17.15.03.05.06.13.08.21,0,.05.02.13.02.25h-.83c0,.11.03.21.08.28s.13.11.23.11c.1,0,.18-.03.24-.1.03-.03.05-.08.07-.13h.19s-.02.09-.05.14-.06.09-.09.13c-.06.05-.13.1-.21.11-.05,0-.1.02-.15.02-.14,0-.26-.05-.36-.15-.1-.11-.15-.25-.15-.44s.05-.33.15-.45c.1-.11.22-.17.39-.17.08,0,.16.02.23.05h0Zm.07.43c0-.08-.03-.15-.05-.2-.05-.09-.14-.14-.26-.14-.09,0-.16.03-.22.1-.06.06-.09.15-.1.24h.63Zm-.08-.94l-.29.31h-.14l.19-.31h.23Z"/>
      <path class="cls-2" d="m98.2,89.52h.18v.16c.05-.07.11-.12.17-.15s.13-.05.21-.05c.16,0,.27.05.33.17.03.06.05.15.05.27v.73h-.19v-.72c0-.07,0-.13-.03-.17-.03-.07-.1-.11-.19-.11-.05,0-.08,0-.11.02-.05.02-.1.05-.15.09-.03.03-.05.08-.06.12,0,.03-.02.1-.02.17v.6h-.19v-1.14h0v.03Z"/>
      <path class="cls-2" d="m100.24,89.63c.1.1.15.24.15.43s-.05.34-.13.45c-.09.11-.22.18-.41.18-.15,0-.28-.05-.37-.16-.09-.11-.13-.25-.13-.43s.05-.35.14-.45c.1-.11.23-.17.39-.17.15,0,.27.05.37.15h0Zm-.11.75c.05-.1.07-.21.07-.32,0-.11-.02-.19-.05-.26-.05-.11-.15-.16-.28-.16-.12,0-.2.05-.25.13s-.08.19-.08.32.03.22.08.31c.05.08.13.13.25.13.13,0,.21-.05.26-.14h0Z"/>
      <path class="cls-2" d="m100.62,89.52h.19v.16c.05-.05.09-.1.13-.13.06-.05.13-.06.21-.06.09,0,.16.03.22.07.03.03.06.06.09.12.05-.06.09-.11.15-.13.05-.03.13-.05.2-.05.15,0,.26.05.31.17.03.06.05.15.05.24v.76h-.2v-.79c0-.07-.02-.13-.05-.16-.03-.03-.08-.05-.14-.05-.07,0-.15.03-.19.07-.05.05-.08.13-.08.25v.66h-.2v-.74c0-.08,0-.13-.03-.17-.03-.05-.08-.08-.16-.08-.07,0-.14.03-.19.08-.06.05-.09.16-.09.31v.6h-.19v-1.14h-.03Z"/>
      <path class="cls-2" d="m103.15,89.54h.22v.23h-.22v-.23Zm0,.89h.22v.23h-.22v-.23Z"/>
      <path class="cls-2" d="m93.56,44.33c.22.21.35.45.37.73h-.42c-.05-.21-.15-.37-.29-.49-.15-.13-.34-.18-.58-.18-.31,0-.56.11-.75.33s-.29.56-.29,1.02c0,.37.09.68.26.91.17.23.43.35.76.35.31,0,.55-.13.71-.37.09-.13.15-.31.19-.51h.42c-.03.34-.16.61-.37.84-.25.28-.58.41-1.02.41-.37,0-.68-.12-.92-.34-.33-.29-.49-.76-.49-1.38,0-.47.13-.86.37-1.16.27-.33.63-.49,1.1-.49.4,0,.71.11.92.32h.02Z"/>
      <path class="cls-2" d="m95.45,44.1h.49l1.16,3.2h-.47l-.32-.95h-1.26l-.35.95h-.45l1.2-3.2h0Zm.71,1.89l-.49-1.41-.52,1.41h1Z"/>
      <path class="cls-2" d="m97.54,44.1h1.46c.24,0,.44.03.59.11.29.13.45.39.45.76,0,.19-.03.35-.11.47s-.19.23-.33.29c.13.05.22.11.29.19.06.08.1.21.11.4l.02.43c0,.13.02.21.03.28.03.1.07.17.15.19v.07h-.53s-.03-.06-.03-.11c0-.05-.02-.13-.03-.25l-.03-.53c0-.21-.08-.35-.22-.42-.08-.03-.21-.06-.37-.06h-.95v1.37h-.44v-3.2h-.04Zm1.41,1.47c.19,0,.36-.03.47-.13.11-.08.17-.22.17-.44s-.08-.39-.24-.47c-.09-.05-.21-.06-.35-.06h-1.02v1.1h.97,0Z"/>
      <path class="cls-2" d="m100.7,44.1h.51l1.59,2.59v-2.59h.41v3.2h-.48l-1.62-2.57v2.57h-.41v-3.2h0Z"/>
      <path class="cls-2" d="m103.97,44.1h2.32v.39h-1.9v.97h1.75v.37h-1.75v1.09h1.93v.39h-2.35v-3.2h0Z"/>
      <path class="cls-2" d="m109.23,44.1v.39h-1.08v2.82h-.44v-2.82h-1.08v-.39h2.59Z"/>
      <path class="cls-2" d="m110.8,44.1h1.28c.44,0,.76.15,1.01.47.21.29.32.64.32,1.08,0,.34-.06.64-.19.92-.23.49-.6.73-1.14.73h-1.28v-3.2h0Zm1.2,2.84c.14,0,.26-.02.36-.05.16-.05.29-.17.4-.33.08-.13.14-.29.18-.5.02-.13.03-.23.03-.34,0-.39-.08-.7-.23-.92-.15-.23-.4-.33-.74-.33h-.75v2.45h.76v.02h0Z"/>
      <path class="cls-2" d="m114.04,44.1h2.32v.39h-1.9v.97h1.75v.37h-1.75v1.09h1.93v.39h-2.35v-3.2h0Z"/>
      <path class="cls-2" d="m118.49,46.26c0,.18.05.33.13.45.15.21.39.32.73.32.15,0,.29-.03.43-.07.25-.09.37-.25.37-.49,0-.18-.05-.29-.16-.37-.11-.07-.28-.13-.5-.19l-.42-.1c-.28-.06-.47-.13-.58-.21-.19-.13-.29-.33-.29-.6,0-.29.1-.53.29-.7.2-.19.47-.28.82-.28.33,0,.6.08.83.24.22.16.34.42.34.78h-.41c-.02-.17-.06-.31-.13-.39-.13-.17-.34-.25-.64-.25-.24,0-.42.05-.53.16-.11.11-.16.23-.16.37,0,.16.06.27.19.35.08.05.27.11.56.18l.44.11c.21.05.37.12.48.21.2.15.29.37.29.65,0,.36-.13.6-.37.76s-.54.23-.87.23c-.39,0-.7-.1-.91-.31-.22-.21-.33-.47-.32-.82h.41v-.03h-.01Z"/>
      <path class="cls-2" d="m122.12,44.1h.49l1.16,3.2h-.47l-.32-.95h-1.27l-.35.95h-.45l1.2-3.2Zm.71,1.89l-.48-1.41-.52,1.41h1Z"/>
      <path class="cls-2" d="m124.16,44.1h.51l1.59,2.59v-2.59h.41v3.2h-.49l-1.62-2.57v2.57h-.41v-3.2h0Z"/>
      <path class="cls-2" d="m129.7,44.1v.39h-1.08v2.82h-.44v-2.82h-1.08v-.39h2.59Z"/>
      <path class="cls-2" d="m130.13,44.1h2.32v.39h-1.9v.97h1.75v.37h-1.75v1.09h1.93v.39h-2.35v-3.2h0Zm1.67-.9l-.58.63h-.31l.4-.63h.49Z"/>
      <path class="cls-5" d="m130.83,40.98h-38.19l-6.01,4.74,6.01,4.74h38.19l6.01-4.74-6.01-4.74Z"/>
      <path class="cls-6" d="m94.3,40.99h14.43"/>
      <path class="cls-9" d="m115.31,40.99h10.58"/>
      <path class="cls-6" d="m108.9,50.47h10.58"/>
      <path class="cls-8" d="m92.77,50.47h10.58"/>
    </g>
    <g>
      <path class="cls-3" d="m204.15,98.59l-54.76,9.34V17.3l53.45-9.08c2.19-.43,4.23,1.33,4.23,3.66v83.06c0,1.79-1.22,3.32-2.9,3.66h-.01Z"/>
      <path class="cls-3" d="m209.77,107.72l-60.38.59V17.7l61.35-.45c1.77.26,3.08,1.83,3.08,3.68v83.13c0,2.26-1.91,3.99-4.05,3.68h0s0-.01,0-.01Z"/>
      <path class="cls-7" d="m206.19,45.72h6.69"/>
      <path class="cls-7" d="m150.32,45.72h6.96"/>
      <path class="cls-1" d="m200,85.18h-35.71c-1.24,0-2.25,1.01-2.25,2.25v10.02c0,1.24,1.01,2.26,2.25,2.26h35.71c1.24,0,2.25-1.01,2.25-2.26v-10.02c0-1.24-1.01-2.25-2.25-2.25Z"/>
      <path class="cls-4" d="m175.47,90.59h.7"/>
      <path class="cls-4" d="m177.12,90.59h21.27"/>
      <path class="cls-4" d="m198.85,90.59h.7"/>
      <path class="cls-4" d="m172.4,95.33h.7"/>
      <path class="cls-4" d="m173.99,95.33h24.43"/>
      <path class="cls-4" d="m198.85,95.33h.7"/>
      <path class="cls-2" d="m164.92,93.83h.25l.78,1.27v-1.27h.21v1.56h-.24l-.79-1.27v1.27h-.21v-1.56h0,0Z"/>
      <path class="cls-2" d="m167.29,94.37c.1.09.15.23.15.42s-.05.34-.13.45c-.09.12-.22.19-.41.19-.15,0-.28-.06-.37-.17-.09-.11-.13-.26-.13-.43,0-.19.05-.35.14-.45.1-.12.23-.17.39-.17.15,0,.27.03.37.15h0Zm-.12.76c.05-.11.07-.21.07-.33,0-.11-.02-.2-.05-.26-.05-.11-.15-.17-.28-.17-.11,0-.19.05-.25.14-.05.08-.08.19-.08.31s.03.22.08.31c.05.08.13.13.25.13.13,0,.21-.05.26-.14h0Z"/>
      <path class="cls-2" d="m167.69,94.26h.19v.15s.09-.09.13-.12c.06-.05.13-.07.21-.07.09,0,.16.03.22.07.03.03.06.07.09.12.05-.06.09-.11.15-.13.05-.03.13-.05.19-.05.15,0,.26.06.31.17.03.06.05.14.05.23v.76h-.19v-.79c0-.07-.02-.12-.05-.17-.03-.02-.08-.03-.14-.03-.07,0-.15.03-.2.07s-.08.13-.08.25v.66h-.19v-.74c0-.08,0-.13-.03-.17-.03-.06-.08-.08-.16-.08-.07,0-.15.03-.19.08-.06.05-.09.17-.09.31v.6h-.19v-1.14h-.02s0,0,0,0Z"/>
      <path class="cls-2" d="m170.2,94.26h.22v.23h-.22v-.23Zm0,.9h.22v.23h-.22v-.23Z"/>
      <path class="cls-2" d="m164.94,89.09h.7c.14,0,.25.03.34.11.08.08.13.19.13.33,0,.13-.03.23-.11.32-.08.09-.19.13-.35.13h-.49v.66h-.21v-1.56h0,0Zm.82.22s-.11-.03-.19-.03h-.42v.54h.42c.1,0,.17-.02.23-.06.06-.03.09-.11.09-.21,0-.12-.05-.2-.13-.23h0Z"/>
      <path class="cls-2" d="m166.36,89.52h.18v.19s.05-.08.11-.14c.06-.05.13-.08.21-.08h.06v.21h-.07c-.1,0-.17.03-.23.09-.05.06-.08.13-.08.21v.66h-.19v-1.14h.01Z"/>
      <path class="cls-2" d="m167.78,89.54c.07.03.13.09.17.15.03.05.06.13.08.21,0,.05.02.13.02.25h-.83c0,.11.03.21.08.28s.13.11.23.11c.1,0,.18-.03.24-.1.03-.03.05-.08.07-.13h.19s-.02.09-.05.14-.06.09-.09.13c-.06.05-.13.1-.21.11-.05,0-.1.02-.15.02-.14,0-.26-.05-.36-.15-.1-.11-.15-.25-.15-.44s.05-.33.15-.45c.1-.11.22-.17.39-.17.08,0,.16.02.23.05h0Zm.07.43c0-.08-.03-.15-.05-.2-.05-.09-.14-.14-.26-.14-.09,0-.16.03-.22.1-.06.06-.09.15-.1.24h.63Zm-.08-.94l-.29.31h-.14l.19-.31h.23Z"/>
      <path class="cls-2" d="m168.28,89.52h.18v.16c.05-.07.11-.12.17-.15s.13-.05.21-.05c.16,0,.27.05.33.17.03.06.05.15.05.27v.73h-.19v-.72c0-.07,0-.13-.03-.17-.03-.07-.1-.11-.19-.11-.05,0-.08,0-.11.02-.05.02-.1.05-.15.09-.03.03-.05.08-.06.12,0,.03-.02.1-.02.17v.6h-.19v-1.14h0v.03Z"/>
      <path class="cls-2" d="m170.32,89.63c.1.1.15.24.15.43s-.05.34-.13.45c-.09.11-.22.18-.41.18-.15,0-.28-.05-.37-.16-.09-.11-.13-.25-.13-.43s.05-.35.14-.45c.1-.11.23-.17.39-.17.15,0,.27.05.37.15h0Zm-.11.75c.05-.1.07-.21.07-.32,0-.11-.02-.19-.05-.26-.05-.11-.15-.16-.28-.16-.12,0-.2.05-.25.13s-.08.19-.08.32.03.22.08.31c.05.08.13.13.25.13.13,0,.21-.05.26-.14h0Z"/>
      <path class="cls-2" d="m170.7,89.52h.19v.16c.05-.05.09-.1.13-.13.06-.05.13-.06.21-.06.09,0,.16.03.22.07.03.03.06.06.09.12.05-.06.09-.11.15-.13.05-.03.13-.05.2-.05.15,0,.26.05.31.17.03.06.05.15.05.24v.76h-.2v-.79c0-.07-.02-.13-.05-.16-.03-.03-.08-.05-.14-.05-.07,0-.15.03-.19.07-.05.05-.08.13-.08.25v.66h-.2v-.74c0-.08,0-.13-.03-.17-.03-.05-.08-.08-.16-.08-.07,0-.14.03-.19.08-.06.05-.09.16-.09.31v.6h-.19v-1.14h-.03Z"/>
      <path class="cls-2" d="m173.23,89.54h.22v.23h-.22v-.23Zm0,.89h.22v.23h-.22v-.23Z"/>
      <path class="cls-2" d="m163.64,44.33c.22.21.35.45.37.73h-.42c-.05-.21-.15-.37-.29-.49-.15-.13-.34-.18-.58-.18-.31,0-.56.11-.75.33s-.29.56-.29,1.02c0,.37.09.68.26.91.17.23.43.35.76.35.31,0,.55-.13.71-.37.09-.13.15-.31.19-.51h.42c-.03.34-.16.61-.37.84-.25.28-.58.41-1.02.41-.37,0-.68-.12-.92-.34-.33-.29-.49-.76-.49-1.38,0-.47.13-.86.37-1.16.27-.33.63-.49,1.1-.49.4,0,.71.11.92.32h.02Z"/>
      <path class="cls-2" d="m165.53,44.1h.49l1.16,3.2h-.47l-.32-.95h-1.26l-.35.95h-.45l1.2-3.2h0Zm.71,1.89l-.49-1.41-.52,1.41h1Z"/>
      <path class="cls-2" d="m167.62,44.1h1.46c.24,0,.44.03.59.11.29.13.45.39.45.76,0,.19-.03.35-.11.47s-.19.23-.33.29c.13.05.22.11.29.19.06.08.1.21.11.4l.02.43c0,.13.02.21.03.28.03.1.07.17.15.19v.07h-.53s-.03-.06-.03-.11c0-.05-.02-.13-.03-.25l-.03-.53c0-.21-.08-.35-.22-.42-.08-.03-.21-.06-.37-.06h-.95v1.37h-.44v-3.2h-.04Zm1.41,1.47c.19,0,.36-.03.47-.13.11-.08.17-.22.17-.44s-.08-.39-.24-.47c-.09-.05-.21-.06-.35-.06h-1.02v1.1h.97,0Z"/>
      <path class="cls-2" d="m170.78,44.1h.51l1.59,2.59v-2.59h.41v3.2h-.48l-1.62-2.57v2.57h-.41v-3.2h0Z"/>
      <path class="cls-2" d="m174.05,44.1h2.32v.39h-1.9v.97h1.75v.37h-1.75v1.09h1.93v.39h-2.35v-3.2h0Z"/>
      <path class="cls-2" d="m179.3,44.1v.39h-1.08v2.82h-.44v-2.82h-1.08v-.39h2.59Z"/>
      <path class="cls-2" d="m180.88,44.1h1.28c.44,0,.76.15,1.01.47.21.29.32.64.32,1.08,0,.34-.06.64-.19.92-.23.49-.6.73-1.14.73h-1.28v-3.2h0Zm1.2,2.84c.14,0,.26-.02.36-.05.16-.05.29-.17.4-.33.08-.13.14-.29.18-.5.02-.13.03-.23.03-.34,0-.39-.08-.7-.23-.92-.15-.23-.4-.33-.74-.33h-.75v2.45h.76v.02h0Z"/>
      <path class="cls-2" d="m184.11,44.1h2.32v.39h-1.9v.97h1.75v.37h-1.75v1.09h1.93v.39h-2.35v-3.2h0Z"/>
      <path class="cls-2" d="m188.57,46.26c0,.18.05.33.13.45.15.21.39.32.73.32.15,0,.29-.03.43-.07.25-.09.37-.25.37-.49,0-.18-.05-.29-.16-.37-.11-.07-.28-.13-.5-.19l-.42-.1c-.28-.06-.47-.13-.58-.21-.19-.13-.29-.33-.29-.6,0-.29.1-.53.29-.7.2-.19.47-.28.82-.28.33,0,.6.08.83.24.22.16.34.42.34.78h-.41c-.02-.17-.06-.31-.13-.39-.13-.17-.34-.25-.64-.25-.24,0-.42.05-.53.16s-.16.23-.16.37c0,.16.06.27.19.35.08.05.27.11.56.18l.44.11c.21.05.37.12.48.21.2.15.29.37.29.65,0,.36-.13.6-.37.76s-.54.23-.87.23c-.39,0-.7-.1-.91-.31-.22-.21-.33-.47-.32-.82h.41v-.03h-.01Z"/>
      <path class="cls-2" d="m192.19,44.1h.49l1.16,3.2h-.47l-.32-.95h-1.27l-.35.95h-.45l1.2-3.2h0Zm.71,1.89l-.48-1.41-.52,1.41h1Z"/>
      <path class="cls-2" d="m194.23,44.1h.51l1.59,2.59v-2.59h.41v3.2h-.49l-1.62-2.57v2.57h-.41v-3.2h0Z"/>
      <path class="cls-2" d="m199.77,44.1v.39h-1.08v2.82h-.44v-2.82h-1.08v-.39h2.59Z"/>
      <path class="cls-2" d="m200.21,44.1h2.32v.39h-1.9v.97h1.75v.37h-1.75v1.09h1.93v.39h-2.35v-3.2h0Zm1.67-.9l-.58.63h-.31l.4-.63h.49,0Z"/>
      <path class="cls-5" d="m200.91,40.98h-38.19l-6.01,4.74,6.01,4.74h38.19l6.01-4.74-6.01-4.74Z"/>
      <path class="cls-6" d="m164.38,40.99h14.43"/>
      <path class="cls-9" d="m185.39,40.99h10.58"/>
      <path class="cls-6" d="m178.98,50.47h10.58"/>
      <path class="cls-8" d="m162.85,50.47h10.58"/>
    </g>
    <g>
      <path class="cls-3" d="m64.89,98.59l-54.76,9.33V17.3l53.45-9.08c2.19-.43,4.23,1.33,4.23,3.66v83.06c0,1.79-1.22,3.32-2.9,3.66h-.01Z"/>
      <path class="cls-3" d="m70.51,107.72l-60.38.59V17.7l61.35-.45c1.77.26,3.08,1.83,3.08,3.68v83.13c0,2.26-1.91,3.99-4.05,3.68h0s0-.01,0-.01Z"/>
      <path class="cls-7" d="m66.93,45.72h6.69"/>
      <path class="cls-7" d="m11.07,45.72h6.96"/>
      <path class="cls-1" d="m60.75,85.18H25.04c-1.24,0-2.25,1.01-2.25,2.25v10.02c0,1.24,1.01,2.26,2.25,2.26h35.71c1.24,0,2.25-1.01,2.25-2.26v-10.02c0-1.24-1.01-2.25-2.25-2.25h0Z"/>
      <path class="cls-4" d="m36.22,90.59h.7"/>
      <path class="cls-4" d="m37.87,90.59h21.27"/>
      <path class="cls-4" d="m59.6,90.59h.7"/>
      <path class="cls-4" d="m33.14,95.33h.7"/>
      <path class="cls-4" d="m34.73,95.33h24.43"/>
      <path class="cls-4" d="m59.6,95.33h.7"/>
      <path class="cls-2" d="m25.66,93.83h.25l.78,1.27v-1.27h.21v1.56h-.24l-.79-1.27v1.27h-.21v-1.56h0,0Z"/>
      <path class="cls-2" d="m28.04,94.37c.1.09.15.23.15.42s-.05.34-.13.45c-.09.12-.22.19-.41.19-.15,0-.28-.06-.37-.17-.09-.11-.13-.26-.13-.43,0-.19.05-.35.14-.45.1-.12.23-.17.39-.17.15,0,.27.03.37.15h0Zm-.12.76c.05-.11.07-.21.07-.33,0-.11-.02-.2-.05-.26-.05-.11-.15-.17-.28-.17-.11,0-.19.05-.25.14-.05.08-.08.19-.08.31s.03.22.08.31c.05.08.13.13.25.13.13,0,.21-.05.26-.14h0Z"/>
      <path class="cls-2" d="m28.43,94.26h.19v.15s.09-.09.13-.12c.06-.05.13-.07.21-.07.09,0,.16.03.22.07.03.03.06.07.09.12.05-.06.09-.11.15-.13.05-.03.13-.05.19-.05.15,0,.26.06.31.17.03.06.05.14.05.23v.76h-.19v-.79c0-.07-.02-.12-.05-.17-.03-.02-.08-.03-.14-.03-.07,0-.15.03-.2.07s-.08.13-.08.25v.66h-.19v-.74c0-.08,0-.13-.03-.17-.03-.06-.08-.08-.16-.08-.07,0-.15.03-.19.08-.06.05-.09.17-.09.31v.6h-.19v-1.14h-.02s0,0,0,0Z"/>
      <path class="cls-2" d="m30.94,94.26h.22v.23h-.22v-.23Zm0,.9h.22v.23h-.22v-.23Z"/>
      <path class="cls-2" d="m25.68,89.09h.7c.14,0,.25.03.34.11.08.08.13.19.13.33,0,.13-.03.23-.11.32-.08.09-.19.13-.35.13h-.49v.66h-.21v-1.56h0,0Zm.82.22s-.11-.03-.19-.03h-.42v.54h.42c.1,0,.17-.02.23-.06.06-.03.09-.11.09-.21,0-.12-.05-.2-.13-.23h0,0Z"/>
      <path class="cls-2" d="m27.1,89.52h.18v.19s.05-.08.11-.14c.06-.05.13-.08.21-.08h.06v.21h-.07c-.1,0-.17.03-.23.09-.05.06-.08.13-.08.21v.66h-.19v-1.14h.01Z"/>
      <path class="cls-2" d="m28.53,89.54c.07.03.13.09.17.15.03.05.06.13.08.21,0,.05.02.13.02.25h-.83c0,.11.03.21.08.28s.13.11.23.11c.1,0,.18-.03.24-.1.03-.03.05-.08.07-.13h.19s-.02.09-.05.14-.06.09-.09.13c-.06.05-.13.1-.21.11-.05,0-.1.02-.15.02-.14,0-.26-.05-.36-.15-.1-.11-.15-.25-.15-.44s.05-.33.15-.45c.1-.11.22-.17.39-.17.08,0,.16.02.23.05h0Zm.07.43c0-.08-.03-.15-.05-.2-.05-.09-.14-.14-.26-.14-.09,0-.16.03-.22.1-.06.06-.09.15-.1.24h.63Zm-.08-.94l-.29.31h-.14l.19-.31h.23Z"/>
      <path class="cls-2" d="m29.03,89.52h.18v.16c.05-.07.11-.12.17-.15s.13-.05.21-.05c.16,0,.27.05.33.17.03.06.05.15.05.27v.73h-.19v-.72c0-.07,0-.13-.03-.17-.03-.07-.1-.11-.19-.11-.05,0-.08,0-.11.02-.05.02-.1.05-.15.09-.03.03-.05.08-.06.12,0,.03-.02.1-.02.17v.6h-.19v-1.14h0v.03Z"/>
      <path class="cls-2" d="m31.07,89.63c.1.1.15.24.15.43s-.05.34-.13.45-.22.18-.41.18c-.15,0-.28-.05-.37-.16-.09-.11-.13-.25-.13-.43s.05-.35.14-.45c.1-.11.23-.17.39-.17.15,0,.27.05.37.15h0Zm-.11.75c.05-.1.07-.21.07-.32,0-.11-.02-.19-.05-.26-.05-.11-.15-.16-.28-.16-.12,0-.2.05-.25.13s-.08.19-.08.32.03.22.08.31c.05.08.13.13.25.13.13,0,.21-.05.26-.14h0Z"/>
      <path class="cls-2" d="m31.45,89.52h.19v.16c.05-.05.09-.1.13-.13.06-.05.13-.06.21-.06.09,0,.16.03.22.07.03.03.06.06.09.12.05-.06.09-.11.15-.13.05-.03.13-.05.2-.05.15,0,.26.05.31.17.03.06.05.15.05.24v.76h-.2v-.79c0-.07-.02-.13-.05-.16-.03-.03-.08-.05-.14-.05-.07,0-.15.03-.19.07-.05.05-.08.13-.08.25v.66h-.2v-.74c0-.08,0-.13-.03-.17-.03-.05-.08-.08-.16-.08-.07,0-.14.03-.19.08-.06.05-.09.16-.09.31v.6h-.19v-1.14h-.03Z"/>
      <path class="cls-2" d="m33.97,89.54h.22v.23h-.22v-.23Zm0,.89h.22v.23h-.22v-.23Z"/>
      <path class="cls-2" d="m24.38,44.33c.22.21.35.45.37.73h-.42c-.05-.21-.15-.37-.29-.49-.15-.13-.34-.18-.58-.18-.31,0-.56.11-.75.33-.19.23-.29.56-.29,1.02,0,.37.09.68.26.91.17.23.43.35.76.35.31,0,.55-.13.71-.37.09-.13.15-.31.19-.51h.42c-.03.34-.16.61-.37.84-.25.28-.58.41-1.02.41-.37,0-.68-.12-.92-.34-.33-.29-.49-.76-.49-1.38,0-.47.13-.86.37-1.16.27-.33.63-.49,1.1-.49.4,0,.71.11.92.32h.02Z"/>
      <path class="cls-2" d="m26.27,44.1h.49l1.16,3.2h-.47l-.32-.95h-1.26l-.35.95h-.45l1.2-3.2h0Zm.71,1.89l-.49-1.41-.52,1.41h1Z"/>
      <path class="cls-2" d="m28.36,44.1h1.46c.24,0,.44.03.59.11.29.13.45.39.45.76,0,.19-.03.35-.11.47s-.19.23-.33.29c.13.05.22.11.29.19.06.08.1.21.11.4l.02.43c0,.13.02.21.03.28.03.1.07.17.15.19v.07h-.53s-.03-.06-.03-.11c0-.05-.02-.13-.03-.25l-.03-.53c0-.21-.08-.35-.22-.42-.08-.03-.21-.06-.37-.06h-.95v1.37h-.44v-3.2h-.04Zm1.41,1.47c.19,0,.36-.03.47-.13.11-.08.17-.22.17-.44s-.08-.39-.24-.47c-.09-.05-.21-.06-.35-.06h-1.02v1.1h.97Z"/>
      <path class="cls-2" d="m31.53,44.1h.51l1.59,2.59v-2.59h.41v3.2h-.48l-1.62-2.57v2.57h-.41v-3.2h0Z"/>
      <path class="cls-2" d="m34.79,44.1h2.32v.39h-1.9v.97h1.75v.37h-1.75v1.09h1.93v.39h-2.35v-3.2h0Z"/>
      <path class="cls-2" d="m40.05,44.1v.39h-1.08v2.82h-.44v-2.82h-1.08v-.39s2.59,0,2.59,0Z"/>
      <path class="cls-2" d="m41.63,44.1h1.28c.44,0,.76.15,1.01.47.21.29.32.64.32,1.08,0,.34-.06.64-.19.92-.23.49-.6.73-1.14.73h-1.28v-3.2h0Zm1.2,2.84c.14,0,.26-.02.36-.05.16-.05.29-.17.4-.33.08-.13.14-.29.18-.5.02-.13.03-.23.03-.34,0-.39-.08-.7-.23-.92-.15-.23-.4-.33-.74-.33h-.75v2.45h.76v.02h0Z"/>
      <path class="cls-2" d="m44.86,44.1h2.32v.39h-1.9v.97h1.75v.37h-1.75v1.09h1.93v.39h-2.35v-3.2h0Z"/>
      <path class="cls-2" d="m49.32,46.26c0,.18.05.33.13.45.15.21.39.32.73.32.15,0,.29-.03.43-.07.25-.09.37-.25.37-.49,0-.18-.05-.29-.16-.37-.11-.07-.28-.13-.5-.19l-.42-.1c-.28-.06-.47-.13-.58-.21-.19-.13-.29-.33-.29-.6,0-.29.1-.53.29-.7.2-.19.47-.28.82-.28.33,0,.6.08.83.24.22.16.34.42.34.78h-.41c-.02-.17-.06-.31-.13-.39-.13-.17-.34-.25-.64-.25-.24,0-.42.05-.53.16s-.16.23-.16.37c0,.16.06.27.19.35.08.05.27.11.56.18l.44.11c.21.05.37.12.48.21.2.15.29.37.29.65,0,.36-.13.6-.37.76-.25.15-.54.23-.87.23-.39,0-.7-.1-.91-.31-.22-.21-.33-.47-.32-.82h.41v-.03h-.01Z"/>
      <path class="cls-2" d="m52.94,44.1h.49l1.16,3.2h-.47l-.32-.95h-1.27l-.35.95h-.45s1.2-3.2,1.2-3.2Zm.71,1.89l-.48-1.41-.52,1.41h1Z"/>
      <path class="cls-2" d="m54.98,44.1h.51l1.59,2.59v-2.59h.41v3.2h-.49l-1.62-2.57v2.57h-.41v-3.2h0Z"/>
      <path class="cls-2" d="m60.52,44.1v.39h-1.08v2.82h-.44v-2.82h-1.08v-.39h2.59Z"/>
      <path class="cls-2" d="m60.95,44.1h2.32v.39h-1.9v.97h1.75v.37h-1.75v1.09h1.93v.39h-2.35v-3.2h0Zm1.67-.9l-.58.63h-.31l.4-.63h.49Z"/>
      <path class="cls-5" d="m61.65,40.98H23.46l-6.01,4.74,6.01,4.74h38.19l6.01-4.74-6.01-4.74Z"/>
      <path class="cls-6" d="m25.12,40.99h14.43"/>
      <path class="cls-9" d="m46.13,40.99h10.58"/>
      <path class="cls-6" d="m39.73,50.47h10.58"/>
      <path class="cls-8" d="m23.59,50.47h10.58"/>
    </g>
  </g>
</svg>