<?xml version="1.0" encoding="UTF-8"?>
<svg id="Calque_1" data-name="Calque 1" xmlns="http://www.w3.org/2000/svg" viewBox="0 0 128 128">
  <defs>
    <style>
      .cls-1, .cls-2, .cls-3 {
        stroke: #000;
      }

      .cls-1, .cls-2, .cls-3, .cls-4 {
        stroke-linecap: round;
        stroke-linejoin: round;
      }

      .cls-1, .cls-4 {
        fill: none;
      }

      .cls-2 {
        fill: #76ac75;
      }

      .cls-2, .cls-3 {
        stroke-width: 2px;
      }

      .cls-3 {
        fill: #ffa75f;
      }

      .cls-4 {
        stroke: #fff;
        stroke-width: 8px;
      }
    </style>
  </defs>
  <path class="cls-3" d="m114,123.16c-.35.34-2.98-2.52-8.89-6.63-5.36-3.72-6.22-3.46-9.4-6.35-2.56-2.33-3-3.41-5.98-5.73-2.49-1.93-3.6-2.28-5.81-3.76-4.45-2.96-4.18-4.34-8.79-8.34-5.87-5.1-7.25-3.66-12.1-8.58-2.11-2.13-2.91-3.48-5.73-5.73-2.28-1.83-3.63-2.44-6.44-4.14-6.26-3.79-9.39-5.68-11.03-8.1-3.84-5.66-1.99-12.58-1.89-12.94.13-.46.77-2.58,2.31-4.86.34-.49.72-.99,1.13-1.49.18-.2.36-.39.54-.57.55-.57,1.18-1.13,1.87-1.64.96-.7,2.07-1.31,3.35-1.75,4.36-1.52,8.3-.25,9.38.11,2.78.93,6.03,4.99,6.5,5.49,1.39,1.52,1.46,1.5,3.33,4.74,1.52,2.63,1.63,2.04,6.08,7.8,3.85,5.01,5.77,7.5,7.79,11.11,2.78,5.01,2.1,5.55,4.57,9.17,3.06,4.47,4,3.46,6.86,7.77,2.44,3.68,2.19,5.07,5.68,10.42.8,1.24.72,1.03,2.78,4.05,2.56,3.75,3.98,5.98,5.03,7.58,5.23,7.92,6.24,8.58,8.89,12.35Z"/>
  <path class="cls-2" d="m36.03,38.81c-.77-.49-1.55-.88-2.44-1.32-1.14-.57-2.23-1.03-3.25-1.41-1.8-1.53-4.69-4.21-7.82-8.28-2.89-3.76-4.35-5.71-5.04-8.68-.91-3.89-.02-6.79.23-7.58.93-2.74,2.93-5.57,3.93-5.25,1.39.42.16,6.49,1.64,6.92.75.21,1.34-1.24,3.71-2.83,1.38-.93,3.9-2.27,4.52-1.62.72.74-1.15,4.04-1.78,5.15-.95,1.68-1.71,2.51-1.37,3.15.36.63,1.36.27,2.8,1.21.48.31,1.48.94,1.4,1.6-.09.87-1.98.65-3.14,2.14-.65.82-.74,1.75-.87,3.11-.09,1.04-.23,2.53.34,3.9.84,1.98,3.24,3.63,5.47,5.49.04.14.08.28.12.42.47,1.53.99,2.77,1.54,3.88Z"/>
  <path class="cls-2" d="m41.37,46.53c-.41.5-.79.99-1.13,1.49-.95-.93-2.28-2.14-4.12-3.6-2.68-2.11-4.58-3.25-7.03-3.67-1.14-.18-2.95-.46-4.15.56-.83.7-.51,1.31-1.52,3.41-.6,1.25-1.41,2.88-3.08,3.75-.49.26-1.42.74-2.2.38-.87-.4-1.14-1.62-1.31-2.44-.37-1.68.07-2.57-.41-2.86-.46-.28-1,.44-2.37.84-.24.07-2.72.78-3.64-.3-.89-1.06.27-3.3.4-3.54,1.15-2.14,3.27-2.92,3.1-3.3-.14-.29-1.36.26-3.15.14-.98-.06-2.46-.08-2.62-.62-.26-.82,2.49-2.5,4.67-3.36,1.35-.54,2.68-1.05,4.41-.93,1.43.1,1.84.54,4.42,1.29,1.68.47,1.75.35,3.74.85,1.19.3,2.93.72,4.94,1.47,1.02.38,2.12.84,3.25,1.41.9.44,1.67.83,2.44,1.32.31.66.64,1.28.96,1.89.04.08.09.16.13.24,1.02,1.84,2.62,3.96,4.26,5.6Z"/>
  <path class="cls-2" d="m56.75,23.88c-.15,1.27-4.49,2-6.52,2.22-2.15.22-3.59.07-3.83.71-.32.9,2.27,2.07,1.97,3.32-.25,1.09-2.5,1.44-3.03,1.53-1.18.19-2.27.05-3.85-.14-1.75-.23-2.19-.43-2.68-.1-.87.59-.78,2.14-.72,2.92.2,2.82,1.53,5.03,2.53,6.41,1.15,1.59,2.25,2.7,3.15,3.58-.69.51-1.32,1.06-1.87,1.64-.18.18-.36.38-.54.57-1.64-1.63-3.24-3.76-4.26-5.6-.04-.08-.09-.16-.13-.24-.32-.61-.65-1.22-.96-1.89-.55-1.11-1.08-2.35-1.54-3.88-.04-.14-.08-.28-.12-.42-.84-2.74-1.46-5.02-.89-7.87.19-.97.89-3.78,3.26-6.13.38-.38.81-.75,5.51-3.24,4.49-2.38,5.37-2.72,5.88-2.3.73.58.49,2.36-.16,3.54-.78,1.41-2.05,1.72-1.94,2.11.19.69,3.76-.55,7.52.84,1.22.45,3.33,1.5,3.21,2.42Z"/>
  <g>
    <path class="cls-1" d="m39.22,64.83s.65-2.68,2.38-4.95,4.02-4.85,4.02-4.85"/>
    <path class="cls-1" d="m55.86,53.76s-3.14,1.22-5.86,4.43c-2.83,3.32-3.32,5.7-3.32,5.7"/>
    <path class="cls-1" d="m67.25,54.35s-4.5-.02-7.37,2.59-4.17,4.64-4.17,4.64"/>
    <path class="cls-1" d="m57.3,78.05s1.46-3.31,3.6-5.38c2.14-2.07,5.67-4.85,5.67-4.85"/>
    <path class="cls-1" d="m58.59,79.14s1.08-2.18,2.78-3.35,2.13-1.34,2.13-1.34"/>
    <path class="cls-1" d="m77.35,75.44s-2.39,3.69-3.87,4.99c-1.48,1.31-3.59,3.08-3.59,3.08"/>
    <path class="cls-1" d="m86.9,83.64s-1.21,1.87-2.19,2.79-3.25,2.41-3.25,2.41"/>
    <path class="cls-1" d="m90.06,92.01s-1.51,3.04-3.2,4.2-4.67,2.36-4.67,2.36"/>
    <path class="cls-1" d="m102.02,106.07s-.94,1.71-1.72,2.46-3.44,2.21-3.44,2.21"/>
    <path class="cls-1" d="m105.12,110.8s-.5,1.44-1.25,1.83"/>
  </g>
  <rect class="cls-4" x="-389.42" y="-2285.27" width="3385.57" height="2571.67"/>
</svg>