<?xml version="1.0" encoding="UTF-8"?>
<svg id="Calque_1" data-name="Calque 1" xmlns="http://www.w3.org/2000/svg" viewBox="0 0 128 128">
  <defs>
    <style>
      .cls-1 {
        fill: #c9e6f2;
      }

      .cls-2, .cls-3 {
        stroke: #000;
        stroke-miterlimit: 10;
      }

      .cls-2, .cls-4 {
        fill: none;
        stroke-linecap: round;
      }

      .cls-3 {
        fill: #87ccf3;
      }

      .cls-4 {
        stroke: #fff;
        stroke-linejoin: round;
        stroke-width: 8px;
      }
    </style>
  </defs>
  <rect class="cls-3" x="7.26" y="28.14" width="113.48" height="79.26" rx="6.45" ry="6.45"/>
  <path class="cls-1" d="m61.74,28.66v78.19H13.9c-3.39,0-6.14-2.35-6.14-6.38V34.82c0-3.52,2.32-6.24,6.14-6.24l47.84.09Z"/>
  <g>
    <path d="m15.04,44.32c.35.33.54.72.58,1.14h-.66c-.07-.32-.22-.58-.44-.77s-.53-.28-.93-.28c-.49,0-.88.17-1.18.52-.3.35-.45.88-.45,1.6,0,.59.13,1.07.4,1.43.27.37.67.55,1.21.55.49,0,.87-.19,1.12-.58.14-.2.24-.47.31-.8h.66c-.06.53-.25.97-.58,1.33-.39.43-.93.65-1.59.65-.58,0-1.06-.18-1.45-.53-.52-.47-.77-1.19-.77-2.17,0-.74.19-1.35.58-1.82.42-.52,1-.77,1.73-.77.63,0,1.12.17,1.46.5Z"/>
    <path d="m18.42,46.76c.14-.02.24-.08.28-.18.03-.06.04-.13.04-.24,0-.21-.07-.36-.22-.46-.15-.1-.36-.14-.64-.14-.32,0-.55.09-.68.26-.07.1-.12.24-.15.43h-.57c.01-.45.16-.77.44-.94.28-.18.61-.27.98-.27.43,0,.78.08,1.05.25.27.16.4.42.4.77v2.11c0,.06.01.12.04.15.03.04.08.06.17.06.03,0,.06,0,.09,0,.03,0,.07,0,.11-.02v.45c-.1.03-.17.04-.22.05s-.12.01-.21.01c-.21,0-.37-.08-.46-.23-.05-.08-.09-.19-.11-.34-.13.16-.31.31-.54.43s-.49.18-.78.18c-.34,0-.62-.1-.83-.31-.22-.21-.32-.46-.32-.77,0-.34.11-.6.32-.79s.49-.3.83-.34l.98-.12Zm-1.3,1.66c.13.1.28.15.46.15.22,0,.43-.05.63-.15.34-.17.51-.44.51-.82v-.49c-.08.05-.17.09-.29.12-.12.03-.23.05-.35.07l-.37.05c-.22.03-.39.08-.5.14-.19.11-.29.28-.29.51,0,.18.06.32.19.42Z"/>
    <path d="m20.37,45.31h.58v.63c.05-.12.17-.27.35-.45.19-.18.4-.27.65-.27.01,0,.03,0,.06,0s.07,0,.14.01v.65s-.07-.01-.1-.01c-.03,0-.06,0-.1,0-.31,0-.55.1-.71.3-.17.2-.25.43-.25.69v2.11h-.62v-3.66Z"/>
    <path d="m22.81,44.29h.62v1.02h.58v.5h-.58v2.39c0,.13.04.21.13.26.05.02.13.04.24.04.03,0,.06,0,.1,0s.07,0,.12-.01v.49c-.07.02-.14.04-.22.04-.08,0-.16.01-.25.01-.29,0-.48-.07-.58-.22-.1-.15-.15-.34-.15-.57v-2.42h-.5v-.5h.5v-1.02Z"/>
    <path d="m26.89,45.41c.24.12.43.28.55.47.12.18.2.4.24.65.04.17.05.44.05.81h-2.66c.01.37.1.67.26.9.16.23.41.34.76.34.32,0,.57-.11.76-.32.11-.12.18-.27.23-.43h.6c-.02.13-.07.28-.16.45-.09.17-.19.3-.3.41-.19.18-.42.31-.69.37-.15.04-.31.05-.5.05-.45,0-.84-.17-1.15-.5-.31-.33-.47-.8-.47-1.39s.16-1.07.48-1.43.73-.55,1.24-.55c.26,0,.51.06.75.18Zm.22,1.44c-.02-.27-.08-.48-.17-.64-.17-.3-.45-.44-.84-.44-.28,0-.52.1-.71.31-.19.2-.29.46-.3.78h2.02Z"/>
    <path d="m32.43,46.76c.14-.02.24-.08.28-.18.03-.06.04-.13.04-.24,0-.21-.07-.36-.22-.46-.15-.1-.36-.14-.64-.14-.32,0-.55.09-.68.26-.07.1-.12.24-.15.43h-.57c.01-.45.16-.77.44-.94.28-.18.61-.27.98-.27.43,0,.78.08,1.05.25.27.16.4.42.4.77v2.11c0,.06.01.12.04.15.03.04.08.06.17.06.03,0,.06,0,.09,0,.03,0,.07,0,.11-.02v.45c-.1.03-.17.04-.22.05s-.12.01-.21.01c-.21,0-.37-.08-.46-.23-.05-.08-.09-.19-.11-.34-.13.16-.31.31-.54.43s-.49.18-.78.18c-.34,0-.62-.1-.83-.31-.22-.21-.32-.46-.32-.77,0-.34.11-.6.32-.79s.49-.3.83-.34l.98-.12Zm-1.3,1.66c.13.1.28.15.46.15.22,0,.43-.05.63-.15.34-.17.51-.44.51-.82v-.49c-.08.05-.17.09-.29.12-.12.03-.23.05-.35.07l-.37.05c-.22.03-.39.08-.5.14-.19.11-.29.28-.29.51,0,.18.06.32.19.42Z"/>
    <path d="m36.37,45.43c.11.07.23.19.37.36v-1.85h.59v5.04h-.55v-.51c-.14.23-.31.39-.51.49s-.42.15-.67.15c-.41,0-.76-.17-1.06-.51-.3-.34-.45-.8-.45-1.37,0-.53.14-1,.41-1.39.27-.39.66-.59,1.16-.59.28,0,.51.06.7.18Zm-1.37,2.74c.17.26.43.4.8.4.28,0,.52-.12.7-.37.18-.24.27-.6.27-1.05s-.09-.81-.28-1.03c-.19-.22-.42-.33-.7-.33-.31,0-.56.12-.75.36-.19.24-.29.59-.29,1.05,0,.39.08.72.25.98Z"/>
    <path d="m38.26,43.94h.62v1.87c.15-.18.28-.31.39-.39.2-.13.45-.19.74-.19.53,0,.89.19,1.08.56.1.2.15.48.15.84v2.35h-.63v-2.31c0-.27-.03-.47-.1-.59-.11-.2-.32-.3-.63-.3-.26,0-.49.09-.69.26s-.31.51-.31.99v1.94h-.62v-5.04Z"/>
    <path d="m44.41,45.41c.24.12.43.28.55.47.12.18.2.4.24.65.04.17.05.44.05.81h-2.66c.01.37.1.67.26.9.16.23.41.34.76.34.32,0,.57-.11.76-.32.11-.12.18-.27.23-.43h.6c-.02.13-.07.28-.16.45-.09.17-.19.3-.3.41-.19.18-.42.31-.69.37-.15.04-.31.05-.5.05-.45,0-.84-.17-1.15-.5-.31-.33-.47-.8-.47-1.39s.16-1.07.48-1.43.73-.55,1.24-.55c.26,0,.51.06.75.18Zm.22,1.44c-.02-.27-.08-.48-.17-.64-.17-.3-.45-.44-.84-.44-.28,0-.52.1-.71.31-.19.2-.29.46-.3.78h2.02Zm-.25-3.01l-.91.99h-.47l.63-.99h.76Z"/>
    <path d="m46.06,45.31h.58v.63c.05-.12.17-.27.35-.45.19-.18.4-.27.65-.27.01,0,.03,0,.06,0s.07,0,.14.01v.65s-.07-.01-.1-.01c-.03,0-.06,0-.1,0-.31,0-.55.1-.71.3-.17.2-.25.43-.25.69v2.11h-.62v-3.66Z"/>
    <path d="m50.63,45.41c.24.12.43.28.55.47.12.18.2.4.24.65.04.17.05.44.05.81h-2.66c.01.37.1.67.26.9.16.23.41.34.76.34.32,0,.57-.11.76-.32.11-.12.18-.27.23-.43h.6c-.02.13-.07.28-.16.45-.09.17-.19.3-.3.41-.19.18-.42.31-.69.37-.15.04-.31.05-.5.05-.45,0-.84-.17-1.15-.5-.31-.33-.47-.8-.47-1.39s.16-1.07.48-1.43.73-.55,1.24-.55c.26,0,.51.06.75.18Zm.22,1.44c-.02-.27-.08-.48-.17-.64-.17-.3-.45-.44-.84-.44-.28,0-.52.1-.71.31-.19.2-.29.46-.3.78h2.02Z"/>
    <path d="m52.27,45.31h.58v.52c.17-.21.36-.37.55-.46s.41-.14.65-.14c.52,0,.87.18,1.05.54.1.2.15.48.15.85v2.35h-.63v-2.31c0-.22-.03-.4-.1-.54-.11-.23-.31-.34-.59-.34-.15,0-.27.01-.36.04-.17.05-.32.15-.44.3-.1.12-.17.25-.2.37-.03.13-.05.31-.05.55v1.92h-.62v-3.66Z"/>
    <path d="m56.28,44.29h.62v1.02h.58v.5h-.58v2.39c0,.13.04.21.13.26.05.02.13.04.24.04.03,0,.06,0,.1,0s.07,0,.12-.01v.49c-.07.02-.14.04-.22.04-.08,0-.16.01-.25.01-.29,0-.48-.07-.58-.22-.1-.15-.15-.34-.15-.57v-2.42h-.5v-.5h.5v-1.02Z"/>
  </g>
  <g>
    <path d="m66.28,74.46h.97l1.44,4.25,1.43-4.25h.97v5.02h-.65v-2.96c0-.1,0-.27,0-.51s0-.49,0-.76l-1.43,4.23h-.67l-1.45-4.23v.15c0,.12,0,.31.01.56,0,.25.01.44.01.56v2.96h-.65v-5.02Z"/>
    <path d="m72.66,75.82v2.43c0,.19.03.34.09.46.11.22.31.33.6.33.42,0,.7-.19.85-.57.08-.21.12-.49.12-.84v-1.8h.62v3.66h-.58v-.54c-.07.14-.17.26-.29.35-.23.19-.51.29-.84.29-.51,0-.86-.17-1.05-.52-.1-.19-.15-.44-.15-.75v-2.49h.63Z"/>
    <path d="m76.06,74.8h.62v1.02h.58v.5h-.58v2.39c0,.13.04.21.13.26.05.02.13.04.24.04.03,0,.06,0,.1,0s.07,0,.12-.01v.49c-.07.02-.14.04-.22.04-.08,0-.16.01-.25.01-.29,0-.48-.07-.58-.22-.1-.15-.15-.34-.15-.57v-2.42h-.5v-.5h.5v-1.02Z"/>
    <path d="m78.5,75.82v2.43c0,.19.03.34.09.46.11.22.31.33.6.33.42,0,.7-.19.85-.57.08-.21.12-.49.12-.84v-1.8h.62v3.66h-.58v-.54c-.07.14-.17.26-.29.35-.23.19-.51.29-.84.29-.51,0-.86-.17-1.05-.52-.1-.19-.15-.44-.15-.75v-2.49h.63Z"/>
    <path d="m84.04,75.92c.24.12.43.28.55.47.12.18.2.4.24.65.04.17.05.44.05.81h-2.66c.01.37.1.67.26.9.16.23.41.34.76.34.32,0,.57-.11.76-.32.11-.12.18-.27.23-.43h.6c-.02.13-.07.28-.16.45-.09.17-.19.3-.3.41-.19.18-.42.31-.69.37-.15.04-.31.05-.5.05-.45,0-.84-.17-1.15-.5-.31-.33-.47-.8-.47-1.39s.16-1.07.48-1.43.73-.55,1.24-.55c.26,0,.51.06.75.18Zm.22,1.44c-.02-.27-.08-.48-.17-.64-.17-.3-.45-.44-.84-.44-.28,0-.52.1-.71.31-.19.2-.29.46-.3.78h2.02Z"/>
    <path d="m85.69,74.46h.62v5.02h-.62v-5.02Z"/>
    <path d="m87.24,74.46h.62v5.02h-.62v-5.02Z"/>
    <path d="m91.04,75.92c.24.12.43.28.55.47.12.18.2.4.24.65.04.17.05.44.05.81h-2.66c.01.37.1.67.26.9.16.23.41.34.76.34.32,0,.57-.11.76-.32.11-.12.18-.27.23-.43h.6c-.02.13-.07.28-.16.45-.09.17-.19.3-.3.41-.19.18-.42.31-.69.37-.15.04-.31.05-.5.05-.45,0-.84-.17-1.15-.5-.31-.33-.47-.8-.47-1.39s.16-1.07.48-1.43.73-.55,1.24-.55c.26,0,.51.06.75.18Zm.22,1.44c-.02-.27-.08-.48-.17-.64-.17-.3-.45-.44-.84-.44-.28,0-.52.1-.71.31-.19.2-.29.46-.3.78h2.02Z"/>
    <path d="m66.74,86.26c.02.28.08.52.19.69.22.33.6.5,1.15.5.25,0,.47-.04.67-.11.39-.14.59-.39.59-.76,0-.27-.08-.47-.25-.58-.17-.11-.43-.21-.79-.3l-.66-.15c-.43-.1-.73-.21-.91-.33-.31-.21-.46-.52-.46-.94,0-.45.15-.82.46-1.11s.73-.43,1.29-.43c.51,0,.95.13,1.31.38.36.25.54.66.54,1.22h-.64c-.03-.27-.1-.48-.21-.62-.2-.26-.54-.39-1.01-.39-.38,0-.66.08-.83.25-.17.17-.25.36-.25.59,0,.25.1.43.3.54.13.07.43.16.88.27l.68.16c.33.08.58.18.76.32.31.23.46.58.46,1.02,0,.56-.2.95-.59,1.19s-.85.36-1.38.36c-.61,0-1.09-.16-1.43-.48-.34-.32-.51-.75-.51-1.29h.64Z"/>
    <path d="m72.84,85.67c.14-.02.24-.08.28-.18.03-.06.04-.13.04-.24,0-.21-.07-.36-.22-.46-.15-.1-.36-.14-.64-.14-.32,0-.55.09-.68.26-.07.1-.12.24-.15.43h-.57c.01-.45.16-.77.44-.94.28-.18.61-.27.98-.27.43,0,.78.08,1.05.25.27.16.4.42.4.77v2.11c0,.06.01.12.04.15.03.04.08.06.17.06.03,0,.06,0,.09,0,.03,0,.07,0,.11-.02v.45c-.1.03-.17.04-.22.05s-.12.01-.21.01c-.21,0-.37-.08-.46-.23-.05-.08-.09-.19-.11-.34-.13.16-.31.31-.54.43s-.49.18-.78.18c-.34,0-.62-.1-.83-.31-.22-.21-.32-.46-.32-.77,0-.34.11-.6.32-.79s.49-.3.83-.34l.98-.12Zm-1.3,1.66c.13.1.28.15.46.15.22,0,.43-.05.63-.15.34-.17.51-.44.51-.82v-.49c-.08.05-.17.09-.29.12-.12.03-.23.05-.35.07l-.37.05c-.22.03-.39.08-.5.14-.19.11-.29.28-.29.51,0,.18.06.32.19.42Z"/>
    <path d="m74.78,84.22h.58v.52c.17-.21.36-.37.55-.46s.41-.14.65-.14c.52,0,.87.18,1.05.54.1.2.15.48.15.85v2.35h-.63v-2.31c0-.22-.03-.4-.1-.54-.11-.23-.31-.34-.59-.34-.15,0-.27.01-.36.04-.17.05-.32.15-.44.3-.1.12-.17.25-.2.37-.03.13-.05.31-.05.55v1.92h-.62v-3.66Z"/>
    <path d="m78.79,83.2h.62v1.02h.58v.5h-.58v2.39c0,.13.04.21.13.26.05.02.13.04.24.04.03,0,.06,0,.1,0s.07,0,.12-.01v.49c-.07.02-.14.04-.22.04-.08,0-.16.01-.25.01-.29,0-.48-.07-.58-.22-.1-.15-.15-.34-.15-.57v-2.42h-.5v-.5h.5v-1.02Z"/>
    <path d="m82.88,84.32c.24.12.43.28.55.47.12.18.2.4.24.65.04.17.05.44.05.81h-2.66c.01.37.1.67.26.9.16.23.41.34.76.34.32,0,.57-.11.76-.32.11-.12.18-.27.23-.43h.6c-.02.13-.07.28-.16.45-.09.17-.19.3-.3.41-.19.18-.42.31-.69.37-.15.04-.31.05-.5.05-.45,0-.84-.17-1.15-.5-.31-.33-.47-.8-.47-1.39s.16-1.07.48-1.43.73-.55,1.24-.55c.26,0,.51.06.75.18Zm.22,1.44c-.02-.27-.08-.48-.17-.64-.17-.3-.45-.44-.84-.44-.28,0-.52.1-.71.31-.19.2-.29.46-.3.78h2.02Zm-.25-3.01l-.91.99h-.47l.63-.99h.76Z"/>
    <path d="m69.85,91.63c.35.33.54.72.58,1.14h-.66c-.07-.32-.22-.58-.44-.77s-.53-.28-.93-.28c-.49,0-.88.17-1.18.52-.3.35-.45.88-.45,1.6,0,.59.13,1.07.4,1.43.27.37.67.55,1.21.55.49,0,.87-.19,1.12-.58.14-.2.24-.47.31-.8h.66c-.06.53-.25.97-.58,1.33-.39.43-.93.65-1.59.65-.58,0-1.06-.18-1.45-.53-.52-.47-.77-1.19-.77-2.17,0-.74.19-1.35.58-1.82.42-.52,1-.77,1.73-.77.63,0,1.12.17,1.46.5Z"/>
    <path d="m73.92,92.99c.32.31.49.78.49,1.39s-.14,1.08-.43,1.46c-.29.38-.73.58-1.33.58-.5,0-.9-.17-1.19-.51-.29-.34-.44-.8-.44-1.37,0-.61.15-1.1.46-1.47s.73-.55,1.25-.55c.47,0,.86.16,1.19.47Zm-.38,2.43c.15-.31.22-.65.22-1.03,0-.34-.05-.62-.16-.83-.17-.34-.47-.51-.89-.51-.37,0-.64.14-.81.43s-.25.63-.25,1.04.08.71.25.97.44.39.8.39c.4,0,.68-.15.83-.46Z"/>
    <path d="m75.16,92.62h.61v.52c.15-.18.28-.31.4-.39.2-.14.43-.21.69-.21.29,0,.53.07.7.22.1.08.19.2.27.36.14-.2.3-.34.48-.44.18-.09.39-.14.62-.14.49,0,.83.18,1,.53.1.19.14.45.14.77v2.44h-.64v-2.54c0-.24-.06-.41-.18-.5-.12-.09-.27-.14-.45-.14-.24,0-.45.08-.62.24-.17.16-.26.43-.26.81v2.13h-.63v-2.39c0-.25-.03-.43-.09-.54-.09-.17-.27-.26-.52-.26-.23,0-.44.09-.63.27-.19.18-.29.51-.29.98v1.94h-.62v-3.66Z"/>
    <path d="m80.94,92.64h.6v.49c.12-.17.26-.29.4-.39.21-.14.45-.21.73-.21.42,0,.77.16,1.06.48.29.32.44.77.44,1.36,0,.8-.21,1.37-.63,1.71-.27.22-.57.32-.93.32-.28,0-.51-.06-.7-.18-.11-.07-.23-.19-.37-.35v1.87h-.62v-5.1Zm2.31,2.87c.19-.24.29-.6.29-1.08,0-.29-.04-.54-.13-.75-.16-.4-.45-.6-.88-.6s-.72.21-.88.64c-.08.23-.13.52-.13.87,0,.28.04.52.13.72.16.38.45.57.88.57.29,0,.53-.12.72-.36Z"/>
    <path d="m84.9,91.26h.62v5.02h-.62v-5.02Z"/>
    <path d="m88.7,92.72c.24.12.43.28.55.47.12.18.2.4.24.65.04.17.05.44.05.81h-2.66c.01.37.1.67.26.9.16.23.41.34.76.34.32,0,.57-.11.76-.32.11-.12.18-.27.23-.43h.6c-.02.13-.07.28-.16.45-.09.17-.19.3-.3.41-.19.18-.42.31-.69.37-.15.04-.31.05-.5.05-.45,0-.84-.17-1.15-.5-.31-.33-.47-.8-.47-1.39s.16-1.07.48-1.43.73-.55,1.24-.55c.26,0,.51.06.75.18Zm.22,1.44c-.02-.27-.08-.48-.17-.64-.17-.3-.45-.44-.84-.44-.28,0-.52.1-.71.31-.19.2-.29.46-.3.78h2.02Zm-.25-3.01l-.91.99h-.47l.63-.99h.76Z"/>
    <path d="m90.33,92.62h.61v.52c.15-.18.28-.31.4-.39.2-.14.43-.21.69-.21.29,0,.53.07.7.22.1.08.19.2.27.36.14-.2.3-.34.48-.44.18-.09.39-.14.62-.14.49,0,.83.18,1,.53.1.19.14.45.14.77v2.44h-.64v-2.54c0-.24-.06-.41-.18-.5-.12-.09-.27-.14-.45-.14-.24,0-.45.08-.62.24-.17.16-.26.43-.26.81v2.13h-.63v-2.39c0-.25-.03-.43-.09-.54-.09-.17-.27-.26-.52-.26-.23,0-.44.09-.63.27-.19.18-.29.51-.29.98v1.94h-.62v-3.66Z"/>
    <path d="m98.43,92.72c.24.12.43.28.55.47.12.18.2.4.24.65.04.17.05.44.05.81h-2.66c.01.37.1.67.26.9.16.23.41.34.76.34.32,0,.57-.11.76-.32.11-.12.18-.27.23-.43h.6c-.02.13-.07.28-.16.45-.09.17-.19.3-.3.41-.19.18-.42.31-.69.37-.15.04-.31.05-.5.05-.45,0-.84-.17-1.15-.5-.31-.33-.47-.8-.47-1.39s.16-1.07.48-1.43.73-.55,1.24-.55c.26,0,.51.06.75.18Zm.22,1.44c-.02-.27-.08-.48-.17-.64-.17-.3-.45-.44-.84-.44-.28,0-.52.1-.71.31-.19.2-.29.46-.3.78h2.02Z"/>
    <path d="m100.06,92.62h.58v.52c.17-.21.36-.37.55-.46s.41-.14.65-.14c.52,0,.87.18,1.05.54.1.2.15.48.15.85v2.35h-.63v-2.31c0-.22-.03-.4-.1-.54-.11-.23-.31-.34-.59-.34-.15,0-.27.01-.36.04-.17.05-.32.15-.44.3-.1.12-.17.25-.2.37-.03.13-.05.31-.05.55v1.92h-.62v-3.66Z"/>
    <path d="m104.07,91.6h.62v1.02h.58v.5h-.58v2.39c0,.13.04.21.13.26.05.02.13.04.24.04.03,0,.06,0,.1,0s.07,0,.12-.01v.49c-.07.02-.14.04-.22.04-.08,0-.16.01-.25.01-.29,0-.48-.07-.58-.22-.1-.15-.15-.34-.15-.57v-2.42h-.5v-.5h.5v-1.02Z"/>
    <path d="m107.86,94.07c.14-.02.24-.08.28-.18.03-.06.04-.13.04-.24,0-.21-.07-.36-.22-.46-.15-.1-.36-.14-.64-.14-.32,0-.55.09-.68.26-.07.1-.12.24-.15.43h-.57c.01-.45.16-.77.44-.94.28-.18.61-.27.98-.27.43,0,.78.08,1.05.25.27.16.4.42.4.77v2.11c0,.06.01.12.04.15.03.04.08.06.17.06.03,0,.06,0,.09,0,.03,0,.07,0,.11-.02v.45c-.1.03-.17.04-.22.05s-.12.01-.21.01c-.21,0-.37-.08-.46-.23-.05-.08-.09-.19-.11-.34-.13.16-.31.31-.54.43s-.49.18-.78.18c-.34,0-.62-.1-.83-.31-.22-.21-.32-.46-.32-.77,0-.34.11-.6.32-.79s.49-.3.83-.34l.98-.12Zm-1.3,1.66c.13.1.28.15.46.15.22,0,.43-.05.63-.15.34-.17.51-.44.51-.82v-.49c-.08.05-.17.09-.29.12-.12.03-.23.05-.35.07l-.37.05c-.22.03-.39.08-.5.14-.19.11-.29.28-.29.51,0,.18.06.32.19.42Z"/>
    <path d="m109.79,91.26h.63v.7h-.63v-.7Zm0,1.38h.63v3.64h-.63v-3.64Z"/>
    <path d="m111.36,92.62h.58v.63c.05-.12.17-.27.35-.45.19-.18.4-.27.65-.27.01,0,.03,0,.06,0s.07,0,.14.01v.65s-.07-.01-.1-.01c-.03,0-.06,0-.1,0-.31,0-.55.1-.71.3-.17.2-.25.43-.25.69v2.11h-.62v-3.66Z"/>
    <path d="m115.94,92.72c.24.12.43.28.55.47.12.18.2.4.24.65.04.17.05.44.05.81h-2.66c.01.37.1.67.26.9.16.23.41.34.76.34.32,0,.57-.11.76-.32.11-.12.18-.27.23-.43h.6c-.02.13-.07.28-.16.45-.09.17-.19.3-.3.41-.19.18-.42.31-.69.37-.15.04-.31.05-.5.05-.45,0-.84-.17-1.15-.5-.31-.33-.47-.8-.47-1.39s.16-1.07.48-1.43.73-.55,1.24-.55c.26,0,.51.06.75.18Zm.22,1.44c-.02-.27-.08-.48-.17-.64-.17-.3-.45-.44-.84-.44-.28,0-.52.1-.71.31-.19.2-.29.46-.3.78h2.02Z"/>
  </g>
  <path class="cls-2" d="m13.14,28.11l88.89-12.43c3.99-.27,7.38,2.89,7.38,6.89v5.71"/>
  <rect class="cls-4" x="-91.58" y="-755.64" width="1509.9" height="999.05"/>
</svg>