<?xml version="1.0" encoding="UTF-8"?>
<svg id="Calque_1" data-name="Calque 1" xmlns="http://www.w3.org/2000/svg" xmlns:xlink="http://www.w3.org/1999/xlink" viewBox="0 0 200.13 128.13">
  <defs>
    <style>
      .cls-1 {
        fill: #d6d6d6;
      }

      .cls-1, .cls-2, .cls-3, .cls-4, .cls-5, .cls-6, .cls-7, .cls-8, .cls-9, .cls-10 {
        stroke: #000;
      }

      .cls-1, .cls-2, .cls-3, .cls-4, .cls-5, .cls-6, .cls-11, .cls-9 {
        stroke-linecap: round;
        stroke-linejoin: round;
      }

      .cls-2 {
        fill: #87ccf3;
      }

      .cls-3 {
        fill: #baa584;
      }

      .cls-4 {
        fill: #bfe6fc;
      }

      .cls-5, .cls-12 {
        fill: #fff;
      }

      .cls-6, .cls-11, .cls-8, .cls-10 {
        fill: none;
      }

      .cls-7 {
        fill: #f3d587;
      }

      .cls-7, .cls-8, .cls-10 {
        stroke-miterlimit: 10;
      }

      .cls-7, .cls-10 {
        stroke-width: .25px;
      }

      .cls-11 {
        stroke: #fff;
        stroke-width: 8px;
      }

      .cls-13 {
        fill: url(#Dégradé_sans_nom_2);
      }
    </style>
    <linearGradient id="Dégradé_sans_nom_2" data-name="Dégradé sans nom 2" x1="8.58" y1="64.67" x2="72.07" y2="64.67" gradientTransform="translate(-24.35 105) rotate(-90)" gradientUnits="userSpaceOnUse">
      <stop offset="0" stop-color="#9800bf"/>
      <stop offset="1" stop-color="red"/>
    </linearGradient>
  </defs>
  <rect class="cls-13" x="-9.72" y="32.93" width="100.09" height="63.48" rx="6.45" ry="6.45" transform="translate(105 24.35) rotate(90)"/>
  <rect class="cls-8" x="-9.72" y="32.93" width="100.09" height="63.48" rx="6.45" ry="6.45" transform="translate(105 24.35) rotate(90)"/>
  <g>
    <rect class="cls-7" x="31.93" y="23.63" width="16.76" height="16.76" rx="6.02" ry="6.02" transform="translate(72.32 -8.3) rotate(90)"/>
    <g>
      <line class="cls-10" x1="31.96" y1="29.18" x2="48.72" y2="29.18"/>
      <line class="cls-10" x1="48.72" y1="34.85" x2="31.96" y2="34.85"/>
    </g>
    <line class="cls-10" x1="40.35" y1="40.39" x2="40.35" y2="23.63"/>
    <g>
      <line class="cls-10" x1="44.84" y1="23.99" x2="44.84" y2="40.06"/>
      <line class="cls-10" x1="35.78" y1="40.06" x2="35.78" y2="23.99"/>
    </g>
  </g>
  <polyline class="cls-6" points="197.18 75.07 182.37 75.07 180.44 75.07 179.09 75.07 178.56 75.07 95.59 75.07 95.05 75.07 93.69 75.07 93.17 75.07 82.16 75.07"/>
  <line class="cls-6" x1="78.85" y1="76.81" x2="197.18" y2="76.81"/>
  <line class="cls-6" x1="77.35" y1="81.06" x2="195.67" y2="81.06"/>
  <line class="cls-6" x1="77.35" y1="82.88" x2="195.67" y2="82.88"/>
  <polygon class="cls-5" points="83.71 81.06 87.1 75.07 89.64 75.07 86.22 81.06 83.71 81.06"/>
  <polygon class="cls-5" points="94.83 81.06 98.22 75.07 100.76 75.07 97.34 81.06 94.83 81.06"/>
  <polygon class="cls-5" points="105.95 81.06 109.34 75.07 111.88 75.07 108.46 81.06 105.95 81.06"/>
  <polygon class="cls-5" points="117.07 81.06 120.46 75.07 123 75.07 119.58 81.06 117.07 81.06"/>
  <polygon class="cls-5" points="128.19 81.06 131.58 75.07 134.12 75.07 130.7 81.06 128.19 81.06"/>
  <polygon class="cls-5" points="139.31 81.06 142.71 75.07 145.24 75.07 141.82 81.06 139.31 81.06"/>
  <polygon class="cls-5" points="150.43 81.06 153.83 75.07 156.36 75.07 152.94 81.06 150.43 81.06"/>
  <polygon class="cls-5" points="161.55 81.06 164.95 75.07 167.48 75.07 164.06 81.06 161.55 81.06"/>
  <polygon class="cls-5" points="172.67 81.06 176.07 75.07 178.6 75.07 175.18 81.06 172.67 81.06"/>
  <polygon class="cls-5" points="183.79 81.06 187.19 75.07 189.72 75.07 186.3 81.06 183.79 81.06"/>
  <rect class="cls-1" x="119.5" y="53.21" width="59.44" height="18.51"/>
  <rect class="cls-1" x="163.5" y="50.74" width="11.25" height="2.47"/>
  <rect class="cls-9" x="137.82" y="51.97" width="22.35" height="1.24" transform="translate(297.98 105.18) rotate(180)"/>
  <rect class="cls-1" x="137.82" y="50.74" width="5.23" height="2.47" transform="translate(280.87 103.95) rotate(180)"/>
  <rect class="cls-1" x="132.77" y="50.74" width="2.52" height="2.47"/>
  <rect class="cls-4" x="133.46" y="46.77" width="1.14" height="3.97"/>
  <polyline class="cls-1" points="107.15 78.39 186.97 78.39 186.97 71.72 97.1 71.72 97.1 78.39 102.7 78.39"/>
  <rect class="cls-2" x="101.02" y="50.74" width="18.33" height="20.99" transform="translate(220.38 122.46) rotate(180)"/>
  <rect class="cls-5" x="111.06" y="54.3" width="4.61" height="6.93" transform="translate(226.72 115.53) rotate(180)"/>
  <rect class="cls-5" x="107.16" y="54.3" width="2.3" height="6.93" transform="translate(216.62 115.53) rotate(180)"/>
  <rect class="cls-5" x="103.18" y="54.3" width="2.3" height="6.93" transform="translate(208.66 115.53) rotate(180)"/>
  <rect class="cls-1" x="100.07" y="46.59" width="20.25" height="4.15" transform="translate(220.38 97.32) rotate(180)"/>
  <rect class="cls-2" x="119.5" y="63.49" width="65.1" height="8.24"/>
  <rect class="cls-2" x="119.5" y="63.49" width="5.32" height="8.24"/>
  <rect class="cls-2" x="124.82" y="63.49" width="10.46" height="8.24" transform="translate(260.11 135.21) rotate(180)"/>
  <rect class="cls-2" x="135.29" y="63.49" width="10.46" height="8.24" transform="translate(281.04 135.21) rotate(180)"/>
  <rect class="cls-2" x="145.73" y="63.49" width="10.46" height="8.24" transform="translate(301.92 135.21) rotate(180)"/>
  <line class="cls-6" x1="97.1" y1="73.84" x2="186.97" y2="73.84"/>
  <rect class="cls-1" x="187.54" y="73.37" width="1.46" height="2.42"/>
  <rect class="cls-1" x="189" y="72.73" width="2.09" height="3.69" transform="translate(380.1 149.15) rotate(180)"/>
  <rect class="cls-1" x="82.56" y="53.16" width="7.56" height="18.51"/>
  <rect class="cls-1" x="82.56" y="50.68" width="3.52" height="2.47"/>
  <rect class="cls-1" x="82.56" y="71.67" width="11.92" height="6.66"/>
  <rect class="cls-2" x="82.56" y="63.43" width="9.56" height="8.24"/>
  <rect class="cls-2" x="82.56" y="63.43" width="2.07" height="8.24"/>
  <line class="cls-6" x1="94.48" y1="73.79" x2="82.56" y2="73.79"/>
  <rect class="cls-1" x="95.05" y="73.31" width="1.46" height="2.42"/>
  <path class="cls-1" d="m107.16,78.49c0,1.24-1,2.24-2.24,2.24s-2.23-1-2.23-2.24c0-.04,0-.07,0-.11h4.46s0,.07,0,.11Z"/>
  <path class="cls-3" d="m84.38,78.49c0,1.1-.78,2-1.82,2.2v-2.3h1.81s0,.07,0,.11Z"/>
  <path class="cls-1" d="m125.33,78.49c0,1.24-1,2.24-2.24,2.24s-2.23-1-2.23-2.24c0-.04,0-.07,0-.11h4.46s0,.07,0,.11Z"/>
  <path class="cls-1" d="m143.49,78.49c0,1.24-1,2.24-2.24,2.24s-2.23-1-2.23-2.24c0-.04,0-.07,0-.11h4.46s0,.07,0,.11Z"/>
  <path class="cls-1" d="m161.66,78.49c0,1.24-1,2.24-2.24,2.24s-2.23-1-2.23-2.24c0-.04,0-.07,0-.11h4.46s0,.07,0,.11Z"/>
  <path class="cls-1" d="m179.82,78.49c0,1.24-1,2.24-2.24,2.24s-2.23-1-2.23-2.24c0-.04,0-.07,0-.11h4.46s0,.07,0,.11Z"/>
  <rect class="cls-2" x="156.19" y="63.49" width="10.46" height="8.24" transform="translate(322.84 135.21) rotate(180)"/>
  <rect class="cls-2" x="166.65" y="63.49" width="10.46" height="8.24" transform="translate(343.77 135.21) rotate(180)"/>
  <rect class="cls-12" x="120.1" y="55.87" width="58.25" height="3.08"/>
  <path class="cls-12" d="m52.45,90.16l-2.3,10.05c-.64.05-1.3.05-1.96,0-2.37-.19-5.73-1.87-4.77-4.84.73-2.22,3.36-3.57,6.57-3.81.56-.03,1.01-1.49,1.01-1.49-.01,0-.16-.01-.44-.01-4.58.15-7.82,1.4-9.42,4-.04.07-.08.14-.12.21l.85-4.11h-2.21l-1.69,8.11c-1.39-3.68-3.24-7.19-8.05-8-1.06-.18-1.55-.23-2.78-.22-3.51.03-6.68,1.01-7.21,3.06-.91,3.44,7.13,2.95,6.98,5.24-.1,1.4-2.5,2.17-4.44,2.15-1.44-.01-3.04-.37-3.94-.6l-.71,1.52c1.22.26,2.52.49,3.91.51,5.75.05,7.98-1.92,8.23-3.77.45-3.39-7.6-3.06-6.99-5.18.34-1.33,2.89-1.56,4.36-1.56.64,0,1.18.05,1.69.15.27.08.53-.21.8-.81.01-.04.08-.05.08.01,0,0-.6,2.88-.78,3.74-.12.6-.11.88.62,1.62.48.51.93.99,1.03.52.3-1.47.6-2.95.91-4.4,3.73,4.29,5.55,9.57,5.55,9.57h2.21l.92-4.44.03.16c.45,2.44,3.76,4.29,7.97,4.4,1.43.04,2.47-.04,3.03-.27.55-.25.88-.52,1.06-1.29.14-.6.8-3.44.8-3.44h5.54c.34,0,.63-.22,1.18-1.81h-6.3l.77-3.32h7.28c.23,0,.56.01,1.12-1.63h-10.35"/>
  <rect class="cls-11" x="-1233.94" y="-536.77" width="1509.9" height="999.05"/>
</svg>