<?xml version="1.0" encoding="UTF-8"?>
<svg id="Calque_1" data-name="Calque 1" xmlns="http://www.w3.org/2000/svg" viewBox="0 0 200 128">
  <defs>
    <style>
      .cls-1, .cls-2, .cls-3, .cls-4, .cls-5, .cls-6, .cls-7, .cls-8, .cls-9, .cls-10, .cls-11, .cls-12, .cls-13, .cls-14 {
        stroke-miterlimit: 10;
      }

      .cls-1, .cls-3, .cls-4, .cls-5, .cls-7, .cls-8, .cls-9, .cls-11, .cls-13 {
        stroke: #000;
      }

      .cls-15 {
        fill: #f4ce13;
      }

      .cls-16 {
        fill: #051e60;
      }

      .cls-17 {
        fill: #2c438f;
      }

      .cls-18 {
        fill: #8287bf;
      }

      .cls-2, .cls-4, .cls-6 {
        fill: #fff;
      }

      .cls-2, .cls-6, .cls-12, .cls-19, .cls-14 {
        stroke: #fff;
      }

      .cls-2, .cls-12 {
        stroke-width: 2px;
      }

      .cls-3 {
        fill: #ff6d75;
      }

      .cls-5 {
        fill: #f3d587;
      }

      .cls-7 {
        fill: #d6d6d6;
      }

      .cls-8 {
        fill: #ccdaf4;
      }

      .cls-9 {
        fill: #b2f0e9;
      }

      .cls-10 {
        fill: #1d1d1b;
        stroke: #1d1d1b;
      }

      .cls-11 {
        fill: #243b81;
      }

      .cls-12, .cls-19, .cls-13, .cls-14 {
        fill: none;
      }

      .cls-19 {
        stroke-linecap: round;
        stroke-linejoin: round;
        stroke-width: 8px;
      }
    </style>
  </defs>
  <path class="cls-7" d="m152.9,107.69c0,1.21-1.35,4.04-3.5,4.04h-16.02c-2.15,0-4.31-1.48-7.34-1.48H37.38c-1.92,0-6.49-1.21-8.51-2.56-2.02-1.35-2.22-1.68-2.22-2.56v-5.32c0-.81,2.42-1.68,2.42-3.1v-7.81c0-2.02,18.17-14.94,23.96-16.35,5.79-1.41,31.16-1.55,37.96-.94,6.8.61,21.4,7.81,30.62,14.6,9.89,0,20.53,2.49,25.17,5.28,4.64,2.8,6.12,7.57,6.12,9.59v6.6Z"/>
  <path class="cls-9" d="m78.33,87.01h-28.22c.3-1.71,8.4-12.7,10.62-12.99.69-.09,2.13-.13,4.39-.13s4.91.04,7.25.08c1.52.03,2.87.05,3.85.06.15.63,1.2,5.15,2.11,12.99Z"/>
  <circle class="cls-1" cx="127.53" cy="108" r="10.6"/>
  <circle class="cls-4" cx="127.53" cy="108" r="7.5" transform="translate(-17.56 190.91) rotate(-70.01)"/>
  <circle class="cls-1" cx="47.98" cy="108" r="10.6"/>
  <circle class="cls-4" cx="47.98" cy="108" r="7.5" transform="translate(-70.06 113.61) rotate(-68.77)"/>
  <path class="cls-5" d="m147.56,94.47s1.21,1.48,1.45,2.19,0,1.51-.98,1.51h-5.72c-.91,0-2.59-1.38-3.53-2.49-.94-1.11-2.36-2.93-1.95-3.16.4-.24,5.62.44,10.73,1.95Z"/>
  <path d="m146.43,105.77c.34-.67,1.15-1.21,1.82-1.21h4.64v3.13c0,.33-.11.79-.3,1.28h-6.56c-.67,0-.94-.54-.6-1.21l1-1.99Z"/>
  <path class="cls-9" d="m45.89,75.98c.77.33,1.84.78,2.09.89.4.17.34.84-.77,1.48s-4.68,3.63-6.09,4.95c-1.41,1.31-2.36,1.72-3.37,1.72h-4.91c3.42-2.78,8.59-6.39,13.05-9.03Z"/>
  <path class="cls-3" d="m29.07,96.72v-7.2h5.75c.84,0,1.28.32.84,1.52-.44,1.2-2.59,4.43-3.2,4.9-.61.47-1.14.84-1.92.84h-1.49s0-.04,0-.07Z"/>
  <path class="cls-9" d="m113.44,87.01h-32.9c-.89-7.68-1.92-12.2-2.11-12.99h1.66c4.68,0,10.65.2,15.33,1.83,2.7.94,6.32,2.69,10.2,4.94,4.18,2.42,6.8,4.51,7.82,6.22Z"/>
  <rect x="83.95" y="89.52" width="4.24" height="1.1" rx=".52" ry=".52"/>
  <rect x="54.34" y="89.52" width="4.24" height="1.1" rx=".52" ry=".52"/>
  <rect class="cls-7" x="162.55" y="68.04" width="3.76" height="52.79"/>
  <rect class="cls-11" x="153.05" y="63.15" width="22.76" height="22.76" rx="3.9" ry="3.9"/>
  <g>
    <path class="cls-14" d="m166.57,78.77c-.58,1.55-2.07,2.65-3.83,2.65-2.26,0-4.09-1.83-4.09-4.09,0-1.59.91-2.97,2.23-3.64"/>
    <circle class="cls-6" cx="162.05" cy="68.83" r="1.18"/>
    <polyline class="cls-14" points="162.05 69.22 162.62 75.74 166.8 75.74 168.57 79.59 170.19 78.98"/>
    <line class="cls-14" x1="162.4" y1="73.27" x2="165.89" y2="73.27"/>
  </g>
  <rect class="cls-10" x="26.64" y="117.07" width="139.66" height="3.76"/>
  <rect class="cls-8" x="33.3" y="6.26" width="90.25" height="54.15"/>
  <rect class="cls-17" x="33.78" y="6.72" width="40.76" height="38.31"/>
  <rect class="cls-18" x="33.78" y="46.44" width="40.76" height="2.27"/>
  <rect class="cls-18" x="33.78" y="49.58" width="40.76" height="2.27"/>
  <rect class="cls-18" x="33.78" y="52.71" width="40.76" height="2.27"/>
  <rect class="cls-18" x="33.78" y="55.98" width="40.76" height="2.27"/>
  <polygon class="cls-15" points="99.04 19.65 99.86 21.31 101.69 21.57 100.37 22.86 100.68 24.69 99.04 23.83 97.4 24.69 97.72 22.86 96.39 21.57 98.22 21.31 99.04 19.65"/>
  <polygon class="cls-15" points="108.01 21.69 108.82 23.35 110.66 23.62 109.33 24.91 109.64 26.73 108.01 25.87 106.37 26.73 106.68 24.91 105.36 23.62 107.19 23.35 108.01 21.69"/>
  <polygon class="cls-15" points="113.91 27.9 114.72 29.56 116.56 29.82 115.23 31.12 115.54 32.94 113.91 32.08 112.27 32.94 112.58 31.12 111.26 29.82 113.09 29.56 113.91 27.9"/>
  <polygon class="cls-15" points="116.04 35.69 116.86 37.35 118.69 37.61 117.37 38.9 117.68 40.73 116.04 39.87 114.4 40.73 114.72 38.9 113.39 37.61 115.22 37.35 116.04 35.69"/>
  <polygon class="cls-15" points="113.91 42.9 114.72 44.56 116.56 44.82 115.23 46.11 115.54 47.94 113.91 47.08 112.27 47.94 112.58 46.11 111.26 44.82 113.09 44.56 113.91 42.9"/>
  <polygon class="cls-15" points="108.01 48.38 108.82 50.04 110.66 50.3 109.33 51.59 109.64 53.42 108.01 52.56 106.37 53.42 106.68 51.59 105.36 50.3 107.19 50.04 108.01 48.38"/>
  <polygon class="cls-15" points="99.04 50.61 99.86 52.27 101.69 52.54 100.37 53.83 100.68 55.65 99.04 54.79 97.4 55.65 97.72 53.83 96.39 52.54 98.22 52.27 99.04 50.61"/>
  <polygon class="cls-15" points="89.94 48.38 90.76 50.04 92.59 50.3 91.26 51.59 91.58 53.42 89.94 52.56 88.3 53.42 88.61 51.59 87.29 50.3 89.12 50.04 89.94 48.38"/>
  <polygon class="cls-15" points="83.81 42.9 84.63 44.56 86.46 44.82 85.13 46.11 85.45 47.94 83.81 47.08 82.17 47.94 82.48 46.11 81.16 44.82 82.99 44.56 83.81 42.9"/>
  <polygon class="cls-15" points="81.95 35.69 82.77 37.35 84.6 37.61 83.28 38.9 83.59 40.73 81.95 39.87 80.31 40.73 80.63 38.9 79.3 37.61 81.13 37.35 81.95 35.69"/>
  <polygon class="cls-15" points="83.81 27.9 84.63 29.56 86.46 29.82 85.13 31.12 85.45 32.94 83.81 32.08 82.17 32.94 82.48 31.12 81.16 29.82 82.99 29.56 83.81 27.9"/>
  <polygon class="cls-15" points="89.94 21.69 90.76 23.35 92.59 23.62 91.26 24.91 91.58 26.73 89.94 25.87 88.3 26.73 88.61 24.91 87.29 23.62 89.12 23.35 89.94 21.69"/>
  <rect class="cls-15" x="93.33" y="27.27" width="4.92" height="21.1"/>
  <rect class="cls-15" x="97.55" y="23.05" width="3.9" height="12.35" transform="translate(70.28 128.73) rotate(-90)"/>
  <rect class="cls-15" x="97.55" y="31.65" width="3.9" height="12.35" transform="translate(61.68 137.33) rotate(-90)"/>
  <g>
    <g>
      <path class="cls-16" d="m78.22,14.27h.28v.23c.06-.08.12-.14.19-.18.1-.06.21-.1.34-.1.19,0,.36.07.5.22.14.15.2.36.2.64,0,.37-.1.64-.29.8-.12.1-.27.15-.43.15-.13,0-.24-.03-.33-.08-.05-.03-.11-.09-.17-.17v.88h-.29v-2.39Zm1.08,1.35c.09-.11.13-.28.13-.51,0-.14-.02-.25-.06-.35-.07-.19-.21-.28-.41-.28s-.34.1-.41.3c-.04.11-.06.24-.06.41,0,.13.02.25.06.34.07.18.21.27.41.27.14,0,.25-.06.34-.17Z"/>
      <path class="cls-16" d="m81.32,14.44c.15.15.23.37.23.65s-.07.51-.2.69c-.14.18-.34.27-.63.27-.24,0-.42-.08-.56-.24-.14-.16-.21-.37-.21-.64,0-.29.07-.52.22-.69.15-.17.34-.26.59-.26.22,0,.41.07.56.22Zm-.18,1.14c.07-.14.11-.31.11-.48,0-.16-.03-.29-.08-.39-.08-.16-.22-.24-.42-.24-.18,0-.31.07-.38.2-.08.13-.12.3-.12.49s.04.34.12.46c.08.12.21.18.38.18.19,0,.32-.07.39-.22Z"/>
      <path class="cls-16" d="m82.18,14.27v1.14c0,.09.01.16.04.21.05.1.15.15.29.15.2,0,.34-.09.41-.27.04-.1.06-.23.06-.4v-.84h.29v1.72h-.27v-.25c-.03.06-.08.12-.14.17-.11.09-.24.13-.4.13-.25,0-.41-.08-.5-.24-.05-.09-.07-.21-.07-.35v-1.17h.3Z"/>
      <path class="cls-16" d="m83.73,14.27h.27v.3c.02-.06.08-.13.17-.21.09-.08.19-.12.3-.12,0,0,.01,0,.03,0,.01,0,.03,0,.06,0v.3s-.03,0-.05,0-.03,0-.05,0c-.15,0-.26.05-.34.14s-.12.2-.12.32v.99h-.29v-1.72Z"/>
      <path class="cls-16" d="m85.7,14.27h.28v.23c.06-.08.12-.14.19-.18.1-.06.21-.1.34-.1.19,0,.36.07.5.22.14.15.2.36.2.64,0,.37-.1.64-.29.8-.12.1-.27.15-.43.15-.13,0-.24-.03-.33-.08-.05-.03-.11-.09-.17-.17v.88h-.29v-2.39Zm1.08,1.35c.09-.11.13-.28.13-.51,0-.14-.02-.25-.06-.35-.07-.19-.21-.28-.41-.28s-.34.1-.41.3c-.04.11-.06.24-.06.41,0,.13.02.25.06.34.07.18.21.27.41.27.14,0,.25-.06.34-.17Z"/>
      <path class="cls-16" d="m88.62,14.31c.11.06.2.13.26.22.06.09.1.19.12.3.02.08.02.21.02.38h-1.26c0,.17.05.31.12.42.08.11.2.16.36.16.15,0,.27-.05.36-.15.05-.06.09-.12.11-.2h.28c0,.06-.03.13-.07.21-.04.08-.09.14-.14.19-.09.09-.2.14-.32.17-.07.02-.15.03-.24.03-.21,0-.4-.08-.54-.23-.15-.15-.22-.37-.22-.65s.07-.5.22-.67.35-.26.59-.26c.12,0,.24.03.35.09Zm.11.67c-.01-.12-.04-.22-.08-.3-.08-.14-.21-.21-.4-.21-.13,0-.24.05-.33.14s-.14.22-.14.36h.95Z"/>
      <path class="cls-16" d="m89.38,14.27h.27v.3c.02-.06.08-.13.17-.21.09-.08.19-.12.3-.12,0,0,.01,0,.03,0,.01,0,.03,0,.06,0v.3s-.03,0-.05,0-.03,0-.05,0c-.15,0-.26.05-.34.14s-.12.2-.12.32v.99h-.29v-1.72Z"/>
      <path class="cls-16" d="m90.64,15.44c0,.1.03.17.07.22.07.09.2.14.38.14.11,0,.2-.02.28-.07.08-.05.12-.12.12-.22,0-.07-.03-.13-.1-.17-.04-.02-.12-.05-.25-.08l-.23-.06c-.15-.04-.25-.08-.32-.12-.12-.08-.19-.19-.19-.32,0-.16.06-.29.18-.39.12-.1.27-.15.47-.15.26,0,.44.08.56.23.07.1.11.2.1.31h-.27c0-.06-.03-.12-.07-.18-.07-.08-.18-.11-.34-.11-.11,0-.19.02-.25.06-.06.04-.08.1-.08.17,0,.07.04.13.11.18.04.03.11.05.19.07l.19.05c.21.05.35.1.42.15.11.07.17.19.17.35s-.06.28-.17.4c-.12.11-.29.17-.53.17-.26,0-.44-.06-.54-.17-.11-.12-.16-.26-.17-.43h.28Z"/>
      <path class="cls-16" d="m93.36,14.44c.15.15.23.37.23.65s-.07.51-.2.69c-.14.18-.34.27-.63.27-.24,0-.42-.08-.56-.24-.14-.16-.21-.37-.21-.64,0-.29.07-.52.22-.69.15-.17.34-.26.59-.26.22,0,.41.07.56.22Zm-.18,1.14c.07-.14.11-.31.11-.48,0-.16-.03-.29-.08-.39-.08-.16-.22-.24-.42-.24-.18,0-.31.07-.38.2-.08.13-.12.3-.12.49s.04.34.12.46c.08.12.21.18.38.18.19,0,.32-.07.39-.22Z"/>
      <path class="cls-16" d="m93.94,14.27h.27v.24c.08-.1.17-.17.26-.22.09-.04.19-.07.3-.07.24,0,.41.08.49.25.05.09.07.23.07.4v1.1h-.29v-1.08c0-.1-.02-.19-.05-.25-.05-.11-.14-.16-.28-.16-.07,0-.12,0-.17.02-.08.02-.15.07-.21.14-.05.06-.08.11-.09.18-.01.06-.02.15-.02.26v.9h-.29v-1.72Z"/>
      <path class="cls-16" d="m95.76,14.27h.27v.24c.08-.1.17-.17.26-.22.09-.04.19-.07.3-.07.24,0,.41.08.49.25.05.09.07.23.07.4v1.1h-.29v-1.08c0-.1-.02-.19-.05-.25-.05-.11-.14-.16-.28-.16-.07,0-.12,0-.17.02-.08.02-.15.07-.21.14-.05.06-.08.11-.09.18-.01.06-.02.15-.02.26v.9h-.29v-1.72Z"/>
      <path class="cls-16" d="m98.66,14.31c.11.06.2.13.26.22.06.09.1.19.12.3.02.08.02.21.02.38h-1.26c0,.17.05.31.12.42.08.11.2.16.36.16.15,0,.27-.05.36-.15.05-.06.09-.12.11-.2h.28c0,.06-.03.13-.07.21-.04.08-.09.14-.14.19-.09.09-.2.14-.32.17-.07.02-.15.03-.24.03-.21,0-.4-.08-.54-.23-.15-.15-.22-.37-.22-.65s.07-.5.22-.67.35-.26.59-.26c.12,0,.24.03.35.09Zm.11.67c-.01-.12-.04-.22-.08-.3-.08-.14-.21-.21-.4-.21-.13,0-.24.05-.33.14s-.14.22-.14.36h.95Z"/>
      <path class="cls-16" d="m99.58,15.44c0,.1.03.17.07.22.07.09.2.14.38.14.11,0,.2-.02.28-.07.08-.05.12-.12.12-.22,0-.07-.03-.13-.1-.17-.04-.02-.12-.05-.25-.08l-.23-.06c-.15-.04-.25-.08-.32-.12-.12-.08-.19-.19-.19-.32,0-.16.06-.29.18-.39.12-.1.27-.15.47-.15.26,0,.44.08.56.23.07.1.11.2.1.31h-.27c0-.06-.03-.12-.07-.18-.07-.08-.18-.11-.34-.11-.11,0-.19.02-.25.06-.06.04-.08.1-.08.17,0,.07.04.13.11.18.04.03.11.05.19.07l.19.05c.21.05.35.1.42.15.11.07.17.19.17.35s-.06.28-.17.4c-.12.11-.29.17-.53.17-.26,0-.44-.06-.54-.17-.11-.12-.16-.26-.17-.43h.28Z"/>
      <path class="cls-16" d="m101.97,13.62h.29v.88c.07-.09.13-.15.18-.18.09-.06.21-.09.35-.09.25,0,.42.09.51.26.05.09.07.23.07.4v1.1h-.3v-1.08c0-.13-.02-.22-.05-.28-.05-.09-.15-.14-.29-.14-.12,0-.23.04-.33.12-.1.08-.15.24-.15.47v.91h-.29v-2.36Z"/>
      <path class="cls-16" d="m104.71,14.94c.07,0,.11-.04.13-.08.01-.03.02-.06.02-.11,0-.1-.04-.17-.11-.21s-.17-.07-.3-.07c-.15,0-.26.04-.32.12-.04.05-.06.11-.07.2h-.27c0-.21.07-.36.21-.44.13-.08.28-.12.46-.12.2,0,.37.04.49.12.12.08.19.2.19.36v.99s0,.05.02.07c.01.02.04.03.08.03.01,0,.03,0,.04,0,.02,0,.03,0,.05,0v.21s-.08.02-.1.02-.06,0-.1,0c-.1,0-.17-.04-.22-.11-.02-.04-.04-.09-.05-.16-.06.08-.14.14-.25.2-.11.06-.23.08-.36.08-.16,0-.29-.05-.39-.14-.1-.1-.15-.22-.15-.36,0-.16.05-.28.15-.37s.23-.14.39-.16l.46-.06Zm-.61.78c.06.05.13.07.22.07.1,0,.2-.02.3-.07.16-.08.24-.21.24-.38v-.23s-.08.04-.14.06c-.06.01-.11.03-.16.03l-.17.02c-.11.01-.18.04-.24.06-.09.05-.13.13-.13.24,0,.08.03.15.09.2Z"/>
      <path class="cls-16" d="m105.62,14.27h.27v.24c.08-.1.17-.17.26-.22.09-.04.19-.07.3-.07.24,0,.41.08.49.25.05.09.07.23.07.4v1.1h-.29v-1.08c0-.1-.02-.19-.05-.25-.05-.11-.14-.16-.28-.16-.07,0-.12,0-.17.02-.08.02-.15.07-.21.14-.05.06-.08.11-.09.18-.01.06-.02.15-.02.26v.9h-.29v-1.72Z"/>
      <path class="cls-16" d="m108.39,14.32c.05.03.11.09.18.17v-.87h.28v2.36h-.26v-.24c-.07.11-.15.18-.24.23-.09.05-.2.07-.32.07-.19,0-.36-.08-.5-.24-.14-.16-.21-.37-.21-.64,0-.25.06-.47.19-.65.13-.18.31-.27.55-.27.13,0,.24.03.33.08Zm-.65,1.29c.08.12.2.19.37.19.13,0,.24-.06.33-.17.09-.11.13-.28.13-.49s-.04-.38-.13-.48-.2-.16-.33-.16c-.15,0-.26.05-.35.17-.09.11-.14.27-.14.49,0,.18.04.34.12.46Z"/>
      <path class="cls-16" d="m109.27,13.63h.29v.33h-.29v-.33Zm0,.65h.29v1.71h-.29v-1.71Z"/>
      <path class="cls-16" d="m111.13,14.36c.12.09.19.26.22.49h-.28c-.02-.11-.06-.19-.12-.26s-.16-.11-.29-.11c-.18,0-.32.09-.39.27-.05.12-.08.26-.08.43s.04.32.11.43c.07.12.19.18.34.18.12,0,.21-.04.28-.11s.12-.17.15-.3h.28c-.03.23-.11.39-.24.5-.13.11-.29.16-.49.16-.22,0-.4-.08-.54-.25-.13-.16-.2-.37-.2-.61,0-.3.07-.54.22-.7.15-.17.33-.25.56-.25.19,0,.35.05.47.14Z"/>
      <path class="cls-16" d="m112.56,14.94c.07,0,.11-.04.13-.08.01-.03.02-.06.02-.11,0-.1-.04-.17-.11-.21s-.17-.07-.3-.07c-.15,0-.26.04-.32.12-.04.05-.06.11-.07.2h-.27c0-.21.07-.36.21-.44.13-.08.28-.12.46-.12.2,0,.37.04.49.12.12.08.19.2.19.36v.99s0,.05.02.07c.01.02.04.03.08.03.01,0,.03,0,.04,0,.02,0,.03,0,.05,0v.21s-.08.02-.1.02-.06,0-.1,0c-.1,0-.17-.04-.22-.11-.02-.04-.04-.09-.05-.16-.06.08-.14.14-.25.2-.11.06-.23.08-.36.08-.16,0-.29-.05-.39-.14-.1-.1-.15-.22-.15-.36,0-.16.05-.28.15-.37s.23-.14.39-.16l.46-.06Zm-.61.78c.06.05.13.07.22.07.1,0,.2-.02.3-.07.16-.08.24-.21.24-.38v-.23s-.08.04-.14.06c-.06.01-.11.03-.16.03l-.17.02c-.11.01-.18.04-.24.06-.09.05-.13.13-.13.24,0,.08.03.15.09.2Z"/>
      <path class="cls-16" d="m113.44,14.27h.28v.23c.06-.08.12-.14.19-.18.1-.06.21-.1.34-.1.19,0,.36.07.5.22.14.15.2.36.2.64,0,.37-.1.64-.29.8-.12.1-.27.15-.43.15-.13,0-.24-.03-.33-.08-.05-.03-.11-.09-.17-.17v.88h-.29v-2.39Zm1.08,1.35c.09-.11.13-.28.13-.51,0-.14-.02-.25-.06-.35-.07-.19-.21-.28-.41-.28s-.34.1-.41.3c-.04.11-.06.24-.06.41,0,.13.02.25.06.34.07.18.21.27.41.27.14,0,.25-.06.34-.17Z"/>
      <path class="cls-16" d="m116.36,14.31c.11.06.2.13.26.22.06.09.1.19.12.3.02.08.02.21.02.38h-1.26c0,.17.05.31.12.42.08.11.2.16.36.16.15,0,.27-.05.36-.15.05-.06.09-.12.11-.2h.28c0,.06-.03.13-.07.21-.04.08-.09.14-.14.19-.09.09-.2.14-.32.17-.07.02-.15.03-.24.03-.21,0-.4-.08-.54-.23-.15-.15-.22-.37-.22-.65s.07-.5.22-.67.35-.26.59-.26c.12,0,.24.03.35.09Zm.11.67c-.01-.12-.04-.22-.08-.3-.08-.14-.21-.21-.4-.21-.13,0-.24.05-.33.14s-.14.22-.14.36h.95Zm-.13-1.41l-.43.46h-.22l.29-.46h.36Z"/>
      <path class="cls-16" d="m118.19,14.31c.11.06.2.13.26.22.06.09.1.19.12.3.02.08.02.21.02.38h-1.26c0,.17.05.31.12.42.08.11.2.16.36.16.15,0,.27-.05.36-.15.05-.06.09-.12.11-.2h.28c0,.06-.03.13-.07.21-.04.08-.09.14-.14.19-.09.09-.2.14-.32.17-.07.02-.15.03-.24.03-.21,0-.4-.08-.54-.23-.15-.15-.22-.37-.22-.65s.07-.5.22-.67.35-.26.59-.26c.12,0,.24.03.35.09Zm.11.67c-.01-.12-.04-.22-.08-.3-.08-.14-.21-.21-.4-.21-.13,0-.24.05-.33.14s-.14.22-.14.36h.95Z"/>
      <path class="cls-16" d="m119.12,15.44c0,.1.03.17.07.22.07.09.2.14.38.14.11,0,.2-.02.28-.07.08-.05.12-.12.12-.22,0-.07-.03-.13-.1-.17-.04-.02-.12-.05-.25-.08l-.23-.06c-.15-.04-.25-.08-.32-.12-.12-.08-.19-.19-.19-.32,0-.16.06-.29.18-.39.12-.1.27-.15.47-.15.26,0,.44.08.56.23.07.1.11.2.1.31h-.27c0-.06-.03-.12-.07-.18-.07-.08-.18-.11-.34-.11-.11,0-.19.02-.25.06-.06.04-.08.1-.08.17,0,.07.04.13.11.18.04.03.11.05.19.07l.19.05c.21.05.35.1.42.15.11.07.17.19.17.35s-.06.28-.17.4c-.12.11-.29.17-.53.17-.26,0-.44-.06-.54-.17-.11-.12-.16-.26-.17-.43h.28Z"/>
    </g>
    <g>
      <path d="m78.3,10.77c.18-.18.41-.27.68-.27.37,0,.64.12.81.37.09.14.15.27.15.41h-.46c-.03-.11-.07-.19-.11-.24-.08-.1-.2-.14-.37-.14s-.3.07-.39.2c-.09.14-.14.33-.14.58s.05.43.15.56.23.19.38.19.28-.05.36-.16c.05-.06.08-.14.11-.26h.46c-.04.24-.14.44-.3.59-.16.15-.37.23-.63.23-.32,0-.56-.1-.74-.31-.18-.21-.27-.49-.27-.84,0-.39.1-.69.31-.89Z"/>
      <path d="m80.95,10.54h.52l.78,2.22h-.5l-.15-.46h-.82l-.15.46h-.48l.79-2.22Zm-.03,1.38h.57l-.28-.87-.29.87Z"/>
      <path d="m83.96,10.6c.08.03.15.09.21.15.05.06.08.12.11.19.03.07.04.15.04.23,0,.11-.03.21-.08.31s-.14.17-.26.22c.1.04.17.1.22.18s.06.19.06.35v.15c0,.1,0,.17.01.21.01.06.04.1.09.13v.06h-.51s-.02-.09-.03-.12c-.01-.06-.02-.13-.02-.19v-.21c0-.14-.03-.24-.08-.28s-.13-.07-.26-.07h-.45v.87h-.45v-2.22h1.06c.15,0,.27.02.35.06Zm-.96.33v.6h.5c.1,0,.17-.01.22-.04.09-.04.13-.12.13-.25,0-.13-.04-.22-.13-.27-.05-.03-.12-.04-.21-.04h-.51Z"/>
      <path d="m86.37,10.54v.39h-.66v1.82h-.47v-1.82h-.67v-.39h1.8Z"/>
      <path d="m88.28,10.94h-1.17v.47h1.08v.39h-1.08v.57h1.23v.4h-1.68v-2.22h1.63v.39Z"/>
      <path d="m90.85,10.59c.16.05.28.15.38.28.08.11.13.23.16.36.03.13.04.25.04.37,0,.29-.06.54-.18.75-.16.28-.41.41-.74.41h-.96v-2.22h.96c.14,0,.25.02.34.05Zm-.85.34v1.45h.43c.22,0,.37-.11.46-.32.05-.12.07-.26.07-.42,0-.23-.03-.4-.11-.52-.07-.12-.21-.18-.42-.18h-.43Z"/>
      <path d="m93.42,10.94h-1.17v.47h1.08v.39h-1.08v.57h1.23v.4h-1.68v-2.22h1.63v.39Z"/>
      <path d="m95.02,12.08c.01.1.04.18.09.23.08.09.21.14.39.14.11,0,.2-.01.27-.04.13-.05.2-.13.2-.26,0-.07-.03-.13-.1-.17-.06-.04-.17-.07-.31-.1l-.24-.05c-.24-.05-.4-.11-.49-.17-.15-.1-.22-.26-.22-.48,0-.2.07-.36.22-.49.15-.13.36-.2.64-.2.24,0,.44.06.6.19.17.12.25.3.26.54h-.45c0-.13-.07-.23-.18-.28-.07-.04-.17-.06-.28-.06-.12,0-.22.02-.29.07-.07.05-.11.12-.11.2,0,.08.04.14.11.18.05.03.14.06.29.09l.39.09c.17.04.3.09.38.16.13.1.2.26.2.45s-.08.37-.23.5c-.16.13-.38.2-.66.2s-.52-.07-.69-.2c-.17-.13-.25-.31-.25-.54h.44Z"/>
      <path d="m98.35,10.54v.39h-.66v1.82h-.47v-1.82h-.67v-.39h1.8Z"/>
      <path d="m99.03,10.54h.52l.78,2.22h-.5l-.15-.46h-.82l-.15.46h-.48l.79-2.22Zm-.03,1.38h.57l-.28-.87-.29.87Z"/>
      <path d="m102,10.54v.39h-.66v1.82h-.47v-1.82h-.67v-.39h1.8Z"/>
      <path d="m102.7,12.76h-.46v-2.22h.46v2.22Z"/>
      <path d="m104.84,12.56c-.17.17-.41.26-.73.26s-.56-.09-.73-.26c-.22-.21-.34-.52-.34-.91s.11-.71.34-.91c.17-.17.41-.26.73-.26s.56.09.73.26c.22.2.33.51.33.91s-.11.7-.33.91Zm-.29-.34c.11-.14.16-.33.16-.58s-.05-.44-.16-.58c-.11-.14-.25-.2-.44-.2s-.33.07-.44.2-.16.33-.16.58.06.44.16.58.26.2.44.2.33-.07.44-.2Z"/>
      <path d="m105.52,10.54h.48l.88,1.55v-1.55h.43v2.22h-.46l-.9-1.57v1.57h-.43v-2.22Z"/>
      <path d="m107.74,10.54h.48l.88,1.55v-1.55h.43v2.22h-.46l-.9-1.57v1.57h-.43v-2.22Z"/>
      <path d="m111.61,10.94h-1.17v.47h1.08v.39h-1.08v.57h1.23v.4h-1.68v-2.22h1.63v.39Z"/>
      <path d="m113.5,10.54h.67v2.22h-.43v-1.5s0-.1,0-.18c0-.08,0-.14,0-.18l-.42,1.86h-.45l-.42-1.86s0,.1,0,.18c0,.08,0,.14,0,.18v1.5h-.43v-2.22h.67l.4,1.74.4-1.74Z"/>
      <path d="m116.23,10.94h-1.17v.47h1.08v.39h-1.08v.57h1.23v.4h-1.68v-2.22h1.63v.39Z"/>
      <path d="m116.64,10.54h.48l.88,1.55v-1.55h.43v2.22h-.46l-.9-1.57v1.57h-.43v-2.22Z"/>
      <path d="m120.48,10.54v.39h-.66v1.82h-.47v-1.82h-.67v-.39h1.8Z"/>
    </g>
  </g>
  <g>
    <path class="cls-12" d="m58.87,35.01c-1.24,3.3-4.42,5.64-8.15,5.64-4.81,0-8.7-3.9-8.7-8.7,0-3.39,1.93-6.32,4.76-7.76"/>
    <circle class="cls-2" cx="49.24" cy="13.83" r="2.51"/>
    <polyline class="cls-12" points="49.24 14.67 50.45 28.57 59.37 28.57 63.14 36.76 66.59 35.46"/>
    <line class="cls-12" x1="49.99" y1="23.31" x2="57.43" y2="23.31"/>
  </g>
  <g>
    <path class="cls-13" d="m124.92,63.09s4.15,10.32-1.72,17.3"/>
    <polygon points="121.8 75.22 122.79 75.1 123.34 80 128.19 79.1 128.37 80.08 122.47 81.18 121.8 75.22"/>
  </g>
  <rect class="cls-19" x="-89.71" y="-73.43" width="1509.9" height="999.05"/>
</svg>