<?xml version="1.0" encoding="UTF-8"?>
<svg id="Calque_1" data-name="Calque 1" xmlns="http://www.w3.org/2000/svg" xmlns:xlink="http://www.w3.org/1999/xlink" viewBox="0 0 128 128">
  <defs>
    <style>
      .cls-1, .cls-2, .cls-3, .cls-4, .cls-5, .cls-6, .cls-7 {
        stroke: #000;
      }

      .cls-1, .cls-2, .cls-3, .cls-4, .cls-8, .cls-7 {
        fill: none;
      }

      .cls-1, .cls-2, .cls-3, .cls-8, .cls-6, .cls-7 {
        stroke-linejoin: round;
      }

      .cls-1, .cls-2, .cls-8, .cls-6, .cls-7 {
        stroke-linecap: round;
      }

      .cls-2 {
        stroke-width: 1.47px;
      }

      .cls-9, .cls-10, .cls-6 {
        fill: #fff;
      }

      .cls-11 {
        fill: #175365;
      }

      .cls-3, .cls-6, .cls-7 {
        stroke-width: 1.1px;
      }

      .cls-4 {
        stroke-width: .18px;
      }

      .cls-4, .cls-5 {
        stroke-miterlimit: 10;
      }

      .cls-5 {
        fill: #e5e5e5;
      }

      .cls-8 {
        stroke: #fff;
        stroke-width: 8px;
      }

      .cls-10 {
        font-family: IBMPlexSans-ExtraLight, 'IBM Plex Sans';
        font-size: 67.56px;
        font-weight: 200;
      }

      .cls-12 {
        fill: url(#Dégradé_sans_nom_4);
      }
    </style>
    <linearGradient id="Dégradé_sans_nom_4" data-name="Dégradé sans nom 4" x1="63.84" y1="33.73" x2="63.84" y2="78.72" gradientUnits="userSpaceOnUse">
      <stop offset="0" stop-color="#cfffd1"/>
      <stop offset="1" stop-color="#bfdadc"/>
    </linearGradient>
  </defs>
  <rect class="cls-5" x="7.1" y="24.21" width="113.48" height="79.26" rx="6.45" ry="6.45"/>
  <rect class="cls-11" x="11.42" y="27.23" width="104.85" height="73.23" rx="3.79" ry="3.79"/>
  <rect class="cls-12" x="11.36" y="34.14" width="104.97" height="47.16"/>
  <text class="cls-10" transform="translate(37.48 81.32)"><tspan x="0" y="0">RF</tspan></text>
  <path class="cls-9" d="m11.42,81.31h104.85v15.36c0,2.09-1.7,3.79-3.79,3.79H15.21c-2.09,0-3.79-1.7-3.79-3.79v-15.36h0Z"/>
  <rect class="cls-9" x="11.36" y="39.64" width="31.03" height="41.67"/>
  <g>
    <path class="cls-9" d="m15.74,32.1h.33v-2.69h-.33v-.2h1.45c.27,0,.49.07.64.21.15.14.23.34.23.61,0,.21-.06.38-.17.53-.12.14-.29.23-.51.27l.52.96c.06.11.13.18.2.23.07.05.17.08.27.08h.04v.2h-.28c-.09,0-.16,0-.21-.03-.06-.02-.11-.04-.15-.08-.04-.03-.08-.07-.12-.12-.03-.05-.07-.11-.1-.17l-.55-1.02h-.52v1.22h.33v.2h-1.05v-.2Zm.71-1.44h.7c.16,0,.28-.05.37-.15.09-.1.13-.22.13-.37v-.2c0-.14-.04-.27-.13-.37-.09-.1-.21-.15-.37-.15h-.7v1.24Z"/>
    <path class="cls-9" d="m20.98,32.1h.33v-2.69h-.33v-.2h2.29v.74h-.32v-.53h-1.25v1.17h.88v-.35h.27v.93h-.27v-.35h-.88v1.27h1.3v-.57h.32v.78h-2.33v-.2Zm1.09-3.23l.34-.78.34.17-.56.68-.12-.06Z"/>
    <path class="cls-9" d="m26.08,32.1h.33v-2.69h-.33v-.2h1.45c.28,0,.5.07.65.21.15.14.22.35.22.62s-.08.48-.23.62-.37.22-.65.22h-.72v1.21h.42v.2h-1.13v-.2Zm.71-1.43h.7c.16,0,.28-.05.37-.15.08-.1.13-.22.13-.37v-.2c0-.14-.04-.27-.13-.37-.08-.1-.21-.15-.37-.15h-.7v1.24Z"/>
    <path class="cls-9" d="m32.53,32.36c-.2,0-.37-.02-.52-.07-.14-.04-.26-.12-.35-.22s-.16-.23-.2-.39c-.04-.16-.06-.35-.06-.58v-1.7h-.33v-.2h1.05v.2h-.33v1.77c0,.16.01.29.04.41.03.12.07.21.13.29s.14.13.24.17c.1.04.22.06.36.06.29,0,.49-.08.62-.23.12-.15.18-.38.18-.69v-1.77h-.33v-.2h.91v.2h-.33v1.64c0,.22-.02.42-.05.58-.04.16-.1.3-.18.41-.08.11-.19.19-.33.24-.14.05-.3.08-.5.08Z"/>
    <path class="cls-9" d="m36.63,32.1h.33v-2.69h-.33v-.2h1.48c.26,0,.46.07.61.2.15.13.22.31.22.53,0,.11-.02.21-.05.29-.03.09-.08.16-.13.22s-.12.11-.19.15-.14.06-.21.08h0c.08.02.16.04.24.07.08.03.16.08.23.14s.12.14.17.23c.04.09.07.2.07.32,0,.13-.02.25-.06.35-.04.11-.1.2-.17.27-.07.08-.16.13-.26.17-.1.04-.21.06-.33.06h-1.61v-.2Zm.71-1.5h.69c.16,0,.28-.05.37-.14.09-.09.13-.21.13-.35v-.19c0-.14-.04-.26-.13-.35-.09-.09-.21-.14-.37-.14h-.69v1.17Zm0,1.49h.76c.17,0,.31-.05.4-.15.1-.1.14-.23.14-.39v-.2c0-.16-.05-.29-.14-.39-.1-.1-.23-.15-.4-.15h-.76v1.27Z"/>
    <path class="cls-9" d="m41.86,32.1h.33v-2.69h-.33v-.2h1.05v.2h-.33v2.67h1.13v-.57h.32v.78h-2.17v-.2Z"/>
    <path class="cls-9" d="m46.76,32.1h.33v-2.69h-.33v-.2h1.05v.2h-.33v2.69h.33v.2h-1.05v-.2Z"/>
    <path class="cls-9" d="m52.59,33.07c-.09,0-.16,0-.22-.02s-.12-.03-.17-.06c-.05-.03-.09-.06-.13-.1s-.08-.09-.12-.14l-.28-.42c-.17-.03-.33-.08-.47-.17-.14-.08-.26-.19-.36-.33-.1-.13-.18-.29-.23-.48-.05-.18-.08-.39-.08-.61,0-.25.03-.47.1-.67.06-.2.16-.36.28-.5.12-.14.26-.25.43-.32.17-.07.35-.11.56-.11s.39.04.56.11c.17.07.31.18.43.32.12.14.21.31.28.5.07.2.1.42.1.67,0,.23-.03.43-.08.62-.06.19-.14.35-.24.48-.1.14-.23.25-.37.33-.15.08-.31.13-.49.16l.2.27s.06.09.09.12c.03.03.06.06.09.08.03.02.06.03.1.04.04,0,.08.01.13.01h.13v.2h-.23Zm-.69-.95c.15,0,.28-.03.4-.08.12-.05.21-.13.29-.23.08-.1.14-.22.18-.35.04-.14.06-.29.06-.45v-.51c0-.16-.02-.31-.06-.45-.04-.14-.1-.25-.18-.35-.08-.1-.18-.18-.29-.23-.12-.05-.25-.08-.4-.08s-.28.03-.4.08c-.12.06-.21.13-.29.23-.08.1-.14.22-.18.35-.04.14-.06.29-.06.45v.51c0,.16.02.31.06.45.04.14.1.25.18.35.08.1.18.18.29.23s.25.08.4.08Z"/>
    <path class="cls-9" d="m57.4,32.36c-.2,0-.37-.02-.52-.07-.14-.04-.26-.12-.35-.22s-.16-.23-.2-.39c-.04-.16-.06-.35-.06-.58v-1.7h-.33v-.2h1.05v.2h-.33v1.77c0,.16.01.29.04.41.03.12.07.21.13.29s.14.13.24.17c.1.04.22.06.36.06.29,0,.49-.08.62-.23.12-.15.18-.38.18-.69v-1.77h-.33v-.2h.91v.2h-.33v1.64c0,.22-.02.42-.05.58-.04.16-.1.3-.18.41-.08.11-.19.19-.33.24-.14.05-.3.08-.5.08Z"/>
    <path class="cls-9" d="m61.5,32.1h.33v-2.69h-.33v-.2h2.29v.74h-.32v-.53h-1.25v1.17h.88v-.35h.27v.93h-.27v-.35h-.88v1.27h1.3v-.57h.32v.78h-2.33v-.2Z"/>
    <path class="cls-9" d="m69.89,32.1h.33v-2.69h-.33v-.2h2.29v.74h-.32v-.53h-1.25v1.24h.88v-.35h.27v.93h-.27v-.35h-.88v1.21h.42v.2h-1.13v-.2Z"/>
    <path class="cls-9" d="m74.93,32.1h.33v-2.69h-.33v-.2h1.45c.27,0,.49.07.64.21.15.14.23.34.23.61,0,.21-.06.38-.17.53-.12.14-.29.23-.51.27l.52.96c.06.11.13.18.2.23.07.05.17.08.27.08h.04v.2h-.28c-.09,0-.16,0-.21-.03-.06-.02-.11-.04-.15-.08-.04-.03-.08-.07-.12-.12-.03-.05-.07-.11-.1-.17l-.55-1.02h-.52v1.22h.33v.2h-1.05v-.2Zm.71-1.44h.7c.16,0,.28-.05.37-.15.09-.1.13-.22.13-.37v-.2c0-.14-.04-.27-.13-.37-.09-.1-.21-.15-.37-.15h-.7v1.24Z"/>
    <path class="cls-9" d="m80.04,32.1h.23l1.01-2.89h.42l1,2.89h.23v.2h-1.05v-.2h.4l-.27-.8h-1.21l-.27.8h.4v.2h-.9v-.2Zm.83-1.02h1.08l-.52-1.55h-.03l-.53,1.55Z"/>
    <path class="cls-9" d="m85.52,32.1h.33v-2.69h-.33v-.2h.75l1.66,2.48h.02v-2.28h-.33v-.2h.91v.2h-.33v2.89h-.3l-1.78-2.66h-.02v2.46h.33v.2h-.91v-.2Z"/>
    <path class="cls-9" d="m92.55,33.22c-.11,0-.19-.02-.25-.06s-.11-.08-.14-.12l.09-.09s.06.06.11.08c.04.02.09.03.15.03.07,0,.13-.02.17-.05.04-.03.06-.08.06-.14,0-.05-.02-.09-.05-.13-.03-.04-.11-.07-.22-.08h-.12s.06-.31.06-.31c-.18-.01-.35-.06-.5-.14-.15-.08-.27-.19-.38-.32-.1-.14-.18-.3-.24-.49-.06-.19-.09-.41-.09-.64,0-.26.03-.48.09-.68.06-.2.15-.37.26-.5.11-.14.24-.24.4-.31.16-.07.33-.11.52-.11s.35.03.48.1c.13.06.21.14.25.24h.02v-.28h.32v.9h-.32v-.23c0-.15-.06-.27-.2-.36-.13-.09-.3-.13-.51-.13-.16,0-.29.03-.41.09s-.21.14-.28.23c-.07.1-.13.21-.16.35-.03.13-.05.27-.05.41v.54c0,.16.02.31.06.44s.1.24.19.33c.08.09.18.17.3.22s.25.08.4.08c.21,0,.39-.05.53-.16.14-.11.25-.25.31-.42l.17.08c-.03.08-.07.17-.12.25-.05.09-.12.17-.21.24-.08.08-.18.14-.3.19s-.25.08-.39.09l-.04.23h.01c.06,0,.11,0,.16,0,.09,0,.17.02.24.07.06.05.09.12.09.22,0,.06-.01.12-.04.16-.02.04-.06.08-.1.11-.04.03-.1.05-.15.07-.06.01-.12.02-.18.02Z"/>
    <path class="cls-9" d="m96.12,32.1h.23l1.01-2.89h.42l1,2.89h.23v.2h-1.05v-.2h.4l-.27-.8h-1.21l-.27.8h.4v.2h-.9v-.2Zm.83-1.02h1.08l-.52-1.55h-.03l-.53,1.55Z"/>
    <path class="cls-9" d="m101.6,32.1h.33v-2.69h-.33v-.2h1.05v.2h-.33v2.69h.33v.2h-1.05v-.2Z"/>
    <path class="cls-9" d="m106.46,32.36c-.19,0-.34-.03-.45-.09-.12-.06-.2-.14-.25-.23h-.02v.27h-.32v-.91h.32v.2c0,.07.01.14.03.21.02.06.06.12.11.17s.12.08.2.11c.08.03.19.04.31.04.26,0,.44-.05.56-.16s.17-.26.17-.44c0-.16-.04-.28-.13-.37-.09-.09-.22-.16-.41-.21l-.24-.06c-.27-.07-.49-.18-.64-.32-.15-.14-.23-.34-.23-.58,0-.12.02-.24.07-.34.05-.1.11-.19.2-.26.09-.07.19-.13.31-.16.12-.04.25-.06.4-.06.17,0,.31.03.41.08s.18.12.23.22h.03v-.24h.32v.86h-.32v-.2c0-.07-.01-.14-.03-.2-.02-.06-.06-.11-.11-.15s-.12-.07-.21-.1c-.09-.02-.19-.03-.31-.03-.21,0-.36.05-.47.14-.1.09-.16.22-.16.37s.05.28.14.37c.09.09.24.16.44.21l.23.06c.27.07.48.18.62.32.15.14.22.33.22.56,0,.13-.02.26-.07.37s-.11.21-.2.29c-.09.08-.19.15-.32.19s-.27.07-.43.07Z"/>
    <path class="cls-9" d="m110.26,32.1h.33v-2.69h-.33v-.2h2.29v.74h-.32v-.53h-1.25v1.17h.88v-.35h.27v.93h-.27v-.35h-.88v1.27h1.3v-.57h.32v.78h-2.33v-.2Z"/>
  </g>
  <g>
    <path d="m58.46,38.28h.17l.6-.83-.58-.89h-.17v-.13h.67v.13h-.21l.45.7h.01l.47-.7h-.19v-.13h.55v.13h-.17l-.58.82.6.9h.17v.13h-.68v-.13h.21l-.46-.71h-.01l-.48.71h.19v.13h-.56v-.13Z"/>
    <path d="m60.36,38.28h.17l.6-.83-.58-.89h-.17v-.13h.67v.13h-.21l.45.7h.01l.47-.7h-.19v-.13h.55v.13h-.17l-.58.82.6.9h.17v.13h-.68v-.13h.21l-.46-.71h-.01l-.48.71h.19v.13h-.56v-.13Z"/>
    <path d="m62.25,38.28h.17l.6-.83-.58-.89h-.17v-.13h.67v.13h-.21l.45.7h.01l.47-.7h-.19v-.13h.55v.13h-.17l-.58.82.6.9h.17v.13h-.68v-.13h.21l-.46-.71h-.01l-.48.71h.19v.13h-.56v-.13Z"/>
    <path d="m64.15,38.28h.17l.6-.83-.58-.89h-.17v-.13h.67v.13h-.21l.45.7h.01l.47-.7h-.19v-.13h.55v.13h-.17l-.58.82.6.9h.17v.13h-.68v-.13h.21l-.46-.71h-.01l-.48.71h.19v.13h-.56v-.13Z"/>
    <path d="m66.05,38.28h.17l.6-.83-.58-.89h-.17v-.13h.67v.13h-.21l.45.7h.01l.47-.7h-.19v-.13h.55v.13h-.17l-.58.82.6.9h.17v.13h-.68v-.13h.21l-.46-.71h-.01l-.48.71h.19v.13h-.56v-.13Z"/>
    <path d="m67.95,38.28h.17l.6-.83-.58-.89h-.17v-.13h.67v.13h-.21l.45.7h.01l.47-.7h-.19v-.13h.55v.13h-.17l-.58.82.6.9h.17v.13h-.68v-.13h.21l-.46-.71h-.01l-.48.71h.19v.13h-.56v-.13Z"/>
    <path d="m69.85,38.28h.17l.6-.83-.58-.89h-.17v-.13h.67v.13h-.21l.45.7h.01l.47-.7h-.19v-.13h.55v.13h-.17l-.58.82.6.9h.17v.13h-.68v-.13h.21l-.46-.71h-.01l-.48.71h.19v.13h-.56v-.13Z"/>
    <path d="m71.74,38.28h.17l.6-.83-.58-.89h-.17v-.13h.67v.13h-.21l.45.7h.01l.47-.7h-.19v-.13h.55v.13h-.17l-.58.82.6.9h.17v.13h-.68v-.13h.21l-.46-.71h-.01l-.48.71h.19v.13h-.56v-.13Z"/>
    <path d="m73.64,38.28h.17l.6-.83-.58-.89h-.17v-.13h.67v.13h-.21l.45.7h.01l.47-.7h-.19v-.13h.55v.13h-.17l-.58.82.6.9h.17v.13h-.68v-.13h.21l-.46-.71h-.01l-.48.71h.19v.13h-.56v-.13Z"/>
    <path d="m75.54,38.28h.17l.6-.83-.58-.89h-.17v-.13h.67v.13h-.21l.45.7h.01l.47-.7h-.19v-.13h.55v.13h-.17l-.58.82.6.9h.17v.13h-.68v-.13h.21l-.46-.71h-.01l-.48.71h.19v.13h-.56v-.13Z"/>
  </g>
  <g>
    <path d="m52.61,43.6h.17l.6-.83-.58-.89h-.17v-.13h.67v.13h-.21l.45.7h.01l.47-.7h-.19v-.13h.55v.13h-.17l-.58.82.6.9h.17v.13h-.68v-.13h.21l-.46-.71h-.01l-.48.71h.19v.13h-.56v-.13Z"/>
    <path d="m54.5,43.6h.17l.6-.83-.58-.89h-.17v-.13h.67v.13h-.21l.45.7h.01l.47-.7h-.19v-.13h.55v.13h-.17l-.58.82.6.9h.17v.13h-.68v-.13h.21l-.46-.71h-.01l-.48.71h.19v.13h-.56v-.13Z"/>
    <path d="m56.4,43.6h.17l.6-.83-.58-.89h-.17v-.13h.67v.13h-.21l.45.7h.01l.47-.7h-.19v-.13h.55v.13h-.17l-.58.82.6.9h.17v.13h-.68v-.13h.21l-.46-.71h-.01l-.48.71h.19v.13h-.56v-.13Z"/>
    <path d="m58.3,43.6h.17l.6-.83-.58-.89h-.17v-.13h.67v.13h-.21l.45.7h.01l.47-.7h-.19v-.13h.55v.13h-.17l-.58.82.6.9h.17v.13h-.68v-.13h.21l-.46-.71h-.01l-.48.71h.19v.13h-.56v-.13Z"/>
    <path d="m60.2,43.6h.17l.6-.83-.58-.89h-.17v-.13h.67v.13h-.21l.45.7h.01l.47-.7h-.19v-.13h.55v.13h-.17l-.58.82.6.9h.17v.13h-.68v-.13h.21l-.46-.71h-.01l-.48.71h.19v.13h-.56v-.13Z"/>
    <path d="m62.1,43.6h.17l.6-.83-.58-.89h-.17v-.13h.67v.13h-.21l.45.7h.01l.47-.7h-.19v-.13h.55v.13h-.17l-.58.82.6.9h.17v.13h-.68v-.13h.21l-.46-.71h-.01l-.48.71h.19v.13h-.56v-.13Z"/>
    <path d="m63.99,43.6h.17l.6-.83-.58-.89h-.17v-.13h.67v.13h-.21l.45.7h.01l.47-.7h-.19v-.13h.55v.13h-.17l-.58.82.6.9h.17v.13h-.68v-.13h.21l-.46-.71h-.01l-.48.71h.19v.13h-.56v-.13Z"/>
    <path d="m65.89,43.6h.17l.6-.83-.58-.89h-.17v-.13h.67v.13h-.21l.45.7h.01l.47-.7h-.19v-.13h.55v.13h-.17l-.58.82.6.9h.17v.13h-.68v-.13h.21l-.46-.71h-.01l-.48.71h.19v.13h-.56v-.13Z"/>
    <path d="m67.79,43.6h.17l.6-.83-.58-.89h-.17v-.13h.67v.13h-.21l.45.7h.01l.47-.7h-.19v-.13h.55v.13h-.17l-.58.82.6.9h.17v.13h-.68v-.13h.21l-.46-.71h-.01l-.48.71h.19v.13h-.56v-.13Z"/>
    <path d="m69.69,43.6h.17l.6-.83-.58-.89h-.17v-.13h.67v.13h-.21l.45.7h.01l.47-.7h-.19v-.13h.55v.13h-.17l-.58.82.6.9h.17v.13h-.68v-.13h.21l-.46-.71h-.01l-.48.71h.19v.13h-.56v-.13Z"/>
  </g>
  <g>
    <path d="m59.17,51.58h.17l.6-.83-.58-.89h-.17v-.13h.67v.13h-.21l.45.7h.01l.47-.7h-.19v-.13h.55v.13h-.17l-.58.82.6.9h.17v.13h-.68v-.13h.21l-.46-.71h-.01l-.48.71h.19v.13h-.56v-.13Z"/>
    <path d="m61.06,51.58h.17l.6-.83-.58-.89h-.17v-.13h.67v.13h-.21l.45.7h.01l.47-.7h-.19v-.13h.55v.13h-.17l-.58.82.6.9h.17v.13h-.68v-.13h.21l-.46-.71h-.01l-.48.71h.19v.13h-.56v-.13Z"/>
    <path d="m62.96,51.58h.17l.6-.83-.58-.89h-.17v-.13h.67v.13h-.21l.45.7h.01l.47-.7h-.19v-.13h.55v.13h-.17l-.58.82.6.9h.17v.13h-.68v-.13h.21l-.46-.71h-.01l-.48.71h.19v.13h-.56v-.13Z"/>
    <path d="m64.86,51.58h.17l.6-.83-.58-.89h-.17v-.13h.67v.13h-.21l.45.7h.01l.47-.7h-.19v-.13h.55v.13h-.17l-.58.82.6.9h.17v.13h-.68v-.13h.21l-.46-.71h-.01l-.48.71h.19v.13h-.56v-.13Z"/>
    <path d="m66.76,51.58h.17l.6-.83-.58-.89h-.17v-.13h.67v.13h-.21l.45.7h.01l.47-.7h-.19v-.13h.55v.13h-.17l-.58.82.6.9h.17v.13h-.68v-.13h.21l-.46-.71h-.01l-.48.71h.19v.13h-.56v-.13Z"/>
    <path d="m68.66,51.58h.17l.6-.83-.58-.89h-.17v-.13h.67v.13h-.21l.45.7h.01l.47-.7h-.19v-.13h.55v.13h-.17l-.58.82.6.9h.17v.13h-.68v-.13h.21l-.46-.71h-.01l-.48.71h.19v.13h-.56v-.13Z"/>
    <path d="m70.55,51.58h.17l.6-.83-.58-.89h-.17v-.13h.67v.13h-.21l.45.7h.01l.47-.7h-.19v-.13h.55v.13h-.17l-.58.82.6.9h.17v.13h-.68v-.13h.21l-.46-.71h-.01l-.48.71h.19v.13h-.56v-.13Z"/>
    <path d="m72.45,51.58h.17l.6-.83-.58-.89h-.17v-.13h.67v.13h-.21l.45.7h.01l.47-.7h-.19v-.13h.55v.13h-.17l-.58.82.6.9h.17v.13h-.68v-.13h.21l-.46-.71h-.01l-.48.71h.19v.13h-.56v-.13Z"/>
    <path d="m74.35,51.58h.17l.6-.83-.58-.89h-.17v-.13h.67v.13h-.21l.45.7h.01l.47-.7h-.19v-.13h.55v.13h-.17l-.58.82.6.9h.17v.13h-.68v-.13h.21l-.46-.71h-.01l-.48.71h.19v.13h-.56v-.13Z"/>
    <path d="m76.25,51.58h.17l.6-.83-.58-.89h-.17v-.13h.67v.13h-.21l.45.7h.01l.47-.7h-.19v-.13h.55v.13h-.17l-.58.82.6.9h.17v.13h-.68v-.13h.21l-.46-.71h-.01l-.48.71h.19v.13h-.56v-.13Z"/>
  </g>
  <g>
    <path d="m52.61,59.38h.17l.6-.83-.58-.89h-.17v-.13h.67v.13h-.21l.45.7h.01l.47-.7h-.19v-.13h.55v.13h-.17l-.58.82.6.9h.17v.13h-.68v-.13h.21l-.46-.71h-.01l-.48.71h.19v.13h-.56v-.13Z"/>
    <path d="m54.5,59.38h.17l.6-.83-.58-.89h-.17v-.13h.67v.13h-.21l.45.7h.01l.47-.7h-.19v-.13h.55v.13h-.17l-.58.82.6.9h.17v.13h-.68v-.13h.21l-.46-.71h-.01l-.48.71h.19v.13h-.56v-.13Z"/>
    <path d="m56.4,59.38h.17l.6-.83-.58-.89h-.17v-.13h.67v.13h-.21l.45.7h.01l.47-.7h-.19v-.13h.55v.13h-.17l-.58.82.6.9h.17v.13h-.68v-.13h.21l-.46-.71h-.01l-.48.71h.19v.13h-.56v-.13Z"/>
    <path d="m58.3,59.38h.17l.6-.83-.58-.89h-.17v-.13h.67v.13h-.21l.45.7h.01l.47-.7h-.19v-.13h.55v.13h-.17l-.58.82.6.9h.17v.13h-.68v-.13h.21l-.46-.71h-.01l-.48.71h.19v.13h-.56v-.13Z"/>
    <path d="m60.2,59.38h.17l.6-.83-.58-.89h-.17v-.13h.67v.13h-.21l.45.7h.01l.47-.7h-.19v-.13h.55v.13h-.17l-.58.82.6.9h.17v.13h-.68v-.13h.21l-.46-.71h-.01l-.48.71h.19v.13h-.56v-.13Z"/>
    <path d="m62.1,59.38h.17l.6-.83-.58-.89h-.17v-.13h.67v.13h-.21l.45.7h.01l.47-.7h-.19v-.13h.55v.13h-.17l-.58.82.6.9h.17v.13h-.68v-.13h.21l-.46-.71h-.01l-.48.71h.19v.13h-.56v-.13Z"/>
    <path d="m63.99,59.38h.17l.6-.83-.58-.89h-.17v-.13h.67v.13h-.21l.45.7h.01l.47-.7h-.19v-.13h.55v.13h-.17l-.58.82.6.9h.17v.13h-.68v-.13h.21l-.46-.71h-.01l-.48.71h.19v.13h-.56v-.13Z"/>
    <path d="m65.89,59.38h.17l.6-.83-.58-.89h-.17v-.13h.67v.13h-.21l.45.7h.01l.47-.7h-.19v-.13h.55v.13h-.17l-.58.82.6.9h.17v.13h-.68v-.13h.21l-.46-.71h-.01l-.48.71h.19v.13h-.56v-.13Z"/>
    <path d="m67.79,59.38h.17l.6-.83-.58-.89h-.17v-.13h.67v.13h-.21l.45.7h.01l.47-.7h-.19v-.13h.55v.13h-.17l-.58.82.6.9h.17v.13h-.68v-.13h.21l-.46-.71h-.01l-.48.71h.19v.13h-.56v-.13Z"/>
    <path d="m69.69,59.38h.17l.6-.83-.58-.89h-.17v-.13h.67v.13h-.21l.45.7h.01l.47-.7h-.19v-.13h.55v.13h-.17l-.58.82.6.9h.17v.13h-.68v-.13h.21l-.46-.71h-.01l-.48.71h.19v.13h-.56v-.13Z"/>
  </g>
  <g>
    <path d="m48.71,63.63h.17l.6-.83-.58-.89h-.17v-.13h.67v.13h-.21l.45.7h.01l.47-.7h-.19v-.13h.55v.13h-.17l-.58.82.6.9h.17v.13h-.68v-.13h.21l-.46-.71h-.01l-.48.71h.19v.13h-.56v-.13Z"/>
    <path d="m50.6,63.63h.17l.6-.83-.58-.89h-.17v-.13h.67v.13h-.21l.45.7h.01l.47-.7h-.19v-.13h.55v.13h-.17l-.58.82.6.9h.17v.13h-.68v-.13h.21l-.46-.71h-.01l-.48.71h.19v.13h-.56v-.13Z"/>
    <path d="m52.5,63.63h.17l.6-.83-.58-.89h-.17v-.13h.67v.13h-.21l.45.7h.01l.47-.7h-.19v-.13h.55v.13h-.17l-.58.82.6.9h.17v.13h-.68v-.13h.21l-.46-.71h-.01l-.48.71h.19v.13h-.56v-.13Z"/>
    <path d="m54.4,63.63h.17l.6-.83-.58-.89h-.17v-.13h.67v.13h-.21l.45.7h.01l.47-.7h-.19v-.13h.55v.13h-.17l-.58.82.6.9h.17v.13h-.68v-.13h.21l-.46-.71h-.01l-.48.71h.19v.13h-.56v-.13Z"/>
    <path d="m56.3,63.63h.17l.6-.83-.58-.89h-.17v-.13h.67v.13h-.21l.45.7h.01l.47-.7h-.19v-.13h.55v.13h-.17l-.58.82.6.9h.17v.13h-.68v-.13h.21l-.46-.71h-.01l-.48.71h.19v.13h-.56v-.13Z"/>
    <path d="m58.2,63.63h.17l.6-.83-.58-.89h-.17v-.13h.67v.13h-.21l.45.7h.01l.47-.7h-.19v-.13h.55v.13h-.17l-.58.82.6.9h.17v.13h-.68v-.13h.21l-.46-.71h-.01l-.48.71h.19v.13h-.56v-.13Z"/>
    <path d="m60.09,63.63h.17l.6-.83-.58-.89h-.17v-.13h.67v.13h-.21l.45.7h.01l.47-.7h-.19v-.13h.55v.13h-.17l-.58.82.6.9h.17v.13h-.68v-.13h.21l-.46-.71h-.01l-.48.71h.19v.13h-.56v-.13Z"/>
    <path d="m61.99,63.63h.17l.6-.83-.58-.89h-.17v-.13h.67v.13h-.21l.45.7h.01l.47-.7h-.19v-.13h.55v.13h-.17l-.58.82.6.9h.17v.13h-.68v-.13h.21l-.46-.71h-.01l-.48.71h.19v.13h-.56v-.13Z"/>
    <path d="m63.89,63.63h.17l.6-.83-.58-.89h-.17v-.13h.67v.13h-.21l.45.7h.01l.47-.7h-.19v-.13h.55v.13h-.17l-.58.82.6.9h.17v.13h-.68v-.13h.21l-.46-.71h-.01l-.48.71h.19v.13h-.56v-.13Z"/>
    <path d="m65.79,63.63h.17l.6-.83-.58-.89h-.17v-.13h.67v.13h-.21l.45.7h.01l.47-.7h-.19v-.13h.55v.13h-.17l-.58.82.6.9h.17v.13h-.68v-.13h.21l-.46-.71h-.01l-.48.71h.19v.13h-.56v-.13Z"/>
  </g>
  <g>
    <path d="m83.46,59.38h.17l.6-.83-.58-.89h-.17v-.13h.67v.13h-.21l.45.7h.01l.47-.7h-.19v-.13h.55v.13h-.17l-.58.82.6.9h.17v.13h-.68v-.13h.21l-.46-.71h-.01l-.48.71h.19v.13h-.56v-.13Z"/>
    <path d="m85.36,59.38h.17l.6-.83-.58-.89h-.17v-.13h.67v.13h-.21l.45.7h.01l.47-.7h-.19v-.13h.55v.13h-.17l-.58.82.6.9h.17v.13h-.68v-.13h.21l-.46-.71h-.01l-.48.71h.19v.13h-.56v-.13Z"/>
    <path d="m87.25,59.38h.17l.6-.83-.58-.89h-.17v-.13h.67v.13h-.21l.45.7h.01l.47-.7h-.19v-.13h.55v.13h-.17l-.58.82.6.9h.17v.13h-.68v-.13h.21l-.46-.71h-.01l-.48.71h.19v.13h-.56v-.13Z"/>
    <path d="m89.15,59.38h.17l.6-.83-.58-.89h-.17v-.13h.67v.13h-.21l.45.7h.01l.47-.7h-.19v-.13h.55v.13h-.17l-.58.82.6.9h.17v.13h-.68v-.13h.21l-.46-.71h-.01l-.48.71h.19v.13h-.56v-.13Z"/>
    <path d="m91.05,59.38h.17l.6-.83-.58-.89h-.17v-.13h.67v.13h-.21l.45.7h.01l.47-.7h-.19v-.13h.55v.13h-.17l-.58.82.6.9h.17v.13h-.68v-.13h.21l-.46-.71h-.01l-.48.71h.19v.13h-.56v-.13Z"/>
    <path d="m92.95,59.38h.17l.6-.83-.58-.89h-.17v-.13h.67v.13h-.21l.45.7h.01l.47-.7h-.19v-.13h.55v.13h-.17l-.58.82.6.9h.17v.13h-.68v-.13h.21l-.46-.71h-.01l-.48.71h.19v.13h-.56v-.13Z"/>
    <path d="m94.85,59.38h.17l.6-.83-.58-.89h-.17v-.13h.67v.13h-.21l.45.7h.01l.47-.7h-.19v-.13h.55v.13h-.17l-.58.82.6.9h.17v.13h-.68v-.13h.21l-.46-.71h-.01l-.48.71h.19v.13h-.56v-.13Z"/>
    <path d="m96.74,59.38h.17l.6-.83-.58-.89h-.17v-.13h.67v.13h-.21l.45.7h.01l.47-.7h-.19v-.13h.55v.13h-.17l-.58.82.6.9h.17v.13h-.68v-.13h.21l-.46-.71h-.01l-.48.71h.19v.13h-.56v-.13Z"/>
    <path d="m98.64,59.38h.17l.6-.83-.58-.89h-.17v-.13h.67v.13h-.21l.45.7h.01l.47-.7h-.19v-.13h.55v.13h-.17l-.58.82.6.9h.17v.13h-.68v-.13h.21l-.46-.71h-.01l-.48.71h.19v.13h-.56v-.13Z"/>
    <path d="m100.54,59.38h.17l.6-.83-.58-.89h-.17v-.13h.67v.13h-.21l.45.7h.01l.47-.7h-.19v-.13h.55v.13h-.17l-.58.82.6.9h.17v.13h-.68v-.13h.21l-.46-.71h-.01l-.48.71h.19v.13h-.56v-.13Z"/>
  </g>
  <g>
    <path d="m53.85,67.36h.17l.6-.83-.58-.89h-.17v-.13h.67v.13h-.21l.45.7h.01l.47-.7h-.19v-.13h.55v.13h-.17l-.58.82.6.9h.17v.13h-.68v-.13h.21l-.46-.71h-.01l-.48.71h.19v.13h-.56v-.13Z"/>
    <path d="m55.74,67.36h.17l.6-.83-.58-.89h-.17v-.13h.67v.13h-.21l.45.7h.01l.47-.7h-.19v-.13h.55v.13h-.17l-.58.82.6.9h.17v.13h-.68v-.13h.21l-.46-.71h-.01l-.48.71h.19v.13h-.56v-.13Z"/>
    <path d="m57.64,67.36h.17l.6-.83-.58-.89h-.17v-.13h.67v.13h-.21l.45.7h.01l.47-.7h-.19v-.13h.55v.13h-.17l-.58.82.6.9h.17v.13h-.68v-.13h.21l-.46-.71h-.01l-.48.71h.19v.13h-.56v-.13Z"/>
    <path d="m59.54,67.36h.17l.6-.83-.58-.89h-.17v-.13h.67v.13h-.21l.45.7h.01l.47-.7h-.19v-.13h.55v.13h-.17l-.58.82.6.9h.17v.13h-.68v-.13h.21l-.46-.71h-.01l-.48.71h.19v.13h-.56v-.13Z"/>
    <path d="m61.44,67.36h.17l.6-.83-.58-.89h-.17v-.13h.67v.13h-.21l.45.7h.01l.47-.7h-.19v-.13h.55v.13h-.17l-.58.82.6.9h.17v.13h-.68v-.13h.21l-.46-.71h-.01l-.48.71h.19v.13h-.56v-.13Z"/>
    <path d="m63.34,67.36h.17l.6-.83-.58-.89h-.17v-.13h.67v.13h-.21l.45.7h.01l.47-.7h-.19v-.13h.55v.13h-.17l-.58.82.6.9h.17v.13h-.68v-.13h.21l-.46-.71h-.01l-.48.71h.19v.13h-.56v-.13Z"/>
    <path d="m65.23,67.36h.17l.6-.83-.58-.89h-.17v-.13h.67v.13h-.21l.45.7h.01l.47-.7h-.19v-.13h.55v.13h-.17l-.58.82.6.9h.17v.13h-.68v-.13h.21l-.46-.71h-.01l-.48.71h.19v.13h-.56v-.13Z"/>
    <path d="m67.13,67.36h.17l.6-.83-.58-.89h-.17v-.13h.67v.13h-.21l.45.7h.01l.47-.7h-.19v-.13h.55v.13h-.17l-.58.82.6.9h.17v.13h-.68v-.13h.21l-.46-.71h-.01l-.48.71h.19v.13h-.56v-.13Z"/>
    <path d="m69.03,67.36h.17l.6-.83-.58-.89h-.17v-.13h.67v.13h-.21l.45.7h.01l.47-.7h-.19v-.13h.55v.13h-.17l-.58.82.6.9h.17v.13h-.68v-.13h.21l-.46-.71h-.01l-.48.71h.19v.13h-.56v-.13Z"/>
    <path d="m70.93,67.36h.17l.6-.83-.58-.89h-.17v-.13h.67v.13h-.21l.45.7h.01l.47-.7h-.19v-.13h.55v.13h-.17l-.58.82.6.9h.17v.13h-.68v-.13h.21l-.46-.71h-.01l-.48.71h.19v.13h-.56v-.13Z"/>
  </g>
  <g>
    <path class="cls-11" d="m14.57,37.72c0-.58.28-.9.73-.9.3,0,.5.13.62.39l-.24.13c-.06-.16-.18-.27-.38-.27-.27,0-.43.19-.43.51v.26c0,.32.16.52.43.52.21,0,.34-.12.4-.29l.23.14c-.12.25-.33.4-.63.4-.45,0-.73-.32-.73-.9Z"/>
    <path class="cls-11" d="m17.3,38.59l-.16-.47h-.65l-.15.47h-.29l.59-1.74h.35l.59,1.74h-.29Zm-.48-1.48h-.01l-.25.77h.51l-.25-.77Z"/>
    <path class="cls-11" d="m18.14,38.59h-.28v-1.74h.75c.31,0,.5.2.5.52,0,.25-.12.42-.34.48l.38.73h-.31l-.35-.7h-.35v.7Zm.45-.94c.14,0,.23-.08.23-.22v-.12c0-.14-.08-.22-.23-.22h-.45v.55h.45Z"/>
    <path class="cls-11" d="m19.79,37.1h-.52v-.25h1.32v.25h-.52v1.49h-.28v-1.49Z"/>
    <path class="cls-11" d="m20.85,38.59v-1.74h1.11v.25h-.83v.48h.75v.25h-.75v.51h.83v.25h-1.11Z"/>
    <path class="cls-11" d="m23.38,37.63l-.19-.37h0v1.33h-.27v-1.74h.31l.57.96.19.37h0v-1.33h.27v1.74h-.31l-.57-.96Z"/>
    <path class="cls-11" d="m25.77,38.59l-.16-.47h-.65l-.15.47h-.29l.59-1.74h.35l.59,1.74h-.29Zm-.48-1.48h-.01l-.25.77h.51l-.25-.77Z"/>
    <path class="cls-11" d="m26.53,37.1h-.52v-.25h1.32v.25h-.52v1.49h-.28v-1.49Z"/>
    <path class="cls-11" d="m27.51,38.59v-.23h.24v-1.28h-.24v-.23h.76v.23h-.24v1.28h.24v.23h-.76Z"/>
    <path class="cls-11" d="m28.54,37.72c0-.58.3-.9.75-.9s.75.31.75.9-.3.9-.75.9-.75-.31-.75-.9Zm1.2.14v-.27c0-.32-.18-.51-.45-.51s-.45.19-.45.51v.27c0,.32.18.51.45.51s.45-.19.45-.51Z"/>
    <path class="cls-11" d="m30.85,37.63l-.19-.37h0v1.33h-.27v-1.74h.31l.57.96.19.37h0v-1.33h.27v1.74h-.31l-.57-.96Z"/>
    <path class="cls-11" d="m33.24,38.59l-.16-.47h-.65l-.15.47h-.29l.59-1.74h.35l.59,1.74h-.29Zm-.48-1.48h-.01l-.25.77h.51l-.25-.77Z"/>
    <path class="cls-11" d="m33.8,38.59v-1.74h.28v1.49h.71v.25h-.99Z"/>
    <path class="cls-11" d="m35.07,38.59v-1.74h1.11v.25h-.83v.48h.75v.25h-.75v.51h.83v.25h-1.11Z"/>
    <path class="cls-11" d="m37.13,36.85h.61c.44,0,.73.29.73.87s-.29.87-.73.87h-.61v-1.74Zm.61,1.49c.26,0,.43-.17.43-.48v-.28c0-.31-.17-.48-.43-.48h-.33v1.24h.33Z"/>
    <path class="cls-11" d="m39.11,36.88v.04c0,.16-.1.35-.24.47h-.19c.1-.1.17-.2.21-.31-.08-.02-.13-.08-.13-.15v-.04c0-.09.05-.16.18-.16s.18.07.18.16Z"/>
    <path class="cls-11" d="m39.41,38.59v-.23h.24v-1.28h-.24v-.23h.76v.23h-.24v1.28h.24v.23h-.76Z"/>
    <path class="cls-11" d="m40.52,36.85h.61c.44,0,.73.29.73.87s-.29.87-.73.87h-.61v-1.74Zm.61,1.49c.26,0,.43-.17.43-.48v-.28c0-.31-.17-.48-.43-.48h-.33v1.24h.33Z"/>
    <path class="cls-11" d="m42.21,38.59v-1.74h1.11v.25h-.83v.48h.75v.25h-.75v.51h.83v.25h-1.11Z"/>
    <path class="cls-11" d="m44.15,37.63l-.19-.37h0v1.33h-.27v-1.74h.31l.57.96.19.37h0v-1.33h.27v1.74h-.31l-.57-.96Z"/>
    <path class="cls-11" d="m45.82,37.1h-.52v-.25h1.32v.25h-.52v1.49h-.28v-1.49Z"/>
    <path class="cls-11" d="m46.8,38.59v-.23h.24v-1.28h-.24v-.23h.76v.23h-.24v1.28h.24v.23h-.76Z"/>
    <path class="cls-11" d="m48.26,37.1h-.52v-.25h1.32v.25h-.52v1.49h-.28v-1.49Z"/>
    <path class="cls-11" d="m49.32,38.59v-1.74h1.11v.25h-.83v.48h.75v.25h-.75v.51h.83v.25h-1.11Zm.58-1.86l-.17-.08.23-.45.24.11-.29.41Z"/>
    <path class="cls-11" d="m51.85,37.63l-.19-.37h0v1.33h-.27v-1.74h.31l.57.96.19.37h0v-1.33h.27v1.74h-.31l-.57-.96Z"/>
    <path class="cls-11" d="m53.09,37.26c0-.25.19-.45.44-.45s.44.19.44.45-.19.45-.44.45-.44-.19-.44-.45Zm.67,0c0-.14-.09-.25-.23-.25s-.23.11-.23.25.09.25.23.25.23-.11.23-.25Z"/>
    <path class="cls-11" d="m54.9,37.47v-.04c0-.1.06-.17.18-.17s.18.07.18.17v.04c0,.1-.06.17-.18.17s-.18-.07-.18-.17Zm0,.98v-.04c0-.1.06-.17.18-.17s.18.07.18.17v.04c0,.1-.06.17-.18.17s-.18-.07-.18-.17Z"/>
  </g>
  <g>
    <path d="m16.23,87.52v-.33h.34v-1.82h-.34v-.33h1.08v.33h-.34v1.82h.34v.33h-1.08Z"/>
    <path d="m17.81,85.05h.87c.63,0,1.04.41,1.04,1.24s-.41,1.24-1.04,1.24h-.87v-2.47Zm.87,2.12c.37,0,.62-.24.62-.68v-.4c0-.45-.25-.68-.62-.68h-.47v1.76h.47Z"/>
    <path d="m20.23,87.52v-2.47h1.54v.35h-1.14v.69h1.02v.35h-1.02v1.08h-.4Z"/>
    <path d="m22.65,87.52h-.4v-2.47h1.07c.44,0,.71.29.71.74,0,.35-.17.59-.48.69l.53,1.04h-.45l-.5-1h-.49v1Zm.64-1.33c.2,0,.32-.11.32-.31v-.17c0-.2-.12-.31-.32-.31h-.64v.79h.64Z"/>
    <path d="m26.12,87.52l-.22-.67h-.92l-.22.67h-.41l.84-2.47h.5l.84,2.47h-.42Zm-.68-2.1h-.02l-.36,1.09h.73l-.35-1.09Z"/>
    <path d="m27.51,86.26l-.77-1.21h.47l.56.92h0l.57-.92h.44l-.78,1.2.81,1.27h-.47l-.6-.98h-.01l-.59.98h-.44l.8-1.26Z"/>
    <path d="m29.78,86.26l-.77-1.21h.47l.56.92h0l.57-.92h.44l-.78,1.2.81,1.27h-.47l-.6-.98h-.01l-.59.98h-.44l.8-1.26Z"/>
    <path d="m32.04,86.26l-.77-1.21h.47l.56.92h0l.57-.92h.44l-.78,1.2.81,1.27h-.47l-.6-.98h-.01l-.59.98h-.44l.8-1.26Z"/>
    <path d="m34.31,86.26l-.77-1.21h.47l.56.92h0l.57-.92h.44l-.78,1.2.81,1.27h-.47l-.6-.98h-.01l-.59.98h-.44l.8-1.26Z"/>
    <path d="m36.57,86.26l-.77-1.21h.47l.56.92h0l.57-.92h.44l-.78,1.2.81,1.27h-.47l-.6-.98h-.01l-.59.98h-.44l.8-1.26Z"/>
    <path d="m38.84,86.26l-.77-1.21h.47l.56.92h0l.57-.92h.44l-.78,1.2.81,1.27h-.47l-.6-.98h-.01l-.59.98h-.44l.8-1.26Z"/>
    <path d="m41.11,86.26l-.77-1.21h.47l.56.92h0l.57-.92h.44l-.78,1.2.81,1.27h-.47l-.6-.98h-.01l-.59.98h-.44l.8-1.26Z"/>
    <path d="m43.67,86.65v-.29l1.44-.9v.4l-1.06.63v.02l1.06.64v.4l-1.44-.9Z"/>
    <path d="m45.8,86.65v-.29l1.44-.9v.4l-1.06.63v.02l1.06.64v.4l-1.44-.9Z"/>
    <path d="m47.93,86.65v-.29l1.44-.9v.4l-1.06.63v.02l1.06.64v.4l-1.44-.9Z"/>
    <path d="m50.06,86.65v-.29l1.44-.9v.4l-1.06.63v.02l1.06.64v.4l-1.44-.9Z"/>
    <path d="m52.19,86.65v-.29l1.44-.9v.4l-1.06.63v.02l1.06.64v.4l-1.44-.9Z"/>
    <path d="m54.31,86.65v-.29l1.44-.9v.4l-1.06.63v.02l1.06.64v.4l-1.44-.9Z"/>
    <path d="m56.44,86.65v-.29l1.44-.9v.4l-1.06.63v.02l1.06.64v.4l-1.44-.9Z"/>
    <path d="m58.57,86.65v-.29l1.44-.9v.4l-1.06.63v.02l1.06.64v.4l-1.44-.9Z"/>
    <path d="m60.7,86.65v-.29l1.44-.9v.4l-1.06.63v.02l1.06.64v.4l-1.44-.9Z"/>
    <path d="m62.83,86.65v-.29l1.44-.9v.4l-1.06.63v.02l1.06.64v.4l-1.44-.9Z"/>
    <path d="m64.95,86.65v-.29l1.44-.9v.4l-1.06.63v.02l1.06.64v.4l-1.44-.9Z"/>
    <path d="m67.08,86.65v-.29l1.44-.9v.4l-1.06.63v.02l1.06.64v.4l-1.44-.9Z"/>
    <path d="m69.21,86.65v-.29l1.44-.9v.4l-1.06.63v.02l1.06.64v.4l-1.44-.9Z"/>
    <path d="m71.34,86.65v-.29l1.44-.9v.4l-1.06.63v.02l1.06.64v.4l-1.44-.9Z"/>
    <path d="m73.47,86.65v-.29l1.44-.9v.4l-1.06.63v.02l1.06.64v.4l-1.44-.9Z"/>
    <path d="m75.59,86.65v-.29l1.44-.9v.4l-1.06.63v.02l1.06.64v.4l-1.44-.9Z"/>
    <path d="m77.72,86.65v-.29l1.44-.9v.4l-1.06.63v.02l1.06.64v.4l-1.44-.9Z"/>
    <path d="m79.85,86.65v-.29l1.44-.9v.4l-1.06.63v.02l1.06.64v.4l-1.44-.9Z"/>
    <path d="m81.98,86.65v-.29l1.44-.9v.4l-1.06.63v.02l1.06.64v.4l-1.44-.9Z"/>
    <path d="m84.11,86.65v-.29l1.44-.9v.4l-1.06.63v.02l1.06.64v.4l-1.44-.9Z"/>
    <path d="m86.23,86.65v-.29l1.44-.9v.4l-1.06.63v.02l1.06.64v.4l-1.44-.9Z"/>
    <path d="m88.36,86.65v-.29l1.44-.9v.4l-1.06.63v.02l1.06.64v.4l-1.44-.9Z"/>
    <path d="m90.49,86.65v-.29l1.44-.9v.4l-1.06.63v.02l1.06.64v.4l-1.44-.9Z"/>
    <path d="m92.62,86.65v-.29l1.44-.9v.4l-1.06.63v.02l1.06.64v.4l-1.44-.9Z"/>
    <path d="m94.75,86.65v-.29l1.44-.9v.4l-1.06.63v.02l1.06.64v.4l-1.44-.9Z"/>
    <path d="m96.87,86.65v-.29l1.44-.9v.4l-1.06.63v.02l1.06.64v.4l-1.44-.9Z"/>
    <path d="m99,86.65v-.29l1.44-.9v.4l-1.06.63v.02l1.06.64v.4l-1.44-.9Z"/>
    <path d="m101.13,86.65v-.29l1.44-.9v.4l-1.06.63v.02l1.06.64v.4l-1.44-.9Z"/>
    <path d="m103.26,86.65v-.29l1.44-.9v.4l-1.06.63v.02l1.06.64v.4l-1.44-.9Z"/>
    <path d="m105.38,86.65v-.29l1.44-.9v.4l-1.06.63v.02l1.06.64v.4l-1.44-.9Z"/>
    <path d="m107.51,86.65v-.29l1.44-.9v.4l-1.06.63v.02l1.06.64v.4l-1.44-.9Z"/>
  </g>
  <g>
    <path d="m16.9,93.17l-.77-1.21h.47l.56.92h0l.57-.92h.44l-.78,1.2.81,1.27h-.47l-.6-.98h-.01l-.59.98h-.44l.8-1.26Z"/>
    <path d="m19.17,93.17l-.77-1.21h.47l.56.92h0l.57-.92h.44l-.78,1.2.81,1.27h-.47l-.6-.98h-.01l-.59.98h-.44l.8-1.26Z"/>
    <path d="m21.44,93.17l-.77-1.21h.47l.56.92h0l.57-.92h.44l-.78,1.2.81,1.27h-.47l-.6-.98h-.01l-.59.98h-.44l.8-1.26Z"/>
    <path d="m23.7,93.17l-.77-1.21h.47l.56.92h0l.57-.92h.44l-.78,1.2.81,1.27h-.47l-.6-.98h-.01l-.59.98h-.44l.8-1.26Z"/>
    <path d="m25.97,93.17l-.77-1.21h.47l.56.92h0l.57-.92h.44l-.78,1.2.81,1.27h-.47l-.6-.98h-.01l-.59.98h-.44l.8-1.26Z"/>
    <path d="m28.23,93.17l-.77-1.21h.47l.56.92h0l.57-.92h.44l-.78,1.2.81,1.27h-.47l-.6-.98h-.01l-.59.98h-.44l.8-1.26Z"/>
    <path d="m30.5,93.17l-.77-1.21h.47l.56.92h0l.57-.92h.44l-.78,1.2.81,1.27h-.47l-.6-.98h-.01l-.59.98h-.44l.8-1.26Z"/>
    <path d="m32.77,93.17l-.77-1.21h.47l.56.92h0l.57-.92h.44l-.78,1.2.81,1.27h-.47l-.6-.98h-.01l-.59.98h-.44l.8-1.26Z"/>
    <path d="m35.03,93.17l-.77-1.21h.47l.56.92h0l.57-.92h.44l-.78,1.2.81,1.27h-.47l-.6-.98h-.01l-.59.98h-.44l.8-1.26Z"/>
    <path d="m37.3,93.17l-.77-1.21h.47l.56.92h0l.57-.92h.44l-.78,1.2.81,1.27h-.47l-.6-.98h-.01l-.59.98h-.44l.8-1.26Z"/>
    <path d="m39.56,93.17l-.77-1.21h.47l.56.92h0l.57-.92h.44l-.78,1.2.81,1.27h-.47l-.6-.98h-.01l-.59.98h-.44l.8-1.26Z"/>
    <path d="m41.83,93.17l-.77-1.21h.47l.56.92h0l.57-.92h.44l-.78,1.2.81,1.27h-.47l-.6-.98h-.01l-.59.98h-.44l.8-1.26Z"/>
    <path d="m44.1,93.17l-.77-1.21h.47l.56.92h0l.57-.92h.44l-.78,1.2.81,1.27h-.47l-.6-.98h-.01l-.59.98h-.44l.8-1.26Z"/>
    <path d="m45.83,93.57v-.29l1.44-.9v.4l-1.06.63v.02l1.06.64v.4l-1.44-.9Z"/>
    <path d="m47.96,93.57v-.29l1.44-.9v.4l-1.06.63v.02l1.06.64v.4l-1.44-.9Z"/>
    <path d="m50.08,93.57v-.29l1.44-.9v.4l-1.06.63v.02l1.06.64v.4l-1.44-.9Z"/>
    <path d="m52.21,93.57v-.29l1.44-.9v.4l-1.06.63v.02l1.06.64v.4l-1.44-.9Z"/>
    <path d="m54.34,93.57v-.29l1.44-.9v.4l-1.06.63v.02l1.06.64v.4l-1.44-.9Z"/>
    <path d="m56.47,93.57v-.29l1.44-.9v.4l-1.06.63v.02l1.06.64v.4l-1.44-.9Z"/>
    <path d="m58.6,93.57v-.29l1.44-.9v.4l-1.06.63v.02l1.06.64v.4l-1.44-.9Z"/>
    <path d="m60.72,93.57v-.29l1.44-.9v.4l-1.06.63v.02l1.06.64v.4l-1.44-.9Z"/>
    <path d="m62.85,93.57v-.29l1.44-.9v.4l-1.06.63v.02l1.06.64v.4l-1.44-.9Z"/>
    <path d="m64.98,93.57v-.29l1.44-.9v.4l-1.06.63v.02l1.06.64v.4l-1.44-.9Z"/>
    <path d="m67.11,93.57v-.29l1.44-.9v.4l-1.06.63v.02l1.06.64v.4l-1.44-.9Z"/>
    <path d="m69.24,93.57v-.29l1.44-.9v.4l-1.06.63v.02l1.06.64v.4l-1.44-.9Z"/>
    <path d="m71.36,93.57v-.29l1.44-.9v.4l-1.06.63v.02l1.06.64v.4l-1.44-.9Z"/>
    <path d="m73.49,93.57v-.29l1.44-.9v.4l-1.06.63v.02l1.06.64v.4l-1.44-.9Z"/>
    <path d="m75.62,93.57v-.29l1.44-.9v.4l-1.06.63v.02l1.06.64v.4l-1.44-.9Z"/>
    <path d="m77.75,93.57v-.29l1.44-.9v.4l-1.06.63v.02l1.06.64v.4l-1.44-.9Z"/>
    <path d="m79.88,93.57v-.29l1.44-.9v.4l-1.06.63v.02l1.06.64v.4l-1.44-.9Z"/>
    <path d="m82,93.57v-.29l1.44-.9v.4l-1.06.63v.02l1.06.64v.4l-1.44-.9Z"/>
    <path d="m84.13,93.57v-.29l1.44-.9v.4l-1.06.63v.02l1.06.64v.4l-1.44-.9Z"/>
    <path d="m86.26,93.57v-.29l1.44-.9v.4l-1.06.63v.02l1.06.64v.4l-1.44-.9Z"/>
    <path d="m88.92,93.17l-.77-1.21h.47l.56.92h0l.57-.92h.44l-.78,1.2.81,1.27h-.47l-.6-.98h-.01l-.59.98h-.44l.8-1.26Z"/>
    <path d="m91.19,93.17l-.77-1.21h.47l.56.92h0l.57-.92h.44l-.78,1.2.81,1.27h-.47l-.6-.98h-.01l-.59.98h-.44l.8-1.26Z"/>
    <path d="m93.45,93.17l-.77-1.21h.47l.56.92h0l.57-.92h.44l-.78,1.2.81,1.27h-.47l-.6-.98h-.01l-.59.98h-.44l.8-1.26Z"/>
    <path d="m95.72,93.17l-.77-1.21h.47l.56.92h0l.57-.92h.44l-.78,1.2.81,1.27h-.47l-.6-.98h-.01l-.59.98h-.44l.8-1.26Z"/>
    <path d="m97.99,93.17l-.77-1.21h.47l.56.92h0l.57-.92h.44l-.78,1.2.81,1.27h-.47l-.6-.98h-.01l-.59.98h-.44l.8-1.26Z"/>
    <path d="m100.25,93.17l-.77-1.21h.47l.56.92h0l.57-.92h.44l-.78,1.2.81,1.27h-.47l-.6-.98h-.01l-.59.98h-.44l.8-1.26Z"/>
    <path d="m102.52,93.17l-.77-1.21h.47l.56.92h0l.57-.92h.44l-.78,1.2.81,1.27h-.47l-.6-.98h-.01l-.59.98h-.44l.8-1.26Z"/>
    <path d="m104.78,93.17l-.77-1.21h.47l.56.92h0l.57-.92h.44l-.78,1.2.81,1.27h-.47l-.6-.98h-.01l-.59.98h-.44l.8-1.26Z"/>
    <path d="m107.05,93.17l-.77-1.21h.47l.56.92h0l.57-.92h.44l-.78,1.2.81,1.27h-.47l-.6-.98h-.01l-.59.98h-.44l.8-1.26Z"/>
    <path d="m109.32,93.17l-.77-1.21h.47l.56.92h0l.57-.92h.44l-.78,1.2.81,1.27h-.47l-.6-.98h-.01l-.59.98h-.44l.8-1.26Z"/>
  </g>
  <g>
    <path class="cls-11" d="m45.61,42.77l-.19-.37h0v1.33h-.27v-1.74h.31l.57.96.19.37h0v-1.33h.27v1.74h-.31l-.57-.96Z"/>
    <path class="cls-11" d="m46.81,43.08c0-.41.23-.68.59-.68s.59.26.59.68-.23.68-.59.68-.59-.26-.59-.68Zm.9.11v-.22c0-.23-.12-.34-.31-.34s-.31.11-.31.34v.22c0,.23.12.34.31.34s.31-.11.31-.34Z"/>
    <path class="cls-11" d="m48.3,43.73v-1.29h.27v.21h.01c.05-.13.15-.24.35-.24.17,0,.32.08.38.26h0c.05-.14.18-.26.39-.26.26,0,.41.18.41.5v.82h-.27v-.79c0-.2-.07-.3-.24-.3-.14,0-.26.07-.26.22v.87h-.27v-.79c0-.2-.08-.3-.24-.3-.13,0-.27.07-.27.22v.87h-.27Z"/>
    <path class="cls-11" d="m51.08,42.61v-.04c0-.1.06-.17.18-.17s.18.07.18.17v.04c0,.1-.06.17-.18.17s-.18-.07-.18-.17Zm0,.98v-.04c0-.1.06-.17.18-.17s.18.07.18.17v.04c0,.1-.06.17-.18.17s-.18-.07-.18-.17Z"/>
  </g>
  <g>
    <path class="cls-11" d="m90.47,37.45l-.19-.37h0v1.33h-.27v-1.74h.31l.57.96.19.37h0v-1.33h.27v1.74h-.31l-.57-.96Z"/>
    <path class="cls-11" d="m92.7,38.41c-.14,0-.22-.09-.23-.22h-.01c-.05.16-.19.25-.38.25-.27,0-.42-.15-.42-.39,0-.26.19-.39.55-.39h.23v-.11c0-.16-.08-.25-.27-.25-.15,0-.24.07-.31.18l-.16-.15c.08-.14.24-.25.49-.25.33,0,.52.16.52.45v.65h.14v.22h-.15Zm-.26-.38v-.19h-.23c-.19,0-.28.06-.28.17v.04c0,.11.08.17.22.17.17,0,.29-.08.29-.21Z"/>
    <path class="cls-11" d="m93.47,38.41c-.19,0-.29-.1-.29-.28v-.79h-.2v-.22h.11c.09,0,.12-.04.12-.13v-.23h.24v.35h.27v.22h-.27v.85h.25v.22h-.24Z"/>
    <path class="cls-11" d="m93.99,36.74v-.04c0-.08.05-.14.16-.14s.16.06.16.14v.04c0,.08-.05.14-.16.14s-.16-.06-.16-.14Zm.02.37h.27v1.29h-.27v-1.29Z"/>
    <path class="cls-11" d="m94.59,37.76c0-.41.23-.68.59-.68s.59.26.59.68-.23.68-.59.68-.59-.26-.59-.68Zm.9.11v-.22c0-.23-.12-.34-.31-.34s-.31.11-.31.34v.22c0,.23.12.34.31.34s.31-.11.31-.34Z"/>
    <path class="cls-11" d="m96.08,38.41v-1.29h.27v.21h.01c.05-.14.16-.24.36-.24.26,0,.42.18.42.5v.82h-.27v-.79c0-.2-.08-.3-.24-.3-.14,0-.28.07-.28.22v.87h-.27Z"/>
    <path class="cls-11" d="m98.46,38.41c-.14,0-.22-.09-.23-.22h-.01c-.05.16-.19.25-.38.25-.27,0-.42-.15-.42-.39,0-.26.19-.39.55-.39h.23v-.11c0-.16-.08-.25-.27-.25-.15,0-.24.07-.31.18l-.16-.15c.08-.14.24-.25.49-.25.33,0,.52.16.52.45v.65h.14v.22h-.15Zm-.26-.38v-.19h-.23c-.19,0-.28.06-.28.17v.04c0,.11.08.17.22.17.17,0,.29-.08.29-.21Z"/>
    <path class="cls-11" d="m99.15,38.41c-.18,0-.28-.1-.28-.27v-1.57h.27v1.62h.18v.22h-.17Z"/>
    <path class="cls-11" d="m99.56,36.74v-.04c0-.08.05-.14.16-.14s.16.06.16.14v.04c0,.08-.05.14-.16.14s-.16-.06-.16-.14Zm.02.37h.27v1.29h-.27v-1.29Z"/>
    <path class="cls-11" d="m100.6,38.41c-.19,0-.29-.1-.29-.28v-.79h-.2v-.22h.11c.09,0,.12-.04.12-.13v-.23h.24v.35h.27v.22h-.27v.85h.25v.22h-.24Z"/>
    <path class="cls-11" d="m101.05,37.76c0-.41.23-.68.59-.68s.57.29.57.64v.1h-.89v.04c0,.2.12.34.34.34.16,0,.27-.07.34-.19l.16.16c-.1.16-.29.26-.53.26-.37,0-.59-.26-.59-.68Zm.28-.13v.02h.6v-.02c0-.2-.11-.33-.29-.33s-.31.14-.31.34Zm.34-.67l-.17-.08.23-.45.24.11-.29.42Z"/>
    <path class="cls-11" d="m103.13,38.41v-1.74h1.08v.25h-.8v.48h.71v.25h-.71v.76h-.28Z"/>
    <path class="cls-11" d="m104.46,38.41v-1.29h.27v.25h.01c.04-.13.15-.25.36-.25h.07v.26h-.11c-.21,0-.33.07-.33.21v.83h-.27Z"/>
    <path class="cls-11" d="m106.34,38.41c-.14,0-.22-.09-.23-.22h-.01c-.05.16-.19.25-.38.25-.27,0-.42-.15-.42-.39,0-.26.19-.39.55-.39h.23v-.11c0-.16-.08-.25-.27-.25-.15,0-.24.07-.31.18l-.16-.15c.08-.14.24-.25.49-.25.33,0,.52.16.52.45v.65h.14v.22h-.15Zm-.26-.38v-.19h-.23c-.19,0-.28.06-.28.17v.04c0,.11.08.17.22.17.17,0,.29-.08.29-.21Z"/>
    <path class="cls-11" d="m106.75,38.41v-1.29h.27v.21h.01c.05-.14.16-.24.36-.24.26,0,.42.18.42.5v.82h-.27v-.79c0-.2-.08-.3-.24-.3-.14,0-.28.07-.28.22v.87h-.27Z"/>
    <path class="cls-11" d="m109.19,37.4l-.22.1c-.04-.12-.13-.2-.28-.2-.2,0-.3.14-.3.34v.23c0,.2.1.34.3.34.16,0,.25-.08.3-.21l.21.11c-.08.2-.24.31-.47.33l-.02.11h0s.07,0,.11,0c.1,0,.17.05.17.17,0,.15-.14.21-.3.21s-.23-.06-.27-.1l.1-.12s.08.07.16.07c.06,0,.11-.02.11-.07,0-.04-.03-.08-.18-.1h-.06s.03-.17.03-.17c-.31-.04-.49-.29-.49-.67,0-.41.21-.68.59-.68.26,0,.42.13.5.32Z"/>
    <path class="cls-11" d="m110.41,38.41c-.14,0-.22-.09-.23-.22h-.01c-.05.16-.19.25-.38.25-.27,0-.42-.15-.42-.39,0-.26.19-.39.55-.39h.23v-.11c0-.16-.08-.25-.27-.25-.15,0-.24.07-.31.18l-.16-.15c.08-.14.24-.25.49-.25.33,0,.52.16.52.45v.65h.14v.22h-.15Zm-.26-.38v-.19h-.23c-.19,0-.28.06-.28.17v.04c0,.11.08.17.22.17.17,0,.29-.08.29-.21Z"/>
    <path class="cls-11" d="m110.8,36.74v-.04c0-.08.05-.14.16-.14s.16.06.16.14v.04c0,.08-.05.14-.16.14s-.16-.06-.16-.14Zm.02.37h.27v1.29h-.27v-1.29Z"/>
    <path class="cls-11" d="m111.37,38.19l.17-.16c.09.11.21.18.37.18s.24-.06.24-.17c0-.08-.05-.14-.18-.16h-.12c-.26-.05-.43-.16-.43-.4,0-.25.2-.4.48-.4.23,0,.37.08.48.21l-.17.16c-.07-.08-.18-.15-.32-.15-.15,0-.22.06-.22.16s.06.14.2.17h.12c.28.06.41.18.41.39,0,.25-.2.42-.51.42-.24,0-.4-.09-.52-.24Z"/>
    <path class="cls-11" d="m112.62,37.76c0-.41.23-.68.59-.68s.57.29.57.64v.1h-.89v.04c0,.2.12.34.34.34.16,0,.27-.07.34-.19l.16.16c-.1.16-.29.26-.53.26-.37,0-.59-.26-.59-.68Zm.28-.13v.02h.6v-.02c0-.2-.11-.33-.29-.33s-.31.14-.31.34Z"/>
  </g>
  <g>
    <path class="cls-11" d="m44.79,51.71v-1.74h.75c.32,0,.5.21.5.52s-.19.52-.5.52h-.46v.69h-.28Zm.28-.94h.45c.14,0,.23-.08.23-.22v-.12c0-.14-.08-.22-.23-.22h-.45v.55Z"/>
    <path class="cls-11" d="m46.3,51.71v-1.29h.27v.25h.01c.04-.13.15-.25.36-.25h.07v.26h-.11c-.21,0-.33.07-.33.21v.83h-.27Z"/>
    <path class="cls-11" d="m47.15,51.06c0-.41.23-.68.59-.68s.57.29.57.64v.1h-.89v.04c0,.2.12.34.34.34.16,0,.27-.07.34-.19l.16.16c-.1.16-.29.26-.53.26-.37,0-.59-.26-.59-.68Zm.28-.13v.02h.6v-.02c0-.2-.11-.33-.29-.33s-.31.14-.31.34Zm.34-.67l-.17-.08.23-.45.24.11-.29.42Z"/>
    <path class="cls-11" d="m48.62,51.71v-1.29h.27v.21h.01c.05-.14.16-.24.36-.24.26,0,.42.18.42.5v.82h-.27v-.79c0-.2-.08-.3-.24-.3-.14,0-.28.07-.28.22v.87h-.27Z"/>
    <path class="cls-11" d="m49.97,51.06c0-.41.23-.68.59-.68s.59.26.59.68-.23.68-.59.68-.59-.26-.59-.68Zm.9.11v-.22c0-.23-.12-.34-.31-.34s-.31.11-.31.34v.22c0,.23.12.34.31.34s.31-.11.31-.34Z"/>
    <path class="cls-11" d="m51.46,51.71v-1.29h.27v.21h.01c.05-.13.15-.24.35-.24.17,0,.32.08.38.26h0c.05-.14.18-.26.39-.26.26,0,.41.18.41.5v.82h-.27v-.79c0-.2-.07-.3-.24-.3-.14,0-.26.07-.26.22v.87h-.27v-.79c0-.2-.08-.3-.24-.3-.13,0-.27.07-.27.22v.87h-.27Z"/>
    <path class="cls-11" d="m54.05,49.82h.26c-.27.25-.44.64-.44,1.02v.2c0,.38.17.77.44,1.02h-.26c-.25-.21-.44-.63-.44-1.12s.19-.9.44-1.12Z"/>
    <path class="cls-11" d="m54.37,51.49l.17-.16c.09.11.21.18.37.18s.24-.06.24-.17c0-.08-.05-.14-.18-.16h-.12c-.26-.05-.43-.16-.43-.4,0-.25.2-.4.48-.4.23,0,.37.08.48.21l-.17.16c-.07-.08-.18-.15-.32-.15-.15,0-.22.06-.22.16s.06.14.2.17h.12c.28.06.41.18.41.39,0,.25-.2.42-.51.42-.24,0-.4-.09-.52-.24Z"/>
    <path class="cls-11" d="m55.75,52.05h-.26c.27-.25.44-.64.44-1.02v-.2c0-.38-.17-.77-.44-1.02h.26c.25.21.44.63.44,1.12s-.19.9-.44,1.12Z"/>
    <path class="cls-11" d="m57.14,50.59v-.04c0-.1.06-.17.18-.17s.18.07.18.17v.04c0,.1-.06.17-.18.17s-.18-.07-.18-.17Zm0,.98v-.04c0-.1.06-.17.18-.17s.18.07.18.17v.04c0,.1-.06.17-.18.17s-.18-.07-.18-.17Z"/>
  </g>
  <g>
    <path class="cls-11" d="m44.67,59.42l.19-.18c.12.15.27.23.46.23.22,0,.34-.11.34-.28,0-.13-.07-.21-.27-.25l-.15-.03c-.34-.06-.51-.22-.51-.5,0-.31.24-.5.61-.5.26,0,.45.09.59.27l-.2.17c-.09-.12-.21-.19-.41-.19s-.31.08-.31.23c0,.14.09.21.28.24l.15.03c.35.07.5.22.5.5,0,.32-.23.54-.63.54-.29,0-.49-.11-.63-.29Z"/>
    <path class="cls-11" d="m46.17,59.04c0-.41.23-.68.59-.68s.57.29.57.64v.1h-.89v.04c0,.2.12.34.34.34.16,0,.27-.07.34-.19l.16.16c-.1.16-.29.26-.53.26-.37,0-.59-.26-.59-.68Zm.28-.13v.02h.6v-.02c0-.2-.11-.33-.29-.33s-.31.14-.31.34Z"/>
    <path class="cls-11" d="m47.91,59.03l-.44-.64h.31l.29.45h0l.3-.45h.29l-.44.64.45.66h-.31l-.3-.47h0l-.31.47h-.29l.46-.65Z"/>
    <path class="cls-11" d="m48.79,59.04c0-.41.23-.68.59-.68s.57.29.57.64v.1h-.89v.04c0,.2.12.34.34.34.16,0,.27-.07.34-.19l.16.16c-.1.16-.29.26-.53.26-.37,0-.59-.26-.59-.68Zm.28-.13v.02h.6v-.02c0-.2-.11-.33-.29-.33s-.31.14-.31.34Z"/>
    <path class="cls-11" d="m50.86,58.57v-.04c0-.1.06-.17.18-.17s.18.07.18.17v.04c0,.1-.06.17-.18.17s-.18-.07-.18-.17Zm0,.98v-.04c0-.1.06-.17.18-.17s.18.07.18.17v.04c0,.1-.06.17-.18.17s-.18-.07-.18-.17Z"/>
  </g>
  <g>
    <path class="cls-11" d="m45.15,66h-.52v-.25h1.32v.25h-.52v1.49h-.28v-1.49Z"/>
    <path class="cls-11" d="m46.98,67.49c-.14,0-.22-.09-.23-.22h-.01c-.05.16-.19.25-.38.25-.27,0-.42-.15-.42-.39,0-.26.19-.39.55-.39h.23v-.11c0-.16-.08-.25-.27-.25-.15,0-.24.07-.31.18l-.16-.15c.08-.14.24-.25.49-.25.33,0,.52.16.52.45v.65h.14v.22h-.15Zm-.26-.38v-.19h-.23c-.19,0-.28.06-.28.17v.04c0,.11.08.17.22.17.17,0,.29-.08.29-.21Z"/>
    <path class="cls-11" d="m47.37,65.82v-.04c0-.08.05-.14.16-.14s.16.06.16.14v.04c0,.08-.05.14-.16.14s-.16-.06-.16-.14Zm.02.37h.27v1.29h-.27v-1.29Z"/>
    <path class="cls-11" d="m48.32,67.49c-.18,0-.28-.1-.28-.27v-1.57h.27v1.62h.18v.22h-.17Z"/>
    <path class="cls-11" d="m49.02,67.49c-.18,0-.28-.1-.28-.27v-1.57h.27v1.62h.18v.22h-.17Z"/>
    <path class="cls-11" d="m49.36,66.84c0-.41.23-.68.59-.68s.57.29.57.64v.1h-.89v.04c0,.2.12.34.34.34.16,0,.27-.07.34-.19l.16.16c-.1.16-.29.26-.53.26-.37,0-.59-.26-.59-.68Zm.28-.13v.02h.6v-.02c0-.2-.11-.33-.29-.33s-.31.14-.31.34Z"/>
  </g>
  <g>
    <path class="cls-11" d="m44.67,71.12l.19-.18c.12.15.27.23.46.23.22,0,.34-.11.34-.28,0-.13-.07-.21-.27-.25l-.15-.03c-.34-.06-.51-.22-.51-.5,0-.31.24-.5.61-.5.26,0,.45.09.59.27l-.2.17c-.09-.12-.21-.19-.41-.19s-.31.08-.31.23c0,.14.09.21.28.24l.15.03c.35.07.5.22.5.5,0,.32-.23.54-.63.54-.29,0-.49-.11-.63-.29Z"/>
    <path class="cls-11" d="m46.23,69.72v-.04c0-.08.05-.14.16-.14s.16.06.16.14v.04c0,.08-.05.14-.16.14s-.16-.06-.16-.14Zm.02.37h.27v1.29h-.27v-1.29Z"/>
    <path class="cls-11" d="m47.39,71.91c-.42,0-.59-.11-.59-.31,0-.14.08-.22.22-.25v-.03c-.09-.03-.15-.1-.15-.2,0-.13.1-.2.23-.23h0c-.15-.08-.24-.22-.24-.39,0-.26.19-.44.51-.44.09,0,.17.01.23.04v-.04c0-.11.05-.18.17-.18h.2v.22h-.26v.05c.12.08.18.2.18.35,0,.26-.19.44-.52.44-.06,0-.12,0-.17-.02-.06.02-.12.06-.12.13,0,.07.07.1.18.1h.32c.32,0,.45.13.45.36,0,.27-.19.41-.66.41Zm.17-.52h-.44c-.06.03-.09.09-.09.15,0,.1.08.18.28.18h.17c.21,0,.32-.06.32-.18,0-.09-.06-.15-.24-.15Zm.08-.86v-.05c0-.15-.09-.22-.25-.22s-.25.07-.25.22v.05c0,.15.09.22.25.22s.25-.07.25-.22Z"/>
    <path class="cls-11" d="m48.24,71.39v-1.29h.27v.21h.01c.05-.14.16-.24.36-.24.26,0,.42.18.42.5v.82h-.27v-.79c0-.2-.08-.3-.24-.3-.14,0-.28.07-.28.22v.87h-.27Z"/>
    <path class="cls-11" d="m50.63,71.39c-.14,0-.22-.09-.23-.22h-.01c-.05.16-.19.25-.38.25-.27,0-.42-.15-.42-.39,0-.26.19-.39.55-.39h.23v-.11c0-.16-.08-.25-.27-.25-.15,0-.24.07-.31.18l-.16-.15c.08-.14.24-.25.49-.25.33,0,.52.16.52.45v.65h.14v.22h-.15Zm-.26-.38v-.19h-.23c-.19,0-.28.06-.28.17v.04c0,.11.08.17.22.17.17,0,.29-.08.29-.21Z"/>
    <path class="cls-11" d="m51.4,71.39c-.19,0-.29-.1-.29-.28v-.79h-.2v-.22h.11c.09,0,.12-.04.12-.13v-.23h.24v.35h.27v.22h-.27v.85h.25v.22h-.24Z"/>
    <path class="cls-11" d="m52.73,71.17h-.01c-.05.13-.15.24-.36.24-.27,0-.42-.18-.42-.5v-.82h.27v.79c0,.2.08.3.25.3.14,0,.28-.07.28-.22v-.87h.27v1.29h-.27v-.21Z"/>
    <path class="cls-11" d="m53.39,71.39v-1.29h.27v.25h.01c.04-.13.15-.25.36-.25h.07v.26h-.11c-.21,0-.33.07-.33.21v.83h-.27Z"/>
    <path class="cls-11" d="m54.24,70.74c0-.41.23-.68.59-.68s.57.29.57.64v.1h-.89v.04c0,.2.12.34.34.34.16,0,.27-.07.34-.19l.16.16c-.1.16-.29.26-.53.26-.37,0-.59-.26-.59-.68Zm.28-.13v.02h.6v-.02c0-.2-.11-.33-.29-.33s-.31.14-.31.34Z"/>
    <path class="cls-11" d="m45.58,74.15h-.01c-.06.15-.19.24-.36.24-.33,0-.52-.25-.52-.68s.19-.68.52-.68c.17,0,.31.09.36.24h.01v-.76h.27v1.84h-.27v-.21Zm0-.21v-.44c0-.13-.13-.22-.29-.22-.19,0-.31.13-.31.33v.22c0,.2.12.33.31.33.16,0,.29-.09.29-.22Z"/>
    <path class="cls-11" d="m47.02,74.15h-.01c-.05.13-.15.24-.36.24-.27,0-.42-.18-.42-.5v-.82h.27v.79c0,.2.08.3.25.3.14,0,.28-.07.28-.22v-.87h.27v1.29h-.27v-.21Z"/>
    <path class="cls-11" d="m48.62,74.37c-.19,0-.29-.1-.29-.28v-.79h-.2v-.22h.11c.09,0,.12-.04.12-.13v-.23h.24v.35h.27v.22h-.27v.85h.25v.22h-.24Z"/>
    <path class="cls-11" d="m49.15,72.7v-.04c0-.08.05-.14.16-.14s.16.06.16.14v.04c0,.08-.05.14-.16.14s-.16-.06-.16-.14Zm.02.37h.27v1.29h-.27v-1.29Z"/>
    <path class="cls-11" d="m50.19,74.37c-.19,0-.29-.1-.29-.28v-.79h-.2v-.22h.11c.09,0,.12-.04.12-.13v-.23h.24v.35h.27v.22h-.27v.85h.25v.22h-.24Z"/>
    <path class="cls-11" d="m51.52,74.15h-.01c-.05.13-.15.24-.36.24-.27,0-.42-.18-.42-.5v-.82h.27v.79c0,.2.08.3.25.3.14,0,.28-.07.28-.22v-.87h.27v1.29h-.27v-.21Z"/>
    <path class="cls-11" d="m52.45,74.37c-.18,0-.28-.1-.28-.27v-1.57h.27v1.62h.18v.22h-.17Z"/>
    <path class="cls-11" d="m53.83,74.37c-.14,0-.22-.09-.23-.22h-.01c-.05.16-.19.25-.38.25-.27,0-.42-.15-.42-.39,0-.26.19-.39.55-.39h.23v-.11c0-.16-.08-.25-.27-.25-.15,0-.24.07-.31.18l-.16-.15c.08-.14.24-.25.49-.25.33,0,.52.16.52.45v.65h.14v.22h-.15Zm-.26-.38v-.19h-.23c-.19,0-.28.06-.28.17v.04c0,.11.08.17.22.17.17,0,.29-.08.29-.21Z"/>
    <path class="cls-11" d="m54.22,72.7v-.04c0-.08.05-.14.16-.14s.16.06.16.14v.04c0,.08-.05.14-.16.14s-.16-.06-.16-.14Zm.02.37h.27v1.29h-.27v-1.29Z"/>
    <path class="cls-11" d="m54.9,74.37v-1.29h.27v.25h.01c.04-.13.15-.25.36-.25h.07v.26h-.11c-.21,0-.33.07-.33.21v.83h-.27Z"/>
    <path class="cls-11" d="m55.75,73.72c0-.41.23-.68.59-.68s.57.29.57.64v.1h-.89v.04c0,.2.12.34.34.34.16,0,.27-.07.34-.19l.16.16c-.1.16-.29.26-.53.26-.37,0-.59-.26-.59-.68Zm.28-.13v.02h.6v-.02c0-.2-.11-.33-.29-.33s-.31.14-.31.34Z"/>
    <path class="cls-11" d="m57.82,73.25v-.04c0-.1.06-.17.18-.17s.18.07.18.17v.04c0,.1-.06.17-.18.17s-.18-.07-.18-.17Zm0,.98v-.04c0-.1.06-.17.18-.17s.18.07.18.17v.04c0,.1-.06.17-.18.17s-.18-.07-.18-.17Z"/>
  </g>
  <g>
    <path class="cls-11" d="m45.72,63.76c-.14,0-.22-.09-.23-.22h-.01c-.05.16-.19.25-.38.25-.27,0-.42-.15-.42-.39,0-.26.19-.39.55-.39h.23v-.11c0-.16-.08-.25-.27-.25-.15,0-.24.07-.31.18l-.16-.15c.08-.14.24-.25.49-.25.33,0,.52.16.52.45v.65h.14v.22h-.15Zm-.82-1.86l.24-.11.23.45-.17.08-.29-.42Zm.56,1.48v-.19h-.23c-.19,0-.28.06-.28.17v.04c0,.11.08.17.22.17.17,0,.29-.08.29-.21Z"/>
    <path class="cls-11" d="m46.73,62.65v-.04c0-.1.06-.17.18-.17s.18.07.18.17v.04c0,.1-.06.17-.18.17s-.18-.07-.18-.17Zm0,.98v-.04c0-.1.06-.17.18-.17s.18.07.18.17v.04c0,.1-.06.17-.18.17s-.18-.07-.18-.17Z"/>
  </g>
  <g>
    <path class="cls-11" d="m72.92,58.55l-.19-.37h0v1.33h-.27v-1.74h.31l.57.96.19.37h0v-1.33h.27v1.74h-.31l-.57-.96Z"/>
    <path class="cls-11" d="m74.12,58.86c0-.41.23-.68.59-.68s.57.29.57.64v.1h-.89v.04c0,.2.12.34.34.34.16,0,.27-.07.34-.19l.16.16c-.1.16-.29.26-.53.26-.37,0-.59-.26-.59-.68Zm.28-.13v.02h.6v-.02c0-.2-.11-.33-.29-.33s-.31.14-.31.34Zm.34-.67l-.17-.08.23-.45.24.11-.29.42Z"/>
    <path class="cls-11" d="m75.99,57.62h.26c-.27.25-.44.64-.44,1.02v.2c0,.38.17.77.44,1.02h-.26c-.25-.21-.44-.63-.44-1.12s.19-.9.44-1.12Z"/>
    <path class="cls-11" d="m76.33,58.86c0-.41.23-.68.59-.68s.57.29.57.64v.1h-.89v.04c0,.2.12.34.34.34.16,0,.27-.07.34-.19l.16.16c-.1.16-.29.26-.53.26-.37,0-.59-.26-.59-.68Zm.28-.13v.02h.6v-.02c0-.2-.11-.33-.29-.33s-.31.14-.31.34Z"/>
    <path class="cls-11" d="m77.84,59.85h-.26c.27-.25.44-.64.44-1.02v-.2c0-.38-.17-.77-.44-1.02h.26c.25.21.44.63.44,1.12s-.19.9-.44,1.12Z"/>
    <path class="cls-11" d="m79.49,59.51c-.18,0-.28-.1-.28-.27v-1.57h.27v1.62h.18v.22h-.17Z"/>
    <path class="cls-11" d="m79.84,58.86c0-.41.23-.68.59-.68s.57.29.57.64v.1h-.89v.04c0,.2.12.34.34.34.16,0,.27-.07.34-.19l.16.16c-.1.16-.29.26-.53.26-.37,0-.59-.26-.59-.68Zm.28-.13v.02h.6v-.02c0-.2-.11-.33-.29-.33s-.31.14-.31.34Z"/>
    <path class="cls-11" d="m81.9,58.39v-.04c0-.1.06-.17.18-.17s.18.07.18.17v.04c0,.1-.06.17-.18.17s-.18-.07-.18-.17Zm0,.98v-.04c0-.1.06-.17.18-.17s.18.07.18.17v.04c0,.1-.06.17-.18.17s-.18-.07-.18-.17Z"/>
  </g>
  <path class="cls-4" d="m74.13,70.67s2.31,9.57-1.24,7.98c-3.55-1.6-3.19-4.43-1.42-4.79s5.5,3.55,8.16,2.48c2.66-1.06,4.79-4.26,3.01-4.96-1.77-.71-.71,5.67,1.95,5.5s-10.28-4.79-18.44-3.72"/>
  <path class="cls-9" d="m112.61,100.59H15.18c-2.09,0-3.68-1.7-3.68-3.79l29.72,1.9,43.41-.65,31.76-1.24c0,2.09-1.7,3.79-3.79,3.79Z"/>
  <path class="cls-2" d="m25.75,63.54l-.03-.03"/>
  <g>
    <path class="cls-1" d="m34.13,48.13s-1.31.78-2.77,1.04"/>
    <g>
      <path class="cls-6" d="m28.94,79.99c-3.47.74-6.49-2.61-6.49-2.61l.41-5.86.04-.66,9.07-1.75.24,1.88.76,6.38c-.04.12-.07.25-.12.35-.03.07-.04.15-.07.21-.02.03-.02.06-.03.09,0,0-1.39,1.46-3.82,1.98Z"/>
      <path class="cls-7" d="m26.16,45.73s0,1.69-.61,2.83h-.02"/>
      <path class="cls-7" d="m22.88,49.28c-1.34-.77-2.24-2.73-2.24-2.73"/>
      <path class="cls-7" d="m18.65,64.81h-.02c-.16-.03-1.26-.32-1.9-2.05-.7-1.87-1.5-1.65-1.57-3.59-.05-1.83,1.84-1.04,2.05-.93"/>
      <path class="cls-6" d="m20.12,50.11c.83.04,1.8-.15,2.77-.83.4.25.83.37,1.29.32.64-.07,1.07-.5,1.37-1.03.02.01.03.03.05.03.18.17,1.34,1.19,2.77-.2.75.9,1.92.99,3.01.78.65.5,1.54.45,1.54.45.05.07.12.16.16.23,2.68,3.78,2.94,6.34,2.96,6.62.16-.67.28-1.31.37-1.92-.14,1.13-.36,1.95-.41,2.12v.02s-.01.03-.01.03h.01c.04,1.07.05,3.84-.39,6.71-.37,2.38-1.09,4.84-2.4,6.42-3.02,3.68-4.99,3.76-5.28,3.73-.3.07-2.37.38-5.94-2.8-1.54-1.36-2.62-3.67-3.35-5.97-.88-2.76-1.29-5.5-1.42-6.57h.01c-.02-.12-.03-.24-.03-.38.04.1.07.16.07.16-.03-.44-.04-.89-.02-1.32.29-2.22,2.32-5.9,2.56-6.54l.3-.06Z"/>
      <path class="cls-7" d="m17.24,58.24s0-.02-.02-.03v-.02c-.09-.21-.58-1.29-.91-2.78v-.05c-.66-2.96-.69-7.44,4.24-9.44,0,0,.31-1.62,2.39-1.37,0,0,2.41-2.63,5.32-.47,2.02-.57,2.57.99,2.57.99,5.56,1.31,5.92,6.33,5.6,9.32-.01.06-.02.11-.02.16"/>
      <path class="cls-7" d="m35.59,63.43h.02c.15-.06,1.19-.51,1.56-2.32.4-1.95,1.23-1.86,1-3.79-.23-1.81-1.98-.74-2.17-.6"/>
      <path class="cls-7" d="m29.53,46.75c-.36.67-.72,1.18-1.07,1.53-.04.05-.07.1-.11.12"/>
      <path class="cls-6" d="m27.51,56.49s.64,5.76,1.9,8.65c0,0-.24.59-2.12.23"/>
      <ellipse class="cls-6" cx="23.65" cy="59.24" rx=".2" ry=".58" transform="translate(-4.5 2) rotate(-4.42)"/>
      <ellipse class="cls-6" cx="31.58" cy="58.48" rx=".2" ry=".58" transform="translate(-4.42 2.61) rotate(-4.42)"/>
      <path class="cls-3" d="m42.39,78.16s-6.59-.54-9.41-.8"/>
      <path class="cls-3" d="m22.38,77.38s-8.64,1.47-11.01,1.47"/>
    </g>
  </g>
  <rect class="cls-8" x="-254.77" y="-536.83" width="1509.9" height="999.05"/>
</svg>