<?xml version="1.0" encoding="UTF-8"?>
<svg id="Calque_1" data-name="Calque 1" xmlns="http://www.w3.org/2000/svg" viewBox="0 0 200.13 128.13">
  <defs>
    <style>
      .cls-1 {
        fill: #d6d6d6;
      }

      .cls-1, .cls-2, .cls-3, .cls-4, .cls-5, .cls-6, .cls-7, .cls-8, .cls-9, .cls-10 {
        stroke: #000;
      }

      .cls-1, .cls-2, .cls-3, .cls-4, .cls-5, .cls-6, .cls-11, .cls-9 {
        stroke-linecap: round;
        stroke-linejoin: round;
      }

      .cls-2 {
        fill: #87ccf3;
      }

      .cls-3 {
        fill: #baa584;
      }

      .cls-4 {
        fill: #bfe6fc;
      }

      .cls-5, .cls-12 {
        fill: #fff;
      }

      .cls-6, .cls-11, .cls-8, .cls-10 {
        fill: none;
      }

      .cls-13 {
        fill: #03a881;
      }

      .cls-14 {
        fill: #00a3e2;
      }

      .cls-15 {
        fill: #6a679b;
      }

      .cls-16 {
        fill: #ed1f39;
      }

      .cls-17 {
        fill: #fbc920;
      }

      .cls-18 {
        fill: #f0491c;
      }

      .cls-19 {
        fill: #f15d22;
      }

      .cls-20 {
        fill: #fcf5e1;
      }

      .cls-21 {
        fill: #fbd75c;
      }

      .cls-22 {
        fill: #6d121a;
      }

      .cls-23 {
        fill: #743a80;
      }

      .cls-24 {
        fill: #24434e;
      }

      .cls-25 {
        fill: #0f9152;
      }

      .cls-26 {
        fill: #0d9151;
      }

      .cls-27 {
        fill: #6d5952;
      }

      .cls-28 {
        fill: #2c8b52;
      }

      .cls-29 {
        fill: #2c3d80;
      }

      .cls-30 {
        fill: #263f37;
      }

      .cls-31 {
        fill: #2d8b52;
      }

      .cls-32 {
        fill: #24a4e3;
      }

      .cls-33 {
        fill: #763b31;
      }

      .cls-7 {
        fill: #f3d587;
      }

      .cls-7, .cls-8, .cls-10 {
        stroke-miterlimit: 10;
      }

      .cls-7, .cls-10 {
        stroke-width: .25px;
      }

      .cls-11 {
        stroke: #fff;
        stroke-width: 8px;
      }
    </style>
  </defs>
  <path class="cls-14" d="m71.97,20.37v37.34H8.68V20.37c0-3.03,2.45-5.48,5.48-5.48h52.33c3.03,0,5.48,2.45,5.48,5.48Z"/>
  <path class="cls-19" d="m71.97,57.71v30c-7.57-9.17-18.94-14.99-31.64-14.99s-24.06,5.83-31.64,14.98v-29.99h63.28Z"/>
  <path class="cls-20" d="m71.97,87.71v21.52c0,3.03-2.46,5.49-5.49,5.49H14.18c-3.03,0-5.49-2.46-5.49-5.49v-21.53c7.58-9.16,18.94-14.98,31.64-14.98s24.07,5.83,31.64,14.99Z"/>
  <rect class="cls-8" x="-9.72" y="32.93" width="100.09" height="63.48" rx="6.45" ry="6.45" transform="translate(105 24.35) rotate(90)"/>
  <g>
    <rect class="cls-7" x="31.93" y="23.63" width="16.76" height="16.76" rx="6.02" ry="6.02" transform="translate(72.32 -8.3) rotate(90)"/>
    <g>
      <line class="cls-10" x1="31.96" y1="29.18" x2="48.72" y2="29.18"/>
      <line class="cls-10" x1="48.72" y1="34.85" x2="31.96" y2="34.85"/>
    </g>
    <line class="cls-10" x1="40.35" y1="40.39" x2="40.35" y2="23.63"/>
    <g>
      <line class="cls-10" x1="44.84" y1="23.99" x2="44.84" y2="40.06"/>
      <line class="cls-10" x1="35.78" y1="40.06" x2="35.78" y2="23.99"/>
    </g>
  </g>
  <g>
    <path class="cls-17" d="m27.64,101.06c-.07,1.85-.88,3.33-2.28,4.51-.84.71-1.84,1.07-2.88,1.34h-2.06c-1.04-.27-2.04-.63-2.88-1.34-1.4-1.18-2.22-2.65-2.28-4.5.18-.02.2.15.28.24.5.56,1.17.54,1.63-.05.07-.09.11-.21.24-.26.18.06.16.23.18.37.31,1.8,1.86,3.2,3.66,3.28,1.85.09,3.51-1.13,3.99-2.92.05-.17.07-.35.16-.51.03-.04.07-.06.11-.07.14,0,.2.1.29.18.6.55,1.1.52,1.62-.09.06-.07.09-.19.22-.18Z"/>
    <path class="cls-32" d="m35.96,104.79c1.47-.2,2.61-.88,3.32-2.21.35-.65.45-1.34.45-2.07,0-1.9,0-3.81,0-5.71,0-.34.07-.49.44-.46.48.03.96.02,1.43,0,.24,0,.34.06.34.32-.01,2.14.04,4.29-.03,6.43-.08,2.74-2.17,5.13-4.89,5.72-.1.02-.21,0-.29.1h-.63c-.04-.15.09-.2.17-.28.57-.59.5-1.21-.18-1.65-.07-.04-.18-.06-.14-.19Z"/>
    <path class="cls-17" d="m57.18,106.91c-1.03-.26-2.02-.62-2.85-1.31-1.41-1.17-2.24-2.64-2.32-4.49.16,0,.21.14.3.24.44.5,1.12.48,1.55-.03.09-.11.15-.26.3-.32.19.06.16.23.18.37.43,2.54,3.12,4,5.48,2.93,1.08-.49,1.79-1.35,2.15-2.49.07-.21.08-.44.21-.63.05-.03.13-.06.16-.01.28.32.71.44,1,.74.12.74.05,1.49.05,2.24,0,.08-.01.15-.04.22-1,1.45-2.34,2.34-4.12,2.55h-2.06Z"/>
    <path class="cls-23" d="m34.68,106.91c-.28-.08-.57-.16-.85-.25-2.58-.82-4.33-3.18-4.35-5.86-.01-2.01,0-4.01,0-6.02,0-.32.05-.46.41-.43.46.03.93.03,1.39,0,.32-.02.4.1.4.4-.01,1.92,0,3.83,0,5.75,0,1.48.54,2.69,1.77,3.56.61.44,1.32.61,2.04.73-.02.2-.22.21-.34.3-.19.13-.31.3-.38.51-.07.19-.07.38,0,.57.04.32.41.43.46.74h-.54Z"/>
    <path class="cls-23" d="m63.24,104.4c.01-.06.03-.12.04-.18.47-.9.89-1.82.99-2.84.02-.15.04-.29.04-.44,0-.27-.01-.53-.05-.79-.02-.17-.06-.35.1-.49.35,0,.71-.04,1.06.02,0,2.32,0,4.64,0,6.96-.16.15-.36.13-.55.13-.42,0-.84,0-1.25,0-.25,0-.45-.11-.46-.38-.02-.66-.12-1.34.09-1.99Z"/>
    <path class="cls-29" d="m34.67,105.57c.07-.46.46-.6.8-.78.16,0,.33,0,.49,0,.95.3,1.17,1.48.15,2.12h-.9c-.23-.2-.5-.37-.54-.72-.07-.21-.06-.42,0-.63Z"/>
    <path class="cls-32" d="m15.26,100.45c.05-1.85.84-3.37,2.27-4.51,1.95-1.55,4.15-1.87,6.43-.86,2.28,1.01,3.49,2.84,3.71,5.32.01.12,0,.24-.01.36-.14.15-.32.14-.49.14-.51,0-1.03.03-1.54-.02-.05,0-.1-.03-.14-.05-.17-.12-.14-.31-.15-.49-.12-1.53-1.26-2.9-2.76-3.33-1.53-.44-3.24.1-4.17,1.32-.45.58-.75,1.21-.81,1.94-.01.13,0,.27-.16.34-.12-.03-.14-.14-.19-.23-.44-.73-1.21-.77-1.75-.09-.06.07-.08.2-.22.18Z"/>
    <path class="cls-13" d="m51.99,100.4c.01-2.56,2.04-5.02,4.69-5.68,3.46-.87,6.98,1.38,7.62,4.88-.7.08-1,.49-1.01,1.16-.33.21-.75.06-1.07.29-.17-.11-.13-.28-.14-.44-.08-1.59-.84-2.74-2.28-3.39-1.37-.63-2.71-.46-3.93.42-.94.68-1.48,1.6-1.54,2.78,0,.17.04.37-.18.46-.12-.07-.12-.19-.14-.31-.08-.38-.3-.65-.68-.73-.4-.09-.77,0-1.04.33-.08.1-.13.24-.29.24Z"/>
    <path class="cls-27" d="m46.07,101.82c0,1.46-.02,2.91-.01,4.37,0,.34-.09.44-.43.42-.45-.03-.9-.03-1.34,0-.35.02-.46-.08-.46-.44.02-1.84,0-3.69,0-5.53,0-1.95,0-3.9,0-5.85,0-.35.08-.48.45-.45.45.03.9.03,1.34,0,.32-.02.45.07.43.42-.02.73,0,1.46,0,2.19.05.06.05.13.02.2-.59.87-1,1.82-1.13,2.87-.03.24-.04.47-.02.71.05.67.51.93,1.09,1.04.02.02.03.03.05.05Z"/>
    <path class="cls-16" d="m46.04,97.11c0-.05.02-.11.03-.16.92-1.05,2-1.85,3.38-2.21,1.58-.41,1.58-.42,1.58,1.17q0,.74-.71.88c-1.83.36-3.12,1.76-3.28,3.62-.06.67-.18,1.24-.95,1.41,0-.01-.02-.03-.03-.04-.14-.16-.12-.36-.12-.55,0-1.16,0-2.32,0-3.48,0-.23.04-.44.12-.65Z"/>
    <path class="cls-18" d="m33.84,90.49c1.16.43,2.51.78,3.73,1.42.44.23.53.82.33,1.27-.2.45-.68.76-1.16.62-1.23-.35-2.42-.81-3.6-1.3-.45-.18-.63-.75-.5-1.22.12-.46.58-.8,1.21-.8Z"/>
    <path class="cls-26" d="m51.99,100.4c.53-.85,1.35-.99,1.93-.35.21.24.2.51.22.79.05.06.05.13,0,.19-.18.46-.48.77-1.02.8-.55.03-.88-.27-1.12-.72-.04-.24-.04-.48-.01-.71Z"/>
    <path class="cls-28" d="m15.26,100.45c.28-.58.62-.81,1.16-.77.5.03.8.31.98.88.12.15.11.31,0,.46-.18.49-.5.8-1.05.81-.55.02-.87-.3-1.09-.76-.04-.21-.05-.41,0-.62Z"/>
    <path class="cls-31" d="m25.53,100.79c.71-.09,1.42-.01,2.13-.04,0,.1-.01.21-.02.31-.49,1-1.44,1.06-2.08.14-.17-.12-.15-.26-.04-.41Z"/>
    <path class="cls-24" d="m63.25,100.75s.01-.09.01-.13q.03-1,1.04-1.03s.05.03.06.07c-.02.46.14.9.06,1.36-.04.02-.08.02-.12,0-.28-.26-.64-.09-.96-.19-.04-.02-.07-.04-.1-.08Z"/>
    <path class="cls-21" d="m25.46,101.2c0-.14,0-.29.01-.43.02,0,.04,0,.06.01.01.14.03.27.04.41-.04,0-.07,0-.11,0Z"/>
    <path class="cls-33" d="m64.35,101.03s.05,0,.07,0c-.11,1.16-.35,2.28-1.14,3.21,0-.79-.01-1.59-.02-2.38.01-.02.02-.04.03-.05.46-.11.79-.4,1.06-.76Z"/>
    <path class="cls-25" d="m62.21,101.19c0-.06,0-.13.01-.19.07-.27.28-.26.49-.25.18,0,.36,0,.53,0,0,0,.04,0,.04,0,.18.35.19.7,0,1.05,0,0-.02.04-.02.04-.49,0-.71-.41-1.05-.65Z"/>
    <path class="cls-15" d="m34.67,105.57c0,.21,0,.42,0,.63-.14-.21-.14-.42,0-.63Z"/>
    <path class="cls-22" d="m46.04,97.11c0,1.56,0,3.12,0,4.68-.63.08-1.2-.31-1.22-.93-.05-1.39.32-2.66,1.22-3.75Z"/>
    <path class="cls-30" d="m63.28,101.8c0-.35,0-.7,0-1.05.26,0,.52,0,.78,0,.2,0,.3.07.28.27-.19.57-.48.78-1.07.78Z"/>
  </g>
  <polyline class="cls-6" points="197.18 75.07 182.37 75.07 180.44 75.07 179.09 75.07 178.56 75.07 95.59 75.07 95.05 75.07 93.69 75.07 93.17 75.07 82.16 75.07"/>
  <line class="cls-6" x1="78.85" y1="76.81" x2="197.18" y2="76.81"/>
  <line class="cls-6" x1="77.35" y1="81.06" x2="195.67" y2="81.06"/>
  <line class="cls-6" x1="77.35" y1="82.88" x2="195.67" y2="82.88"/>
  <polygon class="cls-5" points="83.71 81.06 87.1 75.07 89.64 75.07 86.22 81.06 83.71 81.06"/>
  <polygon class="cls-5" points="94.83 81.06 98.22 75.07 100.76 75.07 97.34 81.06 94.83 81.06"/>
  <polygon class="cls-5" points="105.95 81.06 109.34 75.07 111.88 75.07 108.46 81.06 105.95 81.06"/>
  <polygon class="cls-5" points="117.07 81.06 120.46 75.07 123 75.07 119.58 81.06 117.07 81.06"/>
  <polygon class="cls-5" points="128.19 81.06 131.58 75.07 134.12 75.07 130.7 81.06 128.19 81.06"/>
  <polygon class="cls-5" points="139.31 81.06 142.71 75.07 145.24 75.07 141.82 81.06 139.31 81.06"/>
  <polygon class="cls-5" points="150.43 81.06 153.83 75.07 156.36 75.07 152.94 81.06 150.43 81.06"/>
  <polygon class="cls-5" points="161.55 81.06 164.95 75.07 167.48 75.07 164.06 81.06 161.55 81.06"/>
  <polygon class="cls-5" points="172.67 81.06 176.07 75.07 178.6 75.07 175.18 81.06 172.67 81.06"/>
  <polygon class="cls-5" points="183.79 81.06 187.19 75.07 189.72 75.07 186.3 81.06 183.79 81.06"/>
  <rect class="cls-1" x="119.5" y="53.21" width="59.44" height="18.51"/>
  <rect class="cls-1" x="163.5" y="50.74" width="11.25" height="2.47"/>
  <rect class="cls-9" x="137.82" y="51.97" width="22.35" height="1.24" transform="translate(297.98 105.18) rotate(180)"/>
  <rect class="cls-1" x="137.82" y="50.74" width="5.23" height="2.47" transform="translate(280.87 103.95) rotate(180)"/>
  <rect class="cls-1" x="132.77" y="50.74" width="2.52" height="2.47"/>
  <rect class="cls-4" x="133.46" y="46.77" width="1.14" height="3.97"/>
  <polyline class="cls-1" points="107.15 78.39 186.97 78.39 186.97 71.72 97.1 71.72 97.1 78.39 102.7 78.39"/>
  <rect class="cls-2" x="101.02" y="50.74" width="18.33" height="20.99" transform="translate(220.38 122.46) rotate(180)"/>
  <rect class="cls-5" x="111.06" y="54.3" width="4.61" height="6.93" transform="translate(226.72 115.53) rotate(180)"/>
  <rect class="cls-5" x="107.16" y="54.3" width="2.3" height="6.93" transform="translate(216.62 115.53) rotate(180)"/>
  <rect class="cls-5" x="103.18" y="54.3" width="2.3" height="6.93" transform="translate(208.66 115.53) rotate(180)"/>
  <rect class="cls-1" x="100.07" y="46.59" width="20.25" height="4.15" transform="translate(220.38 97.32) rotate(180)"/>
  <rect class="cls-2" x="119.5" y="63.49" width="65.1" height="8.24"/>
  <rect class="cls-2" x="119.5" y="63.49" width="5.32" height="8.24"/>
  <rect class="cls-2" x="124.82" y="63.49" width="10.46" height="8.24" transform="translate(260.11 135.21) rotate(180)"/>
  <rect class="cls-2" x="135.29" y="63.49" width="10.46" height="8.24" transform="translate(281.04 135.21) rotate(180)"/>
  <rect class="cls-2" x="145.73" y="63.49" width="10.46" height="8.24" transform="translate(301.92 135.21) rotate(180)"/>
  <line class="cls-6" x1="97.1" y1="73.84" x2="186.97" y2="73.84"/>
  <rect class="cls-1" x="187.54" y="73.37" width="1.46" height="2.42"/>
  <rect class="cls-1" x="189" y="72.73" width="2.09" height="3.69" transform="translate(380.1 149.15) rotate(180)"/>
  <rect class="cls-1" x="82.56" y="53.16" width="7.56" height="18.51"/>
  <rect class="cls-1" x="82.56" y="50.68" width="3.52" height="2.47"/>
  <rect class="cls-1" x="82.56" y="71.67" width="11.92" height="6.66"/>
  <rect class="cls-2" x="82.56" y="63.43" width="9.56" height="8.24"/>
  <rect class="cls-2" x="82.56" y="63.43" width="2.07" height="8.24"/>
  <line class="cls-6" x1="94.48" y1="73.79" x2="82.56" y2="73.79"/>
  <rect class="cls-1" x="95.05" y="73.31" width="1.46" height="2.42"/>
  <path class="cls-1" d="m107.16,78.49c0,1.24-1,2.24-2.24,2.24s-2.23-1-2.23-2.24c0-.04,0-.07,0-.11h4.46s0,.07,0,.11Z"/>
  <path class="cls-3" d="m84.38,78.49c0,1.1-.78,2-1.82,2.2v-2.3h1.81s0,.07,0,.11Z"/>
  <path class="cls-1" d="m125.33,78.49c0,1.24-1,2.24-2.24,2.24s-2.23-1-2.23-2.24c0-.04,0-.07,0-.11h4.46s0,.07,0,.11Z"/>
  <path class="cls-1" d="m143.49,78.49c0,1.24-1,2.24-2.24,2.24s-2.23-1-2.23-2.24c0-.04,0-.07,0-.11h4.46s0,.07,0,.11Z"/>
  <path class="cls-1" d="m161.66,78.49c0,1.24-1,2.24-2.24,2.24s-2.23-1-2.23-2.24c0-.04,0-.07,0-.11h4.46s0,.07,0,.11Z"/>
  <path class="cls-1" d="m179.82,78.49c0,1.24-1,2.24-2.24,2.24s-2.23-1-2.23-2.24c0-.04,0-.07,0-.11h4.46s0,.07,0,.11Z"/>
  <rect class="cls-2" x="156.19" y="63.49" width="10.46" height="8.24" transform="translate(322.84 135.21) rotate(180)"/>
  <rect class="cls-2" x="166.65" y="63.49" width="10.46" height="8.24" transform="translate(343.77 135.21) rotate(180)"/>
  <rect class="cls-12" x="120.1" y="55.87" width="58.25" height="3.08"/>
  <rect class="cls-11" x="-1233.94" y="-282.12" width="1509.9" height="999.05"/>
</svg>