<?xml version="1.0" encoding="UTF-8"?>
<svg id="Calque_1" data-name="Calque 1" xmlns="http://www.w3.org/2000/svg" viewBox="0 0 128 128">
  <defs>
    <style>
      .cls-1 {
        fill: #f3d587;
      }

      .cls-2 {
        fill: #bfe6fc;
      }

      .cls-3 {
        fill: #87ccf3;
      }

      .cls-4, .cls-5 {
        stroke-width: 2px;
      }

      .cls-4, .cls-5, .cls-6, .cls-7 {
        stroke: #000;
      }

      .cls-4, .cls-5, .cls-8 {
        stroke-linecap: round;
        stroke-linejoin: round;
      }

      .cls-4, .cls-6 {
        fill: #fff;
      }

      .cls-5, .cls-8 {
        fill: none;
      }

      .cls-6, .cls-7 {
        stroke-miterlimit: 10;
      }

      .cls-7 {
        fill: #8987f3;
      }

      .cls-9 {
        font-family: MyriadPro-Regular, 'Myriad Pro';
        font-size: 10.14px;
      }

      .cls-8 {
        stroke: #fff;
        stroke-width: 8px;
      }
    </style>
  </defs>
  <g>
    <rect class="cls-3" x="11.85" y="38.56" width="108.76" height="68.67" rx="5.67" ry="5.67"/>
    <rect class="cls-5" x="11.85" y="38.56" width="108.76" height="68.67" rx="5.67" ry="5.67"/>
  </g>
  <polygon class="cls-2" points="91.37 39.53 52.16 106.14 60.56 106.14 98.69 39.53 91.37 39.53"/>
  <polygon class="cls-2" points="100.82 39.53 61.6 106.14 70.01 106.14 108.14 39.53 100.82 39.53"/>
  <g>
    <rect class="cls-1" x="18.9" y="65.3" width="14.64" height="14.64" rx="2.83" ry="2.83"/>
    <rect class="cls-5" x="18.9" y="65.3" width="14.64" height="14.64" rx="2.83" ry="2.83"/>
  </g>
  <rect x="18.95" y="95.67" width="66.41" height="2.55"/>
  <rect class="cls-4" x="38.33" y="75.11" width="21.81" height="5.11"/>
  <rect class="cls-4" x="18.53" y="46.73" width="36.57" height="9.53"/>
  <text class="cls-9" transform="translate(37.33 71.81)"><tspan x="0" y="0">0000 000 000 00</tspan></text>
  <rect class="cls-7" x="92.53" y="43.45" width="21.43" height="13.61"/>
  <path class="cls-6" d="m99.52,50.65h3.9c-.18,2.15-1.98,3.83-4.17,3.83-2.31,0-4.18-1.87-4.18-4.19s1.87-4.19,4.18-4.19,4.19,1.87,4.19,4.19h-3.92v.35Z"/>
  <path class="cls-6" d="m105.08,46.79h5.19c.94,0,1.7.76,1.7,1.7h0c0,.97-.79,1.76-1.76,1.76h-5.13v-3.46h0Z"/>
  <path class="cls-6" d="m105.08,50.65h5.19c.94,0,1.7.76,1.7,1.7h0c0,.97-.79,1.76-1.76,1.76h-5.13v-3.46h0Z"/>
  <rect class="cls-8" x="-301.87" y="-269.82" width="1168.31" height="629.76"/>
</svg>