<?xml version="1.0" encoding="UTF-8"?><svg id="Calque_1" xmlns="http://www.w3.org/2000/svg" viewBox="0 0 128 128.13"><defs><style>.cls-1{stroke:#251f2d;}.cls-1,.cls-2{fill:#87ccf3;stroke-miterlimit:10;}.cls-1,.cls-2,.cls-3,.cls-4{stroke-width:2px;}.cls-5{stroke:#e30613;stroke-width:8px;}.cls-5,.cls-3,.cls-4{stroke-linecap:round;stroke-linejoin:round;}.cls-5,.cls-4{fill:none;}.cls-2,.cls-3,.cls-4{stroke:#000;}.cls-3{fill:#f3d587;}</style></defs><rect class="cls-5" x="-88.9" y="-269.94" width="2655.08" height="1511.77"/><path class="cls-2" d="m114.94,75.79c-.96-13.58-5.36-27.18-17.21-35.1-3.87-2.57-8.32-4.1-12.93-4.95-.59-1.25-1.71-2.18-3.02-2.63-.45-.15-.94-.23-1.41-.23-.41,0-.82.06-1.22.14-.88.18-1.63.63-2.29,1.2-.18.16-.32.36-.43.61-1.02-.04-2.04-.04-3.06-.04-8.4.04-16.07,2.79-21.5,9.38-1.63,1.98-3.08,4.59-4.36,7.53-2.28,5.24-4.06,11.54-5.36,17.23-.04.16-.06.3-.1.47-.33,1.51-.65,2.94-.94,4.3-.04.02-.06.02-.1.04-.2.2-.41.41-.59.63-.8.86-1.57,1.69-2.34,2.57-4.22,4.69-8.18,9.61-11.89,14.68h-.02s-2,2.75-2.96,4.14c-.1.14-.2.29-.31.43-.92,1.35.35,2.76,1.65,2.92,9.1,1.06,17.66,3.75,25.96,7.46,7.14,3.18,14.64,6.67,22.66,5.77,13.34-1.49,21.13-12.46,26.67-23.7.78-1.53,1.51-3.08,2.18-4.61,0,0,0,0,0,0,.04-.02.1-.02.14-.04,1.33-.29,2.63-.61,3.94-.96,1.67-.45,3.34-.96,5-1.51,1.36-.45,2.71-.94,4.04-1.47-.04-1.43-.1-2.85-.21-4.28Z"/><path class="cls-1" d="m102.04,84.05c-48.45-.91-60.92-10.34-60.92-10.34"/><path class="cls-2" d="m76.44,34.84s2.58,1.97,8.36.9"/><path class="cls-2" d="m80.05,35.97s-26.56,9.64-26.38,42.63"/><path class="cls-2" d="m81.6,36.06s17.74,20.59,20.58,47.95"/><circle class="cls-3" cx="27.24" cy="28.13" r="9.1"/><line class="cls-4" x1="27.24" y1="44.34" x2="27.24" y2="39.21"/><line class="cls-4" x1="15.78" y1="39.59" x2="19.4" y2="35.97"/><line class="cls-4" x1="11.03" y1="28.13" x2="16.15" y2="28.13"/><line class="cls-4" x1="15.78" y1="16.67" x2="19.4" y2="20.3"/><line class="cls-4" x1="27.24" y1="11.93" x2="27.24" y2="17.05"/><line class="cls-4" x1="38.7" y1="16.67" x2="35.07" y2="20.3"/><line class="cls-4" x1="43.44" y1="28.13" x2="38.32" y2="28.13"/><line class="cls-4" x1="38.7" y1="39.59" x2="35.07" y2="35.97"/><line class="cls-4" x1="38.7" y1="39.59" x2="35.07" y2="35.97"/><line class="cls-4" x1="27.24" y1="44.34" x2="27.24" y2="39.21"/><line class="cls-4" x1="15.78" y1="39.59" x2="19.4" y2="35.97"/><line class="cls-4" x1="11.03" y1="28.13" x2="16.15" y2="28.13"/><line class="cls-4" x1="15.78" y1="16.67" x2="19.4" y2="20.3"/><line class="cls-4" x1="27.24" y1="11.93" x2="27.24" y2="17.05"/><line class="cls-4" x1="38.7" y1="16.67" x2="35.07" y2="20.3"/><line class="cls-4" x1="43.44" y1="28.13" x2="38.32" y2="28.13"/></svg>