<?xml version="1.0" encoding="UTF-8"?>
<svg id="Calque_1" data-name="Calque 1" xmlns="http://www.w3.org/2000/svg" viewBox="0 0 128 128">
  <defs>
    <style>
      .cls-1 {
        fill: #222221;
      }

      .cls-2 {
        fill: #f3d587;
      }

      .cls-2, .cls-3, .cls-4, .cls-5, .cls-6, .cls-7, .cls-8 {
        stroke-width: 2px;
      }

      .cls-2, .cls-3, .cls-4, .cls-5, .cls-8 {
        stroke: #000;
      }

      .cls-2, .cls-3, .cls-7, .cls-8 {
        stroke-miterlimit: 10;
      }

      .cls-3 {
        fill: #eb574d;
      }

      .cls-4 {
        fill: #87ccf3;
      }

      .cls-4, .cls-5, .cls-6 {
        stroke-linecap: round;
        stroke-linejoin: round;
      }

      .cls-5 {
        fill: #fff;
      }

      .cls-6 {
        stroke: #222221;
      }

      .cls-6, .cls-7, .cls-8 {
        fill: none;
      }

      .cls-7 {
        stroke: #251f2d;
      }
    </style>
  </defs>
  <g>
    <path class="cls-4" d="m88.64,101.48l.38,8.65h-47.31c.77-4.1,1.78-8.1,1.78-8.1-3.43-2.17-7.3-5.59-10.79-9l7.36-8.84c3.98,1.6,7.9,2.81,10.59,3.24.79.12,1.47.18,2.01.15l26.95.38c.54-.18,1.3-.42,2.23-.73,2.73-.91,6.85-2.38,11.02-4.09l5.76,10.25c-3.3,3.11-6.84,6.12-9.96,8.09Z"/>
    <path class="cls-5" d="m93.21,74.55c.06,1.72-1.07,3.42-2.68,4.03-.98.37-2.08.32-3.05-.07-.95,2.7-2.4,5.22-4.31,7.35-5.96,6.67-16.1,9.04-24.57,6.15-6.54-2.23-11.88-7.38-14.79-13.66-.9.3-1.89.32-2.78-.02-1.61-.61-2.74-2.31-2.67-4.04.01-.51.13-1.01.26-1.51.09-.35.2-.71.38-1.03.57-.96,1.78-1.36,2.89-1.22.06-1.67.27-4.22.95-7.07.36-1.53.86-3.15,1.55-4.76,2.77-6.54,8.59-12.98,20.69-13.18,0,0,13.53-1.42,20.22,9.83.61,1.03,1.13,2.1,1.57,3.21.65,1.63,1.12,3.33,1.43,5.07.45,2.42.59,4.92.48,7.38.18-.07.35-.12.51-.16,1.21-.3,2.64.09,3.27,1.16.18.32.29.67.38,1.03.14.49.25,1,.27,1.51Z"/>
    <path class="cls-5" d="m32.7,93.02c-5.81-5.68-10.56-11.36-10.56-11.36-1.25-.77-2.34-1.85-3.15-3.13-.4-.63-.73-1.43-.46-2.14.03-.08.07-.16.15-.19.14-.06.28.08.36.21.28.41.57.83.85,1.24-.33-.47-.67-.96-.81-1.53-.14-.57-.04-1.26.39-1.64.28.51.62.98,1.01,1.39-.54-.57-.77-1.45-.58-2.25.04-.16.1-.34.24-.42.23-.13.5.07.68.28.42.48.79,1.03,1.08,1.61-.33-.51-.56-1.11-.65-1.73-.04-.27-.05-.57.06-.82.11-.25.36-.45.62-.4.13.03.25.12.35.22.74.71,1.11,1.76,1.71,2.6.08.11.18.22.3.22.1,0,.19-.07.25-.16.27-.33.34-.79.52-1.18.18-.39.62-.74.97-.53.25.14.32.48.36.78.09.81.22,1.54.04,2.34,2.45,2.54,8.07,5.5,13.61,7.73l-7.35,8.85Z"/>
    <path class="cls-5" d="m98.6,93.38l-5.76-10.25c5.51-2.25,11.06-4.95,13.41-7.4-.18-.79-.04-1.52.04-2.34.04-.3.11-.64.35-.77.37-.2.8.14.98.53.19.39.26.86.53,1.18.07.08.15.15.24.15.14,0,.23-.11.31-.22.6-.84.96-1.9,1.71-2.61.09-.1.22-.18.35-.22.24-.04.5.15.61.41.11.26.1.54.05.83-.05.42-.19.84-.38,1.24.24-.39.52-.77.81-1.13.19-.2.45-.41.69-.29.14.08.2.26.24.42.18.8-.05,1.68-.58,2.25.39-.42.73-.88,1-1.4.43.38.53,1.07.39,1.64-.09.43-.31.81-.56,1.17.19-.3.39-.58.6-.88.1-.12.23-.27.37-.22.07.04.11.12.15.2.27.71-.07,1.51-.46,2.13-.81,1.29-1.9,2.38-3.15,3.14,0,0-5.55,6.41-11.97,12.42Z"/>
    <path class="cls-1" d="m52.91,72.04c0,.81-.56,1.47-1.24,1.47s-1.24-.66-1.24-1.47.56-1.47,1.24-1.47,1.24.66,1.24,1.47Z"/>
    <path class="cls-1" d="m81.14,72.04c0,.81-.56,1.47-1.24,1.47s-1.24-.66-1.24-1.47.56-1.47,1.24-1.47,1.24.66,1.24,1.47Z"/>
    <path class="cls-6" d="m66.25,76.83c.66-.32,1.13-1.03,1.11-1.76-.02-.73-.59-1.43-1.31-1.54-.4-.06-.8.04-1.19.14"/>
  </g>
  <g>
    <path class="cls-2" d="m45.2,38.31c.51-7.23,2.85-14.47,9.16-18.69,2.06-1.37,4.43-2.18,6.88-2.64.31-.66.91-1.16,1.61-1.4.24-.08.5-.12.75-.12.22,0,.43.03.65.08.47.1.87.34,1.22.64.1.09.17.19.23.32.54-.02,1.09-.02,1.63-.02,4.47.02,8.56,1.49,11.45,4.99.87,1.05,1.64,2.44,2.32,4.01,1.22,2.79,2.16,6.15,2.86,9.18.02.09.03.16.05.25.17.8.35,1.56.5,2.29.02.01.03.01.06.02.11.11.22.22.31.34.42.46.83.9,1.25,1.37,2.25,2.5,4.35,5.11,6.33,7.82h.01s1.07,1.47,1.57,2.2c.05.08.11.15.16.23.49.72-.18,1.47-.88,1.55-4.84.56-9.4,2-13.82,3.97-3.8,1.69-7.8,3.55-12.06,3.07-7.1-.79-11.25-6.63-14.2-12.62-.41-.81-.8-1.64-1.16-2.45,0,0,0,0,0,0-.02-.01-.05-.01-.08-.02-.71-.15-1.4-.33-2.1-.51-.89-.24-1.78-.51-2.66-.8-.73-.24-1.44-.5-2.15-.78.02-.76.05-1.52.11-2.28Z"/>
    <path class="cls-7" d="m52.08,42.71c25.8-.48,32.43-5.5,32.43-5.5"/>
    <path class="cls-3" d="m65.7,16.51s-1.37,1.05-4.45.48"/>
    <path class="cls-8" d="m63.78,17.11s14.14,5.13,14.05,22.7"/>
    <path class="cls-8" d="m62.96,17.16s-12.53,6.99-10.96,25.53"/>
  </g>
  <g>
    <path class="cls-8" d="m41.21,35.02s-9.02,8.95-4.36,18.98"/>
    <polygon points="27.35 50.16 28.3 48.4 36.96 53.12 41.03 44.14 42.85 44.97 37.89 55.9 27.35 50.16"/>
  </g>
</svg>