<?xml version="1.0" encoding="UTF-8"?>
<svg id="Calque_1" data-name="Calque 1" xmlns="http://www.w3.org/2000/svg" viewBox="0 0 200.13 128">
  <defs>
    <style>
      .cls-1, .cls-2, .cls-3, .cls-4 {
        stroke: #000;
      }

      .cls-1, .cls-2, .cls-3, .cls-4, .cls-5 {
        stroke-linecap: round;
        stroke-linejoin: round;
      }

      .cls-1, .cls-3, .cls-5 {
        fill: none;
      }

      .cls-2 {
        fill: #d6d6d6;
      }

      .cls-2, .cls-3, .cls-4 {
        stroke-width: 2px;
      }

      .cls-4 {
        fill: #fab0b4;
      }

      .cls-5 {
        stroke: #fff;
        stroke-width: 8px;
      }
    </style>
  </defs>
  <path class="cls-2" d="m21.52,72.73h107.93v13.08c0,5.72-4.65,10.37-10.37,10.37H31.88c-5.72,0-10.37-4.65-10.37-10.37v-13.08h0Z"/>
  <path class="cls-1" d="m27.89,82.36s.3,3.24,2.23,4.93c1.93,1.69,5.01,2.28,5.01,2.28"/>
  <rect class="cls-4" x="129.45" y="72.73" width="51.64" height="8.47"/>
  <rect class="cls-3" x="129.45" y="72.73" width="10.17" height="8.47"/>
  <path class="cls-3" d="m61.54,25.04l-1.9,2.92c-1.61,2.47-1.52,5.69.23,8.07h0c1.7,2.31,1.84,5.42.35,7.88l-.79,1.3c-1.49,2.45-1.35,5.56.35,7.88l.06.08c1.72,2.34,1.84,5.49.3,7.95l-1.39,2.23"/>
  <path class="cls-3" d="m74.57,25.04l-1.9,2.92c-1.61,2.47-1.52,5.69.23,8.07h0c1.7,2.31,1.84,5.42.35,7.88l-.79,1.3c-1.49,2.45-1.35,5.56.35,7.88l.06.08c1.72,2.34,1.84,5.49.3,7.95l-1.39,2.23"/>
  <path class="cls-3" d="m87.61,25.04l-1.9,2.92c-1.61,2.47-1.52,5.69.23,8.07h0c1.7,2.31,1.84,5.42.35,7.88l-.79,1.3c-1.49,2.45-1.35,5.56.35,7.88l.06.08c1.72,2.34,1.84,5.49.3,7.95l-1.39,2.23"/>
  <rect class="cls-5" x="-5243.13" y="-200.44" width="6562.35" height="1176.7"/>
</svg>