<?xml version="1.0" encoding="UTF-8"?>
<svg id="Calque_1" data-name="Calque 1" xmlns="http://www.w3.org/2000/svg" viewBox="0 0 128 128">
  <defs>
    <style>
      .cls-1 {
        fill: #002186;
      }

      .cls-2 {
        fill: #e7edeb;
      }

      .cls-3 {
        fill: #fff;
      }

      .cls-4 {
        fill: #ffc839;
      }

      .cls-5 {
        fill: #92a2ff;
      }

      .cls-6 {
        fill: none;
        stroke: #fff;
        stroke-linecap: round;
        stroke-linejoin: round;
        stroke-width: 8px;
      }
    </style>
  </defs>
  <g>
    <rect class="cls-2" x="11.57" y="51.3" width="27.26" height="27.26" transform="translate(24.22 -4.71) rotate(20.41)"/>
    <polygon class="cls-5" points="51.13 78.87 24.1 54.84 47.02 29.11 74.05 53.14 51.13 78.87"/>
    <rect class="cls-1" x="56.23" y="31.47" width="47.96" height="47.6" transform="translate(-17.08 50.51) rotate(-31.77)"/>
    <path class="cls-3" d="m39.97,101.66v10.09s-.05,0-.07,0v-10.03s.05-.04.07-.06Z"/>
    <path class="cls-4" d="m57.21,64.75c3.11-4.66,6.06-9.06,9.1-13.61-.87-1.15-1.77-2.29-2.62-3.46-2.91-3.99-5.64-8.07-6.91-12.96-.18-.69-.93-1.36-1.58-1.76-5.91-3.65-11.81-7.27-16.75-12.27-4.02-4.07-7.81-8.29-10.67-13.9.98,0,1.72-.18,2.33.03,10.73,3.6,21.49,7.12,32.13,10.98,2.11.76,4.08,2.56,5.55,4.34,3.69,4.48,7.12,9.19,10.53,13.9.92,1.27,1.67,1.48,3.02.78,1.76-.92,3.64-1.63,5.91-2.63-.4,2.34-.66,4.3-1.09,6.22-.32,1.42.04,2.23,1.39,2.91,3.17,1.59,6.15,3.58,9.38,5,5.28,2.32,8.71,6.41,11.77,11.05,5.5,8.35,9.16,17.43,11.34,27.14.19.85.19,1.74.28,2.61l-.63.62c-3.34-1.95-6.86-3.64-9.96-5.9-3.79-2.77-7.53-5.73-10.71-9.15-2.85-3.06-4.89-6.87-7.36-10.28-.48-.66-1.29-1.46-2-1.52-5.03-.44-9.64-1.94-13.8-4.97-4.8,4.07-9.54,8.09-14.81,12.57.2-2.05.33-3.44.49-5.15-1.12.26-2.85-.92-4.34-.58"/>
    <g>
      <path class="cls-1" d="m16.17,97.46c2.08-2.12,4.72-3.18,7.93-3.18,4.3,0,7.43,1.42,9.42,4.27,1.09,1.6,1.68,3.2,1.76,4.81h-5.39c-.34-1.24-.78-2.17-1.32-2.8-.96-1.12-2.38-1.68-4.27-1.68s-3.44.79-4.54,2.37c-1.11,1.58-1.66,3.82-1.66,6.71s.59,5.06,1.76,6.5,2.65,2.16,4.46,2.16,3.26-.62,4.23-1.85c.54-.66.98-1.66,1.34-2.99h5.35c-.46,2.81-1.64,5.1-3.54,6.86-1.9,1.76-4.33,2.64-7.3,2.64-3.67,0-6.56-1.19-8.66-3.57-2.1-2.39-3.15-5.67-3.15-9.83,0-4.5,1.2-7.97,3.58-10.41Z"/>
      <path class="cls-1" d="m56.13,95.33c1.81.59,3.27,1.69,4.39,3.27.9,1.28,1.51,2.67,1.84,4.16s.49,2.92.49,4.27c0,3.43-.69,6.33-2.07,8.71-1.87,3.21-4.75,4.81-8.65,4.81h-11.12v-25.79h11.12c1.6.02,2.93.21,3.99.56Zm-9.88,3.92v16.83h4.98c2.55,0,4.32-1.25,5.33-3.76.55-1.38.82-3.02.82-4.92,0-2.62-.41-4.64-1.24-6.05-.82-1.41-2.46-2.11-4.91-2.11h-4.98Z"/>
      <path class="cls-1" d="m68.3,120.56v-25.79h5.35v9.83h10.03v-9.83h5.35v25.79h-5.35v-11.51h-10.03v11.51h-5.35Z"/>
      <path class="cls-1" d="m99.53,112.6c.17,1.18.5,2.06.98,2.64.89,1.06,2.42,1.59,4.59,1.59,1.3,0,2.35-.14,3.16-.42,1.54-.54,2.3-1.53,2.3-2.99,0-.85-.38-1.51-1.13-1.98-.75-.45-1.95-.86-3.58-1.21l-2.79-.61c-2.75-.61-4.63-1.27-5.66-1.98-1.74-1.19-2.61-3.05-2.61-5.58,0-2.31.85-4.23,2.55-5.76,1.7-1.53,4.2-2.29,7.49-2.29,2.75,0,5.1.72,7.04,2.16,1.94,1.44,2.96,3.53,3.06,6.27h-5.18c-.1-1.55-.79-2.65-2.08-3.31-.86-.43-1.93-.65-3.21-.65-1.42,0-2.56.28-3.41.84s-1.27,1.34-1.27,2.34c0,.92.42,1.61,1.26,2.06.54.3,1.68.66,3.43,1.07l4.53,1.07c1.98.47,3.47,1.09,4.46,1.87,1.54,1.21,2.31,2.97,2.31,5.27s-.91,4.31-2.73,5.87c-1.82,1.56-4.39,2.34-7.72,2.34s-6.07-.77-8.01-2.3c-1.95-1.53-2.92-3.64-2.92-6.33h5.14Z"/>
    </g>
  </g>
  <rect class="cls-6" x="-207.29" y="-260.19" width="1951.05" height="522.43"/>
</svg>