<?xml version="1.0" encoding="UTF-8"?>
<svg id="Calque_1" data-name="Calque 1" xmlns="http://www.w3.org/2000/svg" viewBox="0 0 128 128.13">
  <defs>
    <style>
      .cls-1, .cls-2, .cls-3, .cls-4, .cls-5, .cls-6 {
        stroke-linecap: round;
        stroke-linejoin: round;
      }

      .cls-1, .cls-2, .cls-3, .cls-4, .cls-5, .cls-7 {
        stroke: #000;
      }

      .cls-1, .cls-8 {
        fill: #bfe6fc;
      }

      .cls-2, .cls-4, .cls-6, .cls-7 {
        fill: none;
      }

      .cls-9 {
        fill: #ff6d75;
      }

      .cls-3 {
        fill: #d6d6d6;
      }

      .cls-3, .cls-4 {
        stroke-width: 2px;
      }

      .cls-5 {
        stroke-width: .98px;
      }

      .cls-6 {
        stroke: #fff;
        stroke-width: 8px;
      }

      .cls-7 {
        stroke-miterlimit: 10;
      }
    </style>
  </defs>
  <rect class="cls-4" x="9.02" y="16.12" width="107.09" height="95.88"/>
  <rect class="cls-3" x="16.08" y="78.51" width="32.96" height="33.5"/>
  <rect class="cls-3" x="16.08" y="78.51" width="16.48" height="33.5"/>
  <rect class="cls-2" x="16.08" y="33.34" width="12.7" height="12.7"/>
  <rect class="cls-2" x="36.34" y="33.34" width="12.7" height="12.7"/>
  <rect class="cls-2" x="56.14" y="33.34" width="12.7" height="12.7"/>
  <rect class="cls-2" x="76.1" y="33.34" width="12.7" height="12.7"/>
  <rect class="cls-2" x="96.04" y="33.34" width="12.7" height="12.7"/>
  <rect class="cls-2" x="56.14" y="51.36" width="12.7" height="12.7"/>
  <rect class="cls-2" x="76.1" y="51.36" width="12.7" height="12.7"/>
  <rect class="cls-2" x="96.04" y="51.36" width="12.7" height="12.7"/>
  <rect class="cls-2" x="56.14" y="69.39" width="12.7" height="12.7"/>
  <rect class="cls-2" x="76.1" y="69.39" width="12.7" height="12.7"/>
  <rect class="cls-2" x="96.04" y="69.39" width="12.7" height="12.7"/>
  <rect class="cls-3" x="9.02" y="16.12" width="107.09" height="9.73"/>
  <line class="cls-2" x1="29.11" y1="94.02" x2="29.11" y2="98.31"/>
  <line class="cls-2" x1="36.01" y1="94.02" x2="36.01" y2="98.31"/>
  <path class="cls-8" d="m17.76,41.27v-6.44h8.42v2.13s-3.03-1-4.77.88-1.74,3.43-1.74,3.43h-1.91Z"/>
  <path class="cls-8" d="m38.25,41.27v-6.44h8.42v2.13s-3.03-1-4.77.88-1.74,3.43-1.74,3.43h-1.91Z"/>
  <path class="cls-8" d="m57.74,41.27v-6.44h8.42v2.13s-3.03-1-4.77.88-1.74,3.43-1.74,3.43h-1.91Z"/>
  <path class="cls-8" d="m77.85,41.27v-6.44h8.42v2.13s-3.03-1-4.77.88-1.74,3.43-1.74,3.43h-1.91Z"/>
  <path class="cls-8" d="m97.82,41.27v-6.44h8.42v2.13s-3.03-1-4.77.88-1.74,3.43-1.74,3.43h-1.91Z"/>
  <path class="cls-8" d="m57.74,59.41v-6.44h8.42v2.13s-3.03-1-4.77.88c-1.74,1.88-1.74,3.43-1.74,3.43h-1.91Z"/>
  <path class="cls-8" d="m77.85,59.41v-6.44h8.42v2.13s-3.03-1-4.77.88c-1.74,1.88-1.74,3.43-1.74,3.43h-1.91Z"/>
  <path class="cls-8" d="m97.82,59.41v-6.44h8.42v2.13s-3.03-1-4.77.88c-1.74,1.88-1.74,3.43-1.74,3.43h-1.91Z"/>
  <path class="cls-8" d="m57.74,77.54v-6.44h8.42v2.13s-3.03-1-4.77.88c-1.74,1.88-1.74,3.43-1.74,3.43h-1.91Z"/>
  <path class="cls-8" d="m77.85,77.54v-6.44h8.42v2.13s-3.03-1-4.77.88c-1.74,1.88-1.74,3.43-1.74,3.43h-1.91Z"/>
  <path class="cls-8" d="m97.82,77.54v-6.44h8.42v2.13s-3.03-1-4.77.88c-1.74,1.88-1.74,3.43-1.74,3.43h-1.91Z"/>
  <rect class="cls-2" x="56.14" y="87.67" width="12.7" height="12.7"/>
  <rect class="cls-2" x="76.1" y="87.67" width="12.7" height="12.7"/>
  <rect class="cls-2" x="96.04" y="87.67" width="12.7" height="12.7"/>
  <path class="cls-8" d="m57.74,95.83v-6.44h8.42v2.13s-3.03-1-4.77.88c-1.74,1.88-1.74,3.43-1.74,3.43h-1.91Z"/>
  <path class="cls-8" d="m77.85,95.83v-6.44h8.42v2.13s-3.03-1-4.77.88c-1.74,1.88-1.74,3.43-1.74,3.43h-1.91Z"/>
  <path class="cls-8" d="m97.82,95.83v-6.44h8.42v2.13s-3.03-1-4.77.88c-1.74,1.88-1.74,3.43-1.74,3.43h-1.91Z"/>
  <circle class="cls-1" cx="98.36" cy="29.35" r="23.65"/>
  <g>
    <rect class="cls-9" x="30.57" y="65.58" width="3.45" height="9.85"/>
    <rect class="cls-9" x="30.57" y="65.58" width="3.44" height="9.85" transform="translate(-38.22 102.8) rotate(-90)"/>
  </g>
  <g>
    <path class="cls-7" d="m82.72,35.13l3.52-10.65s-.84-7.56,6.43-11.03c7.27-3.47,13.89-.84,17.5,4.69,3.61,5.54,1.83,10.7.61,12.58-1.22,1.88-2.11,4.27-2.11,4.27v10.7h-14.5v-3.71h-7.7v-6.8s-3.61-.05-3.75-.05Z"/>
    <path class="cls-7" d="m89.95,24.54c-.92-.46-1.08-2.48-.06-2.8,0,0-.8-1.32-.06-2.65.74-1.32,2.05-.95,2.05-.95,0,0,.23-2.21,2.39-2.33,1.48-.09,2.05,1.32,2.05,1.32,0,0,.51-2.33,2.84-2.14,1.7.14,1.88,1.89,1.88,1.89,0,0,1.43-1.45,3.14-.76,1.7.69,1.7,2.77,1.7,2.77,0,0,1.91-.74,2.73,1.01.8,1.7-1.08,3.15-1.08,3.15,0,0,1.43.28,1.7,1.58.28,1.32-1.02,1.85-1.02,1.85,0,0-8.11-.02-8.3-.01-1.65.11-1.88-1.94-1.88-1.94h-8.07Z"/>
    <path class="cls-7" d="m91,23.13s-.96-1.81,1.24-2.83"/>
    <path class="cls-7" d="m93.09,21.49s-.06-1.98,1.98-2.21,2.94-.4,3.45-1.64"/>
    <path class="cls-7" d="m97.95,18.72s1.75,1.19,3.56-.23"/>
    <path class="cls-7" d="m97.33,20.53s.17,1.53,2.32,1.02"/>
    <path class="cls-7" d="m99.59,20.13s.17,1.92,2.15,1.87,2.88-1.92,4.58,0"/>
    <path class="cls-7" d="m102.37,17.59s1.7.79.85,2.43"/>
    <path class="cls-7" d="m95.24,21.43s.23,2.32,2.94,1.75c2.17-.45,2.83,1.07,2.88,1.58"/>
    <path class="cls-7" d="m103.95,24.83s2.21.28,2.26-1.07"/>
  </g>
  <g>
    <path class="cls-5" d="m23.33,52.84c.79.76,1.23,1.63,1.31,2.6h-1.51c-.17-.74-.5-1.32-1-1.75-.5-.43-1.21-.65-2.11-.65-1.11,0-2,.4-2.68,1.19-.68.79-1.02,2-1.02,3.64,0,1.34.31,2.42.92,3.26.61.83,1.53,1.25,2.75,1.25,1.12,0,1.97-.44,2.56-1.31.31-.46.54-1.07.7-1.82h1.51c-.13,1.2-.57,2.21-1.32,3.03-.9.98-2.11,1.47-3.63,1.47-1.31,0-2.41-.4-3.31-1.21-1.17-1.06-1.76-2.71-1.76-4.93,0-1.69.44-3.07,1.32-4.15.95-1.17,2.27-1.76,3.94-1.76,1.43,0,2.54.38,3.33,1.14Z"/>
    <path class="cls-5" d="m27.9,52h2.22l3.28,9.66,3.26-9.66h2.2v11.42h-1.48v-6.74c0-.23,0-.62.02-1.16s.02-1.12.02-1.73l-3.26,9.64h-1.53l-3.29-9.64v.35c0,.28,0,.71.02,1.28s.02.99.02,1.26v6.74h-1.48v-11.42Z"/>
    <path class="cls-5" d="m42.55,52h5.11c1.01,0,1.83.29,2.45.86s.93,1.38.93,2.41c0,.89-.28,1.67-.83,2.33s-1.4.99-2.55.99h-3.57v4.83h-1.55v-11.42Zm6,1.57c-.34-.16-.81-.24-1.4-.24h-3.06v3.96h3.06c.69,0,1.25-.15,1.68-.44s.64-.82.64-1.56c0-.84-.31-1.41-.93-1.71Z"/>
  </g>
  <rect class="cls-6" x="-207.29" y="-55.42" width="1951.05" height="522.43"/>
</svg>