<?xml version="1.0" encoding="UTF-8"?>
<svg id="Calque_1" data-name="Calque 1" xmlns="http://www.w3.org/2000/svg" viewBox="0 0 128 128">
  <defs>
    <style>
      .cls-1 {
        fill: #87ccf3;
      }

      .cls-1, .cls-2, .cls-3, .cls-4, .cls-5, .cls-6, .cls-7, .cls-8, .cls-9, .cls-10, .cls-11, .cls-12 {
        stroke: #000;
      }

      .cls-1, .cls-2, .cls-3, .cls-4, .cls-5, .cls-6, .cls-7, .cls-8, .cls-9, .cls-11, .cls-13 {
        stroke-linecap: round;
        stroke-linejoin: round;
      }

      .cls-2 {
        fill: #fce9b9;
      }

      .cls-3 {
        fill: #f3d587;
      }

      .cls-4, .cls-14 {
        fill: #f387d5;
      }

      .cls-5, .cls-6, .cls-8, .cls-10, .cls-11, .cls-13, .cls-12 {
        fill: none;
      }

      .cls-6 {
        stroke-width: .75px;
      }

      .cls-15 {
        fill: #76ac75;
      }

      .cls-7 {
        fill: #fff;
      }

      .cls-7, .cls-8, .cls-10 {
        stroke-width: 2px;
      }

      .cls-9 {
        stroke-width: .25px;
      }

      .cls-10, .cls-12 {
        stroke-miterlimit: 10;
      }

      .cls-11 {
        stroke-width: .5px;
      }

      .cls-13 {
        stroke: #fff;
        stroke-width: 8px;
      }
    </style>
  </defs>
  <polygon class="cls-10" points="106.24 39.31 106.24 123.88 5.76 123.88 5.76 39.31 56.03 16.67 106.24 39.31"/>
  <polygon class="cls-8" points="82.73 69.44 56 69.44 29.28 69.44 29.28 59.26 56 59.26 82.73 59.26 82.73 69.44"/>
  <rect class="cls-8" x="36.75" y="77.39" width="38.51" height="46.35"/>
  <line class="cls-8" x1="56" y1="77.39" x2="56" y2="123.74"/>
  <line class="cls-5" x1="52.63" y1="101.27" x2="49.36" y2="101.27"/>
  <line class="cls-5" x1="62.64" y1="101.27" x2="59.37" y2="101.27"/>
  <path class="cls-7" d="m123.58,36.18v.39c0,17.4-14.12,31.52-31.53,31.52-8.66,0-16.5-3.49-22.19-9.14-1.33-1.32-2.54-2.75-3.6-4.28-1.44-2.02-2.62-4.22-3.54-6.55-1.41-3.57-2.19-7.47-2.19-11.55,0-2.11.21-4.17.6-6.16,2.69-13.6,14.13-24.06,28.21-25.25.34-.03.68-.06,1.03-.08.55-.03,1.12-.04,1.68-.04,16.77,0,30.49,13.1,31.47,29.62.03.5.05,1.01.06,1.52Z"/>
  <g>
    <path class="cls-6" d="m116.04,30.94s-1.89,2.54-2.52,3.91c-.2.44-.84,1.35-1.64,2.4"/>
    <path class="cls-6" d="m113.3,40.48c.09-.14.17-.27.25-.37.95-1.38,3.86-8.31,3.86-8.31"/>
    <path class="cls-5" d="m106.61,43.54s.32-.05.69-.46"/>
    <path class="cls-5" d="m102.17,43.28c-.05-.03-.11-.07-.16-.11"/>
    <path class="cls-6" d="m94.63,33.12s.18.08.42,1.22c.24,1.14,1.12,4.03,1.65,5.46.25.66.75,1.69,1.29,2.7"/>
    <path class="cls-6" d="m100.63,41.78c-.57-.69-1.13-1.48-1.57-2.15-.89-1.38-2.63-6.22-2.96-7.15h0c-.03-.1-.05-.15-.05-.15"/>
    <path class="cls-5" d="m107.1,41.2s-.29,1.06-.69,1.7-1.13,1.27-1.73,1.35-1.59-.65-2.17-1.26-.88-1.49-.88-1.49"/>
    <line class="cls-5" x1="106.51" y1="44.38" x2="106.21" y2="43.4"/>
    <path class="cls-11" d="m104.16,38.81s-.15.73-.07.95.46.28.52.41-.12.39-.27.44"/>
    <path class="cls-5" d="m103.31,35.83s.43.35.59.9.28,1.24.9,1.27.89-.27.89-.27c0,0-.03.6.25.82s.8.14.8.14"/>
    <path class="cls-5" d="m103.38,36.07s-1.18.56-1.08,1.14.12,1.27-.24,1.65-1.12,1.57-1.12,1.57c-.22.09-.37.61-.24.98.17.49.87.63.87.63"/>
    <path class="cls-5" d="m107.03,41.44s.69-.17.85-.66c.12-.38-.05-.89-.28-.97,0,0,.26-.89.68-1.68.44.24.89.03.83-.25-.23-.17-.91-.68-1.06-.99-.17-.35-.6-1.76-.46-1.88s.14-.48.14-.48c0,0-.26.02-.52-.01s-.27.02-1.13-.53c-1.44-.93-3.36.56-3.36.56,0,0-.97-.08-1.41.2s-1.13.95-1.17,1.09-.88,1.1-.88,1.1c0,0,.8.16.96.11s0,.86.1,1.29.62,2.11.62,2.11"/>
    <path class="cls-11" d="m103.3,41.61s.49.65,1.15.57,1.11-.34,1.25-.76"/>
    <circle class="cls-9" cx="102.92" cy="39.46" r=".27"/>
    <circle class="cls-9" cx="105.55" cy="39.23" r=".27"/>
    <path class="cls-11" d="m101.76,38.33s.25-.19.6-.27.79.14.79.14"/>
    <path class="cls-6" d="m116.03,30.94s.73-1.28.76-1.6-.3-1.85-.37-2.07.33-.4.46-.14.53,1.4.59,1.59.38.55.49.93"/>
    <path class="cls-6" d="m117.4,31.8s.76-.45.95-.71.41-.5.41-.5l1.62-.43s.66-.36.15-.48c-.51-.11-1.03.16-1.24.05s1.11-1.45,1.17-1.63-.18-.39-.37-.22-1.43,1.1-1.43,1.1l1.33-1.45s.21-.43-.05-.56-1.59,1.53-1.59,1.53l.88-1.44s.22-.81-.12-.69-1.62,2.33-1.62,2.33"/>
    <path class="cls-6" d="m96.05,32.33c-.13-.37-.46-1.29-.44-1.54.03-.32.59-1.78.69-1.99s-.27-.45-.44-.21-.74,1.3-.83,1.48-.46.48-.63.85"/>
    <path class="cls-6" d="m94.62,33.13s-.68-.57-.83-.85-.33-.55-.33-.55l-1.53-.68s-.59-.46-.07-.5.99.32,1.21.25-.87-1.6-.9-1.79.24-.36.4-.16,1.24,1.31,1.24,1.31l-1.08-1.64s-.14-.46.14-.54,1.33,1.76,1.33,1.76l-.64-1.56s-.09-.83.23-.66,1.24,2.56,1.24,2.56"/>
    <path class="cls-1" d="m106.31,64.07s-4.27-13.67-5.2-15.25c-.92-1.58-3.82-5.39-3.82-5.39l.7-.93,1.5-1.99s.54.62,1.14,1.28c0,0,.02.01.03.02.35.43.71.81,1.06,1.11.04.04.08.08.13.11.06.05.12.1.18.15.06.05.12.09.16.11.35.23.65.32.87.2l.58.5s-.6.44-.53.76c.07.32.73,1.79,1.96,1.79,1.26,0,1.6-.59,1.95-1.35.33-.74.3-1.99.29-2.11h0c.05-.06.12-.14.18-.22.01-.02.03-.05.05-.07l.61-.78c.06-.07.11-.14.18-.22.06-.07.12-.15.18-.22.11-.14.24-.3.36-.46.9-1.13,2.07-2.59,3.02-3.85l1.42,3.24.81,1.87-2.43,4.25s1.58,4.74,2.38,6c.79,1.26,2.02,3.06,2.02,3.06,0,0-.13.12-.34.32l-.99,1.21c-2.12,2.6-4.7,4.77-7.62,6.42l-.82.46Z"/>
    <path class="cls-5" d="m101.71,42.91c-.34-.3-.7-.68-1.06-1.11.36.41.76.81,1.06,1.11Z"/>
    <path class="cls-5" d="m103.05,43.49c-.23.12-.53.03-.87-.2.47.23.87.2.87.2Z"/>
    <path class="cls-5" d="m111.88,37.24c-1.08,1.44-2.46,3.15-3.38,4.32l3.38-4.32Z"/>
  </g>
  <g>
    <path class="cls-2" d="m95.99,11.11c-.15,0-.29.05-.41.12-.32.18-.51.53-.55.95,0,0-3.59-1.13-7.11,1.46-2.27,1.66-3.07,4.5-3.36,6.3-.41-1.01-.63-2.1-.63-3.25,0-4.62,3.6-8.42,8.18-8.68h.01c.76.4,1.52.85,2.12,1.3,1.43,1.09,1.75,1.82,1.75,1.82Z"/>
    <path class="cls-3" d="m99.04,10.79l-1.65.99h-.01c-.39-.47-.92-.74-1.38-.68,0,0-.32-.73-1.75-1.82-.61-.45-1.36-.9-2.12-1.3.17-.02.34-.02.52-.02,2.54,0,4.82,1.09,6.39,2.83Z"/>
    <path class="cls-2" d="m101.34,16.67c0,.38-.02.74-.09,1.1-.27-.72-.61-1.49-1.07-2.13-.87-1.27-2.3-2.09-2.3-2.09h0c.08-.44,0-.96-.28-1.44-.07-.12-.15-.23-.23-.33h.01l1.65-.99c1.44,1.55,2.3,3.61,2.3,5.88Z"/>
    <path class="cls-3" d="m101.26,17.78c-.52,4.28-4.18,7.61-8.61,7.61-.68,0-1.33-.07-1.96-.23,1.65-.63,3.97-1.89,5.48-4.29,2.17-3.44,1.2-6.54,1.2-6.54.28-.16.45-.44.52-.76,0,0,1.43.81,2.3,2.09.46.64.8,1.42,1.07,2.13Z"/>
    <path class="cls-2" d="m96.16,20.86c-1.52,2.4-3.83,3.66-5.48,4.29h-.01c-1.55-.36-2.95-1.14-4.05-2.21.9-1.24,2.63-3.49,4.83-5.65,1.54-1.52,3.89-3.49,4.04-3.61.52.68,1.31.97,1.88.64,0,0,.97,3.09-1.2,6.54Z"/>
    <path class="cls-3" d="m95.48,13.68c-.15.12-2.5,2.1-4.04,3.61-2.2,2.16-3.93,4.41-4.83,5.65-.89-.84-1.59-1.87-2.05-3.02.29-1.8,1.09-4.63,3.36-6.3,3.52-2.58,7.11-1.46,7.11-1.46-.04.39.06.85.3,1.26.05.08.1.16.15.24Z"/>
    <path class="cls-2" d="m97.89,13.55h0c-.07.34-.24.62-.52.78-.57.33-1.36.04-1.88-.64-.05-.08-.1-.16-.15-.24-.24-.41-.34-.87-.3-1.26.04-.41.23-.76.55-.95.12-.07.27-.12.41-.12.46-.06.99.21,1.38.68.08.1.16.21.23.33.28.49.36,1.01.28,1.43Z"/>
    <path class="cls-5" d="m95.5,13.67h-.01"/>
    <line class="cls-5" x1="86.62" y1="22.96" x2="86.62" y2="22.95"/>
    <path class="cls-5" d="m101.27,17.8s0-.01-.01-.02"/>
    <line class="cls-5" x1="99.05" y1="10.79" x2="99.04" y2="10.79"/>
  </g>
  <g>
    <g>
      <path class="cls-14" d="m74.99,52.25c-.06.34-.05.82.02,1.22h0s0,0,.01.01c.1.1.2.2.28.31.1.13.21.24.32.35.08.07.17.12.27.14.07.01.12.05.17.09.11.1.18.22.26.34.08.13.15.27.28.36.27.18.5.38.73.6.26.23.51.47.82.64.05.03.07.07.09.11.02.06.05.13.06.2.05.2.07.42.15.61.1.24.18.48.27.73.1.26.21.52.41.72.24.23.45.49.64.76.21.3.42.6.68.87.11.12.25.21.37.32.19.18.34.4.52.6.17.19.39.3.61.4.21.1.4.21.54.4.12.17.27.3.45.41.38.22.79.35,1.23.4.32.04.63.03.92-.13.07-.04.14-.07.19-.12.15-.14.3-.3.47-.42.26-.19.53-.36.78-.57.07-.06.15-.12.2-.21.04-.08.1-.14.18-.18.08-.04.16-.08.25-.12.11-.05.2-.12.27-.23.11-.17.23-.33.38-.47.21-.19.41-.38.61-.58.36-.36.7-.73.93-1.19.13-.26.23-.54.18-.84-.02-.11-.02-.22,0-.33,0-.11.02-.12.14-.12.15,0,.3.02.45,0,.1,0,.18-.04.25-.11.13-.13.29-.21.46-.28.18-.07.37-.12.55-.19.33-.13.64-.3.95-.48.2-.11.39-.22.6-.3.25-.31.58-.72.67-.88.09-.16.13-.41.16-.59h0s-.01,0-.02-.01c-.07-.2-.18-.37-.33-.52-.05-.04-.1-.08-.16-.09-.03,0-.05-.02-.06-.05-.03-.07-.1-.09-.17-.06-.07.03-.14.04-.21.05-.11.01-.22.06-.31.12-.16.1-.28.23-.4.37-.17.2-.36.37-.6.49-.28.14-.54.32-.74.57-.1.13-.23.22-.38.26-.33.09-.55.32-.74.6-.04.06-.09.13-.1.21,0,.03-.03.05-.05.06-.17.08-.28.04-.35-.14-.02-.04-.03-.08-.04-.12-.02-.05-.04-.09-.07-.13-.23-.27-.34-.59-.37-.95-.01-.17,0-.33.09-.48.03-.05.05-.09,0-.14.26.14.49.07.7-.08.28-.19.48-.45.67-.73.2-.3.41-.6.65-.88.28-.33.59-.62.88-.93.15-.15.3-.31.38-.5.06-.14.14-.25.22-.37.11-.17.27-.31.34-.51.08-.22.16-.44.03-.67-.03-.05-.05-.1-.08-.14-.1-.15-.21-.29-.37-.38-.14-.08-.28-.14-.44-.07-.07.03-.12.07-.17.12-.11.13-.26.22-.4.31-.08.05-.15.11-.21.19-.1.13-.15.27-.22.42-.07.15-.14.31-.27.42-.22.18-.41.39-.56.63-.2.31-.37.64-.39,1.02,0,.05-.02.08-.06.11-.08.06-.16.12-.25.16-.16.08-.29.22-.48.24-.01,0-.03.02-.03.02.02.07-.05.05-.08.07-.03.01-.07.01-.08.04-.09.15-.21.26-.31.4-.08.11-.12.23-.07.36.01.03.02.06,0,.1,0,.02-.01.05-.04.05-.02,0-.03-.02-.04-.03-.03-.06-.08-.11-.14-.15-.17-.15-.39-.24-.55-.4-.02-.02-.05-.03-.07,0-.06.06-.11.03-.16,0-.04-.02-.08-.04-.12-.04-.12,0-.2-.06-.28-.14-.06-.06-.11-.12-.17-.17-.09-.09-.18-.16-.31-.19-.17-.04-.32-.12-.46-.22-.19-.14-.37-.28-.59-.36-.06-.03-.07-.06-.02-.11.08-.08.15-.17.2-.27.08-.18.1-.36.12-.55.01-.26.01-.52.08-.77.01-.04,0-.08-.02-.11-.09-.14-.1-.27,0-.4,0,0,0-.01,0-.02.22-.56.46-1.1.75-1.63.16-.3.31-.61.4-.94.05-.17.11-.34.08-.51-.06-.33-.28-.53-.58-.64-.27-.1-.49-.01-.64.24-.07.12-.14.23-.23.34-.19.23-.35.48-.45.76-.09.24-.22.46-.36.67-.15.22-.31.44-.41.68-.09.2-.18.4-.16.63,0,.07-.01.14-.03.2-.02.07-.06.13-.12.16-.07.03-.11.09-.15.15-.17.26-.27.54-.37.84-.06.2-.09.4-.07.62.02.19-.03.37-.13.53-.06.09-.12.17-.19.25-.21.25-.38.52-.46.84-.03.13-.06.26-.09.39-.12.46-.37.8-.84.94-.23.07-.47.13-.7.19-.27.08-.52.19-.7.42-.06.08-.06.08-.1-.01-.02.02-.01.04,0,.06.03.09,0,.13-.08.15-.11.04-.23.04-.34.04-.11,0-.23,0-.34.05-.08.04-.14.01-.2-.05-.09-.1-.15-.23-.2-.36-.08-.2-.13-.41-.22-.61-.08-.18-.18-.35-.34-.47-.12-.09-.24-.18-.36-.28-.16-.13-.3-.26-.37-.47-.09-.27-.26-.5-.47-.69-.22-.19-.46-.34-.68-.53-.24-.2-.51-.27-.8-.25-.05,0-.09,0-.13-.02-.22.17-.42.38-.46.61Z"/>
      <path class="cls-14" d="m86.69,51.47c-.04.13-.09.26-.1.4-.01.14.02.2.15.25.02,0,.03.02.04.04.07.21.26.28.42.39.05.04.13.04.19.03.24-.01.45-.12.64-.26.06-.04.12-.08.18-.12.09-.06.12-.17.19-.25.07-.09.1-.19.09-.31,0-.12-.01-.24,0-.35.02-.14.07-.2.21-.2.16,0,.25-.09.31-.23.01-.03.03-.06.06-.07.1-.05.17-.14.23-.23.3-.47.65-.9.97-1.36.11-.17.23-.33.32-.52.08-.16.14-.32.19-.49,0-.02,0-.04.02-.05-.03-.16-.09-.33-.2-.49-.12-.16-.23-.32-.33-.45-.02,0-.04,0-.07,0,0,0-.02,0-.03-.01-.15-.17-.33-.17-.52-.09-.13.05-.23.14-.33.23-.12.12-.22.26-.31.4-.14.24-.25.49-.27.77,0,.1.01.19.09.27.06.06.05.09-.02.13-.03.02-.07.03-.1.02-.13-.01-.24.04-.34.12-.28.23-.5.51-.69.81-.08.12-.11.26-.05.41.02.05.02.12.03.18,0,.06-.02.1-.08.13-.07.03-.13.06-.19.09-.37.16-.6.43-.72.81Z"/>
    </g>
    <g>
      <path class="cls-15" d="m80.87,49.42c-.26.23-.68.47-1.05.62h0s0,0-.01,0c-.14-.03-.27-.07-.41-.08-.16-.02-.31-.05-.47-.09-.1-.03-.19-.08-.26-.16-.05-.05-.1-.08-.17-.1-.14-.04-.28-.04-.42-.04-.15,0-.31.01-.45-.05-.29-.14-.59-.23-.89-.32-.33-.1-.67-.19-.97-.37-.05-.03-.09-.03-.14-.02-.07.01-.14.03-.2.05-.2.06-.39.15-.6.19-.26.04-.51.1-.76.14-.27.05-.55.09-.83.02-.32-.09-.65-.13-.98-.15-.37-.03-.74-.05-1.1-.13-.16-.04-.31-.1-.46-.15-.25-.07-.52-.08-.78-.13-.25-.05-.46-.18-.66-.31-.19-.13-.39-.23-.62-.25-.21-.02-.4-.07-.58-.17-.39-.21-.71-.5-.98-.84-.2-.25-.35-.53-.37-.85,0-.08-.01-.15,0-.23.04-.21.1-.41.12-.62.03-.32.03-.64.08-.96.01-.09.02-.19.07-.28.05-.08.07-.16.06-.25,0-.09-.02-.18-.03-.27-.02-.12,0-.24.06-.35.09-.18.17-.37.21-.57.06-.27.11-.55.18-.82.12-.49.26-.98.54-1.41.16-.25.34-.48.63-.59.11-.04.2-.1.29-.17.09-.06.09-.08.03-.18-.08-.12-.17-.24-.23-.38-.04-.09-.06-.17-.04-.27.04-.18.03-.36,0-.54-.03-.19-.09-.37-.12-.56-.07-.35-.07-.7-.09-1.06,0-.23-.02-.45-.05-.67.13-.38.32-.87.41-1.03.09-.16.28-.33.42-.44h0s.01,0,.02,0c.21-.04.41-.04.62.02.06.02.12.05.16.09.02.02.04.03.08.03.08-.01.13.04.14.11,0,.07.03.14.06.2.05.1.07.21.06.33,0,.18-.05.36-.11.53-.08.25-.13.5-.11.77.02.31.01.63-.11.93-.06.15-.07.31-.03.46.09.34.01.64-.13.94-.03.07-.06.14-.13.19-.02.02-.02.05-.02.08.02.19.11.26.3.23.04,0,.08-.02.12-.02.05-.01.1-.01.15,0,.35.06.68-.02,1-.18.15-.07.28-.18.36-.33.03-.05.05-.09.13-.06-.25-.15-.31-.38-.3-.64.02-.34.14-.65.28-.95.15-.33.3-.66.42-1.01.14-.41.23-.83.34-1.24.06-.2.11-.41.23-.59.09-.12.14-.25.2-.38.09-.19.13-.39.26-.56.15-.18.29-.37.56-.37.05,0,.11,0,.16,0,.18,0,.36.03.52.12.14.07.26.16.29.34.01.07,0,.14-.02.2-.06.16-.06.33-.05.5,0,.1-.02.19-.05.28-.06.15-.15.27-.24.4-.09.14-.19.28-.21.45-.04.28-.12.55-.25.81-.16.33-.35.65-.67.87-.04.03-.06.06-.06.11,0,.1-.02.2-.01.3.01.18-.03.36.04.53,0,.01,0,.04,0,.04-.07.02-.02.07-.02.1,0,.03.02.06,0,.1-.08.15-.11.32-.18.47-.06.12-.13.22-.27.25-.03,0-.06.02-.09.04-.02.01-.03.03-.02.06,0,.02.03.02.05.02.07,0,.14.02.2.04.22.07.41.2.63.26.03,0,.05.03.04.05-.02.08.03.1.08.14.04.02.08.05.1.08.06.1.16.14.26.16.08.02.16.03.23.05.12.03.23.07.32.17.12.13.26.21.42.28.21.09.43.17.62.31.06.04.08.03.11-.04.03-.11.07-.21.13-.31.11-.16.26-.28.41-.39.21-.15.44-.28.62-.47.03-.03.07-.04.1-.04.16.01.28-.05.35-.21,0,0,0-.01.01-.02.36-.48.7-.97,1.01-1.49.17-.29.36-.58.6-.83.12-.13.23-.27.39-.33.31-.12.6-.03.85.17.23.18.27.41.13.67-.07.12-.12.24-.17.37-.1.28-.23.55-.41.78-.16.2-.28.43-.39.66-.11.24-.21.49-.37.71-.13.18-.25.36-.45.47-.06.03-.11.08-.16.13-.05.05-.08.11-.07.19,0,.07-.01.14-.04.21-.13.28-.32.52-.52.75-.14.16-.3.29-.49.38-.17.08-.3.21-.38.39-.04.09-.08.19-.12.29-.1.31-.25.59-.48.83-.09.1-.19.19-.29.28-.33.34-.49.73-.37,1.21.06.24.14.46.2.7.07.27.11.54,0,.82-.04.09-.03.09.06.08,0,.03-.03.03-.05.04-.09.02-.1.07-.09.15.02.12.09.21.14.32.05.1.12.2.14.32.01.09.06.13.14.14.14.02.27.01.41-.01.21-.04.42-.1.64-.13.2-.03.39-.03.58.05.14.06.28.11.42.16.19.07.38.12.59.07.28-.07.56-.04.84.04.28.08.53.22.81.31.3.1.49.29.63.56.02.04.05.08.08.1-.03.28-.11.55-.29.71Z"/>
      <path class="cls-15" d="m75.46,39.02c-.09.1-.18.21-.29.29-.12.09-.18.09-.3,0-.02-.01-.03-.02-.05-.02-.21.05-.38-.08-.56-.16-.06-.03-.1-.09-.13-.15-.11-.21-.12-.45-.11-.68,0-.07,0-.14,0-.21,0-.11.08-.19.11-.29.04-.11.11-.18.21-.24.1-.06.21-.11.3-.19.11-.09.13-.17.06-.29-.07-.14-.05-.26.03-.39.02-.03.04-.05.03-.09,0-.11.03-.22.07-.32.25-.5.43-1.03.66-1.54.08-.19.17-.37.27-.54.09-.15.2-.29.32-.42.01-.01.03-.03.04-.04.15-.06.33-.09.52-.08.2.02.39.03.56.05,0,.02.02.04.03.06,0,0,.02.01.02.02.22.04.31.19.35.39.02.13,0,.27-.03.4-.04.17-.1.33-.18.48-.13.24-.29.47-.52.63-.08.06-.17.09-.27.07-.08-.02-.1,0-.1.08,0,.04.01.07.03.1.08.11.1.23.08.35-.05.36-.17.69-.33,1.01-.07.13-.17.23-.33.25-.06,0-.11.04-.17.07-.06.03-.08.07-.07.13.01.07.01.14.02.21.06.4-.06.74-.32,1.04Z"/>
    </g>
  </g>
  <g>
    <path class="cls-12" d="m5.76,79.47c.2.86,1.09,1.52,2.53,1.95,1.37.42,3.21.65,5.42.69.58.01,1.19,0,1.82,0h.02c1.65-.05,3.45-.18,5.36-.42.97-.11,1.96-.26,2.98-.42,1.66-.27,3.38-.61,5.15-1.01.2-.05.4-.09.6-.14,1.06-.25,2.09-.51,3.1-.79,1.85-.51,3.6-1.06,5.23-1.65,1.19-.42,2.32-.86,3.36-1.32,2.1-.9,3.88-1.84,5.26-2.77,2.2-1.48,3.34-2.93,3.07-4.14"/>
    <path class="cls-4" d="m13.72,82.11l-3.79,6.43-2.11-7.17.48.05c1.37.42,3.21.65,5.42.69Z"/>
    <path class="cls-3" d="m20.91,81.68l-2.25,7.01-3.63-6.53.5-.05h.02c1.65-.05,3.45-.18,5.36-.42Z"/>
    <path class="cls-4" d="m29.64,80.11l-1.64,7.21-4.11-6.06c1.66-.27,3.38-.61,5.15-1.01.2-.05.4-.09.6-.14Z"/>
    <path class="cls-3" d="m38.39,77.55l-1.01,7.46-4.64-5.69c1.85-.51,3.6-1.06,5.23-1.65l.41-.12Z"/>
    <path class="cls-4" d="m46.6,73.58l.54,7.46-5.81-4.69c2.1-.9,3.88-1.84,5.26-2.77Z"/>
  </g>
  <g>
    <path class="cls-12" d="m64.87,76.69c-.36.81-.04,1.87.85,3.09.84,1.16,2.17,2.46,3.92,3.81.46.36.94.72,1.46,1.09h.01c1.34.96,2.87,1.94,4.54,2.9.84.49,1.72.97,2.63,1.45,1.49.78,3.07,1.55,4.72,2.29.19.08.38.17.56.25.99.44,1.98.85,2.96,1.23,1.79.7,3.52,1.32,5.17,1.83,1.2.38,2.37.71,3.48.97,2.22.54,4.21.87,5.87.95,2.64.14,4.43-.33,4.94-1.46"/>
    <path class="cls-4" d="m69.63,83.59l-6.89,2.85,2.63-6.99.35.33c.84,1.16,2.17,2.46,3.92,3.81Z"/>
    <path class="cls-3" d="m75.64,87.58l-6.01,4.24,1.03-7.4.43.26h.01c1.34.96,2.87,1.94,4.54,2.9Z"/>
    <path class="cls-4" d="m83.56,91.57l-5.65,4.77.37-7.31c1.49.78,3.07,1.55,4.72,2.29.19.08.38.17.56.25Z"/>
    <path class="cls-3" d="m92.09,94.79l-5.29,5.35-.28-7.33c1.79.7,3.52,1.32,5.17,1.83l.4.15Z"/>
    <path class="cls-4" d="m101.03,96.56l-4.06,6.29-1.81-7.24c2.22.54,4.21.87,5.87.95Z"/>
  </g>
  <rect class="cls-13" x="-115.71" y="-421.07" width="1496.63" height="1236.8"/>
</svg>