<?xml version="1.0" encoding="UTF-8"?>
<svg id="Calque_1" data-name="Calque 1" xmlns="http://www.w3.org/2000/svg" viewBox="0 0 128 128">
  <defs>
    <style>
      .cls-1 {
        fill: #76ac75;
      }

      .cls-1, .cls-2, .cls-3 {
        stroke: #000;
      }

      .cls-1, .cls-2, .cls-3, .cls-4 {
        stroke-linecap: round;
        stroke-linejoin: round;
      }

      .cls-2, .cls-4 {
        fill: none;
      }

      .cls-5 {
        fill: #fab0b4;
      }

      .cls-3 {
        fill: #ff6d75;
        stroke-width: 2px;
      }

      .cls-4 {
        stroke: #fff;
        stroke-width: 8px;
      }
    </style>
  </defs>
  <path class="cls-1" d="m70.35,34.68c-3.2-1.73-11.15-5.75-15.5-5.44-5.53.39-11.95.1-18.96,8.3-7.02,8.2-11.26,14.81-11.26,14.81,0,0,17.88.6,26.86-3.06,5.77-2.34,10.8-5.62,13.67-7.67"/>
  <path class="cls-3" d="m68.9,71.82c.71-1.31,2.26-4.07,5.56-5.55.59-.27,3.98-1.77,7.31-.62,1.18.41,1.66.91,3.27,1.24,1.69.35,2.85.15,4.05.08.46-.03,4.56-.26,7.16.93,3.57,1.65,4.7,6.19,5.13,7.93,1.71,6.89-1.9,12.57-2.49,13.46-2.73,4.15-6.48,5.91-7.86,6.53-1.45.66-3.97,1.77-7.39,1.63-3.29-.13-5.64-1.34-6.77-1.94-5.41-2.87-7.67-7.75-8.09-8.71-.44-.98-3.52-8.28.11-14.99Z"/>
  <path class="cls-5" d="m73.22,80.6c1.51-.63,1.73-2.26,3.26-4.51.64-.95,1.73-2.55,3.64-3.95,1.34-.98,2.31-1.29,2.26-1.88-.08-.88-2.4-1.37-2.76-1.44-.69-.15-1.34-.28-2.13-.13-1.65.33-2.62,1.67-3.45,2.82-.99,1.38-1.4,2.63-1.69,3.57-.35,1.1-.42,2.03-.56,3.89-.06.75-.08,1.43.31,1.69.36.25.91.03,1.13-.06Z"/>
  <path class="cls-3" d="m58.68,66c-1.11-.43-1.67-1.59-5.47-2.43-4.45-.98-9.23,2.62-9.73,3.04-4.15,3.5-4.68,8.45-4.86,10.19-.85,7.87,4.07,13.5,5.02,14.59,3.15,3.61,6.73,5.08,7.75,5.47,1.35.52,4.12,1.54,7.75,1.22,5.05-.45,8.38-3.21,9.43-4.1,5.09-4.33,6.06-10.2,6.38-12.31.54-3.57,1.4-7.99-1.37-11.55-.23-.3-3.33-3.64-7.07-3.94-3.52-.27-2.41.79-4.66.6-.54-.04-1.41-.09-3.17-.77Z"/>
  <path class="cls-1" d="m86.74,67.08c.59-4.07-.22-7.33-.22-7.33-.86-3.47-1.98-5.8-4.2-10.38-1.33-2.77-2.49-5.61-3.77-8.4-.7-1.51-1.57-3.39-1.26-5.76.25-1.89.63-2.67,1.05-3.05.31-.27.4-.22,1.39-.83,1.32-.81,1.98-1.23,2.02-1.74.03-.46-.4-.51-.87-1.53-.41-.88-.33-1.34-.6-1.42-.38-.1-.8.71-1.53,1.48-.98,1.03-1.93,1.36-2.78,1.79-1.76.91-3.15,2.29-5.28,4.42-.11.11-.23.23-.34.35-.23.24-.47.49-.73.77-1.33,1.49-2.94,3.56-4.46,6.17-1.32,2.27-2.57,4.93-3.52,7.97-1.29,4.13-1.54,7.43-1.91,12.21-.2,2.57.03,4.58.03,4.58l2.13.39c0-1.31.16-3.15.38-5.83.16-2.04.4-4.88,1.33-8.46.67-2.57,1.42-4.49,1.75-5.29.51-1.26,1.35-3.29,2.88-5.72,1.55-2.45,2.88-3.84,4.36-5.4,1.89-1.98,2.43-2.15,2.67-2.01.45.24-.05,1.46-.05,3.16,0,1.6.44,2.81,1.58,5.28,1.51,3.29,2.69,5.44,3.43,6.87,2.54,4.9,4.23,8.16,4.42,11.93.14,2.67.22,4.38.09,5.52l2.01.26Z"/>
  <path class="cls-2" d="m31.15,49.49s7.8-5.83,9.28-6.72c1.06-.64,5.04-3.12,10.46-5.08,2.12-.77,4.46-1.46,6.93-1.93,6.24-1.19,10.09-.69,11.8-.31"/>
  <path class="cls-2" d="m36.31,49.49s1.3-1.07,1.78-2.44.83-3.25.83-3.25"/>
  <path class="cls-2" d="m42.05,48.05s1.66-1.45,2.28-3.29,1.06-4.73,1.06-4.73"/>
  <path class="cls-2" d="m49.19,45.93s1.33-1.76,1.55-3.68c.22-1.93.14-4.51.14-4.51"/>
  <path class="cls-2" d="m55.21,43.28s1.45-1.33,2.16-3.18c.71-1.85,1.39-4.43,1.39-4.43"/>
  <path class="cls-2" d="m59.47,35.28s-1.31-1.22-3.24-1.71c-1.46-.37-4.19,0-4.19,0"/>
  <path class="cls-2" d="m50.57,37.74s-1.08-.76-3.17-1.32c-1.46-.39-2.84.56-2.84.56"/>
  <path class="cls-2" d="m44.57,40.19s-1.03-.96-2.52-.72-3.53,1.28-3.53,1.28"/>
  <path class="cls-2" d="m38.91,43.86s-1.3-.78-2.78-.53-1.98.89-1.98.89"/>
  <path class="cls-5" d="m43.08,78.32c1.51-.63,1.73-2.26,3.26-4.51.64-.95,1.73-2.55,3.64-3.95,1.34-.98,2.31-1.29,2.26-1.88-.08-.88-2.4-1.37-2.76-1.44-.69-.15-1.34-.28-2.13-.13-1.65.33-2.62,1.67-3.45,2.82-.99,1.38-1.4,2.63-1.69,3.57-.35,1.1-.42,2.03-.56,3.89-.06.75-.08,1.43.31,1.69.36.25.91.03,1.13-.06Z"/>
  <rect class="cls-4" x="-698.97" y="-1403.97" width="3385.57" height="2571.67"/>
</svg>