<?xml version="1.0" encoding="UTF-8"?>
<svg id="Calque_1" data-name="Calque 1" xmlns="http://www.w3.org/2000/svg" viewBox="0 0 128 128">
  <defs>
    <style>
      .cls-1 {
        fill: #fff;
      }

      .cls-1, .cls-2, .cls-3, .cls-4, .cls-5 {
        stroke-linecap: round;
        stroke-linejoin: round;
      }

      .cls-1, .cls-2, .cls-6, .cls-7, .cls-8, .cls-5 {
        stroke: #000;
      }

      .cls-2, .cls-3, .cls-4 {
        fill: none;
      }

      .cls-3 {
        stroke: #222221;
        stroke-width: .68px;
      }

      .cls-9 {
        fill: #222221;
      }

      .cls-6 {
        fill: #baa584;
      }

      .cls-6, .cls-7 {
        stroke-width: 2px;
      }

      .cls-6, .cls-7, .cls-8 {
        stroke-miterlimit: 10;
      }

      .cls-7 {
        fill: #fab0b4;
      }

      .cls-8 {
        fill: #ff6d75;
      }

      .cls-4 {
        stroke: #fff;
        stroke-width: 8px;
      }

      .cls-5 {
        fill: #87ccf3;
        stroke-width: .83px;
      }
    </style>
  </defs>
  <g>
    <path class="cls-6" d="m72.33,59.13c.19.98.37,1.97.56,2.95.39,2.08.79,4.16,1.19,6.24.19.98.37,1.97.56,2.95,1.92,10.13,3.84,20.25,5.76,30.38.03.14.06.28.08.42.41,2.15.82,4.3,1.22,6.46.23,1.24,1.21,1.89,2.25,2.03.1.01.2.02.3.02.33.01.67-.03.98-.11,1.11-.3,1.98-1.19,1.72-2.58-.45-2.35-.89-4.7-1.34-7.05-1.82-9.61-3.65-19.23-5.47-28.85-.19-.98-.37-1.97-.56-2.95-.4-2.08-.79-4.16-1.19-6.24-.01-.07-.03-.15-.04-.22-.18-.91-.34-1.82-.52-2.73l-5.49-.72Z"/>
    <path class="cls-6" d="m64.17,59.13c-.19.98-.37,1.97-.56,2.95-.39,2.08-.79,4.16-1.19,6.24-.19.98-.37,1.97-.56,2.95-1.92,10.13-3.84,20.25-5.76,30.38-.03.14-.06.28-.08.42-.41,2.15-.82,4.3-1.22,6.46-.23,1.24-1.21,1.89-2.25,2.03-.1.01-.2.02-.3.02-.33.01-.67-.03-.98-.11-1.11-.3-1.98-1.19-1.72-2.58.45-2.35.89-4.7,1.34-7.05,1.82-9.61,3.65-19.23,5.47-28.85.19-.98.37-1.97.56-2.95.4-2.08.79-4.16,1.19-6.24.01-.07.03-.15.04-.22.18-.91.34-1.82.52-2.73l5.49-.72Z"/>
  </g>
  <g>
    <path class="cls-7" d="m50.23,50.13c4.65,1.02,10.55,1.89,17.41,1.93,7.21.03,13.4-.87,18.21-1.93,1.67-2.25,8.45-11.9,6.38-24.19-.47-2.81-1.6-9.52-7.46-14.79-4.85-4.36-10.31-5.38-12.64-5.68h-8.17c-2.36.29-7.87,1.3-12.64,5.68-5.9,5.42-6.77,12.44-7.2,15.85-1.43,11.49,4.19,20.35,6.12,23.13Z"/>
    <path class="cls-8" d="m56.66,43.1c2.99.65,6.79,1.22,11.2,1.24,4.64.02,8.62-.56,11.71-1.24,1.07-1.45,5.44-7.65,4.1-15.56-.3-1.81-1.03-6.12-4.8-9.51-3.12-2.8-6.63-3.46-8.13-3.65h-5.25c-1.52.18-5.06.83-8.13,3.65-3.79,3.49-4.35,8-4.63,10.19-.92,7.39,2.69,13.09,3.93,14.87Z"/>
    <path class="cls-7" d="m50.27,71.66h35.95c3.63,0,6.58-3.01,6.58-6.73v-8.07c0-3.72-2.95-6.73-6.58-6.73h-35.95c-3.63,0-6.58,3.01-6.58,6.73v8.07c0,3.72,2.95,6.73,6.58,6.73Z"/>
  </g>
  <g>
    <path class="cls-6" d="m83.28,62.72c.23,1.14.45,2.29.68,3.43.47,2.41.95,4.83,1.44,7.25.23,1.14.45,2.29.68,3.43,2.33,11.77,4.66,23.52,6.99,35.29.04.16.07.33.1.49.5,2.5.99,5,1.48,7.5.28,1.44,1.46,2.2,2.73,2.35.12.01.24.02.36.03.4.02.81-.03,1.18-.13,1.35-.35,2.4-1.39,2.08-3-.54-2.73-1.08-5.45-1.62-8.19-2.21-11.17-4.43-22.34-6.63-33.52-.23-1.14-.45-2.29-.68-3.43-.48-2.42-.95-4.83-1.44-7.25-.01-.09-.04-.17-.05-.26-.21-1.05-.42-2.12-.63-3.17l-6.66-.83Z"/>
    <path class="cls-6" d="m53.21,62.72c-.23,1.14-.45,2.29-.68,3.43-.47,2.41-.95,4.83-1.44,7.25-.23,1.14-.45,2.29-.68,3.43-2.33,11.77-4.66,23.52-6.99,35.29-.04.16-.07.33-.1.49-.5,2.5-.99,5-1.48,7.5-.28,1.44-1.46,2.2-2.73,2.35-.12.01-.24.02-.36.03-.4.02-.81-.03-1.18-.13-1.35-.35-2.4-1.39-2.08-3,.54-2.73,1.08-5.45,1.62-8.19,2.21-11.17,4.43-22.34,6.63-33.52.23-1.14.45-2.29.68-3.43.48-2.42.95-4.83,1.44-7.25.01-.09.04-.17.05-.26.21-1.05.42-2.12.63-3.17l6.66-.83Z"/>
  </g>
  <g>
    <path class="cls-5" d="m76.67,31.41c1.41-.45,5.02-1.93,8.66-3.43l3.76,6.98c-2.16,2.03-4.47,3.99-6.51,5.28l1.06,11.77c.56,7.45.36,11.62-.06,16.84l-5.71,2.12c-3-2.25-4.69-3.53-7.4-9.08-4.31.93-6.84-.07-6.85-.07-1.09,6.12-2.98,5.92-3.84,9.42l-6.38-.94c-2.55-6.23-2.87-15.19-1.97-21.27,0,0,0,0,0,0,.35-3.23,1.66-8.43,1.66-8.43-2.25-1.43-4.77-3.65-7.05-5.88l4.83-6.01c3.36,1.35,6.64,2.52,8.21,2.44"/>
    <path class="cls-1" d="m85.39,21.67c-.06-.23-.13-.46-.25-.67-.41-.7-1.35-.95-2.13-.76-.1.03-.22.06-.33.11.15-3.55-.48-7.21-2.28-10.23-4.37-7.35-13.21-6.43-13.21-6.43-13.46.23-15.01,12.26-15.15,16.34-.73-.09-1.52.17-1.89.8-.12.21-.19.44-.25.67-.09.32-.16.65-.17.99-.04,1.12.7,2.24,1.75,2.64.58.22,1.23.21,1.81.02,1.9,4.1,5.39,7.47,9.66,8.92,5.53,1.89,12.15.34,16.05-4.02,1.24-1.39,2.2-3.04,2.81-4.8.63.25,1.35.29,1.99.05,1.05-.4,1.79-1.51,1.75-2.64-.01-.33-.09-.66-.17-.99Z"/>
    <path class="cls-1" d="m46.04,34.72c-3.79-3.71-6.9-7.42-6.9-7.42-.82-.5-1.53-1.21-2.06-2.05-.26-.41-.48-.93-.3-1.4.02-.05.05-.1.09-.13.09-.04.18.05.24.14.18.27.37.54.55.81-.22-.31-.43-.63-.53-1-.09-.37-.03-.82.25-1.07.18.33.4.64.66.91-.35-.37-.5-.95-.38-1.47.03-.11.07-.22.16-.27.15-.09.33.05.45.18.28.32.52.67.71,1.05-.22-.34-.36-.72-.42-1.13-.03-.18-.03-.37.04-.54.07-.17.24-.3.4-.26.09.02.16.08.23.14.48.46.72,1.15,1.12,1.7.05.07.11.14.2.14.06,0,.12-.05.16-.1.18-.21.22-.51.34-.77.12-.26.4-.48.64-.35.16.09.21.31.23.51.06.53.14,1.01.03,1.53,1.6,1.66,5.27,3.59,8.89,5.05l-4.8,5.78Z"/>
    <path class="cls-1" d="m89.08,34.96c4.19-3.94,7.81-8.12,7.81-8.12.82-.5,1.53-1.21,2.06-2.05.26-.41.48-.93.3-1.4-.02-.05-.05-.1-.09-.13-.09-.04-.18.05-.24.14-.18.27-.37.54-.55.81.22-.31.43-.63.53-1,.09-.37.03-.82-.25-1.07-.18.33-.4.64-.66.91.35-.37.5-.95.38-1.47-.03-.11-.07-.22-.16-.27-.15-.09-.33.05-.45.18-.28.32-.52.67-.71,1.05.22-.34.36-.72.42-1.13.03-.18.03-.37-.04-.54-.07-.17-.24-.3-.4-.26-.09.02-.16.08-.23.14-.48.46-.72,1.15-1.12,1.7-.05.07-.12.14-.2.14-.06,0-.12-.05-.17-.1-.18-.21-.22-.51-.34-.77-.12-.26-.4-.48-.64-.35-.16.09-.21.31-.23.51-.06.53-.14,1.01-.03,1.53-1.53,1.59-5.16,3.35-8.76,4.83l3.76,6.7Z"/>
    <path class="cls-9" d="m59.24,21.02c0,.53-.36.96-.81.96s-.81-.43-.81-.96.36-.96.81-.96.81.43.81.96Z"/>
    <path class="cls-9" d="m77.67,21.02c0,.53-.36.96-.81.96s-.81-.43-.81-.96.36-.96.81-.96.81.43.81.96Z"/>
    <path class="cls-3" d="m67.95,24.14c.43-.21.74-.67.72-1.15-.02-.48-.39-.93-.86-1.01-.26-.04-.52.03-.77.09"/>
  </g>
  <path class="cls-6" d="m105.97,42.55v.8c0,1.22-.99,2.21-2.21,2.21h-4.03v24.58c0,.81-.65,1.45-1.45,1.45h-2.32c-.8,0-1.45-.64-1.45-1.45v-24.58h-24.39v25.62h-3.74v-25.62h-24.4v24.58c0,.81-.64,1.45-1.45,1.45h-2.32c-.8,0-1.44-.64-1.44-1.45v-24.58h-4.03c-1.22,0-2.21-.99-2.21-2.21v-.8c0-1.22.99-2.21,2.21-2.21h71.02c1.22,0,2.21.99,2.21,2.21Z"/>
  <path class="cls-6" d="m105.97,64.22v4.1c0,1.84-1.49,3.33-3.33,3.33H33.86c-1.84,0-3.33-1.49-3.33-3.33v-4.1c0-1.84,1.49-3.33,3.33-3.33h68.78c1.84,0,3.33,1.49,3.33,3.33Z"/>
  <path class="cls-1" d="m55.85,63.13c-3.05-6.3-3.55-13,1.78-13s5.51,7.09,3.7,13c0,0-.98.85-2.79.85s-2.69-.85-2.69-.85Z"/>
  <path class="cls-1" d="m79.85,63.13c3.05-6.3,3.55-13-1.78-13s-5.51,7.09-3.7,13c0,0,.98.85,2.79.85s2.69-.85,2.69-.85Z"/>
  <g>
    <line class="cls-2" x1="123.21" y1="11.43" x2="108.64" y2="31.1"/>
    <polygon points="105.5 26.95 104.37 36.86 113.51 32.89 105.5 26.95"/>
  </g>
  <rect class="cls-4" x="-419.62" y="-314.74" width="1215" height="875.1"/>
</svg>