<?xml version="1.0" encoding="UTF-8"?><svg id="Calque_1" xmlns="http://www.w3.org/2000/svg" viewBox="0 0 128 128"><defs><style>.cls-1{stroke:#e30613;stroke-width:8px;}.cls-1,.cls-2,.cls-3,.cls-4,.cls-5,.cls-6,.cls-7{stroke-linecap:round;stroke-linejoin:round;}.cls-1,.cls-2,.cls-3,.cls-6{fill:none;}.cls-2,.cls-3,.cls-4,.cls-5,.cls-6,.cls-7{stroke:#000;}.cls-3{stroke-dasharray:0 3.78;}.cls-4{fill:#bfe6fc;}.cls-5{fill:#87ccf3;}.cls-6{stroke-dasharray:0 .21;}.cls-7{fill:#d6d6d6;}</style></defs><rect class="cls-1" x="-755.1" y="-886.79" width="2655.08" height="1511.77"/><path class="cls-4" d="m78.15,27.59c0-4.88-5.12-8.84-11.45-8.84-6.33,0-11.46,3.96-11.46,8.84h22.9Z"/><line class="cls-2" x1="67.25" y1="50.65" x2="67.25" y2="46.65"/><line class="cls-2" x1="67.25" y1="39.31" x2="67.25" y2="35.31"/><line class="cls-2" x1="57.36" y1="50.65" x2="57.36" y2="46.65"/><line class="cls-2" x1="57.36" y1="39.31" x2="57.36" y2="35.31"/><line class="cls-2" x1="76.47" y1="50.65" x2="76.47" y2="46.65"/><line class="cls-2" x1="76.47" y1="39.31" x2="76.47" y2="35.31"/><line class="cls-3" x1="71.86" y1="45.43" x2="71.86" y2="41.65"/><line class="cls-3" x1="62.45" y1="45.43" x2="62.45" y2="41.65"/><line class="cls-6" x1="67.25" y1="44.21" x2="67.25" y2="44.42"/><line class="cls-6" x1="57.36" y1="44.21" x2="57.36" y2="44.42"/><line class="cls-6" x1="76.47" y1="44.21" x2="76.47" y2="44.42"/><line class="cls-6" x1="71.86" y1="50.54" x2="71.86" y2="50.76"/><line class="cls-6" x1="62.45" y1="50.54" x2="62.45" y2="50.76"/><polyline class="cls-2" points="28.26 114.25 28.26 58.12 28.26 55.08 28.26 14.16"/><line class="cls-2" x1="66.7" y1="14.16" x2="66.7" y2="17.97"/><path class="cls-2" d="m66.7,14.16c0-5.27-4.32-9.59-9.59-9.59h-19.26c-2.63,0-5.03,1.08-6.77,2.82s-2.82,4.13-2.82,6.77"/><rect class="cls-4" x="28.26" y="114.25" width="65.42" height="7.03"/><rect class="cls-4" x="28.26" y="110.71" width="63.22" height="3.53"/><line class="cls-2" x1="55.25" y1="31.06" x2="78.15" y2="31.06"/><rect class="cls-4" x="28.26" y="62.08" width="6.4" height="3.04"/><rect class="cls-4" x="28.26" y="62.08" width="6.4" height="3.04"/><rect class="cls-4" x="30.22" y="62.08" width="11.92" height="3.04" transform="translate(-27.42 99.79) rotate(-90)"/><line class="cls-2" x1="98.1" y1="55.01" x2="82.96" y2="74.38"/><polygon points="81.78 69.25 82.78 69.16 83.2 74.07 88.07 73.3 88.23 74.28 82.29 75.23 81.78 69.25"/><rect class="cls-7" x="47.25" y="87.68" width="3.87" height="22.46"/><rect class="cls-7" x="75.13" y="87.68" width="3.87" height="22.46"/><rect class="cls-5" x="47.19" y="57.65" width="3.93" height="18.25"/><rect class="cls-7" x="60.22" y="70.67" width="5.77" height="31.81" transform="translate(-23.47 149.68) rotate(-90)"/><line class="cls-7" x1="47.19" y1="75.9" x2="47.19" y2="83.69"/><path class="cls-2" d="m55.84,89.46v-5.77h0c0-3.86,3.16-7.02,7.02-7.02h5.25c3.86,0,7.02,3.16,7.02,7.02h0v5.77"/><rect class="cls-5" x="60.57" y="75.18" width="9.83" height="2.99" rx="1.49" ry="1.49"/><rect class="cls-7" x="44.77" y="107.38" width="8.3" height="2.76"/><rect class="cls-7" x="72.92" y="107.38" width="8.3" height="2.76"/></svg>