<?xml version="1.0" encoding="UTF-8"?>
<svg id="Calque_1" data-name="Calque 1" xmlns="http://www.w3.org/2000/svg" viewBox="0 0 200 128">
  <defs>
    <style>
      .cls-1, .cls-2, .cls-3, .cls-4, .cls-5, .cls-6, .cls-7, .cls-8, .cls-9, .cls-10, .cls-11, .cls-12 {
        stroke: #000;
      }

      .cls-1, .cls-2, .cls-3, .cls-4, .cls-5, .cls-6, .cls-13, .cls-12 {
        stroke-linecap: round;
        stroke-linejoin: round;
      }

      .cls-1, .cls-10 {
        fill: #87ccf3;
      }

      .cls-2 {
        fill: #b4eac3;
      }

      .cls-3 {
        fill: #f3d587;
      }

      .cls-4, .cls-8, .cls-12 {
        fill: #fff;
      }

      .cls-5, .cls-7, .cls-13, .cls-11 {
        fill: none;
      }

      .cls-6 {
        fill: #fab0b4;
      }

      .cls-7 {
        stroke-width: 5px;
      }

      .cls-7, .cls-8, .cls-9, .cls-10, .cls-11 {
        stroke-miterlimit: 10;
      }

      .cls-9 {
        fill: #ffd4ad;
      }

      .cls-13 {
        stroke: #fff;
        stroke-width: 8px;
      }

      .cls-12 {
        stroke-width: .75px;
      }
    </style>
  </defs>
  <g>
    <rect class="cls-3" x="118.78" y="101.61" width="64.49" height="4.98" transform="translate(302.05 208.19) rotate(-180)"/>
    <rect class="cls-5" x="118.78" y="81.34" width="64.43" height="24.86" transform="translate(301.99 187.55) rotate(-180)"/>
    <g>
      <rect class="cls-4" x="118.78" y="81.34" width="64.43" height="3.41" transform="translate(301.99 166.1) rotate(-180)"/>
      <rect class="cls-4" x="115.47" y="79.23" width="3.31" height="41.31"/>
      <rect class="cls-4" x="118.78" y="106.21" width="64.43" height="8" transform="translate(301.99 220.41) rotate(-180)"/>
      <circle class="cls-4" cx="117.13" cy="76.86" r="2.74"/>
      <rect class="cls-4" x="183.27" y="79.23" width="3.31" height="41.31"/>
      <rect class="cls-4" x="173.27" y="84.75" width="3.31" height="21.45"/>
      <rect class="cls-4" x="163.7" y="84.75" width="3.31" height="21.45"/>
      <rect class="cls-4" x="154.13" y="84.75" width="3.31" height="21.45"/>
      <rect class="cls-4" x="144.55" y="84.75" width="3.31" height="21.45"/>
      <rect class="cls-4" x="134.98" y="84.75" width="3.31" height="21.45"/>
      <rect class="cls-4" x="125.41" y="84.75" width="3.31" height="21.45"/>
      <circle class="cls-4" cx="184.93" cy="76.86" r="2.74"/>
    </g>
    <polyline class="cls-5" points="184.93 74.12 184.93 58.44 171.13 58.44 171.13 63.16 179.71 68.17"/>
    <polyline class="cls-5" points="171.08 58.44 171.08 63.16 162.5 68.17"/>
    <line class="cls-5" x1="171.13" y1="63.16" x2="171.13" y2="67.67"/>
    <rect class="cls-1" x="169.85" y="67.77" width="2.56" height="2.56" transform="translate(340.96 -3.13) rotate(135)"/>
    <rect class="cls-2" x="178.45" y="67.77" width="2.56" height="2.56" transform="translate(248.79 -110.68) rotate(90)"/>
    <rect class="cls-6" x="160.98" y="67.84" width="3.03" height="3.03" rx=".82" ry=".82" transform="translate(326.44 3.49) rotate(135)"/>
  </g>
  <g>
    <path class="cls-9" d="m83.4,63.94v27.96c-33.69-9.99-58.01-3.39-66.65-.23v-30.4c0-1.55,1.27-2.8,2.82-2.8s2.8,1.25,2.8,2.8v2.68h55.33v-2.68c0-1.55,1.27-2.8,2.82-2.8s2.81,1.25,2.81,2.8v2.68h.07Z"/>
    <path class="cls-8" d="m42.94,91.9c-5.61.61-11.27.61-16.98.03-2.04,2.45-4.59.75-3-2.45-.15-.83-.27-1.66-.35-2.49-.28-2.83-.15-5.66.4-8.49-1.78-3.44,1.2-5.21,3.3-2.09,5.48-.3,10.91-.3,16.31.01,2.11-3.15,5.01-1.14,3.17,2.36.85,3.48.87,6.95.05,10.43,1.86,3.38-.79,5.25-2.89,2.68Z"/>
    <path class="cls-8" d="m74.18,91.9c-5.61.61-11.27.61-16.98.03-2.04,2.45-4.59.75-3-2.45-.15-.83-.27-1.66-.35-2.49-.28-2.83-.15-5.66.4-8.49-1.78-3.44,1.2-5.21,3.3-2.09,5.48-.3,10.91-.3,16.31.01,2.11-3.15,5.01-1.14,3.17,2.36.85,3.48.87,6.95.05,10.43,1.86,3.38-.79,5.25-2.89,2.68Z"/>
    <rect class="cls-9" x="13.28" y="96.37" width="73.44" height="17.79"/>
    <rect class="cls-9" x="18.22" y="102.45" width="63.4" height="5.63"/>
    <path class="cls-9" d="m13.28,93.1v27.44h-5.63v-27.44c0-1.55,1.25-2.82,2.8-2.82s2.82,1.27,2.82,2.82Z"/>
    <path class="cls-9" d="m92.35,92.94v27.44h-5.63v-27.44c0-1.55,1.27-2.8,2.82-2.8s2.8,1.25,2.8,2.8Z"/>
    <path class="cls-10" d="m86.72,92.94v3.43H13.28v-3.27s1.2-.59,3.47-1.43c8.65-3.16,32.96-9.75,66.65.23v.02c1.09.32,2.2.66,3.32,1.02Z"/>
  </g>
  <line class="cls-7" x1="100" y1="35.42" x2="100" y2="120.54"/>
  <g>
    <g>
      <path class="cls-11" d="m71.27,32.41s-16.48,5.84-18.74,19.22"/>
      <polygon points="49.34 47.52 50.21 47.01 52.69 51.27 56.76 48.48 57.33 49.3 52.37 52.7 49.34 47.52"/>
    </g>
    <g>
      <path class="cls-11" d="m128.73,32.41s16.48,5.84,18.74,19.22"/>
      <polygon points="142.67 49.3 143.24 48.48 147.3 51.27 149.79 47.01 150.65 47.52 147.62 52.7 142.67 49.3"/>
    </g>
  </g>
  <line class="cls-11" x1="3.07" y1="120.54" x2="194.81" y2="120.54"/>
  <g>
    <path class="cls-8" d="m127.25,30.16c0,15.05-12.2,27.25-27.25,27.25-.94,0-1.87-.05-2.78-.14h0c-7.07-.72-13.34-4.14-17.76-9.21-4.19-4.79-6.71-11.05-6.71-17.9,0-15.05,12.2-27.25,27.25-27.25s27.25,12.2,27.25,27.25Z"/>
    <path class="cls-8" d="m89.5,23.64s.11-.16.31-.35c.88-.83,2.66-1.04,3.24.91.39,1.33-1.31,4.25-1.1,4.83,0,0-4.54-2.31-2.45-5.39Z"/>
    <path class="cls-8" d="m112.37,33.05s.02-.2-.02-.47c-.15-1.2-1.39-2.5-3.07-1.36-1.15.78-1.69,4.12-2.22,4.43,0,0,4.97,1.11,5.31-2.6Z"/>
    <path class="cls-10" d="m107.28,53.61c-5.2,2.26-7.28-.64-7.88-1.84-.04-.09-.17-.06-.17.04,0,1.67-.96,3.71-2,5.46h0c-7.07-.72-13.34-4.14-17.76-9.21,1.07-1.92,2.6-3.89,3.44-4.94.07-.09-.04-.19-.13-.13-1.91,1.3-2.71-.3-4.04-1.77-1.41-1.57-1.04-9.06-.99-9.84,0-.04.03-.07.07-.08l3.84-.97s.06,0,.09.02c1.32,1.12,2.21,4.94,2.5,6.37.02.1.16.09.19,0,.16-.54.57-.97,1.04-1.31.91-.63,2.05-.84,3.15-.74,7.7.73,11.58,4.56,11.58,4.56,5.52,3.77,5.11,7.37,4.76,8.56-.02.09.08.16.15.09,1.29-1.07,5.22-2.08,5.75-2.2.04-.01.07,0,.09.04l2.26,3.4s.01.02.02.04c.03.2.06,1.82-5.95,4.44Z"/>
    <path class="cls-12" d="m78.36,27.94s-1.05-3.54-1.16-1.45c-.11,2.09.05,3.74.54,4.84l3.96-.99s.9-1.64.42-2.49c-.14-.24-.5-.21-.61.05-.14.34-.31.8-.31,1.12,0,0,.74-2.67.1-3.56-.18-.25-.58-.17-.65.14-.15.61-.37,1.73-.22,2.43,0,0,.02-1.86-.32-2.84-.1-.29-.5-.28-.6,0-.21.65-.43,1.75.03,2.65,0,0-.55-2.87-.88-2.84-.71.07-.32,2.95-.32,2.95Z"/>
    <path class="cls-12" d="m115.25,46.24s3.29-1.67,1.85-.16c-1.44,1.52-2.75,2.54-3.89,2.93l-2.23-3.38s.81-1.97,1.75-2.2c.27-.07.5.22.39.48-.15.33-.37.77-.61.99,0,0,1.43-2.37,2.52-2.52.31-.04.52.31.35.57-.34.53-1,1.46-1.61,1.82,0,0,1.34-1.29,2.28-1.72.28-.13.55.17.41.44-.33.6-.98,1.52-1.95,1.8,0,0,2.46-1.58,2.67-1.31.44.57-1.92,2.26-1.92,2.26Z"/>
    <path class="cls-8" d="m101.23,38.42s-2.75,4.35-7.04,1.38c0,0-3.47-1.98-1.21-4.84l8.25,3.47Z"/>
    <path class="cls-8" d="m91.46,23.27c-1.12,4.57-3.43,8.58.16,10.82,3.25,2.03,10.83,6.87,13.26,5.33,3.72-2.36,16.04-16.66.75-22.47-.18-.07-4.89-2.15-6.78-1.95-3.18.34-6.09,2.95-7.4,8.27Z"/>
    <path d="m98.8,32.08c-.12,0-.25-.05-.32-.15-.24-.35-.33-.74-.26-1.07.05-.24.19-.44.39-.55.21-.13.42-.15.59-.16.19-.02.3-.03.41-.12.16-.13.26-.52.28-.75.02-.19.19-.34.39-.33.2.02.34.19.33.39,0,.09-.08.89-.55,1.25-.28.22-.57.25-.79.27-.12.01.04.22,0,.29,0,.01-.34-.2-.35-.13-.02.1,0,.29.15.51.11.16.07.39-.09.5-.05.04-.12.06-.18.06Z"/>
    <path class="cls-5" d="m94.63,25.96s1.19,1.83,2.79,1.57"/>
    <path class="cls-5" d="m106.2,32.07s-2.18-.14-2.73-1.67"/>
    <path class="cls-5" d="m96.03,33.29s.7,1.67,3,1.32"/>
    <path class="cls-5" d="m92.22,20.9s3.32,2.34,11.32.84"/>
    <path class="cls-5" d="m103.47,18.94s-1.49,7.67,8.29,12.39"/>
    <g>
      <path d="m95.05,10.4l2.72-3.44h-2.65v-.94h4.03v.89l-2.76,3.49h2.76v.94h-4.11v-.94Z"/>
      <path d="m99.52,10.64l2.04-2.58h-1.99v-.71h3.02v.67l-2.07,2.62h2.07v.7h-3.08v-.7Z"/>
      <path d="m102.88,10.76l1.7-2.15h-1.66v-.59h2.52v.56l-1.72,2.18h1.73v.59h-2.57v-.59Z"/>
      <path d="m105.75,9.41v-.52h1.94v.54l-1.21,1.4h1.25v.53h-2.07v-.5l1.22-1.43h-1.13Z"/>
    </g>
  </g>
  <rect class="cls-13" x="-5156.6" y="-5566.62" width="6467.34" height="6437.3"/>
</svg>