<?xml version="1.0" encoding="UTF-8"?>
<svg id="Calque_1" data-name="Calque 1" xmlns="http://www.w3.org/2000/svg" viewBox="0 0 128 128">
  <defs>
    <style>
      .cls-1, .cls-2, .cls-3, .cls-4 {
        stroke: #000;
      }

      .cls-1, .cls-2, .cls-3, .cls-4, .cls-5 {
        stroke-linecap: round;
        stroke-linejoin: round;
      }

      .cls-1, .cls-5 {
        fill: none;
      }

      .cls-2 {
        fill: #a07637;
      }

      .cls-2, .cls-3, .cls-4 {
        stroke-width: 2px;
      }

      .cls-3 {
        fill: #baa584;
      }

      .cls-4 {
        fill: #fee4cb;
      }

      .cls-5 {
        stroke: #fff;
        stroke-width: 8px;
      }
    </style>
  </defs>
  <path class="cls-3" d="m87.93,52.7c-.09.09-.18.17-.27.26-2.37,2.32-4.8,3.4-5.74,3.79-1.58.64-3.38,1.08-8.42,1.22-5.76.16-6.54-.33-10.17-.28.06-1.68.15-3.22.24-4.59-.34-.22-.71-.45-1.12-.67-2.37-1.31-4.69-1.83-6.57-2.01-1.25-.13-2.3-.12-3.05-.11-1.16.03-2.25.14-3.26.32-.69.12-1.34.27-1.95.44-.62.16-1.2.35-1.73.54-.09,1.57-.3,2.88-.52,3.92-.19.91-.38,1.63-.6,2.54-.55-.07-1.14-.15-1.78-.23-5.56-.72-8.35-1.08-11.96-1.95-7.26-1.75-9.56-3.48-10.62-4.39-.89-.77-1.74-1.49-2.38-2.33.07-.77.26-1.55.67-2.31.17-.31.63-1.11,2.93-2.81,2.89-2.14,4.82-3.57,7.57-4.15,1.93-.41,3.93-.07,7.93.61,4.6.78,4.85,1.39,7.32,1.35,3.07-.06,2.94-1,6.96-1.47,2.21-.26,5.49-.61,8.91.86,1.82.77,1.68,1.21,2.97,1.91.16.09.35.18.57.28,4.13,1.87,6.04-.22,11.11,1.22,1.77.51,3.13,1.22,5.25,2.32,2.27,1.19,1.46,1.02,5,3.05,1.07.61,1.62.9,2.13,1.59.26.35.44.71.58,1.08Z"/>
  <path class="cls-2" d="m91.2,47.59c-.32,2.12-1.64,3.51-3.27,5.11-.14-.37-.32-.73-.58-1.08-.51-.69-1.06-.98-2.13-1.59-3.54-2.03-2.73-1.86-5-3.05-2.12-1.1-3.48-1.81-5.25-2.32-5.07-1.44-6.98.65-11.11-1.22-.22-.1-.41-.19-.57-.28-1.29-.7-1.15-1.14-2.97-1.91-3.42-1.47-6.7-1.12-8.91-.86-4.02.47-3.89,1.41-6.96,1.47-2.47.04-2.72-.57-7.32-1.35-4-.68-6-1.02-7.93-.61-2.75.58-4.68,2.01-7.57,4.15-2.3,1.7-2.76,2.5-2.93,2.81-.41.76-.6,1.54-.67,2.31-.48-.64-.86-1.35-1.04-2.19-.91-4.13,3.33-8.21,6.59-11.35,3.21-3.08,3.82-2.7,10.99-8.06,5.2-3.88,5.87-4.8,9.76-7.32,4.51-2.92,6.82-4.38,9.4-4.64,6.34-.62,11.55,4.02,12.94,5.25,2.8,2.5,1.93,3.04,5.49,6.71,3.16,3.26,6.44,5.52,10.13,8.06,3.84,2.64,5.45,3.39,7.08,5.86.84,1.28,2.23,3.46,1.83,6.1Z"/>
  <g>
    <path class="cls-4" d="m63.57,53.1c-.09,1.37-.18,2.91-.24,4.59-.03.66-.05,1.34-.07,2.04-.01.54-.03,1.48-.01,3.27-.41-.26-1.01-.54-1.89-.86-1.84-.64-3.15-.81-3.15-.81-2.5-.32-4.73-.32-8.23-.16-3.55.16-5.11.33-5.91.75.05-.44.13-.91.21-1.41.17-1.01.34-1.78.49-2.44.22-.91.41-1.63.6-2.54.22-1.04.43-2.35.52-3.92.53-.19,1.11-.38,1.73-.54.61-.17,1.26-.32,1.95-.44,1.01-.18,2.1-.29,3.26-.32.75-.01,1.8-.02,3.05.11,1.88.18,4.2.7,6.57,2.01.41.22.78.45,1.12.67Z"/>
    <path class="cls-4" d="m63.73,109.98c-1.55,2.1-3.79,2.85-5.6,3.42-1.14.37-5.28,1.56-11.2.16-3.89-.92-11.03-2.6-12.6-7.62-.94-2.99.32-6.39,1.86-10.58.74-2,1-2.14,1.87-4.2,1.22-2.9,1.47-4.43,3.42-13.85,1.56-7.49,1.94-9.13,2.09-10.46.36-.14.79-.26,1.32-.32.98-.1.91.18,1.78.06,1.72-.25,1.91-1.34,3.09-1.36,1.43-.02,1.93,1.56,3.04,1.3.82-.19.69-1.11,1.73-1.62,1.02-.51,2.39-.25,3.3.32,1.32.83,1.19,2.03,2.17,2.22.93.19,1.25-.83,2.44-.81.35,0,.64.1.89.24.05,1.85.13,4.14.24,7.01.02.54.04,1.07.07,1.57.01.28.02.56.03.83.3,7.52.47,11.44.68,13.16.04.34.11.84.18,1.49.28,2.42.7,6.84.76,12.2.02,2.48-.04,4.78-1.56,6.84Z"/>
  </g>
  <path class="cls-3" d="m65.09,67.73c-.59.2-1.02-.49-1.76-.85-.25-.14-.54-.23-.89-.24-1.19-.02-1.51,1-2.44.81-.98-.19-.85-1.39-2.17-2.22-.91-.57-2.28-.83-3.3-.32-1.04.51-.91,1.43-1.73,1.62-1.11.26-1.61-1.32-3.04-1.3-1.18.02-1.37,1.11-3.09,1.36-.87.12-.8-.16-1.78-.06-.53.06-.96.18-1.32.32-.84.34-1.33.74-2.04.5-.44-.15-.92-.53-.92-.93-.01-.57,1.01-.68,1.84-1.62.77-.89.54-1.56.97-2.28.15-.25.34-.44.65-.6.8-.42,2.36-.59,5.91-.75,3.5-.16,5.73-.16,8.23.16,0,0,1.31.17,3.15.81.88.32,1.48.6,1.89.86.77.47.89.83.92,1.04.07.42-.18.64,0,.98.32.59,1.29.28,1.63.81.34.52-.05,1.67-.71,1.9Z"/>
  <path class="cls-3" d="m108.16,89.95h0c-.29,1.48-.87,3.04-1.96,4.49-3.08,4.11-8.15,4.58-11.7,4.9-1.33.13-3.48.32-5.94-.09.06-.48.12-.99.18-1.53.46-3.85.68-5.82.56-8.12-.16-3.06-.65-4.05-1.23-4.76-1.26-1.54-3.14-1.93-3.82-2.08-.62-.13-2.2-.44-3.94.23-.82.31-1.63.82-3.03,2.36-.2.22-.39.44-.57.65h-.01c-.99,1.16-1.77,2.27-2.32,3.14-.15.22-.27.43-.38.61-.06.1-.12.19-.16.27-.06.09-.1.17-.14.24-.18.3-.29.53-.36.65-.48.89-.91,1.7-1.3,2.44-1.44-.2-1.96-.09-3.33-.48-.82-.24-2.57-.74-4.18-1.93-.07-.65-.14-1.15-.18-1.49-.21-1.72-.38-5.64-.68-13.16.75-1.16,1.78-2.35,3.16-3.37,2.23-1.65,4.39-2.11,6.26-2.51,2.13-.45,3.94-.49,5.98-.34,1.05.07,2.17.2,3.42.34,1.11.13,4.51.55,9.51,1.88,6.34,1.69,9.52,2.54,12.01,4.91.81.77,3.21,3.12,4.07,7,.14.64.62,3.02.08,5.75Z"/>
  <path class="cls-2" d="m108.16,89.95c.54-2.73.06-5.11-.08-5.75-.86-3.88-3.26-6.23-4.07-7-2.49-2.37-5.67-3.22-12.01-4.91-5-1.33-8.4-1.75-9.51-1.88-1.25-.14-2.37-.27-3.42-.34-2.04-.15-3.85-.11-5.98.34-1.87.4-4.03.86-6.26,2.51-1.38,1.02-2.41,2.21-3.16,3.37-.01-.27-.02-.55-.03-.83.79-1.42,1.81-2.79,2.98-3.9,2.25-2.15,4.93-3.21,7.62-4.28,2.59-1.03,4.62-1.46,7.1-1.98,4.1-.87,6.14-1.3,8.36-.84,2.19.46,3.82,1.45,5.74,2.61,1.53.93,2.67,1.82,4.6,3.34,1.63,1.29,3.16,2.58,3.66,3.03,4.12,3.78,5.89,13.22,4.46,16.51Z"/>
  <g>
    <path class="cls-4" d="m88.04,102.61v.02c-.01.42-.06.83-.16,1.24-.92,3.9-5.54,5.44-7.04,5.94-3.64,1.21-6.85.49-8.25.09-.63-.3-1.89-1-2.87-2.41-1.06-1.52-1.23-3.01-1.3-3.71-.18-1.72.19-3.66,1.12-5.39.03-.05.05-.09.07-.13.5-.89,1.15-1.73,1.96-2.45.99-.88,2.12-1.5,3.32-1.87,2.36-.76,4.97-.59,7.15.39,2.03.91,3.91,2.6,5.01,4.6.64,1.16,1.01,2.42.99,3.68Z"/>
    <path class="cls-4" d="m88.74,97.72c-.06.54-.12,1.05-.18,1.53-.17,1.37-.33,2.48-.52,3.36.02-1.26-.35-2.52-.99-3.68-1.1-2-2.98-3.69-5.01-4.6-2.18-.98-4.79-1.15-7.15-.39-1.2.37-2.33.99-3.32,1.87-.81.72-1.46,1.56-1.96,2.45.5-1.14,1.28-2.71,2.43-4.91.39-.74.82-1.55,1.3-2.44.07-.12.18-.35.36-.65.05-.07.09-.16.14-.24.04-.08.1-.17.16-.27.11-.19.24-.39.38-.61.55-.87,1.33-1.98,2.32-3.14h.01c.18-.21.37-.43.57-.65,1.4-1.54,2.21-2.05,3.03-2.36,1.74-.67,3.32-.36,3.94-.23.68.15,2.56.54,3.82,2.08.58.71,1.07,1.7,1.23,4.76.12,2.3-.1,4.27-.56,8.12Z"/>
  </g>
  <path class="cls-1" d="m22.7,48.67s8.63,3.01,12.16,3.27,11.04-.33,11.04-.33c0,0-5.52-.54-10.37-1.61-4.07-.9-10.52-4.96-10.52-4.96"/>
  <path class="cls-1" d="m30.72,53.42s5.52,1.57,8.43,1.67c2.91.1,6.45-.83,6.45-.83"/>
  <path class="cls-1" d="m36.28,43.16s4.33,3.95,6.8,5.64c2.04,1.39,4.54,2.27,4.54,2.27"/>
  <path class="cls-1" d="m48.34,41.29s.29,2.36.29,3.36-.21,2.03-.15,3.07c.06,1.04,1.09,2.91,1.09,2.91"/>
  <path class="cls-1" d="m58.39,42.87s-.19,1.83-.64,3.34-1.87,4.2-1.87,4.2"/>
  <line class="cls-1" x1="63.29" y1="43.16" x2="60.77" y2="48.71"/>
  <path class="cls-1" d="m69.56,44.44s-2.03,2.53-3.15,3.65c-1.12,1.12-4.52,3.91-4.52,3.91"/>
  <path class="cls-1" d="m75.44,45.04s-1.12,2.51-3.02,4.13c-1.7,1.44-4.17,2.78-5.26,3.11"/>
  <path class="cls-1" d="m80.53,49.9s-3.52,2.68-6.79,3.52-9.74.84-9.74.84"/>
  <path class="cls-1" d="m86.59,51.39s-3.56,2.18-5.59,2.72c-2.03.54-8.12,1.23-8.12,1.23"/>
  <path class="cls-1" d="m79.07,70.07s-.56,2.83-.57,4.48c-.01,2.56.97,4.83.97,4.83"/>
  <path class="cls-1" d="m68.38,83.99s1.58-1.47,2.49-1.03c.91.45,1.27,2.24,1.95,2.58s2.77.71,3.88.46"/>
  <path class="cls-1" d="m85.99,73.18s-1.86,2.17-2.1,3.93c-.41,3.01.36,5.65.36,5.65"/>
  <path class="cls-1" d="m94.51,73.28s-1.43,3.75-2.54,5.35c-1.1,1.6-3.36,3.42-3.36,3.42"/>
  <path class="cls-1" d="m88.07,84.84c3.01.58,6.44-.76,8.59-2.71,1.33-1.21,2.18-2.9,2.86-4.46"/>
  <path class="cls-1" d="m89.6,87.89s3.36,1.05,6.68.55c2.76-.41,7.49-5.57,7.49-5.57"/>
  <path class="cls-1" d="m89.3,89.6c2.47,1.64,5.29,2.68,8.28,2.44,2.07-.16,4.08-.89,5.78-2.09"/>
  <path class="cls-1" d="m89.34,93.12s1.61,2.2,3.07,2.68,4.14.55,4.14.55"/>
  <rect class="cls-5" x="-230.98" y="-2047.77" width="3385.57" height="2571.67"/>
</svg>