<?xml version="1.0" encoding="UTF-8"?>
<svg id="Calque_1" data-name="Calque 1" xmlns="http://www.w3.org/2000/svg" viewBox="0 0 128 128">
  <defs>
    <style>
      .cls-1, .cls-2, .cls-3, .cls-4, .cls-5, .cls-6 {
        stroke-miterlimit: 10;
      }

      .cls-1, .cls-2, .cls-3, .cls-4, .cls-6 {
        stroke: #000;
      }

      .cls-7 {
        fill: #fab0b4;
      }

      .cls-8, .cls-2 {
        fill: #fff;
      }

      .cls-9, .cls-3 {
        fill: #ff6d75;
      }

      .cls-2, .cls-3, .cls-4 {
        stroke-width: 2px;
      }

      .cls-4 {
        fill: #d6d6d6;
      }

      .cls-5 {
        fill: #cfb999;
      }

      .cls-5, .cls-10 {
        stroke: #fff;
      }

      .cls-5, .cls-6 {
        stroke-width: .5px;
      }

      .cls-10 {
        stroke-linecap: round;
        stroke-linejoin: round;
        stroke-width: 8px;
      }

      .cls-10, .cls-6 {
        fill: none;
      }
    </style>
  </defs>
  <path class="cls-4" d="m36.61,54.79v9.44h-4.88v-9.44c0-1.34,1.09-2.43,2.44-2.43s2.44,1.09,2.44,2.43Z"/>
  <path class="cls-4" d="m22.93,54.79v9.44h-4.88v-9.44c0-1.34,1.09-2.43,2.44-2.43s2.44,1.09,2.44,2.43Z"/>
  <path d="m40.34,63.38H14.32c-1.77,0-3.21,1.44-3.21,3.22s1.36,3.12,3.07,3.2v2.97c0,5.26,3.11,9.81,7.59,11.91v5.39h3.12v13.9c0,7.69,6.08,13.94,13.55,13.94h.5v-4.88h-.5c-4.78,0-8.67-4.07-8.67-9.06v-13.9h3.12v-5.39c4.48-2.11,7.6-6.65,7.6-11.91v-2.97c1.7-.08,3.06-1.48,3.06-3.2s-1.44-3.22-3.21-3.22Zm-13.01,13.78c-1.01,0-1.83-.82-1.83-1.83s.82-1.83,1.83-1.83,1.83.82,1.83,1.83-.82,1.83-1.83,1.83Z"/>
  <g>
    <path class="cls-1" d="m96.19,5.71h-40.27c-4.08,0-7.4,3.32-7.4,7.4v101.79c0,4.08,3.32,7.39,7.4,7.39h40.27c4.08,0,7.4-3.31,7.4-7.39V13.11c0-4.08-3.32-7.4-7.4-7.4Zm7.12,109.19c0,3.92-3.19,7.11-7.12,7.11h-40.27c-3.92,0-7.11-3.19-7.11-7.11V13.11c0-3.92,3.19-7.12,7.11-7.12h40.27c3.93,0,7.12,3.2,7.12,7.12v101.79Z"/>
    <path class="cls-1" d="m103.31,13.11v101.79c0,3.92-3.19,7.11-7.12,7.11h-40.27c-3.92,0-7.11-3.19-7.11-7.11V13.11c0-3.92,3.19-7.12,7.11-7.12h40.27c3.93,0,7.12,3.2,7.12,7.12Z"/>
  </g>
  <path class="cls-7" d="m101.54,13.94v100.12c0,3.47-2.81,6.28-6.28,6.28h-38.4c-.29,0-.58-.02-.86-.06-3.07-.42-5.43-3.04-5.43-6.22V13.94c0-3.47,2.81-6.28,6.28-6.28h1.12c3.45,0,6.91.06,10.36,0,0,.02-.02.06-.01.1.94-.15,2.41.26,3.09.94,1.08,1.08,2.35,2.57,4.01,2.74,1.73.18,3.1-1.22,4.23-2.33,1.26-1.25,2.95-1.44,4.66-1.44h10.94c3.47,0,6.28,2.81,6.28,6.28Z"/>
  <circle class="cls-5" cx="75.73" cy="9.03" r="1.11"/>
  <path class="cls-1" d="m103.43,39.31h0v-14.47h0c.55,0,.99.44.99.99v12.49c0,.55-.44.99-.99.99Z"/>
  <path class="cls-1" d="m103.43,51.78h0v-7.22h0c.55,0,.99.44.99.99v5.24c0,.55-.44.99-.99.99Z"/>
  <rect class="cls-9" x="91.58" y="10" width=".58" height="2.63"/>
  <rect class="cls-8" x="92.16" y="10" width="4.21" height="2.63"/>
  <rect x="96.37" y="10.74" width=".68" height="1.16"/>
  <g>
    <rect x="53.91" y="10.82" width=".88" height="1.51"/>
    <rect x="55.29" y="10.29" width=".88" height="2.04"/>
    <rect x="56.68" y="9.66" width=".88" height="2.66"/>
  </g>
  <rect class="cls-6" x="91.58" y="10" width="4.8" height="2.63"/>
  <rect class="cls-3" x="71.05" y="78.47" width="11.75" height="33.43" transform="translate(-18.25 172.11) rotate(-90)"/>
  <rect class="cls-2" x="52.39" y="48.05" width="49.08" height="33.43" transform="translate(12.16 141.69) rotate(-90)"/>
  <rect x="72.64" y="28.57" width="8.59" height="14.72" transform="translate(41 112.86) rotate(-90)"/>
  <rect class="cls-6" x="46.45" y="53.86" width="60.96" height="33.43" transform="translate(6.35 147.5) rotate(-90)"/>
  <g>
    <path d="m69.56,71.3v-.65l.83-.8c1.99-1.9,2.89-2.9,2.9-4.08,0-.79-.38-1.52-1.55-1.52-.71,0-1.3.36-1.66.66l-.34-.74c.54-.46,1.31-.79,2.21-.79,1.68,0,2.39,1.15,2.39,2.27,0,1.44-1.04,2.6-2.69,4.19l-.62.58v.02h3.5v.88h-4.98Z"/>
    <path d="m79.23,65.7c0,1.64-.86,2.46-1.87,2.46s-1.81-.78-1.82-2.35c0-1.56.85-2.43,1.88-2.43,1.09,0,1.81.84,1.81,2.33Zm-2.85.07c-.02,1,.35,1.75,1.01,1.75.7,0,1.01-.74,1.01-1.77,0-.95-.28-1.74-1.01-1.74-.66,0-1.01.78-1.01,1.76Zm.91,5.66l4.58-8.06h.67l-4.58,8.06h-.67Zm7.02-2.51c0,1.64-.86,2.46-1.86,2.46s-1.81-.78-1.82-2.34c0-1.57.85-2.45,1.88-2.45,1.09,0,1.8.84,1.8,2.33Zm-2.85.07c-.01,1,.37,1.75,1.02,1.75.7,0,1.01-.74,1.01-1.77,0-.95-.28-1.74-1.01-1.74-.66,0-1.02.78-1.02,1.76Z"/>
  </g>
  <rect class="cls-10" x="-990.27" y="-359.81" width="1447.07" height="727.52"/>
</svg>