<?xml version="1.0" encoding="UTF-8"?>
<svg id="Calque_1" data-name="Calque 1" xmlns="http://www.w3.org/2000/svg" viewBox="0 0 1007.81 333.11">
  <defs>
    <style>
      .cls-1 {
        letter-spacing: 0em;
      }

      .cls-2 {
        letter-spacing: 0em;
      }

      .cls-3 {
        stroke-width: 3px;
      }

      .cls-3, .cls-4, .cls-5, .cls-6, .cls-7, .cls-8, .cls-9, .cls-10, .cls-11, .cls-12, .cls-13, .cls-14, .cls-15, .cls-16 {
        stroke-miterlimit: 10;
      }

      .cls-3, .cls-4, .cls-5, .cls-6, .cls-7, .cls-8, .cls-9, .cls-16 {
        fill: none;
      }

      .cls-3, .cls-5, .cls-6, .cls-7, .cls-8, .cls-9, .cls-10, .cls-11, .cls-12, .cls-13, .cls-14, .cls-15, .cls-16 {
        stroke: #000;
      }

      .cls-4 {
        stroke: #170500;
      }

      .cls-4, .cls-10, .cls-11, .cls-12, .cls-13, .cls-14, .cls-15 {
        stroke-width: .28px;
      }

      .cls-17, .cls-15 {
        fill: #fab0b4;
      }

      .cls-18 {
        fill: #f5f5f5;
      }

      .cls-19 {
        fill: #f3d587;
      }

      .cls-20, .cls-10 {
        fill: #fee4cb;
      }

      .cls-21 {
        fill: #f387d5;
      }

      .cls-22 {
        fill: #ffd4ad;
      }

      .cls-23 {
        fill: #ffbeed;
      }

      .cls-24 {
        fill: #fce9b9;
      }

      .cls-25, .cls-11 {
        fill: #ff6d75;
      }

      .cls-26 {
        fill: #a07637;
      }

      .cls-27, .cls-12 {
        fill: #b4eac3;
      }

      .cls-28, .cls-13 {
        fill: #b2f0e9;
      }

      .cls-29 {
        fill: #baa584;
      }

      .cls-30 {
        fill: #bbfedb;
      }

      .cls-31, .cls-14 {
        fill: #bfe6fc;
      }

      .cls-32 {
        fill: #d6d6d6;
      }

      .cls-33 {
        fill: #afaff9;
      }

      .cls-34 {
        fill: #87f3b9;
      }

      .cls-35 {
        fill: #8987f3;
      }

      .cls-36 {
        fill: #87ccf3;
      }

      .cls-37 {
        fill: #76ac75;
      }

      .cls-38 {
        fill: #77eddf;
      }

      .cls-39 {
        letter-spacing: -.01em;
      }

      .cls-40 {
        letter-spacing: 0em;
      }

      .cls-5 {
        stroke-width: 1.42px;
      }

      .cls-6 {
        stroke-width: .71px;
      }

      .cls-41 {
        font-size: 12px;
      }

      .cls-41, .cls-42, .cls-43 {
        font-family: MyriadPro-Regular, 'Myriad Pro';
      }

      .cls-7 {
        stroke-width: 2px;
      }

      .cls-44 {
        letter-spacing: 0em;
      }

      .cls-45 {
        letter-spacing: 0em;
      }

      .cls-9 {
        stroke-width: .62px;
      }

      .cls-42 {
        font-size: 5px;
      }

      .cls-43 {
        font-size: 7px;
        letter-spacing: .04em;
      }

      .cls-46 {
        letter-spacing: 0em;
      }

      .cls-47 {
        letter-spacing: 0em;
      }

      .cls-48 {
        letter-spacing: -.01em;
      }

      .cls-16 {
        stroke-width: .5px;
      }
    </style>
  </defs>
  <rect class="cls-16" x="74.61" y="61.35" width="128" height="128"/>
  <rect class="cls-9" x="253.79" y="61.35" width="200" height="128"/>
  <rect class="cls-6" x="504.41" y="61.35" width="260" height="128"/>
  <text class="cls-41" transform="translate(117.36 47.34)"><tspan x="0" y="0">128x128</tspan></text>
  <text class="cls-41" transform="translate(332.55 47.34)"><tspan x="0" y="0">200x128</tspan></text>
  <text class="cls-41" transform="translate(613.16 47.34)"><tspan x="0" y="0">260x128</tspan></text>
  <rect x="846.42" y="61.91" width="49.55" height="49.55" rx="3.54" ry="3.54"/>
  <rect class="cls-37" x="846.42" y="128.41" width="23.01" height="23.01" rx="1.64" ry="1.64"/>
  <rect class="cls-27" x="872.66" y="128.41" width="23.01" height="23.01" rx="1.64" ry="1.64"/>
  <rect class="cls-19" x="846.42" y="155.44" width="23.01" height="23.01" rx="1.64" ry="1.64"/>
  <rect class="cls-24" x="872.66" y="155.44" width="23.01" height="23.01" rx="1.64" ry="1.64"/>
  <rect class="cls-36" x="904.46" y="128.41" width="23.01" height="23.01" rx="1.64" ry="1.64"/>
  <rect class="cls-31" x="930.69" y="128.41" width="23.01" height="23.01" rx="1.64" ry="1.64"/>
  <rect class="cls-35" x="904.46" y="155.44" width="23.01" height="23.01" rx="1.64" ry="1.64"/>
  <rect class="cls-33" x="930.69" y="155.44" width="23.01" height="23.01" rx="1.64" ry="1.64"/>
  <rect class="cls-25" x="846.42" y="188.93" width="23.01" height="23.01" rx="1.64" ry="1.64"/>
  <rect class="cls-17" x="872.66" y="188.93" width="23.01" height="23.01" rx="1.64" ry="1.64"/>
  <rect class="cls-21" x="846.42" y="215.96" width="23.01" height="23.01" rx="1.64" ry="1.64"/>
  <rect class="cls-23" x="872.66" y="215.96" width="23.01" height="23.01" rx="1.64" ry="1.64"/>
  <rect class="cls-38" x="846.42" y="248.62" width="23.01" height="23.01" rx="1.64" ry="1.64"/>
  <rect class="cls-28" x="872.66" y="248.62" width="23.01" height="23.01" rx="1.64" ry="1.64"/>
  <rect class="cls-34" x="846.42" y="275.65" width="23.01" height="23.01" rx="1.64" ry="1.64"/>
  <rect class="cls-30" x="872.66" y="275.65" width="23.01" height="23.01" rx="1.64" ry="1.64"/>
  <rect class="cls-22" x="904.46" y="188.93" width="23.01" height="23.01" rx="1.64" ry="1.64"/>
  <rect class="cls-20" x="930.69" y="188.93" width="23.01" height="23.01" rx="1.64" ry="1.64"/>
  <rect class="cls-26" x="904.46" y="215.96" width="23.01" height="23.01" rx="1.64" ry="1.64"/>
  <rect class="cls-32" x="904.46" y="248.62" width="23.01" height="23.01" rx="1.64" ry="1.64"/>
  <rect class="cls-29" x="930.69" y="215.96" width="23.01" height="23.01" rx="1.64" ry="1.64"/>
  <rect class="cls-5" x="904.99" y="61.91" width="49.55" height="49.55" rx="3.54" ry="3.54"/>
  <text class="cls-42" transform="translate(600.54 291.79)"><tspan class="cls-1" x="0" y="0">S</tspan><tspan x="2.48" y="0">a</tspan><tspan class="cls-44" x="4.89" y="0">n</tspan><tspan class="cls-40" x="7.65" y="0">t</tspan><tspan x="9.27" y="0">é me</tspan><tspan class="cls-44" x="19.51" y="0">n</tspan><tspan x="22.26" y="0">tale</tspan></text>
  <rect class="cls-18" x="598.41" y="244.19" width="34.26" height="25.68" rx="1.77" ry="1.77"/>
  <path class="cls-11" d="m635.89,273.63v5.98c0,.94-.76,1.7-1.69,1.7h-37.3c-.94,0-1.69-.76-1.69-1.7v-5.98h40.68Z"/>
  <path class="cls-4" d="m635.89,242.31v37.3c0,.94-.76,1.7-1.69,1.7h-37.3c-.94,0-1.69-.76-1.69-1.7v-37.3c0-.93.75-1.69,1.69-1.69h37.3c.93,0,1.69.76,1.69,1.69Z"/>
  <text class="cls-42" transform="translate(555.09 291.79)"><tspan class="cls-1" x="0" y="0">S</tspan><tspan x="2.48" y="0">a</tspan><tspan class="cls-44" x="4.89" y="0">n</tspan><tspan class="cls-40" x="7.65" y="0">t</tspan><tspan x="9.27" y="0">é p</tspan><tspan class="cls-48" x="15.68" y="0">h</tspan><tspan class="cls-2" x="18.39" y="0">y</tspan><tspan x="20.71" y="0">sique</tspan></text>
  <rect class="cls-18" x="553.93" y="244.19" width="34.26" height="25.68" rx="1.77" ry="1.77"/>
  <path class="cls-15" d="m591.4,273.63v5.98c0,.94-.76,1.7-1.69,1.7h-37.3c-.94,0-1.69-.76-1.69-1.7v-5.98h40.68Z"/>
  <path class="cls-4" d="m591.4,242.31v37.3c0,.94-.76,1.7-1.69,1.7h-37.3c-.94,0-1.69-.76-1.69-1.7v-37.3c0-.93.75-1.69,1.69-1.69h37.3c.93,0,1.69.76,1.69,1.69Z"/>
  <text class="cls-42" transform="translate(513.06 291.79)"><tspan class="cls-39" x="0" y="0">A</tspan><tspan x="3" y="0">dminist</tspan><tspan class="cls-47" x="18.74" y="0">ra</tspan><tspan x="22.74" y="0">tif</tspan></text>
  <rect class="cls-18" x="509.44" y="244.19" width="34.26" height="25.68" rx="1.77" ry="1.77"/>
  <path class="cls-10" d="m546.91,273.63v5.98c0,.94-.76,1.7-1.69,1.7h-37.3c-.94,0-1.69-.76-1.69-1.7v-5.98h40.68Z"/>
  <path class="cls-4" d="m546.91,242.31v37.3c0,.94-.76,1.7-1.69,1.7h-37.3c-.94,0-1.69-.76-1.69-1.7v-37.3c0-.93.75-1.69,1.69-1.69h37.3c.93,0,1.69.76,1.69,1.69Z"/>
  <text class="cls-42" transform="translate(643.93 291.79)"><tspan x="0" y="0">E</tspan><tspan class="cls-48" x="2.46" y="0">n</tspan><tspan x="5.17" y="0">vi</tspan><tspan class="cls-46" x="8.74" y="0">r</tspan><tspan x="10.33" y="0">onneme</tspan><tspan class="cls-44" x="27.8" y="0">n</tspan><tspan x="30.56" y="0">t</tspan></text>
  <rect class="cls-18" x="642.9" y="244.19" width="34.26" height="25.68" rx="1.77" ry="1.77"/>
  <path class="cls-12" d="m680.37,273.63v5.98c0,.94-.76,1.7-1.69,1.7h-37.3c-.94,0-1.69-.76-1.69-1.7v-5.98h40.68Z"/>
  <path class="cls-4" d="m680.37,242.31v37.3c0,.94-.76,1.7-1.69,1.7h-37.3c-.94,0-1.69-.76-1.69-1.7v-37.3c0-.93.75-1.69,1.69-1.69h37.3c.93,0,1.69.76,1.69,1.69Z"/>
  <text class="cls-42" transform="translate(689.62 291.79)"><tspan class="cls-45" x="0" y="0">C</tspan><tspan x="2.86" y="0">ad</tspan><tspan class="cls-46" x="8.09" y="0">r</tspan><tspan x="9.68" y="0">e de vie &amp; </tspan><tspan x=".9" y="6">quali</tspan><tspan class="cls-2" x="11.23" y="6">t</tspan><tspan x="12.86" y="6">é de vie</tspan></text>
  <rect class="cls-18" x="687.39" y="244.19" width="34.26" height="25.68" rx="1.77" ry="1.77"/>
  <path class="cls-14" d="m724.86,273.63v5.98c0,.94-.76,1.7-1.69,1.7h-37.3c-.94,0-1.69-.76-1.69-1.7v-5.98h40.68Z"/>
  <path class="cls-4" d="m724.86,242.31v37.3c0,.94-.76,1.7-1.69,1.7h-37.3c-.94,0-1.69-.76-1.69-1.7v-37.3c0-.93.75-1.69,1.69-1.69h37.3c.93,0,1.69.76,1.69,1.69Z"/>
  <text class="cls-42" transform="translate(742.26 291.79)"><tspan class="cls-39" x="0" y="0">A</tspan><tspan x="3" y="0">ut</tspan><tspan class="cls-46" x="7.41" y="0">r</tspan><tspan x="8.99" y="0">es</tspan></text>
  <rect class="cls-18" x="731.87" y="244.19" width="34.26" height="25.68" rx="1.77" ry="1.77"/>
  <path class="cls-13" d="m769.34,273.63v5.98c0,.94-.76,1.7-1.69,1.7h-37.3c-.94,0-1.69-.76-1.69-1.7v-5.98h40.68Z"/>
  <path class="cls-4" d="m769.34,242.31v37.3c0,.94-.76,1.7-1.69,1.7h-37.3c-.94,0-1.69-.76-1.69-1.7v-37.3c0-.93.75-1.69,1.69-1.69h37.3c.93,0,1.69.76,1.69,1.69Z"/>
  <path class="cls-8" d="m69.69,287.18c2.82-3,15.44-13.9,30.13-12.67,16.8,1.41,26.09-4.41,28.53-11.17"/>
  <path class="cls-7" d="m69.69,276.67c2.82-3,17.08-14.83,31.72-13.14s25.15-4.13,27.59-10.89"/>
  <path class="cls-3" d="m69.69,265.97c2.82-3,13.23-12.76,29.85-12.48,14.74.25,26.37-2.35,29.47-11.54"/>
  <text class="cls-43" transform="translate(59.46 289.31)"><tspan x="0" y="0">1</tspan></text>
  <text class="cls-43" transform="translate(59.46 278.47)"><tspan x="0" y="0">2</tspan></text>
  <text class="cls-43" transform="translate(59.46 267.63)"><tspan x="0" y="0">3</tspan></text>
</svg>