<?xml version="1.0" encoding="UTF-8"?>
<svg id="Calque_1" data-name="Calque 1" xmlns="http://www.w3.org/2000/svg" viewBox="0 0 128 128">
  <defs>
    <style>
      .cls-1 {
        fill: #ff6d75;
      }

      .cls-1, .cls-2 {
        stroke-width: 2px;
      }

      .cls-1, .cls-2, .cls-3 {
        stroke: #000;
        stroke-miterlimit: 10;
      }

      .cls-2 {
        fill: #fab0b4;
      }

      .cls-3 {
        fill: none;
      }
    </style>
  </defs>
  <path class="cls-2" d="m65.7,88.38c-4.57-5.77-8.99-9.45-12.73-11.74-6.34-3.88.9-12.95,4.48-23.57,0,0,17.54,7.74,8.25,35.31Z"/>
  <path class="cls-2" d="m110.53,110.21c-5.33,8.92-17.49,9.62-26.67,3.41,1.75-4.74,7.65-17.93,21.77-26.31.02.03.05.07.07.11,4.93,8.09,8.48,16.71,4.83,22.79Z"/>
  <path class="cls-1" d="m105.62,87.31c-14.12,8.38-20.02,21.57-21.77,26.31-3.44-2.33-6.46-5.63-8.55-9.82-3.15-6.33-6.42-11.39-9.61-15.42,9.29-27.57-8.25-35.31-8.25-35.31,1.22-3.62,1.44-9.74,1.2-16.22.1.05.77.41,1.94.9.84.36,1.95.79,3.3,1.22,1.25.41,2.72.83,4.35,1.19,1.46.33,3.07.61,4.8.82,1.33.16,2.74.27,4.21.32,1.09.04,2.22.04,3.38,0,1.16-.04,2.36-.13,3.57-.27,1-.11,2-.26,3.03-.45,1.43-.26,2.88-.59,4.36-1-.71,12.25-.91,24.57.77,28.11,1.81,3.79,8.08,11.25,13.07,19.31.07.11.14.21.19.32Z"/>
  <path class="cls-2" d="m91.59,39.58c-1.49.41-2.94.75-4.36,1-1.03.19-2.03.33-3.03.45-1.21.14-2.41.23-3.57.27-1.16.04-2.29.04-3.38,0-1.47-.05-2.88-.17-4.21-.32-1.72-.21-3.34-.5-4.8-.82-1.64-.36-3.1-.78-4.35-1.19-1.34-.43-2.45-.86-3.3-1.22-1.17-.48-1.84-.84-1.94-.9h0c-.46-12.55-2.65-26.49-2.65-26.49,0,0,1.46.04,3.86.1,1.39.04,3.09.07,5.01.12,1.35.03,2.8.07,4.33.1,1.52.02,3.11.06,4.73.09.97.01,1.95.03,2.93.05,1.25.02,2.51.03,3.76.06,1.28,0,2.57.02,3.82.03,3.49.03,6.79.03,9.52,0,0,0-1.53,14.31-2.35,28.68Z"/>
  <line class="cls-3" x1="59.84" y1="10.46" x2="60.59" y2="37.97"/>
  <line class="cls-3" x1="64.86" y1="10.58" x2="63.88" y2="39.18"/>
  <line class="cls-3" x1="69.18" y1="10.67" x2="68.23" y2="40.51"/>
  <line class="cls-3" x1="73.92" y1="10.76" x2="73.04" y2="40.98"/>
  <line class="cls-3" x1="76.85" y1="10.81" x2="77.25" y2="41.3"/>
  <line class="cls-3" x1="80.6" y1="10.86" x2="80.62" y2="41.29"/>
  <line class="cls-3" x1="84.42" y1="10.9" x2="84.19" y2="41.02"/>
  <line class="cls-3" x1="88.24" y1="10.92" x2="87.22" y2="40.58"/>
  <path class="cls-2" d="m42.76,98.01c-6.06-4.19-11.36-6.42-15.6-7.52-7.2-1.86-2.91-12.65-2.59-23.85,0,0,19.04,2.29,18.19,31.37Z"/>
  <path class="cls-2" d="m92.01,105.82c-2.5,10.09-13.93,14.3-24.52,11.04.29-5.04,2.09-19.38,13.15-31.51.03.02.07.05.1.08,7.07,6.3,12.98,13.51,11.27,20.39Z"/>
  <path class="cls-1" d="m80.64,85.35c-11.06,12.13-12.86,26.47-13.15,31.51-3.97-1.23-7.82-3.5-11.04-6.9-4.86-5.14-9.46-9.02-13.69-11.95.85-29.08-18.19-31.37-18.19-31.37.11-3.82-1.46-9.74-3.58-15.87.11.02.86.17,2.12.29.91.1,2.1.19,3.51.21,1.32.03,2.84,0,4.51-.13,1.49-.11,3.12-.31,4.83-.61,1.32-.24,2.7-.54,4.12-.92,1.05-.28,2.13-.61,3.23-.99,1.1-.38,2.22-.81,3.34-1.3.92-.4,1.84-.83,2.77-1.31,1.29-.66,2.58-1.4,3.88-2.23,2.89,11.93,6.29,23.77,8.93,26.66,2.84,3.1,11.01,8.41,18.13,14.66.1.08.19.16.28.25Z"/>
  <path class="cls-2" d="m53.3,43.78c-1.3.83-2.59,1.57-3.88,2.23-.93.48-1.85.91-2.77,1.31-1.12.49-2.24.92-3.34,1.3-1.1.38-2.18.71-3.23.99-1.42.38-2.8.68-4.12.92-1.71.3-3.34.5-4.83.61-1.67.13-3.19.16-4.51.13-1.41-.02-2.6-.11-3.51-.21-1.26-.12-2.01-.27-2.12-.29h-.01c-4.1-11.87-10.26-24.56-10.26-24.56,0,0,1.41-.39,3.72-1.03,1.34-.37,2.98-.83,4.83-1.35,1.3-.36,2.7-.75,4.17-1.17,1.46-.42,2.99-.85,4.55-1.29.93-.27,1.87-.54,2.82-.81,1.2-.35,2.41-.7,3.61-1.04,1.23-.37,2.46-.73,3.66-1.08,3.35-.99,6.5-1.95,9.11-2.78,0,0,2.71,14.13,6.11,28.12Z"/>
  <line class="cls-3" x1="14.44" y1="25.18" x2="23.17" y2="51.28"/>
  <line class="cls-3" x1="19.27" y1="23.83" x2="26.68" y2="51.48"/>
  <line class="cls-3" x1="23.43" y1="22.66" x2="31.22" y2="51.48"/>
  <line class="cls-3" x1="27.99" y1="21.37" x2="35.96" y2="50.53"/>
  <line class="cls-3" x1="30.81" y1="20.56" x2="40.08" y2="49.61"/>
  <line class="cls-3" x1="34.41" y1="19.51" x2="43.3" y2="48.62"/>
  <line class="cls-3" x1="38.07" y1="18.44" x2="46.64" y2="47.32"/>
  <line class="cls-3" x1="41.73" y1="17.35" x2="49.41" y2="46.01"/>
</svg>