<?xml version="1.0" encoding="UTF-8"?>
<svg id="Calque_1" data-name="Calque 1" xmlns="http://www.w3.org/2000/svg" viewBox="0 0 128 128.13">
  <defs>
    <style>
      .cls-1 {
        fill: #a07637;
      }

      .cls-1, .cls-2, .cls-3, .cls-4 {
        stroke-width: 2px;
      }

      .cls-1, .cls-2, .cls-3, .cls-4, .cls-5, .cls-6, .cls-7 {
        stroke-linecap: round;
        stroke-linejoin: round;
      }

      .cls-1, .cls-2, .cls-3, .cls-4, .cls-5, .cls-8, .cls-7, .cls-9 {
        stroke: #000;
      }

      .cls-2 {
        fill: #bfe6fc;
      }

      .cls-3, .cls-7 {
        fill: #fff;
      }

      .cls-4, .cls-5, .cls-6, .cls-8, .cls-9 {
        fill: none;
      }

      .cls-5 {
        stroke-width: 1.99px;
      }

      .cls-6 {
        stroke: #fff;
        stroke-width: 8px;
      }

      .cls-8, .cls-9 {
        stroke-miterlimit: 10;
      }

      .cls-7 {
        stroke-width: 3px;
      }

      .cls-9 {
        stroke-width: 2.35px;
      }
    </style>
  </defs>
  <path class="cls-4" d="m71.83,31.11c-.03-.16-.06-.33-.07-.5,14.67,1.36,22.42,5.6,21.29,7.59-.66,1.17-4.58,2.41-10.11,3.36-1.96.34-4.13.64-6.42.9-1.6.18-3.26.33-4.96.45-1.25.1-2.52.18-3.8.24-1.87.08-3.76.12-5.64.12-.43,0-.87,0-1.3-.01-4.21-.06-8.54-.41-12.53-.9-2.61-.33-5.09-.72-7.28-1.14-5.16-.98-8.81-2.12-9.28-2.9-.84-1.41,6.52-6.22,21.33-7.7"/>
  <path class="cls-2" d="m75.98,39.24c-1.48.16-3.18.28-5.08.37-1.17.05-2.42.08-3.75.11-1.27.02-2.61.03-4.02.03-5.99,0-10.8-.2-14.21-.68.33-.79.81-1.53,1.4-2.17l.77-.83c.96-1.03,1.6-2.3,1.87-3.67.04-.21.08-.43.1-.65.03-.28.05-.57.05-.85v-4.33h18.59v4.34c.01.28.03.56.06.83.01.17.04.34.07.5.25,1.42.91,2.75,1.9,3.83l.77.84c.64.69,1.14,1.48,1.48,2.33Z"/>
  <path class="cls-1" d="m68.45,16.25v4.09h-12.08v-4.09c0-.41.11-.79.31-1.12.68-1.14,2.23-2.31,2.56-3.6.29-1.17.44-2.38.44-3.59,0-.46-.02-.92-.06-1.38-.02-.2-.04-.4-.06-.59,0-1.55,1.28-2.8,2.86-2.8s2.86,1.25,2.86,2.8c-.02.2-.05.4-.06.59-.16,1.84,0,3.68.51,5.45.32,1.12,1.83,2.12,2.43,3.12.2.33.31.71.31,1.12Z"/>
  <path class="cls-3" d="m73.62,22.91l-2.13-.17c-5.98-.48-11.99-.49-17.98-.01l-2.31.18v5.78l2.25-.18c5.98-.48,11.99-.48,17.98,0l2.19.18v-5.78Z"/>
  <path class="cls-3" d="m72.47,22.82h0c-6.66-.6-13.35-.6-20.01,0h-.1s0-3.18,0-3.18h.11c6.66-.6,13.35-.6,20.01,0h0v3.18Z"/>
  <line class="cls-9" x1="52.64" y1="44.51" x2="57.73" y2="44.51"/>
  <path class="cls-7" d="m92.86,38.2v76.19s-10.28,8.62-30.77,8.62-30.14-8.62-30.14-8.62V38.32c.47.78,3.71,1.92,8.87,2.9,2.19.42,4.67.81,7.28,1.14,3.99.49,8.32.84,12.53.9.43.01.87.01,1.3.01,1.88,0,3.77-.04,5.64-.12,1.28-.06,2.55-.14,3.8-.24,1.7-.12,3.36-.27,4.96-.45,2.29-.26,4.46-.56,6.42-.9,5.53-.95,9.45-2.19,10.11-3.36Z"/>
  <path class="cls-4" d="m71.83,32.53c7.27.7,11.34,2.29,11.34,4.13,0,1.46-2.54,2.37-7.19,2.87-1.48.16-3.18.28-5.08.37-1.17.05-2.42.08-3.75.11-1.27.02-2.61.03-4.02.03-5.99,0-10.8-.2-14.21-.68-3.78-.52-5.83-1.39-5.83-2.7,0-1.71,3.53-3.2,9.87-3.97"/>
  <path class="cls-5" d="m71.06,106.97c0,2.34-.92,4.46-2.42,6.02-1.58,1.64-3.8,2.66-6.25,2.66-4.79,0-8.68-3.88-8.68-8.68,0-3.45,2.02-6.44,4.95-7.83,1.13-.54,2.39-.84,3.73-.84,4.79,0,8.67,3.88,8.67,8.67Z"/>
  <circle cx="53.71" cy="95.3" r="1.76"/>
  <circle cx="49.44" cy="102.06" r="1.76"/>
  <circle cx="75.94" cy="102.06" r="1.76"/>
  <circle cx="70.77" cy="95.3" r="1.76"/>
  <circle cx="62.41" cy="92.7" r="1.76"/>
  <line class="cls-8" x1="62.36" y1="99.87" x2="62.36" y2="104.19"/>
  <line class="cls-8" x1="58.25" y1="101.2" x2="60.72" y2="104.73"/>
  <line class="cls-8" x1="55.64" y1="104.64" x2="59.7" y2="106.12"/>
  <line class="cls-8" x1="55.48" y1="108.96" x2="59.65" y2="107.84"/>
  <line class="cls-8" x1="57.82" y1="112.58" x2="60.6" y2="109.28"/>
  <line class="cls-8" x1="61.82" y1="114.21" x2="62.2" y2="109.91"/>
  <line class="cls-8" x1="66.03" y1="113.25" x2="63.87" y2="109.51"/>
  <line class="cls-8" x1="68.93" y1="110.05" x2="65.02" y2="108.22"/>
  <line class="cls-8" x1="69.47" y1="105.76" x2="65.21" y2="106.51"/>
  <line class="cls-8" x1="67.45" y1="101.94" x2="64.39" y2="105"/>
  <rect class="cls-6" x="-3785.62" y="-1872.09" width="6467.34" height="6437.3"/>
</svg>