<?xml version="1.0" encoding="UTF-8"?>
<svg id="Calque_1" data-name="Calque 1" xmlns="http://www.w3.org/2000/svg" viewBox="0 0 128 128">
  <defs>
    <style>
      .cls-1 {
        stroke-dasharray: 0 0 13.12 13.12;
      }

      .cls-1, .cls-2, .cls-3, .cls-4, .cls-5, .cls-6, .cls-7, .cls-8 {
        stroke-miterlimit: 10;
      }

      .cls-1, .cls-7 {
        stroke: #f3d587;
        stroke-width: 2px;
      }

      .cls-1, .cls-7, .cls-9, .cls-8 {
        fill: none;
      }

      .cls-2, .cls-3, .cls-4, .cls-5, .cls-6 {
        stroke: #000;
      }

      .cls-10, .cls-4 {
        fill: #f3d587;
      }

      .cls-11 {
        fill: #d6d6d6;
      }

      .cls-3 {
        fill: #fff;
      }

      .cls-5 {
        fill: #afaff9;
      }

      .cls-6 {
        fill: #8987f3;
      }

      .cls-9 {
        stroke: #fff;
        stroke-linecap: round;
        stroke-linejoin: round;
        stroke-width: 8px;
      }

      .cls-8 {
        stroke: #d6d6d6;
      }
    </style>
  </defs>
  <rect class="cls-3" x="5.59" y="24.87" width="111.88" height="53.93" transform="translate(-9.83 14.68) rotate(-12.61)"/>
  <g>
    <path class="cls-10" d="m12.26,44.62c.06.27.06.52,0,.74-.06.23-.17.43-.33.61-.16.18-.35.33-.58.46-.23.13-.49.22-.77.28l-3.07.69-1.42-6.35,3.4-.76c.22-.05.43-.05.63,0,.2.06.38.15.54.27.16.12.29.28.41.45.11.18.19.37.23.56.07.31.06.62-.04.92-.09.31-.28.56-.54.76.39.03.72.15.99.38s.46.55.55.97Zm-1.3.05c-.03-.11-.07-.22-.13-.31-.06-.1-.13-.18-.22-.24s-.17-.11-.27-.13c-.1-.02-.2-.02-.31,0l-1.9.42.37,1.67,1.83-.41c.11-.03.21-.07.3-.13s.16-.14.22-.23c.05-.09.09-.19.11-.3.02-.11.02-.22,0-.34Zm-3.4-2.84l.36,1.6,1.65-.37c.21-.05.37-.16.48-.33.11-.18.14-.39.09-.64-.05-.24-.17-.42-.33-.54-.17-.11-.35-.15-.54-.1l-1.7.38Z"/>
    <path class="cls-10" d="m13.84,39.32l1.09-.24,3.84,5.81-1.27.28-.94-1.45-2.22.5-.23,1.71-1.27.28,1-6.89Zm2.29,3.58l-1.43-2.3-.35,2.7,1.79-.4Z"/>
    <path class="cls-10" d="m19.79,40.39l.91,4.07-1.23.28-1.42-6.35.96-.21,4.24,3.43-.93-4.16,1.23-.28,1.42,6.34-1,.22-4.18-3.34Z"/>
    <path class="cls-10" d="m26.29,43.21l-1.42-6.34,1.23-.28.67,3.01,1.99-3.62,1.36-.3-1.8,3.36,3.37,2.96-1.39.31-2.59-2.3-.62,1.03.42,1.9-1.23.28Z"/>
  </g>
  <rect class="cls-11" x="7.12" y="43.95" width="70.35" height="2.34" transform="translate(-8.83 10.32) rotate(-12.61)"/>
  <rect class="cls-11" x="84.34" y="47.44" width="29.85" height="13" transform="translate(-9.38 22.97) rotate(-12.61)"/>
  <rect class="cls-11" x="8.08" y="47.78" width="70.35" height="2.34" transform="translate(-9.64 10.62) rotate(-12.61)"/>
  <path d="m108.26,37.42c-.26.27-.74.59-1.39.72-.8.16-1.58,0-2.2-.47-.46-.34-.83-.87-1.07-1.56l-.62.13-.1-.49.57-.12-.03-.15c-.03-.16-.05-.31-.07-.45l-.59.12-.1-.5.65-.13c-.02-.72.15-1.36.47-1.85.4-.63.98-1.06,1.79-1.23.59-.12,1.08-.04,1.39.05l-.06.7c-.28-.1-.72-.14-1.17-.05-.54.11-.93.39-1.2.81-.24.35-.34.84-.33,1.39l2.77-.57.1.5-2.86.58c.02.13.04.28.07.42l.04.18,2.88-.59.1.49-2.81.57c.2.56.49.95.82,1.19.45.31.98.4,1.52.29s.94-.4,1.14-.58l.3.59Z"/>
  <rect class="cls-11" x="8.9" y="51.8" width="70.35" height="2.34" transform="translate(-10.5 10.9) rotate(-12.61)"/>
  <rect class="cls-8" x="12" y="61.71" width="26.78" height="13.97" transform="translate(-14.55 7.31) rotate(-12.76)"/>
  <rect class="cls-11" x="39.12" y="57.15" width="11.67" height="2.34" transform="translate(-11.64 11.22) rotate(-12.61)"/>
  <rect class="cls-11" x="40" y="61.16" width="11.67" height="2.34" transform="translate(-12.5 11.51) rotate(-12.61)"/>
  <rect class="cls-8" x="80.66" y="31.92" width="29.85" height="10.54" transform="translate(-5.81 21.76) rotate(-12.61)"/>
  <rect class="cls-11" x="14.01" y="75.72" width="38.22" height="2.34" transform="translate(-15.98 9.08) rotate(-12.61)"/>
  <g>
    <line class="cls-7" x1="15.28" y1="85.07" x2="21.13" y2="83.74"/>
    <line class="cls-1" x1="33.93" y1="80.84" x2="104.31" y2="64.9"/>
    <line class="cls-7" x1="110.71" y1="63.45" x2="116.56" y2="62.12"/>
  </g>
  <path class="cls-2" d="m42.75,111.33l-2.2,3.52,4.05-.93c-.13-.37-.36-.86-.75-1.42-.4-.56-.78-.93-1.09-1.17Z"/>
  <path class="cls-4" d="m47.06,104.44l-3.61,5.77c1.06.74,2.08,2.17,2.43,3.41l6.64-1.53c-.42-1.06-1.14-2.45-2.33-4.11-1.19-1.67-2.26-2.8-3.13-3.55Z"/>
  <g>
    <path class="cls-5" d="m74.33,84.95l-26.25,18.69c1.18,1.07,2.34,2.48,3.14,3.6.8,1.13,1.75,2.68,2.37,4.15l26.25-18.69c-.42-1.06-1.14-2.47-2.35-4.17-1.21-1.69-2.3-2.84-3.17-3.58Z"/>
    <path class="cls-6" d="m110.04,71.21l.24-.17c1.47-1.05,1.45-1.8.19-3.73l.21-.15c.83-.59.58-1.42-.01-2.24s-1.29-1.33-2.11-.74l-.25.18c-1.47-1.75-2.35-1.92-3.55-1.07l-29.36,20.9c1.19,1.08,2.34,2.47,3.15,3.6.8,1.13,1.75,2.67,2.38,4.15l3.81-2.71,1.13-.8,23.05-16.41,1.13-.8Z"/>
    <path class="cls-4" d="m109.66,73.06c-.93,1.4-1.71,2.8-2.87,4.11-2.37,2.65-5.5,4.75-8.71,6.23-1.07.5-2.13,1.04-3.2,1.47-1.06.47-2.12.89-3.15,1.3-1.05.42-2.02.84-2.97,1.34-.9.48-1.72,1.01-2.44,1.54l-1.07.88c-.32.29-.62.58-.87.87-.54.53-.84,1.09-1.15,1.52-.16.22-.82,1.09-.55,1.27.32.22,1.62-1.18,1.86-1.4.8-.74,1.72-1.3,2.67-1.81,1.65-.77,3.32-1.2,5.01-1.65,1.07-.29,2.2-.56,3.35-.97,1.14-.35,2.35-.85,3.55-1.29,1.2-.6,2.41-1.09,3.6-1.83,1.15-.73,2.31-1.52,3.32-2.46.99-.86,2.11-2.14,2.85-3.09.98-1.27,4.85-7.35,2.68-7.82-.02,0-.04,0-.06,0-.28,0-.64.29-.97.63l-.89,1.14Z"/>
  </g>
  <rect class="cls-9" x="-885.5" y="-52.99" width="1168.31" height="629.76"/>
</svg>