<?xml version="1.0" encoding="UTF-8"?>
<svg id="Calque_1" data-name="Calque 1" xmlns="http://www.w3.org/2000/svg" viewBox="0 0 128 128">
  <defs>
    <style>
      .cls-1 {
        fill: #d6d6d6;
      }

      .cls-1, .cls-2, .cls-3 {
        stroke: #000;
      }

      .cls-1, .cls-2, .cls-3, .cls-4 {
        stroke-linecap: round;
        stroke-linejoin: round;
      }

      .cls-2 {
        fill: #baa584;
      }

      .cls-3 {
        fill: #ffbeed;
      }

      .cls-4 {
        fill: none;
        stroke: #fff;
        stroke-width: 8px;
      }
    </style>
  </defs>
  <path class="cls-2" d="m38.7,78.65c.22-.45.38-.91.51-1.39.34-1.29.37-2.57.4-3.59.09-3.6-1.2-6.4-2.08-7.95"/>
  <path class="cls-2" d="m20.5,60.31c1.35-.57,2.65-1.07,2.65-1.07"/>
  <path class="cls-2" d="m32.89,82.91c-.11.07-.23.15-.35.23h0c.12-.09.23-.16.35-.23Z"/>
  <path class="cls-2" d="m39.86,110.24s-4.57.13-4.98,0c-.41-.14-.85-1.87-.85-1.87,0,0-1.36.14-1.52-.2-.17-.34.37-1.12.5-1.59.05-.15.1-.41.15-.68-.69-1.28-.79-2.45-1.23-4.41-.52-2.44-.62-1.71-1.46-5.29-.44-1.9-.58-3.15-1.47-4.81-.65-1.23-.8-1.18-1.06-1.96-.24-.71-.3-1.44-.26-2.1.03-.04.06-.07.09-.1,1.99-2.19,3.91-3.53,4.64-4.01.04-.03.08-.05.12-.07.13.6.24,1.05.32,1.22.91,2.05,1.69,3.65,2.51,4.48-.49.83-.87,1.65-1.11,2.64-.11.45-.27,1.34.3,5.32.43,2.97.64,4.44,1.14,6.24.33,1.23.68,2.25.97,3.07l.59.25,2.59,3.87Z"/>
  <path class="cls-2" d="m72.76,80.74c-.79,1.15-1.24,1.78-1.39,2.06-.67,1.34-1.53,3.04-1.63,5.27-.05,1.37.22,1.78-.12,2.83-.4,1.2-1.04,1.48-1.83,2.64-1.03,1.49-1.29,2.93-1.53,4.22-.48,2.59.17,3.27-.03,5.25-.02.27-.11,1.03.28,1.78.11.2.22.33.25.38.19.23.47.62.88,1.24.42.62.97,1.47,1.71,2.63-3.25.38-5.18-.15-5.18-.15-.22-.06-.6-.18-.8-.51-.07-.1-.25-.45,0-1.36.34-1.24.91-1.34.83-1.93-.05-.43-.4-.82-.73-1.11-.33-.29-.65-.47-.65-.47,0,0-.64-.23-.86-.51-.33-.4.02-1.18.39-2.04.29-.68.7-1.68,1.19-2.95,0,0,.66-1.49,1.44-3.54.36-.98.49-1.38.5-1.94.02-.86-.32-1.24-.25-2.11.04-.54.15-.81.42-1.94,0,0,.21-.9.42-1.94.33-1.66.13-3.31,0-4.3-.28-2.1-.82-3.57-1.24-4.62.45.15,1,.34,1.75.55,2.61.72,4.05,1.13,5.36.69.15-.05.34-.12.53-.04.38.17.37.84.28,1.92Z"/>
  <path class="cls-2" d="m80.23,62.32s.85,5.24.77,7.11c-.07,1.88.08,3.76-.77,5.09-.84,1.3-1.74,3.34-2.14,4.86"/>
  <polyline class="cls-2" points="94.65 45.02 94.41 49.54 96.15 48.04 95.63 50.75 97.56 49.26 97.69 51.19"/>
  <path class="cls-2" d="m39.21,77.26c-.13.47-.29.94-.51,1.39"/>
  <path class="cls-2" d="m116.31,50.92c-.33.8-.93,1.39-1.15,1.6-.31.31-.83.82-1.69,1.09-.14.04-1.63.47-2.99-.26-.69-.37-1.06-.88-1.74-.9h-.12c-.32.01-.54.12-.65.17-1.23.54-3.61.19-5.49-.62-.06-.02-.12-.04-.18-.07-1.97-.89-2.08-1.73-3.12-1.6l-1.43,2.01-.07-1.14c-.29.23-.65.52-1.11.89-1.28,1.07-1.92,1.59-2.07,1.73-1.54,1.45-1.75,2.61-3.56,6.11-1.31,2.54-1.96,3.82-3.16,5.46-1.32,1.8-1.84,2.08-2.78,3.76-.99,1.79-.82,2.26-1.77,3.6-1.1,1.53-1.75,1.52-3,2.95-.36.41-1.47,1.75-2.16,3.68-.01.04-.02.08-.04.12-.08.24-.15.49-.22.74-.72,2.79.13,4.54-.52,6.76-.05.2-.24.78-.17,1.56.07.78.34,1.03.56,1.73.31,1.02.18,1.86-.08,3.56-.17,1.05-.27,1.13-.43,2.03-.39,2.09-.06,2.83.08,6.72.03.81.04,1.39.39,2.03.21.39.37.49.34.74-.02.17-.13.34-.3.5l1.19.5,2.59,3.87s-4.57.13-4.99,0c-.4-.14-.84-1.87-.84-1.87,0,0-1.36.14-1.53-.2-.17-.34.37-1.12.51-1.59.01-.03.02-.07.02-.11-.53.14-.79.47-1.03.36-.23-.11-.22-.59-.21-.73.05-1.44.07-2.16.43-3.34,0,0,.61-2.03.43-4.41-.02-.24-.28-1.46-.81-3.87-.37-1.66-.46-2.04-.53-2.74-.14-1.27-.03-1.88,0-3.14.06-2.7-.35-2.6-.33-5.07.01-1.1.1-2.04.16-2.79.09-1.08.1-1.75-.28-1.92-.19-.08-.38-.01-.53.04-1.31.43-2.74.03-5.36-.69-.75-.21-1.3-.4-1.75-.55h-.01c-.73-.25-1.26-.39-2.12-.34-.49.02-.83.1-1.5.23-1.48.28-2.97.48-4.44.73-3.3.56-8.59.61-11.72.58-.88-.01-1.6-.02-2.04-.03-1.14-.02-2.59-.06-4.3-.14-.24.5-.55,1-.96,1.46-.24.28-.47.49-.69.65-.13.1-.27.19-.41.26-.12.08-.25.14-.38.2-.34.16-.73.31-1.21.52-.14.06-.29.13-.45.21-.16.07-.32.16-.5.25-.16.09-.33.19-.52.29-.18.11-.38.22-.58.35-.03.02-.06.04-.1.06-.12.07-.23.14-.35.22h0s-.08.05-.12.08c-.72.48-2.64,1.82-4.64,4.01-.03.03-.06.06-.09.1-.87.98-1.99,2.24-3.02,4.19-1.45,2.75-1.8,5.13-1.87,5.6-.32,2.31-.06,4.2.03,4.79.18,1.16.38,2.06.38,2.06.47,2.06,1,3.26.55,3.6l2.59,3.87s-4.57.13-4.98,0c-.41-.14-.85-1.87-.85-1.87,0,0-1.36.14-1.52-.2-.17-.34.37-1.12.5-1.59.04-.15.09-.38.14-.63h0c.07-.45.13-.95.15-1.15.02-.06.02-.1.02-.1.06-.23.04-.16-.55-9.19-.07-1.16-.14-2.16-.75-3.26-.53-.92-.92-.98-.97-1.51-.1-1.23,1.87-1.82,3.52-3.75.82-.96,1.2-1.88,1.94-3.73,1.52-3.8,2.74-6.85,1.7-9.74-.68-1.92-1.59-1.6-3.17-4.69-.68-1.34-1.42-2.78-1.65-4.69-.21-1.71.02-3.44.6-5.04-.93.39-1.89.83-2.44,1.19-1.36.85-2.35,1.77-2.35,1.77,0,0-.06-2.52.8-3.27.85-.75,8.18-6.96,11.51-6.91,3.19-1.62,5.79-2.94,9.09-3.59,1.08-.2,1.52-.21,7.85-.13,10.13.12,10.7.15,12.27-.14,3.34-.61,3.91-1.32,7.85-1.79,3.15-.38,5.81-.29,6.19-.28,4.87.19,5.48,1.16,8.13.55,2.34-.52,4.04-1.77,5.37-2.76,1.25-.91,2.18-1.91,4-3.85,3.12-3.36,3.48-4.26,5.64-5.93.32-.25.89-.67,1.69-1.12.58-.33,1.28-.66,2.08-.95.2-.07.39-.13.57-.18.19-.06.37-.1.55-.14l.13-.03.67-.17,2.27-.58.95-.24-.61,1.49-.16.38.4-.21,1.74-.88-.43,1.91s.03.03.05.04c.71.6,1.51,1.38,2.22,2.43.12.18.22.34.3.49.88,1.48.59,2.03,1.78,3.58.36.47.92,1.02,2.03,2.08,1.71,1.63,1.97,1.72,3.08,2.82,1.08,1.07,1.84,1.83,2.29,2.5-.67-.02-1.4-.02-1.71.07-.62.17-.96.65-.8,1.05.15.39.77,1.38,1.26,1.41.24.02.91.02,1.54,0Z"/>
  <path class="cls-2" d="m107.2,55.38c-.51,1.08-.65,2.38-.65,3.89s.65,3.47.65,3.47c0,0-.52-.18-.96-.65-.4-.43-1.24-2.3-1.55-1.76-.31.53-.14.85,0,1.5-.48-.34-.84-2.96-1.25-2.41s-.4.54-.52,1.16c-.28-.77-.38-4.53-.38-4.53l-.65.73s-.18-1.83,0-2.69c.13-.64.38-1.47.59-2.09,1.88.81,4.26,1.17,5.49.62.11-.05.33-.16.65-.17h.12c-.55,1.04-1.26,2.34-1.55,2.95Z"/>
  <path class="cls-2" d="m92.97,40s2.44-2.79,3.82-3.84,4.26-2.06,4.26-2.06c0,0-.41,3.79-1.87,5.25-1.46,1.46-5.35,3.2-5.35,3.2"/>
  <path class="cls-2" d="m111.01,31.27s-.13,2.51-1.48,3.84c-.74.73-1.85,1.64-2.68,2.3-.08-.15-.18-.31-.3-.49-.71-1.06-1.51-1.83-2.22-2.43,1.19-.22,2.96-.6,3.9-1.05,1.51-.7,2.79-2.17,2.79-2.17Z"/>
  <path class="cls-1" d="m116.55,49.87c-.01.37-.1.72-.24,1.05-.62.02-1.3.02-1.54,0-.48-.03-1.11-1.02-1.26-1.41-.15-.39.18-.87.8-1.05.31-.09,1.04-.09,1.71-.07.36.52.53.99.52,1.48Z"/>
  <path class="cls-2" d="m39.21,77.26c-.13.47-.29.94-.51,1.39"/>
  <g>
    <path class="cls-3" d="m45.04,78.82c-.4,1.86-1.25,5.3-2.16,6.35-.44.51-.86,1.04-1.29,1.54-.57.67-1.17,1.31-1.85,1.79v2.06s0,.05-.01.07c-.03.71-.61,1.28-1.34,1.28s-1.35-.6-1.35-1.35v-1.1c-.13.02-.26.02-.39.02-.45,0-.87-.23-1.29-.64-.82-.83-1.6-2.43-2.51-4.48-.08-.17-.19-.61-.32-1.22.12-.08.24-.16.35-.23.04-.02.07-.04.1-.06.2-.13.4-.24.58-.35.19-.1.36-.2.52-.29.18-.09.34-.18.5-.25.16-.08.31-.15.45-.21.47-.21.86-.36,1.21-.52.13-.06.26-.12.38-.2.14-.07.28-.16.41-.26.22-.16.45-.37.69-.65.4-.46.71-.96.96-1.46,1.71.08,3.17.12,4.3.14.44.01,1.16.02,2.04.03Z"/>
    <path class="cls-3" d="m41.6,86.71v2.68c0,.74-.6,1.35-1.35,1.35-.18,0-.35-.04-.51-.11.01-.02.01-.05.01-.07v-2.06c.68-.48,1.28-1.12,1.85-1.79Z"/>
  </g>
  <path class="cls-1" d="m100.12,32.59l-.67.17-.13.03c-.18.04-.36.08-.55.14-.18.05-.37.11-.57.18-.8.28-1.5.61-2.08.95-.46-1.05-1.31-2.7-2.55-4.14-1.57-1.8-7.25-3.8-7.25-3.8,0,0,4.72-1.01,8.72,1.22.66.37,1.37.97,2.04,1.64,1.27,1.25,2.43,2.78,3.06,3.62Z"/>
  <path class="cls-1" d="m102.39,32.01l-2.27.58c-.62-.84-1.79-2.37-3.06-3.62-1.7-2.07-5.32-4.58-5.32-4.58,0,0,4.81.27,8.07,3.48.98.95,1.89,2.64,2.57,4.14Z"/>
  <circle cx="103.11" cy="42.16" r="1.03"/>
  <rect class="cls-4" x="-665.57" y="-164.33" width="3385.57" height="2571.67"/>
</svg>