<?xml version="1.0" encoding="UTF-8"?>
<svg id="Calque_1" data-name="Calque 1" xmlns="http://www.w3.org/2000/svg" viewBox="0 0 128 128">
  <defs>
    <style>
      .cls-1, .cls-2, .cls-3 {
        stroke: #000;
      }

      .cls-1, .cls-2, .cls-4 {
        fill: none;
        stroke-linecap: round;
        stroke-linejoin: round;
      }

      .cls-5 {
        fill: #87f3b9;
      }

      .cls-2 {
        stroke-width: 2px;
      }

      .cls-3 {
        stroke-miterlimit: 10;
        stroke-width: .25px;
      }

      .cls-4 {
        stroke: #fff;
        stroke-width: 8px;
      }
    </style>
  </defs>
  <path class="cls-5" d="m41.17,43.38s-10-23.68,10.38-29.34c0,0,1.14-4.3,6.1-2.91,0,0,4.94-6.16,13.03-.15,0,0,4.56-1.47,6.1,2.91,0,0,18.7,3.12,10.38,29.34,0,0,.18-6.76-6.31-17.37,0,0-2.65-.04-4.12-1.84,0,0-4.52,1.11-6.6-2.52,0,0-3.41,2.89-7.18.3,0,0-2.81,3.06-7.35.97,0,0-1.47,1.62-5.62,1.46,0,0-.47.88-3.84,1.92,0,0-4.94,7.55-4.95,17.22Z"/>
  <path class="cls-1" d="m44.95,43.35s10.44-5.83,15.67,6.81"/>
  <path class="cls-1" d="m48.13,46.03s3.81-3.11,8.33.71"/>
  <path class="cls-1" d="m56.13,50.88s-1.08-.12-3.13.07c-3.69.35-5.48-1.65-5.48-1.65l.06-.66s4.85-4.27,9.9,1.73"/>
  <path class="cls-1" d="m60.1,57.69s-3.2,3.26,0,5.65"/>
  <path class="cls-1" d="m60.32,61.63s1.33,1.15,2.37,1.59"/>
  <path class="cls-2" d="m51.5,16.04s3.08,8.27,8.03,8.1c4.96-.17,5.6-9.05,5.6-9.05"/>
  <path class="cls-2" d="m43.91,22.6s6.09,4.4,12.55.54"/>
  <path class="cls-2" d="m42.06,27s6.27.05,8.88-2.27"/>
  <path class="cls-2" d="m41.01,43.89s-4.99-2.84-5.2,1.89c-.21,4.73,1.78,4.35,3.13,9.03,1.35,4.68,4.27,5.38,4.27,5.38"/>
  <path class="cls-2" d="m1.68,123.58s.74-18.04,19.87-20.77c19.13-2.72,28.94-13.92,28.13-28.04"/>
  <path class="cls-1" d="m33.96,104.1s24.5,1.72,27.71,7.84"/>
  <path class="cls-1" d="m63,15.38s-.76,3.26-2.25,5.56"/>
  <circle class="cls-1" cx="52.11" cy="49.23" r="1.67"/>
  <circle class="cls-3" cx="52.62" cy="49.2" r=".82"/>
  <path class="cls-1" d="m83.05,43.2s-10.44-5.83-15.67,6.81"/>
  <path class="cls-1" d="m79.87,45.87s-3.81-3.11-8.33.71"/>
  <path class="cls-1" d="m67.9,57.54s3.2,3.26,0,5.65"/>
  <path class="cls-2" d="m84.09,22.45s-10.24,5.03-14.14-.44"/>
  <path class="cls-2" d="m85.94,26.85s-6.34.22-8.96-2.1"/>
  <path class="cls-2" d="m81.26,27.23s6.16,10.67,5.72,16.51c0,0,8.97-23.15-10.38-29.34,0,0-1.05-3.91-6.1-2.91-6.65-5.8-13.03.15-13.03.15-5.05-1.01-6.1,2.91-6.1,2.91-19.34,6.2-10.38,29.34-10.38,29.34-.44-5.84,5.72-17.65,5.72-17.65"/>
  <path class="cls-2" d="m87.05,42.63s-.48,23.5-9.28,32.6c-8.8,9.1-13.68,8.08-13.68,8.08l.15.02s-5.23,1.15-14.03-7.95c-8.8-9.1-9.28-32.6-9.28-32.6"/>
  <path class="cls-2" d="m86.99,43.74s4.99-2.84,5.2,1.89c.21,4.73-1.78,4.35-3.13,9.03s-4.27,5.38-4.27,5.38"/>
  <path class="cls-2" d="m126.32,123.43s-.74-18.04-19.87-20.77c-19.13-2.72-28.94-13.92-28.13-28.04"/>
  <path class="cls-1" d="m94.04,103.95s-24.5,1.72-27.71,7.84"/>
  <path class="cls-2" d="m63.08,21.87s4.29,5.43,10.07-3.66"/>
  <path class="cls-1" d="m56.68,67.69h14.05s-7.02,5.86-14.05,0Z"/>
  <path class="cls-1" d="m58.29,71.06s5.32,3.16,11.03-.1"/>
  <path class="cls-1" d="m71.84,50.69s1.08-.12,3.13.07c3.69.35,5.48-1.65,5.48-1.65l-.06-.66s-4.85-4.27-9.9,1.73"/>
  <circle class="cls-1" cx="75.86" cy="49.04" r="1.67"/>
  <path class="cls-1" d="m67.68,61.63s-1.33,1.15-2.37,1.59"/>
  <circle class="cls-3" cx="76.53" cy="49.04" r=".82"/>
  <rect class="cls-4" x="-794.63" y="-1203.44" width="6467.34" height="6437.3"/>
</svg>