<?xml version="1.0" encoding="UTF-8"?>
<svg id="Calque_1" data-name="Calque 1" xmlns="http://www.w3.org/2000/svg" viewBox="0 0 128 128">
  <defs>
    <style>
      .cls-1, .cls-2, .cls-3, .cls-4, .cls-5 {
        stroke: #000;
      }

      .cls-1, .cls-3 {
        fill: #f3d587;
      }

      .cls-1, .cls-6 {
        stroke-linecap: round;
        stroke-linejoin: round;
      }

      .cls-2 {
        fill: #fff;
      }

      .cls-2, .cls-3, .cls-4, .cls-5 {
        stroke-miterlimit: 10;
      }

      .cls-4 {
        fill: #76ac75;
      }

      .cls-6 {
        stroke: #fff;
        stroke-width: 8px;
      }

      .cls-6, .cls-5 {
        fill: none;
      }
    </style>
  </defs>
  <path class="cls-4" d="m101.56,18.08c0,.54-.07,1.18-.15,1.72-.09.62-.19,1.09-.19,1.09l-.42-.03c-.96-.03-3.4-.02-5.59.92-2.82,1.2-6.54,1.91-9.77,1.1-3.22-.8-12.89-3.62-15.71-3.82-2.82-.2-15.3-.3-19.53.4s-10.06,1-13.49.71c-3.42-.3-8.56-1.01-8.56-1.01,0,0-.17-.19-.38-.51-.38-.52-.91-1.37-1.14-2.26-.05-.15-.07-.3-.09-.45-.2-1.62-.05-2.8-.05-2.8l1.23.2s11.54,1.39,16.5.99c4.97-.39,8.56-2.18,17.5-2.18s14.76,2.24,18.73,3.62c3.98,1.39,6.21,2.17,9,1.38,2.78-.8,3.74-1.82,5.49-1.82s6.23.09,6.23.09c0,0,.39,1.5.39,2.65Z"/>
  <path class="cls-5" d="m101.3,23.7h0c-.05.26-.08.42-.08.42,0,0-3.19-.31-6,.89-2.82,1.2-6.54,1.91-9.77,1.11-3.22-.81-12.89-3.63-15.71-3.83-2.82-.2-15.3-.3-19.53.4-4.23.71-10.06,1.01-13.49.71-3.42-.3-8.56-1.01-8.56-1.01,0,0-.28-.33-.61-.82.07-1.06.16-2.1.22-2.91.21.31.38.51.38.51,0,0,5.14.71,8.56,1.01,3.43.29,9.27,0,13.49-.71s16.71-.61,19.53-.4c2.82.2,12.49,3.02,15.71,3.82,3.23.81,6.95.1,9.77-1.1,2.19-.94,4.63-.96,5.59-.92l.42.03s.06,1.3.08,2.81Z"/>
  <path class="cls-4" d="m101.56,52.5c-.02-.9-2.07-2.96-5.26-6.26-8.03-8.29-18.06-11.91-22.63-13.3-7.29-2.2-12.96-2.46-19.1-2.74-.71-.03-7.53-.3-15.9,1.37-3.1.62-4.79,1.18-6.43,2.45-.85.66-3.47,2.23-4.05,3.02-.43-1.43-.29-4.5-.63-5.57-.53-1.72-.19-3.8-.19-6.06,0-.9.09-2.37.19-3.83.33.49.61.82.61.82,0,0,5.14.71,8.56,1.01,3.43.3,9.27,0,13.49-.71,4.23-.71,16.71-.61,19.53-.4,2.82.2,12.49,3.02,15.71,3.83,3.23.8,6.95.09,9.77-1.11,2.81-1.2,6-.89,6-.89,0,0,.03-.16.08-.4.01,1.29.01,2.72-.08,3.63-.18,1.98-1.57,5.07-1.47,7.85.1,2.79,1.73,7.47,1.81,10.65.08,3.18,0,6.66,0,6.66Z"/>
  <path class="cls-4" d="m26.93,109.92c0-.54.07-1.18.15-1.72.09-.62.19-1.09.19-1.09l.42.03c.96.03,3.4.02,5.59-.92,2.82-1.2,6.54-1.91,9.77-1.1,3.22.8,12.89,3.62,15.71,3.82,2.82.2,15.3.3,19.53-.4,4.23-.71,10.06-1,13.49-.71,3.42.3,8.56,1.01,8.56,1.01,0,0,.17.19.38.51.38.52.91,1.37,1.14,2.26.05.15.07.3.09.45.2,1.62.05,2.8.05,2.8l-1.23-.2s-11.54-1.39-16.5-.99c-4.97.39-8.56,2.18-17.5,2.18s-14.76-2.24-18.73-3.62c-3.98-1.39-6.21-2.17-9-1.38-2.78.8-3.74,1.82-5.49,1.82s-6.23-.09-6.23-.09c0,0-.39-1.5-.39-2.65Z"/>
  <path class="cls-5" d="m27.19,104.3h0c.05-.26.08-.42.08-.42,0,0,3.19.31,6-.89,2.82-1.2,6.54-1.91,9.77-1.11,3.22.81,12.89,3.63,15.71,3.83,2.82.2,15.3.3,19.53-.4,4.23-.71,10.06-1.01,13.49-.71,3.42.3,8.56,1.01,8.56,1.01,0,0,.28.33.61.82-.07,1.06-.16,2.1-.22,2.91-.21-.31-.38-.51-.38-.51,0,0-5.14-.71-8.56-1.01-3.43-.29-9.27,0-13.49.71-4.23.71-16.71.61-19.53.4-2.82-.2-12.49-3.02-15.71-3.82-3.23-.81-6.95-.1-9.77,1.1-2.19.94-4.63.96-5.59.92l-.42-.03s-.06-1.3-.08-2.81Z"/>
  <path class="cls-5" d="m27.46,75.8h0c-.03.67-.08,1.28-.11,1.86.2,1.24.39,2.86.44,4.43.03,1.38.2,3.05.39,4.72"/>
  <path class="cls-4" d="m27.2,104.28c-.01-1.29-.01-2.72.08-3.63.18-1.98,1.57-5.07,1.47-7.85-.06-1.59-.34-3.79-.57-5.99.06.13.13.27.22.4,1.62,2.56,3.97,3.82,7.96,5.51,11.92,5.03,18.92,7.98,29.65,7.95,8.3-.03,13.92-1.83,22.02-4.43,6.39-2.06,8.44-3.44,9.79-5.51.07-.1.13-.2.18-.3.26.87,1.34,4.41,1.81,5.93.53,1.72,1.33,3.98,1.33,6.24,0,.9-.09,2.37-.19,3.83-.33-.49-.61-.82-.61-.82,0,0-5.14-.71-8.56-1.01-3.43-.3-9.27,0-13.49.71-4.23.71-16.71.61-19.53.4-2.82-.2-12.49-3.02-15.71-3.83-3.23-.8-6.95-.09-9.77,1.11-2.81,1.2-6,.89-6,.89,0,0-.03.16-.08.4"/>
  <path class="cls-4" d="m28.18,86.81c.06.13.13.27.22.4,1.62,2.56,3.97,3.82,7.96,5.51,11.92,5.03,18.92,7.98,29.65,7.95,8.3-.03,13.92-1.83,22.02-4.43,6.39-2.06,8.44-3.44,9.79-5.51.07-.1.13-.2.18-.3,1.38-2.33.76-4.12,1.35-13.61.06-.96.39-4.77,1.07-12.39.49-5.6,1.17-10.21,1.14-11.93-.02-.9-2.07-2.96-5.26-6.26-8.03-8.29-18.06-11.91-22.63-13.3-7.29-2.2-12.96-2.46-19.1-2.74-.71-.03-7.53-.3-15.9,1.37-3.1.62-4.79,1.18-6.43,2.45-.85.66-2.95,1.42-3.54,2.2-1.9,2.55-1.15,5.52-1.5,7.27-.75,3.69-.27,5.81.15,10.69.6,6.98.44,12.56.31,17.28-.04,1.63-.11,3.06-.19,4.33h0c-.03.67-.08,1.28-.11,1.86"/>
  <ellipse class="cls-2" cx="64.2" cy="50.9" rx="14.56" ry="31.84" transform="translate(2.74 105.07) rotate(-79.81)"/>
  <path class="cls-3" d="m76.99,83.28c2.93-.82,5.45-2.2,6.79-5.08,1.08-2.31,1.18-5,.6-7.48-.78-3.31-3.68-6.4-7.38-4.92-2.03.82-2.67,3.58-4.37,4.92-2.34,1.84-5.22,2.87-7.51,4.8-.5.42-.99.92-1.12,1.57-.11.57.08,1.15.33,1.68,2.27,4.87,7.93,5.84,12.66,4.51Z"/>
  <path class="cls-3" d="m45.09,73.43c-2.93-.82-5.45-2.2-6.79-5.08-1.08-2.31-1.18-5-.6-7.48.78-3.31,3.68-6.4,7.38-4.92,2.03.82,2.67,3.58,4.37,4.92,2.34,1.84,5.22,2.87,7.51,4.8.5.42.99.92,1.12,1.57.11.57-.08,1.15-.33,1.68-2.27,4.87-7.93,5.84-12.66,4.51Z"/>
  <g>
    <path class="cls-1" d="m68.53,77.82c-.38,1.97-1.28,3.81-2.35,5.63-.31.53-.63,1.06-1.07,1.49-.75.75-1.94,1-2.97,1.14-.95-.62-1.63-1.05-2.14-1.41-1.33-.93-1.69-1.43-2.94-3.05-.55-.73-.87-1.7-1.21-2.33-.04-.09-.1-.17-.14-.25.33-.47.73-1.06,1.16-1.83,1.31-2.31,1.1-2.79,2.25-4.29.97-1.28,2.14-2.8,3.94-3.06,2.64-.37,5.19,1.95,5.56,4.44.18,1.23.13,2.4-.08,3.53Z"/>
    <path class="cls-1" d="m62.18,86.16c-.08.01-.17.03-.26.04-.06.01-.12.01-.18,0-2.03.16-6.18-1.61-6.78-1.7-2.24-.36-4.21-.84-5.3-1.42-.53-.29-1.66-.9-1.89-1.96-.33-1.56,1.42-3.34,3.17-3.88.32-.1,1.57-.46,2.91.09.89.37,1.37.98,1.89,1.79.04.08.1.15.14.25.34.63.66,1.6,1.21,2.33,1.25,1.62,1.61,2.12,2.94,3.05.52.36,1.2.79,2.14,1.41Z"/>
  </g>
  <rect class="cls-6" x="-380.24" y="-1054.38" width="3385.57" height="2571.67"/>
</svg>