<?xml version="1.0" encoding="UTF-8"?>
<svg id="Calque_1" data-name="Calque 1" xmlns="http://www.w3.org/2000/svg" viewBox="0 0 587.72 194.82">
  <defs>
    <style>
      .cls-1, .cls-2, .cls-3, .cls-4, .cls-5, .cls-6, .cls-7, .cls-8, .cls-9, .cls-10, .cls-11, .cls-12 {
        stroke-linecap: round;
        stroke-linejoin: round;
      }

      .cls-1, .cls-2, .cls-3, .cls-4, .cls-5, .cls-6, .cls-7, .cls-8, .cls-13, .cls-14, .cls-12 {
        stroke: #010101;
      }

      .cls-1, .cls-14 {
        fill: #76ac76;
      }

      .cls-2 {
        fill: #d6d7d7;
      }

      .cls-3, .cls-15 {
        fill: #b8dbbf;
      }

      .cls-4 {
        fill: #7f82be;
      }

      .cls-5 {
        fill: #aeadd7;
      }

      .cls-6, .cls-16, .cls-13 {
        fill: #fff;
      }

      .cls-7 {
        fill: #ed6d76;
      }

      .cls-8, .cls-9, .cls-10, .cls-11 {
        fill: none;
      }

      .cls-9, .cls-11 {
        stroke: #cfaa57;
        stroke-width: 3px;
      }

      .cls-17 {
        fill: #f7e7d5;
      }

      .cls-18 {
        fill: #010101;
      }

      .cls-19 {
        fill: #b8dfde;
      }

      .cls-20 {
        fill: #cfaa57;
      }

      .cls-21 {
        fill: #dfdfe0;
      }

      .cls-13, .cls-14 {
        stroke-miterlimit: 10;
      }

      .cls-10 {
        stroke: #fff;
        stroke-width: 8px;
      }

      .cls-11 {
        stroke-dasharray: 0 0 0 0 0 0 .34 6.78;
      }

      .cls-12 {
        fill: #89ccf2;
        isolation: isolate;
        opacity: .4;
      }
    </style>
  </defs>
  <rect class="cls-10" x="-970.29" y="-4168.7" width="6467.34" height="6437.3"/>
  <g id="Titres_catégories" data-name="Titres catégories">
    <g>
      <path class="cls-14" d="m570.88,52.05h.07c.17,0,.35.02.51.05,1.16.24,2.03,1.26,2.03,2.48v6.13h-55.79v-6.13c0-.15.02-.31.04-.46l.03-.12c.03-.11.07-.23.1-.33l.03-.09c.05-.13.12-.25.2-.37l.02-.03.06-.08c.06-.08.13-.15.19-.23l.11-.11c.09-.09.19-.17.29-.24l.03-.03.27-.15c.05-.03.1-.06.15-.09.21-.09.44-.15.68-.18.1-.02.2-.02.31-.02h.16v.02h1.53v-.02h2.92v.02h1.53v-.02h2.92v.02h1.53v-.02h2.92v.02h1.53v-.02h2.95v.02h1.53v-.02h4.45s2.91,0,2.91,0h1.53s2.92,0,2.92,0h18.9"/>
      <path class="cls-8" d="m570.88,52.05h.07c.17,0,.35.02.51.05,1.16.24,2.03,1.26,2.03,2.48v6.13h-55.79v-6.13c0-.15.02-.31.04-.46l.03-.12c.03-.11.07-.23.1-.33l.03-.09c.05-.13.12-.25.2-.37l.02-.03.06-.08c.06-.08.13-.15.19-.23l.11-.11c.09-.09.19-.17.29-.24l.03-.03.27-.15c.05-.03.1-.06.15-.09.21-.09.44-.15.68-.18.1-.02.2-.02.31-.02h.16v.02h1.53v-.02h2.92v.02h1.53v-.02h2.92v.02h1.53v-.02h2.92v.02h1.53v-.02h2.95v.02h1.53v-.02h4.45s2.91,0,2.91,0h1.53s2.92,0,2.92,0h18.9"/>
      <path class="cls-17" d="m518.82,52.49l-.03.03.03-.03Z"/>
      <path class="cls-17" d="m517.7,90.69c0,.35.08.68.2.99-.13-.31-.2-.64-.2-.99Z"/>
      <path class="cls-17" d="m573.06,92.09l-.05.06.05-.06Z"/>
      <path class="cls-17" d="m572.78,92.42l-.08.09.08-.09Z"/>
      <path class="cls-17" d="m520.23,93.22c-.35,0-.69-.07-.99-.2.31.13.64.2.99.2Z"/>
      <path class="cls-17" d="m572.31,92.82l.08-.04h.02l-.09.04h0Z"/>
      <path class="cls-17" d="m571.98,92.99l-.07.03.07-.03Z"/>
      <path class="cls-17" d="m518.13,92.11c.16.24.37.44.6.61l.09.07c-.27-.18-.5-.42-.69-.68h0Z"/>
      <path class="cls-17" d="m571.5,93.16l-.1.02.1-.02Z"/>
      <path class="cls-8" d="m517.7,60.72v29.97c0,.35.08.68.2.99.07.15.14.3.24.43.19.27.42.5.69.68.14.09.28.17.43.23.31.13.64.2.99.2h50.7c.15,0,.31-.02.46-.04l.1-.02c.14-.03.28-.08.41-.13l.07-.03c.11-.05.22-.11.33-.18l.09-.05c.11-.08.21-.16.31-.26l.08-.09c.09-.09.15-.18.22-.27l.05-.06h0c.26-.41.43-.89.43-1.4v-29.97m-53.55,1.85h51.46v27.92h-51.46v-27.92h0Z"/>
      <path class="cls-21" d="m521.16,55.3c.07,0,.14,0,.2-.03-.07.02-.13.03-.2.03Z"/>
      <path class="cls-21" d="m521.4,55.25c.05-.02.11-.04.15-.08-.05.03-.1.05-.15.08Z"/>
      <path class="cls-21" d="m521.85,54.88c-.07.12-.16.23-.27.3.12-.08.21-.18.27-.3Z"/>
      <path class="cls-21" d="m525.62,55.3c.07,0,.14,0,.2-.03-.06.02-.13.03-.2.03Z"/>
      <path class="cls-21" d="m525.86,55.25c.06-.02.11-.04.15-.08-.05.03-.1.05-.15.08Z"/>
      <path class="cls-21" d="m530.31,55.25c.05-.02.11-.04.15-.08-.05.03-.1.05-.15.08Z"/>
      <path class="cls-21" d="m530.75,54.88c-.07.12-.16.23-.27.3.11-.08.21-.18.27-.3Z"/>
      <path class="cls-21" d="m530.07,55.3c.07,0,.14,0,.2-.03-.07.02-.13.03-.2.03Z"/>
      <path class="cls-21" d="m534.76,55.25c.06-.02.11-.04.15-.08-.05.03-.1.05-.15.08Z"/>
      <path class="cls-21" d="m534.52,55.3c.07,0,.14,0,.2-.03-.06.02-.13.03-.2.03Z"/>
      <path class="cls-21" d="m534.03,55.12l-.1-.1.1.1Z"/>
      <path class="cls-21" d="m539,55.3c.07,0,.14,0,.2-.03-.06.02-.13.03-.2.03Z"/>
      <path class="cls-21" d="m539.24,55.25c.05-.02.11-.04.15-.08-.05.03-.1.05-.15.08Z"/>
      <path class="cls-21" d="m542.97,55.12l-.1-.1.1.1Z"/>
      <path class="cls-21" d="m543.69,55.25c.06-.02.11-.04.15-.08-.05.03-.1.05-.15.08Z"/>
      <path class="cls-21" d="m543.45,55.3c.07,0,.14,0,.2-.03-.06.02-.12.03-.2.03Z"/>
      <path class="cls-21" d="m547.9,55.3c.07,0,.14,0,.2-.03-.06.02-.13.03-.2.03Z"/>
      <path class="cls-21" d="m548.14,55.25c.05-.02.11-.04.15-.08-.05.03-.1.05-.15.08Z"/>
      <path class="cls-21" d="m552.59,55.25c.06-.02.11-.04.15-.08-.05.03-.1.05-.15.08Z"/>
      <path class="cls-21" d="m552.36,55.3c.07,0,.14,0,.2-.03-.06.02-.13.03-.2.03Z"/>
      <path class="cls-21" d="m556.79,55.3c.07,0,.14,0,.2-.03-.07.02-.13.03-.2.03Z"/>
      <path class="cls-21" d="m557.47,54.88c-.06.12-.16.23-.27.3.12-.08.21-.18.27-.3Z"/>
      <path class="cls-21" d="m557.03,55.25c.05-.02.11-.04.15-.08-.05.03-.1.05-.15.08Z"/>
      <path class="cls-21" d="m560.76,55.12l-.1-.1.1.1Z"/>
      <path class="cls-21" d="m561.24,55.3c.07,0,.14,0,.2-.03-.06.02-.13.03-.2.03Z"/>
      <path class="cls-21" d="m561.48,55.25c.05-.02.11-.04.15-.08-.05.03-.1.05-.15.08Z"/>
      <path class="cls-21" d="m566.34,54.88c-.07.12-.16.23-.27.3.12-.08.21-.18.27-.3Z"/>
      <path class="cls-21" d="m565.65,55.3c.07,0,.14,0,.2-.03-.06.02-.12.03-.2.03Z"/>
      <path class="cls-21" d="m565.89,55.25c.06-.02.11-.04.15-.08-.05.03-.1.05-.15.08Z"/>
      <path class="cls-21" d="m570.11,55.3c.07,0,.14,0,.2-.03-.06.02-.13.03-.2.03Z"/>
      <path class="cls-21" d="m569.62,55.12l-.1-.1.1.1Z"/>
      <path class="cls-21" d="m570.34,55.25c.05-.02.11-.04.15-.08-.05.03-.1.05-.15.08Z"/>
      <path class="cls-6" d="m521.16,50.48c-.09,0-.15.02-.23.04h0c-.07.03-.13.05-.19.09,0,0-.02.02-.03.02-.06.04-.11.09-.15.15h0c-.04.07-.08.14-.1.2l-.02.03c-.03.07-.03.14-.03.22v3.29c0,.42.34.77.77.77.07,0,.14,0,.2-.03l.04-.02c.05-.02.11-.04.15-.08h.02c.11-.09.21-.18.27-.31.05-.1.09-.22.09-.34v-3.29c0-.42-.34-.77-.77-.77h0Z"/>
      <path class="cls-6" d="m525.62,50.48c-.09,0-.15.02-.23.04h0c-.06.03-.12.05-.19.09,0,0-.03.02-.03.02-.06.04-.11.09-.15.15h0c-.04.07-.08.14-.1.2l-.02.03c-.03.07-.03.14-.03.22v3.29c0,.42.34.77.77.77.07,0,.14,0,.2-.03l.04-.02c.06-.02.11-.04.15-.08h.02c.06-.04.11-.09.15-.14,0,0,0,0,0-.02.04-.04.08-.1.1-.15.06-.1.09-.22.09-.34v-3.29c0-.42-.34-.77-.77-.77h.02Z"/>
      <path class="cls-6" d="m530.07,50.48c-.09,0-.15.02-.23.04h0c-.07.03-.12.05-.19.09,0,0-.03.02-.03.02-.06.04-.11.09-.15.15h0c-.04.07-.08.14-.1.2l-.02.03c-.03.07-.03.14-.03.22v3.29c0,.42.34.77.77.77.07,0,.14,0,.2-.03l.04-.02c.05-.02.11-.04.15-.08h.02c.11-.09.21-.18.27-.31.06-.1.09-.22.09-.34v-3.29c0-.42-.34-.77-.77-.77h0Z"/>
      <path class="cls-6" d="m534.52,50.48c-.09,0-.15.02-.23.04h0c-.06.03-.12.05-.18.09,0,0-.03.02-.03.03-.06.04-.11.09-.15.15h0c-.04.07-.08.14-.1.2l-.02.03c-.03.07-.03.14-.03.22v3.29c0,.18.07.35.17.48l.1.1c.14.11.31.18.49.18.07,0,.14,0,.2-.03l.04-.02c.06-.02.11-.04.15-.08h.02c.06-.04.11-.09.15-.14h0c.04-.05.08-.11.11-.16.06-.1.09-.22.09-.35v-3.29c0-.42-.34-.77-.77-.77h0Z"/>
      <path class="cls-6" d="m539,50.48c-.09,0-.15.02-.23.04h0c-.07.03-.12.05-.19.09,0,0-.02.02-.03.02-.06.04-.11.09-.15.15h0c-.04.07-.08.14-.1.2l-.02.03c-.03.07-.03.14-.03.22v3.29c0,.42.34.77.77.77.07,0,.14,0,.2-.03l.04-.02c.05-.02.11-.04.15-.08h.02c.06-.04.11-.09.15-.14,0,0,0,0,0-.02.04-.04.08-.1.1-.15.05-.1.09-.22.09-.35v-3.29c0-.42-.34-.77-.77-.77h.02Z"/>
      <path class="cls-6" d="m543.45,50.48c-.09,0-.15.02-.23.04h0c-.07.03-.13.05-.19.09,0,0-.03.02-.03.03-.06.04-.11.09-.15.15h0c-.04.07-.08.14-.1.2l-.02.03c-.03.07-.03.14-.03.22v3.29c0,.18.07.35.17.48l.1.1c.14.11.31.18.49.18.07,0,.14,0,.2-.03l.04-.02c.06-.02.11-.04.15-.08h.02c.06-.04.11-.09.15-.14h0c.04-.05.08-.11.11-.16.06-.1.09-.22.09-.35v-3.29c0-.42-.34-.77-.77-.77h.02Z"/>
      <path class="cls-6" d="m547.9,50.48c-.09,0-.15.02-.23.04h0c-.07.03-.12.05-.19.09,0,0-.03.02-.03.03-.06.04-.11.09-.15.15h0c-.04.07-.08.14-.1.2l-.02.03c-.03.07-.03.14-.03.22v3.29c0,.42.34.77.77.77.07,0,.14,0,.2-.03l.04-.02c.05-.02.11-.04.15-.08h.02c.06-.04.11-.09.15-.14h0c.04-.05.08-.11.11-.16.05-.1.09-.22.09-.35v-3.29c0-.42-.34-.77-.77-.77h.02Z"/>
      <path class="cls-6" d="m552.36,50.48c-.09,0-.15.02-.23.04h0c-.06.03-.13.05-.19.09,0,0-.02.02-.03.02-.06.04-.11.09-.15.15h0c-.04.07-.08.14-.1.2l-.02.03c-.03.07-.03.14-.03.22v3.29c0,.42.34.77.77.77.07,0,.14,0,.2-.03l.04-.02c.06-.02.11-.04.15-.08h.02c.06-.04.11-.09.15-.14h0c.04-.05.08-.11.11-.16.06-.1.09-.22.09-.35v-3.29c0-.42-.34-.77-.77-.77h.02Z"/>
      <path class="cls-6" d="m556.79,50.48c-.09,0-.15.02-.23.04h0c-.07.03-.12.05-.19.09,0,0-.03.02-.03.02-.06.04-.11.09-.15.15h0c-.04.07-.08.14-.1.2l-.02.03c-.03.07-.03.14-.03.22v3.29c0,.42.34.77.77.77.07,0,.14,0,.2-.03l.04-.02c.05-.02.11-.04.15-.08h.02c.11-.09.21-.18.27-.31.06-.1.09-.22.09-.34v-3.29c0-.42-.34-.77-.77-.77h0Z"/>
      <path class="cls-6" d="m561.24,50.48c-.09,0-.15.02-.23.04h0c-.07.03-.13.05-.19.09,0,0-.02.02-.03.02-.06.04-.11.09-.15.15h0c-.04.07-.08.14-.1.2l-.02.03c-.03.07-.03.14-.03.22v3.29c0,.18.07.35.17.48l.1.1c.14.11.3.18.49.18.07,0,.14,0,.2-.03l.04-.02c.06-.02.11-.04.15-.08h.02c.06-.04.11-.09.15-.14,0,0,0,0,0-.02.04-.04.08-.1.1-.15.05-.1.09-.22.09-.35v-3.29c0-.42-.34-.77-.77-.77h0v.02Z"/>
      <path class="cls-6" d="m565.65,50.48c-.09,0-.15.02-.23.04h0c-.06.03-.13.05-.19.09,0,0-.02.02-.03.02-.06.04-.11.09-.15.15h0c-.04.07-.08.14-.1.2l-.02.03c-.03.07-.03.14-.03.22v3.29c0,.42.34.77.77.77.07,0,.14,0,.2-.03l.04-.02c.06-.02.11-.04.15-.08h.02c.11-.09.21-.18.27-.31.05-.1.09-.22.09-.34v-3.29c0-.42-.34-.77-.77-.77h0Z"/>
      <path class="cls-6" d="m570.11,50.48c-.09,0-.15.02-.23.04h0c-.07.03-.12.05-.19.09,0,0-.02.02-.03.02-.06.04-.11.09-.15.15h0c-.04.07-.08.14-.1.2l-.02.03c-.03.07-.03.14-.03.22v3.29c0,.18.07.35.17.48l.1.1c.14.11.3.18.49.18.07,0,.14,0,.2-.03l.04-.02c.05-.02.11-.04.15-.08h.02c.06-.04.11-.09.15-.14h0c.04-.05.08-.11.11-.16.05-.1.09-.22.09-.35v-3.29c0-.42-.34-.77-.77-.77h.02Z"/>
      <path class="cls-8" d="m564.19,90.47v-27.92"/>
      <path class="cls-8" d="m549.28,90.47v-27.92"/>
      <path class="cls-8" d="m556.73,90.47v-27.92"/>
      <path class="cls-8" d="m541.89,90.47v-27.92"/>
      <path class="cls-8" d="m534.5,90.47v-27.92"/>
      <path class="cls-8" d="m527.41,90.47v-27.92"/>
      <path class="cls-8" d="m571.16,76.63h-51.23"/>
      <path class="cls-8" d="m571.16,70.29h-51.23"/>
      <path class="cls-8" d="m571.27,82.98h-51.23"/>
      <path class="cls-8" d="m571.27,63.82h-51.23"/>
      <path class="cls-8" d="m571.2,89.36h-51.23"/>
      <path class="cls-18" d="m573.87,82.19v7.41c0,.19-.15.35-.35.35s-.35-.15-.35-.35v-7.41c0-.19.15-.35.35-.35s.35.15.35.35Z"/>
      <path class="cls-7" d="m51.15,99.73c-.39,3.92-2.78,7.68-4.73,10.97-2.08,3.47-4.41,6.81-7.28,9.65-.36.36-.71.7-.94,1.12-.58,1.06-.26,2.48-.04,3.58.27,1.53.49,3.07.68,4.63.07.54.11,1.06.15,1.59.04.77.06,1.49,0,2.14-.34,4.2,0,4.76,0,4.76H13.06s-.9-3.92-2.03-7.72c-.43-1.48-.9-2.93-1.35-4.1-1.65-4.32-2.64-16.42.97-22.55l1.61-3.47v-.04c.14-.38-.13-.81-.36-1.09-.75-.93-1.9-1.69-2.76-2.54-.96-.94-1.91-1.93-2.59-3.12-1.24-2.14-1.24-4.76-1.73-7.17-.54-2.61-.94-5.28-1.26-7.92-.07-.49-.11-.98-.17-1.48,2.81-7.79,7.19-17.13,12.46-18.82,9.31-3,22.09,11.06,22.09,11.06-.09,1.01.2,2.16.71,3.35l.03.03c1.86,4.42,5.68,7.58,8.21,11.58.11.21.26.41.37.62,2.59,4.43,4.41,9.71,3.88,14.91l.03.02Z"/>
      <path class="cls-16" d="m22.81,41.66c-.47.17-.94.31-1.43.47-2.14,4.56,2.14,9.07,2.14,9.07,0,0,14.54,13.28,14.08,18.04,0,0-12.73-14.03-22.05-11.06-.17,1.27-1.13,5.24-.35,10.83.9,6.58-.24,15.65-.24,15.65-.26,2.2,1.68,3.31,3,4.72,2.16,2.29,3.94,4.9,5.93,7.35,2.08,2.56,4.18,5.11,6.5,7.47,1.47,1.52,3.32,3.6,5.44,4.16,1.17.3,2.31.64,3.53.49,1.06-.13,2.05-.58,3.15-.47,1.27.11,2.67,1.32,3.64,2.06.27.21.43.32.43.32,0,0,2.78,1.62,1.52,1.96-1.29.34-2.1.38-1.47.91.64.53.52,1.74-.2,2.19-.71.45-.23,1.52-1.16,2.19-.94.68-1.31,1.25-2.49,1.34-1.16.07-2.09,1.51-3.76.94-.03,0-.07-.03-.1-.03-1.65-.62-4.05-3-4.97-3.67-.94-.68-8.09-6.51-13.57-9.98-2.72-1.72-5.89-4.46-8.55-6.98-.82-.78-1.71-1.51-2.5-2.33-.96-.98-2.12-2.1-2.93-3.33-.04-.04-.07-.09-.09-.14-.06-.06-.09-.11-.11-.17-.13-.21-.23-.4-.32-.61-.04-.09-.07-.17-.11-.26,0,0-.03-.03-.03-.04-.15-.36-.26-.72-.36-1.1-.26-1-.34-2.09-.47-3.12-.1-.78-.23-1.55-.48-2.29v-.04c0-.07-.03-.11-.03-.17-.06-.25-.09-.37-.09-.37,0,0-.86-4.9-1.26-8.69v-.09c-.15-1.25-.23-2.39-.21-3.17.07-3.17-.09-7-.09-7,0,0-2.03-10.66-.89-15.53.36-1.57.94-3.5,1.76-5.39.32-.78.71-1.53,1.12-2.27.86-1.52,1.9-2.91,3.11-3.92.3-.24.58-.45.9-.66.94-.58,1.99-.93,3.13-.93,4.04,0,8.49-.55,11.01,1.57,1-5.58,7.42-11.39,7.42-11.39,0,0,7.45-8.61,11.11-1.86,0,0,.49,3.81-2.89,9.18-3.39,5.37-2.85,6.36-2.85,7.35s-2.08,0-2.08,0c0,0-5.23,4.52-8.55,2.69-.72-.4-1.35-1.11-1.84-2.25-.21-.54-.36-1.1-.39-1.66"/>
      <path class="cls-8" d="m23.18,41.66c-.47.17-.94.31-1.43.47-2.14,4.56,2.14,9.07,2.14,9.07,0,0,14.54,13.28,14.08,18.04,0,0-12.73-14.03-22.05-11.06-.17,1.27-1.13,5.24-.35,10.83.9,6.58-.24,15.65-.24,15.65-.26,2.2,1.68,3.31,3,4.72,2.16,2.29,3.94,4.9,5.93,7.35,2.08,2.56,4.18,5.11,6.5,7.47,1.47,1.52,3.32,3.6,5.44,4.16,1.17.3,2.31.64,3.53.49,1.06-.13,2.05-.58,3.15-.47,1.27.11,2.67,1.32,3.64,2.06.27.21.43.32.43.32,0,0,2.78,1.62,1.52,1.96-1.29.34-2.1.38-1.47.91.64.53.52,1.74-.2,2.19-.71.45-.23,1.52-1.16,2.19-.94.68-1.31,1.25-2.49,1.34-1.16.07-2.09,1.51-3.76.94-.03,0-.07-.03-.1-.03-1.65-.62-4.05-3-4.97-3.67-.94-.68-8.09-6.51-13.57-9.98-2.72-1.72-5.89-4.46-8.55-6.98-.82-.78-1.71-1.51-2.5-2.33-.96-.98-2.12-2.1-2.93-3.33-.04-.04-.07-.09-.09-.14-.06-.06-.09-.11-.11-.17-.13-.21-.23-.4-.32-.61-.04-.09-.07-.17-.11-.26,0,0-.03-.03-.03-.04-.15-.36-.26-.72-.36-1.1-.26-1-.34-2.09-.47-3.12-.1-.78-.23-1.55-.48-2.29v-.04c0-.07-.03-.11-.03-.17-.06-.25-.09-.37-.09-.37,0,0-.86-4.9-1.26-8.69v-.09c-.15-1.25-.23-2.39-.21-3.17.07-3.17-.09-7-.09-7,0,0-2.03-10.66-.89-15.53.36-1.57.94-3.5,1.76-5.39.32-.78.71-1.53,1.12-2.27.86-1.52,1.9-2.91,3.11-3.92.3-.24.58-.45.9-.66.94-.58,1.99-.93,3.13-.93,4.04,0,8.49-.55,11.01,1.57,1-5.58,7.42-11.39,7.42-11.39,0,0,7.45-8.61,11.11-1.86,0,0,.49,3.81-2.89,9.18-3.39,5.37-2.85,6.36-2.85,7.35s-2.08,0-2.08,0c0,0-5.23,4.52-8.55,2.69-.72-.4-1.35-1.11-1.84-2.25-.21-.54-.36-1.1-.39-1.66"/>
      <path class="cls-6" d="m3.11,66.74s-2.02-10.67-.89-15.53c.51-2.22,1.47-5.15,2.89-7.66,23.13-.4,36.68-17.17,36.68-17.17,0,0,.49,3.8-2.89,9.18-3.38,5.37-2.85,6.36-2.85,7.34s-2.08,0-2.08,0c0,0-5.23,4.52-8.55,2.69-.73-.4-1.35-1.12-1.84-2.25-.22-.54-.36-1.09-.41-1.66-.47.17-.94.31-1.44.47-2.14,4.56,2.14,9.07,2.14,9.07h.02c.41-.15,9.17-3.64,13.28-7.41,4.14-3.8,11.29-10.09,5.46-23.08-.09-.2-.19-.4-.27-.6-2.89-6.12-10.28-8.75-16.62-8.24-10.87.89-12.95,10.04-16.56,18.42-1.8,4.15-3.76,8.25-6.06,12.14-.2.32-.38.66-.55,1-6.06,11.48.55,23.27.55,23.27v.02Z"/>
      <path class="cls-8" d="m32.07,35.46s.34,2.09,2.52,2.1"/>
      <path class="cls-9" d="m499.2,65.89c3.12,2.03,8.4,4.99,11.68,6.77-3.94,2.39-6.62,4.58-10.56,6.97"/>
      <line class="cls-9" x1="58.1" y1="73.35" x2="506.67" y2="73.35"/>
      <path class="cls-8" d="m265.73,141.43s5.82-9.52,23.45-.54"/>
      <path class="cls-2" d="m289.18,151.58h37.41v-27.97h-37.41v27.97Z"/>
      <path class="cls-4" d="m290.14,150.67h35.48v-26.19h-35.48v26.19Z"/>
      <path class="cls-5" d="m296.13,136.01l5.79,8.83c.51.77,1.46,1.11,2.34.84,1.14-.34,2.37-.52,3.66-.52,1.12,0,2.2.14,3.22.4.91.24,1.87-.14,2.37-.95,2.05-3.37,4.3-6.98,6.06-9.6.44-.66.42-1.53-.06-2.17-2.38-3.21-6.67-5.35-11.58-5.35s-9.39,2.23-11.74,5.55c-.63.89-.65,2.06-.05,2.97h0Z"/>
      <path class="cls-16" d="m291.59,127.18h2.68v-.4h-2.68v.4Z"/>
      <path class="cls-16" d="m291.59,128.21h2.68v-.4h-2.68v.4Z"/>
      <path class="cls-2" d="m269.64,167.16l3.89,14.82,11.37,1.44-4.58-21.36-10.68,5.1h0Z"/>
      <path class="cls-2" d="m265.87,185.33l5.93-4.33c1.12-.82,2.52-1.17,3.9-.97l14.92,2.14c1.5.21,2.76,1.24,3.26,2.66l.2.58-28.21-.09h0Z"/>
      <path class="cls-2" d="m320.89,175.96v.08c-.03.18-.06.42-.09.69-.13,1.11-1.07,1.95-2.19,1.95h-6.67c-2.53,0-5.02-.62-7.26-1.8l-8.34-4.39c-2.4-1.26-5.11-1.83-7.81-1.64l-23.63,1.67c-.67.05-1.34-.14-1.89-.54l-32.67-23.79c-1.28-.93-1.56-2.72-.63-3.99.32-.45.77-.78,1.25-.97.37-.14.78-.21,1.19-.2l15.8.12,21.28,17.05,26.07.52,25.34,14.82h.02s0,0,0,.02c.06.05.12.1.15.17.04.08.07.16.07.26h0Z"/>
      <path class="cls-2" d="m320.82,175.71h-7.11c-2.53,0-5.02-.61-7.26-1.8l-8.34-4.39c-2.4-1.26-5.11-1.83-7.81-1.64l-23.63,1.68c-.67.05-1.34-.14-1.89-.54l-32.67-23.79c-.68-.49-1.07-1.23-1.16-2.01.37-.14.78-.21,1.19-.2l15.8.12,21.28,17.05,26.07.52,25.34,14.82s.02,0,.03.02c.06.05.12.1.15.17h0Z"/>
      <path class="cls-1" d="m272.43,153.36s20.99.39,23.51,1.03c2.52.65,11.63,13.27,11.63,13.27l-1.23,1.14-15.64-7.72-21.1-1.22,2.83-6.5h0Z"/>
      <path class="cls-6" d="m311.79,169.92s1.37.89,2.82,1.01c1.44.12,2.61.54,3.51.6.9.07,2.27-.05,1.77.6-.5.65-3.2,1.55-3.85,1.51-.65-.03-1.4-.11-2.36.41s-1.74,0-1.97-.77c-.23-.78-.92-1.27-.92-1.27l1-2.09h0Z"/>
      <path class="cls-6" d="m249.29,147.01c-.63-.02-1.21-.54-1.13-1.29.09-.92.03-2.23-.36-3.8h.24l4.02-.19s.2,1.23.48,2.37v.03c.24.99,1.2,3.05-3.26,2.89h.02Z"/>
      <path class="cls-6" d="m253.04,142.62s-5.05,1.33-5.83-1.84c-.77-3.16-1.95-5.11,1.24-6.09,3.19-.98,4.12.08,4.63,1.06.52.99,1.24,6.43-.05,6.86h0Z"/>
      <path class="cls-6" d="m269.07,149.37c-3.52-2.08-7.27-.74-8.26-.88-1-.14-2.03-1.17-2.62-1.82-.59-.65-3.77-1.57-4.82-1.51-3.4.21-9.06.87-9.75,2.31-.96,2.04,17.02,15.07,17.02,15.07l5.02-2.08c1.46.5,4.44-1.09,5.69-2.03,2.81-2.16,1.23-7-2.29-9.06h0Z"/>
      <path class="cls-1" d="m260.14,162.18s1.48,3.03,7.26,3.46c5.79.43,24.05-2.52,25.22-1.36,2.27,2.24,10.21,4.97,17.42,8.26,0,0,.74,0,1.6-.43,1.43-.69,1.74-1.87,1.74-1.87,0,0-14.72-10.96-16.53-12.49-1.81-1.52-8.56-2.15-11.81-2.15-9.99,0-12.63-2.24-12.63-2.24,0,0-1.22,2.24-6.16,5.89-2.74,2.02-6.12,2.94-6.12,2.94h0Z"/>
      <path class="cls-3" d="m248.17,144.17s1.53.76,4.44.2c0,0,.19.51.37.68.17.17,2.03-.11,2.7.11.66.22,2.91,1.46,3.29,1.73.37.26.89,1.4,1.53,1.46.65.06,2.03-.02,2.03-.02,0,0-3.79.6-4.41,12.37l-11.78-8.99-2.99-4.02s.37-.94,1.67-1.4c1.29-.46,2.99-.85,3.08-1.14.09-.28.08-.99.08-.99h0Z"/>
      <path class="cls-6" d="m260.62,148.63c.02.29-1.19.9-1.2,1.14,0,.24-.25.86-.6,1.07-.22.13-.43.38-.58.55-.07.28-1.48,6.16-2.48,7.59-.66.94-1.57,1.59-2.12,1.93-.26.16-.43.26-.51.3h-.03c-1.75.45-9.14-7.52-9.21-10.15-.06-2.63,3.5-2.29,3.5-2.29,0,0,4.54,6.66,5.67,7.92,2.32-2.48,4.25-6.41,4.25-6.41,0,0,.11-.14.26-.33.07-.2.14-.43.14-.54,0-.19.04-.52.14-.48.09.05.2.2.19.32v.15c.29-.34.59-.66.72-.71.3-.13,1.86-.35,1.87-.07h-.02Z"/>
      <path class="cls-15" d="m246.35,145.88s-3.26.58-3.5,2.83c-.23,2.25,2.02,6.57,4.3,9.58,0,0,3.89-.94,4.6-3.63l-2.48-4.61"/>
      <path class="cls-8" d="m246.35,145.88s-3.26.58-3.5,2.83c-.23,2.25,2.02,6.57,4.3,9.58,0,0,3.89-.94,4.6-3.63l-2.48-4.61"/>
      <path class="cls-6" d="m248.58,133.75c-7.66,1.17-2.23,12.13-2.23,12.13,3.09.03,1.74-3.7,1.74-3.7-.89-.87-1.19-2.56-1.19-2.56,4.23-1.67,3.16-4.52,3.16-4.52,0,0,2.67-.52,3.55,2.9,0,0,.76,4.7-1.34,4.79l.72,2.27,2.2.03s2.1-10.26-2.03-11.92c-3.08-1.23-4.56.59-4.56.59h0v-.02Z"/>
      <path class="cls-19" d="m262.77,148.5s-2.78,2.88-2.38,5.42c.4,2.54,1.59-1.34,2.9-.18s3.75.44,4.26-.27c.53-.71,2.25-3.18,2.25-3.18,0,0-2.47-2.54-7.03-1.79h0Z"/>
      <path class="cls-2" d="m263.9,146.05l.34-3.18c.03-.36.37-.62.72-.59l1.28.14c.36.03.62.37.59.72l-.34,3.18c0,.09,0,.17.02.25l.52,1.86c.13.45-.24,1.02-.83,1.14-.89.19-1.77.17-2.72-.31-.41-.21-.75-.85-.54-1.26l.89-1.73c.03-.08.06-.14.07-.23h0Z"/>
      <path class="cls-6" d="m266.21,141.5l-.95-.14-.45.91.44.05,1.15.12-.19-.94h0Z"/>
      <path class="cls-18" d="m268.34,150c-.03.06-.17.06-.32,0s-.26-.16-.23-.23c.03-.06.17-.06.32,0s.26.16.23.23Z"/>
      <path class="cls-16" d="m320.84,149.03h3.15v-.47h-3.15v.47Z"/>
      <path class="cls-16" d="m320.84,148.07h3.15v-.47h-3.15v.47Z"/>
      <path class="cls-12" d="m305.17,141.33c-.31-.09-1.57-.67-1.91-.68-.8-.03-2.3-.26-3.04-1.52-1.04-1.79.73-3.63,1.98-3.76s2.24.34,2.98.3c.74-.04.58-1.33,1.57-1.23.99.1.89-1.11,1.83-2.28,1.12-1.4,3.69-1.46,5.67.32,1.97,1.79.48,6.71-1.17,7.72-1.51.92-4.8,1.96-7.92,1.13h0Z"/>
      <path class="cls-13" d="m277.04,143.37c3.72,0,6.74-3.01,6.74-6.73s-3.02-6.73-6.74-6.73-6.74,3.01-6.74,6.73,3.02,6.73,6.74,6.73Z"/>
      <path class="cls-18" d="m274.76,138.45c.22-.47.66-.88,1.31-1.25l.97-.56c.43-.26.74-.47.91-.65.27-.28.42-.6.42-.96,0-.43-.13-.76-.38-1-.26-.25-.59-.37-1.01-.37-.62,0-1.06.24-1.29.71-.13.26-.2.6-.21,1.05h-.93c0-.63.13-1.14.35-1.54.4-.7,1.09-1.05,2.09-1.05.83,0,1.44.22,1.81.67.38.45.58.94.58,1.49,0,.58-.2,1.07-.61,1.49-.24.24-.66.53-1.27.87l-.69.38c-.33.18-.59.36-.77.52-.34.29-.54.62-.64.98h3.95v.86h-4.97c.03-.62.16-1.17.38-1.63h0Z"/>
      <path class="cls-20" d="m280.38,71.94s-.04-.05-.07-.08l.49.63s-.04-.07-.07-.11l.31.74c-.02-.05-.03-.09-.04-.15l.11.83v-.19l-.11.83c0-.08.03-.14.06-.22l-.31.74c.03-.09.09-.16.14-.23l-.49.63c.05-.06.1-.12.17-.17l-.63.49c.05-.04.11-.08.17-.1l-.74.31c.06-.03.12-.04.19-.05l-.83.11h.16l-.83-.11c.06,0,.11.03.16.04l-.74-.31c.06.03.11.06.17.1l-.63-.49c.05.04.09.09.14.14l-.49-.63c.05.07.09.14.13.22l-.31-.74c.03.09.06.17.07.26l-.11-.83c.02.1.02.2,0,.3l.11-.83c0,.09-.03.17-.07.26l.31-.74c-.03.07-.07.14-.11.2l.49-.63c-.04.05-.09.1-.14.14l.63-.49c-.06.04-.12.09-.19.11l.74-.31c-.09.03-.18.06-.28.08l.83-.11c-.1,0-.2,0-.29,0l.83.11c-.11-.02-.22-.05-.32-.09l.74.31c-.09-.04-.18-.09-.26-.15l.63.49c-.08-.06-.14-.13-.21-.21l.49.63c-.05-.08-.09-.15-.14-.24l.31.74c-.03-.09-.06-.18-.08-.27l.11.83c-.02-.12-.02-.25,0-.37l-.11.83c.02-.14.06-.27.11-.4l-.31.74c.05-.12.11-.22.19-.32l-.49.63c.08-.1.16-.19.26-.26l-.63.49c.09-.06.17-.11.26-.15l-.74.31c.13-.05.26-.09.39-.1l-.83.11c.14-.02.27-.02.41,0l-.83-.11c.14.03.29.06.43.12l-.74-.31c.14.06.26.14.38.22l-.63-.49c.09.08.19.16.26.26l-.49-.63c.08.1.14.2.19.31l-.31-.74c.04.11.08.22.09.33l-.11-.83c.02.13.02.26,0,.38l.11-.83c-.03.15-.06.31-.13.45l.31-.74c-.06.14-.13.26-.22.37l.49-.63c-.09.11-.19.21-.3.31l.63-.49c-.1.08-.21.14-.33.2l.74-.31c-.11.04-.22.08-.33.09l.83-.11c-.13.02-.25.02-.37,0l.83.11c-.13-.02-.25-.05-.37-.1l.74.31c-.13-.06-.25-.13-.37-.21l.63.49c-.11-.09-.21-.19-.3-.3l.49.63c-.09-.13-.17-.26-.24-.4l.31.74c-.04-.12-.08-.24-.1-.37l.11.83c-.02-.11-.02-.23,0-.34l-.11.83c.02-.14.05-.26.1-.38l-.31.74c.05-.11.11-.21.18-.31l-.49.63c.09-.12.2-.22.31-.31l-.63.49c.12-.09.24-.16.37-.22l-.74.31c.12-.05.25-.09.38-.1l-.83.11c.12-.02.24-.02.35,0l-.83-.11c.12.02.23.04.33.09l-.74-.31c.1.04.2.1.29.17l-.63-.49c.1.08.19.16.26.26l-.49-.63c.09.11.15.23.21.36l-.31-.74c.06.14.1.28.12.43l-.11-.83c.02.13.02.25,0,.37l.11-.83c-.02.13-.05.25-.09.36l.31-.74c-.04.09-.09.17-.15.26l.49-.63c-.07.09-.14.16-.23.23l.63-.49c-.09.08-.2.14-.31.18l.74-.31c-.13.05-.26.09-.38.11l.83-.11c-.14.02-.29.02-.43,0l.83.11c-.12-.02-.23-.05-.35-.09l.74.31c-.1-.04-.19-.09-.28-.16l.63.49c-.08-.06-.14-.13-.2-.2l.49.63c-.06-.09-.11-.18-.15-.27l.31.74c-.04-.11-.07-.22-.09-.34l.11.83c-.02-.13-.02-.26,0-.39l-.11.83c.02-.14.06-.28.11-.41l-.31.74c.05-.11.11-.2.18-.31l-.49.63c.07-.09.14-.15.22-.22l-.63.49c.08-.06.15-.1.24-.14l-.74.31.03-.02c.41-.09.76-.28,1.06-.55.34-.22.6-.51.8-.88.23-.36.35-.74.37-1.16.09-.42.08-.83-.06-1.24l-.31-.74c-.27-.47-.65-.84-1.12-1.12l-.74-.31c-.55-.14-1.11-.14-1.65,0-.33.14-.71.25-1,.46-.28.2-.62.43-.85.71-.49.59-.88,1.17-1.07,1.92-.09.36-.13.74-.15,1.11v.16c.02.32.08.66.13.99.02.1.04.2.09.31.11.31.26.72.47,1.02.43.6.91,1.17,1.6,1.48s1.38.56,2.19.54,1.43-.21,2.19-.58c.31-.15.66-.45.88-.64.28-.23.51-.58.71-.86.21-.3.33-.66.46-1,.05-.12.08-.23.09-.36.05-.36.14-.77.11-1.14s-.06-.79-.18-1.16c-.26-.8-.58-1.32-1.12-1.95-.23-.26-.6-.52-.84-.69-.31-.22-.7-.35-1.03-.49-.11-.04-.22-.07-.33-.09-.38-.06-.78-.15-1.18-.11-.31.03-.78.06-1.13.19s-.74.26-1.06.47-.62.43-.89.7c-.04.04-.09.09-.12.13-.2.25-.42.5-.6.77-.03.05-.06.1-.09.15-.14.28-.26.6-.37.89-.13.36-.17.86-.19,1.18v.2c.02.32.07.66.13.97,0,.07.03.14.05.2.09.31.24.61.37.9.05.12.12.22.2.33.2.29.46.66.75.91.6.52,1.23.94,2.02,1.14.79.2,1.61.21,2.36-.02s1.34-.59,1.93-1.12c.26-.24.52-.61.7-.86.08-.1.14-.21.2-.33.36-.76.55-1.35.58-2.21v-.2c-.03-.31-.07-.65-.14-.96,0-.06-.03-.11-.05-.17-.11-.3-.24-.61-.38-.9-.16-.31-.46-.66-.66-.89-.24-.28-.6-.52-.87-.71-.09-.07-.19-.13-.28-.18-.34-.17-.69-.33-1.06-.43s-.75-.13-1.12-.16-.78.06-1.16.12c-.12.02-.23.04-.34.09-.34.12-.73.26-1.04.48-.64.45-1.23.96-1.57,1.68s-.6,1.46-.56,2.26c.02.38.05.78.17,1.15.05.15.13.31.19.45s.12.31.19.45c.03.06.06.11.1.16.19.26.43.61.7.84.16.14.49.42.76.57.27.16.59.26.88.38.24.09.48.11.73.14.64.09.83.08,1.55-.05.68-.12,1.46-.57,1.92-1.08.23-.26.48-.54.63-.85.13-.26.26-.57.36-.85.02-.06.03-.12.04-.18.12-.75.2-1.47-.08-2.21-.24-.65-.31-.8-.69-1.29-.34-.43-.55-.66-1.07-.98-.31-.19-.66-.34-1-.41-.23-.04-.63-.1-.86-.11h-.07c-.15,0-.37.04-.48.06-.13.02-.34.03-.49.07-.03,0-.05.02-.08.03-.23.09-.55.22-.77.32-.05.03-.09.05-.14.09-.68.46-.83.66-1.31,1.3-.43.59-.6,1.38-.63,2.09-.02.36.03.73.14,1.07.09.29.2.6.37.86.12.19.36.49.5.66.03.03.04.05.07.08.28.31.61.52,1,.65.37.2.77.28,1.2.26.43.02.83-.08,1.2-.26.38-.13.72-.34,1-.65l.49-.63c.28-.49.43-1.01.43-1.57l-.11-.83c-.14-.53-.42-.99-.8-1.37h.03Z"/>
      <line class="cls-11" x1="278.36" y1="78.52" x2="278.36" y2="117.97"/>
      <path class="cls-8" d="m413.31,140.06s5.89-9.61,23.74-.54"/>
      <path class="cls-2" d="m435.6,151.25h37.87v-28.24h-37.87v28.24h0Z"/>
      <path class="cls-4" d="m436.58,150.33h35.93v-26.45h-35.93v26.45h0Z"/>
      <path class="cls-5" d="m442.64,135.53l5.86,8.91c.51.77,1.47,1.12,2.37.85,1.16-.34,2.41-.53,3.7-.53,1.14,0,2.23.14,3.26.41.93.24,1.9-.15,2.39-.96,2.08-3.4,4.35-7.05,6.14-9.69.45-.66.43-1.54-.06-2.19-2.41-3.23-6.76-5.4-11.73-5.4s-9.51,2.26-11.88,5.61c-.64.89-.66,2.09-.05,3h0Z"/>
      <path class="cls-16" d="m438.04,126.61h2.72v-.41h-2.72v.41Z"/>
      <path class="cls-16" d="m438.04,127.64h2.72v-.41h-2.72v.41Z"/>
      <path class="cls-2" d="m415.82,166.98l3.94,14.96,11.52,1.45-4.64-21.56-10.82,5.15Z"/>
      <path class="cls-2" d="m412.01,185.33l6.01-4.37c1.13-.83,2.54-1.17,3.94-.98l15.11,2.17c1.52.22,2.79,1.25,3.3,2.69l.21.58-28.56-.09h0Z"/>
      <path class="cls-2" d="m467.72,175.87v.08c-.03.18-.06.42-.09.7-.13,1.12-1.08,1.97-2.21,1.97h-6.76c-2.56,0-5.08-.62-7.35-1.81l-8.44-4.43c-2.43-1.28-5.18-1.85-7.92-1.66l-23.93,1.69c-.68.05-1.35-.14-1.92-.54l-33.08-24.02c-1.29-.94-1.57-2.74-.64-4.03.33-.46.77-.79,1.27-.98.38-.15.79-.22,1.2-.2l15.99.12,21.54,17.21,26.39.52,25.65,14.95h.02s0,0,0,.02c.07.05.12.11.15.18.04.08.07.16.07.26h.03Z"/>
      <path class="cls-2" d="m467.65,175.62h-7.19c-2.56,0-5.08-.62-7.35-1.81l-8.45-4.43c-2.43-1.28-5.18-1.85-7.92-1.66l-23.93,1.69c-.68.05-1.35-.14-1.92-.54l-33.07-24.02c-.69-.5-1.09-1.24-1.17-2.03.38-.15.79-.22,1.2-.2l15.99.12,21.54,17.21,26.39.52,25.65,14.95s.02,0,.03.02c.07.05.12.11.15.18h.03Z"/>
      <path class="cls-1" d="m418.65,153.04s21.25.39,23.8,1.05c2.54.65,11.77,13.4,11.77,13.4l-1.24,1.15-15.84-7.8-21.36-1.23,2.87-6.56Z"/>
      <path class="cls-6" d="m458.51,169.78s1.39.9,2.85,1.02c1.46.12,2.65.54,3.56.61s2.3-.05,1.79.6c-.51.66-3.23,1.56-3.9,1.52-.66-.03-1.42-.11-2.38.41s-1.76,0-2-.78c-.24-.79-.93-1.29-.93-1.29l1.01-2.11h0Z"/>
      <path class="cls-6" d="m395.22,146.63c-.64-.03-1.23-.54-1.14-1.31.09-.93.03-2.26-.37-3.83h.24l4.07-.2s.2,1.24.49,2.38v.03c.24,1,1.22,3.08-3.29,2.92h0Z"/>
      <path class="cls-6" d="m399.01,142.21s-5.12,1.34-5.9-1.86c-.78-3.19-1.97-5.16,1.26-6.15,3.23-.99,4.17.08,4.69,1.07.53,1,1.26,6.49-.05,6.93h0Z"/>
      <path class="cls-6" d="m414.65,146.8c-3.69-1.85-7.43,1.6-8.44,1.46s-1.39-1.32-1.97-1.97c-.6-.65-3.81-1.59-4.88-1.52-3.44.21-9.18.88-9.87,2.33-.98,2.06,17.24,15.22,17.24,15.22l5.08-2.09c1.49.5,5.13-.88,5.96-2.21,1.64-2.67,1.52-8.89-3.12-11.22h0Z"/>
      <path class="cls-1" d="m406.2,161.95s1.5,3.06,7.35,3.5c5.86.44,24.34-2.54,25.53-1.37,2.31,2.26,10.33,5.01,17.64,8.33,0,0,.75,0,1.62-.43,1.45-.7,1.76-1.89,1.76-1.89,0,0-14.9-11.07-16.73-12.61-1.83-1.53-8.66-2.18-11.95-2.18-10.12,0-12.78-2.26-12.78-2.26,0,0-1.23,2.26-6.24,5.95-2.77,2.03-6.2,2.96-6.2,2.96h0Z"/>
      <path class="cls-3" d="m394.08,143.77s1.56.76,4.5.2c0,0,.2.52.37.69.18.17,2.06-.11,2.73.11s2.95,1.48,3.33,1.74c.38.26.9,1.42,1.56,1.47.66.06,1.34-.4,1.34-.4,0,0-3.12.99-3.75,12.87l-11.92-9.07-3.02-4.06s.38-.94,1.69-1.4c1.31-.46,3.02-.86,3.12-1.15.09-.29.08-1,.08-1h-.02Z"/>
      <path class="cls-6" d="m406.37,147.72c.02.29-1.2.91-1.22,1.15,0,.25-.25.87-.6,1.09-.22.14-.44.38-.58.56-.07.28-1.5,6.22-2.51,7.66-.66.94-1.58,1.6-2.14,1.95-.26.16-.44.26-.51.3h-.03c-1.77.46-9.25-7.59-9.33-10.25-.07-2.66,3.54-2.32,3.54-2.32,0,0,4.59,6.72,5.74,7.99,2.35-2.5,4.3-6.48,4.3-6.48,0,0,.11-.14.26-.33.07-.2.14-.44.14-.54,0-.19.04-.53.14-.49.09.05.2.2.19.32v.15c.3-.34.6-.66.73-.71.31-.14,1.88-.35,1.89-.07h0,0Z"/>
      <path class="cls-15" d="m392.24,145.49s-3.29.59-3.54,2.85c-.24,2.27,2.04,6.64,4.35,9.67,0,0,3.94-.94,4.66-3.66l-2.5-4.66"/>
      <path class="cls-8" d="m392.24,145.49s-3.29.59-3.54,2.85c-.24,2.27,2.04,6.64,4.35,9.67,0,0,3.94-.94,4.66-3.66l-2.5-4.66"/>
      <path class="cls-6" d="m394.5,133.25c-7.76,1.18-2.26,12.24-2.26,12.24,3.13.03,1.76-3.74,1.76-3.74-.91-.88-1.21-2.58-1.21-2.58,4.28-1.69,3.19-4.56,3.19-4.56,0,0,2.71-.52,3.6,2.93,0,0,.77,4.74-1.36,4.83l.73,2.3,2.22.03s2.13-10.37-2.06-12.04c-3.12-1.24-4.61.59-4.61.59h0Z"/>
      <path class="cls-19" d="m410.41,146.76s-4.58,2.79-2.49,4.22c.58.39,1.21-.25,2.2,1.14,1.12,1.57,3.67.43,4.18-.26.51-.69,2.59-2.86,2.59-2.86,0,0-2-3.33-6.47-2.24h0Z"/>
      <path class="cls-2" d="m411.45,144.74l.34-3.21c.03-.37.37-.63.73-.59l1.29.14c.37.03.63.37.6.73l-.34,3.21c0,.09,0,.17.03.25l.53,1.88c.13.45-.24,1.03-.84,1.16-.89.19-1.8.18-2.75-.31-.42-.21-.76-.86-.54-1.28l.89-1.74c.03-.08.06-.15.07-.24h0Z"/>
      <path class="cls-6" d="m413.8,140.13l-.96-.14-.47.91.45.05,1.17.13-.2-.95h0Z"/>
      <path class="cls-18" d="m415.44,148.92c-.03.07-.17.07-.32,0s-.26-.16-.23-.23.17-.07.32,0,.26.16.23.23Z"/>
      <path class="cls-16" d="m467.66,148.68h3.18v-.48h-3.18v.48Z"/>
      <path class="cls-16" d="m467.66,147.71h3.18v-.48h-3.18v.48Z"/>
      <path class="cls-13" d="m423.32,142.96c3.77,0,6.83-3.05,6.83-6.8s-3.06-6.8-6.83-6.8-6.83,3.05-6.83,6.8,3.06,6.8,6.83,6.8Z"/>
      <path class="cls-18" d="m421.03,139.2c-.39-.48-.59-1.05-.59-1.73h.96c.04.48.13.82.26,1.03.24.38.66.58,1.29.58.49,0,.87-.13,1.17-.39.3-.26.43-.59.43-1,0-.5-.15-.86-.47-1.06-.31-.2-.74-.31-1.29-.31h-.38v-.81c.09,0,.18.02.24.02h.2c.34,0,.62-.05.85-.16.39-.2.58-.54.58-1.02,0-.37-.13-.65-.39-.84-.26-.2-.56-.3-.9-.3-.61,0-1.04.2-1.27.61-.13.22-.2.54-.22.96h-.91c0-.54.11-1,.32-1.39.37-.68,1.04-1.02,1.98-1.02.75,0,1.33.16,1.74.49s.61.81.61,1.45c0,.45-.12.82-.37,1.09-.15.18-.34.31-.58.41.38.11.69.31.9.6.22.3.32.67.32,1.11,0,.7-.23,1.26-.69,1.7-.46.43-1.12.66-1.96.66s-1.5-.24-1.89-.71v.03h.03Z"/>
      <path class="cls-12" d="m460.63,138.06s.32-2.3.78-2.66c.46-.35,3.86-3.76.58-5.57-3.27-1.8-5.59-.78-6.47.36-.87,1.14-.89,1.68-.43,2.59.45.91-.27.95-.11,1.79.16.83-.08,1.72.67,1.92.75.2.09,1.06-.4.57-.49-.49-.72-1.87-1.12-2.42s-1.12-.2-1.01.49c.1.69.6,1.83.31,2.32-.29.48-1.34-.08-2.41.54s-.48-.54-1.34-1.45c-.87-.9-2.49-.9-2.79-.11-.3.79,1.18,1.45,1.24,2.32.05.88-.18,2.91,3.08,4.33,3.27,1.43,9.91-1.81,9.4-5.04h.03Z"/>
      <path class="cls-20" d="m426.63,71.94s-.04-.05-.07-.08l.49.63s-.04-.07-.07-.11l.31.74c-.02-.05-.03-.09-.04-.15l.11.83v-.19l-.11.83c0-.08.03-.14.06-.22l-.31.74c.03-.09.09-.16.14-.23l-.49.63c.05-.06.1-.12.17-.17l-.63.49c.05-.04.11-.08.17-.1l-.74.31c.06-.03.12-.04.19-.05l-.83.11h.16l-.83-.11c.06,0,.11.03.16.04l-.74-.31c.06.03.11.06.17.1l-.63-.49c.05.04.09.09.14.14l-.49-.63c.05.07.09.14.13.22l-.31-.74c.03.09.06.17.07.26l-.11-.83c.02.1.02.2,0,.3l.11-.83c0,.09-.03.17-.07.26l.31-.74c-.03.07-.07.14-.11.2l.49-.63c-.04.05-.09.1-.14.14l.63-.49c-.06.04-.12.09-.19.11l.74-.31c-.09.03-.18.06-.28.08l.83-.11c-.1,0-.2,0-.29,0l.83.11c-.11-.02-.22-.05-.32-.09l.74.31c-.09-.04-.18-.09-.26-.15l.63.49c-.08-.06-.14-.13-.21-.21l.49.63c-.05-.08-.09-.15-.14-.24l.31.74c-.03-.09-.06-.18-.08-.27l.11.83c-.02-.12-.02-.25,0-.37l-.11.83c.02-.14.06-.27.11-.4l-.31.74c.05-.12.11-.22.19-.32l-.49.63c.08-.1.16-.19.26-.26l-.63.49c.09-.06.17-.11.26-.15l-.74.31c.13-.05.26-.09.39-.1l-.83.11c.14-.02.27-.02.41,0l-.83-.11c.14.03.29.06.43.12l-.74-.31c.14.06.26.14.38.22l-.63-.49c.09.08.19.16.26.26l-.49-.63c.08.1.14.2.19.31l-.31-.74c.04.11.08.22.09.33l-.11-.83c.02.13.02.26,0,.38l.11-.83c-.03.15-.06.31-.13.45l.31-.74c-.06.14-.13.26-.22.37l.49-.63c-.09.11-.19.21-.3.31l.63-.49c-.1.08-.21.14-.33.2l.74-.31c-.11.04-.22.08-.33.09l.83-.11c-.13.02-.25.02-.37,0l.83.11c-.13-.02-.25-.05-.37-.1l.74.31c-.13-.06-.25-.13-.37-.21l.63.49c-.11-.09-.21-.19-.3-.3l.49.63c-.09-.13-.17-.26-.24-.4l.31.74c-.04-.12-.08-.24-.1-.37l.11.83c-.02-.11-.02-.23,0-.34l-.11.83c.02-.14.05-.26.1-.38l-.31.74c.05-.11.11-.21.18-.31l-.49.63c.09-.12.2-.22.31-.31l-.63.49c.12-.09.24-.16.37-.22l-.74.31c.12-.05.25-.09.38-.1l-.83.11c.12-.02.24-.02.35,0l-.83-.11c.12.02.23.04.33.09l-.74-.31c.1.04.2.1.29.17l-.63-.49c.1.08.19.16.26.26l-.49-.63c.09.11.15.23.21.36l-.31-.74c.06.14.1.28.12.43l-.11-.83c.02.13.02.25,0,.37l.11-.83c-.02.13-.05.25-.09.36l.31-.74c-.04.09-.09.17-.15.26l.49-.63c-.07.09-.14.16-.23.23l.63-.49c-.09.08-.2.14-.31.18l.74-.31c-.13.05-.26.09-.38.11l.83-.11c-.14.02-.29.02-.43,0l.83.11c-.12-.02-.23-.05-.35-.09l.74.31c-.1-.04-.19-.09-.28-.16l.63.49c-.08-.06-.14-.13-.2-.2l.49.63c-.06-.09-.11-.18-.15-.27l.31.74c-.04-.11-.07-.22-.09-.34l.11.83c-.02-.13-.02-.26,0-.39l-.11.83c.02-.14.06-.28.11-.41l-.31.74c.05-.11.11-.2.18-.31l-.49.63c.07-.09.14-.15.22-.22l-.63.49c.08-.06.15-.1.24-.14l-.74.31.03-.02c.41-.09.76-.28,1.06-.55.34-.22.6-.51.8-.88.23-.36.35-.74.37-1.16.09-.42.08-.83-.06-1.24l-.31-.74c-.27-.47-.65-.84-1.12-1.12l-.74-.31c-.55-.14-1.11-.14-1.65,0-.33.14-.71.25-1,.46-.28.2-.62.43-.85.71-.49.59-.88,1.17-1.07,1.92-.09.36-.13.74-.15,1.11v.16c.02.32.08.66.13.99.02.1.04.2.09.31.11.31.26.72.47,1.02.43.6.91,1.17,1.6,1.48s1.38.56,2.19.54,1.43-.21,2.19-.58c.31-.15.66-.45.88-.64.28-.23.51-.58.71-.86.21-.3.33-.66.46-1,.05-.12.08-.23.09-.36.05-.36.14-.77.11-1.14s-.06-.79-.18-1.16c-.26-.8-.58-1.32-1.12-1.95-.23-.26-.6-.52-.84-.69-.31-.22-.7-.35-1.03-.49-.11-.04-.22-.07-.33-.09-.38-.06-.78-.15-1.18-.11-.31.03-.78.06-1.13.19s-.74.26-1.06.47-.62.43-.89.7c-.04.04-.09.09-.12.13-.2.25-.42.5-.6.77-.03.05-.06.1-.09.15-.14.28-.26.6-.37.89-.13.36-.17.86-.19,1.18v.2c.02.32.07.66.13.97,0,.07.03.14.05.2.09.31.24.61.37.9.05.12.12.22.2.33.2.29.46.66.75.91.6.52,1.23.94,2.02,1.14.79.2,1.61.21,2.36-.02s1.34-.59,1.93-1.12c.26-.24.52-.61.7-.86.08-.1.14-.21.2-.33.36-.76.55-1.35.58-2.21v-.2c-.03-.31-.07-.65-.14-.96,0-.06-.03-.11-.05-.17-.11-.3-.24-.61-.38-.9-.16-.31-.46-.66-.66-.89-.24-.28-.6-.52-.87-.71-.09-.07-.19-.13-.28-.18-.34-.17-.69-.33-1.06-.43s-.75-.13-1.12-.16-.78.06-1.16.12c-.12.02-.23.04-.34.09-.34.12-.73.26-1.04.48-.64.45-1.23.96-1.57,1.68s-.6,1.46-.56,2.26c.02.38.05.78.17,1.15.05.15.13.31.19.45s.12.31.19.45c.03.06.06.11.1.16.19.26.43.61.7.84.16.14.49.42.76.57.27.16.59.26.88.38.24.09.48.11.73.14.64.09.83.08,1.55-.05.68-.12,1.46-.57,1.92-1.08.23-.26.48-.54.63-.85.13-.26.26-.57.36-.85.02-.06.03-.12.04-.18.12-.75.2-1.47-.08-2.21-.24-.65-.31-.8-.69-1.29-.34-.43-.55-.66-1.07-.98-.31-.19-.66-.34-1-.41-.23-.04-.63-.1-.86-.11h-.07c-.15,0-.37.04-.48.06-.13.02-.34.03-.49.07-.03,0-.05.02-.08.03-.23.09-.55.22-.77.32-.05.03-.09.05-.14.09-.68.46-.83.66-1.31,1.3-.43.59-.6,1.38-.63,2.09-.02.36.03.73.14,1.07.09.29.2.6.37.86.12.19.36.49.5.66.03.03.04.05.07.08.28.31.61.52,1,.65.37.2.77.28,1.2.26.43.02.83-.08,1.2-.26.38-.13.72-.34,1-.65l.49-.63c.28-.49.43-1.01.43-1.57l-.11-.83c-.14-.53-.42-.99-.8-1.37h.03Z"/>
      <line class="cls-11" x1="425.19" y1="78.52" x2="425.19" y2="117.97"/>
      <path class="cls-8" d="m119.13,143.13s6-9.79,24.18-.55"/>
      <path class="cls-2" d="m142.33,150.59h38.57v-28.79h-38.57v28.79h0Z"/>
      <path class="cls-4" d="m143.33,149.66h36.58v-26.96h-36.58v26.96Z"/>
      <path class="cls-5" d="m149.5,134.57l5.97,9.08c.52.79,1.5,1.14,2.42.87,1.17-.35,2.45-.54,3.77-.54,1.16,0,2.27.14,3.32.41.94.25,1.93-.15,2.43-.98,2.11-3.46,4.43-7.18,6.25-9.88.46-.68.43-1.57-.06-2.23-2.45-3.3-6.89-5.5-11.94-5.5s-9.68,2.3-12.1,5.71c-.65.91-.67,2.12-.05,3.06h0Z"/>
      <path class="cls-16" d="m144.82,125.47h2.77v-.41h-2.77v.41Z"/>
      <path class="cls-16" d="m144.82,126.54h2.77v-.41h-2.77v.41Z"/>
      <path class="cls-2" d="m122.19,166.63l4.01,15.25,11.73,1.47-4.72-21.98-11.01,5.25Z"/>
      <path class="cls-2" d="m118.31,185.33l6.12-4.46c1.16-.84,2.6-1.2,4.02-1l15.38,2.21c1.55.22,2.84,1.28,3.36,2.74l.21.6-29.08-.09h0Z"/>
      <path class="cls-2" d="m175.04,175.69v.08c-.03.19-.06.43-.09.71-.13,1.14-1.11,2-2.26,2h-6.89c-2.6,0-5.18-.64-7.48-1.85l-8.61-4.52c-2.48-1.29-5.27-1.88-8.06-1.69l-24.36,1.72c-.7.05-1.38-.14-1.95-.56l-33.69-24.49c-1.32-.95-1.61-2.79-.65-4.11.34-.47.79-.8,1.29-1,.38-.15.81-.22,1.23-.2l16.29.12,21.94,17.54,26.88.53,26.13,15.24h.02s0,0,0,.02c.07.05.12.11.16.18.04.09.07.17.07.26h0,0Z"/>
      <path class="cls-2" d="m174.97,175.43h-7.33c-2.6,0-5.18-.64-7.48-1.85l-8.61-4.52c-2.48-1.29-5.27-1.88-8.06-1.69l-24.36,1.73c-.7.05-1.38-.14-1.95-.56l-33.68-24.49c-.7-.51-1.11-1.27-1.2-2.07.38-.15.81-.22,1.23-.2l16.29.12,21.94,17.54,26.88.53,26.13,15.24s.02,0,.03.02c.07.05.12.11.16.18h0v.02Z"/>
      <path class="cls-1" d="m123.85,153.76s22.86-.93,25.46-.26,11.98,13.65,11.98,13.65l-1.27,1.17-16.13-7.95-21.76-1.25,1.7-5.36h0Z"/>
      <path class="cls-6" d="m165.66,169.47s1.41.92,2.9,1.04c1.49.13,2.69.55,3.62.62s2.34-.05,1.82.62c-.52.66-3.29,1.59-3.97,1.55-.66-.03-1.45-.11-2.43.42-.98.53-1.8,0-2.03-.8s-.94-1.31-.94-1.31l1.03-2.15h0v.02Z"/>
      <path class="cls-6" d="m101.21,145.89c-.65-.03-1.24-.54-1.17-1.34.1-.95.03-2.3-.37-3.91h.25l4.15-.2s.21,1.27.49,2.43v.03c.25,1.01,1.23,3.14-3.35,2.98h0Z"/>
      <path class="cls-6" d="m105.07,141.38s-5.21,1.36-6.01-1.89c-.8-3.25-2.01-5.26,1.29-6.27,3.29-1,4.25.08,4.78,1.1.54,1.02,1.29,6.62-.05,7.06h0Z"/>
      <path class="cls-6" d="m119.16,150.59c-3.63-2.14-5.05-3.03-6.08-3.17-1.02-.14-2.09-1.21-2.7-1.87-.6-.66-3.89-1.63-4.96-1.55-3.5.22-9.35.89-10.05,2.37-1,2.1,17.56,15.51,17.56,15.51l5.18-2.14c1.52.52,4.58-1.12,5.86-2.09,2.89-2.22-1.17-4.94-4.8-7.06h0Z"/>
      <path class="cls-1" d="m112.4,161.5s1.52,3.12,7.49,3.57c5.97.45,24.79-2.59,26-1.4,2.35,2.3,10.53,5.12,17.97,8.49,0,0,.76,0,1.65-.43,1.47-.71,1.8-1.92,1.8-1.92,0,0-15.18-11.29-17.04-12.84-1.86-1.57-8.83-2.22-12.17-2.22-10.31,0-14.24-.98-14.24-.98,0,0-.03.98-5.14,4.73-2.83,2.08-6.32,3.02-6.32,3.02h0Z"/>
      <path class="cls-3" d="m100.05,142.97s1.58.77,4.58.21c0,0,.2.53.37.7.18.17,2.1-.11,2.78.11.68.23,3,1.51,3.39,1.78.38.27.92,1.45,1.58,1.51s2.4,1,2.4,1c0,0-3.75,2.3-5.96,10.86l-11.04-8.4-3.08-4.14s.38-.96,1.72-1.43c1.34-.47,3.08-.88,3.17-1.17.09-.29.08-1.02.08-1.02h0Z"/>
      <path class="cls-6" d="m113.12,147.94c0,.3-1.29.84-1.31,1.09s-.31.86-.69,1.06c-.23.12-.48.36-.63.53-.09.28-1.94,6.22-3.07,7.62-.75.91-1.71,1.52-2.32,1.84-.27.14-.47.23-.54.26h-.03c-1.83.35-8.89-8.35-8.78-11.06.12-2.71,3.75-2.11,3.75-2.11,0,0,4.2,7.14,5.29,8.52,2.55-2.39,4.81-6.3,4.81-6.3,0,0,.13-.14.3-.32.09-.2.17-.44.18-.54,0-.19.08-.53.17-.49.09.05.19.23.17.34,0,.03,0,.09,0,.15.32-.32.65-.63.79-.68.32-.11,1.93-.23,1.92.06h0l-.02.03Z"/>
      <path class="cls-15" d="m98.17,144.73s-3.35.6-3.6,2.91c-.24,2.32,2.08,6.77,4.43,9.86,0,0,4.01-.96,4.75-3.73l-2.55-4.74"/>
      <path class="cls-8" d="m98.17,144.73s-3.35.6-3.6,2.91c-.24,2.32,2.08,6.77,4.43,9.86,0,0,4.01-.96,4.75-3.73l-2.55-4.74"/>
      <path class="cls-6" d="m100.47,132.25c-7.9,1.21-2.3,12.48-2.3,12.48,3.19.03,1.8-3.81,1.8-3.81-.93-.89-1.23-2.63-1.23-2.63,4.36-1.72,3.25-4.65,3.25-4.65,0,0,2.76-.53,3.66,2.99,0,0,.77,4.83-1.39,4.93l.75,2.34,2.26.03s2.17-10.57-2.1-12.27c-3.17-1.27-4.7.6-4.7.6h0v-.02Z"/>
      <path class="cls-19" d="m116.51,149.38s-2.92,3.32-2.63,5.18c.29,1.86,1.17-.97,2.12-.13.96.84,2.74.32,3.12-.2.38-.52,1.4-2.5,1.4-2.5,0,0-2.06-1.28-4.02-2.34h0Z"/>
      <path class="cls-2" d="m117.24,147.89l.35-3.28c.03-.37.37-.64.75-.6l1.32.14c.37.03.64.37.6.74l-.35,3.28c0,.09,0,.17.03.26l.54,1.92c.13.46-.25,1.05-.86,1.17-.91.19-1.83.18-2.8-.32-.43-.22-.77-.88-.55-1.29l.91-1.78c.03-.08.06-.15.07-.24h0Z"/>
      <path class="cls-6" d="m119.63,143.2l-.98-.14-.47.94.46.05,1.18.13-.2-.97Z"/>
      <path class="cls-18" d="m120.09,152.89c-.03.07-.17.07-.33,0s-.26-.17-.23-.23c.03-.07.17-.07.33,0s.26.17.23.23Z"/>
      <path class="cls-16" d="m174.98,147.97h3.24v-.49h-3.24v.49Z"/>
      <path class="cls-16" d="m174.98,146.98h3.24v-.49h-3.24v.49Z"/>
      <path class="cls-12" d="m159.75,137.88c-.14-.04-.69-.34-.83-.35-.36-.03-1.02-.17-1.32-.76-.42-.83.42-1.59.98-1.63.56-.03.99.2,1.33.2s.3-.58.73-.5c.44.07.43-.47.88-.97.54-.6,1.69-.56,2.53.28.83.84.04,3-.71,3.4-.7.37-2.2.76-3.57.31h0Z"/>
      <path class="cls-13" d="m129.82,142.14c3.84,0,6.95-3.11,6.95-6.93s-3.12-6.93-6.95-6.93-6.95,3.11-6.95,6.93,3.12,6.93,6.95,6.93Z"/>
      <path class="cls-18" d="m127.58,133.65v-.71c.68-.07,1.15-.17,1.41-.33.26-.15.47-.52.6-1.1h.74v7.41h-1v-5.27h-1.76.02Z"/>
      <path class="cls-20" d="m132.11,71.94s-.04-.05-.07-.08l.49.63s-.04-.07-.07-.11l.31.74c-.02-.05-.03-.09-.04-.15l.11.83v-.19l-.11.83c0-.08.03-.14.06-.22l-.31.74c.03-.09.09-.16.14-.23l-.49.63c.05-.06.1-.12.17-.17l-.63.49c.05-.04.11-.08.17-.1l-.74.31c.06-.03.12-.04.19-.05l-.83.11h.16l-.83-.11c.06,0,.11.03.16.04l-.74-.31c.06.03.11.06.17.1l-.63-.49c.05.04.09.09.14.14l-.49-.63c.05.07.09.14.13.22l-.31-.74c.03.09.06.17.07.26l-.11-.83c.02.1.02.2,0,.3l.11-.83c0,.09-.03.17-.07.26l.31-.74c-.03.07-.07.14-.11.2l.49-.63c-.04.05-.09.1-.14.14l.63-.49c-.06.04-.12.09-.19.11l.74-.31c-.09.03-.18.06-.28.08l.83-.11c-.1,0-.2,0-.29,0l.83.11c-.11-.02-.22-.05-.32-.09l.74.31c-.09-.04-.18-.09-.26-.15l.63.49c-.08-.06-.14-.13-.21-.21l.49.63c-.05-.08-.09-.15-.14-.24l.31.74c-.03-.09-.06-.18-.08-.27l.11.83c-.02-.12-.02-.25,0-.37l-.11.83c.02-.14.06-.27.11-.4l-.31.74c.05-.12.11-.22.19-.32l-.49.63c.08-.1.16-.19.26-.26l-.63.49c.09-.06.17-.11.26-.15l-.74.31c.13-.05.26-.09.39-.1l-.83.11c.14-.02.27-.02.41,0l-.83-.11c.14.03.29.06.43.12l-.74-.31c.14.06.26.14.38.22l-.63-.49c.09.08.19.16.26.26l-.49-.63c.08.1.14.2.19.31l-.31-.74c.04.11.08.22.09.33l-.11-.83c.02.13.02.26,0,.38l.11-.83c-.03.15-.06.31-.13.45l.31-.74c-.06.14-.13.26-.22.37l.49-.63c-.09.11-.19.21-.3.31l.63-.49c-.1.08-.21.14-.33.2l.74-.31c-.11.04-.22.08-.33.09l.83-.11c-.13.02-.25.02-.37,0l.83.11c-.13-.02-.25-.05-.37-.1l.74.31c-.13-.06-.25-.13-.37-.21l.63.49c-.11-.09-.21-.19-.3-.3l.49.63c-.09-.13-.17-.26-.24-.4l.31.74c-.04-.12-.08-.24-.1-.37l.11.83c-.02-.11-.02-.23,0-.34l-.11.83c.02-.14.05-.26.1-.38l-.31.74c.05-.11.11-.21.18-.31l-.49.63c.09-.12.2-.22.31-.31l-.63.49c.12-.09.24-.16.37-.22l-.74.31c.12-.05.25-.09.38-.1l-.83.11c.12-.02.24-.02.35,0l-.83-.11c.12.02.23.04.33.09l-.74-.31c.1.04.2.1.29.17l-.63-.49c.1.08.19.16.26.26l-.49-.63c.09.11.15.23.21.36l-.31-.74c.06.14.1.28.12.43l-.11-.83c.02.13.02.25,0,.37l.11-.83c-.02.13-.05.25-.09.36l.31-.74c-.04.09-.09.17-.15.26l.49-.63c-.07.09-.14.16-.23.23l.63-.49c-.09.08-.2.14-.31.18l.74-.31c-.13.05-.26.09-.38.11l.83-.11c-.14.02-.29.02-.43,0l.83.11c-.12-.02-.23-.05-.35-.09l.74.31c-.1-.04-.19-.09-.28-.16l.63.49c-.08-.06-.14-.13-.2-.2l.49.63c-.06-.09-.11-.18-.15-.27l.31.74c-.04-.11-.07-.22-.09-.34l.11.83c-.02-.13-.02-.26,0-.39l-.11.83c.02-.14.06-.28.11-.41l-.31.74c.05-.11.11-.2.18-.31l-.49.63c.07-.09.14-.15.22-.22l-.63.49c.08-.06.15-.1.24-.14l-.74.31.03-.02c.41-.09.76-.28,1.06-.55.34-.22.6-.51.8-.88.23-.36.35-.74.37-1.16.09-.42.08-.83-.06-1.24l-.31-.74c-.27-.47-.65-.84-1.12-1.12l-.74-.31c-.55-.14-1.11-.14-1.65,0-.33.14-.71.25-1,.46-.28.2-.62.43-.85.71-.49.59-.88,1.17-1.07,1.92-.09.36-.13.74-.15,1.11v.16c.02.32.08.66.13.99.02.1.04.2.09.31.11.31.26.72.47,1.02.43.6.91,1.17,1.6,1.48s1.38.56,2.19.54,1.43-.21,2.19-.58c.31-.15.66-.45.88-.64.28-.23.51-.58.71-.86.21-.3.33-.66.46-1,.05-.12.08-.23.09-.36.05-.36.14-.77.11-1.14s-.06-.79-.18-1.16c-.26-.8-.58-1.32-1.12-1.95-.23-.26-.6-.52-.84-.69-.31-.22-.7-.35-1.03-.49-.11-.04-.22-.07-.33-.09-.38-.06-.78-.15-1.18-.11-.31.03-.78.06-1.13.19s-.74.26-1.06.47-.62.43-.89.7c-.04.04-.09.09-.12.13-.2.25-.42.5-.6.77-.03.05-.06.1-.09.15-.14.28-.26.6-.37.89-.13.36-.17.86-.19,1.18v.2c.02.32.07.66.13.97,0,.07.03.14.05.2.09.31.24.61.37.9.05.12.12.22.2.33.2.29.46.66.75.91.6.52,1.23.94,2.02,1.14.79.2,1.61.21,2.36-.02.75-.23,1.34-.59,1.93-1.12.26-.24.52-.61.7-.86.08-.1.14-.21.2-.33.36-.76.55-1.35.58-2.21v-.2c-.03-.31-.07-.65-.14-.96,0-.06-.03-.11-.05-.17-.11-.3-.24-.61-.38-.9-.16-.31-.46-.66-.66-.89-.24-.28-.6-.52-.87-.71-.09-.07-.19-.13-.28-.18-.34-.17-.69-.33-1.06-.43s-.75-.13-1.12-.16-.78.06-1.16.12c-.12.02-.23.04-.34.09-.34.12-.73.26-1.04.48-.64.45-1.23.96-1.57,1.68s-.6,1.46-.56,2.26c.02.38.05.78.17,1.15.05.15.13.31.19.45s.12.31.19.45c.03.06.06.11.1.16.19.26.43.61.7.84.16.14.49.42.76.57.27.16.59.26.88.38.24.09.48.11.73.14.64.09.83.08,1.55-.05.68-.12,1.46-.57,1.92-1.08.23-.26.48-.54.63-.85.13-.26.26-.57.36-.85.02-.06.03-.12.04-.18.12-.75.2-1.47-.08-2.21-.24-.65-.31-.8-.69-1.29-.34-.43-.55-.66-1.07-.98-.31-.19-.66-.34-1-.41-.23-.04-.63-.1-.86-.11h-.07c-.15,0-.37.04-.48.06-.13.02-.34.03-.49.07-.03,0-.05.02-.08.03-.23.09-.55.22-.77.32-.05.03-.09.05-.14.09-.68.46-.83.66-1.31,1.3-.43.59-.6,1.38-.63,2.09-.02.36.03.73.14,1.07.09.29.2.6.37.86.12.19.36.49.5.66.03.03.04.05.07.08.28.31.61.52,1,.65.37.2.77.28,1.2.26.43.02.83-.08,1.2-.26.38-.13.72-.34,1-.65l.49-.63c.28-.49.43-1.01.43-1.57l-.11-.83c-.14-.53-.42-.99-.8-1.37h.03Z"/>
      <line class="cls-11" x1="130.67" y1="78.52" x2="130.67" y2="117.97"/>
    </g>
  </g>
</svg>