<?xml version="1.0" encoding="UTF-8"?>
<svg id="Calque_1" data-name="Calque 1" xmlns="http://www.w3.org/2000/svg" viewBox="0 0 464.41 155.81">
  <defs>
    <style>
      .cls-1, .cls-2, .cls-3, .cls-4, .cls-5, .cls-6, .cls-7, .cls-8, .cls-9, .cls-10, .cls-11, .cls-12, .cls-13, .cls-14, .cls-15, .cls-16, .cls-17, .cls-18 {
        stroke-linecap: round;
        stroke-linejoin: round;
      }

      .cls-1, .cls-2, .cls-3, .cls-4, .cls-5, .cls-6, .cls-7, .cls-8, .cls-9, .cls-10, .cls-11, .cls-13, .cls-19, .cls-16, .cls-17, .cls-18 {
        stroke: #010101;
      }

      .cls-1, .cls-20, .cls-16 {
        fill: #d6d7d7;
      }

      .cls-2 {
        fill: #b8dfde;
      }

      .cls-3 {
        fill: #a17737;
      }

      .cls-4, .cls-21 {
        fill: #bfe5fb;
      }

      .cls-5, .cls-22, .cls-23, .cls-18 {
        fill: #fff;
      }

      .cls-6, .cls-17 {
        fill: #f5afb5;
      }

      .cls-7, .cls-24 {
        fill: #ed6d76;
      }

      .cls-8, .cls-25 {
        fill: #010101;
      }

      .cls-9, .cls-10, .cls-12, .cls-14, .cls-15 {
        fill: none;
      }

      .cls-10, .cls-13, .cls-16, .cls-17, .cls-18 {
        stroke-width: .7px;
      }

      .cls-11, .cls-13 {
        fill: #f4d688;
      }

      .cls-26 {
        fill: #f7e7d5;
      }

      .cls-27 {
        fill: #cfaa57;
      }

      .cls-28 {
        fill: #dfdfe0;
      }

      .cls-12 {
        stroke-dasharray: 0 0 0 0 0 0 .3 5.91;
      }

      .cls-12, .cls-14 {
        stroke: #cfaa57;
      }

      .cls-23 {
        font-family: Arial-Black, 'Arial Black';
        font-size: 14px;
        font-weight: 800;
      }

      .cls-19 {
        fill: #76ac76;
        stroke-miterlimit: 10;
      }

      .cls-14 {
        stroke-width: 2px;
      }

      .cls-15 {
        stroke: #fff;
        stroke-width: 8px;
      }

      .cls-29 {
        letter-spacing: .02em;
      }
    </style>
  </defs>
  <rect class="cls-15" x="-3908.24" y="-4044.48" width="6467.34" height="6437.3"/>
  <g id="Titres_catégories" data-name="Titres catégories">
    <g>
      <path class="cls-5" d="m371.99,120.32h-57.05v31.76h57.05v-31.76Z"/>
      <path class="cls-7" d="m343.47,103.85l28.53,16.46h-57.05l28.51-16.46h0Z"/>
      <path class="cls-2" d="m340.55,129.9h-14.2v11.28h14.2v-11.28Z"/>
      <path class="cls-3" d="m361.76,133.76h-10.24v17.61h10.24v-17.61Z"/>
    </g>
    <g>
      <path class="cls-9" d="m126.6,136.37l1.37.05c6.03-6.21,14.98-17.96,20.94-16.92,3.59.62,4.02,5.37,5.54,9.69,1.52,4.33,1.9,6.76,4.19,11.23l1.09,1.75c.89,1.42,2.15,2.6,3.71,3.26.42.18.88.33,1.37.43,2.62.55,3.14.39,3.11,1.84-.03,1.44-9.83.87-11.06.85-.5-.01-.57-.87-.48-1.88.21-2.32-.39-4.63-1.77-6.5-.32-.44-.68-.93-1.08-1.47-2.51-3.4-4.55-4.9-5.83-9.66-.41-1.8-.03-2.75-.03-2.75-1.42,1.64-6.31,14.86-17.12,21.87l-3.94-11.8"/>
      <path class="cls-4" d="m116.69,131.8c1.59.17,3.12,1.13,4.47,1.94,1.41.85,2.2,2.43,3.85,2.59,1.42.14,1.39.05,1.58.03,1.66-.24,2.59-1.23,2.76-1.42l1.78-1.95,2.74,12.55s-2.05,2.92-5.23,3.59c-1.84.39-7.8.72-10.3-.75l-1.41-.66h-.02c-.15-.06-.33.05-.44.15-.37.31-.69.77-1.03,1.13-.38.39-.79.78-1.26,1.06-.87.51-1.94.51-2.92.71-1.06.22-2.14.38-3.22.51-.2.03-.4.05-.6.07-3.17-1.15-6.96-2.94-7.66-5.1-1.22-3.81,4.51-9.03,4.51-9.03.41.03.88-.08,1.37-.29,0,0,0,0,.01,0,1.8-.76,3.08-2.32,4.71-3.36.09-.05.17-.1.25-.15,1.8-1.05,3.95-1.8,6.06-1.59h-.01s0-.01,0-.01Z"/>
      <path class="cls-22" d="m93.07,143.26c.07.19.13.39.19.59,1.86.87,3.69-.87,3.69-.87,0,0,5.4-5.95,7.34-5.76,0,0-5.71,5.21-4.51,9.02.51.07,2.13.46,4.41.15,2.68-.37,6.37.1,6.37.1.89.1,1.35-.69,1.92-1.22.93-.88,1.99-1.62,2.99-2.42,1.04-.85,2.08-1.71,3.04-2.66.61-.6,1.46-1.36,1.7-2.22.13-.48.26-.94.2-1.44-.05-.43-.23-.84-.19-1.29.05-.52.53-1.09.84-1.49.09-.11.13-.17.13-.17,0,0,.66-1.14.8-.61.14.53.15.86.37.6.21-.26.71-.21.89.08.19.29.61.09.89.47.28.39.51.53.54,1.01.03.47.61.85.38,1.54,0,.01,0,.03-.01.04-.25.67-1.22,1.66-1.49,2.04-.28.38-2.64,3.3-4.07,5.55-.7,1.11-1.82,2.41-2.84,3.49-.32.33-.61.7-.94,1.02-.4.39-.85.87-1.36,1.2-.02.02-.03.03-.06.03-.02.02-.05.03-.07.05-.09.05-.17.09-.25.13-.03.02-.07.03-.1.05,0,0-.01,0-.02,0-.14.06-.29.1-.44.14-.41.1-.85.14-1.27.19-.32.04-.63.09-.93.19h-.02s-.05,0-.07.01c-.1.02-.15.03-.15.03,0,0-1.99.35-3.54.51h-.03c-.51.06-.97.09-1.29.09-1.29-.03-2.85.03-2.85.03,0,0-4.34.83-6.32.36-.64-.15-1.42-.39-2.19-.72-.31-.13-.63-.29-.92-.45-.62-.35-1.18-.77-1.59-1.27-.1-.12-.19-.24-.27-.37-.23-.39-.37-.81-.37-1.28,0-1.66-.23-3.47.64-4.51-2.26-.41-4.64-3.03-4.64-3.03,0,0-3.51-3.04-.76-4.55,0,0,1.55-.2,3.74,1.18,2.18,1.38,2.58,1.17,2.99,1.17s0,.85,0,.85c0,0,1.84,2.14,1.09,3.49-.17.3-.45.55-.91.75-.22.09-.44.14-.67.17"/>
      <path class="cls-9" d="m93.07,143.26c.07.19.13.39.19.59,1.86.87,3.69-.87,3.69-.87,0,0,5.4-5.95,7.34-5.76,0,0-5.71,5.21-4.51,9.02.51.07,2.13.46,4.41.15,2.68-.37,6.37.1,6.37.1.89.1,1.35-.69,1.92-1.22.93-.88,1.99-1.62,2.99-2.42,1.04-.85,2.08-1.71,3.04-2.66.61-.6,1.46-1.36,1.7-2.22.13-.48.26-.94.2-1.44-.05-.43-.23-.84-.19-1.29.05-.52.53-1.09.84-1.49.09-.11.13-.17.13-.17,0,0,.66-1.14.8-.61.14.53.15.86.37.6.21-.26.71-.21.89.08.19.29.61.09.89.47.28.39.51.53.54,1.01.03.47.61.85.38,1.54,0,.01,0,.03-.01.04-.25.67-1.22,1.66-1.49,2.04-.28.38-2.64,3.3-4.07,5.55-.7,1.11-1.82,2.41-2.84,3.49-.32.33-.61.7-.94,1.02-.4.39-.85.87-1.36,1.2-.02.02-.03.03-.06.03-.02.02-.05.03-.07.05-.09.05-.17.09-.25.13-.03.02-.07.03-.1.05,0,0-.01,0-.02,0-.14.06-.29.1-.44.14-.41.1-.85.14-1.27.19-.32.04-.63.09-.93.19h-.02s-.05,0-.07.01c-.1.02-.15.03-.15.03,0,0-1.99.35-3.54.51h-.03c-.51.06-.97.09-1.29.09-1.29-.03-2.85.03-2.85.03,0,0-4.34.83-6.32.36-.64-.15-1.42-.39-2.19-.72-.31-.13-.63-.29-.92-.45-.62-.35-1.18-.77-1.59-1.27-.1-.12-.19-.24-.27-.37-.23-.39-.37-.81-.37-1.28,0-1.66-.23-3.47.64-4.51-2.26-.41-4.64-3.03-4.64-3.03,0,0-3.51-3.04-.76-4.55,0,0,1.55-.2,3.74,1.18,2.18,1.38,2.58,1.17,2.99,1.17s0,.85,0,.85c0,0,1.84,2.14,1.09,3.49-.17.3-.45.55-.91.75-.22.09-.44.14-.67.17"/>
      <path class="cls-5" d="m103.27,151.46s-4.34.83-6.32.37c-.9-.21-2.09-.6-3.12-1.18-.16-9.47-6.99-15.02-6.99-15.02,0,0,1.55-.2,3.74,1.18,2.18,1.38,2.58,1.17,2.99,1.17s0,.85,0,.85c0,0,1.84,2.14,1.09,3.49-.16.3-.45.55-.91.75-.22.09-.44.15-.67.17.07.19.13.39.19.59,1.86.87,3.69-.87,3.69-.87-.07-.17-1.48-3.75-3.01-5.44-1.54-1.7-4.11-4.62-9.39-2.23-.08.03-.16.07-.24.11-2.48,1.18-3.56,4.21-3.34,6.8.36,4.45,4.09,5.3,7.49,6.78,1.69.73,3.36,1.54,4.94,2.48.13.08.27.16.41.23,4.67,2.48,9.47-.23,9.47-.23h0s0,0,0,0Z"/>
      <path class="cls-22" d="m90.55,139.61s.85-.14.85-1.03l-.85,1.03Z"/>
      <path class="cls-9" d="m90.55,139.61s.85-.14.85-1.03"/>
      <path class="cls-8" d="m148.87,146.42l3.3-2.85-3.3-2.85v5.71h0Z"/>
      <path class="cls-9" d="m148.87,143.52h-9.08"/>
    </g>
    <g>
      <path class="cls-5" d="m56.19,54.98c0,.15-.09.29-.16.43-1.14,1.96-2.31,3.95-3.85,5.59-.21.23-.43.45-.65.66l-.04.04s-.03.03-.05.05c-.02.03-.05.05-.07.07-.07.07-.13.12-.21.19-1.92,1.69-4.49,2.81-7.02,2.43-1.01-.15-1.97-.52-2.88-.97-1.39-.69-2.68-1.54-3.86-2.52.06-.57.13-1.14.22-1.71.01-.09.03-.19.09-.27.07-.09.2-.13.31-.15.13-.03.25-.05.38-.06.07-1.05.3-2.07.69-3.04.04-.1.09-.21.18-.28.09-.07.23-.09.3,0,.05.05.07.12.08.19.07.44.1.87.11,1.32.07-.43.19-.86.39-1.26.04-.07.09-.15.15-.19-.48-.31-.94-.63-1.4-.97-2.88-2.12-5.4-4.66-7.78-7.01-2.38-4.39-3.82-9.27-6.54-13.44.04,0,.07-.02.11-.03,2.67-.66,5.09-2.23,6.81-4.37h0c.42-.53.79-1.07,1.11-1.66.81.99,1.62,1.99,2.46,2.96,1.11,1.32,2.28,2.6,3.52,3.79.89.87,1.9,1.55,3.27,1.88.35.09.69.17,1.05.27,1.51.43,2.98.99,4.15,2.02.87.77,1.5,1.76,2.1,2.76,1.32,2.16,2.52,4.39,3.69,6.64.11.21.21.41.32.62.52,1.01,1.04,2.04,1.56,3.06.2.39.4.79.6,1.18.23.47.47.93.7,1.4.07.13.13.27.13.42h.03Z"/>
      <path class="cls-5" d="m24.39,50.26c-.18.45-.39.87-.63,1.28.23-.41.45-.85.63-1.28Z"/>
      <path class="cls-5" d="m53.82,61.27c-.09.89-.31,1.76-.63,2.6-.18.5-.4.99-.65,1.46-1.01,1.92-2.51,3.63-4.19,5.01-2.88,2.39-6.32,4-9.61,5.8-1.64.88-3.25,1.82-4.91,2.65.29-.53.53-1.08.74-1.65.05-.12.09-.25.09-.37-.01-.43-.56-.67-.97-.56-.41.12-.71.47-1,.8-.5.57-.93,1.37-1.57,1.95-.38.35-.83.62-1.42.71-1.74.27-3.55.25-5.29-.08-1.68-.3-3.3-.88-4.77-1.74,1.04-2.47,2.24-4.98,4.14-6.96.67-.69,1.42-1.31,2.31-1.68.81-.34,1.7-.46,2.58-.51,2.15-.13,4.31.07,6.46.27,1.13-.67,2.06-1.36,2.97-2.04-.9-1.66-.93-3.83-.69-6,.06-.57.13-1.14.22-1.71.01-.09.03-.19.09-.27.07-.09.2-.13.31-.15.13-.03.25-.05.38-.06h.01l3.08.5h0l.33.06,8.83,1.45,1.5.25,1.65.27h0Z"/>
      <path class="cls-5" d="m53.91,61.29h-.09c.01-.11.03-.2.03-.3,0,.08.01.19.06.29h0Z"/>
      <path class="cls-9" d="m24.59,34.06s-.06-.09-.09-.13l.19.09"/>
      <path class="cls-9" d="m52.89,53.9v.03h0c-.05.23-.07.48-.12.71-.03.14-.05.28-.09.42-.23,1.01-.55,2.02-1.22,2.8-.33.39-.78.71-1.28.89-.49.2-1.05.27-1.61.17-2.28-.4-4.46-1.26-6.49-2.38-.19-.09-.37-.2-.55-.3-.05-.03-.11-.07-.16-.09-.13-.08-.25-.15-.38-.23-.11-.07-.22-.13-.33-.21-.11-.07-.23-.14-.34-.22"/>
      <path class="cls-5" d="m17.31,76.13c-.37-.35-.71-.71-1.05-1.11-2.28-2.74-3.4-6.47-2.66-9.95.23-1.05.61-2.06,1.01-3.05.93-2.32,1.86-4.25,3.11-6.3,1.19,6.72,1.09,13.66-.42,20.41h0Z"/>
      <path class="cls-5" d="m50.85,26.87c2.74-1.6,3.89-5.21,3.2-8.31-.69-3.1-2.91-5.67-5.51-7.5-1.37-.96-2.88-1.75-4.49-2.18-4.71-1.25-10.03.97-12.79,4.97-2.76,4.01-4.35,8.97-2.34,13.41.32.71,2.04,1.95,2.65,2.43.55.45,1.25.67,1.92.86,2.63.73,5.41,1.07,8.11.69,2.7-.38,5.06-1.96,9.25-4.39h0s0,.01,0,.01Z"/>
      <path class="cls-5" d="m50.12,19.95c-2.01,1.7-4.6,2.64-7.22,2.94-1.22.14-2.46.14-3.69.05-1.4-.11-2.81-.37-4.2-.71-.15-.64-.59-1.2-1.16-1.52-.57-.31-1.29-.39-1.9-.19-.76.25-1.36.87-1.76,1.56-.5.85-.75,1.93-.32,2.82.35.72,1.07,1.18,1.72,1.54-.16,2.25-.29,4.68.93,6.58.57.89,1.19,1.78,2.02,2.43.85.67,2.04,1.44,3.06,1.8,1.77.63,3.95.29,5.66-.48,2.56-1.18,4.29-3.61,5.77-6.02,1.09-1.76,1.91-3.68,2.41-5.69-.54-.65-.87-1.46-1.04-2.28-.17-.83-.21-1.67-.27-2.82h0Z"/>
      <path class="cls-5" d="m57.36,54.34c-.26-.01-.54-.04-.71-.24-.2-.25-.06-.67.25-.75-.37,0-.67.39-.58.75.09.35.55.55,1.04.24h0Z"/>
      <path class="cls-5" d="m51.38,61.63c.59.47,1.4.65,2.14.48-.73-.13-1.46-.29-2.14-.48Z"/>
      <path class="cls-22" d="m41.4,55.72s-.29-1.36-.92-3.76l.92,3.76Z"/>
      <path class="cls-9" d="m41.4,55.72s-.29-1.36-.92-3.76"/>
      <path class="cls-22" d="m46.89,49.07s5.14.4,6,4.85l-6-4.85Z"/>
      <path class="cls-9" d="m46.89,49.07s5.14.4,6,4.85"/>
      <path class="cls-6" d="m51,57.64c.94,0,1.7-.76,1.7-1.7s-.76-1.7-1.7-1.7-1.7.76-1.7,1.7.76,1.7,1.7,1.7Z"/>
      <path class="cls-9" d="m46.89,45.44l1.19,3.63"/>
      <path class="cls-5" d="m42.55,57.8c.04.11-.02.22-.07.32-.21.39-.43.79-.64,1.18-.03.03-.05.07-.06.1-.07.11-.13.23-.19.34-1.02-.53-2.16-.63-3.22-.38,0-.21,0-.42.03-.63.07-1.05.29-2.07.69-3.04.04-.1.09-.21.18-.28.09-.07.23-.09.3,0,.05.05.07.12.08.19.07.44.1.87.11,1.32.07-.43.19-.86.39-1.26.04-.07.09-.15.15-.19.03-.02.06-.03.09-.04.13,0,.21.11.25.26.01.06.02.12.02.18,0,.4,0,.79-.05,1.19.05-.41.17-.8.35-1.16v-.02c.04-.09.09-.17.17-.21.08-.05.19-.03.23.05.03.05.02.09.01.15-.01.09-.02.18-.04.27-.05.4-.11.79-.19,1.19.07-.37.19-.75.35-1.09h0c.03-.08.07-.15.13-.19.16-.1.38.06.42.24.02.09.01.17,0,.25-.02.1-.05.21-.09.3-.14.43-.18.89-.11,1.34.05-.17.1-.35.24-.46.13-.1.38-.09.43.08h.02Z"/>
      <path class="cls-5" d="m58.98,52.49c-1.03-.07-1.89,1.08-2.92.91-.41-.07-.79-.35-1.22-.31-.55.05-.9.6-1.31.98-.4.38-.91.62-1.38.93-1.1.76-1.84,2.03-1.96,3.37-.12,1.34.37,2.72,1.44,3.57.02.85.05,1.72.37,2.5.23.55.61,1.02.97,1.48.73.91,1.48,1.86,2.38,2.54.88-.57,1.82-1.05,2.8-1.42.28-.1.56-.2.8-.37.45-.32.67-.86.86-1.38,1.31-3.59,1.78-7.44,1.84-11.26,0-.48,0-1.01-.3-1.38-.32-.41-.84-.06-2.37-.17h-.01Z"/>
      <path class="cls-5" d="m58.98,55.94c.43-.07.89.24.98.67.1.43-.19.9-.61,1.02.22-.2.28-.54.17-.83-.11-.28-.36-.48-.55-.87h0Z"/>
      <path class="cls-22" d="m58.98,52.49c-1.03-.07-1.89,1.08-2.92.91-.41-.07-.79-.35-1.22-.31-.55.05-.9.6-1.31.98-.4.38-.91.62-1.38.93-1.1.76-1.84,2.03-1.96,3.37-.12,1.34.37,2.72,1.44,3.57.02.85.05,1.72.37,2.5.23.55.61,1.02.97,1.48.73.91,1.48,1.86,2.38,2.54.88-.57,1.82-1.05,2.8-1.42.28-.1.56-.2.8-.37.45-.32.67-.86.86-1.38,1.31-3.59,1.78-7.44,1.84-11.26,0-.48,0-1.01-.3-1.38-.32-.41-.84-.06-2.37-.17h-.01Z"/>
      <path class="cls-9" d="m58.98,52.49c-1.03-.07-1.89,1.08-2.92.91-.41-.07-.79-.35-1.22-.31-.55.05-.9.6-1.31.98-.4.38-.91.62-1.38.93-1.1.76-1.84,2.03-1.96,3.37-.12,1.34.37,2.72,1.44,3.57.02.85.05,1.72.37,2.5.23.55.61,1.02.97,1.48.73.91,1.48,1.86,2.38,2.54.88-.57,1.82-1.05,2.8-1.42.28-.1.56-.2.8-.37.45-.32.67-.86.86-1.38,1.31-3.59,1.78-7.44,1.84-11.26,0-.48,0-1.01-.3-1.38-.32-.41-.84-.06-2.37-.17h-.01Z"/>
      <path class="cls-11" d="m56.92,70.09c-.1.93-.48,1.83-.95,2.64-1.49,2.52-3.95,4.36-6.61,5.59-2.66,1.22-5.55,1.86-8.43,2.45-.29.19-.59.37-.9.53-.11.07-.22.12-.33.17h0c-1.74.88-3.67,1.31-5.52.89-.85-.19-1.69-.58-2.29-1.23l-7.47-1.54c-.25.3-.49.61-.71.91-1.5-.53-2.95-1.23-4.31-2.06.09-.2.16-.39.25-.59,1.04-2.47,2.24-4.98,4.14-6.96.67-.69,1.42-1.31,2.31-1.68.81-.34,1.7-.46,2.58-.51,2.15-.13,4.31.07,6.46.27,1.13-.67,2.06-1.36,2.97-2.04-.9-1.66-.93-3.83-.69-6,.06-.57.13-1.14.22-1.71.01-.09.03-.19.09-.27.07-.09.2-.13.31-.15.13-.03.25-.05.38-.06h.01c1.05-.13,2.13.04,3.08.5h0s.03.02.05.03c.08.04.15.09.23.13.07.05.13.11.16.19.05.12.04.26.03.39-.09,1.05-.17,2.1-.25,3.16,1.58-.97,3.2-1.82,4.97-2.08,1.54-.24,3.23.01,4.45.93.17.13.33.27.49.43l.03.03c.55.58,1.05,1.03,1.51,1.42,1.35,1.11,2.29,1.51,2.78,2.38.05.09.1.19.15.28.21.38.37.78.51,1.2.25.76.37,1.56.29,2.36h-.02Z"/>
      <path class="cls-5" d="m40.1,81.17c-.31-.14-.51-.51-.46-.85.06-.34.37-.63.71-.66-.24-.15-.46-.25-.63-.42-.17-.17-.29-.41-.25-.64.05-.31.34-.52.61-.69-.32-.21-.74-.49-.67-.88.06-.31.4-.47.71-.53.72-.15,1.47-.03,2.2.03,1.68.13,3.37-.06,4.98-.56-1.26-.16-2.62,0-3.38-.72-.23-.23-.15-.69.06-.94.09-.1.21-.15.33-.19.99-.31,2.04-.31,3.08-.28,1.48.04,3.01.09,4.37-.47.3-.13.6-.29.84-.51.27-.25.45-.55.63-.87.59-1.02,1.15-2.06,1.66-3.12.39-.83.76-1.68,1.31-2.41s1.3-1.36,2.19-1.62c.59.87.82,1.96.81,3.01-.01,1.06-.25,2.1-.51,3.12-.35,1.36-.77,2.7-1.42,3.95-1.13,2.18-2.96,3.97-5.07,5.24-2.1,1.27-4.59,1.95-7.01,2.37-1.55.27-2.74.15-4.63-.33-.49-.13-.77-.49-.45-1.01h0s.02,0,.02,0Z"/>
      <path class="cls-5" d="m57.12,66.11c.73,1.23,2.06,2.02,3.45,2.36,1.4.32,2.09.22,3.49-.05,1.35-.25,2.71-.76,3.75-1.66,1.32-1.14,1.74-2.11,2.34-4.17.26-.88.24-2.33.05-3.23-.44-2.04-1.45-3.59-2.98-5.02-1.18-1.09-2.46-2.14-3.99-2.65-1.53-.51-3.36-.37-4.56.7.73.55,1.59.94,2.48,1.16-1,.03-1.98.61-2.48,1.47.32.33.77.51,1.04.65.31.16.63.33.82.63.3.45.19,1.07-.13,1.49-.33.42-.83.67-1.35.81-.53.14-1.1.18-1.61-.04-.5-.23-.88-.77-.79-1.29-.23.52-.31,1.09-.39,1.66-.09.65-.17,1.28-.24,1.93-.04.36-.08.73.03,1.06,0,.18,0,.36.06.53.07.17.2.32.37.35.27.05.5-.2.77-.28-.71.37-1.17,1.2-1.1,2,.01.17.05.34.18.45.14.12.35.13.53.07.17-.07.32-.19.47-.31-.19.2-.37.39-.55.59-.05.05-.1.11-.1.19,0,.06.03.11.07.16.1.15.28.26.39.44h0s0-.03,0-.03Z"/>
      <path class="cls-9" d="m38.1,66.93s4.05,3.97,8.8-.51"/>
      <path class="cls-22" d="m35.13,68.98s1.84.41,3.26,1.18l-3.26-1.18Z"/>
      <path class="cls-9" d="m35.13,68.98s1.84.41,3.26,1.18"/>
      <path class="cls-1" d="m38.91,54.51c-2.88-2.12-5.4-4.66-7.78-7.01-2.38-4.39-3.82-9.27-6.54-13.44-.23.06-.47.11-.7.15-3.37.05-7.82,2.27-10.23,4.65-2.48,2.44-4.19,5.55-5.59,8.75-2.08,4.73-3.53,9.74-4.33,14.85-.37,2.42-.61,4.91-.15,7.31.63,3.36,2.38,6.94,4.8,9.36,1.01,1.01,2.04,1.84,3.1,2.58l4.77-6.69c-2.28-2.74-3.4-6.47-2.66-9.95.23-1.05.61-2.06,1.01-3.05.93-2.32,1.86-4.25,3.11-6.3,1.19,6.72,1.09,13.66-.42,20.41.13.13.27.26.41.37.59.51,1.24.95,1.9,1.35,1.04-2.47,2.24-4.98,4.14-6.96.67-.69,1.42-1.31,2.31-1.68.81-.34,1.7-.46,2.58-.51,2.15-.13,4.31.07,6.46.27,1.13-.67,2.06-1.36,2.97-2.04-.9-1.66-.93-3.83-.69-6,.06-.57.13-1.14.22-1.71.01-.09.03-.19.09-.27.07-.09.2-.13.31-.15.13-.03.25-.05.38-.06.07-1.05.3-2.07.69-3.04.04-.1.09-.21.18-.28.09-.07.23-.09.3,0,.05.05.07.12.08.19.07.44.1.87.11,1.32.07-.43.19-.86.39-1.26.04-.07.09-.15.15-.19-.48-.31-.94-.63-1.4-.97h.01Z"/>
      <path class="cls-22" d="m17.62,55.12c.04.2.07.4.1.6-1.26,2.04-2.18,3.98-3.11,6.3-.4.99-.78,2.01-1.01,3.05-.85,3.97.73,8.27,3.7,11.06.13.13.27.26.41.37,3.24,2.76,7.76,3.81,11.97,3.17,1.53-.23,2.18-1.74,2.98-2.66.29-.33.58-.67.99-.79.41-.12.96.12.97.55,0,.13-.04.25-.09.37-.21.57-.46,1.11-.74,1.65-.37.69-.81,1.36-1.3,1.98,1.78.11,3.27-.46,4.79-.6.67-.07,1.38-.03,1.96.29.16.09.31.21.41.37.18.31.07.75-.24.93.39-.02.67.31.63.63-.04.31-.3.55-.6.65.31.09.48.3.54.55.02.07.03.14,0,.21-.06.26-.39.34-.55.56.08.38-.08.71-.3.95-.23.24-.51.4-.81.55-1.2.61-2.47,1.06-3.78,1.34-5.86,1.44-13.01.46-18.41-2.62-2.87-1.68-5.37-3-7.78-5.43-2.42-2.42-4.17-6-4.8-9.36-.45-2.41-.23-4.89.15-7.31.8-5.11,2.26-10.12,4.33-14.85l9.55,7.52h0Z"/>
      <path class="cls-9" d="m39.44,81.77l-5.27.6"/>
      <path class="cls-9" d="m39.48,83.04l-6.06.95"/>
      <path class="cls-9" d="m39.47,84.36l-5.49,1.18"/>
      <path class="cls-9" d="m17.62,55.12c.04.2.07.4.1.6-1.26,2.04-2.18,3.98-3.11,6.3-.4.99-.78,2.01-1.01,3.05-.85,3.97.73,8.27,3.7,11.06.13.13.27.26.41.37,3.24,2.76,7.76,3.81,11.97,3.17,1.53-.23,2.18-1.74,2.98-2.66.29-.33.58-.67.99-.79.41-.12.96.12.97.55,0,.13-.04.25-.09.37-.21.57-.46,1.11-.74,1.65-.37.69-.81,1.36-1.3,1.98,1.78.11,3.27-.46,4.79-.6.67-.07,1.38-.03,1.96.29.16.09.31.21.41.37.18.31.07.75-.24.93.39-.02.67.31.63.63-.04.31-.3.55-.6.65.31.09.48.3.54.55.02.07.03.14,0,.21-.06.26-.39.34-.55.56.08.38-.08.71-.3.95-.23.24-.51.4-.81.55-1.2.61-2.47,1.06-3.78,1.34-5.86,1.44-13.01.46-18.41-2.62-2.87-1.68-5.37-3-7.78-5.43-2.42-2.42-4.17-6-4.8-9.36-.45-2.41-.23-4.89.15-7.31.8-5.11,2.26-10.12,4.33-14.85l9.55,7.52h0Z"/>
      <path class="cls-22" d="m40.08,77.92s2.97.67,5.55,0h-5.55Z"/>
      <path class="cls-9" d="m40.08,77.92s2.97.67,5.55,0"/>
      <path class="cls-22" d="m40.34,79.67s3.75.15,5.28-.23l-5.28.23Z"/>
      <path class="cls-9" d="m40.34,79.67s3.75.15,5.28-.23"/>
      <path class="cls-22" d="m40.1,81.17s3.61.51,5.82-.3c0,0-5.82.3-5.82.3Z"/>
      <path class="cls-9" d="m40.1,81.17s3.61.51,5.82-.3"/>
      <path class="cls-9" d="m56.9,53.34s.46.99.94,1.55"/>
      <path class="cls-9" d="m44.86,25.56s-.99,3.95,0,5.49c.99,1.54-.44,2.2-2.36.99"/>
      <path class="cls-25" d="m39.99,26.98c.14-.65-.02-1.24-.35-1.32-.33-.07-.71.41-.85,1.06s.02,1.24.35,1.32c.33.07.71-.41.85-1.06Z"/>
      <path class="cls-25" d="m47.47,29.32c.21-.63.13-1.24-.19-1.35-.32-.11-.75.31-.97.95-.21.63-.13,1.24.19,1.35.32.11.75-.31.97-.95Z"/>
      <path class="cls-9" d="m38.71,33.93s1.77,1.3,4.28,1.3"/>
      <path class="cls-9" d="m17.62,55.12v-6.06"/>
      <path class="cls-9" d="m31.88,22.93l.77.6"/>
      <path class="cls-20" d="m22.54,59.75s5.49,6.67,12.58,3.71l-12.58-3.71Z"/>
      <path class="cls-9" d="m22.54,59.75s5.49,6.67,12.58,3.71"/>
      <path class="cls-22" d="m37.13,24.58s1.34-.9,3.18-.66l-3.18.66Z"/>
      <path class="cls-9" d="m37.13,24.58s1.34-.9,3.18-.66"/>
      <path class="cls-22" d="m48.08,24.91s1.31.69,1.81,1.95l-1.81-1.95Z"/>
      <path class="cls-9" d="m48.08,24.91s1.31.69,1.81,1.95"/>
    </g>
    <g>
      <path class="cls-14" d="m394.3,69.97c2.13,1.39,5.74,3.41,7.98,4.62-2.7,1.64-4.53,3.13-7.22,4.77"/>
      <line class="cls-14" x1="69.53" y1="75.07" x2="399.41" y2="75.07"/>
    </g>
    <path class="cls-27" d="m344.69,74.1s-.03-.03-.05-.05l.33.43s-.03-.05-.05-.07l.21.51s-.02-.07-.03-.1l.07.57v-.13l-.07.57c0-.05.02-.1.04-.15l-.21.51c.03-.06.06-.11.09-.16l-.33.43s.07-.08.11-.11l-.43.33s.07-.05.11-.07l-.51.21s.08-.03.13-.04l-.57.07h.11l-.57-.07s.07.01.11.03l-.51-.21s.08.04.11.07l-.43-.33s.07.06.09.09l-.33-.43s.07.1.09.15l-.21-.51c.02.06.04.11.05.17l-.07-.57c0,.07,0,.14,0,.21l.07-.57c0,.06-.03.12-.05.17l.21-.51s-.05.09-.08.13l.33-.43s-.06.07-.1.1l.43-.33s-.08.05-.13.08l.51-.21c-.06.03-.13.04-.19.05l.57-.07c-.07,0-.13,0-.2,0l.57.07c-.07-.01-.15-.03-.22-.06l.51.21c-.06-.03-.12-.06-.17-.1l.43.33c-.05-.04-.1-.09-.15-.15l.33.43c-.04-.05-.07-.1-.09-.16l.21.51c-.03-.06-.04-.13-.05-.19l.07.57c-.01-.09-.01-.17,0-.25l-.07.57c.01-.09.04-.19.07-.27l-.21.51c.03-.08.08-.15.13-.22l-.33.43c.05-.07.11-.13.18-.18l-.43.33c.06-.04.11-.07.18-.11l-.51.21c.09-.03.17-.06.27-.07l-.57.07c.09-.01.19,0,.28,0l-.57-.07c.1.01.2.04.29.08l-.51-.21c.09.04.18.09.27.15l-.43-.33c.07.05.13.11.18.18l-.33-.43c.05.07.09.14.13.22l-.21-.51c.03.07.05.15.06.23l-.07-.57c.01.09.01.17,0,.27l.07-.57c-.01.11-.04.21-.09.31l.21-.51c-.04.09-.09.17-.15.25l.33-.43c-.06.08-.13.15-.21.21l.43-.33c-.07.05-.15.1-.23.13l.51-.21c-.07.03-.15.05-.23.07l.57-.07c-.09.01-.17.01-.25,0l.57.07c-.09-.01-.17-.04-.25-.07l.51.21c-.09-.04-.17-.09-.25-.15l.43.33c-.07-.06-.15-.13-.21-.21l.33.43c-.07-.09-.12-.17-.16-.27l.21.51c-.03-.08-.05-.17-.07-.25l.07.57c0-.08,0-.15,0-.23l-.07.57c.01-.09.03-.18.07-.26l-.21.51c.03-.07.07-.15.12-.21l-.33.43c.06-.08.13-.15.21-.21l-.43.33c.08-.06.17-.11.26-.15l-.51.21c.09-.03.17-.06.26-.07l-.57.07c.08-.01.16-.01.24,0l-.57-.07c.08.01.15.03.23.06l-.51-.21c.07.03.13.07.19.11l-.43-.33c.07.05.13.11.18.18l-.33-.43c.06.07.11.15.15.24l-.21-.51c.04.09.07.19.08.29l-.07-.57c.01.09.01.17,0,.25l.07-.57c-.01.09-.03.17-.07.25l.21-.51c-.03.06-.06.12-.1.17l.33-.43c-.05.06-.1.11-.15.15l.43-.33c-.07.05-.13.09-.21.13l.51-.21c-.09.03-.17.06-.26.07l.57-.07c-.1.01-.2.01-.29,0l.57.07c-.08-.01-.16-.03-.23-.07l.51.21c-.07-.03-.13-.07-.19-.11l.43.33c-.05-.04-.1-.09-.14-.14l.33.43c-.04-.06-.08-.12-.11-.19l.21.51c-.03-.07-.05-.15-.06-.23l.07.57c-.01-.09,0-.18,0-.27l-.07.57c.01-.1.04-.19.08-.28l-.21.51c.03-.07.07-.14.12-.21l-.33.43c.05-.05.09-.11.15-.15l-.43.33c.05-.04.11-.07.17-.1l-.51.21h.02c.27-.07.52-.2.72-.39.23-.15.41-.35.55-.59.15-.25.24-.51.25-.79.06-.28.05-.57-.04-.85l-.21-.51c-.19-.32-.44-.57-.76-.76l-.51-.21c-.37-.1-.75-.1-1.13,0-.23.09-.48.17-.69.31-.19.13-.42.29-.58.48-.34.4-.6.79-.73,1.32-.06.25-.09.51-.11.76v.11c0,.22.05.45.09.67.01.07.03.14.05.21.08.21.17.49.32.69.29.41.62.8,1.09,1.01s.94.39,1.5.36.98-.15,1.5-.39c.21-.1.45-.31.6-.43.19-.16.35-.39.49-.59.15-.2.23-.45.31-.68.03-.08.05-.16.07-.25.04-.25.1-.52.08-.78s-.04-.54-.12-.79c-.17-.55-.39-.9-.77-1.33-.15-.18-.41-.35-.58-.47-.21-.15-.47-.24-.71-.33-.07-.03-.15-.05-.23-.06-.26-.04-.53-.1-.81-.07-.21.03-.53.04-.77.13s-.51.18-.73.32-.43.29-.61.47c-.03.03-.06.06-.09.09-.14.17-.29.35-.41.53-.02.03-.04.07-.06.11-.1.19-.18.41-.26.61-.09.24-.11.59-.13.81v.13c.01.22.05.45.09.67,0,.05.02.09.03.14.07.21.17.41.25.61.03.08.08.15.13.23.14.19.31.45.51.62.41.35.84.64,1.38.78s1.1.15,1.62,0,.92-.4,1.32-.77c.18-.16.35-.42.47-.59.05-.07.1-.15.14-.23.25-.51.38-.93.39-1.51v-.13c-.02-.21-.05-.45-.09-.65,0-.04-.02-.08-.03-.11-.07-.21-.16-.42-.26-.61-.11-.21-.31-.45-.45-.61-.17-.19-.41-.35-.59-.49-.06-.05-.13-.09-.19-.12-.23-.11-.47-.23-.72-.29s-.51-.09-.77-.11-.53.04-.79.08c-.08.01-.15.03-.23.06-.23.09-.5.18-.71.33-.43.31-.83.65-1.07,1.15s-.41.99-.39,1.54c.01.26.03.53.11.79.03.1.09.21.13.31s.08.21.13.31c.02.04.04.07.07.11.13.18.29.42.47.57.11.09.34.29.51.39.19.11.4.18.6.26.17.07.32.07.5.1.43.06.57.05,1.06-.04.46-.08,1-.39,1.32-.73.16-.17.33-.37.43-.58.09-.18.18-.39.24-.58.01-.04.02-.08.03-.12.08-.51.14-1.01-.05-1.52-.17-.44-.21-.55-.47-.87-.23-.3-.37-.45-.73-.67-.21-.13-.45-.23-.69-.28-.16-.03-.43-.07-.59-.08h-.05c-.11,0-.25.03-.33.04-.09.01-.23.02-.33.05-.02,0-.03.01-.05.02-.15.05-.38.15-.53.22-.03.02-.07.03-.1.05-.47.31-.57.45-.89.89-.29.4-.41.94-.43,1.43-.01.25.03.5.1.73.07.2.14.41.25.59.08.13.25.33.35.45.01.02.03.03.05.05.19.21.42.35.69.44.25.13.53.19.82.18.29.01.57-.05.82-.18.26-.09.49-.23.69-.44l.33-.43c.19-.33.29-.69.29-1.07l-.07-.57c-.1-.36-.28-.67-.55-.94h0Z"/>
    <path class="cls-27" d="m233.52,74.1s-.03-.03-.05-.05l.33.43s-.03-.05-.05-.07l.21.51s-.02-.07-.03-.1l.07.57v-.13l-.07.57c0-.05.02-.1.04-.15l-.21.51c.03-.06.06-.11.09-.16l-.33.43s.07-.08.11-.11l-.43.33s.07-.05.11-.07l-.51.21s.08-.03.13-.04l-.57.07h.11l-.57-.07s.07.01.11.03l-.51-.21s.08.04.11.07l-.43-.33s.07.06.09.09l-.33-.43s.07.1.09.15l-.21-.51c.02.06.04.11.05.17l-.07-.57c0,.07,0,.14,0,.21l.07-.57c0,.06-.03.12-.05.17l.21-.51s-.05.09-.08.13l.33-.43s-.06.07-.1.1l.43-.33s-.08.05-.13.08l.51-.21c-.06.03-.13.04-.19.05l.57-.07c-.07,0-.13,0-.2,0l.57.07c-.07-.01-.15-.03-.22-.06l.51.21c-.06-.03-.12-.06-.17-.1l.43.33c-.05-.04-.1-.09-.15-.15l.33.43c-.04-.05-.07-.1-.09-.16l.21.51c-.03-.06-.04-.13-.05-.19l.07.57c-.01-.09-.01-.17,0-.25l-.07.57c.01-.09.04-.19.07-.27l-.21.51c.03-.08.08-.15.13-.22l-.33.43c.05-.07.11-.13.18-.18l-.43.33c.06-.04.11-.07.18-.11l-.51.21c.09-.03.17-.06.27-.07l-.57.07c.09-.01.19,0,.28,0l-.57-.07c.1.01.2.04.29.08l-.51-.21c.09.04.18.09.27.15l-.43-.33c.07.05.13.11.18.18l-.33-.43c.05.07.09.14.13.22l-.21-.51c.03.07.05.15.06.23l-.07-.57c.01.09.01.17,0,.27l.07-.57c-.01.11-.04.21-.09.31l.21-.51c-.04.09-.09.17-.15.25l.33-.43c-.06.08-.13.15-.21.21l.43-.33c-.07.05-.15.1-.23.13l.51-.21c-.07.03-.15.05-.23.07l.57-.07c-.09.01-.17.01-.25,0l.57.07c-.09-.01-.17-.04-.25-.07l.51.21c-.09-.04-.17-.09-.25-.15l.43.33c-.07-.06-.15-.13-.21-.21l.33.43c-.07-.09-.12-.17-.16-.27l.21.51c-.03-.08-.05-.17-.07-.25l.07.57c0-.08,0-.15,0-.23l-.07.57c.01-.09.03-.18.07-.26l-.21.51c.03-.07.07-.15.12-.21l-.33.43c.06-.08.13-.15.21-.21l-.43.33c.08-.06.17-.11.26-.15l-.51.21c.09-.03.17-.06.26-.07l-.57.07c.08-.01.16-.01.24,0l-.57-.07c.08.01.15.03.23.06l-.51-.21c.07.03.13.07.19.11l-.43-.33c.07.05.13.11.18.18l-.33-.43c.06.07.11.15.15.24l-.21-.51c.04.09.07.19.08.29l-.07-.57c.01.09.01.17,0,.25l.07-.57c-.01.09-.03.17-.07.25l.21-.51c-.03.06-.06.12-.1.17l.33-.43c-.05.06-.1.11-.15.15l.43-.33c-.07.05-.13.09-.21.13l.51-.21c-.09.03-.17.06-.26.07l.57-.07c-.1.01-.2.01-.29,0l.57.07c-.08-.01-.16-.03-.23-.07l.51.21c-.07-.03-.13-.07-.19-.11l.43.33c-.05-.04-.1-.09-.14-.14l.33.43c-.04-.06-.08-.12-.11-.19l.21.51c-.03-.07-.05-.15-.06-.23l.07.57c-.01-.09,0-.18,0-.27l-.07.57c.01-.1.04-.19.08-.28l-.21.51c.03-.07.07-.14.12-.21l-.33.43c.05-.05.09-.11.15-.15l-.43.33c.05-.04.11-.07.17-.1l-.51.21h.02c.27-.07.52-.2.72-.39.23-.15.41-.35.55-.59.15-.25.24-.51.25-.79.06-.28.05-.57-.04-.85l-.21-.51c-.19-.32-.44-.57-.76-.76l-.51-.21c-.37-.1-.75-.1-1.13,0-.23.09-.48.17-.69.31-.19.13-.42.29-.58.48-.34.4-.6.79-.73,1.32-.06.25-.09.51-.11.76v.11c0,.22.05.45.09.67.01.07.03.14.05.21.08.21.17.49.32.69.29.41.62.8,1.09,1.01s.94.39,1.5.36.98-.15,1.5-.39c.21-.1.45-.31.6-.43.19-.16.35-.39.49-.59.15-.2.23-.45.31-.68.03-.08.05-.16.07-.25.04-.25.1-.52.08-.78s-.04-.54-.12-.79c-.17-.55-.39-.9-.77-1.33-.15-.18-.41-.35-.58-.47-.21-.15-.47-.24-.71-.33-.07-.03-.15-.05-.23-.06-.26-.04-.53-.1-.81-.07-.21.03-.53.04-.77.13s-.51.18-.73.32-.43.29-.61.47c-.03.03-.06.06-.09.09-.14.17-.29.35-.41.53-.02.03-.04.07-.06.11-.1.19-.18.41-.26.61-.09.24-.11.59-.13.81v.13c.01.22.05.45.09.67,0,.05.02.09.03.14.07.21.17.41.25.61.03.08.08.15.13.23.14.19.31.45.51.62.41.35.84.64,1.38.78s1.1.15,1.62,0,.92-.4,1.32-.77c.18-.16.35-.42.47-.59.05-.07.1-.15.14-.23.25-.51.38-.93.39-1.51v-.13c-.02-.21-.05-.45-.09-.65,0-.04-.02-.08-.03-.11-.07-.21-.16-.42-.26-.61-.11-.21-.31-.45-.45-.61-.17-.19-.41-.35-.59-.49-.06-.05-.13-.09-.19-.12-.23-.11-.47-.23-.72-.29s-.51-.09-.77-.11-.53.04-.79.08c-.08.01-.15.03-.23.06-.23.09-.5.18-.71.33-.43.31-.83.65-1.07,1.15s-.41.99-.39,1.54c.01.26.03.53.11.79.03.1.09.21.13.31s.08.21.13.31c.02.04.04.07.07.11.13.18.29.42.47.57.11.09.34.29.51.39.19.11.4.18.6.26.17.07.32.07.5.1.43.06.57.05,1.06-.04.46-.08,1-.39,1.32-.73.16-.17.33-.37.43-.58.09-.18.18-.39.24-.58.01-.04.02-.08.03-.12.08-.51.14-1.01-.05-1.52-.17-.44-.21-.55-.47-.87-.23-.3-.37-.45-.73-.67-.21-.13-.45-.23-.69-.28-.16-.03-.43-.07-.59-.08h-.05c-.11,0-.25.03-.33.04-.09.01-.23.02-.33.05-.02,0-.03.01-.05.02-.15.05-.38.15-.53.22-.03.02-.07.03-.1.05-.47.31-.57.45-.89.89-.29.4-.41.94-.43,1.43-.01.25.03.5.1.73.07.2.14.41.25.59.08.13.25.33.35.45.01.02.03.03.05.05.19.21.42.35.69.44.25.13.53.19.82.18.29.01.57-.05.82-.18.26-.09.49-.23.69-.44l.33-.43c.19-.33.29-.69.29-1.07l-.07-.57c-.1-.36-.28-.67-.55-.94h0Z"/>
    <path class="cls-27" d="m122.34,74.1s-.03-.03-.05-.05l.33.43s-.03-.05-.05-.07l.21.51s-.02-.07-.03-.1l.07.57v-.13l-.07.57c0-.05.02-.1.04-.15l-.21.51c.03-.06.06-.11.09-.16l-.33.43s.07-.08.11-.11l-.43.33s.07-.05.11-.07l-.51.21s.08-.03.13-.04l-.57.07h.11l-.57-.07s.07.01.11.03l-.51-.21s.08.04.11.07l-.43-.33s.07.06.09.09l-.33-.43s.07.1.09.15l-.21-.51c.02.06.04.11.05.17l-.07-.57c0,.07,0,.14,0,.21l.07-.57c0,.06-.03.12-.05.17l.21-.51s-.05.09-.08.13l.33-.43s-.06.07-.1.1l.43-.33s-.08.05-.13.08l.51-.21c-.06.03-.13.04-.19.05l.57-.07c-.07,0-.13,0-.2,0l.57.07c-.07-.01-.15-.03-.22-.06l.51.21c-.06-.03-.12-.06-.17-.1l.43.33c-.05-.04-.1-.09-.15-.15l.33.43c-.04-.05-.07-.1-.09-.16l.21.51c-.03-.06-.04-.13-.05-.19l.07.57c-.01-.09-.01-.17,0-.25l-.07.57c.01-.09.04-.19.07-.27l-.21.51c.03-.08.08-.15.13-.22l-.33.43c.05-.07.11-.13.18-.18l-.43.33c.06-.04.11-.07.18-.11l-.51.21c.09-.03.17-.06.27-.07l-.57.07c.09-.01.19,0,.28,0l-.57-.07c.1.01.2.04.29.08l-.51-.21c.09.04.18.09.27.15l-.43-.33c.07.05.13.11.18.18l-.33-.43c.05.07.09.14.13.22l-.21-.51c.03.07.05.15.06.23l-.07-.57c.01.09.01.17,0,.27l.07-.57c-.01.11-.04.21-.09.31l.21-.51c-.04.09-.09.17-.15.25l.33-.43c-.06.08-.13.15-.21.21l.43-.33c-.07.05-.15.1-.23.13l.51-.21c-.07.03-.15.05-.23.07l.57-.07c-.09.01-.17.01-.25,0l.57.07c-.09-.01-.17-.04-.25-.07l.51.21c-.09-.04-.17-.09-.25-.15l.43.33c-.07-.06-.15-.13-.21-.21l.33.43c-.07-.09-.12-.17-.16-.27l.21.51c-.03-.08-.05-.17-.07-.25l.07.57c0-.08,0-.15,0-.23l-.07.57c.01-.09.03-.18.07-.26l-.21.51c.03-.07.07-.15.12-.21l-.33.43c.06-.08.13-.15.21-.21l-.43.33c.08-.06.17-.11.26-.15l-.51.21c.09-.03.17-.06.26-.07l-.57.07c.08-.01.16-.01.24,0l-.57-.07c.08.01.15.03.23.06l-.51-.21c.07.03.13.07.19.11l-.43-.33c.07.05.13.11.18.18l-.33-.43c.06.07.11.15.15.24l-.21-.51c.04.09.07.19.08.29l-.07-.57c.01.09.01.17,0,.25l.07-.57c-.01.09-.03.17-.07.25l.21-.51c-.03.06-.06.12-.1.17l.33-.43c-.05.06-.1.11-.15.15l.43-.33c-.07.05-.13.09-.21.13l.51-.21c-.09.03-.17.06-.26.07l.57-.07c-.1.01-.2.01-.29,0l.57.07c-.08-.01-.16-.03-.23-.07l.51.21c-.07-.03-.13-.07-.19-.11l.43.33c-.05-.04-.1-.09-.14-.14l.33.43c-.04-.06-.08-.12-.11-.19l.21.51c-.03-.07-.05-.15-.06-.23l.07.57c-.01-.09,0-.18,0-.27l-.07.57c.01-.1.04-.19.08-.28l-.21.51c.03-.07.07-.14.12-.21l-.33.43c.05-.05.09-.11.15-.15l-.43.33c.05-.04.11-.07.17-.1l-.51.21h.02c.27-.07.52-.2.72-.39.23-.15.41-.35.55-.59.15-.25.24-.51.25-.79.06-.28.05-.57-.04-.85l-.21-.51c-.19-.32-.44-.57-.76-.76l-.51-.21c-.37-.1-.75-.1-1.13,0-.23.09-.48.17-.69.31-.19.13-.42.29-.58.48-.34.4-.6.79-.73,1.32-.06.25-.09.51-.11.76v.11c0,.22.05.45.09.67.01.07.03.14.05.21.08.21.17.49.32.69.29.41.62.8,1.09,1.01s.94.39,1.5.36.98-.15,1.5-.39c.21-.1.45-.31.6-.43.19-.16.35-.39.49-.59.15-.2.23-.45.31-.68.03-.08.05-.16.07-.25.04-.25.1-.52.08-.78s-.04-.54-.12-.79c-.17-.55-.39-.9-.77-1.33-.15-.18-.41-.35-.58-.47-.21-.15-.47-.24-.71-.33-.07-.03-.15-.05-.23-.06-.26-.04-.53-.1-.81-.07-.21.03-.53.04-.77.13s-.51.18-.73.32-.43.29-.61.47c-.03.03-.06.06-.09.09-.14.17-.29.35-.41.53-.02.03-.04.07-.06.11-.1.19-.18.41-.26.61-.09.24-.11.59-.13.81v.13c.01.22.05.45.09.67,0,.05.02.09.03.14.07.21.17.41.25.61.03.08.08.15.13.23.14.19.31.45.51.62.41.35.84.64,1.38.78s1.1.15,1.62,0,.92-.4,1.32-.77c.18-.16.35-.42.47-.59.05-.07.1-.15.14-.23.25-.51.38-.93.39-1.51v-.13c-.02-.21-.05-.45-.09-.65,0-.04-.02-.08-.03-.11-.07-.21-.16-.42-.26-.61-.11-.21-.31-.45-.45-.61-.17-.19-.41-.35-.59-.49-.06-.05-.13-.09-.19-.12-.23-.11-.47-.23-.72-.29s-.51-.09-.77-.11-.53.04-.79.08c-.08.01-.15.03-.23.06-.23.09-.5.18-.71.33-.43.31-.83.65-1.07,1.15s-.41.99-.39,1.54c.01.26.03.53.11.79.03.1.09.21.13.31s.08.21.13.31c.02.04.04.07.07.11.13.18.29.42.47.57.11.09.34.29.51.39.19.11.4.18.6.26.17.07.32.07.5.1.43.06.57.05,1.06-.04.46-.08,1-.39,1.32-.73.16-.17.33-.37.43-.58.09-.18.18-.39.24-.58.01-.04.02-.08.03-.12.08-.51.14-1.01-.05-1.52-.17-.44-.21-.55-.47-.87-.23-.3-.37-.45-.73-.67-.21-.13-.45-.23-.69-.28-.16-.03-.43-.07-.59-.08h-.05c-.11,0-.25.03-.33.04-.09.01-.23.02-.33.05-.02,0-.03.01-.05.02-.15.05-.38.15-.53.22-.03.02-.07.03-.1.05-.47.31-.57.45-.89.89-.29.4-.41.94-.43,1.43-.01.25.03.5.1.73.07.2.14.41.25.59.08.13.25.33.35.45.01.02.03.03.05.05.19.21.42.35.69.44.25.13.53.19.82.18.29.01.57-.05.82-.18.26-.09.49-.23.69-.44l.33-.43c.19-.33.29-.69.29-1.07l-.07-.57c-.1-.36-.28-.67-.55-.94h0Z"/>
    <line class="cls-12" x1="121.36" y1="62.83" x2="121.36" y2="123.42"/>
    <line class="cls-12" x1="232.13" y1="62.74" x2="232.13" y2="103.06"/>
    <line class="cls-12" x1="343.41" y1="62.74" x2="343.41" y2="99.72"/>
    <g>
      <path class="cls-19" d="m458.2,46.81h.06c.15,0,.3.01.44.04,1,.21,1.76,1.09,1.76,2.14v5.29h-48.15v-5.29c0-.13.01-.27.04-.39l.03-.11c.03-.1.05-.19.09-.29l.03-.08c.05-.11.11-.21.17-.32v-.03s.07-.06.07-.06c.05-.07.11-.13.16-.19l.09-.1c.08-.07.16-.15.25-.21l.03-.03.24-.13s.09-.05.13-.07c.19-.08.38-.13.59-.16.09-.01.17-.01.27-.01h.14s1.32.01,1.32.01h0s2.52-.01,2.52-.01h0s1.32.01,1.32.01h0s2.52-.01,2.52-.01h0s1.32.01,1.32.01h0s2.52-.01,2.52-.01h0s1.32.01,1.32.01h0s2.54-.01,2.54-.01h0s1.32.01,1.32.01h0s2.52-.01,2.52-.01h1.32s2.51,0,2.51,0h1.32s2.52,0,2.52,0h16.31"/>
      <path class="cls-9" d="m458.2,46.81h.06c.15,0,.3.01.44.04,1,.21,1.76,1.09,1.76,2.14v5.29h-48.15v-5.29c0-.13.01-.27.04-.39l.03-.11c.03-.1.05-.19.09-.29l.03-.08c.05-.11.11-.21.17-.32v-.03s.07-.06.07-.06c.05-.07.11-.13.16-.19l.09-.1c.08-.07.16-.15.25-.21l.03-.03.24-.13s.09-.05.13-.07c.19-.08.38-.13.59-.16.09-.01.17-.01.27-.01h.14s1.32.01,1.32.01h0s2.52-.01,2.52-.01h0s1.32.01,1.32.01h0s2.52-.01,2.52-.01h0s1.32.01,1.32.01h0s2.52-.01,2.52-.01h0s1.32.01,1.32.01h0s2.54-.01,2.54-.01h0s1.32.01,1.32.01h0s2.52-.01,2.52-.01h1.32s2.51,0,2.51,0h1.32s2.52,0,2.52,0h16.31"/>
      <path class="cls-26" d="m413.27,47.19l-.03.03.03-.03Z"/>
      <path class="cls-26" d="m412.3,80.15c0,.3.06.59.17.85-.11-.26-.17-.55-.17-.85Z"/>
      <path class="cls-26" d="m460.08,81.36l-.04.05.04-.05Z"/>
      <path class="cls-26" d="m459.85,81.65l-.07.07.07-.07Z"/>
      <path class="cls-26" d="m414.49,82.34c-.31,0-.59-.06-.85-.17.26.11.55.17.85.17Z"/>
      <path class="cls-26" d="m459.43,82l.07-.04h.01l-.07.04h0Z"/>
      <path class="cls-26" d="m459.15,82.14l-.06.03.06-.03Z"/>
      <path class="cls-26" d="m412.67,81.38c.14.21.32.38.52.53l.07.06c-.23-.16-.43-.36-.59-.59h0Z"/>
      <path class="cls-26" d="m458.74,82.28h-.09s.09,0,.09,0Z"/>
      <path class="cls-9" d="m412.3,54.28v25.87c0,.3.06.59.17.85.05.13.12.25.2.37.16.23.36.43.59.59.12.08.24.15.37.2.26.11.55.17.85.17h43.76c.13,0,.27-.01.39-.04h.09c.12-.04.24-.07.35-.13l.06-.03c.1-.04.19-.09.29-.15l.07-.05c.1-.07.19-.14.27-.23l.07-.07c.07-.07.13-.15.19-.23l.04-.05h0c.23-.35.37-.76.37-1.21v-25.86m-46.22,1.6h44.41v24.1h-44.41v-24.1h0Z"/>
      <path class="cls-28" d="m415.3,49.61c.06,0,.11,0,.17-.03-.05.01-.11.03-.17.03Z"/>
      <path class="cls-28" d="m415.5,49.57s.09-.03.13-.06c-.04.03-.09.05-.13.06Z"/>
      <path class="cls-28" d="m415.88,49.24c-.05.11-.14.19-.24.26.1-.06.18-.15.24-.26Z"/>
      <path class="cls-28" d="m419.14,49.61c.06,0,.11,0,.17-.03-.05.01-.11.03-.17.03Z"/>
      <path class="cls-28" d="m419.34,49.57s.09-.03.13-.06c-.04.03-.09.05-.13.06Z"/>
      <path class="cls-28" d="m423.19,49.57s.09-.03.13-.06c-.05.03-.09.05-.13.06Z"/>
      <path class="cls-28" d="m423.57,49.24c-.05.11-.14.19-.24.26.1-.06.18-.15.24-.26Z"/>
      <path class="cls-28" d="m422.98,49.61c.06,0,.11,0,.17-.03-.05.01-.11.03-.17.03Z"/>
      <path class="cls-28" d="m427.03,49.57s.09-.03.13-.06c-.04.03-.09.05-.13.06Z"/>
      <path class="cls-28" d="m426.83,49.61c.06,0,.11,0,.17-.03-.05.01-.11.03-.17.03Z"/>
      <path class="cls-28" d="m426.4,49.45l-.09-.09.09.09Z"/>
      <path class="cls-28" d="m430.68,49.61c.06,0,.11,0,.17-.03-.05.01-.11.03-.17.03Z"/>
      <path class="cls-28" d="m430.89,49.57s.09-.03.13-.06c-.05.03-.09.05-.13.06Z"/>
      <path class="cls-28" d="m434.11,49.45l-.09-.09.09.09Z"/>
      <path class="cls-28" d="m434.74,49.57s.09-.03.13-.06c-.04.03-.09.05-.13.06Z"/>
      <path class="cls-28" d="m434.53,49.61c.06,0,.11,0,.17-.03-.05.01-.11.03-.17.03Z"/>
      <path class="cls-28" d="m438.37,49.61c.06,0,.11,0,.17-.03-.05.01-.11.03-.17.03Z"/>
      <path class="cls-28" d="m438.58,49.57s.09-.03.13-.06c-.05.03-.09.05-.13.06Z"/>
      <path class="cls-28" d="m442.42,49.57s.09-.03.13-.06c-.04.03-.09.05-.13.06Z"/>
      <path class="cls-28" d="m442.21,49.61c.06,0,.11,0,.17-.03-.05.01-.11.03-.17.03Z"/>
      <path class="cls-28" d="m446.04,49.61c.06,0,.11,0,.17-.03-.05.01-.11.03-.17.03Z"/>
      <path class="cls-28" d="m446.63,49.24c-.05.11-.14.19-.24.26.1-.06.18-.15.24-.26Z"/>
      <path class="cls-28" d="m446.25,49.57s.09-.03.13-.06c-.04.03-.09.05-.13.06Z"/>
      <path class="cls-28" d="m449.47,49.45l-.09-.09.09.09Z"/>
      <path class="cls-28" d="m449.89,49.61c.06,0,.11,0,.17-.03-.05.01-.11.03-.17.03Z"/>
      <path class="cls-28" d="m450.09,49.57s.09-.03.13-.06c-.04.03-.09.05-.13.06Z"/>
      <path class="cls-28" d="m454.28,49.24c-.05.11-.14.19-.24.26.1-.06.18-.15.24-.26Z"/>
      <path class="cls-28" d="m453.69,49.61c.06,0,.11,0,.17-.03-.05.01-.11.03-.17.03Z"/>
      <path class="cls-28" d="m453.9,49.57s.09-.03.13-.06c-.04.03-.09.05-.13.06Z"/>
      <path class="cls-28" d="m457.54,49.61c.06,0,.11,0,.17-.03-.05.01-.11.03-.17.03Z"/>
      <path class="cls-28" d="m457.11,49.45l-.09-.09.09.09Z"/>
      <path class="cls-28" d="m457.74,49.57s.09-.03.13-.06c-.04.03-.09.05-.13.06Z"/>
      <path class="cls-5" d="m415.3,45.45c-.07,0-.13.01-.2.03h0c-.05.02-.11.04-.16.08,0,0-.01.01-.03.01-.05.04-.1.08-.13.13h0c-.03.06-.07.11-.09.17v.03c-.03.06-.05.12-.05.19v2.84c0,.36.29.66.66.66.06,0,.11,0,.17-.03h.04s.09-.05.13-.07h.01c.1-.07.18-.16.24-.26.05-.09.07-.19.07-.29v-2.84c0-.36-.29-.66-.66-.66h0Z"/>
      <path class="cls-5" d="m419.14,45.45c-.07,0-.13.01-.2.03h0c-.05.02-.11.04-.16.08,0,0-.02.01-.03.01-.05.04-.1.08-.13.13h0c-.03.06-.07.11-.09.17v.03c-.03.06-.05.12-.05.19v2.84c0,.36.29.66.66.66.06,0,.11,0,.17-.03h.04s.09-.05.13-.07h.01c.05-.03.09-.07.13-.12,0,0,0,0,0-.01.03-.04.07-.09.09-.13.05-.09.07-.19.07-.29v-2.84c0-.36-.29-.66-.66-.66h0Z"/>
      <path class="cls-5" d="m422.98,45.45c-.07,0-.13.01-.2.03h0c-.05.02-.11.04-.16.08,0,0-.02.01-.03.01-.05.04-.1.08-.13.13h0c-.03.06-.07.11-.09.17v.03c-.03.06-.05.12-.05.19v2.84c0,.36.29.66.66.66.06,0,.11,0,.17-.03h.04s.09-.05.13-.07h.01c.1-.07.18-.16.24-.26.05-.09.07-.19.07-.29v-2.84c0-.36-.29-.66-.66-.66h0Z"/>
      <path class="cls-5" d="m426.83,45.45c-.07,0-.13.01-.2.03h0c-.05.02-.11.04-.15.08,0,0-.02.01-.03.02-.05.04-.1.08-.13.13h0c-.04.06-.07.11-.09.17v.03c-.03.06-.05.12-.05.19v2.84c0,.16.06.3.15.41l.09.09c.11.1.26.16.42.16.06,0,.11,0,.17-.03h.04s.09-.05.13-.07h.01c.05-.03.09-.07.13-.12h0s.07-.09.09-.14c.05-.09.07-.19.07-.3v-2.84c0-.36-.29-.66-.66-.66h0Z"/>
      <path class="cls-5" d="m430.68,45.45c-.07,0-.13.01-.2.03h0c-.05.02-.11.04-.16.08,0,0-.01.01-.03.01-.05.04-.1.08-.13.13h0c-.03.06-.07.11-.09.17v.03c-.03.06-.05.12-.05.19v2.84c0,.36.29.66.66.66.06,0,.11,0,.17-.03h.04s.09-.05.13-.07h.01c.05-.03.09-.07.13-.12,0,0,0,0,0-.01.03-.04.07-.09.09-.13.05-.09.07-.19.07-.3v-2.84c0-.36-.29-.66-.66-.66h0v.02Z"/>
      <path class="cls-5" d="m434.53,45.45c-.07,0-.13.01-.2.03h0c-.05.02-.11.04-.16.08,0,0-.02.01-.03.02-.05.04-.1.08-.13.13h0c-.03.06-.07.11-.09.17v.03c-.03.06-.05.12-.05.19v2.84c0,.16.06.3.15.41l.09.09c.11.1.26.16.42.16.06,0,.11,0,.17-.03h.04s.09-.05.13-.07h.01c.05-.03.09-.07.13-.12h0s.07-.09.09-.14c.05-.09.07-.19.07-.3v-2.84c0-.36-.29-.66-.66-.66h.01Z"/>
      <path class="cls-5" d="m438.37,45.45c-.07,0-.13.01-.2.03h0c-.05.02-.11.04-.16.08,0,0-.02.01-.03.02-.05.04-.1.08-.13.13h0c-.03.06-.07.11-.09.17v.03c-.03.06-.05.13-.05.19v2.84c0,.36.29.66.66.66.06,0,.11,0,.17-.03h.04s.09-.05.13-.07h.01c.05-.03.09-.07.13-.12h0s.07-.09.09-.14c.05-.09.07-.19.07-.3v-2.84c0-.36-.29-.66-.66-.66h.01Z"/>
      <path class="cls-5" d="m442.21,45.45c-.07,0-.13.01-.2.03h0c-.05.02-.11.05-.16.08,0,0-.01.01-.03.01-.05.04-.1.08-.13.13h0c-.03.06-.07.11-.09.17v.03c-.03.06-.05.12-.05.19v2.84c0,.36.29.66.66.66.06,0,.11,0,.17-.03h.04s.09-.05.13-.07h.01c.05-.03.09-.07.13-.12h0s.07-.09.09-.14c.05-.09.07-.19.07-.3v-2.84c0-.36-.29-.66-.66-.66h.01Z"/>
      <path class="cls-5" d="m446.04,45.45c-.07,0-.13.01-.2.03h0c-.05.02-.11.04-.16.08,0,0-.02.01-.03.01-.05.04-.1.08-.13.13h0c-.03.06-.07.11-.09.17v.03c-.03.06-.05.12-.05.19v2.84c0,.36.29.66.66.66.06,0,.11,0,.17-.03h.04s.09-.05.13-.07h.01c.1-.07.18-.16.24-.26.05-.09.07-.19.07-.29v-2.84c0-.36-.29-.66-.66-.66h0Z"/>
      <path class="cls-5" d="m449.89,45.45c-.07,0-.13.01-.2.03h0c-.05.02-.11.04-.16.08,0,0-.01.01-.03.01-.05.04-.1.08-.13.13h0c-.03.06-.07.11-.09.17v.03c-.03.06-.05.12-.05.19v2.84c0,.16.06.3.15.41l.09.09c.11.1.26.16.42.16.06,0,.11,0,.17-.03h.04s.09-.05.13-.07h.01c.05-.03.09-.07.13-.12,0,0,0,0,0-.01.03-.04.07-.09.09-.13.05-.09.07-.19.07-.3v-2.84c0-.36-.29-.66-.66-.66h.01Z"/>
      <path class="cls-5" d="m453.69,45.45c-.07,0-.13.01-.2.03h0c-.05.02-.11.05-.16.08,0,0-.01.01-.03.01-.05.04-.1.08-.13.13h0c-.03.06-.07.11-.09.17v.03c-.03.06-.05.12-.05.19v2.84c0,.36.29.66.66.66.06,0,.11,0,.17-.03h.04s.09-.05.13-.07h.01c.1-.07.18-.16.24-.26.05-.09.07-.19.07-.29v-2.84c0-.36-.29-.66-.66-.66h0Z"/>
      <path class="cls-5" d="m457.54,45.45c-.07,0-.13.01-.2.03h0c-.05.02-.11.04-.16.08,0,0-.01.01-.03.01-.05.04-.1.08-.13.13h0c-.03.06-.07.11-.09.17v.03c-.03.06-.05.12-.05.19v2.84c0,.15.06.3.15.41l.09.09c.11.1.26.15.42.15.06,0,.11,0,.17-.03h.04s.09-.05.13-.07h.01c.05-.03.09-.07.13-.12h0s.07-.09.09-.14c.05-.09.07-.19.07-.3v-2.84c0-.36-.29-.66-.66-.66h.02Z"/>
      <path class="cls-9" d="m452.42,79.97v-24.1"/>
      <path class="cls-9" d="m439.56,79.97v-24.1"/>
      <path class="cls-9" d="m445.99,79.97v-24.1"/>
      <path class="cls-9" d="m433.19,79.97v-24.1"/>
      <path class="cls-9" d="m426.8,79.97v-24.1"/>
      <path class="cls-9" d="m420.68,79.97v-24.1"/>
      <path class="cls-9" d="m458.44,68.02h-44.21"/>
      <path class="cls-9" d="m458.44,62.55h-44.21"/>
      <path class="cls-9" d="m458.54,73.5h-44.21"/>
      <path class="cls-9" d="m458.54,56.97h-44.21"/>
      <path class="cls-9" d="m458.48,79h-44.21"/>
      <path class="cls-25" d="m460.78,72.82v6.4c0,.17-.13.3-.31.3s-.31-.13-.31-.3v-6.4c0-.17.13-.3.31-.3s.31.13.31.3Z"/>
    </g>
    <g>
      <path class="cls-9" d="m257.75,107.33h-50.77v45.41h50.77v-45.41h0Z"/>
      <path class="cls-1" d="m225.95,136.88h-15.63v15.87h15.63v-15.87Z"/>
      <path class="cls-1" d="m218.14,136.88h-7.81v15.87h7.81v-15.87Z"/>
      <path class="cls-9" d="m216.35,115.49h-6.02v6.02h6.02v-6.02Z"/>
      <path class="cls-9" d="m225.95,115.49h-6.02v6.02h6.02v-6.02Z"/>
      <path class="cls-9" d="m235.34,115.49h-6.02v6.02h6.02v-6.02Z"/>
      <path class="cls-9" d="m244.8,115.49h-6.02v6.02h6.02v-6.02Z"/>
      <path class="cls-9" d="m254.25,115.49h-6.02v6.02h6.02v-6.02Z"/>
      <path class="cls-9" d="m235.34,124.02h-6.02v6.02h6.02v-6.02Z"/>
      <path class="cls-9" d="m244.8,124.02h-6.02v6.02h6.02v-6.02Z"/>
      <path class="cls-9" d="m254.25,124.02h-6.02v6.02h6.02v-6.02Z"/>
      <path class="cls-9" d="m235.34,132.56h-6.02v6.02h6.02v-6.02Z"/>
      <path class="cls-9" d="m244.8,132.56h-6.02v6.02h6.02v-6.02Z"/>
      <path class="cls-9" d="m254.25,132.56h-6.02v6.02h6.02v-6.02Z"/>
      <path class="cls-1" d="m257.75,107.33h-50.77v4.61h50.77v-4.61Z"/>
      <path class="cls-9" d="m216.5,144.23v2.03"/>
      <path class="cls-9" d="m219.77,144.23v2.03"/>
      <path class="cls-24" d="m219.98,124.09h-3.69v10.53h3.69v-10.53Z"/>
      <path class="cls-24" d="m212.87,127.52v3.68h10.54v-3.68h-10.54Z"/>
      <path class="cls-21" d="m211.12,119.24v-3.05h3.99v1.01s-1.44-.47-2.26.41c-.83.89-.83,1.62-.83,1.62h-.91,0Z"/>
      <path class="cls-21" d="m220.83,119.24v-3.05h3.99v1.01s-1.44-.47-2.26.41c-.83.89-.83,1.62-.83,1.62h-.91,0Z"/>
      <path class="cls-21" d="m230.08,119.24v-3.05h3.99v1.01s-1.44-.47-2.26.41c-.83.89-.83,1.62-.83,1.62h-.91,0Z"/>
      <path class="cls-21" d="m239.61,119.24v-3.05h3.99v1.01s-1.44-.47-2.26.41c-.83.89-.83,1.62-.83,1.62h-.91,0Z"/>
      <path class="cls-21" d="m249.07,119.24v-3.05h3.99v1.01s-1.44-.47-2.26.41c-.83.89-.83,1.62-.83,1.62h-.91,0Z"/>
      <path class="cls-21" d="m230.08,127.84v-3.05h3.99v1.01s-1.44-.47-2.26.41c-.83.89-.83,1.62-.83,1.62h-.91,0Z"/>
      <path class="cls-21" d="m239.61,127.84v-3.05h3.99v1.01s-1.44-.47-2.26.41c-.83.89-.83,1.62-.83,1.62h-.91,0Z"/>
      <path class="cls-21" d="m249.07,127.84v-3.05h3.99v1.01s-1.44-.47-2.26.41c-.83.89-.83,1.62-.83,1.62h-.91,0Z"/>
      <path class="cls-21" d="m230.08,136.42v-3.05h3.99v1.01s-1.44-.47-2.26.41c-.83.89-.83,1.62-.83,1.62h-.91,0Z"/>
      <path class="cls-21" d="m239.61,136.42v-3.05h3.99v1.01s-1.44-.47-2.26.41-.83,1.62-.83,1.62h-.91,0Z"/>
      <path class="cls-21" d="m249.07,136.42v-3.05h3.99v1.01s-1.44-.47-2.26.41c-.83.89-.83,1.62-.83,1.62h-.91,0Z"/>
      <path class="cls-9" d="m235.34,141.22h-6.02v6.02h6.02v-6.02Z"/>
      <path class="cls-9" d="m244.8,141.22h-6.02v6.02h6.02v-6.02Z"/>
      <path class="cls-9" d="m254.25,141.22h-6.02v6.02h6.02v-6.02Z"/>
      <path class="cls-21" d="m230.08,145.09v-3.05h3.99v1.01s-1.44-.47-2.26.41c-.83.89-.83,1.62-.83,1.62h-.91,0Z"/>
      <path class="cls-21" d="m239.61,145.09v-3.05h3.99v1.01s-1.44-.47-2.26.41c-.83.89-.83,1.62-.83,1.62h-.91,0Z"/>
      <path class="cls-21" d="m249.07,145.09v-3.05h3.99v1.01s-1.44-.47-2.26.41c-.83.89-.83,1.62-.83,1.62h-.91,0Z"/>
    </g>
    <g>
      <path class="cls-18" d="m131.6,44.85c0,.07-.04.14-.07.2-.54.93-1.1,1.88-1.83,2.66-.1.11-.2.21-.31.31l-.02.02s-.01.01-.03.02c0,.01-.02.02-.03.03-.03.03-.07.06-.1.09-.91.8-2.13,1.34-3.33,1.16-.48-.07-.93-.25-1.37-.46-.66-.33-1.27-.73-1.83-1.2.03-.27.07-.54.11-.81,0-.04.01-.09.04-.13.03-.05.09-.06.15-.07s.12-.02.18-.03c.03-.49.14-.98.33-1.44.02-.05.04-.1.09-.13.04-.03.11-.04.15,0,.03.03.03.06.04.09.03.21.05.41.05.63.03-.21.09-.41.19-.59.02-.03.04-.07.07-.09-.23-.15-.45-.3-.67-.46-1.37-1.01-2.56-2.22-3.69-3.33-1.13-2.08-1.82-4.4-3.11-6.38.02,0,.03,0,.05-.01,1.27-.31,2.42-1.06,3.23-2.08h0c.2-.25.38-.51.53-.79.38.47.77.94,1.17,1.4.53.63,1.08,1.24,1.68,1.8.43.41.91.73,1.56.89.17.04.33.08.49.13.72.2,1.42.47,1.97.96.41.37.71.83,1,1.31.63,1.03,1.2,2.08,1.76,3.16.05.1.1.19.15.29.25.48.49.97.74,1.46.09.19.19.37.29.56.11.22.23.44.33.66.03.06.07.13.06.2h-.03Z"/>
      <path class="cls-18" d="m116.49,42.61c-.09.21-.19.41-.3.61.11-.19.21-.4.3-.61Z"/>
      <path class="cls-18" d="m130.47,47.84c-.04.43-.15.83-.3,1.24-.09.24-.19.47-.31.69-.48.91-1.2,1.72-1.99,2.38-1.37,1.13-3,1.9-4.57,2.75-.77.42-1.54.86-2.33,1.26.13-.25.25-.51.35-.79.02-.06.04-.11.04-.17,0-.21-.27-.32-.46-.27-.19.06-.34.23-.47.38-.23.27-.45.65-.75.93-.18.17-.39.29-.67.34-.83.13-1.68.11-2.51-.04-.8-.15-1.57-.42-2.27-.83.49-1.18,1.06-2.36,1.97-3.3.31-.33.67-.62,1.1-.8.39-.16.81-.22,1.23-.24,1.02-.07,2.05.03,3.07.13.53-.32.97-.65,1.41-.97-.43-.79-.44-1.82-.33-2.85.03-.27.07-.54.11-.81,0-.04.01-.09.04-.13.03-.05.09-.06.15-.07s.12-.02.18-.03h0l1.46.24h0l.16.03,4.19.69.71.11.78.13h0Z"/>
      <path class="cls-18" d="m130.51,47.85h-.04c0-.05.01-.09.01-.14,0,.04,0,.09.03.14Z"/>
      <path class="cls-10" d="m116.59,34.91s-.03-.04-.04-.06l.09.05"/>
      <path class="cls-10" d="m130.03,44.33h0c-.02.13-.03.24-.06.35-.01.07-.03.13-.04.2-.11.48-.26.96-.58,1.33-.16.19-.37.34-.61.43-.23.09-.49.13-.76.08-1.08-.19-2.12-.59-3.08-1.13-.09-.05-.17-.09-.26-.15-.03-.01-.05-.03-.07-.05-.06-.04-.12-.07-.18-.11-.05-.03-.11-.07-.15-.1-.05-.03-.11-.07-.16-.11"/>
      <path class="cls-18" d="m113.12,54.9c-.17-.17-.34-.34-.49-.53-1.08-1.3-1.62-3.08-1.26-4.73.11-.49.29-.97.48-1.45.45-1.1.88-2.02,1.48-2.99.57,3.19.52,6.49-.2,9.69h0Z"/>
      <path class="cls-18" d="m129.06,31.5c1.3-.75,1.85-2.48,1.52-3.95s-1.38-2.7-2.62-3.57c-.65-.45-1.37-.83-2.13-1.03-2.24-.59-4.76.46-6.08,2.36-1.32,1.91-2.07,4.26-1.11,6.37.15.34.97.93,1.26,1.16.27.21.59.32.91.41,1.25.35,2.57.51,3.85.33,1.29-.18,2.4-.93,4.4-2.08h0Z"/>
      <path class="cls-18" d="m128.72,28.21c-.95.81-2.18,1.26-3.42,1.4-.58.07-1.17.07-1.75.02-.67-.05-1.34-.17-2-.34-.07-.3-.28-.57-.55-.72s-.61-.19-.91-.09c-.36.11-.65.41-.83.74-.23.41-.35.91-.15,1.34.17.34.51.56.81.73-.07,1.07-.13,2.22.44,3.12.27.42.57.84.95,1.16.41.32.97.68,1.46.85.84.3,1.88.14,2.69-.23,1.22-.56,2.04-1.72,2.74-2.86.51-.83.91-1.75,1.14-2.7-.26-.31-.41-.69-.49-1.09-.08-.39-.1-.79-.13-1.34h0Z"/>
      <path class="cls-18" d="m132.15,44.55c-.12,0-.26-.02-.34-.11-.09-.11-.03-.32.12-.36-.17,0-.32.19-.27.35.04.17.26.26.49.11h0Z"/>
      <path class="cls-18" d="m129.31,48.01c.28.22.67.31,1.02.23-.35-.06-.69-.13-1.02-.23Z"/>
      <path class="cls-22" d="m124.57,45.2s-.14-.64-.44-1.78l.44,1.78Z"/>
      <path class="cls-10" d="m124.57,45.2s-.14-.64-.44-1.78"/>
      <path class="cls-22" d="m127.18,42.04s2.44.19,2.85,2.3l-2.85-2.3Z"/>
      <path class="cls-10" d="m127.18,42.04s2.44.19,2.85,2.3"/>
      <path class="cls-17" d="m129.13,46.12c.45,0,.81-.36.81-.81s-.36-.81-.81-.81-.81.36-.81.81.36.81.81.81Z"/>
      <path class="cls-10" d="m127.18,40.32l.57,1.72"/>
      <path class="cls-18" d="m125.12,46.19c.02.05,0,.11-.03.15-.1.19-.21.37-.31.56-.01.01-.02.03-.03.05-.03.05-.06.11-.09.16-.49-.25-1.03-.3-1.53-.18,0-.1,0-.2.01-.3.03-.49.14-.98.33-1.44.02-.05.04-.1.09-.13.04-.03.11-.04.15,0,.03.03.03.06.04.09.03.21.05.41.05.63.03-.21.09-.41.19-.59.02-.03.04-.07.07-.09.01,0,.03-.01.04-.02.07,0,.1.05.12.12,0,.03,0,.06,0,.09,0,.19,0,.37-.02.56.03-.19.08-.38.17-.55h0s.04-.09.08-.11.09-.01.11.02c.01.02,0,.05,0,.07,0,.04,0,.09-.02.13-.02.19-.05.37-.09.56.03-.18.09-.35.17-.52h0s.03-.07.06-.09c.07-.05.18.03.2.11,0,.04,0,.08,0,.12,0,.05-.03.1-.04.15-.07.2-.09.42-.05.64.02-.08.05-.17.11-.22.07-.05.18-.04.21.04h0Z"/>
      <path class="cls-18" d="m132.92,43.67c-.49-.03-.9.51-1.39.43-.19-.03-.38-.17-.57-.15-.27.02-.43.29-.62.47-.19.18-.43.29-.65.45-.53.36-.87.97-.93,1.6s.18,1.29.68,1.69c0,.4.02.81.18,1.19.11.26.29.49.46.71.35.43.7.88,1.13,1.21.42-.27.86-.49,1.33-.67.13-.05.27-.09.38-.18.21-.15.32-.41.41-.65.62-1.7.84-3.53.87-5.35,0-.23,0-.48-.15-.65-.15-.19-.4-.03-1.13-.08h0Z"/>
      <path class="cls-18" d="m132.92,45.31c.21-.03.42.11.47.31.05.2-.09.43-.29.49.11-.09.13-.26.08-.39s-.17-.23-.26-.41h0Z"/>
      <path class="cls-22" d="m132.92,43.67c-.49-.03-.9.51-1.39.43-.19-.03-.38-.17-.57-.15-.27.02-.43.29-.62.47-.19.18-.43.29-.65.45-.53.36-.87.97-.93,1.6s.18,1.29.68,1.69c0,.4.02.81.18,1.19.11.26.29.49.46.71.35.43.7.88,1.13,1.21.42-.27.86-.49,1.33-.67.13-.05.27-.09.38-.18.21-.15.32-.41.41-.65.62-1.7.84-3.53.87-5.35,0-.23,0-.48-.15-.65-.15-.19-.4-.03-1.13-.08h0Z"/>
      <path class="cls-10" d="m132.92,43.67c-.49-.03-.9.51-1.39.43-.19-.03-.38-.17-.57-.15-.27.02-.43.29-.62.47-.19.18-.43.29-.65.45-.53.36-.87.97-.93,1.6s.18,1.29.68,1.69c0,.4.02.81.18,1.19.11.26.29.49.46.71.35.43.7.88,1.13,1.21.42-.27.86-.49,1.33-.67.13-.05.27-.09.38-.18.21-.15.32-.41.41-.65.62-1.7.84-3.53.87-5.35,0-.23,0-.48-.15-.65-.15-.19-.4-.03-1.13-.08h0Z"/>
      <path class="cls-13" d="m131.94,52.03c-.05.45-.23.87-.45,1.26-.71,1.2-1.88,2.07-3.14,2.66-1.26.58-2.64.89-4,1.16-.14.09-.28.17-.43.25-.05.03-.11.06-.16.08h0c-.83.42-1.74.62-2.62.42-.41-.09-.8-.27-1.09-.58l-3.55-.73c-.11.15-.23.29-.34.43-.71-.25-1.4-.58-2.05-.97.04-.09.07-.19.12-.28.49-1.18,1.06-2.37,1.97-3.3.31-.33.67-.62,1.1-.8.39-.16.81-.22,1.23-.24,1.02-.07,2.05.03,3.07.13.53-.32.97-.65,1.41-.97-.43-.79-.44-1.82-.33-2.85.03-.27.07-.54.11-.81,0-.04.01-.09.04-.13.03-.05.09-.06.15-.07s.12-.02.18-.03h0c.49-.06,1.01.02,1.46.24h0s.01,0,.03.01c.04.02.07.04.11.07.03.03.06.05.07.09.03.06.02.12.01.19-.04.5-.08,1-.11,1.5.75-.46,1.52-.86,2.36-.99.73-.11,1.54,0,2.12.45.08.06.16.13.23.21h.01c.26.29.5.5.72.69.64.53,1.09.71,1.32,1.13.03.04.05.09.07.13.1.18.18.37.24.57.12.36.17.74.13,1.12v-.02Z"/>
      <path class="cls-18" d="m123.95,57.29c-.15-.07-.25-.24-.22-.41.03-.16.17-.3.34-.31-.11-.07-.22-.12-.3-.2s-.14-.19-.12-.3c.03-.15.16-.25.29-.33-.15-.1-.35-.23-.32-.42.03-.15.19-.22.34-.25.34-.07.69-.01,1.05.01.79.06,1.6-.03,2.36-.27-.59-.07-1.25,0-1.6-.34-.11-.11-.07-.33.03-.45.04-.05.1-.07.15-.09.47-.15.97-.15,1.46-.13.7.02,1.43.05,2.08-.23.15-.06.29-.14.4-.25.13-.11.21-.26.3-.41.28-.49.55-.97.79-1.48.19-.39.36-.79.62-1.14s.62-.64,1.04-.77c.28.41.39.93.38,1.43,0,.5-.11.99-.24,1.48-.17.64-.37,1.28-.67,1.88-.54,1.03-1.41,1.88-2.4,2.49-1,.6-2.18.93-3.33,1.13-.73.13-1.3.07-2.2-.16-.23-.06-.37-.23-.21-.48h0Z"/>
      <path class="cls-18" d="m132.04,50.14c.35.58.97.96,1.64,1.12.66.15.99.11,1.66-.02.64-.12,1.29-.36,1.78-.79.63-.54.83-1,1.11-1.98.12-.42.11-1.11.02-1.54-.21-.97-.69-1.71-1.42-2.38-.56-.52-1.17-1.01-1.9-1.26-.73-.24-1.6-.18-2.17.33.35.26.75.45,1.18.55-.47.01-.94.29-1.18.7.15.16.37.24.49.31.15.07.3.16.39.3.14.21.09.51-.07.71-.15.2-.39.31-.64.38-.25.07-.53.09-.76-.02s-.42-.37-.37-.61c-.11.25-.15.52-.19.79-.04.31-.08.61-.11.91-.02.17-.04.35.01.5,0,.09,0,.17.03.25.03.08.09.15.18.17.13.02.24-.09.37-.13-.34.18-.55.57-.53.95,0,.08.03.16.09.21.07.06.17.06.25.03.08-.03.15-.09.22-.15-.09.09-.17.19-.27.28-.03.03-.05.05-.05.09,0,.03.01.05.03.07.05.07.13.12.19.21h0v.02Z"/>
      <path class="cls-10" d="m123,50.53s1.92,1.89,4.18-.24"/>
      <path class="cls-22" d="m121.59,51.5s.87.19,1.55.56l-1.55-.56Z"/>
      <path class="cls-10" d="m121.59,51.5s.87.19,1.55.56"/>
      <path class="cls-16" d="m123.39,44.63c-1.37-1.01-2.56-2.22-3.69-3.33-1.13-2.08-1.82-4.4-3.11-6.38-.11.03-.22.05-.33.07-1.6.03-3.71,1.08-4.86,2.21-1.18,1.16-1.99,2.64-2.66,4.16-.99,2.25-1.68,4.63-2.06,7.06-.18,1.15-.29,2.33-.07,3.47.3,1.6,1.13,3.3,2.28,4.45.48.48.97.87,1.48,1.22l2.26-3.18c-1.08-1.3-1.62-3.08-1.26-4.73.11-.49.29-.97.48-1.45.45-1.1.88-2.02,1.48-2.99.57,3.19.52,6.49-.2,9.69.07.06.13.12.19.18.28.24.59.45.91.64.49-1.18,1.06-2.37,1.97-3.3.31-.33.67-.62,1.1-.8.39-.16.81-.22,1.23-.24,1.02-.07,2.05.03,3.07.13.53-.32.97-.65,1.41-.97-.43-.79-.44-1.82-.33-2.85.03-.27.07-.54.11-.81,0-.04.01-.09.04-.13.03-.05.09-.06.15-.07s.12-.02.18-.03c.03-.49.14-.98.33-1.44.02-.05.04-.1.09-.13.04-.03.11-.04.15,0,.03.03.03.06.04.09.03.21.05.41.05.63.03-.21.09-.41.19-.59.02-.03.04-.07.07-.09-.23-.15-.45-.3-.67-.46h-.02Z"/>
      <path class="cls-22" d="m113.28,44.92c.02.09.03.19.05.29-.59.97-1.03,1.89-1.48,2.99-.19.47-.37.95-.48,1.45-.41,1.89.35,3.93,1.76,5.25.07.06.13.12.19.18,1.54,1.32,3.69,1.81,5.69,1.5.73-.11,1.03-.83,1.42-1.27.13-.15.27-.32.47-.37.19-.06.45.06.46.26,0,.06-.02.12-.04.17-.1.27-.22.53-.35.79-.18.33-.38.65-.62.94.85.05,1.56-.22,2.28-.29.32-.03.65-.01.93.14.07.04.15.1.19.17.09.15.03.35-.11.45.19,0,.32.15.3.3-.02.15-.15.26-.29.31.15.05.23.15.26.26,0,.03.01.07,0,.1-.03.12-.19.16-.26.27.04.18-.04.34-.15.45s-.25.19-.39.26c-.57.29-1.18.51-1.8.64-2.78.68-6.18.22-8.75-1.25-1.36-.79-2.55-1.43-3.69-2.58-1.15-1.16-1.98-2.85-2.28-4.45-.21-1.14-.11-2.32.07-3.47.38-2.43,1.07-4.81,2.06-7.06l4.53,3.57h.03Z"/>
      <path class="cls-10" d="m123.64,57.58l-2.51.29"/>
      <path class="cls-10" d="m123.66,58.19l-2.88.45"/>
      <path class="cls-10" d="m123.66,58.81l-2.61.56"/>
      <path class="cls-10" d="m113.28,44.92c.02.09.03.19.05.29-.59.97-1.03,1.89-1.48,2.99-.19.47-.37.95-.48,1.45-.41,1.89.35,3.93,1.76,5.25.07.06.13.12.19.18,1.54,1.32,3.69,1.81,5.69,1.5.73-.11,1.03-.83,1.42-1.27.13-.15.27-.32.47-.37.19-.06.45.06.46.26,0,.06-.02.12-.04.17-.1.27-.22.53-.35.79-.18.33-.38.65-.62.94.85.05,1.56-.22,2.28-.29.32-.03.65-.01.93.14.07.04.15.1.19.17.09.15.03.35-.11.45.19,0,.32.15.3.3-.02.15-.15.26-.29.31.15.05.23.15.26.26,0,.03.01.07,0,.1-.03.12-.19.16-.26.27.04.18-.04.34-.15.45s-.25.19-.39.26c-.57.29-1.18.51-1.8.64-2.78.68-6.18.22-8.75-1.25-1.36-.79-2.55-1.43-3.69-2.58-1.15-1.16-1.98-2.85-2.28-4.45-.21-1.14-.11-2.32.07-3.47.38-2.43,1.07-4.81,2.06-7.06l4.53,3.57h.03Z"/>
      <path class="cls-22" d="m123.94,55.74s1.41.32,2.64,0h-2.64Z"/>
      <path class="cls-10" d="m123.94,55.74s1.41.32,2.64,0"/>
      <path class="cls-22" d="m124.07,56.58s1.78.07,2.51-.11l-2.51.11Z"/>
      <path class="cls-10" d="m124.07,56.58s1.78.07,2.51-.11"/>
      <path class="cls-22" d="m123.95,57.29s1.72.25,2.76-.15l-2.76.15Z"/>
      <path class="cls-10" d="m123.95,57.29s1.72.25,2.76-.15"/>
      <path class="cls-10" d="m131.94,44.07s.22.47.45.73"/>
      <path class="cls-10" d="m126.21,30.87s-.47,1.88,0,2.61c.47.73-.21,1.04-1.12.47"/>
      <path class="cls-25" d="m123.9,31.55c.07-.31,0-.59-.17-.62s-.34.19-.41.5c-.07.31,0,.59.17.63s.34-.19.41-.5h0Z"/>
      <path class="cls-25" d="m127.46,32.66c.1-.3.06-.59-.09-.64-.15-.05-.36.15-.46.45-.1.3-.06.59.09.64.15.05.36-.15.46-.45Z"/>
      <path class="cls-10" d="m123.29,34.85s.84.61,2.04.61"/>
      <path class="cls-10" d="m113.28,44.92v-2.88"/>
      <path class="cls-10" d="m120.05,29.63l.37.29"/>
      <path class="cls-20" d="m115.61,47.12s2.61,3.17,5.98,1.76l-5.98-1.76Z"/>
      <path class="cls-10" d="m115.61,47.12s2.61,3.17,5.98,1.76"/>
      <path class="cls-22" d="m122.54,30.41s.63-.43,1.52-.31l-1.52.31Z"/>
      <path class="cls-10" d="m122.54,30.41s.63-.43,1.52-.31"/>
      <path class="cls-22" d="m127.74,30.56s.62.33.86.93l-.86-.93Z"/>
      <path class="cls-10" d="m127.74,30.56s.62.33.86.93"/>
    </g>
    <g>
      <path class="cls-18" d="m241.55,44.85c0,.07-.04.14-.07.2-.54.93-1.1,1.88-1.83,2.66-.1.11-.2.21-.31.31l-.02.02s-.01.01-.03.02c0,.01-.02.02-.03.03-.03.03-.07.06-.1.09-.91.8-2.13,1.34-3.33,1.16-.48-.07-.93-.25-1.37-.46-.66-.33-1.27-.73-1.83-1.2.03-.27.07-.54.11-.81,0-.04.01-.09.04-.13.03-.05.09-.06.15-.07s.12-.02.18-.03c.03-.49.14-.98.33-1.44.02-.05.04-.1.09-.13.04-.03.11-.04.15,0,.03.03.03.06.04.09.03.21.05.41.05.63.03-.21.09-.41.19-.59.02-.03.04-.07.07-.09-.23-.15-.45-.3-.67-.46-1.37-1.01-2.56-2.22-3.69-3.33-1.13-2.08-1.82-4.4-3.11-6.38.02,0,.03,0,.05-.01,1.27-.31,2.42-1.06,3.23-2.08h0c.2-.25.38-.51.53-.79.38.47.77.94,1.17,1.4.53.63,1.08,1.24,1.68,1.8.43.41.91.73,1.56.89.17.04.33.08.49.13.72.2,1.42.47,1.97.96.41.37.71.83,1,1.31.63,1.03,1.2,2.08,1.76,3.16.05.1.1.19.15.29.25.48.49.97.74,1.46.09.19.19.37.29.56.11.22.23.44.33.66.03.06.07.13.06.2h-.03Z"/>
      <path class="cls-18" d="m226.44,42.61c-.09.21-.19.41-.3.61.11-.19.21-.4.3-.61Z"/>
      <path class="cls-18" d="m240.43,47.84c-.04.43-.15.83-.3,1.24-.09.24-.19.47-.31.69-.48.91-1.2,1.72-1.99,2.38-1.37,1.13-3,1.9-4.57,2.75-.77.42-1.54.86-2.33,1.26.13-.25.25-.51.35-.79.02-.06.04-.11.04-.17,0-.21-.27-.32-.46-.27-.19.06-.34.23-.47.38-.23.27-.45.65-.75.93-.18.17-.39.29-.67.34-.83.13-1.68.11-2.51-.04-.8-.15-1.57-.42-2.27-.83.49-1.18,1.06-2.36,1.97-3.3.31-.33.67-.62,1.1-.8.39-.16.81-.22,1.23-.24,1.02-.07,2.05.03,3.07.13.53-.32.97-.65,1.41-.97-.43-.79-.44-1.82-.33-2.85.03-.27.07-.54.11-.81,0-.04.01-.09.04-.13.03-.05.09-.06.15-.07s.12-.02.18-.03h0l1.46.24h0l.16.03,4.19.69.71.11.78.13h0Z"/>
      <path class="cls-18" d="m240.47,47.85h-.04c0-.05.01-.09.01-.14,0,.04,0,.09.03.14Z"/>
      <path class="cls-10" d="m226.55,34.91s-.03-.04-.04-.06l.09.05"/>
      <path class="cls-10" d="m239.99,44.33h0c-.02.13-.03.24-.06.35-.01.07-.03.13-.04.2-.11.48-.26.96-.58,1.33-.16.19-.37.34-.61.43-.23.09-.49.13-.76.08-1.08-.19-2.12-.59-3.08-1.13-.09-.05-.17-.09-.26-.15-.03-.01-.05-.03-.07-.05-.06-.04-.12-.07-.18-.11-.05-.03-.11-.07-.15-.1-.05-.03-.11-.07-.16-.11"/>
      <path class="cls-18" d="m223.08,54.9c-.17-.17-.34-.34-.49-.53-1.08-1.3-1.62-3.08-1.26-4.73.11-.49.29-.97.48-1.45.45-1.1.88-2.02,1.48-2.99.57,3.19.52,6.49-.2,9.69h0Z"/>
      <path class="cls-18" d="m239.02,31.5c1.3-.75,1.85-2.48,1.52-3.95s-1.38-2.7-2.62-3.57c-.65-.45-1.37-.83-2.13-1.03-2.24-.59-4.76.46-6.08,2.36-1.32,1.91-2.07,4.26-1.11,6.37.15.34.97.93,1.26,1.16.27.21.59.32.91.41,1.25.35,2.57.51,3.85.33,1.29-.18,2.4-.93,4.4-2.08h0Z"/>
      <path class="cls-18" d="m238.67,28.21c-.95.81-2.18,1.26-3.42,1.4-.58.07-1.17.07-1.75.02-.67-.05-1.34-.17-2-.34-.07-.3-.28-.57-.55-.72-.27-.15-.61-.19-.91-.09-.36.11-.65.41-.83.74-.23.41-.35.91-.15,1.34.17.34.51.56.81.73-.07,1.07-.13,2.22.44,3.12.27.42.57.84.95,1.16.41.32.97.68,1.46.85.84.3,1.88.14,2.69-.23,1.22-.56,2.04-1.72,2.74-2.86.51-.83.91-1.75,1.14-2.7-.26-.31-.41-.69-.49-1.09-.08-.39-.1-.79-.13-1.34h0Z"/>
      <path class="cls-18" d="m242.11,44.55c-.12,0-.26-.02-.34-.11-.09-.11-.03-.32.12-.36-.17,0-.32.19-.27.35.04.17.26.26.49.11h0Z"/>
      <path class="cls-18" d="m239.27,48.01c.28.22.67.31,1.02.23-.35-.06-.69-.13-1.02-.23Z"/>
      <path class="cls-22" d="m234.53,45.2s-.14-.64-.44-1.78l.44,1.78Z"/>
      <path class="cls-10" d="m234.53,45.2s-.14-.64-.44-1.78"/>
      <path class="cls-22" d="m237.14,42.04s2.44.19,2.85,2.3l-2.85-2.3Z"/>
      <path class="cls-10" d="m237.14,42.04s2.44.19,2.85,2.3"/>
      <path class="cls-17" d="m239.09,46.12c.45,0,.81-.36.81-.81s-.36-.81-.81-.81-.81.36-.81.81.36.81.81.81Z"/>
      <path class="cls-10" d="m237.14,40.32l.57,1.72"/>
      <path class="cls-18" d="m235.07,46.19c.02.05,0,.11-.03.15-.1.19-.21.37-.31.56-.01.01-.02.03-.03.05-.03.05-.06.11-.09.16-.49-.25-1.03-.3-1.53-.18,0-.1,0-.2.01-.3.03-.49.14-.98.33-1.44.02-.05.04-.1.09-.13.04-.03.11-.04.15,0,.03.03.03.06.04.09.03.21.05.41.05.63.03-.21.09-.41.19-.59.02-.03.04-.07.07-.09.01,0,.03-.01.04-.02.07,0,.1.05.12.12,0,.03,0,.06,0,.09,0,.19,0,.37-.02.56.03-.19.08-.38.17-.55h0s.04-.09.08-.11.09-.01.11.02c.01.02,0,.05,0,.07,0,.04,0,.09-.02.13-.02.19-.05.37-.09.56.03-.18.09-.35.17-.52h0s.03-.07.06-.09c.07-.05.18.03.2.11,0,.04,0,.08,0,.12,0,.05-.03.1-.04.15-.07.2-.09.42-.05.64.02-.08.05-.17.11-.22.07-.05.18-.04.21.04h0Z"/>
      <path class="cls-18" d="m242.88,43.67c-.49-.03-.9.51-1.39.43-.19-.03-.38-.17-.57-.15-.27.02-.43.29-.62.47-.19.18-.43.29-.65.45-.53.36-.87.97-.93,1.6s.18,1.29.68,1.69c0,.4.02.81.18,1.19.11.26.29.49.46.71.35.43.7.88,1.13,1.21.42-.27.86-.49,1.33-.67.13-.05.27-.09.38-.18.21-.15.32-.41.41-.65.62-1.7.84-3.53.87-5.35,0-.23,0-.48-.15-.65-.15-.19-.4-.03-1.13-.08h0Z"/>
      <path class="cls-18" d="m242.88,45.31c.21-.03.42.11.47.31.05.2-.09.43-.29.49.11-.09.13-.26.08-.39-.05-.13-.17-.23-.26-.41h0Z"/>
      <path class="cls-22" d="m242.88,43.67c-.49-.03-.9.51-1.39.43-.19-.03-.38-.17-.57-.15-.27.02-.43.29-.62.47-.19.18-.43.29-.65.45-.53.36-.87.97-.93,1.6s.18,1.29.68,1.69c0,.4.02.81.18,1.19.11.26.29.49.46.71.35.43.7.88,1.13,1.21.42-.27.86-.49,1.33-.67.13-.05.27-.09.38-.18.21-.15.32-.41.41-.65.62-1.7.84-3.53.87-5.35,0-.23,0-.48-.15-.65-.15-.19-.4-.03-1.13-.08h0Z"/>
      <path class="cls-10" d="m242.88,43.67c-.49-.03-.9.51-1.39.43-.19-.03-.38-.17-.57-.15-.27.02-.43.29-.62.47-.19.18-.43.29-.65.45-.53.36-.87.97-.93,1.6s.18,1.29.68,1.69c0,.4.02.81.18,1.19.11.26.29.49.46.71.35.43.7.88,1.13,1.21.42-.27.86-.49,1.33-.67.13-.05.27-.09.38-.18.21-.15.32-.41.41-.65.62-1.7.84-3.53.87-5.35,0-.23,0-.48-.15-.65-.15-.19-.4-.03-1.13-.08h0Z"/>
      <path class="cls-13" d="m241.9,52.03c-.05.45-.23.87-.45,1.26-.71,1.2-1.88,2.07-3.14,2.66-1.26.58-2.64.89-4,1.16-.14.09-.28.17-.43.25-.05.03-.11.06-.16.08h0c-.83.42-1.74.62-2.62.42-.41-.09-.8-.27-1.09-.58l-3.55-.73c-.11.15-.23.29-.34.43-.71-.25-1.4-.58-2.05-.97.04-.09.07-.19.12-.28.49-1.18,1.06-2.37,1.97-3.3.31-.33.67-.62,1.1-.8.39-.16.81-.22,1.23-.24,1.02-.07,2.05.03,3.07.13.53-.32.97-.65,1.41-.97-.43-.79-.44-1.82-.33-2.85.03-.27.07-.54.11-.81,0-.04.01-.09.04-.13.03-.05.09-.06.15-.07s.12-.02.18-.03h0c.49-.06,1.01.02,1.46.24h0s.01,0,.03.01c.04.02.07.04.11.07.03.03.06.05.07.09.03.06.02.12.01.19-.04.5-.08,1-.11,1.5.75-.46,1.52-.86,2.36-.99.73-.11,1.54,0,2.12.45.08.06.16.13.23.21h.01c.26.29.5.5.72.69.64.53,1.09.71,1.32,1.13.03.04.05.09.07.13.1.18.18.37.24.57.12.36.17.74.13,1.12v-.02Z"/>
      <path class="cls-18" d="m233.9,57.29c-.15-.07-.25-.24-.22-.41.03-.16.17-.3.34-.31-.11-.07-.22-.12-.3-.2-.08-.08-.14-.19-.12-.3.03-.15.16-.25.29-.33-.15-.1-.35-.23-.32-.42.03-.15.19-.22.34-.25.34-.07.69-.01,1.05.01.79.06,1.6-.03,2.36-.27-.59-.07-1.25,0-1.6-.34-.11-.11-.07-.33.03-.45.04-.05.1-.07.15-.09.47-.15.97-.15,1.46-.13.7.02,1.43.05,2.08-.23.15-.06.29-.14.4-.25.13-.11.21-.26.3-.41.28-.49.55-.97.79-1.48.19-.39.36-.79.62-1.14.26-.35.62-.64,1.04-.77.28.41.39.93.38,1.43,0,.5-.11.99-.24,1.48-.17.64-.37,1.28-.67,1.88-.54,1.03-1.41,1.88-2.4,2.49-1,.6-2.18.93-3.33,1.13-.73.13-1.3.07-2.2-.16-.23-.06-.37-.23-.21-.48h0Z"/>
      <path class="cls-18" d="m242,50.14c.35.58.97.96,1.64,1.12.66.15.99.11,1.66-.02.64-.12,1.29-.36,1.78-.79.63-.54.83-1,1.11-1.98.12-.42.11-1.11.02-1.54-.21-.97-.69-1.71-1.42-2.38-.56-.52-1.17-1.01-1.9-1.26-.73-.24-1.6-.18-2.17.33.35.26.75.45,1.18.55-.47.01-.94.29-1.18.7.15.16.37.24.49.31.15.07.3.16.39.3.14.21.09.51-.07.71-.15.2-.39.31-.64.38-.25.07-.53.09-.76-.02s-.42-.37-.37-.61c-.11.25-.15.52-.19.79-.04.31-.08.61-.11.91-.02.17-.04.35.01.5,0,.09,0,.17.03.25.03.08.09.15.18.17.13.02.24-.09.37-.13-.34.18-.55.57-.53.95,0,.08.03.16.09.21.07.06.17.06.25.03.08-.03.15-.09.22-.15-.09.09-.17.19-.27.28-.03.03-.05.05-.05.09,0,.03.01.05.03.07.05.07.13.12.19.21h0v.02Z"/>
      <path class="cls-10" d="m232.96,50.53s1.92,1.89,4.18-.24"/>
      <path class="cls-22" d="m231.55,51.5s.87.19,1.55.56l-1.55-.56Z"/>
      <path class="cls-10" d="m231.55,51.5s.87.19,1.55.56"/>
      <path class="cls-16" d="m233.35,44.63c-1.37-1.01-2.56-2.22-3.69-3.33-1.13-2.08-1.82-4.4-3.11-6.38-.11.03-.22.05-.33.07-1.6.03-3.71,1.08-4.86,2.21-1.18,1.16-1.99,2.64-2.66,4.16-.99,2.25-1.68,4.63-2.06,7.06-.18,1.15-.29,2.33-.07,3.47.3,1.6,1.13,3.3,2.28,4.45.48.48.97.87,1.48,1.22l2.26-3.18c-1.08-1.3-1.62-3.08-1.26-4.73.11-.49.29-.97.48-1.45.45-1.1.88-2.02,1.48-2.99.57,3.19.52,6.49-.2,9.69.07.06.13.12.19.18.28.24.59.45.91.64.49-1.18,1.06-2.37,1.97-3.3.31-.33.67-.62,1.1-.8.39-.16.81-.22,1.23-.24,1.02-.07,2.05.03,3.07.13.53-.32.97-.65,1.41-.97-.43-.79-.44-1.82-.33-2.85.03-.27.07-.54.11-.81,0-.04.01-.09.04-.13.03-.05.09-.06.15-.07s.12-.02.18-.03c.03-.49.14-.98.33-1.44.02-.05.04-.1.09-.13.04-.03.11-.04.15,0,.03.03.03.06.04.09.03.21.05.41.05.63.03-.21.09-.41.19-.59.02-.03.04-.07.07-.09-.23-.15-.45-.3-.67-.46h-.02Z"/>
      <path class="cls-22" d="m223.24,44.92c.02.09.03.19.05.29-.59.97-1.03,1.89-1.48,2.99-.19.47-.37.95-.48,1.45-.41,1.89.35,3.93,1.76,5.25.07.06.13.12.19.18,1.54,1.32,3.69,1.81,5.69,1.5.73-.11,1.03-.83,1.42-1.27.13-.15.27-.32.47-.37.19-.06.45.06.46.26,0,.06-.02.12-.04.17-.1.27-.22.53-.35.79-.18.33-.38.65-.62.94.85.05,1.56-.22,2.28-.29.32-.03.65-.01.93.14.07.04.15.1.19.17.09.15.03.35-.11.45.19,0,.32.15.3.3-.02.15-.15.26-.29.31.15.05.23.15.26.26,0,.03.01.07,0,.1-.03.12-.19.16-.26.27.04.18-.04.34-.15.45s-.25.19-.39.26c-.57.29-1.18.51-1.8.64-2.78.68-6.18.22-8.75-1.25-1.36-.79-2.55-1.43-3.69-2.58-1.15-1.16-1.98-2.85-2.28-4.45-.21-1.14-.11-2.32.07-3.47.38-2.43,1.07-4.81,2.06-7.06l4.53,3.57h.03Z"/>
      <path class="cls-10" d="m233.6,57.58l-2.51.29"/>
      <path class="cls-10" d="m233.62,58.19l-2.88.45"/>
      <path class="cls-10" d="m233.61,58.81l-2.61.56"/>
      <path class="cls-10" d="m223.24,44.92c.02.09.03.19.05.29-.59.97-1.03,1.89-1.48,2.99-.19.47-.37.95-.48,1.45-.41,1.89.35,3.93,1.76,5.25.07.06.13.12.19.18,1.54,1.32,3.69,1.81,5.69,1.5.73-.11,1.03-.83,1.42-1.27.13-.15.27-.32.47-.37.19-.06.45.06.46.26,0,.06-.02.12-.04.17-.1.27-.22.53-.35.79-.18.33-.38.65-.62.94.85.05,1.56-.22,2.28-.29.32-.03.65-.01.93.14.07.04.15.1.19.17.09.15.03.35-.11.45.19,0,.32.15.3.3-.02.15-.15.26-.29.31.15.05.23.15.26.26,0,.03.01.07,0,.1-.03.12-.19.16-.26.27.04.18-.04.34-.15.45s-.25.19-.39.26c-.57.29-1.18.51-1.8.64-2.78.68-6.18.22-8.75-1.25-1.36-.79-2.55-1.43-3.69-2.58-1.15-1.16-1.98-2.85-2.28-4.45-.21-1.14-.11-2.32.07-3.47.38-2.43,1.07-4.81,2.06-7.06l4.53,3.57h.03Z"/>
      <path class="cls-22" d="m233.9,55.74s1.41.32,2.64,0h-2.64Z"/>
      <path class="cls-10" d="m233.9,55.74s1.41.32,2.64,0"/>
      <path class="cls-22" d="m234.02,56.58s1.78.07,2.51-.11l-2.51.11Z"/>
      <path class="cls-10" d="m234.02,56.58s1.78.07,2.51-.11"/>
      <path class="cls-22" d="m233.9,57.29s1.72.25,2.76-.15l-2.76.15Z"/>
      <path class="cls-10" d="m233.9,57.29s1.72.25,2.76-.15"/>
      <path class="cls-10" d="m241.89,44.07s.22.47.45.73"/>
      <path class="cls-10" d="m236.17,30.87s-.47,1.88,0,2.61c.47.73-.21,1.04-1.12.47"/>
      <path class="cls-25" d="m233.86,31.55c.07-.31,0-.59-.17-.62s-.34.19-.41.5c-.07.31,0,.59.17.63s.34-.19.41-.5h0Z"/>
      <path class="cls-25" d="m237.41,32.66c.1-.3.06-.59-.09-.64-.15-.05-.36.15-.46.45s-.06.59.09.64c.15.05.36-.15.46-.45Z"/>
      <path class="cls-10" d="m233.24,34.85s.84.61,2.04.61"/>
      <path class="cls-10" d="m223.24,44.92v-2.88"/>
      <path class="cls-10" d="m230.01,29.63l.37.29"/>
      <path class="cls-20" d="m225.57,47.12s2.61,3.17,5.98,1.76l-5.98-1.76Z"/>
      <path class="cls-10" d="m225.57,47.12s2.61,3.17,5.98,1.76"/>
      <path class="cls-22" d="m232.5,30.41s.63-.43,1.52-.31l-1.52.31Z"/>
      <path class="cls-10" d="m232.5,30.41s.63-.43,1.52-.31"/>
      <path class="cls-22" d="m237.7,30.56s.62.33.86.93l-.86-.93Z"/>
      <path class="cls-10" d="m237.7,30.56s.62.33.86.93"/>
    </g>
    <g>
      <path class="cls-18" d="m352.6,44.85c0,.07-.04.14-.07.2-.54.93-1.1,1.88-1.83,2.66-.1.11-.2.21-.31.31l-.02.02s-.01.01-.03.02c0,.01-.02.02-.03.03-.03.03-.07.06-.1.09-.91.8-2.13,1.34-3.33,1.16-.48-.07-.93-.25-1.37-.46-.66-.33-1.27-.73-1.83-1.2.03-.27.07-.54.11-.81,0-.04.01-.09.04-.13.03-.05.09-.06.15-.07s.12-.02.18-.03c.03-.49.14-.98.33-1.44.02-.05.04-.1.09-.13.04-.03.11-.04.15,0,.03.03.03.06.04.09.03.21.05.41.05.63.03-.21.09-.41.19-.59.02-.03.04-.07.07-.09-.23-.15-.45-.3-.67-.46-1.37-1.01-2.56-2.22-3.69-3.33-1.13-2.08-1.82-4.4-3.11-6.38.02,0,.03,0,.05-.01,1.27-.31,2.42-1.06,3.23-2.08h0c.2-.25.38-.51.53-.79.38.47.77.94,1.17,1.4.53.63,1.08,1.24,1.68,1.8.43.41.91.73,1.56.89.17.04.33.08.49.13.72.2,1.42.47,1.97.96.41.37.71.83,1,1.31.63,1.03,1.2,2.08,1.76,3.16.05.1.1.19.15.29.25.48.49.97.74,1.46.09.19.19.37.29.56.11.22.23.44.33.66.03.06.07.13.06.2h-.03Z"/>
      <path class="cls-18" d="m337.5,42.61c-.09.21-.19.41-.3.61.11-.19.21-.4.3-.61Z"/>
      <path class="cls-18" d="m351.48,47.84c-.04.43-.15.83-.3,1.24-.09.24-.19.47-.31.69-.48.91-1.2,1.72-1.99,2.38-1.37,1.13-3,1.9-4.57,2.75-.77.42-1.54.86-2.33,1.26.13-.25.25-.51.35-.79.02-.06.04-.11.04-.17,0-.21-.27-.32-.46-.27-.19.06-.34.23-.47.38-.23.27-.45.65-.75.93-.18.17-.39.29-.67.34-.83.13-1.68.11-2.51-.04-.8-.15-1.57-.42-2.27-.83.49-1.18,1.06-2.36,1.97-3.3.31-.33.67-.62,1.1-.8.39-.16.81-.22,1.23-.24,1.02-.07,2.05.03,3.07.13.53-.32.97-.65,1.41-.97-.43-.79-.44-1.82-.33-2.85.03-.27.07-.54.11-.81,0-.04.01-.09.04-.13.03-.05.09-.06.15-.07s.12-.02.18-.03h0l1.46.24h0l.16.03,4.19.69.71.11.78.13h0Z"/>
      <path class="cls-18" d="m351.52,47.85h-.04c0-.05.01-.09.01-.14,0,.04,0,.09.03.14Z"/>
      <path class="cls-10" d="m337.6,34.91s-.03-.04-.04-.06l.09.05"/>
      <path class="cls-10" d="m351.04,44.33h0c-.02.13-.03.24-.06.35-.01.07-.03.13-.04.2-.11.48-.26.96-.58,1.33-.16.19-.37.34-.61.43-.23.09-.49.13-.76.08-1.08-.19-2.12-.59-3.08-1.13-.09-.05-.17-.09-.26-.15-.03-.01-.05-.03-.07-.05-.06-.04-.12-.07-.18-.11-.05-.03-.11-.07-.15-.1-.05-.03-.11-.07-.16-.11"/>
      <path class="cls-18" d="m334.13,54.9c-.17-.17-.34-.34-.49-.53-1.08-1.3-1.62-3.08-1.26-4.73.11-.49.29-.97.48-1.45.45-1.1.88-2.02,1.48-2.99.57,3.19.52,6.49-.2,9.69h0Z"/>
      <path class="cls-18" d="m350.07,31.5c1.3-.75,1.85-2.48,1.52-3.95s-1.38-2.7-2.62-3.57c-.65-.45-1.37-.83-2.13-1.03-2.24-.59-4.76.46-6.08,2.36-1.32,1.91-2.07,4.26-1.11,6.37.15.34.97.93,1.26,1.16.27.21.59.32.91.41,1.25.35,2.57.51,3.85.33,1.29-.18,2.4-.93,4.4-2.08h0Z"/>
      <path class="cls-18" d="m349.72,28.21c-.95.81-2.18,1.26-3.42,1.4-.58.07-1.17.07-1.75.02-.67-.05-1.34-.17-2-.34-.07-.3-.28-.57-.55-.72-.27-.15-.61-.19-.91-.09-.36.11-.65.41-.83.74-.23.41-.35.91-.15,1.34.17.34.51.56.81.73-.07,1.07-.13,2.22.44,3.12.27.42.57.84.95,1.16.41.32.97.68,1.46.85.84.3,1.88.14,2.69-.23,1.22-.56,2.04-1.72,2.74-2.86.51-.83.91-1.75,1.14-2.7-.26-.31-.41-.69-.49-1.09-.08-.39-.1-.79-.13-1.34h0Z"/>
      <path class="cls-18" d="m353.16,44.55c-.12,0-.26-.02-.34-.11-.09-.11-.03-.32.12-.36-.17,0-.32.19-.27.35.04.17.26.26.49.11h0Z"/>
      <path class="cls-18" d="m350.31,48.01c.28.22.67.31,1.02.23-.35-.06-.69-.13-1.02-.23Z"/>
      <path class="cls-22" d="m345.57,45.2s-.14-.64-.44-1.78l.44,1.78Z"/>
      <path class="cls-10" d="m345.57,45.2s-.14-.64-.44-1.78"/>
      <path class="cls-22" d="m348.18,42.04s2.44.19,2.85,2.3l-2.85-2.3Z"/>
      <path class="cls-10" d="m348.18,42.04s2.44.19,2.85,2.3"/>
      <path class="cls-17" d="m350.13,46.12c.45,0,.81-.36.81-.81s-.36-.81-.81-.81-.81.36-.81.81.36.81.81.81Z"/>
      <path class="cls-10" d="m348.18,40.32l.57,1.72"/>
      <path class="cls-18" d="m346.13,46.19c.02.05,0,.11-.03.15-.1.19-.21.37-.31.56-.01.01-.02.03-.03.05-.03.05-.06.11-.09.16-.49-.25-1.03-.3-1.53-.18,0-.1,0-.2.01-.3.03-.49.14-.98.33-1.44.02-.05.04-.1.09-.13.04-.03.11-.04.15,0,.03.03.03.06.04.09.03.21.05.41.05.63.03-.21.09-.41.19-.59.02-.03.04-.07.07-.09.01,0,.03-.01.04-.02.07,0,.1.05.12.12,0,.03,0,.06,0,.09,0,.19,0,.37-.02.56.03-.19.08-.38.17-.55h0s.04-.09.08-.11.09-.01.11.02c.01.02,0,.05,0,.07,0,.04,0,.09-.02.13-.02.19-.05.37-.09.56.03-.18.09-.35.17-.52h0s.03-.07.06-.09c.07-.05.18.03.2.11,0,.04,0,.08,0,.12,0,.05-.03.1-.04.15-.07.2-.09.42-.05.64.02-.08.05-.17.11-.22.07-.05.18-.04.21.04h0Z"/>
      <path class="cls-18" d="m353.93,43.67c-.49-.03-.9.51-1.39.43-.19-.03-.38-.17-.57-.15-.27.02-.43.29-.62.47-.19.18-.43.29-.65.45-.53.36-.87.97-.93,1.6s.18,1.29.68,1.69c0,.4.02.81.18,1.19.11.26.29.49.46.71.35.43.7.88,1.13,1.21.42-.27.86-.49,1.33-.67.13-.05.27-.09.38-.18.21-.15.32-.41.41-.65.62-1.7.84-3.53.87-5.35,0-.23,0-.48-.15-.65-.15-.19-.4-.03-1.13-.08h0Z"/>
      <path class="cls-18" d="m353.93,45.31c.21-.03.42.11.47.31.05.2-.09.43-.29.49.11-.09.13-.26.08-.39s-.17-.23-.26-.41h0Z"/>
      <path class="cls-22" d="m353.93,43.67c-.49-.03-.9.51-1.39.43-.19-.03-.38-.17-.57-.15-.27.02-.43.29-.62.47-.19.18-.43.29-.65.45-.53.36-.87.97-.93,1.6s.18,1.29.68,1.69c0,.4.02.81.18,1.19.11.26.29.49.46.71.35.43.7.88,1.13,1.21.42-.27.86-.49,1.33-.67.13-.05.27-.09.38-.18.21-.15.32-.41.41-.65.62-1.7.84-3.53.87-5.35,0-.23,0-.48-.15-.65-.15-.19-.4-.03-1.13-.08h0Z"/>
      <path class="cls-10" d="m353.93,43.67c-.49-.03-.9.51-1.39.43-.19-.03-.38-.17-.57-.15-.27.02-.43.29-.62.47-.19.18-.43.29-.65.45-.53.36-.87.97-.93,1.6s.18,1.29.68,1.69c0,.4.02.81.18,1.19.11.26.29.49.46.71.35.43.7.88,1.13,1.21.42-.27.86-.49,1.33-.67.13-.05.27-.09.38-.18.21-.15.32-.41.41-.65.62-1.7.84-3.53.87-5.35,0-.23,0-.48-.15-.65-.15-.19-.4-.03-1.13-.08h0Z"/>
      <path class="cls-13" d="m352.95,52.03c-.05.45-.23.87-.45,1.26-.71,1.2-1.88,2.07-3.14,2.66-1.26.58-2.64.89-4,1.16-.14.09-.28.17-.43.25-.05.03-.11.06-.16.08h0c-.83.42-1.74.62-2.62.42-.41-.09-.8-.27-1.09-.58l-3.55-.73c-.11.15-.23.29-.34.43-.71-.25-1.4-.58-2.05-.97.04-.09.07-.19.12-.28.49-1.18,1.06-2.37,1.97-3.3.31-.33.67-.62,1.1-.8.39-.16.81-.22,1.23-.24,1.02-.07,2.05.03,3.07.13.53-.32.97-.65,1.41-.97-.43-.79-.44-1.82-.33-2.85.03-.27.07-.54.11-.81,0-.04.01-.09.04-.13.03-.05.09-.06.15-.07s.12-.02.18-.03h0c.49-.06,1.01.02,1.46.24h0s.01,0,.03.01c.04.02.07.04.11.07.03.03.06.05.07.09.03.06.02.12.01.19-.04.5-.08,1-.11,1.5.75-.46,1.52-.86,2.36-.99.73-.11,1.54,0,2.12.45.08.06.16.13.23.21h.01c.26.29.5.5.72.69.64.53,1.09.71,1.32,1.13.03.04.05.09.07.13.1.18.18.37.24.57.12.36.17.74.13,1.12v-.02Z"/>
      <path class="cls-18" d="m344.95,57.29c-.15-.07-.25-.24-.22-.41.03-.16.17-.3.34-.31-.11-.07-.22-.12-.3-.2s-.14-.19-.12-.3c.03-.15.16-.25.29-.33-.15-.1-.35-.23-.32-.42.03-.15.19-.22.34-.25.34-.07.69-.01,1.05.01.79.06,1.6-.03,2.36-.27-.59-.07-1.25,0-1.6-.34-.11-.11-.07-.33.03-.45.04-.05.1-.07.15-.09.47-.15.97-.15,1.46-.13.7.02,1.43.05,2.08-.23.15-.06.29-.14.4-.25.13-.11.21-.26.3-.41.28-.49.55-.97.79-1.48.19-.39.36-.79.62-1.14s.62-.64,1.04-.77c.28.41.39.93.38,1.43,0,.5-.11.99-.24,1.48-.17.64-.37,1.28-.67,1.88-.54,1.03-1.41,1.88-2.4,2.49-1,.6-2.18.93-3.33,1.13-.73.13-1.3.07-2.2-.16-.23-.06-.37-.23-.21-.48h0Z"/>
      <path class="cls-18" d="m353.04,50.14c.35.58.97.96,1.64,1.12.66.15.99.11,1.66-.02.64-.12,1.29-.36,1.78-.79.63-.54.83-1,1.11-1.98.12-.42.11-1.11.02-1.54-.21-.97-.69-1.71-1.42-2.38-.56-.52-1.17-1.01-1.9-1.26-.73-.24-1.6-.18-2.17.33.35.26.75.45,1.18.55-.47.01-.94.29-1.18.7.15.16.37.24.49.31.15.07.3.16.39.3.14.21.09.51-.07.71-.15.2-.39.31-.64.38-.25.07-.53.09-.76-.02-.23-.11-.42-.37-.37-.61-.11.25-.15.52-.19.79-.04.31-.08.61-.11.91-.02.17-.04.35.01.5,0,.09,0,.17.03.25.03.08.09.15.18.17.13.02.24-.09.37-.13-.34.18-.55.57-.53.95,0,.08.03.16.09.21.07.06.17.06.25.03.08-.03.15-.09.22-.15-.09.09-.17.19-.27.28-.03.03-.05.05-.05.09,0,.03.01.05.03.07.05.07.13.12.19.21h0v.02Z"/>
      <path class="cls-10" d="m344.01,50.53s1.92,1.89,4.18-.24"/>
      <path class="cls-22" d="m342.6,51.5s.87.19,1.55.56l-1.55-.56Z"/>
      <path class="cls-10" d="m342.6,51.5s.87.19,1.55.56"/>
      <path class="cls-16" d="m344.4,44.63c-1.37-1.01-2.56-2.22-3.69-3.33-1.13-2.08-1.82-4.4-3.11-6.38-.11.03-.22.05-.33.07-1.6.03-3.71,1.08-4.86,2.21-1.18,1.16-1.99,2.64-2.66,4.16-.99,2.25-1.68,4.63-2.06,7.06-.18,1.15-.29,2.33-.07,3.47.3,1.6,1.13,3.3,2.28,4.45.48.48.97.87,1.48,1.22l2.26-3.18c-1.08-1.3-1.62-3.08-1.26-4.73.11-.49.29-.97.48-1.45.45-1.1.88-2.02,1.48-2.99.57,3.19.52,6.49-.2,9.69.07.06.13.12.19.18.28.24.59.45.91.64.49-1.18,1.06-2.37,1.97-3.3.31-.33.67-.62,1.1-.8.39-.16.81-.22,1.23-.24,1.02-.07,2.05.03,3.07.13.53-.32.97-.65,1.41-.97-.43-.79-.44-1.82-.33-2.85.03-.27.07-.54.11-.81,0-.04.01-.09.04-.13.03-.05.09-.06.15-.07s.12-.02.18-.03c.03-.49.14-.98.33-1.44.02-.05.04-.1.09-.13.04-.03.11-.04.15,0,.03.03.03.06.04.09.03.21.05.41.05.63.03-.21.09-.41.19-.59.02-.03.04-.07.07-.09-.23-.15-.45-.3-.67-.46h-.02Z"/>
      <path class="cls-22" d="m334.28,44.92c.02.09.03.19.05.29-.59.97-1.03,1.89-1.48,2.99-.19.47-.37.95-.48,1.45-.41,1.89.35,3.93,1.76,5.25.07.06.13.12.19.18,1.54,1.32,3.69,1.81,5.69,1.5.73-.11,1.03-.83,1.42-1.27.13-.15.27-.32.47-.37.19-.06.45.06.46.26,0,.06-.02.12-.04.17-.1.27-.22.53-.35.79-.18.33-.38.65-.62.94.85.05,1.56-.22,2.28-.29.32-.03.65-.01.93.14.07.04.15.1.19.17.09.15.03.35-.11.45.19,0,.32.15.3.3-.02.15-.15.26-.29.31.15.05.23.15.26.26,0,.03.01.07,0,.1-.03.12-.19.16-.26.27.04.18-.04.34-.15.45s-.25.19-.39.26c-.57.29-1.18.51-1.8.64-2.78.68-6.18.22-8.75-1.25-1.36-.79-2.55-1.43-3.69-2.58-1.15-1.16-1.98-2.85-2.28-4.45-.21-1.14-.11-2.32.07-3.47.38-2.43,1.07-4.81,2.06-7.06l4.53,3.57h.03Z"/>
      <path class="cls-10" d="m344.65,57.58l-2.51.29"/>
      <path class="cls-10" d="m344.67,58.19l-2.88.45"/>
      <path class="cls-10" d="m344.66,58.81l-2.61.56"/>
      <path class="cls-10" d="m334.28,44.92c.02.09.03.19.05.29-.59.97-1.03,1.89-1.48,2.99-.19.47-.37.95-.48,1.45-.41,1.89.35,3.93,1.76,5.25.07.06.13.12.19.18,1.54,1.32,3.69,1.81,5.69,1.5.73-.11,1.03-.83,1.42-1.27.13-.15.27-.32.47-.37.19-.06.45.06.46.26,0,.06-.02.12-.04.17-.1.27-.22.53-.35.79-.18.33-.38.65-.62.94.85.05,1.56-.22,2.28-.29.32-.03.65-.01.93.14.07.04.15.1.19.17.09.15.03.35-.11.45.19,0,.32.15.3.3-.02.15-.15.26-.29.31.15.05.23.15.26.26,0,.03.01.07,0,.1-.03.12-.19.16-.26.27.04.18-.04.34-.15.45s-.25.19-.39.26c-.57.29-1.18.51-1.8.64-2.78.68-6.18.22-8.75-1.25-1.36-.79-2.55-1.43-3.69-2.58-1.15-1.16-1.98-2.85-2.28-4.45-.21-1.14-.11-2.32.07-3.47.38-2.43,1.07-4.81,2.06-7.06l4.53,3.57h.03Z"/>
      <path class="cls-22" d="m344.95,55.74s1.41.32,2.64,0h-2.64Z"/>
      <path class="cls-10" d="m344.95,55.74s1.41.32,2.64,0"/>
      <path class="cls-22" d="m345.07,56.58s1.78.07,2.51-.11l-2.51.11Z"/>
      <path class="cls-10" d="m345.07,56.58s1.78.07,2.51-.11"/>
      <path class="cls-22" d="m344.95,57.29s1.72.25,2.76-.15l-2.76.15Z"/>
      <path class="cls-10" d="m344.95,57.29s1.72.25,2.76-.15"/>
      <path class="cls-10" d="m352.94,44.07s.22.47.45.73"/>
      <path class="cls-10" d="m347.22,30.87s-.47,1.88,0,2.61c.47.73-.21,1.04-1.12.47"/>
      <path class="cls-25" d="m344.91,31.55c.07-.31,0-.59-.17-.62s-.34.19-.41.5c-.07.31,0,.59.17.63s.34-.19.41-.5h0Z"/>
      <path class="cls-25" d="m348.46,32.66c.1-.3.06-.59-.09-.64-.15-.05-.36.15-.46.45s-.06.59.09.64c.15.05.36-.15.46-.45Z"/>
      <path class="cls-10" d="m344.3,34.85s.84.61,2.04.61"/>
      <path class="cls-10" d="m334.28,44.92v-2.88"/>
      <path class="cls-10" d="m341.05,29.63l.37.29"/>
      <path class="cls-20" d="m336.62,47.12s2.61,3.17,5.98,1.76l-5.98-1.76Z"/>
      <path class="cls-10" d="m336.62,47.12s2.61,3.17,5.98,1.76"/>
      <path class="cls-22" d="m343.55,30.41s.63-.43,1.52-.31l-1.52.31h0Z"/>
      <path class="cls-10" d="m343.55,30.41s.63-.43,1.52-.31"/>
      <path class="cls-22" d="m348.75,30.56s.62.33.86.93l-.86-.93Z"/>
      <path class="cls-10" d="m348.75,30.56s.62.33.86.93"/>
    </g>
  </g>
  <text class="cls-23" transform="translate(-70.25 -17.55)"><tspan x="0" y="0">quantité lait en </tspan><tspan x="31.77" y="14">poud</tspan><tspan class="cls-29" x="69.12" y="14">r</tspan><tspan x="75.56" y="14">e</tspan></text>
  <text class="cls-23" transform="translate(133.82 -17.55)"><tspan x="0" y="0">bibe</tspan><tspan class="cls-29" x="32.68" y="0">r</tspan><tspan x="39.12" y="0">on plein</tspan></text>
  <text class="cls-23" transform="translate(296.52 -15.37)"><tspan x="0" y="0">aide à l’allaitement</tspan></text>
</svg>