<?xml version="1.0" encoding="UTF-8"?>
<svg id="Calque_1" data-name="Calque 1" xmlns="http://www.w3.org/2000/svg" viewBox="0 0 128 128.13">
  <defs>
    <style>
      .cls-1, .cls-2, .cls-3, .cls-4, .cls-5, .cls-6, .cls-7 {
        stroke: #000;
      }

      .cls-1, .cls-2, .cls-3, .cls-4, .cls-8, .cls-7 {
        stroke-linecap: round;
        stroke-linejoin: round;
      }

      .cls-1, .cls-9 {
        fill: #bfe6fc;
      }

      .cls-2, .cls-4, .cls-8 {
        fill: none;
      }

      .cls-10 {
        fill: #fab0b4;
      }

      .cls-11, .cls-6 {
        fill: #ff6d75;
      }

      .cls-3 {
        fill: #d6d6d6;
      }

      .cls-3, .cls-4 {
        stroke-width: 2px;
      }

      .cls-5 {
        fill: #fce9b9;
      }

      .cls-5, .cls-6 {
        stroke-miterlimit: 10;
      }

      .cls-8 {
        stroke: #fff;
        stroke-width: 8px;
      }

      .cls-7 {
        stroke-width: .6px;
      }
    </style>
  </defs>
  <rect class="cls-4" x="9.02" y="16.12" width="107.09" height="95.88"/>
  <rect class="cls-3" x="16.08" y="78.51" width="32.96" height="33.5"/>
  <rect class="cls-3" x="16.08" y="78.51" width="16.48" height="33.5"/>
  <rect class="cls-2" x="16.08" y="33.34" width="12.7" height="12.7"/>
  <rect class="cls-2" x="36.34" y="33.34" width="12.7" height="12.7"/>
  <rect class="cls-2" x="56.14" y="33.34" width="12.7" height="12.7"/>
  <rect class="cls-2" x="76.1" y="33.34" width="12.7" height="12.7"/>
  <rect class="cls-2" x="96.04" y="33.34" width="12.7" height="12.7"/>
  <rect class="cls-2" x="56.14" y="51.36" width="12.7" height="12.7"/>
  <rect class="cls-2" x="76.1" y="51.36" width="12.7" height="12.7"/>
  <rect class="cls-2" x="96.04" y="51.36" width="12.7" height="12.7"/>
  <rect class="cls-2" x="56.14" y="69.39" width="12.7" height="12.7"/>
  <rect class="cls-2" x="76.1" y="69.39" width="12.7" height="12.7"/>
  <rect class="cls-2" x="96.04" y="69.39" width="12.7" height="12.7"/>
  <rect class="cls-3" x="9.02" y="16.12" width="107.09" height="9.73"/>
  <line class="cls-2" x1="29.11" y1="94.02" x2="29.11" y2="98.31"/>
  <line class="cls-2" x1="36.01" y1="94.02" x2="36.01" y2="98.31"/>
  <path class="cls-9" d="m17.76,41.27v-6.44h8.42v2.13s-3.03-1-4.77.88-1.74,3.43-1.74,3.43h-1.91Z"/>
  <path class="cls-9" d="m38.25,41.27v-6.44h8.42v2.13s-3.03-1-4.77.88-1.74,3.43-1.74,3.43h-1.91Z"/>
  <path class="cls-9" d="m57.74,41.27v-6.44h8.42v2.13s-3.03-1-4.77.88-1.74,3.43-1.74,3.43h-1.91Z"/>
  <path class="cls-9" d="m77.85,41.27v-6.44h8.42v2.13s-3.03-1-4.77.88-1.74,3.43-1.74,3.43h-1.91Z"/>
  <path class="cls-9" d="m97.82,41.27v-6.44h8.42v2.13s-3.03-1-4.77.88-1.74,3.43-1.74,3.43h-1.91Z"/>
  <path class="cls-9" d="m57.74,59.41v-6.44h8.42v2.13s-3.03-1-4.77.88c-1.74,1.88-1.74,3.43-1.74,3.43h-1.91Z"/>
  <path class="cls-9" d="m77.85,59.41v-6.44h8.42v2.13s-3.03-1-4.77.88c-1.74,1.88-1.74,3.43-1.74,3.43h-1.91Z"/>
  <path class="cls-9" d="m97.82,59.41v-6.44h8.42v2.13s-3.03-1-4.77.88c-1.74,1.88-1.74,3.43-1.74,3.43h-1.91Z"/>
  <path class="cls-9" d="m57.74,77.54v-6.44h8.42v2.13s-3.03-1-4.77.88c-1.74,1.88-1.74,3.43-1.74,3.43h-1.91Z"/>
  <path class="cls-9" d="m77.85,77.54v-6.44h8.42v2.13s-3.03-1-4.77.88c-1.74,1.88-1.74,3.43-1.74,3.43h-1.91Z"/>
  <path class="cls-9" d="m97.82,77.54v-6.44h8.42v2.13s-3.03-1-4.77.88c-1.74,1.88-1.74,3.43-1.74,3.43h-1.91Z"/>
  <rect class="cls-2" x="56.14" y="87.67" width="12.7" height="12.7"/>
  <rect class="cls-2" x="76.1" y="87.67" width="12.7" height="12.7"/>
  <rect class="cls-2" x="96.04" y="87.67" width="12.7" height="12.7"/>
  <path class="cls-9" d="m57.74,95.83v-6.44h8.42v2.13s-3.03-1-4.77.88c-1.74,1.88-1.74,3.43-1.74,3.43h-1.91Z"/>
  <path class="cls-9" d="m77.85,95.83v-6.44h8.42v2.13s-3.03-1-4.77.88c-1.74,1.88-1.74,3.43-1.74,3.43h-1.91Z"/>
  <path class="cls-9" d="m97.82,95.83v-6.44h8.42v2.13s-3.03-1-4.77.88c-1.74,1.88-1.74,3.43-1.74,3.43h-1.91Z"/>
  <circle class="cls-1" cx="98.36" cy="29.35" r="23.65"/>
  <g>
    <rect class="cls-11" x="30.57" y="65.58" width="3.45" height="9.85"/>
    <rect class="cls-11" x="30.57" y="65.58" width="3.44" height="9.85" transform="translate(-38.22 102.8) rotate(-90)"/>
  </g>
  <path class="cls-5" d="m107.19,44.71l-.07.03s-.09.03-.14.04c-.05.01-.09.02-.13.03-.02,0-.04.01-.06.02-.04,0-.08.02-.13.02-.21.03-.39.03-.54-.01-.06,0-.12-.03-.17-.07-.05-.02-.09-.06-.13-.09-.01-.01-.03-.03-.04-.04,0,0,0,0,0,0-.01-.01-.02-.03-.03-.05l-1.29-1.24-18.71-17.9c-1.54-1.48-1.87-3.77-.94-5.59l-.05-.04c-.15-.14-.26-.31-.33-.49-.18-.47-.09-1.03.29-1.42.51-.54,1.38-.56,1.91-.04l.05.04c1.77-1.01,4.08-.79,5.62.69l18.83,18.01,1.33,1.27s.01,0,.02.01c.03.02.06.05.09.07.01.01.03.03.04.04,0,0,0,0,0,0,.01.02.02.03.03.05h0s.02.03.03.05c0,0,0,0,0,.01,0,.02.02.04.02.05.01.03.02.06.03.08h0s0,.03,0,.04c0,0,0,.01,0,.02,0,0,0,.02,0,.03,0,0,0,.01,0,.02,0,.01,0,.02,0,.03,0,0,0,.01,0,.02,0,.01,0,.02,0,.03,0,0,0,.01,0,.02,0,.01,0,.02,0,.03,0,0,0,.01,0,.02,0,.01,0,.02,0,.03,0,0,0,.01,0,.02,0,.01,0,.03,0,.04,0,0,0,.01,0,.01,0,.02,0,.03,0,.05,0,0,0,0,0,0,0,.02,0,.04,0,.06,0,0,0,0,0,0,0,.02,0,.03,0,.05,0,0,0,.01,0,.02,0,.01,0,.03,0,.04,0,0,0,.01,0,.02,0,.01,0,.03,0,.04,0,0,0,.01,0,.02,0,.01,0,.03,0,.04,0,0,0,.02,0,.02,0,.01,0,.03-.01.04,0,0,0,.01,0,.02,0,.01,0,.03-.01.04,0,0,0,.02,0,.02,0,.01,0,.03-.01.05,0,0,0,.01,0,.02,0,.02-.01.04-.02.05,0,0,0,0,0,.01-.01.05-.03.09-.05.14,0,0,0,0,0,.01,0,.02-.01.04-.02.06,0,0,0,.02,0,.02,0,.02-.01.03-.02.05,0,0,0,.02,0,.02,0,.02-.01.03-.02.05,0,0,0,.02-.01.03,0,.02-.01.03-.02.05,0,0,0,.02-.01.03,0,.02-.01.03-.02.05v.03s-.03.03-.04.05c0,0,0,.02-.01.03,0,.02-.02.04-.03.06,0,0,0,.01,0,.02-.01.03-.03.05-.04.07h0s-.03.05-.04.08h0s-.03.05-.04.08c0,0,0,.01-.01.02-.01.02-.02.04-.03.06,0,0-.01.02-.02.03,0,.02-.02.03-.03.05,0,.01-.01.02-.02.03-.01.01-.02.03-.03.05,0,.01-.01.02-.02.03,0,.02-.02.03-.03.05,0,0-.01.02-.02.03-.01.02-.02.04-.04.05,0,0-.01.02-.02.03-.01.02-.02.04-.03.06,0,0-.01.02-.02.03-.01.02-.03.04-.04.06,0,0,0,.01-.01.02-.04.06-.07.11-.11.16,0,0-.01.01-.02.02-.01.02-.03.04-.04.06,0,0-.01.02-.02.03-.01.02-.03.04-.04.05,0,.01-.02.02-.02.03-.01.02-.03.03-.04.05,0,.01-.02.02-.02.03-.01.02-.03.03-.04.05,0,.01-.02.02-.03.03-.01.02-.03.03-.04.05,0,.01-.02.02-.03.03-.01.02-.03.03-.04.05,0,.01-.02.02-.02.03-.02.02-.03.04-.05.06,0,0-.01.02-.02.03-.02.02-.04.05-.05.07,0,0-.01.01-.01.02-.02.03-.05.05-.07.09,0,0-.01.01-.02.02-.02.02-.04.04-.05.07,0,.01-.02.02-.03.03-.02.02-.03.04-.05.05-.01.01-.02.02-.03.03-.01.02-.03.03-.05.05-.01.01-.02.02-.03.04-.01.02-.03.03-.04.05-.01.01-.02.02-.03.04-.01.02-.03.03-.04.05-.01.01-.02.02-.03.04-.01.02-.03.03-.05.05,0,.01-.02.02-.03.03-.02.02-.03.04-.05.05-.01,0-.02.02-.03.03-.02.02-.04.04-.06.06,0,0-.02.02-.03.03-.03.03-.06.06-.08.08-.46.47-.94.88-1.4,1.22-.15.11-.29.21-.43.3-.06.04-.11.07-.17.11-.11.07-.22.14-.33.2-.05.03-.11.06-.16.09-.16.08-.31.16-.46.22-.07.03-.15.06-.22.09Z"/>
  <path class="cls-5" d="m108.19,45.67c.98-.48,2.07-1.29,3.07-2.28.91-.91,1.65-1.87,2.14-2.78.62-1.15.79-2.12.49-2.89h0c-.1-.26-.24-.48-.43-.67-.3-.3-.85-.65-1.75-.56-.19.02-.38.06-.59.11l1.33,1.27s.01,0,.02.01c.03.02.06.05.09.07h0s.03.03.04.04c0,0,0,0,0,.01.01.02.02.03.03.05,0,0,0,0,0,0,0,.02.02.03.03.05,0,0,0,0,0,.01,0,.02.02.04.02.05h0s.02.05.03.08c0,0,0,0,0,.01,0,.01,0,.02,0,.03,0,0,0,.01,0,.02,0,0,0,.02,0,.03,0,0,0,.01,0,.02,0,0,0,.02,0,.03,0,0,0,.01,0,.02,0,0,0,.02,0,.03,0,0,0,.01,0,.02,0,.01,0,.02,0,.03,0,0,0,.01,0,.02,0,.01,0,.02,0,.03,0,0,0,.01,0,.02,0,.01,0,.03,0,.04,0,0,0,.01,0,.02,0,.02,0,.03,0,.05,0,0,0,0,0,0,0,.02,0,.04,0,.06,0,0,0,0,0,0,0,.02,0,.03,0,.05,0,0,0,.01,0,.02,0,.01,0,.03,0,.04,0,0,0,.01,0,.02,0,.01,0,.03,0,.04,0,0,0,.01,0,.02,0,.01,0,.03,0,.04,0,0,0,.02,0,.02,0,.01,0,.03-.01.04,0,0,0,.01,0,.02,0,.01,0,.03-.01.04,0,0,0,.01,0,.02,0,.02,0,.03-.01.05,0,0,0,.01,0,.02,0,.02-.01.04-.02.05,0,0,0,0,0,.01-.02.05-.03.09-.05.14,0,0,0,0,0,.01,0,.02-.02.04-.02.06,0,0,0,.01,0,.02,0,.02-.01.03-.02.05,0,0,0,.02-.01.02,0,.02-.01.03-.02.05,0,0,0,.02-.01.02,0,.02-.01.03-.02.05,0,0,0,.02-.01.03,0,.02-.02.03-.02.05,0,0,0,.02-.01.03,0,.02-.02.03-.03.05,0,0,0,.02-.01.02,0,.02-.02.04-.03.06,0,0,0,.01,0,.02-.01.02-.03.05-.04.07,0,0,0,0,0,0-.01.03-.03.05-.04.08,0,0,0,0,0,0-.01.02-.03.05-.04.07,0,0,0,.01-.01.02-.01.02-.02.04-.03.06,0,0-.01.02-.02.03-.01.02-.02.04-.03.05,0,0-.01.02-.02.03-.01.02-.02.03-.03.05,0,0-.01.02-.02.03-.01.02-.02.03-.03.05,0,.01-.01.02-.02.03-.01.02-.02.03-.03.05,0,0-.01.02-.02.03-.01.02-.02.04-.04.05,0,0-.01.02-.02.03-.01.02-.03.04-.04.06,0,0,0,.01-.01.02-.04.05-.08.11-.12.17,0,0,0,.01-.01.02-.01.02-.03.04-.04.06,0,0-.01.02-.02.03-.01.02-.03.04-.04.05,0,.01-.02.02-.02.03-.01.02-.03.03-.04.05,0,.01-.02.02-.02.03-.01.02-.03.03-.04.05,0,.01-.02.02-.03.03-.01.02-.03.03-.04.05,0,.01-.02.02-.03.03-.01.02-.03.03-.04.05,0,.01-.02.02-.03.03-.01.02-.03.04-.05.06,0,0-.02.02-.02.03-.02.02-.04.04-.06.07,0,0,0,.01-.01.02-.02.03-.05.06-.07.08,0,0-.01.01-.02.02-.02.02-.04.04-.06.06,0,0-.02.02-.03.03-.02.02-.03.04-.05.05,0,.01-.02.02-.03.03-.02.02-.03.03-.05.05-.01.01-.02.02-.03.03-.02.02-.03.03-.04.05-.01.01-.02.02-.03.04-.02.02-.03.03-.05.05-.01.01-.02.02-.03.04-.02.02-.03.03-.05.05-.01.01-.02.02-.03.03-.02.02-.03.03-.05.05-.01.01-.02.02-.03.03-.02.02-.04.04-.06.06,0,0-.02.02-.03.03-.03.03-.06.06-.08.08-.46.46-.94.87-1.4,1.22-.14.11-.29.21-.43.3-.06.04-.11.07-.17.11-.11.07-.22.14-.33.2-.05.03-.11.06-.16.09-.16.09-.31.16-.46.22-.07.03-.15.06-.22.09-.02,0-.05.02-.07.03-.05.02-.09.03-.13.04-.04.01-.09.03-.13.04-.02,0-.04.01-.06.02-.04,0-.08.02-.12.02-.21.03-.39.03-.54,0-.06,0-.12-.03-.17-.07-.05-.03-.09-.06-.12-.09-.01-.01-.03-.03-.04-.04,0,0,0,0,0-.01-.01-.02-.02-.03-.03-.05,0,0,0,0,0,0l-1.29-1.24c-.15.59-.14,1.12.04,1.58.1.26.24.48.43.67.3.3.85.65,1.75.56.46-.05.97-.2,1.52-.47Z"/>
  <path class="cls-6" d="m110.84,21.39c.44-.66,1.28-.61,1.88-1.05.08-.06.01-.18-.07-.18-.7-.04-1.48.01-2.11-.33-.03-.01-.05,0-.07,0,0,0,0,0,0,0-.15-.48-.36-.93-.61-1.35,0,0,0-.02,0-.03.11-.79.89-1.1,1.24-1.76.04-.08-.06-.17-.14-.13-.65.26-1.33.65-2.04.61-.01,0-.03,0-.04,0-.36-.38-.75-.71-1.19-1-.21-.74.33-1.35.36-2.08,0-.09-.13-.12-.18-.06-.46.51-.9,1.14-1.55,1.43-.51-.2-1.04-.33-1.6-.4-.45-.57-.25-1.33-.53-1.98-.04-.09-.17-.05-.19.03-.19.64-.31,1.38-.74,1.91-.4.03-.78.1-1.16.19-.18.05-.37.1-.54.16-.62-.33-.77-1.07-1.29-1.53-.07-.06-.18.02-.16.11.11.65.31,1.35.17,2-.52.3-.99.67-1.41,1.09-.68-.04-1.14-.64-1.8-.82-.09-.03-.15.1-.1.17.38.53.86,1.07,1.02,1.72-.33.49-.6,1.03-.79,1.61-.64.26-1.31-.08-1.98.05-.09.02-.09.15-.02.19.58.32,1.26.6,1.68,1.12-.04.29-.06.59-.06.89s.02.57.05.86c-.46.54-1.23.52-1.79.93-.08.06-.01.18.07.18.67.04,1.42,0,2.04.3.18.53.43,1.04.73,1.5-.15.72-.88,1.04-1.22,1.67-.04.08.06.17.14.13.65-.26,1.32-.65,2.04-.61.37.37.78.69,1.22.97.23.75-.33,1.36-.36,2.1,0,.1.13.12.18.06.47-.52.91-1.16,1.57-1.44.02,0,.03-.02.03-.04.46.16.94.27,1.44.33,0,.01.01.02.02.04.55.58.31,1.38.6,2.06.04.09.17.05.19-.02.2-.67.32-1.44.79-1.98.02-.02.02-.05.01-.07,0,0,.01-.01.02-.02.48-.06.95-.16,1.4-.31.01.02.03.04.06.05.75.28.88,1.11,1.44,1.6.07.06.18-.02.16-.11-.11-.69-.34-1.44-.14-2.13,0-.03,0-.05-.02-.07,0-.02,0-.04,0-.06.4-.25.78-.55,1.12-.87.02.02.06.03.1.03.79-.07,1.27.62,1.99.82.09.02.15-.1.1-.17-.4-.57-.93-1.15-1.05-1.86,0-.03-.02-.04-.05-.05,0-.02-.01-.04-.03-.06.1-.15.19-.31.28-.48.13-.25.25-.52.36-.79.03,0,.06,0,.09-.02.69-.41,1.41,0,2.14-.13.09-.02.09-.15.02-.19-.61-.34-1.34-.63-1.75-1.21-.02-.02-.04-.03-.06-.03,0-.02-.02-.03-.04-.03.04-.29.06-.58.06-.87,0-.19,0-.37-.02-.55.02,0,.04-.02.06-.05Z"/>
  <path class="cls-10" d="m101.17,18.65c-.09-.18-.28-.25-.47-.23-.03,0-.06.01-.09.02-.02-.03-.05-.05-.09-.03-.37.15-.7.72-.7,1.11,0,.53.57.44.86.21.28-.22.68-.7.49-1.08Z"/>
  <path class="cls-10" d="m103.75,21.28s-.05.02-.07.04c-.1,0-.2.03-.32.09-.23.12-.42.31-.52.54-.2.44-.04,1.04.48,1.13.52.09,1.06-.37,1.2-.85.14-.49-.2-1.14-.77-.96Z"/>
  <path class="cls-10" d="m106.15,17.86c-.08-.18-.28-.28-.46-.28-.14-.03-.26-.04-.39.05-.13.09-.22.24-.23.4-.02.35.29.67.65.6.35-.06.59-.44.43-.78Z"/>
  <path class="cls-10" d="m107.77,24.11c-.07-.03-.14-.03-.2-.02-.47,0-.69.69-.51,1.07.02.05.08.07.13.08.39.02.79-.27.82-.68.01-.19-.06-.37-.24-.45Z"/>
  <path class="cls-10" d="m101.71,24.82c-.11-.24-.43-.44-.67-.34-.03-.01-.06-.02-.1-.02-.08,0-.16.04-.22.09-.13.12-.19.3-.18.47.02.37.35.68.72.59.34-.08.6-.45.45-.79Z"/>
  <path class="cls-6" d="m85.7,33.05c.1.45-.26.78-.31,1.21,0,.06.07.08.1.04.3-.28.59-.63.99-.75.02,0,.02-.02.03-.03,0,0,0,0,0,0,.26.13.53.22.81.29,0,0,0,0,0,.01.29.36.11.82.24,1.23.02.05.1.04.11,0,.15-.38.26-.82.56-1.11,0,0,0-.01.01-.02.3,0,.6-.03.9-.1.4.21.43.68.73.99.04.04.1,0,.1-.05-.03-.4-.12-.84.02-1.23.29-.14.56-.31.81-.51.42.04.66.43,1.04.57.05.02.09-.05.07-.09-.2-.34-.46-.68-.51-1.08.15-.18.27-.37.39-.56.05-.1.1-.19.15-.29.39-.13.76.11,1.16.07.05,0,.06-.08.02-.11-.32-.22-.69-.41-.91-.73.08-.34.12-.69.11-1.03.29-.27.73-.23,1.07-.43.05-.03.02-.1-.03-.11-.38-.06-.8-.07-1.13-.26-.08-.34-.2-.67-.36-.98.15-.37.56-.52.77-.85.03-.05-.03-.1-.07-.09-.37.11-.76.29-1.15.26-.11-.13-.23-.26-.35-.38s-.25-.22-.38-.32c-.04-.41.27-.72.33-1.12,0-.05-.07-.08-.1-.04-.29.27-.57.6-.95.74-.3-.14-.61-.24-.92-.3-.24-.36-.08-.79-.21-1.18-.02-.05-.1-.04-.11,0-.15.38-.26.82-.56,1.1-.3,0-.6.05-.9.13-.41-.21-.44-.69-.74-.99-.04-.04-.1,0-.1.05.03.41.12.85-.03,1.24,0,.01,0,.02,0,.03-.25.13-.49.29-.72.48,0,0-.02,0-.02,0-.46,0-.71-.42-1.11-.57-.05-.02-.09.05-.07.09.2.35.48.71.52,1.13,0,.02.01.03.02.03,0,0,0,.01,0,.02-.17.23-.31.47-.43.72-.01,0-.03,0-.05,0-.42.2-.82-.08-1.25-.04-.05,0-.06.08-.02.11.34.23.74.44.95.79,0,.01.02.02.04.02,0,.01.01.02.02.02-.05.27-.08.55-.08.82-.02,0-.04.01-.05.03-.29.36-.77.29-1.14.51-.05.03-.02.1.03.11.4.06.86.07,1.2.3.01,0,.03,0,.04,0,0,0,.02.01.04.01.03.1.06.21.09.31.05.16.12.32.19.47-.01,0-.03.02-.03.05-.1.45-.57.59-.81.95-.03.05.03.1.07.08.39-.12.8-.31,1.22-.25.02,0,.03,0,.04-.02.01,0,.02,0,.03,0,.11.13.22.26.35.37.08.08.16.14.24.21,0,.01,0,.03,0,.04Z"/>
  <path class="cls-10" d="m90.74,30.08c.11.03.22-.02.29-.11.01-.02.02-.03.03-.05.02,0,.04,0,.05-.02.09-.22-.02-.58-.19-.74-.22-.21-.41.06-.44.28-.02.21.02.57.26.64Z"/>
  <path class="cls-10" d="m88.6,30.11s.01-.03.01-.04c.04-.05.07-.1.09-.17.04-.14.04-.3-.02-.44-.11-.26-.42-.44-.67-.25-.25.18-.27.59-.12.84.15.26.56.38.72.06Z"/>
  <path class="cls-10" d="m89.07,32.49c.11.04.23,0,.3-.08.07-.04.12-.09.14-.19.01-.09-.01-.19-.08-.26-.14-.15-.4-.14-.51.03-.12.17-.05.43.15.5Z"/>
  <path class="cls-10" d="m85.79,30.66s.07-.04.09-.08c.19-.2-.01-.57-.24-.65-.03,0-.06,0-.09.03-.17.16-.21.44-.04.62.07.08.18.13.29.08Z"/>
  <path class="cls-10" d="m87.93,27.83c.14.05.36,0,.42-.15.02,0,.03-.01.05-.03.03-.03.05-.08.05-.13,0-.1-.05-.2-.13-.27-.16-.14-.42-.13-.54.07-.1.17-.05.43.15.5Z"/>
  <path class="cls-6" d="m97.94,41.3c.2-.3.57-.27.84-.47.03-.03,0-.08-.03-.08-.31-.02-.66,0-.94-.15-.01,0-.02,0-.03,0,0,0,0,0,0,0-.07-.21-.16-.42-.27-.61,0,0,0,0,0-.01.05-.35.4-.49.55-.79.02-.04-.03-.07-.06-.06-.29.12-.59.29-.92.28,0,0-.01,0-.02,0-.16-.17-.34-.32-.53-.45-.09-.33.15-.6.16-.93,0-.04-.06-.05-.08-.03-.21.23-.4.51-.69.64-.23-.09-.47-.15-.72-.18-.2-.26-.11-.59-.24-.89-.02-.04-.08-.02-.09.01-.08.29-.14.62-.33.86-.18.01-.35.04-.52.09-.08.02-.16.04-.24.07-.28-.15-.34-.48-.58-.68-.03-.03-.08.01-.07.05.05.29.14.6.08.9-.23.14-.45.3-.63.49-.31-.02-.51-.29-.81-.37-.04-.01-.07.04-.04.07.17.24.39.48.46.77-.15.22-.27.46-.35.72-.29.12-.59-.03-.89.02-.04,0-.04.07,0,.09.26.14.56.27.75.5-.02.13-.03.27-.03.4s0,.26.02.38c-.21.24-.55.23-.8.41-.03.03,0,.08.03.08.3.02.64,0,.92.13.08.24.19.46.33.67-.07.32-.4.47-.55.75-.02.04.03.07.06.06.29-.12.59-.29.91-.28.17.16.35.31.55.43.1.34-.15.61-.16.94,0,.04.06.05.08.03.21-.23.41-.52.71-.65,0,0,.01,0,.02-.02.21.07.42.12.65.15,0,0,0,.01.01.02.25.26.14.62.27.92.02.04.08.02.09-.01.09-.3.14-.65.36-.89,0,0,0-.02,0-.03,0,0,0,0,0-.01.22-.03.43-.07.63-.14,0,0,.02.02.03.02.33.13.39.5.64.72.03.03.08-.01.07-.05-.05-.31-.15-.64-.06-.95,0-.01,0-.02,0-.03,0,0,0-.02,0-.03.18-.11.35-.24.5-.39.01,0,.02.01.04.01.36-.03.57.28.89.37.04.01.07-.04.04-.07-.18-.26-.42-.52-.47-.83,0-.01-.01-.02-.02-.02,0-.01,0-.02-.01-.03.04-.07.09-.14.12-.21.06-.11.11-.23.16-.35.01,0,.03,0,.04,0,.31-.18.63,0,.96-.06.04,0,.04-.07,0-.09-.27-.15-.6-.28-.79-.54,0-.01-.02-.01-.03-.01,0,0,0-.01-.02-.01.02-.13.03-.26.03-.39,0-.08,0-.17-.01-.25,0,0,.02-.01.03-.02Z"/>
  <path class="cls-10" d="m93.61,40.07c-.04-.08-.13-.11-.21-.1-.01,0-.03,0-.04,0,0-.01-.02-.02-.04-.01-.17.07-.31.32-.32.5,0,.24.26.2.39.1.13-.1.31-.31.22-.49Z"/>
  <path class="cls-10" d="m94.76,41.25s-.02.01-.03.02c-.05,0-.09.01-.14.04-.1.05-.19.14-.23.24-.09.2-.02.47.22.51.23.04.47-.17.54-.38.06-.22-.09-.51-.35-.43Z"/>
  <path class="cls-10" d="m95.84,39.72c-.04-.08-.12-.13-.21-.12-.06-.02-.12-.02-.18.02-.06.04-.1.11-.1.18,0,.16.13.3.29.27.16-.03.26-.2.19-.35Z"/>
  <path class="cls-10" d="m96.56,42.52s-.06-.02-.09,0c-.21,0-.31.31-.23.48.01.02.04.03.06.03.18,0,.35-.12.37-.3,0-.08-.03-.17-.11-.2Z"/>
  <path class="cls-10" d="m93.85,42.83c-.05-.11-.19-.2-.3-.15-.01,0-.03-.01-.04-.01-.03,0-.07.02-.1.04-.06.05-.09.13-.08.21.01.16.16.3.32.27.15-.03.27-.2.2-.35Z"/>
  <g>
    <path class="cls-7" d="m19.61,54c.58.56.91,1.21.97,1.92h-1.12c-.12-.55-.37-.98-.74-1.3-.37-.32-.89-.48-1.56-.48-.82,0-1.48.29-1.98.88-.5.59-.76,1.48-.76,2.7,0,.99.23,1.8.68,2.41s1.13.93,2.03.93c.83,0,1.46-.32,1.9-.97.23-.34.4-.79.52-1.35h1.12c-.1.89-.43,1.64-.98,2.24-.66.73-1.56,1.09-2.69,1.09-.97,0-1.79-.3-2.45-.89-.87-.79-1.3-2-1.3-3.65,0-1.25.33-2.27.98-3.07.71-.87,1.68-1.3,2.92-1.3,1.06,0,1.88.28,2.47.85Z"/>
    <path class="cls-7" d="m23.29,53.38h1.16v8.46h-1.16v-8.46Z"/>
    <path class="cls-7" d="m27.24,53.38h3.38c1.15,0,2.04.41,2.67,1.24.56.74.85,1.7.85,2.86,0,.9-.17,1.71-.5,2.44-.59,1.28-1.6,1.92-3.03,1.92h-3.37v-8.46Zm3.16,7.48c.38,0,.69-.04.94-.12.44-.15.79-.44,1.07-.86.22-.34.38-.78.48-1.31.06-.32.08-.61.08-.89,0-1.05-.2-1.86-.61-2.44s-1.06-.87-1.97-.87h-1.99v6.5h2Z"/>
    <path class="cls-7" d="m39.06,53.38h1.3l3.07,8.46h-1.26l-.86-2.54h-3.35l-.92,2.54h-1.18l3.19-8.46Zm1.88,5l-1.28-3.74-1.37,3.74h2.65Z"/>
    <path class="cls-7" d="m50.99,53.62c.83.44,1.34,1.22,1.52,2.32h-1.14c-.14-.62-.42-1.07-.84-1.35s-.96-.42-1.61-.42c-.77,0-1.41.29-1.94.88s-.79,1.46-.79,2.63c0,1.01.22,1.83.65,2.46s1.14.95,2.12.95c.75,0,1.37-.22,1.86-.67s.74-1.16.75-2.15h-2.65v-.95h3.72v4.53h-.74l-.28-1.09c-.38.43-.72.72-1.01.89-.49.28-1.12.43-1.89.43-.99,0-1.83-.32-2.54-.97-.77-.81-1.16-1.93-1.16-3.35s.38-2.54,1.14-3.38c.72-.8,1.65-1.2,2.79-1.2.78,0,1.46.15,2.03.46Z"/>
  </g>
  <rect class="cls-8" x="-376.1" y="-55.42" width="1951.05" height="522.43"/>
</svg>