<?xml version="1.0" encoding="UTF-8"?>
<svg id="Calque_1" data-name="Calque 1" xmlns="http://www.w3.org/2000/svg" viewBox="0 0 260 128">
  <defs>
    <style>
      .cls-1 {
        fill: #bfe6fc;
      }

      .cls-1, .cls-2, .cls-3, .cls-4, .cls-5, .cls-6 {
        stroke-linecap: round;
        stroke-linejoin: round;
      }

      .cls-1, .cls-2, .cls-4, .cls-6 {
        stroke: #000;
      }

      .cls-2, .cls-3, .cls-5 {
        fill: none;
      }

      .cls-3 {
        stroke: #fab0b4;
      }

      .cls-4 {
        fill: #fab0b4;
      }

      .cls-5 {
        stroke: #fff;
        stroke-width: 8px;
      }
    </style>
  </defs>
  <g>
    <g>
      <g>
        <path class="cls-2" d="m25.08,73.75c1.32-.65,3.04-1.78,3.66-3.66.68-2.05-.38-3.69-1.73-7.33-1.5-4.05-2.16-7.34-2.65-9.77-1.09-5.43-2.2-15.57-6.14-15.57-4.29,0-5.06,10.14-6.14,15.57-.49,2.43-1.15,5.72-2.65,9.77-1.35,3.64-2.41,5.28-1.73,7.33.62,1.88,2.34,3.01,3.66,3.66"/>
        <path class="cls-2" d="m20.94,72.81c-.62.82-1.61,1.35-2.72,1.35s-2.08-.52-2.7-1.34"/>
        <path class="cls-2" d="m14.41,71.49c-2.05.34-3.6.01-3.78-.71-.12-.49.23-1.4,1.4-1.25,1.7.22,1.89,1.7,3.49,3.3"/>
        <path class="cls-2" d="m22.07,71.49c2.05.34,3.6.01,3.78-.71.12-.49-.23-1.4-1.4-1.25-1.7.22-1.89,1.7-3.49,3.3"/>
      </g>
      <path class="cls-3" d="m24.74,79.56c-3.3,3.3-8.71,3.3-12.01,0"/>
      <path class="cls-3" d="m27.66,82.64c-4.91,4.91-12.94,4.91-17.85,0"/>
      <path class="cls-3" d="m30.67,85.64c-6.58,6.58-17.36,6.58-23.94,0"/>
    </g>
    <g>
      <g>
        <path class="cls-2" d="m82.22,53.99c.64-6.62-2.79-12.41-7.75-14.07-4.78-1.6-9.21,1.23-9.74,1.58-4.77,3.15-5.51,8.7-5.76,10.57-.81,6,1.77,10.49,5.49,16.95.33.57,2.26,3.85,5.9,6.66,1.93,1.49,2.98,1.79,3.91,1.78,2.28,0,4.14-1.55,5.19-2.69,1.45-1.56,2.05-3.53,2.49-4.93"/>
        <path class="cls-2" d="m65.71,66.65c-1.79-2.64-3.85-6.66-4.27-11.77-.21-2.58-.38-5.06,1.07-7.61,1.55-2.74,4.64-4.96,8.22-5.05.8-.02,4.48-.12,6.72,2.69,2.48,3.12,1.99,8.36-1.07,11.13-2.68,2.42-6.2,1.94-6.78,1.85"/>
        <path class="cls-2" d="m79.04,49.89c-1.79,4.54-4.84,4.39-6.01,4.61-1.9.35-2.75-.09-4.54.58-.94.35-2.53.93-3.26,2.49-.79,1.69-.17,3.67.77,4.86,1.19,1.51,2.94,1.85,3.33,1.92,1.5.29,2.43-.24,3.63.15.77.25,1.36,1.2,2.44,2.28,1.03,1.03,1.6,1.18,2.24,1.22.13,0,1.29.06,1.85-.7.63-.84.15-2.14-.13-2.88-.4-1.08-.81-1.23-.96-2.05-.17-.92.16-1.76.45-2.3"/>
      </g>
      <g>
        <path class="cls-3" d="m62.78,77.15c-4.58-.91-7.58-5.4-6.67-9.99"/>
        <path class="cls-3" d="m61.84,81.29c-6.81-1.35-11.27-8.03-9.92-14.84"/>
        <path class="cls-3" d="m61.02,85.45c-9.13-1.82-15.12-10.77-13.3-19.91"/>
      </g>
    </g>
    <g>
      <path class="cls-2" d="m142.82,55.2c-.14-.05-3.51-1.39-10.59-2.12-2.68-.28-5.89-.47-9.66-.47s-7.14.2-9.83.49c-6.86.73-10.04,2.05-10.17,2.1.21-.21,6.37-6.53,8.68-8.48,2.36-1.99,5.13-2.93,6.76-2.93s3.35,1.31,4.68,1.31,3.12-1.31,4.63-1.31,2.93.58,5.28,1.67c2.32,1.08,9.97,9.48,10.21,9.74Z"/>
      <path class="cls-2" d="m112.88,56.6c.27,2.85.89,5.73,1.78,8.32-7.89-3.06-12.09-9.72-12.09-9.72,0,0,4.05.86,10.31,1.4Z"/>
      <path class="cls-2" d="m142.83,55.2s-4.38,6.93-12.58,9.9c.92-2.61,1.57-5.56,1.84-8.46,6.5-.54,10.74-1.43,10.74-1.43Z"/>
      <path class="cls-4" d="m132.24,53.55c0,1.01-.05,2.05-.15,3.08-.27,2.91-.92,5.85-1.84,8.46-1.78,5.06-4.59,7.19-7.76,7.19s-6.05-2.21-7.83-7.36h0c-.89-2.59-1.51-5.47-1.78-8.32-.1-1.03-.15-2.05-.15-3.05,0-.16,0-.31,0-.45,2.7-.29,5.96-.49,9.83-.49s6.98.19,9.66.47c0,.16,0,.31,0,.47Z"/>
      <line class="cls-2" x1="122.57" y1="52.61" x2="122.57" y2="63.71"/>
      <g>
        <line class="cls-3" x1="137.03" y1="68.24" x2="137.03" y2="70.33"/>
        <line class="cls-3" x1="137.03" y1="73.76" x2="137.03" y2="75.85"/>
        <line class="cls-3" x1="134.16" y1="72.05" x2="135.59" y2="72.05"/>
        <line class="cls-3" x1="138.46" y1="72.05" x2="139.9" y2="72.05"/>
      </g>
      <g>
        <line class="cls-3" x1="129.37" y1="73.55" x2="129.37" y2="74.59"/>
        <line class="cls-3" x1="129.37" y1="76.31" x2="129.37" y2="77.35"/>
        <line class="cls-3" x1="127.93" y1="75.45" x2="128.65" y2="75.45"/>
        <line class="cls-3" x1="130.09" y1="75.45" x2="130.8" y2="75.45"/>
      </g>
      <g>
        <line class="cls-3" x1="105.95" y1="65.1" x2="105.95" y2="66.77"/>
        <line class="cls-3" x1="105.95" y1="69.51" x2="105.95" y2="71.18"/>
        <line class="cls-3" x1="103.66" y1="68.14" x2="104.81" y2="68.14"/>
        <line class="cls-3" x1="107.1" y1="68.14" x2="108.25" y2="68.14"/>
      </g>
    </g>
    <g>
      <path class="cls-2" d="m181.11,55.99c0,2-.39,3.91-1.08,5.67-.41,1.03-.93,2-1.54,2.91-.58.87-1.25,1.66-1.98,2.39l-19.53-11.07s8.51-1.33,16.49-6.25c1.63-1.01,3.11-2.05,4.42-3.07.49.63.94,1.31,1.33,2.01.53.96.96,1.99,1.28,3.07.41,1.38.62,2.83.62,4.34Z"/>
      <path class="cls-1" d="m181.11,55.99c0,2-.39,3.91-1.08,5.67-.41,1.03-.93,2-1.54,2.91-2.56-1.47-4.29-4.42-4.29-7.81,0-3.7,2.08-6.87,5.02-8.18.53.96.96,1.99,1.28,3.07.41,1.38.62,2.83.62,4.34Z"/>
      <path class="cls-2" d="m184.28,71.36l-7.77-4.4-19.53-11.07s8.51-1.33,16.49-6.25c1.63-1.01,3.11-2.05,4.42-3.07,5.43-4.22,4.61-8.08,4.61-8.08"/>
      <path class="cls-6" d="m180.71,56.2c0,1.38-.27,2.7-.75,3.91-1.14-.61-1.92-1.89-1.92-3.38,0-1.62.93-2.99,2.24-3.52.28.95.43,1.95.43,2.99Z"/>
      <line class="cls-3" x1="188.44" y1="51.28" x2="200.69" y2="44.28"/>
      <line class="cls-3" x1="200.69" y1="69.14" x2="188.44" y2="62.14"/>
      <line class="cls-3" x1="188.44" y1="56.65" x2="200.69" y2="56.65"/>
      <path class="cls-2" d="m173.04,49.77c.8-.72,2.5-2.01,3.42-4.13,1.01-2.31,1.24-4.46,1.19-5.55"/>
      <path class="cls-2" d="m168.1,52.38c.71-.58,1.88-1.71,2.75-3.48.95-1.94,1.07-3.7,1.07-4.64"/>
    </g>
    <g>
      <path class="cls-4" d="m237.41,44.66c-.55-.32-1.22-.41-1.86-.2-.59.2-1.05.63-1.32,1.14-.26.52-.32,1.14-.12,1.74l1.04,3.1c-.4-1.19-1.69-1.83-2.88-1.44-.59.2-1.05.62-1.31,1.14-.26.52-.32,1.14-.13,1.74l3.04,9.1c-.32.24-.65.46-.99.68-.66-.37-1.62-.6-2.65.22-.51.42-.81.85-.97,1.27-.95.23-1.95.36-2.98.36-7.03,0-12.72-5.7-12.72-12.72s5.69-12.72,12.72-12.72c4.79,0,8.97,2.66,11.14,6.58Z"/>
      <g>
        <path class="cls-2" d="m256.53,84.68l-12.75,4.26-2.51-7.48s-2.4-.45-4.63-2.37c-2.23-1.92-4.24-6.92-4.24-6.92l-3.11-7.05s-.46-.91-.05-1.96c.16-.42.46-.85.97-1.27,1.03-.82,2-.59,2.65-.22.51.28.83.65.83.65l1.24,1.9-1.08-3.22-3.04-9.1c-.2-.59-.13-1.22.13-1.74.26-.52.72-.95,1.31-1.14,1.19-.4,2.49.25,2.88,1.44l-1.04-3.1c-.2-.59-.14-1.21.12-1.74.26-.52.72-.94,1.32-1.14.64-.22,1.31-.12,1.86.2.46.26.84.7,1.02,1.24l1.04,3.1c-.2-.59-.14-1.21.12-1.74.26-.52.72-.94,1.31-1.14,1.19-.4,2.49.25,2.88,1.44l1.83,5.47c-.2-.59-.14-1.21.12-1.74.26-.52.72-.94,1.32-1.14,1.18-.4,2.48.25,2.88,1.44l5.16,15.42s1.16,2.86.48,5.34c-.67,2.48-1.78,4.18-1.78,4.18l2.73,8.16Z"/>
        <polyline class="cls-2" points="234.95 64.21 236.78 68.93 237.65 71.15"/>
        <line class="cls-2" x1="245.61" y1="53.02" x2="248.36" y2="61.22"/>
        <line class="cls-2" x1="239.47" y1="49" x2="244.04" y2="62.67"/>
        <line class="cls-2" x1="239.72" y1="64.11" x2="235.15" y2="50.45"/>
      </g>
    </g>
  </g>
  <rect class="cls-5" x="-2823.15" y="-749.68" width="6467.34" height="6437.3"/>
</svg>