<?xml version="1.0" encoding="UTF-8"?>
<svg id="Calque_1" data-name="Calque 1" xmlns="http://www.w3.org/2000/svg" viewBox="0 0 128 128">
  <defs>
    <style>
      .cls-1 {
        fill: #e2cb6a;
      }

      .cls-1, .cls-2, .cls-3, .cls-4 {
        stroke: #000;
      }

      .cls-1, .cls-2, .cls-3, .cls-4, .cls-5 {
        stroke-linecap: round;
        stroke-linejoin: round;
      }

      .cls-2, .cls-5 {
        fill: none;
      }

      .cls-3 {
        fill: #f4e08e;
      }

      .cls-3, .cls-4 {
        stroke-width: 2px;
      }

      .cls-4 {
        fill: #f4d345;
      }

      .cls-5 {
        stroke: #fff;
        stroke-width: 8px;
      }
    </style>
  </defs>
  <path class="cls-4" d="m73.82,59.83c1.81-4.95,1.65-6.66,1.54-7.42-.33-2.23-1.34-3.57-.7-5.74.43-1.46,1.22-1.99.96-3.32-.2-1.02-.87-1.92-1.82-2.36-.85-.4-1.33-.14-2.09-.2-1.99-.15-3.33-2.32-4.06-3.36,0,0-.29-1.1-7-6.16-3.18-2.4-17.89-1.75-19.99-.87-11.35,4.77-19.77,12.26-21.57,17.01-2.35,6.19-2.88,15.69-2.24,19.07.32,1.68.36,1.93,1.42,4.44,0,1.73-.44,1.8-.53,2.88-.15,1.81,1.22,3.21,1.35,3.35.69.69,2.41-.45,3.38.28,1.26.95,1.84,2.05,2.12,2.51,1.4,2.24,4.88,3.61,7.14,4.51,7.21,2.85,17.99-.96,19.92-1.36,3.41-.72,9.53-4.11,13.93-8.04,3.94-3.51,5.38-7.44,8.22-15.2Z"/>
  <path class="cls-3" d="m113.43,83.16c-.07,1.74-.3,6.78-3.51,10.53-.35.42-.75.81-1.19,1.2-6.78,5.93-18.06,1.71-21.91.27-2.99-1.12-12.05-4.68-17.21-14.36-.37-.68-7.08-13.65-2.25-21.92.34-.58.74-1.15,1.2-1.68,3.33-3.83,8.65-4.63,9.92-4.83,4.27-.65,7.57.43,10.56,1.44,9.88,3.34,15.64,10.15,16.82,11.61,3.19,3.89,7.93,9.69,7.57,17.74Z"/>
  <path class="cls-4" d="m109.92,93.69c-1.22,1.97-3.11,4.05-4.97,5.51-2.8,2.19-5.52,2.94-8.09,3.65-1.26.34-6.67,1.76-13.96.78-3.34-.45-6.44-.87-9.91-2.74-7.38-4-10.2-11.28-10.95-13.3-3.27-8.82-.7-16.45.14-18.78,1.21-3.42,3.3-7.45,5.18-9.93-4.83,8.28,1.87,21.25,2.25,21.92,5.15,9.67,14.22,13.23,17.21,14.36,3.85,1.44,15.14,5.66,21.91-.27.44-.39.83-.78,1.19-1.2Z"/>
  <path class="cls-2" d="m36.97,76.8s.5,1.12,1.56,1.12,1.75-.27,1.75-.27"/>
  <path class="cls-2" d="m44.86,76.1s.88.86,1.86.46c.98-.39,1.53-.9,1.53-.9"/>
  <path class="cls-2" d="m52.98,73.39s1.06.61,1.92,0,1.26-1.25,1.26-1.25"/>
  <path class="cls-2" d="m63.59,78.97s-.84.89-.44,1.87c.41.98.93,1.51.93,1.51"/>
  <path class="cls-2" d="m69.97,93.78s.04,1.22,1.03,1.62c.98.39,1.73.4,1.73.4"/>
  <path class="cls-2" d="m56.96,67.5s1.12.49,1.9-.22,1.11-1.38,1.11-1.38"/>
  <path class="cls-2" d="m55.48,77.27s1,.6,1.54.11.7-1.01.7-1.01"/>
  <path class="cls-2" d="m65.17,86.26s-.49,1.06.04,1.54,1.07.59,1.07.59"/>
  <path class="cls-2" d="m66.11,89.97s-.49,1.06.04,1.54,1.07.59,1.07.59"/>
  <path class="cls-2" d="m41.35,72.46s.35,1.12,1.07,1.11,1.19-.29,1.19-.29"/>
  <path class="cls-2" d="m29.9,76.81s.35,1.12,1.07,1.11c.72,0,1.19-.29,1.19-.29"/>
  <path class="cls-2" d="m45.7,80.14s.72.92,1.39.66,1.01-.69,1.01-.69"/>
  <g>
    <path class="cls-1" d="m90.85,71.82l6.57-10.17s-.35-1.91-4.66-3.81c-4.31-1.91-8.4-2.89-8.4-2.89l6.49,16.87Z"/>
    <path class="cls-1" d="m92.12,73.65l16.24,1.42s-.92-4.38-3.39-7.07c-2.47-2.68-6.07-5.15-6.07-5.15l-6.78,10.8Z"/>
    <path class="cls-1" d="m92.34,75.07l16.52,13.32s3.18-1.3,2.12-6.04c-1.06-4.74-1.98-5.98-1.98-5.98l-16.66-1.3Z"/>
    <path class="cls-1" d="m91.49,76.38l4.59,17.83s3.53,2.19,7.27,0,5.01-4.23,5.01-4.23l-16.87-13.59Z"/>
    <path class="cls-1" d="m89.53,75.63l-12.73,9.11s4.02,5.52,9.22,7.73c5.47,2.32,8.01,1.73,8.01,1.73l-4.5-18.57Z"/>
    <path class="cls-1" d="m88.73,74.01l-19.34-2.82s-1.27,3.6,1.48,7.34c2.75,3.74,4.8,5.08,4.8,5.08l13.06-9.6Z"/>
    <path class="cls-1" d="m88.52,72.12l-17.17-13.79s-2.25,1.45-2.82,4.01c-1.17,5.25.15,6.62.15,6.62l19.84,3.16Z"/>
    <path class="cls-1" d="m82.8,54.95l6.99,16.87-17.44-14.27s.78-2.6,5.01-2.95c4.24-.35,5.44.35,5.44.35Z"/>
  </g>
  <rect class="cls-5" x="-700.5" y="-1635.28" width="3385.57" height="2571.67"/>
</svg>