<?xml version="1.0" encoding="UTF-8"?>
<svg id="Calque_1" data-name="Calque 1" xmlns="http://www.w3.org/2000/svg" viewBox="0 0 128 128">
  <defs>
    <style>
      .cls-1, .cls-2, .cls-3, .cls-4, .cls-5, .cls-6 {
        stroke-linecap: round;
        stroke-linejoin: round;
      }

      .cls-1, .cls-3, .cls-4, .cls-5 {
        stroke: #000;
      }

      .cls-1, .cls-4 {
        fill: #76ac75;
      }

      .cls-2 {
        fill: #fee4cb;
        stroke: #fce9b9;
      }

      .cls-3, .cls-6 {
        fill: none;
      }

      .cls-4, .cls-5 {
        stroke-width: 2px;
      }

      .cls-5 {
        fill: #ffa75f;
      }

      .cls-6 {
        stroke: #fff;
        stroke-width: 8px;
      }
    </style>
  </defs>
  <g>
    <path class="cls-5" d="m23.55,60.66c-1.47.52-1.97,1.45-4.04,3.87-2.11,2.48-2.87,3-3.59,3.9-3.13,3.87-3.6,12.19-.01,18.67,3.92,7.09,11.11,9.09,12.79,9.55,1.4.39,10.89,2.85,19.2-3.46.69-.53,9.2-7.22,8.45-18.1-.09-1.27-.77-9.29-7.66-14.55-4.6-3.51-10.3-4.52-13.13-3.95-.98.2-2.09.68-4.19.82-1.57.1-2.4-.08-3.38.54-.86.55-.8,1.06-1.77,1.75-1,.71-1.68.61-2.67.96Z"/>
    <path class="cls-1" d="m27.7,61.79c-.37-.11-1.02-.26-1.52-.14-.21-.5-.4-.98-.56-1.33-.46-1.02-1.47-1.86-2.11-2.4s-2.87-3.97-2.87-3.97l.86-.95s.64.44,1.15.9,1.82,1.67,2.63,2.91c.56.85,1.74,3.44,2.43,4.98Z"/>
    <circle cx="30.35" cy="66.85" r=".45"/>
    <circle cx="27.6" cy="92.25" r=".45"/>
    <circle cx="23.66" cy="87.24" r=".45"/>
    <circle cx="21.83" cy="89.71" r=".45"/>
    <circle cx="18.33" cy="85.09" r=".45"/>
    <circle cx="35.41" cy="63.12" r=".45"/>
    <circle cx="39.32" cy="60.28" r=".45"/>
    <circle cx="42.15" cy="61.02" r=".45"/>
    <circle cx="40.08" cy="64.1" r=".45"/>
    <circle cx="35.7" cy="67.09" r=".45"/>
    <circle cx="42.3" cy="69.26" r=".45"/>
    <circle cx="45.77" cy="67.05" r=".45"/>
    <circle cx="44.02" cy="63.78" r=".45"/>
    <circle cx="48.18" cy="63.48" r=".45"/>
    <circle cx="50.5" cy="67.79" r=".45"/>
    <circle cx="48.27" cy="71.45" r=".45"/>
    <circle cx="51.91" cy="72.64" r=".45"/>
    <circle cx="52.23" cy="77.69" r=".45"/>
    <circle cx="50.04" cy="80.7" r=".45"/>
    <path class="cls-3" d="m31.23,60.24s-1.91-.3-2.53.04-.95,1.71-.95,1.71c0,0-.1-.04-.26-.08-.29-.09-.8-.2-1.19-.11-.07.02-.14.05-.2.08-.17.09-.33.31-.49.6-.39.7-.71,1.73-.71,1.73"/>
    <path class="cls-3" d="m23.07,63.31s.57-.94,1.17-1.1c.27-.07.84.09,1.36.27"/>
  </g>
  <g>
    <path class="cls-5" d="m67.18,52.63c-1.68-.26-2.63.37-5.86,1.63-3.29,1.28-4.29,1.4-5.44,1.88-4.98,2.09-9.71,9.81-9.61,17.85.11,8.8,5.96,14.41,7.33,15.72,1.14,1.09,8.95,8.33,20.14,6.56.94-.15,12.52-2.18,17.4-12.97.57-1.26,4.04-9.29.15-17.85-2.59-5.72-7.53-9.63-10.53-10.53-1.03-.31-2.35-.42-4.43-1.37-1.55-.71-2.25-1.32-3.51-1.22-1.1.08-1.31.6-2.59.76-1.33.17-1.92-.28-3.05-.46Z"/>
    <path class="cls-4" d="m68.68,49.46c.48-2.08-3.66-4.8-6.31-6.02-1.59-.73-5.7-2.62-10.19-1.55-.79.19-4.33,1.11-6.8,1.46-1.04.14-1.74.16-2.52,0-1.11-.23-1.61-.67-1.84-.49-.43.36.57,2.55,1.65,4.08,4.63,6.53,14.81,6.51,15.24,6.51,3.5-.05,5.81-1,7.57-1.75,1.88-.8,2.99-1.28,3.2-2.23Z"/>
    <path class="cls-1" d="m70.57,55.85c-.3-.3-.85-.77-1.38-.92.06-.58.12-1.14.14-1.56.08-1.22-.45-2.54-.79-3.39s-.7-5.27-.7-5.27l1.31-.46s.38.75.63,1.45.88,2.54,1.03,4.14c.1,1.1-.11,4.18-.24,6.01Z"/>
    <circle cx="70.5" cy="62.05" r=".49"/>
    <circle cx="54.81" cy="84.93" r=".49"/>
    <circle cx="53.62" cy="78.12" r=".49"/>
    <circle cx="50.6" cy="79.53" r=".49"/>
    <circle cx="49.62" cy="73.31" r=".49"/>
    <circle cx="77.26" cy="61.08" r=".49"/>
    <circle cx="82.47" cy="60.38" r=".49"/>
    <circle cx="84.79" cy="62.54" r=".49"/>
    <circle cx="81.23" cy="64.42" r=".49"/>
    <circle cx="75.5" cy="65.03" r=".49"/>
    <circle cx="80.69" cy="70.49" r=".49"/>
    <circle cx="85.16" cy="70.17" r=".49"/>
    <circle cx="85.16" cy="66.14" r=".49"/>
    <circle cx="89.29" cy="68" r=".49"/>
    <circle cx="89.29" cy="73.31" r=".49"/>
    <circle cx="85.28" cy="75.66" r=".49"/>
    <circle cx="88.15" cy="78.68" r=".49"/>
    <circle cx="85.87" cy="83.67" r=".49"/>
    <circle cx="82.21" cy="85.42" r=".49"/>
    <path class="cls-3" d="m74.74,56.18s-1.67-1.27-2.44-1.27-1.79,1.15-1.79,1.15c0,0-.07-.09-.21-.21-.23-.23-.66-.61-1.08-.72-.07-.02-.16-.03-.23-.03-.21,0-.48.13-.77.33-.73.47-1.57,1.3-1.57,1.3"/>
    <path class="cls-3" d="m65.36,54.91s1.03-.61,1.69-.45c.3.07.76.51,1.17.96"/>
    <path class="cls-3" d="m67.76,49.07s-6.35-2.27-10.03-2.3-6.35-.3-8.51-.84l-2.17-.54"/>
    <line class="cls-3" x1="51.01" y1="42.73" x2="53.54" y2="45.76"/>
    <line class="cls-3" x1="57.79" y1="42.73" x2="61.53" y2="47.28"/>
    <line class="cls-3" x1="55.78" y1="51.08" x2="60.5" y2="47.23"/>
    <line class="cls-3" x1="50.28" y1="50.23" x2="53.15" y2="46.94"/>
  </g>
  <g>
    <path class="cls-5" d="m107.98,85.06c-3.72-1.33-6.29-1.21-9.33-1.62-1.96-.26-5.39-.95-9.3-2.63-4.18-1.8-6.09-3.05-6.92-3.58,0,0-.95-.6-2.37-1.06-1.02-.33-1.66-.53-2.2-.28-.26.12-1.06.6-1.16,3.16-.2,5.42,2.73,9.72,2.73,9.72,4.13,6.07,10.87,7.52,12.48,7.85,1.37.27,7.06,1.42,11.26-1.04,1.3-.76,1.44-1.27,4.51-3.33.75-.51,1.64-1.08,2.37-2.21.35-.55,1.09-1.69.79-2.79-.32-1.2-1.73-1.79-2.85-2.19Z"/>
    <path class="cls-3" d="m77.85,75.89s4.39,2.9,5.5,3.38c1.1.48,5.27,3.39,6.26,3.93.32.17,1.11.48,2.08.8"/>
    <path class="cls-3" d="m95.29,85.1c.94.27,1.74.47,2.14.53,1.31.19,3.77.38,4.89.22s7.9.41,7.9.41"/>
    <path class="cls-3" d="m91.69,84c.07.26.15.65.08.76-.12.17,0,.53.25.51.24-.01.48.22.7.4.22.16.85.42,1.09.18.22-.25.43-.14.82-.26.3-.08.57-.36.68-.48"/>
    <line class="cls-3" x1="91.76" y1="84.33" x2="85.13" y2="88.39"/>
    <line class="cls-3" x1="91.26" y1="92" x2="93.48" y2="85.93"/>
    <polyline class="cls-3" points="98.08 90.44 95.11 85.29 95.12 85.28"/>
  </g>
  <g>
    <path class="cls-5" d="m112.21,86.04c-3.81,1.04-5.86,2.6-8.59,4-1.75.9-4.97,2.3-9.14,3.15-4.46.91-6.75.98-7.73,1.01,0,0-1.12.04-2.55.48-1.03.31-1.67.52-1.97,1.03-.15.24-.53,1.1.86,3.25,2.93,4.56,7.79,6.42,7.79,6.42,6.86,2.62,13.22-.03,14.73-.68,1.28-.56,6.6-2.87,8.65-7.28.63-1.36.46-1.86,1.8-5.31.33-.85.73-1.83.68-3.17-.02-.65-.07-2.01-.94-2.74-.95-.8-2.44-.49-3.6-.17Z"/>
    <path class="cls-3" d="m82.24,95.72s5.26-.12,6.44-.36c1.18-.23,6.26-.22,7.38-.34.36-.04,1.18-.24,2.16-.54"/>
    <path class="cls-3" d="m101.82,93.33c.93-.31,1.7-.61,2.06-.79,1.18-.6,3.31-1.84,4.14-2.61s6.72-4.18,6.72-4.18"/>
    <path class="cls-3" d="m98.23,94.48c.2.17.5.44.5.58,0,.2.3.43.5.27.19-.15.52-.09.8-.07.27.01.94-.14.99-.48.04-.33.27-.36.53-.68.2-.24.26-.63.28-.78"/>
    <line class="cls-3" x1="98.48" y1="94.71" x2="95.35" y2="101.83"/>
    <line class="cls-3" x1="102.44" y1="101.29" x2="100.81" y2="95.04"/>
    <polyline class="cls-3" points="107.16 96.12 101.78 93.58 101.78 93.57"/>
    <path class="cls-2" d="m94.49,96.81s-2.13.84-2.34,1.4-.25,1.17.39,1.4,1.09.04,1.37-.31.59-2.5.59-2.5Z"/>
  </g>
  <rect class="cls-6" x="-549.74" y="-1403.97" width="3385.57" height="2571.67"/>
</svg>