<?xml version="1.0" encoding="UTF-8"?>
<svg id="Calque_1" data-name="Calque 1" xmlns="http://www.w3.org/2000/svg" viewBox="0 0 128 128">
  <defs>
    <style>
      .cls-1, .cls-2, .cls-3, .cls-4 {
        fill: none;
      }

      .cls-5, .cls-2, .cls-3, .cls-6 {
        stroke: #000;
      }

      .cls-5, .cls-2, .cls-3, .cls-4 {
        stroke-linecap: round;
        stroke-linejoin: round;
      }

      .cls-5, .cls-7 {
        fill: #fff;
      }

      .cls-8 {
        fill: #ff6d75;
      }

      .cls-3 {
        stroke-width: 2px;
      }

      .cls-6 {
        stroke-miterlimit: 10;
        stroke-width: .25px;
      }

      .cls-4 {
        stroke: #fff;
        stroke-width: 8px;
      }
    </style>
  </defs>
  <g>
    <path class="cls-8" d="m96.13,60.81s-2.39-20.8-9.37-24.76c-6.98-3.96-9.9-3.08-9.9-3.08l-4.09-2.28-3.6.96-5.16-.85-5.16,2.63-5.12-1.26-9.77,2.62-6.23,5.19-6.24,20.91.04.13s-.01-.01-.04-.01c.17,3.64.81,13.19,3.13,22.92,1.91,8.08,4.97,16.28,9.84,21.32,12.36,12.78,19.7,11.16,19.7,11.16,1.25.11,7.91.1,18.99-11.38,10.76-11.12,12.67-37.59,12.98-44.24-.03,0-.03-.03,0-.1h0"/>
    <path class="cls-7" d="m74.48,70.04s1.52-.17,4.4.1c5.18.49,7.7-2.72,7.7-2.72l-.09-.93s-6.81-5.6-13.91,2.83l1.9.72Z"/>
    <path class="cls-7" d="m52.95,70.51s-1.52-.17-4.4.1c-5.18.49-7.7-2.72-7.7-2.72l.09-.93s6.81-5.6,13.91,2.83l-1.9.72Z"/>
    <path class="cls-1" d="m93.19,83.27s4.11-1,6-7.57c1.9-6.57,4.69-6.04,4.4-12.68-.28-6.33-6.67-2.99-7.26-2.67-.17,3.62-.81,13.19-3.13,22.92Z"/>
    <path class="cls-1" d="m34.81,83.49s-4.11-1-6-7.57c-1.9-6.57-4.69-6.04-4.4-12.68.28-6.33,6.67-2.99,7.26-2.67.17,3.62.81,13.19,3.13,22.92Z"/>
    <path class="cls-3" d="m62.71,29.67s6.02,7.62,14.14-5.14"/>
    <path class="cls-8" d="m31.49,60.91c-.04-.93-.06-1.43-.06-1.43"/>
    <path class="cls-2" d="m43.95,61.23s3.12-1.21,9.46,4.15"/>
    <path class="cls-2" d="m52.95,70.4s-1.52-.17-4.4.1c-5.18.49-7.7-2.72-7.7-2.72l.09-.93s6.81-5.6,13.91,2.83"/>
    <path class="cls-2" d="m58.52,79.97s-4.5,4.58,0,7.94"/>
    <path class="cls-2" d="m58.84,85.51s1.87,1.62,3.33,2.23"/>
    <path class="cls-3" d="m46.45,21.47s4.32,11.62,11.28,11.37,7.86-12.71,7.86-12.71"/>
    <path class="cls-3" d="m35.78,30.69s8.55,6.18,17.63.76"/>
    <path class="cls-3" d="m33.19,36.87s8.81.07,12.47-3.19"/>
    <path class="cls-3" d="m31.72,60.58s-.01-.01-.04-.01"/>
    <path class="cls-2" d="m62.6,20.55s-1.07,4.58-3.16,7.8"/>
    <circle class="cls-2" cx="47.3" cy="68.08" r="2.35"/>
    <circle class="cls-6" cx="48.02" cy="68.05" r="1.16"/>
    <path class="cls-2" d="m69.47,79.76s4.5,4.58,0,7.94"/>
    <path class="cls-3" d="m92.22,30.48s-14.38,7.06-19.86-.62"/>
    <path class="cls-3" d="m94.81,36.66s-8.91.31-12.58-2.95"/>
    <path class="cls-3" d="m88.24,37.18s8.66,14.98,8.04,23.19c0,0,12.59-32.51-14.57-41.21,0,0-1.47-5.49-8.56-4.08-9.34-8.15-18.29.21-18.29.21-7.09-1.41-8.56,4.08-8.56,4.08-27.17,8.7-14.57,41.21-14.57,41.21-.62-8.2,8.04-24.38,8.04-24.38"/>
    <path class="cls-3" d="m34.81,83.49s-4.11-1-6-7.57c-1.9-6.57-4.69-6.04-4.4-12.68.28-6.33,6.67-2.99,7.26-2.67.17,3.62.81,13.19,3.13,22.92Z"/>
    <path class="cls-3" d="m31.67,60.57c-.04-1-.06-1.54-.06-1.54"/>
    <path class="cls-3" d="m34.81,83.49c1.91,8.08,4.97,16.28,9.84,21.32,12.36,12.78,19.7,11.16,19.7,11.16l-.21-.03s6.85,1.43,19.2-11.35c10.76-11.12,12.67-37.57,12.98-44.24.04-1,.06-1.54.06-1.54"/>
    <path class="cls-3" d="m96.28,60.37s7-3.99,7.3,2.66c.3,6.64-2.5,6.11-4.39,12.68-1.89,6.57-6,7.56-6,7.56"/>
    <path class="cls-5" d="m73.45,100.67h-19.73s9.86-8.22,19.73,0Z"/>
    <path class="cls-2" d="m71.19,95.94s-7.47-4.44-15.49.14"/>
    <path class="cls-2" d="m69.16,85.51s-1.87,1.62-3.33,2.23"/>
    <path class="cls-3" d="m39.43,57.74s10.49-4.69,16.59,5.51"/>
    <path class="cls-2" d="m83.65,60.87s-3.12-1.21-9.46,4.15"/>
    <path class="cls-2" d="m74.66,70.04s1.52-.17,4.4.1c5.18.49,7.7-2.72,7.7-2.72l-.09-.93s-6.81-5.6-13.91,2.83"/>
    <circle class="cls-2" cx="80.31" cy="67.72" r="2.35"/>
    <circle class="cls-6" cx="79.58" cy="67.69" r="1.16"/>
    <path class="cls-3" d="m88.18,57.38s-10.49-4.69-16.59,5.51"/>
    <line class="cls-2" x1="63.67" y1="58.73" x2="63.67" y2="63.83"/>
    <g>
      <line class="cls-2" x1="59.76" y1="61.39" x2="61.88" y2="66.03"/>
      <line class="cls-2" x1="67.57" y1="61.39" x2="65.46" y2="66.03"/>
    </g>
  </g>
  <rect class="cls-4" x="-123.53" y="-164.15" width="1496.63" height="629.76"/>
</svg>