<?xml version="1.0" encoding="UTF-8"?><svg id="Calque_1" xmlns="http://www.w3.org/2000/svg" viewBox="0 0 200 128"><defs><style>.cls-1{stroke:#e30613;stroke-width:8px;}.cls-1,.cls-2,.cls-3,.cls-4{stroke-linecap:round;stroke-linejoin:round;}.cls-1,.cls-3{fill:none;}.cls-2{stroke-width:.5px;}.cls-2,.cls-5,.cls-4{fill:#87f3b9;}.cls-2,.cls-3,.cls-4{stroke:#000;}.cls-4{stroke-width:.75px;}</style></defs><rect class="cls-1" x="-1852.21" y="-68.32" width="2655.08" height="1511.77"/><line class="cls-3" x1="45.89" y1="3.35" x2="45.89" y2="121.71"/><line class="cls-3" x1="75.73" y1="3.35" x2="75.73" y2="121.71"/><line class="cls-3" x1="105.57" y1="3.35" x2="105.57" y2="121.71"/><line class="cls-3" x1="135.41" y1="3.35" x2="135.41" y2="121.71"/><line class="cls-3" x1="165.25" y1="3.35" x2="165.25" y2="121.71"/><line class="cls-3" x1="195.09" y1="3.35" x2="195.09" y2="121.71"/><line class="cls-3" x1="16.05" y1="3.35" x2="16.05" y2="121.71"/><line class="cls-3" x1="1.1" y1="114.94" x2="200.5" y2="114.94"/><path d="m28.94,120.05v-.75c.7-.07,1.2-.18,1.47-.34s.49-.54.62-1.14h.77v7.73h-1.04v-5.49h-1.83Z"/><path d="m58.83,123.83c.24-.49.71-.94,1.41-1.35l1.04-.6c.47-.27.79-.5.98-.69.3-.3.44-.64.44-1.03,0-.45-.14-.81-.41-1.08s-.63-.4-1.08-.4c-.67,0-1.13.25-1.39.76-.14.27-.21.65-.23,1.13h-.99c.01-.68.14-1.23.37-1.65.42-.75,1.17-1.13,2.24-1.13.89,0,1.54.24,1.95.72s.61,1.01.61,1.6c0,.62-.22,1.15-.66,1.59-.25.26-.71.57-1.36.93l-.74.41c-.35.2-.63.38-.83.56-.36.31-.59.66-.68,1.05h4.24v.92h-5.33c.04-.67.17-1.25.41-1.74Z"/><path d="m89.11,124.92c-.41-.5-.62-1.12-.62-1.84h1.02c.04.5.14.87.28,1.09.25.41.71.61,1.37.61.51,0,.92-.14,1.24-.41s.47-.63.47-1.06c0-.53-.16-.91-.49-1.12s-.78-.32-1.36-.32c-.07,0-.13,0-.2,0s-.13,0-.2,0v-.86c.1.01.19.02.25.02s.14,0,.22,0c.36,0,.66-.06.9-.17.41-.2.62-.56.62-1.08,0-.39-.14-.68-.41-.89s-.59-.31-.96-.31c-.65,0-1.1.22-1.35.65-.14.24-.21.58-.23,1.02h-.96c0-.58.12-1.07.35-1.47.4-.72,1.1-1.08,2.1-1.08.79,0,1.4.18,1.84.53s.65.86.65,1.53c0,.48-.13.86-.38,1.16-.16.18-.36.33-.62.43.41.11.73.33.96.65s.34.71.34,1.17c0,.74-.24,1.34-.73,1.81s-1.18.7-2.08.7-1.58-.25-2-.76Z"/><path d="m120.76,125.57v-1.9h-3.4v-.95l3.55-4.93h.82v5.03h1.14v.85h-1.14v1.9h-.98Zm-.02-2.75v-3.52l-2.49,3.52h2.49Z"/><path d="m148.36,123.42c.07.56.32.94.77,1.15.23.11.5.16.8.16.58,0,1.01-.18,1.28-.55s.42-.78.42-1.22c0-.54-.17-.96-.5-1.26s-.73-.44-1.19-.44c-.34,0-.62.07-.86.2s-.45.31-.61.54l-.85-.05.59-4.18h4.03v.94h-3.3l-.33,2.16c.18-.14.35-.24.51-.31.29-.12.62-.18,1-.18.71,0,1.31.23,1.81.69s.74,1.04.74,1.74-.23,1.38-.68,1.94-1.18.84-2.17.84c-.63,0-1.19-.18-1.68-.53s-.76-.9-.82-1.64h1.01Z"/><path d="m182.15,118.36c.34.45.51.91.51,1.39h-.96c-.06-.31-.15-.55-.28-.72-.23-.33-.59-.49-1.07-.49-.55,0-.98.25-1.3.76-.32.5-.5,1.23-.54,2.16.22-.33.51-.57.85-.74.31-.14.66-.22,1.04-.22.65,0,1.22.21,1.7.62s.73,1.03.73,1.86c0,.7-.23,1.33-.69,1.87s-1.11.82-1.96.82c-.73,0-1.35-.28-1.88-.83s-.79-1.48-.79-2.78c0-.96.12-1.78.35-2.45.45-1.29,1.28-1.93,2.48-1.93.87,0,1.47.22,1.81.67Zm-.73,5.93c.25-.34.38-.75.38-1.22,0-.4-.11-.78-.34-1.14s-.64-.54-1.24-.54c-.42,0-.79.14-1.1.42s-.47.7-.47,1.26c0,.49.14.9.43,1.24s.69.5,1.19.5.9-.17,1.15-.52Z"/><path d="m9.96,118.91c.35.65.53,1.53.53,2.65,0,1.06-.16,1.95-.48,2.64-.46,1-1.21,1.5-2.25,1.5-.94,0-1.64-.41-2.1-1.23-.38-.68-.57-1.6-.57-2.75,0-.89.11-1.65.34-2.29.43-1.19,1.21-1.78,2.34-1.78,1.01,0,1.75.42,2.2,1.25Zm-.99,5.22c.3-.45.45-1.29.45-2.53,0-.89-.11-1.62-.33-2.2-.22-.57-.64-.86-1.28-.86-.58,0-1.01.27-1.27.82-.27.55-.4,1.35-.4,2.41,0,.8.09,1.44.26,1.93.26.74.71,1.11,1.35,1.11.51,0,.92-.23,1.22-.68Z"/><path class="cls-5" d="m30.99,78.29c-2.06,0-3.74-1.68-3.74-3.74s1.68-3.74,3.74-3.74,3.74,1.68,3.74,3.74-1.68,3.74-3.74,3.74Z"/><path d="m30.99,71.18c1.85,0,3.36,1.51,3.36,3.36s-1.51,3.36-3.36,3.36-3.36-1.51-3.36-3.36,1.51-3.36,3.36-3.36m0-.75c-2.27,0-4.11,1.84-4.11,4.11s1.84,4.11,4.11,4.11,4.11-1.84,4.11-4.11-1.84-4.11-4.11-4.11h0Z"/><path class="cls-4" d="m23.4,93.57s.15,1.09,1.13,1.06c.05,0,.09,0,.14,0,.67-.03,1.19-.6,1.17-1.28,0,0-.01-.22-.02-.59,0-.37-.01-.91.02-1.54.03-.63.1-1.37.22-2.13s.32-1.55.6-2.28c.15-.42.33-.8.54-1.16l-.11,8.19c0,.13,0,.26,0,.38l.62,15.43c.04.72.62,1.32,1.36,1.36.79.04,1.45-.57,1.49-1.36l.46-12.48.47,12.48c.04.72.62,1.32,1.36,1.36.78.04,1.45-.57,1.49-1.36l.6-15.48c0-.13,0-.26,0-.4l-.14-8.05c.18.34.35.7.49,1.08.27.73.47,1.52.59,2.28s.19,1.49.22,2.13.03,1.17.02,1.54c0,.37-.02.59-.02.59-.03.63.44,1.19,1.08,1.27.49.06.96-.25,1.18-.7l.18-.37s.03-.23.07-.64c.04-.41.09-.99.12-1.71.03-.71.03-1.55-.05-2.45-.08-.91-.23-1.89-.5-2.87-.28-.98-.68-1.95-1.22-2.81-.27-.43-.56-.84-.88-1.19-.31-.36-.65-.68-.98-.95-.66-.55-1.32-.9-1.82-1.1-.25-.11-.47-.18-.64-.22-1.01-.28-2.16-.24-3.12-.06-.08.02-.15.03-.23.06-.17.05-.38.12-.64.22-.5.21-1.15.56-1.82,1.1-.33.27-.67.59-.98.95-.31.36-.61.76-.88,1.19-.54.86-.94,1.84-1.21,2.81-.28.98-.43,1.96-.5,2.87-.08.91-.08,1.75-.05,2.45.03.71.08,1.3.12,1.71.05.41.08.64.08.64v.02"/><path class="cls-5" d="m61.11,78.29c-2.06,0-3.74-1.68-3.74-3.74s1.68-3.74,3.74-3.74,3.74,1.68,3.74,3.74-1.68,3.74-3.74,3.74Z"/><path d="m61.11,71.18c1.85,0,3.36,1.51,3.36,3.36s-1.51,3.36-3.36,3.36-3.36-1.51-3.36-3.36,1.51-3.36,3.36-3.36m0-.75c-2.27,0-4.11,1.84-4.11,4.11s1.84,4.11,4.11,4.11,4.11-1.84,4.11-4.11-1.84-4.11-4.11-4.11h0Z"/><path class="cls-4" d="m53.53,93.57s.15,1.09,1.13,1.06c.05,0,.09,0,.14,0,.67-.03,1.19-.6,1.17-1.28,0,0-.01-.22-.02-.59,0-.37-.01-.91.02-1.54.03-.63.1-1.37.22-2.13s.32-1.55.6-2.28c.15-.42.33-.8.54-1.16l-.11,8.19c0,.13,0,.26,0,.38l.62,15.43c.04.72.62,1.32,1.36,1.36.79.04,1.45-.57,1.49-1.36l.46-12.48.47,12.48c.04.72.62,1.32,1.36,1.36.78.04,1.45-.57,1.49-1.36l.6-15.48c0-.13,0-.26,0-.4l-.14-8.05c.18.34.35.7.49,1.08.27.73.47,1.52.59,2.28s.19,1.49.22,2.13.03,1.17.02,1.54c0,.37-.02.59-.02.59-.03.63.44,1.19,1.08,1.27.49.06.96-.25,1.18-.7l.18-.37s.03-.23.07-.64c.04-.41.09-.99.12-1.71.03-.71.03-1.55-.05-2.45-.08-.91-.23-1.89-.5-2.87-.28-.98-.68-1.95-1.22-2.81-.27-.43-.56-.84-.88-1.19-.31-.36-.65-.68-.98-.95-.66-.55-1.32-.9-1.82-1.1-.25-.11-.47-.18-.64-.22-1.01-.28-2.16-.24-3.12-.06-.08.02-.15.03-.23.06-.17.05-.38.12-.64.22-.5.21-1.15.56-1.82,1.1-.33.27-.67.59-.98.95-.31.36-.61.76-.88,1.19-.54.86-.94,1.84-1.21,2.81-.28.98-.43,1.96-.5,2.87-.08.91-.08,1.75-.05,2.45.03.71.08,1.3.12,1.71.05.41.08.64.08.64v.02"/><path class="cls-5" d="m61.11,31.62c-2.06,0-3.74-1.68-3.74-3.74s1.68-3.74,3.74-3.74,3.74,1.68,3.74,3.74-1.68,3.74-3.74,3.74Z"/><path d="m61.11,24.52c1.85,0,3.36,1.51,3.36,3.36s-1.51,3.36-3.36,3.36-3.36-1.51-3.36-3.36,1.51-3.36,3.36-3.36m0-.75c-2.27,0-4.11,1.84-4.11,4.11s1.84,4.11,4.11,4.11,4.11-1.84,4.11-4.11-1.84-4.11-4.11-4.11h0Z"/><path class="cls-4" d="m53.53,46.9s.15,1.09,1.13,1.06c.05,0,.09,0,.14,0,.67-.03,1.19-.6,1.17-1.28,0,0-.01-.22-.02-.59,0-.37-.01-.91.02-1.54.03-.63.1-1.37.22-2.13s.32-1.55.6-2.28c.15-.42.33-.8.54-1.16l-.11,8.19c0,.13,0,.26,0,.38l.62,15.43c.04.72.62,1.32,1.36,1.36.79.04,1.45-.57,1.49-1.36l.46-12.48.47,12.48c.04.72.62,1.32,1.36,1.36.78.04,1.45-.57,1.49-1.36l.6-15.48c0-.13,0-.26,0-.4l-.14-8.05c.18.34.35.7.49,1.08.27.73.47,1.52.59,2.28s.19,1.49.22,2.13.03,1.17.02,1.54c0,.37-.02.59-.02.59-.03.63.44,1.19,1.08,1.27.49.06.96-.25,1.18-.7l.18-.37s.03-.23.07-.64c.04-.41.09-.99.12-1.71.03-.71.03-1.55-.05-2.45-.08-.91-.23-1.89-.5-2.87-.28-.98-.68-1.95-1.22-2.81-.27-.43-.56-.84-.88-1.19-.31-.36-.65-.68-.98-.95-.66-.55-1.32-.9-1.82-1.1-.25-.11-.47-.18-.64-.22-1.01-.28-2.16-.24-3.12-.06-.08.02-.15.03-.23.06-.17.05-.38.12-.64.22-.5.21-1.15.56-1.82,1.1-.33.27-.67.59-.98.95-.31.36-.61.76-.88,1.19-.54.86-.94,1.84-1.21,2.81-.28.98-.43,1.96-.5,2.87-.08.91-.08,1.75-.05,2.45.03.71.08,1.3.12,1.71.05.41.08.64.08.64v.02"/><circle class="cls-5" cx="90.89" cy="82.35" r="2.86"/><path d="m90.89,79.87c1.37,0,2.48,1.11,2.48,2.48s-1.11,2.48-2.48,2.48-2.48-1.11-2.48-2.48,1.11-2.48,2.48-2.48m0-.75c-1.78,0-3.23,1.45-3.23,3.23s1.45,3.23,3.23,3.23,3.23-1.45,3.23-3.23-1.45-3.23-3.23-3.23h0Z"/><path class="cls-4" d="m84.93,97.31s.12.85.89.83c.04,0,.07,0,.11,0,.53-.02.94-.47.92-1,0,0,0-.17-.02-.47,0-.29,0-.72.02-1.21.02-.5.08-1.07.18-1.67s.25-1.22.47-1.79c.12-.33.26-.63.42-.92l-.09,6.44c0,.1,0,.2,0,.3l.49,12.13c.03.57.49,1.04,1.07,1.07.62.03,1.14-.45,1.17-1.07l.36-9.81.37,9.81c.03.57.49,1.04,1.07,1.07.62.03,1.14-.45,1.17-1.07l.48-12.16c0-.1,0-.21,0-.31l-.11-6.32c.14.27.27.55.39.85.21.57.37,1.19.47,1.79s.15,1.17.18,1.67.02.92.02,1.21c0,.29-.01.47-.01.47-.02.49.34.94.85,1,.39.04.75-.2.92-.55l.14-.29s.02-.18.06-.5c.03-.32.07-.78.09-1.34.02-.56.02-1.22-.04-1.93-.06-.72-.18-1.49-.39-2.26-.22-.77-.54-1.54-.96-2.21-.21-.34-.44-.66-.69-.94-.25-.28-.51-.53-.77-.74-.52-.43-1.03-.7-1.43-.87-.2-.08-.37-.14-.5-.18-.79-.22-1.69-.19-2.45-.04-.06.01-.12.02-.18.04-.14.04-.3.09-.5.18-.39.16-.91.44-1.43.87-.26.21-.53.46-.77.74-.25.28-.48.6-.69.94-.42.68-.74,1.44-.95,2.21-.22.77-.34,1.54-.39,2.26-.06.71-.06,1.37-.04,1.93.02.56.06,1.02.09,1.34.04.32.06.5.06.5h0"/><path class="cls-5" d="m90.89,47.58c-1.58,0-2.86-1.28-2.86-2.86s1.28-2.86,2.86-2.86,2.86,1.28,2.86,2.86-1.28,2.86-2.86,2.86Z"/><path d="m90.89,42.24c1.37,0,2.48,1.11,2.48,2.48s-1.11,2.48-2.48,2.48-2.48-1.11-2.48-2.48,1.11-2.48,2.48-2.48m0-.75c-1.78,0-3.23,1.45-3.23,3.23s1.45,3.23,3.23,3.23,3.23-1.45,3.23-3.23-1.45-3.23-3.23-3.23h0Z"/><path class="cls-4" d="m84.93,59.68s.12.85.89.83c.04,0,.07,0,.11,0,.53-.02.94-.47.92-1,0,0,0-.17-.02-.47,0-.29,0-.72.02-1.21.02-.5.08-1.07.18-1.67s.25-1.22.47-1.79c.12-.33.26-.63.42-.92l-.09,6.44c0,.1,0,.2,0,.3l.49,12.13c.03.57.49,1.04,1.07,1.07.62.03,1.14-.45,1.17-1.07l.36-9.81.37,9.81c.03.57.49,1.04,1.07,1.07.62.03,1.14-.45,1.17-1.07l.48-12.16c0-.1,0-.21,0-.31l-.11-6.32c.14.27.27.55.39.85.21.57.37,1.19.47,1.79s.15,1.17.18,1.67.02.92.02,1.21c0,.29-.01.47-.01.47-.02.49.34.94.85,1,.39.04.75-.2.92-.55l.14-.29s.02-.18.06-.5c.03-.32.07-.78.09-1.34.02-.56.02-1.22-.04-1.93-.06-.72-.18-1.49-.39-2.26-.22-.77-.54-1.54-.96-2.21-.21-.34-.44-.66-.69-.94-.25-.28-.51-.53-.77-.74-.52-.43-1.03-.7-1.43-.87-.2-.08-.37-.14-.5-.18-.79-.22-1.69-.19-2.45-.04-.06.01-.12.02-.18.04-.14.04-.3.09-.5.18-.39.16-.91.44-1.43.87-.26.21-.53.46-.77.74-.25.28-.48.6-.69.94-.42.68-.74,1.44-.95,2.21-.22.77-.34,1.54-.39,2.26-.06.71-.06,1.37-.04,1.93.02.56.06,1.02.09,1.34.04.32.06.5.06.5h0"/><path class="cls-5" d="m90.89,9.96c-1.58,0-2.86-1.28-2.86-2.86s1.28-2.86,2.86-2.86,2.86,1.28,2.86,2.86-1.28,2.86-2.86,2.86Z"/><path d="m90.89,4.62c1.37,0,2.48,1.11,2.48,2.48s-1.11,2.48-2.48,2.48-2.48-1.11-2.48-2.48,1.11-2.48,2.48-2.48m0-.75c-1.78,0-3.23,1.45-3.23,3.23s1.45,3.23,3.23,3.23,3.23-1.45,3.23-3.23-1.45-3.23-3.23-3.23h0Z"/><path class="cls-4" d="m84.93,22.05s.12.85.89.83c.04,0,.07,0,.11,0,.53-.02.94-.47.92-1,0,0,0-.17-.02-.47,0-.29,0-.72.02-1.21.02-.5.08-1.07.18-1.67s.25-1.22.47-1.79c.12-.33.26-.63.42-.92l-.09,6.44c0,.1,0,.2,0,.3l.49,12.13c.03.57.49,1.04,1.07,1.07.62.03,1.14-.45,1.17-1.07l.36-9.81.37,9.81c.03.57.49,1.04,1.07,1.07.62.03,1.14-.45,1.17-1.07l.48-12.16c0-.1,0-.21,0-.31l-.11-6.32c.14.27.27.55.39.85.21.57.37,1.19.47,1.79s.15,1.17.18,1.67.02.92.02,1.21c0,.29-.01.47-.01.47-.02.49.34.94.85,1,.39.04.75-.2.92-.55l.14-.29s.02-.18.06-.5c.03-.32.07-.78.09-1.34.02-.56.02-1.22-.04-1.93-.06-.72-.18-1.49-.39-2.26-.22-.77-.54-1.54-.96-2.21-.21-.34-.44-.66-.69-.94-.25-.28-.51-.53-.77-.74-.52-.43-1.03-.7-1.43-.87-.2-.08-.37-.14-.5-.18-.79-.22-1.69-.19-2.45-.04-.06.01-.12.02-.18.04-.14.04-.3.09-.5.18-.39.16-.91.44-1.43.87-.26.21-.53.46-.77.74-.25.28-.48.6-.69.94-.42.68-.74,1.44-.95,2.21-.22.77-.34,1.54-.39,2.26-.06.71-.06,1.37-.04,1.93.02.56.06,1.02.09,1.34.04.32.06.5.06.5h0"/><path class="cls-5" d="m119.24,91.64c-1.2,0-2.18-.98-2.18-2.18s.98-2.18,2.18-2.18,2.18.98,2.18,2.18-.98,2.18-2.18,2.18Z"/><path d="m119.24,87.53c1.06,0,1.93.87,1.93,1.93s-.87,1.93-1.93,1.93-1.93-.87-1.93-1.93.87-1.93,1.93-1.93m0-.5c-1.34,0-2.43,1.09-2.43,2.43s1.09,2.43,2.43,2.43,2.43-1.09,2.43-2.43-1.09-2.43-2.43-2.43h0Z"/><path class="cls-2" d="m114.75,100.71s.09.64.67.63c.03,0,.05,0,.08,0,.4-.02.71-.36.69-.75,0,0,0-.13-.01-.35,0-.22,0-.54.01-.91.02-.37.06-.81.13-1.26s.19-.92.35-1.35c.09-.25.2-.48.32-.69l-.07,4.84c0,.08,0,.15,0,.23l.37,9.12c.02.43.37.78.8.8.47.02.86-.34.88-.8l.27-7.38.28,7.38c.02.43.37.78.8.8.46.02.86-.34.88-.8l.36-9.15c0-.08,0-.16,0-.23l-.08-4.76c.11.2.21.41.29.64.16.43.28.9.35,1.35s.11.88.13,1.26.01.69.01.91c0,.22,0,.35,0,.35-.02.37.26.71.64.75.29.03.57-.15.7-.41l.11-.22s.02-.13.04-.38c.02-.24.05-.59.07-1.01.01-.42.01-.92-.03-1.45-.04-.54-.13-1.12-.3-1.7-.16-.58-.4-1.15-.72-1.66-.16-.25-.33-.49-.52-.71-.19-.21-.38-.4-.58-.56-.39-.32-.78-.53-1.07-.65-.15-.06-.28-.1-.38-.13-.6-.16-1.27-.14-1.84-.03-.04,0-.09.02-.14.03-.1.03-.23.07-.38.13-.3.12-.68.33-1.07.65-.2.16-.39.35-.58.56-.19.21-.36.45-.52.71-.32.51-.56,1.09-.72,1.66-.16.58-.25,1.16-.3,1.7-.04.54-.04,1.03-.03,1.45.02.42.04.77.07,1.01.03.24.04.38.04.38h0"/><path class="cls-5" d="m119.24,63.92c-1.2,0-2.18-.98-2.18-2.18s.98-2.18,2.18-2.18,2.18.98,2.18,2.18-.98,2.18-2.18,2.18Z"/><path d="m119.24,59.81c1.06,0,1.93.87,1.93,1.93s-.87,1.93-1.93,1.93-1.93-.87-1.93-1.93.87-1.93,1.93-1.93m0-.5c-1.34,0-2.43,1.09-2.43,2.43s1.09,2.43,2.43,2.43,2.43-1.09,2.43-2.43-1.09-2.43-2.43-2.43h0Z"/><path class="cls-2" d="m114.75,72.98s.09.64.67.63c.03,0,.05,0,.08,0,.4-.02.71-.36.69-.75,0,0,0-.13-.01-.35,0-.22,0-.54.01-.91.02-.37.06-.81.13-1.26s.19-.92.35-1.35c.09-.25.2-.48.32-.69l-.07,4.84c0,.08,0,.15,0,.23l.37,9.12c.02.43.37.78.8.8.47.02.86-.34.88-.8l.27-7.38.28,7.38c.02.43.37.78.8.8.46.02.86-.34.88-.8l.36-9.15c0-.08,0-.16,0-.23l-.08-4.76c.11.2.21.41.29.64.16.43.28.9.35,1.35s.11.88.13,1.26.01.69.01.91c0,.22,0,.35,0,.35-.02.37.26.71.64.75.29.03.57-.15.7-.41l.11-.22s.02-.13.04-.38c.02-.24.05-.59.07-1.01.01-.42.01-.92-.03-1.45-.04-.54-.13-1.12-.3-1.7-.16-.58-.4-1.15-.72-1.66-.16-.25-.33-.49-.52-.71-.19-.21-.38-.4-.58-.56-.39-.32-.78-.53-1.07-.65-.15-.06-.28-.1-.38-.13-.6-.16-1.27-.14-1.84-.03-.04,0-.09.02-.14.03-.1.03-.23.07-.38.13-.3.12-.68.33-1.07.65-.2.16-.39.35-.58.56-.19.21-.36.45-.52.71-.32.51-.56,1.09-.72,1.66-.16.58-.25,1.16-.3,1.7-.04.54-.04,1.03-.03,1.45.02.42.04.77.07,1.01.03.24.04.38.04.38h0"/><path class="cls-5" d="m119.24,36.2c-1.2,0-2.18-.98-2.18-2.18s.98-2.18,2.18-2.18,2.18.98,2.18,2.18-.98,2.18-2.18,2.18Z"/><path d="m119.24,32.09c1.06,0,1.93.87,1.93,1.93s-.87,1.93-1.93,1.93-1.93-.87-1.93-1.93.87-1.93,1.93-1.93m0-.5c-1.34,0-2.43,1.09-2.43,2.43s1.09,2.43,2.43,2.43,2.43-1.09,2.43-2.43-1.09-2.43-2.43-2.43h0Z"/><path class="cls-2" d="m114.75,45.26s.09.64.67.63c.03,0,.05,0,.08,0,.4-.02.71-.36.69-.75,0,0,0-.13-.01-.35,0-.22,0-.54.01-.91.02-.37.06-.81.13-1.26s.19-.92.35-1.35c.09-.25.2-.48.32-.69l-.07,4.84c0,.08,0,.15,0,.23l.37,9.12c.02.43.37.78.8.8.47.02.86-.34.88-.8l.27-7.38.28,7.38c.02.43.37.78.8.8.46.02.86-.34.88-.8l.36-9.15c0-.08,0-.16,0-.23l-.08-4.76c.11.2.21.41.29.64.16.43.28.9.35,1.35s.11.88.13,1.26.01.69.01.91c0,.22,0,.35,0,.35-.02.37.26.71.64.75.29.03.57-.15.7-.41l.11-.22s.02-.13.04-.38c.02-.24.05-.59.07-1.01.01-.42.01-.92-.03-1.45-.04-.54-.13-1.12-.3-1.7-.16-.58-.4-1.15-.72-1.66-.16-.25-.33-.49-.52-.71-.19-.21-.38-.4-.58-.56-.39-.32-.78-.53-1.07-.65-.15-.06-.28-.1-.38-.13-.6-.16-1.27-.14-1.84-.03-.04,0-.09.02-.14.03-.1.03-.23.07-.38.13-.3.12-.68.33-1.07.65-.2.16-.39.35-.58.56-.19.21-.36.45-.52.71-.32.51-.56,1.09-.72,1.66-.16.58-.25,1.16-.3,1.7-.04.54-.04,1.03-.03,1.45.02.42.04.77.07,1.01.03.24.04.38.04.38h0"/><path class="cls-5" d="m119.24,8.48c-1.2,0-2.18-.98-2.18-2.18s.98-2.18,2.18-2.18,2.18.98,2.18,2.18-.98,2.18-2.18,2.18Z"/><path d="m119.24,4.37c1.06,0,1.93.87,1.93,1.93s-.87,1.93-1.93,1.93-1.93-.87-1.93-1.93.87-1.93,1.93-1.93m0-.5c-1.34,0-2.43,1.09-2.43,2.43s1.09,2.43,2.43,2.43,2.43-1.09,2.43-2.43-1.09-2.43-2.43-2.43h0Z"/><path class="cls-2" d="m114.75,17.54s.09.64.67.63c.03,0,.05,0,.08,0,.4-.02.71-.36.69-.75,0,0,0-.13-.01-.35,0-.22,0-.54.01-.91.02-.37.06-.81.13-1.26s.19-.92.35-1.35c.09-.25.2-.48.32-.69l-.07,4.84c0,.08,0,.15,0,.23l.37,9.12c.02.43.37.78.8.8.47.02.86-.34.88-.8l.27-7.38.28,7.38c.02.43.37.78.8.8.46.02.86-.34.88-.8l.36-9.15c0-.08,0-.16,0-.23l-.08-4.76c.11.2.21.41.29.64.16.43.28.9.35,1.35s.11.88.13,1.26.01.69.01.91c0,.22,0,.35,0,.35-.02.37.26.71.64.75.29.03.57-.15.7-.41l.11-.22s.02-.13.04-.38c.02-.24.05-.59.07-1.01.01-.42.01-.92-.03-1.45-.04-.54-.13-1.12-.3-1.7-.16-.58-.4-1.15-.72-1.66-.16-.25-.33-.49-.52-.71-.19-.21-.38-.4-.58-.56-.39-.32-.78-.53-1.07-.65-.15-.06-.28-.1-.38-.13-.6-.16-1.27-.14-1.84-.03-.04,0-.09.02-.14.03-.1.03-.23.07-.38.13-.3.12-.68.33-1.07.65-.2.16-.39.35-.58.56-.19.21-.36.45-.52.71-.32.51-.56,1.09-.72,1.66-.16.58-.25,1.16-.3,1.7-.04.54-.04,1.03-.03,1.45.02.42.04.77.07,1.01.03.24.04.38.04.38h0"/><circle class="cls-5" cx="149.42" cy="93.78" r="1.69"/><path d="m149.42,92.33c.8,0,1.44.65,1.44,1.44s-.65,1.44-1.44,1.44-1.44-.65-1.44-1.44.65-1.44,1.44-1.44m0-.5c-1.07,0-1.94.87-1.94,1.94s.87,1.94,1.94,1.94,1.94-.87,1.94-1.94-.87-1.94-1.94-1.94h0Z"/><path class="cls-2" d="m145.83,102.77s.07.51.53.5c.02,0,.04,0,.06,0,.32-.01.56-.28.55-.6,0,0,0-.1,0-.28,0-.18,0-.43,0-.73.01-.3.05-.65.11-1.01s.15-.73.28-1.08c.07-.2.16-.38.25-.55l-.05,3.87c0,.06,0,.12,0,.18l.3,7.3c.02.34.29.62.64.64.37.02.69-.27.7-.64l.22-5.9.22,5.9c.02.34.29.62.64.64.37.02.68-.27.7-.64l.29-7.32c0-.06,0-.13,0-.19l-.07-3.8c.09.16.17.33.23.51.13.34.22.72.28,1.08s.09.71.11,1.01.01.55,0,.73c0,.18,0,.28,0,.28-.01.3.21.56.51.6.23.03.45-.12.56-.33l.09-.17s.01-.11.03-.3c.02-.19.04-.47.06-.81.01-.34.01-.73-.02-1.16-.04-.43-.11-.9-.24-1.36-.13-.46-.32-.92-.58-1.33-.13-.2-.27-.39-.42-.56-.15-.17-.31-.32-.46-.45-.31-.26-.62-.42-.86-.52-.12-.05-.22-.08-.3-.11-.48-.13-1.02-.11-1.47-.03-.04,0-.07.01-.11.03-.08.02-.18.06-.3.11-.24.1-.55.26-.86.52-.16.13-.32.28-.46.45-.15.17-.29.36-.42.56-.25.41-.45.87-.57,1.33-.13.46-.2.93-.24,1.36-.04.43-.04.83-.02,1.16.01.34.04.61.06.81.02.19.04.3.04.3h0"/><circle class="cls-5" cx="149.42" cy="71.78" r="1.69"/><path d="m149.42,70.34c.8,0,1.44.65,1.44,1.44s-.65,1.44-1.44,1.44-1.44-.65-1.44-1.44.65-1.44,1.44-1.44m0-.5c-1.07,0-1.94.87-1.94,1.94s.87,1.94,1.94,1.94,1.94-.87,1.94-1.94-.87-1.94-1.94-1.94h0Z"/><path class="cls-2" d="m145.83,80.78s.07.51.53.5c.02,0,.04,0,.06,0,.32-.01.56-.28.55-.6,0,0,0-.1,0-.28,0-.18,0-.43,0-.73.01-.3.05-.65.11-1.01s.15-.73.28-1.08c.07-.2.16-.38.25-.55l-.05,3.87c0,.06,0,.12,0,.18l.3,7.3c.02.34.29.62.64.64.37.02.69-.27.7-.64l.22-5.9.22,5.9c.02.34.29.62.64.64.37.02.68-.27.7-.64l.29-7.32c0-.06,0-.13,0-.19l-.07-3.8c.09.16.17.33.23.51.13.34.22.72.28,1.08s.09.71.11,1.01.01.55,0,.73c0,.18,0,.28,0,.28-.01.3.21.56.51.6.23.03.45-.12.56-.33l.09-.17s.01-.11.03-.3c.02-.19.04-.47.06-.81.01-.34.01-.73-.02-1.16-.04-.43-.11-.9-.24-1.36-.13-.46-.32-.92-.58-1.33-.13-.2-.27-.39-.42-.56-.15-.17-.31-.32-.46-.45-.31-.26-.62-.42-.86-.52-.12-.05-.22-.08-.3-.11-.48-.13-1.02-.11-1.47-.03-.04,0-.07.01-.11.03-.08.02-.18.06-.3.11-.24.1-.55.26-.86.52-.16.13-.32.28-.46.45-.15.17-.29.36-.42.56-.25.41-.45.87-.57,1.33-.13.46-.2.93-.24,1.36-.04.43-.04.83-.02,1.16.01.34.04.61.06.81.02.19.04.3.04.3h0"/><circle class="cls-5" cx="149.42" cy="49.79" r="1.69"/><path d="m149.42,48.35c.8,0,1.44.65,1.44,1.44s-.65,1.44-1.44,1.44-1.44-.65-1.44-1.44.65-1.44,1.44-1.44m0-.5c-1.07,0-1.94.87-1.94,1.94s.87,1.94,1.94,1.94,1.94-.87,1.94-1.94-.87-1.94-1.94-1.94h0Z"/><path class="cls-2" d="m145.83,58.79s.07.51.53.5c.02,0,.04,0,.06,0,.32-.01.56-.28.55-.6,0,0,0-.1,0-.28,0-.18,0-.43,0-.73.01-.3.05-.65.11-1.01s.15-.73.28-1.08c.07-.2.16-.38.25-.55l-.05,3.87c0,.06,0,.12,0,.18l.3,7.3c.02.34.29.62.64.64.37.02.69-.27.7-.64l.22-5.9.22,5.9c.02.34.29.62.64.64.37.02.68-.27.7-.64l.29-7.32c0-.06,0-.13,0-.19l-.07-3.8c.09.16.17.33.23.51.13.34.22.72.28,1.08s.09.71.11,1.01.01.55,0,.73c0,.18,0,.28,0,.28-.01.3.21.56.51.6.23.03.45-.12.56-.33l.09-.17s.01-.11.03-.3c.02-.19.04-.47.06-.81.01-.34.01-.73-.02-1.16-.04-.43-.11-.9-.24-1.36-.13-.46-.32-.92-.58-1.33-.13-.2-.27-.39-.42-.56-.15-.17-.31-.32-.46-.45-.31-.26-.62-.42-.86-.52-.12-.05-.22-.08-.3-.11-.48-.13-1.02-.11-1.47-.03-.04,0-.07.01-.11.03-.08.02-.18.06-.3.11-.24.1-.55.26-.86.52-.16.13-.32.28-.46.45-.15.17-.29.36-.42.56-.25.41-.45.87-.57,1.33-.13.46-.2.93-.24,1.36-.04.43-.04.83-.02,1.16.01.34.04.61.06.81.02.19.04.3.04.3h0"/><circle class="cls-5" cx="149.42" cy="27.8" r="1.69"/><path d="m149.42,26.36c.8,0,1.44.65,1.44,1.44s-.65,1.44-1.44,1.44-1.44-.65-1.44-1.44.65-1.44,1.44-1.44m0-.5c-1.07,0-1.94.87-1.94,1.94s.87,1.94,1.94,1.94,1.94-.87,1.94-1.94-.87-1.94-1.94-1.94h0Z"/><path class="cls-2" d="m145.83,36.8s.07.51.53.5c.02,0,.04,0,.06,0,.32-.01.56-.28.55-.6,0,0,0-.1,0-.28,0-.18,0-.43,0-.73.01-.3.05-.65.11-1.01s.15-.73.28-1.08c.07-.2.16-.38.25-.55l-.05,3.87c0,.06,0,.12,0,.18l.3,7.3c.02.34.29.62.64.64.37.02.69-.27.7-.64l.22-5.9.22,5.9c.02.34.29.62.64.64.37.02.68-.27.7-.64l.29-7.32c0-.06,0-.13,0-.19l-.07-3.8c.09.16.17.33.23.51.13.34.22.72.28,1.08s.09.71.11,1.01.01.55,0,.73c0,.18,0,.28,0,.28-.01.3.21.56.51.6.23.03.45-.12.56-.33l.09-.17s.01-.11.03-.3c.02-.19.04-.47.06-.81.01-.34.01-.73-.02-1.16-.04-.43-.11-.9-.24-1.36-.13-.46-.32-.92-.58-1.33-.13-.2-.27-.39-.42-.56-.15-.17-.31-.32-.46-.45-.31-.26-.62-.42-.86-.52-.12-.05-.22-.08-.3-.11-.48-.13-1.02-.11-1.47-.03-.04,0-.07.01-.11.03-.08.02-.18.06-.3.11-.24.1-.55.26-.86.52-.16.13-.32.28-.46.45-.15.17-.29.36-.42.56-.25.41-.45.87-.57,1.33-.13.46-.2.93-.24,1.36-.04.43-.04.83-.02,1.16.01.34.04.61.06.81.02.19.04.3.04.3h0"/><path class="cls-5" d="m149.42,7.5c-.93,0-1.69-.76-1.69-1.69s.76-1.7,1.69-1.7,1.69.76,1.69,1.7-.76,1.69-1.69,1.69Z"/><path d="m149.42,4.37c.8,0,1.44.65,1.44,1.44s-.65,1.44-1.44,1.44-1.44-.65-1.44-1.44.65-1.44,1.44-1.44m0-.5c-1.07,0-1.94.87-1.94,1.94s.87,1.94,1.94,1.94,1.94-.87,1.94-1.94-.87-1.94-1.94-1.94h0Z"/><path class="cls-2" d="m145.83,14.8s.07.51.53.5c.02,0,.04,0,.06,0,.32-.01.56-.28.55-.6,0,0,0-.1,0-.28,0-.18,0-.43,0-.73.01-.3.05-.65.11-1.01s.15-.73.28-1.08c.07-.2.16-.38.25-.55l-.05,3.87c0,.06,0,.12,0,.18l.3,7.3c.02.34.29.62.64.64.37.02.69-.27.7-.64l.22-5.9.22,5.9c.02.34.29.62.64.64.37.02.68-.27.7-.64l.29-7.32c0-.06,0-.13,0-.19l-.07-3.8c.09.16.17.33.23.51.13.34.22.72.28,1.08s.09.71.11,1.01.01.55,0,.73c0,.18,0,.28,0,.28-.01.3.21.56.51.6.23.03.45-.12.56-.33l.09-.17s.01-.11.03-.3c.02-.19.04-.47.06-.81.01-.34.01-.73-.02-1.16-.04-.43-.11-.9-.24-1.36-.13-.46-.32-.92-.58-1.33-.13-.2-.27-.39-.42-.56-.15-.17-.31-.32-.46-.45-.31-.26-.62-.42-.86-.52-.12-.05-.22-.08-.3-.11-.48-.13-1.02-.11-1.47-.03-.04,0-.07.01-.11.03-.08.02-.18.06-.3.11-.24.1-.55.26-.86.52-.16.13-.32.28-.46.45-.15.17-.29.36-.42.56-.25.41-.45.87-.57,1.33-.13.46-.2.93-.24,1.36-.04.43-.04.83-.02,1.16.01.34.04.61.06.81.02.19.04.3.04.3h0"/><path class="cls-5" d="m179.52,98.2c-.74,0-1.35-.6-1.35-1.35s.6-1.35,1.35-1.35,1.35.61,1.35,1.35-.6,1.35-1.35,1.35Z"/><path d="m179.52,95.75c.61,0,1.1.49,1.1,1.1s-.49,1.1-1.1,1.1-1.1-.49-1.1-1.1.49-1.1,1.1-1.1m0-.5c-.88,0-1.6.72-1.6,1.6s.72,1.6,1.6,1.6,1.6-.72,1.6-1.6-.71-1.6-1.6-1.6h0Z"/><path class="cls-2" d="m176.58,104.24s.06.42.44.41c.02,0,.04,0,.05,0,.26-.01.46-.23.45-.5,0,0,0-.08,0-.23,0-.15,0-.35,0-.6.01-.25.04-.53.09-.83s.12-.6.23-.88c.06-.16.13-.31.21-.45l-.04,3.18s0,.1,0,.15l.24,6c.01.28.24.51.53.53.31.01.56-.22.58-.53l.18-4.85.18,4.85c.01.28.24.51.53.53.3.01.56-.22.58-.53l.23-6.01c0-.05,0-.1,0-.15l-.05-3.13c.07.13.14.27.19.42.11.28.18.59.23.88s.07.58.09.83,0,.45,0,.6c0,.15,0,.23,0,.23,0,.24.17.46.42.49.19.02.37-.1.46-.27l.07-.14s0-.09.03-.25c.02-.16.04-.39.05-.66,0-.28,0-.6-.02-.95-.03-.35-.09-.74-.19-1.12-.11-.38-.27-.76-.47-1.09-.1-.17-.22-.32-.34-.46-.12-.14-.25-.26-.38-.37-.26-.21-.51-.35-.71-.43-.1-.04-.18-.07-.25-.09-.39-.11-.84-.09-1.21-.02-.03,0-.06.01-.09.02-.07.02-.15.05-.25.09-.19.08-.45.22-.71.43-.13.1-.26.23-.38.37-.12.14-.24.3-.34.46-.21.33-.37.71-.47,1.09-.11.38-.17.76-.19,1.12-.03.35-.03.68-.02.95,0,.28.03.5.05.66.02.16.03.25.03.25h0"/><circle class="cls-5" cx="179.52" cy="78.57" r="1.35"/><path d="m179.52,77.47c.61,0,1.1.49,1.1,1.1s-.49,1.1-1.1,1.1-1.1-.49-1.1-1.1.49-1.1,1.1-1.1m0-.5c-.88,0-1.6.72-1.6,1.6s.72,1.6,1.6,1.6,1.6-.72,1.6-1.6-.71-1.6-1.6-1.6h0Z"/><path class="cls-2" d="m176.58,85.96s.06.42.44.41c.02,0,.04,0,.05,0,.26-.01.46-.23.45-.5,0,0,0-.08,0-.23,0-.15,0-.35,0-.6.01-.25.04-.53.09-.83s.12-.6.23-.88c.06-.16.13-.31.21-.45l-.04,3.18s0,.1,0,.15l.24,6c.01.28.24.51.53.53.31.01.56-.22.58-.53l.18-4.85.18,4.85c.01.28.24.51.53.53.3.01.56-.22.58-.53l.23-6.01c0-.05,0-.1,0-.15l-.05-3.13c.07.13.14.27.19.42.11.28.18.59.23.88s.07.58.09.83,0,.45,0,.6c0,.15,0,.23,0,.23,0,.24.17.46.42.49.19.02.37-.1.46-.27l.07-.14s0-.09.03-.25c.02-.16.04-.39.05-.66,0-.28,0-.6-.02-.95-.03-.35-.09-.74-.19-1.12-.11-.38-.27-.76-.47-1.09-.1-.17-.22-.32-.34-.46-.12-.14-.25-.26-.38-.37-.26-.21-.51-.35-.71-.43-.1-.04-.18-.07-.25-.09-.39-.11-.84-.09-1.21-.02-.03,0-.06.01-.09.02-.07.02-.15.05-.25.09-.19.08-.45.22-.71.43-.13.1-.26.23-.38.37-.12.14-.24.3-.34.46-.21.33-.37.71-.47,1.09-.11.38-.17.76-.19,1.12-.03.35-.03.68-.02.95,0,.28.03.5.05.66.02.16.03.25.03.25h0"/><circle class="cls-5" cx="179.52" cy="60.29" r="1.35"/><path d="m179.52,59.2c.61,0,1.1.49,1.1,1.1s-.49,1.1-1.1,1.1-1.1-.49-1.1-1.1.49-1.1,1.1-1.1m0-.5c-.88,0-1.6.72-1.6,1.6s.72,1.6,1.6,1.6,1.6-.72,1.6-1.6-.71-1.6-1.6-1.6h0Z"/><path class="cls-2" d="m176.58,67.69s.06.42.44.41c.02,0,.04,0,.05,0,.26-.01.46-.23.45-.5,0,0,0-.08,0-.23,0-.15,0-.35,0-.6.01-.25.04-.53.09-.83s.12-.6.23-.88c.06-.16.13-.31.21-.45l-.04,3.18s0,.1,0,.15l.24,6c.01.28.24.51.53.53.31.01.56-.22.58-.53l.18-4.85.18,4.85c.01.28.24.51.53.53.3.01.56-.22.58-.53l.23-6.01c0-.05,0-.1,0-.15l-.05-3.13c.07.13.14.27.19.42.11.28.18.59.23.88s.07.58.09.83,0,.45,0,.6c0,.15,0,.23,0,.23,0,.24.17.46.42.49.19.02.37-.1.46-.27l.07-.14s0-.09.03-.25c.02-.16.04-.39.05-.66,0-.28,0-.6-.02-.95-.03-.35-.09-.74-.19-1.12-.11-.38-.27-.76-.47-1.09-.1-.17-.22-.32-.34-.46-.12-.14-.25-.26-.38-.37-.26-.21-.51-.35-.71-.43-.1-.04-.18-.07-.25-.09-.39-.11-.84-.09-1.21-.02-.03,0-.06.01-.09.02-.07.02-.15.05-.25.09-.19.08-.45.22-.71.43-.13.1-.26.23-.38.37-.12.14-.24.3-.34.46-.21.33-.37.71-.47,1.09-.11.38-.17.76-.19,1.12-.03.35-.03.68-.02.95,0,.28.03.5.05.66.02.16.03.25.03.25h0"/><path class="cls-5" d="m179.52,43.37c-.74,0-1.35-.61-1.35-1.35s.6-1.35,1.35-1.35,1.35.6,1.35,1.35-.6,1.35-1.35,1.35Z"/><path d="m179.52,40.92c.61,0,1.1.49,1.1,1.1s-.49,1.1-1.1,1.1-1.1-.49-1.1-1.1.49-1.1,1.1-1.1m0-.5c-.88,0-1.6.72-1.6,1.6s.72,1.6,1.6,1.6,1.6-.72,1.6-1.6-.71-1.6-1.6-1.6h0Z"/><path class="cls-2" d="m176.58,49.41s.06.42.44.41c.02,0,.04,0,.05,0,.26-.01.46-.23.45-.5,0,0,0-.08,0-.23,0-.15,0-.35,0-.6.01-.25.04-.53.09-.83s.12-.6.23-.88c.06-.16.13-.31.21-.45l-.04,3.18s0,.1,0,.15l.24,6c.01.28.24.51.53.53.31.01.56-.22.58-.53l.18-4.85.18,4.85c.01.28.24.51.53.53.3.01.56-.22.58-.53l.23-6.01c0-.05,0-.1,0-.15l-.05-3.13c.07.13.14.27.19.42.11.28.18.59.23.88s.07.58.09.83,0,.45,0,.6c0,.15,0,.23,0,.23,0,.24.17.46.42.49.19.02.37-.1.46-.27l.07-.14s0-.09.03-.25c.02-.16.04-.39.05-.66,0-.28,0-.6-.02-.95-.03-.35-.09-.74-.19-1.12-.11-.38-.27-.76-.47-1.09-.1-.17-.22-.32-.34-.46-.12-.14-.25-.26-.38-.37-.26-.21-.51-.35-.71-.43-.1-.04-.18-.07-.25-.09-.39-.11-.84-.09-1.21-.02-.03,0-.06.01-.09.02-.07.02-.15.05-.25.09-.19.08-.45.22-.71.43-.13.1-.26.23-.38.37-.12.14-.24.3-.34.46-.21.33-.37.71-.47,1.09-.11.38-.17.76-.19,1.12-.03.35-.03.68-.02.95,0,.28.03.5.05.66.02.16.03.25.03.25h0"/><path class="cls-5" d="m179.52,25.09c-.74,0-1.35-.6-1.35-1.35s.6-1.35,1.35-1.35,1.35.61,1.35,1.35-.6,1.35-1.35,1.35Z"/><path d="m179.52,22.64c.61,0,1.1.49,1.1,1.1s-.49,1.1-1.1,1.1-1.1-.49-1.1-1.1.49-1.1,1.1-1.1m0-.5c-.88,0-1.6.72-1.6,1.6s.72,1.6,1.6,1.6,1.6-.72,1.6-1.6-.71-1.6-1.6-1.6h0Z"/><path class="cls-2" d="m176.58,31.13s.06.42.44.41c.02,0,.04,0,.05,0,.26-.01.46-.23.45-.5,0,0,0-.08,0-.23,0-.15,0-.35,0-.6.01-.25.04-.53.09-.83s.12-.6.23-.88c.06-.16.13-.31.21-.45l-.04,3.18s0,.1,0,.15l.24,6c.01.28.24.51.53.53.31.01.56-.22.58-.53l.18-4.85.18,4.85c.01.28.24.51.53.53.3.01.56-.22.58-.53l.23-6.01c0-.05,0-.1,0-.15l-.05-3.13c.07.13.14.27.19.42.11.28.18.59.23.88s.07.58.09.83,0,.45,0,.6c0,.15,0,.23,0,.23,0,.24.17.46.42.49.19.02.37-.1.46-.27l.07-.14s0-.09.03-.25c.02-.16.04-.39.05-.66,0-.28,0-.6-.02-.95-.03-.35-.09-.74-.19-1.12-.11-.38-.27-.76-.47-1.09-.1-.17-.22-.32-.34-.46-.12-.14-.25-.26-.38-.37-.26-.21-.51-.35-.71-.43-.1-.04-.18-.07-.25-.09-.39-.11-.84-.09-1.21-.02-.03,0-.06.01-.09.02-.07.02-.15.05-.25.09-.19.08-.45.22-.71.43-.13.1-.26.23-.38.37-.12.14-.24.3-.34.46-.21.33-.37.71-.47,1.09-.11.38-.17.76-.19,1.12-.03.35-.03.68-.02.95,0,.28.03.5.05.66.02.16.03.25.03.25h0"/><path class="cls-5" d="m179.52,6.81c-.74,0-1.35-.6-1.35-1.35s.6-1.35,1.35-1.35,1.35.61,1.35,1.35-.6,1.35-1.35,1.35Z"/><path d="m179.52,4.37c.61,0,1.1.49,1.1,1.1s-.49,1.1-1.1,1.1-1.1-.49-1.1-1.1.49-1.1,1.1-1.1m0-.5c-.88,0-1.6.72-1.6,1.6s.72,1.6,1.6,1.6,1.6-.72,1.6-1.6-.71-1.6-1.6-1.6h0Z"/><path class="cls-2" d="m176.58,12.85s.06.42.44.41c.02,0,.04,0,.05,0,.26-.01.46-.23.45-.5,0,0,0-.08,0-.23,0-.15,0-.35,0-.6.01-.25.04-.53.09-.83s.12-.6.23-.88c.06-.16.13-.31.21-.45l-.04,3.18s0,.1,0,.15l.24,6c.01.28.24.51.53.53.31.01.56-.22.58-.53l.18-4.85.18,4.85c.01.28.24.51.53.53.3.01.56-.22.58-.53l.23-6.01c0-.05,0-.1,0-.15l-.05-3.13c.07.13.14.27.19.42.11.28.18.59.23.88s.07.58.09.83,0,.45,0,.6c0,.15,0,.23,0,.23,0,.24.17.46.42.49.19.02.37-.1.46-.27l.07-.14s0-.09.03-.25c.02-.16.04-.39.05-.66,0-.28,0-.6-.02-.95-.03-.35-.09-.74-.19-1.12-.11-.38-.27-.76-.47-1.09-.1-.17-.22-.32-.34-.46-.12-.14-.25-.26-.38-.37-.26-.21-.51-.35-.71-.43-.1-.04-.18-.07-.25-.09-.39-.11-.84-.09-1.21-.02-.03,0-.06.01-.09.02-.07.02-.15.05-.25.09-.19.08-.45.22-.71.43-.13.1-.26.23-.38.37-.12.14-.24.3-.34.46-.21.33-.37.71-.47,1.09-.11.38-.17.76-.19,1.12-.03.35-.03.68-.02.95,0,.28.03.5.05.66.02.16.03.25.03.25h0"/></svg>