<?xml version="1.0" encoding="UTF-8"?>
<svg id="Calque_1" data-name="Calque 1" xmlns="http://www.w3.org/2000/svg" viewBox="0 0 200.13 128.13">
  <defs>
    <style>
      .cls-1 {
        fill: #d6d6d6;
      }

      .cls-1, .cls-2, .cls-3, .cls-4, .cls-5 {
        stroke: #000;
      }

      .cls-1, .cls-2, .cls-3, .cls-4, .cls-6 {
        stroke-linecap: round;
        stroke-linejoin: round;
      }

      .cls-2 {
        fill: #f3d587;
      }

      .cls-3 {
        fill: #e9cb61;
      }

      .cls-4, .cls-6 {
        fill: none;
      }

      .cls-5 {
        fill: #fff;
        stroke-miterlimit: 10;
      }

      .cls-6 {
        stroke: #fff;
        stroke-width: 8px;
      }
    </style>
  </defs>
  <path class="cls-5" d="m29.28,109.72c-.54,0-1.07-.23-1.44-.68l-2.61-3.14c-.53-.64-.58-1.55-.11-2.24l1.82-3.47c.58-.86,2.53-1.5,3.39-.92.86.58.76,3.3.18,4.16l-1.49,1.15,1.71,2.07c.66.8.55,1.98-.25,2.64-.35.29-.77.43-1.2.43Z"/>
  <path class="cls-5" d="m34.05,109.72c.54,0,1.07-.23,1.44-.68l2.61-3.14c.53-.64.58-1.55.11-2.24l-1.82-3.47c-.58-.86-2.53-1.5-3.39-.92-.86.58-.76,3.3-.18,4.16l1.49,1.15-1.71,2.07c-.66.8-.55,1.98.25,2.64.35.29.77.43,1.2.43Z"/>
  <path class="cls-5" d="m40.98,99.73c-.34.37-.8.56-1.27.56-.42,0-.83-.15-1.16-.46l-2.37-2.18v1.58h-9.21v-1.53l-2.31,2.12c-.33.31-.75.46-1.16.46-.47,0-.93-.19-1.27-.56-.64-.7-.6-1.78.1-2.43l5-4.6c.5-.46,1.19-.57,1.78-.34h4.98c.59-.23,1.28-.12,1.78.34l5,4.6c.7.64.74,1.73.1,2.43Z"/>
  <polygon class="cls-2" points="36.28 99.23 36.28 100.18 32.72 103.43 30.5 103.43 26.93 100.18 26.93 99.23 36.28 99.23"/>
  <circle class="cls-5" cx="31.61" cy="88.15" r="5.13"/>
  <path class="cls-5" d="m59.95,79.99c-.51,0-1.03-.22-1.38-.65l-2.49-3c-.51-.61-.55-1.48-.11-2.14l1.74-3.31c.55-.82,2.42-1.43,3.24-.88.82.55.72,3.15.17,3.97l-1.42,1.1,1.63,1.97c.63.76.53,1.89-.24,2.52-.33.28-.74.41-1.14.41Z"/>
  <path class="cls-5" d="m64.5,79.99c.51,0,1.03-.22,1.38-.65l2.49-3c.51-.61.55-1.48.11-2.14l-1.74-3.31c-.55-.82-2.42-1.43-3.24-.88-.82.55-.72,3.15-.17,3.97l1.42,1.1-1.63,1.97c-.63.76-.53,1.89.24,2.52.33.28.74.41,1.14.41Z"/>
  <path class="cls-5" d="m71.12,70.45c-.32.35-.76.53-1.21.53-.4,0-.79-.14-1.11-.44l-2.26-2.08v1.51h-8.79v-1.46l-2.21,2.03c-.32.29-.71.44-1.11.44-.44,0-.89-.18-1.21-.53-.61-.67-.57-1.7.1-2.32l4.77-4.39c.47-.44,1.14-.54,1.7-.32h4.76c.56-.22,1.22-.11,1.7.32l4.77,4.39c.67.61.71,1.65.1,2.32Z"/>
  <polygon class="cls-3" points="66.64 69.98 66.64 70.89 63.23 73.99 61.11 73.99 57.71 70.89 57.71 69.98 66.64 69.98"/>
  <circle class="cls-5" cx="62.17" cy="59.4" r="4.9"/>
  <path class="cls-5" d="m59.95,109.65c-.51,0-1.03-.22-1.38-.65l-2.49-3c-.51-.61-.55-1.48-.11-2.14l1.74-3.31c.55-.82,2.42-1.43,3.24-.88.82.55.72,3.15.17,3.97l-1.42,1.1,1.63,1.97c.63.76.53,1.89-.24,2.52-.33.28-.74.41-1.14.41Z"/>
  <path class="cls-5" d="m64.5,109.65c.51,0,1.03-.22,1.38-.65l2.49-3c.51-.61.55-1.48.11-2.14l-1.74-3.31c-.55-.82-2.42-1.43-3.24-.88-.82.55-.72,3.15-.17,3.97l1.42,1.1-1.63,1.97c-.63.76-.53,1.89.24,2.52.33.28.74.41,1.14.41Z"/>
  <path class="cls-5" d="m71.12,100.1c-.32.35-.76.53-1.21.53-.4,0-.79-.14-1.11-.44l-2.26-2.08v1.51h-8.79v-1.46l-2.21,2.03c-.32.29-.71.44-1.11.44-.44,0-.89-.18-1.21-.53-.61-.67-.57-1.7.1-2.32l4.77-4.39c.47-.44,1.14-.54,1.7-.32h4.76c.56-.22,1.22-.11,1.7.32l4.77,4.39c.67.61.71,1.65.1,2.32Z"/>
  <polygon class="cls-2" points="66.64 99.63 66.64 100.54 63.23 103.64 61.11 103.64 57.71 100.54 57.71 99.63 66.64 99.63"/>
  <circle class="cls-5" cx="62.17" cy="89.06" r="4.9"/>
  <path class="cls-5" d="m90.09,51.58c-.5,0-1-.22-1.35-.63l-2.44-2.94c-.5-.6-.54-1.45-.11-2.1l1.7-3.24c.54-.8,2.36-1.4,3.17-.86.8.54.71,3.09.17,3.89l-1.39,1.08,1.6,1.93c.62.74.51,1.85-.23,2.47-.33.27-.72.4-1.12.4Z"/>
  <path class="cls-5" d="m94.54,51.58c.5,0,1-.22,1.35-.63l2.44-2.94c.5-.6.54-1.45.11-2.1l-1.7-3.24c-.54-.8-2.36-1.4-3.17-.86-.8.54-.71,3.09-.17,3.89l1.39,1.08-1.6,1.93c-.62.74-.51,1.85.23,2.47.33.27.72.4,1.12.4Z"/>
  <path class="cls-5" d="m101.02,42.24c-.32.34-.75.52-1.18.52-.39,0-.78-.14-1.09-.43l-2.21-2.04v1.48h-8.6v-1.42l-2.16,1.98c-.31.29-.7.43-1.09.43-.44,0-.87-.18-1.18-.52-.6-.65-.56-1.67.09-2.27l4.67-4.3c.46-.43,1.11-.53,1.66-.32h4.65c.55-.21,1.2-.11,1.66.32l4.67,4.3c.65.6.69,1.61.09,2.27Z"/>
  <polygon class="cls-1" points="96.63 41.78 96.63 42.67 93.31 45.7 91.23 45.7 87.9 42.67 87.9 41.78 96.63 41.78"/>
  <circle class="cls-5" cx="92.27" cy="31.43" r="4.8"/>
  <path class="cls-5" d="m90.09,51.58c-.5,0-1-.22-1.35-.63l-2.44-2.94c-.5-.6-.54-1.45-.11-2.1l1.7-3.24c.54-.8,2.36-1.4,3.17-.86.8.54.71,3.09.17,3.89l-1.39,1.08,1.6,1.93c.62.74.51,1.85-.23,2.47-.33.27-.72.4-1.12.4Z"/>
  <path class="cls-5" d="m94.54,51.58c.5,0,1-.22,1.35-.63l2.44-2.94c.5-.6.54-1.45.11-2.1l-1.7-3.24c-.54-.8-2.36-1.4-3.17-.86-.8.54-.71,3.09-.17,3.89l1.39,1.08-1.6,1.93c-.62.74-.51,1.85.23,2.47.33.27.72.4,1.12.4Z"/>
  <path class="cls-5" d="m101.02,42.24c-.32.34-.75.52-1.18.52-.39,0-.78-.14-1.09-.43l-2.21-2.04v1.48h-8.6v-1.42l-2.16,1.98c-.31.29-.7.43-1.09.43-.44,0-.87-.18-1.18-.52-.6-.65-.56-1.67.09-2.27l4.67-4.3c.46-.43,1.11-.53,1.66-.32h4.65c.55-.21,1.2-.11,1.66.32l4.67,4.3c.65.6.69,1.61.09,2.27Z"/>
  <polygon class="cls-3" points="96.63 41.78 96.63 42.67 93.31 45.7 91.23 45.7 87.9 42.67 87.9 41.78 96.63 41.78"/>
  <circle class="cls-5" cx="92.27" cy="31.43" r="4.8"/>
  <path class="cls-5" d="m89.67,80.59c-.5,0-1-.22-1.35-.63l-2.44-2.94c-.5-.6-.54-1.45-.11-2.1l1.7-3.24c.54-.8,2.36-1.4,3.17-.86.8.54.71,3.09.17,3.89l-1.39,1.08,1.6,1.93c.62.74.51,1.85-.23,2.47-.33.27-.72.4-1.12.4Z"/>
  <path class="cls-5" d="m94.12,80.59c.5,0,1-.22,1.35-.63l2.44-2.94c.5-.6.54-1.45.11-2.1l-1.7-3.24c-.54-.8-2.36-1.4-3.17-.86-.8.54-.71,3.09-.17,3.89l1.39,1.08-1.6,1.93c-.62.74-.51,1.85.23,2.47.33.27.72.4,1.12.4Z"/>
  <path class="cls-5" d="m100.6,71.25c-.32.34-.75.52-1.18.52-.39,0-.78-.14-1.09-.43l-2.21-2.04v1.48h-8.6v-1.42l-2.16,1.98c-.31.29-.7.43-1.09.43-.44,0-.87-.18-1.18-.52-.6-.65-.56-1.67.09-2.27l4.67-4.3c.46-.43,1.11-.53,1.66-.32h4.65c.55-.21,1.2-.11,1.66.32l4.67,4.3c.65.6.69,1.61.09,2.27Z"/>
  <polygon class="cls-1" points="96.21 70.79 96.21 71.68 92.89 74.71 90.81 74.71 87.48 71.68 87.48 70.79 96.21 70.79"/>
  <circle class="cls-5" cx="91.85" cy="60.45" r="4.8"/>
  <path class="cls-5" d="m89.67,80.59c-.5,0-1-.22-1.35-.63l-2.44-2.94c-.5-.6-.54-1.45-.11-2.1l1.7-3.24c.54-.8,2.36-1.4,3.17-.86.8.54.71,3.09.17,3.89l-1.39,1.08,1.6,1.93c.62.74.51,1.85-.23,2.47-.33.27-.72.4-1.12.4Z"/>
  <path class="cls-5" d="m94.12,80.59c.5,0,1-.22,1.35-.63l2.44-2.94c.5-.6.54-1.45.11-2.1l-1.7-3.24c-.54-.8-2.36-1.4-3.17-.86-.8.54-.71,3.09-.17,3.89l1.39,1.08-1.6,1.93c-.62.74-.51,1.85.23,2.47.33.27.72.4,1.12.4Z"/>
  <path class="cls-5" d="m100.6,71.25c-.32.34-.75.52-1.18.52-.39,0-.78-.14-1.09-.43l-2.21-2.04v1.48h-8.6v-1.42l-2.16,1.98c-.31.29-.7.43-1.09.43-.44,0-.87-.18-1.18-.52-.6-.65-.56-1.67.09-2.27l4.67-4.3c.46-.43,1.11-.53,1.66-.32h4.65c.55-.21,1.2-.11,1.66.32l4.67,4.3c.65.6.69,1.61.09,2.27Z"/>
  <polygon class="cls-3" points="96.21 70.79 96.21 71.68 92.89 74.71 90.81 74.71 87.48 71.68 87.48 70.79 96.21 70.79"/>
  <circle class="cls-5" cx="91.85" cy="60.45" r="4.8"/>
  <path class="cls-5" d="m89.66,109.52c-.5,0-1-.22-1.35-.63l-2.44-2.94c-.5-.6-.54-1.45-.11-2.1l1.7-3.24c.54-.8,2.36-1.4,3.17-.86.8.54.71,3.09.17,3.89l-1.39,1.08,1.6,1.93c.62.74.51,1.85-.23,2.47-.33.27-.72.4-1.12.4Z"/>
  <path class="cls-5" d="m94.12,109.52c.5,0,1-.22,1.35-.63l2.44-2.94c.5-.6.54-1.45.11-2.1l-1.7-3.24c-.54-.8-2.36-1.4-3.17-.86-.8.54-.71,3.09-.17,3.89l1.39,1.08-1.6,1.93c-.62.74-.51,1.85.23,2.47.33.27.72.4,1.12.4Z"/>
  <path class="cls-5" d="m100.59,100.18c-.32.34-.75.52-1.18.52-.39,0-.78-.14-1.09-.43l-2.21-2.04v1.48h-8.6v-1.42l-2.16,1.98c-.31.29-.7.43-1.09.43-.44,0-.87-.18-1.18-.52-.6-.65-.56-1.67.09-2.27l4.67-4.3c.46-.43,1.11-.53,1.66-.32h4.65c.55-.21,1.2-.11,1.66.32l4.67,4.3c.65.6.69,1.61.09,2.27Z"/>
  <polygon class="cls-1" points="96.21 99.72 96.21 100.61 92.88 103.64 90.8 103.64 87.47 100.61 87.47 99.72 96.21 99.72"/>
  <circle class="cls-5" cx="91.84" cy="89.37" r="4.8"/>
  <path class="cls-5" d="m89.66,109.52c-.5,0-1-.22-1.35-.63l-2.44-2.94c-.5-.6-.54-1.45-.11-2.1l1.7-3.24c.54-.8,2.36-1.4,3.17-.86.8.54.71,3.09.17,3.89l-1.39,1.08,1.6,1.93c.62.74.51,1.85-.23,2.47-.33.27-.72.4-1.12.4Z"/>
  <path class="cls-5" d="m94.12,109.52c.5,0,1-.22,1.35-.63l2.44-2.94c.5-.6.54-1.45.11-2.1l-1.7-3.24c-.54-.8-2.36-1.4-3.17-.86-.8.54-.71,3.09-.17,3.89l1.39,1.08-1.6,1.93c-.62.74-.51,1.85.23,2.47.33.27.72.4,1.12.4Z"/>
  <path class="cls-5" d="m100.59,100.18c-.32.34-.75.52-1.18.52-.39,0-.78-.14-1.09-.43l-2.21-2.04v1.48h-8.6v-1.42l-2.16,1.98c-.31.29-.7.43-1.09.43-.44,0-.87-.18-1.18-.52-.6-.65-.56-1.67.09-2.27l4.67-4.3c.46-.43,1.11-.53,1.66-.32h4.65c.55-.21,1.2-.11,1.66.32l4.67,4.3c.65.6.69,1.61.09,2.27Z"/>
  <polygon class="cls-2" points="96.21 99.72 96.21 100.61 92.88 103.64 90.8 103.64 87.47 100.61 87.47 99.72 96.21 99.72"/>
  <circle class="cls-5" cx="91.84" cy="89.37" r="4.8"/>
  <path class="cls-5" d="m119.23,33.49c-.44,0-.88-.19-1.18-.55l-2.13-2.57c-.43-.52-.47-1.27-.09-1.83l1.49-2.83c.47-.7,2.07-1.22,2.77-.75.7.47.62,2.7.14,3.4l-1.22.94,1.4,1.69c.54.65.45,1.62-.2,2.16-.29.24-.63.35-.98.35Z"/>
  <path class="cls-5" d="m123.12,33.49c.44,0,.88-.19,1.18-.55l2.13-2.57c.43-.52.47-1.27.09-1.83l-1.49-2.83c-.47-.7-2.07-1.22-2.77-.75-.7.47-.62,2.7-.14,3.4l1.22.94-1.4,1.69c-.54.65-.45,1.62.2,2.16.29.24.63.35.98.35Z"/>
  <path class="cls-5" d="m128.78,25.33c-.28.3-.65.45-1.03.45-.34,0-.68-.12-.95-.37l-1.94-1.78v1.29h-7.52v-1.25l-1.89,1.73c-.27.25-.61.37-.95.37-.38,0-.76-.15-1.03-.45-.53-.57-.49-1.46.08-1.98l4.08-3.76c.41-.37.97-.46,1.45-.28h4.07c.48-.19,1.05-.1,1.45.28l4.08,3.76c.57.53.61,1.41.08,1.98Z"/>
  <polygon class="cls-1" points="124.95 24.92 124.95 25.7 122.04 28.35 120.22 28.35 117.31 25.7 117.31 24.92 124.95 24.92"/>
  <circle class="cls-5" cx="121.13" cy="15.88" r="4.19"/>
  <path class="cls-5" d="m119.23,33.49c-.44,0-.88-.19-1.18-.55l-2.13-2.57c-.43-.52-.47-1.27-.09-1.83l1.49-2.83c.47-.7,2.07-1.22,2.77-.75.7.47.62,2.7.14,3.4l-1.22.94,1.4,1.69c.54.65.45,1.62-.2,2.16-.29.24-.63.35-.98.35Z"/>
  <path class="cls-5" d="m123.12,33.49c.44,0,.88-.19,1.18-.55l2.13-2.57c.43-.52.47-1.27.09-1.83l-1.49-2.83c-.47-.7-2.07-1.22-2.77-.75-.7.47-.62,2.7-.14,3.4l1.22.94-1.4,1.69c-.54.65-.45,1.62.2,2.16.29.24.63.35.98.35Z"/>
  <path class="cls-5" d="m128.78,25.33c-.28.3-.65.45-1.03.45-.34,0-.68-.12-.95-.37l-1.94-1.78v1.29h-7.52v-1.25l-1.89,1.73c-.27.25-.61.37-.95.37-.38,0-.76-.15-1.03-.45-.53-.57-.49-1.46.08-1.98l4.08-3.76c.41-.37.97-.46,1.45-.28h4.07c.48-.19,1.05-.1,1.45.28l4.08,3.76c.57.53.61,1.41.08,1.98Z"/>
  <polygon class="cls-3" points="124.95 24.92 124.95 25.7 122.04 28.35 120.22 28.35 117.31 25.7 117.31 24.92 124.95 24.92"/>
  <circle class="cls-5" cx="121.13" cy="15.88" r="4.19"/>
  <path class="cls-5" d="m119.23,58.86c-.44,0-.88-.19-1.18-.55l-2.13-2.57c-.43-.52-.47-1.27-.09-1.83l1.49-2.83c.47-.7,2.07-1.22,2.77-.75.7.47.62,2.7.14,3.4l-1.22.94,1.4,1.69c.54.65.45,1.62-.2,2.16-.29.24-.63.35-.98.35Z"/>
  <path class="cls-5" d="m123.12,58.86c.44,0,.88-.19,1.18-.55l2.13-2.57c.43-.52.47-1.27.09-1.83l-1.49-2.83c-.47-.7-2.07-1.22-2.77-.75-.7.47-.62,2.7-.14,3.4l1.22.94-1.4,1.69c-.54.65-.45,1.62.2,2.16.29.24.63.35.98.35Z"/>
  <path class="cls-5" d="m128.78,50.69c-.28.3-.65.45-1.03.45-.34,0-.68-.12-.95-.37l-1.94-1.78v1.29h-7.52v-1.25l-1.89,1.73c-.27.25-.61.37-.95.37-.38,0-.76-.15-1.03-.45-.53-.57-.49-1.46.08-1.98l4.08-3.76c.41-.37.97-.46,1.45-.28h4.07c.48-.19,1.05-.1,1.45.28l4.08,3.76c.57.53.61,1.41.08,1.98Z"/>
  <polygon class="cls-1" points="124.95 50.29 124.95 51.07 122.04 53.72 120.22 53.72 117.31 51.07 117.31 50.29 124.95 50.29"/>
  <circle class="cls-5" cx="121.13" cy="41.24" r="4.19"/>
  <path class="cls-5" d="m119.23,58.86c-.44,0-.88-.19-1.18-.55l-2.13-2.57c-.43-.52-.47-1.27-.09-1.83l1.49-2.83c.47-.7,2.07-1.22,2.77-.75.7.47.62,2.7.14,3.4l-1.22.94,1.4,1.69c.54.65.45,1.62-.2,2.16-.29.24-.63.35-.98.35Z"/>
  <path class="cls-5" d="m123.12,58.86c.44,0,.88-.19,1.18-.55l2.13-2.57c.43-.52.47-1.27.09-1.83l-1.49-2.83c-.47-.7-2.07-1.22-2.77-.75-.7.47-.62,2.7-.14,3.4l1.22.94-1.4,1.69c-.54.65-.45,1.62.2,2.16.29.24.63.35.98.35Z"/>
  <path class="cls-5" d="m128.78,50.69c-.28.3-.65.45-1.03.45-.34,0-.68-.12-.95-.37l-1.94-1.78v1.29h-7.52v-1.25l-1.89,1.73c-.27.25-.61.37-.95.37-.38,0-.76-.15-1.03-.45-.53-.57-.49-1.46.08-1.98l4.08-3.76c.41-.37.97-.46,1.45-.28h4.07c.48-.19,1.05-.1,1.45.28l4.08,3.76c.57.53.61,1.41.08,1.98Z"/>
  <polygon class="cls-3" points="124.95 50.29 124.95 51.07 122.04 53.72 120.22 53.72 117.31 51.07 117.31 50.29 124.95 50.29"/>
  <circle class="cls-5" cx="121.13" cy="41.24" r="4.19"/>
  <path class="cls-5" d="m119.23,84.15c-.44,0-.88-.19-1.18-.55l-2.13-2.57c-.43-.52-.47-1.27-.09-1.83l1.49-2.83c.47-.7,2.07-1.22,2.77-.75.7.47.62,2.7.14,3.4l-1.22.94,1.4,1.69c.54.65.45,1.62-.2,2.16-.29.24-.63.35-.98.35Z"/>
  <path class="cls-5" d="m123.12,84.15c.44,0,.88-.19,1.18-.55l2.13-2.57c.43-.52.47-1.27.09-1.83l-1.49-2.83c-.47-.7-2.07-1.22-2.77-.75-.7.47-.62,2.7-.14,3.4l1.22.94-1.4,1.69c-.54.65-.45,1.62.2,2.16.29.24.63.35.98.35Z"/>
  <path class="cls-5" d="m128.78,75.99c-.28.3-.65.45-1.03.45-.34,0-.68-.12-.95-.37l-1.94-1.78v1.29h-7.52v-1.25l-1.89,1.73c-.27.25-.61.37-.95.37-.38,0-.76-.15-1.03-.45-.53-.57-.49-1.46.08-1.98l4.08-3.76c.41-.37.97-.46,1.45-.28h4.07c.48-.19,1.05-.1,1.45.28l4.08,3.76c.57.53.61,1.41.08,1.98Z"/>
  <polygon class="cls-1" points="124.95 75.58 124.95 76.36 122.04 79.01 120.22 79.01 117.31 76.36 117.31 75.58 124.95 75.58"/>
  <circle class="cls-5" cx="121.13" cy="66.53" r="4.19"/>
  <path class="cls-5" d="m119.23,84.15c-.44,0-.88-.19-1.18-.55l-2.13-2.57c-.43-.52-.47-1.27-.09-1.83l1.49-2.83c.47-.7,2.07-1.22,2.77-.75.7.47.62,2.7.14,3.4l-1.22.94,1.4,1.69c.54.65.45,1.62-.2,2.16-.29.24-.63.35-.98.35Z"/>
  <path class="cls-5" d="m123.12,84.15c.44,0,.88-.19,1.18-.55l2.13-2.57c.43-.52.47-1.27.09-1.83l-1.49-2.83c-.47-.7-2.07-1.22-2.77-.75-.7.47-.62,2.7-.14,3.4l1.22.94-1.4,1.69c-.54.65-.45,1.62.2,2.16.29.24.63.35.98.35Z"/>
  <path class="cls-5" d="m128.78,75.99c-.28.3-.65.45-1.03.45-.34,0-.68-.12-.95-.37l-1.94-1.78v1.29h-7.52v-1.25l-1.89,1.73c-.27.25-.61.37-.95.37-.38,0-.76-.15-1.03-.45-.53-.57-.49-1.46.08-1.98l4.08-3.76c.41-.37.97-.46,1.45-.28h4.07c.48-.19,1.05-.1,1.45.28l4.08,3.76c.57.53.61,1.41.08,1.98Z"/>
  <polygon class="cls-3" points="124.95 75.58 124.95 76.36 122.04 79.01 120.22 79.01 117.31 76.36 117.31 75.58 124.95 75.58"/>
  <circle class="cls-5" cx="121.13" cy="66.53" r="4.19"/>
  <path class="cls-5" d="m119.23,109.59c-.44,0-.88-.19-1.18-.55l-2.13-2.57c-.43-.52-.47-1.27-.09-1.83l1.49-2.83c.47-.7,2.07-1.22,2.77-.75.7.47.62,2.7.14,3.4l-1.22.94,1.4,1.69c.54.65.45,1.62-.2,2.16-.29.24-.63.35-.98.35Z"/>
  <path class="cls-5" d="m123.12,109.59c.44,0,.88-.19,1.18-.55l2.13-2.57c.43-.52.47-1.27.09-1.83l-1.49-2.83c-.47-.7-2.07-1.22-2.77-.75-.7.47-.62,2.7-.14,3.4l1.22.94-1.4,1.69c-.54.65-.45,1.62.2,2.16.29.24.63.35.98.35Z"/>
  <path class="cls-5" d="m128.78,101.43c-.28.3-.65.45-1.03.45-.34,0-.68-.12-.95-.37l-1.94-1.78v1.29h-7.52v-1.25l-1.89,1.73c-.27.25-.61.37-.95.37-.38,0-.76-.15-1.03-.45-.53-.57-.49-1.46.08-1.98l4.08-3.76c.41-.37.97-.46,1.45-.28h4.07c.48-.19,1.05-.1,1.45.28l4.08,3.76c.57.53.61,1.41.08,1.98Z"/>
  <polygon class="cls-1" points="124.95 101.02 124.95 101.8 122.04 104.45 120.22 104.45 117.31 101.8 117.31 101.02 124.95 101.02"/>
  <circle class="cls-5" cx="121.13" cy="91.98" r="4.19"/>
  <path class="cls-5" d="m119.23,109.59c-.44,0-.88-.19-1.18-.55l-2.13-2.57c-.43-.52-.47-1.27-.09-1.83l1.49-2.83c.47-.7,2.07-1.22,2.77-.75.7.47.62,2.7.14,3.4l-1.22.94,1.4,1.69c.54.65.45,1.62-.2,2.16-.29.24-.63.35-.98.35Z"/>
  <path class="cls-5" d="m123.12,109.59c.44,0,.88-.19,1.18-.55l2.13-2.57c.43-.52.47-1.27.09-1.83l-1.49-2.83c-.47-.7-2.07-1.22-2.77-.75-.7.47-.62,2.7-.14,3.4l1.22.94-1.4,1.69c-.54.65-.45,1.62.2,2.16.29.24.63.35.98.35Z"/>
  <path class="cls-5" d="m128.78,101.43c-.28.3-.65.45-1.03.45-.34,0-.68-.12-.95-.37l-1.94-1.78v1.29h-7.52v-1.25l-1.89,1.73c-.27.25-.61.37-.95.37-.38,0-.76-.15-1.03-.45-.53-.57-.49-1.46.08-1.98l4.08-3.76c.41-.37.97-.46,1.45-.28h4.07c.48-.19,1.05-.1,1.45.28l4.08,3.76c.57.53.61,1.41.08,1.98Z"/>
  <polygon class="cls-2" points="124.95 101.02 124.95 101.8 122.04 104.45 120.22 104.45 117.31 101.8 117.31 101.02 124.95 101.02"/>
  <circle class="cls-5" cx="121.13" cy="91.98" r="4.19"/>
  <line class="cls-4" x1="46.53" y1="3.35" x2="46.53" y2="121.71"/>
  <line class="cls-4" x1="76.37" y1="3.35" x2="76.37" y2="121.71"/>
  <line class="cls-4" x1="106.21" y1="3.35" x2="106.21" y2="121.71"/>
  <line class="cls-4" x1="136.05" y1="3.35" x2="136.05" y2="121.71"/>
  <line class="cls-4" x1="165.89" y1="3.35" x2="165.89" y2="121.71"/>
  <line class="cls-4" x1="195.73" y1="3.35" x2="195.73" y2="121.71"/>
  <line class="cls-4" x1="16.69" y1="3.35" x2="16.69" y2="121.71"/>
  <g>
    <path class="cls-5" d="m149.4,46.81c-.36,0-.73-.16-.98-.46l-1.76-2.12c-.36-.43-.39-1.05-.08-1.51l1.23-2.34c.39-.58,1.71-1.01,2.29-.62.58.39.51,2.23.12,2.81l-1.01.78,1.16,1.39c.45.54.37,1.34-.17,1.78-.24.2-.52.29-.81.29Z"/>
    <path class="cls-5" d="m152.62,46.81c.36,0,.73-.16.98-.46l1.76-2.12c.36-.43.39-1.05.08-1.51l-1.23-2.34c-.39-.58-1.71-1.01-2.29-.62-.58.39-.51,2.23-.12,2.81l1.01.78-1.16,1.39c-.45.54-.37,1.34.17,1.78.24.2.52.29.81.29Z"/>
    <path class="cls-5" d="m157.3,40.06c-.23.25-.54.38-.85.38-.28,0-.56-.1-.79-.31l-1.6-1.47v1.07h-6.22v-1.03l-1.56,1.43c-.22.21-.5.31-.79.31-.31,0-.63-.13-.85-.38-.43-.47-.4-1.21.07-1.64l3.38-3.11c.34-.31.8-.38,1.2-.23h3.36c.4-.15.87-.08,1.2.23l3.38,3.11c.47.43.5,1.17.07,1.64Z"/>
    <polygon class="cls-1" points="154.13 39.72 154.13 40.37 151.72 42.56 150.22 42.56 147.81 40.37 147.81 39.72 154.13 39.72"/>
    <circle class="cls-5" cx="150.97" cy="32.24" r="3.47"/>
    <path class="cls-5" d="m149.4,46.81c-.36,0-.73-.16-.98-.46l-1.76-2.12c-.36-.43-.39-1.05-.08-1.51l1.23-2.34c.39-.58,1.71-1.01,2.29-.62.58.39.51,2.23.12,2.81l-1.01.78,1.16,1.39c.45.54.37,1.34-.17,1.78-.24.2-.52.29-.81.29Z"/>
    <path class="cls-5" d="m152.62,46.81c.36,0,.73-.16.98-.46l1.76-2.12c.36-.43.39-1.05.08-1.51l-1.23-2.34c-.39-.58-1.71-1.01-2.29-.62-.58.39-.51,2.23-.12,2.81l1.01.78-1.16,1.39c-.45.54-.37,1.34.17,1.78.24.2.52.29.81.29Z"/>
    <path class="cls-5" d="m157.3,40.06c-.23.25-.54.38-.85.38-.28,0-.56-.1-.79-.31l-1.6-1.47v1.07h-6.22v-1.03l-1.56,1.43c-.22.21-.5.31-.79.31-.31,0-.63-.13-.85-.38-.43-.47-.4-1.21.07-1.64l3.38-3.11c.34-.31.8-.38,1.2-.23h3.36c.4-.15.87-.08,1.2.23l3.38,3.11c.47.43.5,1.17.07,1.64Z"/>
    <polygon class="cls-3" points="154.13 39.72 154.13 40.37 151.72 42.56 150.22 42.56 147.81 40.37 147.81 39.72 154.13 39.72"/>
    <circle class="cls-5" cx="150.97" cy="32.24" r="3.47"/>
    <path class="cls-5" d="m149.4,25.83c-.36,0-.73-.16-.98-.46l-1.76-2.12c-.36-.43-.39-1.05-.08-1.51l1.23-2.34c.39-.58,1.71-1.01,2.29-.62.58.39.51,2.23.12,2.81l-1.01.78,1.16,1.39c.45.54.37,1.34-.17,1.78-.24.2-.52.29-.81.29Z"/>
    <path class="cls-5" d="m152.62,25.83c.36,0,.73-.16.98-.46l1.76-2.12c.36-.43.39-1.05.08-1.51l-1.23-2.34c-.39-.58-1.71-1.01-2.29-.62-.58.39-.51,2.23-.12,2.81l1.01.78-1.16,1.39c-.45.54-.37,1.34.17,1.78.24.2.52.29.81.29Z"/>
    <path class="cls-5" d="m157.3,19.08c-.23.25-.54.38-.85.38-.28,0-.56-.1-.79-.31l-1.6-1.47v1.07h-6.22v-1.03l-1.56,1.43c-.22.21-.5.31-.79.31-.31,0-.63-.13-.85-.38-.43-.47-.4-1.21.07-1.64l3.38-3.11c.34-.31.8-.38,1.2-.23h3.36c.4-.15.87-.08,1.2.23l3.38,3.11c.47.43.5,1.17.07,1.64Z"/>
    <polygon class="cls-1" points="154.13 18.75 154.13 19.39 151.72 21.59 150.22 21.59 147.81 19.39 147.81 18.75 154.13 18.75"/>
    <circle class="cls-5" cx="150.97" cy="11.27" r="3.47"/>
    <path class="cls-5" d="m149.4,25.83c-.36,0-.73-.16-.98-.46l-1.76-2.12c-.36-.43-.39-1.05-.08-1.51l1.23-2.34c.39-.58,1.71-1.01,2.29-.62.58.39.51,2.23.12,2.81l-1.01.78,1.16,1.39c.45.54.37,1.34-.17,1.78-.24.2-.52.29-.81.29Z"/>
    <path class="cls-5" d="m152.62,25.83c.36,0,.73-.16.98-.46l1.76-2.12c.36-.43.39-1.05.08-1.51l-1.23-2.34c-.39-.58-1.71-1.01-2.29-.62-.58.39-.51,2.23-.12,2.81l1.01.78-1.16,1.39c-.45.54-.37,1.34.17,1.78.24.2.52.29.81.29Z"/>
    <path class="cls-5" d="m157.3,19.08c-.23.25-.54.38-.85.38-.28,0-.56-.1-.79-.31l-1.6-1.47v1.07h-6.22v-1.03l-1.56,1.43c-.22.21-.5.31-.79.31-.31,0-.63-.13-.85-.38-.43-.47-.4-1.21.07-1.64l3.38-3.11c.34-.31.8-.38,1.2-.23h3.36c.4-.15.87-.08,1.2.23l3.38,3.11c.47.43.5,1.17.07,1.64Z"/>
    <polygon class="cls-3" points="154.13 18.75 154.13 19.39 151.72 21.59 150.22 21.59 147.81 19.39 147.81 18.75 154.13 18.75"/>
    <circle class="cls-5" cx="150.97" cy="11.27" r="3.47"/>
    <path class="cls-5" d="m149.4,67.78c-.36,0-.73-.16-.98-.46l-1.76-2.12c-.36-.43-.39-1.05-.08-1.51l1.23-2.34c.39-.58,1.71-1.01,2.29-.62.58.39.51,2.23.12,2.81l-1.01.78,1.16,1.39c.45.54.37,1.34-.17,1.78-.24.2-.52.29-.81.29Z"/>
    <path class="cls-5" d="m152.62,67.78c.36,0,.73-.16.98-.46l1.76-2.12c.36-.43.39-1.05.08-1.51l-1.23-2.34c-.39-.58-1.71-1.01-2.29-.62-.58.39-.51,2.23-.12,2.81l1.01.78-1.16,1.39c-.45.54-.37,1.34.17,1.78.24.2.52.29.81.29Z"/>
    <path class="cls-5" d="m157.3,61.03c-.23.25-.54.38-.85.38-.28,0-.56-.1-.79-.31l-1.6-1.47v1.07h-6.22v-1.03l-1.56,1.43c-.22.21-.5.31-.79.31-.31,0-.63-.13-.85-.38-.43-.47-.4-1.21.07-1.64l3.38-3.11c.34-.31.8-.38,1.2-.23h3.36c.4-.15.87-.08,1.2.23l3.38,3.11c.47.43.5,1.17.07,1.64Z"/>
    <polygon class="cls-1" points="154.13 60.69 154.13 61.34 151.72 63.53 150.22 63.53 147.81 61.34 147.81 60.69 154.13 60.69"/>
    <circle class="cls-5" cx="150.97" cy="53.22" r="3.47"/>
    <path class="cls-5" d="m149.4,67.78c-.36,0-.73-.16-.98-.46l-1.76-2.12c-.36-.43-.39-1.05-.08-1.51l1.23-2.34c.39-.58,1.71-1.01,2.29-.62.58.39.51,2.23.12,2.81l-1.01.78,1.16,1.39c.45.54.37,1.34-.17,1.78-.24.2-.52.29-.81.29Z"/>
    <path class="cls-5" d="m152.62,67.78c.36,0,.73-.16.98-.46l1.76-2.12c.36-.43.39-1.05.08-1.51l-1.23-2.34c-.39-.58-1.71-1.01-2.29-.62-.58.39-.51,2.23-.12,2.81l1.01.78-1.16,1.39c-.45.54-.37,1.34.17,1.78.24.2.52.29.81.29Z"/>
    <path class="cls-5" d="m157.3,61.03c-.23.25-.54.38-.85.38-.28,0-.56-.1-.79-.31l-1.6-1.47v1.07h-6.22v-1.03l-1.56,1.43c-.22.21-.5.31-.79.31-.31,0-.63-.13-.85-.38-.43-.47-.4-1.21.07-1.64l3.38-3.11c.34-.31.8-.38,1.2-.23h3.36c.4-.15.87-.08,1.2.23l3.38,3.11c.47.43.5,1.17.07,1.64Z"/>
    <polygon class="cls-3" points="154.13 60.69 154.13 61.34 151.72 63.53 150.22 63.53 147.81 61.34 147.81 60.69 154.13 60.69"/>
    <circle class="cls-5" cx="150.97" cy="53.22" r="3.47"/>
    <path class="cls-5" d="m149.4,88.69c-.36,0-.73-.16-.98-.46l-1.76-2.12c-.36-.43-.39-1.05-.08-1.51l1.23-2.34c.39-.58,1.71-1.01,2.29-.62.58.39.51,2.23.12,2.81l-1.01.78,1.16,1.39c.45.54.37,1.34-.17,1.78-.24.2-.52.29-.81.29Z"/>
    <path class="cls-5" d="m152.62,88.69c.36,0,.73-.16.98-.46l1.76-2.12c.36-.43.39-1.05.08-1.51l-1.23-2.34c-.39-.58-1.71-1.01-2.29-.62-.58.39-.51,2.23-.12,2.81l1.01.78-1.16,1.39c-.45.54-.37,1.34.17,1.78.24.2.52.29.81.29Z"/>
    <path class="cls-5" d="m157.3,81.94c-.23.25-.54.38-.85.38-.28,0-.56-.1-.79-.31l-1.6-1.47v1.07h-6.22v-1.03l-1.56,1.43c-.22.21-.5.31-.79.31-.31,0-.63-.13-.85-.38-.43-.47-.4-1.21.07-1.64l3.38-3.11c.34-.31.8-.38,1.2-.23h3.36c.4-.15.87-.08,1.2.23l3.38,3.11c.47.43.5,1.17.07,1.64Z"/>
    <polygon class="cls-1" points="154.13 81.6 154.13 82.25 151.72 84.44 150.22 84.44 147.81 82.25 147.81 81.6 154.13 81.6"/>
    <circle class="cls-5" cx="150.97" cy="74.12" r="3.47"/>
    <path class="cls-5" d="m149.4,88.69c-.36,0-.73-.16-.98-.46l-1.76-2.12c-.36-.43-.39-1.05-.08-1.51l1.23-2.34c.39-.58,1.71-1.01,2.29-.62.58.39.51,2.23.12,2.81l-1.01.78,1.16,1.39c.45.54.37,1.34-.17,1.78-.24.2-.52.29-.81.29Z"/>
    <path class="cls-5" d="m152.62,88.69c.36,0,.73-.16.98-.46l1.76-2.12c.36-.43.39-1.05.08-1.51l-1.23-2.34c-.39-.58-1.71-1.01-2.29-.62-.58.39-.51,2.23-.12,2.81l1.01.78-1.16,1.39c-.45.54-.37,1.34.17,1.78.24.2.52.29.81.29Z"/>
    <path class="cls-5" d="m157.3,81.94c-.23.25-.54.38-.85.38-.28,0-.56-.1-.79-.31l-1.6-1.47v1.07h-6.22v-1.03l-1.56,1.43c-.22.21-.5.31-.79.31-.31,0-.63-.13-.85-.38-.43-.47-.4-1.21.07-1.64l3.38-3.11c.34-.31.8-.38,1.2-.23h3.36c.4-.15.87-.08,1.2.23l3.38,3.11c.47.43.5,1.17.07,1.64Z"/>
    <polygon class="cls-3" points="154.13 81.6 154.13 82.25 151.72 84.44 150.22 84.44 147.81 82.25 147.81 81.6 154.13 81.6"/>
    <circle class="cls-5" cx="150.97" cy="74.12" r="3.47"/>
    <path class="cls-5" d="m149.4,109.72c-.36,0-.73-.16-.98-.46l-1.76-2.12c-.36-.43-.39-1.05-.08-1.51l1.23-2.34c.39-.58,1.71-1.01,2.29-.62.58.39.51,2.23.12,2.81l-1.01.78,1.16,1.39c.45.54.37,1.34-.17,1.78-.24.2-.52.29-.81.29Z"/>
    <path class="cls-5" d="m152.62,109.72c.36,0,.73-.16.98-.46l1.76-2.12c.36-.43.39-1.05.08-1.51l-1.23-2.34c-.39-.58-1.71-1.01-2.29-.62-.58.39-.51,2.23-.12,2.81l1.01.78-1.16,1.39c-.45.54-.37,1.34.17,1.78.24.2.52.29.81.29Z"/>
    <path class="cls-5" d="m157.3,102.97c-.23.25-.54.38-.85.38-.28,0-.56-.1-.79-.31l-1.6-1.47v1.07h-6.22v-1.03l-1.56,1.43c-.22.21-.5.31-.79.31-.31,0-.63-.13-.85-.38-.43-.47-.4-1.21.07-1.64l3.38-3.11c.34-.31.8-.38,1.2-.23h3.36c.4-.15.87-.08,1.2.23l3.38,3.11c.47.43.5,1.17.07,1.64Z"/>
    <polygon class="cls-1" points="154.13 102.64 154.13 103.28 151.72 105.47 150.22 105.47 147.81 103.28 147.81 102.64 154.13 102.64"/>
    <circle class="cls-5" cx="150.97" cy="95.16" r="3.47"/>
    <path class="cls-5" d="m149.4,109.72c-.36,0-.73-.16-.98-.46l-1.76-2.12c-.36-.43-.39-1.05-.08-1.51l1.23-2.34c.39-.58,1.71-1.01,2.29-.62.58.39.51,2.23.12,2.81l-1.01.78,1.16,1.39c.45.54.37,1.34-.17,1.78-.24.2-.52.29-.81.29Z"/>
    <path class="cls-5" d="m152.62,109.72c.36,0,.73-.16.98-.46l1.76-2.12c.36-.43.39-1.05.08-1.51l-1.23-2.34c-.39-.58-1.71-1.01-2.29-.62-.58.39-.51,2.23-.12,2.81l1.01.78-1.16,1.39c-.45.54-.37,1.34.17,1.78.24.2.52.29.81.29Z"/>
    <path class="cls-5" d="m157.3,102.97c-.23.25-.54.38-.85.38-.28,0-.56-.1-.79-.31l-1.6-1.47v1.07h-6.22v-1.03l-1.56,1.43c-.22.21-.5.31-.79.31-.31,0-.63-.13-.85-.38-.43-.47-.4-1.21.07-1.64l3.38-3.11c.34-.31.8-.38,1.2-.23h3.36c.4-.15.87-.08,1.2.23l3.38,3.11c.47.43.5,1.17.07,1.64Z"/>
    <polygon class="cls-2" points="154.13 102.64 154.13 103.28 151.72 105.47 150.22 105.47 147.81 103.28 147.81 102.64 154.13 102.64"/>
    <circle class="cls-5" cx="150.97" cy="95.16" r="3.47"/>
  </g>
  <line class="cls-4" x1="1.74" y1="114.94" x2="201.15" y2="114.94"/>
  <g>
    <path class="cls-5" d="m180.34,56.44c-.31,0-.61-.13-.83-.39l-1.49-1.8c-.3-.37-.33-.89-.06-1.28l1.04-1.98c.33-.49,1.45-.86,1.94-.53.49.33.43,1.89.1,2.38l-.85.66.98,1.18c.38.46.31,1.13-.14,1.51-.2.17-.44.25-.68.25Z"/>
    <path class="cls-5" d="m183.07,56.44c.31,0,.61-.13.83-.39l1.49-1.8c.3-.37.33-.89.06-1.28l-1.04-1.98c-.33-.49-1.45-.86-1.94-.53-.49.33-.43,1.89-.1,2.38l.85.66-.98,1.18c-.38.46-.31,1.13.14,1.51.2.17.44.25.68.25Z"/>
    <path class="cls-5" d="m187.03,50.73c-.19.21-.46.32-.72.32-.24,0-.48-.09-.66-.26l-1.35-1.25v.9h-5.26v-.87l-1.32,1.21c-.19.18-.43.26-.66.26-.27,0-.53-.11-.72-.32-.37-.4-.34-1.02.06-1.39l2.86-2.63c.28-.26.68-.32,1.02-.19h2.85c.34-.13.73-.07,1.02.19l2.86,2.63c.4.37.43.99.06,1.39Z"/>
    <polygon class="cls-1" points="184.35 50.44 184.35 50.99 182.31 52.85 181.04 52.85 179 50.99 179 50.44 184.35 50.44"/>
    <circle class="cls-5" cx="181.67" cy="44.11" r="2.94"/>
    <path class="cls-5" d="m180.34,56.44c-.31,0-.61-.13-.83-.39l-1.49-1.8c-.3-.37-.33-.89-.06-1.28l1.04-1.98c.33-.49,1.45-.86,1.94-.53.49.33.43,1.89.1,2.38l-.85.66.98,1.18c.38.46.31,1.13-.14,1.51-.2.17-.44.25-.68.25Z"/>
    <path class="cls-5" d="m183.07,56.44c.31,0,.61-.13.83-.39l1.49-1.8c.3-.37.33-.89.06-1.28l-1.04-1.98c-.33-.49-1.45-.86-1.94-.53-.49.33-.43,1.89-.1,2.38l.85.66-.98,1.18c-.38.46-.31,1.13.14,1.51.2.17.44.25.68.25Z"/>
    <path class="cls-5" d="m187.03,50.73c-.19.21-.46.32-.72.32-.24,0-.48-.09-.66-.26l-1.35-1.25v.9h-5.26v-.87l-1.32,1.21c-.19.18-.43.26-.66.26-.27,0-.53-.11-.72-.32-.37-.4-.34-1.02.06-1.39l2.86-2.63c.28-.26.68-.32,1.02-.19h2.85c.34-.13.73-.07,1.02.19l2.86,2.63c.4.37.43.99.06,1.39Z"/>
    <polygon class="cls-3" points="184.35 50.44 184.35 50.99 182.31 52.85 181.04 52.85 179 50.99 179 50.44 184.35 50.44"/>
    <circle class="cls-5" cx="181.67" cy="44.11" r="2.94"/>
    <path class="cls-5" d="m180.34,38.68c-.31,0-.61-.13-.83-.39l-1.49-1.8c-.3-.37-.33-.89-.06-1.28l1.04-1.98c.33-.49,1.45-.86,1.94-.53.49.33.43,1.89.1,2.38l-.85.66.98,1.18c.38.46.31,1.13-.14,1.51-.2.17-.44.25-.68.25Z"/>
    <path class="cls-5" d="m183.07,38.68c.31,0,.61-.13.83-.39l1.49-1.8c.3-.37.33-.89.06-1.28l-1.04-1.98c-.33-.49-1.45-.86-1.94-.53-.49.33-.43,1.89-.1,2.38l.85.66-.98,1.18c-.38.46-.31,1.13.14,1.51.2.17.44.25.68.25Z"/>
    <path class="cls-5" d="m187.03,32.97c-.19.21-.46.32-.72.32-.24,0-.48-.09-.66-.26l-1.35-1.25v.9h-5.26v-.87l-1.32,1.21c-.19.18-.43.26-.66.26-.27,0-.53-.11-.72-.32-.37-.4-.34-1.02.06-1.39l2.86-2.63c.28-.26.68-.32,1.02-.19h2.85c.34-.13.73-.07,1.02.19l2.86,2.63c.4.37.43.99.06,1.39Z"/>
    <polygon class="cls-1" points="184.35 32.68 184.35 33.23 182.31 35.09 181.04 35.09 179 33.23 179 32.68 184.35 32.68"/>
    <circle class="cls-5" cx="181.67" cy="26.35" r="2.94"/>
    <path class="cls-5" d="m180.34,38.68c-.31,0-.61-.13-.83-.39l-1.49-1.8c-.3-.37-.33-.89-.06-1.28l1.04-1.98c.33-.49,1.45-.86,1.94-.53.49.33.43,1.89.1,2.38l-.85.66.98,1.18c.38.46.31,1.13-.14,1.51-.2.17-.44.25-.68.25Z"/>
    <path class="cls-5" d="m183.07,38.68c.31,0,.61-.13.83-.39l1.49-1.8c.3-.37.33-.89.06-1.28l-1.04-1.98c-.33-.49-1.45-.86-1.94-.53-.49.33-.43,1.89-.1,2.38l.85.66-.98,1.18c-.38.46-.31,1.13.14,1.51.2.17.44.25.68.25Z"/>
    <path class="cls-5" d="m187.03,32.97c-.19.21-.46.32-.72.32-.24,0-.48-.09-.66-.26l-1.35-1.25v.9h-5.26v-.87l-1.32,1.21c-.19.18-.43.26-.66.26-.27,0-.53-.11-.72-.32-.37-.4-.34-1.02.06-1.39l2.86-2.63c.28-.26.68-.32,1.02-.19h2.85c.34-.13.73-.07,1.02.19l2.86,2.63c.4.37.43.99.06,1.39Z"/>
    <polygon class="cls-3" points="184.35 32.68 184.35 33.23 182.31 35.09 181.04 35.09 179 33.23 179 32.68 184.35 32.68"/>
    <circle class="cls-5" cx="181.67" cy="26.35" r="2.94"/>
    <path class="cls-5" d="m180.34,74.2c-.31,0-.61-.13-.83-.39l-1.49-1.8c-.3-.37-.33-.89-.06-1.28l1.04-1.98c.33-.49,1.45-.86,1.94-.53.49.33.43,1.89.1,2.38l-.85.66.98,1.18c.38.46.31,1.13-.14,1.51-.2.17-.44.25-.68.25Z"/>
    <path class="cls-5" d="m183.07,74.2c.31,0,.61-.13.83-.39l1.49-1.8c.3-.37.33-.89.06-1.28l-1.04-1.98c-.33-.49-1.45-.86-1.94-.53-.49.33-.43,1.89-.1,2.38l.85.66-.98,1.18c-.38.46-.31,1.13.14,1.51.2.17.44.25.68.25Z"/>
    <path class="cls-5" d="m187.03,68.49c-.19.21-.46.32-.72.32-.24,0-.48-.09-.66-.26l-1.35-1.25v.9h-5.26v-.87l-1.32,1.21c-.19.18-.43.26-.66.26-.27,0-.53-.11-.72-.32-.37-.4-.34-1.02.06-1.39l2.86-2.63c.28-.26.68-.32,1.02-.19h2.85c.34-.13.73-.07,1.02.19l2.86,2.63c.4.37.43.99.06,1.39Z"/>
    <polygon class="cls-1" points="184.35 68.2 184.35 68.75 182.31 70.6 181.04 70.6 179 68.75 179 68.2 184.35 68.2"/>
    <circle class="cls-5" cx="181.67" cy="61.87" r="2.94"/>
    <path class="cls-5" d="m180.34,74.2c-.31,0-.61-.13-.83-.39l-1.49-1.8c-.3-.37-.33-.89-.06-1.28l1.04-1.98c.33-.49,1.45-.86,1.94-.53.49.33.43,1.89.1,2.38l-.85.66.98,1.18c.38.46.31,1.13-.14,1.51-.2.17-.44.25-.68.25Z"/>
    <path class="cls-5" d="m183.07,74.2c.31,0,.61-.13.83-.39l1.49-1.8c.3-.37.33-.89.06-1.28l-1.04-1.98c-.33-.49-1.45-.86-1.94-.53-.49.33-.43,1.89-.1,2.38l.85.66-.98,1.18c-.38.46-.31,1.13.14,1.51.2.17.44.25.68.25Z"/>
    <path class="cls-5" d="m187.03,68.49c-.19.21-.46.32-.72.32-.24,0-.48-.09-.66-.26l-1.35-1.25v.9h-5.26v-.87l-1.32,1.21c-.19.18-.43.26-.66.26-.27,0-.53-.11-.72-.32-.37-.4-.34-1.02.06-1.39l2.86-2.63c.28-.26.68-.32,1.02-.19h2.85c.34-.13.73-.07,1.02.19l2.86,2.63c.4.37.43.99.06,1.39Z"/>
    <polygon class="cls-3" points="184.35 68.2 184.35 68.75 182.31 70.6 181.04 70.6 179 68.75 179 68.2 184.35 68.2"/>
    <circle class="cls-5" cx="181.67" cy="61.87" r="2.94"/>
    <path class="cls-5" d="m180.34,91.91c-.31,0-.61-.13-.83-.39l-1.49-1.8c-.3-.37-.33-.89-.06-1.28l1.04-1.98c.33-.49,1.45-.86,1.94-.53.49.33.43,1.89.1,2.38l-.85.66.98,1.18c.38.46.31,1.13-.14,1.51-.2.17-.44.25-.68.25Z"/>
    <path class="cls-5" d="m183.07,91.91c.31,0,.61-.13.83-.39l1.49-1.8c.3-.37.33-.89.06-1.28l-1.04-1.98c-.33-.49-1.45-.86-1.94-.53-.49.33-.43,1.89-.1,2.38l.85.66-.98,1.18c-.38.46-.31,1.13.14,1.51.2.17.44.25.68.25Z"/>
    <path class="cls-5" d="m187.03,86.19c-.19.21-.46.32-.72.32-.24,0-.48-.09-.66-.26l-1.35-1.25v.9h-5.26v-.87l-1.32,1.21c-.19.18-.43.26-.66.26-.27,0-.53-.11-.72-.32-.37-.4-.34-1.02.06-1.39l2.86-2.63c.28-.26.68-.32,1.02-.19h2.85c.34-.13.73-.07,1.02.19l2.86,2.63c.4.37.43.99.06,1.39Z"/>
    <polygon class="cls-1" points="184.35 85.91 184.35 86.46 182.31 88.31 181.04 88.31 179 86.46 179 85.91 184.35 85.91"/>
    <circle class="cls-5" cx="181.67" cy="79.58" r="2.94"/>
    <path class="cls-5" d="m180.34,91.91c-.31,0-.61-.13-.83-.39l-1.49-1.8c-.3-.37-.33-.89-.06-1.28l1.04-1.98c.33-.49,1.45-.86,1.94-.53.49.33.43,1.89.1,2.38l-.85.66.98,1.18c.38.46.31,1.13-.14,1.51-.2.17-.44.25-.68.25Z"/>
    <path class="cls-5" d="m183.07,91.91c.31,0,.61-.13.83-.39l1.49-1.8c.3-.37.33-.89.06-1.28l-1.04-1.98c-.33-.49-1.45-.86-1.94-.53-.49.33-.43,1.89-.1,2.38l.85.66-.98,1.18c-.38.46-.31,1.13.14,1.51.2.17.44.25.68.25Z"/>
    <path class="cls-5" d="m187.03,86.19c-.19.21-.46.32-.72.32-.24,0-.48-.09-.66-.26l-1.35-1.25v.9h-5.26v-.87l-1.32,1.21c-.19.18-.43.26-.66.26-.27,0-.53-.11-.72-.32-.37-.4-.34-1.02.06-1.39l2.86-2.63c.28-.26.68-.32,1.02-.19h2.85c.34-.13.73-.07,1.02.19l2.86,2.63c.4.37.43.99.06,1.39Z"/>
    <polygon class="cls-3" points="184.35 85.91 184.35 86.46 182.31 88.31 181.04 88.31 179 86.46 179 85.91 184.35 85.91"/>
    <circle class="cls-5" cx="181.67" cy="79.58" r="2.94"/>
    <path class="cls-5" d="m180.34,109.72c-.31,0-.61-.13-.83-.39l-1.49-1.8c-.3-.37-.33-.89-.06-1.28l1.04-1.98c.33-.49,1.45-.86,1.94-.53.49.33.43,1.89.1,2.38l-.85.66.98,1.18c.38.46.31,1.13-.14,1.51-.2.17-.44.25-.68.25Z"/>
    <path class="cls-5" d="m183.07,109.72c.31,0,.61-.13.83-.39l1.49-1.8c.3-.37.33-.89.06-1.28l-1.04-1.98c-.33-.49-1.45-.86-1.94-.53-.49.33-.43,1.89-.1,2.38l.85.66-.98,1.18c-.38.46-.31,1.13.14,1.51.2.17.44.25.68.25Z"/>
    <path class="cls-5" d="m187.03,104.01c-.19.21-.46.32-.72.32-.24,0-.48-.09-.66-.26l-1.35-1.25v.9h-5.26v-.87l-1.32,1.21c-.19.18-.43.26-.66.26-.27,0-.53-.11-.72-.32-.37-.4-.34-1.02.06-1.39l2.86-2.63c.28-.26.68-.32,1.02-.19h2.85c.34-.13.73-.07,1.02.19l2.86,2.63c.4.37.43.99.06,1.39Z"/>
    <polygon class="cls-1" points="184.35 103.72 184.35 104.27 182.31 106.12 181.04 106.12 179 104.27 179 103.72 184.35 103.72"/>
    <circle class="cls-5" cx="181.67" cy="97.39" r="2.94"/>
    <path class="cls-5" d="m180.34,109.72c-.31,0-.61-.13-.83-.39l-1.49-1.8c-.3-.37-.33-.89-.06-1.28l1.04-1.98c.33-.49,1.45-.86,1.94-.53.49.33.43,1.89.1,2.38l-.85.66.98,1.18c.38.46.31,1.13-.14,1.51-.2.17-.44.25-.68.25Z"/>
    <path class="cls-5" d="m183.07,109.72c.31,0,.61-.13.83-.39l1.49-1.8c.3-.37.33-.89.06-1.28l-1.04-1.98c-.33-.49-1.45-.86-1.94-.53-.49.33-.43,1.89-.1,2.38l.85.66-.98,1.18c-.38.46-.31,1.13.14,1.51.2.17.44.25.68.25Z"/>
    <path class="cls-5" d="m187.03,104.01c-.19.21-.46.32-.72.32-.24,0-.48-.09-.66-.26l-1.35-1.25v.9h-5.26v-.87l-1.32,1.21c-.19.18-.43.26-.66.26-.27,0-.53-.11-.72-.32-.37-.4-.34-1.02.06-1.39l2.86-2.63c.28-.26.68-.32,1.02-.19h2.85c.34-.13.73-.07,1.02.19l2.86,2.63c.4.37.43.99.06,1.39Z"/>
    <polygon class="cls-2" points="184.35 103.72 184.35 104.27 182.31 106.12 181.04 106.12 179 104.27 179 103.72 184.35 103.72"/>
    <circle class="cls-5" cx="181.67" cy="97.39" r="2.94"/>
    <path class="cls-5" d="m180.34,20.13c-.31,0-.61-.13-.83-.39l-1.49-1.8c-.3-.37-.33-.89-.06-1.28l1.04-1.98c.33-.49,1.45-.86,1.94-.53.49.33.43,1.89.1,2.38l-.85.66.98,1.18c.38.46.31,1.13-.14,1.51-.2.17-.44.25-.68.25Z"/>
    <path class="cls-5" d="m183.07,20.13c.31,0,.61-.13.83-.39l1.49-1.8c.3-.37.33-.89.06-1.28l-1.04-1.98c-.33-.49-1.45-.86-1.94-.53-.49.33-.43,1.89-.1,2.38l.85.66-.98,1.18c-.38.46-.31,1.13.14,1.51.2.17.44.25.68.25Z"/>
    <path class="cls-5" d="m187.03,14.41c-.19.21-.46.32-.72.32-.24,0-.48-.09-.66-.26l-1.35-1.25v.9h-5.26v-.87l-1.32,1.21c-.19.18-.43.26-.66.26-.27,0-.53-.11-.72-.32-.37-.4-.34-1.02.06-1.39l2.86-2.63c.28-.26.68-.32,1.02-.19h2.85c.34-.13.73-.07,1.02.19l2.86,2.63c.4.37.43.99.06,1.39Z"/>
    <polygon class="cls-1" points="184.35 14.13 184.35 14.67 182.31 16.53 181.04 16.53 179 14.67 179 14.13 184.35 14.13"/>
    <circle class="cls-5" cx="181.67" cy="7.79" r="2.94"/>
    <path class="cls-5" d="m180.34,20.13c-.31,0-.61-.13-.83-.39l-1.49-1.8c-.3-.37-.33-.89-.06-1.28l1.04-1.98c.33-.49,1.45-.86,1.94-.53.49.33.43,1.89.1,2.38l-.85.66.98,1.18c.38.46.31,1.13-.14,1.51-.2.17-.44.25-.68.25Z"/>
    <path class="cls-5" d="m183.07,20.13c.31,0,.61-.13.83-.39l1.49-1.8c.3-.37.33-.89.06-1.28l-1.04-1.98c-.33-.49-1.45-.86-1.94-.53-.49.33-.43,1.89-.1,2.38l.85.66-.98,1.18c-.38.46-.31,1.13.14,1.51.2.17.44.25.68.25Z"/>
    <path class="cls-5" d="m187.03,14.41c-.19.21-.46.32-.72.32-.24,0-.48-.09-.66-.26l-1.35-1.25v.9h-5.26v-.87l-1.32,1.21c-.19.18-.43.26-.66.26-.27,0-.53-.11-.72-.32-.37-.4-.34-1.02.06-1.39l2.86-2.63c.28-.26.68-.32,1.02-.19h2.85c.34-.13.73-.07,1.02.19l2.86,2.63c.4.37.43.99.06,1.39Z"/>
    <polygon class="cls-3" points="184.35 14.13 184.35 14.67 182.31 16.53 181.04 16.53 179 14.67 179 14.13 184.35 14.13"/>
    <circle class="cls-5" cx="181.67" cy="7.79" r="2.94"/>
  </g>
  <path d="m29.59,120.05v-.75c.7-.07,1.2-.18,1.47-.34s.49-.54.62-1.14h.77v7.73h-1.04v-5.49h-1.83Z"/>
  <path d="m59.47,123.83c.24-.49.71-.94,1.41-1.35l1.04-.6c.47-.27.79-.5.98-.69.3-.3.44-.64.44-1.03,0-.45-.14-.81-.41-1.08s-.63-.4-1.08-.4c-.67,0-1.13.25-1.39.76-.14.27-.21.65-.23,1.13h-.99c.01-.68.14-1.23.37-1.65.42-.75,1.17-1.13,2.24-1.13.89,0,1.54.24,1.95.72s.61,1.01.61,1.6c0,.62-.22,1.15-.66,1.59-.25.26-.71.57-1.36.93l-.74.41c-.35.2-.63.38-.83.56-.36.31-.59.66-.68,1.05h4.24v.92h-5.33c.04-.67.17-1.25.41-1.74Z"/>
  <path d="m89.75,124.92c-.41-.5-.62-1.12-.62-1.84h1.02c.04.5.14.87.28,1.09.25.41.71.61,1.37.61.51,0,.92-.14,1.24-.41s.47-.63.47-1.06c0-.53-.16-.91-.49-1.12s-.78-.32-1.36-.32c-.07,0-.13,0-.2,0s-.13,0-.2,0v-.86c.1.01.19.02.25.02s.14,0,.22,0c.36,0,.66-.06.9-.17.41-.2.62-.56.62-1.08,0-.39-.14-.68-.41-.89s-.59-.31-.96-.31c-.65,0-1.1.22-1.35.65-.14.24-.21.58-.23,1.02h-.96c0-.58.12-1.07.35-1.47.4-.72,1.1-1.08,2.1-1.08.79,0,1.4.18,1.84.53s.65.86.65,1.53c0,.48-.13.86-.38,1.16-.16.18-.36.33-.62.43.41.11.73.33.96.65s.34.71.34,1.17c0,.74-.24,1.34-.73,1.81s-1.18.7-2.08.7-1.58-.25-2-.76Z"/>
  <path d="m121.4,125.57v-1.9h-3.4v-.95l3.55-4.93h.82v5.03h1.14v.85h-1.14v1.9h-.98Zm-.02-2.75v-3.52l-2.49,3.52h2.49Z"/>
  <path d="m149,123.42c.07.56.32.94.77,1.15.23.11.5.16.8.16.58,0,1.01-.18,1.28-.55s.42-.78.42-1.22c0-.54-.17-.96-.5-1.26s-.73-.44-1.19-.44c-.34,0-.62.07-.86.2s-.45.31-.61.54l-.85-.05.59-4.18h4.03v.94h-3.3l-.33,2.16c.18-.14.35-.24.51-.31.29-.12.62-.18,1-.18.71,0,1.31.23,1.81.69s.74,1.04.74,1.74-.23,1.38-.68,1.94-1.18.84-2.17.84c-.63,0-1.19-.18-1.68-.53s-.76-.9-.82-1.64h1.01Z"/>
  <path d="m182.79,118.36c.34.45.51.91.51,1.39h-.96c-.06-.31-.15-.55-.28-.72-.23-.33-.59-.49-1.07-.49-.55,0-.98.25-1.3.76-.32.5-.5,1.23-.54,2.16.22-.33.51-.57.85-.74.31-.14.66-.22,1.04-.22.65,0,1.22.21,1.7.62s.73,1.03.73,1.86c0,.7-.23,1.33-.69,1.87s-1.11.82-1.96.82c-.73,0-1.35-.28-1.88-.83s-.79-1.48-.79-2.78c0-.96.12-1.78.35-2.45.45-1.29,1.28-1.93,2.48-1.93.87,0,1.47.22,1.81.67Zm-.73,5.93c.25-.34.38-.75.38-1.22,0-.4-.11-.78-.34-1.14s-.64-.54-1.24-.54c-.42,0-.79.14-1.1.42s-.47.7-.47,1.26c0,.49.14.9.43,1.24s.69.5,1.19.5.9-.17,1.15-.52Z"/>
  <path d="m10.6,118.91c.35.65.53,1.53.53,2.65,0,1.06-.16,1.95-.48,2.64-.46,1-1.21,1.5-2.25,1.5-.94,0-1.64-.41-2.1-1.23-.38-.68-.57-1.6-.57-2.75,0-.89.11-1.65.34-2.29.43-1.19,1.21-1.78,2.34-1.78,1.01,0,1.75.42,2.2,1.25Zm-.99,5.22c.3-.45.45-1.29.45-2.53,0-.89-.11-1.62-.33-2.2-.22-.57-.64-.86-1.28-.86-.58,0-1.01.27-1.27.82-.27.55-.4,1.35-.4,2.41,0,.8.09,1.44.26,1.93.26.74.71,1.11,1.35,1.11.51,0,.92-.23,1.22-.68Z"/>
  <rect class="cls-6" x="-890.26" y="-326.12" width="1466.44" height="999.05"/>
</svg>