<?xml version="1.0" encoding="UTF-8"?>
<svg id="Calque_1" data-name="Calque 1" xmlns="http://www.w3.org/2000/svg" viewBox="0 0 200.13 128.13">
  <defs>
    <style>
      .cls-1 {
        fill: #bfe6fc;
      }

      .cls-1, .cls-2, .cls-3, .cls-4, .cls-5, .cls-6 {
        stroke-linecap: round;
        stroke-linejoin: round;
      }

      .cls-1, .cls-2, .cls-3, .cls-4, .cls-7, .cls-6 {
        stroke: #000;
      }

      .cls-2 {
        fill: #fff;
      }

      .cls-3, .cls-4, .cls-5 {
        fill: none;
      }

      .cls-8 {
        fill: #f3d587;
      }

      .cls-9 {
        fill: #ff6d75;
      }

      .cls-10 {
        fill: #b4eac3;
      }

      .cls-11 {
        fill: #87f3b9;
      }

      .cls-4, .cls-7 {
        stroke-width: 2px;
      }

      .cls-5 {
        stroke: #fff;
        stroke-width: 8px;
      }

      .cls-7 {
        stroke-miterlimit: 10;
      }
    </style>
  </defs>
  <g>
    <g>
      <path class="cls-3" d="m103.32,36.9l2.05.08c9.02-9.29,22.4-26.88,31.33-25.32,5.36.93,6.01,8.04,8.29,14.51,2.28,6.48,2.84,10.11,6.26,16.81l1.63,2.62c1.33,2.13,3.22,3.89,5.54,4.88.63.27,1.32.5,2.05.65,3.92.83,4.7.59,4.65,2.75-.05,2.15-14.71,1.31-16.54,1.27-.75-.02-.86-1.3-.72-2.81.31-3.47-.59-6.93-2.65-9.73-.48-.66-1.02-1.39-1.62-2.2-3.76-5.09-6.81-7.33-8.72-14.46-.61-2.7-.05-4.12-.05-4.12-2.12,2.46-9.44,22.24-25.61,32.73l-5.89-17.66"/>
      <g>
        <path class="cls-1" d="m88.51,30.07c2.38.25,4.67,1.7,6.68,2.9,2.11,1.27,3.3,3.64,5.76,3.88,2.13.21,2.08.08,2.37.04,2.48-.36,3.88-1.84,4.14-2.13l2.67-2.92,4.1,18.78s-3.07,4.37-7.82,5.38c-2.76.58-11.68,1.08-15.41-1.13l-2.11-.99s-.01,0-.03,0c-.23-.09-.49.08-.66.22-.56.46-1.03,1.16-1.55,1.69-.57.59-1.18,1.17-1.89,1.59-1.3.76-2.9.76-4.36,1.06-1.59.33-3.21.57-4.82.77-.3.04-.6.07-.9.11-4.74-1.72-10.42-4.4-11.46-7.63-1.83-5.71,6.74-13.52,6.74-13.52.62.05,1.32-.12,2.05-.43,0,0,.01-.01.02-.01,2.69-1.14,4.61-3.47,7.05-5.03.13-.07.25-.15.38-.23,2.7-1.58,5.91-2.7,9.07-2.38Z"/>
        <path class="cls-2" d="m74.67,59.31s-.03,0-.05,0h0s.03,0,.05,0Z"/>
        <path class="cls-2" d="m53.16,47.21c.1.29.19.58.29.88,2.78,1.31,5.52-1.31,5.52-1.31,0,0,8.08-8.9,10.98-8.62,0,0-8.54,7.8-6.74,13.5.77.1,3.19.69,6.6.22,4.01-.55,9.53.15,9.53.15,1.34.15,2.02-1.03,2.88-1.83,1.4-1.32,2.98-2.42,4.47-3.63,1.56-1.28,3.11-2.56,4.55-3.98.92-.9,2.19-2.03,2.54-3.33.19-.72.39-1.41.3-2.16-.08-.65-.35-1.26-.29-1.93.07-.78.8-1.63,1.26-2.23.13-.17.2-.26.2-.26,0,0,.99-1.71,1.2-.92s.23,1.29.56.9c.32-.39,1.06-.32,1.33.12.28.43.92.14,1.34.71.42.58.76.8.81,1.52.04.71.92,1.28.57,2.3,0,.02-.01.04-.02.06-.38,1.01-1.83,2.48-2.23,3.05-.42.57-3.96,4.95-6.08,8.31-1.05,1.67-2.72,3.61-4.24,5.23-.48.5-.92,1.05-1.41,1.53-.6.59-1.28,1.3-2.03,1.79-.03.03-.05.04-.09.05-.03.03-.07.05-.11.07-.13.08-.25.14-.37.2-.05.03-.1.05-.15.07,0,0-.02.01-.03.01-.21.09-.44.15-.66.21-.62.15-1.27.21-1.9.29-.48.06-.94.14-1.39.29,0,0-.02,0-.03,0-.04,0-.07.01-.11.02-.15.03-.23.05-.23.05,0,0-2.98.52-5.29.77h-.05c-.76.09-1.45.14-1.93.13-1.93-.05-4.26.05-4.26.05,0,0-6.49,1.24-9.46.54-.96-.22-2.13-.58-3.28-1.08-.47-.2-.94-.43-1.38-.68-.93-.52-1.77-1.16-2.38-1.9-.15-.18-.28-.36-.4-.56-.35-.58-.56-1.22-.56-1.92,0-2.48-.34-5.2.96-6.74-3.39-.61-6.94-4.54-6.94-4.54,0,0-5.25-4.56-1.14-6.8,0,0,2.32-.3,5.59,1.77,3.27,2.07,3.87,1.75,4.47,1.75s0,1.28,0,1.28c0,0,2.75,3.2,1.63,5.23-.25.45-.68.83-1.37,1.12-.33.13-.66.21-1.01.25"/>
        <path class="cls-2" d="m68.42,59.49s-6.49,1.24-9.46.55c-1.35-.32-3.13-.9-4.67-1.77h0c-.24-14.17-10.46-22.47-10.46-22.47,0,0,2.32-.3,5.59,1.77,3.27,2.07,3.87,1.75,4.47,1.75s0,1.28,0,1.28c0,0,2.75,3.2,1.64,5.23-.24.45-.68.83-1.37,1.12-.33.14-.66.22-1.01.25.1.29.19.58.28.88,2.78,1.31,5.52-1.3,5.52-1.3,0,0,0,0,0,0-.1-.25-2.21-5.62-4.5-8.14-2.31-2.54-6.14-6.91-14.05-3.34-.12.05-.24.11-.36.17-3.71,1.76-5.32,6.29-5,10.18.54,6.65,6.11,7.93,11.21,10.14,2.53,1.1,5.02,2.3,7.39,3.72.2.12.41.24.61.34,6.99,3.71,14.16-.34,14.16-.34Z"/>
        <path class="cls-2" d="m49.39,41.76s1.27-.21,1.28-1.54"/>
      </g>
      <g>
        <polygon class="cls-6" points="136.64 51.94 141.57 47.67 136.64 43.4 136.64 51.94"/>
        <line class="cls-3" x1="136.64" y1="47.6" x2="123.06" y2="47.6"/>
      </g>
    </g>
    <g>
      <line class="cls-7" x1="29.26" y1="112.71" x2="170.87" y2="112.71"/>
      <g>
        <circle class="cls-9" cx="29.26" cy="92.76" r="11.89"/>
        <path class="cls-4" d="m41.15,92.76c0,6.57-5.32,11.89-11.89,11.89s-11.89-5.32-11.89-11.89,5.32-11.89,11.89-11.89c2.04,0,3.96.51,5.64,1.42"/>
        <path class="cls-4" d="m24.36,98.83c1.21-1.33,2.96-2.16,4.9-2.16s3.69.83,4.9,2.16"/>
        <g>
          <circle class="cls-6" cx="24.6" cy="90.47" r="1.49"/>
          <circle class="cls-6" cx="33.91" cy="90.47" r="1.49"/>
        </g>
      </g>
      <g>
        <circle class="cls-10" cx="123.66" cy="92.76" r="11.89"/>
        <path class="cls-4" d="m135.55,92.76c0,6.57-5.32,11.89-11.89,11.89s-11.89-5.32-11.89-11.89,5.32-11.89,11.89-11.89c2.04,0,3.96.51,5.64,1.42"/>
        <path class="cls-4" d="m128.56,97.24c-1.21,1.33-2.96,2.16-4.9,2.16s-3.69-.83-4.9-2.16"/>
        <g>
          <circle class="cls-6" cx="119.01" cy="90.47" r="1.49"/>
          <circle class="cls-6" cx="128.32" cy="90.47" r="1.49"/>
        </g>
      </g>
      <g>
        <circle class="cls-11" cx="170.87" cy="92.76" r="11.89"/>
        <path class="cls-4" d="m182.76,92.76c0,6.57-5.32,11.89-11.89,11.89s-11.89-5.32-11.89-11.89,5.32-11.89,11.89-11.89c2.04,0,3.96.51,5.64,1.42"/>
        <g>
          <circle class="cls-6" cx="166.23" cy="90.47" r="1.49"/>
          <circle class="cls-6" cx="175.54" cy="90.47" r="1.49"/>
        </g>
        <path class="cls-4" d="m175.44,95.91c0,2.52-2.04,4.56-4.56,4.56s-4.56-2.04-4.56-4.56h9.11Z"/>
      </g>
      <g>
        <circle class="cls-8" cx="76.46" cy="92.76" r="11.89"/>
        <path class="cls-4" d="m88.35,92.76c0,6.57-5.32,11.89-11.89,11.89s-11.89-5.32-11.89-11.89,5.32-11.89,11.89-11.89c2.04,0,3.96.51,5.64,1.42"/>
        <g>
          <circle class="cls-6" cx="71.81" cy="90.47" r="1.49"/>
          <circle class="cls-6" cx="81.11" cy="90.47" r="1.49"/>
        </g>
        <line class="cls-4" x1="70.94" y1="98.05" x2="81.11" y2="98.05"/>
      </g>
      <line class="cls-7" x1="29.26" y1="109.4" x2="29.26" y2="116.57"/>
      <line class="cls-7" x1="76.46" y1="109.4" x2="76.46" y2="116.57"/>
      <line class="cls-7" x1="123.66" y1="109.4" x2="123.66" y2="116.57"/>
      <line class="cls-7" x1="170.87" y1="109.4" x2="170.87" y2="116.57"/>
    </g>
  </g>
  <rect class="cls-5" x="-2464.14" y="-3875.04" width="6467.34" height="6437.3"/>
</svg>