<?xml version="1.0" encoding="UTF-8"?>
<svg id="Calque_1" data-name="Calque 1" xmlns="http://www.w3.org/2000/svg" viewBox="0 0 128 128">
  <defs>
    <style>
      .cls-1, .cls-2, .cls-3 {
        stroke: #000;
      }

      .cls-1, .cls-2, .cls-3, .cls-4 {
        stroke-linecap: round;
        stroke-linejoin: round;
      }

      .cls-1, .cls-3 {
        fill: #76ac75;
      }

      .cls-2, .cls-4 {
        fill: none;
      }

      .cls-3 {
        stroke-width: 2px;
      }

      .cls-4 {
        stroke: #fff;
        stroke-width: 8px;
      }
    </style>
  </defs>
  <path class="cls-1" d="m18.42,15.05s-2.59-2.97-3.13-4.37c-.54-1.4-1.04-3.37-1.04-3.37l1.5-1.73s.46,3.04,1.17,4.3,3.09,4.72,3.09,4.72l-1.58.46Z"/>
  <path class="cls-3" d="m33.79,53.8c-4.94-5.07-9.19-10.13-13.51-17.44-5.6-9.48-7.72-19.72-2.58-23.25,3.27-2.26,8.79.24,9.92.83,4.58,2.44,7.36,4.93,12.2,7.7,4.41,2.53,8.77,6.64,10.21,8.2,1.28,1.39,3.99,4.48,5.8,6.42,15.22,16.34,24.57,24.97,30.9,31.24,5.26,5.21,8.52,8.4,11.56,11.98,6.07,7.16,15.38,20.88,17.68,26.25,2.73,6.36,2.34,11.05-.87,14.05-2.48,2.32-9.78-.2-15.18-4.04-4.48-3.19-12.33-8.21-19.09-15.17-3.32-3.42-11.87-12.28-16.28-16.23-10.44-9.37-28.2-27.91-30.77-30.54Z"/>
  <path class="cls-2" d="m22.56,14.99c1.51.15,8.69,6.01,11.07,7.44,4.03,2.42,8.09,6.49,9.77,8.17,1.68,1.69,10.02,8.34,10.02,8.34,6.09,7.27,18.23,18.74,28.11,29.84,6.22,6.99,10.12,13.53,15.48,19.76,9.07,10.54,16.28,20.9,16.28,20.9"/>
  <path class="cls-2" d="m20.97,16.18s6.21,6.15,8.49,8.86c2.29,2.71,21.55,20.35,21.55,20.35,4.9,6.33,8.4,6.67,19.21,17.98,2.47,2.59,8.56,11.88,12.19,15.62,3.93,4.04,8.71,11.6,13.75,16.74,9.34,9.51,16.22,17.69,16.22,17.69"/>
  <path class="cls-2" d="m19.19,15.86c.08,2.19,3.63,6.05,4.58,8.74,2.53,7.12,25.66,28.77,25.66,28.77,2.18,1.96,12.5,14.38,24.84,26.19,3.27,3.13,6.62,6.33,9.89,9.46,3.64,3.48,7.19,6.88,10.44,10,9.08,8.71,17.01,17.94,17.01,17.94"/>
  <path class="cls-2" d="m17.62,17.31c-.45,2.28,1.22,7.96,2.1,10.38,3.42,9.38,33.62,39.26,33.62,39.26,16.04,17.08,50.11,45.51,54.88,50.35"/>
  <rect class="cls-4" x="-379.72" y="-2049.75" width="3385.57" height="2571.67"/>
</svg>