<?xml version="1.0" encoding="UTF-8"?>
<svg id="Calque_1" data-name="Calque 1" xmlns="http://www.w3.org/2000/svg" viewBox="0 0 128 128">
  <defs>
    <style>
      .cls-1 {
        fill: #76ac75;
      }

      .cls-1, .cls-2, .cls-3, .cls-4, .cls-5, .cls-6, .cls-7 {
        stroke: #000;
      }

      .cls-1, .cls-2, .cls-3, .cls-4, .cls-5, .cls-6, .cls-7, .cls-8 {
        stroke-linecap: round;
        stroke-linejoin: round;
      }

      .cls-2, .cls-9 {
        fill: #ff6d75;
      }

      .cls-3, .cls-7, .cls-8 {
        fill: none;
      }

      .cls-4 {
        fill: #d6d6d6;
      }

      .cls-4, .cls-5, .cls-6, .cls-7 {
        stroke-width: 2px;
      }

      .cls-5 {
        fill: #baa584;
      }

      .cls-6 {
        fill: #fff;
      }

      .cls-8 {
        stroke: #fff;
        stroke-width: 8px;
      }
    </style>
  </defs>
  <path class="cls-9" d="m35.05,54.36v51.55s-.33,10.8,33.14,10.8,29.76-12.54,29.76-12.54l.12-49.81s-14.1,5.56-31.42,5.56-31.6-5.56-31.6-5.56Z"/>
  <path class="cls-7" d="m98.85,36.16s-.01-.05-.03-.08c.01-.05.01-.09.01-.14.01.08.01.15.01.21Z"/>
  <path class="cls-7" d="m98.83,36.08c0,.06-.01.11-.03.18h0c.01.15.03.3.03.44,0,.48-.11.95-.31,1.42.11-.01.23-.01.34-.01v-1.95s-.01-.05-.03-.08Zm-64.35.62c0-.14.01-.28.03-.41h0c-.01-.08-.03-.13-.03-.19,0,.01-.01.03-.01.04v.03s-.01,1.21-.01,1.21c.03-.01.06-.01.1-.01-.05-.21-.08-.43-.08-.65Z"/>
  <path class="cls-7" d="m98.85,49.53v55.82c0,6.62-14.41,11.98-32.2,11.98s-32.2-5.36-32.2-11.98v-57.66c1.32-.51,2.81-.98,4.16-.39,2.81,1.23,2.21,5.84,4.56,6.34,1.9.41,2.87-2.49,5.5-2.27,2.1.18,2.42,2.1,4.67,2.27,2.15.18,2.47-1.56,4.54-1.67,3.64-.21,5.26,4.92,8.39,4.43,1.72-.28,1.54-1.88,3.72-2.52,2.87-.84,4.26,1.72,7.05.97,2.45-.67,2.3-2.86,4.67-3.35,2.49-.51,3.69,1.69,6.1,1.56,2.98-.19,3.03-4.57,5.99-5.51,1.87-.6,3.67,1.07,5.06,1.98Z"/>
  <path class="cls-6" d="m91.83,63.18v39.69c-2.27.72-5.02,1.33-8.12,1.82-4.95.77-10.8,1.22-17.06,1.22s-12.11-.45-17.06-1.22c-3.31-.51-6.23-1.19-8.59-1.96v-39.66c5.87,1.39,15.18,3.55,25.65,3.55s19.28-2.11,25.18-3.45Z"/>
  <path class="cls-5" d="m100.8,20.81c0,2.33-1.51,4.48-6.15,6.19-2.79,1.03-6.25,1.9-10.21,2.55-5.22.87-11.3,1.37-17.79,1.37s-12.57-.5-17.79-1.37c-3.95-.65-7.42-1.52-10.21-2.55-4.64-1.71-6.15-3.85-6.15-6.19,0-.49.13-.98.36-1.44.5-.67,1.08-1.32,1.71-1.96h.01c4.91-3.92,16.71-5.45,32.06-5.45s27.15,1.53,32.06,5.43h.01c.63.65,1.21,1.31,1.71,1.97.24.46.36.95.36,1.44Z"/>
  <path class="cls-7" d="m34.58,17.4c-.63.64-1.21,1.29-1.71,1.96.34-.68.92-1.34,1.71-1.96Z"/>
  <path class="cls-7" d="m100.43,19.36c-.5-.67-1.08-1.32-1.71-1.96.79.62,1.37,1.28,1.71,1.96Z"/>
  <path class="cls-5" d="m102.75,26.39c0,5.59-3.93,6.44-3.93,6.44v.4c0,1-.46-.35-1.33.39-.04.03-.06.05-.1.09-4.07,4.12-16.28,7.12-30.74,7.12s-26.68-3-30.74-7.12c-.93-.94-1.43.56-1.43-.48v-.4s-3.93-.85-3.93-6.44c0-2.97.85-5.1,2.32-7.03-.24.46-.36.95-.36,1.44,0,2.33,1.51,4.48,6.15,6.19,2.79,1.03,6.25,1.9,10.21,2.55,5.22.87,11.3,1.37,17.79,1.37s12.57-.5,17.79-1.37c3.95-.65,7.42-1.52,10.21-2.55,4.64-1.71,6.15-3.85,6.15-6.19,0-.49-.13-.98-.36-1.44,1.47,1.93,2.32,4.05,2.32,7.03Z"/>
  <path class="cls-5" d="m106.24,44.91c-.64.95-3.18-.44-4.56.97-1.24,1.27-.09,3.39-1.07,4.07-.46.31-1.07.04-1.77-.41-1.39-.92-3.19-2.59-5.06-1.98-2.96.94-3.01,5.32-5.99,5.51-2.41.14-3.62-2.07-6.1-1.56-2.37.49-2.22,2.69-4.67,3.35-2.8.75-4.18-1.81-7.05-.97-2.17.64-2,2.25-3.72,2.52-3.13.49-4.75-4.64-8.39-4.43-2.07.11-2.4,1.85-4.54,1.67-2.25-.18-2.57-2.1-4.67-2.27-2.62-.21-3.6,2.69-5.5,2.27-2.35-.5-1.74-5.11-4.56-6.34-1.34-.59-2.84-.13-4.16.39-1.48.58-2.76,1.22-3.38.56-.87-.9.89-2.87-.13-4.54-1.04-1.71-3.84-1.19-4.07-2.16-.24-1,2.54-2.75,4.54-3.46,1.04-.38,2.05-.62,3.03-.73.03-.01.06-.01.1-.01.97,4.77,12.48,8.65,27.3,9.34.49.03,1,.05,1.51.06.6.03,1.19.04,1.81.04.49.01.98.01,1.48.01,1.12,0,2.21-.01,3.29-.05.5-.01,1-.04,1.51-.06,2.71-.13,5.3-.36,7.75-.69,10.21-1.36,17.71-4.32,19.32-7.88.11-.01.23-.01.34-.01.82-.04,1.61.04,2.36.23,3.4.84,5.82,5.4,5.03,6.58Z"/>
  <path class="cls-4" d="m98.8,36.26h0c.01.15.03.3.03.44,0,.48-.11.95-.31,1.42-1.61,3.57-9.11,6.53-19.32,7.88-2.45.33-5.03.56-7.75.69-.5.03-1,.05-1.51.06-1.08.04-2.17.05-3.29.05-.5,0-.99,0-1.48-.01-.62,0-1.21-.01-1.81-.04-.5-.01-1.02-.04-1.51-.06-14.83-.69-26.34-4.57-27.3-9.34-.05-.21-.08-.43-.08-.65,0-.14.01-.28.03-.41h0c-.01-.08-.03-.13-.03-.19v-2.86c0,1.04.5-.46,1.43.48,4.07,4.12,16.28,7.12,30.74,7.12s26.68-3,30.74-7.12c.04-.04.06-.06.1-.09.87-.65,1.33,1.87,1.33.87v1.59c0,.06-.01.11-.03.18Z"/>
  <line class="cls-7" x1="34.48" y1="36.7" x2="34.48" y2="36.09"/>
  <line class="cls-7" x1="98.83" y1="36.7" x2="98.83" y2="36.08"/>
  <g>
    <path class="cls-2" d="m70.58,76.66c-.97-2.18-3.92-3.36-6.06-3.48-3.91-.23-6.65,2.97-7.13,3.53-2.14,2.49-2.82,6.68-2.69,12.9,0,.2.34,5.09,1.19,7.02.54,1.24,1.09,1.65,1.47,1.84.8.41,2.75.42,3.28.39,2.71-.15,1.83-.12,4.16-.42,2.24-.28,7.82-.99,11.73-5.35,1.17-1.3,3.69-4.12,3.28-7.91-.21-1.92-1.28-5.07-3.64-5.99-1.87-.73-3.8.24-4.97-1.11-.41-.47-.34-.78-.62-1.43Z"/>
    <path class="cls-1" d="m72.41,79.93c-.16.41-.54,1.06-1.07,1.65-.16.18-.34.35-.52.52-.79.69-2.02.04-2.82-.06-.79-.1-1.64.84-1.64.84,0,0,.72-3.6,2.32-4.68.01,0,.02-.01.03-.02.82-.53,1.7-.38,2.37-.11.26.1.48.22.66.33.26.16.42.29.42.29,0,0,.18.27.26.6.03.11.05.22.05.33,0,.1-.01.21-.05.31Z"/>
    <path class="cls-1" d="m73.2,76.78h0c-.46.5-.91,1-1.27,1.4-.03-.07-.12-.3-.22-.61-.12-.35-.26-.81-.38-1.31h0s-.02-.06-.02-.09c-.11-.44-.19-.9-.21-1.32,0-.03,0-.05,0-.08-.08-1.47,1.9-2.75,1.9-2.75,0,0,1.11,2.1.74,3.59-.11.43-.3.82-.52,1.17Z"/>
    <path class="cls-1" d="m79.29,78.58s-.7.89-1.62,1.5c-.18.12-.37.24-.58.34-.82.43-1.77.72-2.49.62-.04,0-.08-.01-.12-.03,0-.04-.02-.08-.02-.11-.03.03-.06.06-.08.08-.58-.24-1.17-1.02-1.47-1.47l-.44.1c0-.11-.02-.22-.05-.33.16-.18.39-.43.67-.73.26-.27.56-.58.88-.87.08-.05.16-.08.25-.09.81-.17,2.91.66,3.5.79.59.14,1.57.2,1.57.2Z"/>
    <path class="cls-1" d="m74.47,81.01s-.07-.02-.11-.03c.03-.02.05-.05.08-.08,0,.04.02.08.02.11Z"/>
    <path class="cls-1" d="m73.23,86.91s-.8-1.51-1.5-3.02c-.32-.67-.4-1.55-.39-2.32.53-.59.91-1.24,1.07-1.65.04-.1.05-.21.05-.31l.44-.1c.3.44.89,1.23,1.47,1.47.04.01.07.03.11.03.11.55.2,1.13.24,1.61,0,.17.02.33.01.48-.04,1.18-1.5,3.81-1.5,3.81Z"/>
    <path class="cls-1" d="m74.47,81.01s-.07-.02-.11-.03c.03-.02.05-.05.08-.08,0,.04.02.08.02.11Z"/>
    <path class="cls-1" d="m74.47,81.01s-.07-.02-.11-.03c.03-.02.05-.05.08-.08,0,.04.02.08.02.11Z"/>
    <path class="cls-1" d="m79.31,85.45s-.76-1.95-2.24-2.21c-.84-.15-1.7-.37-2.35-.62-.04-.48-.14-1.06-.24-1.61.04.02.08.02.12.03.71.1,1.67-.19,2.49-.62.59.2,1.2.46,1.53.78.78.73,1.08,1.95,1.06,2.49-.02.54-.37,1.76-.37,1.76Z"/>
    <path class="cls-1" d="m71.3,76.17s-.08,0-.12,0h0c-.74-.48-1.63-1.01-2.11-1.12-.62-.14-1.65,0-2.5.06-.36-.47-.64-1.04-.76-1.41-.2-.63.12-2.28.25-1.78.13.51.87,1.02,1.4,1.22.9.35,1.48,0,2.37.42.4.18.87.74,1.27,1.29.02.42.11.88.21,1.32Z"/>
    <path class="cls-1" d="m71.92,78.18c-.07.08-.13.15-.19.21-.18-.11-.4-.23-.66-.33-.67-.27-1.55-.42-2.37.11-.71-.2-1.53-.46-2.21-.74-1.56-.64-2.54-2.94-2.54-2.94,0,0,.72.48,1.54.61.27.04.64.03,1.05,0,.85-.06,1.88-.2,2.5-.06.48.1,1.37.64,2.11,1.12h0s.09.06.14.09h0c.12.5.26.96.38,1.31.11.32.2.54.22.61Z"/>
    <path class="cls-1" d="m79.9,75.24s-2.68.41-4.2,1.15c-.56.28-1.18.77-1.74,1.29-.32.3-.62.6-.88.87-.28.3-.51.55-.67.73-.09-.33-.26-.6-.26-.6,0,0-.16-.13-.42-.29.06-.07.13-.14.19-.21.36-.4.82-.91,1.27-1.4h0c.56-.61,1.11-1.19,1.47-1.54.99-.96,3.56-1.15,3.56-1.15l1.67,1.15Z"/>
    <line class="cls-3" x1="62.01" y1="77.56" x2="61.57" y2="78.7"/>
    <line class="cls-3" x1="64.12" y1="80.97" x2="63.67" y2="82.1"/>
    <line class="cls-3" x1="58.44" y1="81.95" x2="57.99" y2="83.09"/>
    <line class="cls-3" x1="62.14" y1="85.43" x2="61.7" y2="86.56"/>
    <line class="cls-3" x1="68.47" y1="84.39" x2="68.02" y2="85.52"/>
    <line class="cls-3" x1="68.25" y1="88.19" x2="67.81" y2="89.32"/>
    <line class="cls-3" x1="72.78" y1="88" x2="72.34" y2="89.13"/>
    <line class="cls-3" x1="77.66" y1="85.64" x2="77.22" y2="86.77"/>
    <line class="cls-3" x1="73.74" y1="92.25" x2="73.3" y2="93.39"/>
    <line class="cls-3" x1="68.38" y1="93.67" x2="67.93" y2="94.8"/>
    <line class="cls-3" x1="63.61" y1="90.76" x2="63.16" y2="91.9"/>
    <line class="cls-3" x1="58.51" y1="86.48" x2="58.06" y2="87.61"/>
    <line class="cls-3" x1="59.1" y1="89.81" x2="58.66" y2="90.94"/>
    <line class="cls-3" x1="57.22" y1="93.42" x2="56.78" y2="94.55"/>
    <line class="cls-3" x1="61.68" y1="95.67" x2="61.24" y2="96.8"/>
  </g>
  <rect class="cls-8" x="-452.85" y="-848.4" width="3385.57" height="2571.67"/>
</svg>