<?xml version="1.0" encoding="UTF-8"?>
<svg id="Calque_1" data-name="Calque 1" xmlns="http://www.w3.org/2000/svg" viewBox="0 0 128 128">
  <defs>
    <style>
      .cls-1, .cls-2, .cls-3, .cls-4, .cls-5, .cls-6, .cls-7, .cls-8 {
        stroke: #000;
      }

      .cls-1, .cls-2, .cls-3, .cls-4, .cls-9 {
        stroke-linecap: round;
        stroke-linejoin: round;
      }

      .cls-1, .cls-6 {
        fill: #d6d6d6;
      }

      .cls-2 {
        fill: #f3d587;
      }

      .cls-3, .cls-5 {
        fill: #fff;
      }

      .cls-4, .cls-9, .cls-8 {
        fill: none;
      }

      .cls-10, .cls-7 {
        fill: #1d1d1b;
      }

      .cls-5 {
        stroke-width: 2px;
      }

      .cls-5, .cls-6, .cls-7, .cls-8 {
        stroke-miterlimit: 10;
      }

      .cls-9 {
        stroke: #fff;
        stroke-width: 8px;
      }
    </style>
  </defs>
  <g>
    <polygon class="cls-3" points="32.2 71.53 105.49 71.57 105.33 63.48 32.05 63.72 32.2 71.53"/>
    <polygon class="cls-2" points="82.34 71.55 105.49 71.57 105.33 63.48 82.19 63.73 82.34 71.55"/>
    <path class="cls-1" d="m32.05,63.72s-1.68-.68-2.68-.27c-.99.41-.63,2.54-1.4,2.9-.77.35-1.55.93-.79,3.08.36,1.01.86.48,1.43,1.14.57.66,1.03,1.04,1.75,1.02.72-.02,1.83-.06,1.83-.06l-.15-7.81Z"/>
    <g>
      <line class="cls-4" x1="85" y1="67.64" x2="85.76" y2="66.76"/>
      <line class="cls-4" x1="87.86" y1="69.51" x2="88.61" y2="68.63"/>
      <line class="cls-4" x1="91.33" y1="67.07" x2="92.09" y2="66.19"/>
      <line class="cls-4" x1="94.26" y1="69.37" x2="95.01" y2="68.49"/>
      <line class="cls-4" x1="98.06" y1="66.93" x2="98.81" y2="66.04"/>
      <line class="cls-4" x1="101.09" y1="69.22" x2="101.84" y2="68.34"/>
    </g>
    <path class="cls-4" d="m31.57,59.47c-.04-2.07.62-3.82,2.11-5.26.62-.6,1.27-1.2,1.6-1.99.88-2.11-2.13-4.36-3.62-2.39-.62.82-.74,2.09-.04,2.85"/>
    <path class="cls-4" d="m29.75,56.29c.29-.9.17-1.88-.12-2.78s-.72-1.74-1.07-2.61c-.52-1.28-.86-2.68-.61-4.04s1.23-2.65,2.58-2.95c.48-.11,1.02-.07,1.43.2.62.41.81,1.31.5,1.99s-1.04,1.1-1.79,1.16"/>
  </g>
  <path class="cls-8" d="m50.44,86.24h31.26c.94,0,1.71.77,1.71,1.71v6.6c0,.75-.61,1.36-1.36,1.36h-31.82c-.71,0-1.28-.57-1.28-1.28v-6.9c0-.82.67-1.49,1.49-1.49Z" transform="translate(132.36 182.15) rotate(-180)"/>
  <path class="cls-6" d="m84.88,86.24h31.26c.94,0,1.71.77,1.71,1.71v6.6c0,.75-.61,1.36-1.36,1.36h-31.82c-.71,0-1.28-.57-1.28-1.28v-6.9c0-.82.67-1.49,1.49-1.49Z" transform="translate(201.24 182.15) rotate(-180)"/>
  <path class="cls-10" d="m49.83,89.91h25.12c.7,0,1.27.57,1.27,1.27v.07c0,.55-.45,1-1,1h-25.53c-.52,0-.95-.43-.95-.95v-.29c0-.61.49-1.1,1.1-1.1Z" transform="translate(124.95 182.15) rotate(-180)"/>
  <path class="cls-7" d="m50.42,86.24h10.3c.94,0,1.71.77,1.71,1.71v6.6c0,.75-.61,1.36-1.36,1.36h-10.86c-.71,0-1.28-.57-1.28-1.28v-6.9c0-.82.67-1.49,1.49-1.49Z" transform="translate(111.36 182.15) rotate(-180)"/>
  <path class="cls-6" d="m49.02,86.87v8.31c0,.4-.33.73-.73.73h-11.66c-.37,0-.9-.44-1.05-.9-.01-.04-.07-.04-.08,0-.1.53-.44.93-1.12.89l-19.57-2.55c-.28,0-.51-.37-.51-.83v-3.08c0-.37.19-.66.41-.66l19.74-2.55c.13,0,.76.24.91.74.04.14.24.14.28,0,.15-.52.57-.74.82-.74h11.93c.34,0,.62.28.62.62Z"/>
  <rect class="cls-10" x="13.18" y="86.46" width="1.58" height="9.23" rx=".76" ry=".76" transform="translate(27.93 182.15) rotate(180)"/>
  <path class="cls-4" d="m11.13,90.04c-.43-2.14-.07-4.08,1.21-5.85.53-.73,1.09-1.48,1.29-2.37.52-2.36-3.02-4.12-4.2-1.81-.49.97-.37,2.3.49,2.97"/>
  <path class="cls-4" d="m8.64,87.08c.13-.98-.18-1.98-.64-2.86s-1.07-1.67-1.59-2.51c-.78-1.23-1.4-2.62-1.39-4.08.01-1.46.78-2.98,2.12-3.53.48-.2,1.04-.27,1.52-.06.72.31,1.09,1.21.89,1.97s-.88,1.34-1.64,1.53"/>
  <g>
    <circle class="cls-5" cx="68.77" cy="31.09" r="12.77"/>
    <path d="m65.37,24.65c.86-.92,2.03-1.38,3.52-1.38,1.38,0,2.49.39,3.32,1.18s1.25,1.8,1.25,3.02c0,.74-.15,1.35-.46,1.81s-.92,1.14-1.85,2.04c-.67.65-1.11,1.2-1.31,1.66s-.3,1.12-.3,2h-1.87c0-1,.12-1.81.36-2.42s.76-1.32,1.57-2.11l.84-.83c.25-.24.46-.49.61-.75.28-.46.42-.93.42-1.42,0-.69-.21-1.28-.62-1.79s-1.09-.76-2.04-.76c-1.17,0-1.98.43-2.43,1.3-.25.48-.4,1.18-.43,2.09h-1.87c0-1.51.43-2.73,1.28-3.66Zm2.26,12.08h2.09v2.19h-2.09v-2.19Z"/>
  </g>
  <rect class="cls-9" x="-1249.07" y="-5192.27" width="6467.34" height="6437.3"/>
</svg>