<?xml version="1.0" encoding="UTF-8"?>
<svg id="Calque_1" data-name="Calque 1" xmlns="http://www.w3.org/2000/svg" viewBox="0 0 200.13 128.13">
  <defs>
    <style>
      .cls-1 {
        fill: #76ac75;
      }

      .cls-1, .cls-2, .cls-3, .cls-4, .cls-5, .cls-6, .cls-7, .cls-8, .cls-9, .cls-10, .cls-11, .cls-12, .cls-13, .cls-14, .cls-15, .cls-16, .cls-17, .cls-18, .cls-19 {
        stroke-linecap: round;
        stroke-linejoin: round;
      }

      .cls-1, .cls-2, .cls-3, .cls-4, .cls-5, .cls-6, .cls-7, .cls-8, .cls-9, .cls-10, .cls-12, .cls-13, .cls-14, .cls-15, .cls-16, .cls-17, .cls-19 {
        stroke: #000;
      }

      .cls-2 {
        fill: #d6d6d6;
      }

      .cls-3 {
        fill: #8987f3;
      }

      .cls-4 {
        fill: #87ccf3;
      }

      .cls-5 {
        fill: #a07637;
      }

      .cls-6, .cls-9 {
        fill: #ff6d75;
      }

      .cls-7, .cls-20, .cls-12, .cls-19 {
        fill: #fff;
      }

      .cls-8, .cls-10, .cls-11, .cls-16 {
        fill: none;
      }

      .cls-9 {
        stroke-width: .8px;
      }

      .cls-10 {
        stroke-width: .5px;
      }

      .cls-11 {
        stroke-width: 8px;
      }

      .cls-11, .cls-18 {
        stroke: #fff;
      }

      .cls-12, .cls-13, .cls-16 {
        stroke-width: .83px;
      }

      .cls-13 {
        fill: #b2f0e9;
      }

      .cls-14 {
        fill: #f3d587;
      }

      .cls-14, .cls-15 {
        stroke-width: .85px;
      }

      .cls-15 {
        fill: #bbfedb;
      }

      .cls-19 {
        stroke-width: .75px;
      }
    </style>
  </defs>
  <line class="cls-7" x1="0" y1="113.89" x2="114.75" y2="98.93"/>
  <line class="cls-8" x1="64.96" y1="122.31" x2="140.36" y2="106.41"/>
  <line class="cls-16" x1="82.42" y1="61.62" x2="84.52" y2="66.43"/>
  <polygon class="cls-20" points="126.52 71.13 126.52 78.21 0 97.46 0 76.73 102.12 63.02 126.52 71.13"/>
  <polyline class="cls-12" points="115.49 72.47 96.52 68.23 97.74 57.19"/>
  <polygon class="cls-7" points="90.99 41.56 0 47.39 -.79 80.43 10.47 79.26 98.74 67.94 90.99 41.56"/>
  <path d="m106.33,25.59c.41-.53.82-1.14.87-1.83.02-.28-.03-.56-.16-.82-.16-.33-.49-.54-.65-.86-.29-.57.63-.82.97-1.12.36-.32.52-.79.3-1.25-.26-.54-.88-.75-1.44-.69-.7.07-1.89.93-2.47.24-.51-.61-.13-1.46.41-1.89.61-.49,1.43-.72,2.18-.91.9-.24,1.82-.38,2.74-.44.57-.03,2.01-.23,2.33.41.68,1.39-4.15,1.35-4.86,1.36-.91.01-1.81,0-2.72-.02-.87-.02-1.78,0-2.61-.27-.76-.26-1.56-.91-1.55-1.78,0-.81.71-1.43,1.31-1.87,2.65-1.94,6-2.9,9.27-2.69.79.05,1.77.14,1.81,1.13.03.85-.62,1.43-1.32,1.77-1.53.74-3.45.96-5.13,1.07-1.83.12-3.68.02-5.49-.25-.87-.13-1.74-.3-2.6-.51-.79-.19-1.71-.39-2.26-1.04-1.46-1.73,1.55-2.7,2.71-3.13,1.58-.59,3.21-1.05,4.87-1.38,3.4-.68,6.92-.8,10.36-.34,1.5.2,3.37.66,3.18,2.58-.17,1.68-1.88,2.56-3.37,2.82-1.85.33-3.82.18-5.69.21-1.85.03-3.69.06-5.54.08-.44,0-.89.01-1.33.02-.51,0-1.1.08-1.57-.16-1.17-.6.15-1.49.8-1.75,1.62-.64,3.35-.96,5.08-1.11,3.58-.31,7.23-.09,10.82-.04.91.01,1.88,0,2.7.44.67.36,1.62,1.61.26,1.7-1.84.13-3.7.14-5.55.17-1.89.04-3.78.05-5.66,0-.89-.03-1.79-.04-2.68-.13-.81-.08-1.75-.31-2.15-1.1-.85-1.72,1.99-2.91,3.14-3.42,1.55-.7,3.19-1.19,4.87-1.47,1.35-.23,3.83-.65,3.81,1.42-.01,1.56-1.5,2.43-2.83,2.8-1.66.46-3.45.53-5.16.58-1.85.06-3.7.01-5.54-.06-.94-.04-1.97.03-2.88-.21-.82-.22-1.62-.94-1.17-1.85.4-.8,1.35-1.14,2.13-1.42.81-.3,1.64-.53,2.48-.72,1.77-.39,3.58-.56,5.38-.7.4-.03.81-.09,1.22-.09.23,0,.59.01.74.21.25.32-.04.62-.29.79-.72.49-1.66.76-2.48,1.01-1.66.5-3.37.71-5.1.65-.44-.01-.44.66,0,.68,2.16.07,4.33-.27,6.35-1.04.73-.28,1.78-.58,2.18-1.32.36-.66-.09-1.37-.75-1.58-.44-.13-.91-.07-1.36-.04-.59.05-1.18.09-1.77.15-1.07.1-2.14.22-3.19.4-1.09.19-2.17.44-3.21.8-.86.29-1.83.61-2.48,1.27-1.34,1.33-.43,3.09,1.23,3.48,1.06.24,2.22.19,3.3.23,1.18.04,2.36.07,3.55.07,2.16,0,4.4-.05,6.51-.51,1.51-.33,3.15-1.1,3.67-2.68.51-1.55-.35-3.05-2.01-3.19-.95-.08-1.97.11-2.9.29-1.04.2-2.07.48-3.08.84-.97.35-1.91.76-2.81,1.25-.79.43-1.63.93-2.06,1.75-.91,1.73.54,3.11,2.2,3.36,1.07.16,2.18.16,3.26.19,1.18.03,2.37.04,3.55.03,2.33-.02,4.66-.1,7-.18.73-.03,1.71.02,1.91-.88.16-.74-.32-1.43-.88-1.85-.75-.57-1.69-.72-2.61-.76-1.17-.05-2.34-.04-3.51-.05-4.31-.05-8.89-.42-13.02,1.07-.73.27-1.6.59-1.99,1.32-.34.64-.05,1.39.55,1.76.85.52,2.07.31,3.01.29,1.18-.02,2.36-.04,3.54-.05,2.34-.03,4.71.03,7.04-.13,1.76-.12,3.76-.68,4.65-2.36.79-1.48.3-3.29-1.25-3.99-.78-.35-1.66-.45-2.5-.55-1.07-.13-2.15-.21-3.23-.23-4.28-.09-8.6.68-12.58,2.27-1.34.53-3.47,1.4-2.81,3.25.65,1.84,3.27,2.08,4.89,2.36,2.18.38,4.41.55,6.62.38,1.08-.08,2.15-.24,3.21-.49.91-.21,1.88-.46,2.65-1.02,1.14-.83,1.62-2.87.06-3.56-.8-.36-1.87-.3-2.73-.28-.98.02-1.97.15-2.93.36-2.16.48-9.21,3.08-6.54,6.35,1.27,1.55,3.7,1.29,5.48,1.31,1.16.01,2.32,0,3.48-.08.89-.06,2.02-.06,2.82-.5.61-.33,1.05-1.08.71-1.76-.33-.64-1.13-.79-1.79-.82-1.09-.04-2.2.07-3.26.29-.95.19-1.95.44-2.8.92-.66.38-1.21.96-1.32,1.73-.08.62.12,1.34.66,1.7.86.56,1.73-.06,2.59-.24.56-.12,1.33.32.7.8-.26.21-.59.33-.83.56-.47.44-.42,1.03-.05,1.52.32.42.68.72.55,1.31-.11.5-.44.94-.75,1.33-.27.35.32.68.59.34h0Z"/>
  <path class="cls-12" d="m97.74,57.19s26.92,5.94,28.85,7.87c1.93,1.93,1.31,10.95,1.31,10.95l-12.41-3.54"/>
  <path class="cls-7" d="m93.71,44.99s3.3-.9,3.72,1.16.28,18.47.28,18.47l-9.55-9.51,5.54-10.11Z"/>
  <path class="cls-7" d="m85.56,40.6s3.58-2.38,5.43-3.01,2.69-1.33,3.26.49c.56,1.82.32,11.02.83,13.25s.01,4.75.83,6.48c.82,1.73,4.35,7.16,3.75,12.29"/>
  <path class="cls-7" d="m128.11,85.31s-.54-3.5-.06-6.05c.47-2.55-.36-3.89-1.8-3.85s-37.3,6.42-37.3,6.42l-54.32,7.51-28.2,3.26L0,93.3"/>
  <path class="cls-13" d="m104.89,78.67l-15.35-2.04s1.83,1.68,2.17,2.73,1.58,7.26,1.58,7.26l-10.88,1.99s-.57-2.57-1.5-3.56c-.93-.99-1.23-2.42-1.23-2.42l-10.63-5.05,1.16-9.45,7.95-9.37,11.84,3.17,3.58,2.51s3.91,1.94,10.37,3.31,11.36,2.66,12.03,5.92-.35,9.67-.35,9.67l-10.74.46"/>
  <path class="cls-4" d="m68.51,66.63l-15.72,1.59-9.35,8.26,21.62,15.41,10.76-1.06s-3.74-14.15-4.66-19.14c-.91-4.99-2.65-5.06-2.65-5.06"/>
  <line class="cls-16" x1="51.93" y1="44.01" x2="64.03" y2="43"/>
  <path class="cls-7" d="m22.12,79.26s-4.26.27-7.6.75c-3.34.49-4.18.84-4.06-.75s.82-4.24-.01-6.27-2.68-11.37-3.3-14.03c-.62-2.67-3.2-8.25-2.39-8.63s4.96-.3,8.36-.37,10.59-2.67,18.8-1.35"/>
  <path class="cls-8" d="m18.48,59.74s5.11,2.82,5.78,12.53"/>
  <path class="cls-4" d="m66.02,91.72l-9.28,1.58s-.23-3.79,1.77-5.75c0,0-6.62-1.22-13.88-1.23s-18.14.61-20.83-1.94c-2.69-2.55-1.89-7.53-1.89-7.53l17.63-5.72,8.44,2.55s9.88,1.77,13.02,2.98"/>
  <path class="cls-16" d="m84.22,42.84s-.28,3.68.47,6.05"/>
  <path class="cls-15" d="m70.38,53.82c.51-.95,1.04-1.06,2.02-1.25.98-.18,2.34.35,2.94,0,.6-.34,1.56-.32,1.56-.32l.81,3.86c-1.48-.2-2.82-.5-3.49-1-.72-.54-2.12-1.19-3.59-.7-.24-.21-.34-.42-.25-.59Z"/>
  <path class="cls-14" d="m94.07,62.18c-.51-.89-1.99-1.74-2.29-2.23-.29-.48-.79-1.68-.79-1.68l-.56-.05c1.66-.4,2.17-1.09,2.7-1.68.73-.81.44-3.37.57-5.35.14-1.97-4.42-7.78-5.2-8.67-.57-.65-1.19-1.53-2.05-2.5-.31-.35-.65-.71-1.04-1.08-1.45-1.39-9.93-2.51-9.93-2.51l-7.41.38s-1.07,1.54-3.92,2.21c-2.85.66-4.82,2.8-5.37,3.82-.55,1.02-1.41,5.54.71,11.43,2.11,5.89,3.57,5.95,5.13,6.49s5.6,7.37,5.6,7.37c0,0,1.26-.08,3.14-1.86,1.88-1.78,5.1-5.01,7.9-4.94,2.79.08,6.1.87,7.69,1.61,1.58.74,4.64,1.5,4.64,1.5,0,0,.99-1.37.48-2.26Zm-5.6-12.54c-.41-.01-.83.05-1.24.23-.01.01-.03.01-.04.02-.48.21-.9.36-1.28.47-.44.12-.83.2-1.16.25h0c-.39.08-.7.13-.97.21,0,0,.59-1.57,1.35-2.53.75-.96,1.25-.6,1.25-.6,0,0,.65-.58,1.21-.26.55.32.36.73.36.73,0,0,.62-.09.45.74,0,0,.29.26.07.74Z"/>
  <path class="cls-15" d="m76.9,52.25l.81,3.86c-1.48-.2-2.82-.5-3.49-1-.72-.54-2.12-1.19-3.59-.7-.24-.21-.34-.42-.25-.59.51-.95,1.04-1.06,2.02-1.25.98-.18,2.34.35,2.94,0,.6-.34,1.56-.32,1.56-.32Z"/>
  <path class="cls-16" d="m77.42,56.01c-.99-1.9-.37-4.18-.37-4.18.84-.59,6.04-.79,6.73-1.01"/>
  <path class="cls-16" d="m90.96,50.51s-1.17-.82-2.49-.87"/>
  <path class="cls-16" d="m70.63,54.41c-.99-.51-2.01-2.14-2.51-4.07s-2.59-2.62-3.41-4.36c-.82-1.73-3.19-2.43-3.19-2.43"/>
  <path class="cls-16" d="m65.79,55.98s2.43-2.47,4.84-1.57"/>
  <path class="cls-12" d="m77.71,56.11c-1.48-.2-2.82-.5-3.49-1-.72-.54-2.12-1.19-3.59-.7-.24-.21-.34-.42-.25-.59.51-.95,1.04-1.06,2.02-1.25.98-.18,2.34.35,2.94,0,.6-.34,1.56-.32,1.56-.32l.81,3.86Z"/>
  <path class="cls-10" d="m86.71,47.62s-1.63,1.81-1.63,2.92"/>
  <path class="cls-10" d="m87.79,48.29s-1.13-.44-2.05,2.22"/>
  <path class="cls-10" d="m88.19,48.84s-.67-.27-1.21.99"/>
  <path class="cls-16" d="m79.08,68.23c2.62.07,5.81,2,7,4.08,1.19,2.08,3.47,4.32,3.47,4.32l15.35,2.04s-1.02,1.94,0,5.13c1.02,3.19,0,0,0,0"/>
  <path class="cls-16" d="m80.36,61.42s1.29,3.06,1.65,3.62c.69,1.09,1.69,3.28,2.17,5"/>
  <polyline class="cls-7" points="38.91 94.71 38.81 108.51 64.91 122.31 65.06 108.03"/>
  <path class="cls-7" d="m68.22,37.38l.28-3.99.03-.45,6.17-1.19.16,1.28.52,4.34s.21,3.53.87,4.57c0,0,.38,1.82-.96,2.05s-5.63-3.28-7.07-6.61Z"/>
  <path class="cls-8" d="m65.63,28.82h-.01c-.11-.02-.85-.22-1.29-1.4-.48-1.27-1.02-1.13-1.07-2.44-.03-1.24,1.25-.7,1.4-.63"/>
  <path class="cls-7" d="m66.63,18.82c.57.03,1.23-.11,1.88-.56.27.17.56.25.87.21.44-.04.73-.34.93-.7.01,0,.02.02.03.02.12.12.91.81,1.88-.14.51.61,1.31.67,2.05.53.45.34,1.05.31,1.05.31.04.05.08.11.11.16,1.82,2.57,2,4.32,2.01,4.5.11-.46.19-.89.25-1.31-.1.77-.24,1.33-.28,1.45h0s0,.03,0,.03h.01c.03.73.03,2.61-.26,4.56-.25,1.62-.74,3.29-1.63,4.37-2.06,2.5-3.39,2.56-3.59,2.54-.21.05-1.61.26-4.04-1.91-1.04-.92-1.78-2.5-2.28-4.06-.6-1.88-.88-3.74-.96-4.47h.01c-.02-.08-.02-.17-.02-.26.03.07.05.11.05.11-.02-.3-.03-.61-.02-.9.2-1.51,1.58-4.02,1.74-4.45l.2-.04Z"/>
  <path class="cls-8" d="m64.68,23.31c-.04.29-.05.55-.03.79"/>
  <path class="cls-8" d="m64.67,24.35s0-.01-.01-.02h0c-.06-.15-.39-.89-.62-1.9v-.03c-.45-2.02-.47-5.06,2.88-6.42,0,0,.21-1.1,1.62-.93,0,0,1.64-1.79,3.62-.32,1.37-.39,1.75.67,1.75.67,3.79.89,4.03,4.3,3.81,6.34,0,.04-.02.07-.01.11"/>
  <path class="cls-8" d="m75.48,18.86s1.95,2.83,1.95,4.47"/>
  <path class="cls-8" d="m64.62,24.04h0s0,.14.03.28h0s0,.03,0,.03"/>
  <path class="cls-8" d="m77.43,23.32v-.02"/>
  <path class="cls-8" d="m77.42,23.01s0,.1.01.28"/>
  <path class="cls-8" d="m77.16,27.89h.01c.1-.04.81-.35,1.06-1.58.27-1.33.83-1.27.68-2.58-.16-1.23-1.35-.5-1.48-.41"/>
  <path class="cls-7" d="m71.66,23.16s.44,3.92,1.29,5.88c0,0-.17.4-1.44.15"/>
  <ellipse class="cls-7" cx="69.03" cy="25.04" rx=".14" ry=".39" transform="translate(-1.73 5.4) rotate(-4.42)"/>
  <ellipse class="cls-7" cx="74.43" cy="24.52" rx=".14" ry=".39" transform="translate(-1.67 5.82) rotate(-4.42)"/>
  <g>
    <path class="cls-1" d="m48.62,66.68c.59-2.01,1.91-6,3.03-7.04,0,0,.25,4.4,1.25,6.5l6.19-2.28c-.73-2.44-1.73-6.54-1.89-10.89-.24-6.92-1.79-9.27-3.07-9.98-.03-.02-.06-.03-.09-.06-1.29-.73-3.62-2.76-3.62-2.76,0,0-1.82-.24-5.57-.35-.54-.1-2.98-.2-4.27-.09-.46.04-.95.1-1.48.18-6.06.93-9.97,5.44-12.25,13.79-2.28,8.34-4.8,18.48-5.13,19.98-.34,1.51-.21,6.79.1,6.33s3.45-4.42,10.75-5.14c2.36-.23,4.08-1.82,6.36-2.26"/>
    <path class="cls-18" d="m55.89,36.4c.16-.05.32-.17.45-.34.25-.34.28-.75.05-.92-.23-.17-.62-.04-.87.3-.25.34-.28.75-.05.92.11.09.27.1.43.04"/>
    <path class="cls-8" d="m44.49,29.78c.24-2.4,1.73-5.58,5.85-5.13,5.63.62,9.39,4.66,9.24,7.02,0,0,.28,1.15-1.32,1.14"/>
    <path class="cls-8" d="m44.85,27.78s-2.1,1.54-2.15,3.87c-.05,2.03.26,4.66-.67,6.39"/>
    <path class="cls-7" d="m46.53,41.92c.69.74,1.8,1.91,3.31,3.2s2.39-.21,3.84-1.82c1.44-1.6,2.35-1.14,2.69-1.56.34-.43-.59-2.32.84-4.2.16-.2.29-.4.4-.61.98-1.67.81-3.25.64-4.12,0,0-4.03,1.88-4.78,2.11-.74.24-3.05.82-3.75-.19-.64-.93-.93-2.1-2-2.14-1.07-.04-2.24,1.48-1.73,2.61,0,0-1.96.95-3.05,1.79l-2.45,2.85s2.65,6.22,8.34,4.57l-2.32-2.47Z"/>
    <ellipse class="cls-17" cx="53.89" cy="37.57" rx=".69" ry=".32" transform="translate(-9.49 54.85) rotate(-50.13)"/>
    <path class="cls-8" d="m53.21,43.84s.14-1.11-2.2-1.72"/>
    <line class="cls-8" x1="47.63" y1="34.24" x2="47.93" y2="34.71"/>
    <path class="cls-8" d="m54.76,34.39s1.37.21,1.62.75"/>
  </g>
  <path class="cls-1" d="m30.82,54.84s2.03,5.97,3.96,10.2c1.09,2.4,2.45,5.5,4.15,7.57,1.29,1.57,2.79,2.55,4.51,2.19,3.99-.85,12.78-4.09,13.9-4.84l1.12-.75s-.66-.9-1.03-2.21c-.21-.73-.33-1.6-.2-2.5,0,0-2,1.02-4.33,1.64-.87.24-1.8.41-2.68.45-.58.03-5.12.44-5.12.44,0,0-2.8-6.57-3.25-11.39-.44-4.81-1.04-6.95-2.85-9.5"/>
  <path class="cls-8" d="m53.94,45.76s-.14,6-2.3,13.88"/>
  <path class="cls-4" d="m65.06,91.89s-3.47-7.16-3.92-9.55c-.46-2.39-.64-3.95-.12-5.68s1.54-3.38,3.53-4.19"/>
  <polyline class="cls-7" points="150.39 91.72 117.6 81.71 38.91 94.71 65.06 107.75 150.39 91.72"/>
  <path class="cls-15" d="m77.71,56.11s7.23,2.52,12.72,2.11"/>
  <path class="cls-7" d="m69.67,63.89s.23,1.73-.61,2.21c-.07.04-.13.09-.2.14-.71.57-1.1,1.76-2.05,1.66-1.03-.1-3.02-.9-4.31-.44-1.29.45-4.04,1.75-4.04,1.75,0,0-.66-.9-1.03-2.21-.21-.73-.33-1.6-.2-2.5,0,0,.85-.26,1.86-.64,1.25-.45,2.75-1.07,3.2-1.55.82-.88,1.64-1.62,3.5-1.8.42-.04.82-.07,1.19-.1,1.28-.07,2.24-.02,2.46.1.25.13-.11.73-.7,1.02.51-.18,1.63-.52,1.83-.11.27.52-.47,1.15-.47,1.15,0,0,1.16.45-.43,1.32Z"/>
  <path class="cls-19" d="m71.84,65.21s.07,1.55-1.42,1.46c-.68-.04-1.2-.23-1.56-.43.07-.05.13-.1.2-.14.84-.48.61-2.21.61-2.21,1.59-.87.43-1.32.43-1.32,0,0,.74-.63.47-1.15-.2-.41-1.32-.07-1.83.11.59-.29.95-.89.7-1.02-.22-.12-1.18-.17-2.46-.1.05-.08.35-.42,1.84-.59,1.7-.18,2.23-.29,2.2,0-.03.3-.19.58-.19.58,0,0,1.04.36.8,1.78,0,0,.93.07.45,1.57,0,0,.51.88-.24,1.46Z"/>
  <path class="cls-19" d="m70.83,60.4s-.71.73-1.75,1.03"/>
  <path class="cls-19" d="m72.07,63.75s-.93.97-2.22.99"/>
  <path class="cls-19" d="m71.84,65.21s-1.23.31-2.23.24"/>
  <path class="cls-12" d="m68.74,61.53s-1.54.57-2.83-.1"/>
  <path class="cls-12" d="m70.1,62.58s-1.54.16-2.28.9"/>
  <path class="cls-19" d="m71.63,62.18s-.14,1.18-1.96,1.71"/>
  <line class="cls-19" x1="68.5" y1="64.6" x2="69.61" y2="63.89"/>
  <path class="cls-7" d="m162.26,40.71l2.85-4.48c-.48.27-2.64.77-4.62.67-2.09-.11-1.84-1.59-2.08-3.78-.24-2.17-1.26-2.33-1.29-2.88-.03-.56,1.86-1.56,1.8-3.95,0-.26,0-.5.03-.74.18-1.96,1.26-3.15,1.91-3.77,0,0,2.21,3.93,2.68,4.57.47.63,2.02,2.49,3.2,2.07,1.08-.39,2.01-1.18,2.91-.58.91.6.96,2.55-.12,3.17,0,0,1.05,1.94,1.45,3.28l1.93,4.96"/>
  <path class="cls-7" d="m135.15,27.6l4.5,8.95-2.92,2s-.71-2.32-.92-2.36c-1.53-.27-1.8-3.1-1.8-3.1l-1.69.29-1.08.53s-.97-.06-.71-.66c.26-.6,1.25-1.2,1.25-1.2l1.87-.77-2-.18s-1.91.83-2.28.54c-.37-.3-.22-.9-.22-.9,0,0-.9-.46-.81-.93.09-.47,2.78-1.67,2.78-1.67l1.71-.11-2.02-.91c-.79-.36-1.23-1.23-1.01-2.06v-.03s5.36,2.59,5.36,2.59Z"/>
  <path class="cls-7" d="m136.48,33.21l-3.72-3.77s-.3.65-.17,1.25c.13.6,1.2,1.77,1.18,1.88-.1.58.22,1.93,1,2.88"/>
  <path class="cls-6" d="m139.6,35.87l8.59,12.2,19.13-5.15,1.36,8.73s-19.05,4.93-21.57,5.18c-2.89.28-4.42-2.8-4.92-3.72-.2-.37-8-13.05-8-13.05l5.4-4.18Z"/>
  <polygon class="cls-7" points="111.33 92.43 114.75 89.46 120.3 94.91 117.21 98.1 111.33 92.43"/>
  <path class="cls-5" d="m117.31,96.68c.53.53.79,1.26.73,2-.08.97-.13,2.45-1.44,3.78h0c-.55.9-1.62,1.35-2.65,1.12-.46-.1-.96-.26-1.46-.51-1.68-.83-2.81-2.52-5.72-3.14-2.91-.61-6.64-2.18-8.36-4.35-1.71-2.17-1.45-3.38-1.45-3.38h0c1.42-.72,3.06-.91,4.6-.52,1.01.26,2.34.5,3.92.55,3.73.12,6.74-.62,6.74-.62l5.08,5.07Z"/>
  <polygon class="cls-7" points="125.74 114.81 126.61 110.37 134.33 111.24 133.86 115.66 125.74 114.81"/>
  <path class="cls-5" d="m134.25,115.51c.42.75,1.64,1.9,1.61,3.9,0,.22.04.44.14.63h0c.3.55.14,1.23-.37,1.59-.64.45-1.56.99-2.55,1.23-1.82.44-3.77-.13-6.4,1.27-2.62,1.4-6.49,2.59-9.2,2.03-2.71-.56-3.28-1.66-3.28-1.66h0c.63-1.46,1.76-2.66,3.19-3.35.94-.45,2.11-1.12,3.36-2.1,2.14-1.68,3.7-3.47,4.38-4.31.25-.31.64-.47,1.04-.44l7.1.6c.4.03.77.26.97.61Z"/>
  <polygon class="cls-2" points="141.38 101.11 137.15 122.92 140.27 122.92 147.83 98.8 141.38 101.11"/>
  <polygon class="cls-2" points="189.64 101.74 193.82 122.88 190.69 122.88 183.2 99.44 189.64 101.74"/>
  <path class="cls-2" d="m196.15,59.08l-5.25,34.16v6.91c0,2.02-1.69,3.65-3.71,3.58l-46.25-1.6c-2.07-.08-3.65-1.87-3.45-3.93l.81-8.26c.19-1.89,1.82-3.32,3.72-3.24l37.56,1.55,4.79-30.83c.22-1.36,1.46-2.3,2.83-2.14l6.77.83c1.44.18,2.44,1.54,2.19,2.97Z"/>
  <path class="cls-6" d="m162.26,40.71l6.07-2.67c1.44-.48,3.03-.16,4.18.83,1.12.97,2.38,2.49,3.11,4.76,1.92,5.95,2.29,11.77,2.29,11.77,0,0,2.1,20.15,1.04,22.13l-.8,1.16-19.76-2.19,3.63-10.59"/>
  <path class="cls-6" d="m162.03,65.9c-3.52-17.03-1.53-23.75.23-25.19"/>
  <path class="cls-6" d="m165.73,49.55c.37,1.42,3.64,17.01,3.64,17.01l-14.32,6.19,8.26,1.68s10.84-2.05,13.6-3.93c1.5-1.02.55-4.64.35-7.08-.2-2.43-2.89-16.47-3.31-18.27-.7-2.95-4.76-5.89-7.25-3.13-2.6,2.88-.98,7.52-.98,7.52Z"/>
  <path class="cls-3" d="m113.1,89.64c.52-.61,15.66-18.4,19.67-19.95,4.01-1.55,38.36,6.54,38.36,6.54l7.37-3.4s5.91,12.84-1.99,16.86c-7.89,4.02-22.96-3.6-22.96-3.6l-18.4-6.1-15.49,17.04-6.56-7.38Z"/>
  <path class="cls-3" d="m136.38,80.39c-2.08-.69-6.78,2.87-7.26,5.06-.48,2.18-2.47,22.88-2.82,23.97l-.27,1.77,8.49,1s1.79-9.46,2.92-13.37c1.14-3.91,2.35-8.49,2.35-8.49l21.28-1.64s-22.61-7.6-24.68-8.28Z"/>
  <line class="cls-7" x1="129.15" y1="30.72" x2="131.07" y2="29.77"/>
  <path class="cls-8" d="m158.76,27.51s-1.5-2.74-1.11-4.87c.48-2.57,2.8-2.59,2.8-2.59,1.28-2.03,6.76-3.13,11.77-.3,3.65,2.07,2.99,5.57,1.77,7.69"/>
  <path class="cls-8" d="m174.86,25.58s.81,2.51-.52,4.46c-1.16,1.7-2.53,3.49-2.79,5.47"/>
  <ellipse class="cls-17" cx="161.62" cy="28.28" rx=".32" ry=".7" transform="translate(-1.61 11.68) rotate(-4.12)"/>
  <line class="cls-7" x1="168.75" y1="29.25" x2="168.23" y2="29.46"/>
  <path class="cls-8" d="m158.51,33.82s1.62.88,3.11-.19"/>
  <line class="cls-2" x1="190.9" y1="93.23" x2="139" y2="93.23"/>
  <path class="cls-9" d="m114.37,24.39c0-2.46-2-4.46-4.46-4.46-1.8,0-3.36,1.08-4.06,2.62-.7-1.54-2.26-2.62-4.06-2.62-2.46,0-4.46,2-4.46,4.46,0,.52.09,1.02.25,1.48.19.53.47,1.01.83,1.43.15.18.32.34.5.49l6.8,6.75s.1.06.15.06.11-.02.15-.06l7.05-7.01h0c.46-.46.82-1.02,1.04-1.64.17-.47.26-.98.26-1.51Z"/>
  <line class="cls-8" x1="38.91" y1="94.71" x2="38.71" y2="118.27"/>
  <line class="cls-8" x1="64.91" y1="122.31" x2="64.77" y2="128.13"/>
  <rect class="cls-11" x="-1545.02" y="-308.58" width="2179.47" height="547.09"/>
</svg>