<?xml version="1.0" encoding="UTF-8"?>
<svg id="Calque_1" data-name="Calque 1" xmlns="http://www.w3.org/2000/svg" viewBox="0 0 128 128">
  <defs>
    <style>
      .cls-1, .cls-2, .cls-3, .cls-4, .cls-5, .cls-6, .cls-7, .cls-8 {
        stroke: #010101;
      }

      .cls-1, .cls-2, .cls-3, .cls-9 {
        stroke-linecap: round;
        stroke-linejoin: round;
      }

      .cls-1, .cls-4 {
        fill: #89ccf2;
      }

      .cls-2, .cls-5 {
        fill: #fff;
      }

      .cls-3, .cls-9, .cls-10, .cls-8 {
        fill: none;
      }

      .cls-11 {
        fill: #010101;
      }

      .cls-12 {
        fill: #c0e0cd;
      }

      .cls-4, .cls-5, .cls-6, .cls-7, .cls-10, .cls-8 {
        stroke-miterlimit: 10;
      }

      .cls-6 {
        fill: #d6d7d7;
      }

      .cls-7 {
        fill: #f4d688;
      }

      .cls-9 {
        stroke: #fff;
        stroke-width: 8px;
      }

      .cls-10 {
        stroke: #231f20;
      }
    </style>
  </defs>
  <rect class="cls-9" x="-5412" y="-979.45" width="6467.34" height="6437.3"/>
  <g id="Titres_catégories" data-name="Titres catégories">
    <g>
      <path class="cls-1" d="m108.3,32.9h-28.36c-7.54,0-13.67,6.11-13.67,13.65v35.99c0,7.54,6.13,13.65,13.67,13.65h28.36c7.56,0,13.67-6.1,13.67-13.65v-35.99c0-7.54-6.12-13.65-13.67-13.65Z"/>
      <path class="cls-5" d="m92.81,44.87s.1-.14.27-.3c.76-.72,2.29-.9,2.78.78.34,1.15-1.13,3.65-.95,4.15,0,0-3.91-1.98-2.1-4.62h0Z"/>
      <path class="cls-5" d="m112.46,52.95s.02-.17-.01-.41c-.13-1.03-1.2-2.14-2.64-1.16-.99.68-1.45,3.53-1.91,3.8,0,0,4.27.95,4.57-2.22h-.01,0Z"/>
      <path class="cls-7" d="m87.13,61.59c-1.18,1.46-3.94,5.07-4.01,7.09,0,.03-.03.06-.06.07-.76.03-7.65.59-7.46,8.23,0,.05-.05.1-.1.08-.64-.24-3.92-1.35-3.31,1.58,0,.02.01.03.03.05.25.27,3.59,3.72,5.78,2.41.01-.01.03-.03.03-.05.19-.4,2.84-5.85,7.07-3.94,0,0,7.35,1.55,3.84,7.2-.01.02-.02.02-.03.03-.26.15-3.26,1.95-.42,4.66,0,0,4.97,4.95,4.12,0l-.67-1.88c-.03-.05,0-.1.06-.1.62-.03,3.74-.35,5.15-3.54,0,0,1.53-4.47.02-6.47-.02-.02-.02-.05,0-.08.38-.46,3.97-4.9,3.97-7.87,0-.09.1-.12.14-.03.52,1.03,2.31,3.52,6.77,1.58,5.16-2.24,5.13-3.63,5.11-3.81,0-.01,0-.02-.01-.03l-1.95-2.91s-.05-.05-.09-.02c-.45.11-3.84.99-4.95,1.89-.06.05-.14-.01-.12-.09.29-1.02.65-4.1-4.1-7.35,0,0-3.33-3.3-9.95-3.92-.95-.09-1.93.1-2.71.64-.4.28-.76.65-.9,1.12-.03.08-.14.09-.16,0-.25-1.22-1.02-4.5-2.15-5.46-.02-.03-.05-.03-.08-.02l-3.3.83s-.06.03-.06.08c-.03.66-.36,7.09.85,8.44,1.14,1.26,1.83,2.64,3.47,1.51.09-.06.17.03.12.12v-.02h.02Z"/>
      <path class="cls-2" d="m83.23,48.56s-.9-3.04-.99-1.25c-.1,1.8.05,3.21.46,4.15l3.41-.85s.78-1.42.37-2.14c-.12-.21-.43-.19-.53.03-.12.3-.26.69-.26.97,0,0,.64-2.29.09-3.05-.16-.22-.5-.14-.56.12-.13.52-.32,1.49-.19,2.09,0,0,.02-1.6-.28-2.45-.09-.25-.43-.24-.52,0-.17.56-.37,1.51.02,2.28,0,0-.47-2.46-.75-2.43-.62.06-.28,2.53-.28,2.53h0s0,0,0,0Z"/>
      <path class="cls-2" d="m114.94,64.26s2.83-1.44,1.59-.13c-1.25,1.3-2.36,2.17-3.35,2.51l-1.91-2.9s.7-1.69,1.51-1.89c.24-.06.43.19.33.42-.13.28-.32.66-.52.85,0,0,1.23-2.03,2.17-2.17.26-.03.45.27.31.5-.29.45-.86,1.25-1.39,1.56,0,0,1.16-1.11,1.98-1.47.23-.12.48.15.35.38-.29.52-.85,1.3-1.68,1.55,0,0,2.11-1.36,2.29-1.13.38.49-1.65,1.94-1.65,1.94v-.02h-.02Z"/>
      <path class="cls-5" d="m102.88,57.56s-2.36,3.73-6.05,1.18c0,0-2.97-1.7-1.04-4.15l7.09,2.97h-.01s0,0,0,0Z"/>
      <path class="cls-10" d="m87.23,74.68s7.02-12.13,9.6-15.95"/>
      <path class="cls-5" d="m94.48,44.55c-.97,3.92-2.96,7.36.14,9.29,2.79,1.74,9.31,5.9,11.41,4.57,3.2-2.02,13.79-14.29.64-19.28-.16-.06-4.2-1.84-5.82-1.67-2.74.3-5.23,2.53-6.36,7.09h.01s-.01,0-.01,0Z"/>
      <path class="cls-11" d="m100.8,52.11c-.1.01-.21-.03-.28-.13-.2-.3-.29-.64-.22-.92.03-.2.16-.38.33-.48.17-.12.37-.13.52-.14.16-.02.26-.03.36-.12.14-.1.22-.45.24-.64.01-.17.17-.3.33-.29.17.02.3.17.28.33,0,.08-.07.76-.47,1.08-.24.19-.5.22-.68.24-.1.02.03.19,0,.25,0,0-.29-.17-.31-.12-.02.09,0,.25.13.43.1.14.06.33-.08.43-.05.03-.1.05-.16.05h0s0,.02,0,.02Z"/>
      <path class="cls-3" d="m97.22,46.86s1.02,1.58,2.39,1.34"/>
      <path class="cls-3" d="m107.16,52.11s-1.88-.12-2.35-1.44"/>
      <path class="cls-3" d="m98.42,53.15s.59,1.44,2.57,1.14"/>
      <path class="cls-3" d="m95.14,42.51s2.85,2,9.74.72"/>
      <path class="cls-3" d="m104.81,40.83s-1.27,6.58,7.13,10.63"/>
      <path class="cls-5" d="m25.98,87.74V24.37c0-3.25-2.64-5.89-5.89-5.89s-5.9,2.64-5.9,5.89v63.36c-4.82,2.23-8.16,7.09-8.16,12.74,0,7.76,6.3,14.04,14.07,14.04s14.07-6.29,14.07-14.04c0-5.64-3.34-10.5-8.16-12.74h-.01Z"/>
      <path class="cls-8" d="m25.58,24.9h4.94"/>
      <path class="cls-8" d="m25.58,29.49h4.94"/>
      <path class="cls-8" d="m25.58,34.09h4.94"/>
      <path class="cls-8" d="m25.58,38.69h4.94"/>
      <path class="cls-8" d="m25.58,43.28h4.94"/>
      <path class="cls-8" d="m25.58,52.49h4.94"/>
      <path class="cls-8" d="m25.58,47.88h4.94"/>
      <path class="cls-8" d="m25.58,57.08h4.94"/>
      <path class="cls-8" d="m25.58,61.67h4.94"/>
      <path class="cls-8" d="m25.58,66.28h4.94"/>
      <path class="cls-8" d="m25.58,70.86h4.94"/>
      <path class="cls-8" d="m25.58,75.46h4.94"/>
      <path class="cls-8" d="m25.58,80.06h4.94"/>
      <path class="cls-8" d="m25.58,84.67h4.94"/>
      <path class="cls-6" d="m23.02,25.19h-5.88v27.94h5.88v-27.94Z"/>
      <path class="cls-4" d="m30.24,100.38c0,5.6-4.55,10.13-10.15,10.13s-10.15-4.53-10.15-10.13c0-4.57,3.04-8.45,7.21-9.71v-37.54h5.88v37.54c4.18,1.26,7.22,5.13,7.22,9.71h0Z"/>
      <path class="cls-11" d="m35.28,63.27v-1.18c.55-.01.93-.07,1.14-.11.34-.08.63-.23.85-.47.15-.16.27-.38.35-.63.04-.16.07-.28.07-.37h1.44v8.85h-1.77v-6.11h-2.09.01s0,.02,0,.02Z"/>
      <path class="cls-11" d="m42.03,65.57c.21-.41.55-.7.98-.9-.42-.28-.7-.59-.83-.93-.12-.34-.19-.64-.19-.93,0-.64.24-1.18.72-1.64.49-.46,1.17-.67,2.06-.67s1.58.23,2.05.67c.49.45.74,1,.74,1.64,0,.3-.07.6-.19.93-.13.32-.42.62-.83.86.43.24.76.56.98.97.23.41.34.86.34,1.34,0,.74-.27,1.37-.82,1.89-.55.53-1.33.78-2.31.78s-1.75-.25-2.26-.78c-.51-.51-.75-1.14-.75-1.89,0-.5.11-.94.34-1.34h-.01Zm1.81,2.25c.23.24.54.37.93.37s.71-.12.94-.37.35-.56.35-1.01-.12-.79-.35-1.02c-.23-.24-.54-.37-.93-.37s-.7.12-.93.37c-.23.23-.34.56-.34,1.02s.11.76.34,1.01h-.01Zm.11-4.02c.2.2.47.3.82.3s.63-.09.83-.3c.19-.21.28-.47.28-.79,0-.35-.09-.62-.28-.82-.2-.2-.47-.3-.83-.3s-.62.09-.82.3-.3.47-.3.82c0,.32.09.58.3.79Z"/>
      <path class="cls-11" d="m50.87,60.48c.54,0,1,.2,1.38.58.39.39.59.86.59,1.38s-.2,1.01-.59,1.38c-.39.39-.85.59-1.38.59s-1-.2-1.38-.59c-.39-.38-.58-.85-.58-1.38s.19-1,.58-1.38c.39-.38.86-.58,1.38-.58Zm-1,1.96c0,.27.09.51.3.7.19.2.43.3.7.3s.51-.09.7-.3c.19-.19.3-.43.3-.7s-.09-.51-.3-.68c-.2-.19-.43-.3-.7-.3s-.51.09-.7.3c-.2.17-.3.42-.3.68Z"/>
      <path class="cls-11" d="m58.12,65.1c-.03-.24-.11-.46-.24-.66-.2-.27-.5-.41-.92-.41-.59,0-1,.28-1.21.87-.12.31-.17.71-.17,1.22s.05.87.17,1.17c.2.55.6.83,1.17.83.42,0,.7-.11.87-.34.17-.21.27-.5.31-.85h1.77c-.04.53-.23,1.04-.56,1.49-.55.76-1.36,1.14-2.43,1.14s-1.87-.31-2.37-.94c-.51-.63-.75-1.45-.75-2.46,0-1.14.28-2.03.83-2.67.56-.63,1.32-.96,2.31-.96.83,0,1.52.19,2.05.56.54.38.85,1.04.96,1.98h-1.79s0,0,0,0Z"/>
      <path class="cls-11" d="m35.69,53.22c.24-.59.83-1.21,1.76-1.87.79-.56,1.32-.98,1.55-1.22.37-.39.55-.81.55-1.28,0-.37-.11-.68-.32-.93-.2-.25-.5-.38-.89-.38-.54,0-.89.2-1.09.59-.11.23-.17.59-.2,1.09h-1.68c.03-.75.16-1.37.41-1.83.47-.89,1.29-1.32,2.47-1.32.94,0,1.69.26,2.25.78.55.53.83,1.21.83,2.06,0,.66-.2,1.24-.58,1.75-.27.34-.68.71-1.26,1.13l-.7.49c-.45.31-.74.53-.9.66-.15.13-.28.31-.41.49h3.87v1.54h-6.07c.01-.63.15-1.22.41-1.73h0Z"/>
      <path class="cls-11" d="m47.65,47.24c.46.79.68,1.92.68,3.39s-.23,2.58-.68,3.36c-.45.79-1.24,1.18-2.37,1.18s-1.92-.39-2.38-1.18c-.46-.78-.67-1.91-.67-3.36s.23-2.58.67-3.39c.45-.79,1.24-1.18,2.38-1.18s1.91.4,2.37,1.18Zm-3.39,5.71c.16.54.51.81,1.02.81s.85-.27,1.02-.81c.16-.54.23-1.3.23-2.33s-.08-1.85-.23-2.37c-.16-.51-.51-.76-1.02-.76s-.86.25-1.02.76c-.17.51-.25,1.3-.25,2.37s.08,1.79.25,2.33Z"/>
      <path class="cls-11" d="m51.36,46.05c.54,0,1,.2,1.38.59s.58.85.58,1.38-.2,1-.58,1.37c-.39.39-.86.59-1.38.59s-1.01-.2-1.38-.59c-.39-.38-.59-.85-.59-1.37s.2-1.01.59-1.38c.38-.39.85-.59,1.38-.59Zm-1,1.97c0,.27.09.5.3.68.19.2.43.3.7.3s.51-.09.7-.3c.19-.19.28-.42.28-.68,0-.28-.09-.51-.28-.7-.2-.19-.43-.3-.7-.3s-.51.09-.7.3c-.2.19-.3.42-.3.7Z"/>
      <path class="cls-11" d="m58.59,50.69c-.03-.24-.11-.46-.24-.66-.2-.27-.5-.41-.92-.41-.59,0-1,.28-1.21.87-.12.31-.17.71-.17,1.22s.05.87.17,1.17c.2.55.6.83,1.17.83.41,0,.7-.11.87-.34.17-.21.27-.5.31-.85h1.77c-.04.53-.23,1.04-.56,1.49-.55.76-1.36,1.14-2.43,1.14s-1.87-.31-2.37-.94c-.51-.63-.75-1.45-.75-2.46,0-1.14.28-2.03.83-2.67.55-.63,1.32-.96,2.31-.96.83,0,1.52.19,2.05.56.54.38.85,1.04.96,1.98h-1.79s0,0,0,0Z"/>
      <path class="cls-12" d="m70.91,15.39h-15c-2.24,0-4.07,1.81-4.07,4.06v14.97c0,2.24,1.83,4.06,4.07,4.06h15c2.24,0,4.07-1.81,4.07-4.06v-14.97c0-2.24-1.83-4.06-4.07-4.06Z"/>
      <path class="cls-3" d="m74.98,25.1v10.12c0,1.78-1.47,3.24-3.26,3.24h-16.64c-1.78,0-3.24-1.46-3.24-3.24v-16.59c0-1.78,1.45-3.24,3.24-3.24h16.64"/>
      <path class="cls-3" d="m55.04,22.2l8.37,11.98,14.12-18.8"/>
    </g>
  </g>
</svg>