<?xml version="1.0" encoding="UTF-8"?>
<svg id="Calque_1" data-name="Calque 1" xmlns="http://www.w3.org/2000/svg" viewBox="0 0 260 128">
  <defs>
    <style>
      .cls-1 {
        fill: #fff;
      }

      .cls-1, .cls-2 {
        stroke: #000;
      }

      .cls-1, .cls-2, .cls-3 {
        stroke-linecap: round;
        stroke-linejoin: round;
      }

      .cls-2, .cls-3 {
        fill: none;
      }

      .cls-3 {
        stroke: #fff;
        stroke-width: 8px;
      }
    </style>
  </defs>
  <path class="cls-1" d="m128.85,101.15c1.55.25,6.97,1.67,12.51,2.08.97.07,2.03-.51,3.51-.74,1.83-.28,2.24-.46,3.4-1.05.22-.11,2.42-1.53,4.11-2.85.96-.75.71-.99,1.87-2.04.47-.43.45-1.15-.48-1.23-.34-.03-.85.03-1.5.4-.49.28-.77.76-1.18.87-1.01.25-2.4.74-3.74,1.3-.42.18-2.53.02-3.81.27-4.84.95-8.71-1.34-10.44-2.65l-.22-.18c-.47-.4-1.05-.61-1.66-.68-.1-.01-.21-.03-.33-.05-9.74-1.81-12.35-5.29-20.32-6.8-3.68-.7-6.25-.86-9.5-1.09-2.75-.19-8.84-1.46-12.7-2.11-1.04-.17-4.59.6-10.47.42,6.26-.6,8.2-1.9,10.36-1.9,4.93,0,9.33-1.29,11.25-1.01,2.83.42,3.3.79,5.22.91,1.51.09,2.67,0,5.38.59,2.1.46,4.05,1.2,5.09,1.44,1.79.41,3.09.62,4.23.79,1.44.21,3.3.4,5.36.9,2.84.69,7.8.99,11.96,1.26,7.66.49,14.59.51,20.38.39,4.53-.1,12.59-.14,19-1.38,2.2-.42,1.44-.82,3.97-.97,1.85-.11,3.32-.07,5.15.1,5.88.53,10.09,2.31,16.46,2.59,5.28.24,9.12-.71,19.18-2.44,6.81-1.17,14.24-2.84,18.63-2.2.41.06,1.44.19,2.51.75.6.32,1.33.85,2.28,1.4,1.09.62,2.56,1.41,2.76,2.08.31,1.06,1.36,1.25,1.92,1,.71-.32.85-.83.85-1.83v-10.22c0-2.35-1.24-2.37-2.84-2.08-1.13.2-1.95.53-2.83.5-1.24-.04-1.28.02-2.54.27-1.37.27-2.81.78-4.81.92-.2.01-9.81-.11-19.72-2.72-4.56-1.2-6.88-1.92-14.34-2.58-6.11-.55-10.19.68-14.39.58-2.8-.07-3.85-.65-8.46-1.9-2.91-.79-5.73-1.43-9.12-1.98-9.57-1.56-13.87-2.93-27.1-3.83-.19-.01-.06-.1-.06-.43s-.13-.42.06-.43c13.23-.89,17.53-2.27,27.1-3.83,3.39-.55,6.21-1.19,9.12-1.98,4.62-1.25,5.66-1.84,8.46-1.9,4.19-.1,8.27,1.12,14.39.58,7.46-.67,9.79-1.39,14.34-2.58,9.91-2.6,19.52-2.73,19.72-2.72,1.99.14,3.44.64,4.81.92,1.26.25,1.3.32,2.54.27.89-.03,1.7.3,2.83.5,1.6.29,2.84.27,2.84-2.08v-10.22c0-1-.14-1.51-.85-1.83-.56-.25-1.6-.06-1.92,1-.2.67-1.67,1.46-2.76,2.08-.95.54-1.68,1.08-2.28,1.4-1.07.56-2.1.69-2.51.75-4.39.64-11.82-1.04-18.63-2.21-10.06-1.73-13.9-2.68-19.18-2.44-6.37.29-10.59,2.07-16.46,2.59-1.84.16-3.3.21-5.15.1-2.53-.15-1.77-.55-3.97-.97-6.42-1.24-14.48-1.28-19-1.38-5.79-.12-12.72-.11-20.38.39-4.17.27-9.12.56-11.96,1.26-2.07.5-3.91.7-5.36.9-1.14.16-2.45.38-4.23.79-1.05.24-2.99.98-5.09,1.44-2.7.59-3.87.5-5.38.59-1.92.11-2.39.49-5.22.91-1.92.28-6.32-1.01-11.25-1.01-2.15,0-4.1-1.3-10.36-1.9,5.88-.17,9.43.6,10.47.42,3.86-.65,9.95-1.91,12.7-2.11,3.26-.23,5.82-.39,9.5-1.09,7.96-1.5,10.57-4.99,20.32-6.8h.03c.85-.16,1.64-.52,2.33-1.02,1.8-1.32,5.59-3.46,10.29-2.54,1.29.25,3.39.09,3.81.27,1.34.56,2.73,1.04,3.74,1.3.41.1.69.59,1.18.87.64.37,1.16.44,1.5.4.94-.09.96-.81.48-1.23-1.16-1.05-.91-1.29-1.87-2.04-1.68-1.32-3.89-2.75-4.11-2.85-1.17-.59-1.58-.77-3.4-1.05-1.47-.23-2.54-.81-3.51-.74-5.54.41-10.96,1.83-12.51,2.08-6.43,1.03-15.01-.14-22.18,1-4.13.66-6.61,2.43-9.45,2.83-6.12.85-7.57-.16-16.26.33-5.84.33-8.32,1.17-11.61,1.07-.65-.02-2.81-.39-3.58-.36-6.79.21-9.62,3.07-11.23,8.8-.65,2.33-2.2,4.77-3.52,7.4-2.56,5.11-3.01,7.52-4.65,8.57-.68.43-2.92.7-4.55.45-.97-.15-1.5-.52-2.29-1.05-.48-.33-.98-.56-2.08-.77-.65-.12-1.72-.25-2.68-.35.12-.4-.04-.97-.64-1.21-.5-.2-1.18-.49-1.51-.55-.9-.16-2.41-.05-3.49-.1-.39-.02-1.09-.11-1.45.19-.34.28-.32.87.11,1.12-4.42-.02-7.1.26-8.87,1.22-3.08,1.67-5.4,5.7-5.4,8.56,0,2.86,2.32,6.89,5.4,8.56,1.77.96,4.45,1.24,8.87,1.22-.43.25-.44.84-.11,1.12.35.3,1.05.21,1.45.19,1.07-.05,2.58.06,3.49-.1.33-.06,1-.35,1.51-.55.6-.24.76-.8.64-1.21.96-.1,2.03-.23,2.68-.35,1.1-.21,1.6-.44,2.08-.77.79-.53,1.32-.9,2.29-1.05,1.63-.25,3.88.02,4.55.45,1.64,1.04,2.1,3.46,4.65,8.57,1.32,2.64,2.87,5.07,3.52,7.4,1.61,5.74,4.44,8.59,11.23,8.8.77.02,2.93-.34,3.58-.36,3.29-.1,5.77.74,11.61,1.07,8.69.49,10.14-.52,16.26.33,2.84.4,5.32,2.17,9.45,2.83,7.17,1.15,15.75-.03,22.18,1,1.55.25,6.97,1.67,12.51,2.08.97.07,2.03-.51,3.51-.74,1.83-.28,2.24-.46,3.4-1.05.22-.11,2.42-1.53,4.11-2.85.96-.75.71-.99,1.87-2.04.47-.43.45-1.15-.48-1.23-.34-.03-.85.03-1.5.4-.49.28-.77.76-1.18.87-1.01.25-2.4.74-3.74,1.3-.42.18-2.51.13-3.81.27"/>
  <line class="cls-2" x1="102" y1="64.26" x2="66.08" y2="64.26"/>
  <path class="cls-2" d="m143.68,64.43s6.12,6.84,1.27,16.03"/>
  <path class="cls-2" d="m144.95,47.97c4.85,9.19-1.27,16.03-1.27,16.03h-13.68"/>
  <rect class="cls-3" x="-1882" y="-756.84" width="6467.34" height="6437.3"/>
</svg>