<?xml version="1.0" encoding="UTF-8"?>
<svg id="Calque_1" data-name="Calque 1" xmlns="http://www.w3.org/2000/svg" viewBox="0 0 128 128">
  <defs>
    <style>
      .cls-1, .cls-2 {
        stroke-width: 2px;
      }

      .cls-1, .cls-2, .cls-3, .cls-4, .cls-5 {
        stroke: #000;
        stroke-miterlimit: 10;
      }

      .cls-1, .cls-4 {
        fill: #d6d6d6;
      }

      .cls-2 {
        fill: #bbfedb;
      }

      .cls-3 {
        fill: #fff;
      }

      .cls-5 {
        fill: #76ac75;
      }

      .cls-6 {
        fill: none;
        stroke: #fff;
        stroke-linecap: round;
        stroke-linejoin: round;
        stroke-width: 8px;
      }
    </style>
  </defs>
  <path class="cls-4" d="m99.8,36s-.88,1.68-2.43,2.03c-.13.03-.25.11-.36.24-1.24,1.4-1.24,8.8-4.63,19.03-1.62,4.94-4.21,8.81-6.41,12.14-4.6,6.99-9.32,10.45-9.32,10.45l-1.4-.7-2.8-1.41s2.12-1.93,4.87-4.86c4.19-4.47,9.86-11.29,11.78-17.23,2.33-5.48,2.78-16.72,4.55-19.04.08-.11.17-.2.26-.27.55-.36.55-.26,1.09-.44,2.54-.85,4.79.06,4.79.06Z"/>
  <path class="cls-4" d="m41.13,85.32v11.92s-1.24-.35-2.35-.92c-.75-.39-1.44-.88-1.67-1.43-.26-.64-.04-1.9.27-3.06.36-1.37.84-2.62.84-2.62,0,0-.82.33-1.68.37-.81.03-1.66-.2-1.92-1.2-.56-2.08-5.41-5.41-6.24-6.79-.48-.79-.41-3.34-.26-5.38.11-1.54.26-2.79.26-2.79l12.75,11.92Z"/>
  <path class="cls-1" d="m116.43,86.1c0,.28-.02.57-.07.88-.34,2.5-.71,3.49-1.32,4.14-.89.94-2.3,1.21-4.91,4.31-2.54,3.02-3.81,6.58-4.43,9.07-.2.82-.65,1.54-1.24,2.07-.71.64-1.65,1.03-2.66,1.05-.03,0-.05,0-.08,0h-54.52s-3.43.22-7.23-10.43h0c-.45-1.26-.91-2.68-1.36-4.26-2.59-9.01-9.85-17.53-15.22-22.87-2.19-2.18-4.06-3.83-5.17-4.77-.69-.59-1.1-.91-1.1-.91-.83-2.08,18.16-6.65,29.52-2.91,11.37,3.74,19.41,17.74,33.27,19.82,13.86,2.08,29.8.28,29.8.28,0,0,5.67-.53,6.59,3.36.08.35.13.74.13,1.17Z"/>
  <path class="cls-2" d="m118.86,86.01l-17.88-1.52-1.28-.11-6.94.66-16.03,1.52s-14.51-6.45-21-12.27c-6.49-5.82-30.15-11.12-30.98-10.81-.83.31-16.05,1.37-16.05,1.37,0,0-.31-2.7.32-6.02.78-4.07,2.98-9.09,8.94-11.23,10.81-3.88,30.22-2.57,39.5,8.62,9.29,11.2,10.26,20.48,21.76,22.01,6.33.84,13.29-.59,19.52-1.56,2.2-.34,4.3-.63,6.26-.73,2.57-.14,4.89.02,6.8.77,4.09,1.59,5.82,4.21,6.55,6.26.61,1.71.52,3.03.52,3.03Z"/>
  <path class="cls-4" d="m112.31,82.91l-29.87,2c2.65-.83,4.81-1.79,6.6-2.78,5.44-3.01,7.55-6.33,10.26-7.47,1.92-.81,4.53.53,6.91,2.35t0,0c3.27,2.5,6.1,5.9,6.1,5.9Z"/>
  <path class="cls-1" d="m117.21,90.52s-8.4-5.93-24.54-4.23c-4.76.88-12.85,2-17.88.79-5.03-1.21-11-4.99-16.46-9.23-6.75-5.22-13.9-7.53-28.18-10.22-11.53-1.5-19.91,2.49-20,2.53-1.34.68-3.98-4.21-2.39-4.87.4-.2,9.9-4.78,23.17-3.03l.15.02c15.62,2.93,24.18,9.56,31.07,14.89,4.97,3.85,8.7,7.48,13.76,7.84,6.18.45,11.2-1.04,15.86-1.9,5.24-.97,10.18-1.88,16.39-.9,8.29.94,12.01,3.71,12.4,4.02.99.71-1.86,4.96-3.36,4.26l.03.02Z"/>
  <path class="cls-4" d="m97.78,61.74s0,0,0,0c-.18.33-.36.65-.55.99-.08.13-.15.26-.23.4-.12.2-.23.41-.36.61-.1.17-.2.34-.3.51-.1.17-.21.34-.31.51-.21.34-.42.69-.64,1.04-.11.17-.22.35-.33.52-.19.31-.39.61-.58.92-.26.4-.52.8-.78,1.19-.12.18-.23.35-.35.53-.12.18-.24.35-.35.53-.12.18-.24.35-.36.53-.48.71-.96,1.41-1.45,2.11-.22.32-.45.64-.67.95-.39.55-.78,1.09-1.17,1.63-.24.34-.49.67-.73,1.01-1.34,1.83-2.64,3.55-3.81,5.08-.05.07-.11.14-.16.21-1.09,1.42-2.07,2.66-2.87,3.65-.07.09-.14.17-.2.25-.73.91-1.29,1.58-1.6,1.95-.02.03-.05.06-.07.08-.1.12-.17.19-.2.22l-1.1-.96-5.07-4.4-.75-.65s.35-.27.93-.72c.41-.32.94-.74,1.56-1.25,1.13-.92,2.57-2.12,4.17-3.52,2.05-1.8,4.35-3.94,6.55-6.23,3.06-3.17,6.42-6.63,8.23-9.9,3.18-7.26,4.06-16.85,2.81-21.27-.45-1.58-1.14-2.48-2-2.33,1.43-.48,2.77-.4,3.67-.24.66.12,1.08.28,1.12.29,0,0,0,0,0,0,.04.05.08.1.11.15.03.05.07.14.12.25,0,0,0,0,0,0,.86,2.2,3.3,15.13-2.26,25.34Z"/>
  <circle class="cls-5" cx="77.62" cy="82.93" r="6.27" transform="translate(-35.9 79.18) rotate(-45)"/>
  <circle class="cls-3" cx="100.63" cy="77.94" r="1.72"/>
  <rect class="cls-6" x="-565.16" y="-603.76" width="1215" height="875.1"/>
</svg>