<?xml version="1.0" encoding="UTF-8"?>
<svg id="Calque_1" data-name="Calque 1" xmlns="http://www.w3.org/2000/svg" viewBox="0 0 128 128">
  <defs>
    <style>
      .cls-1 {
        fill: #d6d6d6;
      }

      .cls-1, .cls-2, .cls-3, .cls-4 {
        stroke: #000;
        stroke-width: 2px;
      }

      .cls-1, .cls-2, .cls-3, .cls-4, .cls-5 {
        stroke-linecap: round;
        stroke-linejoin: round;
      }

      .cls-2 {
        fill: #ff6d75;
      }

      .cls-3 {
        fill: #fff;
      }

      .cls-4 {
        fill: #fab0b4;
      }

      .cls-5 {
        fill: none;
        stroke: #fff;
        stroke-width: 8px;
      }
    </style>
  </defs>
  <path class="cls-3" d="m12.5,87.62h94.59s-2.24,8.52-2.24,8.52c-.96,3.64-4.25,6.17-8.01,6.17H24.35c-3.29,0-6.27-1.95-7.59-4.96l-4.26-9.73Z"/>
  <path class="cls-1" d="m99.22,87.62l-.89,3.39c-.96,3.64-4.25,6.17-8.01,6.17H17.83c-.4,0-.79-.03-1.18-.08l.11.26c1.32,3.01,4.3,4.96,7.59,4.96h72.49c3.76,0,7.05-2.53,8.01-6.17l2.24-8.52h-7.87Z"/>
  <polygon class="cls-2" points="67.39 29.29 70.74 30.15 68.42 90.72 67.39 90.72 67.39 29.29"/>
  <polygon class="cls-4" points="70.74 30.15 103.48 43.23 68.42 90.72 70.74 30.15"/>
  <polygon class="cls-4" points="112.38 72.88 103.48 43.23 68.42 90.72 112.38 72.88"/>
  <polygon class="cls-4" points="107.09 87.62 68.42 90.72 112.38 72.88 107.09 87.62"/>
  <path class="cls-4" d="m12.5,87.62s9.31-10.13,23.31-12.46c14.01-2.32,17.62-2.29,17.62-2.29l13.83,14.9-54.75-.16Z"/>
  <path class="cls-2" d="m57.3,68.03l-3.87,4.84,13.83,14.9s-3.86-19.75-9.96-19.75Z"/>
  <path class="cls-1" d="m70.65,90.07c.06.21.09.42.09.65,0,1.28-1.04,2.32-2.32,2.32s-2.32-1.04-2.32-2.32c0-.23.03-.44.09-.65h-.02l-19.68-56.36c-.13-.35-.1-.74.07-1.07.26-.49.73-.73,1.2-.73.53,0,1.06.3,1.28.87l21.7,57.29h-.09Z"/>
  <rect class="cls-5" x="-762.65" y="-78.92" width="1215" height="875.1"/>
</svg>