<?xml version="1.0" encoding="UTF-8"?>
<svg id="Calque_1" data-name="Calque 1" xmlns="http://www.w3.org/2000/svg" viewBox="0 0 128 128">
  <defs>
    <style>
      .cls-1, .cls-2, .cls-3, .cls-4 {
        stroke: #000;
      }

      .cls-1, .cls-2, .cls-5 {
        stroke-linecap: round;
        stroke-linejoin: round;
      }

      .cls-1, .cls-5 {
        fill: none;
      }

      .cls-2 {
        fill: #d6d6d6;
        stroke-width: 2px;
      }

      .cls-3 {
        fill: #fff;
      }

      .cls-3, .cls-4 {
        stroke-miterlimit: 10;
      }

      .cls-4 {
        fill: #bbfedb;
      }

      .cls-5 {
        stroke: #fff;
        stroke-width: 8px;
      }
    </style>
  </defs>
  <circle class="cls-2" cx="94.59" cy="31.51" r="25.49"/>
  <g>
    <rect class="cls-4" x="28.58" y="44.38" width="2.36" height="48.39"/>
    <path class="cls-3" d="m35.95,40.35c0,2.29-2.78,4.29-4.61,5.36-.97.57-2.17.57-3.14,0-1.83-1.07-4.61-3.07-4.61-5.36,0-3.42,2.77-8.84,6.18-8.84s6.18,5.42,6.18,8.84Z"/>
    <path class="cls-3" d="m23.58,93.52c0-2.29,2.78-4.29,4.61-5.36.97-.57,2.17-.57,3.14,0,1.83,1.07,4.61,3.07,4.61,5.36,0,3.42-2.77,8.84-6.18,8.84s-6.18-5.42-6.18-8.84Z"/>
  </g>
  <g>
    <rect class="cls-4" x="44.52" y="44.38" width="2.36" height="48.39"/>
    <path class="cls-3" d="m51.88,40.35c0,2.29-2.78,4.29-4.61,5.36-.97.57-2.17.57-3.14,0-1.83-1.07-4.61-3.07-4.61-5.36,0-3.42,2.77-8.84,6.18-8.84s6.18,5.42,6.18,8.84Z"/>
    <path class="cls-3" d="m39.51,93.52c0-2.29,2.78-4.29,4.61-5.36.97-.57,2.17-.57,3.14,0,1.83,1.07,4.61,3.07,4.61,5.36,0,3.42-2.77,8.84-6.18,8.84s-6.18-5.42-6.18-8.84Z"/>
  </g>
  <g>
    <rect class="cls-4" x="12.64" y="44.38" width="2.36" height="48.39"/>
    <path class="cls-3" d="m20.01,40.35c0,2.29-2.78,4.29-4.61,5.36-.97.57-2.17.57-3.14,0-1.83-1.07-4.61-3.07-4.61-5.36,0-3.42,2.77-8.84,6.18-8.84s6.18,5.42,6.18,8.84Z"/>
    <path class="cls-3" d="m7.64,93.52c0-2.29,2.78-4.29,4.61-5.36.97-.57,2.17-.57,3.14,0,1.83,1.07,4.61,3.07,4.61,5.36,0,3.42-2.77,8.84-6.18,8.84s-6.18-5.42-6.18-8.84Z"/>
  </g>
  <g>
    <rect class="cls-4" x="67.92" y="60.27" width="2.36" height="48.39" transform="translate(-18.41 19.26) rotate(-14.02)"/>
    <path class="cls-3" d="m68.26,55.58c.55,2.22-1.66,4.83-3.18,6.32-.81.79-1.97,1.08-3.05.76-2.04-.59-5.22-1.86-5.77-4.08-.83-3.31.54-9.25,3.86-10.07s7.31,3.76,8.14,7.08Z"/>
    <path class="cls-3" d="m69.14,110.17c-.55-2.22,1.66-4.83,3.18-6.32.81-.79,1.97-1.08,3.05-.76,2.04.59,5.22,1.86,5.77,4.08.83,3.31-.54,9.25-3.86,10.07-3.31.83-7.31-3.76-8.14-7.08Z"/>
  </g>
  <g>
    <path class="cls-1" d="m105.99,27.15c.62-6.47-2.72-12.12-7.58-13.75-4.68-1.56-9,1.2-9.52,1.54-4.66,3.08-5.39,8.5-5.63,10.33-.79,5.86,1.73,10.25,5.36,16.56.32.56,2.2,3.76,5.77,6.5,1.89,1.45,2.91,1.75,3.82,1.74,2.22,0,4.05-1.52,5.08-2.63,1.41-1.52,2.01-3.45,2.43-4.82"/>
    <path class="cls-1" d="m89.86,39.52c-1.75-2.58-3.77-6.51-4.17-11.5-.2-2.52-.37-4.95,1.04-7.44,1.52-2.68,4.53-4.85,8.03-4.94.78-.02,4.38-.11,6.56,2.63,2.43,3.05,1.95,8.17-1.04,10.88-2.62,2.37-6.06,1.9-6.62,1.81"/>
    <path class="cls-1" d="m102.88,23.15c-1.75,4.43-4.73,4.29-5.88,4.5-1.86.35-2.69-.08-4.44.56-.92.34-2.47.91-3.19,2.44-.77,1.65-.17,3.58.75,4.75,1.16,1.48,2.87,1.8,3.25,1.88,1.47.28,2.37-.23,3.55.14.75.24,1.33,1.17,2.39,2.23s1.56,1.15,2.19,1.19c.13,0,1.26.06,1.81-.69.61-.82.14-2.09-.13-2.81-.39-1.06-.79-1.2-.94-2-.17-.9.15-1.72.44-2.25"/>
  </g>
  <rect class="cls-4" x="78.88" y="33.17" width="20.85" height="2.39" transform="translate(-.12 .31) rotate(-.2)"/>
  <path class="cls-3" d="m79.06,31.19c1.19,0,2.23,1.44,2.79,2.39.3.5.3,1.13,0,1.63-.55.95-1.58,2.4-2.77,2.4-1.77,0-4.59-1.42-4.6-3.2s2.8-3.22,4.58-3.23Z"/>
  <rect class="cls-5" x="-1250.63" y="-2320.85" width="6467.34" height="6437.3"/>
</svg>