<?xml version="1.0" encoding="UTF-8"?>
<svg id="Calque_1" data-name="Calque 1" xmlns="http://www.w3.org/2000/svg" viewBox="0 0 128 128">
  <defs>
    <style>
      .cls-1 {
        fill: #bbfedb;
      }

      .cls-1, .cls-2, .cls-3, .cls-4, .cls-5 {
        stroke: #000;
      }

      .cls-1, .cls-2, .cls-6 {
        stroke-linecap: round;
        stroke-linejoin: round;
      }

      .cls-2, .cls-3 {
        fill: #fff;
      }

      .cls-7 {
        fill: #a07637;
      }

      .cls-3, .cls-4, .cls-5 {
        stroke-miterlimit: 10;
      }

      .cls-4 {
        fill: #b2f0e9;
      }

      .cls-6 {
        stroke: #fff;
        stroke-width: 8px;
      }

      .cls-6, .cls-5 {
        fill: none;
      }
    </style>
  </defs>
  <path class="cls-4" d="m81.88,85.04l-.47,2.21c-43.58,3.32-59.68-18.17-59.68-18.17l.09-.39c.18-.73,1.02-1.07,1.65-.66,3.7,2.35,14.39,9.01,18.45,9.99,0,0,8.04,5.1,39.96,7.02Z"/>
  <path class="cls-3" d="m81.41,87.25l.47-2.21c2.21.37,6.38.99,10.46,1.08.65.01,1.13.59,1.05,1.22l-1.19,9.4c-.05.43-.34.78-.76.91-2.18.67-9.14,2.76-11.75,3.08-.5.06-.88.45-.94.95l-.14,1.2c-.05.39-.29.72-.64.88-4.44,1.95-33.87,13.36-53.6-17.57-.11-.16-.26-.3-.44-.39l-8.37-4.02c-.3-.15-.52-.42-.59-.75l-2.23-10.2c-.17-.77.51-1.47,1.28-1.3,1.5.32,3.91.65,6.76.38.46-.04.84-.38.95-.83,0,0,16.1,21.49,59.68,18.17Z"/>
  <path class="cls-3" d="m121.19,44.98l-1.45,6.89c-.14.64-.81,1.02-1.43.81l-4.21-1.47c-.62-.21-1.28.15-1.43.79l-.94,4.06c-.09.38-.38.68-.75.8l-15.3,4.49c-.25.08-.47.24-.61.46l-13.92,21.56c-.42.66-.04,1.53.73,1.67-31.92-1.92-39.96-7.02-39.96-7.02.34.09.7,0,.97-.24,2.24-1.96,12.71-11.9,8.64-23.02-.11-.31-.37-.55-.68-.66l-14.26-4.81c-.45-.15-.75-.57-.75-1.03v-2.56c0-.67-.59-1.18-1.25-1.08l-5.18.77c-.65.1-1.24-.39-1.25-1.05l-.13-5.51c0-.52.35-.98.86-1.09l6.27-1.37c.5-.11.86-.55.86-1.06v-1.3c0-.41.24-.79.61-.97,1.63-.8,6.25-2.91,9.58-2.69.76.05,1.36-.62,1.17-1.36-.02-.09-.03-.18-.03-.27,0-.54.4-1.02.96-1.08,6.34-.72,35.7-3.58,56.39,2.71.6.18.92.84.7,1.43l-.63,1.72c-.19.5.02,1.05.47,1.32l9.96,5.78c.43.25.63.77.5,1.25l-.11.38c-.2.69.31,1.38,1.03,1.39l3.51.05c.69.01,1.2.64,1.06,1.31Z"/>
  <line class="cls-3" x1="20.79" y1="69.91" x2="24.37" y2="86.19"/>
  <path class="cls-3" d="m46.21,30.35s-3.16,17.44,4.64,23.76"/>
  <path class="cls-3" d="m95.07,61.81c12.72-6.75,9.7-28.31,9.7-28.31"/>
  <path class="cls-3" d="m57.33,26.85s-9.79,10.61-5.79,27.92"/>
  <path class="cls-3" d="m97.2,28.51s1.29,27.17-2.12,33.3"/>
  <path class="cls-3" d="m51.07,81.09s14.05-41.56,12.01-54.72"/>
  <path class="cls-3" d="m89.85,27.38s7.71,23.78-17.95,56.89"/>
  <path class="cls-3" d="m58.11,57.67s15.24-17,26.7,5.39"/>
  <path class="cls-4" d="m31.6,39.29h1.82v3.09h-1.82c-.7,0-1.26-.57-1.26-1.26v-.56c0-.7.57-1.26,1.26-1.26Z" transform="translate(-4.06 3.52) rotate(-5.94)"/>
  <path class="cls-4" d="m116.69,46.28h1.82v3.09h-1.82c-.7,0-1.26-.57-1.26-1.26v-.56c0-.7.57-1.26,1.26-1.26Z" transform="translate(212.22 130.87) rotate(-161.15)"/>
  <line class="cls-5" x1="81.41" y1="87.25" x2="78.75" y2="101.68"/>
  <path class="cls-7" d="m69.96,62.56c-4.33,5.11-3.19.18-5.43.13-1.01-.02-1.9.45-2,2.15-.23,4.05.41,5.73-2.61,8.19-2.9,2.37.3,6.49,3.65,5.62s3.69-4.28,5.38-2.74c1.68,1.54,7.74-.09,4.95-4.36s3.09-7.56-1.7-9.66c-.75-.33-1.71.04-2.24.66Z"/>
  <circle class="cls-1" cx="43.89" cy="91.5" r="1.83" transform="translate(-53.46 120.16) rotate(-80.78)"/>
  <circle class="cls-1" cx="53.79" cy="93.37" r="1.83" transform="translate(-47.62 129.81) rotate(-79.82)"/>
  <path class="cls-1" d="m53.78,97.34s-1.35,4.53-6.13,3.58c-.12-.02-.23-.05-.33-.09-.11,0-.22-.02-.34-.03-4.82-.77-4.5-5.49-4.5-5.49,0,0,.01-1.1,2.01-3.42,1.99-2.32,4.73-1.55,4.73-1.55,0,0,2.83.23,3.89,3.1,1.06,2.87.69,3.9.69,3.9Z"/>
  <circle cx="45.26" cy="94.26" r=".54" transform="translate(-55.52 122.15) rotate(-79.82)"/>
  <circle cx="51.51" cy="95.49" r=".54" transform="translate(-51.58 129.31) rotate(-79.82)"/>
  <ellipse class="cls-2" cx="48.21" cy="95.79" rx=".69" ry="1.44" transform="translate(-55.09 124.59) rotate(-78.86)"/>
  <line class="cls-5" x1="47.22" y1="100.82" x2="48.08" y2="96.47"/>
  <rect class="cls-6" x="-3040.89" y="-5543.69" width="6467.34" height="6437.3"/>
</svg>