<?xml version="1.0" encoding="UTF-8"?>
<svg id="Calque_1" data-name="Calque 1" xmlns="http://www.w3.org/2000/svg" viewBox="0 0 128 128.13">
  <defs>
    <style>
      .cls-1 {
        fill: #ff6d75;
      }

      .cls-1, .cls-2, .cls-3, .cls-4 {
        stroke: #000;
      }

      .cls-1, .cls-2, .cls-3, .cls-4, .cls-5 {
        stroke-linecap: round;
        stroke-linejoin: round;
      }

      .cls-2 {
        fill: #fff;
      }

      .cls-3, .cls-5 {
        fill: none;
      }

      .cls-4 {
        fill: #fab0b4;
      }

      .cls-5 {
        stroke: #fff;
        stroke-width: 8px;
      }
    </style>
  </defs>
  <path class="cls-1" d="m122.92,54.85c0-17-13.83-30.84-30.83-30.84-12.48,0-23.24,7.45-28.09,18.13-4.85-10.68-15.61-18.13-28.08-18.13-17.01,0-30.84,13.84-30.84,30.84,0,3.59.62,7.03,1.75,10.23,1.29,3.65,3.24,6.98,5.72,9.86,1.06,1.23,2.2,2.37,3.44,3.42l47.03,46.72c.29.29.67.43,1.05.43s.76-.14,1.06-.43l48.78-48.46h0c3.16-3.18,5.64-7.02,7.19-11.31,1.18-3.27,1.82-6.79,1.82-10.45Z"/>
  <path class="cls-2" d="m65.49,65.67c-.11-.41-.51-.66-.89-.84-.03-.01-.06-.03-.09-.04-.75-.36-1.51-.76-2.11-1.35-.07-.07-.15-.18-.22-.28-1.11-3.39-2.22-6.77-3.33-10.16-.48-1.45-1.23-3-1.22-4.53.01-1.64-.3-3.29-.47-4.92-.05-.45-.09-.89-.13-1.34-.22-2.34-.39-4.68-.82-6.99-.33-1.78-.79-5.48-3.13-5.76-.67-.08-1.37.17-1.84.66-.71.74-.8,1.87-.77,2.9.04,1.42.25,2.83.46,4.23.24,1.63.69,3.33.78,4.98.18,3.7.89,7.17,2.15,10.65.95,2.63,2.1,5.18,3.31,7.7.58,1.2,1.25,2.36,1.98,3.47.03.04.05.07.08.1-.18.6.21,1.31.35,1.87.19.73.58,1.38.98,2.01.36.57.79,1.17,1.44,1.32.29.07.61-.29.85-.44.46-.27.95-.55,1.2-1.03.06-.12.11-.25.11-.39,0-.21-.13-.39-.21-.58-.18-.4-.43-1.44.32-1.15.24.09.49.19.73.28.12.05.26.09.38.03.14-.08.15-.27.11-.42Z"/>
  <g>
    <path class="cls-2" d="m39.71,120.79s-1.82,2.4,0,2.67c1.82.27,6.53,0,6.53,0,0,0,1.43.48.18-2.87-.66-.05-1.31-.16-1.96-.21-1.59-.13-3.18.17-4.75.41-.64.1-1.39.15-1.82-.33-.17-.19-.26-.43-.33-.67-.28-.93-.3-1.91-.28-2.87.02-.96-.07-1.91-.1-2.87-.06-2.02-.05-4.05-.09-6.07-.06-3.04-.12-6.09-.18-9.13,0-12-.89-23.86-1.46-35.83-.04-.84-.09-1.86-.07-2.94,0-.13.01-.26.02-.4-.05-.81,0-1.62.14-2.42.01-.06.02-.13.04-.19.21-1.02.58-2.01.94-2.99.54-1.46.88-3.22,1.43-4.58.51-1.24,2.32-1.27,3.56-1.46,3.34-.53,6.76-.46,10.11-.11.14.01.28.03.39.11.17.12.22.34.25.54.44,2.41.82,4.84,1.14,7.27.05.37.1.81.14,1.28.38,2.09.75,4.19,1.08,6.29.73,4.63,1.34,9.28,1.83,13.94.26,2.51.81,5.26.65,7.78,0,.08-.01.16-.02.24-.02.2-.04.4-.06.6-.16,1.29-.48,2.58-.86,3.84-.27.9-.56,1.79-.83,2.65-2.73,8.65-5.47,17.29-8.2,25.94,0,.36-.02.71-.02,1.06,0,.5.37,1.17-.39,1.14-.09,0-.19-.02-.28-.03"/>
    <line class="cls-2" x1="47.14" y1="118.41" x2="46.86" y2="64.33"/>
  </g>
  <path class="cls-2" d="m51.34,47.61c.72,0,8.24-.77,8.16-1.11-1.02-4.66-2.28-9.27-3.76-13.8-.31-.95-.66-1.94-1.42-2.6-.34-.3-.75-.51-1.16-.72-.34-.18-.7-.35-1.08-.41-2.02-.27-2.31,3.55-2.36,4.86-.07,1.58.15,3.15.37,4.71.22,1.57.49,3.15.7,4.71.2,1.46.27,2.91.55,4.36Z"/>
  <path class="cls-2" d="m38.3,30.12c-.46-.49-1.17-.74-1.84-.66-2.58.31-3.1,4.93-3.45,6.86-.36,1.96-.69,3.92-1.01,5.88-.22,1.39-.43,2.78-.63,4.18-.24,1.7-.47,3.41-.68,5.12-.03.22-.08.45-.1.66-.38.85-.62,1.78-.79,2.51-1.1,4.62-1.92,9.3-2.68,13.99-.04.22-.06.46-.05.69-.11.14-.2.29-.26.45-.78,1.97-.48,4.32.42,6.22.04.09.1.18.2.21.12.03.25-.05.3-.14s.04-.21.03-.32c.02.19.14.36.32.46.29.17.35-.11.32-.33-.05-.47-.1-.93-.16-1.4-.07-.49-.08-.98-.05-1.47.02-.34.04-.68.13-1.01.04-.14.06-.39.27-.36.11.02.19.11.26.2.09.13.17.28.22.43.06.17.1.35.18.51.08.16.19.32.36.38.32.12.39-.18.34-.43,0-.02,0-.04-.01-.06-.03-.13-.08-.24-.12-.37-.13-.35-.2-.73-.21-1.11,0-.14.04-.26.04-.39,0-.19-.02-.39-.04-.58-.03-.23-.1-.43-.19-.62,1.02-2.72,1.96-5.49,3.14-8.13,1.18-2.63,2.15-5.37,2.97-8.14.07-.22.13-.45.17-.68.03-.06.05-.12.08-.19.55-1.56.85-3.19,1.13-4.82.61-3.47,1.17-6.95,1.69-10.43.21-1.4.41-2.81.46-4.23.03-1.03-.06-2.16-.77-2.9Z"/>
  <path class="cls-2" d="m33.56,31.77c-1.01,1.69-1.54,3.86-2.04,5.47-1,3.25-1.66,6.59-2.33,9.93.39.07.96.33,1.34.33.75.3,1.66.29,2.45.45,1.54.32,3.1.56,4.67.71.17-2.59.69-5.17,1.03-7.74.35-2.64.65-5.29.92-7.95.06-.61.12-1.22,0-1.82s-.42-1.19-.95-1.5c-.69-.41-2.06-.46-2.8-.11-.98.45-1.72,1.26-2.3,2.24Z"/>
  <path class="cls-2" d="m55.29,36.43c-.15,1.16-.39,2.32-.54,3.42-.31,2.27-.66,4.53-1.04,6.79-.15.89-.16,1.76-.42,2.64-.05.18-.12.37-.26.5-.16.13-.38.16-.58.18-.75.07-1.5.11-2.25.15-3.63.2-7.26.4-10.9.31-.41,0-.83-.03-1.19-.23-.64-.36-.86-1.16-1-1.88-.68-3.41-.7-7.14-2.09-10.34-.26-.6-.49-1.09-.93-1.55-.66-.69-.74-1.36-.74-2.34-.03-3.28,3.36-5.44,6.15-6.29.68-.21,1.37-.36,2.07-.48,1.33-.22,2.7-.28,4.06-.2,1.16.06,2.32.17,3.44.48.04.01.08.02.12.03,1.93.57,4.52,1.38,5.57,3.25.43.76.56,1.65.66,2.52.11.98.04,2.01-.1,3.05Z"/>
  <path class="cls-2" d="m63.77,68.4s0-.04,0-.06c0-.04,0-.09.01-.13.05-.1.21-.09.32-.12.17-.05.26-.23.25-.39,0-.16-.09-.31-.18-.45-.21-.36-.69-1.02-1.22-.91-.08.02-.16.05-.2.11-.05.07-.05.16-.04.24.03.17.09.34.2.49-.12-.17-.39-.35-.6-.4-.2-.06-.51-.02-.5.26,0,.12.08.22.14.32.09.13.18.25.27.38-.07-.04-.13-.08-.19-.12-.09-.06-.19-.12-.29-.15-.11-.04-.22-.04-.33,0-.51.21.05.88.24,1.1-.13-.1-.34.04-.35.19,0,.15.11.29.24.39.12.1.25.18.4.25.13.06.28.12.42.09.15-.03.28-.17.24-.3.32.06.67-.22.64-.52.2.06.45-.08.49-.27Z"/>
  <path class="cls-2" d="m93.2,67.17c-.12,5.12-1.45,10.4-2.33,15.26-1.42,7.97-1.96,16.09-1.6,24.17.08,1.89.6,3.38-1.42,3.96.08.38.16.77.22,1.15.02.1.03.19.05.29.15,1.04.3,2.25-.08,3.27-.01.04-.03.08-.05.13-.21.5-.59.95-1.13,1.23-.9.44-2.06.21-2.68-.47-.04-.04-.07-.08-.11-.14h-.01c-.07-.1-.14-.2-.2-.31-.06-.1-.11-.2-.15-.31-.2-.5-.24-1.03-.28-1.58-.03-.5-.02-1.01,0-1.5.03-.64.06-1.26.06-1.89-.22-.05-.44-.11-.66-.15-.15,2.09-.32,4.18-.57,6.27-.07.61-.15,1.24-.04,1.84.06.39.2.77.17,1.16-.04.34-.24.91-.64.98-.2.04-.41-.03-.61-.11-.26-.1-.55-.17-.83-.22.16.44.25.89.38,1.34.08.29.3.51.24.83-.01.05-.02.12-.05.17-.14.31-.55.35-.9.36h-2.73c-.4,0-.86,0-1.22-.17-.1-.05-.22-.11-.3-.18-.02-.02-.04-.04-.05-.06-.07-.14-.08-.27-.05-.41h0c.12-.47.24-.93.36-1.39-.05.02-.11.04-.15.06-.15.07-.6.23-.74.11-.1-.08-.12-.22-.14-.35-.19-1.07-.37-2.16-.31-3.25.03-.72.18-1.45.07-2.17-.06-.48-.23-.92-.34-1.39-.19-.86-.02-1.68-.07-2.53-.06-.91-.12-1.82-.17-2.73-.56-8.83-1.11-17.67-1.67-26.5-.3-4.81-.6-9.6-.9-14.41l-.03-.38c-.2-2.69-.69-5.59.41-8.14,1.06-2.45,3.5-2.9,5.97-2.91.61,0,1.22.02,1.81.05l6.82.8,4.19.49c1.19,1.09,1.75,2.71,2.04,4.3.34,1.77.44,3.58.39,5.41Z"/>
  <path class="cls-2" d="m70.68,45.68c-.68-.59-1.68-.66-2.56-.47-.84.19-1.65.61-2.15,1.31-.36.51-.53,1.12-.7,1.72-.85,3.08-1.7,6.16-2.46,9.26-.34,1.4-.68,2.83-1.27,4.14-.14.32-.28.64-.37.98-.09.07-.17.16-.25.27-.23.32-.4.67-.57,1.03-.28.59-.56,1.18-.8,1.78-.19.49-.57,1.55.23,1.61.04.19.04.38.13.56.09.17.27.31.46.3.03,0,.05,0,.07,0,.04.02.04.07.04.11,0,.15.06.3.15.41.1.11.25.18.4.16.04.15.08.31.17.44.11.17.44.39.65.38.19-.01.16-.17.21-.3.26-.69.48-1.39.67-2.1.05-.19.07-.38.32-.39.35-.02.69.32.93.53.1.09.53.55.67.47.06-.03.07-.11.08-.17.04-.33-.04-.64-.13-.95-.27-.95-.46-1.91-.53-2.9,0-.13-.02-.26-.04-.39,0-.04-.02-.08-.03-.12.04-.05.08-.08.12-.14.1-.17.19-.35.3-.54.53-.96,1.06-1.91,1.58-2.87,1.03-1.93,2.03-3.87,2.98-5.84.91-1.88,1.75-3.84,2.26-5.87.24-.96.24-1.69-.56-2.39Z"/>
  <path class="cls-2" d="m72.88,40.1c-.17,2.1-.31,4.2-.46,6.3-.08,1.07-.15,2.14-.23,3.21-.06.82-.03,1.59-.63,2.22-.07.08-.16.15-.26.17-.12.03-.25-.01-.36-.06-.83-.36-1.12-1.1-1.68-1.73-.48-.54-1.24-.69-1.95-.72-.68-.03-1.28.05-1.9.32-.35.15-.62.11-.78-.29-.2-.5-.09-1.07.12-1.56.21-.49.5-.95.69-1.45.25-.65.31-1.36.27-2.05-.04-.82-.19-1.69.18-2.42.18-.35.47-.64.66-.99.62-1.11.17-2.44.39-3.63.11-.63.35-1.22.46-1.87.14-.75.28-1.5.43-2.26.4-2.06.69-4.71,1.89-6.48.84-1.25,2.3-3.19,4.04-2.74.12.03.24.08.32.18.09.12.08.29.06.44-.18,1.85-.34,3.7-.5,5.55-.12,1.38-.03,2.68-.19,4.06-.23,1.92-.4,3.85-.56,5.78Z"/>
  <g>
    <path class="cls-2" d="m87.65,35.29c-.22,4.16-.54,8.31-.77,12.47-.17,3.06-.35,6.15-.31,9.22l-6.82-.8c-.59-.03-1.2-.05-1.81-.05.07-2.27.14-4.52.21-6.77.12-3.55.23-7.08.35-10.62.11-3.45.31-6.9.34-10.35,0-.96-.03-1.92.06-2.87.07-.82-.17-1.68.32-2.44.33-.51.92-.79,1.51-.96,1.31-.38,2.65-.69,4.02-.77.36-.03.75-.03,1.08.14.32.17.52.48.7.78.88,1.56.98,3.32,1.01,5.07.01,2.65.24,5.35.11,7.96Z"/>
    <path class="cls-2" d="m95.19,33.45c-2.27,9.72-1.91,19.84-1.43,29.81.03.74-.01,1.55.04,2.31.02.36.06.7.14,1.04.05.2.25.38.28.57h-7.56c.05-.46.11-.9.15-1.35.19-1.86-.01-3.76-.13-5.62-.07-1.07-.11-2.14-.11-3.22-.04-3.07.14-6.16.31-9.22.23-4.16.55-8.31.77-12.47.14-2.61-.1-5.31-.11-7.96-.02-1.75-.13-3.51-1.01-5.07-.18-.31-.38-.61-.7-.78-.33-.17-.72-.17-1.08-.14-1.38.08-2.71.39-4.02.77-.59.17-1.19.45-1.51.96-.49.75-.24,1.62-.32,2.44-.1.95-.06,1.91-.06,2.87-.03,3.45-.23,6.9-.34,10.35-.12,3.54-.23,7.07-.35,10.62-.07,2.25-.14,4.51-.21,6.77-.03,1.22-.08,2.45-.14,3.66-.11,2.46-.17,4.93.02,7.39h-6.85c.34-6.11.13-12.25.31-18.37.17-6.17.3-12.36-.48-18.49-.15-1.16-.19-2.13.13-3.24.28-.96.25-1.98,1.13-2.65.32-.24.7-.38,1.06-.51,1.76-.62,3.5-1.26,5.25-1.88,1.19-.42,2.39-.87,3.64-1.11.49-.1,1.09-.26,1.59-.23.63.03,1.32.29,1.96.4,2.36.4,4.67,1.16,6.83,2.22.95.47,2.06.93,2.72,1.79.68.91.97,1.89.98,3.03.03,1.79-.56,3.77-.91,5.31Z"/>
  </g>
  <path class="cls-2" d="m101.1,67.49c-.13-.28-.25-.59-.38-.88-.09-.2-.18-.39-.3-.57.19-1.13.07-2.4.1-3.49.04-1.6.06-3.2.08-4.8.03-3.2,0-6.4-.07-9.6-.04-1.98-2.24-1.48-3.55-1.09-.57.17-1.38.41-1.65,1.01-.26.57-.03,1.54.04,2.16.27,2.65.53,5.3.8,7.95.19,1.83.37,3.67.66,5.49.14.91.31,1.81.52,2.71.02.08.03.16.05.24-.19.42-.31.88-.36,1.33-.09.82-.04,1.78.31,2.52.04.09.17.27.24.12.02-.04-.01-.12,0-.17.01-.17.11-.33.25-.34.02.03.04.06.06.09.05.09.1.19.11.29.01.1,0,.19-.04.28-.06.18-.15.35-.12.54,0,.05.08.06.14.05.09.07.21.15.31.16.34.03.67-.31.83-.58,0,.11.09.21.2.24.11.03.22,0,.33-.04.27-.12.48-.38.55-.67.18.11.42.11.6,0s.28-.33.26-.54c0,.02.2-.1.22-.11.07-.07.13-.15.16-.25.05-.17.06-.41.06-.58,0-.52-.17-1.02-.39-1.48Z"/>
  <path class="cls-2" d="m93.33,40.09c0,.64,0,1.27.02,1.91.04,1.17.25,2.32.62,3.43.16.48.39.93.5,1.42.26,1.15-.15,2.3-.17,3.45,0,.41-.03,1.29.39,1.54.27.16.93.06,1.23.03,1.09-.1,2.18-.19,3.28-.29.58-.05,1.54.24,2.01-.21.55-.54.5-1.75.28-2.41-.11-.34-.29-.65-.38-.99-.34-1.27.54-2.71-.04-3.89-.14-.29-.36-.53-.53-.8-.42-.69-.47-1.51-.52-2.3-.04-.72-.14-1.43-.18-2.15-.11-1.83-.62-3.73-.97-5.53-.4-2.06-.69-4.71-1.89-6.48-.84-1.25-2.3-3.19-4.04-2.74-.12.03-.24.08-.32.18-.09.12-.08.29-.06.44.18,1.85.34,3.7.5,5.55.12,1.38.03,2.68.19,4.06.22,1.91.12,3.85.1,5.78Z"/>
  <path class="cls-2" d="m71.44,46.04c-.02-1.86-.03-3.72,0-5.58.01-1.05.03-2.1.06-3.15,0-.08-.2-.08-.2,0-.05,1.87-.07,3.74-.07,5.61,0,1.86.02,3.72.06,5.58.02,1.05.06,2.1.1,3.15,0,.08.21.08.2,0-.07-1.87-.12-3.74-.14-5.6Z"/>
  <line class="cls-2" x1="82.84" y1="110.28" x2="81.89" y2="64.09"/>
  <line class="cls-2" x1="76.01" y1="120.7" x2="80.33" y2="120.21"/>
  <line class="cls-2" x1="83.5" y1="110.43" x2="87.85" y2="110.57"/>
  <path class="cls-2" d="m36.99,52.6s11.5.88,15.93-.35"/>
  <path class="cls-2" d="m40.31,52.79s-.07,5.13-4.92,5.47"/>
  <path class="cls-2" d="m49.54,52.76s.22,5.96,4.27,5.81"/>
  <path class="cls-2" d="m89.06,9.34s-.01.06-.01.1c-.05.35-.12.73-.21,1.13-.02-.17-.17-1.67-1.75-3.9-.02-.04-.06-.1-.1-.14,0,0-.52.03-.9-.26-.65.12-1.33.06-1.78-.47-.84.82-1.52.22-1.63.12-.01,0-.02-.01-.03-.01-.17.31-.42.56-.8.6-.26.03-.52-.04-.75-.19-.57.4-1.14.52-1.63.49l-.17.04c-.15.37-1.34,2.53-1.51,3.84-.01.25,0,.52.02.77,0,0-.02-.03-.05-.1,0,.08.01.16.02.22h-.01v-.02c-.05-.13-.34-.76-.53-1.63,0-.01-.01-.02-.01-.03-.38-1.75-.4-4.38,2.5-5.55,0,0,.18-.96,1.41-.82,0,0,1.42-1.55,3.12-.27,1.2-.34,1.51.58,1.51.58,3.27.77,3.48,3.73,3.29,5.48Z"/>
  <path class="cls-2" d="m88.58,14.66h0c.09-.03.7-.3.92-1.37.24-1.15.72-1.1.59-2.23-.14-1.07-1.17-.43-1.28-.35"/>
  <path class="cls-2" d="m86.97,23.19c-4.87,4.31-6.81-.36-7.67-.72l1.13-2.82.03-.43,5.85-1.13.15,1.21.51,3.89"/>
  <path class="cls-3" d="m83.03,4.24s0,1-.36,1.67h0"/>
  <path class="cls-3" d="m81.1,6.33c-.79-.46-1.32-1.61-1.32-1.61"/>
  <path class="cls-2" d="m78.61,15.47h0c-.09-.02-.74-.19-1.12-1.21-.41-1.1-.88-.97-.92-2.11-.03-1.08,1.08-.61,1.21-.55"/>
  <path class="cls-3" d="m87.72,5.66s-.77.46-1.63.61"/>
  <path class="cls-2" d="m88.81,10.71c.02.63.03,2.27-.23,3.95-.21,1.41-.63,2.85-1.41,3.78-1.78,2.17-2.93,2.21-3.1,2.19-.18.04-1.4.23-3.5-1.64-.9-.8-1.54-2.17-1.97-3.51-.52-1.63-.76-3.24-.84-3.86h.01c-.01-.07-.02-.15-.02-.23.03.06.05.1.05.1-.02-.25-.03-.52-.02-.77.17-1.31,1.37-3.47,1.51-3.84l.17-.04c.49.03,1.06-.08,1.63-.49.23.15.49.22.75.19.38-.04.64-.3.8-.6.01,0,.02.01.03.01.11.11.79.7,1.63-.12.44.53,1.13.58,1.78.47.38.3.9.26.9.26.03.04.07.1.1.14,1.58,2.22,1.73,3.73,1.75,3.9.1-.4.16-.78.21-1.13-.08.67-.2,1.14-.23,1.25h0v.02Z"/>
  <path class="cls-3" d="m77.78,10.7c-.04.25-.04.47-.03.68"/>
  <path class="cls-3" d="m87.12,6.85s1.68,2.45,1.68,3.86"/>
  <path class="cls-3" d="m77.73,11.34h0s0,.12.03.24h0s0,.03,0,.03"/>
  <path class="cls-3" d="m88.81,10.71v-.02"/>
  <path class="cls-3" d="m88.8,10.44s0,.09,0,.24"/>
  <path class="cls-3" d="m85.01,4.84c-.21.4-.43.69-.63.9-.02.03-.04.06-.07.07"/>
  <path class="cls-3" d="m82.68,5.93l-.02-.02"/>
  <path class="cls-3" d="m51.81,15.68s1.04-2.63.45-4.49c-.71-2.25-2.8-2.01-2.8-2.01-1.37-1.67-6.41-2.05-10.58,1.05-3.04,2.26-2.06,5.33-.73,7.09"/>
  <path class="cls-3" d="m37.16,15.74s-.45,2.34.96,3.93c1.23,1.39,2.33,3.23,2.78,4.96"/>
  <path class="cls-2" d="m47.09,24.19c.46.19,2.46.4,4.22.09,1.86-.33,1.47-1.63,1.44-3.62-.03-1.97.87-2.23.83-2.73-.04-.5-1.84-1.19-2.05-3.34-.02-.24-.06-.45-.11-.66-.38-1.73-1.48-2.68-2.13-3.16,0,0-1.54,3.77-1.89,4.39-.35.62-1.53,2.45-2.64,2.21-1.01-.23-1.93-.83-2.68-.2-.75.64-.58,2.39.46,2.83,0,0-.72,1.85-.94,3.1l-2.13,4.68s6.77,4.45,9.56-.2l-1.95-3.38Z"/>
  <line class="cls-3" x1="43.05" y1="18.35" x2="43.54" y2="18.48"/>
  <path class="cls-4" d="m70.6,10.16c0-1.91-1.55-3.46-3.46-3.46-1.4,0-2.6.83-3.15,2.03-.54-1.2-1.75-2.03-3.15-2.03-1.91,0-3.46,1.55-3.46,3.46,0,.4.07.79.2,1.15.14.41.36.78.64,1.1.12.14.25.27.39.38l5.27,5.24s.07.05.12.05.09-.02.12-.05l5.47-5.43h0c.35-.36.63-.79.81-1.27.13-.37.2-.76.2-1.17Z"/>
  <rect class="cls-5" x="-566.36" y="-80.55" width="1466.44" height="999.05"/>
</svg>