<?xml version="1.0" encoding="UTF-8"?>
<svg id="Calque_1" data-name="Calque 1" xmlns="http://www.w3.org/2000/svg" viewBox="0 0 128 128">
  <defs>
    <style>
      .cls-1 {
        fill: #fab0b4;
      }

      .cls-2, .cls-3 {
        fill: #ff6d75;
      }

      .cls-4 {
        fill: #fff;
        stroke: #000;
        stroke-width: 2px;
      }

      .cls-4, .cls-5 {
        stroke-linecap: round;
        stroke-linejoin: round;
      }

      .cls-3 {
        stroke: #fab0b4;
        stroke-miterlimit: 10;
      }

      .cls-5 {
        fill: none;
        stroke: #fff;
        stroke-width: 8px;
      }
    </style>
  </defs>
  <path class="cls-4" d="m16.49,103.83c.65.83,1.32,1.64,2.01,2.4,2.24,2.48,4.79,4.74,7.86,6.14,2.58,1.17,5.34,1.73,8.13,2.12,8.97-10.03,36.76-41.23,45.88-51.48,2.64.08,5.35-.37,7.88-1.41,12.04-4.91,11.16-4.97,15.13-7.19,3.25-1.82,6.96-3.25,8.43-4.55,3.95-3.5.87-5.31-1.67-5.31-4.01,0-14.57,4.54-12.29,1,.81-1.26,4.87-7.1,5.86-8.46,2.87-3.91,5.21-7.69,7.74-11.84.74-1.22,2.18-4.19,1.98-5.72-.47-3.55-3.97-3.12-6.23.24-3.24,4.83-9.87,14.88-13.92,18.88,1.12-1.96,7.34-13.23,8.39-15.2,1.1-2.03,6.16-10.46,2.6-12.24-2.3-1.16-4.57,1.17-8.82,9.28-2.63,5.02-6.33,10.87-8.98,13.96,2.1-6.18,4.52-11.39,5.74-14.42,5.5-13.68-2.81-11.18-4.67-6.01-3.02,8.42-4.01,10.73-7.73,17.71,1.19-7.34,4.09-17.32,2.92-20.4-1.02-2.7-4.23-4.13-7.05,8.11-.72,3.11-2.21,9.72-3.6,13.31-1.15,2.96-6.95,10.85-7.26,14-.07.72-.09,1.41-.07,2.09-10.96,9.5-38.12,33.03-51.82,44.05.13,2.16.4,4.3,1.18,6.33.62,1.61,1.54,3.11,2.38,4.61Z"/>
  <g>
    <path class="cls-1" d="m72.75,54.86c-.55.21-1.1.43-1.64.66,0,0-.02-.02-.04,0-2.42,1-4.81,2.06-7.17,3.2-2.42,1.17-4.76,2.5-7.09,3.84-.05.03-.03.08.03.05,2.3-1.3,4.59-2.63,6.96-3.78.08-.04.16-.08.25-.12-2.79,1.42-5.47,3.07-8.11,4.75-.06.04,0,.07.05.04,2.67-1.69,5.35-3.35,8.16-4.78,2.8-1.44,5.69-2.68,8.61-3.82.03-.01.04-.06,0-.04Z"/>
    <path class="cls-1" d="m75.48,54.32c-1.35.46-2.69.98-4,1.53.13-.07.25-.13.38-.2.05-.03.03-.08-.03-.06-.36.19-.71.37-1.07.56-.29.12-.57.25-.86.37.89-.45,1.78-.89,2.68-1.31.06-.03.03-.09-.03-.06-1.38.65-2.75,1.32-4.1,2.03-1,.46-1.99.94-2.98,1.42-3.37,1.66-6.61,3.56-9.8,5.55-.07.04,0,.1.05.07,1.56-.92,3.06-1.92,4.64-2.79,1.66-.92,3.33-1.83,5.02-2.68.58-.29,1.16-.57,1.74-.85-.62.34-1.24.7-1.85,1.06-2.4,1.43-4.7,3.04-7.01,4.63-.08.05,0,.09.07.06,2.33-1.53,4.61-3.15,6.99-4.59,1.09-.66,2.21-1.28,3.34-1.88.42-.2.85-.39,1.28-.58-2.18,1.17-4.33,2.38-6.43,3.69-2.74,1.7-5.37,3.55-7.94,5.51-.1.08.02.14.1.08,2.55-1.9,5.13-3.76,7.82-5.44,2.38-1.49,4.81-2.87,7.28-4.2,1.55-.67,3.13-1.29,4.72-1.85.05-.02.06-.09,0-.06Z"/>
    <path class="cls-1" d="m78.53,59.23c-1.6.61-3.23,1.12-4.83,1.73-.71.27-1.42.56-2.13.84.81-.41,1.62-.81,2.43-1.21.07-.03.04-.11-.03-.07-1.17.56-2.34,1.13-3.49,1.73-.55.23-1.09.46-1.64.7-2.34,1.02-4.63,2.14-6.87,3.37.43-.3.85-.6,1.28-.88.74-.5,1.49-.99,2.24-1.47.5-.25,1-.5,1.5-.75,2.95-1.43,5.97-2.72,9.01-3.95.04-.02.05-.08,0-.06-3.34,1.34-6.65,2.77-9.88,4.35.36-.23.71-.45,1.07-.67.28-.17.56-.35.84-.52,1.5-.81,3-1.61,4.52-2.37.82-.41,1.65-.81,2.47-1.21.41-.2.81-.4,1.21-.6.19-.09.38-.18.58-.26.21-.09.45-.25.67-.3.03,0,.04-.05,0-.04-.32.07-.62.26-.92.39-.41.17-.8.37-1.19.56-.87.41-1.74.83-2.61,1.25-.94.46-1.87.94-2.79,1.43,1.72-1,3.46-1.95,5.24-2.86.07-.04.04-.11-.04-.07-2.51,1.26-4.95,2.61-7.35,4.08-.03.01-.05.03-.08.04-1.66.89-3.3,1.81-4.92,2.76-.38.23-.77.46-1.15.69-.04.02-.08.05-.12.07.28-.22.56-.44.84-.65.63-.48,1.3-.92,1.95-1.37.6-.42,1.21-.84,1.82-1.25.26-.15.52-.3.78-.45,2.96-1.74,6.03-3.28,9.12-4.77.05-.03.03-.08-.03-.05-2.96,1.41-5.89,2.88-8.74,4.52.37-.24.73-.48,1.1-.71,1.35-.87,2.72-1.71,4.1-2.53.5-.3,1.01-.59,1.52-.87.94-.4,1.88-.79,2.83-1.18.04-.02.03-.07-.01-.05-.75.3-1.49.6-2.24.91.7-.39,1.4-.77,2.1-1.16.06-.03.03-.09-.03-.06-.95.51-1.9,1.02-2.84,1.53-.59.25-1.18.5-1.76.77-1.62.74-3.23,1.53-4.81,2.36-.15.08-.29.16-.44.23.17-.11.34-.22.52-.33,1.45-.92,2.92-1.81,4.42-2.64.13-.07.26-.14.4-.22,1.65-.69,3.32-1.3,4.99-1.92.04-.01.05-.07,0-.05-1.48.54-2.97,1.08-4.43,1.67,1.2-.64,2.41-1.27,3.6-1.93.05-.03.03-.08-.02-.05-1.51.81-3.04,1.57-4.55,2.39-1.56.66-3.1,1.38-4.62,2.14-1.66.83-3.32,1.68-4.93,2.61-1.31.76-2.6,1.57-3.89,2.36,2.49-1.7,4.96-3.42,7.51-5.02.71-.44,1.43-.88,2.15-1.3,2.65-1.32,5.39-2.45,8.15-3.5.03-.01.04-.06,0-.05-2.44.91-4.85,1.89-7.21,3,2.06-1.19,4.16-2.3,6.29-3.34.04-.02.02-.06-.02-.04-2.48,1.18-4.9,2.48-7.28,3.86-.33.16-.66.33-.99.49-.61.32-1.22.64-1.83.97.47-.29.94-.58,1.41-.87,2.47-1.49,4.99-2.84,7.6-4.04.05-.02.02-.06-.02-.04-2.58,1.16-5.08,2.45-7.51,3.9-1.19.71-2.36,1.45-3.54,2.18-1.72.96-3.43,1.96-5.14,2.95-.06.04-.03.1.03.07,1.47-.77,2.87-1.68,4.31-2.5-.92.63-1.82,1.31-2.83,1.77-.07.03-.07.14.02.1.53-.18,1-.5,1.47-.82.62-.42,1.23-.86,1.86-1.25.41-.26.82-.51,1.23-.77.91-.49,1.82-.97,2.73-1.45-3.44,2.06-6.78,4.31-10.04,6.67-.09.06.01.11.08.07.18-.12.35-.24.53-.36.01,0,.03,0,.05,0,1.56-.92,3.09-1.9,4.65-2.82,1.6-.94,3.26-1.8,4.92-2.64,1.38-.7,2.78-1.37,4.19-1.99-1.27.71-2.53,1.46-3.76,2.24-.75.48-1.51.96-2.25,1.45-2.41,1.36-4.76,2.83-7.06,4.39-.07.04,0,.08.06.05,1.52-.95,3-1.98,4.55-2.9.37-.22.75-.44,1.13-.66-1.69,1.14-3.35,2.32-4.95,3.59-.12.09.02.16.11.09,2.21-1.64,4.44-3.23,6.73-4.75.55-.3,1.09-.61,1.64-.91,1.91-1.05,3.88-1.98,5.87-2.85-.24.14-.48.27-.72.41-1.36.8-2.71,1.62-4.04,2.46-.98.62-1.95,1.27-2.92,1.92-1.09.63-2.18,1.27-3.26,1.92-1.47.89-2.9,1.86-4.31,2.86-.07.05,0,.09.07.06,1.47-.97,2.9-1.98,4.41-2.89.68-.41,1.36-.82,2.05-1.22-.03.02-.06.04-.09.06-.69.48-1.4.93-2.07,1.44-.56.43-1.16.82-1.7,1.29-.74.42-1.48.85-2.2,1.29-.05.03-.03.09.03.06.55-.32,1.11-.63,1.66-.94-.68.43-1.35.87-2.03,1.29-.08.05,0,.11.06.08,1.34-.79,2.63-1.65,3.96-2.47.83-.45,1.66-.89,2.49-1.33-1.22.81-2.43,1.63-3.64,2.46-.4.23-.8.46-1.2.7-.07.04-.04.12.04.07.1-.06.2-.11.3-.17-.22.16-.45.31-.67.47-.09.07.01.12.08.07.6-.39,1.18-.79,1.76-1.2,2.46-1.37,4.98-2.64,7.55-3.77.26-.11.52-.23.78-.34-.68.36-1.36.74-2.03,1.12-2.12,1.21-4.15,2.57-6.2,3.9-.08.05,0,.12.06.08,2.09-1.25,4.08-2.66,6.19-3.88,1.03-.59,2.07-1.16,3.11-1.71,1-.42,2.01-.83,3.02-1.22,1.6-.62,3.23-1.13,4.83-1.74.05-.02.06-.09,0-.07Zm-14.68,5.48c.78-.45,1.57-.9,2.36-1.33-.34.22-.68.43-1.02.65-.45.22-.9.45-1.34.68Z"/>
    <path class="cls-1" d="m71.61,64.11c1.82-.78,3.65-1.52,5.49-2.26.05-.02.04-.08-.01-.06-1.68.68-3.37,1.35-5.04,2.05,1.34-.84,2.69-1.67,4.06-2.47.42-.15.84-.31,1.26-.45.05-.02.06-.09,0-.06-.31.11-.62.22-.93.33.29-.17.58-.33.87-.49.07-.04.03-.11-.03-.07-.43.24-.86.48-1.29.73-1.58.58-3.15,1.19-4.7,1.84.35-.23.7-.45,1.05-.68.08-.04.15-.08.23-.12.03-.01.04-.03.04-.05.87-.55,1.74-1.09,2.63-1.62.07-.04.04-.13-.04-.08-1.05.63-2.1,1.27-3.14,1.92-.8.43-1.59.87-2.37,1.33-.25.11-.51.22-.76.34-2.86,1.3-5.61,2.78-8.37,4.26-.07.04-.04.1.03.07,2.7-1.41,5.36-2.86,8.12-4.13.08-.03.15-.07.23-.1-2.18,1.31-4.32,2.7-6.43,4.13-1.07.6-2.13,1.22-3.18,1.84-.06.03-.03.09.03.06.79-.44,1.57-.89,2.36-1.33,0,.04.09.06.14.02.33-.22.66-.44,1-.66.82-.45,1.64-.9,2.46-1.33-1.08.77-2.14,1.56-3.19,2.37-.09.07.01.12.09.07,1.4-1.01,2.8-2.02,4.21-3.01.52-.26,1.03-.51,1.56-.76.97-.45,1.94-.89,2.92-1.31-.36.22-.71.44-1.07.67-1.43.89-2.84,1.81-4.24,2.76-1.07.54-2.14,1.1-3.21,1.66-.07.04-.04.11.03.07.86-.44,1.72-.89,2.59-1.33-.87.6-1.73,1.21-2.58,1.83-.11.08.02.14.1.09,1.28-.85,2.55-1.72,3.82-2.59.88-.44,1.76-.87,2.65-1.28.41-.19.83-.38,1.25-.57-.27.18-.54.36-.8.54-.98.67-1.95,1.36-2.92,2.05-1.61.82-3.2,1.69-4.79,2.57-.07.04-.04.12.04.08,1.43-.79,2.86-1.57,4.3-2.32-.72.52-1.43,1.03-2.14,1.56-.1.07.01.13.09.08.98-.69,1.96-1.39,2.93-2.09.34-.17.68-.34,1.02-.5,1.26-.61,2.54-1.18,3.83-1.72-1.11.67-2.2,1.37-3.28,2.1-.41.19-.82.38-1.23.58-1.82.88-3.6,1.86-5.39,2.81-.07.04-.04.1.03.07,1.79-.94,3.57-1.92,5.39-2.81.26-.13.52-.25.78-.37-.74.51-1.48,1.02-2.21,1.55-.1.07.01.13.09.08.96-.67,1.92-1.34,2.9-1.99,1.32-.61,2.66-1.17,4.01-1.73.07-.03.03-.09-.03-.07-1.2.49-2.39,1-3.58,1.53,1.06-.7,2.14-1.39,3.23-2.04.67-.27,1.33-.54,2.01-.79.05-.02.06-.09,0-.07-.54.2-1.08.41-1.62.63.69-.41,1.38-.8,2.08-1.18.08-.05.04-.13-.04-.09-.93.5-1.84,1.02-2.74,1.56-1.39.57-2.77,1.18-4.13,1.83-.23.11-.46.22-.69.33.68-.49,1.37-.97,2.06-1.45.52-.36,1.05-.71,1.59-1.06,1.57-.7,3.16-1.38,4.73-2.07.06-.02.03-.08-.03-.05-1.44.63-2.88,1.25-4.32,1.88,1.27-.81,2.56-1.59,3.84-2.39.09-.05-.01-.1-.07-.06-1.51.93-3.05,1.83-4.54,2.79-.56.25-1.12.5-1.68.76-.7.32-1.4.66-2.09,1,.98-.67,1.96-1.33,2.96-1.96.6-.38,1.21-.77,1.81-1.15Zm-5.71,2.53c-.64.32-1.28.66-1.91,1,1.96-1.29,3.93-2.57,5.94-3.77.05-.02.09-.04.14-.06-1.41.92-2.8,1.86-4.17,2.84Zm2.15-1.04c-.37.17-.74.35-1.1.52,1.29-.9,2.59-1.79,3.91-2.66,1.57-.68,3.17-1.32,4.77-1.92-1.44.83-2.85,1.7-4.26,2.58-1.11.47-2.22.96-3.31,1.47Z"/>
    <path class="cls-1" d="m74.42,53.33c-2.52,1.26-5.14,2.31-7.69,3.51,1.61-.85,3.25-1.65,4.95-2.3.07-.03.08-.12,0-.09-2.61,1-5.1,2.31-7.54,3.7,0,0,0,0,0,0-2.6,1.37-5.13,2.85-7.68,4.32-.11.07-.06.18.06.12,1.49-.79,2.94-1.66,4.41-2.5,1.49-.85,2.99-1.66,4.51-2.44,2.96-1.52,6.05-2.74,9.01-4.26.06-.03.03-.09-.03-.06Z"/>
    <path class="cls-1" d="m72.17,53.29c-2.3.86-4.52,1.93-6.72,3.04-.63.32-1.26.65-1.88.99-2.1,1.09-4.16,2.26-6.2,3.48-.05.03-.03.08.03.05.93-.54,1.87-1.08,2.81-1.61-.44.27-.87.53-1.31.81-.08.05,0,.12.06.08,2.14-1.21,4.22-2.52,6.41-3.63.07-.04.15-.08.22-.11,1.98-.96,4.01-1.83,6.04-2.69.05-.02.03-.07-.02-.05-1.28.53-2.55,1.08-3.82,1.64,1.44-.69,2.89-1.35,4.38-1.92.05-.02.07-.11,0-.08Z"/>
    <path class="cls-1" d="m73.04,51.64c-1.99.89-3.97,1.78-5.92,2.74-1.99.99-3.93,2.09-5.88,3.18-.06.03-.03.09.03.06,1.96-1.06,3.89-2.18,5.88-3.17,1.95-.97,3.93-1.86,5.91-2.76.05-.02.03-.08-.02-.05Z"/>
    <path class="cls-1" d="m70.75,51.85c-3.38,1.48-6.68,3.14-9.94,4.9,1.01-.66,2.03-1.31,3.08-1.92,2.15-1.25,4.36-2.43,6.63-3.42.04-.02.02-.06-.02-.04-4.66,1.99-8.92,4.73-13.14,7.54-.08.05.01.1.07.06.92-.6,1.83-1.21,2.74-1.81.01,0,.03,0,.06,0,1.74-.9,3.46-1.82,5.2-2.72,1.6-.82,3.22-1.58,4.85-2.31-2.31,1.17-4.63,2.33-6.88,3.61-2.3,1.3-4.55,2.68-6.77,4.12-.1.06.01.12.08.07,2.26-1.43,4.53-2.84,6.85-4.16,2.34-1.33,4.75-2.54,7.15-3.78.03-.02.04-.04.02-.06.02,0,.03-.02.05-.02.06-.03.03-.08-.03-.06Z"/>
    <path class="cls-1" d="m71.44,52.67c-1.22.59-2.46,1.12-3.68,1.71-1.28.62-2.52,1.31-3.76,2.01-2.42,1.37-4.77,2.9-7.12,4.41-.07.05,0,.11.06.08,2.38-1.45,4.68-3.02,7.1-4.4,1.19-.68,2.4-1.34,3.63-1.96,1.25-.63,2.54-1.17,3.79-1.78.07-.03.04-.1-.03-.07Z"/>
    <path class="cls-1" d="m70.77,54.29c-1.53.67-3.03,1.39-4.5,2.17-1.44.77-2.82,1.65-4.27,2.4-.07.04-.04.11.03.07,1.47-.7,2.84-1.62,4.28-2.39,1.47-.79,2.97-1.51,4.5-2.18.07-.03.04-.1-.03-.07Z"/>
    <path class="cls-1" d="m73.66,66.03c-1.49.98-3.02,1.91-4.48,2.95-.08.06.01.1.07.06,1.49-.98,2.99-1.96,4.48-2.94.09-.06-.01-.11-.08-.07Z"/>
    <path class="cls-1" d="m72.16,67.75c-.53.33-1.06.66-1.6.97-.08.04-.04.12.04.08.57-.3,1.11-.63,1.65-.98.11-.07-.01-.13-.09-.08Z"/>
  </g>
  <g>
    <path class="cls-2" d="m69.97,78c-.94-.04-1.42-.52-1.65-.92-1.21-2.06,1.2-6.98,1.48-7.53l.47-.94.43.96c.25.56,2.43,5.56,1.12,7.57-.25.39-.76.86-1.72.86h-.14Z"/>
    <path d="m70.24,69.77s3.46,7.73-.14,7.73c-.04,0-.08,0-.11,0-3.55-.15.25-7.72.25-7.72m.05-2.33l-.95,1.88c-.47.94-2.78,5.77-1.46,8.01.3.5.89,1.11,2.06,1.16.05,0,.11,0,.16,0,1.18,0,1.82-.59,2.14-1.08,1.42-2.19-.65-7.09-1.08-8.05l-.86-1.92h0Z"/>
  </g>
  <g>
    <path class="cls-2" d="m64.21,88.04c-.94-.04-1.42-.52-1.65-.92-1.21-2.06,1.2-6.98,1.48-7.53l.47-.94.43.96c.25.56,2.43,5.56,1.12,7.58-.25.39-.76.86-1.72.86h-.14Z"/>
    <path d="m64.48,79.82s3.46,7.73-.14,7.73c-.04,0-.08,0-.11,0-3.55-.15.25-7.72.25-7.72m.05-2.33l-.95,1.88c-.47.94-2.78,5.77-1.46,8.01.3.5.89,1.11,2.06,1.16.05,0,.11,0,.16,0,1.18,0,1.82-.59,2.14-1.08,1.42-2.19-.65-7.09-1.08-8.05l-.86-1.92h0Z"/>
  </g>
  <path class="cls-3" d="m56.74,67.1c4.76-5.99,12.37-10.52,19.92-11.82-4.75,6-12.38,10.51-19.92,11.82h0Z"/>
  <rect class="cls-5" x="-3602.4" y="-4669.55" width="6467.34" height="6437.3"/>
</svg>