<?xml version="1.0" encoding="UTF-8"?>
<svg id="Calque_1" data-name="Calque 1" xmlns="http://www.w3.org/2000/svg" viewBox="0 0 128 128">
  <defs>
    <style>
      .cls-1 {
        fill: #5c875b;
      }

      .cls-1, .cls-2, .cls-3 {
        stroke: #000;
      }

      .cls-1, .cls-2, .cls-3, .cls-4 {
        stroke-linecap: round;
        stroke-linejoin: round;
      }

      .cls-2 {
        fill: #b4eac3;
      }

      .cls-3 {
        fill: #76ac75;
        stroke-width: 2px;
      }

      .cls-4 {
        fill: none;
        stroke: #fff;
        stroke-width: 8px;
      }
    </style>
  </defs>
  <path class="cls-3" d="m25.68,32.14c-2.38.18-4.07.92-4.52,1.12-.13.06-.26.12-.39.19-.25.12-2.52.39-4.85,4.19-.83,1.35-1.48,2.48-1.77,3.19-.91-.74-1.57-2.01-1.92-2.69-.31-.59-.55-1.26-1.03-2.58-.66-1.8-.61-2.03-1.04-2.59-.78-1.04-1.56-1.1-1.62-1.85-.06-.58.35-1.12.66-1.55.14-.19.28-.34.4-.45.32-.33.55-.48.64-.88.03-.17.02-.28-.01-.4-.04-.18-.12-.36-.14-.71-.05-.89.34-1.59.44-1.78.34-.59,1.14-1.53,1.93-1.4.19.03.21.1.96.66.08.06.16.12.24.18.9.66,1.1.7,1.24.71.29.02.45-.09.99-.43.07-.05.16-.1.26-.16,1.3-.8,1.95-1.19,2.29-1.04.41.19.24.79.6,1.7.26.68.67,1.14,1.84,2.15,1.86,1.59,2.3,1.7,3.11,2.44.49.45,1.16,1.18,1.69,1.98Z"/>
  <path class="cls-2" d="m15.89,25.07c.16.69.33,1.32.47,1.51.34.47,1.32,1.23,2.17,2.08s1.4,2.51,1.57,3.15c.07.26.36.94.67,1.64-.25.12-.49.25-.72.39-.51-.88-1.07-1.79-1.27-2.03-.42-.51-2.93-2.34-4.08-3.66-.62-.71-.9-2.17-1.04-3.36l1.24.71.99-.43Z"/>
  <path class="cls-2" d="m10.09,26.84c1.07.87,3.03,2.48,3.33,2.78.56.55,1.2,2.68,1.62,3.66.23.53,1.23,1.96,2.09,3.16-.22.26-.42.53-.61.79-.82-1.15-1.74-2.43-2.03-2.72-.55-.55-1.63-.99-2.69-2.59-.54-.8-1.36-2.43-1.82-3.53l.11-1.55Z"/>
  <path class="cls-3" d="m112.91,106.36c-3.1,4.45-7.54,6.38-10.04,6.87-15.64,3.08-29.74-3.99-33.27-5.63-17.87-8.29-30.77-21.84-38.2-29.07-6.41-6.23-11.87-12.72-15.85-21.47-4.23-9.33-2.94-16.43-1.41-18.98,1.26-2.11,5.96-6.27,10.98-6.23,8.06.07,13.73,7.6,17.49,11.86,6.48,7.32,12.22,12.2,23.13,13.69,29.53,4.04,49.62,14.33,51.68,28.51.72,4.96,1.17,12.31-4.5,20.45Z"/>
  <path class="cls-1" d="m115.34,94.46c.53-.43-1.79-8.09-8.97-12.9-2.38-1.59-8.64-6.92-18.72-10.53-13.46-4.82-32.59-9.6-38.46-13.87-5.04-3.67-12.37-12.4-18-17.64-4.96-4.62-6.21-6.1-6.33-5.99-.36.32,8.86,17.86,25,28.75,8.49,5.72,35.13,13.32,41.31,16.07,9.48,4.23,15.55,8.49,17.5,10.12,4.16,3.49,6.33,6.27,6.67,5.99Z"/>
  <path class="cls-1" d="m112.56,98.11c-.14.56-12-.98-24.2-4.79-16.92-5.29-28.17-12.98-40.75-21.57-3.52-2.4-9.37-6.55-15.52-13.13-5.57-5.95-8.05-10.31-9.59-14.15-1.36-3.4-2.48-7.64-2.17-7.76.29-.11,1.74,3.17,2.28,4.34,4.38,9.41,12.23,16.15,18.15,21.23,7.29,6.26,13.37,9.77,20.77,14.04,4.12,2.38,13.97,8.01,26.36,12.67,11.09,4.17,16.09,5.93,16.09,5.93,6.14,2.17,8.63,2.93,8.56,3.2Z"/>
  <path class="cls-1" d="m110.82,103.42c-2.64,1.58-7.26,3.89-13.36,4.57-5.53.62-10.08-.35-14-1.49-19.8-5.78-36.38-19.69-43.09-25.4-6.07-5.17-10.98-10.06-15.45-16.6-4.48-6.56-6.24-11.46-7.15-15.14-1.02-4.12-1.48-8.75-1.15-8.82.33-.07,1.49,4.51,2.01,6.33,3.94,13.71,16.12,24.2,27.68,34.15,6.56,5.65,11.9,10.19,20.29,14.67,11.19,5.97,19.88,7.61,21.95,7.97,6.53,1.15,11.63.98,13.22.9,3.65-.17,6.73-.66,9.05-1.14Z"/>
  <rect class="cls-4" x="-540.38" y="-2285.27" width="3385.57" height="2571.67"/>
</svg>