<?xml version="1.0" encoding="UTF-8"?>
<svg id="Calque_1" data-name="Calque 1" xmlns="http://www.w3.org/2000/svg" viewBox="0 0 128 128">
  <defs>
    <style>
      .cls-1 {
        fill: #76ac75;
      }

      .cls-1, .cls-2 {
        stroke-width: 2px;
      }

      .cls-1, .cls-2, .cls-3 {
        stroke: #000;
      }

      .cls-1, .cls-2, .cls-4 {
        stroke-linecap: round;
        stroke-linejoin: round;
      }

      .cls-2, .cls-3 {
        fill: #b4eac3;
      }

      .cls-3 {
        stroke-miterlimit: 10;
      }

      .cls-4 {
        fill: none;
        stroke: #fff;
        stroke-width: 8px;
      }
    </style>
  </defs>
  <path class="cls-1" d="m15.16,77.51l6.35,1.85c-.27.13-.52.2-.73.24-.33.05-1.16-.2-2.08-.55-1.53-.59-3.32-1.43-3.54-1.54Z"/>
  <path class="cls-1" d="m23.96,57.51c.22.05.44.14.66.27-.3-.11-.52-.2-.66-.24-.06-.03-.1-.05-.12-.05.04,0,.09,0,.12.02Z"/>
  <path class="cls-1" d="m58.35,89.09s-13.55.66-21.52-3.59c-7.98-4.25-15.31-6.14-15.31-6.14.8-.39,1.76-1.26,2.8-3.05,2.78-4.78,3.97-1,4.27-4.78.3-3.79-1.3-4.68-.69-6.67.53-1.76-1.32-5.89-3.27-7.06,3.5,1.23,17.77,5.64,29.34-.41,13.28-6.94,39.59-24.61,58.59-11.19,19,13.42,6.24,42.38-54.21,42.91Z"/>
  <path class="cls-2" d="m28.58,71.52c-.3,3.79-1.49,0-4.27,4.78-1.04,1.79-2.01,2.66-2.8,3.05l-6.35-1.85h-.02c1.4-3,3.49-4.1,6.98-5.29,3.48-1.19,1.79-6.67,1.79-6.67,0,0,.59-4.61.06-8,.13.05.35.13.66.24,1.95,1.17,3.8,5.31,3.27,7.06-.6,1.99,1,2.89.69,6.67Z"/>
  <path class="cls-2" d="m22.11,72.22c-3.49,1.19-5.58,2.29-6.98,5.28-1.4,2.99-5.08,1.99-4.78-.9.3-2.89-1.8-3.79-2.89-5.38-1.1-1.6,4.88-6.68,4.88-6.68-.69-7.67,4.28-4.88,4.28-4.88,2.4-.1,3.52-6.36,5.58-5.55.98.38,1.5,1.74,1.76,3.4v.03c.52,3.39-.06,8-.06,8,0,0,1.69,5.48-1.79,6.67Z"/>
  <path class="cls-3" d="m28,63.96c14.24,2.63,29.34,1.47,42.13-5.49,12.99-7.08,27.57-11.82,42.42-12.3-7.19,1.46-14.23,3.5-21.11,5.99-5.13,1.88-10.13,4.02-15,6.47-4.09,2.18-8.21,4.48-12.63,5.98-11.53,3.75-24.51,3.59-35.81-.66h0Z"/>
  <path class="cls-3" d="m28,73.36c15.79,1.6,31.69,1.36,46.99-2.97,11.39-3.01,22.8-6.67,33.03-12.59,3.35-2.04,6.62-4.38,8.83-7.7-1.63,3.72-4.8,6.55-7.98,8.97-9.87,7.06-21.48,11.2-33.11,14.33-15.55,4.27-32.24,4.07-47.77-.05h0Z"/>
  <path class="cls-3" d="m23.81,77.1c29.62,7.72,67.16,11.24,90.09-13.1,1.08-1.19,2.19-2.56,3.26-3.76.68-.92,2.28-3.11,2.98-4.03-.94,1.7-2.24,4.27-3.38,5.81-20.1,29.92-63.22,27.56-92.95,15.09h0Z"/>
  <path class="cls-2" d="m74.85,91.63c-4.49,3.99-9.58,5.88-12.59,4.93-.66-.2-1.21-.54-1.63-1.01-2.4-2.69.09-8.81,5.56-13.67.4-.36.8-.69,1.22-1.01,5.15-4.07,10.79-5.39,13-2.9,2.4,2.68-.09,8.8-5.56,13.66Z"/>
  <path class="cls-1" d="m78.21,93.35c-5.78,5.13-12.9,6.56-15.95,3.22,3.01.94,8.1-.94,12.59-4.93,5.46-4.85,7.95-10.97,5.56-13.66-2.22-2.5-7.85-1.17-13,2.9,5.77-5.04,12.83-6.41,15.83-3.04,3.04,3.41.78,10.36-5.02,15.52Z"/>
  <path class="cls-2" d="m89.11,89.98c-5.75,1.75-11.17,1.33-13.51-.78-.51-.46-.87-.99-1.06-1.6-1.05-3.45,3.77-7.96,10.77-10.09.51-.16,1.02-.29,1.53-.41,6.38-1.54,12.06-.39,13.03,2.8,1.06,3.44-3.77,7.95-10.76,10.08Z"/>
  <path class="cls-1" d="m91.45,92.94c-7.39,2.24-14.47.56-15.85-3.75,2.34,2.11,7.76,2.53,13.51.78,7-2.12,11.82-6.64,10.76-10.08-.97-3.19-6.65-4.34-13.03-2.8,7.35-2.17,14.34-.46,15.66,3.86,1.33,4.37-3.62,9.73-11.05,11.99Z"/>
  <line class="cls-1" x1="22.11" y1="72.22" x2="26.58" y2="73.79"/>
  <line class="cls-1" x1="24.16" y1="66.68" x2="27.89" y2="66.68"/>
  <rect class="cls-4" x="-691.35" y="-2285.27" width="3385.57" height="2571.67"/>
</svg>