<?xml version="1.0" encoding="UTF-8"?>
<svg id="Calque_1" data-name="Calque 1" xmlns="http://www.w3.org/2000/svg" viewBox="0 0 128 128">
  <defs>
    <style>
      .cls-1 {
        fill: #d6d6d6;
        stroke: #000;
        stroke-width: 2px;
      }

      .cls-1, .cls-2 {
        stroke-linecap: round;
        stroke-linejoin: round;
      }

      .cls-2 {
        fill: none;
        stroke: #fff;
        stroke-width: 8px;
      }
    </style>
  </defs>
  <path class="cls-1" d="m68.62,22.72c0,5.39,0,10.77,0,16.16,0,2.49,0,4.99.05,7.48.08,3.7.23,7.4.34,11.11.08,2.66.14,5.32.21,7.98.05,1.98.11,3.96.17,5.94.06,2.24.11,4.47.19,6.71.08,1.99.13,3.99.17,5.98.07,3.26.18,6.53.27,9.79.06,2.07.1,4.14.18,6.21.12,3.26.2,6.53.28,9.79.05,1.9.14,3.81.17,5.71.01.79.07,1.57.08,2.36.03,3.2-2.51,5.68-5.69,5.6-2.62-.07-4.98-2.3-5.16-4.9-.12-1.84.06-3.68.1-5.53.07-3.23.19-6.47.28-9.7.06-1.83.11-3.66.17-5.48.12-4.02.25-8.04.37-12.06.06-1.9.12-3.81.18-5.71.09-2.98.15-5.96.29-8.93.05-1.21,0-2.42.14-3.62.05-.39-.08-.54-.5-.53-1.04.03-2.09,0-3.13.02-.42.01-.55-.13-.53-.55.12-2.96.17-5.92.34-8.88.08-1.31.13-2.63.19-3.94.11-2.2.25-4.41.44-6.6.17-1.96.3-3.92.49-5.87.22-2.22.46-4.45.73-6.67.3-2.46.65-4.91,1.07-7.36.93-5.52,2.07-10.99,3.9-16.3.67-1.95,1.43-3.86,2.44-5.66.1-.17.19-.34.31-.5.22-.29.52-.35.85-.26.34.1.53.34.55.7.1,2.28.04,4.57.04,6.85,0,1.28,0,2.57,0,3.85,0,2.27,0,4.54,0,6.81Z"/>
  <rect class="cls-2" x="-4762.23" y="-406.09" width="6562.35" height="1176.7"/>
</svg>