<?xml version="1.0" encoding="UTF-8"?>
<svg id="Calque_1" data-name="Calque 1" xmlns="http://www.w3.org/2000/svg" viewBox="0 0 200 128">
  <defs>
    <style>
      .cls-1, .cls-2, .cls-3, .cls-4, .cls-5, .cls-6, .cls-7, .cls-8, .cls-9, .cls-10, .cls-11, .cls-12, .cls-13, .cls-14, .cls-15, .cls-16, .cls-17, .cls-18, .cls-19, .cls-20, .cls-21, .cls-22, .cls-23, .cls-24, .cls-25, .cls-26, .cls-27, .cls-28, .cls-29, .cls-30, .cls-31, .cls-32, .cls-33, .cls-34, .cls-35, .cls-36, .cls-37, .cls-38, .cls-39, .cls-40, .cls-41, .cls-42, .cls-43, .cls-44, .cls-45 {
        stroke: #000;
      }

      .cls-1, .cls-2, .cls-3, .cls-4, .cls-5, .cls-6, .cls-7, .cls-8, .cls-9, .cls-10, .cls-11, .cls-12, .cls-13, .cls-15, .cls-16, .cls-17, .cls-19, .cls-20, .cls-21, .cls-23, .cls-30, .cls-31, .cls-33, .cls-34, .cls-35, .cls-46, .cls-36, .cls-37, .cls-38, .cls-39, .cls-41, .cls-42 {
        stroke-linecap: round;
      }

      .cls-1, .cls-2, .cls-3, .cls-4, .cls-5, .cls-6, .cls-7, .cls-8, .cls-9, .cls-10, .cls-11, .cls-12, .cls-17, .cls-19, .cls-20, .cls-21, .cls-23, .cls-30, .cls-31, .cls-33, .cls-35, .cls-46, .cls-36, .cls-37, .cls-38, .cls-39, .cls-41, .cls-42 {
        stroke-linejoin: round;
      }

      .cls-1, .cls-23 {
        fill: #afaff9;
      }

      .cls-2, .cls-29 {
        fill: #87ccf3;
      }

      .cls-3 {
        fill: #b2f0e9;
      }

      .cls-4 {
        fill: #baa584;
      }

      .cls-5, .cls-28 {
        fill: #b4eac3;
      }

      .cls-6, .cls-47, .cls-25 {
        fill: #ff6d75;
      }

      .cls-7, .cls-26 {
        fill: #f3d587;
      }

      .cls-8, .cls-10, .cls-48, .cls-14, .cls-15, .cls-22, .cls-30, .cls-31, .cls-35, .cls-39 {
        fill: #fff;
      }

      .cls-9, .cls-16, .cls-17, .cls-19, .cls-20, .cls-21, .cls-32, .cls-33, .cls-46, .cls-36, .cls-37, .cls-38, .cls-40, .cls-41, .cls-42, .cls-43, .cls-44 {
        fill: none;
      }

      .cls-10 {
        stroke-width: .64px;
      }

      .cls-11, .cls-17, .cls-34 {
        stroke-width: .58px;
      }

      .cls-11, .cls-34 {
        fill: #fce9b9;
      }

      .cls-12, .cls-49 {
        fill: #fab0b4;
      }

      .cls-50, .cls-18 {
        fill: #ff735d;
      }

      .cls-51 {
        fill: #1d1d1b;
      }

      .cls-52, .cls-13, .cls-24 {
        fill: #1a2e35;
      }

      .cls-13, .cls-14, .cls-15, .cls-16, .cls-18, .cls-22, .cls-24, .cls-25, .cls-26, .cls-27, .cls-28, .cls-29, .cls-32, .cls-34, .cls-40, .cls-43, .cls-44, .cls-45 {
        stroke-miterlimit: 10;
      }

      .cls-13, .cls-15, .cls-16, .cls-22, .cls-23, .cls-24, .cls-31, .cls-36, .cls-40, .cls-45 {
        stroke-width: .86px;
      }

      .cls-14 {
        stroke-width: .63px;
      }

      .cls-18, .cls-43 {
        stroke-width: .47px;
      }

      .cls-19 {
        stroke-width: .6px;
      }

      .cls-20, .cls-32 {
        stroke-width: .52px;
      }

      .cls-21 {
        stroke-width: .4px;
      }

      .cls-27 {
        fill: #ffbeed;
      }

      .cls-30, .cls-38 {
        stroke-width: .43px;
      }

      .cls-33 {
        stroke-width: .5px;
      }

      .cls-35, .cls-41 {
        stroke-width: .8px;
      }

      .cls-46 {
        stroke: #fff;
        stroke-width: 8px;
      }

      .cls-37 {
        stroke-width: .9px;
      }

      .cls-39, .cls-42 {
        stroke-width: .45px;
      }

      .cls-44 {
        stroke-width: .49px;
      }
    </style>
  </defs>
  <path class="cls-23" d="m176.43,73.25s-1.08,1.24-2.6,2.96c-1.17,1.32-2.58,2.92-3.96,4.47-2.6,2.9-5.08,5.6-5.53,5.86-.42.23-.66.12-.9-.2-.33-.44-.65-1.25-1.42-1.99-.62-.6-1.4-.85-1.84-1.11-.23-.13-.37-.28-.37-.46,0-.12.36-.69.95-1.57-1.95-.17-3.44-.49-3.93-.74-1.38-.69-5.38-2.19-5.89-2.76-.5-.56,1.38-2.56,1.82-4.64.32-1.51-1.19-4.29-2.71-6.92-1.37,2.35-11.71,5.08-12.21,4.7-.14-.11-.8-4.4-.85-5.33-.04-.52,7.68-2.55,7.74-2.63.26-.31.06-20.36,1.71-21.77,1.01-.86,4.49-1.88,4.49-1.88,0,0-.27.46-.29,1.01-.06,1.41.19,3.84,2.42,4.13,2.56.33,5.14-1.73,6.67-4.14.73-1.15.92-1.65,1.13-2.29.02-.04.04-.1.05-.15,0,0,2.44.71,6.2,1.38,3.76.67,5.7,5.71,7.45,9.96,1.75,4.26,4.08,14.85,4.64,17.6.56,2.76-2.76,6.51-2.76,6.51Z"/>
  <path class="cls-16" d="m132.35,63.22s.13-.85,1.67-.61,4.62,1.15,5.67.59c1.04-.56.39-2.05-1.29-2.77-1.68-.72-6.3-1.39-7.27-2.81-.97-1.42-.25-1.68.26-3.86.5-2.18-1.47-4.62-1.07-5.33.4-.7,3.49-6.63,3.05-10.24-.44-3.62-1.82-4.49-2.8-2.62-.98,1.86-.54,8.17-.99,9.29-.45,1.12-.59,2.75-1.68,2.43-1.09-.32-2.2-.35-2.81-.18s-1.13-2.37-.59-4.53c.54-2.16,1.42-7.1.17-7.96s-2.99,1.88-3.22,4.28c-.23,2.39.9,6.68,1.22,8.02s.06,1.31-1.15,2.92c-1.2,1.61-1.1,4.62-.35,5.96.74,1.34.34,2.36-1.84,3s-4.02,1.23-5.43,2.25c-1.41,1.01-1.18,2.1-.14,2.41s4.64-.69,6.79-1.64c0,0-.63,6.91-.17,11.68.47,4.76.8,9.56,2.37,10.45,1.58.89,2.71-.31,2.69-2.2-.02-1.89-1.11-7.28,1.67-7.63s1.47,9.71,4.85,9.19c3.37-.52,1.08-10.39.84-11.6-.24-1.21-.89-6.43-.43-8.47Z"/>
  <path class="cls-31" d="m137.1,66.48c-.05-.56-3.08-2.61-4.82-3.23-1.69-.6-2.2-1.07-3.37-.63-1.05.38-2.22.41-2.1.99.12.57.79.94,1.83.85.96-.09.75-.43,1.81.05,1.07.49,1.28,1.69,2.03,2.39l.26,3.38s1.59.85,2.89.33c1.3-.53,1.97-.26,1.97-.26,0,0-.41-2.95-.49-3.89Z"/>
  <path class="cls-38" d="m123.65,58.16s2.23,1.2,5.13-.38"/>
  <ellipse class="cls-51" cx="123.92" cy="51.38" rx=".37" ry=".51" transform="translate(-1.6 4.04) rotate(-1.85)"/>
  <ellipse class="cls-51" cx="127.29" cy="51.42" rx=".37" ry=".51" transform="translate(-1.6 4.15) rotate(-1.85)"/>
  <ellipse cx="125.38" cy="53.21" rx=".55" ry=".4" transform="translate(-4.13 11.05) rotate(-4.96)"/>
  <path class="cls-38" d="m126.74,54.37c-.87.14-1.35-.99-1.35-.99,0,0-.43,1.07-1.19,1.08"/>
  <path class="cls-36" d="m142.28,27.99s-1.85-.35-2.02-2.65c-.2-2.78,2.19-3.42,2.19-3.42.78-2.43,6.13-5.04,12.05-3.46,5.92,1.58,4.21,8.11,2.89,9.51"/>
  <path class="cls-36" d="m158.8,23.76s1.51,2.37.66,4.73c-.74,2.06-1.68,4.28-1.41,6.38"/>
  <path class="cls-36" d="m160.85,37.94c-.21.64-.4,1.14-1.13,2.29-1.53,2.41-4.1,4.47-6.67,4.14-2.23-.29-2.48-2.72-2.42-4.13,0-.03.02-.05.03-.08.44-1.37.75-2.53.93-2.81-.42.41-2.52,1.5-4.58,1.93-2.19.45-2.32-1.15-3.16-3.34-.83-2.17-1.92-2.06-2.1-2.63-.18-.57,1.5-2.11.79-4.56-.08-.27-.13-.52-.17-.77-.34-2.06.45-3.59.96-4.4,0,0,3.33,3.46,3.99,3.99.65.53,2.75,2.02,3.85,1.27,1.01-.69,1.75-1.75,2.85-1.38,1.09.37,1.67,2.37.73,3.3,0,0,1.6,1.72,2.38,2.99,1.53,2.49,3.63,4.09,3.63,4.09l.09.1Z"/>
  <path d="m144.04,30.3c-.1-.44.07-.85.37-.92.31-.07.63.22.74.66.1.43-.07.84-.36.92-.31.07-.64-.22-.75-.65Z"/>
  <path class="cls-42" d="m143.35,28.06s1.29-.84,2.39.52"/>
  <path class="cls-19" d="m153.6,29.11s-.74.48-.83,1.38"/>
  <path class="cls-36" d="m147.3,44.88s-.23,7.52-.12,10.15c.06,1.5,1.23,6.81,2.87,11.11"/>
  <path class="cls-36" d="m165.15,45.63s-.69,3.51.13,5.89c.81,2.38,6.2,15.54,6.2,15.54"/>
  <path class="cls-36" d="m160.76,81.2c2.56-3.52,8.7-11.89,9.85-13.21,2.13-2.44,4.64-.75,4.64-.75"/>
  <path class="cls-36" d="m147.93,28.01c1.84.48,1.8-1.05.96-1.88,0,0,2.72.92,3.86-.88,1.14-1.8-1.05-2.85-1.05-2.85"/>
  <path class="cls-23" d="m174.92,91.13s.58,1.15,1.42,2.67c.62,1.13.65,4.44.28,6.28-.12.66-.3,1.13-.53,1.24-.84.42-3.35.42-7.52,3.18-4.17,2.75-9.43,5.01-13.7,7.09-4.26,2.09-9.1,1.75-11.94.84-2.84-.92-2.93-3.92-2.93-3.92-2.84.34-3.6-.53-5.18-2.67-1.58-2.14-2-5.01,2.68-13.29,4.67-8.27,13.42-14.85,13.42-14.85.51.57,4.51,2.07,5.89,2.76.5.25,1.98.57,3.93.74-.6.87-.95,1.45-.95,1.57,0,.19.14.33.37.46.45.27,1.22.52,1.84,1.11.77.74,1.09,1.56,1.42,1.99.24.32.48.44.9.2.45-.26-1.38-4.18,1.22-7.08.94-.23,1.84-.53,2.68-.91,2.79-1.28,7.07-3.34,7.51-4.44.38.78,3.34,4.59,3.51,9.33.04,1.06-.26,2.16-.77,3.18-1.26,2.47-3.57,4.51-3.57,4.51Z"/>
  <path class="cls-36" d="m174.93,91.13s-7.34,6.04-10.69,8.52c-3.35,2.48-11.44,6.35-12.11,7.85"/>
  <path class="cls-36" d="m140.01,108.51c-.84-3.59,2.59-8.27,2.59-8.27,3.51-3.93,8.9-10.57,11.78-13.39"/>
  <path class="cls-36" d="m183.03,103.83c-1.58,2.22-2.06,3.2-3.93,2.26-1.86-.93-1.66-1.12-1.92-3.84-.11-.99-.32-1.67-.56-2.15.37-1.84.35-5.15-.28-6.28-.85-1.52-1.42-2.67-1.42-2.67,0,0,2.31-2.04,3.57-4.51.35,0,2.12.05,2.37,2,.27,2.17.92,6.19,2.25,8.19,1.34,2,1.49,4.81-.08,7.01Z"/>
  <path class="cls-42" d="m145.6,36.81c-.66.16-1.02-.59-1.46-1.45,0,0,1.57-.14,2.78-.57.62-.22-.58,1.83-1.32,2.01Z"/>
  <path class="cls-37" d="m155.16,30.1s-.45,1.31-1.97,1.8"/>
  <path class="cls-35" d="m162.81,85.55c-1.2,1.59-2.95,4.09-3.55,5.84-.94,2.76-2.7,5.83-3.26,5.58-.56-.25,1.2-4.49,1.38-5.21.17-.7-.73.19-2.2,1.89-1.46,1.7-1.56,2.87-3.12,3.32-2,.56,3.51-6.33,3.51-6.33-1.19,1-4.33,6.45-5.33,6.39-1-.06-.52-1.01.57-2.88,1.09-1.89,3.44-4.89,3.44-4.89,0,0-1.19.81-2.19,1.63-1.01.81-2.51,3.63-3.07,3.44-.57-.19-.45-1.19.62-2.95,1.07-1.75,2.45-3.2,2.45-3.2-.2-1.94,1.63-3.07,3.57-3.76,1.94-.69,3.88-1.94,3.88-1.94l.04-.05c.45.27,1.22.52,1.84,1.11.77.74,1.09,1.56,1.42,1.99Z"/>
  <path class="cls-15" d="m174.44,108.31c-.45-1.59-1.22-5.17-1.32-5.99-.34-2.75-.43-6.44-1.61-8.17-1.31-1.93-3.78-2.4-4.44-2.22-6.87,1.89-7.42.18-7.42.18,0,0-3.39,3.85-4.25,6.09-.86,2.25-1.11,12.49-1.11,12.49l.39,3.11,16.03,4.48s2.98-1.22,3.75-4.16c.77-2.94.39-4.45,0-5.82Z"/>
  <g>
    <path class="cls-22" d="m154.23,107.89c-2.65-1.54-7.91-.01-9.41,1.39-.58-.68-1.18-1.38-1.97-1.8-.79-.42-1.82-.52-2.55,0-.66.47-.92,1.31-1.07,2.11-.25,1.37-.27,2.78-.07,4.15.19,1.28.74,2.71,1.98,3.13.7.24,1.47.09,2.16-.17.69-.26,1.34-.63,2.05-.83,2.09-.61,8.09,1.96,10.78.82l-1.91-8.79Z"/>
    <path class="cls-40" d="m140.31,107.5c.87-.34,1.34.27,1.65.61.31.34.55.85.67,1.45.06.3.08.62.12.95.04.33.07.68.1,1.03.13,1.41.18,2.7.05,3.62-.07.46-.19.82-.35,1.02-.37.44-.89.73-.88.74"/>
  </g>
  <g>
    <path class="cls-22" d="m151.58,79.89c-1.7-3.32-1.94-7.36-.64-10.86.25-.67.64-1.4,1.34-1.52.78-.14,1.46.54,1.86,1.23.9,1.52,1.27,3.32,1.24,5.09-.03,1.77-.45,3.51-1.02,5.19-.21.6-.47,1.24-1.02,1.56"/>
    <path class="cls-22" d="m150.03,79.96c-.4-.57-.8-1.15-1.32-1.61-.52-.46-1.19-.8-1.89-.79-1.01,0-1.87.71-2.55,1.45-2.47,2.7-3.67,6.42-3.71,10.08-.02,1.49.16,3.02.9,4.31.17.29.38.59.69.71.37.15.79.05,1.14-.12.9-.43,1.58-1.23,2.03-2.12.46-.88.71-1.86.97-2.82.72-2.74,1.44-5.47,2.16-8.21"/>
    <path class="cls-14" d="m150.18,79.94c-.24.05-3.55.97-5.05,3.64-1.18,2.1-.76,4.59,0,5.67.75,1.08,3.4,3.91,5.48,3.78,0,0,4.3-.14,5.72-1.68,1.42-1.54,3.35-5.39,1.78-8.65-1.58-3.26-4.83-3.4-7.92-2.76Z"/>
    <path class="cls-22" d="m147.47,111.43c-.31-1.81-.45-3.65-.42-5.49l-2.77-1.94c-.53.22-.92.69-1.16,1.22s-.32,1.1-.37,1.67c-.24,2.32-.08,4.67.28,6.98.1.63.24,1.31.73,1.72.57.48,1.42.43,2.11.15.62-.25,1.19-.66,1.51-1.25.49-.92.27-2.04.1-3.06Z"/>
    <path class="cls-22" d="m154.96,106.07c-.13-.27-.37-.5-.66-.55l-3.6,3.02c-.78.68-1.34,1.59-1.74,2.55-.4.96-.64,1.97-.86,2.99-.19.89-.37,1.84-.03,2.68.33.82,1.16,1.4,2.04,1.46.88.06,1.77-.4,2.24-1.15.45-.72.51-1.61.63-2.45.16-1.24.47-2.45.91-3.62.5-1.33,1.19-2.64,1.23-4.06,0-.3-.02-.6-.14-.88Z"/>
    <path class="cls-22" d="m149.86,91.81c-1.84,2.01-.98.65-2.29,3.1,0,0-.18.08-.63.58-1.46,1.58-2.87,5.06-2.79,7.08.07,1.77.73,3.48,1.93,4.63,1.22,1.18,2.9,1.84,4.55,1.65,2.01-.24,3.83-1.73,4.89-3.64,1.05-1.91,1.36-4.19,1.3-6.38-.06-2-.38-5.85-.82-6.74"/>
    <path d="m145.96,96.83s0,.03-.03.07c-.03.05-.07.12-.11.19-.05.08-.11.19-.17.31-.07.12-.14.26-.22.41-.31.61-.7,1.48-.96,2.5-.27,1.01-.31,1.97-.26,2.65.03.34.06.62.1.81.01.09.03.16.04.22,0,.05.01.08,0,.08,0,0-.01-.02-.02-.07-.01-.06-.03-.13-.05-.22-.05-.19-.09-.46-.13-.81-.07-.69-.03-1.66.24-2.68.26-1.02.66-1.9.99-2.5.08-.15.16-.29.23-.41.07-.12.13-.22.18-.3.05-.07.09-.13.12-.19.03-.04.05-.06.05-.06Z"/>
    <path class="cls-22" d="m149.39,91.32c-.46-.38-1.08-.51-1.68-.55-1.93-.13-3.8.59-5.71.9-.73.12-1.52.19-2.11.64-.53.39-.84,1.07-.76,1.73.08.65.56,1.25,1.19,1.45.65.2,1.35-.02,2-.24,2.18-.74,4.35-1.48,6.53-2.22l1.03-.1c.24-.55-.02-1.22-.48-1.6Z"/>
    <path class="cls-38" d="m139.89,92.3c.25.15.99.45,1.28,1.29s.12,1.53,0,1.8"/>
    <path class="cls-52" d="m149.32,83.68c.08.21-.03.44-.25.52-.21.08-.44-.03-.52-.25s.03-.44.25-.52c.21-.08.44.03.52.25Z"/>
    <path class="cls-52" d="m151.37,82.95c.08.21-.03.44-.25.52-.21.08-.44-.03-.52-.25-.08-.21.03-.44.25-.52.21-.08.44.03.52.25Z"/>
    <path class="cls-30" d="m150.98,85.52s.09.2.2.54c.12.34.28.8.47,1.31.19.51.36.97.49,1.3.13.33.21.54.2.54"/>
    <path class="cls-45" d="m154.5,79.81s-.02,0-.05,0c-.04,0-.08,0-.14-.02-.12-.02-.3-.04-.53-.06-.46-.04-1.12-.08-1.94-.02-.82.07-1.79.25-2.8.64-1.01.38-2.06,1.01-2.91,1.93-.42.46-.78.96-1.05,1.48-.27.53-.44,1.07-.54,1.6-.19,1.07-.09,2.06.15,2.85.12.39.27.73.43,1.02.08.14.16.27.24.38.09.11.16.21.24.3.08.08.15.16.21.22.06.06.12.11.16.15.04.04.08.07.1.09.02.02.03.03.03.03,0,0-.01,0-.04-.03-.03-.02-.06-.05-.11-.09-.05-.04-.11-.08-.17-.15-.06-.06-.13-.14-.21-.22-.08-.09-.15-.19-.24-.3-.08-.12-.17-.24-.25-.38-.16-.28-.32-.63-.45-1.02-.24-.79-.36-1.8-.17-2.88.1-.54.27-1.09.54-1.63.27-.53.63-1.04,1.06-1.51.86-.93,1.92-1.57,2.95-1.94,1.02-.39,2-.56,2.83-.62.82-.06,1.49-.01,1.95.04.23.03.41.05.53.08.06.01.1.02.14.03.03,0,.05,0,.05.01Z"/>
    <path class="cls-50" d="m149.73,84.83c-.07.05-.15.13-.14.22.02.07.09.11.15.15.3.15.61.27.93.36.11.03.22.06.33.02.08-.03.14-.09.19-.15.26-.29.46-.64.58-1.01.04-.13-.07-.26-.21-.24-.62.1-1.39.32-1.84.65Z"/>
    <path class="cls-34" d="m145.48,80.01c.54.26,2,1.03,1.99,1.05"/>
  </g>
  <g>
    <path class="cls-22" d="m153.87,94.24c-.13-.09-.19-.21-.79-.52.02-.2.12-.58.12-.79,0-.25,0-.52-.16-.7-.13-.15-.34-.21-.53-.16-.19.04-.35.18-.43.36-.07.16-.04.34-.1.51-.03.1-1.11-.23-1.11-.23-.44-.22-1.18-.46-1.66-.55-.28-.05-.66-.08-.83.24-.1.19-.07.43.04.61.17.29.36.34.64.49-.12,0-.39.04-.51.1-.18.09-.29.16-.36.38-.06.18.03.46.17.59.14.13.31.21.49.28-.4.05-.77.33-.63.81.11.39.91.47,1.16.51,0,0-.23.17-.47.37-.33.27-.32.86.24,1.01.21.06.43,0,.65.04.64.09,1.31.47,1.6.68.77.53.94,1.1,2.14,1.37l1.72-4.57c-1.19-.74-.94-.49-1.39-.81Z"/>
    <g>
      <path class="cls-48" d="m169.73,100.29c-1.89,1.8-7.08,2.98-9.95,2.55-2.87-.43-7.75-3.61-7.75-3.61l1.85-5.28s5.82,2.12,5.97,2.09c0,0,7.56-3.57,9.54-2.43"/>
      <path class="cls-16" d="m169.22,93.54c-.11-.04-.29-.09-.52-.12-.23-.02-.52-.03-.86,0-.34.03-.73.09-1.15.18-1.71.37-4.09,1.21-6.81,2.47h0s0,0,0,0c-.03,0-.07-.01-.1-.02l-.09-.03-.17-.05c-.12-.04-.23-.08-.35-.12-.23-.08-.47-.16-.71-.24-.48-.17-.97-.34-1.46-.52-1-.36-2.03-.73-3.1-1.11,0,0-.85,2.56-1.33,3.91-.16.46-.49,1.29-.49,1.29,1.12.72,2.25,1.37,3.36,1.94,1.11.57,2.21,1.07,3.3,1.41.55.17,1.09.27,1.63.32.54.03,1.06.04,1.57,0,1.01-.06,1.94-.21,2.78-.4.84-.18,1.58-.4,2.22-.64.08-.03.16-.06.24-.08.08-.03.15-.06.22-.09.15-.06.29-.12.42-.17.13-.06.26-.12.38-.18.06-.03.12-.06.17-.08.05-.03.11-.06.16-.09.21-.12.39-.22.54-.32.15-.1.29-.18.38-.27.1-.08.17-.14.22-.18.05-.04.08-.06.08-.06"/>
    </g>
  </g>
  <g>
    <path class="cls-22" d="m154.77,94.24c1.07,1.52,3.11,4.51,4.18,6.02.19.27.4.56.71.68.36.14.77.02,1.12-.14.45-.21.88-.52,1.09-.97.2-.44.17-.95.02-1.41-.16-.46-.43-.86-.71-1.25-1.07-1.53-2.26-2.98-3.58-4.29-.44-.44-1.01-1.06-1.66-.97s-1.82.88-1.17,2.34Z"/>
    <path class="cls-38" d="m161.56,98.05s-.92.04-1.63.71c-.71.67-.74,1.4-.71,1.71"/>
  </g>
  <g>
    <g>
      <path class="cls-15" d="m171.47,117.89c-2.31,1.52-9.89,2.13-11.52,2.41-1.43.24-2.92.05-4.33.39-1.01.24-1.96.76-2.99.86-1.66.16-3.3-.81-4.23-2.2-.93-1.39-1.23-3.12-1.17-4.78.04-1.02.27-2.15,1.12-2.71.71-.47,1.67-.39,2.43,0,.76.38,1.37,1,1.95,1.61,1.06-1.57,3.68-2.76,5.72-3.57,1.76-.69,6.1-1.76,7.45-.44"/>
      <path class="cls-43" d="m165.85,109.42s-.08-.07-.16-.12c-.14-.1-.38-.22-.71-.3"/>
    </g>
    <path class="cls-24" d="m152.1,121.32s.07-.13.14-.39c.06-.26.09-.64.02-1.11-.07-.47-.22-1.01-.38-1.62-.17-.6-.38-1.26-.64-1.94-.25-.68-.53-1.31-.79-1.88-.26-.57-.54-1.07-.87-1.4-.33-.34-.69-.5-.94-.56-.26-.06-.41-.04-.41-.05,0,0,.04,0,.11-.01.07,0,.17,0,.31.03.26.05.63.21.98.55.35.34.63.84.9,1.41.27.57.55,1.2.8,1.88.25.68.46,1.34.63,1.95.16.61.3,1.16.37,1.63.07.47.03.87-.05,1.13-.04.13-.08.22-.11.29-.03.06-.05.09-.05.09Z"/>
    <path class="cls-13" d="m153.87,116.23c-.22-.6-1.17-2.75-1.14-2.76"/>
    <g>
      <path class="cls-18" d="m164.65,108.81c.84-.53,1.93-.64,2.87-.3"/>
      <path class="cls-13" d="m167.52,108.51s-.16-.04-.43-.09c-.26-.05-.63-.09-1.04-.04-.41.04-.76.15-1.01.26-.25.1-.39.19-.4.18,0,0,.13-.11.37-.23.24-.12.61-.24,1.02-.29.42-.04.8,0,1.06.07.26.07.42.14.41.15Z"/>
    </g>
  </g>
  <path class="cls-35" d="m167.32,91.85c-.62-1.63.77-1.68.77-1.68,7.23-1.43,9.63-5.99,8.98-10.52-.64-4.53-4.8-11.63-13.53-9.49-8.74,2.13-6.16,9.38-6.16,9.38,0,0-.24,1.15-1.33,1.23-1.09.08-.22,1.78-.22,1.78,0,0-2.64,5.69,1.9,6.95,1.66.46,2.41,2.1,2.39,2.7,0,0-.47,1.78,7.21-.34Z"/>
  <path class="cls-41" d="m167.77,83.98s2.44.82,1.04,2.83c-1.41,2.01-2.65.24-2.65.24"/>
  <circle cx="159.17" cy="80.79" r=".57"/>
  <path class="cls-21" d="m160.85,79.52s-.16-1.47-1.69-1.37"/>
  <line class="cls-41" x1="167.7" y1="85.88" x2="167.21" y2="85.65"/>
  <circle class="cls-49" cx="161.8" cy="83.77" r="1.19"/>
  <path class="cls-47" d="m156.67,85.74s0,0,0,.01c.08.46.48.89,1.19.95.57.05.97-.11,1.25-.31,0,0,0,0-.01-.02,0-.01-.02-.03-.04-.06-.03-.05-.08-.11-.15-.19-.03-.03-.05-.05-.08-.08-.05-.05-.11-.1-.18-.16-.14-.1-.31-.2-.52-.27-.05-.01-.1-.03-.16-.04-.04-.01-.08-.02-.12-.02-.32-.05-.71,0-1.17.18Z"/>
  <polygon class="cls-49" points="158.44 85.98 158.44 85.98 158.44 85.98 158.44 85.98"/>
  <path class="cls-49" d="m156.72,85.87c.43-.18.79-.21,1.09-.17.04,0,.08,0,.12.02.05,0,.1.02.15.04.19.06.36.15.49.25.07.05.12.1.17.15.03.02.05.05.07.07.07.07.11.13.14.18.02.02.03.04.04.05,0,.01.01.02.01.02.36-.26.49-.6.49-.6.19-1.11-1.65-1.03-1.65-1.03-.85-.05-1.22.5-1.12,1.02Z"/>
  <path class="cls-49" d="m155.98,85.33h.02s0,0,0,0c0,0-.01,0-.02,0Z"/>
  <path class="cls-44" d="m157.84,84.91s1.84-.07,1.65,1.03c0,0-.13.33-.49.6-.26.19-.63.34-1.17.29-.66-.05-1.03-.46-1.11-.89,0,0,0-.01,0-.01-.1-.52.27-1.07,1.12-1.02Z"/>
  <path class="cls-41" d="m158.6,72.84s2.16,4.94,6.82,5.3c0,0-.95,2.85,2.51,3.79"/>
  <path class="cls-31" d="m117.43,118.81c-4.21-2.86-21.16-.29-24-6.76-2.84-6.46,2.54-9.25,2.54-9.25,0,0,.92,1.22,2.68,2.23,1.76,1.01,3.25,1.59,4.05,2.24,2.01,1.68,4.54,3.95,4.02,2.52-.13-.37-.78-1.18-.93-1.44l1.22.82s0,0,.01,0c.7.46,1.59.97,1.87.82.67.33,1.37.65,2.05.96,2.2,1.01,4.36,1.84,5.9,1.91.16,0,.68.32,1.15.63.35.23.68.46.81.55.19.13.38.27.59.43,3.85,2.92,2.25,7.18-1.97,4.33Z"/>
  <path class="cls-31" d="m95.83,102.47c-5.98-4.82-1.52-16.89-1.52-16.89,2.45-5.83,7.02-5.12,7.68-6.86.66-1.74-.34-2.14-.34-2.14-7.7-1.52-10.26-6.38-9.57-11.21.68-4.83,5.11-12.39,14.42-10.11,9.31,2.27,6.57,10,6.57,10,0,0,.26,1.22,1.41,1.31,1.16.08.24,1.9.24,1.9,0,0,2.81,6.06-2.02,7.41-1.77.49-2.45,1.06-2.43,1.69,0,.02,0,.05,0,.07,0,.03.02.07.02.11.25,1.07,2.29,2.3,4.42,3.67,0,0,0,0,.01,0,.02.02.1.06.22.17.05.04.1.09.15.14.63.63,1.97,2.41,3.49,7.08,1.3,3.99,2.06,6.44,3.1,8.15.65,1.07,1.41,1.85,2.48,2.52,2.77,1.74,4.08,3.73,2.24,3.93"/>
  <path class="cls-36" d="m107.86,106.65c1.45.67,1.98,1.83,2.54,2.25"/>
  <path class="cls-20" d="m110.02,106.64s-.01-.01-.02-.01"/>
  <path class="cls-20" d="m100.11,86.37s.45,8.44.03,12.07c0,0,.65-.17,3.18,2.2.08.07.16.15.23.23"/>
  <path class="cls-36" d="m107.06,107.84s1.35.89,1.78,1.61h0"/>
  <path class="cls-20" d="m108.85,109.45h0"/>
  <line class="cls-20" x1="105.16" y1="102.63" x2="105.15" y2="102.63"/>
  <path class="cls-20" d="m103.56,100.87h-.02"/>
  <path class="cls-31" d="m116.54,96.63s.1,1.5.45,4.74c0,0,3.78,7.81,1,12.13,0,0,0,.01-.01.02-2.39-1.41-2.51-.05-5.51-1.7-.62-.34-1.12-.62-1.54-.85l-1.97-1.08c.03-.13-.03-.28-.12-.43.12.09,1.83,1.27,1.55-.55.26.19.51.22.86,0,1.06-.69-1.02-2.12-1.24-2.26,1.36.65,2.35.19-.58-.84-1.31-.46-2.01-1.13-3.53-2.27l-1.18.92-2.83,2.17s-3.66-1.61-5.08-2.93c0,0-1.48-1.49-2.4-2.63-4.22-5.23-.3-17.19,1.61-19,1.91-1.81,5.96-3.34,5.96-3.34,8.01,1.69,8.43-.2,8.3-.98,0-.04-.02-.07-.02-.11-.02-.07-.04-.13-.05-.16.02.03.04.06.05.09.66,1.2,1.06,1.47,4.45,3.85,0,0,0,0,.01,0,.07.05.15.11.22.17.05.04.1.09.15.14,3.39,3.07,6.77,15.01,6.77,15.01-.03.06-.09.13-.18.21-.78.71-3.65,2.11-3.65,2.11l-1.51-2.42Z"/>
  <path class="cls-36" d="m119.21,99.53s-.53,5.55.64,4.1.73-3.57,2.31-1.8c1.58,1.77,1.29,2.94,1.9,1.78s-.59-2.63-.59-2.63"/>
  <path class="cls-20" d="m124.16,102.3s2.93,3.22,1.62.26l-1.03-1.58"/>
  <path class="cls-31" d="m122.05,113.85c-1.24.37-1.7,1.14-1.7,1.14.68.77,1.41,2.24,1.31,3.12-.22,1.96,11.08-.67,8.93-4.3-1.09-1.84-5.84-.69-5.84-.69"/>
  <path class="cls-31" d="m123.79,105.18s-2.25-.5-2.43,4.22c-.04,1.18,0,4.75,0,4.75,0,0,3.01-1.2,5.81-1.37,0,0,2.75-4.57,3.49-10.12.74-5.55-5.57-3.92-5.57-3.92l-8.09,2.53s3.55,7.27.99,12.23l.81.54s1.26-1.06,2.34-2.61"/>
  <path class="cls-36" d="m102,69.98s-2.6.87-1.1,3.01c1.5,2.14,2.83.26,2.83.26"/>
  <circle cx="111.35" cy="67.13" r=".6"/>
  <path class="cls-38" d="m109.37,66.15s.17-1.56,1.8-1.46"/>
  <line class="cls-17" x1="102.07" y1="72" x2="102.59" y2="71.76"/>
  <circle class="cls-49" cx="108.36" cy="69.75" r="1.27"/>
  <path class="cls-47" d="m113.78,71.99s0,0,0,.01c-.08.45-.48.89-1.18.95-.57.05-.97-.11-1.24-.31,0,0,0,0,.01-.02,0-.01.02-.03.04-.06.03-.05.08-.11.15-.19.03-.03.05-.05.08-.08.05-.05.11-.1.18-.16.14-.1.31-.2.52-.27.05-.01.1-.03.16-.04.04-.01.08-.02.12-.02.32-.05.71,0,1.16.18Z"/>
  <polygon class="cls-49" points="111.35 72.64 111.35 72.64 111.35 72.64 111.35 72.64"/>
  <path class="cls-49" d="m113.78,71.99c-.45-.19-.84-.23-1.16-.18-.05,0-.08,0-.12.02-.06,0-.11.03-.16.04-.21.06-.38.16-.52.27-.07.05-.13.1-.18.16-.03.03-.06.05-.08.08-.07.08-.12.14-.15.19-.02.03-.03.05-.04.06,0,.01-.01.02-.01.02-.38-.28-.53-.64-.53-.64-.21-1.18,1.76-1.1,1.76-1.1.91-.05,1.3.53,1.19,1.09Z"/>
  <path class="cls-49" d="m113.8,72h-.02s0,0,0,0c0,0,.01,0,.02,0Z"/>
  <path class="cls-32" d="m112.58,70.96s-1.96-.08-1.76,1.1c0,0,.14.36.53.64.28.2.67.36,1.24.31.7-.06,1.1-.49,1.18-.95,0,0,0-.01,0-.01.1-.56-.29-1.14-1.19-1.09Z"/>
  <path class="cls-36" d="m111.77,58.11s-2.31,5.26-7.26,5.65c0,0,1.01,3.04-2.68,4.03"/>
  <path class="cls-11" d="m116.54,96.64c-.48-1.93-.73-3.69-1.66-6.11"/>
  <path class="cls-36" d="m98.74,94.9c.45,4.23,7.69,8.24,7.69,8.24l-1.7,1.31"/>
  <path class="cls-36" d="m144.72,62.88s.94.75,2.63.5"/>
  <g>
    <rect class="cls-10" x="148.5" y="49.41" width="3.49" height="6.28" rx=".62" ry=".62" transform="translate(88.56 199.29) rotate(-86.48)"/>
    <polygon points="149.46 53.58 147.82 53.48 147.96 51.39 149.6 51.49 149.46 53.58"/>
    <path d="m152.46,52.33l-2.05-.13c-.15,0-.27-.14-.26-.29h0c0-.15.14-.27.29-.26l2.05.13c.15,0,.27.14.26.29h0c0,.15-.14.27-.29.26Z"/>
    <path d="m152.59,53.11l-2.39-.15c-.06,0-.1-.05-.1-.11h0c0-.06.05-.1.11-.1l2.39.15c.06,0,.1.05.1.11h0c0,.06-.05.1-.11.1Z"/>
    <path d="m152.56,53.45l-2.39-.15c-.06,0-.1-.05-.1-.11h0c0-.06.05-.1.11-.1l2.39.15c.06,0,.1.05.1.11h0c0,.06-.05.1-.11.1Z"/>
  </g>
  <path class="cls-31" d="m66.47,118.1c3.63-2.47,18.26-.25,20.72-5.83,2.46-5.58-2.2-7.98-2.2-7.98,0,0-.79,1.05-2.31,1.92-1.52.87-2.81,1.37-3.5,1.93-1.73,1.45-3.92,3.41-3.47,2.17.12-.32.67-1.02.81-1.24l-1.05.71s0,0,0,0c-.61.4-1.37.84-1.62.71-.58.28-1.18.56-1.77.83-1.9.87-3.76,1.59-5.1,1.65-.14,0-.59.27-.99.54-.31.2-.59.39-.7.47-.16.11-.33.24-.51.37-3.32,2.52-1.94,6.2,1.7,3.74Z"/>
  <path class="cls-31" d="m85.11,103.99c5.16-4.16,1.31-14.58,1.31-14.58-2.12-5.03-6.06-4.42-6.63-5.92-.57-1.5.29-1.85.29-1.85,6.65-1.31,8.85-5.51,8.26-9.67-.59-4.17-4.41-10.69-12.45-8.73-8.04,1.96-5.67,8.63-5.67,8.63,0,0-.22,1.05-1.22,1.13-1,.07-.2,1.64-.2,1.64,0,0-2.43,5.23,1.75,6.39,1.53.42,2.11.92,2.09,1.46,0,.02,0,.04,0,.06,0,.03-.01.06-.02.09-.22.92-1.98,1.99-3.82,3.17,0,0,0,0,0,0-.02.01-.09.06-.19.15-.04.04-.08.07-.13.12-.55.55-1.7,2.08-3.01,6.11-1.12,3.44-1.78,5.56-2.68,7.03-.56.92-1.22,1.6-2.14,2.17-2.39,1.5-3.52,3.22-1.94,3.39"/>
  <path class="cls-36" d="m74.73,107.6c-1.25.58-1.71,1.58-2.19,1.94"/>
  <path class="cls-20" d="m72.87,107.59s.01-.01.02-.01"/>
  <path class="cls-20" d="m81.42,90.1s-.39,7.28-.03,10.42c0,0-.56-.15-2.75,1.9-.07.06-.13.13-.2.2"/>
  <path class="cls-36" d="m75.42,108.63s-1.17.77-1.54,1.39h0"/>
  <path class="cls-20" d="m73.87,110.02h0"/>
  <line class="cls-20" x1="77.06" y1="104.13" x2="77.07" y2="104.13"/>
  <path class="cls-20" d="m78.45,102.61h.02"/>
  <path class="cls-31" d="m67.24,98.96s-.09,1.29-.39,4.09c0,0-3.26,6.74-.86,10.47,0,0,0,0,0,.01,2.06-1.22,2.17-.05,4.75-1.47.53-.29.97-.53,1.33-.73l1.7-.93c-.02-.11.02-.24.11-.37-.11.08-1.58,1.1-1.34-.48-.22.16-.44.19-.74,0-.91-.59.88-1.83,1.07-1.95-1.17.56-2.03.17.5-.72,1.13-.4,1.73-.97,3.05-1.96l1.02.79,2.44,1.87s3.16-1.39,4.38-2.53c0,0,1.28-1.29,2.07-2.27,3.64-4.51.26-14.84-1.39-16.4-1.65-1.56-5.15-2.89-5.15-2.89-6.91,1.46-7.28-.17-7.17-.85,0-.03.01-.06.02-.09.02-.06.04-.11.05-.14-.02.02-.03.05-.04.07-.57,1.04-.91,1.27-3.84,3.32,0,0,0,0,0,0-.06.05-.13.1-.19.15-.04.04-.08.07-.13.12-2.92,2.65-5.84,12.96-5.84,12.96.03.05.08.11.15.18.68.61,3.15,1.82,3.15,1.82l1.3-2.09Z"/>
  <path class="cls-36" d="m64.94,101.45s.46,4.79-.55,3.54c-1.01-1.24-.63-3.08-1.99-1.56-1.36,1.53-1.11,2.53-1.64,1.54-.53-1,.51-2.27.51-2.27"/>
  <path class="cls-20" d="m60.66,103.84s-2.53,2.78-1.4.23l.89-1.37"/>
  <path class="cls-31" d="m62.48,113.82c1.07.32,1.47.98,1.47.98-.58.67-1.22,1.94-1.13,2.69.19,1.69-9.56-.58-7.71-3.71.94-1.59,5.04-.6,5.04-.6"/>
  <path class="cls-31" d="m60.98,106.33s1.94-.44,2.09,3.65c.04,1.02,0,4.1,0,4.1,0,0-2.6-1.03-5.01-1.18,0,0-2.38-3.95-3.01-8.74s4.81-3.38,4.81-3.38l6.98,2.18s-3.06,6.28-.86,10.55l-.69.47s-1.09-.91-2.02-2.25"/>
  <path class="cls-36" d="m79.79,75.95s2.25.75.95,2.6c-1.29,1.85-2.44.22-2.44.22"/>
  <circle cx="71.72" cy="73.49" r=".52"/>
  <path class="cls-38" d="m73.43,72.64s-.14-1.35-1.55-1.26"/>
  <line class="cls-17" x1="79.73" y1="77.69" x2="79.28" y2="77.48"/>
  <circle class="cls-49" cx="74.3" cy="75.75" r="1.1"/>
  <path class="cls-36" d="m71.36,65.7s1.99,4.54,6.27,4.88c0,0-.87,2.62,2.31,3.48"/>
  <path class="cls-11" d="m67.24,98.96c.41-1.67.63-3.18,1.44-5.28"/>
  <path class="cls-36" d="m82.6,97.46c-.38,3.65-6.64,7.12-6.64,7.12l1.47,1.13"/>
  <g>
    <path class="cls-8" d="m63.78,29.3l-7.27,9.06c-.17.38-2.51,5.54-4.53,9.97-1.57,3.45-2.93,6.45-2.93,6.45,0,0-.21.5-.51,1.17v.02l-1.41,4.05c-.02.52-.02,3.68-.25,4.85-.08.39-.46,1.54-.83,1.34-.45-.23-.92-.23-.92-.23l.04-1.05c-.06,0-.72.66-.72.66l-2.12-7.09c.73-.64,1.13-1.33,1.62-1.85.37-1.18,1.82-6.2,3.21-10.91,1.33-4.5,2.61-8.74,2.85-9.04.48-.66,11.7-11.27,11.7-11.27l2.06,3.85Z"/>
    <path class="cls-8" d="m38.27,106.51s.49,5.34.17,7.07c-.04.23-.14.53-.25.85-.33.98.58,3.95.58,3.95l12.16.04c.66,0,.22-.42-.32-.8-.88-.63-1.59-1.05-4.4-2.36-.18-.09-.85-.5-1.09-.64-.61-.36-1.23-.94-1.76-1.51-.88-.96-1.02-5.66-1.02-5.66l-4.06-.95Z"/>
    <path class="cls-8" d="m45.11,114.64c-3.2.86-5.59.33-6.92-.19-.33.97-.94,4.67-.57,4.67,3.05,0,5.61.18,14.35.04.31,0,.27-1.08.07-1.32-.56-.65-6.69-3.06-6.93-3.2Z"/>
    <path class="cls-1" d="m23.02,43.18s.17,7.62,2.36,12.49c2.13,4.75,12.3,16.46,15,23.3-.84,3.86-3.13,9.28-2.97,13.55.19,4.84-.09,17.66-.09,17.66l5.46.17,7.16-33.08-11.48-30.17-4.21-14.18-11.23,10.25Z"/>
    <path class="cls-8" d="m20.66,110.99s-.24,4.33-.25,4.34c-.09.55-.44,1.91-.44,2.41,0,1.88,8.34-1.59,6.47-2.43-.17-.08-1.32-1.07-1.37-1.71-.09-.99-.04-2.55-.04-2.55l-4.36-.06Z"/>
    <path class="cls-8" d="m26.42,115.3s-1.96.57-2.96.72c-1,.14-2.32-1.07-3.03-.74-.78.36-.81,3.9-.81,3.9,0,0,10.43.34,13.52-.12,1.21-.18-2.71-2.42-6.71-3.76Z"/>
    <path class="cls-3" d="m39.71,49.58s.46-.33,1.22-.87c-.7.52-1.14.86-1.23.91.01-.03.01-.05.01-.05Z"/>
    <path class="cls-1" d="m67.93,25.44c-.01.06-.03.11-.06.18-.05.12-.1.27-.17.42-.06.1-.11.21-.18.33-.07.11-.13.24-.21.36-.07.11-.15.24-.25.37-2.42,3.46-8.97,9.18-12.25,11.41-1.36.91-9.83,7.21-13.48,9.91-.13.11-.27.21-.41.3-.75.54-1.22.87-1.22.87,0,0,0,.01-.01.05-.01.02-.02.02-.02.02l-15.29-11.07s.02-.03.03-.05c.54-.62,1.09-1.25,1.68-1.87,4.62-4.86,10.8-9.54,16.21-13.37,5.17-3.66,9.65-6.56,11.43-8.19,5.43-4.92,7.76-2.77,9.2-1.82.98.64,3.03,3.57,3.03,3.57,0,0,3.1,4.16,1.96,8.58Z"/>
    <path class="cls-1" d="m26.09,36.66c-.59.62-1.14,1.25-1.68,1.87.01-.01.01-.02.01-.02.53-.62,1.08-1.24,1.67-1.85Z"/>
    <path class="cls-1" d="m39.67,49.65s.01,0,.02-.02c-.3,1.23-7.51,30.49-7.7,30.95-.19.71-6.06,30.67-6.06,30.67l-5.68-.14,2.66-31.48s-2.08-23.21-2.66-28.75c-.54-5.21,3.63-11.58,4.12-12.31l15.29,11.07Z"/>
    <path class="cls-1" d="m26.09,36.66c4.57-4.85,10.73-9.51,16.15-13.37h.07c-5.42,3.83-11.6,8.5-16.21,13.37Z"/>
    <path class="cls-1" d="m67.06,27.09c-2.41,3.55-8.86,9.47-12.13,11.68-1.37.92-9.97,7.06-13.6,9.64,3.65-2.7,12.12-9,13.48-9.91,3.28-2.23,9.83-7.95,12.25-11.41Z"/>
    <path class="cls-1" d="m67.88,25.63c-.05.12-.1.26-.18.41.07-.15.12-.29.17-.42h.01Z"/>
    <path class="cls-8" d="m54.8,11.42l-.26,7.23-12.98-.09c-.3.24-3.43,3.57-6.4,6.74-2.75,3-5.37,5.81-5.37,5.81,0,0-.69.54-1.49,1.16,0,.03,0,.05.01.07.35.73.5,1.51.56,2.3.06.97.1,1.96-.86,2.61-.32.21-.52.51-.74.81-.28.42-.72.74-1.15,1-.43.25-.88.15-1.23-.25-.21-.24-.38-.57-.65-.72-.45-.27-3.55-3.28-3.19-4.08.17-.42,1.77-2.35,2.42-2.86.37-.28,2.24-1.76,2.34-1.84,1.46-1.45,3.75-4.5,6-7.62,3.28-4.58,6.47-9.33,6.85-9.51.72-.35,16.12-.77,16.12-.77Z"/>
    <line class="cls-9" x1="35.15" y1="25.3" x2="35.17" y2="25.32"/>
    <path class="cls-36" d="m83.67,17.16s1.76.72,3.16-1.14c1.69-2.24.03-4.09.03-4.09.68-2.49-2.41-7.62-8.27-9.52s-8,4.57-7.66,6.47"/>
    <path class="cls-36" d="m65.41,15.96c1.38-1.64,3-5.62,3.5-7.78.57-2.47,3.15-3.65,3.15-3.65"/>
    <path class="cls-31" d="m66.53,14.24c1.35-.65,5.09-1.55,5.09-1.55-.28-1.31,1.3-2.68,2.43-2.4,1.13.28,1.17,1.6,1.65,2.73.52,1.24,3.11,1.12,3.95,1.03.84-.08,5.55-1.2,5.55-1.2-.02.96-.18,2.69-1.6,4.25-.17.2-.35.38-.57.56-1.94,1.69-1.37,3.91-1.83,4.29-.46.38-1.32-.31-3.21,1.07-1.91,1.4-2.89,2.67-4.5,1.1-1.51-1.49-2.68-3.57-2.81-4.14,0,.34-1.95,1.68-2.76,5.44,0,0-1.41-.39-2.71-5.12"/>
    <path d="m80.92,18.14c.33-.32.41-.76.19-.99-.22-.23-.66-.16-.99.16-.32.31-.41.75-.19.97.22.23.67.16.99-.14Z"/>
    <path class="cls-42" d="m82.73,16.63s-.63-1.42-2.3-.87"/>
    <path class="cls-19" d="m73.51,11.91s.36.82-.05,1.62"/>
    <path class="cls-42" d="m75.51,22.07c.35.61,1.16.41,2.09.2,0,0-1.01-1.29-1.55-2.49-.28-.61-.93,1.61-.54,2.29Z"/>
    <path class="cls-37" d="m71.66,11.89s-.34,1.36.68,2.6"/>
    <path class="cls-1" d="m47.04,9.69s-.39,2.62-.44,4.4c-.03,1.19-.01,6.47-.01,6.47,0,0,8.61,1.97,11.99,2.1,12.41.48,7.93-8.14,6.64-9.64-2.89-3.37-18.18-3.33-18.18-3.33Z"/>
    <rect class="cls-39" x="52.65" y="28.46" width="5.78" height="3.23" transform="translate(67.89 92.01) rotate(-129.72)"/>
  </g>
  <circle class="cls-25" cx="167.7" cy="117.91" r="3.66"/>
  <circle class="cls-26" cx="162.83" cy="121.57" r="3.66"/>
  <circle class="cls-28" cx="173.06" cy="121.57" r="3.66"/>
  <g>
    <rect class="cls-4" x="80.06" y="112.58" width="15.06" height="2.56" rx="1.24" ry="1.24" transform="translate(-26.27 201.46) rotate(-90)"/>
    <rect class="cls-2" x="82.24" y="110.41" width="10.71" height="2.56" rx="1.24" ry="1.24"/>
    <rect class="cls-7" x="81.06" y="113.22" width="13.07" height="2.56" rx="1.24" ry="1.24"/>
    <rect class="cls-12" x="79.88" y="116.02" width="15.42" height="2.56" rx="1.28" ry="1.28"/>
    <rect class="cls-5" x="78.7" y="118.83" width="17.77" height="2.56" rx="1.28" ry="1.28"/>
  </g>
  <g>
    <polygon class="cls-6" points="193.43 116.54 193.43 118.37 181.62 118.37 181.62 116.54 184.63 115.66 185.27 113.87 191.49 113.87 192.51 116.54 193.43 116.54"/>
    <circle class="cls-8" cx="184.18" cy="118.37" r="1.42"/>
    <circle class="cls-8" cx="190.3" cy="118.37" r="1.42"/>
  </g>
  <circle class="cls-26" cx="15.37" cy="116.76" r="3.66"/>
  <circle class="cls-27" cx="10.49" cy="120.42" r="3.66"/>
  <circle class="cls-29" cx="20.72" cy="120.42" r="3.66"/>
  <polygon class="cls-12" points="114.32 118 114.32 119.83 102.51 119.83 102.51 118 105.52 117.12 106.16 115.33 112.38 115.33 113.39 118 114.32 118"/>
  <circle class="cls-8" cx="105.07" cy="119.83" r="1.42"/>
  <circle class="cls-8" cx="111.19" cy="119.83" r="1.42"/>
  <path class="cls-33" d="m68.18,77.39s1.43,1.34,2.72,0"/>
  <circle class="cls-29" cx="69.54" cy="118.07" r="3.66"/>
  <rect class="cls-46" x="-514.63" y="-443.73" width="2244.45" height="5948.74"/>
</svg>