<?xml version="1.0" encoding="UTF-8"?>
<svg id="Calque_1" data-name="Calque 1" xmlns="http://www.w3.org/2000/svg" viewBox="0 0 128 128">
  <defs>
    <style>
      .cls-1 {
        stroke-width: .64px;
      }

      .cls-1, .cls-2, .cls-3, .cls-4, .cls-5, .cls-6, .cls-7, .cls-8, .cls-9, .cls-10, .cls-11, .cls-12, .cls-13, .cls-14, .cls-15, .cls-16, .cls-17, .cls-18, .cls-19, .cls-20, .cls-21, .cls-22, .cls-23, .cls-24, .cls-25, .cls-26, .cls-27, .cls-28, .cls-29 {
        stroke: #000;
      }

      .cls-1, .cls-2, .cls-3, .cls-5, .cls-6, .cls-7, .cls-9, .cls-10, .cls-11, .cls-13, .cls-15, .cls-16, .cls-19, .cls-20, .cls-30, .cls-21, .cls-22, .cls-23, .cls-25, .cls-26 {
        stroke-linecap: round;
      }

      .cls-1, .cls-2, .cls-7, .cls-9, .cls-10, .cls-11, .cls-13, .cls-15, .cls-16, .cls-20, .cls-30, .cls-21, .cls-22, .cls-23, .cls-25, .cls-26 {
        stroke-linejoin: round;
      }

      .cls-1, .cls-31, .cls-4, .cls-5, .cls-12, .cls-15, .cls-16, .cls-20 {
        fill: #fff;
      }

      .cls-2, .cls-7, .cls-19 {
        stroke-width: .58px;
      }

      .cls-2, .cls-19 {
        fill: #fce9b9;
      }

      .cls-32 {
        fill: #fab0b4;
      }

      .cls-33 {
        fill: #ff6d75;
      }

      .cls-34, .cls-8 {
        fill: #ff735d;
      }

      .cls-35 {
        fill: #1d1d1b;
      }

      .cls-36, .cls-3, .cls-14 {
        fill: #1a2e35;
      }

      .cls-3, .cls-4, .cls-5, .cls-6, .cls-8, .cls-12, .cls-14, .cls-17, .cls-18, .cls-19, .cls-24, .cls-27, .cls-28, .cls-29 {
        stroke-miterlimit: 10;
      }

      .cls-3, .cls-5, .cls-6, .cls-12, .cls-13, .cls-14, .cls-16, .cls-21, .cls-24, .cls-29 {
        stroke-width: .86px;
      }

      .cls-4 {
        stroke-width: .63px;
      }

      .cls-6, .cls-7, .cls-9, .cls-10, .cls-11, .cls-17, .cls-18, .cls-30, .cls-21, .cls-22, .cls-23, .cls-24, .cls-25, .cls-26, .cls-27, .cls-28 {
        fill: none;
      }

      .cls-8, .cls-27 {
        stroke-width: .47px;
      }

      .cls-9 {
        stroke-width: .6px;
      }

      .cls-10, .cls-17 {
        stroke-width: .52px;
      }

      .cls-11 {
        stroke-width: .4px;
      }

      .cls-13 {
        fill: #afaff9;
      }

      .cls-15, .cls-23 {
        stroke-width: .43px;
      }

      .cls-18 {
        stroke-width: 2px;
      }

      .cls-20, .cls-25 {
        stroke-width: .8px;
      }

      .cls-30 {
        stroke: #fff;
        stroke-width: 8px;
      }

      .cls-22 {
        stroke-width: .9px;
      }

      .cls-26 {
        stroke-width: .45px;
      }

      .cls-28 {
        stroke-width: .49px;
      }
    </style>
  </defs>
  <path class="cls-13" d="m100.46,72.95s-1.04,1.2-2.52,2.87c-1.13,1.28-2.5,2.83-3.84,4.33-2.52,2.81-4.93,5.43-5.36,5.68-.41.22-.64.11-.87-.2-.32-.42-.63-1.22-1.38-1.93-.6-.58-1.35-.82-1.79-1.08-.22-.13-.36-.27-.36-.45,0-.11.34-.67.92-1.52-1.89-.16-3.33-.47-3.81-.72-1.34-.66-5.22-2.12-5.71-2.67-.48-.54,1.34-2.48,1.77-4.49.31-1.47-1.16-4.16-2.63-6.71-1.33,2.28-11.35,4.93-11.84,4.55-.14-.1-.78-4.26-.83-5.17-.04-.5,7.44-2.47,7.51-2.54.25-.3.06-19.74,1.66-21.1.98-.84,4.35-1.83,4.35-1.83,0,0-.27.45-.28.98-.06,1.36.18,3.72,2.35,4,2.48.32,4.98-1.67,6.46-4.01.71-1.11.89-1.6,1.1-2.22.02-.04.03-.09.05-.15,0,0,2.36.69,6.01,1.34,3.64.65,5.52,5.53,7.22,9.65,1.7,4.13,3.95,14.4,4.49,17.06.54,2.67-2.67,6.31-2.67,6.31Z"/>
  <path class="cls-6" d="m57.73,63.23s.13-.82,1.62-.59c1.49.23,4.48,1.12,5.49.58,1.01-.54.38-1.99-1.25-2.69-1.63-.7-6.1-1.35-7.05-2.73-.94-1.38-.24-1.63.25-3.74.49-2.11-1.43-4.48-1.04-5.16s3.38-6.42,2.95-9.93-1.76-4.35-2.71-2.54c-.95,1.81-.52,7.92-.96,9s-.57,2.66-1.62,2.35c-1.06-.31-2.14-.34-2.72-.18s-1.09-2.3-.57-4.39c.52-2.09,1.38-6.88.16-7.71-1.21-.83-2.9,1.83-3.13,4.15s.88,6.47,1.18,7.77.05,1.27-1.11,2.83c-1.17,1.56-1.06,4.48-.34,5.77.72,1.3.33,2.28-1.79,2.91s-3.9,1.2-5.27,2.18-1.14,2.03-.14,2.33,4.5-.67,6.58-1.59c0,0-.61,6.7-.16,11.32.45,4.62.77,9.27,2.3,10.13s2.62-.3,2.61-2.13c-.02-1.83-1.08-7.05,1.62-7.4s1.43,9.41,4.7,8.91c3.27-.5,1.05-10.07.82-11.24s-.86-6.23-.41-8.21Z"/>
  <path class="cls-16" d="m62.33,66.39c-.05-.55-2.98-2.53-4.68-3.13-1.64-.58-2.13-1.04-3.27-.61-1.02.37-2.15.4-2.04.96.12.55.77.91,1.78.83.93-.09.72-.41,1.75.05,1.04.47,1.24,1.64,1.97,2.32l.25,3.28s1.54.82,2.8.32c1.26-.51,1.91-.25,1.91-.25,0,0-.4-2.86-.47-3.77Z"/>
  <path class="cls-23" d="m49.3,58.33s2.16,1.17,4.98-.37"/>
  <ellipse class="cls-35" cx="49.56" cy="51.75" rx=".36" ry=".49" transform="translate(-1.65 1.63) rotate(-1.85)"/>
  <ellipse class="cls-35" cx="52.83" cy="51.79" rx=".36" ry=".49" transform="translate(-1.65 1.74) rotate(-1.85)"/>
  <ellipse cx="50.97" cy="53.52" rx=".53" ry=".39" transform="translate(-4.44 4.61) rotate(-4.96)"/>
  <path class="cls-23" d="m52.3,54.65c-.84.14-1.3-.96-1.3-.96,0,0-.42,1.03-1.16,1.05"/>
  <path class="cls-21" d="m67.36,29.08s-1.8-.34-1.96-2.57c-.19-2.69,2.12-3.31,2.12-3.31.75-2.36,5.95-4.88,11.68-3.35,5.73,1.53,4.08,7.86,2.8,9.22"/>
  <path class="cls-21" d="m83.37,24.98s1.46,2.3.64,4.59c-.72,2-1.62,4.15-1.37,6.19"/>
  <path class="cls-21" d="m85.35,38.73c-.21.62-.39,1.1-1.1,2.22-1.48,2.34-3.98,4.33-6.46,4.01-2.17-.28-2.41-2.64-2.35-4,0-.03.02-.05.03-.08.42-1.33.72-2.45.91-2.73-.41.4-2.44,1.46-4.44,1.87-2.12.43-2.25-1.11-3.06-3.23-.8-2.1-1.86-2-2.04-2.54-.17-.55,1.45-2.04.77-4.42-.08-.26-.13-.5-.16-.75-.33-2,.44-3.48.93-4.26,0,0,3.23,3.36,3.86,3.86.63.51,2.67,1.96,3.74,1.23.97-.66,1.7-1.7,2.76-1.34,1.06.36,1.62,2.29.71,3.2,0,0,1.55,1.66,2.3,2.9,1.48,2.42,3.52,3.96,3.52,3.96l.09.09Z"/>
  <path d="m69.07,31.32c-.1-.43.06-.82.36-.9.3-.07.62.22.71.64.1.42-.06.81-.35.89-.3.07-.62-.22-.72-.63Z"/>
  <path class="cls-26" d="m68.4,29.15s1.25-.81,2.31.5"/>
  <path class="cls-9" d="m78.33,30.16s-.72.47-.81,1.34"/>
  <path class="cls-21" d="m72.22,45.45s-.23,7.29-.12,9.84c.06,1.46,1.19,6.6,2.78,10.77"/>
  <path class="cls-21" d="m89.53,46.18s-.67,3.4.12,5.71c.79,2.31,6.01,15.06,6.01,15.06"/>
  <path class="cls-21" d="m85.26,80.66c2.48-3.42,8.44-11.53,9.55-12.8,2.06-2.36,4.49-.72,4.49-.72"/>
  <path class="cls-21" d="m72.83,29.1c1.78.47,1.74-1.02.93-1.83,0,0,2.63.89,3.74-.85s-1.02-2.76-1.02-2.76"/>
  <path class="cls-13" d="m99,90.28s.56,1.11,1.38,2.59c.6,1.1.63,4.3.27,6.09-.12.64-.29,1.1-.51,1.2-.81.41-3.24.41-7.29,3.08-4.05,2.67-9.14,4.86-13.28,6.88-4.13,2.03-8.82,1.7-11.58.81-2.75-.89-2.84-3.8-2.84-3.8-2.75.33-3.49-.51-5.02-2.59-1.53-2.08-1.94-4.86,2.6-12.88,4.53-8.01,13.01-14.39,13.01-14.39.49.55,4.37,2.01,5.71,2.67.48.24,1.92.55,3.81.72-.58.85-.92,1.41-.92,1.52,0,.18.14.32.36.45.43.26,1.18.5,1.79,1.08.75.72,1.06,1.51,1.38,1.93.23.31.47.42.87.2.43-.25-1.34-4.05,1.18-6.86.91-.22,1.79-.51,2.6-.88,2.71-1.24,6.85-3.24,7.28-4.3.37.76,3.24,4.45,3.41,9.04.04,1.03-.25,2.1-.75,3.08-1.22,2.4-3.46,4.37-3.46,4.37Z"/>
  <path class="cls-21" d="m99,90.28s-7.12,5.85-10.36,8.26c-3.25,2.41-11.09,6.15-11.74,7.61"/>
  <path class="cls-21" d="m65.16,107.12c-.81-3.48,2.51-8.02,2.51-8.02,3.4-3.81,8.62-10.24,11.42-12.97"/>
  <path class="cls-21" d="m106.86,102.58c-1.53,2.15-2,3.1-3.8,2.19-1.8-.91-1.6-1.09-1.86-3.73-.1-.96-.31-1.62-.54-2.09.36-1.79.34-4.99-.27-6.09-.82-1.48-1.38-2.59-1.38-2.59,0,0,2.23-1.98,3.46-4.37.34,0,2.05.05,2.29,1.94.26,2.1.89,6,2.18,7.94,1.29,1.94,1.44,4.66-.08,6.8Z"/>
  <path class="cls-26" d="m70.57,37.63c-.64.16-.99-.57-1.41-1.4,0,0,1.52-.13,2.69-.55.6-.21-.57,1.77-1.28,1.95Z"/>
  <path class="cls-22" d="m79.84,31.12s-.43,1.27-1.91,1.74"/>
  <path class="cls-20" d="m87.25,84.87c-1.16,1.54-2.86,3.97-3.44,5.66-.91,2.67-2.61,5.65-3.16,5.41-.54-.24,1.16-4.36,1.34-5.05.16-.68-.71.18-2.13,1.83-1.41,1.65-1.51,2.79-3.03,3.22-1.94.54,3.4-6.13,3.4-6.13-1.16.97-4.19,6.25-5.17,6.19-.97-.06-.5-.97.55-2.79,1.05-1.83,3.34-4.74,3.34-4.74,0,0-1.16.79-2.12,1.58-.97.78-2.43,3.52-2.98,3.34-.55-.18-.43-1.16.6-2.86,1.04-1.7,2.37-3.1,2.37-3.1-.19-1.88,1.58-2.98,3.46-3.64,1.88-.67,3.76-1.88,3.76-1.88l.03-.05c.43.26,1.18.5,1.79,1.08.75.72,1.06,1.51,1.38,1.93Z"/>
  <path class="cls-5" d="m98.53,106.93c-.44-1.54-1.18-5.01-1.28-5.8-.33-2.67-.42-6.24-1.56-7.92-1.27-1.87-3.66-2.33-4.3-2.16-6.66,1.83-7.2.18-7.2.18,0,0-3.29,3.73-4.12,5.91s-1.08,12.11-1.08,12.11l.37,3.02,15.54,4.34s2.88-1.19,3.63-4.03c.75-2.85.37-4.31,0-5.64Z"/>
  <g>
    <path class="cls-12" d="m78.94,106.53c-2.57-1.49-7.66-.01-9.12,1.35-.56-.66-1.14-1.33-1.91-1.74-.76-.41-1.76-.5-2.47,0-.64.46-.9,1.27-1.04,2.05-.24,1.33-.27,2.69-.07,4.02.19,1.25.72,2.63,1.91,3.03.68.23,1.43.08,2.1-.17.67-.25,1.3-.61,1.99-.81,2.03-.59,7.84,1.9,10.45.79l-1.85-8.52Z"/>
    <path class="cls-24" d="m65.45,106.14c.84-.33,1.29.27,1.6.59.3.33.53.83.65,1.41.06.29.08.6.12.92.04.32.07.66.1,1,.12,1.37.18,2.62.04,3.51-.06.44-.19.79-.34.99-.35.42-.86.71-.86.72"/>
  </g>
  <g>
    <path class="cls-12" d="m76.37,79.38c-1.65-3.22-1.88-7.14-.62-10.53.24-.65.62-1.35,1.3-1.48.76-.14,1.41.53,1.8,1.19.88,1.48,1.23,3.22,1.2,4.94-.03,1.72-.43,3.41-.99,5.03-.2.58-.45,1.2-.98,1.52"/>
    <path class="cls-12" d="m74.87,79.45c-.38-.56-.77-1.12-1.28-1.56-.51-.45-1.15-.77-1.83-.77-.98,0-1.81.69-2.47,1.41-2.4,2.62-3.56,6.22-3.6,9.77-.02,1.44.15,2.93.87,4.18.16.28.37.57.67.69.35.15.76.04,1.11-.12.87-.41,1.53-1.19,1.97-2.05.44-.86.69-1.8.94-2.73.7-2.65,1.4-5.3,2.09-7.95"/>
    <path class="cls-4" d="m75.01,79.43c-.23.05-3.44.94-4.89,3.53-1.14,2.04-.73,4.45,0,5.49.72,1.05,3.3,3.79,5.31,3.67,0,0,4.17-.13,5.54-1.63,1.37-1.49,3.25-5.22,1.72-8.38-1.53-3.16-4.68-3.29-7.67-2.68Z"/>
    <path class="cls-12" d="m72.39,109.96c-.3-1.76-.44-3.54-.41-5.32l-2.69-1.88c-.51.21-.9.67-1.12,1.18s-.31,1.07-.36,1.62c-.23,2.25-.08,4.53.27,6.77.1.61.23,1.27.71,1.67.55.46,1.38.41,2.05.15.6-.24,1.15-.64,1.46-1.21.48-.89.27-1.97.1-2.97Z"/>
    <path class="cls-12" d="m79.65,104.76c-.12-.26-.36-.49-.64-.53l-3.49,2.93c-.76.66-1.3,1.54-1.69,2.47-.38.93-.62,1.91-.83,2.89-.19.86-.36,1.78-.03,2.6.32.79,1.12,1.36,1.97,1.42.85.06,1.72-.39,2.17-1.11.44-.7.5-1.56.61-2.38.16-1.2.46-2.38.89-3.51.49-1.29,1.16-2.55,1.19-3.93,0-.29-.02-.59-.14-.85Z"/>
    <path class="cls-12" d="m74.7,90.94c-1.79,1.95-.95.63-2.22,3.01,0,0-.17.08-.61.56-1.41,1.54-2.78,4.91-2.7,6.86.07,1.72.71,3.37,1.87,4.49,1.19,1.14,2.81,1.79,4.41,1.6,1.95-.23,3.72-1.67,4.74-3.53,1.02-1.85,1.32-4.06,1.26-6.19-.05-1.94-.36-5.67-.8-6.54"/>
    <path d="m70.93,95.8s0,.03-.03.07c-.03.05-.06.11-.11.19-.05.08-.1.18-.17.3-.06.12-.14.25-.21.4-.3.59-.68,1.44-.93,2.42-.26.98-.3,1.91-.25,2.57.03.33.06.6.1.78.01.08.03.15.04.21,0,.05.01.07,0,.08,0,0-.01-.02-.02-.07-.01-.06-.03-.13-.05-.21-.05-.18-.09-.45-.13-.78-.06-.67-.03-1.61.23-2.6.25-.99.64-1.84.96-2.43.08-.15.15-.28.22-.39.07-.11.13-.21.18-.29.05-.07.09-.13.12-.18.03-.04.04-.06.05-.06Z"/>
    <path class="cls-12" d="m74.25,90.46c-.45-.37-1.05-.5-1.63-.54-1.87-.13-3.69.58-5.54.87-.71.12-1.47.19-2.05.62-.51.38-.81,1.04-.74,1.68.08.63.54,1.21,1.15,1.4.63.19,1.31-.02,1.94-.23,2.11-.72,4.22-1.43,6.33-2.15l1-.09c.23-.53-.02-1.18-.47-1.55Z"/>
    <path class="cls-23" d="m65.04,91.41c.24.14.96.44,1.24,1.25.29.81.11,1.48,0,1.74"/>
    <path class="cls-36" d="m74.18,83.06c.07.21-.03.43-.24.5-.21.07-.43-.03-.5-.24s.03-.43.24-.5c.21-.07.43.03.5.24Z"/>
    <path class="cls-36" d="m76.17,82.35c.07.21-.03.43-.24.5-.21.07-.43-.03-.5-.24-.07-.21.03-.43.24-.5.21-.07.43.03.5.24Z"/>
    <path class="cls-15" d="m75.79,84.84s.08.2.2.52c.11.33.27.78.45,1.27.18.49.35.94.48,1.26.12.32.2.52.19.53"/>
    <path class="cls-29" d="m79.2,79.31s-.02,0-.05,0c-.03,0-.08,0-.13-.02-.12-.02-.29-.04-.51-.06-.44-.04-1.09-.08-1.88-.01-.79.06-1.73.24-2.72.62-.98.37-2,.98-2.82,1.87-.41.44-.76.93-1.02,1.44-.26.51-.43,1.04-.52,1.55-.19,1.03-.08,2,.14,2.76.12.38.26.71.42.98.08.14.16.26.23.37.08.11.16.21.23.29.07.08.14.15.2.22.06.06.12.11.16.15.04.04.07.07.1.09.02.02.03.03.03.03,0,0-.01,0-.04-.03-.03-.02-.06-.05-.1-.08-.04-.04-.1-.08-.17-.14-.06-.06-.13-.13-.21-.21-.08-.08-.15-.18-.24-.29-.08-.11-.16-.23-.24-.37-.16-.28-.31-.61-.43-.99-.23-.77-.35-1.74-.16-2.79.09-.52.27-1.06.53-1.58.26-.52.61-1.01,1.03-1.46.84-.9,1.86-1.52,2.86-1.88.99-.38,1.94-.55,2.74-.6.8-.06,1.45-.01,1.89.04.22.03.39.05.51.07.05.01.1.02.13.02.03,0,.04,0,.04.01Z"/>
    <path class="cls-34" d="m74.58,84.17c-.07.05-.15.13-.13.22.01.07.09.11.15.14.29.14.59.26.9.35.1.03.21.06.32.02.08-.03.13-.09.19-.15.25-.28.44-.62.56-.98.04-.13-.07-.26-.2-.23-.6.1-1.35.31-1.78.63Z"/>
    <path class="cls-19" d="m70.46,79.5c.52.25,1.94,1,1.93,1.02"/>
  </g>
  <g>
    <path class="cls-12" d="m78.59,93.3c-.13-.09-.18-.2-.77-.5.02-.2.11-.57.12-.76,0-.24,0-.5-.15-.68-.12-.14-.33-.2-.51-.16-.18.04-.34.18-.42.35-.07.16-.04.33-.09.49-.03.1-1.08-.22-1.08-.22-.43-.21-1.14-.45-1.61-.53-.27-.05-.64-.08-.8.23-.1.19-.07.41.04.6.17.28.35.33.62.47-.12,0-.38.04-.5.09-.18.08-.28.16-.35.37-.06.18.03.45.17.57.14.12.3.21.47.27-.39.05-.74.32-.61.79.11.37.88.45,1.13.5,0,0-.22.17-.46.36-.32.26-.31.84.24.98.21.06.42,0,.63.04.62.08,1.27.46,1.55.65.74.52.91,1.06,2.07,1.32l1.67-4.43c-1.15-.71-.91-.48-1.35-.79Z"/>
    <g>
      <path class="cls-31" d="m93.96,99.16c-1.84,1.74-6.86,2.89-9.64,2.47-2.79-.42-7.51-3.5-7.51-3.5l1.8-5.12s5.64,2.05,5.78,2.03c0,0,7.33-3.46,9.24-2.35"/>
      <path class="cls-6" d="m93.46,92.61c-.11-.04-.28-.09-.5-.12-.23-.02-.51-.03-.84,0-.33.03-.7.09-1.12.18-1.66.36-3.96,1.18-6.6,2.39h0s0,0,0,0c-.03,0-.07-.01-.1-.02l-.09-.03-.17-.05c-.11-.04-.22-.07-.34-.11-.23-.08-.46-.16-.69-.24-.46-.16-.94-.33-1.42-.5-.96-.35-1.97-.71-3-1.08,0,0-.83,2.48-1.29,3.79-.16.45-.47,1.25-.47,1.25,1.09.7,2.18,1.32,3.26,1.88,1.08.55,2.14,1.04,3.2,1.37.53.16,1.06.26,1.58.31.52.03,1.03.04,1.52,0,.98-.06,1.88-.21,2.7-.38.81-.18,1.54-.39,2.15-.62.08-.03.15-.05.23-.08.07-.03.15-.06.22-.09.14-.06.28-.11.41-.17.13-.06.25-.12.36-.17.06-.03.11-.05.17-.08.05-.03.1-.06.16-.09.2-.11.38-.21.53-.31.15-.1.28-.18.37-.26.09-.08.16-.13.21-.17.05-.04.07-.06.07-.06"/>
    </g>
  </g>
  <g>
    <path class="cls-12" d="m79.46,93.3c1.03,1.47,3.02,4.37,4.05,5.84.18.26.39.54.69.66.35.14.74.02,1.08-.14.44-.2.85-.5,1.06-.94.2-.42.17-.92.02-1.37-.15-.44-.42-.83-.69-1.22-1.04-1.48-2.19-2.89-3.47-4.16-.43-.42-.98-1.03-1.61-.94s-1.76.85-1.13,2.27Z"/>
    <path class="cls-23" d="m86.04,96.98s-.89.04-1.58.69-.72,1.36-.69,1.66"/>
  </g>
  <g>
    <g>
      <path class="cls-5" d="m95.65,116.22c-2.24,1.48-9.59,2.07-11.17,2.34-1.39.23-2.83.05-4.2.38-.98.24-1.9.74-2.9.84-1.61.16-3.2-.79-4.1-2.13-.9-1.34-1.19-3.02-1.13-4.64.03-.98.26-2.08,1.08-2.63.69-.45,1.62-.37,2.36,0,.74.36,1.32.97,1.89,1.56,1.02-1.52,3.57-2.68,5.55-3.46,1.7-.67,5.91-1.71,7.22-.43"/>
      <path class="cls-27" d="m90.2,108.01s-.08-.07-.15-.12c-.14-.1-.37-.21-.69-.3"/>
    </g>
    <path class="cls-14" d="m76.88,119.55s.07-.13.13-.38c.06-.25.09-.62.02-1.07-.07-.45-.21-.98-.37-1.57-.17-.58-.37-1.22-.62-1.88-.24-.66-.51-1.27-.77-1.82-.25-.55-.52-1.03-.84-1.36-.32-.33-.67-.49-.91-.54-.25-.06-.39-.04-.39-.05,0,0,.04,0,.1-.01.07,0,.17,0,.3.03.25.05.62.2.95.53.34.33.61.82.87,1.37.26.55.53,1.17.78,1.83.25.66.45,1.3.61,1.89.16.59.29,1.12.36,1.58.06.46.03.84-.05,1.09-.04.12-.08.22-.11.28-.03.06-.05.09-.05.09Z"/>
    <path class="cls-3" d="m78.59,114.61c-.21-.58-1.13-2.67-1.11-2.68"/>
    <g>
      <path class="cls-8" d="m89.04,107.41c.82-.51,1.87-.62,2.78-.29"/>
      <path class="cls-3" d="m91.82,107.12s-.16-.04-.41-.09c-.25-.05-.61-.08-1.01-.04-.39.04-.74.15-.98.25-.24.1-.38.18-.39.17,0,0,.12-.11.36-.23.24-.12.59-.24.99-.28.4-.04.77,0,1.03.07.26.06.4.14.4.15Z"/>
    </g>
  </g>
  <path class="cls-20" d="m91.63,90.98c-.6-1.58.74-1.63.74-1.63,7.01-1.38,9.33-5.8,8.71-10.19-.62-4.39-4.65-11.27-13.12-9.2-8.47,2.07-5.97,9.09-5.97,9.09,0,0-.23,1.11-1.29,1.19-1.06.07-.21,1.73-.21,1.73,0,0-2.56,5.52,1.84,6.74,1.61.44,2.33,2.04,2.31,2.61,0,0-.45,1.72,6.99-.33Z"/>
  <path class="cls-25" d="m92.07,83.35s2.37.79,1.01,2.74c-1.36,1.95-2.57.23-2.57.23"/>
  <circle cx="83.73" cy="80.25" r=".55"/>
  <path class="cls-11" d="m85.36,79.03s-.15-1.42-1.63-1.33"/>
  <line class="cls-25" x1="92" y1="85.19" x2="91.52" y2="84.97"/>
  <circle class="cls-32" cx="86.28" cy="83.14" r="1.15"/>
  <path class="cls-33" d="m81.3,85.06s0,0,0,.01c.08.44.47.87,1.15.92.56.05.94-.11,1.22-.3,0,0,0,0-.01-.02,0-.01-.02-.03-.04-.06-.03-.04-.08-.11-.15-.18-.03-.03-.05-.05-.08-.08-.05-.05-.11-.1-.18-.16-.13-.1-.3-.2-.51-.26-.05-.01-.1-.03-.16-.04-.04-.01-.08-.02-.12-.02-.31-.04-.69,0-1.13.18Z"/>
  <polygon class="cls-32" points="83.02 85.28 83.02 85.28 83.02 85.28 83.02 85.28"/>
  <path class="cls-32" d="m81.35,85.18c.41-.17.77-.21,1.06-.17.04,0,.08,0,.11.02.05,0,.1.02.15.04.19.06.35.15.47.24.06.05.12.09.17.15.03.02.05.05.07.07.06.07.11.13.14.17.02.02.03.04.04.05,0,.01.01.02.01.02.35-.25.48-.58.48-.58.19-1.07-1.6-1-1.6-1-.83-.05-1.18.48-1.08.99Z"/>
  <path class="cls-32" d="m80.64,84.66h.02s0,0,0,0c0,0-.01,0-.02,0Z"/>
  <path class="cls-28" d="m82.43,84.25s1.79-.07,1.6,1c0,0-.13.32-.48.58-.25.18-.61.33-1.13.28-.64-.05-1-.45-1.07-.86,0,0,0-.01,0-.01-.09-.51.26-1.04,1.08-.99Z"/>
  <path class="cls-25" d="m83.18,72.55s2.1,4.78,6.61,5.14c0,0-.92,2.77,2.43,3.67"/>
  <path class="cls-16" d="m43.27,117.11c-4.08-2.77-20.51-.29-23.26-6.55-2.76-6.26,2.47-8.96,2.47-8.96,0,0,.89,1.18,2.59,2.16,1.71.97,3.15,1.54,3.93,2.17,1.95,1.63,4.4,3.83,3.9,2.44-.13-.36-.75-1.15-.91-1.39l1.18.8s0,0,.01,0c.68.45,1.54.94,1.82.8.65.32,1.32.63,1.99.93,2.13.98,4.23,1.79,5.72,1.85.16,0,.66.31,1.12.61.34.22.66.44.78.53.18.12.37.26.58.42,3.73,2.83,2.18,6.96-1.91,4.2Z"/>
  <path class="cls-16" d="m22.33,101.27c-5.79-4.67-1.47-16.37-1.47-16.37,2.38-5.65,6.8-4.96,7.44-6.65.64-1.68-.33-2.08-.33-2.08-7.47-1.47-9.94-6.18-9.28-10.86.66-4.68,4.95-12.01,13.98-9.8,9.02,2.2,6.37,9.69,6.37,9.69,0,0,.25,1.18,1.37,1.27,1.13.08.23,1.84.23,1.84,0,0,2.73,5.88-1.96,7.18-1.71.47-2.37,1.03-2.35,1.64,0,.02,0,.05,0,.07,0,.03.02.07.02.1.24,1.03,2.22,2.23,4.29,3.56,0,0,0,0,.01,0,.02.02.1.06.22.17.05.04.09.08.15.13.61.61,1.91,2.34,3.38,6.86,1.26,3.86,2,6.25,3.01,7.9.63,1.04,1.37,1.79,2.4,2.44,2.68,1.68,3.96,3.62,2.18,3.81"/>
  <path class="cls-21" d="m33.99,105.32c1.41.65,1.92,1.78,2.46,2.18"/>
  <path class="cls-10" d="m36.09,105.31s-.01-.01-.02-.01"/>
  <path class="cls-10" d="m26.48,85.67s.44,8.18.03,11.7c0,0,.63-.16,3.08,2.13.08.07.15.14.23.22"/>
  <path class="cls-21" d="m33.22,106.47s1.31.87,1.73,1.56h0"/>
  <path class="cls-10" d="m34.96,108.04h0"/>
  <line class="cls-10" x1="31.37" y1="101.43" x2="31.37" y2="101.43"/>
  <path class="cls-10" d="m29.82,99.72h-.02"/>
  <path class="cls-16" d="m42.41,95.61s.1,1.45.44,4.59c0,0,3.66,7.57.97,11.75,0,0,0,.01-.01.02-2.32-1.37-2.43-.05-5.34-1.65-.6-.33-1.09-.6-1.49-.82l-1.91-1.05c.03-.12-.03-.27-.12-.42.12.09,1.77,1.23,1.5-.53.25.18.49.21.83,0,1.02-.66-.99-2.06-1.2-2.19,1.32.63,2.28.19-.57-.81-1.27-.45-1.94-1.09-3.42-2.2l-1.14.89-2.74,2.1s-3.55-1.56-4.92-2.84c0,0-1.44-1.45-2.33-2.55-4.09-5.07-.29-16.66,1.56-18.42,1.85-1.75,5.78-3.24,5.78-3.24,7.76,1.64,8.17-.19,8.05-.95,0-.04-.02-.07-.02-.1-.02-.07-.04-.12-.05-.16.02.03.04.06.05.08.64,1.16,1.02,1.42,4.31,3.73,0,0,0,0,.01,0,.07.05.15.11.22.17.05.04.09.08.15.13,3.28,2.97,6.56,14.55,6.56,14.55-.03.06-.09.12-.17.2-.76.69-3.54,2.04-3.54,2.04l-1.46-2.34Z"/>
  <path class="cls-21" d="m44.99,98.42s-.52,5.38.62,3.98c1.14-1.4.71-3.46,2.24-1.75,1.53,1.72,1.25,2.85,1.84,1.73.6-1.12-.57-2.55-.57-2.55"/>
  <path class="cls-10" d="m49.79,101.1s2.84,3.12,1.57.26l-1-1.53"/>
  <path class="cls-16" d="m47.75,112.3c-1.2.36-1.65,1.11-1.65,1.11.65.75,1.37,2.17,1.27,3.02-.21,1.9,10.74-.65,8.66-4.17-1.05-1.78-5.66-.67-5.66-.67"/>
  <path class="cls-16" d="m49.43,103.9s-2.18-.49-2.35,4.09c-.04,1.15,0,4.61,0,4.61,0,0,2.92-1.16,5.63-1.33,0,0,2.67-4.43,3.38-9.81.72-5.38-5.4-3.8-5.4-3.8l-7.84,2.45s3.44,7.05.96,11.85l.78.53s1.22-1.03,2.27-2.53"/>
  <path class="cls-21" d="m28.31,69.78s-2.52.84-1.07,2.92c1.45,2.08,2.74.25,2.74.25"/>
  <circle cx="37.38" cy="67.01" r=".59"/>
  <path class="cls-23" d="m35.46,66.07s.16-1.51,1.74-1.42"/>
  <line class="cls-7" x1="28.38" y1="71.74" x2="28.89" y2="71.5"/>
  <circle class="cls-32" cx="34.48" cy="69.56" r="1.23"/>
  <path class="cls-33" d="m39.73,71.73s0,0,0,.01c-.08.44-.46.86-1.14.92-.55.05-.94-.11-1.21-.3,0,0,0,0,.01-.02,0-.01.02-.03.04-.06.03-.04.08-.11.14-.18.03-.03.05-.05.08-.08.05-.05.11-.1.18-.16.13-.1.3-.19.5-.26.05-.01.1-.03.16-.04.04-.01.08-.02.12-.02.31-.04.68,0,1.12.18Z"/>
  <polygon class="cls-32" points="37.38 72.36 37.38 72.36 37.38 72.36 37.38 72.36"/>
  <path class="cls-32" d="m39.73,71.73c-.44-.18-.82-.22-1.12-.18-.04,0-.08,0-.12.02-.06,0-.11.03-.16.04-.2.06-.37.16-.5.26-.07.05-.13.1-.18.16-.03.03-.06.05-.08.08-.07.08-.11.14-.14.18-.02.03-.03.04-.04.06,0,.01-.01.02-.01.02-.37-.27-.51-.62-.51-.62-.2-1.14,1.7-1.07,1.7-1.07.88-.05,1.26.52,1.16,1.06Z"/>
  <path class="cls-32" d="m39.75,71.74h-.02s0,0,0,0c0,0,.01,0,.02,0Z"/>
  <path class="cls-17" d="m38.57,70.73s-1.9-.08-1.7,1.07c0,0,.14.35.51.62.27.19.65.35,1.21.3.68-.06,1.07-.48,1.14-.92,0,0,0-.01,0-.01.1-.54-.28-1.11-1.16-1.06Z"/>
  <path class="cls-21" d="m37.78,58.27s-2.23,5.1-7.04,5.48c0,0,.98,2.95-2.59,3.91"/>
  <path class="cls-2" d="m42.41,95.62c-.46-1.87-.71-3.57-1.61-5.92"/>
  <path class="cls-21" d="m25.15,93.93c.43,4.1,7.45,7.99,7.45,7.99l-1.65,1.27"/>
  <path class="cls-21" d="m69.72,62.9s.91.73,2.55.49"/>
  <polygon class="cls-18" points="120.12 29.22 120.12 123.69 7.88 123.69 7.88 29.22 64.03 3.94 120.12 29.22"/>
  <g>
    <rect class="cls-1" x="73.39" y="49.85" width="3.38" height="6.09" rx=".6" ry=".6" transform="translate(17.68 124.58) rotate(-86.48)"/>
    <polygon points="74.32 53.89 72.73 53.79 72.86 51.76 74.45 51.86 74.32 53.89"/>
    <path d="m77.23,52.68l-1.98-.12c-.15,0-.26-.14-.25-.28h0c0-.15.14-.26.28-.25l1.98.12c.15,0,.26.14.25.28h0c0,.15-.14.26-.28.25Z"/>
    <path d="m77.35,53.42l-2.31-.14c-.06,0-.1-.05-.1-.11h0c0-.06.05-.1.11-.1l2.31.14c.06,0,.1.05.1.11h0c0,.06-.05.1-.11.1Z"/>
    <path d="m77.32,53.75l-2.31-.14c-.06,0-.1-.05-.1-.11h0c0-.06.05-.1.11-.1l2.31.14c.06,0,.1.05.1.11h0c0,.06-.05.1-.11.1Z"/>
  </g>
  <rect class="cls-30" x="-740.06" y="-443.73" width="2244.45" height="5948.74"/>
</svg>