<?xml version="1.0" encoding="UTF-8"?>
<svg id="Calque_1" data-name="Calque 1" xmlns="http://www.w3.org/2000/svg" viewBox="0 0 128 128">
  <defs>
    <style>
      .cls-1 {
        fill: #baa584;
      }

      .cls-1, .cls-2, .cls-3, .cls-4, .cls-5, .cls-6, .cls-7 {
        stroke: #000;
      }

      .cls-1, .cls-2, .cls-3, .cls-4, .cls-8 {
        stroke-linecap: round;
        stroke-linejoin: round;
      }

      .cls-2 {
        fill: #ffd4ad;
      }

      .cls-3, .cls-9, .cls-5 {
        fill: #fee4cb;
      }

      .cls-4, .cls-8, .cls-7 {
        fill: none;
      }

      .cls-10 {
        fill: #fff;
      }

      .cls-11 {
        fill: #fffdcc;
      }

      .cls-12, .cls-6 {
        fill: #d6d6d6;
      }

      .cls-5, .cls-6, .cls-7 {
        stroke-miterlimit: 10;
      }

      .cls-8 {
        stroke: #fff;
        stroke-width: 8px;
      }
    </style>
  </defs>
  <g>
    <path class="cls-3" d="m59.85,55.67c-.11.8-.78,2.17-1.47,3.27-4.03,6.35-12.56,8.86-15.35,9.69-1.31.39-2.2.55-3.67,1.22-2.85,1.31-3.55,2.64-5.12,2.39-.64-.11-2.48-2.23-2.5-3.35-.03-1.35,1.52-.69,4.47-3.49,1.53-1.44,2.49-2.77,3.44-4.08,2.29-3.15,2.11-4.25,3.97-5.73.48-.38,1.51-.9,3.57-1.94,2.35-1.18,3.72-2.61,4.35-2.74.07.25.2.5.37.71l3.5,3.9c.4.52.97.88,1.59,1.04,1.01.25,2.07-.07,2.78-.83l.05-.06Z"/>
    <path class="cls-2" d="m34.25,72.26l-12.22,11.38-.68-1.61,4.65-5.6-3.73,3.31-.29-1.4,9.78-9.44c.02,1.12,1.85,3.25,2.5,3.35Z"/>
    <path class="cls-2" d="m64.74,26.29v5.4s1.25-3.01,1.25-3.01l.61.4-2.05,8.86.71-.2.49-.52c.27-.29.71-.3.99-.03s.3.68.06.97l-.8.95-.47.19c-.5.21-.84.68-.89,1.22l-.3,3.46.07,5.6c.02.76-.26,1.5-.78,2.06l-3.84,4.11c-.71.76-1.77,1.08-2.78.83-.63-.15-1.2-.52-1.59-1.04l-3.5-3.9c-.17-.21-.3-.46-.37-.71-.14-.46-.11-.96.1-1.42l5.01-9.4c.41-.89.99-1.7,1.71-2.37l.63-.6c.7-.65,1.22-1.47,1.53-2.37l3.35-9.77.44.38c.26.23.41.56.41.91Z"/>
    <circle cx="60.16" cy="40.14" r=".94" transform="translate(-12.14 38.27) rotate(-32.23)"/>
    <path class="cls-7" d="m64.74,28.34c1.95-5.62,3.38-11.62,3.47-14.78.11-3.74-.33-5.41-1.33-6.76-1.58-2.14-4.41-3.32-6.87-3.29-6.97.08-12.51,9.76-14.68,16.01-1.69,4.85-.77,5.98-2.54,10.51-2.38,6.07-6.42,10.18-9.47,12.7"/>
    <path class="cls-7" d="m64.74,26.29c.41-.91,2.5-5.78.25-10.94-.48-1.1-1.9-4.35-4.89-5.6-5.57-2.32-12.17,2.63-15.94,6.22-2.58,2.45-4.86,5.28-6.57,8.4-.98,1.79-1.65,3.72-2.41,5.61-.76,1.91-1.73,3.61-2.82,5.34-2.2,3.48-5.31,6.48-8.59,8.94-.62.46-1.25.91-1.89,1.34"/>
    <path class="cls-4" d="m65.93,36.74c.35-.85,3.95-7.66,9.93-9.62,4.87-1.59,9.04.16,10.45.78,1.09.48,4.99,2.26,7.39,6.72,1.74,3.23,1.84,6.27,1.79,7.7"/>
    <path class="cls-4" d="m66.75,37.17c.8-.86,5.21-4.89,10.27-5.15,1.02-.05,3.48-.17,5.67,1.09,5.12,2.96,5.69,11.7,4.45,17.34"/>
    <polyline class="cls-4" points="64.16 50.84 66.02 51.15 70.85 41.33 75.47 42.7 77.97 47.98"/>
    <polyline class="cls-4" points="64.74 48.7 66.53 47.38 67.25 40.08 68.6 40.12"/>
    <polyline class="cls-4" points="64.66 45.64 66.18 42.29 68.79 41.69"/>
    <polyline class="cls-4" points="64.86 41.85 67.53 38.48 76.57 36.82 79.22 35.73"/>
    <polyline class="cls-4" points="63.12 52.47 68.73 53.74 74.05 49.13 75.99 57.53"/>
    <polyline class="cls-4" points="61.71 53.98 66.25 54.52 72.33 48.62 74.7 57.23 74.69 60.14"/>
    <polyline class="cls-4" points="60.67 55.58 63.46 55.61 70.48 51.07 71.04 58.08 70.79 60.76"/>
    <polyline class="cls-4" points="59.09 58.57 60.57 59.23 60.32 60.69"/>
    <polyline class="cls-4" points="57.35 60.72 58.45 61.75 58.58 63.03"/>
    <polyline class="cls-4" points="55.75 62.43 56.46 63.1 56.47 64.13"/>
    <polyline class="cls-4" points="53.98 63.83 54.98 64.49 54.92 65.38"/>
    <polyline class="cls-4" points="52.24 64.96 53.13 65.59 53.11 66.49"/>
    <polyline class="cls-4" points="50.63 65.88 51.4 66.6 51.13 67.72"/>
    <polyline class="cls-4" points="48.69 66.9 49.54 67.7 49.23 68.91"/>
    <polyline class="cls-4" points="46.3 67.78 47.26 68.68 47.5 69.68"/>
    <polyline class="cls-4" points="43.57 68.71 45.16 69.61 45.48 71.2"/>
    <polyline class="cls-4" points="41.2 69.16 42.51 70.38 42.39 71.55"/>
    <path class="cls-4" d="m41.72,58.92s.87-.46,2.97.84,3.8,6.57,3.8,6.57"/>
    <path class="cls-4" d="m39.71,60.94s.86-.48,2.84.72c1.99,1.19,3.47,6.25,3.47,6.25"/>
    <path class="cls-4" d="m38.14,63.27s.81-.52,2.47.37c1.66.89,2.48,5.33,2.48,5.33"/>
    <path class="cls-4" d="m36.74,64.78s.59-.36,1.84.33,1.97,4,1.97,4"/>
    <path class="cls-4" d="m35.41,66.19s.46-.25,1.51.38c1.05.63,1.83,3.32,1.83,3.32"/>
    <path class="cls-4" d="m33.15,67.68s.47-.24,1.64.5,2.17,3.64,2.17,3.64"/>
    <path class="cls-4" d="m43.08,56.1s.99-.49,3.46,1.1c2.48,1.59,4.69,7.71,4.69,7.71"/>
    <path class="cls-4" d="m45.6,54.49s.99-.49,3.46,1.1c2.48,1.59,4.69,7.71,4.69,7.71"/>
    <path class="cls-4" d="m48.69,53.27s.88-.44,3.07.95c2.19,1.39,4.11,6.81,4.11,6.81"/>
  </g>
  <path class="cls-9" d="m81.76,89.73c3.07-15.65,1.39-15.65-.56-18.71-3.14-4.94-11.84,2.8-13.28,4.13-7.1,6.84-12.35,3.82-15.73,6.32-1.57,1.16-3,3.32-3.83,5.07-.42.89-.67,1.9-1.23,2.71-.5.72-1.39,1.14-1.64,2.06-.24.87.23,1.53.39,2.34.16.83.03,1.78.1,2.63.09,1.19.46,2.47,1.46,3.11.66.42,1.58.57,1.93,1.27.28.56.07,1.24.1,1.87.04.89.58,1.69,1.28,2.25.69.56,1.52.91,2.34,1.25,1.15.48,2.29.96,3.44,1.44.62.26,1.26.52,1.93.56.69.04,1.36-.15,2.05-.22,1.04-.11,2.1.07,3.15,0,1.12-.08,2.18-.45,3.19-.93.88-.41,1.66-1.04,2.64-1.14,1.89-.18,2.92-1.54,4.01-3.04,1.01-1.39,2.04-2.76,3.2-4.03,2.28-2.52,3.89-5.64,5.06-8.95Z"/>
  <g>
    <path class="cls-12" d="m58.41,108.97c-.31-.02-.62-.07-.96-.17-.46-.13-.89-.31-1.27-.47l-3.44-1.44c-.87-.37-1.77-.74-2.57-1.39-.98-.79-1.58-1.86-1.62-2.94-.01-.24,0-.49.03-.74.02-.31.05-.6-.02-.74-.09-.17-.42-.32-.78-.48-.26-.11-.55-.24-.83-.42-1.39-.89-1.8-2.58-1.89-3.83-.03-.35-.02-.72-.02-1.09,0-.54.02-1.02-.06-1.42-.04-.21-.11-.4-.17-.59-.21-.6-.45-1.31-.21-2.19.23-.82.78-1.34,1.22-1.75.22-.2.42-.39.55-.59.3-.43.51-.97.73-1.54.14-.36.28-.71.43-1.04.83-1.77,2.35-4.13,4.12-5.43,1.46-1.07,3.1-1.25,4.99-1.46,2.86-.31,6.42-.7,10.64-4.77.48-.44,1.45-1.31,2.66-2.24l.12.15.3.11-.39-.32c2.59-3.18,5.59-5.87,8.25-7.43.1-.28.23-.56.38-.85,1.85-3.47,3.67-4.2,4.87-4.2.96,0,1.57.46,1.63.51,2.28,1.45.66,8.33.48,9.04.11,1.41.04,3.2-.23,5.46-.43,3.61-.97,7.48-1.97,11.37-.19,1.13-.43,2.41-.71,3.82-1.39,3.94-3.11,6.99-5.29,9.4-1.14,1.26-2.18,2.64-3.13,3.95-1.09,1.5-2.33,3.19-4.68,3.42-.49.05-.96.31-1.51.62-.27.15-.54.3-.82.44-1.3.61-2.42.93-3.51,1.01-.23.02-.45.02-.67.02-.31,0-.62-.01-.92-.02-.29-.01-.57-.02-.84-.02-.23,0-.46,0-.68.03-.22.02-.43.06-.64.09-.42.07-.84.14-1.3.14-.09,0-.17,0-.26,0Zm19.81-38.64c-2.74,0-6.92,2.97-9.66,5.51-4.68,4.51-8.58,4.93-11.72,5.27-1.63.18-3.04.33-4.09,1.11-1.48,1.09-2.8,3.15-3.54,4.72-.14.29-.25.6-.37.9-.26.67-.52,1.33-.94,1.94-.25.36-.55.64-.81.89-.34.32-.61.57-.7.89-.08.3,0,.57.16,1.05.09.28.19.56.25.86.12.6.11,1.2.1,1.78,0,.35-.01.66.01.96.06.83.29,1.92,1.03,2.4.17.11.37.2.58.29.58.26,1.29.58,1.68,1.34.31.61.26,1.23.22,1.73-.01.19-.03.35-.02.51.02.54.36,1.11.93,1.57.59.48,1.37.8,2.12,1.12l3.44,1.44c.34.14.71.3,1.05.39.21.06.4.09.57.1h.15c.3,0,.64-.05.99-.11.25-.04.51-.08.76-.11.29-.03.59-.04.88-.04.31,0,.62.01.92.02.29.01.56.02.84.02.18,0,.36,0,.54-.02.87-.06,1.77-.33,2.86-.84.24-.11.47-.24.7-.37.63-.36,1.36-.76,2.24-.85,1.51-.15,2.36-1.31,3.35-2.66.99-1.35,2.06-2.79,3.26-4.1,2.01-2.22,3.6-5.04,4.88-8.64,2.63-13.46,1.65-14.85.17-16.96-.2-.29-.42-.59-.63-.93-.37-.58-.82-.93-1.41-1.09-.24-.07-.5-.1-.79-.1Z"/>
    <path d="m83.47,60.22c.82,0,1.32.4,1.32.4,2.07,1.32.32,8.6.29,8.6,0,0,0,0,0,0h0s0,0,0,0c.12,1.35.06,3.09-.22,5.45-.41,3.44-.95,7.41-1.96,11.3-.2,1.17-.44,2.44-.71,3.85-1.35,3.83-3.04,6.81-5.17,9.16-1.15,1.27-2.2,2.67-3.17,3.99-1.08,1.48-2.2,3.01-4.32,3.22-.59.06-1.13.36-1.7.68-.26.15-.52.29-.79.42-1.24.58-2.3.89-3.34.97-.21.02-.43.02-.64.02-.3,0-.6-.01-.9-.02-.29-.01-.58-.02-.86-.02-.25,0-.49,0-.74.03-.23.02-.45.06-.67.1-.39.06-.8.13-1.22.13-.08,0-.15,0-.23,0-.27-.02-.55-.07-.85-.15-.43-.12-.85-.29-1.21-.45l-3.44-1.44c-.84-.35-1.7-.71-2.45-1.31-.87-.7-1.4-1.64-1.44-2.57,0-.22,0-.45.03-.68.03-.4.06-.74-.08-1.01-.17-.33-.56-.51-1.02-.71-.25-.11-.52-.23-.76-.39-1.22-.78-1.58-2.31-1.66-3.45-.03-.35-.02-.71-.02-1.08,0-.53.02-1.04-.07-1.49-.05-.24-.12-.46-.2-.68-.18-.53-.39-1.14-.19-1.86.19-.69.66-1.13,1.08-1.52.24-.22.46-.43.62-.67.33-.48.55-1.05.78-1.64.13-.34.26-.68.42-1.01.81-1.72,2.27-4,3.96-5.24,1.35-1,2.93-1.17,4.76-1.37,2.93-.32,6.58-.72,10.93-4.91.53-.5,1.47-1.32,2.62-2.21.04-.05.07-.09.11-.13,2.79-3.42,5.82-6.01,8.27-7.4.1-.3.23-.61.42-.95,1.72-3.24,3.35-3.93,4.43-3.93m-24.8,47.39c.35,0,.7-.06,1.07-.12.24-.04.48-.08.73-.1.28-.03.55-.04.82-.04.3,0,.6.01.9.02.3.01.58.02.86.02.19,0,.38,0,.57-.02.93-.07,1.89-.35,3.04-.89.25-.12.49-.25.74-.39.62-.35,1.27-.71,2.04-.79,1.74-.17,2.69-1.48,3.71-2.86.98-1.34,2.04-2.76,3.22-4.06,2.05-2.27,3.68-5.15,4.98-8.81,2.69-13.74,1.66-15.2.11-17.42-.2-.28-.41-.58-.62-.91-.44-.68-.99-1.11-1.69-1.31-.29-.08-.6-.12-.92-.12-2.87,0-7.06,2.92-10,5.64-4.56,4.39-8.37,4.81-11.44,5.14-1.7.19-3.17.35-4.33,1.2-1.56,1.15-2.93,3.29-3.69,4.91-.14.31-.27.63-.39.95-.24.62-.49,1.26-.88,1.82-.22.31-.48.57-.74.81-.38.36-.71.67-.84,1.12-.13.47,0,.86.17,1.35.09.26.18.52.23.8.11.55.1,1.12.09,1.68,0,.34-.01.68.01,1,.07.94.35,2.19,1.26,2.78.19.12.41.22.65.33.53.24,1.13.5,1.44,1.11.25.49.21,1.01.17,1.47-.02.19-.03.39-.02.58.03.68.44,1.38,1.12,1.93.65.52,1.46.86,2.24,1.19l3.44,1.44c.34.14.73.31,1.11.41.24.07.46.11.68.12.06,0,.12,0,.18,0m24.8-48.39v1s0-1,0-1c-1.34,0-3.34.77-5.31,4.46-.13.25-.25.49-.35.74-2.68,1.6-5.66,4.29-8.23,7.45l-.03.04c-1.19.92-2.13,1.77-2.6,2.2-4.12,3.97-7.44,4.33-10.36,4.65-1.89.21-3.67.4-5.24,1.56-1.84,1.35-3.41,3.79-4.27,5.62-.17.37-.32.74-.45,1.08-.22.57-.41,1.05-.67,1.44-.1.15-.29.32-.48.5-.46.43-1.1,1.03-1.36,1.98-.28,1.02,0,1.85.2,2.45.07.21.13.39.17.56.07.35.06.81.06,1.28,0,.36-.01.77.02,1.17.14,1.96.88,3.42,2.12,4.21.31.2.62.34.9.46.17.08.42.19.53.26,0,.11,0,.32-.02.46-.02.24-.04.52-.03.81.05,1.22.71,2.42,1.81,3.3.85.69,1.83,1.1,2.69,1.46l3.45,1.44c.4.17.84.35,1.33.49.37.1.72.16,1.06.18.1,0,.19,0,.29,0,.5,0,.96-.08,1.37-.14.23-.04.43-.07.63-.09.19-.02.39-.03.63-.03.27,0,.54.01.82.02.31.01.62.02.94.02.24,0,.47,0,.71-.02,1.16-.09,2.33-.42,3.69-1.06.31-.15.61-.32.86-.45.5-.28.92-.52,1.31-.55,2.57-.25,3.88-2.04,5.04-3.62.95-1.3,1.98-2.67,3.1-3.91,2.23-2.46,3.98-5.56,5.37-9.5l.02-.07v-.07c.28-1.36.52-2.65.72-3.83,1.01-3.92,1.56-7.96,1.97-11.39.27-2.28.35-4.03.24-5.47.28-1.1,1.82-7.83-.73-9.52-.2-.14-.89-.58-1.89-.58h0Zm-24.8,47.39s-.08,0-.11,0c-.14,0-.29-.04-.47-.09-.32-.09-.68-.24-.99-.37l-3.44-1.44c-.72-.3-1.46-.61-2-1.04-.45-.36-.73-.81-.74-1.2,0-.12,0-.27.02-.43.04-.56.1-1.29-.27-2.02-.47-.93-1.31-1.3-1.92-1.57-.2-.09-.39-.17-.51-.25-.6-.39-.76-1.43-.81-2.01-.02-.27-.02-.57-.01-.89,0-.6.02-1.25-.11-1.9-.07-.35-.18-.67-.27-.92-.15-.44-.2-.6-.15-.76.05-.17.24-.36.56-.66.28-.27.6-.57.88-.97.46-.66.74-1.39.99-2.03.12-.32.24-.61.36-.89.68-1.44,1.97-3.49,3.38-4.53.94-.7,2.23-.84,3.85-1.01,3.05-.33,7.22-.79,12.02-5.42,2.66-2.47,6.71-5.36,9.31-5.36.24,0,.46.03.65.08.46.13.82.41,1.12.88.22.35.44.66.65.95,1.41,2,2.34,3.32-.26,16.58-1.25,3.5-2.8,6.25-4.75,8.4-1.21,1.34-2.3,2.78-3.29,4.14-1.06,1.45-1.76,2.34-2.99,2.46-.99.09-1.76.53-2.44.91-.23.13-.45.25-.67.36-1.03.48-1.88.73-2.68.79-.17.01-.33.02-.5.02-.26,0-.53-.01-.81-.02-.32-.01-.64-.03-.95-.03-.34,0-.64.01-.93.04-.26.03-.52.07-.78.11-.35.06-.65.11-.91.11h0Z"/>
  </g>
  <path class="cls-5" d="m77.01,74.48s-.85-1.57-3.99,2.63c-3.15,4.21-6.95,4.27-8.95,5.04-2,.76-8.62,6.96-6.04,12.17,2.58,5.22,12.86,4.54,15.01-.7s9.32-14.1,3.98-19.14Z"/>
  <path class="cls-6" d="m117.38,88.81c.64,1.54.28,2.67-.29,3.43-.55.73-1.21,3.82-1.12,4.06.37.94-1.17,2.59-2.63,3.89-1.29,1.14-2.55,2.3-3.7,3.57-1.46,1.58-3.17,2.94-5.04,4.08,1.59-2,2.01-3.87,3.99-5.72.92-.86,1.76-1.57,2.02-2.5.16-.58.1-1.25-.31-2.11-1.19-2.49.21-7.48-1.26-10.18-.42-.76-1.06-1.33-2.04-1.62-2.02-.59-3.02-1.41-4.58-3.08-1.67-1.79-5.24-.6-6.69.24-1.82,1.05-6.01,4.67-6.38,5.48l-.18-.02c.1-.82.14-1.66.16-2.51.03-1.14,0-2.3.29-3.41.52-2.04,2.21-3.08,3.74-4.42.62-.55,1.24-1.08,1.95-1.5.26-.15.53-.28.81-.42.69-.34,1.38-.67,1.85-1.27.4-.51.64-1.21,1.24-1.46.51-.22,1.09-.02,1.63.09,1.38.26,2.64-.27,4.01-.03,1.26.21,2.45.87,3.23,1.89.26.34.5.73.86.96.61.36,1.38.2,2.08.13,2.07-.2,4.54,3.16,4.61,5.12.02.84.52,1.62,1.3,1.94.91.37-.25,3.71.46,5.39Z"/>
  <path class="cls-6" d="m110.29,97.5c.41.86.47,1.53.31,2.11-.26.94-1.1,1.64-2.02,2.5-1.98,1.85-2.41,3.72-3.99,5.72-1.08.66-2.21,1.26-3.37,1.8,0,0-.01.01-.02.01-3.92,1.64-8.19,2.92-11.17,3.69,1.67-1.87,3.01-1.72,5.04-3.5,1.54-1.35,2.49-2.56,1.72-4.37-1.11-2.59,1.34-7.92-2.73-8.62-1.82-.32-3.67.17-4.96-1.12-.92-.91-2.13-.12-3.69,1.49.08-.11.13-.18.13-.18.49-.63.95-1.28,1.37-1.97,1.31-2.15,1.97-4.38,2.24-6.75l.18.02c.37-.81,4.56-4.43,6.38-5.48,1.45-.83,5.02-2.03,6.69-.24,1.56,1.67,2.56,2.49,4.58,3.08.99.29,1.62.86,2.04,1.62,1.47,2.7.08,7.69,1.26,10.18Z"/>
  <path class="cls-6" d="m96.8,105.47c.77,1.81-.18,3.02-1.72,4.37-2.03,1.78-3.37,1.63-5.04,3.5-1.7.45-2.99.73-3.53.82-.82.14-2.62.58-4.66,1.01.04-.02,5.92-2.93,6.75-5.94.1-.36.13-.71.07-1.06-.13-.82-.39-1.58-.75-2.23-1.83-3.27-6.41-3.9-12.09,3.03,1.08-1.45,4.45-6.36,7.15-9.04.94-.93,1.73-1.82,2.41-2.67.02-.02.03-.04.04-.05,1.56-1.61,2.77-2.4,3.69-1.49,1.29,1.29,3.14.8,4.96,1.12,4.07.7,1.62,6.03,2.73,8.62Z"/>
  <path class="cls-6" d="m88.67,108.17c.06.35.03.7-.07,1.06-.84,3.01-6.71,5.92-6.75,5.94-3.75.79-8.34,1.53-9.33.26,0,0-2.4-2.5,2.97-6.06.04-.03.16-.17.32-.4,0,0,.01,0,.01-.01,5.68-6.93,10.26-6.3,12.09-3.03.37.65.62,1.41.75,2.23Z"/>
  <path class="cls-10" d="m65.62,89.46c-.93,1.82-2.46,2.9-3.4,2.41-.94-.49-.95-2.35-.02-4.17.93-1.82,2.46-2.9,3.4-2.41.94.49.95,2.35.02,4.17Z"/>
  <g>
    <path class="cls-11" d="m24.31,101.67c.39-.13.74-.21,1-.24l4.08,10.98s-2.96,1.64-4.49-.93c-.46-.77-1.09-1.16-1.78-1.36-.23-.07-.47-.12-.72-.15-.91-.12-1.83-.06-2.51-.2-.2-.05-.38-.11-.53-.2-.13-.08-.24-.17-.33-.3-.45-.67-.65-1.31-.66-1.93,0-.51.12-1,.34-1.47.14-.3.32-.59.53-.86.27-.35.59-.68.94-.99.28-.25.58-.49.9-.71.31-.22.62-.42.94-.6.42-.24.84-.45,1.25-.63.37-.16.73-.3,1.05-.4Z"/>
    <path class="cls-11" d="m35.18,103.27c.01.15-.01.29-.06.44-.05.16-.15.33-.27.49-.42.55-1.16,1.11-1.77,1.79-.16.18-.31.38-.44.58-.39.6-.62,1.31-.46,2.2.52,2.95-2.79,3.64-2.79,3.64l-4.08-10.98c.21-.15.53-.31.91-.47.31-.13.67-.26,1.06-.38.42-.13.88-.24,1.36-.33.36-.07.73-.13,1.11-.16.38-.04.76-.06,1.14-.05.46,0,.92.05,1.35.14.34.07.67.17.97.31.47.21.89.5,1.22.89.39.48.66,1.1.76,1.9Z"/>
    <path class="cls-1" d="m19.23,105c.27-.35.59-.68.94-.99-1-1.08-2.1-2.2-3.15-3.13-1.32-1.16-3.19-2.53-4.9-3.73-.62-.43-1.47-.13-1.69.59-.01.05-.03.1-.04.14-.14.49.07,1.01.51,1.27,1.75,1.02,3.64,2.17,5,3.15,1.1.79,2.28,1.76,3.35,2.69Z"/>
    <path class="cls-1" d="m21.07,103.31c.31-.22.62-.42.94-.6-.9-1.34-1.91-2.8-2.85-4.02-1.28-1.65-3.02-3.94-4.43-5.77-.44-.57-1.29-.57-1.74-.02-.12.15-.24.3-.35.45-.34.46-.27,1.11.17,1.49,1.75,1.53,3.89,3.46,5.31,4.97.97,1.03,2.01,2.3,2.95,3.49Z"/>
    <path class="cls-1" d="m22.01,102.71c.42-.24.84-.45,1.25-.63-.71-1.41-1.54-2.96-2.36-4.26-1.2-1.92-2.95-4.63-4.27-6.67-.36-.55-1.12-.68-1.62-.26-.11.09-.22.19-.33.28-.44.38-.5,1.04-.15,1.5,1.43,1.87,3.29,4.3,4.63,6.03.94,1.22,1.95,2.67,2.85,4.02Z"/>
    <path class="cls-1" d="m23.26,102.08c.37-.16.73-.3,1.05-.4-1.49-3.75-3.51-8.57-5-12.09-.25-.59-.96-.85-1.53-.55-.29.16-.58.32-.86.49-.53.32-.68,1.02-.35,1.54,1.32,2.05,3.1,4.81,4.32,6.75.82,1.31,1.65,2.85,2.36,4.26Z"/>
    <path class="cls-1" d="m20.17,104.01c.28-.25.58-.49.9-.71-.94-1.2-1.98-2.46-2.95-3.49-1.35-1.44-3.34-3.25-5.04-4.74-.54-.48-1.39-.31-1.72.34,0,.02-.02.03-.03.05-.25.49-.09,1.09.36,1.4,1.82,1.26,3.9,2.77,5.32,4.02,1.05.92,2.16,2.05,3.15,3.13Z"/>
    <path class="cls-1" d="m29.38,112.41s-2.96,1.64-4.49-.93c-.46-.77-1.09-1.16-1.78-1.36-.23-.07-.47-.12-.72-.15-.91-.12-1.83-.06-2.51-.2-.2-.05-.38-.11-.53-.2-1.25-.46-2.83-.95-4.53-1.27-.56-.11-1.17-.18-1.81-.22-1.04-.07-1.58,1.22-.81,1.93,2.07,1.93,4.87,1.08,6.33,1.35.92.17,1.43.17,1.85.37.07.03.13.06.19.1.38.24.73.7,1.32,1.66,1.33,2.16,1.94,3.8,3.22,1.99.35-.49.87-.8,1.45-1.01,2.7,2.1,4.11,1.43,4.11,1.43h0s1.51-.41,2.18-3.76c.57-.22,1.17-.33,1.75-.18,2.15.53,1.54-1.1,1.14-3.61-.18-1.11-.21-1.69-.08-2.12.03-.07.05-.14.08-.2.2-.43.58-.75,1.17-1.49.93-1.16,3.6-2.34,3.91-5.15.11-1.04-1.13-1.66-1.87-.93-.46.45-.87.9-1.22,1.35-1.07,1.35-1.95,2.75-2.6,3.92-.05.16-.15.33-.27.49-.42.55-1.16,1.11-1.77,1.79-.16.18-.31.38-.44.58-.39.6-.62,1.31-.46,2.2.52,2.95-2.79,3.64-2.79,3.64"/>
    <path class="cls-1" d="m18.7,105.87c.14-.3.32-.59.53-.87-1.07-.93-2.25-1.9-3.35-2.69-1.2-.86-2.8-1.86-4.36-2.78-.68-.4-1.56.03-1.66.81,0,0,0,.02,0,.03-.06.48.2.94.63,1.14,2.1.97,4.31,2.03,5.78,2.83.85.46,1.67.99,2.43,1.52Z"/>
    <path class="cls-1" d="m18.36,107.34c0-.51.12-1.01.34-1.47-.75-.53-1.57-1.06-2.43-1.52-1.28-.69-3.11-1.58-4.94-2.44-.75-.35-1.61.22-1.57,1.05.01.3.03.6.06.89.05.5.42.9.91.99,1.46.26,4.08.85,6.57,1.99.38.17.73.35,1.07.52Z"/>
    <path class="cls-1" d="m19.35,109.57c-1.25-.46-2.83-.95-4.53-1.27-.56-.11-1.17-.18-1.81-.22-.47-.03-.95-.05-1.44-.05-.45,0-.87-.28-1.02-.71h0c-.1-.3-.2-.61-.29-.93-.22-.79.44-1.53,1.24-1.4,0,0,0,0,0,0,.01,0,.03,0,.04,0,.03,0,.07.01.1.02.21.04.43.09.65.14.41.09.85.21,1.32.34.28.08.57.16.87.26.16.05.32.1.48.15.25.08.51.17.77.27.21.07.41.16.62.24.05.02.11.04.16.07.26.1.52.22.78.33.38.17.73.35,1.06.51.01.62.21,1.26.66,1.93.09.12.2.21.33.3Z"/>
    <path class="cls-1" d="m32.23,100.17c-.43-.09-.89-.13-1.36-.14.05-1.47.15-3.04.35-4.43.24-1.74.77-4.01,1.28-6.03.19-.73,1.03-1.06,1.67-.66.04.03.08.05.13.08.43.28.61.81.45,1.3-.66,1.91-1.34,4.02-1.73,5.65-.32,1.32-.58,2.82-.78,4.22Z"/>
    <path class="cls-1" d="m29.74,100.09c-.37.04-.74.09-1.1.16-.2-1.6-.38-3.37-.46-4.9-.11-2.09-.28-4.96-.41-7.26-.04-.72.6-1.28,1.31-1.15.19.03.38.07.56.11.56.12.92.67.84,1.23-.33,2.3-.69,5.16-.78,7.23-.06,1.42-.03,3.05.04,4.57Z"/>
    <path class="cls-1" d="m28.63,100.25c-.48.09-.93.21-1.36.34-.38-1.54-.76-3.24-.99-4.77-.34-2.24-.79-5.44-1.12-7.84-.09-.65.4-1.24,1.06-1.26.15,0,.29,0,.43,0,.58,0,1.06.46,1.09,1.04.14,2.35.32,5.4.43,7.59.08,1.53.27,3.3.46,4.9Z"/>
    <path class="cls-1" d="m25.14,87.88s0,.06.01.09c.03.23.07.46.1.7.1.71.2,1.48.32,2.25.02.17.05.34.07.52.05.35.1.7.15,1.05.05.33.1.65.14.97.06.37.11.73.16,1.09.03.2.05.4.08.59.04.23.07.46.1.68.23,1.52.61,3.23.99,4.77-.39.12-.74.25-1.06.38-.91-2.64-1.97-5.83-2.92-8.75-.15-.48-.3-.95-.45-1.41-.15-.46-.3-.91-.44-1.34-.11-.34-.21-.67-.32-.99-.14-.6.22-1.2.82-1.34.33-.08.65-.14.97-.19.61-.1,1.18.33,1.26.94Z"/>
    <path class="cls-1" d="m20.29,87.91c.13-.05.26-.1.39-.14.59-.2,1.23.11,1.42.7.1.32.21.65.32.99.14.43.29.88.44,1.34.15.46.3.93.45,1.41.95,2.92,2.01,6.11,2.92,8.75-.38.16-.7.32-.91.47"/>
    <path class="cls-1" d="m25.3,101.43c-.26.02-.6.11-1,.24-1.5-3.77-3.54-8.63-5.02-12.16-.24-.58.04-1.23.62-1.46.13-.05.26-.1.38-.15"/>
    <path class="cls-1" d="m30.88,100.03c-.38,0-.76.01-1.14.05-.07-1.52-.11-3.16-.04-4.57.09-1.97.41-4.64.73-6.88.1-.72.85-1.14,1.52-.86.02,0,.03.01.05.02.51.21.78.76.64,1.3-.55,2.14-1.14,4.64-1.41,6.52-.2,1.39-.3,2.96-.35,4.43Z"/>
    <path class="cls-1" d="m33.2,100.48c-.3-.13-.63-.24-.97-.31.2-1.41.46-2.9.78-4.22.35-1.44.91-3.24,1.49-4.95.25-.75,1.2-1,1.79-.47,0,0,.01.01.02.02.36.32.46.84.27,1.28-.95,2.11-1.94,4.35-2.53,5.91-.35.91-.62,1.84-.85,2.74Z"/>
    <path class="cls-1" d="m34.42,101.37c-.33-.39-.75-.68-1.22-.89.22-.9.5-1.83.85-2.74.52-1.36,1.32-3.23,2.15-5.07.34-.76,1.36-.88,1.88-.23.19.24.37.47.54.71.29.41.28.96-.04,1.34-.93,1.15-2.54,3.31-3.68,5.79-.18.38-.33.74-.47,1.09Z"/>
    <path class="cls-1" d="m40.31,96.26h0c.16.43.03.91-.31,1.21-.37.32-.73.65-1.06.98-.46.45-.87.9-1.22,1.35-1.07,1.35-1.95,2.75-2.6,3.92.05-.15.08-.29.06-.44-.1-.8-.37-1.42-.76-1.9.14-.34.3-.7.47-1.08.11-.24.22-.47.34-.69.02-.04.03-.07.05-.1.12-.24.25-.48.38-.71.13-.24.27-.48.4-.71.69-1.15,1.4-2.16,1.99-2.92.5-.66,1.52-.53,1.88.22.15.3.27.6.39.88Z"/>
    <path class="cls-10" d="m23.68,104.62c.31.38-.18,1.28-1.09,2-.91.72-1.89,1-2.19.62-.31-.38.18-1.28,1.09-2,.91-.72,1.89-1,2.19-.62Z"/>
  </g>
  <rect class="cls-8" x="-1242.44" y="-834.1" width="3385.57" height="2571.67"/>
</svg>