<?xml version="1.0" encoding="UTF-8"?>
<svg id="Calque_1" data-name="Calque 1" xmlns="http://www.w3.org/2000/svg" viewBox="0 0 128 128">
  <defs>
    <style>
      .cls-1 {
        fill: #fefdfd;
      }

      .cls-2 {
        fill: #e30614;
      }

      .cls-3 {
        fill: #101011;
      }

      .cls-4 {
        fill: none;
        stroke: #fff;
        stroke-linecap: round;
        stroke-linejoin: round;
        stroke-width: 8px;
      }
    </style>
  </defs>
  <g>
    <path class="cls-1" d="m66.16,77.36c2.41,0,4.82,0,7.23,0,1.17,0,1.14,0,1.13-1.22-.01-4.85,0-9.69-.01-14.54,0-.67.18-.88.89-.87,4.95.03,9.91,0,14.86.03.64,0,.84-.14.84-.82-.03-4.98-.03-9.95,0-14.93,0-.69-.17-.86-.86-.86-5.01.03-10.01,0-15.02.02-.55,0-.71-.15-.71-.7.02-5.03-.01-10.06.01-15.09,0-.66-.19-.84-.83-.84-4.98.02-9.96.02-14.94,0-.68,0-.88.17-.88.88.03,4.9.02,9.8.01,14.69,0,1.22.14,1.06-1.11,1.06-4.9,0-9.8.01-14.7-.01-.61,0-.79.16-.79.79.03,4.98.03,9.95,0,14.93,0,.68.16.89.86.88,4.9-.03,9.8-.01,14.71-.01q1.04,0,1.04,1.08c0,4.9,0,9.8-.02,14.69,0,.63.13.86.81.85,2.49-.04,4.98-.02,7.47-.02Zm-3.34,14c-.66-.67-1.31-.97-2.08-.96-1.57.02-2.74,1.04-3.09,2.71-.37,1.77.35,3.63,1.65,4.23.07.03.15.06.22.09,1.21.42,2.3.24,3.18-.71.21.12.18.26.18.38.07,1.1-.25,1.77-.96,2.04-.92.35-1.81.09-2.49-.69-.41-.46-1.05-.31-1.45-.15-.35.15.04.63.18.94.07.16.21.3.36.41,1.33.99,2.79.99,4.26.44,1.35-.51,1.68-1.69,1.68-3.01,0-1.91,0-3.82-.01-5.73,0-.29.21-.79-.36-.76-.48.02-1.24-.39-1.26.76Zm6.3,3.18h0c.71,0,1.41-.02,2.12,0,.36.01.5-.1.52-.48.17-2.5-2.27-4.32-4.61-3.42-1.82.7-2.69,3.07-1.88,5.13.52,1.33,1.6,2.03,3.13,2.04,1.44,0,2.56-.67,3.05-1.8.18-.43.16-.62-.37-.6-.5.02-.91.01-1.24.55-.43.71-1.21.75-1.97.56-.78-.2-1.13-.79-1.28-1.53-.08-.36.08-.46.42-.46.71.01,1.41,0,2.12,0Zm-48.72,3.27c2.18,0,3.55-1.44,3.55-3.71,0-2.24-1.42-3.7-3.58-3.7-2.15,0-3.54,1.47-3.53,3.73,0,2.28,1.38,3.69,3.57,3.68Zm26.21,0c2.17,0,3.56-1.45,3.56-3.71,0-2.22-1.45-3.71-3.59-3.7-2.17.01-3.55,1.47-3.53,3.73.01,2.29,1.37,3.69,3.57,3.68Zm8.84-1.06c-.15,1.14.55.81,1.01.87.61.08.51-.35.51-.71,0-1.91-.03-3.82.02-5.73.02-.69-.37-.6-.8-.61-.43,0-.82-.06-.79.62.05,1.2.03,2.41,0,3.61-.03,1.18-.66,1.83-1.71,1.81-.94-.01-1.34-.54-1.36-1.81-.01-1.23-.03-2.46,0-3.69.02-.67-.42-.53-.79-.53-.36,0-.81-.16-.79.52.04,1.44-.03,2.88.05,4.32.09,1.78,1.21,2.62,2.96,2.37.63-.09,1.09-.46,1.68-1.03Zm-46.52,1.06c1.7.03,2.89-.83,3.21-2.3.03-.16.17-.35-.04-.5-.36-.25-1.36.08-1.54.52-.28.68-.78,1.05-1.5,1.07-.75.02-1.31-.35-1.61-1.03-.43-.95-.41-1.94,0-2.89.3-.69.87-1.03,1.62-1.04.65-.01,1.17.22,1.49.82.21.38,1.21.73,1.51.45.4-.37,0-.77-.16-1.11-.14-.29-.4-.55-.67-.76-1.76-1.37-4.59-.56-5.36,1.52-1,2.67.49,5.21,3.07,5.25Zm18.17-7.08c.5.69,1,1.38,1.5,2.07.84,1.15.83,1.14,0,2.27-.59.81-1.17,1.62-1.79,2.5q1.74.12,2.61-1.17c.92-1.36,1-1.41,1.83.03.62,1.09,1.4,1.41,2.65,1.08-.71-1-1.37-1.99-2.11-2.93-.43-.54-.46-.92.01-1.46.65-.75,1.19-1.6,1.78-2.41-1.22-.36-2.04-.01-2.53,1.05-.04.09-.12.17-.18.26-.53.73-.59.77-1.03-.04-.6-1.11-1.36-1.74-2.73-1.25Zm81.71,3.65s0,0,0,0c0-.63.03-1.26,0-1.88-.07-1.22-.66-1.85-1.87-2.04-.74-.12-1.46-.08-2.16.21-.7.28-1.16.79-1.31,1.54-.04.21-.23.49.17.54.28.04.52.05.66-.34.43-1.22,2-1.7,3.09-1,.54.35.63.88.53,1.45-.09.53-.53.59-.95.64-.86.11-1.72.15-2.55.44-.94.33-1.41,1.02-1.35,1.96.06.96.66,1.69,1.62,1.85,1.07.18,2.1.12,2.89-.78.22-.25.4-.33.53.09.18.59.67.57,1.16.55.22,0,.35-.09.34-.32,0-.19,0-.37-.27-.39-.52-.04-.51-.42-.51-.8,0-.58,0-1.15,0-1.73Zm-20.97,2.07c.11,1.02.58,1.23,1.25,1.17.2-.02.36-.05.36-.3,0-.19.02-.39-.24-.41-.58-.04-.53-.47-.53-.87,0-1.2.01-2.41-.02-3.61-.03-.93-.47-1.6-1.4-1.87-.88-.26-1.76-.24-2.62.1-.71.28-1.16.79-1.32,1.54-.04.2-.23.5.17.55.27.03.53.09.66-.33.41-1.24,2.09-1.74,3.15-.97.48.35.57.86.48,1.41-.09.52-.52.59-.95.65-.83.11-1.67.15-2.48.41-1.03.34-1.52,1.06-1.42,2.07.09.99.74,1.65,1.78,1.8,1.19.17,2.25-.06,3.14-1.33Zm11.68,1.91c.09-.5.44-.52.78-.58,1.23-.21,1.9-1.02,2.24-2.15.05-.17.19-.45-.15-.49-.23-.03-.55-.15-.65.24-.03.1-.05.2-.09.3-.28.82-.85,1.33-1.71,1.42-.87.1-1.61-.22-2.1-.97-.7-1.09-.76-2.27-.3-3.46.36-.93,1.05-1.49,2.08-1.53.98-.04,1.67.39,1.98,1.34.14.44.48.39.76.29.35-.12.12-.4.05-.6-.35-1.02-1.09-1.57-2.14-1.72-1.26-.18-2.36.14-3.14,1.19-1.44,1.93-.82,5.5,1.64,6.08.29.07.46.19.22.46-.6.68-.24.73.4.65.34-.04.67.07.68.47.02.42-.31.59-.68.59-.28,0-.57-.06-.86-.1-.17-.02-.31.02-.35.22-.03.17.08.23.22.27.7.2,1.39.29,2.04-.16.36-.25.47-.61.41-1.03-.07-.44-.41-.58-.77-.67-.17-.04-.36-.04-.59-.06Zm22.2-4.02c.47,0,.94,0,1.41,0,1.46,0,1.53-.08,1.13-1.54-.03-.1-.06-.2-.1-.3-.46-1.33-1.39-2.04-2.72-2.1-1.35-.06-2.44.61-2.95,1.91-.53,1.35-.51,2.72.16,4.03.6,1.16,1.64,1.54,2.89,1.49,1.24-.05,2.15-.59,2.61-1.77.09-.23.39-.55-.02-.72-.34-.14-.59.03-.77.43-.48,1.1-1.41,1.55-2.55,1.31-.95-.2-1.7-1.18-1.78-2.24-.03-.39.09-.5.47-.49.73.02,1.46,0,2.2,0Zm-6.95,3.48c.79.02,1.51-.16,2.03-.5,1.24-.82,1.17-2.49-.13-3.22-.35-.2-.73-.26-1.11-.36-.63-.16-1.3-.21-1.88-.54-.79-.45-.81-1.36-.05-1.82,1.04-.63,2.42-.19,2.89.91.06.14.03.34.24.35.18.01.39.05.54-.03.19-.1.09-.33.06-.5-.24-1.32-1.85-2.04-3.51-1.59-1.06.29-1.62.92-1.64,1.84-.01.87.44,1.41,1.5,1.76.27.09.56.13.83.21.53.15,1.08.21,1.58.45.41.2.68.51.69.96.01.48-.24.83-.68,1.06-1.3.71-2.69.26-3.26-1.14-.16-.4-.43-.35-.68-.31-.37.06-.19.37-.15.57.27,1.21,1.21,1.85,2.72,1.89Zm-23.66-6.37c-.25-.34.05-.96-.65-.84-.64.1-.33.57-.34.85-.03,1.8-.02,3.61,0,5.42,0,.3-.24.78.44.75.68-.02.39-.51.4-.8.03-1.07.02-2.15.01-3.22,0-.53.11-1.04.39-1.5.47-.77,1.37-1.13,2.32-.94.77.16,1.15.64,1.26,1.67.04.31.04.63.04.94,0,1.12.01,2.25,0,3.37,0,.33.08.48.44.47.29,0,.42-.08.42-.4-.02-1.57.03-3.14-.04-4.71-.06-1.27-.73-1.89-1.95-2.08-1.07-.16-1.95.16-2.72,1.01Zm-76.73.17c-.05-.2-.09-.28-.08-.34.14-.83-.44-.67-.93-.72-.64-.06-.58.33-.58.73,0,1.91.03,3.82-.02,5.73-.02.72.4.58.8.58.4,0,.82.16.8-.57-.03-1.15-.13-2.31.07-3.45.2-1.13.88-1.76,1.99-1.69.73.05.5-.4.53-.74.03-.4.07-.81-.55-.77-.85.05-1.47.48-2.04,1.24Zm26.09.02c-.05-.23-.08-.31-.07-.38.12-.75-.37-.66-.86-.7-.6-.04-.61.27-.61.72.01,1.91.04,3.82-.01,5.73-.02.68.35.63.78.6.37-.03.85.2.82-.55-.04-1.15-.12-2.31.05-3.45.17-1.14.87-1.78,1.96-1.71.73.05.51-.4.53-.74.03-.4.08-.81-.55-.77-.84.06-1.46.49-2.04,1.25Zm36.01,2.82c0,.86,0,1.73,0,2.59,0,.29-.06.57.4.58.49.01.47-.25.47-.59,0-1.62.03-3.25-.02-4.87-.02-.66.13-.98.85-.86.24.04.55.08.54-.35,0-.43-.31-.31-.55-.35-.27-.04-.61.16-.79-.16-.42-.73.18-1.78,1.02-1.81.25,0,.55.09.53-.35-.01-.39-.3-.37-.55-.4-1.24-.12-1.86.53-1.89,2.01,0,.41.03.8-.59.72-.25-.03-.62-.13-.62.35,0,.49.38.36.63.33.53-.06.6.2.59.64-.03.84,0,1.67,0,2.51Zm-50.33-.35c0-.99-.04-1.99.01-2.97.04-.66-.36-.58-.75-.56-.38.02-.86-.19-.85.55.03,1.98.04,3.97,0,5.95-.01.74.47.52.84.54.36.01.79.15.76-.52-.05-.99-.01-1.98-.01-2.97Zm54.21-2.18c-.29-.2-.12-.48-.15-.72-.04-.27.1-.6-.37-.61-.46-.01-.4.29-.4.58,0,1.96,0,3.92,0,5.88,0,.3-.04.56.42.56.46,0,.41-.27.41-.57,0-1.02-.02-2.04,0-3.06.04-1.49.75-2.36,2.19-2.62.38-.07.48-.19.46-.54-.04-.5-.37-.33-.63-.3-.87.12-1.47.63-1.91,1.38Zm-44.43,1.25c-.5,0-1,.04-1.49-.01-.66-.07-.56.35-.56.74,0,.38-.11.8.56.76.94-.05,1.89-.04,2.83,0,.5.02.59-.17.61-.63.04-.67-.11-.98-.85-.87-.36.06-.73,0-1.1.01Zm75.18.89h0c0-.97,0-1.93,0-2.9,0-.31.01-.56-.43-.56-.42,0-.45.22-.44.55,0,1.99,0,3.97,0,5.96,0,.27-.02.51.38.52.39,0,.49-.14.48-.5-.02-1.02,0-2.04,0-3.06Zm-84.98-5.41c.16-.65-.15-.8-.75-.79-.56,0-.85.08-.83.76.02.62.19.8.81.78.56-.02.94-.07.77-.76Zm84.12-.07c.02.34-.13.72.46.7.6-.03.38-.44.4-.73.03-.33.1-.7-.46-.68-.6.02-.34.46-.4.71Z"/>
    <path class="cls-2" d="m66.16,77.35c-2.49,0-4.98-.03-7.47.02-.68.01-.81-.22-.81-.85.02-4.9.02-9.8.02-14.69q0-1.08-1.04-1.08c-4.9,0-9.8-.02-14.71.01-.7,0-.86-.2-.86-.88.03-4.98.03-9.95,0-14.93,0-.63.18-.79.79-.79,4.9.02,9.8.02,14.7.01,1.24,0,1.11.16,1.11-1.06,0-4.9.02-9.8-.01-14.69,0-.71.2-.88.88-.88,4.98.03,9.96.02,14.94,0,.65,0,.84.18.83.84-.02,5.03,0,10.06-.01,15.09,0,.56.16.71.71.7,5.01-.02,10.01,0,15.02-.02.69,0,.86.17.86.86-.03,4.98-.03,9.95,0,14.93,0,.67-.2.82-.84.82-4.95-.02-9.91,0-14.86-.03-.71,0-.9.21-.89.87.02,4.85,0,9.69.01,14.54,0,1.22.04,1.22-1.13,1.22-2.41,0-4.82,0-7.23,0Z"/>
    <path class="cls-3" d="m62.81,91.36c.03-1.15.78-.74,1.26-.76.58-.03.36.47.36.76.02,1.91.01,3.82.01,5.73,0,1.31-.33,2.5-1.68,3.01-1.46.55-2.93.55-4.26-.44-.14-.11-.29-.25-.36-.41-.14-.31-.53-.8-.18-.94.4-.17,1.04-.31,1.45.15.68.77,1.57,1.04,2.49.69.71-.27,1.03-.95.96-2.04,0-.12.02-.26-.18-.38-.87.96-1.96,1.13-3.18.71-.07-.03-.15-.05-.22-.09-1.3-.6-2.02-2.45-1.65-4.23.35-1.67,1.52-2.7,3.09-2.71.77,0,1.42.29,2.08.96Zm-1.91,5.02c.62.03,1.16-.18,1.48-.71.61-1.01.66-2.08.13-3.14-.31-.62-.87-.88-1.55-.88-1.1,0-1.82.95-1.83,2.38-.01,1.38.69,2.31,1.77,2.35Z"/>
    <path class="cls-3" d="m69.11,94.53c-.71,0-1.41.01-2.12,0-.34,0-.49.1-.42.46.16.74.5,1.32,1.28,1.53.76.2,1.53.15,1.97-.56.33-.54.74-.54,1.24-.55.53-.02.56.17.37.6-.49,1.13-1.61,1.81-3.05,1.8-1.53,0-2.61-.72-3.13-2.04-.81-2.06.06-4.42,1.88-5.13,2.34-.9,4.78.92,4.61,3.42-.03.38-.16.49-.52.48-.71-.02-1.41,0-2.12,0h0Zm-.78-1.05c.44,0,.89-.01,1.33,0,.4.02.51-.12.38-.51-.25-.73-.71-1.21-1.49-1.32-.73-.1-1.46.33-1.8,1.01-.33.67-.25.81.48.82.37,0,.73,0,1.1,0Z"/>
    <path class="cls-3" d="m20.39,97.8c-2.2,0-3.57-1.4-3.57-3.68,0-2.26,1.39-3.73,3.53-3.73,2.16,0,3.58,1.46,3.58,3.7,0,2.27-1.36,3.7-3.55,3.71Zm-1.99-3.47c0,.08.02.34.08.6.24,1,.94,1.63,1.83,1.66.9.03,1.6-.53,1.91-1.54.21-.7.19-1.39-.07-2.08-.31-.82-.97-1.31-1.76-1.32-.81-.01-1.45.45-1.79,1.28-.16.39-.21.81-.2,1.41Z"/>
    <path class="cls-3" d="m46.6,97.8c-2.2,0-3.56-1.4-3.57-3.68-.01-2.26,1.37-3.72,3.53-3.73,2.14-.01,3.59,1.48,3.59,3.7,0,2.26-1.38,3.7-3.56,3.71Zm1.99-3.86c-.05-.23-.09-.6-.2-.94-.28-.85-.99-1.37-1.81-1.36-.81,0-1.45.48-1.77,1.31-.33.85-.29,1.69.09,2.52.32.71.89,1.09,1.67,1.1.75.02,1.3-.34,1.66-.99.26-.47.35-.98.37-1.64Z"/>
    <path class="cls-3" d="m55.43,96.75c-.6.57-1.05.94-1.68,1.03-1.76.25-2.87-.59-2.96-2.37-.08-1.44,0-2.88-.05-4.32-.02-.68.43-.52.79-.52.36,0,.81-.15.79.53-.04,1.23-.02,2.46,0,3.69.02,1.27.42,1.8,1.36,1.81,1.05.02,1.69-.62,1.71-1.81.03-1.2.05-2.41,0-3.61-.03-.68.35-.62.79-.62.42,0,.81-.08.8.61-.04,1.91-.02,3.82-.02,5.73,0,.35.11.79-.51.71-.46-.06-1.16.28-1.01-.87Z"/>
    <path class="cls-3" d="m8.91,97.81c-2.59-.04-4.07-2.58-3.07-5.25.78-2.08,3.61-2.89,5.36-1.52.26.2.52.46.67.76.17.34.56.74.16,1.11-.3.28-1.3-.07-1.51-.45-.32-.6-.85-.83-1.49-.82-.75.01-1.32.35-1.62,1.04-.41.96-.42,1.94,0,2.89.3.68.86,1.06,1.61,1.03.72-.02,1.22-.39,1.5-1.07.18-.44,1.18-.77,1.54-.52.21.15.08.33.04.5-.31,1.48-1.51,2.33-3.21,2.3Z"/>
    <path class="cls-3" d="m27.09,90.73c1.37-.49,2.13.14,2.73,1.25.44.81.5.78,1.03.04.06-.08.14-.16.18-.26.49-1.06,1.31-1.41,2.53-1.05-.59.81-1.13,1.66-1.78,2.41-.47.55-.44.92-.01,1.46.74.94,1.4,1.93,2.11,2.93-1.25.33-2.02,0-2.65-1.08-.82-1.44-.91-1.39-1.83-.03q-.87,1.29-2.61,1.17c.63-.88,1.2-1.69,1.79-2.5.83-1.13.83-1.12,0-2.27-.5-.69-1-1.38-1.5-2.07Z"/>
    <path class="cls-3" d="m108.8,94.38c0,.58,0,1.15,0,1.73,0,.38-.01.76.51.8.26.02.27.19.27.39,0,.24-.12.32-.34.32-.48.01-.98.03-1.16-.55-.13-.43-.31-.35-.53-.09-.79.91-1.82.96-2.89.78-.96-.16-1.56-.88-1.62-1.85-.06-.94.41-1.63,1.35-1.96.82-.29,1.69-.33,2.55-.44.43-.06.87-.11.95-.64.09-.57,0-1.1-.53-1.45-1.09-.71-2.66-.22-3.09,1-.14.4-.38.38-.66.34-.4-.06-.21-.34-.17-.54.15-.75.61-1.26,1.31-1.54.7-.28,1.42-.32,2.16-.21,1.21.19,1.8.82,1.87,2.04.04.63,0,1.25,0,1.88,0,0,0,0,0,0Zm-.93-.39c-.92.16-1.8.29-2.66.48-.95.21-1.35.7-1.27,1.42.09.74.77,1.23,1.67,1.21,1.62-.05,2.41-1.11,2.25-3.11Z"/>
    <path class="cls-3" d="m87.83,96.45c-.89,1.27-1.95,1.5-3.14,1.33-1.04-.15-1.68-.81-1.78-1.8-.1-1.01.39-1.73,1.42-2.07.8-.27,1.65-.31,2.48-.41.43-.05.86-.12.95-.65.09-.54,0-1.05-.48-1.41-1.06-.77-2.74-.27-3.15.97-.14.42-.4.36-.66.33-.4-.05-.21-.35-.17-.55.15-.75.61-1.26,1.32-1.54.86-.34,1.74-.35,2.62-.1.92.27,1.37.94,1.4,1.87.03,1.2.02,2.41.02,3.61,0,.39-.05.82.53.87.27.02.24.22.24.41,0,.25-.16.28-.36.3-.67.06-1.14-.15-1.25-1.17Zm-.09-2.51c-1.04.36-2.12.27-3.1.67-.94.39-1.13,1.43-.4,2.08.35.32.78.41,1.24.4,1.61-.04,2.4-1.1,2.26-3.16Z"/>
    <path class="cls-3" d="m99.52,98.35c.23.02.41.02.59.06.37.09.7.23.77.67.06.42-.04.78-.41,1.03-.65.45-1.34.35-2.04.16-.13-.04-.25-.1-.22-.27.04-.2.18-.24.35-.22.29.03.57.1.86.1.37,0,.7-.17.68-.59-.01-.4-.34-.51-.68-.47-.64.08-1,.03-.4-.65.24-.27.06-.39-.22-.46-2.46-.59-3.08-4.15-1.64-6.08.78-1.05,1.87-1.37,3.14-1.19,1.05.15,1.79.7,2.14,1.72.07.19.29.48-.05.6-.28.09-.62.15-.76-.29-.31-.95-.99-1.37-1.98-1.34-1.04.04-1.72.59-2.08,1.53-.47,1.19-.41,2.37.3,3.46.48.75,1.22,1.07,2.1.97.86-.1,1.43-.6,1.71-1.42.03-.1.06-.2.09-.3.1-.39.42-.27.65-.24.34.04.2.32.15.49-.33,1.14-1,1.95-2.24,2.15-.35.06-.69.08-.78.58Z"/>
    <path class="cls-3" d="m121.71,94.33c-.73,0-1.47.02-2.2,0-.38-.01-.5.1-.47.49.08,1.06.83,2.04,1.78,2.24,1.13.24,2.07-.2,2.55-1.31.17-.4.43-.57.77-.43.4.16.1.49.02.72-.46,1.19-1.37,1.72-2.61,1.77-1.25.05-2.29-.33-2.89-1.49-.67-1.3-.69-2.67-.16-4.03.51-1.3,1.6-1.97,2.95-1.91,1.34.06,2.26.77,2.72,2.1.03.1.07.2.1.3.39,1.46.33,1.55-1.13,1.54-.47,0-.94,0-1.41,0Zm-.47-.72c.6,0,1.2-.02,1.8,0,.46.02.52-.19.44-.57-.19-1.03-1.02-1.83-2-1.9-1.05-.07-1.92.6-2.3,1.74-.16.49-.16.8.5.74.52-.05,1.04,0,1.56,0Z"/>
    <path class="cls-3" d="m114.77,97.82c-1.51-.04-2.45-.68-2.72-1.89-.05-.2-.23-.5.15-.57.25-.04.52-.09.68.31.57,1.4,1.96,1.85,3.26,1.14.43-.24.69-.58.68-1.06-.01-.45-.28-.76-.69-.96-.5-.24-1.05-.3-1.58-.45-.28-.08-.56-.12-.83-.21-1.06-.35-1.52-.89-1.5-1.76.01-.92.58-1.55,1.64-1.84,1.66-.45,3.27.27,3.51,1.59.03.17.13.4-.06.5-.14.08-.36.04-.54.03-.21-.02-.18-.22-.24-.35-.47-1.1-1.85-1.53-2.89-.91-.76.46-.74,1.37.05,1.82.58.33,1.25.38,1.88.54.38.1.76.17,1.11.36,1.3.72,1.38,2.39.13,3.22-.52.34-1.23.52-2.03.5Z"/>
    <path class="cls-3" d="m91.11,91.45c.77-.85,1.65-1.18,2.72-1.01,1.22.19,1.89.81,1.95,2.08.08,1.57.03,3.14.04,4.71,0,.32-.13.39-.42.4-.35,0-.44-.13-.44-.47.02-1.12.01-2.25,0-3.37,0-.31,0-.63-.04-.94-.12-1.02-.49-1.51-1.26-1.67-.94-.19-1.85.17-2.32.94-.28.46-.39.96-.39,1.5,0,1.07.02,2.15-.01,3.22,0,.29.28.77-.4.8-.67.02-.43-.46-.44-.75-.02-1.81-.02-3.61,0-5.42,0-.28-.31-.75.34-.85.7-.11.4.51.65.84Z"/>
    <path class="cls-3" d="m14.38,91.62c.57-.76,1.19-1.18,2.04-1.24.63-.04.58.37.55.77-.03.34.2.79-.53.74-1.11-.07-1.79.56-1.99,1.69-.2,1.14-.1,2.3-.07,3.45.02.73-.41.57-.8.57-.4,0-.82.14-.8-.58.05-1.91.02-3.82.02-5.73,0-.4-.07-.8.58-.73.49.05,1.07-.12.93.72-.01.06.03.14.08.34Z"/>
    <path class="cls-3" d="m40.47,91.64c.58-.77,1.2-1.2,2.04-1.25.63-.04.58.37.55.77-.02.34.19.79-.53.74-1.1-.07-1.79.57-1.96,1.71-.17,1.14-.09,2.3-.05,3.45.03.75-.45.52-.82.55-.43.03-.8.08-.78-.6.05-1.91.03-3.82.01-5.73,0-.44,0-.76.61-.72.49.03.99-.05.86.7-.01.07.03.14.07.38Z"/>
    <path class="cls-3" d="m76.47,94.46c0-.84-.02-1.68,0-2.51.02-.44-.06-.7-.59-.64-.24.03-.63.16-.63-.33,0-.48.37-.38.62-.35.62.08.58-.3.59-.72.03-1.48.66-2.13,1.89-2.01.25.02.54,0,.55.4.02.44-.28.34-.53.35-.84.03-1.44,1.08-1.02,1.81.18.32.52.11.79.16.24.04.55-.08.55.35,0,.42-.3.39-.54.35-.72-.12-.87.2-.85.86.05,1.62.01,3.24.02,4.87,0,.34.02.61-.47.59-.46-.01-.41-.29-.4-.58,0-.86,0-1.73,0-2.59Z"/>
    <path class="cls-3" d="m26.14,94.11c0,.99-.04,1.99.01,2.97.04.68-.4.54-.76.52-.37-.01-.85.21-.84-.54.04-1.98.03-3.97,0-5.95-.01-.73.47-.53.85-.55.39-.02.78-.1.75.56-.06.99-.01,1.98-.01,2.97Z"/>
    <path class="cls-3" d="m80.35,91.93c.44-.75,1.05-1.26,1.91-1.38.26-.04.6-.2.63.3.03.35-.08.47-.46.54-1.44.26-2.15,1.13-2.19,2.62-.03,1.02-.01,2.04,0,3.06,0,.3.05.56-.41.57-.46,0-.42-.27-.42-.56,0-1.96,0-3.92,0-5.88,0-.29-.06-.59.4-.58.47.01.34.34.37.61.03.23-.14.51.15.72Z"/>
    <path class="cls-3" d="m35.93,93.18c.37,0,.74.05,1.1,0,.73-.12.89.2.85.87-.03.46-.11.65-.61.63-.94-.04-1.89-.05-2.83,0-.66.04-.55-.38-.56-.76,0-.39-.1-.81.56-.74.49.05.99.01,1.49.01Z"/>
    <path class="cls-3" d="m111.11,94.06c0,1.02-.01,2.04,0,3.06,0,.36-.1.51-.48.5-.4,0-.39-.24-.38-.52,0-1.99,0-3.97,0-5.96,0-.33.02-.54.44-.55.44,0,.43.25.43.56,0,.97,0,1.93,0,2.9h0Z"/>
    <path class="cls-3" d="m26.13,88.65c.17.69-.21.74-.77.76-.62.02-.79-.16-.81-.78-.02-.68.26-.75.83-.76.6-.01.91.13.75.79Z"/>
    <path class="cls-3" d="m110.25,88.59c.07-.25-.19-.69.4-.71.56-.02.49.35.46.68-.03.28.2.7-.4.73-.59.02-.44-.36-.46-.7Z"/>
    <path class="cls-1" d="m60.91,96.38c-1.08-.04-1.78-.97-1.77-2.35.01-1.43.74-2.39,1.83-2.38.67,0,1.24.26,1.55.88.52,1.06.47,2.13-.13,3.14-.32.53-.86.74-1.48.71Z"/>
    <path class="cls-1" d="m68.34,93.48c-.37,0-.73,0-1.1,0-.72,0-.81-.15-.48-.82.34-.68,1.07-1.1,1.8-1.01.78.1,1.24.59,1.49,1.32.13.39.02.53-.38.51-.44-.02-.89,0-1.33,0Z"/>
    <path class="cls-1" d="m18.4,94.33c-.01-.6.04-1.01.2-1.41.34-.83.99-1.29,1.79-1.28.8.01,1.46.5,1.76,1.32.25.68.28,1.38.07,2.08-.31,1.01-1.01,1.57-1.91,1.54-.89-.03-1.59-.65-1.83-1.66-.06-.25-.07-.52-.08-.6Z"/>
    <path class="cls-1" d="m48.59,93.95c-.03.66-.11,1.18-.37,1.64-.36.64-.91,1-1.66.99-.78-.02-1.35-.4-1.67-1.1-.37-.82-.41-1.67-.09-2.52.32-.83.96-1.31,1.77-1.31.82,0,1.53.51,1.81,1.36.11.34.16.71.2.94Z"/>
    <path class="cls-1" d="m107.87,93.98c.15,2-.64,3.06-2.25,3.11-.9.03-1.58-.47-1.67-1.21-.09-.71.32-1.2,1.27-1.42.86-.2,1.74-.32,2.66-.48Z"/>
    <path class="cls-1" d="m87.74,93.94c.14,2.06-.65,3.11-2.26,3.16-.46.01-.88-.08-1.24-.4-.73-.66-.54-1.7.4-2.08.98-.4,2.06-.31,3.1-.67Z"/>
    <path class="cls-1" d="m121.24,93.62c-.52,0-1.05-.04-1.56,0-.67.06-.67-.25-.5-.74.38-1.14,1.25-1.81,2.3-1.74.98.07,1.81.86,2,1.9.07.39.02.59-.44.57-.6-.03-1.2,0-1.8,0Z"/>
  </g>
  <rect class="cls-4" x="-544.88" y="-260.19" width="1951.05" height="522.43"/>
</svg>