<?xml version="1.0" encoding="UTF-8"?>
<svg id="Calque_1" data-name="Calque 1" xmlns="http://www.w3.org/2000/svg" viewBox="0 0 128 128.13">
  <defs>
    <style>
      .cls-1 {
        fill: #ffd4ad;
      }

      .cls-2 {
        stroke: #000;
        stroke-width: 2px;
      }

      .cls-2, .cls-3 {
        fill: none;
        stroke-linecap: round;
        stroke-linejoin: round;
      }

      .cls-3 {
        stroke: #fff;
        stroke-width: 8px;
      }
    </style>
  </defs>
  <g id="jkvMcz">
    <path class="cls-2" d="m86.63,50.8c3.38,4.75,5.64,10.74,3.74,17.69-.83,3.02-3.06,5.19-5.09,7.42-1.19,1.3-1.81,2.67-1.68,4.47.38,5.5.71,11.01.96,16.51.23,4.89.2,9.78-.43,14.65-.12.9-.33,1.8-.61,2.66-.58,1.79-1.37,2.36-3.06,2.35-1.71-.01-2.47-.58-3.06-2.36-.48-1.43-.63-2.91-.74-4.4-.62-8.65.4-17.23,1.09-25.82.11-1.41.18-2.81.33-4.22.15-1.44-.4-2.56-1.3-3.62-1.23-1.45-2.47-2.91-3.56-4.47-2.7-3.88-2.73-8.15-1.56-12.53.92-3.44,2.27-6.68,4.86-9.25,3.03-3,6.37-2.93,10.1.91Z"/>
  </g>
  <g id="jkvMcz-2" data-name="jkvMcz">
    <path class="cls-2" d="m51.83,14.6c3.38,4.75,5.64,10.74,3.74,17.69-.83,3.02-3.06,5.19-5.09,7.42-1.19,1.3-1.81,2.67-1.68,4.47.38,5.5.71,47.21.96,52.72.23,4.89.2,9.78-.43,14.65-.12.9-.33,1.8-.61,2.66-.58,1.79-1.37,2.36-3.06,2.35-1.71-.01-2.47-.58-3.06-2.36-.48-1.43-.63-2.91-.74-4.4-.62-8.65.4-53.43,1.09-62.03.11-1.41.18-2.81.33-4.22.15-1.44-.4-2.56-1.3-3.62-1.23-1.45-2.47-2.91-3.56-4.47-2.7-3.88-2.73-8.15-1.56-12.53.92-3.44,2.27-6.68,4.86-9.25,3.03-3,6.37-2.93,10.1.91Z"/>
  </g>
  <ellipse class="cls-1" cx="46.2" cy="27.05" rx="5.61" ry="9.38"/>
  <ellipse class="cls-1" cx="81" cy="63.25" rx="5.61" ry="9.38"/>
  <rect class="cls-3" x="-3176.96" y="-2118.09" width="6467.34" height="6437.3"/>
</svg>