<?xml version="1.0" encoding="UTF-8"?>
<svg id="Calque_1" data-name="Calque 1" xmlns="http://www.w3.org/2000/svg" viewBox="0 0 128 128">
  <defs>
    <style>
      .cls-1 {
        fill: #d6d6d6;
        stroke: #000;
        stroke-width: 2px;
      }

      .cls-1, .cls-2 {
        stroke-linecap: round;
        stroke-linejoin: round;
      }

      .cls-2 {
        fill: none;
        stroke: #fff;
        stroke-width: 8px;
      }
    </style>
  </defs>
  <g id="jkvMcz">
    <path class="cls-1" d="m73.6,10.55c5.76,8.09,9.62,18.3,6.38,30.15-1.41,5.15-5.21,8.84-8.68,12.64-2.03,2.22-3.08,4.54-2.87,7.62.65,9.37,1.2,18.76,1.64,28.14.39,8.33.34,16.68-.74,24.97-.2,1.53-.57,3.06-1.05,4.53-.99,3.06-2.33,4.02-5.21,4.01-2.92-.02-4.2-1-5.21-4.01-.81-2.43-1.07-4.96-1.25-7.51-1.05-14.74.68-29.36,1.86-44.01.19-2.39.3-4.8.56-7.18.26-2.45-.69-4.36-2.22-6.17-2.1-2.48-4.21-4.96-6.06-7.62-4.6-6.62-4.66-13.89-2.66-21.35,1.57-5.86,3.87-11.39,8.29-15.76,5.16-5.11,10.85-5,17.22,1.55Z"/>
  </g>
  <rect class="cls-2" x="-4431.8" y="-406.09" width="6562.35" height="1176.7"/>
</svg>