<?xml version="1.0" encoding="UTF-8"?>
<svg id="Calque_1" data-name="Calque 1" xmlns="http://www.w3.org/2000/svg" viewBox="0 0 128 128">
  <defs>
    <style>
      .cls-1, .cls-2, .cls-3 {
        stroke: #000;
      }

      .cls-1, .cls-2, .cls-3, .cls-4 {
        stroke-linecap: round;
      }

      .cls-1, .cls-2, .cls-4 {
        fill: none;
      }

      .cls-1, .cls-4 {
        stroke-linejoin: round;
      }

      .cls-5 {
        fill: #f19dbc;
      }

      .cls-6 {
        fill: #ee7d99;
      }

      .cls-2, .cls-3 {
        stroke-miterlimit: 10;
      }

      .cls-3 {
        fill: #b2f0e9;
      }

      .cls-4 {
        stroke: #fff;
        stroke-width: 8px;
      }
    </style>
  </defs>
  <path class="cls-1" d="m10.21,40.45h.07c.08.03.17.05.27.07l.17.03c.1.02.21.04.32.06l.23.05c.12.02.26.05.4.08.09.02.18.04.28.05.15.03.32.06.49.1.1.02.19.04.3.06.19.04.39.07.59.11.11.02.22.04.34.07.31.06.63.12.98.18.16.03.33.06.5.09.2.04.4.07.61.11.2.04.42.07.63.11.19.03.39.07.59.1.22.04.46.08.69.12.2.04.41.07.62.11.25.04.51.09.77.13.2.03.41.07.62.11.27.05.55.09.84.14.21.03.42.07.63.1.3.05.61.1.92.15.2.03.4.06.6.1.34.05.68.11,1.03.16.14.02.28.04.42.06.82.13,1.67.26,2.54.39.12.02.23.03.35.05.38.06.77.11,1.16.17.22.03.44.06.67.1.38.05.76.11,1.15.16.25.03.49.07.74.1.39.05.78.1,1.17.16.25.03.51.07.76.1.4.05.8.1,1.2.15.27.03.53.07.8.1.4.05.81.1,1.22.15.27.03.54.06.81.1.43.05.85.1,1.29.15.22.03.45.05.68.08,1.59.18,3.21.35,4.86.5.25.02.5.05.75.07.44.04.88.08,1.32.12.3.03.61.05.91.08.42.03.85.07,1.28.1.33.03.65.05.98.08.42.03.85.06,1.27.09.33.02.66.05.99.07.43.03.85.06,1.28.08.34.02.67.04,1.01.06.42.03.85.05,1.28.07,3.14.16,6.29.26,9.42.27,26.05-.11,54.11-6.08,54.11-6.08.19-1.2-.06-2.48-1.15-2.59-1.61-.16-1.9,1.87-1.9,1.87,0,0-.26-1.88-1.67-1.75-1.82.17-1.7,1.84-1.7,1.84,0,0-.4-1.79-2.22-1.45-2.1.38-1.78,2.62-1.78,2.62,0,0-.5-1.94-2.22-1.69-1.79.26-1.87,1.83-1.87,1.83,0,0-.38-1.79-2.1-1.59-2,.24-2.09,2.12-2.09,2.12,0,0-.47-2.14-2.71-1.84-1.99.27-1.81,2.32-1.81,2.32,0,0-1.02-2.23-2.8-1.95-1.71.27-1.92,2.4-1.92,2.4,0,0-.98-2.23-3.42-1.99-2.38.24-2.73,2.55-2.73,2.55,0,0-.81-2.04-3.01-2-2.4.05-2.6,2.38-2.6,2.38,0,0-.71-2.32-3.41-2.16-1.87.11-2.84,2.25-2.84,2.25,0,0-.61-2.08-2.64-2.06-2.02.02-2.68,2.09-2.68,2.09,0,0-.71-1.89-2.84-1.93-2.17-.04-2.89,1.93-2.89,1.93,0,0-.05-2.07-2.41-2.13-2.44-.07-2.91,2.1-2.91,2.1,0,0-.44-2.06-2.95-2.17-2.71-.12-3.3,2.08-3.3,2.08,0,0-.71-2.34-2.65-2.46-2.17-.14-2.97,2.08-2.97,2.08,0,0-.22-2.72-2.65-2.81-2.54-.1-3.5,2.24-3.5,2.24,0,0-.67-2.11-2.43-2.23-1.63-.11-2.29,1.79-2.29,1.79,0,0-.53-1.83-2.36-2.07-1.78-.24-2.17,1.59-2.17,1.59,0,0-.43-1.97-2.09-2.12-1.86-.17-2.1,1.59-2.1,1.59,0,0-.27-1.88-1.79-2.12-1.73-.28-2.18,1.36-2.18,1.36,0,0-.31-2.06-1.93-2.19-1.77-.14-2.21,2.15-2.21,2.15,0,0,.22-2.29-1.67-2.35-1.72-.05-1.67,1.75-1.67,1.75,0,0-.93-1.95-1.9-1.87-1.46.12-1.48,1.58-1.11,2.58l.02.07v-.06s.11.02.31.06Z"/>
  <path class="cls-2" d="m120.04,54.79v.05s-.02.04-.02.04l-.02.11v.08s-.05.16-.05.16l-.03.12-.05.21-.02.09c-.82,3.38-4.55,16.16-15.95,26.88-8.83,8.31-16.7,13.72-22.34,17.04l-.25.15c-.25.14-.51.29-.75.43l-.22.12c-.25.15-.51.3-.76.43l-.15.09c-.26.14-.51.28-.76.41l-.17.09c-.24.13-.47.26-.69.37l-.08.04c-.25.13-.49.26-.73.38-.51.26-.98.5-1.41.7l-.04.02c-1.05.51-1.85.85-2.36,1.06l-.07.03-.2.08c-.23.1-.35.14-.35.14,0,0,.24-3.1,1.63-7.71l.05-.18.37-1.17.06-.19c.64-1.91,1.46-4.01,2.52-6.23,2.46-5.14,6.22-10.87,11.93-16.03,14.58-13.19,30.91-17.81,30.91-17.81Z"/>
  <path class="cls-6" d="m8,55.01l-.02-.07.02.07Z"/>
  <path class="cls-6" d="m8.25,56.01c-.03-.12-.06-.22-.08-.32.02.1.05.21.08.32Z"/>
  <path class="cls-6" d="m8.12,55.5l-.03-.13.03.13Z"/>
  <path class="cls-6" d="m8.05,55.21l-.02-.1.02.1Z"/>
  <path class="cls-6" d="m7.97,54.86v-.03s0,.03,0,.03Z"/>
  <path class="cls-2" d="m55.43,104.11h-.01s-.06-.02-.06-.02l-.05-.02c-.06-.03-.15-.06-.26-.1l-.05-.02c-.12-.05-.26-.1-.42-.17l-.05-.02c-.18-.07-.39-.16-.61-.26l-.1-.04c-.48-.21-1.06-.47-1.73-.79l-.14-.06c-.34-.16-.7-.34-1.08-.54l-.11-.05c-.37-.19-.77-.39-1.18-.61l-.08-.04c-5.62-2.98-14.76-8.71-25.4-18.84-3.88-3.7-6.88-7.62-9.17-11.32-2.3-3.7-3.89-7.17-4.97-9.96l-.02-.05c-.05-.13-.09-.25-.14-.38-.05-.14-.1-.27-.15-.41-.05-.13-.1-.25-.14-.38-.05-.12-.09-.24-.13-.36-.04-.13-.09-.25-.13-.37s-.08-.23-.11-.34c-.04-.11-.08-.23-.12-.34-.03-.11-.07-.21-.1-.31-.06-.21-.13-.41-.19-.6l-.08-.26c-.03-.1-.05-.2-.08-.29l-.07-.25c-.03-.09-.06-.18-.08-.27l-.06-.2-.06-.25-.05-.18c-.03-.11-.06-.22-.08-.32l-.05-.2-.03-.12-.04-.16-.02-.1-.02-.11-.04-.14v-.07s.39.11,1.12.35c.29.1.63.22,1.03.36.58.2,1.28.46,2.07.76,1.06.41,2.28.91,3.64,1.51.67.3,1.38.63,2.12.98.74.35,1.51.73,2.3,1.13,1.58.81,3.26,1.72,4.99,2.75.87.51,1.76,1.05,2.65,1.62.9.57,1.8,1.18,2.72,1.81.91.63,1.83,1.29,2.75,1.99.92.69,1.84,1.42,2.76,2.17.92.76,1.84,1.55,2.75,2.38.48.43.94.86,1.39,1.3,1.34,1.31,2.57,2.64,3.68,3.99,1.12,1.36,2.13,2.72,3.04,4.07,1.6,2.37,2.89,4.72,3.95,6.95.02.06.05.12.08.18.99,2.13,1.77,4.14,2.37,5.97l.37,1.16c1.43,4.7,1.68,7.89,1.68,7.89Z"/>
  <path class="cls-3" d="m77.2,88.63c-1.06,2.22-1.88,4.32-2.52,6.23l-.06.19-.37,1.17-.05.18c-1.39,4.61-1.63,7.71-1.63,7.71,0,0-2.53,1.33-6.44,1.72h0s-.1.01-.1.01c-.24.03-.48.04-.73.06l-.26.02c-.34.01-.69.02-1.04.02-.96,0-1.86-.06-2.69-.17-.55-.07-1.07-.15-1.56-.25-.49-.1-.94-.21-1.36-.32-1.86-.51-2.96-1.09-2.96-1.09,0,0-.25-3.19-1.68-7.89l-.37-1.16c-.6-1.83-1.38-3.84-2.37-5.97-.03-.06-.06-.12-.08-.18,4.45-1.85,14.05-4.53,26.27-.28Z"/>
  <path class="cls-2" d="m120.04,54.79s-16.33,4.62-30.91,17.81c-5.71,5.16-9.47,10.89-11.93,16.03-12.22-4.25-21.82-1.57-26.27.28-1.06-2.23-2.35-4.58-3.95-6.95-.91-1.35-1.92-2.71-3.04-4.07-1.11-1.35-2.34-2.68-3.68-3.99-.45-.44-.91-.87-1.39-1.3-.91-.83-1.83-1.62-2.75-2.38-.92-.75-1.84-1.48-2.76-2.17-.92-.7-1.84-1.36-2.75-1.99-.92-.63-1.82-1.24-2.72-1.81-.89-.57-1.78-1.11-2.65-1.62-1.73-1.03-3.41-1.94-4.99-2.75-.79-.4-1.56-.78-2.3-1.13-.74-.35-1.45-.68-2.12-.98-1.36-.6-2.58-1.1-3.64-1.51-.79-.3-1.49-.56-2.07-.76-.4-.14-.74-.26-1.03-.36-.73-.24-1.13-.35-1.13-.35l1.41-10.41c11.53,3.53,23.51,5.48,37.56,6.3,5.4.31,11.1.46,17.2.46,2.18,0,4.38-.03,6.6-.09,21.2-.59,38.86-3.8,47.89-6.91l1.42,10.65Z"/>
  <path class="cls-5" d="m9.37,44.38h0l.07-.53.47-3.46s.11.02.3.06c-.19-.04-.3-.06-.3-.06v.06s-1.95,14.34-1.95,14.34l1.41-10.41Z"/>
  <path class="cls-5" d="m19.05,42.1c.21.03.41.07.62.11-.21-.04-.42-.07-.62-.11Z"/>
  <path class="cls-5" d="m17.66,41.86c.2.04.41.07.62.11-.21-.04-.41-.07-.62-.11Z"/>
  <path class="cls-5" d="m20.51,42.34c.21.03.42.07.63.1-.21-.04-.43-.07-.63-.1Z"/>
  <path class="cls-5" d="m10.28,40.47c.08.02.17.03.27.06-.1-.02-.2-.04-.27-.06Z"/>
  <path class="cls-5" d="m35.87,44.55c.27.03.54.06.81.1-.27-.03-.54-.06-.81-.1Z"/>
  <path class="cls-5" d="m37.97,44.79c.22.03.45.05.68.08-.23-.03-.45-.05-.68-.08Z"/>
  <path class="cls-5" d="m33.85,44.3c.27.03.53.07.8.1-.27-.03-.54-.07-.8-.1Z"/>
  <path class="cls-5" d="m22.06,42.6c.2.03.4.06.6.1-.2-.03-.4-.06-.6-.1Z"/>
  <path class="cls-5" d="m43.5,45.37c.25.02.5.05.75.07-.25-.02-.5-.05-.75-.07Z"/>
  <path class="cls-2" d="m47.76,45.74c.33.03.65.05.98.08-.33-.03-.65-.05-.98-.08Z"/>
  <path class="cls-5" d="m45.57,45.56c.3.03.61.05.91.08-.31-.03-.61-.05-.91-.08Z"/>
  <path class="cls-5" d="m11.95,40.8c.15.03.32.06.49.1-.17-.03-.34-.07-.49-.1Z"/>
  <path class="cls-5" d="m11.27,40.67c.12.02.26.05.4.08-.14-.03-.28-.05-.4-.08Z"/>
  <path class="cls-5" d="m26.64,43.31c.12.02.23.03.35.05-.12-.02-.23-.04-.35-.05Z"/>
  <path class="cls-5" d="m28.15,43.53c.22.03.44.06.67.1-.22-.03-.44-.06-.67-.1Z"/>
  <path class="cls-5" d="m23.69,42.86c.14.02.28.04.42.06-.14-.02-.28-.04-.42-.06Z"/>
  <path class="cls-5" d="m29.96,43.78c.25.03.49.07.74.1-.25-.04-.5-.07-.74-.1Z"/>
  <path class="cls-5" d="m31.88,44.04c.25.03.51.07.76.1-.26-.03-.51-.07-.76-.1Z"/>
  <path class="cls-5" d="m16.38,41.63c.19.03.39.07.59.1-.2-.04-.39-.07-.59-.1Z"/>
  <path class="cls-5" d="m13.67,41.13c.31.06.63.12.98.18-.34-.06-.67-.13-.98-.18Z"/>
  <path class="cls-2" d="m50.02,45.91c.33.02.66.05.99.07-.33-.02-.66-.05-.99-.07Z"/>
  <path class="cls-2" d="m52.29,46.06c.34.02.67.04,1.01.06-.34-.02-.67-.04-1.01-.06Z"/>
  <path class="cls-5" d="m15.15,41.41c.2.04.4.07.61.11-.21-.04-.41-.07-.61-.11Z"/>
  <path class="cls-5" d="m12.74,40.96c.19.04.39.07.59.11-.2-.04-.4-.08-.59-.11Z"/>
  <path class="cls-5" d="m10.73,40.56c.1.02.2.04.32.06-.12-.02-.22-.04-.32-.06Z"/>
  <path class="cls-5" d="m10.11,55.5c-.39-.14-.74-.26-1.03-.35.29.1.64.21,1.03.35Z"/>
  <path class="cls-5" d="m15.82,57.78c-1.35-.6-2.58-1.1-3.63-1.51,1.06.41,2.28.91,3.63,1.51Z"/>
  <path class="cls-2" d="m9.58,42.86h0l-.12.88v.1s-.09.53-.09.53c11.53,3.53,23.51,5.48,37.56,6.3,5.4.31,11.09.46,17.2.46,2.17,0,4.38-.03,6.6-.09,21.2-.59,38.86-3.8,47.89-6.91l-.18-1.31h0l-.33-2.44s-28.06,5.97-54.11,6.08c-3.13-.01-6.29-.11-9.42-.28-.43-.02-.85-.05-1.28-.07-.34-.02-.67-.04-1.01-.06-.43-.03-.86-.05-1.28-.08-.33-.02-.66-.04-.99-.07-.43-.03-.85-.06-1.27-.09-.33-.03-.65-.05-.98-.08-.43-.03-.85-.07-1.28-.1-.31-.03-.61-.05-.91-.08-.44-.04-.88-.08-1.32-.12-.25-.02-.5-.05-.75-.07-1.65-.16-3.27-.33-4.86-.5-.23-.03-.45-.05-.68-.08-.43-.05-.86-.1-1.29-.15-.27-.03-.54-.06-.81-.1-.41-.05-.82-.1-1.22-.15-.27-.03-.54-.07-.8-.1-.41-.05-.81-.1-1.2-.15-.26-.03-.51-.07-.76-.1-.39-.05-.79-.1-1.17-.16-.25-.04-.5-.07-.74-.1-.38-.05-.77-.11-1.15-.16-.22-.03-.44-.06-.67-.1-.39-.06-.78-.11-1.16-.17-.12-.02-.23-.03-.35-.05-.87-.13-1.72-.26-2.54-.39-.14-.02-.28-.04-.42-.06-.35-.06-.69-.11-1.03-.16-.2-.03-.4-.06-.6-.1-.31-.05-.62-.1-.92-.15-.21-.03-.43-.07-.63-.1-.28-.05-.56-.09-.84-.14-.21-.04-.42-.07-.62-.11-.26-.04-.52-.09-.77-.13-.21-.04-.41-.07-.62-.11-.23-.04-.46-.08-.69-.12-.2-.04-.39-.07-.59-.1-.21-.04-.43-.08-.63-.11-.21-.04-.41-.07-.61-.11-.17-.03-.34-.06-.5-.09-.34-.06-.67-.12-.98-.18-.12-.02-.23-.04-.34-.07-.2-.04-.4-.08-.59-.11-.1-.02-.2-.04-.3-.06-.17-.03-.34-.07-.49-.1-.1-.02-.19-.04-.28-.05-.14-.03-.27-.05-.4-.08l-.23-.05c-.12-.02-.22-.04-.32-.06l-.17-.03c-.11-.02-.19-.04-.27-.06h-.07c-.19-.05-.3-.08-.3-.08l-.34,2.47"/>
  <path d="m24.59,59.96c-.12-.07-.27-.02-.34.1-.07.12-.02.27.1.34.88.49,1.77,1,2.63,1.51l.13.04.21-.12c.07-.12.03-.27-.09-.34-.87-.52-1.76-1.03-2.64-1.52Z"/>
  <path d="m13.54,54.81c-.13-.05-.27.02-.32.15-.05.13.02.27.15.32.89.33,1.84.71,2.82,1.12l.1.02c.1,0,.19-.06.23-.15.05-.13,0-.27-.13-.32-.98-.42-1.94-.8-2.84-1.13Z"/>
  <path d="m45.66,77.19l.19.09.16-.06c.1-.09.12-.24.03-.35-.64-.77-1.32-1.55-2.02-2.29-.09-.1-.25-.11-.35-.01-.1.09-.11.25-.01.35.69.74,1.36,1.5,2,2.27Z"/>
  <path d="m41.71,72.83l.18-.08c.09-.1.09-.25,0-.35-.72-.69-1.48-1.39-2.26-2.06-.1-.09-.26-.08-.35.02-.09.1-.08.26.02.35.77.67,1.52,1.35,2.24,2.04l.17.07Z"/>
  <path d="m34.85,66.54c-.11-.08-.26-.06-.35.05-.08.11-.06.26.05.35.81.6,1.62,1.22,2.41,1.85l.15.05.19-.09c.09-.11.07-.26-.04-.35-.79-.63-1.6-1.25-2.42-1.86Z"/>
  <path d="m19.16,57.18c-.12-.06-.27,0-.33.12-.06.12,0,.27.12.33.9.42,1.81.87,2.72,1.34l.11.03.22-.13c.06-.12.01-.27-.11-.33-.92-.47-1.84-.92-2.74-1.35Z"/>
  <path d="m29.83,63.08c-.12-.07-.27-.04-.34.07-.07.11-.04.27.07.34.86.55,1.71,1.11,2.53,1.68l.14.04.2-.11c.08-.11.05-.27-.06-.34-.82-.57-1.68-1.13-2.54-1.69Z"/>
  <path d="m10.54,54.32c.11,0,.21-.07.24-.18.04-.13-.04-.27-.17-.31-.52-.15-1.01-.27-1.45-.36-.13-.03-.26.06-.29.19-.03.13.06.27.19.29.43.09.9.21,1.42.36h.07Z"/>
  <path d="m103.29,59.48c.12-.07.27-.02.34.1.07.12.02.27-.1.34-.88.49-1.77,1-2.63,1.51l-.13.04-.21-.12c-.07-.12-.03-.27.09-.34.87-.52,1.76-1.03,2.64-1.52Z"/>
  <path d="m114.34,54.32c.13-.05.27.02.32.15.05.13-.02.27-.15.32-.89.33-1.84.71-2.82,1.12l-.1.02c-.1,0-.19-.06-.23-.15-.05-.13,0-.27.13-.32.98-.42,1.94-.8,2.84-1.13Z"/>
  <path d="m82.22,76.71l-.19.09-.16-.06c-.1-.09-.12-.24-.03-.35.64-.77,1.32-1.55,2.02-2.29.09-.1.25-.11.35-.01.1.09.11.25.01.35-.69.74-1.36,1.5-2,2.27Z"/>
  <path d="m86.17,72.35l-.18-.08c-.09-.1-.09-.25,0-.35.72-.69,1.48-1.39,2.26-2.06.1-.09.26-.08.35.02.09.1.08.26-.02.35-.77.67-1.52,1.35-2.24,2.04l-.17.07Z"/>
  <path d="m93.03,66.06c.11-.08.26-.06.35.05.08.11.06.26-.05.35-.81.6-1.62,1.22-2.41,1.85l-.15.05-.19-.09c-.09-.11-.07-.26.04-.35.79-.63,1.6-1.25,2.42-1.86Z"/>
  <path d="m108.72,56.7c.12-.06.27,0,.33.12.06.12,0,.27-.12.33-.9.42-1.81.87-2.72,1.34l-.11.03-.22-.13c-.06-.12-.01-.27.11-.33.92-.47,1.84-.92,2.74-1.35Z"/>
  <path d="m98.05,62.6c.12-.07.27-.04.34.07.07.11.04.27-.07.34-.86.55-1.71,1.11-2.53,1.68l-.14.04-.2-.11c-.08-.11-.05-.27.06-.34.82-.57,1.68-1.13,2.54-1.69Z"/>
  <path d="m117.34,53.84c-.11,0-.21-.07-.24-.18-.04-.13.04-.27.17-.31.52-.15,1.01-.27,1.45-.36.13-.03.26.06.29.19.03.13-.06.27-.19.29-.43.09-.9.21-1.42.36h-.07Z"/>
  <rect class="cls-4" x="-2514.95" y="-3004.76" width="6467.34" height="6437.3"/>
</svg>