<?xml version="1.0" encoding="UTF-8"?>
<svg id="Calque_1" data-name="Calque 1" xmlns="http://www.w3.org/2000/svg" viewBox="0 0 200 128">
  <defs>
    <style>
      .cls-1, .cls-2, .cls-3, .cls-4, .cls-5, .cls-6 {
        stroke: #000;
      }

      .cls-1, .cls-2, .cls-4, .cls-5, .cls-7 {
        stroke-linecap: round;
        stroke-linejoin: round;
      }

      .cls-1, .cls-3 {
        fill: #fff;
      }

      .cls-2, .cls-5, .cls-7 {
        fill: none;
      }

      .cls-8 {
        fill: #f6e7d4;
      }

      .cls-9 {
        fill: #fab0b4;
      }

      .cls-10 {
        fill: #ff6d75;
      }

      .cls-11 {
        fill: #dbc5b1;
      }

      .cls-12 {
        fill: #dfdfe0;
      }

      .cls-3, .cls-4, .cls-5, .cls-6 {
        stroke-width: 2px;
      }

      .cls-3, .cls-6 {
        stroke-miterlimit: 10;
      }

      .cls-4 {
        fill: #bfe6fc;
      }

      .cls-7 {
        stroke: #fff;
        stroke-width: 8px;
      }
    </style>
  </defs>
  <path class="cls-4" d="m163.33,14.2h.17c.44,0,.87.04,1.28.13,2.9.59,5.09,3.16,5.09,6.24v15.41H30.13v-15.41c0-.39.05-.77.12-1.15l.07-.31c.07-.29.16-.57.26-.84l.09-.25c.14-.32.31-.63.5-.92l.05-.09.15-.18c.15-.2.3-.39.47-.57l.28-.29c.23-.22.47-.42.73-.6l.09-.07.69-.37c.13-.07.26-.15.4-.21.54-.23,1.11-.38,1.71-.45.25-.03.51-.05.77-.05h.4v.05h3.84v-.05h7.31v.04h3.84v-.04h7.31v.04h3.84v-.04h7.31v.03h3.84v-.03h7.37v.03h3.84v-.03h7.31v.03h3.84v-.03h7.3v.02h3.84v-.02h7.31v.02h3.84v-.02h7.27s3.84.01,3.84.01h0s7.31-.01,7.31-.01h0s3.84,0,3.84,0h0s7.2,0,7.2,0h0s3.84,0,3.84,0h0s7.31,0,7.31,0h0s2.91,0,2.91,0h.93Z"/>
  <polygon class="cls-8" points="32.94 15.29 32.85 15.36 32.85 15.36 32.94 15.29"/>
  <path class="cls-8" d="m30.13,111.4c0,.88.18,1.72.5,2.48-.32-.76-.5-1.6-.5-2.48Z"/>
  <path class="cls-8" d="m168.81,114.92l-.12.16.12-.16Z"/>
  <path class="cls-8" d="m168.12,115.77l-.2.21.2-.21Z"/>
  <path class="cls-8" d="m36.5,117.77h0c-.88,0-1.72-.18-2.48-.5.76.32,1.6.5,2.48.5Z"/>
  <polygon class="cls-8" points="166.92 116.76 167.1 116.66 167.13 116.63 166.92 116.76"/>
  <path class="cls-8" d="m166.1,117.21l-.17.08.17-.08Z"/>
  <path class="cls-8" d="m31.22,114.97c.41.6.92,1.11,1.51,1.54l.21.18c-.68-.46-1.26-1.04-1.72-1.72Z"/>
  <path class="cls-8" d="m164.9,117.61l-.25.05.25-.05Z"/>
  <path class="cls-9" d="m90.3,92v-15.97h-18.09v15.97h18.09Zm-4.34-6.27c0,2.41-1.95,4.36-4.36,4.36s-4.36-1.95-4.36-4.36,4.36-7.7,4.36-7.7c0,0,4.36,5.29,4.36,7.7Z"/>
  <path class="cls-9" d="m108.96,92v-15.97h-18.09v15.97h18.09Zm-4.44-6.27c0,2.41-1.95,4.36-4.36,4.36s-4.36-1.95-4.36-4.36,4.36-7.7,4.36-7.7c0,0,4.36,5.29,4.36,7.7Z"/>
  <path class="cls-9" d="m127.63,92v-15.97h-18.08v15.97h18.08Zm-4.4-6.27c0,2.41-1.95,4.36-4.36,4.36s-4.36-1.95-4.36-4.36,4.36-7.7,4.36-7.7c0,0,4.36,5.29,4.36,7.7Z"/>
  <path class="cls-9" d="m146.29,92v-15.97h-18.09v15.97h18.09Zm-4.64-6.27c0,2.41-1.95,4.36-4.36,4.36s-4.36-1.95-4.36-4.36,4.36-7.7,4.36-7.7c0,0,4.36,5.29,4.36,7.7Z"/>
  <path class="cls-9" d="m146.86,92h17.17v-15.97h-17.17v15.97Zm12.83-6.27c0,2.41-1.95,4.36-4.36,4.36s-4.36-1.95-4.36-4.36,4.36-7.7,4.36-7.7c0,0,4.36,5.29,4.36,7.7Z"/>
  <path class="cls-5" d="m30.13,35.98v75.42c0,.88.18,1.72.5,2.48.16.38.36.74.59,1.08.46.68,1.04,1.26,1.72,1.72.34.23.7.43,1.08.59.76.32,1.6.5,2.48.5h127c.39,0,.77-.05,1.15-.12l.25-.05c.36-.08.7-.18,1.03-.32l.17-.08c.29-.13.56-.28.82-.45l.21-.13c.28-.2.54-.41.79-.65l.2-.21c.2-.22.39-.44.57-.69l.12-.16.02-.02h0c.66-1,1.05-2.2,1.05-3.5V35.98m-134.14,4.64h128.88v70.24H35.73V40.63Z"/>
  <path class="cls-12" d="m38.83,22.35c.17,0,.33-.03.48-.07-.16.04-.32.07-.48.07Z"/>
  <path class="cls-12" d="m39.42,22.25c.14-.05.27-.1.39-.18-.12.08-.26.13-.39.18Z"/>
  <path class="cls-12" d="m40.53,21.29c-.16.31-.4.57-.69.76.29-.19.53-.45.69-.76Z"/>
  <path class="cls-12" d="m49.98,22.35c.17,0,.33-.03.48-.07-.15.04-.32.07-.48.07Z"/>
  <path class="cls-12" d="m50.57,22.25c.14-.05.27-.1.39-.18-.12.08-.26.13-.39.18Z"/>
  <path class="cls-12" d="m61.73,22.25c.14-.05.27-.1.39-.18-.12.08-.26.13-.39.18Z"/>
  <path class="cls-12" d="m62.84,21.29c-.16.31-.4.57-.69.76.29-.19.53-.45.69-.76Z"/>
  <path class="cls-12" d="m61.14,22.35c.17,0,.33-.03.48-.07-.16.04-.32.07-.48.07Z"/>
  <path class="cls-12" d="m72.88,22.25c.14-.05.27-.1.39-.18-.12.08-.26.13-.39.18Z"/>
  <path class="cls-12" d="m72.29,22.35c.17,0,.33-.03.48-.07-.15.04-.32.07-.48.07Z"/>
  <path class="cls-12" d="m71.06,21.89l-.26-.26.26.26Z"/>
  <path class="cls-12" d="m83.5,22.35c.17,0,.33-.03.48-.07-.15.04-.32.07-.48.07Z"/>
  <path class="cls-12" d="m84.1,22.25c.14-.05.27-.1.39-.18-.12.08-.26.13-.39.18Z"/>
  <path class="cls-12" d="m93.43,21.89l-.26-.26.26.26Z"/>
  <path class="cls-12" d="m95.25,22.25c.14-.05.27-.1.39-.18-.12.08-.26.13-.39.18Z"/>
  <path class="cls-12" d="m94.66,22.35c.17,0,.33-.03.48-.07-.15.04-.31.07-.48.07Z"/>
  <path class="cls-12" d="m105.8,22.35c.17,0,.33-.03.48-.07-.15.04-.32.07-.48.07Z"/>
  <path class="cls-12" d="m106.39,22.25c.14-.05.27-.1.39-.18-.12.08-.26.13-.39.18Z"/>
  <path class="cls-12" d="m117.55,22.25c.14-.05.27-.1.39-.18-.12.08-.26.13-.39.18Z"/>
  <path class="cls-12" d="m116.95,22.35c.17,0,.33-.03.48-.07-.16.04-.32.07-.48.07Z"/>
  <path class="cls-12" d="m128.06,22.35c.17,0,.33-.03.48-.07-.16.04-.32.07-.48.07Z"/>
  <path class="cls-12" d="m129.77,21.29c-.16.31-.4.57-.69.76.29-.19.53-.45.69-.76Z"/>
  <path class="cls-12" d="m128.66,22.25c.14-.05.27-.1.39-.18-.12.08-.26.13-.39.18Z"/>
  <path class="cls-12" d="m137.99,21.89l-.26-.26.26.26Z"/>
  <path class="cls-12" d="m139.22,22.35c.17,0,.33-.03.48-.07-.15.04-.32.07-.48.07Z"/>
  <path class="cls-12" d="m139.81,22.25c.14-.05.27-.1.39-.18-.12.08-.26.13-.39.18Z"/>
  <path class="cls-12" d="m151.96,21.29c-.16.31-.4.57-.69.76.29-.19.53-.45.69-.76Z"/>
  <path class="cls-12" d="m150.26,22.35c.17,0,.33-.03.48-.07-.15.04-.31.07-.48.07Z"/>
  <path class="cls-12" d="m150.85,22.25c.14-.05.27-.1.39-.18-.12.08-.26.13-.39.18Z"/>
  <path class="cls-12" d="m161.41,22.35c.17,0,.33-.03.48-.07-.15.04-.31.07-.48.07Z"/>
  <path class="cls-12" d="m160.18,21.89l-.26-.26.26.26Z"/>
  <path class="cls-12" d="m162.01,22.25c.14-.05.27-.1.39-.18-.12.08-.26.13-.39.18Z"/>
  <g>
    <path class="cls-1" d="m38.83,10.23c-.2,0-.39.04-.58.1,0,0,0,0,0,0,0,0-.02,0-.03.01-.16.06-.31.13-.45.23-.03.02-.05.03-.08.05-.15.11-.28.23-.39.38l-.02.02c-.11.15-.19.31-.26.48l-.03.09c-.05.18-.09.36-.09.55v8.28c0,1.06.86,1.92,1.92,1.92h0c.17,0,.33-.03.48-.07l.11-.03c.14-.05.27-.1.39-.18l.03-.02c.29-.19.53-.45.69-.76.13-.26.22-.55.22-.87v-8.28c0-1.06-.86-1.92-1.92-1.92Z"/>
    <path class="cls-1" d="m49.98,10.23c-.2,0-.39.04-.58.1,0,0,0,0,0,0,0,0-.02,0-.03.01-.16.06-.31.13-.45.23-.03.02-.05.03-.08.05-.15.11-.28.23-.39.38l-.02.02c-.11.15-.19.31-.26.48l-.03.09c-.05.18-.09.36-.09.55v8.28c0,1.06.87,1.92,1.92,1.92h0c.17,0,.33-.03.48-.07l.11-.03c.14-.05.27-.1.39-.18l.03-.02c.14-.09.27-.2.39-.33,0,0,.01-.02.02-.03.1-.12.19-.25.27-.39,0,0,0,0,0,0h0c.14-.26.22-.55.22-.87v-8.28c0-1.06-.87-1.92-1.92-1.92Z"/>
    <path class="cls-1" d="m61.13,10.23c-.2,0-.39.04-.58.1,0,0,0,0,0,0,0,0-.02,0-.03.01-.16.06-.31.13-.45.23-.03.02-.05.03-.08.05-.15.11-.28.23-.39.38l-.02.02c-.11.15-.19.31-.26.48l-.03.09c-.06.18-.09.36-.09.55v8.28c0,1.06.86,1.92,1.92,1.92h0c.17,0,.33-.03.48-.07l.11-.03c.14-.05.27-.1.39-.18l.03-.02c.29-.19.53-.45.69-.76.13-.26.22-.55.22-.87v-8.28c0-1.06-.86-1.92-1.92-1.92Z"/>
    <path class="cls-1" d="m72.29,10.23c-.2,0-.39.04-.58.1,0,0,0,0,0,0,0,0-.02.01-.03.01-.16.06-.31.13-.45.23-.03.02-.05.03-.08.05-.15.11-.28.23-.39.38l-.02.02c-.11.15-.19.31-.26.48l-.03.09c-.05.18-.09.36-.09.55v8.28c0,.46.17.87.44,1.2l.26.26c.33.28.76.46,1.23.46h0c.17,0,.33-.03.48-.07l.11-.03c.14-.05.27-.1.39-.18l.03-.02c.14-.09.27-.2.39-.33,0,0,.01-.02.02-.02.11-.12.2-.25.27-.4,0,0,0,0,0,0,0,0,0,0,0,0,.14-.26.22-.55.22-.87v-8.28c0-1.06-.87-1.92-1.92-1.92Z"/>
    <path class="cls-1" d="m83.5,10.23c-.2,0-.39.04-.58.1,0,0,0,0,0,0,0,0-.02,0-.03.01-.16.06-.31.13-.45.23-.03.02-.05.03-.08.05-.15.11-.28.23-.39.38l-.02.02c-.11.15-.19.31-.26.48l-.03.09c-.05.18-.09.36-.09.55v8.28c0,1.06.87,1.92,1.92,1.92h0c.17,0,.33-.03.48-.07l.11-.03c.14-.05.27-.1.39-.18l.03-.02c.14-.09.27-.2.39-.33,0,0,.01-.02.02-.03.1-.12.19-.25.27-.39,0,0,0,0,0,0,0,0,0,0,0,0,.14-.26.22-.55.22-.87v-8.28c0-1.06-.87-1.92-1.92-1.92Z"/>
    <path class="cls-1" d="m94.65,10.23c-.2,0-.39.04-.58.1,0,0,0,0,0,0,0,0-.02,0-.02.01-.16.06-.32.13-.46.23-.03.02-.05.03-.08.05-.15.11-.28.23-.39.38l-.02.02c-.11.15-.19.31-.26.48l-.03.09c-.05.18-.09.36-.09.55v8.28c0,.46.17.87.44,1.2l.26.26c.33.28.76.46,1.23.46h0c.17,0,.33-.03.48-.07l.11-.03c.14-.05.27-.1.39-.18l.03-.02c.15-.09.27-.2.39-.33,0,0,.01-.02.02-.02.11-.12.2-.25.27-.39,0,0,0,0,0,0,0,0,0,0,0,0,.14-.26.22-.55.22-.87v-8.28c0-1.06-.87-1.92-1.92-1.92Z"/>
    <path class="cls-1" d="m105.8,10.23c-.2,0-.39.04-.58.1,0,0,0,0,0,0,0,0-.02,0-.03.01-.16.06-.31.13-.45.23-.03.02-.05.03-.08.05-.15.11-.28.23-.39.38l-.02.02c-.11.15-.19.31-.26.48l-.03.09c-.05.18-.09.36-.09.56v8.28c0,1.06.87,1.92,1.92,1.92h0c.17,0,.33-.03.48-.07l.11-.03c.14-.05.27-.1.4-.18l.03-.02c.15-.09.27-.2.39-.33,0,0,.01-.02.02-.02.11-.12.2-.25.27-.39,0,0,0,0,0,0,0,0,0,0,0,0,.14-.26.22-.55.22-.87v-8.28c0-1.06-.87-1.92-1.92-1.92Z"/>
    <path class="cls-1" d="m116.95,10.23c-.2,0-.39.04-.58.1,0,0,0,0,0,0,0,0-.02,0-.02.01-.16.06-.32.13-.46.23-.03.02-.05.03-.08.05-.15.11-.28.23-.39.38l-.02.02c-.11.15-.19.31-.26.48l-.03.09c-.05.18-.09.36-.09.55v8.28c0,1.06.86,1.92,1.92,1.92h0c.17,0,.33-.03.48-.07l.11-.03c.14-.05.27-.1.39-.18l.03-.02c.14-.09.27-.2.39-.33,0,0,.01-.02.02-.02.11-.12.2-.25.27-.39,0,0,0,0,0,0,0,0,0,0,0,0,.14-.26.22-.55.22-.87v-8.28c0-1.06-.86-1.92-1.92-1.92Z"/>
    <path class="cls-1" d="m128.06,10.23c-.2,0-.39.04-.58.1,0,0,0,0,0,0,0,0-.02,0-.03.01-.16.06-.31.13-.45.23-.03.02-.05.03-.08.05-.15.11-.28.23-.39.38l-.02.02c-.11.15-.19.31-.26.48l-.03.09c-.05.18-.09.36-.09.55v8.28c0,1.06.86,1.92,1.92,1.92h0c.17,0,.33-.03.48-.07l.11-.03c.14-.05.27-.1.39-.18l.03-.02c.29-.19.53-.45.69-.76.13-.26.22-.55.22-.87v-8.28c0-1.06-.86-1.92-1.92-1.92Z"/>
    <path class="cls-1" d="m139.22,10.23c-.2,0-.39.04-.58.1,0,0,0,0,0,0,0,0-.02,0-.03.01-.16.06-.31.13-.45.23-.03.02-.05.03-.08.05-.15.11-.28.23-.39.38l-.02.02c-.11.15-.19.31-.26.48l-.03.09c-.05.18-.09.36-.09.55v8.28c0,.46.17.87.44,1.2l.26.26c.33.28.76.46,1.23.46h0c.17,0,.33-.03.48-.07l.11-.03c.14-.05.27-.1.39-.18l.03-.02c.14-.09.27-.2.39-.33,0,0,.01-.02.02-.03.11-.12.2-.25.27-.39,0,0,0,0,0,0,0,0,0,0,0,0,.14-.26.22-.55.22-.87v-8.28c0-1.06-.87-1.92-1.92-1.92Z"/>
    <path class="cls-1" d="m150.26,10.23c-.2,0-.39.04-.58.1,0,0,0,0,0,0,0,0-.02,0-.02.01-.16.06-.32.13-.46.23-.03.02-.05.03-.08.05-.15.11-.28.23-.39.38l-.02.02c-.11.15-.19.31-.26.48l-.03.09c-.05.18-.09.36-.09.55v8.28c0,1.06.87,1.92,1.92,1.92h0c.17,0,.33-.03.48-.07l.11-.03c.14-.05.27-.1.39-.18l.03-.02c.29-.19.53-.45.69-.76,0,0,0,0,0,0,.13-.26.22-.55.22-.87v-8.28c0-1.06-.87-1.92-1.92-1.92Z"/>
    <path class="cls-1" d="m161.41,10.23c-.2,0-.39.04-.58.1,0,0,0,0,0,0,0,0-.02,0-.03.01-.16.06-.31.13-.46.23-.03.02-.05.03-.08.05-.15.11-.28.23-.39.38l-.02.02c-.11.15-.19.31-.26.48l-.03.09c-.05.18-.09.36-.09.55v8.28c0,.46.17.87.44,1.2l.26.26c.33.28.76.46,1.23.46h0c.17,0,.33-.03.48-.07l.11-.03c.14-.05.27-.1.4-.18l.03-.02c.14-.09.27-.2.39-.33,0,0,.01-.02.02-.02.11-.12.2-.25.27-.4,0,0,0,0,0,0,0,0,0,0,0,0,.14-.26.22-.55.22-.87v-8.28c0-1.06-.86-1.92-1.92-1.92Z"/>
  </g>
  <rect class="cls-11" x="90.3" y="76.04" width="0" height="15.97"/>
  <rect class="cls-11" x="146.29" y="76.04" width="0" height="15.97"/>
  <path class="cls-10" d="m81.61,90.09c2.41,0,4.36-1.95,4.36-4.36s-4.36-7.7-4.36-7.7c0,0-4.36,5.29-4.36,7.7s1.95,4.36,4.36,4.36Z"/>
  <path class="cls-10" d="m100.17,90.09c2.41,0,4.36-1.95,4.36-4.36s-4.36-7.7-4.36-7.7c0,0-4.36,5.29-4.36,7.7s1.95,4.36,4.36,4.36Z"/>
  <path class="cls-10" d="m118.87,90.09c2.41,0,4.36-1.95,4.36-4.36s-4.36-7.7-4.36-7.7c0,0-4.36,5.29-4.36,7.7s1.95,4.36,4.36,4.36Z"/>
  <path class="cls-10" d="m137.29,90.09c2.41,0,4.36-1.95,4.36-4.36s-4.36-7.7-4.36-7.7c0,0-4.36,5.29-4.36,7.7s1.95,4.36,4.36,4.36Z"/>
  <path class="cls-10" d="m155.33,90.09c2.41,0,4.36-1.95,4.36-4.36s-4.36-7.7-4.36-7.7c0,0-4.36,5.29-4.36,7.7s1.95,4.36,4.36,4.36Z"/>
  <line class="cls-2" x1="146.58" y1="110.87" x2="146.58" y2="40.63"/>
  <line class="cls-2" x1="109.25" y1="110.87" x2="109.25" y2="40.63"/>
  <line class="cls-2" x1="127.91" y1="110.87" x2="127.91" y2="40.63"/>
  <line class="cls-2" x1="90.76" y1="110.87" x2="90.76" y2="40.63"/>
  <line class="cls-2" x1="72.22" y1="110.87" x2="72.22" y2="40.63"/>
  <line class="cls-2" x1="54.45" y1="110.87" x2="54.45" y2="40.63"/>
  <line class="cls-2" x1="164.04" y1="76.04" x2="35.73" y2="76.04"/>
  <line class="cls-2" x1="164.04" y1="60.07" x2="35.73" y2="60.07"/>
  <line class="cls-2" x1="164.32" y1="92" x2="36.02" y2="92"/>
  <line class="cls-2" x1="164.32" y1="43.82" x2="36.02" y2="43.82"/>
  <line class="cls-2" x1="164.15" y1="108.06" x2="35.85" y2="108.06"/>
  <circle class="cls-3" cx="39.2" cy="74.01" r="27.15"/>
  <path class="cls-6" d="m27.84,63.34c1.07-2.4,3.08-4.11,6.05-5.14,2.74-.95,5.2-.94,7.39.03,2.19.97,3.7,2.66,4.53,5.06.51,1.46.62,2.74.34,3.86s-1.04,2.87-2.28,5.28c-.9,1.75-1.4,3.13-1.5,4.16-.06.67.02,1.49.25,2.46s-.3,1.96-1.24,2.29h0c-1.08.38-2.26-.27-2.53-1.38-.26-1.1-.38-2.08-.35-2.94.05-1.37.61-3.1,1.68-5.22l1.12-2.21c.34-.64.58-1.27.72-1.89.26-1.09.22-2.12-.11-3.08-.47-1.35-1.29-2.37-2.45-3.07-1.16-.7-2.69-.73-4.59-.07-2.34.82-3.67,2.23-3.97,4.25-.12.77-.07,1.7.15,2.79.19.94-.36,1.88-1.27,2.2h0c-1.13.39-2.35-.32-2.56-1.5-.38-2.11-.17-4.07.63-5.86Zm15.06,22.24h0c1.13-.39,2.37.2,2.76,1.34l.06.19c.39,1.13-.2,2.37-1.34,2.76h0c-1.13.39-2.37-.2-2.76-1.34l-.06-.19c-.39-1.13.2-2.37,1.34-2.76Z"/>
  <rect class="cls-7" x="-3421.08" y="-2755.83" width="6467.34" height="6437.3"/>
</svg>