<?xml version="1.0" encoding="UTF-8"?>
<svg id="Calque_1" data-name="Calque 1" xmlns="http://www.w3.org/2000/svg" viewBox="0 0 128 128">
  <defs>
    <style>
      .cls-1, .cls-2, .cls-3, .cls-4 {
        stroke: #000;
      }

      .cls-1, .cls-2, .cls-3, .cls-4, .cls-5 {
        stroke-linecap: round;
        stroke-linejoin: round;
      }

      .cls-1, .cls-4, .cls-5 {
        fill: none;
      }

      .cls-2 {
        fill: #d6d6d6;
      }

      .cls-2, .cls-3, .cls-4 {
        stroke-width: 2px;
      }

      .cls-3 {
        fill: #bbfedb;
      }

      .cls-5 {
        stroke: #fff;
        stroke-width: 8px;
      }
    </style>
  </defs>
  <line class="cls-4" x1="104.88" y1="109.51" x2="100.95" y2="80.59"/>
  <path class="cls-4" d="m84.37,63.59h11.63c1.51,0,2.79,1.12,2.99,2.61l.97,7.15"/>
  <path class="cls-3" d="m100.95,80.59h-21.09l.83-4.75c.25-1.44,1.5-2.49,2.97-2.49h16.3l.99,7.24Z"/>
  <line class="cls-4" x1="79.86" y1="80.59" x2="74.58" y2="110.63"/>
  <circle class="cls-2" cx="105.42" cy="113.73" r="4.26"/>
  <line class="cls-1" x1="78.48" y1="88.46" x2="102.02" y2="88.46"/>
  <path class="cls-2" d="m84.37,62.73v1.73c0,.37-.29.67-.66.67h-7.96c-.32,0-.59-.22-.66-.52.05-.05.1-.11.14-.16.56-.71.85-1.55.89-2.39h7.59c.37,0,.66.3.66.67Z"/>
  <path class="cls-2" d="m73.67,110.63h1.81c.92,0,1.66.75,1.66,1.66v5.18h-5.14v-5.18c0-.92.75-1.66,1.66-1.66Z"/>
  <circle class="cls-4" cx="63.18" cy="19.36" r="8.59"/>
  <path class="cls-4" d="m54.69,33.98l-.94.2c-1.97.42-3.24,2.37-2.82,4.34l1.66,7.82c-1.47,2.69-2.69,6.01-2.96,10.4-.66,10.46-1.1,13.53-3.42,15.48l8.34,17.26c.29.61.44,1.25.45,1.89,0,.02,0,.06,0,.08l2.77,20.87c.33,2.48-1.43,4.77-3.91,5.1-2.48.33-4.77-1.43-5.1-3.91l-2.76-20.83-8.21-18.62-1.75,19.87c-.07.66-.28,1.28-.6,1.82t0,.02l-8.67,19.27c-1.03,2.28-3.73,3.31-6.01,2.28-2.27-1.03-3.3-3.73-2.27-6l8.62-19.16,2.11-20.19c0-.11.02-.21.05-.32-2.74-3.09-2.3-6.51-2.3-6.51,0,0-.68-14.74,3.73-24.12,4.41-9.36,10.12-14.96,13.78-15.49,3.66-.54,11.97-.09,14.31,7.75.3,1.02.3,1.96.07,2.87-.67-1.59-2.4-2.54-4.14-2.17Z"/>
  <path class="cls-4" d="m76.12,62.06c-.04.84-.33,1.68-.89,2.39-.04.05-.09.11-.14.16-1.47,1.73-4.08,2.01-5.89.6l-13.3-10.03c-.43-.33-.78-.72-1.04-1.16-.51-.49-.88-1.12-1.03-1.87l-1.24-5.8-1.66-7.82c-.42-1.97.85-3.92,2.82-4.34l.94-.21c1.74-.36,3.48.59,4.14,2.18.09.2.15.42.2.64l2.52,11.89,12.93,9.73c1.16.9,1.72,2.27,1.64,3.64Z"/>
  <g>
    <line class="cls-1" x1="108.83" y1="31.11" x2="96.23" y2="52.81"/>
    <polygon points="92.65 49.05 92.62 59.02 101.27 54.06 92.65 49.05"/>
  </g>
  <rect class="cls-5" x="-5089.19" y="-1882.55" width="6467.34" height="6437.3"/>
</svg>