<?xml version="1.0" encoding="UTF-8"?>
<svg id="Calque_1" data-name="Calque 1" xmlns="http://www.w3.org/2000/svg" viewBox="0 0 128 128">
  <defs>
    <style>
      .cls-1, .cls-2, .cls-3, .cls-4, .cls-5, .cls-6, .cls-7 {
        stroke-linecap: round;
        stroke-linejoin: round;
      }

      .cls-1, .cls-2, .cls-8 {
        fill: #ff6d75;
      }

      .cls-1, .cls-4 {
        stroke: #fab0b4;
      }

      .cls-2, .cls-3, .cls-5, .cls-9, .cls-7 {
        stroke: #000;
      }

      .cls-3, .cls-4, .cls-6, .cls-9 {
        fill: none;
      }

      .cls-10 {
        fill: #fab0b4;
      }

      .cls-5 {
        stroke-width: .25px;
      }

      .cls-6 {
        stroke: #fff;
        stroke-width: 8px;
      }

      .cls-9 {
        stroke-miterlimit: 10;
      }
    </style>
  </defs>
  <path class="cls-10" d="m75.68,35.2l-9.43,7.93v.2s.14,3.94.14,3.94c.03.75.06,1.55.09,2.35l.17,4.96,2.03,6.91,1.32,5.51.41,3.32.55,3.38,1.65,6.26.97,4.41,1.48,4.81c.03.08.04.13.04.13,0,0,.01,0,.04,0l3.78,1.28.85.29.46,1.21s.02.02.02.03l1.68,4.4-2.34,1.1-.94-.4-2.91-1.07-3.93-1.39-1.28-1.21-3.88-6.36-4.83-11.28-.22-3.35-1.44.84-.42,10.91-.98,5.83-.53,4.45,1.51,5.84-.48,9.38-.06,3.68-2.09-.16-1.02-1.53-1.19-.35-.37-1.81-.97-4.68-1.07-5.33-1.12-2.89-.35-3.34-.37-5.56-.06-6.08.2-6.37.93-7.09-.36-10.51-1.26-9.57-2.36-12.85-.77-4.25-.57-6.65.31-5.89,1.23-.35.88-.1.64,6.17,1.76,7.79,2.59,4.58.45,2.34.49,2.28.22.35s0,.02,0,.03l.49.78s0,.01,0,.02l.49.8,1.52.46,1.07.32.54.16,1.78-.88.86-2.29s.02-.04.03-.06l.54-1.44s.01-.03.01-.04l.33-.87,6.96-4.87,7.56-5.97,4.11-3.36,2.04,1.93-.45.54-7.19,8.29Z"/>
  <path class="cls-3" d="m61.47,73.42c.15,1.98,2.81,9.22,3.73,11.35.67,1.54,4.73,8.88,6.21,9.98,1.48,1.1,3.43,1.48,4.74,1.69.81.13,2.37.91,3.44,1.48"/>
  <path class="cls-3" d="m82.12,97.49l.26-.2s-.01-.02-.02-.05"/>
  <path class="cls-7" d="m73.01,69.71l-2.39.56c-.21-1.89-.5-4.08-1.1-6.35-.75-2.86-2.37-7.49-2.67-8.99-.13-.65-.26-2.94-.37-5.31-.03-.8-.06-1.6-.09-2.35l-.13-3.94c.05-.05.18-.16.39-.33l1.02,4.3,5.34,22.41Z"/>
  <path class="cls-3" d="m84.54,25.19s-8.26,9.98-10.51,11.78c-.19.15-.41.32-.64.51-.26.21-.55.45-.85.69-.59.48-1.24,1.01-1.89,1.54-.32.27-.64.53-.96.79-.16.14-.32.26-.47.39-.16.13-.31.26-.46.38-.45.36-.86.7-1.22,1h-.01c-.18.16-.34.29-.49.41s-.28.23-.39.32"/>
  <path class="cls-3" d="m66.26,43.33h-.01s.05,1.77.14,3.94"/>
  <path class="cls-3" d="m70.62,70.27c.05.5.1.97.14,1.42.2,2.18,2.65,9.6,2.79,10.96.12,1.23,1.3,5.7,1.51,6.53.03.08.04.13.04.13,0,0,.01,0,.04,0,.31.05,2.44.43,3.78,1.28.28.17.51.37.7.58.2.23.41.55.61.92.01.01.02.02.02.03.93,1.67,1.89,4.43,2.09,5.03"/>
  <path class="cls-3" d="m60.88,39.17s.74.11,1.77-.69c1.02-.8,12.25-8.26,13.96-10.2,1.71-1.94,6.1-5.19,6.1-5.19"/>
  <path class="cls-3" d="m57.82,72.52s1.36.59,2.48.53c1.12-.06,3.01-.94,3.01-.94"/>
  <path class="cls-3" d="m55.03,37.31c-1.63.31-3.67-4.92-4.65-8.34-.79-2.78-1.25-11.96-1.31-13.36,0-.04,0-.1,0-.18"/>
  <path class="cls-3" d="m54.9,111.46c-.91-4.39-2.35-11.4-2.41-11.82-.09-.61-1.31-2.87-1.31-3.74s-.95-11.3-.69-16.35c.07-1.31.18-2.73.3-4.15.36-4.02.85-7.99.92-9.34.08-1.82-.44-12.25-1.27-16.17-.61-2.92-1.25-6.61-1.72-9.13-.16-.86-.3-1.58-.41-2.09-.43-2-1.74-8-1.91-10.61s-.17-7.82,0-9.82c.17-2.01-.09-2.23-.09-2.23"/>
  <path class="cls-3" d="m59.26,112.35c.16-3.6.42-9.79.36-11.13-.09-1.92-1.3-5.31-1.39-6.61-.09-1.31.87-6.44,1.3-8.87.44-2.44.76-12.69.76-12.69"/>
  <path class="cls-3" d="m62.87,35.57s-1.01,1.6-1.99,2.46-2.49,1.53-3.53,1.37-2.29-1.86-2.95-3.17-.71-2.89-.71-2.89"/>
  <line class="cls-3" x1="60.3" y1="40.96" x2="60.3" y2="38.75"/>
  <path class="cls-3" d="m59.21,30.16s-.62,1.13-.58,1.53.62.69.66.94-.39.59-.66.59"/>
  <path class="cls-3" d="m59.29,24.81s.53.78.53,1.78-.16,2.19.85,2.54,1.6,0,1.6,0c0,0-.34.97,0,1.47s1.25.62,1.25.62"/>
  <path class="cls-3" d="m59.29,25.25s-2.22.34-2.35,1.35-.44,2.16-1.22,2.6c-.78.44-2.63,2.03-2.63,2.03-.41.05-.92.82-.89,1.5.04.89,1.12,1.47,1.12,1.47"/>
  <path class="cls-3" d="m56.38,34.34s.49,1.32,1.61,1.52,2,0,2.45-.63"/>
  <circle class="cls-5" cx="56.84" cy="30.62" r=".46"/>
  <circle class="cls-5" cx="61.28" cy="31.53" r=".46"/>
  <path class="cls-3" d="m55.49,28.16s.51-.18,1.11-.14,1.23.62,1.23.62"/>
  <path class="cls-3" d="m86.55,21.92c0-.69-.35-1.44-.35-1.78"/>
  <path class="cls-3" d="m82.71,23.09s1.85-1.74,2.05-2.26c.2-.52.43-3.2.43-3.6s.75-.49.84,0c.08.49.17,2.56.17,2.91,0,0,3.23-3.02,3.84-3.04.61-.02-.15,1.2-.15,1.2l-2.14,1.92c.31-.21,3.01-2.02,3.37-1.71.38.34-.19.95-.19.95l-2.89,1.72c.28-.1,2.52-.91,2.89-1.09.4-.19.69.28.5.55s-3.03,1.83-2.74,2.11c.3.27,1.29.08,2.07.52.78.45-.49.72-.49.72l-2.88-.1s-.49.27-.93.61c-.44.33-1.92.7-1.92.7"/>
  <path class="cls-3" d="m87.75,20.22s-.03.02-.03.02"/>
  <path class="cls-3" d="m88.04,21.18s-.03,0-.03,0"/>
  <path class="cls-3" d="m46.31,16.02s-.84-1.27-.94-1.82c-.09-.54-.26-1.07-.26-1.07l-2.19-1.89s-.75-1.05.13-.85c.87.2,1.47,1.02,1.87,1.01.4,0-.63-3.07-.58-3.4.04-.33.58-.47.74-.06.16.38,1.25,2.49,1.39,2.75l-.96-3.22s0-.83.5-.82c.51.01,1.32,3.57,1.32,3.57l-.28-2.9s.28-1.41.71-.98c.44.43.76,4.84.76,4.84.24-.26,1.71-1.72,2.1-2.02.4-.3.89.27.62.57-.28.29-1.92,2.42-2.13,2.93-.16.41-.08,2.1-.05,2.77"/>
  <path class="cls-3" d="m48.52,11.18c-.23.25-.99.57-1.46,1.08"/>
  <path class="cls-3" d="m49.06,15.43c0,.08,0,.14,0,.18.01.06.01.1.01.1"/>
  <line class="cls-3" x1="46.48" y1="10.72" x2="46.47" y2="10.69"/>
  <path class="cls-3" d="m87.21,108.14c-1.65.55-2.8-2.05-3.06-2.55-.25-.5-2.8-4.26-3.15-4.61-.35-.35-1.61-.95-2.22-1.3-.6-.35,0-1.12,0-1.12,0,0,.36-.3.81-.64.61-.46,1.38-1.02,1.63-1.06.19-.03.54.27.9.63.48.48.99,1.09,1.19,1.24.11.08.33.41.58.81.42.68.92,1.6,1.09,1.91l-.44-.9s-1.23-2.09-1.25-2.1c-.03-.01-.57-.7-.63-.79-.07-.09-.28-.37-.28-.37l-.02-.05-.02-.07-.64-2.26s2.05-.3,2.84,0c.78.31,1.22.91,1.22,1.51s.1,1.8.8,2.7c.7.91,1.4,1.61,2.3,4.31.91,2.71,0,4.16-1.65,4.71Z"/>
  <path class="cls-3" d="m61.06,118.5c-.47.31-1.73,1.16-2.1,1.56-.38.41-1.36,2.14-2.52,2.92-1.15.79-3.32.48-4.92,0-1.59-.47-.61-2.24-.24-2.47.38-.24,2.24-2.14,2.75-2.75.51-.62.65-3.3.34-3.74-.3-.44-1.08-2.78-.61-2.75.2.01.65.09,1.14.2.71.16,1.48.39,1.58.61.17.38.51,1.67.51,1.67l2.21-.24.03-.58c0-.18.01-.38.03-.58l1.03.07s.16,1.02.3,1.53c.13.51.68.89,1.32,2.24.65,1.36-.37,2.01-.85,2.31Z"/>
  <path class="cls-3" d="m59.26,112.35c-.02.2-.03.4-.03.58l.02-.58h.01Z"/>
  <path class="cls-2" d="m85.51,60.48c-.22,2.17-.75,4.21-1.54,6.06-1.88,4.41-5.26,7.68-9.64,8.72l-1.32-5.55-5.34-22.41-1.02-4.3c.11-.09.24-.2.39-.32.15-.12.31-.25.49-.41h0c.36-.3.77-.64,1.22-1,.15-.12.3-.25.46-.38.15-.13.31-.25.47-.39.32-.26.64-.52.96-.79.65-.53,1.3-1.06,1.89-1.54.3-.24.59-.48.85-.69,1.16.49,2.28,1.13,3.33,1.92,1.68,1.22,3.21,2.79,4.52,4.63,1.67,2.37,2.96,5.2,3.71,8.33.66,2.78.83,5.54.56,8.12Z"/>
  <path class="cls-2" d="m51.71,66.06c-.07,1.35-.56,5.32-.92,9.34-2.04-.91-3.82-2.35-5.28-4.17-1.11-1.39-2.03-3-2.73-4.78-1.38-3.52-1.89-7.67-1.25-11.99.32-2.13.89-4.15,1.68-6,.84-1.99,1.93-3.79,3.21-5.33.71-.87,1.48-1.67,2.3-2.37.47,2.52,1.11,6.21,1.72,9.13.83,3.92,1.35,14.35,1.27,16.17Z"/>
  <line class="cls-9" x1="70.62" y1="70.27" x2="70.41" y2="70.32"/>
  <path class="cls-3" d="m54.26,37.09s-.02,4.6,1.48,5.61c1.5,1.01,2.91,1.91,4.29,1.02s2.62-5.24,2.62-5.24"/>
  <path class="cls-3" d="m64.47,32.97s2.55-6.6-3.07-8.75c-6.71-2.57-8.22,6.46-8.22,6.46,0,0-.03-3.03.03-3.8s.77-2.18.47-2.18-1.53-.66-1.53-.66c0,0,1.87-1.15,2-1.37s1.62-.98,2.48-1.21,2.42.37,2.42.37c0,0,3.91-1.49,5.82.76,1.14,1.33,1.19,1.25,1.6,1.44s.85.28.85.28c0,0-.19.59-.47.72s-.28,2.68-.18,3.33c.09.58.96,1.77,1.25,2.16-.02.49-.89.61-1.49,0-1.09,1.1-1.96,2.44-1.96,2.44.33.25.35,1.18-.03,1.75-.5.74-1.73.67-1.73.67"/>
  <path class="cls-3" d="m56.67,24.48s-2.01-3.25-2.08-5.44c-.07-2.19,1.04-5.68,1.04-5.68"/>
  <circle class="cls-2" cx="56.05" cy="11.89" r="1.47"/>
  <path class="cls-3" d="m64.62,25.99s3.05-2.31,3.91-4.33c.85-2.02,1.08-5.67,1.08-5.67"/>
  <circle class="cls-2" cx="69.74" cy="14.47" r="1.47"/>
  <ellipse class="cls-1" cx="59.74" cy="57.59" rx="5.39" ry="11.65" transform="translate(-5.2 5.94) rotate(-5.45)"/>
  <line class="cls-3" x1="81.48" y1="24.03" x2="83.56" y2="26.37"/>
  <line class="cls-3" x1="46.4" y1="18.24" x2="49.08" y2="17.85"/>
  <path class="cls-4" d="m54.9,50.6s1.4,1.17,3.88.96,4.52-1.48,4.52-1.48"/>
  <path class="cls-4" d="m54.37,54.83s1.63,1.17,4.52.96c2.89-.2,5.27-1.48,5.27-1.48"/>
  <path class="cls-4" d="m54.86,59.06s1.63,1.17,4.52.96c2.89-.2,5.27-1.48,5.27-1.48"/>
  <path class="cls-4" d="m55.71,63.76s1.49,1.17,4.13.96,4.81-1.48,4.81-1.48"/>
  <path d="m81.24,44.03c-.91,1.17-2.54,1.6-3.95.96-1.63-.76-2.35-2.7-1.59-4.34.24-.52.59-.94,1.02-1.25,1.68,1.22,3.21,2.79,4.52,4.63Z"/>
  <path d="m46.93,46.66c-.66,1.44-2.24,2.16-3.72,1.8.84-1.99,1.93-3.79,3.21-5.33.83.95,1.07,2.32.51,3.53Z"/>
  <path d="m72.71,41.22c-.48,1.04-1.44,1.71-2.49,1.87-.61.09-1.25.01-1.85-.27-.31-.14-.59-.33-.83-.55.36-.3.77-.64,1.22-1,.15-.12.3-.25.46-.38.15-.13.31-.25.47-.39.32-.26.64-.52.96-.79.65-.53,1.3-1.06,1.89-1.54.54.9.64,2.03.17,3.05Z"/>
  <circle cx="77.09" cy="55.07" r="3.27"/>
  <circle cx="46.27" cy="57.59" r="3.27"/>
  <path d="m45.59,71.08c-.02.05-.05.1-.08.15-1.11-1.39-2.03-3-2.73-4.78.41.01.82.1,1.21.29,1.64.76,2.36,2.7,1.6,4.34Z"/>
  <path d="m85.51,60.48c-.22,2.17-.75,4.21-1.54,6.06-1.43-.83-2.01-2.64-1.3-4.18.53-1.15,1.65-1.84,2.84-1.88Z"/>
  <ellipse class="cls-8" cx="55.62" cy="32.32" rx=".94" ry="1.27" transform="translate(3.35 69.81) rotate(-65.82)"/>
  <ellipse class="cls-8" cx="61.66" cy="33.52" rx=".94" ry="1.27" transform="translate(25.63 93.75) rotate(-87.64)"/>
  <rect class="cls-6" x="-115.71" y="-133.07" width="1496.63" height="1236.8"/>
</svg>