<?xml version="1.0" encoding="UTF-8"?>
<svg id="Calque_1" data-name="Calque 1" xmlns="http://www.w3.org/2000/svg" viewBox="0 0 128 128">
  <defs>
    <style>
      .cls-1 {
        fill: #87ccf3;
      }

      .cls-1, .cls-2, .cls-3, .cls-4, .cls-5, .cls-6, .cls-7, .cls-8, .cls-9, .cls-10, .cls-11 {
        stroke-linecap: round;
        stroke-linejoin: round;
      }

      .cls-1, .cls-2, .cls-3, .cls-5 {
        stroke: #231f20;
      }

      .cls-2 {
        fill: #baa584;
      }

      .cls-3 {
        fill: #bbfedb;
      }

      .cls-4, .cls-5 {
        fill: #fff;
      }

      .cls-4, .cls-7, .cls-12, .cls-13 {
        stroke: #000;
      }

      .cls-6 {
        stroke: #ff6d75;
      }

      .cls-6, .cls-7, .cls-8, .cls-9, .cls-10, .cls-11 {
        fill: none;
      }

      .cls-8 {
        stroke: #fab0b4;
      }

      .cls-9 {
        stroke: #8987f3;
      }

      .cls-10 {
        stroke: #87f3b9;
      }

      .cls-12 {
        fill: #e9cb61;
      }

      .cls-12, .cls-13 {
        stroke-miterlimit: 10;
      }

      .cls-11 {
        stroke: #fff;
        stroke-width: 8px;
      }

      .cls-13 {
        fill: #fab0b4;
        stroke-width: .75px;
      }
    </style>
  </defs>
  <path class="cls-2" d="m101.64,121.58l-16.27-1.28s-.39-2.48.46-4.36c.81-1.81-.31-3.11-1.42-5.26,1.03,1.06,4.6.91,6.95.59.29.47,3.19,4.77,4.15,5.46,1.06.76,5.81,1.77,6.13,4.85Z"/>
  <path class="cls-2" d="m82.52,120.3h-16.27s-.39-2.48.46-4.36c.81-1.81,2.23-3.74,1.12-5.89,1.03,1.06,4.3.95,6.65.63.29.47-1.09,3.52,1.91,6.05,1,.84,5.81.49,6.13,3.57Z"/>
  <path class="cls-1" d="m76.58,62.97s-3.47-1.13-9.55,4.84c-14.19,11.5-32.42,40.74-34.13,42.79-3.43,4.11-.78,9.83,13.25,9.7,8.2-.08,10.73-3.36,12.97-6.74.6-.9,5.84-9.79,8.54-15.3-.08,5.53-.66,13.83-.66,13.83-.42,3.92,8.39,2.85,8.39,2.85,14.94-49.97,1.19-51.97,1.19-51.97Z"/>
  <path class="cls-5" d="m59.13,88.42c-.48,5.48-.95,10.83-1.25,13.95-.81,8.38-4.89,19.57-22.63,17.45-.43-.05-.85-.12-1.24-.19h0c-7.28-1.61-8.31-5.82-5.63-9.03.79-.96,5.16-8.31,10.95-17.18,2.58-3.97,5.46-8.24,8.42-12.38,1.39,1.1,2.81,2.14,4.19,3.1,2.7,1.89,5.26,3.42,7.2,4.27Z"/>
  <path class="cls-5" d="m60.75,69.58s-.09,1.06-.23,2.81c-1.3-1.14-2.52-2.15-3.68-3.07.45-.52.89-1.02,1.34-1.5,1.58,1.03,2.58,1.76,2.58,1.76Z"/>
  <path class="cls-5" d="m44.07,102.14c-2.45-1.86-3.92-5.05-4.75-8.72,2.58-3.97,5.46-8.24,8.42-12.38,1.39,1.1,2.81,2.14,4.19,3.1,1.18,10.47-2.59,22.01-7.86,18Z"/>
  <path class="cls-5" d="m85.22,90.04c-.71,1.36-1.53.58-1.53.58l-.46-5.29c.17,0,.32,0,.44,0,.48,1.47,1,3.04,1.55,4.71Z"/>
  <path class="cls-7" d="m66.09,55.86s3.3-2.46,3.99-5.22c.84-3.33-1.93-4.63-1.93-4.63-.42-3.12-6.37-7.45-13.91-6.8-3.87.33-5.57,2.69-6.14,5.17"/>
  <path class="cls-7" d="m48.07,44.6s-2.52,2.69-1.99,5.74c.46,2.66,1.12,5.56.34,8.06"/>
  <path class="cls-4" d="m53.73,62.8c.42.59,2.74,2.37,5.16,3.33,2.57,1.01,3.07-.9,4.56-3.38,1.47-2.46,2.78-2.1,3.12-2.74.34-.65-1.36-2.89.02-5.71.15-.31.27-.6.37-.91.86-2.44.22-4.46-.22-5.55,0,0-4.79,3.49-5.71,3.99-.9.5-3.78,1.86-4.96.72-1.08-1.05-1.75-2.51-3.17-2.29-1.41.22-2.54,2.52-1.6,3.86,0,0-2.32,1.74-3.53,3.12l-4.03,4.4"/>
  <path class="cls-7" d="m62.97,63.58s-.24-1.11-4.8-2.44"/>
  <line class="cls-7" x1="53.19" y1="52.47" x2="53.71" y2="53"/>
  <line class="cls-7" x1="55.16" y1="64.04" x2="54.83" y2="66.3"/>
  <path class="cls-1" d="m56.84,69.32c.45-.52.89-1.02,1.34-1.5,4.86-5.41,8.08-7.87,11.33-7.69,2.71.16,7.22,3.79,13.55,22.82.48,1.47,1.61,5.42,2.16,7.09,2,6.09,4.44,13.54,7.4,22.62,0,0-6.72,4.87-8.21,1.22,0,0-10.83-17.97-15.63-29.43-5.73,12.2-12.44,26.91-13.47,28.46-2.25,3.39-5.48,7.31-13.68,7.4-3.06.03-5.57-.22-7.61-.67h0c-7.28-1.61-8.31-5.82-5.63-9.03.79-.96,5.16-8.31,10.95-17.18,2.58-3.97,5.46-8.24,8.42-12.38"/>
  <path class="cls-3" d="m53.71,73.1c.45-.52,4.02-4.79,4.47-5.28-3.88-2.54-11.28-6.87-16.21-6.65-.02,0-.03,0-.04,0,0,0-.02,0-.04,0h0c-1.14.06-2.13.37-2.92.99-8.34,6.61-6.67,28.92-8.6,31.82-1.89,2.83-12.31,22.71,3.64,25.65-7.28-1.61-8.31-5.82-5.63-9.03.79-.96,5.16-8.31,10.95-17.18,2.58-3.97,5.46-8.24,8.42-12.38,1.39,1.1,5.09-6.78,5.97-8.21"/>
  <path class="cls-3" d="m38.96,72.43s2.17,17.23,9.18,15.68c4-.88,7.22-26.93,7.22-26.93l-6.19-3.2-4.9,14.8"/>
  <path class="cls-5" d="m56.18,58.17c.7-.52,2.8-3.06,3.31-4.81s-.5-1.98-1.12-1.02c-.43.67-1.59,1.42-2.04,1.69s-.17-.71-.07-1.3c0,0,1.56-4.91.87-5.26-1.06-.52-2.61,4.64-2.61,4.64,0,0,1.35-7.01-.26-7.08-1.26-.06-1.66,6.54-1.66,6.54,0,0,.26-6.11-.83-5.89-1.38.28-.99,6.12-.99,6.12,0,0-.29-1.14-.63-2.91s-1.47-.79-1.15,2.08c.13,1.16.83,7.3.83,7.3l5.21,2.4,1.13-2.5Z"/>
  <path class="cls-7" d="m61.5,53.03s1.91,1.34,2.94,0"/>
  <path class="cls-9" d="m33.14,22.16c-1.88,6.58-8.74,10.38-15.32,8.5-5.26-1.51-8.31-6.99-6.8-12.25,1.2-4.21,5.59-6.65,9.8-5.44,3.37.96,5.32,4.47,4.35,7.84-.77,2.69-3.58,4.25-6.27,3.48-2.16-.62-3.4-2.86-2.79-5.02.49-1.72,2.29-2.72,4.01-2.23,1.38.39,2.18,1.83,1.78,3.21-.32,1.1-1.47,1.74-2.57,1.43-.88-.25-1.39-1.17-1.14-2.06"/>
  <path class="cls-8" d="m34.35,4.76c4.37-2.53,9.97-1.05,12.5,3.32,2.03,3.5.84,7.97-2.66,10-2.8,1.62-6.38.67-8-2.13-1.3-2.24-.54-5.1,1.7-6.4,1.79-1.04,4.08-.43,5.12,1.36.83,1.43.34,3.27-1.09,4.1-1.15.66-2.61.27-3.28-.87-.53-.92-.22-2.09.7-2.62.73-.43,1.67-.18,2.1.56"/>
  <path class="cls-6" d="m32.53,40.26c-3.14-3.96-2.47-9.71,1.49-12.85,3.17-2.51,7.77-1.98,10.28,1.19,2.01,2.53,1.58,6.22-.95,8.22-2.03,1.61-4.97,1.27-6.58-.76-1.29-1.62-1.01-3.98.61-5.26,1.3-1.03,3.18-.81,4.21.49.82,1.04.65,2.55-.39,3.37-.83.66-2.04.52-2.7-.31-.53-.66-.41-1.63.25-2.16"/>
  <path class="cls-10" d="m43.68,21.94c3.61-2.09,8.23-.86,10.32,2.74,1.67,2.89.69,6.58-2.19,8.26-2.31,1.34-5.27.55-6.6-1.76-1.07-1.85-.44-4.21,1.4-5.28,1.48-.86,3.37-.35,4.23,1.12.69,1.18.28,2.7-.9,3.38-.95.55-2.16.23-2.71-.72-.44-.76-.18-1.73.58-2.16.61-.35,1.38-.14,1.73.46"/>
  <path class="cls-10" d="m40.9,18.93c-.85,4.08-4.85,6.7-8.93,5.86-3.27-.68-5.36-3.88-4.69-7.14.54-2.61,3.1-4.29,5.71-3.75,2.09.43,3.43,2.48,3,4.57-.35,1.67-1.98,2.75-3.66,2.4-1.34-.28-2.2-1.59-1.92-2.93.22-1.07,1.27-1.76,2.34-1.54.86.18,1.41,1.02,1.23,1.87-.14.68-.81,1.12-1.5.98"/>
  <ellipse cx="62.48" cy="55.71" rx=".7" ry=".85"/>
  <polygon class="cls-12" points="54.81 7.77 55.85 11.32 58.79 9.06 57.55 12.55 61.25 12.45 58.19 14.54 61.25 16.64 57.55 16.53 58.79 20.02 55.85 17.76 54.81 21.32 53.76 17.76 50.83 20.02 52.07 16.53 48.36 16.64 51.42 14.54 48.36 12.45 52.07 12.55 50.83 9.06 53.76 11.32 54.81 7.77"/>
  <polygon class="cls-13" points="37.33 40.34 36.57 42.94 39.27 42.71 37.12 44.37 39.44 45.77 36.73 45.85 37.78 48.35 35.54 46.82 34.93 49.46 34.02 46.9 31.96 48.68 32.73 46.08 30.03 46.3 32.17 44.65 29.85 43.24 32.56 43.17 31.51 40.67 33.75 42.2 34.37 39.56 35.28 42.11 37.33 40.34"/>
  <path class="cls-9" d="m62.41,20.81c2.81,3,5.73,3.17,5.42,2.7-.67-1.03.23-2.45.23-2.45,0,0,.84,1.29,1.63,1.2s1.32-1.54,1.32-1.54c0,0,1.19,1.18.77,2.34-.19.54,2.61-.3,4.67-3.87,1.17,1.16,6.74,5.82,6.74,5.82,0,0-2.54-.65-3.43.03-.89.68-.26,3.17-.26,3.17,0,0-2.28-2.05-3.55-1.69-1.27.36-.98,2.68-.98,2.68l-2.95-3.03-.26,1.39-1.61-1.18-1.3,1.51-.56-1.3-2.19,3.63s-.24-2.33-1.56-2.38c-1.32-.05-3.08,2.46-3.08,2.46,0,0,.05-2.57-.97-3.03-1.02-.46-3.34.76-3.34.76,0,0,4.38-5.82,5.25-7.22Z"/>
  <rect class="cls-11" x="-4605.96" y="-4682.02" width="6467.34" height="6437.3"/>
</svg>