<?xml version="1.0" encoding="UTF-8"?><svg id="Calque_1" xmlns="http://www.w3.org/2000/svg" viewBox="0 0 200.13 128.13"><defs><style>.cls-1,.cls-2,.cls-3,.cls-4,.cls-5,.cls-6,.cls-7,.cls-8,.cls-9{stroke-linecap:round;stroke-linejoin:round;}.cls-1,.cls-2,.cls-3,.cls-5,.cls-6,.cls-7,.cls-8,.cls-9{stroke:#000;}.cls-1,.cls-3{fill:#a07637;}.cls-1,.cls-5,.cls-6,.cls-7,.cls-8{stroke-width:2px;}.cls-10,.cls-5{fill:#fff;}.cls-2{fill:#baa584;}.cls-4{stroke:#e30613;stroke-width:8px;}.cls-4,.cls-8{fill:none;}.cls-6{fill:#b2f0e9;}.cls-7{fill:#ff6d75;}.cls-9{fill:#fee4cb;stroke-width:.5px;}</style></defs><polygon class="cls-2" points="115.17 15.55 111.38 12.15 118.71 12.15 121.07 15.55 115.17 15.55"/><rect class="cls-4" x="-803.83" y="-681.51" width="2655.08" height="1511.77"/><rect class="cls-5" x="13.1" y="80.18" width="50.15" height="34.97"/><polygon class="cls-7" points="38.18 65.7 63.26 80.18 38.18 80.18 13.11 80.18 38.18 65.7"/><rect class="cls-6" x="23.13" y="88.58" width="12.49" height="9.91"/><polyline class="cls-1" points="54.26 114.83 54.26 91.98 45.26 91.98 45.26 114.83"/><rect class="cls-5" x="133.21" y="80.18" width="50.15" height="34.97"/><polygon class="cls-7" points="158.28 65.7 133.21 80.18 158.28 80.18 183.35 80.18 158.28 65.7"/><rect class="cls-6" x="160.85" y="88.58" width="12.49" height="9.91"/><polyline class="cls-1" points="142.21 114.83 142.21 91.98 151.2 91.98 151.2 114.83"/><path class="cls-10" d="m81.07,89.93s14.51-8.73,31.1,0"/><path class="cls-8" d="m81.07,89.93s13.39-8.06,29.15-.95"/><polygon points="100.98 94.31 100.25 92.44 109.43 88.85 105.18 79.95 106.99 79.09 112.17 89.93 100.98 94.31"/><polygon class="cls-3" points="92 37.81 92 59.85 112.24 59.85 116.53 58.34 116.53 37.81 92 37.81"/><polygon class="cls-2" points="112.24 37.81 112.24 59.85 116.53 58.34 116.53 37.81 112.24 37.81"/><rect class="cls-9" x="102.31" y="53.38" width="1.68" height="6.47"/><polygon class="cls-2" points="84.69 37.81 84.69 58.35 80.41 59.84 80.41 37.81 84.69 37.81"/><rect class="cls-3" x="60.16" y="37.81" width="20.25" height="22.04"/><rect class="cls-9" x="70.48" y="53.38" width="1.68" height="6.47"/><polygon class="cls-3" points="115.44 37.81 115.44 59.85 135.69 59.85 139.97 58.34 139.97 37.81 115.44 37.81"/><polygon class="cls-2" points="135.69 37.81 135.69 59.85 139.97 58.34 139.97 37.81 135.69 37.81"/><rect class="cls-9" x="125.76" y="53.38" width="1.68" height="6.47"/><polygon class="cls-3" points="115.17 15.55 115.17 37.59 135.42 37.59 139.7 36.08 139.7 15.55 115.17 15.55"/><polygon class="cls-2" points="135.42 15.55 135.42 37.59 139.7 37.81 139.7 15.55 135.42 15.55"/><rect class="cls-9" x="125.49" y="31.12" width="1.68" height="6.47"/><polygon class="cls-2" points="135.42 15.55 138.57 10.49 143.17 10.49 139.7 15.55 135.42 15.55"/><polygon class="cls-2" points="60.05 37.81 56.26 34.41 63.59 34.41 65.95 37.81 60.05 37.81"/><polygon class="cls-2" points="80.3 37.81 83.45 32.75 88.05 32.75 84.58 37.81 80.3 37.81"/></svg>