<?xml version="1.0" encoding="UTF-8"?>
<svg id="Calque_1" data-name="Calque 1" xmlns="http://www.w3.org/2000/svg" viewBox="0 0 200.13 128.13">
  <defs>
    <style>
      .cls-1 {
        fill: #ff6d75;
      }

      .cls-2 {
        fill: #baa584;
      }

      .cls-3 {
        fill: #fce9b9;
      }

      .cls-3, .cls-4 {
        stroke: #000;
        stroke-width: 2px;
      }

      .cls-3, .cls-4, .cls-5 {
        stroke-linecap: round;
        stroke-linejoin: round;
      }

      .cls-4 {
        fill: #fab0b4;
      }

      .cls-5 {
        fill: none;
        stroke: #fff;
        stroke-width: 8px;
      }
    </style>
  </defs>
  <path class="cls-3" d="m153.84,63.77c-3.17,2.58-4.91,4.36-8.03,5.08l-.06-4.52c1.81-1.68,6.73-4.99,8.07-5.65.05.15-.02,4.85.02,5.08Z"/>
  <path class="cls-3" d="m68.12,70.14c-.24.85-.26,7.78-.6,8.61-2.58-.73-4.85-2.95-7.3-3.86.1-.51-.19-3.2-.51-5.64-.03-.21-.37-2.86-.28-3.05l4.69,2.25s1.77,1.03,3.99,1.7Z"/>
  <g>
    <polygon class="cls-1" points="30.46 42.56 38.86 43.93 39.64 52.33 47.2 59.85 45.68 65.22 38.25 57.55 34.02 51.44 30.46 42.56"/>
    <polygon class="cls-1" points="158.51 41.36 159.78 47.57 157.92 54.51 154.62 56.98 154.85 62.66 160.49 57.37 165.32 48.68 169.97 39.65 158.51 41.36"/>
    <polygon class="cls-1" points="48.09 44.92 50.59 48.68 51.09 45.68 61.09 46.8 63.49 51 65.5 55.88 71.27 49.09 77.15 49.77 80.33 53.27 81.71 57.55 85.79 51.44 98.79 53.58 101.46 60.43 105.37 53.49 115.91 51.98 119.69 56.55 124.13 51 129.86 50.17 133.81 54.58 136.45 48.06 144.78 45.62 147.76 48.24 148.94 44.4 134.17 48.68 122.52 50.75 111.04 51.89 99.32 52.33 87.32 51.16 71.24 48.02 53.45 45.22 48.09 44.92"/>
  </g>
  <path class="cls-3" d="m52.42,62.95c-.15.88,1.23,6.78.99,7.64-1.94-.95-2.35-1.27-4.18-2.43,0,0-2.83-1.93-3-2.75-.35-1.71.22-3.01.54-4.73.1-.55.32-.63.42-.83l5.23,3.1Z"/>
  <path class="cls-4" d="m175.3,38.66c-.24.05-2.05.41-4.12.79-1.87.33-3.94.66-5.25.78-7.93.71-15.98,3.24-23.8,5.6-.1.03-.15.05-.15.05l-3.13.93-.81.24s0,0-.02,0c-.98.28-1.97.56-2.94.83-2.36.64-4.72,1.25-7.09,1.8h0c-.69.16-1.39.33-2.08.48t-.02,0c-3.31.72-6.64,1.34-9.98,1.8,0,0-.03,0-.08,0-.08,0-.16.02-.24.03-.05,0-.11.02-.17.03-.19.02-.42.05-.69.08-.09,0-.18.02-.28.04-.15.02-.3.04-.45.05-.12.02-.24.04-.36.05-.4.05-.79.09-1.18.13-.12,0-.24.03-.36.04-1.13.12-3.01.24-4.37.33-1.63.07-3.27.11-4.92.09-1.47-.02-2.97-.09-4.48-.21,0,0-.11,0-.3-.03-.09,0-.17-.02-.26-.03-.06,0-.14,0-.2-.02-.15,0-.31-.02-.46-.05-.05,0-.08,0-.13,0-.04,0-.08-.02-.13-.02-.11,0-.22-.02-.33-.04-.6-.05-1.2-.11-1.8-.19-.24-.02-.47-.05-.71-.08-.24-.02-.47-.05-.72-.08-.3-.04-.56-.07-.75-.1-.05,0-.1-.02-.15-.02-.1-.02-.21-.04-.31-.05h0c-.13-.02-.25-.04-.38-.06-.28-.05-.59-.1-.92-.15-1.14-.15-2.29-.34-3.45-.56-.12,0-.24-.04-.36-.06-.2-.04-.35-.05-.46-.07-.03,0-.05,0-.06,0-.05,0-.08-.02-.08-.02h0c-3.78-.68-7.58-1.46-11.3-2.21-3.7-.75-7.32-1.48-10.77-2.01-1.72-.27-3.41-.52-5.05-.75-.04,0-.08,0-.13-.02-.09-.02-.21-.03-.34-.05-.13-.02-.28-.05-.44-.06-.09-.02-.19-.03-.29-.05-.17-.02-.35-.05-.53-.07-.61-.08-1.3-.18-1.99-.27-.18-.02-.35-.05-.53-.07-.53-.07-1.03-.15-1.51-.21-.21-.03-.41-.05-.6-.08-.57-.07-1.03-.14-1.32-.18-.09,0-.16-.02-.22-.03-.05,0-.07,0-.07,0-1.45-.2-2.89-.39-4.33-.59l-.2-.03-6.09-.87-.28-.05c-3.57-.54-7.23-1.16-11.11-1.94l-2.06-.46-.08-.02-.55-.13-.48-.11-.24-.05-.35-.08-.49-.11-.1-.03c1.54-.44,4.63-1.08,6.07-1.41,3.6-.83,7.16-1.8,10.76-2.61,8.34-1.9,16.8-3.29,25.3-4.2,6.28-.67,12.66-1.04,18.95-.28,5.55.68,11.2,4.43,16.63,4.43,5.72,0,11.25-5.07,16.94-6.02,2.8-.46,5.67-.34,8.5-.16,15.29.98,30.04,3.99,44.84,7.81,1.4.36,2.29.6,2.44.65Z"/>
  <path class="cls-4" d="m175.27,40.46c-.93,8.39-7.23,20.08-12.08,26.72-12.03,16.46-28.62,26.57-48.85,29.66-23.37,3.57-53.26.3-68.39-20.1-8.43-11.37-14.61-23.76-21.16-36.27.06,0,.12,0,.18.03l.49.11.35.08.24.05.48.11.55.13s.08.02.08.02c2.68.92,3.85,4.17,4.89,6.51,1.38,3.11,2.98,5.96,5.08,8.66,12.11,15.58,31.15,25.3,50.6,27.38,20.77,2.22,42-3.74,59.65-14.9,5.38-3.4,10.62-7.4,14.17-12.77,3.46-5.24,5.03-11.94,9.63-16.41,2.07-.38,3.88-.74,4.12-.79.05.46.05,1.06-.04,1.8Z"/>
  <path class="cls-3" d="m24.97,40.49c.77.07,1.5.25,2.19.5l-.08-.02-.55-.13-.48-.11-.24-.05-.35-.08-.49-.11Z"/>
  <path class="cls-3" d="m43.11,56.51c.32.34.64.69.97,1.03-1.2-1-2.35-2.48-3.09-3.33.71.76,1.41,1.52,2.12,2.29Z"/>
  <path class="cls-3" d="m146.69,63h0s-.04.03-.1.06c.04,0,.07-.04.1-.06Z"/>
  <path class="cls-3" d="m65.48,60.29h0c-.03.97-.09,2.41-.16,3.84-.11,2.4-.24,4.78-.24,4.78l-2.73-1.32-.56-.27-5.47-2.66-4.24-2.06s-.37-3.78-1.19-8.19c-.83-4.41.35-9.49.35-9.49,0,0,.03,0,.07,0,.05,0,.13.02.22.03.29.05.75.11,1.32.18.19.03.39.05.6.08.47.06.98.14,1.51.21.17.03.34.05.53.07.69.09,1.38.19,1.99.27.18.03.36.05.53.07.1.02.2.03.29.05.16.02.32.05.44.06.14.02.25.04.34.05.05,0,.09,0,.13.02,1.19.16,3.78,2.71,5.42,7.94.56,1.78.79,4.07.84,6.32Z"/>
  <path class="cls-3" d="m65.44,64.17c-.12,2.7-.36,4.74-.36,4.74,0,0,.13-2.38.24-4.78.07-1.43.14-2.87.16-3.84.05,1.34.02,2.68-.04,3.87Z"/>
  <path class="cls-3" d="m81.29,63.71c0,.25,0,.53,0,.81,0,.19,0,.39,0,.58v.06c0,.19,0,.38,0,.56-.03,1.22-.06,2.54-.09,3.73-.02.87-.04,1.67-.05,2.28,0,.09,0,.17,0,.25v.08c0,.2,0,.36-.02.5,0,.25,0,.4,0,.4,0,0-1.7-.15-3.54-.36-.14,0-.26-.03-.4-.05-1.33-.15-2.68-.32-3.47-.48-1.03-.21-3.34-1.06-5.3-1.83-.09-.04-.18-.07-.26-.1-1.68-.66-3.04-1.23-3.04-1.23,0,0,.24-2.04.36-4.74.05-1.2.08-2.53.04-3.87h0c.02-.37.03-.66.03-.86,0-1.58,1.17-4.82,2.74-7.01,1.76-2.47,4.22-4.21,6.79-3.64,3.13.68,5.21,4.06,6.05,9.36.16,1.02.21,3.19.2,5.57Z"/>
  <path class="cls-3" d="m65.44,64.17c-.12,2.7-.36,4.74-.36,4.74,0,0,.13-2.38.24-4.78.07-1.43.14-2.87.16-3.84.05,1.34.02,2.68-.04,3.87Z"/>
  <path class="cls-3" d="m81.27,65.17c0,1.51-.05,3.01-.07,4.3-.03.89-.05,1.68-.07,2.27,0-.61.03-1.41.05-2.28.04-1.37.07-2.92.1-4.29Z"/>
  <path class="cls-3" d="m101.06,71.69c-.15,1.69-.3,2.85-.3,2.85,0,0-4.79.34-10.54,0-.27-.02-.55-.04-.82-.05-.29-.03-.57-.05-.85-.08-4.19-.43-7.46-1.43-7.46-1.43,0,0,0-.15,0-.4,0-.14.02-.3.02-.5v-.08c0-.08,0-.16,0-.25.03-.59.05-1.38.07-2.27.03-1.29.06-2.79.07-4.3v-.06c0-.19,0-.39,0-.58,0-.28,0-.55,0-.81.04-3.3,1.33-6.53,2.05-8.82.69-2.19,2.82-3.75,3-3.89h0s.03,0,.08.02c.02,0,.04,0,.06,0,.11.02.26.04.46.07.12.03.24.05.36.06,1.15.22,2.3.41,3.45.56.33.05.63.1.92.15.13.03.25.05.38.06h0c.1,0,.21.03.31.05.05,0,.11,0,.15.02.19.03.45.06.75.1.24.03.48.06.72.08.24.03.47.06.71.08.61.08,1.21.15,1.8.19.11.02.22.03.33.04.08,0,.17.03.25.03.15.03.31.04.46.05.06,0,.14.02.2.02.09,0,.17.02.26.03.19.02.3.03.3.03,0,0,.22.68,1.36,2.33,1.15,1.65,1.6,5.1,1.73,7.59.15,2.82-.12,6.58-.35,9.13Z"/>
  <path class="cls-3" d="m81.27,65.17c0,1.51-.05,3.01-.07,4.3-.03.89-.05,1.68-.07,2.27,0-.61.03-1.41.05-2.28.04-1.37.07-2.92.1-4.29Z"/>
  <path class="cls-3" d="m87.32,51.16c.9.15,2.29.37,3.45.56-1.14-.15-2.29-.34-3.45-.56Z"/>
  <path class="cls-3" d="m94,52.18c.91.1,1.99.22,2.84.31-.93-.07-1.89-.18-2.84-.31Z"/>
  <path class="cls-3" d="m96.84,52.49c.35.04.67.06.92.09-.3-.02-.61-.05-.92-.09Z"/>
  <path class="cls-3" d="m120.04,62.84v9.65s-2.27,1-6.72,1.74c-.31.05-.62.09-.94.15-.43.05-.87.12-1.33.17-2.59.31-9-.22-9-.22v-12.87s.54-2.61,1.45-4.91c1.02-2.58,2.53-3.71,2.53-3.71,0,0,.71-.04,1.69-.1,1.36-.08,3.24-.21,4.37-.33.12,0,.24-.03.36-.04.39-.04.78-.07,1.18-.13.12,0,.24-.03.36-.05.15-.02.31-.04.45-.05.1-.02.19-.03.28-.04.27-.04.5-.06.69-.08.06,0,.12-.02.17-.03.08,0,.16-.02.24-.03.05,0,.08,0,.08,0,0,0,2.14,1.18,2.83,3.2.91,2.65,1.3,5.45,1.3,7.66Z"/>
  <path class="cls-3" d="m134.23,69.01s-4.09,1.78-5.92,2.49c-.74.28-2.28.51-3.82.67-2.21.23-4.45.33-4.45.33v-11.97c0-3.35,1.03-5.6,2.26-7.31,1.03-1.44,3.32-2.87,3.6-3.04t.02,0c.69-.15,1.39-.32,2.08-.48h0c.18.09,2.87,1.42,4.05,2.68,1.23,1.3,1.86,4.1,2.03,5.78.18,1.67.14,10.86.14,10.86Z"/>
  <path class="cls-3" d="m127.99,49.68c-.69.16-1.39.33-2.08.48h0s2.07-.48,2.07-.48Z"/>
  <path class="cls-3" d="m147.22,50.79c-.05,2-.51,11.83-.53,12.21h0s-.04.03-.1.06c-.08.05-.22.14-.39.24-.83.5-2.52,1.53-3.75,2.26-.39.23-.73.43-.98.57-.08.05-.18.1-.29.16-.11.06-.23.13-.34.18-.19.1-.4.21-.62.33-1.41.73-3.33,1.69-4.17,2.11-.27.13-1.89.63-1.89.63l.22-2.02s-.24-8.42-.22-10.3c.03-1.88.62-4.62,1.59-6.84.97-2.22,2.29-3.35,2.29-3.35l.81-.24,3.13-.93s.05-.02.15-.05c.57-.14,2.61-.57,3.65.4.56.52,1.48,2.17,1.42,4.56Z"/>
  <path class="cls-3" d="m150.58,43.33s-1.15,1.53-1.88,3.01c-.58,1.17-1.41,2.34-1.48,4.45s-.49,11.62-.49,11.62c0,0,5.24-3,6.89-4.32,1.65-1.32,3.58-2.92,4.31-3.58s1.1-4.82,1.1-4.82c0,0,.23-5.45,0-6.71-.23-1.25-.51-1.62-.51-1.62l-7.93,1.97Z"/>
  <path class="cls-3" d="m50.86,61.63s-5.21-2.77-6.74-4.05c-.02,0-.03-.03-.05-.04-1.2-1-2.35-2.48-3.09-3.33-.03-.03-.05-.05-.07-.08-.15-.16-.26-.3-.37-.4-.65-.63-.81-2.95-.81-2.95,0,0-.2-5.11,0-6.28l.21-1.18.39.05.28.05,6.09.87.2.03s1.36,1.94,2.01,3.33c.51,1.09,1.25,2.19,1.32,4.15.06,1.98.63,9.82.63,9.82Z"/>
  <path class="cls-3" d="m101.46,71.7l-1.15,4.03.25,7.82c-3.99.2-7.34.41-11.41.04-.05-.44-.07-5.99-.04-6.65.03-.53.14-1.7.28-2.15.26.02.54.04.82.05,5.75.34,10.54,0,10.54,0,0,0,.15-1.47.3-3.16h.24s.15.02.15.02Z"/>
  <path class="cls-3" d="m81.2,69.46c-.03.89-.05,1.68-.07,2.27,0-.61.03-1.41.05-2.28h.03Z"/>
  <path class="cls-3" d="m88.55,74.65c-.07.89-.2,7.44-.41,8.32-3.66-.32-7.3-.85-10.89-1.6,0-.44.04-6.14.21-6.84.07-.32.18-1.14.29-1.41,1.81.18,3.47.31,3.47.31,0,0,3.21.86,7.33,1.23Z"/>
  <path class="cls-3" d="m77.15,72.56c-.16.99-.38,7.03-.65,7.99-3-.73-5.65-1.65-8.52-2.74.07-.41-.14-5.95.02-6.51.11-.38.24-.73.38-1.06,1.96.77,4.26,1.62,5.3,1.83.8.16,2.14.34,3.47.48Z"/>
  <path class="cls-3" d="m65.44,64.17c-.12,2.7-.36,4.74-.36,4.74,0,0,.13-2.38.24-4.78l.13.04Z"/>
  <path class="cls-3" d="m59.43,66.2c-.15.88.99,7.22.75,8.08-1.94-.95-4.76-2.12-6.59-3.27,0,0-.14-.71-.31-1.54-.35-1.71-.25-2.18-.62-4.31-.1-.55-.34-2.01-.25-2.22l7.01,3.25Z"/>
  <path class="cls-3" d="m113.33,81.95c-3.17.58-6.99,1.2-10.2,1.43-.6.05-1.19.08-1.8.11l-.03-6.67-.15-5.11h.15s.74-.05.74-.05v2.68s6.4.53,9,.22c.46-.05,1.49-.21,1.92-.26.15.46.32.88.35,1.44,0,.19.02,6.05.02,6.22Z"/>
  <path class="cls-3" d="m124.84,78.05c-3.61,1.19-7.29,2.14-11.01,2.87l.22-6.46c4.45-.74,5.99-1.96,5.99-1.96,0,0,2.24-.1,4.45-.33.06.15.12.32.16.49.07.26.14,5.16.18,5.39Z"/>
  <path class="cls-3" d="m134.88,75.43c-3.61,1.19-5.82,2.86-9.54,3.59l-.51-6.68c4.45-.74,5.48-1.4,5.48-1.4,0,0,2.01-1.17,4.23-1.39.06.15.12.32.16.49.07.26.14,5.16.18,5.39Z"/>
  <path class="cls-3" d="m145.26,69.56c-3.78,2.58-5.84,4.36-9.56,5.08l-.07-5.52c2.08-.35,8.01-3.99,9.61-4.65.06.15-.02,4.85.02,5.08Z"/>
  <path class="cls-2" d="m68.05,55.83c-.87,2.22-.14,6.29,3.61,3.66s6.56-3.36,8.4-1.27c0,0-1.03-8.55-5.87-8.55-3.78,0-5.21,3.76-6.15,6.16Z"/>
  <path class="cls-2" d="m95.69,56.02s-5.26,3.28-3.85,4.88,6.57,2.06,6.76-.38c.19-2.44-.75-4.79-2.91-4.5Z"/>
  <path class="cls-2" d="m51.83,48.51s1.33,8.03,4.21,7.52c2.88-.51,6.41-5.95,3.33-7.78-3.08-1.83-6.68-2.34-7.53.25Z"/>
  <path class="cls-2" d="m82.64,61.09c1.41,1.03,7.7,7.04,7.13,2.63s1.22-10.72.19-11-3.47-.69-3.47-.69c0,0-1.46,1.05-2.35,3.57-1.13,3.19-1.5,5.49-1.5,5.49Z"/>
  <path class="cls-2" d="m103.45,60.06c-.3,1.81,5.07,7.46,7.53,4.79,2.46-2.67,2.04-4.93,3.87-4.22,1.83.7,3.87-.21,3.87-1.13s-.92-4.43-1.41-5c-.49-.56-1.69-1.55-1.69-1.55l-9.22.92s-2.25,1.97-2.96,6.19Z"/>
  <path class="cls-2" d="m126.38,61.37c-.84,0-1.78,3.19.47,2.72s2.53-1.13,2.25-2.35c-.28-1.22-2.72-.38-2.72-.38Z"/>
  <path class="cls-2" d="m60.02,58.55c-.84,0-1.78,3.19.47,2.72,2.25-.47,2.53-1.13,2.25-2.35-.28-1.22-2.72-.38-2.72-.38Z"/>
  <path class="cls-2" d="m150.15,62.53c-.61,0-1.29,2.45.34,2.09s1.84-.87,1.63-1.8c-.2-.94-1.97-.29-1.97-.29Z"/>
  <path class="cls-2" d="m95.01,78.19c-.84,0-1.78,3.19.47,2.72,2.25-.47,2.53-1.13,2.25-2.35s-2.72-.38-2.72-.38Z"/>
  <path class="cls-2" d="m129.1,53.49c-1.59-.07-2.82.94-.84,3.28,1.97,2.35,4.13,2.53,4.41,1.41s-1.31-4.6-3.57-4.69Z"/>
  <path class="cls-2" d="m63.09,71.18c-1.24-.06-2.19.81-.66,2.84,1.54,2.03,3.22,2.19,3.44,1.22s-1.02-3.97-2.78-4.05Z"/>
  <path class="cls-2" d="m141.77,47.1c-1.52,1.01-1.6,6.29-2.53,7.41-.94,1.13.47,6.1,2.82,3.28s3.83,1.22,3.83,1.22c0,0,.39-7.23.3-8.92s-.58-3.24-1.54-3.44c-.67-.14-1.75-.32-2.87.43Z"/>
  <path class="cls-2" d="m40.69,49.17s3.75,4.5,5.91,2.44c2.16-2.06,1.22-2.82.84-4.04s-1.13-2.29-1.13-2.29l-5.63-.81v4.69Z"/>
  <path class="cls-2" d="m69.03,77.19s-.14-2.71,2.04-2.63c2.18.07,4.5,4.77,4.5,4.77l-6.55-2.14Z"/>
  <path class="cls-2" d="m78.32,77.65c.77-.84,1.97-2.46,3.45-2.04,1.48.42,1.97,3.87,3.03,4.01s2.53,2.39,2.53,2.39c0,0-8.31-1.13-9.22-1.55l.21-2.82Z"/>
  <path class="cls-2" d="m102.34,78.78c.99-1.2,2.59-3.31,4.98-1.06,2.39,2.25,4.97,3.59,4.97,3.59,0,0-8.09,1.06-9.92,1.06l-.03-3.59Z"/>
  <path class="cls-2" d="m125.91,73.15s4.54-.78,6.19-.18c1.26.46-.3,2.33,0,2.33.7,0-5.83,2.63-5.83,2.63l-.37-4.79Z"/>
  <rect class="cls-5" x="-1248.39" y="-2129.49" width="6467.34" height="6437.3"/>
</svg>