<?xml version="1.0" encoding="UTF-8"?>
<svg id="Calque_1" data-name="Calque 1" xmlns="http://www.w3.org/2000/svg" viewBox="0 0 128 128">
  <defs>
    <style>
      .cls-1 {
        fill: #b2f0e9;
      }

      .cls-2 {
        stroke: #000;
        stroke-width: 2px;
      }

      .cls-2, .cls-3 {
        fill: none;
        stroke-linecap: round;
        stroke-linejoin: round;
      }

      .cls-3 {
        stroke: #fff;
        stroke-width: 8px;
      }
    </style>
  </defs>
  <g>
    <path class="cls-1" d="m99.17,58.12h-9.68l-6.19,12c1.87,2.85,5.59,9.51,6.3,18.22.64,7.67-1.07,16.97-8.45,26.61.9.75,2.11,1.15,3.85,1.04,14.97-.99,11.81-47.94,11.81-47.94,0,0,.13-.32.36-.92.04-.11.09-.23.14-.37.4-1.06.99-2.73,1.64-4.82.27-.85.54-1.77.81-2.75.09-.35.19-.71.29-1.07h-.88Z"/>
    <path class="cls-1" d="m44.17,108.82c-.96.84-2.35,1.22-4.31.98-16.1-1.85-13.49-48.23-13.49-48.23-15.89-26.06-5.47-51.21,20.67-48.23,1.16.14,2.32.35,3.42.58,0,0-28.46,11.12-11.46,45.37,0,0-10.34,18.76,5.18,49.53Z"/>
    <path class="cls-2" d="m100.06,58.12c-.1.36-.2.72-.29,1.07-.28.98-.55,1.9-.81,2.75-.65,2.09-1.24,3.76-1.64,4.82-.05.14-.1.26-.14.37-.23.6-.36.92-.36.92,0,0,3.16,46.95-11.81,47.94-1.74.11-2.95-.29-3.85-1.04-1.83-1.6-2.17-4.78-2.17-8.63,0-9.65,2.11-23.32-11.96-25.56l1.65-5.92h12.48l2.15-4.72,1.02-2.23,4.83-10.6,6.65.51,4.25.32Z"/>
    <path class="cls-2" d="m78.65,23.07c-7.49,1.45-18.68-5.7-19.13-5.99h0"/>
    <path class="cls-2" d="m79.73,64l-2.15,4.72h-12.48l-1.65,5.92c-1.21-.2-2.55-.31-4.02-.32-22.93-.24-8.31,28.69-15.26,34.51-.96.84-2.35,1.21-4.32.98-16.09-1.85-13.49-48.23-13.49-48.23-15.89-26.06-5.47-51.22,20.67-48.23,1.16.14,2.32.34,3.42.58,5.07,1.12,9.06,3.15,9.06,3.15h.02s-.02,0-.02,0c11.17-5.94,18.97-5.03,18.97-5.03,20.78-.11,22.2,17.23,19.86,31.5l-.03.06c-.3.46-2.75,4.1-6.08,8.08l-6.65-.51-4.83,10.6-1.02,2.23Z"/>
    <line class="cls-2" x1="100.06" y1="49.81" x2="104.82" y2="41.03"/>
    <line class="cls-2" x1="102.44" y1="53.05" x2="109.16" y2="50.78"/>
  </g>
  <rect class="cls-3" x="-1250.63" y="-1884.35" width="6467.34" height="6437.3"/>
</svg>