<?xml version="1.0" encoding="UTF-8"?>
<svg id="Calque_1" data-name="Calque 1" xmlns="http://www.w3.org/2000/svg" viewBox="0 0 128 128">
  <defs>
    <style>
      .cls-1 {
        fill: #fff;
      }

      .cls-1, .cls-2, .cls-3, .cls-4, .cls-5, .cls-6 {
        stroke: #000;
        stroke-miterlimit: 10;
      }

      .cls-2 {
        fill: #eff8f6;
      }

      .cls-3 {
        fill: #b2f0e9;
      }

      .cls-4 {
        fill: #8987f3;
      }

      .cls-5 {
        fill: #77eddf;
      }

      .cls-7 {
        stroke: #fff;
        stroke-linecap: round;
        stroke-linejoin: round;
        stroke-width: 8px;
      }

      .cls-7, .cls-6 {
        fill: none;
      }
    </style>
  </defs>
  <path class="cls-5" d="m91.49,118.19h-20.46s-3.54.46-5.64-5.75v-.46c1.87,2.44,4.86,3.89,7.99,3.83l15.06-.28c.85-.02,1.65.29,2.26.88.33.32.57.71.74,1.12l.05.67Z"/>
  <path class="cls-1" d="m91.58,119.3c-.11.51-.35,1-.73,1.41-.64.69-1.57,1.11-2.52,1.13l-14.72.28c-4.42.09-8.1-3.43-8.19-7.83l-.04-1.85c2.1,6.21,5.64,5.75,5.64,5.75h20.46l.1,1.11Z"/>
  <polygon class="cls-2" points="68.59 112.34 60.38 112.55 60.1 101.63 64.21 101.53 68.31 101.42 68.59 112.34"/>
  <polygon class="cls-3" points="76.29 69.66 75.47 103.46 69.23 103.62 69.22 103.62 64.43 103.74 53.38 104.02 50.76 69.66 76.29 69.66"/>
  <polygon class="cls-3" points="77.57 18.06 76.79 49.68 49.26 49.68 46.91 18.84 48.27 18.8 77.57 18.06"/>
  <polygon class="cls-4" points="76.79 49.68 76.29 69.66 50.76 69.66 49.26 49.68 76.79 49.68"/>
  <polygon class="cls-2" points="80.82 19.87 43.85 20.81 42.33 12.91 81.93 11.9 80.82 19.87"/>
  <path class="cls-2" d="m67.06,56.2c-.12-.67-.65-1.16-1.42-1.31-.54-.11-1.07-.04-1.65.21,0,0,0,0,0,0-.66.29-1.32.28-2.01-.01-.29-.12-.59-.2-.93-.23-.74-.07-1.5.26-1.84.81-.18.29-.27.62-.28,1.05-.01.73.18,1.34.58,1.88.07.1.13.19.19.29l.05.08c.13.22.2.46.19.71,0,.22.06,1.76.14,2.3.08.58.22,1.07.44,1.51.19.38.38.61.65.77.11.04.18.02.23-.02.46-.3.68-1.95.7-3.03,0-.51.41-.93.92-.95,0,0,.01,0,.02,0,0,0,0,0,0,0,0,0,0,0,0,0,0,0,0,0,.01,0,.24,0,.47.1.65.28.18.18.28.42.28.68.02,1.08.25,2.73.71,3.03.05.03.12.06.23.01.37-.2.87-1.31,1-1.91.16-.77.23-1.61.2-2.65v-.05c0-.1-.01-.23.05-.35l.02-.04c.1-.23.21-.46.37-.68.5-.7.67-1.47.5-2.37Z"/>
  <line class="cls-6" x1="49.26" y1="49.68" x2="49.24" y2="49.68"/>
  <path class="cls-6" d="m65.39,112.44s-.01-.01-.01-.02"/>
  <rect class="cls-7" x="-4756.38" y="-678.71" width="6562.35" height="1176.7"/>
</svg>