<?xml version="1.0" encoding="UTF-8"?>
<svg id="Calque_1" data-name="Calque 1" xmlns="http://www.w3.org/2000/svg" viewBox="0 0 128 128">
  <defs>
    <style>
      .cls-1 {
        fill: #b2f0e9;
      }

      .cls-2 {
        stroke: #000;
        stroke-width: 2px;
      }

      .cls-2, .cls-3 {
        fill: none;
        stroke-linecap: round;
        stroke-linejoin: round;
      }

      .cls-3 {
        stroke: #fff;
        stroke-width: 8px;
      }
    </style>
  </defs>
  <path class="cls-1" d="m51.81,112.58c-.96.84-2.35,1.22-4.31.98-16.1-1.85-13.49-48.23-13.49-48.23-15.89-26.06-5.47-51.21,20.67-48.23,1.16.14,2.32.35,3.42.58,0,0-28.46,11.12-11.46,45.37,0,0-10.34,18.76,5.18,49.53Z"/>
  <path class="cls-1" d="m100.89,65.68s3.16,46.96-11.81,47.94c-1.74.12-2.95-.29-3.85-1.04,7.38-9.64,9.09-18.93,8.45-26.61-.96-11.73-7.38-19.74-7.38-19.74,8.11-1.65,18.99-17.86,19.66-18.88l.03-.06c-1.62,9.93-5.1,18.38-5.1,18.38Z"/>
  <path class="cls-2" d="m67.18,20.83h-.02s.01,0,.01,0c0,0,0,0-.01,0,0,0-4-2.03-9.06-3.16-1.1-.23-2.26-.43-3.42-.58-26.14-2.98-36.56,22.18-20.67,48.23,0,0-2.61,46.38,13.49,48.23,1.97.23,3.36-.14,4.31-.98,6.95-5.82-7.67-34.74,15.26-34.51,18.47.17,15.98,15.4,15.98,25.88,0,3.85.35,7.04,2.17,8.63.9.75,2.11,1.16,3.85,1.04,14.97-.98,11.81-47.94,11.81-47.94,0,0,3.47-8.45,5.1-18.38,2.35-14.27.93-31.61-19.86-31.5,0,0-7.8-.91-18.96,5.02,0,0,11.5,7.48,19.13,6"/>
  <rect class="cls-3" x="-413.62" y="-958.15" width="6467.34" height="6437.3"/>
</svg>