<?xml version="1.0" encoding="UTF-8"?>
<svg id="Calque_1" data-name="Calque 1" xmlns="http://www.w3.org/2000/svg" viewBox="0 0 128 128">
  <defs>
    <style>
      .cls-1 {
        fill: #87ccf3;
      }

      .cls-1, .cls-2, .cls-3, .cls-4, .cls-5 {
        stroke: #000;
      }

      .cls-1, .cls-2, .cls-3, .cls-4, .cls-5, .cls-6 {
        stroke-linecap: round;
        stroke-linejoin: round;
      }

      .cls-2, .cls-7 {
        fill: #b2f0e9;
      }

      .cls-3 {
        fill: #fff;
      }

      .cls-4, .cls-5, .cls-6 {
        fill: none;
      }

      .cls-5 {
        stroke-width: 1.06px;
      }

      .cls-6 {
        stroke: #fff;
        stroke-width: 8px;
      }
    </style>
  </defs>
  <circle class="cls-3" cx="104.91" cy="22.83" r="17.71"/>
  <g>
    <path class="cls-3" d="m50.03,74.64l-.81,4.84c-.04.27-.29.46-.56.43h0c-.27-.03-.48-.27-.46-.55l.15-2.35,1.68-2.37Z"/>
    <path class="cls-3" d="m52.4,73.47c-.4,1.49-.41,2.51-.38,3.05.03.29-.16.55-.43.61-.04.01-.1.02-.14.02-.24,0-.47-.16-.54-.41-.17-.56-.39-1.53-.34-2.62l-.69,1.4-1.65,3.37-.31.63c-.12.24-.41.34-.64.2-.14-.08-.22-.23-.22-.39,0-.02.01-.05.01-.07l1.1-6.9s.4-2.48.52-4.22c0-.03.01-.07.01-.11,0-.01,0-.02.01-.04.07-.5.37-.94.86-1.11.72-.26,1.5.12,1.74.84l.04.12.07.23.28.82s1.35,2.19.7,4.59Z"/>
  </g>
  <path class="cls-2" d="m60.08,125.95l-9.36.12c-.69,0-1.26-.54-1.28-1.23h0c-.01-.48.25-.92.67-1.15l7.96-4.26c.18-.1.39-.15.6-.15h4.06c.59,0,1.1.41,1.23.99l.78,3.49c.02.08.03.16.03.24l.02.61c.02.7-.54,1.29-1.25,1.29l-1.61.02-1.85.02Z"/>
  <rect class="cls-3" x="58.25" y="111.67" width="5.5" height="7.62"/>
  <polygon class="cls-3" points="76.26 111.67 70.76 111.67 71.14 119.28 76.64 119.28 76.26 111.67"/>
  <path class="cls-1" d="m74.45,56.93c.36,3.82,2.9,59.43,2.9,59.43h-7.43l-3.26-49.96-1.34.03-.87,49.93h-7.42s-.41-51.96.03-59.31l17.39-.12Z"/>
  <path class="cls-2" d="m74.8,125.96l9.36.12c.69,0,1.26-.54,1.28-1.23h0c.01-.48-.25-.92-.67-1.15l-7.96-4.26c-.18-.1-.39-.15-.6-.15h-4.06c-.59,0-1.1.41-1.23.99l-.78,3.49c-.02.08-.03.16-.03.24l-.02.61c-.02.7.54,1.29,1.25,1.29l1.61.02,1.85.02Z"/>
  <g>
    <polygon class="cls-2" points="72.34 28.41 72.34 57.23 58.99 57.23 58.99 29.65 61.19 25.54 63.55 29.65 65.92 27.24 68.29 29.65 70.19 25.54 72.34 28.41"/>
    <g>
      <polygon class="cls-2" points="65.92 27.24 63.55 29.65 61.19 25.54 62.79 24.58 63.91 25.54 65.92 27.24"/>
      <polygon class="cls-2" points="70.19 25.54 68.29 29.65 65.92 27.24 67.61 25.54 68.59 24.54 70.19 25.54"/>
    </g>
  </g>
  <path class="cls-3" d="m78.26,48.62c.56.76.74,1.69.78,2.31l-.78-2.31Z"/>
  <path class="cls-3" d="m82.83,39.26l-4.8,7.69-.11.1-.16.15-.05-.15-1.74-5.06.15,5.06v.43s-.57-.05-.57-.05l-.32,1.5-.54,2.54-.49,2.32,2.12.15.79,27.27h-7.96l.58-31.2.03-1.92-.29,1.22.11-2.83v-.25s.14-3.46.14-3.46l.26-7.15.19-10.07,4.82,2.03c.95.22,4.31,1.46,6.66,7.92.17.48.34.97.5,1.51.23.77.44,1.51.66,2.25Z"/>
  <path class="cls-3" d="m55.01,81.2l.41-27.12-2.13,14.04-1.86-.05h-.13l-2.58-.07h-.01l-2.02-.05s2.45-19.73,3.54-29.47c1.05-9.4,5.59-10.67,5.59-10.67l5.37-2.27.76,23.76h0s1.02,31.91,1.02,31.91h-7.96Z"/>
  <polyline class="cls-5" points="61.06 25.68 57.42 29.65 59.95 31.34 58.25 33.32 61.95 49.3"/>
  <polygon class="cls-1" points="85.62 34.76 82.83 39.26 78.03 46.95 77.92 47.04 77.76 47.19 77.71 47.04 76.12 47.04 76.13 47.48 75.55 47.42 75.23 48.93 73.1 49.31 69.6 46.48 69.55 46.45 69.61 46.23 70.21 43.57 73.26 37.05 81.67 35.5 85.62 34.76"/>
  <path class="cls-3" d="m77.71,47.04h-1.59l-.57.38-.32,1.5-.54,2.54-.49,2.32,2.12.15,6.27.46c.26.04.51.04.75-.01,1.68-.37,2.29-2.99,1.97-4.67-.44-2.37-1.23-6-2.49-10.46l-4.8,7.69-.11.1h-.21Z"/>
  <path class="cls-3" d="m72.96,47.15l2.6.28-.32,1.5-.54,2.54c-2.18-.3-3.5-.83-3.5-.83l-1.45-.64-1.66-.72c-.76-.4-1.24-1.19-1.24-2.04v-.61c0-.48.15-.95.43-1.35l.63-1.37c.44-.6,1.09-1.03,1.83-1.15.02,0,.04-.01.06-.01l.82-.08-.4.9c4.03.42,2.74,3.58,2.74,3.58Z"/>
  <path class="cls-4" d="m65.12,3.62s0,1.14-.41,1.9h-.01"/>
  <path class="cls-4" d="m62.91,6c-.9-.52-1.51-1.84-1.51-1.84"/>
  <path class="cls-4" d="m60.07,16.44h-.01c-.11-.02-.84-.21-1.27-1.38-.47-1.26-1.01-1.11-1.05-2.41-.03-1.23,1.24-.7,1.38-.62"/>
  <path class="cls-4" d="m70.47,5.23s-.88.52-1.86.7"/>
  <path class="cls-3" d="m61.06,6.56c.56.03,1.21-.1,1.86-.56.27.17.56.25.86.21.43-.04.72-.33.92-.69.01,0,.02.02.03.02.12.11.9.8,1.86-.13.5.6,1.29.66,2.03.53.44.34,1.04.3,1.04.3.03.05.08.11.11.16,1.8,2.54,1.97,4.26,1.99,4.45.11-.45.19-.88.25-1.29-.1.76-.24,1.31-.27,1.43h0s0,.03,0,.03h.01c.03.72.03,2.58-.26,4.51-.25,1.6-.73,3.25-1.61,4.31-2.03,2.47-3.35,2.52-3.55,2.51-.2.05-1.59.26-3.99-1.88-1.03-.91-1.76-2.47-2.25-4.01-.59-1.86-.86-3.7-.95-4.41h.01c-.02-.08-.02-.16-.02-.26.03.07.05.11.05.11-.02-.3-.03-.6-.02-.89.19-1.49,1.56-3.96,1.72-4.39l.2-.04Z"/>
  <path class="cls-4" d="m59.13,10.99c-.04.28-.05.54-.03.78"/>
  <path class="cls-4" d="m59.12,12.02s0-.01-.01-.02h0c-.06-.15-.39-.88-.61-1.88v-.03c-.45-1.99-.46-5,2.85-6.34,0,0,.2-1.09,1.6-.92,0,0,1.62-1.77,3.57-.32,1.36-.38,1.73.66,1.73.66,3.74.88,3.98,4.25,3.76,6.26,0,.04-.01.07-.01.1"/>
  <path class="cls-4" d="m69.79,6.6s1.92,2.8,1.92,4.41"/>
  <path class="cls-4" d="m59.08,11.72h0s0,.13.03.28h0s0,.03,0,.03"/>
  <path class="cls-4" d="m71.72,11.01v-.02"/>
  <path class="cls-4" d="m71.71,10.7s0,.1.01.28"/>
  <path class="cls-4" d="m71.45,15.51h.01c.1-.04.8-.34,1.05-1.56.27-1.31.82-1.25.67-2.54-.16-1.22-1.33-.5-1.46-.4"/>
  <path class="cls-4" d="m67.38,4.3c-.24.45-.49.79-.72,1.03-.03.03-.05.07-.08.08"/>
  <path class="cls-4" d="m64.73,5.54l-.02-.02"/>
  <path class="cls-3" d="m66.03,10.85s.43,3.87,1.27,5.81c0,0-.16.4-1.42.15"/>
  <ellipse class="cls-3" cx="63.43" cy="12.7" rx=".13" ry=".39" transform="translate(-.79 4.93) rotate(-4.42)"/>
  <ellipse class="cls-3" cx="68.76" cy="12.19" rx=".13" ry=".39" transform="translate(-.74 5.34) rotate(-4.42)"/>
  <line class="cls-3" x1="62.79" y1="24.58" x2="63.64" y2="21.48"/>
  <line class="cls-3" x1="68.59" y1="24.54" x2="68.2" y2="21.48"/>
  <rect class="cls-3" x="71.64" y="32.16" width="5.14" height="1.53"/>
  <g>
    <path class="cls-7" d="m101.64,33.32c-.21.18-.5.26-.93.21-3.46-.4-2.9-10.36-2.9-10.36-3.41-5.6-1.18-11,4.44-10.36.25.03.5.07.73.12,0,0-6.11,2.39-2.46,9.75,0,0-2.22,4.03,1.11,10.64Z"/>
    <path class="cls-7" d="m112.18,23.24s.68,10.09-2.54,10.3c-.37.02-.63-.06-.83-.22,1.59-2.07,1.95-4.07,1.82-5.72-.21-2.52-1.59-4.24-1.59-4.24,1.74-.35,4.08-3.84,4.22-4.05h0c-.35,2.12-1.09,3.94-1.09,3.94Z"/>
    <path class="cls-4" d="m104.94,13.61h0s0,0,0,0c0,0,0,0,0,0,0,0-.86-.44-1.95-.68-.24-.05-.49-.09-.73-.12-5.62-.64-7.85,4.76-4.44,10.36,0,0-.56,9.96,2.9,10.36.42.05.72-.03.93-.21,1.49-1.25-1.65-7.46,3.28-7.41,3.97.04,3.43,3.31,3.43,5.56,0,.83.07,1.51.47,1.85.19.16.45.25.83.22,3.22-.21,2.54-10.3,2.54-10.3,0,0,.75-1.82,1.09-3.95.5-3.07.2-6.79-4.27-6.77,0,0-1.68-.2-4.07,1.08,0,0,2.47,1.61,4.11,1.29"/>
  </g>
  <rect class="cls-6" x="-1118.77" y="-68.12" width="2179.47" height="547.09"/>
</svg>