<?xml version="1.0" encoding="UTF-8"?>
<svg id="Calque_1" data-name="Calque 1" xmlns="http://www.w3.org/2000/svg" viewBox="0 0 128 128">
  <defs>
    <style>
      .cls-1 {
        fill: #bfe6fc;
      }

      .cls-1, .cls-2, .cls-3, .cls-4 {
        stroke: #000;
        stroke-width: 2px;
      }

      .cls-1, .cls-2, .cls-3, .cls-4, .cls-5 {
        stroke-linecap: round;
        stroke-linejoin: round;
      }

      .cls-2 {
        fill: #fff;
      }

      .cls-3, .cls-5 {
        fill: none;
      }

      .cls-4 {
        fill: #fab0b4;
      }

      .cls-5 {
        stroke: #fff;
        stroke-width: 8px;
      }
    </style>
  </defs>
  <g>
    <g>
      <path class="cls-1" d="m105.63,36.37l-4.28,46.37-2.94,31.78c-.29,3.27-3.61,5.78-7.6,5.78h-53.6c-3.99,0-7.31-2.52-7.62-5.78l-2.92-31.78-4.28-46.37h83.24Z"/>
      <polyline class="cls-3" points="22.39 36.37 19.73 7.69 108.27 7.69 105.63 36.37"/>
      <polygon class="cls-3" points="26.67 82.75 26.65 82.75 22.39 36.37 26.67 82.75"/>
    </g>
    <g>
      <path class="cls-4" d="m96.31,89.34l.51,5.1c-36.61,33.28-64.19.36-64.19.36l.8-4.5s30.14,20.85,62.88-.96Z"/>
      <path class="cls-4" d="m29.74,77.4l.61-6.29s21.99-.84,35.68,5.13c0,0,9.39-4.63,30.78-7.12l2.22,7.12s-26.12,30.88-69.29,1.16Z"/>
      <path class="cls-2" d="m96.31,89.34c-1.86,1.5-2.87,2.55-4.69,2.97l-.03-2.64c1.06-.98,3.93-2.91,4.72-3.3.03.09-.01,2.83.01,2.97Z"/>
      <path class="cls-2" d="m46.21,93.06c-.14.5-.15,4.55-.35,5.03-1.51-.43-2.83-1.73-4.27-2.26.06-.3-.11-1.87-.3-3.3-.02-.12-.22-1.67-.16-1.78l2.74,1.32s1.04.6,2.33.99Z"/>
      <path class="cls-3" d="m37.04,88.86c-.09.51.72,3.96.58,4.47-1.13-.56-1.38-.75-2.44-1.42,0,0-1.65-1.13-1.75-1.61-.2-1,.13-1.76.31-2.76.06-.32.19-.37.24-.49l3.06,1.81Z"/>
      <path class="cls-3" d="m31.59,85.1c.19.2.38.4.57.6-.7-.58-1.37-1.45-1.81-1.95.41.45.83.89,1.24,1.34Z"/>
      <path class="cls-3" d="m92.13,88.89h0s-.02.02-.06.04c.02,0,.04-.02.06-.04Z"/>
      <path class="cls-2" d="m44.67,87.3h0c-.02.57-.05,1.41-.1,2.25-.06,1.4-.14,2.79-.14,2.79l-1.6-.77-.33-.16-3.2-1.55-2.48-1.2s-.22-2.21-.69-4.79c-.48-2.58.21-5.54.21-5.54,0,0,.02,0,.04,0,.03,0,.07.01.13.02.17.03.44.06.77.11.11.02.23.03.35.05.28.04.57.08.88.12.1.02.2.03.31.04.4.05.81.11,1.16.16.11.02.21.03.31.04.06.01.12.02.17.03.1.01.19.03.26.04.08.01.15.02.2.03.03,0,.05,0,.07.01.69.1,2.21,1.58,3.17,4.64.33,1.04.46,2.38.49,3.69Z"/>
      <path class="cls-3" d="m44.64,89.57c-.07,1.58-.21,2.77-.21,2.77,0,0,.07-1.39.14-2.79.04-.84.08-1.68.1-2.24.03.78.01,1.56-.02,2.26Z"/>
      <path class="cls-2" d="m53.9,89.31c0,.15,0,.31,0,.47,0,.11,0,.23,0,.34v.04c0,.11,0,.22,0,.33-.02.71-.04,1.48-.05,2.18-.01.51-.02.98-.03,1.33,0,.05,0,.1,0,.15v.05c0,.12,0,.21-.01.29,0,.15,0,.23,0,.23,0,0-.99-.09-2.07-.21-.08,0-.15-.02-.23-.03-.78-.08-1.56-.19-2.03-.28-.6-.12-1.95-.62-3.1-1.07-.05-.02-.11-.04-.15-.06-.98-.39-1.78-.72-1.78-.72,0,0,.14-1.19.21-2.77.03-.7.05-1.48.02-2.26h0c.01-.22.02-.39.02-.5,0-.92.68-2.81,1.6-4.1,1.03-1.44,2.46-2.46,3.97-2.13,1.83.4,3.05,2.37,3.54,5.47.1.6.12,1.87.12,3.25Z"/>
      <path class="cls-3" d="m44.64,89.57c-.07,1.58-.21,2.77-.21,2.77,0,0,.07-1.39.14-2.79.04-.84.08-1.68.1-2.24.03.78.01,1.56-.02,2.26Z"/>
      <path class="cls-3" d="m53.89,90.15c0,.88-.03,1.76-.04,2.51-.02.52-.03.98-.04,1.32,0-.36.02-.82.03-1.33.02-.8.04-1.71.06-2.51Z"/>
      <path class="cls-2" d="m65.46,93.97c-.09.99-.17,1.66-.17,1.66,0,0-2.8.2-6.16,0-.16-.01-.32-.02-.48-.03-.17-.02-.33-.03-.5-.05-2.45-.25-4.36-.84-4.36-.84,0,0,0-.08,0-.23,0-.08.01-.17.01-.29v-.05s0-.1,0-.15c.02-.34.03-.81.04-1.32.02-.75.04-1.63.04-2.51v-.04c0-.11,0-.23,0-.34,0-.16,0-.32,0-.47.02-1.93.78-3.82,1.2-5.16.4-1.28,1.65-2.19,1.75-2.27h0s.02,0,.05.01c.01,0,.02,0,.04,0,.06.01.15.02.27.04.07.02.14.03.21.04.67.13,1.35.24,2.01.33.19.03.37.06.54.08.07.02.15.03.22.04h0c.06,0,.12.02.18.03.03,0,.06,0,.09.01.11.02.26.04.44.06.14.02.28.04.42.05.14.02.28.04.41.05.36.05.7.08,1.05.11.06.01.13.02.19.02.05,0,.1.02.15.02.09.02.18.02.27.03.04,0,.08.01.12.01.05,0,.1.01.15.02.11.01.17.02.17.02,0,0,.13.4.79,1.36.67.96.93,2.98,1.01,4.44.09,1.65-.07,3.85-.21,5.34Z"/>
      <path class="cls-3" d="m53.89,90.15c0,.88-.03,1.76-.04,2.51-.02.52-.03.98-.04,1.32,0-.36.02-.82.03-1.33.02-.8.04-1.71.06-2.51Z"/>
      <path class="cls-3" d="m57.43,81.97c.52.08,1.34.22,2.01.33-.67-.09-1.34-.2-2.01-.33Z"/>
      <path class="cls-3" d="m61.33,82.56c.53.06,1.16.13,1.66.18-.55-.04-1.1-.11-1.66-.18Z"/>
      <path class="cls-3" d="m62.99,82.75c.21.02.39.04.54.05-.17-.01-.36-.03-.54-.05Z"/>
      <path class="cls-2" d="m76.55,88.8v5.64s-1.32.58-3.93,1.02c-.18.03-.36.05-.55.08-.25.03-.51.07-.78.1-1.52.18-5.26-.13-5.26-.13v-7.52s.31-1.53.85-2.87c.6-1.51,1.48-2.17,1.48-2.17,0,0,.41-.02.99-.06.79-.05,1.89-.12,2.55-.19.07,0,.14-.02.21-.02.23-.02.46-.04.69-.07.07,0,.14-.02.21-.03.09-.01.18-.02.26-.03.06-.01.11-.02.16-.02.16-.02.29-.04.4-.05.04,0,.07-.01.1-.02.05,0,.1-.01.14-.02.03,0,.05,0,.05,0,0,0,1.25.69,1.65,1.87.53,1.55.76,3.19.76,4.48Z"/>
      <path class="cls-2" d="m84.84,92.4s-2.39,1.04-3.46,1.45c-.43.16-1.33.3-2.23.39-1.29.13-2.6.19-2.6.19v-7c0-1.96.6-3.27,1.32-4.27.6-.84,1.94-1.67,2.1-1.78t.01,0c.4-.09.81-.19,1.21-.28h0c.11.05,1.67.83,2.37,1.57.72.76,1.09,2.4,1.19,3.38.11.98.08,6.35.08,6.35Z"/>
      <path class="cls-2" d="m92.43,81.75c-.03,1.17-.3,6.92-.31,7.13h0s-.02.02-.06.04c-.05.03-.13.08-.23.14-.48.29-1.47.9-2.19,1.32-.23.13-.42.25-.57.33-.05.03-.11.06-.17.1-.06.04-.13.07-.2.11-.11.06-.23.12-.36.19-.82.42-1.95.99-2.44,1.23-.16.07-1.1.37-1.1.37l.13-1.18s-.14-4.92-.13-6.02c.02-1.1.36-2.7.93-4,.57-1.3,1.34-1.96,1.34-1.96l.47-.14,1.83-.55s.03-.01.09-.03c.33-.08,1.53-.33,2.14.23.33.3.86,1.27.83,2.67Z"/>
      <path class="cls-2" d="m94.4,77.39s-.67.9-1.1,1.76c-.34.68-.82,1.37-.87,2.6s-.29,6.79-.29,6.79c0,0,3.06-1.75,4.03-2.53.97-.77,2.09-1.7,2.52-2.09s.64-2.82.64-2.82c0,0,.13-3.19,0-3.92s-.3-.95-.3-.95l-4.63,1.15Z"/>
      <path class="cls-2" d="m36.12,88.09s-3.05-1.62-3.94-2.37c-.01,0-.02-.02-.03-.02-.7-.58-1.37-1.45-1.81-1.95-.02-.02-.03-.03-.04-.05-.08-.1-.15-.17-.22-.23-.38-.37-.47-1.72-.47-1.72,0,0-.12-2.98,0-3.67l.12-.69.23.03.16.03,3.56.51.12.02s.79,1.13,1.18,1.95c.3.64.73,1.28.77,2.43.04,1.16.37,5.74.37,5.74Z"/>
      <path class="cls-2" d="m65.69,93.98l-.67,2.35.15,4.57c-2.33.12-4.29.24-6.67.03-.03-.26-.04-3.5-.02-3.89.02-.31.08-1,.16-1.26.15.01.32.02.48.03,3.36.2,6.16,0,6.16,0,0,0,.08-.86.17-1.85h.14s.09.01.09.01Z"/>
      <path class="cls-3" d="m53.85,92.67c-.02.52-.03.98-.04,1.32,0-.36.02-.82.03-1.33h.02Z"/>
      <path class="cls-2" d="m58.15,95.7c-.04.52-.12,4.35-.24,4.86-2.14-.19-4.27-.5-6.36-.94,0-.25.03-3.59.12-4,.04-.19.1-.67.17-.82,1.06.1,2.03.18,2.03.18,0,0,1.88.5,4.28.72Z"/>
      <path class="cls-2" d="m51.49,94.47c-.1.58-.22,4.11-.38,4.67-1.75-.43-3.3-.96-4.98-1.6.04-.24-.08-3.48.01-3.8.06-.22.14-.43.22-.62,1.14.45,2.49.95,3.1,1.07.47.1,1.25.2,2.03.28Z"/>
      <path class="cls-3" d="m44.64,89.57c-.07,1.58-.21,2.77-.21,2.77,0,0,.07-1.39.14-2.79l.07.02Z"/>
      <path class="cls-2" d="m41.13,90.76c-.09.51.58,4.22.44,4.72-1.13-.56-2.78-1.24-3.85-1.91,0,0-.08-.41-.18-.9-.2-1-.14-1.27-.36-2.52-.06-.32-.2-1.18-.14-1.29l4.1,1.9Z"/>
      <path class="cls-2" d="m72.63,99.96c-1.85.34-4.09.7-5.96.84-.35.03-.69.05-1.05.06l-.02-3.9-.08-2.99h.08s.43-.03.43-.03v1.57s3.74.31,5.26.13c.27-.03.87-.12,1.12-.15.08.27.19.51.2.84,0,.11.01,3.54.01,3.64Z"/>
      <path class="cls-2" d="m79.35,97.68c-2.11.69-4.26,1.25-6.43,1.67l.13-3.77c2.6-.43,3.5-1.15,3.5-1.15,0,0,1.31-.06,2.6-.19.04.09.07.19.1.29.04.15.08,3.01.11,3.15Z"/>
      <path class="cls-2" d="m85.23,96.16c-2.11.69-3.4,1.67-5.58,2.1l-.3-3.9c2.6-.43,3.2-.82,3.2-.82,0,0,1.18-.68,2.47-.81.04.09.07.19.1.29.04.15.08,3.01.11,3.15Z"/>
      <path class="cls-2" d="m91.29,92.73c-2.21,1.5-3.42,2.55-5.59,2.97l-.04-3.23c1.21-.2,4.68-2.33,5.61-2.72.04.09-.01,2.83.01,2.97Z"/>
    </g>
  </g>
  <rect class="cls-5" x="-1415.21" y="-1884.35" width="6467.34" height="6437.3"/>
</svg>