<?xml version="1.0" encoding="UTF-8"?>
<svg id="Calque_1" data-name="Calque 1" xmlns="http://www.w3.org/2000/svg" viewBox="0 0 128 128">
  <defs>
    <style>
      .cls-1 {
        fill: #87ccf3;
      }

      .cls-1, .cls-2, .cls-3, .cls-4, .cls-5, .cls-6, .cls-7, .cls-8 {
        stroke-linecap: round;
        stroke-linejoin: round;
      }

      .cls-1, .cls-2, .cls-3, .cls-5 {
        stroke: #231f20;
      }

      .cls-2 {
        fill: #baa584;
      }

      .cls-3 {
        fill: #bbfedb;
      }

      .cls-4, .cls-5 {
        fill: #fff;
      }

      .cls-4, .cls-6, .cls-8 {
        stroke: #000;
      }

      .cls-6, .cls-7 {
        fill: none;
      }

      .cls-7 {
        stroke: #fff;
        stroke-width: 8px;
      }
    </style>
  </defs>
  <g>
    <path class="cls-2" d="m102.28,114.8l-16.31-1.28s-.39-2.49.46-4.37c.82-1.81-.31-3.12-1.42-5.28,1.04,1.07,4.61.91,6.97.59.29.47,3.2,4.78,4.16,5.47,1.07.77,5.82,1.77,6.15,4.86Z"/>
    <path class="cls-2" d="m83.12,113.52h-16.31s-.39-2.49.46-4.37c.82-1.81,2.24-3.75,1.12-5.91,1.04,1.07,4.31.95,6.67.63.29.47-1.09,3.53,1.91,6.07,1,.85,5.82.49,6.15,3.58Z"/>
    <path class="cls-1" d="m80.41,55.54s-5.42-2.17-12.83,5.36c-14.23,11.52-32.5,40.84-34.21,42.9-3.44,4.12-.78,9.86,13.28,9.72,8.22-.08,13.26-3.85,15.51-7.25.6-.9,2.81-5.03,5.51-10.55-.08,5.55-.11,9.57-.11,9.57-.42,3.93,8.41,2.86,8.41,2.86,14.98-50.1,4.44-52.6,4.44-52.6Z"/>
    <path class="cls-5" d="m59.67,81.56c-.48,5.49-.95,10.85-1.26,13.98-.81,8.4-4.9,19.62-22.69,17.49-.43-.05-.85-.12-1.25-.19h0c-7.3-1.62-8.33-5.83-5.64-9.05.79-.96,5.17-8.33,10.98-17.23,2.59-3.98,5.47-8.26,8.44-12.41,1.4,1.1,2.82,2.15,4.2,3.11,2.71,1.89,5.27,3.43,7.22,4.28Z"/>
    <path class="cls-5" d="m61.3,62.67s-.09,1.06-.24,2.82c-1.3-1.14-2.53-2.16-3.69-3.08.45-.52.89-1.02,1.34-1.51,1.59,1.03,2.58,1.77,2.58,1.77Z"/>
    <path class="cls-5" d="m44.57,95.32c-2.46-1.87-3.93-5.06-4.76-8.74,2.59-3.98,5.47-8.26,8.44-12.41,1.4,1.1,2.82,2.15,4.2,3.11,1.18,10.49-2.6,22.07-7.88,18.04Z"/>
    <path class="cls-5" d="m85.82,83.18c-.71,1.37-1.53.58-1.53.58l-.46-5.3c.17,0,.32,0,.44,0,.48,1.48,1,3.04,1.55,4.72Z"/>
    <path class="cls-1" d="m93.24,105.85s-6.73,4.88-8.23,1.22c0,0-10.1-15.15-14.92-26.64-5.74,12.23-13.22,24.12-14.26,25.67-2.25,3.4-5.49,7.33-13.72,7.42-3.07.03-5.59-.22-7.63-.67h0c-7.3-1.62-8.33-5.83-5.64-9.05.79-.96,5.17-8.33,10.98-17.23,2.59-3.98,5.47-8.26,8.44-12.41,1.4,1.1,2.82,2.15,4.2,3.11,2.71,1.89,5.27,3.43,7.22,4.28,1.15.51,2.08.78,2.7.75,2.09-.13,3.98-2.06,5.41-4.23,4.98.39,13.51.4,16.04.38.17,0,.32,0,.44,0,.48,1.48,1,3.04,1.55,4.72,2.01,6.11,4.45,13.57,7.42,22.67Z"/>
    <path class="cls-5" d="m83.54,75.18s.02.02.03.02c.37.17,3.59,1.81,2.9,5.78-.18,1.05-.42,1.76-.65,2.21-.55-1.68-1.08-3.25-1.55-4.72-.12,0-.27,0-.44,0-2.53.02-11.07,0-16.04-.38.31-.47.6-.95.87-1.42-.67-2.05-1.06-3.86-1.07-5.31,3.61.86,12.78,2.47,15.51,3.62l.44.21Z"/>
    <path class="cls-5" d="m67.59,71.35c0,1.44.39,3.26,1.07,5.31-.27.47-.56.95-.87,1.42-1.13-.09-2.08-.2-2.73-.34-2.58-.54-4.14-2.02-17.4-8.05-13.26-6.04-8.99-12.63-8.99-12.63,6.93-7.13,25.86,13.22,27.64,13.93.24.09.68.22,1.29.36Z"/>
    <g>
      <path class="cls-6" d="m66.65,48.92s3.31-2.46,4-5.23c.84-3.34-1.93-4.64-1.93-4.64-.42-3.13-6.39-7.47-13.94-6.82-3.88.33-5.59,2.69-6.16,5.18"/>
      <path class="cls-6" d="m48.58,37.64s-2.53,2.69-2,5.75c.46,2.67,1.12,5.58.35,8.08"/>
      <path class="cls-4" d="m54.25,55.88c.42.59,2.75,2.38,5.17,3.34,2.57,1.01,3.08-.9,4.57-3.39,1.48-2.47,2.79-2.1,3.13-2.75.34-.66-1.37-2.89.02-5.73.16-.31.27-.6.37-.91.86-2.44.22-4.47-.22-5.57,0,0-4.8,3.5-5.72,4-.91.5-3.79,1.87-4.97.72-1.08-1.05-1.76-2.52-3.17-2.3-1.41.22-2.55,2.52-1.6,3.87,0,0-2.32,1.75-3.54,3.13l-4.04,4.41"/>
      <ellipse class="cls-8" cx="62.79" cy="48.27" rx=".92" ry=".42" transform="translate(-9.71 80.13) rotate(-61.28)"/>
      <path class="cls-6" d="m63.52,56.66s-.24-1.12-4.81-2.44"/>
      <line class="cls-6" x1="53.71" y1="45.52" x2="54.23" y2="46.05"/>
      <line class="cls-6" x1="62.38" y1="45.69" x2="64.72" y2="45.32"/>
    </g>
    <line class="cls-6" x1="55.68" y1="57.12" x2="55.36" y2="59.38"/>
    <path class="cls-1" d="m61.06,65.49c-1.3-1.14-2.53-2.16-3.69-3.08.45-.52.89-1.02,1.34-1.51,4.87-5.42,9.39-9.05,12.65-8.87,2.72.16,4.28,1.44,5.01,3.51,0,0,.38.35,6.72,19.42-2.72-1.15-11.9-2.76-15.51-3.62,0-.28,0-.55.04-.8-.42-.1-.81-.19-1.08-.23-1.08-.18-3.23-2.8-3.23-2.8-.78-.71-1.53-1.39-2.26-2.03Z"/>
    <path class="cls-3" d="m70.61,72c.06.75-3.59,10.04-8.24,10.3-.62.04-1.55-.24-2.7-.75-1.95-.86-4.51-2.39-7.22-4.28-1.38-.96-2.8-2.01-4.2-3.11-2.97,4.15-5.85,8.43-8.44,12.41-5.81,8.9-10.19,16.27-10.98,17.23-2.69,3.22-1.66,7.43,5.64,9.05-15.99-2.94-5.54-22.87-3.65-25.71,1.94-2.91.27-25.28,8.62-31.9.79-.63,1.79-.93,2.93-1h0s.04,0,.04,0c0,0,.02,0,.04,0,4.94-.23,12.37,4.12,16.25,6.66-.45.49-.89.99-1.34,1.51,1.16.92,2.39,1.94,3.69,3.08.73.64,1.48,1.32,2.26,2.03,0,0,2.16,2.62,3.23,2.8,1.08.17,3.99.94,4.06,1.68Z"/>
  </g>
  <path d="m55.66,32.29c.15-.56.09-1.13-.41-1.47-.59-.41-1.34-.27-1.9.11-.68.48-1.43,2.05-2.43,1.67-.88-.34-.97-1.44-.67-2.2.35-.87,1.07-1.57,1.74-2.21.8-.76,1.67-1.45,2.6-2.04.57-.36,1.95-1.4,2.66-.91,1.51,1.05-3.53,3.8-4.26,4.22-.93.54-1.89,1.05-2.84,1.55-.91.48-1.84,1.03-2.87,1.22-.94.17-2.14-.04-2.64-.96-.46-.84-.09-1.9.29-2.7,1.63-3.55,4.56-6.47,8.08-8.15.85-.4,1.92-.88,2.53.13.52.86.19,1.84-.35,2.61-1.17,1.65-3.04,2.99-4.71,4.07-1.83,1.18-3.81,2.15-5.85,2.91-.98.37-1.98.69-2.99.97-.94.26-2,.58-2.95.22-2.51-.96.05-3.7,1.01-4.82,1.3-1.53,2.73-2.95,4.26-4.25,3.14-2.67,6.73-4.82,10.57-6.33,1.68-.66,3.89-1.26,4.8.84.8,1.85-.48,3.74-1.87,4.87-1.73,1.41-3.86,2.4-5.79,3.5-1.9,1.09-3.8,2.19-5.71,3.28-.46.26-.91.52-1.37.79-.52.3-1.1.72-1.72.74-1.56.05-.71-1.63-.18-2.28,1.31-1.6,2.93-2.93,4.64-4.08,3.55-2.38,7.46-4.26,11.22-6.29.95-.51,1.95-1.09,3.06-1.11.91-.02,2.61.74,1.26,1.62-1.84,1.19-3.77,2.28-5.67,3.38-1.94,1.13-3.9,2.23-5.89,3.26-.94.49-1.89.99-2.86,1.42-.89.38-2,.69-2.87.09-1.88-1.29.4-4.17,1.29-5.37,1.21-1.62,2.63-3.08,4.21-4.34,1.27-1.02,3.6-2.88,4.78-.72.89,1.63-.16,3.39-1.33,4.55-1.45,1.43-3.28,2.54-5.02,3.58-1.89,1.13-3.83,2.14-5.79,3.14-.99.5-2.03,1.17-3.12,1.44-.98.25-2.22-.04-2.28-1.25-.05-1.06.75-1.96,1.39-2.71.67-.78,1.4-1.5,2.17-2.18,1.62-1.42,3.39-2.65,5.19-3.84.4-.27.79-.56,1.21-.79.24-.13.62-.32.9-.21.45.19.32.67.15.99-.46.92-1.28,1.75-1.99,2.48-1.43,1.47-3.1,2.68-4.92,3.62-.46.24-.07.94.39.71,2.28-1.18,4.34-2.78,6-4.74.6-.71,1.51-1.63,1.51-2.63,0-.89-.88-1.38-1.69-1.2-.53.11-.99.45-1.43.75-.59.39-1.17.78-1.75,1.17-1.05.72-2.09,1.46-3.08,2.26-1.02.82-2,1.71-2.88,2.68-.72.8-1.54,1.69-1.85,2.75-.63,2.15,1.34,3.46,3.28,2.9,1.24-.36,2.41-1.09,3.56-1.67,1.25-.64,2.5-1.29,3.73-1.97,2.24-1.25,4.54-2.58,6.47-4.29,1.37-1.21,2.64-2.96,2.27-4.9-.37-1.91-2.12-2.97-3.93-2.16-1.04.47-1.98,1.25-2.85,1.98-.97.81-1.88,1.69-2.71,2.64-.8.92-1.54,1.89-2.2,2.92-.58.9-1.15,1.91-1.13,3.01.05,2.32,2.36,2.92,4.22,2.23,1.21-.45,2.36-1.1,3.5-1.69,1.25-.65,2.48-1.33,3.71-2.02,2.41-1.36,4.79-2.79,7.16-4.23.74-.45,1.79-.97,1.48-2.02-.25-.86-1.16-1.3-1.99-1.42-1.11-.15-2.18.23-3.15.71-1.24.62-2.45,1.31-3.67,1.97-4.51,2.43-9.49,4.69-12.91,8.62-.61.7-1.33,1.54-1.31,2.53.02.87.75,1.47,1.58,1.51,1.18.05,2.32-.87,3.29-1.43,1.22-.7,2.44-1.4,3.65-2.1,2.41-1.39,4.91-2.68,7.24-4.2,1.75-1.14,3.51-2.88,3.47-5.14-.04-1.99-1.59-3.59-3.6-3.42-1.02.08-1.98.49-2.92.87-1.19.48-2.36,1.02-3.5,1.63-4.5,2.38-8.54,5.67-11.76,9.62-1.08,1.33-2.8,3.46-1.05,5,1.73,1.53,4.59.28,6.44-.36,2.49-.86,4.9-1.97,7.1-3.42,1.07-.71,2.1-1.49,3.05-2.36.82-.75,1.69-1.56,2.17-2.59.7-1.52.03-3.92-1.99-3.74-1.04.1-2.11.77-3,1.28-1.01.59-1.96,1.29-2.83,2.07-1.96,1.75-7.79,8.51-3.14,10.37,2.21.88,4.59-.8,6.45-1.8,1.21-.66,2.41-1.34,3.57-2.09.89-.58,2.07-1.23,2.65-2.15.44-.69.47-1.73-.28-2.23-.71-.48-1.63-.17-2.33.18-1.16.58-2.24,1.34-3.23,2.18-.87.74-1.78,1.58-2.37,2.57-.46.77-.71,1.69-.37,2.56.27.7.89,1.32,1.67,1.38,1.21.09,1.76-1.06,2.55-1.74.51-.45,1.42-.21,1.19.43s.63.82.81.14Z"/>
  <path d="m48.01,30.63c.39-.42.6-.96.32-1.49-.33-.63-1.06-.87-1.73-.78-.83.1-2.22,1.15-2.93.35-.62-.71-.19-1.73.43-2.25.72-.6,1.68-.89,2.56-1.14,1.06-.31,2.15-.51,3.25-.59.67-.05,2.38-.33,2.78.43.85,1.64-4.89,1.72-5.74,1.75-1.08.04-2.16.05-3.23.05-1.03,0-2.11.06-3.11-.25-.91-.29-1.87-1.03-1.89-2.08-.02-.96.81-1.72,1.51-2.26,3.1-2.38,7.04-3.61,10.94-3.45.94.04,2.11.12,2.18,1.3.06,1.01-.69,1.72-1.52,2.14-1.8.92-4.08,1.23-6.07,1.41-2.17.2-4.37.13-6.54-.15-1.04-.13-2.07-.31-3.1-.53-.95-.2-2.04-.41-2.71-1.18-1.78-2.02,1.77-3.25,3.14-3.8,1.87-.74,3.79-1.34,5.75-1.78,4.02-.9,8.2-1.14,12.3-.69,1.79.2,4.03.69,3.85,2.97-.15,2-2.17,3.09-3.92,3.44-2.19.44-4.53.32-6.76.41-2.19.08-4.38.17-6.58.25-.53.02-1.05.04-1.58.06-.6.02-1.31.12-1.87-.15-1.4-.68.13-1.77.9-2.1,1.9-.81,3.95-1.23,6-1.46,4.25-.46,8.59-.3,12.85-.35,1.08-.01,2.23-.05,3.22.44.81.41,1.96,1.87.36,2.02-2.19.2-4.4.26-6.59.36-2.24.1-4.48.16-6.73.15-1.06,0-2.13,0-3.19-.08-.96-.07-2.09-.32-2.58-1.25-1.06-2.02,2.29-3.51,3.63-4.15,1.82-.87,3.76-1.5,5.74-1.88,1.6-.31,4.53-.88,4.56,1.58.03,1.85-1.72,2.93-3.29,3.41-1.95.59-4.08.72-6.11.83-2.19.12-4.39.11-6.58.08-1.11-.02-2.34.09-3.43-.17-.99-.24-1.95-1.07-1.44-2.16.45-.96,1.57-1.39,2.5-1.75.95-.38,1.94-.68,2.93-.92,2.09-.51,4.24-.76,6.37-.98.48-.05.96-.13,1.44-.14.27,0,.7,0,.89.23.31.38-.03.74-.32.95-.84.6-1.95.95-2.92,1.26-1.95.64-3.99.93-6.04.91-.52,0-.5.8.02.81,2.57.02,5.14-.44,7.52-1.41.86-.35,2.1-.74,2.56-1.63.41-.79-.14-1.63-.94-1.85-.52-.15-1.08-.06-1.61,0-.7.07-1.4.14-2.1.22-1.27.15-2.53.32-3.78.57-1.29.25-2.56.58-3.8,1.03-1.01.37-2.15.78-2.92,1.57-1.56,1.61-.43,3.69,1.55,4.1,1.27.26,2.64.16,3.92.18,1.41.02,2.81.02,4.22-.01,2.56-.06,5.22-.17,7.72-.79,1.78-.44,3.72-1.39,4.29-3.28.56-1.86-.5-3.62-2.47-3.74-1.14-.07-2.34.19-3.44.42-1.24.26-2.45.62-3.63,1.08-1.14.44-2.25.96-3.31,1.56-.93.53-1.91,1.15-2.4,2.14-1.04,2.08.73,3.68,2.7,3.94,1.28.17,2.6.13,3.88.13,1.41,0,2.81-.02,4.22-.06,2.77-.08,5.54-.24,8.31-.41.86-.05,2.04-.03,2.25-1.1.17-.88-.42-1.69-1.1-2.18-.91-.65-2.03-.81-3.12-.84-1.39-.03-2.78.02-4.17.03-5.12.05-10.58-.26-15.44,1.62-.86.34-1.89.75-2.33,1.63-.39.78-.02,1.65.7,2.07,1.02.59,2.46.31,3.58.26,1.4-.05,2.81-.11,4.21-.16,2.78-.11,5.6-.09,8.37-.35,2.08-.2,4.45-.92,5.47-2.93.89-1.78.27-3.92-1.6-4.71-.94-.4-1.98-.49-2.98-.59-1.28-.13-2.57-.19-3.85-.19-5.09.01-10.2,1.05-14.89,3.04-1.58.67-4.08,1.76-3.25,3.94.82,2.16,3.94,2.38,5.87,2.68,2.6.4,5.25.53,7.87.27,1.28-.13,2.55-.34,3.8-.67,1.08-.28,2.23-.59,3.12-1.28,1.33-1.02,1.85-3.46-.02-4.23-.97-.4-2.23-.31-3.25-.26-1.17.06-2.33.23-3.47.51-2.55.63-10.85,3.91-7.6,7.72,1.55,1.81,4.43,1.43,6.55,1.41,1.38-.02,2.76-.06,4.13-.19,1.05-.1,2.4-.12,3.34-.67.71-.41,1.22-1.31.79-2.11-.41-.76-1.37-.91-2.14-.92-1.29-.02-2.61.14-3.87.43-1.12.25-2.31.57-3.3,1.17-.77.47-1.41,1.17-1.52,2.09-.08.74.17,1.59.84,2,1.03.64,2.05-.12,3.07-.36.66-.16,1.36.47.86.94s.17,1.02.65.5Z"/>
  <rect class="cls-7" x="-4740.54" y="-4682.02" width="6467.34" height="6437.3"/>
</svg>