<?xml version="1.0" encoding="UTF-8"?>
<svg id="Calque_1" data-name="Calque 1" xmlns="http://www.w3.org/2000/svg" viewBox="0 0 128 128">
  <defs>
    <style>
      .cls-1, .cls-2, .cls-3, .cls-4 {
        fill: none;
      }

      .cls-5, .cls-2, .cls-6, .cls-3, .cls-7 {
        stroke: #000;
      }

      .cls-5, .cls-2, .cls-6, .cls-3, .cls-4 {
        stroke-linecap: round;
        stroke-linejoin: round;
      }

      .cls-5, .cls-8 {
        fill: #fff;
      }

      .cls-6 {
        fill: #d6d6d6;
      }

      .cls-6, .cls-3 {
        stroke-width: 2px;
      }

      .cls-7 {
        stroke-miterlimit: 10;
        stroke-width: .25px;
      }

      .cls-4 {
        stroke: #fff;
        stroke-width: 8px;
      }
    </style>
  </defs>
  <path class="cls-1" d="m74.29,73.98s-2.1-18.22-8.21-21.69c-6.11-3.47-8.68-2.7-8.68-2.7l-3.58-1.99-3.15.84-4.52-.74-4.52,2.31-4.48-1.1-8.55,2.3-5.46,4.54-5.46,18.31.04.11s-.01-.01-.04-.01c.15,3.19.71,11.55,2.74,20.07,1.67,7.07,4.35,14.26,8.62,18.67,10.82,11.19,17.26,9.78,17.26,9.78,1.09.1,6.92.09,16.63-9.96,9.42-9.74,11.09-32.93,11.37-38.74-.02,0-.02-.02,0-.09h0"/>
  <path class="cls-8" d="m55.33,82.07s1.33-.15,3.85.09c4.54.43,6.74-2.38,6.74-2.38l-.08-.81s-5.96-4.91-12.18,2.48l1.66.63Z"/>
  <path class="cls-8" d="m36.47,82.48s-1.33-.15-3.85.09c-4.54.43-6.74-2.38-6.74-2.38l.08-.81s5.96-4.91,12.18,2.48l-1.66.63Z"/>
  <path class="cls-1" d="m71.72,93.66s3.6-.87,5.25-6.63c1.66-5.76,4.11-5.29,3.85-11.11-.25-5.55-5.84-2.62-6.36-2.34-.15,3.17-.71,11.55-2.74,20.07Z"/>
  <path class="cls-1" d="m20.58,93.85s-3.6-.87-5.25-6.63c-1.66-5.76-4.11-5.29-3.85-11.11.25-5.55,5.84-2.62,6.36-2.34.15,3.17.71,11.55,2.74,20.07Z"/>
  <path class="cls-2" d="m41.35,90.87s-3.94,4.01,0,6.95"/>
  <path class="cls-2" d="m41.62,95.72s1.63,1.42,2.92,1.95"/>
  <path class="cls-3" d="m30.77,39.63s3.79,10.17,9.88,9.96c6.1-.21,6.88-11.13,6.88-11.13"/>
  <path class="cls-3" d="m21.43,47.71s7.49,5.41,15.44.66"/>
  <path class="cls-3" d="m19.16,53.12s7.71.06,10.93-2.8"/>
  <path class="cls-3" d="m17.87,73.89s-6.13-3.49-6.4,2.33c-.26,5.82,2.19,5.35,3.85,11.11,1.65,5.76,5.25,6.62,5.25,6.62"/>
  <path class="cls-2" d="m44.92,38.82s-.93,4.01-2.77,6.83"/>
  <path class="cls-2" d="m65.66,76.33s-4.93,1.06-10.24.87"/>
  <path class="cls-2" d="m50.94,90.68s3.94,4.01,0,6.95"/>
  <path class="cls-3" d="m70.86,47.52s-12.59,6.18-17.39-.54"/>
  <path class="cls-3" d="m73.13,52.93s-7.8.27-11.02-2.59"/>
  <path class="cls-3" d="m67.38,53.39s7.58,13.12,7.04,20.31c0,0,11.03-28.47-12.76-36.09,0,0-1.29-4.81-7.5-3.58-8.18-7.14-16.02.19-16.02.19-6.21-1.24-7.5,3.58-7.5,3.58-23.79,7.62-12.76,36.09-12.76,36.09-.54-7.19,7.04-21.7,7.04-21.7"/>
  <path class="cls-3" d="m74.5,72.34s-.59,28.91-11.41,40.1c-10.82,11.19-16.82,9.94-16.82,9.94l.19.02s-6.43,1.42-17.25-9.77c-10.82-11.19-11.41-40.1-11.41-40.1"/>
  <path class="cls-3" d="m74.42,73.7s6.13-3.49,6.4,2.33c.26,5.82-2.19,5.35-3.85,11.11-1.65,5.76-5.25,6.62-5.25,6.62"/>
  <path class="cls-3" d="m45.02,46.81s5.27,6.68,12.38-4.5"/>
  <path class="cls-5" d="m54.42,109h-17.28s8.64-7.2,17.28,0Z"/>
  <path class="cls-2" d="m55.79,82.25s1.33-.15,3.85.09c4.54.43,6.74-2.03,6.74-2.03l-.08-.81s-5.96-5.25-12.18,2.13"/>
  <circle class="cls-2" cx="60.74" cy="80.23" r="2.06"/>
  <path class="cls-2" d="m50.67,95.72s-1.63,1.42-2.92,1.95"/>
  <circle class="cls-7" cx="61.08" cy="80.08" r="1.01"/>
  <path class="cls-3" d="m69.25,73.23s-6.75,0-14.16-5.51"/>
  <path class="cls-2" d="m26.79,76.33s4.93,1.06,10.24.87"/>
  <path class="cls-2" d="m36.67,82.25s-1.33-.15-3.85.09c-4.54.43-6.74-2.03-6.74-2.03l.08-.81s5.96-5.25,12.18,2.13"/>
  <circle class="cls-2" cx="31.72" cy="80.23" r="2.06"/>
  <circle class="cls-7" cx="32.2" cy="80.08" r="1.01"/>
  <path class="cls-3" d="m23.21,73.23s6.75,0,14.16-5.51"/>
  <circle class="cls-6" cx="89.32" cy="35.8" r="31.92"/>
  <circle class="cls-6" cx="94.6" cy="74.31" r="3.83"/>
  <circle class="cls-6" cx="86.83" cy="85.92" r="3.83"/>
  <g>
    <path d="m88.45,16.38c-1.13,1.58-2.26,6.22.8,6.61,1.06.13,2.12-.63,2.4-1.64.35-1.24-.41-2.43-1.42-3.09-.04-.03-.1-.02-.15,0-2.55,1.32-3.48,4.82-3.99,7.41-.3,1.51-.43,3.06-.39,4.6.04,1.21.14,2.55.96,3.52,1.63,1.92,4.86,1.14,6.84.3,2.57-1.09,4.88-3.08,6.4-5.41s2.04-4.99.38-7.27c-1.46-2-4.18-3.32-6.63-3.4-6.26-.18-8.61,6.91-8.7,11.99-.04,2.24.5,5.12,2.98,5.87,1.23.37,2.65.01,3.86-.29,1.61-.4,3.19-1.01,4.56-1.95,2.08-1.43,3.68-3.7,3.79-6.28.12-2.82-1.37-5.84-3.25-7.87-1.72-1.86-4.24-3.04-6.8-2.5-2.65.57-4.05,2.94-4.55,5.44-1.1,5.47.62,12.85,6.6,14.63,5.6,1.67,10.73-2.74,11.12-8.29.4-5.78-3.83-11.28-8.87-13.67-4.89-2.32-11.1-1.69-14.96,2.3-3.55,3.66-6.93,11.72-2.09,15.71,3.61,2.97,11.26,2.88,13.75-1.53,1-1.77,1.17-4.21-.24-5.83-1.93-2.22-4.59-.43-6.04,1.36-1.35,1.66-3,4.66-1.96,6.86.98,2.06,3.63,1.73,5.15.54,2.12-1.66,3.91-4.76,4.18-7.45.23-2.22-.77-4.79-2.98-5.64-2.41-.93-4.92.53-6.43,2.37-1.95,2.37-3.23,5.43-4.28,8.29-.98,2.67-2.24,5.97-1.8,8.87.37,2.43,2.4,3.9,4.79,3.95,2.93.06,5.8-1.8,8.04-3.52s4.66-4.05,5.44-6.92c.72-2.63-.38-5.07-2.13-7.02-1.88-2.1-4.44-4.01-7.29-4.46-2.61-.42-5.05.72-6.67,2.77-1.79,2.27-2.31,5.25-2.33,8.07-.02,2.52.76,4.71,3.15,5.85,1.97.94,4.3.76,6.03-.6,4.26-3.33,2.77-9.61-1.57-12.05-2.08-1.16-4.28-1.4-5.33,1.08s-1.65,5.82-.57,8.39c2.25,5.37,9.23,3.38,12.58.34,3.9-3.54,5.05-9.12,2.83-13.89-2.12-4.57-8.04-8.64-12.89-5.4-2.35,1.57-3.96,4.27-5.11,6.78-1.29,2.81-2.03,5.93-1.69,9.03.24,2.2,1.09,4.64,3.58,5.01,2.62.39,5.66-1.18,7.71-2.66,4.3-3.1,6.69-8.69,4.62-13.82-.77-1.92-2.38-4.37-4.77-3.65-1.16.35-2.11,1.23-2.94,2.07-1.12,1.14-2.14,2.37-3.08,3.66-3.47,4.8-6.03,10.93-6.21,16.91-.07,2.41.63,4.84,2.98,5.9,2.3,1.03,5.1.53,7.25-.63,5.56-3.01,5.45-9.65,2.7-14.61-2.81-5.06-7.74-10.01-13.91-10.01-2.63,0-5.14,1-6.47,3.37-1.46,2.6-1.09,5.74.01,8.4.96,2.31,2.54,4.13,5.13,4.48,2.5.34,6.01-.09,8.11-1.61s2.6-4.36,2.45-6.82-1.02-5.83-3.17-7.24c-1.82-1.2-4.22.06-5,1.9-1.02,2.37-.02,5.22,1.48,7.15,1.44,1.85,3.87,3.53,6.3,3.5s4.23-2.23,4.67-4.5c.53-2.74-.32-5.91-1.57-8.35s-3.34-4.35-6.07-4.82c-.1-.02-.17.04-.18.14-.46,4.77,1.9,10.48,6.65,12.28,1.98.75,4.19.48,5.54-1.27,1.58-2.05,1.82-5.16,1.97-7.64.14-2.28.07-4.91-1.36-6.82-1.17-1.56-3.06-2.15-4.94-1.76-5.3,1.1-6.2,7.36-6.02,11.85.12,3.1.77,6.18,1.91,9.06.87,2.22,2.03,4.61,4.12,5.94,4.78,3.04,10.21-1.41,12.74-5.32,2.63-4.07,3.3-9.51.07-13.46-1.26-1.54-3.46-3.1-5.57-2.73s-3.05,2.47-3.52,4.26c-1.3,4.95-.98,11.93,2.65,15.9,3.28,3.59,9.24,3.58,12.41-.13,3.57-4.17,1.81-9.47-1.14-13.44-1.37-1.84-3.19-3.54-5.51-4.01-2.28-.46-4.54.43-6.34,1.79-4.23,3.19-6.64,8.76-7.07,13.94-.21,2.55-.13,5.56,1.1,7.87,1.06,1.99,3.08,3.16,5.28,3.44,4.96.64,9.13-3.26,11.5-7.21,1.34-2.23,2.49-5.1,2.16-7.76-.21-1.72-1.52-3.56-3.48-3.25-1.9.3-2.46,2.78-2.25,4.39.26,1.95,1.55,3.82,3.41,4.55,4.05,1.59,7.98-2.55,7.1-6.5-1.06-4.78-5.19-8.77-9.68-10.42-2.37-.87-5.18-1.19-7.44.17-1.88,1.13-2.96,3.16-3.54,5.21-1.21,4.3-.96,10.02,2.07,13.55,1.52,1.77,3.76,2.92,6.11,2.26s4.49-2.51,6.04-4.43c2.92-3.61,5.9-9.94,1.83-13.89-1.4-1.35-3.63-1.94-5.46-1.16-2.29.98-3.06,3.68-3.41,5.92-.27,1.74-1.07,5.29,1.18,6.05,1.98.67,4.43-.32,5.91-1.65,3.54-3.18,2.73-9.05-1.22-11.51-4.92-3.07-10.02.6-13.38,4.21-1.68,1.81-3.79,4.09-4,6.67-.19,2.31,1.28,4.01,3.54,4.32,5.05.69,10.01-3.2,12.93-6.92,1.51-1.93,2.76-4.31,2.56-6.84-.2-2.43-1.84-5.06-3.72-6.58-4.5-3.65-6.62,6.14-6.83,8.9-.19,2.57.19,5.47,1.63,7.67,1.04,1.6,2.84,2.07,3.91.23,1.24-2.13.48-4.99-.36-7.12-.77-1.95-2.08-3.77-4.31-4.04-2.45-.29-5.19,1.05-7.28,2.21-2.18,1.21-4.02,2.91-5.01,5.23-1.09,2.55-1.52,5.82-1.28,8.58.19,2.24,1.24,4.58,3.46,5.46,1.52.6,4.02.19,3.82-1.9s-2.42-3.73-4.34-4.03c-2-.32-4.06.64-5.2,2.3-.32.47-.8,1.18-.44,1.76.46.72,1.98.84,2.72.81,2.07-.1,2.49-1.96,1.23-3.37-1.43-1.6-3.72-2.11-5.78-1.9-1.81.19-4.22.89-4.47,3.01-.22,1.9,1.25,3.43,3.1,3.6,1.21.11,3.93-.64,3.15-2.4-.72-1.61-2.29.17-2.56,1.12-1.31,4.55,5.97,6.19,8.93,4.57.05-.03.09-.11.07-.16-.77-2.07-3.57-2.65-5.54-2.31-1.96.33-2.42,2.59-1.24,4.05,1.62,2,4.88,1.17,6.87.35,2.69-1.12,4.92-3.08,6.45-5.56.04-.06.02-.17-.05-.2-1.75-.79-3.47.14-4.58,1.55s-2.49,3.54-2.16,5.47c.03.18.31.11.28-.08-.25-1.48.58-2.81,1.32-4.03.78-1.3,1.76-2.59,3.35-2.87.41-.07.7-.15,1.06.13.44.35.36.21.04.66-.35.5-.73.97-1.15,1.42-.8.85-1.7,1.61-2.69,2.22-1.88,1.18-4.47,2.26-6.73,1.76-1.29-.29-2.31-1.22-2.36-2.59-.05-1.77,1.58-2.1,3.02-2.01.98.06,2.06.26,2.88.85s1.11,1.23,0,1.57c-.68.2-1.39.24-2.09.19-2.27-.17-5.61-1.46-5.5-4.21.02-.61.26-1.27.68-1.71.29-.3,2.14-1.54,1.39.9-.08.26-.64.61-.87.73-1.35.72-3.3.32-4.21-.9s-.74-2.94.52-3.81c.96-.67,2.29-.94,3.44-1.02,2.03-.14,4.5.5,5.63,2.34l.27.58-.69,1.54c-.33.3-.96.27-1.4.24.07,0-1.01-.1-1.19-.22l-.28-.08-.42-1.37c.07-.45.73-1.05,1.06-1.34.59-.53,1.31-.92,2.07-1.14,2.28-.66,5.52.74,6.05,3.26.54,2.58-2.48,2.57-3.91,1.72-1.23-.73-2.03-1.95-2.42-3.31-.67-2.31-.29-5.06.17-7.37s1.5-4.58,3.39-6.21c1.76-1.52,3.99-2.56,6.18-3.28,2.73-.9,5.25-.52,6.72,2.13,1.08,1.94,1.99,4.84,1.38,7.05-.17.63-.56,1.65-1.22,1.95-1.12.52-2.04-.23-2.62-1.12-.66-1.02-1.07-2.24-1.33-3.42-.52-2.39-.34-4.9.28-7.25.49-1.9,1.72-6.49,4.3-6.24,1.2.12,2.09,1.18,2.8,2.07.92,1.15,1.74,2.43,2.13,3.86.67,2.49-.3,4.98-1.71,7.02-2.58,3.71-6.79,7.14-11.42,7.6-1.13.11-2.4.08-3.42-.5-1.5-.85-1.95-2.62-1.58-4.22.54-2.34,2.49-4.41,4.1-6.1,3.22-3.37,8.09-6.78,12.73-3.85,4.37,2.76,4.51,9.58-.26,12.04-1.01.52-2.17.82-3.32.75s-1.86-.51-2.08-1.74c-.11-.64-.04-1.38,0-2.03.12-2.37.5-5.41,2.37-7.11,2-1.83,5.16-1.03,6.71.95s1.67,4.87.9,7.28c-1.31,4.1-5.15,9.36-9.69,10.14-2.64.45-5-1.54-6.23-3.69-1.11-1.93-1.55-4.18-1.63-6.38-.14-3.93.74-9.41,4.94-11.01,4.29-1.64,9.47,1.29,12.34,4.38,2.95,3.19,5.76,9.29.72,11.99-2.01,1.08-4.4.69-5.91-1.04-1.39-1.61-2.02-4.42-.57-6.2,1.12-1.38,3.01-.85,3.86.54.79,1.29.63,2.97.34,4.38-.46,2.31-1.56,4.47-2.95,6.36-2.6,3.53-6.87,6.68-11.47,5.28-5.11-1.56-5.38-7.83-4.67-12.27.7-4.35,2.79-8.86,6.21-11.74,1.88-1.59,4.33-2.73,6.83-2.16,2.29.52,4.06,2.29,5.38,4.14,2.79,3.92,4.41,9.11.73,13.05-3.46,3.71-9.57,3.07-12.46-.98-2.81-3.95-3.01-9.88-1.96-14.45.51-2.21,1.85-4.79,4.52-4.34,2.28.38,4.14,2.19,5.17,4.17,2.3,4.39.71,9.52-2.29,13.14-3.05,3.69-8.77,6.76-12.66,2.35-1.6-1.82-2.54-4.27-3.23-6.56-.74-2.45-1.15-5-1.19-7.56-.07-4.32,1.04-10.35,6.29-10.98,5.83-.7,5.78,6.74,5.23,10.59-.32,2.24-.77,5.15-2.95,6.36-2.28,1.27-5.15-.17-6.82-1.81-1.66-1.63-2.8-3.75-3.33-6.01-.24-1.01-.5-2.32-.31-3.36.12-.65.34-.57.94-.38.56.18,1.11.44,1.61.76,2.25,1.44,3.54,3.87,4.26,6.38.68,2.38,1.12,5.28-.29,7.5-3.24,5.09-9.79.31-11.13-3.87-.79-2.45-.22-6.06,2.91-6.31,2.74-.22,4.1,3.65,4.51,5.81.44,2.34.39,5.19-1.11,7.16-1.52,1.98-4.3,2.39-6.62,2.58-2.68.22-5.01-.46-6.46-2.86-1.33-2.21-2.06-5.08-1.51-7.64,1.27-5.86,8.04-6.04,12.47-3.79,4.11,2.09,7.53,6.37,9.18,10.63,1.84,4.74.64,10.17-4.28,12.37-2.01.9-4.62,1.24-6.63.14-2.36-1.29-2.67-4.02-2.44-6.45.43-4.55,1.99-9.04,4.28-12.98,1.15-1.99,2.51-3.86,4.05-5.56.78-.87,1.6-1.77,2.61-2.38,1.64-1.01,3.1-.58,4.23.87,2.78,3.59,2.41,8.79-.11,12.4-1.29,1.84-3.07,3.31-5.06,4.35s-5.24,2.41-7.24.77c-1.89-1.55-1.95-4.71-1.74-6.94.23-2.49,1.07-4.91,2.23-7.11,1.1-2.07,2.47-4.2,4.44-5.53,2.18-1.47,4.85-1.36,7.16-.25,3.95,1.9,6.48,6.27,6.45,10.62-.03,4.27-2.65,8.27-6.42,10.22-2.05,1.07-4.68,1.68-6.9.78-2.62-1.07-3.43-4.02-3.18-6.62.22-2.33.96-6.86,4.21-6,2.16.57,4.09,2.19,5.08,4.18,2.08,4.2-1.1,10.2-6.18,9.13-2.09-.44-3.8-1.97-4.19-4.1-.46-2.51-.05-5.58.98-7.9.92-2.07,2.67-3.94,4.93-4.49,2.57-.63,5.14.47,7.19,1.97,1.85,1.35,3.72,3.18,4.49,5.38.9,2.55-.14,5.09-1.73,7.1-1.51,1.9-3.47,3.48-5.53,4.74-2.14,1.31-4.75,2.59-7.31,1.83-5.53-1.66-2.26-9.67-.84-13.25.89-2.25,1.94-4.57,3.36-6.54,1.51-2.11,4.33-4.11,6.98-2.72,4.9,2.59,1.48,10.35-1.99,12.63-1.03.68-2.52,1-3.62.26-1.44-.97-1.12-2.95-.63-4.34.76-2.14,2.9-5.6,5.56-5.44,3.16.19,3.13,4.46,2.01,6.46-1.18,2.13-3.65,3.1-5.97,3.29-2.21.18-4.69-.15-6.61-1.32-2.3-1.4-3.2-4.08-2.96-6.67.46-4.92,3.88-10.1,8.54-11.88,8.75-3.33,19.78,4.36,19.13,13.91-.36,5.24-5.06,9.41-10.38,8.11s-7.32-7.38-7.02-12.37c.14-2.37.78-5.23,2.94-6.58s5.13-.79,7.11.77,3.25,3.79,3.9,6.09c.75,2.66.11,5.27-1.77,7.28-1.7,1.81-4.06,2.8-6.44,3.34-1.37.31-2.9.61-4.15-.22-1.18-.79-1.69-2.23-1.85-3.57-.54-4.61.93-10.66,5.53-12.73,4.52-2.03,11.56,1.94,9.93,7.34-1.29,4.28-6.15,8.09-10.58,8.42-1.37.1-2.88-.19-3.61-1.48-.63-1.1-.6-2.54-.58-3.77.04-2.46.52-4.91,1.42-7.2.44-1.13,1-2.31,1.94-3.12,1.62-1.39,2.88,2.23,1.16,3.33s-2.87-.82-2.95-2.29c-.06-1.31.39-2.54,1.14-3.59.11-.15-.14-.3-.25-.15h0Z"/>
    <path d="m90.94,54.86c1.13-1.58,2.26-6.22-.8-6.61-1.06-.13-2.12.63-2.4,1.64-.35,1.24.41,2.43,1.42,3.09.04.03.1.02.15,0,2.55-1.32,3.48-4.82,3.99-7.41.3-1.51.43-3.06.39-4.6-.04-1.21-.14-2.55-.96-3.52-1.63-1.92-4.86-1.14-6.84-.3-2.57,1.09-4.88,3.08-6.4,5.41-1.45,2.22-2.04,4.99-.38,7.27,1.46,2,4.18,3.32,6.63,3.4,6.26.18,8.61-6.91,8.7-11.99.04-2.24-.5-5.12-2.98-5.87-1.23-.37-2.65-.01-3.86.29-1.61.4-3.19,1.01-4.56,1.95-2.08,1.43-3.68,3.7-3.79,6.28-.12,2.82,1.37,5.84,3.25,7.87,1.72,1.86,4.24,3.04,6.8,2.5,2.65-.57,4.05-2.94,4.55-5.44,1.1-5.47-.62-12.85-6.6-14.63-5.6-1.67-10.73,2.74-11.12,8.29-.4,5.78,3.83,11.28,8.87,13.67,4.89,2.32,11.1,1.69,14.96-2.3,3.55-3.66,6.93-11.72,2.09-15.71-3.61-2.97-11.26-2.88-13.75,1.53-1,1.77-1.17,4.21.24,5.83,1.93,2.22,4.59.43,6.04-1.36,1.35-1.66,3-4.66,1.96-6.86-.98-2.06-3.63-1.73-5.15-.54-2.12,1.66-3.91,4.76-4.18,7.45-.23,2.22.77,4.79,2.98,5.64,2.41.93,4.92-.53,6.43-2.37,1.95-2.37,3.23-5.43,4.28-8.29.98-2.67,2.24-5.97,1.8-8.87-.37-2.43-2.4-3.9-4.79-3.95-2.93-.06-5.8,1.8-8.04,3.52-2.29,1.76-4.66,4.05-5.44,6.92-.72,2.63.38,5.07,2.13,7.02,1.88,2.1,4.44,4.01,7.29,4.46,2.61.42,5.05-.72,6.67-2.77,1.79-2.27,2.31-5.25,2.33-8.07.02-2.52-.76-4.71-3.15-5.85-1.97-.94-4.3-.76-6.03.6-4.26,3.33-2.77,9.61,1.57,12.05,2.08,1.16,4.28,1.4,5.33-1.08s1.65-5.82.57-8.39c-2.25-5.37-9.23-3.38-12.58-.34-3.9,3.54-5.05,9.12-2.83,13.89s8.03,8.64,12.89,5.4c2.35-1.57,3.96-4.27,5.11-6.78,1.29-2.81,2.03-5.93,1.69-9.03-.24-2.2-1.09-4.64-3.58-5.01-2.62-.39-5.66,1.18-7.71,2.66-4.3,3.1-6.69,8.69-4.62,13.82.77,1.92,2.38,4.37,4.77,3.65,1.16-.35,2.11-1.23,2.94-2.07,1.12-1.14,2.14-2.37,3.08-3.66,3.47-4.8,6.03-10.93,6.21-16.91.07-2.41-.63-4.84-2.98-5.9s-5.1-.53-7.25.63c-5.56,3.01-5.45,9.65-2.7,14.61s7.74,10.01,13.91,10.01c2.63,0,5.14-1,6.47-3.37,1.46-2.6,1.09-5.74-.01-8.4-.96-2.31-2.54-4.13-5.13-4.48-2.5-.34-6.01.09-8.11,1.61-2.12,1.54-2.6,4.36-2.45,6.82s1.02,5.83,3.17,7.24c1.82,1.2,4.22-.06,5-1.9,1.02-2.37.02-5.22-1.48-7.15-1.44-1.85-3.87-3.53-6.3-3.5-2.48.03-4.23,2.23-4.67,4.5-.53,2.74.32,5.91,1.57,8.35,1.23,2.42,3.34,4.35,6.07,4.82.1.02.17-.04.18-.14.46-4.77-1.9-10.48-6.65-12.28-1.98-.75-4.19-.48-5.54,1.27-1.58,2.05-1.82,5.16-1.97,7.64-.14,2.28-.07,4.91,1.36,6.82,1.17,1.56,3.06,2.15,4.94,1.76,5.3-1.1,6.2-7.36,6.02-11.85-.12-3.1-.77-6.18-1.91-9.06-.87-2.22-2.03-4.61-4.12-5.94-4.78-3.04-10.21,1.41-12.74,5.32-2.63,4.07-3.31,9.51-.07,13.46,1.26,1.54,3.46,3.1,5.57,2.73s3.05-2.47,3.52-4.26c1.3-4.95.98-11.93-2.65-15.9-3.28-3.59-9.24-3.58-12.41.13-3.57,4.17-1.81,9.47,1.14,13.44,1.37,1.84,3.19,3.54,5.51,4.01s4.54-.43,6.34-1.79c4.23-3.19,6.64-8.76,7.07-13.94.21-2.55.13-5.56-1.1-7.87-1.06-1.99-3.08-3.16-5.28-3.44-4.96-.64-9.13,3.26-11.5,7.21-1.34,2.23-2.49,5.1-2.16,7.76.21,1.72,1.52,3.56,3.48,3.25,1.9-.3,2.46-2.78,2.25-4.39-.26-1.95-1.55-3.82-3.41-4.55-4.05-1.59-7.98,2.55-7.1,6.5,1.06,4.78,5.19,8.77,9.68,10.42,2.37.87,5.18,1.19,7.44-.17,1.88-1.13,2.96-3.16,3.54-5.21,1.21-4.3.96-10.02-2.07-13.55-1.52-1.77-3.76-2.92-6.11-2.26-2.43.68-4.49,2.51-6.04,4.43-2.92,3.61-5.9,9.94-1.83,13.89,1.4,1.35,3.63,1.94,5.46,1.16,2.29-.98,3.06-3.68,3.41-5.92.27-1.74,1.07-5.29-1.18-6.05-1.98-.67-4.43.32-5.91,1.65-3.54,3.18-2.73,9.05,1.22,11.51,4.92,3.07,10.02-.6,13.38-4.21,1.68-1.81,3.79-4.09,4-6.67.19-2.31-1.28-4.01-3.54-4.32-5.05-.69-10.01,3.2-12.93,6.92-1.51,1.93-2.76,4.31-2.56,6.84s1.84,5.06,3.72,6.58c4.5,3.65,6.62-6.14,6.83-8.9.19-2.57-.19-5.47-1.63-7.67-1.04-1.6-2.84-2.07-3.91-.23-1.24,2.13-.48,4.99.36,7.12.77,1.95,2.08,3.77,4.31,4.04,2.45.29,5.19-1.05,7.28-2.21,2.18-1.21,4.02-2.91,5.01-5.23,1.09-2.55,1.52-5.82,1.28-8.58-.19-2.24-1.24-4.58-3.46-5.46-1.52-.6-4.02-.19-3.82,1.9.2,2.07,2.42,3.73,4.34,4.03,2,.32,4.06-.64,5.2-2.3.32-.47.8-1.18.44-1.76-.46-.72-1.98-.84-2.72-.81-2.07.1-2.49,1.96-1.23,3.37,1.43,1.6,3.72,2.11,5.78,1.9,1.81-.19,4.22-.89,4.47-3.01.22-1.9-1.25-3.43-3.1-3.6-1.21-.11-3.93.64-3.15,2.4.72,1.61,2.29-.17,2.56-1.12,1.31-4.55-5.97-6.19-8.93-4.57-.05.03-.09.11-.07.16.77,2.07,3.57,2.65,5.54,2.31,1.96-.33,2.42-2.59,1.24-4.05-1.62-2-4.88-1.17-6.87-.35-2.69,1.12-4.92,3.08-6.45,5.56-.04.06-.02.17.05.2,1.75.79,3.47-.14,4.58-1.55s2.49-3.54,2.16-5.47c-.03-.18-.31-.11-.28.08.25,1.48-.58,2.81-1.32,4.03-.78,1.3-1.76,2.59-3.35,2.87-.41.07-.7.15-1.06-.13-.44-.35-.36-.21-.04-.66.35-.5.73-.97,1.15-1.42.8-.85,1.7-1.61,2.69-2.22,1.88-1.18,4.47-2.26,6.73-1.76,1.29.29,2.31,1.22,2.35,2.59.05,1.77-1.58,2.1-3.02,2.01-.98-.06-2.06-.26-2.88-.85s-1.11-1.23,0-1.57c.68-.2,1.39-.24,2.09-.19,2.27.17,5.61,1.46,5.5,4.21-.02.61-.26,1.27-.68,1.71-.29.3-2.14,1.54-1.39-.9.08-.26.64-.61.87-.73,1.35-.72,3.3-.32,4.21.9.89,1.19.74,2.94-.52,3.81-.96.67-2.29.94-3.44,1.02-2.03.14-4.5-.5-5.63-2.34l-.27-.58.69-1.54c.33-.3.96-.27,1.4-.24-.07,0,1.01.1,1.19.22l.28.08.42,1.37c-.07.45-.73,1.05-1.06,1.34-.59.53-1.31.92-2.07,1.14-2.28.66-5.52-.74-6.05-3.26-.54-2.58,2.48-2.57,3.91-1.72,1.23.73,2.03,1.95,2.42,3.31.67,2.31.29,5.06-.17,7.37s-1.5,4.58-3.39,6.21c-1.76,1.52-3.99,2.56-6.18,3.28-2.73.9-5.25.52-6.72-2.13-1.08-1.94-1.99-4.84-1.38-7.05.17-.63.56-1.65,1.22-1.95,1.12-.52,2.04.23,2.62,1.12.66,1.02,1.07,2.24,1.33,3.42.52,2.39.34,4.9-.28,7.25-.49,1.9-1.72,6.49-4.3,6.24-1.2-.12-2.09-1.18-2.8-2.07-.92-1.15-1.74-2.43-2.13-3.86-.67-2.49.3-4.98,1.71-7.02,2.58-3.71,6.79-7.14,11.42-7.6,1.13-.11,2.4-.08,3.42.5,1.5.85,1.95,2.62,1.58,4.22-.54,2.34-2.49,4.41-4.1,6.1-3.22,3.37-8.09,6.78-12.73,3.85-4.37-2.76-4.51-9.58.26-12.04,1.01-.52,2.17-.82,3.32-.75s1.86.51,2.08,1.74c.11.64.04,1.38,0,2.03-.12,2.37-.5,5.41-2.37,7.11-2,1.83-5.16,1.03-6.71-.95-1.62-2.06-1.67-4.87-.9-7.28,1.31-4.1,5.15-9.36,9.69-10.14,2.64-.45,5,1.54,6.23,3.69,1.11,1.93,1.55,4.18,1.63,6.38.14,3.93-.74,9.41-4.94,11.01s-9.47-1.29-12.34-4.38-5.76-9.29-.72-11.99c2.01-1.08,4.4-.69,5.91,1.04,1.39,1.61,2.02,4.42.57,6.2-1.12,1.38-3.01.85-3.86-.54-.79-1.29-.63-2.97-.34-4.38.46-2.31,1.56-4.47,2.95-6.36,2.6-3.53,6.87-6.68,11.47-5.28,5.11,1.56,5.38,7.83,4.67,12.27s-2.79,8.86-6.21,11.74c-1.88,1.59-4.33,2.73-6.83,2.16-2.29-.52-4.06-2.29-5.38-4.14-2.79-3.92-4.41-9.11-.73-13.05,3.46-3.71,9.57-3.07,12.46.98,2.81,3.95,3.01,9.88,1.96,14.45-.51,2.21-1.85,4.79-4.52,4.34-2.28-.38-4.14-2.19-5.17-4.17-2.3-4.39-.71-9.52,2.29-13.14,3.05-3.69,8.77-6.76,12.66-2.35,1.6,1.82,2.54,4.27,3.23,6.56.74,2.45,1.15,5,1.19,7.56.07,4.32-1.04,10.35-6.29,10.98-5.83.7-5.78-6.74-5.23-10.59.32-2.24.77-5.15,2.95-6.36s5.15.17,6.82,1.81c1.66,1.63,2.8,3.75,3.33,6.01.24,1.01.5,2.32.31,3.36-.12.65-.34.57-.94.38-.56-.18-1.11-.44-1.61-.76-2.25-1.44-3.54-3.87-4.26-6.38-.68-2.38-1.12-5.28.29-7.5,3.24-5.09,9.79-.31,11.13,3.87.79,2.45.22,6.06-2.91,6.31-2.74.22-4.1-3.65-4.51-5.81-.44-2.34-.39-5.19,1.11-7.16,1.52-1.98,4.3-2.39,6.62-2.58,2.68-.22,5.01.46,6.46,2.86,1.33,2.21,2.06,5.08,1.51,7.64-1.27,5.86-8.04,6.04-12.47,3.79-4.11-2.09-7.53-6.37-9.18-10.63-1.84-4.74-.64-10.17,4.28-12.37,2.01-.9,4.62-1.24,6.63-.14,2.36,1.29,2.67,4.02,2.44,6.45-.43,4.55-1.99,9.04-4.28,12.98-1.15,1.99-2.51,3.86-4.05,5.56-.78.87-1.6,1.77-2.61,2.38-1.64,1.01-3.1.58-4.23-.87-2.78-3.59-2.41-8.79.11-12.4,1.29-1.84,3.07-3.31,5.06-4.35,1.98-1.04,5.24-2.41,7.24-.77,1.89,1.55,1.95,4.71,1.74,6.94-.23,2.49-1.07,4.91-2.23,7.11-1.1,2.07-2.47,4.2-4.44,5.53-2.18,1.47-4.85,1.36-7.16.25-3.95-1.9-6.48-6.27-6.45-10.62.03-4.27,2.65-8.27,6.42-10.22,2.05-1.07,4.68-1.68,6.9-.78,2.62,1.07,3.43,4.02,3.18,6.62-.22,2.33-.96,6.86-4.21,6-2.16-.57-4.09-2.19-5.08-4.18-2.08-4.2,1.1-10.2,6.18-9.13,2.09.44,3.8,1.97,4.19,4.1.46,2.51.05,5.58-.98,7.9-.92,2.07-2.67,3.94-4.93,4.49-2.57.63-5.14-.47-7.19-1.97-1.85-1.35-3.72-3.18-4.49-5.38-.9-2.55.14-5.09,1.73-7.1,1.51-1.9,3.47-3.48,5.53-4.74s4.75-2.59,7.31-1.83c5.53,1.66,2.26,9.67.84,13.25-.89,2.25-1.94,4.57-3.36,6.54-1.51,2.11-4.33,4.11-6.98,2.72-4.9-2.59-1.48-10.35,1.99-12.63,1.03-.68,2.52-1,3.62-.26,1.44.97,1.12,2.95.63,4.34-.76,2.13-2.9,5.6-5.56,5.44-3.16-.19-3.13-4.46-2.01-6.46,1.18-2.13,3.65-3.1,5.97-3.29,2.21-.18,4.69.15,6.61,1.32,2.3,1.4,3.2,4.08,2.96,6.67-.46,4.92-3.88,10.1-8.54,11.88-8.75,3.33-19.78-4.36-19.13-13.91.36-5.24,5.06-9.41,10.38-8.11s7.32,7.38,7.02,12.37c-.14,2.37-.78,5.23-2.94,6.58s-5.13.79-7.11-.77c-1.89-1.48-3.25-3.79-3.9-6.09-.75-2.66-.11-5.27,1.77-7.28,1.7-1.81,4.06-2.8,6.44-3.34,1.37-.31,2.9-.61,4.15.22,1.18.79,1.69,2.23,1.85,3.57.54,4.61-.93,10.66-5.53,12.73s-11.56-1.94-9.93-7.34c1.29-4.28,6.15-8.09,10.58-8.42,1.37-.1,2.88.19,3.61,1.48.63,1.1.6,2.54.58,3.77-.04,2.46-.52,4.91-1.42,7.2-.44,1.13-1,2.31-1.94,3.12-1.62,1.39-2.88-2.23-1.16-3.33,1.68-1.08,2.87.82,2.95,2.29.06,1.31-.39,2.54-1.14,3.59-.11.15.14.3.25.15h0Z"/>
  </g>
  <rect class="cls-4" x="-922.09" y="-164.15" width="1496.63" height="629.76"/>
</svg>