<?xml version="1.0" encoding="UTF-8"?>
<svg id="Calque_1" data-name="Calque 1" xmlns="http://www.w3.org/2000/svg" viewBox="0 0 200 128">
  <defs>
    <style>
      .cls-1, .cls-2, .cls-3, .cls-4, .cls-5, .cls-6 {
        fill: none;
      }

      .cls-7 {
        fill: #87ccf3;
      }

      .cls-7, .cls-8, .cls-9, .cls-2, .cls-3, .cls-4, .cls-10, .cls-6 {
        stroke: #000;
      }

      .cls-7, .cls-8, .cls-9, .cls-2, .cls-3, .cls-4, .cls-5, .cls-6 {
        stroke-linecap: round;
        stroke-linejoin: round;
      }

      .cls-8 {
        fill: #b2f0e9;
      }

      .cls-9 {
        fill: #fff;
      }

      .cls-3 {
        stroke-width: .75px;
      }

      .cls-11 {
        fill: #f6e7d4;
      }

      .cls-12 {
        fill: #fab0b4;
      }

      .cls-13 {
        fill: #ff6d75;
      }

      .cls-4 {
        stroke-width: 2px;
      }

      .cls-10 {
        stroke-miterlimit: 10;
        stroke-width: .25px;
      }

      .cls-5 {
        stroke: #fff;
        stroke-width: 8px;
      }

      .cls-6 {
        stroke-width: 3px;
      }
    </style>
  </defs>
  <path class="cls-11" d="m77.64,93.58l-.11.14.11-.14Z"/>
  <path class="cls-11" d="m77.04,94.32l-.17.18.17-.18Z"/>
  <circle class="cls-13" cx="122.05" cy="89.81" r=".61"/>
  <path class="cls-1" d="m107.09,61.9s-12.42-29.4,12.89-36.44c0,0,1.41-5.33,7.57-3.61,0,0,6.14-7.65,16.18-.19,0,0,5.66-1.83,7.57,3.61,0,0,23.23,3.87,12.89,36.44,0,0,.23-8.4-7.83-21.57,0,0-3.29-.05-5.12-2.29,0,0-5.62,1.38-8.2-3.13,0,0-4.24,3.59-8.92.38,0,0-3.5,3.8-9.12,1.2,0,0-1.82,2.02-6.98,1.81,0,0-.59,1.09-4.77,2.38,0,0-6.13,9.38-6.15,21.39Z"/>
  <path class="cls-2" d="m111.78,61.86s12.97-7.24,19.46,8.46"/>
  <path class="cls-2" d="m115.74,65.18s4.74-3.86,10.34.88"/>
  <path class="cls-2" d="m125.67,71.2s-1.35-.15-3.89.09c-4.58.43-6.81-2.05-6.81-2.05l.08-.82s6.02-5.31,12.3,2.15"/>
  <path class="cls-2" d="m130.6,79.67s-3.98,4.05,0,7.02"/>
  <path class="cls-4" d="m119.92,27.94s3.82,10.27,9.98,10.06c6.15-.21,6.95-11.24,6.95-11.24"/>
  <path class="cls-4" d="m110.49,36.09s7.56,5.46,15.59.67"/>
  <path class="cls-4" d="m108.2,41.55s7.79.07,11.03-2.82"/>
  <path class="cls-4" d="m106.89,62.53s-6.19-3.53-6.46,2.35,2.21,5.4,3.88,11.21c1.67,5.81,5.31,6.69,5.31,6.69"/>
  <path class="cls-2" d="m134.21,27.12s-.94,4.05-2.79,6.9"/>
  <circle class="cls-2" cx="120.67" cy="69.16" r="2.08"/>
  <circle class="cls-10" cx="121.31" cy="69.13" r="1.02"/>
  <path class="cls-2" d="m159.1,61.68s-12.97-7.24-19.46,8.46"/>
  <path class="cls-2" d="m155.15,64.99s-4.74-3.86-10.34.88"/>
  <path class="cls-2" d="m140.28,79.48s3.98,4.05,0,7.02"/>
  <path class="cls-4" d="m160.4,35.9s-12.71,6.24-17.56-.55"/>
  <path class="cls-4" d="m162.69,41.37s-7.88.27-11.12-2.61"/>
  <path class="cls-4" d="m156.88,41.83s7.65,13.25,7.11,20.51c0,0,11.14-28.75-12.89-36.44,0,0-1.3-4.86-7.57-3.61-8.26-7.21-16.18.19-16.18.19-6.27-1.25-7.57,3.61-7.57,3.61-24.02,7.7-12.89,36.44-12.89,36.44-.55-7.26,7.11-21.92,7.11-21.92"/>
  <path class="cls-4" d="m164.08,60.96s-.6,29.19-11.52,40.49c-10.93,11.3-16.99,10.03-16.99,10.03l.19.02s-6.49,1.43-17.42-9.87c-10.93-11.3-11.52-40.49-11.52-40.49"/>
  <path class="cls-4" d="m163.99,62.34s6.19-3.53,6.46,2.35c.27,5.88-2.21,5.4-3.88,11.21-1.67,5.81-5.31,6.69-5.31,6.69"/>
  <path class="cls-4" d="m134.3,35.19s5.32,6.74,12.5-4.54"/>
  <path class="cls-2" d="m126.35,92.09h17.45s-8.72,7.27-17.45,0Z"/>
  <path class="cls-2" d="m145.18,70.97s1.35-.15,3.89.09c4.58.43,6.81-2.05,6.81-2.05l-.08-.82s-6.02-5.31-12.3,2.15"/>
  <circle class="cls-2" cx="150.17" cy="68.93" r="2.08"/>
  <circle class="cls-10" cx="151" cy="68.93" r="1.02"/>
  <circle class="cls-6" cx="114.73" cy="89.2" r="15.35"/>
  <line class="cls-6" x1="101.64" y1="97.22" x2="83.78" y2="109.43"/>
  <circle class="cls-13" cx="116" cy="81.43" r=".27"/>
  <circle class="cls-13" cx="120.29" cy="81.97" r=".54"/>
  <circle class="cls-13" cx="116.54" cy="88.11" r=".54"/>
  <circle class="cls-13" cx="118.61" cy="84.88" r=".82"/>
  <circle class="cls-13" cx="119.91" cy="97.22" r=".82"/>
  <circle class="cls-13" cx="118.19" cy="91.41" r=".4"/>
  <circle class="cls-13" cx="121.51" cy="86.5" r=".54"/>
  <circle class="cls-12" cx="114.31" cy="86.49" r=".54" transform="translate(19.68 194.16) rotate(-85.8)"/>
  <circle class="cls-12" cx="117.13" cy="82.07" r=".54" transform="translate(26.71 192.88) rotate(-85.8)"/>
  <circle class="cls-12" cx="123.44" cy="85.53" r=".54" transform="translate(29.09 202.37) rotate(-85.8)"/>
  <circle class="cls-12" cx="121.6" cy="80.64" r=".54" transform="translate(32.28 196.01) rotate(-85.8)"/>
  <circle class="cls-12" cx="115.44" cy="91.07" r=".54" transform="translate(16.16 199.54) rotate(-85.8)"/>
  <circle class="cls-12" cx="121.74" cy="94.54" r=".54" transform="translate(18.55 209.03) rotate(-85.8)"/>
  <circle class="cls-13" cx="120.67" cy="99.85" r=".82"/>
  <circle class="cls-12" cx="122.5" cy="97.16" r=".54" transform="translate(16.63 212.22) rotate(-85.8)"/>
  <circle class="cls-12" cx="119.91" cy="89.64" r=".54" transform="translate(21.73 202.67) rotate(-85.8)"/>
  <path class="cls-3" d="m43.78,28.7c1.96-2.48,6.99-2.97,10.16-1.14"/>
  <g>
    <path class="cls-9" d="m35.1,74.33l-.75,4.49c-.04.25-.27.42-.52.4h0c-.25-.03-.44-.25-.43-.51l.14-2.18,1.56-2.2Z"/>
    <path class="cls-9" d="m37.3,73.24c-.37,1.39-.38,2.33-.35,2.83.03.27-.15.51-.4.57-.04,0-.09.02-.13.02-.23,0-.43-.15-.5-.38-.16-.52-.36-1.42-.31-2.43l-.64,1.3-1.53,3.13-.29.58c-.11.23-.38.31-.59.19-.13-.08-.21-.22-.21-.36,0-.02.01-.05.01-.07l1.02-6.4s.37-2.3.48-3.91c0-.03,0-.07,0-.1,0,0,0-.02,0-.04.07-.46.34-.88.8-1.03.67-.25,1.4.11,1.61.78l.04.11.07.22.26.76s1.25,2.04.65,4.26Z"/>
  </g>
  <path class="cls-8" d="m44.43,121.95l-8.69.11c-.64,0-1.17-.5-1.19-1.14h0c-.01-.44.23-.85.62-1.06l7.39-3.95c.17-.09.36-.14.55-.14h3.77c.55,0,1.02.38,1.14.92l.72,3.24c.02.07.03.15.03.22v.57c.03.65-.49,1.19-1.14,1.2l-1.5.02-1.72.02Z"/>
  <rect class="cls-9" x="42.73" y="108.7" width="5.1" height="7.07"/>
  <polygon class="cls-9" points="59.45 108.7 54.34 108.7 54.69 115.77 59.8 115.77 59.45 108.7"/>
  <path class="cls-7" d="m57.76,57.89c.33,3.55,2.69,55.16,2.69,55.16h-6.9l-3.02-46.37-1.24.02-.8,46.35h-6.89s-.38-48.23.03-55.05l16.14-.11Z"/>
  <path class="cls-8" d="m58.09,121.96l8.69.11c.64,0,1.17-.5,1.19-1.14h0c.01-.44-.23-.85-.62-1.06l-7.39-3.95c-.17-.09-.36-.14-.55-.14h-3.77c-.55,0-1.02.38-1.14.92l-.72,3.24c-.02.07-.03.15-.03.22v.57c-.03.65.49,1.19,1.14,1.2l1.5.02,1.72.02Z"/>
  <g>
    <polygon class="cls-8" points="55.81 31.42 55.81 58.17 43.42 58.17 43.42 32.57 45.45 28.75 47.65 32.57 49.85 30.33 52.05 32.57 53.81 28.75 55.81 31.42"/>
    <g>
      <polygon class="cls-8" points="49.85 30.33 47.65 32.57 45.45 28.75 46.94 27.87 47.98 28.75 49.85 30.33"/>
      <polygon class="cls-8" points="53.81 28.75 52.05 32.57 49.85 30.33 51.41 28.75 52.33 27.83 53.81 28.75"/>
    </g>
  </g>
  <path class="cls-9" d="m65.54,41.48l-4.45,7.14-.1.09-.15.14-.05-.14-1.61-4.7.14,4.7v.4s-.53-.05-.53-.05l-.3,1.4-.5,2.36-.45,2.15,1.97.14.74,25.31h-7.38l.54-28.96.03-1.78-.27,1.13.1-2.63v-.24s.13-3.22.13-3.22l.25-6.64.18-9.35,4.47,1.89c.88.21,4,1.36,6.18,7.35.16.44.31.9.46,1.41.22.72.41,1.41.61,2.08Z"/>
  <path class="cls-9" d="m39.72,80.42l.38-25.17-1.98,13.03-1.73-.05h-.12l-2.4-.07h0l-1.88-.05s2.27-18.32,3.28-27.35c.97-8.72,5.19-9.9,5.19-9.9l4.98-2.1.71,22.05h0s.94,29.61.94,29.61h-7.38Z"/>
  <polygon class="cls-7" points="68.14 37.32 65.54 41.48 61.09 48.62 60.99 48.71 60.84 48.85 60.79 48.71 59.32 48.71 59.33 49.11 58.79 49.07 58.49 50.46 56.51 50.82 53.26 48.19 53.22 48.16 53.27 47.95 53.83 45.49 56.66 39.44 64.47 37.99 68.14 37.32"/>
  <path class="cls-9" d="m60.79,48.71h-1.47l-.53.35-.3,1.4-.5,2.36-.45,2.15,1.97.14,5.82.42c.25.04.47.04.7,0,1.56-.34,2.12-2.77,1.83-4.34-.41-2.2-1.14-5.57-2.31-9.7l-4.45,7.14-.1.09h-.2Z"/>
  <path class="cls-9" d="m56.38,48.81l2.41.26-.3,1.4-.5,2.36c-2.03-.28-3.24-.77-3.24-.77l-1.35-.59-1.54-.67c-.71-.37-1.15-1.1-1.15-1.9v-.57c0-.44.14-.88.4-1.25l.58-1.27c.41-.56,1.01-.95,1.7-1.07.02,0,.04,0,.06,0l.76-.08-.37.84c3.74.39,2.55,3.32,2.55,3.32Z"/>
  <path class="cls-2" d="m44.42,20.3h0c-.1-.02-.78-.2-1.18-1.28-.44-1.17-.93-1.03-.98-2.24-.03-1.14,1.15-.65,1.28-.58"/>
  <path class="cls-9" d="m55.23,15.27c.02.67.03,2.39-.24,4.18-.23,1.49-.68,3.02-1.49,4-.58.7-1.09,1.19-1.53,1.54-1,.78-1.63.8-1.76.79-.15.04-1,.17-2.47-.79-.37-.24-.78-.56-1.23-.96-.96-.85-1.63-2.29-2.09-3.72-.55-1.73-.81-3.43-.88-4.1h0c-.02-.07-.03-.15-.02-.23.02.06.05.1.05.1-.03-.28-.03-.56-.02-.83.18-1.39,1.45-3.68,1.6-4.07l.19-.04c.52.03,1.12-.09,1.73-.52.25.16.52.23.8.2.4-.05.67-.32.85-.65,0,0,.02.02.03.02.12.11.84.74,1.73-.12.47.56,1.21.61,1.88.48.41.32.97.29.97.29.03.05.07.09.09.14,1.67,2.36,1.83,3.95,1.85,4.13.1-.42.18-.82.23-1.2-.09.71-.22,1.22-.25,1.33h0s0,.03,0,.03h0Z"/>
  <path class="cls-2" d="m43.54,16.21s0,0-.01-.02h0c-.06-.14-.36-.82-.57-1.74v-.03c-.41-1.85-.43-4.64,2.64-5.88,0,0,.19-1.01,1.49-.85,0,0,1.5-1.64,3.32-.29,1.26-.36,1.6.61,1.6.61,3.47.82,3.69,3.95,3.49,5.81,0,.04-.01.07-.01.1"/>
  <path class="cls-2" d="m54.98,19.45h0c.09-.04.74-.32.97-1.45.25-1.22.76-1.16.62-2.36-.15-1.13-1.23-.46-1.35-.37"/>
  <path class="cls-9" d="m49.94,15.12s.4,3.59,1.18,5.39c0,0-.15.37-1.32.14"/>
  <ellipse class="cls-9" cx="47.54" cy="16.83" rx=".12" ry=".36" transform="translate(-1.16 3.72) rotate(-4.42)"/>
  <ellipse class="cls-9" cx="52.48" cy="16.36" rx=".12" ry=".36" transform="translate(-1.11 4.1) rotate(-4.42)"/>
  <path class="cls-3" d="m40.22,41.21c-.58-.1-2.42-.2-2.31-1.64s2.34-5.92,4.18-5.81,3.22,7.28,2.26,7.52-2.06.06-2.06.06"/>
  <path class="cls-3" d="m39.99,35.1s1.87-3.72,2.29-3.69c.52.03,1.6,4.7,1.6,4.7"/>
  <path class="cls-9" d="m52.33,27.83l-2.31,2.38-3.08-2.34.8-2.88c1.47.96,2.32.83,2.47.79.13,0,.76,0,1.76-.79l.36,2.84Z"/>
  <path class="cls-3" d="m53.78,27.46c4.48,2.61,3.23,7.97,3.23,7.97"/>
  <path class="cls-3" d="m42.05,31.67c.1-.42,1.45-2.83,2.25-3.53"/>
  <circle class="cls-3" cx="57.01" cy="36.77" r="1.37"/>
  <ellipse class="cls-3" cx="40.22" cy="41.11" rx=".41" ry=".47"/>
  <ellipse class="cls-3" cx="42.44" cy="41.31" rx=".41" ry=".47"/>
  <circle class="cls-13" cx="113.79" cy="80.94" r=".82"/>
  <circle class="cls-12" cx="112.32" cy="78.13" r=".54" transform="translate(26.18 184.42) rotate(-85.8)"/>
  <rect class="cls-5" x="-1545.08" y="-68.12" width="2179.47" height="547.09"/>
</svg>