<?xml version="1.0" encoding="UTF-8"?>
<svg id="Calque_1" data-name="Calque 1" xmlns="http://www.w3.org/2000/svg" viewBox="0 0 128 128">
  <defs>
    <style>
      .cls-1, .cls-2, .cls-3, .cls-4, .cls-5, .cls-6, .cls-7, .cls-8, .cls-9 {
        stroke-linecap: round;
        stroke-linejoin: round;
      }

      .cls-1, .cls-2, .cls-3, .cls-4, .cls-6, .cls-8 {
        stroke: #000;
      }

      .cls-1, .cls-10 {
        fill: #76ac75;
      }

      .cls-2 {
        fill: #baa584;
      }

      .cls-3 {
        fill: #fff;
      }

      .cls-4, .cls-5, .cls-8, .cls-9 {
        fill: none;
      }

      .cls-5 {
        stroke: #76ac75;
      }

      .cls-6, .cls-7 {
        fill: #ff6d75;
      }

      .cls-6, .cls-7, .cls-8 {
        stroke-width: .5px;
      }

      .cls-7 {
        stroke: #ff6d75;
      }

      .cls-9 {
        stroke: #fff;
        stroke-width: 8px;
      }
    </style>
  </defs>
  <path class="cls-7" d="m76.13,105.41s-3.06,1.64-6.32,1.71-8.28-3.46-11.2-3.26c-2.92.2-5.91,1.97-8.76,2.38-2.85.41-4.76.37-6.32.2.65-.42,1.09-.95,1.09-.95l-.65-.29,1.85-.5-1.09-.29s1.76.16,6-.98c3.18-.86,3.71-1.71,6.74-2,2.1-.2,5.49,1.09,7.64,2.17,2.14,1.09,2.75,1.54,4.99,1.82,2.24.28,6.04,0,6.04,0Z"/>
  <polyline class="cls-5" points="63.53 95.46 40.95 96.27 34.82 87 40.41 80.69 55.04 87.22 57.88 90.34"/>
  <polyline class="cls-4" points="8.2 76.59 61.95 76.59 95.2 112.09"/>
  <polyline class="cls-4" points="95.2 112.09 37.45 112.09 8.2 76.59"/>
  <g>
    <polygon class="cls-1" points="65.53 85.54 64.81 83.65 63.2 85.07 75.77 22.88 80.43 23.82 67.86 86.02 67.14 84.12 65.53 85.54"/>
    <rect class="cls-3" x="76.98" y="19.61" width="2.79" height="4.75" transform="translate(115.45 -50.48) rotate(101.42)"/>
    <rect class="cls-3" x="76.53" y="15.93" width="5.3" height="4.19" transform="translate(45.83 92.06) rotate(-78.58)"/>
    <polygon class="cls-3" points="63.53 95.46 63.42 91.99 63.2 85.07 64.81 83.65 65.53 85.54 67.14 84.12 67.86 86.02 64.98 92.31 63.53 95.46"/>
    <polygon class="cls-10" points="63.96 93.33 63.87 90.34 65.2 90.61 63.96 93.33"/>
    <line class="cls-8" x1="78.54" y1="25.18" x2="67.07" y2="81.97"/>
    <line class="cls-8" x1="76.98" y1="24.86" x2="65.51" y2="81.65"/>
  </g>
  <g>
    <path class="cls-2" d="m84.51,91.44l-3.51-1.8,2.21-5.59c6.17-15.58,13.83-30.53,22.88-44.63l3.04-4.73,3.51,1.8-2.14,5.42c-6.16,15.58-13.81,30.53-22.86,44.64l-3.14,4.9Z"/>
    <path class="cls-2" d="m111.95,31.15h0c1.08,0,1.96.88,1.96,1.96v2.72h-3.92v-2.72c0-1.08.88-1.96,1.96-1.96Z" transform="translate(27.57 -47.34) rotate(27.11)"/>
    <rect class="cls-3" x="80.06" y="90.36" width="3.92" height="3.17" transform="translate(50.92 -27.28) rotate(27.11)"/>
    <path class="cls-3" d="m79.48,92.44c-2.28.99-3.87,3.13-3.2,5.65.25.93.65,1.82.76,2.77.1.9-.13,1.78-.5,2.59s-.63,1.37-1.35,2.26c2.86-.94,5.59-1.95,7.33-4.58,1.06-1.6,1.26-5.1.64-6.83-1.92-.99-.99-.5-3.67-1.87Z"/>
    <path class="cls-6" d="m76.74,99.56c-.08-.39.42-1.27.65-1.54.07-.08.16-.16.26-.18.21-.05.41.12.55.28.49.6.86,1.48,1.77,1.44.3-.01.59-.14.89-.22.61-.18,1.26-.21,1.88-.08.11.02.21.05.3.12.35.28-.18.98-.32,1.25-.66,1.28-1.65,2.39-2.9,3.11-2.6,1.49-4.62,1.98-4.62,1.98,0,0,1.57-2.07,1.72-3.3s-.17-2.85-.17-2.85Z"/>
  </g>
  <rect class="cls-9" x="-878.01" y="-133.07" width="1496.63" height="1236.8"/>
</svg>