<?xml version="1.0" encoding="UTF-8"?>
<svg id="Calque_1" data-name="Calque 1" xmlns="http://www.w3.org/2000/svg" viewBox="0 0 128 128">
  <defs>
    <style>
      .cls-1, .cls-2, .cls-3, .cls-4, .cls-5, .cls-6, .cls-7 {
        stroke: #000;
      }

      .cls-1, .cls-2, .cls-3, .cls-4, .cls-5, .cls-8 {
        stroke-linecap: round;
        stroke-linejoin: round;
      }

      .cls-1, .cls-7 {
        fill: #f3d587;
      }

      .cls-2 {
        fill: #e9cb61;
      }

      .cls-3, .cls-8 {
        fill: none;
      }

      .cls-4 {
        fill: #ff6d75;
      }

      .cls-4, .cls-5 {
        stroke-width: 2px;
      }

      .cls-5, .cls-6 {
        fill: #fff;
      }

      .cls-6, .cls-7 {
        stroke-miterlimit: 10;
      }

      .cls-8 {
        stroke: #fff;
        stroke-width: 8px;
      }
    </style>
  </defs>
  <g>
    <g>
      <path class="cls-4" d="m111.96,76.92c-1.19,3.29-3.09,6.24-5.52,8.67h.01s-37.43,37.19-37.43,37.19c-.22.22-.51.33-.81.33l1.57-14.99-7.32-9.54,11.47-17.29-11.47-9.42,5.69-12.73c3.73-8.19,11.98-13.91,21.55-13.91,13.05,0,23.66,10.62,23.66,23.67,0,2.81-.49,5.51-1.4,8.02Z"/>
      <path class="cls-7" d="m95.98,64.01c-9.59,0-17.39,7.76-17.39,17.28s7.8,17.29,17.39,17.29,17.39-7.76,17.39-17.29-7.8-17.28-17.39-17.28Zm0,32.5c-8.46,0-15.32-6.81-15.32-15.22s6.86-15.22,15.32-15.22,15.33,6.82,15.33,15.22-6.86,15.22-15.33,15.22Z"/>
    </g>
    <g>
      <path class="cls-4" d="m54.64,98.58l7.32,9.54-1.57,14.99c-.29,0-.58-.11-.8-.33l-36.09-35.84c-.95-.81-1.83-1.69-2.64-2.63-1.9-2.21-3.4-4.76-4.39-7.56-.87-2.46-1.34-5.1-1.34-7.85,0-13.05,10.61-23.67,23.66-23.67,9.57,0,17.82,5.72,21.54,13.91l-5.69,12.73,11.47,9.42-11.47,17.29Z"/>
      <polygon class="cls-6" points="40.23 62 37.47 63.93 32.8 63.93 30.04 62 32.8 59.13 37.47 59.13 40.23 62"/>
      <path class="cls-7" d="m34.93,64.01c-9.58,0-17.39,7.76-17.39,17.28s7.81,17.29,17.39,17.29,17.4-7.76,17.4-17.29-7.81-17.28-17.4-17.28Zm0,32.5c-8.46,0-15.32-6.81-15.32-15.22s6.86-15.22,15.32-15.22,15.33,6.82,15.33,15.22-6.86,15.22-15.33,15.22Z"/>
      <polyline class="cls-3" points="32.8 59.13 34.93 64.01 37.47 59.13"/>
    </g>
  </g>
  <g>
    <circle class="cls-5" cx="64.25" cy="24.83" r="19.93"/>
    <path class="cls-2" d="m64.27,16.52h.26c1.04,0,1.89.85,1.89,1.89v11.98h-4.04v-11.98c0-1.04.85-1.89,1.89-1.89Z"/>
    <line class="cls-3" x1="64.4" y1="16.52" x2="64.4" y2="14.5"/>
    <line class="cls-3" x1="51.4" y1="18.65" x2="77.63" y2="18.65"/>
    <path class="cls-1" d="m57.86,26.86c0,2.27-1.84,4.1-4.1,4.1s-4.1-1.84-4.1-4.1h8.21Z"/>
    <polyline class="cls-3" points="49.65 26.86 53.91 18.65 57.86 26.86"/>
    <path class="cls-1" d="m78.85,26.86c0,2.27-1.84,4.1-4.1,4.1s-4.1-1.84-4.1-4.1h8.21Z"/>
    <polyline class="cls-3" points="70.64 26.86 74.9 18.65 78.85 26.86"/>
    <rect class="cls-1" x="61.11" y="30.38" width="6.62" height="2.78"/>
    <rect class="cls-1" x="55.98" y="33.33" width="15.82" height="2.78"/>
    <rect x="62.96" y="13.55" width="2.91" height=".96"/>
  </g>
  <rect class="cls-8" x="-762.26" y="-80.55" width="1466.44" height="999.05"/>
</svg>