<?xml version="1.0" encoding="UTF-8"?>
<svg id="Calque_1" data-name="Calque 1" xmlns="http://www.w3.org/2000/svg" viewBox="0 0 128 128.13">
  <defs>
    <style>
      .cls-1, .cls-2, .cls-3, .cls-4, .cls-5 {
        stroke: #000;
      }

      .cls-1, .cls-2, .cls-3, .cls-4, .cls-5, .cls-6 {
        stroke-linejoin: round;
      }

      .cls-1, .cls-2, .cls-5, .cls-6 {
        fill: none;
      }

      .cls-1, .cls-3, .cls-4, .cls-5, .cls-6 {
        stroke-linecap: round;
      }

      .cls-7, .cls-3 {
        fill: #f387d5;
      }

      .cls-3, .cls-4, .cls-5 {
        stroke-width: 2px;
      }

      .cls-4 {
        fill: #fff;
      }

      .cls-6 {
        stroke: #fff;
        stroke-width: 8px;
      }
    </style>
  </defs>
  <path class="cls-5" d="m57.16,57.91c-.2-.68-.42-1.36-.65-2.03-1.09-3.19-2.48-6.29-4.35-9.1-2.41-3.63-5.59-5.88-8.74-8.75l-.95-5.86h-16.66l-.93,5.85c-5.98,5.43-10.47,10.25-13.09,17.85-.24.66-.46,1.34-.67,2.04v49.47c0,4.73,10.31,8.56,23.02,8.56s23.03-3.83,23.03-8.56c0,0,0-49.47,0-49.47Zm-5.01,47.54c-1.63.76-3.59,1.42-5.81,1.93-3.54.82-7.72,1.3-12.2,1.3s-8.66-.48-12.19-1.3c-2.37-.55-4.46-1.26-6.14-2.08v-39.48c4.2,1.49,10.85,2.44,18.33,2.44s13.79-.9,18.01-2.32v39.51Z"/>
  <path class="cls-3" d="m52.32,65.94v39.51c-1.63.76-3.59,1.42-5.81,1.93-3.54.82-7.72,1.3-12.2,1.3s-8.66-.48-12.19-1.3c-2.37-.55-4.46-1.26-6.14-2.08v-39.48c4.2,1.49,10.85,2.44,18.33,2.44s13.79-.9,18.01-2.32Z"/>
  <path class="cls-3" d="m23.39,9.91h21.53c1.89,0,3.43,1.54,3.43,3.43v18.83h-28.39V13.34c0-1.89,1.54-3.43,3.43-3.43Z"/>
  <line class="cls-2" x1="22.64" y1="9.91" x2="22.64" y2="24.99"/>
  <line class="cls-2" x1="24.95" y1="9.91" x2="24.95" y2="24.99"/>
  <line class="cls-2" x1="27.26" y1="9.91" x2="27.26" y2="24.99"/>
  <line class="cls-2" x1="29.57" y1="9.91" x2="29.57" y2="24.99"/>
  <line class="cls-2" x1="31.88" y1="9.91" x2="31.88" y2="24.99"/>
  <line class="cls-2" x1="34.19" y1="9.91" x2="34.19" y2="24.99"/>
  <line class="cls-2" x1="36.5" y1="9.91" x2="36.5" y2="24.99"/>
  <line class="cls-2" x1="38.81" y1="9.91" x2="38.81" y2="24.99"/>
  <line class="cls-2" x1="41.12" y1="9.91" x2="41.12" y2="24.99"/>
  <line class="cls-2" x1="43.43" y1="9.91" x2="43.43" y2="24.99"/>
  <line class="cls-2" x1="45.73" y1="9.91" x2="45.73" y2="24.99"/>
  <path d="m28.91,81.02c1-.15,2.2-.26,3.51-.26,2.37,0,4.06.55,5.18,1.59,1.14,1.04,1.8,2.52,1.8,4.59s-.65,3.79-1.84,4.97c-1.2,1.2-3.17,1.84-5.65,1.84-1.18,0-2.16-.06-3-.15v-12.57Zm1.65,11.3c.42.08,1.02.1,1.67.1,3.53,0,5.44-1.97,5.44-5.42.02-3.01-1.69-4.93-5.18-4.93-.85,0-1.5.08-1.93.17v10.09Z"/>
  <g>
    <rect class="cls-7" x="63.33" y="64.12" width="6.71" height="67.91" transform="translate(96.98 -16.59) rotate(49.01)"/>
    <rect class="cls-5" x="71.21" y="46.44" width="7.27" height="89.32" transform="translate(95.49 -24.98) rotate(49.49)"/>
    <path class="cls-1" d="m46.45,111.12l-3.21,2.71c-1.04.89-.94,2.71.22,4.07h0c1.16,1.36,2.95,1.74,3.99.85l3.21-2.71"/>
    <rect class="cls-4" x="108.95" y="56.09" width="5.21" height="7.27" transform="translate(84.5 -63.89) rotate(49.49)"/>
    <rect class="cls-4" x="109.7" y="55.41" width="11.06" height="2.37" transform="translate(83.4 -67.77) rotate(49.49)"/>
    <line class="cls-5" x1="114.49" y1="68.75" x2="103.11" y2="55.43"/>
    <line class="cls-1" x1="104.94" y1="66.72" x2="101.72" y2="62.95"/>
    <line class="cls-1" x1="100.88" y1="68.15" x2="98.66" y2="65.6"/>
    <line class="cls-1" x1="97.41" y1="71.16" x2="95.2" y2="68.62"/>
    <line class="cls-1" x1="93.97" y1="74.15" x2="91.76" y2="71.6"/>
    <line class="cls-1" x1="87.67" y1="79.63" x2="85.46" y2="77.08"/>
    <line class="cls-1" x1="84.21" y1="82.64" x2="81.99" y2="80.09"/>
    <line class="cls-1" x1="80.77" y1="85.62" x2="78.56" y2="83.08"/>
    <line class="cls-1" x1="74.47" y1="91.1" x2="72.26" y2="88.55"/>
    <line class="cls-1" x1="71" y1="94.11" x2="68.79" y2="91.56"/>
    <line class="cls-1" x1="67.57" y1="97.1" x2="65.35" y2="94.55"/>
    <line class="cls-1" x1="61.27" y1="102.57" x2="59.05" y2="100.02"/>
    <line class="cls-1" x1="57.8" y1="105.58" x2="55.59" y2="103.03"/>
    <line class="cls-1" x1="54.36" y1="108.57" x2="52.15" y2="106.02"/>
    <line class="cls-1" x1="91.81" y1="78.13" x2="88.59" y2="74.36"/>
    <line class="cls-1" x1="78.68" y1="89.54" x2="75.46" y2="85.77"/>
    <line class="cls-1" x1="65.55" y1="100.95" x2="62.32" y2="97.18"/>
    <line class="cls-1" x1="52.41" y1="112.36" x2="49.19" y2="108.59"/>
  </g>
  <rect class="cls-6" x="-3227.75" y="-1872.09" width="6467.34" height="6437.3"/>
</svg>