<?xml version="1.0" encoding="UTF-8"?>
<svg id="Calque_1" data-name="Calque 1" xmlns="http://www.w3.org/2000/svg" viewBox="0 0 128 128">
  <defs>
    <style>
      .cls-1 {
        fill: #fff;
      }

      .cls-2 {
        fill: #76ac75;
      }

      .cls-3 {
        fill: #f3d587;
      }

      .cls-3, .cls-4 {
        stroke-width: 2px;
      }

      .cls-3, .cls-4, .cls-5 {
        stroke: #000;
        stroke-miterlimit: 10;
      }

      .cls-4 {
        fill: #b4eac3;
      }

      .cls-5 {
        fill: #baa584;
      }

      .cls-6 {
        fill: none;
        stroke: #fff;
        stroke-linecap: round;
        stroke-linejoin: round;
        stroke-width: 8px;
      }
    </style>
  </defs>
  <path class="cls-4" d="m109.37,102.7s-13.49-10.83-47.47-25.35c-25.58-10.93-51.92-14.16-51.92-14.16l15.84-39.85s27.91,5.02,49.29,13.52c28.08,11.16,50.1,25.99,50.1,25.99l-15.84,39.85Z"/>
  <path class="cls-2" d="m19.08,61.81c-.24-.1-.45-.28-.57-.51-.16-.29-.18-.65-.06-.96.29-.73.25-1.55-.13-2.24-.37-.68-1.01-1.15-1.76-1.3-.33-.07-.61-.27-.77-.57-.16-.29-.18-.64-.06-.96l9.77-24.59c.21-.52.76-.81,1.3-.68,1.26.29,2.52-.39,3.01-1.61.21-.52.76-.81,1.3-.68,7.6,1.72,26.98,6.41,42.78,12.69,20.66,8.21,38,18.11,44.5,21.98.48.28.68.87.47,1.39-.48,1.21-.03,2.57,1.07,3.22.48.28.68.87.47,1.39l-9.77,24.57c-.12.31-.38.55-.7.66-.32.1-.67.06-.95-.12-.65-.41-1.44-.5-2.17-.26-.74.24-1.34.81-1.63,1.54-.12.31-.38.55-.7.66-.32.1-.67.06-.95-.12-5.73-3.59-18.63-11.01-40.72-20.35-17.34-7.33-34.72-11.35-43.54-13.1-.07-.01-.13-.03-.2-.06Zm-.82-6.78c.86.44,1.57,1.13,2.04,2,.48.88.67,1.88.56,2.86,9.21,1.87,26.03,5.9,42.83,13,21.04,8.9,33.83,16.08,40.04,19.9.59-.79,1.42-1.38,2.37-1.69.94-.31,1.93-.32,2.85-.05l9.02-22.68c-1.24-1.13-1.8-2.81-1.5-4.47-6.96-4.11-23.67-13.52-43.43-21.38-15.1-6-33.53-10.54-41.6-12.4-.92,1.42-2.49,2.25-4.17,2.22l-9.02,22.7Z"/>
  <path class="cls-2" d="m56.14,52.59c2.67-6.71,10.27-9.99,16.98-7.32,6.71,2.67,9.99,10.27,7.32,16.98-2.67,6.71-10.27,9.99-16.98,7.32-6.71-2.67-9.99-10.27-7.32-16.98Z"/>
  <path class="cls-2" d="m41.96,48.27c1.07-2.7,4.14-4.02,6.84-2.95,2.7,1.07,4.02,4.14,2.95,6.84-1.07,2.7-4.14,4.02-6.84,2.95-2.7-1.07-4.02-4.14-2.95-6.84Z"/>
  <path class="cls-2" d="m82.08,64.22c1.07-2.7,4.14-4.02,6.84-2.95,2.7,1.07,4.02,4.14,2.95,6.84-1.07,2.7-4.14,4.02-6.84,2.95-2.7-1.07-4.02-4.14-2.95-6.84Z"/>
  <g>
    <path d="m65.5,66.67c-.06,0-.13-.01-.19-.04l-1.31-.53c-.26-.1-.38-.4-.27-.65l.68-1.66c-1.09-.56-2.08-1.39-2.59-2.2-.12-.19-.1-.43.05-.6l1.07-1.19c.1-.11.23-.17.37-.17.01,0,.02,0,.03,0,.15.01.29.09.38.22.57.84,1.45,1.54,2.41,1.94.37.15.74.23,1.08.23.74,0,1.31-.36,1.57-.99.35-.86,0-1.7-1.23-2.89-1.62-1.55-3-3.29-2.08-5.55.64-1.58,2.08-2.52,3.85-2.52.26,0,.53.02.8.06l.7-1.73c.05-.12.15-.22.27-.27.06-.03.13-.04.19-.04s.13.01.19.04l1.29.53c.26.1.38.4.27.65l-.64,1.59c.9.46,1.61,1.05,2.16,1.77.15.19.14.47-.03.64l-1.08,1.16c-.09.1-.23.16-.37.16h-.02c-.15,0-.28-.08-.37-.19-.26-.33-.87-1.11-2.13-1.62-.35-.14-.69-.22-.99-.22-.88,0-1.21.64-1.29.84-.31.77.02,1.42,1.5,2.88,1.36,1.33,2.8,3.18,1.78,5.67-.66,1.63-2.22,2.65-4.05,2.65-.27,0-.54-.02-.82-.06l-.73,1.79c-.05.12-.15.22-.27.27-.06.03-.13.04-.19.04Z"/>
    <path class="cls-1" d="m71.29,48.59l1.29.53-.82,2.02c1.23.55,1.95,1.23,2.41,1.83l-1.08,1.16c-.33-.43-1-1.23-2.33-1.78-.44-.18-.83-.26-1.17-.26-.92,0-1.51.54-1.76,1.15-.44,1.08.11,1.94,1.61,3.43,1.79,1.75,2.43,3.27,1.67,5.13-.55,1.36-1.86,2.33-3.59,2.33-.36,0-.74-.04-1.13-.13l-.88,2.17-1.31-.53.85-2.1c-1.2-.51-2.29-1.4-2.81-2.22l1.07-1.19c.55.8,1.47,1.64,2.63,2.12.44.18.87.27,1.27.27.93,0,1.69-.47,2.03-1.3.46-1.15-.06-2.19-1.34-3.44-1.78-1.7-2.7-3.19-1.96-5,.57-1.4,1.84-2.2,3.39-2.2.36,0,.73.04,1.11.13l.85-2.11m0-1c-.13,0-.26.03-.39.08-.24.1-.44.3-.54.55l-.56,1.37c-.16-.01-.32-.02-.48-.02-1.98,0-3.59,1.06-4.31,2.83-1.03,2.54.53,4.51,2.2,6.1,1.36,1.32,1.28,1.9,1.11,2.34-.23.56-.73.68-1.1.68-.28,0-.58-.06-.89-.19-.86-.35-1.67-1.01-2.18-1.75-.17-.25-.45-.42-.76-.44-.02,0-.04,0-.07,0-.28,0-.55.12-.75.33l-1.07,1.19c-.3.33-.34.82-.1,1.2.5.79,1.37,1.57,2.38,2.16l-.51,1.25c-.21.51.04,1.09.55,1.3l1.31.53c.12.05.25.07.38.07s.26-.03.39-.08c.25-.1.44-.3.54-.55l.58-1.43c.17.01.34.02.5.02,2.04,0,3.78-1.13,4.52-2.96,1.12-2.77-.43-4.78-1.9-6.22-1.55-1.53-1.55-1.93-1.39-2.34.08-.2.29-.53.83-.53.23,0,.5.06.8.18,1.13.46,1.67,1.14,1.92,1.47.18.23.45.37.75.38.01,0,.03,0,.04,0,.28,0,.54-.12.73-.32l1.08-1.16c.33-.36.36-.9.06-1.29-.52-.67-1.15-1.23-1.93-1.69l.48-1.18c.21-.51-.04-1.09-.55-1.3l-1.29-.53c-.12-.05-.25-.07-.38-.07h0Z"/>
  </g>
  <circle class="cls-3" cx="38.26" cy="85.3" r="9.52" transform="translate(-50.62 114.28) rotate(-83.9)"/>
  <circle class="cls-3" cx="52.03" cy="92.94" r="9.52" transform="translate(-54.31 99.06) rotate(-64.05)"/>
  <circle class="cls-5" cx="71.1" cy="95.54" r="6.36" transform="translate(-27.3 28.45) rotate(-19.06)"/>
  <path d="m49.18,97.83l.52-1.29c-.73-.32-1.41-.86-1.72-1.36l.65-.73c.33.49.9,1.01,1.61,1.3.91.37,1.73.09,2.03-.63s-.04-1.34-.82-2.11c-1.09-1.04-1.66-1.96-1.21-3.07.43-1.06,1.51-1.56,2.76-1.27l.52-1.29.79.32-.5,1.24c.76.34,1.19.76,1.48,1.12l-.66.71c-.21-.26-.61-.76-1.43-1.09-.98-.4-1.59.04-1.8.55-.27.66.07,1.19.99,2.1,1.1,1.07,1.49,2.01,1.03,3.14-.41,1.01-1.49,1.67-2.9,1.35l-.54,1.33-.8-.33Z"/>
  <path d="m38.08,90.97l-.04-1.4c-.79,0-1.62-.23-2.11-.56l.3-.94c.5.32,1.22.57,1.98.55.97-.02,1.61-.61,1.58-1.4s-.57-1.22-1.59-1.61c-1.41-.52-2.29-1.14-2.32-2.35-.04-1.15.74-2.04,1.99-2.28l-.04-1.4.85-.02.04,1.35c.82,0,1.39.22,1.79.44l-.31.92c-.29-.16-.86-.45-1.73-.43-1.05.02-1.43.67-1.41,1.23.02.72.54,1.07,1.74,1.54,1.42.55,2.15,1.25,2.19,2.49.03,1.1-.68,2.14-2.08,2.41l.04,1.44-.86.02Z"/>
  <path d="m72.24,99.33l-.36-.99c-.56.19-1.2.23-1.63.1v-.74c.42.11.99.11,1.53-.08.68-.25,1-.82.79-1.37s-.7-.73-1.52-.77c-1.13-.04-1.9-.26-2.21-1.11-.3-.81.04-1.63.87-2.1l-.37-.99.6-.22.35.95c.58-.19,1.04-.18,1.38-.11v.73c-.25-.04-.72-.12-1.34.11-.74.27-.85.82-.71,1.21.19.51.64.63,1.61.68,1.14.05,1.83.38,2.15,1.25.29.77.02,1.68-.91,2.21l.38,1.01-.61.22Z"/>
  <rect class="cls-6" x="-124.59" y="-52.99" width="1168.31" height="629.76"/>
</svg>