<?xml version="1.0" encoding="UTF-8"?>
<svg id="Calque_1" data-name="Calque 1" xmlns="http://www.w3.org/2000/svg" viewBox="0 0 200 128">
  <defs>
    <style>
      .cls-1, .cls-2, .cls-3, .cls-4, .cls-5, .cls-6, .cls-7, .cls-8, .cls-9, .cls-10, .cls-11, .cls-12, .cls-13, .cls-14, .cls-15, .cls-16, .cls-17 {
        stroke: #000;
      }

      .cls-1, .cls-2, .cls-3, .cls-5, .cls-16, .cls-18 {
        stroke-linecap: round;
      }

      .cls-1, .cls-2, .cls-3, .cls-16, .cls-18 {
        stroke-linejoin: round;
      }

      .cls-1, .cls-15, .cls-17 {
        fill: #76ac75;
      }

      .cls-2, .cls-13, .cls-19 {
        fill: #a07637;
      }

      .cls-3, .cls-16, .cls-18 {
        fill: none;
      }

      .cls-3, .cls-17 {
        stroke-width: .75px;
      }

      .cls-4, .cls-5, .cls-6, .cls-7, .cls-8, .cls-9, .cls-10, .cls-11, .cls-12, .cls-13, .cls-19, .cls-14, .cls-15, .cls-20, .cls-17 {
        stroke-miterlimit: 10;
      }

      .cls-5, .cls-9 {
        fill: #fee4cb;
      }

      .cls-6 {
        fill: #f3d587;
      }

      .cls-6, .cls-7, .cls-16 {
        stroke-width: .5px;
      }

      .cls-7, .cls-20 {
        fill: #fab0b4;
      }

      .cls-8 {
        fill: #ff6d75;
      }

      .cls-10 {
        fill: #fff;
      }

      .cls-11 {
        fill: #ffd4ad;
      }

      .cls-12 {
        fill: #d6d6d6;
      }

      .cls-19, .cls-20 {
        stroke: #a07637;
      }

      .cls-14 {
        fill: #baa584;
      }

      .cls-18 {
        stroke: #fff;
        stroke-width: 8px;
      }
    </style>
  </defs>
  <g>
    <polygon class="cls-12" points="64.3 2.73 198.1 2.73 198.1 63.93 95.51 125.14 1.9 125.14 1.9 2.73 64.3 2.73"/>
    <path class="cls-14" d="m57.44,23.67c-.08-.63-1.3-4.72.66-6.93,1.96-2.22,3.17.83,3.17.83,0,0,2.24-2.5,3.91,0,1.68,2.5.95,3.54.95,3.54,0,0,2.3.05,1.87,2.56-.43,2.51-2.82,4.08-2.82,4.08,0,0-7.48-2.03-7.74-4.08Z"/>
    <path class="cls-14" d="m72.57,33.55c-1.2-2.06-2.51-2.57-3.58-4.71-1.15-2.29-2.1-4.11-3.48-5.25-2.4-2.01-4.87-1.83-7.52-1.17-.15.04-.31.08-.46.12-2.69.71-4.28,3-5.27,5.47-.86,2.14-1.32,4.35-2.17,6.38-6.17,2.07-7.28,6.39-7.95,10.45-.07.41-.15.87-.22,1.34-.18,1.22-.28,2.58.13,3.6.59,1.45,2.62,2.56,3.87,3.33,1.14.7,5.2,2.62,6.95,1.62,3.41,1.88,7.75,2.85,11.35,1.17,2.49-1.16,5.27-3.22,6.92-5.72,1.69-1.5,2.91-3.61,3.52-5.71,1.14-3.95-.11-7.5-2.1-10.92Z"/>
    <path class="cls-13" d="m17.8,51c1.1-1.64,3.03-2.63,3.64-4.61.64-2.08.15-4.51.55-6.67.39-2.13,1.28-5.8,3.68-6.44.08.68.26,1.35.52,1.91-4.22,2.62-1.33,9.45-3.21,13.45-.9,1.91-3.05,2.57-3.91,4.4-.99,2.09.74,3.78,2.69,4.33.91.26,1.83.21,2.75.14-.06.39-.07.8-.04,1.2-4.35,2.16-9.78-3.04-6.66-7.71Z"/>
    <path class="cls-8" d="m24.87,55.64c-1.47,1.59-1.87,5.72,1.17,7.49,3.78,2.2,8.87,2.91,12.75,2.4,4.06-.54,8.92-1.93,11.25-5.57,1.63-2.54.74-7-2.18-8.06,3.1-3.27,2.47-8.36-1.37-10.84,1.39-2.71.2-6.1-2.88-6.66,0-.03,0-.06,0-.09-.14-1.79-1.58-3.2-3.11-3.94-2.31-1.11-5.22-1.28-7.72-1.64-.87-.12-2.52-.59-4.95,1.2-4.07,3.01-1.32,7.62-.74,8.83-2.92,2.74-1.07,5.58-.89,6.1-.75.9-1.85,2.75-2.03,3.82-.45,2.74-.63,4.48.71,6.96Z"/>
    <path class="cls-8" d="m32.24,39.71c1.32,1.31,2.91,1.19,4.68.93,3.05-.46,7.9-2.3,8.96-5.57,1.02-3.13-1.94-7.11-4.16-9.01-1.21-1.04-2.33-1.13-3.84-.8-1.94.42-9.29,3.05-10.06,4.69-.93,1.96,3.29,8.66,4.42,9.78Z"/>
    <path class="cls-20" d="m26.12,44.01c3.69,1.27,7.51,2.52,11.45,1.73-3.92-1.55-7.85-3.81-10.6-7.03-.09-.11.03-.32.17-.22,2.99,2.28,5.9,4.52,9.35,6.07.64.28,1.36.6,2.14.9,3.06-.91,5.15-2.87,7.81-4.63.08-.05.18.05.13.13-1.48,2.29-4.3,3.96-7.01,4.86,3.36,1.24,7.46,2.21,10.18.78.37-.2.71.37.33.57-3.26,1.73-8.11.23-11.51-1.05-.22.06-.44.12-.65.17-4.11.91-8.09-.35-11.95-1.68-.38-.13-.22-.74.17-.61Z"/>
    <path class="cls-19" d="m24.96,55.43c1.73.29,3.42.52,5.1.63-2.68-2.59-5.07-6.03-5.27-9.56,0-.09.13-.13.17-.05.87,1.9,1.45,3.86,2.61,5.63.97,1.49,2.15,2.83,3.46,4.03,2.16.09,4.32-.01,6.55-.42,3.87-.71,7.07-2.51,10.67-3.92.12-.05.21.13.12.21-2.92,2.61-7.54,3.88-11.32,4.5-1.66.27-3.39.42-5.13.41.37.31.75.62,1.14.9,3.85,2.79,9.11,5.26,13.94,5.08.31-.01.38.48.07.55-2.51.51-5.13-.52-7.45-1.41-2.55-.98-4.99-2.26-7.18-3.9-.49-.37-1-.78-1.5-1.23-2.1-.07-4.19-.37-6.14-.97-.32-.1-.19-.55.14-.5Z"/>
    <polygon class="cls-11" points="15.82 91.62 32.93 101.49 37.54 101.49 47.64 109.99 60.69 117.52 93.55 98.55 99.94 92.67 105.11 91.87 138.43 72.64 145.66 65.67 155.25 62.93 175.09 51.47 163 44.49 159.29 38.59 150.85 37.48 130.22 25.57 15.82 91.62"/>
    <path class="cls-8" d="m106.33,53.47c1.04,1.18,2.3,2.24,3.37,3.44.97,1.09,2.05,2.04,3.27,2.83,2.49,1.61,5.35,2.54,8.21,3.25,3.03.75,6.3,1.64,9.44,1.54,5.61-.19,7.8-3.83,12.02-7.44,1.93-1.65,5.39-5.61,5.27-8.43-.18-4.16-3.87-6.61-7.3-8.18-4.38-2-9.29-3.68-14.15-2.66-.84.18-1.65.48-2.52.47-.95,0-1.77-.37-2.67-.57-.82-.18-1.62-.27-2.45-.15-.64.09-1.24.29-1.78.56-4.45.54-8.06,5.41-9.81,9.12-.95,2.01-2.6,4.31-.92,6.21Z"/>
    <path class="cls-10" d="m145.21,54.29s2.01-1.26,3.6-2.29c1.59-1.03,2.09-1.45,2.49-1.13.4.32-.11,1-.53,1.31-.48.36-.83.71-.45.86.5.19,1.92.37,2.79-1.46.87-1.82,2.12-2.35,2.88-1.04.92,1.58.53,3.34-.98,4.92-1.51,1.59-5.05,1.51-6.61,2.02-1.56.52-2.03.52-2.03.52l-1.17-3.72Z"/>
    <path class="cls-15" d="m117.69,60.03c.41,2.79,2.33,3.92,4.71,4.67-.41,1.43.71,2.89,2.06,2.5,1.35,1.51,5.76,2.5,7.5.79,1.88.1,5.26-.36,7.09-1.55,2.69-1.76,4.96-3.18,6.14-6.3,1.4-.04,3.6-.96,3.22-2.66-.57-2.54-2.25-5.31-4.69-3.42-2.85-.22-4.54,1.42-5.49,2.75-1.74.36-2.42.46-4.17,1.3-.75.36-1.51,1.4-2.09,1.95-.08-.1-.12-.55-.64-.82,1.71-1.2,1.75-3.46.13-4.79,1.49-2.01,1.6-4.44.33-6.3.2-1.34-.16-2.61-1.61-3.3-2.14-1.02-4.46.38-6.3,1.39-2.22,1.22-4.49,2.72-5.57,5.12-1.13,2.52-1.01,6.02-.62,8.68Z"/>
    <path class="cls-15" d="m74.62,69.64c1.6,5.51,4.89,8.46,9.53,11.49,2.36,1.54,4.6,3.08,7.37,5.17,3.39-2.31,10.11-8.61,13.48-10.95,6.86-4.77,9.86-9.58,16.71-14.36,2.51-1.75,5.57-3.41,6.83-6.32,1.67-3.87,1.37-8.78.1-9.5-2.04-1.14-7.07,5.26-8.58,6.09-4.61,2.54-10.07,3.4-15.06,4.95-10.47,3.24-20.56,7.61-30.13,12.95-.16.09-.31.28-.26.48Z"/>
    <path class="cls-13" d="m64.65,96.39c1.55.43,3.61-.81,4.12-2.22.43-1.19.42-4,.62-5.19.12-.72.55-1.28.99-1.85,1.05-.25,1.34-1.45,1.21-2.61-.09-.86-.12-2.17-.27-2.91-.03-.16.03-.29-.05-.47-.29-.65-.65-.85-1.35-1.14-1.2-.49-2.18-.36-3.42-.34-.8.02-1.93-.3-2.72.03-1.63.68-1.9,3.59-1.27,4.62-.38,2.77-3.07,10.6,2.14,12.06Z"/>
    <path class="cls-13" d="m35.67,86.35c1.25,1.01,3.64.67,4.66-.42.87-.93,1.96-3.51,2.61-4.53.4-.62,1.01-.96,1.64-1.31,1.06.18,1.8-.81,2.14-1.93.25-.83.74-2.04.89-2.78.03-.16.15-.25.14-.45-.01-.71-.26-1.04-.79-1.58-.91-.93-1.86-1.19-3.01-1.65-.74-.3-1.66-1.03-2.52-1.04-1.77-.02-3.15,2.55-2.98,3.76-1.44,2.39-6.99,8.55-2.77,11.94Z"/>
    <path class="cls-12" d="m98.61,67.79c-.11-1.1.24-1.66.59-2.45,2.08-2.34-.71-6.5-2.24-8.44-1.15-1.46-2.54-2.28-4.04-2.53-1.65-2.86-4.07-5.59-7.19-5.39-3.93.25-7.35,2.41-10.5,4.61-3.43,2.39-6.85,4.93-9.54,8.17-2.36,2.86-4.05,6.29-4.4,10.01-.04.47-.06.94-.06,1.41-1.5-.93-3.19-1.4-5.15-1.1-1.2.18-1.92.03-3.02-.23-.75-.18-1.34-.38-2.14-.34-1.18.06-2.15.5-3.03,1.19-.9-.86-1.86-1.31-3.05-.46-1.44,1.04-2.47,2.97-2.5,4.74-.02,1.4.7,3.44,2.17,3.96,1.24.44.89-.44,1.76-.76.06-.02.1-.05.14-.08,1.22,1.4,2.98,2.1,4.9,2.09,1.54,0,2.87-.49,4.44-.03,1.28.38,2.44,1.13,3.76,1.47,1.72.45,3.65.83,5.31.6.99.39,2.41-.05,3.47-.57-.12,2.08.55,4.12,2.26,4.37.8.12,2.61-.33,3.2-.83.86.66,2.07.99,2.67,1.19,1.43.47,2.56.5,4.05.3,1.76-.23,3.78-.82,5.59-.58,3.07.4,5.27.12,8.36-.76,3.65-1.04,3.41-2.6,3.89-5.32,1.34-1.42,1.13-5.83-.21-7.7,1.22-2.6.65-5.2.51-6.54Zm-15.93,11.4c-2.09-1.32-4.34-.33-5.95-.06-1.08.18-2.2-.1-3.27.16-.17.04-.31.08-.42.1.93-1.27,1.73-2.65,2.47-4.02.75-1.38,1.46-2.65,2.86-3.45.59-.34,1.27-.53,1.81-.96.45-.35.73-.72,1.01-1.21.65-1.15.72-1.57,1.28-2.3.77,1.78,2.23,3.21,4.15,3.78-1.25,2.72-.87,6.05,1.21,8.19-1.6-.82-3.37-.78-5.15-.23Z"/>
    <path class="cls-14" d="m89.88,54.66c.79,2.53,1.54,2.77,3.39,5.33,1.65,2.29,4.4,3.9,5.69,5.98,3.44-.5,2.55-2.27,4.12-2.5.54-.08,2.06.1,2.61-.11,1.03-.38.9-1.11,1.67-1.93,1.85-.02,2.96-.18,3.92-1.32,1.65-1.97,5.05-1.98,7.53-2.5,3.89-.81,6.86-2.45,8.4-5.87,1.56-3.46.81-7.77-1.59-10.92-1.65-2.17-3.93-3.52-6.37-4.53-5.17-3.4-12.67-1.91-16.45,3.6-1.35,1.97-2.41,4.3-4.37,5.75-1.58,1.17-3.58,1.44-5.35,2.19-2.97,1.26-4.16,3.7-3.18,6.82Z"/>
    <path class="cls-12" d="m136.49,43.75s-1.38,2.7-2.67,5.71c-1.28,3.02-1.43,5.34-3.8,5.11-2.38-.24-3.3-3.57-2.59-5.58.72-2.01,3.11-4.89,3.11-4.89,0,0,4.66-1.32,5.95-.35Z"/>
    <path class="cls-10" d="m137.35,42.14c-1.07,2.46-3.63,3.74-6.06,4.46-2.16.63-5.65,1.75-7.53-.11-1.77-1.75-.93-4.83-.03-6.79.46-1,1.39-1.76,2.08-2.72.85-1.19,1.89-2.18,3.29-2.6,2.14-.65,5.23-.14,6.86,1.34,1.77,1.6,2.34,4.24,1.38,6.42Z"/>
    <path class="cls-15" d="m72.56,64.67c2.5-2.77,6.11-5.45,9.47-5.91,1.71-.23,3.44-.31,5.17-.22,1,.05,2.08.28,3.08.06,1.12-.25,1.47-.93,2.4-1.45,1.39-.78,2.77-.6,4.25-.78,2.36-.29,4.54-1.33,6.6-2.45,2.3-1.26,3.72-2.37,6.19-3.27,2.5-.91,5.96-1.65,8.1-3.35,2.73-2.17,6.39-6.05,5.26-8.65-.63-1.44-1.81-2.45-2.89-3.54-2.76-2.77-5.67-2.46-8.63-1.93-2.52.44-4.41,1.83-6.16,3.64-2.16,2.25-4.2,4.31-6.85,5.98-9.11,5.76-21.27,4.86-28.13,13.91-1.4,1.84,2.14,7.97,2.14,7.97Z"/>
    <path class="cls-10" d="m104.96,62.53s2.24,4.94,2.29,7.13c.05,2.2-2.05,3.92-3.59,4.76-1.55.83-2.31-.25-1.98-.79.62-1.03,1.27-1.74,1.27-1.74,0,0-1.69-1.67-1.35-3.88.32-2.02.04-3.45.04-4.4,0-.95,3.33-1.07,3.33-1.07Z"/>
    <path class="cls-15" d="m93.66,51.48c-.56,1.87-.12,3.45.68,5.3,1,2.32,2.35,4.03,3.77,6.1.91,1.34,2.18,2.53,3.8,3.09,2.16-.24,3.36-.63,4.2-1.98.34-1.28-.04-2.65-.16-3.65-.33-2.76-1.43-6.33-3.01-8.84.93-.69,1.4-1.08,1.15-2.28,2.2-.72,3.58-2.83,3.34-5.08,3.02,0,6.87-.87,8.67-3.31,1.27-1.73,3.05-4.18,1.07-7.21-.52-.8-3.05-2.73-6.54-2.01-2,.41-5.89,2.14-7.47,3.37-.74.58-3.24,3.13-4.19,5.45-1.51.4-2.38,1.87-2.28,3.62-.93.4-2.79,3.09-2.6,4.66-1.78.61-1.16,2.41-.44,2.77Z"/>
    <path class="cls-12" d="m120.05,47.63c1.72,1.24,3.04.13,3.83-1.39.67-1.3,1.39-3.68,2.02-5,.75-1.56,1.98-3.5,3.07-4.78-1.42-.5-2.4-2.41-3.85-2.01-1.99.55-4.83,3.95-5.76,6.79-.58,1.76-1.15,5.07.69,6.39Z"/>
    <path class="cls-12" d="m124.21,34.85c1.65,1.74,5.76,3.15,7.76,4.36,2.05,1.24,2.75,3.65,4.65,5.04.22.16.44.05.56-.14,4.05-.31,3.76-4.41,2.6-6.79-1.65-3.39-5.73-9.11-9.55-7.53-3.26,1.35-5.58,3.73-6.01,5.07Z"/>
    <path class="cls-15" d="m84.71,48.17l3.4,4.81s-4.51.73-6.78,1.32c-2.26.58-4.32,1.44-5.59.3-1.27-1.14-1.13-1.92-1.13-1.92,0,0,6.54-4.55,10.1-4.5Z"/>
    <line class="cls-10" x1="68.29" y1="83.66" x2="73.04" y2="79.39"/>
    <path class="cls-2" d="m128.8,40.5s-.23,1.26.55,1.56"/>
    <path class="cls-2" d="m131.37,44.8s.12,1.27.95,1.36"/>
    <path class="cls-16" d="m131.37,42.89s-3.27,2.28-4.07,2.1-.46-1.01-.46-1.01"/>
    <line class="cls-4" x1="198.1" y1="56.11" x2="81.03" y2="125.27"/>
    <polygon class="cls-4" points="95.51 125.14 198.1 125.14 198.1 64.54 95.51 125.14"/>
    <path class="cls-10" d="m182.97,51.66c0,3.32-4.78,6-10.67,6s-10.67-2.69-10.67-6,4.78-6,10.67-6,10.67,2.69,10.67,6Z"/>
    <path class="cls-17" d="m171.55,44.56l-2.83,2.24s3.46,3.28,3.79,4.38c2.35-.68,5.99.58,5.99.58l2.96-3.08s-3.36-.99-6.66.1c-.96-2.02-3.25-4.22-3.25-4.22Z"/>
    <path class="cls-6" d="m174.17,53.97c-.71-.43-2.92.03-2.3,1.25.35.69,1.8.58,2.32.22.6-.42.67-1.04-.02-1.47Z"/>
    <path class="cls-6" d="m170.86,53.97c-.71-.43-2.92.03-2.3,1.25.35.69,1.8.58,2.32.22.6-.42.67-1.04-.02-1.47Z"/>
    <path class="cls-7" d="m172,55.06c-.59-.36-2.42.02-1.9,1.04.29.57,1.49.48,1.92.18.5-.35.56-.86-.02-1.22Z"/>
    <line class="cls-9" x1="37.54" y1="101.49" x2="54.16" y2="92.52"/>
    <line class="cls-9" x1="99.94" y1="92.67" x2="96.69" y2="88.8"/>
    <line class="cls-9" x1="145.66" y1="65.67" x2="142.93" y2="63.57"/>
    <line class="cls-9" x1="159.29" y1="38.59" x2="150.85" y2="43.94"/>
    <line class="cls-17" x1="82.47" y1="67.45" x2="81.03" y2="64"/>
  </g>
  <path class="cls-9" d="m189.81,35.42c-.24-1.74-2.78-10.78-3.15-12.03-3.59,1.87-12.68,6.8-13.55,7.3.86,3.91,2.36,8.19,3.27,12.47,2.23-1.22,10.79-6.22,13.42-7.74Z"/>
  <path class="cls-5" d="m187,32.55c-2.53,1.32-8.94,4.8-9.55,5.15"/>
  <path class="cls-5" d="m186.24,28.87c-2.53,1.32-8.94,4.8-9.55,5.15"/>
  <path class="cls-3" d="m98.98,40.43s2.17,2.04,4.89,2.46"/>
  <path class="cls-3" d="m104.09,49.22s-3.14-1.33-4.15-2.09"/>
  <line class="cls-1" x1="131.32" y1="59.25" x2="126.08" y2="62.53"/>
  <path class="cls-1" d="m131.96,60.07s-.59,2.46-.12,5.6"/>
  <line class="cls-1" x1="138.23" y1="56.82" x2="141.4" y2="59.25"/>
  <line class="cls-1" x1="87.83" y1="79.42" x2="93.74" y2="82.79"/>
  <rect class="cls-18" x="-548.58" y="-998.25" width="2244.45" height="5948.74"/>
</svg>