<?xml version="1.0" encoding="UTF-8"?>
<svg id="Calque_1" data-name="Calque 1" xmlns="http://www.w3.org/2000/svg" viewBox="0 0 260 128">
  <defs>
    <style>
      .cls-1 {
        stroke: #000;
      }

      .cls-1, .cls-2 {
        fill: none;
        stroke-linecap: round;
        stroke-linejoin: round;
      }

      .cls-3 {
        fill: #87f3b9;
      }

      .cls-2 {
        stroke: #fff;
        stroke-width: 8px;
      }
    </style>
  </defs>
  <circle class="cls-3" cx="73.25" cy="63.11" r="35.42"/>
  <path class="cls-1" d="m118.55,36.32c-10.02,3.98-15.91,7.32-23.06,6.52-7.15-.8-14.31,3.65-22.23,4.23,5.4,2.28,16.21,6.36,21.8,5.05,11.76-2.77,18.73-10.97,35.64-10.62l2.91.1c17.82,1.65,28.7,4.41,41.41,6.43,7.62,1.21,18.82-1.54,28.47-.16,9.65,1.38,14.58,2.97,25.29,3.19l6.13-.59s3.71-2.4,4.71-7.52c1.01-5.12.64-6.13,3.7-6.15,3.06-.02,2.51,19.05,2.53,21.43s-10.89.07-10.89.07l-2.96-.41c-3.15-.29-2.72-.83-11.62.34-8.91,1.16-14.51,3.98-24.85,2.27-11.33-1.88-12.43-1.46-17.92-1.34-5.19.11-18.55,2.33-30.01,3.29-11.45.95-13.74,1.56-13.74,1.56,2.65-4.5,3-8.22,2.33-11.16-1.22-5.36-5.44-7.91-6.21-8.37"/>
  <path class="cls-1" d="m132.31,82.26c6.51-9.06,1.56-18.25,1.56-18.25,0,0,2.44.53,13.89,1.48,11.45.95,24.81,3.18,30.01,3.29,5.49.11,6.6.53,17.92-1.34,10.34-1.71,15.94,1.11,24.85,2.27,8.91,1.17,8.48.63,11.62.34l2.96-.41s10.91-2.31,10.89.07c-.02,2.38.53,21.45-2.53,21.43-3.06-.02-2.7-1.04-3.7-6.15-1.01-5.12-4.71-7.52-4.71-7.52l-6.13-.59c-10.71.22-15.64,1.81-25.29,3.19s-20.85-1.37-28.47-.16c-12.71,2.02-23.59,4.77-41.41,6.43-17.82,1.65-31.07-8.65-38.71-10.45-5.59-1.32-16.42,2.76-21.82,5.05,7.93.57,15.09,5.03,22.24,4.23s13.04,2.55,23.06,6.52c0,0,13.1,4.95,15.68,4.45,0,0,5.83.12,7.7-4.13,1.32-3,2.86,4.93-1.48,7.32-3.23,1.77-7.85,1.7-13.15.85-5.3-.85-8.48-3.07-18.13-3.5-9.65-.42-14.21-2.33-17.5-3.82-3.29-1.48-21.42-1.43-31.18-3.23-9.75-1.8-10.18-9.59-11.24-14.36-1.01-4.56-8.4-5.73-12.77-4.35h-.01c-.7.77-1.41,1.43-2.04,1.85-.9.62-2.67,1.32-4.82,1.93.31,1.99-6.87,3.81-6.57,1.46h0c-1.43.22-2.84.39-4.14.45-5.56.29-11.54-3.76-11.54-12.59h0c0-8.84,5.98-12.89,11.54-12.6,1.29.06,2.7.22,4.14.45-.29-2.35,6.87-.53,6.57,1.45,2.14.62,3.91,1.32,4.82,1.94.62.43,1.33,1.08,2.03,1.86h.02c4.37,1.37,11.76.2,12.77-4.36,1.06-4.77,1.49-12.56,11.24-14.36,9.75-1.81,27.89-1.75,31.18-3.24,3.29-1.48,7.85-3.39,17.5-3.82"/>
  <line class="cls-1" x1="133.87" y1="64.01" x2="118.14" y2="64.26"/>
  <path class="cls-1" d="m118.54,36.32s13.1-4.95,15.68-4.45c0,0,5.83-.12,7.7,4.13,1.32,3,2.86-4.93-1.48-7.32-3.23-1.77-7.85-1.7-13.15-.85-5.3.85-8.48,3.07-18.13,3.5"/>
  <line class="cls-1" x1="89.5" y1="64" x2="53.59" y2="64"/>
  <rect class="cls-2" x="-218" y="-756.84" width="6467.34" height="6437.3"/>
</svg>