<?xml version="1.0" encoding="UTF-8"?>
<svg id="Calque_1" data-name="Calque 1" xmlns="http://www.w3.org/2000/svg" viewBox="0 0 128 128">
  <defs>
    <style>
      .cls-1, .cls-2, .cls-3, .cls-4 {
        stroke: #000;
      }

      .cls-1, .cls-2, .cls-3, .cls-4, .cls-5 {
        stroke-linecap: round;
        stroke-linejoin: round;
      }

      .cls-1, .cls-3, .cls-4, .cls-5 {
        fill: none;
      }

      .cls-2 {
        fill: #bfe6fc;
      }

      .cls-2, .cls-3 {
        stroke-width: 2px;
      }

      .cls-4 {
        stroke-dasharray: 0 0 5.45 5.45;
      }

      .cls-5 {
        stroke: #fff;
        stroke-width: 8px;
      }
    </style>
  </defs>
  <path class="cls-2" d="m83.27,27.59c0-4.88-5.12-8.84-11.45-8.84-6.33,0-11.46,3.96-11.46,8.84h22.9Z"/>
  <g>
    <line class="cls-1" x1="72.37" y1="59.65" x2="72.37" y2="55.65"/>
    <line class="cls-4" x1="72.37" y1="50.21" x2="72.37" y2="42.03"/>
    <line class="cls-1" x1="72.37" y1="39.31" x2="72.37" y2="35.31"/>
  </g>
  <g>
    <line class="cls-1" x1="62.49" y1="59.65" x2="62.49" y2="55.65"/>
    <line class="cls-4" x1="62.49" y1="50.21" x2="62.49" y2="42.03"/>
    <line class="cls-1" x1="62.49" y1="39.31" x2="62.49" y2="35.31"/>
  </g>
  <g>
    <line class="cls-1" x1="81.6" y1="59.65" x2="81.6" y2="55.65"/>
    <line class="cls-4" x1="81.6" y1="50.21" x2="81.6" y2="42.03"/>
    <line class="cls-1" x1="81.6" y1="39.31" x2="81.6" y2="35.31"/>
  </g>
  <g>
    <line class="cls-1" x1="76.99" y1="65.99" x2="76.99" y2="61.99"/>
    <line class="cls-4" x1="76.99" y1="56.54" x2="76.99" y2="48.37"/>
    <line class="cls-1" x1="76.99" y1="45.65" x2="76.99" y2="41.65"/>
  </g>
  <g>
    <line class="cls-1" x1="67.57" y1="65.99" x2="67.57" y2="61.99"/>
    <line class="cls-4" x1="67.57" y1="56.54" x2="67.57" y2="48.37"/>
    <line class="cls-1" x1="67.57" y1="45.65" x2="67.57" y2="41.65"/>
  </g>
  <g>
    <line class="cls-1" x1="72.37" y1="89.33" x2="72.37" y2="85.33"/>
    <line class="cls-4" x1="72.37" y1="79.88" x2="72.37" y2="71.71"/>
    <line class="cls-1" x1="72.37" y1="68.99" x2="72.37" y2="64.99"/>
  </g>
  <g>
    <line class="cls-1" x1="62.49" y1="89.33" x2="62.49" y2="85.33"/>
    <line class="cls-4" x1="62.49" y1="79.88" x2="62.49" y2="71.71"/>
    <line class="cls-1" x1="62.49" y1="68.99" x2="62.49" y2="64.99"/>
  </g>
  <g>
    <line class="cls-1" x1="81.6" y1="89.33" x2="81.6" y2="85.33"/>
    <line class="cls-4" x1="81.6" y1="79.88" x2="81.6" y2="71.71"/>
    <line class="cls-1" x1="81.6" y1="68.99" x2="81.6" y2="64.99"/>
  </g>
  <g>
    <line class="cls-1" x1="76.99" y1="95.67" x2="76.99" y2="91.67"/>
    <line class="cls-4" x1="76.99" y1="86.22" x2="76.99" y2="78.05"/>
    <line class="cls-1" x1="76.99" y1="75.32" x2="76.99" y2="71.32"/>
  </g>
  <g>
    <line class="cls-1" x1="67.57" y1="95.67" x2="67.57" y2="91.67"/>
    <line class="cls-4" x1="67.57" y1="86.22" x2="67.57" y2="78.05"/>
    <line class="cls-1" x1="67.57" y1="75.32" x2="67.57" y2="71.32"/>
  </g>
  <g>
    <polyline class="cls-3" points="33.38 114.25 33.38 58.12 33.38 55.08 33.38 14.16"/>
    <line class="cls-3" x1="71.82" y1="14.16" x2="71.82" y2="17.97"/>
    <path class="cls-3" d="m71.82,14.16c0-5.27-4.32-9.59-9.59-9.59h-19.26c-2.63,0-5.03,1.08-6.77,2.82s-2.82,4.13-2.82,6.77"/>
  </g>
  <rect class="cls-2" x="33.38" y="114.25" width="65.42" height="7.03"/>
  <rect class="cls-2" x="33.38" y="110.71" width="63.22" height="3.53"/>
  <line class="cls-3" x1="60.37" y1="31.06" x2="83.27" y2="31.06"/>
  <rect class="cls-2" x="33.38" y="62.08" width="6.4" height="3.04"/>
  <rect class="cls-2" x="33.38" y="62.08" width="6.4" height="3.04"/>
  <rect class="cls-2" x="35.35" y="62.08" width="11.92" height="3.04" transform="translate(-22.3 104.91) rotate(-90)"/>
  <rect class="cls-5" x="-1736.64" y="-2123.95" width="6467.34" height="6437.3"/>
</svg>