<?xml version="1.0" encoding="UTF-8"?>
<svg id="Calque_1" data-name="Calque 1" xmlns="http://www.w3.org/2000/svg" viewBox="0 0 128 128">
  <defs>
    <style>
      .cls-1 {
        fill: #ff6d75;
      }

      .cls-1, .cls-2, .cls-3, .cls-4, .cls-5 {
        stroke-linecap: round;
        stroke-linejoin: round;
      }

      .cls-1, .cls-2, .cls-3, .cls-5 {
        stroke: #000;
      }

      .cls-2 {
        fill: #bfe6fc;
      }

      .cls-2, .cls-3, .cls-5 {
        stroke-width: 2px;
      }

      .cls-3, .cls-4 {
        fill: none;
      }

      .cls-4 {
        stroke: #fff;
        stroke-width: 8px;
      }
    </style>
  </defs>
  <path class="cls-3" d="m72.66,67.01c0,4.09-.79,8-2.21,11.59-.84,2.11-1.9,4.09-3.15,5.94-1.18,1.77-2.55,3.4-4.06,4.88l-39.93-22.62s17.4-2.71,33.7-12.78c3.34-2.06,6.35-4.19,9.04-6.27,1,1.29,1.92,2.67,2.72,4.12,1.08,1.97,1.96,4.07,2.61,6.27.83,2.81,1.27,5.79,1.27,8.88Z"/>
  <path class="cls-2" d="m72.66,67.01c0,4.09-.79,8-2.21,11.59-.84,2.11-1.9,4.09-3.15,5.94-5.22-3-8.78-9.03-8.78-15.96,0-7.56,4.24-14.04,10.26-16.71,1.08,1.97,1.96,4.07,2.61,6.27.83,2.81,1.27,5.79,1.27,8.88Z"/>
  <path class="cls-3" d="m79.13,98.42l-15.88-9-39.93-22.62s17.4-2.71,33.7-12.78c3.34-2.06,6.35-4.19,9.04-6.27,11.1-8.63,9.42-16.52,9.42-16.52"/>
  <path class="cls-5" d="m71.83,67.43c0,2.82-.55,5.51-1.52,7.99-2.32-1.25-3.92-3.87-3.92-6.91,0-3.31,1.9-6.12,4.57-7.2.57,1.94.87,3.99.87,6.12Z"/>
  <path class="cls-3" d="m56.16,54.29c1.63-1.47,5.11-4.11,7-8.44,2.06-4.72,2.54-9.11,2.44-11.34"/>
  <path class="cls-3" d="m46.07,59.63c1.45-1.19,3.84-3.49,5.62-7.11,1.94-3.96,2.19-7.56,2.19-9.48"/>
  <polygon class="cls-1" points="103.54 40.67 108.47 45.44 98.79 50.53 103.37 54.95 83.44 61.48 93.78 53.32 88.98 48.41 103.54 40.67"/>
  <polygon class="cls-1" points="90.08 76.62 77.27 76.25 89.15 71.96 90.08 76.62"/>
  <polygon class="cls-1" points="84.72 82.44 80.39 85.98 75.97 80.57 84.72 82.44"/>
  <rect class="cls-4" x="-2197.2" y="-4696.12" width="6467.34" height="6437.3"/>
</svg>