<?xml version="1.0" encoding="UTF-8"?>
<svg id="Calque_1" data-name="Calque 1" xmlns="http://www.w3.org/2000/svg" viewBox="0 0 128 128">
  <defs>
    <style>
      .cls-1 {
        fill: #fff;
      }

      .cls-1, .cls-2 {
        stroke: #000;
      }

      .cls-1, .cls-2, .cls-3 {
        stroke-linecap: round;
        stroke-linejoin: round;
      }

      .cls-2, .cls-4, .cls-3 {
        fill: none;
      }

      .cls-5 {
        fill: #ff6d75;
      }

      .cls-4 {
        stroke: #ff6d75;
        stroke-miterlimit: 10;
        stroke-width: 2px;
      }

      .cls-3 {
        stroke: #fff;
        stroke-width: 8px;
      }
    </style>
  </defs>
  <path class="cls-5" d="m76.25,85.41c.51,7.78-2.15,14.09-8.39,14.51-6.23.42-13.66-5.2-14.19-12.98-.53-7.78,4.1-14.43,10.34-14.85,6.23-.42,11.36-.02,12.24,13.33Z"/>
  <path class="cls-2" d="m68.94,108.69c-.57,1.03-.22,2.4-.03,3.49.25,1.46.48,2.92.65,4.4.06.51.12,1.03.15,1.53.04.73.05,1.44.01,2.06-.34,4.04,0,4.59,0,4.59h-25.09s-.87-3.77-1.96-7.42c-.41-1.42-.86-2.81-1.31-3.96-1.6-4.16-2.54-15.78.94-21.68l1.56-3.34s.01-.02.02-.04c.14-.37-.14-.78-.36-1.05-.72-.89-1.82-1.63-2.66-2.45-.93-.9-1.85-1.86-2.51-2.99-1.21-2.06-1.21-4.59-1.67-6.88-.51-2.52-.91-5.07-1.23-7.62-.05-.47-.12-.94-.16-1.43,2.72-7.49,6.95-16.47,12.05-18.1,9.02-2.89,21.38,10.64,21.38,10.64-.09.98.18,2.08.68,3.23,0,.01.01.02.01.03.99,2.32.92,4.9,1.77,7.24.3.84.66,1.67,1.03,2.49.66,1.46,1.36,2.9,1.91,4.41,1.7,4.66,2.68,9.61,1.92,14.57-1,6.52-3.94,12.58-7.11,18.28Z"/>
  <path class="cls-1" d="m78.85,100.28c-1.23.33-2.03.37-1.42.88.62.5.51,1.67-.18,2.1-.69.44-.22,1.46-1.12,2.11-.91.66-1.27,1.21-2.4,1.28-1.13.06-2.04,1.45-3.63.9-.03,0-.06-.02-.09-.03-1.59-.6-3.94-2.89-4.82-3.53-.91-.66-7.82-6.25-13.13-9.6-2.63-1.66-5.71-4.29-8.27-6.71h-.01c-.79-.76-1.66-1.45-2.42-2.24-.92-.94-2.05-2.03-2.82-3.2-.03-.04-.06-.08-.08-.14-.04-.05-.07-.12-.11-.17-.14-.2-.23-.39-.33-.59-.04-.08-.06-.16-.09-.24-.01-.01-.02-.03-.03-.04-.14-.34-.24-.69-.34-1.05-.24-.98-.33-2-.44-3-.11-.76-.22-1.49-.46-2.2,0-.01-.01-.03-.01-.04-.02-.06-.03-.12-.04-.17-.05-.23-.08-.36-.08-.36,0,0-.82-4.71-1.22-8.36v-.07c-.14-1.21-.21-2.3-.2-3.05.07-3.05-.08-6.73-.08-6.73,0,0-1.95-10.25-.86-14.94.36-1.51.92-3.37,1.71-5.18.33-.75.68-1.48,1.08-2.18.84-1.47,1.83-2.8,3-3.77.28-.23.58-.44.88-.63.91-.56,1.93-.89,3.04-.89,3.9,0,8.21-.54,10.65,1.52.95-5.35,7.18-10.96,7.18-10.96,0,0,7.19-8.29,10.75-1.79,0,0,.47,3.66-2.8,8.83-3.27,5.17-2.77,6.11-2.77,7.06s-2.01,0-2.01,0c0,0-5.06,4.34-8.26,2.58-.71-.39-1.32-1.07-1.77-2.16-.22-.51-.35-1.05-.4-1.6-.46.16-.92.3-1.39.45-2.08,4.39,2.06,8.72,2.06,8.72,0,0,14.07,12.76,13.63,17.35,0,0-12.33-13.48-21.34-10.64-.16,1.22-1.09,5.04-.35,10.42.87,6.33-.23,15.05-.23,15.05-.23,2.12,1.64,3.19,2.91,4.54,2.08,2.2,3.82,4.71,5.73,7.06,2.01,2.47,4.05,4.91,6.29,7.19,1.43,1.46,3.21,3.45,5.27,4.01,1.13.29,2.24.61,3.41.47,1.03-.13,1.98-.56,3.04-.45,1.23.1,2.59,1.27,3.53,1.98.26.2.42.31.42.31,0,0,2.69,1.56,1.45,1.89Z"/>
  <path class="cls-1" d="m35.02,56.04s-1.95-10.25-.87-14.94c.5-2.13,1.42-4.94,2.79-7.37h0c22.38-.39,35.49-16.52,35.49-16.52,0,0,.47,3.67-2.8,8.83-3.27,5.17-2.76,6.11-2.76,7.05s-2.02,0-2.02,0c0,0-5.06,4.35-8.27,2.59-.71-.39-1.32-1.07-1.77-2.16-.21-.51-.34-1.05-.4-1.59-.45.16-.92.31-1.39.45-2.07,4.39,2.06,8.72,2.06,8.72,0,0,0,0,.02-.01.39-.15,8.88-3.5,12.85-7.12,4.01-3.65,10.92-9.71,5.28-22.19-.09-.19-.17-.38-.26-.57-2.78-5.86-9.94-8.4-16.07-7.9-10.51.86-12.53,9.65-16.02,17.71-1.74,4-3.63,7.93-5.87,11.68-.19.32-.37.64-.54.96-5.86,11.05.54,22.38.54,22.38Z"/>
  <line class="cls-1" x1="64.96" y1="24" x2="67.86" y2="24.55"/>
  <path class="cls-1" d="m61.2,35.4s-.24-1.79-2.17-3.58"/>
  <ellipse cx="65.71" cy="26.46" rx="1.07" ry=".65" transform="translate(-3.77 40.28) rotate(-33.18)"/>
  <polyline class="cls-4" points="95.99 80.91 89.23 78.9 88.13 83.45 82.53 80.5"/>
  <polyline class="cls-4" points="79.27 75.24 82.67 73.24 81.23 71.05 87.47 68.86"/>
  <polyline class="cls-4" points="82.37 88.89 84.59 92.15 86.68 90.58 88.06 93.84"/>
  <rect class="cls-3" x="-248.67" y="-3948.24" width="6467.34" height="6437.3"/>
</svg>