<?xml version="1.0" encoding="UTF-8"?><svg id="Calque_1" xmlns="http://www.w3.org/2000/svg" viewBox="0 0 200.13 128.13"><defs><style>.cls-1,.cls-2,.cls-3,.cls-4,.cls-5,.cls-6,.cls-7{stroke-linecap:round;stroke-linejoin:round;}.cls-1,.cls-3,.cls-4,.cls-5,.cls-6,.cls-7{stroke:#000;}.cls-1,.cls-6{fill:#ff6d75;}.cls-2{stroke:#e30613;stroke-width:8px;}.cls-2,.cls-4,.cls-8,.cls-7{fill:none;}.cls-3{fill:#fff;}.cls-3,.cls-5,.cls-6,.cls-7{stroke-width:2px;}.cls-5{fill:#fab0b4;}.cls-8{stroke:#ff6d75;stroke-miterlimit:10;stroke-width:3px;}</style></defs><rect class="cls-2" x="-1357.78" y="-816.91" width="2655.08" height="1511.77"/><path class="cls-6" d="m179.02,58.3c-.23.04-2.04.41-4.09.79-4.56,4.44-6.12,11.09-9.55,16.28-3.51,5.33-8.72,9.31-14.06,12.67-17.51,11.07-38.58,16.98-59.18,14.78-19.3-2.07-38.19-11.71-50.2-27.16-2.09-2.68-3.68-5.51-5.04-8.59-1.03-2.33-2.2-5.55-4.85-6.46l-.09-.02-.54-.12-.48-.11-.23-.06-.35-.08-.49-.11v-3.6l.49.08.35.04.23.04.48.07.54.08h.09s2.04.32,2.04.32c3.86.5,7.48.9,11.02,1.25l.28.03,6.05.55.2.02c1.43.13,2.86.25,4.3.39h.07c.06.01.13.01.22.02.29.02.74.07,1.31.11.19.02.39.03.6.06.47.04.97.09,1.5.13.17.02.34.03.52.04.69.07,1.36.13,1.97.18.18.02.35.04.53.06.1.01.2.01.29.02.16.01.31.03.43.04.14.01.25.02.34.03.04,0,.09,0,.13.01,1.63.14,3.3.31,5.01.49,3.42.34,7.02.81,10.69,1.3,3.69.49,7.46,1,11.21,1.44h.01s.02,0,.08.01h.07c.1.01.25.02.45.04.12.02.24.04.35.04,1.15.14,2.29.27,3.42.37.32.03.63.07.91.1.12.01.25.02.38.03h.01c.1.01.21.02.31.03.04,0,.1,0,.14.01.19.02.45.04.75.07.24.01.48.04.71.06.23.01.47.03.7.04.61.06,1.2.1,1.79.12.11.02.21.02.32.03.04,0,.09,0,.13.01h.12c.16.02.31.02.45.03.07,0,.14.01.2.01.09,0,.18.01.27.01.19.02.3.02.3.02,1.5.08,2.98.12,4.44.13,1.63.01,3.26-.01,4.87-.06,1.35-.06,3.21-.13,4.33-.21.12-.01.24-.02.37-.02.39-.02.78-.04,1.16-.09.12,0,.24-.01.37-.02.16-.01.31-.02.45-.03.09-.02.19-.02.28-.03.27-.02.49-.03.68-.04.07-.01.12-.01.18-.02.08,0,.15-.01.24-.02h.08c3.32-.3,6.62-.71,9.9-1.17h.02c.69-.1,1.37-.21,2.06-.31h.01c2.35-.37,4.7-.75,7.03-1.17.96-.17,1.94-.34,2.91-.53h.01l.81-.16,3.1-.61s.06-.01.16-.02c7.75-1.54,15.74-3.18,23.61-3.63,1.31-.08,3.36-.3,5.21-.51.94-.11,1.66-.27,2.03-.42l2.06,2.88Z"/><path class="cls-3" d="m157.73,83.22c-3.15,2.55-4.87,4.32-7.97,5.04l-.05-4.48c1.79-1.66,6.68-4.95,8.01-5.6.05.15-.02,4.81.02,5.04Z"/><path class="cls-3" d="m72.69,89.54c-.24.85-.26,7.72-.59,8.54-2.56-.73-4.81-2.93-7.25-3.83.09-.5-.19-3.18-.5-5.59-.03-.21-.37-2.84-.27-3.03l4.66,2.23s1.76,1.03,3.96,1.68Z"/><path class="cls-3" d="m57.12,82.4c-.15.87,1.22,6.73.98,7.58-1.93-.94-2.33-1.26-4.14-2.41,0,0-2.81-1.91-2.97-2.73-.34-1.7.22-2.99.53-4.69.1-.55.32-.63.41-.83l5.19,3.07Z"/><path class="cls-5" d="m176.96,55.42c-.37.16-1.09.31-2.03.42-1.85.21-3.9.43-5.21.51-7.87.45-15.85,2.09-23.61,3.63-.1.01-.16.02-.16.02l-3.1.61-.81.16h-.01c-.97.19-1.95.37-2.91.53-2.34.42-4.69.81-7.03,1.17h-.01c-.69.1-1.37.21-2.06.31h-.02c-3.28.47-6.58.88-9.9,1.17h-.08c-.09.01-.17.02-.24.02-.06.01-.11.01-.18.02-.19.01-.41.02-.68.04-.09.01-.19.01-.28.03-.14.01-.3.02-.45.03-.12.01-.24.02-.37.02-.39.04-.78.07-1.16.09-.12,0-.24.01-.37.02-1.12.08-2.98.16-4.33.21-1.62.04-3.25.07-4.87.06-1.46-.01-2.95-.06-4.44-.13,0,0-.11,0-.3-.02-.09,0-.18-.01-.27-.01-.06,0-.13-.01-.2-.01-.14-.01-.3-.01-.45-.03h-.12s-.09-.01-.13-.01c-.11-.01-.21-.01-.32-.03-.6-.02-1.19-.07-1.79-.12-.23-.01-.47-.03-.7-.04-.23-.01-.47-.04-.71-.06-.3-.02-.57-.04-.75-.07-.04-.01-.1-.01-.14-.01-.1-.01-.21-.02-.31-.03h-.01c-.12-.01-.25-.02-.38-.03-.28-.03-.59-.07-.91-.1-1.13-.1-2.27-.22-3.42-.37-.11,0-.23-.02-.35-.04-.2-.02-.35-.03-.45-.04h-.07c-.06-.01-.08-.01-.08-.01h-.01c-3.76-.44-7.52-.95-11.21-1.44-3.67-.49-7.27-.95-10.69-1.3-1.71-.18-3.38-.34-5.01-.49-.04-.01-.09-.01-.13-.01-.09-.01-.2-.02-.34-.03-.12-.01-.28-.03-.43-.04-.09-.01-.19-.01-.29-.02-.18-.01-.35-.03-.53-.06-.61-.04-1.29-.11-1.97-.18-.18-.01-.35-.02-.52-.04-.52-.04-1.03-.09-1.5-.13-.21-.02-.41-.03-.6-.06-.57-.04-1.02-.09-1.31-.11-.09-.01-.17-.01-.22-.02h-.07c-1.44-.13-2.87-.25-4.3-.39l-.2-.02-6.05-.55-.28-.03c-3.55-.35-7.17-.75-11.02-1.25l-2.04-.31h-.09s-.54-.09-.54-.09l-.48-.07-.23-.04-.35-.04-.49-.08h-.1c1.53-.3,4.59-.71,6.03-.93,3.57-.54,7.1-1.16,10.67-1.69,8.29-1.22,16.67-2.13,25.1-2.71,6.24-.43,12.56-.68,18.81-.18,5.51.43,11.11,2.86,16.5,2.86,5.68,0,11.17-3.28,16.81-3.9,2.78-.3,5.63-.22,8.43-.1,15.17.63,29.8,2.58,44.48,5.05.75.12.8.32.37.51Z"/><path class="cls-5" d="m178.98,60.09c-.91,8.32-7.17,19.92-11.98,26.51-11.94,16.33-28.39,26.36-48.47,29.41-23.19,3.55-52.83.3-67.84-19.94-8.36-11.28-14.5-23.56-20.99-35.98.07.01.11.01.18.02l.49.11.35.08.23.06.48.11.54.12.09.02c2.65.91,3.82,4.13,4.85,6.46,1.36,3.08,2.95,5.9,5.04,8.59,12.01,15.45,30.9,25.09,50.2,27.16,20.61,2.2,41.67-3.71,59.18-14.78,5.34-3.37,10.55-7.34,14.06-12.67,3.43-5.2,4.99-11.84,9.55-16.28,2.05-.38,3.85-.74,4.09-.79.06.47.04,1.05-.04,1.79Z"/><path class="cls-7" d="m29.88,60.12c.76.07,1.48.25,2.18.49l-.08-.02-.55-.13-.48-.11-.23-.05-.35-.08-.49-.11Z"/><path class="cls-3" d="m47.87,76.02c.31.34.64.68.96,1.03-1.19-.99-2.33-2.46-3.07-3.3.7.76,1.4,1.51,2.11,2.28Z"/><path class="cls-3" d="m150.64,82.45h0s-.04.03-.1.06c.04,0,.07-.04.1-.06Z"/><path class="cls-3" d="m70.07,79.76h0c-.03.96-.09,2.39-.16,3.81-.11,2.38-.23,4.74-.23,4.74l-2.71-1.31-.56-.27-5.43-2.64-4.21-2.04s-.37-3.75-1.18-8.12c-.82-4.37.35-9.41.35-9.41,0,0,.03,0,.07,0,.05,0,.13.02.22.03.29.05.75.11,1.31.18.19.03.39.05.59.08.47.06.97.13,1.49.21.17.03.34.05.52.07.68.09,1.37.19,1.97.27.18.03.36.05.53.07.1.02.2.03.29.05.16.02.31.05.44.06.13.02.25.04.34.05.05,0,.09,0,.13.02,1.18.16,3.75,2.69,5.38,7.88.56,1.76.78,4.04.84,6.27Z"/><path class="cls-3" d="m70.03,83.61c-.12,2.68-.36,4.71-.36,4.71,0,0,.13-2.36.23-4.74.07-1.42.13-2.85.16-3.81.05,1.33.02,2.65-.04,3.84Z"/><path class="cls-3" d="m85.75,83.16c0,.25,0,.52,0,.8,0,.19,0,.39,0,.58v.06c0,.19,0,.38,0,.56-.03,1.21-.06,2.52-.09,3.7-.02.86-.04,1.66-.05,2.26,0,.09,0,.17,0,.25v.08c0,.2,0,.36-.02.49,0,.25,0,.4,0,.4,0,0-1.68-.15-3.51-.36-.13,0-.26-.03-.4-.05-1.32-.14-2.65-.31-3.45-.48-1.03-.21-3.31-1.05-5.25-1.82-.09-.04-.18-.07-.26-.1-1.66-.66-3.01-1.22-3.01-1.22,0,0,.24-2.02.36-4.71.05-1.19.08-2.51.04-3.84h0c.02-.37.03-.66.03-.85,0-1.57,1.16-4.78,2.72-6.95,1.75-2.45,4.18-4.17,6.74-3.61,3.1.67,5.17,4.03,6,9.28.16,1.02.21,3.17.2,5.52Z"/><path class="cls-3" d="m70.03,83.61c-.12,2.68-.36,4.71-.36,4.71,0,0,.13-2.36.23-4.74.07-1.42.13-2.85.16-3.81.05,1.33.02,2.65-.04,3.84Z"/><path class="cls-3" d="m85.73,84.6c0,1.49-.05,2.99-.07,4.26-.03.88-.05,1.66-.07,2.25,0-.6.03-1.39.05-2.26.04-1.36.07-2.9.1-4.26Z"/><path class="cls-3" d="m105.36,91.07c-.15,1.67-.3,2.83-.3,2.83,0,0-4.75.33-10.45,0-.27-.02-.55-.04-.81-.05-.29-.03-.57-.05-.85-.08-4.16-.42-7.4-1.42-7.4-1.42,0,0,0-.14,0-.4,0-.13.02-.3.02-.49v-.08c0-.08,0-.16,0-.25.03-.58.05-1.37.07-2.25.03-1.28.06-2.77.07-4.26v-.06c0-.19,0-.39,0-.58,0-.28,0-.55,0-.8.04-3.27,1.32-6.48,2.03-8.75.68-2.18,2.8-3.72,2.98-3.86h0s.03,0,.08.02c.02,0,.04,0,.06,0,.11.02.26.04.46.07.12.03.24.05.36.06,1.14.22,2.29.4,3.42.56.32.05.63.1.91.14.13.03.25.05.38.06h0c.1,0,.21.03.31.05.05,0,.11,0,.15.02.19.03.45.06.75.1.24.03.48.06.71.08.23.03.47.06.7.08.6.08,1.2.14,1.79.19.11.02.22.03.32.04.08,0,.17.03.25.03.15.03.31.04.46.05.06,0,.13.02.2.02.09,0,.17.02.26.03.19.02.3.03.3.03,0,0,.22.67,1.35,2.31,1.14,1.64,1.58,5.06,1.72,7.53.15,2.8-.12,6.53-.35,9.06Z"/><path class="cls-3" d="m85.73,84.6c0,1.49-.05,2.99-.07,4.26-.03.88-.05,1.66-.07,2.25,0-.6.03-1.39.05-2.26.04-1.36.07-2.9.1-4.26Z"/><path class="cls-3" d="m91.73,70.71c.89.14,2.27.37,3.42.56-1.13-.15-2.28-.34-3.42-.56Z"/><path class="cls-3" d="m98.36,71.72c.9.1,1.97.22,2.82.31-.93-.07-1.87-.18-2.82-.31Z"/><path class="cls-3" d="m101.18,72.02c.35.04.67.06.91.09-.3-.02-.6-.05-.91-.09Z"/><path class="cls-3" d="m124.19,82.3v9.57s-2.25.99-6.67,1.73c-.31.05-.61.09-.94.14-.42.05-.86.12-1.32.17-2.57.31-8.92-.22-8.92-.22v-12.77s.53-2.59,1.44-4.87c1.02-2.56,2.51-3.68,2.51-3.68,0,0,.7-.04,1.67-.1,1.35-.08,3.21-.21,4.34-.32.12,0,.24-.03.36-.04.39-.04.77-.07,1.17-.13.12,0,.24-.03.36-.05.15-.02.31-.04.45-.05.1-.02.19-.03.28-.04.27-.04.49-.06.68-.08.06,0,.12-.02.17-.03.08,0,.16-.02.24-.03.05,0,.08,0,.08,0,0,0,2.12,1.17,2.81,3.18.9,2.63,1.29,5.41,1.29,7.6Z"/><path class="cls-3" d="m138.27,88.41s-4.06,1.76-5.87,2.47c-.74.28-2.26.5-3.79.67-2.2.22-4.42.32-4.42.32v-11.88c0-3.32,1.03-5.55,2.24-7.25,1.03-1.43,3.29-2.84,3.57-3.01t.02,0c.68-.15,1.38-.31,2.06-.48h0c.18.09,2.84,1.41,4.02,2.66,1.22,1.29,1.84,4.07,2.02,5.73.18,1.66.14,10.78.14,10.78Z"/><path class="cls-3" d="m132.08,69.24c-.68.16-1.38.32-2.06.48h0s2.05-.48,2.05-.48Z"/><path class="cls-3" d="m151.16,70.34c-.05,1.99-.5,11.74-.52,12.11h0s-.04.03-.1.06c-.08.05-.22.14-.39.24-.82.49-2.5,1.52-3.72,2.24-.39.22-.72.42-.97.57-.08.05-.18.1-.29.16-.11.06-.22.13-.34.18-.19.1-.4.21-.61.32-1.39.72-3.3,1.67-4.14,2.1-.27.13-1.87.63-1.87.63l.22-2s-.24-8.35-.22-10.22c.03-1.86.61-4.58,1.57-6.78.96-2.2,2.28-3.32,2.28-3.32l.8-.23,3.1-.93s.05-.02.15-.05c.57-.13,2.59-.57,3.63.4.56.51,1.47,2.15,1.41,4.53Z"/><path class="cls-3" d="m154.5,62.94s-1.14,1.52-1.87,2.99c-.57,1.16-1.4,2.32-1.47,4.41-.07,2.09-.49,11.53-.49,11.53,0,0,5.2-2.98,6.84-4.29,1.64-1.31,3.55-2.89,4.27-3.55s1.09-4.78,1.09-4.78c0,0,.23-5.41,0-6.66-.23-1.24-.5-1.61-.5-1.61l-7.87,1.95Z"/><path class="cls-3" d="m55.56,81.1s-5.17-2.75-6.68-4.02c-.02,0-.03-.03-.04-.04-1.19-.99-2.33-2.46-3.07-3.3-.03-.03-.05-.05-.07-.08-.14-.16-.26-.3-.37-.4-.65-.62-.8-2.92-.8-2.92,0,0-.2-5.07,0-6.23l.21-1.17.39.05.28.05,6.05.86.2.03s1.35,1.93,2,3.3c.5,1.08,1.24,2.17,1.3,4.12.06,1.96.62,9.74.62,9.74Z"/><path class="cls-3" d="m105.76,91.09l-1.14,3.99.25,7.76c-3.96.2-7.29.4-11.32.04-.05-.44-.07-5.94-.04-6.6.03-.52.13-1.69.28-2.13.26.02.54.04.81.05,5.7.33,10.45,0,10.45,0,0,0,.14-1.46.3-3.13h.24s.15.02.15.02Z"/><path class="cls-3" d="m85.66,88.86c-.03.88-.05,1.66-.07,2.25,0-.6.03-1.39.05-2.26h.03Z"/><path class="cls-3" d="m92.96,94.01c-.07.89-.2,7.38-.41,8.25-3.63-.32-7.24-.85-10.8-1.59,0-.43.04-6.09.2-6.79.07-.32.18-1.13.29-1.4,1.79.18,3.45.31,3.45.31,0,0,3.19.86,7.27,1.22Z"/><path class="cls-3" d="m81.65,91.93c-.16.98-.38,6.98-.65,7.93-2.98-.73-5.6-1.64-8.45-2.72.07-.4-.14-5.91.02-6.46.11-.38.24-.73.38-1.05,1.94.76,4.23,1.61,5.25,1.82.79.16,2.12.33,3.45.48Z"/><path class="cls-3" d="m70.03,83.61c-.12,2.68-.36,4.71-.36,4.71,0,0,.13-2.36.23-4.74l.13.04Z"/><path class="cls-3" d="m64.07,85.62c-.15.87.98,7.16.74,8.02-1.93-.94-4.73-2.1-6.53-3.24,0,0-.14-.7-.31-1.52-.34-1.7-.24-2.16-.61-4.28-.1-.55-.34-2-.24-2.2l6.95,3.22Z"/><path class="cls-3" d="m117.54,101.25c-3.14.58-6.94,1.19-10.12,1.42-.59.04-1.18.08-1.78.11l-.03-6.62-.14-5.07h.14s.74-.05.74-.05v2.66s6.35.52,8.92.22c.46-.05,1.48-.21,1.9-.26.14.46.32.87.35,1.43,0,.19.02,6,.02,6.17Z"/><path class="cls-3" d="m128.95,97.38c-3.58,1.18-7.23,2.12-10.92,2.84l.22-6.41c4.42-.74,5.94-1.95,5.94-1.95,0,0,2.22-.1,4.42-.32.06.15.12.31.16.49.07.26.14,5.11.18,5.35Z"/><path class="cls-3" d="m138.92,94.79c-3.58,1.18-5.78,2.84-9.47,3.56l-.5-6.63c4.42-.74,5.44-1.39,5.44-1.39,0,0,2-1.16,4.19-1.38.06.15.12.31.16.49.07.26.14,5.11.18,5.35Z"/><path class="cls-3" d="m149.21,88.96c-3.75,2.55-5.8,4.32-9.49,5.04l-.07-5.48c2.06-.34,7.95-3.96,9.53-4.61.06.15-.02,4.81.02,5.04Z"/><line class="cls-7" x1="176.96" y1="55.42" x2="176.6" y2="54.91"/><polyline class="cls-8" points="86.16 13.73 91.76 24.06 98.42 20.01 101.55 30.08"/><polyline class="cls-8" points="99.18 40.11 92.82 38.47 91.93 42.74 82 37.96"/><polyline class="cls-8" points="109.51 20.08 110.75 13.62 106.43 13.01 108.65 7.54"/><polygon class="cls-1" points="68.96 13.05 63.95 17.73 74.23 22.94 69.58 27.28 90.6 34.06 79.55 25.79 84.42 20.96 68.96 13.05"/><polyline class="cls-4" points="103.51 68.21 105.76 71.24 105.76 38.31"/><line class="cls-4" x1="105.76" y1="71.27" x2="108.45" y2="68.24"/></svg>