<?xml version="1.0" encoding="UTF-8"?>
<svg id="Calque_1" data-name="Calque 1" xmlns="http://www.w3.org/2000/svg" viewBox="0 0 128 128">
  <defs>
    <style>
      .cls-1 {
        fill: #ff6d75;
      }

      .cls-1, .cls-2, .cls-3 {
        stroke: #000;
      }

      .cls-1, .cls-2, .cls-3, .cls-4 {
        stroke-linecap: round;
        stroke-linejoin: round;
      }

      .cls-5 {
        fill: #b2f0e9;
      }

      .cls-2 {
        fill: #fff;
      }

      .cls-2, .cls-3 {
        stroke-width: 2px;
      }

      .cls-3, .cls-4 {
        fill: none;
      }

      .cls-4 {
        stroke: #fff;
        stroke-width: 8px;
      }
    </style>
  </defs>
  <path class="cls-2" d="m63.42,55.06h-.01s0,0,0,0c0,0,0,0,0,0,0,0-2.56-1.3-5.81-2.02-.71-.15-1.45-.28-2.19-.37-16.77-1.91-23.45,14.23-13.26,30.94,0,0-1.67,29.75,8.65,30.94,1.26.15,2.15-.09,2.77-.63,4.46-3.73-4.92-22.28,9.79-22.14,11.85.11,10.25,9.88,10.25,16.6,0,2.47.22,4.51,1.39,5.53.58.48,1.36.74,2.47.67,9.6-.63,7.58-30.75,7.58-30.75,0,0,2.23-5.42,3.27-11.79,1.5-9.16.59-20.28-12.74-20.2,0,0-5-.59-12.16,3.22,0,0,7.37,4.8,12.27,3.85"/>
  <path class="cls-5" d="m53.57,113.91c-.61.54-1.5.78-2.77.63-10.33-1.19-8.65-30.94-8.65-30.94-10.2-16.71-3.51-32.85,13.26-30.94.74.09,1.49.22,2.19.37,0,0-18.25,7.13-7.35,29.1,0,0-6.63,12.03,3.32,31.77Z"/>
  <path class="cls-5" d="m85.05,83.83s2.02,30.12-7.58,30.75c-1.11.07-1.89-.19-2.47-.67,4.74-6.18,5.83-12.15,5.42-17.07-.61-7.52-4.74-12.67-4.74-12.67,5.2-1.06,12.18-11.46,12.61-12.11l.02-.04c-1.04,6.37-3.27,11.79-3.27,11.79Z"/>
  <path class="cls-3" d="m63.42,55.06h-.01s0,0,0,0c0,0,0,0,0,0,0,0-2.56-1.3-5.81-2.02-.71-.15-1.45-.28-2.19-.37-16.77-1.91-23.45,14.23-13.26,30.94,0,0-1.67,29.75,8.65,30.94,1.26.15,2.15-.09,2.77-.63,4.46-3.73-4.92-22.28,9.79-22.14,11.85.11,10.25,9.88,10.25,16.6,0,2.47.22,4.51,1.39,5.53.58.48,1.36.74,2.47.67,9.6-.63,7.58-30.75,7.58-30.75,0,0,2.23-5.42,3.27-11.79,1.5-9.16.59-20.28-12.74-20.2,0,0-5-.59-12.16,3.22,0,0,7.37,4.8,12.27,3.85"/>
  <polygon class="cls-1" points="65.03 13.41 71.89 13.41 68.46 23.79 74.83 23.79 65.03 42.33 66.79 29.28 59.93 29.09 65.03 13.41"/>
  <polygon class="cls-1" points="26.94 42.12 35.33 51.8 31.14 39.89 26.94 42.12"/>
  <polygon class="cls-1" points="25.83 49.95 25.83 55.55 32.82 55.55 25.83 49.95"/>
  <polygon class="cls-1" points="101.06 47.16 92.67 56.83 96.86 44.92 101.06 47.16"/>
  <polygon class="cls-1" points="102.17 54.99 102.17 60.58 95.18 60.58 102.17 54.99"/>
  <rect class="cls-4" x="-2505.18" y="-4696.12" width="6467.34" height="6437.3"/>
</svg>