<?xml version="1.0" encoding="UTF-8"?>
<svg id="Calque_1" data-name="Calque 1" xmlns="http://www.w3.org/2000/svg" viewBox="0 0 128 128">
  <defs>
    <style>
      .cls-1 {
        stroke-width: 5px;
      }

      .cls-1, .cls-2, .cls-3, .cls-4, .cls-5, .cls-6, .cls-7 {
        stroke: #000;
      }

      .cls-1, .cls-3, .cls-4, .cls-5, .cls-8 {
        stroke-linecap: round;
      }

      .cls-1, .cls-4, .cls-8 {
        stroke-linejoin: round;
      }

      .cls-2 {
        fill: #76ac75;
      }

      .cls-2, .cls-3, .cls-5, .cls-6, .cls-7 {
        stroke-miterlimit: 10;
      }

      .cls-2, .cls-5, .cls-6 {
        stroke-width: 2px;
      }

      .cls-3, .cls-5, .cls-6, .cls-8, .cls-7 {
        fill: none;
      }

      .cls-4 {
        stroke-width: 3px;
      }

      .cls-8 {
        stroke: #fff;
        stroke-width: 8px;
      }
    </style>
  </defs>
  <path class="cls-2" d="m75.97,61.33c-9.21,2.11-19.21,4.38-19.78,4.38-1.05,0-1.73-.5-1.73-.5.76-4.61-1.37-6.07-1.37-6.07,0,0-.13-1.17.55-1.7.36-.28,11.03-2.57,20.57-4.59l1.76,8.48Z"/>
  <path class="cls-6" d="m128.23,58.95c-1-4.11-8.46-18-10.29-19.39-2.84-2.17-5.72.08-5.21,3.59"/>
  <path class="cls-6" d="m114.52,51.91c.73,3.67,1.68,8.96,1.81,10.11.3,2.51-3.31,4.81-3.91,4.51-.6-.3-15.11-11.73-15.11-11.73"/>
  <line class="cls-7" x1="41.19" y1="65.03" x2="21.04" y2="69.64"/>
  <path class="cls-6" d="m43.89,65.31c-1.53.02-2.87-.02-2.92-.24h-.02c-.04-.22,1.08-.77,2.43-1.36l.51,1.6Z"/>
  <path class="cls-6" d="m91.46,57.74s-.36.09-1,.23c-.23.06-.5.12-.8.19-1.96.46-5.35,1.24-9.24,2.14-1.43.33-2.93.68-4.45,1.03l-1.76-8.48c2.15-.46,3.94-.86,5.88-1.27,3.2-.67,5.95-1.25,7.7-1.61.71-.15,1.26-.27,1.61-.34.26-.05.41-.08.41-.08,0,0,3.16,2.4,1.65,8.19Z"/>
  <path class="cls-6" d="m114.14,49.91c-.05.47-.15.97-.31,1.51l-1.24.29-20.77,4.56c-.02-.27.1-.61-.08-.84-1.14-1.5-1.4-5.07-1.4-5.07l21-4.35,1.19-.26s.42.06.84.76c.5.82.99,1.57.77,3.4Z"/>
  <path class="cls-6" d="m82.26,42.97c1.34-.97,3.61.57,4.47,1.68,0,0,.92,2.18.08,5.46,0,.08-2.17.38-2.16.47-1.75.36-3.29.56-6.16,1.17-1.02-1.64-.89-5.21-.24-5.67.71-.5,2.51-2.01,4.01-3.11"/>
  <path class="cls-6" d="m89.87,75.35c-.6,2.01-2.91,2.71-5.71,2.01-2.81-.7-7.12-.9-8.23-1-1.1-.1-2.5-1.81-2.2-4.82.3-3,2.3-3.91,3.41-4.31,1.1-.4,3.01-.2,4.61.3l.15.03c1.76,1.21,4.13,2.35,6.31,2.4,1.9,1.33,2.23,3.5,1.66,5.39Z"/>
  <path class="cls-6" d="m75.93,76.36c-1.91.3-4.91,2.31-5.41,4.71-.5,2.41,3.41,11.93,3.71,12.33s6.22,6.82,10.93,10.53c4.71,3.71,15.44,9.42,21.76,10.43,6.32,1,22.16,1.5,22.16,1.5"/>
  <path class="cls-5" d="m88.46,77.19s.9,2.63-1.65,3.76-7.14,1.28-7.14,1.28c0,0,2.33,3.38-.3,6.32"/>
  <path class="cls-5" d="m97.11,67.86s-4.21,15.64-16.17,26.77"/>
  <path class="cls-5" d="m101.85,69.12s-5.26,5.79-5.79,17.97"/>
  <path class="cls-5" d="m105.23,71.47s-1.5,12.78.75,18.72c2.26,5.94,4.81,7.67,4.81,7.67"/>
  <path class="cls-5" d="m-2.37,1.94s19.4,8.12,22.78,38.8c0,0,19.85,33.16,23.91,52.56"/>
  <path class="cls-5" d="m42.88,87.65s13.6,12.68,17.68,18.52c5.69,8.14,12.18,21.43,12.18,21.43"/>
  <path class="cls-5" d="m-4.4,66.69s11.73,24.14,33.61,35.64"/>
  <path class="cls-5" d="m20.66,97.11s8.47,22.07,14.79,30.86"/>
  <line class="cls-7" x1="63.47" y1="59.56" x2="63.89" y2="63.74"/>
  <line class="cls-7" x1="67.93" y1="58.9" x2="68.35" y2="63.09"/>
  <line class="cls-7" x1="59.01" y1="60.4" x2="59.44" y2="64.59"/>
  <path class="cls-7" d="m59.63,27.5l6.78-2.23s.28-2.29,1.68-2.91,2.18.59,2.18,1.23c0,.64-.45,1.32-1.32,1.59,0,0,1.77-.54,2.09.95s-1.86,2.59-4.18,1.59l-6.44,1.97"/>
  <path class="cls-7" d="m56.35,34.98l9.42,3.35s.22,2.44,1.68,2.91c1.53.49,2.18-.59,2.18-1.23,0-.64-.45-1.32-1.32-1.59,0,0,1.77.54,2.09-.95.32-1.5-1.86-2.59-4.18-1.59l-9.83-3.53"/>
  <path class="cls-7" d="m43.63,27.5l-6.78-2.23s-.28-2.29-1.68-2.91c-1.46-.65-2.18.59-2.18,1.23s.45,1.32,1.32,1.59c0,0-1.77-.54-2.09.95-.32,1.5,1.86,2.59,4.18,1.59l6.44,1.97"/>
  <path class="cls-7" d="m46.91,34.98l-9.42,3.35s-.22,2.44-1.68,2.91-2.18-.59-2.18-1.23c0-.64.45-1.32,1.32-1.59,0,0-1.77.54-2.09-.95s1.86-2.59,4.18-1.59l9.83-3.53"/>
  <path class="cls-7" d="m47.04,36.62h9.29v-4.56c0-.59.48-1.07,1.07-1.07h2.16c.51,0,.93-.42.93-.93v-.04c0-.35-.2-.67-.51-.83-.29-.15-.5-.42-.57-.75-.06-.32.03-.66.24-.91,1.65-1.89,2.56-4.32,2.56-6.84v-.23c0-2.78-1.08-5.39-3.05-7.36-1.97-1.97-4.58-3.05-7.36-3.05h-.23c-2.78,0-5.39,1.08-7.36,3.05s-3.05,4.58-3.05,7.36v.23c0,2.51.91,4.94,2.56,6.84.22.25.31.58.24.91-.06.32-.27.6-.57.75-.32.16-.51.48-.51.83v.04c0,.51.42.93.93.93h2.16c.59,0,1.07.48,1.07,1.07v4.56Z"/>
  <line class="cls-3" x1="48.67" y1="34.96" x2="48.67" y2="36.49"/>
  <line class="cls-3" x1="50.71" y1="34.96" x2="50.71" y2="36.49"/>
  <line class="cls-3" x1="52.75" y1="34.96" x2="52.75" y2="36.49"/>
  <line class="cls-3" x1="54.79" y1="34.96" x2="54.79" y2="36.49"/>
  <g>
    <path d="m51.86,26.55c-1.67,0-3.03,1.36-3.03,3.03,0,.86.7,1.57,1.57,1.57.66,0,1.23-.41,1.46-1,.23.58.8,1,1.46,1,.86,0,1.57-.7,1.57-1.57,0-1.67-1.36-3.03-3.03-3.03Z"/>
    <path d="m50.13,22.91c0-1.45-1.17-2.62-2.62-2.62s-2.62,1.17-2.62,2.62,1.17,2.62,2.62,2.62,2.62-1.17,2.62-2.62Z"/>
    <path d="m55.86,20.28c-1.45,0-2.62,1.17-2.62,2.62s1.18,2.62,2.62,2.62,2.62-1.17,2.62-2.62-1.17-2.62-2.62-2.62Z"/>
  </g>
  <path class="cls-6" d="m90.27,69.64c-.65.24-1.34.35-2.06.32-2.18-.05-4.55-1.19-6.31-2.4-1.14-.77-2.03-1.57-2.46-2.13-1.04-1.36-.93-2.61-.43-4,3.89-.89,7.27-1.68,9.24-2.14.62,1.7,1.56,3.67,2.88,4.9,0,0,3.43,3.89-.86,5.46Z"/>
  <path class="cls-7" d="m81.64,43.63s.54,2.04-.19,4.97"/>
  <path class="cls-2" d="m54.46,65.21s-3.11.57-3.56.56c-.44,0-2.02-.77-2.43-.68-.23.05-2.58.2-4.58.22l-.51-1.6c1.9-.82,4.25-1.7,4.49-1.76.4-.1,1.21-1.5,1.61-1.7.4-.2,3.61-1.11,3.61-1.11,0,0,2.13,1.46,1.37,6.07Z"/>
  <line class="cls-1" x1="87.65" y1="42.4" x2="93" y2="64.37"/>
  <line class="cls-4" x1="111.66" y1="40.14" x2="115.73" y2="57.15"/>
  <rect class="cls-8" x="-742.9" y="-4971.2" width="6467.34" height="6437.3"/>
</svg>