<?xml version="1.0" encoding="UTF-8"?>
<svg id="Calque_1" data-name="Calque 1" xmlns="http://www.w3.org/2000/svg" viewBox="0 0 437.07 154.57">
  <defs>
    <style>
      .cls-1, .cls-2, .cls-3, .cls-4, .cls-5, .cls-6, .cls-7, .cls-8, .cls-9, .cls-10, .cls-11, .cls-12, .cls-13 {
        stroke-linecap: round;
        stroke-linejoin: round;
      }

      .cls-1, .cls-2, .cls-3, .cls-4, .cls-5, .cls-6, .cls-7, .cls-8, .cls-9, .cls-10, .cls-14 {
        stroke: #010101;
      }

      .cls-1, .cls-15 {
        fill: #d6d7d7;
      }

      .cls-2 {
        fill: #b8dfde;
      }

      .cls-3 {
        fill: #a17737;
      }

      .cls-4, .cls-16 {
        fill: #bfe5fb;
      }

      .cls-5, .cls-17 {
        fill: #fff;
      }

      .cls-6 {
        fill: #f5afb5;
      }

      .cls-7, .cls-18 {
        fill: #ed6d76;
      }

      .cls-8, .cls-19 {
        fill: #010101;
      }

      .cls-9, .cls-11, .cls-12, .cls-13 {
        fill: none;
      }

      .cls-10 {
        fill: #f4d688;
      }

      .cls-20 {
        fill: #f7e7d5;
      }

      .cls-21 {
        fill: #cfaa57;
      }

      .cls-22 {
        fill: #dfdfe0;
      }

      .cls-11 {
        stroke-dasharray: 0 0 0 0 0 0 .3 5.91;
      }

      .cls-11, .cls-12 {
        stroke: #cfaa57;
      }

      .cls-14 {
        fill: #76ac76;
        stroke-miterlimit: 10;
      }

      .cls-12 {
        stroke-width: 2px;
      }

      .cls-13 {
        stroke: #fff;
        stroke-width: 8px;
      }
    </style>
  </defs>
  <rect class="cls-13" x="-3924.19" y="-4302.75" width="6467.34" height="6437.3"/>
  <g id="Titres_catégories" data-name="Titres catégories">
    <g>
      <path class="cls-5" d="m342.67,113.57h-52.09v29h52.09v-29Z"/>
      <path class="cls-7" d="m316.63,98.54l26.06,15.03h-52.09l26.04-15.03h0Z"/>
      <path class="cls-2" d="m313.96,122.32h-12.97v10.3h12.97v-10.3Z"/>
      <path class="cls-3" d="m333.34,125.85h-9.35v16.08h9.35v-16.08Z"/>
    </g>
    <g>
      <path class="cls-9" d="m119.81,127.62l1.25.05c5.51-5.67,13.67-16.4,19.12-15.45,3.27.57,3.67,4.91,5.06,8.85,1.39,3.96,1.73,6.17,3.82,10.25l.99,1.6c.81,1.3,1.96,2.37,3.38,2.98.38.16.8.3,1.25.4,2.39.51,2.87.36,2.84,1.68-.03,1.31-8.98.8-10.1.77-.46-.01-.52-.79-.44-1.71.19-2.12-.36-4.23-1.62-5.94-.29-.4-.62-.85-.99-1.34-2.29-3.1-4.16-4.47-5.32-8.82-.37-1.65-.03-2.51-.03-2.51-1.29,1.5-5.76,13.57-15.63,19.97l-3.6-10.77"/>
      <path class="cls-4" d="m110.77,123.45c1.45.15,2.85,1.04,4.08,1.77,1.29.77,2.01,2.22,3.52,2.37,1.3.13,1.27.05,1.44.02,1.51-.22,2.37-1.12,2.52-1.3l1.63-1.78,2.5,11.46s-1.87,2.66-4.77,3.28c-1.68.35-7.13.66-9.41-.69l-1.29-.6h-.02c-.14-.05-.3.05-.4.13-.34.28-.63.71-.94,1.03-.35.36-.72.71-1.15.97-.79.46-1.77.46-2.66.65-.97.2-1.96.35-2.94.47-.18.02-.37.04-.55.07-2.9-1.05-6.36-2.68-6.99-4.66-1.12-3.48,4.12-8.25,4.12-8.25.38.03.8-.07,1.25-.26,0,0,0,0,.01,0,1.64-.69,2.82-2.12,4.3-3.07.08-.04.15-.09.23-.14,1.65-.96,3.61-1.65,5.54-1.45h-.01s0-.01,0-.01Z"/>
      <path class="cls-17" d="m89.2,133.91c.06.18.12.35.18.54,1.69.8,3.37-.8,3.37-.8,0,0,4.93-5.43,6.7-5.26,0,0-5.21,4.76-4.12,8.24.47.06,1.94.42,4.03.13,2.44-.34,5.82.09,5.82.09.82.09,1.23-.63,1.76-1.12.85-.8,1.82-1.48,2.73-2.21.95-.78,1.9-1.56,2.78-2.43.56-.55,1.34-1.24,1.55-2.03.12-.44.24-.86.18-1.32-.05-.4-.21-.77-.18-1.18.04-.48.49-.99.77-1.36.08-.1.12-.16.12-.16,0,0,.6-1.04.73-.56.13.48.14.79.34.55.2-.24.65-.2.81.07.17.26.56.09.82.43.26.35.46.49.49.93.02.43.56.78.35,1.4,0,.01,0,.02-.01.04-.23.62-1.12,1.51-1.36,1.86-.26.35-2.41,3.02-3.71,5.07-.64,1.02-1.66,2.2-2.59,3.19-.29.3-.56.64-.86.93-.37.36-.78.79-1.24,1.09-.02.02-.03.02-.05.03-.02.02-.04.03-.07.04-.08.05-.15.09-.23.12-.03.02-.06.03-.09.04,0,0-.01,0-.02,0-.13.05-.27.09-.4.13-.38.09-.77.13-1.16.18-.29.04-.57.09-.85.18h-.02s-.04,0-.07.01c-.09.02-.14.03-.14.03,0,0-1.82.32-3.23.47h-.03c-.46.05-.88.09-1.18.08-1.18-.03-2.6.03-2.6.03,0,0-3.96.76-5.77.33-.59-.13-1.3-.35-2-.66-.29-.12-.57-.26-.84-.41-.57-.32-1.08-.71-1.45-1.16-.09-.11-.17-.22-.24-.34-.21-.35-.34-.74-.34-1.17,0-1.51-.21-3.17.59-4.12-2.07-.37-4.24-2.77-4.24-2.77,0,0-3.21-2.78-.69-4.15,0,0,1.41-.18,3.41,1.08,1.99,1.26,2.36,1.07,2.73,1.07s0,.78,0,.78c0,0,1.68,1.95.99,3.19-.15.27-.41.51-.84.68-.2.08-.4.13-.62.15"/>
      <path class="cls-9" d="m89.2,133.91c.06.18.12.35.18.54,1.69.8,3.37-.8,3.37-.8,0,0,4.93-5.43,6.7-5.26,0,0-5.21,4.76-4.12,8.24.47.06,1.94.42,4.03.13,2.44-.34,5.82.09,5.82.09.82.09,1.23-.63,1.76-1.12.85-.8,1.82-1.48,2.73-2.21.95-.78,1.9-1.56,2.78-2.43.56-.55,1.34-1.24,1.55-2.03.12-.44.24-.86.18-1.32-.05-.4-.21-.77-.18-1.18.04-.48.49-.99.77-1.36.08-.1.12-.16.12-.16,0,0,.6-1.04.73-.56.13.48.14.79.34.55.2-.24.65-.2.81.07.17.26.56.09.82.43.26.35.46.49.49.93.02.43.56.78.35,1.4,0,.01,0,.02-.01.04-.23.62-1.12,1.51-1.36,1.86-.26.35-2.41,3.02-3.71,5.07-.64,1.02-1.66,2.2-2.59,3.19-.29.3-.56.64-.86.93-.37.36-.78.79-1.24,1.09-.02.02-.03.02-.05.03-.02.02-.04.03-.07.04-.08.05-.15.09-.23.12-.03.02-.06.03-.09.04,0,0-.01,0-.02,0-.13.05-.27.09-.4.13-.38.09-.77.13-1.16.18-.29.04-.57.09-.85.18h-.02s-.04,0-.07.01c-.09.02-.14.03-.14.03,0,0-1.82.32-3.23.47h-.03c-.46.05-.88.09-1.18.08-1.18-.03-2.6.03-2.6.03,0,0-3.96.76-5.77.33-.59-.13-1.3-.35-2-.66-.29-.12-.57-.26-.84-.41-.57-.32-1.08-.71-1.45-1.16-.09-.11-.17-.22-.24-.34-.21-.35-.34-.74-.34-1.17,0-1.51-.21-3.17.59-4.12-2.07-.37-4.24-2.77-4.24-2.77,0,0-3.21-2.78-.69-4.15,0,0,1.41-.18,3.41,1.08,1.99,1.26,2.36,1.07,2.73,1.07s0,.78,0,.78c0,0,1.68,1.95.99,3.19-.15.27-.41.51-.84.68-.2.08-.4.13-.62.15"/>
      <path class="cls-5" d="m98.51,141.4s-3.96.76-5.77.34c-.82-.2-1.91-.55-2.85-1.08-.15-8.64-6.38-13.71-6.38-13.71,0,0,1.41-.18,3.41,1.08,1.99,1.26,2.36,1.07,2.73,1.07s0,.78,0,.78c0,0,1.68,1.95,1,3.19-.15.27-.41.51-.84.68-.2.09-.4.13-.62.15.06.18.12.35.17.54,1.69.8,3.37-.79,3.37-.79-.06-.15-1.35-3.43-2.75-4.97-1.41-1.55-3.75-4.22-8.58-2.04-.07.03-.15.07-.22.1-2.26,1.07-3.25,3.84-3.05,6.21.33,4.06,3.73,4.84,6.84,6.19,1.54.67,3.07,1.4,4.51,2.27.12.07.25.15.37.21,4.27,2.26,8.64-.21,8.64-.21h0s0,0,0,0Z"/>
      <path class="cls-17" d="m86.9,130.58s.77-.13.78-.94l-.78.94Z"/>
      <path class="cls-9" d="m86.9,130.58s.77-.13.78-.94"/>
      <path class="cls-8" d="m140.15,136.79l3.01-2.6-3.01-2.6v5.21h0Z"/>
      <path class="cls-9" d="m140.15,134.15h-8.29"/>
    </g>
    <g>
      <path class="cls-5" d="m55.52,53.3c0,.14-.08.27-.15.39-1.04,1.79-2.11,3.6-3.52,5.11-.2.21-.39.41-.6.6l-.04.04s-.03.03-.05.04c-.02.02-.04.04-.06.06-.07.06-.12.11-.19.17-1.76,1.54-4.1,2.57-6.41,2.22-.93-.13-1.8-.48-2.63-.89-1.27-.63-2.44-1.41-3.52-2.3.05-.52.12-1.04.2-1.56.01-.09.03-.18.09-.24.07-.09.18-.12.29-.14.12-.02.23-.04.35-.05.06-.96.27-1.89.63-2.77.04-.09.09-.2.16-.26.08-.07.21-.09.27,0,.05.05.06.11.07.17.07.4.09.8.1,1.2.06-.4.18-.79.35-1.15.04-.07.08-.14.14-.18-.44-.28-.86-.58-1.28-.88-2.63-1.93-4.93-4.26-7.1-6.4-2.17-4.01-3.49-8.46-5.97-12.27.04,0,.07-.02.1-.03,2.44-.6,4.65-2.04,6.22-3.99h0c.38-.48.73-.98,1.02-1.51.74.91,1.48,1.82,2.24,2.7,1.02,1.2,2.08,2.37,3.21,3.46.82.79,1.74,1.41,2.99,1.71.32.08.63.16.96.25,1.38.39,2.73.91,3.79,1.85.79.71,1.37,1.61,1.92,2.52,1.21,1.98,2.3,4.01,3.37,6.07.1.19.2.38.29.57.48.93.95,1.86,1.42,2.79.18.36.37.72.55,1.08.21.43.43.85.64,1.27.06.12.12.25.12.38h.03Z"/>
      <path class="cls-5" d="m26.48,48.99c-.16.41-.35.79-.58,1.17.21-.38.41-.77.58-1.17Z"/>
      <path class="cls-5" d="m53.36,59.05c-.09.82-.28,1.61-.57,2.38-.16.46-.37.91-.6,1.34-.92,1.76-2.29,3.31-3.83,4.58-2.63,2.18-5.77,3.65-8.78,5.29-1.49.8-2.97,1.66-4.48,2.42.26-.49.49-.99.68-1.51.04-.11.08-.23.08-.34-.01-.4-.51-.62-.89-.51-.38.11-.65.43-.91.73-.46.52-.85,1.25-1.43,1.78-.35.32-.76.57-1.29.65-1.59.25-3.24.23-4.83-.07-1.54-.27-3.02-.8-4.36-1.59.95-2.26,2.05-4.55,3.78-6.35.61-.63,1.3-1.19,2.11-1.54.74-.31,1.55-.42,2.36-.46,1.96-.12,3.94.06,5.9.24,1.03-.62,1.88-1.24,2.71-1.86-.82-1.52-.85-3.5-.63-5.48.05-.52.12-1.04.2-1.56.01-.09.03-.18.09-.24.07-.09.18-.12.29-.14.12-.02.23-.04.35-.05h.01l2.82.46h0l.3.05,8.07,1.32,1.37.23,1.51.25h0Z"/>
      <path class="cls-5" d="m53.44,59.06h-.09c.01-.1.02-.18.03-.27,0,.07.01.18.05.27h0Z"/>
      <path class="cls-9" d="m26.67,34.2s-.05-.08-.08-.12l.18.09"/>
      <path class="cls-9" d="m52.51,52.31v.02h0c-.04.21-.07.44-.11.65-.02.13-.05.26-.08.38-.21.92-.5,1.85-1.12,2.55-.3.36-.71.65-1.17.82-.45.18-.96.25-1.47.15-2.08-.37-4.07-1.15-5.93-2.18-.17-.09-.34-.18-.5-.27-.05-.03-.1-.06-.15-.09-.12-.07-.23-.14-.35-.21-.1-.06-.2-.12-.3-.19-.1-.07-.21-.13-.31-.2"/>
      <path class="cls-5" d="m20.02,72.62c-.34-.32-.65-.65-.96-1.01-2.08-2.51-3.11-5.91-2.43-9.08.21-.96.55-1.88.92-2.79.85-2.12,1.7-3.88,2.84-5.75,1.09,6.13,1,12.47-.38,18.64h0Z"/>
      <path class="cls-5" d="m50.65,27.63c2.51-1.46,3.55-4.76,2.92-7.58-.63-2.83-2.66-5.18-5.04-6.85-1.25-.88-2.63-1.6-4.1-1.99-4.3-1.14-9.16.88-11.68,4.54-2.52,3.66-3.97,8.19-2.14,12.24.29.65,1.87,1.78,2.42,2.22.51.41,1.14.62,1.76.79,2.4.67,4.94.98,7.4.63,2.47-.35,4.62-1.79,8.45-4.01h0s0,.01,0,.01Z"/>
      <path class="cls-5" d="m49.99,21.31c-1.84,1.55-4.2,2.41-6.59,2.69-1.12.13-2.24.13-3.37.04-1.28-.1-2.57-.34-3.83-.65-.14-.59-.54-1.1-1.06-1.39-.52-.29-1.18-.35-1.74-.17-.69.23-1.24.79-1.61,1.42-.46.78-.68,1.76-.29,2.57.32.66.98,1.08,1.57,1.41-.15,2.05-.26,4.27.85,6.01.52.81,1.09,1.62,1.84,2.22.78.62,1.86,1.31,2.8,1.64,1.62.57,3.61.27,5.17-.44,2.34-1.08,3.91-3.3,5.27-5.49.99-1.61,1.74-3.36,2.2-5.19-.49-.59-.79-1.33-.95-2.08-.16-.76-.2-1.52-.24-2.57h0Z"/>
      <path class="cls-5" d="m56.59,52.71c-.24-.01-.49-.04-.65-.22-.18-.23-.05-.62.23-.69-.34,0-.62.36-.53.68.09.32.5.51.95.22h0Z"/>
      <path class="cls-5" d="m51.13,59.37c.54.43,1.28.59,1.96.44-.66-.12-1.33-.26-1.96-.44Z"/>
      <path class="cls-17" d="m42.02,53.98s-.27-1.24-.84-3.43l.84,3.43Z"/>
      <path class="cls-9" d="m42.02,53.98s-.27-1.24-.84-3.43"/>
      <path class="cls-17" d="m47.03,47.91s4.69.37,5.48,4.43l-5.48-4.43Z"/>
      <path class="cls-9" d="m47.03,47.91s4.69.37,5.48,4.43"/>
      <path class="cls-6" d="m50.78,55.73c.86,0,1.55-.69,1.55-1.55s-.69-1.55-1.55-1.55-1.55.69-1.55,1.55.69,1.55,1.55,1.55Z"/>
      <path class="cls-9" d="m47.03,44.59l1.09,3.31"/>
      <path class="cls-5" d="m43.07,55.88c.04.1-.02.2-.07.29-.2.36-.4.72-.59,1.08-.02.03-.04.07-.05.09-.06.1-.12.21-.17.31-.93-.48-1.97-.58-2.94-.35,0-.19,0-.38.02-.57.06-.96.27-1.89.63-2.77.04-.09.09-.2.16-.26.08-.07.21-.09.27,0,.05.05.06.11.07.17.07.4.09.8.1,1.2.06-.4.18-.79.35-1.15.04-.07.08-.14.14-.18.02-.02.05-.03.09-.04.12,0,.2.1.23.24.01.05.02.11.02.16,0,.37,0,.73-.04,1.09.05-.37.15-.73.32-1.06v-.02c.04-.08.09-.15.15-.19.07-.04.18-.03.21.04.02.04.02.09.01.13-.01.09-.02.16-.04.24-.04.37-.1.73-.18,1.09.06-.34.17-.68.32-.99h0c.03-.07.07-.13.12-.17.15-.09.35.05.38.22.02.08.01.15,0,.23-.02.09-.05.19-.08.27-.13.39-.16.81-.1,1.23.04-.15.09-.32.22-.42.12-.09.35-.08.4.07h.02Z"/>
      <path class="cls-5" d="m58.08,51.03c-.94-.07-1.73.99-2.66.84-.38-.06-.73-.32-1.11-.29-.51.04-.82.55-1.19.9-.37.35-.84.57-1.26.85-1.01.69-1.68,1.85-1.79,3.08-.11,1.22.34,2.48,1.31,3.26.02.77.04,1.57.34,2.28.21.5.55.93.89,1.35.66.84,1.35,1.69,2.18,2.32.8-.52,1.66-.96,2.55-1.29.26-.09.51-.18.73-.34.41-.29.62-.79.79-1.26,1.19-3.27,1.62-6.79,1.68-10.28,0-.44,0-.92-.27-1.26-.29-.38-.77-.05-2.16-.15h-.01Z"/>
      <path class="cls-5" d="m58.07,54.18c.4-.07.82.22.9.61.09.39-.17.82-.55.93.2-.18.26-.49.16-.76-.1-.26-.33-.44-.5-.79h0Z"/>
      <path class="cls-17" d="m58.08,51.03c-.94-.07-1.73.99-2.66.84-.38-.06-.73-.32-1.11-.29-.51.04-.82.55-1.19.9-.37.35-.84.57-1.26.85-1.01.69-1.68,1.85-1.79,3.08-.11,1.22.34,2.48,1.31,3.26.02.77.04,1.57.34,2.28.21.5.55.93.89,1.35.66.84,1.35,1.69,2.18,2.32.8-.52,1.66-.96,2.55-1.29.26-.09.51-.18.73-.34.41-.29.62-.79.79-1.26,1.19-3.27,1.62-6.79,1.68-10.28,0-.44,0-.92-.27-1.26-.29-.38-.77-.05-2.16-.15h-.01Z"/>
      <path class="cls-9" d="m58.08,51.03c-.94-.07-1.73.99-2.66.84-.38-.06-.73-.32-1.11-.29-.51.04-.82.55-1.19.9-.37.35-.84.57-1.26.85-1.01.69-1.68,1.85-1.79,3.08-.11,1.22.34,2.48,1.31,3.26.02.77.04,1.57.34,2.28.21.5.55.93.89,1.35.66.84,1.35,1.69,2.18,2.32.8-.52,1.66-.96,2.55-1.29.26-.09.51-.18.73-.34.41-.29.62-.79.79-1.26,1.19-3.27,1.62-6.79,1.68-10.28,0-.44,0-.92-.27-1.26-.29-.38-.77-.05-2.16-.15h-.01Z"/>
      <path class="cls-10" d="m56.19,67.1c-.09.85-.44,1.67-.87,2.41-1.36,2.3-3.6,3.98-6.04,5.1-2.43,1.12-5.07,1.7-7.69,2.24-.27.18-.54.34-.82.49-.1.06-.2.11-.3.16h0c-1.59.8-3.35,1.19-5.04.81-.78-.18-1.54-.53-2.09-1.12l-6.82-1.41c-.23.27-.45.55-.65.83-1.37-.48-2.69-1.12-3.93-1.88.08-.18.15-.36.23-.54.95-2.26,2.05-4.55,3.78-6.35.61-.63,1.3-1.19,2.11-1.54.74-.31,1.55-.42,2.36-.46,1.96-.12,3.94.06,5.9.24,1.03-.62,1.88-1.24,2.71-1.86-.82-1.52-.85-3.5-.63-5.48.05-.52.12-1.04.2-1.56.01-.09.03-.18.09-.24.07-.09.18-.12.29-.14.12-.02.23-.04.35-.05h.01c.96-.12,1.94.04,2.82.46h0s.03.02.05.02c.07.04.14.08.21.12.06.05.12.1.15.18.05.11.04.24.03.35-.08.96-.15,1.92-.23,2.88,1.44-.89,2.93-1.66,4.54-1.9,1.41-.22,2.95.01,4.07.85.16.12.3.25.45.4l.03.03c.5.53.96.94,1.38,1.29,1.23,1.01,2.09,1.38,2.54,2.18.05.09.09.17.13.26.19.35.34.71.46,1.09.23.69.34,1.43.26,2.16h-.02Z"/>
      <path class="cls-5" d="m40.83,77.22c-.29-.13-.47-.46-.42-.78.05-.31.34-.57.65-.6-.22-.13-.42-.23-.58-.38-.16-.15-.27-.37-.23-.59.05-.28.31-.48.55-.63-.29-.19-.68-.45-.62-.8.05-.28.37-.43.65-.48.66-.13,1.34-.02,2.01.02,1.53.12,3.08-.05,4.55-.51-1.15-.15-2.4,0-3.08-.66-.21-.21-.13-.63.05-.86.08-.09.19-.13.3-.17.9-.29,1.87-.28,2.81-.26,1.35.04,2.75.09,3.99-.43.27-.12.55-.26.77-.47.24-.23.41-.51.58-.79.54-.93,1.05-1.88,1.51-2.85.36-.76.69-1.53,1.19-2.2s1.19-1.24,2-1.48c.54.8.75,1.79.74,2.75-.01.97-.23,1.91-.46,2.85-.32,1.24-.71,2.47-1.3,3.6-1.04,1.99-2.7,3.62-4.63,4.79-1.92,1.16-4.19,1.78-6.4,2.16-1.41.25-2.51.13-4.23-.3-.45-.12-.7-.45-.41-.92h0s.02,0,.02,0Z"/>
      <path class="cls-5" d="m56.37,63.47c.66,1.12,1.88,1.85,3.15,2.15,1.27.29,1.91.2,3.19-.04,1.23-.23,2.48-.69,3.43-1.51,1.21-1.04,1.59-1.93,2.14-3.8.24-.8.22-2.13.04-2.95-.4-1.87-1.32-3.28-2.73-4.58-1.08-1-2.25-1.96-3.65-2.42s-3.07-.34-4.16.64c.67.5,1.45.86,2.27,1.05-.91.02-1.8.55-2.27,1.34.29.3.7.46.95.6.28.15.57.3.75.57.27.41.18.98-.12,1.36-.3.38-.76.61-1.23.74-.48.13-1.01.16-1.47-.04-.46-.21-.8-.7-.72-1.18-.21.48-.28,1-.35,1.52-.08.59-.15,1.17-.22,1.76-.04.33-.07.66.02.97,0,.16,0,.33.05.49.06.15.18.29.34.32.25.04.46-.18.71-.26-.65.34-1.07,1.09-1.01,1.83.01.15.05.31.16.41.13.11.32.12.48.07.16-.06.29-.17.43-.28-.17.18-.34.36-.51.54-.05.05-.09.1-.09.17,0,.05.03.1.06.15.09.14.26.24.35.4h0s0-.02,0-.02Z"/>
      <path class="cls-9" d="m39.01,64.22s3.7,3.63,8.04-.46"/>
      <path class="cls-17" d="m36.29,66.08s1.68.38,2.98,1.08l-2.98-1.08Z"/>
      <path class="cls-9" d="m36.29,66.08s1.68.38,2.98,1.08"/>
      <path class="cls-1" d="m39.75,52.87c-2.63-1.93-4.93-4.26-7.1-6.4-2.17-4.01-3.49-8.46-5.97-12.27-.21.05-.43.1-.64.13-3.08.05-7.14,2.07-9.34,4.25-2.27,2.23-3.83,5.07-5.1,7.99-1.9,4.32-3.23,8.89-3.96,13.56-.34,2.21-.55,4.48-.13,6.68.58,3.07,2.18,6.33,4.38,8.55.93.93,1.87,1.68,2.83,2.35l4.35-6.11c-2.08-2.51-3.11-5.91-2.43-9.08.21-.96.55-1.88.92-2.79.85-2.12,1.7-3.88,2.84-5.75,1.09,6.13,1,12.47-.38,18.64.12.12.25.24.38.34.54.46,1.13.87,1.74,1.23.95-2.26,2.05-4.55,3.78-6.35.61-.63,1.3-1.19,2.11-1.54.74-.31,1.55-.42,2.36-.46,1.96-.12,3.94.06,5.9.24,1.03-.62,1.88-1.24,2.71-1.86-.82-1.52-.85-3.5-.63-5.48.05-.52.12-1.04.2-1.56.01-.09.03-.18.09-.24.07-.09.18-.12.29-.14.12-.02.23-.04.35-.05.06-.96.27-1.89.63-2.77.04-.09.09-.2.16-.26.08-.07.21-.09.27,0,.05.05.06.11.07.17.07.4.09.8.1,1.2.06-.4.18-.79.35-1.15.04-.07.08-.14.14-.18-.44-.28-.86-.58-1.28-.88h.01Z"/>
      <path class="cls-17" d="m20.31,53.43c.04.18.07.37.09.55-1.15,1.87-1.99,3.63-2.84,5.75-.37.91-.71,1.84-.92,2.79-.78,3.63.66,7.55,3.38,10.1.12.12.25.24.38.34,2.96,2.52,7.08,3.48,10.93,2.9,1.4-.21,1.99-1.59,2.73-2.43.26-.3.53-.62.91-.73.38-.11.88.11.89.51,0,.12-.04.23-.08.34-.19.52-.42,1.02-.68,1.51-.34.63-.74,1.24-1.19,1.8,1.63.1,2.99-.42,4.38-.55.62-.06,1.26-.03,1.79.26.15.09.29.19.38.34.16.28.06.68-.22.85.36-.02.62.29.58.57-.04.28-.27.51-.55.6.28.09.44.27.49.5.02.07.02.13,0,.19-.05.24-.36.31-.5.51.07.35-.07.65-.27.87-.21.22-.47.37-.74.51-1.09.56-2.26.97-3.45,1.23-5.35,1.31-11.88.42-16.81-2.4-2.62-1.53-4.9-2.74-7.1-4.96-2.21-2.21-3.8-5.48-4.38-8.55-.41-2.2-.21-4.47.13-6.68.73-4.67,2.07-9.24,3.96-13.56l8.72,6.86h0Z"/>
      <path class="cls-9" d="m40.23,77.76l-4.82.55"/>
      <path class="cls-9" d="m40.27,78.93l-5.53.87"/>
      <path class="cls-9" d="m40.26,80.13l-5.02,1.08"/>
      <path class="cls-9" d="m20.31,53.43c.04.18.07.37.09.55-1.15,1.87-1.99,3.63-2.84,5.75-.37.91-.71,1.84-.92,2.79-.78,3.63.66,7.55,3.38,10.1.12.12.25.24.38.34,2.96,2.52,7.08,3.48,10.93,2.9,1.4-.21,1.99-1.59,2.73-2.43.26-.3.53-.62.91-.73.38-.11.88.11.89.51,0,.12-.04.23-.08.34-.19.52-.42,1.02-.68,1.51-.34.63-.74,1.24-1.19,1.8,1.63.1,2.99-.42,4.38-.55.62-.06,1.26-.03,1.79.26.15.09.29.19.38.34.16.28.06.68-.22.85.36-.02.62.29.58.57-.04.28-.27.51-.55.6.28.09.44.27.49.5.02.07.02.13,0,.19-.05.24-.36.31-.5.51.07.35-.07.65-.27.87-.21.22-.47.37-.74.51-1.09.56-2.26.97-3.45,1.23-5.35,1.31-11.88.42-16.81-2.4-2.62-1.53-4.9-2.74-7.1-4.96-2.21-2.21-3.8-5.48-4.38-8.55-.41-2.2-.21-4.47.13-6.68.73-4.67,2.07-9.24,3.96-13.56l8.72,6.86h0Z"/>
      <path class="cls-17" d="m40.81,74.24s2.71.62,5.07,0h-5.07Z"/>
      <path class="cls-9" d="m40.81,74.24s2.71.62,5.07,0"/>
      <path class="cls-17" d="m41.05,75.85s3.42.14,4.82-.21l-4.82.21Z"/>
      <path class="cls-9" d="m41.05,75.85s3.42.14,4.82-.21"/>
      <path class="cls-17" d="m40.83,77.22s3.3.47,5.31-.27c0,0-5.31.27-5.31.27Z"/>
      <path class="cls-9" d="m40.83,77.22s3.3.47,5.31-.27"/>
      <path class="cls-9" d="m56.17,51.8s.42.9.86,1.41"/>
      <path class="cls-9" d="m45.18,26.44s-.9,3.61,0,5.02c.9,1.4-.4,2.01-2.16.9"/>
      <path class="cls-19" d="m40.73,27.73c.13-.6-.02-1.13-.32-1.2-.3-.07-.65.37-.78.97s.02,1.13.32,1.2c.3.07.65-.37.78-.97Z"/>
      <path class="cls-19" d="m47.56,29.87c.2-.58.12-1.13-.17-1.23-.29-.1-.69.29-.89.87-.2.58-.12,1.13.17,1.23.29.1.69-.29.89-.87Z"/>
      <path class="cls-9" d="m39.56,34.08s1.62,1.18,3.91,1.18"/>
      <path class="cls-9" d="m20.31,53.43v-5.53"/>
      <path class="cls-9" d="m33.33,24.03l.71.55"/>
      <path class="cls-15" d="m24.8,57.66s5.01,6.09,11.49,3.38l-11.49-3.38Z"/>
      <path class="cls-9" d="m24.8,57.66s5.01,6.09,11.49,3.38"/>
      <path class="cls-17" d="m38.12,25.54s1.22-.82,2.91-.6l-2.91.6Z"/>
      <path class="cls-9" d="m38.12,25.54s1.22-.82,2.91-.6"/>
      <path class="cls-17" d="m48.12,25.84s1.19.63,1.65,1.78l-1.65-1.78Z"/>
      <path class="cls-9" d="m48.12,25.84s1.19.63,1.65,1.78"/>
    </g>
    <g>
      <path class="cls-12" d="m364.26,66.99c1.94,1.27,5.24,3.12,7.29,4.22-2.46,1.49-4.13,2.86-6.59,4.35"/>
      <line class="cls-12" x1="67.7" y1="71.64" x2="368.93" y2="71.64"/>
    </g>
    <path class="cls-21" d="m318.97,70.76s-.03-.03-.04-.05l.3.39s-.03-.04-.04-.07l.2.46s-.02-.06-.02-.09l.07.52v-.12l-.07.52s.02-.09.04-.14l-.2.46c.02-.05.05-.1.09-.15l-.3.39s.07-.07.1-.1l-.39.3s.07-.05.1-.06l-.46.2s.07-.02.12-.04l-.52.07h.1l-.52-.07s.07.01.1.03l-.46-.2s.07.04.1.06l-.39-.3s.06.05.09.09l-.3-.39s.06.09.08.14l-.2-.46c.02.05.04.1.04.16l-.07-.52c0,.06,0,.13,0,.19l.07-.52c0,.05-.02.11-.04.16l.2-.46s-.04.09-.07.12l.3-.39s-.05.06-.09.09l.39-.3s-.07.05-.12.07l.46-.2c-.05.02-.12.04-.18.05l.52-.07c-.06,0-.12,0-.18,0l.52.07c-.07-.01-.13-.03-.2-.05l.46.2c-.05-.02-.11-.05-.16-.09l.39.3s-.09-.08-.13-.13l.3.39s-.06-.09-.09-.15l.2.46c-.02-.05-.04-.12-.05-.17l.07.52c-.01-.08-.01-.15,0-.23l-.07.52c.01-.09.04-.17.07-.25l-.2.46c.03-.07.07-.14.12-.2l-.3.39c.05-.06.1-.12.16-.16l-.39.3c.05-.04.1-.07.16-.1l-.46.2c.08-.03.16-.05.24-.07l-.52.07c.09-.01.17,0,.26,0l-.52-.07c.09.01.18.04.27.07l-.46-.2c.09.04.16.09.24.14l-.39-.3c.06.05.12.1.16.16l-.3-.39c.05.06.09.13.12.2l-.2-.46c.03.07.05.13.05.21l-.07-.52c.01.08.01.16,0,.24l.07-.52c-.01.1-.04.19-.08.28l.2-.46c-.04.09-.08.16-.13.23l.3-.39c-.05.07-.12.13-.19.19l.39-.3c-.07.05-.13.09-.21.12l.46-.2c-.07.03-.13.05-.21.06l.52-.07c-.08.01-.16.01-.23,0l.52.07c-.08-.01-.15-.04-.23-.06l.46.2c-.08-.04-.16-.08-.23-.13l.39.3c-.07-.05-.13-.12-.19-.19l.3.39c-.06-.08-.11-.16-.15-.25l.2.46c-.03-.07-.05-.15-.06-.23l.07.52c0-.07,0-.14,0-.21l-.07.52c.01-.09.03-.16.07-.24l-.2.46c.03-.07.07-.13.11-.2l-.3.39c.05-.07.12-.13.2-.2l-.39.3c.07-.05.15-.1.24-.14l-.46.2c.08-.03.15-.05.24-.07l-.52.07c.07-.01.15-.01.22,0l-.52-.07c.07.01.14.03.21.05l-.46-.2c.07.03.12.06.18.1l-.39-.3c.06.05.12.1.16.16l-.3-.39c.05.07.1.14.13.22l-.2-.46c.04.09.06.18.07.27l-.07-.52c.01.08.01.15,0,.23l.07-.52c-.01.08-.03.15-.06.23l.2-.46c-.02.05-.05.11-.09.16l.3-.39c-.04.05-.09.1-.14.14l.39-.3c-.06.04-.12.09-.2.12l.46-.2c-.08.03-.16.05-.24.07l.52-.07c-.09.01-.18.01-.27,0l.52.07c-.07-.01-.15-.03-.21-.06l.46.2c-.06-.02-.12-.06-.17-.1l.39.3s-.09-.08-.13-.13l.3.39c-.04-.05-.07-.11-.1-.17l.2.46c-.02-.07-.04-.14-.05-.21l.07.52c-.01-.08,0-.16,0-.24l-.07.52c.01-.09.04-.17.07-.26l-.2.46c.03-.07.07-.13.11-.19l-.3.39s.09-.1.14-.14l-.39.3s.1-.07.15-.09l-.46.2h.02c.25-.07.48-.18.66-.35.21-.13.38-.32.5-.54.14-.23.22-.46.23-.72.05-.26.05-.52-.04-.77l-.2-.46c-.17-.29-.4-.52-.7-.69l-.46-.2c-.34-.09-.69-.09-1.03,0-.21.09-.44.15-.63.29-.17.12-.38.27-.53.44-.31.37-.55.73-.66,1.2-.05.23-.08.46-.1.69v.1c0,.2.04.41.08.62.01.07.03.13.05.19.07.19.16.45.29.63.27.37.57.73.99.93s.86.35,1.37.33.9-.13,1.37-.36c.2-.09.41-.29.55-.4.18-.15.32-.36.45-.54.13-.18.21-.41.29-.62.03-.07.05-.15.06-.23.04-.23.09-.48.07-.71s-.04-.49-.11-.73c-.16-.5-.36-.82-.7-1.21-.14-.16-.38-.32-.53-.43-.19-.14-.43-.22-.65-.3-.07-.02-.13-.04-.21-.05-.24-.04-.49-.09-.74-.07-.2.02-.49.04-.71.12s-.46.16-.66.29-.39.27-.56.43c-.02.02-.05.05-.08.08-.13.15-.26.32-.37.48-.02.03-.04.06-.05.1-.09.18-.16.37-.24.55-.08.22-.1.54-.12.74v.12c.01.2.04.41.08.61,0,.04.02.09.03.13.06.19.15.38.23.56.03.07.07.14.12.21.13.18.29.41.47.57.38.32.77.59,1.26.71s1.01.13,1.48,0,.84-.37,1.21-.7c.16-.15.32-.38.43-.54.05-.07.09-.13.13-.21.23-.47.35-.85.36-1.38v-.12c-.02-.2-.04-.41-.09-.6,0-.04-.02-.07-.03-.1-.07-.19-.15-.38-.24-.56-.1-.2-.29-.41-.41-.55-.15-.17-.37-.32-.54-.45-.05-.04-.12-.08-.18-.11-.21-.1-.43-.21-.66-.27s-.47-.08-.7-.1-.49.04-.73.07c-.07.01-.14.03-.21.05-.21.08-.46.16-.65.3-.4.28-.76.6-.98,1.05s-.38.91-.35,1.41c.01.24.03.49.1.72.03.09.08.2.12.28s.07.19.12.28c.02.04.04.07.06.1.12.16.26.38.43.52.1.09.31.26.47.35.17.1.37.16.55.24.15.06.29.07.46.09.4.05.52.04.97-.04.42-.07.91-.35,1.2-.67.15-.16.3-.34.4-.53.08-.16.16-.35.22-.53.01-.04.02-.07.02-.11.07-.47.13-.92-.04-1.38-.15-.4-.2-.5-.43-.8-.21-.27-.34-.41-.67-.62-.19-.12-.41-.21-.63-.26-.15-.02-.39-.07-.54-.07h-.04c-.1,0-.23.03-.3.04-.08.01-.21.02-.3.04-.02,0-.03.01-.05.02-.14.05-.35.13-.48.2-.03.02-.06.03-.09.05-.43.29-.52.41-.82.81-.27.37-.37.86-.4,1.3-.01.23.02.46.09.67.06.18.13.37.23.54.07.12.23.3.32.41.01.02.02.03.04.05.18.19.38.32.63.4.23.12.48.18.75.16.27.01.52-.04.75-.16.24-.08.45-.21.63-.4l.3-.39c.18-.3.26-.63.26-.98l-.07-.52c-.09-.33-.26-.62-.5-.86h0Z"/>
    <path class="cls-21" d="m217.45,70.76s-.03-.03-.04-.05l.3.39s-.03-.04-.04-.07l.2.46s-.02-.06-.02-.09l.07.52v-.12l-.07.52s.02-.09.04-.14l-.2.46c.02-.05.05-.1.09-.15l-.3.39s.07-.07.1-.1l-.39.3s.07-.05.1-.06l-.46.2s.07-.02.12-.04l-.52.07h.1l-.52-.07s.07.01.1.03l-.46-.2s.07.04.1.06l-.39-.3s.06.05.09.09l-.3-.39s.06.09.08.14l-.2-.46c.02.05.04.1.04.16l-.07-.52c0,.06,0,.13,0,.19l.07-.52c0,.05-.02.11-.04.16l.2-.46s-.04.09-.07.12l.3-.39s-.05.06-.09.09l.39-.3s-.07.05-.12.07l.46-.2c-.05.02-.12.04-.18.05l.52-.07c-.06,0-.12,0-.18,0l.52.07c-.07-.01-.13-.03-.2-.05l.46.2c-.05-.02-.11-.05-.16-.09l.39.3s-.09-.08-.13-.13l.3.39s-.06-.09-.09-.15l.2.46c-.02-.05-.04-.12-.05-.17l.07.52c-.01-.08-.01-.15,0-.23l-.07.52c.01-.09.04-.17.07-.25l-.2.46c.03-.07.07-.14.12-.2l-.3.39c.05-.06.1-.12.16-.16l-.39.3c.05-.04.1-.07.16-.1l-.46.2c.08-.03.16-.05.24-.07l-.52.07c.09-.01.17,0,.26,0l-.52-.07c.09.01.18.04.27.07l-.46-.2c.09.04.16.09.24.14l-.39-.3c.06.05.12.1.16.16l-.3-.39c.05.06.09.13.12.2l-.2-.46c.03.07.05.13.05.21l-.07-.52c.01.08.01.16,0,.24l.07-.52c-.01.1-.04.19-.08.28l.2-.46c-.04.09-.08.16-.13.23l.3-.39c-.05.07-.12.13-.19.19l.39-.3c-.07.05-.13.09-.21.12l.46-.2c-.07.03-.13.05-.21.06l.52-.07c-.08.01-.16.01-.23,0l.52.07c-.08-.01-.15-.04-.23-.06l.46.2c-.08-.04-.16-.08-.23-.13l.39.3c-.07-.05-.13-.12-.19-.19l.3.39c-.06-.08-.11-.16-.15-.25l.2.46c-.03-.07-.05-.15-.06-.23l.07.52c0-.07,0-.14,0-.21l-.07.52c.01-.09.03-.16.07-.24l-.2.46c.03-.07.07-.13.11-.2l-.3.39c.05-.07.12-.13.2-.2l-.39.3c.07-.05.15-.1.24-.14l-.46.2c.08-.03.15-.05.24-.07l-.52.07c.07-.01.15-.01.22,0l-.52-.07c.07.01.14.03.21.05l-.46-.2c.07.03.12.06.18.1l-.39-.3c.06.05.12.1.16.16l-.3-.39c.05.07.1.14.13.22l-.2-.46c.04.09.06.18.07.27l-.07-.52c.01.08.01.15,0,.23l.07-.52c-.01.08-.03.15-.06.23l.2-.46c-.02.05-.05.11-.09.16l.3-.39c-.04.05-.09.1-.14.14l.39-.3c-.06.04-.12.09-.2.12l.46-.2c-.08.03-.16.05-.24.07l.52-.07c-.09.01-.18.01-.27,0l.52.07c-.07-.01-.15-.03-.21-.06l.46.2c-.06-.02-.12-.06-.17-.1l.39.3s-.09-.08-.13-.13l.3.39c-.04-.05-.07-.11-.1-.17l.2.46c-.02-.07-.04-.14-.05-.21l.07.52c-.01-.08,0-.16,0-.24l-.07.52c.01-.09.04-.17.07-.26l-.2.46c.03-.07.07-.13.11-.19l-.3.39s.09-.1.14-.14l-.39.3s.1-.07.15-.09l-.46.2h.02c.25-.07.48-.18.66-.35.21-.13.38-.32.5-.54.14-.23.22-.46.23-.72.05-.26.05-.52-.04-.77l-.2-.46c-.17-.29-.4-.52-.7-.69l-.46-.2c-.34-.09-.69-.09-1.03,0-.21.09-.44.15-.63.29-.17.12-.38.27-.53.44-.31.37-.55.73-.66,1.2-.05.23-.08.46-.1.69v.1c0,.2.04.41.08.62.01.07.03.13.05.19.07.19.16.45.29.63.27.37.57.73.99.93s.86.35,1.37.33.9-.13,1.37-.36c.2-.09.41-.29.55-.4.18-.15.32-.36.45-.54.13-.18.21-.41.29-.62.03-.07.05-.15.06-.23.04-.23.09-.48.07-.71s-.04-.49-.11-.73c-.16-.5-.36-.82-.7-1.21-.14-.16-.38-.32-.53-.43-.19-.14-.43-.22-.65-.3-.07-.02-.13-.04-.21-.05-.24-.04-.49-.09-.74-.07-.2.02-.49.04-.71.12s-.46.16-.66.29-.39.27-.56.43c-.02.02-.05.05-.08.08-.13.15-.26.32-.37.48-.02.03-.04.06-.05.1-.09.18-.16.37-.24.55-.08.22-.1.54-.12.74v.12c.01.2.04.41.08.61,0,.04.02.09.03.13.06.19.15.38.23.56.03.07.07.14.12.21.13.18.29.41.47.57.38.32.77.59,1.26.71s1.01.13,1.48,0,.84-.37,1.21-.7c.16-.15.32-.38.43-.54.05-.07.09-.13.13-.21.23-.47.35-.85.36-1.38v-.12c-.02-.2-.04-.41-.09-.6,0-.04-.02-.07-.03-.1-.07-.19-.15-.38-.24-.56-.1-.2-.29-.41-.41-.55-.15-.17-.37-.32-.54-.45-.05-.04-.12-.08-.18-.11-.21-.1-.43-.21-.66-.27s-.47-.08-.7-.1-.49.04-.73.07c-.07.01-.14.03-.21.05-.21.08-.46.16-.65.3-.4.28-.76.6-.98,1.05s-.38.91-.35,1.41c.01.24.03.49.1.72.03.09.08.2.12.28s.07.19.12.28c.02.04.04.07.06.1.12.16.26.38.43.52.1.09.31.26.47.35.17.1.37.16.55.24.15.06.29.07.46.09.4.05.52.04.97-.04.42-.07.91-.35,1.2-.67.15-.16.3-.34.4-.53.08-.16.16-.35.22-.53.01-.04.02-.07.02-.11.07-.47.13-.92-.04-1.38-.15-.4-.2-.5-.43-.8-.21-.27-.34-.41-.67-.62-.19-.12-.41-.21-.63-.26-.15-.02-.39-.07-.54-.07h-.04c-.1,0-.23.03-.3.04-.08.01-.21.02-.3.04-.02,0-.03.01-.05.02-.14.05-.35.13-.48.2-.03.02-.06.03-.09.05-.43.29-.52.41-.82.81-.27.37-.37.86-.4,1.3-.01.23.02.46.09.67.06.18.13.37.23.54.07.12.23.3.32.41.01.02.02.03.04.05.18.19.38.32.63.4.23.12.48.18.75.16.27.01.52-.04.75-.16.24-.08.45-.21.63-.4l.3-.39c.18-.3.26-.63.26-.98l-.07-.52c-.09-.33-.26-.62-.5-.86h0Z"/>
    <path class="cls-21" d="m115.93,70.76s-.03-.03-.04-.05l.3.39s-.03-.04-.04-.07l.2.46s-.02-.06-.02-.09l.07.52v-.12l-.07.52s.02-.09.04-.14l-.2.46c.02-.05.05-.1.09-.15l-.3.39s.07-.07.1-.1l-.39.3s.07-.05.1-.06l-.46.2s.07-.02.12-.04l-.52.07h.1l-.52-.07s.07.01.1.03l-.46-.2s.07.04.1.06l-.39-.3s.06.05.09.09l-.3-.39s.06.09.08.14l-.2-.46c.02.05.04.1.04.16l-.07-.52c0,.06,0,.13,0,.19l.07-.52c0,.05-.02.11-.04.16l.2-.46s-.04.09-.07.12l.3-.39s-.05.06-.09.09l.39-.3s-.07.05-.12.07l.46-.2c-.05.02-.12.04-.18.05l.52-.07c-.06,0-.12,0-.18,0l.52.07c-.07-.01-.13-.03-.2-.05l.46.2c-.05-.02-.11-.05-.16-.09l.39.3s-.09-.08-.13-.13l.3.39s-.06-.09-.09-.15l.2.46c-.02-.05-.04-.12-.05-.17l.07.52c-.01-.08-.01-.15,0-.23l-.07.52c.01-.09.04-.17.07-.25l-.2.46c.03-.07.07-.14.12-.2l-.3.39c.05-.06.1-.12.16-.16l-.39.3c.05-.04.1-.07.16-.1l-.46.2c.08-.03.16-.05.24-.07l-.52.07c.09-.01.17,0,.26,0l-.52-.07c.09.01.18.04.27.07l-.46-.2c.09.04.16.09.24.14l-.39-.3c.06.05.12.1.16.16l-.3-.39c.05.06.09.13.12.2l-.2-.46c.03.07.05.13.05.21l-.07-.52c.01.08.01.16,0,.24l.07-.52c-.01.1-.04.19-.08.28l.2-.46c-.04.09-.08.16-.13.23l.3-.39c-.05.07-.12.13-.19.19l.39-.3c-.07.05-.13.09-.21.12l.46-.2c-.07.03-.13.05-.21.06l.52-.07c-.08.01-.16.01-.23,0l.52.07c-.08-.01-.15-.04-.23-.06l.46.2c-.08-.04-.16-.08-.23-.13l.39.3c-.07-.05-.13-.12-.19-.19l.3.39c-.06-.08-.11-.16-.15-.25l.2.46c-.03-.07-.05-.15-.06-.23l.07.52c0-.07,0-.14,0-.21l-.07.52c.01-.09.03-.16.07-.24l-.2.46c.03-.07.07-.13.11-.2l-.3.39c.05-.07.12-.13.2-.2l-.39.3c.07-.05.15-.1.24-.14l-.46.2c.08-.03.15-.05.24-.07l-.52.07c.07-.01.15-.01.22,0l-.52-.07c.07.01.14.03.21.05l-.46-.2c.07.03.12.06.18.1l-.39-.3c.06.05.12.1.16.16l-.3-.39c.05.07.1.14.13.22l-.2-.46c.04.09.06.18.07.27l-.07-.52c.01.08.01.15,0,.23l.07-.52c-.01.08-.03.15-.06.23l.2-.46c-.02.05-.05.11-.09.16l.3-.39c-.04.05-.09.1-.14.14l.39-.3c-.06.04-.12.09-.2.12l.46-.2c-.08.03-.16.05-.24.07l.52-.07c-.09.01-.18.01-.27,0l.52.07c-.07-.01-.15-.03-.21-.06l.46.2c-.06-.02-.12-.06-.17-.1l.39.3s-.09-.08-.13-.13l.3.39c-.04-.05-.07-.11-.1-.17l.2.46c-.02-.07-.04-.14-.05-.21l.07.52c-.01-.08,0-.16,0-.24l-.07.52c.01-.09.04-.17.07-.26l-.2.46c.03-.07.07-.13.11-.19l-.3.39s.09-.1.14-.14l-.39.3s.1-.07.15-.09l-.46.2h.02c.25-.07.48-.18.66-.35.21-.13.38-.32.5-.54.14-.23.22-.46.23-.72.05-.26.05-.52-.04-.77l-.2-.46c-.17-.29-.4-.52-.69-.69l-.46-.2c-.34-.09-.69-.09-1.03,0-.21.09-.44.15-.63.29-.17.12-.38.27-.53.44-.31.37-.55.73-.66,1.2-.05.23-.08.46-.1.69v.1c0,.2.04.41.08.62.01.07.03.13.05.19.07.19.16.45.29.63.27.37.57.73.99.93s.86.35,1.37.33.9-.13,1.37-.36c.2-.09.41-.29.55-.4.18-.15.32-.36.45-.54.13-.18.21-.41.29-.62.03-.07.05-.15.06-.23.04-.23.09-.48.07-.71s-.04-.49-.11-.73c-.16-.5-.36-.82-.7-1.21-.14-.16-.38-.32-.53-.43-.19-.14-.43-.22-.65-.3-.07-.02-.13-.04-.21-.05-.24-.04-.49-.09-.74-.07-.2.02-.49.04-.71.12s-.46.16-.66.29-.39.27-.56.43c-.02.02-.05.05-.08.08-.13.15-.26.32-.37.48-.02.03-.04.06-.05.1-.09.18-.16.37-.24.55-.08.22-.1.54-.12.74v.12c.01.2.04.41.08.61,0,.04.02.09.03.13.06.19.15.38.23.56.03.07.07.14.12.21.13.18.29.41.47.57.38.32.77.59,1.26.71s1.01.13,1.48,0,.84-.37,1.21-.7c.16-.15.32-.38.43-.54.05-.07.09-.13.13-.21.23-.47.35-.85.36-1.38v-.12c-.02-.2-.04-.41-.09-.6,0-.04-.02-.07-.03-.1-.07-.19-.15-.38-.24-.56-.1-.2-.29-.41-.41-.55-.15-.17-.37-.32-.54-.45-.05-.04-.12-.08-.18-.11-.21-.1-.43-.21-.66-.27s-.47-.08-.7-.1-.49.04-.73.07c-.07.01-.14.03-.21.05-.21.08-.46.16-.65.3-.4.28-.76.6-.98,1.05s-.38.91-.35,1.41c.01.24.03.49.1.72.03.09.08.2.12.28s.07.19.12.28c.02.04.04.07.06.1.12.16.26.38.43.52.1.09.31.26.47.35.17.1.37.16.55.24.15.06.29.07.46.09.4.05.52.04.97-.04.42-.07.91-.35,1.2-.67.15-.16.3-.34.4-.53.08-.16.16-.35.22-.53.01-.04.02-.07.02-.11.07-.47.13-.92-.04-1.38-.15-.4-.2-.5-.43-.8-.21-.27-.34-.41-.67-.62-.19-.12-.41-.21-.63-.26-.15-.02-.39-.07-.54-.07h-.04c-.1,0-.23.03-.3.04-.08.01-.21.02-.3.04-.02,0-.03.01-.05.02-.14.05-.35.13-.48.2-.03.02-.06.03-.09.05-.43.29-.52.41-.82.81-.27.37-.37.86-.4,1.3-.01.23.02.46.09.67.06.18.13.37.23.54.07.12.23.3.32.41.01.02.02.03.04.05.18.19.38.32.63.4.23.12.48.18.75.16.27.01.52-.04.75-.16.24-.08.45-.21.63-.4l.3-.39c.18-.3.26-.63.26-.98l-.07-.52c-.09-.33-.26-.62-.5-.86h0Z"/>
    <line class="cls-11" x1="115.03" y1="74.87" x2="115.03" y2="118"/>
    <line class="cls-11" x1="216.18" y1="74.87" x2="216.18" y2="99.48"/>
    <line class="cls-11" x1="317.8" y1="74.87" x2="317.8" y2="93.99"/>
    <g>
      <path class="cls-14" d="m422.61,45.84h.05c.13,0,.27.01.4.04.91.19,1.6.99,1.6,1.96v4.83h-43.97v-4.83c0-.12.01-.24.04-.36l.02-.1c.02-.09.05-.18.09-.26l.03-.07c.04-.1.1-.2.16-.29v-.03s.06-.05.06-.05c.05-.06.1-.12.15-.18l.09-.09c.07-.07.15-.13.23-.19l.03-.02.22-.12s.08-.05.12-.07c.17-.07.35-.12.54-.15.08-.01.16-.01.24-.01h.13s1.21.01,1.21.01h0s2.3-.01,2.3-.01h0s1.21.01,1.21.01h0s2.3-.01,2.3-.01h0s1.21.01,1.21.01h0s2.3-.01,2.3-.01h0s1.21.01,1.21.01h0s2.32-.01,2.32-.01h0s1.21.01,1.21.01h0s2.3-.01,2.3-.01h1.21s2.29,0,2.29,0h1.21s2.3,0,2.3,0h14.89"/>
      <path class="cls-9" d="m422.61,45.84h.05c.13,0,.27.01.4.04.91.19,1.6.99,1.6,1.96v4.83h-43.97v-4.83c0-.12.01-.24.04-.36l.02-.1c.02-.09.05-.18.09-.26l.03-.07c.04-.1.1-.2.16-.29v-.03s.06-.05.06-.05c.05-.06.1-.12.15-.18l.09-.09c.07-.07.15-.13.23-.19l.03-.02.22-.12s.08-.05.12-.07c.17-.07.35-.12.54-.15.08-.01.16-.01.24-.01h.13s1.21.01,1.21.01h0s2.3-.01,2.3-.01h0s1.21.01,1.21.01h0s2.3-.01,2.3-.01h0s1.21.01,1.21.01h0s2.3-.01,2.3-.01h0s1.21.01,1.21.01h0s2.32-.01,2.32-.01h0s1.21.01,1.21.01h0s2.3-.01,2.3-.01h1.21s2.29,0,2.29,0h1.21s2.3,0,2.3,0h14.89"/>
      <path class="cls-20" d="m381.58,46.18l-.03.02.03-.02Z"/>
      <path class="cls-20" d="m380.7,76.29c0,.27.05.54.16.77-.1-.24-.16-.5-.16-.77Z"/>
      <path class="cls-20" d="m424.33,77.39l-.04.05.04-.05Z"/>
      <path class="cls-20" d="m424.12,77.65l-.06.07.06-.07Z"/>
      <path class="cls-20" d="m382.71,78.28c-.28,0-.54-.05-.78-.16.24.1.51.16.78.16Z"/>
      <path class="cls-20" d="m423.74,77.97l.06-.04h.01l-.07.04h0Z"/>
      <path class="cls-20" d="m423.48,78.1l-.05.02.05-.02Z"/>
      <path class="cls-20" d="m381.04,77.4c.13.19.29.35.48.49l.07.05c-.21-.15-.4-.33-.54-.54h0Z"/>
      <path class="cls-20" d="m423.11,78.23h-.08s.08,0,.08,0Z"/>
      <path class="cls-9" d="m380.7,52.66v23.62c0,.27.05.54.16.77.05.12.11.23.18.34.15.21.33.4.54.54.11.07.22.13.34.18.24.1.51.16.78.16h39.96c.12,0,.24-.01.36-.04h.08c.11-.04.22-.07.32-.12l.05-.02c.09-.04.18-.09.26-.14l.07-.04c.09-.06.17-.13.25-.21l.06-.07c.07-.07.12-.14.18-.21l.04-.05h0c.21-.32.34-.69.34-1.1v-23.62m-42.21,1.46h40.55v22h-40.55v-22h0Z"/>
      <path class="cls-22" d="m383.44,48.39c.05,0,.1,0,.15-.02-.05.01-.1.02-.15.02Z"/>
      <path class="cls-22" d="m383.62,48.36s.09-.03.12-.05c-.04.02-.08.04-.12.05Z"/>
      <path class="cls-22" d="m383.97,48.06c-.05.1-.13.18-.22.24.09-.05.16-.14.22-.24Z"/>
      <path class="cls-22" d="m386.95,48.39c.05,0,.1,0,.15-.02-.05.01-.1.02-.15.02Z"/>
      <path class="cls-22" d="m387.13,48.36s.09-.03.12-.05c-.04.02-.08.04-.12.05Z"/>
      <path class="cls-22" d="m390.64,48.36s.09-.03.12-.05c-.04.02-.08.04-.12.05Z"/>
      <path class="cls-22" d="m390.99,48.06c-.05.1-.13.18-.22.24.09-.05.16-.14.22-.24Z"/>
      <path class="cls-22" d="m390.45,48.39c.05,0,.1,0,.15-.02-.05.01-.1.02-.15.02Z"/>
      <path class="cls-22" d="m394.15,48.36s.09-.03.12-.05c-.04.02-.08.04-.12.05Z"/>
      <path class="cls-22" d="m393.97,48.39c.05,0,.1,0,.15-.02-.05.01-.1.02-.15.02Z"/>
      <path class="cls-22" d="m393.57,48.25l-.08-.09.08.09Z"/>
      <path class="cls-22" d="m397.49,48.39c.05,0,.1,0,.15-.02-.05.01-.1.02-.15.02Z"/>
      <path class="cls-22" d="m397.68,48.36s.09-.03.12-.05c-.04.02-.08.04-.12.05Z"/>
      <path class="cls-22" d="m400.62,48.25l-.08-.09.08.09Z"/>
      <path class="cls-22" d="m401.19,48.36s.09-.03.12-.05c-.04.02-.08.04-.12.05Z"/>
      <path class="cls-22" d="m401,48.39c.05,0,.1,0,.15-.02-.05.01-.1.02-.15.02Z"/>
      <path class="cls-22" d="m404.51,48.39c.05,0,.1,0,.15-.02-.05.01-.1.02-.15.02Z"/>
      <path class="cls-22" d="m404.69,48.36s.09-.03.12-.05c-.04.02-.08.04-.12.05Z"/>
      <path class="cls-22" d="m408.2,48.36s.09-.03.12-.05c-.04.02-.08.04-.12.05Z"/>
      <path class="cls-22" d="m408.02,48.39c.05,0,.1,0,.15-.02-.05.01-.1.02-.15.02Z"/>
      <path class="cls-22" d="m411.51,48.39c.05,0,.1,0,.15-.02-.05.01-.1.02-.15.02Z"/>
      <path class="cls-22" d="m412.05,48.06c-.05.1-.13.18-.22.24.09-.05.16-.14.22-.24Z"/>
      <path class="cls-22" d="m411.7,48.36s.09-.03.12-.05c-.04.02-.08.04-.12.05Z"/>
      <path class="cls-22" d="m414.64,48.25l-.08-.09.08.09Z"/>
      <path class="cls-22" d="m415.02,48.39c.05,0,.1,0,.15-.02-.05.01-.1.02-.15.02Z"/>
      <path class="cls-22" d="m415.21,48.36s.09-.03.12-.05c-.04.02-.08.04-.12.05Z"/>
      <path class="cls-22" d="m419.03,48.06c-.05.1-.13.18-.22.24.09-.05.16-.14.22-.24Z"/>
      <path class="cls-22" d="m418.5,48.39c.05,0,.1,0,.15-.02-.05.01-.1.02-.15.02Z"/>
      <path class="cls-22" d="m418.69,48.36s.09-.03.12-.05c-.04.02-.08.04-.12.05Z"/>
      <path class="cls-22" d="m422.01,48.39c.05,0,.1,0,.15-.02-.05.01-.1.02-.15.02Z"/>
      <path class="cls-22" d="m421.62,48.25l-.08-.09.08.09Z"/>
      <path class="cls-22" d="m422.19,48.36s.09-.03.12-.05c-.04.02-.08.04-.12.05Z"/>
      <path class="cls-5" d="m383.44,44.6c-.07,0-.12.01-.18.03h0s-.1.04-.15.07c0,0-.01.01-.02.01-.05.04-.09.07-.12.12h0c-.03.05-.06.1-.08.16v.03c-.03.05-.04.11-.04.17v2.59c0,.33.27.6.6.6.05,0,.1,0,.15-.02h.04s.09-.04.12-.07h.01c.09-.07.16-.15.22-.24.04-.09.07-.17.07-.27v-2.59c0-.33-.27-.6-.6-.6h0Z"/>
      <path class="cls-5" d="m386.95,44.6c-.07,0-.12.01-.18.03h0s-.1.04-.15.07c0,0-.02.01-.02.01-.05.04-.09.07-.12.12h0c-.03.05-.06.1-.08.16v.03c-.03.05-.04.11-.04.17v2.59c0,.33.27.6.6.6.05,0,.1,0,.15-.02h.04s.09-.04.12-.07h.01s.09-.07.12-.11c0,0,0,0,0-.01.03-.04.06-.08.09-.12.04-.09.07-.17.07-.27v-2.59c0-.33-.27-.6-.6-.6h0Z"/>
      <path class="cls-5" d="m390.45,44.6c-.07,0-.12.01-.18.03h0s-.1.04-.15.07c0,0-.02.01-.02.01-.05.04-.09.07-.12.12h0c-.03.05-.06.1-.08.16v.03c-.03.05-.04.11-.04.17v2.59c0,.33.27.6.6.6.05,0,.1,0,.15-.02h.04s.09-.04.12-.07h.01c.09-.07.16-.15.22-.24.04-.09.07-.17.07-.27v-2.59c0-.33-.27-.6-.6-.6h0Z"/>
      <path class="cls-5" d="m393.97,44.6c-.07,0-.12.01-.18.03h0s-.1.04-.14.07c0,0-.02.01-.02.02-.05.04-.09.07-.12.12h0c-.04.05-.06.1-.08.16v.03c-.03.05-.04.11-.04.17v2.59c0,.15.05.27.14.38l.08.09c.1.09.24.15.38.15.05,0,.1,0,.15-.02h.04s.09-.04.12-.07h.01s.09-.07.12-.11h0s.06-.09.09-.13c.04-.09.07-.17.07-.27v-2.59c0-.33-.27-.6-.6-.6h0Z"/>
      <path class="cls-5" d="m397.49,44.6c-.07,0-.12.01-.18.03h0s-.1.04-.15.07c0,0-.01.01-.02.01-.05.04-.09.07-.12.12h0c-.03.05-.06.1-.08.16v.03c-.03.05-.04.11-.04.17v2.59c0,.33.27.6.6.6.05,0,.1,0,.15-.02h.04s.09-.04.12-.07h.01s.09-.07.12-.11c0,0,0,0,0-.01.03-.04.06-.08.09-.12.04-.09.07-.17.07-.27v-2.59c0-.33-.27-.6-.6-.6h0v.02Z"/>
      <path class="cls-5" d="m401,44.6c-.07,0-.12.01-.18.03h0s-.1.04-.15.07c0,0-.02.01-.02.02-.05.04-.09.07-.12.12h0c-.03.05-.06.1-.08.16v.03c-.03.05-.04.11-.04.17v2.59c0,.15.05.27.14.38l.08.09c.1.09.24.15.38.15.05,0,.1,0,.15-.02h.04s.09-.04.12-.07h.01s.09-.07.12-.11h0s.06-.09.09-.13c.04-.09.07-.17.07-.27v-2.59c0-.33-.27-.6-.6-.6h.01Z"/>
      <path class="cls-5" d="m404.51,44.6c-.07,0-.12.01-.18.03h0s-.1.04-.15.07c0,0-.02.01-.02.02-.05.04-.09.07-.12.12h0c-.03.05-.06.1-.08.16v.03c-.03.05-.04.12-.04.17v2.59c0,.33.27.6.6.6.05,0,.1,0,.15-.02h.04s.09-.04.12-.07h.01s.09-.07.12-.11h0s.06-.09.09-.13c.04-.09.07-.17.07-.27v-2.59c0-.33-.27-.6-.6-.6h.01Z"/>
      <path class="cls-5" d="m408.02,44.6c-.07,0-.12.01-.18.03h0s-.1.04-.15.07c0,0-.01.01-.02.01-.05.04-.09.07-.12.12h0c-.03.05-.06.1-.08.16v.03c-.03.05-.04.11-.04.17v2.59c0,.33.27.6.6.6.05,0,.1,0,.15-.02h.04s.09-.04.12-.07h.01s.09-.07.12-.11h0s.06-.09.09-.13c.04-.09.07-.17.07-.27v-2.59c0-.33-.27-.6-.6-.6h.01Z"/>
      <path class="cls-5" d="m411.51,44.6c-.07,0-.12.01-.18.03h0s-.1.04-.15.07c0,0-.02.01-.02.01-.05.04-.09.07-.12.12h0c-.03.05-.06.1-.08.16v.03c-.03.05-.04.11-.04.17v2.59c0,.33.27.6.6.6.05,0,.1,0,.15-.02h.04s.09-.04.12-.07h.01c.09-.07.16-.15.22-.24.04-.09.07-.17.07-.27v-2.59c0-.33-.27-.6-.6-.6h0Z"/>
      <path class="cls-5" d="m415.02,44.6c-.07,0-.12.01-.18.03h0s-.1.04-.15.07c0,0-.01.01-.02.01-.05.04-.09.07-.12.12h0c-.03.05-.06.1-.08.16v.03c-.03.05-.04.11-.04.17v2.59c0,.15.05.27.13.38l.08.09c.1.09.24.15.38.15.05,0,.1,0,.15-.02h.04s.09-.04.12-.07h.01s.09-.07.12-.11c0,0,0,0,0-.01.03-.04.06-.08.09-.12.04-.09.07-.17.07-.27v-2.59c0-.33-.27-.6-.6-.6h.01Z"/>
      <path class="cls-5" d="m418.5,44.6c-.07,0-.12.01-.18.03h0s-.1.04-.15.07c0,0-.01.01-.02.01-.05.04-.09.07-.12.12h0c-.03.05-.06.1-.08.16v.03c-.03.05-.04.11-.04.17v2.59c0,.33.27.6.6.6.05,0,.1,0,.15-.02h.04s.09-.04.12-.07h.01c.09-.07.16-.15.22-.24.04-.09.07-.17.07-.27v-2.59c0-.33-.27-.6-.6-.6h0Z"/>
      <path class="cls-5" d="m422.01,44.6c-.07,0-.12.01-.18.03h0s-.1.04-.15.07c0,0-.01.01-.02.01-.05.04-.09.07-.12.12h0c-.03.05-.06.1-.08.16v.03c-.03.05-.04.11-.04.17v2.59c0,.14.05.27.13.38l.08.09c.1.09.24.14.38.14.05,0,.1,0,.15-.02h.04s.09-.04.12-.07h.01s.09-.07.12-.11h0s.06-.09.09-.13c.04-.09.07-.17.07-.27v-2.59c0-.33-.27-.6-.6-.6h.02Z"/>
      <path class="cls-9" d="m417.34,76.12v-22"/>
      <path class="cls-9" d="m405.6,76.12v-22"/>
      <path class="cls-9" d="m411.46,76.12v-22"/>
      <path class="cls-9" d="m399.78,76.12v-22"/>
      <path class="cls-9" d="m393.94,76.12v-22"/>
      <path class="cls-9" d="m388.35,76.12v-22"/>
      <path class="cls-9" d="m422.83,65.21h-40.37"/>
      <path class="cls-9" d="m422.83,60.21h-40.37"/>
      <path class="cls-9" d="m422.92,70.21h-40.37"/>
      <path class="cls-9" d="m422.92,55.12h-40.37"/>
      <path class="cls-9" d="m422.87,75.24h-40.37"/>
      <path class="cls-19" d="m424.97,69.59v5.85c0,.15-.12.27-.28.27s-.28-.12-.28-.27v-5.85c0-.15.12-.27.28-.27s.28.12.28.27Z"/>
    </g>
    <g>
      <path class="cls-9" d="m239.58,101.1h-46.36v41.47h46.36v-41.47h0Z"/>
      <path class="cls-1" d="m210.54,128.09h-14.27v14.49h14.27v-14.49Z"/>
      <path class="cls-1" d="m203.4,128.09h-7.13v14.49h7.13v-14.49Z"/>
      <path class="cls-9" d="m201.77,108.55h-5.5v5.49h5.5v-5.49Z"/>
      <path class="cls-9" d="m210.54,108.55h-5.5v5.49h5.5v-5.49Z"/>
      <path class="cls-9" d="m219.11,108.55h-5.5v5.49h5.5v-5.49Z"/>
      <path class="cls-9" d="m227.75,108.55h-5.5v5.49h5.5v-5.49Z"/>
      <path class="cls-9" d="m236.38,108.55h-5.5v5.49h5.5v-5.49Z"/>
      <path class="cls-9" d="m219.11,116.35h-5.5v5.49h5.5v-5.49Z"/>
      <path class="cls-9" d="m227.75,116.35h-5.5v5.49h5.5v-5.49Z"/>
      <path class="cls-9" d="m236.38,116.35h-5.5v5.49h5.5v-5.49Z"/>
      <path class="cls-9" d="m219.11,124.14h-5.5v5.49h5.5v-5.49Z"/>
      <path class="cls-9" d="m227.75,124.14h-5.5v5.49h5.5v-5.49Z"/>
      <path class="cls-9" d="m236.38,124.14h-5.5v5.49h5.5v-5.49Z"/>
      <path class="cls-1" d="m239.58,101.1h-46.36v4.21h46.36v-4.21Z"/>
      <path class="cls-9" d="m201.91,134.79v1.85"/>
      <path class="cls-9" d="m204.9,134.79v1.85"/>
      <path class="cls-18" d="m205.09,116.41h-3.37v9.61h3.37v-9.61Z"/>
      <path class="cls-18" d="m198.59,119.53v3.36h9.63v-3.36h-9.63Z"/>
      <path class="cls-16" d="m197,111.98v-2.79h3.65v.92s-1.31-.43-2.07.38c-.76.81-.76,1.48-.76,1.48h-.83,0Z"/>
      <path class="cls-16" d="m205.87,111.98v-2.79h3.65v.92s-1.31-.43-2.07.38c-.76.81-.76,1.48-.76,1.48h-.83,0Z"/>
      <path class="cls-16" d="m214.31,111.98v-2.79h3.65v.92s-1.31-.43-2.07.38c-.76.81-.76,1.48-.76,1.48h-.83,0Z"/>
      <path class="cls-16" d="m223.01,111.98v-2.79h3.65v.92s-1.31-.43-2.07.38c-.76.81-.76,1.48-.76,1.48h-.83,0Z"/>
      <path class="cls-16" d="m231.65,111.98v-2.79h3.65v.92s-1.31-.43-2.07.38c-.76.81-.76,1.48-.76,1.48h-.83,0Z"/>
      <path class="cls-16" d="m214.31,119.83v-2.79h3.65v.92s-1.31-.43-2.07.38c-.76.81-.76,1.48-.76,1.48h-.83,0Z"/>
      <path class="cls-16" d="m223.01,119.83v-2.79h3.65v.92s-1.31-.43-2.07.38c-.76.81-.76,1.48-.76,1.48h-.83,0Z"/>
      <path class="cls-16" d="m231.65,119.83v-2.79h3.65v.92s-1.31-.43-2.07.38c-.76.81-.76,1.48-.76,1.48h-.83,0Z"/>
      <path class="cls-16" d="m214.31,127.67v-2.79h3.65v.92s-1.31-.43-2.07.38c-.76.81-.76,1.48-.76,1.48h-.83,0Z"/>
      <path class="cls-16" d="m223.01,127.67v-2.79h3.65v.92s-1.31-.43-2.07.38c-.76.81-.76,1.48-.76,1.48h-.83,0Z"/>
      <path class="cls-16" d="m231.65,127.67v-2.79h3.65v.92s-1.31-.43-2.07.38c-.76.81-.76,1.48-.76,1.48h-.83,0Z"/>
      <path class="cls-9" d="m219.11,132.05h-5.5v5.49h5.5v-5.49Z"/>
      <path class="cls-9" d="m227.75,132.05h-5.5v5.49h5.5v-5.49Z"/>
      <path class="cls-9" d="m236.38,132.05h-5.5v5.49h5.5v-5.49Z"/>
      <path class="cls-16" d="m214.31,135.58v-2.79h3.65v.92s-1.31-.43-2.07.38c-.76.81-.76,1.48-.76,1.48h-.83,0Z"/>
      <path class="cls-16" d="m223.01,135.58v-2.79h3.65v.92s-1.31-.43-2.07.38c-.76.81-.76,1.48-.76,1.48h-.83,0Z"/>
      <path class="cls-16" d="m231.65,135.58v-2.79h3.65v.92s-1.31-.43-2.07.38c-.76.81-.76,1.48-.76,1.48h-.83,0Z"/>
    </g>
  </g>
</svg>