<?xml version="1.0" encoding="UTF-8"?>
<svg id="Calque_1" data-name="Calque 1" xmlns="http://www.w3.org/2000/svg" viewBox="0 0 128 128.13">
  <defs>
    <style>
      .cls-1, .cls-2, .cls-3, .cls-4 {
        stroke: #000;
      }

      .cls-1, .cls-2, .cls-3, .cls-4, .cls-5 {
        stroke-linejoin: round;
      }

      .cls-1, .cls-2, .cls-4, .cls-5 {
        fill: none;
      }

      .cls-1, .cls-3, .cls-4, .cls-5 {
        stroke-linecap: round;
      }

      .cls-6 {
        fill: #bfe6fc;
      }

      .cls-7 {
        fill: #87ccf3;
      }

      .cls-3 {
        fill: #fff;
      }

      .cls-3, .cls-4 {
        stroke-width: 2px;
      }

      .cls-5 {
        stroke: #fff;
        stroke-width: 8px;
      }
    </style>
  </defs>
  <path class="cls-6" d="m78.93,109.48l-.13,2.78v6.91c0,1.1-.89,1.99-1.99,1.99h-4.55c0-1.85-1.5-3.35-3.35-3.35s-3.35,1.5-3.35,3.35h-6.47c0-1.85-1.5-3.35-3.35-3.35s-3.35,1.5-3.35,3.35h-4.56c-1.1,0-1.99-.89-1.99-1.99v-6.91l-.13-2.86c-.11-2.59-.17-5.18-.17-7.77,0-9.59.77-19.17,2.3-28.65l-1-16.74c-.68-3.13-1.01-6.31-1.01-9.49s.3-6.04.91-9.01l.1-.48-.64-3.92c-.26-1.62-.02-3.27.69-4.74.24-.49.49-.98.75-1.46h29.38c.24.46.48.93.71,1.4l.03.06c.71,1.47.95,3.13.69,4.74l-.64,3.92h-.01l.1.48c1.26,6.1,1.22,12.4-.1,18.5l-1,16.74.02.09c1.93,12.03,2.64,24.23,2.11,36.41Z"/>
  <path class="cls-4" d="m78.44,33.34l-.64,3.92h-30.97l-.64-3.92c-.26-1.61-.02-3.27.69-4.74h0c1.04-2.16,2.29-4.2,3.74-6.09,1.09-1.42,2.28-2.76,3.57-4,.05-.05.11-.1.16-.15.64-.64,1.09-1.48,1.26-2.42.05-.26.07-.53.07-.81,0-.04,0-.08,0-.12l.13-1.74h13.03l.13,1.86c0,.12,0,.25.02.37v.13c.12,1.05.58,1.98,1.28,2.69.08.09.17.17.26.24,2.96,2.88,5.4,6.26,7.2,9.98l.03.06c.71,1.47.95,3.13.69,4.74Z"/>
  <path class="cls-3" d="m77.8,56.24h-30.96c-1.32-6.09-1.35-12.39-.1-18.5l.1-.48h30.96l.1.48c1.26,6.11,1.22,12.41-.1,18.5h0Z"/>
  <polygon class="cls-4" points="76.8 72.98 47.84 72.98 46.84 56.24 77.8 56.24 76.8 72.98"/>
  <path class="cls-4" d="m78.93,109.48l-.13,2.78v6.91c0,1.1-.89,1.99-1.99,1.99h-4.55c0-1.85-1.5-3.35-3.35-3.35s-3.35,1.5-3.35,3.35h-6.47c0-1.85-1.5-3.35-3.35-3.35s-3.35,1.5-3.35,3.35h-4.56c-1.1,0-1.99-.89-1.99-1.99v-6.91l-.13-2.86c-.11-2.59-.17-5.18-.17-7.77,0-9.59.77-19.17,2.3-28.65h28.96l.02.09c1.93,12.03,2.64,24.23,2.11,36.41Z"/>
  <line class="cls-4" x1="54.28" y1="13.27" x2="70.36" y2="13.27"/>
  <rect class="cls-4" x="55.8" y="6.96" width="13.14" height="6.31"/>
  <line class="cls-2" x1="58.18" y1="6.96" x2="58.18" y2="13.52"/>
  <line class="cls-2" x1="60.3" y1="6.96" x2="60.3" y2="13.52"/>
  <line class="cls-2" x1="62.41" y1="6.96" x2="62.41" y2="13.52"/>
  <line class="cls-2" x1="64.52" y1="6.96" x2="64.52" y2="13.52"/>
  <line class="cls-2" x1="66.64" y1="6.96" x2="66.64" y2="13.52"/>
  <g>
    <line class="cls-1" x1="46.62" y1="83.97" x2="65.07" y2="83.97"/>
    <line class="cls-1" x1="69.87" y1="83.97" x2="78.23" y2="83.97"/>
    <line class="cls-1" x1="63.35" y1="100.33" x2="78.23" y2="100.33"/>
    <line class="cls-1" x1="46.62" y1="92.62" x2="62.88" y2="92.62"/>
    <line class="cls-1" x1="46.62" y1="100.33" x2="58.21" y2="100.33"/>
    <line class="cls-1" x1="74.4" y1="92.62" x2="78.23" y2="92.62"/>
    <line class="cls-1" x1="66.73" y1="92.62" x2="70.55" y2="92.62"/>
  </g>
  <path class="cls-7" d="m62.88,52.78c2.41,0,4.36-1.95,4.36-4.36s-4.36-7.7-4.36-7.7c0,0-4.36,5.29-4.36,7.7s1.95,4.36,4.36,4.36Z"/>
  <rect class="cls-5" x="-4770.8" y="-979.39" width="6467.34" height="6437.3"/>
</svg>