<?xml version="1.0" encoding="UTF-8"?>
<svg id="Calque_1" data-name="Calque 1" xmlns="http://www.w3.org/2000/svg" viewBox="0 0 462.6 160.02">
  <defs>
    <style>
      .cls-1 {
        fill: #fcd4ae;
      }

      .cls-1, .cls-2, .cls-3 {
        stroke: #010101;
      }

      .cls-1, .cls-2, .cls-3, .cls-4, .cls-5 {
        stroke-linecap: round;
        stroke-linejoin: round;
      }

      .cls-2 {
        fill: #fff;
      }

      .cls-3, .cls-4, .cls-5 {
        fill: none;
      }

      .cls-6 {
        fill: #010101;
      }

      .cls-7 {
        fill: #ed6d76;
      }

      .cls-8 {
        fill: #f5afb5;
      }

      .cls-9 {
        fill: #97cdab;
      }

      .cls-10 {
        fill: #cfaa57;
      }

      .cls-4 {
        stroke: #cfaa57;
        stroke-width: 2px;
      }

      .cls-5 {
        stroke: #fff;
        stroke-width: 8px;
      }
    </style>
  </defs>
  <rect class="cls-5" x="-5702.13" y="-2762.19" width="6467.34" height="6437.3"/>
  <g id="Titres_catégories" data-name="Titres catégories">
    <g>
      <path class="cls-3" d="m90.01,107.21c3.23-.34.92-3.86-3.97-6.93-4.89-3.07-6.11-7.35-9.87-18.81-3.74-11.46-6.84-13.05-6.84-13.05-6.27-4.01-12.12-7.42-3.58-9.79,8.54-2.37,3.58-13.05,3.58-13.05,0,0,1.62-3.22-.41-3.36-2.05-.14-2.51-2.3-2.51-2.3,0,0,4.85-13.63-11.6-17.64-16.44-4.01-24.25,9.33-25.47,17.84-1.19,8.51,3.31,17.08,16.91,19.78,0,0,1.77.71.6,3.77-1.17,3.07-9.24,1.8-13.57,12.1,0,0-7.62,22.45,2.95,30.95,0,0,8.22,3.72,11.52,7.04,3.29,3.33,8.4,7.35,7.45,4.74-.95-2.62-2.32-3.45-2.32-3.45"/>
      <path class="cls-3" d="m61.72,116.94c-.97-.73-1.92-2.79-4.49-3.97"/>
      <path class="cls-3" d="m61.04,112.95s-.03-.02-.04-.02"/>
      <path class="cls-3" d="m43.55,77.2s.79,14.89.07,21.29c0,0,1.14-.3,5.61,3.88.14.12.29.26.41.4"/>
      <path class="cls-3" d="m55.81,115.06s2.4,1.58,3.15,2.84"/>
      <path class="cls-3" d="m59.2,118.68c-.21,1.2-4.84-2.18-5.11-2.37"/>
      <path class="cls-3" d="m75.12,125.07c.44.23.92.56,1.45.93.33.23.66.48,1.06.77,6.78,5.15,3.96,12.67-3.48,7.64-7.44-5.04-37.37-.51-42.4-11.92s4.49-15.78,4.49-15.78"/>
      <path class="cls-3" d="m52.45,105.88h0"/>
      <path class="cls-2" d="m73.37,103.66s-5.29,4.76-20.91,2.22c-.84-1.02-1.77-2.09-2.82-3.11.9.05,19.04.86,22.57-2.25l.88,2.37.29.77h0s0,0,0,0Z"/>
      <path class="cls-3" d="m49.62,102.76h-.03"/>
      <path class="cls-2" d="m75.12,125.07c-4.22-2.5-4.44-.09-9.73-3.01l-6.18-3.39c.04-.23-.04-.5-.22-.77.22.16,3.23,2.24,2.73-.97.45.34.9.38,1.51,0,1.88-1.22-1.8-3.74-2.18-3.99,2.4,1.16,4.43-1.8-1.04-1.48-3.03.19-4.98-2.51-7.56-5.59,15.62,2.54,20.91-2.22,20.91-2.22,0,0,6.68,13.82,1.75,21.42h0Z"/>
      <path class="cls-3" d="m66.87,72.1s6.36,18.22,5.33,28.41"/>
      <path class="cls-3" d="m72.09,92.59l5.18,7.8s-.95,9.79,1.12,7.24c2.08-2.54,1.29-6.3,4.08-3.18,2.79,3.12,2.29,5.18,3.36,3.14,1.11-2.04-1.03-4.63-1.03-4.63"/>
      <path class="cls-3" d="m86.02,105.28s5.17,5.67,2.87.47l-1.81-2.79"/>
      <path class="cls-3" d="m73.08,102.89l3.96-1.29"/>
      <path class="cls-3" d="m76.55,126.01s2.22-1.86,4.13-4.61"/>
      <path class="cls-3" d="m79.27,127.68s-.85-1.19,3.01-1.72"/>
      <path class="cls-3" d="m85.11,99.6s13.68-3.47,12.39,6.33c-1.3,9.79-6.15,18.47-6.15,18.47"/>
      <path class="cls-3" d="m87.06,125.07s10.17-1.38,11.99-.18c1.3.86,3.75,11.17-17.46,8.28"/>
      <path class="cls-3" d="m80.35,126.27s.14-2.5.67-9.22c.54-6.72.79-6.97.79-6.97"/>
      <path class="cls-3" d="m85.34,110.36s-2.41-.68-4.27,7.45"/>
      <path class="cls-3" d="m46.88,48.27s-4.6,1.54-1.96,5.31c2.65,3.77,5,.45,5,.45"/>
      <path class="cls-6" d="m63.06,43.32c.6,0,1.07-.48,1.07-1.07s-.48-1.07-1.07-1.07-1.06.48-1.06,1.07.47,1.07,1.06,1.07Z"/>
      <path class="cls-3" d="m59.89,39.89s.3-2.76,3.17-2.59"/>
      <path class="cls-3" d="m49.92,79.45h1.4"/>
      <path class="cls-3" d="m63.07,78.3l1.36-.34"/>
      <path class="cls-3" d="m47.01,51.83l.9-.43"/>
      <path class="cls-3" d="m64.13,27.32s-4.07,9.28-12.81,9.98c0,0,1.78,5.37-4.73,7.12"/>
    </g>
    <g>
      <path class="cls-3" d="m389.25,105.99c3.09-.32.87-3.7-3.8-6.63-4.68-2.94-5.86-7.04-9.45-18-3.58-10.97-6.55-12.49-6.55-12.49-6-3.84-11.6-7.1-3.42-9.37,8.18-2.27,3.42-12.5,3.42-12.5,0,0,1.55-3.08-.4-3.21-1.96-.13-2.4-2.2-2.4-2.2,0,0,4.65-13.05-11.1-16.89-15.74-3.84-23.22,8.94-24.38,17.08-1.14,8.14,3.17,16.35,16.19,18.93,0,0,1.69.67.57,3.61-1.11,2.94-8.84,1.72-12.99,11.58,0,0-7.29,21.49,2.82,29.63,0,0,7.87,3.56,11.03,6.74,3.15,3.19,8.04,7.04,7.14,4.53-.9-2.51-2.22-3.3-2.22-3.3"/>
      <path class="cls-3" d="m362.17,115.31c-.94-.7-1.84-2.67-4.3-3.8"/>
      <path class="cls-3" d="m361.52,111.49s-.03-.02-.04-.02"/>
      <path class="cls-3" d="m344.77,77.26s.75,14.26.06,20.38c0,0,1.08-.29,5.37,3.71.14.12.27.25.4.38"/>
      <path class="cls-3" d="m356.51,113.52s2.29,1.51,3.02,2.71"/>
      <path class="cls-3" d="m359.76,116.98c-.2,1.15-4.63-2.09-4.89-2.27"/>
      <path class="cls-3" d="m374.99,123.1c.43.23.87.54,1.39.89.32.21.63.46,1.01.74,6.49,4.93,3.79,12.13-3.34,7.32-7.12-4.83-35.77-.49-40.59-11.41s4.3-15.11,4.3-15.11"/>
      <path class="cls-3" d="m353.3,104.73h0"/>
      <path class="cls-2" d="m373.32,102.59s-5.07,4.55-20.02,2.13c-.8-.97-1.69-2-2.7-2.97.86.04,18.23.83,21.61-2.16l.84,2.27.27.74h0s0-.01,0-.01Z"/>
      <path class="cls-3" d="m350.58,101.74h-.03"/>
      <path class="cls-2" d="m374.99,123.1c-4.05-2.39-4.25-.08-9.31-2.88l-5.92-3.25c.04-.21-.04-.48-.21-.73.21.15,3.09,2.14,2.61-.93.44.32.86.37,1.45,0,1.8-1.17-1.72-3.58-2.08-3.82,2.29,1.11,4.24-1.72-1-1.41-2.9.18-4.76-2.4-7.24-5.35,14.95,2.43,20.02-2.13,20.02-2.13,0,0,6.4,13.22,1.67,20.5h0Z"/>
      <path class="cls-3" d="m367.1,72.39s6.08,17.44,5.1,27.2"/>
      <path class="cls-3" d="m372.1,92l4.96,7.47s-.9,9.38,1.07,6.93c1.99-2.44,1.24-6.03,3.91-3.04,2.67,2.98,2.18,4.96,3.21,3.01,1.06-1.95-.98-4.43-.98-4.43"/>
      <path class="cls-3" d="m385.43,104.15s4.95,5.43,2.75.45l-1.74-2.68"/>
      <path class="cls-3" d="m373.04,101.86l3.79-1.24"/>
      <path class="cls-3" d="m376.37,123.99s2.13-1.78,3.95-4.41"/>
      <path class="cls-3" d="m378.97,125.6s-.81-1.14,2.88-1.64"/>
      <path class="cls-3" d="m384.56,98.72s13.1-3.32,11.86,6.05c-1.25,9.37-5.89,17.69-5.89,17.69"/>
      <path class="cls-3" d="m386.43,123.1s9.73-1.32,11.48-.18c1.25.82,3.59,10.69-16.72,7.93"/>
      <path class="cls-3" d="m380,124.24s.14-2.39.65-8.83c.51-6.44.75-6.67.75-6.67"/>
      <path class="cls-3" d="m384.79,109.01s-2.31-.65-4.09,7.13"/>
      <path class="cls-3" d="m347.95,49.58s-4.41,1.47-1.87,5.09c2.54,3.61,4.79.43,4.79.43"/>
      <path class="cls-6" d="m363.45,44.84c.57,0,1.03-.45,1.03-1.03s-.45-1.03-1.03-1.03-1.01.46-1.01,1.03.45,1.03,1.01,1.03Z"/>
      <path class="cls-3" d="m360.42,41.55s.29-2.64,3.03-2.48"/>
      <path class="cls-3" d="m350.86,79.43h1.34"/>
      <path class="cls-3" d="m363.46,78.32l1.3-.32"/>
      <path class="cls-3" d="m348.09,52.98l.86-.4"/>
      <path class="cls-8" d="m365.58,51.07s-3.31.37-2.65,2.28c0,0,.33.56,1.04.93.51.26,1.21.44,2.14.21,1.16-.27,1.72-1.11,1.74-1.88v-.02c.03-.97-.77-1.83-2.28-1.51h.01,0Z"/>
      <path class="cls-3" d="m364.48,29.52s-3.89,8.88-12.26,9.55c0,0,1.71,5.14-4.53,6.82"/>
      <path class="cls-7" d="m367.86,52.41s.01,0,0,.02c0,.78-.56,1.61-1.72,1.88-.94.23-1.64.06-2.16-.21,0,0,0-.01.01-.04,0-.02.03-.06.04-.11.04-.08.1-.21.21-.36.03-.05.06-.1.1-.15.06-.1.15-.21.26-.32.2-.21.47-.42.8-.57.07-.04.17-.08.26-.11.06-.04.14-.04.21-.06.51-.15,1.18-.19,1.98,0h0s0,.03,0,.03Z"/>
      <path class="cls-3" d="m365.58,51.07s-3.31.37-2.65,2.28c0,0,.33.56,1.04.93.51.26,1.21.44,2.14.21,1.16-.27,1.72-1.11,1.74-1.88v-.02c.03-.97-.77-1.83-2.28-1.51h.01,0Z"/>
      <path class="cls-2" d="m412.59,9.8v11.46c0,3.91-2.91,7.1-6.47,7.1h-12.93l-9.59,7.56v-7.56h-1.68c-3.56,0-6.47-3.19-6.47-7.1v-11.46c0-3.9,2.91-7.1,6.47-7.1h24.2c3.56,0,6.47,3.2,6.47,7.1Z"/>
      <path class="cls-2" d="m431.16,43.02v11.48c0,3.9-2.91,7.09-6.47,7.09h-24.2c-3.56,0-6.47-3.19-6.47-7.09v-1.38l-6.93-3.59,6.93-5.14v-1.37c0-3.9,2.91-7.1,6.47-7.1h24.2c3.56,0,6.47,3.2,6.47,7.1Z"/>
      <path class="cls-2" d="m438.16,77.91v11.46c0,3.9-2.92,7.1-6.47,7.1h-24.2c-3.56,0-6.47-3.2-6.47-7.1v-3.38l-10.32-9.84h10.53c.71-3.06,3.26-5.34,6.26-5.34h24.2c3.55,0,6.47,3.19,6.47,7.1h0Z"/>
      <path class="cls-9" d="m424.24,76.41h-11.15c-.92,0-1.66.74-1.66,1.65v11.14c0,.92.74,1.66,1.66,1.66h11.15c.92,0,1.66-.74,1.66-1.66v-11.14c0-.92-.74-1.65-1.66-1.65Z"/>
      <path class="cls-3" d="m425.9,82.49v6.34c0,1.12-.92,2.03-2.04,2.03h-10.41c-1.11,0-2.02-.92-2.02-2.03v-10.39c0-1.12.9-2.03,2.02-2.03h10.41"/>
      <path class="cls-3" d="m413.43,80.68l5.23,7.51,8.83-11.77"/>
      <path class="cls-7" d="m398.71,7.5h-9.37c-1.44,0-2.58,1.16-2.58,2.58v9.36c0,1.43,1.14,2.58,2.58,2.58h9.37c1.41,0,2.58-1.15,2.58-2.58v-9.36c0-1.42-1.16-2.58-2.58-2.58Z"/>
      <path class="cls-3" d="m401.29,13.61v6.38c0,1.12-.92,2.03-2.04,2.03h-10.45c-1.11,0-2.04-.92-2.04-2.03v-10.45c0-1.12.92-2.03,2.04-2.03h10.45"/>
      <path class="cls-3" d="m398.52,19.26l-8.85-8.96"/>
      <path class="cls-3" d="m389.65,19.26l8.85-8.96"/>
      <path class="cls-1" d="m409.11,41.47c-.3.26-.6.59-.84,1.01-.32.51-.56.95-.73,1.34-.81-.08-1.45-.78-1.44-1.62.01-.88.74-1.58,1.61-1.57.6,0,1.11.34,1.39.84h0Z"/>
      <path class="cls-1" d="m418.02,42.38c0,.83-.65,1.5-1.47,1.57-.17-.38-.37-.84-.68-1.36-.23-.43-.51-.77-.81-1.05.29-.48.8-.8,1.39-.78.89,0,1.58.73,1.57,1.62h0Z"/>
      <path class="cls-1" d="m406.48,52.94v.29h-.07c-.18-.07-.37-.1-.57-.1-.15,0-.3,0-.45.06-.04,0-.06.02-.1.02h-.3s-.63-.25-.48-2.07c.1-1.3,2.31-2.41,3.58-2.94.07.1.15.18.24.27-1.1,1.21-1.8,2.88-1.81,4.47h-.02Z"/>
      <path class="cls-1" d="m406.4,53.23h-1.13s.06-.04.1-.05c.15-.05.3-.06.45-.06.2,0,.4.04.57.11h0Z"/>
      <path class="cls-1" d="m418.99,53.42h-.27s-.06-.02-.09-.04c-.15-.05-.32-.07-.47-.07-.18,0-.37.02-.56.08h-.04v-.29c.01-1.64-.67-3.38-1.78-4.64.06-.06.1-.13.17-.19,1.21.55,3.5,1.75,3.58,3.09.09,1.82-.54,2.05-.54,2.05h.01,0Z"/>
      <path class="cls-1" d="m418.72,53.42h-1.11c.18-.09.37-.11.56-.11.15,0,.32.02.47.07.03,0,.06.02.09.04Z"/>
      <path class="cls-1" d="m409.85,57.41l-2.85.97c.77-.31,1.21-1.14,1.01-1.96.51.44,1.14.76,1.84.97h0Z"/>
      <path class="cls-1" d="m416.51,58.34l-2.26-.86.06-.07c.59-.19,1.11-.46,1.57-.81-.17.67.1,1.34.62,1.75h.01s0-.01,0-.01Z"/>
      <path class="cls-1" d="m417.57,53.12v.3c-.48.18-.87.57-1.03,1.09l-.32,1.08-.29.9s-.01.06-.01.1c-.45.34-1,.62-1.57.81-.73.24-1.52.34-2.37.33-.74,0-1.47-.12-2.1-.32-.71-.21-1.34-.55-1.85-.97v-.05l-.32-1.2-.21-.81c-.15-.52-.51-.92-.97-1.12v-.32c.03-1.59.71-3.25,1.81-4.47.12.13.26.25.4.37.37.32.86.58,1.44.76-.84.75-1.41,1.91-1.44,3.04-.03,1.85,1.47,2.87,3.31,2.89,1.85.02,3.36-.93,3.38-2.79.01-1.14-.53-2.37-1.4-3.14.57-.17,1.04-.44,1.41-.75.15-.12.27-.25.41-.38,1.11,1.26,1.81,3,1.78,4.64h-.07Z"/>
      <path class="cls-1" d="m415.38,52.74c-.03,1.85-1.54,2.82-3.39,2.79-1.84-.04-3.34-1.03-3.31-2.89.01-1.13.59-2.29,1.45-3.04.45.13.95.21,1.54.21.1,0,.21,0,.3-.02.09,0,.18.02.3.02.65.02,1.21-.06,1.69-.21.87.78,1.41,1.99,1.41,3.14h0Z"/>
      <path class="cls-1" d="m415.38,52.74c-.03,1.85-1.54,2.82-3.39,2.79-1.84-.04-3.34-1.03-3.31-2.89.01-1.13.59-2.29,1.45-3.04.45.13.95.21,1.54.21.1,0,.21,0,.3-.02.09,0,.18.02.3.02.65.02,1.21-.06,1.69-.21.87.78,1.41,1.99,1.41,3.14h0Z"/>
      <path class="cls-1" d="m407,58.39l-.2.07c-.89.24-1.83-.3-2.07-1.2l-.53-2.01c-.24-.87.24-1.77,1.08-2.05h1.11s.06.04.09.04c.47.21.81.59.97,1.12l.21.8.32,1.2v.04c.21.82-.23,1.66-1.01,1.96h.01s0,0,0,0Z"/>
      <path class="cls-1" d="m406.4,53.23h-1.13s.06-.04.1-.05c.15-.05.3-.06.45-.06.2,0,.4.04.57.11h0Z"/>
      <path class="cls-1" d="m419.76,55.5l-.6,1.99c-.27.89-1.21,1.41-2.1,1.13-.21-.06-.37-.15-.54-.27-.51-.4-.78-1.08-.62-1.75,0-.04.01-.06.03-.1l.27-.9.32-1.08c.17-.52.56-.93,1.04-1.09.01,0,.01-.01.04-.01h1.11c.83.32,1.3,1.24,1.04,2.1h0Z"/>
      <path class="cls-1" d="m418.72,53.42h-1.11c.18-.09.37-.11.56-.11.15,0,.32.02.47.07.03,0,.06.02.09.04Z"/>
      <path class="cls-1" d="m416.58,43.95c-.17-.38-.37-.84-.68-1.36-.24-.43-.51-.77-.81-1.05-1.33-1.21-2.98-1.08-2.98-1.08,0,0-1.64-.19-3.01,1-.3.26-.59.59-.84,1.01-.3.51-.54.95-.73,1.34-.6,1.32-.51,1.89-.51,1.89,0,0,.12,1.34,1.04,2.5.07.1.15.18.24.27.12.13.24.25.39.37.37.32.86.58,1.44.76.45.13.97.21,1.55.21.1,0,.2,0,.3-.02.09.01.18.02.29.02.67.02,1.22-.06,1.71-.21.57-.17,1.04-.44,1.41-.75.15-.12.27-.25.41-.38.06-.06.12-.13.17-.19.92-1.12,1.08-2.43,1.08-2.43,0,0,.1-.57-.47-1.91v-.02s0,.01,0,.01Zm-4.54,1.96c-.7,0-1.25-.29-1.25-.63s.57-.59,1.27-.58c.68.01,1.24.29,1.24.63s-.56.59-1.25.59h0Z"/>
      <path class="cls-6" d="m409.74,44.45c0,.26-.23.46-.48.46s-.47-.21-.47-.48.21-.46.48-.46c.26,0,.47.21.47.48Z"/>
      <path class="cls-6" d="m415.28,44.55c0,.26-.21.46-.47.46-.27,0-.47-.21-.47-.48s.21-.46.47-.46c.27,0,.47.21.47.48Z"/>
      <path class="cls-6" d="m413.29,45.33c0,.33-.56.59-1.25.59-.7-.01-1.25-.29-1.25-.63s.57-.59,1.27-.58c.68.01,1.24.29,1.24.63h0Z"/>
      <path class="cls-3" d="m411.97,49.79l.06-3.88"/>
    </g>
    <g>
      <path class="cls-3" d="m232.92,105.99c3.09-.32.87-3.7-3.8-6.63-4.68-2.94-5.86-7.04-9.45-18-3.58-10.97-6.55-12.49-6.55-12.49-6-3.84-11.6-7.1-3.42-9.37,8.18-2.27,3.42-12.5,3.42-12.5,0,0,1.55-3.08-.4-3.21-1.96-.13-2.4-2.2-2.4-2.2,0,0,4.65-13.05-11.1-16.89-15.74-3.84-23.22,8.94-24.38,17.08-1.14,8.14,3.17,16.35,16.19,18.93,0,0,1.69.67.57,3.61-1.11,2.94-8.84,1.72-12.99,11.58,0,0-7.29,21.49,2.82,29.63,0,0,7.87,3.56,11.03,6.74,3.15,3.19,8.04,7.04,7.14,4.53-.9-2.51-2.22-3.3-2.22-3.3"/>
      <path class="cls-3" d="m205.85,115.31c-.94-.7-1.84-2.67-4.3-3.8"/>
      <path class="cls-3" d="m205.2,111.49s-.03-.02-.04-.02"/>
      <path class="cls-3" d="m188.45,77.26s.75,14.26.06,20.38c0,0,1.08-.29,5.37,3.71.14.12.27.25.4.38"/>
      <path class="cls-3" d="m200.19,113.52s2.29,1.51,3.02,2.71"/>
      <path class="cls-3" d="m203.43,116.98c-.2,1.15-4.63-2.09-4.89-2.27"/>
      <path class="cls-3" d="m218.67,123.1c.43.23.87.54,1.39.89.32.21.63.46,1.01.74,6.49,4.93,3.79,12.13-3.34,7.32-7.12-4.83-35.77-.49-40.59-11.41-4.82-10.91,4.3-15.11,4.3-15.11"/>
      <path class="cls-3" d="m196.97,104.73h0"/>
      <path class="cls-2" d="m217,102.59s-5.07,4.55-20.02,2.13c-.8-.97-1.69-2-2.7-2.97.86.04,18.23.83,21.61-2.16l.84,2.27.27.74h0s0-.01,0-.01Z"/>
      <path class="cls-3" d="m194.26,101.74h-.03"/>
      <path class="cls-2" d="m218.67,123.1c-4.05-2.39-4.25-.08-9.31-2.88l-5.92-3.25c.04-.21-.04-.48-.21-.73.21.15,3.09,2.14,2.61-.93.44.32.86.37,1.45,0,1.8-1.17-1.72-3.58-2.08-3.82,2.29,1.11,4.24-1.72-1-1.41-2.9.18-4.76-2.4-7.24-5.35,14.95,2.43,20.02-2.13,20.02-2.13,0,0,6.4,13.22,1.67,20.5h0Z"/>
      <path class="cls-3" d="m210.78,72.39s6.08,17.44,5.1,27.2"/>
      <path class="cls-3" d="m215.77,92l4.96,7.47s-.9,9.38,1.07,6.93c1.99-2.44,1.24-6.03,3.91-3.04,2.67,2.98,2.18,4.96,3.21,3.01,1.06-1.95-.98-4.43-.98-4.43"/>
      <path class="cls-3" d="m229.11,104.15s4.95,5.43,2.75.45l-1.74-2.68"/>
      <path class="cls-3" d="m216.73,101.86l3.79-1.24"/>
      <path class="cls-3" d="m220.05,123.99s2.13-1.78,3.95-4.41"/>
      <path class="cls-3" d="m222.66,125.6s-.81-1.14,2.88-1.64"/>
      <path class="cls-3" d="m228.23,98.72s13.1-3.32,11.86,6.05c-1.25,9.37-5.89,17.69-5.89,17.69"/>
      <path class="cls-3" d="m230.1,123.1s9.73-1.32,11.48-.18c1.25.82,3.59,10.69-16.72,7.93"/>
      <path class="cls-3" d="m223.68,124.24s.14-2.39.65-8.83c.51-6.44.75-6.67.75-6.67"/>
      <path class="cls-3" d="m228.46,109.01s-2.31-.65-4.09,7.13"/>
      <path class="cls-3" d="m191.64,49.58s-4.41,1.47-1.87,5.09c2.54,3.61,4.79.43,4.79.43"/>
      <path class="cls-6" d="m207.13,44.84c.57,0,1.03-.45,1.03-1.03s-.45-1.03-1.03-1.03-1.01.46-1.01,1.03.45,1.03,1.01,1.03Z"/>
      <path class="cls-3" d="m204.1,41.55s.29-2.64,3.03-2.48"/>
      <path class="cls-3" d="m194.55,79.43h1.34"/>
      <path class="cls-3" d="m207.15,78.32l1.3-.32"/>
      <path class="cls-3" d="m191.77,52.98l.86-.4"/>
      <path class="cls-8" d="m209.26,51.07s-3.31.37-2.65,2.28c0,0,.33.56,1.04.93.51.26,1.21.44,2.14.21,1.16-.27,1.72-1.11,1.74-1.88v-.02c.03-.97-.77-1.83-2.28-1.51h.01,0Z"/>
      <path class="cls-3" d="m208.16,29.52s-3.89,8.88-12.26,9.55c0,0,1.71,5.14-4.53,6.82"/>
      <path class="cls-7" d="m211.54,52.41s.01,0,0,.02c0,.78-.56,1.61-1.72,1.88-.94.23-1.64.06-2.16-.21,0,0,0-.01.01-.04,0-.02.03-.06.04-.11.04-.08.1-.21.21-.36.03-.05.06-.1.1-.15.06-.1.15-.21.26-.32.2-.21.47-.42.8-.57.07-.04.17-.08.26-.11.06-.04.14-.04.21-.06.51-.15,1.18-.19,1.98,0h0s0,.03,0,.03Z"/>
      <path class="cls-3" d="m209.26,51.07s-3.31.37-2.65,2.28c0,0,.33.56,1.04.93.51.26,1.21.44,2.14.21,1.16-.27,1.72-1.11,1.74-1.88v-.02c.03-.97-.77-1.83-2.28-1.51h.01,0Z"/>
      <path class="cls-2" d="m243.47,19.03v7.51c0,2.57-1.91,4.65-4.24,4.65h-8.47l-6.29,4.96v-4.96h-1.1c-2.33,0-4.24-2.09-4.24-4.65v-7.51c0-2.56,1.91-4.65,4.24-4.65h15.86c2.33,0,4.24,2.1,4.24,4.65h0Z"/>
      <path class="cls-2" d="m256.2,46.65v7.51c0,2.56-1.92,4.65-4.24,4.65h-15.86c-2.33,0-4.24-2.1-4.24-4.65v-2.21l-6.77-6.45h6.9c.46-2.01,2.13-3.5,4.1-3.5h15.86c2.32,0,4.24,2.09,4.24,4.65h0Z"/>
      <path class="cls-9" d="m247.07,45.67h-7.31c-.6,0-1.08.48-1.08,1.08v7.3c0,.6.48,1.08,1.08,1.08h7.31c.6,0,1.08-.48,1.08-1.08v-7.3c0-.6-.48-1.08-1.08-1.08Z"/>
      <path class="cls-3" d="m248.16,49.66v4.16c0,.73-.6,1.33-1.33,1.33h-6.82c-.73,0-1.33-.6-1.33-1.33v-6.81c0-.73.59-1.33,1.33-1.33h6.82"/>
      <path class="cls-3" d="m239.99,48.47l3.43,4.92,5.78-7.72"/>
      <path class="cls-7" d="m234.37,17.53h-6.14c-.94,0-1.69.75-1.69,1.69v6.14c0,.93.75,1.69,1.69,1.69h6.14c.93,0,1.69-.75,1.69-1.69v-6.14c0-.93-.76-1.69-1.69-1.69Z"/>
      <path class="cls-3" d="m236.06,21.54v4.18c0,.73-.6,1.33-1.33,1.33h-6.85c-.73,0-1.33-.6-1.33-1.33v-6.85c0-.73.6-1.33,1.33-1.33h6.85"/>
      <path class="cls-3" d="m234.24,25.24l-5.81-5.88"/>
      <path class="cls-3" d="m228.44,25.24l5.81-5.88"/>
    </g>
    <g>
      <path class="cls-4" d="m444.64,145.64c2.68,1.75,7.23,4.3,10.06,5.83-3.39,2.06-5.7,3.94-9.1,6"/>
      <line class="cls-4" x1="13.44" y1="152.06" x2="451.08" y2="152.06"/>
    </g>
    <path class="cls-10" d="m231.13,150.85s-.04-.04-.06-.07l.42.54s-.04-.06-.06-.1l.27.64s-.03-.08-.04-.13l.1.71v-.16l-.1.71c0-.07.03-.12.05-.19l-.27.64c.03-.07.07-.14.12-.2l-.42.54c.04-.05.09-.1.15-.15l-.54.42s.1-.07.15-.09l-.64.27c.05-.02.1-.04.16-.04l-.71.1h.14l-.71-.1c.05,0,.1.02.14.04l-.64-.27c.05.02.1.05.15.09l-.54-.42s.08.07.12.12l-.42-.54c.04.06.08.12.11.19l-.27-.64c.03.07.05.15.06.22l-.1-.71c.01.09.01.18,0,.26l.1-.71c0,.07-.03.15-.06.22l.27-.64c-.03.06-.06.12-.1.17l.42-.54s-.08.09-.12.12l.54-.42c-.05.04-.1.07-.16.1l.64-.27c-.08.03-.15.05-.24.07l.71-.1c-.09,0-.17,0-.25,0l.71.1c-.1-.01-.19-.04-.28-.08l.64.27c-.08-.04-.15-.08-.22-.13l.54.42c-.07-.05-.12-.11-.18-.18l.42.54c-.04-.07-.08-.13-.12-.21l.27.64c-.03-.08-.05-.15-.07-.23l.1.71c-.01-.1-.01-.21,0-.32l-.1.71c.01-.12.05-.23.1-.34l-.27.64c.04-.1.1-.19.16-.28l-.42.54c.07-.09.14-.16.23-.23l-.54.42c.07-.05.15-.1.23-.13l-.64.27c.11-.04.22-.07.34-.09l-.71.1c.12-.01.23-.01.35,0l-.71-.1c.12.02.25.05.37.1l-.64-.27c.12.05.23.12.33.19l-.54-.42c.08.07.16.14.23.22l-.42-.54c.07.09.12.18.16.27l-.27-.64c.04.1.07.19.08.29l-.1-.71c.01.11.01.22,0,.33l.1-.71c-.02.13-.05.26-.11.39l.27-.64c-.05.12-.11.22-.19.32l.42-.54c-.07.1-.16.18-.26.26l.54-.42c-.09.07-.18.12-.29.17l.64-.27c-.1.04-.19.07-.29.08l.71-.1c-.11.01-.21.01-.32,0l.71.1c-.11-.01-.21-.04-.32-.09l.64.27c-.11-.05-.21-.11-.32-.18l.54.42c-.1-.07-.18-.16-.26-.26l.42.54c-.08-.11-.15-.22-.21-.34l.27.64c-.04-.1-.07-.21-.09-.32l.1.71c-.01-.1-.01-.2,0-.29l-.1.71c.01-.12.04-.23.09-.33l-.27.64c.04-.1.1-.18.15-.26l-.42.54c.08-.1.17-.19.26-.27l-.54.42c.1-.07.21-.14.32-.19l-.64.27c.1-.04.21-.07.33-.09l-.71.1c.1-.01.21-.01.3,0l-.71-.1c.1.01.2.04.29.07l-.64-.27c.09.04.17.09.25.15l-.54-.42c.09.07.16.14.23.23l-.42-.54c.07.1.13.2.18.31l-.27-.64c.05.12.09.24.1.37l-.1-.71c.01.11.01.21,0,.32l.1-.71c-.01.11-.04.21-.08.31l.27-.64c-.04.08-.08.15-.13.22l.42-.54c-.06.07-.12.14-.2.2l.54-.42c-.08.07-.18.12-.27.15l.64-.27c-.11.04-.22.07-.33.1l.71-.1c-.12.01-.25.01-.37,0l.71.1c-.1-.01-.2-.04-.3-.08l.64.27c-.09-.04-.16-.08-.24-.14l.54.42c-.07-.05-.12-.11-.18-.18l.42.54c-.05-.07-.1-.15-.13-.23l.27.64c-.04-.1-.06-.19-.07-.29l.1.71c-.01-.11-.01-.23,0-.34l-.1.71c.01-.12.05-.24.1-.35l-.27.64c.04-.1.1-.18.15-.26l-.42.54c.06-.07.12-.13.19-.19l-.54.42c.07-.05.13-.09.21-.12l-.64.27h.03c.35-.1.65-.26.91-.49.29-.19.52-.44.69-.75.2-.31.3-.64.32-1,.08-.36.07-.71-.05-1.07l-.27-.64c-.23-.4-.56-.73-.96-.96l-.64-.27c-.48-.12-.95-.12-1.42,0-.29.12-.61.21-.86.4-.24.17-.54.37-.73.61-.43.51-.75,1-.92,1.66-.08.31-.11.64-.13.95v.14c.01.28.07.57.11.85.01.09.04.18.07.26.1.26.22.62.4.88.37.51.78,1,1.38,1.28s1.19.48,1.88.46,1.23-.18,1.88-.5c.26-.13.56-.39.75-.55.24-.2.44-.5.62-.74.18-.26.29-.57.4-.86.04-.1.07-.2.08-.31.04-.31.12-.66.1-.98s-.05-.68-.15-1c-.22-.69-.5-1.14-.96-1.68-.2-.23-.52-.45-.73-.59-.26-.19-.6-.3-.89-.42-.1-.04-.19-.06-.29-.07-.33-.05-.67-.13-1.02-.1-.27.03-.67.05-.97.16s-.64.23-.92.4-.54.37-.77.6c-.04.04-.07.07-.1.11-.18.21-.36.43-.51.67-.03.04-.05.09-.08.13-.12.24-.23.51-.32.76-.11.31-.15.74-.16,1.02v.17c.01.28.06.56.11.84,0,.06.02.12.04.18.08.26.21.53.32.78.04.1.1.19.17.29.18.25.4.57.65.78.52.45,1.06.81,1.74.98s1.39.18,2.03-.01,1.16-.51,1.66-.97c.23-.21.45-.53.6-.74.07-.09.12-.18.18-.29.31-.65.48-1.17.5-1.91v-.17c-.03-.27-.06-.56-.12-.83,0-.05-.02-.1-.04-.15-.1-.26-.21-.53-.33-.78-.14-.27-.4-.56-.57-.77-.21-.24-.51-.45-.75-.62-.08-.06-.16-.11-.24-.15-.29-.15-.59-.29-.91-.37s-.65-.11-.97-.14-.67.05-1,.1c-.1.01-.2.04-.29.07-.29.1-.63.22-.89.41-.55.39-1.06.83-1.36,1.44s-.52,1.25-.48,1.94c.01.33.04.67.15.99.04.13.11.27.16.39s.1.26.16.39c.02.05.05.1.09.14.16.23.37.53.6.73.14.12.43.36.65.49.23.14.51.23.75.33.21.08.41.1.63.12.55.07.72.07,1.33-.04.59-.1,1.26-.49,1.66-.93.2-.22.41-.46.54-.73.11-.23.23-.49.31-.73.01-.05.02-.1.04-.15.1-.65.18-1.27-.07-1.91-.21-.56-.27-.69-.59-1.11-.29-.37-.48-.57-.92-.84-.26-.16-.56-.29-.86-.35-.2-.04-.54-.09-.74-.1h-.06c-.13,0-.32.04-.41.05-.11.01-.29.03-.43.06-.02,0-.04.01-.07.02-.2.07-.48.19-.67.28-.04.02-.08.04-.12.07-.59.4-.71.56-1.13,1.12-.37.51-.51,1.19-.54,1.8-.01.31.03.63.12.92.08.25.18.51.32.74.1.16.31.42.43.56.02.02.04.04.06.07.24.26.53.45.86.56.32.17.67.24,1.03.23.37.01.71-.07,1.03-.23.33-.11.62-.29.86-.56l.42-.54c.24-.42.37-.87.37-1.36l-.1-.71c-.12-.45-.36-.85-.69-1.18h.02Z"/>
    <path class="cls-10" d="m383.37,150.85s-.04-.04-.06-.07l.42.54s-.04-.06-.06-.1l.27.64s-.03-.08-.04-.13l.1.71v-.16l-.1.71c0-.07.03-.12.05-.19l-.27.64c.03-.07.07-.14.12-.2l-.42.54c.04-.05.09-.1.15-.15l-.54.42s.1-.07.15-.09l-.64.27c.05-.02.1-.04.16-.04l-.71.1h.14l-.71-.1c.05,0,.1.02.14.04l-.64-.27c.05.02.1.05.15.09l-.54-.42s.08.07.12.12l-.42-.54c.04.06.08.12.11.19l-.27-.64c.03.07.05.15.06.22l-.1-.71c.01.09.01.18,0,.26l.1-.71c0,.07-.03.15-.06.22l.27-.64c-.03.06-.06.12-.1.17l.42-.54s-.08.09-.12.12l.54-.42c-.05.04-.1.07-.16.1l.64-.27c-.08.03-.15.05-.24.07l.71-.1c-.09,0-.17,0-.25,0l.71.1c-.1-.01-.19-.04-.28-.08l.64.27c-.08-.04-.15-.08-.22-.13l.54.42c-.07-.05-.12-.11-.18-.18l.42.54c-.04-.07-.08-.13-.12-.21l.27.64c-.03-.08-.05-.15-.07-.23l.1.71c-.01-.1-.01-.21,0-.32l-.1.71c.01-.12.05-.23.1-.34l-.27.64c.04-.1.1-.19.16-.28l-.42.54c.07-.09.14-.16.23-.23l-.54.42c.07-.05.15-.1.23-.13l-.64.27c.11-.04.22-.07.34-.09l-.71.1c.12-.01.23-.01.35,0l-.71-.1c.12.02.25.05.37.1l-.64-.27c.12.05.23.12.33.19l-.54-.42c.08.07.16.14.23.22l-.42-.54c.07.09.12.18.16.27l-.27-.64c.04.1.07.19.08.29l-.1-.71c.01.11.01.22,0,.33l.1-.71c-.02.13-.05.26-.11.39l.27-.64c-.05.12-.11.22-.19.32l.42-.54c-.07.1-.16.18-.26.26l.54-.42c-.09.07-.18.12-.29.17l.64-.27c-.1.04-.19.07-.29.08l.71-.1c-.11.01-.21.01-.32,0l.71.1c-.11-.01-.21-.04-.32-.09l.64.27c-.11-.05-.21-.11-.32-.18l.54.42c-.1-.07-.18-.16-.26-.26l.42.54c-.08-.11-.15-.22-.21-.34l.27.64c-.04-.1-.07-.21-.09-.32l.1.71c-.01-.1-.01-.2,0-.29l-.1.71c.01-.12.04-.23.09-.33l-.27.64c.04-.1.1-.18.15-.26l-.42.54c.08-.1.17-.19.26-.27l-.54.42c.1-.07.21-.14.32-.19l-.64.27c.1-.04.21-.07.33-.09l-.71.1c.1-.01.21-.01.3,0l-.71-.1c.1.01.2.04.29.07l-.64-.27c.09.04.17.09.25.15l-.54-.42c.09.07.16.14.23.23l-.42-.54c.07.1.13.2.18.31l-.27-.64c.05.12.09.24.1.37l-.1-.71c.01.11.01.21,0,.32l.1-.71c-.01.11-.04.21-.08.31l.27-.64c-.04.08-.08.15-.13.22l.42-.54c-.06.07-.12.14-.2.2l.54-.42c-.08.07-.18.12-.27.15l.64-.27c-.11.04-.22.07-.33.1l.71-.1c-.12.01-.25.01-.37,0l.71.1c-.1-.01-.2-.04-.3-.08l.64.27c-.09-.04-.16-.08-.24-.14l.54.42c-.07-.05-.12-.11-.18-.18l.42.54c-.05-.07-.1-.15-.13-.23l.27.64c-.04-.1-.06-.19-.07-.29l.1.71c-.01-.11-.01-.23,0-.34l-.1.71c.01-.12.05-.24.1-.35l-.27.64c.04-.1.1-.18.15-.26l-.42.54c.06-.07.12-.13.19-.19l-.54.42c.07-.05.13-.09.21-.12l-.64.27h.03c.35-.1.65-.26.91-.49.29-.19.52-.44.69-.75.2-.31.3-.64.32-1,.08-.36.07-.71-.05-1.07l-.27-.64c-.23-.4-.56-.73-.96-.96l-.64-.27c-.48-.12-.95-.12-1.42,0-.29.12-.61.21-.86.4-.24.17-.54.37-.73.61-.43.51-.75,1-.92,1.66-.08.31-.11.64-.13.95v.14c.01.28.07.57.11.85.01.09.04.18.07.26.1.26.22.62.4.88.37.51.78,1,1.38,1.28s1.19.48,1.88.46,1.23-.18,1.88-.5c.26-.13.56-.39.75-.55.24-.2.44-.5.62-.74.18-.26.29-.57.4-.86.04-.1.07-.2.08-.31.04-.31.12-.66.1-.98s-.05-.68-.15-1c-.22-.69-.5-1.14-.96-1.68-.2-.23-.52-.45-.73-.59-.26-.19-.6-.3-.89-.42-.1-.04-.19-.06-.29-.07-.33-.05-.67-.13-1.02-.1-.27.03-.67.05-.97.16s-.64.23-.92.4-.54.37-.77.6c-.04.04-.07.07-.1.11-.18.21-.36.43-.51.67-.03.04-.05.09-.08.13-.12.24-.23.51-.32.76-.11.31-.15.74-.16,1.02v.17c.01.28.06.56.11.84,0,.06.02.12.04.18.08.26.21.53.32.78.04.1.1.19.17.29.18.25.4.57.65.78.52.45,1.06.81,1.74.98s1.39.18,2.03-.01,1.16-.51,1.66-.97c.23-.21.45-.53.6-.74.07-.09.12-.18.18-.29.31-.65.48-1.17.5-1.91v-.17c-.03-.27-.06-.56-.12-.83,0-.05-.02-.1-.04-.15-.1-.26-.21-.53-.33-.78-.14-.27-.4-.56-.57-.77-.21-.24-.51-.45-.75-.62-.08-.06-.16-.11-.24-.15-.29-.15-.59-.29-.91-.37s-.65-.11-.97-.14-.67.05-1,.1c-.1.01-.2.04-.29.07-.29.1-.63.22-.89.41-.55.39-1.06.83-1.36,1.44s-.52,1.25-.48,1.94c.01.33.04.67.15.99.04.13.11.27.16.39s.1.26.16.39c.02.05.05.1.09.14.16.23.37.53.6.73.14.12.43.36.65.49.23.14.51.23.75.33.21.08.41.1.63.12.55.07.72.07,1.33-.04.59-.1,1.26-.49,1.66-.93.2-.22.41-.46.54-.73.11-.23.23-.49.31-.73.01-.05.02-.1.04-.15.1-.65.18-1.27-.07-1.91-.21-.56-.27-.69-.59-1.11-.29-.37-.48-.57-.92-.84-.26-.16-.56-.29-.86-.35-.2-.04-.54-.09-.74-.1h-.06c-.13,0-.32.04-.41.05-.11.01-.29.03-.43.06-.02,0-.04.01-.07.02-.2.07-.48.19-.67.28-.04.02-.08.04-.12.07-.59.4-.71.56-1.13,1.12-.37.51-.51,1.19-.54,1.8-.01.31.03.63.12.92.08.25.18.51.32.74.1.16.31.42.43.56.02.02.04.04.06.07.24.26.53.45.86.56.32.17.67.24,1.03.23.37.01.71-.07,1.03-.23.33-.11.62-.29.86-.56l.42-.54c.24-.42.37-.87.37-1.36l-.1-.71c-.12-.45-.36-.85-.69-1.18h.02Z"/>
    <path class="cls-10" d="m78.89,150.85s-.04-.04-.06-.07l.42.54s-.04-.06-.06-.1l.27.64s-.03-.08-.04-.13l.1.71v-.16l-.1.71c0-.07.03-.12.05-.19l-.27.64c.03-.07.07-.14.12-.2l-.42.54c.04-.05.09-.1.15-.15l-.54.42s.1-.07.15-.09l-.64.27c.05-.02.1-.04.16-.04l-.71.1h.14l-.71-.1c.05,0,.1.02.14.04l-.64-.27c.05.02.1.05.15.09l-.54-.42s.08.07.12.12l-.42-.54c.04.06.08.12.11.19l-.27-.64c.03.07.05.15.06.22l-.1-.71c.01.09.01.18,0,.26l.1-.71c0,.07-.03.15-.06.22l.27-.64c-.03.06-.06.12-.1.17l.42-.54s-.08.09-.12.12l.54-.42c-.05.04-.1.07-.16.1l.64-.27c-.08.03-.15.05-.24.07l.71-.1c-.09,0-.17,0-.25,0l.71.1c-.1-.01-.19-.04-.28-.08l.64.27c-.08-.04-.15-.08-.22-.13l.54.42c-.07-.05-.12-.11-.18-.18l.42.54c-.04-.07-.08-.13-.12-.21l.27.64c-.03-.08-.05-.15-.07-.23l.1.71c-.01-.1-.01-.21,0-.32l-.1.71c.01-.12.05-.23.1-.34l-.27.64c.04-.1.1-.19.16-.28l-.42.54c.07-.09.14-.16.23-.23l-.54.42c.07-.05.15-.1.23-.13l-.64.27c.11-.04.22-.07.34-.09l-.71.1c.12-.01.23-.01.35,0l-.71-.1c.12.02.25.05.37.1l-.64-.27c.12.05.23.12.33.19l-.54-.42c.08.07.16.14.23.22l-.42-.54c.07.09.12.18.16.27l-.27-.64c.04.1.07.19.08.29l-.1-.71c.01.11.01.22,0,.33l.1-.71c-.02.13-.05.26-.11.39l.27-.64c-.05.12-.11.22-.19.32l.42-.54c-.07.1-.16.18-.26.26l.54-.42c-.09.07-.18.12-.29.17l.64-.27c-.1.04-.19.07-.29.08l.71-.1c-.11.01-.21.01-.32,0l.71.1c-.11-.01-.21-.04-.32-.09l.64.27c-.11-.05-.21-.11-.32-.18l.54.42c-.1-.07-.18-.16-.26-.26l.42.54c-.08-.11-.15-.22-.21-.34l.27.64c-.04-.1-.07-.21-.09-.32l.1.71c-.01-.1-.01-.2,0-.29l-.1.71c.01-.12.04-.23.09-.33l-.27.64c.04-.1.1-.18.15-.26l-.42.54c.08-.1.17-.19.26-.27l-.54.42c.1-.07.21-.14.32-.19l-.64.27c.1-.04.21-.07.33-.09l-.71.1c.1-.01.21-.01.3,0l-.71-.1c.1.01.2.04.29.07l-.64-.27c.09.04.17.09.25.15l-.54-.42c.09.07.16.14.23.23l-.42-.54c.07.1.13.2.18.31l-.27-.64c.05.12.09.24.1.37l-.1-.71c.01.11.01.21,0,.32l.1-.71c-.01.11-.04.21-.08.31l.27-.64c-.04.08-.08.15-.13.22l.42-.54c-.06.07-.12.14-.2.2l.54-.42c-.08.07-.18.12-.27.15l.64-.27c-.11.04-.22.07-.33.1l.71-.1c-.12.01-.25.01-.37,0l.71.1c-.1-.01-.2-.04-.3-.08l.64.27c-.09-.04-.16-.08-.24-.14l.54.42c-.07-.05-.12-.11-.18-.18l.42.54c-.05-.07-.1-.15-.13-.23l.27.64c-.04-.1-.06-.19-.07-.29l.1.71c-.01-.11-.01-.23,0-.34l-.1.71c.01-.12.05-.24.1-.35l-.27.64c.04-.1.1-.18.15-.26l-.42.54c.06-.07.12-.13.19-.19l-.54.42c.07-.05.13-.09.21-.12l-.64.27h.03c.35-.1.65-.26.91-.49.29-.19.52-.44.69-.75.2-.31.3-.64.32-1,.08-.36.07-.71-.05-1.07l-.27-.64c-.23-.4-.56-.73-.96-.96l-.64-.27c-.48-.12-.95-.12-1.42,0-.29.12-.61.21-.86.4-.24.17-.54.37-.73.61-.43.51-.75,1-.92,1.66-.08.31-.11.64-.13.95v.14c.01.28.07.57.11.85.01.09.04.18.07.26.1.26.22.62.4.88.37.51.78,1,1.38,1.28s1.19.48,1.88.46,1.23-.18,1.88-.5c.26-.13.56-.39.75-.55.24-.2.44-.5.62-.74.18-.26.29-.57.4-.86.04-.1.07-.2.08-.31.04-.31.12-.66.1-.98s-.05-.68-.15-1c-.22-.69-.5-1.14-.96-1.68-.2-.23-.52-.45-.73-.59-.26-.19-.6-.3-.89-.42-.1-.04-.19-.06-.29-.07-.33-.05-.67-.13-1.02-.1-.27.03-.67.05-.97.16s-.64.23-.92.4-.54.37-.77.6c-.04.04-.07.07-.1.11-.18.21-.36.43-.51.67-.03.04-.05.09-.08.13-.12.24-.23.51-.32.76-.11.31-.15.74-.16,1.02v.17c.01.28.06.56.11.84,0,.06.02.12.04.18.08.26.21.53.32.78.04.1.1.19.17.29.18.25.4.57.65.78.52.45,1.06.81,1.74.98s1.39.18,2.03-.01,1.16-.51,1.66-.97c.23-.21.45-.53.6-.74.07-.09.12-.18.18-.29.31-.65.48-1.17.5-1.91v-.17c-.03-.27-.06-.56-.12-.83,0-.05-.02-.1-.04-.15-.1-.26-.21-.53-.33-.78-.14-.27-.4-.56-.57-.77-.21-.24-.51-.45-.75-.62-.08-.06-.16-.11-.24-.15-.29-.15-.59-.29-.91-.37s-.65-.11-.97-.14-.67.05-1,.1c-.1.01-.2.04-.29.07-.29.1-.63.22-.89.41-.55.39-1.06.83-1.36,1.44s-.52,1.25-.48,1.94c.01.33.04.67.15.99.04.13.11.27.16.39s.1.26.16.39c.02.05.05.1.09.14.16.23.37.53.6.73.14.12.43.36.65.49.23.14.51.23.75.33.21.08.41.1.63.12.55.07.72.07,1.33-.04.59-.1,1.26-.49,1.66-.93.2-.22.41-.46.54-.73.11-.23.23-.49.31-.73.01-.05.02-.1.04-.15.1-.65.18-1.27-.07-1.91-.21-.56-.27-.69-.59-1.11-.29-.37-.48-.57-.92-.84-.26-.16-.56-.29-.86-.35-.2-.04-.54-.09-.74-.1h-.06c-.13,0-.32.04-.41.05-.11.01-.29.03-.43.06-.02,0-.04.01-.07.02-.2.07-.48.19-.67.28-.04.02-.08.04-.12.07-.59.4-.71.56-1.13,1.12-.37.51-.51,1.19-.54,1.8-.01.31.03.63.12.92.08.25.18.51.32.74.1.16.31.42.43.56.02.02.04.04.06.07.24.26.53.45.86.56.32.17.67.24,1.03.23.37.01.71-.07,1.03-.23.33-.11.62-.29.86-.56l.42-.54c.24-.42.37-.87.37-1.36l-.1-.71c-.12-.45-.36-.85-.69-1.18h.02Z"/>
  </g>
</svg>