<?xml version="1.0" encoding="UTF-8"?>
<svg id="Calque_1" data-name="Calque 1" xmlns="http://www.w3.org/2000/svg" viewBox="0 0 200 128">
  <defs>
    <style>
      .cls-1, .cls-2 {
        stroke: #000;
        stroke-miterlimit: 10;
      }

      .cls-3 {
        fill: #ff6d75;
      }

      .cls-4 {
        fill: none;
        stroke: #fff;
        stroke-linecap: round;
        stroke-linejoin: round;
        stroke-width: 8px;
      }

      .cls-2 {
        stroke-width: 2px;
      }
    </style>
  </defs>
  <line class="cls-1" x1="9.04" y1="56.41" x2="192.76" y2="56.41"/>
  <line class="cls-2" x1="8.58" y1="52.47" x2="8.58" y2="60.35"/>
  <line class="cls-2" x1="100.9" y1="52.47" x2="100.9" y2="60.35"/>
  <line class="cls-1" x1="27.05" y1="53.25" x2="27.05" y2="59.58"/>
  <line class="cls-1" x1="45.51" y1="53.25" x2="45.51" y2="59.58"/>
  <line class="cls-1" x1="63.97" y1="53.25" x2="63.97" y2="59.58"/>
  <line class="cls-1" x1="82.44" y1="53.25" x2="82.44" y2="59.58"/>
  <line class="cls-1" x1="119.37" y1="53.25" x2="119.37" y2="59.58"/>
  <line class="cls-1" x1="137.83" y1="53.25" x2="137.83" y2="59.58"/>
  <line class="cls-1" x1="156.29" y1="53.25" x2="156.29" y2="59.58"/>
  <line class="cls-1" x1="174.76" y1="53.25" x2="174.76" y2="59.58"/>
  <line class="cls-2" x1="193.22" y1="52.47" x2="193.22" y2="60.35"/>
  <path d="m10.29,44.27c.24.45.36,1.06.36,1.84,0,.74-.11,1.35-.33,1.83-.32.69-.84,1.04-1.56,1.04-.65,0-1.14-.28-1.46-.85-.27-.47-.4-1.11-.4-1.9,0-.62.08-1.15.24-1.59.3-.82.84-1.24,1.62-1.24.7,0,1.21.29,1.52.87Zm-.69,3.62c.21-.31.31-.9.31-1.75,0-.62-.08-1.12-.23-1.52s-.45-.6-.88-.6c-.4,0-.7.19-.88.57s-.28.93-.28,1.67c0,.55.06,1,.18,1.33.18.51.49.77.93.77.35,0,.64-.16.85-.47Z"/>
  <path d="m25.41,45.13v-.52c.49-.05.84-.13,1.03-.24s.34-.38.44-.8h.54v5.41h-.73v-3.84h-1.28Z"/>
  <path d="m62.34,48.45c-.29-.35-.43-.78-.43-1.29h.71c.03.35.1.61.2.77.18.29.5.43.96.43.36,0,.65-.1.86-.29s.33-.44.33-.74c0-.37-.11-.64-.34-.78s-.55-.22-.95-.22c-.05,0-.09,0-.14,0s-.09,0-.14,0v-.6c.07,0,.13.01.18.02s.1,0,.16,0c.25,0,.47-.04.63-.12.29-.14.43-.39.43-.76,0-.27-.1-.48-.29-.63s-.42-.22-.67-.22c-.45,0-.77.15-.94.45-.1.17-.15.4-.16.71h-.67c0-.4.08-.75.24-1.03.28-.51.77-.76,1.47-.76.55,0,.98.12,1.29.37s.45.6.45,1.07c0,.33-.09.6-.27.81-.11.13-.25.23-.43.3.29.08.51.23.67.45s.24.5.24.82c0,.52-.17.94-.51,1.27s-.83.49-1.45.49-1.11-.18-1.4-.53Z"/>
  <path d="m43.8,47.75c.17-.35.5-.66.98-.94l.73-.42c.33-.19.55-.35.69-.49.21-.21.31-.45.31-.72,0-.32-.09-.57-.28-.75s-.44-.28-.76-.28c-.47,0-.79.18-.97.53-.1.19-.15.45-.16.79h-.69c0-.47.09-.86.26-1.16.3-.53.82-.79,1.57-.79.62,0,1.08.17,1.36.5s.43.71.43,1.12c0,.43-.15.81-.46,1.11-.18.18-.49.4-.95.65l-.52.29c-.25.14-.44.27-.58.39-.25.22-.41.46-.48.73h2.96v.64h-3.73c.03-.47.12-.87.29-1.22Z"/>
  <path d="m82.17,48.98v-1.33h-2.38v-.67l2.49-3.45h.58v3.52h.8v.6h-.8v1.33h-.68Zm-.01-1.92v-2.46l-1.74,2.46h1.74Z"/>
  <path d="m99.84,47.45c.05.39.23.66.54.81.16.08.35.11.56.11.4,0,.7-.13.9-.39s.29-.54.29-.86c0-.38-.12-.67-.35-.88s-.51-.31-.83-.31c-.24,0-.44.05-.6.14s-.31.22-.43.38l-.59-.03.41-2.92h2.82v.66h-2.31l-.23,1.51c.13-.1.25-.17.36-.22.2-.08.44-.13.7-.13.5,0,.92.16,1.27.48s.52.73.52,1.22-.16.97-.48,1.36-.82.59-1.52.59c-.44,0-.83-.12-1.17-.37s-.53-.63-.57-1.15h.71Z"/>
  <path d="m120.88,43.85c.24.31.36.64.36.97h-.67c-.04-.21-.11-.38-.19-.5-.16-.23-.41-.34-.75-.34-.38,0-.69.18-.91.53s-.35.86-.38,1.51c.16-.23.35-.4.59-.52.22-.1.46-.15.73-.15.45,0,.85.15,1.19.44s.51.72.51,1.3c0,.49-.16.93-.48,1.31s-.78.57-1.37.57c-.51,0-.95-.19-1.32-.58s-.55-1.03-.55-1.95c0-.67.08-1.25.25-1.72.32-.9.89-1.35,1.73-1.35.61,0,1.03.16,1.27.47Zm-.51,4.15c.18-.24.27-.53.27-.85,0-.28-.08-.54-.24-.79s-.45-.38-.87-.38c-.29,0-.55.1-.77.29s-.33.49-.33.88c0,.34.1.63.3.87s.48.35.84.35.63-.12.81-.36Z"/>
  <path d="m139.72,43.64v.6c-.17.17-.41.46-.7.88s-.55.87-.77,1.36c-.22.47-.39.9-.5,1.29-.07.25-.17.65-.28,1.21h-.75c.17-1.04.55-2.07,1.14-3.09.35-.6.71-1.12,1.09-1.56h-3v-.69h3.78Z"/>
  <path d="m154.76,45.64c-.2-.2-.3-.46-.3-.79,0-.4.15-.75.44-1.04s.71-.44,1.25-.44.93.14,1.22.41.44.59.44.96c0,.34-.09.61-.26.82-.1.12-.25.24-.45.35.22.1.4.22.53.36.24.25.36.58.36.99,0,.48-.16.88-.48,1.22s-.77.5-1.36.5c-.53,0-.98-.14-1.34-.43s-.55-.7-.55-1.25c0-.32.08-.6.24-.83s.39-.41.7-.54c-.19-.08-.34-.18-.44-.28Zm2.2,2.46c.21-.17.31-.43.31-.76s-.11-.62-.32-.8-.49-.27-.83-.27-.59.09-.8.28-.31.44-.31.77c0,.28.09.53.28.73s.48.31.87.31c.32,0,.58-.09.79-.26Zm-.12-2.68c.17-.17.25-.37.25-.6,0-.2-.08-.39-.24-.56s-.41-.25-.74-.25-.57.08-.71.25-.22.37-.22.6c0,.26.09.45.28.6s.41.22.67.22c.3,0,.54-.08.71-.25Z"/>
  <path d="m173.6,47.51c.02.38.17.64.44.78.14.08.3.11.47.11.33,0,.6-.14.83-.41s.39-.82.49-1.66c-.15.24-.34.41-.56.51s-.46.15-.72.15c-.52,0-.94-.16-1.24-.49s-.46-.75-.46-1.26.15-.93.45-1.3.74-.56,1.33-.56c.79,0,1.34.36,1.64,1.07.17.39.25.88.25,1.47,0,.66-.1,1.25-.3,1.77-.33.85-.89,1.28-1.68,1.28-.53,0-.93-.14-1.21-.42s-.41-.63-.41-1.05h.69Zm1.78-1.38c.22-.18.34-.49.34-.93,0-.4-.1-.7-.3-.89s-.46-.29-.77-.29c-.33,0-.6.11-.79.34s-.29.52-.29.9c0,.35.09.64.26.84s.45.31.82.31c.27,0,.52-.09.74-.27Z"/>
  <g>
    <path d="m188.6,44.98v-.52c.49-.05.84-.13,1.03-.24s.34-.38.44-.8h.54v5.41h-.73v-3.84h-1.28Z"/>
    <path d="m195.8,44.27c.24.45.36,1.06.36,1.84,0,.74-.11,1.35-.33,1.83-.32.69-.84,1.04-1.56,1.04-.65,0-1.14-.28-1.46-.85-.27-.47-.4-1.11-.4-1.9,0-.62.08-1.15.24-1.59.3-.82.84-1.24,1.62-1.24.7,0,1.21.29,1.52.87Zm-.69,3.62c.21-.31.31-.9.31-1.75,0-.62-.08-1.12-.23-1.52s-.45-.6-.88-.6c-.4,0-.7.19-.88.57s-.28.93-.28,1.67c0,.55.06,1,.18,1.33.18.51.49.77.93.77.35,0,.64-.16.85-.47Z"/>
  </g>
  <circle class="cls-3" cx="27.05" cy="64.63" r="1.61"/>
  <g>
    <circle class="cls-3" cx="45.45" cy="64.63" r="1.61"/>
    <circle class="cls-3" cx="45.45" cy="69.83" r="1.61"/>
  </g>
  <g>
    <circle class="cls-3" cx="63.99" cy="64.63" r="1.61"/>
    <circle class="cls-3" cx="63.99" cy="69.83" r="1.61"/>
    <circle class="cls-3" cx="63.99" cy="75.04" r="1.61"/>
  </g>
  <g>
    <circle class="cls-3" cx="82.47" cy="64.63" r="1.61"/>
    <circle class="cls-3" cx="82.47" cy="70.01" r="1.61"/>
    <circle class="cls-3" cx="82.47" cy="75.4" r="1.61"/>
    <circle class="cls-3" cx="82.47" cy="80.78" r="1.61"/>
  </g>
  <g>
    <circle class="cls-3" cx="100.94" cy="64.63" r="1.61"/>
    <circle class="cls-3" cx="100.94" cy="69.88" r="1.61"/>
    <circle class="cls-3" cx="100.94" cy="75.13" r="1.61"/>
    <circle class="cls-3" cx="100.94" cy="80.38" r="1.61"/>
    <circle class="cls-3" cx="100.94" cy="85.63" r="1.61"/>
  </g>
  <g>
    <circle class="cls-3" cx="119.53" cy="64.63" r="1.61"/>
    <circle class="cls-3" cx="119.53" cy="69.8" r="1.61"/>
    <circle class="cls-3" cx="119.53" cy="74.97" r="1.61"/>
    <circle class="cls-3" cx="119.53" cy="80.14" r="1.61"/>
    <circle class="cls-3" cx="119.53" cy="85.31" r="1.61"/>
    <circle class="cls-3" cx="119.53" cy="90.48" r="1.61"/>
  </g>
  <g>
    <circle class="cls-3" cx="137.87" cy="64.63" r="1.61"/>
    <circle class="cls-3" cx="137.87" cy="69.75" r="1.61"/>
    <circle class="cls-3" cx="137.87" cy="74.87" r="1.61"/>
    <circle class="cls-3" cx="137.87" cy="79.98" r="1.61"/>
    <circle class="cls-3" cx="137.87" cy="85.1" r="1.61"/>
    <circle class="cls-3" cx="137.87" cy="90.22" r="1.61"/>
    <circle class="cls-3" cx="137.87" cy="95.33" r="1.61"/>
  </g>
  <g>
    <circle class="cls-3" cx="156.34" cy="64.63" r="1.61"/>
    <circle class="cls-3" cx="156.34" cy="69.71" r="1.61"/>
    <circle class="cls-3" cx="156.34" cy="74.79" r="1.61"/>
    <circle class="cls-3" cx="156.34" cy="79.87" r="1.61"/>
    <circle class="cls-3" cx="156.34" cy="84.95" r="1.61"/>
    <circle class="cls-3" cx="156.34" cy="90.03" r="1.61"/>
    <circle class="cls-3" cx="156.34" cy="95.11" r="1.61"/>
    <circle class="cls-3" cx="156.34" cy="100.18" r="1.61"/>
  </g>
  <g>
    <circle class="cls-3" cx="174.69" cy="64.63" r="1.61"/>
    <circle class="cls-3" cx="174.69" cy="69.68" r="1.61"/>
    <circle class="cls-3" cx="174.69" cy="74.73" r="1.61"/>
    <circle class="cls-3" cx="174.69" cy="79.78" r="1.61"/>
    <circle class="cls-3" cx="174.69" cy="84.83" r="1.61"/>
    <circle class="cls-3" cx="174.69" cy="89.88" r="1.61"/>
    <circle class="cls-3" cx="174.69" cy="94.93" r="1.61"/>
    <circle class="cls-3" cx="174.69" cy="99.99" r="1.61"/>
    <circle class="cls-3" cx="174.69" cy="105.04" r="1.61"/>
  </g>
  <g>
    <circle class="cls-3" cx="193.26" cy="64.63" r="1.61"/>
    <circle class="cls-3" cx="193.26" cy="69.66" r="1.61"/>
    <circle class="cls-3" cx="193.26" cy="74.69" r="1.61"/>
    <circle class="cls-3" cx="193.26" cy="79.72" r="1.61"/>
    <circle class="cls-3" cx="193.26" cy="84.75" r="1.61"/>
    <circle class="cls-3" cx="193.26" cy="89.77" r="1.61"/>
    <circle class="cls-3" cx="193.26" cy="94.8" r="1.61"/>
    <circle class="cls-3" cx="193.26" cy="99.83" r="1.61"/>
    <circle class="cls-3" cx="193.26" cy="104.86" r="1.61"/>
    <circle class="cls-3" cx="193.26" cy="109.89" r="1.61"/>
  </g>
  <rect class="cls-4" x="-5955.6" y="-383.94" width="6562.35" height="1176.7"/>
</svg>