<?xml version="1.0" encoding="UTF-8"?>
<svg id="Calque_1" data-name="Calque 1" xmlns="http://www.w3.org/2000/svg" viewBox="0 0 422.66 132.5">
  <defs>
    <style>
      .cls-1, .cls-2, .cls-3, .cls-4, .cls-5, .cls-6, .cls-7 {
        stroke-linecap: round;
        stroke-linejoin: round;
      }

      .cls-1, .cls-2, .cls-4, .cls-8, .cls-9, .cls-10 {
        stroke: #010101;
      }

      .cls-1, .cls-11, .cls-8 {
        fill: #89ccf2;
      }

      .cls-2, .cls-12, .cls-9 {
        fill: #fff;
      }

      .cls-3 {
        stroke: #222221;
      }

      .cls-3, .cls-4, .cls-5, .cls-6, .cls-7, .cls-10 {
        fill: none;
      }

      .cls-13 {
        fill: #cfaa57;
      }

      .cls-14 {
        fill: #222221;
      }

      .cls-5 {
        stroke-dasharray: 0 0 0 0 0 0 .35 7.09;
      }

      .cls-5, .cls-6 {
        stroke: #cfaa57;
      }

      .cls-8, .cls-9, .cls-10 {
        stroke-miterlimit: 10;
      }

      .cls-6 {
        stroke-width: 2px;
      }

      .cls-7 {
        stroke: #fff;
        stroke-width: 8px;
      }
    </style>
  </defs>
  <rect class="cls-7" x="-5553.15" y="-3337.66" width="6467.34" height="6437.3"/>
  <g id="Titres_catégories" data-name="Titres catégories">
    <path class="cls-2" d="m99.35,75.64c.65-.09,2.14.25,2.75.49,1.25.51,2.57,1.3,2.92,2.61.07.27.06.62-.19.75-.28.14-.57-.11-.8-.32-.41-.35-.9-.59-1.42-.71,1.05.53,1.97,1.3,2.69,2.22.25.32.47.76.22,1.08-.14.18-.39.24-.62.21-.23-.04-.43-.15-.63-.26-.45-.25-.9-.51-1.35-.76-.55-.31-1.11-.62-1.74-.72.92.53,1.73,1.27,2.32,2.16.04.06.09.14.06.21-.02.06-.08.1-.14.14-.57.28-1.23-.1-1.78-.41-.64-.37-1.33-.66-2.04-.87.49.33.95.72,1.35,1.17.16.18.32.37.35.6.04.24-.08.51-.31.57-.14.03-.28-.02-.41-.07-.62-.29-1.05-.91-1.68-1.19-.77-.34-1.67-.11-2.52-.21-.64-.08-1.27-.37-1.71-.84-.44-.47-.68-1.15-.58-1.79l5.23-4.05h.02Z"/>
    <path class="cls-12" d="m83.31,80.72c.68-.05,1.35.23,1.97.53,1.26.62,2.57,1.53,2.83,2.91.06.29.02.65-.25.76-.29.13-.58-.16-.81-.39-.39-.39-.89-.68-1.42-.84,1.04.62,1.95,1.49,2.62,2.5.23.35.41.83.15,1.14-.16.18-.42.22-.65.17s-.43-.19-.63-.31c-.45-.3-.9-.59-1.34-.89-.54-.37-1.11-.72-1.74-.88.92.61,1.7,1.44,2.24,2.4.04.07.08.15.06.22-.02.06-.09.1-.15.13-.6.25-1.25-.2-1.81-.56-.64-.42-1.33-.78-2.05-1.05.49.38.93.82,1.31,1.31.15.2.3.41.33.65.02.25-.12.52-.36.56-.14.02-.29-.03-.41-.1-.62-.35-1.03-1.02-1.66-1.35-.77-.41-1.72-.24-2.59-.4-.66-.13-1.29-.47-1.71-.99-.42-.53-.62-1.23-.47-1.89.02-.1.1-.24.21-.21"/>
    <path class="cls-4" d="m83.31,80.72c.68-.05,1.35.23,1.97.53,1.26.62,2.57,1.53,2.83,2.91.06.29.02.65-.25.76-.29.13-.58-.16-.81-.39-.39-.39-.89-.68-1.42-.84,1.04.62,1.95,1.49,2.62,2.5.23.35.41.83.15,1.14-.16.18-.42.22-.65.17s-.43-.19-.63-.31c-.45-.3-.9-.59-1.34-.89-.54-.37-1.11-.72-1.74-.88.92.61,1.7,1.44,2.24,2.4.04.07.08.15.06.22-.02.06-.09.1-.15.13-.6.25-1.25-.2-1.81-.56-.64-.42-1.33-.78-2.05-1.05.49.38.93.82,1.31,1.31.15.2.3.41.33.65.02.25-.12.52-.36.56-.14.02-.29-.03-.41-.1-.62-.35-1.03-1.02-1.66-1.35-.77-.41-1.72-.24-2.59-.4-.66-.13-1.29-.47-1.71-.99-.42-.53-.62-1.23-.47-1.89.02-.1.1-.24.21-.21"/>
    <path class="cls-8" d="m87.71,52.97c3.14,7.22,7.9,16.35,12.55,22.69-1.71,1.78-4.29,3.8-6.54,4.79-.77-.84-1.74-1.72-2.52-2.56-1.02-1.1-2.03-2.19-2.96-3.37-1.29-1.65-2.4-3.44-3.28-5.33,0,0-3.62-7.24-2.2-11.47,1.42-4.23,4.95-4.76,4.95-4.76Z"/>
    <path class="cls-8" d="m35.39,69.9c-2.28-1.14-5.02-1.33-7.44-.53-.6.2-1.2.47-1.6.97-.33-1.11-1.7-1.78-2.85-1.87-1.15-.09-2.28.34-3.29.91-1.01.57-1.93,1.27-2.95,1.81-1.13.59-2.36.97-3.62,1.11-1.01.11-2.13.12-2.85.83-.57.56-.71,1.44-.53,2.21.19.77.66,1.44,1.21,2.01,1.52,1.62,3.61,2.66,5.8,3.1,2.18.43,4.45.3,6.64-.17.51-.11,1.03-.25,1.56-.22.62.03,1.21.28,1.81.48,3.26,1.16,6.86,1.29,10.2.39,1.03-.28,2.06-.68,2.79-1.44.76-.79,1.12-1.89,1.27-2.98.26-1.83-.02-3.8-1.13-5.28-1.11-1.48-3.26-1.93-5.01-1.33h0Z"/>
    <path class="cls-8" d="m54.05,83.57c6.99,1.27,14.44-.11,20.51-3.8s10.72-9.68,12.79-16.48c1.01-3.31,1.41-9.42-.2-12.49l-18.59-1.14c-1.7,1.75-4.03,2.88-6.46,3.15-3.34.37-6.65-.87-10-1.1-5.96-.41-12.15,2.74-14.95,8.02-1.57,2.95-2.55,6.16-1.89,9.44.38,1.89.43,3.97,1.21,5.76.33.76.72,1.5.84,2.32.05.3,0,.68-.27.8-.25.11-.51-.05-.74-.19-2.79-1.72-6.47-1.85-9.37-.33-.42-.68-1.8-1.13-2.6-1.02-.79.11-1.5.52-2.2.92-2.75,1.59-5.52,3.18-8.29,4.78-.29.17-.59.35-.8.61-.54.74-.09,1.81.53,2.49,1.68,1.81,4.31,2.38,6.78,2.46,1.91.06,3.83-.12,5.66-.68,4.8,1.94,9.95,2.68,15.12,2.54,2.33-.06,4.69-.36,6.88-1.17,2.19-.82,4.21-2.2,5.52-4.15l.49-.74h.02Z"/>
    <path class="cls-11" d="m71.8,57.14c1.24,7.86,5.89,14.77,11.26,20.64.64.7,1.34,1.53,1.23,2.47-.08.65-.53,1.19-1.01,1.67-1.62,1.63-3.56,2.95-5.68,3.86-.29.13-.6.25-.92.21-.37-.04-.68-.33-1-.54-4.55-3.18-8.26-9.89-8.69-10.93-1.74-4.2-3.57-8.3-4.58-12.74"/>
    <path class="cls-10" d="m71.8,57.14c1.24,7.86,5.89,14.77,11.26,20.64.64.7,1.34,1.53,1.23,2.47-.08.65-.53,1.19-1.01,1.67-1.62,1.63-3.56,2.95-5.68,3.86-.29.13-.6.25-.92.21-.37-.04-.68-.33-1-.54-4.55-3.18-8.26-9.89-8.69-10.93-1.74-4.2-3.57-8.3-4.58-12.74"/>
    <path class="cls-9" d="m97.75,19.42c-6.23-10.49-18.85-9.18-18.85-9.18-19.22.33-21.43,17.5-21.63,23.33-1.04-.13-2.17.25-2.7,1.15-.18.29-.28.63-.37.96-.13.47-.23.93-.25,1.41-.06,1.61,1,3.19,2.5,3.76.83.32,1.75.3,2.6.02,2.72,5.85,7.69,10.67,13.8,12.74,7.9,2.7,17.35.48,22.91-5.74,2.7-3.02,4.46-6.85,4.99-10.87.79-5.95.06-12.42-3-17.58Z"/>
    <path class="cls-3" d="m83.05,39.65c.49-.24.84-.76.82-1.3-.02-.54-.43-1.06-.97-1.14-.29-.05-.59.03-.88.1"/>
    <path class="cls-14" d="m70.03,38.19c.64,0,1.15-.61,1.15-1.37s-.52-1.37-1.15-1.37-1.16.61-1.16,1.37.52,1.37,1.16,1.37Z"/>
    <path class="cls-14" d="m96.38,38.19c.64,0,1.16-.61,1.16-1.37s-.52-1.37-1.16-1.37-1.15.61-1.15,1.37.52,1.37,1.15,1.37Z"/>
    <path class="cls-2" d="m164.76,87c-.7.64-1.42,1.3-2.28,1.66-.88.37-1.96.39-2.71-.19-.33-.25-.58-.6-.8-.96-1.88-2.79-3.38-5.83-4.48-9.03-.3-.88-.51-2.01.18-2.61.5-.44,1.26-.38,1.91-.27,1.85.33,4.16,1.29,5.79,2.24l2.39,9.14h0Z"/>
    <path class="cls-12" d="m233.31,79.52c1.66-.88,4.4-1.92,6.27-2.17.66-.09,1.42-.1,1.9.35.68.64.41,1.76.08,2.62-1.23,3.14-2.87,6.11-4.86,8.83-.25.34-.5.68-.84.92-.77.54-1.85.48-2.71.07-.86-.41-1.54-1.09-2.21-1.77"/>
    <path class="cls-4" d="m233.31,79.52c1.66-.88,4.4-1.92,6.27-2.17.66-.09,1.42-.1,1.9.35.68.64.41,1.76.08,2.62-1.23,3.14-2.87,6.11-4.86,8.83-.25.34-.5.68-.84.92-.77.54-1.85.48-2.71.07-.86-.41-1.54-1.09-2.21-1.77"/>
    <path class="cls-1" d="m206.21,48.37c12.05-.21,11.26,17.28,11.26,17.28,1.15,2.22,1.84,4.67,2.01,7.16,4.79,1.52,9.89,3.74,14.33,6.09.22.11-.02,1.03-.09,1.27-.75,2.65-2.6,8.74-2.81,8.72-6.5-.73-12.97-1.7-19.43-2.67-9.03-1.37-27.21-.57-27.21-.57-6.5.78-13.01,1.4-19.53,1.86-.2.02-1.8-6.15-2.43-8.83-.06-.25-.26-1.16-.04-1.27,4.54-2.16,9.73-4.16,14.58-5.48.29-2.48,1.08-4.9,2.32-7.08,0,0-.96-16.48,13.05-16.48h14v-.02h0Z"/>
    <path class="cls-12" d="m202.43,78.95c-.59.5-1.18,1.02-1.77,1.52-.3.26-.63.58-.62.98,0,.38.36.7.72.8s.76.04,1.15-.02c-.24,1.39-2.11,1.98-2.39,3.36-.06.27-.02.6.2.76.21.15.48.12.72.07,1.15-.26,2.19-.98,2.84-1.96-.68.6-1.22,1.36-1.56,2.2-.1.25-.18.56-.02.78.1.13.26.2.41.22.55.07,1.05-.32,1.46-.71.62-.59,1.19-1.19,1.75-1.85,0,1.18-1.4,2.13-1.11,3.26.03.13.09.26.21.33.14.09.32.06.48,0,1.21-.37,2-1.5,2.69-2.56-.15.4-.3.79-.45,1.19-.1.27-.17.64.08.78.21.11.45-.04.62-.19,1.5-1.29,2.44-3.22,2.53-5.21"/>
    <path class="cls-4" d="m202.43,78.95c-.59.5-1.18,1.02-1.77,1.52-.3.26-.63.58-.62.98,0,.38.36.7.72.8s.76.04,1.15-.02c-.24,1.39-2.11,1.98-2.39,3.36-.06.27-.02.6.2.76.21.15.48.12.72.07,1.15-.26,2.19-.98,2.84-1.96-.68.6-1.22,1.36-1.56,2.2-.1.25-.18.56-.02.78.1.13.26.2.41.22.55.07,1.05-.32,1.46-.71.62-.59,1.19-1.19,1.75-1.85,0,1.18-1.4,2.13-1.11,3.26.03.13.09.26.21.33.14.09.32.06.48,0,1.21-.37,2-1.5,2.69-2.56-.15.4-.3.79-.45,1.19-.1.27-.17.64.08.78.21.11.45-.04.62-.19,1.5-1.29,2.44-3.22,2.53-5.21"/>
    <path class="cls-12" d="m194.48,79.02c.59.5,1.18,1.02,1.77,1.52.3.26.63.58.62.98,0,.38-.36.7-.72.8-.37.1-.76.04-1.15-.02.24,1.39,2.11,1.98,2.39,3.36.06.27.02.6-.2.76-.21.15-.48.12-.72.07-1.15-.26-2.19-.98-2.84-1.96.68.6,1.22,1.36,1.56,2.2.1.25.18.57.02.78-.1.13-.26.2-.41.22-.55.07-1.05-.32-1.46-.71-.62-.59-1.19-1.19-1.75-1.85,0,1.18,1.4,2.13,1.11,3.26-.03.13-.09.26-.21.33-.14.09-.32.06-.48,0-1.21-.37-2-1.5-2.69-2.56.15.4.3.79.45,1.19.1.27.18.64-.08.78-.21.11-.45-.04-.62-.19-1.5-1.29-2.44-3.22-2.53-5.21"/>
    <path class="cls-4" d="m194.48,79.02c.59.5,1.18,1.02,1.77,1.52.3.26.63.58.62.98,0,.38-.36.7-.72.8-.37.1-.76.04-1.15-.02.24,1.39,2.11,1.98,2.39,3.36.06.27.02.6-.2.76-.21.15-.48.12-.72.07-1.15-.26-2.19-.98-2.84-1.96.68.6,1.22,1.36,1.56,2.2.1.25.18.57.02.78-.1.13-.26.2-.41.22-.55.07-1.05-.32-1.46-.71-.62-.59-1.19-1.19-1.75-1.85,0,1.18,1.4,2.13,1.11,3.26-.03.13-.09.26-.21.33-.14.09-.32.06-.48,0-1.21-.37-2-1.5-2.69-2.56.15.4.3.79.45,1.19.1.27.18.64-.08.78-.21.11-.45-.04-.62-.19-1.5-1.29-2.44-3.22-2.53-5.21"/>
    <path class="cls-11" d="m185.12,49c-3.8.92-6.38,5.65-6.3,8.94.21,8.72,2.54,17.4,6.77,25.03,2.88-1.11,6.11-2.17,8.75-3.76.35-.21.72-.45.85-.84.11-.35,0-.72-.12-1.07-1.19-3.56-2.39-7.12-3.58-10.67-.97-2.89-1.95-5.83-2.09-8.88"/>
    <path class="cls-4" d="m185.12,49c-3.8.92-6.38,5.65-6.3,8.94.21,8.72,2.54,17.4,6.77,25.03,2.88-1.11,6.11-2.17,8.75-3.76.35-.21.72-.45.85-.84.11-.35,0-.72-.12-1.07-1.19-3.56-2.39-7.12-3.58-10.67-.97-2.89-1.95-5.83-2.09-8.88"/>
    <path class="cls-11" d="m211.79,48.93c3.8.92,6.38,5.65,6.3,8.94-.21,8.72-2.54,17.4-6.77,25.03-2.88-1.11-6.11-2.17-8.75-3.76-.35-.21-.72-.45-.85-.84-.11-.35,0-.72.12-1.07,1.19-3.56,2.39-7.12,3.59-10.67.96-2.89,1.95-5.83,2.09-8.88"/>
    <path class="cls-4" d="m211.79,48.93c3.8.92,6.38,5.65,6.3,8.94-.21,8.72-2.54,17.4-6.77,25.03-2.88-1.11-6.11-2.17-8.75-3.76-.35-.21-.72-.45-.85-.84-.11-.35,0-.72.12-1.07,1.19-3.56,2.39-7.12,3.59-10.67.96-2.89,1.95-5.83,2.09-8.88"/>
    <path class="cls-9" d="m223.19,36.03c-.09-.33-.19-.67-.36-.96-.59-1-1.93-1.37-3.06-1.09-.14.03-.3.09-.46.14.22-5.09-.71-10.33-3.28-14.66-6.26-10.54-18.94-9.21-18.94-9.21-19.3.33-21.52,17.58-21.72,23.43-1.04-.13-2.18.25-2.71,1.15-.18.29-.28.63-.36.96-.12.46-.23.93-.25,1.42-.06,1.61,1,3.2,2.52,3.78.83.32,1.76.3,2.6.02,2.73,5.88,7.74,10.71,13.86,12.8,7.93,2.71,17.42.48,23.01-5.76,1.79-2,3.15-4.36,4.04-6.88.9.37,1.94.41,2.86.06,1.51-.58,2.57-2.17,2.52-3.78-.02-.48-.12-.95-.25-1.42h-.03Z"/>
    <path class="cls-14" d="m187.71,37.83c0,.68-.47,1.24-1.05,1.24s-1.05-.55-1.05-1.24.47-1.24,1.05-1.24,1.05.56,1.05,1.24Z"/>
    <path class="cls-14" d="m211.59,37.83c0,.68-.47,1.24-1.05,1.24s-1.05-.55-1.05-1.24.47-1.24,1.05-1.24,1.05.56,1.05,1.24Z"/>
    <path class="cls-3" d="m198.99,41.88c.55-.27.96-.87.93-1.49s-.49-1.21-1.11-1.3c-.33-.05-.68.03-1,.12"/>
    <path class="cls-11" d="m339.03,39.76c1.7-.54,6.07-2,10.48-3.8l4.55,8.1c-2.61,2.45-5.41,4.82-7.87,6.39l.51,11.57c.68,9,2.11,22.83,1.59,29.15l-6.9,3.85c-2.4-4.27-7.24-13.04-10.52-19.76-5.21,1.11-8.28-.08-8.29-.09-1.32,7.4-3.45,16.5-4.5,20.74l-7.72-2.1c-3.09-7.54-2.95-25.39-1.86-32.74.42-3.91,2.01-10.2,2.01-10.2-2.72-1.73-5.78-4.42-8.53-7.11l5.81-7c4.07,1.63,8.07,2.78,9.97,2.68"/>
    <path class="cls-4" d="m339.03,39.76c1.7-.54,6.07-2,10.48-3.8l4.55,8.1c-2.61,2.45-5.41,4.82-7.87,6.39l.51,11.57c.68,9,2.11,22.83,1.59,29.15l-6.9,3.85c-2.4-4.27-7.24-13.04-10.52-19.76-5.21,1.11-8.28-.08-8.29-.09-1.32,7.4-3.45,16.5-4.5,20.74l-7.72-2.1c-3.09-7.54-2.95-25.39-1.86-32.74.42-3.91,2.01-10.2,2.01-10.2-2.72-1.73-5.78-4.42-8.53-7.11l5.81-7c4.07,1.63,8.07,2.78,9.97,2.68"/>
    <path class="cls-2" d="m349.59,27.97c-.07-.28-.15-.56-.3-.81-.49-.84-1.62-1.15-2.58-.92-.12.03-.26.07-.41.13.19-4.29-.58-8.72-2.75-12.37-5.29-8.89-15.98-7.78-15.98-7.78-16.29.27-18.16,14.84-18.32,19.77-.88-.1-1.84.21-2.28.97-.15.25-.23.53-.3.81-.1.4-.2.79-.21,1.2-.05,1.36.84,2.71,2.12,3.18.7.26,1.49.25,2.19.02,2.3,4.96,6.52,9.03,11.69,10.79,6.69,2.28,14.7.41,19.41-4.86,1.5-1.68,2.66-3.68,3.41-5.8.76.3,1.64.34,2.41.06,1.27-.49,2.17-1.83,2.12-3.18-.02-.41-.1-.8-.21-1.2h-.02.02Z"/>
    <path class="cls-2" d="m353.53,93.77c-.8.85-1.81,1.47-2.81,2.03-1.53.85-3.1,1.62-4.7,2.29-.83.34-1.81.66-2.52.21-.28-.18-.48-.45-.66-.72-.08-.12-.63-1.07-1.47-2.56l6.9-3.85c1.58.07,3.11.33,4.64.64.46.1,1,.27,1.11.74.11.43-.18.87-.49,1.21h0Z"/>
    <path class="cls-2" d="m318.06,95.93c-.33,1.38-.56,2.24-.6,2.37-.1.31-.21.63-.42.88-.55.64-1.58.64-2.46.57-1.74-.17-3.45-.42-5.17-.77-1.12-.23-2.27-.51-3.29-1.08-.41-.23-.82-.57-.84-1-.03-.48.42-.8.83-1.03,1.36-.77,2.75-1.48,4.23-2.03l7.72,2.1h0Z"/>
    <path class="cls-4" d="m301.97,43.77c-4.59-4.49-8.35-8.97-8.35-8.97-1-.6-1.85-1.46-2.49-2.48-.31-.5-.58-1.12-.36-1.69.02-.06.06-.12.11-.16.1-.05.22.06.29.17.22.33.45.65.68.99-.26-.37-.53-.76-.64-1.22-.1-.45-.03-1,.31-1.3.22.41.49.78.8,1.1-.43-.45-.6-1.15-.46-1.78.03-.13.08-.27.19-.33.19-.1.4.06.54.22.33.39.62.81.85,1.27-.26-.41-.44-.88-.51-1.37-.03-.21-.04-.45.04-.64s.29-.36.49-.32c.1.02.2.1.28.18.58.56.88,1.39,1.35,2.05.06.08.14.18.24.18.08,0,.15-.06.2-.12.21-.25.27-.62.41-.93.15-.31.49-.58.77-.42.2.11.25.37.28.61.07.64.18,1.22.03,1.85,1.93,2.01,6.38,4.35,10.75,6.11l-5.81,7v.02h0Z"/>
    <path class="cls-4" d="m354.05,44.06c5.06-4.76,9.46-9.82,9.46-9.82,1-.6,1.85-1.46,2.49-2.48.31-.5.58-1.12.36-1.69-.02-.06-.06-.12-.11-.16-.1-.05-.22.06-.29.17-.22.33-.45.65-.68.99.26-.37.53-.76.64-1.22.1-.45.03-1-.31-1.3-.21.41-.49.78-.8,1.1.43-.45.6-1.15.46-1.78-.03-.13-.08-.27-.19-.33-.19-.1-.4.06-.54.22-.33.38-.62.81-.85,1.27.26-.41.44-.88.51-1.37.03-.21.04-.45-.04-.64-.08-.2-.29-.36-.49-.32-.1.02-.2.1-.28.18-.58.56-.88,1.39-1.35,2.05-.06.08-.14.18-.24.18-.08,0-.15-.06-.2-.12-.21-.25-.27-.62-.41-.93-.15-.31-.49-.58-.77-.42-.2.11-.25.38-.28.61-.07.64-.18,1.22-.03,1.85-1.85,1.93-6.24,4.06-10.6,5.84"/>
    <path class="cls-14" d="m317.94,27.19c0,.64-.45,1.15-.99,1.15s-.99-.52-.99-1.15.45-1.15.99-1.15.99.52.99,1.15Z"/>
    <path class="cls-14" d="m340.25,27.19c0,.64-.45,1.15-.99,1.15s-.99-.52-.99-1.15.45-1.15.99-1.15.99.52.99,1.15Z"/>
    <path class="cls-3" d="m328.48,30.97c.52-.25.89-.81.87-1.39-.02-.57-.47-1.13-1.03-1.22-.31-.05-.63.03-.94.11"/>
    <g>
      <path class="cls-6" d="m387.79,127.65c2.49-1.63,6.72-4,9.35-5.41-3.15-1.91-5.29-3.66-8.45-5.57"/>
      <line class="cls-6" x1="7.68" y1="121.69" x2="393.77" y2="121.69"/>
    </g>
    <path class="cls-13" d="m326.21,119.29c-.56.55-.9,1.35-.88,2.14,0,.27.04.6.14.88.09.22.18.46.29.67s.38.53.46.61c.02.02.05.06.07.08.02.02.04.03.06.06.16.13.36.29.53.41.24.17.53.29.8.35.59.14.92.12,1.5,0,.05,0,.09-.02.13-.04.18-.06.45-.18.62-.26.02,0,.05-.02.07-.04.1-.06.21-.17.29-.22s.2-.14.29-.23l.07-.07c.09-.1.33-.39.45-.59.12-.21.21-.46.29-.69.22-.58.16-1.19.06-1.78-.1-.55-.45-1.12-.84-1.51-.2-.2-.44-.39-.69-.53-.18-.1-.43-.19-.62-.26-.02,0-.06-.02-.08-.03-.05-.02-.1-.02-.14-.03-.61-.1-1.22-.16-1.81.07-.17.06-.49.18-.7.3-.13.07-.24.18-.35.26-.37.29-.53.44-.82.88-.34.51-.49,1.18-.51,1.78-.02.65.18,1.23.47,1.8.02.05.05.09.07.13.14.21.3.41.46.6.04.04.07.08.11.12.18.17.4.33.6.47.24.17.55.27.8.37.1.03.18.06.29.07.26.04.61.12.92.1s.63-.06.92-.14.57-.21.83-.34.53-.37.73-.53c.07-.06.14-.12.19-.18.16-.19.32-.39.46-.6.02-.04.06-.09.07-.13.28-.57.46-1.11.45-1.77s-.18-1.19-.47-1.78c-.05-.09-.1-.18-.15-.25-.18-.24-.35-.51-.58-.71-.21-.19-.45-.39-.71-.53-.13-.07-.28-.13-.41-.18-.14-.06-.29-.14-.45-.18s-.31-.05-.45-.07-.31-.06-.46-.06c-.06,0-.11,0-.17,0-.26.03-.53.05-.8.12-.06.02-.1.03-.16.06-.23.09-.47.18-.68.29-.28.14-.53.37-.76.56s-.42.49-.59.72c-.07.1-.13.19-.18.29-.12.26-.28.57-.33.87s-.13.65-.1.97c.06.62.17,1.23.53,1.76.17.24.34.49.55.7.04.04.08.07.12.1.2.16.4.33.6.46.56.36,1.13.47,1.78.53s1.22-.15,1.79-.41c.08-.04.16-.08.23-.14.21-.16.51-.35.69-.57.41-.49.68-.92.88-1.54.09-.29.11-.62.14-.9.03-.31-.05-.63-.09-.93-.02-.1-.04-.18-.07-.27-.2-.52-.27-.68-.57-1.07-.12-.16-.22-.31-.37-.44-.23-.18-.45-.4-.72-.53-.24-.11-.53-.26-.81-.33-.14-.03-.3-.05-.45-.06-.15-.02-.32-.06-.48-.06-.29,0-.62.06-.89.1-.29.06-.57.2-.84.32-.18.08-.32.2-.47.33-.38.29-.5.43-.81.88-.17.24-.28.56-.37.8-.03.09-.06.17-.07.25-.1.65-.14,1.16.03,1.81.17.61.45,1.05.86,1.52.18.21.44.38.66.54.24.18.55.27.81.37.33.1.66.12,1,.05.33-.02.64-.11.92-.29.29-.16.53-.37.7-.64.22-.24.37-.53.45-.84l.09-.66c0-.45-.11-.87-.34-1.26l-.39-.5c-.31-.31-.68-.53-1.1-.64h-.02c.2.07.4.16.6.24-.07-.03-.14-.07-.19-.11l.5.39c-.06-.06-.13-.11-.18-.18l.39.5c-.06-.07-.1-.16-.14-.24l.25.6c-.05-.1-.07-.21-.09-.33l.09.66c-.02-.1-.02-.21,0-.31l-.09.66c.02-.1.03-.18.07-.27l-.25.6c.03-.08.07-.15.13-.22l-.39.5c.05-.06.1-.11.16-.17l-.5.39c.07-.06.14-.1.22-.13l-.6.25c.09-.04.18-.06.28-.07l-.66.09c.12-.02.23-.02.35,0l-.66-.09c.1.02.21.05.31.09l-.6-.25c.09.04.18.09.25.14l-.5-.39c.07.06.13.11.18.18l-.39-.5c.05.06.09.13.12.21l-.25-.6c.04.1.06.19.08.29l-.09-.66c0,.1,0,.2,0,.29l.09-.66c-.02.12-.05.24-.1.35l.25-.6c-.05.1-.1.2-.17.29l.39-.5c-.06.08-.14.15-.21.21l.5-.39c-.07.06-.15.1-.23.14l.6-.25c-.09.03-.18.06-.27.07l.66-.09c-.1,0-.19,0-.28,0l.66.09c-.1-.02-.21-.05-.3-.09l.6.25c-.11-.05-.21-.1-.3-.18l.5.39c-.1-.07-.18-.16-.25-.25l.39.5c-.06-.08-.1-.16-.14-.25l.25.6c-.04-.1-.07-.2-.09-.31l.09.66c0-.09,0-.18,0-.27l-.09.66c.02-.1.04-.2.08-.29l-.25.6c.05-.12.11-.22.19-.32l-.39.5c.07-.09.15-.17.24-.24l-.5.39c.09-.07.18-.13.29-.18l-.6.25c.1-.04.19-.06.29-.08l-.66.09c.1-.02.2-.02.3,0l-.66-.09c.1.02.18.04.26.07l-.6-.25c.1.04.18.1.26.16l-.5-.39c.09.07.17.15.24.25l-.39-.5c.07.1.13.19.18.29l-.25-.6c.05.12.08.24.1.36l-.09-.66c0,.1,0,.21,0,.31l.09-.66c-.02.1-.04.18-.07.27l.25-.6c-.04.1-.09.18-.15.25l.39-.5c-.06.08-.14.14-.21.21l.5-.39c-.1.07-.2.13-.31.18l.6-.25c-.11.05-.22.07-.34.1l.66-.09c-.11.02-.21.02-.33,0l.66.09c-.11-.02-.21-.04-.31-.09l.6.25c-.07-.03-.14-.07-.21-.12l.5.39c-.08-.06-.15-.14-.21-.21l.39.5c-.06-.08-.11-.17-.15-.25l.25.6c-.04-.1-.07-.21-.09-.32l.09.66c0-.1,0-.2,0-.29l-.09.66c.02-.08.03-.15.06-.22l-.25.6c.03-.06.06-.13.1-.19l-.39.5c.05-.06.1-.12.17-.17l-.5.39c.06-.05.14-.09.21-.12l-.6.25c.08-.03.17-.06.25-.07l-.66.09c.08,0,.16,0,.23,0l-.66-.09c.08,0,.15.03.22.06l-.6-.25c.06.02.1.06.15.09l-.5-.39s.08.07.11.11l-.39-.5s.06.1.1.16l-.25-.6c.02.06.04.14.06.21l-.09-.66c0,.08,0,.16,0,.24l.09-.66c0,.07-.03.14-.06.21l.25-.6c-.02.06-.06.13-.1.18l.39-.5s-.07.08-.11.11l.5-.39s-.09.06-.14.08l.6-.25s-.09.03-.13.04l.66-.09h-.13l.66.09c-.06,0-.1-.02-.15-.04l.6.25s-.1-.05-.14-.08l.5.39s-.1-.09-.14-.14l.39.5c-.05-.06-.08-.12-.11-.18l.25.6c-.02-.06-.04-.11-.05-.18l.09.66v-.15l-.09.66s.02-.08.03-.12l-.25.6s.03-.06.06-.09l-.39.5s.03-.04.06-.06c.24-.22.41-.49.52-.8.16-.29.23-.61.21-.96.02-.34-.06-.66-.21-.96-.1-.31-.27-.57-.52-.8l-.5-.39c-.39-.22-.8-.34-1.26-.34l-.66.09c-.42.12-.79.33-1.1.64h0v.02Z"/>
    <path class="cls-13" d="m196.09,119.29c-.56.55-.9,1.35-.88,2.14,0,.27.04.6.14.88.09.22.18.46.29.67s.38.53.46.61c.02.02.05.06.07.08.02.02.04.03.06.06.16.13.36.29.53.41.24.17.53.29.8.35.59.14.92.12,1.5,0,.05,0,.09-.02.13-.04.18-.06.45-.18.62-.26.02,0,.05-.02.07-.04.1-.06.21-.17.29-.22s.2-.14.29-.23l.07-.07c.09-.1.33-.39.45-.59.12-.21.21-.46.29-.69.22-.58.16-1.19.06-1.78-.1-.55-.45-1.12-.84-1.51-.2-.2-.44-.39-.69-.53-.18-.1-.43-.19-.62-.26-.02,0-.06-.02-.08-.03-.05-.02-.1-.02-.14-.03-.61-.1-1.22-.16-1.81.07-.17.06-.49.18-.7.3-.13.07-.24.18-.35.26-.37.29-.53.44-.82.88-.34.51-.49,1.18-.51,1.78-.02.65.18,1.23.47,1.8.02.05.05.09.07.13.14.21.3.41.46.6.04.04.07.08.11.12.18.17.4.33.6.47.24.17.55.27.8.37.1.03.18.06.29.07.26.04.61.12.92.1s.63-.06.92-.14.57-.21.83-.34.53-.37.73-.53c.07-.06.14-.12.19-.18.16-.19.32-.39.46-.6.02-.04.06-.09.07-.13.28-.57.46-1.11.45-1.77s-.18-1.19-.47-1.78c-.05-.09-.1-.18-.15-.25-.18-.24-.35-.51-.58-.71-.21-.19-.45-.39-.71-.53-.13-.07-.28-.13-.41-.18-.14-.06-.29-.14-.45-.18s-.31-.05-.45-.07-.31-.06-.46-.06c-.06,0-.11,0-.17,0-.26.03-.53.05-.8.12-.06.02-.1.03-.16.06-.23.09-.47.18-.68.29-.28.14-.53.37-.76.56s-.42.49-.59.72c-.07.1-.13.19-.18.29-.12.26-.28.57-.33.87s-.13.65-.1.97c.06.62.17,1.23.53,1.76.17.24.34.49.55.7.04.04.08.07.12.1.2.16.4.33.6.46.56.36,1.13.47,1.78.53s1.22-.15,1.79-.41c.08-.04.16-.08.23-.14.21-.16.51-.35.69-.57.41-.49.68-.92.88-1.54.09-.29.11-.62.14-.9.03-.31-.05-.63-.09-.93-.02-.1-.04-.18-.07-.27-.2-.52-.27-.68-.57-1.07-.12-.16-.22-.31-.37-.44-.23-.18-.45-.4-.72-.53-.24-.11-.53-.26-.81-.33-.14-.03-.3-.05-.45-.06-.15-.02-.32-.06-.48-.06-.29,0-.62.06-.89.1-.29.06-.57.2-.84.32-.18.08-.32.2-.47.33-.38.29-.5.43-.81.88-.17.24-.28.56-.37.8-.03.09-.06.17-.07.25-.1.65-.14,1.16.03,1.81.17.61.45,1.05.86,1.52.18.21.44.38.66.54.24.18.55.27.81.37.33.1.66.12,1,.05.33-.02.64-.11.92-.29.29-.16.53-.37.7-.64.22-.24.37-.53.45-.84l.09-.66c0-.45-.11-.87-.34-1.26l-.39-.5c-.31-.31-.68-.53-1.1-.64h-.02c.2.07.4.16.6.24-.07-.03-.14-.07-.19-.11l.5.39c-.06-.06-.13-.11-.18-.18l.39.5c-.06-.07-.1-.16-.14-.24l.25.6c-.05-.1-.07-.21-.09-.33l.09.66c-.02-.1-.02-.21,0-.31l-.09.66c.02-.1.03-.18.07-.27l-.25.6c.03-.08.07-.15.13-.22l-.39.5c.05-.06.1-.11.16-.17l-.5.39c.07-.06.14-.1.22-.13l-.6.25c.09-.04.18-.06.28-.07l-.66.09c.12-.02.23-.02.35,0l-.66-.09c.1.02.21.05.31.09l-.6-.25c.09.04.18.09.25.14l-.5-.39c.07.06.13.11.18.18l-.39-.5c.05.06.09.13.12.21l-.25-.6c.04.1.06.19.08.29l-.09-.66c0,.1,0,.2,0,.29l.09-.66c-.02.12-.05.24-.1.35l.25-.6c-.05.1-.1.2-.17.29l.39-.5c-.06.08-.14.15-.21.21l.5-.39c-.07.06-.15.1-.23.14l.6-.25c-.09.03-.18.06-.27.07l.66-.09c-.1,0-.19,0-.28,0l.66.09c-.1-.02-.21-.05-.3-.09l.6.25c-.11-.05-.21-.1-.3-.18l.5.39c-.1-.07-.18-.16-.25-.25l.39.5c-.06-.08-.1-.16-.14-.25l.25.6c-.04-.1-.07-.2-.09-.31l.09.66c0-.09,0-.18,0-.27l-.09.66c.02-.1.04-.2.08-.29l-.25.6c.05-.12.11-.22.19-.32l-.39.5c.07-.09.15-.17.24-.24l-.5.39c.09-.07.18-.13.29-.18l-.6.25c.1-.04.19-.06.29-.08l-.66.09c.1-.02.2-.02.3,0l-.66-.09c.1.02.18.04.26.07l-.6-.25c.1.04.18.1.26.16l-.5-.39c.09.07.17.15.24.25l-.39-.5c.07.1.13.19.18.29l-.25-.6c.05.12.08.24.1.36l-.09-.66c0,.1,0,.21,0,.31l.09-.66c-.02.1-.04.18-.07.27l.25-.6c-.04.1-.09.18-.15.25l.39-.5c-.06.08-.14.14-.21.21l.5-.39c-.1.07-.2.13-.31.18l.6-.25c-.11.05-.22.07-.34.1l.66-.09c-.11.02-.21.02-.33,0l.66.09c-.11-.02-.21-.04-.31-.09l.6.25c-.07-.03-.14-.07-.21-.12l.5.39c-.08-.06-.15-.14-.21-.21l.39.5c-.06-.08-.11-.17-.15-.25l.25.6c-.04-.1-.07-.21-.09-.32l.09.66c0-.1,0-.2,0-.29l-.09.66c.02-.08.03-.15.06-.22l-.25.6c.03-.06.06-.13.1-.19l-.39.5c.05-.06.1-.12.17-.17l-.5.39c.06-.05.14-.09.21-.12l-.6.25c.08-.03.17-.06.25-.07l-.66.09c.08,0,.16,0,.23,0l-.66-.09c.08,0,.15.03.22.06l-.6-.25c.06.02.1.06.15.09l-.5-.39s.08.07.11.11l-.39-.5s.06.1.1.16l-.25-.6c.02.06.04.14.06.21l-.09-.66c0,.08,0,.16,0,.24l.09-.66c0,.07-.03.14-.06.21l.25-.6c-.02.06-.06.13-.1.18l.39-.5s-.07.08-.11.11l.5-.39s-.09.06-.14.08l.6-.25s-.09.03-.13.04l.66-.09h-.13l.66.09c-.06,0-.1-.02-.15-.04l.6.25s-.1-.05-.14-.08l.5.39s-.1-.09-.14-.14l.39.5c-.05-.06-.08-.12-.11-.18l.25.6c-.02-.06-.04-.11-.05-.18l.09.66v-.15l-.09.66s.02-.08.03-.12l-.25.6s.03-.06.06-.09l-.39.5s.03-.04.06-.06c.24-.22.41-.49.52-.8.16-.29.23-.61.21-.96.02-.34-.06-.66-.21-.96-.1-.31-.27-.57-.52-.8l-.5-.39c-.39-.22-.8-.34-1.26-.34l-.66.09c-.42.12-.79.33-1.1.64h0v.02Z"/>
    <path class="cls-13" d="m65.97,119.29c-.56.55-.9,1.35-.88,2.14,0,.27.04.6.14.88.09.22.18.46.29.67s.38.53.46.61c.02.02.05.06.07.08.02.02.04.03.06.06.16.13.36.29.53.41.24.17.53.29.8.35.59.14.92.12,1.5,0,.05,0,.09-.02.13-.04.18-.06.45-.18.62-.26.02,0,.05-.02.07-.04.1-.06.21-.17.29-.22s.2-.14.29-.23l.07-.07c.09-.1.33-.39.45-.59.12-.21.21-.46.29-.69.22-.58.16-1.19.06-1.78-.1-.55-.45-1.12-.84-1.51-.2-.2-.44-.39-.69-.53-.18-.1-.43-.19-.62-.26-.02,0-.06-.02-.08-.03-.05-.02-.1-.02-.14-.03-.61-.1-1.22-.16-1.81.07-.17.06-.49.18-.7.3-.13.07-.24.18-.35.26-.37.29-.53.44-.82.88-.34.51-.49,1.18-.51,1.78-.02.65.18,1.23.47,1.8.02.05.05.09.07.13.14.21.3.41.46.6.04.04.07.08.11.12.18.17.4.33.6.47.24.17.55.27.8.37.1.03.18.06.29.07.26.04.61.12.92.1s.63-.06.92-.14.57-.21.83-.34.53-.37.73-.53c.07-.06.14-.12.19-.18.16-.19.32-.39.46-.6.02-.04.06-.09.07-.13.28-.57.46-1.11.45-1.77s-.18-1.19-.47-1.78c-.05-.09-.1-.18-.15-.25-.18-.24-.35-.51-.58-.71-.21-.19-.45-.39-.71-.53-.13-.07-.28-.13-.41-.18-.14-.06-.29-.14-.45-.18s-.31-.05-.45-.07-.31-.06-.46-.06c-.06,0-.11,0-.17,0-.26.03-.53.05-.8.12-.06.02-.1.03-.16.06-.23.09-.47.18-.68.29-.28.14-.53.37-.76.56s-.42.49-.59.72c-.07.1-.13.19-.18.29-.12.26-.28.57-.33.87s-.13.65-.1.97c.06.62.17,1.23.53,1.76.17.24.34.49.55.7.04.04.08.07.12.1.2.16.4.33.6.46.56.36,1.13.47,1.78.53s1.22-.15,1.79-.41c.08-.04.16-.08.23-.14.21-.16.51-.35.69-.57.41-.49.68-.92.88-1.54.09-.29.11-.62.14-.9.03-.31-.05-.63-.09-.93-.02-.1-.04-.18-.07-.27-.2-.52-.27-.68-.57-1.07-.12-.16-.22-.31-.37-.44-.23-.18-.45-.4-.72-.53-.24-.11-.53-.26-.81-.33-.14-.03-.3-.05-.45-.06-.15-.02-.32-.06-.48-.06-.29,0-.62.06-.89.1-.29.06-.57.2-.84.32-.18.08-.32.2-.47.33-.38.29-.5.43-.81.88-.17.24-.28.56-.37.8-.03.09-.06.17-.07.25-.1.65-.14,1.16.03,1.81.17.61.45,1.05.86,1.52.18.21.44.38.66.54.24.18.55.27.81.37.33.1.66.12,1,.05.33-.02.64-.11.92-.29.29-.16.53-.37.7-.64.22-.24.37-.53.45-.84l.09-.66c0-.45-.11-.87-.34-1.26l-.39-.5c-.31-.31-.68-.53-1.1-.64h-.02c.2.07.4.16.6.24-.07-.03-.14-.07-.19-.11l.5.39c-.06-.06-.13-.11-.18-.18l.39.5c-.06-.07-.1-.16-.14-.24l.25.6c-.05-.1-.07-.21-.09-.33l.09.66c-.02-.1-.02-.21,0-.31l-.09.66c.02-.1.03-.18.07-.27l-.25.6c.03-.08.07-.15.13-.22l-.39.5c.05-.06.1-.11.16-.17l-.5.39c.07-.06.14-.1.22-.13l-.6.25c.09-.04.18-.06.28-.07l-.66.09c.12-.02.23-.02.35,0l-.66-.09c.1.02.21.05.31.09l-.6-.25c.09.04.18.09.25.14l-.5-.39c.07.06.13.11.18.18l-.39-.5c.05.06.09.13.12.21l-.25-.6c.04.1.06.19.08.29l-.09-.66c0,.1,0,.2,0,.29l.09-.66c-.02.12-.05.24-.1.35l.25-.6c-.05.1-.1.2-.17.29l.39-.5c-.06.08-.14.15-.21.21l.5-.39c-.07.06-.15.1-.23.14l.6-.25c-.09.03-.18.06-.27.07l.66-.09c-.1,0-.19,0-.28,0l.66.09c-.1-.02-.21-.05-.3-.09l.6.25c-.11-.05-.21-.1-.3-.18l.5.39c-.1-.07-.18-.16-.25-.25l.39.5c-.06-.08-.1-.16-.14-.25l.25.6c-.04-.1-.07-.2-.09-.31l.09.66c0-.09,0-.18,0-.27l-.09.66c.02-.1.04-.2.08-.29l-.25.6c.05-.12.11-.22.19-.32l-.39.5c.07-.09.15-.17.24-.24l-.5.39c.09-.07.18-.13.29-.18l-.6.25c.1-.04.19-.06.29-.08l-.66.09c.1-.02.2-.02.3,0l-.66-.09c.1.02.18.04.26.07l-.6-.25c.1.04.18.1.26.16l-.5-.39c.09.07.17.15.24.25l-.39-.5c.07.1.13.19.18.29l-.25-.6c.05.12.08.24.1.36l-.09-.66c0,.1,0,.21,0,.31l.09-.66c-.02.1-.04.18-.07.27l.25-.6c-.04.1-.09.18-.15.25l.39-.5c-.06.08-.14.14-.21.21l.5-.39c-.1.07-.2.13-.31.18l.6-.25c-.11.05-.22.07-.34.1l.66-.09c-.11.02-.21.02-.33,0l.66.09c-.11-.02-.21-.04-.31-.09l.6.25c-.07-.03-.14-.07-.21-.12l.5.39c-.08-.06-.15-.14-.21-.21l.39.5c-.06-.08-.11-.17-.15-.25l.25.6c-.04-.1-.07-.21-.09-.32l.09.66c0-.1,0-.2,0-.29l-.09.66c.02-.08.03-.15.06-.22l-.25.6c.03-.06.06-.13.1-.19l-.39.5c.05-.06.1-.12.17-.17l-.5.39c.06-.05.14-.09.21-.12l-.6.25c.08-.03.17-.06.25-.07l-.66.09c.08,0,.16,0,.23,0l-.66-.09c.08,0,.15.03.22.06l-.6-.25c.06.02.1.06.15.09l-.5-.39s.08.07.11.11l-.39-.5s.06.1.1.16l-.25-.6c.02.06.04.14.06.21l-.09-.66c0,.08,0,.16,0,.24l.09-.66c0,.07-.03.14-.06.21l.25-.6c-.02.06-.06.13-.1.18l.39-.5s-.07.08-.11.11l.5-.39s-.09.06-.14.08l.6-.25s-.09.03-.13.04l.66-.09h-.13l.66.09c-.06,0-.1-.02-.15-.04l.6.25s-.1-.05-.14-.08l.5.39s-.1-.09-.14-.14l.39.5c-.05-.06-.08-.12-.11-.18l.25.6c-.02-.06-.04-.11-.05-.18l.09.66v-.15l-.09.66s.02-.08.03-.12l-.25.6s.03-.06.06-.09l-.39.5s.03-.04.06-.06c.24-.22.41-.49.52-.8.16-.29.23-.61.21-.96.02-.34-.06-.66-.21-.96-.1-.31-.27-.57-.52-.8l-.5-.39c-.39-.22-.8-.34-1.26-.34l-.66.09c-.42.12-.79.33-1.1.64h0v.02Z"/>
    <line class="cls-5" x1="68.35" y1="120.73" x2="68.35" y2="96.22"/>
    <line class="cls-5" x1="197.99" y1="120.73" x2="197.99" y2="96.22"/>
    <line class="cls-5" x1="328.23" y1="120.73" x2="328.23" y2="96.22"/>
  </g>
</svg>