<?xml version="1.0" encoding="UTF-8"?>
<svg id="Calque_1" data-name="Calque 1" xmlns="http://www.w3.org/2000/svg" viewBox="0 0 200.13 128.13">
  <defs>
    <style>
      .cls-1 {
        fill: #d6d6d6;
      }

      .cls-1, .cls-2, .cls-3, .cls-4, .cls-5, .cls-6, .cls-7, .cls-8, .cls-9 {
        stroke: #000;
      }

      .cls-1, .cls-2, .cls-3, .cls-4, .cls-5, .cls-6, .cls-7, .cls-9, .cls-10 {
        stroke-linecap: round;
        stroke-linejoin: round;
      }

      .cls-2 {
        fill: #afaff9;
      }

      .cls-3 {
        fill: #8987f3;
      }

      .cls-4, .cls-9 {
        fill: #87ccf3;
      }

      .cls-5 {
        fill: #b4eac3;
      }

      .cls-6, .cls-11, .cls-8 {
        fill: #fff;
      }

      .cls-7, .cls-10 {
        fill: none;
      }

      .cls-12 {
        fill: #b2f0e9;
      }

      .cls-8 {
        stroke-miterlimit: 10;
        stroke-width: 2px;
      }

      .cls-9 {
        opacity: .4;
      }

      .cls-10 {
        stroke: #fff;
        stroke-width: 8px;
      }
    </style>
  </defs>
  <path class="cls-7" d="m78.25,38.41s11.03-18.04,44.43-1.02"/>
  <rect class="cls-1" x="119.98" y="6.38" width="70.87" height="53.03" transform="translate(310.83 65.79) rotate(-180)"/>
  <rect class="cls-3" x="121.8" y="8.01" width="67.23" height="49.66" transform="translate(310.83 65.69) rotate(-180)"/>
  <path class="cls-2" d="m133.15,29.9l10.97,16.73c.96,1.46,2.76,2.1,4.44,1.6,2.16-.64,4.5-.99,6.93-.99,2.13,0,4.18.27,6.1.76,1.73.45,3.55-.28,4.48-1.81,3.88-6.39,8.14-13.24,11.48-18.21.84-1.25.79-2.9-.11-4.11-4.51-6.08-12.65-10.13-21.95-10.13-9.5,0-17.79,4.23-22.24,10.53-1.19,1.68-1.23,3.91-.1,5.63Z"/>
  <rect class="cls-11" x="124.54" y="12.39" width="5.08" height=".76" transform="translate(254.16 25.53) rotate(-180)"/>
  <rect class="cls-11" x="124.54" y="14.33" width="5.08" height=".76" transform="translate(254.16 29.42) rotate(-180)"/>
  <polygon class="cls-1" points="82.96 88.95 90.33 117.05 111.88 119.77 103.2 79.28 82.96 88.95"/>
  <path class="cls-1" d="m75.82,123.41l11.24-8.21c2.12-1.55,4.77-2.21,7.38-1.84l28.27,4.07c2.84.41,5.22,2.35,6.18,5.05l.39,1.09-53.45-.16Z"/>
  <path class="cls-1" d="m180.07,105.65s0,.09,0,.14c-.05.34-.11.79-.17,1.31-.24,2.1-2.03,3.69-4.14,3.69h-12.65c-4.79,0-9.51-1.17-13.75-3.4l-15.81-8.32c-4.55-2.39-9.68-3.47-14.81-3.11l-44.77,3.17c-1.28.09-2.54-.27-3.58-1.03L8.49,52.99c-2.42-1.76-2.95-5.15-1.19-7.57.62-.86,1.45-1.48,2.37-1.84.71-.28,1.48-.41,2.25-.38h0s29.93.22,29.93.22l40.32,32.32,49.4.98,48.01,28.09s0,0,0,0l.03.02s.01,0,.02.01c0,0,0,0,0,0,.12.09.22.2.29.33.08.15.13.31.13.48Z"/>
  <path class="cls-1" d="m179.94,105.17h-13.46c-4.79,0-9.51-1.17-13.75-3.4l-15.81-8.32c-4.55-2.39-9.68-3.47-14.81-3.11l-44.77,3.18c-1.28.09-2.54-.27-3.58-1.03L11.87,47.38c-1.29-.94-2.04-2.34-2.2-3.81.71-.28,1.48-.41,2.25-.38h0s29.93.22,29.93.22l40.32,32.32,49.4.98,48.01,28.09s0,0,0,0c.02,0,.03.02.05.03,0,0,0,0,0,0,.12.09.22.2.29.33Z"/>
  <path class="cls-4" d="m88.25,62.78s39.77.74,44.54,1.96c4.77,1.22,22.03,25.16,22.03,25.16l-2.33,2.16-29.64-14.64-39.97-2.31,5.37-12.33Z"/>
  <path class="cls-6" d="m162.83,94.2s2.59,1.69,5.33,1.92c2.73.23,4.95,1.02,6.65,1.15,1.71.13,4.3-.09,3.35,1.14-.95,1.23-6.06,2.93-7.29,2.86-1.22-.07-2.66-.21-4.46.77s-3.3.01-3.74-1.47c-.44-1.48-1.74-2.41-1.74-2.41l1.89-3.96Z"/>
  <path class="cls-6" d="m44.4,50.75c-1.19-.04-2.29-1.01-2.14-2.46.18-1.75.06-4.23-.68-7.2l.45-.02,7.61-.34s.39,2.33.91,4.48c0,.02,0,.04.01.05.45,1.87,2.27,5.78-6.17,5.49Z"/>
  <path class="cls-6" d="m51.5,42.44s-9.57,2.51-11.04-3.48c-1.47-5.99-3.69-9.69,2.36-11.55,6.05-1.85,7.8.14,8.78,2.02.98,1.88,2.36,12.2-.09,13.01Z"/>
  <path class="cls-6" d="m80.75,51.06c-6.91-3.47-13.91,3.01-15.79,2.74-1.88-.27-2.59-2.48-3.7-3.69-1.11-1.22-7.14-2.99-9.12-2.86-6.43.4-17.18,1.64-18.47,4.38-1.83,3.87,32.26,28.58,32.26,28.58l9.51-3.93c2.78.95,9.61-1.64,11.15-4.16,3.07-5.02,2.85-16.7-5.84-21.06Z"/>
  <path class="cls-4" d="m64.96,79.51s2.8,5.74,13.76,6.57c10.97.83,45.56-4.77,47.79-2.58,4.31,4.24,19.34,9.42,33.01,15.65,0,0,1.4-.02,3.03-.8,2.71-1.31,3.3-3.55,3.3-3.55,0,0-27.89-20.79-31.32-23.67-3.43-2.88-16.22-4.09-22.37-4.09-18.94,0-23.93-4.25-23.93-4.25,0,0-2.3,4.25-11.68,11.17-5.19,3.82-11.6,5.56-11.6,5.56Z"/>
  <path class="cls-5" d="m42.28,45.36s2.91,1.43,8.42.39c0,0,.36.97.69,1.29.33.32,3.86-.21,5.11.21,1.25.42,5.52,2.78,6.23,3.28.71.5,1.69,2.67,2.91,2.77,1.22.11,2.51-.75,2.51-.75,0,0-5.83,1.86-7.01,24.16l-22.32-17.04-5.66-7.62s.71-1.77,3.16-2.64c2.45-.87,5.66-1.62,5.83-2.16.17-.54.14-1.88.14-1.88Z"/>
  <path class="cls-6" d="m65.28,52.79c.03.55-2.25,1.71-2.27,2.16-.01.46-.46,1.63-1.13,2.04-.42.25-.83.72-1.09,1.05h0c-.13.53-2.8,11.68-4.7,14.39-1.25,1.77-2.96,3.01-4.02,3.66-.48.3-.83.48-.96.56-.04,0-.05.01-.05.01-3.32.86-17.32-14.26-17.45-19.25-.12-4.99,6.62-4.34,6.62-4.34,0,0,8.59,12.62,10.74,15.01,4.39-4.7,8.05-12.16,8.05-12.16,0,0,.21-.26.5-.63.13-.38.26-.83.26-1.03,0-.35.08-.99.25-.91.17.09.38.39.35.61-.01.07,0,.17.01.29.55-.64,1.11-1.24,1.37-1.35.57-.25,3.52-.66,3.54-.13Z"/>
  <path class="cls-5" d="m38.82,48.6s-6.17,1.1-6.62,5.36c-.44,4.26,3.82,12.46,8.14,18.16,0,0,7.37-1.77,8.72-6.87l-4.69-8.74"/>
  <path class="cls-6" d="m43.05,25.61c-14.52,2.22-4.23,22.99-4.23,22.99,5.86.05,3.3-7.02,3.3-7.02-1.7-1.65-2.26-4.85-2.26-4.85,8.01-3.17,5.98-8.57,5.98-8.57,0,0,5.06-.98,6.73,5.5,0,0,1.43,8.91-2.55,9.08l1.37,4.31,4.16.06s3.99-19.47-3.86-22.6c-5.84-2.33-8.64,1.11-8.64,1.11Z"/>
  <path class="cls-12" d="m72.82,50.99s-8.57,5.25-4.67,7.92c1.08.74,2.26-.47,4.11,2.14,2.09,2.94,6.86.81,7.82-.49.96-1.3,4.84-5.37,4.84-5.37,0,0-3.75-6.25-12.11-4.2Z"/>
  <path class="cls-1" d="m74.78,47.18l.64-6.03c.07-.68.69-1.18,1.37-1.11l2.42.26c.68.07,1.18.69,1.11,1.37l-.64,6.03c-.02.16,0,.32.04.47l.99,3.54c.24.85-.45,1.93-1.58,2.17-1.67.35-3.36.33-5.14-.59-.78-.4-1.42-1.62-1.02-2.39l1.68-3.27c.07-.14.11-.28.13-.44Z"/>
  <polygon class="cls-6" points="79.17 38.54 77.37 38.29 76.5 40 77.34 40.09 79.53 40.33 79.17 38.54"/>
  <path d="m82.23,55.05c-.05.12-.32.12-.61,0-.29-.12-.48-.31-.43-.43.05-.12.32-.12.61,0,.29.12.48.31.43.43Z"/>
  <rect class="cls-11" x="179.96" y="53.69" width="5.96" height=".89" transform="translate(365.88 108.27) rotate(-180)"/>
  <rect class="cls-11" x="179.96" y="51.88" width="5.96" height=".89" transform="translate(365.88 104.64) rotate(-180)"/>
  <circle class="cls-8" cx="96.98" cy="31.07" r="12.77"/>
  <path d="m92.71,36.79c-.73-.89-1.1-1.97-1.1-3.25h1.8c.08.89.24,1.53.5,1.93.45.72,1.25,1.08,2.42,1.08.91,0,1.63-.24,2.18-.73s.82-1.11.82-1.88c0-.94-.29-1.61-.87-1.98-.58-.38-1.38-.57-2.41-.57-.12,0-.23,0-.35,0s-.24,0-.36.01v-1.52c.18.02.33.03.45.04.12,0,.25,0,.39,0,.64,0,1.17-.1,1.59-.31.73-.36,1.09-1,1.09-1.92,0-.68-.24-1.21-.73-1.58-.48-.37-1.05-.56-1.69-.56-1.15,0-1.94.38-2.38,1.15-.24.42-.38,1.02-.41,1.8h-1.71c0-1.02.21-1.89.61-2.6.7-1.28,1.94-1.92,3.71-1.92,1.4,0,2.48.31,3.25.93.77.62,1.15,1.52,1.15,2.71,0,.84-.23,1.53-.68,2.05-.28.33-.64.58-1.09.77.72.2,1.29.58,1.69,1.14.41.56.61,1.26.61,2.07,0,1.31-.43,2.37-1.29,3.2-.86.82-2.08,1.23-3.67,1.23s-2.8-.45-3.53-1.33Z"/>
  <path class="cls-9" d="m166.8,34.65s.61-4.31,1.47-4.98c.86-.66,7.21-7.07,1.09-10.46-6.12-3.39-10.47-1.47-12.1.67-1.63,2.14-1.66,3.15-.81,4.86.85,1.71-.51,1.79-.2,3.35.31,1.57-.14,3.23,1.26,3.62,1.4.39.16,1.98-.75,1.07-.92-.92-1.35-3.52-2.11-4.54-.76-1.02-2.1-.37-1.89.92.2,1.29,1.13,3.43.59,4.34-.54.9-2.5-.14-4.5,1.02-2,1.16-.89-1.01-2.51-2.71-1.62-1.7-4.65-1.69-5.22-.2-.56,1.49,2.22,2.72,2.33,4.37.1,1.65-.33,5.46,5.77,8.14,6.11,2.68,18.54-3.41,17.58-9.47Z"/>
  <rect class="cls-10" x="-245.91" y="-4448.19" width="6467.34" height="6437.3"/>
</svg>