<?xml version="1.0" encoding="UTF-8"?>
<svg id="Calque_1" data-name="Calque 1" xmlns="http://www.w3.org/2000/svg" viewBox="0 0 128 128">
  <defs>
    <style>
      .cls-1, .cls-2, .cls-3 {
        fill: none;
      }

      .cls-4 {
        fill: #f3d587;
      }

      .cls-4, .cls-5, .cls-2, .cls-6 {
        stroke: #000;
      }

      .cls-4, .cls-5, .cls-2, .cls-3 {
        stroke-linecap: round;
        stroke-linejoin: round;
      }

      .cls-5 {
        fill: #e9cb61;
      }

      .cls-7 {
        fill: #fff;
      }

      .cls-8 {
        fill: #231f20;
      }

      .cls-6 {
        stroke-miterlimit: 10;
        stroke-width: .5px;
      }

      .cls-3 {
        stroke: #fff;
        stroke-width: 8px;
      }
    </style>
  </defs>
  <path class="cls-5" d="m88.52,75.26s5.1-2.91,5.32,1.94-1.82,4.45-3.2,9.24c-1.38,4.79-4.37,5.51-4.37,5.51"/>
  <path class="cls-1" d="m88.4,75.5s-1.74-15.16-6.83-18.04c-5.09-2.88-7.22-2.24-7.22-2.24l-2.98-1.66-2.62.7-3.76-.62-3.76,1.92-3.73-.92-7.12,1.91-4.54,3.78-4.54,15.24.03.09s-.01-.01-.03-.01c.12,2.65.59,9.61,2.28,16.7,1.39,5.88,3.62,11.86,7.17,15.53,9.01,9.31,14.36,8.14,14.36,8.14.91.08,5.76.07,13.84-8.29,7.84-8.11,9.23-27.4,9.46-32.24-.02,0-.02-.02,0-.07h0"/>
  <path class="cls-7" d="m72.63,82.22s1.11-.13,3.21.07c3.78.36,5.61-1.98,5.61-1.98l-.06-.67s-4.96-4.08-10.13,2.06l1.38.52Z"/>
  <path class="cls-7" d="m56.94,82.57s-1.11-.13-3.21.07c-3.78.36-5.61-1.98-5.61-1.98l.06-.67s4.96-4.08,10.13,2.06l-1.38.52Z"/>
  <path class="cls-1" d="m86.27,91.87s3-.73,4.37-5.52c1.38-4.79,3.42-4.4,3.2-9.24-.2-4.62-4.86-2.18-5.29-1.94-.12,2.64-.59,9.61-2.28,16.7Z"/>
  <path class="cls-1" d="m43.72,92.02s-3-.73-4.37-5.52c-1.38-4.79-3.42-4.4-3.2-9.24.2-4.62,4.86-2.18,5.29-1.94.12,2.64.59,9.61,2.28,16.7Z"/>
  <path class="cls-2" d="m61,89.55s-3.28,3.34,0,5.78"/>
  <path class="cls-2" d="m61.23,93.58s1.36,1.18,2.43,1.62"/>
  <path class="cls-2" d="m52.2,46.92s3.15,8.46,8.22,8.29c5.07-.18,5.73-9.26,5.73-9.26"/>
  <path class="cls-2" d="m44.43,53.64s6.23,4.5,12.85.55"/>
  <path class="cls-2" d="m42.54,58.14s6.42.05,9.09-2.33"/>
  <path class="cls-5" d="m41.47,75.42s-5.1-2.91-5.32,1.94c-.22,4.84,1.82,4.45,3.2,9.24,1.38,4.79,4.37,5.51,4.37,5.51"/>
  <path class="cls-2" d="m63.97,46.24s-.78,3.34-2.3,5.69"/>
  <path class="cls-2" d="m68.98,89.39s3.28,3.34,0,5.78"/>
  <path class="cls-2" d="m85.56,53.48s-10.48,5.14-14.47-.45"/>
  <path class="cls-2" d="m87.44,57.98s-6.49.23-9.17-2.15"/>
  <path class="cls-2" d="m82.66,58.37s6.31,10.92,5.86,16.9c0,0,9.18-23.69-10.62-30.03,0,0-1.07-4-6.24-2.97-6.81-5.94-13.33.15-13.33.15-5.17-1.03-6.24,2.97-6.24,2.97-19.8,6.34-10.62,30.03-10.62,30.03-.45-5.98,5.86-18.06,5.86-18.06"/>
  <path class="cls-2" d="m88.58,74.13s-.49,24.05-9.5,33.36c-9,9.31-14,8.27-14,8.27l.16.02s-5.35,1.18-14.35-8.13c-9-9.31-9.5-33.36-9.5-33.36"/>
  <path class="cls-2" d="m64.05,52.89s4.39,5.56,10.3-3.74"/>
  <path class="cls-2" d="m73.01,82.38s1.11-.13,3.21.07c3.78.36,5.61-1.69,5.61-1.69l-.06-.67s-4.96-4.37-10.13,1.77"/>
  <circle class="cls-2" cx="77.13" cy="80.69" r="1.71"/>
  <path class="cls-2" d="m68.76,93.58s-1.36,1.18-2.43,1.62"/>
  <circle class="cls-6" cx="77.42" cy="80.57" r=".84"/>
  <path class="cls-2" d="m48.89,77.45s4.1-2.58,8.52.72"/>
  <path class="cls-2" d="m57.11,82.38s-1.11-.13-3.21.07c-3.78.36-5.61-1.69-5.61-1.69l.06-.67s4.96-4.37,10.13,1.77"/>
  <circle class="cls-2" cx="52.99" cy="80.69" r="1.71"/>
  <circle class="cls-6" cx="53.39" cy="80.57" r=".84"/>
  <path class="cls-2" d="m81.39,77.45s-4.1-2.58-8.52.72"/>
  <path class="cls-2" d="m46.53,73.46s3.71-5.74,10.2-.89"/>
  <path class="cls-2" d="m82.52,73.46s-3.71-5.74-10.2-.89"/>
  <path class="cls-2" d="m56.73,102.8s8.2,5.73,16.14,0"/>
  <g>
    <path class="cls-8" d="m29.43,28.53c0-2.79-.73-10.5,5.79-12.94,1.01,1.14,2.14,2.89,2.14,6.22,0,1.84.02,8.85-7.51,12.82-6.77,3.57-8.62,6.31-8.62,9.47,0,4.4,3.18,7.95,7.97,7.95,4.39,0,4.98-3.59,4.98-4.97,0-2.1-1.29-4.38-4.49-4.38-2.25,0-3.8,1.46-3.8,2.97,0,.57-.03,2.23,1.58,3.44.1.08.12.22.05.32h0v.02c-.08.09-.2.12-.3.07-.63-.31-2.74-1.69-2.74-4.62,0-3.52,3.01-6.03,6-6.03,2.69,0,6.24,2.67,6.24,7,0,4.79-2.92,7.08-7.67,7.08-5.44,0-9.42-4.1-9.42-9.83s4.87-9.74,9.05-12.05c3.33-1.84,7.75-4.76,7.75-9.11,0-1.38-.31-2.65-.65-2.65-1.78,0-5.46,3.85-5.46,9.22h-.89Z"/>
    <circle class="cls-8" cx="22.67" cy="58.72" r="2.66"/>
    <path class="cls-8" d="m29.43,28.53v27.37l.02,2.23c0,2.51-1.83,4.71-4.09,4.71-2.78,0-3.43-2.04-3.43-4.55,0,0-.45-1.52-1.06-1.26-.2.09-.81,1.32-.81,2.21,0,1.54,1.42,4.49,5.32,4.49,3.18,0,5.05-2.49,5.05-5.61l-.1-29.6h-.89Z"/>
  </g>
  <g>
    <ellipse class="cls-8" cx="80.39" cy="35.79" rx="3.42" ry="2.73" transform="translate(-7.05 25.87) rotate(-17.53)"/>
    <rect class="cls-8" x="82.8" y="17.09" width=".96" height="18.35"/>
    <g>
      <ellipse class="cls-8" cx="94.49" cy="34.05" rx="3.42" ry="2.73" transform="translate(-5.87 30.04) rotate(-17.53)"/>
      <polygon class="cls-8" points="97.85 33.7 96.9 33.7 96.9 15.51 97.85 15.35 97.85 33.7"/>
    </g>
    <polygon class="cls-8" points="82.8 17.09 97.85 15.33 97.85 19.37 82.8 21.13 82.8 17.09"/>
  </g>
  <g>
    <ellipse class="cls-8" cx="28.49" cy="103.41" rx="2.71" ry="2.16" transform="translate(-29.82 13.38) rotate(-17.53)"/>
    <path class="cls-8" d="m31.15,103.13l-.76-.99v-13.18c0-.21.17-.38.38-.38h.38v14.54Z"/>
    <path class="cls-8" d="m35.37,87.45l-4.68,1.07c-.17.04-.29.19-.29.37v2.9l4.97-1.14v-3.2Z"/>
  </g>
  <g>
    <ellipse class="cls-8" cx="100.69" cy="62.37" rx="3.02" ry="2.41" transform="translate(-14.11 33.22) rotate(-17.53)"/>
    <path class="cls-8" d="m103.66,62.07l-.84-1.1v-14.68c0-.23.19-.42.42-.42h.42v16.2Z"/>
    <path class="cls-8" d="m108.35,44.6l-5.21,1.19c-.19.04-.33.21-.33.41v3.23l5.54-1.27v-3.57Z"/>
  </g>
  <g>
    <path class="cls-4" d="m29.92,81.4l-1.41,1.05c-2.89-3.65-1.97-8.93,1.67-11.43.35.47.7.94,1.04,1.41-3,2.62-3.43,5.61-1.31,8.97Z"/>
    <path class="cls-4" d="m32.87,79.19l-1.45,1.08c-1.76-2.19-1.43-4.69.93-6.32l1.08,1.45c-1.51,1.06-1.71,2.33-.56,3.8Z"/>
  </g>
  <g>
    <path class="cls-4" d="m99.49,81.4l1.41,1.05c2.89-3.65,1.97-8.93-1.67-11.43-.35.47-.7.94-1.04,1.41,3,2.62,3.43,5.61,1.31,8.97Z"/>
    <path class="cls-4" d="m96.54,79.19l1.45,1.08c1.76-2.19,1.43-4.69-.93-6.32l-1.08,1.45c1.51,1.06,1.71,2.33.56,3.8Z"/>
  </g>
  <rect class="cls-3" x="-496.86" y="-133.07" width="1496.63" height="1236.8"/>
</svg>