<?xml version="1.0" encoding="UTF-8"?>
<svg id="Calque_1" data-name="Calque 1" xmlns="http://www.w3.org/2000/svg" viewBox="0 0 200.13 128.13">
  <defs>
    <style>
      .cls-1 {
        fill: #d6d6d6;
      }

      .cls-1, .cls-2, .cls-3, .cls-4, .cls-5, .cls-6, .cls-7, .cls-8 {
        stroke: #000;
      }

      .cls-1, .cls-2, .cls-3, .cls-4, .cls-5, .cls-6, .cls-8, .cls-9 {
        stroke-linecap: round;
        stroke-linejoin: round;
      }

      .cls-2 {
        fill: #b2f0e9;
      }

      .cls-3 {
        fill: #ff6d75;
      }

      .cls-4 {
        fill: #f3d587;
      }

      .cls-5 {
        fill: #fff;
      }

      .cls-6, .cls-9 {
        fill: none;
      }

      .cls-10, .cls-7 {
        fill: #1a2e35;
      }

      .cls-7 {
        stroke-miterlimit: 10;
      }

      .cls-8 {
        stroke-width: .25px;
      }

      .cls-9 {
        stroke: #fff;
        stroke-width: 8px;
      }
    </style>
  </defs>
  <path class="cls-4" d="m141.34,60.56l-.93-.27,13.68-3.05c-1.61,1.03-6.38,3.85-11.07,3.58-.56-.04-1.12-.12-1.68-.26Z"/>
  <path class="cls-4" d="m180.69,97.06l-55.69-.06c1.47-.22-5.52-26.73,12.81-35.62.38.29,8.75,6.44,19.22-4.07,6.57.76,22.98,9.91,23.66,39.75Z"/>
  <path class="cls-5" d="m154.09,57.24c-1.61,1.03-6.38,3.85-11.07,3.58-.56-.04-1.12-.12-1.68-.26l-.93-.27-.02-.64-.48-8.48-.13-2.51,12.21.18.21.86,1.89,7.54Z"/>
  <path class="cls-6" d="m141.96,16.89s.38,2.2,1.45,3.55h.02"/>
  <path class="cls-6" d="m147.05,20.75c1.56-1.32,2.29-4.08,2.29-4.08"/>
  <path class="cls-6" d="m156.14,39.99h.02c.2-.08,1.56-.71,2-3.11.48-2.59,1.57-2.5,1.22-5.03-.36-2.39-2.64-.92-2.89-.73"/>
  <path class="cls-6" d="m132.13,21.85s1.88.71,3.84.72"/>
  <path class="cls-5" d="m150.84,21.19c-1.08.25-2.38.21-3.79-.44-.47.41-.99.67-1.6.71-.85.06-1.51-.4-2.02-1.02-.02.02-.04.04-.06.05-.2.26-1.47,1.86-3.65.38-.76,1.34-2.27,1.73-3.74,1.71-.74.81-1.9.94-1.9.94-.05.11-.12.24-.15.34-2.61,5.54-2.36,8.94-2.32,9.3-.37-.84-.67-1.65-.93-2.42.45,1.44.92,2.46,1.02,2.67v.02s.03.04.03.04h-.02c.2,1.41.82,5.02,2.05,8.65,1.03,3.02,2.53,6.05,4.6,7.8,4.79,4.09,7.36,3.74,7.74,3.64.41.02,3.18-.05,7.09-5.02,1.69-2.12,2.57-5.39,2.99-8.55.5-3.8.41-7.46.33-8.88h-.02c0-.16-.01-.32-.05-.5-.03.15-.06.23-.06.23-.06-.59-.16-1.17-.27-1.73-.89-2.83-4.38-7.15-4.85-7.92h-.4Z"/>
  <path class="cls-6" d="m156.09,29.11c.17.53.29,1.03.33,1.5"/>
  <path class="cls-6" d="m156.47,31.11s0-.02.02-.04v-.02c.07-.29.45-1.82.54-3.82v-.06c.17-4.01-.83-9.84-7.7-11.31,0,0-.77-2.04-3.42-1.23,0,0-3.75-2.87-7.03.61-2.76-.28-3.12,1.88-3.12,1.88-6.94,2.99-6.25,9.61-5.14,13.43.03.08.05.14.06.2"/>
  <path class="cls-6" d="m133.92,24.26s-2.76,6.08-2.21,9.21"/>
  <path class="cls-6" d="m156.45,30.5v.02c0,.06.03.24.03.53v.02s0,.04,0,.04"/>
  <path class="cls-6" d="m131.69,33.47v-.04"/>
  <path class="cls-6" d="m131.61,32.87s.02.2.07.54"/>
  <path class="cls-6" d="m133.76,42.11h-.02c-.21-.04-1.67-.38-2.57-2.66-.98-2.45-2.03-2.14-2.18-4.7-.12-2.41,2.41-1.42,2.69-1.28"/>
  <path class="cls-6" d="m137.8,18.99c.63.79,1.22,1.37,1.74,1.74.07.05.11.11.18.13"/>
  <path class="cls-6" d="m143.37,20.48l.04-.04"/>
  <ellipse class="cls-5" cx="148.34" cy="33.9" rx=".26" ry=".76" transform="translate(-2.61 14.72) rotate(-5.63)"/>
  <ellipse class="cls-5" cx="137.85" cy="34.74" rx=".26" ry=".76" transform="translate(-2.74 13.7) rotate(-5.63)"/>
  <polyline class="cls-5" points="8.96 97.73 3.1 97.73 3.1 123.81 194.8 123.81 194.8 96.84 104.08 97.01"/>
  <polygon class="cls-5" points="68.39 102.05 67.1 101.37 67.73 100.8 68.39 102.05"/>
  <polygon class="cls-5" points="65.35 100.56 66.86 99.22 67.75 100.86 67.1 101.37 65.35 100.56"/>
  <path class="cls-2" d="m33.48,89.78h-.58l12.1,1.99v.35l.09,6.94v1h30l-.51-7.6-.06-.93,5.55-1.47m28.19-3.7c-.4-.99-15.57-17.76-23.2-25.52-2.28-2.34-3.7-3.34-3.7-3.34l-9.72-2.67c-1.34,5.79-4.54,9.67-4.54,9.67l-3.77,5.78-4.26-6.83c-7.51-8.03-7.96-13.31-7.98-13.63l-2.54,2.15-4.84,1.61-6.82,1.81c-2.29.61-4.15.8-6.12,2.11-1.71,1.14-3.5,3.37-4.65,5.07-4.34,6.31-12.27,18.62-13.28,20.2-1.43,2.25-4.32,8.04-4.28,11.5.01,1.3.13,2.55.63,3.73.66,1.55,1.98,3.01,4.58,4.37,4.2,2.18,30.69.71,31.37.67h.01v-1s-.04-1.98-.04-1.98h29.99l.03.52.05.72,27.57-.72c1.62-.62,3.7-1.68,5.11-3.53,1.7-2.21,2.45-5.57.4-10.69Zm-77.67,3.03l-.78-.12s0-.01.01-.02c.01-.01.02-.02.03-.04.22-.34,1.42-2.24,2.81-4.49l.24,4.97v.09l-.97-.16c-.51-.08-.97-.17-1.34-.23Zm49.49.67l.65-9.15c1.71,1.49,7.52,5.45,7.52,5.45l1.69,1.09-9.85,2.6Z"/>
  <path class="cls-6" d="m71.64,54.84c-1.34,5.79-4.54,9.67-4.54,9.67l-3.77,5.78-4.26-6.83c-7.51-8.03-7.96-13.31-7.98-13.63h0s.23-.2.23-.2c.54,1.93,1.3,3.7,2.36,5.05,4.28,5.48,7.31,5.56,7.77,5.54.41.11,3.24.51,8.51-3.96.55-.47,1.07-1.02,1.55-1.64l.13.22Z"/>
  <path class="cls-5" d="m66.53,97.02c-.05-.13-.16-.24-.27-.33-.54-.48-1.09-.97-1.63-1.45l-.95,2.82c.4.3.92.44,1.41.37.5-.07.96-.34,1.26-.74.15-.19.26-.44.17-.67Z"/>
  <path class="cls-5" d="m45.14,103.05s-.01-.08-.02-.22c0-.16-.01-.37-.02-.64-.01-.57-.03-1.38-.05-2.37-.03-2.03-.08-4.85-.13-8.05l.07.07c-.74-.12-1.51-.25-2.3-.38-3.7-.63-7.05-1.2-9.5-1.61-1.2-.21-2.18-.38-2.87-.51-.33-.06-.59-.11-.78-.15-.08-.02-.15-.03-.2-.04-.05-.01-.07-.02-.07-.02,0,0,.02,0,.07,0,.06,0,.12.02.2.03.19.03.45.07.78.12.69.11,1.67.27,2.88.46,2.44.4,5.79.96,9.5,1.57.79.13,1.56.26,2.3.39h.07s0,.07,0,.07c.03,3.2.06,6.01.08,8.05,0,1,0,1.8,0,2.38,0,.27,0,.48,0,.64,0,.15,0,.22-.01.22Z"/>
  <polyline class="cls-6" points="67.1 64.51 70.42 67.23 71.64 54.84"/>
  <polyline class="cls-6" points="48.55 51.97 57.35 69.17 59.07 63.45"/>
  <line class="cls-6" x1="63.33" y1="70.29" x2="62.02" y2="90.11"/>
  <path class="cls-5" d="m75.2,100.57l-.16.05-3.06,1.03-10.73-.24-3.9-4.9,2.94-1.73,4.25-1.83,9.97-.49h.07s.03.02.08.05h.01c.11,1.9.24,3.89.38,5.93.05.72.1,1.44.15,2.12Z"/>
  <path class="cls-3" d="m44.61,81.29l20.74,19.27,1.96.93,1.08.55-.51-.93-1.03-1.89-21-19.28c-.36-.33-.9-.32-1.26,0h0c-.39.37-.39.99,0,1.35Z"/>
  <path class="cls-5" d="m45,92.13l1.63.29s8.43-3.11,9.63-3.27c.93-.12,5.36.92,7.33,1.4.79.19,1.37.91,1.33,1.72,0,.01,0,.02,0,.04-.04.66-.48,1.22-1.09,1.47h0s1.66.51.91,2.26c-.55,1.3-2.3,1.09-2.3,1.09l-2.91.06s.74.22,1.86.49c1.2.28,1.52.5,1.52.5,0,0,1.76,1.69.06,2.4-1.04.43-1.78.31-1.78.31,0,0,.51,1.82-.85,2.13-1.36.31-10.35-.37-10.35-.37,0,0-.48-.27-2.31-.42l-2.54-.18-.14-9.92Z"/>
  <path class="cls-8" d="m54.59,102.05s-.13-.03-.28-.18c-.14-.15-.3-.41-.31-.73-.01-.32.12-.6.25-.76.13-.16.25-.21.26-.2.02.02-.07.1-.17.26-.1.16-.2.41-.19.69.01.28.13.52.24.67.11.15.21.23.19.25Z"/>
  <path class="cls-8" d="m54.45,99s-.16,0-.36-.13c-.2-.13-.43-.41-.48-.79-.04-.38.13-.7.29-.87.17-.18.32-.22.32-.2.01.02-.11.1-.24.27-.13.17-.26.46-.23.79.04.32.23.58.39.72.16.14.3.19.29.22Z"/>
  <path class="cls-8" d="m54.4,95.45s-.16-.07-.3-.29c-.15-.22-.28-.59-.21-1,.07-.41.32-.72.53-.87.21-.16.38-.19.38-.17.01.02-.13.09-.31.26-.18.16-.39.45-.45.81-.06.36.04.7.15.92.11.22.23.33.21.35Z"/>
  <path class="cls-8" d="m55.47,90.89s-.08-.04-.14-.15c-.06-.12-.08-.3-.03-.5.05-.19.18-.34.28-.41.11-.07.19-.08.2-.06.02.04-.25.18-.33.51-.1.33.05.59.02.61Z"/>
  <line class="cls-6" x1="63.82" y1="93.78" x2="59.72" y2="93.89"/>
  <line class="cls-6" x1="61.19" y1="100.89" x2="58.53" y2="100.01"/>
  <polygon class="cls-5" points="91.28 108.9 66.87 109.55 91.28 119.47 117.54 117.92 91.28 108.9"/>
  <polyline class="cls-5" points="73.2 117.65 48.53 107.24 48.53 105.81"/>
  <polygon class="cls-5" points="72.94 117.54 99.2 115.86 99.2 114.19 72.94 115.74 72.94 117.54"/>
  <polygon class="cls-1" points="72.94 105.16 48.53 105.81 72.94 115.74 99.2 114.19 72.94 105.16"/>
  <path class="cls-10" d="m89.71,112.31s-3.98.31-8.89.61c-4.92.29-8.9.5-8.9.46,0-.04,3.98-.31,8.9-.61,4.91-.29,8.9-.5,8.9-.46Z"/>
  <path class="cls-10" d="m78.22,111.92c-4.92.29-4.92.14,0-.15,4.91-.29,4.92-.14,0,.15Z"/>
  <path class="cls-6" d="m29.53,89.2s-5.31,0-9.16,4.63"/>
  <path class="cls-6" d="m33.8,58.83s6.52,7.12,0,22.92"/>
  <path class="cls-2" d="m89.93,87.46s2.12-.86,7.88,0"/>
  <path class="cls-6" d="m66.15,19.96s-.43,2.42-1.61,3.89h-.02"/>
  <path class="cls-6" d="m60.54,24.18c-1.71-1.45-2.5-4.49-2.5-4.49"/>
  <path class="cls-6" d="m50.47,45.27h-.02c-.21-.09-1.71-.78-2.18-3.43-.51-2.85-1.71-2.75-1.31-5.53.4-2.62,2.9-1,3.17-.79"/>
  <path class="cls-6" d="m76.91,25.45s-2.07.77-4.22.78"/>
  <path class="cls-5" d="m78.49,35.23c-.5,1.58-1.02,2.69-1.13,2.93v.02s-.03.04-.03.04h.02c-.23,1.55-.93,5.51-2.29,9.49-.88,2.5-2.03,5.01-3.54,6.92-.48.61-1,1.17-1.55,1.64-5.27,4.47-8.1,4.07-8.51,3.96-.46.02-3.49-.06-7.77-5.54-1.06-1.35-1.82-3.12-2.36-5.05-.41-1.4-.69-2.89-.88-4.35-.53-4.18-.42-8.2-.32-9.75h.02c0-.18.02-.35.06-.55.02.16.06.25.06.25.06-.65.18-1.28.3-1.9.99-3.1,4.84-7.83,5.36-8.68h.44c1.18.28,2.61.25,4.17-.47.51.46,1.08.74,1.75.79.94.07,1.67-.44,2.23-1.12.02.03.03.05.06.05.21.29,1.6,2.05,4,.44.84,1.47,2.5,1.92,4.11,1.9.8.9,2.08,1.04,2.08,1.04.05.12.12.26.17.38,2.84,6.09,2.55,9.83,2.51,10.23.41-.92.74-1.8,1.03-2.65Z"/>
  <path class="cls-6" d="m50.15,35.52s0-.02-.02-.05v-.02c-.08-.32-.49-2-.57-4.2v-.07c-.17-4.41.96-10.81,8.51-12.39,0,0,.86-2.24,3.77-1.34,0,0,4.13-3.14,7.72.7,3.03-.29,3.42,2.07,3.42,2.07,7.61,3.31,6.82,10.58,5.58,14.77-.03.09-.06.15-.07.22"/>
  <path class="cls-6" d="m74.94,28.1s3.01,6.69,2.39,10.12"/>
  <path class="cls-6" d="m77.35,38.22v-.04"/>
  <path class="cls-6" d="m77.44,37.56s-.02.22-.08.6"/>
  <path class="cls-6" d="m75.03,47.7h.02c.23-.04,1.83-.41,2.83-2.91,1.08-2.69,2.23-2.35,2.41-5.15.14-2.65-2.64-1.57-2.94-1.42"/>
  <path class="cls-6" d="m70.7,22.29c-.69.87-1.34,1.5-1.92,1.91-.07.06-.12.12-.19.14"/>
  <path class="cls-6" d="m64.58,23.9l-.04-.05"/>
  <path class="cls-5" d="m65.29,35.68s-.58,8.39.47,12.85c0,0-.5.78-3.08-.23"/>
  <ellipse class="cls-5" cx="59.06" cy="38.61" rx=".84" ry=".29" transform="translate(14.61 93.42) rotate(-84.14)"/>
  <ellipse class="cls-5" cx="70.58" cy="39.59" rx=".84" ry=".29" transform="translate(23.99 105.76) rotate(-84.14)"/>
  <path class="cls-5" d="m142.45,37.69s-1.6,5.22,1.13,4.29"/>
  <path class="cls-1" d="m90.35,46.61c5.48,6.68,15.14,8.64,22.81,4.66,3.51-1.82,6.17-4.54,7.86-7.72l4.43-.19c.91-.04,1.32-1.16.65-1.78l-3.27-2.98c1.12-5.28-.03-11.04-3.84-15.71-5.26-6.43-14.41-8.57-21.97-5.12-11.21,5.11-14.49,19.3-6.67,28.83Z"/>
  <path class="cls-10" d="m82.76,109.88s-3.98.31-8.89.61c-4.92.29-8.9.5-8.9.46,0-.04,3.98-.31,8.9-.61,4.91-.29,8.9-.5,8.9-.46Z"/>
  <path class="cls-10" d="m71.28,109.48c-4.92.29-4.92.14,0-.15,4.91-.29,4.92-.14,0,.15Z"/>
  <path class="cls-7" d="m89.55,30.84s4.66-.04,10.41.02c5.75.06,10.41.15,10.41.2,0,.05-4.66.04-10.41-.02-5.75-.06-10.41-.15-10.41-.2Z"/>
  <path class="cls-7" d="m104.16,33.82c5.75.06,5.75.24,0,.18-5.75-.06-5.75-.24,0-.18Z"/>
  <path class="cls-7" d="m97.24,37.15s4.66-.04,10.41.02c5.75.06,10.41.15,10.41.2,0,.05-4.66.04-10.41-.02-5.75-.06-10.41-.15-10.41-.2Z"/>
  <path class="cls-7" d="m110.52,40.25c5.75.06,5.75.24,0,.18-5.75-.06-5.75-.24,0-.18Z"/>
  <path class="cls-4" d="m157.03,57.31c-10.47,10.51-18.84,4.36-19.22,4.07.82-.41,1.68-.77,2.6-1.09l.93.27c.56.14,1.12.22,1.68.26,4.69.27,9.46-2.55,11.07-3.58,0,0,1.15-.14,2.94.07Z"/>
  <path class="cls-6" d="m137.81,61.38h-.01"/>
  <line class="cls-4" x1="162.3" y1="80.2" x2="164.73" y2="96.84"/>
  <line class="cls-4" x1="127.92" y1="96.96" x2="127.92" y2="84.72"/>
  <rect class="cls-9" x="-1220.08" y="-260.12" width="1951.05" height="522.43"/>
</svg>