<?xml version="1.0" encoding="UTF-8"?>
<svg id="Calque_1" data-name="Calque 1" xmlns="http://www.w3.org/2000/svg" viewBox="0 0 128 128">
  <defs>
    <style>
      .cls-1 {
        fill: #b2f0e9;
      }

      .cls-1, .cls-2, .cls-3, .cls-4, .cls-5 {
        stroke-linecap: round;
        stroke-linejoin: round;
      }

      .cls-1, .cls-2, .cls-3, .cls-4, .cls-6 {
        stroke: #000;
      }

      .cls-2 {
        fill: #fff;
      }

      .cls-3 {
        fill: #fab0b4;
      }

      .cls-4 {
        stroke-width: .5px;
      }

      .cls-4, .cls-5, .cls-6 {
        fill: none;
      }

      .cls-5 {
        stroke: #fff;
        stroke-width: 8px;
      }

      .cls-6 {
        stroke-miterlimit: 10;
      }
    </style>
  </defs>
  <polygon class="cls-2" points="10.24 80.22 39.49 115.73 97.24 115.73 63.99 80.22 10.24 80.22"/>
  <line class="cls-2" x1="55.6" y1="85.89" x2="24.32" y2="85.89"/>
  <line class="cls-2" x1="61.73" y1="93.7" x2="30.45" y2="93.7"/>
  <line class="cls-2" x1="68.64" y1="102.49" x2="37.36" y2="102.49"/>
  <polygon class="cls-2" points="33.94 68.52 63.19 104.02 120.94 104.02 87.69 68.52 33.94 68.52"/>
  <polygon class="cls-1" points="91.27 77.47 90.54 75.58 88.94 77 101.51 14.81 106.17 15.75 93.6 77.95 92.87 76.05 91.27 77.47"/>
  <rect class="cls-2" x="102.72" y="11.54" width="2.79" height="4.75" transform="translate(138.38 -85.38) rotate(101.42)"/>
  <rect class="cls-3" x="102.26" y="7.86" width="5.3" height="4.19" transform="translate(74.38 110.82) rotate(-78.58)"/>
  <polygon class="cls-2" points="89.27 87.39 89.16 83.92 88.94 77 90.54 75.58 91.27 77.47 92.87 76.05 93.6 77.95 90.71 84.24 89.27 87.39"/>
  <polygon points="89.7 85.26 89.61 82.27 90.94 82.54 89.7 85.26"/>
  <line class="cls-4" x1="104.28" y1="17.11" x2="92.8" y2="73.9"/>
  <line class="cls-4" x1="102.72" y1="16.79" x2="91.25" y2="73.58"/>
  <g>
    <polyline class="cls-6" points="57.03 85.85 55.84 74.79 65.03 84.03"/>
    <line class="cls-6" x1="53.62" y1="81.13" x2="63.84" y2="79.25"/>
  </g>
  <g>
    <line class="cls-6" x1="74.68" y1="73.59" x2="79.96" y2="83.95"/>
    <line class="cls-6" x1="77.43" y1="78.99" x2="82.68" y2="77.33"/>
    <line class="cls-6" x1="79.96" y1="71.94" x2="85.07" y2="81.82"/>
  </g>
  <polyline class="cls-6" points="67.09 92.16 75.95 97.95 74.58 89.26"/>
  <polyline class="cls-6" points="85.93 90.93 89.62 98.93 94.61 97.4"/>
  <rect class="cls-5" x="-4785.93" y="-2762.19" width="6467.34" height="6437.3"/>
</svg>