<?xml version="1.0" encoding="UTF-8"?>
<svg id="Calque_1" data-name="Calque 1" xmlns="http://www.w3.org/2000/svg" viewBox="0 0 128 128">
  <defs>
    <style>
      .cls-1, .cls-2 {
        fill: #343470;
      }

      .cls-3 {
        fill: none;
        stroke: #fff;
        stroke-linecap: round;
        stroke-linejoin: round;
        stroke-width: 8px;
      }

      .cls-2, .cls-4, .cls-5, .cls-6 {
        fill-rule: evenodd;
      }

      .cls-4 {
        fill: #36378d;
      }

      .cls-5 {
        fill: #f0d641;
      }
    </style>
  </defs>
  <g>
    <path class="cls-5" d="m101.39,9.41c-1.22,1.64-3.07,3.74-4.72,5.85-1.65,2.12-3.1,4.26-4.3,6.05s-2.14,3.23-2.71,4.24c-.57,1.01-.78,1.59-.89,2.19.28.62.71,1.18,1.17,1.54.46.36.96.52,1.36.62.4.1.69.14.93.09.24-.06.44-.21.64-.36.2-.16.41-.32.76-.79.35-.47.84-1.24,1.47-2.16.63-.9,1.27-1.78,1.93-2.65.51-.68.75-.97.93-1.32.18-.35.3-.75.6-1.15.31-.41.81-.82,1.23-1.3.42-.48.76-1.04,1.55-2.17.79-1.13,2.03-2.84,2.98-4.22.95-1.38,1.62-2.43,2.19-3.28s1.06-1.52,1.41-2.11c.36-.58.59-1.08.83-1.52.24-.44.5-.81.59-1.16.09-.34.01-.65-.03-.88-.04-.24-.05-.4-.29-.66-.24-.26-.71-.62-1.09-.9-.31-.23-.63-.44-.96-.64-1.15.77-2.18,1.71-2.99,2.78-.81,1.07-1.39,2.26-2.61,3.91h0Zm-49.47,2.94c.13.76.43,1.47,1.02,2.34.59.87,1.46,1.9,2.52,2.92,1.07,1.03,2.33,2.06,3.12,2.64.79.58,1.11.7,1.69,1.2.58.5,1.41,1.39,2.24,2.3.83.91,1.67,1.83,2.59,2.8s1.93,1.99,2.85,2.65c.92.66,1.76.96,2.5,1.04.73.07,1.37-.09,1.75-.26.38-.16.52-.33.65-.51.14-.18.29-.36.23-.67-.06-.31-.32-.75-.61-1.14-.29-.39-.61-.73-1.51-1.75-1.16-1.3-2.32-2.62-3.47-3.93-1.07-1.22-1.7-1.98-2.58-2.86-.88-.87-2.02-1.86-2.97-2.8-.86-.85-1.66-1.76-2.38-2.73-.68-.91-1.29-1.85-1.94-2.61s-1.31-1.36-2.04-1.71-1.5-.48-2.12-.32c-.63.16-1.11.59-1.37,1.21-.26.62-.31,1.42-.18,2.18h0Z"/>
    <path class="cls-6" d="m48.36,90.98c.52.04,1.34.07,2.15.12.71.04,1.42.1,2.12.18.52.06.76.11,1.36.2.6.09,1.55.23,2.9.35,1.69.15,3.38.23,5.08.25,1.98.02,4.2-.04,5.49-.08,1.3-.04,1.66-.04,1.97-.04.3,0,.54.02,1.14,0,.81-.01,1.62-.05,2.42-.11.85-.06,1.6-.15,2.18-.21.58-.06.98-.09,1.67-.16.69-.07,1.68-.18,2.34-.27.66-.08,1.01-.15,1.32-.17s.58,0,.86-.01c.28,0,.57-.02.77-.09.17-.05.31-.18.36-.35.07-.17.1-.4.11-.7,0-.3-.03-.67-.05-1.1-.03-.45-.04-.89-.04-1.34.01-.42.06-.77.06-1.23s-.02-1.03-.08-1.59c.02-.78.03-1.57.03-2.02,0-.45,0-.56,0-.79,0-.23.03-.57.05-.75.02-.18.04-.21.04-.3,0-.11,0-.23,0-.34,0-.09,0-.11,0-.13.03-.27.06-.53.08-.78.03-.25.05-.48.06-.67,0-.16,0-.31,0-.47-.01-.12-.04-.21-.07-.28s-.06-.12-.11-.17c-.01-.53-.02-1.07-.03-1.51,0-.45-.02-.81.05-1.35s.2-1.25.31-1.78c.11-.52.2-.85.32-1.41.12-.56.27-1.35.35-1.98s.11-1.1.16-1.57c.04-.46.11-.92.16-1.23.05-.3.08-.46.12-.65s.07-.44.07-.66c0-.22-.05-.43-.14-.62-.1-.21-.27-.44-.37-.57-.1-.13-.12-.16-.17-.22-.07-.09-.12-.2-.15-.32-.03-.14,0-.31.01-.43.02-.12.04-.17.05-.37.01-.2.01-.53,0-.8s-.03-.47-.05-.72c-.02-.26-.01-.52.01-.78.03-.26.09-.48.18-.7.1-.21.23-.41.4-.61s.39-.38.59-.52c.21-.14.4-.24.57-.29.16-.05.29-.06.39-.04s.19.07.26.15c.07.08.13.19.16.4s.06.5.08.78l.05.83c.02.25.03.48.04.68.01.2.02.37.04.68.02.32.05.79.12,1.19.07.4.16.73.23,1.02s.13.52.16.84c.04.33.06.76.01,1.38-.04.62-.15,1.44-.24,2.13-.09.63-.16,1.26-.22,1.9-.06.66-.11,1.42-.11,1.98s.05.92.09,1.21c.04.29.07.52.08.78.01.26,0,.55-.05.82-.06.27-.17.53-.28.73-.1.21-.2.37-.3.56-.1.19-.2.39-.28.59-.07.18-.09.32-.06.46.03.14.1.28.14.35.04.07.06.09.09.17.03.08.09.23.12.53.03.3.02.75-.02,1.26-.04.5-.11,1-.21,1.49-.08.42-.17.71-.27,1.07-.12.44-.21.88-.28,1.33-.08.54-.13,1.2-.13,1.9s.04,1.44.1,2.03c.06.58.13,1,.21,1.51.08.51.15,1.11.2,1.65s.05,1.04.03,1.41c-.02.37-.08.6-.2.87-.12.27-.3.57-.44.78s-.26.33-.42.42c-.16.09-.36.15-.53.19-.17.04-.32.06-.53.1-.21.04-.49.11-.81.23-.32.13-.68.32-.87.43-.2.11-.23.14-.34.2-.18.1-.38.18-.58.23-.26.07-.59.12-.98.13s-.85-.03-1.19-.05c-.34-.03-.55-.04-.97-.05-.54-.01-1.09.01-1.63.07-.59.07-1.13.2-1.47.28-.33.08-.45.12-.66.18-.21.06-.5.14-.76.15-.22.01-.44-.01-.66-.07-.18-.04-.3-.09-.5-.15-.2-.06-.49-.12-.85-.16s-.82-.06-1.26-.03c-.44.02-.87.09-1.24.18-.32.08-.63.17-.93.29-.25.09-.43.16-.66.2-.23.04-.47.07-.71.09-.2.01-.33.01-.63.06-.29.04-.74.13-1.1.22-.35.08-.61.16-.98.24-.37.09-.86.19-1.28.22-.36.03-.72,0-1.08-.06-.31-.05-.58-.12-.86-.18s-.58-.14-1-.18c-.45-.03-.91-.05-1.37-.05-.39,0-.6,0-1.09-.04s-1.25-.15-1.78-.24c-.52-.08-.81-.15-1.29-.23s-1.16-.18-1.7-.23-.95-.06-1.47-.11-1.14-.12-1.54-.18c-.4-.06-.56-.09-.89-.13-.48-.07-.96-.11-1.45-.11-.63,0-1.4.06-1.89.11-.49.05-.71.08-1.41.11-.95.04-1.91.06-2.86.07-.96,0-1.68-.03-2.32-.12s-1.21-.26-1.56-.36c-.35-.1-.48-.15-.72-.21-.24-.07-.58-.15-.96-.18-.39-.03-.82,0-1.23.05-.41.05-.81.12-1.1.2-.29.08-.47.16-.65.24-.18.07-.35.14-.55.18s-.42.05-.68.02c-.26-.03-.57-.11-.81-.17-.24-.06-.41-.11-.61-.16-.2-.04-.44-.08-.65-.07s-.41.07-.62.12c-.21.06-.44.11-.93.18-.49.08-1.23.18-1.96.21-.73.03-1.43-.02-1.9-.05-.46-.03-.68-.06-1.1-.07s-1.04-.03-1.43-.02-.54.03-.72.04c-.18.01-.36,0-.54-.02-.16-.02-.26-.05-.4-.08s-.3-.07-.61-.05c-.31.02-.77.1-1.08.15-.31.05-.47.09-.83.14-.37.05-.94.12-1.44.14-.46.02-.92-.02-1.38-.11-.46-.09-.96-.25-1.48-.43-.52-.19-1.05-.41-1.45-.62-.31-.15-.59-.35-.85-.58-.17-.15-.31-.32-.43-.51-.09-.13-.14-.29-.14-.45,0-.16.02-.34.06-.49.03-.16.08-.3.11-.69.03-.4.05-1.05.05-1.7v-.78c-.02-1.11-.02-2.21-.03-3.13,0-.92-.02-1.64-.03-2.3s0-1.24.02-1.72c.03-.48.09-.85.17-1.13.08-.28.17-.45.25-.62.08-.17.16-.32.22-.56.07-.24.13-.55.14-1.1,0-.54-.04-1.32-.08-1.83-.03-.51-.05-.77-.05-1.16,0-.39,0-.91.06-1.31.04-.3.11-.59.21-.88.07-.19.11-.38.14-.57.03-.24.04-.6.03-.84,0-.25-.03-.38-.05-.59s-.02-.52.04-1.03c.06-.5.2-1.21.31-1.81.11-.6.2-1.11.28-1.72s.13-1.34.15-1.85c.02-.51-.01-.82-.03-1.14-.02-.32-.02-.66,0-.96.02-.29.07-.54.1-.73s.05-.35.03-.54c-.02-.19-.09-.42-.15-.66-.06-.24-.13-.48-.25-1.42-.16-1.21-.3-2.42-.42-3.64-.1-1.05-.11-1.52-.12-1.9-.01-.38-.03-.68-.06-.93-.04-.25-.1-.44-.18-.58s-.18-.26-.27-.37c-.09-.12-.17-.24-.24-.37-.08-.15-.13-.32-.12-.49,0-.2.06-.45.12-.66s.09-.37.17-.76c.07-.39.18-1.01.2-1.62.03-.61-.03-1.21-.06-1.62s-.07-.64-.08-1.18c-.02-.67-.02-1.35-.01-2.02,0-.62.03-1,0-1.6-.03-.6-.1-1.42-.18-2.22-.08-.8-.16-1.59-.23-2.26-.06-.67-.11-1.21-.2-1.97-.09-.76-.19-1.51-.31-2.26-.08-.53-.12-.63-.15-.88-.03-.3-.06-.6-.07-.91-.01-.25,0-.33-.02-.52-.01-.25-.05-.49-.11-.73-.07-.25-.19-.45-.27-.59-.08-.15-.14-.24-.22-.48-.08-.24-.18-.63-.27-1.2-.1-.65-.15-1.31-.17-1.97-.01-.56.02-1.12.11-1.67.07-.47.18-.87.25-1.16.07-.29.11-.46.12-.64,0-.18,0-.36-.05-.53-.03-.15-.08-.25-.14-.39-.09-.2-.14-.42-.17-.64-.04-.3-.05-.7.03-1.49.08-.78.25-1.95.36-2.71.11-.76.17-1.12.21-1.36s.05-.38.09-.59.11-.51.22-.74c.1-.23.25-.42.44-.58.2-.18.48-.35.9-.55.5-.22,1.02-.42,1.55-.57.55-.17,1.08-.29,1.6-.43.52-.14,1.02-.29,1.35-.4s.48-.16.71-.24c.23-.07.54-.16.84-.19.38-.04.73.03,1.07.11.24.05.49.09.76.08.28-.02.55-.07.82-.13.24-.06.42-.11.71-.18.29-.07.7-.15,1-.2s.48-.06.68-.08.44-.06.63-.08c.2-.03.36-.05.56-.05.19,0,.42,0,.62,0s.39.01.64,0c.25-.02.57-.07.8-.1.23-.03.39-.06.54-.07.16-.01.32-.02.48-.02s.33,0,.48-.04c.15-.03.28-.1.38-.16.1-.06.18-.12.27-.18.09-.06.19-.12.32-.17.13-.05.28-.08.52-.08s.55.04.76.06c.21.02.3.04.51.05s.54.02.82,0c.28-.02.52-.07.7-.11.18-.04.31-.06.47-.07.16,0,.37,0,.56.03.2.03.38.09.58.14.2.05.41.11.68.15.27.04.6.06.94.05.35-.01.71-.06.94-.1s.34-.07.59-.12c.25-.05.64-.11,1.14-.16.59-.05,1.18-.06,1.77-.04.65.03,1.34.1,1.95.18.61.08,1.16.18,1.55.25.4.07.65.11.92.13.27.01.57,0,.75,0s.26-.02.41-.03c.15,0,.39,0,.63.04.24.04.49.13.69.21.2.08.35.16.49.24.3.15.56.28.81.26.13-.01.27-.06.36-.09.1-.03.15-.05.25-.08.1-.02.24-.05.45-.03.2.02.46.09.63.14.17.05.26.08.43.11s.44.09.72.11.57,0,.78-.03c.21-.03.34-.06.48-.08.14-.03.28-.05.42-.04.3,0,.64.13.98.38.17.13.35.28.48.43.13.15.23.29.29.41.05.1.07.2.07.31-.01.09-.05.18-.09.27-.04.07-.08.12-.13.22-.05.1-.12.25-.17.42-.05.17-.09.36-.12.49-.02.1-.04.2-.08.3-.04.11-.1.2-.17.29-.17.19-.49.33-.78.39-.15.03-.28.03-.47.05-.2.02-.46.05-.64.08s-.25.04-.43.07c-.17.03-.43.06-.69.05-.25-.02-.5-.06-.74-.12-.22-.06-.41-.12-.65-.19-.36-.11-.73-.18-1.1-.23-.69-.09-1.38-.15-2.07-.18-.61-.03-1.22-.05-1.83-.04-.42.01-.58.04-.7.08-.11.04-.18.08-.24.13s-.13.09-.22.12c-.09.03-.2.05-.36.03s-.39-.07-.66-.16c-.27-.09-.57-.21-.85-.33-.28-.11-.55-.22-.89-.33-.34-.11-.75-.21-1.1-.28s-.64-.09-.89-.08-.48.06-.66.11c-.38.12-.62.24-.92.29-.16.03-.31.04-.47.03-.14-.02-.28-.05-.42-.09-.13-.04-.24-.07-.53-.1-.39-.03-.79-.05-1.18-.05-.43,0-.81,0-1.27,0-.46,0-.98-.02-1.52-.03s-1.08-.03-1.63,0-1.09.08-1.45.13c-.36.05-.54.09-.86.14-.32.05-.79.1-1.23.13-.43.03-.83.03-1.18.03-.35,0-.65,0-.9.01-.25.02-.44.05-.6.11s-.28.13-.36.18-.14.09-.33.17c-.19.07-.51.18-.99.31-.47.12-1.09.26-1.67.34-.58.08-1.11.11-1.5.13-.39.02-.65.03-1.01.06s-.82.08-1.15.15c-.34.06-.55.14-.75.25-.2.11-.39.24-.56.4-.16.14-.3.29-.39.42s-.13.23-.14.34c-.01.11,0,.22.03.32.06.21.13.32.12.47,0,.1-.03.19-.08.28-.04.1-.11.2-.18.3-.07.11-.14.23-.19.35-.11.26-.1.58-.07.89.01.16.02.32,0,.62-.03.35-.06.69-.11,1.04-.04.29-.06.42-.11.78-.04.36-.1.93-.11,1.53s.04,1.21.11,1.8c.07.6.15,1.18.23,1.7s.15.98.19,1.41c.04.43.03.82.01,1.16-.02.34-.06.63-.09.89s-.05.49-.05.68.03.35.07.47c.03.12.07.19.11.28.04.09.08.2.11.36.02.16.02.37.02.55,0,.18-.01.34,0,.61.02.26.06.63.12.94.05.31.12.57.19.9.07.34.15.76.21,1.22s.1.99.14,1.4c.04.42.06.73.09,1,.03.27.07.51.08.91s0,.99,0,1.34c-.01.35-.03.47-.03,1.02,0,.56.02,1.55.05,2.37.03.81.08,1.44.12,2.26s.06,1.81.07,2.5c0,.7,0,1.09,0,1.52,0,.43.01.89.04,1.22.03.33.07.53.13.69.07.16.16.29.22.38.07.09.1.15.16.26.06.11.14.28.19.45.05.17.07.35.04.6s-.09.57-.14.79c-.05.23-.09.35-.15.67-.07.32-.16.82-.22,1.72s-.07,2.22-.09,3.1c-.02.88-.03,1.32-.04,1.77-.14,1.66-.26,3.32-.34,4.61-.08,1.3-.13,2.24-.21,3.85-.08,1.62-.19,3.91-.19,6.38,0,2.47.12,5.13.19,6.7.07,1.58.11,2.08.15,2.58-.06.09-.15.16-.21.23-.06.06-.11.11-.17.18-.06.07-.12.16-.16.28-.04.12-.05.27-.04.52,0,.24.03.58.06.92.03.34.05.7.06,1.12s0,.91-.05,1.39c-.05.48-.13.96-.25,1.43,2.17.12,4.34.25,5.61.33,1.27.08,1.63.12,2.15.15.51.03,1.17.06,1.7.06.53,0,.93-.05,1.29-.11.36-.07.69-.16.92-.23s.38-.11.62-.15c.35-.06.7-.09,1.05-.09.48,0,1.09.03,1.48.06.39.03.57.04.9.03s.81-.03,1.12-.06c.31-.02.43-.05.79-.08.36-.03.94-.07,1.53-.06s1.19.07,1.55.11c.36.04.48.06.83.08.35.03.92.06,1.72.04.8-.02,1.84-.11,2.6-.18.75-.07,1.22-.13,1.72-.19.61-.07,1.22-.13,1.83-.15.96-.04,1.91-.05,2.87-.04.92.01,1.65.05,2.42.08.77.03,1.58.05,2.18.05s.98,0,1.38,0c.4,0,.8,0,1.14.05.34.04.61.12.79.17.18.06.26.09.45.15.19.06.5.16.96.23.46.07,1.06.11,1.47.14.41.03.61.03.95.07.38.04.76.09,1.14.15.31.05.43.08.65.12.25.04.51.07.76.08.25,0,.44-.03.61-.08.17-.05.32-.12.46-.21.27-.19.49-.44.64-.73.05-.11.07-.18.07-.23,0-.05-.03-.08-.08-.1-.05-.02-.12-.02-.22.01s-.25.09-.37.16c-.23.13-.37.28-.53.35-.08.04-.16.05-.25.04-.11-.02-.22-.04-.33-.08-.13-.04-.29-.09-.89-.21-.95-.18-1.9-.33-2.85-.46-1.2-.16-2.41-.3-3.62-.42-1.01-.1-1.64-.14-2.24-.19-.6-.05-1.17-.1-1.72-.16-.55-.05-1.09-.11-2.14-.13s-2.62-.03-3.54-.03c-.92,0-1.19,0-1.6,0-.41,0-.96-.03-1.32-.06s-.52-.05-.85-.05c-.39,0-.77,0-1.16.02-.33.01-.49.02-.71.03s-.52,0-.93.02c-.41.01-.95.04-1.34.06-.39.02-.64.04-1.08.05-.44.01-1.07.02-1.65.03-.58,0-1.11,0-2.16.06-1.05.06-2.63.18-3.79.27-1.16.09-1.91.16-2.84.22-1,.07-2,.12-3,.15-.76.02-1.52,0-2.28-.06-.6-.05-1.05-.12-1.36-.18s-.5-.13-.65-.21c-.15-.08-.26-.18-.34-.26s-.12-.16-.14-.21-.01-.1.02-.14c.04-.04.09-.07.15-.07,2.79.04,5.59,0,7.24-.11,1.66-.1,2.17-.27,3.34-.4,1.17-.14,2.99-.25,4.11-.34,1.12-.09,1.53-.15,4.34-.1,2.81.05,8.03.2,10.75.31s2.94.16,3.46.2h0Z"/>
    <path class="cls-2" d="m16.83,74.2c-.01.19-.02.29-.02.38,0,.09,0,.16-.01.32s0,.41,0,.66c0,.49.03.96.08,1.42.02.26.04.51.05.71,0,.2,0,.34,0,.48,0,.15-.01.29-.03.48-.01.19-.03.43-.04.61-.02.38-.02.59-.02.87,0,.44.02.87.04,1.31.02.35.04.79.06,1.16.02.37.04.68.06.9.02.22.03.36.04.47.04.38.12.76.24,1.12.08.26.19.5.33.73.15.26.37.57.61.87.19.22.39.43.57.59s.35.29.51.39c.16.1.32.19.6.28.29.08.71.16,1.13.2.13.01.26.03.53.05l.96.08c.28.02.44.04.59.05.21.02.42.05.63.08.09.02.17.03.31.06.14.03.34.07.57.13.24.05.51.12.68.16s.24.05.3.06c.14.03.28.06.41.1.04.01.07.02.1.03.05.03.09.06.13.08.04.03.07.06.1.08.17.16.17.31.13.45-.01.04-.03.08-.05.11-.03.06-.06.12-.1.17-.06.09-.13.18-.21.26-.03.02-.06.04-.1.06s-.09.03-.15.05c-.11.03-.22.04-.33.04-.18.01-.46.01-.73,0-.13,0-.26-.01-.37-.02-.11,0-.19,0-.28-.01h-.43s-1.01-.04-1.01-.04c-.32,0-.54-.01-.89-.02-.36-.01-.85-.03-1.17-.04-.32-.01-.45-.01-.57-.01s-.23,0-.49,0c-.26,0-.66,0-.92,0-.27,0-.55-.02-.82-.07-.1-.01-.2-.04-.29-.07-.16-.05-.31-.12-.46-.2-.34-.19-.67-.39-.99-.62-.06-.04-.12-.09-.17-.13-.08-.07-.16-.14-.23-.23-.07-.09-.13-.18-.17-.28-.03-.07-.05-.15-.06-.23-.02-.14-.03-.28-.03-.42,0-.19,0-.39,0-.53s-.01-.22-.02-.31c0-.08-.02-.17-.04-.31l-.07-.45c-.03-.18-.05-.36-.07-.55-.04-.34-.07-.69-.09-1.04-.01-.24-.03-.55-.05-.84-.02-.29-.03-.58-.05-1.11l-.08-1.84c-.04-.82-.08-1.64-.13-2.45-.03-.43-.05-.78-.07-1.06-.02-.23-.04-.47-.06-.7-.02-.2-.04-.4-.06-.56-.04-.3-.1-.6-.17-.89-.01-.14-.01-.27.01-.41,0-.11.02-.22.02-.34,0-.2,0-.4,0-.6-.01-.38-.02-.76-.02-1.08,0-.26,0-.52,0-.78,0-.21,0-.37,0-.5,0-.13.01-.23.02-.35,0-.11.02-.23.04-.39.02-.16.04-.35.07-.53s.05-.36.07-.48c.02-.12.02-.2.03-.29s0-.21,0-.33c0-.16-.01-.32,0-.48,0-.19.02-.43.03-.61,0-.18,0-.3,0-.43,0-.21-.03-.43-.08-.63-.06-.3-.17-.73-.24-1.08-.08-.34-.12-.59-.15-.77-.05-.35-.08-.71-.09-1.06,0-.11,0-.21.02-.32,0-.08.02-.13.04-.2.03-.07.07-.15.12-.22.02-.04.03-.08.08-.15.05-.07.13-.18.17-.26.03-.04.05-.09.07-.14.04-.12.03-.21-.06-.3-.1-.08-.22-.13-.34-.14-.08.01-.17.07-.26.19-.12.15-.16.31-.21.47-.01.05-.02.09-.05.26-.03.17-.08.46-.12.84-.04.42-.07.84-.09,1.25-.02.41-.04.76-.06,1.25-.02.49-.05,1.13-.08,1.66-.02.48-.05.95-.08,1.43-.03.48-.06,1.01-.09,1.61s-.06,1.28-.08,1.76c-.02.48-.03.76-.03,1.01l-.03.85c-.03.93-.05,1.86-.06,2.8,0,.43,0,.8,0,1.14,0,.33,0,.63,0,.92,0,.29,0,.59.01.9,0,.32.02.65.02.94.01.61.03,1.04.06,1.53.01.25.02.53.04.77s.03.45.04.62c0,.17.01.3.03.49s.04.44.07.82c.03.38.06.89.08,1.41-.01.2-.02.41-.01.55s.01.23.03.31.03.16.05.25c.03.1.07.21.14.38.07.17.18.41.44.85.26.44.65,1.09,1.07,1.72.12.02.23.04.39.06.16.03.37.07.65.1.28.04.62.07.92.09.3.02.56.03.83.04s.55.02.94,0c.4-.01.91-.04,1.42-.09.5-.05.99-.11,1.36-.16.37-.05.63-.08.88-.12.25-.03.48-.06.91-.13.43-.06,1.07-.16,1.77-.26.72-.1,1.44-.19,2.17-.26.69-.07,1.31-.11,1.93-.15.63-.03,1.26-.06,1.85-.08.59-.02,1.14-.04,1.85-.06s1.59-.02,2.9,0,3.04.06,4.31.09c1.28.04,2.09.07,2.7.1.61.03,1.01.05,1.4.08,1,.06,2,.12,2.99.2.52.04.87.07,1.13.1.26.02.43.03.67.04.24.01.57.03.9.04s.67.04,1.06.07c.38.03.81.07,1.2.11.39.03.76.06,1.1.12s.67.13,1.07.2c.4.07.89.12,1.36.16.47.04.92.08,1.39.12.47.04.95.07,1.42.09.46.03.9.05,1.44.08.53.02,1.16.05,1.75.06.56.01,1.13,0,1.69,0,.55,0,1.08-.03,1.6-.04.52-.01,1.02-.02,1.56-.02.54-.01,1.13-.03,1.58-.04.45-.01.78-.03,1.11-.03s.69.02,1.19.02,1.14,0,1.93-.06,1.76-.17,2.59-.26c.84-.08,1.55-.14,2.08-.19s.87-.09,1.2-.13c.32-.04.62-.08.91-.12.29-.04.56-.08.76-.11s.35-.05.53-.06c.18-.01.41-.02.63-.02.23,0,.45,0,.59,0s.21-.03.27-.04c.06-.01.11-.02.19-.05s.18-.1.26-.23c.08-.13.13-.33.15-.61.01-.29,0-.67-.03-1.1-.03-.43-.05-.92-.05-1.3s.02-.65.04-1.02c.02-.37.05-.83.03-1.18-.01-.35-.06-.59-.08-.81s-.01-.41,0-.6c0-.18,0-.36.01-.66,0-.66.02-1.32.04-1.99,0-.19,0-.27.02-.37.02-.1.05-.23.06-.35,0-.13,0-.27,0-.43,0-.16.02-.35.05-.57s.06-.46.08-.7.01-.47,0-.64c-.02-.17-.06-.28-.11-.37-.04-.04-.08-.09-.12-.13-.07-.06-.09-.06-.13-.07-.07,0-.13.03-.2.1,0,.03,0,.05,0,.08,0,.04,0,.08.02.12.02.06.06.16.09.24s.05.15.07.2c.03.15.03.25.01.37-.04.04-.09.06-.22.1-.13.04-.34.09-.49.13s-.24.08-.31.12c-.07.03-.13.07-.19.12-.26.21-.35.41-.43.63-.08.15-.15.31-.22.51s-.14.45-.19.65c-.04.17-.07.35-.09.53.02.17-.02.32-.12.48-.03.05-.07.1-.11.15-.08.09-.16.17-.26.24-.15.11-.38.28-.61.43-.22.12-.45.21-.64.25-.12.02-.25.03-.37.02-.24-.02-.48-.05-.71-.09-.26-.03-.51-.07-.77-.12-.15-.02-.3-.05-.46-.08-.23-.04-.47-.09-.7-.15-.12-.03-.24-.07-.35-.13-.15-.08-.29-.19-.41-.32-.05-.09-.09-.18-.13-.3s-.07-.27-.1-.54-.05-.67-.09-.95c-.04-.28-.09-.46-.14-.61s-.11-.3-.18-.44c-.17-.22-.23-.45-.2-.65,0-.05.02-.1.04-.16.02-.06.04-.13.12-.26.08-.13.21-.33.3-.48s.14-.25.18-.33c.07-.15.1-.32.08-.49.04-.1.04-.21.02-.32-.01-.08-.03-.16-.07-.23-.05-.12-.13-.3-.2-.44s-.1-.23-.12-.31c-.02-.06-.03-.11-.04-.17-.02-.19.02-.35.21-.53.19-.17.26-.35.26-.51,0-.04,0-.09-.01-.13-.01-.1-.08-.26-.17-.42,0-.05-.01-.1-.01-.16,0-.1.04-.24.1-.39.05-.13.09-.27.14-.48.05-.22.11-.51.17-.71s.11-.31.17-.4c.09-.17.21-.33.35-.46.05-.07.09-.15.13-.28.05-.13.1-.3.15-.43.05-.12.1-.2.15-.27.05-.07.11-.14.17-.2-.01-.28-.02-.55-.02-.78s0-.42.01-.56.03-.25.06-.36c0-.04.01-.08.03-.14.11-.46.22-.93.33-1.39.06-.29.11-.58.14-.82.03-.23.05-.41.04-.71-.01-.38-.04-.77-.08-1.15-.04-.17-.13-.32-.25-.45-.09-.09-.2-.17-.33-.21.45-.19.9-.39,1.34-.6.2-.09.36-.17.49-.25.12-.06.23-.13.34-.19.18-.11.25-.17.36-.31.07-.08.13-.17.18-.26.06-.11.13-.23.19-.38.06-.15.11-.32.15-.5.06.13.1.26.14.44.04.18.08.42.12.6s.09.31.14.43c.16.1.31.15.46.19.08.02.16.03.35.02.19,0,.49-.03.78-.06.07-.03.13-.07.19-.11.06-.04.12-.09.18-.14.34-.33.5-.69.25-1.03-.05-.06-.1-.1-.16-.14-.26-.26-.53-.5-.74-.67s-.38-.27-.52-.34c-.24-.13-.51-.21-.79-.24-.17,0-.34.02-.5.05-.14.02-.27.04-.41.07-.44.07-.88.11-1.19.11-.22,0-.45,0-.67-.05-.13-.03-.26-.06-.38-.11-.1-.04-.19-.08-.27-.13-.1-.05-.19-.1-.29-.15-.26-.12-.52-.22-.78-.32-.72-.22-1.43-.46-2.14-.73-.39-.15-.76-.32-1.13-.52-.23-.12-.45-.26-.66-.42-.39-.28-.76-.59-1.05-.88s-.52-.57-.67-.8c-.13-.18-.24-.38-.32-.59-.02-.08-.04-.16-.06-.24-.03-.2-.04-.4-.03-.6-.02-.16-.03-.33-.04-.49,0-.2,0-.43,0-.6,0-.16-.03-.25-.06-.34-.04-.08-.07-.15-.12-.22-.07-.12-.15-.23-.25-.34-.18-.22-.38-.43-.57-.64-.18-.2-.32-.34-.46-.48-.31-.32-.62-.63-.94-.93-.62.35-1.25.7-1.88,1.05-.26.15-.49.27-.66.36s-.29.16-.41.22c-.13.07-.26.14-.46.25s-.47.25-.76.4-.61.33-.93.52c-.31.19-.62.4-.83.52-.21.12-.32.15-.43.16l-.3.06c-.08.02-.14.03-.23.04-.1.02-.23.04-.37.06-.35.04-.69.1-1.05.18s-.75.2-1.03.29c-.22.07-.43.16-.64.27-.17.07-.34.14-.48.18-.13.05-.23.08-.31.1s-.14.04-.19.05c-.05.01-.1.03-.28.06-.18.04-.49.1-.71.15s-.35.08-.48.11c-.15.04-.3.09-.44.14-.16.06-.34.13-.63.28s-.68.37-1.06.61c-.22.14-.45.27-.66.37-.21.1-.4.16-.56.21s-.32.07-.45.09c-.13.01-.25.01-.36,0-.1,0-.2-.03-.3-.05-.17-.05-.34-.13-.48-.23-.16-.06-.31-.13-.46-.2-.13-.06-.23-.12-.32-.17s-.15-.11-.21-.17c-.06-.06-.11-.11-.16-.18-.08-.13-.17-.25-.26-.38-.06-.09-.13-.18-.21-.27-.12-.14-.26-.24-.43-.31-.08-.03-.17-.05-.26-.06-.09-.01-.27,0-.44,0-.07,0-.15-.01-.22-.03.02-.09.05-.18.07-.25.02-.08.04-.16.05-.21.02-.1,0-.21-.03-.3-.04-.1-.14-.21-.24-.28-.15-.11-.3-.23-.44-.35-.14-.12-.29-.25-.39-.35-.09-.09-.17-.18-.24-.29-.03-.09-.02-.18.02-.26.02-.04.04-.08.07-.12.03-.05.08-.1.22-.22.14-.12.38-.31.55-.45s.27-.25.35-.34c.21-.24.32-.44.4-.64.04-.08.07-.17.11-.27.04-.11.08-.24.12-.35.04-.11.09-.2.14-.29.05-.02.11-.03.17-.03.05,0,.11,0,.22.02.11.02.27.05.38.06.07.01.14.01.2,0,.12,0,.23-.05.32-.12.07-.03.13-.06.35-.22.22-.16.6-.44.9-.65.29-.21.5-.35.65-.45.16-.11.27-.18.35-.24.06-.04.11-.08.16-.13.08-.09.18-.18.2-.26,0-.02.01-.05.02-.07,0-.04,0-.09,0-.13,0-.06,0-.16-.01-.22,0-.1,0-.13.03-.18.03-.07.08-.13.14-.16.1-.01.2-.01.37,0,.17.02.4.06.58.08.31.03.46,0,.67-.07.09-.03.19-.08.33-.14l.49-.24c.12-.03.23-.07.33-.12.1-.04.18-.08.28-.15.1-.06.22-.14.33-.23.11-.07.23-.14.38-.22.24-.11.48-.21.73-.28.39-.13.98-.3,1.58-.46.28-.09.55-.18.78-.26.23-.08.42-.14.57-.2.15-.06.27-.1.38-.15.21-.1.42-.18.63-.23.21-.05.41-.09.6-.1s.35,0,.49.01c.15.02.27.05.39.09.06,0,.11-.02.16-.05.04-.02.07-.04.1-.07.05-.04.11-.11.16-.16.13-.12.21-.17.3-.18.07,0,.13,0,.2.02.05.01.11.04.2.08.09.04.21.1.3.13s.13.04.17.05c.21.03.37-.02.56-.18.02-.05.03-.11.04-.17,0-.07,0-.15-.01-.33-.02-.26-.05-.52-.09-.77.02.01.04.03.05.05.02.03.05.07.1.18.05.11.12.28.18.4.07.13.15.26.26.37.11.12.22.18.32.23.15,0,.29,0,.41,0,.18-.02.35-.07.51-.15.06-.03.12-.07.16-.1.23-.18.33-.36.4-.55,0-.06,0-.12-.03-.17-.02-.04-.05-.09-.07-.13-.04-.06-.11-.16-.16-.23-.03-.05-.06-.1-.08-.16,0,0,.02,0,.07-.01.05,0,.14,0,.2-.02s.1-.02.14-.03c.09-.03.17-.06.23-.15.03-.05.05-.1.05-.16.03-.14.06-.29.08-.43.02-.16,0-.32-.03-.48-.02-.1-.06-.19-.11-.28-.19-.33-.36-.68-.52-1.03-.13-.31-.21-.63-.22-.97,0-.2.03-.41.09-.6.06-.09.15-.15.25-.19.07-.03.18-.07.29-.1.01-.03.01-.06,0-.08-.03-.03-.22-.07-.32-.19-.02-.02-.04-.05-.06-.08.01-.02.03-.04.05-.05.03-.02.06-.04.09-.05.1-.04.26-.1.37-.19.05-.04.1-.08.15-.12,0-.03,0-.06,0-.1,0-.03-.02-.06-.03-.09-.03-.06-.06-.12-.1-.17-.04-.06-.08-.13-.11-.19-.04-.09-.04-.12-.05-.16,0-.08.01-.15.1-.22.06-.07.12-.14.16-.18.04-.05.09-.09.14-.13.06-.05.15-.13.34-.28.18-.15.46-.37.63-.52.18-.15.26-.21.32-.27.06-.06.11-.1.25-.22.14-.12.36-.32.51-.45.15-.13.3-.24.46-.35.03-.03.06-.06.17-.11.11-.05.29-.13.44-.2s.24-.13.33-.18.14-.1.2-.15c.17-.15.27-.3.35-.45.06-.14.09-.36.15-.57.03-.11.07-.21.12-.3.03-.02.07-.03.11-.03.03,0,.06,0,.09,0,.05,0,.13.03.18.04.06.01.09.02.12.02.08,0,.12,0,.18-.05.03-.04.06-.08.06-.13.04-.13.06-.26.08-.36.01-.1,0-.16,0-.21-.01-.15-.09-.29-.2-.39-.09-.07-.19-.13-.3-.16-.44-.15-.88-.31-1.32-.47-.52-.2-1.17-.45-1.61-.61-.44-.15-.68-.21-.92-.23-.12-.04-.23-.08-.34-.14-.23-.11-.49-.3-.76-.56-.02-.02-.04-.04-.08-.08-.04-.04-.11-.11-.29-.28-.25-.25-.51-.51-.76-.76-.18-.16-.35-.33-.48-.45-.1-.09-.19-.18-.29-.28-.06-.06-.13-.13-.19-.2-.09-.11-.18-.24-.25-.37-.07-.12-.11-.23-.17-.39s-.12-.36-.18-.57c-.09-.22-.2-.42-.32-.63-.15-.26-.33-.5-.53-.72-.33-.37-.67-.72-1.04-1.05-.36-.32-.72-.65-1.07-.98-.26-.25-.4-.39-.5-.51s-.18-.21-.25-.3c-.08-.09-.15-.19-.2-.3-.08-.15-.17-.38-.24-.54-.05-.12-.12-.23-.19-.34-.05-.07-.11-.14-.18-.2-.06-.06-.13-.11-.2-.16-.08-.05-.16-.1-.25-.15-.13-.03-.25-.07-.37-.12-.14-.06-.27-.15-.38-.26-.1-.1-.18-.22-.24-.34-.12-.15-.27-.28-.43-.39-.16-.1-.35-.17-.54-.21-.14-.03-.28-.04-.42-.03-.19,0-.44.03-.69.08-.06-.02-.11-.06-.17-.1-.08-.06-.15-.12-.22-.19-.09-.08-.19-.19-.26-.25-.14-.12-.2-.12-.29-.15-.16-.15-.35-.27-.55-.35-.12-.05-.25-.09-.39-.1-.25-.03-.5-.04-.75-.03-.16,0-.32,0-.58.01s-.63,0-.89.01c-.26,0-.4,0-.59.01-.19,0-.42.02-.58.02-.15,0-.3.01-.45.01-.14,0-.27,0-.38-.02s-.19-.03-.3-.05c-.12-.03-.23-.07-.35-.11-.11-.03-.22-.05-.33-.06-.14-.01-.28,0-.41.02-.25.04-.5.09-.74.15-.23.04-.47.06-.65.07s-.31,0-.44-.02-.28-.04-.42-.08c-.48-.17-.97-.31-1.47-.43-.45-.11-.91-.14-1.37-.1-.45.03-.91.05-1.36.04-.34,0-.52-.03-.66-.06-.12-.02-.23-.05-.34-.09-.08-.03-.16-.06-.23-.11-.06-.03-.12-.07-.17-.12-.12-.06-.24-.12-.36-.17-.06-.03-.13-.05-.2-.06-.07-.01-.15-.01-.22,0-.23.06-.46.1-.67.12-.19.02-.38.02-.56,0-.15,0-.3-.03-.45-.06-.15-.02-.29-.05-.43-.08-.11-.02-.24-.05-.55-.12-.32-.07-.81-.18-1.16-.26-.41-.09-.82-.17-1.23-.24-.58-.1-1.17-.17-1.76-.19-.47-.01-.75.03-1.02.09s-.54.14-.79.24c-.55.29-1.11.56-1.5.72s-.62.22-.8.26c-.15.03-.29.05-.44.06-.11.01-.22.02-.33.03-.14,0-.34,0-.66,0-.32-.01-.77-.03-1.08-.05-.44-.03-.88-.07-1.31-.12-.11-.02-.23-.04-.34-.05-.11-.02-.22-.04-.33-.07-.16-.04-.31-.08-.46-.12-.23-.07-.47-.12-.72-.16-.21-.03-.41-.04-.62-.03-.15,0-.3.02-.44.05-.1.02-.2.05-.3.1-.08.03-.15.07-.22.12-.07.01-.14.04-.21.06-.11.05-.21.11-.3.2-.04.04-.08.08-.11.12-.3.41-.59.83-.86,1.27-.22.37-.36.65-.45.86s-.14.34-.17.47c-.04.13-.07.26-.09.4-.02.14-.03.29-.03.43,0,.16.01.33.08.64s.21.77.37,1.21c0,.07-.04.14-.1.19-.02.02-.04.04-.09.07s-.14.08-.2.12c-.04.03-.09.05-.13.08-.09.07-.11.13-.12.19-.03.05-.05.1-.07.16-.03.08-.07.2-.12.38-.06.23-.12.46-.17.69-.05.15-.08.31-.09.47-.02.21-.02.49-.04.68,0,.12-.03.25-.06.37-.04.14-.12.27-.22.39-.12.16-.2.33-.26.52-.04.15-.07.29-.08.45-.02.22-.03.54-.05.77s-.06.37-.1.51c-.1.34-.19.69-.27,1.04-.04.19-.07.38-.08.57,0,.13,0,.24.02.34.03.24.13.47.29.67,0,.04-.04.09-.06.1-.01.01-.08.02-.14.04-.05.01-.09.04-.13.08-.08.1-.11.19-.15.3.02.23.03.46,0,.76-.06.68-.2,1.36-.43,2.01-.01.08-.02.16-.02.23,0,.07,0,.13.01.21.04.16.12.37.14.55,0,.05.01.1.01.15,0,.05,0,.1,0,.18-.01.1-.03.2-.05.3-.06.26-.12.52-.17.73-.05.22-.09.39-.12.53-.06.3-.09.48-.13.71-.05.31-.08.63-.11.94-.02.21-.03.45-.04.63,0,.18,0,.28,0,.38,0,.21.04.37.08.56.04.18.08.37.06.54-.02,0-.05,0-.07-.01-.04-.01-.1-.03-.14-.04-.05-.02-.11-.02-.16,0-.09.03-.1.12-.1.18,0,.01,0,.03,0,.05,0,.04,0,.07,0,.13,0,.12,0,.24.02.37.02.23.06.59.11,1.04.05.44.11.96.15,1.34s.06.63.08.85c.02.22.03.43.04.68.02.25.04.53.07.73.02.19.05.28.08.36.03.08.05.14.09.19.08.15.22.29.36.38.07.04.15.05.22.04.03,0,.05-.01.09-.03s.08-.03.17-.08c.08-.05.21-.13.29-.18s.13-.07.16-.08c.16-.06.28-.04.41.1.11.15.22.31.3.48.13.27.22.57.24.87.02.19.02.43-.02.85-.05.54-.12,1.08-.2,1.61-.04.37-.09.73-.13,1.08-.03.29-.07.59-.09.89-.02.16-.03.33-.03.49,0,.08,0,.17-.02.31s-.03.34-.08.76c-.05.42-.12,1.05-.18,1.56-.06.51-.11.88-.16,1.15-.05.32-.14.63-.27.94-.14.26-.25.54-.34.82-.16.54-.23,1.06-.2,1.57,0,.2,0,.4,0,.55s0,.23-.01.33c0,.1-.01.2-.02.31-.03.26-.05.53-.05.88,0,.35,0,.79.03,1.34s.1,1.22.14,1.62c.04.4.06.54.08.69.02.15.03.31.06.65s.07.84.1,1.17c.04.49.08.97.14,1.46.05.41.12,1.01.16,1.43.06.55.09,1.11.08,1.67,0,.29-.02.61-.04.9,0,.3-.03.58-.04.76h0Z"/>
    <path class="cls-5" d="m73.37,32.72c-1.04.51-1.63.91-2.24,1.34-.61.43-1.24.88-2.04,2.24s-1.75,3.61-2.29,5.31c-.54,1.69-.66,2.82-.71,3.57-.05.75-.03,1.12.05,1.48-.55-.73-1.41-1.21-2.59-1.23-1.18-.02-2.68.4-3.89.81-1.22.41-2.15.8-3.33,1.3-1.25.53-2.49,1.07-3.74,1.61-1.12.49-1.94.85-2.75,1.26-.81.4-1.61.85-2.03,1.22-.42.37-.45.67-.44.99,0,.32.04.66.14.97.11.31.29.59.61.84s.76.47,1.21.67.91.39,1.36.42.91-.08,1.34-.19c.51-.13,1.01-.3,1.5-.5.66-.26,1.56-.67,2.55-1.21.99-.54,2.07-1.21,3.29-1.7,1.22-.49,2.58-.8,3.63-1.16,1.05-.37,1.79-.79,2.33-1.28.54-.48.89-1.03,1.07-1.63.25.84.56,1.66.93,2.46.3.63.66,1.24,1.07,1.81.34.46.65.78,1.02,1.19.37.41.8.92,1.25,1.34.43.4.89.76,1.4,1.06.47.28.95.49,1.36.78.42.28.78.64,1.37.95.59.31,1.43.57,2.27.84s1.7.55,2.48.66c.78.11,1.48.04,2.14-.07s1.27-.24,1.76-.35c.49-.11.86-.18,1.29-.3.43-.12.93-.28,1.4-.44.5-.17.99-.36,1.47-.58.55-.25,1.2-.59,1.87-.89.68-.3,1.38-.56,1.92-.97.54-.4.9-.95,1.28-1.51.37-.56.75-1.13,1.02-1.71.27-.57.42-1.15.56-1.78.14-.63.26-1.32.39-1.98.13-.67.26-1.32.35-1.81.1-.5.16-.84.24-1.18s.21-.66.17-1.38c-.03-.72-.22-1.83-.37-2.95-.15-1.12-.25-2.24-.58-3.2-.33-.96-.89-1.75-1.79-2.63s-2.17-1.86-3.29-2.51c-1.12-.65-2.11-.97-3.12-1.22-1.01-.25-2.03-.43-3.52-.5-1.48-.07-3.43-.03-5.14.29-1.72.33-3.2.94-4.24,1.45h0Zm41.97,5.31c-.49.19-1.22.6-1.99.94-.78.34-1.6.61-3.19,1.14-1.59.53-3.94,1.31-5.72,1.97-1.78.66-2.97,1.21-3.9,1.55-.93.34-1.6.47-1.99.58-.39.11-.52.2-.68.27s-.36.1-.56.28-.38.49-.54.8c-.16.31-.29.61-.24,1.01.06.4.3.88.48,1.41.19.52.32,1.08.58,1.41.26.33.66.44.97.52.31.09.54.15.9.09.37-.06.88-.26,1.41-.45.53-.19,1.09-.36,2.47-.95,1.38-.58,3.6-1.57,5.25-2.23,1.65-.66,2.73-1,3.87-1.4s2.37-.86,3.26-1.2c.89-.34,1.46-.55,2.33-.79.86-.23,2.02-.49,2.78-.71s1.11-.4,1.43-.63.6-.5.76-.8c.15-.31.18-.65.18-1,0-.35-.02-.7-.17-.96-.16-.26-.45-.44-.77-.6-.32-.16-.67-.32-1.28-.44s-1.47-.21-2.19-.18c-.71.04-1.27.2-1.66.25-.39.05-.6,0-.84-.03s-.48-.05-.97.15h0Zm-23.02,22.26c0,.58.26,1.12.51,1.58.26.45.52.82,1.15,1.33.63.51,1.64,1.18,2.63,1.89.98.72,1.93,1.49,3.7,2.83,1.77,1.35,4.35,3.27,6.01,4.39,1.66,1.13,2.38,1.46,3.14,1.78.75.33,1.53.65,2.09.75.56.1.89-.02,1.2-.14.31-.13.59-.26.82-.45.23-.19.42-.45.49-.83s.01-.9-.13-1.33c-.15-.43-.38-.78-.98-1.47-.6-.68-1.55-1.7-2.66-2.68-1.11-.98-2.39-1.92-3.82-2.85-1.44-.93-3.04-1.85-4.57-2.83-1.53-.98-2.99-2.02-4.05-2.76-1.06-.74-1.71-1.19-2.21-1.53-.38-.26-.76-.53-1.14-.81-.6.34-1.11.81-1.52,1.36-.39.55-.65,1.16-.65,1.75h0Zm-14.14,7.32c-.31,1.16-.58,2.34-.81,3.52-.21,1.12-.31,2.02-.51,3-.2.98-.5,2.05-.65,2.7-.15.65-.15.88-.19,1.09-.05.2-.15.38-.14.61s.11.52.22.81c.11.29.22.59.47.81s.61.34.91.43c.3.1.53.16.81.13.34-.04.66-.2.9-.45.28-.28.51-.72.71-1.12.2-.4.39-.75.56-1.23.17-.48.33-1.09.56-1.9.23-.81.52-1.81.87-2.78.35-.96.75-1.87.9-2.53.16-.65.07-1.05.12-1.47.05-.42.24-.86.26-1.44s-.11-1.28-.26-1.76c-.15-.47-.3-.71-.62-.89-.32-.18-.8-.3-1.38-.3-.58,0-1.26.14-1.72.57-.46.43-.71,1.14-.99,2.18h0Z"/>
    <path class="cls-6" d="m60.85,11.32c-.2.16-.36.47-.5.81s-.23.73-.2,1.09.17.69.45.94c.28.25.68.42,1.06.63s.72.46,1.26.65c.54.2,1.28.34,1.8.34.53,0,.84-.12,1.1-.27.26-.15.47-.33.71-.36s.48.08.85.17c.37.1.87.18,1.25.21s.65.03.96-.05c.31-.08.67-.22.95-.34.27-.12.47-.2.66-.16s.39.2.61.32c.22.13.47.22.8.26.33.04.74.03,1.2-.02.46-.05.97-.14,1.78-.16.81-.02,1.93.03,2.61.07s.94.08,1.22.09c.27,0,.57-.03.87.08s.61.36.83.69c.23.32.36.72.33,1s-.24.45-.39.65c-.15.21-.24.46-.25.92,0,.46.07,1.14.1,1.92s.03,1.65.03,2.31,0,1.12,0,1.5c-.01.37-.04.73-.09,1.1-.05.46-.12.92-.2,1.37-.08.46-.18.88-.23,1.2-.04.32-.02.54-.08.78-.06.24-.18.49-.18.68.01.19.16.33.36.41.2.09.46.12.72.11.27,0,.54-.07.79-.17.25-.1.46-.25.73-.26.27,0,.59.12,1.04.15.45.04,1.02-.02,1.43-.07.41-.05.66-.09.9-.14s.48-.12.6-.3c.12-.18.12-.48.07-.73-.05-.26-.15-.48-.12-.68.03-.21.2-.4.35-.62s.29-.48.32-1.21c.03-.74-.05-1.96-.12-2.97s-.13-1.8-.22-2.31-.19-.76-.31-1.18-.26-1.04-.34-1.9c-.08-.88-.11-1.77-.09-2.66.02-.69.1-.97-.06-1.35-.15-.37-.53-.84-.93-1.29-.4-.45-.81-.87-1.35-1.15-.54-.28-1.21-.42-2.07-.5-.86-.08-1.92-.12-2.54,0s-.82.41-1.08.49c-.26.08-.6-.05-.98-.18-.37-.14-.78-.29-1.15-.34-.34-.05-.69,0-1.01.12-.31.12-.59.29-.91.3s-.7-.16-1.06-.32c-.37-.16-.73-.31-1.15-.34-.42-.03-.9.08-1.81.19-.91.11-2.26.22-3.29.16-1.03-.07-1.75-.31-2.48-.28-.73.03-1.48.34-1.96.44-.49.1-.72,0-.95-.03-.23-.03-.45,0-.65.16h0Z"/>
    <path class="cls-4" d="m68.98,16.58c-.21.05-.41.2-.59.39-.19.19-.36.42-.37.77,0,.35.15.81.34,1.26s.43.89.54,1.22c.11.33.08.53.07.75s0,.45.15.7.45.55.68.8c.23.25.38.47.57.83.19.36.41.87.64,1.23.23.36.48.57.71.8s.43.49.67.62c.23.13.49.15.75.16.26.01.53.02.75.18s.42.48.62.8.43.64.57,1.08c.15.45.22,1.02.45,1.33.23.31.64.36.92.4.28.04.45.08.61.15.17.07.33.18.52.13s.4-.28.66-.46c.28-.2.59-.34.92-.43.37-.1.75-.13,1.12-.11.11-.7.22-1.39.31-1.99s.18-1.08.23-1.48c.06-.4.09-.71.1-1.53.01-.82.01-2.14,0-2.95-.02-.81-.05-1.09-.08-1.37-.03-.28-.04-.57-.06-.85-.15-.26-.28-.52-.4-.79-.15-.33-.33-.76-.52-1.02-.19-.26-.4-.34-.61-.43-.21-.1-.41-.21-.64-.18-.23.02-.48.18-.77.28-.29.11-.61.17-.99.14-.38-.03-.83-.15-1.36-.19-.53-.04-1.15,0-1.79-.1-.63-.1-1.29-.35-1.9-.35-.61,0-1.18.24-1.55.32s-.51,0-.69-.07c-.18-.06-.4-.11-.61-.05h0Z"/>
  </g>
  <g>
    <path class="cls-1" d="m33.71,108.88h8.19v1.38h-6.71v3.41h6.2v1.3h-6.2v3.81h6.82v1.34h-8.3v-11.23Z"/>
    <path class="cls-1" d="m44.37,108.88h2.18l3.23,9.5,3.2-9.5h2.16v11.23h-1.45v-6.63c0-.23,0-.61.02-1.14s.02-1.1.02-1.71l-3.2,9.47h-1.51l-3.23-9.47v.34c0,.28,0,.69.02,1.26s.02.98.02,1.24v6.63h-1.45v-11.23Z"/>
    <path class="cls-1" d="m57.8,108.88h2.18l3.23,9.5,3.2-9.5h2.16v11.23h-1.45v-6.63c0-.23,0-.61.02-1.14s.02-1.1.02-1.71l-3.2,9.47h-1.51l-3.23-9.47v.34c0,.28,0,.69.02,1.26s.02.98.02,1.24v6.63h-1.45v-11.23Z"/>
    <path class="cls-1" d="m74.54,108.88h1.72l4.08,11.23h-1.67l-1.14-3.36h-4.44l-1.22,3.36h-1.56l4.23-11.23Zm2.5,6.63l-1.71-4.96-1.81,4.96h3.52Z"/>
    <path class="cls-1" d="m83.77,108.88v6.94c0,.82.15,1.49.46,2.03.45.82,1.22,1.22,2.29,1.22,1.29,0,2.17-.44,2.63-1.32.25-.48.37-1.12.37-1.93v-6.94h1.54v6.31c0,1.38-.19,2.44-.56,3.19-.68,1.36-1.97,2.03-3.87,2.03s-3.18-.68-3.86-2.03c-.37-.74-.56-1.81-.56-3.19v-6.31h1.54Zm1.08-2.66h1.43v1.59h-1.43v-1.59Zm2.52,0h1.43v1.59h-1.43v-1.59Z"/>
    <path class="cls-1" d="m94.81,116.49c.04.64.19,1.15.45,1.55.5.74,1.39,1.12,2.67,1.12.57,0,1.09-.08,1.56-.24.91-.32,1.36-.88,1.36-1.7,0-.61-.19-1.05-.57-1.31-.39-.25-.99-.48-1.82-.67l-1.52-.34c-.99-.22-1.7-.47-2.11-.74-.71-.47-1.07-1.17-1.07-2.1,0-1.01.35-1.84,1.05-2.49s1.69-.97,2.97-.97c1.18,0,2.18.28,3,.85s1.23,1.48,1.23,2.73h-1.43c-.08-.6-.24-1.06-.49-1.38-.46-.59-1.25-.88-2.36-.88-.9,0-1.54.19-1.93.57s-.59.82-.59,1.32c0,.55.23.95.69,1.21.3.16.98.37,2.04.61l1.58.36c.76.17,1.35.41,1.76.71.71.53,1.07,1.29,1.07,2.29,0,1.24-.45,2.13-1.36,2.67s-1.96.8-3.15.8c-1.4,0-2.49-.36-3.28-1.07-.79-.71-1.18-1.67-1.16-2.88h1.43Z"/>
  </g>
  <rect class="cls-3" x="-1051.28" y="-260.19" width="1951.05" height="522.43"/>
</svg>