<?xml version="1.0" encoding="UTF-8"?>
<svg id="Calque_1" data-name="Calque 1" xmlns="http://www.w3.org/2000/svg" viewBox="0 0 200 128">
  <defs>
    <style>
      .cls-1, .cls-2, .cls-3, .cls-4, .cls-5 {
        stroke-linecap: round;
        stroke-linejoin: round;
      }

      .cls-1, .cls-3, .cls-4, .cls-6, .cls-7 {
        stroke: #000;
      }

      .cls-1, .cls-6 {
        fill: #fff;
      }

      .cls-2 {
        stroke: #ff6d75;
      }

      .cls-2, .cls-3, .cls-5, .cls-8 {
        fill: none;
      }

      .cls-4 {
        fill: #fab0b4;
      }

      .cls-9 {
        fill: #ff6d75;
      }

      .cls-6, .cls-7, .cls-8 {
        stroke-miterlimit: 10;
      }

      .cls-7 {
        fill: #87ccf3;
      }

      .cls-5 {
        stroke: #fff;
        stroke-width: 8px;
      }

      .cls-8 {
        stroke: #231f20;
      }
    </style>
  </defs>
  <path class="cls-6" d="m148.5,40.93s.16-.23.44-.49c1.23-1.16,3.72-1.45,4.52,1.27.55,1.86-1.84,5.95-1.54,6.75,0,0-6.34-3.22-3.42-7.53Z"/>
  <path class="cls-6" d="m180.47,54.08s.02-.28-.02-.66c-.21-1.68-1.95-3.49-4.3-1.9-1.61,1.09-2.36,5.76-3.1,6.19,0,0,6.94,1.55,7.43-3.64Z"/>
  <path class="cls-7" d="m139.28,68.17c-1.93,2.38-6.41,8.24-6.51,11.53,0,.06-.04.11-.11.12-1.22.06-12.44.94-12.12,13.41,0,.09-.08.16-.16.13-1.03-.39-6.38-2.19-5.37,2.56,0,.02.02.05.03.07.41.44,5.84,6.07,9.39,3.92.02-.01.04-.04.06-.06.31-.65,4.63-9.53,11.51-6.42,0,0,11.97,2.53,6.25,11.73-.01.02-.03.04-.05.05-.42.24-5.3,3.18-.66,7.59,0,0,8.07,8.07,6.69,0l-1.09-3.06c-.03-.08.02-.17.11-.18,1-.05,6.08-.57,8.36-5.76h0s2.5-7.28.06-10.54c-.03-.04-.04-.09,0-.13.61-.74,6.45-7.97,6.45-12.82,0-.14.18-.18.24-.06.85,1.68,3.75,5.73,11.01,2.56,8.4-3.66,8.35-5.91,8.31-6.2,0-.02,0-.04-.02-.05l-3.16-4.74s-.08-.07-.13-.06c-.74.19-6.24,1.6-8.04,3.09-.1.08-.24-.01-.21-.14.47-1.67,1.06-6.69-6.66-11.97,0,0-5.42-5.36-16.18-6.38-1.54-.15-3.13.15-4.4,1.04-.66.46-1.23,1.06-1.45,1.83-.04.14-.22.14-.25,0-.41-1.98-1.65-7.34-3.49-8.9-.03-.03-.08-.04-.12-.03l-5.37,1.34c-.06.01-.1.06-.1.12-.06,1.09-.58,11.56,1.39,13.75,1.85,2.06,2.97,4.3,5.64,2.47.13-.09.28.07.18.19Z"/>
  <path class="cls-1" d="m132.93,46.94s-1.46-4.95-1.61-2.03.06,5.23.76,6.77l5.54-1.38s1.26-2.3.59-3.48c-.19-.34-.7-.3-.85.07-.2.47-.43,1.12-.43,1.57,0,0,1.04-3.73.14-4.98-.25-.35-.81-.23-.91.19-.21.85-.52,2.42-.3,3.39,0,0,.02-2.6-.45-3.97-.14-.4-.71-.4-.83,0-.29.91-.6,2.45.04,3.71,0,0-.76-4.01-1.22-3.97-1,.1-.45,4.12-.45,4.12Z"/>
  <path class="cls-1" d="m184.49,72.52s4.6-2.34,2.59-.22c-2.02,2.12-3.84,3.54-5.44,4.1l-3.12-4.72s1.13-2.75,2.44-3.07c.38-.09.7.31.54.67-.21.46-.52,1.08-.85,1.39,0,0,2-3.31,3.52-3.52.43-.06.73.43.49.79-.48.73-1.4,2.04-2.26,2.55,0,0,1.87-1.8,3.19-2.4.39-.18.77.24.57.61-.46.84-1.37,2.12-2.73,2.52,0,0,3.44-2.2,3.73-1.84.61.79-2.68,3.15-2.68,3.15Z"/>
  <path class="cls-6" d="m164.9,61.59s-3.84,6.07-9.84,1.92c0,0-4.84-2.77-1.69-6.77l11.53,4.84Z"/>
  <path class="cls-8" d="m139.45,89.5s11.42-19.76,15.61-25.98"/>
  <path class="cls-6" d="m151.24,40.41c-1.57,6.39-4.8,11.99.23,15.12,4.54,2.83,15.13,9.61,18.54,7.44,5.2-3.3,22.42-23.29,1.05-31.4-.26-.1-6.84-3-9.47-2.72-4.44.48-8.52,4.12-10.34,11.55Z"/>
  <path d="m161.5,52.74c-.17.01-.34-.07-.45-.22-.33-.49-.47-1.03-.37-1.49.07-.33.26-.61.54-.77.29-.17.59-.2.83-.23.27-.03.42-.05.58-.17.23-.18.36-.72.39-1.05.03-.27.27-.48.54-.46.28.02.48.26.46.54-.01.12-.12,1.24-.77,1.75-.39.31-.8.35-1.1.38-.17.02.05.3,0,.41-.01.02-.47-.28-.49-.19-.03.14,0,.41.21.71.16.23.1.54-.13.7-.08.05-.16.08-.25.09Z"/>
  <path class="cls-3" d="m155.68,44.17s1.66,2.56,3.9,2.19"/>
  <path class="cls-3" d="m171.84,52.72s-3.05-.2-3.81-2.34"/>
  <path class="cls-3" d="m157.63,54.42s.97,2.33,4.2,1.85"/>
  <path class="cls-3" d="m152.3,37.1s4.64,3.27,15.82,1.17"/>
  <path class="cls-3" d="m168.03,34.36s-2.08,10.72,11.59,17.32"/>
  <g>
    <path d="m145.29,20.99l5.29-6.69h-5.16v-1.83h7.84v1.73l-5.36,6.79h5.37v1.83h-7.99v-1.83Z"/>
    <path d="m153.98,21.45l3.97-5.02h-3.87v-1.37h5.88v1.3l-4.02,5.09h4.03v1.37h-5.99v-1.37Z"/>
    <path d="m160.52,21.67l3.3-4.18h-3.22v-1.15h4.9v1.08l-3.35,4.24h3.36v1.14h-4.99v-1.14Z"/>
    <path d="m166.1,19.05v-1.02h3.78v1.04l-2.35,2.72h2.43v1.03h-4.03v-.97l2.37-2.79h-2.2Z"/>
  </g>
  <path class="cls-6" d="m46.04,38.68s.16-.23.44-.49c1.23-1.16,3.72-1.45,4.52,1.27.55,1.86-1.84,5.95-1.54,6.75,0,0-6.34-3.22-3.42-7.53Z"/>
  <path class="cls-6" d="m78.01,51.83s.02-.28-.02-.66c-.21-1.68-1.95-3.49-4.3-1.9-1.61,1.09-2.36,5.76-3.1,6.19,0,0,6.94,1.55,7.43-3.64Z"/>
  <path class="cls-7" d="m36.82,65.92c-1.93,2.38-6.41,8.24-6.51,11.53,0,.06-.04.11-.11.12-1.22.06-12.44.94-12.12,13.41,0,.09-.08.16-.16.13-1.03-.39-6.38-2.19-5.37,2.56,0,.02.02.05.03.07.41.44,5.84,6.07,9.39,3.92.02-.01.04-.04.06-.06.31-.65,4.63-9.53,11.51-6.42,0,0,11.97,2.53,6.25,11.73-.01.02-.03.04-.05.05-.42.24-5.3,3.18-.66,7.59,0,0,8.07,8.07,6.69,0l-1.09-3.06c-.03-.08.02-.17.11-.18,1-.05,6.08-.57,8.36-5.76h0s2.5-7.28.06-10.54c-.03-.04-.04-.09,0-.13.61-.74,6.45-7.97,6.45-12.82,0-.14.18-.18.24-.06.85,1.68,3.75,5.73,11.01,2.56,8.4-3.66,8.35-5.91,8.31-6.2,0-.02,0-.04-.02-.05l-3.16-4.74s-.08-.07-.13-.06c-.74.19-6.24,1.6-8.04,3.09-.1.08-.24-.01-.21-.14.47-1.67,1.06-6.69-6.66-11.97,0,0-5.42-5.36-16.18-6.38-1.54-.15-3.13.15-4.4,1.04-.66.46-1.23,1.06-1.45,1.83-.04.14-.22.14-.25,0-.41-1.98-1.65-7.34-3.49-8.9-.03-.03-.08-.04-.12-.03l-5.37,1.34c-.06.01-.1.06-.1.12-.06,1.09-.58,11.56,1.39,13.75,1.85,2.06,2.97,4.3,5.64,2.47.13-.09.28.07.18.19Z"/>
  <path class="cls-1" d="m30.47,44.69s-1.46-4.95-1.61-2.03c-.15,2.92.06,5.23.76,6.77l5.54-1.38s1.26-2.3.59-3.48c-.19-.34-.7-.3-.85.07-.2.47-.43,1.12-.43,1.57,0,0,1.04-3.73.14-4.98-.25-.35-.81-.23-.91.19-.21.85-.52,2.42-.3,3.39,0,0,.02-2.6-.45-3.97-.14-.4-.71-.4-.83,0-.29.91-.6,2.45.04,3.71,0,0-.76-4.01-1.22-3.97-1,.1-.45,4.12-.45,4.12Z"/>
  <path class="cls-1" d="m82.03,70.27s4.6-2.34,2.59-.22c-2.02,2.12-3.84,3.54-5.44,4.1l-3.12-4.72s1.13-2.75,2.44-3.07c.38-.09.7.31.54.67-.21.46-.52,1.08-.85,1.39,0,0,2-3.31,3.52-3.52.43-.06.73.43.49.79-.48.73-1.4,2.04-2.26,2.55,0,0,1.87-1.8,3.19-2.4.39-.18.77.24.57.61-.46.84-1.37,2.12-2.73,2.52,0,0,3.44-2.2,3.73-1.84.61.79-2.68,3.15-2.68,3.15Z"/>
  <path class="cls-6" d="m62.44,59.34s-3.84,6.07-9.84,1.92c0,0-4.84-2.77-1.69-6.77l11.53,4.84Z"/>
  <path class="cls-8" d="m36.99,87.25s11.42-19.76,15.61-25.98"/>
  <path class="cls-6" d="m48.78,38.16c-1.57,6.39-4.8,11.99.23,15.12,4.54,2.83,15.13,9.61,18.54,7.44,5.2-3.3,22.42-23.29,1.05-31.4-.26-.1-6.84-3-9.47-2.72-4.44.48-8.52,4.12-10.34,11.55Z"/>
  <path d="m59.69,48.77s.02,0,.04,0c.3-.03.69-.08,1.06-.38.65-.51.76-1.63.77-1.75.02-.28-.18-.52-.46-.54-.27-.02-.52.18-.54.46-.03.33-.16.87-.39,1.05-.15.12-.31.15-.58.17-.24.02-.54.05-.83.23-.28.16-.47.44-.54.77-.1.46.03,1,.37,1.49.11.15.28.23.45.22.09,0,.17-.04.25-.09.23-.16.29-.47.13-.7-.21-.29-.25-.56-.21-.71,0,0,.08-.23.36-.23h.13Z"/>
  <path class="cls-3" d="m49.84,34.85s4.64,3.27,15.82,1.17"/>
  <path class="cls-3" d="m65.57,32.11s-2.08,10.72,11.59,17.32"/>
  <g>
    <path d="m24.66,23.77l5.29-6.69h-5.16v-1.83h7.84v1.73l-5.36,6.79h5.37v1.83h-7.99v-1.83Z"/>
    <path d="m33.35,24.23l3.97-5.02h-3.87v-1.37h5.88v1.3l-4.02,5.09h4.03v1.37h-5.99v-1.37Z"/>
    <path d="m39.89,24.46l3.3-4.18h-3.22v-1.15h4.9v1.08l-3.35,4.24h3.36v1.14h-4.99v-1.14Z"/>
    <path d="m45.46,21.83v-1.02h3.78v1.04l-2.35,2.72h2.43v1.03h-4.03v-.97l2.37-2.79h-2.2Z"/>
  </g>
  <g>
    <line class="cls-2" x1="96.64" y1="55.68" x2="115.13" y2="55.68"/>
    <polygon class="cls-9" points="111.82 59.77 111.13 59.04 114.75 55.68 111.13 52.33 111.82 51.59 116.21 55.68 111.82 59.77"/>
  </g>
  <ellipse cx="54.5" cy="43.39" rx="1.6" ry=".66" transform="translate(-5.94 78.01) rotate(-68.33)"/>
  <ellipse cx="67.5" cy="49.43" rx="1.6" ry=".66" transform="translate(-3.36 93.91) rotate(-68.33)"/>
  <ellipse class="cls-4" cx="57.23" cy="53.52" rx="1.41" ry="3.2" transform="translate(-14.81 84.34) rotate(-66.24)"/>
  <g>
    <line class="cls-2" x1="27.42" y1="11.62" x2="45.02" y2="29.23"/>
    <line class="cls-2" x1="27.42" y1="29.23" x2="45.02" y2="11.62"/>
  </g>
  <rect class="cls-5" x="-5888.39" y="-5822" width="6467.34" height="6437.3"/>
</svg>