<?xml version="1.0" encoding="UTF-8"?>
<svg id="Calque_1" data-name="Calque 1" xmlns="http://www.w3.org/2000/svg" viewBox="0 0 200.13 128.13">
  <defs>
    <style>
      .cls-1 {
        fill: #d6d6d6;
      }

      .cls-1, .cls-2, .cls-3, .cls-4, .cls-5, .cls-6, .cls-7, .cls-8, .cls-9, .cls-10, .cls-11 {
        stroke: #000;
      }

      .cls-1, .cls-2, .cls-3, .cls-4, .cls-5, .cls-6, .cls-7, .cls-12 {
        stroke-linecap: round;
        stroke-linejoin: round;
      }

      .cls-2 {
        fill: #afaff9;
      }

      .cls-3 {
        fill: #baa584;
      }

      .cls-4 {
        fill: #fee4cb;
      }

      .cls-5, .cls-9, .cls-13 {
        fill: #fff;
      }

      .cls-6, .cls-7, .cls-12, .cls-11 {
        fill: none;
      }

      .cls-7 {
        stroke-dasharray: 0 0 3 3;
      }

      .cls-8 {
        fill: #ff6d75;
      }

      .cls-8, .cls-9, .cls-13, .cls-10, .cls-11 {
        stroke-miterlimit: 10;
      }

      .cls-13 {
        stroke: #1d1d1b;
      }

      .cls-10 {
        fill: #87ccf3;
      }

      .cls-12 {
        stroke: #fff;
        stroke-width: 8px;
      }
    </style>
  </defs>
  <g>
    <circle class="cls-4" cx="145.13" cy="66.13" r="43.24"/>
    <path class="cls-5" d="m172.73,99.55s1.56,6.36,2.72,7.36c1.16,1,4.95,2.91,3.96,3.11-.99.21-8.33.38-8.13-.85.2-1.22.41-2,.41-2l-1.94-4.54,2.98-3.08Z"/>
    <circle class="cls-4" cx="41.51" cy="62.23" r="29.76"/>
    <path class="cls-5" d="m58.94,41.87l5.34,3.14s.18,1.29,1.31,5.66c2.26-.32,8.53-2.83,8.84-2.94.31-.11,1.95-4.28,2.34-3.94.4.34-.9,2.19-.39,2.47.51.29,5.36-1.72,5.34-1.3-.03.79-2.93,1.35-2.88,1.72.05.37,3-.9,3.28-.33.28.56-2.88.91-2.97,1.21-.09.3,2.98.11,2.75.75-.13.35-2.73.09-2.67.51.07.42,2.01.96,1.83,1.34-.18.39-1.56-.7-2.62-.48-1.06.22-1.9-.22-3.52.69-1.62.9-9.84,6.3-11.72,5.21-1.64-.95-4.25-13.73-4.25-13.73Z"/>
    <line class="cls-7" x1="89.4" y1="4.45" x2="89.4" y2="123.68"/>
    <path class="cls-5" d="m131.72,105.41s-.24,2.04-.24,2.38v.35s.17.35.17.35l.07.14-1.22,1.71s-4.89.07-5,.07.65-1.18.65-1.18c0,0,1.62-1.22,1.91-2.07.29-.85-.25-2.64-.25-2.64l3.9.89Z"/>
    <path class="cls-5" d="m155.29,93.23s1.74,1.08,2.01,1.3l.27.21.17.35.07.14,2.1.11s3.1-3.79,3.17-3.87c.07-.09-.89.13-.89.13,0,0-1.96.26-2.81-.04-.85-.3-2.57-2-2.57-2l-1.52,3.67Z"/>
    <path class="cls-5" d="m139.46,74.13l18.76,15.98-2.89,4.09s-19.28-11.97-20.29-12.11c-1.01-.14-1.83.33-2.02,1.06-.19.74-.68,22.83-.68,22.83h-5.01s-2.61-27.81-2.61-27.81l14.73-4.04Z"/>
    <path class="cls-13" d="m113.01,51.64c-1.34-.98-4.42-4.64-5.46-5.88,0-.14-.07-.95-.9-2.03-.59-.76-.98-2.44-1.42-1.99-.43.45.52,1.81.05,1.8-.47-.01-2.65-2.74-3.05-2.33-.39.41,1.84,2.84,1.42,2.83-.42-.01-2.21-2.45-2.77-1.88-.56.57,2.38,2.68,2.08,2.98-.3.31-2.11-1.06-2.56-.6-.45.46,2.57,1.76,2.32,1.75-.25,0-2.02-.14-2.05.2-.03.39,4.43,1.21,4.95,1.91h0c1.08,1.93,3,5.45,5.05,7.06,2.5,1.97,8.3,6.16,8.3,6.16l3.17-3.7s-7.54-5.12-9.13-6.28Z"/>
    <g>
      <path class="cls-5" d="m139.94,47.12c1.1-1.24,3.33-5.47,4.09-6.91-.03-.14-.14-.95.45-2.17.42-.87.44-2.59.96-2.24s-.12,1.88.33,1.77c.45-.11,2.01-3.24,2.48-2.92.47.31-1.2,3.17-.79,3.07.41-.1,1.64-2.87,2.3-2.43.67.44-1.75,3.12-1.39,3.36.36.24,1.84-1.49,2.37-1.13.54.36-2.13,2.26-1.9,2.2.24-.06,1.94-.57,2.04-.24.12.37-4.08,2.13-4.43,2.92h0c-.65,2.12-1.77,5.97-3.43,7.97-2.03,2.45-6.8,7.78-6.8,7.78l-3.88-2.94s6.28-6.61,7.59-8.08Z"/>
      <path class="cls-5" d="m145.99,38.36c.17.19.28.42.36.65,0,.04.32.79-.18,1.56.13-.55.27-1.16-.18-2.21Z"/>
    </g>
    <path class="cls-3" d="m136.79,49.96l3.5,4.57-4.35,6.47s.41,4.81,1.04,6.31c.63,1.5,4.25,7.66,4.25,7.66,0,0-8.81,5.4-17.43,4.61,0,0-2.43-12.49-3.11-13.69-.68-1.2-7.25-7.14-7.25-7.14l3.19-5.15,5.51,3.05s10.07-1.63,10.55-2.11c.48-.48,4.09-4.57,4.09-4.57Z"/>
    <path class="cls-5" d="m119.53,48.47c-1.63,3.13.8,3.71.8,3.71,1.08,3.2,4.62,2.17,4.62,2.17,0,0,.51.53,2.5.84,2,.31,2.66-1.02,2.66-1.02,4.38-.23,3.53-3.98,3.53-3.98,1.94-3.99-1.13-5.53-1.13-5.53.53-3.17-2.53-2.86-2.53-2.86-1.16-2.98-4.56-1.18-4.56-1.18-3.83-1.56-4.27,2.58-4.27,2.58-3.74,1.22-1.62,5.27-1.62,5.27Zm3.07-.12c.21-.08.44-.05.66.06-.09-.87,0-1.72.16-2.43,4.45.4,5.94-3.04,5.94-3.04,1.17.69,1.88,1.99,2.25,3.41.16-.16.35-.27.55-.28.55-.03,1.03.62,1.07,1.44.03.82-.38,1.5-.93,1.53-.13,0-.24-.02-.34-.08-.03,2.96-2.55,6-6,3.98-.93-.54-1.57-1.27-2-2.07-.09.12-.21.22-.34.27-.53.19-1.16-.28-1.44-1.05-.28-.78-.09-1.55.43-1.73Z"/>
    <path class="cls-5" d="m122.17,50.08c.28.77.91,1.24,1.44,1.05.13-.05.25-.15.34-.27.43.8,1.07,1.53,2,2.07,3.44,2.02,5.96-1.02,6-3.98.1.06.22.09.34.08.55-.03.97-.71.93-1.53-.04-.82-.52-1.47-1.07-1.44-.2,0-.39.12-.55.28-.37-1.41-1.08-2.72-2.25-3.41,0,0-1.48,3.43-5.94,3.04-.16.72-.24,1.56-.16,2.43-.22-.11-.45-.14-.66-.06-.52.18-.71.96-.43,1.73Z"/>
    <path class="cls-5" d="m129.34,52.93c0,.05.44,1.95.68,2.96.09.37-.1.76-.45.92-.93.43-2.77,1.02-4.04-.13-.12-.1-.18-.26-.17-.41l.16-4.53,3.84,1.2Z"/>
    <path class="cls-5" d="m122.17,50.08c.28.77.91,1.24,1.44,1.05.13-.05.25-.15.34-.27.43.8,1.07,1.53,2,2.07,3.44,2.02,5.96-1.02,6-3.98.1.06.22.09.34.08.55-.03.97-.71.93-1.53-.04-.82-.52-1.47-1.07-1.44-.2,0-.39.12-.55.28-.37-1.41-1.08-2.72-2.25-3.41,0,0-1.48,3.43-5.94,3.04-.16.72-.24,1.56-.16,2.43-.22-.11-.45-.14-.66-.06-.52.18-.71.96-.43,1.73Z"/>
    <path class="cls-5" d="m132.61,111.59c.75-.09-.54-2.68-.96-3.1l-5.5.74s-2.65,1.23-3.27,1.85c-.15.15-.17.41.48.51,2.07.31,7.59.21,9.25,0Z"/>
    <path class="cls-5" d="m159.63,97.81c-.65.39-1.82-2.13-1.89-2.72l4.44-3.49s3.42-.98,4.11-.29c.63.63-5.2,5.62-6.67,6.5Z"/>
    <path class="cls-5" d="m158.61,52.39c6.76.9,4.33-7.05,3.68-8.11-.65-1.05.07-.85-1.27-2.96-1.35-2.11-3.43-1.35-3.43-1.35-1.09-.51-4.94-.59-5.84,1.52-.91,2.11-1.76,3.3-2.78,5.27,0,0-1.99,4.97,5.47,6.53"/>
    <path class="cls-5" d="m165.86,46.27s-.78-.37-1.48-1.68c-.45-.84-1.8-1.91-1.24-2.09.56-.17,1.42,1.24,1.58.84.16-.41-1.44-3.47-.93-3.63.51-.16,1.84,2.83,1.98,2.46.14-.36-1.36-2.97-.64-3.19.72-.22,1.49,3.21,1.88,3.09.38-.12-.18-2.74.4-2.92.58-.18.5,3.24.7,3.14.11-.05.62-1.71.94-1.58.35.14-.6,3.54-.18,4.29.42.75,3.83,10.06,2.66,11.22-1.27,1.27-9.33,4.17-11.02,3.67-1.69-.5-2.65-2.17-2.25-3.19.41-1.03,8.38-3.33,8.5-3.65.13-.32-.91-6.78-.91-6.78Z"/>
    <path class="cls-5" d="m155.61,104.89s-.16,1.61-.16,2.32.66,2.71.35,3.01c-.31.31-9.05.27-9.05-.02s1.54-1.16,3.64-1.76c2.1-.6,2.81-2.93,2.27-4.26l2.95.71Z"/>
    <path class="cls-5" d="m165.1,78l1.57,1.39s1.77,4.78,1.87,5.09c.14.44,5.86,18.87,5.86,18.87l-3.98,1.43s-3.95-7.69-4.6-10.37c-.65-2.67-7.2-13.85-7.2-13.85l6.49-2.56Z"/>
    <path class="cls-5" d="m158.18,80.83l-1.91,24.42h-4.42s-1.58-18.28-1.04-24.69l7.36.27Z"/>
    <path class="cls-3" d="m150.43,56.24s2.81-.74,6-.91c1.65-.09,3.87.26,3.87.26,0,0,2.02,4.53,2.62,8.24.6,3.71,3.87,15.6,3.87,15.6,0,0-6.65,5.13-16.36,1.75v-24.93Z"/>
    <path class="cls-5" d="m158,52.18s-.09,2.9.18,3.17c.27.27.65.72.25,1.41-.4.69-2.14.25-2.95-.15-.78-.38-1.28-1.09-1.28-1.09l.41-4.59,3.38,1.24Z"/>
    <path class="cls-5" d="m160.14,50.76c-1.38,2.51-3.14,1.89-3.87,1.64-.72-.26-2.16-.82-2.89-3.17-.06-.21-.12-.43-.16-.68-.05.28-.21.53-.56.56-.86.09-1.66-2.48-.62-2.81.68-.22.95.41,1.06.89,0-2.48,1.05-5.45,4.21-5.08,0,0,1.63-.03,2.47,1.23.84,1.28,1.74,4.91.36,7.42Z"/>
    <path class="cls-5" d="m150.43,56.24s-1.27.11-1.42,2.59c-.06.98-2.55,15.18,1.47,18.43l-.05-21.02Z"/>
    <line class="cls-2" x1="151.54" y1="107.85" x2="155.45" y2="107.2"/>
    <g>
      <line class="cls-2" x1="45.46" y1="111.71" x2="42.29" y2="110.59"/>
      <path class="cls-5" d="m36.76,24.13h0c.08-.03.61-.26.8-1.19.21-1,.63-.95.51-1.93-.12-.93-1.01-.38-1.11-.31"/>
      <path class="cls-5" d="m45.7,109.18l-.77-.56-.57-4.92s-4.35.69-4.35.76.44,4.6.44,4.6l-.32,1.26,3.22.25,1.83-.44.51-.95Z"/>
      <polygon class="cls-5" points="23.69 110.41 23.49 105.65 28.49 105.59 27.56 110.2 25.93 111.75 23.69 110.41"/>
      <path class="cls-5" d="m29.39,113.57c-.13-.4-1.47-2.78-1.79-3.37-.65.28-1.29.44-2.01.44-.65,0-1.38-.06-1.91-.46-.33.47-.74,1.11-1.05,1.63-.28.47-.67.96-.87,1.49-.2.53-.11,1.15.31,1.5,1.41,1.16,5.36,1.45,7.05.16.51-.39.34-1.12.25-1.39Z"/>
      <path class="cls-5" d="m51.04,113.51c-.81.14-1.68.08-2.49.08-2.34,0-4.68-.11-7.02-.22-.37-.02-.76-.04-1.1-.19-.27-.12-.5-.32-.66-.57-.1-.15-.17-.32-.19-.5,0-.06,0-.12,0-.19.01-.25.11-.49.2-.72.17-.43.25-.74.41-1.17,1.86,0,3.71-.35,5.5-.84.18.09.36.18.54.27l3.11,1.56c.42.21.84.42,1.26.64.1.05.2.1.3.15.3.15.72.24.94.52.05.06.09.13.11.22.18.62-.4.88-.91.97Z"/>
      <path class="cls-5" d="m45.25,106.28s-1.58.64-3.47.91c-1.88.26-2.02.03-2.02.03l-3.43-22.65s-.96-2.49-2.25-5.85c-.1-.26-.21-.53-.3-.81-.44-1.15-.91-2.37-1.39-3.62.05,3.67.09,7.3.13,10.81l-3.86,23.18c-1.5.54-1.61.51-3.22.51-1.49,0-1.48-.03-2.83-.57.61-8.07,1.69-22.92,1.69-22.92,0,0-3.39-15.68-2.57-23.81.4-3.92,2.14-7.13,3.34-9.27.76.63,2.02,1.15,2.96,1.38,1.56.39,2.19.44,3.76.39.25-.02.5-.04.73-.07,2.27-.26,3.72-.51,3.72-.51,0,0,3.15,6.98,4.42,11.16,1.26,4.16,3.28,20.36,3.28,20.36l1.33,21.31Z"/>
      <path class="cls-5" d="m35.02,32.2c-.22.1-.45.17-.68.23-1.94.46-4.14-.36-4.89-.68l.23-3.29.02-.37,5.08-.98.13,1.05.43,3.58c-.02.07-.04.14-.07.2-.02.04-.02.08-.04.12,0,.02,0,.03-.02.05h0l-.2.09Z"/>
      <g>
        <path class="cls-5" d="m47.86,64.9c.01.16.01.32.01.48,0,.43-.03.86-.04,1.29,0,.19,0,.37.05.55s.17.35.33.43.39.05.51-.09c.1-.13.1-.31.1-.47,0-.21-.01-.43-.02-.64,0-.29-.02-.58-.04-.87-.05-.59-.16-1.2-.53-1.66-.12-.15-.67-.52-.67-.1,0,.16.13.35.18.5.06.19.1.38.12.57Z"/>
        <path class="cls-5" d="m48.19,65.17c.01.16.01.32.01.48,0,.43-.03.86-.04,1.29,0,.19,0,.37.05.55s.17.35.33.43.39.05.51-.09c.1-.13.1-.31.1-.47,0-.21-.01-.43-.02-.64,0-.29-.02-.58-.04-.87-.05-.59-.16-1.2-.53-1.66-.12-.15-.67-.52-.67-.1,0,.16.13.35.18.5.06.19.1.38.12.57Z"/>
        <path class="cls-5" d="m43.99,59.25c.05-.24.8-.43,1.13-.92,1.06.62,2.83,4,3.27,4.89.3.6.6,1.23.73,1.89.14.7.16,1.42.19,2.13,0,.11.01.23-.03.33-.06.19-.31.31-.49.18-.38-.28-.4-.87-.44-1.31-.03-.4-.04-.81-.14-1.2-.1-.39-.3-.7-.56-1-.19-.22-1.12-1.45-1.22-1.35-.1.1-.41.63-.39.75.03.14.09.28.15.41.11.22.24.45.29.7,0,.04.01.08.01.13.02.46-.44,1.01-.83.51-.08-.11-.14-.23-.2-.36-.28-.59-.68-1.12-.84-1.75-.11-.4-.17-.81-.23-1.23-.23-1.55-.58-2.07-.43-2.8Z"/>
        <path class="cls-5" d="m46.89,63.36c-.06-.08-.11-.16-.18-.23-.11-.13-.24-.26-.41-.31-.16-.06-.37-.03-.48.1-.09.11-.11.27-.09.41.05.35.29.65.5.94.11.15.21.3.28.47-.04-.25-.18-.47-.29-.7-.06-.13-.12-.26-.15-.41-.03-.12-.08-.28.02-.38.09-.09.28-.11.41-.1.15.02.27.1.39.19Z"/>
      </g>
      <path class="cls-6" d="m31.94,15.09s0,.86-.31,1.45h0"/>
      <path class="cls-6" d="m30.26,16.9c-.68-.4-1.15-1.4-1.15-1.4"/>
      <path class="cls-5" d="m28.1,24.83h0c-.08-.02-.64-.16-.97-1.05-.36-.96-.77-.84-.8-1.83-.03-.93.94-.53,1.05-.47"/>
      <path class="cls-6" d="m36.01,16.31s-.67.4-1.41.53"/>
      <path class="cls-5" d="m28.85,17.32c.43.02.92-.08,1.41-.42.21.13.42.19.66.16.33-.03.55-.25.7-.53,0,0,.02.01.02.01.09.09.68.61,1.42-.1.38.46.98.51,1.54.4.33.26.79.23.79.23.03.04.06.08.08.12,1.37,1.93,1.5,3.24,1.51,3.38.08-.34.14-.67.19-.98-.07.58-.18,1-.21,1.09h0s0,.02,0,.02h0c.02.55.03,1.96-.2,3.43-.19,1.22-.56,2.47-1.22,3.28-1.55,1.88-2.55,1.92-2.7,1.91-.15.04-1.21.2-3.04-1.43-.78-.69-1.34-1.88-1.71-3.05-.45-1.41-.66-2.81-.72-3.36h0c-.01-.06-.02-.13-.02-.2.02.05.04.08.04.08-.02-.23-.02-.45-.01-.68.15-1.14,1.19-3.02,1.31-3.34l.15-.03Z"/>
      <path class="cls-6" d="m27.39,20.69c-.03.21-.04.41-.02.59"/>
      <path class="cls-6" d="m27.38,21.48s0,0,0-.02h0c-.05-.11-.29-.67-.46-1.43v-.02c-.34-1.51-.35-3.8,2.16-4.82,0,0,.16-.83,1.22-.7,0,0,1.23-1.35,2.72-.24,1.03-.29,1.31.5,1.31.5,2.84.67,3.03,3.23,2.86,4.76,0,.03-.01.06,0,.08"/>
      <path class="cls-6" d="m35.49,17.35s1.46,2.13,1.46,3.35"/>
      <path class="cls-6" d="m27.34,21.25h0s0,.1.02.21h0s0,.02,0,.02"/>
      <path class="cls-6" d="m36.97,20.71v-.02"/>
      <path class="cls-6" d="m36.95,20.47s0,.08,0,.21"/>
      <path class="cls-6" d="m33.66,15.61c-.19.34-.37.6-.54.78-.02.03-.04.05-.06.06"/>
      <path class="cls-6" d="m31.64,16.55h-.02"/>
      <line class="cls-5" x1="32.39" y1="74.31" x2="32.16" y2="64.39"/>
      <path class="cls-3" d="m21.89,46.12c.74-.78,1.43-1.61,2.06-2.46.03.37.02,1.17-.03,2.18-.08,2.03-.27,4.93-.39,6.76.44.63.84,1.29,1.22,1.95.24.41.27.91.08,1.35-.02.06-.05.12-.08.18.03.02.06.02.09.03,3.53,1.13,7.38,1.26,11,.43.73-.16,1.5-.4,1.95-1.04.07-.11.15-.22.2-.35.94,1.18,1.94,2.32,3,3.4.91.91,2.31,1.12,3.45.51.85-.45,1.33-1.32,1.33-2.21,0-.42-.11-.85-.34-1.24-.63-1.09-1.29-2.11-2.03-3.16-.4-.58-1.15-1.55-1.57-2.08-.18-.23-.27-.53-.26-.82.12-2.03,1.18-10.96-1.31-14.35-.08-.12-.15-.26-.25-.36-1.06-1.08-3.19-2.37-4.53-2.91-.09.06-.18.11-.27.16h0l-.2.09c-.22.1-.45.17-.68.23-1.94.46-4.14-.36-4.89-.68-.17-.07-.26-.12-.26-.12-1.21.16-2.41.42-3.57.81-1.27.43-2.38.93-3.44,1.77-1.06.87-2.01,1.87-2.91,2.91-.44.5-.86,1.01-1.28,1.53-.21.25-.41.49-.62.75"/>
      <path class="cls-5" d="m35.5,31.95c-.09.06-.18.11-.27.16h0c-.07.03-.13.07-.2.09-.22.1-.45.17-.68.23l.72-.3.18-.07.26-.11Z"/>
      <path class="cls-6" d="m39.38,43.7c-.04,1.18-.76,8.64-.96,9.81-.12.68-.22,1.43-.63,2-.45.63-1.22.87-1.95,1.04"/>
      <path class="cls-5" d="m32.01,60.21s-2.4-1.14-2.4-1.14c-.35-.17-.72-.31-1.07-.49-.18-.09-.35-.19-.5-.31-.14-.11-.34-.26-.07-.29.18-.02.37,0,.54.02.27.02.58.04.85-.02.15-.04.3-.13.36-.28.08-.19-.02-.41-.18-.54,0,0-.01,0-.02-.01-.17-.13-.39-.17-.59-.21-.67-.12-1.37-.16-2.02-.32-.38-.1-.72-.26-1.11-.32-.32-.05-.64-.06-.96-.05l-.43-.48s.02-.04.02-.04c-.13-.15-.27-.3-.4-.45-.54.86-1.09,1.71-1.64,2.57.34.27.56.43.56.42,0,0,0,0,0-.01.24,1.2,1.08,2.43,2.06,3.04.1.06.2.12.28.2.06.06.11.14.16.22.27.46.52.92.75,1.4.15.3.33,1.01.75,1.02.29,0,.49-.31.36-.56-.23-.46-.47-.92-.72-1.37-.09-.17-.2-.33-.27-.51-.02-.06-.09-.19-.06-.25.18-.32.62.28.73.41.21.24.42.48.63.72.3.34.61.67.92,1,.19.21.44.61.78.46.24-.1.31-.42.13-.61-.1-.1-.2-.21-.29-.31-.02-.04-.04-.08-.07-.11-.33-.38-.65-.77-.96-1.17-.15-.2-.31-.4-.46-.6-.06-.08-.45-.39-.32-.51.15-.14.57.3.67.37.31.2.61.41.91.61.41.27.81.56,1.22.84.25.17.69.59.99.3.16-.15.15-.44-.02-.58-.02-.02-.03-.04-.06-.06-.51-.5-1.09-.93-1.66-1.36-.28-.21-.56-.43-.83-.65-.14-.12-.28-.24-.41-.36-.05-.05-.22-.15-.15-.24.06-.08.25,0,.32.03.19.07.36.21.54.28.32.11.63.23.95.34.44.16.88.33,1.32.49.26.1.66.38.92.14.19-.17.15-.54-.09-.65Z"/>
      <path class="cls-3" d="m21.89,46.12c-.65.69-1.33,1.35-2.01,2,1.39,1.46,2.61,2.94,3.65,4.48.44.63.84,1.29,1.22,1.95.24.41.27.91.08,1.35-.02.06-.05.12-.08.18-.28.66-.59,1.3-.97,1.92-.3.5-.94.69-1.47.44-1.9-.88-3.68-2.07-5.3-3.39-1.36-1.11-2.74-2.32-3.58-3.89-1.41-2.62-.35-5.61,1.1-7.96.83-1.35,1.85-2.59,2.86-3.82"/>
      <line class="cls-6" x1="19.88" y1="48.12" x2="17.38" y2="45.91"/>
      <line class="cls-1" x1="33.09" y1="32.43" x2="32.4" y2="56.88"/>
      <line class="cls-1" x1="31.89" y1="35.18" x2="34.56" y2="35.18"/>
    </g>
    <g>
      <rect class="cls-8" x="77.4" y="10.59" width="5.03" height="9.66"/>
      <line class="cls-11" x1="77.4" y1="20.55" x2="77.4" y2="20.25"/>
      <g>
        <rect class="cls-10" x="67.7" y="10.59" width="4.85" height="9.66"/>
        <rect class="cls-9" x="72.55" y="10.59" width="4.85" height="9.66"/>
        <line class="cls-11" x1="72.55" y1="20.55" x2="72.55" y2="20.25"/>
        <line class="cls-8" x1="67.7" y1="17.73" x2="67.7" y2="28.18"/>
      </g>
    </g>
    <g>
      <g>
        <rect class="cls-9" x="95.48" y="10.52" width="14.73" height="9.66"/>
        <line class="cls-11" x1="100.34" y1="20.48" x2="100.34" y2="20.18"/>
        <line class="cls-11" x1="105.19" y1="20.48" x2="105.19" y2="20.18"/>
        <path d="m101.68,13.29c.29-.32.7-.47,1.21-.47.47,0,.85.14,1.14.41s.43.62.43,1.04c0,.26-.05.46-.16.62s-.32.39-.63.7c-.23.22-.38.41-.45.57s-.1.38-.1.69h-.64c0-.34.04-.62.12-.83s.26-.45.54-.72l.29-.29c.09-.08.16-.17.21-.26.1-.16.14-.32.14-.49,0-.24-.07-.44-.21-.61s-.37-.26-.7-.26c-.4,0-.68.15-.83.45-.09.17-.14.41-.15.72h-.64c0-.52.15-.94.44-1.25Zm.78,4.15h.72v.75h-.72v-.75Z"/>
      </g>
      <line class="cls-8" x1="95.48" y1="17.81" x2="95.48" y2="28.25"/>
    </g>
    <g>
      <path class="cls-5" d="m48.85,114.27s-1.59,2.1,0,2.34c1.59.24,5.73,0,5.73,0,0,0,1.26.42.16-2.51-.58-.04-1.15-.14-1.72-.19-1.39-.11-2.79.15-4.17.36-.56.09-1.22.13-1.6-.29-.15-.16-.23-.38-.29-.59-.24-.82-.26-1.67-.25-2.52.01-.84-.06-1.68-.08-2.52-.05-1.77-.05-3.55-.08-5.32-.05-2.67-.11-5.34-.16-8.01,0-10.53-.78-20.93-1.28-31.43-.04-.74-.08-1.63-.06-2.58,0-.11.01-.23.01-.35-.04-.71,0-1.42.13-2.12.01-.06.02-.11.03-.17.19-.9.51-1.76.83-2.62.47-1.28.77-2.82,1.26-4.02.45-1.09,2.03-1.11,3.12-1.28,2.93-.46,5.93-.4,8.87-.1.12.01.25.03.35.1.15.1.19.3.22.48.39,2.12.72,4.24,1,6.38.04.32.09.71.13,1.12.33,1.84.66,3.67.95,5.52.64,4.06,1.18,8.14,1.6,12.23.23,2.2.71,4.61.57,6.82,0,.07,0,.14-.01.21-.01.18-.03.35-.05.53-.14,1.13-.42,2.26-.75,3.37-.23.79-.49,1.57-.73,2.32-2.4,7.58-4.8,15.17-7.19,22.75,0,.31-.01.62-.02.93,0,.44.33,1.02-.34,1-.08,0-.16-.02-.25-.02"/>
      <line class="cls-5" x1="55.36" y1="112.19" x2="55.12" y2="64.75"/>
    </g>
    <path class="cls-3" d="m59.05,50.08c.64,0,7.23-.67,7.16-.98-.9-4.09-2-8.13-3.3-12.11-.27-.83-.58-1.7-1.24-2.28-.3-.26-.66-.45-1.01-.63-.3-.15-.61-.31-.95-.36-1.77-.24-2.02,3.12-2.07,4.27-.06,1.38.13,2.76.32,4.13.19,1.38.43,2.76.61,4.13.17,1.28.23,2.55.48,3.82Z"/>
    <path class="cls-5" d="m47.61,34.75c-.41-.43-1.02-.65-1.61-.58-2.26.27-2.72,4.33-3.02,6.02-.31,1.72-.61,3.44-.88,5.16-.19,1.22-.38,2.44-.55,3.67-.21,1.49-.41,2.99-.6,4.49-.02.19-.07.39-.08.58-.33.75-.54,1.57-.69,2.2-.96,4.05-1.68,8.16-2.35,12.27-.03.19-.05.4-.04.6-.09.12-.17.25-.23.4-.68,1.73-.42,3.79.37,5.45.04.08.09.16.18.19.1.03.22-.04.26-.13s.03-.18.02-.28c.02.17.12.31.28.41.25.15.3-.1.28-.29-.05-.41-.09-.81-.14-1.23-.06-.43-.07-.86-.04-1.29.02-.3.03-.6.11-.89.03-.13.06-.34.24-.32.1.01.17.09.23.17.08.12.15.24.2.37.05.15.09.3.15.45.07.14.17.28.32.33.28.11.34-.16.3-.38,0-.02,0-.03-.01-.05-.03-.11-.07-.21-.11-.32-.11-.31-.18-.64-.19-.97,0-.12.03-.22.04-.34,0-.16-.01-.34-.04-.51-.03-.2-.09-.37-.17-.54.89-2.38,1.72-4.81,2.76-7.13,1.03-2.31,1.89-4.71,2.6-7.14.06-.2.11-.4.15-.6.02-.05.05-.11.07-.16.48-1.37.74-2.8.99-4.23.53-3.04,1.03-6.09,1.48-9.15.18-1.23.36-2.47.4-3.71.03-.9-.05-1.89-.68-2.54Z"/>
    <path class="cls-3" d="m43.45,36.19c-.88,1.48-1.35,3.39-1.79,4.79-.87,2.85-1.46,5.78-2.04,8.71.34.06.84.29,1.18.29.66.26,1.46.25,2.15.39,1.35.28,2.72.49,4.09.62.15-2.27.61-4.53.9-6.79.3-2.32.57-4.64.8-6.97.05-.53.1-1.07,0-1.6s-.37-1.04-.83-1.32c-.6-.36-1.8-.4-2.46-.1-.86.39-1.51,1.11-2.02,1.97Z"/>
    <path class="cls-3" d="m62.51,40.28c-.14,1.02-.34,2.04-.47,3-.28,1.99-.58,3.97-.91,5.95-.13.78-.14,1.55-.37,2.32-.05.16-.1.33-.23.44-.14.12-.33.14-.51.16-.66.06-1.32.1-1.98.13-3.18.17-6.37.35-9.56.27-.36,0-.73-.02-1.04-.2-.56-.31-.75-1.02-.88-1.65-.6-2.99-.61-6.26-1.83-9.07-.23-.52-.43-.96-.82-1.36-.58-.6-.64-1.19-.65-2.06-.03-2.88,2.95-4.77,5.39-5.52.59-.18,1.2-.32,1.81-.42,1.17-.19,2.36-.24,3.56-.18,1.02.05,2.04.15,3.02.42.04,0,.07.02.11.03,1.7.5,3.96,1.21,4.88,2.85.37.67.49,1.45.58,2.21.1.86.03,1.77-.09,2.67Z"/>
    <path class="cls-5" d="m46.46,54.46s10.08.77,13.97-.31"/>
    <path class="cls-5" d="m49.37,54.63s-.06,4.5-4.31,4.8"/>
    <path class="cls-5" d="m57.47,54.6s.19,5.23,3.74,5.1"/>
    <path class="cls-6" d="m59.46,22.08s.91-2.3.39-3.94c-.63-1.97-2.45-1.76-2.45-1.76-1.21-1.47-5.62-1.8-9.28.92-2.67,1.98-1.8,4.67-.64,6.22"/>
    <path class="cls-6" d="m46.61,22.14s-.39,2.05.85,3.45c1.08,1.22,2.04,2.83,2.44,4.35"/>
    <path class="cls-5" d="m55.32,29.55c.4.17,2.15.35,3.7.08,1.64-.29,1.29-1.43,1.27-3.17-.02-1.73.76-1.95.73-2.39-.03-.44-1.61-1.05-1.8-2.93-.02-.21-.05-.39-.1-.58-.33-1.52-1.3-2.35-1.87-2.77,0,0-1.35,3.31-1.66,3.85-.3.54-1.35,2.15-2.31,1.94-.88-.2-1.69-.73-2.35-.17-.65.56-.51,2.1.4,2.48,0,0-.64,1.63-.82,2.72l-1.87,4.1s5.93,3.9,8.39-.18l-1.71-2.97Z"/>
    <line class="cls-6" x1="51.77" y1="24.43" x2="52.21" y2="24.53"/>
    <line class="cls-5" x1="171.7" y1="107.17" x2="175.45" y2="106.91"/>
  </g>
  <rect class="cls-12" x="-365.06" y="-559.49" width="1466.44" height="999.05"/>
</svg>