<?xml version="1.0" encoding="UTF-8"?>
<svg xmlns="http://www.w3.org/2000/svg" viewBox="0 0 200 128">
  <defs>
    <style>
      .cls-1 {
        fill: #bfe6fc;
      }

      .cls-2, .cls-3 {
        fill: #87ccf3;
      }

      .cls-4, .cls-5, .cls-3, .cls-6 {
        stroke-miterlimit: 10;
      }

      .cls-4, .cls-5, .cls-3, .cls-6, .cls-7, .cls-8, .cls-9, .cls-10 {
        stroke-width: 2px;
      }

      .cls-4, .cls-5, .cls-3, .cls-6, .cls-7, .cls-8, .cls-9, .cls-10, .cls-11 {
        stroke: #000;
      }

      .cls-4, .cls-9, .cls-10 {
        fill: #fff;
      }

      .cls-5 {
        fill: #87f3b9;
      }

      .cls-6 {
        fill: #b4eac3;
      }

      .cls-7 {
        fill: #8987f3;
      }

      .cls-7, .cls-8, .cls-9, .cls-12 {
        stroke-linecap: round;
      }

      .cls-7, .cls-8, .cls-9, .cls-12, .cls-10, .cls-11 {
        stroke-linejoin: round;
      }

      .cls-13 {
        fill: #d6d6d6;
        mix-blend-mode: multiply;
      }

      .cls-8 {
        fill: #f387d5;
      }

      .cls-12 {
        fill: none;
        stroke: #fff;
        stroke-width: 8px;
      }

      .cls-14 {
        isolation: isolate;
      }

      .cls-11 {
        fill: #baa584;
      }
    </style>
  </defs>
  <g class="cls-14">
    <g id="Calque_1" data-name="Calque 1">
      <g>
        <rect class="cls-1" x="52.7" y="10.33" width="94.61" height="53.31"/>
        <path d="m147.3,64.92H52.7c-.71,0-1.29-.58-1.29-1.29V10.33c0-.71.58-1.29,1.29-1.29h94.6c.71,0,1.29.58,1.29,1.29v53.31c0,.71-.58,1.29-1.29,1.29Zm-93.32-2.57h92.03V11.61H53.98v50.74Z"/>
      </g>
      <rect x="97.59" y="64.26" width="4.83" height="2.68"/>
      <g>
        <polygon points="86.05 66.94 85.47 68.82 114.53 68.82 113.9 66.94 86.05 66.94"/>
        <path d="m114.53,69.25h-29.06c-.14,0-.26-.06-.34-.17-.08-.11-.1-.25-.07-.38l.58-1.88c.06-.18.22-.3.41-.3h27.85c.18,0,.35.12.41.29l.63,1.88c.04.13.02.27-.06.39-.08.11-.21.18-.35.18Zm-28.48-.86h27.88l-.34-1.02h-27.22l-.31,1.02Z"/>
      </g>
      <path d="m114.53,69.5h-29.06c-.24,0-.43-.19-.43-.43s.19-.43.43-.43h29.06c.24,0,.43.19.43.43s-.19.43-.43.43Z"/>
      <polygon class="cls-2" points="53.98 11.61 53.98 62.35 83.13 11.61 53.98 11.61"/>
      <rect class="cls-11" x="49.36" y="67.93" width="97.94" height="24.17"/>
      <g>
        <ellipse class="cls-13" cx="140.7" cy="113.57" rx="23.75" ry="7.47"/>
        <path class="cls-9" d="m120.37,88.2s-1.72,5.25-1.64,7.29c.08,2.04,2.85,5.21,5.81,5.21s3.33-14.31,3.33-14.31l-7.49,1.8Z"/>
        <path class="cls-9" d="m161.11,88.2s1.72,5.25,1.64,7.29c-.08,2.04-2.85,5.21-5.81,5.21s-3.33-14.31-3.33-14.31l7.49,1.8Z"/>
        <path class="cls-7" d="m157.01,104.45l-11.34-1.86-4.92,2.85-4.92-2.85-11.34,1.86s-1.89,7.88,6.34,11.36c4.38,1.86,5.92.54,9.89.49,0,0,.02,0,.03,0,0,0,.02,0,.03,0,3.97.04,5.5,1.36,9.89-.49,8.23-3.48,6.34-11.36,6.34-11.36Z"/>
        <path class="cls-8" d="m161.41,88.34c-2.77-11.78-11.78-15.93-11.78-15.93l-8.87.58-8.87-.58s-9.02,4.15-11.78,15.93c0,0,.42,3.16,4.75,5.53l-1.5,10.1s3.38,6.22,16.23,6.61h0c.32.01.63.02.94.02.08,0,.16,0,.24,0,.08,0,.16,0,.24,0,.31,0,.62,0,.94-.01h0c12.85-.39,16.23-6.61,16.23-6.61l-1.5-10.1c4.33-2.37,4.75-5.53,4.75-5.53Z"/>
        <path class="cls-9" d="m159.16,51.13c5.35-1.02-5.17-6.61-5.17-6.61,0,0,4.57.12,4.65-1.92.08-2.04-8.08-1.62-8.08-1.62,0,0,5.53-2.28,4.27-3.49-1.04-.99-9.63.21-12.63.66.75-.84,1.16-1.78.41-2.56-1.84-1.92-12.53,4.98-12.53,4.98h0c-4.57,2.7-6.03,6.8-6.03,6.8,0,0-1.11-1.79-1.68-1.24-1.16,1.12.96,2.85.96,2.85-1.36-.66-2.28-.52-2.68-.39-.15.05-.26.18-.27.33-.19,1.53,1.83,1.91,1.83,1.91,0,0-6.15,10.5-.41,8.45,0,0-3.57,8.54.68,7.44,2.07,8.98,10.7,11.3,13.48,10.94,2.83-.36,6.01.24,6.01.24,14.79.42,16.67-12.93,16.67-12.93,4.05,2.89.88-5.53.88-5.53,6.31,2.1-.36-8.3-.36-8.3Z"/>
      </g>
      <ellipse class="cls-13" cx="56.23" cy="114.7" rx="24.04" ry="7.56"/>
      <path class="cls-3" d="m77.44,99.31c-2.86-2.43-8.89,1.16-8.89,1.16l-11.87,6.57s0,0,0,0l-11.87-6.57s-6.02-3.59-8.89-1.16c-2.86,2.43,1.33,12.73,9.55,16.31,4.81,2.09,17.59,2.09,22.4,0,8.23-3.58,12.41-13.88,9.55-16.31Z"/>
      <path class="cls-4" d="m38.15,91.65s0,0,0,0c0,0-1.6,4.88-1.53,6.77.07,1.9,2.64,4.84,5.4,4.84s3.09-13.27,3.09-13.29c0,0,0,0,0,0l-6.96,1.67Z"/>
      <path class="cls-4" d="m74.37,91.65s0,0,0,0c0,0,1.6,4.88,1.53,6.77-.07,1.9-2.64,4.84-5.4,4.84s-3.09-13.27-3.09-13.29c0,0,0,0,0,0l6.96,1.67Z"/>
      <path class="cls-6" d="m75.41,91.78c-1.01-11.16-10.75-14.69-10.75-14.69,0,0,0,0,0,0h-16.8s-9.74,3.53-10.75,14.69c0,0,0,0,0,0,0,0,2.15,1.7,6.25,1.91,0,0,0,0,0,0,0,.01-1.79,9.62-2.15,11.72,0,0,0,0,0,0,0,0,5.61,5.07,13.95,5.01.74,0,1.47,0,2.21,0,8.34.06,13.94-5,13.95-5.01,0,0,0,0,0,0-.37-2.11-2.15-11.71-2.15-11.72,0,0,0,0,0,0,4.09-.2,6.24-1.9,6.25-1.91,0,0,0,0,0,0Z"/>
      <path class="cls-10" d="m37.66,53.7c3.06-3.24,2.78-8.45-.69-11.26-1.76-1.42-4.18-2.33-7.48-1.72-9.18,1.69-10.19,15.44-9.95,17.85,0,0,0,0,0,0,.01-.01,2.43-3.36,5.38-3.1,2.96.26,9.54,1.6,12.65-1.68.03-.03.06-.07.09-.1Z"/>
      <path class="cls-5" d="m44.96,49.47s0,0,0,0c-.16,0-4.23-1.65-5.36-.65-1.1.97-3.08,5.03-2.6,6.05.49,1.01,2.55,2.92,2.56,2.92,0,0,0,0,0,0l5.64-3.69s0,0,0,0l-.24-4.62Z"/>
      <path class="cls-10" d="m75.05,53.7c-3.06-3.24-2.78-8.45.69-11.26,1.76-1.42,4.18-2.33,7.48-1.72,9.18,1.69,10.19,15.44,9.95,17.85,0,0,0,0,0,0-.01-.01-2.43-3.36-5.38-3.1-2.96.26-9.54,1.6-12.65-1.68-.03-.03-.06-.07-.09-.1Z"/>
      <path class="cls-5" d="m67.75,49.47s0,0,0,0c.16,0,4.23-1.65,5.36-.65,1.1.97,3.08,5.03,2.6,6.05-.49,1.01-2.55,2.92-2.56,2.92,0,0,0,0,0,0l-5.64-3.69s0,0,0,0l.24-4.62Z"/>
      <path class="cls-10" d="m70.43,48.61c-6.74-7.14-14.07-4.14-14.07-4.14,0,0,0,0,0,0,0,0-7.34-3-14.07,4.14-6.74,7.14-12.88,29.78,9.98,31.4h0s3.07,0,3.07,0h5.12c22.86-1.62,16.72-24.26,9.98-31.4Z"/>
      <rect class="cls-12" x="-3562.71" y="-5543.69" width="6467.34" height="6437.3"/>
    </g>
  </g>
</svg>