<?xml version="1.0" encoding="UTF-8"?>
<svg id="Calque_1" data-name="Calque 1" xmlns="http://www.w3.org/2000/svg" viewBox="0 0 128 128">
  <defs>
    <style>
      .cls-1, .cls-2, .cls-3, .cls-4, .cls-5, .cls-6, .cls-7, .cls-8 {
        stroke-linecap: round;
        stroke-linejoin: round;
      }

      .cls-1, .cls-4 {
        stroke: #231f20;
      }

      .cls-1, .cls-9 {
        fill: #76ac75;
      }

      .cls-2, .cls-3, .cls-5, .cls-6, .cls-7 {
        stroke: #000;
      }

      .cls-2, .cls-4 {
        fill: #d6d6d6;
      }

      .cls-3 {
        fill: #ff6d75;
      }

      .cls-5 {
        fill: #fff;
      }

      .cls-6, .cls-8 {
        fill: none;
      }

      .cls-7 {
        fill: #fab0b4;
      }

      .cls-8 {
        stroke: #fff;
        stroke-width: 8px;
      }
    </style>
  </defs>
  <path class="cls-6" d="m39.71,36.63s-5.18-31.44,23.17-31.44c30.53,0,23.45,31.44,23.45,31.44"/>
  <path class="cls-6" d="m42.21,39.88s-2.93-6.87-6-1.25c-3.25,5.95,7.75,11,7.75,11"/>
  <path class="cls-6" d="m64.97,11.38s4,18.5-21,20.75"/>
  <path class="cls-6" d="m67.72,17.13s2.13,11,12.5,16.5"/>
  <path class="cls-6" d="m81.47,37.76s3.75-3.75,5.75,0c2,3.75-4,11.36-7.63,10.61"/>
  <path class="cls-6" d="m43.34,46.26s1.5,17.5,16.5,16.75c15-.75,20.63-13.13,20.38-18.88"/>
  <ellipse cx="50.17" cy="42.26" rx="1.27" ry="2.31"/>
  <ellipse cx="66.9" cy="42.26" rx="1.27" ry="2.31"/>
  <path class="cls-6" d="m57.22,40.13s.4,1.76-.5,7.56c-.25,1.64,2,1.32,2,1.32"/>
  <path class="cls-3" d="m65.1,56.35c-.44,1.73-2.42,3.04-4.83,3.04-1.67,0-3.17-.65-4.05-1.63,0,0,1.91-3.7,8.89-1.41Z"/>
  <path class="cls-7" d="m65.21,55.63c0,.25-.03.48-.1.72-6.98-2.29-8.89,1.41-8.89,1.41-.56-.62-.88-1.35-.88-2.13,0-2.07,2.22-3.75,4.94-3.75s4.94,1.67,4.94,3.75Z"/>
  <path class="cls-6" d="m47.45,57.3s-7.44-1.25-15.24,9.88c0,0,5.93,2.86,7.84,5.57"/>
  <path class="cls-6" d="m29.4,82.08s6.65-4.69,10.27-4.94"/>
  <path class="cls-6" d="m48.03,77.51s-9.74,28.27-21.32,20.51.97-24.12,5.5-30.84"/>
  <path class="cls-2" d="m66.84,74.15c-2.16.58-4.33-.13-5.41-1.65l-12.82,3.43c-.72.19-1.48-.24-1.68-.98s.24-1.48.97-1.67l12.82-3.43c.19-1.86,1.71-3.57,3.87-4.15,2.7-.72,5.41.59,6.03,2.92.62,2.34-1.07,4.81-3.77,5.54Z"/>
  <path class="cls-5" d="m38.82,80.27s-.11-9.25,5.14-12.5c5.25-3.25,9.74-.5,10.62,5.13,0,0,1.76,8.75-10.62,3.13"/>
  <ellipse class="cls-9" cx="65.62" cy="70.04" rx="3.25" ry="2.24" transform="translate(-17.39 21.86) rotate(-16.74)"/>
  <path class="cls-6" d="m65.21,56.38s-.07-.03-.1-.03"/>
  <line class="cls-6" x1="78.86" y1="50.36" x2="81.34" y2="51.89"/>
  <path class="cls-6" d="m79.07,73.32l1.03,11.32s11.85-6.69,16.6-2.56c0,0,.38-4.51-.98-15.7-1.05-8.61-14.37-14.49-14.37-14.49-6.56,15.94-20.64,11.06-20.64,11.06"/>
  <line class="cls-6" x1="41.25" y1="91.38" x2="41.25" y2="105.38"/>
  <line class="cls-6" x1="81.03" y1="84.15" x2="81.03" y2="105.38"/>
  <line class="cls-6" x1="95.5" y1="81.32" x2="94.67" y2="105.38"/>
  <rect class="cls-6" x="21.81" y="105.38" width="85.79" height="14.58"/>
  <g>
    <polygon class="cls-1" points="73.01 110.53 56.38 110.53 53.87 91.39 75.52 91.39 73.01 110.53"/>
    <rect class="cls-4" x="52.37" y="90.02" width="24.67" height="2.72"/>
  </g>
  <line class="cls-6" x1="38.82" y1="42.26" x2="39.83" y2="44.14"/>
  <line class="cls-6" x1="83.61" y1="40.13" x2="82.66" y2="42.45"/>
  <path class="cls-6" d="m46.74,36.63s2.16-2.47,5.62-.69"/>
  <path class="cls-6" d="m64.7,36.63s1.64-1.56,4.83,0"/>
  <rect class="cls-8" x="-5458.06" y="-3043.9" width="6467.34" height="6437.3"/>
</svg>