<?xml version="1.0" encoding="UTF-8"?>
<svg id="Calque_1" data-name="Calque 1" xmlns="http://www.w3.org/2000/svg" viewBox="0 0 128 128.13">
  <defs>
    <style>
      .cls-1, .cls-2 {
        stroke: #000;
      }

      .cls-1, .cls-3 {
        fill: none;
        stroke-linecap: round;
        stroke-linejoin: round;
      }

      .cls-4 {
        fill: #fab0b4;
      }

      .cls-5 {
        fill: #b4eac3;
      }

      .cls-6 {
        fill: #76ac75;
      }

      .cls-2 {
        fill: #fff;
        stroke-miterlimit: 10;
      }

      .cls-3 {
        stroke: #fff;
        stroke-width: 8px;
      }
    </style>
  </defs>
  <path class="cls-1" d="m100.16,109.11c4.04-.42,1.15-4.81-4.93-8.63-6.08-3.82-7.61-9.15-12.26-23.42-4.65-14.27-8.5-16.24-8.5-16.24-7.82-5-15.08-9.23-4.45-12.18,10.63-2.95,4.45-16.26,4.45-16.26,0,0,2.03-4-.52-4.18s-3.11-2.86-3.11-2.86c0,0,6.03-16.96-14.43-21.96C35.96-1.61,26.23,14.99,24.73,25.6c-1.5,10.6,4.11,21.28,21.03,24.62,0,0,2.2.89.74,4.71s-11.49,2.24-16.88,15.06c0,0-9.49,27.95,3.65,38.53,0,0,10.24,4.62,14.34,8.77,4.11,4.14,10.44,9.15,9.27,5.9s-2.88-4.28-2.88-4.28"/>
  <path class="cls-1" d="m64.13,116.25s-.03-.03-.04-.03"/>
  <path class="cls-1" d="m42.36,71.74s1,18.54.07,26.51c0,0,1.42-.37,6.99,4.83.17.16.34.33.51.5"/>
  <path class="cls-1" d="m57.63,118.89s2.98,1.97,3.92,3.53h.01"/>
  <path class="cls-1" d="m61.84,123.39c-.27,1.5-6.02-2.72-6.35-2.96h-.01"/>
  <path class="cls-1" d="m61.56,122.43h-.01"/>
  <line class="cls-1" x1="53.45" y1="107.45" x2="53.43" y2="107.45"/>
  <path class="cls-1" d="m49.93,103.58h-.04"/>
  <path class="cls-1" d="m61.84,123.39c.06-.28-.06-.61-.27-.95.27.2,4.02,2.79,3.4-1.21.56.41,1.11.48,1.88,0,2.32-1.51-2.25-4.66-2.72-4.97,2.99,1.44,5.53-2.25-1.28-1.84-3.76.23-6.21-3.12-9.4-6.96"/>
  <path class="cls-1" d="m71.37,65.4s7.9,22.67,6.64,35.38h0c-4.41,3.88-26.97,2.86-28.08,2.8,1.31,1.27,2.46,2.61,3.52,3.87"/>
  <path class="cls-1" d="m77.87,90.91l6.44,9.72s-1.17,12.18,1.41,9.01,1.6-7.85,5.07-3.96c3.46,3.89,2.82,6.45,4.18,3.92,1.35-2.53-1.29-5.78-1.29-5.78"/>
  <path class="cls-1" d="m95.19,106.72s6.44,7.07,3.57.58l-2.26-3.48"/>
  <path class="cls-1" d="m46.51,35.73s-5.72,1.91-2.43,6.62c3.29,4.71,6.21.56,6.21.56"/>
  <circle cx="66.64" cy="28.25" r="1.33"/>
  <path class="cls-1" d="m66.64,22.06s-.37,3.43-3.95,3.22"/>
  <line class="cls-1" x1="50.29" y1="74.55" x2="52.02" y2="74.55"/>
  <line class="cls-1" x1="66.66" y1="73.11" x2="68.35" y2="72.71"/>
  <line class="cls-1" x1="46.67" y1="40.16" x2="47.81" y2="39.63"/>
  <polygon class="cls-4" points="67.06 41.57 67.06 41.57 67.06 41.57 67.06 41.57"/>
  <path class="cls-2" d="m69.94,41.65s4.02.38,4.14-1.98c0,0-.13-.72-.79-1.32-.48-.43-1.22-.79-2.43-.76-1.47.03-2.5.85-2.88,1.73-.02.01,0,.03,0,.03-.47,1.09.06,2.29,1.96,2.29Z"/>
  <path class="cls-1" d="m67.97,9.65s-5.06,11.55-15.95,12.42c0,0,2.22,6.68-5.88,8.86"/>
  <g>
    <path class="cls-5" d="m81.22,64.58c-.5,0-.82-.49-.93-.97-.07-.32-.14-.64-.21-.96-.12-.52-.23-1.04-.33-1.57-.35-1.85-.86-3.76-1.61-6.03-.22-.67-.45-1.35-.7-2.02,0,.22-.03.44-.09.67-.06.24-.27.5-.6.5-.04,0-.1,0-.13-.02-.36-.09-.61-.37-.7-.77-.05-.21-.14-.42-.24-.65-.08-.18-.16-.35-.22-.53-.31-.89-.63-1.81-1-2.71-.57-1.38-1.27-2.82-2.26-4.64-.24-.44-.46-.88-.67-1.33-.21-.3-.46-.7-.68-1.13-.23-.45-.47-1.05-.38-1.72.06-.45.49-.96,1.02-.97h0c.78,0,1.46.56,1.96.97l.09.08c.58.47,1.08.97,1.5,1.5.57.72,1.06,1.5,1.47,2.27.1-.26.27-.48.55-.62.07-.04.22-.07.3-.07.5,0,1.09.59,1.2.71.45.48.87,1.01,1.17,1.51.64,1.06,1.37,2.27,1.81,3.6l.05.14c.23.7.56,1.66.05,2.46-.12.19-.31.3-.52.3h0c-.05,0-.12-.01-.17-.03.67,1.99,1.19,3.81,1.5,5.72.02.13.05.29.09.45.17.8.37,1.8-.08,2.54-.14.22-.35.35-.58.35h0v.11c.06.34.1.7.1,1.07,0,.06.02.15.03.24.07.39.17.99-.23,1.34-.21.18-.41.22-.54.22Z"/>
    <path d="m71.51,40.23c.61,0,1.27.57,1.72.94.52.42,1,.9,1.42,1.42.91,1.15,1.59,2.45,2.21,3.77.03-.66-.15-1.69.42-1.99.02-.01.04-.02.07-.02.25,0,.72.43.84.56.4.42.8.92,1.1,1.42.68,1.12,1.35,2.25,1.76,3.5.21.65.56,1.53.15,2.17-.02.03-.06.07-.1.07,0,0-.02,0-.03,0-.29-.11-.46-.13-.65-.41-.13-.19-.34-.4-.54-.58.85,2.37,1.64,4.76,2.05,7.26.12.74.51,1.94.08,2.65-.05.08-.1.11-.15.11-.24,0-.54-.63-.7-.92-.05.44.15,1.11.2,1.48.05.37.1.74.09,1.11,0,.29.24.97-.03,1.22-.08.07-.15.09-.21.09-.23,0-.39-.35-.44-.57-.18-.84-.38-1.67-.54-2.51-.39-2.07-.96-4.1-1.63-6.09-.6-1.8-1.21-3.61-2.25-5.19.02.33.16.82.22,1.03.09.33.16.66.21,1,.09.61.23,1.24.07,1.85-.01.04-.06.13-.11.13,0,0,0,0-.01,0-.19-.05-.29-.2-.34-.39-.1-.43-.34-.82-.48-1.23-.32-.92-.64-1.84-1.01-2.74-.67-1.61-1.45-3.15-2.28-4.69-.23-.43-.45-.86-.66-1.3-.24-.37-.48-.75-.68-1.15-.22-.44-.4-.93-.33-1.43.03-.23.29-.53.53-.54h.02m0-1h-.04c-.79.02-1.41.74-1.5,1.4-.11.82.19,1.54.43,2.02.22.43.46.82.7,1.18.2.42.41.84.65,1.29.98,1.81,1.67,3.22,2.23,4.59.36.88.68,1.8.99,2.69.07.19.15.38.24.57.09.2.18.39.21.55.13.58.53,1.01,1.07,1.15.08.02.18.03.26.03.24,0,.47-.08.66-.23.08.25.17.5.25.74.73,2.21,1.26,4.16,1.59,5.96.1.53.22,1.06.34,1.58.07.32.14.63.21.95.14.68.64,1.37,1.42,1.37.22,0,.55-.06.87-.35.61-.54.47-1.36.4-1.8-.01-.07-.02-.13-.03-.18,0-.27-.02-.53-.05-.79.18-.1.34-.25.46-.45.55-.91.32-2.06.14-2.9-.03-.15-.06-.3-.08-.43-.29-1.76-.74-3.43-1.33-5.23.18-.09.34-.24.45-.42.63-.99.25-2.13,0-2.88l-.05-.14c-.46-1.39-1.2-2.62-1.86-3.7-.4-.67-.89-1.23-1.23-1.59-.25-.26-.9-.87-1.56-.87-.19,0-.37.04-.53.13-.09.05-.18.1-.25.16-.34-.57-.71-1.13-1.14-1.68-.44-.56-.97-1.09-1.57-1.58l-.09-.07c-.53-.43-1.33-1.09-2.26-1.09h0Z"/>
  </g>
  <g>
    <path class="cls-5" d="m85.48,92.92c-2,0-2.63-3.67-3.07-7.11-.05-.41-.09-.73-.13-.91-.36-1.85-.76-3.71-1.16-5.51-.05.42-.2,1-.79,1.06h-.01c-.14,0-.27-.02-.38-.07-.14.55-.34,1.05-.6,1.49-.15.26-.4.41-.67.41-.25,0-.51-.13-.71-.37-.38-.45-.33-1.23-.29-1.79,0-.1.01-.19.01-.26.02-.69.06-1.38.1-2.07.08-1.26.16-2.57.07-3.84-.12-1.72-.48-3.45-.82-5.13l-.18-.86c-.09-.45-.52-2.75.05-3.45.15-.18.35-.28.57-.28.14,0,.29.04.44.12.15.08.26.23.47.61.19.28.34.53.46.78.19.4.36.81.53,1.23.36.91.63,1.84.89,2.74l.12.41c.17.6.35,1.22.65,1.73,0,0,0,0,0,0,.07-.27.12-.58.15-.95.02-.31.26-.63.62-.63.04,0,.09,0,.13.01.49.12.68.54.77.75.03.06.09.15.16.24.12.17.27.38.34.63.06-.15.16-.3.29-.43.21-.2.42-.24.57-.24.51,0,.83.49.95.68.47.73.8,1.54,1.01,2.47l.08.33c.18.79.39,1.69.39,2.53,0,.25.02.5.03.76.02.27.03.54.03.81,0,.24,0,.55-.18.85-.08.13-.19.23-.31.29.52,2.48,1.06,5.23,1.18,7.97,0,.12.02.27.03.44.1,1.46.3,4.17-1.47,4.54-.1.02-.21.03-.31.03Z"/>
    <path d="m77.49,64.72c.06,0,.12.02.19.06.08.05.28.42.28.43.16.23.31.47.43.73.19.39.35.79.51,1.2.38.97.66,1.95.95,2.95.19.66.39,1.39.74,1.99.13.22.33.47.53.47.12,0,.24-.1.32-.35.14-.41.2-.84.24-1.27,0-.06.05-.17.13-.17,0,0,.01,0,.02,0,.23.06.33.26.43.47.12.27.42.54.47.84.04.23.12.46.21.68.03.07.26.64.43.64.06,0,.11-.07.14-.24.08-.43,0-.99.33-1.32.08-.07.15-.1.22-.1.22,0,.42.28.53.45.46.71.76,1.48.94,2.31.2.87.45,1.86.46,2.76,0,.52.06,1.04.07,1.57,0,.2,0,.41-.11.59-.06.1-.13.13-.22.13-.09,0-.19-.04-.29-.08.58,2.8,1.17,5.64,1.3,8.5.05,1.09.48,4.16-1.04,4.47-.07.02-.14.02-.21.02-2.06,0-2.48-6.45-2.7-7.61-.53-2.71-1.13-5.42-1.75-8.11-.25.71-.28,1.53-.37,2.27-.03.23,0,.95-.38.99-.01,0-.02,0-.03,0-.29,0-.34-.4-.37-.63-.05-.41-.14-.8-.22-1.2-.06.62-.02,1.26-.14,1.87-.11.57-.31,1.13-.6,1.63-.07.12-.15.16-.24.16-.11,0-.23-.08-.32-.19-.31-.37-.17-1.3-.16-1.72.05-1.99.3-3.97.17-5.97-.14-2.05-.6-4.06-1.01-6.06-.06-.28-.56-3.13.13-3.13m0-1c-.37,0-.72.17-.96.46-.65.8-.38,2.77-.15,3.87l.18.87c.34,1.66.7,3.37.81,5.06.08,1.24,0,2.47-.07,3.78-.04.68-.08,1.39-.1,2.09,0,.07,0,.15-.01.24-.04.65-.1,1.54.41,2.15.29.35.69.54,1.09.54.45,0,.86-.24,1.1-.65.21-.36.38-.75.52-1.17.03,0,.06,0,.08,0,.2-.02.38-.08.54-.17.3,1.39.6,2.8.87,4.22.03.18.07.49.12.88.48,3.82,1.16,7.54,3.56,7.54.14,0,.28-.01.41-.04,2.2-.45,1.99-3.45,1.87-5.06-.01-.16-.02-.31-.03-.43-.12-2.66-.63-5.32-1.13-7.74.07-.07.13-.15.19-.24.26-.42.26-.85.25-1.11,0-.29-.02-.57-.03-.85-.01-.24-.03-.49-.03-.73,0-.9-.22-1.82-.41-2.64l-.07-.33c-.22-.99-.58-1.85-1.08-2.63-.14-.22-.58-.91-1.37-.91-.21,0-.5.05-.78.27,0,0,0,0,0-.01-.04-.05-.08-.1-.11-.16-.1-.23-.38-.86-1.1-1.03-.08-.02-.17-.03-.25-.03-.38,0-.68.19-.88.45-.02-.08-.05-.16-.07-.24l-.04-.15-.08-.28c-.26-.9-.53-1.84-.9-2.76-.16-.4-.33-.83-.54-1.26-.12-.26-.27-.51-.48-.82-.22-.41-.38-.64-.65-.79-.22-.12-.45-.19-.68-.19h0Z"/>
  </g>
  <path class="cls-6" d="m82.42,75.77c.93-.74,2.27,1.36,1.3,2.06-.83.6-2.04-1.45-1.32-2.05,0,0,.01,0,.02-.02Z"/>
  <path class="cls-6" d="m80.81,58.45c.39-.44.71.16.88.52.38.82-1.62.32-.88-.52.01-.02-.25.28,0,0Z"/>
  <path class="cls-6" d="m80.17,54.95c.32.45.76.85.96,1.37.23.59-.27,1.43-.94.94-.42-.3-.58-.91-.7-1.38-.09-.35.05-1.81.67-.93.07.11-.24-.34,0,0Z"/>
  <path class="cls-6" d="m75.71,47.28c.28.09.58.46.46.71-.23.48-.99-.16-.8-.57.07-.15.2-.18.34-.14Z"/>
  <path class="cls-6" d="m77.68,67.03c.15-.73,1.06.38,1.05.73,0,.78-1.17-.15-1.05-.73.05-.22-.04.21,0,0Z"/>
  <path class="cls-6" d="m79.72,72.77c.9-.39,1.72,2.9.8,3.36-.86.43-1.55-2.72-.95-3.26.05-.04.1-.07.15-.1Z"/>
  <path class="cls-6" d="m83.26,82.21c-.14-.49.23-.81.52-.31.48.83-.64.83-.52.31,0,0-.01.05,0,0Z"/>
  <path class="cls-6" d="m77.91,48.53c.62.43,1.42,1.14,1.61,1.91.18.74-.3,1.08-.94.71-.77-.45-1.66-3.31-.67-2.62.2.14-.26-.18,0,0Z"/>
  <path class="cls-6" d="m75.02,45.2s.07.15,0,0c-.23-.48.2-.63.56-.19.44.55-.22.9-.56.19Z"/>
  <path class="cls-6" d="m84.91,86.06c-.15-.38-.32-.76-.52-1.12-.1.78-.23,1.57-.06,2.35.08.4.18.81.36,1.18.13.26.67.88.82.28.06-.22.06-.45.03-.69-.03-.19-.08-.37-.11-.5-.13-.51-.35-1-.51-1.5Z"/>
  <g>
    <path class="cls-5" d="m86.1,60.54c-.5,0-.94-.52-1.05-.71-.25-.41-.4-.86-.53-1.25-.25-.79-.23-1.58-.21-2.34v-.17c0-.21.15-.4.36-.47.05-.02.1-.02.15-.02.16,0,.31.08.41.21.28.39.51.8.67,1.12.09.2.18.37.26.55.16.31.31.62.43.95.05.14.11.32.17.52.08.36.1.64.06.91-.08.52-.42.71-.72.71h0Z"/>
    <path d="m84.82,56.09c.24.33.44.69.64,1.06.22.48.48.94.67,1.44.05.13.11.3.16.48.05.24.08.47.04.69-.03.2-.12.28-.23.28-.22,0-.52-.3-.62-.47-.21-.35-.35-.75-.48-1.14-.24-.76-.2-1.56-.18-2.35m0-1c-.1,0-.2.01-.29.04-.41.13-.69.5-.7.93v.17c-.02.77-.05,1.64.23,2.5.13.42.3.9.58,1.36.2.33.77.94,1.47.94.52,0,1.1-.35,1.22-1.13.05-.33.03-.67-.06-1.06,0-.02,0-.04-.02-.06-.06-.21-.13-.41-.18-.55-.13-.36-.29-.69-.45-1-.08-.17-.17-.33-.24-.5,0-.02-.02-.04-.03-.06-.17-.33-.41-.76-.71-1.18-.19-.27-.5-.42-.81-.42h0Z"/>
  </g>
  <path class="cls-6" d="m72.63,43.12c-.04-.08.23.46,0,0-.7-1.42.08-1.83,1.01-.49,1.15,1.66.01,2.59-1.02.48Z"/>
  <path class="cls-1" d="m64.97,121.22s-2.39-3.46-5.58-4.94"/>
  <line class="cls-1" x1="42.43" y1="98.25" x2="39.88" y2="97.16"/>
  <rect class="cls-3" x="-2399.26" y="-5543.56" width="6467.34" height="6437.3"/>
</svg>