<?xml version="1.0" encoding="UTF-8"?>
<svg id="Calque_1" data-name="Calque 1" xmlns="http://www.w3.org/2000/svg" viewBox="0 0 128 128">
  <defs>
    <style>
      .cls-1 {
        fill: #fce9b9;
      }

      .cls-1, .cls-2, .cls-3, .cls-4, .cls-5 {
        stroke: #000;
      }

      .cls-1, .cls-2, .cls-3, .cls-4, .cls-6 {
        stroke-linecap: round;
        stroke-linejoin: round;
      }

      .cls-2, .cls-7 {
        fill: #ff6d75;
      }

      .cls-3, .cls-8 {
        fill: #fff;
      }

      .cls-4, .cls-5, .cls-6 {
        fill: none;
      }

      .cls-9 {
        fill: #fab0b4;
      }

      .cls-5 {
        stroke-miterlimit: 10;
        stroke-width: .75px;
      }

      .cls-6 {
        stroke: #fff;
        stroke-width: 8px;
      }
    </style>
  </defs>
  <g>
    <polygon class="cls-8" points="45.8 88.2 41.56 91.77 46.37 95.5 45.56 93.04 48.59 95.36 49.26 95.3 47.46 93.05 49.99 94.99 51.04 95.62 51.39 94.78 48.46 91.92 48.72 91.61 51.23 93.7 52.21 94.49 52.76 93.96 51.01 91.85 52.46 91.62 52.46 91.05 49.29 90.76 47.16 89.44 45.8 88.2"/>
    <polygon class="cls-8" points="65.97 79.85 62.37 81.88 62.37 83.71 68.82 81.91 65.97 79.85"/>
    <path class="cls-2" d="m60.5,107.08c-5.3-3.6-26.62-.37-30.2-8.51-3.58-8.13,3.2-11.64,3.2-11.64,0,0,1.15,1.54,3.37,2.8,2.21,1.27,4.09,2,5.1,2.82,2.53,2.12,5.72,4.97,5.06,3.17-.17-.47-.36-.86-.55-1.18l.91.4s0,0,.01,0c.88.58,2,1.22,2.36,1.04.85.41,1.72.82,2.58,1.21,2.77,1.27,5.49,2.32,7.43,2.4.2,0,.86.4,1.45.79.44.29.86.57,1.02.69.24.16.48.34.75.55,4.84,3.68,2.83,9.04-2.48,5.45Z"/>
    <path class="cls-4" d="m46.37,94.37c.07.03.16.07.24.11.09.05.19.09.28.13"/>
    <path class="cls-4" d="m52.74,94.6c-.44.28-.75.24-1.08,0,.35,2.29-1.79.81-1.95.69.12.2.19.38.16.55-.01.07-.05.12-.11.15-.36.18-1.48-.46-2.36-1.04,0,0-.01,0-.01,0-.18-.11-.34-.23-.49-.33-.36-.24-.62-.44-.67-.47.05.07.1.14.15.23.03.05.07.11.1.17.2.32.38.71.55,1.18.65,1.81-5.22-3.31-5.3-3.38-.24-.2-.5-.41-.76-.61l4.95-4,.09.12c1.41,1.69,2.67,2.97,4.44,2.86,3.9-.24,2.45,1.87.73,1.05.27.18,2.89,1.98,1.56,2.84Z"/>
    <path class="cls-4" d="m45.38,93.27s.39.23.84.87h0"/>
    <path class="cls-4" d="m61.61,72.77c.66,1.84,1.26,3.25,1.96,4.4.82,1.35,1.77,2.33,3.12,3.17,3.48,2.18,5.14,4.7,2.82,4.94"/>
    <path class="cls-4" d="m33.32,86.51c-7.52-6.06-1.91-21.26-1.91-21.26,3.09-7.34,8.83-6.44,9.67-8.63"/>
    <path class="cls-4" d="m48.46,91.77c1.83.85,2.5,2.31,3.2,2.83"/>
    <path class="cls-4" d="m51.18,91.76s-.02-.02-.02-.02"/>
    <path class="cls-4" d="m47.46,93.26s1.7,1.13,2.24,2.02h0"/>
    <path class="cls-4" d="m46.23,94.14h0"/>
    <path class="cls-4" d="m49.71,95.3h0"/>
    <line class="cls-4" x1="45.06" y1="86.71" x2="45.05" y2="86.71"/>
    <path class="cls-4" d="m43.05,84.5h-.02"/>
    <path class="cls-2" d="m59.39,79.17s-1.01,2.28.57,5.97c0,0,4.75,9.83,1.26,15.26,0,0,0,.01-.01.02-3.01-1.78-3.16-.07-6.93-2.14-.78-.42-1.41-.78-1.93-1.06l-2.47-1.36c.03-.16-.03-.35-.16-.55.16.11,2.3,1.6,1.95-.69.32.24.64.28,1.08,0,1.33-.86-1.29-2.67-1.56-2.84,1.71.82,3.17-1.29-.73-1.05-1.77.11-3.03-1.17-4.44-2.86l-.09-.12-4.95,4s-4.6-2.02-6.39-3.69c0,0-1.87-1.88-3.02-3.31-5.31-6.58-.38-21.63,2.03-23.91,2.4-2.28,7.5-4.21,7.5-4.21,4.92,1.68,9.07.92,9.9.13.03-.03,0,.04,0,0-.03-.09,1.85.25,6.12,3.25,0,0,0,0,.01,0,.09.07.19.14.28.22.06.05.12.11.19.18,4.26,3.86,8.51,18.89,8.51,18.89-.04.07-.11.16-.22.26-.98.9-4.59,2.65-4.59,2.65l-1.89-3.04Z"/>
    <path class="cls-4" d="m62.17,82.37s-.67,6.98.81,5.16c1.48-1.81.92-4.5,2.9-2.27s1.62,3.69,2.39,2.24-.74-3.31-.74-3.31"/>
    <path class="cls-4" d="m68.97,86.29s3.69,4.05,2.04.33l-1.29-1.99"/>
    <path class="cls-2" d="m66.32,100.83c-1.56.46-2.14,1.43-2.14,1.43.85.97,1.77,2.82,1.65,3.92-.27,2.47,13.94-.84,11.24-5.42-1.37-2.31-7.35-.87-7.35-.87"/>
    <path class="cls-2" d="m68.5,89.92s-2.83-.64-3.05,5.32c-.05,1.49,0,5.98,0,5.98,0,0,3.79-1.5,7.31-1.72,0,0,3.46-5.75,4.39-12.74.93-6.99-7.01-4.93-7.01-4.93l-10.39,2.76s4.68,9.57,1.46,15.81l1.01.68s1.59-1.33,2.94-3.29"/>
    <path class="cls-1" d="m59.39,79.17c-1.39-2.53-3.54-7.84-4.93-10.5"/>
    <path class="cls-4" d="m38.71,66.26s.57,10.62.04,15.19c0,0,.82-.21,4.01,2.77.1.09,1.42,1.36,1.52,1.45l1.73,2.18"/>
    <path class="cls-9" d="m56.21,54.76h-.02s.01-.02.01-.02c0,0,0,.02.01.02Z"/>
    <path class="cls-3" d="m41.35,56.25c.84-2.18,0-8.22,0-8.22-5.5-8.21-3.45-14.8,1.45-18.49,4.9-3.69,15.57-6.48,21.83,3.83,6.26,10.3-3.05,14.74-3.05,14.74,0,0-.86,1.32.1,2.42.96,1.11-1.48,1.9-1.48,1.9,0,0-1.3,4.39-4.09,5.79,0,0-1.55.84-3.31.37s-3.48-1.96-3.48-1.96"/>
    <path class="cls-4" d="m47.51,42.47s-3.09-1.54-3.66,1.7c-.57,3.24,2.29,2.74,2.29,2.74"/>
    <circle cx="58.37" cy="48.25" r=".76"/>
    <path class="cls-4" d="m57.48,45.61s1.54-1.24,2.9.3"/>
    <line class="cls-4" x1="45.78" y1="44.33" x2="46.46" y2="44.58"/>
    <circle class="cls-9" cx="53.37" cy="47.92" r="1.6"/>
    <path class="cls-7" d="m56.2,54.74s0,.01-.01.01c-.47.33-1.22.36-1.89-.21-.55-.46-.76-.96-.83-1.38,0,0,.01,0,.03,0,.02,0,.05-.01.09-.02.07-.01.17-.03.3-.03.05,0,.09,0,.14,0,.09,0,.19,0,.31.02.21.03.46.1.7.22.06.03.12.06.18.11.05.02.09.05.13.09.32.24.63.62.87,1.19Z"/>
    <polygon class="cls-9" points="53.47 53.16 53.47 53.16 53.47 53.16 53.47 53.16"/>
    <path class="cls-9" d="m56.2,54.74c-.24-.57-.55-.95-.87-1.19-.04-.04-.08-.07-.13-.09-.06-.05-.12-.07-.18-.11-.24-.13-.48-.2-.7-.22-.11-.02-.21-.02-.31-.02-.05,0-.1,0-.14,0-.13,0-.23.02-.3.03-.04,0-.07.01-.09.02-.02,0-.03,0-.03,0-.09-.59.1-1.03.1-1.03.87-1.23,2.54.58,2.54.58.85.76.68,1.63.09,2.03Z"/>
    <path class="cls-5" d="m56.06,52.76s-1.68-1.82-2.54-.58c0,0-.19.44-.1,1.03.07.43.28.92.83,1.38.67.57,1.42.54,1.89.21.01,0,.01-.01.01-.01.59-.4.76-1.27-.09-2.03Z"/>
    <path class="cls-4" d="m66.77,40.6s-6.73,2.63-11.49-1.43c0,0-1.81,3.6-5.97,1.21"/>
  </g>
  <g>
    <polygon class="cls-4" points="109.31 100.13 109.31 103.79 85.68 103.79 85.68 100.13 91.71 98.36 92.98 94.77 105.42 94.77 107.45 100.13 109.31 100.13"/>
    <circle class="cls-3" cx="90.8" cy="103.78" r="2.84"/>
    <circle class="cls-3" cx="103.05" cy="103.78" r="2.84"/>
  </g>
  <rect class="cls-6" x="-1142.77" y="-314.74" width="1656.38" height="875.1"/>
</svg>