<?xml version="1.0" encoding="UTF-8"?>
<svg id="Calque_1" data-name="Calque 1" xmlns="http://www.w3.org/2000/svg" viewBox="0 0 200.13 128.13">
  <defs>
    <style>
      .cls-1, .cls-2, .cls-3, .cls-4, .cls-5, .cls-6, .cls-7, .cls-8, .cls-9, .cls-10, .cls-11 {
        stroke-linejoin: round;
      }

      .cls-1, .cls-2, .cls-3, .cls-4, .cls-5, .cls-7, .cls-8, .cls-10, .cls-11 {
        stroke-linecap: round;
      }

      .cls-1, .cls-2, .cls-3, .cls-4, .cls-5, .cls-7, .cls-10, .cls-11 {
        stroke: #000;
      }

      .cls-1, .cls-12 {
        fill: #d6d6d6;
      }

      .cls-2, .cls-13 {
        fill: #ff6d75;
      }

      .cls-3, .cls-10 {
        fill: #fff;
      }

      .cls-4, .cls-5, .cls-6, .cls-7, .cls-8, .cls-9, .cls-11 {
        fill: none;
      }

      .cls-5, .cls-10 {
        stroke-width: .75px;
      }

      .cls-6, .cls-9 {
        stroke: #ff6d75;
      }

      .cls-7, .cls-9 {
        stroke-width: 2px;
      }

      .cls-8 {
        stroke: #fff;
        stroke-width: 8px;
      }

      .cls-11 {
        stroke-width: 3px;
      }
    </style>
  </defs>
  <path class="cls-3" d="m191.07,106.67l-7.91,2.07v.62c0,2.29-1.86,4.14-4.14,4.14h-27.64c-2.29,0-4.14-1.85-4.14-4.14v-20.85c0-2.29,1.85-4.14,4.14-4.14h27.64c2.29,0,4.14,1.86,4.14,4.14v12.96l7.91,5.21Z"/>
  <path class="cls-3" d="m171.98,40.92l-9.76,2.55v.76c0,2.83-2.29,5.11-5.11,5.11h-47.05c-2.82,0-5.1-2.28-5.1-5.11v-25.71c0-2.82,2.28-5.11,5.1-5.11h47.05c2.82,0,5.11,2.29,5.11,5.11v15.98l9.76,6.42Z"/>
  <path class="cls-1" d="m87.07,124.47h-43.34c-.42-5.61-.53-10.98-.09-15.36.86-8.61,4.69-15.66,7.34-20.35,1.66,1.38,4.43,2.52,6.5,3.04,3.41.84,4.81.97,8.25.84.54-.06,1.1-.09,1.59-.14,4.97-.56,8.16-1.13,8.16-1.13,0,0,6.92,15.34,9.7,24.53.58,1.9,1.22,4.94,1.89,8.57Z"/>
  <path class="cls-3" d="m72.82,44.71c-.49.22-1,.38-1.5.51-4.25,1.01-9.08-.8-10.73-1.48l.51-7.22.05-.81,11.16-2.15.29,2.32.94,7.85c-.05.14-.09.31-.14.43-.04.09-.05.18-.09.25-.02.04-.02.07-.04.11h-.02l-.43.2Z"/>
  <g>
    <path class="cls-10" d="m101.02,116.54c.03.35.03.7.02,1.06-.02.94-.07,1.89-.08,2.83,0,.41,0,.82.12,1.21.12.39.36.76.73.94s.86.12,1.12-.2c.22-.28.22-.67.21-1.03-.02-.47-.03-.94-.05-1.41-.02-.64-.04-1.27-.09-1.91-.1-1.29-.35-2.63-1.15-3.64-.25-.32-1.47-1.14-1.47-.21,0,.36.29.76.4,1.1.13.41.22.83.25,1.26Z"/>
    <path class="cls-10" d="m101.76,117.14c.03.35.03.7.02,1.06-.02.94-.07,1.89-.08,2.83,0,.41,0,.82.12,1.21s.36.76.73.94.86.12,1.12-.2c.22-.28.22-.67.21-1.03-.02-.47-.03-.94-.05-1.41-.02-.64-.04-1.27-.09-1.91-.1-1.29-.35-2.63-1.15-3.64-.25-.32-1.47-1.14-1.47-.21,0,.36.29.76.4,1.1.13.41.22.83.25,1.26Z"/>
    <path class="cls-10" d="m92.53,104.14c.11-.54,1.76-.95,2.49-2.01,2.32,1.36,6.22,8.78,7.19,10.73.65,1.32,1.33,2.69,1.61,4.15.3,1.54.35,3.11.43,4.68.01.24.02.5-.05.73-.14.42-.69.69-1.07.4-.83-.62-.88-1.92-.96-2.87-.07-.88-.09-1.78-.31-2.65-.21-.85-.66-1.54-1.23-2.2-.41-.48-.79-.96-1.21-1.43-.16-.18-.33-.36-.51-.51-.25-.21-.53-.37-.85-.42-.27-.04-.68,0-.89.21-.22.22-.1.57-.05.83.07.31.2.61.34.9.24.49.53.98.63,1.53.02.09.03.19.03.28.04,1.01-.97,2.22-1.83,1.13-.19-.24-.31-.51-.44-.78-.61-1.29-1.49-2.46-1.85-3.85-.23-.88-.37-1.79-.5-2.69-.51-3.4-1.27-4.55-.95-6.15Z"/>
    <path class="cls-10" d="m98.9,113.16c-.12-.18-.25-.35-.39-.51-.25-.29-.54-.56-.9-.68-.36-.12-.8-.06-1.05.22-.21.24-.24.59-.2.91.11.78.63,1.42,1.09,2.06.24.33.46.67.62,1.04-.09-.54-.39-1.04-.63-1.53-.14-.29-.27-.58-.34-.9-.06-.26-.18-.61.05-.83.21-.2.62-.25.89-.21.32.05.6.21.85.42Z"/>
  </g>
  <path class="cls-4" d="m65.15,4.77s0,2.08-.75,3.49h-.02"/>
  <path class="cls-4" d="m61.11,9.13c-1.65-.95-2.76-3.37-2.76-3.37"/>
  <path class="cls-2" d="m55.86,29.23h-.02c-.21-.04-1.69-.43-2.55-2.76-.94-2.51-2.01-2.22-2.11-4.82-.07-2.46,2.48-1.39,2.76-1.25"/>
  <path class="cls-4" d="m74.96,7.72s-1.61.96-3.4,1.29"/>
  <path class="cls-3" d="m57.71,10.15c1.03.05,2.22-.19,3.41-1.02.5.3,1.02.45,1.58.39.79-.08,1.32-.61,1.68-1.27.02.02.04.03.06.03.22.21,1.65,1.46,3.41-.24.92,1.1,2.37,1.22,3.71.96.81.62,1.9.55,1.9.55.06.09.15.2.19.29,3.3,4.65,3.62,7.81,3.64,8.15.2-.83.35-1.62.46-2.37-.18,1.4-.44,2.4-.5,2.61v.02s-.01.04-.01.04h.02c.05,1.32.06,4.73-.48,8.26-.46,2.93-1.34,5.96-2.95,7.9-3.72,4.53-6.14,4.62-6.5,4.59-.37.09-2.92.47-7.31-3.45-1.89-1.67-3.23-4.52-4.13-7.35-1.08-3.4-1.59-6.77-1.74-8.09h.02c-.03-.15-.04-.3-.04-.47.05.13.09.2.09.2-.04-.55-.05-1.09-.03-1.63.36-2.74,2.86-7.27,3.15-8.05l.37-.07Z"/>
  <path class="cls-4" d="m54.19,18.27c-.07.52-.09.99-.06,1.43"/>
  <path class="cls-4" d="m54.16,20.16s0-.02-.02-.04v-.02c-.12-.26-.71-1.59-1.12-3.42v-.06c-.82-3.65-.85-9.16,5.22-11.62,0,0,.38-2,2.94-1.69,0,0,2.97-3.24,6.55-.58,2.48-.7,3.16,1.21,3.16,1.21,6.85,1.61,7.29,7.79,6.89,11.48-.01.08-.03.13-.02.19"/>
  <path class="cls-4" d="m73.72,10.22s3.52,5.13,3.52,8.08"/>
  <path class="cls-4" d="m54.08,19.6v.02c0,.06.02.23.06.49v.02s0,.04,0,.04"/>
  <path class="cls-4" d="m77.26,18.3v-.04"/>
  <path class="cls-4" d="m77.24,17.74s.01.19.02.51"/>
  <path class="cls-2" d="m77.1,28h.02c.2-.08,1.6-.68,2.1-3.12.54-2.63,1.65-2.51,1.34-5.09-.31-2.44-2.66-.99-2.92-.81"/>
  <path class="cls-4" d="m69.3,6.02c-.45.83-.89,1.45-1.31,1.88-.05.06-.09.12-.14.14"/>
  <path class="cls-4" d="m64.44,8.29l-.04-.03"/>
  <path class="cls-3" d="m66.82,18.01s.79,7.09,2.33,10.65c0,0-.3.73-2.61.28"/>
  <ellipse class="cls-3" cx="62.06" cy="21.4" rx=".25" ry=".71" transform="translate(-1.47 4.85) rotate(-4.42)"/>
  <path class="cls-2" d="m43.98,75.29c1.63-1.72,3.15-3.53,4.52-5.41.07.81.04,2.57-.07,4.8-.18,4.47-.6,10.82-.85,14.86.96,1.39,1.85,2.84,2.68,4.29.52.9.6,2.01.18,2.97-.05.13-.11.27-.18.4.07.04.13.05.2.07,7.76,2.48,16.21,2.77,24.16.94,1.61-.36,3.29-.89,4.29-2.28.16-.24.33-.49.43-.76,2.06,2.59,4.25,5.1,6.59,7.47,1.99,2.01,5.08,2.46,7.58,1.12,1.86-1,2.93-2.9,2.93-4.85,0-.92-.24-1.86-.74-2.73-1.39-2.39-2.84-4.63-4.45-6.93-.89-1.27-2.53-3.4-3.44-4.56-.4-.51-.6-1.16-.56-1.81.27-4.47,2.58-24.07-2.88-31.52-.19-.25-.33-.56-.54-.8-2.33-2.37-7-5.21-9.95-6.39-.2.13-.4.24-.6.34h-.02l-.43.2c-.49.22-1,.38-1.5.51-4.25,1.01-9.08-.8-10.73-1.48-.38-.16-.58-.27-.58-.27-2.66.34-5.28.92-7.84,1.77-2.79.94-5.23,2.04-7.55,3.89-2.33,1.9-4.42,4.11-6.39,6.39-.96,1.1-1.88,2.23-2.81,3.37-.45.54-.9,1.09-1.36,1.65"/>
  <path class="cls-3" d="m73.87,44.17c-.2.13-.4.24-.6.34h-.02c-.14.07-.29.14-.43.2-.49.22-1,.38-1.5.51l1.59-.65.4-.16.56-.24Z"/>
  <path class="cls-4" d="m82.39,69.97c-.09,2.59-1.67,18.98-2.1,21.55-.25,1.5-.49,3.13-1.39,4.4-.99,1.39-2.68,1.92-4.29,2.28"/>
  <path class="cls-10" d="m66.21,106.24s-5.27-2.5-5.27-2.5c-.78-.37-1.58-.68-2.35-1.08-.38-.2-.76-.42-1.11-.69-.32-.24-.74-.57-.15-.64.39-.05.8.02,1.19.05.6.05,1.27.1,1.87-.05.33-.08.66-.29.8-.61.17-.42-.05-.91-.4-1.19-.01,0-.03-.02-.04-.03-.37-.28-.85-.38-1.3-.46-1.47-.27-3-.34-4.45-.71-.84-.21-1.57-.57-2.44-.7-.7-.1-1.41-.14-2.12-.11l-.95-1.05c.03-.05.05-.08.05-.08-.29-.33-.58-.66-.88-1-1.19,1.88-2.39,3.76-3.59,5.64.75.58,1.23.94,1.24.92,0,0,0-.01.02-.03.52,2.63,2.37,5.35,4.52,6.68.22.14.45.26.62.45.14.14.24.32.34.49.59,1.01,1.14,2.03,1.65,3.08.32.66.73,2.22,1.64,2.24.63.02,1.07-.68.79-1.23-.51-1.01-1.04-2.02-1.58-3.02-.2-.37-.44-.73-.59-1.12-.05-.12-.2-.42-.12-.56.39-.7,1.36.61,1.61.9.46.53.93,1.05,1.39,1.58.66.74,1.33,1.47,2.01,2.19.43.45.97,1.33,1.71,1.01.52-.22.68-.93.29-1.34-.22-.23-.43-.46-.65-.69-.04-.09-.08-.17-.15-.25-.73-.84-1.43-1.69-2.11-2.56-.34-.44-.68-.87-1.01-1.31-.14-.19-.98-.86-.69-1.13.33-.31,1.24.66,1.48.82.67.45,1.34.9,2.01,1.35.9.6,1.77,1.24,2.67,1.84.56.37,1.51,1.3,2.18.67.36-.34.34-.97-.04-1.28-.04-.05-.07-.1-.12-.14-1.13-1.1-2.4-2.03-3.65-2.98-.62-.46-1.23-.93-1.82-1.43-.31-.26-.6-.52-.9-.79-.12-.11-.48-.33-.34-.53.14-.19.56,0,.71.06.41.16.78.46,1.19.61.7.25,1.39.5,2.09.76.97.36,1.94.72,2.9,1.08.58.22,1.45.84,2.03.32.42-.38.33-1.19-.19-1.43Z"/>
  <path class="cls-2" d="m43.98,75.29c-1.43,1.52-2.91,2.97-4.42,4.4,3.06,3.2,5.74,6.46,8.02,9.84.96,1.39,1.85,2.84,2.68,4.29.52.9.6,2.01.18,2.97-.05.13-.11.27-.18.4-.61,1.45-1.3,2.86-2.13,4.22-.67,1.1-2.06,1.52-3.24.98-4.18-1.94-8.09-4.54-11.64-7.44-2.99-2.44-6.03-5.1-7.87-8.54-3.09-5.75-.78-12.32,2.42-17.48,1.83-2.97,4.05-5.7,6.28-8.4"/>
  <line class="cls-4" x1="39.56" y1="79.69" x2="34.08" y2="74.82"/>
  <line class="cls-1" x1="68.55" y1="46.13" x2="67.07" y2="98.93"/>
  <ellipse class="cls-3" cx="73.55" cy="20.51" rx=".25" ry=".71" transform="translate(-1.36 5.74) rotate(-4.42)"/>
  <polyline class="cls-5" points="82.03 17.31 84.62 18.82 85.75 16.04 88.35 17.55 89.49 14.77 92.09 16.28"/>
  <polyline class="cls-5" points="81.31 27.44 81.26 30.28 83.99 29.52 83.95 32.36 86.68 31.6 86.64 34.44"/>
  <path class="cls-12" d="m122,20.51h5.14l7.69,21.73h-4.92l-1.43-4.47h-8l-1.47,4.47h-4.75l7.76-21.73Zm-.3,13.52h5.56l-2.74-8.55-2.82,8.55Z"/>
  <path class="cls-12" d="m144.36,25.88h3.85l5.77,16.3h-3.69l-1.08-3.35h-6l-1.1,3.35h-3.56l5.82-16.3Zm-.22,10.14h4.17l-2.06-6.41-2.11,6.41Z"/>
  <path class="cls-4" d="m64.72,33.81s1.96-1.2,4.86,0"/>
  <polyline class="cls-5" points="48.65 20.9 47.73 17.93 44.82 19.04 43.9 16.06 40.98 17.16 40.06 14.19"/>
  <polyline class="cls-5" points="51.34 28.94 48.08 28.41 47.37 31.63 44.11 31.1 43.4 34.33 40.13 33.8"/>
  <polyline class="cls-5" points="48.21 24.7 46.43 22.66 45.3 25.12 43.52 23.09 42.39 25.55 40.61 23.51"/>
  <polyline class="cls-5" points="83.56 22.08 84.46 24.59 86.3 22.66 87.21 25.17 89.05 23.24 89.96 25.75"/>
  <line class="cls-9" x1="111.44" y1="6.74" x2="160.21" y2="56.52"/>
  <line class="cls-9" x1="110.94" y1="56.02" x2="160.72" y2="7.25"/>
  <g>
    <ellipse class="cls-12" cx="158.14" cy="106.34" rx="2.71" ry="2.16" transform="translate(-24.68 52.56) rotate(-17.53)"/>
    <rect class="cls-12" x="160.04" y="91.52" width=".76" height="14.55"/>
    <g>
      <ellipse class="cls-12" cx="169.32" cy="104.96" rx="2.71" ry="2.16" transform="translate(-23.75 55.86) rotate(-17.53)"/>
      <polygon class="cls-12" points="171.98 104.69 171.22 104.69 171.22 90.26 171.98 90.14 171.98 104.69"/>
    </g>
    <polygon class="cls-12" points="160.04 91.52 171.98 90.12 171.98 93.33 160.04 94.72 160.04 91.52"/>
  </g>
  <line class="cls-6" x1="150.94" y1="83.41" x2="181.08" y2="114.17"/>
  <line class="cls-6" x1="150.63" y1="113.86" x2="181.39" y2="83.72"/>
  <g>
    <rect class="cls-13" x="106.8" y="70.91" width="26.91" height="26.91" rx="5.26" ry="5.26"/>
    <path class="cls-7" d="m133.71,82.23v11.81c0,2.08-1.7,3.78-3.78,3.78h-19.35c-2.08,0-3.78-1.7-3.78-3.78v-19.35c0-2.08,1.7-3.78,3.78-3.78h19.35"/>
    <line class="cls-11" x1="128.57" y1="92.69" x2="112.18" y2="76.08"/>
    <line class="cls-11" x1="112.18" y1="92.69" x2="128.57" y2="76.08"/>
  </g>
  <rect class="cls-8" x="-1524.64" y="-3004.7" width="6467.34" height="6437.3"/>
</svg>