<?xml version="1.0" encoding="UTF-8"?>
<svg id="Calque_1" data-name="Calque 1" xmlns="http://www.w3.org/2000/svg" viewBox="0 0 128 128">
  <defs>
    <style>
      .cls-1, .cls-2, .cls-3, .cls-4, .cls-5, .cls-6, .cls-7, .cls-8, .cls-9, .cls-10, .cls-11, .cls-12, .cls-13, .cls-14, .cls-15, .cls-16, .cls-17, .cls-18, .cls-19, .cls-20 {
        stroke-linecap: round;
        stroke-linejoin: round;
      }

      .cls-1, .cls-2, .cls-3, .cls-4, .cls-5, .cls-6, .cls-7, .cls-8, .cls-9, .cls-10, .cls-11, .cls-12, .cls-13, .cls-14, .cls-15, .cls-16, .cls-18, .cls-19, .cls-21, .cls-20 {
        stroke: #000;
      }

      .cls-1, .cls-10 {
        fill: #76ac75;
      }

      .cls-2 {
        fill: #8987f3;
      }

      .cls-3, .cls-9, .cls-14 {
        fill: #b4eac3;
      }

      .cls-4, .cls-20 {
        fill: #ff6d75;
      }

      .cls-5 {
        fill: #ffa75f;
      }

      .cls-6, .cls-11, .cls-12, .cls-15 {
        fill: #fff;
      }

      .cls-7, .cls-8, .cls-13, .cls-16, .cls-17, .cls-18, .cls-19 {
        fill: none;
      }

      .cls-8, .cls-21, .cls-20 {
        stroke-width: .75px;
      }

      .cls-9, .cls-11, .cls-13 {
        stroke-width: 2px;
      }

      .cls-10, .cls-16 {
        stroke-width: .5px;
      }

      .cls-12 {
        stroke-width: 2.01px;
      }

      .cls-14, .cls-15 {
        stroke-width: 1.94px;
      }

      .cls-17 {
        stroke: #fff;
        stroke-width: 8px;
      }

      .cls-18 {
        stroke-width: .22px;
      }

      .cls-19 {
        stroke-width: .44px;
      }

      .cls-21 {
        fill: #afaff9;
        stroke-miterlimit: 10;
      }
    </style>
  </defs>
  <path class="cls-13" d="m59.14,52.74s11.63-1.07,16.33-.78c4.7.29,16.17,1.39,24.07,2.7,7.9,1.31,14.24,5.15,14.24,5.15l-3.77,4.04-27.69,6.69-23.18-17.79s4.41,3.67,14.99,6.76c10.58,3.09,14.13,3.97,20.07,3.42,5.94-.55,19.59-3.12,19.59-3.12"/>
  <g>
    <g>
      <path class="cls-4" d="m93.53,59.9c-.17,1.93-.65,3.24-1.09,4.39-.58,1.55-1.04,2.15-1.61,2.58-.59.44-1.21.62-1.45.68-.95.24-1.72.08-1.89.04-.49-.11-.62-.25-1.69-.84-1.73-.97-1.78-.83-2.25-1.25-.53-.47-.8-.96-1.33-1.93-.43-.78-.65-1.38-1.05-2.45-.5-1.36-.75-2.05-.72-2.7,0-.07,0-.16.01-.26.04-.51.17-1.28.79-1.83.5-.44,1.2-.58,1.83-.52.25.03.49.08.7.16.76.28.66.28.99.5.39-.49.41-.74,1.38-.97.57-.13.75-.1,1.27-.1.1-.34.06-.65.47-1.35.1-.16.23-.3.37-.42.42-.36.96-.52,1.08-.56.84-.3,1.61-.05,2.03.14.12.05.21.11.27.14.91.53,1.24,1.4,1.53,2.17.59,1.61.48,2.99.36,4.39Z"/>
      <path class="cls-4" d="m83.88,54.1c-.17.09-.34.23-.48.48-.22.38-.29.87-.32,1.22-.63-.06-1.32.08-1.83.52-.62.55-.75,1.32-.79,1.83-.14-.22-.25-.48-.32-.78-.15-.66-.11-.87-.09-1.24.02-.36.16-.88.51-1.18-.12-.56,0-1.37.38-1.8.47-.55,1.37-.6,1.52-.61.18-.01.3,0,.41.01h0c.16.22.28.38.28.38.08.1.17.22.28.4.11.19.09.21.19.39.09.17.17.26.26.37Z"/>
      <path class="cls-20" d="m91.37,53.2c-.41-.19-1.19-.44-2.03-.14-.12.04-.65.2-1.08.56-.04-.26-.03-.55-.03-.55,0,0-.71.47-1.19.42-.47-.05-1.09-.42-1.09-.42,0,0-.11.09-.28.21-.09-.19-.09-.36-.28-.63-.17-.25-.22-.18-.56-.53-.12-.12-.23-.24-.33-.37.16-.14.21-.2.35-.24.34-.1.51-.05.82.18.37-.42.88-.69,1.25-.83.82-.29.99-.18,1.47-.13,1.19.14,1.65.86,2.03,1.23.25.25.66.66.96,1.22Z"/>
    </g>
    <g>
      <path class="cls-10" d="m88.26,53.62c-.14.12-.27.26-.37.42-.41.69-.37,1.01-.47,1.35-.51,0-.7-.03-1.27.1-.97.23-.99.48-1.38.97-.33-.22-.23-.22-.99-.5-.21-.08-.45-.13-.7-.16.02-.34.1-.83.32-1.22.14-.25.31-.39.48-.48.06.08.13.17.21.32.04.08.08.17.11.29.01.06.03.18,0,.31-.04.2-.15.25-.12.32.01.04.06.09.42.12.35.03.42-.01.74,0,.33.02.4.07.52,0,.04-.02.08-.06.26-.39.19-.33.2-.38.28-.43.14-.09.21-.03.39-.12.12-.07.29-.22.26-.34-.03-.12-.25-.1-.57-.25-.03-.02-.33-.16-.55-.42-.08-.09-.12-.16-.16-.24.16-.12.28-.21.28-.21,0,0,.62.36,1.09.42.48.05,1.19-.42,1.19-.42,0,0,0,.29.03.55Z"/>
      <path class="cls-1" d="m84.04,50.01s-.48.72-.97.82c-.49.09-1.22-.26-1.22-.26,0,0,.05-.07.14-.17.19-.22.55-.57.9-.62.34-.05.73.07.96.16h0c.09.04.16.06.17.07,0,0,0,0,0,0Z"/>
      <path class="cls-1" d="m86.95,54.19c.03.12-.14.27-.26.34-.17.1-.24.03-.39.12-.08.05-.09.1-.28.43-.19.33-.22.36-.26.39-.12.07-.19.02-.52,0-.32-.01-.39.03-.74,0-.35-.03-.4-.08-.42-.12-.03-.08.08-.13.12-.32.03-.13.01-.25,0-.31-.02-.12-.07-.22-.11-.29-.08-.15-.15-.24-.21-.32-.08-.11-.16-.2-.26-.37-.1-.18-.07-.19-.19-.39-.1-.18-.2-.3-.28-.4,0,0-.12-.16-.28-.38h0c-.09-.13-.2-.28-.3-.43-.21-.31-.32-.5-.4-.68-.13-.27-.33-.76-.31-.88,0,0,.73.36,1.22.26.49-.09.97-.82.97-.82.13.16.02.71.11,1.08.06.26.19.47.35.67.1.13.22.25.33.37.33.35.38.28.56.53.19.27.19.43.28.63.03.07.08.15.16.24.23.26.52.4.55.42.32.15.54.12.57.25Z"/>
    </g>
    <path class="cls-8" d="m88.89,56.72s1.38.72,2.02,3.38.06,5.51,0,5.91-.21.99-.62,1.18"/>
    <path class="cls-8" d="m84.41,60.93s.27,2.47.99,3.66,1.02,1.94,1.45,2.28,1.03.81,1.66.8"/>
    <path class="cls-8" d="m83.71,51.27s.27.57.52.73.97.62.97.62"/>
    <path class="cls-16" d="m84.04,52.76s.4.5.84.72,1.25.32,1.25.32"/>
    <path class="cls-16" d="m83.52,53.5s.71.85,1.05,1,.51.19.51.19"/>
    <path class="cls-7" d="m84.5,57.22s.08-.32.24-.67c.09-.2.24-.36.24-.36"/>
  </g>
  <g>
    <path class="cls-5" d="m94.96,76.55c-.14,0-.12-1.15-.53-3.23-.38-1.89-.61-2.01-.7-3.28-.07-1.02.06-1.34-.1-2.44-.13-.92-.3-1.22-.47-1.99-.34-1.54,0-1.78-.16-3.57-.2-2.29-.79-2.26-.82-4.3-.01-.88.09-1.34-.05-2.39-.11-.86-.27-1.26-.52-2.2-.56-2.09-.84-3.13-.69-3.98.34-1.99,2.15-3.08,2.25-3.14.12-.07.69-.39,1.49-.56.17-.04.36-.06.54-.09.08,0,.16,0,.23-.01.23-.01.48,0,.73.03.35.05.71.15,1.07.31,1.24.57,1.82,1.65,1.97,1.94.4.77.26,2.3.26,2.5-.01.61,0,.62-.26,1.69-.22.87-.07.77-.31,2.91-.21,1.85-.31,2.78-.62,3.96-.43,1.64-.69,1.61-.91,2.89-.26,1.58.14,1.55-.13,3.06-.23,1.28-.57,1.53-.93,3.38-.08.43-.06.37-.24,1.43-.22,1.32-.38,2.09-.48,2.64-.51,2.76-.43,3.1-.64,4.45Z"/>
    <path class="cls-1" d="m95.65,42.63c-.06-.26-.15-.5-.25-.78-.13-.35-.26-.68-.4-.97-.07-.69-.14-1.86.03-3.36.16-1.39.24-2.1.71-2.88.6-1.01,1.39-1.45,1.6-1.57.76-.39,1.76-.58,1.91-.31.21.37-1.3,1.41-1.07,1.81.12.2.54,0,1.37.16.48.09,1.29.32,1.29.58,0,.31-1.07.62-1.43.73-.55.16-.88.18-.94.39-.05.21.23.33.35.83.04.16.12.5-.03.63-.2.17-.55-.27-1.11-.19-.31.04-.52.22-.82.49-.23.2-.57.49-.73.9-.23.59-.05,1.44.04,2.29-.02.04-.04.08-.06.11-.21.42-.36.79-.47,1.14Z"/>
    <path class="cls-1" d="m95.2,45.37c-.19.02-.37.05-.54.09-.01-.39-.05-.92-.14-1.61-.14-1-.31-1.63-.74-2.22-.21-.27-.53-.7-1-.73-.32-.02-.38.17-1.02.41-.38.14-.89.32-1.42.17-.16-.05-.45-.13-.55-.37-.1-.26.09-.58.22-.79.27-.43.54-.53.5-.69-.04-.15-.3-.11-.68-.31-.07-.03-.74-.39-.71-.81.03-.41.73-.65.81-.67.68-.22,1.29.05,1.33-.07.03-.09-.34-.22-.7-.62-.2-.21-.51-.52-.43-.67.11-.23,1.04-.02,1.68.24.4.16.79.32,1.13.7.28.31.28.49.68,1.18.26.45.3.43.62.95.19.31.48.75.75,1.33.14.29.28.61.4.97.1.28.19.52.25.78-.07.2-.13.4-.18.6,0,.02-.01.05-.02.08-.16.6-.25,1.38-.24,2.06Z"/>
    <path class="cls-1" d="m103.11,43.7c-.29.24-1.37-.49-1.84-.86-.5-.39-.78-.72-.96-.63-.25.13.06.91-.26,1.11-.28.18-.83-.2-.96-.3-.29-.2-.49-.45-.79-.82-.33-.41-.38-.54-.55-.57-.31-.05-.6.3-.75.47-.54.64-.7,1.38-.77,1.88-.08.57-.08,1.04-.06,1.41-.25-.03-.5-.04-.73-.03-.08,0-.15,0-.23.01-.01-.68.08-1.46.24-2.06,0-.02.01-.05.02-.08.06-.19.11-.39.18-.6.11-.35.25-.72.47-1.14.02-.04.04-.08.06-.11.38-.76.72-1.37,1.42-1.86.24-.17.96-.62,1.95-.64.16,0,.33,0,1.84.44,1.44.41,1.7.52,1.72.72.04.27-.38.6-.76.72-.46.14-.79-.05-.84.05-.1.19.91.65,1.43,1.72.17.35.4,1,.19,1.17Z"/>
    <g>
      <path class="cls-8" d="m91,48.82s.69-.44,1.52-.57c.83-.13,1.85-.21,1.85-.21"/>
      <path class="cls-8" d="m96.8,49.87s-.92-.38-2.15-.26-1.87.53-1.87.53"/>
      <path class="cls-8" d="m99.11,52.33s-.95-.92-2.1-.96-1.84.13-1.84.13"/>
      <path class="cls-8" d="m92.14,55.34s.99-.41,1.87-.41c.88,0,2.2.13,2.2.13"/>
      <path class="cls-8" d="m92.19,55.83s.68-.24,1.28-.14.73.15.73.15"/>
      <path class="cls-8" d="m96.94,58.89s-1.26.29-1.85.27-1.39-.08-1.39-.08"/>
      <path class="cls-8" d="m97.29,62.59s-.64.15-1.04.14-1.19-.15-1.19-.15"/>
      <path class="cls-7" d="m96.25,65.02s-.94.34-1.54.24-1.48-.45-1.48-.45"/>
      <path class="cls-7" d="m95.91,70.46s-.55.17-.87.17-1.18-.24-1.18-.24"/>
      <path class="cls-7" d="m95.6,72.1s-.4.2-.64.13"/>
    </g>
  </g>
  <g>
    <path class="cls-7" d="m67.53,51.65s0-.02,0-.02c0,0,0,0,0,.01,0,0,0,0,0,.01Z"/>
    <path class="cls-1" d="m67.53,51.62c-.68-1.22-1.5-2.2-1.74-2.52-.55-.73-2.84-2.9-3.68-3.63l-2.67-2.41c-.13-.12-.3-.17-.47-.15-.02,0-.04,0-.06,0-2.28-2.92-7.3-9.85-7.21-10.03.11-.23.74-.62,1.36-1.13s1.36-.33,1.62-.11c0,0,0,0,0,0,.25.22,1.52,1.7,3.89,4,1.26,1.23,2.73,2.97,3.94,4.53.09.11.17.22.25.32.95,1.24,1.71,2.33,2.04,2.89.63,1.08,1.05,2.32,1.42,3.58.2.65.38,1.3.59,1.93.24.74.49,1.76.71,2.71Z"/>
    <path class="cls-6" d="m70.79,71.11c-.21.09-.47.18-.75.25-.16.04-.32.07-.48.09-.23.04-.45.06-.62.06,0,0,0,0,0,0-.08,0-.16,0-.23,0-.24-.01-.44-.04-.61-.07-.28-.05-.44-.11-.44-.11,0,0-.03-.12-.08-.35-.05-.24-.12-.58-.22-1.02-.54-2.49-1.69-7.88-2.57-11.93.57.02,1.22-.14,1.67-.44.47-.3,1.48-1.57,2.15-2.44.47,3.3,1.97,12.59,2.44,15h0c.05.27.09.46.12.53,0,.01,0,.02,0,.03.07.13-.1.28-.38.4Z"/>
    <path class="cls-1" d="m63.22,51.8c-.54-.54-1.72-1.78-2.53-3.02-1.08-1.65-2.97-4.37-2.97-4.37,0,0-.56-.04-.8-.35-.41-.51.49-.91,1.01-1,.31-.05.69-.11.97-.15.02,0,.04,0,.06,0,.17-.02.34.03.47.15l2.67,2.41c.84.72,3.13,2.9,3.68,3.63.24.32,1.06,1.3,1.74,2.52,0,0,0,.02,0,.02,0,0,0,0,0-.01.02.04.04.08.07.12"/>
    <path class="cls-1" d="m66.23,46.97c-.38-1.26-.79-2.5-1.42-3.58-.33-.56-1.09-1.65-2.04-2.89-.03-.14-.06-.29-.08-.44-.11-.67-.17-1.42-.12-2.2.01-.17.02-.35.05-.52.03-.23.06-.46.11-.69.22-1.07.52-2.26.82-3.38.63-2.31,1.29-4.31,1.29-4.31,0,0,.72.33,1.49,1.34.77,1.01,1.02,2.04,1.02,2.04,0,0-.04.26-.32.93-.16.39-.64,3.38-.88,5.77-.11,1.11-.19,2.09-.18,2.62,0,1.03.16,3.52.27,5.32Z"/>
    <path class="cls-1" d="m62.77,40.5c-.08-.11-.17-.22-.25-.32-1.21-1.56-2.67-3.3-3.94-4.53-2.38-2.3-3.64-3.78-3.89-4,0,0,0,0,0,0,.41-.47.94-1.06,1.37-1.42.81-.68,1.92-.63,1.92-.63,0,0,.84.92,1.82,2.51.2.33.41.69.62,1.07.7,1.29,1.55,2.9,2.2,4.16-.02.17-.04.35-.05.52-.05.78.01,1.53.12,2.2.02.15.05.3.08.44Z"/>
    <path class="cls-1" d="m62.61,37.34c-.66-1.26-1.5-2.87-2.2-4.16-.21-.39-.42-.75-.62-1.07l-1.13-6.21s.53-.64,1.32-.51c.78.13,2.71,1.09,2.92,1.35.15.18.47,4.21.65,6.53-.3,1.12-.6,2.31-.82,3.38-.05.23-.08.46-.11.69Z"/>
    <path class="cls-1" d="m67.53,51.63s0,0,0-.01c-.22-.96-.47-1.97-.71-2.71-.2-.63-.39-1.29-.59-1.93-.11-1.8-.26-4.29-.27-5.32,0-.53.07-1.51.18-2.62.55-.11,1.42-.24,2.15-.1,1.03.2,2.47.77,2.82.9-.31-.07-.89.37-1.68,1.11-.79.74-1.48,2.2-1.86,3.42-.03.11-.07.21-.09.32-.2.74-.09,4.19.05,6.94Z"/>
    <path class="cls-1" d="m68.4,45.99s-.5-.7-.82-1.62c.37-1.22,1.07-2.68,1.86-3.42.78-.74,1.36-1.19,1.68-1.11.02,0,.04.02.06.02.01,0,.02,0,.02,0,.29.18.45.99-.94,3.23-1.39,2.24-1.85,2.89-1.85,2.89Z"/>
    <path class="cls-1" d="m71.17,39.86s-.04-.02-.06-.02"/>
    <path class="cls-7" d="m71.05,70.14c.48.2,1.23.65,1.37,1.51.2,1.26-.78,1.95-.78,1.95"/>
    <path class="cls-7" d="m71.05,70.14c-.23-.1-.39-.14-.39-.14"/>
    <path class="cls-7" d="m68.25,70.13c-.37.05-.32.3-.44.62-.18.44-.55.01-1.03.61s-.57,1.13-.53,1.7.31.73-.14,1.06-.76.16-.76.16"/>
    <path class="cls-7" d="m68.86,70.27s-.38.23-.37.63.75,1.36.42,1.71-.46.39-.67.8-.28.91-.17,1.38-.49,1.05-.57,1.11"/>
    <path class="cls-7" d="m69.75,70.25s-.33.52-.23,1.03.39.7.36,1-.19.73-.56,1.06-.66.77-.55,1.09.21.76.29.91"/>
    <path class="cls-7" d="m70.36,70.45s.62.55.41,1.02-.17.87-.02,1.08.18.66-.05,1.02-.37,1.12-.29,1.44.14.76-.04.9-.4.1-.4.1"/>
    <path class="cls-7" d="m67.86,69.84s-.57-.08-.85.49-.14,1.4-.32,1.73-.57.97-.96,1.04-.85-.36-.85-.36"/>
    <path class="cls-7" d="m69.3,70.34s-.29.29-.33.65.07.86-.37,1.19-.51.35-.93.85-.19.75-.25.97c-.1.36-.59.53-.69.74s-.07.59-.07.59"/>
    <path class="cls-7" d="m70.84,70.46s1.42.76.94,1.67c-.47.91-.89,1.26-.71,1.69s.45.33.65.74c.13.27-.12.63-.12.63"/>
    <path class="cls-7" d="m70.19,70.77s-.27.72-.12.96.42,1.07.18,1.44-.77.91-.71,1.28.32.57.16.93"/>
    <path class="cls-7" d="m68.17,70.68s-.04.39-.02.5-.16.61-.53.75-.64.41-.63.61.06,1.1-.33,1.49c-.21.21-.24.34-.37.61"/>
    <path class="cls-3" d="m66.46,57.58c-.45.29-1.1.46-1.67.44-.62-2.83-1.09-5.02-1.13-5.11-.11-.27-.15-.82-.15-.82,0,0-.11-.1-.29-.28.24-.26.5-.54.62-.7.26-.34.84-.56,1.45-.5.38.04,1.51.68,2.3,1.16h0c.43.79.79,1.67.9,2.53.02.2.06.49.12.85-.67.87-1.69,2.13-2.15,2.44Z"/>
    <path class="cls-3" d="m68.66,55.5c-.03-.33-.16-1.72-.37-2.14s-.77-1.74-.77-1.74"/>
    <path class="cls-3" d="m64.79,58.02s-.99-4.57-1.07-4.88-.5-1.34-.5-1.34"/>
  </g>
  <path class="cls-19" d="m106.4,58.45s1.31.69,1.91,3.2c.6,2.52.06,5.22,0,5.6s-.2.94-.58,1.11"/>
  <path class="cls-19" d="m102.16,62.44s.25,2.34.94,3.47c.69,1.13.97,1.83,1.37,2.16s.97.77,1.57.76"/>
  <path class="cls-18" d="m101.82,54.7s.38.47.8.68,1.19.31,1.19.31"/>
  <path class="cls-18" d="m101.32,55.4s.67.81,1,.94.49.18.49.18"/>
  <path class="cls-19" d="m102.25,58.93s.08-.31.23-.63c.09-.19.23-.35.23-.35"/>
  <g>
    <path class="cls-1" d="m118.59,44.61s.76-.87.91-1.28.3-.98.3-.98l-.44-.5s-.13.89-.34,1.25-.9,1.38-.9,1.38l.46.13Z"/>
    <path class="cls-1" d="m114.1,55.93c1.44-1.48,2.68-2.96,3.95-5.09,1.64-2.77,2.25-5.76.75-6.79-.96-.66-2.57.07-2.9.24-1.34.71-2.15,1.44-3.56,2.25-1.29.74-2.56,1.94-2.98,2.39-.37.41-1.16,1.31-1.69,1.88-4.45,4.77-7.18,7.29-9.03,9.13-1.54,1.52-2.49,2.45-3.38,3.5-1.77,2.09-4.49,6.1-5.17,7.67-.8,1.86-.68,3.23.25,4.1.72.68,2.86-.06,4.43-1.18,1.31-.93,3.6-2.4,5.58-4.43.97-1,3.47-3.59,4.75-4.74,3.05-2.74,8.24-8.15,8.99-8.92Z"/>
    <path class="cls-8" d="m117.38,44.59c-.44.05-2.54,1.76-3.23,2.17-1.18.71-2.36,1.89-2.85,2.39s-2.93,2.44-2.93,2.44c-1.78,2.12-5.33,5.47-8.21,8.72-1.82,2.04-2.96,3.95-4.52,5.77-2.65,3.08-4.75,6.1-4.75,6.1"/>
    <path class="cls-8" d="m117.85,44.94s-1.81,1.8-2.48,2.59-6.29,5.94-6.29,5.94c-1.43,1.85-2.45,1.95-5.61,5.25-.72.76-2.5,3.47-3.56,4.56-1.15,1.18-2.54,3.39-4.02,4.89-2.73,2.78-4.74,5.17-4.74,5.17"/>
    <path class="cls-8" d="m118.37,44.85c-.02.64-1.06,1.77-1.34,2.55-.74,2.08-7.5,8.4-7.5,8.4-.64.57-3.65,4.2-7.26,7.65-.96.91-1.93,1.85-2.89,2.76-1.06,1.02-2.1,2.01-3.05,2.92-2.65,2.54-4.97,5.24-4.97,5.24"/>
    <path class="cls-8" d="m118.82,45.27c.13.67-.36,2.33-.61,3.03-1,2.74-9.82,11.47-9.82,11.47-4.68,4.99-14.64,13.29-16.03,14.71"/>
  </g>
  <g>
    <path class="cls-2" d="m80.25,49.62c.86,1.87.03,4-.35,5.88-.64,3.17-1.82,6.14-3.47,8.91-.88,1.48-1.87,2.92-3.22,3.99-2.06,1.64-4.97,1.87-7.43,1.11-1.08-.34-2.11-.89-2.83-1.76-.79-.97-1.12-2.27-1.05-3.52.09-1.52.71-3.02,1.58-4.26.84-1.17,1.87-2.19,2.88-3.22,1.3-1.32,2.58-2.68,3.61-4.22.52-.77.96-1.58,1.31-2.45.25-.63.51-1.4,1.03-1.88.64-.58,1.83-1.21,3-.97,1.3.26,1.62,1.38,3.1,1.44.32.01.61-.02,1,.15.7.31.7.5.83.79Z"/>
    <path class="cls-21" d="m77.3,57.81c-.7,1.32-1.52,3.14-2.97,5.01-1.47,1.9-3.09,4.54-5.8,4.46-.38-.01-.77-.08-1.08-.3-.46-.33-.65-.95-.59-1.51.07-.64.41-1.35.91-1.77.74-.61,1.35-.18,2.69-.75,1.22-.52,1.94-1.4,2.15-1.66,1.21-1.52,1.95-3.23,2.32-3.54.71-.61,1.17-.63,1.85-.78.74-.16.89.14.52.84Z"/>
    <path class="cls-1" d="m82.22,50.2c-.35.35-.77.71-1.62.61-.56-.07-.94-.38-1.03-.46-.6-.52-.72-1.15-.79-1.27.02.08.14.45.06,1.01-.04.31-.23.54-.4.85-.26-.44-.48-.57-.71-.71-.26-.16-.53-.25-1.05-.6-.53-.36-.65-.45-.93-.77-.26.32-.35.5-.9.91-.53.4-.97.31-1.36.32.08-.25.17-.29.34-.8.13-.41.12-.83.03-1.02-.14.13-.29.27-.75.52-.47.24-.92.22-1.16.21-.71-.03-1.19-.33-1.38-.52.42-.06.79-.18,1.01-.28.17-.07.38-.19.88-.7.67-.67.6-.76,1.03-1.17.39-.37.9-.84,1.62-.93.17-.02.34-.02.5-.01.15-.22.29-.45.37-.71.09-.29.1-.6.12-.91.01-.18.02-.36,0-.54-.03-.24-.14-.45-.33-.61-.02-.02-.32-.23-.34-.19,0,0,.11-.15.35-.3.31-.18.6-.17.6-.17.76.65,1.31,1.51,1.42,2.52.04.35.03.72-.04,1.07,0,0,0-.01,0,.02.06,0,.08.02.17.04.56.1.99.38,1.2.56.39.33.57.66.9,1.31.21.4.2.46.66,1.44.29.62.4.82.65.99.43.29.37.25.86.29Z"/>
  </g>
  <polygon class="cls-12" points="51.1 84.56 74.95 78.86 74.76 84.43 48.51 89.62 51.1 84.56"/>
  <path class="cls-11" d="m58.93,107.72c1.85,3.18,3.82,3.84,10.72,5.96,6.9,2.12,19.67,2.98,23.35,2.64,3.68-.34,5.87-1.26,7.22-3.54,1.35-2.28,4-10.06,5.79-17.77,1.79-7.72,4.3-23.03,5.28-25.87.98-2.84,2.49-9.33,2.49-9.33,0,0-13.65,2.57-19.59,3.12-5.94.55-9.49-.33-20.07-3.42-10.58-3.1-14.99-6.76-14.99-6.76,0,0,.29,1.89.61,4.02.31,2.12.28,5.6-.58,11.9-.86,6.3-4.33,19.32-4.18,22.17.14,2.86,2.1,13.69,3.95,16.88Z"/>
  <path class="cls-11" d="m68.84,69.69s5.44,16.14,18,23.84"/>
  <path class="cls-11" d="m101.72,73.13s-6.34,6.57-13.58,7.24"/>
  <path class="cls-9" d="m48.26,18.31s-1.19-.12-3.96.34c-2.79.44-3.58,1.23-3.58,1.23-3.03-2.79-20.93,1.75-21.31,3.64-.04.16-.06.32-.06.5-.58.08-.92.14-.92.14,0,0-.76-5.58-.26-9.4.52-3.82,5.64-8.04,13.56-9.08,7.89-1.02,13.54,2.09,15.03,4.6,1.51,2.53,1.51,8.04,1.51,8.04Z"/>
  <path class="cls-15" d="m55.83,20.34c-1.73-.06-4.82-.16-7.75-.24-3.8-.12-7.35-.22-7.35-.22,0,0,.78-.78,3.58-1.23,2.77-.46,3.96-.34,3.96-.34,0,0,6.99,0,9.32.2,2.33.2,1.83,1.93-1.75,1.83Z"/>
  <path class="cls-9" d="m37.31,46.95h.04c-.16.6-.64,2.27-.92,3.94-.2,1.19-.28,2.35-.1,3.13,0,0-4.02-4.02-7.01-5.5-2.97-1.49-6.93-3.17-6.93-3.17,0,0,1.1-4.02,2.13-4.86h.02c1.1-.78,11.83,4.44,12.84,6.13.02.02.04.06.04.08l-.1.26Z"/>
  <path class="cls-11" d="m48.85,31.99c-.58.84-.14,3.05-.84,5.91-.72,2.85-1.37,3.64-3.17,3.82-1.83.2-5.36-.96-6.23,1.25-.44,1.1-.64,2.09-.74,2.77-.1.6-.1.98-.1,1.04,0,0-.1-.04-.3-.14-.02,0-.04,0-.08-.02-1-1.69-11.73-6.91-12.84-6.13,0,0,.68-3.01.74-5.85,1.93-1,2.53-4,2.53-4-1.71-1.37-2.37-4.8-.36-5.58,2.01-.78,4.4.9,8.36.26,3.96-.64,4.92-5.44,4.92-5.44l6.85-.32.5.54.1.1s-.52,4.8-.12,6.17c.38,1.35,2.27,2.39,2.53,2.65s-1.17,2.13-1.75,2.97Z"/>
  <path class="cls-11" d="m30.62,25.27s-3.33-1.3-4.11.65.17,4.02,1.3,4.71,2.46.82,2.46.82"/>
  <path class="cls-6" d="m48.33,33.85s-2.85.56-5.57-.26c0,0,.43,3.02,2.07,3.37s2.77-.69,3.5-3.11Z"/>
  <path class="cls-12" d="m37.43,46.71s-.02.08-.08.24h-.04l.1-.26.02.02Z"/>
  <path class="cls-14" d="m41.51,53.96l-.34-.2-4.74-2.87c.28-1.67.76-3.33.92-3.94h-.04l.1-.26.04-.06.4-.9.28-.64s2.77,1.41,3.37,2.39c.6,1,0,6.49,0,6.49Z"/>
  <path class="cls-9" d="m52.56,124.81s-20.33,4.66-36.36-1.37c0,0,2.29-19.51,2.13-21.39-.14-1.87-2.53-22.36-2.81-29.85-.3-7.47.02-11.31,1.55-15.83,1.55-4.54,2.77-10.18,5.32-11.03,0,0,3.96,1.69,6.93,3.17,2.99,1.49,7.01,5.5,7.01,5.5-.18-.78-.1-1.95.1-3.13.28-1.67.76-3.33.92-3.94.06.02.08.02.08.02,0,0,1.43.5,1.61.64.12.08,1.04,3.09,2.13,6.15.72,2.01,1.53,4.06,2.21,5.26,1.77,3.03,6.23,19.18,7.71,25.53,1.51,6.35,1.47,40.26,1.47,40.26Z"/>
  <path class="cls-11" d="m41.21,79.92l1.86,5.84,21.29-3.11s3.66-2.6,6.17-3.57,2.78-.88,3.85-1.72,1.99-1.48,2.32-1.07.19,1.86-1.3,2.83c-1.48.97-2.83,2.13-2.83,2.13,0,0,6.96,1.53,8.53,1.81,1.58.28,4.87.74,4.92,1.58s-1.86.74-4.41.46-5.47-.51-5.47-.51c0,0,3.66,1.16,5.75,1.53s4.03.56,4.17,1.58-2.64.56-3.99.37c-1.34-.19-6.26-.65-6.26-.65,0,0,6.26,1.9,7.19,2.18s1.25,1.16,1.11,1.48-1.39.65-3.52,0c-2.13-.65-5.84-1.53-5.84-1.53,0,0,3.52,3.43,4.13,4.08s.7,1.48.23,1.72-5.12-3.35-5.43-3.62-5.66-2.13-7.33-3.52c0,0-8.02,3.52-14.89,5.24-6.86,1.72-12.38,2.74-13.26,2.27-.88-.46-5.52-6.08-7.14-10.62s10.16-5.19,10.16-5.19Z"/>
  <path class="cls-11" d="m40.73,19.87s-.96,4.8-4.92,5.44c-3.96.64-6.35-1.04-8.36-.26-2.01.78-1.35,4.22.36,5.58,0,0-.6,2.99-2.53,4-.12.08-.28.14-.42.2,0,0-1.63-3.76-3.25-5.24-1.47-1.37-2.41-3.76-2.25-5.58,0-.18.02-.34.06-.5.38-1.89,18.28-6.43,21.31-3.64Z"/>
  <path class="cls-9" d="m30.17,52.48s3.56,1.3,5.44,4.86c1.88,3.56,8.1,20.61,8.1,20.61,0,0-3.63,2.01-5.31,3.24-1.69,1.23-9.98,4.99-12.12,5.06,0,0-5.19-12.9-5.96-15.3-.78-2.4-.78-8.75.26-11.28"/>
  <ellipse class="cls-12" cx="44" cy="26.04" rx=".74" ry=".26" transform="translate(14.64 67.91) rotate(-85.58)"/>
  <rect class="cls-17" x="-1155.63" y="-214.82" width="2244.45" height="5948.74"/>
</svg>