<?xml version="1.0" encoding="UTF-8"?>
<svg id="Calque_1" data-name="Calque 1" xmlns="http://www.w3.org/2000/svg" viewBox="0 0 128.13 128">
  <defs>
    <style>
      .cls-1 {
        fill: #d6d6d6;
      }

      .cls-1, .cls-2, .cls-3 {
        stroke: #000;
        stroke-width: 2px;
      }

      .cls-1, .cls-2, .cls-3, .cls-4 {
        stroke-linecap: round;
        stroke-linejoin: round;
      }

      .cls-2 {
        fill: #ffd4ad;
      }

      .cls-3, .cls-4 {
        fill: none;
      }

      .cls-4 {
        stroke: #fff;
        stroke-width: 8px;
      }
    </style>
  </defs>
  <path class="cls-3" d="m77.87,38.01h0l-.49-.36c-.67-.49-1.03-1.24-1.06-2.02.1.96.71,2,1.55,2.38Z"/>
  <path class="cls-1" d="m97.26,45.62v14.35h-6.56v-11.63h-6.27v20.89h-6.56v-31.23l6.27,4.63.04.03c1.04.77,2.47,1.44,3.39.6l6.56-.78c1.73,0,3.14,1.4,3.14,3.14Z"/>
  <path class="cls-1" d="m88.14,23.87v14.37c-.19-.36-.45.41-.8.15l-5.71-4.22v-9.15c0-.73-.3-1.4-.78-1.88-.48-.48-1.14-.78-1.88-.78-.29,0-.57.05-.83.13.55-1.31,1.83-2.24,3.34-2.24h3.04c2,0,3.62,1.62,3.62,3.62Z"/>
  <circle class="cls-1" cx="85.3" cy="13.04" r="4.5"/>
  <path class="cls-1" d="m89.7,73.23v.94h-11.83v-4.81c.31-.08.64-.12.97-.12h6.88c2.19,0,3.98,1.8,3.98,3.99Z"/>
  <path class="cls-1" d="m102.53,63.97v.94h-11.83v-4.81c.31-.08.64-.12.97-.12h6.88c2.19,0,3.98,1.8,3.98,3.99Z"/>
  <g>
    <path class="cls-2" d="m122.52,24.5l-21.76,13.17v27.43h-3.68v-25.2l-27.03,16.36v26.96h-3.69v-24.73l-27.03,16.36v26.49h-3.69v-24.25l-24.67,14.93c-.86.52-1.99.24-2.51-.62l-.02-.02c-.52-.86-.24-1.99.62-2.52L120.61,21.35c.86-.52,1.99-.25,2.51.62l.02.02c.52.86.24,1.99-.62,2.51Z"/>
    <polygon class="cls-2" points="121.96 56.04 121.96 119.46 14.45 119.46 14.45 110.4 29.8 110.4 29.8 101.34 45.16 101.34 45.16 92.28 60.52 92.28 60.52 83.22 75.88 83.22 75.88 74.16 91.24 74.16 91.24 65.1 106.6 65.1 106.6 56.04 121.96 56.04"/>
  </g>
  <path class="cls-1" d="m90.28,43.29c-.07.14-.15.27-.24.39-.1.14-.22.27-.35.38-.91.84-2.33.95-3.37.18l-.04-.03-8.41-6.21h0c-.84-.38-1.45-1.42-1.55-2.38-.01-.09-.01-.18-.01-.27v-10.34c0-1.18.77-2.18,1.83-2.52h0c.26-.09.54-.14.83-.14.74,0,1.4.3,1.88.78.48.48.78,1.15.78,1.88v9.15l7.85,5.8c.35.26.61.58.8.94.36.74.38,1.63,0,2.39Z"/>
  <rect class="cls-4" x="-1004.41" y="-1946.55" width="2244.45" height="5948.74"/>
</svg>