<?xml version="1.0" encoding="UTF-8"?>
<svg id="Calque_1" data-name="Calque 1" xmlns="http://www.w3.org/2000/svg" viewBox="0 0 128 128">
  <defs>
    <style>
      .cls-1 {
        fill: #fff;
      }

      .cls-2 {
        fill: #bfe6fc;
      }

      .cls-3 {
        fill: #87ccf3;
      }

      .cls-4 {
        fill: #f3d587;
      }

      .cls-4, .cls-5, .cls-6 {
        stroke: #000;
        stroke-miterlimit: 10;
      }

      .cls-4, .cls-6 {
        stroke-width: 2px;
      }

      .cls-5 {
        fill: #fab0b4;
      }

      .cls-6, .cls-7 {
        fill: none;
      }

      .cls-7 {
        stroke: #fff;
        stroke-linecap: round;
        stroke-linejoin: round;
        stroke-width: 8px;
      }
    </style>
  </defs>
  <path class="cls-2" d="m109.27,107.98s-13.49-10.83-47.47-25.35c-25.58-10.93-51.92-14.16-51.92-14.16l15.84-39.85s27.91,5.02,49.29,13.52c28.08,11.16,50.1,25.99,50.1,25.99l-15.84,39.85Z"/>
  <path class="cls-3" d="m56.03,57.87c2.67-6.71,10.27-9.99,16.98-7.32,6.71,2.67,9.99,10.27,7.32,16.98-2.67,6.71-10.27,9.99-16.98,7.32-6.71-2.67-9.99-10.27-7.32-16.98Z"/>
  <path class="cls-3" d="m41.86,53.55c1.07-2.7,4.14-4.02,6.84-2.95,2.7,1.07,4.02,4.14,2.95,6.84-1.07,2.7-4.14,4.02-6.84,2.95-2.7-1.07-4.02-4.14-2.95-6.84Z"/>
  <path class="cls-3" d="m81.97,69.5c1.07-2.7,4.14-4.02,6.84-2.95,2.7,1.07,4.02,4.14,2.95,6.84-1.07,2.7-4.14,4.02-6.84,2.95-2.7-1.07-4.02-4.14-2.95-6.84Z"/>
  <g>
    <path d="m68.88,72.42c-1.08,0-2.2-.24-3.25-.69-2.18-.93-3.76-2.61-4.44-4.74-.51-1.48-.54-3.15-.09-4.98l-1.16-.5c-.25-.11-.37-.4-.26-.66l.52-1.24c.05-.12.15-.22.27-.27.06-.02.12-.04.19-.04s.13.01.2.04l.97.42c.09-.2.18-.4.27-.59l-1-.42c-.25-.11-.37-.4-.26-.66l.54-1.26c.05-.12.15-.22.27-.27.06-.02.12-.04.19-.04s.13.01.2.04l1.28.55c1.04-1.49,2.37-2.6,3.86-3.23,1.01-.43,2.05-.65,3.08-.65s2.12.23,3.18.68c1.7.73,2.73,1.81,3.2,2.39.15.19.15.45,0,.63l-1.21,1.45c-.09.11-.24.18-.38.18h-.02c-.15,0-.3-.08-.39-.21-.36-.5-1.19-1.26-2.31-1.74-.62-.26-1.23-.4-1.82-.4s-1.14.12-1.69.36c-.81.31-1.59.96-2.3,1.89l6.45,2.75c.25.11.37.4.26.65l-.53,1.26c-.05.12-.15.22-.27.27-.06.02-.12.04-.19.04s-.13-.01-.2-.04l-6.82-2.91c-.1.19-.19.39-.27.59l6.84,2.92c.25.11.37.4.26.66l-.52,1.24c-.05.12-.15.22-.27.27-.06.02-.12.04-.19.04s-.13-.01-.2-.04l-6.58-2.81c-.23,1.14-.2,2.16.11,3.04.45,1.2,1.36,2.13,2.65,2.68.92.39,1.86.48,2.47.48.27,0,.51-.02.7-.04.02,0,.04,0,.06,0,.13,0,.26.05.36.15.11.11.16.26.14.42l-.25,1.77c-.03.21-.19.38-.4.42-.39.08-.81.12-1.24.12Z"/>
    <path class="cls-1" d="m70.26,53.75c.97,0,1.97.21,2.99.64,1.49.63,2.46,1.56,3.01,2.24l-1.21,1.45c-.47-.65-1.39-1.43-2.52-1.91-.69-.29-1.36-.44-2.02-.44s-1.28.14-1.89.41c-1.06.41-2.05,1.33-2.87,2.56l7.02,3-.54,1.26-7.25-3.09c-.16.32-.35.69-.5,1.04-.06.15-.12.28-.19.45l7.3,3.12-.52,1.24-7.12-3.04c-.42,1.55-.38,2.85-.02,3.9.51,1.38,1.57,2.4,2.93,2.98.96.41,1.93.52,2.67.52.29,0,.55-.02.75-.04l-.25,1.77c-.33.06-.72.11-1.15.11-.88,0-1.94-.17-3.05-.64-2.04-.87-3.52-2.43-4.16-4.43-.5-1.47-.51-3.2.03-5.12l-1.56-.67.52-1.24,1.43.61c.05-.13.11-.25.16-.38.17-.41.36-.77.53-1.12l-1.48-.63.54-1.26,1.66.71c1.05-1.64,2.43-2.78,3.87-3.39.93-.4,1.89-.61,2.88-.61m0-1c-1.1,0-2.2.23-3.27.69-1.47.62-2.78,1.67-3.84,3.07l-.91-.39c-.13-.05-.26-.08-.39-.08s-.25.02-.37.07c-.25.1-.44.29-.55.54l-.54,1.26c-.13.31-.09.66.08.93-.06.01-.12.03-.17.05-.25.1-.44.29-.55.54l-.52,1.24c-.21.51.02,1.09.53,1.31l.78.33c-.37,1.76-.3,3.39.2,4.86.72,2.24,2.39,4.03,4.71,5.02,1.11.47,2.3.73,3.44.73.47,0,.92-.04,1.34-.12.42-.08.74-.42.8-.84l.25-1.77c.04-.31-.06-.61-.27-.83-.19-.19-.45-.3-.72-.3-.04,0-.07,0-.11,0-.14.02-.36.03-.64.03-.57,0-1.43-.08-2.28-.44-1.16-.49-1.98-1.33-2.38-2.41-.21-.62-.27-1.34-.18-2.15l5.99,2.56c.12.05.26.08.39.08s.25-.02.37-.07c.25-.1.44-.29.55-.54l.52-1.24c.13-.31.09-.66-.08-.93.06-.01.12-.03.17-.05.25-.1.44-.29.55-.54l.54-1.26c.21-.51-.02-1.09-.53-1.31l-5.83-2.49c.53-.59,1.09-1,1.65-1.22.53-.23,1.03-.34,1.53-.34.53,0,1.07.12,1.63.36,1.03.44,1.77,1.12,2.1,1.58.18.25.47.4.78.41.01,0,.02,0,.04,0,.3,0,.58-.13.77-.36l1.21-1.45c.3-.37.31-.89.01-1.27-.49-.61-1.59-1.76-3.39-2.53-1.12-.48-2.26-.72-3.38-.72h0Z"/>
  </g>
  <rect class="cls-3" x="3.14" y="47.26" width="42.87" height="5" transform="translate(-30.71 54.56) rotate(-68.68)"/>
  <polygon class="cls-3" points="107.31 106.1 103.2 103.07 118.54 64.9 123.13 66.75 107.31 106.1"/>
  <path class="cls-6" d="m109.27,107.98s-13.49-10.83-47.47-25.35c-25.58-10.93-51.92-14.16-51.92-14.16l15.84-39.85s27.91,5.02,49.29,13.52c28.08,11.16,50.1,25.99,50.1,25.99l-15.84,39.85Z"/>
  <circle class="cls-4" cx="38.15" cy="90.58" r="9.52" transform="translate(-55.97 118.9) rotate(-83.9)"/>
  <path d="m38.78,96.12c-.53.1-1.35.09-2.23-.29-1.08-.46-1.87-1.29-2.21-2.35-.27-.78-.27-1.7.02-2.72l-.83-.35.28-.66.76.32.09-.2c.09-.22.19-.41.28-.59l-.79-.34.28-.67.88.38c.56-.87,1.29-1.48,2.05-1.8.98-.42,2.02-.45,3.12.02.79.34,1.31.83,1.59,1.19l-.64.77c-.25-.34-.74-.76-1.34-1.01-.72-.31-1.42-.3-2.07-.02-.56.22-1.09.71-1.52,1.36l3.73,1.59-.28.67-3.85-1.64c-.09.17-.19.36-.27.55l-.1.24,3.87,1.65-.28.66-3.78-1.61c-.22.82-.2,1.51,0,2.07.27.73.83,1.27,1.55,1.58s1.44.3,1.82.25l-.13.94Z"/>
  <circle class="cls-4" cx="51.92" cy="98.22" r="9.52" transform="translate(-59.12 101.94) rotate(-64.05)"/>
  <path d="m55.89,102.14c-.35.42-.99.92-1.91,1.18-1.13.32-2.26.17-3.19-.45-.7-.44-1.28-1.15-1.69-2.12l-.87.24-.2-.69.8-.22-.06-.21c-.06-.22-.11-.44-.15-.64l-.82.23-.2-.7.92-.26c-.11-1.03.08-1.96.47-2.69.5-.94,1.29-1.62,2.44-1.94.82-.23,1.54-.18,1.99-.08l-.02,1c-.41-.11-1.05-.13-1.68.05-.75.21-1.29.65-1.62,1.29-.3.52-.4,1.23-.33,2.01l3.9-1.1.2.7-4.02,1.13c.04.19.08.4.14.6l.07.25,4.05-1.14.2.69-3.95,1.12c.34.78.79,1.3,1.29,1.62.67.4,1.45.47,2.2.26.74-.21,1.3-.67,1.57-.94l.49.81Z"/>
  <circle class="cls-5" cx="71" cy="100.82" r="6.36" transform="translate(-29.03 28.71) rotate(-19.06)"/>
  <path d="m74.57,101.84c-.07.36-.29.85-.75,1.3-.56.55-1.27.82-2.01.76-.55-.03-1.12-.27-1.67-.7l-.43.42-.33-.34.39-.39-.1-.1c-.11-.11-.2-.22-.29-.33l-.41.4-.34-.35.46-.45c-.39-.57-.58-1.17-.58-1.73,0-.71.24-1.36.81-1.92.41-.4.84-.59,1.14-.68l.31.59c-.28.07-.66.26-.97.57-.37.37-.55.8-.54,1.28,0,.4.16.85.45,1.29l1.93-1.89.34.35-1.99,1.95c.08.1.18.21.27.3l.12.12,2.01-1.97.33.34-1.96,1.92c.45.35.88.51,1.27.53.52.02,1-.19,1.37-.55s.55-.81.62-1.06l.55.32Z"/>
  <rect class="cls-7" x="-124.59" y="-269.82" width="1168.31" height="629.76"/>
</svg>