<?xml version="1.0" encoding="UTF-8"?><svg id="Calque_1" xmlns="http://www.w3.org/2000/svg" viewBox="0 0 128 128"><defs><style>.cls-1,.cls-2,.cls-3,.cls-4,.cls-5,.cls-6,.cls-7,.cls-8,.cls-9,.cls-10{stroke-linecap:round;stroke-linejoin:round;}.cls-1,.cls-3,.cls-4,.cls-5,.cls-6,.cls-7,.cls-8,.cls-9,.cls-10{stroke:#000;}.cls-1,.cls-3,.cls-5,.cls-8{stroke-width:2px;}.cls-1,.cls-10{fill:#87ccf3;}.cls-2{stroke:#e30613;stroke-width:8px;}.cls-2,.cls-7{fill:none;}.cls-3{fill:#afaff9;}.cls-4,.cls-5{fill:#fff;}.cls-6{fill:#b2f0e9;}.cls-8{fill:#d6d6d6;}.cls-9{fill:#bfe6fc;}</style></defs><rect class="cls-2" x="-1332.25" y="-260.57" width="2655.08" height="1511.77"/><path class="cls-9" d="m65.71,82.39v5.33c0,6.65-5.39,12.03-12.03,12.03H21.27c-6.65,0-12.03-5.39-12.03-12.03v-5.33h56.48Z"/><rect class="cls-9" x="5.89" y="77.67" width="63.17" height="4.72" rx="1.9" ry="1.9"/><rect class="cls-9" x="21.64" y="72.01" width="4.46" height="6.87" transform="translate(99.31 51.58) rotate(90)"/><rect class="cls-7" x="22.34" y="69.65" width="3.05" height="4.07" transform="translate(95.55 47.82) rotate(90)"/><line class="cls-7" x1="29.55" y1="70.16" x2="18.18" y2="70.16"/><rect class="cls-9" x="46.99" y="72.01" width="4.46" height="6.87" transform="translate(124.67 26.22) rotate(90)"/><rect class="cls-7" x="47.69" y="69.65" width="3.05" height="4.07" transform="translate(120.91 22.47) rotate(90)"/><line class="cls-7" x1="54.91" y1="70.16" x2="43.54" y2="70.16"/><path class="cls-7" d="m53.44,47.26v-.14c-.08-3.93-3.28-7.08-7.23-7.08s-7.16,3.16-7.24,7.08v.14"/><path class="cls-7" d="m53.44,47.26v-.14c-.08-3.93-3.28-7.08-7.23-7.08s-7.16,3.16-7.24,7.08v.14"/><path class="cls-9" d="m58.03,47.11v7.37h-4.59v-7.37c-.08-3.93-3.28-7.08-7.23-7.08s-7.16,3.16-7.24,7.08v30.56h-4.59v-30.56c.08-6.47,5.34-11.68,11.83-11.68s11.74,5.21,11.82,11.68Z"/><rect class="cls-9" x="51.62" y="54.48" width="8.22" height="3.64"/><path class="cls-9" d="m43.54,105.93v5.57c0,3.29-2.7,5.98-5.98,5.98h-.15c-3.29,0-5.98-2.69-5.98-5.98v-5.57"/><path class="cls-7" d="m46.81,99.75v4.52c0,.91-.74,1.66-1.66,1.66h-15.34c-.92,0-1.67-.74-1.67-1.66v-4.52h18.67Z"/><rect class="cls-7" x="34.37" y="99.75" width="6.21" height="6.18"/><path class="cls-10" d="m55.81,60.04s-2.83,5.74-.06,5.78.06-5.78.06-5.78Z"/><path class="cls-6" d="m86.02,29.83c-.14-.56-.14-1.31.04-2.08.13-.55.34-1.05.67-1.5.39-.55.86-1.04,1.39-1.45.56-.44,1.18-.79,1.84-1.09.02-.01.05-.02.07-.03.07-.02.16-.1.22-.04.08.08-.02.16-.06.23-.4.66-.76,1.35-.98,2.09-.27.9-.36,1.82,0,2.72.17.41.34.81.36,1.27.06,1.26-1.13,2.02-2.24,1.58-.63-.25-1-.7-1.32-1.7Z"/><path class="cls-1" d="m122.77,64.25s.02.08.03.12l-15.73,3.72c-.01-.08-.03-.16-.06-.25-.12-.44-.23-.88-.34-1.32-.18-.76-.35-1.53-.52-2.3,0-.05-.02-.09-.03-.14l.41-.1c.45-.23.95-.3,1.46-.35.17-.04.35-.08.52-.13.26-.34.66-.38,1.03-.47.73-.17,1.45-.37,2.19-.5,1.42-.38,2.86-.69,4.29-1.03.14-.03.28-.07.42-.07.02-.03.04-.07.06-.12.04-.33-.06-.63-.13-.94-1.17-4.95-2.34-9.9-3.51-14.84-.02-.1-.04-.19-.07-.28-.21-.83-.29-.88-1.1-.7-1.33.29-2.64.65-3.98.92-1.13.3-2.27.56-3.41.8-.77.13-1.5.56-2.33.35-.3-1.5-.86-2.94-.92-4.49-.07-1.91.69-3.48,1.92-4.87.59-.67.82-1.48.84-2.34.01-.51-.11-1.01-.79-1.02.55-.58,1.34-.52,2.02-.69,1.69-.43,3.38-.83,5.08-1.21.29-.06.57-.14.84.04-.63.35-.46.78-.19,1.31.66,1.31,1.98,1.72,3.12,2.35,1.47.81,2.39,2.03,2.83,3.6,2.29,8.25,4,16.64,6.02,24.95Z"/><path class="cls-3" d="m112.27,44.17c-1.53.39-3.06.75-4.59,1.13-1.14.27-2.27.53-3.41.8h0c-.76.18-1.51.35-2.27.53.7,3.01,1.4,6.01,2.11,9.01.67,2.81,1.35,5.62,2.02,8.44.84-.06,1.65-.26,2.43-.58,0,0,0,0,0,0,1.08-.25,2.15-.51,3.23-.76h0s0,0,0,0c1.7-.4,3.4-.8,5.09-1.2-1.33-5.65-2.65-11.29-3.97-16.94-.09-.38-.24-.53-.65-.42Z"/><path class="cls-8" d="m107.91,16.9c-.34-.31-.68-.08-.97.15-2,1.56-4.27,2.19-6.79,2.16-1.7-.02-3.39.15-5.01.77-1.31.43-2.55,1.01-3.67,1.84-.05.07-.09.14-.12.22.1.66.33.86.93.79.51-.06.96-.28,1.41-.52,1.92-.53,3.75-.16,5.53.59,1.14.48,2.25,1.02,3.37,1.53h0c.05.03.1.06.15.09h0c.12.42.22.84.36,1.25.15.44.04.65-.44.76-.88.2-.87.23-.6,1.15h0s0,0,0,0c.02.64.4,1.23.26,1.88.06.06.1.13.13.21-.04-.07-.08-.14-.13-.21.19,1.45.85,2.82.73,4.32,2.65-.62,5.3-1.24,7.95-1.86.1-.18.08-.33-.1-.44-.2.04-.34-.99-.51-1.48-.27-.79-.22-1.67-.71-2.39h0c-.07-.09-.15-.19-.22-.28h0s0,0,0,0c-.14-.61-.29-1.22-.4-1.84-.07-.39-.24-.58-.64-.41-.79.35-1.09-.01-1.15-.77,0-.12-.07-.23-.11-.34h0c-.09-.45-.19-.9-.27-1.36-.27-1.73-.2-3.39.89-4.87.21-.29.53-.61.15-.95Zm-5.79,10.73s-.02-.06-.03-.09c0,.03.02.06.03.09Z"/><path class="cls-5" d="m68.34,69.2l12.36,1.33.78-7.25s2.08-.88,3.71-3.05c1.64-2.18,2.46-7.09,2.46-7.09l1.41-6.98s.24-.91-.34-1.78c-.23-.34-.58-.68-1.13-.95-1.09-.54-1.92-.14-2.44.33-.41.36-.62.75-.62.75l-.75,1.96.34-3.13.95-8.82c.06-.57-.12-1.13-.46-1.54-.34-.42-.84-.72-1.41-.78-1.15-.12-2.2.72-2.32,1.87l.32-3.01c.06-.57-.12-1.12-.45-1.54-.34-.42-.84-.71-1.42-.77-.62-.07-1.21.15-1.64.54-.37.33-.62.8-.68,1.32l-.32,3c.06-.57-.12-1.12-.45-1.54-.34-.42-.84-.71-1.41-.78-1.15-.12-2.2.72-2.32,1.87l-.57,5.3c.06-.57-.12-1.12-.45-1.54-.34-.42-.84-.71-1.42-.77-1.15-.12-2.19.72-2.31,1.87l-1.62,14.95s-.48,2.81.62,4.92c1.1,2.11,2.43,3.43,2.43,3.43l-.85,7.91Z"/><polyline class="cls-5" points="83.79 46.45 83.07 51.07 82.73 53.24"/><line class="cls-5" x1="71.95" y1="38.44" x2="71.09" y2="46.4"/><line class="cls-5" x1="76.71" y1="33.6" x2="75.28" y2="46.85"/><line class="cls-5" x1="79.46" y1="47.3" x2="80.89" y2="34.05"/><path class="cls-4" d="m82.66,32.52c.22-.54.34-1.12.34-1.73,0-2.53-2.05-4.57-4.57-4.57-2.2,0-4.03,1.55-4.47,3.61-2.09.42-3.67,2.27-3.67,4.48,0,2.53,2.05,4.57,4.57,4.57,1.19,0,2.27-.46,3.08-1.2.46.2.96.32,1.49.32,2.04,0,3.69-1.65,3.69-3.69,0-.65-.17-1.26-.46-1.79Z"/></svg>