<?xml version="1.0" encoding="UTF-8"?>
<svg id="Calque_1" data-name="Calque 1" xmlns="http://www.w3.org/2000/svg" viewBox="0 0 128.13 128">
  <defs>
    <style>
      .cls-1 {
        fill: #76ac75;
      }

      .cls-1, .cls-2, .cls-3, .cls-4, .cls-5, .cls-6, .cls-7, .cls-8, .cls-9, .cls-10, .cls-11, .cls-12, .cls-13, .cls-14, .cls-15 {
        stroke-linejoin: round;
      }

      .cls-1, .cls-2, .cls-3, .cls-4, .cls-5, .cls-6, .cls-7, .cls-8, .cls-9, .cls-10, .cls-11, .cls-13, .cls-14, .cls-15 {
        stroke-linecap: round;
      }

      .cls-1, .cls-2, .cls-3, .cls-5, .cls-6, .cls-7, .cls-11, .cls-12, .cls-14, .cls-15 {
        stroke: #000;
      }

      .cls-2 {
        fill: #d6d6d6;
      }

      .cls-3 {
        fill: #8987f3;
      }

      .cls-4 {
        fill: #baa584;
      }

      .cls-4, .cls-8, .cls-9, .cls-10 {
        stroke: #1d1d1b;
      }

      .cls-5 {
        fill: #ff6d75;
      }

      .cls-6 {
        fill: #ffa75f;
      }

      .cls-7, .cls-14, .cls-15 {
        fill: #fff;
      }

      .cls-8 {
        fill: #e9cb61;
      }

      .cls-9 {
        fill: #f3d587;
      }

      .cls-10, .cls-11, .cls-12, .cls-13 {
        fill: none;
      }

      .cls-16 {
        fill: #bfe6fc;
      }

      .cls-17 {
        fill: #87ccf3;
      }

      .cls-13 {
        stroke: #fff;
        stroke-width: 8px;
      }

      .cls-14 {
        stroke-width: .8px;
      }

      .cls-15 {
        stroke-width: .7px;
      }
    </style>
  </defs>
  <polygon class="cls-2" points="112.69 75.31 109.4 74.95 104.59 74.42 98.02 73.69 92.17 73.05 85.45 72.31 78.8 71.58 73.01 70.94 66.59 70.23 59.78 69.48 53.79 68.82 53.62 68.79 50.25 68.42 47.14 68.08 46.73 68.04 43.2 67.65 41.87 67.51 36.2 66.88 38.33 66.58 40.25 66.32 43.2 65.91 46.73 65.42 50.25 64.94 52.99 64.56 54.92 64.29 57.26 63.97 57.4 63.99 64.3 65.07 78.33 67.26 85.24 68.34 92.07 69.4 92.07 69.41 97.91 70.32 104.78 71.39 108.2 71.93 109.54 72.94 112.69 75.31"/>
  <path class="cls-15" d="m36.05,17.23h0c.09-.03.7-.3.91-1.36.24-1.14.72-1.09.59-2.22-.14-1.06-1.16-.43-1.27-.35"/>
  <path class="cls-7" d="m37.91,115.63l-.88-.65-.65-5.63s-4.98.79-4.98.87.51,5.27.51,5.27l-.36,1.44,3.68.29,2.1-.51.59-1.09Z"/>
  <polygon class="cls-7" points="21.08 116.08 20.85 110.62 26.57 110.55 25.52 115.84 23.64 117.61 21.08 116.08"/>
  <path class="cls-7" d="m27.61,119.7c-.15-.46-1.68-3.18-2.05-3.86-.75.32-1.48.5-2.3.5-.75,0-1.58-.07-2.18-.52-.38.54-.85,1.27-1.2,1.87-.32.54-.77,1.11-1,1.71-.23.61-.13,1.31.36,1.72,1.61,1.33,6.14,1.66,8.08.18.58-.44.39-1.28.29-1.59Z"/>
  <path class="cls-7" d="m44.03,120.58c-.93.16-1.92.09-2.86.09-2.68,0-5.36-.13-8.04-.26-.43-.02-.87-.04-1.26-.22-.31-.14-.57-.37-.75-.65-.11-.17-.19-.37-.21-.57,0-.07-.01-.14,0-.21.02-.28.12-.56.23-.83.19-.49.28-.85.47-1.34,2.13,0,4.25-.4,6.3-.96.21.1.41.21.62.31l3.56,1.79c.48.24.96.49,1.44.73.12.06.23.12.35.17.34.17.82.28,1.07.59.06.07.1.15.13.25.2.71-.46,1.01-1.05,1.11Z"/>
  <path class="cls-7" d="m31.68,55.09c.54.09,1.09.27,1.53.68.41.37.64,1.02.76,1.7l-1.23.13h-.09s-3.94.45-3.94.45h0c-.1-.02-.19-.02-.28,0-.49.03-1.74-.64-2.33-.99-.02.03-.03.07-.06.1-.35.57-1.07.79-1.69.5-.93-.43-2.7-1.11-4.58-1.89-.43,1.32-.77,2.76-.92,4.29-.94,9.32,2.94,27.28,2.94,27.28,0,0-1.23,17.02-1.93,26.26.51.2.85.34,1.14.45.59.18.96.2,2.11.2,1.46,0,1.84.02,2.79-.28.25-.08.54-.17.9-.3l4.41-26.56c-.02-1.88-.04-3.78-.07-5.71"/>
  <path class="cls-11" d="m31.06,75.25c0-.18-.01-.36-.01-.54.07.18.07.36.01.54.03,2.06.05,4.11.07,6.14"/>
  <path class="cls-7" d="m31.2,87.1l-.3,25.71s.06.1.61.11c.34,0,.88-.03,1.7-.14,1.39-.2,2.63-.58,3.34-.81l.64-.24,2.6-20.68,1.17-11.81"/>
  <line class="cls-11" x1="41.38" y1="67.45" x2="41.38" y2="67.44"/>
  <path class="cls-7" d="m39.2,66.58c.02-1.1.03-2.02,0-2.69-.04-.94-.14-2-.25-3.12-.12-1.26-.28-2.58-.45-3.84-.16-1.28-.34-2.51-.49-3.54,0,0-.01,0-.02,0"/>
  <path class="cls-7" d="m25.74,50.94l.02.02c.72.73,1.39,1.03,1.6,1.85.04.18.06.36.07.55"/>
  <path class="cls-7" d="m34.06,26.47c-.25.11-.52.2-.78.26-2.22.53-4.74-.42-5.6-.77l.26-3.77.03-.42,5.82-1.12.15,1.21.49,4.1c-.03.08-.05.16-.08.23-.02.05-.03.09-.05.13,0,.02,0,.04-.02.06h0l-.23.1Z"/>
  <path class="cls-11" d="m30.53,6.87s0,.99-.36,1.66h0"/>
  <path class="cls-11" d="m28.61,8.94c-.78-.45-1.31-1.6-1.31-1.6"/>
  <path class="cls-15" d="m26.13,18.04h0c-.09-.02-.74-.19-1.11-1.2-.41-1.09-.88-.97-.92-2.1-.03-1.07,1.08-.61,1.2-.54"/>
  <path class="cls-11" d="m35.2,8.27s-.77.46-1.62.61"/>
  <path class="cls-7" d="m26.99,9.43c.49.03,1.06-.09,1.62-.49.24.14.49.21.75.18.38-.04.63-.29.8-.6,0,0,.02.02.03.02.11.1.78.7,1.62-.12.44.52,1.13.58,1.76.46.38.29.9.26.9.26.03.04.07.09.09.14,1.57,2.21,1.72,3.71,1.73,3.87.1-.39.17-.77.22-1.12-.08.66-.21,1.14-.24,1.24h0s0,.03,0,.03h0c.02.63.03,2.25-.23,3.93-.22,1.39-.64,2.83-1.4,3.76-1.77,2.15-2.92,2.2-3.09,2.18-.18.04-1.39.22-3.48-1.64-.9-.8-1.54-2.15-1.96-3.5-.51-1.62-.75-3.22-.83-3.85h0c-.01-.07-.02-.14-.02-.22.02.06.04.1.04.1-.02-.26-.02-.52-.01-.77.17-1.3,1.36-3.46,1.5-3.83l.17-.03Z"/>
  <path class="cls-11" d="m25.32,13.29c-.04.25-.04.47-.03.68"/>
  <path class="cls-11" d="m25.31,14.19s0,0-.01-.02h0c-.05-.13-.34-.77-.53-1.63v-.03c-.39-1.74-.4-4.36,2.48-5.52,0,0,.18-.95,1.4-.8,0,0,1.41-1.54,3.11-.28,1.18-.33,1.5.58,1.5.58,3.26.77,3.47,3.7,3.28,5.46,0,.04-.01.06-.01.09"/>
  <path class="cls-11" d="m34.61,9.46s1.67,2.44,1.68,3.84"/>
  <path class="cls-11" d="m25.27,13.92h0s0,.12.03.24h0s0,.03,0,.03"/>
  <path class="cls-11" d="m36.29,13.3v-.02"/>
  <path class="cls-11" d="m36.28,13.04s0,.09,0,.24"/>
  <path class="cls-11" d="m32.5,7.46c-.21.39-.42.69-.62.9-.02.03-.04.06-.07.07"/>
  <path class="cls-11" d="m30.19,8.54l-.02-.02"/>
  <line class="cls-11" x1="31.05" y1="74.72" x2="30.79" y2="65.36"/>
  <path class="cls-7" d="m34.61,26.19c-.1.07-.21.12-.31.18h0c-.08.04-.15.08-.23.1-.25.11-.52.2-.78.26l.83-.34.21-.08.29-.12Z"/>
  <path class="cls-11" d="m39.05,39.65c-.05,1.35-.87,9.9-1.1,11.24-.13.78-.25,1.63-.73,2.29-.52.73-1.4,1-2.24,1.19"/>
  <line class="cls-11" x1="16.71" y1="44.71" x2="13.85" y2="42.18"/>
  <line class="cls-11" x1="31.85" y1="26.73" x2="31.06" y2="54.75"/>
  <line class="cls-2" x1="30.47" y1="29.89" x2="33.54" y2="29.89"/>
  <path class="cls-11" d="m19.01,42.42c.86-.9,1.65-1.85,2.36-2.83.04.42.02,1.34-.04,2.51-.06,1.65-.2,3.79-.31,5.64"/>
  <g>
    <path class="cls-2" d="m28.89,61.81c-.9.1-1.76-.65-1.92-1.67-.16-1.03.44-1.94,1.33-2.04.9-.1,1.76.65,1.92,1.68.16,1.02-.44,1.94-1.33,2.03Z"/>
    <path class="cls-2" d="m54.02,59.03l-1.3.14-.56.06-2.85.32-.57.06-9.25,1.02-4.71.53-1.4.15-1.43.15-2.46.28-.59.06c.25-.02.46-.11.66-.26.51-.35.78-1.03.67-1.77-.02-.12-.05-.24-.08-.35,0-.01-.01-.02-.01-.02-.29-.84-1.04-1.4-1.83-1.31l.39-.04h.01l5.26-.59,4.13-.45,6.59-.73.92-.1,1.49-.16h.01l6.02-.67.32-.03c.9-.1,1.74.66,1.91,1.68.16,1.02-.44,1.94-1.33,2.03Z"/>
    <polygon class="cls-2" points="40.25 66.32 38.33 66.58 37.87 63.04 35.58 61.47 37.98 61.16 39.78 62.73 40.25 66.32"/>
    <polygon class="cls-2" points="54.92 64.29 52.99 64.56 52.54 61.12 50.25 59.55 52.66 59.23 54.46 60.8 54.92 64.29"/>
  </g>
  <polyline class="cls-11" points="66.1 100 67.18 99.99 71 99.95 76.23 99.9 80.17 99.86"/>
  <path class="cls-2" d="m57.84,109.35c.38,0,.69.31.69.69s-.31.69-.69.69-.7-.31-.7-.69.31-.69.7-.69Z"/>
  <path class="cls-2" d="m94.81,110.73c0-.38.31-.69.69-.69s.7.31.7.69-.31.7-.7.7-.69-.31-.69-.7Z"/>
  <path class="cls-2" d="m94.81,110.73c0-.38.31-.69.69-.69s.7.31.7.69-.31.7-.7.7-.69-.31-.69-.7Z"/>
  <path class="cls-2" d="m57.84,109.35c.38,0,.69.31.69.69s-.31.69-.69.69-.7-.31-.7-.69.31-.69.7-.69Z"/>
  <path class="cls-2" d="m59.24,100.07l-.26.21c-1.12.91-1.68,2.35-1.43,3.77v.06s-1.65,1.09-1.65,1.09c-.42-.7-.63-1.5-.63-2.29,0-.97.32-1.94.96-2.73.03-.03.05-.05.07-.08l2.94-.03Z"/>
  <path class="cls-2" d="m108.92,115.94l-2.22-3.08c-.88-1.23-1.99-2.27-3.27-3.06l-2.12-1.32-3.99-.3-3.23-.24-5.85-.43-.5-.42c-.85-.7-1.9-1.08-2.99-1.08l-1.4-.36c-.33-.13-.42.14-.53-.21l-.38-.27c-.11-.37-.03-.78.22-1.09l3.43-4.26-2.88.03h-1.25l-1.79.02-5.47,6.63-15.59-1.17,6.98-5.32-2.31.02-6.23,4.08-1.66,1.09-.23.14-9.54,6.25c-.69.45-1.11,1.23-1.11,2.05,0,.68.28,1.29.72,1.73.2.2.43.37.7.48.2-.03.39-.05.6-.05.52,0,1.01.1,1.45.29h50.71c.44-.19.94-.29,1.44-.29s1.01.1,1.45.29h3.36l2.34,2.61c.89-.16,1.44-.94,1.44-1.74,0-.35-.1-.71-.33-1.03Zm-49.47-3.21l-1.1,1.95h-7.43c-1.07,0-1.94-.88-1.94-1.95,0-.66.34-1.29.91-1.64l7.14-4.49,5.59.5-1.64,2.92-1.53,2.71Zm11.08-.24c.1.53.44.97.93,1.19l1.44.69-11.36.31,3.93-7.37,8.05.6-2.65,3.22c-.31.38-.44.89-.35,1.37Zm8.93-8.03c0,.88.29,1.73.83,2.44l-2.65-.2,1.83-2.25Zm2.65,10.22c-.27-.67-.9-1.09-1.6-1.09-.07,0-.13,0-.21.01l-2.35.27c-.75.08-1.52-.14-2.09-.63-.66-.55-.99-1.33-.99-2.12,0-.62.2-1.24.62-1.75l1-1.24,16.21,1.21,3.29.25,1.16,3.83.38,1.28h-15.42Zm20.73,0h-1.92l-1.53-4.96h.99c.41,0,.79.2,1.03.53l2.18,2.96c.44.62.01,1.47-.75,1.47Z"/>
  <line class="cls-11" x1="83.11" y1="99.84" x2="79.46" y2="104.46"/>
  <path class="cls-2" d="m48.49,116.1c-.44-.19-.94-.29-1.45-.29-.21,0-.4.02-.6.05-1.77.29-3.13,1.83-3.13,3.68,0,2.05,1.67,3.72,3.72,3.72s3.73-1.67,3.73-3.72c0-1.55-.94-2.88-2.28-3.44Zm-1.45,4.27c-.45,0-.83-.37-.83-.83s.37-.83.83-.83.82.37.82.83-.37.83-.82.83Z"/>
  <path class="cls-2" d="m47.86,119.55c0,.45-.37.83-.82.83s-.83-.37-.83-.83.37-.83.83-.83.82.37.82.83Z"/>
  <path class="cls-2" d="m47.86,119.55c0,.45-.37.83-.82.83s-.83-.37-.83-.83.37-.83.83-.83.82.37.82.83Z"/>
  <path class="cls-2" d="m102.1,116.1c-.44-.19-.94-.29-1.45-.29s-1,.1-1.44.29c-1.34.57-2.28,1.9-2.28,3.44,0,2.05,1.67,3.72,3.72,3.72s3.73-1.67,3.73-3.72c0-1.55-.94-2.88-2.28-3.44Zm-1.45,4.27c-.45,0-.81-.37-.81-.83s.36-.83.81-.83.83.37.83.83-.36.83-.83.83Z"/>
  <path class="cls-2" d="m101.47,119.55c0,.45-.36.83-.83.83s-.81-.37-.81-.83.36-.83.81-.83.83.37.83.83Z"/>
  <path class="cls-2" d="m101.47,119.55c0,.45-.36.83-.83.83s-.81-.37-.81-.83.36-.83.81-.83.83.37.83.83Z"/>
  <path class="cls-2" d="m57.84,106.9c-1.73,0-3.15,1.4-3.15,3.14s1.41,3.14,3.15,3.14c.59,0,1.15-.16,1.61-.44l1.53-2.71c-.01-1.72-1.41-3.11-3.14-3.11Zm0,3.83c-.39,0-.7-.31-.7-.69s.31-.69.7-.69.69.31.69.69-.31.69-.69.69Z"/>
  <path class="cls-2" d="m58.54,110.04c0,.38-.31.69-.69.69s-.7-.31-.7-.69.31-.69.7-.69.69.31.69.69Z"/>
  <path class="cls-2" d="m58.54,110.04c0,.38-.31.69-.69.69s-.7-.31-.7-.69.31-.69.7-.69.69.31.69.69Z"/>
  <path class="cls-2" d="m95.99,109.58l-3.29-.25c-.22.42-.34.9-.34,1.4,0,1.73,1.4,3.15,3.14,3.15.61,0,1.17-.18,1.65-.47l-1.16-3.83Zm-.5,1.86c-.38,0-.69-.31-.69-.7s.31-.69.69-.69.7.31.7.69-.31.7-.7.7Z"/>
  <path class="cls-2" d="m96.2,110.73c0,.39-.31.7-.7.7s-.69-.31-.69-.7.31-.69.69-.69.7.31.7.69Z"/>
  <line class="cls-11" x1="57.4" y1="68.79" x2="57.4" y2="63.99"/>
  <line class="cls-11" x1="53.79" y1="68.82" x2="53.79" y2="64.47"/>
  <line class="cls-11" x1="50.25" y1="68.42" x2="50.25" y2="64.94"/>
  <line class="cls-11" x1="46.73" y1="68.04" x2="46.73" y2="65.42"/>
  <line class="cls-11" x1="43.2" y1="67.65" x2="43.2" y2="65.91"/>
  <line class="cls-11" x1="64.3" y1="65.07" x2="63.71" y2="69.65"/>
  <line class="cls-11" x1="71.53" y1="66.2" x2="71" y2="70.23"/>
  <line class="cls-11" x1="79.01" y1="67.36" x2="78.47" y2="71.54"/>
  <line class="cls-11" x1="86.23" y1="68.5" x2="85.73" y2="72.34"/>
  <line class="cls-11" x1="93.45" y1="69.63" x2="93" y2="73.15"/>
  <line class="cls-11" x1="100.68" y1="70.75" x2="100.26" y2="73.94"/>
  <line class="cls-11" x1="107.9" y1="71.88" x2="107.53" y2="74.75"/>
  <g>
    <path class="cls-16" d="m107.65,93.24l-.23,1.01-.45,2.52c-.07.4-.46.67-.86.6l-1.66-.3c.12-.68-.33-1.32-1-1.44s-1.32.33-1.44,1l-2.36-.42c.12-.68-.33-1.32-1-1.44s-1.32.33-1.44,1l-1.67-.3c-.4-.07-.67-.46-.6-.86l.45-2.52.14-1.05c.13-.95.28-1.9.45-2.85.63-3.5,1.54-6.95,2.72-10.32l.73-6.18c-.04-1.19.05-2.37.25-3.53s.51-2.19.92-3.23l.07-.17.02-1.47c.01-.61.21-1.2.56-1.69.12-.16.24-.33.37-.48l10.73,1.93c.06.18.11.37.17.56v.02c.17.58.15,1.21-.05,1.78l-.49,1.39h0s0,.18,0,.18c.06,2.31-.37,4.61-1.25,6.75l-1.46,6.05v.03c-.08,4.52-.63,9.03-1.62,13.44Z"/>
    <path class="cls-11" d="m112.47,65.39l-.49,1.39-11.31-2.03.02-1.48c.01-.61.21-1.19.56-1.69h0c.52-.72,1.11-1.38,1.77-1.98.49-.45,1.01-.86,1.57-1.23.02-.02.05-.03.07-.04.28-.19.5-.47.62-.8.04-.09.06-.19.08-.29,0-.01,0-.03,0-.04l.16-.63,4.76.86-.07.69s-.02.09-.02.14v.05c-.03.39.07.76.28,1.07.02.04.05.07.08.1.89,1.25,1.56,2.64,1.97,4.12v.02c.17.58.15,1.2-.05,1.78Z"/>
    <path class="cls-7" d="m110.73,73.72l-11.31-2.03h0c-.08-2.31.32-4.62,1.18-6.77l.07-.17,11.31,2.03v.18c.06,2.31-.36,4.61-1.25,6.75h0Z"/>
    <path class="cls-11" d="m110.73,73.71l-1.46,6.05v.03c-.08,4.53-.63,9.02-1.62,13.45l-.24,1-.45,2.53c-.07.4-.45.67-.86.6l-1.66-.3c.12-.68-.33-1.32-1-1.44-.68-.12-1.33.33-1.44,1l-2.36-.42c.11-.68-.33-1.32-1.01-1.44-.67-.12-1.32.33-1.44,1l-1.66-.3c-.4-.07-.67-.45-.6-.86l.45-2.53.13-1.05c.13-.95.28-1.9.45-2.85.63-3.51,1.54-6.95,2.72-10.31l.73-6.19,11.31,2.03Z"/>
    <line class="cls-11" x1="104.96" y1="56.47" x2="110.84" y2="57.53"/>
    <rect class="cls-11" x="105.69" y="54.68" width="4.88" height="2.34" transform="translate(11.59 -18.25) rotate(10.19)"/>
    <line class="cls-12" x1="106.8" y1="54.43" x2="106.37" y2="56.82"/>
    <line class="cls-12" x1="107.57" y1="54.57" x2="107.14" y2="56.96"/>
    <line class="cls-12" x1="108.35" y1="54.7" x2="107.91" y2="57.1"/>
    <line class="cls-12" x1="109.12" y1="54.84" x2="108.69" y2="57.24"/>
    <line class="cls-12" x1="109.89" y1="54.98" x2="109.46" y2="57.38"/>
    <path class="cls-17" d="m105.51,71.47c.88.16,1.72-.43,1.88-1.31s-1.09-3.1-1.09-3.1c0,0-1.94,1.65-2.1,2.53s.43,1.72,1.31,1.88Z"/>
  </g>
  <g>
    <path class="cls-9" d="m91.52,81.1l-21.66,4.04,7.6-5.29c.14.4.47.75.92.9.75.25,1.57-.16,1.82-.92.16-.51.04-1.04-.3-1.41l2.86-1.68,8.77,4.36Z"/>
    <path class="cls-8" d="m91.49,82.22l.03-1.12-21.66,4.04v2.63c.08-.01.18-.01.26-.01,1.13,0,2.04.91,2.04,2.03s-.91,2.04-2.04,2.04c-.08,0-.18-.01-.26-.02v4.75l21.35-3.89.19-6.78c-.14-.02-.28-.04-.42-.09-.96-.32-1.5-1.35-1.18-2.32.25-.75.94-1.25,1.69-1.27Zm-8.89,5.21c-.33,1.07-1.47,1.64-2.53,1.3-1.05-.35-1.63-1.48-1.28-2.55.35-1.05,1.48-1.63,2.53-1.28,1.07.35,1.64,1.48,1.28,2.53Zm4.49,4c-.21.63-.89.97-1.53.76-.63-.21-.97-.89-.76-1.52.21-.63.89-.98,1.52-.77.64.21.98.89.77,1.53Z"/>
    <g>
      <path class="cls-4" d="m92.31,85.74l-.17,6.23c0,.4-.33.71-.73.72h-.2s.18-6.78.18-6.78c.32.03.64-.03.92-.16Z"/>
      <path class="cls-4" d="m92.44,81.23l-.03,1.2c-.09-.05-.18-.09-.28-.12-.21-.07-.42-.1-.63-.09l.03-1.12-8.77-4.36.66-.29c.2-.09.44-.08.63.02l7.99,4.09c.25.13.41.39.4.68Z"/>
    </g>
    <line class="cls-10" x1="92.12" y1="80.89" x2="91.52" y2="81.1"/>
  </g>
  <g>
    <path class="cls-6" d="m68.43,81.09c-.07-.09.67-.61,1.79-1.84,1.02-1.12.98-1.33,1.74-1.97.61-.52.87-.59,1.5-1.2.52-.51.63-.76,1.04-1.22.81-.93,1.12-.83,2.18-1.77,1.35-1.2,1.06-1.56,2.34-2.52.55-.42.89-.56,1.49-1.14.49-.47.67-.76,1.15-1.35,1.06-1.32,1.59-1.99,2.2-2.29,1.42-.71,2.95-.08,3.03-.04.1.04.57.26,1.05.68.1.09.21.19.31.3.04.05.08.09.12.14.12.14.22.3.32.48.13.24.24.52.3.82.22,1.05-.19,1.92-.31,2.15-.3.61-1.33,1.24-1.46,1.33-.39.27-.39.29-1.19.62-.65.27-.52.31-1.98,1.16-1.27.73-1.9,1.1-2.79,1.45-1.24.49-1.34.31-2.25.77-1.12.57-.92.81-1.99,1.34-.92.45-1.23.35-2.57.99-.31.15-.26.14-1.01.52-.94.48-1.5.73-1.9.93-1.98.96-2.16,1.17-3.11,1.67Z"/>
    <path class="cls-1" d="m98.1,63.39c-.14.31-1.51-.15-1.64.16-.07.17.24.35.54.94.17.35.4.97.24,1.09-.2.14-.9-.39-1.13-.57-.36-.27-.53-.46-.68-.41-.15.06-.1.31-.36.61-.08.1-.27.32-.41.28-.2-.05-.09-.47-.39-.78-.18-.18-.38-.23-.69-.3-.24-.05-.58-.12-.91-.04-.48.13-.94.64-1.43,1.09.66-.11,1.2-.19,1.84.03.22.07.85.32,1.31.94.08.09.15.21.58,1.36.41,1.1.46,1.32.35,1.42-.15.15-.56.04-.8-.14-.3-.22-.33-.53-.42-.51-.17.02.01.88-.42,1.7-.14.27-.44.72-.65.66-.29-.07-.33-1.09-.32-1.57.02-.5.09-.83-.04-.9-.21-.1-.55.46-.83.35-.25-.09-.26-.62-.26-.74-.01-.28.05-.52.14-.88.1-.39.17-.5.1-.62-.1-.22-.46-.24-.65-.25-.65-.04-1.2.2-1.55.38-.4.22-.69.44-.92.62-.09-.18-.21-.33-.32-.47-.04-.05-.07-.09-.11-.14-.1-.11-.21-.21-.31-.3.24-.2.56-.46.95-.85.57-.55.89-.95,1.06-1.51.07-.25.2-.66,0-.97-.14-.21-.29-.15-.74-.44-.27-.18-.62-.41-.77-.83-.04-.12-.12-.35-.02-.52.12-.2.41-.22.61-.24.39-.03.59.1.67,0,.07-.1-.07-.25-.12-.58-.01-.05-.1-.65.18-.83.27-.16.75.17.8.21.45.33.57.84.66.8.07-.02-.02-.32.06-.72.05-.23.09-.57.23-.59.2-.03.5.65.63,1.18.08.33.17.65.08,1.04-.06.33-.18.4-.43.98-.16.37-.13.39-.31.84-.1.27-.25.65-.48,1.09.41-.37,1.11-.96,2.13-1.55.96-.56,1.44-.83,2.16-.9.92-.09,1.56.2,1.73.28.61.3,1.2.85,1.09,1.06Z"/>
  </g>
  <g>
    <path class="cls-3" d="m57.5,64.19c-.2,1.36.74,2.57,1.34,3.71,1.01,1.91,2.33,3.59,3.91,5.06.84.78,1.76,1.52,2.82,1.95,1.63.66,3.54.26,4.98-.7.63-.42,1.19-.97,1.48-1.67.32-.77.29-1.67,0-2.46-.34-.96-1.03-1.81-1.82-2.43-.76-.59-1.62-1.05-2.46-1.52-1.08-.6-2.16-1.23-3.12-2.02-.48-.4-.92-.83-1.3-1.32-.28-.35-.59-.8-1.02-1.01-.52-.25-1.4-.43-2.11-.06-.78.41-.78,1.19-1.72,1.51-.2.07-.4.1-.61.28-.39.33-.35.45-.38.66Z"/>
    <path class="cls-1" d="m56.34,64.93c.29.16.63.31,1.16.08.35-.15.53-.42.58-.49.29-.45.25-.88.26-.96,0,.05,0,.32.15.66.09.19.25.3.42.47.08-.33.2-.46.32-.59.14-.15.29-.26.56-.58.27-.33.33-.41.45-.67.23.16.32.25.75.41.42.16.68.02.93-.05-.1-.15-.16-.15-.37-.45-.16-.24-.23-.51-.21-.65.11.06.24.12.58.19.35.07.64-.03.78-.08.45-.16.7-.43.79-.59-.28.04-.54.03-.7.01-.12-.02-.28-.05-.7-.28-.56-.3-.53-.38-.89-.56-.32-.16-.73-.37-1.22-.29-.11.02-.22.05-.32.09-.14-.11-.27-.24-.37-.38-.11-.17-.18-.37-.25-.56-.04-.11-.08-.23-.1-.34-.03-.16,0-.32.09-.45,0-.01.16-.2.18-.19,0,0-.1-.08-.28-.12-.23-.06-.42,0-.42,0-.37.56-.55,1.22-.43,1.89.04.23.12.47.23.68,0,0,0,0,0,.01-.04.02-.05.03-.1.06-.34.17-.56.43-.67.58-.19.28-.24.53-.33,1.01-.06.3-.04.33-.15,1.05-.07.45-.1.6-.23.76-.22.26-.19.23-.5.35Z"/>
  </g>
  <g>
    <path class="cls-5" d="m57.18,79.07c-1.19-1.17-3.42-1.18-4.84-.72-2.61.85-3.57,3.64-3.74,4.13-.75,2.17-.13,5.07,1.55,9.1.05.13,1.53,3.23,2.57,4.27.67.67,1.13.8,1.43.83.62.06,1.9-.43,2.24-.58,1.73-.79,1.16-.55,2.61-1.34,1.39-.76,4.84-2.65,6.27-6.49.43-1.15,1.35-3.63.11-6-.63-1.2-2.13-2.98-3.91-2.97-1.41,0-2.42,1.13-3.52.55-.39-.2-.42-.42-.77-.77Z"/>
    <path class="cls-1" d="m65.13,82.56s-1-1.07-2.03-.87c-.59.12-1.21.19-1.69.2.05.11.1.22.13.31.27.78,0,2.87,0,2.87,0,0-.91-.77-1.75-1.58-.37-.36-.66-.91-.85-1.41-.06.15-.13.32-.22.47-.34.65-1.31.54-1.85.68-.55.14-.86.97-.86.97,0,0-.45-2.54.31-3.65.01,0,.01-.01.02-.02-.52.05-1.11.09-1.63.09-1.19-.02-2.4-1.27-2.4-1.27,0,0,.59.12,1.16,0,.19-.04.42-.14.69-.27-.36-.22-.69-.52-.86-.72-.3-.36-.51-1.53-.3-1.23.22.3.84.44,1.23.44.68,0,.97-.38,1.65-.34.31.02.75.26,1.16.52-.01-.02-.01-.03-.02-.05-.43-.94.53-2.28.53-2.28,0,0,1.27,1.08,1.41,2.16.03.3.01.61-.04.89.21-.54.41-1.05.56-1.37.4-.89,2.03-1.67,2.03-1.67l1.38.33s-1.64.95-2.44,1.83c-.29.32-.57.8-.79,1.29.04-.05.08-.09.13-.13.48-.31,2.07-.31,2.49-.37.42-.06,1.08-.28,1.08-.28,0,0-.24.76-.68,1.39-.08.12-.18.25-.29.37.43-.02.9,0,1.2.11.7.28,1.21.99,1.33,1.35.12.36.22,1.25.22,1.25Z"/>
  </g>
  <g>
    <path class="cls-11" d="m63.79,100.02l-4.55.04-2.94.03-4.25.04c-1.83.02-3.47-1.09-4.13-2.81l-11.73-30.46"/>
    <path class="cls-11" d="m86.09,99.81l19.88-.2c2.19-.02,4.02-1.65,4.3-3.82l2.41-20.48"/>
    <line class="cls-11" x1="41.87" y1="67.5" x2="52.05" y2="100.14"/>
    <polyline class="cls-11" points="57.14 100.14 57.12 100.09 47.14 68.08"/>
    <line class="cls-11" x1="61.18" y1="100.05" x2="53.62" y2="68.79"/>
    <line class="cls-11" x1="67.18" y1="99.99" x2="59.78" y2="69.48"/>
    <line class="cls-11" x1="71" y1="99.95" x2="66.59" y2="70.23"/>
    <line class="cls-11" x1="76.23" y1="99.9" x2="73.01" y2="70.94"/>
    <line class="cls-11" x1="81.97" y1="99.84" x2="78.8" y2="71.58"/>
    <line class="cls-11" x1="86.98" y1="99.8" x2="85.45" y2="72.31"/>
    <line class="cls-11" x1="92.96" y1="99.74" x2="92.17" y2="73.05"/>
    <line class="cls-11" x1="98.78" y1="99.68" x2="98.02" y2="73.69"/>
    <line class="cls-11" x1="104.59" y1="74.42" x2="102.91" y2="99.64"/>
    <line class="cls-11" x1="109.4" y1="74.95" x2="107.8" y2="99.2"/>
    <polyline class="cls-11" points="39.2 74.67 44.22 75.03 49.42 75.41 55.32 75.82 61.42 76.26 67.55 76.69 73.7 77.13 79.47 77.54 85.77 77.99 92.33 78.46 98.17 78.87 104.26 79.3 109.09 79.65 112.16 79.87"/>
    <polyline class="cls-11" points="42.66 83.67 46.94 83.78 52.08 83.91 57.31 84.06 63.35 84.21 68.68 84.36 74.52 84.51 80.27 84.67 86.15 84.82 92.52 84.99 98.36 85.15 103.86 85.3 108.71 85.42 111.5 85.49"/>
    <polyline class="cls-11" points="45.07 89.92 48.87 89.96 53.98 90.01 58.76 90.05 64.79 90.11 69.55 90.15 75.15 90.21 80.9 90.27 86.45 90.32 92.68 90.38 98.51 90.43 103.51 90.48 108.37 90.53 110.9 90.56"/>
    <polyline class="cls-11" points="47.46 96.12 50.79 96.12 55.88 96.12 60.23 96.12 66.24 96.12 70.44 96.12 75.81 96.12 81.56 96.12 86.77 96.12 92.86 96.12 98.68 96.12 103.14 96.12 108.01 96.12 110.22 96.12"/>
  </g>
  <line class="cls-11" x1="36.2" y1="66.88" x2="112.69" y2="75.31"/>
  <path class="cls-14" d="m47.98,52.48c.53.29,1.14.57,1.58.59.92.04,2.04.04,2.86.79.35.32.58.88.7,1.49.17.77.15,1.63.04,2.15-.14.62-.17,1.19-.44,1.68-.01.03-.03.05-.05.07-.11.21-.29.41-.54.6-.17.12-.54.24-.97.33-.96.21-2.26.32-2.55.29-.18-.02-.05-.37.13-.85.27-.64.65-1.51.6-2.07-.13-1.19-1.06-1.45-1.72-1.41-.13.01-.31-.03-.53-.11h-.01c-.2-.06-.41-.17-.64-.27h-.01"/>
  <path class="cls-14" d="m33.96,59.41c-.17.71-.15,1.35-.58,1.91-.11.15-.26.31-.45.44-.53.4-3.09.67-3.51.63-.14-.01-.08-.27.06-.64.02-.06.05-.12.07-.2.26-.65.65-1.53.59-2.09v-.03s-.01-.02-.01-.02c-.12-.98-.81-1.31-1.42-1.35h-.01c-.09-.02-.19-.02-.28-.01-.48.03-1.73-.64-2.33-.99.09-.17.2-.33.29-.5.25-.45.46-.91.67-1.37l.17-.33.55-1.07s1.54,1.04,2.47,1.19h.02s.08.01.12.01c.41.02.86.03,1.3.11h.01c.55.08,1.09.27,1.54.68.4.36.64,1.01.75,1.69.11.72.1,1.48-.01,1.94Z"/>
  <path class="cls-14" d="m26.09,57.06l.96-1.87c-.21.46-.42.92-.67,1.37-.09.16-.2.33-.29.5Z"/>
  <path class="cls-11" d="m13.85,34.72c.24-.29.47-.58.7-.86.48-.6.97-1.19,1.46-1.75,1.03-1.2,2.11-2.34,3.33-3.34,1.21-.96,2.49-1.54,3.94-2.02,1.33-.44,2.7-.75,4.08-.93,0,0,.1.06.3.14.68.29,2.38.93,4.17.93.48,0,.96-.04,1.43-.15.27-.07.53-.15.78-.27l.23-.1h.01c.1-.05.21-.11.31-.18,1.54.61,3.97,2.09,5.19,3.33.11.12.2.28.29.41,2.85,3.89,1.64,14.11,1.5,16.44-.01.34.09.68.3.95.47.6.95.65,2.66,1.74,1.23.79,2.67,1.08,3.39,2.33.15.27.15.65.05,1.08-.04.2-.11.4-.2.61-.05.12-.1.24-.15.36-.38.8-.52,1.72-1.19,2.3h-.01c-.1.09-.22.17-.34.24l-.12.06c-.12.06-.25.1-.37.13-.3.09-.61.12-.92.1-.86-.04-1.7-.44-2.54-.89-2.25-1.21-3.61-1.26-4.68-2.61-.06.13-.14.27-.23.39-.14.21-.33.38-.53.52-.01,0-.01.01-.02.01-.1.08-.22.14-.33.21-.01,0-.01.01-.02.01-.13.07-.27.12-.4.18-.1.04-.21.07-.31.1-.21.06-.42.11-.63.17-.56.13-1.12.24-1.69.32-.11.02-.23.03-.34.05-.91.13-1-.02-1.91.01"/>
  <path class="cls-11" d="m27.21,54.86h-.02"/>
  <path class="cls-11" d="m19.01,42.42c-.74.79-1.52,1.55-2.3,2.29.77.79,2.52,1.92,4.31,3.03,1.94,1.2,3.91,2.39,4.7,3.2h.01l.02.02c.72.73,1.39,1.03,1.6,1.85.04.18.06.36.07.55.04.5-.03,1.02-.19,1.38-.02.04-.03.08-.05.12-.01.03-.02.06-.04.09-.03.08-.07.15-.1.24"/>
  <path class="cls-11" d="m26.09,57.06s-.03.06-.05.09c-.35.58-1.07.79-1.69.51-.93-.43-2.7-1.11-4.58-1.89-2.54-1.04-5.28-2.23-6.34-3.09-1.56-1.28-3.15-2.66-4.1-4.46-1.62-3-.41-6.44,1.26-9.12.96-1.55,2.11-2.98,3.28-4.38"/>
  <rect class="cls-13" x="-1236.33" y="-5545.33" width="2244.45" height="5948.74"/>
</svg>