<?xml version="1.0" encoding="UTF-8"?>
<svg id="Calque_1" data-name="Calque 1" xmlns="http://www.w3.org/2000/svg" viewBox="0 0 128 128">
  <defs>
    <style>
      .cls-1 {
        fill: #f3d587;
      }

      .cls-2 {
        fill: #f387d5;
      }

      .cls-3 {
        fill: #ff6d75;
      }

      .cls-4 {
        fill: #baa584;
      }

      .cls-5 {
        fill: #afaff9;
      }

      .cls-6 {
        fill: #77eddf;
      }

      .cls-7 {
        stroke: #000;
        stroke-miterlimit: 10;
        stroke-width: .25px;
      }

      .cls-8 {
        fill: none;
        stroke: #fff;
        stroke-linecap: round;
        stroke-linejoin: round;
        stroke-width: 8px;
      }
    </style>
  </defs>
  <path class="cls-7" d="m35.81,37.11h-13.71c-3.7,0-6.72-3.01-6.72-6.72v-1.42h.69v1.42c0,3.32,2.7,6.02,6.02,6.02h13.71c3.32,0,6.02-2.7,6.02-6.02v-1.42h.69v1.42c0,3.7-3.01,6.72-6.72,6.72Z"/>
  <path class="cls-7" d="m105.9,37.11h-13.71c-3.7,0-6.72-3.01-6.72-6.72v-1.42h.69v1.42c0,3.32,2.7,6.02,6.03,6.02h13.71c3.32,0,6.02-2.7,6.02-6.02v-1.42h.69v1.42c0,3.7-3.01,6.72-6.72,6.72Z"/>
  <path class="cls-7" d="m101.33,86.14h-13.71c-3.7,0-6.72-3.01-6.72-6.72v-1.42h.69v1.42c0,3.32,2.7,6.02,6.03,6.02h13.71c3.32,0,6.02-2.7,6.02-6.02v-1.42h.69v1.42c0,3.7-3.01,6.72-6.72,6.72Z"/>
  <path class="cls-7" d="m40.63,86.14h-13.71c-3.7,0-6.72-3.01-6.72-6.72v-1.42h.69v1.42c0,3.32,2.7,6.02,6.02,6.02h13.71c3.32,0,6.03-2.7,6.03-6.02v-1.42h.69v1.42c0,3.7-3.01,6.72-6.72,6.72Z"/>
  <path class="cls-7" d="m47.35,96.92h-.69v-1.42c0-3.32-2.7-6.02-6.03-6.02h-13.71c-3.32,0-6.02,2.7-6.02,6.02v1.42h-.69v-1.42c0-3.7,3.01-6.72,6.72-6.72h13.71c3.7,0,6.72,3.01,6.72,6.72v1.42Z"/>
  <path class="cls-7" d="m81.83,51.88h-.69c0-3.32-2.7-6.02-6.03-6.02h-22.23c-3.32,0-6.02,2.7-6.02,6.02h-.69c0-3.7,3.01-6.72,6.72-6.72h22.23c3.7,0,6.72,3.01,6.72,6.72Z"/>
  <rect class="cls-7" x="94.12" y="85.8" width=".69" height="11.84"/>
  <rect class="cls-7" x="33.43" y="85.8" width=".69" height="3.1"/>
  <path class="cls-7" d="m103.42,41.98c-2.61,0-4.73-2.12-4.73-4.73v-.49h.69v.49c0,2.23,1.81,4.04,4.04,4.04v.69Z"/>
  <path class="cls-7" d="m59.5,41.98h-26.11c-2.61,0-4.73-2.12-4.73-4.73v-.49h.69v.49c0,2.23,1.81,4.04,4.04,4.04h26.11v.69Z"/>
  <path class="cls-7" d="m107.8,50.22h-.69v-4.08c0-2.29-1.86-4.16-4.16-4.16v-.69c2.67,0,4.85,2.18,4.85,4.85v4.08Z"/>
  <path class="cls-7" d="m64.3,45.51h-.69c0-1.88-1.92-3.53-4.11-3.53v-.69c2.56,0,4.81,1.97,4.81,4.22Z"/>
  <path d="m28.77,52.33v23.46H12.32v-23.46h16.45m2.42-2.42H9.9v28.31h21.29v-28.31h0Z"/>
  <path d="m54.74,52.33v23.46h-16.45v-23.46h16.45m2.42-2.42h-21.29v28.31h21.29v-28.31h0Z"/>
  <path class="cls-2" d="m29.98,51.12v25.88H11.11v-25.88h18.87m1.21-1.21H9.9v28.31h21.29v-28.31h0Z"/>
  <path class="cls-2" d="m55.95,51.12v25.88h-18.87v-25.88h18.87m1.21-1.21h-21.29v28.31h21.29v-28.31h0Z"/>
  <path d="m28.77,98.85v23.46H12.32v-23.46h16.45m2.42-2.42H9.9v28.31h21.29v-28.31h0Z"/>
  <path d="m54.74,98.85v23.46h-16.45v-23.46h16.45m2.42-2.42h-21.29v28.31h21.29v-28.31h0Z"/>
  <path class="cls-3" d="m29.98,97.64v25.88H11.11v-25.88h18.87m1.21-1.21H9.9v28.31h21.29v-28.31h0Z"/>
  <path class="cls-3" d="m55.95,97.64v25.88h-18.87v-25.88h18.87m1.21-1.21h-21.29v28.31h21.29v-28.31h0Z"/>
  <path d="m24.44,5.34v23.46H7.99V5.34h16.45m2.42-2.42H5.57v28.31h21.29V2.92h0Z"/>
  <path d="m50.41,5.34v23.46h-16.45V5.34h16.45m2.42-2.42h-21.29v28.31h21.29V2.92h0Z"/>
  <path class="cls-1" d="m25.65,4.13v25.88H6.78V4.13h18.87m1.21-1.21H5.57v28.31h21.29V2.92h0Z"/>
  <path class="cls-1" d="m51.62,4.13v25.88h-18.87V4.13h18.87m1.21-1.21h-21.29v28.31h21.29V2.92h0Z"/>
  <path d="m94.04,5.34v23.46h-16.45V5.34h16.45m2.42-2.42h-21.29v28.31h21.29V2.92h0Z"/>
  <path d="m120.01,5.34v23.46h-16.45V5.34h16.45m2.42-2.42h-21.29v28.31h21.29V2.92h0Z"/>
  <path class="cls-6" d="m95.25,4.13v25.88h-18.87V4.13h18.87m1.21-1.21h-21.29v28.31h21.29V2.92h0Z"/>
  <path class="cls-6" d="m121.22,4.13v25.88h-18.87V4.13h18.87m1.21-1.21h-21.29v28.31h21.29V2.92h0Z"/>
  <path d="m89.71,52.33v23.46h-16.45v-23.46h16.45m2.42-2.42h-21.29v28.31h21.29v-28.31h0Z"/>
  <path d="m115.68,52.33v23.46h-16.45v-23.46h16.45m2.42-2.42h-21.29v28.31h21.29v-28.31h0Z"/>
  <path class="cls-4" d="m90.92,51.12v25.88h-18.87v-25.88h18.87m1.21-1.21h-21.29v28.31h21.29v-28.31h0Z"/>
  <path class="cls-4" d="m116.89,51.12v25.88h-18.87v-25.88h18.87m1.21-1.21h-21.29v28.31h21.29v-28.31h0Z"/>
  <path d="m102.69,98.85v23.46h-16.45v-23.46h16.45m2.42-2.42h-21.29v28.31h21.29v-28.31h0Z"/>
  <path class="cls-5" d="m103.91,97.64v25.88h-18.87v-25.88h18.87m1.21-1.21h-21.29v28.31h21.29v-28.31h0Z"/>
  <path class="cls-5" d="m94.38,108.52c1.81,0,3.27-1.47,3.27-3.27s-1.46-3.27-3.27-3.27-3.27,1.47-3.27,3.27,1.47,3.27,3.27,3.27Z"/>
  <path class="cls-5" d="m100.55,118.51c-.02.57-.07,1.03-.1,1.36-.04.33-.06.51-.06.51l-.14.3c-.17.35-.55.6-.94.56-.51-.06-.87-.51-.85-1.01,0,0,0-.17,0-.48,0-.3,0-.72,0-1.23-.03-.5-.08-1.08-.18-1.69-.11-.6-.25-1.24-.47-1.82-.11-.3-.25-.58-.39-.85l.11,6.4c0,.11,0,.21,0,.32l-.06,1.43h-6.13l-.06-1.39v-.31l.09-6.51c-.15.29-.3.59-.42.92-.22.58-.37,1.22-.48,1.82-.1.6-.15,1.19-.17,1.69-.03.51-.02.93-.02,1.23,0,.31.02.48.02.48.02.54-.39.99-.93,1.02-.04,0-.08,0-.11,0-.78.03-.89-.84-.89-.84h0s-.03-.19-.07-.52c-.03-.33-.07-.79-.09-1.36-.03-.56-.03-1.23.04-1.95.06-.72.17-1.5.39-2.28s.55-1.55.97-2.24c.22-.34.45-.66.71-.95.25-.29.51-.54.78-.76.53-.43,1.04-.71,1.45-.87.2-.09.37-.14.51-.18.07-.02.12-.03.18-.04.77-.14,1.69-.18,2.48.04.14.04.31.1.51.18.4.16.92.44,1.45.87.27.22.54.47.79.76.25.29.49.61.7.95.43.69.75,1.47.97,2.24.22.78.35,1.56.4,2.28.06.73.06,1.4.04,1.95Z"/>
  <g>
    <path class="cls-4" d="m81.5,62.01c1.81,0,3.27-1.47,3.27-3.27s-1.46-3.27-3.27-3.27-3.27,1.47-3.27,3.27,1.47,3.27,3.27,3.27Z"/>
    <path class="cls-4" d="m87.66,72c-.02.57-.07,1.03-.1,1.36-.04.33-.06.51-.06.51l-.14.3c-.17.35-.55.6-.94.56-.51-.06-.87-.51-.85-1.01,0,0,0-.17,0-.48,0-.3,0-.72,0-1.23-.03-.5-.08-1.08-.18-1.69s-.25-1.24-.47-1.82c-.11-.3-.25-.58-.39-.85l.11,6.4c0,.11,0,.21,0,.32l-.06,1.43h-6.13l-.06-1.39v-.31l.09-6.51c-.15.29-.3.59-.42.92-.22.58-.37,1.22-.48,1.82-.1.6-.15,1.19-.17,1.69-.03.51-.02.93-.02,1.23,0,.31.02.48.02.48.02.54-.39.99-.93,1.02-.04,0-.08,0-.11,0-.78.03-.89-.84-.89-.84h0s-.03-.19-.07-.52c-.03-.33-.07-.79-.09-1.36-.03-.56-.03-1.23.04-1.95.06-.72.17-1.5.39-2.28.22-.78.55-1.55.97-2.24.22-.34.45-.66.71-.95.25-.29.51-.54.78-.76.53-.43,1.04-.71,1.45-.87.2-.09.37-.14.51-.18.07-.02.12-.03.18-.04.77-.14,1.69-.18,2.48.04.14.04.31.1.51.18.4.16.92.44,1.45.87.27.22.54.47.79.76.25.29.49.61.7.95.43.69.75,1.47.97,2.24.22.78.35,1.56.4,2.28.06.73.06,1.4.04,1.95Z"/>
    <path class="cls-4" d="m107.71,62.01c1.81,0,3.27-1.47,3.27-3.27s-1.46-3.27-3.27-3.27-3.27,1.47-3.27,3.27,1.47,3.27,3.27,3.27Z"/>
    <path class="cls-4" d="m113.88,72c-.02.57-.07,1.03-.1,1.36-.04.33-.06.51-.06.51l-.14.3c-.17.35-.55.6-.94.56-.51-.06-.87-.51-.85-1.01,0,0,0-.17,0-.48,0-.3,0-.72,0-1.23-.03-.5-.08-1.08-.18-1.69s-.25-1.24-.47-1.82c-.11-.3-.25-.58-.39-.85l.11,6.4c0,.11,0,.21,0,.32l-.06,1.43h-6.13l-.06-1.39v-.31l.09-6.51c-.15.29-.3.59-.42.92-.22.58-.37,1.22-.48,1.82-.1.6-.15,1.19-.17,1.69-.03.51-.02.93-.02,1.23,0,.31.02.48.02.48.02.54-.39.99-.93,1.02-.04,0-.08,0-.11,0-.78.03-.89-.84-.89-.84h0s-.03-.19-.07-.52c-.03-.33-.07-.79-.09-1.36-.03-.56-.03-1.23.04-1.95.06-.72.17-1.5.39-2.28s.55-1.55.97-2.24c.22-.34.45-.66.71-.95.25-.29.51-.54.78-.76.53-.43,1.04-.71,1.45-.87.2-.09.37-.14.51-.18.07-.02.12-.03.18-.04.77-.14,1.69-.18,2.48.04.14.04.31.1.51.18.4.16.92.44,1.45.87.27.22.54.47.79.76.25.29.49.61.7.95.43.69.75,1.47.97,2.24.22.78.35,1.56.4,2.28.06.73.06,1.4.04,1.95Z"/>
  </g>
  <g>
    <path class="cls-6" d="m85.61,15.06c1.81,0,3.27-1.47,3.27-3.27s-1.46-3.27-3.27-3.27-3.27,1.47-3.27,3.27,1.47,3.27,3.27,3.27Z"/>
    <path class="cls-6" d="m91.77,25.04c-.02.57-.07,1.03-.1,1.36-.04.33-.06.51-.06.51l-.14.3c-.17.35-.55.6-.94.56-.51-.06-.87-.51-.85-1.01,0,0,0-.17,0-.48,0-.3,0-.72,0-1.23-.03-.5-.08-1.08-.18-1.69s-.25-1.24-.47-1.82c-.11-.3-.25-.58-.39-.85l.11,6.4c0,.11,0,.21,0,.32l-.06,1.43h-6.13l-.06-1.39v-.31l.09-6.51c-.15.29-.3.59-.42.92-.22.58-.37,1.22-.48,1.82-.1.6-.15,1.19-.17,1.69-.03.51-.02.93-.02,1.23,0,.31.02.48.02.48.02.54-.39.99-.93,1.02-.04,0-.08,0-.11,0-.78.03-.89-.84-.89-.84h0s-.03-.19-.07-.52c-.03-.33-.07-.79-.09-1.36-.03-.56-.03-1.23.04-1.95.06-.72.17-1.5.39-2.28.22-.78.55-1.55.97-2.24.22-.34.45-.66.71-.95.25-.29.51-.54.78-.76.53-.43,1.04-.71,1.45-.87.2-.09.37-.14.51-.18.07-.02.12-.03.18-.04.77-.14,1.69-.18,2.48.04.14.04.31.1.51.18.4.16.92.44,1.45.87.27.22.54.47.79.76.25.29.49.61.7.95.43.69.75,1.47.97,2.24.22.78.35,1.56.4,2.28.06.73.06,1.4.04,1.95Z"/>
    <path class="cls-6" d="m111.82,15.06c1.81,0,3.27-1.47,3.27-3.27s-1.46-3.27-3.27-3.27-3.27,1.47-3.27,3.27,1.47,3.27,3.27,3.27Z"/>
    <path class="cls-6" d="m117.98,25.04c-.02.57-.07,1.03-.1,1.36-.04.33-.06.51-.06.51l-.14.3c-.17.35-.55.6-.94.56-.51-.06-.87-.51-.85-1.01,0,0,0-.17,0-.48,0-.3,0-.72,0-1.23-.03-.5-.08-1.08-.18-1.69s-.25-1.24-.47-1.82c-.11-.3-.25-.58-.39-.85l.11,6.4c0,.11,0,.21,0,.32l-.06,1.43h-6.13l-.06-1.39v-.31l.09-6.51c-.15.29-.3.59-.42.92-.22.58-.37,1.22-.48,1.82-.1.6-.15,1.19-.17,1.69-.03.51-.02.93-.02,1.23,0,.31.02.48.02.48.02.54-.39.99-.93,1.02-.04,0-.08,0-.11,0-.78.03-.89-.84-.89-.84h0s-.03-.19-.07-.52c-.03-.33-.07-.79-.09-1.36-.03-.56-.03-1.23.04-1.95.06-.72.17-1.5.39-2.28s.55-1.55.97-2.24c.22-.34.45-.66.71-.95.25-.29.51-.54.78-.76.53-.43,1.04-.71,1.45-.87.2-.09.37-.14.51-.18.07-.02.12-.03.18-.04.77-.14,1.69-.18,2.48.04.14.04.31.1.51.18.4.16.92.44,1.45.87.27.22.54.47.79.76.25.29.49.61.7.95.43.69.75,1.47.97,2.24.22.78.35,1.56.4,2.28.06.73.06,1.4.04,1.95Z"/>
  </g>
  <g>
    <path class="cls-1" d="m15.87,15.06c1.81,0,3.27-1.47,3.27-3.27s-1.46-3.27-3.27-3.27-3.27,1.47-3.27,3.27,1.47,3.27,3.27,3.27Z"/>
    <path class="cls-1" d="m22.03,25.04c-.02.57-.07,1.03-.1,1.36-.04.33-.06.51-.06.51l-.14.3c-.17.35-.55.6-.94.56-.51-.06-.87-.51-.85-1.01,0,0,0-.17,0-.48,0-.3,0-.72,0-1.23-.03-.5-.08-1.08-.18-1.69-.11-.6-.25-1.24-.47-1.82-.11-.3-.25-.58-.39-.85l.11,6.4c0,.11,0,.21,0,.32l-.06,1.43h-6.13l-.06-1.39v-.31l.09-6.51c-.15.29-.3.59-.42.92-.22.58-.37,1.22-.48,1.82-.1.6-.15,1.19-.17,1.69-.03.51-.02.93-.02,1.23,0,.31.02.48.02.48.02.54-.39.99-.93,1.02-.04,0-.08,0-.11,0-.78.03-.89-.84-.89-.84h0s-.03-.19-.07-.52c-.03-.33-.07-.79-.09-1.36-.03-.56-.03-1.23.04-1.95.06-.72.17-1.5.39-2.28s.55-1.55.97-2.24c.22-.34.45-.66.71-.95.25-.29.51-.54.78-.76.53-.43,1.04-.71,1.45-.87.2-.09.37-.14.51-.18.07-.02.12-.03.18-.04.77-.14,1.69-.18,2.48.04.14.04.31.1.51.18.4.16.92.44,1.45.87.27.22.54.47.79.76.25.29.49.61.7.95.43.69.75,1.47.97,2.24.22.78.35,1.56.4,2.28.06.73.06,1.4.04,1.95Z"/>
    <path class="cls-1" d="m42.08,15.06c1.81,0,3.27-1.47,3.27-3.27s-1.46-3.27-3.27-3.27-3.27,1.47-3.27,3.27,1.47,3.27,3.27,3.27Z"/>
    <path class="cls-1" d="m48.24,25.04c-.02.57-.07,1.03-.1,1.36-.04.33-.06.51-.06.51l-.14.3c-.17.35-.55.6-.94.56-.51-.06-.87-.51-.85-1.01,0,0,0-.17,0-.48,0-.3,0-.72,0-1.23-.03-.5-.08-1.08-.18-1.69-.11-.6-.25-1.24-.47-1.82-.11-.3-.25-.58-.39-.85l.11,6.4c0,.11,0,.21,0,.32l-.06,1.43h-6.13l-.06-1.39v-.31l.09-6.51c-.15.29-.3.59-.42.92-.22.58-.37,1.22-.48,1.82-.1.6-.15,1.19-.17,1.69-.03.51-.02.93-.02,1.23,0,.31.02.48.02.48.02.54-.39.99-.93,1.02-.04,0-.08,0-.11,0-.78.03-.89-.84-.89-.84h0s-.03-.19-.07-.52c-.03-.33-.07-.79-.09-1.36-.03-.56-.03-1.23.04-1.95.06-.72.17-1.5.39-2.28.22-.78.55-1.55.97-2.24.22-.34.45-.66.71-.95.25-.29.51-.54.78-.76.53-.43,1.04-.71,1.45-.87.2-.09.37-.14.51-.18.07-.02.12-.03.18-.04.77-.14,1.69-.18,2.48.04.14.04.31.1.51.18.4.16.92.44,1.45.87.27.22.54.47.79.76.25.29.49.61.7.95.43.69.75,1.47.97,2.24.22.78.35,1.56.4,2.28.06.73.06,1.4.04,1.95Z"/>
  </g>
  <g>
    <path class="cls-2" d="m20.34,61.93c1.81,0,3.27-1.47,3.27-3.27s-1.46-3.27-3.27-3.27-3.27,1.47-3.27,3.27,1.47,3.27,3.27,3.27Z"/>
    <path class="cls-2" d="m26.5,71.91c-.02.57-.07,1.03-.1,1.36-.04.33-.06.51-.06.51l-.14.3c-.17.35-.55.6-.94.56-.51-.06-.87-.51-.85-1.01,0,0,0-.17,0-.48,0-.3,0-.72,0-1.23-.03-.5-.08-1.08-.18-1.69-.11-.6-.25-1.24-.47-1.82-.11-.3-.25-.58-.39-.85l.11,6.4c0,.11,0,.21,0,.32l-.06,1.43h-6.13l-.06-1.39v-.31l.09-6.51c-.15.29-.3.59-.42.92-.22.58-.37,1.22-.48,1.82-.1.6-.15,1.19-.17,1.69-.03.51-.02.93-.02,1.23,0,.31.02.48.02.48.02.54-.39.99-.93,1.02-.04,0-.08,0-.11,0-.78.03-.89-.84-.89-.84h0s-.03-.19-.07-.52c-.03-.33-.07-.79-.09-1.36-.03-.56-.03-1.23.04-1.95.06-.72.17-1.5.39-2.28s.55-1.55.97-2.24c.22-.34.45-.66.71-.95.25-.29.51-.54.78-.76.53-.43,1.04-.71,1.45-.87.2-.09.37-.14.51-.18.07-.02.12-.03.18-.04.77-.14,1.69-.18,2.48.04.14.04.31.1.51.18.4.16.92.44,1.45.87.27.22.54.47.79.76.25.29.49.61.7.95.43.69.75,1.47.97,2.24.22.78.35,1.56.4,2.28.06.73.06,1.4.04,1.95Z"/>
    <path class="cls-2" d="m46.55,61.93c1.81,0,3.27-1.47,3.27-3.27s-1.46-3.27-3.27-3.27-3.27,1.47-3.27,3.27,1.47,3.27,3.27,3.27Z"/>
    <path class="cls-2" d="m52.71,71.91c-.02.57-.07,1.03-.1,1.36-.04.33-.06.51-.06.51l-.14.3c-.17.35-.55.6-.94.56-.51-.06-.87-.51-.85-1.01,0,0,0-.17,0-.48,0-.3,0-.72,0-1.23-.03-.5-.08-1.08-.18-1.69-.11-.6-.25-1.24-.47-1.82-.11-.3-.25-.58-.39-.85l.11,6.4c0,.11,0,.21,0,.32l-.06,1.43h-6.13l-.06-1.39v-.31l.09-6.51c-.15.29-.3.59-.42.92-.22.58-.37,1.22-.48,1.82-.1.6-.15,1.19-.17,1.69-.03.51-.02.93-.02,1.23,0,.31.02.48.02.48.02.54-.39.99-.93,1.02-.04,0-.08,0-.11,0-.78.03-.89-.84-.89-.84h0s-.03-.19-.07-.52c-.03-.33-.07-.79-.09-1.36-.03-.56-.03-1.23.04-1.95.06-.72.17-1.5.39-2.28.22-.78.55-1.55.97-2.24.22-.34.45-.66.71-.95.25-.29.51-.54.78-.76.53-.43,1.04-.71,1.45-.87.2-.09.37-.14.51-.18.07-.02.12-.03.18-.04.77-.14,1.69-.18,2.48.04.14.04.31.1.51.18.4.16.92.44,1.45.87.27.22.54.47.79.76.25.29.49.61.7.95.43.69.75,1.47.97,2.24.22.78.35,1.56.4,2.28.06.73.06,1.4.04,1.95Z"/>
  </g>
  <g>
    <path class="cls-3" d="m20.34,108.52c1.81,0,3.27-1.47,3.27-3.27s-1.46-3.27-3.27-3.27-3.27,1.47-3.27,3.27,1.47,3.27,3.27,3.27Z"/>
    <path class="cls-3" d="m26.5,118.51c-.02.57-.07,1.03-.1,1.36-.04.33-.06.51-.06.51l-.14.3c-.17.35-.55.6-.94.56-.51-.06-.87-.51-.85-1.01,0,0,0-.17,0-.48,0-.3,0-.72,0-1.23-.03-.5-.08-1.08-.18-1.69-.11-.6-.25-1.24-.47-1.82-.11-.3-.25-.58-.39-.85l.11,6.4c0,.11,0,.21,0,.32l-.06,1.43h-6.13l-.06-1.39v-.31l.09-6.51c-.15.29-.3.59-.42.92-.22.58-.37,1.22-.48,1.82-.1.6-.15,1.19-.17,1.69-.03.51-.02.93-.02,1.23,0,.31.02.48.02.48.02.54-.39.99-.93,1.02-.04,0-.08,0-.11,0-.78.03-.89-.84-.89-.84h0s-.03-.19-.07-.52c-.03-.33-.07-.79-.09-1.36-.03-.56-.03-1.23.04-1.95.06-.72.17-1.5.39-2.28s.55-1.55.97-2.24c.22-.34.45-.66.71-.95.25-.29.51-.54.78-.76.53-.43,1.04-.71,1.45-.87.2-.09.37-.14.51-.18.07-.02.12-.03.18-.04.77-.14,1.69-.18,2.48.04.14.04.31.1.51.18.4.16.92.44,1.45.87.27.22.54.47.79.76.25.29.49.61.7.95.43.69.75,1.47.97,2.24.22.78.35,1.56.4,2.28.06.73.06,1.4.04,1.95Z"/>
    <path class="cls-3" d="m46.55,108.52c1.81,0,3.27-1.47,3.27-3.27s-1.46-3.27-3.27-3.27-3.27,1.47-3.27,3.27,1.47,3.27,3.27,3.27Z"/>
    <path class="cls-3" d="m52.71,118.51c-.02.57-.07,1.03-.1,1.36-.04.33-.06.51-.06.51l-.14.3c-.17.35-.55.6-.94.56-.51-.06-.87-.51-.85-1.01,0,0,0-.17,0-.48,0-.3,0-.72,0-1.23-.03-.5-.08-1.08-.18-1.69-.11-.6-.25-1.24-.47-1.82-.11-.3-.25-.58-.39-.85l.11,6.4c0,.11,0,.21,0,.32l-.06,1.43h-6.13l-.06-1.39v-.31l.09-6.51c-.15.29-.3.59-.42.92-.22.58-.37,1.22-.48,1.82-.1.6-.15,1.19-.17,1.69-.03.51-.02.93-.02,1.23,0,.31.02.48.02.48.02.54-.39.99-.93,1.02-.04,0-.08,0-.11,0-.78.03-.89-.84-.89-.84h0s-.03-.19-.07-.52c-.03-.33-.07-.79-.09-1.36-.03-.56-.03-1.23.04-1.95.06-.72.17-1.5.39-2.28.22-.78.55-1.55.97-2.24.22-.34.45-.66.71-.95.25-.29.51-.54.78-.76.53-.43,1.04-.71,1.45-.87.2-.09.37-.14.51-.18.07-.02.12-.03.18-.04.77-.14,1.69-.18,2.48.04.14.04.31.1.51.18.4.16.92.44,1.45.87.27.22.54.47.79.76.25.29.49.61.7.95.43.69.75,1.47.97,2.24.22.78.35,1.56.4,2.28.06.73.06,1.4.04,1.95Z"/>
  </g>
  <rect class="cls-8" x="-1175.93" y="-559.55" width="1466.44" height="999.05"/>
</svg>