<?xml version="1.0" encoding="UTF-8"?>
<svg id="Calque_1" data-name="Calque 1" xmlns="http://www.w3.org/2000/svg" viewBox="0 0 200.13 128.13">
  <defs>
    <style>
      .cls-1 {
        fill: #77eddf;
      }

      .cls-1, .cls-2, .cls-3, .cls-4, .cls-5, .cls-6 {
        stroke: #000;
      }

      .cls-1, .cls-2, .cls-3, .cls-4, .cls-5, .cls-6, .cls-7 {
        stroke-linecap: round;
        stroke-linejoin: round;
      }

      .cls-2 {
        fill: #d6d6d6;
      }

      .cls-3 {
        fill: #afaff9;
      }

      .cls-4 {
        fill: #bbfedb;
      }

      .cls-5, .cls-8 {
        fill: #fff;
      }

      .cls-6, .cls-7 {
        fill: none;
      }

      .cls-8 {
        stroke: #1d1d1b;
        stroke-miterlimit: 10;
      }

      .cls-7 {
        stroke: #fff;
        stroke-width: 8px;
      }
    </style>
  </defs>
  <rect class="cls-4" x="27.55" y="12.82" width="146.06" height="100.89" rx="13.66" ry="13.66"/>
  <path class="cls-5" d="m58.66,118.47s.28,2.42.28,2.83v.41l-.2.42-.08.17,1.45,2.03s5.81.09,5.94.09-.78-1.4-.78-1.4c0,0-1.92-1.45-2.27-2.46-.35-1.01.29-3.13.29-3.13l-4.63,1.06Z"/>
  <path class="cls-5" d="m30.67,104s-2.07,1.28-2.39,1.54l-.32.25-.2.42-.08.17-2.49.13s-3.68-4.5-3.76-4.6c-.08-.1,1.06.15,1.06.15,0,0,2.32.31,3.33-.05,1.01-.36,3.05-2.37,3.05-2.37l1.8,4.36Z"/>
  <path class="cls-5" d="m49.47,81.31l-22.28,18.98,3.43,4.86s22.9-14.22,24.09-14.38c1.2-.16,2.17.39,2.4,1.26.23.87.8,27.11.8,27.11h5.95l3.1-33.03-17.5-4.8Z"/>
  <path class="cls-8" d="m80.88,54.62c1.59-1.16,5.25-5.51,6.49-6.98,0-.17.08-1.13,1.07-2.41.7-.9,1.17-2.89,1.68-2.36.52.53-.62,2.16-.06,2.14.55-.02,3.15-3.25,3.62-2.77.47.48-2.19,3.37-1.69,3.36.5-.02,2.62-2.91,3.29-2.23.66.68-2.82,3.18-2.47,3.54.35.37,2.51-1.26,3.04-.71.53.55-3.05,2.09-2.76,2.08.29,0,2.39-.17,2.43.23.04.46-5.27,1.44-5.88,2.26h0c-1.28,2.29-3.57,6.48-5.99,8.39-2.97,2.33-9.85,7.32-9.85,7.32l-3.76-4.39s8.96-6.08,10.85-7.46Z"/>
  <g>
    <path class="cls-5" d="m48.9,49.24c-1.31-1.47-3.96-6.5-4.86-8.21.03-.16.16-1.12-.54-2.58-.49-1.03-.52-3.08-1.14-2.66s.14,2.24-.39,2.1c-.54-.14-2.39-3.84-2.95-3.47-.56.37,1.42,3.76.94,3.64-.48-.12-1.94-3.41-2.74-2.88-.79.53,2.08,3.71,1.66,3.99-.42.28-2.18-1.77-2.82-1.34-.64.42,2.53,2.69,2.25,2.62-.28-.07-2.3-.68-2.42-.29-.14.44,4.84,2.53,5.26,3.46h0c.77,2.51,2.11,7.09,4.07,9.47,2.41,2.91,8.07,9.24,8.07,9.24l4.61-3.49s-7.46-7.85-9.01-9.6Z"/>
    <path class="cls-5" d="m41.72,38.85c-.2.23-.34.49-.43.77,0,.05-.38.94.22,1.85-.15-.65-.32-1.38.21-2.63Z"/>
  </g>
  <path class="cls-1" d="m52.64,52.62l-4.16,5.43,5.16,7.68s-.49,5.71-1.23,7.49c-.74,1.78-5.05,9.1-5.05,9.1,0,0,10.46,6.41,20.69,5.47,0,0,2.88-14.83,3.69-16.26.81-1.43,8.61-8.48,8.61-8.48l-3.79-6.12-6.54,3.63s-11.96-1.93-12.53-2.51c-.58-.58-4.86-5.43-4.86-5.43Z"/>
  <path class="cls-5" d="m71.21,44.59s-.52-4.92-5.07-3.06c0,0-4.04-2.14-5.42,1.4,0,0-3.63-.37-3,3.39,0,0-3.65,1.83-1.34,6.57,0,0-1.01,4.45,4.19,4.72,0,0,.78,1.58,3.16,1.21,2.37-.37,2.97-.99,2.97-.99,0,0,4.21,1.23,5.49-2.57,0,0,2.89-.69.95-4.41,0,0,2.52-4.8-1.93-6.26Zm-1.21,8.18c-.33.91-1.09,1.48-1.71,1.25-.15-.06-.3-.17-.4-.32-.51.95-1.27,1.81-2.38,2.46-4.09,2.4-7.08-1.21-7.12-4.72-.12.07-.26.1-.41.09-.66-.03-1.15-.84-1.11-1.81.05-.97.61-1.74,1.27-1.71.24.01.46.14.66.33.44-1.68,1.28-3.23,2.67-4.05,0,0,1.76,4.08,7.05,3.61.19.85.29,1.85.18,2.89.26-.13.53-.16.78-.07.61.22.84,1.14.51,2.06Z"/>
  <path class="cls-5" d="m70,52.76c-.33.91-1.09,1.48-1.71,1.25-.15-.06-.3-.17-.4-.32-.51.95-1.27,1.81-2.38,2.46-4.09,2.4-7.08-1.21-7.12-4.72-.12.07-.26.1-.41.09-.66-.03-1.15-.84-1.11-1.81.05-.97.61-1.74,1.27-1.71.24.01.46.14.66.33.44-1.68,1.28-3.23,2.67-4.05,0,0,1.76,4.08,7.05,3.61.19.85.29,1.85.18,2.89.26-.13.53-.16.78-.07.61.22.84,1.14.51,2.06Z"/>
  <path class="cls-5" d="m61.49,56.14c0,.06-.52,2.32-.8,3.51-.1.44.12.9.54,1.09,1.11.51,3.29,1.21,4.8-.15.14-.12.21-.3.21-.49l-.19-5.38-4.56,1.42Z"/>
  <path class="cls-5" d="m70,52.76c-.33.91-1.09,1.48-1.71,1.25-.15-.06-.3-.17-.4-.32-.51.95-1.27,1.81-2.38,2.46-4.09,2.4-7.08-1.21-7.12-4.72-.12.07-.26.1-.41.09-.66-.03-1.15-.84-1.11-1.81.05-.97.61-1.74,1.27-1.71.24.01.46.14.66.33.44-1.68,1.28-3.23,2.67-4.05,0,0,1.76,4.08,7.05,3.61.19.85.29,1.85.18,2.89.26-.13.53-.16.78-.07.61.22.84,1.14.51,2.06Z"/>
  <path class="cls-5" d="m57.61,125.81c-.89-.11.65-3.19,1.14-3.68l6.53.88s3.14,1.46,3.89,2.2c.18.18.2.49-.57.6-2.46.37-9.02.25-10.98,0Z"/>
  <path class="cls-5" d="m25.52,109.44c.77.46,2.16-2.54,2.24-3.23l-5.27-4.15s-4.07-1.17-4.89-.35c-.75.74,6.18,6.68,7.92,7.72Z"/>
  <path class="cls-5" d="m139.16,16.55h0c-.09-.04-.72-.31-.95-1.41-.24-1.19-.74-1.13-.61-2.3.14-1.1,1.2-.45,1.32-.36"/>
  <path class="cls-5" d="m128.54,117.55l.91-.67.67-5.84s5.17.82,5.17.9c0,.07-.52,5.47-.52,5.47l.37,1.5-3.82.3-2.17-.52-.61-1.13Z"/>
  <polygon class="cls-5" points="154.69 119.02 154.92 113.35 148.99 113.28 150.08 118.77 152.03 120.6 154.69 119.02"/>
  <path class="cls-5" d="m147.92,122.76c.15-.48,1.74-3.3,2.13-4,.78.33,1.53.52,2.38.52.78,0,1.64-.07,2.26-.54.4.56.88,1.32,1.25,1.94.33.56.8,1.15,1.03,1.77.24.63.13,1.36-.37,1.78-1.67,1.38-6.36,1.72-8.38.19-.6-.46-.41-1.33-.3-1.65Z"/>
  <path class="cls-5" d="m122.2,122.69c.96.17,1.99.09,2.96.09,2.78,0,5.56-.13,8.34-.27.44-.02.9-.05,1.3-.23.32-.14.59-.38.78-.67.11-.18.2-.38.22-.59,0-.07.01-.15,0-.22-.02-.29-.13-.58-.24-.86-.2-.51-.29-.88-.49-1.39-2.21,0-4.4-.41-6.53-.99-.21.11-.43.22-.64.32l-3.69,1.86c-.5.25-1,.5-1.5.75-.12.06-.24.12-.36.18-.35.18-.85.29-1.11.61-.06.07-.11.16-.13.26-.21.74.48,1.05,1.08,1.15Z"/>
  <path class="cls-5" d="m129.08,114.11s1.88.76,4.12,1.09c2.23.31,2.4.04,2.4.04l4.07-26.89s1.15-2.95,2.67-6.95c.12-.31.24-.63.36-.96.53-1.36,1.09-2.82,1.65-4.29-.06,4.35-.11,8.67-.16,12.84l4.58,27.53c1.78.64,1.91.61,3.83.61,1.77,0,1.76-.04,3.37-.68-.72-9.58-2.01-27.22-2.01-27.22,0,0,4.02-18.62,3.05-28.27-.47-4.66-2.54-8.46-3.97-11.01-.9.75-2.4,1.37-3.51,1.64-1.85.46-2.6.53-4.46.46-.29-.03-.6-.05-.86-.08-2.69-.3-4.41-.61-4.41-.61,0,0-3.74,8.29-5.24,13.26-1.5,4.94-3.89,24.18-3.89,24.18l-1.57,25.31Z"/>
  <path class="cls-5" d="m141.23,26.13c.26.12.54.21.81.27,2.3.55,4.91-.43,5.8-.8l-.27-3.9-.03-.44-6.04-1.16-.16,1.25-.51,4.25c.03.08.05.17.08.23.02.05.03.1.05.14.01.02.01.04.02.06h.01l.23.11Z"/>
  <g>
    <path class="cls-5" d="m125.98,64.96c-.02.19-.02.38-.01.57,0,.51.04,1.02.04,1.53,0,.22,0,.44-.06.66s-.2.41-.39.51-.47.06-.6-.11c-.12-.15-.12-.36-.11-.56,0-.25.02-.51.03-.76.01-.34.02-.69.05-1.03.06-.7.19-1.42.62-1.97.14-.17.8-.62.8-.11,0,.19-.16.41-.21.6-.07.22-.12.45-.14.68Z"/>
    <path class="cls-5" d="m125.58,65.29c-.02.19-.02.38-.01.57,0,.51.04,1.02.04,1.53,0,.22,0,.44-.06.66s-.2.41-.39.51-.47.06-.6-.11c-.12-.15-.12-.36-.11-.56,0-.25.02-.51.03-.76.01-.34.02-.69.05-1.03.06-.7.19-1.42.62-1.97.14-.17.8-.62.8-.11,0,.19-.16.41-.21.6-.07.22-.12.45-.14.68Z"/>
    <path class="cls-5" d="m130.57,58.26c-.06-.29-.95-.52-1.35-1.09-1.25.73-3.36,4.74-3.88,5.8-.35.72-.72,1.46-.87,2.24-.16.83-.19,1.68-.23,2.53,0,.13-.01.27.03.39.08.23.37.37.58.22.45-.34.48-1.04.52-1.55.04-.48.05-.96.17-1.43.12-.46.36-.83.66-1.19.22-.26,1.33-1.72,1.44-1.61.12.12.49.75.46.89-.04.17-.11.33-.18.48-.13.27-.29.53-.34.83,0,.05-.01.1-.02.15-.02.55.52,1.2.99.61.1-.13.17-.28.24-.42.33-.7.8-1.33,1-2.08.13-.48.2-.97.27-1.45.27-1.84.69-2.46.51-3.32Z"/>
    <path class="cls-5" d="m127.13,63.13c.07-.1.14-.19.21-.28.13-.16.29-.3.49-.37.19-.07.44-.03.57.12.11.13.13.32.11.49-.06.42-.34.77-.59,1.11-.13.18-.25.36-.33.56.05-.29.21-.56.34-.83.08-.16.15-.31.18-.48.03-.14.09-.33-.03-.45-.11-.11-.34-.13-.48-.11-.17.03-.33.11-.46.23Z"/>
  </g>
  <path class="cls-6" d="m144.89,5.81s0,1.03.37,1.72h0"/>
  <path class="cls-6" d="m146.88,7.96c.81-.47,1.36-1.66,1.36-1.66"/>
  <path class="cls-5" d="m149.44,17.39h0c.09-.02.76-.19,1.15-1.25.42-1.13.91-1,.95-2.18.03-1.11-1.12-.63-1.24-.56"/>
  <path class="cls-6" d="m140.05,7.27s.79.47,1.68.63"/>
  <path class="cls-5" d="m148.55,8.47c-.51.03-1.09-.09-1.68-.5-.24.15-.5.22-.78.19-.39-.04-.65-.3-.83-.62,0,0-.02.02-.03.02-.11.1-.81.72-1.68-.12-.45.54-1.17.6-1.83.47-.4.31-.94.27-.94.27-.03.04-.07.1-.09.14-1.62,2.29-1.78,3.85-1.8,4.02-.1-.41-.17-.8-.23-1.17.09.69.22,1.18.25,1.29h0s0,.03,0,.03h0c-.02.65-.03,2.33.24,4.07.22,1.45.66,2.94,1.45,3.89,1.83,2.23,3.03,2.28,3.2,2.26.18.04,1.44.23,3.61-1.7.93-.82,1.59-2.23,2.04-3.62.53-1.68.78-3.34.86-3.99h0c.01-.07.02-.15.02-.23-.02.06-.05.1-.05.1.02-.27.02-.54.02-.8-.18-1.35-1.41-3.58-1.55-3.97l-.18-.03Z"/>
  <path class="cls-6" d="m150.29,12.47c.04.25.05.49.03.7"/>
  <path class="cls-6" d="m150.3,13.4s0,0,.01-.02h0c.06-.14.35-.79.55-1.69v-.03c.4-1.8.42-4.51-2.57-5.73,0,0-.19-.99-1.45-.83,0,0-1.46-1.6-3.23-.29-1.22-.35-1.56.6-1.56.6-3.38.79-3.59,3.84-3.4,5.66,0,.04.01.07.01.09"/>
  <path class="cls-6" d="m140.66,8.5s-1.74,2.53-1.74,3.98"/>
  <path class="cls-6" d="m150.34,13.13h0s0,.12-.03.25h0s0,.03,0,.03"/>
  <path class="cls-6" d="m138.92,12.48v-.02"/>
  <path class="cls-6" d="m138.93,12.2s0,.09-.01.25"/>
  <path class="cls-6" d="m142.84,6.43c.22.41.44.72.65.93.03.03.04.06.07.07"/>
  <path class="cls-6" d="m145.24,7.55l.02-.02"/>
  <line class="cls-5" x1="144.35" y1="76.14" x2="144.62" y2="64.36"/>
  <path class="cls-1" d="m156.82,42.66c-.88-.93-1.7-1.91-2.45-2.93-.04.44-.02,1.39.04,2.59.1,2.42.32,5.85.46,8.03-.52.75-1,1.54-1.45,2.32-.28.49-.32,1.09-.1,1.6.03.07.06.15.1.22-.04.02-.07.03-.11.04-4.2,1.34-8.77,1.5-13.06.51-.87-.2-1.78-.48-2.32-1.23-.09-.13-.18-.26-.24-.41-1.11,1.4-2.3,2.76-3.56,4.04-1.08,1.09-2.75,1.33-4.1.61-1.01-.54-1.58-1.57-1.58-2.62,0-.5.13-1.01.4-1.48.75-1.29,1.54-2.5,2.41-3.75.48-.68,1.37-1.84,1.86-2.47.21-.27.32-.63.3-.98-.15-2.42-1.4-13.01,1.56-17.04.1-.14.18-.3.29-.43,1.26-1.28,3.79-2.82,5.38-3.45.11.07.21.13.32.19h.01l.23.11c.26.12.54.21.81.27,2.3.55,4.91-.43,5.8-.8.21-.09.31-.15.31-.15,1.44.19,2.86.5,4.24.96,1.51.51,2.83,1.11,4.08,2.1,1.26,1.03,2.39,2.22,3.45,3.45.52.6,1.02,1.2,1.52,1.82.24.29.49.59.73.89"/>
  <path class="cls-5" d="m140.66,25.84c.11.07.21.13.32.19h.01c.08.04.16.08.23.11.26.12.54.21.81.27l-.86-.35-.22-.09-.3-.13Z"/>
  <path class="cls-6" d="m136.05,39.79c.05,1.4.9,10.26,1.14,11.65.14.81.26,1.69.75,2.38.54.75,1.45,1.04,2.32,1.23"/>
  <path class="cls-5" d="m144.8,59.4s2.85-1.35,2.85-1.35c.42-.2.86-.37,1.27-.58.21-.11.41-.23.6-.37.17-.13.4-.31.08-.35-.21-.03-.43,0-.64.03-.33.02-.69.05-1.01-.03-.18-.05-.36-.15-.43-.33-.09-.22.03-.49.21-.64,0,0,.01-.01.02-.02.2-.15.46-.2.71-.25.79-.14,1.62-.19,2.4-.38.45-.11.85-.31,1.32-.38.38-.06.76-.07,1.15-.06l.51-.57s-.03-.04-.03-.04c.16-.18.32-.36.47-.54.65,1.02,1.29,2.03,1.94,3.05-.41.32-.66.51-.67.5,0,0,0,0,0-.02-.28,1.42-1.28,2.89-2.44,3.61-.12.07-.24.14-.34.24-.08.08-.13.17-.19.26-.32.54-.62,1.1-.89,1.66-.17.35-.39,1.2-.89,1.21-.34,0-.58-.37-.43-.67.28-.55.56-1.09.85-1.63.11-.2.24-.39.32-.61.03-.07.11-.23.07-.3-.21-.38-.74.33-.87.48-.25.29-.5.57-.75.85-.36.4-.72.8-1.09,1.19-.23.25-.52.72-.93.55-.28-.12-.37-.5-.16-.72.12-.12.23-.25.35-.37.02-.05.05-.09.08-.13.39-.45.77-.91,1.14-1.38.18-.24.37-.47.55-.71.08-.1.53-.46.37-.61-.18-.17-.67.36-.8.44-.36.24-.72.49-1.09.73-.49.33-.96.67-1.44.99-.3.2-.82.7-1.18.36-.19-.18-.18-.52.02-.69.02-.03.04-.05.07-.08.61-.59,1.3-1.1,1.97-1.61.33-.25.66-.51.98-.77.17-.14.33-.28.48-.43.06-.06.26-.18.18-.29-.08-.1-.3,0-.38.03-.22.08-.42.25-.64.33-.38.13-.75.27-1.13.41-.52.19-1.05.39-1.57.58-.31.12-.78.46-1.1.17-.23-.2-.18-.64.1-.77Z"/>
  <path class="cls-1" d="m156.82,42.66c.77.82,1.58,1.6,2.39,2.38-1.65,1.73-3.1,3.49-4.33,5.32-.52.75-1,1.54-1.45,2.32-.28.49-.32,1.09-.1,1.6.03.07.06.15.1.22.33.78.7,1.55,1.15,2.28.36.6,1.12.82,1.75.53,2.26-1.05,4.37-2.46,6.29-4.02,1.61-1.32,3.26-2.76,4.26-4.62,1.67-3.11.42-6.66-1.31-9.45-.99-1.6-2.19-3.08-3.39-4.54"/>
  <line class="cls-6" x1="159.21" y1="45.04" x2="162.17" y2="42.41"/>
  <line class="cls-2" x1="143.52" y1="26.4" x2="144.34" y2="55.44"/>
  <line class="cls-2" x1="144.95" y1="29.67" x2="141.77" y2="29.67"/>
  <path class="cls-5" d="m103.69,55.5c8.03,1.07,5.14-8.37,4.37-9.63-.78-1.25.09-1.01-1.51-3.52-1.6-2.5-4.07-1.61-4.07-1.61-1.3-.6-5.86-.7-6.94,1.8-1.08,2.5-2.1,3.91-3.3,6.26,0,0-2.36,5.9,6.49,7.76"/>
  <path class="cls-5" d="m112.3,48.23s-.92-.44-1.76-1.99c-.54-1-2.13-2.27-1.47-2.48.66-.21,1.68,1.48,1.87.99.19-.48-1.71-4.13-1.11-4.31.6-.19,2.18,3.36,2.35,2.93.17-.43-1.61-3.53-.76-3.79.85-.26,1.77,3.81,2.23,3.67.46-.14-.21-3.25.48-3.46.69-.21.59,3.85.84,3.73.13-.06.74-2.03,1.11-1.88.42.17-.72,4.2-.21,5.09.5.89,4.54,11.95,3.16,13.33-1.5,1.5-11.08,4.96-13.08,4.36-2-.59-3.15-2.57-2.67-3.79.48-1.22,9.95-3.95,10.1-4.34.15-.38-1.08-8.05-1.08-8.05Z"/>
  <path class="cls-5" d="m120.45,111.51s1.85,7.55,3.23,8.74c1.38,1.19,5.88,3.45,4.7,3.7-1.18.24-9.89.45-9.66-1.01.24-1.45.49-2.38.49-2.38l-2.31-5.39,3.54-3.65Z"/>
  <path class="cls-5" d="m100.13,117.84s-.19,1.91-.19,2.75.78,3.22.42,3.58c-.36.36-10.75.32-10.75-.02s1.83-1.38,4.33-2.09c2.49-.71,3.34-3.47,2.69-5.06l3.5.84Z"/>
  <path class="cls-5" d="m111.4,85.91l1.86,1.65s2.1,5.68,2.22,6.05c.17.52,6.96,22.4,6.96,22.4l-4.73,1.7s-4.69-9.14-5.47-12.31c-.78-3.17-8.55-16.45-8.55-16.45l7.71-3.04Z"/>
  <path class="cls-5" d="m103.17,89.28l-2.27,29h-5.25s-1.88-21.7-1.23-29.33l8.74.32Z"/>
  <path class="cls-1" d="m93.97,60.07s3.34-.87,7.12-1.08c1.96-.11,4.6.31,4.6.31,0,0,2.4,5.38,3.11,9.78.71,4.4,4.6,18.52,4.6,18.52,0,0-7.9,6.09-19.43,2.07v-29.6Z"/>
  <path class="cls-5" d="m102.96,55.25s-.1,3.44.22,3.76c.32.32.77.86.3,1.68-.48.82-2.54.3-3.5-.17-.92-.45-1.52-1.29-1.52-1.29l.48-5.45,4.02,1.47Z"/>
  <path class="cls-5" d="m105.5,53.57c-1.64,2.98-3.73,2.24-4.6,1.95-.86-.31-2.56-.97-3.43-3.76-.07-.25-.14-.51-.18-.81-.06.33-.25.62-.67.67-1.02.1-1.98-2.95-.74-3.34.81-.26,1.13.49,1.26,1.06,0-2.94,1.25-6.47,5-6.03,0,0,1.94-.04,2.93,1.46.99,1.52,2.07,5.83.43,8.81Z"/>
  <path class="cls-5" d="m93.97,60.07s-1.51.13-1.68,3.08c-.07,1.16-3.03,18.02,1.75,21.89l-.06-24.97Z"/>
  <line class="cls-3" x1="95.35" y1="121.36" x2="99.99" y2="120.6"/>
  <line class="cls-3" x1="119.29" y1="120.56" x2="123.05" y2="119.22"/>
  <rect class="cls-7" x="-365.06" y="-326.12" width="1466.44" height="999.05"/>
</svg>