<?xml version="1.0" encoding="UTF-8"?>
<svg id="Calque_1" data-name="Calque 1" xmlns="http://www.w3.org/2000/svg" viewBox="0 0 200.13 128.13">
  <defs>
    <style>
      .cls-1 {
        fill: #d6d6d6;
      }

      .cls-1, .cls-2, .cls-3, .cls-4, .cls-5, .cls-6, .cls-7, .cls-8, .cls-9 {
        stroke: #000;
      }

      .cls-1, .cls-2, .cls-3, .cls-4, .cls-5, .cls-6, .cls-7, .cls-8, .cls-9, .cls-10 {
        stroke-linecap: round;
        stroke-linejoin: round;
      }

      .cls-2 {
        fill: #afaff9;
      }

      .cls-3 {
        fill: #87f3b9;
      }

      .cls-4 {
        fill: #8987f3;
      }

      .cls-5 {
        fill: #87ccf3;
      }

      .cls-6 {
        fill: #fce9b9;
      }

      .cls-7 {
        fill: #f3d587;
      }

      .cls-8, .cls-11 {
        fill: #fff;
      }

      .cls-9, .cls-10 {
        fill: none;
      }

      .cls-11 {
        stroke: #1d1d1b;
        stroke-miterlimit: 10;
      }

      .cls-10 {
        stroke: #fff;
        stroke-width: 8px;
      }
    </style>
  </defs>
  <path class="cls-6" d="m198.19,62.15c0,28.73-23.31,52.03-52.04,52.03-20.02,0-37.39-11.3-46.09-27.87,3.8-7.22,5.94-15.44,5.94-24.16s-2.14-16.95-5.94-24.17c8.7-16.58,26.08-27.87,46.09-27.87,28.73,0,52.04,23.3,52.04,52.04Z"/>
  <path class="cls-3" d="m106,62.15c0,8.72-2.14,16.94-5.94,24.16-3.81-7.22-5.95-15.44-5.95-24.16s2.14-16.95,5.95-24.17c3.8,7.22,5.94,15.44,5.94,24.17Z"/>
  <path class="cls-5" d="m94.11,62.15c0,8.72,2.14,16.94,5.95,24.16-8.7,16.57-26.08,27.87-46.09,27.87C25.23,114.18,1.94,90.88,1.94,62.15S25.23,10.11,53.97,10.11c20.01,0,37.38,11.29,46.09,27.87-3.81,7.22-5.95,15.44-5.95,24.17Z"/>
  <g>
    <path class="cls-8" d="m42.38,115.58s-.27,2.32-.27,2.71v.39s.19.4.19.4l.08.16-1.39,1.95s-5.57.08-5.7.08.75-1.35.75-1.35c0,0,1.84-1.39,2.18-2.36.33-.97-.28-3-.28-3l4.45,1.02Z"/>
    <path class="cls-8" d="m69.25,101.69s1.99,1.23,2.29,1.48l.31.24.19.4.08.16,2.39.12s3.53-4.31,3.61-4.41c.08-.1-1.02.15-1.02.15,0,0-2.23.3-3.2-.04-.97-.35-2.93-2.28-2.93-2.28l-1.73,4.18Z"/>
    <path class="cls-8" d="m51.21,79.92l21.38,18.21-3.29,4.66s-21.97-13.64-23.12-13.8c-1.15-.16-2.08.37-2.3,1.21-.22.84-.77,26.02-.77,26.02h-5.71s-2.98-31.7-2.98-31.7l16.79-4.61Z"/>
    <path class="cls-11" d="m21.06,54.3c-1.53-1.12-5.04-5.28-6.23-6.7,0-.16-.08-1.09-1.03-2.31-.67-.86-1.12-2.78-1.61-2.27-.5.51.59,2.07.06,2.05-.53-.02-3.02-3.12-3.47-2.65-.45.46,2.1,3.24,1.62,3.22-.48-.02-2.52-2.8-3.15-2.14-.63.66,2.71,3.05,2.37,3.4-.34.35-2.41-1.21-2.92-.69-.51.53,2.93,2,2.64,1.99-.28,0-2.3-.16-2.33.22-.04.44,5.05,1.38,5.64,2.17h0c1.23,2.2,3.42,6.22,5.75,8.05,2.85,2.24,9.46,7.02,9.46,7.02l3.61-4.21s-8.6-5.84-10.41-7.16Z"/>
    <path class="cls-8" d="m51.75,49.14c1.26-1.41,3.8-6.24,4.66-7.88-.03-.16-.15-1.08.52-2.48.47-.99.5-2.95,1.09-2.56s-.14,2.15.38,2.02c.52-.13,2.29-3.69,2.83-3.33.54.36-1.36,3.61-.9,3.49.46-.12,1.87-3.27,2.63-2.76.76.51-2,3.56-1.59,3.83.41.27,2.09-1.7,2.71-1.29.61.41-2.43,2.58-2.16,2.51.27-.07,2.21-.65,2.33-.28.13.42-4.64,2.42-5.05,3.32h0c-.74,2.41-2.02,6.8-3.91,9.09-2.31,2.8-7.75,8.87-7.75,8.87l-4.43-3.35s7.16-7.53,8.65-9.21Z"/>
    <path class="cls-8" d="m43.18,61.4h0c-.64-.96-1.75-1.51-2.91-1.43-3.4.23-10.28.78-10.93,1.43-.87.87-3.48,6.55-.99,14.5,2.49,7.96,3.85,7.13,5.88,7.13s11.6-4.52,11.6-4.52l-2.65-17.11Z"/>
    <path class="cls-4" d="m48.16,52.38l3.99,5.21-4.96,7.37s.47,5.48,1.18,7.19c.71,1.71,4.85,8.73,4.85,8.73,0,0-10.04,6.15-19.86,5.25,0,0-2.77-14.23-3.54-15.6-.78-1.37-8.27-8.14-8.27-8.14l3.64-5.87,6.28,3.48s11.48-1.85,12.03-2.41c.55-.55,4.66-5.21,4.66-5.21Z"/>
    <path class="cls-8" d="m28.49,50.68c-1.86,3.57.91,4.23.91,4.23,1.23,3.65,5.27,2.47,5.27,2.47,0,0,.58.6,2.85.95,2.28.35,3.03-1.16,3.03-1.16,4.99-.27,4.02-4.53,4.02-4.53,2.21-4.54-1.29-6.3-1.29-6.3.6-3.61-2.88-3.25-2.88-3.25-1.33-3.4-5.2-1.35-5.2-1.35-4.37-1.78-4.87,2.94-4.87,2.94-4.27,1.4-1.85,6.01-1.85,6.01Zm3.5-.14c.24-.09.5-.06.75.07-.1-.99,0-1.96.18-2.77,5.07.45,6.76-3.46,6.76-3.46,1.34.79,2.14,2.27,2.57,3.88.19-.18.4-.3.63-.31.63-.03,1.17.71,1.22,1.64.04.93-.43,1.71-1.06,1.74-.15,0-.28-.02-.39-.09-.04,3.37-2.91,6.83-6.83,4.53-1.06-.62-1.79-1.45-2.28-2.36-.1.14-.24.25-.38.3-.6.22-1.33-.32-1.64-1.2-.31-.89-.1-1.77.49-1.98Z"/>
    <path class="cls-8" d="m31.5,52.52c.31.87,1.04,1.42,1.64,1.2.15-.06.28-.17.38-.3.49.91,1.22,1.74,2.28,2.36,3.92,2.3,6.79-1.16,6.83-4.53.12.07.25.1.39.09.63-.03,1.1-.81,1.06-1.74-.05-.93-.59-1.67-1.22-1.64-.23,0-.44.14-.63.31-.42-1.61-1.23-3.1-2.57-3.88,0,0-1.69,3.91-6.76,3.46-.19.82-.28,1.78-.18,2.77-.25-.13-.51-.16-.75-.07-.59.21-.81,1.09-.49,1.98Z"/>
    <path class="cls-8" d="m39.67,55.76c0,.06.5,2.22.77,3.37.1.43-.12.86-.51,1.04-1.07.49-3.16,1.17-4.61-.15-.13-.12-.2-.29-.2-.47l.18-5.16,4.37,1.37Z"/>
    <path class="cls-8" d="m31.5,52.52c.31.87,1.04,1.42,1.64,1.2.15-.06.28-.17.38-.3.49.91,1.22,1.74,2.28,2.36,3.92,2.3,6.79-1.16,6.83-4.53.12.07.25.1.39.09.63-.03,1.1-.81,1.06-1.74-.05-.93-.59-1.67-1.22-1.64-.23,0-.44.14-.63.31-.42-1.61-1.23-3.1-2.57-3.88,0,0-1.69,3.91-6.76,3.46-.19.82-.28,1.78-.18,2.77-.25-.13-.51-.16-.75-.07-.59.21-.81,1.09-.49,1.98Z"/>
    <path class="cls-8" d="m43.1,57.77c1.84,1.39,3.77,8.54,4.5,10.4l.59,3.42-7.5-13.25s2.01-.88,2.41-.58Z"/>
    <path class="cls-8" d="m33.99,59.58s.22,8.8-.44,11.83c-.66,3.03-2.4,4.08-2.4,4.08l-.85-3.52s.85-7.77,1.17-11.97c.05-.64,2.52-.42,2.52-.42Z"/>
    <path class="cls-8" d="m43.4,122.62c.85-.11-.62-3.06-1.09-3.53l-6.26.84s-3.01,1.4-3.73,2.11c-.17.17-.19.47.54.58,2.36.35,8.65.24,10.54,0Z"/>
    <path class="cls-8" d="m74.19,106.91c-.74.44-2.07-2.43-2.15-3.1l5.06-3.98s3.9-1.12,4.69-.33c.72.71-5.93,6.41-7.6,7.41Z"/>
  </g>
  <path class="cls-8" d="m81.94,11.49s-.01.06-.01.09c-.05.33-.11.69-.2,1.07-.02-.16-.16-1.58-1.65-3.68-.02-.04-.06-.09-.09-.13,0,0-.49.03-.85-.25-.61.11-1.26.06-1.68-.44-.79.77-1.44.21-1.54.11-.01,0-.02-.01-.03-.01-.16.29-.4.53-.76.57-.25.03-.49-.04-.71-.18-.54.38-1.08.49-1.54.46l-.16.04c-.14.35-1.27,2.39-1.43,3.63-.01.24,0,.49.02.73,0,0-.02-.03-.05-.09,0,.08.01.15.02.21h-.01v-.02c-.05-.12-.32-.72-.5-1.54,0,0-.01-.02-.01-.03-.36-1.65-.38-4.14,2.36-5.24,0,0,.17-.91,1.33-.77,0,0,1.34-1.46,2.95-.26,1.13-.32,1.43.55,1.43.55,3.09.73,3.29,3.52,3.11,5.18Z"/>
  <g>
    <path class="cls-8" d="m85.53,118.39c-.13-.93.16-2.52.89-5.02-1.44,0-2.65-.63-4.12-.61-.4,2.35-1.02,6.2-1.02,6.2l-.07,3.05,10.23.08s-.09.04-3.1-1.86c-.22-.14-2.69-.94-2.81-1.83Z"/>
    <path class="cls-8" d="m81.16,122.79h10.57c.39-.04.49-.35.35-.55-.28-.4-2.34-1.38-3.73-2.02-2.43.26-6.7-.74-7.08-1.31-.67,1.86-.32,3.83-.11,3.88Z"/>
  </g>
  <g>
    <path class="cls-8" d="m72.78,118.39c-.13-.93-.35-2.09-.03-5.18-1.44,0-2.81-.27-4.28-.24,0,2.42.05,6,.05,6l-.07,3.05,10.23.08s-.09.04-3.1-1.86c-.22-.14-2.69-.94-2.81-1.83Z"/>
    <path class="cls-8" d="m68.41,122.79h10.57c.39-.04.49-.35.35-.55-.28-.4-2.34-1.38-3.73-2.02-2.43.26-6.7-.74-7.08-1.31-.67,1.86-.32,3.83-.11,3.88Z"/>
  </g>
  <path class="cls-8" d="m80.22,30.01l6.67-2.58s1.3.78,6.11,2.95c1.32-2.3,3.48-9.86,3.59-10.22.12-.36-2.52-4.9-1.93-5.02.59-.11,1.36,2.43,1.98,2.17.62-.26,2.23-6.15,2.61-5.83.7.6-.84,3.66-.47,3.89.37.22,1.31-3.39,2.03-3.24.72.15-1.21,3.29-1,3.6.21.3,2.22-2.64,2.64-1.96.23.37-1.86,2.56-1.43,2.81.43.25,2.3-1.14,2.53-.69.22.45-1.75.91-2.3,2.05-.55,1.13-1.54,1.57-1.88,3.72-.33,2.14-1.23,13.59-3.57,14.51-2.04.8-15.57-6.15-15.57-6.15Z"/>
  <path class="cls-8" d="m82.71,48.88l-3.12,4.78-10.67-3.1,15.68,39.52s-1.28,4.02-1.69,6.02c-.44,2.1-1.5,20.12-1.5,20.12l4.84.08s4.6-19.19,5.38-25.41c.95-7.56-4.81-25.57-4.81-25.57-1.07-3.67-1.31-14.06-1.31-14.06,0,0-2.65-2.05-2.78-2.37Z"/>
  <path class="cls-8" d="m67.41,53.46c-2.56,6.75-1.09,13.27-.4,16.63,0,0,1.9,14.54,2.24,19.97.13,1.96-.73,5.49-1.16,7.88-.38,2.11-.25,17.77-.25,17.77l5.14.1,4.14-25.69,1.14-25.9"/>
  <line class="cls-8" x1="80.22" y1="51.25" x2="71.84" y2="48.27"/>
  <path class="cls-4" d="m87.77,61.97l-3.34-29.41c1.72.8,4.84,1.99,4.84,1.99l1.78-5.61c-6.27-3.57-10-3.49-12.49-3.69-1.49-.12-2.76-1.4-4.29-.98-5.8,1.58-8.54-1.06-13.72,12.92,0,0,3.94,1.77,5.36,2.34.61-1.73,1.7-5.18,2.34-3.21l-3.63,25.65s10.83,1.45,23.15,0Z"/>
  <path class="cls-8" d="m76.89,55.08c.07,0,.39-.03.65-.03.36,0,.68.06.68.06,0,0,.14-.12.41-.25.11-.05.3-.07.42-.13.13-.06.24-.17.36-.23.32-.14.61-.17.71,0,.08.14-1.7,1.23-1.7,1.23-1.65,0-3.37.85-7.19-1.64-2.18-.95-12.76-6.18-12.97-7.32-.12-.64,1.5-5.59,2.83-9.34,1.02.46,3.2,1.43,4.42,1.94-1.12,2.37-2.43,5.5-2.29,5.89.04.1.17.28,7.32,4.96.18.12.36.24.55.36.5.33,1.04.68,1.61,1.05l2.04-.21s3.23.22,3.33.59c.04.17-.23.25-.56.3h0s-.1.01-.15.02h0c-.36.04-.73.05-.82.08-.1.04-.31.12-.49.24,2.01.82,1.86.53,2.53.49.17-.01.35.04.5.02.27-.02.49-.18.7-.2.31-.02.56.13.61.18.07.07-.06.17-.32.29-1.56.67-2.84.42-3.26.52-.28.07.23.17,1.02.09.2-.02.46.05.72,0,.17-.04.33-.15.5-.19.16-.04.32-.04.45-.06.17-.03.42-.16.56-.18.52-.06.77.03.83.08.12.11-2.23,1.01-2.23,1.01,0,0-1.62.23-1.98.23,0,0-.22.1.21.16Z"/>
  <path class="cls-8" d="m81.49,16.51h0c.08-.03.66-.28.87-1.29.22-1.09.68-1.04.56-2.1-.13-1.01-1.1-.41-1.21-.33"/>
  <path class="cls-8" d="m79.6,25.28c-.24.11-.49.19-.74.25-2.11.5-4.5-.39-5.31-.73l.25-3.58.03-.4,5.53-1.07.14,1.15.47,3.89c-.03.07-.04.15-.07.22-.02.04-.03.09-.04.13,0,.02,0,.04-.02.05h0l-.21.1Z"/>
  <path class="cls-9" d="m76.25,6.67s0,.94-.34,1.57h0"/>
  <path class="cls-9" d="m74.42,8.64c-.74-.43-1.25-1.52-1.25-1.52"/>
  <path class="cls-8" d="m72.07,17.27h0c-.09-.02-.7-.18-1.05-1.14-.39-1.04-.83-.92-.87-1.99-.03-1.02,1.02-.58,1.14-.52"/>
  <path class="cls-9" d="m80.68,8s-.73.43-1.54.58"/>
  <path class="cls-8" d="m81.71,12.78c.02.6.03,2.14-.22,3.73-.2,1.33-.6,2.69-1.33,3.57-1.68,2.05-2.77,2.09-2.93,2.07-.17.04-1.32.22-3.31-1.55-.85-.76-1.45-2.05-1.86-3.32-.49-1.54-.72-3.06-.79-3.65h.01c-.01-.07-.02-.14-.02-.22.03.06.05.09.05.09-.02-.24-.03-.49-.02-.73.16-1.24,1.29-3.28,1.43-3.63l.16-.04c.46.03,1-.08,1.54-.46.22.14.46.21.71.18.36-.04.6-.28.76-.57.01,0,.02.01.03.01.1.1.75.66,1.54-.11.42.5,1.07.55,1.68.44.36.28.85.25.85.25.03.04.07.09.09.13,1.49,2.1,1.63,3.52,1.65,3.68.09-.38.15-.74.2-1.07-.08.63-.19,1.08-.22,1.18h0v.02Z"/>
  <path class="cls-9" d="m71.29,12.77c-.03.23-.04.45-.03.64"/>
  <path class="cls-9" d="m80.11,9.13s1.59,2.31,1.59,3.65"/>
  <path class="cls-9" d="m71.25,13.37h0s0,.11.03.23h0s0,.03,0,.03"/>
  <path class="cls-9" d="m81.71,12.78v-.02"/>
  <path class="cls-9" d="m81.7,12.52s0,.09,0,.23"/>
  <path class="cls-9" d="m78.12,7.23c-.2.37-.4.66-.59.85-.02.03-.04.05-.06.06"/>
  <path class="cls-9" d="m75.92,8.26l-.02-.02"/>
  <g>
    <path class="cls-8" d="m134.91,13.08v.03c-.19.86-.48,1.49-.53,1.61h0s-.01.03-.01.03c.01-.07.02-.14.02-.22-.03.06-.05.09-.05.09.02-.26.03-.52.02-.77-.17-1.29-1.35-3.44-1.49-3.8l-.18-.04c-.48.03-1.05-.09-1.61-.48-.23.14-.48.21-.75.18-.37-.03-.62-.29-.79-.6-.01,0-.02.02-.03.02-.11.1-.78.69-1.61-.12-.44.53-1.12.58-1.76.46-.38.29-.9.26-.9.26-.03.04-.07.1-.09.14-1.56,2.2-1.71,3.69-1.72,3.85-.06-.23-.11-.45-.15-.66-.02-.16-.05-.31-.07-.46,0-.02-.01-.05-.01-.09-.19-1.74.02-4.66,3.26-5.43,0,0,.32-.9,1.5-.57,1.69-1.26,3.09.28,3.09.28,1.21-.15,1.39.79,1.39.79,2.87,1.17,2.86,3.77,2.47,5.5Z"/>
    <path class="cls-8" d="m123.68,17.77h0c-.09-.03-.69-.3-.91-1.35-.23-1.14-.71-1.09-.58-2.2.14-1.06,1.15-.43,1.26-.35"/>
    <path class="cls-8" d="m113.49,114.7l.87-.64.65-5.61s4.96.79,4.96.86-.5,5.25-.5,5.25l.36,1.44-3.66.29-2.08-.5-.58-1.08Z"/>
    <polygon class="cls-8" points="138.58 116.1 138.8 110.67 133.11 110.6 134.16 115.86 136.03 117.62 138.58 116.1"/>
    <path class="cls-8" d="m132.08,119.7c.15-.46,1.67-3.16,2.04-3.84.74.32,1.47.5,2.29.5.74,0,1.57-.07,2.17-.52.38.53.84,1.27,1.2,1.86.32.54.76,1.1.99,1.7.23.61.13,1.31-.36,1.71-1.6,1.33-6.1,1.65-8.04.18-.58-.44-.39-1.27-.29-1.59Z"/>
    <path class="cls-8" d="m107.4,119.63c.92.16,1.91.09,2.84.09,2.67,0,5.34-.13,8-.26.42-.02.86-.04,1.25-.22.3-.14.57-.36.75-.65.11-.17.19-.37.21-.57,0-.07.01-.14,0-.21-.02-.28-.12-.56-.23-.83-.19-.49-.28-.85-.47-1.34-2.12,0-4.23-.39-6.27-.95-.2.1-.41.21-.61.31l-3.54,1.78c-.48.24-.96.48-1.44.72-.12.06-.23.12-.34.17-.34.17-.82.28-1.07.59-.06.07-.1.15-.13.25-.2.71.46,1,1.04,1.1Z"/>
    <path class="cls-8" d="m114,111.39s1.8.73,3.95,1.04c2.14.3,2.3.04,2.3.04l3.91-25.81s1.1-2.84,2.56-6.67c.11-.3.23-.6.35-.92.51-1.31,1.04-2.7,1.59-4.12-.06,4.18-.1,8.32-.15,12.32l4.39,26.42c1.71.61,1.83.58,3.67.58,1.7,0,1.69-.04,3.23-.65-.69-9.19-1.92-26.12-1.92-26.12,0,0,3.86-17.87,2.93-27.13-.45-4.47-2.44-8.12-3.81-10.56-.86.72-2.3,1.31-3.37,1.58-1.77.44-2.5.51-4.28.44-.28-.03-.57-.05-.83-.08-2.58-.29-4.23-.58-4.23-.58,0,0-3.59,7.95-5.03,12.72-1.44,4.74-3.74,23.21-3.74,23.21l-1.51,24.29Z"/>
    <path class="cls-8" d="m125.66,26.96c.25.11.52.2.78.26,2.21.53,4.71-.41,5.57-.77l-.26-3.75-.03-.42-5.79-1.12-.15,1.2-.49,4.07c.03.08.05.16.08.23.02.05.03.09.05.13,0,.02,0,.04.02.06h0l.23.1Z"/>
    <g>
      <path class="cls-8" d="m111.03,64.23c-.02.18-.02.36-.01.55,0,.49.04.98.04,1.47,0,.21,0,.43-.06.63s-.19.39-.38.49-.45.06-.58-.1c-.12-.15-.12-.35-.11-.54,0-.24.02-.49.03-.73.01-.33.02-.66.05-.99.05-.67.18-1.36.6-1.89.13-.17.76-.59.76-.11,0,.19-.15.39-.21.57-.07.21-.11.43-.13.65Z"/>
      <path class="cls-8" d="m110.65,64.54c-.02.18-.02.36-.01.55,0,.49.04.98.04,1.47,0,.21,0,.43-.06.63s-.19.39-.38.49-.45.06-.58-.1c-.12-.15-.12-.35-.11-.54,0-.24.02-.49.03-.73.01-.33.02-.66.05-.99.05-.67.18-1.36.6-1.89.13-.17.76-.59.76-.11,0,.19-.15.39-.21.57-.07.21-.11.43-.13.65Z"/>
      <path class="cls-8" d="m115.44,57.79c-.06-.28-.91-.49-1.29-1.04-1.2.7-3.23,4.55-3.73,5.57-.34.69-.69,1.4-.84,2.15-.16.8-.18,1.61-.22,2.43,0,.13-.01.26.03.38.07.22.36.36.55.21.43-.32.46-1,.5-1.49.04-.46.05-.92.16-1.37.11-.44.34-.8.64-1.14.21-.25,1.28-1.65,1.39-1.54.12.11.47.72.44.86-.03.16-.1.32-.18.46-.12.25-.28.51-.32.79,0,.05-.01.1-.02.14-.02.52.5,1.15.95.59.1-.12.16-.27.23-.41.32-.67.77-1.28.96-2,.12-.46.19-.93.26-1.4.26-1.77.66-2.36.49-3.19Z"/>
      <path class="cls-8" d="m112.14,62.47c.06-.09.13-.18.2-.26.13-.15.28-.29.47-.35.19-.06.42-.03.55.12.11.13.13.31.1.47-.06.4-.33.74-.57,1.07-.12.17-.24.35-.32.54.05-.28.2-.54.32-.79.07-.15.14-.3.18-.46.03-.14.09-.32-.02-.43-.11-.11-.32-.13-.46-.11-.17.02-.31.11-.44.22Z"/>
    </g>
    <path class="cls-9" d="m129.17,7.46s0,.99.36,1.65h0"/>
    <path class="cls-9" d="m131.08,9.53c.78-.45,1.31-1.59,1.31-1.59"/>
    <path class="cls-8" d="m133.55,18.57h0c.09-.02.73-.18,1.11-1.2.41-1.09.87-.96.91-2.09.03-1.06-1.07-.6-1.19-.54"/>
    <path class="cls-9" d="m124.53,8.86s.76.45,1.61.61"/>
    <path class="cls-8" d="m134.37,14.75h.01c-.08.62-.32,2.21-.83,3.82-.42,1.34-1.06,2.69-1.95,3.48-2.08,1.86-3.28,1.67-3.46,1.63-.17.02-1.31-.03-3.08-2.17-.76-.92-1.17-2.35-1.39-3.74-.26-1.67-.25-3.28-.23-3.9h.01s0,0-.01-.02h.01c-.02-.09-.1-.37-.17-.79.04.21.09.43.15.66.01-.16.16-1.65,1.72-3.85.02-.04.06-.1.09-.14,0,0,.52.03.9-.26.64.12,1.32.07,1.76-.46.83.81,1.5.22,1.61.12.01,0,.02,0,.03-.02.17.31.42.57.79.6.27.03.52-.04.75-.18.56.39,1.13.51,1.61.48l.18.04c.14.36,1.32,2.51,1.49,3.8.01.25,0,.51-.02.77,0,0,.02-.03.05-.09,0,.08-.01.15-.02.22Z"/>
    <path class="cls-9" d="m134.36,13.85c.03.24.04.47.03.67"/>
    <path class="cls-9" d="m125.12,10.04s-1.67,2.42-1.67,3.82"/>
    <path class="cls-9" d="m134.41,14.48h0s0,.12-.03.24h0s0,.03,0,.03"/>
    <path class="cls-9" d="m123.45,13.86v-.02"/>
    <path class="cls-9" d="m123.46,13.6s0,.09,0,.24"/>
    <path class="cls-9" d="m127.21,8.05c.21.39.42.69.62.89.02.03.04.06.07.07"/>
    <path class="cls-9" d="m129.51,9.13l.02-.02"/>
    <line class="cls-8" x1="128.66" y1="74.95" x2="128.92" y2="63.65"/>
    <path class="cls-7" d="m140.63,42.83c-.84-.89-1.63-1.83-2.35-2.81-.04.42-.02,1.33.04,2.49.09,2.32.31,5.61.44,7.71-.5.72-.96,1.47-1.39,2.23-.27.47-.31,1.04-.09,1.54.03.07.06.14.09.21-.04.02-.07.03-.1.04-4.03,1.29-8.41,1.44-12.53.49-.84-.19-1.71-.46-2.23-1.18-.08-.12-.17-.25-.23-.39-1.07,1.34-2.21,2.65-3.42,3.88-1.03,1.04-2.64,1.28-3.93.58-.97-.52-1.52-1.5-1.52-2.52,0-.48.12-.97.38-1.42.72-1.24,1.47-2.4,2.31-3.6.46-.66,1.31-1.77,1.78-2.37.21-.26.31-.6.29-.94-.14-2.32-1.34-12.49,1.49-16.36.1-.13.17-.29.28-.41,1.21-1.23,3.63-2.7,5.16-3.31.1.07.21.12.31.18h0l.23.1c.25.11.52.2.78.26,2.21.53,4.71-.41,5.57-.77.2-.08.3-.14.3-.14,1.38.18,2.74.48,4.07.92,1.45.49,2.71,1.06,3.92,2.02,1.21.99,2.29,2.13,3.31,3.31.5.57.98,1.15,1.46,1.75.23.28.47.56.7.85"/>
    <path class="cls-8" d="m125.12,26.68c.1.07.21.12.31.18h0c.08.04.15.08.23.1.25.11.52.2.78.26l-.83-.34-.21-.08-.29-.12Z"/>
    <path class="cls-9" d="m120.7,40.07c.05,1.34.86,9.85,1.09,11.18.13.78.25,1.62.72,2.28.52.72,1.39,1,2.23,1.18"/>
    <path class="cls-8" d="m129.09,58.89s2.74-1.3,2.74-1.3c.4-.19.82-.35,1.22-.56.2-.11.4-.22.58-.36.16-.12.38-.29.08-.33-.2-.03-.42,0-.62.03-.31.02-.66.05-.97-.03-.17-.04-.34-.15-.41-.31-.09-.22.02-.47.21-.62,0,0,.01-.01.02-.02.19-.14.44-.2.68-.24.76-.14,1.56-.18,2.31-.37.43-.11.82-.3,1.26-.36.36-.05.73-.07,1.1-.06l.49-.55s-.02-.04-.02-.04c.15-.17.3-.34.46-.52.62.98,1.24,1.95,1.86,2.93-.39.3-.64.49-.64.48,0,0,0,0,0-.01-.27,1.36-1.23,2.77-2.35,3.47-.11.07-.23.14-.32.23-.07.07-.12.16-.18.25-.31.52-.59,1.05-.86,1.6-.17.34-.38,1.15-.85,1.16-.33,0-.56-.35-.41-.64.27-.53.54-1.05.82-1.57.1-.19.23-.38.31-.58.03-.06.1-.22.06-.29-.2-.36-.71.32-.83.46-.24.27-.48.55-.72.82-.34.38-.69.76-1.04,1.14-.22.24-.5.69-.89.53-.27-.12-.35-.48-.15-.69.11-.12.22-.24.34-.36.02-.04.04-.09.08-.13.38-.43.74-.88,1.09-1.33.18-.23.35-.45.52-.68.07-.1.51-.45.36-.59-.17-.16-.65.34-.77.43-.35.23-.7.47-1.04.7-.47.31-.92.64-1.39.95-.29.19-.78.68-1.13.35-.19-.17-.18-.5.02-.67.02-.02.04-.05.06-.07.59-.57,1.24-1.05,1.89-1.55.32-.24.64-.48.94-.74.16-.13.31-.27.47-.41.06-.06.25-.17.17-.27-.07-.1-.29,0-.37.03-.21.08-.41.24-.62.31-.36.13-.72.26-1.08.39-.5.19-1,.37-1.51.56-.3.11-.75.44-1.05.16-.22-.19-.17-.62.1-.74Z"/>
    <path class="cls-7" d="m140.63,42.83c.74.79,1.51,1.54,2.29,2.28-1.59,1.66-2.98,3.35-4.16,5.11-.5.72-.96,1.47-1.39,2.23-.27.47-.31,1.04-.09,1.54.03.07.06.14.09.21.32.75.68,1.48,1.11,2.19.35.57,1.07.79,1.68.51,2.17-1,4.2-2.36,6.04-3.86,1.55-1.27,3.13-2.65,4.08-4.43,1.61-2.99.4-6.39-1.26-9.07-.95-1.54-2.1-2.96-3.26-4.36"/>
    <line class="cls-9" x1="142.92" y1="45.11" x2="145.77" y2="42.58"/>
    <line class="cls-1" x1="127.87" y1="27.22" x2="128.65" y2="55.09"/>
    <line class="cls-1" x1="129.23" y1="30.36" x2="126.18" y2="30.36"/>
  </g>
  <g>
    <path class="cls-8" d="m166.19,55.15c-7.7,1.03-4.94-8.04-4.19-9.24.75-1.2-.08-.97,1.45-3.38,1.53-2.4,3.91-1.54,3.91-1.54,1.24-.58,5.63-.67,6.66,1.73,1.04,2.4,2.01,3.76,3.16,6.01,0,0,2.27,5.66-6.23,7.45"/>
    <path class="cls-8" d="m157.93,48.17s.88-.42,1.69-1.91c.52-.96,2.05-2.18,1.41-2.38-.64-.2-1.62,1.42-1.8.95-.18-.46,1.64-3.96,1.06-4.14-.58-.18-2.09,3.22-2.26,2.81-.16-.41,1.55-3.39.73-3.64-.82-.25-1.7,3.66-2.14,3.52-.44-.14.2-3.12-.46-3.32-.66-.2-.57,3.69-.8,3.58-.13-.06-.71-1.95-1.07-1.81-.4.16.69,4.03.2,4.89-.48.85-4.36,11.46-3.04,12.79,1.44,1.44,10.63,4.76,12.56,4.19,1.92-.57,3.02-2.47,2.56-3.64-.46-1.17-9.55-3.79-9.69-4.16-.15-.37,1.04-7.73,1.04-7.73Z"/>
    <path class="cls-8" d="m150.11,108.9s-1.78,7.25-3.1,8.39c-1.32,1.14-5.64,3.32-4.51,3.55,1.13.23,9.5.43,9.27-.97-.23-1.4-.47-2.29-.47-2.29l2.21-5.18-3.39-3.51Z"/>
    <path class="cls-8" d="m169.61,114.98s.19,1.83.19,2.64-.75,3.09-.4,3.44c.35.35,10.31.31,10.31-.02,0-.33-1.76-1.32-4.15-2.01-2.39-.68-3.21-3.33-2.59-4.86l-3.36.81Z"/>
    <path class="cls-8" d="m158.8,84.33l-1.79,1.59s-2.01,5.45-2.13,5.81c-.16.5-6.68,21.5-6.68,21.5l4.54,1.63s4.5-8.77,5.25-11.82c.75-3.05,8.2-15.79,8.2-15.79l-7.4-2.92Z"/>
    <path class="cls-8" d="m166.69,87.56l2.18,27.83h5.03s1.8-20.83,1.18-28.14l-8.39.31Z"/>
    <path class="cls-7" d="m175.52,59.53s-3.2-.84-6.84-1.04c-1.88-.1-4.41.3-4.41.3,0,0-2.3,5.16-2.98,9.39-.68,4.23-4.41,17.78-4.41,17.78,0,0,7.58,5.84,18.65,1.99v-28.41Z"/>
    <path class="cls-8" d="m166.9,54.91s.1,3.3-.21,3.61c-.31.31-.74.82-.29,1.61.46.79,2.43.28,3.36-.17.88-.43,1.46-1.24,1.46-1.24l-.46-5.23-3.85,1.41Z"/>
    <path class="cls-8" d="m164.46,53.29c1.57,2.86,3.58,2.15,4.41,1.87.83-.3,2.46-.93,3.29-3.61.07-.24.14-.49.18-.78.06.31.24.6.64.64.98.1,1.9-2.83.71-3.21-.78-.25-1.08.47-1.21,1.01,0-2.82-1.2-6.21-4.8-5.79,0,0-1.86-.04-2.81,1.41-.95,1.46-1.99,5.59-.41,8.46Z"/>
    <path class="cls-8" d="m175.52,59.53s1.45.12,1.62,2.95c.07,1.12,2.91,17.3-1.68,21.01l.06-23.96Z"/>
    <line class="cls-2" x1="174.25" y1="118.36" x2="169.8" y2="117.62"/>
    <line class="cls-2" x1="151.29" y1="117.58" x2="147.68" y2="116.3"/>
  </g>
  <rect class="cls-10" x="-102.46" y="-326.12" width="1466.44" height="999.05"/>
</svg>