<?xml version="1.0" encoding="UTF-8"?>
<svg id="Calque_1" data-name="Calque 1" xmlns="http://www.w3.org/2000/svg" viewBox="0 0 128 128">
  <defs>
    <style>
      .cls-1, .cls-2, .cls-3, .cls-4, .cls-5 {
        fill: none;
      }

      .cls-2, .cls-3, .cls-4, .cls-5 {
        stroke-linecap: round;
        stroke-linejoin: round;
      }

      .cls-2, .cls-4, .cls-6 {
        stroke: #000;
      }

      .cls-3 {
        stroke: #afaff9;
        stroke-width: 3px;
      }

      .cls-7 {
        fill: #fff;
      }

      .cls-4 {
        stroke-width: 2px;
      }

      .cls-6 {
        stroke-miterlimit: 10;
        stroke-width: .25px;
      }

      .cls-5 {
        stroke: #fff;
        stroke-width: 8px;
      }
    </style>
  </defs>
  <path class="cls-1" d="m96.13,60.75s-2.39-20.8-9.37-24.76c-6.98-3.96-9.9-3.08-9.9-3.08l-4.09-2.28-3.6.96-5.16-.85-5.16,2.63-5.12-1.26-9.77,2.62-6.23,5.19-6.24,20.91.04.13s-.01-.01-.04-.01c.17,3.64.81,13.19,3.13,22.92,1.91,8.08,4.97,16.28,9.84,21.32,12.36,12.78,19.7,11.16,19.7,11.16,1.25.11,7.91.1,18.99-11.38,10.76-11.12,12.67-37.59,12.98-44.24-.03,0-.03-.03,0-.1h0"/>
  <path class="cls-1" d="m93.19,83.22s4.11-1,6-7.57c1.9-6.57,4.69-6.04,4.4-12.68-.28-6.33-6.67-2.99-7.26-2.67-.17,3.62-.81,13.19-3.13,22.92Z"/>
  <path class="cls-1" d="m34.81,83.43s-4.11-1-6-7.57c-1.9-6.57-4.69-6.04-4.4-12.68.28-6.33,6.67-2.99,7.26-2.67.17,3.62.81,13.19,3.13,22.92Z"/>
  <path class="cls-4" d="m46.45,21.53s4.32,11.62,11.28,11.37,7.86-12.71,7.86-12.71"/>
  <path class="cls-4" d="m35.78,30.75s8.55,6.18,17.63.76"/>
  <path class="cls-4" d="m33.19,36.93s8.81.07,12.47-3.19"/>
  <path class="cls-4" d="m31.72,60.64s-7-3.99-7.3,2.66c-.3,6.64,2.5,6.11,4.39,12.68,1.89,6.57,6,7.56,6,7.56"/>
  <path class="cls-2" d="m62.6,20.61s-1.07,4.58-3.16,7.8"/>
  <path class="cls-4" d="m92.22,30.54s-14.38,7.06-19.86-.62"/>
  <path class="cls-4" d="m94.81,36.71s-8.91.31-12.58-2.95"/>
  <path class="cls-4" d="m88.25,37.24s8.66,14.98,8.04,23.19c0,0,12.59-32.51-14.57-41.21,0,0-1.47-5.49-8.56-4.08-9.34-8.15-18.29.21-18.29.21-7.09-1.41-8.56,4.08-8.56,4.08-27.17,8.7-14.57,41.21-14.57,41.21-.62-8.2,8.04-24.78,8.04-24.78"/>
  <path class="cls-4" d="m96.38,58.87s-.68,33-13.03,45.78c-12.36,12.78-19.21,11.34-19.21,11.34l.22.03s-7.34,1.62-19.7-11.16c-12.36-12.78-13.03-45.78-13.03-45.78"/>
  <path class="cls-4" d="m96.28,60.43s7-3.99,7.3,2.66c.3,6.64-2.5,6.11-4.39,12.68-1.89,6.57-6,7.56-6,7.56"/>
  <path class="cls-4" d="m62.71,29.73s6.02,7.62,14.14-5.14"/>
  <g>
    <path class="cls-2" d="m58.5,80.03s-4.5,4.58,0,7.94"/>
    <path class="cls-2" d="m58.81,85.56s1.87,1.62,3.33,2.23"/>
    <path class="cls-2" d="m69.45,79.82s4.5,4.58,0,7.94"/>
    <path class="cls-2" d="m69.14,85.56s-1.87,1.62-3.33,2.23"/>
  </g>
  <g>
    <path class="cls-2" d="m88.67,56.43s-5.1,7.88-14,1.22"/>
    <path class="cls-2" d="m39.28,56.43s5.1,7.88,14,1.22"/>
  </g>
  <path class="cls-4" d="m55.43,100.69s9.44-1.53,17.09,0"/>
  <g>
    <path class="cls-7" d="m75.08,70.91s1.61-.18,4.64.1c5.47.52,8.12-2.87,8.12-2.87l-.09-.98s-7.19-5.91-14.67,2.98l2,.75Z"/>
    <path class="cls-7" d="m52.37,71.41s-1.61-.18-4.64.1c-5.47.52-8.12-2.87-8.12-2.87l.09-.98s7.19-5.91,14.67,2.98l-2,.75Z"/>
    <path class="cls-2" d="m87.53,64s-5.93,1.28-12.34,1.05"/>
    <path class="cls-2" d="m75.63,71.14s1.61-.18,4.64.1c5.47.52,8.12-2.45,8.12-2.45l-.09-.98s-7.19-6.33-14.67,2.56"/>
    <circle class="cls-2" cx="81.6" cy="68.7" r="2.48"/>
    <circle class="cls-6" cx="82.02" cy="68.52" r="1.22"/>
    <path class="cls-2" d="m40.71,64s5.93,1.28,12.34,1.05"/>
    <path class="cls-2" d="m52.61,71.14s-1.61-.18-4.64.1c-5.47.52-8.12-2.45-8.12-2.45l.09-.98s7.19-6.33,14.67,2.56"/>
    <circle class="cls-2" cx="46.65" cy="68.7" r="2.48"/>
    <circle class="cls-6" cx="47.23" cy="68.52" r="1.22"/>
  </g>
  <g>
    <path class="cls-3" d="m40,72.88s5.44,6.11,13.62.7"/>
    <path class="cls-3" d="m74.37,72.88s5.44,6.11,13.62.7"/>
  </g>
  <rect class="cls-5" x="-1081.8" y="-164.15" width="1496.63" height="629.76"/>
</svg>