<?xml version="1.0" encoding="UTF-8"?>
<svg id="Calque_1" data-name="Calque 1" xmlns="http://www.w3.org/2000/svg" viewBox="0 0 128 128">
  <defs>
    <style>
      .cls-1, .cls-2, .cls-3, .cls-4 {
        stroke: #000;
      }

      .cls-1, .cls-2, .cls-3, .cls-4, .cls-5 {
        stroke-linecap: round;
        stroke-linejoin: round;
      }

      .cls-1, .cls-4, .cls-5 {
        fill: none;
      }

      .cls-2 {
        fill: #d6d6d6;
      }

      .cls-2, .cls-3, .cls-4 {
        stroke-width: 2px;
      }

      .cls-3 {
        fill: #b4eac3;
      }

      .cls-5 {
        stroke: #fff;
        stroke-width: 8px;
      }
    </style>
  </defs>
  <path class="cls-3" d="m99.78,69v3.82h-34.82c-2.68-2.73-6.02-4.8-9.76-5.96l-9.18-34.12,3.53-.95c2.91-.78,5.9.94,6.68,3.85l3.38,12.56h-1.5c-2.17,0-3.94,1.77-3.94,3.94,0,1.09.44,2.07,1.16,2.79.71.72,1.69,1.16,2.78,1.16h3.62l.97,3.62c.64,2.36,2.78,4,5.23,4h26.56c2.92,0,5.29,2.37,5.29,5.29Z"/>
  <path class="cls-4" d="m54.86,65.9l-1.64.44c-1.61-.36-3.28-.54-5-.54-.94,0-1.86.06-2.77.17l-10.41-38.71c-.25-.95.31-1.92,1.25-2.18l5.37-1.44c.95-.26,1.92.3,2.18,1.25l11.02,41.01Z"/>
  <path class="cls-3" d="m94.23,52.14c0,2.17-1.78,3.95-3.95,3.95h-32.17c-1.09,0-2.07-.44-2.78-1.16-.72-.72-1.16-1.7-1.16-2.79,0-2.17,1.77-3.94,3.94-3.94h32.17c1.08,0,2.07.44,2.79,1.16s1.16,1.69,1.16,2.78Z"/>
  <path class="cls-4" d="m61.99,75.47c-3.53-3.51-8.39-5.68-13.77-5.68s-10.18,2.15-13.71,5.66c-3.56,3.51-5.77,8.41-5.77,13.83s2.21,10.31,5.77,13.84c3.53,3.49,8.37,5.65,13.71,5.65s10.21-2.16,13.73-5.65c3.56-3.53,5.77-8.43,5.77-13.84s-2.19-10.28-5.73-13.81Z"/>
  <path class="cls-4" d="m61.99,75.47c-1.84-1.82-4.03-3.29-6.47-4.27-2.25-.91-4.72-1.41-7.3-1.41-5.34,0-10.18,2.15-13.71,5.66-3.56,3.51-5.77,8.41-5.77,13.83,0,2.69.55,5.27,1.54,7.6,1,2.36,2.45,4.47,4.23,6.24,1.84,1.82,4.04,3.28,6.48,4.25,2.24.91,4.67,1.4,7.23,1.4,2.7,0,5.28-.55,7.61-1.54h0c2.31-.97,4.38-2.39,6.12-4.11,1.84-1.82,3.32-4.01,4.31-6.45.94-2.28,1.46-4.78,1.46-7.39,0-5.4-2.19-10.28-5.73-13.81Zm-10.08,17.53c-.95.94-2.25,1.52-3.69,1.52s-2.71-.58-3.66-1.51c-.96-.95-1.57-2.28-1.57-3.73s.6-2.76,1.55-3.71c.95-.93,2.24-1.52,3.68-1.52s2.76.59,3.72,1.53c.94.94,1.53,2.25,1.53,3.7s-.61,2.78-1.56,3.72Z"/>
  <path class="cls-2" d="m53.47,89.28c0,1.45-.61,2.78-1.56,3.72-.95.94-2.25,1.52-3.69,1.52s-2.71-.58-3.66-1.51c-.96-.95-1.57-2.28-1.57-3.73s.6-2.76,1.55-3.71c.95-.93,2.24-1.52,3.68-1.52s2.76.59,3.72,1.53c.94.94,1.53,2.25,1.53,3.7Z"/>
  <path class="cls-2" d="m64.81,72.64c-4.25-4.24-10.1-6.84-16.59-6.84s-12.27,2.59-16.53,6.81c-4.28,4.24-6.94,10.14-6.94,16.67s2.66,12.42,6.94,16.68c4.26,4.2,10.09,6.81,16.53,6.81s12.3-2.61,16.55-6.81c4.28-4.26,6.95-10.16,6.95-16.68s-2.64-12.39-6.91-16.64Zm-2.86,30.48c-3.52,3.49-8.37,5.65-13.73,5.65s-10.18-2.16-13.71-5.65c-3.56-3.53-5.77-8.43-5.77-13.84s2.21-10.32,5.77-13.83c3.53-3.51,8.37-5.66,13.71-5.66s10.24,2.17,13.77,5.68c3.54,3.53,5.73,8.41,5.73,13.81s-2.21,10.31-5.77,13.84Z"/>
  <path class="cls-2" d="m100.99,88.63c-1.18-.37-2.44-.57-3.74-.57-1.58,0-3.09.29-4.47.84-4.62,1.78-7.89,6.27-7.89,11.52,0,6.82,5.53,12.35,12.36,12.35s12.35-5.53,12.35-12.35c0-5.52-3.62-10.2-8.61-11.79Zm-3.74,17.75c-3.3,0-5.97-2.67-5.97-5.96s2.67-5.97,5.97-5.97,5.96,2.67,5.96,5.97-2.67,5.96-5.96,5.96Z"/>
  <path class="cls-4" d="m103.21,100.42c0,3.29-2.67,5.96-5.96,5.96s-5.97-2.67-5.97-5.96,2.67-5.97,5.97-5.97,5.96,2.67,5.96,5.97Z"/>
  <path class="cls-4" d="m103.21,100.42c0,3.29-2.67,5.96-5.96,5.96s-5.97-2.67-5.97-5.96,2.67-5.97,5.97-5.97,5.96,2.67,5.96,5.97Z"/>
  <path class="cls-4" d="m104.64,74.59v5.55c0,.98-.8,1.77-1.78,1.77h-32.34c-1.13-3.46-3.06-6.56-5.56-9.09h37.9c.98,0,1.78.79,1.78,1.77Z"/>
  <g>
    <line class="cls-1" x1="48.22" y1="108.77" x2="48.22" y2="94.68"/>
    <line class="cls-1" x1="48.22" y1="83.88" x2="48.22" y2="69.79"/>
    <line class="cls-1" x1="67.72" y1="89.28" x2="53.62" y2="89.28"/>
    <line class="cls-1" x1="42.83" y1="89.28" x2="28.74" y2="89.28"/>
    <line class="cls-1" x1="44.44" y1="93.13" x2="34.5" y2="103.12"/>
    <line class="cls-1" x1="61.99" y1="75.47" x2="52.05" y2="85.46"/>
    <line class="cls-1" x1="61.95" y1="103.12" x2="52.02" y2="93.12"/>
    <line class="cls-1" x1="44.42" y1="85.45" x2="34.5" y2="75.45"/>
  </g>
  <g>
    <line class="cls-1" x1="55.82" y1="107.23" x2="50.33" y2="94.26"/>
    <line class="cls-1" x1="46.11" y1="84.31" x2="40.62" y2="71.34"/>
    <line class="cls-1" x1="66.17" y1="81.68" x2="53.19" y2="87.17"/>
    <line class="cls-1" x1="43.25" y1="91.38" x2="30.28" y2="96.88"/>
    <line class="cls-1" x1="46.24" y1="94.3" x2="40.99" y2="107.38"/>
    <line class="cls-1" x1="55.51" y1="71.2" x2="50.25" y2="84.27"/>
    <line class="cls-1" x1="66.26" y1="96.67" x2="53.22" y2="91.33"/>
    <line class="cls-1" x1="43.22" y1="87.24" x2="30.19" y2="81.89"/>
  </g>
  <path class="cls-4" d="m100.99,81.91v6.72c-1.18-.37-2.44-.57-3.74-.57-1.58,0-3.09.29-4.47.84v-6.99h8.21Z"/>
  <rect class="cls-3" x="12.6" y="24.56" width="14.02" height="4.4" rx="2.2" ry="2.2"/>
  <polyline class="cls-1" points="26.62 26.75 31.7 26.75 36.88 33.83"/>
  <rect class="cls-5" x="-4930.82" y="-1882.55" width="6467.34" height="6437.3"/>
</svg>