<?xml version="1.0" encoding="UTF-8"?>
<svg id="Calque_1" data-name="Calque 1" xmlns="http://www.w3.org/2000/svg" viewBox="0 0 128 128">
  <defs>
    <style>
      .cls-1 {
        fill: #f3d587;
      }

      .cls-2 {
        fill: none;
        stroke: #fff;
        stroke-linecap: round;
        stroke-linejoin: round;
        stroke-width: 8px;
      }
    </style>
  </defs>
  <g>
    <g>
      <path class="cls-1" d="m69.86,120.97c-1.68-.01-3.12-1.39-3.2-3.07l-1.06-25.42c-.02-.54-.46-.96-1-.96h-.99c-.53,0-.97.42-1,.95l-1.15,25.44s0,.11,0,.12c-.1,1.59-1.53,2.93-3.19,2.93-1.7-.01-3.14-1.39-3.24-3.08l-1.06-25.42c-.02-.54-.46-.96-1-.96h-5.31c-.43,0-.84-.19-1.12-.52-.26-.32-.38-.77-.29-1.17l6.92-27.71c.02-.08.03-.17.03-.26l-.12-8.59c0-.46-.33-.86-.79-.96-.07-.02-.14-.02-.21-.02-.38,0-.73.22-.9.57-.33.69-.63,1.41-.9,2.14-1.09,2.94-1.88,5.9-2.33,8.8-.2,1.23-.38,2.54-.58,4.24-.06.62-.11,1.24-.16,1.85l-.07.9c-.11,1.35-1.25,2.4-2.6,2.4h-.12c-1.34-.06-2.48-1.24-2.49-2.58-.03-2.89-.04-5.48.22-8.08.26-2.62.64-5.72,1.47-8.81.86-3.2,1.89-5.92,3.15-8.31,2.63-5,6.71-9.16,11.47-11.7,1.91-1.01,3.93-1.53,5.99-1.53s4.12.53,6.03,1.58l.43.24c.93.51,1.81.99,2.63,1.57,4.26,2.99,7.75,7.83,9.84,13.66,1.01,2.79,1.76,5.73,2.23,8.74.39,2.46.62,5.18.7,8.3v.25c0,.06,0,.12.02.18.01,1.19,0,2.36-.02,3.52,0,.17-.03.36-.08.59-.5,1.82-2.11,1.97-2.29,1.98-.04,0-.09,0-.13.02h-.13c-1.32,0-2.48-1.06-2.59-2.37,0-.06-.01-.11-.03-.17,0-.01,0-.03,0-.06v.02c-.2-2.5-.46-5.18-.97-7.88-.5-2.6-1.32-6.4-2.59-9.46-.16-.38-.53-.62-.92-.62-.06,0-.13,0-.19.02-.47.09-.8.5-.81.97l-.11,8.47c0,.08,0,.17.03.25l6.85,27.88c.07.39-.03.81-.31,1.15-.27.32-.67.51-1.11.51h-5.48c-.54,0-.97.42-1,.96l-1.14,25.44s0,.11,0,.12c-.11,1.59-1.55,2.93-3.21,2.93h-.02Z"/>
      <path d="m64.22,33.17c1.92,0,3.79.49,5.55,1.46l.44.24c.9.49,1.75.95,2.53,1.51,4.08,2.86,7.45,7.54,9.47,13.18.99,2.73,1.73,5.6,2.18,8.56.38,2.42.61,5.08.69,8.14v.25c0,.09,0,.18.02.27.01,1.16,0,2.31-.02,3.45,0,.05,0,.15-.04.31-.3,1.04-1.07,1.22-1.35,1.24,0,0-.02,0-.03,0-.09,0-.16,0-.23.02-.8-.01-1.5-.66-1.57-1.46,0-.07-.01-.14-.03-.21,0-.02,0-.05,0-.07-.21-2.51-.47-5.2-.98-7.92-.51-2.63-1.34-6.5-2.65-9.65-.31-.76-1.05-1.23-1.85-1.23-.13,0-.25.01-.38.04-.93.18-1.61.99-1.62,1.94l-.11,8.47c0,.17.02.34.06.5l6.83,27.81c.01.1,0,.23-.07.33-.09.11-.21.16-.35.16h-5.48c-1.07,0-1.95.84-2,1.91l-1.14,25.44s0,.06,0,.08c-.11,1.12-1.09,2.01-2.22,2.01-1.14,0-2.15-.98-2.21-2.11l-1.06-25.43c-.04-1.07-.93-1.92-2-1.92h-.99c-1.07,0-1.95.84-2,1.91l-1.15,25.44s0,.06,0,.09h0c-.1,1.11-1.07,2.01-2.21,2.01-1.16,0-2.16-.96-2.22-2.11l-1.06-25.43c-.04-1.07-.93-1.92-2-1.92h-5.31c-.14,0-.26-.06-.33-.14-.08-.1-.12-.22-.1-.32l6.91-27.69c.04-.17.06-.34.06-.51l-.12-8.59c-.01-.93-.67-1.73-1.57-1.93-.14-.03-.29-.05-.43-.05-.76,0-1.47.43-1.81,1.14-.34.72-.66,1.47-.93,2.21-1.12,3.01-1.92,6.04-2.38,8.98-.2,1.25-.38,2.57-.59,4.33-.06.6-.11,1.22-.16,1.83-.02.31-.05.61-.07.93-.06.81-.78,1.47-1.6,1.47h-.09c-.81-.04-1.52-.78-1.53-1.59-.03-2.86-.04-5.43.22-7.96.26-2.58.64-5.63,1.45-8.66.84-3.13,1.84-5.78,3.07-8.11,2.54-4.83,6.46-8.83,11.05-11.28,1.77-.94,3.63-1.41,5.52-1.41m0-2c-2.19,0-4.39.55-6.46,1.64-5.1,2.72-9.23,7.06-11.89,12.12-1.43,2.7-2.44,5.57-3.23,8.52-.79,2.95-1.2,5.95-1.5,8.97-.27,2.72-.26,5.45-.23,8.18.02,1.88,1.56,3.49,3.45,3.57.06,0,.11,0,.17,0,1.86,0,3.45-1.46,3.6-3.31.08-.91.14-1.82.23-2.72.17-1.41.35-2.81.58-4.21.46-2.93,1.24-5.83,2.28-8.61.26-.7.55-1.38.87-2.05l.12,8.59-6.92,27.74c-.15.71.04,1.46.5,2.02.47.56,1.15.88,1.88.88h5.31l1.06,25.43c.12,2.22,1.99,4.01,4.21,4.02,0,0,.02,0,.03,0,2.19,0,4.06-1.76,4.19-3.93v-.08l1.15-25.44h.99l1.06,25.43c.11,2.22,1.99,4.01,4.19,4.02,0,0,.02,0,.03,0,2.19,0,4.06-1.76,4.21-3.93v-.08l1.14-25.44h5.48c.73,0,1.41-.32,1.88-.88.46-.56.64-1.29.5-2.02l-6.85-27.88.11-8.47c1.17,2.81,1.96,6.29,2.54,9.26.49,2.58.74,5.18.96,7.77.01.08.01.14.03.2.15,1.86,1.75,3.3,3.58,3.3.06,0,.11,0,.17,0,.05,0,.09,0,.14-.02,0,0,2.5-.09,3.22-2.75.06-.26.11-.53.11-.81.02-1.21.03-2.43.02-3.66,0-.02,0-.03-.02-.06v-.27c-.08-2.82-.27-5.63-.71-8.43-.47-3.04-1.23-6.04-2.28-8.93-1.97-5.5-5.38-10.75-10.2-14.14-1-.71-2.08-1.28-3.16-1.87-2.07-1.14-4.29-1.7-6.51-1.7h0Z"/>
    </g>
    <g>
      <path class="cls-1" d="m63.96,29.38c-3.93-.07-7.57-2.25-9.5-5.7-1.94-3.45-1.88-7.87.17-11.25,2.02-3.34,5.69-5.41,9.59-5.41h.12c3.93.04,7.6,2.19,9.58,5.6,1.97,3.44,1.94,7.86-.07,11.26-2.01,3.4-5.7,5.51-9.63,5.51-.02,0-.04,0-.05,0-.01,0-.15-.02-.19-.02Z"/>
      <path d="m64.22,6.03v2h.1c3.58.04,6.92,1.99,8.72,5.1,1.8,3.14,1.77,7.16-.06,10.26-1.82,3.08-5.17,5-8.79,5.01-.07,0-.14-.01-.21-.01-3.57-.06-6.89-2.05-8.65-5.19-1.77-3.14-1.71-7.16.15-10.24,1.84-3.04,5.19-4.93,8.73-4.93v-2m0,0c-4.23,0-8.25,2.27-10.44,5.89-2.25,3.72-2.31,8.47-.18,12.25,2.1,3.73,6.09,6.13,10.36,6.21.09.01.17.01.26.01,4.28,0,8.32-2.32,10.49-6,2.22-3.73,2.23-8.5.08-12.27-2.14-3.7-6.15-6.06-10.43-6.1-.04,0-.08,0-.13,0h0Z"/>
    </g>
  </g>
  <rect class="cls-2" x="-681.51" y="-52.97" width="1656.38" height="875.1"/>
</svg>