<?xml version="1.0" encoding="UTF-8"?>
<svg id="Calque_1" data-name="Calque 1" xmlns="http://www.w3.org/2000/svg" viewBox="0 0 128 128">
  <defs>
    <style>
      .cls-1 {
        fill: #ff6d75;
      }

      .cls-1, .cls-2 {
        stroke: #000;
      }

      .cls-1, .cls-2, .cls-3 {
        stroke-linecap: round;
        stroke-linejoin: round;
      }

      .cls-2 {
        fill: #fff;
      }

      .cls-3 {
        fill: none;
        stroke: #fff;
        stroke-width: 8px;
      }
    </style>
  </defs>
  <path class="cls-1" d="m76.39,105.47c-.53.95-.2,2.23-.03,3.24.23,1.35.45,2.71.6,4.08.06.48.11.95.14,1.42.04.68.05,1.33,0,1.91-.31,3.75,0,4.26,0,4.26h-23.28s-.81-3.5-1.82-6.88c-.38-1.31-.8-2.61-1.22-3.67-1.48-3.86-2.36-14.65.88-20.12l1.45-3.1s0-.02.02-.04c.13-.34-.13-.72-.33-.97-.67-.83-1.68-1.51-2.46-2.27-.87-.84-1.71-1.72-2.33-2.78-1.12-1.91-1.12-4.26-1.55-6.39-.48-2.34-.85-4.7-1.14-7.07-.05-.44-.11-.88-.15-1.32,2.52-6.95,6.45-15.28,11.18-16.8,8.37-2.68,19.84,9.87,19.84,9.87-.09.91.17,1.93.63,3,0,0,0,.02,0,.03.92,2.15.86,4.55,1.65,6.72.28.78.61,1.55.95,2.31.61,1.35,1.27,2.69,1.77,4.09,1.58,4.32,2.48,8.92,1.78,13.52-.93,6.05-3.65,11.68-6.6,16.96Z"/>
  <path class="cls-2" d="m85.58,97.67c-1.14.3-1.88.34-1.31.82.57.47.48,1.55-.17,1.95-.64.41-.2,1.35-1.04,1.96-.85.61-1.18,1.12-2.23,1.19-1.05.06-1.89,1.34-3.37.84-.03,0-.06-.02-.09-.03-1.48-.56-3.65-2.68-4.47-3.27-.85-.61-7.25-5.8-12.18-8.91-2.44-1.54-5.3-3.98-7.67-6.22h0c-.73-.7-1.54-1.34-2.25-2.07-.86-.88-1.9-1.88-2.62-2.97-.03-.04-.06-.08-.08-.13-.04-.05-.07-.11-.1-.16-.13-.19-.21-.36-.3-.55-.04-.08-.06-.15-.09-.22,0,0-.02-.03-.03-.04-.13-.31-.22-.64-.31-.97-.22-.91-.3-1.86-.41-2.79-.1-.7-.2-1.38-.43-2.04,0,0,0-.03,0-.04-.02-.06-.03-.11-.04-.16-.05-.21-.08-.33-.08-.33,0,0-.76-4.37-1.13-7.76v-.07c-.13-1.12-.19-2.13-.19-2.83.07-2.83-.08-6.24-.08-6.24,0,0-1.81-9.51-.8-13.87.33-1.4.86-3.13,1.59-4.81.3-.69.63-1.37,1-2.03.78-1.36,1.69-2.6,2.79-3.5.26-.21.54-.41.82-.58.85-.52,1.79-.83,2.82-.83,3.62,0,7.62-.5,9.88,1.41.89-4.97,6.66-10.17,6.66-10.17,0,0,6.67-7.69,9.97-1.67,0,0,.44,3.4-2.6,8.19-3.04,4.8-2.57,5.67-2.57,6.55s-1.87,0-1.87,0c0,0-4.69,4.03-7.66,2.4-.66-.36-1.23-.99-1.65-2.01-.2-.48-.32-.97-.37-1.48-.43.15-.86.28-1.29.42-1.93,4.07,1.91,8.09,1.91,8.09,0,0,13.06,11.84,12.65,16.1,0,0-11.44-12.51-19.81-9.87-.15,1.13-1.01,4.67-.32,9.67.81,5.87-.21,13.96-.21,13.96-.21,1.97,1.52,2.96,2.7,4.22,1.93,2.05,3.54,4.37,5.32,6.55,1.87,2.29,3.76,4.56,5.83,6.67,1.32,1.35,2.98,3.2,4.89,3.72,1.05.27,2.07.56,3.16.44.95-.12,1.84-.52,2.82-.42,1.14.1,2.41,1.18,3.27,1.84.24.19.39.29.39.29,0,0,2.49,1.45,1.34,1.75Z"/>
  <path class="cls-2" d="m44.91,56.61s-1.81-9.51-.8-13.86c.46-1.98,1.32-4.59,2.59-6.84h0c20.76-.36,32.93-15.33,32.93-15.33,0,0,.44,3.41-2.6,8.2-3.04,4.79-2.56,5.67-2.56,6.55,0,.88-1.87,0-1.87,0,0,0-4.7,4.04-7.67,2.4-.66-.36-1.22-1-1.64-2.01-.2-.48-.32-.97-.37-1.48-.42.15-.85.28-1.29.42-1.92,4.07,1.91,8.1,1.91,8.1,0,0,0,0,.01,0,.36-.14,8.24-3.25,11.93-6.6,3.72-3.39,10.13-9.01,4.9-20.59-.08-.17-.16-.35-.25-.53-2.58-5.44-9.22-7.79-14.92-7.33-9.75.79-11.62,8.95-14.87,16.44-1.61,3.71-3.37,7.36-5.45,10.84-.18.3-.34.6-.5.89-5.44,10.25.5,20.76.5,20.76Z"/>
  <path class="cls-2" d="m73.1,30.34s-.18-1.88-2.14-2.02"/>
  <rect class="cls-3" x="-448.34" y="-3948.24" width="6467.34" height="6437.3"/>
</svg>