<?xml version="1.0" encoding="UTF-8"?>
<svg id="Calque_1" data-name="Calque 1" xmlns="http://www.w3.org/2000/svg" viewBox="0 0 128 128">
  <defs>
    <style>
      .cls-1, .cls-2 {
        fill: #f3d587;
      }

      .cls-3, .cls-4 {
        fill: #fff;
      }

      .cls-5 {
        fill: #afaff9;
      }

      .cls-6 {
        fill: #a07637;
      }

      .cls-6, .cls-2, .cls-7, .cls-8 {
        stroke-linecap: round;
      }

      .cls-6, .cls-2, .cls-7, .cls-8, .cls-4 {
        stroke-linejoin: round;
      }

      .cls-6, .cls-2, .cls-7, .cls-4 {
        stroke: #000;
        stroke-width: 2px;
      }

      .cls-7, .cls-8 {
        fill: none;
      }

      .cls-8 {
        stroke: #fff;
        stroke-width: 8px;
      }
    </style>
  </defs>
  <g>
    <path class="cls-1" d="m61.93,29.66c-1.6,0-3.16-.3-4.64-.89-3.76-1.51-6.64-4.9-7.52-8.85-.9-4.06.35-8.42,3.25-11.39,2.33-2.38,5.59-3.75,8.95-3.75.79,0,1.58.08,2.35.23,3.97.77,7.43,3.57,9.04,7.3,1.65,3.84,1.23,8.37-1.1,11.84-2.29,3.4-6.25,5.52-10.34,5.52Z"/>
    <path d="m61.97,5.77c.73,0,1.45.07,2.16.21,3.65.71,6.84,3.28,8.31,6.71,1.52,3.53,1.13,7.7-1.01,10.89-2.1,3.13-5.75,5.08-9.51,5.08-1.47,0-2.91-.28-4.26-.82-3.46-1.39-6.11-4.51-6.91-8.14-.82-3.73.32-7.75,2.99-10.47,2.14-2.19,5.14-3.45,8.23-3.45m0-2c-3.59,0-7.12,1.44-9.66,4.05-3.14,3.22-4.48,7.91-3.51,12.3.95,4.29,4.04,7.93,8.12,9.57,1.59.64,3.3.96,5.01.96,4.45,0,8.69-2.27,11.17-5.96,2.51-3.75,2.97-8.64,1.18-12.79-1.74-4.04-5.45-7.04-9.77-7.89-.84-.16-1.7-.24-2.54-.24h0Z"/>
  </g>
  <g>
    <path class="cls-5" d="m77.54,64.64s-.01.09-.06.24c-.01.05-.05.11-.06.17-.01-.11.06-.33.12-.41Z"/>
    <path d="m77.54,64.64c-.06.08-.14.3-.12.41.02-.06.05-.12.06-.17.05-.15.06-.23.06-.24h0Z"/>
  </g>
  <path class="cls-2" d="m87.19,54.81c-.03,2.02-.06,4.02-.29,6.04-.24,3.92-1.03,4.11-1.03,4.11-1.05,1.37-2.89,1.91-4.49,1.34-2.64-.73-2.64-3.49-2.64-3.49-.01-.09-.01-.18-.01-.29v-.21c.01-.94.03-1.9.01-2.85-.06-1.4-.15-2.78-.27-4.18-.18-1.43-.32-2.9-.73-4.28-.44-1.97-1.08-3.93-2.03-5.71l-.36-.65-.38-.62c-.2-.36-.44-.7-.7-1.03l-.02,19.91,6.31,41.31h-7.49l-.29,14.44c0,.32-.05.64-.12.94-.58,2.2-2.7,3.69-4.93,3.49-2.31-.21-4.12-2.14-4.24-4.42l-.49-14.45h-2.05l-.47,14.44c-.03.32-.08.64-.17.94-.53,2.19-2.69,3.69-4.93,3.49-2.28-.21-4.11-2.14-4.21-4.42l-.29-14.45h-8.75l7.58-41.28-.03-20.08c-.24.39-.55.76-.79,1.17l-.38.62-.35.65c-.94,1.78-1.61,3.74-2.05,5.71-.38,1.38-.55,2.85-.71,4.28-.12,1.4-.21,2.78-.27,4.18-.03.96,0,1.91.03,2.85v.2c0,2.1-1.65,3.89-3.77,4.02-2.08.12-3.95-1.47-4.21-3.55-.12-1.14-.26-2.28-.35-3.42-.09-1.59-.15-3.16-.17-4.75.05-1.81.08-3.63.36-5.4.35-2.78,1-5.56,2.05-8.15l.41-1.03c.52-1.03,1.02-2.02,1.58-3.01,1.17-1.91,2.51-3.66,4.11-5.22.53-.47,1.05-.96,1.58-1.38.53-.44,1.08-.82,1.59-1.2.53-.35,1.06-.7,1.59-.99.17-.11.38-.21.55-.32,2.34,2.55,5.48,4.3,8.88,4.87,5.16.88,10.54-.96,14.06-4.83.73.38,1.38.82,2.08,1.26.52.38,1.08.76,1.58,1.2.56.43,1.05.91,1.59,1.38,1.58,1.56,2.93,3.33,4.1,5.22.58.99,1.08,1.97,1.58,3.01l.39,1.03c1.06,2.6,1.73,5.37,2.08,8.15.29,1.78.3,3.6.35,5.4Z"/>
  <path class="cls-6" d="m81.37,66.3c-.14.32-.21.65-.23,1-.02.27-.02.52-.09.77-.14.47-.46.88-.87,1.15-.93.59-2.19.33-2.82-.56-1-1.7.06-3.61.06-3.61.02-.06.05-.12.06-.17.29-.77.73-1.47,1.25-2.08,0,0,0,2.76,2.64,3.49Z"/>
  <path class="cls-6" d="m91.34,67.48v52.11c0,1.14-.94,2.08-2.06,2.08s-2.06-.94-2.06-2.08v-52.11c0-1.05-.53-1.97-1.35-2.52,0,0,.8-.2,1.05-4.11,2.6,1.08,4.43,3.64,4.43,6.64Z"/>
  <g>
    <path class="cls-3" d="m56.96,21.16c-1.78,0-3.23-1.45-3.23-3.23s1.45-3.23,3.23-3.23,3.23,1.45,3.23,3.23-1.45,3.23-3.23,3.23Z"/>
    <path d="m56.97,15.69c1.23,0,2.23,1,2.23,2.23s-1,2.23-2.23,2.23-2.23-1-2.23-2.23,1-2.23,2.23-2.23m0-2c-2.34,0-4.23,1.9-4.23,4.23s1.9,4.23,4.23,4.23,4.23-1.9,4.23-4.23-1.9-4.23-4.23-4.23h0Z"/>
  </g>
  <g>
    <path class="cls-3" d="m66.88,21.16c-1.78,0-3.23-1.45-3.23-3.23s1.45-3.23,3.23-3.23,3.23,1.45,3.23,3.23-1.45,3.23-3.23,3.23Z"/>
    <path d="m66.88,15.69c1.23,0,2.23,1,2.23,2.23s-1,2.23-2.23,2.23-2.23-1-2.23-2.23,1-2.23,2.23-2.23m0-2c-2.34,0-4.23,1.9-4.23,4.23s1.9,4.23,4.23,4.23,4.23-1.9,4.23-4.23-1.9-4.23-4.23-4.23h0Z"/>
  </g>
  <line class="cls-7" x1="60.52" y1="17.92" x2="63.62" y2="17.92"/>
  <line class="cls-4" x1="53.96" y1="18.06" x2="49.81" y2="15.16"/>
  <line class="cls-4" x1="69.96" y1="18.06" x2="74.11" y2="15.16"/>
  <rect class="cls-8" x="-690.36" y="-314.74" width="1656.38" height="875.1"/>
</svg>