<?xml version="1.0" encoding="UTF-8"?>
<svg id="Calque_1" data-name="Calque 1" xmlns="http://www.w3.org/2000/svg" viewBox="0 0 128 128">
  <defs>
    <style>
      .cls-1, .cls-2, .cls-3, .cls-4, .cls-5, .cls-6 {
        stroke: #000;
        stroke-miterlimit: 10;
      }

      .cls-1, .cls-4, .cls-5 {
        stroke-width: .83px;
      }

      .cls-1, .cls-7, .cls-6 {
        fill: none;
      }

      .cls-2 {
        fill: #fff;
      }

      .cls-3 {
        fill: #a07637;
      }

      .cls-4 {
        fill: #b2f0e9;
      }

      .cls-7 {
        stroke: #fff;
        stroke-linecap: round;
        stroke-linejoin: round;
        stroke-width: 8px;
      }

      .cls-5 {
        fill: #f3d587;
      }

      .cls-8 {
        opacity: .52;
      }
    </style>
  </defs>
  <path class="cls-3" d="m26,28.11c0,.44-1.33,77.78-1.33,77.78h80.87V28.11H26Z"/>
  <g class="cls-8">
    <g>
      <polygon class="cls-4" points="112.05 100.46 90.52 100.47 90.54 34.58 112.05 31.71 112.05 100.46"/>
      <g>
        <line class="cls-4" x1="112.05" y1="62.47" x2="90.79" y2="64.47"/>
        <line class="cls-4" x1="100.51" y1="33.22" x2="100.51" y2="100.44"/>
      </g>
    </g>
    <g>
      <polygon class="cls-4" points="14.91 100.46 36.78 100.46 36.86 34.65 14.91 31.71 14.91 100.46"/>
      <g>
        <line class="cls-4" x1="14.91" y1="62.47" x2="36.8" y2="64.49"/>
        <line class="cls-4" x1="26.85" y1="33.23" x2="26.88" y2="100.39"/>
      </g>
    </g>
  </g>
  <rect class="cls-2" x="37.08" y="34.43" width="53.28" height="65.96"/>
  <g class="cls-8">
    <g>
      <polygon class="cls-1" points="112.05 100.46 90.52 100.47 90.54 34.58 112.05 31.71 112.05 100.46"/>
      <g>
        <line class="cls-1" x1="112.05" y1="62.47" x2="90.79" y2="64.47"/>
        <line class="cls-1" x1="100.51" y1="33.22" x2="100.51" y2="100.44"/>
      </g>
    </g>
    <g>
      <polygon class="cls-1" points="14.91 100.46 36.78 100.46 36.86 34.65 14.91 31.71 14.91 100.46"/>
      <g>
        <line class="cls-1" x1="14.91" y1="62.47" x2="36.8" y2="64.49"/>
        <line class="cls-1" x1="26.85" y1="33.23" x2="26.88" y2="100.39"/>
      </g>
    </g>
  </g>
  <path class="cls-5" d="m47.01,100.47c-1.36-11.25-10.2-18.85-10.2-18.85,18.05-16.34,15.14-47.2,15.14-47.2l-15.09.22-.07,65.66,10.22.16Z"/>
  <path class="cls-5" d="m80.57,100.47c1.36-11.25,10.2-18.85,10.2-18.85-18.05-16.34-15.14-47.2-15.14-47.2l15.09.22.07,65.66-10.22.16Z"/>
  <g>
    <g>
      <path class="cls-6" d="m66.04,42.64s7.26,14.4,28.36,9.66"/>
      <polygon points="92.78 54.31 94.1 52.32 92.1 50.99 93.51 50.71 95.51 52.03 94.19 54.03 92.78 54.31"/>
    </g>
    <g>
      <path class="cls-6" d="m61.96,42.64s-7.26,14.4-28.36,9.66"/>
      <polygon points="35.9 50.99 33.9 52.32 35.22 54.31 33.81 54.03 32.49 52.03 34.49 50.71 35.9 50.99"/>
    </g>
  </g>
  <rect class="cls-7" x="-1352.09" y="-2953.4" width="2244.45" height="5948.74"/>
</svg>