<?xml version="1.0" encoding="UTF-8"?>
<svg id="Calque_1" data-name="Calque 1" xmlns="http://www.w3.org/2000/svg" viewBox="0 0 128 128">
  <defs>
    <style>
      .cls-1 {
        fill: #d6d6d6;
        stroke: #000;
        stroke-miterlimit: 10;
      }

      .cls-2 {
        fill: none;
        stroke: #fff;
        stroke-linecap: round;
        stroke-linejoin: round;
        stroke-width: 8px;
      }
    </style>
  </defs>
  <g>
    <rect class="cls-1" x="3.51" y="61.85" width="2.56" height="8.89"/>
    <rect class="cls-1" x="9.44" y="61.85" width="2.56" height="8.89"/>
    <rect class="cls-1" x="15.37" y="61.85" width="2.56" height="8.89"/>
    <rect class="cls-1" x="21.3" y="61.85" width="2.56" height="8.89"/>
    <rect class="cls-1" x="27.23" y="61.85" width="2.56" height="8.89"/>
    <rect class="cls-1" x="33.15" y="61.85" width="2.56" height="8.89"/>
    <rect class="cls-1" x="39.08" y="61.85" width="2.56" height="8.89"/>
    <rect class="cls-1" x="45.01" y="61.85" width="2.56" height="8.89"/>
    <rect class="cls-1" x="50.94" y="61.85" width="2.56" height="8.89"/>
    <rect class="cls-1" x="56.87" y="61.85" width="2.56" height="8.89"/>
    <rect class="cls-1" x="76.89" y="61.85" width="2.56" height="8.89"/>
    <rect class="cls-1" x="80.36" y="66.78" width="8.89" height="2.56" transform="translate(8.84 145.86) rotate(-84.43)"/>
    <rect class="cls-1" x="86.89" y="68.29" width="8.89" height="2.56" transform="translate(-1.24 137.49) rotate(-73.56)"/>
    <rect class="cls-1" x="93.54" y="70.98" width="8.89" height="2.56" transform="translate(-2.65 140.78) rotate(-70.66)"/>
    <rect class="cls-1" x="100.49" y="74.1" width="8.89" height="2.56" transform="translate(-4.48 144.09) rotate(-67.82)"/>
    <rect class="cls-1" x="106.64" y="78.23" width="8.89" height="2.56" transform="translate(-14.01 134.41) rotate(-59.29)"/>
    <rect class="cls-1" x="111.73" y="83.17" width="8.89" height="2.56" transform="translate(-24.09 115.36) rotate(-48.44)"/>
    <rect class="cls-1" x="116.34" y="88.86" width="8.89" height="2.56" transform="translate(-29.92 91.85) rotate(-37.38)"/>
    <rect class="cls-1" x="6.45" y="58.21" width="2.56" height="8.89"/>
    <rect class="cls-1" x="12.38" y="58.21" width="2.56" height="8.89"/>
    <rect class="cls-1" x="18.3" y="58.21" width="2.56" height="8.89"/>
    <rect class="cls-1" x="24.23" y="58.21" width="2.56" height="8.89"/>
    <rect class="cls-1" x="30.16" y="58.21" width="2.56" height="8.89"/>
    <rect class="cls-1" x="36.09" y="58.21" width="2.56" height="8.89"/>
    <rect class="cls-1" x="42.02" y="58.21" width="2.56" height="8.89"/>
    <rect class="cls-1" x="47.95" y="58.21" width="2.56" height="8.89"/>
    <rect class="cls-1" x="53.87" y="58.21" width="2.56" height="8.89"/>
    <rect class="cls-1" x="79.86" y="56.72" width="2.56" height="8.89" transform="translate(-8.58 13.47) rotate(-9.01)"/>
    <rect class="cls-1" x="86.23" y="55.16" width="2.56" height="8.89" transform="translate(-12.09 23.67) rotate(-14.42)"/>
    <rect class="cls-1" x="93.41" y="52.53" width="2.56" height="8.89" transform="translate(-13.59 34.89) rotate(-19.51)"/>
    <rect class="cls-1" x="100.13" y="49.63" width="2.56" height="8.89" transform="translate(-13.22 62.31) rotate(-32.18)"/>
    <rect class="cls-1" x="106.13" y="45.37" width="2.56" height="8.89" transform="translate(-3.65 90.85) rotate(-45.16)"/>
    <rect class="cls-1" x="111.14" y="39.92" width="2.56" height="8.89" transform="translate(8.68 106.38) rotate(-52.41)"/>
    <rect class="cls-1" x="115.81" y="33.96" width="2.56" height="8.89" transform="translate(26.13 121.55) rotate(-60.59)"/>
    <path class="cls-1" d="m71.75,65.99c-.02-.76-.67-1.38-1.43-1.38h-.02v1.45h.24l-.03,6.56h-4.74l-.03-6.56h.24v-1.45h-.11c-.76,0-1.4.62-1.43,1.38l-.82,27.56c-.02.76.58,1.38,1.34,1.38h6.34c.76,0,1.36-.62,1.34-1.38l-.9-27.56Zm-3.61,27.38c-1.69,0-3.05-1.37-3.05-3.05s1.37-3.05,3.05-3.05,3.05,1.37,3.05,3.05-1.37,3.05-3.05,3.05Z"/>
    <path class="cls-1" d="m75.15,62.46c0-3.67-2.98-6.65-6.65-6.65h-.72c-3.67,0-6.65,2.98-6.65,6.65,0,.68.1,1.34.29,1.96h0s0,.01,0,.01c0,0,0,0,0,0,.66,1.73.65,4.26.65,6.67h.02c.08,1.33.72,2.51,1.67,3.31l.28-8.97c.02-.79.73-1.44,1.57-1.44h.35v-4.09h4.31v4.09h.25c.84,0,1.55.65,1.58,1.44l.31,9.03c.99-.81,1.65-2.01,1.74-3.37h0c0-.06,0-.13,0-.19,0-.04,0-.07,0-.11s0-.07,0-.1c0-2.24.03-4.52.62-6.15.22-.66.34-1.37.34-2.1Z"/>
    <rect class="cls-1" x="65.99" y="59.93" width="4.31" height="6.13"/>
  </g>
  <rect class="cls-2" x="-3849.43" y="-979.45" width="6467.34" height="6437.3"/>
</svg>