<?xml version="1.0" encoding="UTF-8"?>
<svg id="Calque_1" data-name="Calque 1" xmlns="http://www.w3.org/2000/svg" viewBox="0 0 128 128">
  <defs>
    <style>
      .cls-1 {
        fill: #b4eac3;
      }

      .cls-2 {
        fill: #b2f0e9;
      }

      .cls-3 {
        fill: #d6d6d6;
      }

      .cls-4 {
        fill: #afaff9;
      }

      .cls-5 {
        stroke-width: .11px;
      }

      .cls-5, .cls-6, .cls-7 {
        stroke: #000;
        stroke-miterlimit: 10;
      }

      .cls-5, .cls-8, .cls-7 {
        fill: none;
      }

      .cls-6 {
        fill: #fff;
      }

      .cls-8 {
        stroke: #fff;
        stroke-linecap: round;
        stroke-linejoin: round;
        stroke-width: 8px;
      }

      .cls-7 {
        stroke-width: .22px;
      }
    </style>
  </defs>
  <rect class="cls-6" x="22.84" y="5.17" width="82.31" height="117.62"/>
  <rect class="cls-3" x="84.05" y="85.14" width="16.12" height="1.72"/>
  <rect class="cls-3" x="-.68" y="57.11" width="58.79" height="1.88" transform="translate(-29.33 86.77) rotate(-90)"/>
  <rect class="cls-1" x="29.66" y="30.28" width="70.63" height="1.36"/>
  <rect class="cls-1" x="29.66" y="35.94" width="70.63" height="1.51"/>
  <rect class="cls-2" x="29.66" y="39.33" width="70.63" height="1.19"/>
  <rect class="cls-2" x="29.66" y="41.94" width="70.63" height="1.32"/>
  <rect class="cls-2" x="29.66" y="44.69" width="70.63" height="1.32"/>
  <rect class="cls-2" x="29.66" y="47.47" width="70.63" height="1.32"/>
  <rect class="cls-2" x="29.66" y="50.26" width="70.63" height="1.32"/>
  <rect class="cls-2" x="29.66" y="53" width="70.63" height="1.32"/>
  <rect class="cls-2" x="29.66" y="55.78" width="70.63" height="1.32"/>
  <rect class="cls-2" x="29.66" y="58.62" width="70.63" height="1.19"/>
  <rect class="cls-2" x="29.66" y="61.23" width="70.63" height="1.32"/>
  <rect class="cls-2" x="29.66" y="63.97" width="70.63" height="1.32"/>
  <rect class="cls-2" x="29.66" y="66.75" width="70.63" height="1.32"/>
  <rect class="cls-2" x="29.66" y="69.54" width="70.63" height="1.32"/>
  <rect class="cls-2" x="29.66" y="72.29" width="70.63" height="1.32"/>
  <rect class="cls-2" x="29.66" y="75.07" width="70.63" height="1.32"/>
  <rect class="cls-2" x="29.66" y="77.92" width="70.63" height="1.32"/>
  <rect class="cls-4" x="27.78" y="95.01" width="72.51" height="1.32"/>
  <rect class="cls-2" x="29.66" y="80.7" width="70.63" height="1.32"/>
  <rect class="cls-2" x="29.66" y="83.35" width="70.63" height="1.79"/>
  <rect class="cls-2" x="27.77" y="89.73" width="56.28" height="2.16"/>
  <rect class="cls-3" x="27.78" y="85.14" width="56.27" height="2.3"/>
  <rect class="cls-3" x="27.77" y="91.89" width="72.52" height="1.59"/>
  <g>
    <path d="m32.43,12.4h-1.22v-2.7h1.31c.33,0,.57.1.7.29.08.11.12.25.12.41s-.04.3-.12.4c-.05.06-.11.11-.21.15.14.05.24.13.31.24.07.11.11.24.11.4s-.04.3-.12.43c-.05.08-.12.16-.19.21-.09.07-.19.11-.31.14-.12.02-.25.04-.38.04Zm.27-1.7c.07-.04.11-.12.11-.24,0-.13-.05-.21-.15-.25-.08-.03-.19-.04-.32-.04h-.59v.6h.66c.12,0,.22-.02.29-.07Zm-.28.51h-.67v.72h.66c.12,0,.21-.02.28-.05.12-.06.18-.17.18-.34,0-.14-.06-.24-.17-.29-.06-.03-.16-.04-.27-.05Z"/>
    <path d="m35.51,11.36v-1.66h.57v1.66c0,.29-.04.51-.13.67-.17.29-.48.44-.95.44s-.79-.15-.95-.44c-.09-.16-.13-.38-.13-.67v-1.66h.57v1.66c0,.19.02.32.07.41.07.15.22.23.45.23s.38-.08.45-.23c.04-.09.07-.22.07-.41Z"/>
    <path d="m36.62,9.7h.56v2.22h1.34v.49h-1.9v-2.7Z"/>
    <path d="m38.91,9.7h.56v2.22h1.34v.49h-1.9v-2.7Z"/>
    <path d="m43.09,11.22h-1.31v.69h1.5v.49h-2.05v-2.7h1.98v.48h-1.43v.57h1.31v.47Z"/>
    <path d="m45.67,9.7v.48h-.81v2.22h-.57v-2.22h-.81v-.48h2.19Z"/>
    <path d="m45.96,9.7h.56v2.7h-.56v-2.7Z"/>
    <path d="m49.23,12.4h-.56l-1.1-1.92v1.92h-.53v-2.7h.59l1.08,1.89v-1.89h.53v2.7Z"/>
    <path d="m52.41,12.4h-1.16v-2.7h1.16c.17,0,.31.02.42.06.19.06.34.18.46.34.09.13.16.28.19.44.03.16.05.31.05.45,0,.36-.07.66-.22.91-.2.34-.5.5-.91.5Zm.42-2.01c-.09-.15-.26-.22-.51-.22h-.52v1.76h.52c.27,0,.45-.13.56-.39.06-.14.09-.32.09-.52,0-.27-.04-.49-.13-.63Z"/>
    <path d="m55.84,11.22h-1.31v.69h1.5v.49h-2.05v-2.7h1.98v.48h-1.43v.57h1.31v.47Z"/>
    <path d="m59.1,11.43h-.57v.97h-.56v-2.7h1.18c.27,0,.49.07.65.21.16.14.24.35.24.65,0,.32-.08.54-.24.68-.16.13-.39.2-.69.2Zm.26-.56c.07-.06.11-.17.11-.31s-.04-.24-.11-.3c-.07-.06-.18-.09-.31-.09h-.53v.8h.53c.13,0,.24-.03.31-.1Z"/>
    <path d="m61.76,11.84h-1l-.19.56h-.59l.96-2.7h.64l.96,2.7h-.61l-.17-.56Zm-.16-.47l-.34-1.06-.35,1.06h.69Z"/>
    <path d="m62.85,9.7h.56v2.7h-.56v-2.7Z"/>
    <path d="m65.81,11.22h-1.31v.69h1.5v.49h-2.05v-2.7h1.98v.48h-1.43v.57h1.31v.47Z"/>
  </g>
  <rect x="31.27" y="14.42" width="26.88" height="1.13"/>
  <rect x="31.27" y="16.55" width="26.88" height="1.13"/>
  <rect x="31.27" y="18.67" width="26.88" height="1.13"/>
  <g>
    <rect x="73.07" y="12.86" width="13.44" height="1.13"/>
    <rect x="73.07" y="14.61" width="13.44" height="1.13"/>
    <rect x="73.07" y="16.35" width="13.44" height="1.13"/>
  </g>
  <rect x="73.07" y="19.81" width="19.67" height="1.13"/>
  <rect x="73.07" y="21.55" width="19.67" height="1.13"/>
  <rect x="31.27" y="22.51" width="19.67" height="1.13"/>
  <rect x="31.27" y="24.26" width="19.67" height="1.13"/>
  <rect x="31.27" y="26" width="19.67" height="1.13"/>
  <rect x="73.07" y="23.3" width="13.44" height="1.13"/>
  <rect x="73.07" y="25.02" width="13.44" height="1.13"/>
  <rect class="cls-7" x="27.77" y="28.52" width="72.52" height="69.38"/>
  <line class="cls-5" x1="27.77" y1="37.42" x2="100.29" y2="37.42"/>
  <line class="cls-5" x1="27.77" y1="85.14" x2="100.29" y2="85.14"/>
  <line class="cls-5" x1="27.77" y1="30.28" x2="100.29" y2="30.28"/>
  <line class="cls-5" x1="29.66" y1="35.88" x2="100.29" y2="35.88"/>
  <line class="cls-5" x1="27.77" y1="89.71" x2="84.05" y2="89.71"/>
  <line class="cls-5" x1="27.77" y1="91.89" x2="84.05" y2="91.89"/>
  <line class="cls-5" x1="27.77" y1="93.49" x2="84.05" y2="93.49"/>
  <line class="cls-5" x1="29.66" y1="39.27" x2="100.17" y2="39.27"/>
  <line class="cls-5" x1="29.66" y1="83.42" x2="100.17" y2="83.42"/>
  <line class="cls-5" x1="27.77" y1="85.14" x2="100.17" y2="85.14"/>
  <line class="cls-5" x1="84.05" y1="97.9" x2="84.05" y2="28.52"/>
  <line class="cls-5" x1="84.05" y1="86.86" x2="100.17" y2="86.86"/>
  <line class="cls-5" x1="84.05" y1="90.3" x2="100.17" y2="90.3"/>
  <line class="cls-5" x1="84.05" y1="91.89" x2="100.17" y2="91.89"/>
  <line class="cls-5" x1="84.05" y1="93.49" x2="100.17" y2="93.49"/>
  <line class="cls-5" x1="92.11" y1="86.86" x2="92.11" y2="97.9"/>
  <line class="cls-5" x1="96.18" y1="86.86" x2="96.18" y2="91.89"/>
  <line class="cls-5" x1="64" y1="91.89" x2="64" y2="97.9"/>
  <line class="cls-5" x1="55.29" y1="91.89" x2="55.29" y2="97.9"/>
  <line class="cls-5" x1="47.96" y1="91.89" x2="47.96" y2="97.9"/>
  <line class="cls-5" x1="75.99" y1="87.45" x2="75.99" y2="91.89"/>
  <line class="cls-5" x1="68.1" y1="87.45" x2="68.1" y2="89.71"/>
  <line class="cls-5" x1="60.13" y1="87.45" x2="60.13" y2="89.71"/>
  <line class="cls-5" x1="60.13" y1="37.42" x2="60.13" y2="83.42"/>
  <line class="cls-5" x1="68.1" y1="37.42" x2="68.1" y2="83.42"/>
  <line class="cls-5" x1="76.08" y1="28.52" x2="76.08" y2="83.42"/>
  <line class="cls-5" x1="92.11" y1="28.52" x2="92.11" y2="85.14"/>
  <line class="cls-5" x1="68.1" y1="35.88" x2="68.1" y2="28.52"/>
  <line class="cls-5" x1="60.13" y1="35.88" x2="60.13" y2="28.52"/>
  <line class="cls-5" x1="29.66" y1="28.52" x2="29.66" y2="85.14"/>
  <g>
    <path d="m28.19,35.06c.06-.1.16-.15.31-.14v.15c-.08,0-.14.03-.18.08-.04.05-.06.12-.06.21,0,.1.04.2.12.29.08.09.19.15.35.18.13.03.24.02.33-.02.08-.04.13-.13.13-.26,0-.1-.03-.19-.09-.27-.06-.08-.15-.13-.28-.16v.35l-.13-.03v-.49l.6.13v.1h-.14c.06.07.1.12.12.17.04.08.06.16.06.27,0,.13-.04.24-.13.32-.11.08-.26.1-.44.06-.19-.04-.34-.12-.45-.25-.11-.12-.16-.26-.16-.41,0-.11.02-.19.06-.26Z"/>
    <path d="m28.16,34.27v-.17l1.12-.17v.17l-.34.04v.44l.34.19v.16l-1.12-.66Zm.66-.11l-.5.07.5.29v-.35Z"/>
    <path d="m28.16,33.52v-.15l1.12.24v.15l-1.12-.24Z"/>
    <path d="m28.16,33.12v-.18l.91-.37-.91-.19v-.14l1.12.24v.17l-.91.38.91.19v.15l-1.12-.24Z"/>
    <path d="m28.92,32.05c.06,0,.12,0,.16-.01.07-.03.11-.12.11-.24,0-.06,0-.11-.02-.16-.03-.1-.09-.15-.17-.17-.06-.01-.1,0-.13.03-.03.03-.05.09-.07.17l-.03.15c-.02.09-.05.16-.07.19-.05.06-.12.08-.21.06-.1-.02-.18-.07-.25-.16-.06-.08-.1-.19-.1-.32,0-.12.03-.21.09-.28s.15-.09.27-.07v.14c-.06,0-.11,0-.14.02-.06.03-.09.11-.09.22,0,.09.02.16.06.21s.08.08.13.09c.06.01.1,0,.12-.04.02-.03.04-.09.06-.19l.04-.15c.02-.07.04-.13.07-.16.05-.06.13-.08.23-.06.12.03.21.09.27.19.05.1.08.21.08.33,0,.14-.04.24-.11.31-.07.06-.17.08-.29.06v-.14Z"/>
  </g>
  <g>
    <path d="m28.25,65.27v-.52c0-.09.01-.15.04-.2.05-.1.14-.13.27-.1.07.01.12.04.17.08s.08.08.1.14c.02-.04.04-.07.07-.08s.08-.02.14,0l.15.03s.07.01.1,0c.04,0,.06-.01.07-.03h.03v.19s-.02,0-.04,0-.04,0-.09-.01l-.19-.03c-.07-.01-.12,0-.15.05-.01.03-.02.07-.02.13v.35l.48.1v.15l-1.12-.24Zm.51-.39c0-.07-.01-.13-.04-.18-.03-.05-.08-.08-.15-.1-.08-.02-.13,0-.16.05-.02.03-.02.07-.02.12v.37l.38.08v-.35Z"/>
    <path d="m28.25,64.15v-.82l.14.03v.67l.34.07v-.62l.13.03v.62l.38.08v-.68l.13.03v.83l-1.12-.24Z"/>
    <path d="m28.25,62.3l.13.03v.38l.99.21v.15l-.99-.21v.38l-.13-.03v-.91Z"/>
    <path d="m28.25,62.15v-.82l.14.03v.67l.34.07v-.62l.13.03v.62l.38.08v-.68l.13.03v.83l-1.12-.24Z"/>
    <path d="m28.25,61.12v-.18l.91-.37-.91-.19v-.14l1.12.24v.17l-.91.38.91.19v.15l-1.12-.24Z"/>
    <path d="m28.25,59.82l.69.15c.08.02.15.02.2,0,.08-.03.12-.1.12-.2,0-.13-.04-.23-.13-.29-.05-.03-.11-.06-.19-.08l-.69-.15v-.15l.63.13c.14.03.24.07.32.12.14.1.2.24.2.43s-.07.3-.2.34c-.07.02-.18.02-.32-.01l-.63-.13v-.15Z"/>
    <path d="m28.25,58.84v-.82l.14.03v.67l.34.07v-.62l.13.03v.62l.38.08v-.68l.13.03v.83l-1.12-.24Z"/>
    <path d="m29.02,57.88c.06,0,.12,0,.16-.01.07-.03.11-.12.11-.24,0-.06,0-.11-.02-.16-.03-.1-.09-.15-.17-.17-.06-.01-.1,0-.13.03-.03.03-.05.09-.07.17l-.03.15c-.02.09-.05.16-.07.19-.05.06-.12.08-.21.06-.1-.02-.18-.07-.25-.16-.06-.08-.1-.19-.1-.32,0-.12.03-.21.09-.28s.15-.09.27-.07v.14c-.06,0-.11,0-.14.02-.06.03-.09.11-.09.22,0,.09.02.16.06.21s.08.08.13.09c.06.01.1,0,.12-.04.02-.03.04-.09.06-.19l.04-.15c.02-.07.04-.13.07-.16.05-.06.13-.08.23-.06.12.03.21.09.27.19.05.1.08.21.08.33,0,.14-.04.24-.11.31-.07.06-.17.08-.29.06v-.14Z"/>
  </g>
  <g>
    <path d="m41.46,28.93h.38c.13,0,.23.05.3.14.06.08.1.19.1.33,0,.1-.02.19-.06.28-.07.15-.18.22-.34.22h-.38v-.96Zm.36.85s.08,0,.11-.01c.05-.02.09-.05.12-.1.03-.04.04-.09.05-.15,0-.04,0-.07,0-.1,0-.12-.02-.21-.07-.28s-.12-.1-.22-.1h-.23v.74h.23Z"/>
    <path d="m42.84,29.21s.08.05.11.09c.02.04.04.08.05.12,0,.03.01.08.01.15h-.51c0,.07.02.13.05.17.03.04.08.06.14.06.06,0,.11-.02.15-.06.02-.02.03-.05.04-.08h.12s-.01.05-.03.09c-.02.03-.04.06-.06.08-.04.03-.08.06-.13.07-.03,0-.06.01-.1.01-.09,0-.16-.03-.22-.1-.06-.06-.09-.15-.09-.27s.03-.2.09-.27c.06-.07.14-.11.24-.11.05,0,.1.01.14.04Zm.04.28c0-.05-.02-.09-.03-.12-.03-.06-.09-.09-.16-.09-.05,0-.1.02-.14.06-.04.04-.06.09-.06.15h.39Zm-.05-.58l-.17.19h-.09l.12-.19h.15Z"/>
    <path d="m43.22,29.67s.01.07.03.09c.03.04.08.06.16.06.04,0,.08,0,.12-.03.03-.02.05-.05.05-.09,0-.03-.01-.05-.04-.07-.02,0-.05-.02-.1-.03l-.1-.02c-.06-.01-.11-.03-.13-.05-.05-.03-.08-.08-.08-.13,0-.07.02-.12.07-.16s.11-.06.2-.06c.11,0,.18.03.23.09.03.04.04.08.04.13h-.11s-.01-.05-.03-.07c-.03-.03-.08-.05-.14-.05-.05,0-.08,0-.1.03-.02.02-.04.04-.04.07,0,.03.02.06.05.07.02.01.04.02.08.03l.08.02c.09.02.14.04.17.06.05.03.07.08.07.14s-.02.12-.07.16c-.05.05-.12.07-.22.07-.11,0-.18-.02-.22-.07-.04-.05-.07-.11-.07-.18h.11Z"/>
    <path d="m43.82,28.93h.12v.13h-.12v-.13Zm0,.26h.12v.7h-.12v-.7Z"/>
    <path d="m44.51,29.22s.04.04.07.07v-.09h.11v.64c0,.09-.01.16-.04.21-.05.1-.14.14-.28.14-.08,0-.14-.02-.19-.05s-.08-.09-.09-.16h.12s.02.06.03.07c.03.03.07.04.13.04.09,0,.15-.03.18-.1.02-.04.02-.1.02-.2-.02.04-.05.06-.08.08-.03.02-.08.03-.13.03-.08,0-.14-.03-.2-.08-.06-.05-.09-.14-.09-.27,0-.12.03-.21.09-.28s.13-.1.21-.1c.05,0,.1.01.14.04Zm.01.13s-.08-.06-.14-.06c-.08,0-.14.04-.17.12-.02.04-.02.1-.02.16,0,.08.02.14.05.18.03.04.07.06.13.06.08,0,.14-.04.18-.11.02-.04.03-.09.03-.15,0-.09-.02-.15-.05-.19Z"/>
    <path d="m44.87,29.19h.11v.1s.07-.07.11-.09.08-.03.12-.03c.1,0,.17.03.2.1.02.04.03.09.03.16v.45h-.12v-.44s0-.08-.02-.1c-.02-.04-.06-.07-.11-.07-.03,0-.05,0-.07,0-.03,0-.06.03-.09.06-.02.02-.03.05-.04.07,0,.02,0,.06,0,.11v.37h-.12v-.7Z"/>
    <path d="m45.99,29.47s.05-.01.05-.03c0-.01,0-.03,0-.05,0-.04-.01-.07-.04-.09s-.07-.03-.12-.03c-.06,0-.11.02-.13.05-.01.02-.02.05-.03.08h-.11c0-.09.03-.15.08-.18.05-.03.12-.05.19-.05.08,0,.15.02.2.05.05.03.08.08.08.15v.4s0,.02,0,.03.02.01.03.01c0,0,.01,0,.02,0,0,0,.01,0,.02,0v.09s-.03,0-.04,0-.02,0-.04,0c-.04,0-.07-.01-.09-.04,0-.02-.02-.04-.02-.06-.02.03-.06.06-.1.08s-.09.03-.15.03c-.07,0-.12-.02-.16-.06-.04-.04-.06-.09-.06-.15,0-.06.02-.12.06-.15s.09-.06.16-.07l.19-.02Zm-.25.32s.05.03.09.03c.04,0,.08,0,.12-.03.07-.03.1-.08.1-.16v-.09s-.03.02-.06.02c-.02,0-.04.01-.07.01h-.07s-.07.02-.1.04c-.04.02-.05.05-.05.1,0,.03.01.06.04.08Z"/>
    <path d="m46.38,28.99h.12v.2h.11v.1h-.11v.46s0,.04.02.05c0,0,.02,0,.05,0,0,0,.01,0,.02,0s.01,0,.02,0v.09s-.03,0-.04,0c-.01,0-.03,0-.05,0-.06,0-.09-.01-.11-.04-.02-.03-.03-.06-.03-.11v-.46h-.09v-.1h.09v-.2Z"/>
    <path d="m46.73,28.93h.12v.13h-.12v-.13Zm0,.26h.12v.7h-.12v-.7Z"/>
    <path d="m47.54,29.26c.06.06.09.15.09.27s-.03.21-.08.28c-.05.07-.14.11-.25.11-.1,0-.17-.03-.23-.1s-.08-.15-.08-.26c0-.12.03-.21.09-.28.06-.07.14-.1.24-.1.09,0,.17.03.23.09Zm-.07.47c.03-.06.04-.12.04-.2,0-.07-.01-.12-.03-.16-.03-.06-.09-.1-.17-.1-.07,0-.12.03-.16.08-.03.05-.05.12-.05.2s.02.14.05.19c.03.05.08.07.15.07.08,0,.13-.03.16-.09Z"/>
    <path d="m47.78,29.19h.11v.1s.07-.07.11-.09.08-.03.12-.03c.1,0,.17.03.2.1.02.04.03.09.03.16v.45h-.12v-.44s0-.08-.02-.1c-.02-.04-.06-.07-.11-.07-.03,0-.05,0-.07,0-.03,0-.06.03-.09.06-.02.02-.03.05-.04.07,0,.02,0,.06,0,.11v.37h-.12v-.7Z"/>
  </g>
  <g>
    <path d="m49.32,36.11v.11h-.32v.85h-.13v-.85h-.32v-.11h.78Z"/>
    <path d="m50.21,36.25c.06.09.1.19.1.33,0,.14-.04.26-.11.36-.09.11-.21.17-.37.17-.15,0-.26-.05-.35-.15-.08-.09-.11-.21-.11-.36,0-.13.03-.24.1-.33.08-.12.21-.18.37-.18s.3.05.38.16Zm-.11.61c.05-.08.08-.18.08-.28,0-.11-.03-.2-.09-.27-.06-.07-.14-.1-.24-.1s-.18.03-.24.1-.09.17-.09.3c0,.11.03.2.08.27s.14.11.26.11.2-.04.25-.12Z"/>
    <path d="m51.16,36.11v.11h-.32v.85h-.13v-.85h-.32v-.11h.78Z"/>
    <path d="m51.46,36.11h.15l.35.96h-.14l-.1-.29h-.38l-.1.29h-.13l.36-.96Zm.21.57l-.15-.43-.16.43h.3Z"/>
    <path d="m52.07,36.11h.13v.85h.48v.11h-.61v-.96Z"/>
    <path d="m53.78,36.14c.09.05.15.14.17.26h-.13c-.02-.07-.05-.12-.1-.15-.05-.03-.11-.05-.18-.05-.09,0-.16.03-.22.1s-.09.17-.09.3c0,.11.02.21.07.28.05.07.13.11.24.11.09,0,.16-.03.21-.08.06-.05.08-.13.09-.24h-.3v-.11h.42v.51h-.08l-.03-.12s-.08.08-.12.1c-.06.03-.13.05-.21.05-.11,0-.21-.04-.29-.11-.09-.09-.13-.22-.13-.38s.04-.29.13-.38c.08-.09.19-.14.32-.14.09,0,.17.02.23.05Z"/>
    <path d="m54.47,36.11h.15l.35.96h-.14l-.1-.29h-.38l-.1.29h-.13l.36-.96Zm.21.57l-.15-.43-.16.43h.3Z"/>
    <path d="m55.11,36.11h.13v.96h-.13v-.96Z"/>
    <path d="m55.45,36.11h.15l.48.78v-.78h.12v.96h-.15l-.49-.78v.78h-.12v-.96Z"/>
    <path d="m56.51,36.76c0,.05.02.1.04.13.04.06.12.1.22.1.05,0,.09,0,.13-.02.07-.03.11-.08.11-.15,0-.05-.02-.09-.05-.11-.03-.02-.08-.04-.15-.06l-.13-.03c-.08-.02-.14-.04-.18-.06-.06-.04-.09-.1-.09-.18,0-.09.03-.16.09-.21s.14-.08.25-.08c.1,0,.18.02.25.07.07.05.1.13.1.23h-.12c0-.05-.02-.09-.04-.12-.04-.05-.1-.08-.19-.08-.07,0-.13.02-.16.05-.03.03-.05.07-.05.11,0,.05.02.08.06.1.02.01.08.03.17.05l.13.03c.06.01.11.04.15.06.06.04.09.11.09.2,0,.11-.04.18-.11.23-.08.05-.16.07-.26.07-.12,0-.21-.03-.27-.09-.07-.06-.1-.14-.1-.25h.12Z"/>
  </g>
  <g>
    <path d="m62.57,28.93h.42c.11,0,.19.03.24.1.03.04.04.09.04.14,0,.06-.02.11-.05.15-.02.02-.04.04-.08.06.05.02.09.04.11.06.04.04.06.1.06.17,0,.06-.02.12-.06.17-.06.08-.15.11-.28.11h-.41v-.96Zm.37.41c.06,0,.1,0,.13-.02.05-.02.07-.07.07-.13s-.03-.11-.08-.13c-.03-.01-.07-.02-.13-.02h-.23v.3h.24Zm.04.44c.08,0,.14-.02.17-.07.02-.03.03-.06.03-.11,0-.07-.03-.12-.09-.14-.03-.01-.08-.02-.13-.02h-.26v.34h.28Z"/>
    <path d="m63.83,29.47s.05-.01.05-.03c0-.01,0-.03,0-.05,0-.04-.01-.07-.04-.09s-.07-.03-.12-.03c-.06,0-.11.02-.13.05-.01.02-.02.05-.03.08h-.11c0-.09.03-.15.08-.18.05-.03.12-.05.19-.05.08,0,.15.02.2.05.05.03.08.08.08.15v.4s0,.02,0,.03.02.01.03.01c0,0,.01,0,.02,0,0,0,.01,0,.02,0v.09s-.03,0-.04,0-.02,0-.04,0c-.04,0-.07-.01-.09-.04,0-.02-.02-.04-.02-.06-.02.03-.06.06-.1.08s-.09.03-.15.03c-.07,0-.12-.02-.16-.06-.04-.04-.06-.09-.06-.15,0-.06.02-.12.06-.15s.09-.06.16-.07l.19-.02Zm-.25.32s.05.03.09.03c.04,0,.08,0,.12-.03.07-.03.1-.08.1-.16v-.09s-.03.02-.06.02c-.02,0-.04.01-.07.01h-.07s-.07.02-.1.04c-.04.02-.05.05-.05.1,0,.03.01.06.04.08Z"/>
    <path d="m64.27,29.67s.01.07.03.09c.03.04.08.06.16.06.04,0,.08,0,.12-.03.03-.02.05-.05.05-.09,0-.03-.01-.05-.04-.07-.02,0-.05-.02-.1-.03l-.1-.02c-.06-.01-.11-.03-.13-.05-.05-.03-.08-.08-.08-.13,0-.07.02-.12.07-.16s.11-.06.2-.06c.11,0,.18.03.23.09.03.04.04.08.04.13h-.11s-.01-.05-.03-.07c-.03-.03-.08-.05-.14-.05-.05,0-.08,0-.1.03-.02.02-.04.04-.04.07,0,.03.02.06.05.07.02.01.04.02.08.03l.08.02c.09.02.14.04.17.06.05.03.07.08.07.14s-.02.12-.07.16c-.05.05-.12.07-.22.07-.11,0-.18-.02-.22-.07-.04-.05-.07-.11-.07-.18h.11Z"/>
    <path d="m65.3,29.21s.08.05.11.09c.02.04.04.08.05.12,0,.03.01.08.01.15h-.51c0,.07.02.13.05.17.03.04.08.06.14.06.06,0,.11-.02.15-.06.02-.02.03-.05.04-.08h.12s-.01.05-.03.09c-.02.03-.04.06-.06.08-.04.03-.08.06-.13.07-.03,0-.06.01-.1.01-.09,0-.16-.03-.22-.1-.06-.06-.09-.15-.09-.27s.03-.2.09-.27c.06-.07.14-.11.24-.11.05,0,.1.01.14.04Zm.04.28c0-.05-.02-.09-.03-.12-.03-.06-.09-.09-.16-.09-.05,0-.1.02-.14.06-.04.04-.06.09-.06.15h.39Z"/>
  </g>
  <g>
    <path d="m71.44,28.93v.11h-.32v.85h-.13v-.85h-.32v-.11h.78Z"/>
    <path d="m71.77,29.47s.05-.01.05-.03c0-.01,0-.03,0-.05,0-.04-.01-.07-.04-.09s-.07-.03-.12-.03c-.06,0-.11.02-.13.05-.01.02-.02.05-.03.08h-.11c0-.09.03-.15.08-.18.05-.03.12-.05.19-.05.08,0,.15.02.2.05.05.03.08.08.08.15v.4s0,.02,0,.03.02.01.03.01c0,0,.01,0,.02,0,0,0,.01,0,.02,0v.09s-.03,0-.04,0-.02,0-.04,0c-.04,0-.07-.01-.09-.04,0-.02-.02-.04-.02-.06-.02.03-.06.06-.1.08s-.09.03-.15.03c-.07,0-.12-.02-.16-.06-.04-.04-.06-.09-.06-.15,0-.06.02-.12.06-.15s.09-.06.16-.07l.19-.02Zm-.25.32s.05.03.09.03c.04,0,.08,0,.12-.03.07-.03.1-.08.1-.16v-.09s-.03.02-.06.02c-.02,0-.04.01-.07.01h-.07s-.07.02-.1.04c-.04.02-.05.05-.05.1,0,.03.01.06.04.08Z"/>
    <path d="m72.26,29.19v.47s0,.07.02.09c.02.04.06.06.11.06.08,0,.13-.04.16-.11.02-.04.02-.09.02-.16v-.34h.12v.7h-.11v-.1s-.03.05-.05.07c-.04.04-.1.06-.16.06-.1,0-.17-.03-.2-.1-.02-.04-.03-.08-.03-.14v-.48h.12Z"/>
    <path d="m72.82,29.19h.15l.16.25.16-.25h.14s-.24.34-.24.34l.25.36h-.15l-.17-.26-.17.26h-.15l.25-.36-.23-.34Z"/>
  </g>
  <g>
    <path d="m77.46,28.93h.19l.28.81.27-.81h.19v.96h-.12v-.57s0-.05,0-.1,0-.09,0-.15l-.27.81h-.13l-.28-.81v.03s0,.06,0,.11,0,.08,0,.11v.57h-.12v-.96Z"/>
    <path d="m79.08,29.26c.06.06.09.15.09.27s-.03.21-.08.28c-.05.07-.14.11-.25.11-.1,0-.17-.03-.23-.1s-.08-.15-.08-.26c0-.12.03-.21.09-.28.06-.07.14-.1.24-.1.09,0,.17.03.23.09Zm-.07.47c.03-.06.04-.12.04-.2,0-.07-.01-.12-.03-.16-.03-.06-.09-.1-.17-.1-.07,0-.12.03-.16.08-.03.05-.05.12-.05.2s.02.14.05.19c.03.05.08.07.15.07.08,0,.13-.03.16-.09Z"/>
    <path d="m79.32,29.19h.11v.1s.07-.07.11-.09.08-.03.12-.03c.1,0,.17.03.2.1.02.04.03.09.03.16v.45h-.12v-.44s0-.08-.02-.1c-.02-.04-.06-.07-.11-.07-.03,0-.05,0-.07,0-.03,0-.06.03-.09.06-.02.02-.03.05-.04.07,0,.02,0,.06,0,.11v.37h-.12v-.7Z"/>
    <path d="m80.09,28.99h.12v.2h.11v.1h-.11v.46s0,.04.02.05c0,0,.02,0,.05,0,0,0,.01,0,.02,0s.01,0,.02,0v.09s-.03,0-.04,0c-.01,0-.03,0-.05,0-.06,0-.09-.01-.11-.04-.02-.03-.03-.06-.03-.11v-.46h-.09v-.1h.09v-.2Z"/>
    <path d="m80.81,29.47s.05-.01.05-.03c0-.01,0-.03,0-.05,0-.04-.01-.07-.04-.09s-.07-.03-.12-.03c-.06,0-.11.02-.13.05-.01.02-.02.05-.03.08h-.11c0-.09.03-.15.08-.18.05-.03.12-.05.19-.05.08,0,.15.02.2.05.05.03.08.08.08.15v.4s0,.02,0,.03.02.01.03.01c0,0,.01,0,.02,0,0,0,.01,0,.02,0v.09s-.03,0-.04,0-.02,0-.04,0c-.04,0-.07-.01-.09-.04,0-.02-.02-.04-.02-.06-.02.03-.06.06-.1.08s-.09.03-.15.03c-.07,0-.12-.02-.16-.06-.04-.04-.06-.09-.06-.15,0-.06.02-.12.06-.15s.09-.06.16-.07l.19-.02Zm-.25.32s.05.03.09.03c.04,0,.08,0,.12-.03.07-.03.1-.08.1-.16v-.09s-.03.02-.06.02c-.02,0-.04.01-.07.01h-.07s-.07.02-.1.04c-.04.02-.05.05-.05.1,0,.03.01.06.04.08Z"/>
    <path d="m81.18,29.19h.11v.1s.07-.07.11-.09.08-.03.12-.03c.1,0,.17.03.2.1.02.04.03.09.03.16v.45h-.12v-.44s0-.08-.02-.1c-.02-.04-.06-.07-.11-.07-.03,0-.05,0-.07,0-.03,0-.06.03-.09.06-.02.02-.03.05-.04.07,0,.02,0,.06,0,.11v.37h-.12v-.7Z"/>
    <path d="m81.95,28.99h.12v.2h.11v.1h-.11v.46s0,.04.02.05c0,0,.02,0,.05,0,0,0,.01,0,.02,0s.01,0,.02,0v.09s-.03,0-.04,0c-.01,0-.03,0-.05,0-.06,0-.09-.01-.11-.04-.02-.03-.03-.06-.03-.11v-.46h-.09v-.1h.09v-.2Z"/>
  </g>
  <g>
    <path d="m84.41,28.93h.19l.28.81.27-.81h.19v.96h-.12v-.57s0-.05,0-.1,0-.09,0-.15l-.27.81h-.13l-.28-.81v.03s0,.06,0,.11,0,.08,0,.11v.57h-.12v-.96Z"/>
    <path d="m86.03,29.26c.06.06.09.15.09.27s-.03.21-.08.28c-.05.07-.14.11-.25.11-.1,0-.17-.03-.23-.1s-.08-.15-.08-.26c0-.12.03-.21.09-.28.06-.07.14-.1.24-.1.09,0,.17.03.23.09Zm-.07.47c.03-.06.04-.12.04-.2,0-.07-.01-.12-.03-.16-.03-.06-.09-.1-.17-.1-.07,0-.12.03-.16.08-.03.05-.05.12-.05.2s.02.14.05.19c.03.05.08.07.15.07.08,0,.13-.03.16-.09Z"/>
    <path d="m86.26,29.19h.11v.1s.07-.07.11-.09.08-.03.12-.03c.1,0,.17.03.2.1.02.04.03.09.03.16v.45h-.12v-.44s0-.08-.02-.1c-.02-.04-.06-.07-.11-.07-.03,0-.05,0-.07,0-.03,0-.06.03-.09.06-.02.02-.03.05-.04.07,0,.02,0,.06,0,.11v.37h-.12v-.7Z"/>
    <path d="m87.03,28.99h.12v.2h.11v.1h-.11v.46s0,.04.02.05c0,0,.02,0,.05,0,0,0,.01,0,.02,0s.01,0,.02,0v.09s-.03,0-.04,0c-.01,0-.03,0-.05,0-.06,0-.09-.01-.11-.04-.02-.03-.03-.06-.03-.11v-.46h-.09v-.1h.09v-.2Z"/>
    <path d="m87.76,29.47s.05-.01.05-.03c0-.01,0-.03,0-.05,0-.04-.01-.07-.04-.09s-.07-.03-.12-.03c-.06,0-.11.02-.13.05-.01.02-.02.05-.03.08h-.11c0-.09.03-.15.08-.18.05-.03.12-.05.19-.05.08,0,.15.02.2.05.05.03.08.08.08.15v.4s0,.02,0,.03.02.01.03.01c0,0,.01,0,.02,0,0,0,.01,0,.02,0v.09s-.03,0-.04,0-.02,0-.04,0c-.04,0-.07-.01-.09-.04,0-.02-.02-.04-.02-.06-.02.03-.06.06-.1.08s-.09.03-.15.03c-.07,0-.12-.02-.16-.06-.04-.04-.06-.09-.06-.15,0-.06.02-.12.06-.15s.09-.06.16-.07l.19-.02Zm-.25.32s.05.03.09.03c.04,0,.08,0,.12-.03.07-.03.1-.08.1-.16v-.09s-.03.02-.06.02c-.02,0-.04.01-.07.01h-.07s-.07.02-.1.04c-.04.02-.05.05-.05.1,0,.03.01.06.04.08Z"/>
    <path d="m88.13,29.19h.11v.1s.07-.07.11-.09.08-.03.12-.03c.1,0,.17.03.2.1.02.04.03.09.03.16v.45h-.12v-.44s0-.08-.02-.1c-.02-.04-.06-.07-.11-.07-.03,0-.05,0-.07,0-.03,0-.06.03-.09.06-.02.02-.03.05-.04.07,0,.02,0,.06,0,.11v.37h-.12v-.7Z"/>
    <path d="m88.9,28.99h.12v.2h.11v.1h-.11v.46s0,.04.02.05c0,0,.02,0,.05,0,0,0,.01,0,.02,0s.01,0,.02,0v.09s-.03,0-.04,0c-.01,0-.03,0-.05,0-.06,0-.09-.01-.11-.04-.02-.03-.03-.06-.03-.11v-.46h-.09v-.1h.09v-.2Z"/>
    <path d="m89.93,28.91c-.07.13-.11.23-.13.29-.03.1-.05.21-.05.33s.02.24.05.35c.02.06.06.16.13.28h-.08c-.06-.1-.1-.16-.12-.19s-.03-.06-.05-.11c-.02-.06-.04-.13-.05-.21,0-.04,0-.07,0-.11,0-.13.02-.24.06-.35.03-.06.08-.16.16-.29h.08Z"/>
    <path d="m90.07,29.19h.11v.1s.07-.07.11-.09.08-.03.12-.03c.1,0,.17.03.2.1.02.04.03.09.03.16v.45h-.12v-.44s0-.08-.02-.1c-.02-.04-.06-.07-.11-.07-.03,0-.05,0-.07,0-.03,0-.06.03-.09.06-.02.02-.03.05-.04.07,0,.02,0,.06,0,.11v.37h-.12v-.7Z"/>
    <path d="m90.88,29.67s.01.07.03.09c.03.04.08.06.16.06.04,0,.08,0,.12-.03.03-.02.05-.05.05-.09,0-.03-.01-.05-.04-.07-.02,0-.05-.02-.1-.03l-.1-.02c-.06-.01-.11-.03-.13-.05-.05-.03-.08-.08-.08-.13,0-.07.02-.12.07-.16s.11-.06.2-.06c.11,0,.18.03.23.09.03.04.04.08.04.13h-.11s-.01-.05-.03-.07c-.03-.03-.08-.05-.14-.05-.05,0-.08,0-.1.03-.02.02-.04.04-.04.07,0,.03.02.06.05.07.02.01.04.02.08.03l.08.02c.09.02.14.04.17.06.05.03.07.08.07.14s-.02.12-.07.16c-.05.05-.12.07-.22.07-.11,0-.18-.02-.22-.07-.04-.05-.07-.11-.07-.18h.11Z"/>
    <path d="m91.44,30.17c.07-.14.11-.23.13-.3.03-.09.05-.2.05-.33s-.02-.24-.05-.35c-.02-.06-.06-.16-.13-.28h.08c.07.11.11.17.12.2s.03.06.05.1c.02.05.04.11.04.16,0,.05.01.1.01.15,0,.13-.02.24-.06.35-.03.07-.08.16-.16.29h-.08Z"/>
  </g>
  <g>
    <path d="m92.58,28.93h.13v.96h-.13v-.96Z"/>
    <path d="m92.9,29.19h.11v.1s.07-.07.11-.09.08-.03.12-.03c.1,0,.17.03.2.1.02.04.03.09.03.16v.45h-.12v-.44s0-.08-.02-.1c-.02-.04-.06-.07-.11-.07-.03,0-.05,0-.07,0-.03,0-.06.03-.09.06-.02.02-.03.05-.04.07,0,.02,0,.06,0,.11v.37h-.12v-.7Z"/>
    <path d="m93.71,28.98s.08-.06.16-.06c0,0,.02,0,.02,0s.02,0,.03,0v.11s-.02,0-.03,0c0,0-.01,0-.02,0-.04,0-.06,0-.06.03,0,.02-.01.07-.01.14h.12v.09h-.12v.61h-.12v-.61h-.1v-.09h.1v-.11s.01-.08.03-.11Z"/>
    <path d="m94.53,29.26c.06.06.09.15.09.27s-.03.21-.08.28c-.05.07-.14.11-.25.11-.1,0-.17-.03-.23-.1s-.08-.15-.08-.26c0-.12.03-.21.09-.28.06-.07.14-.1.24-.1.09,0,.17.03.23.09Zm-.07.47c.03-.06.04-.12.04-.2,0-.07-.01-.12-.03-.16-.03-.06-.09-.1-.17-.1-.07,0-.12.03-.16.08-.03.05-.05.12-.05.2s.02.14.05.19c.03.05.08.07.15.07.08,0,.13-.03.16-.09Z"/>
    <path d="m94.77,29.19h.11v.12s.03-.05.07-.09.08-.05.12-.05c0,0,0,0,.01,0s.01,0,.03,0v.12s-.01,0-.02,0c0,0-.01,0-.02,0-.06,0-.11.02-.14.06s-.05.08-.05.13v.4h-.12v-.7Z"/>
    <path d="m95.22,29.19h.12v.1s.05-.06.08-.08c.04-.03.08-.04.13-.04.06,0,.1.01.13.04.02.02.04.04.05.07.03-.04.06-.07.09-.08s.08-.03.12-.03c.09,0,.16.03.19.1.02.04.03.09.03.15v.47h-.12v-.49s-.01-.08-.03-.1c-.02-.02-.05-.03-.09-.03-.05,0-.09.02-.12.05-.03.03-.05.08-.05.16v.41h-.12v-.46s0-.08-.02-.1c-.02-.03-.05-.05-.1-.05-.04,0-.09.02-.12.05s-.05.1-.05.19v.37h-.12v-.7Z"/>
    <path d="m96.71,29.47s.05-.01.05-.03c0-.01,0-.03,0-.05,0-.04-.01-.07-.04-.09s-.07-.03-.12-.03c-.06,0-.11.02-.13.05-.01.02-.02.05-.03.08h-.11c0-.09.03-.15.08-.18.05-.03.12-.05.19-.05.08,0,.15.02.2.05.05.03.08.08.08.15v.4s0,.02,0,.03.02.01.03.01c0,0,.01,0,.02,0,0,0,.01,0,.02,0v.09s-.03,0-.04,0-.02,0-.04,0c-.04,0-.07-.01-.09-.04,0-.02-.02-.04-.02-.06-.02.03-.06.06-.1.08s-.09.03-.15.03c-.07,0-.12-.02-.16-.06-.04-.04-.06-.09-.06-.15,0-.06.02-.12.06-.15s.09-.06.16-.07l.19-.02Zm-.25.32s.05.03.09.03c.04,0,.08,0,.12-.03.07-.03.1-.08.1-.16v-.09s-.03.02-.06.02c-.02,0-.04.01-.07.01h-.07s-.07.02-.1.04c-.04.02-.05.05-.05.1,0,.03.01.06.04.08Z"/>
    <path d="m97.1,28.99h.12v.2h.11v.1h-.11v.46s0,.04.02.05c0,0,.02,0,.05,0,0,0,.01,0,.02,0s.01,0,.02,0v.09s-.03,0-.04,0c-.01,0-.03,0-.05,0-.06,0-.09-.01-.11-.04-.02-.03-.03-.06-.03-.11v-.46h-.09v-.1h.09v-.2Z"/>
    <path d="m97.45,28.93h.12v.13h-.12v-.13Zm0,.26h.12v.7h-.12v-.7Z"/>
    <path d="m98.26,29.26c.06.06.09.15.09.27s-.03.21-.08.28c-.05.07-.14.11-.25.11-.1,0-.17-.03-.23-.1s-.08-.15-.08-.26c0-.12.03-.21.09-.28.06-.07.14-.1.24-.1.09,0,.17.03.23.09Zm-.07.47c.03-.06.04-.12.04-.2,0-.07-.01-.12-.03-.16-.03-.06-.09-.1-.17-.1-.07,0-.12.03-.16.08-.03.05-.05.12-.05.2s.02.14.05.19c.03.05.08.07.15.07.08,0,.13-.03.16-.09Z"/>
    <path d="m98.5,29.19h.11v.1s.07-.07.11-.09.08-.03.12-.03c.1,0,.17.03.2.1.02.04.03.09.03.16v.45h-.12v-.44s0-.08-.02-.1c-.02-.04-.06-.07-.11-.07-.03,0-.05,0-.07,0-.03,0-.06.03-.09.06-.02.02-.03.05-.04.07,0,.02,0,.06,0,.11v.37h-.12v-.7Z"/>
    <path d="m99.31,29.67s.01.07.03.09c.03.04.08.06.16.06.04,0,.08,0,.12-.03.03-.02.05-.05.05-.09,0-.03-.01-.05-.04-.07-.02,0-.05-.02-.1-.03l-.1-.02c-.06-.01-.11-.03-.13-.05-.05-.03-.08-.08-.08-.13,0-.07.02-.12.07-.16s.11-.06.2-.06c.11,0,.18.03.23.09.03.04.04.08.04.13h-.11s-.01-.05-.03-.07c-.03-.03-.08-.05-.14-.05-.05,0-.08,0-.1.03-.02.02-.04.04-.04.07,0,.03.02.06.05.07.02.01.04.02.08.03l.08.02c.09.02.14.04.17.06.05.03.07.08.07.14s-.02.12-.07.16c-.05.05-.12.07-.22.07-.11,0-.18-.02-.22-.07-.04-.05-.07-.11-.07-.18h.11Z"/>
  </g>
  <g>
    <path d="m41.46,37.89h.38c.13,0,.23.05.3.14.06.08.1.19.1.33,0,.1-.02.19-.06.28-.07.15-.18.22-.34.22h-.38v-.96Zm.36.85s.08,0,.11-.01c.05-.02.09-.05.12-.1.03-.04.04-.09.05-.15,0-.04,0-.07,0-.1,0-.12-.02-.21-.07-.28s-.12-.1-.22-.1h-.23v.74h.23Z"/>
    <path d="m42.84,38.17s.08.05.11.09c.02.04.04.08.05.12,0,.03.01.08.01.15h-.51c0,.07.02.13.05.17.03.04.08.06.14.06.06,0,.11-.02.15-.06.02-.02.03-.05.04-.08h.12s-.01.05-.03.09c-.02.03-.04.06-.06.08-.04.03-.08.06-.13.07-.03,0-.06.01-.1.01-.09,0-.16-.03-.22-.1-.06-.06-.09-.15-.09-.27s.03-.2.09-.27c.06-.07.14-.11.24-.11.05,0,.1.01.14.04Zm.04.28c0-.05-.02-.09-.03-.12-.03-.06-.09-.09-.16-.09-.05,0-.1.02-.14.06-.04.04-.06.09-.06.15h.39Zm-.05-.58l-.17.19h-.09l.12-.19h.15Z"/>
    <path d="m43.22,38.63s.01.07.03.09c.03.04.08.06.16.06.04,0,.08,0,.12-.03.03-.02.05-.05.05-.09,0-.03-.01-.05-.04-.07-.02,0-.05-.02-.1-.03l-.1-.02c-.06-.01-.11-.03-.13-.05-.05-.03-.08-.08-.08-.13,0-.07.02-.12.07-.16s.11-.06.2-.06c.11,0,.18.03.23.09.03.04.04.08.04.13h-.11s-.01-.05-.03-.07c-.03-.03-.08-.05-.14-.05-.05,0-.08,0-.1.03-.02.02-.04.04-.04.07,0,.03.02.06.05.07.02.01.04.02.08.03l.08.02c.09.02.14.04.17.06.05.03.07.08.07.14s-.02.12-.07.16c-.05.05-.12.07-.22.07-.11,0-.18-.02-.22-.07-.04-.05-.07-.11-.07-.18h.11Z"/>
    <path d="m43.82,37.89h.12v.13h-.12v-.13Zm0,.26h.12v.7h-.12v-.7Z"/>
    <path d="m44.51,38.18s.04.04.07.07v-.09h.11v.64c0,.09-.01.16-.04.21-.05.1-.14.14-.28.14-.08,0-.14-.02-.19-.05s-.08-.09-.09-.16h.12s.02.06.03.07c.03.03.07.04.13.04.09,0,.15-.03.18-.1.02-.04.02-.1.02-.2-.02.04-.05.06-.08.08-.03.02-.08.03-.13.03-.08,0-.14-.03-.2-.08-.06-.05-.09-.14-.09-.27,0-.12.03-.21.09-.28s.13-.1.21-.1c.05,0,.1.01.14.04Zm.01.13s-.08-.06-.14-.06c-.08,0-.14.04-.17.12-.02.04-.02.1-.02.16,0,.08.02.14.05.18.03.04.07.06.13.06.08,0,.14-.04.18-.11.02-.04.03-.09.03-.15,0-.09-.02-.15-.05-.19Z"/>
    <path d="m44.87,38.15h.11v.1s.07-.07.11-.09.08-.03.12-.03c.1,0,.17.03.2.1.02.04.03.09.03.16v.45h-.12v-.44s0-.08-.02-.1c-.02-.04-.06-.07-.11-.07-.03,0-.05,0-.07,0-.03,0-.06.03-.09.06-.02.02-.03.05-.04.07,0,.02,0,.06,0,.11v.37h-.12v-.7Z"/>
    <path d="m45.99,38.43s.05-.01.05-.03c0-.01,0-.03,0-.05,0-.04-.01-.07-.04-.09s-.07-.03-.12-.03c-.06,0-.11.02-.13.05-.01.02-.02.05-.03.08h-.11c0-.09.03-.15.08-.18.05-.03.12-.05.19-.05.08,0,.15.02.2.05.05.03.08.08.08.15v.4s0,.02,0,.03.02.01.03.01c0,0,.01,0,.02,0,0,0,.01,0,.02,0v.09s-.03,0-.04,0-.02,0-.04,0c-.04,0-.07-.01-.09-.04,0-.02-.02-.04-.02-.06-.02.03-.06.06-.1.08s-.09.03-.15.03c-.07,0-.12-.02-.16-.06-.04-.04-.06-.09-.06-.15,0-.06.02-.12.06-.15s.09-.06.16-.07l.19-.02Zm-.25.32s.05.03.09.03c.04,0,.08,0,.12-.03.07-.03.1-.08.1-.16v-.09s-.03.02-.06.02c-.02,0-.04.01-.07.01h-.07s-.07.02-.1.04c-.04.02-.05.05-.05.1,0,.03.01.06.04.08Z"/>
    <path d="m46.38,37.95h.12v.2h.11v.1h-.11v.46s0,.04.02.05c0,0,.02,0,.05,0,0,0,.01,0,.02,0s.01,0,.02,0v.09s-.03,0-.04,0c-.01,0-.03,0-.05,0-.06,0-.09-.01-.11-.04-.02-.03-.03-.06-.03-.11v-.46h-.09v-.1h.09v-.2Z"/>
    <path d="m46.73,37.89h.12v.13h-.12v-.13Zm0,.26h.12v.7h-.12v-.7Z"/>
    <path d="m47.54,38.22c.06.06.09.15.09.27s-.03.21-.08.28c-.05.07-.14.11-.25.11-.1,0-.17-.03-.23-.1s-.08-.15-.08-.26c0-.12.03-.21.09-.28.06-.07.14-.1.24-.1.09,0,.17.03.23.09Zm-.07.47c.03-.06.04-.12.04-.2,0-.07-.01-.12-.03-.16-.03-.06-.09-.1-.17-.1-.07,0-.12.03-.16.08-.03.05-.05.12-.05.2s.02.14.05.19c.03.05.08.07.15.07.08,0,.13-.03.16-.09Z"/>
    <path d="m47.78,38.15h.11v.1s.07-.07.11-.09.08-.03.12-.03c.1,0,.17.03.2.1.02.04.03.09.03.16v.45h-.12v-.44s0-.08-.02-.1c-.02-.04-.06-.07-.11-.07-.03,0-.05,0-.07,0-.03,0-.06.03-.09.06-.02.02-.03.05-.04.07,0,.02,0,.06,0,.11v.37h-.12v-.7Z"/>
  </g>
  <g>
    <path d="m62.57,37.89h.42c.11,0,.19.03.24.1.03.04.04.09.04.14,0,.06-.02.11-.05.15-.02.02-.04.04-.08.06.05.02.09.04.11.06.04.04.06.1.06.17,0,.06-.02.12-.06.17-.06.08-.15.11-.28.11h-.41v-.96Zm.37.41c.06,0,.1,0,.13-.02.05-.02.07-.07.07-.13s-.03-.11-.08-.13c-.03-.01-.07-.02-.13-.02h-.23v.3h.24Zm.04.44c.08,0,.14-.02.17-.07.02-.03.03-.06.03-.11,0-.07-.03-.12-.09-.14-.03-.01-.08-.02-.13-.02h-.26v.34h.28Z"/>
    <path d="m63.83,38.43s.05-.01.05-.03c0-.01,0-.03,0-.05,0-.04-.01-.07-.04-.09s-.07-.03-.12-.03c-.06,0-.11.02-.13.05-.01.02-.02.05-.03.08h-.11c0-.09.03-.15.08-.18.05-.03.12-.05.19-.05.08,0,.15.02.2.05.05.03.08.08.08.15v.4s0,.02,0,.03.02.01.03.01c0,0,.01,0,.02,0,0,0,.01,0,.02,0v.09s-.03,0-.04,0-.02,0-.04,0c-.04,0-.07-.01-.09-.04,0-.02-.02-.04-.02-.06-.02.03-.06.06-.1.08s-.09.03-.15.03c-.07,0-.12-.02-.16-.06-.04-.04-.06-.09-.06-.15,0-.06.02-.12.06-.15s.09-.06.16-.07l.19-.02Zm-.25.32s.05.03.09.03c.04,0,.08,0,.12-.03.07-.03.1-.08.1-.16v-.09s-.03.02-.06.02c-.02,0-.04.01-.07.01h-.07s-.07.02-.1.04c-.04.02-.05.05-.05.1,0,.03.01.06.04.08Z"/>
    <path d="m64.27,38.63s.01.07.03.09c.03.04.08.06.16.06.04,0,.08,0,.12-.03.03-.02.05-.05.05-.09,0-.03-.01-.05-.04-.07-.02,0-.05-.02-.1-.03l-.1-.02c-.06-.01-.11-.03-.13-.05-.05-.03-.08-.08-.08-.13,0-.07.02-.12.07-.16s.11-.06.2-.06c.11,0,.18.03.23.09.03.04.04.08.04.13h-.11s-.01-.05-.03-.07c-.03-.03-.08-.05-.14-.05-.05,0-.08,0-.1.03-.02.02-.04.04-.04.07,0,.03.02.06.05.07.02.01.04.02.08.03l.08.02c.09.02.14.04.17.06.05.03.07.08.07.14s-.02.12-.07.16c-.05.05-.12.07-.22.07-.11,0-.18-.02-.22-.07-.04-.05-.07-.11-.07-.18h.11Z"/>
    <path d="m65.3,38.17s.08.05.11.09c.02.04.04.08.05.12,0,.03.01.08.01.15h-.51c0,.07.02.13.05.17.03.04.08.06.14.06.06,0,.11-.02.15-.06.02-.02.03-.05.04-.08h.12s-.01.05-.03.09c-.02.03-.04.06-.06.08-.04.03-.08.06-.13.07-.03,0-.06.01-.1.01-.09,0-.16-.03-.22-.1-.06-.06-.09-.15-.09-.27s.03-.2.09-.27c.06-.07.14-.11.24-.11.05,0,.1.01.14.04Zm.04.28c0-.05-.02-.09-.03-.12-.03-.06-.09-.09-.16-.09-.05,0-.1.02-.14.06-.04.04-.06.09-.06.15h.39Z"/>
  </g>
  <g>
    <path d="m69.35,37.89v.11h-.32v.85h-.13v-.85h-.32v-.11h.78Z"/>
    <path d="m69.68,38.43s.05-.01.05-.03c0-.01,0-.03,0-.05,0-.04-.01-.07-.04-.09s-.07-.03-.12-.03c-.06,0-.11.02-.13.05-.01.02-.02.05-.03.08h-.11c0-.09.03-.15.08-.18.05-.03.12-.05.19-.05.08,0,.15.02.2.05.05.03.08.08.08.15v.4s0,.02,0,.03.02.01.03.01c0,0,.01,0,.02,0,0,0,.01,0,.02,0v.09s-.03,0-.04,0-.02,0-.04,0c-.04,0-.07-.01-.09-.04,0-.02-.02-.04-.02-.06-.02.03-.06.06-.1.08s-.09.03-.15.03c-.07,0-.12-.02-.16-.06-.04-.04-.06-.09-.06-.15,0-.06.02-.12.06-.15s.09-.06.16-.07l.19-.02Zm-.25.32s.05.03.09.03c.04,0,.08,0,.12-.03.07-.03.1-.08.1-.16v-.09s-.03.02-.06.02c-.02,0-.04.01-.07.01h-.07s-.07.02-.1.04c-.04.02-.05.05-.05.1,0,.03.01.06.04.08Z"/>
    <path d="m70.17,38.15v.47s0,.07.02.09c.02.04.06.06.11.06.08,0,.13-.04.16-.11.02-.04.02-.09.02-.16v-.34h.12v.7h-.11v-.1s-.03.05-.05.07c-.04.04-.1.06-.16.06-.1,0-.17-.03-.2-.1-.02-.04-.03-.08-.03-.14v-.48h.12Z"/>
    <path d="m70.73,38.15h.15l.16.25.16-.25h.14s-.24.34-.24.34l.25.36h-.15l-.17-.26-.17.26h-.15l.25-.36-.23-.34Z"/>
    <path d="m71.94,38.54c0,.05.02.1.04.13.04.06.12.1.22.1.05,0,.09,0,.13-.02.07-.03.11-.08.11-.15,0-.05-.02-.09-.05-.11-.03-.02-.08-.04-.15-.06l-.13-.03c-.08-.02-.14-.04-.18-.06-.06-.04-.09-.1-.09-.18,0-.09.03-.16.09-.21s.14-.08.25-.08c.1,0,.18.02.25.07.07.05.1.13.1.23h-.12c0-.05-.02-.09-.04-.12-.04-.05-.1-.08-.19-.08-.07,0-.13.02-.16.05-.03.03-.05.07-.05.11,0,.05.02.08.06.1.02.01.08.03.17.05l.13.03c.06.01.11.04.15.06.06.04.09.11.09.2,0,.11-.04.18-.11.23-.08.05-.16.07-.26.07-.12,0-.21-.03-.27-.09-.07-.06-.1-.14-.1-.25h.12Z"/>
    <path d="m73.11,38.43s.05-.01.05-.03c0-.01,0-.03,0-.05,0-.04-.01-.07-.04-.09s-.07-.03-.12-.03c-.06,0-.11.02-.13.05-.01.02-.02.05-.03.08h-.11c0-.09.03-.15.08-.18.05-.03.12-.05.19-.05.08,0,.15.02.2.05.05.03.08.08.08.15v.4s0,.02,0,.03.02.01.03.01c0,0,.01,0,.02,0,0,0,.01,0,.02,0v.09s-.03,0-.04,0-.02,0-.04,0c-.04,0-.07-.01-.09-.04,0-.02-.02-.04-.02-.06-.02.03-.06.06-.1.08s-.09.03-.15.03c-.07,0-.12-.02-.16-.06-.04-.04-.06-.09-.06-.15,0-.06.02-.12.06-.15s.09-.06.16-.07l.19-.02Zm-.25.32s.05.03.09.03c.04,0,.08,0,.12-.03.07-.03.1-.08.1-.16v-.09s-.03.02-.06.02c-.02,0-.04.01-.07.01h-.07s-.07.02-.1.04c-.04.02-.05.05-.05.1,0,.03.01.06.04.08Z"/>
    <path d="m73.48,37.89h.12v.96h-.12v-.96Z"/>
    <path d="m73.81,38.71h.14v.14h-.14v-.14Z"/>
    <path d="m74.87,38.01s.07.1.07.16-.02.12-.07.16-.1.07-.16.07-.12-.02-.16-.07-.07-.1-.07-.16.02-.12.07-.16c.04-.04.1-.07.16-.07s.12.02.16.07Zm-.07.26s.04-.06.04-.1-.01-.07-.04-.1c-.03-.03-.06-.04-.1-.04s-.07.01-.1.04c-.03.03-.04.06-.04.1s.01.07.04.1c.03.03.06.04.1.04s.07-.01.1-.04Zm.45-.35h.07l-.52.96h-.07l.52-.96Zm.26.54s.07.1.07.16-.02.12-.07.16c-.04.04-.1.07-.16.07s-.12-.02-.16-.07c-.04-.04-.07-.1-.07-.16s.02-.12.07-.16c.04-.04.1-.07.16-.07s.12.02.16.07Zm-.07.26s.04-.06.04-.1-.01-.07-.04-.1-.06-.04-.1-.04-.07.01-.1.04-.04.06-.04.1.01.07.04.1.06.04.1.04.07-.01.1-.04Z"/>
  </g>
  <g>
    <path d="m76.4,37.89h.19l.28.81.27-.81h.19v.96h-.12v-.57s0-.05,0-.1,0-.09,0-.15l-.27.81h-.13l-.28-.81v.03s0,.06,0,.11,0,.08,0,.11v.57h-.12v-.96Z"/>
    <path d="m78.01,38.22c.06.06.09.15.09.27s-.03.21-.08.28c-.05.07-.14.11-.25.11-.1,0-.17-.03-.23-.1s-.08-.15-.08-.26c0-.12.03-.21.09-.28.06-.07.14-.1.24-.1.09,0,.17.03.23.09Zm-.07.47c.03-.06.04-.12.04-.2,0-.07-.01-.12-.03-.16-.03-.06-.09-.1-.17-.1-.07,0-.12.03-.16.08-.03.05-.05.12-.05.2s.02.14.05.19c.03.05.08.07.15.07.08,0,.13-.03.16-.09Z"/>
    <path d="m78.25,38.15h.11v.1s.07-.07.11-.09.08-.03.12-.03c.1,0,.17.03.2.1.02.04.03.09.03.16v.45h-.12v-.44s0-.08-.02-.1c-.02-.04-.06-.07-.11-.07-.03,0-.05,0-.07,0-.03,0-.06.03-.09.06-.02.02-.03.05-.04.07,0,.02,0,.06,0,.11v.37h-.12v-.7Z"/>
    <path d="m79.02,37.95h.12v.2h.11v.1h-.11v.46s0,.04.02.05c0,0,.02,0,.05,0,0,0,.01,0,.02,0s.01,0,.02,0v.09s-.03,0-.04,0c-.01,0-.03,0-.05,0-.06,0-.09-.01-.11-.04-.02-.03-.03-.06-.03-.11v-.46h-.09v-.1h.09v-.2Z"/>
    <path d="m79.74,38.43s.05-.01.05-.03c0-.01,0-.03,0-.05,0-.04-.01-.07-.04-.09s-.07-.03-.12-.03c-.06,0-.11.02-.13.05-.01.02-.02.05-.03.08h-.11c0-.09.03-.15.08-.18.05-.03.12-.05.19-.05.08,0,.15.02.2.05.05.03.08.08.08.15v.4s0,.02,0,.03.02.01.03.01c0,0,.01,0,.02,0,0,0,.01,0,.02,0v.09s-.03,0-.04,0-.02,0-.04,0c-.04,0-.07-.01-.09-.04,0-.02-.02-.04-.02-.06-.02.03-.06.06-.1.08s-.09.03-.15.03c-.07,0-.12-.02-.16-.06-.04-.04-.06-.09-.06-.15,0-.06.02-.12.06-.15s.09-.06.16-.07l.19-.02Zm-.25.32s.05.03.09.03c.04,0,.08,0,.12-.03.07-.03.1-.08.1-.16v-.09s-.03.02-.06.02c-.02,0-.04.01-.07.01h-.07s-.07.02-.1.04c-.04.02-.05.05-.05.1,0,.03.01.06.04.08Z"/>
    <path d="m80.11,38.15h.11v.1s.07-.07.11-.09.08-.03.12-.03c.1,0,.17.03.2.1.02.04.03.09.03.16v.45h-.12v-.44s0-.08-.02-.1c-.02-.04-.06-.07-.11-.07-.03,0-.05,0-.07,0-.03,0-.06.03-.09.06-.02.02-.03.05-.04.07,0,.02,0,.06,0,.11v.37h-.12v-.7Z"/>
    <path d="m80.88,37.95h.12v.2h.11v.1h-.11v.46s0,.04.02.05c0,0,.02,0,.05,0,0,0,.01,0,.02,0s.01,0,.02,0v.09s-.03,0-.04,0c-.01,0-.03,0-.05,0-.06,0-.09-.01-.11-.04-.02-.03-.03-.06-.03-.11v-.46h-.09v-.1h.09v-.2Z"/>
    <path d="m81.7,38.54c0,.05.02.1.04.13.04.06.12.1.22.1.05,0,.09,0,.13-.02.07-.03.11-.08.11-.15,0-.05-.02-.09-.05-.11-.03-.02-.08-.04-.15-.06l-.13-.03c-.08-.02-.14-.04-.18-.06-.06-.04-.09-.1-.09-.18,0-.09.03-.16.09-.21s.14-.08.25-.08c.1,0,.18.02.25.07.07.05.1.13.1.23h-.12c0-.05-.02-.09-.04-.12-.04-.05-.1-.08-.19-.08-.07,0-.13.02-.16.05-.03.03-.05.07-.05.11,0,.05.02.08.06.1.02.01.08.03.17.05l.13.03c.06.01.11.04.15.06.06.04.09.11.09.2,0,.11-.04.18-.11.23-.08.05-.16.07-.26.07-.12,0-.21-.03-.27-.09-.07-.06-.1-.14-.1-.25h.12Z"/>
    <path d="m82.87,38.43s.05-.01.05-.03c0-.01,0-.03,0-.05,0-.04-.01-.07-.04-.09s-.07-.03-.12-.03c-.06,0-.11.02-.13.05-.01.02-.02.05-.03.08h-.11c0-.09.03-.15.08-.18.05-.03.12-.05.19-.05.08,0,.15.02.2.05.05.03.08.08.08.15v.4s0,.02,0,.03.02.01.03.01c0,0,.01,0,.02,0,0,0,.01,0,.02,0v.09s-.03,0-.04,0-.02,0-.04,0c-.04,0-.07-.01-.09-.04,0-.02-.02-.04-.02-.06-.02.03-.06.06-.1.08s-.09.03-.15.03c-.07,0-.12-.02-.16-.06-.04-.04-.06-.09-.06-.15,0-.06.02-.12.06-.15s.09-.06.16-.07l.19-.02Zm-.25.32s.05.03.09.03c.04,0,.08,0,.12-.03.07-.03.1-.08.1-.16v-.09s-.03.02-.06.02c-.02,0-.04.01-.07.01h-.07s-.07.02-.1.04c-.04.02-.05.05-.05.1,0,.03.01.06.04.08Z"/>
    <path d="m83.25,37.89h.12v.96h-.12v-.96Z"/>
    <path d="m83.57,38.71h.14v.14h-.14v-.14Z"/>
  </g>
  <g>
    <path d="m85.3,37.89v.11h-.32v.85h-.13v-.85h-.32v-.11h.78Z"/>
    <path d="m85.63,38.43s.05-.01.05-.03c0-.01,0-.03,0-.05,0-.04-.01-.07-.04-.09s-.07-.03-.12-.03c-.06,0-.11.02-.13.05-.01.02-.02.05-.03.08h-.11c0-.09.03-.15.08-.18.05-.03.12-.05.19-.05.08,0,.15.02.2.05.05.03.08.08.08.15v.4s0,.02,0,.03.02.01.03.01c0,0,.01,0,.02,0,0,0,.01,0,.02,0v.09s-.03,0-.04,0-.02,0-.04,0c-.04,0-.07-.01-.09-.04,0-.02-.02-.04-.02-.06-.02.03-.06.06-.1.08s-.09.03-.15.03c-.07,0-.12-.02-.16-.06-.04-.04-.06-.09-.06-.15,0-.06.02-.12.06-.15s.09-.06.16-.07l.19-.02Zm-.25.32s.05.03.09.03c.04,0,.08,0,.12-.03.07-.03.1-.08.1-.16v-.09s-.03.02-.06.02c-.02,0-.04.01-.07.01h-.07s-.07.02-.1.04c-.04.02-.05.05-.05.1,0,.03.01.06.04.08Z"/>
    <path d="m86.12,38.15v.47s0,.07.02.09c.02.04.06.06.11.06.08,0,.13-.04.16-.11.02-.04.02-.09.02-.16v-.34h.12v.7h-.11v-.1s-.03.05-.05.07c-.04.04-.1.06-.16.06-.1,0-.17-.03-.2-.1-.02-.04-.03-.08-.03-.14v-.48h.12Z"/>
    <path d="m86.68,38.15h.15l.16.25.16-.25h.14s-.24.34-.24.34l.25.36h-.15l-.17-.26-.17.26h-.15l.25-.36-.23-.34Z"/>
    <path d="m87.82,37.89h.43c.09,0,.15.02.21.07.05.05.08.12.08.2,0,.08-.02.14-.07.2-.05.06-.12.08-.21.08h-.3v.41h-.13v-.96Zm.51.13s-.07-.02-.12-.02h-.26v.33h.26c.06,0,.11-.01.14-.04s.05-.07.05-.13c0-.07-.03-.12-.08-.14Z"/>
    <path d="m89.06,38.43s.05-.01.05-.03c0-.01,0-.03,0-.05,0-.04-.01-.07-.04-.09s-.07-.03-.12-.03c-.06,0-.11.02-.13.05-.01.02-.02.05-.03.08h-.11c0-.09.03-.15.08-.18.05-.03.12-.05.19-.05.08,0,.15.02.2.05.05.03.08.08.08.15v.4s0,.02,0,.03.02.01.03.01c0,0,.01,0,.02,0,0,0,.01,0,.02,0v.09s-.03,0-.04,0-.02,0-.04,0c-.04,0-.07-.01-.09-.04,0-.02-.02-.04-.02-.06-.02.03-.06.06-.1.08s-.09.03-.15.03c-.07,0-.12-.02-.16-.06-.04-.04-.06-.09-.06-.15,0-.06.02-.12.06-.15s.09-.06.16-.07l.19-.02Zm-.25.32s.05.03.09.03c.04,0,.08,0,.12-.03.07-.03.1-.08.1-.16v-.09s-.03.02-.06.02c-.02,0-.04.01-.07.01h-.07s-.07.02-.1.04c-.04.02-.05.05-.05.1,0,.03.01.06.04.08Z"/>
    <path d="m89.46,37.95h.12v.2h.11v.1h-.11v.46s0,.04.02.05c0,0,.02,0,.05,0,0,0,.01,0,.02,0s.01,0,.02,0v.09s-.03,0-.04,0c-.01,0-.03,0-.05,0-.06,0-.09-.01-.11-.04-.02-.03-.03-.06-.03-.11v-.46h-.09v-.1h.09v-.2Z"/>
    <path d="m89.83,38.71h.14v.14h-.14v-.14Z"/>
    <path d="m90.9,38.01s.07.1.07.16-.02.12-.07.16-.1.07-.16.07-.12-.02-.16-.07-.07-.1-.07-.16.02-.12.07-.16c.04-.04.1-.07.16-.07s.12.02.16.07Zm-.07.26s.04-.06.04-.1-.01-.07-.04-.1c-.03-.03-.06-.04-.1-.04s-.07.01-.1.04c-.03.03-.04.06-.04.1s.01.07.04.1c.03.03.06.04.1.04s.07-.01.1-.04Zm.45-.35h.07l-.52.96h-.07l.52-.96Zm.26.54s.07.1.07.16-.02.12-.07.16c-.04.04-.1.07-.16.07s-.12-.02-.16-.07c-.04-.04-.07-.1-.07-.16s.02-.12.07-.16c.04-.04.1-.07.16-.07s.12.02.16.07Zm-.07.26s.04-.06.04-.1-.01-.07-.04-.1-.06-.04-.1-.04-.07.01-.1.04-.04.06-.04.1.01.07.04.1.06.04.1.04.07-.01.1-.04Z"/>
  </g>
  <g>
    <path d="m92.43,37.89h.19l.28.81.27-.81h.19v.96h-.12v-.57s0-.05,0-.1,0-.09,0-.15l-.27.81h-.13l-.28-.81v.03s0,.06,0,.11,0,.08,0,.11v.57h-.12v-.96Z"/>
    <path d="m94.05,38.22c.06.06.09.15.09.27s-.03.21-.08.28c-.05.07-.14.11-.25.11-.1,0-.17-.03-.23-.1s-.08-.15-.08-.26c0-.12.03-.21.09-.28.06-.07.14-.1.24-.1.09,0,.17.03.23.09Zm-.07.47c.03-.06.04-.12.04-.2,0-.07-.01-.12-.03-.16-.03-.06-.09-.1-.17-.1-.07,0-.12.03-.16.08-.03.05-.05.12-.05.2s.02.14.05.19c.03.05.08.07.15.07.08,0,.13-.03.16-.09Z"/>
    <path d="m94.28,38.15h.11v.1s.07-.07.11-.09.08-.03.12-.03c.1,0,.17.03.2.1.02.04.03.09.03.16v.45h-.12v-.44s0-.08-.02-.1c-.02-.04-.06-.07-.11-.07-.03,0-.05,0-.07,0-.03,0-.06.03-.09.06-.02.02-.03.05-.04.07,0,.02,0,.06,0,.11v.37h-.12v-.7Z"/>
    <path d="m95.05,37.95h.12v.2h.11v.1h-.11v.46s0,.04.02.05c0,0,.02,0,.05,0,0,0,.01,0,.02,0s.01,0,.02,0v.09s-.03,0-.04,0c-.01,0-.03,0-.05,0-.06,0-.09-.01-.11-.04-.02-.03-.03-.06-.03-.11v-.46h-.09v-.1h.09v-.2Z"/>
    <path d="m95.78,38.43s.05-.01.05-.03c0-.01,0-.03,0-.05,0-.04-.01-.07-.04-.09s-.07-.03-.12-.03c-.06,0-.11.02-.13.05-.01.02-.02.05-.03.08h-.11c0-.09.03-.15.08-.18.05-.03.12-.05.19-.05.08,0,.15.02.2.05.05.03.08.08.08.15v.4s0,.02,0,.03.02.01.03.01c0,0,.01,0,.02,0,0,0,.01,0,.02,0v.09s-.03,0-.04,0-.02,0-.04,0c-.04,0-.07-.01-.09-.04,0-.02-.02-.04-.02-.06-.02.03-.06.06-.1.08s-.09.03-.15.03c-.07,0-.12-.02-.16-.06-.04-.04-.06-.09-.06-.15,0-.06.02-.12.06-.15s.09-.06.16-.07l.19-.02Zm-.25.32s.05.03.09.03c.04,0,.08,0,.12-.03.07-.03.1-.08.1-.16v-.09s-.03.02-.06.02c-.02,0-.04.01-.07.01h-.07s-.07.02-.1.04c-.04.02-.05.05-.05.1,0,.03.01.06.04.08Z"/>
    <path d="m96.15,38.15h.11v.1s.07-.07.11-.09.08-.03.12-.03c.1,0,.17.03.2.1.02.04.03.09.03.16v.45h-.12v-.44s0-.08-.02-.1c-.02-.04-.06-.07-.11-.07-.03,0-.05,0-.07,0-.03,0-.06.03-.09.06-.02.02-.03.05-.04.07,0,.02,0,.06,0,.11v.37h-.12v-.7Z"/>
    <path d="m96.92,37.95h.12v.2h.11v.1h-.11v.46s0,.04.02.05c0,0,.02,0,.05,0,0,0,.01,0,.02,0s.01,0,.02,0v.09s-.03,0-.04,0c-.01,0-.03,0-.05,0-.06,0-.09-.01-.11-.04-.02-.03-.03-.06-.03-.11v-.46h-.09v-.1h.09v-.2Z"/>
    <path d="m97.67,37.89h.43c.09,0,.15.02.21.07.05.05.08.12.08.2,0,.08-.02.14-.07.2-.05.06-.12.08-.21.08h-.3v.41h-.13v-.96Zm.51.13s-.07-.02-.12-.02h-.26v.33h.26c.06,0,.11-.01.14-.04s.05-.07.05-.13c0-.07-.03-.12-.08-.14Z"/>
    <path d="m98.91,38.43s.05-.01.05-.03c0-.01,0-.03,0-.05,0-.04-.01-.07-.04-.09s-.07-.03-.12-.03c-.06,0-.11.02-.13.05-.01.02-.02.05-.03.08h-.11c0-.09.03-.15.08-.18.05-.03.12-.05.19-.05.08,0,.15.02.2.05.05.03.08.08.08.15v.4s0,.02,0,.03.02.01.03.01c0,0,.01,0,.02,0,0,0,.01,0,.02,0v.09s-.03,0-.04,0-.02,0-.04,0c-.04,0-.07-.01-.09-.04,0-.02-.02-.04-.02-.06-.02.03-.06.06-.1.08s-.09.03-.15.03c-.07,0-.12-.02-.16-.06-.04-.04-.06-.09-.06-.15,0-.06.02-.12.06-.15s.09-.06.16-.07l.19-.02Zm-.25.32s.05.03.09.03c.04,0,.08,0,.12-.03.07-.03.1-.08.1-.16v-.09s-.03.02-.06.02c-.02,0-.04.01-.07.01h-.07s-.07.02-.1.04c-.04.02-.05.05-.05.1,0,.03.01.06.04.08Z"/>
    <path d="m99.3,37.95h.12v.2h.11v.1h-.11v.46s0,.04.02.05c0,0,.02,0,.05,0,0,0,.01,0,.02,0s.01,0,.02,0v.09s-.03,0-.04,0c-.01,0-.03,0-.05,0-.06,0-.09-.01-.11-.04-.02-.03-.03-.06-.03-.11v-.46h-.09v-.1h.09v-.2Z"/>
    <path d="m99.68,38.71h.14v.14h-.14v-.14Z"/>
  </g>
  <rect x="30.25" y="30.75" width="8.06" height=".53"/>
  <rect x="29.99" y="40.95" width="25.25" height=".74"/>
  <rect x="63.31" y="40.95" width="4.42" height=".74"/>
  <rect x="63.31" y="42.33" width="4.42" height=".74"/>
  <rect x="63.31" y="43.72" width="4.42" height=".74"/>
  <rect x="63.31" y="47.87" width="4.42" height=".74"/>
  <rect x="63.31" y="50.64" width="4.42" height=".74"/>
  <rect x="63.31" y="52.03" width="4.42" height=".74"/>
  <rect x="63.31" y="53.41" width="4.42" height=".74"/>
  <rect x="63.31" y="54.8" width="4.42" height=".74"/>
  <rect x="63.31" y="56.18" width="4.42" height=".74"/>
  <rect x="63.31" y="57.57" width="4.42" height=".74"/>
  <rect x="63.31" y="58.95" width="4.42" height=".74"/>
  <rect x="63.31" y="60.34" width="4.42" height=".74"/>
  <rect x="63.31" y="68.65" width="4.42" height=".74"/>
  <rect x="63.31" y="70.03" width="4.42" height=".74"/>
  <rect x="63.31" y="71.42" width="4.42" height=".74"/>
  <rect x="63.31" y="72.8" width="4.42" height=".74"/>
  <rect x="63.31" y="74.19" width="4.42" height=".74"/>
  <rect x="63.31" y="75.57" width="4.42" height=".74"/>
  <rect x="63.31" y="76.96" width="4.42" height=".74"/>
  <rect x="63.31" y="78.34" width="4.42" height=".74"/>
  <rect x="63.31" y="79.73" width="4.42" height=".74"/>
  <rect x="63.31" y="81.11" width="4.42" height=".74"/>
  <rect x="63.31" y="88.21" width="4.42" height=".74"/>
  <rect x="71.18" y="78.34" width="4.42" height=".74"/>
  <rect x="71.18" y="79.73" width="4.42" height=".74"/>
  <rect x="71.18" y="81.11" width="4.42" height=".74"/>
  <rect x="71.18" y="88.21" width="4.42" height=".74"/>
  <rect x="72.01" y="92.38" width="4.42" height=".74"/>
  <rect x="57.56" y="92.38" width="4.42" height=".74"/>
  <rect x="49.41" y="92.38" width="4.42" height=".74"/>
  <rect x="50.41" y="93.98" width="4.42" height=".74"/>
  <rect x="50.41" y="95.34" width="4.42" height=".74"/>
  <rect x="50.41" y="96.7" width="4.42" height=".74"/>
  <rect x="59.17" y="93.98" width="4.42" height=".74"/>
  <rect x="59.17" y="95.34" width="4.42" height=".74"/>
  <rect x="59.17" y="96.7" width="4.42" height=".74"/>
  <rect x="64.48" y="93.98" width="8.18" height=".74"/>
  <rect x="64.48" y="95.34" width="8.18" height=".74"/>
  <rect x="64.48" y="96.7" width="8.18" height=".74"/>
  <rect x="28.31" y="93.98" width="8.18" height=".74"/>
  <rect x="28.31" y="95.34" width="8.18" height=".74"/>
  <rect x="28.31" y="96.7" width="8.18" height=".74"/>
  <rect x="48.22" y="114.26" width="31.6" height=".71"/>
  <rect x="43.94" y="115.73" width="40.08" height=".71"/>
  <rect x="35.73" y="92.38" width="4.42" height=".74"/>
  <rect x="79.23" y="78.34" width="4.42" height=".74"/>
  <rect x="79.23" y="79.73" width="4.42" height=".74"/>
  <rect x="79.23" y="81.11" width="4.42" height=".74"/>
  <rect x="79.23" y="82.5" width="4.42" height=".74"/>
  <rect x="63.31" y="63.11" width="4.42" height=".74"/>
  <rect x="63.31" y="64.49" width="4.42" height=".74"/>
  <rect x="63.31" y="65.88" width="4.42" height=".74"/>
  <rect x="71.18" y="65.88" width="4.42" height=".74"/>
  <rect x="79.23" y="65.88" width="4.42" height=".74"/>
  <rect x="71.18" y="50.64" width="4.42" height=".74"/>
  <rect x="71.18" y="52.03" width="4.42" height=".74"/>
  <rect x="71.18" y="53.41" width="4.42" height=".74"/>
  <rect x="71.18" y="54.8" width="4.42" height=".74"/>
  <rect x="71.18" y="56.18" width="4.42" height=".74"/>
  <rect x="71.18" y="57.57" width="4.42" height=".74"/>
  <rect x="71.18" y="58.95" width="4.42" height=".74"/>
  <rect x="71.18" y="60.34" width="4.42" height=".74"/>
  <rect x="87.23" y="50.64" width="4.42" height=".74"/>
  <rect x="87.23" y="52.03" width="4.42" height=".74"/>
  <rect x="87.23" y="53.41" width="4.42" height=".74"/>
  <rect x="87.23" y="54.8" width="4.42" height=".74"/>
  <rect x="87.23" y="56.18" width="4.42" height=".74"/>
  <rect x="87.23" y="57.57" width="4.42" height=".74"/>
  <rect x="87.23" y="58.95" width="4.42" height=".74"/>
  <rect x="87.23" y="60.34" width="4.42" height=".74"/>
  <rect x="87.23" y="68.65" width="4.42" height=".74"/>
  <rect x="87.23" y="70.03" width="4.42" height=".74"/>
  <rect x="87.23" y="71.42" width="4.42" height=".74"/>
  <rect x="87.23" y="72.8" width="4.42" height=".74"/>
  <rect x="87.23" y="74.19" width="4.42" height=".74"/>
  <rect x="87.23" y="75.57" width="4.42" height=".74"/>
  <rect x="87.23" y="76.96" width="4.42" height=".74"/>
  <rect x="95.19" y="68.65" width="4.42" height=".74"/>
  <rect x="95.19" y="70.03" width="4.42" height=".74"/>
  <rect x="95.19" y="71.42" width="4.42" height=".74"/>
  <rect x="95.19" y="72.8" width="4.42" height=".74"/>
  <rect x="95.19" y="74.19" width="4.42" height=".74"/>
  <rect x="95.19" y="75.57" width="4.42" height=".74"/>
  <rect x="95.19" y="76.96" width="4.42" height=".74"/>
  <rect x="95.19" y="84.01" width="4.42" height=".74"/>
  <rect x="97.32" y="85.63" width="2.3" height=".74"/>
  <rect x="86.22" y="85.63" width="3.86" height=".74"/>
  <rect x="93.79" y="85.63" width=".74" height=".74"/>
  <rect x="79.23" y="84.01" width="4.42" height=".74"/>
  <rect x="79.23" y="88.21" width="4.42" height=".74"/>
  <rect x="79.23" y="90.5" width="4.42" height=".74"/>
  <rect x="93.7" y="87.35" width="2.07" height=".74"/>
  <rect x="93.7" y="90.73" width="2.07" height=".74"/>
  <rect x="97.55" y="90.73" width="2.07" height=".74"/>
  <rect x="84.58" y="87.56" width="3.16" height=".74"/>
  <rect x="84.58" y="89.11" width="6.64" height=".74"/>
  <rect x="84.58" y="90.73" width="2.86" height=".74"/>
  <rect x="86.16" y="92.38" width="4.01" height=".74"/>
  <rect x="87.54" y="93.96" width="4.1" height=".74"/>
  <rect x="87.54" y="95.36" width="4.1" height=".74"/>
  <rect x="87.54" y="96.77" width="4.1" height=".74"/>
  <rect x="95.51" y="93.96" width="4.1" height=".74"/>
  <rect x="95.51" y="95.36" width="4.1" height=".74"/>
  <rect x="95.51" y="96.77" width="4.1" height=".74"/>
  <rect x="94.17" y="92.38" width="4.01" height=".74"/>
  <rect x="77.45" y="85.62" width="6.2" height="1.2"/>
  <rect x="87.23" y="63.11" width="4.42" height=".74"/>
  <rect x="87.23" y="64.49" width="4.42" height=".74"/>
  <rect x="87.23" y="65.88" width="4.42" height=".74"/>
  <rect x="95.19" y="63.11" width="4.42" height=".74"/>
  <rect x="95.19" y="64.49" width="4.42" height=".74"/>
  <rect x="95.19" y="65.88" width="4.42" height=".74"/>
  <rect x="95.19" y="50.64" width="4.42" height=".74"/>
  <rect x="95.19" y="52.03" width="4.42" height=".74"/>
  <rect x="95.19" y="53.41" width="4.42" height=".74"/>
  <rect x="95.19" y="54.8" width="4.42" height=".74"/>
  <rect x="95.19" y="56.18" width="4.42" height=".74"/>
  <rect x="95.19" y="57.57" width="4.42" height=".74"/>
  <rect x="95.19" y="40.95" width="4.42" height=".74"/>
  <rect x="95.19" y="42.33" width="4.42" height=".74"/>
  <rect x="95.19" y="43.72" width="4.42" height=".74"/>
  <rect x="87.23" y="40.95" width="4.42" height=".74"/>
  <rect x="87.23" y="42.33" width="4.42" height=".74"/>
  <rect x="87.23" y="43.72" width="4.42" height=".74"/>
  <rect x="87.23" y="47.87" width="4.42" height=".74"/>
  <rect x="95.19" y="45.1" width="4.42" height=".74"/>
  <rect x="79.23" y="45.1" width="4.42" height=".74"/>
  <rect x="95.19" y="46.49" width="4.42" height=".74"/>
  <rect x="95.19" y="47.87" width="4.42" height=".74"/>
  <rect x="95.19" y="58.95" width="4.42" height=".74"/>
  <rect x="95.19" y="60.34" width="4.42" height=".74"/>
  <rect x="79.23" y="50.64" width="4.42" height=".74"/>
  <rect x="79.23" y="52.03" width="4.42" height=".74"/>
  <rect x="79.23" y="53.41" width="4.42" height=".74"/>
  <rect x="79.23" y="54.8" width="4.42" height=".74"/>
  <rect x="79.23" y="56.18" width="4.42" height=".74"/>
  <rect x="79.23" y="57.57" width="4.42" height=".74"/>
  <rect x="79.23" y="58.95" width="4.42" height=".74"/>
  <rect x="29.99" y="42.33" width="25.25" height=".74"/>
  <rect x="29.99" y="43.72" width="25.25" height=".74"/>
  <rect x="29.99" y="45.1" width="25.25" height=".74"/>
  <rect x="29.99" y="46.49" width="25.25" height=".74"/>
  <rect x="29.99" y="47.87" width="25.25" height=".74"/>
  <rect x="29.99" y="49.26" width="25.25" height=".74"/>
  <rect x="29.99" y="50.64" width="25.25" height=".74"/>
  <rect x="29.99" y="52.03" width="25.25" height=".74"/>
  <rect x="29.99" y="53.41" width="25.25" height=".74"/>
  <rect x="29.99" y="54.8" width="25.25" height=".74"/>
  <rect x="29.99" y="56.18" width="25.25" height=".74"/>
  <rect x="29.99" y="57.57" width="25.25" height=".74"/>
  <rect x="29.99" y="58.95" width="25.25" height=".74"/>
  <rect x="29.99" y="60.34" width="25.25" height=".74"/>
  <rect x="29.99" y="61.72" width="25.25" height=".74"/>
  <rect x="29.99" y="63.11" width="25.25" height=".74"/>
  <rect x="29.99" y="64.49" width="25.25" height=".74"/>
  <rect x="29.99" y="65.88" width="25.25" height=".74"/>
  <rect x="29.99" y="67.26" width="25.25" height=".74"/>
  <rect x="29.99" y="68.65" width="25.25" height=".74"/>
  <rect x="29.99" y="70.03" width="25.25" height=".74"/>
  <rect x="29.99" y="71.42" width="25.25" height=".74"/>
  <rect x="29.99" y="72.8" width="25.25" height=".74"/>
  <rect x="29.99" y="74.19" width="25.25" height=".74"/>
  <rect x="29.99" y="75.57" width="25.25" height=".74"/>
  <rect x="29.99" y="76.96" width="25.25" height=".74"/>
  <rect x="29.99" y="78.34" width="25.25" height=".74"/>
  <rect x="29.99" y="79.73" width="25.25" height=".74"/>
  <rect x="29.99" y="81.11" width="25.25" height=".74"/>
  <rect x="29.99" y="82.5" width="25.25" height=".74"/>
  <rect x="29.99" y="83.88" width="27.82" height=".74"/>
  <rect x="28.31" y="88.21" width="27.82" height=".74"/>
  <rect x="29.99" y="39.56" width="2.85" height=".74"/>
  <rect x="79.55" y="30.75" width="4.27" height=".53"/>
  <rect x="79.55" y="36.41" width="4.27" height=".53"/>
  <rect x="87.34" y="36.41" width="4.27" height=".53"/>
  <g>
    <path d="m35.54,86.74h-.24l-.46-.8v.8h-.22v-1.13h.25l.45.79v-.79h.22v1.13Z"/>
    <path d="m36.54,86.25h-.55v.29h.62v.2h-.85v-1.13h.83v.2h-.6v.24h.55v.2Z"/>
    <path d="m37.62,85.62v.2h-.34v.93h-.24v-.93h-.34v-.2h.91Z"/>
    <path d="m38.85,86.51h-.41l-.08.23h-.25l.4-1.13h.27l.4,1.13h-.26l-.07-.23Zm-.47-1.21h.24l.15.23h-.16l-.23-.23Zm.4,1.02l-.14-.44-.15.44h.29Z"/>
    <path d="m40.24,86.34h-.24v.41h-.23v-1.13h.49c.11,0,.2.03.27.09s.1.15.1.27c0,.13-.03.23-.1.28s-.16.08-.29.08Zm.11-.23s.05-.07.05-.13-.02-.1-.05-.13c-.03-.02-.07-.04-.13-.04h-.22v.33h.22c.06,0,.1-.01.13-.04Z"/>
    <path d="m41.35,86.51h-.41l-.08.23h-.25l.4-1.13h.27l.4,1.13h-.26l-.07-.23Zm-.07-.19l-.14-.44-.15.44h.29Z"/>
    <path d="m42.58,85.62l-.38.7v.42h-.24v-.42l-.39-.7h.28l.23.49.22-.49h.27Z"/>
    <path d="m43.5,86.25h-.55v.29h.62v.2h-.85v-1.13h.83v.2h-.6v.24h.55v.2Z"/>
    <path d="m44.24,86.3h-.24v.44h-.23v-1.13h.55c.08,0,.14.01.18.03s.08.04.11.08c.02.03.04.06.06.09.01.03.02.07.02.12,0,.05-.01.11-.04.16-.03.05-.07.09-.13.11.05.02.09.05.11.09s.03.1.03.18v.08c0,.05,0,.09,0,.1,0,.03.02.05.04.06v.03h-.26s-.01-.04-.02-.06c0-.03,0-.06,0-.1v-.1c0-.07-.02-.12-.04-.14-.03-.02-.07-.04-.14-.04Zm.14-.2s.07-.06.07-.13c0-.07-.02-.11-.07-.14-.03-.01-.06-.02-.11-.02h-.27v.3h.27c.05,0,.09,0,.12-.02Z"/>
    <path d="m45.93,86.51h-.41l-.08.23h-.25l.4-1.13h.27l.4,1.13h-.26l-.07-.23Zm-.07-.19l-.14-.44-.15.44h.29Z"/>
    <path d="m46.2,85.62h.25l.24.86.25-.86h.24l-.38,1.13h-.22l-.38-1.13Z"/>
    <path d="m47.87,86.51h-.41l-.08.23h-.25l.4-1.13h.27l.4,1.13h-.26l-.07-.23Zm-.07-.19l-.14-.44-.15.44h.29Z"/>
    <path d="m49.26,86.74h-.24l-.46-.8v.8h-.22v-1.13h.25l.45.79v-.79h.22v1.13Z"/>
    <path d="m50.29,85.62v.2h-.34v.93h-.24v-.93h-.34v-.2h.91Z"/>
    <path d="m50.85,85.62h.23v1.13h-.23v-1.13Z"/>
    <path d="m51.52,86.74h-.22v-1.13h.34l.2.89.2-.89h.34v1.13h-.22v-.76s0-.05,0-.09,0-.07,0-.09l-.21.95h-.23l-.21-.95s0,.05,0,.09c0,.04,0,.07,0,.09v.76Z"/>
    <path d="m53.08,86.34h-.24v.41h-.23v-1.13h.49c.11,0,.2.03.27.09s.1.15.1.27c0,.13-.03.23-.1.28s-.16.08-.29.08Zm.11-.23s.05-.07.05-.13-.02-.1-.05-.13c-.03-.02-.07-.04-.13-.04h-.22v.33h.22c.06,0,.1-.01.13-.04Z"/>
    <path d="m54.15,86.77c-.16,0-.28-.04-.37-.13-.11-.11-.17-.26-.17-.46s.06-.36.17-.46c.08-.09.21-.13.37-.13s.28.04.37.13c.11.1.17.26.17.46s-.06.36-.17.46c-.08.09-.21.13-.37.13Zm.22-.3c.05-.07.08-.17.08-.29s-.03-.22-.08-.29-.13-.1-.22-.1-.17.03-.22.1c-.06.07-.08.17-.08.29s.03.22.08.29c.06.07.13.1.22.1s.17-.03.22-.1Zm-.32-1.21h.2l.18.23h-.18l-.1-.13-.1.13h-.18l.18-.23Z"/>
    <path d="m55.68,85.62v.2h-.34v.93h-.24v-.93h-.34v-.2h.91Z"/>
    <path d="m56.67,86.58c.06,0,.1,0,.14-.02.07-.02.1-.07.1-.13,0-.04-.02-.07-.05-.09-.03-.02-.08-.04-.15-.05l-.12-.03c-.12-.03-.2-.06-.24-.09-.08-.05-.11-.13-.11-.24,0-.1.04-.18.11-.25s.18-.1.32-.1c.12,0,.22.03.3.09s.13.15.13.27h-.23c0-.07-.03-.12-.09-.14-.04-.02-.08-.03-.14-.03-.06,0-.11.01-.14.04-.04.02-.05.06-.05.1,0,.04.02.07.05.09.02.01.07.03.15.05l.19.05c.09.02.15.05.19.08.07.05.1.13.1.23s-.04.19-.12.26c-.08.07-.19.1-.33.1s-.26-.03-.35-.1-.13-.16-.13-.28h.22c0,.05.02.09.04.12.04.05.1.07.2.07Z"/>
    <path d="m57.97,86.31v-.69h.24v.69c0,.12-.02.21-.06.28-.07.12-.2.18-.4.18s-.33-.06-.4-.18c-.04-.07-.06-.16-.06-.28v-.69h.24v.69c0,.08,0,.13.03.17.03.06.09.09.19.09s.16-.03.19-.09c.02-.04.03-.09.03-.17Z"/>
    <path d="m58.91,86.3h-.24v.44h-.23v-1.13h.55c.08,0,.14.01.18.03s.08.04.11.08c.02.03.04.06.06.09.01.03.02.07.02.12,0,.05-.01.11-.04.16-.03.05-.07.09-.13.11.05.02.09.05.11.09s.03.1.03.18v.08c0,.05,0,.09,0,.1,0,.03.02.05.04.06v.03h-.26s-.01-.04-.02-.06c0-.03,0-.06,0-.1v-.1c0-.07-.02-.12-.04-.14-.03-.02-.07-.04-.14-.04Zm.14-.2s.07-.06.07-.13c0-.07-.02-.11-.07-.14-.03-.01-.06-.02-.11-.02h-.27v.3h.27c.05,0,.09,0,.12-.02Z"/>
    <path d="m60,85.62h.24v.92h.56v.2h-.79v-1.13Z"/>
    <path d="m61.74,86.25h-.55v.29h.62v.2h-.85v-1.13h.83v.2h-.6v.24h.55v.2Z"/>
    <path d="m62.91,86.3h-.24v.44h-.23v-1.13h.55c.08,0,.14.01.18.03s.08.04.11.08c.02.03.04.06.06.09.01.03.02.07.02.12,0,.05-.01.11-.04.16-.03.05-.07.09-.13.11.05.02.09.05.11.09s.03.1.03.18v.08c0,.05,0,.09,0,.1,0,.03.02.05.04.06v.03h-.26s-.01-.04-.02-.06c0-.03,0-.06,0-.1v-.1c0-.07-.02-.12-.04-.14-.03-.02-.07-.04-.14-.04Zm.14-.2s.07-.06.07-.13c0-.07-.02-.11-.07-.14-.03-.01-.06-.02-.11-.02h-.27v.3h.27c.05,0,.09,0,.12-.02Z"/>
    <path d="m64.34,86.25h-.55v.29h.62v.2h-.85v-1.13h.83v.2h-.6v.24h.55v.2Z"/>
    <path d="m64.52,85.62h.25l.24.86.25-.86h.24l-.38,1.13h-.22l-.38-1.13Z"/>
    <path d="m66.43,86.25h-.55v.29h.62v.2h-.85v-1.13h.83v.2h-.6v.24h.55v.2Z"/>
    <path d="m67.6,86.74h-.24l-.46-.8v.8h-.22v-1.13h.25l.45.79v-.79h.22v1.13Z"/>
    <path d="m68.49,86.31v-.69h.24v.69c0,.12-.02.21-.06.28-.07.12-.2.18-.4.18s-.33-.06-.4-.18c-.04-.07-.06-.16-.06-.28v-.69h.24v.69c0,.08,0,.13.03.17.03.06.09.09.19.09s.16-.03.19-.09c.02-.04.03-.09.03-.17Z"/>
  </g>
  <g>
    <path d="m49.01,91.29h-.17l-.33-.57v.57h-.16v-.8h.18l.32.56v-.56h.16v.8Z"/>
    <path d="m49.73,90.94h-.39v.21h.45v.14h-.61v-.8h.59v.14h-.43v.17h.39v.14Z"/>
    <path d="m50.5,90.49v.14h-.24v.66h-.17v-.66h-.24v-.14h.65Z"/>
    <path d="m51.38,91.13h-.3l-.06.17h-.18l.29-.8h.19l.28.8h-.18l-.05-.17Zm-.33-.87h.17l.1.16h-.11l-.17-.16Zm.29.73l-.1-.32-.1.32h.2Z"/>
    <path d="m52.37,91h-.17v.29h-.17v-.8h.35c.08,0,.15.02.19.06s.07.11.07.19c0,.1-.02.16-.07.2s-.12.06-.21.06Zm.08-.17s.03-.05.03-.09-.01-.07-.03-.09c-.02-.02-.05-.03-.09-.03h-.16v.24h.16s.07,0,.09-.03Z"/>
    <path d="m53.16,91.13h-.3l-.06.17h-.18l.29-.8h.19l.28.8h-.18l-.05-.17Zm-.05-.14l-.1-.32-.1.32h.2Z"/>
    <path d="m54.04,90.49l-.27.5v.3h-.17v-.3l-.28-.5h.2l.17.35.16-.35h.19Z"/>
    <path d="m54.7,90.94h-.39v.21h.45v.14h-.61v-.8h.59v.14h-.43v.17h.39v.14Z"/>
    <path d="m55.23,90.98h-.17v.32h-.16v-.8h.39c.06,0,.1,0,.13.02s.06.03.08.06c.02.02.03.04.04.07.01.02.02.05.02.08,0,.04,0,.08-.03.11-.02.04-.05.06-.1.08.04.01.06.04.08.06s.02.07.02.13v.05s0,.06,0,.07c0,.02.01.04.03.05v.02h-.18s0-.03-.01-.04c0-.02,0-.05,0-.07v-.07c0-.05-.01-.09-.03-.1-.02-.02-.05-.03-.1-.03Zm.1-.15s.05-.05.05-.09c0-.05-.02-.08-.05-.1-.02,0-.05-.01-.08-.01h-.2v.22h.19s.07,0,.09-.01Z"/>
  </g>
  <g>
    <path d="m75.1,105.13v-3.05h-1.1v-.41c.14,0,.28-.01.42-.03.14-.02.26-.06.37-.12s.2-.14.28-.25c.08-.1.13-.24.16-.4h.39v4.25h-.51Z"/>
    <path d="m79.08,101.5c-.12-.12-.29-.17-.49-.17-.22,0-.39.05-.52.16s-.23.24-.31.4c-.07.16-.12.34-.15.53-.03.19-.04.36-.05.53h.01c.12-.18.27-.33.45-.41.18-.09.38-.13.62-.13.2,0,.39.03.55.1.16.07.3.17.41.29s.19.27.25.44.09.35.09.55c0,.16-.02.32-.07.49s-.13.32-.24.46c-.11.14-.26.25-.44.34-.18.09-.41.13-.68.13-.32,0-.57-.06-.76-.19-.19-.13-.34-.29-.44-.49-.1-.2-.17-.42-.21-.66-.03-.24-.05-.47-.05-.7,0-.29.02-.57.08-.85.05-.27.13-.52.25-.73.12-.21.28-.38.48-.51.2-.13.45-.19.76-.19.35,0,.63.09.84.28s.33.46.36.81h-.51c-.02-.19-.1-.35-.22-.46Zm-.92,1.42c-.11.05-.2.12-.28.2-.08.09-.13.19-.17.31-.04.12-.06.24-.06.38s.02.26.06.37c.04.12.1.22.17.3s.17.15.28.2c.11.05.24.08.38.08s.26-.02.37-.08c.11-.05.19-.12.27-.21.07-.09.13-.19.17-.3.04-.11.06-.23.06-.36,0-.13-.02-.26-.05-.38-.03-.12-.09-.22-.16-.31-.07-.09-.16-.15-.27-.21-.11-.05-.23-.08-.38-.08s-.27.03-.38.08Z"/>
    <path d="m82.6,102.14c-.19.29-.36.6-.5.94s-.26.67-.36,1.03c-.09.35-.15.69-.17,1.03h-.57c.02-.36.08-.71.18-1.05.09-.34.22-.67.36-.98s.32-.61.51-.89c.19-.28.4-.54.63-.77h-2.23v-.48h2.75v.44c-.22.21-.42.46-.61.76Z"/>
    <path d="m83.98,101.5c.07-.13.16-.25.28-.34.12-.09.25-.16.4-.21.15-.05.31-.07.47-.07.23,0,.43.03.59.09s.3.14.4.25.18.22.23.35.07.26.07.4c0,.19-.05.37-.16.52-.11.16-.25.28-.43.36.26.08.45.21.57.39s.19.41.19.67c0,.21-.04.39-.11.55-.07.16-.17.29-.3.4-.13.11-.27.19-.45.25-.17.06-.36.08-.55.08s-.39-.03-.57-.08c-.18-.05-.33-.13-.46-.24-.13-.11-.23-.24-.31-.41-.07-.16-.11-.35-.11-.57,0-.25.06-.47.19-.66.13-.19.31-.32.55-.41-.18-.07-.32-.19-.43-.35-.11-.16-.16-.34-.16-.53,0-.18.03-.33.1-.46Zm.54,3.04c.17.15.39.22.65.22.13,0,.25-.02.35-.06s.2-.1.28-.17c.08-.07.14-.16.18-.26s.06-.21.06-.33-.02-.22-.07-.32-.11-.18-.19-.26c-.08-.07-.17-.13-.28-.17s-.22-.06-.34-.06-.24.02-.35.06c-.11.04-.21.09-.29.17-.08.07-.15.16-.19.26-.05.1-.07.21-.07.34,0,.26.08.46.26.6Zm-.04-2.25c.04.09.09.16.16.21.07.06.15.1.24.13.09.03.19.04.29.04.2,0,.37-.06.5-.18s.2-.29.2-.5-.07-.38-.2-.49c-.13-.11-.31-.17-.51-.17-.1,0-.2.01-.29.04-.09.03-.17.07-.24.13-.07.06-.12.12-.16.2-.04.08-.06.17-.06.28,0,.12.02.22.06.3Z"/>
    <path d="m87.99,104.47v.61c0,.23-.05.42-.16.59s-.27.28-.5.35v-.3c.07-.03.12-.06.17-.11.05-.05.08-.1.11-.15.03-.05.05-.11.06-.17.01-.06.01-.11,0-.16h-.35v-.67h.67Z"/>
    <path d="m89.55,104.59c.15.11.32.17.53.17.31,0,.55-.14.7-.41.16-.27.24-.68.26-1.24h-.01c-.1.17-.23.31-.41.42-.18.11-.37.16-.58.16s-.41-.04-.58-.1c-.17-.07-.31-.17-.42-.29-.11-.12-.2-.27-.26-.45-.06-.18-.09-.37-.09-.58s.03-.39.1-.56c.07-.17.16-.32.29-.44.12-.12.27-.22.44-.28s.36-.1.56-.1.39.03.56.09c.18.06.33.17.46.32.13.15.24.36.31.62.08.26.12.6.12,1,0,.74-.12,1.3-.35,1.7s-.61.59-1.12.59c-.36,0-.65-.09-.89-.27-.24-.18-.37-.45-.4-.82h.51c.02.21.1.37.25.48Zm1.34-2.66c-.04-.12-.09-.22-.17-.31-.07-.09-.17-.16-.27-.21-.11-.05-.23-.08-.38-.08-.15,0-.28.03-.39.08-.11.06-.19.13-.26.23-.07.09-.11.2-.14.32-.03.12-.04.25-.04.38,0,.12.02.23.06.34s.1.2.17.29.16.15.26.2c.1.05.21.08.34.08.13,0,.25-.02.36-.08.11-.05.2-.12.28-.2.08-.09.13-.19.17-.3.04-.11.06-.23.06-.36,0-.13-.02-.26-.06-.37Z"/>
    <path d="m92.93,101.4l-.23,1.22h.01c.09-.09.21-.17.36-.22.15-.05.29-.07.44-.07.19,0,.37.03.53.09s.31.15.44.27.22.27.29.46c.07.18.11.4.11.64,0,.18-.03.36-.09.53s-.15.32-.28.45c-.12.13-.28.24-.47.32-.19.08-.4.12-.65.12-.18,0-.36-.03-.52-.08-.16-.05-.31-.13-.43-.23-.12-.1-.22-.23-.29-.38-.07-.15-.11-.32-.11-.52h.51c0,.11.03.21.08.3.05.09.11.18.19.25.08.07.17.12.28.16.11.04.22.06.35.06.12,0,.24-.02.35-.06s.21-.1.29-.19.15-.19.19-.31c.05-.13.07-.27.07-.44,0-.14-.02-.27-.07-.39s-.11-.22-.19-.31-.19-.15-.3-.2c-.12-.05-.25-.07-.39-.07-.17,0-.32.04-.45.11-.13.07-.25.17-.34.29l-.44-.02.4-2.21h2.1v.45h-1.72Z"/>
    <path d="m99.9,101.66c-.28-.28-.57-.41-.86-.41s-.55.13-.74.38c-.16.2-.27.47-.34.8h1.7l-.16.37h-1.58s0,.06,0,.1v.16s0,.04,0,.06h1.49l-.16.37h-1.31c.13.86.51,1.29,1.14,1.29.19,0,.36-.04.51-.11.11-.06.25-.16.41-.32v.63c-.27.17-.58.26-.92.26-.98,0-1.55-.58-1.72-1.75h-.46l.16-.37h.28s0-.04,0-.06v-.16s0-.06,0-.09h-.44l.16-.37h.32c.1-.49.28-.88.55-1.16.3-.32.69-.49,1.16-.49.36,0,.73.13,1.09.38l-.28.5Z"/>
  </g>
  <rect class="cls-8" x="-626.85" y="-282.18" width="1509.9" height="999.05"/>
</svg>