<?xml version="1.0" encoding="UTF-8"?>
<svg id="Calque_1" data-name="Calque 1" xmlns="http://www.w3.org/2000/svg" viewBox="0 0 128 128.13">
  <defs>
    <style>
      .cls-1, .cls-2, .cls-3 {
        stroke: #000;
      }

      .cls-1, .cls-2, .cls-3, .cls-4 {
        stroke-linejoin: round;
      }

      .cls-1, .cls-3, .cls-4 {
        fill: none;
      }

      .cls-2 {
        fill: #fce9b9;
      }

      .cls-2, .cls-3 {
        stroke-width: 2px;
      }

      .cls-2, .cls-3, .cls-4 {
        stroke-linecap: round;
      }

      .cls-4 {
        stroke: #fff;
        stroke-width: 8px;
      }
    </style>
  </defs>
  <path class="cls-3" d="m87.76,60.81c-.2-.68-.42-1.36-.65-2.03-1.09-3.19-2.48-6.29-4.35-9.1-2.41-3.63-5.59-5.88-8.74-8.75l-.95-5.86h-16.66l-.93,5.85c-5.98,5.43-10.47,10.25-13.09,17.85-.24.66-.46,1.34-.67,2.04v49.47c0,4.73,10.31,8.56,23.02,8.56s23.03-3.83,23.03-8.56c0,0,0-49.47,0-49.47Zm-5.01,47.54c-1.63.76-3.59,1.42-5.81,1.93-3.54.82-7.72,1.3-12.2,1.3s-8.66-.48-12.19-1.3c-2.37-.55-4.46-1.26-6.14-2.08v-39.48c4.2,1.49,10.85,2.44,18.33,2.44s13.79-.9,18.01-2.32v39.51Z"/>
  <path class="cls-2" d="m53.98,12.81h21.53c1.89,0,3.43,1.54,3.43,3.43v18.83h-28.39v-18.83c0-1.89,1.54-3.43,3.43-3.43Z"/>
  <line class="cls-1" x1="53.24" y1="12.81" x2="53.24" y2="27.88"/>
  <line class="cls-1" x1="55.55" y1="12.81" x2="55.55" y2="27.88"/>
  <line class="cls-1" x1="57.86" y1="12.81" x2="57.86" y2="27.88"/>
  <line class="cls-1" x1="60.17" y1="12.81" x2="60.17" y2="27.88"/>
  <line class="cls-1" x1="62.48" y1="12.81" x2="62.48" y2="27.88"/>
  <line class="cls-1" x1="64.79" y1="12.81" x2="64.79" y2="27.88"/>
  <line class="cls-1" x1="67.1" y1="12.81" x2="67.1" y2="27.88"/>
  <line class="cls-1" x1="69.4" y1="12.81" x2="69.4" y2="27.88"/>
  <line class="cls-1" x1="71.71" y1="12.81" x2="71.71" y2="27.88"/>
  <line class="cls-1" x1="74.02" y1="12.81" x2="74.02" y2="27.88"/>
  <line class="cls-1" x1="76.33" y1="12.81" x2="76.33" y2="27.88"/>
  <rect class="cls-4" x="-3506.68" y="-1872.09" width="6467.34" height="6437.3"/>
</svg>