<?xml version="1.0" encoding="UTF-8"?>
<svg id="Calque_1" data-name="Calque 1" xmlns="http://www.w3.org/2000/svg" viewBox="0 0 200 128">
  <defs>
    <style>
      .cls-1, .cls-2, .cls-3 {
        stroke-miterlimit: 10;
      }

      .cls-1, .cls-3 {
        stroke: #baa584;
      }

      .cls-2 {
        stroke: #000;
      }

      .cls-2, .cls-3 {
        fill: #a07637;
      }

      .cls-4 {
        fill: none;
        stroke: #fff;
        stroke-linecap: round;
        stroke-linejoin: round;
        stroke-width: 8px;
      }
    </style>
  </defs>
  <g>
    <path class="cls-2" d="m153.2,35.71c-.52,2.1-.52,4.08-3.28,4.11-1.96.03-3.88-.87-3.39-2.33.31-.94-.52-1.04-.39-1.62.54-2.39,1.29-1.43,2.37-3.28.73-1.25,2.4-.14,2.76-.14,2.27,0,2.56.76,1.94,3.26Z"/>
    <circle class="cls-1" cx="149.34" cy="35.87" r=".51"/>
    <path class="cls-2" d="m144.33,40.62c-.63,1.1-.97,3.1-2.04,3.47-.75.26-2.16-.94-3.09-1.11-1.68-.31-2.92-.29-3.34-1.56-.14-.42.24-1.18.32-1.64.34-1.84,2.72-1.66,4.67-2,2.24-.39,4.31,1.38,3.48,2.84Z"/>
    <circle class="cls-1" cx="142.45" cy="40.08" r=".51"/>
    <circle class="cls-1" cx="141.31" cy="39.66" r=".31"/>
    <path class="cls-2" d="m125.77,41.21c.05,1.19-1.02,1.53-1.99,1.93-.79.33-1.94.8-2.95.61-2.24-.41-3.51-1.81-3.17-3.65.17-.92,1.66-1.95,2.74-1.75.92.17,1.33-1.19,2.45-.99,2.24.41,2.81,1.15,2.92,3.83Z"/>
    <circle class="cls-1" cx="122.85" cy="39" r=".51"/>
    <circle class="cls-1" cx="120.03" cy="41.71" r=".31"/>
    <path class="cls-2" d="m143.99,46.23c0,.81.76,1.27.7,2.02-.09,1.15,2.66,1.86,3.41,1.36,2.11-1.38,3.94-1.38,4.2-3.22.51-3.66-1.71-3.85-3.64-3.53-.89.15-1.41.04-2.04-.06-2.24-.37-2.64.86-2.64,3.42Z"/>
    <circle class="cls-1" cx="146.61" cy="47" r=".51"/>
    <circle class="cls-1" cx="150.16" cy="44.96" r=".31"/>
    <path class="cls-2" d="m134.73,43.96c0,1.15.69,2.8-.1,3.55-.6.57-1.66.11-2.62.31-2.23.47-4.41-.01-4.56-1.88-.12-1.46-.02-1.69.51-2.52,1.05-1.65,1.88-2.07,3.05-1.98,2.27.18,3.73.53,3.73,2.51Z"/>
    <circle class="cls-1" cx="132.55" cy="43.53" r=".51"/>
    <circle class="cls-1" cx="131.48" cy="45.78" r=".31"/>
    <path class="cls-2" d="m127.53,36.12c0,1.81.56,2.54,2.32,2.87.34.06,1.02.45,1.38.51,2.26.38,4.2-1.35,4.2-3.22,0-.84-.68-1.48-1.2-2.31-.74-1.18-2.16-1.01-3.41-1.01-2.27,0-3.29.58-3.29,3.15Z"/>
    <circle class="cls-1" cx="132.55" cy="36.26" r=".51"/>
    <path class="cls-2" d="m119.09,47.61c-.49,2.13-.73,1.98-3.52,3.23-2.07.93-4.08-1.12-3.57-2.92.63-2.2,1.15-4.69,3.13-4.17.27.07,2.25.49,2.5.52,1.8.21,1.97,1.15,1.46,3.34Z"/>
    <circle class="cls-1" cx="114.29" cy="45.99" r=".31"/>
    <circle class="cls-1" cx="115.65" cy="47.87" r=".51"/>
    <path class="cls-2" d="m186.67,41.49c-.88-1.97-2.09-3.54.06-5.26,1.53-1.23,3.59-1.7,4.11-.25.33.93,1.05.5,1.3,1.04,1.04,2.22-.14,1.93.15,4.05.19,1.44-1.81,1.58-2.09,1.8-1.79,1.4-2.49.97-3.53-1.38Z"/>
    <circle class="cls-1" cx="189.61" cy="38.99" r=".51"/>
    <path class="cls-2" d="m187.09,41.45c-.63,1.1-.97,3.1-2.04,3.47-.75.26-2.16-.94-3.09-1.11-1.68-.31-2.92-.29-3.34-1.56-.14-.42.24-1.18.32-1.64.34-1.84,2.72-1.66,4.67-2,2.24-.39,4.31,1.38,3.48,2.84Z"/>
    <circle class="cls-1" cx="184.07" cy="39.94" r=".31"/>
    <path class="cls-2" d="m175.1,39.96c.05,1.19-1.02,1.53-1.99,1.93-.79.33-1.94.8-2.95.61-2.24-.41-3.51-1.81-3.17-3.65.17-.92,1.66-1.95,2.74-1.75.92.17,1.33-1.19,2.45-.99,2.24.41,2.81,1.15,2.92,3.83Z"/>
    <circle class="cls-1" cx="172.18" cy="37.75" r=".51"/>
    <circle class="cls-1" cx="169.36" cy="40.46" r=".31"/>
    <path class="cls-2" d="m178.95,46.4c.09.81.9,1.17.93,1.93.04,1.15,2.86,1.54,3.55.97,1.93-1.61,3.76-1.82,3.81-3.68.09-3.69-2.13-3.63-4.02-3.09-.87.25-1.4.2-2.03.17-2.27-.12-2.52,1.15-2.23,3.7Z"/>
    <circle class="cls-1" cx="181.18" cy="47.26" r=".51"/>
    <circle class="cls-1" cx="185.37" cy="43.53" r=".31"/>
    <path class="cls-2" d="m185.6,44.67c0,.81.76,1.27.7,2.02-.09,1.15,2.66,1.86,3.41,1.36,2.11-1.38,3.94-1.38,4.2-3.22.51-3.66-1.71-3.85-3.64-3.53-.89.15-1.41.04-2.04-.06-2.24-.37-2.64.86-2.64,3.42Z"/>
    <circle class="cls-1" cx="187.72" cy="45.78" r=".51"/>
    <circle class="cls-1" cx="192.31" cy="42.55" r=".31"/>
    <path class="cls-2" d="m179.03,36.53c0,.81.76,1.27.7,2.02-.09,1.15,2.66,1.86,3.41,1.36,2.11-1.38,3.94-1.38,4.2-3.22.51-3.66-1.71-3.85-3.64-3.53-.89.15-1.41.04-2.04-.06-2.24-.37-2.64.86-2.64,3.42Z"/>
    <circle class="cls-1" cx="181.15" cy="37.65" r=".51"/>
    <circle class="cls-3" cx="185.74" cy="34.41" r=".31"/>
    <path class="cls-2" d="m176.91,47.84c-1.15,0-2.8.69-3.55-.1-.57-.6-.11-1.66-.31-2.62-.47-2.23.01-4.41,1.88-4.56,1.46-.12,1.69-.02,2.52.51,1.65,1.05,2.07,1.88,1.98,3.05-.18,2.27-.53,3.73-2.51,3.73Z"/>
    <circle class="cls-1" cx="176.92" cy="45.66" r=".51"/>
    <circle class="cls-1" cx="174.04" cy="45.97" r=".31"/>
    <path class="cls-2" d="m173.01,39.24c.23,1.79.88,2.45,2.67,2.55.35.02,1.07.32,1.44.33,2.29.09,3.99-1.88,3.75-3.73-.11-.83-.87-1.38-1.49-2.13-.89-1.08-2.27-.72-3.51-.56-2.26.29-3.19,1-2.86,3.55Z"/>
    <circle class="cls-1" cx="179.3" cy="38.17" r=".51"/>
    <path class="cls-2" d="m173.64,45c-.49,2.13-.73,1.98-3.52,3.23-2.07.93-4.08-1.12-3.57-2.92.63-2.2,1.15-4.69,3.13-4.17.27.07,2.25.49,2.5.52,1.8.21,1.97,1.15,1.46,3.34Z"/>
    <circle class="cls-1" cx="168.84" cy="43.38" r=".31"/>
    <circle class="cls-1" cx="170.2" cy="45.26" r=".51"/>
    <path class="cls-2" d="m18.07,41.86c0,2.16-1.84,3.38-4.12,3.38s-4.2-1.35-4.2-3.22,2.33-3.63,4.61-3.63,3.71.9,3.71,3.47Z"/>
    <path class="cls-2" d="m27.44,45.25c.44,2.11-1.11,3.69-3.34,4.16s-4.39-.46-4.77-2.29,1.54-4.03,3.77-4.49c2.23-.47,3.81.12,4.34,2.63Z"/>
    <path class="cls-2" d="m36.9,42.62c-.39,2.12-2.43,2.99-4.67,2.58-2.24-.41-3.88-2.1-3.54-3.93.34-1.84,2.96-3.14,5.19-2.73,2.24.41,3.48,1.56,3.02,4.08Z"/>
    <path class="cls-2" d="m11.79,48.63c0,2.16-1.84,3.38-4.12,3.38s-4.2-1.35-4.2-3.22,2.33-3.63,4.61-3.63,3.71.9,3.71,3.47Z"/>
    <path class="cls-2" d="m19.21,37.3c0,2.16,1.84,3.38,4.12,3.38s4.2-1.35,4.2-3.22c0-1.87-2.33-3.63-4.61-3.63-2.27,0-3.71.9-3.71,3.47Z"/>
    <path class="cls-2" d="m46.44,36.36c0,2.16-1.84,3.38-4.12,3.38s-4.2-1.35-4.2-3.22,2.33-3.63,4.61-3.63,3.71.9,3.71,3.47Z"/>
    <path class="cls-2" d="m36.09,47.41c0,2.16,1.84,3.38,4.12,3.38,2.27,0,4.2-1.35,4.2-3.22s-2.33-3.63-4.61-3.63c-2.27,0-3.71.9-3.71,3.47Z"/>
    <path class="cls-2" d="m77.7,39.77c0,2.13-1.82,3.33-4.06,3.33s-4.14-1.33-4.14-3.17,2.3-3.57,4.54-3.57,3.65.88,3.65,3.41Z"/>
    <path class="cls-2" d="m82.67,47.4c0,2.13-1.82,3.33-4.06,3.33s-4.14-1.33-4.14-3.17,2.3-3.57,4.54-3.57,3.65.88,3.65,3.41Z"/>
    <path class="cls-2" d="m84.6,41.94c0,2.13-1.82,3.33-4.06,3.33s-4.14-1.33-4.14-3.17,2.3-3.57,4.54-3.57,3.65.88,3.65,3.41Z"/>
    <path class="cls-2" d="m78.58,42.74c0,2.13-1.82,3.33-4.06,3.33s-4.14-1.33-4.14-3.17,2.3-3.57,4.54-3.57,3.65.88,3.65,3.41Z"/>
    <path class="cls-2" d="m76.33,47.4c0,2.13-1.82,3.33-4.06,3.33s-4.14-1.33-4.14-3.17,2.3-3.57,4.54-3.57,3.65.88,3.65,3.41Z"/>
    <path class="cls-2" d="m82.67,37.2c0,2.13-1.82,3.33-4.06,3.33s-4.14-1.33-4.14-3.17,2.3-3.57,4.54-3.57,3.65.88,3.65,3.41Z"/>
    <path class="cls-2" d="m70.15,39.77c0,2.13-1.82,3.33-4.06,3.33s-4.14-1.33-4.14-3.17,2.3-3.57,4.54-3.57,3.65.88,3.65,3.41Z"/>
    <path class="cls-2" d="m71.03,44.03c0,2.13-1.82,3.33-4.06,3.33s-4.14-1.33-4.14-3.17,2.3-3.57,4.54-3.57,3.65.88,3.65,3.41Z"/>
    <path class="cls-2" d="m65.49,41.33c.61,2.04-.79,3.71-2.94,4.35s-4.34-.1-4.87-1.86,1.18-4.08,3.33-4.72,3.75-.2,4.48,2.23Z"/>
    <path class="cls-2" d="m75.13,37.2c0,2.13-1.82,3.33-4.06,3.33s-4.14-1.33-4.14-3.17,2.3-3.57,4.54-3.57,3.65.88,3.65,3.41Z"/>
    <path class="cls-2" d="m89.34,39.21c0,2.13-1.82,3.33-4.06,3.33s-4.14-1.33-4.14-3.17,2.3-3.57,4.54-3.57,3.65.88,3.65,3.41Z"/>
    <path class="cls-2" d="m88.7,44.03c0,2.13-1.82,3.33-4.06,3.33s-4.14-1.33-4.14-3.17,2.3-3.57,4.54-3.57,3.65.88,3.65,3.41Z"/>
    <path class="cls-2" d="m93.21,42.59c-.55,2.06-2.61,2.75-4.78,2.18s-3.65-2.35-3.18-4.13,3.14-2.86,5.3-2.29c2.16.58,3.3,1.79,2.65,4.24Z"/>
  </g>
  <g>
    <path class="cls-2" d="m40.65,99.58c-4.52,0-5.52-1.99-6.38-3.78-.62-1.26-1.14-2.41-3.04-2.88-.86-.21-1.71-.42-2.52-.63-3.57-.89-6.38-1.57-6.85-3.36-.1-.42-.14-1.05.33-1.78,2.14-3.15,13.89-5.51,27.36-5.51,4.38,0,6.76.68,8.66,1.21,1.43.42,2.62.73,4.33.73h0c.38,0,.76,0,1.14-.05.76-.05,1.62-.1,2.52-.1,1.28,0,12.75.1,12.75,4.41,0,1.05-.81,4.62-11.18,7.5-2.81.79-6.99.84-9.75.89-1,0-1.86.05-2.19.05-1.57.21-3.43.79-5.38,1.36-3.04.89-6.57,1.94-9.8,1.94h0Z"/>
    <path class="cls-2" d="m53.09,76.29c-.06-.14-.26-.15-.33-.01-.67,1.31-2.85,3.77-2.56,6.02.4,3.07,4.09,3.23,4.83.16.53-2.2-1.36-4.84-1.95-6.17Z"/>
    <path class="cls-2" d="m62.49,72.76c-.06-.14-.26-.15-.33-.01-.67,1.31-2.85,3.77-2.56,6.02.4,3.07,4.09,3.23,4.83.16.53-2.2-1.36-4.84-1.95-6.17Z"/>
    <path class="cls-2" d="m44.74,69.63c-.06-.14-.26-.15-.33-.01-.67,1.31-2.85,3.77-2.56,6.02.4,3.07,4.09,3.23,4.83.16.53-2.2-1.36-4.84-1.95-6.17Z"/>
    <path class="cls-2" d="m123.17,80.73c-4.56,2.14-17.7,7.02-27.01,4.11-9.31-2.91-10.1,6.29-4.2,8.73,12.41,5.13,28.11,1.71,33.85-4.11,4.96-5.02,1.11-10.49-2.65-8.73Z"/>
    <circle class="cls-1" cx="105.34" cy="89.2" r=".51"/>
    <circle class="cls-1" cx="108.16" cy="92.23" r=".51"/>
    <circle class="cls-1" cx="123.29" cy="85.03" r=".51"/>
    <circle class="cls-1" cx="94.59" cy="87.01" r=".51"/>
    <circle class="cls-1" cx="98.04" cy="91.71" r=".51"/>
    <circle class="cls-1" cx="117.35" cy="86.38" r=".51"/>
    <path class="cls-2" d="m172.77,80.03c-.44-.12-.89-.15-1.34-.14-.35-1.81-1.68-2.48-3.65-2.48-1.12,0-2.25.43-3.11,1.08-.14-2.3-1.54-3.13-3.72-3.13-1.67,0-3.37.95-4.17,2.19-.44-1.58-1.72-2.19-3.57-2.19s-3.78,1.2-4.41,2.67c-.22-.02-.45-.04-.69-.04-1.84,0-3.7,1.15-4.37,2.58-.39.03-.8.11-1.24.24-2.2.65-3.95,3.03-3.41,4.84.54,1.81,2.79,2.56,4.99,1.91.22-.07.43-.15.63-.23.65,1.18,2.18,1.95,3.9,1.95.44,0,.85-.06,1.25-.15-.02.12-.05.23-.05.35,0,1.89,1.94,3.25,4.24,3.25,1.32,0,2.48-.42,3.24-1.18.79.73,1.96,1.18,3.26,1.18,2.3,0,4.16-1.23,4.16-3.42,0-.16-.02-.3-.03-.45.61.26,1.31.41,2.05.41,2,0,3.67-.94,4.06-2.62,2.15.5,4.17-.22,4.71-2.27.67-2.51-.5-3.75-2.72-4.34Zm-21.19,2.99"/>
  </g>
  <rect class="cls-4" x="-2779.01" y="-5543.63" width="6467.34" height="6437.3"/>
</svg>