<?xml version="1.0" encoding="UTF-8"?><svg id="Calque_1" xmlns="http://www.w3.org/2000/svg" viewBox="0 0 200.13 128.13"><defs><style>.cls-1{fill:#b0cad8;}.cls-2{fill:#5b91ad;}.cls-3{fill:#fff;}.cls-4{fill:#8b8b8b;}.cls-5{fill:#acc7d6;}.cls-6{fill:#85adc1;}.cls-7{fill:#b6cedb;}.cls-8{fill:#848484;}.cls-9{fill:none;stroke:#e30613;stroke-linecap:round;stroke-linejoin:round;stroke-width:8px;}.cls-10{fill:#3f3f3f;}.cls-11{fill:#bfbfbf;}.cls-12{fill:#c36d59;}.cls-13{fill:silver;}.cls-14{fill:#040404;}.cls-15{fill:#d3e1e8;}.cls-16{fill:#cbdbe4;}.cls-17{fill:#86adc2;}.cls-18{fill:#bdd3de;}.cls-19{fill:#d7e3ea;}.cls-20{fill:#d8e4eb;}.cls-21{fill:#030303;}.cls-22{fill:#444;}.cls-23{fill:#828282;}.cls-24{fill:#8e8e8e;}.cls-25{fill:#7d7d7d;}.cls-26{fill:#d5e2e9;}.cls-27{fill:#424242;}.cls-28{fill:#414141;}.cls-29{fill:#c8c8c8;}.cls-30{fill:#d6e3ea;}.cls-31{fill:#b3ccd9;}.cls-32{fill:#98bacb;}.cls-33{fill:#84acc1;}.cls-34{fill:#878787;}.cls-35{fill:#aec8d6;}.cls-36{fill:#858585;}.cls-37{fill:#bebebe;}.cls-38{fill:#87aec2;}.cls-39{fill:#c1c1c1;}.cls-40{fill:#bcbcbc;}.cls-41{fill:#af3d23;}.cls-42{fill:#85adc2;}.cls-43{fill:#bbb;}.cls-44{fill:#a3c1d1;}.cls-45{fill:#adc8d6;}.cls-46{fill:#7e7e7e;}.cls-47{fill:#87aec3;}.cls-48{fill:#c0d4df;}.cls-49{fill:#c2c2c2;}.cls-50{fill:#7b7b7b;}.cls-51{fill:#ecd1cb;}.cls-52{fill:#7f7f7f;}.cls-53{fill:#404040;}.cls-54{fill:#88afc3;}.cls-55{fill:#010101;}.cls-56{fill:#888;}.cls-57{fill:#b9b9b9;}.cls-58{fill:#fefefe;}</style></defs><rect class="cls-9" x="-1357.78" y="-1014.53" width="2655.08" height="1511.77"/><path class="cls-10" d="m98.88,16.66h2.55c.05.1.03.18-.07.25-.8.22-1.61.22-2.42,0-.09-.06-.11-.15-.07-.25Z"/><path class="cls-50" d="m101.45,16.78s0-.08-.02-.12h1.11c.05.1.03.18-.06.24-.37.15-.72.22-1.03-.12Z"/><path class="cls-52" d="m98.88,16.66s0,.09-.02.14c-.27.28-.57.24-.89.1-.08-.06-.1-.14-.05-.24h.96Z"/><path class="cls-11" d="m102.55,16.79s0-.09-.01-.13h.8s0,.09,0,.14c-.27.25-.53.25-.79,0Z"/><path class="cls-57" d="m97.92,16.66s-.02.08-.01.12c-.26.27-.52.26-.79.01,0-.04.01-.09,0-.14h.8Z"/><path d="m98.25,108.74c.47.02.95.03,1.42.05.32.09.64.09.97,0,.47-.02.95-.03,1.42-.05.32-.08.65-.08.97,0,1.23-.17,2.46-.23,3.69-.4,1.72-.23,3.4-.59,5.07-1.01,2.18-.56,4.29-1.32,6.35-2.21,2.62-1.13,5.07-2.54,7.44-4.13,3.02-2.02,5.7-4.43,8.13-7.09,3.11-3.4,5.54-7.27,7.48-11.45.38-.83.68-1.7,1.02-2.55.29-.73,1.02-1.07,1.71-.81.68.27.91.84.65,1.64-.91,2.81-2.3,5.4-3.83,7.92-1.56,2.57-3.38,4.93-5.39,7.18-3.08,3.44-6.63,6.25-10.55,8.67-3.04,1.87-6.25,3.34-9.63,4.48-2.61.87-5.28,1.48-8,1.89-1.49.22-2.99.27-4.49.44-.38-.09-.75-.09-1.12,0-.95,0-1.9,0-2.86,0-.38-.09-.75-.09-1.12,0-1.45-.06-2.89-.23-4.34-.43-1.89-.25-3.74-.66-5.59-1.13-2.21-.56-4.33-1.35-6.43-2.23-2.75-1.16-5.35-2.61-7.81-4.3-1.86-1.28-3.61-2.7-5.31-4.2-2.94-2.58-5.41-5.55-7.6-8.77-1.92-2.82-3.43-5.87-4.73-9.02-.21-.51-.3-1.06.15-1.56.42-.46.91-.45,1.46-.33.43.1.55.46.7.77.46.99.88,2.01,1.33,3.01.79,1.75,1.75,3.41,2.79,5.02,2.04,3.17,4.43,6.06,7.2,8.61,2.66,2.45,5.58,4.58,8.74,6.38,3.79,2.15,7.83,3.64,12.05,4.64,1.86.44,3.75.78,5.67.86.52.02,1.02.23,1.55.12.27-.08.54-.08.81,0Z"/><path d="m97.12,16.79c.26,0,.53,0,.79-.01.32,0,.63,0,.95.01.86,0,1.72-.01,2.59-.02.37,0,.74,0,1.1,0,.26,0,.53,0,.79,0,1.94.29,3.9.43,5.83.81,2.57.5,5.07,1.22,7.53,2.09.45.16.64,1,.4,1.58-.27.65-.84.94-1.51.71-1.77-.6-3.54-1.17-5.36-1.56-1.92-.42-3.84-.8-5.81-.91-.52-.03-1.03-.11-1.55-.17-.3-.12-.61-.03-.92-.06-.55,0-1.1,0-1.65,0-.6,0-1.2,0-1.81,0-.36.03-.72-.07-1.07.06-3.44.19-6.81.82-10.12,1.76-2.67.76-5.23,1.79-7.69,3.05-2.98,1.52-5.75,3.37-8.35,5.5-3.53,2.89-6.45,6.3-8.95,10.09-2.22,3.37-3.92,6.99-5.17,10.83-.28.86-.88,1.27-1.53,1.05-.74-.25-1.11-1.05-.86-1.86,1.72-5.4,4.36-10.29,7.82-14.78,1.76-2.28,3.75-4.36,5.87-6.27,3.59-3.24,7.64-5.82,12.05-7.8,3.66-1.64,7.47-2.79,11.42-3.47,1.72-.3,3.44-.48,5.17-.65Z"/><path class="cls-2" d="m145.67,68.97c-1.15-.23-2.25-.57-3.2-1.34-1.18-.96-1.97-2.14-2.3-3.61-.45-1.96-.29-3.87.91-5.54,1.11-1.55,2.62-2.54,4.58-2.71.54-.11,1.08-.1,1.63,0,1.08.07,2.01.52,2.88,1.14.22-.33.08-.65.14-.95,1.16-.17,2.33-.15,3.49-.02h0c.13.16.08.35.08.53,0,4.44,0,8.87,0,13.31,0,.16.02.32-.05.47-.27,1.05-.43,2.14-1.14,3.03-1.27,1.58-2.86,2.56-4.93,2.67-.53-.1-1.06-.09-1.59,0-2.61-.18-5.18-1.96-5.78-4.51-.1-.43-.03-.88-.25-1.3-.12-.22.08-.38.35-.37.9.05,1.79-.05,2.67-.16.39-.05.56.05.67.51.29,1.28,1.58,2.3,2.82,2.36,1.68.08,2.87-.56,3.39-1.87.36-.92.31-1.88.25-2.96-.98.61-1.84,1.28-2.99,1.19-.53.17-1.09-.05-1.61.12Z"/><path class="cls-2" d="m171.65,65.83c1-.04,1.76-.6,2.49-1.18.34-.27.5-.26.76.04.52.59,1.07,1.16,1.57,1.76.19.22.38.48.04.81-1.36,1.32-2.96,2.08-4.87,2.19-.38-.11-.76-.03-1.15-.05-.26-.02-.52.05-.77-.06-2.71-.05-5.97-2.81-5.91-6.22-.08-.48-.09-.96,0-1.43.11-3.3,2.72-5.73,5.73-5.9.59-.1,1.19-.11,1.78,0,3.19.16,5.63,2.88,5.73,6.04.11.38.1.76,0,1.15.05.57-.36.46-.68.46-2.75,0-5.5,0-8.24,0-.25,0-.59-.13-.74.1-.18.28.12.52.25.77.58,1.07,1.63,1.37,2.7,1.65.42-.16.88.05,1.29-.13Z"/><path class="cls-2" d="m98.7,61.67c.07-3.21,2.7-5.75,5.73-5.9.59-.1,1.19-.11,1.78,0,2.57.09,4.95,2.11,5.56,4.73.1.43.21.86.17,1.31.11.38.1.76,0,1.15.05.57-.36.46-.68.46-2.75,0-5.5,0-8.24,0-.25,0-.59-.13-.74.1-.18.28.12.52.25.77.58,1.07,1.63,1.37,2.7,1.65.42-.16.88.05,1.29-.13,1-.04,1.76-.6,2.49-1.18.34-.27.5-.26.76.04.52.59,1.07,1.16,1.57,1.76.19.22.38.48.04.81-1.36,1.32-2.96,2.08-4.87,2.19-.38-.11-.76-.03-1.15-.05-.26-.02-.52.05-.77-.06-1.92-.09-3.37-1.07-4.56-2.47-.9-1.07-1.36-2.33-1.35-3.75-.08-.48-.09-.96,0-1.43Z"/><path d="m29.48,55.78c2.97.06,5.92,2.6,6.22,5.87.22,2.38-.43,4.35-2.11,5.99-1.18,1.15-2.64,1.71-4.28,1.81-.43-.09-.86-.09-1.29,0-1.31-.05-2.51-.44-3.56-1.23-1.33-1-2.33-2.26-2.66-3.93-.76-3.8.72-7.1,4.74-8.33.42-.13.86-.21,1.31-.18.54-.1,1.09-.1,1.63,0Z"/><path class="cls-2" d="m137.07,69.13c-.77,0-1.53.01-2.3.02q-1.12,0-1.26-1.19c-.99.95-2.11,1.46-3.42,1.48-.37-.1-.74-.08-1.12,0-2.34-.07-4.21-2.3-4.44-4.3-.04-.31-.27-.58-.15-.91.14-2.1.02-4.21.06-6.32.01-.66-.07-1.32.05-1.97,1.17-.1,2.35-.16,3.52.03,0,2.51.06,5.03-.01,7.54-.03,1.22.8,2.24,2.24,2.44.36-.16.77.05,1.13-.13.88-.06,1.47-.6,2.05-1.19.24-.25.17-.54.17-.82,0-2.62,0-5.23.01-7.85,1.17-.18,2.35-.14,3.52-.02.1,1.29.04,2.58.04,3.87.01,2.82,0,5.64,0,8.47,0,.28.09.58-.09.85Z"/><path d="m64.83,59.13c0-1.05,0-2.11-.01-3.16,1.1-.22,2.2-.04,3.3-.1.26,0,.24.19.27.37.04.27-.1.56.08.81.83-.69,1.74-1.21,2.85-1.28.49-.1.98-.1,1.47,0,1.1.08,2.05.52,2.76,1.33.26.29.3.26.55.06.93-.74,1.95-1.3,3.18-1.39.54-.11,1.08-.11,1.63,0,2.57.33,4.26,2,4.6,4.53.37,2.78.06,5.57.17,8.36.02.48-.2.5-.56.49-.98-.02-1.96-.01-2.93-.02-.18-.24-.09-.51-.09-.77,0-2.09,0-4.17,0-6.26,0-.26.06-.53-.07-.78-.24-1.33-.71-1.84-1.9-2.06-.33-.1-.66-.11-.99,0-.86.07-1.47.59-2.08,1.12-.16,0-.26-.1-.27-.23-.07-.75-.56-.82-1.17-.81-1.26.02-2.53.04-3.79-.05l-.3-.03c-.25-.16-.56,0-.82-.12-.84.25-1.69.46-2.24,1.23-.09.05-.17.04-.23-.05-.31-.97-.31-.95-1.41-.98-.66-.02-1.36.19-1.98-.22Z"/><path class="cls-2" d="m184.87,55.78c1.42.05,2.61.67,3.74,1.46.36.25.36.51.09.83-.51.6-1.02,1.2-1.51,1.81-.23.3-.37.13-.57-.03-.84-.64-1.77-.97-2.85-.89-.43.03-.8.13-.93.56-.15.5.27.73.62.87.77.31,1.58.53,2.36.82,1.11.41,2.19.86,2.86,1.94.27.44.22.96.51,1.38.09.43.09.85,0,1.28-.32.6-.34,1.31-.84,1.88-.98,1.12-2.2,1.64-3.64,1.74-.43-.09-.85-.08-1.28,0-1.84-.06-3.35-.86-4.7-2.05-.16-.14-.32-.28-.1-.52.53-.61,1.04-1.24,1.56-1.87.3-.37.54-.33.92-.03.96.77,2.02,1.31,3.32,1.16.5-.06.99-.18,1.06-.74.07-.54-.31-.83-.8-1.01-1.39-.51-2.9-.72-4.13-1.61-.84-.61-1.34-1.43-1.28-2.52-.09-.27-.09-.54,0-.81-.15-1.17.44-2.02,1.26-2.72.72-.61,1.59-.95,2.56-.94.59-.1,1.19-.11,1.78,0Z"/><path d="m13.67,55.78c.08-.88-.08-1.78.22-2.63.65-1.85,1.98-2.81,4.25-3.11.38-.08.75-.08,1.13,0,.1.02.21.03.31.05.5.1.45.43.34.79-.05.73,0,1.45-.14,2.18-.08.4-.15.52-.55.51-1.46-.03-2.21.67-2,2.21.74.21,1.49.03,2.24.09.3.03.62-.1.91.1,0,1.1,0,2.2,0,3.3-.97.23-1.96.03-2.94.11-.28.19-.15.48-.15.72-.01,1.33,0,2.66,0,3.99,0,1.43,0,2.86,0,4.29,0,.26.09.53-.09.77-.95,0-1.91-.03-2.86.03-.55.03-.64-.17-.63-.66.01-3.01,0-6.03-.01-9.04-.73-.27-1.52.09-2.25-.2-.05-1.09-.04-2.18,0-3.27.46-.26.96-.05,1.43-.12.28-.04.57.08.83-.09Z"/><path class="cls-2" d="m122.27,55.97c0,1.1,0,2.2,0,3.29-.8.22-1.62.04-2.43.11-.23.02-.55-.16-.67.21,0,2.9,0,5.81,0,8.71,0,.28.1.58-.1.84-.84,0-1.69-.04-2.53.02-.74.06-.98-.13-.97-.93.05-2.93,0-5.85,0-8.78-.73-.27-1.52.09-2.26-.2-.05-1.09-.04-2.18,0-3.27.73-.32,1.53.07,2.26-.21.08-.8-.05-1.61.18-2.41.47-1.7,1.6-2.67,3.24-3.13.35-.1.71-.13,1.07-.2.37-.08.74-.08,1.12,0,.11.02.21.03.32.05.49.1.45.43.33.79.04.92-.1,1.83-.23,2.73-1.56-.21-2.34.27-2.47,1.54.01.52.17.78.8.74.78-.04,1.58-.14,2.35.08Z"/><path d="m128.03,28.22c-.12-.55.24-.82.63-1.06.47-.29.98-.23,1.39.06.61.43,1.21.9,1.74,1.42,1.39,1.35,2.83,2.66,4.11,4.12,2.01,2.31,3.8,4.79,5.35,7.44,1.8,3.09,3.23,6.32,4.28,9.73.21.67-.08,1.32-.69,1.56-.78.31-1.24.19-1.57-.59-.57-1.33-1.03-2.71-1.57-4.06-1.25-3.07-2.86-5.93-4.77-8.64-1.67-2.38-3.55-4.57-5.65-6.57-.95-.9-1.95-1.74-2.92-2.61-.25-.22-.44-.45-.34-.81Z"/><path d="m41.7,69.13c-.98,0-1.96-.01-2.94.03-.46.02-.56-.14-.56-.58.02-4.21.02-8.41.02-12.62,1.11-.22,2.23-.04,3.34-.1.41.18.16.55.22.83.06.27-.1.57.09.84,1.22-1.22,2.81-1.59,4.42-1.89.31-.06.54.09.51.43-.09.92.23,1.81.18,2.73-.02.35-.07.45-.46.51-1.45.25-2.89.58-4.16,1.4-.2.13-.37.28-.5.47-.14,2.37-.02,4.74-.07,7.1,0,.28.09.58-.09.84Z"/><path class="cls-2" d="m97.43,57.54c0,.53.18,1.17-.05,1.56-.23.39-.95.25-1.43.39-1.28.39-2.65.62-3.61,1.69-.14,2.37-.02,4.74-.07,7.1,0,.28.09.58-.09.84-.95,0-1.9-.02-2.85.03-.55.03-.64-.19-.64-.68.02-4.17.02-8.34.02-12.51,1.11-.23,2.23-.04,3.34-.1.4.15.17.49.22.75.06.3-.1.63.09.92,1.25-1.18,2.78-1.67,4.45-1.82.46-.04.47-.05.5.86.16.31-.03.66.13.97Z"/><path d="m57.79,68.06c-.13-.03-.25-.02-.35.1-.83.94-1.96,1.19-3.14,1.29-.38-.1-.75-.08-1.13,0-2.34-.08-4.21-2.3-4.43-4.31-.03-.31-.29-.57-.16-.9.14-1.58.02-3.16.06-4.74.03-1.18-.06-2.37.05-3.55,1.17-.1,2.35-.15,3.52.03,0,2.51.12,5.02-.03,7.52-.1,1.7,1.94,2.96,3.31,2.34.06-.03.15,0,.23,0,.32.09.62-.05.93-.08,1.05-.12,1.37.14,1.37,1.18,0,.39.07.8-.25,1.13Z"/><path class="cls-41" d="m127.24,24.61c-.3.94-.59,1.87-1.39,2.55-1.25,1.08-2.68,1.48-4.23.98-1.67-.54-2.73-1.73-2.98-3.53.09-.43.09-.85,0-1.28.33-2.14,1.75-3.34,3.9-3.65,1.87-.26,4.11,1.3,4.5,3.15.04.19.1.34.19.5.09.43.09.85,0,1.28Z"/><path d="m57.79,68.06c-.01-.63.18-1.38-.09-1.86-.3-.53-1.11-.12-1.69-.23-.1-.02-.19-.08-.28-.12.36-.13.7-.26,1.03-.47.74-.45,1.08-.98,1.05-1.89-.06-2.5-.01-5.01-.01-7.51,1.17-.17,2.35-.14,3.52-.02.1,3.29.03,6.59.04,9.88,0,1.1.13,2.2-.08,3.3-.9,0-1.8-.03-2.69.03-.64.05-.93-.12-.8-.79.02-.1,0-.21,0-.32Z"/><path class="cls-2" d="m161.12,55.97c0,4.16,0,8.32.02,12.49,0,.56-.15.74-.71.71-.93-.05-1.86-.02-2.79-.02-.15-.15-.1-.35-.1-.53,0-4.11,0-8.23,0-12.34,0-.11,0-.21.04-.31,1.18-.15,2.36-.16,3.53,0Z"/><path d="m71.8,59.31c.19-.26.48-.17.73-.17,1.16,0,2.32.03,3.47-.02.65-.03,1.03.1.9.85-.03.15,0,.32.13.44-.06.2-.2.39-.12.62.09,2.7.13,5.41-.02,8.11-1.11,0-2.21,0-3.32,0-.2-.78-.06-1.56-.09-2.35-.06-1.71.08-3.42-.07-5.13-.12-1.07-.46-2-1.62-2.35Z"/><path d="m64.83,59.13c.85,0,1.7.04,2.55-.01.71-.05,1.06.14.93.91-.02.13,0,.26,0,.4.16,1.21.03,2.43.07,3.65-.06,1.69.12,3.38-.09,5.06-1.01,0-2.01,0-3.02.03-.4.01-.48-.14-.47-.5.02-3.18.02-6.35.03-9.53Z"/><path class="cls-2" d="m160.02,49.73c1.5.56,1.96,1.24,1.9,2.83-.03,1.02-.75,1.9-1.78,2.21-1.52.45-3.06-.41-3.33-1.84-.1-.48-.1-.96,0-1.44.13-1.04.87-1.47,1.76-1.75.48-.12.96-.1,1.44,0Z"/><path class="cls-2" d="m108.93,50.55c-.6,1.16-1.2,2.32-1.8,3.48-1.16.15-2.32.13-3.48.01.29-1.26.86-2.43,1.3-3.64,1.27-.21,2.55-.05,3.83-.08.11,0,.16.11.15.23Z"/><path class="cls-2" d="m168.76,54.04c.29-1.26.86-2.43,1.3-3.64,1.27-.21,2.55-.05,3.83-.08.11,0,.17.11.15.23-.6,1.16-1.2,2.32-1.8,3.48-1.16.15-2.32.13-3.48.01Z"/><path class="cls-55" d="m70.68,84.51c-.08.03-.14.08-.17.06-.6-.27-1.14-.28-1.74.13-.31.21-.79-.09-.99-.44-.21-.36-.28-.85.04-1.16.34-.33.44-.58.17-.99-.24-.37-.27-.78.2-1.03.43-.23.93-.33,1.3.04.38.37.32.86-.04,1.25-.22.24-.41.38-.06.72.38.36.52.09.76-.11.15-.13.27-.5.55-.19.23.25-.1.38-.21.46-.85.54-.1.88.18,1.27Z"/><path d="m116.21,82.35c0-.86.67-1.12,1.28-1.45.38-.08.76-.09,1.14,0,.6.33,1.19.59,1.29,1.46.12,1.04-.41,2.02-1.46,2.25-.27.07-.54.09-.81,0-.86-.1-1.34-.59-1.45-1.45-.09-.27-.09-.54,0-.8Z"/><path d="m80.59,76.13c0-.09,0-.19,0-.28.47-.16.94-.13,1.41-.02h0c.14.48.1.96.02,1.44-.31.32-.64.62-1.13.65-.27.07-.54.09-.81,0-.86-.1-1.34-.59-1.45-1.45-.09-.27-.09-.54,0-.8.03-.83.61-1.18,1.28-1.45.38-.08.76-.09,1.14,0,.11.06.23.11.34.19.2.15.64.17.4.58-.26.43-.42-.06-.59-.13-.69-.3-1.55-.12-1.95.47-.3.45-.12,1.42.34,1.84.44.4,1.36.36,1.91-.08.18-.25.13-.51.02-.77h0c-.28-.21-.66.06-.94-.17Z"/><path d="m75.92,76.79c-.55-.09-1.04.03-1.11.82-.02.22-.26.37-.49.27-.31-.13-.02-.3.03-.44.37-.95.75-1.89,1.16-2.82.07-.15.08-.42.4-.39.27.03.42.1.52.37.41,1.02.84,2.02,1.26,3.03.03.08.24.23-.04.26-.21.02-.34.01-.48-.24-.49-.88-.51-.87-1.25-.87Z"/><path d="m110.26,84.46c.05.16-.1.1-.18.12-.26.07-.4-.07-.44-.3-.2-1.1-1.05-.8-1.75-.8-.44,0-.49.41-.57.72-.08.27-.22.46-.49.37-.4-.13-.03-.36.02-.49.37-.95.76-1.89,1.18-2.82.21-.46.67-.5.86-.07.47,1.04.89,2.12,1.32,3.18.01.02.02.05.05.09Z"/><path d="m77.31,84.48c.01.15-.13.08-.2.1-.28.08-.39-.1-.43-.32-.14-.74-.62-.83-1.28-.82-.59.01-.96.14-1.04.76-.04.29-.24.46-.5.35-.36-.14,0-.37.04-.5.35-.93.73-1.84,1.14-2.75.07-.15.07-.43.4-.4.27.02.42.1.53.36.41,1.02.84,2.02,1.27,3.03.02.05.05.09.08.17Z"/><path d="m129.05,84.46c.05.16-.1.1-.18.12-.26.07-.4-.07-.44-.3-.2-1.09-1.05-.8-1.75-.8-.44,0-.49.41-.57.72-.08.27-.22.46-.49.37-.4-.13-.03-.36.02-.49.37-.95.76-1.89,1.18-2.82.21-.46.67-.5.86-.07.47,1.04.89,2.12,1.32,3.18.01.02.02.05.05.09Z"/><path d="m111.4,77.85c-.47.21-.64-.09-.72-.44-.12-.51-.38-.67-.92-.65-.65.03-1.27-.03-1.35.87-.02.22-.29.35-.5.24-.28-.15,0-.32.06-.45.36-.93.72-1.85,1.13-2.76.07-.17.09-.46.45-.44.34.02.44.22.54.47.44,1.05.88,2.11,1.31,3.16Z"/><path class="cls-55" d="m119.27,74.22c.2.11.39.25.61.33.27.1.2.28.13.44-.12.24-.24.13-.4,0-.44-.35-.95-.38-1.47-.18-.72.28-1.07,1.2-.76,1.9.26.59,1.22.9,1.9.61.16-.07.32-.17.45-.29.17-.15.28-.05.4.06.16.15.09.32-.05.39-.33.14-.54.51-.96.45-.27.07-.54.09-.81,0-.86-.1-1.34-.59-1.45-1.45-.09-.27-.09-.54,0-.8.03-.83.61-1.18,1.28-1.45.38-.09.76-.09,1.14,0Z"/><path d="m87.71,84.56c-.1,0-.19,0-.29,0-.14-1.2-.14-2.41,0-3.61.73.08.79.85,1.25,1.23.38.31.64.76.95,1.15.44.03.23-.31.25-.49.08-.63-.11-1.28.11-1.9.1,0,.19,0,.29.01.14,1.2.14,2.41,0,3.61-.13,0-.34.05-.37,0-.55-.89-1.37-1.57-1.87-2.49-.41.03-.19.35-.21.52-.07.66.09,1.33-.11,1.98Z"/><path d="m94.88,77.88c-.1,0-.19,0-.29,0-.14-1.2-.14-2.41,0-3.61.34-.1.45.2.6.38.54.66,1.07,1.33,1.6,2,.44.03.23-.31.25-.49.08-.63-.11-1.28.11-1.9.1,0,.19,0,.29.01.14,1.2.14,2.41,0,3.61-.13,0-.34.05-.37,0-.55-.89-1.37-1.57-1.87-2.49-.41.03-.19.35-.21.52-.07.66.09,1.33-.11,1.98Z"/><path d="m104.75,77.88c-.1,0-.19,0-.29,0-.17-1.21-.08-2.41-.05-3.62.54-.16,1.09-.11,1.64-.03.32.15.62.33.77.68.18.25.11.52.04.79-.86.69-.73,1.42-.01,2.13-.65.3-.75-.25-.95-.53-.25-.35-.4-.8-.97-.65-.24.39.08.86-.18,1.25Z"/><path d="m124.18,84.56c-.13,0-.34.05-.37,0-.55-.89-1.37-1.57-1.87-2.49-.41.03-.19.35-.21.52-.07.66.09,1.33-.11,1.98-.1,0-.19,0-.29,0-.14-1.2-.14-2.41,0-3.61.34-.1.45.2.6.38.54.66,1.07,1.33,1.6,2,.44.03.23-.31.25-.49.08-.63-.11-1.28.11-1.9.1,0,.19,0,.29.01.14,1.2.14,2.41,0,3.61Z"/><path d="m115.59,77.88c-.13,0-.34.05-.37,0-.55-.89-1.37-1.57-1.87-2.49-.41.03-.19.35-.21.52-.08.66.09,1.33-.11,1.98-.1,0-.19,0-.29,0-.14-1.2-.14-2.41,0-3.61.73.08.79.85,1.25,1.23.38.31.64.76.95,1.15.44.03.23-.31.25-.49.08-.63-.11-1.28.11-1.9.1,0,.19,0,.29.01.14,1.2.14,2.41,0,3.61Z"/><path d="m105.11,80.94c.1,0,.19,0,.29.01.14,1.2.14,2.41,0,3.61-.13,0-.34.05-.37,0-.55-.89-1.37-1.57-1.87-2.49-.41.03-.19.35-.21.52-.08.66.09,1.33-.11,1.98-.1,0-.19,0-.29,0-.14-1.2-.14-2.41,0-3.61.73.08.79.85,1.25,1.23.38.31.64.76.95,1.15.44.03.23-.31.25-.49.08-.63-.11-1.28.11-1.9Z"/><path d="m87.76,75.69c-.84.69-.74,1.42,0,2.13-.64.29-.75-.25-.96-.54-.25-.35-.4-.8-.97-.65-.24.39.08.86-.18,1.25-.1,0-.19,0-.29,0-.17-1.21-.08-2.41-.05-3.62.54-.16,1.09-.11,1.64-.03.32.15.62.33.77.68.18.25.11.52.04.79Z"/><path d="m100.3,80.95c.33.12.64.28.79.63.18.25.11.52.04.79-.83.69-.75,1.42,0,2.13-.42.2-.6.02-.78-.28-.26-.44-.42-1.03-1.14-.9-.24.39.08.86-.18,1.25-.1,0-.19,0-.29,0-.17-1.21-.08-2.41-.05-3.62.54-.14,1.08-.16,1.62.01Z"/><path d="m123.39,74.26c0,.1,0,.19-.01.29-.47.25-1.01-.1-1.47.2-.02.29-.02.59,0,.88.46.31,1.01-.04,1.48.21,0,.1,0,.19.01.29-.41.2-.85.05-1.27.1-.43.35-.21.77-.13,1.18.37,0,.74.02,1.11.02.17,0,.31.02.31.24,0,.24-.16.23-.32.23-.53,0-1.06-.02-1.58-.02-.17-1.21-.09-2.42-.04-3.63.65-.12,1.29-.16,1.93.02Z"/><path d="m97.27,80.95c0,.1,0,.19-.01.29-.47.25-1.01-.1-1.47.2-.02.29-.02.59,0,.88.46.31,1.01-.04,1.48.21,0,.1,0,.19.01.29-.41.2-.85.05-1.27.1-.43.35-.21.77-.13,1.18.37,0,.74.02,1.11.02.17,0,.31.02.31.24,0,.24-.16.23-.32.23-.53,0-1.06-.02-1.58-.02-.17-1.21-.09-2.42-.04-3.63.65-.12,1.29-.16,1.93.02Z"/><path d="m91.73,77.4c.37,0,.74.02,1.11.02.17,0,.31.02.31.24,0,.24-.16.23-.32.23-.53,0-1.06-.02-1.58-.02-.17-1.21-.09-2.42-.04-3.63.65-.12,1.29-.16,1.93.02,0,.1,0,.19-.01.29-.47.25-1.01-.1-1.47.2-.02.29-.02.59,0,.88.46.31,1.01-.04,1.48.21,0,.1,0,.19.01.29-.41.2-.85.05-1.27.1-.43.35-.21.77-.13,1.18Z"/><path d="m110.84,81.23c0-.1,0-.19-.01-.29.89-.17,1.79-.16,2.68,0,0,.1,0,.19-.01.29-.33.24-.75-.08-1.08.19,0,.92,0,1.85-.02,2.77,0,.17.07.39-.24.39-.31,0-.23-.22-.24-.39,0-.92-.01-1.85-.01-2.77-.32-.27-.75.05-1.08-.19Z"/><path d="m94.25,80.94c0,.1,0,.19-.01.29-.33.24-.75-.08-1.08.19,0,.92,0,1.85-.02,2.77,0,.17.07.39-.24.39-.31,0-.23-.22-.24-.39,0-.92-.01-1.85-.01-2.77-.32-.26-.75.04-1.08-.19,0-.1,0-.19-.01-.29.89-.17,1.79-.16,2.68,0Z"/><path d="m101.76,75.81c.39,0,.79.02,1.18.02.16,0,.23.07.23.24,0,.16-.07.23-.23.24-.39,0-.79.01-1.18.02-.28.49.08,1.06-.19,1.55-.1,0-.19,0-.29,0-.17-1.21-.09-2.42-.04-3.63.65-.12,1.29-.16,1.93.02,0,.1,0,.19-.01.29-.47.25-1.01-.09-1.47.19.01.36-.12.73.08,1.07Z"/><path class="cls-30" d="m153.83,70.27c-.01-4.77-.02-9.54-.03-14.31.24.17.16.43.16.66,0,4.35,0,8.71,0,13.06,0,.21.04.43-.13.6Z"/><path class="cls-30" d="m157.63,55.97c0,4.39.01,8.78.02,13.18-.23-.13-.18-.36-.18-.56,0-4.09,0-8.19,0-12.28,0-.18-.03-.38.16-.5.06.04.07.07.06.11-.02.04-.03.06-.05.06Z"/><path class="cls-45" d="m137.07,69.13c0-4.39,0-8.78,0-13.17.05-.08.11-.08.17,0,0,4.2.01,8.41.01,12.61,0,.2.08.43-.17.56Z"/><path class="cls-52" d="m61.29,69.13c0-4.39,0-8.78,0-13.17.06-.08.11-.07.16,0,0,4.26.02,8.52.02,12.78,0,.14.05.33-.17.38Z"/><path d="m81.22,84.08c.42,0,.85.01,1.27.02.17,0,.31.01.31.24,0,.24-.16.23-.32.23-.58,0-1.16-.02-1.74-.02-.14-1.2-.14-2.41,0-3.61.1,0,.19,0,.29,0,.22.74.03,1.49.1,2.24.03.3-.1.62.1.91Z"/><path d="m130.9,84.08c.42,0,.85.01,1.27.02.17,0,.31.01.31.24,0,.24-.16.23-.32.23-.58,0-1.16-.02-1.74-.02-.14-1.2-.14-2.41,0-3.61.1,0,.19,0,.29,0,.2.76.04,1.54.1,2.31.02.28-.1.57.1.83Z"/><path class="cls-30" d="m119.07,69.14c0-2.91.01-5.83.02-8.74,0-.32.02-.63.04-.95.05-.06.09-.06.14,0,0,2.96,0,5.92-.02,8.88,0,.27.13.59-.18.8Z"/><path class="cls-52" d="m48.75,55.97c0,2.48,0,4.97-.03,7.45,0,.27.13.58-.13.82,0-2.75,0-5.51,0-8.26.05-.08.1-.09.16,0Z"/><path class="cls-45" d="m124.53,55.97c0,2.48-.01,4.96-.02,7.44,0,.28.1.58-.13.83,0-2.76,0-5.51,0-8.27.06-.07.11-.08.17,0Z"/><path class="cls-10" d="m76.9,69.13c0-2.7.01-5.4.02-8.11.19.09.14.26.14.41,0,2.44,0,4.89,0,7.33,0,.14.08.33-.16.37Z"/><path class="cls-52" d="m41.7,69.13c0-2.38,0-4.75.02-7.13,0-.27-.13-.58.13-.82,0,2.5.02,4.99.02,7.49,0,.16.09.38-.17.46Z"/><path class="cls-45" d="m92.17,69.13c0-2.37,0-4.75.02-7.12,0-.28-.1-.58.13-.83,0,2.49.01,4.98.02,7.47,0,.18.05.38-.18.48Z"/><path class="cls-11" d="m82.01,61.34c.29.23.14.54.14.81.02,2.33.02,4.66.03,6.99-.28-.15-.18-.42-.18-.63,0-2.39,0-4.78,0-7.17Z"/><path class="cls-52" d="m73.42,61.66c.26.24.13.55.13.82.02,2.22.02,4.44.02,6.65-.26-.07-.17-.29-.17-.46,0-2.34,0-4.68.02-7.02Z"/><path d="m83.44,74.27c.1,0,.19,0,.29,0,.16,1.21.16,2.41,0,3.62-.1,0-.19,0-.29,0-.14-1.2-.14-2.41,0-3.61Z"/><path d="m114.94,84.56c-.1,0-.19,0-.29,0-.14-1.2-.14-2.41,0-3.61.1,0,.19,0,.29,0,.16,1.21.16,2.41,0,3.62Z"/><path d="m85.8,84.56c-.1,0-.19,0-.29,0-.14-1.2-.14-2.41,0-3.61.1,0,.19,0,.29,0,.16,1.21.16,2.41,0,3.62Z"/><path class="cls-11" d="m17.18,69.14c.02-1.69.03-3.39.05-5.08.04-.07.07-.07.11,0,0,1.51.02,3.01.02,4.52,0,.2.08.43-.18.56Z"/><path class="cls-52" d="m68.29,69.13c.01-1.69.03-3.38.04-5.07.04,0,.07,0,.11,0,0,1.56.02,3.13.02,4.69,0,.15.05.33-.17.38Z"/><path class="cls-11" d="m17.34,64.06h-.06s-.06,0-.06,0c0-1.48-.02-2.96-.02-4.45,0-.12-.03-.27.16-.3.06.03.07.06.06.1-.02.03-.03.05-.05.05,0,1.53-.02,3.07-.03,4.6Z"/><path class="cls-14" d="m83.49,82.19h-.05c.08-.4-.11-.78-.11-1.16,0-.2.5-.18.61-.07.23.23.24.58-.03.82-.15.13-.09.45-.42.41Z"/><path class="cls-45" d="m108.93,50.55c-.48-.34-1.02-.14-1.53-.16-.82-.03-1.64,0-2.46,0,.29-.35.69-.16,1.03-.17.87-.03,1.74-.02,2.6,0,.18,0,.53-.11.35.32Z"/><path class="cls-45" d="m174.05,50.55c-.48-.34-1.02-.14-1.53-.16-.82-.03-1.64,0-2.46,0,.29-.35.69-.16,1.03-.17.87-.03,1.74-.02,2.6,0,.18,0,.53-.11.35.32Z"/><path class="cls-26" d="m122.27,55.97c-.81,0-1.62-.06-2.43,0-.66.04-.85-.21-.72-.81.12.55.48.65,1.01.66.71,0,1.45-.22,2.14.16Z"/><path class="cls-22" d="m91.25,74.27c0,1.2,0,2.41,0,3.61-.37-.28-.14-.67-.15-1-.04-.87,0-1.74,0-2.61.05-.08.1-.08.15,0Z"/><path class="cls-22" d="m97.44,77.88c0-1.2,0-2.41,0-3.61.34.22.17.56.15.83-.06.93.22,1.87-.15,2.78Z"/><path class="cls-22" d="m80.74,80.95c0,1.2,0,2.41,0,3.61-.34-.22-.17-.56-.15-.83.06-.93-.22-1.87.15-2.78Z"/><path class="cls-22" d="m90.27,84.56c0-1.2,0-2.41,0-3.61.34.22.17.56.15.83-.06.93.22,1.87-.15,2.78Z"/><path class="cls-22" d="m95.39,80.95c0,1.2,0,2.41,0,3.61-.29-.06-.16-.3-.16-.45,0-1.05,0-2.11.01-3.16.05-.08.1-.08.15,0Z"/><path class="cls-22" d="m85.36,74.27c0,1.2,0,2.41,0,3.61-.29-.06-.16-.3-.16-.45,0-1.05,0-2.11,0-3.16.05-.08.1-.08.15,0Z"/><path class="cls-22" d="m94.59,74.27c0,1.2,0,2.41,0,3.61-.34-.22-.17-.56-.15-.83.06-.93-.22-1.87.15-2.78Z"/><path class="cls-22" d="m98.73,80.95c0,1.2,0,2.41,0,3.61-.37-.28-.14-.67-.15-1-.04-.87,0-1.74,0-2.61.05-.08.1-.08.15,0Z"/><path class="cls-22" d="m102.55,80.95c0,1.2,0,2.41,0,3.61-.34-.22-.17-.56-.15-.83.06-.93-.22-1.87.15-2.78Z"/><path class="cls-22" d="m121.34,80.95c0,1.2,0,2.41,0,3.61-.28-.06-.16-.29-.16-.44-.01-.91-.01-1.82,0-2.73,0-.15-.12-.38.16-.44Z"/><path class="cls-56" d="m83.73,77.88c0-1.21,0-2.41,0-3.62.26.08.17.3.17.46,0,.9,0,1.8,0,2.7,0,.16.09.38-.17.46Z"/><path class="cls-22" d="m105.4,84.56c0-1.2,0-2.41,0-3.61.34.22.17.56.15.83-.06.93.22,1.87-.15,2.78Z"/><path class="cls-19" d="m137.23,55.96c-.06,0-.11,0-.17,0-1.16,0-2.32,0-3.47,0,.38-.37.85-.18,1.27-.16.79.04,1.61-.23,2.37.16Z"/><path class="cls-52" d="m68.44,64.06h-.05s-.05,0-.05,0c0-1.21-.01-2.43-.02-3.64.04,0,.09-.02.13-.03,0,1.22,0,2.45,0,3.67Z"/><path class="cls-22" d="m87.42,80.95c0,1.2,0,2.41,0,3.61-.28-.06-.16-.29-.16-.44-.01-.91-.01-1.82,0-2.73,0-.15-.12-.38.16-.44Z"/><path class="cls-19" d="m124.53,55.97c-.06,0-.11,0-.17,0,1.21-.28,2.43-.3,3.64,0-1.16,0-2.32,0-3.47,0Z"/><path class="cls-22" d="m85.51,80.95c0,1.2,0,2.41,0,3.61-.34-.22-.17-.56-.15-.83.06-.93-.22-1.87.15-2.78Z"/><path class="cls-33" d="m103.65,54.04c1.16,0,2.32,0,3.48-.01-.15.28-.41.16-.63.16-.94.01-1.88,0-2.82,0-.02,0-.06-.02-.06-.04,0-.04.02-.08.03-.11Z"/><path class="cls-33" d="m168.76,54.04c1.16,0,2.32,0,3.48-.01-.15.28-.41.16-.63.16-.94.01-1.88,0-2.82,0-.02,0-.06-.02-.06-.04,0-.04.02-.08.03-.11Z"/><path class="cls-13" d="m41.7,55.97c-1.16,0-2.31,0-3.47,0,.95-.4,1.94-.09,2.91-.17.24-.02.53-.11.71.17-.05.06-.1.05-.15,0Z"/><path class="cls-22" d="m114.65,80.95c0,1.2,0,2.41,0,3.61-.34-.22-.17-.56-.15-.83.06-.93-.22-1.87.15-2.78Z"/><path class="cls-56" d="m85.8,84.56c0-1.21,0-2.41,0-3.62.35.26.18.63.16.94-.06.89.24,1.81-.16,2.68Z"/><path class="cls-56" d="m114.94,84.56c0-1.21,0-2.41,0-3.62.35.26.18.63.16.94-.06.89.24,1.81-.16,2.68Z"/><path class="cls-22" d="m83.44,74.27c0,1.2,0,2.41,0,3.61-.28-.06-.16-.29-.16-.44-.01-.91-.01-1.82,0-2.73,0-.15-.12-.38.16-.44Z"/><path class="cls-19" d="m92.17,55.97c-1.16,0-2.31,0-3.47,0,.38-.37.85-.18,1.26-.16.79.04,1.6-.23,2.37.16-.05.06-.11.06-.16,0Z"/><path class="cls-22" d="m130.41,80.95c0,1.2,0,2.41,0,3.61-.34-.22-.17-.56-.15-.83.06-.93-.22-1.87.15-2.78Z"/><path class="cls-13" d="m68.29,55.97c-1.16,0-2.31,0-3.47,0,.12-.25.36-.18.55-.18.84,0,1.67,0,2.51,0,.2,0,.43-.05.56.18-.05.05-.1.05-.15,0Z"/><path class="cls-22" d="m124.18,84.56c0-1.2,0-2.41,0-3.61.34.22.17.56.15.83-.06.93.22,1.87-.15,2.78Z"/><path class="cls-13" d="m61.44,55.97h-.08s-.08,0-.08,0c-1.16,0-2.31,0-3.47,0,.95-.4,1.94-.09,2.91-.17.24-.02.53-.11.71.18Z"/><path class="cls-22" d="m121.5,74.27c0,1.2,0,2.41,0,3.61-.37-.28-.14-.67-.15-1-.04-.87,0-1.74,0-2.61.05-.08.1-.08.15,0Z"/><path class="cls-22" d="m115.59,77.88c0-1.2,0-2.41,0-3.61.34.22.17.56.15.83-.06.93.22,1.87-.15,2.78Z"/><path class="cls-22" d="m112.74,74.27c0,1.2,0,2.41,0,3.61-.34-.22-.17-.56-.15-.83.06-.93-.22-1.87.15-2.78Z"/><path class="cls-22" d="m104.46,74.27c0,1.2,0,2.41,0,3.61-.37-.28-.14-.67-.15-1-.04-.87,0-1.74,0-2.61.05-.08.1-.08.15,0Z"/><path class="cls-22" d="m101.28,74.27c0,1.2,0,2.41,0,3.61-.37-.28-.14-.67-.15-1-.04-.87,0-1.74,0-2.61.05-.08.1-.08.15,0Z"/><path class="cls-13" d="m48.75,55.97h-.08s-.08,0-.08,0c.32-.35.75-.19,1.11-.17.84.05,1.7-.23,2.52.17-1.16,0-2.31,0-3.47,0Z"/><path class="cls-30" d="m153.8,55.96c-1.16,0-2.33.01-3.49.02,1.16-.31,2.33-.28,3.49-.02Z"/><path class="cls-30" d="m157.63,55.97c0-.06,0-.11,0-.17.95,0,1.9,0,2.85,0,.22,0,.49-.08.64.18-1.16,0-2.32,0-3.49,0Z"/><path class="cls-33" d="m113.38,55.97c0,1.1,0,2.2,0,3.29-.05.08-.1.08-.16,0,0-1.1,0-2.2,0-3.3.05-.08.11-.08.16,0Z"/><path class="cls-10" d="m11.48,55.97c0,1.1,0,2.19,0,3.29-.05.08-.1.08-.15,0,0-1.1,0-2.2,0-3.29.05-.08.1-.08.15,0Z"/><path class="cls-56" d="m130.9,84.08c-.37-.46-.12-.99-.17-1.48-.05-.55-.02-1.11-.03-1.66.37.46.12.99.17,1.49.05.55.02,1.1.03,1.66Z"/><path class="cls-30" d="m119.27,59.46s-.09,0-.14,0c.68-.36,1.42-.08,2.12-.15.33-.04.68-.02,1.01-.03-.35.35-.79.15-1.19.17-.6.04-1.21.01-1.81.02Z"/><path class="cls-56" d="m81.22,84.08c-.37-.46-.12-.99-.17-1.48-.05-.55-.02-1.11-.03-1.66.37.46.12.99.17,1.49.05.55.02,1.1.03,1.66Z"/><path class="cls-11" d="m20.37,55.97c-.87,0-1.75,0-2.62-.03-.18,0-.43.15-.53-.16.81,0,1.62,0,2.44.02.24,0,.53-.12.71.17Z"/><path class="cls-11" d="m17.36,59.46s0-.1,0-.15c1-.02,2.01-.03,3.01-.05-.58.37-1.22.11-1.82.17-.39.04-.79.02-1.18.02Z"/><path class="cls-34" d="m121.63,84.56c0-.78,0-1.56.02-2.33,0-.18-.05-.53.29-.17-.3.56-.05,1.16-.14,1.74-.04.26.17.58-.17.77Z"/><path class="cls-43" d="m97.15,74.26c0,.78,0,1.55-.02,2.33-.01.54-.19.26-.34.06.37-.41.09-.91.18-1.36.07-.34-.18-.74.18-1.03Z"/><path class="cls-34" d="m87.71,84.56c0-.78,0-1.56.02-2.33,0-.18-.05-.53.29-.17-.3.56-.05,1.16-.14,1.74-.04.26.17.58-.17.77Z"/><path class="cls-34" d="m102.84,84.56c0-.78,0-1.56.02-2.33,0-.18-.05-.53.29-.17-.3.56-.05,1.16-.14,1.74-.04.26.17.58-.17.77Z"/><path class="cls-43" d="m89.98,80.94c0,.78,0,1.55-.02,2.33-.01.54-.19.26-.34.06.37-.41.09-.91.18-1.36.07-.34-.18-.74.18-1.03Z"/><path class="cls-43" d="m105.11,80.94c0,.78,0,1.55-.02,2.33-.01.54-.19.26-.34.06.37-.41.09-.91.18-1.36.07-.34-.18-.74.18-1.03Z"/><path class="cls-34" d="m113.03,77.88c0-.78,0-1.56.02-2.33,0-.18-.05-.53.29-.17-.3.56-.05,1.16-.14,1.74-.04.26.17.58-.17.77Z"/><path class="cls-43" d="m115.3,74.26c0,.78,0,1.55-.02,2.33-.01.54-.19.26-.34.06.37-.41.09-.91.18-1.36.07-.34-.18-.74.18-1.03Z"/><path class="cls-34" d="m94.88,77.88c0-.78,0-1.56.02-2.33,0-.18-.05-.53.29-.17-.3.56-.05,1.16-.14,1.74-.04.26.17.58-.17.77Z"/><path class="cls-43" d="m123.9,80.94c0,.78-.01,1.55-.02,2.33,0,.1.07.29-.13.27-.07,0-.14-.14-.2-.21.37-.41.09-.91.18-1.36.07-.34-.18-.74.18-1.03Z"/><path class="cls-40" d="m113.51,80.94c-.89,0-1.79,0-2.68,0,.89-.29,1.79-.29,2.68,0Z"/><path class="cls-40" d="m94.25,80.94c-.89,0-1.79,0-2.68,0,.89-.29,1.79-.29,2.68,0Z"/><path class="cls-21" d="m75.78,80.42c0,.19-.15.2-.28.18-.36-.04-.38-.39-.48-.62-.07-.16.13-.18.26-.17.37.03.34.4.5.6Z"/><path class="cls-13" d="m11.48,55.97h-.08s-.08,0-.08,0c.75-.41,1.57-.07,2.35-.19-.7.37-1.47.05-2.19.19Z"/><path class="cls-13" d="m11.33,59.27c.05.02.1.02.15,0,.72.15,1.49-.18,2.19.19-.78-.12-1.59.22-2.35-.19Z"/><path class="cls-19" d="m113.22,59.27c.05.01.11.01.16,0,.72.14,1.49-.18,2.19.19-.78-.12-1.6.22-2.35-.19Z"/><path class="cls-19" d="m113.38,55.97h-.08s-.08,0-.08,0c.76-.41,1.57-.07,2.35-.19-.7.37-1.47.05-2.19.19Z"/><path class="cls-40" d="m91.25,74.27h-.08s-.08,0-.08,0c.68-.3,1.36-.3,2.04,0-.63,0-1.26,0-1.89,0Z"/><path class="cls-40" d="m95.39,80.95h-.08s-.08,0-.08,0c.68-.3,1.36-.3,2.04,0-.63,0-1.26,0-1.89,0Z"/><path class="cls-40" d="m101.28,74.27h-.08s-.08,0-.08,0c.68-.3,1.36-.3,2.04,0-.63,0-1.26,0-1.89,0Z"/><path class="cls-40" d="m121.5,74.27h-.08s-.08,0-.08,0c.68-.3,1.36-.3,2.04,0-.63,0-1.26,0-1.89,0Z"/><path class="cls-11" d="m98.41,19.22c.63,0,1.27,0,1.9,0,.05.02.07.05.05.07-.02.02-.03.04-.05.04-.64,0-1.29,0-1.93,0-.04-.04-.04-.06-.02-.08.02-.02.03-.03.05-.03Z"/><path class="cls-46" d="m41.7,55.97c.05,0,.1,0,.15,0,0,.52.02,1.04.03,1.56-.38-.49-.03-1.06-.18-1.57Z"/><path class="cls-38" d="m184.87,55.78c-.59,0-1.19,0-1.78,0,.59-.24,1.19-.24,1.78,0Z"/><path class="cls-37" d="m104.46,74.27h-.08s-.08,0-.08,0c.57-.33,1.15-.24,1.74-.04-.53.02-1.06.03-1.58.05Z"/><path class="cls-5" d="m92.17,55.97c.05,0,.11,0,.16,0,0,.52.01,1.05.02,1.57-.36-.49-.05-1.05-.18-1.57Z"/><path class="cls-11" d="m100.31,19.34s0-.07,0-.11c.58,0,1.16,0,1.74,0,.05.02.07.04.06.07-.01.03-.02.05-.04.05-.59,0-1.18,0-1.77,0Z"/><path class="cls-37" d="m85.36,74.27h-.08s-.08,0-.08,0c.57-.33,1.15-.24,1.74-.04l-1.58.05Z"/><path class="cls-38" d="m106.22,55.78c-.59,0-1.19,0-1.78,0,.59-.24,1.19-.24,1.78,0Z"/><path class="cls-37" d="m98.73,80.95h-.08s-.08,0-.08,0c.57-.3,1.15-.3,1.72,0-.52,0-1.04,0-1.57,0Z"/><path class="cls-38" d="m171.33,55.78c-.59,0-1.19,0-1.78,0,.59-.24,1.19-.24,1.78,0Z"/><path class="cls-1" d="m145.67,68.97c.52-.28,1.08-.09,1.61-.12-.52.29-1.08.1-1.61.12Z"/><path class="cls-28" d="m121.83,74.74c.47-.38,1.03-.09,1.54-.19-.42.39-.94.04-1.39.19-.05.06-.1.06-.15,0Z"/><path class="cls-28" d="m95.72,81.42c.47-.38,1.03-.09,1.54-.19-.42.39-.94.04-1.39.19-.05.06-.1.06-.15,0Z"/><path class="cls-10" d="m29.48,55.78c-.54,0-1.09,0-1.63,0,.54-.24,1.09-.24,1.63,0Z"/><path class="cls-27" d="m80.9,55.78c-.54,0-1.08,0-1.63,0,.54-.23,1.08-.23,1.63,0Z"/><path class="cls-6" d="m147.3,55.78c-.54,0-1.08,0-1.63,0,.54-.23,1.08-.23,1.63,0Z"/><path class="cls-28" d="m101.61,74.74c.47-.38,1.03-.09,1.54-.19-.42.39-.94.04-1.39.19-.05.06-.1.06-.15,0Z"/><path class="cls-28" d="m123.37,75.84c-.51-.1-1.07.19-1.54-.19.05-.06.1-.05.15,0,.45.15.97-.2,1.39.19Z"/><path class="cls-28" d="m97.26,82.52c-.51-.1-1.07.19-1.54-.19.05-.06.1-.05.15,0,.45.15.97-.2,1.39.19Z"/><path class="cls-17" d="m146.16,75.96c.53-.21,1.06-.21,1.59,0-.53,0-1.06,0-1.59,0Z"/><path class="cls-28" d="m91.58,74.74c.47-.38,1.03-.09,1.54-.19-.42.39-.94.04-1.39.19-.05.06-.1.06-.15,0Z"/><path class="cls-28" d="m93.12,75.84c-.51-.1-1.07.19-1.54-.19.05-.05.1-.05.15,0,.45.15.97-.2,1.39.19Z"/><path class="cls-56" d="m101.57,77.88c.12-.51-.18-1.07.19-1.55-.12.51.18,1.07-.19,1.55Z"/><path class="cls-20" d="m98.7,61.67c0,.48,0,.96,0,1.43-.21-.48-.21-.96,0-1.43Z"/><path class="cls-56" d="m82.02,77.28c0-.48-.01-.96-.02-1.44.28.48.23.96.02,1.44Z"/><path class="cls-28" d="m72.79,55.78c-.49,0-.98,0-1.47,0,.49-.24.98-.25,1.47,0Z"/><path class="cls-43" d="m121.98,76.18c.47-.02.94-.04,1.41-.05-.42.37-.94.07-1.4.2-.06-.03-.08-.06-.06-.09.02-.03.04-.05.05-.05Z"/><path class="cls-36" d="m99.02,84.56c.01-.41.02-.81.03-1.22,0-.02.03-.06.04-.06.04,0,.07.02.11.03-.1.41.19.88-.18,1.25Z"/><path class="cls-7" d="m160.02,49.73c-.48,0-.96,0-1.44,0,.48-.24.96-.25,1.44,0Z"/><path class="cls-36" d="m85.64,77.88c.01-.41.02-.81.03-1.22,0-.02.03-.06.04-.06.04,0,.07.02.11.03-.1.41.19.88-.18,1.25Z"/><path class="cls-36" d="m104.75,77.88c.01-.41.02-.81.03-1.22,0-.02.03-.06.04-.06.04,0,.07.02.11.03-.1.41.19.88-.18,1.25Z"/><path class="cls-7" d="m156.82,51.49c0,.48,0,.96,0,1.44-.24-.48-.24-.96,0-1.44Z"/><path class="cls-56" d="m82,75.83c-.47,0-.94.01-1.41.02.47-.3.94-.27,1.41-.02Z"/><path class="cls-20" d="m163.82,61.67c0,.48,0,.96,0,1.43-.21-.48-.21-.96,0-1.43Z"/><path class="cls-43" d="m95.87,82.86c.47-.02.94-.04,1.41-.05-.42.37-.94.07-1.4.2-.06-.03-.08-.06-.06-.09.02-.03.04-.05.05-.05Z"/><path class="cls-43" d="m91.73,76.18c.47-.02.94-.04,1.41-.05-.42.37-.94.07-1.4.2-.06-.03-.08-.06-.06-.09.02-.03.04-.05.05-.05Z"/><path class="cls-8" d="m95.87,82.86s0,.1,0,.15c0,.36,0,.72,0,1.07-.29-.41-.27-.81,0-1.22Z"/><path class="cls-25" d="m68.29,55.97c.05,0,.1,0,.15,0,0,.36.02.72.03,1.09-.36-.31-.05-.74-.18-1.09Z"/><path class="cls-12" d="m118.65,23.34c.21.43.21.85,0,1.28,0-.43,0-.85,0-1.28Z"/><path class="cls-54" d="m183.42,69.44c.43-.21.85-.2,1.28,0-.43,0-.85,0-1.28,0Z"/><path class="cls-16" d="m189.17,65.82c0-.43,0-.85,0-1.28.22.43.22.85,0,1.28Z"/><path class="cls-51" d="m127.24,24.61v-1.28c.21.43.21.85,0,1.28Z"/><path class="cls-8" d="m91.73,76.18s0,.1,0,.15c0,.36,0,.72,0,1.07-.29-.41-.27-.81,0-1.22Z"/><path class="cls-44" d="m106.53,65.83c-.41.28-.86.11-1.29.13.41-.27.86-.09,1.29-.13Z"/><path class="cls-44" d="m171.65,65.83c-.41.28-.86.11-1.29.13.41-.27.86-.09,1.29-.13Z"/><path class="cls-27" d="m28.02,69.44c.43-.21.86-.19,1.29,0-.43,0-.86,0-1.29,0Z"/><path class="cls-8" d="m121.98,76.18s0,.1,0,.15c0,.36,0,.72,0,1.07-.29-.41-.27-.81,0-1.22Z"/><path class="cls-10" d="m97.6,111.28c.37-.21.75-.21,1.12,0-.37,0-.75,0-1.12,0Z"/><path class="cls-22" d="m93.16,81.42c.31-.36.72-.09,1.08-.19-.31.36-.73.07-1.08.19Z"/><path class="cls-10" d="m101.58,111.28c.37-.21.75-.21,1.12,0-.37,0-.75,0-1.12,0Z"/><path class="cls-49" d="m19.28,50.04c-.38,0-.75,0-1.13,0,.38-.21.75-.21,1.13,0Z"/><path class="cls-20" d="m121.17,50.04c-.37,0-.74,0-1.12,0,.37-.21.75-.21,1.12,0Z"/><path class="cls-27" d="m19.92,50.88c0-.31,0-.62-.34-.79.81-.03.5.41.34.79Z"/><path class="cls-42" d="m121.82,50.88c0-.31-.01-.61-.33-.79.75,0,.51.4.33.79Z"/><path class="cls-38" d="m111.95,62.97c0-.38,0-.76,0-1.15.24.38.24.76,0,1.15Z"/><path class="cls-56" d="m101.61,74.74c.05-.01.1-.01.15,0,0,.36,0,.72,0,1.07-.34-.32-.12-.71-.15-1.07Z"/><path class="cls-38" d="m177.07,62.97c0-.38,0-.76,0-1.15.24.38.24.76,0,1.15Z"/><path class="cls-22" d="m112.42,81.42c.31-.36.72-.09,1.08-.19-.31.36-.73.07-1.08.19Z"/><path class="cls-4" d="m119.27,74.22c-.38,0-.76,0-1.14,0,.38-.22.76-.22,1.14,0Z"/><path class="cls-4" d="m81.06,74.22c-.38,0-.76,0-1.14,0,.38-.22.76-.22,1.14,0Z"/><path class="cls-38" d="m170.51,69.33c.38.02.78-.14,1.13.11-.37,0-.74,0-1.1.01-.05-.02-.07-.04-.06-.07,0-.03.02-.05.04-.05Z"/><path class="cls-22" d="m110.84,81.23c.35.09.77-.17,1.08.19-.35-.12-.77.17-1.08-.19Z"/><path class="cls-47" d="m128.97,69.44c.37-.2.75-.2,1.12,0-.37,0-.75,0-1.12,0Z"/><path class="cls-38" d="m105.39,69.33c.38.02.78-.14,1.13.11-.37,0-.74,0-1.1.01-.05-.02-.07-.04-.06-.07,0-.03.02-.05.04-.05Z"/><path class="cls-22" d="m53.18,69.44c.38-.22.75-.19,1.13,0-.38,0-.75,0-1.13,0Z"/><path class="cls-48" d="m131.37,65.82c-.35.25-.75.13-1.13.13.35-.25.75-.11,1.13-.13Z"/><path class="cls-22" d="m91.58,81.23c.35.09.77-.17,1.08.19-.35-.12-.77.17-1.08-.19Z"/><path class="cls-4" d="m118.63,80.9c-.38,0-.76,0-1.14,0,.38-.22.76-.22,1.14,0Z"/><path class="cls-10" d="m100.64,108.79c-.32.21-.64.21-.97,0,.32,0,.64,0,.97,0Z"/><path class="cls-40" d="m103.02,108.73c-.32,0-.65,0-.97,0,.32-.19.65-.22.97,0Z"/><path class="cls-56" d="m95.87,82.34h-.08s-.08,0-.08,0c0-.3,0-.61,0-.91.05-.01.1-.01.15,0,0,.31,0,.61,0,.92Z"/><path class="cls-56" d="m91.73,75.66h-.08s-.08,0-.08,0c0-.3,0-.61,0-.91.05-.01.1-.01.15,0,0,.31,0,.61,0,.92Z"/><path class="cls-56" d="m121.99,75.66h-.08s-.08,0-.08,0c0-.3,0-.61,0-.91.05-.01.1-.01.15,0,0,.31,0,.61,0,.92Z"/><path class="cls-23" d="m98.41,19.22s-.02.07-.03.11c-.32,0-.63,0-.95,0,.3-.26.65-.11.98-.12Z"/><path class="cls-56" d="m80.59,76.13c.31.1.67-.14.94.18-.31-.07-.68.18-.94-.18Z"/><path class="cls-32" d="m97.43,57.54c-.23-.3-.13-.64-.13-.97.24.3.14.64.13.97Z"/><path class="cls-57" d="m79.12,59.28c.33-.21.66-.26.99,0-.33,0-.66,0-.99,0Z"/><path class="cls-57" d="m70.69,59.15c.28,0,.58-.15.82.12-.28-.02-.57.1-.82-.12Z"/><path class="cls-24" d="m101.13,82.37c-.01-.26-.03-.53-.04-.79.29.25.24.51.04.79Z"/><path class="cls-24" d="m106.86,75.69c-.01-.26-.03-.53-.04-.79.29.25.24.51.04.79Z"/><path class="cls-29" d="m78.64,75.67v.8c-.21-.27-.21-.54,0-.8Z"/><path class="cls-29" d="m116.21,82.35v.8c-.21-.27-.21-.54,0-.8Z"/><path class="cls-29" d="m116.85,75.67v.8c-.21-.27-.21-.54,0-.8Z"/><path class="cls-24" d="m87.76,75.69c-.01-.26-.03-.53-.04-.79.29.25.24.51.04.79Z"/><path class="cls-23" d="m81.53,76.31c.24.27.26.52-.02.77,0-.26.02-.52.02-.77Z"/><path class="cls-52" d="m102.08,19.34s-.02-.08-.03-.12c.28.01.58-.14.82.11-.26,0-.53,0-.79,0Z"/><path class="cls-31" d="m179.26,59.44c0,.27,0,.54,0,.81-.21-.27-.22-.54,0-.81Z"/><path class="cls-39" d="m80.09,77.92c.27,0,.54,0,.81,0-.27.22-.54.19-.81,0Z"/><path class="cls-39" d="m117.66,84.6c.27,0,.54,0,.81,0-.27.22-.54.19-.81,0Z"/><path class="cls-11" d="m98.25,108.74c-.27,0-.54,0-.81,0,.27-.2.54-.2.81,0Z"/><path class="cls-18" d="m170.51,69.33s.02.08.03.12c-.28.01-.57.09-.81-.13.26,0,.52,0,.78,0Z"/><path class="cls-18" d="m105.39,69.33s.02.08.03.12c-.28.01-.57.09-.81-.13.26,0,.52,0,.78,0Z"/><path class="cls-39" d="m118.3,77.92c.27,0,.54,0,.81,0-.27.22-.54.19-.81,0Z"/><path class="cls-3" d="m147.61,59.28c.58.04,1.13.17,1.64.46.68.39,1.18.86,1.06,1.75-.06.44-.08.91,0,1.35.21,1.15-.53,1.69-1.35,2.13-1.59.85-3.23.61-4.42-.5-1.02-.95-1.17-2.08-.74-3.3.43-1.21,1.41-1.76,2.65-1.88.38-.1.77-.1,1.15,0Z"/><path class="cls-15" d="m147.61,59.28c-.38,0-.77,0-1.15,0,.38-.23.77-.24,1.15,0Z"/><path class="cls-3" d="m167.68,60.54c.45-.93,1.13-1.55,2.21-1.56.65,0,1.31-.14,1.94.15.61.28,1.14.63,1.44,1.25,0,.12-.05.23-.16.23-1.81-.03-3.62.14-5.43-.08Z"/><path class="cls-35" d="m167.68,60.54c1.67,0,3.34.02,5.01.02.21,0,.43.04.58-.17.2.27,0,.33-.2.33-1.74,0-3.49,0-5.23-.02-.05,0-.11-.1-.16-.15Z"/><path class="cls-3" d="m102.56,60.54c.45-.93,1.13-1.55,2.21-1.56.65,0,1.31-.14,1.94.15.61.28,1.14.63,1.44,1.25,0,.12-.05.23-.16.23-1.81-.03-3.62.14-5.43-.08Z"/><path class="cls-35" d="m102.56,60.54c1.67,0,3.34.02,5.01.02.21,0,.43.04.58-.17.2.27,0,.33-.2.33-1.74,0-3.49,0-5.23-.02-.05,0-.11-.1-.16-.15Z"/><path class="cls-3" d="m32.2,62.95c-.39,1.41-1.09,2.49-2.65,2.89-1.59.41-2.75-.19-3.69-1.35-.78-.97-.89-2.07-.39-3.25.51-1.23,1.41-1.86,2.7-1.97.33-.1.66-.1.99,0,1.46.08,2.3.96,2.84,2.21.09.21.13.44.2.65.07.27.07.54,0,.81Z"/><path class="cls-11" d="m29.16,59.28c-.33,0-.66,0-.99,0,.33-.23.66-.23.99,0Z"/><path class="cls-10" d="m32.2,62.95c0-.27,0-.54,0-.81.2.27.2.54,0,.81Z"/><path class="cls-58" d="m68.71,84.1c-.37.04-.55-.1-.58-.52-.02-.38.3-.62.44-.55.28.14.55.46.65.76.08.23-.25.33-.51.31Z"/><path class="cls-58" d="m69.27,81.69c.03.34-.2.59-.46.63-.35.05-.42-.36-.48-.59-.05-.22.24-.46.43-.46.17,0,.55.02.51.41Z"/><path class="cls-3" d="m116.71,82.76c0-.91.47-1.37,1.38-1.36.83,0,1.32.48,1.33,1.26,0,.97-.46,1.44-1.4,1.44-.87,0-1.31-.45-1.31-1.34Z"/><path class="cls-58" d="m75.36,76.25c.18-.44.38-.89.59-1.41.36.45.45.92.65,1.41h-1.24Z"/><path class="cls-58" d="m109.1,82.97h-1.2c.01-.53.28-.96.59-1.4.3.42.42.87.62,1.4Z"/><path class="cls-58" d="m75.55,81.47c.23.58.4,1.01.59,1.5-.46,0-.85,0-1.24,0,.09-.5.31-.95.65-1.5Z"/><path class="cls-58" d="m127.31,81.51c.21.53.38.97.58,1.45-.46,0-.85,0-1.24,0,.1-.5.29-.96.66-1.45Z"/><path class="cls-58" d="m110.22,76.29h-1.26c.12-.51.29-.98.63-1.39.3.41.41.87.62,1.39Z"/><path class="cls-3" d="m105.89,74.69c.68.61.68.72,0,1.33-.33.06-.66.1-.99-.02-.09-.43-.08-.85,0-1.28.33-.13.66-.09.99-.03Z"/><path class="cls-56" d="m104.95,74.74c0,.41,0,.82,0,1.23-.06.08-.11.07-.16,0,0-.41,0-.81,0-1.22.05-.08.1-.08.16,0Z"/><path class="cls-53" d="m104.79,75.97c.05.01.1.02.16,0,.31.02.63.03.94.05-.38.18-.75.26-1.1-.06Z"/><path class="cls-53" d="m104.95,74.74h-.08s-.08,0-.08,0c.35-.32.72-.24,1.1-.06-.31.02-.63.03-.94.05Z"/><path class="cls-3" d="m86.78,74.69c.68.61.68.72,0,1.33-.33.06-.66.1-.99-.02-.09-.43-.08-.85,0-1.28.33-.13.66-.09.99-.03Z"/><path class="cls-56" d="m85.84,74.74c0,.41,0,.82,0,1.23-.06.08-.11.08-.16,0,0-.41,0-.81,0-1.22.05-.08.1-.08.16,0Z"/><path class="cls-53" d="m85.69,75.97c.05.01.1.02.16,0,.31.02.63.03.94.05-.38.18-.75.26-1.1-.06Z"/><path class="cls-53" d="m85.84,74.74h-.08s-.08,0-.08,0c.35-.32.72-.24,1.1-.06-.31.02-.63.03-.94.05Z"/><path class="cls-3" d="m100.16,81.37c.66.6.66.89,0,1.33-.33.07-.66.1-.99-.02-.09-.43-.08-.85,0-1.28.33-.13.66-.09.99-.03Z"/><path class="cls-56" d="m99.22,81.42c0,.41,0,.82,0,1.23-.06.08-.11.07-.16,0,0-.41,0-.81,0-1.22.05-.08.1-.08.16,0Z"/><path class="cls-53" d="m99.06,82.65c.05.01.1.02.16,0,.31.02.63.03.94.05-.38.19-.75.27-1.1-.05Z"/><path class="cls-53" d="m99.22,81.42h-.08s-.08,0-.08,0c.35-.32.72-.24,1.1-.06-.31.02-.63.03-.94.05Z"/></svg>