<?xml version="1.0" encoding="UTF-8"?>
<svg id="Calque_1" data-name="Calque 1" xmlns="http://www.w3.org/2000/svg" viewBox="0 0 128 128">
  <defs>
    <style>
      .cls-1 {
        fill: #d6d6d6;
        stroke: #000;
        stroke-width: 2px;
      }

      .cls-1, .cls-2 {
        stroke-linecap: round;
        stroke-linejoin: round;
      }

      .cls-2 {
        fill: none;
        stroke: #fff;
        stroke-width: 8px;
      }
    </style>
  </defs>
  <path class="cls-1" d="m57.46,20.47c0,4.92,0,9.83,0,14.75,0,.61,0,.6.59.6,1.04,0,2.09-.01,3.13,0,.31,0,.41-.09.45-.4.11-1.1.07-2.21.12-3.31.12-2.54.15-5.08.23-7.62.08-2.77.18-5.53.27-8.3.09-2.72.17-5.44.27-8.16.03-.76.06-1.51.07-2.27.02-.78.32-1.14,1.08-1.3.56-.12,1.04.13,1.51.37.2.1.16.34.17.54.02.95.04,1.9.07,2.86.07,1.9.07,3.81.13,5.72.11,3.4.19,6.8.28,10.2.06,2.24.14,4.47.18,6.71.02,1.54.11,3.08.16,4.62,0,.23.05.35.34.35,1.12-.02,2.24-.02,3.36-.03.63,0,.63,0,.63-.63,0-9.8,0-19.61,0-29.41,0-.74.19-1.02.84-1.25.52-.18,1.16.01,1.52.45.09.11.13.23.14.37.15,2.09.3,4.19.46,6.28.17,2.21.35,4.43.51,6.64.14,1.87.26,3.74.4,5.61.16,2.21.35,4.43.51,6.64.11,1.51.17,3.02.32,4.52.16,1.64-.15,3.19-.79,4.68-.72,1.68-1.81,3.09-3.29,4.14-1.78,1.27-2.96,2.9-3.41,5.06-.24,1.17-.18,2.36-.11,3.53.07,1.34.05,2.69.12,4.03.09,1.72.07,3.45.13,5.17.11,3.26.2,6.53.28,9.79.05,2.06.12,4.11.18,6.17.09,3.23.19,6.47.27,9.7.06,2.07.12,4.14.18,6.21.1,3.22.19,6.44.27,9.66.06,2.12.13,4.23.18,6.35.06,2.83.2,5.65.24,8.48.04,2.87-2.17,5.28-4.98,5.52-2.82.24-5.39-1.75-5.82-4.61-.2-1.36-.05-2.75,0-4.12.03-1.09.1-2.17.13-3.26.08-2.68.13-5.35.21-8.03.11-3.9.24-7.8.36-11.7.09-2.86.18-5.71.27-8.57.09-2.99.18-5.98.27-8.98.09-2.96.18-5.92.28-8.88.09-2.93.17-5.86.28-8.79.07-2.01.18-4.02.17-6.03-.02-2.62-1.08-4.75-3.21-6.29-2.33-1.69-3.9-3.85-4.47-6.7-.28-1.38-.1-2.77-.02-4.16.06-1.12.16-2.23.24-3.34.15-2.03.29-4.07.43-6.1.1-1.49.2-2.99.3-4.48.14-2.05.29-4.1.43-6.15.1-1.48.2-2.95.3-4.43.07-1.07.16-2.14.2-3.21.03-.62.34-.96.89-1.15.91-.31,1.76.28,1.76,1.23,0,4.9,0,9.8,0,14.71Z"/>
  <rect class="cls-2" x="-4597.02" y="-406.09" width="6562.35" height="1176.7"/>
</svg>