<?xml version="1.0" encoding="UTF-8"?>
<svg id="Calque_1" data-name="Calque 1" xmlns="http://www.w3.org/2000/svg" viewBox="0 0 128 128">
  <defs>
    <style>
      .cls-1 {
        fill: #76ac75;
      }

      .cls-1, .cls-2, .cls-3 {
        stroke: #000;
        stroke-width: 2px;
      }

      .cls-1, .cls-2, .cls-3, .cls-4 {
        stroke-linecap: round;
        stroke-linejoin: round;
      }

      .cls-2 {
        fill: #ff6d75;
      }

      .cls-3, .cls-4 {
        fill: none;
      }

      .cls-4 {
        stroke: #fff;
        stroke-width: 8px;
      }
    </style>
  </defs>
  <g>
    <path class="cls-2" d="m64.15,36.24c-4.72-4.65-13.57-4.7-19.23-2.84-10.35,3.39-14.19,14.45-14.86,16.39-2.99,8.63-.5,20.15,6.17,36.14.21.51,6.07,12.84,10.22,16.97,2.67,2.66,4.5,3.16,5.68,3.28,2.48.25,7.54-1.71,8.88-2.32,6.86-3.14,4.6-2.18,10.35-5.33,5.51-3.02,19.24-10.52,24.92-25.79,1.7-4.56,5.37-14.42.44-23.82-2.49-4.76-8.47-11.83-15.52-11.8-5.59.02-9.59,4.49-13.99,2.19-1.54-.81-1.67-1.69-3.06-3.06Z"/>
    <path class="cls-1" d="m72.21,42.84c0,1.22-.33,3.29-1.1,5.37-.24.63-.51,1.26-.83,1.87-1.35,2.6-5.2,2.15-7.35,2.72-2.15.56-3.39,3.84-3.39,3.84,0,0-1.81-10.06,1.24-14.48.02-.03.04-.06.06-.08,1.58-2.2,4.01-2.72,6.01-2.7.77.01,1.47.09,2.04.19.85.15,1.39.33,1.39.33,0,0,.73.52,1.29,1.28.19.25.35.51.46.8.11.27.18.56.18.86Z"/>
    <path class="cls-1" d="m71.04,33.89h0c-.68,1.75-1.35,3.53-1.87,4.93-.14-.16-.6-.65-1.2-1.36-.66-.79-1.51-1.84-2.32-3h-.01c-.05-.07-.1-.14-.14-.21-.72-1.03-1.41-2.13-1.9-3.2-.04-.07-.07-.13-.1-.2-1.7-3.73,2.11-9.05,2.11-9.05,0,0,5.01,4.3,5.58,8.54.16,1.21.07,2.43-.15,3.55Z"/>
    <path class="cls-1" d="m88.65,32.37s-.92,3.01-2.68,5.53c-.35.49-.73.99-1.15,1.47-1.69,1.96-3.86,3.67-5.81,4.14-.11.03-.23.05-.35.05-.06-.09-.12-.18-.18-.27-.05.1-.09.2-.13.29-1.74-.03-4.06-1.46-5.29-2.3l-1.03.7c-.11-.29-.27-.55-.46-.8.22-.62.56-1.52.98-2.57.39-.97.86-2.06,1.39-3.15.16-.2.34-.37.55-.5,1.92-1.25,8.21-1.25,9.88-1.51,1.68-.25,4.28-1.08,4.28-1.08Z"/>
    <path class="cls-1" d="m78.66,43.56c-.1.02-.2.02-.31.02.04-.09.08-.19.13-.29.06.09.12.18.18.27Z"/>
    <path class="cls-1" d="m81.44,60.1s-3.6-3.1-6.95-6.28c-1.5-1.42-2.61-3.61-3.38-5.61.77-2.08,1.1-4.15,1.1-5.37,0-.3-.07-.59-.18-.86l1.03-.7c1.23.84,3.55,2.27,5.29,2.3.11,0,.21,0,.31-.02.84,1.31,1.68,2.72,2.27,3.92.2.44.38.85.51,1.22,1.09,3.1,0,11.4,0,11.4Z"/>
    <path class="cls-1" d="m78.66,43.56c-.1.02-.2.02-.31.02.04-.09.08-.19.13-.29.06.09.12.18.18.27Z"/>
    <path class="cls-1" d="m78.66,43.56c-.1.02-.2.02-.31.02.04-.09.08-.19.13-.29.06.09.12.18.18.27Z"/>
    <path class="cls-1" d="m95.69,50.13s-3.94-4.27-8.05-3.44c-2.33.48-4.78.76-6.71.79-.59-1.2-1.43-2.61-2.27-3.92.12,0,.24-.02.35-.05,1.95-.47,4.12-2.18,5.81-4.14,1.72-.08,3.57-.02,4.75.45,2.76,1.09,4.78,3.94,5.28,5.37.5,1.42.84,4.94.84,4.94Z"/>
    <path class="cls-1" d="m65.5,34.25c-.1.03-.2.07-.31.11h-.01c-2.41-.49-5.26-.96-6.61-.74-1.75.28-4.28,1.67-6.42,2.7-1.42-.85-2.72-2.05-3.39-2.87-1.17-1.42-2.01-6.03-1.17-4.86.84,1.18,3.3,1.75,4.86,1.75,2.68,0,3.85-1.49,6.56-1.33,1.22.07,3,1.03,4.59,2.04.49,1.07,1.18,2.17,1.9,3.2Z"/>
    <path class="cls-1" d="m69.17,38.82c-.09.27-.19.52-.28.75-.57-.1-1.27-.18-2.04-.19-2-.02-4.43.5-6.01,2.7-2.05.21-4.43.37-6.46.34-4.7-.08-9.56-5.03-9.56-5.03,0,0,2.35.51,4.61,0,.73-.16,1.68-.57,2.72-1.07,2.14-1.03,4.67-2.42,6.42-2.7,1.35-.22,4.2.25,6.61.74h.01c.16.04.3.07.45.1h.01c.81,1.16,1.66,2.21,2.32,3,.6.71,1.06,1.2,1.2,1.36Z"/>
    <path class="cls-1" d="m86.82,23.09s-6.53,3.78-9.7,7.25c-1.16,1.28-2.26,3.2-3.18,5.12-.53,1.09-1,2.18-1.39,3.15-.42,1.05-.76,1.95-.98,2.57-.56-.76-1.29-1.28-1.29-1.28,0,0-.54-.18-1.39-.33.09-.23.19-.48.28-.75.52-1.4,1.19-3.18,1.87-4.92h0c.82-2.15,1.65-4.22,2.23-5.49,1.58-3.49,8.05-6.61,8.05-6.61l5.5,1.29Z"/>
    <line class="cls-3" x1="42.88" y1="47.31" x2="42.88" y2="50.69"/>
    <line class="cls-3" x1="51.8" y1="53.97" x2="51.8" y2="57.35"/>
    <line class="cls-3" x1="38.1" y1="62.31" x2="38.1" y2="65.68"/>
    <line class="cls-3" x1="51.23" y1="67.54" x2="51.23" y2="70.92"/>
    <line class="cls-3" x1="66.54" y1="58.41" x2="66.54" y2="61.79"/>
    <line class="cls-3" x1="69.86" y1="68.46" x2="69.86" y2="71.84"/>
    <line class="cls-3" x1="81.38" y1="63.35" x2="81.38" y2="66.73"/>
    <line class="cls-3" x1="91.62" y1="52.28" x2="91.62" y2="55.66"/>
    <line class="cls-3" x1="88.21" y1="73.4" x2="88.21" y2="76.78"/>
    <line class="cls-3" x1="75.76" y1="82.53" x2="75.76" y2="85.91"/>
    <line class="cls-3" x1="60.45" y1="79.85" x2="60.45" y2="83.23"/>
    <line class="cls-3" x1="42.88" y1="73.95" x2="42.88" y2="77.33"/>
    <line class="cls-3" x1="47.82" y1="81.97" x2="47.82" y2="85.35"/>
    <line class="cls-3" x1="46.62" y1="93.22" x2="46.62" y2="96.6"/>
    <line class="cls-3" x1="60.45" y1="94.51" x2="60.45" y2="97.89"/>
  </g>
  <rect class="cls-4" x="-406.6" y="-1403.97" width="3385.57" height="2571.67"/>
</svg>