<?xml version="1.0" encoding="UTF-8"?>
<svg id="Calque_1" data-name="Calque 1" xmlns="http://www.w3.org/2000/svg" viewBox="0 0 268.43 96.36">
  <defs>
    <style>
      .cls-1 {
        fill: #d6d7d7;
      }

      .cls-1, .cls-2, .cls-3, .cls-4, .cls-5 {
        stroke-linecap: round;
        stroke-linejoin: round;
      }

      .cls-1, .cls-2, .cls-3, .cls-4, .cls-6 {
        stroke: #010101;
      }

      .cls-2 {
        fill: #a17737;
      }

      .cls-3 {
        fill: #bfe5fb;
      }

      .cls-4, .cls-7 {
        fill: #fff;
      }

      .cls-8 {
        fill: #f7e7d5;
      }

      .cls-9 {
        fill: #010101;
      }

      .cls-10 {
        fill: #566985;
      }

      .cls-11 {
        fill: #3b2c15;
        font-family: Arial-BoldMT, Arial;
        font-size: 16.72px;
        font-weight: 700;
      }

      .cls-11, .cls-12 {
        isolation: isolate;
      }

      .cls-13 {
        fill: #cfaa57;
        stroke: #cfaa57;
      }

      .cls-13, .cls-6 {
        stroke-miterlimit: 10;
      }

      .cls-5 {
        stroke: #fff;
        stroke-width: 8px;
      }

      .cls-5, .cls-6 {
        fill: none;
      }

      .cls-14 {
        opacity: .3;
      }

      .cls-15 {
        opacity: .58;
      }
    </style>
  </defs>
  <rect class="cls-5" x="-3627.88" y="-4360.96" width="6467.34" height="6437.3"/>
  <g id="Titres_catégories" data-name="Titres catégories">
    <g>
      <path class="cls-3" d="m97.62,31.13c.79.86,1.23,1.98,1.23,3.14v35.02c0,3-3.84,4.34-8.6,4.34s-8.59-1.34-8.59-4.34v-35.01c0-1.16.44-2.29,1.24-3.15l.47-.51c.79-.86,1.24-1.98,1.24-3.15v-2.64h11.32v2.64c0,1.16.44,2.28,1.24,3.14l.47.52h-.02Z"/>
      <path class="cls-7" d="m98.85,38.95v30.54c0,2.86-3.84,4.14-8.6,4.14s-8.59-1.28-8.59-4.14v-30.54"/>
      <path class="cls-6" d="m98.85,38.95v30.54c0,2.86-3.84,4.14-8.6,4.14s-8.59-1.28-8.59-4.14v-30.54"/>
      <path class="cls-2" d="m93.93,18.57v2.49h-7.35v-2.49c0-.25.07-.48.18-.68.42-.69,1.36-1.41,1.56-2.19.18-.71.27-1.44.27-2.18,0-.28,0-.55-.04-.84,0-.12-.03-.24-.04-.36,0-.94.78-1.7,1.75-1.7s1.75.77,1.75,1.7c-.02.12-.03.24-.04.36-.1,1.12,0,2.24.31,3.31.19.68,1.12,1.29,1.47,1.9.12.2.18.43.18.68h0Z"/>
      <path class="cls-4" d="m97.08,22.62l-1.3-.11c-3.65-.3-7.3-.3-10.95,0l-1.41.11v3.51l1.38-.11c3.65-.29,7.3-.29,10.95,0l1.34.11v-3.51h0Z"/>
      <path class="cls-4" d="m96.38,22.56h0c-4.06-.36-8.14-.36-12.19,0h-.06v-1.93h.07c4.06-.36,8.14-.36,12.19,0v1.94h0Z"/>
      <path class="cls-6" d="m84.31,36.45h3.09"/>
      <path class="cls-6" d="m84.31,41.35h3.09"/>
      <path class="cls-6" d="m84.31,46.24h3.09"/>
      <path class="cls-6" d="m84.31,51.13h3.09"/>
      <path class="cls-6" d="m84.31,56.03h3.09"/>
      <path class="cls-6" d="m84.31,60.92h3.09"/>
      <path class="cls-6" d="m84.31,65.81h3.09"/>
      <path class="cls-7" d="m91.97,31.05h2.54c.4,0,.89,1.64.98,1.94.27.84.3,1.66.34,2.54,0,.12.13,1.78.05,1.78h-2.29c.06,0-.17-3.31-.22-3.57-.09-.55-.25-1.09-.52-1.58-.14-.25-.54-1.09-.87-1.09h0Z"/>
    </g>
    <g>
      <path class="cls-3" d="m129.89,31.13c.79.86,1.23,1.98,1.23,3.14v35.02c0,3-3.84,4.34-8.6,4.34s-8.59-1.34-8.59-4.34v-35.01c0-1.16.44-2.29,1.24-3.15l.47-.51c.79-.86,1.24-1.98,1.24-3.15v-2.64h11.32v2.64c0,1.16.44,2.28,1.24,3.14l.47.52h-.02Z"/>
      <path class="cls-7" d="m131.12,38.95v30.54c0,2.86-3.84,4.14-8.6,4.14s-8.59-1.28-8.59-4.14v-30.54"/>
      <path class="cls-6" d="m131.12,38.95v30.54c0,2.86-3.84,4.14-8.6,4.14s-8.59-1.28-8.59-4.14v-30.54"/>
      <path class="cls-2" d="m126.2,18.57v2.49h-7.35v-2.49c0-.25.07-.48.18-.68.42-.69,1.36-1.41,1.56-2.19.18-.71.27-1.44.27-2.18,0-.28,0-.55-.04-.84,0-.12-.03-.24-.04-.36,0-.94.78-1.7,1.75-1.7s1.75.77,1.75,1.7c-.02.12-.03.24-.04.36-.1,1.12,0,2.24.31,3.31.19.68,1.12,1.29,1.47,1.9.12.2.18.43.18.68h0Z"/>
      <path class="cls-4" d="m129.35,22.62l-1.3-.11c-3.65-.3-7.3-.3-10.95,0l-1.41.11v3.51l1.38-.11c3.65-.29,7.3-.29,10.95,0l1.34.11v-3.51h0Z"/>
      <path class="cls-4" d="m128.65,22.56h0c-4.06-.36-8.14-.36-12.19,0h-.06v-1.93h.07c4.06-.36,8.14-.36,12.19,0v1.94h0Z"/>
      <path class="cls-6" d="m116.57,36.45h3.09"/>
      <path class="cls-6" d="m116.57,41.35h3.09"/>
      <path class="cls-6" d="m116.57,46.24h3.09"/>
      <path class="cls-6" d="m116.57,51.13h3.09"/>
      <path class="cls-6" d="m116.57,56.03h3.09"/>
      <path class="cls-6" d="m116.57,60.92h3.09"/>
      <path class="cls-6" d="m116.57,65.81h3.09"/>
      <path class="cls-7" d="m124.23,31.05h2.54c.4,0,.89,1.64.98,1.94.27.84.3,1.66.34,2.54,0,.12.13,1.78.05,1.78h-2.29c.06,0-.17-3.31-.22-3.57-.09-.55-.25-1.09-.52-1.58-.14-.25-.54-1.09-.87-1.09h0Z"/>
    </g>
    <g>
      <path class="cls-3" d="m162.16,31.13c.79.86,1.23,1.98,1.23,3.14v35.02c0,3-3.84,4.34-8.6,4.34s-8.59-1.34-8.59-4.34v-35.01c0-1.16.44-2.29,1.24-3.15l.47-.51c.79-.86,1.24-1.98,1.24-3.15v-2.64h11.32v2.64c0,1.16.44,2.28,1.24,3.14l.47.52h-.02Z"/>
      <path class="cls-7" d="m163.38,38.95v30.54c0,2.86-3.84,4.14-8.6,4.14s-8.59-1.28-8.59-4.14v-30.54"/>
      <path class="cls-6" d="m163.38,38.95v30.54c0,2.86-3.84,4.14-8.6,4.14s-8.59-1.28-8.59-4.14v-30.54"/>
      <path class="cls-2" d="m158.47,18.57v2.49h-7.35v-2.49c0-.25.07-.48.18-.68.42-.69,1.36-1.41,1.56-2.19.18-.71.27-1.44.27-2.18,0-.28,0-.55-.04-.84,0-.12-.03-.24-.04-.36,0-.94.78-1.7,1.75-1.7s1.75.77,1.75,1.7c-.02.12-.03.24-.04.36-.1,1.12,0,2.24.31,3.31.19.68,1.12,1.29,1.47,1.9.12.2.18.43.18.68h0Z"/>
      <path class="cls-4" d="m161.62,22.62l-1.3-.11c-3.65-.3-7.3-.3-10.95,0l-1.41.11v3.51l1.38-.11c3.65-.29,7.3-.29,10.95,0l1.34.11v-3.51h0Z"/>
      <path class="cls-4" d="m160.92,22.56h0c-4.06-.36-8.14-.36-12.19,0h-.06v-1.93h.07c4.06-.36,8.14-.36,12.19,0v1.94h0Z"/>
      <path class="cls-6" d="m148.84,36.45h3.09"/>
      <path class="cls-6" d="m148.84,41.35h3.09"/>
      <path class="cls-6" d="m148.84,46.24h3.09"/>
      <path class="cls-6" d="m148.84,51.13h3.09"/>
      <path class="cls-6" d="m148.84,56.03h3.09"/>
      <path class="cls-6" d="m148.84,60.92h3.09"/>
      <path class="cls-6" d="m148.84,65.81h3.09"/>
      <path class="cls-7" d="m156.5,31.05h2.54c.4,0,.89,1.64.98,1.94.27.84.3,1.66.34,2.54,0,.12.13,1.78.05,1.78h-2.29c.06,0-.17-3.31-.22-3.57-.09-.55-.25-1.09-.52-1.58-.14-.25-.54-1.09-.87-1.09h0Z"/>
    </g>
    <g class="cls-15">
      <path class="cls-3" d="m194.42,31.13c.79.86,1.23,1.98,1.23,3.14v35.02c0,3-3.84,4.34-8.6,4.34s-8.59-1.34-8.59-4.34v-35.01c0-1.16.44-2.29,1.24-3.15l.47-.51c.79-.86,1.24-1.98,1.24-3.15v-2.64h11.32v2.64c0,1.16.44,2.28,1.24,3.14l.47.52h-.02Z"/>
      <path class="cls-7" d="m195.65,38.95v30.54c0,2.86-3.84,4.14-8.6,4.14s-8.59-1.28-8.59-4.14v-30.54"/>
      <path class="cls-6" d="m195.65,38.95v30.54c0,2.86-3.84,4.14-8.6,4.14s-8.59-1.28-8.59-4.14v-30.54"/>
      <path class="cls-2" d="m190.74,18.57v2.49h-7.35v-2.49c0-.25.07-.48.18-.68.42-.69,1.36-1.41,1.56-2.19.18-.71.27-1.44.27-2.18,0-.28,0-.55-.04-.84,0-.12-.03-.24-.04-.36,0-.94.78-1.7,1.75-1.7s1.75.77,1.75,1.7c-.02.12-.03.24-.04.36-.1,1.12,0,2.24.31,3.31.19.68,1.12,1.29,1.47,1.9.12.2.18.43.18.68h0Z"/>
      <path class="cls-4" d="m193.89,22.62l-1.3-.11c-3.65-.3-7.3-.3-10.95,0l-1.41.11v3.51l1.38-.11c3.65-.29,7.3-.29,10.95,0l1.34.11v-3.51h0Z"/>
      <path class="cls-4" d="m193.19,22.56h0c-4.06-.36-8.14-.36-12.19,0h-.06v-1.93h.07c4.06-.36,8.14-.36,12.19,0v1.94h0Z"/>
      <path class="cls-6" d="m181.11,36.45h3.09"/>
      <path class="cls-6" d="m181.11,41.35h3.09"/>
      <path class="cls-6" d="m181.11,46.24h3.09"/>
      <path class="cls-6" d="m181.11,51.13h3.09"/>
      <path class="cls-6" d="m181.11,56.03h3.09"/>
      <path class="cls-6" d="m181.11,60.92h3.09"/>
      <path class="cls-6" d="m181.11,65.81h3.09"/>
      <path class="cls-7" d="m188.77,31.05h2.54c.4,0,.89,1.64.98,1.94.27.84.3,1.66.34,2.54,0,.12.13,1.78.05,1.78h-2.29c.06,0-.17-3.31-.22-3.57-.09-.55-.25-1.09-.52-1.58-.14-.25-.54-1.09-.87-1.09h0Z"/>
    </g>
    <g class="cls-14">
      <path class="cls-3" d="m226.69,31.13c.79.86,1.23,1.98,1.23,3.14v35.02c0,3-3.84,4.34-8.6,4.34s-8.59-1.34-8.59-4.34v-35.01c0-1.16.44-2.29,1.24-3.15l.47-.51c.79-.86,1.24-1.98,1.24-3.15v-2.64h11.32v2.64c0,1.16.44,2.28,1.24,3.14l.47.52h-.02Z"/>
      <path class="cls-7" d="m227.92,38.95v30.54c0,2.86-3.84,4.14-8.6,4.14s-8.59-1.28-8.59-4.14v-30.54"/>
      <path class="cls-6" d="m227.92,38.95v30.54c0,2.86-3.84,4.14-8.6,4.14s-8.59-1.28-8.59-4.14v-30.54"/>
      <path class="cls-2" d="m223,18.57v2.49h-7.35v-2.49c0-.25.07-.48.18-.68.42-.69,1.36-1.41,1.56-2.19.18-.71.27-1.44.27-2.18,0-.28,0-.55-.04-.84,0-.12-.03-.24-.04-.36,0-.94.78-1.7,1.75-1.7s1.75.77,1.75,1.7c-.02.12-.03.24-.04.36-.1,1.12,0,2.24.31,3.31.19.68,1.12,1.29,1.47,1.9.12.2.18.43.18.68h0Z"/>
      <path class="cls-4" d="m226.15,22.62l-1.3-.11c-3.65-.3-7.3-.3-10.95,0l-1.41.11v3.51l1.38-.11c3.65-.29,7.3-.29,10.95,0l1.34.11v-3.51h0Z"/>
      <path class="cls-4" d="m225.46,22.56h0c-4.06-.36-8.14-.36-12.19,0h-.06v-1.93h.07c4.06-.36,8.14-.36,12.19,0v1.94h0Z"/>
      <path class="cls-6" d="m213.37,36.45h3.09"/>
      <path class="cls-6" d="m213.37,41.35h3.09"/>
      <path class="cls-6" d="m213.37,46.24h3.09"/>
      <path class="cls-6" d="m213.37,51.13h3.09"/>
      <path class="cls-6" d="m213.37,56.03h3.09"/>
      <path class="cls-6" d="m213.37,60.92h3.09"/>
      <path class="cls-6" d="m213.37,65.81h3.09"/>
      <path class="cls-7" d="m221.04,31.05h2.54c.4,0,.89,1.64.98,1.94.27.84.3,1.66.34,2.54,0,.12.13,1.78.05,1.78h-2.29c.06,0-.17-3.31-.22-3.57-.09-.55-.25-1.09-.52-1.58-.14-.25-.54-1.09-.87-1.09h0Z"/>
    </g>
    <path class="cls-13" d="m228.8,32.97c1.46-1.55,3.46-2.33,6.01-2.33,2.36,0,4.25.67,5.66,2,1.41,1.33,2.13,3.02,2.13,5.1,0,1.25-.25,2.26-.77,3.05-.52.78-1.57,1.92-3.16,3.44-1.16,1.09-1.91,2.02-2.26,2.8-.23.49-.39,1.15-.46,1.95-.08.81-.75,1.42-1.57,1.42-.93,0-1.66-.81-1.57-1.73.09-.91.27-1.7.52-2.35.4-1.03,1.29-2.22,2.67-3.56l1.44-1.4c.43-.4.78-.82,1.05-1.25.49-.77.73-1.57.73-2.39,0-1.15-.36-2.17-1.06-3.01-.71-.85-1.87-1.28-3.5-1.28-2.01,0-3.4.73-4.18,2.2-.3.56-.51,1.28-.63,2.18-.11.78-.78,1.35-1.56,1.35-.97,0-1.72-.87-1.57-1.83.27-1.72.96-3.16,2.04-4.32h.02v-.03Zm5.61,21.07c.97,0,1.76.79,1.76,1.76v.16c0,.97-.79,1.76-1.76,1.76s-1.76-.79-1.76-1.76v-.16c0-.97.79-1.76,1.76-1.76Z"/>
    <g>
      <g>
        <path class="cls-8" d="m36.62,58.48l-.12.15.12-.15Z"/>
        <path class="cls-8" d="m36.65,59.3l-.19.2.19-.2Z"/>
        <path class="cls-8" d="m36.45,60.25l.17-.1.02-.02-.2.12Z"/>
        <path class="cls-8" d="m36.64,60.68l-.17.08.17-.08Z"/>
        <path class="cls-8" d="m36.67,61.07l-.24.05.24-.05Z"/>
        <path class="cls-1" d="m36.55,71.51c15.49,0,28.05-12.57,28.05-28.08s-12.56-28.08-28.05-28.08-28.05,12.57-28.05,28.08,12.56,28.08,28.05,28.08Z"/>
        <path class="cls-7" d="m36.55,65.69c12.29,0,22.24-9.97,22.24-22.26s-9.95-22.26-22.24-22.26-22.24,9.97-22.24,22.26,9.95,22.26,22.24,22.26Z"/>
        <path class="cls-10" d="m17.65,62.3c.22.22.46.44.68.65-.24-.21-.46-.43-.68-.65Z"/>
        <path class="cls-10" d="m18.33,62.96c.39.36.78.71,1.19,1.04-.41-.33-.8-.68-1.19-1.04Z"/>
        <path class="cls-10" d="m19.52,64c.32.27.65.53,1,.79-.33-.26-.66-.51-1-.79Z"/>
        <path class="cls-9" d="m36.26,26.5c.67,0,1.21-.54,1.21-1.21s-.54-1.21-1.21-1.21-1.21.54-1.21,1.21.54,1.21,1.21,1.21Z"/>
        <path class="cls-9" d="m27.69,28.8c-.58.33-1.31.13-1.66-.44-.33-.58-.13-1.32.44-1.65.58-.33,1.31-.13,1.65.44s.13,1.32-.44,1.66h0v-.02Z"/>
        <path class="cls-9" d="m21.42,35.09c-.33.58-1.07.78-1.66.44-.58-.33-.78-1.07-.44-1.66.33-.58,1.07-.78,1.66-.44.58.33.78,1.07.44,1.66Z"/>
        <path class="cls-9" d="m17.9,44.88c.67,0,1.21-.54,1.21-1.21s-.54-1.21-1.21-1.21-1.21.54-1.21,1.21.54,1.21,1.21,1.21Z"/>
        <path class="cls-9" d="m20.97,53.91c-.58.33-1.31.13-1.66-.44-.33-.58-.13-1.32.44-1.66.58-.33,1.31-.13,1.66.44.33.58.13,1.32-.44,1.66Z"/>
        <path class="cls-9" d="m28.14,60.2c-.33.58-1.07.78-1.65.44-.58-.33-.78-1.07-.44-1.66.33-.58,1.07-.78,1.66-.44.58.33.78,1.07.44,1.66h-.02Z"/>
        <path class="cls-9" d="m36.26,63.26c.67,0,1.21-.54,1.21-1.21s-.54-1.21-1.21-1.21-1.21.54-1.21,1.21.54,1.21,1.21,1.21Z"/>
        <path class="cls-9" d="m46.05,60.64c-.58.33-1.31.13-1.66-.44-.33-.58-.13-1.32.44-1.66.58-.33,1.31-.13,1.65.44.33.58.13,1.32-.44,1.66h.02Z"/>
        <path class="cls-9" d="m53.21,53.47c-.33.58-1.07.78-1.66.44-.58-.33-.78-1.07-.44-1.66.33-.58,1.07-.78,1.66-.44.58.33.78,1.07.44,1.66Z"/>
        <path class="cls-9" d="m54.63,44.88c.67,0,1.21-.54,1.21-1.21s-.54-1.21-1.21-1.21-1.21.54-1.21,1.21.54,1.21,1.21,1.21Z"/>
        <path class="cls-9" d="m46.49,28.36c-.33.58-1.07.78-1.65.44-.58-.33-.78-1.07-.44-1.66.33-.58,1.07-.78,1.66-.44.58.33.78,1.07.44,1.65h0v.02Z"/>
        <path class="cls-9" d="m52.51,35.09c-.33.58-1.07.78-1.65.44s-.78-1.07-.44-1.66c.33-.58,1.07-.78,1.66-.44.58.33.78,1.07.44,1.65h0v.02Z"/>
        <path class="cls-9" d="m37.44,42.28v15.47c0,.4-.38.73-.85.73s-.85-.32-.85-.73v-15.47c0-.4.38-.73.85-.73s.85.32.85.73Z"/>
        <path class="cls-9" d="m36.58,34.48c.6,0,1.09.3,1.09.68v9.44c0,.38-.49.68-1.09.68s-1.09-.3-1.09-.68v-9.44c0-.38.49-.68,1.09-.68Z"/>
        <path class="cls-9" d="m38.97,43.74c0,.4-.1.77-.27,1.09-.27.52-.72.93-1.28,1.13-.27.1-.55.15-.85.15s-.59-.05-.85-.15c-.32-.12-.6-.31-.83-.54-.17-.17-.32-.38-.43-.59-.17-.32-.27-.7-.27-1.09s.1-.77.27-1.09c.27-.52.72-.93,1.26-1.13.27-.1.55-.15.85-.15s.59.05.85.15c.32.12.6.31.83.54.17.17.32.38.43.6.17.33.27.7.27,1.09h0v-.02Z"/>
      </g>
      <g class="cls-12">
        <text class="cls-11" transform="translate(21.45 92.36)"><tspan x="0" y="0">24h</tspan></text>
      </g>
    </g>
  </g>
</svg>