<?xml version="1.0" encoding="UTF-8"?>
<svg id="Calque_1" data-name="Calque 1" xmlns="http://www.w3.org/2000/svg" viewBox="0 0 200 128">
  <defs>
    <style>
      .cls-1, .cls-2, .cls-3, .cls-4, .cls-5, .cls-6, .cls-7 {
        stroke: #000;
      }

      .cls-1, .cls-2, .cls-3, .cls-6, .cls-7, .cls-8 {
        stroke-linecap: round;
        stroke-linejoin: round;
      }

      .cls-1, .cls-5 {
        fill: #fff;
      }

      .cls-2, .cls-3, .cls-7, .cls-8 {
        fill: none;
      }

      .cls-3 {
        stroke-dasharray: 0 0 4.43 4.43;
      }

      .cls-4, .cls-5 {
        stroke-miterlimit: 10;
      }

      .cls-9 {
        fill: #f6e7d4;
      }

      .cls-10 {
        fill: #dfdfe0;
      }

      .cls-11 {
        fill: #87ccf3;
      }

      .cls-5, .cls-6, .cls-7 {
        stroke-width: 2px;
      }

      .cls-6 {
        fill: #bfe6fc;
      }

      .cls-8 {
        stroke: #fff;
        stroke-width: 8px;
      }
    </style>
  </defs>
  <g>
    <g>
      <line class="cls-2" x1="55.4" y1="64.38" x2="55.4" y2="60.38"/>
      <line class="cls-3" x1="55.4" y1="55.95" x2="55.4" y2="49.32"/>
      <line class="cls-2" x1="55.4" y1="47.1" x2="55.4" y2="43.1"/>
    </g>
    <g>
      <path class="cls-6" d="m56.86,36.36c0-4.26-4.48-7.72-10.01-7.72-5.53,0-10.01,3.46-10.01,7.72h20.02Z"/>
      <g>
        <line class="cls-2" x1="47.34" y1="64.38" x2="47.34" y2="60.38"/>
        <line class="cls-3" x1="47.34" y1="55.95" x2="47.34" y2="49.32"/>
        <line class="cls-2" x1="47.34" y1="47.1" x2="47.34" y2="43.1"/>
      </g>
      <g>
        <line class="cls-2" x1="38.7" y1="64.38" x2="38.7" y2="60.38"/>
        <line class="cls-3" x1="38.7" y1="55.95" x2="38.7" y2="49.32"/>
        <line class="cls-2" x1="38.7" y1="47.1" x2="38.7" y2="43.1"/>
      </g>
      <g>
        <line class="cls-2" x1="51.37" y1="69.92" x2="51.37" y2="65.92"/>
        <line class="cls-3" x1="51.37" y1="61.49" x2="51.37" y2="54.86"/>
        <line class="cls-2" x1="51.37" y1="52.64" x2="51.37" y2="48.64"/>
      </g>
      <g>
        <line class="cls-2" x1="43.14" y1="69.92" x2="43.14" y2="65.92"/>
        <line class="cls-3" x1="43.14" y1="61.49" x2="43.14" y2="54.86"/>
        <line class="cls-2" x1="43.14" y1="52.64" x2="43.14" y2="48.64"/>
      </g>
      <g>
        <polyline class="cls-7" points="13.26 95.03 13.26 63.04 13.26 60.38 13.26 24.62"/>
        <line class="cls-7" x1="46.86" y1="24.62" x2="46.86" y2="27.95"/>
        <path class="cls-7" d="m46.86,24.62c0-4.61-3.78-8.38-8.38-8.38h-16.83c-2.3,0-4.4.94-5.92,2.46-1.52,1.52-2.46,3.61-2.46,5.92"/>
      </g>
      <line class="cls-7" x1="36.85" y1="39.39" x2="56.86" y2="39.39"/>
    </g>
  </g>
  <path class="cls-9" d="m72.2,107.83c0,.77.16,1.5.44,2.16-.28-.67-.44-1.4-.44-2.16Z"/>
  <path class="cls-9" d="m73.51,113.38h0c-.77,0-1.5-.15-2.16-.44.66.28,1.4.44,2.16.44Z"/>
  <path class="cls-9" d="m68.9,110.93c.35.52.81.97,1.31,1.35l.19.15c-.59-.4-1.1-.91-1.5-1.5Z"/>
  <path class="cls-11" d="m94.03,103.88c1.69,0,3.06-1.37,3.06-3.06s-3.06-5.4-3.06-5.4c0,0-3.06,3.71-3.06,5.4s1.37,3.06,3.06,3.06Z"/>
  <line class="cls-2" x1="101.23" y1="109.06" x2="101.23" y2="47.8"/>
  <line class="cls-2" x1="87.22" y1="109.06" x2="87.22" y2="47.8"/>
  <path class="cls-6" d="m184.4,24.8h.15c.38,0,.76.04,1.12.11,2.53.52,4.44,2.76,4.44,5.44v13.44h-121.87v-13.44c0-.34.04-.67.1-1l.06-.27c.06-.25.14-.5.23-.73l.08-.21c.12-.28.27-.55.44-.81l.04-.08.13-.16c.13-.17.27-.34.41-.5l.24-.25c.2-.19.41-.37.64-.53l.08-.06.6-.33c.12-.06.22-.13.34-.19.47-.2.97-.33,1.49-.4.22-.03.44-.04.67-.04h.35v.04h3.35v-.04h6.37v.04h3.35v-.04h6.38v.03h3.35v-.03h6.37v.03h3.35v-.03h6.43v.03h3.35v-.03h6.37v.02h3.35v-.02h6.36v.02h3.35v-.02h6.37s3.35.01,3.35.01h0s6.34-.01,6.34-.01h0s3.35.01,3.35.01h0s6.37-.01,6.37-.01h0s3.35,0,3.35,0h0s6.28,0,6.28,0h0s3.35,0,3.35,0h0s6.37,0,6.37,0h0s2.54,0,2.54,0h.81Z"/>
  <path class="cls-7" d="m68.24,43.8v65.77c0,.77.16,1.5.44,2.16.14.33.31.65.51.94.4.59.91,1.1,1.5,1.5.3.2.61.37.94.51.66.28,1.4.44,2.16.44h110.76c.34,0,.67-.04,1-.1l.22-.04c.31-.07.61-.16.9-.28l.15-.07c.25-.11.49-.24.72-.39l.18-.12c.25-.17.47-.36.69-.57l.17-.18c.18-.19.34-.39.49-.6l.11-.14v-.02s0,0,0,0c.58-.88.92-1.92.92-3.05V43.8m-116.98,4.05h112.4v61.26h-112.4v-61.26Z"/>
  <path class="cls-10" d="m123.44,31.51l-.22-.23.22.23Z"/>
  <path class="cls-10" d="m125.03,31.82c.12-.04.24-.09.34-.16-.11.07-.22.12-.34.16Z"/>
  <path class="cls-10" d="m124.51,31.91c.15,0,.29-.02.42-.06-.13.04-.27.06-.42.06Z"/>
  <path class="cls-10" d="m134.23,31.91c.15,0,.29-.02.42-.06-.13.04-.28.06-.42.06Z"/>
  <path class="cls-10" d="m134.75,31.82c.12-.04.24-.09.34-.16-.11.07-.22.12-.34.16Z"/>
  <g>
    <path class="cls-1" d="m75.82,21.34c-.18,0-.34.04-.5.09,0,0,0,0,0,0,0,0-.01,0-.02.01-.14.05-.27.11-.4.2-.02.01-.04.03-.07.04-.13.1-.25.2-.34.33l-.02.02c-.09.13-.17.27-.22.42l-.03.08c-.05.15-.08.31-.08.48v7.22c0,.92.75,1.68,1.68,1.68h0c.15,0,.29-.02.42-.06l.1-.03c.12-.04.24-.09.34-.16h.03c.25-.18.46-.4.6-.67.12-.23.19-.48.19-.75v-7.22c0-.92-.75-1.68-1.68-1.68Z"/>
    <path class="cls-1" d="m85.55,21.34c-.18,0-.34.04-.5.09,0,0,0,0,0,0,0,0-.01,0-.02.01-.14.05-.27.11-.4.2-.02.02-.05.03-.07.04-.13.1-.25.2-.34.33l-.02.02c-.09.13-.17.27-.22.42l-.03.08c-.05.15-.08.31-.08.48v7.22c0,.92.75,1.68,1.68,1.68h0c.15,0,.29-.02.42-.06l.1-.03c.12-.04.24-.09.34-.16h.03c.13-.09.24-.19.34-.3,0,0,.01-.02.02-.03.09-.1.17-.22.23-.34,0,0,0,0,0,0h0c.12-.23.19-.48.19-.75v-7.22c0-.92-.75-1.68-1.68-1.68Z"/>
    <path class="cls-1" d="m95.28,21.34c-.18,0-.34.04-.5.09,0,0,0,0,0,0,0,0-.01,0-.02.01-.14.05-.27.11-.4.2-.02.02-.05.03-.07.04-.13.1-.25.2-.34.33l-.02.02c-.09.13-.17.27-.22.42l-.03.08c-.05.15-.08.31-.08.48v7.22c0,.92.75,1.68,1.68,1.68h0c.15,0,.29-.02.42-.06l.1-.03c.12-.04.24-.09.34-.16h.03c.25-.18.46-.4.6-.67.12-.23.19-.48.19-.75v-7.22c0-.92-.75-1.68-1.68-1.68Z"/>
    <path class="cls-1" d="m105,21.34c-.18,0-.34.04-.5.09,0,0,0,0,0,0,0,0-.01,0-.02.01-.14.05-.27.11-.39.2-.02.02-.05.03-.07.05-.13.1-.25.2-.34.33l-.02.02c-.1.13-.17.27-.22.42l-.03.08c-.05.15-.08.31-.08.48v7.22c0,.4.15.76.38,1.05l.22.23c.29.25.66.4,1.07.4h0c.15,0,.29-.02.42-.06l.1-.03c.12-.04.24-.09.34-.16h.03c.13-.09.24-.19.34-.3,0,0,0-.01.01-.02.09-.1.17-.22.24-.34,0,0,0,0,0,0,0,0,0,0,0,0,.12-.23.19-.48.19-.76v-7.22c0-.92-.75-1.68-1.68-1.68Z"/>
    <path class="cls-1" d="m114.78,21.34c-.18,0-.34.04-.5.09,0,0,0,0,0,0,0,0-.01,0-.02.01-.14.05-.27.11-.4.2-.02.02-.04.03-.07.04-.13.1-.25.2-.34.33l-.02.02c-.09.13-.17.27-.22.42l-.03.08c-.05.15-.08.31-.08.48v7.22c0,.92.75,1.68,1.68,1.68h0c.15,0,.29-.02.42-.06l.1-.03c.12-.04.24-.09.34-.16h.03c.13-.09.24-.19.34-.3,0,0,.01-.02.02-.03.09-.1.17-.22.23-.34,0,0,0,0,0,0,0,0,0,0,0,0,.12-.23.19-.48.19-.76v-7.22c0-.92-.75-1.68-1.68-1.68Z"/>
    <path class="cls-1" d="m124.51,21.34c-.18,0-.34.04-.5.09,0,0,0,0,0,0,0,0-.01,0-.02.01-.14.05-.27.11-.4.2-.02.02-.05.03-.07.05-.13.1-.25.2-.34.33l-.02.02c-.09.13-.17.27-.22.42l-.03.08c-.05.15-.08.31-.08.48v7.22c0,.4.15.76.38,1.05l.22.23c.29.25.66.4,1.07.4h0c.15,0,.29-.02.42-.06l.1-.03c.12-.04.24-.09.34-.16h.03c.13-.09.24-.19.34-.3,0,0,0-.01.01-.02.09-.1.17-.22.24-.34,0,0,0,0,0,0,0,0,0,0,0,0,.12-.23.19-.48.19-.76v-7.22c0-.92-.75-1.68-1.68-1.68Z"/>
    <path class="cls-1" d="m134.23,21.34c-.18,0-.34.04-.5.09,0,0,0,0,0,0,0,0-.01,0-.02.01-.14.05-.27.11-.4.2-.02.02-.05.03-.07.05-.13.1-.25.2-.34.33l-.02.02c-.09.13-.17.27-.22.42l-.03.08c-.05.15-.08.32-.08.48v7.22c0,.92.75,1.68,1.68,1.68h0c.15,0,.29-.02.42-.06l.1-.03c.12-.04.24-.09.34-.16h.03c.13-.09.24-.19.34-.3,0,0,0-.01.01-.02.09-.1.17-.22.24-.34,0,0,0,0,0,0,0,0,0,0,0,0,.12-.23.19-.48.19-.76v-7.22c0-.92-.75-1.68-1.68-1.68Z"/>
    <path class="cls-1" d="m143.96,21.34c-.18,0-.34.04-.5.09,0,0,0,0,0,0,0,0-.01,0-.02.01-.14.05-.28.12-.4.2-.02.01-.04.03-.07.04-.13.1-.25.2-.34.33l-.02.02c-.09.13-.17.27-.22.42l-.03.08c-.05.15-.08.31-.08.48v7.22c0,.92.75,1.68,1.68,1.68h0c.15,0,.29-.02.42-.06l.1-.03c.12-.04.24-.09.34-.16h.03c.13-.09.24-.19.34-.3,0,0,0-.01.01-.02.09-.1.17-.22.24-.34,0,0,0,0,0,0,0,0,0,0,0,0,.12-.23.19-.48.19-.76v-7.22c0-.92-.75-1.68-1.68-1.68Z"/>
    <path class="cls-1" d="m153.64,21.34c-.18,0-.34.04-.5.09,0,0,0,0,0,0,0,0-.01,0-.02.01-.14.05-.27.11-.4.2-.02.02-.05.03-.07.04-.13.1-.25.2-.34.33l-.02.02c-.09.13-.17.27-.22.42l-.03.08c-.05.15-.08.31-.08.48v7.22c0,.92.75,1.68,1.68,1.68h0c.15,0,.29-.02.42-.06l.1-.03c.12-.04.24-.09.34-.16h.03c.25-.18.46-.4.6-.67.12-.23.19-.48.19-.75v-7.22c0-.92-.75-1.68-1.68-1.68Z"/>
    <path class="cls-1" d="m163.37,21.34c-.18,0-.34.04-.5.09,0,0,0,0,0,0,0,0-.01,0-.02.01-.14.05-.27.11-.4.2-.02.02-.04.03-.07.04-.13.1-.25.2-.34.33l-.02.02c-.09.13-.17.27-.22.42l-.03.08c-.05.15-.08.31-.08.48v7.22c0,.4.15.76.38,1.05l.22.23c.29.25.66.4,1.07.4h0c.15,0,.29-.02.42-.06l.1-.03c.12-.04.24-.09.34-.16h.03c.13-.09.24-.19.34-.3,0,0,.01-.02.02-.03.09-.1.17-.22.23-.34,0,0,0,0,0,0,0,0,0,0,0,0,.12-.23.19-.48.19-.76v-7.22c0-.92-.75-1.68-1.68-1.68Z"/>
    <path class="cls-1" d="m173,21.34c-.18,0-.34.04-.5.09,0,0,0,0,0,0,0,0-.01,0-.02.01-.14.05-.28.12-.4.2-.02.02-.04.03-.07.04-.13.1-.25.2-.34.33l-.02.02c-.09.13-.17.27-.22.42l-.03.08c-.05.15-.08.31-.08.48v7.22c0,.92.75,1.68,1.68,1.68h0c.15,0,.29-.02.42-.06l.1-.03c.12-.04.24-.09.34-.16h.03c.25-.18.46-.4.6-.67,0,0,0,0,0,0,.12-.23.19-.48.19-.75v-7.22c0-.92-.75-1.68-1.68-1.68Z"/>
    <path class="cls-1" d="m182.73,21.34c-.18,0-.34.04-.5.09,0,0,0,0,0,0,0,0-.01,0-.02.01-.14.05-.27.11-.4.2-.02.01-.04.03-.07.04-.13.1-.25.2-.34.33l-.02.02c-.09.13-.17.27-.22.42l-.03.08c-.05.15-.08.31-.08.48v7.22c0,.4.15.76.38,1.05l.22.23c.29.25.66.4,1.07.4h0c.15,0,.29-.02.42-.06l.1-.03c.12-.04.24-.09.34-.16h.03c.13-.09.24-.19.34-.3,0,0,0-.01.01-.02.09-.1.17-.22.24-.34,0,0,0,0,0,0,0,0,0,0,0,0,.12-.23.19-.48.19-.76v-7.22c0-.92-.75-1.68-1.68-1.68Z"/>
  </g>
  <path class="cls-11" d="m108.03,62.39c1.69,0,3.06-1.37,3.06-3.06s-3.06-5.4-3.06-5.4c0,0-3.06,3.71-3.06,5.4s1.37,3.06,3.06,3.06Z"/>
  <path class="cls-11" d="m122.42,76c1.69,0,3.06-1.37,3.06-3.06s-3.06-5.4-3.06-5.4c0,0-3.06,3.71-3.06,5.4s1.37,3.06,3.06,3.06Z"/>
  <path class="cls-11" d="m122.09,103.88c1.69,0,3.06-1.37,3.06-3.06s-3.06-5.4-3.06-5.4c0,0-3.06,3.71-3.06,5.4s1.37,3.06,3.06,3.06Z"/>
  <path class="cls-11" d="m108.48,103.88c1.69,0,3.06-1.37,3.06-3.06s-3.06-5.4-3.06-5.4c0,0-3.06,3.71-3.06,5.4s1.37,3.06,3.06,3.06Z"/>
  <path class="cls-11" d="m136.08,103.88c1.69,0,3.06-1.37,3.06-3.06s-3.06-5.4-3.06-5.4c0,0-3.06,3.71-3.06,5.4s1.37,3.06,3.06,3.06Z"/>
  <path class="cls-11" d="m163.62,103.88c1.69,0,3.06-1.37,3.06-3.06s-3.06-5.4-3.06-5.4c0,0-3.06,3.71-3.06,5.4s1.37,3.06,3.06,3.06Z"/>
  <path class="cls-11" d="m178.27,103.88c1.69,0,3.06-1.37,3.06-3.06s-3.06-5.4-3.06-5.4c0,0-3.06,3.71-3.06,5.4s1.37,3.06,3.06,3.06Z"/>
  <line class="cls-2" x1="129.25" y1="109.11" x2="129.25" y2="47.85"/>
  <line class="cls-2" x1="115.24" y1="109.11" x2="115.24" y2="47.85"/>
  <line class="cls-2" x1="185.02" y1="78.73" x2="73.12" y2="78.73"/>
  <line class="cls-2" x1="185.02" y1="64.81" x2="73.12" y2="64.81"/>
  <line class="cls-2" x1="185.27" y1="92.65" x2="73.37" y2="92.65"/>
  <line class="cls-2" x1="185.27" y1="50.63" x2="73.37" y2="50.63"/>
  <line class="cls-2" x1="185.12" y1="106.66" x2="73.23" y2="106.66"/>
  <polygon class="cls-9" points="188.03 115.13 188.19 115.04 188.22 115.02 188.03 115.13"/>
  <path class="cls-9" d="m177.8,115.52l-.15.07.15-.07Z"/>
  <path class="cls-9" d="m167.43,115.87l-.22.04.22-.04Z"/>
  <path class="cls-11" d="m136.11,62.39c1.69,0,3.06-1.37,3.06-3.06s-3.06-5.4-3.06-5.4c0,0-3.06,3.71-3.06,5.4s1.37,3.06,3.06,3.06Z"/>
  <line class="cls-2" x1="157.27" y1="109.71" x2="157.27" y2="48.45"/>
  <line class="cls-2" x1="171.28" y1="109.71" x2="171.28" y2="48.45"/>
  <line class="cls-2" x1="143.26" y1="109.71" x2="143.26" y2="48.45"/>
  <g>
    <circle class="cls-5" cx="72.84" cy="82.28" r="18.05"/>
    <path class="cls-4" d="m65.29,75.19c.71-1.59,2.05-2.73,4.02-3.42,1.82-.63,3.46-.63,4.91.02,1.45.65,2.46,1.77,3.01,3.37.34.97.41,1.82.22,2.56s-.69,1.91-1.52,3.51c-.6,1.16-.93,2.08-1,2.77-.04.44.01.99.17,1.63.16.64-.2,1.3-.83,1.52h0c-.72.25-1.5-.18-1.68-.92s-.25-1.38-.23-1.96c.03-.91.4-2.06,1.12-3.47l.74-1.47c.23-.43.39-.85.48-1.26.17-.73.15-1.41-.07-2.05-.31-.89-.85-1.58-1.63-2.04-.77-.47-1.79-.48-3.05-.04-1.56.54-2.44,1.48-2.64,2.82-.08.51-.05,1.13.1,1.85.13.63-.24,1.25-.84,1.46h0c-.75.26-1.56-.21-1.7-.99-.25-1.4-.11-2.7.42-3.89Zm10.01,14.78h0c.75-.26,1.57.14,1.84.89l.04.12c.26.75-.14,1.57-.89,1.84h0c-.75.26-1.57-.14-1.84-.89l-.04-.12c-.26-.75.14-1.57.89-1.84Z"/>
  </g>
  <rect class="cls-8" x="-2080.65" y="-2123.95" width="6467.34" height="6437.3"/>
</svg>