<?xml version="1.0" encoding="UTF-8"?>
<svg id="Calque_1" data-name="Calque 1" xmlns="http://www.w3.org/2000/svg" viewBox="0 0 229.42 129.18">
  <defs>
    <style>
      .cls-1, .cls-2, .cls-3, .cls-4, .cls-5, .cls-6 {
        stroke-width: 1.25px;
      }

      .cls-1, .cls-2, .cls-3, .cls-7, .cls-5, .cls-6 {
        stroke: #010101;
      }

      .cls-1, .cls-8, .cls-3, .cls-9, .cls-5 {
        stroke-linecap: round;
        stroke-linejoin: round;
      }

      .cls-1, .cls-10, .cls-7, .cls-6 {
        fill: #fff;
      }

      .cls-2 {
        fill: #f4d688;
      }

      .cls-2, .cls-4, .cls-7, .cls-6 {
        stroke-miterlimit: 10;
      }

      .cls-8 {
        stroke: #cfaa57;
        stroke-width: 3px;
      }

      .cls-8, .cls-3, .cls-4, .cls-9 {
        fill: none;
      }

      .cls-11 {
        fill: #f7e7d5;
      }

      .cls-12 {
        fill: #010101;
      }

      .cls-13 {
        fill: #566985;
      }

      .cls-4 {
        stroke: #231f20;
      }

      .cls-7 {
        stroke-width: 1.58px;
      }

      .cls-9 {
        stroke: #fff;
        stroke-width: 8px;
      }

      .cls-14 {
        fill: #3b2c15;
        font-family: Arial-BoldMT, Arial;
        font-size: 21.83px;
        font-weight: 700;
      }

      .cls-14, .cls-15 {
        isolation: isolate;
      }

      .cls-5 {
        fill: #d6d7d7;
      }
    </style>
  </defs>
  <rect class="cls-9" x="-5089.67" y="-6040.23" width="6467.34" height="6437.3"/>
  <g id="Titres_catégories" data-name="Titres catégories">
    <g>
      <g>
        <path class="cls-6" d="m153.59,51.14s.17-.33.52-.73c1.48-1.8,4.83-2.63,6.4.95,1.07,2.46-1.5,8.43-.95,9.5,0,0-9.22-3.32-5.96-9.69v-.02h0Z"/>
        <path class="cls-6" d="m199.51,63.62s0-.39-.13-.91c-.57-2.24-3.26-4.42-6.2-1.85-2.02,1.78-2.24,8.24-3.17,8.97,0,0,9.75.92,9.52-6.21h-.02Z"/>
        <path class="cls-2" d="m204.98,94.16s0-.03-.03-.08l-5.13-5.92s-.13-.09-.2-.03c-.98.36-8.25,3.24-10.46,5.58-.12.12-.33.02-.3-.16.36-2.31.31-9.12-10.71-14.94-.15-.09-.29-.16-.44-.25,0,0-.85-.66-2.47-1.52h0c-1.73-.93-4.37-2.1-7.81-3,0,0-.02,0-.03,0-1.5-.4-3.14-.74-4.94-.98-2.39-.34-5.03-.51-7.92-.42-2.13.07-4.27.74-5.83,2.18-.81.74-1.5,1.65-1.68,2.75-.03.18-.29.23-.34.05-.9-2.64-3.51-9.73-6.29-11.54-.03-.02-.05-.05-.1-.05l-2.62,1.01-4.55,1.77c-.08.03-.12.1-.11.19.1,1.47,2.88,23.33,12.36,20.93.18-.16.4.02.29.21v-.03c-1.75,2.82-5.3,8.85-6.53,13.5h39.83c0-.29-.02-.56-.05-.82-.02-.19.2-.28.31-.12.19.28.42.6.74.95,12.21,6.31,25.15-8.83,25.06-9.21l-.02-.02Z"/>
        <path class="cls-1" d="m133.33,61.99s-2.83-6.49-2.54-2.49c.29,4.03.98,7.12,2.18,9.11l7.34-2.82s1.33-3.37.22-4.86c-.33-.43-1.02-.29-1.17.22-.19.69-.39,1.6-.31,2.22,0,0,.79-5.26-.65-6.8-.41-.44-1.14-.17-1.2.4-.15,1.19-.3,3.39.16,4.69,0,0-.4-3.56-1.3-5.35-.26-.54-1.02-.42-1.14.14-.23,1.29-.4,3.44.69,5.06,0,0-1.73-5.34-2.33-5.2-1.36.31.09,5.7.09,5.7v-.02h-.02Z"/>
        <path class="cls-1" d="m208.17,88.07s5.88-3.97,3.5-.73c-2.4,3.23-4.65,5.48-6.74,6.51l-5.06-5.9s1.08-3.94,2.82-4.63c.5-.2,1.02.3.85.84-.21.65-.53,1.56-.92,2.04,0,0,2.16-4.86,4.21-5.41.57-.13,1.06.47.81,1.02-.51,1.09-1.57,3.02-2.65,3.86,0,0,2.26-2.78,3.98-3.82.49-.32,1.1.19.88.74-.5,1.22-1.51,3.11-3.3,3.9,0,0,4.32-3.6,4.77-3.15.98.98-3.11,4.76-3.11,4.76l-.02-.04h-.02Z"/>
        <path class="cls-6" d="m179.51,76.53s-4.22,8.94-13.12,4.29c0,0-7.08-2.94-3.45-8.95l16.59,4.64-.02.02Z"/>
        <path class="cls-4" d="m156.19,103.36c3.65-8.38,7.87-17.93,10.21-22.55"/>
        <path class="cls-6" d="m157.23,49.96c-1.05,8.98-4.52,17.19,2.89,20.59,6.69,3.09,22.33,10.53,26.62,7,6.55-5.37,26.66-35.59-3.95-43.01-.36-.09-9.84-2.92-13.41-2.09-6,1.42-10.93,7.07-12.17,17.53l.02-.02Z"/>
        <path class="cls-12" d="m173.08,64.15c-.19.04-.4-.02-.56-.18-.45-.51-.69-1.13-.63-1.68.02-.39.21-.76.51-.98.3-.26.66-.33.94-.39.29-.07.49-.12.65-.3.24-.23.31-.89.31-1.28-.02-.32.24-.6.56-.62.32,0,.6.24.6.56.02.15.05,1.47-.64,2.16-.42.42-.88.53-1.23.6-.19.05-.53.22-.54.33-.02.17.06.48.35.78.23.24.19.61-.05.85-.09.08-.19.12-.29.14v.02h0Z"/>
        <path class="cls-3" d="m163.96,54.34s2.7,3.21,5.69,2.31"/>
        <path class="cls-3" d="m187.5,63.24s-4.2.25-5.62-2.54"/>
        <path class="cls-3" d="m168.37,67.97s1.71,3.02,6.03,1.81"/>
        <path class="cls-3" d="m158.11,45.26s6.89,3.65,21.84-1.11"/>
        <path class="cls-3" d="m179.15,38.84s-.99,14.98,18.79,21.63"/>
      </g>
      <g>
        <path class="cls-12" d="m121.86,30.01l7.49-9.47h-7.3v-2.61h11.11v2.47l-7.6,9.62h7.62v2.58h-11.35v-2.58l.02-.02h0Z"/>
        <path class="cls-12" d="m134.8,29.49v-2.33h8.59v2.37l-5.32,6.18h5.51v2.33h-9.13v-2.22l5.38-6.33h-5.04Z"/>
        <path class="cls-12" d="m146.4,36.79v-1.79h7.5v1.85l-4.65,4.79h4.85v1.81h-8.01v-1.71l4.73-4.95h-4.41Z"/>
      </g>
      <g>
        <g>
          <g>
            <path class="cls-11" d="m46.1,65.73l-.16.2.16-.2Z"/>
            <path class="cls-11" d="m46.13,66.8l-.25.26.25-.26Z"/>
            <path class="cls-11" d="m45.88,68.04l.23-.13.03-.03-.26.16Z"/>
            <path class="cls-11" d="m46.13,68.61l-.22.1.22-.1Z"/>
            <path class="cls-11" d="m46.16,69.11l-.32.05.32-.05Z"/>
            <path class="cls-5" d="m46.01,82.75c20.23,0,36.64-16.42,36.64-36.68S66.24,9.39,46.01,9.39,9.36,25.81,9.36,46.07s16.4,36.68,36.64,36.68h0Z"/>
            <path class="cls-10" d="m46.01,75.16c16.05,0,29.05-13.02,29.05-29.08s-13.01-29.08-29.05-29.08-29.05,13.01-29.05,29.08,13.01,29.08,29.05,29.08h0Z"/>
            <path class="cls-13" d="m21.32,70.72c.29.29.59.58.9.85-.3-.27-.59-.57-.9-.85Z"/>
            <path class="cls-13" d="m22.21,71.58c.5.47,1.02.92,1.55,1.36-.54-.43-1.04-.9-1.55-1.36Z"/>
            <path class="cls-13" d="m23.77,72.94c.42.35.85.7,1.3,1.03-.43-.33-.87-.67-1.3-1.03Z"/>
            <path class="cls-12" d="m45.63,23.95c.87,0,1.57-.71,1.57-1.57s-.71-1.57-1.57-1.57-1.57.71-1.57,1.57.71,1.57,1.57,1.57Z"/>
            <path class="cls-12" d="m34.44,26.97c-.75.43-1.72.17-2.17-.58-.43-.75-.17-1.72.58-2.16.75-.43,1.72-.17,2.16.58.43.75.17,1.72-.58,2.17l.02-.02Z"/>
            <path class="cls-12" d="m26.24,35.17c-.43.75-1.4,1.02-2.17.58-.75-.43-1.02-1.4-.58-2.17.43-.75,1.4-1.02,2.17-.58.75.43,1.02,1.4.58,2.17Z"/>
            <path class="cls-12" d="m21.64,47.97c.87,0,1.57-.71,1.57-1.57s-.71-1.57-1.57-1.57-1.57.71-1.57,1.57.71,1.57,1.57,1.57Z"/>
            <path class="cls-12" d="m25.65,59.77c-.75.43-1.72.17-2.17-.58-.43-.75-.17-1.72.58-2.17.75-.43,1.72-.17,2.17.58.43.75.17,1.72-.58,2.17Z"/>
            <path class="cls-12" d="m35.02,67.97c-.43.75-1.4,1.02-2.16.58-.75-.43-1.01-1.4-.58-2.17.43-.75,1.4-1.02,2.17-.58.75.43,1.01,1.4.58,2.17h-.02Z"/>
            <path class="cls-12" d="m45.63,71.97c.87,0,1.57-.71,1.57-1.57s-.71-1.57-1.57-1.57-1.57.71-1.57,1.57.71,1.57,1.57,1.57Z"/>
            <path class="cls-12" d="m58.41,68.55c-.75.43-1.72.17-2.17-.58-.43-.75-.17-1.72.58-2.17.75-.43,1.72-.17,2.16.58.43.75.17,1.72-.58,2.17h.02Z"/>
            <path class="cls-12" d="m67.77,59.19c-.43.75-1.4,1.02-2.17.58-.75-.43-1.02-1.4-.58-2.17.43-.75,1.4-1.02,2.17-.58.75.43,1.02,1.4.58,2.17Z"/>
            <path class="cls-12" d="m69.62,47.97c.87,0,1.57-.71,1.57-1.57s-.71-1.57-1.57-1.57-1.57.71-1.57,1.57.71,1.57,1.57,1.57Z"/>
            <path class="cls-12" d="m58.99,26.39c-.43.75-1.4,1.02-2.16.58-.75-.43-1.02-1.4-.58-2.17.43-.75,1.4-1.02,2.17-.58.75.43,1.02,1.4.58,2.16,0,0-.02.02-.02.02Z"/>
            <path class="cls-12" d="m66.84,35.17c-.43.75-1.4,1.02-2.16.58s-1.02-1.4-.58-2.17c.43-.75,1.4-1.02,2.17-.58.75.43,1.02,1.4.58,2.16l-.02.02Z"/>
            <path class="cls-12" d="m47.17,44.57v20.2c0,.52-.49.95-1.12.95s-1.12-.42-1.12-.95v-20.2c0-.52.49-.95,1.12-.95s1.12.42,1.12.95Z"/>
            <path class="cls-12" d="m46.05,34.39c.78,0,1.43.39,1.43.88v12.33c0,.49-.64.88-1.43.88s-1.43-.39-1.43-.88v-12.33c0-.49.64-.88,1.43-.88Z"/>
            <path class="cls-12" d="m49.16,46.47c0,.52-.13,1-.35,1.43-.35.68-.94,1.22-1.66,1.47-.35.13-.72.2-1.12.2s-.77-.07-1.12-.2c-.42-.16-.78-.4-1.09-.71-.23-.23-.42-.49-.57-.77-.22-.42-.35-.92-.35-1.43s.13-1,.35-1.43c.35-.68.94-1.22,1.65-1.47.35-.13.72-.2,1.12-.2s.77.07,1.12.2c.42.16.78.4,1.09.71.23.23.42.49.57.78.22.43.35.92.35,1.43l.02-.02h0Z"/>
          </g>
          <g class="cls-15">
            <text class="cls-14" transform="translate(26.29 109.98)"><tspan x="0" y="0">24h</tspan></text>
          </g>
        </g>
        <path class="cls-7" d="m73.56,40.89c9.19,0,16.65-7.45,16.65-16.64s-7.46-16.61-16.65-16.61-16.65,7.45-16.65,16.62,7.46,16.64,16.65,16.64h0Z"/>
        <path class="cls-12" d="m69.22,15.88c1.12-1.2,2.66-1.8,4.59-1.8,1.8,0,3.25.51,4.34,1.54,1.07,1.04,1.62,2.34,1.62,3.95,0,.95-.2,1.75-.6,2.34-.4.61-1.2,1.48-2.41,2.66-.88.86-1.45,1.57-1.71,2.16-.25.61-.38,1.47-.38,2.61h-2.44c0-1.3.15-2.36.47-3.15.31-.79.99-1.71,2.05-2.74l1.11-1.09c.33-.31.6-.63.79-.98.36-.6.54-1.2.54-1.85,0-.89-.26-1.67-.81-2.33-.53-.67-1.42-.99-2.66-.99-1.52,0-2.57.56-3.17,1.68-.33.63-.53,1.54-.56,2.72h-2.44c0-1.96.56-3.54,1.67-4.77l.02.03h0Zm2.95,15.72h2.72v2.85h-2.72v-2.85Z"/>
      </g>
    </g>
    <path class="cls-8" d="m110.9,85.77c2.19-1.48,5.92-3.63,8.23-4.92-2.78-1.75-4.66-3.34-7.45-5.07"/>
    <line class="cls-8" x1="86.48" y1="80.76" x2="119.12" y2="80.76"/>
  </g>
</svg>