<?xml version="1.0" encoding="UTF-8"?><svg id="Calque_1" xmlns="http://www.w3.org/2000/svg" viewBox="0 0 200.13 128.13"><defs><style>.cls-1{fill:#fff;}.cls-2{stroke:#e30613;stroke-width:8px;}.cls-2,.cls-3,.cls-4,.cls-5,.cls-6,.cls-7,.cls-8,.cls-9,.cls-10,.cls-11{stroke-linecap:round;}.cls-2,.cls-3,.cls-5,.cls-6,.cls-7,.cls-8,.cls-9,.cls-10,.cls-11{stroke-linejoin:round;}.cls-2,.cls-12,.cls-4,.cls-6,.cls-9{fill:none;}.cls-13{fill:#3f3f3f;}.cls-3,.cls-12,.cls-4,.cls-5,.cls-6,.cls-7,.cls-8,.cls-9,.cls-11{stroke:#000;}.cls-3,.cls-9{stroke-width:.55px;}.cls-12,.cls-4{stroke-miterlimit:10;}.cls-14{fill:#566985;}.cls-5{stroke-width:2px;}.cls-5,.cls-7,.cls-8,.cls-11{fill:#bfe6fc;}.cls-7{stroke-width:.75px;}.cls-10{fill:#d6d7d7;stroke:#010101;stroke-width:1.21px;}.cls-15{fill:#f7e7d5;}.cls-11{stroke-width:.57px;}.cls-16{fill:#010101;}</style></defs><rect class="cls-2" x="-969.68" y="-1014.53" width="2655.08" height="1511.77"/><path class="cls-15" d="m99.37,105.89l-.08.11.08-.11Z"/><path class="cls-15" d="m98.91,106.46l-.12.14.12-.14Z"/><path class="cls-15" d="m98.13,107.13l.12-.08.02-.02-.14.09h0Z"/><path class="cls-15" d="m97.6,107.42l-.11.05.11-.05Z"/><path class="cls-15" d="m96.81,107.69l-.16.03.16-.03Z"/><path class="cls-10" d="m100.06,118.74c10.48,0,18.98-8.7,18.98-19.42s-8.49-19.43-18.98-19.43-18.98,8.7-18.98,19.43,8.49,19.42,18.98,19.42Z"/><path class="cls-1" d="m100.06,114.72c8.31,0,15.05-6.89,15.05-15.39s-6.74-15.4-15.05-15.4-15.05,6.9-15.05,15.4,6.74,15.39,15.05,15.39Z"/><path class="cls-14" d="m87.27,112.38c.15.15.3.3.47.45-.15-.14-.3-.29-.47-.45Z"/><path class="cls-14" d="m87.74,112.83c.26.24.53.49.8.72-.27-.23-.54-.48-.8-.72Z"/><path class="cls-14" d="m88.54,113.55c.21.18.45.37.67.55-.22-.17-.45-.36-.67-.55Z"/><path class="cls-14" d="m89.39,114.22c.23.17.47.34.7.5-.24-.16-.47-.33-.7-.5Z"/><path class="cls-16" d="m99.86,87.61c.45,0,.81-.38.81-.83s-.37-.83-.81-.83-.81.38-.81.83.37.83.81.83Z"/><path class="cls-16" d="m94.07,89.21c-.39.23-.89.09-1.13-.3-.22-.4-.09-.91.29-1.14.39-.23.89-.09,1.12.3s.09.91-.29,1.15h.01Z"/><path class="cls-16" d="m89.82,93.56c-.22.4-.72.54-1.13.3-.39-.23-.53-.74-.29-1.15.22-.4.73-.54,1.13-.3.39.23.53.74.29,1.15Z"/><path class="cls-16" d="m87.44,100.33c.45,0,.81-.38.81-.83s-.37-.83-.81-.83-.81.38-.81.83.37.83.81.83Z"/><path class="cls-16" d="m89.52,106.57c-.39.23-.89.09-1.13-.3-.22-.4-.09-.91.29-1.15.39-.23.89-.09,1.13.3.22.4.09.91-.29,1.15Z"/><path class="cls-16" d="m94.36,110.92c-.22.4-.73.54-1.12.3s-.53-.74-.29-1.15c.22-.4.72-.54,1.13-.3.39.23.53.74.29,1.15h-.01Z"/><path class="cls-16" d="m99.86,113.03c.45,0,.81-.38.81-.83s-.37-.83-.81-.83-.81.38-.81.83.37.83.81.83Z"/><path class="cls-16" d="m106.48,111.23c-.39.23-.89.09-1.13-.3-.22-.4-.09-.91.29-1.15.39-.23.89-.09,1.12.3s.09.91-.29,1.15h.01Z"/><path class="cls-16" d="m111.33,106.27c-.22.4-.73.54-1.13.3-.39-.23-.53-.74-.29-1.15.22-.4.72-.54,1.13-.3.39.23.53.74.29,1.15Z"/><path class="cls-16" d="m112.29,100.33c.45,0,.81-.38.81-.83s-.37-.83-.81-.83-.81.38-.81.83.37.83.81.83Z"/><path class="cls-16" d="m106.79,88.9c-.22.4-.72.54-1.12.3-.39-.23-.53-.74-.29-1.15.22-.4.72-.54,1.13-.3.39.23.53.74.29,1.14h-.01Z"/><path class="cls-16" d="m110.85,93.56c-.22.4-.72.54-1.12.3-.39-.23-.53-.74-.29-1.15.22-.4.73-.54,1.13-.3.39.23.53.74.29,1.14h-.01Z"/><path class="cls-16" d="m100.69,89.26v12.47c0,.33-.25.59-.58.59s-.58-.26-.58-.59v-12.47c0-.33.25-.59.58-.59s.58.26.58.59Z"/><path class="cls-16" d="m109.08,99.54c0,.42-.33.76-.74.76h-10.36c-.42,0-.74-.34-.74-.76s.33-.76.74-.76h10.36c.42,0,.74.34.74.76Z"/><path class="cls-16" d="m101.73,99.54c0,.27-.07.53-.18.76-.18.36-.49.64-.86.78-.18.07-.38.11-.58.11s-.4-.04-.58-.11c-.21-.08-.41-.21-.56-.38-.12-.12-.21-.26-.29-.41-.11-.22-.18-.49-.18-.76s.07-.53.18-.76c.18-.36.49-.64.85-.78.18-.07.38-.11.58-.11s.4.04.58.11c.21.08.41.21.56.38.12.12.21.26.29.42.11.23.18.49.18.76h.01Z"/><path class="cls-13" d="m140.5,30.26c0-.27,0-.54,0-.81.2.27.2.54,0,.81Z"/><rect class="cls-5" x="6.76" y="7.13" width="99.13" height="55.86"/><circle class="cls-1" cx="56.32" cy="63.05" r=".48"/><rect x="53.8" y="63.64" width="5.06" height="2.8"/><polygon class="cls-3" points="41.71 66.45 41.1 68.42 71.55 68.42 70.89 66.45 41.71 66.45"/><line class="cls-9" x1="41.1" y1="68.69" x2="71.55" y2="68.69"/><path class="cls-6" d="m188.56,14.01h-41.8c-.58,0-1.05.47-1.05,1.05v27.86s43.91,0,43.91,0V15.06c0-.58-.47-1.05-1.05-1.05Z"/><rect class="cls-7" x="148.81" y="16.36" width="37.68" height="24.21"/><path d="m167.84,15.45c0,.1-.08.19-.19.19s-.19-.08-.19-.19.08-.19.19-.19.19.08.19.19Z"/><rect x="163.66" y="52.26" width="8.09" height="1.57"/><path class="cls-6" d="m171.75,52.84v.49c0,.34-.2.62-.45.62h-7.32c-.25,0-.45-.28-.45-.62v-.49h-25.94l.77,3.27h58.66l.71-3.27h-25.97Z"/><polygon class="cls-6" points="137.59 52.93 197.72 52.93 189.61 42.92 145.7 42.92 137.59 52.93"/><polygon class="cls-11" points="166.34 45.41 168.87 45.39 169.67 47.38 165.64 47.38 166.34 45.41"/><polygon class="cls-11" points="161.64 48.43 173.76 48.41 174.56 50.4 160.93 50.4 161.64 48.43"/><polygon class="cls-11" points="165.02 45.4 165 45.4 164.3 47.38 161.78 47.38 162.48 45.4 165.01 45.39 165.02 45.4"/><polygon class="cls-11" points="161.14 45.4 161.12 45.4 160.41 47.38 157.9 47.38 158.6 45.4 161.13 45.39 161.14 45.4"/><polygon class="cls-11" points="157.26 45.4 157.24 45.4 156.53 47.38 154.02 47.38 154.72 45.4 157.25 45.39 157.26 45.4"/><polygon class="cls-11" points="153.37 45.4 153.36 45.4 152.65 47.38 150.14 47.38 150.84 45.4 153.37 45.39 153.37 45.4"/><polygon class="cls-11" points="149.51 45.4 149.5 45.4 148.79 47.38 145.41 47.38 146.98 45.4 149.51 45.39 149.51 45.4"/><polygon class="cls-11" points="170.28 45.4 170.29 45.4 171 47.38 173.52 47.38 172.82 45.4 170.29 45.39 170.28 45.4"/><polygon class="cls-11" points="174.16 45.4 174.18 45.4 174.88 47.38 177.4 47.38 176.7 45.4 174.17 45.39 174.16 45.4"/><polygon class="cls-11" points="178.04 45.4 178.06 45.4 178.77 47.38 181.28 47.38 180.58 45.4 178.05 45.39 178.04 45.4"/><polygon class="cls-11" points="181.93 45.4 181.94 45.4 182.65 47.38 185.16 47.38 184.46 45.4 181.93 45.39 181.93 45.4"/><polygon class="cls-11" points="185.79 45.4 185.8 45.4 186.51 47.38 189.88 47.38 188.32 45.4 185.79 45.39 185.79 45.4"/><polygon class="cls-11" points="175.17 48.42 175.19 48.42 175.9 50.39 178.41 50.39 177.71 48.42 175.18 48.41 175.17 48.42"/><polygon class="cls-11" points="179.05 48.42 179.07 48.42 179.78 50.39 182.29 50.39 181.59 48.42 179.06 48.41 179.05 48.42"/><polygon class="cls-11" points="182.94 48.42 182.95 48.42 183.66 50.39 186.17 50.39 185.47 48.42 182.94 48.41 182.94 48.42"/><polygon class="cls-11" points="186.8 48.42 186.81 48.42 187.52 50.39 192.31 50.4 190.75 48.42 186.8 48.41 186.8 48.42"/><polyline class="cls-11" points="187.52 50.39 192.31 50.4 190.75 48.42 186.8 48.41"/><polyline class="cls-11" points="147.87 50.39 143.08 50.4 144.64 48.42 148.59 48.41"/><polygon class="cls-11" points="160.21 48.42 160.2 48.42 159.49 50.39 156.98 50.39 157.68 48.42 160.21 48.41 160.21 48.42"/><polygon class="cls-11" points="156.33 48.42 156.32 48.42 155.61 50.39 153.09 50.39 153.8 48.42 156.33 48.41 156.33 48.42"/><polygon class="cls-11" points="152.45 48.42 152.44 48.42 151.73 50.39 149.21 50.39 149.92 48.42 152.45 48.41 152.45 48.42"/><rect class="cls-12" x="118.22" y="12.51" width="15.16" height="31.9" rx="2.36" ry="2.36"/><rect class="cls-8" x="119.54" y="16.87" width="12.51" height="23.33"/><path d="m126.86,42.08c0,.59-.48,1.06-1.06,1.06s-1.06-.48-1.06-1.06.48-1.06,1.06-1.06,1.06.48,1.06,1.06Z"/><line class="cls-4" x1="124.93" y1="15.32" x2="126.66" y2="15.32"/></svg>