<?xml version="1.0" encoding="UTF-8"?>
<svg id="Calque_1" data-name="Calque 1" xmlns="http://www.w3.org/2000/svg" viewBox="0 0 159.77 156.55">
  <defs>
    <style>
      .cls-1 {
        fill: #d6d7d7;
      }

      .cls-1, .cls-2, .cls-3, .cls-4 {
        stroke: #010101;
      }

      .cls-1, .cls-2, .cls-5, .cls-6 {
        stroke-linecap: round;
        stroke-linejoin: round;
      }

      .cls-2, .cls-5, .cls-6, .cls-4 {
        fill: none;
      }

      .cls-7 {
        fill: #f7e7d5;
      }

      .cls-8 {
        fill: #010101;
      }

      .cls-9 {
        fill: #ed6d76;
      }

      .cls-10 {
        fill: #f5afb5;
      }

      .cls-11 {
        fill: #fff;
      }

      .cls-12 {
        fill: #566985;
      }

      .cls-13 {
        fill: #3b2c15;
        font-family: Arial-BoldMT, Arial;
        font-size: 12.5px;
        font-weight: 700;
      }

      .cls-13, .cls-14 {
        isolation: isolate;
      }

      .cls-3 {
        fill: #89ccf2;
      }

      .cls-3, .cls-4 {
        stroke-miterlimit: 10;
      }

      .cls-5 {
        stroke: #cfaa57;
        stroke-width: 2px;
      }

      .cls-6 {
        stroke: #fff;
        stroke-width: 8px;
      }
    </style>
  </defs>
  <rect class="cls-6" x="-4642.08" y="-1375.2" width="6467.34" height="6437.3"/>
  <g id="Titres_catégories" data-name="Titres catégories">
    <g>
      <path class="cls-4" d="m10.66,103.63h132.79"/>
      <path class="cls-4" d="m10.32,100.78v5.69"/>
      <path class="cls-4" d="m77.05,100.78v5.69"/>
      <path class="cls-4" d="m23.67,101.34v4.57"/>
      <path class="cls-4" d="m37.02,101.34v4.57"/>
      <path class="cls-4" d="m50.36,101.34v4.57"/>
      <path class="cls-4" d="m63.71,101.34v4.57"/>
      <path class="cls-4" d="m90.4,101.34v4.57"/>
      <path class="cls-4" d="m103.74,101.34v4.57"/>
      <path class="cls-4" d="m117.09,101.34v4.57"/>
      <path class="cls-4" d="m130.44,101.34v4.57"/>
      <path class="cls-4" d="m143.78,100.78v5.69"/>
      <path class="cls-8" d="m11.56,94.86c.17.33.26.77.26,1.33s-.08.98-.24,1.32c-.23.5-.61.75-1.13.75-.47,0-.82-.2-1.06-.61-.2-.34-.29-.8-.29-1.37,0-.45.06-.83.17-1.15.22-.59.61-.89,1.17-.89.5,0,.87.21,1.1.63h0Zm-.5,2.61c.15-.23.23-.65.23-1.26,0-.45-.06-.81-.16-1.1-.11-.29-.33-.43-.64-.43-.29,0-.5.14-.64.41-.13.28-.2.67-.2,1.2,0,.4.04.72.13.96.13.37.35.56.67.56.25,0,.46-.11.62-.34h0Z"/>
      <path class="cls-8" d="m22.49,95.48v-.38c.35-.04.61-.09.74-.17.14-.08.25-.28.32-.58h.39v3.91h-.53v-2.77h-.93s0,0,0,0Z"/>
      <path class="cls-8" d="m49.18,97.88c-.21-.25-.31-.56-.31-.93h.51c.02.25.07.44.14.56.13.21.36.31.69.31.26,0,.47-.07.62-.21.15-.14.24-.32.24-.53,0-.27-.08-.46-.25-.56-.16-.1-.4-.16-.69-.16h-.2v-.43c.05,0,.09,0,.13.01s.07,0,.11,0c.18,0,.34-.03.45-.09.21-.1.31-.28.31-.55,0-.2-.07-.35-.21-.45s-.3-.16-.48-.16c-.33,0-.56.11-.68.33-.07.12-.11.29-.11.51h-.48c0-.29.06-.54.17-.74.2-.37.56-.55,1.06-.55.4,0,.71.09.93.27.23.18.33.43.33.77,0,.24-.06.43-.2.59-.08.09-.18.16-.31.22.21.06.37.16.48.33s.17.36.17.59c0,.38-.12.68-.37.92-.25.24-.6.35-1.05.35s-.8-.13-1.01-.38h-.02s0,0,0,0Z"/>
      <path class="cls-8" d="m35.78,97.37c.12-.25.36-.48.71-.68l.53-.3c.24-.14.4-.25.5-.35.15-.15.23-.33.23-.52,0-.23-.06-.41-.2-.54-.14-.13-.32-.2-.55-.2-.34,0-.57.13-.7.38-.07.14-.11.33-.11.57h-.5c0-.34.06-.62.19-.84.22-.38.59-.57,1.13-.57.45,0,.78.12.98.36s.31.51.31.81-.11.59-.33.8c-.13.13-.35.29-.69.47l-.38.21c-.18.1-.32.2-.42.28-.18.16-.3.33-.35.53h2.14v.46h-2.7c.02-.34.09-.63.21-.88h0v.02Z"/>
      <path class="cls-8" d="m63.51,98.26v-.96h-1.72v-.48l1.8-2.49h.42v2.54h.58v.43h-.58v.96h-.5Zm0-1.39v-1.78l-1.26,1.78h1.26Z"/>
      <path class="cls-8" d="m76.28,97.16c.04.28.16.48.39.59.11.06.25.08.4.08.29,0,.5-.09.65-.28s.21-.39.21-.62c0-.28-.09-.48-.25-.64s-.37-.23-.6-.23c-.17,0-.32.04-.43.1s-.23.16-.31.28l-.43-.02.3-2.11h2.04v.48h-1.67l-.16,1.09c.09-.07.18-.12.26-.16.14-.06.32-.09.5-.09.36,0,.67.11.92.35s.38.53.38.88-.11.7-.35.98-.59.43-1.1.43c-.32,0-.6-.09-.84-.27-.25-.18-.38-.45-.41-.83h.51,0Z"/>
      <path class="cls-8" d="m91.49,94.56c.17.23.26.46.26.7h-.48c-.03-.15-.08-.28-.14-.36-.11-.16-.3-.25-.54-.25-.28,0-.5.13-.66.38-.16.25-.25.62-.28,1.09.11-.16.25-.29.43-.38.16-.07.33-.11.53-.11.33,0,.62.11.86.32s.37.52.37.94c0,.35-.11.67-.35.95-.23.28-.57.41-.99.41-.37,0-.69-.14-.96-.42-.27-.28-.4-.74-.4-1.41,0-.48.06-.9.18-1.24.23-.65.64-.98,1.25-.98.44,0,.74.11.92.34h0s0,.01,0,.01Zm-.37,3c.13-.17.2-.38.2-.61,0-.2-.06-.39-.17-.57-.11-.18-.33-.28-.63-.28-.21,0-.4.07-.56.21-.16.14-.24.35-.24.64,0,.25.07.45.22.63s.35.25.61.25.45-.09.59-.26h0s0,0,0,0Z"/>
      <path class="cls-8" d="m105.11,94.41v.43c-.12.12-.3.33-.5.64s-.4.63-.56.98c-.16.34-.28.65-.36.93-.05.18-.12.47-.2.87h-.54c.12-.75.4-1.49.82-2.23.25-.43.51-.81.79-1.13h-2.17v-.5h2.73,0Z"/>
      <path class="cls-8" d="m115.98,95.85c-.14-.14-.22-.33-.22-.57,0-.29.11-.54.32-.75.21-.21.51-.32.9-.32s.67.1.88.3.32.43.32.69c0,.25-.06.44-.19.59-.07.09-.18.17-.33.25.16.07.29.16.38.26.17.18.26.42.26.71,0,.35-.11.64-.35.88s-.56.36-.98.36c-.38,0-.71-.1-.97-.31-.26-.21-.4-.5-.4-.9,0-.23.06-.43.17-.6.11-.16.28-.3.5-.39-.14-.06-.25-.13-.32-.2h0s0,0,0,0Zm1.59,1.78c.15-.12.23-.31.23-.55s-.08-.45-.23-.58-.35-.2-.6-.2-.43.06-.58.2-.23.32-.23.56c0,.2.06.38.2.53.14.14.35.23.63.23.23,0,.42-.06.57-.19h0Zm-.09-1.93c.12-.12.18-.27.18-.43,0-.14-.06-.28-.17-.4-.11-.12-.3-.18-.53-.18s-.41.06-.51.18-.16.27-.16.43c0,.19.06.33.2.43.14.11.3.16.48.16.22,0,.39-.06.51-.18h0s0,0,0,0Z"/>
      <path class="cls-8" d="m129.6,97.2c.01.28.12.46.32.56.1.06.22.08.34.08.24,0,.43-.1.6-.3.17-.2.28-.59.35-1.2-.11.17-.25.3-.4.37-.16.07-.33.11-.52.11-.38,0-.68-.11-.89-.35s-.33-.54-.33-.91.11-.67.33-.94c.22-.27.53-.4.96-.4.57,0,.97.26,1.19.77.12.28.18.64.18,1.06,0,.48-.07.9-.22,1.28-.24.61-.64.93-1.21.93-.38,0-.67-.1-.87-.3-.2-.2-.3-.45-.3-.76h.5,0s0,0,0,0Zm1.28-1c.16-.13.25-.35.25-.67,0-.29-.07-.5-.22-.64-.14-.14-.33-.21-.56-.21-.24,0-.43.08-.57.25s-.21.38-.21.65c0,.25.06.46.19.61.12.14.33.23.59.23.2,0,.38-.06.53-.2h0s0,0,0,0Z"/>
      <path class="cls-8" d="m140.44,95.37v-.38c.35-.04.61-.09.74-.17.14-.08.25-.28.32-.58h.39v3.91h-.53v-2.77h-.93s0,0,0,0Z"/>
      <path class="cls-8" d="m145.65,94.86c.17.33.26.77.26,1.33s-.08.98-.24,1.32c-.23.5-.61.75-1.13.75-.47,0-.82-.2-1.06-.61-.2-.34-.29-.8-.29-1.37,0-.45.06-.83.17-1.15.22-.59.61-.89,1.17-.89.5,0,.87.21,1.1.63h.01Zm-.5,2.61c.15-.23.23-.65.23-1.26,0-.45-.06-.81-.17-1.1-.11-.29-.33-.43-.64-.43-.29,0-.5.14-.64.41-.13.28-.2.67-.2,1.2,0,.4.04.72.13.96.13.37.35.56.67.56.25,0,.46-.11.62-.34h0Z"/>
      <path class="cls-9" d="m23.67,110.72c.64,0,1.16-.52,1.16-1.16s-.52-1.16-1.16-1.16-1.16.52-1.16,1.16.52,1.16,1.16,1.16Z"/>
      <path class="cls-9" d="m36.97,110.72c.64,0,1.16-.52,1.16-1.16s-.52-1.16-1.16-1.16-1.16.52-1.16,1.16.52,1.16,1.16,1.16Z"/>
      <path class="cls-9" d="m36.97,114.48c.64,0,1.16-.52,1.16-1.16s-.52-1.16-1.16-1.16-1.16.52-1.16,1.16.52,1.16,1.16,1.16Z"/>
      <path class="cls-9" d="m50.37,110.72c.64,0,1.16-.52,1.16-1.16s-.52-1.16-1.16-1.16-1.16.52-1.16,1.16.52,1.16,1.16,1.16Z"/>
      <path class="cls-9" d="m50.37,114.48c.64,0,1.16-.52,1.16-1.16s-.52-1.16-1.16-1.16-1.16.52-1.16,1.16.52,1.16,1.16,1.16Z"/>
      <path class="cls-9" d="m50.37,118.24c.64,0,1.16-.52,1.16-1.16s-.52-1.16-1.16-1.16-1.16.52-1.16,1.16.52,1.16,1.16,1.16Z"/>
      <path class="cls-9" d="m63.73,110.72c.64,0,1.16-.52,1.16-1.16s-.52-1.16-1.16-1.16-1.16.52-1.16,1.16.52,1.16,1.16,1.16Z"/>
      <path class="cls-9" d="m63.73,114.6c.64,0,1.16-.52,1.16-1.16s-.52-1.16-1.16-1.16-1.16.52-1.16,1.16.52,1.16,1.16,1.16Z"/>
      <path class="cls-9" d="m63.73,118.5c.64,0,1.16-.52,1.16-1.16s-.52-1.16-1.16-1.16-1.16.52-1.16,1.16.52,1.16,1.16,1.16Z"/>
      <path class="cls-9" d="m63.73,122.38c.64,0,1.16-.52,1.16-1.16s-.52-1.16-1.16-1.16-1.16.52-1.16,1.16.52,1.16,1.16,1.16Z"/>
      <path class="cls-9" d="m77.08,110.72c.64,0,1.16-.52,1.16-1.16s-.52-1.16-1.16-1.16-1.16.52-1.16,1.16.52,1.16,1.16,1.16Z"/>
      <path class="cls-9" d="m77.08,114.51c.64,0,1.16-.52,1.16-1.16s-.52-1.16-1.16-1.16-1.16.52-1.16,1.16.52,1.16,1.16,1.16Z"/>
      <path class="cls-9" d="m77.08,118.3c.64,0,1.16-.52,1.16-1.16s-.52-1.16-1.16-1.16-1.16.52-1.16,1.16.52,1.16,1.16,1.16Z"/>
      <path class="cls-9" d="m77.08,122.09c.64,0,1.16-.52,1.16-1.16s-.52-1.16-1.16-1.16-1.16.52-1.16,1.16.52,1.16,1.16,1.16Z"/>
      <path class="cls-9" d="m77.08,125.88c.64,0,1.16-.52,1.16-1.16s-.52-1.16-1.16-1.16-1.16.52-1.16,1.16.52,1.16,1.16,1.16Z"/>
      <path class="cls-9" d="m90.52,110.72c.64,0,1.16-.52,1.16-1.16s-.52-1.16-1.16-1.16-1.16.52-1.16,1.16.52,1.16,1.16,1.16Z"/>
      <path class="cls-9" d="m90.52,114.45c.64,0,1.16-.52,1.16-1.16s-.52-1.16-1.16-1.16-1.16.52-1.16,1.16.52,1.16,1.16,1.16Z"/>
      <path class="cls-9" d="m90.52,118.19c.64,0,1.16-.52,1.16-1.16s-.52-1.16-1.16-1.16-1.16.52-1.16,1.16.52,1.16,1.16,1.16Z"/>
      <path class="cls-9" d="m90.52,121.92c.64,0,1.16-.52,1.16-1.16s-.52-1.16-1.16-1.16-1.16.52-1.16,1.16.52,1.16,1.16,1.16Z"/>
      <path class="cls-9" d="m90.52,125.65c.64,0,1.16-.52,1.16-1.16s-.52-1.16-1.16-1.16-1.16.52-1.16,1.16.52,1.16,1.16,1.16Z"/>
      <path class="cls-9" d="m90.52,129.38c.64,0,1.16-.52,1.16-1.16s-.52-1.16-1.16-1.16-1.16.52-1.16,1.16.52,1.16,1.16,1.16Z"/>
      <path class="cls-9" d="m103.77,110.72c.64,0,1.16-.52,1.16-1.16s-.52-1.16-1.16-1.16-1.16.52-1.16,1.16.52,1.16,1.16,1.16Z"/>
      <path class="cls-9" d="m103.77,114.42c.64,0,1.16-.52,1.16-1.16s-.52-1.16-1.16-1.16-1.16.52-1.16,1.16.52,1.16,1.16,1.16Z"/>
      <path class="cls-9" d="m103.77,118.11c.64,0,1.16-.52,1.16-1.16s-.52-1.16-1.16-1.16-1.16.52-1.16,1.16.52,1.16,1.16,1.16Z"/>
      <path class="cls-9" d="m103.77,121.8c.64,0,1.16-.52,1.16-1.16s-.52-1.16-1.16-1.16-1.16.52-1.16,1.16.52,1.16,1.16,1.16Z"/>
      <path class="cls-9" d="m103.77,125.5c.64,0,1.16-.52,1.16-1.16s-.52-1.16-1.16-1.16-1.16.52-1.16,1.16.52,1.16,1.16,1.16Z"/>
      <path class="cls-9" d="m103.77,129.2c.64,0,1.16-.52,1.16-1.16s-.52-1.16-1.16-1.16-1.16.52-1.16,1.16.52,1.16,1.16,1.16Z"/>
      <path class="cls-9" d="m103.77,132.89c.64,0,1.16-.52,1.16-1.16s-.52-1.16-1.16-1.16-1.16.52-1.16,1.16.52,1.16,1.16,1.16Z"/>
      <path class="cls-9" d="m117.12,110.72c.64,0,1.16-.52,1.16-1.16s-.52-1.16-1.16-1.16-1.16.52-1.16,1.16.52,1.16,1.16,1.16Z"/>
      <path class="cls-9" d="m117.12,114.39c.64,0,1.16-.52,1.16-1.16s-.52-1.16-1.16-1.16-1.16.52-1.16,1.16.52,1.16,1.16,1.16Z"/>
      <path class="cls-9" d="m117.12,118.06c.64,0,1.16-.52,1.16-1.16s-.52-1.16-1.16-1.16-1.16.52-1.16,1.16.52,1.16,1.16,1.16Z"/>
      <path class="cls-9" d="m117.12,121.72c.64,0,1.16-.52,1.16-1.16s-.52-1.16-1.16-1.16-1.16.52-1.16,1.16.52,1.16,1.16,1.16Z"/>
      <path class="cls-9" d="m117.12,125.39c.64,0,1.16-.52,1.16-1.16s-.52-1.16-1.16-1.16-1.16.52-1.16,1.16.52,1.16,1.16,1.16Z"/>
      <path class="cls-9" d="m117.12,129.06c.64,0,1.16-.52,1.16-1.16s-.52-1.16-1.16-1.16-1.16.52-1.16,1.16.52,1.16,1.16,1.16Z"/>
      <path class="cls-9" d="m117.12,132.72c.64,0,1.16-.52,1.16-1.16s-.52-1.16-1.16-1.16-1.16.52-1.16,1.16.52,1.16,1.16,1.16Z"/>
      <path class="cls-9" d="m117.12,136.39c.64,0,1.16-.52,1.16-1.16s-.52-1.16-1.16-1.16-1.16.52-1.16,1.16.52,1.16,1.16,1.16Z"/>
      <path class="cls-9" d="m130.39,110.72c.64,0,1.16-.52,1.16-1.16s-.52-1.16-1.16-1.16-1.16.52-1.16,1.16.52,1.16,1.16,1.16Z"/>
      <path class="cls-9" d="m130.39,114.37c.64,0,1.16-.52,1.16-1.16s-.52-1.16-1.16-1.16-1.16.52-1.16,1.16.52,1.16,1.16,1.16Z"/>
      <path class="cls-9" d="m130.39,118.01c.64,0,1.16-.52,1.16-1.16s-.52-1.16-1.16-1.16-1.16.52-1.16,1.16.52,1.16,1.16,1.16Z"/>
      <path class="cls-9" d="m130.39,121.66c.64,0,1.16-.52,1.16-1.16s-.52-1.16-1.16-1.16-1.16.52-1.16,1.16.52,1.16,1.16,1.16Z"/>
      <path class="cls-9" d="m130.39,125.3c.64,0,1.16-.52,1.16-1.16s-.52-1.16-1.16-1.16-1.16.52-1.16,1.16.52,1.16,1.16,1.16Z"/>
      <path class="cls-9" d="m130.39,128.95c.64,0,1.16-.52,1.16-1.16s-.52-1.16-1.16-1.16-1.16.52-1.16,1.16.52,1.16,1.16,1.16Z"/>
      <path class="cls-9" d="m130.39,132.6c.64,0,1.16-.52,1.16-1.16s-.52-1.16-1.16-1.16-1.16.52-1.16,1.16.52,1.16,1.16,1.16Z"/>
      <path class="cls-9" d="m130.39,136.25c.64,0,1.16-.52,1.16-1.16s-.52-1.16-1.16-1.16-1.16.52-1.16,1.16.52,1.16,1.16,1.16Z"/>
      <path class="cls-9" d="m130.39,139.9c.64,0,1.16-.52,1.16-1.16s-.52-1.16-1.16-1.16-1.16.52-1.16,1.16.52,1.16,1.16,1.16Z"/>
      <path class="cls-9" d="m143.81,110.72c.64,0,1.16-.52,1.16-1.16s-.52-1.16-1.16-1.16-1.16.52-1.16,1.16.52,1.16,1.16,1.16Z"/>
      <path class="cls-9" d="m143.81,114.35c.64,0,1.16-.52,1.16-1.16s-.52-1.16-1.16-1.16-1.16.52-1.16,1.16.52,1.16,1.16,1.16Z"/>
      <path class="cls-9" d="m143.81,117.98c.64,0,1.16-.52,1.16-1.16s-.52-1.16-1.16-1.16-1.16.52-1.16,1.16.52,1.16,1.16,1.16Z"/>
      <path class="cls-9" d="m143.81,121.61c.64,0,1.16-.52,1.16-1.16s-.52-1.16-1.16-1.16-1.16.52-1.16,1.16.52,1.16,1.16,1.16Z"/>
      <path class="cls-9" d="m143.81,125.25c.64,0,1.16-.52,1.16-1.16s-.52-1.16-1.16-1.16-1.16.52-1.16,1.16.52,1.16,1.16,1.16Z"/>
      <path class="cls-9" d="m143.81,128.87c.64,0,1.16-.52,1.16-1.16s-.52-1.16-1.16-1.16-1.16.52-1.16,1.16.52,1.16,1.16,1.16Z"/>
      <path class="cls-9" d="m143.81,132.5c.64,0,1.16-.52,1.16-1.16s-.52-1.16-1.16-1.16-1.16.52-1.16,1.16.52,1.16,1.16,1.16Z"/>
      <path class="cls-9" d="m143.81,136.13c.64,0,1.16-.52,1.16-1.16s-.52-1.16-1.16-1.16-1.16.52-1.16,1.16.52,1.16,1.16,1.16Z"/>
      <path class="cls-9" d="m143.81,139.76c.64,0,1.16-.52,1.16-1.16s-.52-1.16-1.16-1.16-1.16.52-1.16,1.16.52,1.16,1.16,1.16Z"/>
      <path class="cls-9" d="m143.81,143.4c.64,0,1.16-.52,1.16-1.16s-.52-1.16-1.16-1.16-1.16.52-1.16,1.16.52,1.16,1.16,1.16Z"/>
    </g>
    <g>
      <g>
        <g>
          <path class="cls-7" d="m38.98,52.47l-.09.11.09-.11Z"/>
          <path class="cls-7" d="m39.01,53.08l-.14.15.14-.15Z"/>
          <path class="cls-7" d="m38.86,53.79l.13-.07.02-.02-.15.09Z"/>
          <path class="cls-7" d="m39,54.12l-.12.06.12-.06Z"/>
          <path class="cls-7" d="m39.02,54.41l-.18.03.18-.03Z"/>
          <path class="cls-1" d="m38.93,62.21c11.58,0,20.97-9.4,20.97-20.99s-9.39-20.99-20.97-20.99-20.97,9.4-20.97,20.99,9.39,20.99,20.97,20.99Z"/>
          <path class="cls-11" d="m38.93,57.86c9.18,0,16.63-7.45,16.63-16.64s-7.44-16.64-16.63-16.64-16.63,7.45-16.63,16.64,7.44,16.64,16.63,16.64Z"/>
          <path class="cls-12" d="m24.81,55.33c.16.16.34.33.51.49-.17-.16-.34-.32-.51-.49Z"/>
          <path class="cls-12" d="m25.31,55.81c.29.27.59.53.88.78-.31-.25-.6-.51-.88-.78Z"/>
          <path class="cls-12" d="m26.21,56.59c.24.2.49.4.74.59-.25-.19-.5-.38-.74-.59Z"/>
          <path class="cls-8" d="m38.72,28.56c.5,0,.9-.4.9-.9s-.4-.9-.9-.9-.9.4-.9.9.4.9.9.9Z"/>
          <path class="cls-8" d="m32.31,30.28c-.43.25-.99.1-1.24-.33-.25-.43-.1-.99.33-1.23.43-.25.99-.1,1.23.33.25.43.1.99-.33,1.24h0Z"/>
          <path class="cls-8" d="m27.62,34.98c-.25.43-.8.58-1.24.33-.43-.25-.58-.8-.33-1.24.25-.43.8-.58,1.24-.33.43.25.58.8.33,1.24h0Z"/>
          <path class="cls-8" d="m24.99,42.31c.5,0,.9-.4.9-.9s-.4-.9-.9-.9-.9.4-.9.9.4.9.9.9Z"/>
          <path class="cls-8" d="m27.28,49.06c-.43.25-.99.1-1.24-.33-.25-.43-.1-.99.33-1.24.43-.25.99-.1,1.24.33.25.43.1.99-.33,1.24Z"/>
          <path class="cls-8" d="m32.64,53.75c-.25.43-.8.58-1.23.33-.43-.25-.58-.8-.33-1.24.25-.43.8-.58,1.24-.33.43.25.58.8.33,1.24h0Z"/>
          <path class="cls-8" d="m38.72,56.04c.5,0,.9-.4.9-.9s-.4-.9-.9-.9-.9.4-.9.9.4.9.9.9Z"/>
          <path class="cls-8" d="m46.03,54.09c-.43.25-.99.1-1.24-.33-.25-.43-.1-.99.33-1.24.43-.25.99-.1,1.23.33.25.43.1.99-.33,1.24h0Z"/>
          <path class="cls-8" d="m51.39,48.72c-.25.43-.8.58-1.24.33-.43-.25-.58-.8-.33-1.24.25-.43.8-.58,1.24-.33.43.25.58.8.33,1.24Z"/>
          <path class="cls-8" d="m52.45,42.31c.5,0,.9-.4.9-.9s-.4-.9-.9-.9-.9.4-.9.9.4.9.9.9Z"/>
          <path class="cls-8" d="m46.36,29.95c-.25.43-.8.58-1.23.33s-.58-.8-.33-1.24c.25-.43.8-.58,1.24-.33.43.25.58.8.33,1.23h0s0,.01,0,.01Z"/>
          <path class="cls-8" d="m50.86,34.98c-.25.43-.8.58-1.23.33s-.58-.8-.33-1.24c.25-.43.8-.58,1.24-.33.43.25.58.8.33,1.23h0s0,.01,0,.01Z"/>
          <path class="cls-8" d="m39.59,40.36v11.56c0,.3-.28.55-.64.55s-.64-.24-.64-.55v-11.56c0-.3.28-.55.64-.55s.64.24.64.55Z"/>
          <path class="cls-8" d="m38.96,34.54c.45,0,.82.23.82.5v7.06c0,.28-.36.5-.82.5s-.82-.22-.82-.5v-7.06c0-.28.36-.5.82-.5Z"/>
          <path class="cls-8" d="m40.74,41.45c0,.3-.07.57-.2.82-.2.39-.54.7-.95.84-.2.07-.41.11-.64.11s-.44-.04-.64-.11c-.24-.09-.45-.23-.62-.41-.13-.13-.24-.28-.32-.44-.12-.24-.2-.52-.2-.82s.07-.57.2-.82c.2-.39.54-.7.94-.84.2-.07.41-.11.64-.11s.44.04.64.11c.24.09.45.23.62.41.13.13.24.28.32.45.12.25.2.52.2.82h0Z"/>
        </g>
        <g class="cls-14">
          <text class="cls-13" transform="translate(27.65 77.8)"><tspan x="0" y="0">24h</tspan></text>
        </g>
      </g>
      <path class="cls-8" d="m120.46,41.57c.38,0,.69-.31.69-.69s-.31-.69-.69-.69-.69.31-.69.69.31.69.69.69Z"/>
      <path class="cls-2" d="m120.11,37.94s.08,1.79-1.78,1.96"/>
      <path class="cls-10" d="m121.62,45.03h-.02s.01,0,.02,0h0Z"/>
      <path class="cls-2" d="m124.31,42.39s3.21,6.93-2.31,8.47c-2.02.56-2.8,1.21-2.78,1.94,0,.02,0,.05,0,.08,0,.04.02.08.02.12.29,1.22,2.61,2.64,5.05,4.19h.02s.11.08.25.21c.05.04.11.09.17.16.58.59,1.67,2,2.98,5.3-4.15,3.28-9.4,5.23-15.1,5.23-4.55,0-8.81-1.25-12.47-3.42.42-1.65.81-2.71.81-2.71,2.8-6.67,8.02-5.85,8.78-7.84.75-1.98-.39-2.46-.39-2.46-8.81-1.74-11.72-7.29-10.95-12.8.78-5.52,5.84-14.16,16.48-11.56,10.64,2.6,7.51,11.43,7.51,11.43"/>
      <path class="cls-1" d="m137.05,43.68c0,7.78-3.64,14.71-9.3,19.18-1.31-3.3-2.4-4.73-2.98-5.3-.07-.06-.12-.11-.18-.16-.14-.13-.23-.18-.25-.21h-.02c-2.44-1.56-4.77-2.98-5.05-4.19,0-.04-.02-.08-.02-.12,0-.02,0-.06,0-.08-.02-.72.75-1.38,2.77-1.94,5.54-1.54,2.32-8.47,2.32-8.47.51-.19,2.63-2.67-.27-2.17-1.3.22-1.62-1.49-1.62-1.49,0,0,3.14-8.83-7.5-11.43-10.64-2.6-15.71,6.04-16.48,11.56-.78,5.52,2.14,11.07,10.95,12.8,0,0,1.14.47.38,2.46-.75,1.99-5.98,1.16-8.78,7.84,0,0-.39,1.06-.81,2.71-7.15-4.25-11.95-12.06-11.95-21,0-13.47,10.93-24.4,24.41-24.4s24.4,10.93,24.4,24.4h0Z"/>
      <path class="cls-4" d="m123.06,45.03s-.65-.52-2.05,0"/>
      <path class="cls-2" d="m108.33,42.04s-3.13.11-2.19,2.95c.96,2.83,3.01,1.19,3.01,1.19"/>
      <path class="cls-2" d="m107.75,44.28l.65-.1"/>
      <path class="cls-3" d="m122.01,45.63c0,1.01-.82,1.83-1.83,1.83s-1.83-.82-1.83-1.83c0-.75,1-2.42,1.52-3.24.14-.23.48-.23.62,0,.52.82,1.52,2.5,1.52,3.24h0Z"/>
      <path class="cls-3" d="m122.01,52.43c0,1.01-.82,1.83-1.83,1.83s-1.83-.82-1.83-1.83c0-.75,1-2.42,1.52-3.24.14-.23.48-.23.62,0,.52.82,1.52,2.5,1.52,3.24h0Z"/>
    </g>
    <g>
      <path class="cls-5" d="m77.75,46.34c.95-.64,2.57-1.57,3.57-2.14-1.2-.76-2.02-1.45-3.23-2.2"/>
      <line class="cls-5" x1="66.46" y1="44.18" x2="80.62" y2="44.18"/>
    </g>
  </g>
</svg>