<?xml version="1.0" encoding="UTF-8"?>
<svg id="Calque_1" data-name="Calque 1" xmlns="http://www.w3.org/2000/svg" viewBox="0 0 200 128">
  <defs>
    <style>
      .cls-1, .cls-2, .cls-3, .cls-4, .cls-5 {
        stroke: #000;
      }

      .cls-1, .cls-2, .cls-3, .cls-6 {
        stroke-linecap: round;
        stroke-linejoin: round;
      }

      .cls-1, .cls-7 {
        fill: #bfe6fc;
      }

      .cls-2, .cls-5 {
        fill: #fff;
      }

      .cls-3, .cls-6, .cls-8 {
        fill: none;
      }

      .cls-4, .cls-5, .cls-8 {
        stroke-miterlimit: 10;
      }

      .cls-9 {
        fill: #f6e7d4;
      }

      .cls-10 {
        fill: #ff6d75;
      }

      .cls-11 {
        fill: #b4eac3;
      }

      .cls-12 {
        fill: #dbc5b1;
      }

      .cls-13 {
        fill: #dfdfe0;
      }

      .cls-14 {
        fill: #87ccf3;
      }

      .cls-6 {
        stroke: #fff;
        stroke-width: 8px;
      }

      .cls-8 {
        stroke: #76ac75;
      }
    </style>
  </defs>
  <rect class="cls-2" x="16.95" y="56.22" width="69.03" height="37.62"/>
  <rect class="cls-11" x="66.62" y="83.77" width="9.93" height="8.55"/>
  <g>
    <line class="cls-8" x1="69.38" y1="86.32" x2="73.78" y2="90.23"/>
    <line class="cls-8" x1="73.78" y1="86.32" x2="69.38" y2="90.23"/>
  </g>
  <path class="cls-9" d="m86.78,97.24l-.09.04.09-.04Z"/>
  <path class="cls-9" d="m86.13,97.46l-.13.03.13-.03Z"/>
  <path class="cls-2" d="m13.95,53.73v40.4c0,.47.09.92.27,1.33.08.2.19.4.31.58.25.36.56.67.92.92.19.12.38.23.58.31.41.18.86.27,1.33.27h68.03c.21,0,.41-.02.61-.06l.13-.03c.2-.04.38-.09.56-.17l.09-.04c.15-.07.3-.15.44-.24l.11-.07c.15-.11.29-.22.42-.35l.11-.11c.11-.12.21-.24.3-.37l.07-.09h.01c.35-.54.56-1.19.56-1.88v-40.4H13.95Zm72.03,40.11H16.95v-37.62h69.03v37.62Z"/>
  <rect class="cls-11" x="56.52" y="66.56" width="9.93" height="8.55"/>
  <rect class="cls-11" x="56.52" y="83.53" width="9.93" height="8.55"/>
  <rect class="cls-11" x="36.49" y="75.19" width="9.93" height="8.55"/>
  <path d="m157.22,99.68h-27.7c-.23,0-.41-.18-.41-.41s.18-.41.41-.41h27.7c.23,0,.41.18.41.41s-.18.41-.41.41Z"/>
  <g>
    <g>
      <rect class="cls-7" x="98.28" y="43.28" width="90.18" height="49.59"/>
      <path d="m188.46,95.32h-90.18c-.68,0-1.23-.55-1.23-1.23v-50.81c0-.68.55-1.23,1.23-1.23h90.18c.68,0,1.23.55,1.23,1.23v50.81c0,.68-.55,1.23-1.23,1.23Zm-88.95-2.45h87.72v-48.36h-87.72v48.36Z"/>
    </g>
    <rect x="141.07" y="94.69" width="4.6" height="2.55"/>
    <g>
      <polygon points="130.07 97.24 129.52 99.03 157.22 99.03 156.62 97.24 130.07 97.24"/>
      <path d="m157.22,99.44h-27.7c-.13,0-.25-.06-.33-.17-.08-.1-.1-.24-.06-.36l.55-1.79c.05-.17.21-.29.39-.29h26.55c.18,0,.33.11.39.28l.6,1.79c.04.12.02.26-.06.37-.08.11-.2.17-.33.17Zm-27.14-.82h26.58l-.33-.98h-25.95l-.3.98Z"/>
    </g>
    <polygon class="cls-14" points="99.51 44.5 99.51 92.86 127.91 44.5 99.51 44.5"/>
  </g>
  <circle class="cls-10" cx="186.08" cy="94.03" r=".61"/>
  <path class="cls-1" d="m85.29,42.07h.09c.24,0,.47.02.69.07,1.56.32,2.72,1.69,2.72,3.34v8.26H13.95v-8.26c0-.21.03-.41.06-.61l.04-.17c.04-.15.08-.3.14-.45l.05-.13c.08-.17.17-.34.27-.5l.03-.05.08-.1c.08-.11.16-.21.25-.31l.15-.15c.12-.12.25-.23.39-.32l.05-.04.37-.2c.07-.04.14-.08.21-.11.29-.12.6-.21.92-.24.13-.02.27-.02.41-.02h.22v.02h2.06v-.02h3.92v.02h2.06v-.02h3.92v.02h2.06v-.02h3.92v.02h2.06v-.02h3.95v.02h2.06v-.02h3.91s2.06.01,2.06.01h0s3.91-.01,3.91-.01h0s2.06.01,2.06.01h0s3.92-.01,3.92-.01h0s2.06,0,2.06,0h0s3.89,0,3.89,0h0s2.06,0,2.06,0h0s3.92,0,3.92,0h0s2.06,0,2.06,0h0s3.85,0,3.85,0h0s2.06,0,2.06,0h0s3.92,0,3.92,0h0s1.56,0,1.56,0h.5Z"/>
  <polygon class="cls-9" points="15.45 42.65 15.4 42.69 15.4 42.69 15.45 42.65"/>
  <path class="cls-9" d="m13.95,94.13c0,.47.1.92.27,1.33-.17-.41-.27-.86-.27-1.33Z"/>
  <path class="cls-9" d="m88.23,96.02l-.07.09.07-.09Z"/>
  <path class="cls-9" d="m87.86,96.47l-.11.11.11-.11Z"/>
  <path class="cls-9" d="m17.36,97.55h0c-.47,0-.92-.1-1.33-.27.41.17.86.27,1.33.27Z"/>
  <polygon class="cls-9" points="87.22 97 87.31 96.95 87.33 96.93 87.22 97"/>
  <path class="cls-9" d="m14.53,96.04c.22.32.5.6.81.83l.11.1c-.36-.25-.68-.56-.92-.92Z"/>
  <path class="cls-13" d="m18.61,46.43c.09,0,.18-.02.26-.04-.08.02-.17.04-.26.04Z"/>
  <path class="cls-13" d="m18.92,46.38c.07-.02.14-.06.21-.1-.07.04-.14.07-.21.1Z"/>
  <path class="cls-13" d="m19.52,45.87c-.08.17-.21.31-.37.41.16-.1.28-.24.37-.41Z"/>
  <path class="cls-13" d="m24.58,46.43c.09,0,.18-.02.26-.04-.08.02-.17.04-.26.04Z"/>
  <path class="cls-13" d="m24.9,46.38c.07-.02.15-.06.21-.1-.07.04-.14.07-.21.1Z"/>
  <path class="cls-13" d="m30.87,46.38c.07-.02.14-.06.21-.1-.07.04-.14.07-.21.1Z"/>
  <path class="cls-13" d="m31.47,45.87c-.08.17-.21.31-.37.41.16-.1.28-.24.37-.41Z"/>
  <path class="cls-13" d="m30.56,46.43c.09,0,.18-.02.26-.04-.08.02-.17.04-.26.04Z"/>
  <path class="cls-13" d="m36.85,46.38c.07-.02.15-.06.21-.1-.07.04-.14.07-.21.1Z"/>
  <path class="cls-13" d="m36.53,46.43c.09,0,.18-.02.26-.04-.08.02-.17.04-.26.04Z"/>
  <path class="cls-13" d="m35.87,46.19l-.14-.14.14.14Z"/>
  <path class="cls-13" d="m42.54,46.43c.09,0,.18-.02.26-.04-.08.02-.17.04-.26.04Z"/>
  <path class="cls-13" d="m42.85,46.38c.07-.02.15-.06.21-.1-.07.04-.14.07-.21.1Z"/>
  <path class="cls-13" d="m47.85,46.19l-.14-.14.14.14Z"/>
  <path class="cls-13" d="m48.83,46.38c.07-.02.15-.06.21-.1-.07.04-.14.07-.21.1Z"/>
  <path class="cls-13" d="m48.51,46.43c.09,0,.18-.02.26-.04-.08.02-.17.04-.26.04Z"/>
  <path class="cls-13" d="m54.48,46.43c.09,0,.18-.02.26-.04-.08.02-.17.04-.26.04Z"/>
  <path class="cls-13" d="m54.8,46.38c.07-.02.15-.06.21-.1-.07.04-.14.07-.21.1Z"/>
  <path class="cls-13" d="m60.77,46.38c.07-.02.15-.06.21-.1-.07.04-.14.07-.21.1Z"/>
  <path class="cls-13" d="m60.45,46.43c.09,0,.18-.02.26-.04-.08.02-.17.04-.26.04Z"/>
  <path class="cls-13" d="m66.4,46.43c.09,0,.18-.02.26-.04-.08.02-.17.04-.26.04Z"/>
  <path class="cls-13" d="m67.32,45.87c-.08.17-.21.31-.37.41.16-.1.28-.24.37-.41Z"/>
  <path class="cls-13" d="m66.72,46.38c.07-.02.14-.06.21-.1-.07.04-.14.07-.21.1Z"/>
  <path class="cls-13" d="m71.72,46.19l-.14-.14.14.14Z"/>
  <path class="cls-13" d="m72.38,46.43c.09,0,.18-.02.26-.04-.08.02-.17.04-.26.04Z"/>
  <path class="cls-13" d="m72.7,46.38c.07-.02.15-.06.21-.1-.07.04-.14.07-.21.1Z"/>
  <path class="cls-13" d="m79.2,45.87c-.08.17-.21.31-.37.41.16-.1.28-.24.37-.41Z"/>
  <path class="cls-13" d="m78.29,46.43c.09,0,.18-.02.26-.04-.08.02-.17.04-.26.04Z"/>
  <path class="cls-13" d="m78.61,46.38c.07-.02.15-.06.21-.1-.07.04-.14.07-.21.1Z"/>
  <path class="cls-13" d="m84.27,46.43c.09,0,.18-.02.26-.04-.08.02-.17.04-.26.04Z"/>
  <path class="cls-13" d="m83.61,46.19l-.14-.14.14.14Z"/>
  <path class="cls-13" d="m84.58,46.38c.07-.02.15-.06.21-.1-.07.04-.14.07-.21.1Z"/>
  <g>
    <path class="cls-2" d="m18.61,39.94c-.11,0-.21.02-.31.05,0,0,0,0,0,0,0,0,0,0-.01,0-.09.03-.17.07-.24.12-.01,0-.03.02-.04.03-.08.06-.15.12-.21.2h-.01c-.06.09-.1.18-.14.27l-.02.05c-.03.09-.05.19-.05.3v4.44c0,.57.46,1.03,1.03,1.03h0c.09,0,.18-.02.26-.04l.06-.02c.07-.03.15-.06.21-.1h.02c.16-.11.28-.25.37-.41.07-.14.12-.3.12-.46v-4.44c0-.57-.46-1.03-1.03-1.03Z"/>
    <path class="cls-2" d="m24.58,39.94c-.11,0-.21.02-.31.05,0,0,0,0,0,0,0,0,0,0-.01,0-.09.03-.17.07-.24.12-.01,0-.03.02-.04.03-.08.06-.15.12-.21.2h-.01c-.06.09-.1.18-.14.27l-.02.05c-.03.09-.05.19-.05.3v4.44c0,.57.46,1.03,1.03,1.03h0c.09,0,.18-.02.26-.04l.06-.02c.07-.03.15-.06.21-.1h.02c.08-.06.15-.12.21-.18,0,0,0-.01.01-.02.06-.06.1-.13.14-.21,0,0,0,0,0,0h0c.07-.14.12-.3.12-.46v-4.44c0-.57-.46-1.03-1.03-1.03Z"/>
    <path class="cls-2" d="m30.56,39.94c-.11,0-.21.02-.31.05,0,0,0,0,0,0,0,0,0,0-.01,0-.09.03-.17.07-.24.12-.01,0-.03.02-.04.03-.08.06-.15.12-.21.2h-.01c-.06.09-.1.18-.14.27l-.02.05c-.03.09-.05.19-.05.3v4.44c0,.57.46,1.03,1.03,1.03h0c.09,0,.18-.02.26-.04l.06-.02c.07-.03.15-.06.21-.1h.02c.16-.11.28-.25.37-.41.07-.14.12-.3.12-.46v-4.44c0-.57-.46-1.03-1.03-1.03Z"/>
    <path class="cls-2" d="m36.53,39.94c-.11,0-.21.02-.31.05,0,0,0,0,0,0,0,0,0,0-.01,0-.09.03-.17.07-.24.12-.01,0-.03.02-.04.03-.08.06-.15.12-.21.2h-.01c-.06.09-.1.18-.14.27l-.02.05c-.03.09-.05.19-.05.3v4.44c0,.24.09.47.23.64l.14.14c.18.15.41.25.66.25h0c.09,0,.18-.02.26-.04l.06-.02c.07-.03.15-.06.21-.1h.02c.08-.06.15-.12.21-.19,0,0,0,0,0-.01.06-.06.11-.13.15-.21,0,0,0,0,0,0,0,0,0,0,0,0,.07-.14.12-.3.12-.46v-4.44c0-.57-.46-1.03-1.03-1.03Z"/>
    <path class="cls-2" d="m42.53,39.94c-.11,0-.21.02-.31.05,0,0,0,0,0,0,0,0,0,0-.01,0-.09.03-.17.07-.24.12-.01,0-.03.02-.04.03-.08.06-.15.12-.21.2h-.01c-.06.09-.1.18-.14.27l-.02.05c-.03.09-.05.19-.05.3v4.44c0,.57.46,1.03,1.03,1.03h0c.09,0,.18-.02.26-.04l.06-.02c.07-.03.15-.06.21-.1h.02c.08-.06.15-.12.21-.18,0,0,0-.01.01-.02.06-.06.1-.13.14-.21,0,0,0,0,0,0,0,0,0,0,0,0,.07-.14.12-.3.12-.46v-4.44c0-.57-.46-1.03-1.03-1.03Z"/>
    <path class="cls-2" d="m48.51,39.94c-.11,0-.21.02-.31.05,0,0,0,0,0,0,0,0,0,0-.01,0-.09.03-.17.07-.24.12-.01,0-.03.02-.04.03-.08.06-.15.12-.21.2h-.01c-.06.09-.1.18-.14.27l-.02.05c-.03.09-.05.19-.05.3v4.44c0,.24.09.47.23.64l.14.14c.18.15.41.25.66.25h0c.09,0,.18-.02.26-.04l.06-.02c.07-.03.15-.06.21-.1h.02c.08-.06.15-.12.21-.19,0,0,0,0,0-.01.06-.06.11-.13.15-.21,0,0,0,0,0,0,0,0,0,0,0,0,.07-.14.12-.3.12-.46v-4.44c0-.57-.46-1.03-1.03-1.03Z"/>
    <path class="cls-2" d="m54.48,39.94c-.11,0-.21.02-.31.05,0,0,0,0,0,0,0,0,0,0-.01,0-.09.03-.17.07-.24.12-.01,0-.03.02-.04.03-.08.06-.15.12-.21.2h-.01c-.06.09-.1.18-.14.27l-.02.05c-.03.1-.05.19-.05.3v4.44c0,.57.46,1.03,1.03,1.03h0c.09,0,.18-.02.26-.04l.06-.02c.07-.03.15-.06.21-.1h.02c.08-.06.15-.12.21-.19,0,0,0,0,0-.01.06-.06.11-.13.15-.21,0,0,0,0,0,0,0,0,0,0,0,0,.07-.14.12-.3.12-.46v-4.44c0-.57-.46-1.03-1.03-1.03Z"/>
    <path class="cls-2" d="m60.45,39.94c-.11,0-.21.02-.31.05,0,0,0,0,0,0,0,0,0,0-.01,0-.09.03-.17.07-.24.12-.01,0-.03.02-.04.03-.08.06-.15.12-.21.2h-.01c-.06.09-.1.18-.14.27l-.02.05c-.03.09-.05.19-.05.3v4.44c0,.57.46,1.03,1.03,1.03h0c.09,0,.18-.02.26-.04l.06-.02c.07-.03.15-.06.21-.1h.02c.08-.06.15-.12.21-.19,0,0,0,0,0-.01.06-.06.11-.13.15-.21,0,0,0,0,0,0,0,0,0,0,0,0,.07-.14.12-.3.12-.46v-4.44c0-.57-.46-1.03-1.03-1.03Z"/>
    <path class="cls-2" d="m66.4,39.94c-.11,0-.21.02-.31.05,0,0,0,0,0,0,0,0,0,0-.01,0-.09.03-.17.07-.24.12-.01,0-.03.02-.04.03-.08.06-.15.12-.21.2h-.01c-.06.09-.1.18-.14.27l-.02.05c-.03.09-.05.19-.05.3v4.44c0,.57.46,1.03,1.03,1.03h0c.09,0,.18-.02.26-.04l.06-.02c.07-.03.15-.06.21-.1h.02c.16-.11.28-.25.37-.41.07-.14.12-.3.12-.46v-4.44c0-.57-.46-1.03-1.03-1.03Z"/>
    <path class="cls-2" d="m72.38,39.94c-.11,0-.21.02-.31.05,0,0,0,0,0,0,0,0,0,0-.01,0-.09.03-.17.07-.24.12-.01,0-.03.02-.04.03-.08.06-.15.12-.21.2h-.01c-.06.09-.1.18-.14.27l-.02.05c-.03.09-.05.19-.05.3v4.44c0,.24.09.47.23.64l.14.14c.18.15.41.25.66.25h0c.09,0,.18-.02.26-.04l.06-.02c.07-.03.15-.06.21-.1h.02c.08-.06.15-.12.21-.18,0,0,0-.01.01-.02.06-.06.1-.13.14-.21,0,0,0,0,0,0,0,0,0,0,0,0,.07-.14.12-.3.12-.46v-4.44c0-.57-.46-1.03-1.03-1.03Z"/>
    <path class="cls-2" d="m78.29,39.94c-.11,0-.21.02-.31.05,0,0,0,0,0,0,0,0,0,0-.01,0-.09.03-.17.07-.24.12-.01,0-.03.02-.04.03-.08.06-.15.12-.21.2h-.01c-.06.09-.1.18-.14.27l-.02.05c-.03.09-.05.19-.05.3v4.44c0,.57.46,1.03,1.03,1.03h0c.09,0,.18-.02.26-.04l.06-.02c.07-.03.15-.06.21-.1h.02c.16-.11.28-.25.37-.41,0,0,0,0,0,0,.07-.14.12-.3.12-.46v-4.44c0-.57-.46-1.03-1.03-1.03Z"/>
    <path class="cls-2" d="m84.27,39.94c-.11,0-.21.02-.31.05,0,0,0,0,0,0,0,0,0,0-.01,0-.09.03-.17.07-.24.12-.01,0-.03.02-.04.03-.08.06-.15.12-.21.2h-.01c-.06.09-.1.18-.14.27l-.02.05c-.03.09-.05.19-.05.3v4.44c0,.24.09.47.23.64l.14.14c.18.15.41.25.66.25h0c.09,0,.18-.02.26-.04l.06-.02c.07-.03.15-.06.21-.1h.02c.08-.06.15-.12.21-.19,0,0,0,0,0-.01.06-.06.11-.13.15-.21,0,0,0,0,0,0,0,0,0,0,0,0,.07-.14.12-.3.12-.46v-4.44c0-.57-.46-1.03-1.03-1.03Z"/>
  </g>
  <rect class="cls-12" x="46.18" y="75.19" width="0" height="8.55"/>
  <rect class="cls-12" x="76.16" y="75.19" width="0" height="8.55"/>
  <line class="cls-3" x1="76.32" y1="93.85" x2="76.32" y2="56.22"/>
  <line class="cls-3" x1="56.33" y1="93.85" x2="56.33" y2="56.22"/>
  <line class="cls-3" x1="66.32" y1="93.85" x2="66.32" y2="56.22"/>
  <line class="cls-3" x1="46.42" y1="93.85" x2="46.42" y2="56.22"/>
  <line class="cls-3" x1="36.49" y1="93.85" x2="36.49" y2="56.22"/>
  <line class="cls-3" x1="26.98" y1="93.85" x2="26.98" y2="56.22"/>
  <line class="cls-3" x1="85.67" y1="75.19" x2="16.95" y2="75.19"/>
  <line class="cls-3" x1="85.67" y1="66.64" x2="16.95" y2="66.64"/>
  <line class="cls-3" x1="85.83" y1="83.74" x2="17.1" y2="83.74"/>
  <line class="cls-3" x1="85.83" y1="57.93" x2="17.1" y2="57.93"/>
  <line class="cls-3" x1="85.73" y1="92.34" x2="17.01" y2="92.34"/>
  <circle class="cls-5" cx="18.8" cy="74.11" r="14.54"/>
  <path class="cls-4" d="m12.72,68.39c.57-1.28,1.65-2.2,3.24-2.75,1.47-.51,2.79-.51,3.96.01,1.17.52,1.98,1.43,2.43,2.71.27.78.33,1.47.18,2.07s-.56,1.54-1.22,2.83c-.48.94-.75,1.68-.8,2.23-.03.36.01.8.14,1.32s-.16,1.05-.67,1.22h0c-.58.2-1.21-.14-1.35-.74-.14-.59-.2-1.11-.18-1.58.03-.73.33-1.66.9-2.79l.6-1.19c.18-.34.31-.68.38-1.01.14-.58.12-1.13-.06-1.65-.25-.72-.69-1.27-1.31-1.65-.62-.38-1.44-.39-2.46-.04-1.25.44-1.96,1.2-2.13,2.27-.06.41-.04.91.08,1.49.1.51-.19,1.01-.68,1.18h0c-.61.21-1.26-.17-1.37-.8-.2-1.13-.09-2.18.34-3.14Zm8.07,11.91h0c.61-.21,1.27.11,1.48.72l.03.1c.21.61-.11,1.27-.72,1.48h0c-.61.21-1.27-.11-1.48-.72l-.03-.1c-.21-.61.11-1.27.72-1.48Z"/>
  <g>
    <line class="cls-8" x1="59.12" y1="68.88" x2="63.53" y2="72.79"/>
    <line class="cls-8" x1="63.53" y1="68.88" x2="59.12" y2="72.79"/>
  </g>
  <g>
    <line class="cls-8" x1="59.28" y1="86.09" x2="63.68" y2="90"/>
    <line class="cls-8" x1="63.68" y1="86.09" x2="59.28" y2="90"/>
  </g>
  <g>
    <line class="cls-8" x1="39.25" y1="77.51" x2="43.66" y2="81.42"/>
    <line class="cls-8" x1="43.66" y1="77.51" x2="39.25" y2="81.42"/>
  </g>
  <rect class="cls-6" x="-3789.71" y="-5543.69" width="6467.34" height="6437.3"/>
</svg>