<?xml version="1.0" encoding="UTF-8"?><svg id="Calque_1" xmlns="http://www.w3.org/2000/svg" viewBox="0 0 200.13 128.13"><defs><style>.cls-1{stroke:#e30613;stroke-width:8px;}.cls-1,.cls-2,.cls-3,.cls-4,.cls-5,.cls-6,.cls-7,.cls-8,.cls-9,.cls-10,.cls-11,.cls-12,.cls-13,.cls-14{stroke-linecap:round;}.cls-1,.cls-2,.cls-7,.cls-8,.cls-12{fill:none;}.cls-1,.cls-3,.cls-4,.cls-5,.cls-6,.cls-7,.cls-8,.cls-9,.cls-10,.cls-12,.cls-14{stroke-linejoin:round;}.cls-15,.cls-10,.cls-11{fill:#87ccf3;}.cls-2,.cls-16,.cls-3,.cls-4,.cls-5,.cls-6,.cls-7,.cls-8,.cls-9,.cls-10,.cls-17,.cls-11,.cls-12,.cls-13,.cls-14{stroke:#000;}.cls-2,.cls-16,.cls-17,.cls-11,.cls-13{stroke-miterlimit:10;}.cls-18{fill:#f6e7d4;}.cls-3,.cls-17,.cls-13{fill:#fff;}.cls-4,.cls-9{fill:#bfe6fc;}.cls-4,.cls-12{stroke-width:2px;}.cls-5{fill:#afaff9;}.cls-6{fill:#b2f0e9;}.cls-8{stroke-dasharray:0 0 2.36 2.36;}.cls-19{fill:#dfdfe0;}.cls-14{fill:#d6d6d6;}</style></defs><rect class="cls-1" x="-1417.62" y="-457.34" width="2655.08" height="1511.77"/><path class="cls-13" d="m25.94,82.97h.01l.74-.65c-.23.2-.49.42-.76.65Z"/><path class="cls-2" d="m43.84,97.9l-8.69,1.04c-.51-.09-13.04-1.8-13.04-1.8,0,0,6.27-7.11,8.94-10.27,0,0,2.24-.45,4.41-3.59"/><path class="cls-2" d="m40.56,69.84c-2.04-.86-3.66,2.29-3.66,2.29-1.95-.49-2.81,1.51-2.88,1.7.09-.02.53-.16-.86.69-1.53.94-4.51,6.12-4.51,6.12l-.57.5c-.06.05-.17.15-.34.29l-1.05.89-.74.65h-.01c-4.3,3.71-13.49,11.82-14.21,13.97-.93,2.8.94,5.44,2.46,6.62,1.53,1.2,14.71,5.73,19.73,5.73l.09,5.29"/><path class="cls-2" d="m27.74,81.42l.34-.29c-.06.05-.17.15-.34.29Z"/><path class="cls-3" d="m51.79,57.17c-3.82.16-6.27,2.86-11.26,2.88,0,0-5.37-.92-7.8,1.34-1.36,1.26-1.53,3.6-.77,5.13,0,0-.02-.32-1.18.22-1.16.54-1.96,1.37-2.24,2.29-.3,1-.59,3.72,1.29,4.84-1.08,1.99,3.43,6.29,4.66,7.28"/><path class="cls-3" d="m49.19,97.9s-8.46,2.38-11.66-5.57c-1.59-3.95-2.6-12.93-3.51-18.51"/><line class="cls-3" x1="60.99" y1="84.55" x2="65.32" y2="98.26"/><path class="cls-3" d="m60.99,84.55s1.63-.78,3.59-3.91c1.96-3.13,3.27-8.93,1.12-14.62-2.16-5.69-6.74-5.89-6.74-5.89,0,0-1.66-3.35-7.17-2.96"/><path class="cls-3" d="m60.99,84.55c-1.43.35-2.01-1.96-3.2-2.82-4.15-3.01-5.29-8.28-6.18-13.33-.29.65-.26,1.39-.33,2.1-.07.71-.32,1.48-.95,1.82-1.05.57-2.29-.48-2.73-1.58-.44-1.1-.55-2.4-1.35-3.28-.74,1.91-1.93,3.65-3.43,5.04-.71.65-1.71,1.26-2.59.85-.62-.29-.93-1.02-.92-1.71,0-.68.27-1.33.54-1.97-1,1.8-2.54,3.3-4.37,4.25-.4.21-.89.39-1.29.19-.59-.29-.57-1.14-.4-1.78"/><path class="cls-13" d="m47.62,80.99c-.04.07.14.27.53.43.38.16.98.27,1.61.11.62-.16,1.09-.53,1.32-.85.24-.32.28-.58.21-.62"/><path class="cls-13" d="m37.47,82.63c-.04.07.14.27.52.44.38.17.98.28,1.61.14.63-.15,1.09-.51,1.34-.83.25-.32.29-.57.22-.62"/><path class="cls-13" d="m63.71,69.59c.31.03.51.04.51.02,0-.02-.19-.07-.5-.12"/><path class="cls-3" d="m44.36,80.06s-2.37,7.34,0,6.53"/><path class="cls-13" d="m61.92,68.68s-1.65-.09-3.97,1.02"/><path class="cls-13" d="m61.37,64.28s-2.42-1.24-4.4,0"/><path class="cls-13" d="m49.19,97.9s4.59-.88,6.91-4.17"/><path class="cls-3" d="m65.02,66.78s1.12.55,1.8,1.61"/><path class="cls-13" d="m44.36,92.36s2.82.23,5.31-2.22"/><path class="cls-11" d="m37.78,61.28c-1.02-1-2.54-1.2-3.77-.62-.16-.39-.4-.76-.72-1.07-1.29-1.27-3.38-1.27-4.67,0-.72.71-1.03,1.67-.94,2.6-.97-.11-1.97.19-2.71.92-1.29,1.27-1.29,3.33,0,4.59.99.98,2.46,1.19,3.67.67.16.42.41.83.75,1.17,1.29,1.27,3.38,1.27,4.67,0,.76-.75,1.06-1.78.92-2.75.99.14,2.03-.16,2.8-.91,1.29-1.27,1.29-3.33,0-4.59Z"/><path class="cls-11" d="m52.72,55.01c-.91-.91-2.26-1.09-3.35-.56-.14-.35-.36-.68-.64-.97-1.15-1.15-3.01-1.15-4.16,0-.64.64-.91,1.51-.83,2.35-.86-.1-1.75.17-2.41.83-1.15,1.15-1.15,3.01,0,4.16.88.88,2.19,1.08,3.26.6.14.38.36.75.67,1.06,1.15,1.15,3.01,1.15,4.16,0,.68-.68.95-1.61.82-2.49.88.12,1.81-.14,2.49-.82,1.15-1.15,1.15-3.01,0-4.16Z"/><path class="cls-11" d="m53.34,67.09c-.76-.76-1.88-.91-2.79-.47-.12-.29-.3-.57-.54-.81-.96-.96-2.51-.96-3.47,0-.54.54-.76,1.26-.7,1.96-.72-.08-1.46.14-2.01.69-.96.96-.96,2.51,0,3.47.74.74,1.82.9,2.72.5.12.32.3.62.56.88.96.96,2.51.96,3.47,0,.57-.57.79-1.34.69-2.08.74.1,1.51-.12,2.08-.69.96-.96.96-2.51,0-3.47Z"/><path class="cls-4" d="m55.64,39.37c0-6.37-6.68-11.53-14.94-11.53-8.26,0-14.95,5.17-14.95,11.53h29.89Z"/><line class="cls-7" x1="41.33" y1="50.78" x2="41.33" y2="48.78"/><line class="cls-7" x1="41.33" y1="46.22" x2="41.33" y2="44.22"/><line class="cls-7" x1="31.09" y1="55.29" x2="31.09" y2="53.29"/><line class="cls-8" x1="31.09" y1="50.93" x2="31.09" y2="47.4"/><line class="cls-7" x1="31.09" y1="46.22" x2="31.09" y2="44.22"/><line class="cls-7" x1="50.88" y1="50.78" x2="50.88" y2="48.78"/><line class="cls-7" x1="50.88" y1="46.22" x2="50.88" y2="44.22"/><line class="cls-7" x1="36.36" y1="43.37" x2="36.36" y2="45.37"/><line class="cls-7" x1="36.36" y1="48.78" x2="36.36" y2="50.78"/><line class="cls-12" x1="5.47" y1="21.83" x2="5.47" y2="113.54"/><line class="cls-12" x1="40.7" y1="21.83" x2="40.7" y2="27.83"/><path class="cls-12" d="m40.7,21.83c0-6.88-5.64-12.52-12.52-12.52h-10.19c-3.43,0-6.57,1.41-8.84,3.68-2.27,2.27-3.68,5.39-3.68,8.84"/><path class="cls-6" d="m65.96,39.76c-.1-.41-.1-.98.03-1.55.1-.41.26-.78.5-1.12.29-.41.64-.77,1.03-1.08.42-.33.88-.59,1.37-.81.02,0,.04-.02.05-.02.05-.01.12-.07.16-.03.06.06-.01.12-.04.17-.3.49-.56,1.01-.73,1.56-.2.67-.27,1.36,0,2.03.13.31.25.6.27.94.04.94-.84,1.51-1.67,1.18-.47-.19-.75-.52-.98-1.26Z"/><path class="cls-10" d="m93.37,65.43s.02.06.02.09l-11.73,2.77c0-.06-.02-.12-.04-.19-.09-.33-.17-.66-.25-.99-.13-.57-.26-1.14-.39-1.71,0-.04-.01-.07-.02-.11l.31-.07c.34-.17.71-.23,1.09-.26.13-.03.26-.06.39-.09.2-.25.49-.28.77-.35.54-.13,1.08-.27,1.64-.38,1.06-.28,2.13-.51,3.2-.77.11-.02.21-.05.32-.05.02-.03.03-.05.04-.09.03-.24-.04-.47-.1-.7-.87-3.69-1.74-7.38-2.61-11.07-.02-.07-.03-.14-.05-.21-.16-.62-.21-.65-.82-.52-.99.22-1.97.48-2.97.68-.84.22-1.69.42-2.54.6-.58.1-1.12.42-1.74.26-.22-1.11-.64-2.19-.68-3.34-.06-1.42.51-2.59,1.43-3.63.44-.5.61-1.1.63-1.75,0-.38-.08-.75-.59-.76.41-.43,1-.38,1.51-.52,1.26-.32,2.52-.62,3.79-.9.21-.05.42-.11.63.03-.47.26-.34.58-.14.97.49.98,1.47,1.28,2.32,1.75,1.09.6,1.79,1.51,2.11,2.69,1.71,6.15,2.98,12.41,4.49,18.61Z"/><path class="cls-5" d="m85.54,50.45c-1.14.29-2.28.56-3.42.84-.85.2-1.7.4-2.54.59h0c-.56.13-1.13.26-1.69.39.52,2.24,1.04,4.48,1.57,6.72.5,2.1,1,4.19,1.51,6.29.63-.05,1.23-.19,1.82-.43,0,0,0,0,0,0,.8-.19,1.61-.38,2.41-.57h0s0,0,0,0c1.27-.3,2.53-.6,3.8-.9-.99-4.21-1.98-8.42-2.96-12.63-.07-.29-.18-.39-.48-.31Z"/><path class="cls-14" d="m82.29,30.13c-.26-.23-.5-.06-.73.11-1.49,1.16-3.18,1.63-5.06,1.61-1.26-.01-2.53.11-3.73.57-.98.32-1.9.76-2.74,1.37-.04.05-.07.1-.09.16.08.49.25.64.69.59.38-.04.72-.21,1.05-.39,1.43-.4,2.8-.12,4.12.44.85.36,1.67.76,2.51,1.14h0s.08.05.11.07h0c.09.31.17.63.27.93.11.33.03.48-.33.56-.66.15-.65.17-.45.86,0,0,0,0,0,0,0,0,0,0,0,0,.01.47.3.91.19,1.4.05.05.08.1.1.15-.03-.05-.06-.1-.1-.15.14,1.08.63,2.1.54,3.22,1.98-.46,3.95-.92,5.93-1.39.07-.13.06-.24-.08-.33-.15.03-.25-.74-.38-1.11-.2-.59-.17-1.24-.53-1.78h0c-.06-.07-.11-.14-.17-.21h0s0,0,0,0c-.1-.46-.21-.91-.3-1.37-.05-.29-.18-.43-.47-.31-.59.26-.82,0-.86-.57,0-.09-.05-.17-.08-.26h0c-.07-.34-.14-.67-.2-1.01-.2-1.29-.15-2.53.66-3.63.16-.22.39-.45.11-.71Zm-4.32,8s-.02-.04-.02-.07c0,.02.01.04.02.07Z"/><path class="cls-18" d="m116.09,91.92c0,.48.1.93.27,1.34-.17-.41-.27-.87-.27-1.34Z"/><path class="cls-18" d="m116.9,95.36h0c-.48,0-.93-.1-1.34-.27.41.17.87.27,1.34.27Z"/><path class="cls-18" d="m114.04,93.84c.22.32.5.6.82.84l.12.1c-.37-.25-.68-.56-.93-.93Z"/><path class="cls-15" d="m129.63,89.46c1.05,0,1.9-.85,1.9-1.9s-1.9-3.35-1.9-3.35c0,0-1.9,2.31-1.9,3.35s.85,1.9,1.9,1.9Z"/><line class="cls-7" x1="134.1" y1="92.68" x2="134.1" y2="54.66"/><line class="cls-7" x1="125.41" y1="92.68" x2="125.41" y2="54.66"/><path class="cls-9" d="m185.73,40.38h.09c.24,0,.47.02.69.07,1.57.32,2.75,1.71,2.75,3.38v8.34h-75.64v-8.34c0-.21.03-.42.06-.62l.04-.17c.04-.16.08-.31.14-.45l.05-.13c.08-.17.17-.34.27-.5l.03-.05.08-.1c.08-.11.17-.21.26-.31l.15-.16c.12-.12.26-.23.4-.33l.05-.04.37-.2c.07-.04.14-.08.21-.12.29-.12.6-.21.93-.25.14-.02.28-.02.42-.02h.22v.02h2.08v-.02h3.96v.02h2.08v-.02h3.96v.02h2.08v-.02h3.96v.02h2.08v-.02h3.99v.02h2.08v-.02h3.96s2.08.01,2.08.01h0s3.95-.01,3.95-.01h0s2.08.01,2.08.01h0s3.96-.01,3.96-.01h0s2.08,0,2.08,0h0s3.93,0,3.93,0h0s2.08,0,2.08,0h0s3.96,0,3.96,0h0s2.08,0,2.08,0h0s3.89,0,3.89,0h0s2.08,0,2.08,0h0s3.96,0,3.96,0h0s1.58,0,1.58,0h.5Z"/><path class="cls-7" d="m113.63,52.18v40.82c0,.48.1.93.27,1.34.09.21.19.4.32.59.25.37.56.68.93.93.18.12.38.23.59.32.41.17.87.27,1.34.27h68.74c.21,0,.42-.03.62-.06l.13-.03c.19-.04.38-.1.56-.17l.09-.04c.16-.07.3-.15.44-.24l.11-.07c.15-.11.29-.22.43-.35l.11-.11c.11-.12.21-.24.31-.37l.07-.09h0s0-.01,0-.01c.36-.54.57-1.19.57-1.89v-40.82m-72.61,2.51h69.76v38.02h-69.76v-38.02Z"/><path class="cls-19" d="m147.89,44.55l-.14-.14.14.14Z"/><path class="cls-19" d="m148.88,44.74c.08-.02.15-.06.21-.1-.07.04-.14.07-.21.1Z"/><path class="cls-19" d="m148.55,44.8c.09,0,.18-.02.26-.04-.08.02-.17.04-.26.04Z"/><path class="cls-19" d="m154.59,44.8c.09,0,.18-.02.26-.04-.08.02-.17.04-.26.04Z"/><path class="cls-19" d="m154.91,44.74c.08-.02.15-.06.21-.1-.07.04-.14.07-.21.1Z"/><path class="cls-3" d="m118.33,38.23c-.11,0-.21.02-.31.06,0,0,0,0,0,0,0,0,0,0-.01,0-.09.03-.17.07-.25.12-.01,0-.03.02-.04.03-.08.06-.15.13-.21.2h-.01c-.06.09-.1.18-.14.27l-.02.05c-.03.1-.05.2-.05.3v4.48c0,.57.47,1.04,1.04,1.04h0c.09,0,.18-.02.26-.04l.06-.02c.07-.03.15-.06.21-.1h.02c.16-.11.29-.25.37-.42.07-.14.12-.3.12-.47v-4.48c0-.57-.47-1.04-1.04-1.04Z"/><path class="cls-3" d="m124.37,38.23c-.11,0-.21.02-.31.06,0,0,0,0,0,0,0,0,0,0-.01,0-.09.03-.17.07-.25.12-.01,0-.03.02-.04.03-.08.06-.15.13-.21.2h-.01c-.06.09-.1.18-.14.27l-.02.05c-.03.1-.05.2-.05.3v4.48c0,.57.47,1.04,1.04,1.04h0c.09,0,.18-.02.26-.04l.06-.02c.07-.03.15-.06.21-.1h.02c.08-.06.15-.12.21-.19,0,0,0-.01.01-.02.06-.06.11-.13.15-.21,0,0,0,0,0,0h0c.07-.14.12-.3.12-.47v-4.48c0-.57-.47-1.04-1.04-1.04Z"/><path class="cls-3" d="m130.41,38.23c-.11,0-.21.02-.31.06,0,0,0,0,0,0,0,0,0,0-.01,0-.09.03-.17.07-.25.12-.01,0-.03.02-.04.03-.08.06-.15.13-.21.2h-.01c-.06.09-.1.18-.14.27l-.02.05c-.03.1-.05.2-.05.3v4.48c0,.57.47,1.04,1.04,1.04h0c.09,0,.18-.02.26-.04l.06-.02c.07-.03.15-.06.21-.1h.02c.16-.11.29-.25.37-.42.07-.14.12-.3.12-.47v-4.48c0-.57-.47-1.04-1.04-1.04Z"/><path class="cls-3" d="m136.45,38.23c-.11,0-.21.02-.31.06,0,0,0,0,0,0,0,0,0,0-.01,0-.09.03-.17.07-.24.12-.01,0-.03.02-.04.03-.08.06-.15.13-.21.2h-.01c-.06.09-.1.18-.14.27l-.02.05c-.03.1-.05.2-.05.3v4.48c0,.25.09.47.24.65l.14.14c.18.15.41.25.67.25h0c.09,0,.18-.02.26-.04l.06-.02c.08-.03.15-.06.21-.1h.02c.08-.06.15-.12.21-.19,0,0,0,0,0-.01.06-.06.11-.14.15-.21,0,0,0,0,0,0,0,0,0,0,0,0,.07-.14.12-.3.12-.47v-4.48c0-.57-.47-1.04-1.04-1.04Z"/><path class="cls-3" d="m142.52,38.23c-.11,0-.21.02-.31.06,0,0,0,0,0,0,0,0,0,0-.01,0-.09.03-.17.07-.25.12-.01,0-.03.02-.04.03-.08.06-.15.13-.21.2h-.01c-.06.09-.1.18-.14.27l-.02.05c-.03.1-.05.2-.05.3v4.48c0,.57.47,1.04,1.04,1.04h0c.09,0,.18-.02.26-.04l.06-.02c.08-.03.15-.06.21-.1h.02c.08-.06.15-.12.21-.19,0,0,0-.01.01-.02.06-.06.11-.13.15-.21,0,0,0,0,0,0,0,0,0,0,0,0,.07-.14.12-.3.12-.47v-4.48c0-.57-.47-1.04-1.04-1.04Z"/><path class="cls-3" d="m148.55,38.23c-.11,0-.21.02-.31.05,0,0,0,0,0,0,0,0,0,0-.01,0-.09.03-.17.07-.25.12-.01,0-.03.02-.04.03-.08.06-.15.13-.21.2h-.01c-.06.09-.1.18-.14.27l-.02.05c-.03.1-.05.2-.05.3v4.48c0,.25.09.47.24.65l.14.14c.18.15.41.25.67.25h0c.09,0,.18-.02.26-.04l.06-.02c.08-.03.15-.06.21-.1h.02c.08-.06.15-.12.21-.19,0,0,0,0,0-.01.06-.06.11-.14.15-.21,0,0,0,0,0,0,0,0,0,0,0,0,.07-.14.12-.3.12-.47v-4.48c0-.57-.47-1.04-1.04-1.04Z"/><path class="cls-3" d="m154.59,38.23c-.11,0-.21.02-.31.06,0,0,0,0,0,0,0,0,0,0-.01,0-.09.03-.17.07-.25.12-.01,0-.03.02-.04.03-.08.06-.15.13-.21.2h-.01c-.06.09-.1.18-.14.27l-.02.05c-.03.1-.05.2-.05.3v4.48c0,.57.47,1.04,1.04,1.04h0c.09,0,.18-.02.26-.04l.06-.02c.08-.03.15-.06.21-.1h.02c.08-.06.15-.12.21-.19,0,0,0,0,0-.01.06-.06.11-.14.15-.21,0,0,0,0,0,0,0,0,0,0,0,0,.07-.14.12-.3.12-.47v-4.48c0-.57-.47-1.04-1.04-1.04Z"/><path class="cls-3" d="m160.62,38.23c-.11,0-.21.02-.31.06,0,0,0,0,0,0,0,0,0,0-.01,0-.09.03-.17.07-.25.12-.01,0-.03.02-.04.03-.08.06-.15.13-.21.2h-.01c-.06.09-.1.18-.14.27l-.02.05c-.03.1-.05.2-.05.3v4.48c0,.57.47,1.04,1.04,1.04h0c.09,0,.18-.02.26-.04l.06-.02c.07-.03.15-.06.21-.1h.02c.08-.06.15-.12.21-.19,0,0,0,0,0-.01.06-.06.11-.14.15-.21,0,0,0,0,0,0,0,0,0,0,0,0,.07-.14.12-.3.12-.47v-4.48c0-.57-.47-1.04-1.04-1.04Z"/><path class="cls-3" d="m166.64,38.23c-.11,0-.21.02-.31.06,0,0,0,0,0,0,0,0,0,0-.01,0-.09.03-.17.07-.25.12-.01,0-.03.02-.04.03-.08.06-.15.13-.21.2h-.01c-.06.09-.1.18-.14.27l-.02.05c-.03.1-.05.2-.05.3v4.48c0,.57.47,1.04,1.04,1.04h0c.09,0,.18-.02.26-.04l.06-.02c.07-.03.15-.06.21-.1h.02c.16-.11.29-.25.37-.42.07-.14.12-.3.12-.47v-4.48c0-.57-.47-1.04-1.04-1.04Z"/><path class="cls-3" d="m172.67,38.23c-.11,0-.21.02-.31.06,0,0,0,0,0,0,0,0,0,0-.01,0-.09.03-.17.07-.25.12-.01,0-.03.02-.04.03-.08.06-.15.13-.21.2h-.01c-.06.09-.1.18-.14.27l-.02.05c-.03.1-.05.2-.05.3v4.48c0,.25.09.47.24.65l.14.14c.18.15.41.25.66.25h0c.09,0,.18-.02.26-.04l.06-.02c.08-.03.15-.06.21-.1h.02c.08-.06.15-.12.21-.19,0,0,0-.01.01-.02.06-.06.11-.13.15-.21,0,0,0,0,0,0,0,0,0,0,0,0,.07-.14.12-.3.12-.47v-4.48c0-.57-.47-1.04-1.04-1.04Z"/><path class="cls-3" d="m178.65,38.23c-.11,0-.21.02-.31.05,0,0,0,0,0,0,0,0,0,0-.01,0-.09.03-.17.07-.25.12-.01,0-.03.02-.04.03-.08.06-.15.13-.21.2h-.01c-.06.09-.1.18-.14.27l-.02.05c-.03.1-.05.2-.05.3v4.48c0,.57.47,1.04,1.04,1.04h0c.09,0,.18-.02.26-.04l.06-.02c.07-.03.15-.06.21-.1h.02c.16-.11.29-.25.37-.42,0,0,0,0,0,0,.07-.14.12-.3.12-.47v-4.48c0-.57-.47-1.04-1.04-1.04Z"/><path class="cls-3" d="m184.69,38.23c-.11,0-.21.02-.31.06,0,0,0,0,0,0,0,0,0,0-.01,0-.09.03-.17.07-.25.12-.01,0-.03.02-.04.03-.08.06-.15.13-.21.2h-.01c-.06.09-.1.18-.14.27l-.02.05c-.03.1-.05.2-.05.3v4.48c0,.25.09.47.24.65l.14.14c.18.15.41.25.67.25h0c.09,0,.18-.02.26-.04l.06-.02c.08-.03.15-.06.21-.1h.02c.08-.06.15-.12.21-.19,0,0,0,0,0-.01.06-.06.11-.14.15-.21,0,0,0,0,0,0,0,0,0,0,0,0,.07-.14.12-.3.12-.47v-4.48c0-.57-.47-1.04-1.04-1.04Z"/><path class="cls-15" d="m138.33,63.71c1.05,0,1.9-.85,1.9-1.9s-1.9-3.35-1.9-3.35c0,0-1.9,2.31-1.9,3.35s.85,1.9,1.9,1.9Z"/><path class="cls-15" d="m147.26,72.16c1.05,0,1.9-.85,1.9-1.9s-1.9-3.35-1.9-3.35c0,0-1.9,2.31-1.9,3.35s.85,1.9,1.9,1.9Z"/><path class="cls-15" d="m147.05,89.46c1.05,0,1.9-.85,1.9-1.9s-1.9-3.35-1.9-3.35c0,0-1.9,2.31-1.9,3.35s.85,1.9,1.9,1.9Z"/><path class="cls-15" d="m138.6,89.46c1.05,0,1.9-.85,1.9-1.9s-1.9-3.35-1.9-3.35c0,0-1.9,2.31-1.9,3.35s.85,1.9,1.9,1.9Z"/><path class="cls-15" d="m155.74,89.46c1.05,0,1.9-.85,1.9-1.9s-1.9-3.35-1.9-3.35c0,0-1.9,2.31-1.9,3.35s.85,1.9,1.9,1.9Z"/><path class="cls-15" d="m172.83,89.46c1.05,0,1.9-.85,1.9-1.9s-1.9-3.35-1.9-3.35c0,0-1.9,2.31-1.9,3.35s.85,1.9,1.9,1.9Z"/><path class="cls-15" d="m181.92,89.46c1.05,0,1.9-.85,1.9-1.9s-1.9-3.35-1.9-3.35c0,0-1.9,2.31-1.9,3.35s.85,1.9,1.9,1.9Z"/><line class="cls-7" x1="151.49" y1="92.71" x2="151.49" y2="54.69"/><line class="cls-7" x1="142.8" y1="92.71" x2="142.8" y2="54.69"/><line class="cls-7" x1="186.11" y1="73.86" x2="116.66" y2="73.86"/><line class="cls-7" x1="186.11" y1="65.21" x2="116.66" y2="65.21"/><line class="cls-7" x1="186.26" y1="82.5" x2="116.81" y2="82.5"/><line class="cls-7" x1="186.26" y1="56.42" x2="116.81" y2="56.42"/><line class="cls-7" x1="186.17" y1="91.19" x2="116.72" y2="91.19"/><polygon class="cls-18" points="187.98 96.45 188.08 96.39 188.1 96.38 187.98 96.45"/><path class="cls-18" d="m181.63,96.69l-.09.04.09-.04Z"/><path class="cls-18" d="m175.19,96.91l-.13.03.13-.03Z"/><path class="cls-15" d="m155.75,63.71c1.05,0,1.9-.85,1.9-1.9s-1.9-3.35-1.9-3.35c0,0-1.9,2.31-1.9,3.35s.85,1.9,1.9,1.9Z"/><line class="cls-7" x1="168.88" y1="93.09" x2="168.88" y2="55.06"/><line class="cls-7" x1="177.58" y1="93.09" x2="177.58" y2="55.06"/><line class="cls-7" x1="160.19" y1="93.09" x2="160.19" y2="55.06"/><circle class="cls-17" cx="116.48" cy="76.06" r="11.2"/><path class="cls-16" d="m111.8,71.66c.44-.99,1.27-1.7,2.49-2.12,1.13-.39,2.15-.39,3.05.01.9.4,1.53,1.1,1.87,2.09.21.6.26,1.13.14,1.59s-.43,1.19-.94,2.18c-.37.72-.58,1.29-.62,1.72-.03.28,0,.61.1,1.01s-.13.81-.51.94h0c-.45.16-.93-.11-1.04-.57s-.16-.86-.14-1.21c.02-.56.25-1.28.69-2.15l.46-.91c.14-.26.24-.52.3-.78.11-.45.09-.87-.05-1.27-.19-.56-.53-.98-1.01-1.27-.48-.29-1.11-.3-1.89-.03-.97.34-1.51.92-1.64,1.75-.05.32-.03.7.06,1.15.08.39-.15.78-.52.91h0c-.47.16-.97-.13-1.06-.62-.16-.87-.07-1.68.26-2.42Zm6.21,9.17h0c.47-.16.98.08,1.14.55l.03.08c.16.47-.08.98-.55,1.14h0c-.47.16-.98-.08-1.14-.55l-.03-.08c-.16-.47.08-.98.55-1.14Z"/><path class="cls-3" d="m65.54,64.7c-.44-.8-1.93-1.27-1.93-1.27-.07-.01-.12-.01-.17-.02h-.01c-2.86.19-2.49,2.41-2.49,2.41l3,.38,1.08.58m.52-2.08-2.09-1.36,12.94,46.5l11.19-7.08c2.22-1.44,4.75-3.09,7.09-4.66,3.16-2.1,3.63-4.65,3.33-6.62-.24-1.65-1.09-3.15-2.31-4.28-6.21-5.68-16.57-11.6-21.01-14.01l-1.34-.73-.8-.45-6-8.74s-1.01-1.72-2.29-2.15c-1.28-.44-2.93,1.13-2.93,1.13,0,0-.67.83,1.3,1.29m2.31,3.27s.03-.02.09-.02c-1.53-.38-1.98.02-2.46.33-.27.17-.45.39-.57.63-.3.58-.08,1.29.49,1.61l.19.1h1.41v.95s1.72,6.76,3.37,7.79c.78.49,1.7.65,2.46.71l13.28,12.32-18.86,3.87"/><path class="cls-11" d="m64.69,79.29c-.76-.76-1.88-.91-2.79-.47-.12-.29-.3-.57-.54-.81-.96-.96-2.51-.96-3.47,0-.54.54-.76,1.26-.7,1.96-.72-.08-1.46.14-2.01.69-.96.96-.96,2.51,0,3.47.74.74,1.82.9,2.72.5.12.32.3.62.56.88.96.96,2.51.96,3.47,0,.57-.57.79-1.34.69-2.08.74.1,1.51-.12,2.08-.69.96-.96.96-2.51,0-3.47Z"/><path class="cls-7" d="m64.69,79.29s1.29-.43,1.29-3.23"/></svg>