<?xml version="1.0" encoding="UTF-8"?>
<svg id="Calque_1" data-name="Calque 1" xmlns="http://www.w3.org/2000/svg" viewBox="0 0 306.48 123.54">
  <defs>
    <style>
      .cls-1 {
        fill: #bfe5fb;
      }

      .cls-1, .cls-2, .cls-3, .cls-4, .cls-5, .cls-6, .cls-7, .cls-8, .cls-9 {
        stroke: #010101;
      }

      .cls-1, .cls-2, .cls-3, .cls-4, .cls-10, .cls-11 {
        stroke-linecap: round;
        stroke-linejoin: round;
      }

      .cls-2, .cls-12, .cls-6 {
        fill: #fff;
      }

      .cls-3, .cls-10, .cls-11, .cls-9 {
        fill: none;
      }

      .cls-4, .cls-13 {
        fill: #f4d688;
      }

      .cls-14 {
        fill: #f7e7d5;
      }

      .cls-15, .cls-5 {
        fill: #010101;
      }

      .cls-16 {
        fill: #ed6d76;
      }

      .cls-17 {
        fill: #f5afb5;
      }

      .cls-18 {
        fill: #fce9b9;
      }

      .cls-19 {
        fill: #89ccf2;
      }

      .cls-20 {
        fill: #c0e0cd;
      }

      .cls-21 {
        fill: #dfdfe0;
      }

      .cls-5, .cls-6, .cls-7, .cls-8, .cls-9 {
        stroke-miterlimit: 10;
      }

      .cls-7 {
        fill: #8bcdcd;
      }

      .cls-8 {
        fill: #b8dfde;
      }

      .cls-10 {
        stroke: #cfaa57;
        stroke-width: 2px;
      }

      .cls-11 {
        stroke: #fff;
        stroke-width: 8px;
      }
    </style>
  </defs>
  <rect class="cls-11" x="-5072.58" y="-1177.54" width="6467.34" height="6437.3"/>
  <g id="Titres_catégories" data-name="Titres catégories">
    <g>
      <path class="cls-1" d="m295.22,28.13h.11c.27,0,.55.03.81.08,1.84.38,3.21,1.99,3.21,3.93v9.72h-88.18v-9.72c0-.24.04-.48.08-.72l.04-.19c.04-.18.1-.36.17-.53l.06-.15c.09-.2.19-.4.31-.58l.04-.06.09-.12c.09-.12.19-.24.29-.36l.18-.18c.14-.14.29-.27.46-.38l.06-.04.44-.24c.09-.05.15-.1.24-.14.34-.14.7-.24,1.08-.29.16-.02.32-.03.49-.03h.25v.03h2.42v-.03h4.61v.03h2.42v-.03h4.61v.02h2.42v-.02h4.61v.02h2.42v-.02h4.65v.02h2.42v-.02h4.61v.02h2.42v-.02h4.6v.02h2.42v-.02h35.13Z"/>
      <path class="cls-14" d="m211.17,89.41c0,.56.12,1.08.32,1.56-.2-.48-.32-1.01-.32-1.56Z"/>
      <path class="cls-3" d="m211.17,41.86v47.56c0,.56.12,1.08.32,1.56.1.24.23.47.37.68.28.43.66.79,1.08,1.08.22.14.44.26.68.37.48.2,1.01.32,1.57.32h80.13c.24,0,.48-.03.72-.07l.16-.03c.22-.05.44-.12.65-.2l.11-.05c.18-.08.35-.17.52-.28l.13-.09c.18-.12.35-.26.5-.41l.12-.13c.13-.14.25-.28.36-.43l.08-.1v-.02c.42-.64.67-1.39.67-2.21v-47.54m-84.63,2.93h81.32v44.29h-81.31v-44.29h-.01Z"/>
      <path class="cls-21" d="m216.66,33.26c.11,0,.21-.02.31-.05-.1.03-.2.05-.31.05Z"/>
      <path class="cls-21" d="m217.04,33.19c.09-.03.17-.07.24-.12-.09.05-.16.09-.24.12Z"/>
      <path class="cls-21" d="m217.74,32.59c-.1.19-.25.36-.44.48.19-.12.34-.28.44-.48Z"/>
      <path class="cls-21" d="m223.7,33.26c.11,0,.21-.02.31-.05-.09.03-.2.05-.31.05Z"/>
      <path class="cls-21" d="m224.07,33.19c.09-.03.18-.07.25-.12-.09.05-.16.09-.25.12Z"/>
      <path class="cls-21" d="m231.1,33.19c.09-.03.18-.07.25-.12-.09.05-.16.09-.25.12Z"/>
      <path class="cls-21" d="m231.81,32.59c-.1.19-.25.36-.44.48.18-.12.34-.28.44-.48Z"/>
      <path class="cls-21" d="m230.73,33.26c.11,0,.21-.02.31-.05-.1.03-.2.05-.31.05Z"/>
      <path class="cls-21" d="m238.15,33.19c.09-.03.18-.07.24-.12-.08.05-.16.09-.24.12Z"/>
      <path class="cls-21" d="m237.77,33.26c.11,0,.21-.02.31-.05-.1.03-.21.05-.31.05Z"/>
      <path class="cls-21" d="m236.99,32.97l-.16-.17.16.17Z"/>
      <path class="cls-21" d="m244.84,33.26c.11,0,.21-.02.31-.05-.1.03-.2.05-.31.05Z"/>
      <path class="cls-21" d="m245.22,33.19c.09-.03.18-.07.24-.12-.08.05-.15.09-.24.12Z"/>
      <path class="cls-21" d="m251.11,32.97l-.16-.17.16.17Z"/>
      <path class="cls-21" d="m252.26,33.19c.09-.03.18-.07.24-.12-.08.05-.16.09-.24.12Z"/>
      <path class="cls-21" d="m251.89,33.26c.11,0,.21-.02.31-.05-.09.03-.19.05-.31.05Z"/>
      <path class="cls-21" d="m258.92,33.26c.11,0,.21-.02.31-.05-.09.03-.2.05-.31.05Z"/>
      <path class="cls-21" d="m259.29,33.19c.09-.03.18-.07.24-.12-.08.05-.16.09-.24.12Z"/>
      <path class="cls-21" d="m266.33,33.19c.09-.03.17-.07.24-.12-.08.05-.16.09-.24.12Z"/>
      <path class="cls-21" d="m265.95,33.26c.11,0,.21-.02.31-.05-.1.03-.2.05-.31.05Z"/>
      <path class="cls-21" d="m272.96,33.26c.11,0,.21-.02.31-.05-.1.03-.2.05-.31.05Z"/>
      <path class="cls-21" d="m274.04,32.59c-.1.19-.25.36-.44.48.18-.12.34-.28.44-.48Z"/>
      <path class="cls-21" d="m273.34,33.19c.09-.03.18-.07.24-.12-.08.05-.16.09-.24.12Z"/>
      <path class="cls-21" d="m279.23,32.97l-.16-.17.16.17Z"/>
      <path class="cls-21" d="m280,33.26c.11,0,.21-.02.31-.05-.09.03-.2.05-.31.05Z"/>
      <path class="cls-21" d="m280.38,33.19c.09-.03.18-.07.24-.12-.08.05-.16.09-.24.12Z"/>
      <path class="cls-21" d="m288.04,32.59c-.1.19-.25.36-.44.48.18-.12.34-.28.44-.48Z"/>
      <path class="cls-21" d="m286.96,33.26c.11,0,.21-.02.31-.05-.1.03-.2.05-.31.05Z"/>
      <path class="cls-21" d="m287.34,33.19c.09-.03.18-.07.24-.12-.08.05-.16.09-.24.12Z"/>
      <path class="cls-21" d="m294.01,33.26c.11,0,.21-.02.31-.05-.09.03-.19.05-.31.05Z"/>
      <path class="cls-21" d="m293.22,32.97l-.16-.17.16.17Z"/>
      <path class="cls-21" d="m294.38,33.19c.09-.03.18-.07.24-.12-.08.05-.16.09-.24.12Z"/>
      <path class="cls-2" d="m216.66,25.62c-.13,0-.24.03-.36.07,0,0-.01,0-.02,0-.1.04-.19.08-.28.14-.02,0-.04.02-.05.03-.09.07-.18.14-.24.24l-.02.02c-.07.1-.13.19-.16.31l-.03.06c-.04.11-.06.22-.06.35v5.22c0,.67.55,1.22,1.22,1.22.11,0,.21-.02.31-.05l.08-.02c.09-.03.17-.07.24-.12h.02c.18-.13.34-.29.44-.48.09-.17.13-.35.13-.54v-5.22c0-.67-.54-1.22-1.21-1.22h0Z"/>
      <path class="cls-2" d="m223.7,25.62c-.13,0-.25.03-.36.07,0,0-.01,0-.02,0-.1.04-.19.08-.28.14-.02.02-.04.02-.05.03-.1.07-.18.14-.25.24v.02c-.08.1-.14.19-.17.31l-.03.06c-.04.11-.06.22-.06.35v5.22c0,.67.55,1.22,1.22,1.22.11,0,.21-.02.31-.05l.07-.02c.09-.03.18-.07.25-.12h.02c.09-.07.18-.14.25-.22,0,0,0-.02.01-.02.07-.07.13-.16.17-.24.09-.17.13-.35.13-.54v-5.22c0-.67-.54-1.22-1.21-1.22h.01,0Z"/>
      <path class="cls-2" d="m230.73,25.62c-.13,0-.24.03-.36.07h-.01c-.1.05-.19.09-.29.15-.01.02-.04.02-.05.03-.09.07-.18.14-.24.24l-.02.02c-.06.1-.12.19-.16.31l-.02.06c-.04.11-.06.22-.06.35v5.22c0,.67.55,1.22,1.21,1.22.11,0,.21-.02.31-.05l.07-.02c.09-.03.18-.07.24-.12h.03c.18-.13.34-.29.44-.48.09-.17.13-.35.13-.54v-5.22c0-.67-.55-1.22-1.22-1.22h0Z"/>
      <path class="cls-2" d="m237.77,25.62c-.13,0-.24.03-.36.07h-.01c-.1.05-.2.09-.28.15-.02.02-.04.02-.05.04-.09.07-.18.14-.24.24l-.02.02c-.07.09-.12.19-.16.31l-.02.06c-.04.11-.06.22-.06.35v5.22c0,.29.11.55.27.76l.16.17c.21.18.48.29.77.29.11,0,.21-.02.31-.04l.07-.02c.09-.03.18-.07.24-.12h.03c.09-.07.18-.14.24-.22,0,0,0,0,.01-.02.07-.07.13-.16.18-.24.09-.17.13-.35.13-.55v-5.22c0-.67-.54-1.22-1.21-1.22h0Z"/>
      <path class="cls-2" d="m244.84,25.62c-.13,0-.24.03-.36.07h-.01c-.1.05-.19.09-.29.15-.01.02-.03.02-.05.03-.09.07-.18.14-.24.24l-.02.02c-.06.1-.12.19-.16.31l-.02.06c-.04.11-.06.22-.06.35v5.22c0,.67.55,1.22,1.21,1.22.11,0,.21-.02.31-.05l.07-.02c.09-.03.18-.07.24-.12h.03c.09-.07.18-.14.24-.22,0,0,.01-.02.02-.02.07-.07.13-.16.17-.24.09-.17.13-.35.13-.55v-5.22c0-.67-.54-1.22-1.21-1.22h0Z"/>
      <path class="cls-2" d="m251.89,25.62c-.13,0-.24.03-.36.07,0,0-.01,0-.01,0-.1.04-.2.08-.29.14-.02.02-.04.02-.05.04-.09.07-.18.14-.24.24l-.02.02c-.07.09-.12.19-.16.31l-.02.06c-.04.11-.06.22-.06.35v5.22c0,.29.11.55.27.76l.16.17c.21.18.48.29.77.29.11,0,.21-.02.31-.04l.07-.02c.09-.03.18-.07.24-.12h.03c.09-.07.18-.14.24-.22,0,0,0,0,.01-.02.07-.07.13-.16.18-.24.09-.17.13-.35.13-.55v-5.22c0-.67-.54-1.22-1.21-1.22h.01Z"/>
      <path class="cls-2" d="m258.92,25.62c-.13,0-.24.03-.36.07,0,0-.01,0-.02,0-.1.04-.19.08-.28.14-.02.02-.04.02-.05.04-.09.07-.18.14-.24.24l-.02.02c-.07.09-.13.19-.16.31l-.02.06c-.04.11-.06.23-.06.35v5.22c0,.67.54,1.22,1.21,1.22.11,0,.21-.02.31-.04l.08-.02c.09-.03.18-.07.24-.12h.03c.09-.07.17-.14.24-.22,0,0,0,0,.01-.02.07-.07.12-.16.17-.24.09-.17.14-.35.14-.55v-5.22c0-.67-.55-1.22-1.22-1.22h.01-.01Z"/>
      <path class="cls-2" d="m265.95,25.62c-.13,0-.24.03-.36.07,0,0-.01,0-.02,0-.1.04-.2.09-.28.14-.02,0-.03.02-.05.03-.09.07-.18.14-.24.24l-.02.02c-.07.1-.13.19-.16.31l-.02.06c-.04.11-.06.22-.06.35v5.22c0,.67.54,1.22,1.21,1.22.11,0,.21-.02.31-.05l.08-.02c.09-.03.17-.07.24-.12h.03c.09-.07.17-.14.24-.22,0,0,0,0,.01-.02.06-.07.12-.16.17-.24.09-.17.14-.35.14-.55v-5.22c0-.67-.55-1.22-1.22-1.22h.01-.01Z"/>
      <path class="cls-2" d="m272.96,25.62c-.13,0-.24.03-.36.07h-.01c-.1.05-.19.09-.29.15-.01.02-.04.02-.05.03-.09.07-.18.14-.24.24l-.02.02c-.06.1-.12.19-.16.31l-.02.06c-.04.11-.06.22-.06.35v5.22c0,.67.54,1.22,1.21,1.22.11,0,.21-.02.31-.05l.07-.02c.09-.03.18-.07.24-.12h.03c.18-.13.34-.29.44-.48.09-.17.13-.35.13-.54v-5.22c0-.67-.55-1.22-1.22-1.22h0Z"/>
      <path class="cls-2" d="m280,25.62c-.13,0-.24.03-.36.07,0,0-.01,0-.01,0-.11.04-.2.08-.29.14-.02.02-.03.02-.05.03-.09.07-.18.14-.24.24l-.02.02c-.07.1-.12.19-.16.31l-.02.06c-.04.11-.06.22-.06.35v5.22c0,.29.11.55.27.76l.16.17c.21.18.48.29.77.29.11,0,.21-.02.31-.05l.08-.02c.09-.03.18-.07.24-.12h.03c.09-.07.18-.14.24-.22,0,0,.01-.02.02-.02.07-.07.12-.16.17-.24.09-.17.13-.35.13-.55v-5.22c0-.67-.55-1.22-1.21-1.22h.01Z"/>
      <path class="cls-2" d="m286.96,25.62c-.13,0-.24.03-.36.07h-.01c-.1.05-.2.1-.29.15-.01.02-.03.02-.05.03-.09.07-.18.14-.24.24l-.02.02c-.06.1-.12.19-.16.31l-.02.06c-.04.11-.06.22-.06.35v5.22c0,.67.54,1.22,1.21,1.22.11,0,.21-.02.31-.05l.07-.02c.09-.03.18-.07.24-.12h.03c.18-.13.34-.29.44-.48.09-.17.13-.35.13-.54v-5.22c0-.67-.55-1.22-1.22-1.22h0Z"/>
      <path class="cls-2" d="m294,25.62c-.13,0-.24.03-.36.07,0,0-.01,0-.01,0-.1.04-.2.08-.29.14-.01,0-.03.02-.05.03-.09.07-.18.14-.24.24l-.02.02c-.06.1-.12.19-.16.31l-.02.06c-.04.11-.06.22-.06.35v5.22c0,.29.11.55.28.76l.15.17c.21.18.48.29.77.29.11,0,.21-.02.31-.05l.07-.02c.09-.03.18-.07.24-.12h.03c.09-.07.18-.14.24-.22,0,0,0,0,.01-.02.07-.07.13-.16.18-.24.09-.17.13-.35.13-.55v-5.22c0-.67-.54-1.22-1.21-1.22h.01,0Z"/>
      <path class="cls-19" d="m243.63,54.98c1.22,0,2.21-.99,2.21-2.21s-2.21-3.91-2.21-3.91c0,0-2.21,2.68-2.21,3.91s.99,2.21,2.21,2.21Z"/>
      <path class="cls-19" d="m255.37,65.14c1.22,0,2.21-.99,2.21-2.21s-2.21-3.91-2.21-3.91c0,0-2.21,2.69-2.21,3.91s.99,2.21,2.21,2.21Z"/>
      <path class="cls-19" d="m232.17,85.3c1.22,0,2.21-.99,2.21-2.21s-2.21-3.91-2.21-3.91c0,0-2.21,2.69-2.21,3.91s.99,2.21,2.21,2.21Z"/>
      <path class="cls-19" d="m243.57,85.3c1.22,0,2.21-.99,2.21-2.21s-2.21-3.91-2.21-3.91c0,0-2.21,2.69-2.21,3.91s.99,2.21,2.21,2.21Z"/>
      <path class="cls-19" d="m255.26,85.3c1.22,0,2.21-.99,2.21-2.21s-2.21-3.91-2.21-3.91c0,0-2.21,2.69-2.21,3.91s.99,2.21,2.21,2.21Z"/>
      <path class="cls-19" d="m266.98,85.3c1.23,0,2.21-.99,2.21-2.21s-2.21-3.91-2.21-3.91c0,0-2.21,2.69-2.21,3.91s.99,2.21,2.21,2.21Z"/>
      <path class="cls-19" d="m278.75,85.3c1.23,0,2.21-.99,2.21-2.21s-2.21-3.91-2.21-3.91c0,0-2.21,2.69-2.21,3.91s.99,2.21,2.21,2.21Z"/>
      <path class="cls-19" d="m289.96,85.3c1.23,0,2.22-.99,2.22-2.21s-2.22-3.91-2.22-3.91c0,0-2.21,2.69-2.21,3.91s.99,2.21,2.21,2.21Z"/>
      <path class="cls-19" d="m278.75,54.98c1.23,0,2.21-.99,2.21-2.21s-2.21-3.91-2.21-3.91c0,0-2.21,2.68-2.21,3.91s.99,2.21,2.21,2.21Z"/>
      <path class="cls-3" d="m284.64,89.07v-44.29"/>
      <path class="cls-3" d="m261.1,89.07v-44.29"/>
      <path class="cls-3" d="m272.86,89.07v-44.29"/>
      <path class="cls-3" d="m249.43,89.07v-44.29"/>
      <path class="cls-3" d="m237.73,89.07v-44.29"/>
      <path class="cls-3" d="m226.52,89.07v-44.29"/>
      <path class="cls-3" d="m295.65,67.11h-80.95"/>
      <path class="cls-3" d="m295.65,57.05h-80.95"/>
      <path class="cls-3" d="m295.85,77.18h-80.96"/>
      <path class="cls-3" d="m295.85,46.79h-80.96"/>
      <path class="cls-3" d="m295.74,87.3h-80.96"/>
      <path class="cls-6" d="m208.86,63.76c7.21,0,13.06-5.84,13.06-13.05s-5.85-13.05-13.06-13.05-13.07,5.84-13.07,13.05,5.85,13.05,13.07,13.05Z"/>
      <path class="cls-5" d="m203.39,45.53c.52-1.15,1.49-1.97,2.91-2.47,1.32-.45,2.51-.45,3.55.02,1.05.47,1.79,1.28,2.18,2.44.25.7.31,1.32.16,1.85-.13.53-.5,1.38-1.1,2.54-.43.84-.67,1.51-.72,2-.03.32.01.72.13,1.18s-.14.94-.6,1.1c-.52.18-1.08-.13-1.22-.67-.13-.53-.18-1-.17-1.42.03-.66.29-1.49.81-2.51l.53-1.06c.17-.31.28-.62.35-.91.12-.53.11-1.02-.05-1.48-.23-.65-.62-1.14-1.18-1.47-.56-.34-1.3-.35-2.21-.03-1.13.39-1.76,1.07-1.91,2.04-.06.37-.04.82.08,1.34.09.46-.18.91-.61,1.06-.55.19-1.13-.15-1.24-.72-.18-1.01-.08-1.95.31-2.81h0Zm7.24,10.68c.55-.19,1.13.1,1.34.65l.03.09c.18.54-.1,1.13-.65,1.33-.54.19-1.13-.1-1.33-.65l-.03-.09c-.19-.54.1-1.13.64-1.33h0Z"/>
      <g>
        <path class="cls-20" d="m300.54,69.16h-10.18c-1.14,0-2.08.93-2.08,2.08v10.18c0,1.14.93,2.08,2.08,2.08h10.18c1.14,0,2.08-.93,2.08-2.08v-10.18c0-1.14-.93-2.08-2.08-2.08Z"/>
        <path class="cls-3" d="m302.62,75.19v6.29c0,1.11-.91,2.02-2.02,2.02h-10.31c-1.11,0-2.02-.91-2.02-2.02v-10.31c0-1.11.91-2.02,2.02-2.02h10.31"/>
        <path class="cls-3" d="m290.27,73.39l5.19,7.44,8.74-11.66"/>
      </g>
    </g>
    <g>
      <g>
        <path class="cls-8" d="m72.93,90.67h45.71c1.4,0,2.68-.78,3.33-2.01,2.71-5.13,10.64-18.87,21.93-26.79,2.84-2,1.8-6.43-1.65-6.84-11.3-1.34-28.9-1.26-41.79,8.82-12.35,9.68-25.14,9.49-33.35,7.81-3.18-.65-5.65,2.72-4.04,5.53l6.6,11.57c.67,1.17,1.91,1.89,3.27,1.89h0s0,.01,0,.01Z"/>
        <path class="cls-7" d="m71.45,77.57c-6.22,0-10.85-.86-11.93-1.08-2.17-.44-3.57-2.57-3.13-4.73.44-2.17,2.56-3.57,4.73-3.13,7.92,1.62,24.23,2.09,35.1-6.42,15.35-12.03,41.69-9.99,49.4-9.07,2.2.26,3.77,2.26,3.51,4.46s-2.25,3.78-4.46,3.52c-14.29-1.68-33.22-.63-43.5,7.43-9.42,7.38-21.1,9.05-29.73,9.05h0v-.02Z"/>
        <path class="cls-9" d="m62.57,68.89s1.04-5.25,8.39-4.52c0,0,5.3-6.18,11.48-2.79,0,0,5.59-6.78,12.51-2.73,0,0,3.81-5.66,12.58-2.64"/>
        <path class="cls-9" d="m87.33,49.53c1.27,0,2.29-1.03,2.29-2.29s-1.03-2.29-2.29-2.29-2.29,1.03-2.29,2.29,1.03,2.29,2.29,2.29Z"/>
        <path class="cls-9" d="m95.96,43.15c.64,0,1.15-.51,1.15-1.15s-.51-1.15-1.15-1.15-1.15.51-1.15,1.15.51,1.15,1.15,1.15Z"/>
        <path class="cls-9" d="m88.47,35.21c.64,0,1.15-.51,1.15-1.15s-.51-1.15-1.15-1.15-1.15.51-1.15,1.15.51,1.15,1.15,1.15Z"/>
        <path class="cls-4" d="m136.41,45.97h-9.47l-.07.05c.06-.21.1-.42.1-.65,0-1.23-.99-2.22-2.22-2.22s-2.16.94-2.21,2.13l-1.31.86,1.67.45c.4.61,1.07,1,1.85,1-.02.91.22,4.69,5.43,4.69,7.37,0,6.24-6.31,6.24-6.31h-.01,0Z"/>
        <path class="cls-13" d="m127.92,47.96h4.96s.11,2.28-2.48,2.35"/>
        <path class="cls-3" d="m127.92,47.96h4.96s.11,2.28-2.48,2.35"/>
      </g>
      <g>
        <path class="cls-12" d="m20.33,76.95l-3.92,3.3,4.45,3.43-.75-2.27,2.79,2.15.63-.06-1.67-2.08,2.33,1.8.97.58.32-.77-2.7-2.64.23-.29,2.32,1.94.9.73.51-.5-1.62-1.95,1.34-.2v-.53l-2.92-.27-1.97-1.21-1.25-1.15h0Z"/>
        <path class="cls-12" d="m38.92,69.24l-3.32,1.87v1.69l5.94-1.67-2.62-1.89h0Z"/>
        <path class="cls-2" d="m33.88,94.37c-4.89-3.32-24.55-.34-27.86-7.85-3.3-7.51,2.95-10.74,2.95-10.74,0,0,1.06,1.42,3.11,2.58,2.04,1.16,3.77,1.85,4.7,2.6,2.33,1.95,5.27,4.59,4.66,2.92-.16-.43-.33-.8-.51-1.08l.84.38h.01c.82.53,1.85,1.13,2.18.96.78.38,1.58.76,2.38,1.12,2.55,1.17,5.06,2.14,6.85,2.21.19,0,.78.37,1.34.73.41.26.78.53.94.63.22.14.44.32.69.51,4.47,3.4,2.61,8.35-2.29,5.04h.01s.01-.02.01-.02Z"/>
        <path class="cls-3" d="m20.86,82.65c.07.04.14.07.22.1.09.05.18.08.26.12"/>
        <path class="cls-3" d="m26.72,82.86c-.41.25-.7.22-1,0,.32,2.12-1.65.74-1.79.64.11.18.18.36.14.51-.01.07-.05.11-.1.13-.33.17-1.36-.42-2.18-.96h-.01c-.17-.11-.32-.21-.45-.31-.33-.22-.57-.41-.62-.43.05.07.09.13.13.21.04.05.07.1.09.16.18.29.35.65.51,1.08.61,1.67-4.82-3.06-4.89-3.12-.22-.19-.47-.38-.71-.56l4.57-3.7.08.11c1.29,1.56,2.47,2.74,4.09,2.63,3.59-.22,2.26,1.72.68.98.24.17,2.66,1.83,1.44,2.62h.02Z"/>
        <path class="cls-3" d="m19.93,81.63s.37.21.77.81"/>
        <path class="cls-3" d="m34.9,62.71c.61,1.69,1.16,3,1.8,4.06.75,1.24,1.64,2.15,2.87,2.92,3.22,2.01,4.73,4.34,2.6,4.56"/>
        <path class="cls-3" d="m8.82,75.39c-6.93-5.59-1.76-19.63-1.76-19.63,2.84-6.77,8.14-5.95,8.91-7.96"/>
        <path class="cls-3" d="m22.78,80.24c1.68.78,2.3,2.13,2.95,2.61"/>
        <path class="cls-3" d="m25.28,80.22s-.01-.01-.02-.01"/>
        <path class="cls-3" d="m21.85,81.62s1.57,1.04,2.06,1.87"/>
        <path class="cls-3" d="m19.64,75.57h-.01"/>
        <path class="cls-3" d="m17.78,73.53h-.02"/>
        <path class="cls-2" d="m32.86,68.61s-.93,2.11.52,5.5c0,0,4.38,9.07,1.16,14.08,0,0,0,.01-.01.02-2.78-1.64-2.92-.07-6.39-1.98-.72-.39-1.29-.72-1.78-.99l-2.28-1.26c.04-.14-.04-.32-.14-.51.14.11,2.13,1.47,1.79-.64.3.22.58.25,1,0,1.23-.8-1.18-2.47-1.44-2.62,1.58.76,2.92-1.19-.68-.98-1.64.1-2.8-1.08-4.09-2.63l-.08-.11-4.57,3.7s-4.25-1.87-5.89-3.4c0,0-1.72-1.74-2.79-3.06-4.9-6.08-.34-19.97,1.87-22.07,2.21-2.1,6.92-3.89,6.92-3.89,4.53,1.55,8.36.85,9.12.12.04-.03,0,.04,0,0-.02-.09,1.7.23,5.64,3h.01c.09.07.18.13.26.2.06.05.11.1.18.17,3.93,3.57,7.85,17.43,7.85,17.43-.04.07-.11.14-.21.24-.91.83-4.24,2.45-4.24,2.45l-1.74-2.8v.02h0Z"/>
        <path class="cls-3" d="m35.41,71.57s-.62,6.44.74,4.77c1.36-1.67.85-4.15,2.68-2.09,1.83,2.06,1.49,3.41,2.21,2.07.72-1.34-.69-3.06-.69-3.06"/>
        <path class="cls-3" d="m41.69,75.19s3.41,3.74,1.88.31l-1.2-1.84"/>
        <path class="cls-12" d="m39.25,88.6c-1.44.43-1.98,1.33-1.98,1.33.78.9,1.64,2.6,1.53,3.62-.25,2.28,12.86-.77,10.36-5-1.26-2.14-6.78-.81-6.78-.81"/>
        <path class="cls-3" d="m39.25,88.6c-1.44.43-1.98,1.33-1.98,1.33.78.9,1.64,2.6,1.53,3.62-.25,2.28,12.86-.77,10.36-5-1.26-2.14-6.78-.81-6.78-.81"/>
        <path class="cls-12" d="m41.26,78.53s-2.61-.58-2.82,4.9c-.06,1.37,0,5.52,0,5.52,0,0,3.49-1.38,6.73-1.59,0,0,3.2-5.31,4.05-11.75.85-6.44-6.46-4.55-6.46-4.55l-9.58,2.55s4.31,8.83,1.35,14.59l.93.63s1.47-1.23,2.71-3.03"/>
        <path class="cls-3" d="m41.26,78.53s-2.61-.58-2.82,4.9c-.06,1.37,0,5.52,0,5.52,0,0,3.49-1.38,6.73-1.59,0,0,3.2-5.31,4.05-11.75.85-6.44-6.46-4.55-6.46-4.55l-9.58,2.55s4.31,8.83,1.35,14.59l.93.63s1.47-1.23,2.71-3.03"/>
        <path class="cls-18" d="m32.86,68.61c-1.28-2.33-3.27-7.24-4.55-9.69l4.55,9.69Z"/>
        <path class="cls-3" d="m32.86,68.61c-1.28-2.33-3.27-7.24-4.55-9.69"/>
        <path class="cls-3" d="m13.78,56.69s.53,9.81.03,14.01c0,0,.75-.2,3.69,2.56.09.08,1.31,1.25,1.39,1.34l1.6,2.01"/>
        <path class="cls-17" d="m29.92,46.09h-.02v-.02.02h.02Z"/>
        <path class="cls-12" d="m16.22,47.46c.77-2.01,0-7.59,0-7.59-5.08-7.57-3.18-13.66,1.34-17.07,4.52-3.41,14.35-5.98,20.12,3.54,5.77,9.51-2.81,13.6-2.81,13.6,0,0-.8,1.22.09,2.24.88,1.02-1.36,1.75-1.36,1.75,0,0-1.2,4.05-3.77,5.35,0,0-1.44.78-3.05.35-1.62-.43-3.2-1.82-3.2-1.82"/>
        <path class="cls-3" d="m16.22,47.46c.77-2.01,0-7.59,0-7.59-5.08-7.57-3.18-13.66,1.34-17.07,4.52-3.41,14.35-5.98,20.12,3.54,5.77,9.51-2.81,13.6-2.81,13.6,0,0-.8,1.22.09,2.24.88,1.02-1.36,1.75-1.36,1.75,0,0-1.2,4.05-3.77,5.35,0,0-1.44.78-3.05.35-1.62-.43-3.2-1.82-3.2-1.82"/>
        <path class="cls-3" d="m21.9,34.73s-2.85-1.43-3.38,1.57c-.53,2.99,2.11,2.54,2.11,2.54"/>
        <path class="cls-15" d="m31.92,40.76c.39,0,.7-.31.7-.7s-.31-.7-.7-.7-.7.31-.7.7.31.7.7.7Z"/>
        <path class="cls-3" d="m31.1,37.64s1.41-1.14,2.68.27"/>
        <path class="cls-3" d="m20.31,36.46l.63.22"/>
        <path class="cls-17" d="m27.3,41.24c.81,0,1.47-.66,1.47-1.47s-.66-1.47-1.47-1.47-1.47.66-1.47,1.47.66,1.47,1.47,1.47Z"/>
        <path class="cls-16" d="m29.91,46.07c-.43.31-1.12.33-1.75-.19-.51-.42-.7-.88-.76-1.27h.02s.05,0,.08-.01c.07,0,.16-.03.27-.04h.13c.09,0,.18,0,.27.01.2.03.42.09.64.21.06.04.11.06.17.1.04.02.08.05.12.09.3.22.58.57.81,1.11h-.01s0-.01,0-.01Z"/>
        <path class="cls-17" d="m29.91,46.07c-.22-.53-.51-.87-.81-1.11-.04-.03-.08-.07-.12-.09-.06-.05-.11-.07-.17-.1-.22-.12-.44-.18-.64-.21-.1-.01-.19-.03-.27-.01h-.13c-.12,0-.21.02-.27.03-.03,0-.07,0-.08.01h-.03c-.09-.54.09-.95.09-.95.8-1.14,2.34.54,2.34.54.78.7.63,1.51.09,1.87h0s0,.01,0,.01Z"/>
        <path class="cls-9" d="m29.78,44.24s-1.55-1.68-2.34-.54c0,0-.18.41-.09.95.07.4.25.85.76,1.27.62.53,1.31.5,1.75.19.54-.38.7-1.17-.09-1.87h.01Z"/>
        <path class="cls-3" d="m39.66,33.02s-6.2,2.43-10.59-1.32c0,0-1.67,3.33-5.51,1.12"/>
      </g>
    </g>
    <g>
      <path class="cls-10" d="m182.65,71.28c1.23-.83,3.31-2.03,4.6-2.75-1.55-.97-2.6-1.86-4.16-2.83"/>
      <line class="cls-10" x1="160.38" y1="68.25" x2="185.59" y2="68.25"/>
    </g>
  </g>
</svg>