<?xml version="1.0" encoding="UTF-8"?>
<svg id="Calque_1" data-name="Calque 1" xmlns="http://www.w3.org/2000/svg" viewBox="0 0 128 128">
  <defs>
    <style>
      .cls-1 {
        fill: #87ccf3;
      }

      .cls-1, .cls-2, .cls-3, .cls-4, .cls-5, .cls-6, .cls-7, .cls-8 {
        stroke: #000;
      }

      .cls-1, .cls-2, .cls-3, .cls-4, .cls-5, .cls-6, .cls-9 {
        stroke-linecap: round;
        stroke-linejoin: round;
      }

      .cls-2, .cls-10 {
        fill: #b2f0e9;
      }

      .cls-3 {
        fill: #bfe6fc;
      }

      .cls-4, .cls-8 {
        fill: #fff;
      }

      .cls-5, .cls-6, .cls-9, .cls-11 {
        fill: none;
      }

      .cls-6 {
        stroke-width: .75px;
      }

      .cls-7, .cls-8, .cls-11 {
        stroke-miterlimit: 10;
      }

      .cls-12 {
        fill: #f6e7d4;
      }

      .cls-13 {
        fill: #dbc5b1;
      }

      .cls-14 {
        fill: #dfdfe0;
      }

      .cls-9 {
        stroke: #fff;
        stroke-width: 8px;
      }

      .cls-11 {
        stroke: #8987f3;
      }
    </style>
  </defs>
  <path class="cls-6" d="m22.88,25.48c2.11-2.67,7.53-3.2,10.95-1.23"/>
  <g>
    <path class="cls-4" d="m13.52,74.64l-.81,4.84c-.04.27-.29.46-.56.43h0c-.27-.03-.48-.27-.46-.55l.15-2.35,1.68-2.37Z"/>
    <path class="cls-4" d="m15.9,73.47c-.4,1.49-.41,2.51-.38,3.05.03.29-.16.55-.43.61-.04.01-.1.02-.14.02-.24,0-.47-.16-.54-.41-.17-.56-.39-1.53-.34-2.62l-.69,1.4-1.65,3.37-.31.63c-.12.24-.41.34-.64.2-.14-.08-.22-.23-.22-.39,0-.02.01-.05.01-.07l1.1-6.9s.4-2.48.52-4.22c0-.03.01-.07.01-.11,0-.01,0-.02.01-.04.07-.5.37-.94.86-1.11.72-.26,1.5.12,1.74.84l.04.12.07.23.28.82s1.35,2.19.7,4.59Z"/>
  </g>
  <path class="cls-2" d="m23.58,125.95l-9.36.12c-.69,0-1.26-.54-1.28-1.23h0c-.01-.48.25-.92.67-1.15l7.96-4.26c.18-.1.39-.15.6-.15h4.06c.59,0,1.1.41,1.23.99l.78,3.49c.02.08.03.16.03.24l.02.61c.02.7-.54,1.29-1.25,1.29l-1.61.02-1.85.02Z"/>
  <rect class="cls-4" x="21.74" y="111.67" width="5.5" height="7.62"/>
  <polygon class="cls-4" points="39.76 111.67 34.25 111.67 34.63 119.28 40.13 119.28 39.76 111.67"/>
  <path class="cls-1" d="m37.94,56.93c.36,3.82,2.9,59.43,2.9,59.43h-7.43l-3.26-49.96-1.34.03-.87,49.93h-7.42s-.41-51.96.03-59.31l17.39-.12Z"/>
  <path class="cls-2" d="m38.29,125.96l9.36.12c.69,0,1.26-.54,1.28-1.23h0c.01-.48-.25-.92-.67-1.15l-7.96-4.26c-.18-.1-.39-.15-.6-.15h-4.06c-.59,0-1.1.41-1.23.99l-.78,3.49c-.02.08-.03.16-.03.24l-.02.61c-.02.7.54,1.29,1.25,1.29l1.61.02,1.85.02Z"/>
  <g>
    <polygon class="cls-2" points="35.83 28.41 35.83 57.23 22.49 57.23 22.49 29.65 24.68 25.54 27.04 29.65 29.41 27.24 31.79 29.65 33.68 25.54 35.83 28.41"/>
    <g>
      <polygon class="cls-2" points="29.41 27.24 27.04 29.65 24.68 25.54 26.28 24.58 27.4 25.54 29.41 27.24"/>
      <polygon class="cls-2" points="33.68 25.54 31.79 29.65 29.41 27.24 31.1 25.54 32.08 24.54 33.68 25.54"/>
    </g>
  </g>
  <path class="cls-4" d="m41.75,48.62c.56.76.74,1.69.78,2.31l-.78-2.31Z"/>
  <path class="cls-4" d="m46.32,39.26l-4.8,7.69-.11.1-.16.15-.05-.15-1.74-5.06.15,5.06v.43s-.57-.05-.57-.05l-.32,1.5-.54,2.54-.49,2.32,2.12.15.79,27.27h-7.96l.58-31.2.03-1.92-.29,1.22.11-2.83v-.25s.14-3.46.14-3.46l.26-7.15.19-10.07,4.82,2.03c.95.22,4.31,1.46,6.66,7.92.17.48.34.97.5,1.51.23.77.44,1.51.66,2.25Z"/>
  <path class="cls-4" d="m18.5,81.2l.41-27.12-2.13,14.04-1.86-.05h-.13l-2.58-.07h-.01l-2.02-.05s2.45-19.73,3.54-29.47c1.05-9.4,5.59-10.67,5.59-10.67l5.37-2.27.76,23.76h0s1.02,31.91,1.02,31.91h-7.96Z"/>
  <polygon class="cls-1" points="49.12 34.76 46.32 39.26 41.52 46.95 41.42 47.04 41.26 47.19 41.2 47.04 39.61 47.04 39.63 47.48 39.04 47.42 38.72 48.93 36.6 49.31 33.09 46.48 33.05 46.45 33.1 46.23 33.7 43.57 36.75 37.05 45.17 35.5 49.12 34.76"/>
  <path class="cls-4" d="m41.2,47.04h-1.59l-.57.38-.32,1.5-.54,2.54-.49,2.32,2.12.15,6.27.46c.26.04.51.04.75-.01,1.68-.37,2.29-2.99,1.97-4.67-.44-2.37-1.23-6-2.49-10.46l-4.8,7.69-.11.1h-.21Z"/>
  <path class="cls-4" d="m36.45,47.15l2.6.28-.32,1.5-.54,2.54c-2.18-.3-3.5-.83-3.5-.83l-1.45-.64-1.66-.72c-.76-.4-1.24-1.19-1.24-2.04v-.61c0-.48.15-.95.43-1.35l.63-1.37c.44-.6,1.09-1.03,1.83-1.15.02,0,.04-.01.06-.01l.82-.08-.4.9c4.03.42,2.74,3.58,2.74,3.58Z"/>
  <path class="cls-5" d="m28.61,3.62s0,1.14-.41,1.9h-.01"/>
  <path class="cls-5" d="m26.41,6c-.9-.52-1.51-1.84-1.51-1.84"/>
  <path class="cls-5" d="m23.57,16.44h-.01c-.11-.02-.84-.21-1.27-1.38-.47-1.26-1.01-1.11-1.05-2.41-.03-1.23,1.24-.7,1.38-.62"/>
  <path class="cls-5" d="m33.96,5.23s-.88.52-1.86.7"/>
  <path class="cls-4" d="m35.22,11.01c.02.72.03,2.58-.26,4.5-.25,1.6-.73,3.25-1.61,4.31-.62.75-1.17,1.28-1.65,1.66-1.08.84-1.76.86-1.9.85-.16.04-1.08.18-2.66-.85-.4-.26-.84-.6-1.33-1.03-1.03-.92-1.76-2.47-2.25-4.01-.59-1.86-.87-3.7-.95-4.42h.01c-.02-.08-.03-.16-.02-.25.02.07.05.11.05.11-.03-.3-.03-.6-.02-.89.19-1.5,1.56-3.97,1.72-4.39l.2-.04c.56.03,1.21-.1,1.86-.56.27.17.56.25.86.22.43-.05.72-.34.92-.7.01.01.02.02.03.02.13.12.9.8,1.86-.13.51.6,1.3.66,2.03.52.44.34,1.04.31,1.04.31.03.05.08.1.1.15,1.8,2.54,1.97,4.26,1.99,4.45.11-.45.19-.88.25-1.29-.1.76-.24,1.31-.27,1.43h0s-.01.03-.01.03h.01Z"/>
  <path class="cls-5" d="m22.63,10.99c-.04.28-.05.54-.03.78"/>
  <path class="cls-5" d="m22.61,12.02s0-.01-.01-.02h0c-.06-.15-.39-.88-.61-1.88v-.03c-.45-1.99-.46-5,2.85-6.34,0,0,.2-1.09,1.6-.92,0,0,1.62-1.77,3.57-.32,1.36-.38,1.73.66,1.73.66,3.74.88,3.98,4.25,3.76,6.26,0,.04-.01.07-.01.1"/>
  <path class="cls-5" d="m33.28,6.6s1.92,2.8,1.92,4.41"/>
  <path class="cls-5" d="m22.57,11.72h0s0,.13.03.28h0s0,.03,0,.03"/>
  <path class="cls-5" d="m35.22,11.01v-.02"/>
  <path class="cls-5" d="m35.2,10.7s0,.1.01.28"/>
  <path class="cls-5" d="m34.95,15.51h.01c.1-.04.8-.34,1.05-1.56.27-1.31.82-1.25.67-2.54-.16-1.22-1.33-.5-1.46-.4"/>
  <path class="cls-5" d="m30.87,4.3c-.24.45-.49.79-.72,1.03-.03.03-.05.07-.08.08"/>
  <path class="cls-5" d="m28.22,5.54l-.02-.02"/>
  <path class="cls-4" d="m29.52,10.85s.43,3.87,1.27,5.81c0,0-.16.4-1.42.15"/>
  <ellipse class="cls-4" cx="26.92" cy="12.7" rx=".13" ry=".39" transform="translate(-.9 2.12) rotate(-4.42)"/>
  <ellipse class="cls-4" cx="32.25" cy="12.19" rx=".13" ry=".39" transform="translate(-.84 2.52) rotate(-4.42)"/>
  <path class="cls-6" d="m19.04,38.96c-.63-.1-2.6-.21-2.49-1.77.11-1.55,2.52-6.37,4.5-6.26s3.47,7.85,2.43,8.1-2.22.06-2.22.06"/>
  <path class="cls-6" d="m18.8,32.38s2.01-4.01,2.46-3.98c.56.04,1.72,5.07,1.72,5.07"/>
  <path class="cls-4" d="m32.09,24.54l-2.49,2.56-3.32-2.52.86-3.1c1.58,1.03,2.5.89,2.66.85.14.01.82-.01,1.9-.85l.39,3.06Z"/>
  <path class="cls-6" d="m33.65,24.14c4.82,2.82,3.48,8.59,3.48,8.59"/>
  <path class="cls-6" d="m21.01,28.68c.11-.46,1.56-3.04,2.43-3.8"/>
  <circle class="cls-6" cx="37.13" cy="34.17" r="1.48"/>
  <ellipse class="cls-6" cx="19.04" cy="38.86" rx=".44" ry=".51"/>
  <ellipse class="cls-6" cx="21.44" cy="39.07" rx=".44" ry=".51"/>
  <rect class="cls-4" x="58.43" y="58.43" width="61.76" height="33.66"/>
  <rect class="cls-10" x="102.87" y="83.07" width="8.88" height="7.65"/>
  <g>
    <line class="cls-11" x1="105.34" y1="85.36" x2="109.28" y2="88.85"/>
    <line class="cls-11" x1="109.28" y1="85.36" x2="105.34" y2="88.85"/>
  </g>
  <path class="cls-12" d="m120.91,95.13l-.08.04.08-.04Z"/>
  <path class="cls-12" d="m120.33,95.32l-.12.02.12-.02Z"/>
  <path class="cls-4" d="m55.75,56.2v36.15c0,.42.08.82.24,1.19.07.18.17.36.28.52.22.32.5.6.82.82.17.11.34.21.52.28.37.16.77.24,1.19.24h60.87c.19,0,.37-.02.55-.05l.12-.03c.18-.04.34-.08.5-.15l.08-.04c.13-.06.27-.13.39-.21l.1-.06c.13-.1.26-.2.38-.31l.1-.1c.1-.11.19-.21.27-.33l.06-.08h0c.31-.48.5-1.06.5-1.68v-36.15H55.75Zm64.45,35.89h-61.76v-33.66h61.76v33.66Z"/>
  <rect class="cls-10" x="93.84" y="67.68" width="8.88" height="7.65"/>
  <rect class="cls-10" x="93.84" y="82.86" width="8.88" height="7.65"/>
  <rect class="cls-10" x="75.92" y="75.4" width="8.88" height="7.65"/>
  <path class="cls-3" d="m119.58,45.76h.08c.21,0,.42.02.62.06,1.39.29,2.44,1.52,2.44,2.99v7.39H55.75v-7.39c0-.19.02-.37.06-.55l.03-.15c.03-.14.07-.27.13-.4l.04-.12c.07-.15.15-.3.24-.44l.02-.04.07-.09c.07-.1.15-.19.23-.28l.13-.14c.11-.1.23-.2.35-.29l.04-.04.33-.18c.06-.03.12-.07.19-.1.26-.11.53-.18.82-.22.12-.01.24-.02.37-.02h.19v.02h1.84v-.02h3.5v.02h1.84v-.02h3.5v.02h1.84v-.02h3.5v.02h1.84v-.02h3.53s1.84.01,1.84.01h0s3.5-.01,3.5-.01h0s1.84.01,1.84.01h0s3.5-.01,3.5-.01h0s1.84,0,1.84,0h0s3.5,0,3.5,0h0s1.84,0,1.84,0h0s3.48,0,3.48,0h0s1.84,0,1.84,0h0s3.5,0,3.5,0h0s1.84,0,1.84,0h0s3.45,0,3.45,0h0s1.84,0,1.84,0h0s3.5,0,3.5,0h0s1.4,0,1.4,0h.45Z"/>
  <polygon class="cls-12" points="57.09 46.29 57.05 46.32 57.05 46.32 57.09 46.29"/>
  <path class="cls-12" d="m55.75,92.35c0,.42.09.82.24,1.19-.15-.37-.24-.77-.24-1.19Z"/>
  <path class="cls-12" d="m122.21,94.03l-.06.08.06-.08Z"/>
  <path class="cls-12" d="m121.88,94.44l-.09.1.09-.1Z"/>
  <path class="cls-12" d="m58.8,95.4h0c-.42,0-.82-.09-1.19-.24.36.15.77.24,1.19.24Z"/>
  <polygon class="cls-12" points="121.3 94.91 121.39 94.86 121.4 94.85 121.3 94.91"/>
  <path class="cls-12" d="m56.27,94.05c.19.29.44.53.72.74l.1.09c-.33-.22-.61-.5-.82-.82Z"/>
  <path class="cls-14" d="m59.92,49.67c.08,0,.16-.01.23-.03-.07.02-.15.03-.23.03Z"/>
  <path class="cls-14" d="m60.2,49.62c.07-.02.13-.05.19-.09-.06.04-.12.06-.19.09Z"/>
  <path class="cls-14" d="m60.73,49.16c-.08.15-.19.27-.33.36.14-.09.25-.21.33-.36Z"/>
  <path class="cls-14" d="m65.26,49.67c.08,0,.16-.01.23-.03-.07.02-.15.03-.23.03Z"/>
  <path class="cls-14" d="m65.55,49.62c.07-.02.13-.05.19-.09-.06.04-.12.06-.19.09Z"/>
  <path class="cls-14" d="m70.89,49.62c.07-.02.13-.05.19-.09-.06.04-.12.06-.19.09Z"/>
  <path class="cls-14" d="m71.42,49.16c-.08.15-.19.27-.33.36.14-.09.25-.21.33-.36Z"/>
  <path class="cls-14" d="m70.61,49.67c.08,0,.16-.01.23-.03-.07.02-.15.03-.23.03Z"/>
  <path class="cls-14" d="m76.24,49.62c.07-.02.13-.05.19-.09-.06.04-.12.06-.19.09Z"/>
  <path class="cls-14" d="m75.95,49.67c.08,0,.16-.01.23-.03-.07.02-.15.03-.23.03Z"/>
  <path class="cls-14" d="m75.36,49.45l-.12-.13.12.13Z"/>
  <path class="cls-14" d="m81.33,49.67c.08,0,.16-.01.23-.03-.07.02-.15.03-.23.03Z"/>
  <path class="cls-14" d="m81.61,49.62c.07-.02.13-.05.19-.09-.06.04-.12.06-.19.09Z"/>
  <path class="cls-14" d="m86.08,49.45l-.12-.13.12.13Z"/>
  <path class="cls-14" d="m86.96,49.62c.07-.02.13-.05.19-.09-.06.04-.12.06-.19.09Z"/>
  <path class="cls-14" d="m86.67,49.67c.08,0,.16-.01.23-.03-.07.02-.15.03-.23.03Z"/>
  <path class="cls-14" d="m92.01,49.67c.08,0,.16-.01.23-.03-.07.02-.15.03-.23.03Z"/>
  <path class="cls-14" d="m92.3,49.62c.07-.02.13-.05.19-.09-.06.04-.12.06-.19.09Z"/>
  <path class="cls-14" d="m97.64,49.62c.07-.02.13-.05.19-.09-.06.04-.12.06-.19.09Z"/>
  <path class="cls-14" d="m97.36,49.67c.08,0,.16-.01.23-.03-.07.02-.15.03-.23.03Z"/>
  <path class="cls-14" d="m102.68,49.67c.08,0,.16-.01.23-.03-.07.02-.15.03-.23.03Z"/>
  <path class="cls-14" d="m103.5,49.16c-.08.15-.19.27-.33.36.14-.09.25-.21.33-.36Z"/>
  <path class="cls-14" d="m102.97,49.62c.07-.02.13-.05.19-.09-.06.04-.12.06-.19.09Z"/>
  <path class="cls-14" d="m107.44,49.45l-.12-.13.12.13Z"/>
  <path class="cls-14" d="m108.03,49.67c.08,0,.16-.01.23-.03-.07.02-.15.03-.23.03Z"/>
  <path class="cls-14" d="m108.31,49.62c.07-.02.13-.05.19-.09-.06.04-.12.06-.19.09Z"/>
  <path class="cls-14" d="m114.13,49.16c-.08.15-.19.27-.33.36.14-.09.25-.21.33-.36Z"/>
  <path class="cls-14" d="m113.32,49.67c.08,0,.16-.01.23-.03-.07.02-.15.03-.23.03Z"/>
  <path class="cls-14" d="m113.6,49.62c.07-.02.13-.05.19-.09-.06.04-.12.06-.19.09Z"/>
  <path class="cls-14" d="m118.66,49.67c.08,0,.16-.01.23-.03-.07.02-.15.03-.23.03Z"/>
  <path class="cls-14" d="m118.07,49.45l-.12-.13.12.13Z"/>
  <path class="cls-14" d="m118.95,49.62c.07-.02.13-.05.19-.09-.06.04-.12.06-.19.09Z"/>
  <g>
    <path class="cls-4" d="m59.92,43.86c-.1,0-.19.02-.28.05,0,0,0,0,0,0,0,0,0,0-.01,0-.08.03-.15.06-.22.11-.01,0-.02.02-.04.02-.07.05-.14.11-.19.18h0c-.05.08-.09.16-.12.24v.05c-.04.08-.06.17-.06.27v3.97c0,.51.41.92.92.92h0c.08,0,.16-.01.23-.03l.05-.02c.07-.02.13-.05.19-.09h.01c.14-.1.25-.22.33-.37.06-.13.1-.27.1-.41v-3.97c0-.51-.41-.92-.92-.92Z"/>
    <path class="cls-4" d="m65.26,43.86c-.1,0-.19.02-.28.05,0,0,0,0,0,0,0,0,0,0-.01,0-.08.03-.15.06-.22.11-.01,0-.02.02-.04.02-.07.05-.14.11-.19.18h0c-.05.08-.09.16-.12.24v.05c-.04.08-.06.17-.06.27v3.97c0,.51.41.92.92.92h0c.08,0,.16-.01.23-.03l.05-.02c.07-.02.13-.05.19-.09h.01c.07-.05.13-.11.19-.17,0,0,0-.01.01-.02.05-.06.09-.12.13-.19,0,0,0,0,0,0h0c.06-.12.11-.26.11-.41v-3.97c0-.51-.41-.92-.92-.92Z"/>
    <path class="cls-4" d="m70.61,43.86c-.1,0-.19.02-.28.05,0,0,0,0,0,0,0,0,0,0-.01,0-.08.03-.15.06-.22.11-.01,0-.02.02-.04.02-.07.05-.14.11-.19.18h0c-.05.08-.09.16-.12.24v.05c-.04.08-.06.17-.06.27v3.97c0,.51.41.92.92.92h0c.08,0,.16-.01.23-.03l.05-.02c.07-.02.13-.05.19-.09h.01c.14-.1.25-.22.33-.37.06-.13.1-.27.1-.41v-3.97c0-.51-.41-.92-.92-.92Z"/>
    <path class="cls-4" d="m75.95,43.86c-.1,0-.19.02-.28.05,0,0,0,0,0,0,0,0,0,0-.01,0-.08.03-.15.06-.22.11-.01,0-.03.02-.04.03-.07.05-.13.11-.19.18h0c-.05.08-.09.16-.12.24v.05c-.04.08-.06.17-.06.27v3.97c0,.22.08.42.21.58l.12.13c.16.13.36.22.59.22h0c.08,0,.16-.01.23-.03l.05-.02c.07-.02.13-.05.19-.09h.01c.07-.05.13-.11.19-.17,0,0,0,0,0-.01.05-.06.1-.12.13-.19,0,0,0,0,0,0,0,0,0,0,0,0,.06-.13.1-.26.1-.41v-3.97c0-.51-.41-.92-.92-.92Z"/>
    <path class="cls-4" d="m81.33,43.86c-.1,0-.19.02-.28.05,0,0,0,0,0,0,0,0,0,0-.01,0-.08.03-.15.06-.22.11-.01,0-.02.02-.04.02-.07.05-.14.11-.19.18h0c-.05.08-.09.16-.12.24v.05c-.04.08-.06.17-.06.27v3.97c0,.51.41.92.92.92h0c.08,0,.16-.01.23-.03l.05-.02c.07-.02.13-.05.19-.09h.01c.07-.05.13-.11.19-.17,0,0,0-.01.01-.02.05-.06.09-.12.13-.19,0,0,0,0,0,0,0,0,0,0,0,0,.06-.13.11-.26.11-.41v-3.97c0-.51-.41-.92-.92-.92Z"/>
    <path class="cls-4" d="m86.67,43.86c-.1,0-.19.02-.28.05,0,0,0,0,0,0,0,0,0,0-.01,0-.08.03-.15.06-.22.11-.01,0-.03.02-.04.02-.07.05-.14.11-.19.18h0c-.05.08-.09.16-.12.24v.05c-.04.08-.06.17-.06.27v3.97c0,.22.08.42.21.58l.12.13c.16.13.36.22.59.22h0c.08,0,.16-.01.23-.03l.05-.02c.07-.02.13-.05.19-.09h.01c.07-.05.13-.11.19-.17,0,0,0,0,0-.01.05-.06.1-.12.13-.19,0,0,0,0,0,0,0,0,0,0,0,0,.06-.13.1-.26.1-.41v-3.97c0-.51-.41-.92-.92-.92Z"/>
    <path class="cls-4" d="m92.01,43.86c-.1,0-.19.02-.28.05,0,0,0,0,0,0,0,0,0,0-.01,0-.08.03-.15.06-.22.11-.01,0-.03.02-.04.03-.07.05-.14.11-.19.18h0c-.05.08-.09.16-.12.24v.04c-.04.09-.06.17-.06.27v3.97c0,.51.41.92.92.92h0c.08,0,.16-.01.23-.03l.05-.02c.07-.02.13-.05.19-.09h.01c.07-.05.13-.11.19-.17,0,0,0,0,0-.01.05-.06.1-.12.13-.19,0,0,0,0,0,0,0,0,0,0,0,0,.06-.13.1-.26.1-.41v-3.97c0-.51-.41-.92-.92-.92Z"/>
    <path class="cls-4" d="m97.36,43.86c-.1,0-.19.02-.28.05,0,0,0,0,0,0,0,0,0,0-.01,0-.08.03-.15.06-.22.11-.01,0-.02.02-.04.02-.07.05-.14.11-.19.18h0c-.05.08-.09.16-.12.24v.05c-.04.08-.06.17-.06.27v3.97c0,.51.41.92.92.92h0c.08,0,.16-.01.23-.03l.05-.02c.07-.02.13-.05.19-.09h.01c.07-.05.13-.11.19-.17,0,0,0,0,0-.01.05-.06.1-.12.13-.19,0,0,0,0,0,0,0,0,0,0,0,0,.06-.13.1-.26.1-.41v-3.97c0-.51-.41-.92-.92-.92Z"/>
    <path class="cls-4" d="m102.68,43.86c-.1,0-.19.02-.28.05,0,0,0,0,0,0,0,0,0,0-.01,0-.08.03-.15.06-.22.11-.01,0-.02.02-.04.02-.07.05-.14.11-.19.18h0c-.05.08-.09.16-.12.24v.05c-.04.08-.06.17-.06.27v3.97c0,.51.41.92.92.92h0c.08,0,.16-.01.23-.03l.05-.02c.07-.02.13-.05.19-.09h.01c.14-.1.25-.22.33-.37.06-.13.1-.27.1-.41v-3.97c0-.51-.41-.92-.92-.92Z"/>
    <path class="cls-4" d="m108.03,43.86c-.1,0-.19.02-.28.05,0,0,0,0,0,0,0,0,0,0-.01,0-.08.03-.15.06-.22.11-.01,0-.02.02-.04.02-.07.05-.14.11-.19.18h0c-.05.08-.09.16-.12.24v.05c-.04.08-.06.17-.06.27v3.97c0,.22.08.42.21.58l.12.13c.16.13.36.22.59.22h0c.08,0,.16-.01.23-.03l.05-.02c.07-.02.13-.05.19-.09h.01c.07-.05.13-.11.19-.17,0,0,0-.01.01-.01.05-.06.09-.12.13-.19,0,0,0,0,0,0,0,0,0,0,0,0,.06-.13.11-.26.11-.41v-3.97c0-.51-.41-.92-.92-.92Z"/>
    <path class="cls-4" d="m113.32,43.86c-.1,0-.19.02-.28.05,0,0,0,0,0,0,0,0,0,0-.01,0-.08.03-.15.06-.22.11-.01,0-.02.02-.04.02-.07.05-.14.11-.19.18h0c-.05.08-.09.16-.12.24v.05c-.04.08-.06.17-.06.27v3.97c0,.51.41.92.92.92h0c.08,0,.16-.01.23-.03l.05-.02c.07-.02.13-.05.19-.09h.01c.14-.1.25-.22.33-.37,0,0,0,0,0,0,.06-.13.1-.27.1-.41v-3.97c0-.51-.41-.92-.92-.92Z"/>
    <path class="cls-4" d="m118.66,43.86c-.1,0-.19.02-.28.05,0,0,0,0,0,0,0,0,0,0-.01,0-.08.03-.15.06-.22.11-.01,0-.02.02-.04.02-.07.05-.14.11-.19.18h0c-.05.08-.09.16-.12.24v.05c-.04.08-.06.17-.06.27v3.97c0,.22.08.42.21.58l.12.13c.16.13.36.22.59.22h0c.08,0,.16-.01.23-.03l.05-.02c.07-.02.13-.05.19-.09h.01c.07-.05.13-.11.19-.17,0,0,0,0,0-.01.05-.06.1-.12.13-.19,0,0,0,0,0,0,0,0,0,0,0,0,.06-.13.1-.26.1-.41v-3.97c0-.51-.41-.92-.92-.92Z"/>
  </g>
  <rect class="cls-13" x="84.59" y="75.4" width="0" height="7.65"/>
  <rect class="cls-13" x="111.41" y="75.4" width="0" height="7.65"/>
  <line class="cls-5" x1="111.55" y1="92.09" x2="111.55" y2="58.43"/>
  <line class="cls-5" x1="93.67" y1="92.09" x2="93.67" y2="58.43"/>
  <line class="cls-5" x1="102.61" y1="92.09" x2="102.61" y2="58.43"/>
  <line class="cls-5" x1="84.8" y1="92.09" x2="84.8" y2="58.43"/>
  <line class="cls-5" x1="75.92" y1="92.09" x2="75.92" y2="58.43"/>
  <line class="cls-5" x1="67.4" y1="92.09" x2="67.4" y2="58.43"/>
  <line class="cls-5" x1="119.92" y1="75.4" x2="58.43" y2="75.4"/>
  <line class="cls-5" x1="119.92" y1="67.75" x2="58.43" y2="67.75"/>
  <line class="cls-5" x1="120.06" y1="83.05" x2="58.57" y2="83.05"/>
  <line class="cls-5" x1="120.06" y1="59.96" x2="58.57" y2="59.96"/>
  <line class="cls-5" x1="119.98" y1="90.74" x2="58.49" y2="90.74"/>
  <circle class="cls-8" cx="60.09" cy="74.43" r="13.01"/>
  <path class="cls-7" d="m54.65,69.31c.51-1.15,1.48-1.97,2.9-2.46,1.31-.46,2.49-.45,3.54.01,1.05.47,1.77,1.28,2.17,2.43.24.7.3,1.31.16,1.85s-.5,1.38-1.09,2.53c-.43.84-.67,1.5-.72,1.99-.03.32,0,.71.12,1.18s-.15.94-.6,1.1h0c-.52.18-1.09-.13-1.21-.66-.13-.53-.18-1-.17-1.41.02-.65.29-1.49.81-2.5l.53-1.06c.16-.31.28-.61.34-.91.12-.52.11-1.02-.05-1.48-.22-.65-.62-1.14-1.17-1.47-.56-.34-1.29-.35-2.2-.03-1.12.39-1.76,1.07-1.9,2.04-.06.37-.03.81.07,1.34.09.45-.17.9-.61,1.05h0c-.54.19-1.13-.15-1.23-.72-.18-1.01-.08-1.95.3-2.81Zm7.22,10.66h0c.54-.19,1.14.1,1.32.64l.03.09c.19.54-.1,1.14-.64,1.32h0c-.54.19-1.14-.1-1.32-.64l-.03-.09c-.19-.54.1-1.14.64-1.32Z"/>
  <g>
    <line class="cls-11" x1="96.17" y1="69.75" x2="100.11" y2="73.25"/>
    <line class="cls-11" x1="100.11" y1="69.75" x2="96.17" y2="73.25"/>
  </g>
  <g>
    <line class="cls-11" x1="96.31" y1="85.15" x2="100.25" y2="88.65"/>
    <line class="cls-11" x1="100.25" y1="85.15" x2="96.31" y2="88.65"/>
  </g>
  <g>
    <line class="cls-11" x1="78.39" y1="77.47" x2="82.33" y2="80.97"/>
    <line class="cls-11" x1="82.33" y1="77.47" x2="78.39" y2="80.97"/>
  </g>
  <rect class="cls-9" x="-1239.02" y="-308.58" width="2179.47" height="547.09"/>
</svg>