<?xml version="1.0" encoding="UTF-8"?>
<svg id="Calque_1" data-name="Calque 1" xmlns="http://www.w3.org/2000/svg" viewBox="0 0 192.84 120.43">
  <defs>
    <style>
      .cls-1, .cls-2, .cls-3, .cls-4, .cls-5 {
        stroke-linecap: round;
        stroke-linejoin: round;
      }

      .cls-1, .cls-2, .cls-3, .cls-6 {
        stroke: #010101;
      }

      .cls-1, .cls-7 {
        fill: #fce9b9;
      }

      .cls-2, .cls-8 {
        fill: #fff;
      }

      .cls-3, .cls-4, .cls-5, .cls-6 {
        fill: none;
      }

      .cls-9 {
        fill: #010101;
      }

      .cls-10 {
        fill: #ed6d76;
      }

      .cls-11 {
        fill: #f5afb5;
      }

      .cls-12 {
        fill: #cfaa57;
      }

      .cls-12, .cls-4 {
        stroke: #cfaa57;
      }

      .cls-12, .cls-6 {
        stroke-miterlimit: 10;
      }

      .cls-4 {
        stroke-width: 2px;
      }

      .cls-5 {
        stroke: #fff;
        stroke-width: 8px;
      }
    </style>
  </defs>
  <rect class="cls-5" x="-5394.7" y="-1177.54" width="6467.34" height="6437.3"/>
  <g id="Titres_catégories" data-name="Titres catégories">
    <g>
      <path class="cls-3" d="m166.07,38.39c-2.11,2.97-3.53,6.72-2.34,11.07.52,1.89,1.91,3.24,3.19,4.65.74.81,1.13,1.66,1.05,2.8-.23,3.44-.44,6.89-.6,10.33-.15,3.06-.12,6.11.26,9.17.08.56.21,1.12.39,1.66.36,1.12.86,1.47,1.91,1.47s1.54-.37,1.91-1.48c.3-.9.4-1.82.46-2.75.39-5.41-.25-10.78-.67-16.16-.08-.88-.12-1.75-.2-2.64-.1-.9.25-1.6.82-2.26.76-.91,1.55-1.83,2.22-2.8,1.69-2.42,1.71-5.09.97-7.84-.57-2.15-1.41-4.18-3.04-5.77-1.89-1.88-3.97-1.84-6.31.56h0s0,.01,0,.01Z"/>
      <path class="cls-2" d="m136.11,82.27c13.38,0,24.24-10.86,24.24-24.26s-10.86-24.26-24.24-24.26-24.23,10.86-24.23,24.26,10.85,24.26,24.23,24.26Z"/>
      <path class="cls-2" d="m136.11,77.82c10.93,0,19.79-8.87,19.79-19.81s-8.87-19.81-19.79-19.81-19.79,8.87-19.79,19.81,8.87,19.81,19.79,19.81Z"/>
      <path class="cls-3" d="m99.47,36.34s-.05.09-.05.14c-.06.77-.12,1.54-.18,2.31-.06.81-.13,1.63-.19,2.44-.05.68-.1,1.37-.14,2.05-.06.82-.14,1.63-.2,2.44-.04.55-.06,1.11-.11,1.66-.06.6.06,1.17.29,1.71.26.61.66,1.13,1.21,1.52.65.47,1.08,1.06,1.25,1.85.09.43.07.87.04,1.3-.02.49-.02.98-.05,1.48-.03.63-.02,1.27-.05,1.9-.04,1.2-.07,2.4-.11,3.6,0,.76-.04,1.51-.06,2.27-.03,1.18-.08,2.37-.1,3.56-.03.75-.04,1.51-.07,2.28-.03,1.19-.07,2.37-.1,3.55-.02.78-.05,1.56-.06,2.34-.03,1.04-.08,2.07-.09,3.11-.02,1.06.8,1.94,1.82,2.03,1.03.09,1.98-.63,2.14-1.7.07-.5,0-1,0-1.51,0-.4-.04-.8-.05-1.2-.04-.98-.05-1.97-.09-2.94-.04-1.43-.09-2.86-.13-4.3-.03-1.04-.06-2.1-.1-3.15-.03-1.09-.06-2.19-.1-3.29-.04-1.09-.07-2.18-.11-3.26-.04-1.07-.07-2.15-.11-3.22-.02-.74-.07-1.48-.07-2.21,0-.96.4-1.74,1.18-2.31.86-.62,1.43-1.41,1.64-2.46.11-.5.04-1.01,0-1.52-.02-.41-.06-.82-.09-1.23-.06-.75-.11-1.49-.16-2.24-.04-.55-.07-1.1-.11-1.65-.05-.75-.11-1.51-.16-2.26-.04-.54-.07-1.08-.1-1.63-.03-.4-.06-.79-.08-1.18,0-.22-.12-.36-.33-.42-.33-.12-6.16,0-6.29.15l.02-.02h0Z"/>
      <path class="cls-3" d="m103.93,36.53v8.98"/>
      <path class="cls-3" d="m101.49,36.53v8.98"/>
    </g>
    <g>
      <path class="cls-1" d="m39.03,92.24c-4.98-3.38-25.03-.35-28.4-8.01-3.37-7.65,3.01-10.94,3.01-10.94,0,0,1.09,1.44,3.17,2.63,2.09,1.19,3.85,1.87,4.79,2.65,2.38,1.99,5.37,4.68,4.76,2.98-.16-.44-.93-1.4-1.1-1.7l1.44.97h.01c.83.55,1.89,1.15,2.22.98.8.39,1.61.77,2.43,1.14,2.6,1.19,5.16,2.18,6.98,2.25.19,0,.8.38,1.36.74.42.27.8.54.96.64.22.15.45.33.7.52,4.55,3.46,2.66,8.5-2.33,5.13h0s0,0,0,0Z"/>
      <path class="cls-8" d="m13.47,72.9c-7.08-5.7-1.79-19.99-1.79-19.99,2.91-6.9,8.3-6.06,9.09-8.11.79-2.05-.4-2.54-.4-2.54-9.11-1.8-12.14-7.55-11.32-13.26.8-5.71,6.05-14.66,17.06-11.96,11.02,2.69,7.77,11.82,7.77,11.82,0,0,.3,1.44,1.67,1.55,1.38.1.27,2.24.27,2.24,0,0,3.33,7.17-2.39,8.76-2.1.58-2.9,1.25-2.87,2v.08s.02.09.02.13c.3,1.26,2.72,2.73,5.23,4.34h0s.11.07.26.2c.05.05.11.1.18.17.75.75,2.33,2.85,4.13,8.37,1.54,4.72,2.45,7.62,3.66,9.63.77,1.26,1.66,2.19,2.94,2.98,3.27,2.05,4.83,4.41,2.65,4.65"/>
      <path class="cls-3" d="m13.47,72.9c-7.08-5.7-1.79-19.99-1.79-19.99,2.91-6.9,8.3-6.06,9.09-8.11.79-2.05-.4-2.54-.4-2.54-9.11-1.8-12.14-7.55-11.32-13.26.8-5.71,6.05-14.66,17.06-11.96,11.02,2.69,7.77,11.82,7.77,11.82,0,0,.3,1.44,1.67,1.55,1.38.1.27,2.24.27,2.24,0,0,3.33,7.17-2.39,8.76-2.1.58-2.9,1.25-2.87,2v.08s.02.09.02.13c.3,1.26,2.72,2.73,5.23,4.34h0s.11.07.26.2c.05.05.11.1.18.17.75.75,2.33,2.85,4.13,8.37,1.54,4.72,2.45,7.62,3.66,9.63.77,1.26,1.66,2.19,2.94,2.98,3.27,2.05,4.83,4.41,2.65,4.65"/>
      <path class="cls-3" d="m27.71,77.85c1.72.8,2.35,2.17,3.01,2.66"/>
      <path class="cls-3" d="m30.26,77.84s0,0-.02,0"/>
      <path class="cls-3" d="m18.54,53.86s.54,9.98.04,14.28c0,0,.77-.2,3.77,2.6.1.08.18.18.27.26"/>
      <path class="cls-3" d="m26.77,79.25s1.6,1.06,2.1,1.9"/>
      <path class="cls-3" d="m22.62,71h-.02"/>
      <path class="cls-1" d="m37.99,66s.13,1.77.54,5.61c0,0,4.46,9.24,1.19,14.35,0,0,0,.01-.01.02-2.82-1.67-2.97-.06-6.52-2.01-.73-.4-1.33-.73-1.82-1l-2.33-1.29c.03-.15-.03-.33-.15-.52.15.1,2.16,1.5,1.83-.65.3.22.6.26,1.01,0,1.25-.81-1.21-2.5-1.46-2.67,1.61.77,2.78.23-.7-.99-1.55-.55-2.37-1.34-4.18-2.69l-1.39,1.09-3.35,2.56s-4.33-1.9-6.01-3.46c0,0-1.76-1.77-2.84-3.11-4.99-6.18-.36-20.34,1.9-22.49,2.25-2.14,7.06-3.96,7.06-3.96,9.48,2,9.97-.23,9.82-1.16,0-.04-.02-.08-.02-.13-.02-.09-.05-.15-.06-.19.02.03.04.07.05.1.79,1.42,1.25,1.74,5.26,4.56h0c.08.06.18.14.26.2.05.05.11.1.18.17,4,3.63,8.01,17.77,8.01,17.77-.05.07-.1.15-.21.24-.93.84-4.32,2.5-4.32,2.5l-1.78-2.85h.02s.02,0,.02,0Z"/>
      <path class="cls-3" d="m41.14,69.43s-.63,6.56.76,4.86c1.39-1.7.86-4.22,2.73-2.14,1.86,2.09,1.51,3.47,2.25,2.1.73-1.37-.7-3.11-.7-3.11"/>
      <path class="cls-3" d="m46.99,72.7s3.46,3.81,1.92.31l-1.22-1.87"/>
      <path class="cls-7" d="m44.51,86.37c-1.46.43-2.01,1.35-2.01,1.35.8.91,1.66,2.65,1.55,3.69-.25,2.32,13.11-.79,10.57-5.1-1.29-2.18-6.91-.82-6.91-.82"/>
      <path class="cls-3" d="m44.51,86.37c-1.46.43-2.01,1.35-2.01,1.35.8.91,1.66,2.65,1.55,3.69-.25,2.32,13.11-.79,10.57-5.1-1.29-2.18-6.91-.82-6.91-.82"/>
      <path class="cls-7" d="m46.55,76.11s-2.66-.6-2.87,5c-.05,1.4,0,5.62,0,5.62,0,0,3.56-1.41,6.87-1.62,0,0,3.26-5.41,4.13-11.97.87-6.56-6.59-4.63-6.59-4.63l-9.57,2.99s4.2,8.61,1.18,14.47l.95.64s1.5-1.25,2.77-3.09"/>
      <path class="cls-3" d="m46.55,76.11s-2.66-.6-2.87,5c-.05,1.4,0,5.62,0,5.62,0,0,3.56-1.41,6.87-1.62,0,0,3.26-5.41,4.13-11.97.87-6.56-6.59-4.63-6.59-4.63l-9.57,2.99s4.2,8.61,1.18,14.47l.95.64s1.5-1.25,2.77-3.09"/>
      <path class="cls-3" d="m20.78,34.46s-3.09,1.03-1.3,3.57c1.77,2.54,3.34.3,3.34.3"/>
      <path class="cls-9" d="m31.84,31.8c.4,0,.72-.32.72-.72s-.32-.71-.72-.71-.71.32-.71.71.32.72.71.72Z"/>
      <path class="cls-3" d="m29.5,29.93s.2-1.85,2.13-1.73"/>
      <path class="cls-3" d="m20.87,36.85l.61-.29"/>
      <path class="cls-11" d="m28.3,35.69c.83,0,1.5-.68,1.5-1.5s-.67-1.5-1.5-1.5-1.5.67-1.5,1.5.67,1.5,1.5,1.5Z"/>
      <path class="cls-10" d="m34.71,36.84h0c-.1.55-.57,1.07-1.4,1.13-.67.06-1.15-.13-1.47-.37v-.02s.03-.04.05-.07c.04-.05.1-.13.18-.22l.1-.1c.06-.06.13-.13.21-.19.16-.13.37-.24.61-.32.06,0,.13-.04.19-.04.04,0,.1-.02.15-.02.38-.05.83,0,1.37.21h.02s0,.02,0,.02Z"/>
      <path class="cls-11" d="m34.71,36.84c-.54-.22-1-.26-1.37-.21-.05,0-.1,0-.15.02-.07,0-.13.03-.19.04-.24.07-.45.19-.61.32-.08.06-.16.13-.21.19-.04.03-.07.06-.1.1-.08.1-.14.17-.18.22-.02.03-.04.05-.04.07,0,.01,0,.02,0,.02-.45-.33-.62-.75-.62-.75-.24-1.4,2.08-1.3,2.08-1.3,1.07-.06,1.54.63,1.41,1.29h-.01Z"/>
      <path class="cls-6" d="m33.3,35.62s-2.33-.1-2.08,1.3c0,0,.17.42.62.75.33.24.8.43,1.47.37.83-.07,1.3-.58,1.4-1.11h0c.13-.68-.34-1.36-1.41-1.3h0s0,0,0,0Z"/>
      <path class="cls-3" d="m32.34,20.41s-2.73,6.22-8.59,6.69c0,0,1.19,3.6-3.17,4.77"/>
      <path class="cls-7" d="m37.99,66c-.57-2.29-.86-4.36-1.97-7.23l1.97,7.23Z"/>
      <path class="cls-3" d="m37.99,66c-.57-2.29-.86-4.36-1.97-7.23"/>
      <path class="cls-7" d="m16.92,63.95c.53,5.01,9.1,9.75,9.1,9.75l-2.01,1.55"/>
      <path class="cls-3" d="m16.92,63.95c.53,5.01,9.1,9.75,9.1,9.75l-2.01,1.55"/>
    </g>
    <path class="cls-12" d="m130.43,47.56c1.36-1.45,3.23-2.17,5.6-2.17,2.2,0,3.96.62,5.28,1.86,1.32,1.24,1.98,2.82,1.98,4.75,0,1.17-.24,2.11-.72,2.84-.48.73-1.46,1.79-2.94,3.21-1.08,1.02-1.78,1.89-2.11,2.6-.21.46-.36,1.07-.43,1.82s-.7,1.33-1.46,1.33c-.87,0-1.55-.75-1.46-1.62.09-.85.25-1.58.49-2.19.37-.96,1.2-2.07,2.5-3.31l1.35-1.3c.4-.37.73-.76.98-1.17.46-.72.68-1.46.68-2.23,0-1.08-.33-2.02-.99-2.81s-1.75-1.19-3.26-1.19c-1.87,0-3.17.68-3.9,2.05-.28.52-.47,1.2-.59,2.03-.1.72-.72,1.26-1.45,1.26-.9,0-1.6-.81-1.46-1.7.26-1.6.89-2.95,1.91-4.03h.01,0Zm5.24,19.63c.9,0,1.65.74,1.65,1.65v.15c0,.9-.74,1.65-1.65,1.65s-1.65-.74-1.65-1.65v-.15c0-.9.74-1.65,1.65-1.65Z"/>
    <g>
      <path class="cls-4" d="m79.5,61.54c1.62-1.1,4.38-2.69,6.09-3.64-2.05-1.29-3.45-2.46-5.51-3.75"/>
      <line class="cls-4" x1="61.45" y1="57.85" x2="85.59" y2="57.85"/>
    </g>
  </g>
</svg>