<?xml version="1.0" encoding="UTF-8"?>
<svg id="Calque_1" data-name="Calque 1" xmlns="http://www.w3.org/2000/svg" viewBox="0 0 128 128">
  <defs>
    <style>
      .cls-1 {
        fill: #ff6d75;
      }

      .cls-1, .cls-2 {
        stroke: #000;
      }

      .cls-1, .cls-2, .cls-3 {
        stroke-linecap: round;
        stroke-linejoin: round;
      }

      .cls-2 {
        fill: #f3d587;
      }

      .cls-4 {
        fill: #fff;
      }

      .cls-3 {
        fill: none;
        stroke: #fff;
        stroke-width: 8px;
      }
    </style>
  </defs>
  <polygon class="cls-2" points="59.59 10.1 65.55 9.16 68.6 58.09 62.27 53.2 59.59 10.1"/>
  <g>
    <path class="cls-2" d="m47.96,9.16l-9.67,51.19,7.59-3.12s6.75-34.12,7.09-38.29c.34-4.17-.01-7.53-.01-7.53l-5-2.25Z"/>
    <polygon class="cls-2" points="44.15 10.82 47.96 9.16 38.29 60.35 35.77 55.88 44.15 10.82"/>
  </g>
  <g>
    <path class="cls-2" d="m75.52,12.45l-3.59,51.97,7.17-3.99s2.69-34.67,2.54-38.86c-.15-4.18-.9-7.47-.9-7.47l-5.23-1.64Z"/>
    <polygon class="cls-2" points="71.93 14.54 75.52 12.45 71.93 64.41 68.9 60.27 71.93 14.54"/>
  </g>
  <g>
    <path class="cls-2" d="m86.54,18.18l1.3,49.73,5.29-4.27s-.64-33.2-1.08-37.17-1.29-7.06-1.29-7.06l-4.22-1.23Z"/>
    <polygon class="cls-2" points="83.9 20.4 86.54 18.18 87.84 67.9 85.14 64.16 83.9 20.4"/>
  </g>
  <g>
    <path class="cls-2" d="m52.07,16.77l9.03,51.3,6-5.6s-5.74-34.3-6.89-38.33c-1.15-4.03-2.67-7.04-2.67-7.04l-5.47-.34Z"/>
    <polygon class="cls-2" points="49.1 19.66 52.07 16.77 61.1 68.07 57.16 64.78 49.1 19.66"/>
  </g>
  <polygon class="cls-2" points="45.71 27.79 50.43 26.44 57.78 65.66 52.17 62.34 45.71 27.79"/>
  <polygon class="cls-2" points="22.33 28.93 26.78 26.85 40.23 64.41 34.17 62.02 22.33 28.93"/>
  <polygon class="cls-2" points="105.87 28.93 101.42 26.85 87.97 64.41 94.03 62.02 105.87 28.93"/>
  <polygon class="cls-2" points="32.67 14.33 38.18 13.56 40.23 58.74 34.46 54.13 32.67 14.33"/>
  <polygon class="cls-2" points="83.66 26.28 88.52 26.93 79.61 65.82 75.8 60.54 83.66 26.28"/>
  <path class="cls-2" d="m88.8,52.95s6.08-14.18,5.97-19.7c-.11-5.52-1.46-12.72-1.46-12.72h4.02s2.17,7.65,2.17,12.49-6.08,19.92-6.08,19.92h-4.61Z"/>
  <path class="cls-2" d="m44.68,55.78s-8.52-12.86-9.4-18.31c-.88-5.45-.84-12.77-.84-12.77l-3.96.72s-.76,7.92.11,12.68c.87,4.76,9.55,18.51,9.55,18.51l4.54-.83Z"/>
  <path class="cls-2" d="m63.74,66.31s5.56-17.01,4.86-23.37-3.01-14.54-3.01-14.54l4.65-.42s3.3,8.62,3.8,14.21-4.96,23.65-4.96,23.65l-5.33.48Z"/>
  <path class="cls-2" d="m60.98,76.3s-9.17-15.7-9.6-22.08c-.43-6.38.54-14.86.54-14.86l-5.1.46s-1.96,9.09-1.46,14.68c.5,5.59,9.77,22.33,9.77,22.33l5.85-.52Z"/>
  <polygon class="cls-1" points="25.26 43.04 30.27 43.04 34.47 115.3 28.87 112.89 25.26 43.04"/>
  <polygon class="cls-1" points="101.92 43.04 96.92 43.04 92.72 115.3 98.32 112.89 101.92 43.04"/>
  <path class="cls-1" d="m30.27,43.04s15.96,16.64,32.85,16.04c16.89-.6,33.8-16.04,33.8-16.04l-4.2,72.26h-58.24s-4.2-72.26-4.2-72.26Z"/>
  <ellipse class="cls-4" cx="63.19" cy="85.61" rx="27.43" ry="15.8"/>
  <rect class="cls-3" x="-237.62" y="-1054.38" width="3385.57" height="2571.67"/>
</svg>