<?xml version="1.0" encoding="UTF-8"?>
<svg id="Calque_1" data-name="Calque 1" xmlns="http://www.w3.org/2000/svg" viewBox="0 0 128 128">
  <defs>
    <style>
      .cls-1 {
        fill: #baa584;
      }

      .cls-1, .cls-2, .cls-3, .cls-4 {
        stroke: #1d1d1b;
        stroke-width: 2px;
      }

      .cls-1, .cls-2, .cls-3, .cls-4, .cls-5 {
        stroke-linecap: round;
        stroke-linejoin: round;
      }

      .cls-2 {
        fill: #e9cb61;
      }

      .cls-3 {
        fill: #f3d587;
      }

      .cls-4, .cls-5 {
        fill: none;
      }

      .cls-5 {
        stroke: #fff;
        stroke-width: 8px;
      }
    </style>
  </defs>
  <path class="cls-3" d="m73.64,20.42l-12.35,7.26c1.44,1.61,2.01,3.92,1.29,6.11-1.08,3.28-4.61,5.06-7.87,4-1.94-.64-3.36-2.13-3.97-3.92l-32.96,22.92,93.85-17.49-37.99-18.89Zm3.93,17.64c-1.28-.43-1.98-1.8-1.56-3.09.41-1.28,1.8-1.97,3.08-1.56,1.29.43,1.98,1.8,1.57,3.09-.43,1.28-1.81,1.97-3.09,1.56Z"/>
  <path class="cls-2" d="m111.5,44.17l.13-4.86L17.78,56.79v11.43c.37-.05.76-.08,1.15-.08,4.89,0,8.85,3.96,8.85,8.83s-3.96,8.85-8.85,8.85c-.39,0-.77-.03-1.15-.08v20.59l92.53-16.83.77-29.4c-.6-.05-1.21-.17-1.81-.37-4.18-1.37-6.47-5.87-5.1-10.07,1.08-3.26,4.08-5.38,7.33-5.49Zm-72.85,21.59c-.6,1.81-2.54,2.8-4.37,2.21-1.81-.6-2.8-2.56-2.2-4.37.59-1.81,2.54-2.8,4.36-2.21,1.81.6,2.8,2.56,2.21,4.37Zm8.63,26.64c-.41,1.28-1.8,1.98-3.08,1.56-1.29-.41-1.98-1.8-1.57-3.08.43-1.29,1.81-1.98,3.09-1.57,1.28.43,1.98,1.81,1.56,3.09Zm8.71-21.41c-.6,1.82-2.56,2.81-4.37,2.21-1.81-.59-2.8-2.54-2.21-4.36.6-1.81,2.54-2.81,4.37-2.21,1.81.6,2.8,2.54,2.21,4.36Zm20.18-8.62c-1.07,3.28-4.6,5.06-7.87,4-3.28-1.08-5.06-4.61-4-7.89,1.08-3.28,4.61-5.06,7.89-3.98,3.28,1.07,5.06,4.6,3.98,7.87Zm16.25,21.67c-.91,2.74-3.85,4.24-6.59,3.34-2.74-.89-4.24-3.85-3.33-6.59.89-2.73,3.84-4.22,6.58-3.33,2.74.89,4.24,3.85,3.34,6.58Z"/>
  <g>
    <path class="cls-1" d="m115.08,59.39l-.75,26.99c-.04,1.72-1.44,3.09-3.16,3.1h-.87s.77-29.39.77-29.39c1.4.12,2.77-.13,4-.71Z"/>
    <path class="cls-1" d="m115.62,39.88l-.15,5.2c-.39-.2-.8-.37-1.23-.52-.91-.29-1.84-.43-2.74-.39l.13-4.86-37.99-18.89,2.88-1.27c.88-.39,1.89-.36,2.74.08l34.62,17.72c1.09.56,1.77,1.71,1.73,2.93Z"/>
  </g>
  <line class="cls-4" x1="114.24" y1="38.38" x2="111.63" y2="39.31"/>
  <rect class="cls-5" x="-947.5" y="-164.33" width="3385.57" height="2571.67"/>
</svg>