<?xml version="1.0" encoding="UTF-8"?>
<svg id="Calque_1" data-name="Calque 1" xmlns="http://www.w3.org/2000/svg" viewBox="0 0 128 128">
  <defs>
    <style>
      .cls-1 {
        fill: #baa584;
      }

      .cls-1, .cls-2, .cls-3, .cls-4, .cls-5, .cls-6, .cls-7, .cls-8 {
        stroke-linecap: round;
        stroke-linejoin: round;
      }

      .cls-1, .cls-5, .cls-6, .cls-7 {
        stroke: #1d1d1b;
      }

      .cls-2 {
        fill: #ffbeed;
      }

      .cls-2, .cls-3, .cls-4 {
        stroke: #000;
      }

      .cls-3 {
        fill: #fee4cb;
      }

      .cls-4 {
        fill: #fff;
      }

      .cls-5 {
        fill: #e9cb61;
      }

      .cls-6 {
        fill: #f3d587;
      }

      .cls-7, .cls-8 {
        fill: none;
      }

      .cls-8 {
        stroke: #fff;
        stroke-width: 8px;
      }
    </style>
  </defs>
  <g>
    <path class="cls-4" d="m59.2,44.46c0,.3-.04.62-.11.96l-.43-3.7s.5,1.41.54,2.74Z"/>
    <path class="cls-4" d="m51.11,40.67l-.08,1.9c-.07-1.07.08-1.9.08-1.9Z"/>
    <path class="cls-4" d="m26.9,53.23s-.72-.08-1.31-.17c-.6-.08-.8-1.31-.8-1.31l-2.96-5.77c.41.22.89.45,1.41.62l-.2,1.03c-.08.39.18.77.57.86h.08c.39.09.78-.17.86-.56l.2-.98c.57.08,1.16.09,1.8,0h0s.07.12.07.12h0c.13.48.28,1.02.43,1.61.49,1.88,1.17,2.23,1.17,2.23,0,0,1.85.54,2.52,1.25,1.4,1.45,1.57,4.33,1.57,4.33h-6.5v-1.44c0-.76,1.1-1.83,1.1-1.83Z"/>
    <path class="cls-4" d="m26.6,47.07l-.07-.12h.04s.02.07.03.12Z"/>
    <path class="cls-4" d="m56.57,57.82s-.4.04-2.04.21c-1.64.18-2.88-.44-2.88-.44,0,0,.08-1.73-.18-2.49-.27-.75-1.6-1.82-1.6-1.82l1.25-1.82s.08-2.09-.11-3.68c-.13-1.12-.78-3.87-1.16-5.41.06,0,.1,0,.13.02.39.07.74.14,1.06.22.08,1.16.44,2.58,1.56,3.55.49.43.91.8,1.27,1.11-.14.63-.27,1.34-.31,1.93-.08,1.46.49,4.18.49,4.18,0,0,.57.21,1.55,1.32.98,1.11.98,3.11.98,3.11Z"/>
    <path class="cls-4" d="m51.1,42.64s-.05,0-.07-.02v-.05s.07.07.07.07Z"/>
    <path class="cls-2" d="m31.46,45.24l-.04.07c-.2.35-.65.48-1,.27l-.81-.47c-.44.61-.95,1.13-1.54,1.43l.47.81c.21.35.08.8-.27,1l-.07.05c-.35.2-.8.07-1-.27l-.61-1.03h0c0-.06-.02-.09-.03-.13h-.05c-.63.08-1.23.07-1.8,0l-.2.98c-.07.39-.47.65-.86.57h-.08c-.39-.09-.65-.48-.57-.87l.2-1.03c-.52-.17-1-.39-1.41-.62-.24-.13-.47-.27-.67-.4.07-.14.15-.29.24-.44.31-.53.68-1.11,1.06-1.67.18-.25.35-.5.53-.75t0,0c.06-.05.11-.1.18-.15.04-.03.44-.35.86-.65,1.71-1.23,2.6-1.86,3.59-1.71.82.14,2.05.88,2.22.98.45.27.9.5,1.35.72-.2.57-.46,1.23-.78,1.88l.78.46c.35.2.48.64.27,1Z"/>
    <path class="cls-4" d="m26.6,47.07l-.07-.12h.04s.02.07.03.12Z"/>
    <path class="cls-4" d="m13.76,44.09c-.42,2.58-2.67,3.11-2.67,3.11,0,0-.78-2.33-.35-4.45.25-1.24,2.08-2.12,2.52-3.4,0,0,.77,3.08.5,4.74Z"/>
    <path class="cls-4" d="m12.5,20.35c-.52.78-.98,1.99-.94,3.73.07,3.74,1.83,6.76,2.14,9.26.32,2.51,0,4.73-.44,6.01"/>
    <path class="cls-4" d="m13.7,19.1s-.63.34-1.2,1.24"/>
    <path class="cls-4" d="m51.03,42.57l.08-1.9s-.16.83-.08,1.9Zm7.63-.86l.43,3.7c.07-.34.12-.66.11-.96-.04-1.33-.54-2.74-.54-2.74Z"/>
    <path class="cls-4" d="m84.65,27.12c-.19.33-.37.45-1.38,1.21-1.68,1.28-1.57,1.25-1.71,1.3-1.32.54-3.22.11-4.06-.98-.32-.4-.3-.65-.49-.93h0c-.05-.1-.12-.19-.23-.29-.28-.23-.8-.56-2.44-.57-1.57,0-1.41.21-2.28.29-.82,0-.98-.12-1.18-.23-1.13.46-2.24,1.11-2.71,2-.1.21-.18.42-.21.64-.04.25.03.12.06.95v.13c.04,1.26-.11,2.32-.28,3.1-.1.48-.21.86-.29,1.11-.02.06-.03.07-.04.12-.73,2.22-2.36,3.46-2.93,3.85-1.11.76-1.5.61-1.77,1.18-.38.81.31,1.34.18,2.54-.12,1.12-.88,2.18-1.78,2.66-.46.25-.99.35-2,.2.07-.34.12-.66.11-.96-.04-1.33-.54-2.74-.54-2.74l.43,3.7c-.28,1.15-.94,2.4-1.01,3.25-.08,1.08.66,2.08.66,2.08l.15.12c.78.66,1.25,1.63,1.28,2.66l.07,2.09s1.42.62,2.12,1.55c.71.91.24,2.37.24,2.37,0,0-3.95.17-4.37,0-.41-.17-1.25-1.57-1.25-2.2s.55-1.58-.29-2.88c-.49-.77-1.14-1.23-1.57-1.47-.23-.14-.3-.45-.12-.66l.98-1.23-.49-2.29s-.45-.45-1.65-1.51c-.35-.31-.77-.68-1.27-1.11-1.12-.97-1.47-2.39-1.56-3.55.02,0,.05,0,.07.02l-.07-.07.08-1.9s-.16.83-.08,1.9v.05c-.33-.08-.67-.16-1.06-.22-.03,0-.07,0-.13-.02-.43-.07-1.52-.22-2.93-.19-1.87.04-2.92.37-4.66.69-2.69.5-4.04.75-5.7.6,0,0-2.56-.25-5.36-1.57-.45-.21-.9-.45-1.35-.72-.17-.1-1.4-.84-2.22-.98-.99-.16-1.87.48-3.59,1.71-.42.3-.82.62-.86.65-.07.05-.12.1-.18.15t0,0c-.18.24-.35.49-.53.75-.38.56-.75,1.14-1.06,1.67-.09.15-.18.3-.24.44-.28.5-.46.93-.49,1.22-.17,1.41-.2,3.39.26,4.56s2.37,2.41,2.37,2.41h-1.5s-.42,1.22-.42,1.22c0,0,1.15.24,1.58.92.61.92.96,2.2.96,2.2h-5.16s-1.55-.22-1.6-2.08c-.03-.81.69-1.99.69-1.99l-1.38-.17s0-2.41,0-4c0-1.23.42-3.16.6-4.45h0c.06-.4.09-.73.08-.96-.04-.99.03-1.98.11-2.67v-.02c.03-.57.08-1.14.07-1.43-.08-1.05.11-1.7-.66-3.97-1.68-4.97-.29-5.33-2.03-8.77-.83-1.66-1.57-2.4-1.95-4.31-.02-.1-.05-.24-.07-.42h0c-.11-.63-.24-1.62-.1-2.54h0c.09-.67.34-1.29.83-1.68.24-.2.55-.34,3.58-.33,1.02,0,1.65.02,2.09.04.74.02.91.04,1.4-.04,2.39-.35,2.36-1.42,4.06-1.46,1.57-.05,2.07.82,3.84,1.22.28.07.6.12.96.16.99.1,1.66-.06,2.43-.07,2.34-.07,5.54-.16,9.18-.08,2.17.05,3.53.13,4.49.18,1.51.07,1.99.08,2.98-.26,2.18-.75,2.51-1.67,4.47-1.86,1.59-.17,2.16.36,3.76.83.48.14,1.05.27,1.77.38,1.19.19,2.81.44,4.65.13.55-.09,1.11-.24,1.69-.45.62-.22,1.43-.52,2.26-1.02.66,1.46,1.73,3.06,3.28,3.04,2.85-.02,3.62-1.56,3.62-1.56,0,0,.07-.71-.35-1.16-1.03-1.08-1.75-.33-1.75-.33,0,0-1.46.75-2.4.33-.48-.21-.98-.57-1.44-.96.41-.33.81-.72,1.17-1.18.64-.81.98-1.63,2.03-2.11.5-.23,1.12-.26,2.36-.33,1.63-.08,2.46-.12,3.17.33.18.11.5.48,1.14,1.22l1.79,2.58c.13.81-.33,1.27,0,2.45.12.45.65,1.16,1.71,2.6.49.67.86,1.16,1.16,1.55.29.36.5.61.72.81.96.89,1.42.91,1.71,1.62.29.71.2,1.57-.17,2.2Z"/>
    <path class="cls-3" d="m73.84,17.5s-.76,1.54-3.62,1.56c-1.55.02-2.62-1.57-3.28-3.04-.52-1.16-.78-2.25-.81-2.39.13.14.87,1,1.75,1.74.47.39.97.75,1.44.96.94.42,2.4-.33,2.4-.33,0,0,.73-.75,1.75.33.43.46.35,1.16.35,1.16Z"/>
    <path class="cls-3" d="m81.65,12.32c-.29,1.61-1.31,2.83-2.12,3.57l-1.79-2.58s1.26-.75,1.8-2.04c.47-1.11.24-3.62.24-3.62,0,0,2.35,1.95,1.86,4.67Z"/>
    <path class="cls-4" d="m67.69,23.4c.18.47.48,1.11,1,1.77.77.96,1.64,1.49,2.18,1.76"/>
    <path d="m77.67,19.4c0,.45-.36.8-.81.8s-.8-.35-.8-.8.36-.81.8-.81.81.36.81.81Z"/>
    <path d="m46.76,25.15c-.24.73-.75,1.32-1.77,2.52-1.65,1.92-2.12,1.86-2.51,2.87-.5,1.33.17,1.84-.44,2.95-.7,1.28-2.13,1.69-2.44,1.77-1.99.57-3.66-.5-3.9-.66-2.14-1.43-2.46-4.19-2.51-4.72-.17-1.83.53-2.6-.15-3.69-.4-.64-.79-.61-2.22-1.62-1.06-.76-2.02-1.45-2.51-2.21-.7-1.12-.59-2.79-.03-4.25.28.07.6.12.96.16.99.1,1.66-.06,2.43-.07,2.34-.07,5.54-.16,9.18-.08,2.17.05,3.53.13,4.49.18.65,1.27,1.04,2.66,1.11,2.89.41,1.46.74,2.66.3,3.98Z"/>
    <path d="m24.19,37.1c-.25,1.28-1.35,1.58-3.32,3.39,0,0-1.46,1.35-2.58,2.88-.51.7-.91,1.39-1.24,2.03.06-.39.09-.72.08-.95-.04-.99.03-1.98.11-2.67v-.02c.03-.57.08-1.14.07-1.43-.08-1.05.11-1.7-.66-3.97-1.68-4.97-.29-5.33-2.03-8.77-.83-1.66-1.57-2.4-1.95-4.31-.02-.1-.05-.24-.07-.42h0c-.11-.63-.24-1.62-.1-2.54h0c.09-.67.34-1.29.83-1.68.24-.2.55-.34,3.58-.33,1.02,0,1.65.02,2.09.04.29.84.33,1.8,1.3,2.94.73.86,1.2.89,1.7,1.77.67,1.21.5,2.5.44,2.95-.06.44-.28,2.13-1.55,3.33-.47.43-.96.71-1.18,1.4-.05.15-.26.83.07,1.26.39.48,1.07.08,1.99.44.93.36,1.41,1.24,1.77,1.92.33.61.88,1.64.66,2.73Z"/>
    <path d="m68.16,28.93c-.19-.21-.39-.43-.6-.68-1.01-1.22-1.64-1.99-1.7-3.1-.07-1.38.81-2.08.37-2.94-.36-.71-1.08-.49-1.92-1.11-1.22-.89-1.05-2.35-1.33-3.6-1.84.31-3.46.06-4.65-.13-.72-.11-1.3-.24-1.77-.38-.68.9-.96,2.02-.95,2.94.03,2.15,1.7,3.15,1.11,4.42-.42.89-1.39.73-1.7,1.7-.34,1.05.63,1.76.21,2.58-.07.14-.26.44-1.85.96-2.04.68-2.81.53-3.02,1.03-.24.58.37,1.64,1.26,2.07,1.33.64,2.41-.62,3.61.07.81.46,1.06,1.45,1.18,1.92.46,1.75-.52,2.86,0,3.32.46.39,1.73-.02,2.36-.81.6-.76.17-1.32.74-2.07.43-.56,1.13-.75,2.52-1.11,1.06-.27,1.78-.46,2.8-.51,1.29-.07,2.19.12,2.89.27l.44-4.83Z"/>
    <path d="m84.65,27.12c-.19.33-.37.45-1.38,1.21-1.68,1.28-1.57,1.25-1.71,1.3-1.32.54-3.22.11-4.06-.98-.32-.4-.3-.65-.49-.93h0c.05-.44.05-.78.34-1.11.34-.38.81-.4,1.95-.55,1.36-.19,2.05-.27,2.25-.42.99-.75.27-2.45.86-3.16.29.36.5.61.72.81.96.89,1.42.91,1.71,1.62.29.71.2,1.57-.17,2.2Z"/>
  </g>
  <g>
    <path class="cls-6" d="m87.4,54.16l-9.43,5.54c1.1,1.23,1.54,2.99.99,4.67-.82,2.5-3.52,3.86-6.01,3.05-1.48-.49-2.56-1.63-3.03-2.99l-25.17,17.5,71.65-13.35-29.01-14.42Zm3,13.47c-.98-.33-1.52-1.37-1.19-2.36.32-.98,1.37-1.51,2.35-1.19.99.33,1.52,1.37,1.2,2.36-.33.98-1.38,1.51-2.36,1.19Z"/>
    <path class="cls-5" d="m116.31,72.29l.1-3.71-71.65,13.35v8.73c.28-.04.58-.06.87-.06,3.73,0,6.75,3.02,6.75,6.74s-3.02,6.75-6.75,6.75c-.29,0-.59-.02-.87-.06v15.72l70.65-12.85.59-22.45c-.46-.04-.93-.13-1.38-.28-3.19-1.05-4.94-4.48-3.9-7.69.82-2.49,3.11-4.11,5.59-4.19Zm-55.62,16.48c-.46,1.38-1.94,2.14-3.34,1.69-1.38-.46-2.14-1.95-1.68-3.34.45-1.38,1.94-2.14,3.33-1.69,1.38.46,2.14,1.95,1.69,3.34Zm6.59,20.34c-.32.98-1.37,1.52-2.35,1.19-.99-.32-1.52-1.37-1.2-2.35.33-.99,1.38-1.52,2.36-1.2.98.33,1.52,1.38,1.19,2.36Zm6.65-16.34c-.46,1.39-1.95,2.15-3.34,1.69-1.38-.45-2.14-1.94-1.69-3.33.46-1.38,1.94-2.15,3.34-1.69,1.38.46,2.14,1.94,1.69,3.33Zm15.41-6.58c-.81,2.5-3.51,3.86-6.01,3.05-2.5-.82-3.86-3.52-3.05-6.02.82-2.5,3.52-3.86,6.02-3.04,2.5.81,3.86,3.51,3.04,6.01Zm12.41,16.55c-.69,2.1-2.94,3.23-5.03,2.55-2.1-.68-3.23-2.94-2.54-5.03.68-2.08,2.93-3.22,5.02-2.54,2.1.68,3.23,2.94,2.55,5.02Z"/>
    <g>
      <path class="cls-1" d="m119.04,83.91l-.57,20.6c-.03,1.31-1.1,2.36-2.41,2.37h-.66s.59-22.44.59-22.44c1.07.09,2.12-.1,3.05-.54Z"/>
      <path class="cls-1" d="m119.45,69.01l-.11,3.97c-.29-.15-.61-.28-.94-.4-.69-.22-1.4-.33-2.1-.29l.1-3.71-29.01-14.42,2.2-.97c.67-.29,1.44-.27,2.1.06l26.43,13.53c.83.43,1.35,1.3,1.32,2.24Z"/>
    </g>
    <line class="cls-7" x1="118.39" y1="67.87" x2="116.41" y2="68.58"/>
  </g>
  <rect class="cls-8" x="-240.13" y="-164.33" width="3385.57" height="2571.67"/>
</svg>