<?xml version="1.0" encoding="UTF-8"?>
<svg id="Calque_1" data-name="Calque 1" xmlns="http://www.w3.org/2000/svg" viewBox="0 0 128 128">
  <defs>
    <style>
      .cls-1 {
        fill: #d6d6d6;
      }

      .cls-1, .cls-2, .cls-3, .cls-4, .cls-5, .cls-6, .cls-7 {
        stroke-linecap: round;
        stroke-linejoin: round;
      }

      .cls-1, .cls-2, .cls-3, .cls-4, .cls-5, .cls-7 {
        stroke: #000;
      }

      .cls-2 {
        fill: #baa584;
      }

      .cls-3 {
        fill: #ffbeed;
      }

      .cls-4, .cls-7 {
        fill: #fff;
      }

      .cls-5, .cls-6 {
        fill: none;
      }

      .cls-5, .cls-7 {
        stroke-width: .75px;
      }

      .cls-6 {
        stroke: #fff;
        stroke-width: 8px;
      }
    </style>
  </defs>
  <path class="cls-4" d="m75.6,77.68c-1.62-2.87-3.98-3.9-6.21-4.07-2.23-.16-4.32.54-5.39,1.13-2.12,1.15-3.67,3.25-4.86,5.38-4.5,8.01-2.86,28.98,10.13,26.72.39-.06.76-.16,1.13-.28,1.9-.6,3.45-1.81,4.66-3.38,2.52-3.2,3.66-7.87,3.79-11.72.16-4.57-1.01-9.81-3.25-13.78Z"/>
  <path class="cls-2" d="m26.98,43.47c.14-.29.25-.59.33-.89.22-.83.24-1.65.26-2.3.06-2.31-.77-4.11-1.33-5.1"/>
  <path class="cls-2" d="m15.31,31.71c.86-.37,1.7-.68,1.7-.68"/>
  <path class="cls-2" d="m23.26,46.2c-.07.05-.15.1-.23.15h0c.08-.06.15-.1.23-.15Z"/>
  <path class="cls-2" d="m27.72,63.73s-2.93.08-3.19,0c-.26-.09-.55-1.2-.55-1.2,0,0-.87.09-.97-.13-.11-.22.24-.72.32-1.02.03-.1.06-.26.1-.44-.45-.82-.51-1.57-.79-2.83-.34-1.57-.4-1.1-.94-3.39-.28-1.22-.37-2.02-.94-3.08-.42-.79-.52-.75-.68-1.26-.15-.46-.19-.92-.17-1.35.02-.03.04-.05.06-.06,1.28-1.41,2.51-2.26,2.97-2.57.03-.02.05-.03.08-.05.08.39.15.67.21.78.59,1.32,1.08,2.34,1.61,2.88-.32.54-.56,1.06-.71,1.7-.07.29-.17.86.19,3.41.28,1.9.41,2.85.73,4,.21.79.44,1.44.62,1.97l.38.16,1.66,2.48Z"/>
  <path class="cls-2" d="m48.83,44.81c-.51.74-.79,1.14-.89,1.32-.43.86-.98,1.95-1.04,3.38-.03.88.14,1.14-.08,1.81-.26.77-.66.95-1.17,1.7-.66.95-.83,1.88-.98,2.71-.31,1.66.11,2.1-.02,3.37-.01.17-.07.66.18,1.14.07.13.14.21.16.24.12.15.3.4.57.79.27.4.62.94,1.1,1.69-2.08.24-3.32-.1-3.32-.1-.14-.04-.39-.12-.52-.33-.05-.06-.16-.29,0-.87.22-.79.58-.86.54-1.24-.03-.28-.26-.53-.47-.71-.21-.19-.42-.3-.42-.3,0,0-.41-.15-.55-.33-.21-.26.01-.75.25-1.31.19-.44.45-1.08.76-1.89,0,0,.43-.95.92-2.27.23-.63.32-.88.32-1.24.01-.55-.21-.79-.16-1.35.03-.35.1-.52.27-1.24,0,0,.14-.58.27-1.24.21-1.06.08-2.12,0-2.76-.18-1.35-.53-2.29-.79-2.97.29.1.64.22,1.12.35,1.68.46,2.6.72,3.44.44.1-.03.22-.08.34-.03.25.11.24.54.18,1.23Z"/>
  <path class="cls-2" d="m53.62,33s.55,3.36.5,4.56c-.05,1.21.05,2.41-.5,3.26-.54.83-1.12,2.14-1.37,3.11"/>
  <polyline class="cls-2" points="62.87 21.9 62.71 24.8 63.83 23.84 63.49 25.58 64.73 24.62 64.81 25.86"/>
  <path class="cls-2" d="m27.31,42.58c-.08.3-.19.6-.33.89"/>
  <path class="cls-2" d="m76.76,25.69c-.21.52-.6.89-.74,1.03-.2.2-.54.53-1.08.7-.09.03-1.04.3-1.92-.17-.44-.24-.68-.57-1.12-.58h-.08c-.21,0-.35.08-.42.11-.79.35-2.31.12-3.52-.4-.04-.01-.08-.03-.12-.05-1.26-.57-1.33-1.11-2-1.03l-.92,1.29-.05-.73c-.19.15-.42.34-.71.57-.82.68-1.23,1.02-1.33,1.11-.99.93-1.12,1.68-2.28,3.92-.84,1.63-1.26,2.45-2.02,3.5-.84,1.15-1.18,1.33-1.78,2.41-.63,1.15-.53,1.45-1.13,2.31-.7.98-1.12.97-1.92,1.89-.23.26-.94,1.12-1.39,2.36,0,.03-.01.05-.03.08-.05.15-.1.32-.14.48-.46,1.79.08,2.91-.34,4.33-.03.13-.15.5-.11,1,.05.5.22.66.36,1.11.2.65.12,1.19-.05,2.28-.11.67-.17.72-.28,1.3-.25,1.34-.04,1.81.05,4.31.02.52.03.89.25,1.3.14.25.24.32.22.48-.01.11-.08.22-.19.32l.76.32,1.66,2.48s-2.93.08-3.2,0c-.26-.09-.54-1.2-.54-1.2,0,0-.87.09-.98-.13-.11-.22.24-.72.33-1.02,0-.02.01-.05.01-.07-.34.09-.51.3-.66.23-.15-.07-.14-.38-.14-.47.03-.92.05-1.39.28-2.14,0,0,.39-1.3.28-2.83-.01-.15-.18-.93-.52-2.48-.24-1.06-.3-1.31-.34-1.76-.09-.81-.02-1.21,0-2.01.04-1.73-.23-1.67-.21-3.25,0-.7.06-1.31.1-1.79.06-.69.06-1.12-.18-1.23-.12-.05-.24,0-.34.03-.84.28-1.76.02-3.44-.44-.48-.14-.83-.26-1.12-.35h0c-.47-.16-.81-.25-1.36-.22-.32.01-.54.06-.96.15-.95.18-1.9.31-2.85.47-2.12.36-5.51.39-7.52.37-.57,0-1.03-.01-1.31-.02-.73-.01-1.66-.04-2.76-.09-.15.32-.35.64-.61.93-.15.18-.3.32-.44.42-.08.06-.17.12-.26.17-.08.05-.16.09-.25.13-.22.1-.47.2-.77.34-.09.04-.19.08-.29.14-.1.05-.21.1-.32.16-.1.06-.21.12-.34.19-.12.07-.24.14-.37.23-.02.01-.04.03-.06.04-.08.05-.15.09-.23.14h0s-.05.03-.08.05c-.46.31-1.7,1.17-2.97,2.57-.02.02-.04.04-.06.06-.56.63-1.28,1.44-1.93,2.69-.93,1.77-1.15,3.29-1.2,3.59-.21,1.48-.04,2.7.02,3.07.12.74.24,1.32.24,1.32.3,1.32.64,2.09.35,2.31l1.66,2.48s-2.93.08-3.19,0c-.26-.09-.55-1.2-.55-1.2,0,0-.87.09-.97-.13-.11-.22.24-.72.32-1.02.03-.1.06-.25.09-.41h0c.05-.29.08-.61.1-.74.01-.04.01-.06.01-.06.04-.15.03-.1-.35-5.89-.05-.74-.09-1.39-.48-2.09-.34-.59-.59-.63-.62-.97-.06-.79,1.2-1.17,2.26-2.41.53-.61.77-1.21,1.24-2.39.97-2.44,1.76-4.39,1.09-6.25-.44-1.23-1.02-1.03-2.03-3-.44-.86-.91-1.78-1.06-3-.14-1.1.01-2.21.39-3.23-.6.25-1.21.54-1.57.76-.87.55-1.51,1.13-1.51,1.13,0,0-.04-1.62.52-2.1.55-.48,5.25-4.46,7.38-4.43,2.04-1.04,3.71-1.88,5.83-2.3.69-.13.97-.14,5.04-.08,6.5.08,6.86.1,7.87-.09,2.14-.39,2.51-.84,5.04-1.15,2.02-.25,3.73-.19,3.97-.18,3.12.12,3.51.74,5.22.35,1.5-.34,2.59-1.13,3.44-1.77.8-.59,1.4-1.23,2.57-2.47,2-2.15,2.23-2.73,3.62-3.8.21-.16.57-.43,1.08-.72.37-.21.82-.43,1.33-.61.13-.05.25-.08.37-.12.12-.04.24-.06.35-.09l.08-.02.43-.11,1.46-.37.61-.15-.39.95-.1.25.26-.14,1.12-.57-.28,1.23s.02.02.03.03c.46.39.97.88,1.43,1.56.08.12.14.22.19.32.57.95.38,1.3,1.14,2.3.23.3.59.65,1.3,1.33,1.1,1.04,1.26,1.1,1.97,1.81.69.68,1.18,1.17,1.47,1.61-.43-.01-.9-.01-1.1.05-.4.11-.61.42-.52.67.1.25.5.88.81.9.15.01.59.01.99,0Z"/>
  <path class="cls-2" d="m70.91,28.55c-.33.69-.42,1.53-.42,2.5s.42,2.22.42,2.22c0,0-.34-.12-.61-.42-.26-.28-.79-1.48-.99-1.13-.2.34-.09.55,0,.96-.31-.22-.54-1.9-.8-1.55s-.26.35-.34.74c-.18-.5-.24-2.91-.24-2.91l-.42.47s-.12-1.17,0-1.73c.08-.41.25-.94.38-1.34,1.21.52,2.73.75,3.52.4.07-.03.21-.1.42-.11h.08c-.35.66-.81,1.5-.99,1.89Z"/>
  <path class="cls-2" d="m61.79,18.68s1.57-1.79,2.45-2.46c.89-.67,2.73-1.32,2.73-1.32,0,0-.26,2.43-1.2,3.37s-3.43,2.05-3.43,2.05"/>
  <path class="cls-2" d="m73.36,13.09s-.08,1.61-.95,2.46c-.48.47-1.19,1.05-1.72,1.48-.05-.1-.12-.2-.19-.32-.46-.68-.97-1.17-1.43-1.56.76-.14,1.9-.39,2.5-.67.97-.45,1.79-1.39,1.79-1.39Z"/>
  <path class="cls-1" d="m76.91,25.01c0,.24-.06.46-.15.67-.4.01-.83.01-.99,0-.31-.02-.71-.65-.81-.9-.1-.25.12-.56.52-.67.2-.06.66-.06,1.1-.05.23.34.34.63.34.95Z"/>
  <path class="cls-2" d="m27.31,42.58c-.08.3-.19.6-.33.89"/>
  <g>
    <path class="cls-3" d="m31.05,43.58c-.26,1.19-.8,3.4-1.39,4.08-.28.33-.55.66-.83.99-.37.43-.75.84-1.19,1.15v1.32s0,.03,0,.05c-.02.46-.39.82-.86.82s-.86-.39-.86-.86v-.7c-.08.01-.17.01-.25.01-.29,0-.56-.15-.83-.41-.53-.54-1.03-1.56-1.61-2.88-.05-.11-.12-.39-.21-.78.08-.05.15-.1.23-.15.03-.01.05-.03.06-.04.13-.08.26-.15.37-.23.12-.06.23-.13.34-.19.12-.06.22-.12.32-.16.1-.05.2-.1.29-.14.3-.14.55-.23.77-.34.08-.04.17-.08.25-.13.09-.05.18-.1.26-.17.14-.1.29-.24.44-.42.26-.3.46-.61.61-.93,1.1.05,2.03.08,2.76.09.28,0,.74.01,1.31.02Z"/>
    <path class="cls-3" d="m28.84,48.64v1.72c0,.48-.39.86-.86.86-.12,0-.23-.03-.33-.07,0-.01,0-.03,0-.05v-1.32c.44-.31.82-.72,1.19-1.15Z"/>
  </g>
  <path class="cls-1" d="m66.37,13.93l-.43.11-.08.02c-.12.03-.23.05-.35.09-.12.03-.24.07-.37.12-.52.18-.96.39-1.33.61-.3-.67-.84-1.73-1.64-2.66-1.01-1.15-4.65-2.44-4.65-2.44,0,0,3.02-.64,5.59.78.43.24.88.62,1.31,1.05.81.8,1.56,1.78,1.96,2.32Z"/>
  <path class="cls-1" d="m67.83,13.56l-1.46.37c-.4-.54-1.15-1.52-1.96-2.32-1.09-1.33-3.41-2.94-3.41-2.94,0,0,3.08.17,5.18,2.23.63.61,1.21,1.7,1.65,2.66Z"/>
  <circle cx="68.29" cy="20.07" r=".66"/>
  <path class="cls-1" d="m75.53,77.68c2.28,3.97,3.47,9.2,3.31,13.76-.14,3.85-1.3,8.51-3.86,11.71-1.23,1.56-2.81,2.78-4.74,3.37,3.74-.06,16.69-.29,19.87-.29,4.58-.01,9.18.5,13.76.23,6.58-.38,13.16-.95,15.52-8.09,1.74-5.31-.43-14.18-4.74-17.93-.51-.45-1.07-.84-1.66-1.2-.27-.16-.54-.32-.82-.46-.03-.02-.07-.04-.11-.05-.27-.15-.54-.28-.83-.4-.03-.02-.05-.03-.08-.04-4.44-2-10.14-2.49-14.43-3.35-7.25-1.46-20.15-1.35-27.49-1.35v.03c2.27.17,4.67,1.19,6.32,4.06Z"/>
  <path class="cls-1" d="m24.57,107.44c3.48.98,9.52,1.74,13.08,1.54,4.92-.28,10.29.16,13.51-.9.96-.31,1.67-.84,2.17-1.5-1.85.37-3.82-.86-5.67-1.69-2.72.32-5.82-.01-8.02-.01-3.97-.01-8.04.23-11.98-.28-1.62-.21-4.59-.32-5.46-2.06-.14-.29-.26-.61-.3-.96-.84,2.97.01,5.13,2.66,5.86Z"/>
  <path class="cls-4" d="m21.91,101.58c.04.35.16.67.3.96.86,1.74,3.84,1.85,5.46,2.06,3.93.51,8.01.27,11.98.28,2.2,0,5.3.33,8.02.01-.3-.14-.6-.26-.88-.36-4.36-1.57-8.9-2.45-13.52-2.95-2.01-.22-7.6-.85-8.66-2.81-1.08.21-1.9.66-2.24,1.49-.18.46-.34.89-.45,1.32Z"/>
  <path class="cls-1" d="m24.49,98.51s.03.1.05.14.04.08.06.13c1.05,1.96,6.65,2.58,8.66,2.81,4.62.5,9.16,1.37,13.52,2.95.29.11.58.22.88.36,1.85.83,3.82,2.06,5.67,1.69h0c.36-.06.71-.19,1.06-.4,1.71-1.01,1.7-3.47,2.48-4.87-.02-.17-.06-.34-.13-.51-.1.98-1.12,1.8-2.53,2.07-.43.09-.89.13-1.38.1-.13-.01-.26-.01-.38-.03-4.67-.31-7.6-1.89-10.72-2.51-1.36-.28-2.58-.51-3.75-.73-2.23-.43-4.3-.82-6.88-1.35-.79-.16-1.84-.39-2.84-.71-2.33-.77-4.38-2.03-2.15-4.14-1.54.94-2.53,2.72-1.62,5.02Z"/>
  <path class="cls-4" d="m28.25,97.62c1,.32,2.05.55,2.84.71,2.58.53,4.65.93,6.88,1.35,1.17.22,2.39.46,3.75.73,3.12.62,6.05,2.2,10.72,2.51.13.02.26.02.38.03.49.03.96-.01,1.38-.1,1.41-.28,2.44-1.1,2.53-2.07.05-.44-.1-.9-.47-1.36-1.31-1.6-4.23-2.92-6.05-3.84-3.39-1.72-7.32-2.74-11.07-3.25-2.77-.37-10.69-.94-13,1.11-.02.01-.03.03-.05.04-2.23,2.11-.18,3.37,2.15,4.14Z"/>
  <path class="cls-7" d="m76.6,91.36c-.12,3.35-1.05,7.42-3.12,10.21-1,1.36-2.27,2.43-3.83,2.95-.3.1-.61.18-.93.23-10.67,1.98-12.02-16.29-8.32-23.27.98-1.86,2.24-3.69,3.99-4.69.88-.51,2.61-1.12,4.42-.98"/>
  <path class="cls-7" d="m74.6,90.34c.1-2.96-.66-6.34-2.1-8.91-1.05-1.86-2.58-2.52-4.02-2.63-1.44-.1-2.79.35-3.49.73"/>
  <line class="cls-7" x1="81.57" y1="80.21" x2="109.27" y2="83.87"/>
  <line class="cls-7" x1="84.37" y1="97.39" x2="112.17" y2="100.15"/>
  <path class="cls-5" d="m30.14,93.84s-.03.01-.04.02c-1.79.8-.29,1.54,1.43,2.07.74.22,1.53.41,2.12.54,1.93.44,3.47.78,5.14,1.14.87.19,1.79.39,2.81.62,2.33.52,4.48,1.47,8,1.97.1.02.19.03.29.04.37.05.72.07,1.05.06,1.08-.02,1.89-.32,2.01-.76.06-.2-.03-.42-.29-.66-.92-.83-3.07-1.67-4.4-2.23"/>
  <rect class="cls-6" x="-381.94" y="-164.33" width="3385.57" height="2571.67"/>
</svg>