<?xml version="1.0" encoding="UTF-8"?>
<svg id="Calque_1" data-name="Calque 1" xmlns="http://www.w3.org/2000/svg" viewBox="0 0 128 128">
  <defs>
    <style>
      .cls-1 {
        fill: #dfa35f;
      }

      .cls-1, .cls-2, .cls-3, .cls-4, .cls-5, .cls-6, .cls-7, .cls-8, .cls-9 {
        stroke-linecap: round;
        stroke-linejoin: round;
      }

      .cls-1, .cls-2, .cls-3, .cls-4, .cls-7, .cls-8 {
        stroke: #000;
      }

      .cls-2 {
        fill: #96531c;
      }

      .cls-3 {
        fill: #baa584;
      }

      .cls-4 {
        fill: #a07637;
      }

      .cls-5 {
        fill: #ffd4ad;
      }

      .cls-5, .cls-6 {
        stroke: #1d1d1b;
      }

      .cls-6, .cls-7, .cls-8, .cls-9 {
        fill: none;
      }

      .cls-10 {
        fill: #1d1d1b;
      }

      .cls-8 {
        stroke-width: .5px;
      }

      .cls-9 {
        stroke: #fff;
        stroke-width: 8px;
      }
    </style>
  </defs>
  <g>
    <path class="cls-3" d="m115.06,43.7s-8.63.94-15.49,10.81c-6.86,9.88-6.16,15.13-5.41,18.3,1.18,4.91,9.13,7.59,11.96,6.76,4.48-1.32,7.67-5.11,8.94-8.53,1.7-4.56,3.33-12.79,2.7-18.19-.62-5.41-2.7-9.15-2.7-9.15Z"/>
    <path class="cls-8" d="m113.36,44.07c-1.31.77-1.91,1.51-2.42,2.11-.95,1.13-.88,2.06-1.94,3.26-.98,1.11-1.37,1.08-2.4,2.15-.26.27-.61.66-2.1,3.01-2.34,3.68-2.22,3.9-3.16,4.81-.96.94-1.43,1.04-2,2-.59.98-.49,1.54-1.15,2.61-.6.96-1.17,1.31-1.65,1.8-1.47,1.51-1.42,3.67-1.5,5.41-.04.79-.27,1.95-.02,3.33"/>
    <path class="cls-8" d="m100.52,60.13c.44-.69,1.7-2.73,2.09-3.99.42-1.37.19-2.27.46-3.46.23-.97.92-2.84,2.18-4.33"/>
    <path class="cls-8" d="m103.18,52.29c-.8,1.16-1.31,2.62-1.69,3.2-.44.68-.86,1.17-1.36,1.78-1.18,1.41-1.26,1.24-1.78,1.99-.82,1.17-1.14,2.32-1.36,3.09-.18.65-.09,1.26-.35,2.29-.15.59-.57,1.59-.68,1.91"/>
    <path class="cls-8" d="m114.84,44.06c-.98,1.33-1.62,2.49-2.02,3.3-.56,1.14-.77,1.84-1.71,3.7-.44.88-.66,1.32-.94,1.76-1.05,1.68-1.57,1.7-2.02,2.82-.42,1.02-.08,1.24-.46,2.68-.29,1.13-.72,1.85-1.2,2.7-1.82,3.26-1.32,2.97-3.27,6.43-1.01,1.79-1.41,2.34-2.28,4.07-.75,1.5-1.08,2.35-1.31,3.33-.29,1.26-.32,2.35-.28,3.1"/>
    <path class="cls-8" d="m99.61,75.02c-.38-1.6.61-4.58.82-5.42.38-1.54.57-2.32.84-3.09.55-1.54.75-1.45,1.2-2.83.44-1.36.3-1.6.78-2.96.24-.69.42-1.03,1.01-2.24,1.12-2.34,1.55-3.26,1.66-3.54-.2.17-.56.69-1.62,1.75-.45.45-1.98,1.69-2.27,1.93"/>
    <path class="cls-8" d="m97.69,76.89c-.03-.43-.05-1-.03-1.68.01-.34.06-1.27.33-2.6.28-1.39.4-1.23.71-2.7.19-.9.35-1.66.43-2.7.06-.78.03-1.04.18-1.58.31-1.08.93-1.72.92-1.73-.02-.01-1.06,1.05-1.81,2.8-.3.71-.32.97-.74,2.26-.48,1.48-.69,1.69-.99,2.77-.17.59-.34,1.21-.43,2.06-.09.83-.07,1.53-.03,2.04"/>
    <path class="cls-8" d="m113.59,49.64c-.48.62-1.03,1.43-1.55,2.41-.28.52-.76,1.44-1.15,2.7-.46,1.49-.22,1.61-.63,2.93-.38,1.23-.68,1.45-1.49,3.22-.59,1.29-.94,2.29-1.26,3.22-1.05,3.02-1.6,5.49-1.78,5.46-.14-.02.22-1.73.35-3.74.09-1.37.11-2.02.23-3.05.11-.91.34-2.01.53-2.36"/>
    <path class="cls-8" d="m100.51,78.4c.05-.52.16-1.3.41-2.22.17-.61.28-.85.95-2.63.51-1.35.77-2.04.95-2.6.34-1.07.8-3.54.8-4.2"/>
    <path class="cls-8" d="m101.51,78.78c.3-.37.7-.91,1.09-1.59.34-.6.8-1.41,1.09-2.54.2-.8.27-1.57.32-2.14.04-.48.05-.78.12-1.35.08-.61.17-1.11.24-1.43"/>
    <path class="cls-8" d="m115.33,44.94c-.04.64-.07,1.42-.07,2.3,0,1.66.12,2,0,3.03-.12,1.04-.28,1.01-.45,2.25-.14,1.01-.22,1.65-.12,2.51.14,1.15.49,1.61.45,2.87,0,.18-.02.47.02.47.08.01.25-.76.59-2.04.39-1.44.43-1.44.69-2.46.14-.54.74-3.01.74-4.35"/>
    <path class="cls-8" d="m117.68,52.7c-.06.5-.46,2.69-.72,3.57-.52,1.79-1.02,2.96-1.39,4.1-.27.84-.53,2.23-1.03,5.02-.08.47-.47,2.58-.98,5.15-.16.78-.34,1.7-.84,2.82-.43.97-.82,1.73-1.08,2.09-.6.82-1.3,1.88-1.8,2.31"/>
    <path class="cls-8" d="m104.93,79.32c.83-.6,1.96-1.56,2.93-3.02.28-.41,1.33-2.04,1.83-4.42.33-1.61.05-1.83.51-4.33.27-1.47.57-2.48.64-2.72.31-1.03.42-1.15,1.1-3.02.63-1.73.74-2.63.93-3.58.22-1.09.11-2.08.15-2.52.06-.79.15-1.2.5-1.89.26.91.09,2.26.27,5.22.04.67-.05.9-.01,1.49.09,1.31-.34,2.02-.81,3.48-.21.67-.43,1.82-.85,4.12-.37,2-.35,2.25-.64,3.14-.3.93-.52,1.27-1.06,2.63-.46,1.14-1.27,3.12-2.38,4.85"/>
    <path class="cls-8" d="m111.9,56.96c-.53,1.43-.93,2.69-1.23,3.69-.25.86-.59,2.02-.93,3.55-.35,1.6-.36,2.05-.76,3.62-.27,1.06-.42,1.61-.72,2.3-.57,1.32-.84,1.26-1.49,2.61-.62,1.31-.51,1.67-1.18,2.97-.37.72-.76,1.28-1.02,1.64"/>
    <path class="cls-8" d="m111.08,72.32c.32-.72,1.97-3.58,2.28-4.37.2-.51,1.05-2.47,1.22-2.96"/>
  </g>
  <g>
    <path class="cls-3" d="m58.58,50.34s-1.32,8.58,6.46,17.75c7.78,9.18,13.03,9.86,16.29,9.94,5.05.13,9.68-6.87,9.61-9.81-.12-4.67-2.96-8.72-5.93-10.84-3.97-2.82-11.5-6.51-16.88-7.3-5.38-.79-9.54.25-9.54.25Z"/>
    <path class="cls-8" d="m58.5,52.08c.4,1.47.96,2.23,1.42,2.88.85,1.21,1.76,1.38,2.65,2.71.82,1.23.69,1.6,1.46,2.88.19.32.48.76,2.36,2.81,2.95,3.21,3.19,3.15,3.83,4.29.66,1.17.64,1.65,1.42,2.45.8.82,1.36.87,2.22,1.78.78.83.96,1.47,1.32,2.06,1.08,1.81,3.19,2.32,4.84,2.85.76.24,1.81.77,3.21.88"/>
    <path class="cls-8" d="m70.71,68.62c-.55-.61-2.2-2.35-3.31-3.05-1.22-.76-2.15-.76-3.22-1.34-.88-.47-2.51-1.62-3.62-3.23"/>
    <path class="cls-8" d="m63.82,64.03c.91,1.07,2.2,1.94,2.66,2.46.54.6.91,1.13,1.37,1.77,1.06,1.5.88,1.53,1.46,2.23.92,1.09,1.95,1.7,2.64,2.11.58.34,1.2.41,2.13.93.53.3,1.39.96,1.67,1.15"/>
    <path class="cls-8" d="m58.87,50.65c1.03,1.29,1.99,2.21,2.67,2.8.95.83,1.57,1.22,3.14,2.6.74.65,1.11.98,1.46,1.36,1.35,1.45,1.24,1.95,2.2,2.68.88.66,1.18.4,2.47,1.13,1.02.57,1.6,1.17,2.3,1.85,2.68,2.6,2.53,2.04,5.37,4.82,1.47,1.44,1.9,1.97,3.35,3.25,1.25,1.11,1.99,1.65,2.88,2.12,1.14.61,2.19.91,2.92,1.07"/>
    <path class="cls-8" d="m84.86,73.35c-1.65-.05-4.27-1.77-5.03-2.19-1.39-.76-2.1-1.15-2.76-1.61-1.35-.93-1.21-1.1-2.42-1.89-1.2-.78-1.47-.7-2.66-1.52-.6-.41-.88-.67-1.91-1.55-1.97-1.69-2.75-2.33-3-2.51.11.24.52.72,1.28,2.02.32.55,1.12,2.35,1.28,2.69"/>
    <path class="cls-8" d="m86.18,75.68c-.42-.08-.98-.21-1.63-.41-.33-.1-1.21-.39-2.42-.99-1.27-.63-1.09-.71-2.42-1.38-.82-.42-1.51-.77-2.49-1.11-.74-.26-1-.29-1.48-.58-.97-.57-1.42-1.34-1.44-1.33-.02.01.75,1.29,2.24,2.47.6.48.85.56,2,1.3,1.31.84,1.46,1.1,2.42,1.67.52.31,1.08.64,1.88.95.78.3,1.46.46,1.96.55"/>
    <path class="cls-8" d="m63.94,53.29c.48.62,1.11,1.36,1.93,2.12.43.4,1.19,1.1,2.31,1.81,1.32.83,1.5.63,2.67,1.37,1.09.68,1.23,1.04,2.72,2.27,1.1.91,1.97,1.5,2.78,2.05,2.65,1.8,4.89,2.97,4.82,3.13-.06.13-1.62-.66-3.53-1.3-1.3-.44-1.92-.62-2.88-1.01-.85-.34-1.85-.85-2.14-1.12"/>
    <path class="cls-8" d="m88.36,73.34c-.49-.18-1.21-.49-2.04-.97-.54-.32-.75-.49-2.3-1.6-1.17-.84-1.77-1.27-2.27-1.59-.95-.61-3.21-1.68-3.85-1.85"/>
    <path class="cls-8" d="m88.98,72.48c-.28-.39-.7-.91-1.26-1.46-.49-.49-1.16-1.14-2.18-1.71-.72-.4-1.45-.67-1.98-.86-.45-.16-.74-.25-1.28-.47-.57-.23-1.03-.45-1.32-.6"/>
    <path class="cls-8" d="m59.84,50.41c.61.2,1.35.44,2.2.66,1.6.42,1.97.4,2.93.78.97.39.9.53,2.06,1.01.94.39,1.54.64,2.4.76,1.15.16,1.68-.06,2.89.3.18.05.44.14.46.1.03-.07-.67-.44-1.82-1.1-1.3-.75-1.28-.79-2.2-1.3-.49-.27-2.72-1.49-4.01-1.83"/>
    <path class="cls-8" d="m67.95,50.13c.47.18,2.48,1.14,3.26,1.61,1.6.97,2.6,1.75,3.6,2.4.74.48,2.02,1.08,4.58,2.29.43.2,2.38,1.12,4.73,2.27.71.35,1.55.77,2.51,1.54.83.67,1.46,1.23,1.74,1.58.64.79,1.48,1.74,1.77,2.33"/>
    <path class="cls-8" d="m90.39,69.31c-.36-.96-1.01-2.29-2.16-3.61-.33-.38-1.63-1.81-3.8-2.9-1.47-.74-1.76-.52-4.05-1.61-1.35-.64-2.25-1.19-2.46-1.32-.92-.56-1-.7-2.63-1.84-1.51-1.06-2.35-1.39-3.22-1.82-1-.49-1.98-.64-2.4-.79-.75-.27-1.12-.46-1.69-.97.94-.02,2.2.5,5.12,1.09.65.13.85.28,1.43.39,1.29.25,1.86.85,3.16,1.68.6.38,1.65.88,3.76,1.88,1.83.87,2.09.92,2.87,1.43.82.53,1.1.83,2.27,1.7.99.74,2.68,2.03,4.07,3.55"/>
    <path class="cls-8" d="m70.58,56.82c1.25.88,2.36,1.6,3.25,2.14.77.47,1.79,1.09,3.19,1.81,1.45.75,1.89.87,3.3,1.67.95.54,1.44.82,2.04,1.29,1.13.89,1,1.14,2.14,2.11,1.11.94,1.49.92,2.57,1.9.6.55,1.04,1.06,1.32,1.41"/>
    <path class="cls-8" d="m85.21,61.56c-.61-.5-2.95-2.83-3.64-3.33-.44-.32-2.12-1.66-2.55-1.95"/>
  </g>
  <g>
    <path class="cls-5" d="m69.24,7.31c-1.11-.08-2.4-.1-3.93-.13-4.6-.06-8.32-.12-12.7,1.84-4.07,1.82-6.77,4.5-7.73,5.53-1.98,2.11-2.13,3.05-3.87,4.79-.59.59-1.21,1.11-1.85,1.58-1.77.23-3.77.41-5.96.5-5.14.19-6.94-.37-9.85,0-7.05.9-12.16,5.4-14,8.43q-1.44,2.38-2.07,4.25c-.18.53-.05,1.56-.56,2.02-.68.62-1.58.53-2.31,1.12-.87.7-.39,2.55-.37,2.63.41,1.48,1.57,2.3,2.39,2.94,3.01,2.34,2.29,2.98,4.96,5.14,3.59,2.91,7.45,3.84,8.75,4.1,4.2.86,7.56.13,9.49-.3,5.28-1.2,9.23-3.84,13.02-6.35,4.31-2.87,5.1-4.16,8.15-4.85,2.39-.54,2.94.02,7.34-.47,2.63-.29,4.99-.55,7.72-1.59,4.29-1.63,6.96-4.21,7.54-4.79,1.31-1.3,4.47-4.51,5.53-9.76.2-.99.67-3.43.13-6.43-.15-.82-.36-1.69-.68-2.58-.28-.79-.67-1.84-1.28-2.92-.43-.75-.98-1.51-1.7-2.21-.27-.27-.56-.53-.89-.77-1.52-1.13-3.07-1.54-5.28-1.71"/>
    <path class="cls-6" d="m9.83,33.7c1.4-1.22,3.67-2.91,6.82-4.06,1.04-.38,1.91-.61,7.85-1.58,6.04-.98,6.79-1.01,9.3-1.57,3.7-.82,5.55-1.23,7.34-2.23,2.15-1.2,2.75-2.17,5.37-3.4,2.04-.96,3.61-1.29,4.71-1.57,1.16-.3,8.95-2.34,14.54-7.73.98-.94,2.24-2.33,3.48-4.26"/>
    <path class="cls-6" d="m10.36,38.81c1.3-.62,3.33-1.41,5.9-1.7,2.57-.3,3.27.17,6.68.26,3.14.08,6.35.16,9.82-1.18,1.67-.64,3.04-1.52,5.76-3.27,3.21-2.06,3.23-2.48,4.98-3.27,2.44-1.11,3.6-.84,7.07-1.58,0,0,3.61-.77,7.34-2.36,5.04-2.15,8.31-5.16,10.34-7.07,3.22-3.01,5.53-6.14,7.17-8.85"/>
    <path class="cls-6" d="m11.93,42.34c.91.24,2.16.54,3.67.79,2.03.33,3.69.45,5.63.53,5.03.2,7.54.3,9.04,0,3.7-.75,6.37-2.5,7.72-3.41,3.44-2.3,3.28-3.48,6.42-5.11,2.57-1.33,4.98-1.72,6.55-1.96,3.63-.56,4.42.11,7.07-.39,3.23-.61,5.38-2.23,7.46-3.8,4.21-3.16,6.4-6.8,8.25-9.95,1.02-1.74,2.25-4.1,3.36-7.04"/>
    <path class="cls-6" d="m12.64,44.94c1.25.98,3.31,2.33,6.13,3.13,3.12.88,5.65.65,8.12.43,1.68-.16,4.8-.47,8.41-1.99,2.92-1.24,3.21-2.03,7.98-4.85,3.21-1.9,4.81-2.84,6.7-3.56,5.3-2.04,6.83-.55,13.11-2.42,2.73-.82,5.36-1.63,7.99-3.85,2.35-1.99,3.51-4.1,4.84-6.56.99-1.84,2.21-4.44,3.15-7.77h0"/>
    <g>
      <g>
        <path class="cls-10" d="m14.83,32.99c.08.08.16.16.23.24.02.02.03.04.05.06.01.02.07.09.01.01s0,0,.01.01c.02.02.03.04.05.06.13.18.24.37.33.58.01.02.02.05.03.07.03.07-.05-.12-.02-.04.02.05.04.1.06.15.04.1.07.21.1.32.03.1.05.2.06.31,0,.02.02.14,0,.03-.01-.1,0,0,0,.01,0,.06.01.12.01.18.02.33.27.64.62.62.32-.01.65-.28.62-.62-.07-1.08-.52-2.12-1.3-2.88-.23-.23-.65-.25-.88,0s-.25.64,0,.88h0Z"/>
        <path class="cls-10" d="m21.41,31.66c.15.22.29.45.4.7.01.03.03.07.04.1-.03-.07-.03-.07,0,0,.02.07.05.13.07.2.04.12.07.24.1.36s.05.24.07.37c.01.07.01.07,0,0,0,.04,0,.07.01.11,0,.07.01.14.02.21,0,.13,0,.25,0,.38,0,.07,0,.14-.01.21,0,.03-.03.26,0,.1-.02.17-.03.32.06.48.08.13.22.25.37.29.29.07.72-.09.77-.44.18-1.29-.08-2.62-.83-3.69-.19-.27-.56-.42-.86-.22-.27.17-.42.57-.22.86h0Z"/>
        <path class="cls-10" d="m27.39,30.78c.51.36.92.9,1.2,1.53s.39,1.48.37,2.25c-.01.34.3.62.62.62.35,0,.61-.29.62-.62.06-1.88-.61-3.75-2.18-4.85-.28-.2-.7-.05-.86.22-.18.31-.05.66.22.86h0Z"/>
        <path class="cls-10" d="m32.5,29.56c.21.18.41.38.59.59.03.03.05.06.08.09-.03-.04-.05-.07-.01-.01s.08.12.12.18c.08.12.15.24.22.37.07.12.12.24.18.36.05.11-.02-.07,0,0,.01.03.02.06.03.09.03.07.05.13.07.2.04.13.08.26.11.39.02.07.03.14.04.21,0,.04.01.08.02.12.02.09-.02-.16,0,0,.04.32.26.64.62.62.31-.01.67-.28.62-.62-.16-1.34-.78-2.6-1.83-3.48-.25-.21-.64-.26-.88,0-.21.23-.27.66,0,.88h0Z"/>
        <path class="cls-10" d="m38.47,27.28c.13.19.24.39.33.6l-.06-.15c.12.3.21.61.25.93l-.02-.17c.02.15.03.3.03.45,0,.33.29.64.62.62s.63-.27.62-.62c0-.81-.25-1.62-.7-2.29-.09-.14-.21-.24-.37-.29-.15-.04-.35-.02-.48.06-.27.17-.42.57-.22.86h0Z"/>
        <path class="cls-10" d="m43.07,25.45c.11.1.21.22.3.34l-.1-.13c.16.21.29.43.4.67l-.06-.15c.07.17.13.35.17.53.07.32.46.54.77.44.33-.11.51-.43.44-.77-.15-.68-.52-1.33-1.03-1.81-.12-.11-.28-.18-.44-.18-.15,0-.34.07-.44.18-.22.24-.25.64,0,.88h0Z"/>
        <path class="cls-10" d="m48.37,22.39s.07.04.11.06c-.05-.03-.02-.02.02.01.07.06.13.13.19.2.05.06.1.12.15.18,0,0,.08.1.04.05s.04.05.04.06c.2.27.38.56.53.86.04.07.07.14.11.22.02.04.03.07.05.11.04.09-.03-.08,0,.02.06.16.12.32.17.48.1.32.18.65.23.99s.47.53.77.44c.35-.11.49-.42.44-.77-.11-.75-.36-1.49-.72-2.16-.17-.32-.36-.62-.58-.91-.26-.34-.54-.72-.93-.91-.29-.14-.69-.09-.86.22-.15.28-.09.7.22.86h0Z"/>
        <path class="cls-10" d="m54.92,20.82c.11.11.21.23.31.36-.06-.08.06.08.08.11.05.06.09.13.13.19.09.13.17.27.24.41.04.07.07.14.11.21.02.04.03.07.05.11,0,.01.07.15.04.09-.02-.06.02.05.02.06.01.04.03.07.04.11.03.07.05.15.08.22.05.15.09.3.12.45.02.08.03.15.05.23,0,.04.01.08.02.12,0,.01.02.13.01.06s0,.05,0,.06c0,.04,0,.08.01.12,0,.09.01.18.02.26.01.33.28.64.62.62.33-.01.64-.28.62-.62-.06-1.51-.66-2.95-1.7-4.06-.22-.24-.66-.24-.88,0-.24.26-.24.63,0,.88h0Z"/>
        <path class="cls-10" d="m61.37,17.29c.04.06.05.06,0,0,.02.03.05.06.07.09.04.06.09.12.13.19.07.11.14.22.2.34.07.13.14.27.2.41-.05-.12.03.09.04.11.02.06.04.12.07.19.09.27.14.55.2.83,0,.05,0,.04,0-.03,0,.04,0,.08.01.11,0,.08.01.15.02.23,0,.15.01.3,0,.45,0,.33.29.64.62.62s.62-.27.62-.62c.04-1.39-.45-2.73-1.31-3.81-.2-.26-.67-.23-.88,0-.25.27-.22.61,0,.88h0Z"/>
        <path class="cls-10" d="m66.06,14.18c.22.1.43.23.62.38l-.13-.1c.23.18.44.39.62.62l-.1-.13c.16.21.29.43.4.67.06.13.24.25.37.29.15.04.35.02.48-.06s.25-.21.29-.37c.04-.17.01-.32-.06-.48-.37-.81-1.06-1.51-1.86-1.89-.15-.07-.31-.11-.48-.06-.14.04-.3.15-.37.29-.08.15-.12.32-.06.48.05.15.14.3.29.37h0Z"/>
        <path class="cls-10" d="m71.33,17.65c.16.17.33.33.49.5.06.06.12.1.2.13.07.04.15.06.24.05.09,0,.17-.01.24-.05.08-.03.14-.07.2-.13l.1-.13c.06-.1.08-.2.09-.32l-.02-.17c-.03-.11-.08-.2-.16-.28-.16-.17-.33-.33-.49-.5-.06-.06-.12-.1-.2-.13-.07-.04-.15-.06-.24-.05-.09,0-.17.01-.24.05-.08.03-.14.07-.2.13l-.1.13c-.06.1-.08.2-.09.32l.02.17c.03.11.08.2.16.28h0Z"/>
        <path class="cls-10" d="m68.38,22.02s.02,0,.03,0l-.17.02s.04,0,.06,0l-.17-.02s.04,0,.05.02l-.15-.06s.06.03.09.05l-.13-.1c.07.05.13.12.18.19.06.08.13.15.19.23.13.16.26.31.39.47.06.06.12.1.2.13.07.04.15.06.24.05.15,0,.34-.07.44-.18s.19-.28.18-.44l-.02-.17c-.03-.11-.08-.2-.16-.28-.17-.21-.35-.42-.52-.63-.07-.09-.15-.18-.24-.26-.13-.1-.22-.17-.38-.22-.07-.02-.15-.03-.23-.03-.01,0-.02,0-.04,0-.06,0-.13.01-.2.03-.15.03-.3.16-.37.29s-.11.33-.06.48.14.3.29.37c.15.08.31.1.48.06h0Z"/>
        <path class="cls-10" d="m64.06,24.67c.07.07.13.13.2.2.03.04.06.07.09.11.01.02.03.04.04.06-.06-.08-.07-.09-.03-.04.11.15.2.3.29.47.02.04.04.07.05.11.01.02.02.04.03.06.03.06.02.04-.02-.05.02.09.07.18.1.27.06.18.1.37.12.55l-.02-.17c0,.06.01.12.02.18.01.17.06.32.18.44.11.11.29.19.44.18.31-.01.66-.28.62-.62-.09-1-.51-1.94-1.23-2.63-.24-.23-.65-.25-.88,0s-.25.64,0,.88h0Z"/>
        <path class="cls-10" d="m57.88,28.03c.03.05.06.11.08.17-.04-.15,0-.01,0,.02.04.1.07.2.11.31.06.2.11.4.14.61.03.17,0-.09,0,.04,0,.05,0,.09.01.14,0,.11.01.22.02.32s0,.22,0,.32c0,.05,0,.09-.01.14,0,.04-.03.25,0,.06-.02.17-.03.32.06.48.08.13.22.25.37.29.29.07.72-.09.77-.44.08-.56.08-1.09,0-1.65-.08-.51-.25-.99-.47-1.45-.14-.3-.59-.4-.86-.22-.3.2-.38.54-.22.86h0Z"/>
        <path class="cls-10" d="m51.16,29.94c.05.39.11.77.16,1.16.02.14.17.3.29.37.13.08.33.11.48.06s.3-.14.37-.29l.06-.15c.03-.11.03-.22,0-.33-.05-.39-.11-.77-.16-1.16-.02-.14-.17-.3-.29-.37-.13-.08-.33-.11-.48-.06s-.3.14-.37.29l-.06.15c-.03.11-.03.22,0,.33h0Z"/>
        <path class="cls-10" d="m45.44,31.32c.12.1.23.21.32.33l-.1-.13c.11.14.19.29.26.44l-.06-.15h0c.02.09.06.16.11.22.04.07.1.12.18.16.07.05.15.07.23.07.08.02.17.01.25-.01.15-.05.3-.14.37-.29l.06-.15c.03-.11.03-.22,0-.33-.09-.21-.18-.4-.31-.58s-.27-.34-.44-.48c-.06-.06-.12-.1-.2-.13-.07-.04-.15-.06-.24-.05-.09,0-.17.01-.24.05-.08.03-.14.07-.2.13-.11.12-.19.28-.18.44l.02.17c.03.11.08.2.16.28h0Z"/>
        <path class="cls-10" d="m41.17,33.65c.07.03.13.07.19.11l-.13-.1c.06.05.12.1.16.16l-.1-.13c.05.06.09.13.12.2l-.06-.15s.02.06.03.1c.02.08.06.15.11.21.04.07.1.12.18.16.07.05.15.07.23.07.08.02.17.01.25-.01l.15-.06c.09-.06.17-.13.22-.22l.06-.15c.03-.11.03-.22,0-.33-.03-.11-.08-.23-.14-.33s-.13-.2-.21-.28-.17-.16-.27-.23c-.06-.04-.11-.08-.18-.1-.07-.05-.15-.07-.23-.07-.08-.02-.17-.01-.25.01-.08.02-.15.06-.21.11-.07.04-.12.1-.16.18l-.06.15c-.03.11-.03.22,0,.33l.06.15c.06.09.13.17.22.22h0Z"/>
        <path class="cls-10" d="m36.79,36.67s.04,0,.07,0l-.17-.02s.04.01.07.02l-.15-.06c.06.03.11.06.16.1l-.13-.1c.36.28.68.61.96.98l-.1-.13c.07.09.14.19.21.29.09.14.21.24.37.29.15.04.35.02.48-.06s.25-.21.29-.37.03-.34-.06-.48c-.23-.34-.49-.66-.77-.95-.13-.13-.26-.25-.39-.36-.24-.2-.5-.4-.83-.38-.16,0-.32.06-.44.18-.11.11-.19.29-.18.44s.06.33.18.44.28.19.44.18h0Z"/>
        <path class="cls-10" d="m30.56,38.75c.07.12.13.24.18.36-.06-.14,0,.03.02.06.02.06.04.11.05.17.04.13.06.26.09.39s0-.11,0,.03c0,.07.01.13.02.2,0,.12,0,.24,0,.35,0,.07-.01.13-.02.2,0,.07,0,.07,0-.02,0,.03-.01.07-.02.1-.02.12-.05.23-.08.34-.02.06-.04.13-.06.19-.01.03-.02.06-.04.09.03-.07.03-.08,0-.01-.13.3-.09.69.22.86.27.14.71.09.86-.22.54-1.2.51-2.58-.16-3.73-.16-.28-.57-.41-.86-.22s-.4.55-.22.86h0Z"/>
        <path class="cls-10" d="m23.12,39.11c-.02-.12.01.12.02.14,0,.08.02.16.03.25.01.14.02.29.03.43.02.28.03.57.02.85,0,.1.01.25-.02.34.01-.08.01-.1,0-.05,0,.02,0,.04-.01.07-.01.06-.02.12-.04.17,0,.03-.02.06-.03.08-.02.06-.02.06.02-.03,0,.03-.04.09-.06.12-.01.02-.03.05-.05.07.06-.07.06-.08.02-.02-.04.04-.08.08-.13.12-.25.21-.23.67,0,.88.27.25.61.22.88,0,.49-.4.63-1.06.66-1.66.03-.7-.04-1.4-.13-2.09-.04-.33-.48-.53-.77-.44-.36.12-.48.42-.44.77h0Z"/>
        <path class="cls-10" d="m16.75,38.9c.04.06.07.12.1.18,0,.02.08.17.02.04.05.11.08.23.11.34.02.06.04.14.04.2,0-.11,0-.02,0,.04,0,.12.01.24,0,.36,0,.05,0,.11-.01.16,0,.07,0,.07,0,0,0,.04-.01.07-.02.11-.02.13-.05.25-.09.38s-.08.25-.13.37.04-.08-.02.06c-.03.07-.06.13-.09.2-.14.29-.09.69.22.86.28.15.7.09.86-.22.56-1.15.81-2.55.08-3.7-.18-.28-.56-.41-.86-.22s-.41.56-.22.86h0Z"/>
        <path class="cls-10" d="m74.38,21.45c.07.05.13.12.18.19l-.1-.13c.06.08.11.16.14.25l-.06-.15c.04.09.07.19.08.29l-.02-.17s0,.05,0,.07c0,.09.01.17.05.24.03.08.07.14.13.2.06.06.12.1.2.13.07.04.15.06.24.05.16,0,.33-.06.44-.18s.19-.28.18-.44c0-.13-.02-.26-.06-.39s-.09-.25-.15-.36-.14-.21-.22-.31c-.05-.06-.11-.12-.17-.17-.06-.06-.12-.1-.2-.13-.07-.04-.15-.06-.24-.05-.09,0-.17.01-.24.05-.08.03-.14.07-.2.13-.11.12-.19.28-.18.44l.02.17c.03.11.08.2.16.28h0Z"/>
        <path class="cls-10" d="m71.06,26.63c.13.19.24.39.33.6l-.06-.15c.11.26.19.53.23.8.02.14.17.3.29.37.13.08.33.11.48.06s.3-.14.37-.29l.06-.15c.03-.11.03-.22,0-.33-.09-.55-.31-1.1-.63-1.56-.09-.14-.21-.24-.37-.29-.15-.04-.35-.02-.48.06s-.25.21-.29.37-.03.34.06.48h0Z"/>
        <path class="cls-10" d="m67.12,29.96c.03.13.05.26.07.39l-.02-.17c.05.38.05.77,0,1.15l.02-.17c-.03.2-.07.39-.12.59-.09.31.11.69.44.77s.68-.1.77-.44c.22-.8.24-1.65.05-2.46-.07-.32-.46-.54-.77-.44-.33.11-.51.43-.44.77h0Z"/>
        <path class="cls-10" d="m58.75,34.45s0,.03,0,.04l-.02-.17c0,.08,0,.15,0,.23l.02-.17c-.01.08-.03.15-.06.22-.03.08-.03.17-.01.25,0,.08.03.16.07.23.04.07.09.13.16.18.06.06.13.09.21.11l.17.02c.11,0,.22-.03.32-.09l.13-.1c.08-.08.13-.17.16-.28.05-.13.07-.27.08-.41s0-.28-.03-.41c-.02-.08-.06-.15-.11-.21-.04-.07-.1-.12-.18-.16-.07-.05-.15-.07-.23-.07-.08-.02-.17-.01-.25.01l-.15.06c-.09.06-.17.13-.22.22l-.06.15c-.03.11-.03.22,0,.33h0Z"/>
        <path class="cls-10" d="m49.99,35c.02.12.06.24.1.35.06.16.13.32.21.47.04.07.09.13.16.18.06.06.13.09.21.11.08.03.17.03.25.01.08,0,.16-.03.23-.07.13-.09.25-.21.29-.37l.02-.17c0-.11-.03-.22-.09-.32-.04-.07-.07-.14-.11-.22l.06.15c-.06-.15-.11-.3-.14-.45-.02-.08-.06-.15-.11-.21-.04-.07-.1-.12-.18-.16-.07-.05-.15-.07-.23-.07-.08-.02-.17-.01-.25.01-.15.05-.3.14-.37.29l-.06.15c-.03.11-.03.22,0,.33h0Z"/>
        <path class="cls-10" d="m44.26,37.49c.06.04.12.08.17.12l-.13-.1c.14.11.27.24.38.39l-.1-.13c.08.1.14.2.2.31.04.07.09.13.16.18.06.06.13.09.21.11.08.03.17.03.25.01.08,0,.16-.03.23-.07.13-.09.25-.21.29-.37l.02-.17c0-.11-.03-.22-.09-.32-.05-.09-.1-.17-.15-.25-.08-.12-.17-.23-.27-.34-.16-.18-.36-.33-.56-.46-.07-.05-.15-.07-.23-.07-.08-.02-.17-.01-.25.01-.08.02-.15.06-.21.11-.07.04-.12.1-.16.18-.08.15-.12.32-.06.48s.15.28.29.37h0Z"/>
        <path class="cls-10" d="m32.74,44.87c.08.03.15.08.22.13l-.13-.1c.07.05.13.11.18.18l-.1-.13c.05.07.09.14.13.22l-.06-.15s.02.05.03.08c.02.08.06.15.11.21.04.07.1.12.18.16.07.05.15.07.23.07.08.02.17.01.25-.01l.15-.06c.09-.06.17-.13.22-.22l.06-.15c.03-.11.03-.22,0-.33-.04-.12-.09-.23-.15-.34s-.14-.2-.22-.29-.18-.17-.28-.24c-.06-.04-.12-.08-.19-.11-.07-.05-.15-.07-.23-.07-.08-.02-.17-.01-.25.01-.08.02-.15.06-.21.11-.07.04-.12.1-.16.18l-.06.15c-.03.11-.03.22,0,.33l.06.15c.06.09.13.17.22.22h0Z"/>
        <path class="cls-10" d="m23.11,45.43c0,.13,0,.25-.02.38l.02-.17c-.03.2-.08.4-.16.6-.03.08-.03.17-.01.25,0,.08.03.16.07.23.08.13.22.25.37.29.16.04.34.03.48-.06l.13-.1c.08-.08.13-.17.16-.28.06-.16.11-.32.14-.49.04-.22.06-.43.06-.65,0-.16-.07-.33-.18-.44-.11-.11-.29-.19-.44-.18s-.33.06-.44.18-.19.27-.18.44h0Z"/>
        <path class="cls-10" d="m16.82,44.7c-.11.18-.22.36-.32.54-.05.07-.07.15-.07.23-.02.08-.01.17.01.25.02.08.06.15.11.21.04.07.1.12.18.16l.15.06c.11.03.22.03.33,0l.15-.06c.09-.06.17-.13.22-.22.11-.18.22-.36.32-.54.05-.07.07-.15.07-.23.02-.08.01-.17-.01-.25-.02-.08-.06-.15-.11-.21-.04-.07-.1-.12-.18-.16l-.15-.06c-.11-.03-.22-.03-.33,0l-.15.06c-.09.06-.17.13-.22.22h0Z"/>
        <path class="cls-10" d="m22.77,24.69c.1,0,.2,0,.3,0l-.17-.02c.13.02.26.06.39.11l-.15-.06c.07.03.14.07.21.11.04.02.08.05.12.07.02.01.04.03.06.04l-.07-.06c.14.09.26.23.36.36.03.04.1.15,0,0,.02.03.05.07.07.1.05.07.09.14.14.21.09.15.18.29.27.44.17.28.57.41.86.22s.4-.55.22-.86c-.27-.46-.56-.94-.96-1.29-.45-.39-1.04-.68-1.65-.63-.17.02-.32.06-.44.18-.11.11-.19.29-.18.44.01.31.28.66.62.62h0Z"/>
        <path class="cls-10" d="m16.97,27.21s.04-.01.06-.01l-.17.02s.04,0,.07,0l-.17-.02s.05.01.08.02l-.15-.06s.07.04.1.06l-.13-.1s.08.08.12.12l-.1-.13c.06.08.11.17.16.25.11.16.24.31.41.41.14.08.32.11.48.06.08-.02.15-.06.21-.11.07-.04.12-.1.16-.18.08-.15.12-.32.06-.48s-.14-.29-.29-.37c-.02-.01-.04-.02-.06-.04l.13.1s-.07-.07-.1-.1l.1.13c-.12-.16-.21-.34-.35-.49-.06-.06-.13-.12-.21-.16s-.16-.08-.24-.11c-.02,0-.03-.01-.05-.01-.07-.01-.14-.02-.21-.03-.09,0-.18,0-.27.04-.08.02-.15.06-.21.11-.07.04-.12.1-.16.18-.05.07-.07.15-.07.23-.02.08-.01.17.01.25.05.15.14.3.29.37s.32.12.48.06h0Z"/>
        <path class="cls-10" d="m44.95,18.34s.09,0,.14.01l-.17-.02c.16.02.32.07.48.13l-.15-.06c.29.12.54.3.79.49l-.13-.1c.1.08.19.15.29.23.13.11.26.18.44.18.15,0,.34-.07.44-.18s.19-.28.18-.44c0-.16-.06-.34-.18-.44-.3-.24-.6-.49-.93-.68-.37-.21-.77-.34-1.2-.37-.33-.02-.64.3-.62.62.02.35.27.61.62.62h0Z"/>
        <path class="cls-10" d="m50.23,13.96c.08-.02.1.02-.06,0,.02,0,.05,0,.08,0,.07,0,.14,0,.21.01.11,0-.17-.03,0,0,.04,0,.07.01.11.02.09.02.17.04.26.06.16.04.31.08.47.14.13.05-.06-.03-.03-.02.02.01.05.02.07.04.07.04.14.09.21.13s.14.09.21.14c.03.02.05.04.08.06.09.06-.13-.11,0,0,.1.09.19.18.29.29.08.08-.09-.13-.03-.03.02.03.05.07.07.1.04.07.09.14.13.21.1.18.19.37.28.56.14.3.59.4.86.22.31-.2.37-.54.22-.86-.18-.4-.38-.78-.66-1.12-.23-.28-.54-.48-.84-.68s-.65-.32-1.01-.41c-.38-.09-.84-.19-1.23-.08-.31.09-.54.44-.44.77s.43.54.77.44h0Z"/>
      </g>
      <path class="cls-10" d="m57.33,10.8s-.11,0-.03,0c.03,0,.06,0,.09,0,.07,0,.14,0,.21,0,.09,0-.11-.02-.03,0,.03,0,.06.01.09.02.06.01.12.03.18.05s.14.03.2.07c-.03-.02-.09-.04-.02,0,.03.01.06.03.08.04.12.06.23.13.34.21.01,0,.1.07.03.02s.02.02.03.03c.05.04.1.08.15.13.1.09.2.19.29.29.09.1.17.2.26.3.05.06.09.11.14.17.02.03.04.05.06.08.06.07-.09-.12,0,0,.1.14.2.24.37.29.15.04.35.02.48-.06.26-.16.44-.58.22-.86-.43-.56-.87-1.1-1.45-1.5-.6-.41-1.31-.58-2.03-.47-.32.05-.53.47-.44.77.11.35.42.49.77.44h0Z"/>
      <path class="cls-10" d="m62.49,9.26c.05.02.11.04.16.06l-.15-.06c.24.1.46.23.66.39l-.13-.1c.2.16.38.34.54.55l-.1-.13c.1.13.18.26.26.4.16.29.58.4.86.22.29-.19.39-.55.22-.86-.43-.79-1.15-1.38-2-1.68-.15-.05-.35-.01-.48.06s-.25.22-.29.37c-.04.16-.03.34.06.48s.21.23.37.29h0Z"/>
    </g>
    <path class="cls-6" d="m32.73,23.93c2.16-.59,4.4-1.52,6.43-3.02"/>
  </g>
  <g>
    <path class="cls-4" d="m51.46,91.03c-1.85-.26-4.16-.31-6.79-.27-4.47.07-8.01.93-12.94,2.92-3.06,1.23-4.86,2.13-10.49,5.16-4.38,2.37-7.3,4.61-8.94,5.89-.15.12-.3.23-.44.36-1.91,1.55-3.42,3.18-4.59,4.68-.12-.09-.24-.16-.37-.21.07-.41.14-.8.22-1.18,1.23-1.61,2.8-3.34,4.83-4.99,1.61-1.3,4.47-3.58,8.77-5.96,5.52-3.06,7.29-3.97,10.29-5.22,4.84-2.01,8.31-2.88,12.7-2.96,2.97-.05,5.5.04,7.43.41.02.05.02.11.04.16.1.45.2.85.28,1.2Z"/>
    <path class="cls-2" d="m51.14,89.66c-1.93-.37-4.47-.46-7.43-.41-4.39.08-7.86.94-12.7,2.96-3,1.25-4.77,2.16-10.29,5.22-4.29,2.39-7.16,4.67-8.77,5.96-2.03,1.65-3.61,3.38-4.83,4.99.2-1.04.38-2.04.39-3.21v-.05c0-1.09-.05-1-.17-3.75-.02-.48-.05-.91-.06-1.33-.1-2.32-.1-3.66.23-4.94.43-1.61,1.16-2.64,2.62-4.7.4-.57.8-1.09,1.19-1.57,0,0,0,0,.02,0,1.27-1.56,2.42-2.65,3.05-3.21,1.22-1.09,2.61-2.32,4.46-3.35.66-.37,1.37-.7,2.16-1,.25-.1,1.76-.48,4.79-1.23,3.18-.78,4.17-1.01,5.31-1.22,2.74-.51,4.14-.76,5.31-.43.67.18.39.22,3.66,1.83,2.13,1.05,2.69,1.24,3.22,1.39.08.02.15.04.22.05,1.67.44,1.91.04,3.01.47,2.26.88,3.29,3.37,3.65,4.26.29.71.4.64.98,3.26Z"/>
    <path class="cls-2" d="m51.81,96.6c-.17.73-.36,1.4-.6,2.12h0s0,.02,0,.02c-.41,1.19-.99,2.5-1.94,4.37-1.5,2.99-2.28,4.51-3.53,5.68-1.35,1.26-1.63.89-4.45,2.68-.75.48-1.36.9-1.86,1.28-2.24,1.69-2.52,2.54-4.59,3.26-1.6.56-1.58.12-5.59.87-2.91.54-3.25.84-4.78,1.09-1.61.27-6.36,1.06-9.79-1.33-.36-.25-.68-.48-.98-.71-2.11-1.58-2.83-2.58-5-4.73-.13-.13-.73-.94-1.44-1.41,1.17-1.51,2.68-3.14,4.59-4.68.14-.13.29-.24.44-.36,1.64-1.28,4.56-3.53,8.94-5.89,5.63-3.03,7.43-3.93,10.49-5.16,4.93-1.99,8.47-2.85,12.94-2.92,2.63-.04,4.94.02,6.79.27.72,2.9.98,2.89.35,5.57Z"/>
    <path class="cls-7" d="m7.51,105.17c.42-.38.85-.83,1.27-1.33,1.26-1.48,1.26-2.02,2.97-4.5,1.75-2.52,1.95-2.88,3.36-4.11,1.31-1.12,2.83-1.19,5.75-2.69,2.1-1.08,2.29-1.51,2.76-2.15,1.49-1.99,1.3-3.17,2.64-5.32.72-1.16,2.07-2.7,4.82-3.92"/>
    <path class="cls-7" d="m7.28,100.05c.49-.4.89-.77,1.2-1.1.44-.45,1.26-1.31,1.99-2.63.77-1.4.66-1.91,1.33-2.79.75-.99,1.76-1.51,2.52-1.8"/>
    <path class="cls-7" d="m11.34,88.84c.69-.3,1.31-.44,1.82-.52,1.01-.13,2.06-.02,3.73-.49.87-.24,1.55-.54,1.99-.75"/>
    <path class="cls-7" d="m18.85,82.28c.65-.05,1.33-.08,2.05-.07.67,0,1.31.03,1.91.09"/>
    <path class="cls-7" d="m31.74,87.41c1.19-1.81,2.54-2.65,3.31-3.04,1.26-.64,2.56-.87,3.45-1.01,1.93-.33,2.38-.05,3.38-.48.47-.2,1.04-.53,1.62-1.19"/>
    <path class="cls-7" d="m31.64,83.29c-1.15.52-1.7,1.17-1.99,1.65-.44.74-.38,1.3-.91,2.4-.34.72-.73,1.25-.99,1.57"/>
    <path class="cls-7" d="m13.49,96.97c.18-.13.47-.31.85-.43.78-.26,1.19-.05,2.35-.02.43,0,1.32.02,2.33-.24.63-.16,1.13-.38,1.46-.55"/>
    <path class="cls-7" d="m37.15,85.17c-.37.24-.91.66-1.39,1.33-.65.91-.84,1.81-.9,2.29"/>
    <path class="cls-7" d="m48.17,86.67c-.34-.07-.85-.2-1.45-.42-.85-.32-.95-.49-1.45-.6-.8-.17-1.47.06-2.17.3-.46.16-1.15.46-1.87,1.02"/>
    <path class="cls-7" d="m50.03,92.73c-1.11,1.84-2.28,3.17-3.15,4.05-1.41,1.42-2.98,3.01-5.52,3.79-1.23.38-2.31.45-3.02.45"/>
    <path class="cls-7" d="m43.54,96.55c-.31.45-.68,1.07-.96,1.86-.22.61-.34,1.16-.4,1.61"/>
    <path class="cls-7" d="m44.49,92.32c-.56-.2-1.41-.41-2.33-.16-.94.26-1.27.81-2.29,1.28-.56.26-1.43.55-2.69.52"/>
    <path class="cls-7" d="m35.94,96.76c-.38,1.03-1.18,2.75-2.86,4.15-2.21,1.85-4.78,2.18-6.75,2.44-1.92.25-4.13.23-5.76.21-.05,0-1.59-.02-3.58.16-.92.08-1.56.08-3.03.33-.53.09-1.84.87-2.1,1.04"/>
    <path class="cls-7" d="m10.65,110.69c2.13-.42,3.7-.2,4.75.07,1.51.39,1.72.86,4.05,1.54,2.24.65,3.35.61,3.91.56,1.06-.1,1.9-.39,2.44-.63"/>
    <path class="cls-7" d="m20.7,110.41c.73.13,1.78.22,3,0,1.71-.31,1.89-.92,4.05-1.81,1.6-.66,3.8-1.57,5.93-1.61.31,0,1.03,0,1.74-.42.65-.38,1.04-.96,1.26-1.4"/>
    <path class="cls-7" d="m38.81,107.16c-.81.09-1.68.16-2.62.18-.72.02-1.86-.31-2.5-.35"/>
    <path class="cls-7" d="m20.16,103.36c.37-.39,1-.94,1.9-1.28,1.28-.49,2.05-.16,3.18-.66.51-.23,1.23-.68,1.9-1.71"/>
    <path class="cls-7" d="m23.89,103.81c.54.49,1.38,1.13,2.53,1.65,1.15.52,2.19.73,2.92.81"/>
    <path class="cls-7" d="m13.71,115.92c.71.05,1.33.03,1.83-.03,1.37-.16,1.52-.48,2.81-.52,1.03-.02,1.16.18,3.72.52,1.71.23,2.12.2,2.52.1,1.03-.27,1.73-.94,2.15-1.44"/>
    <path class="cls-7" d="m32.94,112.12c.91-.16,1.45.03,1.76.23.44.28.45.56.95.81.61.3,1.23.22,1.45.17.63-.12.8-.44,1.23-.6.27-.1.62-.13,1.09,0"/>
    <path class="cls-7" d="m44.03,104.35c.29-.58.77-1.31,1.59-1.59.57-.2.91-.02,1.54-.19.9-.24,1.41-.89,1.88-1.44.55-.66,1.24-1.43,2.16-2.39"/>
  </g>
  <g>
    <path class="cls-1" d="m83.92,105.46c-.75.35-1.24.83-1.29,1.35-.01.15.02.3.09.46.11.26.33.57.64,1.01.57.83.99,1.42,1.72,1.67.22.07.54.15,1.74-.04,1.7-.26,1.88-.54,2.69-.61,1.9-.17,3.4,1.09,3.6,1.27.49.43,1.5,1.3,1.58,2.72.08,1.18-.51,2.49-1.5,3.06-1.03.6-1.77-.04-2.85.7-.09.05-.16.11-.22.17-.37.34-.36.63-1.05,1.31-.45.46-1.28,1.27-2.54,1.58-.18.04-1.83.42-3.32-.42q-.69-.39-1.2-.7c-.53.74-.85,1.55-2.02,2.46-1.05.82-2.4.68-3.82.54-1.28-.13-3.07-.32-3.96-1.59-.57-.81-.68-1.02-.91-1.76,0-.04-.03-.07-.04-.11-1.14.47-1.24.63-2.66.74-1.04.08-2.3-.32-3.05-1.14-.67-.72-.69-.88-1.13-1.59,0-.03-.03-.05-.04-.08q-1.01.06-2.15-.13c-.21-.03-1.13-.2-2.04-.9-.29-.22-1.28-.99-1.59-2.25-.15-.65-.19-.79-.24-1.15-.02-.1-.03-.21-.05-.34-.89.2-.98.26-1.98.2-.83-.06-1.42-.52-1.71-.75-.13-.1-1.67-1.36-1.47-3.34.19-1.86,1.75-2.78,2-2.91,1.08-.62,2.47-.68,3.55-.33.83.27,1.26.73,2.15.64.43-.04.43-.16,1.28-.38,1.18-.31,1.01-.29,1.81-.47q-.33-.36-.91-1.01c-.57-.63-.97-1.06-.89-1.47.09-.5.82-.8,2.13-1.34.83-.34.76-.41,1.26-.68,0,0,.02-.01.03-.02-.37-.6-.6-.55-.85-1.4-.15-.49-.18-.77-.24-1.04-.38.22-.63.31-.95.51-1.5.9-3.54.16-3.78.07-.4-.15-1.28-.49-1.98-1.39-.21-.26-1.38-1.78-.69-3.19.28-.57.88-1.16,1.63-1.27,1.31-.19,2.22.68,2.63.93-.22-.39-1.02-1.43-.69-2.63.21-.76,1.02-1.31,1.74-1.44.95-.16,1.82.42,2.21.69.64.43.51.29,1.03.72.02-.56.01-1.94.88-2.55.33-.23.88-.16,1.97-.02.87.12.95.23,1.85.36,1.11.16,1.11,0,1.87.15.61.12,1.57.31,2.23,1.03.7.76.72,1.08.92,1.66.04-.46.11-1.54,1.04-2.24.55-.42,1.27-.37,1.59-.35.54.04.93.22,1.97.82,2.02,1.17,2.12,1.42,2.97,1.69.67.21.85.14,1.29.2.16.03.36.07.63.15s1.53.46,2.79,1.53c.39.32,1.55,1.32,2.25,2.99.51,1.21.37,1.79,1.03,2.33.52.43.95.35,1.54.51.14.03.29.09.46.17,1.03.49,1.49,1.43,2.11,2.69.82,1.68,1.68,3.44.87,4.7-.6.92-1.82,1.13-2.14,1.19-1.03.17-1.37-.2-2.87-.45-2.21-.36-2.45.33-4.04-.14-1.53-.44-1.46-1.11-2.8-1.3-.04,0-.07-.01-.11-.02-1.38-.16-1.89.52-3.05.27-.65-.13-1.57-.58-2.52-2.09"/>
    <path class="cls-1" d="m78.86,101.01c-.23,0-1.76-.05-2.72-1.29-1.21-1.55-.38-3.49-.26-3.74.1-.22.88-1.97,2.41-2.09,1.07-.09,1.91.67,2.16.9.78.71.53,1.11,1.36,2.07.54.63.66.46,2.07,1.67,1.1.94,1.35,1.32,1.45,1.47.45.72.6,1.45.65,1.93"/>
    <path class="cls-1" d="m89.79,101.4c-.26-.8-.67-1.24-.92-1.47-.56-.5-1.21-.67-2.51-1-.63-.16-2.14-.33-2.96-.81"/>
    <path class="cls-1" d="m92.45,98.64c.37.52.72,1.14.98,1.89.33.93.42,1.78.44,2.4"/>
    <path class="cls-1" d="m82.55,93.53c.03-.35.14-.94.54-1.49.31-.44.71-.72,1.12-.91"/>
    <path class="cls-1" d="m73.51,94.13c-.47-.45-1.13-.92-1.85-.83-.66.08-.77.56-1.45.7-.89.17-1.14-.56-2.45-.82-1.3-.26-2.37.19-2.81.38-.72.3-1.37.58-1.54,1.18-.21.77.43,1.77,1.21,2.06.79.3,1.21-.32,2,.05.46.22.4.47,1.21,1.1.54.42.81.64,1.17.69.62.09.9-.32,1.87-.59.58-.17,1.09-.19,1.41-.19"/>
    <path class="cls-1" d="m69.05,91.81c.1.29.28.69.59,1.12.31.42.64.7.89.87"/>
    <line class="cls-1" x1="74.08" y1="96.3" x2="76.2" y2="95.58"/>
    <path class="cls-1" d="m61.56,108.23c.09-.26.92-2.54,3.17-3.21.34-.1,1.62-.46,2.99.13.6.26,1.02.61,1.27.86"/>
    <path class="cls-1" d="m65.51,99.84c.78.24,1.47.38,2.02.47,1.31.22,1.79.12,2.56.57.86.5.87.94,2.14,1.81.62.42,1.06.72,1.72.84.91.17,1.74-.15,2.36-.33"/>
    <path class="cls-1" d="m86.89,111.77c.26.29.62.75.95,1.38.57,1.1.5,1.75.85,2.5.22.47.61,1.04,1.42,1.57"/>
    <path class="cls-1" d="m86.56,113.27c.48.26.96.52,1.44.78"/>
    <path class="cls-1" d="m71.28,118.64c.06-.49.16-.89.24-1.2.26-.93.68-2.5,1.7-2.76.41-.11.68.06,1.08-.17.15-.09.26-.2.33-.33.17-.27.23-.6.51-.97.51-.68,1.45-1.06,2.2-1.05,1.07,0,1.25.78,2.23.71.81-.06.84-.62,1.86-.91.21-.06,1.58-.45,2.68.37,1.07.8,1.1,2.16,1.09,2.35"/>
    <path class="cls-1" d="m75.06,116.76c-.09-.08-.48-.9-.56-1.29-.05-.27-.06-1.06.26-1.51"/>
    <path class="cls-1" d="m62.49,110.1c.55-1.13,1.07-1.39,1.43-1.42.62-.06.92.54,2.36.99.79.24,1.08.18,1.23.13.5-.17.54-.54,1.11-.94.13-.09.84-.59,1.63-.47.8.11,1.37.81,1.8,1.33.38.47.5.79,1,1.14.33.23.64.36.86.43"/>
    <path class="cls-1" d="m74.76,108.4c.59-.29,1.05-.3,1.35-.26.59.09.73.38,1.44.51.31.05.78.12,1.25-.09.58-.26.55-.69,1.13-1.08.43-.27.84-.31,1.32-.34.53-.04,1.02.03,1.45.14"/>
    <path class="cls-1" d="m58.34,112.03c.71-.66,1.08-1.38,1.23-1.69"/>
    <path class="cls-1" d="m64.4,116.54c.35-.2.65-.4.89-.57.77-.55,1.46-1.05,1.98-1.98.1-.18.18-.37.25-.55h0c.41-1.04.37-2.02.32-2.54"/>
    <path class="cls-1" d="m67.53,113.44c.38-.18.88-.37,1.47-.5.62-.14,1.17-.18,1.6-.19"/>
    <path class="cls-1" d="m64.49,104.99c-.18-.19-.42-.4-.75-.62"/>
  </g>
  <rect class="cls-9" x="-375.3" y="-334.38" width="3385.57" height="2571.67"/>
</svg>