<?xml version="1.0" encoding="UTF-8"?>
<svg id="Calque_1" data-name="Calque 1" xmlns="http://www.w3.org/2000/svg" viewBox="0 0 128 128">
  <defs>
    <style>
      .cls-1, .cls-2, .cls-3, .cls-4, .cls-5, .cls-6, .cls-7, .cls-8, .cls-9, .cls-10, .cls-11, .cls-12, .cls-13, .cls-14, .cls-15, .cls-16, .cls-17, .cls-18, .cls-19, .cls-20, .cls-21, .cls-22, .cls-23, .cls-24, .cls-25, .cls-26, .cls-27, .cls-28, .cls-29, .cls-30 {
        stroke: #000;
      }

      .cls-1, .cls-2, .cls-3, .cls-4, .cls-5, .cls-6, .cls-7, .cls-11, .cls-12, .cls-13, .cls-14, .cls-15, .cls-16, .cls-17, .cls-18, .cls-19, .cls-24, .cls-25, .cls-26, .cls-31, .cls-28 {
        stroke-linecap: round;
      }

      .cls-1, .cls-2, .cls-3, .cls-4, .cls-6, .cls-7, .cls-11, .cls-13, .cls-16, .cls-17, .cls-18, .cls-19, .cls-24, .cls-25, .cls-26, .cls-31, .cls-28 {
        stroke-linejoin: round;
      }

      .cls-1, .cls-5, .cls-25 {
        fill: #fce9b9;
      }

      .cls-2 {
        fill: #f3d587;
      }

      .cls-3, .cls-13, .cls-19, .cls-21, .cls-30 {
        fill: #fff;
      }

      .cls-4, .cls-6, .cls-7, .cls-8, .cls-9, .cls-11, .cls-12, .cls-16, .cls-17, .cls-18, .cls-23, .cls-24, .cls-26, .cls-31, .cls-27, .cls-28 {
        fill: none;
      }

      .cls-5, .cls-8, .cls-9, .cls-10, .cls-12, .cls-14, .cls-15, .cls-20, .cls-21, .cls-22, .cls-23, .cls-27, .cls-29, .cls-30 {
        stroke-miterlimit: 10;
      }

      .cls-5, .cls-25, .cls-28 {
        stroke-width: .67px;
      }

      .cls-6 {
        stroke-width: .75px;
      }

      .cls-7 {
        stroke-width: .7px;
      }

      .cls-8 {
        stroke-width: .56px;
      }

      .cls-9, .cls-29 {
        stroke-width: .55px;
      }

      .cls-11 {
        stroke-width: .47px;
      }

      .cls-32 {
        fill: #fab0b4;
      }

      .cls-33, .cls-15, .cls-20 {
        fill: #ff6d75;
      }

      .cls-34 {
        fill: #d6d6d6;
      }

      .cls-35 {
        fill: #1d1d1b;
      }

      .cls-36, .cls-14, .cls-22 {
        fill: #1a2e35;
      }

      .cls-13, .cls-24 {
        stroke-width: .93px;
      }

      .cls-16, .cls-23 {
        stroke-width: .6px;
      }

      .cls-17 {
        stroke-width: .52px;
      }

      .cls-18 {
        stroke-width: 1.05px;
      }

      .cls-19, .cls-26 {
        stroke-width: .5px;
      }

      .cls-31 {
        stroke: #fff;
        stroke-width: 8px;
      }

      .cls-29 {
        fill: #ff735d;
      }

      .cls-30 {
        stroke-width: .73px;
      }
    </style>
  </defs>
  <rect class="cls-31" x="-651.12" y="-214.82" width="2244.45" height="5948.74"/>
  <path class="cls-34" d="m88.76,17.59c-.67,1.83-1.62,4.75-1.84,7.06-.27-.35-.53-.74-.78-1.14-.87-1.43-2.67-3.36-2.67-3.36,1.06-1.05.41-3.29-.82-3.71-1.23-.42-2.07.78-3.2,1.55-1.24.84-3.6-.84-4.33-1.43-.74-.59-4.48-4.48-4.48-4.48-.54.86-1.36,2.44-1.13,4.57-.85-.23-2.19-.86-2.31-2.6-.23-3.12,2.46-3.84,2.46-3.84.87-2.73,6.89-5.66,13.53-3.89,3.38.9,4.55,3.24,4.68,5.53,0,0,1.85,3.09.89,5.74Z"/>
  <path class="cls-2" d="m107.78,68.05s-1.21,1.39-2.92,3.33c-1.31,1.48-2.9,3.28-4.45,5.02-2.92,3.26-5.71,6.29-6.21,6.58-.47.26-.74.13-1.01-.23-.37-.49-.73-1.41-1.6-2.24-.7-.67-1.57-.95-2.07-1.25-.26-.15-.42-.31-.42-.52,0-.13.4-.78,1.07-1.76-2.19-.19-3.86-.55-4.42-.83-1.55-.77-6.05-2.46-6.62-3.1-.56-.63,1.55-2.88,2.05-5.21.36-1.7-1.34-4.82-3.05-7.78-1.54,2.64-13.16,5.71-13.72,5.28-.16-.12-.9-4.94-.96-5.99-.05-.58,8.63-2.86,8.7-2.95.29-.35.07-22.88,1.92-24.46,1.14-.97,5.05-2.12,5.05-2.12,0,0-.31.52-.33,1.14-.07,1.58.21,4.31,2.72,4.64,2.88.37,5.77-1.94,7.49-4.65.82-1.29,1.03-1.85,1.27-2.57.02-.05.04-.11.06-.17,0,0,2.74.8,6.97,1.55,4.22.75,6.4,6.41,8.37,11.19,1.97,4.79,4.58,16.69,5.21,19.78.63,3.1-3.1,7.32-3.1,7.32Z"/>
  <path class="cls-12" d="m58.24,56.78s.15-.95,1.88-.68c1.73.27,5.19,1.3,6.37.67,1.17-.63.44-2.3-1.45-3.11-1.89-.81-7.08-1.56-8.17-3.16s-.28-1.89.29-4.34-1.66-5.19-1.2-5.99,3.92-7.45,3.42-11.51c-.5-4.07-2.04-5.04-3.14-2.95-1.1,2.09-.61,9.18-1.11,10.43-.51,1.25-.66,3.09-1.88,2.73-1.22-.36-2.48-.39-3.16-.21s-1.27-2.66-.66-5.09,1.59-7.97.19-8.94c-1.41-.97-3.36,2.12-3.62,4.81-.26,2.69,1.01,7.5,1.37,9.01s.06,1.47-1.29,3.28c-1.35,1.81-1.23,5.19-.4,6.69.84,1.5.38,2.65-2.07,3.37-2.45.72-4.52,1.39-6.11,2.53-1.59,1.14-1.33,2.36-.16,2.7,1.17.35,5.22-.78,7.63-1.85,0,0-.71,7.77-.19,13.12.52,5.35.89,10.75,2.67,11.74,1.77,1,3.04-.35,3.02-2.47s-1.25-8.18,1.88-8.58c3.13-.4,1.65,10.91,5.44,10.33s1.21-11.67.95-13.03-1-7.22-.48-9.52Z"/>
  <path class="cls-3" d="m63.58,60.45c-.05-.63-3.46-2.93-5.42-3.62-1.9-.67-2.47-1.2-3.79-.71-1.18.43-2.49.46-2.36,1.11.14.64.89,1.06,2.06.96,1.08-.1.84-.48,2.03.06,1.2.55,1.44,1.9,2.28,2.69l.29,3.8s1.79.95,3.25.37c1.46-.59,2.21-.29,2.21-.29,0,0-.46-3.31-.55-4.37Z"/>
  <path class="cls-26" d="m48.47,51.1s2.51,1.35,5.77-.43"/>
  <ellipse class="cls-35" cx="48.77" cy="43.48" rx=".41" ry=".57" transform="translate(-1.38 1.6) rotate(-1.85)"/>
  <ellipse class="cls-35" cx="52.56" cy="43.52" rx=".41" ry=".57" transform="translate(-1.38 1.72) rotate(-1.85)"/>
  <ellipse cx="50.41" cy="45.54" rx=".62" ry=".45" transform="translate(-3.75 4.53) rotate(-4.96)"/>
  <path class="cls-26" d="m51.95,46.84c-.97.16-1.51-1.11-1.51-1.11,0,0-.48,1.2-1.34,1.21"/>
  <path class="cls-4" d="m69.41,17.2s-2.08-.39-2.27-2.98c-.22-3.12,2.46-3.84,2.46-3.84.87-2.73,6.89-5.66,13.54-3.89,6.65,1.77,4.73,9.11,3.25,10.68"/>
  <path class="cls-4" d="m87.96,12.45s1.7,2.66.74,5.32c-.84,2.31-1.88,4.81-1.59,7.17"/>
  <path class="cls-4" d="m90.27,28.38c-.24.72-.45,1.28-1.27,2.57-1.72,2.71-4.61,5.02-7.49,4.65-2.51-.33-2.79-3.06-2.72-4.64.01-.03.02-.06.03-.09.49-1.54.84-2.84,1.05-3.16-.47.46-2.83,1.69-5.15,2.17-2.46.5-2.61-1.29-3.55-3.75-.93-2.44-2.16-2.32-2.36-2.95-.2-.64,1.68-2.37.89-5.12-.09-.3-.15-.58-.19-.87-.38-2.32.51-4.03,1.08-4.94,0,0,3.74,3.89,4.48,4.48.73.59,3.09,2.27,4.33,1.43,1.13-.77,1.97-1.97,3.2-1.55,1.23.42,1.88,2.66.82,3.71,0,0,1.8,1.93,2.67,3.36,1.72,2.8,4.08,4.59,4.08,4.59l.1.11Z"/>
  <path d="m71,19.86c-.23-.45-.16-.94.16-1.11.32-.16.75.07.98.53.23.44.15.93-.15,1.1-.32.16-.76-.07-.99-.51Z"/>
  <path class="cls-7" d="m82.13,18.46s-.84.54-.94,1.55"/>
  <path class="cls-4" d="m75.04,36.17s-.26,8.45-.14,11.4c.07,1.69,1.38,7.65,3.22,12.48"/>
  <path class="cls-4" d="m95.11,37.02s-.77,3.94.14,6.62,6.97,17.46,6.97,17.46"/>
  <path class="cls-4" d="m90.16,76.99c2.88-3.96,9.78-13.36,11.07-14.84,2.39-2.74,5.21-.84,5.21-.84"/>
  <path class="cls-3" d="m106.08,88.15s.65,1.29,1.6,3c.7,1.27.73,4.99.31,7.06-.14.74-.34,1.27-.59,1.39-.94.47-3.76.47-8.45,3.57-4.69,3.09-10.6,5.63-15.39,7.97-4.79,2.35-10.23,1.97-13.42.94-3.19-1.03-3.29-4.41-3.29-4.41-3.19.38-4.04-.59-5.82-3-1.77-2.41-2.25-5.63,3.01-14.93,5.25-9.29,15.08-16.68,15.08-16.68.57.64,5.07,2.33,6.62,3.1.56.28,2.23.64,4.42.83-.67.98-1.07,1.63-1.07,1.76,0,.21.16.37.42.52.5.3,1.37.58,2.07,1.25.87.83,1.23,1.75,1.6,2.24.27.36.54.49,1.01.23.5-.29-1.55-4.7,1.37-7.96,1.06-.26,2.07-.59,3.01-1.02,3.14-1.44,7.94-3.76,8.44-4.99.43.88,3.75,5.16,3.95,10.48.04,1.19-.29,2.43-.87,3.57-1.42,2.78-4.01,5.07-4.01,5.07Z"/>
  <path class="cls-4" d="m106.09,88.15s-8.25,6.78-12.01,9.57c-3.76,2.79-12.86,7.13-13.61,8.82"/>
  <path class="cls-4" d="m66.86,107.67c-.94-4.04,2.91-9.29,2.91-9.29,3.94-4.41,10-11.87,13.23-15.04"/>
  <path class="cls-4" d="m115.19,102.41c-1.77,2.49-2.32,3.59-4.41,2.54-2.09-1.05-1.86-1.26-2.16-4.32-.12-1.11-.36-1.88-.63-2.42.42-2.07.39-5.79-.31-7.06-.95-1.71-1.6-3-1.6-3,0,0,2.59-2.29,4.01-5.07.39-.01,2.38.06,2.66,2.25.3,2.44,1.03,6.95,2.53,9.2s1.67,5.4-.09,7.88Z"/>
  <path class="cls-17" d="m73.4,27.14c-.7.31-2.18.38-2.45-1.16,0,0,2.27-.61,3.53-1.32.64-.36-.3,2.14-1.08,2.48Z"/>
  <path class="cls-18" d="m83.87,19.56s-.5,1.48-2.22,2.02"/>
  <path class="cls-13" d="m92.47,81.87c-1.35,1.79-3.32,4.6-3.99,6.56-1.06,3.1-3.03,6.55-3.66,6.27-.63-.28,1.35-5.05,1.55-5.85.19-.79-.82.21-2.47,2.12-1.64,1.91-1.75,3.23-3.51,3.73-2.25.63,3.94-7.11,3.94-7.11-1.34,1.12-4.86,7.25-5.99,7.18-1.12-.07-.58-1.13.64-3.24,1.22-2.12,3.87-5.49,3.87-5.49,0,0-1.34.91-2.46,1.83-1.13.91-2.82,4.08-3.45,3.87-.64-.21-.5-1.34.7-3.31,1.2-1.97,2.75-3.59,2.75-3.59-.22-2.18,1.83-3.45,4.01-4.22,2.18-.78,4.36-2.18,4.36-2.18l.04-.06c.5.3,1.37.58,2.07,1.25.87.83,1.23,1.75,1.6,2.24Z"/>
  <path class="cls-15" d="m105.54,107.45c-.51-1.78-1.37-5.81-1.48-6.73-.39-3.09-.49-7.23-1.81-9.18-1.47-2.16-4.24-2.7-4.99-2.5-7.72,2.12-8.34.21-8.34.21,0,0-3.81,4.32-4.78,6.85-.97,2.53-1.25,14.03-1.25,14.03l.43,3.5,18.01,5.04s3.34-1.38,4.21-4.68c.86-3.3.43-5,0-6.54Z"/>
  <g>
    <path class="cls-20" d="m82.83,106.98c-2.98-1.73-8.88-.01-10.57,1.56-.65-.76-1.33-1.55-2.21-2.02-.88-.48-2.04-.58-2.86,0-.74.53-1.04,1.48-1.2,2.37-.28,1.54-.31,3.12-.08,4.67.22,1.44.84,3.05,2.22,3.51.79.27,1.66.1,2.43-.2.78-.29,1.51-.7,2.31-.94,2.35-.69,9.09,2.2,12.11.92l-2.15-9.88Z"/>
    <path class="cls-27" d="m67.19,106.53c.98-.38,1.5.31,1.85.69.35.38.62.96.75,1.63.07.34.09.7.14,1.07.04.37.08.76.12,1.16.14,1.59.21,3.04.05,4.07-.07.51-.22.92-.39,1.15-.41.49-1,.82-.99.83"/>
  </g>
  <g>
    <path class="cls-21" d="m79.85,75.51c-1.91-3.73-2.18-8.27-.72-12.21.28-.75.72-1.57,1.51-1.71.88-.16,1.64.61,2.09,1.38,1.01,1.71,1.43,3.73,1.39,5.72-.04,1.99-.5,3.95-1.15,5.83-.23.68-.53,1.39-1.14,1.76"/>
    <path class="cls-21" d="m78.11,75.59c-.44-.64-.9-1.3-1.48-1.81s-1.34-.89-2.12-.89c-1.13,0-2.1.8-2.87,1.63-2.78,3.04-4.12,7.22-4.17,11.33-.02,1.67.18,3.4,1.01,4.85.19.33.43.66.78.8.41.17.88.05,1.28-.14,1.01-.48,1.77-1.38,2.28-2.38.51-.99.8-2.09,1.08-3.17.81-3.07,1.62-6.15,2.43-9.22"/>
    <path class="cls-30" d="m78.27,75.57c-.27.06-3.99,1.09-5.67,4.09-1.33,2.36-.85,5.15-.01,6.37.84,1.21,3.82,4.39,6.16,4.25,0,0,4.83-.16,6.42-1.88,1.59-1.73,3.77-6.05,1.99-9.72-1.77-3.67-5.43-3.82-8.89-3.1Z"/>
    <path class="cls-21" d="m75.24,110.95c-.35-2.04-.51-4.1-.48-6.17l-3.12-2.18c-.6.25-1.04.78-1.3,1.37s-.35,1.24-.42,1.88c-.27,2.61-.09,5.25.31,7.84.11.71.27,1.47.82,1.94.64.54,1.6.48,2.38.17.7-.28,1.34-.75,1.69-1.41.55-1.03.31-2.29.11-3.44Z"/>
    <path class="cls-21" d="m83.65,104.92c-.14-.3-.41-.56-.74-.61l-4.05,3.39c-.88.76-1.51,1.78-1.96,2.86-.45,1.08-.72,2.22-.97,3.36-.22,1-.42,2.07-.03,3.01.37.92,1.3,1.58,2.29,1.64.99.07,1.99-.45,2.52-1.29.51-.81.58-1.81.7-2.76.18-1.39.53-2.75,1.03-4.06.57-1.49,1.34-2.96,1.38-4.56,0-.34-.02-.68-.16-.98Z"/>
    <path class="cls-21" d="m77.91,88.91c-2.07,2.26-1.1.73-2.57,3.49,0,0-.2.1-.71.65-1.64,1.78-3.23,5.69-3.13,7.96.08,1.99.82,3.91,2.17,5.21,1.38,1.32,3.25,2.07,5.12,1.85,2.26-.27,4.31-1.94,5.49-4.09,1.19-2.15,1.53-4.71,1.46-7.17-.06-2.25-.42-6.58-.93-7.58"/>
    <path d="m73.54,94.55s-.01.03-.04.08c-.03.06-.07.13-.12.22-.06.09-.12.21-.19.34-.07.13-.16.29-.24.46-.35.69-.79,1.67-1.08,2.81-.3,1.14-.35,2.22-.29,2.98.03.38.07.69.11.91.02.1.03.18.04.25,0,.06.01.09,0,.09,0,0-.01-.03-.03-.08-.02-.07-.04-.15-.06-.24-.06-.21-.1-.52-.14-.91-.07-.77-.03-1.86.27-3.01.29-1.15.75-2.13,1.12-2.81.09-.17.18-.32.26-.46.08-.13.15-.25.21-.34.05-.08.1-.15.14-.21.03-.05.05-.07.05-.07Z"/>
    <path class="cls-21" d="m77.4,88.35c-.52-.43-1.21-.58-1.89-.62-2.17-.15-4.27.67-6.42,1.01-.83.13-1.71.21-2.38.71-.59.44-.94,1.21-.85,1.94.09.74.62,1.41,1.33,1.62.73.23,1.52-.02,2.25-.27,2.45-.83,4.89-1.66,7.34-2.49l1.16-.11c.27-.62-.02-1.37-.54-1.8Z"/>
    <path class="cls-26" d="m66.72,89.46c.28.17,1.11.51,1.44,1.45s.13,1.72,0,2.02"/>
    <path class="cls-36" d="m77.31,79.77c.08.24-.04.5-.28.58-.24.08-.5-.04-.58-.28s.04-.5.28-.58c.24-.08.5.04.58.28Z"/>
    <path class="cls-36" d="m79.62,78.95c.08.24-.04.5-.28.58-.24.08-.5-.04-.58-.28-.08-.24.04-.5.28-.58.24-.08.5.04.58.28Z"/>
    <path class="cls-19" d="m79.17,81.84s.1.23.23.61c.13.38.31.9.52,1.47.21.57.41,1.09.55,1.46.14.37.23.6.22.61"/>
    <path class="cls-10" d="m83.13,75.42s-.02,0-.05,0c-.04,0-.09-.01-.15-.02-.13-.02-.33-.04-.59-.07-.51-.05-1.26-.09-2.18-.02-.92.07-2.01.28-3.15.71-1.14.42-2.31,1.14-3.27,2.17-.48.52-.88,1.08-1.18,1.67-.3.59-.5,1.2-.61,1.8-.22,1.2-.1,2.32.16,3.2.14.44.31.82.48,1.14.09.16.19.3.27.43.1.12.18.24.26.34.09.09.16.18.23.25.07.07.14.12.18.17.05.04.08.08.11.1.03.02.04.04.04.04,0,0-.02,0-.04-.03-.03-.03-.07-.06-.12-.1-.05-.04-.12-.09-.19-.16-.07-.07-.15-.15-.24-.25-.09-.1-.17-.21-.27-.34-.09-.13-.19-.27-.28-.43-.19-.32-.36-.71-.5-1.15-.27-.89-.4-2.02-.19-3.23.11-.61.31-1.23.61-1.83.3-.6.71-1.17,1.19-1.69.97-1.04,2.16-1.76,3.31-2.18,1.15-.43,2.25-.63,3.18-.7.93-.06,1.68-.01,2.19.05.26.03.46.06.59.09.06.01.11.02.15.03.03,0,.05.01.05.01Z"/>
    <path class="cls-33" d="m77.77,81.06c-.08.06-.17.15-.15.25.02.08.1.13.17.17.33.16.68.3,1.04.4.12.03.25.07.37.02.09-.03.16-.1.22-.17.29-.33.51-.72.65-1.13.05-.15-.08-.3-.23-.27-.69.12-1.56.36-2.07.73Z"/>
    <path class="cls-5" d="m73,75.64c.61.29,2.25,1.16,2.23,1.18"/>
  </g>
  <g>
    <path class="cls-21" d="m82.42,91.64c-.15-.1-.21-.23-.89-.58.02-.23.13-.66.14-.88,0-.28,0-.58-.18-.79-.14-.16-.38-.23-.59-.18-.21.05-.39.21-.48.4-.08.18-.05.38-.11.57-.04.11-1.25-.26-1.25-.26-.5-.24-1.32-.52-1.87-.62-.31-.06-.74-.09-.93.27-.11.22-.08.48.05.69.19.32.4.38.72.55-.14,0-.44.04-.58.11-.2.1-.33.19-.41.43-.07.21.03.52.19.66.16.14.35.24.55.32-.45.06-.86.37-.7.91.13.43,1.02.52,1.3.58,0,0-.26.19-.53.42-.37.3-.36.97.27,1.14.24.06.48,0,.73.04.72.1,1.47.53,1.8.76.86.6,1.05,1.23,2.4,1.54l1.93-5.14c-1.33-.83-1.06-.56-1.56-.91Z"/>
    <g>
      <path class="cls-33" d="m100.24,98.44c-2.13,2.02-7.95,3.34-11.18,2.86-3.23-.48-8.71-4.06-8.71-4.06l2.08-5.93s6.54,2.38,6.7,2.35c0,0,8.5-4.01,10.72-2.73"/>
      <path class="cls-12" d="m99.67,90.85c-.13-.05-.32-.1-.58-.13-.26-.02-.59-.03-.97,0-.38.04-.82.1-1.3.2-1.93.42-4.59,1.36-7.66,2.77h0s0,0,0,0c-.04,0-.08-.01-.12-.02l-.1-.03-.2-.06c-.13-.04-.26-.09-.39-.13-.26-.09-.53-.18-.8-.27-.54-.19-1.08-.38-1.64-.58-1.12-.4-2.28-.82-3.48-1.25,0,0-.96,2.88-1.49,4.4-.18.52-.55,1.45-.55,1.45,1.26.81,2.53,1.53,3.78,2.18,1.25.64,2.48,1.21,3.71,1.59.61.19,1.23.31,1.83.36.61.03,1.19.04,1.76,0,1.14-.07,2.18-.24,3.13-.45.94-.21,1.78-.45,2.5-.72.09-.03.18-.06.27-.09.09-.04.17-.07.25-.1.16-.07.32-.13.47-.2.15-.07.29-.14.42-.2.07-.03.13-.06.2-.09.06-.03.12-.07.18-.1.23-.13.44-.24.61-.37.17-.12.32-.21.42-.3.11-.09.19-.15.25-.2.06-.05.09-.07.09-.07"/>
    </g>
  </g>
  <g>
    <path class="cls-21" d="m83.44,91.64c1.2,1.7,3.5,5.06,4.7,6.77.21.3.45.62.79.76.4.16.86.03,1.26-.16.51-.24.99-.58,1.23-1.09.23-.49.2-1.07.02-1.58-.18-.51-.48-.97-.79-1.41-1.21-1.71-2.53-3.34-4.02-4.82-.5-.49-1.14-1.19-1.87-1.1s-2.04.99-1.31,2.63Z"/>
    <path class="cls-26" d="m91.07,95.91s-1.03.05-1.83.8-.83,1.57-.8,1.92"/>
  </g>
  <g>
    <g>
      <path class="cls-15" d="m102.2,118.21c-2.6,1.71-11.11,2.4-12.95,2.71-1.61.27-3.28.05-4.86.44-1.14.28-2.2.85-3.36.97-1.87.19-3.71-.91-4.75-2.47-1.04-1.56-1.38-3.5-1.31-5.38.04-1.14.3-2.41,1.25-3.04.8-.53,1.88-.43,2.73-.01.86.42,1.54,1.12,2.2,1.81,1.19-1.76,4.14-3.1,6.43-4.01,1.97-.78,6.85-1.98,8.37-.49"/>
      <path class="cls-9" d="m95.89,108.69s-.09-.08-.18-.13c-.16-.11-.43-.25-.8-.34"/>
    </g>
    <path class="cls-22" d="m80.44,122.07s.08-.15.15-.44c.07-.29.1-.72.02-1.25-.08-.52-.25-1.14-.43-1.82-.19-.68-.43-1.42-.71-2.18-.28-.76-.59-1.47-.89-2.11-.29-.64-.6-1.2-.98-1.57-.37-.38-.77-.56-1.06-.63-.29-.07-.46-.05-.46-.06,0,0,.04,0,.12-.01.08,0,.2,0,.34.03.29.06.71.24,1.1.62.39.38.71.95,1.01,1.58.31.64.62,1.35.9,2.12.29.76.52,1.51.71,2.19.18.68.34,1.3.41,1.83.07.53.03.98-.05,1.26-.04.14-.09.25-.13.32-.04.07-.06.11-.06.1Z"/>
    <path class="cls-14" d="m82.43,116.34c-.25-.68-1.31-3.09-1.29-3.1"/>
    <g>
      <path class="cls-29" d="m94.54,108c.95-.6,2.17-.72,3.22-.34"/>
      <path class="cls-14" d="m97.76,107.67s-.18-.05-.48-.1c-.29-.06-.71-.1-1.17-.05-.46.05-.85.17-1.13.29-.28.12-.44.21-.45.2,0,0,.14-.13.42-.26.27-.14.68-.27,1.15-.32.47-.05.89,0,1.19.08.3.07.47.16.46.17Z"/>
    </g>
  </g>
  <path class="cls-13" d="m97.54,88.96c-.7-1.83.86-1.89.86-1.89,8.12-1.6,10.82-6.73,10.09-11.82-.72-5.09-5.39-13.07-15.21-10.66-9.82,2.4-6.93,10.54-6.93,10.54,0,0-.27,1.29-1.49,1.38-1.23.08-.25,2-.25,2,0,0-2.97,6.39,2.14,7.81,1.86.51,2.7,2.36,2.68,3.03,0,0-.53,2,8.1-.39Z"/>
  <path class="cls-24" d="m98.05,80.11s2.75.92,1.17,3.18c-1.58,2.26-2.98.27-2.98.27"/>
  <circle cx="88.38" cy="76.52" r=".64"/>
  <path class="cls-11" d="m90.27,75.1s-.18-1.65-1.89-1.54"/>
  <line class="cls-24" x1="97.97" y1="82.24" x2="97.42" y2="81.99"/>
  <circle class="cls-32" cx="91.34" cy="79.87" r="1.34"/>
  <path class="cls-33" d="m85.57,82.09s0,0,0,.01c.09.51.54,1.01,1.34,1.07.65.06,1.09-.12,1.41-.35,0,0,0,0-.01-.02,0-.01-.02-.04-.04-.07-.04-.05-.09-.12-.17-.21-.03-.03-.06-.06-.09-.09-.06-.06-.12-.12-.21-.18-.15-.12-.35-.23-.59-.3-.06-.01-.12-.04-.18-.04-.04-.01-.09-.02-.14-.02-.36-.05-.8,0-1.31.21Z"/>
  <polygon class="cls-32" points="87.56 82.35 87.56 82.35 87.56 82.35 87.56 82.35"/>
  <path class="cls-32" d="m85.62,82.23c.48-.2.89-.24,1.22-.19.05,0,.09,0,.13.02.06,0,.12.03.17.04.22.07.4.17.55.28.08.05.14.11.19.17.03.03.06.05.08.08.08.08.12.15.16.2.02.03.03.05.04.06,0,.01.01.02.01.02.4-.29.55-.67.55-.67.22-1.24-1.85-1.16-1.85-1.16-.96-.05-1.37.56-1.26,1.15Z"/>
  <path class="cls-32" d="m84.8,81.63h.02s0,0,0,0c0,0-.01,0-.02,0Z"/>
  <path class="cls-8" d="m86.88,81.15s2.07-.08,1.85,1.16c0,0-.15.38-.55.67-.29.21-.71.38-1.31.33-.74-.06-1.16-.52-1.24-1,0,0,0-.01,0-.01-.11-.59.3-1.2,1.26-1.15Z"/>
  <path class="cls-24" d="m87.74,67.59s2.43,5.55,7.66,5.96c0,0-1.06,3.21,2.82,4.25"/>
  <path class="cls-1" d="m41.48,119.25c-4.73-3.21-23.77-.33-26.97-7.6-3.2-7.26,2.86-10.39,2.86-10.39,0,0,1.03,1.37,3.01,2.5,1.98,1.13,3.65,1.78,4.55,2.52,2.26,1.89,5.1,4.44,4.52,2.83-.15-.42-.88-1.33-1.05-1.61l1.37.92s0,0,.01,0c.79.52,1.79,1.09,2.11.93.76.37,1.53.73,2.31,1.08,2.47,1.13,4.9,2.07,6.63,2.14.18,0,.76.36,1.29.7.4.26.76.51.91.61.21.14.43.31.67.49,4.32,3.29,2.53,8.07-2.21,4.87Z"/>
  <path class="cls-3" d="m17.21,100.88c-6.72-5.41-1.7-18.98-1.7-18.98,2.76-6.55,7.88-5.75,8.63-7.7.75-1.95-.38-2.41-.38-2.41-8.65-1.71-11.53-7.17-10.75-12.59.76-5.42,5.74-13.92,16.2-11.36,10.46,2.55,7.38,11.23,7.38,11.23,0,0,.29,1.37,1.59,1.47,1.31.09.26,2.13.26,2.13,0,0,3.16,6.81-2.27,8.32-1.99.55-2.75,1.19-2.73,1.9,0,.02,0,.05,0,.08,0,.04.02.08.02.12.28,1.2,2.58,2.59,4.97,4.12,0,0,0,0,.01,0,.02.02.11.07.25.19.05.05.11.1.17.16.71.71,2.21,2.71,3.92,7.95,1.46,4.48,2.32,7.24,3.48,9.15.73,1.2,1.58,2.08,2.79,2.83,3.11,1.95,4.59,4.19,2.52,4.41"/>
  <path class="cls-4" d="m30.73,105.58c1.63.76,2.23,2.06,2.86,2.53"/>
  <path class="cls-16" d="m33.15,105.57s-.01-.01-.02-.01"/>
  <path class="cls-16" d="m22.02,82.8s.51,9.48.04,13.56c0,0,.73-.19,3.58,2.47.09.08.17.17.26.25"/>
  <path class="cls-4" d="m29.83,106.91s1.52,1.01,2,1.81h0"/>
  <path class="cls-16" d="m31.84,108.73h0"/>
  <line class="cls-16" x1="27.69" y1="101.07" x2="27.69" y2="101.07"/>
  <path class="cls-16" d="m25.89,99.08h-.02"/>
  <path class="cls-1" d="m40.49,94.33s.12,1.68.51,5.33c0,0,4.24,8.77,1.13,13.63,0,0,0,.01-.01.02-2.68-1.59-2.82-.06-6.19-1.91-.69-.38-1.26-.69-1.73-.95l-2.21-1.22c.03-.14-.03-.31-.14-.49.14.1,2.05,1.43,1.74-.62.29.21.57.25.96,0,1.19-.77-1.15-2.38-1.39-2.54,1.53.73,2.64.22-.66-.94-1.47-.52-2.25-1.27-3.97-2.55l-1.32,1.03-3.18,2.43s-4.11-1.81-5.71-3.29c0,0-1.67-1.68-2.7-2.95-4.74-5.87-.34-19.31,1.81-21.35,2.14-2.03,6.7-3.76,6.7-3.76,9,1.9,9.47-.22,9.33-1.1,0-.04-.02-.08-.02-.12-.02-.08-.05-.14-.06-.18.02.03.04.07.05.1.75,1.35,1.19,1.65,5,4.33,0,0,0,0,.01,0,.08.06.17.13.25.19.05.05.11.1.17.16,3.8,3.45,7.6,16.87,7.6,16.87-.04.07-.1.14-.2.23-.88.8-4.1,2.37-4.1,2.37l-1.69-2.71Z"/>
  <path class="cls-4" d="m43.48,97.58s-.6,6.23.72,4.61c1.32-1.62.82-4.01,2.59-2.03s1.44,3.3,2.14,2c.69-1.3-.66-2.95-.66-2.95"/>
  <path class="cls-16" d="m49.04,100.69s3.29,3.62,1.82.3l-1.16-1.78"/>
  <path class="cls-25" d="m46.68,113.67c-1.39.41-1.91,1.28-1.91,1.28.76.87,1.58,2.52,1.47,3.5-.24,2.2,12.45-.75,10.04-4.84-1.22-2.07-6.56-.78-6.56-.78"/>
  <path class="cls-1" d="m48.62,103.93s-2.53-.57-2.73,4.75c-.05,1.33,0,5.34,0,5.34,0,0,3.38-1.34,6.53-1.54,0,0,3.09-5.14,3.92-11.37s-6.26-4.4-6.26-4.4l-9.09,2.84s3.99,8.17,1.12,13.74l.9.61s1.42-1.19,2.63-2.93"/>
  <path class="cls-4" d="m24.14,64.38s-2.93.98-1.24,3.39c1.68,2.41,3.17.29,3.17.29"/>
  <circle cx="34.65" cy="61.17" r=".68"/>
  <path class="cls-26" d="m32.42,60.07s.19-1.76,2.02-1.64"/>
  <line class="cls-28" x1="24.23" y1="66.65" x2="24.81" y2="66.38"/>
  <circle class="cls-32" cx="31.29" cy="64.12" r="1.43"/>
  <path class="cls-33" d="m37.38,66.64s0,0,0,.01c-.09.51-.54,1-1.33,1.06-.64.06-1.09-.12-1.4-.35,0,0,0,0,.01-.02,0-.01.02-.04.04-.07.04-.05.09-.12.17-.21.03-.03.06-.06.09-.09.06-.06.12-.12.2-.18.15-.12.35-.23.58-.3.06-.01.12-.04.18-.04.04-.01.09-.02.14-.02.36-.05.79,0,1.3.2Z"/>
  <polygon class="cls-32" points="34.65 67.37 34.66 67.37 34.65 67.37 34.65 67.37"/>
  <path class="cls-32" d="m37.38,66.64c-.51-.21-.95-.25-1.3-.2-.05,0-.09,0-.14.02-.07,0-.12.03-.18.04-.23.07-.43.18-.58.3-.08.06-.15.12-.2.18-.04.03-.07.06-.09.09-.08.09-.13.16-.17.21-.02.03-.04.05-.04.07,0,.01-.01.02-.01.02-.43-.31-.59-.71-.59-.71-.23-1.33,1.97-1.24,1.97-1.24,1.02-.06,1.46.6,1.34,1.22Z"/>
  <path class="cls-32" d="m37.4,66.65h-.02s0,0,0,0c0,0,.01,0,.02,0Z"/>
  <path class="cls-23" d="m36.04,65.48s-2.21-.09-1.97,1.24c0,0,.16.4.59.71.31.23.76.41,1.4.35.79-.07,1.24-.55,1.33-1.06,0,0,0-.01,0-.01.12-.63-.32-1.28-1.34-1.22Z"/>
  <path class="cls-4" d="m35.12,51.04s-2.59,5.91-8.16,6.35c0,0,1.13,3.42-3.01,4.53"/>
  <path class="cls-25" d="m40.49,94.33c-.54-2.17-.82-4.14-1.87-6.87"/>
  <path class="cls-1" d="m20.48,92.38c.5,4.76,8.64,9.26,8.64,9.26l-1.91,1.47"/>
  <path class="cls-4" d="m72.15,56.4s1.06.84,2.96.56"/>
  <circle class="cls-6" cx="71.94" cy="19.43" r="2.15"/>
  <line class="cls-4" x1="74.31" y1="18.8" x2="79.4" y2="18.16"/>
  <line class="cls-26" x1="69.43" y1="15.73" x2="71.35" y2="15.21"/>
  <line class="cls-26" x1="69.43" y1="16.46" x2="71.35" y2="15.95"/>
  <path class="cls-26" d="m74.94,23.67s.67-.12.93.85"/>
</svg>