<?xml version="1.0" encoding="UTF-8"?>
<svg id="Calque_1" data-name="Calque 1" xmlns="http://www.w3.org/2000/svg" viewBox="0 0 128 128">
  <defs>
    <style>
      .cls-1 {
        fill: #fce9b9;
        stroke-width: 2px;
      }

      .cls-1, .cls-2 {
        stroke: #000;
        stroke-miterlimit: 10;
      }

      .cls-2 {
        fill: #bfe6fc;
      }

      .cls-3 {
        fill: none;
        stroke: #fff;
        stroke-linecap: round;
        stroke-linejoin: round;
        stroke-width: 8px;
      }
    </style>
  </defs>
  <path class="cls-1" d="m53.48,11.73s1.73,6.28,7.15,6.93c5.41.65,7.36,1.08,9.75-1.95,2.38-3.03,3.03-5.85,3.03-5.85l7.36,3.03s-.43,8.66,0,12.56,2.17,7.36,5.63,8.66c3.47,1.3,12.13,55.01,12.13,62.38s-1.73,14.51-5.63,17.54c-3.9,3.03-9.75,5.2-19.49,4.76-9.75-.43-24.04-1.52-28.81-2.17-4.76-.65-11.26-1.95-13.43-7.8-2.17-5.85-2.38-17.33,0-30.97,2.38-13.64,8.66-42.45,8.66-43.75s3.68,0,4.55-3.47c.87-3.47,1.52-16.68,1.08-17.76s8.01-2.17,8.01-2.17Z"/>
  <circle class="cls-2" cx="53.67" cy="25.85" r="3.71"/>
  <circle class="cls-2" cx="72.6" cy="25.85" r="3.71"/>
  <rect class="cls-3" x="-4605.96" y="-5822" width="6467.34" height="6437.3"/>
</svg>