<?xml version="1.0" encoding="UTF-8"?>
<svg id="Calque_1" data-name="Calque 1" xmlns="http://www.w3.org/2000/svg" viewBox="0 0 128 128">
  <defs>
    <style>
      .cls-1, .cls-2, .cls-3, .cls-4, .cls-5 {
        stroke-linecap: round;
        stroke-linejoin: round;
      }

      .cls-1, .cls-2, .cls-3, .cls-5 {
        fill: none;
      }

      .cls-1, .cls-3 {
        stroke: #fab0b4;
      }

      .cls-2, .cls-3, .cls-4 {
        stroke-width: 2px;
      }

      .cls-2, .cls-4 {
        stroke: #000;
      }

      .cls-4 {
        fill: #fab0b4;
      }

      .cls-5 {
        stroke: #fff;
        stroke-width: 8px;
      }
    </style>
  </defs>
  <g>
    <path class="cls-2" d="m105.13,58.2c-.29-.11-7.17-2.84-21.64-4.33-5.48-.57-12.04-.96-19.75-.96s-14.59.41-20.1,1c-14.03,1.5-20.51,4.18-20.78,4.29.42-.43,13.02-13.35,17.75-17.34,4.82-4.07,10.49-5.99,13.81-5.99s6.84,2.67,9.57,2.67,6.37-2.67,9.47-2.67,5.99,1.18,10.8,3.42c4.74,2.21,20.38,19.37,20.87,19.91Z"/>
    <path class="cls-2" d="m43.93,61.07c.55,5.83,1.82,11.72,3.64,17-16.12-6.25-24.72-19.86-24.72-19.86,0,0,8.28,1.76,21.08,2.86Z"/>
    <path class="cls-2" d="m105.14,58.21s-8.95,14.16-25.71,20.23c1.88-5.34,3.2-11.36,3.76-17.3,13.29-1.1,21.95-2.93,21.95-2.93Z"/>
    <path class="cls-4" d="m83.5,54.84c0,2.07-.1,4.18-.31,6.3-.56,5.94-1.88,11.96-3.76,17.3-3.64,10.35-9.39,14.69-15.86,14.69s-12.36-4.52-16-15.05h0c-1.82-5.29-3.09-11.18-3.64-17.01-.2-2.1-.3-4.18-.3-6.23,0-.32,0-.63.01-.93,5.51-.59,12.18-1,20.1-1s14.27.39,19.75.96c.01.32.01.64.01.97Z"/>
    <line class="cls-2" x1="63.74" y1="52.91" x2="63.74" y2="75.6"/>
  </g>
  <g>
    <line class="cls-3" x1="93.29" y1="84.87" x2="93.29" y2="89.14"/>
    <line class="cls-3" x1="93.29" y1="96.15" x2="93.29" y2="100.42"/>
    <line class="cls-3" x1="87.42" y1="92.64" x2="90.35" y2="92.64"/>
    <line class="cls-3" x1="96.23" y1="92.64" x2="99.16" y2="92.64"/>
  </g>
  <g>
    <line class="cls-1" x1="77.64" y1="95.7" x2="77.64" y2="97.84"/>
    <line class="cls-1" x1="77.64" y1="101.35" x2="77.64" y2="103.48"/>
    <line class="cls-1" x1="74.7" y1="99.59" x2="76.17" y2="99.59"/>
    <line class="cls-1" x1="79.11" y1="99.59" x2="80.57" y2="99.59"/>
  </g>
  <g>
    <line class="cls-3" x1="29.78" y1="78.44" x2="29.78" y2="81.85"/>
    <line class="cls-3" x1="29.78" y1="87.46" x2="29.78" y2="90.87"/>
    <line class="cls-3" x1="25.09" y1="84.66" x2="27.43" y2="84.66"/>
    <line class="cls-3" x1="32.13" y1="84.66" x2="34.47" y2="84.66"/>
  </g>
  <rect class="cls-5" x="-2620.92" y="-998.34" width="6467.34" height="6437.3"/>
</svg>