<?xml version="1.0" encoding="UTF-8"?>
<svg id="Calque_1" data-name="Calque 1" xmlns="http://www.w3.org/2000/svg" viewBox="0 0 128 128">
  <defs>
    <style>
      .cls-1 {
        fill: #fee4cb;
      }

      .cls-1, .cls-2, .cls-3, .cls-4, .cls-5 {
        stroke-linecap: round;
        stroke-linejoin: round;
      }

      .cls-1, .cls-2, .cls-3, .cls-6, .cls-5 {
        stroke: #000;
      }

      .cls-2 {
        fill: #fff;
      }

      .cls-3, .cls-4 {
        fill: none;
      }

      .cls-7 {
        fill: #f3d587;
      }

      .cls-8 {
        fill: #ff6d75;
      }

      .cls-9 {
        fill: #b4eac3;
      }

      .cls-10 {
        fill: #87f3b9;
      }

      .cls-4 {
        stroke: #fff;
        stroke-width: 8px;
      }

      .cls-6 {
        stroke-miterlimit: 10;
        stroke-width: 2px;
      }
    </style>
  </defs>
  <line class="cls-6" x1="98.26" y1="113.21" x2="98.26" y2="12.02"/>
  <g>
    <circle class="cls-8" cx="84.01" cy="113.21" r="8.49" transform="translate(-37.53 184.65) rotate(-83.87)"/>
    <path class="cls-3" d="m92.5,113.21c0,4.69-3.8,8.49-8.5,8.49-4.69,0-8.49-3.8-8.49-8.49,0-4.69,3.8-8.49,8.5-8.49,1.46,0,2.83.37,4.03,1.01"/>
    <path class="cls-3" d="m80.51,117.54c.87-.95,2.11-1.54,3.5-1.54s2.64.6,3.5,1.55"/>
    <g>
      <circle class="cls-5" cx="80.68" cy="111.57" r="1.06" transform="translate(-38.87 179.88) rotate(-83.87)"/>
      <circle class="cls-5" cx="87.33" cy="111.57" r="1.06" transform="translate(-32.93 186.49) rotate(-83.87)"/>
    </g>
  </g>
  <g>
    <circle class="cls-9" cx="84.01" cy="45.76" r="8.5" transform="translate(-9.4 25.11) rotate(-16.11)"/>
    <path class="cls-3" d="m92.5,45.76c0,4.69-3.8,8.5-8.5,8.49-4.69,0-8.49-3.8-8.49-8.5,0-4.69,3.8-8.5,8.5-8.49,1.46,0,2.83.37,4.03,1.01"/>
    <path class="cls-3" d="m87.51,48.96c-.87.95-2.11,1.54-3.5,1.54-1.39,0-2.64-.6-3.5-1.55"/>
    <g>
      <circle class="cls-5" cx="80.68" cy="44.12" r="1.06" transform="translate(-9.08 24.13) rotate(-16.11)"/>
      <circle class="cls-5" cx="87.33" cy="44.12" r="1.06" transform="translate(-8.81 25.97) rotate(-16.11)"/>
    </g>
  </g>
  <g>
    <circle class="cls-10" cx="84.01" cy="12.02" r="8.5" transform="translate(71.71 95.99) rotate(-89.81)"/>
    <path class="cls-3" d="m92.5,12.02c0,4.69-3.8,8.5-8.49,8.5-4.69,0-8.49-3.8-8.49-8.5s3.8-8.5,8.49-8.5c1.46,0,2.83.37,4.03,1.01"/>
    <g>
      <circle class="cls-5" cx="80.69" cy="10.38" r="1.06" transform="translate(70.05 91.04) rotate(-89.81)"/>
      <circle class="cls-5" cx="87.34" cy="10.38" r="1.06" transform="translate(76.68 97.69) rotate(-89.81)"/>
    </g>
    <path class="cls-3" d="m87.28,14.27c0,1.8-1.46,3.26-3.26,3.26-1.8,0-3.26-1.46-3.26-3.26h6.51Z"/>
  </g>
  <g>
    <ellipse class="cls-7" cx="84" cy="79.5" rx="8.43" ry="8.53" transform="translate(-12.97 16.48) rotate(-10.4)"/>
    <path class="cls-3" d="m92.44,79.47c.03,4.71-3.72,8.54-8.37,8.55s-8.46-3.79-8.5-8.49,3.72-8.54,8.37-8.55c1.45,0,2.81.36,4.01,1"/>
    <g>
      <ellipse class="cls-5" cx="80.69" cy="77.86" rx="1.05" ry="1.07" transform="translate(-12.73 15.85) rotate(-10.4)"/>
      <ellipse class="cls-5" cx="87.29" cy="77.84" rx="1.05" ry="1.07" transform="translate(-12.62 17.04) rotate(-10.4)"/>
    </g>
    <line class="cls-3" x1="80.11" y1="83.3" x2="87.33" y2="83.28"/>
  </g>
  <line class="cls-6" x1="95.9" y1="113.21" x2="101.02" y2="113.21"/>
  <line class="cls-6" x1="95.9" y1="79.48" x2="101.02" y2="79.48"/>
  <line class="cls-6" x1="95.9" y1="45.75" x2="101.02" y2="45.75"/>
  <line class="cls-6" x1="95.9" y1="12.02" x2="101.02" y2="12.02"/>
  <path class="cls-1" d="m55.8,104.08c-.53.95-.2,2.23-.03,3.24.23,1.35.45,2.71.6,4.08.06.48.11.95.14,1.42.04.68.05,1.33,0,1.91-.31,3.75,0,4.26,0,4.26h-23.28s-.81-3.5-1.82-6.88c-.38-1.31-.8-2.61-1.22-3.67-1.48-3.86-2.36-14.65.88-20.12l1.45-3.1s0-.02.02-.04c.13-.34-.13-.72-.33-.97-.67-.83-1.68-1.51-2.46-2.27-.87-.84-1.71-1.72-2.33-2.78-1.12-1.91-1.12-4.26-1.55-6.39-.48-2.34-.85-4.7-1.14-7.07-.05-.44-.11-.88-.15-1.32,2.52-6.95,6.45-15.28,11.18-16.8,8.37-2.68,19.84,9.87,19.84,9.87-.09.91.17,1.93.63,3,0,0,0,.02,0,.03.92,2.15.86,4.55,1.65,6.72.28.78.61,1.55.95,2.31.61,1.35,1.27,2.69,1.77,4.09,1.58,4.32,2.48,8.92,1.78,13.52-.93,6.05-3.65,11.68-6.6,16.96Z"/>
  <path class="cls-2" d="m64.99,96.28c-1.14.3-1.88.34-1.31.82.57.47.48,1.55-.17,1.95-.64.41-.2,1.35-1.04,1.96-.85.61-1.18,1.12-2.23,1.19-1.05.06-1.89,1.34-3.37.84-.03,0-.06-.02-.09-.03-1.48-.56-3.65-2.68-4.47-3.27-.85-.61-7.25-5.8-12.18-8.91-2.44-1.54-5.3-3.98-7.67-6.22h0c-.73-.7-1.54-1.34-2.25-2.07-.86-.88-1.9-1.88-2.62-2.97-.03-.04-.06-.08-.08-.13-.04-.05-.07-.11-.1-.16-.13-.19-.21-.36-.3-.55-.04-.08-.06-.15-.09-.22,0,0-.02-.03-.03-.04-.13-.31-.22-.64-.31-.97-.22-.91-.3-1.86-.41-2.79-.1-.7-.2-1.38-.43-2.04,0,0,0-.03,0-.04-.02-.06-.03-.11-.04-.16-.05-.21-.08-.33-.08-.33,0,0-.76-4.37-1.13-7.76v-.07c-.13-1.12-.19-2.13-.19-2.83.07-2.83-.08-6.24-.08-6.24,0,0-1.81-9.51-.8-13.87.33-1.4.86-3.13,1.59-4.81.3-.69.63-1.37,1-2.03.78-1.36,1.69-2.6,2.79-3.5.26-.21.54-.41.82-.58.85-.52,1.79-.83,2.82-.83,3.62,0,7.62-.5,9.88,1.41.89-4.97,6.66-10.17,6.66-10.17,0,0,6.67-7.69,9.97-1.67,0,0,.44,3.4-2.6,8.19-3.04,4.8-2.57,5.67-2.57,6.55s-1.87,0-1.87,0c0,0-4.69,4.03-7.66,2.4-.66-.36-1.23-.99-1.65-2.01-.2-.48-.32-.97-.37-1.48-.43.15-.86.28-1.29.42-1.93,4.07,1.91,8.09,1.91,8.09,0,0,13.06,11.84,12.65,16.1,0,0-11.44-12.51-19.81-9.87-.15,1.13-1.01,4.67-.32,9.67.81,5.87-.21,13.96-.21,13.96-.21,1.97,1.52,2.96,2.7,4.22,1.93,2.05,3.54,4.37,5.32,6.55,1.87,2.29,3.76,4.56,5.83,6.67,1.32,1.35,2.98,3.2,4.89,3.72,1.05.27,2.07.56,3.16.44.95-.12,1.84-.52,2.82-.42,1.14.1,2.41,1.18,3.27,1.84.24.19.39.29.39.29,0,0,2.49,1.45,1.34,1.75Z"/>
  <path class="cls-2" d="m24.32,55.22s-1.81-9.51-.8-13.86c.46-1.98,1.32-4.59,2.59-6.84h0c20.76-.36,32.93-15.33,32.93-15.33,0,0,.44,3.41-2.6,8.2-3.04,4.79-2.56,5.67-2.56,6.55,0,.88-1.87,0-1.87,0,0,0-4.7,4.04-7.67,2.4-.66-.36-1.22-1-1.64-2.01-.2-.48-.32-.97-.37-1.48-.42.15-.85.28-1.29.42-1.92,4.07,1.91,8.1,1.91,8.1,0,0,0,0,.01,0,.36-.14,8.24-3.25,11.93-6.6,3.72-3.39,10.13-9.01,4.9-20.59-.08-.17-.16-.35-.25-.53-2.58-5.44-9.22-7.79-14.92-7.33-9.75.79-11.62,8.95-14.87,16.44-1.61,3.71-3.37,7.36-5.45,10.84-.18.3-.34.6-.5.89-5.44,10.25.5,20.76.5,20.76Z"/>
  <path class="cls-2" d="m50.92,27.05s.71,1.75,2.62,1.33"/>
  <rect class="cls-4" x="-790.19" y="-4216.29" width="6467.34" height="6437.3"/>
</svg>