<?xml version="1.0" encoding="UTF-8"?>
<svg id="Calque_1" data-name="Calque 1" xmlns="http://www.w3.org/2000/svg" viewBox="0 0 128 128">
  <defs>
    <style>
      .cls-1 {
        fill: #f3d587;
      }

      .cls-1, .cls-2, .cls-3, .cls-4 {
        stroke-linecap: round;
        stroke-linejoin: round;
      }

      .cls-1, .cls-2, .cls-4 {
        stroke: #000;
        stroke-width: 2px;
      }

      .cls-2, .cls-3 {
        fill: none;
      }

      .cls-3 {
        stroke: #fff;
        stroke-width: 8px;
      }
    </style>
  </defs>
  <path class="cls-1" d="m81.39,84.76c0,15-5.81,18.65-14.16,27.15-8.38-8.5-14.16-12.15-14.16-27.15,0-12.72,4.57-23.41,10.73-26.35,1.07.63,2.23.99,3.43.99s2.34-.37,3.41-1c6.17,2.93,10.75,13.62,10.75,26.36Z"/>
  <path class="cls-1" d="m77.68,46.24c0,3.58-2.95,9.76-7.04,12.16-1.07.63-2.22,1-3.41,1s-2.36-.36-3.43-.99c-4.08-2.34-7.02-8.38-7.02-12.17,0-4.13,3.01-10.11,7.18-12.3.27.03.54.05.81.05h4.92c.27,0,.54-.02.8-.05,4.17,2.24,7.19,8.31,7.19,12.3Z"/>
  <path class="cls-1" d="m76.32,27.36c0,1.82-.74,3.48-1.95,4.68-1.02,1.02-2.37,1.72-3.88,1.9-.26.03-.53.05-.8.05h-4.92c-.27,0-.54-.02-.81-.05-3.27-.4-5.82-3.21-5.82-6.58,0-1.82.74-3.48,1.95-4.69s2.85-1.95,4.68-1.95h4.92c3.65,0,6.63,2.99,6.63,6.64Z"/>
  <g>
    <path class="cls-2" d="m38.29,27.36s6.23,1.28,9.21,5.11c3.83,4.94,4.79,8.73,4.79,8.73h5.63"/>
    <polyline class="cls-2" points="23.33 55 35.41 55 43.47 46.95 56.78 46.95"/>
    <path class="cls-2" d="m49.92,15.23s2.69-.81,4.84,0c2.15.81,7.29,6.09,7.29,6.09"/>
    <path class="cls-2" d="m58.96,53.2l-28.04,56.4s-13.69-6.52-6.15-24.23c4.36-10.24,32.01-37.04,32.01-37.04l2.17,4.87Z"/>
  </g>
  <g>
    <path class="cls-2" d="m96.08,27.36s-6.23,1.28-9.21,5.11c-3.83,4.94-4.79,8.73-4.79,8.73h-5.63"/>
    <polyline class="cls-2" points="111.04 55 98.95 55 90.9 46.95 77.58 46.95"/>
    <path class="cls-2" d="m84.45,15.23s-2.69-.81-4.84,0c-2.15.81-7.29,6.09-7.29,6.09"/>
    <path class="cls-2" d="m75.41,53.2l28.04,56.4s13.69-6.52,6.15-24.23c-4.36-10.24-32.01-37.04-32.01-37.04l-2.17,4.87Z"/>
  </g>
  <path class="cls-4" d="m80.14,74.52s-6.25,1.6-12.91,1.6-12.91-1.6-12.91-1.6l.6-2.97s5.96,1.6,12.31,1.6,12.31-1.6,12.31-1.6l.6,2.97Z"/>
  <path class="cls-4" d="m53.07,86.58s6.86,1.6,14.16,1.6,14.16-1.6,14.16-1.6v-2.97s-6.86,1.6-14.16,1.6-14.16-1.6-14.16-1.6v2.97Z"/>
  <path class="cls-4" d="m56.15,98.63s5.37,1.6,11.08,1.6,11.08-1.6,11.08-1.6l1.4-2.97s-6.09,1.6-12.57,1.6-12.57-1.6-12.57-1.6l1.58,2.97Z"/>
  <rect class="cls-3" x="-3980.53" y="-2979.97" width="6467.34" height="6437.3"/>
</svg>