<?xml version="1.0" encoding="UTF-8"?>
<svg id="Calque_1" data-name="Calque 1" xmlns="http://www.w3.org/2000/svg" viewBox="0 0 200.13 128.13">
  <defs>
    <style>
      .cls-1, .cls-2, .cls-3, .cls-4, .cls-5, .cls-6, .cls-7 {
        stroke: #000;
      }

      .cls-1, .cls-2, .cls-3, .cls-4, .cls-5, .cls-8 {
        stroke-linecap: round;
        stroke-linejoin: round;
      }

      .cls-1, .cls-6 {
        fill: #76ac75;
      }

      .cls-2 {
        fill: #d6d6d6;
      }

      .cls-3 {
        fill: #f3d587;
      }

      .cls-4 {
        fill: #fff;
      }

      .cls-5, .cls-8, .cls-7 {
        fill: none;
      }

      .cls-6, .cls-7 {
        stroke-miterlimit: 10;
      }

      .cls-8 {
        stroke: #fff;
        stroke-width: 8px;
      }
    </style>
  </defs>
  <g>
    <path class="cls-7" d="m173.9,98.19c3.19-.57,6.23,1.55,6.8,4.74.37,2.08-.4,4.1-1.87,5.41"/>
    <path class="cls-7" d="m180.74,103.81c2.84-2.37,7.06-1.99,9.42.84,1.55,1.85,1.92,4.29,1.2,6.42"/>
    <path class="cls-7" d="m186.14,112.73c2.84-2.37,7.06-1.99,9.42.84,1.55,1.85,1.92,4.29,1.2,6.42"/>
  </g>
  <path class="cls-1" d="m79.71,50.4l-5.3-7.99c-.14-.21-.46-.12-.47.12l-.25,3.35"/>
  <path class="cls-1" d="m74.09,55.99l-8.81-4.81c-.22-.12-.16-.44.08-.48l3.51-.42"/>
  <path class="cls-2" d="m99.5,20.72c.85-.19,1.7-.16,2.48.07.57-2.35,2.42-4.29,4.93-4.87,3-.68,5.98.79,7.31,3.39.52-.38,1.12-.67,1.78-.82,2.56-.58,5.1.99,5.71,3.52.59-.39,1.26-.69,1.99-.85,3.22-.74,6.43,1.27,7.16,4.48.73,3.21-1.28,6.41-4.51,7.14-2.35.54-4.69-.39-6.07-2.17-.51,1.6-1.84,2.89-3.6,3.29-2.02.46-4.03-.39-5.14-1.98-.65,1.22-1.8,2.16-3.25,2.49-2.65.61-5.29-1.04-5.89-3.68-.05-.21-.08-.43-.1-.64-.2.07-.41.14-.62.19-2.65.61-5.29-1.04-5.89-3.68-.6-2.64,1.06-5.27,3.71-5.88Z"/>
  <path class="cls-2" d="m78.59,24.87c-.69.19-1.38.19-2.02.05-.4,1.86-1.75,3.78-3.79,4.33-2.43.66-5.02-.68-6.17-2.66-.41.32-.9.53-1.43.71-4.77,1.63-6.91-3.09-3.66-5.61-2.08-4.27.72-6.15,2.14-6.54,1.64-.45,3.87.27,4.82,1.47.5-.98,1.42-1.76,2.59-2.08,2.15-.59,4.34.59,4.9,2.63.05.17.08.33.1.5.16-.07.33-.13.51-.17,2.15-.59,4.34.59,4.9,2.63s-.73,4.16-2.88,4.75Z"/>
  <path class="cls-2" d="m77.27,21.38c.68-.46,1.45-.71,2.23-.76-.39-2.36.52-4.77,2.54-6.15,2.4-1.64,5.61-1.28,7.78.68.31-.52.74-.99,1.27-1.35,2.05-1.4,4.9-.8,6.41,1.33.37-.56.86-1.05,1.44-1.45,2.58-1.76,6.19-.99,8.06,1.73,1.87,2.72,1.29,6.35-1.3,8.11-1.88,1.29-4.31,1.22-6.22.03.15,1.65-.53,3.29-1.94,4.25-1.62,1.1-3.72,1-5.31-.1-.12,1.34-.78,2.59-1.95,3.39-2.12,1.45-5.09.81-6.63-1.42-.12-.18-.23-.37-.33-.56-.15.14-.31.27-.48.38-2.12,1.45-5.09.81-6.63-1.42-1.54-2.23-1.06-5.22,1.07-6.67Z"/>
  <path class="cls-2" d="m90.34,34.66c-.62.24-1.26.31-1.87.22-.16,1.82-1.32,3.49-3.15,4.21-2.17.85-4.58.08-5.88-1.72-.34.34-.76.62-1.24.81-1.85.73-3.94-.17-4.69-2-.4.36-.86.66-1.39.86-2.34.92-4.97-.23-5.89-2.56-.92-2.33.23-4.95,2.57-5.87,1.7-.67,3.32-.71,4.56.48.2-1.26,1.3-1.91,2.57-2.41,1.46-.57,3.07-.16,4.09.91.35-.99,1.11-1.82,2.16-2.23,1.92-.75,4.09.19,4.85,2.1.06.16.11.31.15.47.14-.08.29-.15.45-.21,1.92-.75,4.09.19,4.85,2.1.76,1.91-.19,4.08-2.11,4.83Z"/>
  <path class="cls-3" d="m161.73,50.1s1.03-1.21,1.73-3.55c1.24-4.19.63-10.9.63-10.9,0,0-.36,1.58-2.39,2.64-1.24.65-.81,1.17-1.02.85-1.43-2.19-1.26,1.25-1.26,1.25,0,0,2.67-1.44,1.26-1.25-1.16.16-2.64-6.38-2.64-6.38,0,0-.44-1.84-.26-3.07.08-.53.85-3.28-1.21-5.57,0,0,.21,1.77-.31,2.26-.48.45-1.2.77-1.62,1.12-1.82,1.5-2.21,2.57-2.21,2.57,0,0,.97-1.4-1.96-4.57-2.17-2.34-5.78-2.86-5.78-2.86,0,0,3.06,1.41.38,5.73,0,0-.41-2.28-2.03-3.01-.93-.42-2.23-1.27-2.18-2.78,0,0-3.48,3.81-1.95,8.73,0,0-1.51.41-3.13-1.97-1.37-2.02-.96-3.7-.96-3.7,0,0-2.59,4.23-1.52,7.26.82,2.31,1.17,3.83.48,4.82-.82,1.17-3.84-1.23-4.51-2.85-.11-.25-.48-1.05-.48-1.05,0,0-1.21,5.98,1.45,8.09,0,0-.22-.21-1.04-.06-.91.16-1.83-1.22-1.83-1.22,0,0,3.16,13.11,8.29,13.84,5.12.73,26.06-4.41,26.06-4.41Z"/>
  <polygon class="cls-2" points="128.64 48 128.64 117.62 102.38 117.62 102.38 60.28 105.44 55.3 109.72 53.59 111.08 49.8 111.78 48 128.64 48"/>
  <rect class="cls-4" x="116.71" y="51.24" width="3.06" height="2.94"/>
  <rect class="cls-4" x="122.35" y="51.24" width="3.06" height="2.94"/>
  <rect class="cls-4" x="111.07" y="56.65" width="3.06" height="2.94"/>
  <rect class="cls-4" x="116.71" y="56.65" width="3.06" height="2.94"/>
  <rect class="cls-4" x="122.35" y="56.65" width="3.06" height="2.94"/>
  <rect class="cls-4" x="105.44" y="62.07" width="3.06" height="2.94"/>
  <rect class="cls-4" x="111.07" y="62.07" width="3.06" height="2.94"/>
  <rect class="cls-4" x="116.71" y="62.07" width="3.06" height="2.94"/>
  <rect class="cls-4" x="122.35" y="62.07" width="3.06" height="2.94"/>
  <rect class="cls-4" x="105.44" y="67.48" width="3.06" height="2.94"/>
  <rect class="cls-4" x="111.07" y="67.48" width="3.06" height="2.94"/>
  <rect class="cls-4" x="116.71" y="67.48" width="3.06" height="2.94"/>
  <rect class="cls-4" x="122.35" y="67.48" width="3.06" height="2.94"/>
  <rect class="cls-4" x="105.44" y="72.9" width="3.06" height="2.94"/>
  <rect class="cls-4" x="111.07" y="72.9" width="3.06" height="2.94"/>
  <rect class="cls-4" x="116.71" y="72.9" width="3.06" height="2.94"/>
  <rect class="cls-4" x="122.35" y="72.9" width="3.06" height="2.94"/>
  <rect class="cls-4" x="105.44" y="78.31" width="3.06" height="2.94"/>
  <rect class="cls-4" x="111.07" y="78.31" width="3.06" height="2.94"/>
  <rect class="cls-4" x="116.71" y="78.31" width="3.06" height="2.94"/>
  <rect class="cls-4" x="122.35" y="78.31" width="3.06" height="2.94"/>
  <rect class="cls-4" x="105.44" y="83.73" width="3.06" height="2.94"/>
  <rect class="cls-4" x="111.07" y="83.73" width="3.06" height="2.94"/>
  <rect class="cls-4" x="116.71" y="83.73" width="3.06" height="2.94"/>
  <rect class="cls-4" x="122.35" y="83.73" width="3.06" height="2.94"/>
  <rect class="cls-4" x="105.44" y="89.14" width="3.06" height="2.94"/>
  <rect class="cls-4" x="111.07" y="89.14" width="3.06" height="2.94"/>
  <rect class="cls-4" x="116.71" y="89.14" width="3.06" height="2.94"/>
  <rect class="cls-4" x="122.35" y="89.14" width="3.06" height="2.94"/>
  <rect class="cls-4" x="105.44" y="94.56" width="3.06" height="2.94"/>
  <rect class="cls-4" x="111.07" y="94.56" width="3.06" height="2.94"/>
  <rect class="cls-4" x="116.71" y="94.56" width="3.06" height="2.94"/>
  <rect class="cls-4" x="122.35" y="94.56" width="3.06" height="2.94"/>
  <rect class="cls-4" x="105.44" y="99.97" width="3.06" height="2.94"/>
  <rect class="cls-4" x="111.07" y="99.97" width="3.06" height="2.94"/>
  <rect class="cls-4" x="116.71" y="99.97" width="3.06" height="2.94"/>
  <rect class="cls-4" x="122.35" y="99.97" width="3.06" height="2.94"/>
  <rect class="cls-4" x="105.44" y="105.39" width="3.06" height="2.94"/>
  <rect class="cls-4" x="111.07" y="105.39" width="3.06" height="2.94"/>
  <rect class="cls-4" x="116.71" y="105.39" width="3.06" height="2.94"/>
  <rect class="cls-4" x="122.35" y="105.39" width="3.06" height="2.94"/>
  <rect class="cls-4" x="105.44" y="110.8" width="3.06" height="2.94"/>
  <rect class="cls-4" x="111.07" y="110.8" width="3.06" height="2.94"/>
  <rect class="cls-4" x="116.71" y="110.8" width="3.06" height="2.94"/>
  <rect class="cls-4" x="122.35" y="110.8" width="3.06" height="2.94"/>
  <polygon class="cls-2" points="141.93 117.86 112.94 117.86 112.94 82.81 112.94 76.04 141.93 76.04 141.93 117.86"/>
  <rect class="cls-2" x="135.1" y="51.7" width="18.25" height="38"/>
  <rect class="cls-2" x="149.1" y="33.01" width="16.16" height="53.48"/>
  <rect class="cls-2" x="153.54" y="49.8" width="23.53" height="68.59"/>
  <rect class="cls-4" x="156.87" y="53.59" width="3.58" height="3.43"/>
  <rect class="cls-4" x="163.46" y="53.59" width="3.58" height="3.43"/>
  <rect class="cls-4" x="170.04" y="53.59" width="3.58" height="3.43"/>
  <rect class="cls-4" x="156.87" y="59.91" width="3.58" height="3.43"/>
  <rect class="cls-4" x="163.46" y="59.91" width="3.58" height="3.43"/>
  <rect class="cls-4" x="170.04" y="59.91" width="3.58" height="3.43"/>
  <rect class="cls-4" x="156.87" y="66.24" width="3.58" height="3.43"/>
  <rect class="cls-4" x="163.46" y="66.24" width="3.58" height="3.43"/>
  <rect class="cls-4" x="170.04" y="66.24" width="3.58" height="3.43"/>
  <rect class="cls-4" x="156.87" y="72.56" width="3.58" height="3.43"/>
  <rect class="cls-4" x="163.46" y="72.56" width="3.58" height="3.43"/>
  <rect class="cls-4" x="170.04" y="72.56" width="3.58" height="3.43"/>
  <rect class="cls-4" x="156.87" y="78.89" width="3.58" height="3.43"/>
  <rect class="cls-4" x="163.46" y="78.89" width="3.58" height="3.43"/>
  <rect class="cls-4" x="170.04" y="78.89" width="3.58" height="3.43"/>
  <rect class="cls-4" x="156.87" y="85.22" width="3.58" height="3.43"/>
  <rect class="cls-4" x="163.46" y="85.22" width="3.58" height="3.43"/>
  <rect class="cls-4" x="170.04" y="85.22" width="3.58" height="3.43"/>
  <rect class="cls-4" x="156.87" y="91.54" width="3.58" height="3.43"/>
  <rect class="cls-4" x="163.46" y="91.54" width="3.58" height="3.43"/>
  <rect class="cls-4" x="170.04" y="91.54" width="3.58" height="3.43"/>
  <rect class="cls-4" x="156.87" y="97.87" width="3.58" height="3.43"/>
  <rect class="cls-4" x="163.46" y="97.87" width="3.58" height="3.43"/>
  <rect class="cls-4" x="170.04" y="97.87" width="3.58" height="3.43"/>
  <rect class="cls-4" x="156.87" y="104.19" width="3.58" height="3.43"/>
  <rect class="cls-4" x="163.46" y="104.19" width="3.58" height="3.43"/>
  <rect class="cls-4" x="170.04" y="104.19" width="3.58" height="3.43"/>
  <rect class="cls-4" x="156.87" y="110.52" width="3.58" height="3.43"/>
  <rect class="cls-4" x="163.46" y="110.52" width="3.58" height="3.43"/>
  <rect class="cls-4" x="170.04" y="110.52" width="3.58" height="3.43"/>
  <rect class="cls-2" x="127.58" y="86.49" width="27.75" height="31.63"/>
  <rect class="cls-4" x="142.53" y="89.7" width="2.31" height="5.57"/>
  <rect class="cls-4" x="146.78" y="89.7" width="2.31" height="5.57"/>
  <rect class="cls-4" x="151.04" y="89.7" width="2.31" height="5.57"/>
  <rect class="cls-4" x="142.53" y="99.96" width="2.31" height="5.57"/>
  <rect class="cls-4" x="146.78" y="99.96" width="2.31" height="5.57"/>
  <rect class="cls-4" x="151.04" y="99.96" width="2.31" height="5.57"/>
  <rect class="cls-4" x="142.53" y="110.21" width="2.31" height="5.57"/>
  <rect class="cls-4" x="146.78" y="110.21" width="2.31" height="5.57"/>
  <rect class="cls-4" x="151.04" y="110.21" width="2.31" height="5.57"/>
  <rect class="cls-4" x="129.69" y="89.7" width="2.31" height="5.57"/>
  <rect class="cls-4" x="133.94" y="89.7" width="2.31" height="5.57"/>
  <rect class="cls-4" x="138.2" y="89.7" width="2.31" height="5.57"/>
  <rect class="cls-4" x="129.69" y="99.96" width="2.31" height="5.57"/>
  <rect class="cls-4" x="133.94" y="99.96" width="2.31" height="5.57"/>
  <rect class="cls-4" x="138.2" y="99.96" width="2.31" height="5.57"/>
  <rect class="cls-4" x="129.69" y="110.21" width="2.31" height="5.57"/>
  <rect class="cls-4" x="133.94" y="110.21" width="2.31" height="5.57"/>
  <rect class="cls-4" x="138.2" y="110.21" width="2.31" height="5.57"/>
  <polyline class="cls-5" points="122.35 75.84 122.35 78.31 121.29 83.73 116.71 86.67 122.35 90.61 118.24 98.95 122.35 108.33"/>
  <polyline class="cls-5" points="144.84 51.7 140.51 62.07 144.84 66.78 142.53 75.12"/>
  <g>
    <path class="cls-7" d="m71.2,115.94c0-3.9,3.16-7.07,7.07-7.07,2.55,0,4.78,1.35,6.03,3.37"/>
    <path class="cls-7" d="m79.33,109.01c-2.2-3.87-.86-8.79,3-11,2.52-1.44,5.5-1.37,7.87-.06"/>
    <path class="cls-7" d="m91.06,104.5c-2.2-3.87-.86-8.79,3-11,2.52-1.44,5.5-1.37,7.87-.06"/>
  </g>
  <path class="cls-6" d="m40.74,120.1H15.24s-6.78-3.72-6.78-3.72c-1.37-.75-2.21-2.18-2.21-3.74h0c0-1.03.48-2,1.31-2.62l.24-.18c.74-.56,1.65-.86,2.58-.86h30.36-.31s30.36,0,30.36,0c.93,0,1.84.3,2.58.86l.24.18c.82.62,1.31,1.59,1.31,2.62h0c0,1.56-.85,2.99-2.21,3.74l-6.78,3.72h-25.5"/>
  <path class="cls-6" d="m67.85,107.49H12.02s8.32-5.76,8.32-5.76c.49-.34,1.08-.53,1.68-.53l16.01-.11c.76,0,1.47.34,1.94.93l.62.79h17.78s9.48,4.68,9.48,4.68Z"/>
  <path class="cls-1" d="m88.09,85.79l-2.89.79-1.12-.85-20.65,5.52.12.55c.18.8-.28,1.6-1.05,1.86l-4.39,1.45-.57,1.05-16.5,4.73s-1.3-2.17-4.23-1.3l.6-4.23,3.62-.6.06-1.19,4.3-1.25,1.28.94,4.14-1.11-.64-2.16.14-.13c.38-.36.9-.52,1.42-.44l.67,2.3,3.45-1.17,1.76.53,26.14-6.46.5-1.27,2.98-.85s-1.48,1.92.86,3.29Z"/>
  <path class="cls-1" d="m88.09,85.79c-2.34-1.37-.86-3.29-.86-3.29,0,0,1.88.99.86,3.29Z"/>
  <path class="cls-5" d="m6.25,120.1h73.05"/>
  <path class="cls-1" d="m86.5,55.49l-21.58-16.15s3.28,6.27,2.68,9.55l12.71,13.92,6.2-7.32Z"/>
  <path class="cls-1" d="m89.77,65.58l-3.27-10.09s-5.39,2.72-6.2,7.32l9.47,2.77Z"/>
  <line class="cls-1" x1="66.37" y1="48.34" x2="49.43" y2="32.96"/>
  <line class="cls-6" x1="62.66" y1="36.9" x2="45.94" y2="23.33"/>
  <line class="cls-1" x1="48.9" y1="29.25" x2="63.77" y2="42.3"/>
  <line class="cls-5" x1="15.15" y1="72.56" x2="72.89" y2="72.56"/>
  <line class="cls-5" x1="75.8" y1="72.56" x2="80.83" y2="72.56"/>
  <line class="cls-5" x1="83.26" y1="72.56" x2="88.29" y2="72.56"/>
  <line class="cls-5" x1="10.9" y1="76.81" x2="68.64" y2="76.81"/>
  <line class="cls-5" x1="71.56" y1="76.81" x2="76.59" y2="76.81"/>
  <line class="cls-5" x1="79.01" y1="76.81" x2="84.05" y2="76.81"/>
  <rect class="cls-8" x="-5058.88" y="-4184.37" width="6467.34" height="6437.3"/>
</svg>