<?xml version="1.0" encoding="UTF-8"?>
<svg id="Calque_1" data-name="Calque 1" xmlns="http://www.w3.org/2000/svg" viewBox="0 0 128 128">
  <defs>
    <style>
      .cls-1 {
        fill: #87ccf3;
      }

      .cls-1, .cls-2, .cls-3, .cls-4, .cls-5, .cls-6, .cls-7, .cls-8, .cls-9, .cls-10, .cls-11 {
        stroke-linecap: round;
        stroke-linejoin: round;
      }

      .cls-1, .cls-2, .cls-3, .cls-4, .cls-5, .cls-6, .cls-7, .cls-8, .cls-9, .cls-11 {
        stroke: #000;
      }

      .cls-2 {
        fill: #b2f0e9;
      }

      .cls-3 {
        fill: #fff;
      }

      .cls-4, .cls-5, .cls-10 {
        fill: none;
      }

      .cls-5 {
        stroke-width: 1.06px;
      }

      .cls-6 {
        fill: #ff6d75;
      }

      .cls-6, .cls-7, .cls-8, .cls-9, .cls-11 {
        stroke-width: .5px;
      }

      .cls-7 {
        fill: #ff9fa4;
      }

      .cls-8 {
        fill: #fffefb;
      }

      .cls-9 {
        fill: #e5e2da;
      }

      .cls-10 {
        stroke: #fff;
        stroke-width: 8px;
      }

      .cls-11 {
        fill: #fab0b4;
      }
    </style>
  </defs>
  <circle class="cls-3" cx="100.01" cy="27.73" r="22.61"/>
  <g>
    <path class="cls-8" d="m109.79,24.31s-3.18.39-4.48-1.39c.06.66.27,2.13.27,2.13,0,0-.3-.58.63-.48.93.1,2.77.37,4.09,1.38.1-.48-.15-1.21-.52-1.64Z"/>
    <path class="cls-9" d="m110.28,25.98c-.95-.72-2.29-1.17-4.07-1.37-.36-.04-.57.02-.62.17l.07.52-.12-.24s-.07-.15-.04-.28c-.07-.49-.19-1.38-.23-1.86l-.02-.16.1.13c.9,1.23,2.71,1.41,3.71,1.41.44,0,.73-.03.73-.03h.02s.02.02.02.02c.39.46.63,1.21.52,1.67v.07s-.07-.04-.07-.04Zm-1.22-1.59c-.98,0-2.74-.17-3.69-1.32.05.45.14,1.12.2,1.57.07-.07.2-.13.44-.13.06,0,.13,0,.21.01,1.77.2,3.1.64,4.06,1.34.06-.44-.16-1.09-.5-1.51-.08,0-.35.03-.72.03Z"/>
  </g>
  <path class="cls-7" d="m111.49,21.62c-.02.06.03.12.08.17.08.08.2.13.44.24.26.11.65.29,1.29.62,1.15.64,1.18,1.58,1.19,2.09,0,.22,0,.35.1.38.09.03.17.05.25.05.24,0,.39-.16.49-.33-.03.16-.07.33-.11.42-.09.19-.11.31-.07.38.04.06.12.05.25-.04.19-.15.33-.44.42-.68-.02.14-.05.28-.11.39-.03.05-.15.31-.1.4.01.02.04.03.06.03.04,0,.11-.03.3-.26.33-.42.35-.97.35-1.13,0,0,0,0,0,0-.15-.66-.18-1.64.52-2.57,1.17-1.55,1.46-2.68,1.09-4.16-.28-.94-.74-1.21-1.45-1.61l-.15-.08c-.21-.12-.34-.24-.47-.25-1.6-.18-3.07.33-3.92.92s-1.76,1.51-2.55,1.99-3.02,1.14-3.02,1.14l-.02,1.13s3.34-1.06,4.26-1.8,1.99-2.18,3.58-2.44,2,1.16,2,1.16c.31.88.25,1.79-.15,2.49-.38.66-1.03,1.1-1.9,1.26-.74.1-1.4.11-1.95.03l-.7.04Z"/>
  <g>
    <path class="cls-8" d="m114.13,22.43s-.34-.6-1.38-.42c-.34-.34-1.54-.39-1.89.46-.69.21-.67,1.06-.67,1.06-.52.22-.42.9-.27,1.18-.2.36.15.79.33.91,0,0,.01.88,1.08.79.45.37,1.17.19,1.45-.2.34.3,1.18.14,1.45-.28.48.09,1.44-.88.66-1.99.22-.54-.09-1.38-.76-1.52Z"/>
    <path class="cls-9" d="m111.32,26.47s-.09,0-.13,0c-.86,0-.96-.68-.97-.82-.19-.14-.52-.57-.34-.94-.1-.21-.17-.55-.07-.83.06-.17.18-.3.34-.38,0-.16.07-.87.68-1.07.19-.44.63-.7,1.19-.7.31,0,.59.09.75.23.12-.02.24-.03.35-.03.69,0,.98.37,1.04.46.29.07.54.27.7.56.17.32.2.7.09.99.44.65.28,1.18.14,1.45-.19.37-.55.63-.83.6-.18.26-.58.43-.98.43-.2,0-.37-.05-.49-.13-.19.23-.52.38-.86.38-.23,0-.44-.07-.61-.2Zm1.5-.27c.1.09.27.14.47.14.38,0,.76-.17.92-.42l.02-.03h.03s.04.01.06.01c.2,0,.52-.19.71-.55.13-.25.28-.76-.15-1.37v-.02s0-.02,0-.02c.11-.27.09-.64-.08-.94-.15-.28-.38-.46-.65-.52h-.02s0-.02,0-.02c0,0-.25-.43-.97-.43-.11,0-.23.01-.36.03h-.02s-.02-.01-.02-.01c-.13-.13-.41-.22-.7-.22-.2,0-.86.05-1.11.67v.02s-.03,0-.03,0c-.65.2-.64,1.01-.64,1.02v.03s-.03.01-.03.01c-.16.07-.26.18-.32.34-.1.28-.01.62.07.78v.02s0,.02,0,.02c-.18.33.15.75.31.85h.02v.04s.03.76.89.76c.05,0,.09,0,.14,0h.02s.01.01.01.01c.15.13.35.19.57.2.32,0,.65-.15.82-.38l.03-.04.04.03Z"/>
  </g>
  <path class="cls-11" d="m93.66,20.13v-.38s.61.26,1.72.07,2.4-2.01,4.94-2.01,3.37,1.51,4.95,1.7c.78.09,1.19.16,1.19.16l-.04.46-5.99,4.07-6.78-4.08Z"/>
  <g>
    <path class="cls-3" d="m36.46,74.64l-.81,4.84c-.04.27-.29.46-.56.43h0c-.27-.03-.48-.27-.46-.55l.15-2.35,1.68-2.37Z"/>
    <path class="cls-3" d="m38.83,73.47c-.4,1.49-.41,2.51-.38,3.05.03.29-.16.55-.43.61-.04.01-.1.02-.14.02-.24,0-.47-.16-.54-.41-.17-.56-.39-1.53-.34-2.62l-.69,1.4-1.65,3.37-.31.63c-.12.24-.41.34-.64.2-.14-.08-.22-.23-.22-.39,0-.02.01-.05.01-.07l1.1-6.9s.4-2.48.52-4.22c0-.03.01-.07.01-.11,0-.01,0-.02.01-.04.07-.5.37-.94.86-1.11.72-.26,1.5.12,1.74.84l.04.12.07.23.28.82s1.35,2.19.7,4.59Z"/>
  </g>
  <path class="cls-2" d="m46.51,125.95l-9.36.12c-.69,0-1.26-.54-1.28-1.23h0c-.01-.48.25-.92.67-1.15l7.96-4.26c.18-.1.39-.15.6-.15h4.06c.59,0,1.1.41,1.23.99l.78,3.49c.02.08.03.16.03.24l.02.61c.02.7-.54,1.29-1.25,1.29l-1.61.02-1.85.02Z"/>
  <rect class="cls-3" x="44.68" y="111.67" width="5.5" height="7.62"/>
  <polygon class="cls-3" points="62.69 111.67 57.19 111.67 57.56 119.28 63.07 119.28 62.69 111.67"/>
  <path class="cls-1" d="m60.87,56.93c.36,3.82,2.9,59.43,2.9,59.43h-7.43l-3.26-49.96-1.34.03-.87,49.93h-7.42s-.41-51.96.03-59.31l17.39-.12Z"/>
  <path class="cls-2" d="m61.23,125.96l9.36.12c.69,0,1.26-.54,1.28-1.23h0c.01-.48-.25-.92-.67-1.15l-7.96-4.26c-.18-.1-.39-.15-.6-.15h-4.06c-.59,0-1.1.41-1.23.99l-.78,3.49c-.02.08-.03.16-.03.24l-.02.61c-.02.7.54,1.29,1.25,1.29l1.61.02,1.85.02Z"/>
  <g>
    <polygon class="cls-2" points="58.77 28.41 58.77 57.23 45.42 57.23 45.42 29.65 47.61 25.54 49.97 29.65 52.35 27.24 54.72 29.65 56.62 25.54 58.77 28.41"/>
    <g>
      <polygon class="cls-2" points="52.35 27.24 49.97 29.65 47.61 25.54 49.21 24.58 50.33 25.54 52.35 27.24"/>
      <polygon class="cls-2" points="56.62 25.54 54.72 29.65 52.35 27.24 54.03 25.54 55.02 24.54 56.62 25.54"/>
    </g>
  </g>
  <path class="cls-3" d="m64.69,48.62c.56.76.74,1.69.78,2.31l-.78-2.31Z"/>
  <path class="cls-3" d="m69.25,39.26l-4.8,7.69-.11.1-.16.15-.05-.15-1.74-5.06.15,5.06v.43s-.57-.05-.57-.05l-.32,1.5-.54,2.54-.49,2.32,2.12.15.79,27.27h-7.96l.58-31.2.03-1.92-.29,1.22.11-2.83v-.25s.14-3.46.14-3.46l.26-7.15.19-10.07,4.82,2.03c.95.22,4.31,1.46,6.66,7.92.17.48.34.97.5,1.51.23.77.44,1.51.66,2.25Z"/>
  <path class="cls-3" d="m41.44,81.2l.41-27.12-2.13,14.04-1.86-.05h-.13l-2.58-.07h-.01l-2.02-.05s2.45-19.73,3.54-29.47c1.05-9.4,5.59-10.67,5.59-10.67l5.37-2.27.76,23.76h0s1.02,31.91,1.02,31.91h-7.96Z"/>
  <polyline class="cls-5" points="47.48 25.68 43.84 29.65 46.37 31.34 44.68 33.32 48.37 49.3"/>
  <polygon class="cls-1" points="72.05 34.76 69.25 39.26 64.45 46.95 64.35 47.04 64.19 47.19 64.14 47.04 62.55 47.04 62.56 47.48 61.98 47.42 61.66 48.93 59.53 49.31 56.02 46.48 55.98 46.45 56.03 46.23 56.64 43.57 59.69 37.05 68.1 35.5 72.05 34.76"/>
  <path class="cls-3" d="m64.14,47.04h-1.59l-.57.38-.32,1.5-.54,2.54-.49,2.32,2.12.15,6.27.46c.26.04.51.04.75-.01,1.68-.37,2.29-2.99,1.97-4.67-.44-2.37-1.23-6-2.49-10.46l-4.8,7.69-.11.1h-.21Z"/>
  <path class="cls-3" d="m59.38,47.15l2.6.28-.32,1.5-.54,2.54c-2.18-.3-3.5-.83-3.5-.83l-1.45-.64-1.66-.72c-.76-.4-1.24-1.19-1.24-2.04v-.61c0-.48.15-.95.43-1.35l.63-1.37c.44-.6,1.09-1.03,1.83-1.15.02,0,.04-.01.06-.01l.82-.08-.4.9c4.03.42,2.74,3.58,2.74,3.58Z"/>
  <path class="cls-4" d="m51.54,3.62s0,1.14-.41,1.9h-.01"/>
  <path class="cls-4" d="m49.34,6c-.9-.52-1.51-1.84-1.51-1.84"/>
  <path class="cls-4" d="m46.5,16.44h-.01c-.11-.02-.84-.21-1.27-1.38-.47-1.26-1.01-1.11-1.05-2.41-.03-1.23,1.24-.7,1.38-.62"/>
  <path class="cls-4" d="m56.9,5.23s-.88.52-1.86.7"/>
  <path class="cls-3" d="m47.48,6.56c.56.03,1.21-.1,1.86-.56.27.17.56.25.86.21.43-.04.72-.33.92-.69.01,0,.02.02.03.02.12.11.9.8,1.86-.13.5.6,1.29.66,2.03.53.44.34,1.04.3,1.04.3.03.05.08.11.11.16,1.8,2.54,1.97,4.26,1.99,4.45.11-.45.19-.88.25-1.29-.1.76-.24,1.31-.27,1.43h0s0,.03,0,.03h.01c.03.72.03,2.58-.26,4.51-.25,1.6-.73,3.25-1.61,4.31-2.03,2.47-3.35,2.52-3.55,2.51-.2.05-1.59.26-3.99-1.88-1.03-.91-1.76-2.47-2.25-4.01-.59-1.86-.86-3.7-.95-4.41h.01c-.02-.08-.02-.16-.02-.26.03.07.05.11.05.11-.02-.3-.03-.6-.02-.89.19-1.49,1.56-3.96,1.72-4.39l.2-.04Z"/>
  <path class="cls-4" d="m45.56,10.99c-.04.28-.05.54-.03.78"/>
  <path class="cls-4" d="m45.55,12.02s0-.01-.01-.02h0c-.06-.15-.39-.88-.61-1.88v-.03c-.45-1.99-.46-5,2.85-6.34,0,0,.2-1.09,1.6-.92,0,0,1.62-1.77,3.57-.32,1.36-.38,1.73.66,1.73.66,3.74.88,3.98,4.25,3.76,6.26,0,.04-.01.07-.01.1"/>
  <path class="cls-4" d="m56.22,6.6s1.92,2.8,1.92,4.41"/>
  <path class="cls-4" d="m45.5,11.72h0s0,.13.03.28h0s0,.03,0,.03"/>
  <path class="cls-4" d="m58.15,11.01v-.02"/>
  <path class="cls-4" d="m58.14,10.7s0,.1.01.28"/>
  <path class="cls-4" d="m57.88,15.51h.01c.1-.04.8-.34,1.05-1.56.27-1.31.82-1.25.67-2.54-.16-1.22-1.33-.5-1.46-.4"/>
  <path class="cls-4" d="m53.81,4.3c-.24.45-.49.79-.72,1.03-.03.03-.05.07-.08.08"/>
  <path class="cls-4" d="m51.15,5.54l-.02-.02"/>
  <path class="cls-3" d="m52.45,10.85s.43,3.87,1.27,5.81c0,0-.16.4-1.42.15"/>
  <ellipse class="cls-3" cx="49.86" cy="12.7" rx=".13" ry=".39" transform="translate(-.83 3.88) rotate(-4.42)"/>
  <ellipse class="cls-3" cx="55.18" cy="12.19" rx=".13" ry=".39" transform="translate(-.78 4.29) rotate(-4.42)"/>
  <line class="cls-3" x1="49.21" y1="24.58" x2="50.07" y2="21.48"/>
  <line class="cls-3" x1="55.02" y1="24.54" x2="54.63" y2="21.48"/>
  <rect class="cls-3" x="58.06" y="32.16" width="5.14" height="1.53"/>
  <g>
    <path class="cls-8" d="m90.22,24.32s3.18.39,4.48-1.39c-.06.66-.27,2.13-.27,2.13,0,0,.3-.58-.63-.48-.93.1-2.77.37-4.09,1.38-.1-.48.15-1.21.52-1.64Z"/>
    <path class="cls-9" d="m89.68,26.03v-.07c-.12-.46.12-1.21.51-1.67l.02-.02h.02s.29.04.73.04c1,0,2.81-.18,3.71-1.41l.1-.13-.02.16c-.05.47-.17,1.36-.23,1.86.03.14-.04.28-.04.28l-.12.24.07-.52c-.05-.15-.26-.21-.62-.17-1.79.2-3.12.65-4.07,1.37l-.06.04Zm.56-1.67c-.35.42-.56,1.07-.5,1.51.96-.71,2.29-1.15,4.06-1.34.08,0,.15-.01.21-.01.24,0,.37.06.44.13.06-.45.15-1.12.2-1.57-.95,1.15-2.7,1.32-3.69,1.32-.37,0-.64-.03-.72-.03Z"/>
  </g>
  <path class="cls-7" d="m88.53,21.63c.02.06-.03.12-.08.17-.08.08-.2.13-.44.24-.26.11-.65.29-1.29.62-1.15.64-1.18,1.58-1.19,2.09,0,.22,0,.35-.1.38-.09.03-.17.05-.25.05-.24,0-.39-.16-.49-.33.03.16.07.33.11.42.09.19.11.31.07.38-.04.06-.12.05-.25-.04-.19-.15-.33-.44-.42-.68.02.14.05.28.11.39.03.05.15.31.1.4-.01.02-.04.03-.06.03-.04,0-.11-.03-.3-.26-.33-.42-.35-.97-.35-1.13,0,0,0,0,0,0,.15-.66.18-1.64-.52-2.57-1.17-1.55-1.46-2.68-1.09-4.16.28-.94.74-1.21,1.45-1.61l.15-.08c.21-.12.34-.24.47-.25,1.6-.18,3.07.33,3.92.92s1.76,1.51,2.55,1.99,3.02,1.14,3.02,1.14l.02,1.13s-3.34-1.06-4.26-1.8-1.99-2.18-3.58-2.44-2,1.16-2,1.16c-.31.88-.25,1.79.15,2.49.38.66,1.03,1.1,1.9,1.26.74.1,1.4.11,1.95.03l.7.04Z"/>
  <path class="cls-6" d="m106.39,20.41c-1.04.94-1.14.7-2.7,2.09,0,0,0,.01,0,.01-.86.8-.96,1.61-1.13,2.95-.18,1.49-.77,2.08-1.28,2.59-.16.17-.32.33-.46.5-.57.77-.69,1.25-.39,1.61.3.36.27.42.2.6-.02.06-.07.12-.13.19-.12.15-.27.35-.2.59.03.1.07.18.1.26.09.2.18.38.05.71-.18.4-.09.67-.04.87.03.1.06.19.04.26-.03.08-.07.14-.1.19-.05.07-.1.15-.06.27.02.05.05.09.06.12.04.05.07.08-.03.32-.08.2-.04.31,0,.41.03.09.06.18.02.34-.09.33-.12.8.09,1.1.12.17.31.27.57.28,1.07-.05,1.25-.9,1.37-1.46.02-.09.04-.19.06-.26.08-.28.17-.41.22-.41.02,0,.12.02.18.53.1.78-.03,1.42-.36,1.7-.33.28-.44.38-.23.77v.03c.2.34.23.4-.08.67-.3.26-.36.35-.28.69.07.29.01.36-.27.66-.28.29-.37.4-.28.69.07.23.12.51-.04.72-.02.03-.04.05-.05.07-.14.19-.29.39-.06.59.12.1.19.18.19.25,0,.05-.05.1-.14.17-.16.12-.26.25-.27.38,0,.09.03.18.1.25.04.04.08.07.13.1.05.04.09.07.1.1.01.05-.02.12-.08.21-.15.2-.04.3.05.37.07.06.12.1.09.2-.02.08-.02.16,0,.25h0c-.33-.15-.72-.24-1.16-.24-.59,0-1.16.16-1.41.31h.01c.05-.06.08-.12.1-.17h0s0-.06,0-.08c0-.05-.02-.1-.05-.15-.02-.02-.05-.06-.05-.08,0-.01.04-.04.1-.08.08-.05.13-.1.14-.16,0-.07-.03-.14-.11-.22-.05-.04-.06-.07-.06-.09,0-.05.09-.13.21-.21.09-.07.13-.16.14-.26,0-.17-.13-.34-.24-.44l-.03-.03c-.07-.06-.13-.1-.13-.14,0-.04.05-.1.16-.19.28-.24.19-.37.02-.6l-.03-.04c-.19-.26-.2-.32-.11-.63.1-.36.03-.58-.26-.84-.04-.04-.08-.07-.12-.1-.2-.17-.24-.21-.19-.34l.02-.04c.06-.19.14-.45-.1-.73-.06-.07-.12-.13-.17-.18-.15-.14-.2-.2-.14-.39.02-.06.05-.11.09-.17.13-.21.27-.45-.19-.86-.53-.5-.49-1.02-.44-1.75.03-.35.12-.51.18-.51.05,0,.17.12.29.56.16.62.47,1.45,1.24,1.56.05.01.1.02.15.02.2,0,.36-.06.48-.19.2-.21.24-.55.23-.8-.01-.25-.04-.37-.06-.46-.02-.08-.03-.12,0-.18.08-.15.1-.27,0-.47-.09-.18-.09-.24-.02-.35v-.02c.1-.14.1-.17-.03-.39l-.02-.03c-.12-.2-.13-.21-.04-.42l.02-.05c.1-.21.17-.38,0-.74-.17-.35-.16-.44-.02-.68.02-.03.04-.06.05-.09.14-.21.21-.36-.07-.81-.29-.46-.27-.48,0-.81l.03-.04c.24-.36.14-1.09-.86-2.07-1.05-1.12-1.1-1.49-1.25-2.58-.04-.27-.08-.59-.15-.96-.31-1.78-1.86-3.09-3.6-4.01,0,0-.1-.07-.22-.12v-.28s2.2,1.21,3.05,1.55c1.16.47,2.36.6,3.49.6,1.73,0,4.73-1.22,6.2-2.13v.27Z"/>
  <path class="cls-11" d="m99.65,31.86c-.16.27-.17.39.02.77.16.31.09.46,0,.67l-.02.04c-.1.24-.08.29.04.51l.02.03q.11.19.04.29v.02c-.12.16-.09.25,0,.43.08.17.07.26,0,.4-.05.09-.04.15-.02.24.02.08.05.21.06.44,0,.23-.03.55-.21.73-.13.13-.31.18-.55.15-.56-.08-.91-.54-1.16-1.49-.07-.29-.2-.63-.38-.63-.14,0-.24.21-.27.59-.06.72-.1,1.29.47,1.81.4.37.3.55.17.75-.04.06-.07.12-.09.18-.09.24,0,.34.16.48.05.05.1.1.16.18.21.25.14.46.08.65v.04c-.07.19.02.27.21.44.04.03.08.07.12.1.26.23.31.42.23.75-.09.34-.08.42.13.71l.03.04c.17.24.21.29,0,.48-.14.11-.19.18-.19.26,0,.08.06.13.16.2l.03.03c.09.08.21.23.2.37,0,.07-.03.14-.1.19-.16.13-.24.19-.24.28,0,.06.04.12.08.16.06.06.09.11.09.15,0,.03-.04.06-.09.1-.08.05-.13.09-.14.14,0,.05.03.1.07.15.04.05.07.13-.05.27-.01.02-.01.04,0,.06.01.01.02.02.04.02,0,0,.02,0,.02,0-.02.01-.03.02-.04.03-.04.03-.07.05-.1.07h0s-.02.02-.02.02l-.07.05h0c-.06.03-.11.05-.15.05-.04,0-.07-.02-.1-.04-.06-.07-.07-.24-.03-.57.1-.79.04-1.89-.16-2.95-.12-.63-.39-1.28-.67-1.98-.26-.62-.52-1.26-.72-1.97-.21-.77-.09-1.76.03-2.71.09-.71.17-1.38.1-1.9-.18-.89-.73-1.59-1.26-2.26-.41-.51-.8-1-1.03-1.57-.5-1.23-.1-3.83.07-4.94.02-.1.03-.19.04-.26.13-.91.15-1.58-.98-2.21v-.38c.1.06.2.12.2.12,1.72.92,3.21,2.2,3.52,3.94.06.38.1.69.15.96.15,1.08.2,1.48,1.28,2.63.96.94,1.06,1.64.85,1.94l-.03.04c-.29.35-.32.41,0,.91.26.42.19.53.07.72-.02.03-.04.06-.06.09Z"/>
  <path class="cls-6" d="m102.92,35.06c.1.82-.04,1.47-.39,1.78-.33.28-.39.34-.21.66v.02c.2.35.27.47-.1.79-.28.25-.32.3-.26.6.08.33,0,.44-.29.74-.28.3-.33.37-.26.6.07.25.13.56-.05.8-.02.03-.04.05-.05.07-.16.21-.24.33-.07.47.14.12.23.22.22.33,0,.08-.06.16-.18.24-.14.1-.22.21-.23.31,0,.07.02.13.07.18.04.04.08.07.12.09.06.04.13.09.14.16.02.07-.01.16-.1.29-.1.14-.05.17.03.24.07.06.16.14.12.29-.01.06-.01.13,0,.19,0,.01,0,.02,0,.03,0,.02-.02.04-.04.04-.01,0-.02,0-.03,0h0s-.01-.01-.01-.01h0v-.02c-.02-.08-.02-.17,0-.25.03-.09-.02-.14-.09-.2-.08-.07-.19-.16-.05-.37.07-.1.09-.17.08-.21-.01-.04-.05-.07-.1-.1-.04-.03-.08-.06-.13-.1-.07-.07-.1-.16-.1-.25.01-.13.11-.27.27-.38.09-.07.14-.12.14-.17,0-.07-.07-.15-.19-.25-.23-.2-.08-.4.06-.59.02-.02.03-.04.05-.07.16-.21.1-.5.04-.72-.08-.28,0-.39.28-.69.28-.3.34-.37.27-.66-.08-.34-.02-.43.28-.69.31-.27.28-.34.09-.67v-.03c-.22-.39-.11-.48.22-.77.33-.29.46-.92.36-1.7-.06-.52-.17-.53-.18-.53-.05,0-.14.13-.22.41-.02.07-.04.17-.06.26-.12.56-.3,1.4-1.37,1.46-.25-.01-.45-.1-.57-.28-.21-.29-.18-.77-.09-1.1.04-.16.01-.25-.02-.34-.04-.1-.08-.21,0-.41.1-.24.07-.27.03-.32-.02-.03-.04-.06-.06-.12-.04-.12.01-.19.06-.27.04-.05.07-.11.1-.19.02-.07,0-.15-.04-.26-.06-.2-.14-.47.04-.87.13-.34.05-.51-.05-.71-.04-.08-.08-.16-.1-.26-.07-.24.08-.44.2-.59.05-.07.1-.13.13-.19.07-.17.09-.24-.2-.6-.3-.36-.18-.84.39-1.61.14-.17.29-.33.46-.5.51-.51,1.1-1.1,1.28-2.59.17-1.34.27-2.15,1.13-2.95-.73.84-.89,1.75-1.04,2.96-.19,1.53-.78,2.12-1.31,2.64-.16.17-.31.32-.45.49-.55.72-.66,1.17-.39,1.5.3.36.3.47.22.69-.03.07-.08.14-.14.21-.11.14-.24.31-.18.51.02.09.06.17.09.25.1.2.2.41.05.79-.17.37-.09.61-.03.81.03.12.06.21.03.31-.03.1-.08.16-.12.21-.05.07-.08.12-.05.19.02.04.04.07.05.09.06.08.09.14-.02.41-.07.17-.04.25,0,.35.04.09.08.2.02.4-.08.3-.12.75.08,1.02.1.15.27.23.5.24.99-.05,1.16-.82,1.28-1.39.02-.09.04-.19.06-.27.06-.21.17-.47.31-.47.13,0,.22.2.27.61Z"/>
  <path class="cls-11" d="m106.38,20.49l-.03.38c-1.2.67-.94,2.28-.68,4.23.03.2.06.41.08.63.24,2.24-.25,3.01-1.06,4.1-.06.09-.13.18-.2.26-.72.95-1.4,1.86-1.11,3.86.39,2.21.07,3-.7,4.92-1.04,2.2-.78,4.6-.74,4.87.02.19.04.35-.03.42-.03.03-.06.05-.11.05-.04,0-.09-.02-.16-.05h0s-.07-.04-.07-.04h-.02v-.02s-.08-.05-.12-.08l-.08-.06h0s-.01-.01-.01-.01h0v-.02c-.02-.08-.02-.17,0-.25.03-.09-.02-.14-.09-.2-.08-.07-.19-.16-.05-.37.07-.1.09-.17.08-.21-.01-.04-.05-.07-.1-.1-.04-.03-.08-.06-.13-.1-.07-.07-.1-.16-.1-.25.01-.13.11-.27.27-.38.09-.07.14-.12.14-.17,0-.07-.07-.15-.19-.25-.23-.2-.08-.4.06-.59.02-.02.03-.04.05-.07.16-.21.1-.5.04-.72-.08-.28,0-.39.28-.69.28-.3.34-.37.27-.66-.08-.34-.02-.43.28-.69.31-.27.28-.34.09-.67v-.03c-.22-.39-.11-.48.22-.77.33-.29.46-.92.36-1.7-.06-.52-.17-.53-.18-.53-.05,0-.14.13-.22.41-.02.07-.04.17-.06.26-.12.56-.3,1.4-1.37,1.46-.25-.01-.45-.1-.57-.28-.21-.29-.18-.77-.09-1.1.04-.16.01-.25-.02-.34-.04-.1-.08-.21,0-.41.1-.24.07-.27.03-.32-.02-.03-.04-.06-.06-.12-.04-.12.01-.19.06-.27.04-.05.07-.11.1-.19.02-.07,0-.15-.04-.26-.06-.2-.14-.47.04-.87.13-.34.05-.51-.05-.71-.04-.08-.08-.16-.1-.26-.07-.24.08-.44.2-.59.05-.07.1-.13.13-.19.07-.17.09-.24-.2-.6-.3-.36-.18-.84.39-1.61.14-.17.29-.33.46-.5.51-.51,1.1-1.1,1.28-2.59.17-1.34.27-2.15,1.13-2.95,0,0,0,0,0-.01.76-.95,2.68-2.02,2.68-2.02Z"/>
  <g>
    <path class="cls-8" d="m85.88,22.44s.34-.6,1.38-.42c.34-.34,1.54-.39,1.89.46.69.21.67,1.06.67,1.06.52.22.42.9.27,1.18.2.36-.15.79-.33.91,0,0-.01.88-1.08.79-.45.37-1.17.19-1.45-.2-.34.3-1.18.14-1.45-.28-.48.09-1.44-.88-.66-1.99-.22-.54.09-1.38.76-1.52Z"/>
    <path class="cls-9" d="m88.08,26.68c-.34,0-.67-.15-.86-.38-.12.09-.29.13-.49.13-.4,0-.79-.18-.98-.43-.28.03-.64-.23-.83-.6-.14-.26-.3-.8.14-1.45-.11-.3-.08-.67.09-.99.16-.3.4-.5.7-.56.06-.09.34-.46,1.04-.46.11,0,.23,0,.35.03.16-.14.44-.23.75-.23.56,0,1,.26,1.19.7.62.2.68.91.68,1.07.17.08.28.21.34.38.1.28.04.62-.07.83.18.37-.15.8-.34.94-.01.14-.11.82-.97.82-.04,0-.09,0-.13,0-.17.13-.38.2-.61.2Zm-.85-.51l.03.04c.17.23.5.38.82.38.22,0,.41-.07.57-.2h.01s.02-.01.02-.01c.05,0,.1,0,.14,0,.86,0,.88-.72.89-.76v-.02h.02c.16-.12.49-.53.31-.87v-.02s0-.02,0-.02c.08-.16.17-.5.07-.78-.06-.16-.16-.27-.32-.34h-.03s0-.04,0-.04c0,0,0-.82-.64-1.02h-.02s0-.03,0-.03c-.25-.62-.91-.67-1.11-.67-.3,0-.57.09-.7.22l-.02.02h-.02c-.13-.02-.25-.04-.36-.04-.72,0-.97.43-.97.43v.02s-.03,0-.03,0c-.27.06-.51.24-.65.52-.16.31-.19.67-.08.94v.02s0,.02,0,.02c-.43.62-.28,1.13-.15,1.37.19.36.5.55.71.55.02,0,.04,0,.06,0h.03s.02.02.02.02c.16.24.54.42.92.42.2,0,.36-.05.47-.14l.04-.03Z"/>
  </g>
  <rect class="cls-10" x="-1392.02" y="-308.58" width="2179.47" height="547.09"/>
</svg>