<?xml version="1.0" encoding="UTF-8"?>
<svg id="Calque_1" data-name="Calque 1" xmlns="http://www.w3.org/2000/svg" viewBox="0 0 128 128">
  <defs>
    <style>
      .cls-1 {
        fill: #87ccf3;
      }

      .cls-1, .cls-2, .cls-3, .cls-4, .cls-5, .cls-6, .cls-7, .cls-8 {
        stroke: #000;
      }

      .cls-1, .cls-2, .cls-3, .cls-4, .cls-5, .cls-9, .cls-8 {
        stroke-linecap: round;
        stroke-linejoin: round;
      }

      .cls-2 {
        fill: #baa584;
      }

      .cls-3, .cls-6, .cls-8 {
        fill: #fff;
      }

      .cls-4, .cls-9, .cls-7 {
        fill: none;
      }

      .cls-5 {
        fill: #fab0b4;
      }

      .cls-10 {
        fill: #ff6d75;
      }

      .cls-6, .cls-7 {
        stroke-miterlimit: 10;
      }

      .cls-9 {
        stroke: #fff;
        stroke-width: 8px;
      }

      .cls-8 {
        stroke-width: .75px;
      }
    </style>
  </defs>
  <line class="cls-4" x1="8.6" y1="105.46" x2="120.24" y2="105.46"/>
  <path class="cls-3" d="m49.88,112.22l.85-.63.63-5.48s4.85.77,4.85.84-.49,5.13-.49,5.13l.35,1.41-3.58.28-2.04-.49-.57-1.06Z"/>
  <polygon class="cls-3" points="74.42 113.59 74.64 108.27 69.07 108.21 70.1 113.35 71.92 115.07 74.42 113.59"/>
  <path class="cls-2" d="m68.07,117.1c.14-.45,1.64-3.09,2-3.76.73.31,1.44.49,2.24.49.73,0,1.54-.07,2.12-.51.37.52.82,1.24,1.17,1.82.31.53.75,1.08.97,1.66.22.59.12,1.28-.35,1.67-1.57,1.3-5.97,1.62-7.86.18-.57-.43-.38-1.25-.28-1.55Z"/>
  <path class="cls-2" d="m43.93,117.04c.9.16,1.87.09,2.78.09,2.61,0,5.22-.13,7.83-.25.42-.02.84-.04,1.22-.21.3-.13.56-.36.73-.63.11-.17.19-.36.21-.56,0-.07,0-.14,0-.21-.02-.28-.12-.55-.22-.81-.19-.48-.27-.83-.46-1.31-2.07,0-4.13-.39-6.13-.93-.2.1-.4.2-.6.3l-3.46,1.74c-.47.24-.94.47-1.41.71-.11.06-.22.11-.34.17-.33.17-.8.27-1.04.57-.05.07-.1.15-.13.24-.2.69.45.98,1.02,1.08Z"/>
  <path class="cls-1" d="m50.38,108.98s1.76.72,3.87,1.02c2.09.29,2.25.04,2.25.04l3.82-25.24s1.07-2.77,2.51-6.52c.11-.29.23-.59.34-.9.5-1.28,1.02-2.64,1.55-4.03-.05,4.09-.1,8.14-.15,12.05l4.3,25.84c1.67.6,1.79.57,3.59.57,1.66,0,1.65-.04,3.16-.63-.68-8.99-1.88-25.55-1.88-25.55,0,0,3.77-17.47,2.86-26.54-.44-4.37-2.39-7.94-3.73-10.33-.85.71-2.25,1.29-3.3,1.54-1.74.43-2.44.5-4.19.43-.28-.03-.56-.05-.81-.07-2.53-.28-4.14-.57-4.14-.57,0,0-3.51,7.78-4.92,12.44-1.41,4.64-3.66,22.7-3.66,22.7l-1.48,23.75Z"/>
  <path class="cls-3" d="m61.79,26.41c.25.11.51.19.76.26,2.16.51,4.61-.4,5.45-.75l-.26-3.66-.03-.41-5.67-1.09-.15,1.18-.48,3.99c.03.07.05.16.07.22.02.05.03.09.05.13,0,.02,0,.04.02.06h0l.22.1Z"/>
  <g>
    <path class="cls-8" d="m47.48,62.85c-.02.18-.02.36-.01.54,0,.48.03.96.04,1.44,0,.21,0,.42-.06.62s-.18.39-.37.48-.44.06-.57-.1c-.11-.14-.11-.34-.11-.52,0-.24.02-.48.02-.72.01-.32.02-.65.05-.97.05-.65.18-1.33.59-1.85.13-.16.75-.58.75-.11,0,.18-.15.39-.2.56-.07.21-.11.42-.13.64Z"/>
    <path class="cls-8" d="m47.1,63.16c-.02.18-.02.36-.01.54,0,.48.03.96.04,1.44,0,.21,0,.42-.06.62s-.18.39-.37.48-.44.06-.57-.1c-.11-.14-.11-.34-.11-.52,0-.24.02-.48.02-.72.01-.32.02-.65.05-.97.05-.65.18-1.33.59-1.85.13-.16.75-.58.75-.11,0,.18-.15.39-.2.56-.07.21-.11.42-.13.64Z"/>
    <path class="cls-8" d="m51.79,56.56c-.05-.27-.89-.48-1.26-1.02-1.18.69-3.16,4.45-3.65,5.45-.33.67-.67,1.37-.82,2.11-.15.78-.18,1.58-.22,2.37,0,.12-.01.25.03.37.07.21.35.35.54.2.42-.32.45-.97.49-1.46.04-.45.05-.9.16-1.34.11-.43.34-.78.62-1.11.21-.24.4-.49.62-.73.08-.09.17-.18.26-.26.13-.11.27-.19.43-.21.14-.02.35,0,.45.11.11.11.05.29.02.42-.03.16-.1.31-.17.45-.12.25-.27.5-.32.78,0,.05-.01.09-.02.14-.02.51.49,1.13.93.57.09-.12.16-.26.22-.4.31-.66.75-1.25.94-1.95.12-.45.19-.91.26-1.37.26-1.73.64-2.31.48-3.12Z"/>
    <path class="cls-8" d="m48.56,61.14c.06-.09.13-.18.2-.26.13-.15.27-.28.46-.35.18-.06.41-.03.53.11.11.12.12.3.1.46-.06.39-.32.72-.55,1.04-.12.17-.23.34-.31.53.05-.28.2-.53.32-.78.07-.15.14-.3.17-.45.03-.13.09-.31-.02-.42-.11-.1-.31-.13-.45-.11-.16.02-.31.11-.43.21Z"/>
  </g>
  <path class="cls-4" d="m65.68,6.14s0,1.06.38,1.77h0"/>
  <path class="cls-4" d="m67.73,8.35c.84-.48,1.4-1.71,1.4-1.71"/>
  <path class="cls-4" d="m70.37,18.05h0c.1-.02.78-.2,1.19-1.28.44-1.17.94-1.03.98-2.24.03-1.14-1.15-.65-1.28-.58"/>
  <path class="cls-4" d="m60.7,7.64s.82.49,1.73.65"/>
  <path class="cls-3" d="m69.46,8.87c-.52.03-1.13-.1-1.73-.52-.25.15-.52.23-.8.2-.4-.04-.67-.31-.85-.64-.01,0-.02.02-.03.02-.11.11-.84.74-1.73-.12-.47.56-1.2.62-1.88.49-.41.31-.96.28-.96.28-.03.05-.07.1-.1.15-1.67,2.36-1.84,3.96-1.85,4.13-.1-.42-.18-.82-.23-1.2.09.71.22,1.22.25,1.33h0s0,.03,0,.03h0c-.02.67-.03,2.4.24,4.19.23,1.49.68,3.02,1.5,4.01,1.89,2.3,3.12,2.35,3.3,2.33.19.04,1.48.24,3.71-1.75.96-.85,1.64-2.3,2.1-3.73.55-1.73.8-3.44.88-4.1h0c.02-.08.02-.15.02-.24-.02.07-.05.1-.05.1.02-.28.02-.56.02-.83-.18-1.39-1.45-3.69-1.6-4.08l-.19-.03Z"/>
  <path class="cls-4" d="m71.24,12.99c.04.26.05.5.03.72"/>
  <path class="cls-4" d="m71.26,13.95s0,0,.01-.02h0c.06-.14.36-.82.57-1.74v-.03c.41-1.85.43-4.65-2.65-5.9,0,0-.19-1.01-1.49-.86,0,0-1.51-1.65-3.32-.3-1.26-.36-1.6.62-1.6.62-3.48.82-3.7,3.95-3.5,5.82,0,.04.01.07.01.1"/>
  <path class="cls-4" d="m61.33,8.91s-1.79,2.6-1.79,4.1"/>
  <path class="cls-4" d="m71.3,13.67h0s0,.12-.03.26h0s0,.03,0,.03"/>
  <path class="cls-4" d="m59.53,13.01v-.02"/>
  <path class="cls-4" d="m59.55,12.72s0,.1-.01.26"/>
  <path class="cls-4" d="m59.79,17.2h0c-.09-.04-.74-.32-.97-1.45-.25-1.22-.77-1.16-.62-2.36.15-1.13,1.24-.46,1.36-.38"/>
  <path class="cls-4" d="m63.57,6.77c.23.42.45.74.67.96.03.03.04.06.07.07"/>
  <path class="cls-4" d="m66.04,7.92l.02-.02"/>
  <ellipse class="cls-3" cx="67.25" cy="14.58" rx=".36" ry=".12" transform="translate(47.52 80.5) rotate(-85.58)"/>
  <ellipse class="cls-3" cx="62.29" cy="14.1" rx=".36" ry=".12" transform="translate(43.43 75.12) rotate(-85.58)"/>
  <line class="cls-3" x1="64.72" y1="73.34" x2="64.97" y2="62.29"/>
  <path class="cls-5" d="m86.58,44c-.14-1.87-.97-3.72-1.95-5.31-.07-.11-.14-.23-.22-.34-.88-1.37-1.93-2.65-2.97-3.92-.23-.28-.46-.56-.69-.83-.46-.58-.93-1.15-1.42-1.71-1-1.16-2.06-2.28-3.24-3.24-1.18-.94-2.42-1.5-3.83-1.98-1.29-.43-2.63-.72-3.98-.9,0,0-.1.06-.29.14-.84.35-3.29,1.27-5.44.76-.26-.07-.52-.15-.77-.26l-.22-.1h-.01c-.1-.06-.2-.11-.3-.18-1.5.6-3.87,2.04-5.05,3.24-.11.12-.18.28-.28.41-2.77,3.78-1.59,13.73-1.46,15.99.02.33-.08.66-.28.92-.46.59-1.29,1.67-1.74,2.32-.82,1.16-1.56,2.3-2.26,3.51-.26.44-.38.92-.38,1.39,0,.99.54,1.95,1.49,2.46,1.26.68,2.83.45,3.85-.57,1.18-1.2,2.29-2.48,3.34-3.79.05.14.14.26.22.38.5.71,1.36.98,2.17,1.16,4.03.93,8.32.78,12.26-.48.04-.01.07-.01.1-.03.32.73.66,1.45,1.09,2.14.05.08.11.16.18.22.36.39.95.51,1.46.27,2.12-.98,4.11-2.3,5.9-3.77,1.52-1.24,3.06-2.59,4-4.34.62-1.15.81-2.36.72-3.56Zm-11.99,5.15c-.13-2.05-.34-5.27-.43-7.54-.05-1.13-.07-2.02-.04-2.43.7.96,1.47,1.87,2.3,2.75.72.77,1.48,1.5,2.24,2.23-1.55,1.62-2.91,3.28-4.07,4.99Z"/>
  <path class="cls-3" d="m61.25,26.13c.1.06.2.12.3.17h0c.07.04.15.07.22.1.25.11.51.19.76.26l-.81-.33-.2-.08-.28-.12Z"/>
  <path class="cls-4" d="m56.93,39.22c.05,1.31.85,9.63,1.07,10.94.13.76.25,1.59.71,2.23.5.71,1.36.97,2.18,1.16"/>
  <line class="cls-4" x1="78.66" y1="44.16" x2="81.45" y2="41.69"/>
  <circle cx="61.47" cy="14.53" r="2.07"/>
  <circle cx="66.85" cy="14.55" r="2.07"/>
  <line class="cls-7" x1="63.12" y1="14.51" x2="65.07" y2="14.61"/>
  <line class="cls-7" x1="68.43" y1="14.26" x2="71.5" y2="13.35"/>
  <line class="cls-8" x1="73.23" y1="53.04" x2="74.59" y2="49.15"/>
  <path class="cls-6" d="m74.85,61.36c.15-.32.02-.7-.29-.85l-4.86-2.37h0s-.3-.15-.3-.15c-.46-.23-1.02-.03-1.25.43l-26.54,54.34,1.2.49,26.05-53.4c.15-.31.52-.44.83-.29l4.3,2.1c.32.15.7.02.85-.29h0Z"/>
  <g>
    <path class="cls-10" d="m42.48,114.27c-.12,0-.25-.03-.36-.08l-.77-.37c-.41-.2-.58-.69-.38-1.09l.22-.46c.13-.28.42-.46.74-.46.12,0,.25.03.36.08l.77.37c.41.2.58.69.38,1.09l-.22.46c-.13.28-.42.46-.74.46Z"/>
    <path d="m41.93,112.3s.09.01.14.03l.77.37c.16.08.23.27.15.43l-.22.45c-.06.11-.17.18-.29.18-.05,0-.09-.01-.14-.03l-.77-.37c-.16-.08-.23-.27-.15-.43l.22-.45c.06-.11.17-.18.29-.18m0-1c-.5,0-.97.29-1.19.74l-.22.45c-.15.32-.17.67-.06,1.01.12.33.35.6.67.75l.76.37c.18.09.38.13.57.13.5,0,.97-.29,1.19-.75l.22-.45c.32-.65.04-1.45-.61-1.76l-.77-.37c-.18-.09-.38-.13-.57-.13h0Z"/>
  </g>
  <path class="cls-8" d="m74.59,55.72c-.76.55-1.35,1.09-1.65,1.66-.55,1.06-1.37,1.61-1.8,2.01-.96.89-1.55,2.09-2.37,1.74-.61-.26-1.55-1.11-.13-3.46.74-1.2,1.56-1.89,2.46-2.6.82-.65,1.57-1.25,2.23-1.81,0,.07.04.13.06.2.03.06.05.12.08.18.28.64.58,1.27.96,1.88.04.07.1.14.16.19Z"/>
  <rect class="cls-9" x="-444.57" y="-59.99" width="1447.07" height="727.52"/>
</svg>