<?xml version="1.0" encoding="UTF-8"?>
<svg id="Calque_1" data-name="Calque 1" xmlns="http://www.w3.org/2000/svg" xmlns:xlink="http://www.w3.org/1999/xlink" viewBox="0 0 128 128">
  <defs>
    <style>
      .cls-1, .cls-2, .cls-3, .cls-4, .cls-5, .cls-6, .cls-7, .cls-8, .cls-9 {
        stroke: #000;
      }

      .cls-1, .cls-2, .cls-10, .cls-9 {
        stroke-linecap: round;
        stroke-linejoin: round;
      }

      .cls-1, .cls-11, .cls-4, .cls-9 {
        fill: #fff;
      }

      .cls-2, .cls-10, .cls-8 {
        fill: none;
      }

      .cls-12 {
        clip-path: url(#clippath);
      }

      .cls-3 {
        fill: #fee4cb;
      }

      .cls-3, .cls-4, .cls-5, .cls-6, .cls-7, .cls-8 {
        stroke-miterlimit: 10;
      }

      .cls-5 {
        fill: #a07637;
      }

      .cls-6 {
        fill: #87ccf3;
      }

      .cls-7 {
        fill: #fab0b4;
      }

      .cls-10 {
        stroke: #fff;
        stroke-width: 8px;
      }

      .cls-9 {
        stroke-width: .7px;
      }
    </style>
    <clipPath id="clippath">
      <path class="cls-4" d="m71.1,113.02c-.85.18-.98,5.3-.08,5.88,1.77,1.12,6.57,1.32,8.44,1.33,1.81,0,3.21-.79,2.59-2.12-.57-1.23-3.85-1.68-6.39-5.17-.31-.42-.74-.73-1.45-.49-.73.24-.81,1.28-1.54,1.33-1.22.08-1.57-.75-1.57-.75Z"/>
    </clipPath>
  </defs>
  <line class="cls-2" x1="7.46" y1="112.22" x2="119.1" y2="112.22"/>
  <path class="cls-4" d="m58.78,37.88c-.16-.16-.76.2-1.38.65-.65.47-1.21.76-1.3.64-.11-.14,3.47-2.57,2.85-3.18-.25-.25-.9.37-1.66,1.02-.74.64-1.51,1.26-1.62,1.14-.24-.26,3.52-2.89,2.85-3.51-.27-.25-1.2.55-2.14,1.44-.83.78-1.11,1.08-1.19.97-.13-.17,2.47-2.27,1.92-2.78-.25-.23-.91.3-1.74,1.17-1.07,1.11-2.15,2.29-2.52,2.03-.19-.13.76-1.88.24-2.21-.17-.11-.64.61-.91,1.02-.51.79-.77,1.71-.95,2.63-.13.65-.89,1.26-1.43,1.65l1.58,2.5c.31-.3.73-.59,1.1-.82.35-.22,2.1-1.15,2.41-1.28,1.15-.46,4.38-2.57,3.89-3.08Z"/>
  <g>
    <path class="cls-5" d="m75.84,73.23l3.56,5.59c.2.32.33.69.37,1.07l3.7,39.31,1.84-.17-3.69-39.2c-.03-.29,0-.58.07-.86l1.95-7.14c.18-.67.24-1.36.18-2.05l-2.91-30.93-1.85.14,1.9,20.22-5.21.09-1.86-19.76-1.84.17,2.92,30.96c.09.9.38,1.78.87,2.54Zm5.23-12.9l.88,9.29c.06.69,0,1.38-.18,2.05l-1.42,5.2-2.71-4.25c-.49-.77-.79-1.64-.87-2.54l-.91-9.65,5.21-.09Z"/>
    <rect class="cls-5" x="83.25" y="117.6" width="2.1" height="1.53" rx=".32" ry=".32" transform="translate(179.8 227.89) rotate(174.38)"/>
  </g>
  <g>
    <path class="cls-5" d="m53.03,71.3l2.92-30.96-1.84-.17-1.86,19.76-5.21-.09,1.94-20.57-1.84-.17-2.95,31.3c-.06.69,0,1.38.18,2.05l1.95,7.14c.08.28.1.57.07.86l-3.69,39.2,1.84.17,3.7-39.31c.04-.38.16-.74.37-1.07l3.56-5.59c.49-.77.79-1.64.87-2.54Zm-.89-10.27l-.91,9.65c-.09.9-.38,1.78-.87,2.54l-2.71,4.25-1.42-5.2c-.18-.67-.24-1.36-.18-2.05l.88-9.29,5.21.09Z"/>
    <rect class="cls-5" x="42.64" y="118.21" width="2.1" height="1.53" rx=".32" ry=".32" transform="translate(11.86 -3.71) rotate(5.62)"/>
  </g>
  <path class="cls-4" d="m47.33,44.34l3.2.32-2.63-5.98h0c-1.09-.12-2.06.68-2.15,1.76l-.16,1.79c-.09,1.06.68,2,1.74,2.11Z"/>
  <path class="cls-4" d="m81.03,57.26c-.01.98.3,2.48-.08,3.34-.66,1.47-3.02,1.89-3.96,1.16-.43-.33-.68-1.08-.5-1.35l.75-.02c.28-.22.3-.85.03-1.1l-1.5.03c-.08-.41.65-1.81,1.64-2.41l3.63.36Z"/>
  <path class="cls-4" d="m46.93,58.13c.01.98-.25,2.22.14,3.08.66,1.47,3.02,1.89,3.96,1.16.43-.33.68-1.08.5-1.35l-.75-.02c-.28-.22-.3-.85-.03-1.1l1.5.03c.08-.41-.4-1.34-1.39-1.94l-3.93.15Z"/>
  <polygon class="cls-4" points="70.86 110.86 74.41 110.86 74.7 114.09 71.25 114.42 70.86 110.86"/>
  <g>
    <path class="cls-11" d="m71.1,113.02c-.85.18-.98,5.3-.08,5.88,1.77,1.12,6.57,1.32,8.44,1.33,1.81,0,3.21-.79,2.59-2.12-.57-1.23-3.85-1.68-6.39-5.17-.31-.42-.74-.73-1.45-.49-.73.24-.81,1.28-1.54,1.33-1.22.08-1.57-.75-1.57-.75Z"/>
    <g class="cls-12">
      <path class="cls-4" d="m71.1,113.02c-.85.18-.98,5.3-.08,5.88,1.77,1.12,6.57,1.32,8.44,1.33,1.81,0,3.21-.79,2.59-2.12-.57-1.23-3.85-1.68-6.39-5.17-.31-.42-.74-.73-1.45-.49-.73.24-.81,1.28-1.54,1.33-1.22.08-1.57-.75-1.57-.75Z"/>
      <path class="cls-4" d="m70.89,112.11c-.91-.27-1.31,4.74-.41,5.31,1.77,1.12,6.85,1.43,8.71,1.43,1.81,0,3.21-.79,2.59-2.12-.57-1.23-3.85-1.68-6.33-4.72l-4.56.09Z"/>
    </g>
    <path class="cls-8" d="m71.1,113.02c-.85.18-.98,5.3-.08,5.88,1.77,1.12,6.57,1.32,8.44,1.33,1.81,0,3.21-.79,2.59-2.12-.57-1.23-3.85-1.68-6.39-5.17-.31-.42-.74-.73-1.45-.49-.73.24-.81,1.28-1.54,1.33-1.22.08-1.57-.75-1.57-.75Z"/>
  </g>
  <path class="cls-6" d="m73.73,57.56c1.17,10.01,3.23,47.49,2.33,53.73-.01.08-.09.15-.18.15h-5.85c-.13,0-.24-.1-.26-.23l-4.23-35.66s-.88,7.39-1.68,9.96c-.74,2.39-5.43,4.17-7.42.62-.32-.57-.51-1.21-.59-1.86-.36-2.85-1.78-8.55-1.21-23.39l19.09-3.33Z"/>
  <path class="cls-4" d="m65.54,75.39c-.25-1.1-.37-2.24-.52-3.35-.23-1.73-.43-3.46-.57-5.19-.08-.9-.14-1.8-.17-2.7,0-.1-.15-.1-.15,0,.05,1.7.22,3.39.4,5.07.17,1.59.37,3.17.61,4.75.07.49.14.98.25,1.45.02.09.16.05.14-.04h0Z"/>
  <path class="cls-7" d="m46.86,58.14c1.75.87,4.46-.11,4.46-.11-.19-2.7-.88-6.66-.33-12.05.05-.52,4.32-6.6,4.32-6.6.78,2.79-1.41,14.12-.66,21.51,0,0,4.45-.41,8.38.53,3.87.93,10.91-1.91,10.91-1.91l-1.45-15.15c-.1-1.82-.34-3.52-.36-4.67,0,0,3.87,4.4,4.51,5.56.77,1.39-.1,11.24-.1,11.24,1.94,1.07,4.66.77,4.66.77,1.39-6.33,1.73-10.24,1.28-13.39-.56-3.98-2.69-8.5-6.39-11.98-1.71-1.61-3.75-2.79-7.19-3.39l-10.2.19c-4.65.96-6.39,2.25-9.05,5.72-3.37,4.38-4.7,10.47-4.9,12.51-.37,3.79,2.12,11.22,2.12,11.22Z"/>
  <path class="cls-4" d="m55.34,39.31c1.02-.82,1.83-1.88,2.38-3.07.04-.09-.1-.18-.14-.08-.54,1.18-1.35,2.22-2.36,3.03-.08.07.03.18.11.11h0Z"/>
  <path class="cls-4" d="m72.82,38.6c-.53-.96-1.06-1.94-1.31-3.02-.02-.1-.18-.06-.16.04.26,1.09.8,2.08,1.33,3.05.05.09.19,0,.14-.08h0Z"/>
  <path class="cls-4" d="m76.81,45.29c.49-.81,1.36-1.37,2.3-1.46.1-.01.1-.17,0-.16-1,.1-1.92.67-2.44,1.54-.05.09.09.17.14.08h0Z"/>
  <path class="cls-4" d="m76.88,45.6c.4-.06.82-.1,1.22-.04.35.05.67.21.94.44.08.07.19-.05.11-.11-.29-.25-.63-.42-1.01-.48-.43-.07-.88-.03-1.31.04-.1.02-.06.17.04.16h0Z"/>
  <path class="cls-4" d="m49.26,44.55c.34.1.62.37.88.59.13.12.26.24.39.37.11.12.26.25.26.42,0,.1.16.1.16,0,0-.18-.11-.33-.23-.45-.14-.15-.29-.29-.45-.43-.15-.13-.3-.26-.46-.38-.16-.12-.32-.22-.51-.28-.1-.03-.14.13-.04.16h0Z"/>
  <path class="cls-4" d="m49.22,46.1c.52-.06,1.05.01,1.53.21.1.04.14-.12.04-.16-.5-.21-1.04-.28-1.58-.22-.1.01-.1.17,0,.16h0Z"/>
  <path class="cls-4" d="m55.29,39.33c.3.02.6-.03.88-.14.27-.11.51-.25.76-.4.09-.05,0-.19-.08-.14-.23.14-.47.29-.72.39-.27.11-.55.15-.84.14-.1,0-.1.16,0,.16h0Z"/>
  <path class="cls-4" d="m70.86,37.89c.13.15.26.3.42.42.15.11.31.2.48.26.17.07.35.11.53.14.09.01.19.02.28.03.08,0,.15,0,.19-.07.05-.09-.09-.17-.14-.08.01-.02-.06-.01-.08-.02-.04,0-.08,0-.12-.01-.08,0-.16-.02-.24-.04-.16-.03-.31-.08-.46-.15-.31-.14-.54-.35-.76-.61-.07-.08-.18.04-.11.11h0Z"/>
  <path class="cls-3" d="m54.82,45.05l-3.21-.19,3.55-5.48h0c1.09.05,1.92.99,1.84,2.08l-.13,1.79c-.08,1.06-.99,1.86-2.06,1.8Z"/>
  <path class="cls-3" d="m73.18,44.44l2.78-.16-3.13-5.51h0c-1.09.05-1.92.99-1.84,2.08l.13,1.79c.08,1.06.99,1.86,2.06,1.8Z"/>
  <path class="cls-9" d="m69.19,20.02h0c.09-.04.72-.31.95-1.41.24-1.19.74-1.13.61-2.3-.14-1.1-1.2-.45-1.32-.36"/>
  <path class="cls-1" d="m67.13,29.59c-.26.12-.54.21-.81.27-2.3.55-4.91-.43-5.8-.8l.27-3.9.03-.44,6.03-1.16.16,1.25.51,4.24c-.03.08-.05.17-.08.23-.02.05-.03.1-.05.14-.01.02-.01.04-.02.06h-.01l-.23.11Z"/>
  <path class="cls-2" d="m63.47,9.28s0,1.03-.37,1.72h0"/>
  <path class="cls-2" d="m61.48,11.43c-.81-.47-1.36-1.66-1.36-1.66"/>
  <path class="cls-9" d="m58.92,20.85h0c-.09-.02-.76-.19-1.15-1.24-.42-1.13-.91-1-.95-2.18-.03-1.11,1.12-.63,1.24-.56"/>
  <path class="cls-2" d="m68.3,10.74s-.79.47-1.68.63"/>
  <path class="cls-1" d="m59.8,11.94c.51.03,1.09-.09,1.68-.5.24.15.5.22.78.19.39-.04.65-.3.83-.62,0,0,.02.02.03.02.11.1.81.72,1.68-.12.45.54,1.17.6,1.83.47.4.31.94.27.94.27.03.04.07.1.09.14,1.62,2.29,1.78,3.85,1.79,4.01.1-.41.17-.8.23-1.17-.09.69-.22,1.18-.25,1.29h0s0,.03,0,.03h0c.02.65.03,2.33-.24,4.07-.22,1.45-.66,2.93-1.45,3.89-1.83,2.23-3.02,2.28-3.2,2.26-.18.04-1.44.23-3.6-1.7-.93-.82-1.59-2.23-2.03-3.62-.53-1.68-.78-3.34-.86-3.98h0c-.01-.07-.02-.15-.02-.23.02.06.05.1.05.1-.02-.27-.02-.54-.02-.8.18-1.35,1.41-3.58,1.55-3.96l.18-.03Z"/>
  <path class="cls-2" d="m58.07,15.94c-.04.25-.05.49-.03.7"/>
  <path class="cls-2" d="m58.06,16.87s0,0-.01-.02h0c-.06-.14-.35-.79-.55-1.69v-.03c-.4-1.8-.42-4.51,2.57-5.72,0,0,.19-.98,1.45-.83,0,0,1.46-1.6,3.22-.29,1.22-.35,1.56.6,1.56.6,3.37.79,3.59,3.84,3.4,5.65,0,.04-.01.07-.01.09"/>
  <path class="cls-2" d="m67.69,11.97s1.73,2.53,1.74,3.98"/>
  <path class="cls-2" d="m58.02,16.59h0s0,.12.03.25h0s0,.03,0,.03"/>
  <path class="cls-2" d="m69.44,15.95v-.02"/>
  <path class="cls-2" d="m69.42,15.67s0,.09.01.25"/>
  <path class="cls-2" d="m65.51,9.9c-.22.41-.44.72-.65.93-.03.03-.04.06-.07.07"/>
  <path class="cls-2" d="m63.12,11.02l-.02-.02"/>
  <rect class="cls-10" x="-262.67" y="-59.99" width="1447.07" height="727.52"/>
</svg>