<?xml version="1.0" encoding="UTF-8"?>
<svg id="Calque_1" data-name="Calque 1" xmlns="http://www.w3.org/2000/svg" viewBox="0 0 128 128">
  <defs>
    <style>
      .cls-1, .cls-2, .cls-3 {
        fill: none;
      }

      .cls-4, .cls-2, .cls-5, .cls-6, .cls-7, .cls-8, .cls-9, .cls-10, .cls-11 {
        stroke: #000;
      }

      .cls-4, .cls-2, .cls-3, .cls-11 {
        stroke-linecap: round;
        stroke-linejoin: round;
      }

      .cls-4, .cls-5, .cls-6, .cls-7, .cls-11 {
        fill: #fff;
      }

      .cls-5 {
        stroke-width: 6.49px;
      }

      .cls-5, .cls-6, .cls-7, .cls-8, .cls-9, .cls-10 {
        stroke-miterlimit: 10;
      }

      .cls-6 {
        stroke-width: 5.57px;
      }

      .cls-8 {
        fill: #d6d6d6;
      }

      .cls-9 {
        fill: #87ccf3;
      }

      .cls-10 {
        fill: #fab0b4;
      }

      .cls-3 {
        stroke: #fff;
        stroke-width: 8px;
      }

      .cls-11 {
        stroke-width: .7px;
      }
    </style>
  </defs>
  <rect class="cls-7" x="42.84" y="44.1" width="7.34" height="22.79" transform="translate(-4.73 4.34) rotate(-5.08)"/>
  <polygon class="cls-7" points="94.77 96.09 98.41 94.58 100.55 99.31 96.78 100.96 94.77 96.09"/>
  <path class="cls-7" d="m97.25,103.73l-.52-1.21c-.16-.37-.27-.76-.32-1.16l-.12-.83h0l-.02-.13c-.04-.25.22-.44.45-.33l.26.13c1.12.4,2.36-.18,2.76-1.3h0s0,0,0,0l-.26-.37c-.25-.35-.28-.82-.07-1.2.08-.14.24-.2.39-.16,0,0,2.28.6,2.31.61.01,0,.07.02.08.02.03,0,.07.02.1.03.02,0,.04.01.06.02,0,0,0,0,.01,0,.03,0,.85.18.87.18.01,0,.48.07.5.07.02,0,.04,0,.06,0,.03,0,.06,0,.1.01,0,0,.02,0,.03,0,.07,0,.14.01.21.02.01,0,.03,0,.04,0,.03,0,.55.03.65.03.01,0,.03,0,.04,0,.04,0,.14,0,.15,0,.04,0,.13,0,.13,0,.13,0,.4-.01.41-.02.04,0,.08,0,.12,0,0,0,.02,0,.03,0,.04,0,.12,0,.12,0,.4-.03.79-.09,1.18-.16l1.55-.3c.67-.13,1.34.22,1.61.85h0s.02.06.02.06c.11.3.14.62.11.92v.04s0,0,0,0c-.08.63-.44,1.21-1.03,1.51-.04.02-.08.04-.13.06l-9.88,4.23c-.56.24-1.12.12-1.43-.38-.05-.07-.07-.2,0-.24l-.29-.44c-.12-.17-.22-.36-.3-.55Z"/>
  <circle class="cls-6" cx="82.04" cy="108.1" r="4.07"/>
  <rect class="cls-7" x="43.78" y="65.81" width="36.14" height="15.61" transform="translate(-6.27 5.76) rotate(-5.08)"/>
  <path class="cls-10" d="m66.33,41.2s-.25-6.23-2.99-7.92c-1.1-.68-2.37-1.12-3.75-1.16l-6.67.55s-3.91,1.4-5.59,4.45c-1.11,2.01-1.6,4.66-1.16,8.73.63,5.79,2.26,13.39,3.26,21.97,0,0,13.18-.16,16.58-4.86.71-.99.33-21.23.32-21.77Z"/>
  <path class="cls-9" d="m49.42,67.83c-.43,2.56,5.05,6.22,9.83,7.72,12.18,3.83,22.04,1.13,27.25-1.2,0,0-.25,1.32,1.34,6.62,1.18,3.93,4.44,10.79,6.92,15.13,0,0,4.23-.73,5.29-2.34,0,0-4.32-18.37-6.68-24.87-.85-2.34-2.51-4.11-4.96-4.55-5.44-.99-22.41-1.36-22.41-1.36-9.38,4.86-16.58,4.86-16.58,4.86Z"/>
  <circle class="cls-1" cx="46.75" cy="90.5" r="23.58" transform="translate(-50.24 121.64) rotate(-80.47)"/>
  <circle class="cls-5" cx="82.01" cy="108.09" r="6.53"/>
  <circle class="cls-5" cx="46.75" cy="90.5" r="20.81"/>
  <path class="cls-8" d="m110.26,101.72c-.26-.53-.93-.73-1.48-.5l-9.81,4.22-9.58-21.3c-.29-.64-1.03-.93-1.68-.65l-6.61,2.84-2.41-27.16c-.08-.85-.83-1.49-1.68-1.41l-.65.06-31.61,2.81-2.43-27.33c-.08-.92-.9-1.61-1.82-1.53l-11.65,1.01c-.61.05-1.05.59-1,1.19h0c.05.61.59,1.05,1.19,1l9.81-.87c.73-.06,1.37.47,1.43,1.2l5.17,58.12c.05.57.52,1.05,1.09,1.05.66,0,1.16-.56,1.11-1.2l-2.71-30.44,30.35-2.7c.7-.06,1.32.45,1.38,1.15l4.2,47.23c.05.61.6,1.1,1.2,1.1h0c.61,0,1.06-.5,1.01-1.1l-1.77-19.87,5.62-2.41c.46-.2.99,0,1.2.47l9.24,20.54c.28.62,1,.89,1.62.61l.71-.32,10.02-4.31c.58-.25.83-.93.55-1.5Z"/>
  <path class="cls-7" d="m50.38,46.18c2.96-.24,5.57-2.52,5.57-2.52,1.22,2.21,3.42,8.59,4.93,10.44.61.75,3.31.04,12.2.71.64.05,2.52.21,4.35,1.43.34.23,2.47,1.67,2.38,3.16-.06.97-.49,2.38-3.06,1.36-.79-.31-2.23-1.91-4.26-2.6,0,0-8.52,2.34-13.93.94-2.89-.75-8.19-12.92-8.19-12.92Z"/>
  <path class="cls-7" d="m54.23,37.81c1.13,1.46,1.78,3.15,2.38,4.88.04.12.23.07.19-.05-.61-1.76-1.27-3.48-2.43-4.96-.08-.1-.22.04-.14.14h0Z"/>
  <path class="cls-7" d="m49.85,46.32c.14.01.28.01.42,0,.05,0,.1-.04.1-.1,0-.05-.04-.1-.1-.1-.14,0-.28,0-.42,0-.05,0-.1.05-.1.1,0,.06.04.1.1.1h0Z"/>
  <path class="cls-7" d="m56.09,43.68c.16-.12.29-.27.42-.41.07-.07.13-.15.18-.23.05-.09.09-.19.13-.28.02-.05-.02-.11-.07-.12-.06-.02-.1.02-.12.07-.03.08-.07.16-.11.24-.02.04-.04.07-.07.11-.03.03-.06.07-.09.1-.12.13-.23.26-.37.37-.04.03-.07.09-.04.14.02.04.09.07.14.04h0Z"/>
  <path class="cls-4" d="m61.48,32.44c.14-.25-2.16-6.01-2.16-6.01l-4.76,1.61s-1.25,2.82-1.64,4.63c0,0,5.21,5.85,8.57-.23Z"/>
  <path class="cls-2" d="m55.11,13.09s.11,1.13-.24,1.94h-.01"/>
  <path class="cls-2" d="m53.12,15.66c-.94-.44-1.67-1.7-1.67-1.7"/>
  <path class="cls-11" d="m51.2,26.33h-.01c-.11-.01-.86-.14-1.39-1.26-.58-1.21-1.1-1.02-1.27-2.31-.14-1.22,1.17-.8,1.32-.74"/>
  <path class="cls-2" d="m59.88,12.81s-.12,2.02-1.08,2.28"/>
  <path class="cls-4" d="m51.31,16.38c.56-.02,1.2-.21,1.81-.72.29.14.58.2.88.14.43-.08.69-.4.86-.77.01,0,.02.02.03.02.13.1.97.72,1.85-.3.55.56,1.35.55,2.07.35.47.3,1.06.21,1.06.21.04.05.09.1.12.15,2.02,2.38,2.35,4.08,2.38,4.26.07-.46.11-.9.14-1.31-.03.77-.12,1.33-.15,1.45h0s0,.03,0,.03h0c.09.72.24,2.82.11,4.77-.11,1.62-1.34,5.18-3.22,5.71-4.35,1.23-7.71-3.37-8.33-4.87-.75-1.8-.92-2.78-1.07-3.48h0c-.02-.08-.04-.16-.04-.26.03.07.06.11.06.11-.05-.3-.08-.59-.1-.88.06-1.51,1.21-4.1,1.33-4.54l.2-.05Z"/>
  <path class="cls-2" d="m49.78,20.97c-.02.29,0,.55.04.78"/>
  <path class="cls-2" d="m49.86,22.01s0-.01-.01-.02h0c-.07-.14-.46-.84-.77-1.82v-.03c-.62-1.95-.91-4.95,2.28-6.58,0,0,.11-1.11,1.52-1.06,0,0,1.46-1.91,3.54-.63,1.32-.5,1.78.51,1.78.51,3.81.55,4.35,3.89,4.31,5.92,0,.04,0,.07,0,.11"/>
  <path class="cls-2" d="m60.04,15.65s2.17,2.62,2.31,4.23"/>
  <path class="cls-2" d="m49.79,21.71h0s.02.13.05.27h0s0,.03,0,.03"/>
  <path class="cls-2" d="m62.36,19.88v-.02"/>
  <path class="cls-2" d="m62.32,19.57s.02.1.04.28"/>
  <path class="cls-2" d="m57.43,13.57c-.2.47-.42.83-.62,1.09-.03.04-.04.07-.07.08"/>
  <path class="cls-2" d="m54.89,15.04l-.02-.02"/>
  <line class="cls-2" x1="9.1" y1="112.22" x2="120.73" y2="112.22"/>
  <rect class="cls-3" x="-80.77" y="-59.99" width="1447.07" height="727.52"/>
</svg>