<?xml version="1.0" encoding="UTF-8"?>
<svg id="Calque_1" data-name="Calque 1" xmlns="http://www.w3.org/2000/svg" viewBox="0 0 128 128">
  <defs>
    <style>
      .cls-1 {
        stroke: #222221;
      }

      .cls-1, .cls-2, .cls-3, .cls-4, .cls-5, .cls-6 {
        stroke-linecap: round;
        stroke-linejoin: round;
      }

      .cls-1, .cls-5, .cls-6 {
        fill: none;
      }

      .cls-7 {
        fill: #222221;
      }

      .cls-2 {
        fill: #87ccf3;
      }

      .cls-2, .cls-3, .cls-4, .cls-5 {
        stroke: #000;
        stroke-width: 2px;
      }

      .cls-3 {
        fill: #87f3b9;
      }

      .cls-4 {
        fill: #fff;
      }

      .cls-6 {
        stroke: #fff;
        stroke-width: 8px;
      }
    </style>
  </defs>
  <path class="cls-2" d="m54.23,47.06c-2.31.11-7.19-1.27-12.14-3.27l-7.08,8.52c3.35,3.28,7.08,6.56,10.39,8.66,0,0,1.35,11.21.84,15.97,0,0-13.94-1.04-16.8,4.69-1.69,3.38.58,8.11,1.89,15.62,1.31,7.51,3.22,13.76,3.22,13.76l7.18-2.25.09-17.93s3.85,3.57,10.75,4.83,17.95,1.15,22.81-.42c4.79-1.55,7.88-3.95,10-6.06l-3.94,20.13,7.6,1.69s12.88-24.07,10.61-28.81c-2.25-4.69-14.83-5.82-14.83-5.82l1.5-13.89c3.01-1.91,8.95-6.84,12.13-9.83l-5.54-9.87c-5.36,2.2-10.68,3.97-12.76,4.63"/>
  <path class="cls-4" d="m93.02,33.06c-.09-.34-.19-.68-.37-.99-.6-1.03-1.98-1.4-3.14-1.12-.15.04-.32.09-.49.16.23-5.23-.71-10.63-3.35-15.07-6.44-10.83-19.46-9.47-19.46-9.47-19.84.33-22.12,18.07-22.32,24.08-1.07-.13-2.24.26-2.78,1.18-.18.3-.28.65-.37.99-.13.48-.24.96-.25,1.46-.06,1.66,1.03,3.3,2.58,3.88.85.32,1.81.31,2.67.02,2.8,6.04,7.94,11,14.24,13.15,8.15,2.78,17.91.49,23.65-5.92,1.83-2.05,3.24-4.48,4.15-7.07.93.37,2,.42,2.94.07,1.55-.59,2.64-2.23,2.58-3.88-.02-.49-.13-.98-.25-1.46Z"/>
  <path class="cls-4" d="m92.01,119.37c-1.42-.08-2.78-.54-4.09-1.04-1.99-.76-3.93-1.63-5.81-2.59-.97-.5-2.03-1.17-2.16-2.19-.06-.4.04-.79.15-1.18.05-.17.5-1.43,1.24-3.37l7.72,2.02c1.16,1.53,3.4,4.58,4.3,6.26.27.51.52,1.14.18,1.61-.31.44-.95.51-1.51.48Z"/>
  <path class="cls-4" d="m42.48,108.22c.6,1.62.97,2.64,1.02,2.8.11.38.23.78.18,1.17-.11,1.03-1.15,1.72-2.09,2.26-1.86,1.02-3.77,1.94-5.74,2.76-1.29.54-2.63,1.04-4.05,1.16-.56.04-1.21,0-1.53-.44-.36-.46-.13-1.1.13-1.61.84-1.71,3.06-3.75,4.17-5.32l7.91-2.79Z"/>
  <path class="cls-5" d="m35.02,52.31c-5.59-5.47-10.17-10.93-10.17-10.93-1.21-.74-2.25-1.78-3.03-3.02-.38-.61-.71-1.37-.44-2.06.03-.08.07-.15.14-.19.13-.06.27.08.35.2.27.4.54.8.82,1.2-.32-.45-.64-.92-.78-1.48-.13-.55-.04-1.21.38-1.58.27.49.59.95.97,1.34-.52-.55-.74-1.4-.56-2.16.04-.16.1-.33.23-.4.23-.13.48.07.66.27.41.47.76.99,1.04,1.55-.32-.49-.53-1.07-.62-1.67-.04-.26-.05-.55.05-.79.1-.24.35-.44.59-.39.13.03.24.12.34.21.71.68,1.07,1.69,1.65,2.5.07.1.17.21.29.21.1,0,.18-.07.24-.15.26-.31.33-.76.5-1.13.18-.38.6-.71.94-.51.24.14.31.46.34.75.09.78.21,1.48.04,2.25,2.36,2.45,7.77,5.3,13.1,7.44l-7.08,8.52Z"/>
  <path class="cls-5" d="m98.46,52.66c6.17-5.8,11.52-11.96,11.52-11.96,1.21-.74,2.25-1.78,3.03-3.02.38-.61.71-1.37.44-2.06-.03-.08-.07-.15-.14-.19-.13-.06-.27.08-.35.2-.27.4-.54.8-.82,1.2.32-.45.64-.92.78-1.48.13-.55.04-1.21-.38-1.58-.26.49-.59.95-.97,1.34.52-.55.74-1.4.56-2.16-.04-.16-.1-.33-.23-.4-.23-.13-.48.07-.66.27-.41.47-.76.99-1.04,1.55.32-.49.53-1.07.62-1.67.04-.26.05-.55-.05-.79-.1-.24-.35-.44-.59-.39-.13.03-.24.12-.34.21-.71.68-1.07,1.69-1.65,2.5-.07.1-.17.21-.29.21-.1,0-.18-.07-.24-.15-.26-.31-.33-.76-.5-1.13-.18-.38-.6-.71-.94-.51-.24.14-.31.46-.34.75-.09.78-.21,1.48-.04,2.25-2.26,2.35-7.6,4.94-12.91,7.12"/>
  <path class="cls-7" d="m54.48,32.11c0,.78-.54,1.41-1.2,1.41s-1.2-.63-1.2-1.41.54-1.41,1.2-1.41,1.2.63,1.2,1.41Z"/>
  <path class="cls-7" d="m81.65,32.11c0,.78-.54,1.41-1.2,1.41s-1.2-.63-1.2-1.41.54-1.41,1.2-1.41,1.2.63,1.2,1.41Z"/>
  <path class="cls-1" d="m67.31,36.72c.63-.31,1.09-.99,1.06-1.69-.02-.7-.57-1.38-1.26-1.48-.38-.06-.77.04-1.14.14"/>
  <path class="cls-3" d="m65.38,70.38l15.88.18,4.54,26.47-2.62.22-1.9,11.9,2.22,1.4v5.65s3.26,2.1,3.26,2.1l.08-7.39,3.45.12s2.52-4.37,2.99-6.2c.48-1.83,3.12-7.16,3.12-7.16h-5.28s-2.93-24.29-2.93-24.29l4.69,4.5,4.69,2.25-7.53-9.86-.12-26.48s-2.74.87-5.45.87v13.52h-19s-16.89.11-16.89.11v-13.52c-2.7,0-5.45-.87-5.45-.87l-.12,26.48-11.14,8.81,6.38-2.06,5.24-3.57-8.59,23.69h-3.58s.94,5.33,1.42,7.16c.48,1.83.73,6.2.73,6.2l3.45-.12.08,7.39,3.26-2.1v-5.65l2.5-1.11-.2-12.18-2.34-.22,9.86-26.24h15.27Z"/>
  <rect class="cls-6" x="-5185.48" y="-3342.16" width="6467.34" height="6437.3"/>
</svg>