<?xml version="1.0" encoding="UTF-8"?>
<svg id="Calque_1" data-name="Calque 1" xmlns="http://www.w3.org/2000/svg" viewBox="0 0 200 128">
  <defs>
    <style>
      .cls-1, .cls-2, .cls-3, .cls-4, .cls-5 {
        stroke: #000;
      }

      .cls-1, .cls-3 {
        fill: #ffd4ad;
      }

      .cls-1, .cls-6 {
        stroke-linecap: round;
        stroke-linejoin: round;
      }

      .cls-2 {
        fill: #fff;
      }

      .cls-2, .cls-3, .cls-4, .cls-5 {
        stroke-miterlimit: 10;
      }

      .cls-4 {
        fill: #87ccf3;
      }

      .cls-6 {
        stroke: #fff;
        stroke-width: 8px;
      }

      .cls-6, .cls-5 {
        fill: none;
      }
    </style>
  </defs>
  <line class="cls-1" x1="2.3" y1="90.4" x2="197.7" y2="90.4"/>
  <g>
    <g>
      <path class="cls-3" d="m40.71,58.75v12.89c-15.53-4.6-26.74-1.56-30.73-.11v-14.02c0-.72.58-1.29,1.3-1.29s1.29.58,1.29,1.29v1.24h25.51v-1.24c0-.72.58-1.29,1.3-1.29s1.29.58,1.29,1.29v1.24h.03Z"/>
      <path class="cls-2" d="m22.05,71.64c-2.59.28-5.2.28-7.83.01-.94,1.13-2.12.35-1.38-1.13-.07-.38-.12-.76-.16-1.15-.13-1.3-.07-2.61.18-3.91-.82-1.59.55-2.4,1.52-.96,2.52-.14,5.03-.14,7.52,0,.97-1.45,2.31-.53,1.46,1.09.39,1.6.4,3.2.02,4.81.86,1.56-.36,2.42-1.33,1.24Z"/>
      <path class="cls-2" d="m36.46,71.64c-2.59.28-5.2.28-7.83.01-.94,1.13-2.12.35-1.38-1.13-.07-.38-.12-.76-.16-1.15-.13-1.3-.07-2.61.18-3.91-.82-1.59.55-2.4,1.52-.96,2.52-.14,5.03-.14,7.52,0,.97-1.45,2.31-.53,1.46,1.09.39,1.6.4,3.2.02,4.81.86,1.56-.36,2.42-1.33,1.24Z"/>
      <rect class="cls-3" x="8.38" y="73.7" width="33.86" height="8.2"/>
      <path class="cls-3" d="m8.38,72.19v18.21h-2.59v-18.21c0-.72.58-1.3,1.29-1.3s1.3.58,1.3,1.3Z"/>
      <path class="cls-3" d="m44.83,72.12v18.21h-2.59v-18.21c0-.72.58-1.29,1.3-1.29s1.29.58,1.29,1.29Z"/>
      <path class="cls-4" d="m42.24,72.12v1.58H8.38v-1.51s.55-.27,1.6-.66c3.99-1.46,15.19-4.5,30.73.11h0c.5.16,1.01.31,1.53.48Z"/>
    </g>
    <g>
      <line class="cls-5" x1="47.99" y1="74.49" x2="47.99" y2="89.43"/>
      <polygon points="45.95 76.14 46.31 76.49 47.99 74.68 49.67 76.49 50.04 76.14 47.99 73.95 45.95 76.14"/>
      <polygon points="45.95 87.77 46.31 87.43 47.99 89.24 49.67 87.43 50.04 87.77 47.99 89.97 45.95 87.77"/>
    </g>
  </g>
  <g>
    <g>
      <path class="cls-3" d="m91.42,63.5v12.89c-15.53-4.6-26.74-1.56-30.73-.11v-14.02c0-.72.58-1.29,1.3-1.29s1.29.58,1.29,1.29v1.24h25.51v-1.24c0-.72.58-1.29,1.3-1.29s1.29.58,1.29,1.29v1.24h.03Z"/>
      <path class="cls-2" d="m72.76,76.39c-2.59.28-5.2.28-7.83.01-.94,1.13-2.12.35-1.38-1.13-.07-.38-.12-.76-.16-1.15-.13-1.3-.07-2.61.18-3.91-.82-1.59.55-2.4,1.52-.96,2.52-.14,5.03-.14,7.52,0,.97-1.45,2.31-.53,1.46,1.09.39,1.6.4,3.2.02,4.81.86,1.56-.36,2.42-1.33,1.24Z"/>
      <path class="cls-2" d="m87.17,76.39c-2.59.28-5.2.28-7.83.01-.94,1.13-2.12.35-1.38-1.13-.07-.38-.12-.76-.16-1.15-.13-1.3-.07-2.61.18-3.91-.82-1.59.55-2.4,1.52-.96,2.52-.14,5.03-.14,7.52,0,.97-1.45,2.31-.53,1.46,1.09.39,1.6.4,3.2.02,4.81.86,1.56-.36,2.42-1.33,1.24Z"/>
      <rect class="cls-3" x="59.09" y="78.45" width="33.86" height="8.2"/>
      <path class="cls-3" d="m59.09,76.74v13.65h-2.59v-13.65c0-.61.58-1.11,1.29-1.11s1.3.5,1.3,1.11Z"/>
      <path class="cls-3" d="m95.54,76.68v13.65h-2.59v-13.65c0-.61.58-1.1,1.3-1.1s1.29.49,1.29,1.1Z"/>
      <path class="cls-4" d="m92.95,76.87v1.58h-33.86v-1.51s.55-.27,1.6-.66c3.99-1.46,15.19-4.5,30.73.11h0c.5.16,1.01.31,1.53.48Z"/>
    </g>
    <g>
      <line class="cls-5" x1="99.21" y1="78.99" x2="99.21" y2="89.43"/>
      <polygon points="97.17 80.65 97.54 80.99 99.21 79.18 100.89 80.99 101.26 80.65 99.21 78.45 97.17 80.65"/>
      <polygon points="97.17 87.77 97.54 87.43 99.21 89.24 100.89 87.43 101.26 87.77 99.21 89.97 97.17 87.77"/>
    </g>
  </g>
  <g>
    <g>
      <path class="cls-3" d="m142.64,67.25v12.89c-15.53-4.6-26.74-1.56-30.73-.11v-14.02c0-.72.58-1.29,1.3-1.29s1.29.58,1.29,1.29v1.24h25.51v-1.24c0-.72.58-1.29,1.3-1.29s1.29.58,1.29,1.29v1.24h.03Z"/>
      <path class="cls-2" d="m123.98,80.13c-2.59.28-5.2.28-7.83.01-.94,1.13-2.12.35-1.38-1.13-.07-.38-.12-.76-.16-1.15-.13-1.3-.07-2.61.18-3.91-.82-1.59.55-2.4,1.52-.96,2.52-.14,5.03-.14,7.52,0,.97-1.45,2.31-.53,1.46,1.09.39,1.6.4,3.2.02,4.81.86,1.56-.36,2.42-1.33,1.24Z"/>
      <path class="cls-2" d="m138.39,80.13c-2.59.28-5.2.28-7.83.01-.94,1.13-2.12.35-1.38-1.13-.07-.38-.12-.76-.16-1.15-.13-1.3-.07-2.61.18-3.91-.82-1.59.55-2.4,1.52-.96,2.52-.14,5.03-.14,7.52,0,.97-1.45,2.31-.53,1.46,1.09.39,1.6.4,3.2.02,4.81.86,1.56-.36,2.42-1.33,1.24Z"/>
      <rect class="cls-3" x="110.31" y="82.19" width="33.86" height="8.2"/>
      <path class="cls-3" d="m110.31,80.09v10.3h-2.59v-10.3c0-.41.58-.74,1.29-.74s1.3.33,1.3.74Z"/>
      <path class="cls-3" d="m146.76,80.05v10.3h-2.59v-10.3c0-.41.58-.73,1.3-.73s1.29.33,1.29.73Z"/>
      <path class="cls-4" d="m144.17,80.61v1.58h-33.86v-1.51s.55-.27,1.6-.66c3.99-1.46,15.19-4.5,30.73.11h0c.5.16,1.01.31,1.53.48Z"/>
    </g>
    <g>
      <line class="cls-5" x1="150.47" y1="82.44" x2="150.47" y2="90.06"/>
      <polygon points="148.42 84.1 148.79 84.44 150.47 82.63 152.15 84.44 152.51 84.1 150.47 81.9 148.42 84.1"/>
      <polygon points="148.42 88.4 148.79 88.06 150.47 89.86 152.15 88.06 152.51 88.4 150.47 90.6 148.42 88.4"/>
    </g>
  </g>
  <g>
    <path class="cls-2" d="m172.64,83.07c-2.59.28-5.2.28-7.83.01-.94,1.13-2.12.35-1.38-1.13-.07-.38-.12-.76-.16-1.15-.13-1.3-.07-2.61.18-3.91-.82-1.59.55-2.4,1.52-.96,2.52-.14,5.03-.14,7.52,0,.97-1.45,2.31-.53,1.46,1.09.39,1.6.4,3.2.02,4.81.86,1.56-.36,2.42-1.33,1.24Z"/>
    <path class="cls-2" d="m187.05,83.07c-2.59.28-5.2.28-7.83.01-.94,1.13-2.12.35-1.38-1.13-.07-.38-.12-.76-.16-1.15-.13-1.3-.07-2.61.18-3.91-.82-1.59.55-2.4,1.52-.96,2.52-.14,5.03-.14,7.52,0,.97-1.45,2.31-.53,1.46,1.09.39,1.6.4,3.2.02,4.81.86,1.56-.36,2.42-1.33,1.24Z"/>
    <rect class="cls-4" x="158.97" y="85.13" width="33.86" height="5.27"/>
    <path class="cls-4" d="m192.83,83.55v1.58h-33.86v-1.51s.55-.27,1.6-.66c3.99-1.46,15.19-4.5,30.73.11h0c.5.16,1.01.31,1.53.48Z"/>
  </g>
  <g>
    <line class="cls-5" x1="196.58" y1="85.38" x2="196.58" y2="90.06"/>
    <polygon points="194.53 87.04 194.9 87.38 196.58 85.57 198.26 87.38 198.62 87.04 196.58 84.84 194.53 87.04"/>
    <polygon points="194.53 88.4 194.9 88.06 196.58 89.86 198.26 88.06 198.62 88.4 196.58 90.6 194.53 88.4"/>
  </g>
  <rect class="cls-6" x="-565.03" y="-1946.55" width="2244.45" height="5948.74"/>
</svg>