<?xml version="1.0" encoding="UTF-8"?>
<svg id="Calque_1" data-name="Calque 1" xmlns="http://www.w3.org/2000/svg" viewBox="0 0 260 128">
  <defs>
    <style>
      .cls-1 {
        fill: #fff;
      }

      .cls-1, .cls-2, .cls-3 {
        stroke: #000;
      }

      .cls-1, .cls-2, .cls-4 {
        stroke-linecap: round;
        stroke-linejoin: round;
      }

      .cls-2, .cls-4 {
        fill: none;
      }

      .cls-5, .cls-3 {
        fill: #87f3b9;
      }

      .cls-3 {
        stroke-miterlimit: 10;
      }

      .cls-4 {
        stroke: #fff;
        stroke-width: 8px;
      }
    </style>
  </defs>
  <path class="cls-2" d="m43.47,70.97c-.66-.02-1.34,0-1.94.09-.97.15-1.51.52-2.3,1.05-.48.32-.98.56-2.07.77-.65.12-1.73.24-2.69.35.13.4-.04.97-.63,1.21-.51.19-1.18.49-1.51.55-.9.16-2.42.05-3.49.1-.39.02-1.09.11-1.44-.19-.34-.29-.33-.87.1-1.12-4.42.02-7.1-.26-8.87-1.22-3.07-1.67-5.39-5.7-5.39-8.56s2.32-6.89,5.39-8.57c1.77-.96,4.45-1.23,8.87-1.21-.43-.26-.44-.84-.1-1.12.35-.3,1.05-.22,1.44-.2,1.07.06,2.59-.05,3.49.11.33.05,1,.35,1.51.55.59.24.76.8.63,1.21.96.1,2.04.22,2.69.35,1.09.2,1.59.44,2.07.77.79.53,1.33.9,2.3,1.04.6.1,1.28.12,1.94.09"/>
  <path class="cls-5" d="m43.75,57.02c1.13-.05,2.18-.26,2.61-.53,1.64-1.04,2.1-3.46,4.65-8.57,1.32-2.63,2.87-5.07,3.53-7.4,1.61-5.74,4.44-8.59,11.23-8.8.77-.03,2.93.34,3.58.36,3.29.1,5.77-.74,11.61-1.07,8.69-.49,10.14.52,16.26-.33,2.84-.4,5.31-2.17,9.45-2.83,7.17-1.14,15.75.03,22.18-1,1.55-.25,6.97-1.67,12.51-2.08.97-.07,2.04.51,3.51.74,1.82.28,2.23.46,3.4,1.05.22.11,2.42,1.54,4.11,2.86.96.75.71.99,1.87,2.04.47.42.45,1.14-.49,1.23-.34.03-.85-.03-1.49-.4-.49-.29-.77-.77-1.18-.87-1.01-.26-2.4-.74-3.74-1.3-.42-.18-2.51-.13-3.81-.27-.88-.1-1.74.54-2.18.99.02.02-.34.33.04.35.51.03,2.67.31,3.19.43.93.23,2.01.72,2.53,1.02.96.53.63,1.96-.91,1.67-.86-.16-1.99-.21-2.68-.21-1.41,0-3.78.05-4.8.09-1.4.05-2.44-.03-3.3-.13-1.46-.17-1.71-.71-3.33-.73-.4,0-.76,0-1.22.08-4.98.92-8.09,2.29-11.01,3.6-2.8,1.25-5.41,2.46-9.3,3.2-3.68.69-6.25.86-9.51,1.08-2.75.2-8.84,1.46-12.7,2.11-1.04.17-4.59-.6-10.47-.42,6.27.6,8.21,1.89,10.36,1.89,4.93,0,9.33,1.29,11.25,1.01,2.83-.42,3.3-.8,5.22-.91,1.51-.08,2.68.01,5.38-.59,2.1-.46,4.04-1.2,5.09-1.44,1.79-.4,3.1-.62,4.24-.78.14-.02.29-.04.44-.06v43.8c-.15-.02-.3-.04-.44-.06-1.14-.16-2.45-.38-4.24-.79-1.05-.24-2.99-.98-5.09-1.44-2.7-.59-3.87-.5-5.38-.59-1.92-.11-2.39-.49-5.22-.9-1.92-.29-6.32,1-11.25,1-2.15,0-4.09,1.3-10.36,1.9,5.88.17,9.43-.6,10.47-.43,3.86.65,9.95,1.92,12.7,2.11,3.26.23,5.83.4,9.51,1.09,7.96,1.5,10.57,4.99,20.31,6.8.46.08.82.08,1.22.07,1.62-.01,1.87-.56,3.34-.73.85-.09,1.89-.17,3.29-.12,1.02.04,3.39.09,4.8.09.69,0,1.82-.05,2.68-.21,1.54-.29,1.87,1.13.91,1.67-.52.29-1.6.79-2.53,1.01-.52.13-2.68.41-3.19.44-.38.02-.02.32-.04.34.44.45,1.3,1.09,2.18,1,1.3-.15,3.39-.1,3.81-.27,1.34-.57,2.73-1.05,3.74-1.3.41-.11.69-.59,1.18-.87.64-.37,1.16-.44,1.49-.4.94.08.96.8.49,1.23-1.16,1.05-.91,1.29-1.87,2.04-1.69,1.32-3.89,2.74-4.11,2.85-1.17.59-1.58.77-3.4,1.06-1.47.23-2.54.8-3.51.73-5.54-.4-10.96-1.83-12.51-2.07-6.43-1.03-15.01.14-22.18-1.01-4.14-.66-6.61-2.43-9.45-2.82-6.12-.86-7.57.16-16.26-.33-5.84-.34-8.32-1.17-11.61-1.07-.65.01-2.81.38-3.58.36-6.79-.21-9.62-3.07-11.23-8.81-.66-2.32-2.21-4.76-3.53-7.4-2.55-5.1-3.01-7.52-4.65-8.56-.43-.28-1.48-.48-2.61-.54"/>
  <path class="cls-2" d="m119.87,42.1c1.37-.19,3.05-.4,4.92-.85,2.84-.69,7.8-.99,11.96-1.26,7.66-.49,14.59-.51,20.38-.38,4.52.09,12.58.14,19,1.38,2.2.42,1.45.82,3.97.96,1.85.11,3.32.07,5.16-.09,5.87-.53,10.09-2.31,16.46-2.6,5.28-.23,9.12.72,19.18,2.44,6.81,1.17,14.24,2.85,18.62,2.21.41-.06,1.44-.19,2.51-.75.6-.32,1.33-.85,2.28-1.4,1.09-.61,2.56-1.4,2.76-2.07.31-1.06,1.36-1.25,1.92-1,.71.32.85.83.85,1.83v10.23c0,2.34-1.24,2.36-2.84,2.07-1.13-.2-1.95-.53-2.84-.5-1.24.05-1.27-.02-2.54-.27-1.36-.28-2.81-.78-4.8-.92-.21-.01-9.82.11-19.73,2.71-4.55,1.2-6.88,1.92-14.34,2.59-6.11.54-10.19-.68-14.39-.58-2.79.06-3.84.65-8.46,1.9-2.91.79-5.73,1.43-9.12,1.99-9.58,1.55-13.87,2.93-27.1,3.83-.19.01-.06.09-.06.43s-.13.42.06.43c13.23.9,17.52,2.27,27.1,3.83,3.39.55,6.21,1.19,9.12,1.98,4.62,1.26,5.67,1.84,8.46,1.91,4.2.1,8.28-1.13,14.39-.58,7.46.67,9.79,1.39,14.34,2.58,9.91,2.61,19.52,2.73,19.73,2.72,1.99-.15,3.44-.65,4.8-.92,1.27-.25,1.3-.32,2.54-.28.89.04,1.71-.29,2.84-.5,1.6-.29,2.84-.27,2.84,2.08v10.23c0,.99-.14,1.5-.85,1.83-.56.25-1.61.06-1.92-1-.2-.67-1.67-1.46-2.76-2.08-.95-.54-1.68-1.08-2.28-1.39-1.07-.56-2.1-.69-2.51-.75-4.38-.64-11.81,1.03-18.62,2.2-10.06,1.73-13.9,2.68-19.18,2.44-6.37-.29-10.59-2.07-16.46-2.59-1.84-.17-3.31-.21-5.16-.1-2.52.15-1.77.55-3.97.97-6.42,1.24-14.48,1.28-19,1.38-5.79.12-12.72.11-20.38-.39-4.16-.27-9.12-.56-11.96-1.26-1.85-.45-3.56-.66-4.92-.84"/>
  <path class="cls-1" d="m136.48,56.19s29.15,7.46,0,14.92"/>
  <path class="cls-3" d="m119.87,85.9c-.15-.02-.3-.04-.44-.06-1.14-.16-2.45-.38-4.24-.79-1.05-.24-2.99-.98-5.09-1.44-2.7-.59-3.87-.5-5.38-.59-1.92-.11-2.39-.49-5.22-.9-1.92-.29-6.32,1-11.25,1-2.15,0-4.09,1.3-10.36,1.9,5.88.17,9.43-.6,10.47-.43,3.86.65,9.95,1.92,12.7,2.11,3.26.23,5.83.4,9.51,1.09,7.96,1.5,10.57,4.99,20.31,6.8.46.08.82.08,1.22.07,1.62-.01,1.87-.56,3.34-.73.85-.09,1.89-.17,3.29-.12,1.02.04,3.39.09,4.8.09.69,0,1.82-.05,2.68-.21,1.54-.29,1.87,1.13.91,1.67-.52.29-1.6.79-2.53,1.01-.52.13-2.68.41-3.19.44-.38.02-.02.32-.04.34.44.45,1.3,1.09,2.18,1,1.3-.15,3.39-.1,3.81-.27,1.34-.57,2.73-1.05,3.74-1.3.41-.11.69-.59,1.18-.87.64-.37,1.16-.44,1.49-.4.94.08.96.8.49,1.23-1.16,1.05-.91,1.29-1.87,2.04-1.69,1.32-3.89,2.74-4.11,2.85-1.17.59-1.58.77-3.4,1.06-1.47.23-2.54.8-3.51.73-5.54-.4-10.96-1.83-12.51-2.07-6.43-1.03-15.01.14-22.18-1.01-4.14-.66-6.61-2.43-9.45-2.82-6.12-.86-7.57.16-16.26-.33-5.84-.34-8.32-1.17-11.61-1.07-.65.01-2.81.38-3.58.36-6.79-.21-9.62-3.07-11.23-8.81-.66-2.32-2.21-4.76-3.53-7.4-2.55-5.1-3.01-7.52-4.65-8.56-.43-.28-1.48-.48-2.61-.54"/>
  <path class="cls-3" d="m43.75,57.02c1.13-.05,2.18-.26,2.61-.53,1.64-1.04,2.1-3.46,4.65-8.57,1.32-2.63,2.87-5.07,3.53-7.4,1.61-5.74,4.44-8.59,11.23-8.8.77-.03,2.93.34,3.58.36,3.29.1,5.77-.74,11.61-1.07,8.69-.49,10.14.52,16.26-.33,2.84-.4,5.31-2.17,9.45-2.83,7.17-1.14,15.75.03,22.18-1,1.55-.25,6.97-1.67,12.51-2.08.97-.07,2.04.51,3.51.74,1.82.28,2.23.46,3.4,1.05.22.11,2.42,1.54,4.11,2.86.96.75.71.99,1.87,2.04.47.42.45,1.14-.49,1.23-.34.03-.85-.03-1.49-.4-.49-.29-.77-.77-1.18-.87-1.01-.26-2.4-.74-3.74-1.3-.42-.18-2.51-.13-3.81-.27-.88-.1-1.74.54-2.18.99.02.02-.34.33.04.35.51.03,2.67.31,3.19.43.93.23,2.01.72,2.53,1.02.96.53.63,1.96-.91,1.67-.86-.16-1.99-.21-2.68-.21-1.41,0-3.78.05-4.8.09-1.4.05-2.44-.03-3.3-.13-1.46-.17-1.71-.71-3.33-.73-.4,0-.76,0-1.22.08-4.98.92-8.09,2.29-11.01,3.6-2.8,1.25-5.41,2.46-9.3,3.2-3.68.69-6.25.86-9.51,1.08-2.75.2-8.84,1.46-12.7,2.11-1.04.17-4.59-.6-10.47-.42,6.27.6,8.21,1.89,10.36,1.89,4.93,0,9.33,1.29,11.25,1.01,2.83-.42,3.3-.8,5.22-.91,1.51-.08,2.68.01,5.38-.59,2.1-.46,4.04-1.2,5.09-1.44,1.79-.4,3.1-.62,4.24-.78.14-.02.29-.04.44-.06"/>
  <rect class="cls-4" x="-1551.14" y="-514.74" width="6467.34" height="6437.3"/>
</svg>