<?xml version="1.0" encoding="UTF-8"?>
<svg id="Calque_1" data-name="Calque 1" xmlns="http://www.w3.org/2000/svg" viewBox="0 0 200 128">
  <defs>
    <style>
      .cls-1, .cls-2, .cls-3, .cls-4, .cls-5, .cls-6, .cls-7, .cls-8, .cls-9, .cls-10, .cls-11, .cls-12, .cls-13, .cls-14, .cls-15, .cls-16, .cls-17 {
        stroke: #000;
      }

      .cls-1, .cls-2, .cls-3, .cls-4, .cls-5, .cls-6, .cls-8, .cls-18, .cls-16 {
        stroke-linecap: round;
      }

      .cls-1, .cls-2, .cls-3, .cls-4, .cls-5, .cls-6, .cls-18, .cls-16 {
        stroke-linejoin: round;
      }

      .cls-1, .cls-17 {
        fill: #76ac75;
      }

      .cls-2, .cls-15 {
        fill: #baa584;
      }

      .cls-3 {
        fill: #a07637;
      }

      .cls-4 {
        fill: #b4eac3;
      }

      .cls-5, .cls-12 {
        fill: #fff;
      }

      .cls-6, .cls-18, .cls-16 {
        fill: none;
      }

      .cls-7, .cls-8, .cls-9, .cls-10, .cls-11, .cls-12, .cls-13, .cls-14, .cls-15, .cls-17 {
        stroke-miterlimit: 10;
      }

      .cls-19, .cls-14 {
        fill: #d6d6d6;
      }

      .cls-8, .cls-11 {
        fill: #fee4cb;
      }

      .cls-9 {
        fill: #f3d587;
      }

      .cls-9, .cls-10 {
        stroke-width: .5px;
      }

      .cls-10 {
        fill: #fab0b4;
      }

      .cls-13 {
        fill: #ffd4ad;
      }

      .cls-18 {
        stroke: #fff;
        stroke-width: 8px;
      }

      .cls-16 {
        stroke-dasharray: 0 0 1 3.01;
      }

      .cls-17 {
        stroke-width: .75px;
      }
    </style>
  </defs>
  <polygon class="cls-14" points="110.71 125.14 198.1 125.14 198.1 69.67 110.71 125.14"/>
  <polygon class="cls-14" points="64.3 2.73 198.1 2.73 198.1 69.67 110.71 125.14 1.9 125.14 1.9 2.73 64.3 2.73"/>
  <polygon class="cls-7" points="118.59 125.14 198.1 125.14 198.1 75.26 118.59 125.14"/>
  <polygon class="cls-13" points="25.54 80.91 62.81 108.23 66.7 108.23 75.19 116.03 86.18 122.96 113.84 105.52 119.22 100.12 123.57 99.39 151.61 81.72 157.7 75.31 165.78 72.79 182.48 62.26 172.3 55.85 169.17 50.42 162.07 49.4 121.84 20.21 25.54 80.91"/>
  <line class="cls-11" x1="66.7" y1="108.23" x2="80.68" y2="99.98"/>
  <line class="cls-11" x1="104.01" y1="81.74" x2="100.57" y2="77.28"/>
  <line class="cls-11" x1="169.17" y1="50.42" x2="162.07" y2="55.34"/>
  <path class="cls-1" d="m100.53,41.36c-.02-.94-.02-1.87-.01-2.81-.49-3.47-.55-7.03-.56-10.2-.01-4.99-.4-15.1.5-20.1-4.97-1.78-16.13,1.27-20.87,3.09-16.76,6.44-26.54,24.64-29.93,31.74-3.63,7.61-6.53,19.49-7.73,27.77,2.17,3.55,5.91.2,9.66.79,3.93.62,10.96,3.59,14.41,5.53,6.36,3.59,12.77,7.55,18.55,12.03,2.28,1.77,6.75,8.3,8.92,11.13.91,1.19,3.22,3.9,5.04,3.24,2.24-.81,3.06-5.25,3.89-7.29,1.21-2.96,1.67-6.16,1.79-9.34.3-7.44-.82-14.98-1.67-22.36-.89-7.72-1.83-15.46-2-23.24Z"/>
  <path class="cls-1" d="m98.91,30.5c-.36-4.98-1.48-17.92-2.38-22.91,5.14,0,11.58.56,16.47,1.95,27.25,7.75,32.85,26.44,36.23,33.55,3.63,7.61,7.79,25.11,7.81,26.11-1.76,2.84-7.47,1.07-11.02,2.05-3.83,1.06-9.68,3.98-13.13,5.93-6.36,3.59-15.79,8.91-21.57,13.39-2.28,1.77-7.67,13.01-12.81,13.01.2-1.68.02-5.87-.53-9.1-.54-3.15-.71-19.6.14-26.97.89-7.72,1.3-29.81.78-37.01Z"/>
  <path class="cls-4" d="m43.03,64.65c1.89.31,9.95.79,15.86,2.57,5.19,1.56,9.49,3.64,14.24,6.24,4.92,2.69,9.58,6.08,13.75,9.52,4.06,3.35,7.28,6.82,10.98,10.54.03-2.27,0-4.15-.26-6.13-7.22-8.23-17.09-15.79-27.15-20.33-8.93-4.03-16.73-5.76-26.39-7.08-.25,1.31-.75,3.01-1.03,4.66Z"/>
  <path class="cls-4" d="m155.81,63.67c-.68.11-2.51.65-4.86,1.02-4.2.66-10.04,1.39-13.83,2.54-5.19,1.56-9.49,3.64-14.24,6.24-4.92,2.69-9.58,6.08-13.75,9.52-4.06,3.35-7.56,6.82-11.26,10.54-.03-2.27-.2-4.46-.26-6.13,7.22-8.23,17.89-15.79,27.96-20.33,7.52-3.4,16.5-5.59,24.8-7.08,1.55-.28,2.85-.73,4.23-1.02.25,1.31.94,3.04,1.23,4.7Z"/>
  <path class="cls-4" d="m109.35,66.15c.93,8.3.79,16.1,2.21,24.33,4.24-3.13,11.16-7.35,18.47-11.35,3.27-1.79,11.13-6.43,13.12-6.89-.5-1.91-2.87-14.44-5.28-20.86-2.37-6.32-4.67-11.13-10.25-13.34-5.85-2.31-12.76,1.1-16.03,6.3-4,6.37-3.03,14.74-2.23,21.81Z"/>
  <g>
    <path class="cls-19" d="m165.57,68.53c-.3,0-.57-.15-.71-.4-4.08-7-10.37-19.81-11.45-22.45-.66-1.59-1.16-2.4-1.73-3.32-.47-.75-.95-1.53-1.57-2.81-.11-.23-.1-.48.04-.69.15-.24.43-.39.72-.39s.55.16.67.42c.44.93.99,1.84,1.69,3,.95,1.56,2.12,3.49,3.54,6.35,1.26,2.53,2.95,5.83,4.65,9.16,1.8,3.52,3.66,7.16,5,9.87.14.28.12.58-.03.83-.17.27-.49.45-.81.45h0Z"/>
    <path d="m150.86,38.96c.09,0,.17.04.22.13,1.05,2.23,2.79,4.4,5.24,9.35,2.6,5.25,7.06,13.78,9.65,19.03.15.31-.14.56-.4.56-.11,0-.22-.05-.28-.16-3.97-6.81-10.29-19.64-11.42-22.39-1.21-2.93-1.94-3.32-3.31-6.16-.09-.2.12-.37.31-.37m0-1c-.46,0-.9.24-1.15.63-.22.36-.25.8-.06,1.18.63,1.3,1.14,2.13,1.6,2.86.56.91,1.05,1.7,1.69,3.25,1.1,2.65,7.4,15.5,11.48,22.51.24.41.67.65,1.15.65s.98-.26,1.24-.68c.25-.4.27-.89.06-1.32-1.35-2.73-3.21-6.38-5.02-9.91-1.66-3.25-3.38-6.6-4.63-9.13-1.43-2.88-2.61-4.83-3.56-6.39-.69-1.14-1.24-2.04-1.67-2.95-.2-.43-.63-.7-1.12-.7h0Z"/>
  </g>
  <g>
    <path class="cls-19" d="m92.68,107.59c-.26,0-.51-.1-.68-.29-.16-.17-.25-.39-.25-.62.36-15.62,1.59-29.51,3.77-42.46.04-.25.24-.54.96-.54.23,0,.46.03.69.08.25.06.42.31.38.57-.62,3.68-1.37,13.14-2.09,22.28-.76,9.63-1.48,18.73-2,20.42-.1.34-.41.55-.77.55h0Z"/>
    <path d="m96.48,64.18c.17,0,.37.02.57.07-1.27,7.58-3.09,39.44-4.08,42.64-.04.14-.16.2-.29.2-.21,0-.43-.15-.43-.4.33-14.23,1.4-28.35,3.76-42.39.01-.07.2-.12.47-.12m0-1c-1.17,0-1.41.67-1.45.95-2.18,12.97-3.41,26.88-3.77,42.53,0,.37.13.72.39.98.27.28.65.44,1.04.44.59,0,1.08-.35,1.25-.9.5-1.62,1.1-8.84,2.03-20.53.72-9.13,1.47-18.58,2.08-22.24.09-.52-.24-1.01-.75-1.14-.27-.06-.54-.1-.81-.1h0Z"/>
  </g>
  <g>
    <path class="cls-19" d="m35.73,72.47c-.26,0-.5-.11-.64-.31-.12-.16-.23-.45-.09-.9l.6-1.91c3.25-10.26,6.6-20.88,11.95-30,.09-.16.26-.25.43-.25.08,0,.16.02.24.06.39.21.92.52,1.15.65.12.07.21.19.23.33.03.14,0,.28-.09.4-2.89,3.91-7.72,17.91-10.32,25.42-1.22,3.53-1.77,5.11-1.98,5.44-.43.67-.99,1.06-1.49,1.06Z"/>
    <path d="m47.98,39.61c.39.21.91.51,1.13.64-4.06,5.49-11.64,29.84-12.32,30.89-.37.57-.79.83-1.07.83-.24,0-.37-.2-.25-.56,3.38-10.65,6.85-22.16,12.51-31.8m0-1c-.34,0-.68.18-.86.49-5.38,9.17-8.74,19.81-12,30.1l-.6,1.91c-.22.68,0,1.13.16,1.34.24.33.62.52,1.04.52.67,0,1.39-.48,1.91-1.29.23-.36.59-1.37,2.03-5.54,2.59-7.49,7.41-21.45,10.25-25.29.17-.23.23-.52.18-.79-.06-.28-.23-.52-.47-.66-.23-.13-.77-.44-1.16-.66-.15-.08-.31-.12-.48-.12h0Z"/>
  </g>
  <path class="cls-3" d="m98.06,5.13s1.43,1.5,1.39,3.52c-.04,2.02-41.16,14.43-41.16,14.43,0,0,14.87-15.34,39.77-17.95Z"/>
  <path class="cls-3" d="m96.53,5.28s2.41,1.34,2.92,3.37c.51,2.02,55.14,35.38,55.14,35.38,0,0-9.44-19.45-20.46-28.24C116.37,1.62,99.65,5.12,96.53,5.28Z"/>
  <path class="cls-3" d="m71.98,53.17c4,2.02,20.88,13.22,24.55,16.5,2.15-9.73,5.9-21.64,6.48-31.6.92-15.84-3.44-29.52-3.56-29.42-21.83-1.46-47.45,12.08-53.62,33.76,3.84.68,18.01,6.64,26.15,10.77Z"/>
  <path class="cls-2" d="m96.53,69.67c6.29-8.63,12.1-18.84,27.42-24.96,12.41-4.96,20.35-3.23,30.64-.68-14.81-26.24-31.94-34.57-55.14-35.38-.09,1.99-.05,7.6,0,9.78.14,6.32,0,13.61-.01,20.07-.02,10.42-1.47,20.86-2.91,31.18Z"/>
  <polygon class="cls-5" points="35.62 74.64 48.79 67.06 48.79 78.81 35.62 86.4 35.62 74.64"/>
  <polygon class="cls-5" points="48.79 78.81 61.96 86.42 61.96 74.66 48.79 67.06 48.79 78.81"/>
  <polygon class="cls-3" points="35.62 86.4 48.79 94 48.79 82.25 35.62 74.64 35.62 86.4"/>
  <polygon class="cls-2" points="61.96 86.4 48.79 94 48.79 82.25 61.96 74.64 61.96 86.4"/>
  <polygon class="cls-3" points="35.62 74.64 48.79 67.06 61.96 74.64 48.79 82.25 35.62 74.64"/>
  <polygon class="cls-6" points="42.26 70.85 42.92 70.49 56.1 78.08 55.43 78.45 42.26 70.85"/>
  <path class="cls-15" d="m65.19,71.06c-.07-.55-1.13-4.1.57-6.02,1.7-1.93,2.75.72,2.75.72,0,0,1.94-2.17,3.4,0,1.46,2.17.82,3.07.82,3.07,0,0,2,.04,1.62,2.22-.37,2.18-2.45,3.55-2.45,3.55,0,0-6.49-1.77-6.72-3.55Z"/>
  <path class="cls-15" d="m78.33,79.64c-1.04-1.79-2.18-2.24-3.11-4.09-1-1.99-1.83-3.57-3.02-4.56-2.09-1.75-4.23-1.59-6.53-1.02-.13.03-.27.07-.4.1-2.34.62-3.72,2.61-4.58,4.75-.75,1.86-1.14,3.78-1.88,5.54-5.36,1.8-6.32,5.55-6.9,9.08-.06.35-.13.75-.19,1.17-.16,1.06-.25,2.24.11,3.13.51,1.26,2.28,2.22,3.36,2.89.99.61,4.52,2.27,6.04,1.4,2.97,1.63,6.73,2.48,9.86,1.02,2.17-1.01,4.57-2.8,6.01-4.96,1.47-1.3,2.53-3.13,3.06-4.96.99-3.43-.09-6.51-1.82-9.48Z"/>
  <path class="cls-12" d="m155.81,81.42c0,2.88-4.15,5.21-9.27,5.21s-9.27-2.33-9.27-5.21,4.15-5.22,9.27-5.22,9.27,2.33,9.27,5.22Z"/>
  <path class="cls-17" d="m145.89,75.26l-2.45,1.94s3.01,2.85,3.29,3.81c2.04-.59,5.2.5,5.2.5l2.57-2.67s-2.92-.86-5.79.09c-.83-1.75-2.83-3.67-2.83-3.67Z"/>
  <path class="cls-9" d="m148.17,83.42c-.62-.38-2.54.02-2,1.09.3.6,1.56.5,2.02.19.52-.36.58-.91-.02-1.28Z"/>
  <path class="cls-9" d="m145.3,83.42c-.62-.38-2.54.02-2,1.09.3.6,1.56.5,2.02.19.52-.36.58-.91-.02-1.28Z"/>
  <path class="cls-10" d="m146.29,84.37c-.51-.31-2.1.02-1.65.9.25.5,1.29.42,1.67.16.43-.3.48-.75-.02-1.06Z"/>
  <g>
    <path class="cls-6" d="m138.72,74.02c-.03-.11-.07-.27-.11-.48"/>
    <path class="cls-16" d="m137.98,70.6c-.71-3.29-1.8-8.07-2.9-11.01-1.64-4.37-3.23-7.7-7.09-9.23-4.04-1.6-8.83.76-11.09,4.36-2.76,4.41-2.09,10.2-1.54,15.09.57,5.07.56,9.87,1.22,14.84"/>
    <path class="cls-6" d="m116.79,86.14c.03.16.05.33.08.49"/>
  </g>
  <path class="cls-11" d="m139.36,96.14c-.24-1.74-2.78-10.78-3.15-12.03-3.59,1.87-12.68,6.8-13.55,7.3.86,3.91,2.36,8.19,3.27,12.47,2.23-1.22,10.79-6.22,13.42-7.74Z"/>
  <path class="cls-8" d="m136.55,93.27c-2.53,1.32-8.94,4.8-9.55,5.15"/>
  <path class="cls-8" d="m135.78,89.59c-2.53,1.32-8.94,4.8-9.55,5.15"/>
  <rect class="cls-18" x="-804.41" y="-998.25" width="2244.45" height="5948.74"/>
</svg>