<?xml version="1.0" encoding="UTF-8"?>
<svg id="Calque_1" data-name="Calque 1" xmlns="http://www.w3.org/2000/svg" viewBox="0 0 128 128">
  <defs>
    <style>
      .cls-1, .cls-2 {
        fill: #87f3b9;
      }

      .cls-2 {
        stroke: #000;
        stroke-width: 2px;
      }

      .cls-2, .cls-3 {
        stroke-linecap: round;
        stroke-linejoin: round;
      }

      .cls-3 {
        fill: none;
        stroke: #fff;
        stroke-width: 8px;
      }
    </style>
  </defs>
  <g>
    <g>
      <path class="cls-1" d="m64.06,26.8c-6.25,0-11.34-5.09-11.34-11.34s5.09-11.34,11.34-11.34,11.34,5.09,11.34,11.34-5.08,11.34-11.34,11.34Z"/>
      <path d="m64.06,5.13c5.7,0,10.34,4.64,10.34,10.34s-4.64,10.34-10.34,10.34-10.34-4.64-10.34-10.34,4.64-10.34,10.34-10.34m0-2c-6.81,0-12.34,5.52-12.34,12.34s5.52,12.34,12.34,12.34,12.34-5.52,12.34-12.34-5.52-12.34-12.34-12.34h0Z"/>
    </g>
    <path class="cls-2" d="m41.3,72.53s.46,3.26,3.39,3.17c.14.02.27.02.41.02,2.02-.09,3.58-1.81,3.51-3.83,0,0-.03-.65-.06-1.78-.02-1.12-.03-2.73.06-4.63.09-1.9.29-4.1.67-6.38.38-2.28.96-4.65,1.79-6.83.46-1.25,1-2.41,1.61-3.49l-.34,24.57c0,.38,0,.77.02,1.15l1.87,46.29c.11,2.17,1.85,3.96,4.07,4.07,2.37.11,4.36-1.72,4.46-4.07l1.37-37.43,1.4,37.43c.11,2.17,1.87,3.96,4.08,4.07,2.35.11,4.34-1.72,4.46-4.07l1.81-46.43c.02-.4.02-.79.01-1.19l-.41-24.14c.55,1.02,1.05,2.1,1.47,3.23.82,2.19,1.4,4.55,1.78,6.83.38,2.28.58,4.48.67,6.38.09,1.9.08,3.51.06,4.63-.02,1.12-.05,1.78-.05,1.78-.08,1.88,1.31,3.58,3.23,3.8,1.48.17,2.88-.76,3.53-2.1l.54-1.11s.08-.68.21-1.91c.12-1.23.27-2.98.35-5.12.08-2.13.08-4.65-.14-7.36-.23-2.73-.68-5.68-1.5-8.61-.83-2.93-2.05-5.86-3.66-8.44-.8-1.29-1.69-2.51-2.64-3.58-.94-1.08-1.94-2.03-2.95-2.84-1.99-1.64-3.95-2.69-5.45-3.31-.76-.32-1.4-.53-1.91-.67-3.02-.84-6.47-.71-9.35-.17-.23.05-.44.09-.7.17-.52.14-1.15.35-1.91.67-1.5.62-3.46,1.67-5.45,3.31-1,.8-2,1.76-2.94,2.84-.94,1.08-1.84,2.29-2.64,3.58-1.61,2.58-2.82,5.51-3.64,8.44-.84,2.93-1.29,5.88-1.5,8.61-.23,2.72-.23,5.24-.15,7.36.08,2.14.23,3.89.35,5.12.14,1.23.23,1.91.23,1.91v.05"/>
  </g>
  <rect class="cls-3" x="-835.05" y="-52.97" width="1656.38" height="875.1"/>
</svg>