<?xml version="1.0" encoding="UTF-8"?>
<svg id="Calque_1" data-name="Calque 1" xmlns="http://www.w3.org/2000/svg" viewBox="0 0 128.13 128">
  <defs>
    <style>
      .cls-1 {
        fill: #d6d6d6;
      }

      .cls-1, .cls-2, .cls-3 {
        stroke: #000;
      }

      .cls-1, .cls-2, .cls-3, .cls-4 {
        stroke-linecap: round;
        stroke-linejoin: round;
      }

      .cls-5 {
        fill: #f6e7d4;
      }

      .cls-6, .cls-2 {
        fill: #fff;
      }

      .cls-7 {
        fill: #546885;
      }

      .cls-2, .cls-3 {
        stroke-width: 2px;
      }

      .cls-3, .cls-4 {
        fill: none;
      }

      .cls-4 {
        stroke: #fff;
        stroke-width: 8px;
      }
    </style>
  </defs>
  <g id="jkvMcz">
    <path class="cls-3" d="m102.08,69.75c-2.62,3.68-4.38,8.33-2.9,13.72.64,2.34,2.37,4.02,3.95,5.75.92,1.01,1.4,2.07,1.31,3.47-.29,4.27-.55,8.54-.75,12.81-.18,3.79-.15,7.59.33,11.37.09.7.26,1.39.48,2.06.45,1.39,1.06,1.83,2.37,1.82,1.33,0,1.91-.45,2.37-1.83.37-1.11.49-2.26.57-3.42.48-6.71-.31-13.36-.84-20.03-.09-1.09-.14-2.18-.25-3.27-.12-1.11.31-1.98,1.01-2.81.95-1.13,1.92-2.26,2.76-3.47,2.09-3.01,2.12-6.32,1.21-9.72-.71-2.67-1.76-5.18-3.77-7.17-2.35-2.33-4.94-2.28-7.84.7Z"/>
  </g>
  <g>
    <circle class="cls-2" cx="64.9" cy="94.08" r="30.08"/>
    <circle class="cls-2" cx="64.9" cy="94.08" r="24.56"/>
  </g>
  <g>
    <path class="cls-3" d="m19.41,67.21s-.06.11-.06.17c-.07.95-.14,1.91-.21,2.86-.08,1.01-.16,2.02-.23,3.02-.06.85-.12,1.7-.18,2.55-.07,1.01-.16,2.02-.23,3.02-.05.69-.08,1.37-.14,2.06-.07.75.07,1.45.36,2.13.33.76.82,1.4,1.5,1.88.81.58,1.35,1.32,1.55,2.3.11.53.08,1.07.05,1.61-.03.61-.02,1.22-.06,1.84-.04.78-.03,1.57-.06,2.35-.05,1.49-.09,2.97-.13,4.46-.02.94-.05,1.87-.08,2.81-.04,1.47-.09,2.94-.12,4.42-.03.94-.05,1.88-.08,2.83-.04,1.47-.09,2.93-.12,4.4-.03.96-.06,1.93-.08,2.89-.03,1.29-.09,2.57-.11,3.86-.02,1.31.99,2.4,2.27,2.51,1.28.11,2.45-.79,2.65-2.1.09-.62.02-1.25,0-1.88-.01-.49-.05-.99-.06-1.48-.04-1.22-.06-2.44-.1-3.65-.05-1.77-.11-3.55-.16-5.32-.04-1.3-.08-2.6-.12-3.9-.04-1.36-.08-2.72-.13-4.09-.04-1.35-.08-2.7-.13-4.04-.04-1.33-.08-2.67-.13-4-.03-.91-.08-1.83-.08-2.74,0-1.19.49-2.16,1.46-2.86,1.06-.77,1.77-1.75,2.03-3.05.13-.63.05-1.26,0-1.89-.03-.51-.07-1.01-.11-1.52-.07-.93-.13-1.85-.2-2.78-.05-.68-.09-1.36-.14-2.04-.06-.93-.13-1.87-.2-2.8-.05-.67-.09-1.34-.13-2.02-.03-.49-.07-.97-.09-1.46-.01-.28-.15-.44-.41-.52-.41-.14-7.64,0-7.81.2Z"/>
    <g>
      <line class="cls-3" x1="24.95" y1="67.44" x2="24.95" y2="78.58"/>
      <line class="cls-3" x1="21.93" y1="67.44" x2="21.93" y2="78.58"/>
    </g>
  </g>
  <path class="cls-5" d="m64.12,44.15l-.11.14.11-.14Z"/>
  <path class="cls-5" d="m64.15,44.89l-.17.18.17-.18Z"/>
  <polygon class="cls-5" points="63.97 45.75 64.13 45.66 64.15 45.64 63.97 45.75"/>
  <path class="cls-5" d="m64.14,46.14l-.15.07.15-.07Z"/>
  <path class="cls-5" d="m64.17,46.49l-.22.04.22-.04Z"/>
  <circle class="cls-1" cx="64.06" cy="30.57" r="25.34"/>
  <circle class="cls-6" cx="64.06" cy="30.57" r="20.09"/>
  <path class="cls-7" d="m46.99,47.6c.2.2.41.4.62.59-.21-.19-.41-.39-.62-.59Z"/>
  <path class="cls-7" d="m47.6,48.19c.35.32.71.64,1.07.94-.37-.3-.72-.62-1.07-.94Z"/>
  <path class="cls-7" d="m48.68,49.13c.29.24.59.48.9.71-.3-.23-.6-.46-.9-.71Z"/>
  <path class="cls-7" d="m49.81,50.01c.31.22.62.44.94.65-.32-.21-.63-.43-.94-.65Z"/>
  <circle cx="63.8" cy="14.2" r="1.09"/>
  <path d="m56.06,17.37c-.52.3-1.19.12-1.5-.4-.3-.52-.12-1.19.4-1.49.52-.3,1.19-.12,1.49.4.3.52.12,1.19-.4,1.5Z"/>
  <path d="m50.39,23.04c-.3.52-.97.7-1.5.4-.52-.3-.7-.97-.4-1.5.3-.52.97-.7,1.5-.4.52.3.7.97.4,1.5Z"/>
  <circle cx="47.21" cy="30.79" r="1.09"/>
  <path d="m49.98,40.03c-.52.3-1.19.12-1.5-.4-.3-.52-.12-1.19.4-1.5.52-.3,1.19-.12,1.5.4.3.52.12,1.19-.4,1.5Z"/>
  <path d="m56.46,45.7c-.3.52-.97.7-1.49.4-.52-.3-.7-.97-.4-1.5.3-.52.97-.7,1.5-.4.52.3.7.97.4,1.5Z"/>
  <circle cx="63.8" cy="47.37" r="1.09"/>
  <path d="m72.64,46.1c-.52.3-1.19.12-1.5-.4-.3-.52-.12-1.19.4-1.5.52-.3,1.19-.12,1.49.4.3.52.12,1.19-.4,1.5Z"/>
  <path d="m79.11,39.63c-.3.52-.97.7-1.5.4-.52-.3-.7-.97-.4-1.5.3-.52.97-.7,1.5-.4.52.3.7.97.4,1.5Z"/>
  <circle cx="80.39" cy="30.79" r="1.09"/>
  <path d="m73.04,16.97c-.3.52-.97.7-1.49.4-.52-.3-.7-.97-.4-1.5.3-.52.97-.7,1.5-.4.52.3.7.97.4,1.49Z"/>
  <path d="m78.47,23.04c-.3.52-.97.7-1.49.4-.52-.3-.7-.97-.4-1.5.3-.52.97-.7,1.5-.4.52.3.7.97.4,1.49Z"/>
  <path d="m64.86,29.53v13.96c0,.36-.34.66-.77.66s-.77-.29-.77-.66v-13.96c0-.36.34-.66.77-.66s.77.29.77.66Z"/>
  <path d="m64.09,22.5c.54,0,.99.27.99.61v8.52c0,.34-.44.61-.99.61s-.99-.27-.99-.61v-8.52c0-.34.44-.61.99-.61Z"/>
  <path d="m66.24,30.85c0,.36-.09.69-.24.99-.24.47-.65.84-1.15,1.02-.24.09-.5.14-.77.14s-.53-.05-.77-.14c-.29-.11-.54-.28-.75-.49-.16-.16-.29-.34-.39-.53-.15-.29-.24-.63-.24-.99s.09-.69.24-.99c.24-.47.65-.84,1.14-1.02.24-.09.5-.14.77-.14s.53.05.77.14c.29.11.54.28.75.49.16.16.29.34.39.54.15.3.24.63.24.99Z"/>
  <rect class="cls-4" x="-1790.29" y="-368.22" width="3385.57" height="2571.67"/>
</svg>