<?xml version="1.0" encoding="UTF-8"?><svg id="Calque_1" xmlns="http://www.w3.org/2000/svg" viewBox="0 0 128 128.13"><defs><style>.cls-1{fill:#fff;}.cls-2{fill:none;stroke:#e30613;stroke-width:8px;}.cls-2,.cls-3{stroke-linecap:round;stroke-linejoin:round;}.cls-4{fill:#566985;}.cls-3{fill:#d6d7d7;stroke:#010101;}.cls-5{fill:#f7e7d5;}.cls-6{fill:#010101;}</style></defs><rect class="cls-2" x="-180.39" y="-838.28" width="2655.08" height="1511.77"/><path class="cls-5" d="m64.1,85.02l-.17.22.17-.22Z"/><path class="cls-5" d="m64.13,86.16l-.26.28.26-.28Z"/><path class="cls-5" d="m63.86,87.49l.25-.14.03-.03-.28.17Z"/><path class="cls-5" d="m64.12,88.09l-.23.11.23-.11Z"/><path class="cls-5" d="m64.17,88.63l-.33.06.33-.06Z"/><path class="cls-3" d="m64,103.17c21.57,0,39.06-17.51,39.06-39.11s-17.49-39.1-39.06-39.1-39.06,17.51-39.06,39.1,17.49,39.11,39.06,39.11h0Z"/><path class="cls-1" d="m64,95.07c17.11,0,30.97-13.88,30.97-31.01s-13.86-31.01-30.97-31.01-30.97,13.88-30.97,31.01,13.86,31.01,30.97,31.01Z"/><path class="cls-4" d="m37.68,90.34c.31.31.63.62.96.91-.33-.3-.63-.6-.96-.91Z"/><path class="cls-4" d="m38.63,91.26c.54.5,1.09.99,1.65,1.45-.57-.46-1.11-.96-1.65-1.45Z"/><path class="cls-4" d="m40.29,92.7c.45.37.91.74,1.39,1.1-.46-.35-.93-.71-1.39-1.1Z"/><path class="cls-6" d="m63.6,40.48c.93,0,1.68-.76,1.68-1.68s-.76-1.68-1.68-1.68-1.68.76-1.68,1.68.76,1.68,1.68,1.68Z"/><path class="cls-6" d="m51.67,43.69c-.8.46-1.84.18-2.32-.62-.46-.8-.18-1.84.61-2.3.8-.46,1.84-.18,2.3.62.46.8.18,1.84-.61,2.32l.02-.02Z"/><path class="cls-6" d="m42.92,52.44c-.46.8-1.49,1.08-2.32.62-.8-.46-1.08-1.49-.61-2.32.46-.8,1.49-1.08,2.32-.62.8.46,1.08,1.49.61,2.32Z"/><path class="cls-6" d="m38.02,66.09c.93,0,1.68-.76,1.68-1.68s-.76-1.68-1.68-1.68-1.68.76-1.68,1.68.76,1.68,1.68,1.68Z"/><path class="cls-6" d="m42.29,78.66c-.8.46-1.84.18-2.32-.62-.46-.8-.18-1.84.61-2.32.8-.46,1.84-.18,2.32.62.46.8.18,1.84-.61,2.32Z"/><path class="cls-6" d="m52.28,87.41c-.46.8-1.49,1.08-2.3.62-.8-.46-1.08-1.49-.61-2.32.46-.8,1.49-1.08,2.32-.62.8.46,1.08,1.49.61,2.32h-.02Z"/><path class="cls-6" d="m63.6,91.67c.93,0,1.68-.76,1.68-1.68s-.76-1.68-1.68-1.68-1.68.76-1.68,1.68.76,1.68,1.68,1.68Z"/><path class="cls-6" d="m77.23,88.03c-.8.46-1.84.18-2.32-.62-.46-.8-.18-1.84.61-2.32.8-.46,1.84-.18,2.3.62.46.8.18,1.84-.61,2.32h.02Z"/><path class="cls-6" d="m87.2,78.05c-.46.8-1.49,1.08-2.32.62-.8-.46-1.08-1.49-.61-2.32.46-.8,1.49-1.08,2.32-.62.8.46,1.08,1.49.61,2.32Z"/><path class="cls-6" d="m89.17,66.09c.93,0,1.68-.76,1.68-1.68s-.76-1.68-1.68-1.68-1.68.76-1.68,1.68.76,1.68,1.68,1.68Z"/><path class="cls-6" d="m77.84,43.08c-.46.8-1.49,1.08-2.3.62s-1.08-1.49-.61-2.32c.46-.8,1.49-1.08,2.32-.62.8.46,1.08,1.49.61,2.3l-.02.02h0Z"/><path class="cls-6" d="m86.22,52.44c-.46.8-1.49,1.08-2.3.62s-1.08-1.49-.61-2.32c.46-.8,1.49-1.08,2.32-.62.8.46,1.08,1.49.61,2.3l-.02.02h0Z"/><path class="cls-6" d="m65.23,62.46v21.55c0,.55-.53,1.01-1.19,1.01s-1.19-.45-1.19-1.01v-21.55c0-.55.53-1.01,1.19-1.01s1.19.45,1.19,1.01Z"/><path class="cls-6" d="m64.05,51.61c.83,0,1.53.42,1.53.94v13.15c0,.53-.68.94-1.53.94s-1.53-.42-1.53-.94v-13.15c0-.53.68-.94,1.53-.94Z"/><path class="cls-6" d="m67.36,64.5c0,.55-.13,1.06-.37,1.53-.37.73-1,1.29-1.77,1.58-.37.14-.77.22-1.19.22s-.81-.08-1.19-.22c-.45-.17-.83-.43-1.16-.76-.25-.25-.45-.53-.6-.81-.23-.45-.37-.98-.37-1.53s.13-1.06.37-1.53c.37-.73,1-1.29,1.76-1.58.37-.14.77-.22,1.19-.22s.81.08,1.19.22c.45.17.83.43,1.16.76.25.25.45.53.6.83.23.46.37.98.37,1.53l.02-.02h0Z"/><path d="m63.56,14.91c0,2.65-.98,4.11-2.71,4.11-1.52,0-2.55-1.43-2.58-4.01,0-2.61,1.13-4.05,2.71-4.05s2.58,1.46,2.58,3.95Zm-4.23.12c0,2.03.62,3.18,1.58,3.18,1.08,0,1.59-1.26,1.59-3.25s-.49-3.18-1.58-3.18c-.92,0-1.59,1.13-1.59,3.25Z"/><path d="m69.72,14.91c0,2.65-.98,4.11-2.71,4.11-1.52,0-2.55-1.43-2.58-4.01,0-2.61,1.13-4.05,2.71-4.05s2.58,1.46,2.58,3.95Zm-4.23.12c0,2.03.62,3.18,1.58,3.18,1.08,0,1.59-1.26,1.59-3.25s-.49-3.18-1.58-3.18c-.92,0-1.59,1.13-1.59,3.25Z"/><path d="m58.64,114.47c.3.19,1,.49,1.73.49,1.36,0,1.78-.86,1.76-1.51-.01-1.09-1-1.56-2.01-1.56h-.59v-.79h.59c.77,0,1.74-.4,1.74-1.32,0-.62-.4-1.18-1.37-1.18-.62,0-1.22.28-1.56.52l-.28-.77c.41-.3,1.2-.6,2.04-.6,1.54,0,2.23.91,2.23,1.86,0,.8-.48,1.49-1.44,1.83v.02c.96.19,1.74.91,1.74,2,0,1.25-.97,2.34-2.84,2.34-.88,0-1.64-.28-2.03-.53l.29-.82Z"/><path d="m69.72,111.7c0,2.65-.98,4.11-2.71,4.11-1.52,0-2.55-1.43-2.58-4.01,0-2.61,1.13-4.05,2.71-4.05s2.58,1.46,2.58,3.95Zm-4.23.12c0,2.03.62,3.18,1.58,3.18,1.08,0,1.59-1.26,1.59-3.25s-.49-3.18-1.58-3.18c-.92,0-1.59,1.13-1.59,3.25Z"/><path d="m82.65,111.98v-.65l.83-.8c1.99-1.89,2.89-2.9,2.9-4.08,0-.79-.38-1.52-1.55-1.52-.71,0-1.3.36-1.66.66l-.34-.74c.54-.46,1.31-.79,2.21-.79,1.68,0,2.39,1.15,2.39,2.27,0,1.44-1.04,2.6-2.69,4.19l-.62.58v.02h3.5v.88h-4.98Z"/><path d="m93.46,105.07h-2.97l-.3,2c.18-.02.35-.05.64-.05.6,0,1.2.13,1.68.42.61.35,1.12,1.02,1.12,2,0,1.52-1.21,2.66-2.9,2.66-.85,0-1.57-.24-1.94-.48l.26-.8c.32.19.96.43,1.67.43,1,0,1.85-.65,1.85-1.69-.01-1.01-.68-1.73-2.24-1.73-.44,0-.79.05-1.08.08l.5-3.74h3.73v.89Z"/><path d="m34.37,110.77c.3.19,1,.49,1.73.49,1.36,0,1.78-.86,1.76-1.51-.01-1.09-1-1.56-2.01-1.56h-.59v-.79h.59c.77,0,1.74-.4,1.74-1.32,0-.62-.4-1.18-1.37-1.18-.62,0-1.22.28-1.56.52l-.28-.77c.41-.3,1.2-.6,2.04-.6,1.54,0,2.23.91,2.23,1.86,0,.8-.48,1.49-1.44,1.83v.02c.96.19,1.74.91,1.74,2,0,1.25-.97,2.34-2.84,2.34-.88,0-1.64-.28-2.03-.53l.29-.82Z"/><path d="m44.93,105.07h-2.97l-.3,2c.18-.02.35-.05.64-.05.6,0,1.2.13,1.68.42.61.35,1.12,1.02,1.12,2,0,1.52-1.21,2.66-2.9,2.66-.85,0-1.57-.24-1.94-.48l.26-.8c.32.19.96.43,1.67.43,1,0,1.85-.65,1.85-1.69-.01-1.01-.68-1.73-2.24-1.73-.44,0-.79.05-1.08.08l.5-3.74h3.73v.89Z"/><path d="m102.57,94.9v-.65l.83-.8c1.99-1.89,2.89-2.9,2.9-4.08,0-.79-.38-1.52-1.55-1.52-.71,0-1.3.36-1.66.66l-.34-.74c.54-.46,1.31-.79,2.21-.79,1.68,0,2.39,1.15,2.39,2.27,0,1.44-1.04,2.6-2.69,4.19l-.62.58v.02h3.5v.88h-4.98Z"/><path d="m113.91,90.92c0,2.65-.98,4.11-2.71,4.11-1.52,0-2.55-1.43-2.58-4.01,0-2.61,1.13-4.05,2.71-4.05s2.58,1.46,2.58,3.95Zm-4.23.12c0,2.03.62,3.18,1.58,3.18,1.08,0,1.59-1.26,1.59-3.25s-.49-3.18-1.58-3.18c-.92,0-1.59,1.13-1.59,3.25Z"/><path d="m17.46,94.9v-2.12h-3.62v-.7l3.48-4.98h1.14v4.85h1.09v.83h-1.09v2.12h-1Zm0-2.95v-2.6c0-.41.01-.82.04-1.22h-.04c-.24.46-.43.79-.65,1.15l-1.91,2.65v.02h2.55Z"/><path d="m25.54,90.92c0,2.65-.98,4.11-2.71,4.11-1.52,0-2.55-1.43-2.58-4.01,0-2.61,1.13-4.05,2.71-4.05s2.58,1.46,2.58,3.95Zm-4.23.12c0,2.03.62,3.18,1.58,3.18,1.08,0,1.59-1.26,1.59-3.25s-.49-3.18-1.58-3.18c-.92,0-1.59,1.13-1.59,3.25Z"/><path d="m110.85,64.83h-.02l-1.36.73-.2-.8,1.7-.91h.9v7.8h-1.02v-6.81Z"/><path d="m119.37,64.74h-2.97l-.3,2c.18-.02.35-.05.64-.05.6,0,1.2.13,1.68.42.61.35,1.12,1.02,1.12,2,0,1.52-1.21,2.66-2.9,2.66-.85,0-1.57-.24-1.94-.48l.26-.8c.32.19.96.43,1.67.43,1,0,1.85-.65,1.85-1.69-.01-1.01-.68-1.73-2.24-1.73-.44,0-.79.05-1.08.08l.5-3.74h3.73v.89Z"/><path d="m11.47,71.64v-2.12h-3.62v-.7l3.48-4.98h1.14v4.85h1.09v.83h-1.09v2.12h-1Zm0-2.95v-2.6c0-.41.01-.82.04-1.22h-.04c-.24.46-.43.79-.65,1.15l-1.91,2.65v.02h2.55Z"/><path d="m19.01,64.74h-2.97l-.3,2c.18-.02.35-.05.64-.05.6,0,1.2.13,1.68.42.61.35,1.12,1.02,1.12,2,0,1.52-1.21,2.66-2.9,2.66-.85,0-1.57-.24-1.94-.48l.26-.8c.32.19.96.43,1.67.43,1,0,1.85-.65,1.85-1.69-.01-1.01-.68-1.73-2.24-1.73-.44,0-.79.05-1.08.08l.5-3.74h3.73v.89Z"/><path d="m93.18,18.22h-2.97l-.3,2c.18-.02.35-.05.64-.05.6,0,1.2.13,1.68.42.61.35,1.12,1.02,1.12,2,0,1.52-1.21,2.66-2.9,2.66-.85,0-1.57-.24-1.94-.48l.26-.8c.32.19.96.43,1.67.43,1,0,1.85-.65,1.85-1.69-.01-1.01-.68-1.73-2.24-1.73-.44,0-.79.05-1.08.08l.5-3.74h3.73v.89Z"/><path d="m35.97,18.58h-2.97l-.3,2c.18-.02.35-.05.64-.05.6,0,1.2.13,1.68.42.61.35,1.12,1.02,1.12,2,0,1.52-1.21,2.66-2.9,2.66-.85,0-1.57-.24-1.94-.48l.26-.8c.32.19.96.43,1.67.43,1,0,1.85-.65,1.85-1.69-.01-1.01-.68-1.73-2.24-1.73-.44,0-.79.05-1.08.08l.5-3.74h3.73v.89Z"/><path d="m42.13,18.58h-2.97l-.3,2c.18-.02.35-.05.64-.05.6,0,1.2.13,1.68.42.61.35,1.12,1.02,1.12,2,0,1.52-1.21,2.66-2.9,2.66-.85,0-1.57-.24-1.94-.48l.26-.8c.32.19.96.43,1.67.43,1,0,1.85-.65,1.85-1.69-.01-1.01-.68-1.73-2.24-1.73-.44,0-.79.05-1.08.08l.5-3.74h3.73v.89Z"/><path d="m18.03,41.84h-2.97l-.3,2c.18-.02.35-.05.64-.05.6,0,1.2.13,1.68.42.61.35,1.12,1.02,1.12,2,0,1.52-1.21,2.66-2.9,2.66-.85,0-1.57-.24-1.94-.48l.26-.8c.32.19.96.43,1.67.43,1,0,1.85-.65,1.85-1.69-.01-1.01-.68-1.73-2.24-1.73-.44,0-.79.05-1.08.08l.5-3.74h3.73v.89Z"/><path d="m24.71,44.77c0,2.65-.98,4.11-2.71,4.11-1.52,0-2.55-1.43-2.58-4.01,0-2.61,1.13-4.05,2.71-4.05s2.58,1.46,2.58,3.95Zm-4.23.12c0,2.03.62,3.18,1.58,3.18,1.08,0,1.59-1.26,1.59-3.25s-.49-3.18-1.58-3.18c-.92,0-1.59,1.13-1.59,3.25Z"/><path d="m105.68,41.57h-.02l-1.36.73-.2-.8,1.7-.91h.9v7.8h-1.02v-6.81Z"/><path d="m114.73,44.4c0,2.65-.98,4.11-2.71,4.11-1.52,0-2.55-1.43-2.58-4.01,0-2.61,1.13-4.05,2.71-4.05s2.58,1.46,2.58,3.95Zm-4.23.12c0,2.03.62,3.18,1.58,3.18,1.08,0,1.59-1.26,1.59-3.25s-.49-3.18-1.58-3.18c-.92,0-1.59,1.13-1.59,3.25Z"/></svg>