<?xml version="1.0" encoding="UTF-8"?><svg id="Calque_1" xmlns="http://www.w3.org/2000/svg" viewBox="0 0 200.13 128.13"><defs><style>.cls-1,.cls-2,.cls-3,.cls-4,.cls-5,.cls-6,.cls-7,.cls-8,.cls-9,.cls-10,.cls-11,.cls-12,.cls-13{stroke-linecap:round;stroke-linejoin:round;}.cls-1,.cls-2,.cls-3,.cls-5,.cls-6,.cls-7,.cls-8,.cls-9,.cls-10,.cls-14,.cls-11,.cls-12,.cls-13{stroke:#000;}.cls-1,.cls-3{fill:#a07637;}.cls-1,.cls-6,.cls-9,.cls-10{stroke-width:2px;}.cls-2,.cls-10{fill:#ff6d75;}.cls-15{fill:#fafafa;}.cls-4{stroke:#e30613;stroke-width:8px;}.cls-4,.cls-7{fill:none;}.cls-5,.cls-6,.cls-8,.cls-14{fill:#fff;}.cls-8{stroke-width:.5px;}.cls-9{fill:#b2f0e9;}.cls-14{stroke-miterlimit:10;}.cls-11{fill:#fab0b4;}.cls-12{fill:#f3d587;}.cls-16{fill:#1a2e35;}.cls-13{fill:#d6d6d6;}</style></defs><rect class="cls-4" x="-1712.17" y="-642.28" width="2655.08" height="1511.77"/><polyline class="cls-15" points="8.64 95.81 14.77 97.01 116.74 95.76"/><path class="cls-5" d="m43.97,36.45c.78,2.77.93,5.71.41,8.54-.25,1.39-.65,2.76-1.21,4.06-.53,1.25-1.43,2.48-1.5,3.88-.06,1.3.82,2.22,1.89,2.82,1.01.57,2.32.92,2.99,1.94.74,1.13-.17,2.24-.86,3.13-.39.51-.75,1.02-1,1.62-.26.61-.41,1.26-.49,1.92-.4,3.28,1.19,6.6.2,9.84-.13.42.53.61.66.18.9-2.94-.26-5.91-.25-8.88,0-1.4.3-2.74,1.12-3.88.67-.93,1.64-1.88,1.57-3.12-.07-1.23-1.08-2.05-2.09-2.58-.99-.53-2.33-.91-2.88-1.99-.67-1.33.44-2.85.98-4.02.61-1.31,1.07-2.68,1.37-4.08.68-3.15.59-6.45-.29-9.55-.12-.43-.79-.24-.66.18h0Z"/><path class="cls-5" d="m43.97,36.45s-.04-.07,0-.22c.03-.07.09-.15.2-.19.1-.04.25-.05.37.04.12.1.13.28.19.44.05.17.1.36.14.56.1.41.2.88.29,1.41.17,1.07.3,2.4.24,3.94-.06,1.54-.3,3.29-.89,5.15-.3.92-.66,1.88-1.15,2.82-.24.47-.5.94-.7,1.45-.09.25-.17.52-.21.79-.04.27-.04.55.03.82.12.54.51,1,.98,1.33.48.33,1.03.57,1.58.83.55.26,1.1.56,1.57.99.47.42.87.98.97,1.64.11.66-.11,1.33-.46,1.89-.34.57-.79,1.07-1.17,1.61-.76,1.09-1.06,2.48-1.03,3.86,0,1.39.27,2.79.44,4.22.17,1.42.26,2.93-.15,4.37-.03.09-.04.17-.09.28-.05.1-.16.17-.26.19-.21.05-.46-.07-.51-.31-.02-.12.02-.22.04-.3l.07-.26c.05-.17.08-.35.11-.53.12-.71.14-1.44.1-2.15-.08-1.43-.36-2.83-.5-4.22-.13-1.39-.11-2.8.33-4.09.21-.65.56-1.23.96-1.76.39-.53.82-1.02,1.1-1.59.14-.28.23-.58.23-.89,0-.3-.09-.6-.26-.85-.33-.52-.85-.87-1.38-1.14-.53-.28-1.09-.5-1.61-.79-.52-.29-.99-.66-1.34-1.12-.35-.46-.56-1.03-.55-1.59,0-.56.15-1.1.34-1.59.39-.99.95-1.85,1.3-2.75.73-1.79,1.1-3.52,1.27-5.04.17-1.53.14-2.86.03-3.93-.1-1.08-.27-1.9-.39-2.46-.06-.28-.12-.49-.15-.63-.04-.14-.05-.22-.05-.22,0,0,.1.28.23.84.13.55.31,1.38.42,2.46.11,1.08.15,2.41,0,3.95-.17,1.53-.54,3.27-1.26,5.07-.35.91-.9,1.77-1.29,2.75-.19.49-.33,1.01-.32,1.55,0,.54.19,1.08.53,1.52.34.45.8.8,1.31,1.09.51.29,1.07.51,1.61.79.54.28,1.08.64,1.43,1.19.18.27.29.59.28.92,0,.33-.1.65-.24.94-.29.59-.72,1.09-1.11,1.61-.39.52-.73,1.09-.93,1.72-.43,1.26-.45,2.65-.32,4.03.14,1.38.42,2.78.5,4.22.04.72.02,1.46-.1,2.18-.03.18-.06.36-.11.54l-.07.27c-.02.1-.05.17-.04.24.02.14.2.23.34.2.07-.01.13-.06.17-.12.03-.06.05-.16.07-.25.4-1.42.32-2.9.14-4.32-.17-1.42-.43-2.83-.44-4.23-.02-1.39.28-2.82,1.06-3.94.39-.56.83-1.05,1.17-1.6.34-.55.55-1.18.44-1.8-.09-.62-.47-1.16-.93-1.56-.46-.41-1-.71-1.54-.97-.55-.26-1.1-.49-1.59-.84-.49-.34-.9-.82-1.03-1.41-.06-.29-.07-.58-.03-.86.05-.28.13-.55.22-.81.2-.52.46-.99.71-1.46.48-.93.85-1.88,1.15-2.8.59-1.84.84-3.59.91-5.12.07-1.53-.05-2.86-.21-3.93-.08-.53-.18-1.01-.27-1.41-.04-.2-.09-.39-.14-.56-.05-.17-.06-.34-.17-.43-.11-.09-.25-.08-.34-.05-.1.04-.16.11-.19.17-.05.14,0,.21-.02.21Z"/><path class="cls-5" d="m19.52,29.4h7.8c.45,0,.82.37.82.82v12.56c0,.45-.37.82-.82.82h-7.8c-.45,0-.82-.37-.82-.82v-12.56c0-.45.37-.82.82-.82Z"/><path class="cls-5" d="m27.32,43.6s.17.02.43-.14c.12-.08.26-.22.33-.43.04-.1.04-.22.04-.35,0-.13,0-.27,0-.41,0-1.17-.01-2.85-.02-4.92,0-1.04,0-2.17,0-3.39,0-.61,0-1.24,0-1.89,0-.33,0-.65,0-.99,0-.17,0-.34,0-.5,0-.17.01-.35-.01-.5-.06-.31-.33-.57-.66-.6-.34,0-.7,0-1.06,0-.72,0-1.45,0-2.2,0-1.49,0-3.04,0-4.62,0-.37,0-.7.29-.74.65-.01.37,0,.77,0,1.16,0,.77,0,1.53,0,2.28,0,1.49,0,2.93,0,4.31,0,1.37,0,2.68,0,3.9,0,.31,0,.6,0,.9-.03.29.08.56.29.73.1.08.23.14.35.16.12.02.27,0,.4.01.27,0,.54,0,.8,0,2.07,0,3.75.02,4.92.02.57,0,1.02.01,1.34.01.15,0,.26,0,.35,0,.08,0,.12,0,.12,0s-.04,0-.12,0c-.08,0-.2,0-.35,0-.31,0-.76,0-1.34.01-1.17,0-2.85.01-4.92.02-.26,0-.53,0-.8,0-.14,0-.27,0-.42-.01-.15-.02-.29-.08-.41-.18-.12-.09-.21-.22-.27-.36-.06-.14-.07-.31-.06-.45,0-.29,0-.59,0-.9,0-1.22,0-2.52,0-3.9,0-1.37,0-2.81,0-4.31,0-.75,0-1.51,0-2.28,0-.39,0-.77,0-1.17.05-.43.45-.78.88-.77,1.58,0,3.13,0,4.62,0,.75,0,1.48,0,2.2,0,.36,0,.71,0,1.07,0,.38.04.71.35.77.71.03.19.01.35.02.52,0,.17,0,.34,0,.5,0,.33,0,.66,0,.99,0,.65,0,1.28,0,1.89,0,1.22,0,2.36,0,3.39,0,2.07-.02,3.75-.02,4.92,0,.14,0,.28,0,.41,0,.13,0,.26-.04.36-.07.22-.22.36-.35.44-.13.08-.25.11-.33.12-.08,0-.12,0-.12,0Z"/><path d="m45.05,25.23c-.2.71-.68,1.66-1.09,1.66,0,0-.02,0-.03,0-.42-.04-.78-.36-1.01-.63-.36-.4-.87-.63-1.41-.63h-15.64c-.54,0-1.07.21-1.47.59-.45.42-.88.65-1.22.65-.51,0-.88-.6-1-1.01l-.74.23c.24.78.87,1.56,1.75,1.56.69,0,1.34-.47,1.76-.86.26-.24.59-.38.94-.38h15.64c.31,0,.62.14.83.37.46.52.99.83,1.51.88.04,0,.08,0,.11,0,1.19,0,1.77-2,1.84-2.23l-.75-.21h0Z"/><path d="m45.03,25.19v.04c-.09.27-.2.56-.34.84-.07.14-.15.28-.25.41-.09.13-.21.26-.35.34-.04.03-.09.04-.14.04-.11,0-.22-.04-.33-.09-.16-.07-.31-.18-.44-.3-.14-.12-.25-.27-.41-.4-.15-.13-.32-.24-.51-.32-.19-.08-.4-.13-.61-.15-.1,0-.21,0-.31,0-.07,0-.14,0-.21,0-.04,0-.08,0-.12,0-.43,0-.87,0-1.32,0-.9,0-1.85,0-2.83,0-1.98,0-4.11,0-6.37,0-1.13,0-2.29,0-3.47,0-.3,0-.59,0-.89,0-.05,0-.1,0-.14,0-.25,0-.52.02-.77.1-.3.09-.58.25-.81.46-.22.21-.45.4-.72.53-.15.08-.31.13-.47.14-.01,0-.02,0-.04,0-.14,0-.28-.06-.4-.15-.26-.2-.43-.5-.53-.81l-.02-.07-.07.02c-.25.08-.5.15-.74.23l-.07.02.02.07c.13.41.35.8.65,1.1.3.3.71.51,1.15.51h0c.43,0,.84-.17,1.18-.39.17-.11.34-.23.49-.37.15-.14.29-.27.46-.35.17-.08.35-.13.54-.14.19,0,.39,0,.58,0,.39,0,.77,0,1.15,0,.76,0,1.5,0,2.22,0,2.88,0,5.46-.01,7.62-.02,1.08,0,2.05,0,2.9-.01.43,0,.82,0,1.19,0h.01c.35,0,.65.18.84.4.41.45.83.67,1.14.76.21.06.35.07.42.07.03,0,.05,0,.05,0h0s-.04,0-.12-.01c-.08-.01-.2-.03-.34-.08-.29-.09-.71-.33-1.11-.77-.19-.23-.51-.43-.89-.43h0c-.36,0-.76,0-1.19,0-.85,0-1.83,0-2.9-.01-2.16,0-4.74,0-7.62-.02-.72,0-1.46,0-2.22,0-.38,0-.76,0-1.15,0-.19,0-.39,0-.59,0-.21,0-.41.06-.6.15-.19.09-.35.24-.49.37-.15.13-.31.25-.47.35-.33.21-.71.36-1.11.36h0c-.39,0-.77-.19-1.05-.47-.27-.27-.47-.61-.59-.98-.02,0-.05.01-.07.02l.05-.09s.01.05.02.07c.2-.06.4-.12.61-.19,0-.02-.02-.04-.02-.07l.09.05s-.04.01-.07.02c.11.31.28.6.56.81.13.1.31.18.49.18.01,0,.03,0,.04,0,.19-.01.37-.07.53-.16.28-.14.53-.35.75-.55.22-.2.48-.34.76-.43.24-.08.48-.1.73-.1.05,0,.1,0,.14,0,.3,0,.6,0,.89,0,1.18,0,2.34,0,3.47,0,2.26,0,4.4,0,6.37,0,.99,0,1.93,0,2.83,0,.45,0,.89,0,1.32,0,.02,0,.05,0,.07,0,.1,0,.21,0,.31,0,.08,0,.17,0,.25,0,.2.01.4.06.58.14.18.07.35.18.49.3.14.12.26.28.41.4.14.13.3.24.47.31.09.04.17.07.27.08.03,0,.06.01.09.01.07,0,.14-.02.19-.05.17-.09.28-.23.38-.37.1-.14.18-.28.25-.43.14-.28.24-.55.32-.82-.01,0-.02,0-.04,0l.05-.03s0,.02,0,.04c.24.06.47.13.68.18,0-.01,0-.02,0-.03l.02.04s-.02,0-.03,0c-.27.93-.68,1.6-1.08,1.92-.41.33-.73.26-.71.29h0s.07,0,.2-.01c.06-.01.15-.04.24-.07.09-.04.19-.1.3-.18.42-.32.85-1,1.13-1.96v-.03s-.02,0-.02,0c-.23-.07-.48-.14-.75-.21h-.03Z"/><line class="cls-13" x1="34.02" y1="20.22" x2="31.98" y2="20.22"/><path class="cls-13" d="m34.02,91.64v-8.56c-.02-9.33-.04-10.5-.07-62.86l.07.07h0c-.69,0-1.39,0-2.03,0l.07-.07c-.01,29.16-.02,21.64-.03,40.66-.03,19.02-.04,21.81-.04,22.2,0-.39-.02-3.16-.04-22.15,0-19.03-.02-11.53-.03-40.71v-.07s.07,0,.07,0c.64,0,1.33,0,2.03,0h.08v.07c-.03,52.36-.05,62.11-.06,71.44h0s-.01.01-.01.01"/><path class="cls-5" d="m33.56,26.2s-.15-.05-.13-.21c.03-.16.18-.2.18-.17.02.03-.04.1-.05.19-.02.09.02.17,0,.19Z"/><path class="cls-5" d="m31.98,31.51s-.07-1.77-.07-3.96.03-3.96.07-3.96.07,1.77.07,3.96-.03,3.96-.07,3.96Z"/><rect class="cls-2" x="19.69" y="35.47" width="7.45" height="7.04" rx="2.13" ry="2.13"/><path class="cls-5" d="m23.92,30.23c0,.29-.24.53-.53.53s-.53-.24-.53-.53.24-.53.53-.53.53.24.53.53Z"/><path class="cls-5" d="m40.21,29.4h7.8c.45,0,.82.37.82.82v12.56c0,.45-.37.82-.82.82h-7.8c-.45,0-.82-.37-.82-.82v-12.56c0-.45.37-.82.82-.82Z"/><path class="cls-5" d="m48.01,43.6s.17.02.43-.14c.12-.08.26-.22.33-.43.04-.1.04-.22.04-.35,0-.13,0-.27,0-.41,0-1.17-.01-2.85-.02-4.92,0-1.04,0-2.17,0-3.39,0-.61,0-1.24,0-1.89,0-.33,0-.65,0-.99,0-.17,0-.34,0-.5,0-.17.01-.35-.01-.5-.06-.31-.33-.57-.66-.6-.34,0-.7,0-1.06,0-.72,0-1.45,0-2.2,0-1.49,0-3.04,0-4.62,0-.37,0-.7.29-.74.65-.01.37,0,.77,0,1.16,0,.77,0,1.53,0,2.28,0,1.49,0,2.93,0,4.31,0,1.37,0,2.68,0,3.9,0,.31,0,.6,0,.9-.03.29.08.56.29.73.1.08.23.14.35.16.12.02.27,0,.4.01.27,0,.54,0,.8,0,2.07,0,3.75.02,4.92.02.57,0,1.02.01,1.34.01.15,0,.26,0,.35,0,.08,0,.12,0,.12,0s-.04,0-.12,0c-.08,0-.2,0-.35,0-.31,0-.76,0-1.34.01-1.17,0-2.85.01-4.92.02-.26,0-.53,0-.8,0-.14,0-.27,0-.42-.01-.15-.02-.29-.08-.41-.18-.12-.09-.21-.22-.27-.36-.06-.14-.07-.31-.06-.45,0-.29,0-.59,0-.9,0-1.22,0-2.52,0-3.9,0-1.37,0-2.81,0-4.31,0-.75,0-1.51,0-2.28,0-.39,0-.77,0-1.17.05-.43.45-.78.88-.77,1.58,0,3.13,0,4.62,0,.75,0,1.48,0,2.2,0,.36,0,.71,0,1.07,0,.38.04.71.35.77.71.03.19.01.35.02.52,0,.17,0,.34,0,.5,0,.33,0,.66,0,.99,0,.65,0,1.28,0,1.89,0,1.22,0,2.36,0,3.39,0,2.07-.02,3.75-.02,4.92,0,.14,0,.28,0,.41,0,.13,0,.26-.04.36-.07.22-.22.36-.35.44-.13.08-.25.11-.33.12-.08,0-.12,0-.12,0Z"/><rect class="cls-12" x="40.5" y="35.47" width="7.45" height="7.04" rx="2.13" ry="2.13"/><rect class="cls-5" x="42.03" y="37.53" width="4.72" height="1.47"/><path class="cls-5" d="m44.62,30.23c0,.29-.24.53-.53.53s-.53-.24-.53-.53.24-.53.53-.53.53.24.53.53Z"/><path class="cls-5" d="m8.74,85.91l35.8,1.19,1.97-3.4-.28-1.11c.37-.72-.51,4.24-1.2,3.89l-36.7-11.82c-.7-.35-1.56-.04-1.92.69l-.29,8.56h0c.36,1.16,1.41,1.96,2.62,2Z"/><path class="cls-5" d="m115.55,85.63H8.34c-1.07,0-1.93.58-1.93,1.29v4.2c0,.71.87,1.29,1.93,1.29h107.21c1.07,0,1.93-.58,1.93-1.29v-4.2c0-.71-.87-1.29-1.93-1.29Z"/><path class="cls-14" d="m19.24,69.96c-4.53-1.38-9.67-.57-13.56,2.12,3.88,4.05,8.38,7.16,13.84,8.44,1.66.39,3.37.64,5.07.49,1.7-.14,3.4-.69,4.73-1.75-1.74-4.4-5.56-7.93-10.09-9.31Z"/><path class="cls-16" d="m29.49,79.25s-.02.02-.05.04c-.04.03-.1.06-.16.1-.14.08-.34.23-.63.37-.55.31-1.41.68-2.51.96-1.11.28-2.47.43-3.98.35-1.5-.08-3.15-.38-4.79-.97-1.64-.58-3.12-1.34-4.41-2.12-1.29-.77-2.39-1.57-3.29-2.27-.9-.7-1.59-1.31-2.06-1.74-.24-.21-.41-.39-.53-.5-.05-.05-.1-.1-.14-.13-.03-.03-.04-.05-.04-.05s.02.01.05.04c.04.03.09.07.14.12.13.12.32.28.55.48.48.42,1.18,1.01,2.08,1.7.9.68,2,1.47,3.29,2.24,1.29.76,2.76,1.52,4.39,2.1,1.63.58,3.26.88,4.75.97,1.49.08,2.85-.06,3.94-.32,1.1-.27,1.95-.62,2.51-.91.29-.13.49-.27.64-.35.07-.04.12-.07.17-.09.04-.02.06-.03.06-.03Z"/><path class="cls-5" d="m13.78,65.95c-.06-.04-.11-.08-.17-.12-.3.24-.51.58-.59.95-.11.52.05,1.09.41,1.49-.3.36-.36.9-.15,1.32.21.42.69.69,1.16.66.03.38.21.79.56.96.33.16.8.01.9-.33.78.44,1.76.84,2.64,1.15.3.11.55.13.76.12.06-.15.16-.28.29-.36.2-.13.46-.16.7-.06.28.12.62.26.93.39h0c.75-.04-.34-1.19-3.44-2.9,0-.17-.07-.32-.2-.42-.11-.07-.26-.11-.31-.23-.06-.14.05-.3.13-.43.28-.47.17-1.13-.25-1.48.25-.04.38-.33.34-.58-.03-.25-.18-.46-.28-.69-.1-.23-.16-.51-.02-.72.07-.11.19-.19.24-.3,0,0,0-.02.01-.03.08-.23-.13-.46-.33-.6-.17-.12-.37-.24-.45-.42-.01-.03-.03-.07-.03-.11-.01-.13.04-.26.11-.37h0c.05-.12.12-.24.23-.36.03-.06.05-.13.06-.2.8-.36,1.68-.51,2.57-.43.01,0,.03,0,.04,0,.01,0,.02,0,.03,0h0s0,0,0,0c.37.04.73.11,1.09.24.21-.49.06-1.12-.37-1.44-.47-.36-1.2-.3-1.6.14-.18-.49-.7-.83-1.22-.81-.52.02-1.01.4-1.15.9-.47-.2-1.05-.13-1.46.18-.41.3-.65.84-.6,1.35-.68.31-1.08,1.13-.91,1.86-.29.41-.28,1.02.02,1.42.03.04.07.08.1.12m3.64-3.61"/><path class="cls-5" d="m20.76,62.08s-.04.1-.07.14l-3.25,2.14s0-.02.01-.03c.08-.23-.13-.46-.33-.6-.17-.12-.37-.24-.45-.42-.01-.03-.03-.07-.03-.11-.01-.13.04-.26.11-.37h0c.05-.12.12-.24.23-.36.03-.06.05-.13.06-.2.8-.36,1.68-.51,2.57-.43.01,0,.03,0,.04,0,.01,0,.02,0,.03,0h0s0,0,0,0c.37.04.73.11,1.09.24Z"/><path class="cls-5" d="m32.12,70.39l-5.68,4.24-4.34-1.8-2.1-.88-.42-.17c.2-.13.46-.16.7-.06.28.12.62.26.93.39h0c.75-.04-.34-1.19-3.44-2.9,0-.17-.07-.32-.2-.42-.11-.07-.26-.11-.31-.23-.06-.14.05-.3.13-.43.28-.47.17-1.13-.25-1.48.25-.04.38-.33.34-.58-.03-.25-.18-.46-.28-.69-.1-.23-.16-.51-.02-.72.07-.11.19-.19.24-.3,0,0,0-.02.01-.03.08-.23-.13-.46-.33-.6-.17-.12-.37-.24-.45-.42-.01-.03-.03-.07-.03-.11-.01-.13.04-.26.11-.37h0c.05-.12.12-.24.23-.36.03-.06.05-.13.06-.2.8-.36,1.68-.51,2.57-.43.01,0,.03,0,.04,0,.01,0,.02,0,.03,0h0s0,0,0,0c.37.04.73.11,1.09.24.05.01.11.04.16.05,2.31.86,4.86,1.85,6.05,2.42,2.46,1.19,1.69,3.85,1.69,3.85l3.47,1.99Z"/><path class="cls-8" d="m21.24,64.42c-.03-.16-.02-.41.09-.64.11-.24.29-.4.44-.47"/><path d="m23.09,63.82c-.11-.05-.24-.05-.35,0-.12.05-.22.15-.27.27-.1.25.01.54.25.64.08.04.18.05.26.03.03,0,.06-.02.09-.03.12-.05.22-.15.27-.27.1-.25-.01-.54-.25-.64Z"/><path d="m21.09,67.08c-.12.05-.22.15-.27.27-.1.25.01.54.25.64.08.04.18.05.26.03.03,0,.06-.02.09-.03.12-.05.22-.15.27-.27.1-.25-.01-.54-.25-.64-.11-.05-.24-.05-.36,0Z"/><path class="cls-8" d="m19.48,68.03c-.03-.16-.02-.41.09-.64.11-.24.29-.4.44-.47"/><path class="cls-8" d="m22.67,65.71c.3.03.6.05.87.07.13.01.28.01.41.13.06.06.08.16.07.23-.01.07-.03.13-.05.18-.16.4-.27.64-.29.63"/><path class="cls-5" d="m26.23,74.37s1.53-1.44,2.82-2.83c.72-.77,1-1.19,1.53-2.14l.55-.06,2.93-.4c1.83.03,4.44.95,5.93,1.27,1.5.33,4.87.89,6.7,1.19.83.14,1.65.33,2.46.57l6.76,2.01s.41.72.55,3.8c.14,3.07-4.24,7.22-4.24,7.22,0,0-5.65,1.1-7.02.41-1.18-.6-4.1-1.02-4.1-1.02,0,0-9.77-1.41-11.24-2.25-3.05-1.75-3.59-2.93-3.62-7.76Z"/><path class="cls-11" d="m115.93,78.48c-.11-.93-1.74-3.09-2.71-4.31-.43-.54-1.11-.83-1.8-.78l-8.36.69-22.49-1.44-25.56.29-6.24-1.46-7.37,12.45,4.61,2.17,70.18-.65c.04.2.37-1.63-.25-6.96Z"/><path class="cls-5" d="m48.96,70.28l1.17-.17c-.16.03-.34.08-.54.1-.17.02-.35.06-.55.07-.04,0-.07,0-.12,0h.03Z"/><path class="cls-5" d="m50.52,69.81s-.05.11-.12.24h0s-.02.02-.02.02t0-.02l.02-.04s.03-.05.04-.09c.02-.03.04-.05.06-.09l.02-.02Z"/><path class="cls-5" d="m52.09,70.61h.01s-.06.06-.11.1c-.04.02-.09.05-.17.08-.07.02-.14.06-.23.1-.09.03-.19.06-.3.06s-.24-.04-.35-.1c-.12-.06-.23-.11-.33-.24-.02-.03-.03-.09-.04-.12,0-.04,0-.08.02-.12.03-.08.08-.13.13-.19.22-.21.46-.32.71-.39.04-.02.09-.03.14-.03.02.02.02.04.02.05.02.02.02.03.02.04.03.04.04.06.04.06l.11.82v.03s.04-.03.09-.06h.01c.05-.05.14-.09.23-.1Z"/><path class="cls-5" d="m52.47,72.13c-.03-.23-.07-.36-.05-.36,0,0,.02.05.04.13l.13.41s0,.01-.04.03h0s-.02.03-.04.04h0s0-.05,0-.07l-.03-.18Z"/><path class="cls-5" d="m52.73,71.48s-.02.02-.04.03h-.01s-.05.06-.08.09c-.05.02-.09.06-.11.09-.03.03-.05.06-.06.06h0s0,.01,0,0,.01-.05.03-.09c.05-.06.09-.15.22-.18.02,0,.05,0,.06,0Z"/><path class="cls-5" d="m52.13,70.57s0,.01,0,.02h0s0,.02-.01.02t-.02.02c-.05.05-.19.12-.31.15-.16.04-.47.3-.98-.07-.53-.38.5-.86.75-.89.02,0,.05,0,.06,0,.22,0,.37.16.48.39.1.18.07.3.05.37Z"/><path class="cls-5" d="m52.75,71.47s0,.01-.02.02c-.01,0-.04,0-.06,0-.13.04-.17.13-.22.18-.02.04-.03.08-.03.09h0s.01.15.05.38l.03.18s0,.02,0,.06h0c-.14.15-.42.43-.52.46-.13.03-.94.27-.94.27l-.19-.03-4.21,10.57c-.6,1.57-2.28,2.45-3.92,2.01l-10.84-2.92,3.06-5.45s7.11,2.43,7.39,2.31c.2-.1,3.54-5.04,5.01-7.22-.26-.13-.54-.32-.6-.5,0,0,.06-1.07.77-1.18,0,0,.67-.25.92-.32.2-.05.42-.08.5-.08.05,0,.08,0,.12,0,.2-.01.38-.05.55-.07.2-.03.38-.07.54-.1l.23-.03h0s.02-.02.02-.02h0c.07-.14.1-.22.12-.26h0s0-.02,0-.02c.1-.14.27-.26.49-.29.29-.04.47.14.57.28-.05,0-.09,0-.14.03-.24.07-.49.19-.71.39-.05.06-.1.11-.13.19-.02.04-.02.09-.02.12,0,.03.02.09.04.12.1.13.21.18.33.24.11.06.23.1.35.1s.22-.03.3-.06c.09-.04.16-.08.23-.1.08-.03.13-.06.17-.08.05-.04.09-.08.11-.1.01,0,.01,0,.01,0,.08,0,.19.01.28.07.3.22.46.69.35.79Z"/><path class="cls-5" d="m52.18,70.46c-.02.09-.03.13-.05.14t0-.02s0-.07,0-.12c0-.09-.05-.22-.16-.37-.05-.07-.12-.14-.2-.18-.05-.02-.1-.04-.15-.04-.05,0-.1,0-.15.03-.22.08-.46.2-.65.37-.09.09-.16.21-.09.3.05.08.16.16.26.21.21.11.42.11.58.05.07-.02.14-.05.2-.07h.03s.03-.02.05-.03h.01s.08-.03.11-.05c.04-.02.09-.04.11-.04h0s.01-.02.01-.02c-.02.03-.06.06-.11.1-.04.02-.09.05-.17.08-.07.02-.14.06-.23.1-.09.03-.19.06-.3.06s-.24-.04-.35-.1c-.12-.06-.23-.11-.33-.24-.02-.03-.03-.09-.04-.12,0-.04,0-.08.02-.12.03-.08.08-.13.13-.19.22-.21.46-.32.71-.39.04-.02.09-.03.14-.03.08,0,.17.01.23.05.11.06.17.14.22.23.11.15.16.31.15.41Z"/><path class="cls-5" d="m50.52,69.78h0s0,.01,0,.02l-.02.02-.1.18-.02.04s-1.3.23-1.46.19-.26-.16-.19-.49c.07-.32.87-.47,1.26-.42.32.04.47.31.51.42.02.02.02.04.02.04Z"/><path class="cls-5" d="m50.52,69.78s0-.02-.02-.04c-.02-.02-.04-.06-.08-.1-.06-.09-.18-.22-.36-.26-.19-.03-.44-.02-.69.04-.12.02-.27.06-.38.13-.06.04-.12.07-.16.12-.02.03-.02.05-.03.08-.02.04-.02.07-.03.11,0,.09,0,.19.05.25.03.03.06.05.11.06.04,0,.07,0,.12,0,.2-.01.38-.04.54-.06.31-.04.57-.07.79-.11h.01c.02-.05.04-.08.06-.1.02-.03.04-.05.06-.09,0-.02.02-.03.02-.03h0s-.05.13-.12.26h0s-.26.06-.26.06c-.16.03-.34.08-.54.1-.17.02-.35.06-.55.07-.04,0-.07,0-.12,0-.01,0-.04,0-.05-.01-.05-.01-.1-.04-.15-.09-.09-.1-.09-.23-.08-.34,0-.05,0-.08.02-.12.01-.05.03-.09.06-.13.06-.06.13-.11.19-.14.14-.07.28-.11.42-.14.27-.05.51-.06.73-.02.21.06.33.22.39.31.06.11.07.17.06.18Z"/><path class="cls-5" d="m53.15,72.16c-.02.1-.61.36-.61.19h0c0-.13-.05-.32-.08-.45-.02-.08-.04-.13-.04-.13h0s.01-.01.01-.01c.04-.05.14-.2.25-.23h.01s.05,0,.07,0c.18.05.41.54.39.64Z"/><path class="cls-5" d="m53.19,72.06v.07s.02.03.01.06c0,.02-.02.04-.03.04-.08.09-.17.11-.24.15s-.16.06-.24.07c-.05,0-.08.02-.13,0-.02,0-.05-.04-.06-.06h0s0-.05,0-.07l-.03-.18c-.03-.23-.07-.36-.05-.36.01,0,.07.14.13.35.02.05.03.11.05.19,0,.01,0,.05,0,.05h.01s.05,0,.07,0c.13-.03.31-.09.42-.19h0s0-.01,0-.02c0-.01,0-.03,0-.05,0-.05-.03-.08-.03-.12-.04-.06-.07-.14-.11-.2-.07-.12-.16-.24-.24-.21-.03,0-.07.02-.1.04-.05.02-.09.06-.11.09-.03.03-.05.06-.06.06h0s0,.01,0,0,.01-.05.03-.09c.05-.06.09-.15.22-.18.02,0,.05,0,.06,0,.06-.01.12.02.15.05.06.06.11.12.15.18.04.06.07.14.11.21.02.04.04.09.05.13Z"/><line class="cls-5" x1="23.4" y1="29.7" x2="23.4" y2="27.72"/><line class="cls-5" x1="44.09" y1="29.7" x2="44.09" y2="27.72"/><line class="cls-7" x1="34.94" y1="77.28" x2="32.69" y2="76.3"/><polygon class="cls-3" points="118.67 92.41 118.67 108.66 112.11 108.66 112.11 100.3 12.97 100.3 12.97 108.66 6.4 108.66 6.4 92.41 118.67 92.41"/><circle class="cls-6" cx="149.17" cy="60.4" r="48.26"/><rect class="cls-6" x="122.84" y="45.66" width="50.15" height="34.97"/><polygon class="cls-10" points="147.92 31.19 172.99 45.66 147.92 45.66 122.85 45.66 147.92 31.19"/><rect class="cls-9" x="132.86" y="54.07" width="12.49" height="9.91"/><polyline class="cls-1" points="164 80.32 164 57.46 155 57.46 155 80.32"/></svg>