<?xml version="1.0" encoding="UTF-8"?><svg id="Calque_1" xmlns="http://www.w3.org/2000/svg" viewBox="0 0 200 128"><defs><style>.cls-1,.cls-2,.cls-3,.cls-4,.cls-5,.cls-6,.cls-7,.cls-8,.cls-9,.cls-10{stroke:#000;stroke-miterlimit:10;}.cls-1,.cls-6{fill:#baa584;}.cls-2{fill:#b2f0e9;}.cls-11{stroke:#e30613;stroke-linecap:round;stroke-linejoin:round;stroke-width:8px;}.cls-11,.cls-4{fill:none;}.cls-3{fill:#8987f3;}.cls-3,.cls-5,.cls-6,.cls-9{stroke-width:2px;}.cls-5{fill:#fce9b9;}.cls-7,.cls-9{fill:#fee4cb;}.cls-8{fill:#a07637;}.cls-10{fill:#d6d6d6;}</style></defs><rect class="cls-11" x="-1976.67" y="-260.57" width="2655.08" height="1511.77"/><polygon class="cls-10" points="173.05 81.75 171.13 81.75 161.47 81.75 161.47 60.65 140.06 60.65 140.06 80.45 128.5 80.45 128.5 68.35 118.52 68.35 118.52 119.89 122.46 119.89 135 119.89 140.06 119.89 143.87 119.89 152.81 119.89 161.47 119.89 171.13 119.89 171.13 83.94 173.05 83.94 173.05 81.75"/><polygon class="cls-10" points="55.06 74.06 49.55 74.06 49.55 69.98 51.21 69.98 51.21 66.95 32.43 66.95 32.43 69.98 34.33 69.98 34.33 119.76 68.47 119.76 68.47 47.99 55.06 47.99 55.06 74.06"/><rect class="cls-8" x="132.3" y="65.8" width="6.51" height="2.95"/><rect class="cls-8" x="59.97" y="26.81" width="6.51" height="2.95"/><rect class="cls-8" x="59.97" y="34.23" width="6.51" height="2.95"/><rect class="cls-9" x="136.6" y="32.88" width="10.36" height="42.11" transform="translate(283.55 107.87) rotate(-180)"/><path d="m140.15,42.87v-4.09h.85v1.56h1.59v-1.56h.85v4.09h-.85v-1.83h-1.59v1.83h-.85Z"/><path d="m143.15,48.99c-.31.32-.76.48-1.34.48s-1.03-.16-1.34-.48c-.41-.39-.62-.95-.62-1.69s.21-1.31.62-1.69c.31-.32.76-.48,1.34-.48s1.03.16,1.34.48c.41.38.62.94.62,1.69s-.21,1.3-.62,1.69Zm-.53-.62c.2-.25.3-.6.3-1.06s-.1-.81-.3-1.06c-.2-.25-.47-.38-.81-.38s-.61.12-.81.38c-.2.25-.3.6-.3,1.07s.1.82.3,1.06c.2.25.47.38.81.38s.61-.12.81-.38Z"/><path d="m143.44,51.74v.72h-1.22v3.37h-.86v-3.37h-1.23v-.72h3.31Z"/><path d="m143.34,58.94h-2.16v.87h1.99v.71h-1.99v1.05h2.26v.74h-3.1v-4.09h3v.72Z"/><path d="m140.47,64.69h.85v3.35h2.04v.74h-2.9v-4.09Z"/><rect class="cls-5" x="65.81" y="16.83" width="66.49" height="102.93" transform="translate(198.11 136.59) rotate(-180)"/><rect class="cls-1" x="73.55" y="47.96" width="12.35" height="2.12" transform="translate(159.44 98.04) rotate(-180)"/><rect class="cls-1" x="92.95" y="47.96" width="12.35" height="2.12" transform="translate(198.24 98.04) rotate(-180)"/><rect class="cls-1" x="112.35" y="47.96" width="12.35" height="2.12" transform="translate(237.04 98.04) rotate(-180)"/><rect class="cls-1" x="73.55" y="79.54" width="12.35" height="2.12" transform="translate(159.44 161.21) rotate(-180)"/><path class="cls-2" d="m83.45,61.3h-7.64s0,16.88,0,16.88h7.64s0-16.88,0-16.88Z"/><path class="cls-2" d="m102.85,61.3h-7.64s0,16.88,0,16.88h7.64s0-16.88,0-16.88Z"/><path class="cls-2" d="m122.34,61.3h-7.64s0,16.88,0,16.88h7.64s0-16.88,0-16.88Z"/><path class="cls-2" d="m83.45,29.71h-7.64s0,16.88,0,16.88h7.64s0-16.88,0-16.88Z"/><path class="cls-2" d="m102.85,29.71h-7.64s0,16.88,0,16.88h7.64s0-16.88,0-16.88Z"/><path class="cls-2" d="m122.34,29.71h-7.64s0,16.88,0,16.88h7.64s0-16.88,0-16.88Z"/><rect class="cls-1" x="92.95" y="79.54" width="12.35" height="2.12" transform="translate(198.24 161.21) rotate(-180)"/><rect class="cls-1" x="112.35" y="79.54" width="12.35" height="2.12" transform="translate(237.04 161.21) rotate(-180)"/><rect class="cls-1" x="79.78" y="93.65" width="38.66" height="26.12" transform="translate(198.23 213.41) rotate(-180)"/><rect class="cls-8" x="83.08" y="96.83" width="32.07" height="22.93" transform="translate(198.23 216.59) rotate(-180)"/><rect class="cls-6" x="65.81" y="16.83" width="66.49" height="3.99"/><rect class="cls-1" x="65.81" y="55.47" width="66.49" height="1.99"/><rect class="cls-1" x="65.81" y="86.19" width="66.49" height="1.99"/><line class="cls-4" x1="99.03" y1="96.83" x2="99.03" y2="119.76"/><line class="cls-10" x1="22.41" y1="119.89" x2="181.73" y2="119.89"/><rect class="cls-3" x="44.8" y="24.41" width="15.17" height="15.17"/><path class="cls-7" d="m56.7,32.62c-.44,1.95-2.18,3.41-4.26,3.41-2.42,0-4.37-1.96-4.37-4.37,0-2.08,1.46-3.83,3.41-4.26-.07.31-.11.63-.11.96,0,2.42,1.96,4.37,4.37,4.37.33,0,.65-.04.96-.11Z"/><line class="cls-4" x1="94.84" y1="109.77" x2="96.88" y2="109.77"/><line class="cls-4" x1="100.76" y1="109.77" x2="102.81" y2="109.77"/></svg>