<?xml version="1.0" encoding="UTF-8"?>
<svg id="Calque_1" data-name="Calque 1" xmlns="http://www.w3.org/2000/svg" viewBox="0 0 200 128">
  <defs>
    <style>
      .cls-1 {
        fill: #d6d6d6;
      }

      .cls-1, .cls-2, .cls-3, .cls-4, .cls-5, .cls-6, .cls-7 {
        stroke-linecap: round;
        stroke-linejoin: round;
      }

      .cls-1, .cls-2, .cls-4, .cls-5, .cls-6, .cls-8, .cls-9, .cls-10 {
        stroke: #000;
      }

      .cls-2 {
        fill: #fce9b9;
      }

      .cls-3 {
        stroke: #f3d587;
      }

      .cls-3, .cls-4 {
        fill: #f3d587;
      }

      .cls-5, .cls-6, .cls-7, .cls-10 {
        fill: none;
      }

      .cls-6 {
        stroke-width: 2px;
      }

      .cls-8 {
        fill: #ff6d75;
      }

      .cls-8, .cls-11, .cls-9, .cls-10 {
        stroke-miterlimit: 10;
      }

      .cls-11 {
        stroke: #b2f0e9;
      }

      .cls-11, .cls-9 {
        fill: #87ccf3;
      }

      .cls-7 {
        stroke: #fff;
        stroke-width: 8px;
      }
    </style>
  </defs>
  <polygon class="cls-1" points="148.2 92.95 147.64 94 136.57 114.81 41.03 114.81 58.49 92.95 148.2 92.95"/>
  <polyline class="cls-6" points="39.93 7.34 13.38 38.52 13.38 119.47 39.93 88.29"/>
  <line class="cls-6" x1="155.65" y1="88.29" x2="39.93" y2="88.29"/>
  <path class="cls-11" d="m104.48,10.77c-2.41,4.32-9.49,7.32-10.35,7.41-3.84.44-4.25-2.28-8.7-1.88-4.48.38-5.04,3.2-7.74,2.61-3.4-.73-3.19-4.62-7.01-5.99-3.8-1.37-5.87.63-7.99-.98-1.16-.87-1.84-2.47-2.05-4.12h44.42c.13.94,0,1.92-.58,2.95Z"/>
  <path class="cls-9" d="m166.56,55.65c4.45,0,8.06-3.61,8.06-8.06s-8.06-14.24-8.06-14.24c0,0-8.06,9.79-8.06,14.24s3.61,8.06,8.06,8.06Z"/>
  <g>
    <polyline class="cls-5" points="105.35 19.64 152.43 42.45 62.78 42.45"/>
    <polygon points="106.55 24.76 107.49 24.4 105.7 19.81 110.41 18.36 110.12 17.4 104.38 19.17 106.55 24.76"/>
    <polygon points="66.09 38.36 66.77 39.09 63.16 42.45 66.77 45.81 66.09 46.54 61.69 42.45 66.09 38.36"/>
  </g>
  <path class="cls-11" d="m47.48,43.44c-.21-2.04-1.29-2.6-2.07-4.34-1.6-3.56.81-5.38,0-10.34-.56-3.43-3.73-6.59-5.48-6.21-2.29.5-3.15,7.24-3.67,11.38-.06.45-.51,4.1-1.13,5.73-.05.14-.25.65-.4,1.36-.61,2.88.56,3.37.21,6.83-.37,3.63-1.77,4.22-1.24,6.62.38,1.74,1.15,1.59,2.28,4.14,1.01,2.31.84,3.38,1.45,6.21.75,3.48,1.33,6.07,2.51,5.95,1.12-.12,4.06-4.73,4.45-7.65.41-3.07.23-3.9,1.03-5.38,1.32-2.43,3.11-2.15,3.52-3.93.48-2.13-2-2.95-2.07-6.21-.04-1.93.82-2.23.62-4.14Z"/>
  <line class="cls-6" x1="39.93" y1="88.29" x2="39.93" y2="7.34"/>
  <line class="cls-10" x1="109.92" y1="88.26" x2="109.87" y2="88.3"/>
  <polyline class="cls-6" points="39.93 7.34 78.24 7.34 118.66 7.34 155.65 7.34"/>
  <path class="cls-2" d="m56.08,59.07h39.66c1.06,0,1.92.86,1.92,1.92v26.9c0,1.06-.86,1.92-1.92,1.92h-39.66c-1.06,0-1.92-.86-1.92-1.92v-26.89c0-1.06.86-1.92,1.92-1.92Z"/>
  <path class="cls-2" d="m141.11,60.99v26.89c0,1.06-.86,1.92-1.92,1.92h-39.66c-1.06,0-1.92-.86-1.92-1.92v-26.89c0-1.06.86-1.92,1.92-1.92h39.66c.12,0,.23,0,.34.03.9.16,1.58.95,1.58,1.89Z"/>
  <rect class="cls-2" x="54.16" y="83.93" width="86.58" height="15.94"/>
  <rect class="cls-4" x="61.69" y="83.22" width="72.2" height="1.79"/>
  <path class="cls-3" d="m63.33,63.86c0,.45-.37.82-.82.82s-.82-.37-.82-.82.37-.82.82-.82.82.37.82.82Z"/>
  <path class="cls-3" d="m90.14,63.86c0,.45-.37.82-.82.82s-.82-.37-.82-.82.37-.82.82-.82.82.37.82.82Z"/>
  <path class="cls-3" d="m134.71,63.86c0,.45-.37.82-.82.82s-.82-.37-.82-.82.37-.82.82-.82.82.37.82.82Z"/>
  <path class="cls-3" d="m105.72,63.86c0,.45-.37.82-.82.82s-.82-.37-.82-.82.37-.82.82-.82.82.37.82.82Z"/>
  <path class="cls-3" d="m90.14,80.02c0,.45-.37.82-.82.82s-.82-.37-.82-.82.37-.82.82-.82.82.37.82.82Z"/>
  <path class="cls-3" d="m131.21,80.02c0,.45-.37.82-.82.82s-.82-.37-.82-.82.37-.82.82-.82.82.37.82.82Z"/>
  <path class="cls-3" d="m105.72,80.02c0,.45-.37.82-.82.82s-.82-.37-.82-.82.37-.82.82-.82.82.37.82.82Z"/>
  <path class="cls-3" d="m68.29,80.02c0,.45-.37.82-.82.82s-.82-.37-.82-.82.37-.82.82-.82.82.37.82.82Z"/>
  <path class="cls-3" d="m77.06,71.25c0,.45-.37.82-.82.82s-.82-.37-.82-.82.37-.82.82-.82.82.37.82.82Z"/>
  <path class="cls-3" d="m120.17,71.25c0,.45-.37.82-.82.82s-.82-.37-.82-.82.37-.82.82-.82.82.37.82.82Z"/>
  <path class="cls-4" d="m61.69,77.58v20.87c0,2.05-1.66,3.71-3.71,3.71h-6.26c-2.05,0-3.71-1.66-3.71-3.71v-20.87c0-2.05,1.66-3.71,3.71-3.71h6.26c.24,0,.48.02.71.07,1.71.33,3,1.84,3,3.64Z"/>
  <rect class="cls-4" x="133.89" y="73.87" width="13.69" height="28.29" rx="3.71" ry="3.71"/>
  <path class="cls-8" d="m79.69,76.66s0-.04-.01-.06c-.03-.14-.06-.28-.08-.42,0-.04-.01-.07-.02-.11-.03-.15-.06-.3-.08-.45,0-.03,0-.06-.01-.08-.02-.12-.04-.24-.06-.35,0-.04-.01-.08-.02-.13-.02-.14-.04-.27-.06-.4-.21-2.34.09-6.52-.39-6.77-.38-.2-.75.29-1.91.09-3.42-.59-5.91-.47-6.34-.38-.44,0-2.89.4-6.12,1.69-.12.05-.24.09-.35.12-.03,0-.07.02-.1.02-.07.02-.14.03-.21.04-.03,0-.07.01-.1.01-.06,0-.13.01-.18.02-.02,0-.05,0-.07,0-.42.01-.67-.07-.88.09-.41.34.75,4.37,1.03,6.7.21,2.34-.09,6.52.39,6.77.38.2.75-.29,1.91-.09,3.42.59,5.9.35,6.32.26.44,0,2.91-.29,6.13-1.58,1.09-.44,1.55-.04,1.88-.31.14-.12.1-.66-.03-1.42,0-.02,0-.05-.01-.07-.15-.9-.42-2.08-.65-3.21Z"/>
  <path class="cls-8" d="m130.22,69.63c-.21-.16-.46-.07-.88-.06-.02,0-.05,0-.07,0-.06,0-.12,0-.18,0-.03,0-.06,0-.1-.01-.07,0-.14-.02-.21-.04-.03,0-.07-.01-.1-.02-.11-.03-.23-.06-.35-.1-3.27-1.18-5.74-1.49-6.17-1.48-.43-.07-2.92-.11-6.32.61-1.15.24-1.54-.23-1.91-.02-.47.27-.02,4.44-.15,6.78-.01.13-.03.27-.04.41,0,.04,0,.08-.01.12-.01.12-.03.24-.05.36,0,.03,0,.05-.01.08-.02.15-.04.31-.07.47,0,.03,0,.05-.01.08-.02.16-.05.31-.07.47,0,0,0,0,0,0-.35,2.14-.84,4.49-.52,4.74.34.26.79-.15,1.89.25,3.27,1.18,5.75,1.37,6.18,1.36.43.07,2.91.22,6.31-.49,1.15-.24,1.54.23,1.91.02.47-.27.02-4.44.15-6.78.2-2.34,1.22-6.4.79-6.73Z"/>
  <path class="cls-11" d="m14.85,105.62s.41-4.1,4.36-3.87c3.94.23.79-.74,4.75-4.22,2.14-1.88,1.28-6.18,6.45-4.58,0,0,2.11-2.72,5.01-1.67l-20.56,24.18v-9.84Z"/>
  <rect class="cls-7" x="-1344.09" y="-2712.47" width="2244.45" height="5948.74"/>
</svg>