<?xml version="1.0" encoding="UTF-8"?>
<svg id="Calque_1" data-name="Calque 1" xmlns="http://www.w3.org/2000/svg" viewBox="0 0 490.33 313.61">
  <defs>
    <style>
      .cls-1, .cls-2, .cls-3, .cls-4, .cls-5, .cls-6, .cls-7, .cls-8, .cls-9, .cls-10, .cls-11, .cls-12, .cls-13, .cls-14, .cls-15, .cls-16, .cls-17, .cls-18, .cls-19, .cls-20, .cls-21, .cls-22, .cls-23, .cls-24, .cls-25, .cls-26, .cls-27, .cls-28, .cls-29, .cls-30, .cls-31, .cls-32, .cls-33, .cls-34, .cls-35, .cls-36, .cls-37 {
        stroke: #000;
      }

      .cls-1, .cls-2, .cls-4, .cls-5, .cls-6, .cls-7, .cls-14, .cls-15, .cls-16, .cls-17, .cls-18, .cls-19, .cls-20, .cls-21, .cls-22, .cls-23, .cls-24, .cls-25, .cls-26, .cls-27, .cls-28, .cls-38, .cls-31, .cls-33, .cls-34, .cls-35, .cls-36, .cls-37 {
        stroke-linecap: round;
      }

      .cls-1, .cls-2, .cls-4, .cls-5, .cls-6, .cls-7, .cls-14, .cls-15, .cls-16, .cls-17, .cls-18, .cls-19, .cls-20, .cls-21, .cls-22, .cls-23, .cls-27, .cls-38, .cls-31, .cls-33, .cls-34, .cls-35, .cls-36, .cls-37 {
        stroke-linejoin: round;
      }

      .cls-1, .cls-9, .cls-19, .cls-20, .cls-27, .cls-32, .cls-33, .cls-34, .cls-36 {
        fill: #fff;
      }

      .cls-2, .cls-3, .cls-4, .cls-22, .cls-23, .cls-28, .cls-29, .cls-38, .cls-31, .cls-35, .cls-37 {
        fill: none;
      }

      .cls-3, .cls-8, .cls-9, .cls-10, .cls-11, .cls-12, .cls-13, .cls-24, .cls-25, .cls-26, .cls-28, .cls-29, .cls-30, .cls-32 {
        stroke-miterlimit: 10;
      }

      .cls-3, .cls-32, .cls-33, .cls-35 {
        stroke-width: 1.5px;
      }

      .cls-4, .cls-36 {
        stroke-width: .75px;
      }

      .cls-5 {
        fill: #76ac75;
      }

      .cls-5, .cls-6, .cls-7, .cls-8, .cls-9, .cls-10, .cls-11, .cls-12, .cls-13, .cls-14, .cls-15, .cls-16, .cls-18, .cls-19, .cls-21, .cls-23, .cls-24, .cls-25, .cls-26, .cls-28, .cls-29, .cls-30 {
        stroke-width: 2px;
      }

      .cls-39 {
        fill: #fab0b4;
      }

      .cls-40, .cls-12, .cls-15, .cls-25 {
        fill: #ff6d75;
      }

      .cls-41, .cls-7, .cls-17 {
        fill: #d6d6d6;
      }

      .cls-42 {
        fill: #1d1d1b;
      }

      .cls-43, .cls-13, .cls-26 {
        fill: #1a2e35;
      }

      .cls-6 {
        fill: #afaff9;
      }

      .cls-8, .cls-21 {
        fill: #f3d587;
      }

      .cls-10 {
        fill: #ff735d;
      }

      .cls-11, .cls-16, .cls-24 {
        fill: #fce9b9;
      }

      .cls-14 {
        fill: #87ccf3;
      }

      .cls-17 {
        stroke-width: 1.58px;
      }

      .cls-18 {
        fill: #baa584;
      }

      .cls-20, .cls-22 {
        stroke-width: 1.61px;
      }

      .cls-27, .cls-31 {
        stroke-width: 2.15px;
      }

      .cls-38 {
        stroke: #fff;
        stroke-width: 8px;
      }

      .cls-34, .cls-37 {
        stroke-width: 1.07px;
      }
    </style>
  </defs>
  <g>
    <path class="cls-19" d="m94.42,239.19l-1.8-1.33-1.34-11.6s-10.26,1.64-10.26,1.78,1.04,10.85,1.04,10.85l-.74,2.97,7.58.59,4.31-1.04,1.21-2.24Z"/>
    <polygon class="cls-19" points="42.51 242.09 42.05 230.86 53.83 230.72 51.65 241.6 47.79 245.24 42.51 242.09"/>
    <path class="cls-18" d="m55.95,249.53c-.3-.95-3.46-6.54-4.22-7.95-1.54.66-3.05,1.03-4.73,1.03-1.54,0-3.26-.15-4.49-1.08-.79,1.11-1.74,2.62-2.47,3.85-.66,1.11-1.58,2.27-2.05,3.52-.47,1.26-.26,2.7.74,3.53,3.32,2.74,12.63,3.42,16.63.37,1.2-.91.8-2.63.6-3.28Z"/>
    <path class="cls-18" d="m107.01,249.39c-1.91.33-3.95.18-5.88.18-5.52,0-11.04-.27-16.55-.53-.88-.04-1.78-.09-2.58-.45-.63-.28-1.18-.75-1.55-1.34-.23-.36-.39-.76-.44-1.18-.02-.15-.02-.29,0-.44.03-.58.26-1.16.47-1.71.39-1.01.58-1.75.97-2.76,4.38,0,8.74-.82,12.97-1.97.42.21.85.43,1.27.64l7.32,3.69c.99.5,1.98,1,2.97,1.5.24.12.47.24.71.36.7.35,1.7.57,2.21,1.22.12.15.21.32.26.51.42,1.47-.95,2.08-2.15,2.28Z"/>
    <path class="cls-14" d="m93.36,232.36s-3.73,1.51-8.18,2.16c-4.43.62-4.76.08-4.76.08l-8.08-53.39s-2.27-5.87-5.3-13.79c-.23-.62-.49-1.24-.72-1.9-1.05-2.7-2.16-5.59-3.28-8.53.12,8.64.21,17.21.31,25.48l-9.09,54.66c-3.54,1.26-3.79,1.2-7.59,1.2-3.52,0-3.5-.08-6.68-1.34,1.44-19.01,3.98-54.03,3.98-54.03,0,0-7.98-36.96-6.06-56.13.93-9.25,5.05-16.8,7.89-21.85,1.79,1.5,4.76,2.72,6.97,3.26,3.67.91,5.17,1.05,8.86.91.58-.06,1.19-.1,1.71-.16,5.34-.6,8.76-1.2,8.76-1.2,0,0,7.42,16.45,10.41,26.32,2.97,9.81,7.73,48.01,7.73,48.01l3.13,50.25Z"/>
    <path class="cls-19" d="m69.23,57.69c-.52.23-1.07.41-1.61.54-4.56,1.09-9.75-.85-11.52-1.59l.54-7.75.06-.87,11.98-2.31.31,2.49,1.01,8.43c-.06.16-.1.33-.16.47-.04.1-.06.19-.1.27-.02.04-.02.08-.04.12h-.02l-.47.21Z"/>
    <g>
      <path class="cls-19" d="m99.5,134.78c.03.38.03.75.03,1.13-.02,1.01-.07,2.02-.08,3.04,0,.44,0,.88.13,1.3.13.42.39.82.78,1.01s.92.13,1.2-.21c.24-.3.24-.72.23-1.11-.02-.51-.03-1.01-.05-1.52-.02-.68-.05-1.37-.1-2.05-.11-1.38-.38-2.82-1.24-3.91-.27-.34-1.58-1.23-1.58-.23,0,.39.31.82.43,1.18.14.44.23.89.27,1.35Z"/>
      <path class="cls-19" d="m100.3,135.43c.03.38.03.75.03,1.13-.02,1.01-.07,2.02-.08,3.04,0,.44,0,.88.13,1.3s.39.82.78,1.01.92.13,1.2-.21c.24-.3.24-.72.23-1.11-.02-.51-.03-1.01-.05-1.52-.02-.68-.05-1.37-.1-2.05-.11-1.38-.38-2.82-1.24-3.91-.27-.34-1.58-1.23-1.58-.23,0,.39.31.82.43,1.18.14.44.23.89.27,1.35Z"/>
      <path class="cls-33" d="m90.38,121.47c.12-.58,1.88-1.02,2.67-2.16,2.49,1.46,6.68,9.42,7.71,11.52.7,1.42,1.43,2.89,1.73,4.45.32,1.66.38,3.34.46,5.02.01.26.03.53-.06.78-.15.45-.74.74-1.15.43-.89-.67-.95-2.06-1.03-3.08-.08-.95-.1-1.91-.33-2.84-.23-.91-.71-1.65-1.32-2.36-.44-.51-.85-1.03-1.3-1.54-.17-.19-.35-.39-.55-.55-.27-.23-.57-.4-.92-.45-.29-.04-.73,0-.96.22-.24.24-.11.61-.05.89.07.34.21.65.36.96.26.53.57,1.06.67,1.64.02.1.03.2.03.3.04,1.08-1.04,2.39-1.96,1.21-.2-.25-.33-.55-.47-.84-.65-1.39-1.6-2.64-1.99-4.13-.25-.95-.4-1.92-.54-2.89-.55-3.65-1.36-4.89-1.02-6.6Z"/>
      <path class="cls-19" d="m97.22,131.15c-.13-.19-.27-.37-.42-.55-.27-.31-.58-.6-.97-.73-.39-.13-.86-.07-1.13.24-.22.26-.26.64-.21.98.12.83.68,1.53,1.17,2.21.25.35.5.72.66,1.12-.1-.58-.42-1.11-.67-1.64-.15-.31-.29-.62-.36-.96-.06-.28-.19-.65.05-.89.22-.22.67-.26.96-.22.35.05.65.23.92.45Z"/>
    </g>
    <path class="cls-23" d="m61,14.81s.01,2.24-.81,3.74h-.02"/>
    <path class="cls-23" d="m56.67,19.5c-1.77-1.02-2.96-3.61-2.96-3.61"/>
    <path class="cls-23" d="m51.08,40.02h-.02c-.21-.04-1.66-.42-2.51-2.71-.92-2.47-1.98-2.19-2.07-4.74-.06-2.41,2.44-1.37,2.71-1.23"/>
    <path class="cls-23" d="m71.53,17.98s-1.73,1.03-3.65,1.38"/>
    <path class="cls-19" d="m53.01,20.6c1.1.06,2.38-.2,3.66-1.1.53.32,1.09.48,1.7.42.85-.09,1.41-.66,1.81-1.36.02.02.04.04.06.04.24.23,1.77,1.57,3.66-.26.99,1.18,2.54,1.31,3.98,1.03.86.67,2.04.59,2.04.59.07.1.16.21.21.31,3.54,4.99,3.88,8.38,3.91,8.75.22-.89.37-1.74.49-2.54-.19,1.5-.47,2.58-.54,2.81v.02s-.02.04-.02.04h.02c.05,1.42.07,5.08-.51,8.86-.49,3.15-1.44,6.39-3.17,8.48-4,4.86-6.59,4.96-6.98,4.93-.4.09-3.13.51-7.85-3.7-2.03-1.79-3.47-4.86-4.43-7.89-1.16-3.65-1.7-7.27-1.87-8.68h.02c-.03-.16-.04-.32-.04-.51.05.14.1.22.1.22-.05-.59-.05-1.18-.03-1.75.38-2.94,3.06-7.8,3.39-8.64l.39-.07Z"/>
    <path class="cls-23" d="m49.23,29.31c-.08.56-.1,1.07-.06,1.53"/>
    <path class="cls-23" d="m49.2,31.34s0-.02-.02-.04v-.02c-.12-.28-.76-1.71-1.2-3.67v-.06c-.88-3.92-.91-9.83,5.6-12.47,0,0,.4-2.15,3.15-1.81,0,0,3.19-3.48,7.03-.63,2.67-.76,3.39,1.3,3.39,1.3,7.35,1.73,7.82,8.36,7.4,12.32-.01.08-.03.14-.02.21"/>
    <path class="cls-23" d="m70.2,20.67s3.78,5.5,3.78,8.67"/>
    <path class="cls-23" d="m49.12,30.74v.02c0,.06.02.24.06.52v.02s0,.04,0,.04"/>
    <path class="cls-23" d="m74,29.34v-.04"/>
    <path class="cls-23" d="m73.97,28.73s.02.2.02.55"/>
    <path class="cls-23" d="m73.46,38.21h.02c.2-.08,1.57-.67,2.06-3.07.53-2.58,1.62-2.46,1.32-5-.31-2.4-2.62-.98-2.87-.79"/>
    <path class="cls-23" d="m65.45,16.16c-.48.89-.96,1.56-1.41,2.02-.06.07-.09.13-.15.15"/>
    <path class="cls-23" d="m60.23,18.59l-.04-.04"/>
    <path class="cls-19" d="m62.79,29.02s.85,7.61,2.5,11.43c0,0-.32.78-2.8.3"/>
    <ellipse class="cls-19" cx="57.68" cy="32.67" rx=".26" ry=".76" transform="translate(-2.35 4.55) rotate(-4.42)"/>
    <ellipse class="cls-19" cx="68.16" cy="31.67" rx=".26" ry=".76" transform="translate(-2.24 5.35) rotate(-4.42)"/>
    <line class="cls-19" x1="63.04" y1="156.97" x2="62.5" y2="133.59"/>
    <path class="cls-5" d="m38.27,90.51c1.75-1.85,3.38-3.79,4.86-5.81.08.87.04,2.76-.08,5.15-.19,4.8-.64,11.61-.91,15.95,1.03,1.5,1.98,3.05,2.87,4.6.56.97.64,2.16.19,3.19-.06.14-.12.29-.19.43.08.04.14.06.21.08,8.33,2.66,17.4,2.97,25.93,1.01,1.73-.39,3.54-.95,4.6-2.45.17-.25.35-.52.47-.82,2.21,2.78,4.56,5.48,7.07,8.02,2.14,2.16,5.46,2.64,8.14,1.2,2-1.07,3.15-3.11,3.15-5.21,0-.99-.25-2-.8-2.93-1.5-2.56-3.05-4.97-4.78-7.44-.95-1.36-2.72-3.65-3.69-4.89-.43-.54-.64-1.24-.6-1.94.29-4.8,2.77-25.83-3.09-33.83-.2-.27-.35-.6-.58-.85-2.5-2.54-7.52-5.59-10.68-6.86-.21.14-.43.25-.64.37h-.02l-.47.21c-.52.23-1.07.41-1.61.54-4.56,1.09-9.75-.85-11.52-1.59-.41-.17-.62-.29-.62-.29-2.86.37-5.67.99-8.41,1.9-2.99,1.01-5.61,2.19-8.1,4.18-2.51,2.04-4.74,4.41-6.86,6.86-1.03,1.18-2.02,2.39-3.01,3.61-.49.58-.97,1.17-1.46,1.77"/>
    <path class="cls-19" d="m70.36,57.1c-.21.14-.43.25-.64.37h-.02c-.16.08-.31.16-.47.21-.52.23-1.07.41-1.61.54l1.71-.7.43-.17.6-.25Z"/>
    <path class="cls-23" d="m79.51,84.8c-.1,2.78-1.79,20.37-2.25,23.13-.27,1.61-.52,3.36-1.5,4.72-1.07,1.5-2.87,2.06-4.6,2.45"/>
    <path class="cls-33" d="m62.14,123.73s-5.66-2.68-5.66-2.68c-.84-.39-1.7-.73-2.52-1.16-.41-.22-.82-.46-1.19-.74-.34-.26-.79-.61-.16-.69.41-.05.86.02,1.28.05.65.05,1.37.1,2-.05.36-.09.71-.31.86-.65.18-.45-.05-.97-.43-1.28-.01-.01-.03-.02-.04-.03-.4-.3-.91-.41-1.4-.49-1.58-.29-3.22-.37-4.77-.76-.9-.23-1.69-.61-2.61-.75-.75-.11-1.51-.15-2.27-.11l-1.02-1.13c.03-.05.05-.09.05-.09-.31-.36-.63-.71-.94-1.07-1.28,2.02-2.57,4.04-3.86,6.05.81.63,1.32,1.01,1.33.99,0,0,0-.01.02-.03.56,2.82,2.55,5.74,4.85,7.17.23.15.48.28.67.48.15.15.26.34.37.52.63,1.08,1.22,2.18,1.77,3.3.35.7.78,2.38,1.76,2.4.68.02,1.15-.73.85-1.32-.55-1.09-1.11-2.17-1.7-3.24-.22-.4-.48-.78-.64-1.21-.05-.13-.21-.45-.13-.6.42-.75,1.46.66,1.72.96.5.57.99,1.13,1.5,1.69.71.8,1.43,1.58,2.16,2.36.46.49,1.04,1.43,1.84,1.09.55-.24.73-1,.31-1.44-.23-.24-.46-.49-.69-.74-.04-.09-.09-.18-.16-.26-.78-.9-1.53-1.81-2.26-2.75-.36-.47-.73-.94-1.08-1.41-.15-.2-1.05-.92-.74-1.21.35-.33,1.34.71,1.59.88.72.48,1.44.97,2.16,1.45.96.65,1.9,1.33,2.87,1.97.6.4,1.62,1.4,2.34.72.38-.36.36-1.04-.04-1.38-.04-.05-.08-.1-.13-.15-1.21-1.18-2.58-2.18-3.92-3.2-.66-.5-1.32-1-1.95-1.53-.33-.28-.65-.55-.96-.85-.13-.12-.52-.36-.36-.57.15-.2.6,0,.76.06.44.17.84.49,1.27.65.75.27,1.5.54,2.24.81,1.04.38,2.08.77,3.11,1.16.62.23,1.55.9,2.17.34.45-.4.35-1.27-.2-1.54Z"/>
    <path class="cls-5" d="m38.27,90.51c-1.53,1.63-3.13,3.19-4.74,4.72,3.28,3.44,6.16,6.93,8.6,10.57,1.03,1.5,1.98,3.05,2.87,4.6.56.97.64,2.16.19,3.19-.06.14-.12.29-.19.43-.66,1.55-1.4,3.07-2.29,4.53-.72,1.18-2.21,1.63-3.48,1.05-4.49-2.08-8.68-4.88-12.49-7.98-3.2-2.62-6.47-5.48-8.45-9.17-3.32-6.18-.83-13.23,2.6-18.76,1.96-3.19,4.35-6.12,6.74-9.01"/>
    <line class="cls-23" x1="33.53" y1="95.23" x2="27.65" y2="90.01"/>
    <line class="cls-7" x1="64.67" y1="58.62" x2="63.06" y2="115.89"/>
    <line class="cls-7" x1="61.85" y1="64.72" x2="68.16" y2="64.72"/>
    <path class="cls-23" d="m65.61,45.86s-2.14,1.41-4.9-.45"/>
    <path class="cls-19" d="m150.77,158.11c16.77,2.24,10.75-17.49,9.12-20.11-1.62-2.62.18-2.12-3.16-7.35-3.34-5.23-8.5-3.36-8.5-3.36-2.71-1.26-12.24-1.47-14.5,3.77-2.25,5.23-4.38,8.18-6.88,13.08,0,0-4.94,12.32,13.56,16.21"/>
    <path class="cls-19" d="m168.75,142.92s-1.92-.92-3.67-4.16c-1.12-2.08-4.46-4.74-3.07-5.18,1.39-.43,3.52,3.08,3.92,2.08.4-1.01-3.58-8.62-2.32-9.01,1.26-.39,4.55,7.01,4.91,6.11.36-.9-3.36-7.37-1.59-7.92,1.78-.55,3.7,7.96,4.66,7.67.95-.3-.44-6.79,1-7.24,1.43-.44,1.23,8.03,1.74,7.79.28-.13,1.55-4.24,2.33-3.93.88.35-.9,8.55-.44,10.63.84,3.85,4.85,23.21,1.97,26.09-3.14,3.14-18.51,12.1-22.69,10.86-4.19-1.24-6.58-5.38-5.58-7.92,1.01-2.54,20.78-8.26,21.1-9.06.32-.8-2.26-16.82-2.26-16.82Z"/>
    <path class="cls-19" d="m185.79,275.1s3.87,15.78,6.75,18.25c2.88,2.48,12.29,7.22,9.83,7.73-2.46.51-20.67.93-20.17-2.1.5-3.04,1.02-4.97,1.02-4.97l-4.82-11.27,7.39-7.63Z"/>
    <path class="cls-19" d="m143.33,288.33s-.41,3.99-.41,5.75,1.64,6.72.88,7.48c-.76.76-22.45.67-22.45-.05s3.83-2.88,9.04-4.37c5.21-1.49,6.98-7.26,5.63-10.57l7.31,1.76Z"/>
    <path class="cls-19" d="m166.87,221.63l3.89,3.45s4.38,11.86,4.63,12.64c.35,1.09,14.54,46.8,14.54,46.8l-9.88,3.56s-9.8-19.09-11.42-25.72c-1.62-6.63-17.86-34.37-17.86-34.37l16.1-6.36Z"/>
    <path class="cls-19" d="m149.68,228.66l-4.74,60.58h-10.96s-3.92-45.34-2.57-61.26l18.26.68Z"/>
    <path class="cls-15" d="m130.47,167.65s6.97-1.83,14.88-2.27c4.1-.23,9.61.64,9.61.64,0,0,5.01,11.23,6.49,20.43,1.49,9.2,9.61,38.69,9.61,38.69,0,0-16.51,12.72-40.59,4.33v-61.83Z"/>
    <path class="cls-19" d="m149.23,157.59s-.22,7.18.46,7.86c.67.67,1.62,1.79.62,3.51-.99,1.71-5.3.62-7.31-.36-1.93-.94-3.17-2.69-3.17-2.69l1-11.38,8.39,3.07Z"/>
    <path class="cls-19" d="m154.55,154.07c-3.42,6.23-7.79,4.69-9.61,4.07-1.8-.64-5.35-2.03-7.17-7.85-.15-.51-.3-1.07-.39-1.69-.13.68-.51,1.31-1.39,1.39-2.14.21-4.13-6.16-1.54-6.98,1.69-.53,2.35,1.03,2.63,2.2,0-6.14,2.61-13.52,10.44-12.6,0,0,4.04-.09,6.12,3.06,2.08,3.17,4.32,12.18.9,18.4Z"/>
    <path class="cls-19" d="m130.47,167.65s-3.16.27-3.52,6.43c-.14,2.43-6.33,37.65,3.65,45.72l-.13-52.15Z"/>
    <line class="cls-6" x1="133.23" y1="295.68" x2="142.92" y2="294.08"/>
    <line class="cls-6" x1="183.22" y1="294.01" x2="191.07" y2="291.21"/>
    <ellipse class="cls-17" cx="134.98" cy="146.24" rx="3.66" ry="4.62"/>
    <path class="cls-17" d="m134.13,141.69s.07-6.87,6.58-9.68c4.1-1.77,9.91-1.41,12.35,2.81,0,0-13.68-5.92-15.82,7.54,0,0-1.48-1.11-3.11-.67Z"/>
    <g>
      <path class="cls-7" d="m228,41.09s0-.02-.02-.04v-.02c-.13-.29-.8-1.79-1.26-3.85v-.06c-.92-4.11-.95-10.32,5.87-13.08,0,0,.42-2.25,3.31-1.9,0,0,3.34-3.65,7.37-.66,2.8-.79,3.56,1.37,3.56,1.37,7.71,1.81,8.21,8.77,7.76,12.92-.01.09-.03.15-.03.22"/>
      <path class="cls-19" d="m275.44,259.16l-1.89-1.39-1.4-12.17s-10.76,1.72-10.76,1.87,1.09,11.39,1.09,11.39l-.78,3.12,7.95.62,4.52-1.09,1.27-2.35Z"/>
      <polygon class="cls-19" points="220.98 262.21 220.5 250.42 232.85 250.27 230.57 261.69 226.52 265.51 220.98 262.21"/>
      <path class="cls-18" d="m235.08,270.01c-.32-1-3.63-6.87-4.43-8.34-1.62.69-3.2,1.08-4.97,1.08-1.62,0-3.42-.15-4.72-1.13-.83,1.16-1.83,2.75-2.59,4.04-.69,1.17-1.66,2.39-2.15,3.69-.5,1.32-.28,2.84.78,3.71,3.48,2.88,13.25,3.59,17.45.39,1.26-.96.84-2.76.63-3.44Z"/>
      <path class="cls-18" d="m288.66,269.86c-2,.35-4.14.19-6.17.19-5.79,0-11.58-.28-17.37-.56-.92-.05-1.87-.1-2.71-.47-.66-.3-1.24-.79-1.62-1.4-.24-.37-.41-.8-.46-1.24-.02-.16-.02-.31,0-.46.04-.61.27-1.21.49-1.79.41-1.06.61-1.84,1.02-2.9,4.6,0,9.17-.86,13.61-2.07.44.22.89.45,1.33.67l7.68,3.87c1.04.52,2.08,1.05,3.12,1.57.25.13.5.25.75.38.73.37,1.78.6,2.32,1.28.12.15.22.33.28.54.44,1.54-.99,2.18-2.26,2.39Z"/>
      <path class="cls-14" d="m274.32,251.99s-3.91,1.59-8.58,2.26c-4.65.65-4.99.08-4.99.08l-8.48-56.02s-2.39-6.15-5.56-14.47c-.24-.65-.51-1.3-.75-2-1.1-2.83-2.26-5.87-3.44-8.95.12,9.07.22,18.06.33,26.74l-9.54,57.34c-3.71,1.32-3.97,1.26-7.97,1.26-3.69,0-3.67-.08-7.01-1.41,1.51-19.95,4.18-56.69,4.18-56.69,0,0-8.38-38.78-6.36-58.89.98-9.7,5.3-17.63,8.27-22.93,1.88,1.57,4.99,2.85,7.32,3.42,3.85.96,5.42,1.1,9.29.96.61-.06,1.24-.1,1.79-.16,5.6-.63,9.19-1.26,9.19-1.26,0,0,7.79,17.26,10.92,27.61,3.12,10.29,8.11,50.37,8.11,50.37l3.28,52.72Z"/>
      <path class="cls-19" d="m249.02,68.73c-.55.24-1.12.43-1.69.57-4.79,1.14-10.23-.9-12.08-1.67l.57-8.13.06-.92,12.57-2.43.33,2.61,1.06,8.84c-.06.16-.1.35-.16.49-.04.1-.06.2-.1.29-.02.04-.02.08-.04.12h-.02l-.49.22Z"/>
      <g>
        <path class="cls-33" d="m280.77,149.62c.03.39.03.79.03,1.19-.02,1.06-.08,2.12-.09,3.19,0,.46,0,.93.13,1.37.13.44.41.86.82,1.06s.97.13,1.26-.22c.25-.32.25-.76.24-1.16-.02-.53-.04-1.06-.05-1.59-.02-.72-.05-1.43-.11-2.15-.12-1.45-.4-2.96-1.3-4.1-.29-.36-1.66-1.29-1.66-.24,0,.41.33.86.45,1.24.15.46.24.94.29,1.42Z"/>
        <path class="cls-33" d="m281.61,150.29c.03.39.03.79.03,1.19-.02,1.06-.08,2.12-.09,3.19,0,.46,0,.93.13,1.37.13.44.41.86.82,1.06s.97.13,1.26-.22c.25-.32.25-.76.24-1.16-.02-.53-.04-1.06-.05-1.59-.02-.72-.05-1.43-.11-2.15-.12-1.45-.4-2.96-1.3-4.1-.29-.36-1.66-1.29-1.66-.24,0,.41.33.86.45,1.24.15.46.24.94.29,1.42Z"/>
        <path class="cls-33" d="m271.21,135.65c.12-.61,1.98-1.07,2.81-2.27,2.61,1.53,7.01,9.88,8.09,12.09.73,1.49,1.5,3.03,1.81,4.67.34,1.74.39,3.5.48,5.27.01.28.03.56-.06.82-.16.47-.77.77-1.2.45-.93-.7-.99-2.16-1.08-3.23-.08-1-.11-2.01-.35-2.98-.24-.96-.75-1.73-1.38-2.47-.46-.53-.89-1.08-1.37-1.61-.18-.2-.37-.41-.58-.58-.28-.24-.6-.42-.96-.47-.3-.04-.77,0-1,.24-.25.25-.12.64-.05.93.08.35.22.68.38,1.01.27.55.6,1.11.71,1.72.02.1.03.21.04.31.04,1.14-1.09,2.5-2.06,1.27-.21-.26-.35-.58-.49-.88-.68-1.45-1.67-2.77-2.09-4.33-.26-1-.42-2.01-.57-3.03-.57-3.83-1.43-5.13-1.07-6.92Z"/>
        <path class="cls-19" d="m278.38,145.81c-.14-.2-.28-.39-.44-.58-.28-.33-.61-.63-1.01-.77-.41-.14-.91-.07-1.19.25-.23.27-.27.67-.22,1.02.13.87.71,1.6,1.23,2.32.27.37.52.75.7,1.17-.1-.61-.44-1.17-.71-1.72-.16-.32-.31-.65-.38-1.01-.06-.3-.2-.69.05-.93.23-.23.7-.28,1-.24.36.05.68.24.96.47Z"/>
      </g>
      <path class="cls-23" d="m240.38,23.75s.01,2.35-.85,3.93h-.02"/>
      <path class="cls-23" d="m235.83,28.66c-1.85-1.07-3.11-3.79-3.11-3.79"/>
      <path class="cls-23" d="m229.97,50.2h-.02c-.22-.05-1.74-.44-2.63-2.85-.97-2.59-2.08-2.29-2.18-4.97-.07-2.53,2.38-1.44,2.67-1.29"/>
      <path class="cls-23" d="m251.43,27.07s-1.82,1.08-3.83,1.45"/>
      <path class="cls-19" d="m231.99,29.81c1.16.06,2.5-.21,3.84-1.15.56.34,1.15.51,1.78.44.89-.09,1.48-.69,1.9-1.43.02.02.04.04.07.04.25.24,1.86,1.65,3.84-.28,1.03,1.24,2.67,1.37,4.18,1.08.91.7,2.14.62,2.14.62.07.1.17.22.22.32,3.71,5.24,4.07,8.79,4.1,9.18.23-.93.39-1.82.52-2.66-.2,1.57-.49,2.7-.56,2.94v.02s-.02.04-.02.04h.02c.05,1.49.07,5.33-.54,9.3-.51,3.3-1.51,6.71-3.32,8.9-4.19,5.1-6.91,5.21-7.32,5.17-.42.1-3.29.53-8.24-3.89-2.13-1.88-3.64-5.09-4.65-8.28-1.21-3.83-1.78-7.63-1.96-9.11h.02c-.03-.17-.05-.34-.04-.53.05.15.05-1.01.07-1.61.4-3.08,3.22-8.18,3.55-9.06l.41-.08Z"/>
      <path class="cls-31" d="m228.03,38.95c-.08.58-.11,1.12-.07,1.61"/>
      <path class="cls-23" d="m250.03,29.89s3.97,5.77,3.97,9.1"/>
      <path class="cls-31" d="m227.91,40.46v.02c0,.06.02.25.07.55v.02s0,.04,0,.04"/>
      <path class="cls-31" d="m254.02,38.99v-.04"/>
      <path class="cls-31" d="m253.99,38.35s.02.21.02.57"/>
      <path class="cls-23" d="m253.45,48.29h.02c.21-.08,1.65-.71,2.16-3.22.56-2.71,1.7-2.58,1.39-5.25-.32-2.51-2.75-1.02-3.01-.83"/>
      <path class="cls-23" d="m245.05,25.16c-.5.93-1,1.64-1.48,2.12-.06.07-.1.14-.16.16"/>
      <path class="cls-23" d="m239.57,27.71l-.05-.04"/>
      <path class="cls-20" d="m242.25,38.66s.89,7.98,2.63,11.99c0,0-.34.82-2.93.31"/>
      <ellipse class="cls-34" cx="236.9" cy="42.48" rx=".28" ry=".8" transform="translate(-2.57 18.4) rotate(-4.42)"/>
      <ellipse class="cls-34" cx="247.89" cy="41.43" rx=".28" ry=".8" transform="translate(-2.46 19.25) rotate(-4.42)"/>
      <line class="cls-19" x1="242.52" y1="172.9" x2="241.95" y2="148.37"/>
      <path class="cls-5" d="m216.53,103.17c1.83-1.94,3.55-3.97,5.09-6.09.08.92.04,2.89-.08,5.4-.2,5.03-.67,12.19-.96,16.73,1.08,1.57,2.08,3.2,3.02,4.83.59,1.02.67,2.26.2,3.34-.06.14-.12.31-.2.45.08.04.14.06.22.08,8.74,2.79,18.26,3.12,27.2,1.06,1.81-.41,3.71-1,4.83-2.57.18-.26.37-.55.49-.86,2.32,2.91,4.79,5.75,7.42,8.42,2.24,2.26,5.73,2.77,8.54,1.26,2.1-1.12,3.3-3.26,3.3-5.46,0-1.04-.26-2.1-.83-3.08-1.57-2.69-3.2-5.22-5.01-7.8-1-1.43-2.85-3.83-3.87-5.14-.45-.57-.67-1.3-.63-2.04.31-5.03,2.91-27.1-3.24-35.5-.21-.29-.37-.63-.61-.9-2.63-2.67-7.89-5.87-11.21-7.19-.22.14-.45.26-.67.39h-.02l-.49.22c-.55.24-1.12.43-1.69.57-4.79,1.14-10.23-.9-12.08-1.67-.43-.18-.65-.31-.65-.31-3,.39-5.95,1.04-8.82,2-3.14,1.06-5.89,2.3-8.5,4.38-2.63,2.14-4.97,4.63-7.19,7.19-1.08,1.24-2.12,2.51-3.16,3.79-.51.61-1.02,1.22-1.53,1.85"/>
      <path class="cls-19" d="m250.2,68.12c-.22.14-.45.26-.67.39h-.02c-.16.08-.33.16-.49.22-.55.24-1.12.43-1.69.57l1.79-.73.45-.18.63-.26Z"/>
      <path class="cls-23" d="m259.8,97.18c-.1,2.91-1.88,21.38-2.36,24.27-.29,1.69-.55,3.53-1.57,4.95-1.12,1.57-3.02,2.16-4.83,2.57"/>
      <path class="cls-33" d="m241.57,138.02s-5.94-2.81-5.94-2.81c-.88-.41-1.78-.77-2.64-1.22-.43-.23-.86-.48-1.25-.77-.36-.27-.83-.64-.17-.72.44-.05.9.02,1.34.06.68.05,1.43.11,2.1-.06.38-.09.75-.32.9-.68.19-.47-.05-1.02-.45-1.34-.01-.01-.03-.02-.04-.03-.42-.31-.95-.43-1.47-.52-1.65-.3-3.38-.39-5.01-.8-.94-.24-1.77-.64-2.74-.79-.79-.12-1.59-.15-2.39-.12l-1.07-1.19c.03-.06.05-.09.05-.09-.33-.37-.66-.75-.99-1.12-1.35,2.12-2.7,4.24-4.05,6.35.85.66,1.38,1.06,1.39,1.04,0,0,0-.01.02-.03.58,2.96,2.67,6.02,5.09,7.52.24.15.5.3.7.5.16.16.27.36.39.55.66,1.13,1.28,2.29,1.86,3.47.36.74.82,2.5,1.85,2.52.71.02,1.21-.76.89-1.39-.58-1.14-1.17-2.27-1.78-3.4-.23-.42-.5-.82-.67-1.27-.05-.14-.22-.47-.14-.63.44-.79,1.53.69,1.81,1.01.52.6,1.04,1.19,1.57,1.77.75.84,1.5,1.66,2.26,2.47.48.51,1.09,1.5,1.93,1.14.58-.25.77-1.05.33-1.51-.25-.26-.49-.51-.73-.77-.04-.1-.1-.19-.17-.28-.82-.94-1.61-1.9-2.38-2.88-.38-.49-.76-.98-1.14-1.48-.16-.21-1.11-.97-.78-1.27.37-.35,1.4.74,1.66.92.76.51,1.51,1.01,2.26,1.52,1.01.68,2,1.39,3.01,2.07.63.42,1.7,1.47,2.46.75.4-.38.38-1.09-.04-1.45-.04-.05-.08-.11-.14-.16-1.27-1.23-2.7-2.29-4.11-3.36-.69-.52-1.38-1.05-2.05-1.61-.34-.29-.68-.58-1.01-.89-.13-.13-.54-.38-.38-.6.16-.21.63,0,.8.07.47.18.88.52,1.34.68.78.28,1.57.57,2.35.85,1.09.4,2.18.81,3.27,1.22.65.24,1.63.95,2.28.36.47-.42.37-1.34-.21-1.61Z"/>
      <path class="cls-5" d="m216.53,103.17c-1.61,1.71-3.28,3.34-4.97,4.95,3.44,3.61,6.46,7.28,9.03,11.09,1.08,1.57,2.08,3.2,3.02,4.83.59,1.02.67,2.26.2,3.34-.06.14-.12.31-.2.45-.69,1.63-1.47,3.22-2.4,4.75-.75,1.24-2.32,1.71-3.65,1.1-4.71-2.18-9.11-5.11-13.1-8.38-3.36-2.75-6.79-5.75-8.86-9.62-3.48-6.48-.88-13.88,2.73-19.69,2.06-3.34,4.57-6.42,7.07-9.46"/>
      <line class="cls-7" x1="244.23" y1="69.3" x2="242.53" y2="129.79"/>
      <line class="cls-7" x1="241.27" y1="76.11" x2="247.89" y2="76.11"/>
      <circle class="cls-22" cx="237" cy="42.66" r="3.83"/>
      <circle class="cls-22" cx="248.33" cy="41.51" r="3.83"/>
      <path class="cls-22" d="m239.89,40.09s2.65-2.08,5.09-.5"/>
      <line class="cls-37" x1="238.3" y1="34.77" x2="244.62" y2="33.92"/>
      <line class="cls-37" x1="237.66" y1="32.26" x2="243.98" y2="31.41"/>
      <path class="cls-22" d="m245.15,55.89c-1.04.48-2.71.76-4.83-.53"/>
      <path class="cls-22" d="m237.91,56.1s-.97-1,.38-2.53"/>
      <path class="cls-22" d="m246.92,54.04s1.3.51.71,2.46"/>
      <line class="cls-20" x1="232.85" y1="42.19" x2="226.86" y2="40.52"/>
      <line class="cls-27" x1="252.68" y1="40.01" x2="254.62" y2="38.51"/>
    </g>
    <path class="cls-41" d="m429.06,129.84c-1.08,2.94-2.6,7.63-2.96,11.35-.43-.56-.85-1.19-1.25-1.83-1.4-2.3-4.29-5.4-4.29-5.4,1.7-1.69.66-5.29-1.32-5.96-1.98-.67-3.33,1.25-5.14,2.49-1.99,1.35-5.79-1.35-6.96-2.3-1.19-.95-7.2-7.2-7.2-7.2-.87,1.38-2.19,3.92-1.82,7.34-1.37-.37-3.52-1.38-3.71-4.18-.37-5.01,3.95-6.17,3.95-6.17,1.4-4.39,11.07-9.1,21.74-6.25,5.43,1.45,7.31,5.21,7.52,8.89,0,0,2.97,4.97,1.43,9.22Z"/>
    <path class="cls-21" d="m459.63,210.94s-1.94,2.23-4.69,5.35c-2.11,2.38-4.66,5.27-7.15,8.07-4.69,5.24-9.18,10.11-9.98,10.57-.76.42-1.19.21-1.62-.37-.59-.79-1.17-2.27-2.57-3.6-1.12-1.08-2.52-1.53-3.33-2.01-.42-.24-.67-.5-.67-.84,0-.21.64-1.25,1.72-2.83-3.52-.31-6.2-.88-7.1-1.33-2.49-1.24-9.72-3.95-10.64-4.98-.9-1.01,2.49-4.63,3.29-8.37.58-2.73-2.15-7.75-4.9-12.5-2.47,4.24-21.15,9.18-22.05,8.49-.26-.19-1.45-7.94-1.54-9.63-.08-.93,13.87-4.6,13.98-4.74.47-.56.11-36.77,3.09-39.31,1.83-1.56,8.11-3.4,8.11-3.4,0,0-.5.83-.53,1.83-.11,2.54.34,6.93,4.37,7.46,4.63.59,9.27-3.12,12.04-7.47,1.32-2.07,1.66-2.97,2.04-4.13.03-.08.06-.18.1-.27,0,0,4.4,1.29,11.2,2.49,6.78,1.21,10.29,10.3,13.45,17.98,3.17,7.7,7.36,26.82,8.37,31.79,1.01,4.98-4.98,11.76-4.98,11.76Z"/>
    <path class="cls-28" d="m380.03,192.83s.24-1.53,3.02-1.1c2.78.43,8.35,2.08,10.23,1.07s.7-3.7-2.34-5c-3.04-1.3-11.37-2.51-13.13-5.08-1.76-2.56-.45-3.03.47-6.97.91-3.94-2.66-8.35-1.94-9.62.73-1.27,6.3-11.97,5.5-18.5-.8-6.53-3.28-8.1-5.05-4.74-1.77,3.37-.97,14.75-1.79,16.77-.82,2.02-1.06,4.96-3.03,4.38s-3.98-.63-5.07-.33-2.03-4.28-1.06-8.17,2.56-12.81.3-14.37c-2.26-1.55-5.4,3.4-5.82,7.72s1.63,12.06,2.21,14.48.1,2.37-2.07,5.28c-2.17,2.91-1.98,8.34-.64,10.76,1.34,2.42.61,4.26-3.33,5.42-3.94,1.16-7.26,2.23-9.81,4.06s-2.13,3.79-.25,4.35,8.39-1.25,12.25-2.97c0,0-1.15,12.48-.3,21.08s1.44,17.27,4.28,18.87c2.85,1.6,4.89-.56,4.86-3.97s-2.01-13.14,3.02-13.79c5.03-.65,2.66,17.53,8.75,16.6s1.95-18.76,1.52-20.94c-.43-2.18-1.6-11.61-.77-15.3Z"/>
    <path class="cls-19" d="m388.6,198.71c-.08-1.02-5.56-4.72-8.71-5.82-3.05-1.08-3.97-1.93-6.09-1.14-1.9.69-4,.74-3.79,1.78.22,1.03,1.43,1.7,3.31,1.54,1.74-.16,1.35-.77,3.26.1,1.93.88,2.31,3.05,3.66,4.32l.47,6.11s2.88,1.53,5.22.59c2.35-.95,3.55-.47,3.55-.47,0,0-.74-5.32-.88-7.02Z"/>
    <path class="cls-23" d="m364.33,183.7s4.03,2.18,9.27-.69"/>
    <ellipse class="cls-42" cx="364.81" cy="171.44" rx=".66" ry=".91" transform="translate(-5.36 11.89) rotate(-1.85)"/>
    <ellipse class="cls-42" cx="370.9" cy="171.52" rx=".66" ry=".91" transform="translate(-5.36 12.09) rotate(-1.85)"/>
    <ellipse cx="367.44" cy="174.75" rx=".99" ry=".72" transform="translate(-13.75 32.46) rotate(-4.96)"/>
    <path class="cls-35" d="m369.91,176.85c-1.56.25-2.43-1.79-2.43-1.79,0,0-.78,1.93-2.15,1.95"/>
    <path class="cls-23" d="m397.97,129.22s-3.35-.63-3.64-4.79c-.36-5.02,3.96-6.17,3.96-6.17,1.4-4.39,11.08-9.1,21.76-6.25,10.68,2.85,7.6,14.64,5.22,17.17"/>
    <path class="cls-23" d="m427.79,121.58s2.73,4.28,1.19,8.54c-1.34,3.72-3.03,7.73-2.55,11.52"/>
    <path class="cls-23" d="m431.49,147.19c-.39,1.16-.72,2.06-2.04,4.13-2.76,4.36-7.41,8.07-12.04,7.47-4.03-.53-4.48-4.92-4.37-7.46.02-.05.03-.1.05-.14.79-2.47,1.35-4.56,1.69-5.08-.76.74-4.55,2.72-8.28,3.49-3.95.8-4.19-2.07-5.7-6.03-1.49-3.92-3.47-3.73-3.79-4.74-.32-1.03,2.7-3.81,1.43-8.23-.14-.48-.24-.93-.31-1.4-.61-3.73.82-6.48,1.74-7.94,0,0,6.01,6.25,7.2,7.2,1.17.95,4.97,3.65,6.96,2.3,1.82-1.24,3.17-3.17,5.14-2.49,1.98.67,3.02,4.27,1.32,5.96,0,0,2.89,3.1,4.29,5.4,2.76,4.5,6.56,7.38,6.56,7.38l.16.18Z"/>
    <path d="m400.53,133.49c-.37-.73-.25-1.52.26-1.78.51-.26,1.21.12,1.58.84.37.71.25,1.5-.24,1.76-.51.26-1.23-.11-1.59-.82Z"/>
    <path class="cls-23" d="m418.41,131.23s-1.34.87-1.5,2.49"/>
    <path class="cls-23" d="m407.03,159.71s-.42,13.58-.22,18.33c.11,2.71,2.22,12.29,5.18,20.06"/>
    <path class="cls-23" d="m439.27,161.06s-1.24,6.33.23,10.63,11.2,28.05,11.2,28.05"/>
    <path class="cls-23" d="m431.32,225.29c4.63-6.36,15.72-21.47,17.79-23.85,3.84-4.4,8.37-1.35,8.37-1.35"/>
    <path class="cls-19" d="m456.91,243.23s1.04,2.07,2.57,4.82c1.12,2.04,1.17,8.02.5,11.35-.23,1.19-.55,2.04-.95,2.23-1.51.76-6.04.76-13.58,5.74-7.54,4.97-17.04,9.05-24.73,12.81-7.7,3.78-16.44,3.17-21.57,1.51-5.13-1.66-5.29-7.09-5.29-7.09-5.13.61-6.49-.95-9.35-4.82-2.84-3.87-3.62-9.05,4.84-23.99,8.44-14.93,24.23-26.81,24.23-26.81.92,1.03,8.15,3.74,10.64,4.98.9.45,3.58,1.03,7.1,1.33-1.08,1.57-1.72,2.62-1.72,2.83,0,.34.26.59.67.84.8.48,2.2.93,3.33,2.01,1.4,1.33,1.98,2.81,2.57,3.6.43.58.87.79,1.62.37.8-.47-2.49-7.55,2.2-12.79,1.7-.42,3.33-.95,4.84-1.64,5.05-2.31,12.76-6.04,13.56-8.01.69,1.41,6.03,8.3,6.35,16.85.07,1.92-.47,3.91-1.4,5.74-2.28,4.47-6.44,8.15-6.44,8.15Z"/>
    <path class="cls-23" d="m456.91,243.23s-13.26,10.9-19.31,15.38c-6.05,4.48-20.66,11.46-21.87,14.18"/>
    <path class="cls-23" d="m393.87,274.6c-1.51-6.49,4.68-14.93,4.68-14.93,6.33-7.09,16.06-19.08,21.27-24.17"/>
    <path class="cls-23" d="m471.55,266.14c-2.84,4-3.73,5.77-7.09,4.08-3.36-1.69-2.99-2.02-3.47-6.94-.19-1.78-.58-3.02-1.01-3.89.67-3.33.63-9.3-.5-11.35-1.53-2.75-2.57-4.82-2.57-4.82,0,0,4.16-3.68,6.44-8.15.63-.02,3.83.1,4.27,3.62.48,3.92,1.66,11.17,4.07,14.78,2.41,3.62,2.68,8.68-.14,12.66Z"/>
    <path class="cls-35" d="m404.38,145.19c-1.12.49-3.51.61-3.94-1.87,0,0,3.65-.99,5.67-2.12,1.03-.58-.48,3.44-1.74,3.99Z"/>
    <path class="cls-23" d="m421.22,133.01s-.81,2.37-3.56,3.24"/>
    <path class="cls-19" d="m435.03,233.14c-2.17,2.88-5.34,7.39-6.41,10.54-1.7,4.98-4.87,10.53-5.88,10.08-1.01-.45,2.17-8.12,2.49-9.4.31-1.27-1.32.34-3.97,3.41-2.64,3.07-2.81,5.19-5.64,5.99-3.62,1.01,6.33-11.43,6.33-11.43-2.15,1.8-7.81,11.65-9.63,11.54-1.8-.11-.93-1.82,1.03-5.21,1.96-3.41,6.22-8.82,6.22-8.82,0,0-2.15,1.46-3.95,2.94-1.82,1.46-4.53,6.56-5.54,6.22-1.03-.34-.8-2.15,1.12-5.32,1.93-3.17,4.42-5.77,4.42-5.77-.35-3.5,2.94-5.54,6.44-6.78,3.5-1.25,7.01-3.5,7.01-3.5l.06-.1c.8.48,2.2.93,3.33,2.01,1.4,1.33,1.98,2.81,2.57,3.6Z"/>
    <path class="cls-25" d="m456.03,274.24c-.82-2.87-2.2-9.34-2.38-10.81-.62-4.97-.78-11.62-2.91-14.75-2.36-3.48-6.82-4.34-8.01-4.02-12.41,3.41-13.41.33-13.41.33,0,0-6.13,6.95-7.68,11-1.55,4.06-2,22.55-2,22.55l.7,5.62,28.94,8.09s5.37-2.21,6.76-7.52c1.39-5.31.7-8.03,0-10.5Z"/>
    <g>
      <path class="cls-12" d="m419.55,273.49c-4.79-2.78-14.27-.02-16.99,2.51-1.05-1.23-2.13-2.48-3.55-3.25-1.42-.76-3.28-.94-4.6,0-1.19.85-1.67,2.37-1.93,3.81-.45,2.47-.5,5.01-.12,7.5.35,2.32,1.35,4.89,3.57,5.65,1.26.43,2.66.16,3.91-.31,1.25-.47,2.43-1.13,3.71-1.5,3.77-1.1,14.61,3.54,19.46,1.48l-3.45-15.88Z"/>
      <path class="cls-29" d="m394.41,272.78c1.57-.62,2.41.49,2.98,1.1.56.61.99,1.54,1.2,2.62.11.54.15,1.12.22,1.72.07.6.13,1.22.19,1.86.23,2.55.33,4.88.08,6.54-.12.83-.35,1.48-.63,1.85-.66.79-1.61,1.32-1.59,1.34"/>
    </g>
    <g>
      <path class="cls-9" d="m414.75,222.92c-3.07-6-3.5-13.29-1.16-19.62.44-1.2,1.16-2.52,2.42-2.75,1.41-.26,2.63.98,3.36,2.21,1.63,2.75,2.29,6,2.24,9.2-.06,3.2-.81,6.35-1.84,9.37-.37,1.09-.85,2.24-1.83,2.83"/>
      <path class="cls-9" d="m411.95,223.05c-.71-1.04-1.44-2.08-2.39-2.91s-2.15-1.44-3.4-1.43c-1.82.02-3.38,1.28-4.61,2.62-4.46,4.88-6.63,11.6-6.71,18.21-.03,2.68.29,5.46,1.62,7.79.3.53.69,1.06,1.25,1.29.66.27,1.42.08,2.06-.22,1.62-.77,2.85-2.22,3.67-3.82.82-1.6,1.29-3.35,1.74-5.09,1.3-4.94,2.6-9.88,3.9-14.82"/>
      <path class="cls-9" d="m412.22,223.02c-.43.09-6.41,1.75-9.12,6.57-2.13,3.8-1.37,8.28-.02,10.23,1.35,1.95,6.14,7.05,9.9,6.83,0,0,7.76-.25,10.32-3.03,2.56-2.78,6.06-9.72,3.21-15.62-2.85-5.89-8.72-6.13-14.29-4.99Z"/>
      <path class="cls-9" d="m407.34,279.88c-.56-3.27-.82-6.59-.77-9.91l-5.01-3.51c-.96.39-1.67,1.25-2.09,2.2-.42.95-.57,1.99-.68,3.02-.43,4.19-.15,8.44.51,12.6.18,1.14.44,2.37,1.32,3.11,1.02.86,2.57.77,3.82.28,1.12-.44,2.15-1.2,2.72-2.26.89-1.66.5-3.68.18-5.53Z"/>
      <path class="cls-9" d="m420.86,270.19c-.23-.49-.66-.9-1.2-.99l-6.5,5.45c-1.41,1.23-2.43,2.87-3.15,4.6-.72,1.73-1.15,3.56-1.55,5.39-.35,1.6-.67,3.32-.06,4.84.6,1.47,2.09,2.53,3.67,2.64,1.59.11,3.2-.73,4.04-2.07.82-1.3.93-2.91,1.13-4.43.3-2.23.85-4.43,1.65-6.53.91-2.4,2.15-4.76,2.21-7.32.01-.54-.03-1.09-.26-1.58Z"/>
      <path class="cls-9" d="m411.64,244.45c-3.33,3.64-1.77,1.17-4.13,5.61,0,0-.32.15-1.14,1.05-2.63,2.86-5.19,9.14-5.03,12.79.13,3.2,1.32,6.28,3.48,8.37,2.21,2.13,5.23,3.33,8.22,2.97,3.64-.43,6.92-3.12,8.83-6.57,1.9-3.45,2.46-7.56,2.35-11.52-.1-3.61-.68-10.57-1.49-12.18"/>
      <path d="m404.61,253.51s-.02.05-.06.13c-.05.1-.12.21-.2.35-.09.15-.19.34-.31.55-.12.22-.25.46-.39.74-.57,1.1-1.27,2.68-1.74,4.51-.48,1.83-.56,3.56-.47,4.79.05.62.11,1.12.18,1.46.03.16.05.29.07.39.01.09.02.14.01.14,0,0-.02-.04-.04-.13-.03-.11-.06-.24-.1-.39-.09-.34-.17-.84-.23-1.46-.12-1.24-.05-2.99.43-4.84.47-1.85,1.2-3.43,1.79-4.52.15-.28.28-.52.41-.73.12-.21.23-.4.33-.54.09-.13.16-.24.22-.33.05-.08.08-.11.09-.11Z"/>
      <path class="cls-9" d="m410.81,243.56c-.84-.68-1.95-.93-3.03-1-3.48-.24-6.87,1.07-10.31,1.63-1.33.21-2.74.34-3.82,1.15-.95.71-1.52,1.94-1.37,3.12.14,1.18,1,2.26,2.14,2.61,1.18.36,2.44-.04,3.61-.43,3.93-1.33,7.86-2.67,11.79-4l1.86-.18c.44-.99-.04-2.21-.87-2.89Z"/>
      <path class="cls-23" d="m393.64,245.34c.45.27,1.79.82,2.32,2.33.53,1.51.21,2.76,0,3.25"/>
      <path class="cls-43" d="m410.67,229.77c.14.38-.06.8-.45.94-.38.14-.8-.06-.94-.45s.06-.8.45-.94c.38-.14.8.06.94.45Z"/>
      <path class="cls-43" d="m414.38,228.45c.14.38-.06.8-.45.94-.38.14-.8-.06-.94-.45-.14-.38.06-.8.45-.94.38-.14.8.06.94.45Z"/>
      <path class="cls-33" d="m413.67,233.09s.15.37.36.98c.21.61.5,1.44.84,2.36.34.92.66,1.75.89,2.35.23.6.37.97.35.98"/>
      <path class="cls-30" d="m420.02,222.78s-.03,0-.09,0c-.06,0-.15-.02-.25-.03-.22-.03-.54-.07-.95-.11-.83-.08-2.03-.14-3.51-.03-1.48.12-3.23.45-5.06,1.15-1.83.68-3.72,1.83-5.26,3.48-.77.83-1.41,1.73-1.89,2.68-.48.95-.8,1.93-.97,2.89-.35,1.93-.15,3.73.26,5.14.22.71.49,1.32.78,1.83.15.25.3.48.44.69.16.2.29.39.42.54.14.15.26.29.37.4.11.11.22.2.3.27.08.07.14.12.18.17.04.04.06.06.06.06,0,0-.03-.01-.07-.05-.05-.04-.11-.09-.19-.16-.08-.07-.19-.15-.31-.26-.11-.12-.24-.25-.39-.4-.14-.15-.28-.34-.44-.54-.15-.21-.3-.44-.45-.69-.3-.51-.58-1.13-.81-1.85-.44-1.43-.64-3.24-.3-5.2.17-.97.49-1.97.98-2.94.49-.96,1.14-1.88,1.91-2.72,1.56-1.67,3.47-2.83,5.32-3.51,1.85-.7,3.62-1.02,5.1-1.12,1.49-.1,2.7-.02,3.53.08.41.05.73.1.95.14.1.02.18.03.25.05.06.01.08.02.08.02Z"/>
      <path class="cls-40" d="m411.42,231.84c-.13.1-.28.24-.24.4.03.13.16.21.28.27.54.26,1.1.48,1.67.65.19.06.4.11.59.04.14-.05.25-.16.35-.28.46-.53.82-1.15,1.05-1.82.08-.24-.12-.48-.37-.44-1.11.19-2.51.58-3.32,1.18Z"/>
      <path class="cls-24" d="m403.75,223.13c.97.47,3.61,1.86,3.59,1.9"/>
    </g>
    <g>
      <path class="cls-9" d="m418.88,248.84c-.24-.17-.34-.37-1.43-.93.03-.36.21-1.06.22-1.42.01-.45,0-.94-.29-1.27-.23-.26-.61-.37-.95-.3-.34.08-.63.33-.77.65-.13.29-.07.61-.18.91-.06.18-2.01-.42-2.01-.42-.8-.39-2.13-.83-3-.99-.5-.09-1.19-.15-1.49.43-.18.35-.13.77.07,1.11.31.52.64.61,1.15.88-.22,0-.7.07-.93.17-.33.15-.53.3-.66.69-.11.33.05.83.31,1.06.26.23.56.39.88.51-.72.09-1.39.6-1.13,1.47.2.7,1.64.84,2.1.92,0,0-.42.31-.85.67-.59.49-.57,1.56.44,1.83.39.1.78.01,1.18.07,1.15.16,2.37.86,2.89,1.22,1.38.96,1.69,1.98,3.86,2.47l3.1-8.26c-2.14-1.33-1.7-.89-2.51-1.47Z"/>
      <g>
        <path class="cls-40" d="m447.52,259.76c-3.42,3.25-12.78,5.37-17.96,4.6-5.19-.78-13.99-6.52-13.99-6.52l3.35-9.54s10.51,3.82,10.78,3.78c0,0,13.66-6.44,17.22-4.38"/>
        <path class="cls-28" d="m446.6,247.57c-.2-.08-.52-.16-.94-.22-.42-.03-.95-.05-1.56,0-.61.06-1.31.16-2.08.33-3.09.67-7.38,2.19-12.3,4.45h-.01s0,0,0,0c-.06,0-.12-.02-.19-.03l-.16-.05-.32-.1c-.21-.07-.42-.14-.63-.21-.42-.14-.85-.29-1.28-.44-.86-.3-1.74-.61-2.64-.93-1.8-.65-3.67-1.32-5.6-2.01,0,0-1.54,4.63-2.4,7.06-.29.83-.88,2.34-.88,2.34,2.03,1.3,4.07,2.47,6.07,3.51,2.01,1.03,3.99,1.94,5.96,2.55.99.31,1.97.49,2.94.57.97.05,1.92.07,2.83,0,1.83-.11,3.51-.38,5.02-.72,1.51-.33,2.86-.72,4.01-1.15.14-.05.29-.1.43-.15.14-.06.27-.11.4-.17.26-.11.52-.21.76-.32.24-.11.46-.22.68-.32.11-.05.21-.1.32-.15.1-.06.2-.11.29-.16.38-.21.71-.39.98-.59.27-.19.51-.33.68-.48.17-.14.3-.25.4-.33.09-.07.14-.11.14-.11"/>
      </g>
    </g>
    <g>
      <path class="cls-9" d="m420.52,248.84c1.93,2.74,5.62,8.14,7.55,10.88.34.49.72,1,1.28,1.22.65.26,1.39.04,2.02-.25.81-.38,1.59-.94,1.97-1.75.37-.79.31-1.72.03-2.54-.28-.82-.78-1.55-1.28-2.26-1.94-2.75-4.07-5.38-6.46-7.75-.8-.79-1.83-1.91-3-1.76-1.17.15-3.28,1.58-2.11,4.22Z"/>
      <path class="cls-23" d="m432.78,255.71s-1.66.08-2.94,1.28-1.34,2.52-1.28,3.09"/>
    </g>
    <g>
      <g>
        <path class="cls-25" d="m450.66,291.54c-4.18,2.75-17.86,3.85-20.8,4.35-2.58.44-5.27.09-7.82.7-1.83.44-3.53,1.37-5.4,1.56-3,.3-5.96-1.47-7.64-3.97-1.68-2.5-2.22-5.63-2.11-8.64.06-1.83.48-3.88,2.01-4.89,1.28-.85,3.02-.7,4.39-.02,1.38.68,2.47,1.81,3.53,2.91,1.91-2.83,6.65-4.98,10.33-6.44,3.17-1.25,11.01-3.18,13.45-.79"/>
        <path class="cls-29" d="m440.52,276.25c-.06-.05-.15-.13-.29-.22-.26-.18-.68-.4-1.28-.55"/>
      </g>
      <path class="cls-13" d="m415.7,297.74s.12-.24.24-.7c.12-.46.17-1.16.04-2-.13-.84-.39-1.83-.69-2.92-.31-1.09-.69-2.28-1.15-3.5-.46-1.22-.95-2.37-1.43-3.39-.47-1.03-.97-1.93-1.57-2.53-.59-.61-1.24-.91-1.7-1.01-.46-.11-.73-.07-.73-.09,0,0,.07-.01.19-.02.13,0,.32,0,.55.05.47.09,1.15.38,1.77,1,.63.61,1.14,1.52,1.62,2.55.49,1.02.99,2.17,1.45,3.4.46,1.23.84,2.42,1.14,3.51.29,1.1.55,2.09.66,2.95.12.86.05,1.57-.09,2.03-.07.23-.14.4-.2.52-.06.11-.09.17-.1.17Z"/>
      <path class="cls-26" d="m418.9,288.54c-.4-1.09-2.11-4.97-2.07-4.99"/>
      <g>
        <path class="cls-10" d="m438.35,275.14c1.52-.96,3.49-1.16,5.18-.54"/>
        <path class="cls-26" d="m443.53,274.6s-.29-.07-.77-.16c-.47-.09-1.14-.16-1.87-.08-.73.08-1.37.28-1.82.47-.45.19-.7.34-.72.32,0-.01.23-.2.67-.42.44-.22,1.09-.44,1.85-.52.75-.08,1.44,0,1.91.13.48.12.75.26.75.27Z"/>
      </g>
    </g>
    <path class="cls-19" d="m443.18,244.53c-1.13-2.94,1.39-3.04,1.39-3.04,13.05-2.58,17.38-10.81,16.22-18.99-1.15-8.18-8.66-21-24.44-17.14-15.78,3.85-11.13,16.94-11.13,16.94,0,0-.44,2.07-2.4,2.22-1.97.14-.4,3.21-.4,3.21,0,0-4.77,10.28,3.43,12.55,3,.83,4.34,3.8,4.31,4.87,0,0-.85,3.21,13.02-.62Z"/>
    <path class="cls-23" d="m443.99,230.32s4.41,1.48,1.87,5.11c-2.54,3.63-4.79.43-4.79.43"/>
    <circle cx="428.46" cy="224.54" r="1.02"/>
    <path class="cls-35" d="m431.5,222.26s-.28-2.65-3.04-2.48"/>
    <line class="cls-23" x1="443.87" y1="233.74" x2="442.99" y2="233.33"/>
    <circle class="cls-39" cx="433.22" cy="229.93" r="2.15"/>
    <path class="cls-40" d="m423.95,233.49s-.01.01,0,.02c.14.83.87,1.62,2.15,1.72,1.04.09,1.76-.2,2.26-.57,0,0-.01-.01-.02-.04-.01-.02-.04-.06-.07-.11-.06-.08-.14-.2-.27-.34-.05-.05-.09-.09-.14-.14-.09-.09-.2-.19-.33-.29-.25-.19-.57-.37-.94-.48-.09-.02-.19-.06-.29-.07-.07-.02-.14-.04-.22-.04-.58-.08-1.28-.01-2.11.33Z"/>
    <polygon class="cls-39" points="427.15 233.91 427.15 233.91 427.15 233.91 427.15 233.91"/>
    <path class="cls-39" d="m424.03,233.72c.77-.32,1.43-.38,1.97-.31.08,0,.14.01.21.03.1.01.19.04.27.07.35.11.65.27.88.45.12.09.22.18.31.27.05.04.1.09.13.13.12.13.2.24.25.32.03.04.05.08.07.1.01.02.02.03.02.03.65-.47.89-1.08.89-1.08.35-2-2.98-1.87-2.98-1.87-1.54-.09-2.2.9-2.02,1.85Z"/>
    <path class="cls-39" d="m422.7,232.75h.04s0-.01,0-.01c-.01,0-.02.01-.04.01Z"/>
    <path class="cls-3" d="m426.05,231.98s3.33-.13,2.98,1.87c0,0-.24.6-.89,1.08-.47.34-1.14.62-2.11.53-1.19-.1-1.87-.83-2-1.6-.01-.01,0-.02,0-.02-.18-.94.48-1.93,2.02-1.85Z"/>
    <path class="cls-23" d="m427.43,210.19s3.91,8.91,12.31,9.58c0,0-1.71,5.15,4.54,6.84"/>
    <path class="cls-16" d="m353.09,293.21c-7.6-5.16-38.2-.53-43.34-12.21-5.14-11.66,4.59-16.7,4.59-16.7,0,0,1.66,2.2,4.83,4.02,3.18,1.82,5.87,2.87,7.31,4.05,3.63,3.04,8.2,7.14,7.26,4.55-.24-.68-1.41-2.14-1.69-2.59l2.2,1.48s0,0,.02,0c1.27.83,2.87,1.75,3.39,1.49,1.22.59,2.47,1.18,3.7,1.74,3.97,1.82,7.87,3.33,10.66,3.44.29,0,1.23.57,2.08,1.13.64.42,1.23.82,1.46.99.34.23.69.49,1.07.78,6.94,5.28,4.06,12.97-3.56,7.82Z"/>
    <path class="cls-19" d="m314.09,263.69c-10.79-8.69-2.74-30.5-2.74-30.5,4.43-10.53,12.67-9.24,13.87-12.38,1.2-3.13-.61-3.87-.61-3.87-13.91-2.75-18.52-11.52-17.28-20.23,1.23-8.71,9.23-22.37,26.04-18.26,16.81,4.1,11.86,18.05,11.86,18.05,0,0,.46,2.21,2.55,2.36,2.1.15.43,3.42.43,3.42,0,0,5.08,10.95-3.66,13.38-3.19.88-4.42,1.92-4.38,3.06,0,.04,0,.09,0,.14,0,.06.03.13.04.19.45,1.92,4.14,4.16,7.99,6.63,0,0,0,0,.02,0,.04.03.18.12.41.31.09.08.17.15.27.25,1.14,1.14,3.55,4.35,6.3,12.78,2.34,7.2,3.72,11.64,5.6,14.71,1.17,1.93,2.54,3.34,4.48,4.55,5,3.13,7.37,6.74,4.05,7.09"/>
    <path class="cls-23" d="m335.81,271.25c2.62,1.22,3.58,3.31,4.59,4.06"/>
    <path class="cls-23" d="m339.71,271.22s-.02-.02-.04-.02"/>
    <path class="cls-23" d="m321.81,234.63s.82,15.24.06,21.79c0,0,1.17-.3,5.75,3.97.14.13.28.27.42.41"/>
    <path class="cls-23" d="m334.37,273.39s2.45,1.62,3.22,2.9h.01"/>
    <path class="cls-23" d="m337.6,276.3h-.01"/>
    <line class="cls-23" x1="330.93" y1="263.99" x2="330.92" y2="263.99"/>
    <path class="cls-23" d="m328.04,260.81h-.04"/>
    <path class="cls-16" d="m351.49,253.16s.19,2.7.81,8.56c0,0,6.82,14.1,1.81,21.9,0,0,0,.02-.02.03-4.31-2.55-4.54-.1-9.94-3.08-1.11-.61-2.02-1.11-2.78-1.53l-3.55-1.95c.05-.23-.05-.5-.22-.78.22.16,3.3,2.29,2.79-1,.46.34.92.4,1.55,0,1.91-1.24-1.85-3.83-2.23-4.08,2.46,1.18,4.24.35-1.05-1.51-2.37-.83-3.62-2.04-6.37-4.1l-2.13,1.66-5.11,3.91s-6.61-2.9-9.17-5.29c0,0-2.68-2.7-4.33-4.75-7.62-9.44-.54-31.04,2.91-34.31,3.44-3.27,10.76-6.04,10.76-6.04,14.46,3.06,15.22-.36,14.99-1.77,0-.07-.03-.14-.04-.19-.04-.14-.08-.23-.1-.29.04.05.07.11.09.15,1.2,2.17,1.91,2.65,8.04,6.95,0,0,0,0,.02,0,.14.1.27.2.41.31.09.08.17.15.27.25,6.11,5.54,12.22,27.11,12.22,27.11-.06.11-.16.23-.32.38-1.41,1.29-6.59,3.8-6.59,3.8l-2.72-4.36Z"/>
    <path class="cls-23" d="m356.3,258.38s-.97,10.01,1.16,7.41,1.32-6.45,4.16-3.26c2.85,3.2,2.32,5.3,3.43,3.22,1.11-2.08-1.06-4.75-1.06-4.75"/>
    <path class="cls-23" d="m365.24,263.39s5.29,5.81,2.93.48l-1.86-2.86"/>
    <path class="cls-16" d="m361.44,284.25c-2.23.67-3.08,2.06-3.08,2.06,1.22,1.4,2.54,4.05,2.37,5.63-.39,3.54,20-1.21,16.13-7.77-1.96-3.32-10.55-1.25-10.55-1.25"/>
    <path class="cls-16" d="m364.57,268.59s-4.07-.91-4.38,7.63c-.08,2.14,0,8.58,0,8.58,0,0,5.43-2.16,10.49-2.47,0,0,4.97-8.25,6.3-18.28,1.33-10.02-10.05-7.07-10.05-7.07l-14.6,4.56s6.41,13.13,1.8,22.08l1.45.98s2.28-1.91,4.22-4.71"/>
    <path class="cls-23" d="m325.22,205.03s-4.7,1.57-1.99,5.44c2.71,3.87,5.1.46,5.1.46"/>
    <circle cx="342.11" cy="199.88" r="1.09"/>
    <path class="cls-35" d="m338.53,198.11s.3-2.82,3.24-2.64"/>
    <line class="cls-23" x1="325.36" y1="208.68" x2="326.3" y2="208.24"/>
    <circle class="cls-39" cx="336.71" cy="204.62" r="2.29"/>
    <path class="cls-40" d="m346.5,208.66s.01.01,0,.02c-.14.82-.87,1.6-2.13,1.71-1.03.09-1.74-.2-2.25-.56,0,0,.01-.01.02-.04.01-.02.03-.06.07-.11.06-.08.14-.2.27-.34.05-.05.09-.09.14-.14.09-.09.2-.19.33-.29.25-.19.56-.36.94-.48.09-.02.19-.06.29-.07.07-.02.14-.04.22-.04.57-.08,1.28-.01,2.09.33Z"/>
    <polygon class="cls-39" points="342.12 209.83 342.12 209.83 342.12 209.83 342.12 209.83"/>
    <path class="cls-39" d="m346.5,208.66c-.82-.34-1.52-.41-2.09-.33-.08,0-.15.01-.22.04-.11.01-.2.05-.29.07-.37.12-.69.29-.94.48-.13.09-.23.19-.33.29-.06.05-.11.09-.14.14-.13.14-.21.26-.27.34-.04.05-.06.08-.07.11-.01.02-.02.04-.02.04-.69-.5-.95-1.15-.95-1.15-.37-2.13,3.17-1.99,3.17-1.99,1.64-.09,2.34.96,2.15,1.97Z"/>
    <path class="cls-39" d="m346.53,208.67h-.04s0-.01,0-.01c.01,0,.02.01.04.01Z"/>
    <path class="cls-3" d="m344.34,206.81s-3.55-.14-3.17,1.99c0,0,.26.64.95,1.15.5.36,1.22.66,2.25.56,1.26-.11,1.99-.89,2.13-1.71.01-.01,0-.02,0-.02.19-1.01-.51-2.06-2.15-1.97Z"/>
    <path class="cls-23" d="m342.87,183.59s-4.16,9.5-13.11,10.21c0,0,1.82,5.49-4.83,7.28"/>
    <path class="cls-16" d="m351.49,253.16c-.87-3.49-1.32-6.66-3-11.04"/>
    <path class="cls-16" d="m319.34,250.03c.8,7.64,13.88,14.89,13.88,14.89l-3.07,2.36"/>
    <path class="cls-23" d="m402.37,192.21s1.7,1.36,4.75.9"/>
    <circle class="cls-35" cx="402.05" cy="132.8" r="3.46"/>
    <line class="cls-23" x1="405.85" y1="131.78" x2="414.02" y2="130.76"/>
    <line class="cls-2" x1="398" y1="126.85" x2="401.09" y2="126.02"/>
    <line class="cls-2" x1="398" y1="128.03" x2="401.09" y2="127.2"/>
    <path class="cls-35" d="m406.86,139.61s1.08-.2,1.5,1.36"/>
    <path class="cls-33" d="m147.57,140.96s.85,4.61,2.5,8.43c0,0-.32.78-2.8.3"/>
    <ellipse class="cls-33" cx="143.32" cy="144.6" rx=".26" ry=".76" transform="translate(-10.73 11.49) rotate(-4.42)"/>
    <ellipse class="cls-33" cx="152.1" cy="143.6" rx=".26" ry=".76" transform="translate(-10.63 12.16) rotate(-4.42)"/>
    <path class="cls-33" d="m150.41,153.48s-2.14,1.41-4.9-.45"/>
    <polyline class="cls-1" points="132.4 236.74 132.4 233.57 138.67 234.22 138.63 238.04"/>
    <polyline class="cls-36" points="133.5 237.3 133.57 235.02 137.44 235.37 137.47 237.97"/>
    <path class="cls-1" d="m131.16,236.62s4.41,2.35,7.95,1.19c0,0-.54,9.42-4.48,9.23-3.94-.19-3.38-3.38-3.47-10.42Z"/>
    <path class="cls-4" d="m133.46,233.85s3.66-28.44,1.41-46.32c-2.25-17.88-1.41-36.6-1.41-36.6"/>
    <path class="cls-9" d="m346.94,54.38s.74-5.24,1.15-8.23c.77-5.73,19.47-20.06,36.43-14.07,7.23,2.56,20.56,19.49,14.35,35.69-.04.04-9.47,11.72-17.82,12.16-7.55.4-24.4-9.47-29.11-12.34-4.71-2.87-5-13.2-5-13.2Z"/>
    <g>
      <g>
        <g>
          <g>
            <path class="cls-9" d="m360.39,58.45l-.13,1.68s-1.25.5-1.96-2.03-.3-6.68.85-7.44c1.15-.76,3.11,0,3.58,1.31.47,1.31-2.21,4.8-2.34,6.48Z"/>
            <path class="cls-9" d="m359.71,51.78s1.28.48.5,5.32"/>
          </g>
          <g>
            <path class="cls-9" d="m382.91,68.83l-1.19,1.19s.43,1.27,2.82.17c2.38-1.1,5.27-4.11,5.1-5.48-.17-1.37-2.02-2.37-3.32-1.87-1.3.5-2.21,4.8-3.41,5.99Z"/>
            <path class="cls-9" d="m388.42,65.02s-1.2-.66-4.37,3.08"/>
          </g>
        </g>
        <path class="cls-9" d="m386.53,65.78c-3.91,7.39-13.37,10.5-19.48,7.68-5.77-2.66-9.9-12.04-6.81-19.81,3.28-8.25,9.51-12.96,19.48-7.68,11.25,5.95,11.23,11.47,6.81,19.81Z"/>
        <g>
          <g>
            <path class="cls-32" d="m370.87,56.83c-.57,1.23-1.99,1.77-3.18,1.22-1.19-.55-1.7-1.99-1.14-3.22"/>
            <path class="cls-32" d="m380.98,62.25c-.56,1.23-1.99,1.77-3.18,1.22s-1.7-1.99-1.14-3.22"/>
          </g>
          <path class="cls-32" d="m370.92,62.7c.63.44,1.62.21,2-.47.37-.67.05-1.63-.66-1.94"/>
        </g>
      </g>
      <g>
        <path class="cls-11" d="m360.22,47.48s12.19-10.34,21.89-6.77c10.19,3.75,10.67,21.96,8.55,24.37,0,0-.27-5.4-30.44-17.6Z"/>
        <path class="cls-8" d="m358.17,51.76s6.15-.48,16.97,4.9c8.29,4.12,9.23,7.15,12.83,11.37,0,0,5.57-3.54,3.08-7.57-2.24-3.63-13.38-14.33-28.15-14.24-1.93.01-4.31,1.57-4.73,5.55Z"/>
        <g>
          <g>
            <path class="cls-8" d="m383.42,40.65s-6.65.82-9.24-7.39c-2.6-8.22,4.8-3.49,6.38-1.61,2.82,3.36,4.21,6.18,2.87,9.01Z"/>
            <path class="cls-9" d="m377.47,32.81s3.72,3.36,5.96,7.84"/>
          </g>
          <g>
            <path class="cls-8" d="m382.93,41.12s3.69,5.59,11.63,2.23c7.93-3.36-.47-5.92-2.91-5.9-4.39.04-7.43.81-8.71,3.67Z"/>
            <path class="cls-9" d="m392.76,40.56s-4.97-.65-9.83.56"/>
          </g>
          <rect class="cls-8" x="381.24" y="37.99" width="3.9" height="5.11" rx="1.8" ry="1.8" transform="translate(52.18 -156.71) rotate(24.75)"/>
        </g>
      </g>
    </g>
    <path class="cls-8" d="m348.45,53.64s9.9,12.96,39.09,19.87l1.26,4.91s-21.53,11.44-28.15,9.38c-6.62-2.06-13.01-29.16-13.01-29.16l.82-4.99Z"/>
    <path class="cls-8" d="m360.61,84.16c15.17.07,37.96-16.39,37.96-16.39,0,0-14.67,36.29-23.02,47.19-8.35,10.9-22.8,6.33-31.04,1.97-8.23-4.36-10.42-18.28-10.42-18.28l26.51-14.49Z"/>
    <path class="cls-8" d="m360.61,84.16c15.17.07,37.11-15.54,37.11-15.54,0,0-13.82,35.44-22.17,46.34-8.35,10.9-22.8,6.33-31.04,1.97-8.23-4.36-10.42-18.28-10.42-18.28l26.51-14.49Z"/>
    <path class="cls-8" d="m347.15,48.64c.22,15.52,27.69,64.72,28.41,66,0,0-6.1,20.42-27.41,11.47-21.31-8.96-22.2-17.46-20.41-24.3,1.79-6.84,19.41-53.16,19.41-53.16Z"/>
    <path class="cls-8" d="m348,48.64c.02,1.58-.03,2.27.38,4.28,4.23,20.86,27.18,61.72,27.18,61.72,0,0-6.1,20.42-27.41,11.47-21.31-8.96-22.2-17.46-20.41-24.3,1.22-4.65,10.01-28.05,15.51-42.57.57-1.5,1.1-2.9,1.59-4.18,1.74-4.57,3.16-6.41,3.16-6.41Z"/>
  </g>
  <rect class="cls-38" x="-56.48" y="-50.12" width="1656.38" height="875.1"/>
</svg>