<?xml version="1.0" encoding="UTF-8"?><svg id="Calque_1" xmlns="http://www.w3.org/2000/svg" viewBox="0 0 128 128"><defs><style>.cls-1{stroke:#e30613;stroke-width:8px;}.cls-1,.cls-2,.cls-3,.cls-4,.cls-5,.cls-6,.cls-7,.cls-8{stroke-linecap:round;stroke-linejoin:round;}.cls-1,.cls-5{fill:none;}.cls-2{fill:#77eddf;}.cls-2,.cls-3,.cls-4,.cls-5,.cls-6,.cls-7,.cls-8{stroke:#000;}.cls-3,.cls-7{fill:#fff;}.cls-4,.cls-8{fill:#afaff9;}.cls-9{fill:#ff6d75;}.cls-6{fill:#87ccf3;}.cls-7,.cls-8{stroke-width:1.03px;}</style></defs><path class="cls-7" d="m61.95,7.48s-9.12,3.26-5.59,18.03c0,0,9.09,3.61,18.79-.45,0,0,3.35-14.53-5.85-18.23"/><path class="cls-3" d="m51.04,77.06l-.32.85-1.46,3.85c-.11.26-.39.4-.65.31-.22-.07-.37-.27-.37-.5,0-.05,0-.09.02-.14l.12-.45h.01s.5-1.88.5-1.88l2.17-2.04Z"/><path class="cls-2" d="m56.07,40.69l-.09,7.05-.11,1.49-.11,1.63-.32,4.58-.4,3.79-4.21-.51-.18-10.46s-.59-5.58-.59-10.96h5.48c.16,1.14.34,2.28.51,3.4Z"/><path class="cls-3" d="m53.87,71.64s.91,2.47-.22,4.74c-.02.03-.03.08-.05.12-.66,1.35-.87,2.33-.94,2.86-.03.28-.27.51-.57.52h-.02c-.3,0-.55-.23-.58-.54-.05-.59-.08-1.61.19-2.69l-.96,1.25.33-.85-2.17,2.04-.49,1.88h-.01s-.43.57-.43.57c-.18.21-.48.24-.69.07-.09-.09-.14-.22-.14-.34,0-.07,0-.12.03-.17l2.49-6.7s.91-2.39,1.38-4.12c.01-.02.01-.04.02-.07l-.2-11.51,4.21.51-1.2,11.42c-.01.1-.02.19-.05.27l.09.72Z"/><polygon class="cls-3" points="51.04 77.06 50.71 77.91 48.37 80.98 48.87 79.1 51.04 77.06"/><path class="cls-3" d="m80.18,77.06l.32.85,1.46,3.85c.11.26.39.4.65.31.22-.07.37-.27.37-.5s0-.09-.02-.14l-.12-.45h-.01s-.5-1.88-.5-1.88l-2.17-2.04Z"/><path class="cls-2" d="m81.14,37.29c0,5.38-.59,10.96-.59,10.96l-.2,11.94-4.04.37-.55-5.14-.32-4.58-.11-1.63-.1-1.49-.1-7.05c.21-1.3.4-2.64.59-3.96l-.07.56h5.47Z"/><path class="cls-3" d="m84.12,81.27c0,.12-.07.25-.15.34-.2.18-.51.14-.68-.07l-.44-.56h-.01s-.49-1.89-.49-1.89l-2.16-2.04.32.85-.96-1.25c.27,1.08.24,2.1.19,2.69-.02.31-.28.54-.58.54h-.02c-.3-.01-.52-.24-.57-.52-.07-.54-.28-1.51-.94-2.86-.01-.04-.03-.09-.05-.12-1.13-2.27-.22-4.74-.22-4.74l.09-.72c-.03-.09-.04-.17-.05-.27l-1.06-10.07,4.04-.37-.18,10.02s.01.04.02.07c.47,1.73,1.38,4.12,1.38,4.12l2.49,6.7c.03.05.04.11.04.17Z"/><polygon class="cls-3" points="80.18 77.06 80.5 77.91 82.84 80.98 82.35 79.1 80.18 77.06"/><rect class="cls-1" x="-2086.85" y="-1040.06" width="2655.08" height="1511.77"/><path class="cls-4" d="m55.46,29.11s-6.26-.31-6.2,12.08l5.75.26.45-12.34Z"/><polygon class="cls-3" points="69.53 119.36 68.5 101.28 74.42 101.84 74.01 119.24 69.53 119.36"/><polygon class="cls-3" points="64.62 119.6 64.62 115.59 63.93 104.29 58.69 101.56 59.8 119.25 64.62 119.6"/><path class="cls-4" d="m55.23,70.12l4.02,42.49h6.34s-.03-47.45-.03-47.45l.99-.14,2.02,47.59h6.34s.79-17.49,1.75-33.15c.17-2.78.34-5.52.52-8.08.39-5.7.03-9.91-.63-12.99-.42-1.95-.96-3.45-1.49-4.58-1.12-2.37-2.24-3.12-2.24-3.12-7.32-4.24-13.76,0-13.76,0-1.14,1.67-1.98,3.49-2.59,5.3-.26.79-.48,1.59-.66,2.37-.12.52-.22,1.03-.3,1.52-.99,5.52-.26,10.23-.26,10.23Z"/><path class="cls-4" d="m72.63,125.75l9.14.12c.67,0,1.23-.53,1.25-1.2h0c.01-.47-.24-.9-.65-1.12l-7.78-4.16c-.18-.1-.38-.15-.58-.15h-3.97c-.58,0-1.08.4-1.2.96l-.76,3.41c-.02.08-.03.16-.03.24l-.02.6c-.02.69.53,1.26,1.22,1.26l1.57.02,1.81.02Z"/><path class="cls-4" d="m61.18,125.76l-9.14.12c-.67,0-1.23-.53-1.25-1.2h0c-.01-.47.24-.9.65-1.12l7.78-4.16c.18-.1.38-.15.58-.15h3.97c.58,0,1.08.4,1.2.96l.76,3.41c.02.08.03.16.03.24l.02.6c.02.69-.53,1.26-1.22,1.26l-1.57.02-1.81.02Z"/><path class="cls-4" d="m54.73,74.98h3.36s17.27.03,17.27.03h1.86s0-16.75,0-16.75l-.66-2.9-.44-25.83h0c0-.09.02-.14.02-.14l-4.67-1.26-2.92-.79,2.07,1.84-4.84,4.44-4.92-4.44,1.98-1.84-2.69.62h-.02s-5.14,1.2-5.14,1.2h0s.71,26.09.71,26.09l-.95,19.72Z"/><polygon class="cls-6" points="60.83 29.18 65.75 33.62 62.68 27.54 60.83 29.18"/><polygon class="cls-6" points="65.75 33.62 70.6 29.18 68.65 27.45 65.75 33.62"/><polygon class="cls-6" points="65.75 33.62 70.6 29.18 68.65 27.45 65.75 33.62"/><polygon class="cls-6" points="60.83 29.18 65.75 33.62 62.68 27.54 60.83 29.18"/><polygon class="cls-8" points="65.75 33.62 70.6 29.18 68.65 27.45 65.75 33.62"/><polygon class="cls-8" points="60.83 29.18 65.75 33.62 62.68 27.54 60.83 29.18"/><polygon class="cls-3" points="62.81 27.34 65.75 33.62 68.53 27.34 67.63 25.06 63.17 25.06 62.81 27.34"/><path class="cls-5" d="m71.11,20.13h.01c.1-.02.82-.21,1.24-1.35.46-1.23.98-1.08,1.03-2.35.03-1.2-1.21-.68-1.35-.61"/><path class="cls-3" d="m59.74,14.8h0s0,.03,0,.03h0c-.02.7-.03,2.52.25,4.4.24,1.56.71,3.17,1.57,4.21,1.98,2.41,3.27,2.46,3.46,2.45.2.05,1.56.25,3.9-1.84,1.01-.89,1.72-2.41,2.2-3.92.57-1.81.84-3.61.93-4.31h0c.02-.08.02-.16.02-.25-.03.07-.05.11-.05.11.02-.29.02-.58.02-.87"/><path class="cls-5" d="m72.03,14.81c.04.28.05.53.03.76"/><path class="cls-5" d="m72.09,15.52h0s0,.13-.03.27h0s0,.03,0,.03"/><path class="cls-5" d="m59.73,14.83v-.02"/><path class="cls-5" d="m59.75,14.53s0,.1-.01.27"/><path class="cls-3" d="m65.17,15.98s-.42,3.78-1.24,5.67c0,0,.16.39,1.39.15"/><ellipse class="cls-3" cx="67.7" cy="17.79" rx=".38" ry=".13" transform="translate(44.74 83.92) rotate(-85.58)"/><ellipse class="cls-3" cx="62.5" cy="17.3" rx=".38" ry=".13" transform="translate(40.43 78.27) rotate(-85.58)"/><rect class="cls-3" x="59.07" y="36.74" width="3.62" height="1.5"/><path class="cls-4" d="m75.56,29.39s6.26-.31,6.2,12.08l-5.75.26-.45-12.34Z"/><polygon class="cls-3" points="71.76 3.58 59.89 3.81 61.6 9.67 70.28 9.5 71.76 3.58"/><polygon class="cls-9" points="64.2 7.24 65.3 7.21 65.33 8.32 66.54 8.3 66.52 7.19 67.62 7.17 67.59 5.96 66.49 5.98 66.46 4.87 65.25 4.9 65.27 6 64.17 6.02 64.2 7.24"/><line class="cls-5" x1="55.13" y1="62.58" x2="55.04" y2="62.57"/><path class="cls-4" d="m67.53,36.86h5.66v3.61c0,1.56-1.27,2.83-2.83,2.83h0c-1.56,0-2.83-1.27-2.83-2.83v-3.61h0Z"/><path class="cls-5" d="m59.72,14.67s3.1-.14,8.46-2.92c0,0,1.53,3.41,3.85,3.06"/></svg>