<?xml version="1.0" encoding="UTF-8"?><svg id="Calque_1" xmlns="http://www.w3.org/2000/svg" viewBox="0 0 128 128"><defs><style>.cls-1{stroke:#e30613;stroke-width:8px;}.cls-1,.cls-2,.cls-3,.cls-4,.cls-5,.cls-6,.cls-7{stroke-linecap:round;stroke-linejoin:round;}.cls-1,.cls-5{fill:none;}.cls-2{fill:#77eddf;}.cls-2,.cls-3,.cls-4,.cls-5,.cls-6,.cls-7{stroke:#000;}.cls-3{fill:#fff;}.cls-4,.cls-7{fill:#afaff9;}.cls-6{fill:#87ccf3;}.cls-7{stroke-width:1.03px;}</style></defs><rect class="cls-1" x="-1953.06" y="-1040.06" width="2655.08" height="1511.77"/><path class="cls-3" d="m49.43,76.36l-.32.85-1.46,3.85c-.11.26-.39.4-.65.31-.22-.07-.37-.27-.37-.5,0-.05,0-.09.02-.14l.12-.45h.01s.5-1.88.5-1.88l2.17-2.04Z"/><path class="cls-2" d="m54.46,39.98l-.09,7.05-.11,1.49-.11,1.63-.32,4.58-.4,3.79-4.21-.51-.18-10.46s-.59-5.58-.59-10.96h5.48c.16,1.14.34,2.28.51,3.4Z"/><path class="cls-3" d="m52.26,70.93s.91,2.47-.22,4.74c-.02.03-.03.08-.05.12-.66,1.35-.87,2.33-.94,2.86-.03.28-.27.51-.57.52h-.02c-.3,0-.55-.23-.58-.54-.05-.59-.08-1.61.19-2.69l-.96,1.25.33-.85-2.17,2.04-.49,1.88h-.01s-.43.57-.43.57c-.18.21-.48.24-.69.07-.09-.09-.14-.22-.14-.34,0-.07,0-.12.03-.17l2.49-6.7s.91-2.39,1.38-4.12c.01-.02.01-.04.02-.07l-.2-11.51,4.21.51-1.2,11.42c-.01.1-.02.19-.05.27l.09.72Z"/><polygon class="cls-3" points="49.43 76.36 49.1 77.2 46.76 80.27 47.26 78.4 49.43 76.36"/><path class="cls-3" d="m78.57,76.36l.32.85,1.46,3.85c.11.26.39.4.65.31.22-.07.37-.27.37-.5,0-.05,0-.09-.02-.14l-.12-.45h-.01s-.5-1.88-.5-1.88l-2.17-2.04Z"/><path class="cls-2" d="m79.53,36.59c0,5.38-.59,10.96-.59,10.96l-.2,11.94-4.04.37-.55-5.14-.32-4.58-.11-1.63-.1-1.49-.1-7.05c.21-1.3.4-2.64.59-3.96l-.07.56h5.47Z"/><path class="cls-3" d="m82.51,80.57c0,.12-.07.25-.15.34-.2.18-.51.14-.68-.07l-.44-.56h-.01s-.49-1.89-.49-1.89l-2.16-2.04.32.85-.96-1.25c.27,1.08.24,2.1.19,2.69-.02.31-.28.54-.58.54h-.02c-.3-.01-.52-.24-.57-.52-.07-.54-.28-1.51-.94-2.86-.01-.04-.03-.09-.05-.12-1.13-2.27-.22-4.74-.22-4.74l.09-.72c-.03-.09-.04-.17-.05-.27l-1.06-10.07,4.04-.37-.18,10.02s.01.04.02.07c.47,1.73,1.38,4.12,1.38,4.12l2.49,6.7c.03.05.04.11.04.17Z"/><polygon class="cls-3" points="78.57 76.36 78.89 77.2 81.23 80.27 80.73 78.4 78.57 76.36"/><path class="cls-4" d="m53.85,29.11s-6.26-.31-6.2,12.08l5.75.26.45-12.34Z"/><polygon class="cls-3" points="67.92 119.36 66.89 101.28 72.81 101.84 72.4 119.24 67.92 119.36"/><polygon class="cls-3" points="63.01 119.6 63.01 115.59 62.32 104.29 57.08 101.56 58.19 119.25 63.01 119.6"/><path class="cls-4" d="m53.61,70.12l4.02,42.49h6.34s-.03-47.45-.03-47.45l.99-.14,2.02,47.59h6.34s.79-17.49,1.75-33.15c.17-2.78.34-5.52.52-8.08.39-5.7.03-9.91-.63-12.99-.42-1.95-.96-3.45-1.49-4.58-1.12-2.37-2.24-3.12-2.24-3.12-7.32-4.24-13.76,0-13.76,0-1.14,1.67-1.98,3.49-2.59,5.3-.26.79-.48,1.59-.66,2.37-.12.52-.22,1.03-.3,1.52-.99,5.52-.26,10.23-.26,10.23Z"/><path class="cls-4" d="m71.02,125.75l9.14.12c.67,0,1.23-.53,1.25-1.2h0c.01-.47-.24-.9-.65-1.12l-7.78-4.16c-.18-.1-.38-.15-.58-.15h-3.97c-.58,0-1.08.4-1.2.96l-.76,3.41c-.02.08-.03.16-.03.24l-.02.6c-.02.69.53,1.26,1.22,1.26l1.57.02,1.81.02Z"/><path class="cls-4" d="m59.57,125.76l-9.14.12c-.67,0-1.23-.53-1.25-1.2h0c-.01-.47.24-.9.65-1.12l7.78-4.16c.18-.1.38-.15.58-.15h3.97c.58,0,1.08.4,1.2.96l.76,3.41c.02.08.03.16.03.24l.02.6c.02.69-.53,1.26-1.22,1.26l-1.57.02-1.81.02Z"/><path class="cls-4" d="m53.12,74.98h3.36s17.27.03,17.27.03h1.86s0-16.75,0-16.75l-.66-2.9-.44-25.83h0c0-.09.02-.14.02-.14l-4.67-1.26-2.92-.79,2.07,1.84-4.84,4.44-4.92-4.44,1.98-1.84-2.69.62h-.02s-5.14,1.2-5.14,1.2h0s.71,26.09.71,26.09l-.95,19.72Z"/><polygon class="cls-6" points="59.22 29.18 64.14 33.62 61.07 27.54 59.22 29.18"/><polygon class="cls-6" points="64.14 33.62 68.99 29.18 67.04 27.45 64.14 33.62"/><polygon class="cls-6" points="64.14 33.62 68.99 29.18 67.04 27.45 64.14 33.62"/><polygon class="cls-6" points="59.22 29.18 64.14 33.62 61.07 27.54 59.22 29.18"/><polygon class="cls-7" points="64.14 33.62 68.99 29.18 67.04 27.45 64.14 33.62"/><polygon class="cls-7" points="59.22 29.18 64.14 33.62 61.07 27.54 59.22 29.18"/><polygon class="cls-3" points="61.2 27.34 64.14 33.62 66.91 27.34 66.02 25.06 61.56 25.06 61.2 27.34"/><path class="cls-5" d="m69.5,20.13h.01c.1-.02.82-.21,1.24-1.35.46-1.23.98-1.08,1.03-2.35.03-1.2-1.21-.68-1.35-.61"/><path class="cls-3" d="m68.54,10.49c-.55.03-1.18-.1-1.81-.54-.26.16-.54.24-.84.21-.42-.04-.7-.33-.9-.68-.01,0-.02.02-.03.02-.12.11-.88.78-1.82-.13-.49.59-1.26.65-1.98.51-.43.33-1.01.3-1.01.3-.03.05-.08.1-.1.15-1.76,2.48-1.93,4.16-1.94,4.34-.11-.44-.19-.86-.25-1.26.09.74.23,1.28.27,1.39h0s0,.03,0,.03h0c-.02.7-.03,2.52.25,4.4.24,1.56.71,3.17,1.57,4.21,1.98,2.41,3.27,2.46,3.46,2.45.2.05,1.56.25,3.9-1.84,1.01-.89,1.72-2.41,2.2-3.92.57-1.81.84-3.61.93-4.31h0c.02-.08.02-.16.02-.25-.03.07-.05.11-.05.11.02-.29.02-.58.02-.87-.19-1.46-1.52-3.87-1.68-4.29l-.19-.04Z"/><path class="cls-5" d="m70.42,14.81c.04.28.05.53.03.76"/><path class="cls-5" d="m70.43,15.82s0-.01.01-.02h0c.06-.15.38-.86.6-1.83v-.03c.44-1.94.45-4.88-2.78-6.19,0,0-.2-1.07-1.57-.9,0,0-1.58-1.73-3.49-.31-1.32-.37-1.69.65-1.69.65-3.65.86-3.88,4.15-3.67,6.11,0,.04.01.07.01.1"/><path class="cls-5" d="m60.01,10.53s-1.88,2.73-1.88,4.31"/><path class="cls-5" d="m70.47,15.52h0s0,.13-.03.27h0s0,.03,0,.03"/><path class="cls-5" d="m58.12,14.83v-.02"/><path class="cls-5" d="m58.14,14.53s0,.1-.01.27"/><path class="cls-5" d="m58.39,19.23h-.01c-.1-.04-.78-.33-1.02-1.52-.26-1.28-.8-1.22-.66-2.48.15-1.19,1.3-.48,1.42-.39"/><path class="cls-3" d="m63.69,14.67s-.42,3.78-1.24,5.67c0,0,.16.39,1.39.15"/><ellipse class="cls-3" cx="66.22" cy="16.48" rx=".38" ry=".13" transform="translate(44.68 81.23) rotate(-85.58)"/><ellipse class="cls-3" cx="61.02" cy="15.98" rx=".38" ry=".13" transform="translate(40.38 75.59) rotate(-85.58)"/><rect class="cls-3" x="57.46" y="36.74" width="3.62" height="1.5"/><path class="cls-4" d="m73.95,29.39s6.26-.31,6.2,12.08l-5.75.26-.45-12.34Z"/><line class="cls-5" x1="53.52" y1="62.58" x2="53.43" y2="62.57"/><path class="cls-4" d="m65.92,36.86h5.66v3.61c0,1.56-1.27,2.83-2.83,2.83h0c-1.56,0-2.83-1.27-2.83-2.83v-3.61h0Z"/></svg>