<?xml version="1.0" encoding="UTF-8"?>
<svg id="Calque_1" data-name="Calque 1" xmlns="http://www.w3.org/2000/svg" viewBox="0 0 200 128">
  <defs>
    <style>
      .cls-1, .cls-2, .cls-3, .cls-4, .cls-5, .cls-6, .cls-7, .cls-8, .cls-9, .cls-10 {
        stroke-linecap: round;
        stroke-linejoin: round;
      }

      .cls-1, .cls-2, .cls-3, .cls-5, .cls-6, .cls-7, .cls-8, .cls-11, .cls-12, .cls-13, .cls-10 {
        stroke: #000;
      }

      .cls-1, .cls-14 {
        fill: #d6d6d6;
      }

      .cls-2 {
        fill: #baa584;
      }

      .cls-3 {
        fill: #fce9b9;
      }

      .cls-4 {
        stroke: #f3d587;
      }

      .cls-4, .cls-5 {
        fill: #f3d587;
      }

      .cls-6, .cls-12 {
        fill: #fff;
      }

      .cls-7, .cls-9, .cls-13 {
        fill: none;
      }

      .cls-8 {
        fill: #fab0b4;
      }

      .cls-15 {
        fill: #ffce00;
      }

      .cls-11 {
        fill: #ff6d75;
      }

      .cls-11, .cls-12, .cls-13 {
        stroke-miterlimit: 10;
      }

      .cls-9 {
        stroke: #fff;
        stroke-width: 8px;
      }
    </style>
  </defs>
  <path class="cls-14" d="m7.09,74.7c-.39.46-.84.87-1.25,1.31-.68.72-1.22,1.54-1.49,2.5-.41,1.43.09,3.08,1.47,3.79.44.22.91.32,1.4.35.32,1.24,1.2,2.33,2.28,3,1.46.9,3.34.75,4.81-.02.08-.01.17-.02.25-.04,1.03-.24,1.94-.95,2.57-1.78.81-1.07,1.39-2.2,1.47-3.56.04-.71-.18-1.49-.57-2.08-.45-.68-1.09-1.11-1.82-1.4-.09-.31-.21-.62-.36-.96-.49-1.04-1.46-1.93-2.49-2.41-.96-.44-2.15-.81-3.22-.8-.89,0-1.77.37-2.37,1.03-.29.32-.47.7-.68,1.07Z"/>
  <path class="cls-14" d="m164.15,81.44c-.03-.6.01-1.2.01-1.81,0-.99-.17-1.96-.63-2.84-.69-1.32-2.18-2.18-3.68-1.75-.47.14-.89.39-1.26.71-1.09-.68-2.48-.87-3.72-.61-1.68.35-2.95,1.75-3.48,3.32-.05.07-.11.13-.15.2-.58.88-.76,2.02-.65,3.06.15,1.34.5,2.56,1.38,3.6.46.54,1.15.96,1.84,1.12.79.18,1.56.06,2.28-.23.28.16.58.31.92.45,1.07.42,2.39.4,3.47.04,1-.34,2.12-.89,2.89-1.62.64-.61,1.03-1.49,1.02-2.37,0-.44-.14-.84-.24-1.25Z"/>
  <line class="cls-7" x1="2.08" y1="88.91" x2="196.62" y2="88.91"/>
  <polygon class="cls-1" points="160.68 52.52 160.68 54.46 170.28 54.46 170.28 52.56 160.68 52.52"/>
  <rect class="cls-1" x="159.1" y="54.46" width="12.76" height="1.58"/>
  <rect class="cls-1" x="138.34" y="24.66" width="56.26" height="27.89"/>
  <rect class="cls-6" x="140.7" y="26.59" width="51.53" height="24.04"/>
  <rect class="cls-2" x="139.01" y="55.9" width="53.75" height="2.57"/>
  <path class="cls-3" d="m49.33,51.55h44.16c1.18,0,2.14.96,2.14,2.14v29.95c0,1.18-.96,2.14-2.14,2.14h-44.16c-1.18,0-2.14-.96-2.14-2.14v-29.94c0-1.18.96-2.14,2.14-2.14Z"/>
  <path class="cls-3" d="m144,53.69v29.94c0,1.18-.96,2.14-2.14,2.14h-44.16c-1.18,0-2.14-.96-2.14-2.14v-29.94c0-1.18.96-2.14,2.14-2.14h44.16c.13,0,.26.01.38.03,1,.18,1.76,1.05,1.76,2.1Z"/>
  <rect class="cls-3" x="47.19" y="79.23" width="96.39" height="17.74"/>
  <rect class="cls-5" x="55.58" y="78.44" width="80.39" height="2"/>
  <path class="cls-4" d="m57.4,56.88c0,.5-.41.91-.91.91s-.91-.41-.91-.91.41-.91.91-.91.91.41.91.91Z"/>
  <path class="cls-4" d="m87.26,56.88c0,.5-.41.91-.91.91s-.91-.41-.91-.91.41-.91.91-.91.91.41.91.91Z"/>
  <path class="cls-4" d="m136.88,56.88c0,.5-.41.91-.91.91s-.91-.41-.91-.91.41-.91.91-.91.91.41.91.91Z"/>
  <path class="cls-4" d="m104.6,56.88c0,.5-.41.91-.91.91s-.91-.41-.91-.91.41-.91.91-.91.91.41.91.91Z"/>
  <path class="cls-4" d="m87.26,74.87c0,.5-.41.91-.91.91s-.91-.41-.91-.91.41-.91.91-.91.91.41.91.91Z"/>
  <path class="cls-4" d="m132.99,74.87c0,.5-.41.91-.91.91s-.91-.41-.91-.91.41-.91.91-.91.91.41.91.91Z"/>
  <path class="cls-4" d="m104.6,74.87c0,.5-.41.91-.91.91s-.91-.41-.91-.91.41-.91.91-.91.91.41.91.91Z"/>
  <path class="cls-4" d="m62.92,74.87c0,.5-.41.91-.91.91s-.91-.41-.91-.91.41-.91.91-.91.91.41.91.91Z"/>
  <path class="cls-4" d="m72.69,65.11c0,.5-.41.91-.91.91s-.91-.41-.91-.91.41-.91.91-.91.91.41.91.91Z"/>
  <path class="cls-4" d="m120.69,65.11c0,.5-.41.91-.91.91s-.91-.41-.91-.91.41-.91.91-.91.91.41.91.91Z"/>
  <path class="cls-1" d="m35.84,93.29c0,1.15-5.42,2.1-12.11,2.1s-12.12-.95-12.12-2.1,5.02-2.03,11.35-2.09V22.47h2.25v68.74c5.99.12,10.64,1,10.64,2.08Z"/>
  <polygon class="cls-8" points="18.95 15.72 9.64 39.8 38.52 39.8 29.86 15.72 18.95 15.72"/>
  <rect class="cls-6" x="18.02" y="39.8" width=".26" height="13.1"/>
  <ellipse class="cls-1" cx="18.08" cy="53.45" rx=".71" ry="1.05"/>
  <path class="cls-5" d="m55.58,72.16v23.23c0,2.28-1.85,4.13-4.13,4.13h-6.97c-2.28,0-4.13-1.85-4.13-4.13v-23.23c0-2.28,1.85-4.13,4.13-4.13h6.97c.27,0,.54.03.79.08,1.9.37,3.34,2.04,3.34,4.06Z"/>
  <rect class="cls-5" x="135.97" y="68.02" width="15.24" height="31.5" rx="4.13" ry="4.13"/>
  <path class="cls-11" d="m75.62,71.13s0-.04-.01-.06c-.03-.16-.06-.31-.09-.46,0-.04-.02-.08-.02-.12-.03-.17-.06-.34-.09-.5,0-.03-.01-.06-.02-.09-.02-.13-.04-.26-.06-.39,0-.05-.01-.09-.02-.14-.02-.15-.04-.31-.06-.45-.23-2.6.1-7.26-.43-7.54-.42-.22-.83.32-2.12.1-3.81-.66-6.58-.52-7.05-.42-.49,0-3.22.45-6.81,1.89-.14.06-.27.1-.39.13-.04.01-.07.02-.11.03-.08.02-.16.04-.23.05-.04,0-.07.01-.11.02-.07,0-.14.01-.2.02-.03,0-.05,0-.08,0-.47.01-.75-.08-.98.11-.46.38.83,4.87,1.15,7.46.23,2.6-.1,7.26.43,7.54.42.22.83-.32,2.12-.1,3.81.66,6.56.39,7.04.29.49,0,3.24-.32,6.82-1.76,1.22-.49,1.73-.04,2.1-.35.16-.13.11-.74-.03-1.58,0-.03,0-.05-.01-.08-.17-1-.47-2.31-.72-3.57Z"/>
  <path class="cls-11" d="m131.88,63.31c-.23-.18-.51-.07-.98-.07-.02,0-.05,0-.08,0-.06,0-.13,0-.21-.01-.03,0-.07,0-.11-.01-.07,0-.15-.02-.23-.04-.04,0-.07-.01-.11-.02-.12-.03-.25-.07-.39-.12-3.64-1.31-6.39-1.66-6.87-1.64-.48-.08-3.25-.12-7.03.67-1.28.27-1.71-.26-2.13-.02-.52.3-.03,4.94-.16,7.55-.01.14-.03.3-.05.45,0,.04-.01.09-.02.14-.02.13-.03.27-.05.4,0,.03,0,.06-.01.09-.02.17-.05.34-.08.52,0,.03,0,.06-.01.09-.03.17-.05.35-.08.52,0,0,0,0,0,0-.39,2.39-.94,5-.58,5.28.38.29.88-.17,2.11.27,3.64,1.31,6.4,1.53,6.88,1.51.48.08,3.24.25,7.03-.54,1.28-.27,1.71.26,2.13.02.52-.3.03-4.94.16-7.55.23-2.6,1.36-7.13.88-7.5Z"/>
  <path class="cls-7" d="m26.7,95.33s-.25,8.49,9.14,12.35c9.39,3.86,22.03.35,23.61,3.86"/>
  <path class="cls-10" d="m59.23,113.82c-.81-.76-.85-2.04-.09-2.85.76-.81,2.04-.85,2.85-.09l-2.76,2.94Z"/>
  <line class="cls-7" x1="61.37" y1="111.49" x2="62.52" y2="112.57"/>
  <line class="cls-7" x1="59.78" y1="113.26" x2="60.93" y2="114.34"/>
  <g>
    <g>
      <path class="cls-15" d="m26.94,111.46l6.91-11.97c.4-.69,1.4-.69,1.8,0l6.91,11.97c.4.69-.1,1.56-.9,1.56h-13.82c-.8,0-1.3-.86-.9-1.56Z"/>
      <path class="cls-12" d="m34.74,98.97c.35,0,.7.17.9.52l6.91,11.97c.4.69-.1,1.56-.9,1.56h-13.82c-.8,0-1.3-.86-.9-1.56l6.91-11.97c.2-.35.55-.52.9-.52m0-1.86c-1.03,0-1.99.55-2.51,1.45l-6.91,11.97c-.52.89-.52,2,0,2.89.52.89,1.48,1.45,2.51,1.45h13.82c1.03,0,1.99-.55,2.51-1.45.52-.89.52-2,0-2.89l-6.91-11.97c-.52-.89-1.48-1.45-2.51-1.45h0Z"/>
    </g>
    <polygon points="36.22 103.34 34.17 103.35 33.11 108.33 34.05 107.99 33.39 111.75 36.07 106.37 35.17 106.68 36.22 103.34"/>
  </g>
  <rect class="cls-2" x="189.77" y="58.47" width="2.99" height="38.64"/>
  <path class="cls-7" d="m171.86,54.46s7.74-3.45,3.88,17.25c-3.86,20.7,3.33,23.61,3.33,23.61"/>
  <path class="cls-10" d="m179.71,98.18c-.81-.76-.85-2.04-.09-2.85s2.04-.85,2.85-.09l-2.76,2.94Z"/>
  <line class="cls-7" x1="181.64" y1="96.07" x2="182.79" y2="97.15"/>
  <line class="cls-7" x1="180.46" y1="97.43" x2="181.61" y2="98.51"/>
  <g>
    <g>
      <path class="cls-15" d="m168.87,82.05l6.91-11.97c.4-.69,1.4-.69,1.8,0l6.91,11.97c.4.69-.1,1.56-.9,1.56h-13.82c-.8,0-1.3-.86-.9-1.56Z"/>
      <path class="cls-12" d="m176.68,69.56c.35,0,.7.17.9.52l6.91,11.97c.4.69-.1,1.56-.9,1.56h-13.82c-.8,0-1.3-.86-.9-1.56l6.91-11.97c.2-.35.55-.52.9-.52m0-1.86c-1.03,0-1.99.55-2.51,1.45l-6.91,11.97c-.52.89-.52,2,0,2.89.52.89,1.48,1.45,2.51,1.45h13.82c1.03,0,1.99-.55,2.51-1.45.52-.89.52-2,0-2.89l-6.91-11.97c-.52-.89-1.48-1.45-2.51-1.45h0Z"/>
    </g>
    <polygon points="178.16 73.93 176.11 73.94 175.04 78.92 175.98 78.58 175.33 82.34 178.01 76.96 177.1 77.27 178.16 73.93"/>
  </g>
  <polygon points="188.04 98.18 185.99 98.18 184.92 103.16 185.86 102.83 185.21 106.59 187.89 101.21 186.98 101.51 188.04 98.18"/>
  <polygon points="160.9 65.94 158.85 65.95 157.78 70.93 158.73 70.59 158.07 74.35 160.75 68.97 159.84 69.28 160.9 65.94"/>
  <polygon points="68.11 107.87 66.06 107.87 64.99 112.85 65.94 112.52 65.28 116.28 67.96 110.89 67.06 111.2 68.11 107.87"/>
  <polygon points="13.57 65.94 11.52 65.95 10.45 70.93 11.4 70.59 10.74 74.35 13.42 68.97 12.52 69.28 13.57 65.94"/>
  <rect class="cls-13" x="155.35" y="78" width="4.87" height="4.87"/>
  <rect class="cls-12" x="155.35" y="78" width="4.87" height="4.87" rx="2.36" ry="2.36"/>
  <circle cx="157.05" cy="80.64" r=".26"/>
  <circle cx="158.44" cy="80.64" r=".26"/>
  <rect class="cls-13" x="9.17" y="77" width="4.87" height="4.87"/>
  <rect class="cls-12" x="9.17" y="77" width="4.87" height="4.87" rx="2.36" ry="2.36"/>
  <circle cx="10.88" cy="79.64" r=".26"/>
  <circle cx="12.27" cy="79.64" r=".26"/>
  <rect class="cls-9" x="-1082.66" y="-2953.4" width="2244.45" height="5948.74"/>
</svg>