<?xml version="1.0" encoding="UTF-8"?>
<svg id="Calque_1" data-name="Calque 1" xmlns="http://www.w3.org/2000/svg" viewBox="0 0 200 128">
  <defs>
    <style>
      .cls-1 {
        fill: #d6d6d6;
      }

      .cls-1, .cls-2, .cls-3, .cls-4, .cls-5, .cls-6 {
        stroke: #000;
      }

      .cls-1, .cls-2, .cls-3, .cls-4, .cls-6, .cls-7 {
        stroke-linecap: round;
        stroke-linejoin: round;
      }

      .cls-2, .cls-8 {
        fill: #fff;
      }

      .cls-3, .cls-6, .cls-7 {
        fill: none;
      }

      .cls-9 {
        font-family: Helvetica, Helvetica;
        font-size: 9px;
      }

      .cls-4, .cls-10, .cls-5 {
        fill: #76ac75;
      }

      .cls-4, .cls-5, .cls-6 {
        stroke-width: 2px;
      }

      .cls-11 {
        fill: #f6e7d4;
      }

      .cls-12 {
        fill: #dbc5b1;
      }

      .cls-13 {
        fill: #dfdfe0;
      }

      .cls-14 {
        fill: #546885;
      }

      .cls-5 {
        stroke-miterlimit: 10;
      }

      .cls-7 {
        stroke: #fff;
        stroke-width: 8px;
      }
    </style>
  </defs>
  <g>
    <rect class="cls-10" x="54.85" y="79.74" width="14.92" height="14.43"/>
    <path class="cls-4" d="m149.23,12.11h.15c.38,0,.76.04,1.12.11,2.53.52,4.44,2.76,4.44,5.44v13.44H33.07v-13.44c0-.34.04-.67.1-1l.06-.27c.06-.25.14-.5.23-.73l.08-.21c.12-.28.27-.55.44-.81l.04-.08.13-.16c.13-.17.27-.34.41-.5l.24-.25c.2-.19.41-.37.64-.53l.08-.06.6-.33c.12-.06.22-.13.34-.19.47-.2.97-.33,1.49-.4.22-.03.44-.04.67-.04h.35v.04h3.35v-.04h6.37v.04h3.35v-.04h6.38v.03h3.35v-.03h6.37v.03h3.35v-.03h6.43v.03h3.35v-.03h6.37v.02h3.35v-.02h6.36v.02h3.35v-.02h6.37s3.35.01,3.35.01h0s6.34-.01,6.34-.01h0s3.35.01,3.35.01h0s6.37-.01,6.37-.01h0s3.35,0,3.35,0h0s6.28,0,6.28,0h0s3.35,0,3.35,0h0s6.37,0,6.37,0h0s2.54,0,2.54,0"/>
    <polygon class="cls-11" points="35.52 13.06 35.44 13.13 35.44 13.13 35.52 13.06"/>
    <path class="cls-11" d="m33.07,96.88c0,.77.16,1.5.44,2.16-.28-.67-.44-1.4-.44-2.16Z"/>
    <path class="cls-11" d="m154.01,113.27l-.11.14.11-.14Z"/>
    <path class="cls-11" d="m153.41,114.02l-.17.18.17-.18Z"/>
    <path class="cls-11" d="m38.63,115.76h0c-.77,0-1.5-.15-2.16-.44.66.28,1.4.44,2.16.44Z"/>
    <polygon class="cls-11" points="152.37 114.88 152.52 114.79 152.55 114.76 152.37 114.88"/>
    <path class="cls-11" d="m151.65,115.27l-.15.07.15-.07Z"/>
    <path class="cls-11" d="m34.02,113.31c.35.52.81.97,1.31,1.35l.19.15c-.59-.4-1.1-.91-1.5-1.5Z"/>
    <path class="cls-11" d="m150.6,115.62l-.22.04.22-.04Z"/>
    <path class="cls-6" d="m33.07,31.11v79.1c0,.77.16,1.5.44,2.16.14.33.31.65.51.94.4.59.91,1.1,1.5,1.5.3.2.61.37.94.51.66.28,1.4.44,2.16.44h110.76c.34,0,.67-.04,1-.1l.22-.04c.31-.07.61-.16.9-.28l.15-.07c.25-.11.49-.24.72-.39l.18-.12c.25-.17.47-.36.69-.57l.17-.18c.18-.19.34-.39.49-.6l.11-.14v-.02s0,0,0,0c.58-.88.92-1.92.92-3.05V31.11m-116.98,4.05h112.4v75.71H37.96V35.16Z"/>
    <path class="cls-13" d="m40.66,19.22c.15,0,.29-.02.42-.06-.14.04-.28.06-.42.06Z"/>
    <path class="cls-13" d="m41.17,19.13c.12-.04.24-.09.34-.16-.11.07-.22.12-.34.16Z"/>
    <path class="cls-13" d="m42.14,18.3c-.14.27-.35.5-.6.66.26-.16.46-.39.6-.66Z"/>
    <path class="cls-13" d="m50.38,19.22c.15,0,.29-.02.42-.06-.13.04-.28.06-.42.06Z"/>
    <path class="cls-13" d="m50.9,19.13c.12-.04.24-.09.34-.16-.11.07-.22.12-.34.16Z"/>
    <path class="cls-13" d="m60.63,19.13c.12-.04.24-.09.34-.16-.11.07-.22.12-.34.16Z"/>
    <path class="cls-13" d="m61.6,18.3c-.14.27-.35.5-.6.66.25-.16.46-.39.6-.66Z"/>
    <path class="cls-13" d="m60.11,19.22c.15,0,.29-.02.42-.06-.14.04-.28.06-.42.06Z"/>
    <path class="cls-13" d="m70.36,19.13c.12-.04.24-.09.34-.16-.11.07-.22.12-.34.16Z"/>
    <path class="cls-13" d="m69.84,19.22c.15,0,.29-.02.42-.06-.13.04-.28.06-.42.06Z"/>
    <path class="cls-13" d="m68.77,18.82l-.22-.23.22.23Z"/>
    <path class="cls-13" d="m79.62,19.22c.15,0,.29-.02.42-.06-.13.04-.28.06-.42.06Z"/>
    <path class="cls-13" d="m80.13,19.13c.12-.04.24-.09.34-.16-.11.07-.22.12-.34.16Z"/>
    <path class="cls-13" d="m88.27,18.82l-.22-.23.22.23Z"/>
    <path class="cls-13" d="m89.86,19.13c.12-.04.24-.09.34-.16-.11.07-.22.12-.34.16Z"/>
    <path class="cls-13" d="m89.34,19.22c.15,0,.29-.02.42-.06-.13.04-.27.06-.42.06Z"/>
    <path class="cls-13" d="m99.06,19.22c.15,0,.29-.02.42-.06-.13.04-.28.06-.42.06Z"/>
    <path class="cls-13" d="m99.58,19.13c.12-.04.24-.09.34-.16-.11.07-.22.12-.34.16Z"/>
    <path class="cls-13" d="m109.31,19.13c.12-.04.24-.09.34-.16-.11.07-.22.12-.34.16Z"/>
    <path class="cls-13" d="m108.79,19.22c.15,0,.29-.02.42-.06-.14.04-.28.06-.42.06Z"/>
    <path class="cls-13" d="m118.48,19.22c.15,0,.29-.02.42-.06-.14.04-.28.06-.42.06Z"/>
    <path class="cls-13" d="m119.96,18.3c-.14.27-.35.5-.6.66.26-.16.46-.39.6-.66Z"/>
    <path class="cls-13" d="m119,19.13c.12-.04.24-.09.34-.16-.11.07-.22.12-.34.16Z"/>
    <path class="cls-13" d="m127.13,18.82l-.22-.23.22.23Z"/>
    <path class="cls-13" d="m128.2,19.22c.15,0,.29-.02.42-.06-.13.04-.28.06-.42.06Z"/>
    <path class="cls-13" d="m128.72,19.13c.12-.04.24-.09.34-.16-.11.07-.22.12-.34.16Z"/>
    <path class="cls-13" d="m139.32,18.3c-.14.27-.35.5-.6.66.26-.16.46-.39.6-.66Z"/>
    <path class="cls-13" d="m137.83,19.22c.15,0,.29-.02.42-.06-.13.04-.27.06-.42.06Z"/>
    <path class="cls-13" d="m138.35,19.13c.12-.04.24-.09.34-.16-.11.07-.22.12-.34.16Z"/>
    <path class="cls-13" d="m147.56,19.22c.15,0,.29-.02.42-.06-.13.04-.27.06-.42.06Z"/>
    <path class="cls-13" d="m146.49,18.82l-.22-.23.22.23Z"/>
    <path class="cls-13" d="m148.08,19.13c.12-.04.24-.09.34-.16-.11.07-.22.12-.34.16Z"/>
    <g>
      <path class="cls-2" d="m40.65,8.65c-.18,0-.34.04-.5.09,0,0,0,0,0,0,0,0-.01,0-.02.01-.14.05-.27.11-.4.2-.02.01-.04.03-.07.04-.13.1-.25.2-.34.33l-.02.02c-.09.13-.17.27-.22.42l-.03.08c-.05.15-.08.31-.08.48v7.22c0,.92.75,1.68,1.68,1.68h0c.15,0,.29-.02.42-.06l.1-.03c.12-.04.24-.09.34-.16h.03c.25-.18.46-.4.6-.67.12-.23.19-.48.19-.75v-7.22c0-.92-.75-1.68-1.68-1.68Z"/>
      <path class="cls-2" d="m50.38,8.65c-.18,0-.34.04-.5.09,0,0,0,0,0,0,0,0-.01,0-.02.01-.14.05-.27.11-.4.2-.02.02-.05.03-.07.04-.13.1-.25.2-.34.33l-.02.02c-.09.13-.17.27-.22.42l-.03.08c-.05.15-.08.31-.08.48v7.22c0,.92.75,1.68,1.68,1.68h0c.15,0,.29-.02.42-.06l.1-.03c.12-.04.24-.09.34-.16h.03c.13-.09.24-.19.34-.3,0,0,.01-.02.02-.03.09-.1.17-.22.23-.34,0,0,0,0,0,0h0c.12-.23.19-.48.19-.75v-7.22c0-.92-.75-1.68-1.68-1.68Z"/>
      <path class="cls-2" d="m60.11,8.65c-.18,0-.34.04-.5.09,0,0,0,0,0,0,0,0-.01,0-.02.01-.14.05-.27.11-.4.2-.02.02-.05.03-.07.04-.13.1-.25.2-.34.33l-.02.02c-.09.13-.17.27-.22.42l-.03.08c-.05.15-.08.31-.08.48v7.22c0,.92.75,1.68,1.68,1.68h0c.15,0,.29-.02.42-.06l.1-.03c.12-.04.24-.09.34-.16h.03c.25-.18.46-.4.6-.67.12-.23.19-.48.19-.75v-7.22c0-.92-.75-1.68-1.68-1.68Z"/>
      <path class="cls-2" d="m69.84,8.65c-.18,0-.34.04-.5.09,0,0,0,0,0,0,0,0-.01,0-.02.01-.14.05-.27.11-.39.2-.02.02-.05.03-.07.05-.13.1-.25.2-.34.33l-.02.02c-.1.13-.17.27-.22.42l-.03.08c-.05.15-.08.31-.08.48v7.22c0,.4.15.76.38,1.05l.22.23c.29.25.66.4,1.07.4h0c.15,0,.29-.02.42-.06l.1-.03c.12-.04.24-.09.34-.16h.03c.13-.09.24-.19.34-.3,0,0,0-.01.01-.02.09-.1.17-.22.24-.34,0,0,0,0,0,0,0,0,0,0,0,0,.12-.23.19-.48.19-.76v-7.22c0-.92-.75-1.68-1.68-1.68Z"/>
      <path class="cls-2" d="m79.61,8.65c-.18,0-.34.04-.5.09,0,0,0,0,0,0,0,0-.01,0-.02.01-.14.05-.27.11-.4.2-.02.02-.04.03-.07.04-.13.1-.25.2-.34.33l-.02.02c-.09.13-.17.27-.22.42l-.03.08c-.05.15-.08.31-.08.48v7.22c0,.92.75,1.68,1.68,1.68h0c.15,0,.29-.02.42-.06l.1-.03c.12-.04.24-.09.34-.16h.03c.13-.09.24-.19.34-.3,0,0,.01-.02.02-.03.09-.1.17-.22.23-.34,0,0,0,0,0,0,0,0,0,0,0,0,.12-.23.19-.48.19-.76v-7.22c0-.92-.75-1.68-1.68-1.68Z"/>
      <path class="cls-2" d="m89.34,8.65c-.18,0-.34.04-.5.09,0,0,0,0,0,0,0,0-.01,0-.02.01-.14.05-.27.11-.4.2-.02.02-.05.03-.07.05-.13.1-.25.2-.34.33l-.02.02c-.09.13-.17.27-.22.42l-.03.08c-.05.15-.08.31-.08.48v7.22c0,.4.15.76.38,1.05l.22.23c.29.25.66.4,1.07.4h0c.15,0,.29-.02.42-.06l.1-.03c.12-.04.24-.09.34-.16h.03c.13-.09.24-.19.34-.3,0,0,0-.01.01-.02.09-.1.17-.22.24-.34,0,0,0,0,0,0,0,0,0,0,0,0,.12-.23.19-.48.19-.76v-7.22c0-.92-.75-1.68-1.68-1.68Z"/>
      <path class="cls-2" d="m99.06,8.65c-.18,0-.34.04-.5.09,0,0,0,0,0,0,0,0-.01,0-.02.01-.14.05-.27.11-.4.2-.02.02-.05.03-.07.05-.13.1-.25.2-.34.33l-.02.02c-.09.13-.17.27-.22.42l-.03.08c-.05.15-.08.32-.08.48v7.22c0,.92.75,1.68,1.68,1.68h0c.15,0,.29-.02.42-.06l.1-.03c.12-.04.24-.09.34-.16h.03c.13-.09.24-.19.34-.3,0,0,0-.01.01-.02.09-.1.17-.22.24-.34,0,0,0,0,0,0,0,0,0,0,0,0,.12-.23.19-.48.19-.76v-7.22c0-.92-.75-1.68-1.68-1.68Z"/>
      <path class="cls-2" d="m108.79,8.65c-.18,0-.34.04-.5.09,0,0,0,0,0,0,0,0-.01,0-.02.01-.14.05-.28.12-.4.2-.02.01-.04.03-.07.04-.13.1-.25.2-.34.33l-.02.02c-.09.13-.17.27-.22.42l-.03.08c-.05.15-.08.31-.08.48v7.22c0,.92.75,1.68,1.68,1.68h0c.15,0,.29-.02.42-.06l.1-.03c.12-.04.24-.09.34-.16h.03c.13-.09.24-.19.34-.3,0,0,0-.01.01-.02.09-.1.17-.22.24-.34,0,0,0,0,0,0,0,0,0,0,0,0,.12-.23.19-.48.19-.76v-7.22c0-.92-.75-1.68-1.68-1.68Z"/>
      <path class="cls-2" d="m118.48,8.65c-.18,0-.34.04-.5.09,0,0,0,0,0,0,0,0-.01,0-.02.01-.14.05-.27.11-.4.2-.02.02-.05.03-.07.04-.13.1-.25.2-.34.33l-.02.02c-.09.13-.17.27-.22.42l-.03.08c-.05.15-.08.31-.08.48v7.22c0,.92.75,1.68,1.68,1.68h0c.15,0,.29-.02.42-.06l.1-.03c.12-.04.24-.09.34-.16h.03c.25-.18.46-.4.6-.67.12-.23.19-.48.19-.75v-7.22c0-.92-.75-1.68-1.68-1.68Z"/>
      <path class="cls-2" d="m128.2,8.65c-.18,0-.34.04-.5.09,0,0,0,0,0,0,0,0-.01,0-.02.01-.14.05-.27.11-.4.2-.02.02-.04.03-.07.04-.13.1-.25.2-.34.33l-.02.02c-.09.13-.17.27-.22.42l-.03.08c-.05.15-.08.31-.08.48v7.22c0,.4.15.76.38,1.05l.22.23c.29.25.66.4,1.07.4h0c.15,0,.29-.02.42-.06l.1-.03c.12-.04.24-.09.34-.16h.03c.13-.09.24-.19.34-.3,0,0,.01-.02.02-.03.09-.1.17-.22.23-.34,0,0,0,0,0,0,0,0,0,0,0,0,.12-.23.19-.48.19-.76v-7.22c0-.92-.75-1.68-1.68-1.68Z"/>
      <path class="cls-2" d="m137.83,8.65c-.18,0-.34.04-.5.09,0,0,0,0,0,0,0,0-.01,0-.02.01-.14.05-.28.12-.4.2-.02.02-.04.03-.07.04-.13.1-.25.2-.34.33l-.02.02c-.09.13-.17.27-.22.42l-.03.08c-.05.15-.08.31-.08.48v7.22c0,.92.75,1.68,1.68,1.68h0c.15,0,.29-.02.42-.06l.1-.03c.12-.04.24-.09.34-.16h.03c.25-.18.46-.4.6-.67,0,0,0,0,0,0,.12-.23.19-.48.19-.75v-7.22c0-.92-.75-1.68-1.68-1.68Z"/>
      <path class="cls-2" d="m147.56,8.65c-.18,0-.34.04-.5.09,0,0,0,0,0,0,0,0-.01,0-.02.01-.14.05-.27.11-.4.2-.02.01-.04.03-.07.04-.13.1-.25.2-.34.33l-.02.02c-.09.13-.17.27-.22.42l-.03.08c-.05.15-.08.31-.08.48v7.22c0,.4.15.76.38,1.05l.22.23c.29.25.66.4,1.07.4h0c.15,0,.29-.02.42-.06l.1-.03c.12-.04.24-.09.34-.16h.03c.13-.09.24-.19.34-.3,0,0,0-.01.01-.02.09-.1.17-.22.24-.34,0,0,0,0,0,0,0,0,0,0,0,0,.12-.23.19-.48.19-.76v-7.22c0-.92-.75-1.68-1.68-1.68Z"/>
    </g>
    <rect class="cls-12" x="85.55" y="66.04" width="0" height="13.92"/>
    <rect class="cls-12" x="134.37" y="66.04" width="0" height="13.92"/>
    <line class="cls-3" x1="134.62" y1="108.11" x2="134.62" y2="35.16"/>
    <line class="cls-3" x1="102.07" y1="108.11" x2="102.07" y2="35.16"/>
    <line class="cls-3" x1="118.34" y1="108.11" x2="118.34" y2="35.16"/>
    <line class="cls-3" x1="85.94" y1="108.11" x2="85.94" y2="35.16"/>
    <line class="cls-3" x1="69.78" y1="108.11" x2="69.78" y2="35.16"/>
    <line class="cls-3" x1="54.28" y1="108.11" x2="54.28" y2="35.16"/>
    <line class="cls-3" x1="149.85" y1="66.04" x2="37.96" y2="66.04"/>
    <line class="cls-3" x1="149.85" y1="52.12" x2="37.96" y2="52.12"/>
    <line class="cls-3" x1="150.1" y1="79.96" x2="38.21" y2="79.96"/>
    <line class="cls-3" x1="150.1" y1="37.94" x2="38.21" y2="37.94"/>
    <line class="cls-3" x1="149.95" y1="93.97" x2="38.06" y2="93.97"/>
    <line class="cls-3" x1="149.95" y1="108.04" x2="38.06" y2="108.04"/>
    <path d="m45.03,43.54v-.61c.57-.06.97-.15,1.2-.28.23-.13.39-.44.51-.92h.62v6.27h-.84v-4.46h-1.48Z"/>
    <path d="m60.13,46.58c.19-.4.58-.77,1.14-1.09l.84-.49c.38-.22.64-.41.8-.56.24-.24.36-.52.36-.84,0-.37-.11-.66-.33-.87s-.51-.32-.88-.32c-.54,0-.92.21-1.12.62-.11.22-.17.53-.18.92h-.8c0-.55.11-.99.3-1.34.34-.61.95-.91,1.81-.91.72,0,1.25.19,1.58.58s.5.82.5,1.3c0,.5-.18.93-.53,1.29-.21.21-.57.46-1.1.76l-.6.33c-.29.16-.51.31-.68.45-.29.25-.48.54-.55.85h3.44v.75h-4.32c.03-.54.14-1.01.34-1.42Z"/>
    <path d="m76.04,47.56c-.34-.41-.5-.91-.5-1.49h.83c.04.41.11.7.23.89.21.33.58.5,1.11.5.42,0,.75-.11,1-.33s.38-.51.38-.86c0-.43-.13-.74-.4-.91-.27-.17-.63-.26-1.11-.26-.05,0-.11,0-.16,0-.05,0-.11,0-.17,0v-.7c.08,0,.15.01.21.02s.12,0,.18,0c.3,0,.54-.05.73-.14.33-.16.5-.46.5-.88,0-.31-.11-.56-.33-.73s-.48-.25-.78-.25c-.53,0-.89.18-1.09.53-.11.19-.17.47-.19.83h-.78c0-.47.09-.87.28-1.2.32-.59.89-.88,1.7-.88.64,0,1.14.14,1.49.43.35.29.53.7.53,1.24,0,.39-.1.7-.31.94-.13.15-.3.27-.5.35.33.09.59.27.78.53.19.26.28.58.28.95,0,.6-.2,1.09-.59,1.47s-.96.57-1.68.57-1.28-.2-1.62-.61Z"/>
    <path d="m94.22,48v-1.54h-2.76v-.77l2.88-4h.67v4.08h.93v.69h-.93v1.54h-.79Zm-.01-2.23v-2.86l-2.02,2.86h2.02Z"/>
    <path d="m108.67,46.4c.05.45.26.76.63.94.19.09.4.13.65.13.47,0,.82-.15,1.04-.45s.34-.63.34-.99c0-.44-.13-.78-.4-1.02-.27-.24-.59-.36-.96-.36-.27,0-.51.05-.7.16-.2.11-.36.25-.5.44l-.69-.04.48-3.39h3.27v.76h-2.68l-.27,1.75c.15-.11.29-.19.42-.25.23-.1.51-.15.81-.15.58,0,1.07.19,1.47.56s.6.84.6,1.42-.18,1.12-.55,1.57-.95.68-1.76.68c-.51,0-.97-.14-1.36-.43-.39-.29-.61-.73-.66-1.33h.82Z"/>
    <path d="m127.77,42.23c.28.37.42.74.42,1.13h-.78c-.05-.25-.12-.44-.22-.58-.19-.26-.48-.4-.87-.4-.44,0-.79.2-1.05.61-.26.41-.41.99-.44,1.76.18-.27.41-.47.69-.6.25-.12.53-.18.84-.18.53,0,.99.17,1.38.51s.59.84.59,1.51c0,.57-.19,1.08-.56,1.52-.37.44-.9.66-1.59.66-.59,0-1.1-.22-1.52-.67-.43-.45-.64-1.2-.64-2.26,0-.78.1-1.45.29-1.99.37-1.04,1.04-1.56,2.01-1.56.7,0,1.19.18,1.47.55Zm-.59,4.81c.21-.28.31-.61.31-.99,0-.32-.09-.63-.28-.92-.18-.29-.52-.44-1.01-.44-.34,0-.64.11-.89.34-.26.23-.38.57-.38,1.02,0,.4.12.73.35,1,.23.27.56.41.97.41s.73-.14.93-.42Z"/>
    <path d="m144.28,41.81v.69c-.2.2-.47.54-.81,1.02-.34.49-.63,1.01-.89,1.57-.25.55-.45,1.05-.58,1.5-.08.29-.19.76-.33,1.4h-.87c.2-1.2.64-2.4,1.32-3.59.4-.7.82-1.3,1.27-1.81h-3.48v-.8h4.38Z"/>
    <path d="m60.71,60.61c.02.44.19.74.51.91.16.09.34.13.54.13.38,0,.7-.16.97-.47s.46-.95.57-1.92c-.18.28-.39.47-.65.59-.26.11-.54.17-.84.17-.61,0-1.09-.19-1.44-.57-.35-.38-.53-.86-.53-1.46s.17-1.07.52-1.51.86-.65,1.54-.65c.92,0,1.55.41,1.9,1.24.19.45.29,1.02.29,1.7,0,.77-.12,1.45-.35,2.05-.38.99-1.03,1.48-1.95,1.48-.62,0-1.08-.16-1.4-.48s-.48-.73-.48-1.21h.8Zm2.06-1.6c.26-.21.39-.57.39-1.08,0-.46-.12-.81-.35-1.03-.23-.23-.53-.34-.89-.34-.39,0-.69.13-.92.39-.23.26-.34.6-.34,1.04,0,.41.1.74.3.98s.52.36.95.36c.31,0,.6-.1.86-.31Z"/>
    <g>
      <path d="m73.51,57.68v-.61c.57-.06.97-.15,1.2-.28.23-.13.39-.44.51-.92h.62v6.27h-.84v-4.46h-1.48Z"/>
      <path d="m81.85,56.85c.28.52.42,1.23.42,2.13,0,.86-.13,1.56-.38,2.12-.37.8-.97,1.2-1.81,1.2-.76,0-1.32-.33-1.69-.98-.31-.55-.46-1.28-.46-2.21,0-.71.09-1.33.28-1.84.35-.96.97-1.43,1.88-1.43.81,0,1.4.34,1.77,1.01Zm-.8,4.19c.24-.36.37-1.04.37-2.03,0-.71-.09-1.3-.26-1.76-.18-.46-.52-.69-1.03-.69-.47,0-.81.22-1.02.66-.22.44-.32,1.08-.32,1.94,0,.64.07,1.16.21,1.55.21.59.57.89,1.08.89.41,0,.74-.18.98-.54Z"/>
    </g>
    <g>
      <path d="m89.89,57.68v-.61c.57-.06.97-.15,1.2-.28.23-.13.39-.44.51-.92h.62v6.27h-.84v-4.46h-1.48Z"/>
      <path d="m94.23,57.68v-.61c.57-.06.97-.15,1.2-.28.23-.13.39-.44.51-.92h.62v6.27h-.84v-4.46h-1.48Z"/>
    </g>
    <g>
      <path d="m105.74,57.68v-.61c.57-.06.97-.15,1.2-.28.23-.13.39-.44.51-.92h.62v6.27h-.84v-4.46h-1.48Z"/>
      <path d="m110.51,60.72c.19-.4.58-.77,1.14-1.09l.84-.49c.38-.22.64-.41.8-.56.24-.24.36-.52.36-.84,0-.37-.11-.66-.33-.87s-.51-.32-.88-.32c-.54,0-.92.21-1.12.62-.11.22-.17.53-.18.92h-.8c0-.55.11-.99.3-1.34.34-.61.95-.91,1.81-.91.72,0,1.25.19,1.58.58s.5.82.5,1.3c0,.5-.18.93-.53,1.29-.21.21-.57.46-1.1.76l-.6.33c-.29.16-.51.31-.68.45-.29.25-.48.54-.55.85h3.44v.75h-4.32c.03-.54.14-1.01.34-1.42Z"/>
    </g>
    <g>
      <path d="m122.15,57.68v-.61c.57-.06.97-.15,1.2-.28.23-.13.39-.44.51-.92h.62v6.27h-.84v-4.46h-1.48Z"/>
      <path d="m127.01,61.7c-.34-.41-.5-.91-.5-1.49h.83c.04.41.11.7.23.89.21.33.58.5,1.11.5.42,0,.75-.11,1-.33s.38-.51.38-.86c0-.43-.13-.74-.4-.91-.27-.17-.63-.26-1.11-.26-.05,0-.11,0-.16,0-.05,0-.11,0-.17,0v-.7c.08,0,.15.01.21.02s.12,0,.18,0c.3,0,.54-.05.73-.14.33-.16.5-.46.5-.88,0-.31-.11-.56-.33-.73s-.48-.25-.78-.25c-.53,0-.89.18-1.09.53-.11.19-.17.47-.19.83h-.78c0-.47.09-.87.28-1.2.32-.59.89-.88,1.7-.88.64,0,1.14.14,1.49.43.35.29.53.7.53,1.24,0,.39-.1.7-.31.94-.13.15-.3.27-.5.35.33.09.59.27.78.53.19.26.28.58.28.95,0,.6-.2,1.09-.59,1.47s-.96.57-1.68.57-1.28-.2-1.62-.61Z"/>
    </g>
    <g>
      <path d="m137.87,57.68v-.61c.57-.06.97-.15,1.2-.28.23-.13.39-.44.51-.92h.62v6.27h-.84v-4.46h-1.48Z"/>
      <path d="m145,62.14v-1.54h-2.76v-.77l2.88-4h.67v4.08h.93v.69h-.93v1.54h-.79Zm-.01-2.23v-2.86l-2.02,2.86h2.02Z"/>
    </g>
    <g>
      <path d="m57.81,71.46v-.61c.57-.06.97-.15,1.2-.28.23-.13.39-.44.51-.92h.62v6.27h-.84v-4.46h-1.48Z"/>
      <path d="m63.07,74.32c.05.45.26.76.63.94.19.09.4.13.65.13.47,0,.82-.15,1.04-.45s.34-.63.34-.99c0-.44-.13-.78-.4-1.02-.27-.24-.59-.36-.96-.36-.27,0-.51.05-.7.16-.2.11-.36.25-.5.44l-.69-.04.48-3.39h3.27v.76h-2.68l-.27,1.75c.15-.11.29-.19.42-.25.23-.1.51-.15.81-.15.58,0,1.07.19,1.47.56s.6.84.6,1.42-.18,1.12-.55,1.57-.95.68-1.76.68c-.51,0-.97-.14-1.36-.43-.39-.29-.61-.73-.66-1.33h.82Z"/>
    </g>
    <g>
      <path d="m73.51,71.46v-.61c.57-.06.97-.15,1.2-.28.23-.13.39-.44.51-.92h.62v6.27h-.84v-4.46h-1.48Z"/>
      <path d="m81.75,70.15c.28.37.42.74.42,1.13h-.78c-.05-.25-.12-.44-.22-.58-.19-.26-.48-.4-.87-.4-.44,0-.79.2-1.05.61-.26.41-.41.99-.44,1.76.18-.27.41-.47.69-.6.25-.12.53-.18.84-.18.53,0,.99.17,1.38.51s.59.84.59,1.51c0,.57-.19,1.08-.56,1.52-.37.44-.9.66-1.59.66-.59,0-1.1-.22-1.52-.67-.43-.45-.64-1.2-.64-2.26,0-.78.1-1.45.29-1.99.37-1.04,1.04-1.56,2.01-1.56.7,0,1.19.18,1.47.55Zm-.59,4.81c.21-.28.31-.61.31-.99,0-.32-.09-.63-.28-.92-.18-.29-.52-.44-1.01-.44-.34,0-.64.11-.89.34-.26.23-.38.57-.38,1.02,0,.4.12.73.35,1,.23.27.56.41.97.41s.73-.14.93-.42Z"/>
    </g>
    <g>
      <path d="m89.56,71.46v-.61c.57-.06.97-.15,1.2-.28.23-.13.39-.44.51-.92h.62v6.27h-.84v-4.46h-1.48Z"/>
      <path d="m98.41,69.73v.69c-.2.2-.47.54-.81,1.02-.34.49-.63,1.01-.89,1.57-.25.55-.45,1.05-.58,1.5-.08.29-.19.76-.33,1.4h-.87c.2-1.2.64-2.4,1.32-3.59.4-.7.82-1.3,1.27-1.81h-3.48v-.8h4.38Z"/>
    </g>
    <g>
      <path d="m105.74,71.46v-.61c.57-.06.97-.15,1.2-.28.23-.13.39-.44.51-.92h.62v6.27h-.84v-4.46h-1.48Z"/>
      <path d="m110.75,72.24c-.23-.23-.35-.54-.35-.91,0-.47.17-.87.51-1.21.34-.34.82-.51,1.44-.51s1.08.16,1.42.48c.34.32.51.69.51,1.11,0,.39-.1.71-.3.95-.11.14-.28.27-.52.4.26.12.47.26.62.41.28.29.42.67.42,1.14,0,.55-.19,1.02-.56,1.41s-.9.58-1.58.58c-.61,0-1.13-.17-1.55-.5-.42-.33-.63-.82-.63-1.45,0-.37.09-.69.27-.96.18-.27.45-.48.81-.62-.22-.09-.39-.2-.51-.33Zm2.55,2.85c.24-.2.36-.49.36-.89s-.12-.72-.37-.93-.57-.32-.96-.32-.69.11-.93.32c-.24.22-.36.51-.36.89,0,.33.11.61.33.85.22.24.56.36,1.01.36.37,0,.67-.1.91-.3Zm-.15-3.11c.2-.2.29-.43.29-.7,0-.23-.09-.45-.28-.65-.19-.2-.47-.29-.85-.29s-.66.1-.82.29c-.17.2-.25.43-.25.69,0,.3.11.53.33.7.22.17.48.25.78.25.35,0,.62-.1.82-.29Z"/>
    </g>
    <g>
      <path d="m122.15,71.46v-.61c.57-.06.97-.15,1.2-.28.23-.13.39-.44.51-.92h.62v6.27h-.84v-4.46h-1.48Z"/>
      <path d="m127.48,74.39c.02.44.19.74.51.91.16.09.34.13.54.13.38,0,.7-.16.97-.47s.46-.95.57-1.92c-.18.28-.39.47-.65.59-.26.11-.54.17-.84.17-.61,0-1.09-.19-1.44-.57-.35-.38-.53-.86-.53-1.46s.17-1.07.52-1.51.86-.65,1.54-.65c.92,0,1.55.41,1.9,1.24.19.45.29,1.02.29,1.7,0,.77-.12,1.45-.35,2.05-.38.99-1.03,1.48-1.95,1.48-.62,0-1.08-.16-1.4-.48s-.48-.73-.48-1.21h.8Zm2.06-1.6c.26-.21.39-.57.39-1.08,0-.46-.12-.81-.35-1.03-.23-.23-.53-.34-.89-.34-.39,0-.69.13-.92.39-.23.26-.34.6-.34,1.04,0,.41.1.74.3.98s.52.36.95.36c.31,0,.6-.1.86-.31Z"/>
    </g>
    <g>
      <path d="m137.62,74.5c.19-.4.58-.77,1.14-1.09l.84-.49c.38-.22.64-.41.8-.56.24-.24.36-.52.36-.84,0-.37-.11-.66-.33-.87s-.51-.32-.88-.32c-.54,0-.92.21-1.12.62-.11.22-.17.53-.18.92h-.8c0-.55.11-.99.3-1.34.34-.61.95-.91,1.81-.91.72,0,1.25.19,1.58.58s.5.82.5,1.3c0,.5-.18.93-.53,1.29-.21.21-.57.46-1.1.76l-.6.33c-.29.16-.51.31-.68.45-.29.25-.48.54-.55.85h3.44v.75h-4.32c.03-.54.14-1.01.34-1.42Z"/>
      <path d="m146.21,70.63c.28.52.42,1.23.42,2.13,0,.86-.13,1.56-.38,2.12-.37.8-.97,1.2-1.81,1.2-.76,0-1.32-.33-1.69-.98-.31-.55-.46-1.28-.46-2.21,0-.71.09-1.33.28-1.84.35-.96.97-1.43,1.88-1.43.81,0,1.4.34,1.77,1.01Zm-.8,4.19c.24-.36.37-1.04.37-2.03,0-.71-.09-1.3-.26-1.76-.18-.46-.52-.69-1.03-.69-.47,0-.81.22-1.02.66-.22.44-.32,1.08-.32,1.94,0,.64.07,1.16.21,1.55.21.59.57.89,1.08.89.41,0,.74-.18.98-.54Z"/>
    </g>
    <g>
      <path d="m57.57,88.72c.19-.4.58-.77,1.14-1.09l.84-.49c.38-.22.64-.41.8-.56.24-.24.36-.52.36-.84,0-.37-.11-.66-.33-.87s-.51-.32-.88-.32c-.54,0-.92.21-1.12.62-.11.22-.17.53-.18.92h-.8c0-.55.11-.99.3-1.34.34-.61.95-.91,1.81-.91.72,0,1.25.19,1.58.58s.5.82.5,1.3c0,.5-.18.93-.53,1.29-.21.21-.57.46-1.1.76l-.6.33c-.29.16-.51.31-.68.45-.29.25-.48.54-.55.85h3.44v.75h-4.32c.03-.54.14-1.01.34-1.42Z"/>
      <path d="m62.57,88.72c.19-.4.58-.77,1.14-1.09l.84-.49c.38-.22.64-.41.8-.56.24-.24.36-.52.36-.84,0-.37-.11-.66-.33-.87s-.51-.32-.88-.32c-.54,0-.92.21-1.12.62-.11.22-.17.53-.18.92h-.8c0-.55.11-.99.3-1.34.34-.61.95-.91,1.81-.91.72,0,1.25.19,1.58.58s.5.82.5,1.3c0,.5-.18.93-.53,1.29-.21.21-.57.46-1.1.76l-.6.33c-.29.16-.51.31-.68.45-.29.25-.48.54-.55.85h3.44v.75h-4.32c.03-.54.14-1.01.34-1.42Z"/>
    </g>
    <g>
      <path d="m42.08,88.72c.19-.4.58-.77,1.14-1.09l.84-.49c.38-.22.64-.41.8-.56.24-.24.36-.52.36-.84,0-.37-.11-.66-.33-.87s-.51-.32-.88-.32c-.54,0-.92.21-1.12.62-.11.22-.17.53-.18.92h-.8c0-.55.11-.99.3-1.34.34-.61.95-.91,1.81-.91.72,0,1.25.19,1.58.58s.5.82.5,1.3c0,.5-.18.93-.53,1.29-.21.21-.57.46-1.1.76l-.6.33c-.29.16-.51.31-.68.45-.29.25-.48.54-.55.85h3.44v.75h-4.32c.03-.54.14-1.01.34-1.42Z"/>
      <path d="m47.33,85.68v-.61c.57-.06.97-.15,1.2-.28.23-.13.39-.44.51-.92h.62v6.27h-.84v-4.46h-1.48Z"/>
    </g>
    <g>
      <path d="m73.55,88.72c.19-.4.58-.77,1.14-1.09l.84-.49c.38-.22.64-.41.8-.56.24-.24.36-.52.36-.84,0-.37-.11-.66-.33-.87s-.51-.32-.88-.32c-.54,0-.92.21-1.12.62-.11.22-.17.53-.18.92h-.8c0-.55.11-.99.3-1.34.34-.61.95-.91,1.81-.91.72,0,1.25.19,1.58.58s.5.82.5,1.3c0,.5-.18.93-.53,1.29-.21.21-.57.46-1.1.76l-.6.33c-.29.16-.51.31-.68.45-.29.25-.48.54-.55.85h3.44v.75h-4.32c.03-.54.14-1.01.34-1.42Z"/>
      <path d="m78.65,89.7c-.34-.41-.5-.91-.5-1.49h.83c.04.41.11.7.23.89.21.33.58.5,1.11.5.42,0,.75-.11,1-.33s.38-.51.38-.86c0-.43-.13-.74-.4-.91-.27-.17-.63-.26-1.11-.26-.05,0-.11,0-.16,0-.05,0-.11,0-.17,0v-.7c.08,0,.15.01.21.02s.12,0,.18,0c.3,0,.54-.05.73-.14.33-.16.5-.46.5-.88,0-.31-.11-.56-.33-.73s-.48-.25-.78-.25c-.53,0-.89.18-1.09.53-.11.19-.17.47-.19.83h-.78c0-.47.09-.87.28-1.2.32-.59.89-.88,1.7-.88.64,0,1.14.14,1.49.43.35.29.53.7.53,1.24,0,.39-.1.7-.31.94-.13.15-.3.27-.5.35.33.09.59.27.78.53.19.26.28.58.28.95,0,.6-.2,1.09-.59,1.47s-.96.57-1.68.57-1.28-.2-1.62-.61Z"/>
    </g>
    <g>
      <path d="m89.6,88.72c.19-.4.58-.77,1.14-1.09l.84-.49c.38-.22.64-.41.8-.56.24-.24.36-.52.36-.84,0-.37-.11-.66-.33-.87s-.51-.32-.88-.32c-.54,0-.92.21-1.12.62-.11.22-.17.53-.18.92h-.8c0-.55.11-.99.3-1.34.34-.61.95-.91,1.81-.91.72,0,1.25.19,1.58.58s.5.82.5,1.3c0,.5-.18.93-.53,1.29-.21.21-.57.46-1.1.76l-.6.33c-.29.16-.51.31-.68.45-.29.25-.48.54-.55.85h3.44v.75h-4.32c.03-.54.14-1.01.34-1.42Z"/>
      <path d="m96.97,90.14v-1.54h-2.76v-.77l2.88-4h.67v4.08h.93v.69h-.93v1.54h-.79Zm-.01-2.23v-2.86l-2.02,2.86h2.02Z"/>
    </g>
    <g>
      <path d="m57.57,102.38c.19-.4.58-.77,1.14-1.09l.84-.49c.38-.22.64-.41.8-.56.24-.24.36-.52.36-.84,0-.37-.11-.66-.33-.87s-.51-.32-.88-.32c-.54,0-.92.21-1.12.62-.11.22-.17.53-.18.92h-.8c0-.55.11-.99.3-1.34.34-.61.95-.91,1.81-.91.72,0,1.25.19,1.58.58s.5.82.5,1.3c0,.5-.18.93-.53,1.29-.21.21-.57.46-1.1.76l-.6.33c-.29.16-.51.31-.68.45-.29.25-.48.54-.55.85h3.44v.75h-4.32c.03-.54.14-1.01.34-1.42Z"/>
      <path d="m63.15,102.27c.02.44.19.74.51.91.16.09.34.13.54.13.38,0,.7-.16.97-.47s.46-.95.57-1.92c-.18.28-.39.47-.65.59-.26.11-.54.17-.84.17-.61,0-1.09-.19-1.44-.57-.35-.38-.53-.86-.53-1.46s.17-1.07.52-1.51.86-.65,1.54-.65c.92,0,1.55.41,1.9,1.24.19.45.29,1.02.29,1.7,0,.77-.12,1.45-.35,2.05-.38.99-1.03,1.48-1.95,1.48-.62,0-1.08-.16-1.4-.48s-.48-.73-.48-1.21h.8Zm2.06-1.6c.26-.21.39-.57.39-1.08,0-.46-.12-.81-.35-1.03-.23-.23-.53-.34-.89-.34-.39,0-.69.13-.92.39-.23.26-.34.6-.34,1.04,0,.41.1.74.3.98s.52.36.95.36c.31,0,.6-.1.86-.31Z"/>
    </g>
    <g>
      <path d="m42.08,102.38c.19-.4.58-.77,1.14-1.09l.84-.49c.38-.22.64-.41.8-.56.24-.24.36-.52.36-.84,0-.37-.11-.66-.33-.87s-.51-.32-.88-.32c-.54,0-.92.21-1.12.62-.11.22-.17.53-.18.92h-.8c0-.55.11-.99.3-1.34.34-.61.95-.91,1.81-.91.72,0,1.25.19,1.58.58s.5.82.5,1.3c0,.5-.18.93-.53,1.29-.21.21-.57.46-1.1.76l-.6.33c-.29.16-.51.31-.68.45-.29.25-.48.54-.55.85h3.44v.75h-4.32c.03-.54.14-1.01.34-1.42Z"/>
      <path d="m47.33,100.11c-.23-.23-.35-.54-.35-.91,0-.47.17-.87.51-1.21.34-.34.82-.51,1.44-.51s1.08.16,1.42.48c.34.32.51.69.51,1.11,0,.39-.1.71-.3.95-.11.14-.28.27-.52.4.26.12.47.26.62.41.28.29.42.67.42,1.14,0,.55-.19,1.02-.56,1.41s-.9.58-1.58.58c-.61,0-1.13-.17-1.55-.5-.42-.33-.63-.82-.63-1.45,0-.37.09-.69.27-.96.18-.27.45-.48.81-.62-.22-.09-.39-.2-.51-.33Zm2.55,2.85c.24-.2.36-.49.36-.89s-.12-.72-.37-.93-.57-.32-.96-.32-.69.11-.93.32c-.24.22-.36.51-.36.89,0,.33.11.61.33.85.22.24.56.36,1.01.36.37,0,.67-.1.91-.3Zm-.15-3.11c.2-.2.29-.43.29-.7,0-.23-.09-.45-.28-.65-.19-.2-.47-.29-.85-.29s-.66.1-.82.29c-.17.2-.25.43-.25.69,0,.3.11.53.33.7.22.17.48.25.78.25.35,0,.62-.1.82-.29Z"/>
    </g>
    <g>
      <path d="m73.65,103.35c-.34-.41-.5-.91-.5-1.49h.83c.04.41.11.7.23.89.21.33.58.5,1.11.5.42,0,.75-.11,1-.33s.38-.51.38-.86c0-.43-.13-.74-.4-.91-.27-.17-.63-.26-1.11-.26-.05,0-.11,0-.16,0-.05,0-.11,0-.17,0v-.7c.08,0,.15.01.21.02s.12,0,.18,0c.3,0,.54-.05.73-.14.33-.16.5-.46.5-.88,0-.31-.11-.56-.33-.73s-.48-.25-.78-.25c-.53,0-.89.18-1.09.53-.11.19-.17.47-.19.83h-.78c0-.47.09-.87.28-1.2.32-.59.89-.88,1.7-.88.64,0,1.14.14,1.49.43.35.29.53.7.53,1.24,0,.39-.1.7-.31.94-.13.15-.3.27-.5.35.33.09.59.27.78.53.19.26.28.58.28.95,0,.6-.2,1.09-.59,1.47s-.96.57-1.68.57-1.28-.2-1.62-.61Z"/>
      <path d="m82.14,98.51c.28.52.42,1.23.42,2.13,0,.86-.13,1.56-.38,2.12-.37.8-.97,1.2-1.81,1.2-.76,0-1.32-.33-1.69-.98-.31-.55-.46-1.28-.46-2.21,0-.71.09-1.33.28-1.84.35-.96.97-1.43,1.88-1.43.81,0,1.4.34,1.77,1.01Zm-.8,4.19c.24-.36.37-1.04.37-2.03,0-.71-.09-1.3-.26-1.76-.18-.46-.52-.69-1.03-.69-.47,0-.81.22-1.02.66-.22.44-.32,1.08-.32,1.94,0,.64.07,1.16.21,1.55.21.59.57.89,1.08.89.41,0,.74-.18.98-.54Z"/>
    </g>
    <g>
      <path d="m90.55,103.35c-.34-.41-.5-.91-.5-1.49h.83c.04.41.11.7.23.89.21.33.58.5,1.11.5.42,0,.75-.11,1-.33s.38-.51.38-.86c0-.43-.13-.74-.4-.91-.27-.17-.63-.26-1.11-.26-.05,0-.11,0-.16,0-.05,0-.11,0-.17,0v-.7c.08,0,.15.01.21.02s.12,0,.18,0c.3,0,.54-.05.73-.14.33-.16.5-.46.5-.88,0-.31-.11-.56-.33-.73s-.48-.25-.78-.25c-.53,0-.89.18-1.09.53-.11.19-.17.47-.19.83h-.78c0-.47.09-.87.28-1.2.32-.59.89-.88,1.7-.88.64,0,1.14.14,1.49.43.35.29.53.7.53,1.24,0,.39-.1.7-.31.94-.13.15-.3.27-.5.35.33.09.59.27.78.53.19.26.28.58.28.95,0,.6-.2,1.09-.59,1.47s-.96.57-1.68.57-1.28-.2-1.62-.61Z"/>
      <path d="m95.7,99.34v-.61c.57-.06.97-.15,1.2-.28.23-.13.39-.44.51-.92h.62v6.27h-.84v-4.46h-1.48Z"/>
    </g>
    <g>
      <path d="m105.78,88.72c.19-.4.58-.77,1.14-1.09l.84-.49c.38-.22.64-.41.8-.56.24-.24.36-.52.36-.84,0-.37-.11-.66-.33-.87s-.51-.32-.88-.32c-.54,0-.92.21-1.12.62-.11.22-.17.53-.18.92h-.8c0-.55.11-.99.3-1.34.34-.61.95-.91,1.81-.91.72,0,1.25.19,1.58.58s.5.82.5,1.3c0,.5-.18.93-.53,1.29-.21.21-.57.46-1.1.76l-.6.33c-.29.16-.51.31-.68.45-.29.25-.48.54-.55.85h3.44v.75h-4.32c.03-.54.14-1.01.34-1.42Z"/>
      <path d="m111.28,88.53c.05.45.26.76.63.94.19.09.4.13.65.13.47,0,.82-.15,1.04-.45s.34-.63.34-.99c0-.44-.13-.78-.4-1.02-.27-.24-.59-.36-.96-.36-.27,0-.51.05-.7.16-.2.11-.36.25-.5.44l-.69-.04.48-3.39h3.27v.76h-2.68l-.27,1.75c.15-.11.29-.19.42-.25.23-.1.51-.15.81-.15.58,0,1.07.19,1.47.56s.6.84.6,1.42-.18,1.12-.55,1.57-.95.68-1.76.68c-.51,0-.97-.14-1.36-.43-.39-.29-.61-.73-.66-1.33h.82Z"/>
    </g>
    <g>
      <path d="m121.9,88.72c.19-.4.58-.77,1.14-1.09l.84-.49c.38-.22.64-.41.8-.56.24-.24.36-.52.36-.84,0-.37-.11-.66-.33-.87s-.51-.32-.88-.32c-.54,0-.92.21-1.12.62-.11.22-.17.53-.18.92h-.8c0-.55.11-.99.3-1.34.34-.61.95-.91,1.81-.91.72,0,1.25.19,1.58.58s.5.82.5,1.3c0,.5-.18.93-.53,1.29-.21.21-.57.46-1.1.76l-.6.33c-.29.16-.51.31-.68.45-.29.25-.48.54-.55.85h3.44v.75h-4.32c.03-.54.14-1.01.34-1.42Z"/>
      <path d="m130.39,84.37c.28.37.42.74.42,1.13h-.78c-.05-.25-.12-.44-.22-.58-.19-.26-.48-.4-.87-.4-.44,0-.79.2-1.05.61-.26.41-.41.99-.44,1.76.18-.27.41-.47.69-.6.25-.12.53-.18.84-.18.53,0,.99.17,1.38.51s.59.84.59,1.51c0,.57-.19,1.08-.56,1.52-.37.44-.9.66-1.59.66-.59,0-1.1-.22-1.52-.67-.43-.45-.64-1.2-.64-2.26,0-.78.1-1.45.29-1.99.37-1.04,1.04-1.56,2.01-1.56.7,0,1.19.18,1.47.55Zm-.59,4.81c.21-.28.31-.61.31-.99,0-.32-.09-.63-.28-.92-.18-.29-.52-.44-1.01-.44-.34,0-.64.11-.89.34-.26.23-.38.57-.38,1.02,0,.4.12.73.35,1,.23.27.56.41.97.41s.73-.14.93-.42Z"/>
    </g>
    <text class="cls-9" transform="translate(137.01 90.14)"><tspan x="0" y="0">27</tspan></text>
    <g>
      <circle class="cls-1" cx="154.28" cy="94.01" r="25.34"/>
      <circle class="cls-8" cx="154.28" cy="94.01" r="20.09"/>
      <path class="cls-14" d="m137.21,111.04c.2.2.41.4.62.59-.21-.19-.41-.39-.62-.59Z"/>
      <path class="cls-14" d="m137.82,111.63c.35.32.71.64,1.07.94-.37-.3-.72-.62-1.07-.94Z"/>
      <path class="cls-14" d="m138.9,112.57c.29.24.59.48.9.71-.3-.23-.6-.46-.9-.71Z"/>
      <path class="cls-14" d="m140.02,113.45c.31.22.62.44.94.65-.32-.21-.63-.43-.94-.65Z"/>
      <circle cx="154.02" cy="77.64" r="1.09"/>
      <path d="m146.27,80.81c-.52.3-1.19.12-1.5-.4-.3-.52-.12-1.19.4-1.49.52-.3,1.19-.12,1.49.4.3.52.12,1.19-.4,1.5Z"/>
      <path d="m140.6,86.48c-.3.52-.97.7-1.5.4-.52-.3-.7-.97-.4-1.5.3-.52.97-.7,1.5-.4.52.3.7.97.4,1.5Z"/>
      <circle cx="137.43" cy="94.22" r="1.09"/>
      <path d="m140.2,103.47c-.52.3-1.19.12-1.5-.4-.3-.52-.12-1.19.4-1.5.52-.3,1.19-.12,1.5.4.3.52.12,1.19-.4,1.5Z"/>
      <path d="m146.67,109.14c-.3.52-.97.7-1.49.4-.52-.3-.7-.97-.4-1.5.3-.52.97-.7,1.5-.4.52.3.7.97.4,1.5Z"/>
      <circle cx="154.02" cy="110.81" r="1.09"/>
      <path d="m162.86,109.54c-.52.3-1.19.12-1.5-.4-.3-.52-.12-1.19.4-1.5.52-.3,1.19-.12,1.49.4.3.52.12,1.19-.4,1.5Z"/>
      <path d="m169.33,103.06c-.3.52-.97.7-1.5.4-.52-.3-.7-.97-.4-1.5.3-.52.97-.7,1.5-.4.52.3.7.97.4,1.5Z"/>
      <circle cx="170.6" cy="94.22" r="1.09"/>
      <path d="m163.26,80.41c-.3.52-.97.7-1.49.4-.52-.3-.7-.97-.4-1.5.3-.52.97-.7,1.5-.4.52.3.7.97.4,1.49Z"/>
      <path d="m168.69,86.48c-.3.52-.97.7-1.49.4-.52-.3-.7-.97-.4-1.5.3-.52.97-.7,1.5-.4.52.3.7.97.4,1.49Z"/>
      <g>
        <path d="m155.12,80.87v16.27c0,.42-.34.77-.77.77s-.77-.34-.77-.77v-16.27c0-.42.34-.77.77-.77s.77.34.77.77Z"/>
        <path d="m166.33,94.29c0,.54-.44.99-.99.99h-13.83c-.55,0-.99-.44-.99-.99s.44-.99.99-.99h13.83c.55,0,.99.44.99.99Z"/>
        <path d="m156.51,94.29c0,.36-.09.69-.24.99-.24.47-.65.84-1.15,1.02-.24.09-.5.14-.77.14s-.53-.05-.77-.14c-.29-.11-.54-.28-.75-.49-.16-.16-.29-.34-.39-.53-.15-.29-.24-.63-.24-.99s.09-.69.24-.99c.24-.47.65-.84,1.14-1.02.24-.09.5-.14.77-.14s.53.05.77.14c.29.11.54.28.75.49.16.16.29.34.39.54.15.3.24.63.24.99Z"/>
      </g>
    </g>
    <g>
      <path class="cls-5" d="m57.46,86.04l-2.21-9.61c1.43-2.68,2.21-5.69,2.21-8.76,0-10.22-8.32-18.54-18.54-18.54s-18.55,8.32-18.55,18.54,8.32,18.55,18.55,18.55c2.76,0,5.5-.64,7.97-1.83l9.19,2.9c.79.25,1.56-.46,1.37-1.27Z"/>
      <path class="cls-8" d="m35.24,77.48c-.29,0-.56-.11-.77-.32l-7.47-7.47c-.2-.2-.32-.48-.32-.77s.11-.56.32-.77l2.2-2.2c.2-.2.48-.32.77-.32s.56.11.76.32l4.5,4.5,12.06-12.06c.2-.2.48-.32.77-.32s.56.11.76.32l2.2,2.2c.2.2.32.48.32.77s-.11.56-.32.77l-15.02,15.03c-.2.2-.48.32-.77.32Z"/>
    </g>
    <g>
      <path d="m76.7,26.4v-4.03h1.2v4.01c0,.49-.08.88-.25,1.16-.29.48-.8.73-1.55.73s-1.25-.2-1.5-.59-.38-.93-.38-1.6v-.13h1.14v.13c.01.45.06.76.15.94s.27.27.56.27.47-.1.56-.3c.05-.12.08-.31.08-.59Z"/>
      <path d="m83.26,26.94h-2.12l-.4,1.18h-1.26l2.05-5.76h1.36l2.04,5.76h-1.3l-.37-1.18Zm-.34-.99l-.72-2.27-.74,2.27h1.46Z"/>
      <path d="m91.13,28.13h-1.2l-2.35-4.09v4.09h-1.12v-5.76h1.26l2.29,4.02v-4.02h1.12v5.76Z"/>
      <path d="m92.62,22.37h1.29l1.25,4.37,1.26-4.37h1.25l-1.96,5.76h-1.14l-1.95-5.76Z"/>
      <path d="m99.09,22.37h1.2v5.76h-1.2v-5.76Z"/>
      <path d="m106.21,25.61h-2.8v1.48h3.19v1.04h-4.36v-5.76h4.22v1.02h-3.05v1.22h2.8v1Z"/>
      <path d="m110.79,25.87h-1.24v2.26h-1.18v-5.76h2.82c.4,0,.71.06.93.15s.4.23.55.4c.12.15.22.31.3.48s.11.38.11.61c0,.27-.07.54-.21.81s-.37.45-.68.56c.27.11.45.26.56.46s.17.5.17.9v.39c0,.26.01.44.03.54.03.15.1.26.22.33v.14h-1.32c-.04-.13-.06-.23-.08-.31-.03-.16-.05-.33-.05-.5v-.54c-.01-.37-.08-.61-.21-.73s-.37-.18-.72-.18Zm.73-1.05c.24-.11.36-.33.36-.65,0-.35-.12-.58-.35-.7-.13-.07-.33-.1-.59-.1h-1.4v1.55h1.36c.27,0,.47-.03.61-.09Z"/>
    </g>
  </g>
  <rect class="cls-7" x="-259.32" y="-55.49" width="602.19" height="522.43"/>
</svg>