<?xml version="1.0" encoding="UTF-8"?>
<svg id="Calque_1" data-name="Calque 1" xmlns="http://www.w3.org/2000/svg" viewBox="0 0 260 128">
  <defs>
    <style>
      .cls-1 {
        stroke: #000;
      }

      .cls-1, .cls-2 {
        fill: none;
        stroke-linecap: round;
        stroke-linejoin: round;
      }

      .cls-3 {
        fill: #87f3b9;
      }

      .cls-2 {
        stroke: #fff;
        stroke-width: 8px;
      }
    </style>
  </defs>
  <circle class="cls-3" cx="185.95" cy="60.89" r="40.25"/>
  <path class="cls-1" d="m127.29,27.83c-5.3.85-8.48,3.08-18.13,3.5-9.65.43-14.21,2.34-17.5,3.82-3.29,1.49-21.42,1.43-31.18,3.24-9.75,1.8-10.18,9.59-11.24,14.36-1.01,4.56-8.4,5.73-12.77,4.35h-.02c-.7-.76-1.41-1.42-2.03-1.84-.9-.62-2.67-1.32-4.82-1.94.3-1.99-6.87-3.8-6.57-1.45-1.43-.23-2.84-.39-4.14-.45-5.56-.29-11.54,3.76-11.54,12.59h0c0,8.84,5.98,12.89,11.54,12.6,1.29-.06,2.7-.23,4.14-.46h0c-.29,2.36,6.88.53,6.57-1.45,2.14-.62,3.91-1.31,4.82-1.93.62-.43,1.34-1.08,2.04-1.86h.01c4.37-1.36,11.76-.19,12.77,4.36,1.06,4.77,1.49,12.56,11.24,14.36,9.75,1.8,27.89,1.75,31.18,3.23,3.29,1.49,7.85,3.4,17.5,3.82,9.65.43,12.83,2.65,18.13,3.5,5.3.85,9.92.92,13.15-.85,4.35-2.39,2.28-10.5,1.48-7.32s-10.02,5.25-7.63,3.5,2.42-3.34,2.42-3.34c0,0-6.24,2.23-7.04,3.02-2.51,2.51-1.11.48-11.13-3.5-10.02-3.98-15.91-7.32-23.06-6.52-7.16.8-14.32-3.66-22.24-4.23,5.4-2.28,16.22-6.37,21.82-5.05,7.64,1.8,20.89,12.1,38.71,10.45,17.82-1.65,28.7-4.41,41.41-6.43,7.62-1.21,18.82,1.54,28.47.16s14.58-2.97,25.29-3.19c7.51-.15,10.17.63,13.95,3.17,3.92,2.65,7.36,5.33,7.99,2.89s1.23-8.51-.36-9.57c-1.59-1.06-3.4-.53-5.09-2.23-1.7-1.69-2.41-2.9-6.54-1.53-4.14,1.38-4.83.25-6.72.43-3.15.29-2.72.83-11.62-.34-8.91-1.16-14.51-3.98-24.85-2.27-11.33,1.88-12.43,1.46-17.92,1.34-5.19-.11-18.55-2.33-30.01-3.29s-18.08.48-18.08.48l-.27-1.96h0s.27-1.98.27-1.98c0,0,6.63,1.43,18.08.48,11.45-.95,24.81-3.18,30.01-3.28,5.49-.11,6.6-.54,17.92,1.34,10.34,1.71,15.94-1.11,24.85-2.28,8.91-1.16,8.48-.63,11.62-.34,1.89.17,2.58-.95,6.72.42,4.14,1.38,4.84.17,6.54-1.52,1.69-1.7,3.5-1.17,5.09-2.23,1.59-1.06.99-7.13.36-9.57-.64-2.44-4.07.24-7.99,2.89-3.77,2.55-6.44,3.32-13.95,3.17-10.71-.21-15.64-1.81-25.29-3.18-9.65-1.38-20.85,1.37-28.47.16-12.71-2.02-23.59-4.77-41.41-6.43-17.82-1.65-31.07,8.65-38.71,10.45-5.59,1.32-16.41-2.76-21.8-5.05,7.92-.58,15.08-5.03,22.23-4.23,7.16.8,13.04-2.55,23.06-6.52,10.02-3.98,8.62-6.01,11.13-3.5.8.8,7.04,3.02,7.04,3.02,0,0-.04-1.59-2.42-3.34-2.39-1.75,6.84.32,7.64,3.5s2.86-4.93-1.48-7.32c-3.23-1.78-7.85-1.7-13.15-.85Z"/>
  <g>
    <path class="cls-1" d="m73.82,49.59s6.13,5.98,0,12.69"/>
    <path class="cls-1" d="m73.82,65.72s6.13,5.98,0,12.69"/>
  </g>
  <line class="cls-1" x1="129.41" y1="64.01" x2="126.9" y2="64.01"/>
  <rect class="cls-2" x="-218" y="-520.52" width="6467.34" height="6437.3"/>
</svg>