<?xml version="1.0" encoding="UTF-8"?><svg id="Calque_1" xmlns="http://www.w3.org/2000/svg" viewBox="0 0 200.13 128.13"><defs><style>.cls-1{fill:#a07637;}.cls-1,.cls-2,.cls-3,.cls-4,.cls-5,.cls-6,.cls-7,.cls-8,.cls-9,.cls-10{stroke-linecap:round;stroke-linejoin:round;}.cls-1,.cls-3,.cls-4,.cls-5,.cls-6,.cls-7,.cls-8,.cls-9,.cls-10{stroke:#000;}.cls-2{fill:none;stroke:#e30613;stroke-width:8px;}.cls-3{fill:#76ac75;}.cls-4{fill:#fff;}.cls-5{fill:#afaff9;}.cls-6{fill:#f387d5;}.cls-7{fill:#8987f3;}.cls-8{fill:#fab0b4;}.cls-9{fill:#f3d587;}.cls-10{fill:#d6d6d6;}</style></defs><rect class="cls-2" x="-534.98" y="-681.51" width="2655.08" height="1511.77"/><path class="cls-9" d="m9.84,106.77s4.41,10.22,7.09,16.45l8.92.04c.49-2.96-3.45-3.87-3.77-3.95.28-2.55.47-4.9.47-4.9,0,0,6.73,1.65,14.43,3.54v-14.69s-16.92-.24-23.3,2.12c-.02,0-.05.01-.06.01-1.47.41-2.9.95-3.76,1.37Z"/><path class="cls-7" d="m48.19,46.47c6.28,9.92,11.31,13.5,20.71,16.45.58-.66,1.17-1.31,1.71-1.95-5.92-.85-16.59-9.07-20.31-16.43-.84.83-1.55,1.5-2.11,1.93Z"/><path class="cls-3" d="m53.87,40.67c-1.32,1.49-2.54,2.82-3.57,3.87,3.72,7.35,14.39,15.57,20.31,16.43,1.28-1.48,2.37-2.81,3.08-3.66h0c-.35-2.57-.74-5.39-1.11-8.21-.76.03-1.15.03-1.15.03l-1.62-7.43c-.55.64-1.21,1.14-1.96,1.5"/><path class="cls-5" d="m36.97,105.22v12.73c8.27,1.98,17.67,4.2,21.13,4.81,6.81,1.2,12.83.5,15.5-5.13,1.84-3.87-5.06-28.64-9.57-43.81-.52-1.74-.99-3.33-1.44-4.77,1.91-1.45,4.24-3.83,6.32-6.14-9.4-2.95-14.43-6.53-20.71-16.45-4.65,3.56-9.14,8.51-9.44,16.31-.03.78.12,1.82.4,3.05,2.53,11.34,16.46,39.76,16.46,39.76,0,0-9.28-.18-18.64-.37Z"/><path class="cls-7" d="m62.59,69.06c.44,1.44.92,3.03,1.44,4.77,3.45-.11,10.03-.35,15.55-.54-2.53-2.47-4.24-4.28-4.34-4.87-.03-.14-.08-.44-.14-.85l-.11-.75c-.23-1.6-.57-4.17-.99-7.26-.06-.44-.12-.89-.18-1.35-.04-.29-.08-.59-.12-.9-.71.84-1.81,2.17-3.08,3.66-.54.64-1.12,1.29-1.71,1.95-2.08,2.31-4.4,4.69-6.32,6.14Z"/><path class="cls-4" d="m74,59.56c.42,3.08.77,5.66.99,7.26l-.99-7.26Z"/><path class="cls-3" d="m67.86,43.21c.75-.37,1.41-.86,1.96-1.5l1.62,7.43s.39,0,1.15-.03c1.97-.05,6.38-.23,12.59-.66l-.11-3.56-.27-9.3-.11-3.94v-.06c-.06-.51-.11-1.01-.16-1.51v-.02c-.53-6.54-.32-13.03-5.55-13.65-2.3.17-4.41.91-6.37,2.69-3.24,2.95-12.29,14.28-18.73,21.58"/><path class="cls-4" d="m72.58,49.11c.38,2.82.77,5.63,1.11,8.2h0c.04.31.08.62.12.91.07.47.12.91.18,1.35.29,2.12.54,4,.75,5.48l.11.77.1.69c.01.11.03.22.04.31l.11.75c.06.41.11.71.14.85.1.58,1.81,2.4,4.34,4.87,2.64,2.56,6.2,5.83,9.75,9.03.68.62,1.36,1.22,2.04,1.83,1.96,1.75,3.84,3.43,5.53,4.91l5.56-6.54-16.86-19.28-.21-7.02-.23-7.76c-6.21.43-10.62.61-12.59.66Z"/><path class="cls-9" d="m78.97,16.4c5.22.62,5.02,7.1,5.55,13.65.03-.11.06-.24.1-.35,1.53-5.62,1.78-10.81-1.62-13.17-1.42-.16-2.76-.22-4.02-.13Z"/><path class="cls-3" d="m84.62,29.7l.06,1.88v.06l.11,3.94,4.53.43c1.48-1.19,4.19-4.95,4.43-9.88-.22-.38-.41-.75-.56-1.08-.21.03-1.46.67-2.18,1.05h-.01c-.32.17-.53.28-.53.28,0,0-2.27-.06-3.46-3.1-1.54-3.94.69-5.12.69-5.12,0,0,.37-.37.84-.88-1.96-.27-3.82-.58-5.55-.76,3.41,2.36,3.15,7.55,1.62,13.17Z"/><path class="cls-9" d="m84.79,35.59l.27,9.3c1.58-1.61,3.24-3.51,4.73-5.52,2.8-3.76,5.03-7.92,5.18-11.41l.11-.12c-.46-.38-.92-1.05-1.32-1.71-.25,4.93-2.95,8.69-4.43,9.88l-4.53-.43Z"/><path class="cls-7" d="m102.46,82.51l1.5,1.71c.28-6.74.47-13.17.47-17.59,0-1.52-.32-2.82-.89-3.92-3.29-6.58-14.94-6.61-18.16-6.5l.21,7.02,16.86,19.28Z"/><path class="cls-4" d="m93.19,25.05c.15.33.35.7.56,1.08.4.66.85,1.33,1.32,1.71.25.24.51.36.76.38.69.03,2.91-.19,5.52-.94,2.55-.7,5.46-1.91,7.69-3.85-1.85-.88-3.51-2.12-4.9-3.64-1.41-1.06-2.9.62-3.88.44-.99-.17-1.29-.45-1.92-.39-.65.08-2.25,1.47-2.7.72-.45-.75,2.37-2.66,2.37-2.66.19-1.62-1.35-2.36-2.88-1.44-.53.31-1.03.79-1.36,1.29,0,0-.01,0-.01.01-2.28,1.57-5.2-.48-5.2-.48-.48.51-.84.88-.84.88,0,0-2.23,1.18-.69,5.12,1.19,3.04,3.46,3.1,3.46,3.1,0,0,.21-.11.53-.27h.01m2.33-7.57"/><path class="cls-9" d="m90.67,119c-.24,1.61-.29,3.27-.27,4.32h23.05s0-1.55-1.77-3.11c-1.78-1.56-9.2-5.54-9.2-5.54,0,0,.51-8.62.98-18.96l-11.43-.24-1.98-.03-1.22-.03,1.85,23.6Z"/><path class="cls-4" d="m94.63,8.23s-.02,0-.02.02c-2.86,2.13-3.05,5.17-3.57,6.09-.43.74-1.64,2.07-2.5,2.96,0,0,2.93,2.04,5.2.47,0-.02.02-.02.02-.02.33-.49.82-.96,1.36-1.28,1.52-.92,3.07-.19,2.88,1.44,0,0-2.83,1.91-2.37,2.66.46.74,2.06-.65,2.7-.73.63-.06.93.22,1.93.4.98.17,2.47-1.5,3.87-.44,1.39,1.52,3.05,2.77,4.9,3.64.03.02.06.03.09.05.63.3,1.3.55,1.99.62,1.71.14,3.37-.98,4.19-2.5.24-.44.43-.95.41-1.45-.03-1.2-1.12-2.09-2.1-2.78.87-.47,1.36-1.57,1.14-2.53-.22-.98-1.14-1.74-2.13-1.79.25-.66.14-1.45-.28-2.02-.43-.57-1.15-.9-1.87-.85.13-.79.24-1.63,0-2.4-.25-.76-.84-1.38-1.49-1.87-.66-.51-1.41-.93-2.23-1.06-.81-.14-1.71.03-2.32.59-.92-1.36-3.05-1.66-4.32-.62-.17.14-.33.32-.54.41-.43.17-.92,0-1.38,0-.95.02-1.69.81-2.31,1.53-.43.49-.85.98-1.27,1.49Z"/><path class="cls-3" d="m96.56,47.62l10.93-5.19-6.14-15.15c-2.61.74-4.82.96-5.52.93-.25-.02-.51-.14-.76-.38l-.11.13c-.14,3.5-2.37,7.64-5.17,11.4l5.85,8.68.92-.43Z"/><path class="cls-4" d="m91.01,26.1c.72-.38,1.98-1.02,2.18-1.05"/><path class="cls-7" d="m89.33,82.32c.22,3.86.45,8.5.71,13.12l1.98.03,11.43.24c.01-.29.03-.59.04-.89,0,0-.17-.14-.51-.43l-.04-.04-6.46-4.79.41-.5c-1.69-1.48-3.57-3.16-5.53-4.91-.68-.61-1.36-1.21-2.04-1.83Z"/><path class="cls-9" d="m96.49,89.55l6.46,4.79.04.04c.33.29.51.43.51.43,0,0,1.73,3.9,3.07,4.9,1.33.98,2.36,1.6,4.3,1.36,1.95-.24,5.24-2.12,5.35-2.73.13-.62-2.17-1.88-2.61-2.29-.41-.39-2.44-3.69-2.44-3.69,1.03-.21,3.97,2.65,4.49,1.7.51-.93-2.38-4-3.18-4.34-.82-.32-4.04-.41-4.04-.41l-4.48-5.1-1.5-1.71-5.56,6.54-.41.5Z"/><path class="cls-4" d="m107.49,42.44l-10.93,5.19c2.94,5.84,6.25,12.4,7.48,14.82.17.36.32.63.4.79.82,1.6,15.06,11.4,23.83,17.33l4.52-6.52-19.45-17.21-5.85-14.41Z"/><path class="cls-9" d="m128.27,80.57l-.47.68,7.1,4.51c-.06.63.16,1.49.82,2.37.93,1.25,2.04,2.55,3.68,2.21-.11-.27-.25-.6-.38-.96,0-.93.66-2.36,1.42-2.48.76-.13,1.53.22,1.91.6.33,1.01.65,2.02.79,2.58,1-.59,1.74-1.09,1.93-1.83.21-.77.21-4.11-.49-5.58-.47-1.01-3.59-2.31-5.47-3.02l-6.33-5.58-4.52,6.52Z"/><path class="cls-10" d="m142.83,91.98l-.47-1.03c-.27-.76-1.19,0-1.19,0l.35,1.38.52,1.99s-3.64,2.42-3.48,3.07c.16.65,4.02,5.12,6.78,3.99,2.77-1.14,3.68-7.39,2.61-7.39-1.09,0-4.24-.13-4.24-.13l-.89-1.88Z"/><path class="cls-3" d="m143.15,90.07c-.14-.55-.46-1.57-.79-2.58-.38-.38-1.15-.73-1.91-.6-.76.13-1.42,1.55-1.42,2.48.13.36.27.7.38.96.17.44.3.73.3.73.36.82,1.03,1.22,1.82,1.27l-.35-1.38s.92-.76,1.19,0l.47,1.03c.46-.4.4-1.09.4-1.52,0-.06-.03-.21-.08-.4Z"/><path class="cls-3" d="m167.94,107.42c.48-2.58-.09-5.28.13-7.9.2-2.62.07-5.26-.07-7.88-.01-.2-.42-.2-.42,0-.02,2.62-.21,5.24-.42,7.85-.22,2.61-1.05,6.76.62,7.91-.02.22.12.23.15.02Z"/><path class="cls-3" d="m167.58,97.32c0-.15-.75-4.27-4.75-6.65,0,0,.67,4.13,4.75,6.65Z"/><path class="cls-3" d="m167.87,94.07c.04-.1,1.76-2.46,5-2.74,0,0-1.68,2.4-5,2.74Z"/><path class="cls-3" d="m167.58,100.26s.65-4.82,6.28-6.68c0,0-2.09,4.82-6.28,6.68Z"/><path class="cls-8" d="m165.11,82.88s-2.97,5.47,2.83,8.83c0,0-3.31-3.96-.78-7.49,0,0-.3-.46-.97-.87-.29-.18-.65-.35-1.08-.47Z"/><path class="cls-8" d="m166.19,83.35c.67.41.97.87.97.87.22-.3.48-.6.79-.9,0,0,.45.44.93,1.15,0,0,.27-.49,1.12-1.02h0s-.33-1.28-2.17-2.07c0,0-.86.47-1.64,1.97Z"/><path class="cls-8" d="m167.16,84.22c-2.53,3.53.78,7.49.78,7.49,3.26-2.63,2.01-5.63.94-7.23-.48-.72-.93-1.15-.93-1.15-.31.29-.57.59-.79.9Z"/><path class="cls-8" d="m167.94,91.71c5.2-2.7,3.72-9.03,3.72-9.03-.71.24-1.25.51-1.66.77-.85.54-1.12,1.02-1.12,1.02,1.08,1.6,2.32,4.61-.94,7.23Z"/><path class="cls-3" d="m160.07,105.63c.15-1.93-.49-3.87-.54-5.81-.06-1.94-.37-3.87-.68-5.78-.03-.15-.33-.12-.31.04.2,1.93.27,3.86.32,5.8.05,1.93-.23,5.05,1.09,5.75,0,.16.1.16.11,0Z"/><path class="cls-3" d="m159,98.24c0-.11-.89-3.08-4.02-4.5,0,0,.82,2.98,4.02,4.5Z"/><path class="cls-3" d="m159.42,103.84c0-.14-1.15-3.97-5.19-5.81,0,0,1.06,3.85,5.19,5.81Z"/><path class="cls-3" d="m159.23,100.4s.09-3.59,4.08-5.41c0,0-1.15,3.71-4.08,5.41Z"/><path class="cls-8" d="m156.02,87.84s-1.74,4.26,2.79,6.26c0,0-2.75-2.64-1.17-5.44,0,0-.26-.31-.78-.56-.23-.11-.5-.2-.83-.26Z"/><path class="cls-8" d="m156.86,88.1c.53.25.78.56.78.56.14-.24.3-.48.51-.72,0,0,.36.29.77.77,0,0,.16-.38.74-.84h0s-.34-.91-1.76-1.34c0,0-.59.41-1.05,1.58Z"/><path class="cls-8" d="m157.64,88.66c-1.57,2.79,1.17,5.44,1.17,5.44,2.18-2.19,1.03-4.3.11-5.39-.41-.49-.77-.77-.77-.77-.2.24-.37.48-.51.72Z"/><path class="cls-8" d="m158.81,94.09c3.6-2.4,2.01-6.93,2.01-6.93-.5.23-.88.47-1.15.7-.58.46-.74.84-.74.84.92,1.09,2.07,3.2-.11,5.39Z"/><path class="cls-1" d="m155.81,123.16h15.81c1.26,0,2.32-.96,2.43-2.22l1.3-14.58h-23.27s1.3,14.58,1.3,14.58c.11,1.26,1.17,2.22,2.43,2.22Z"/><polygon class="cls-1" points="175.03 109.87 152.39 109.87 152.08 106.35 175.34 106.35 175.03 109.87"/><polygon class="cls-1" points="176.23 108.6 151.19 108.6 150.44 103.06 176.98 103.06 176.23 108.6"/><path class="cls-3" d="m132.32,122.81c.48-2.58-.09-5.28.13-7.9.2-2.62.07-5.26-.07-7.88-.01-.2-.42-.2-.42,0-.02,2.62-.21,5.24-.42,7.85-.22,2.61-1.05,6.76.62,7.91-.02.22.12.23.15.02Z"/><path class="cls-3" d="m131.96,112.71c0-.15-.75-4.27-4.75-6.65,0,0,.67,4.13,4.75,6.65Z"/><path class="cls-3" d="m132.25,109.47c.04-.1,1.76-2.46,5-2.74,0,0-1.68,2.4-5,2.74Z"/><path class="cls-3" d="m131.96,115.66s.65-4.82,6.28-6.68c0,0-2.09,4.82-6.28,6.68Z"/><path class="cls-5" d="m129.49,98.28s-2.97,5.47,2.83,8.83c0,0-3.31-3.96-.78-7.49,0,0-.3-.46-.97-.87-.29-.18-.65-.35-1.08-.47Z"/><path class="cls-5" d="m130.57,98.75c.67.41.97.87.97.87.22-.3.48-.6.79-.9,0,0,.45.44.93,1.15,0,0,.27-.49,1.12-1.02h0s-.33-1.28-2.17-2.07c0,0-.86.47-1.64,1.97Z"/><path class="cls-5" d="m131.54,99.62c-2.53,3.53.78,7.49.78,7.49,3.26-2.63,2.01-5.63.94-7.23-.48-.72-.93-1.15-.93-1.15-.31.29-.57.59-.79.9Z"/><path class="cls-5" d="m132.32,107.11c5.2-2.7,3.72-9.03,3.72-9.03-.71.24-1.25.51-1.66.77-.85.54-1.12,1.02-1.12,1.02,1.08,1.6,2.32,4.61-.94,7.23Z"/><path class="cls-3" d="m124.46,121.02c.15-1.93-.49-3.87-.54-5.81-.06-1.94-.37-3.87-.68-5.78-.03-.15-.33-.12-.31.04.2,1.93.27,3.86.32,5.8.05,1.93-.23,5.05,1.09,5.75,0,.16.1.16.11,0Z"/><path class="cls-3" d="m123.38,113.63c0-.11-.89-3.08-4.02-4.5,0,0,.82,2.98,4.02,4.5Z"/><path class="cls-3" d="m123.8,119.24c0-.14-1.15-3.97-5.19-5.81,0,0,1.06,3.85,5.19,5.81Z"/><path class="cls-3" d="m123.62,115.8s.09-3.59,4.08-5.41c0,0-1.15,3.71-4.08,5.41Z"/><path class="cls-6" d="m120.41,103.23s-1.74,4.26,2.79,6.26c0,0-2.75-2.64-1.17-5.44,0,0-.26-.31-.78-.56-.23-.11-.5-.2-.83-.26Z"/><path class="cls-6" d="m121.24,103.49c.53.25.78.56.78.56.14-.24.3-.48.51-.72,0,0,.36.29.77.77,0,0,.16-.38.74-.84h0s-.34-.91-1.76-1.34c0,0-.59.41-1.05,1.58Z"/><path class="cls-6" d="m122.02,104.05c-1.57,2.79,1.17,5.44,1.17,5.44,2.18-2.19,1.03-4.3.11-5.39-.41-.49-.77-.77-.77-.77-.2.24-.37.48-.51.72Z"/><path class="cls-6" d="m123.19,109.49c3.6-2.4,2.01-6.93,2.01-6.93-.5.23-.88.47-1.15.7-.58.46-.74.84-.74.84.92,1.09,2.07,3.2-.11,5.39Z"/></svg>