<?xml version="1.0" encoding="UTF-8"?><svg id="Calque_1" xmlns="http://www.w3.org/2000/svg" viewBox="0 0 200.13 128.13"><defs><style>.cls-1{fill:#a07637;}.cls-1,.cls-2,.cls-3,.cls-4,.cls-5,.cls-6,.cls-7,.cls-8,.cls-9,.cls-10,.cls-11,.cls-12,.cls-13,.cls-14,.cls-15{stroke-linecap:round;stroke-linejoin:round;}.cls-1,.cls-3,.cls-4,.cls-5,.cls-6,.cls-7,.cls-8,.cls-9,.cls-10,.cls-11,.cls-12,.cls-13,.cls-14,.cls-15{stroke:#000;}.cls-2{stroke:#e30613;stroke-width:8px;}.cls-2,.cls-4,.cls-6,.cls-12,.cls-13{fill:none;}.cls-3{fill:#76ac75;}.cls-4{stroke-width:.45px;}.cls-16{fill:#bfe6fc;}.cls-5,.cls-8,.cls-14{fill:#fff;}.cls-7{fill:#fab0b4;}.cls-7,.cls-9,.cls-13{stroke-width:2px;}.cls-8{stroke-width:1.12px;}.cls-9,.cls-15{fill:#d6d6d6;}.cls-10{fill:#87ccf3;}.cls-11{fill:#8987f3;}.cls-12{stroke-width:.99px;}.cls-14{stroke-width:.83px;}</style></defs><rect class="cls-2" x="-534.98" y="-886.79" width="2655.08" height="1511.77"/><rect class="cls-13" x="6.19" y="18.9" width="107.09" height="95.88"/><rect class="cls-9" x="13.26" y="73.88" width="32.96" height="40.9"/><rect class="cls-9" x="13.26" y="73.88" width="16.48" height="40.9"/><rect class="cls-6" x="13.26" y="36.12" width="12.7" height="12.7"/><rect class="cls-6" x="33.51" y="36.12" width="12.7" height="12.7"/><rect class="cls-6" x="53.32" y="36.12" width="12.7" height="12.7"/><rect class="cls-6" x="73.27" y="36.12" width="12.7" height="12.7"/><rect class="cls-6" x="93.22" y="36.12" width="12.7" height="12.7"/><rect class="cls-6" x="53.32" y="54.14" width="12.7" height="12.7"/><rect class="cls-6" x="73.27" y="54.14" width="12.7" height="12.7"/><rect class="cls-6" x="93.22" y="54.14" width="12.7" height="12.7"/><rect class="cls-6" x="53.32" y="72.16" width="12.7" height="12.7"/><rect class="cls-6" x="73.27" y="72.16" width="12.7" height="12.7"/><rect class="cls-6" x="93.22" y="72.16" width="12.7" height="12.7"/><rect class="cls-7" x="6.19" y="9.85" width="107.09" height="18.78"/><line class="cls-6" x1="26.29" y1="96.8" x2="26.29" y2="101.09"/><line class="cls-6" x1="33.18" y1="96.8" x2="33.18" y2="101.09"/><path class="cls-16" d="m14.93,44.05v-6.44h8.42v2.13s-3.03-1-4.77.88c-1.74,1.88-1.74,3.43-1.74,3.43h-1.91Z"/><path class="cls-16" d="m35.43,44.05v-6.44h8.42v2.13s-3.03-1-4.77.88-1.74,3.43-1.74,3.43h-1.91Z"/><rect class="cls-6" x="13.26" y="53.83" width="12.7" height="12.7"/><rect class="cls-6" x="33.51" y="53.83" width="12.7" height="12.7"/><path class="cls-16" d="m14.93,61.76v-6.44h8.42v2.13s-3.03-1-4.77.88c-1.74,1.88-1.74,3.43-1.74,3.43h-1.91Z"/><path class="cls-16" d="m35.43,61.76v-6.44h8.42v2.13s-3.03-1-4.77.88-1.74,3.43-1.74,3.43h-1.91Z"/><path class="cls-16" d="m54.92,44.05v-6.44h8.42v2.13s-3.03-1-4.77.88c-1.74,1.88-1.74,3.43-1.74,3.43h-1.91Z"/><path class="cls-16" d="m75.02,44.05v-6.44h8.42v2.13s-3.03-1-4.77.88c-1.74,1.88-1.74,3.43-1.74,3.43h-1.91Z"/><path class="cls-16" d="m94.99,44.05v-6.44h8.42v2.13s-3.03-1-4.77.88c-1.74,1.88-1.74,3.43-1.74,3.43h-1.91Z"/><path class="cls-16" d="m54.92,62.18v-6.44h8.42v2.13s-3.03-1-4.77.88c-1.74,1.88-1.74,3.43-1.74,3.43h-1.91Z"/><path class="cls-16" d="m75.02,62.18v-6.44h8.42v2.13s-3.03-1-4.77.88c-1.74,1.88-1.74,3.43-1.74,3.43h-1.91Z"/><path class="cls-16" d="m94.99,62.18v-6.44h8.42v2.13s-3.03-1-4.77.88c-1.74,1.88-1.74,3.43-1.74,3.43h-1.91Z"/><path class="cls-16" d="m54.92,80.32v-6.44h8.42v2.13s-3.03-1-4.77.88c-1.74,1.88-1.74,3.43-1.74,3.43h-1.91Z"/><path class="cls-16" d="m75.02,80.32v-6.44h8.42v2.13s-3.03-1-4.77.88c-1.74,1.88-1.74,3.43-1.74,3.43h-1.91Z"/><path class="cls-16" d="m94.99,80.32v-6.44h8.42v2.13s-3.03-1-4.77.88c-1.74,1.88-1.74,3.43-1.74,3.43h-1.91Z"/><rect class="cls-6" x="53.32" y="90.45" width="12.7" height="12.7"/><rect class="cls-6" x="73.27" y="90.45" width="12.7" height="12.7"/><rect class="cls-6" x="93.22" y="90.45" width="12.7" height="12.7"/><path class="cls-16" d="m54.92,98.61v-6.44h8.42v2.13s-3.03-1-4.77.88c-1.74,1.88-1.74,3.43-1.74,3.43h-1.91Z"/><path class="cls-16" d="m75.02,98.61v-6.44h8.42v2.13s-3.03-1-4.77.88c-1.74,1.88-1.74,3.43-1.74,3.43h-1.91Z"/><path class="cls-16" d="m94.99,98.61v-6.44h8.42v2.13s-3.03-1-4.77.88c-1.74,1.88-1.74,3.43-1.74,3.43h-1.91Z"/><path d="m46.21,16.45h-4.57v1.83h4.2v1.5h-4.2v2.22h4.78v1.55h-6.54v-8.64h6.33v1.53Z"/><path d="m47.82,23.56v-8.64h1.79v3.29h3.36v-3.29h1.79v8.64h-1.79v-3.86h-3.36v3.86h-1.79Z"/><path d="m62.29,19.82c-.5.42-1.23.63-2.17.63h-1.8v3.11h-1.79v-8.64h3.71c.86,0,1.54.22,2.04.67.51.45.76,1.13.76,2.07,0,1.02-.25,1.74-.76,2.16Zm-1.38-3.11c-.23-.19-.55-.29-.96-.29h-1.63v2.54h1.63c.41,0,.73-.1.96-.31s.34-.54.34-.98-.11-.77-.34-.96Z"/><path d="m66.09,14.92h2.04l3.06,8.64h-1.96l-.57-1.78h-3.18l-.59,1.78h-1.89l3.08-8.64Zm-.12,5.37h2.21l-1.09-3.4-1.12,3.4Z"/><path d="m77.34,15.11c.61.2,1.1.56,1.47,1.1.3.43.51.89.62,1.39s.16.98.16,1.43c0,1.15-.23,2.12-.69,2.92-.62,1.07-1.59,1.61-2.9,1.61h-3.72v-8.64h3.72c.54,0,.98.07,1.34.19Zm-3.31,1.31v5.64h1.67c.85,0,1.45-.42,1.78-1.26.18-.46.28-1.01.28-1.65,0-.88-.14-1.55-.41-2.02-.28-.47-.82-.71-1.65-.71h-1.67Z"/><line class="cls-13" x1="106.36" y1="114.78" x2="193.98" y2="114.78"/><path class="cls-14" d="m191.43,73.59s1.89-.68,1.82-5.07c-.02-1.16-1.98-3.36-1.98-3.36"/><path class="cls-14" d="m188.74,59.49s-.56,5.22-.72,6.48c-.22,1.73.53,2.59.6,3.36.18,1.95.25,2.85.82,2.97.99.22.81-3.33.81-3.33,0,0,.86,1.34.67,2.4-.19,1.06-.48,4.64.58,2.62s1.13-5.68,1.13-5.68c0,0-.48-1.92-1.06-2.78-.58-.86.1-4.51.1-4.51"/><path class="cls-11" d="m173.78,73.64s-7.27,36.57-7.05,40.7c0,0-5.09,1.4-6.93-.66,0,0,.93-27.31,3.22-30.16s-3.37-16.2.47-25.66c5.98,4.07,12.46,5.46,19.49,3.83l1.55,24.58-9.79,24.33c-5.68.51-6.81-1.04-6.81-1.04l6.18-21.13-.32-14.79Z"/><line class="cls-5" x1="154.4" y1="32.58" x2="163.99" y2="45.72"/><line class="cls-5" x1="150.46" y1="36.03" x2="161.11" y2="49.94"/><path class="cls-3" d="m185.69,49.78c.32,1.93.55,4.14.55,4.14l.42,9.56,4.82-.67.69-.1c1.18-3.69-1.5-30.42-3.43-31.86s-4.13-2.3-4.13-2.3l-3.17-1.06s1.29,4.03-.62,5.13c-1.91,1.1-2.26,2.36-2.26,2.36,0,0-1.06-1.78-2.31-2.25s-1.42-2.2-1.42-2.2l.27-3.32-8.04,2.73c-1.92,0-5.5,5.76-7.89,8.73-1.11,1.35-2.22,2.71-3.14,4.19-1.6,2.57-2.76,5.85-1.21,8.73.92,1.72,2.44,3.04,3.93,4.26,1.77,1.45,3.72,2.75,5.81,3.71.59.27,1.28.06,1.62-.49.42-.68.76-1.38,1.07-2.1.04-.06.06-.14.09-.2.21-.48.17-1.03-.09-1.48-.42-.72-.86-1.45-1.34-2.14-1.14-1.69-2.48-3.32-4-4.91.75-.71,1.49-1.44,2.2-2.2l4.99-8.43-3.9,13.3-2.53,7.84-.86,2.84c5.43,1.95,21.86,1.81,21.86,1.81l.42-9.15c1.81-2.53,3.11-15.72,3.11-15.72"/><line class="cls-6" x1="178.57" y1="34.98" x2="176.95" y2="63.38"/><path class="cls-6" d="m181.07,54.6s-5.8,1.02-8.57-.76"/><line class="cls-6" x1="168.65" y1="110.48" x2="168.5" y2="113.2"/><line class="cls-6" x1="173.77" y1="112.97" x2="173.77" y2="110.91"/><path class="cls-1" d="m181.11,120.92c-.91-.24-9.68-1.74-12.47-2.21-.59-.1-1.08-.54-1.23-1.12-.25-.99-.31-2.61,1.09-4.38.94.85,5.27-.23,5.27-.23,0,0,4.09,3.22,7.01,4.31,2.91,1.1,1.41,3.91.33,3.64Z"/><line class="cls-6" x1="166.24" y1="117.82" x2="165.88" y2="114.79"/><path class="cls-1" d="m169.59,125.04c-1.98,1.21-6.43.42-8.41-2.9l.37-3.35c.41.43,1.02.74,1.73.01,1.27-1.32,2.96-.99,2.96-.99,0,0,5.6,5.84,3.34,7.22Z"/><path class="cls-15" d="m147.51,116.36s9.41,5.52,6.48,6.57c-2.93,1.05-2.97,1.55-7.68-1.27s-6.26-.5-6.21-5.42"/><path class="cls-15" d="m131.72,116.3s.74,3.07,1.57,4.43c.84,1.36,2.08,3.45-.79,3.66-2.87.21-7.16.84-7.26-2.4s1.55-3.8,1.35-6.03"/><path class="cls-10" d="m152.04,61.23s-2.63,46.96-4.1,55.01c0,0-3.74,1.25-7.83,0,0,0,.09-23.83,1.34-27.8,0,0-1.43-11.39-1.34-13.38l-7.18,41.18s-6.31.52-7.67-.94l4.41-54.07h22.39Z"/><path class="cls-15" d="m151.62,37.93l.55,13.85.81,9.04s-9.51,9.1-23.78,0c0,0,1.4-10.98,1.91-17.15,0,0-7.29-2.26-7.29-2.26,2.17-8.06,6.1-13.57,7.32-14.29,1.48-.87,5.47-3.01,5.47-3.01,0,0,6.45,5.43,8.1,5.15,0,0,1.1-3.9.68-4.95,0,0,4.78-.17,6.75,2.34,2.27,2.9,4.22,6.69,4.22,6.69,0,0-3.52,4.55-4.74,4.6Z"/><path class="cls-6" d="m148.79,12.13s1.45-.65,1.13-2.57c-.38-2.31-2.46-2.36-2.46-2.36-1.11-1.84-6.01-2.91-10.54-.46-4.53,2.45-1.85,7.46-.49,8.34"/><path class="cls-6" d="m134.45,11.92s-.77,2.24.39,4c1.01,1.54,3.4,4.29,3.6,6.06"/><path class="cls-6" d="m145.03,24.22c-1.43-.66-1.81-2.42-2.02-2.62.42.25,1.76.57,3.53.51,1.88-.07,2-.92,2.25-2.88.25-1.94-.17-4.3-.07-6.44.01-.23,0-.45-.01-.67-.13-1.76-1.08-2.84-1.65-3.41,0,0-2.04,3.49-2.48,4.05-.43.56-1.85,2.19-2.9,1.8-.96-.36-1.78-1.09-2.6-.57-.82.52-.88,2.32.07,2.9"/><path d="m148.67,14.27c0-.38-.22-.68-.49-.68-.27,0-.48.31-.47.69,0,.37.22.67.48.68.27,0,.48-.31.48-.68Z"/><path d="m145.53,15c0-.38-.22-.68-.49-.68-.27,0-.48.31-.47.69,0,.37.22.67.48.68.27,0,.48-.31.48-.68Z"/><path class="cls-4" d="m148.88,13.2s-.42-.58-1.22-.19"/><path class="cls-4" d="m143.97,13.72s.57-.6,1.39-.28"/><path class="cls-6" d="m138.67,16.38s.62.99,1.97,1.08"/><line class="cls-6" x1="151.33" y1="32.39" x2="151.97" y2="47.15"/><path class="cls-6" d="m136.61,24.11s.66-.39,1.83-2.13"/><polyline class="cls-6" points="135.4 34.88 133 44.28 128.69 42.9"/><path class="cls-15" d="m171.82,18.51s0,0-.01-.02h0c-.06-.14-.35-.8-.55-1.7v-.03c-.4-1.81-.42-4.54,2.58-5.75,0,0,.19-.99,1.46-.84,0,0,1.47-1.61,3.24-.29,1.23-.35,1.57.6,1.57.6,3.39.8,3.61,3.86,3.41,5.68,0,.04-.01.07-.01.09"/><polyline class="cls-5" points="174.98 28.74 175.26 26.6 175.28 26.2 180.81 25.13 180.96 26.28 181.45 28.45"/><path class="cls-6" d="m177.27,10.88s0,1.03-.37,1.73h0"/><path class="cls-6" d="m175.27,13.04c-.82-.47-1.37-1.67-1.37-1.67"/><path class="cls-6" d="m172.69,22.51h0c-.1-.02-.77-.19-1.16-1.25-.43-1.14-.91-1.01-.96-2.19-.03-1.11,1.05-.63,1.17-.57"/><path class="cls-6" d="m182.13,12.34s-.8.47-1.69.64"/><path class="cls-5" d="m173.58,13.55c.51.03,1.1-.09,1.69-.51.25.15.51.22.78.19.39-.04.65-.3.83-.63,0,0,.02.02.03.02.11.1.82.72,1.69-.12.46.55,1.17.6,1.84.48.4.31.94.27.94.27.03.04.07.1.1.14,1.63,2.3,1.79,3.87,1.8,4.04.1-.41.17-.8.23-1.17-.09.69-.22,1.19-.25,1.3h0s0,.03,0,.03h0c.02.65.03,2.34-.24,4.09-.23,1.45-.66,2.95-1.46,3.91-1.84,2.24-3.04,2.29-3.22,2.28-.18.04-1.45.23-3.62-1.71-.94-.83-1.6-2.24-2.05-3.64-.53-1.69-.79-3.35-.86-4.01h0c-.01-.07-.02-.15-.02-.23.02.06.02-.44.03-.71.18-1.36,1.41-3.6,1.56-3.99l.18-.03Z"/><path class="cls-6" d="m171.83,17.57c-.04.26-.05.49-.03.71"/><path class="cls-6" d="m181.51,13.58s1.74,2.54,1.75,4"/><path class="cls-6" d="m171.78,18.23h0s0,.12.03.25h0s0,.03,0,.03"/><path class="cls-6" d="m183.26,17.58v-.02"/><path class="cls-6" d="m183.25,17.3s0,.09.01.25"/><path class="cls-6" d="m183.02,21.68h0c.09-.04.73-.31.95-1.42.25-1.19.75-1.14.61-2.31-.14-1.11-1.21-.45-1.32-.37"/><path class="cls-6" d="m179.32,11.5c-.22.41-.44.72-.65.93-.03.03-.04.06-.07.07"/><path class="cls-6" d="m176.91,12.62l-.02-.02"/><path class="cls-5" d="m178.09,17.44s.39,3.51,1.16,5.27c0,0-.15.36-1.29.14"/><path class="cls-6" d="m146.81,13.81s.5,2.08,1.28,3.86c0,0-.15.36-1.3.14"/><ellipse class="cls-5" cx="175.74" cy="19.12" rx=".12" ry=".35" transform="translate(-.95 13.62) rotate(-4.42)"/><ellipse class="cls-5" cx="180.57" cy="18.66" rx=".12" ry=".35" transform="translate(-.9 13.99) rotate(-4.42)"/><circle class="cls-6" cx="175.78" cy="19.2" r="1.69"/><circle class="cls-6" cx="180.76" cy="18.69" r="1.69"/><path class="cls-6" d="m177.05,18.07s1.17-.91,2.24-.22"/><line class="cls-6" x1="176.35" y1="15.73" x2="179.13" y2="15.35"/><line class="cls-6" x1="176.07" y1="14.62" x2="178.85" y2="14.25"/><path class="cls-6" d="m179.36,25.02c-.46.21-1.19.33-2.13-.23"/><path class="cls-12" d="m148.57,19.42c-.42.28-1.13.53-2.15.11"/><path class="cls-6" d="m176.18,25.11s-.43-.44.17-1.11"/><path class="cls-6" d="m180.14,24.2s.57.22.31,1.08"/><line class="cls-5" x1="173.96" y1="18.99" x2="171.32" y2="18.26"/><line class="cls-5" x1="182.68" y1="18.03" x2="183.53" y2="17.37"/><path class="cls-5" d="m125.49,41.92l6.27,1.98-5.56,22.54s.42,6.27-.64,7.51c-1.06,1.25-.8-3.2-.8-3.2,0,0-1.53,4.22-2.21,4.22s.59-4.32.59-4.32c0,0-1.65,5.47-2.51,5.28s1.34-5.37,1.34-5.37c0,0-2.47,5.28-3.04,4.06-.34-.72,2.03-4.83,2.03-4.83,0,0-1.76,3.44-2.29,3.2s2.48-6.03,3.39-6.84,3.42-24.24,3.42-24.24Z"/><line class="cls-15" x1="161.55" y1="118.79" x2="161.58" y2="115.18"/><path class="cls-5" d="m176.64,58.73s-2.88-.45-2.88-.45c-.42-.07-.85-.1-1.28-.18-.21-.04-.42-.09-.63-.17-.19-.07-.43-.17-.16-.28.18-.08.39-.11.58-.15.29-.06.62-.13.89-.29.15-.09.28-.23.3-.4.02-.22-.15-.43-.36-.51,0,0-.02,0-.02,0-.22-.08-.46-.06-.69-.03-.74.08-1.49.26-2.23.29-.43.02-.83-.05-1.27.01-.35.05-.69.14-1.03.25l-.6-.37s.01-.04.01-.04c-.19-.12-.37-.23-.56-.35-.3,1.07-.61,2.14-.92,3.21.44.17.72.27.72.26,0,0,0,0,0-.02.62,1.18,1.9,2.22,3.11,2.55.12.03.25.06.36.12.09.05.16.12.23.18.43.4.83.81,1.23,1.24.25.27.66.96,1.11.84.3-.08.42-.48.2-.7-.39-.41-.78-.82-1.18-1.22-.15-.15-.32-.28-.44-.45-.04-.05-.15-.17-.14-.25.09-.39.74.1.9.2.3.19.59.37.89.56.42.26.85.51,1.27.76.27.16.65.5.96.24.22-.18.19-.54-.05-.68-.14-.08-.27-.16-.41-.24-.03-.04-.06-.07-.11-.1-.47-.3-.92-.61-1.37-.93-.22-.16-.45-.32-.67-.49-.09-.07-.59-.27-.49-.44.11-.19.69.14.82.18.38.12.77.24,1.15.36.52.16,1.02.34,1.54.5.32.1.91.41,1.14,0,.12-.21.02-.51-.2-.61-.02-.02-.05-.04-.08-.05-.7-.36-1.44-.63-2.17-.91-.36-.13-.72-.27-1.07-.43-.18-.08-.36-.16-.54-.25-.07-.04-.28-.09-.24-.21.04-.11.27-.08.35-.07.22.02.44.11.65.12.37.02.74.04,1.11.07.51.03,1.03.07,1.54.1.31.02.81.2,1.01-.14.15-.24-.01-.61-.29-.66Z"/><path class="cls-3" d="m157.3,54.57c1.77,1.45,3.67,3.35,5.76,4.32.59.27,2.75,1.34,3.08.79.42-.68.81-1.99,1.11-2.71.04-.06.06-.14.09-.2.21-.48.17-1.03-.09-1.48-.42-.72-2.33-2.72-2.8-3.42-1.14-1.69-2.48-3.32-4-4.91"/><path class="cls-8" d="m163.67,47.41c-.33.07-.65.17-.95.3-.38.16-.67.41-1.02.6-.61.33-.57.55-1.21.84-.2.09-.4.19-.54.36,0,0,0,.01-.01.02-.12.17-.16.4-.03.56.1.12.28.17.44.17.29,0,.59-.11.86-.21.17-.06.35-.14.54-.17.28-.04.13.35.01.49-.13.16-.27.3-.42.43-.3.27-.63.5-.94.75,0,0-2.09,1.72-2.1,1.72-.21.17-.15.53.09.64.33.16.65-.22.88-.38.4-.27.79-.55,1.19-.82.29-.19.57-.39.86-.58.17-.11.3-.29.47-.41.06-.04.23-.37.32-.3.09.07-.24.21-.28.27-.1.15-.2.3-.31.45-.21.29-.43.56-.65.84-.45.56-.92,1.12-1.3,1.73-.02.03-.03.05-.04.08-.13.18-.06.46.14.56.38.19.7-.32.91-.55.34-.37.66-.75.99-1.12.25-.28.5-.55.75-.83.09-.1.58-.63.77-.53.16.08-.14.47-.18.57-.1.23-1.43,2.2-1.43,2.24-.07.12-.14.25-.21.37-.13.22.03.51.3.54.38.05,2.05-2.46,2.19-2.75.08-.15.36-.84.62-.58.05.05-.81,1.82-.92,2.32-.06.27.1.53.38.45.42-.12.58-.77.9-1.28.28-.45.77-1.87.86-1.96.82-.84.33-5.08-1.14-5.97,0,0-.76,1.14-.76,1.14Z"/></svg>