<?xml version="1.0" encoding="UTF-8"?>
<svg id="Calque_1" data-name="Calque 1" xmlns="http://www.w3.org/2000/svg" viewBox="0 0 128 128">
  <defs>
    <style>
      .cls-1 {
        fill: #afaff9;
      }

      .cls-1, .cls-2, .cls-3, .cls-4, .cls-5, .cls-6, .cls-7, .cls-8, .cls-9 {
        stroke-linecap: round;
        stroke-linejoin: round;
      }

      .cls-1, .cls-2, .cls-3, .cls-4, .cls-5, .cls-6, .cls-7, .cls-8, .cls-10 {
        stroke: #000;
      }

      .cls-2 {
        fill: #b2f0e9;
      }

      .cls-3 {
        fill: #b4eac3;
      }

      .cls-4, .cls-11 {
        fill: #ff6d75;
      }

      .cls-5 {
        fill: #f3d587;
      }

      .cls-6, .cls-12 {
        fill: #fff;
      }

      .cls-7, .cls-9, .cls-10 {
        fill: none;
      }

      .cls-8, .cls-13 {
        fill: #fab0b4;
      }

      .cls-9 {
        stroke: #fff;
        stroke-width: 8px;
      }

      .cls-10 {
        stroke-miterlimit: 10;
      }
    </style>
  </defs>
  <path class="cls-6" d="m75.51,69.91c-.09-.26.49-1.03-1.55-.52-2.04.52-5.98,3.31-5.98,3.31"/>
  <path class="cls-6" d="m76.52,71.08s1.5-1.41-.7-1.06c-2.21.35-7.13,2.51-7.13,2.51"/>
  <rect class="cls-8" x="76.4" y="85.64" width="14.46" height="7.83"/>
  <g>
    <rect class="cls-8" x="78.18" y="83.58" width="3.81" height="2.06"/>
    <rect class="cls-8" x="85.28" y="83.58" width="3.81" height="2.06"/>
  </g>
  <rect class="cls-5" x="90.87" y="85.64" width="14.46" height="7.83"/>
  <g>
    <rect class="cls-5" x="92.65" y="83.58" width="3.81" height="2.06"/>
    <rect class="cls-5" x="99.74" y="83.58" width="3.81" height="2.06"/>
  </g>
  <g>
    <rect class="cls-2" x="76.44" y="93.47" width="14.46" height="7.83"/>
    <rect class="cls-3" x="90.9" y="93.47" width="14.46" height="7.83"/>
  </g>
  <rect class="cls-8" x="90.85" y="101.3" width="14.46" height="7.83"/>
  <rect class="cls-1" x="105.31" y="101.3" width="14.46" height="7.83"/>
  <g>
    <rect class="cls-5" x="90.88" y="109.13" width="14.46" height="7.83"/>
    <rect class="cls-5" x="105.35" y="109.13" width="14.46" height="7.83"/>
  </g>
  <g>
    <rect class="cls-1" x="107.13" y="99.24" width="3.81" height="2.06"/>
    <rect class="cls-1" x="114.22" y="99.24" width="3.81" height="2.06"/>
  </g>
  <line class="cls-1" x1="73.24" y1="116.96" x2="126.87" y2="116.96"/>
  <polygon class="cls-12" points="25.6 96.49 19.94 101.26 26.37 106.23 25.28 102.95 29.32 106.05 30.23 105.97 27.82 102.97 31.2 105.56 32.6 106.4 33.07 105.28 29.16 101.45 29.5 101.04 32.86 103.84 34.17 104.89 34.89 104.18 32.56 101.36 34.5 101.06 34.5 100.3 30.27 99.91 27.42 98.15 25.6 96.49"/>
  <polygon class="cls-12" points="68.58 73.94 68.46 79.46 70.56 80.71 72.88 72.08 68.58 73.94"/>
  <path class="cls-4" d="m45.24,121.7c-7.08-4.81-35.56-.5-40.34-11.36-4.78-10.86,4.28-15.54,4.28-15.54,0,0,1.54,2.05,4.5,3.74,2.96,1.69,5.47,2.67,6.81,3.77,3.38,2.83,7.63,6.64,6.76,4.23-.23-.63-.48-1.15-.74-1.58l1.22.54s0,0,.02,0c1.18.77,2.67,1.63,3.15,1.39,1.13.55,2.3,1.1,3.45,1.62,3.7,1.69,7.33,3.1,9.92,3.2.27,0,1.14.53,1.94,1.05.59.39,1.14.77,1.36.92.32.22.64.46,1,.73,6.46,4.91,3.78,12.07-3.31,7.28Z"/>
  <path class="cls-7" d="m26.37,104.73c.1.05.21.09.32.14.13.06.25.12.38.18"/>
  <path class="cls-7" d="m34.87,105.04c-.59.37-1.01.32-1.44,0,.47,3.06-2.39,1.08-2.6.93.16.26.25.51.21.73-.02.1-.06.16-.14.2-.48.24-1.97-.61-3.15-1.39,0,0-.02,0-.02,0-.23-.15-.46-.31-.66-.44-.48-.32-.83-.59-.89-.63.06.09.14.19.2.31.05.07.09.14.13.23.26.42.51.95.74,1.58.87,2.41-6.98-4.42-7.08-4.51-.32-.27-.67-.55-1.02-.82l6.62-5.35.12.16c1.88,2.25,3.56,3.96,5.93,3.82,5.21-.32,3.27,2.5.98,1.4.36.23,3.85,2.65,2.08,3.8Z"/>
  <path class="cls-7" d="m25.04,103.26s.52.31,1.13,1.16h0"/>
  <path class="cls-7" d="m8.94,94.23c-10.05-8.09-2.55-28.39-2.55-28.39,4.12-9.8,11.79-8.6,12.91-11.52"/>
  <path class="cls-7" d="m29.16,101.26c2.44,1.13,3.33,3.08,4.27,3.78"/>
  <path class="cls-7" d="m32.79,101.24s-.02-.02-.03-.02"/>
  <path class="cls-7" d="m27.82,103.25s2.28,1.5,3,2.7h.01"/>
  <path class="cls-7" d="m26.17,104.43h0"/>
  <path class="cls-7" d="m30.83,105.97h-.01"/>
  <line class="cls-7" x1="24.62" y1="94.51" x2="24.61" y2="94.51"/>
  <path class="cls-7" d="m21.93,91.54h-.03"/>
  <path class="cls-4" d="m65.39,73.55c-.04.07,3.24,6.34,3.24,6.34-2.2,1.33-25.28,4.24-25.34,4.22-.42-.14-6.76-16.47-6.76-16.47,0,0,5.87,19.83,7.97,24.76,0,0,6.35,13.12,1.68,20.38,0,0,0,.02-.02.03-4.01-2.38-4.22-.09-9.25-2.86-1.04-.57-1.88-1.04-2.58-1.42l-3.3-1.82c.04-.22-.05-.47-.21-.73.21.15,3.07,2.13,2.6-.93.43.32.86.37,1.44,0,1.77-1.15-1.72-3.56-2.08-3.8,2.29,1.1,4.23-1.72-.98-1.4-2.37.14-4.05-1.57-5.93-3.82l-.12-.16-6.62,5.35s-6.15-2.7-8.53-4.92c0,0-2.49-2.51-4.03-4.42-7.09-8.79-.5-28.89,2.71-31.93,3.2-3.04,10.02-5.62,10.02-5.62,6.57,2.24,12.11,1.23,13.22.17.05-.04,0,.05,0,0-.02-.07,6.13.76,8.66,4.42,2.53,3.66,8.45,15.2,8.45,15.2l15.77-.56Z"/>
  <path class="cls-4" d="m53.01,113.36c-2.08.62-2.86,1.92-2.86,1.92,1.13,1.3,2.37,3.77,2.2,5.24-.37,3.3,18.62-1.13,15.01-7.23-1.83-3.09-9.82-1.16-9.82-1.16"/>
  <path class="cls-4" d="m55.92,98.78s-3.79-.85-4.08,7.1c-.07,1.99,0,7.99,0,7.99,0,0,5.06-2.01,9.76-2.3,0,0,4.62-7.68,5.87-17.01,1.24-9.33-9.36-6.58-9.36-6.58l-13.88,3.68s6.25,12.79,1.95,21.11l1.35.91s2.12-1.78,3.93-4.39"/>
  <path class="cls-7" d="m16.13,67.18s.76,14.18.05,20.28c0,0,1.09-.28,5.35,3.69.13.12,1.89,1.81,2.02,1.94l2.32,2.92"/>
  <path class="cls-13" d="m39.51,51.83l-.03-.02s.02-.02.02-.02c0,0,0,.02.02.03Z"/>
  <path class="cls-6" d="m19.65,53.82c1.12-2.92,0-10.98,0-10.98-7.35-10.96-4.61-19.77,1.94-24.69,6.54-4.93,20.8-8.65,29.15,5.12,8.36,13.76-4.07,19.68-4.07,19.68,0,0-1.15,1.76.13,3.23,1.29,1.48-1.97,2.53-1.97,2.53,0,0-1.74,5.86-5.46,7.73,0,0-2.07,1.12-4.42.49-2.35-.63-4.65-2.62-4.65-2.62"/>
  <path class="cls-7" d="m27.89,35.41s-4.13-2.06-4.89,2.27c-.77,4.33,3.05,3.66,3.05,3.66"/>
  <circle cx="42.39" cy="43.13" r="1.02"/>
  <path class="cls-7" d="m41.2,39.61s2.06-1.66,3.87.39"/>
  <line class="cls-7" x1="25.58" y1="37.9" x2="26.48" y2="38.23"/>
  <circle class="cls-13" cx="35.72" cy="42.7" r="2.13"/>
  <path class="cls-11" d="m39.5,51.8s0,.02-.02.02c-.63.45-1.63.49-2.53-.28-.74-.62-1.02-1.28-1.11-1.85,0,0,.02,0,.04,0,.02,0,.06-.02.12-.02.09-.02.22-.04.4-.05.06,0,.12,0,.18,0,.12,0,.25,0,.41.02.29.04.61.13.93.3.08.05.16.08.24.15.06.03.12.07.17.12.43.32.85.83,1.16,1.59Z"/>
  <polygon class="cls-13" points="35.85 49.69 35.85 49.69 35.85 49.69 35.85 49.69"/>
  <path class="cls-13" d="m39.5,51.8c-.32-.76-.73-1.27-1.16-1.59-.05-.05-.11-.09-.17-.12-.08-.06-.16-.1-.24-.15-.32-.17-.65-.26-.93-.3-.15-.02-.28-.03-.41-.02-.07,0-.13,0-.18,0-.18,0-.31.03-.4.05-.05,0-.09.02-.12.02-.02,0-.04,0-.04,0-.12-.79.13-1.38.13-1.38,1.16-1.65,3.4.78,3.4.78,1.14,1.02.91,2.17.12,2.71Z"/>
  <path class="cls-10" d="m39.3,49.16s-2.24-2.43-3.4-.78c0,0-.25.59-.13,1.38.09.57.37,1.23,1.11,1.85.9.76,1.89.72,2.53.28.02,0,.02-.02.02-.02.79-.54,1.02-1.69-.12-2.71Z"/>
  <path class="cls-7" d="m53.61,32.91s-8.99,3.51-15.35-1.91c0,0-2.41,4.81-7.97,1.61"/>
  <g>
    <rect class="cls-1" x="72.53" y="73.16" width="14.46" height="7.83" transform="translate(-21.22 31.2) rotate(-19.59)"/>
    <g>
      <rect class="cls-1" x="72.86" y="72.57" width="3.81" height="2.06" transform="translate(-20.35 29.33) rotate(-19.59)"/>
      <rect class="cls-1" x="79.54" y="70.19" width="3.81" height="2.06" transform="translate(-19.17 31.43) rotate(-19.59)"/>
    </g>
  </g>
  <path class="cls-6" d="m65.58,73.78l2.82,4.68s9.08,2.3,6.98-.02c-2.1-2.32-5.75-2.12-2.41-4.29,3.34-2.17,7.66-2.95,2.88-3-4.79-.05-8.35,2.11-10.18,2.39"/>
  <rect class="cls-9" x="-4610.93" y="-2762.19" width="6467.34" height="6437.3"/>
</svg>