<?xml version="1.0" encoding="UTF-8"?>
<svg id="Calque_1" data-name="Calque 1" xmlns="http://www.w3.org/2000/svg" viewBox="0 0 128 128">
  <defs>
    <style>
      .cls-1, .cls-2, .cls-3, .cls-4, .cls-5, .cls-6, .cls-7, .cls-8, .cls-9, .cls-10 {
        stroke: #000;
      }

      .cls-1, .cls-2, .cls-3, .cls-4, .cls-5, .cls-6, .cls-7, .cls-8, .cls-11, .cls-10 {
        stroke-linecap: round;
        stroke-linejoin: round;
      }

      .cls-1, .cls-8, .cls-9, .cls-11 {
        fill: none;
      }

      .cls-2 {
        fill: #77eddf;
      }

      .cls-2, .cls-3, .cls-4, .cls-5, .cls-6, .cls-7, .cls-8, .cls-9 {
        stroke-width: 2px;
      }

      .cls-12 {
        fill: #fab0b4;
      }

      .cls-13 {
        fill: #fce9b9;
      }

      .cls-14 {
        fill: #b4eac3;
      }

      .cls-3 {
        fill: #ff6d75;
      }

      .cls-4 {
        fill: #a07637;
      }

      .cls-5 {
        fill: #baa584;
      }

      .cls-6 {
        fill: #fff;
      }

      .cls-7 {
        fill: #f3d587;
      }

      .cls-15 {
        font-family: Helvetica, Helvetica;
        font-size: 7px;
      }

      .cls-9 {
        stroke-miterlimit: 10;
      }

      .cls-11 {
        stroke: #fff;
        stroke-width: 8px;
      }
    </style>
  </defs>
  <g>
    <polygon class="cls-14" points="74.51 99.58 26.05 116.03 4.01 51.09 18.31 46.24 47.8 74.23 74.51 99.58"/>
    <polygon class="cls-13" points="72.86 27.73 47.8 74.23 18.31 46.24 72.86 27.73"/>
    <polygon class="cls-12" points="112.89 86.56 74.51 99.58 47.8 74.23 72.86 27.73 90.85 21.62 112.89 86.56"/>
    <rect class="cls-8" x="12.6" y="34.54" width="91.71" height="68.57" transform="translate(-19.02 22.44) rotate(-18.74)"/>
  </g>
  <circle class="cls-4" cx="90.06" cy="68.35" r="4.01"/>
  <circle class="cls-4" cx="112.08" cy="68.35" r="4.01"/>
  <path class="cls-5" d="m93.27,82.51s-10.71,3.8-11.01,8.37c-.3,4.57,1.31,5.18,1.31,5.18h6.87l2.83-13.54Z"/>
  <path class="cls-5" d="m109.2,82.51s10.71,3.8,11.01,8.37c.3,4.57-1.31,5.18-1.31,5.18h-6.87s-2.83-13.54-2.83-13.54Z"/>
  <polygon class="cls-5" points="88.37 109.18 96.01 106.44 90.44 100.91 88.37 109.18"/>
  <polygon class="cls-5" points="114.73 109.18 107.09 106.44 112.66 100.91 114.73 109.18"/>
  <path class="cls-5" d="m115.31,95.35c0-7.72-6.26-16.13-13.97-16.13s-13.97,8.41-13.97,16.13,6.26,11.82,13.97,11.82,13.97-4.1,13.97-11.82Z"/>
  <path class="cls-4" d="m109.77,94.49c0-4.66-3.77-9.73-8.43-9.73s-8.43,5.07-8.43,9.73,3.77,7.13,8.43,7.13,8.43-2.48,8.43-7.13Z"/>
  <rect class="cls-5" x="82.23" y="95.71" width="8.52" height="13.74" rx="4.26" ry="4.26" transform="translate(-24.86 27.71) rotate(-15.95)"/>
  <rect class="cls-5" x="111.83" y="95.71" width="8.52" height="13.74" rx="4.26" ry="4.26" transform="translate(199.52 233.11) rotate(-164.05)"/>
  <path class="cls-5" d="m113.71,77.12s-1.16,10.33-11.87,10.13c-.26,0-.52-.02-.76-.06-.24.03-.49.05-.76.06-10.71.19-11.87-10.13-11.87-10.13,0,0-.4-2.38,3.01-8.16,3.41-5.78,9.61-5.19,9.61-5.19,0,0,6.2-.59,9.61,5.19,3.41,5.78,3.01,8.16,3.01,8.16Z"/>
  <circle class="cls-10" cx="94.08" cy="73.88" r="1.18"/>
  <circle class="cls-10" cx="108.06" cy="73.88" r="1.18"/>
  <ellipse class="cls-6" cx="101.09" cy="75.93" rx="3.17" ry="1.52"/>
  <line class="cls-9" x1="101.09" y1="87.19" x2="101.09" y2="77.45"/>
  <path class="cls-5" d="m21.51,35.19c-.72,0-1.44-.19-2.09-.6-1.85-1.16-2.4-3.59-1.25-5.44,5.13-8.17,13.94-13.05,23.58-13.05s18.45,4.88,23.58,13.05c1.16,1.85.6,4.28-1.24,5.44-1.84,1.16-4.28.6-5.44-1.24-3.68-5.86-9.99-9.36-16.9-9.36s-13.23,3.5-16.9,9.36c-.75,1.19-2.03,1.85-3.34,1.85Z"/>
  <line class="cls-1" x1="41.76" y1="23.99" x2="41.76" y2="42.47"/>
  <line class="cls-1" x1="19.42" y1="34.59" x2="19.42" y2="42.47"/>
  <line class="cls-1" x1="63.02" y1="35.06" x2="63.02" y2="42.47"/>
  <path class="cls-2" d="m19.57,51.82s8.34-6.7,6.26-9.71c-2.69-3.89-6.23,2.06-6.23,2.06,0,0-3.92-5.95-6.61-2.06-2.07,3,6.58,9.71,6.58,9.71Z"/>
  <path class="cls-7" d="m43.64,41.26l1.06,2.15c.31.62.9,1.05,1.58,1.15l2.37.34c1.73.25,2.41,2.37,1.17,3.59l-1.72,1.67c-.5.48-.72,1.18-.6,1.86l.41,2.36c.29,1.72-1.51,3.03-3.05,2.22l-2.12-1.12c-.61-.32-1.34-.32-1.96,0l-2.12,1.12c-1.54.81-3.35-.5-3.05-2.22l.41-2.36c.12-.68-.11-1.38-.6-1.86l-1.72-1.67c-1.25-1.22-.56-3.34,1.17-3.59l2.37-.34c.69-.1,1.28-.53,1.58-1.15l1.06-2.15c.77-1.56,3-1.56,3.77,0Z"/>
  <path class="cls-3" d="m63.17,51.82s8.34-6.7,6.26-9.71c-2.69-3.89-6.23,2.06-6.23,2.06,0,0-3.92-5.95-6.61-2.06-2.07,3,6.58,9.71,6.58,9.71Z"/>
  <circle class="cls-7" cx="41.28" cy="13.46" r="1.73"/>
  <line class="cls-8" x1="41.28" y1="11.73" x2="41.28" y2="4.12"/>
  <text class="cls-15" transform="translate(97.57 124.32)"><tspan x="0" y="0">0-3 mois</tspan></text>
  <rect class="cls-11" x="-685.29" y="-421.07" width="1496.63" height="1236.8"/>
</svg>