<?xml version="1.0" encoding="UTF-8"?>
<svg id="Calque_1" data-name="Calque 1" xmlns="http://www.w3.org/2000/svg" viewBox="0 0 128 128">
  <defs>
    <style>
      .cls-1, .cls-2, .cls-3 {
        fill: #ff6d75;
      }

      .cls-4 {
        fill: #afaff9;
      }

      .cls-4, .cls-5, .cls-6, .cls-2, .cls-7, .cls-8, .cls-9, .cls-10, .cls-11, .cls-3, .cls-12, .cls-13 {
        stroke-linecap: round;
        stroke-linejoin: round;
      }

      .cls-4, .cls-5, .cls-6, .cls-2, .cls-7, .cls-8, .cls-9, .cls-10, .cls-11, .cls-12 {
        stroke: #000;
        stroke-width: 2px;
      }

      .cls-5 {
        fill: #87ccf3;
      }

      .cls-6 {
        fill: #b4eac3;
      }

      .cls-7 {
        fill: #b2f0e9;
      }

      .cls-8 {
        fill: #a07637;
      }

      .cls-9 {
        fill: #fff;
      }

      .cls-10 {
        fill: #f3d587;
      }

      .cls-11, .cls-13 {
        fill: none;
      }

      .cls-3 {
        stroke: #ff6d75;
        stroke-width: .5px;
      }

      .cls-12 {
        fill: #fab0b4;
      }

      .cls-14 {
        font-family: Helvetica, Helvetica;
        font-size: 7px;
      }

      .cls-13 {
        stroke: #fff;
        stroke-width: 8px;
      }
    </style>
  </defs>
  <g>
    <path class="cls-5" d="m40.73,48.06s-.08,0-.12,0h-19.81c-.86,0-1.55-.7-1.55-1.55,0-.68.45-1.27,1.07-1.46.15-.06.32-.08.48-.08h16.74l3.19,3.09Z"/>
    <path class="cls-5" d="m37.47,44.97h-16.67c-.17,0-.34.03-.48.08v-4.78l1.86-5.93h11.87l1.86,9.05,1.56,1.58Z"/>
    <polygon class="cls-5" points="57.89 33.83 56 48.07 40.74 48.07 40.73 48.06 37.54 44.97 35.9 43.39 34.36 34.29 29.5 34.29 29.5 30 57.89 33.83"/>
    <circle class="cls-9" cx="29.5" cy="48.07" r="4.33"/>
    <circle class="cls-9" cx="49.39" cy="48.07" r="4.33"/>
    <rect class="cls-5" x="23.9" y="36.88" width="4.68" height="3.67"/>
  </g>
  <g>
    <polygon class="cls-2" points="93.46 18.7 93.46 24.27 57.47 24.27 57.47 18.7 66.65 16 68.59 10.54 87.54 10.54 90.64 18.7 93.46 18.7"/>
    <line class="cls-11" x1="57.47" y1="21.75" x2="93.46" y2="21.75"/>
    <circle class="cls-9" cx="65.26" cy="24.27" r="4.33"/>
    <circle class="cls-9" cx="83.93" cy="24.27" r="4.33"/>
  </g>
  <rect class="cls-12" x="12.34" y="89.19" width="28" height="15.16"/>
  <g>
    <rect class="cls-12" x="15.79" y="85.2" width="7.37" height="3.99"/>
    <rect class="cls-12" x="29.53" y="85.2" width="7.37" height="3.99"/>
  </g>
  <rect class="cls-10" x="40.34" y="89.19" width="28" height="15.16"/>
  <g>
    <rect class="cls-10" x="43.79" y="85.2" width="7.37" height="3.99"/>
    <rect class="cls-10" x="57.53" y="85.2" width="7.37" height="3.99"/>
  </g>
  <g>
    <rect class="cls-7" x="12.42" y="104.35" width="28" height="15.16"/>
    <rect class="cls-6" x="40.42" y="104.35" width="28" height="15.16"/>
  </g>
  <rect class="cls-4" x="47.21" y="66.98" width="28" height="15.16"/>
  <g>
    <rect class="cls-4" x="50.66" y="62.99" width="7.37" height="3.99"/>
    <rect class="cls-4" x="64.39" y="62.99" width="7.37" height="3.99"/>
  </g>
  <path class="cls-3" d="m105.46,99.79s-1.84,1.97-4.23,2.84c-2.39.86-6.97-.49-9.08.39s-3.87,2.93-5.87,3.94c-2,1.01-3.42,1.46-4.61,1.73.38-.47.56-.98.56-.98l-.56-.05,1.24-.83-.88.06s1.34-.32,4.18-2.22c2.13-1.43,2.31-2.19,4.47-3.16,1.49-.67,4.32-.57,6.17-.3,1.85.27,2.42.45,4.14.1s4.46-1.51,4.46-1.51Z"/>
  <path class="cls-8" d="m115.19,39.84l-.23,4.53c-.65,13.03-2.56,25.96-5.71,38.62l-1.1,4.4h-.01l-.36,2.45-3.03-.45.37-2.45.23-4.67c.66-13.03,2.58-25.97,5.74-38.63l1.06-4.25,3.04.45Z"/>
  <path class="cls-8" d="m113.71,35.99h.44c.72,0,1.31.59,1.31,1.31v2.34h-3.06v-2.34c0-.72.59-1.31,1.31-1.31Z" transform="translate(6.76 -16.27) rotate(8.42)"/>
  <path class="cls-9" d="m104.69,89.39c-1.43,1.29-2.08,3.27-.95,4.96.41.62.93,1.18,1.25,1.86.3.64.35,1.35.28,2.04s-.12,1.17-.43,2c1.87-1.41,3.63-2.83,4.26-5.2.38-1.44-.34-4.08-1.24-5.2-1.67-.25-.86-.12-3.17-.46Z"/>
  <path class="cls-1" d="m104.45,95.32c-.15-.27,0-1.04.1-1.3.03-.08.08-.15.15-.2.14-.09.33-.02.47.07.51.32,1,.88,1.67.62.22-.09.4-.25.6-.39.4-.28.87-.47,1.36-.53.08-.01.17-.02.25.01.33.12.11.76.07,1-.17,1.11-.62,2.18-1.37,3.02-1.54,1.74-2.92,2.61-2.92,2.61,0,0,.64-1.92.45-2.86-.2-.94-.84-2.06-.84-2.06Z"/>
  <path class="cls-11" d="m104.69,89.39c-1.43,1.29-2.08,3.27-.95,4.96.41.62.93,1.18,1.25,1.86.3.64.35,1.35.28,2.04s-.12,1.17-.43,2c1.87-1.41,3.63-2.83,4.26-5.2.38-1.44-.34-4.08-1.24-5.2-1.67-.25-.86-.12-3.17-.46Z"/>
  <text class="cls-14" transform="translate(88.87 124.32)"><tspan x="0" y="0">18-36 mois</tspan></text>
  <rect class="cls-13" x="-123.7" y="-953.26" width="1496.63" height="1236.8"/>
</svg>