<?xml version="1.0" encoding="UTF-8"?>
<svg id="Calque_1" data-name="Calque 1" xmlns="http://www.w3.org/2000/svg" viewBox="0 0 128 128">
  <defs>
    <style>
      .cls-1, .cls-2, .cls-3, .cls-4, .cls-5, .cls-6, .cls-7, .cls-8, .cls-9, .cls-10, .cls-11, .cls-12 {
        stroke: #000;
      }

      .cls-1, .cls-2, .cls-3, .cls-4, .cls-9, .cls-10, .cls-12, .cls-13 {
        stroke-linecap: round;
        stroke-linejoin: round;
      }

      .cls-1, .cls-7 {
        fill: #baa584;
      }

      .cls-2 {
        fill: #a07637;
      }

      .cls-3, .cls-9 {
        fill: #ff6d75;
      }

      .cls-14 {
        fill: #87f3b9;
      }

      .cls-4 {
        fill: #afaff9;
      }

      .cls-4, .cls-5, .cls-6, .cls-7, .cls-8, .cls-9, .cls-10, .cls-11, .cls-12 {
        stroke-width: 2px;
      }

      .cls-5, .cls-6, .cls-7, .cls-8, .cls-11 {
        stroke-miterlimit: 10;
      }

      .cls-5, .cls-12 {
        fill: #f3d587;
      }

      .cls-6 {
        fill: #fee4cb;
      }

      .cls-8 {
        fill: #b4eac3;
      }

      .cls-10 {
        fill: #fff;
      }

      .cls-11 {
        fill: #fab0b4;
      }

      .cls-15 {
        font-family: Helvetica, Helvetica;
        font-size: 7px;
      }

      .cls-13 {
        fill: none;
        stroke: #fff;
        stroke-width: 8px;
      }
    </style>
  </defs>
  <g>
    <path class="cls-7" d="m34.28,57.3h0c-1.65.37-4.89-.33-5.26-1.98l-1.38-13.69c-.37-1.65.68-3.3,2.33-3.67h0c1.65-.37,3.3.68,3.67,2.33l4.55,12.98c.37,1.65-2.27,3.65-3.92,4.02Z"/>
    <circle class="cls-5" cx="24.99" cy="15.55" r="3.27" transform="translate(5.19 37.33) rotate(-79.62)"/>
    <circle class="cls-5" cx="14.92" cy="31.39" r="3.27" transform="translate(-18.68 40.29) rotate(-79.4)"/>
    <circle class="cls-5" cx="40.83" cy="25.63" r="3.27" transform="translate(8.13 61.05) rotate(-79.4)"/>
    <circle class="cls-5" cx="20.75" cy="39.71" r="3.27" transform="translate(-.53 .28) rotate(-.77)"/>
    <circle class="cls-5" cx="34.99" cy="17.31" r="3.27" transform="translate(-.23 .47) rotate(-.77)"/>
    <circle class="cls-5" cx="39.07" cy="35.63" r="3.27" transform="translate(-12.41 47.68) rotate(-55.54)"/>
    <circle class="cls-5" cx="16.68" cy="21.39" r="3.27" transform="translate(-10.39 23.03) rotate(-55.54)"/>
    <path class="cls-11" d="m24.99,15.55c-7.15,1.59-11.66,8.68-10.07,15.84s8.69,11.66,15.84,10.07c7.16-1.59,11.66-8.69,10.07-15.84s-8.68-11.67-15.84-10.07Zm3.89,17.47c-2.45.55-4.89-1-5.44-3.46-.55-2.46,1-4.89,3.46-5.44,2.46-.55,4.89,1,5.44,3.46.55,2.45-1,4.89-3.46,5.44Z"/>
  </g>
  <path class="cls-7" d="m63.02,55.8h0c-1.66-.31-4.37-2.22-4.06-3.88l4.1-13.13c.31-1.66,1.92-2.77,3.59-2.46h0c1.66.31,2.77,1.92,2.46,3.59l-.91,13.73c-.31,1.66-3.52,2.47-5.18,2.16Z"/>
  <circle class="cls-5" cx="70.87" cy="13.77" r="3.27" transform="translate(.91 31.59) rotate(-25.28)"/>
  <circle class="cls-5" cx="55.39" cy="24.38" r="3.27" transform="translate(-5.08 26.85) rotate(-26.09)"/>
  <circle class="cls-5" cx="81.48" cy="29.25" r="3.27" transform="translate(-4.56 38.82) rotate(-26.09)"/>
  <circle class="cls-5" cx="57.49" cy="34.31" r="3.27" transform="translate(8.06 79.47) rotate(-73.24)"/>
  <circle class="cls-5" cx="79.38" cy="19.31" r="3.27" transform="translate(38.01 89.75) rotate(-73.24)"/>
  <circle class="cls-5" cx="75.94" cy="37.76" r="3.27" transform="translate(-8.87 37.77) rotate(-26.45)"/>
  <circle class="cls-5" cx="60.93" cy="15.86" r="3.27" transform="translate(-.69 28.8) rotate(-26.45)"/>
  <circle class="cls-8" cx="68.43" cy="26.81" r="13.27" transform="translate(19.37 81.54) rotate(-69.52)"/>
  <path class="cls-12" d="m71.15,21.05l.55,1.97c.16.57.59,1.02,1.15,1.22l1.94.66c1.41.48,1.66,2.37.42,3.2l-1.7,1.14c-.49.33-.79.88-.8,1.47l-.03,2.05c-.02,1.49-1.74,2.31-2.91,1.38l-1.61-1.27c-.46-.37-1.08-.48-1.64-.31l-1.96.6c-1.42.44-2.73-.94-2.22-2.34l.71-1.92c.21-.55.12-1.18-.22-1.66l-1.18-1.68c-.86-1.22.05-2.89,1.54-2.83l2.05.08c.59.02,1.16-.24,1.51-.72l1.23-1.64c.89-1.19,2.77-.84,3.17.59Z"/>
  <rect class="cls-6" x="74.03" y="54.62" width="21.82" height="21.82" rx="3.41" ry="3.41"/>
  <circle class="cls-8" cx="84.94" cy="65.53" r="4.96"/>
  <rect class="cls-6" x="99.88" y="58.1" width="21.82" height="21.82" rx="3.41" ry="3.41"/>
  <path class="cls-12" d="m112.09,63.79l.81,1.65c.21.43.62.72,1.09.79l1.82.26c1.19.17,1.66,1.63.8,2.47l-1.32,1.29c-.34.33-.5.81-.42,1.28l.31,1.81c.2,1.18-1.04,2.08-2.1,1.52l-1.63-.86c-.42-.22-.92-.22-1.35,0l-1.63.86c-1.06.56-2.3-.34-2.1-1.52l.31-1.81c.08-.47-.08-.95-.42-1.28l-1.32-1.29c-.86-.84-.38-2.29.8-2.47l1.82-.26c.47-.07.88-.36,1.09-.79l.81-1.65c.53-1.07,2.06-1.07,2.59,0Z"/>
  <rect class="cls-6" x="99.88" y="79.92" width="21.82" height="21.82" rx="3.41" ry="3.41"/>
  <rect class="cls-9" x="106.92" y="86.96" width="7.74" height="7.74"/>
  <rect class="cls-6" x="77.44" y="79.92" width="21.82" height="21.82" rx="3.41" ry="3.41"/>
  <rect class="cls-4" x="84.47" y="86.96" width="7.74" height="7.75" transform="translate(-38.35 89.09) rotate(-45.01)"/>
  <g>
    <path class="cls-14" d="m44.01,116.47c-.14,0-.29-.03-.42-.09-.28-.13-.48-.38-.55-.67l-8.77-36.15c-.11-.45.11-.92.52-1.13,9.07-4.6,19.24-7.07,29.41-7.14h0c.46,0,.86.32.97.76l8.77,36.15c.07.3,0,.61-.18.85-.19.24-.48.38-.78.38-9.86.07-19.73,2.46-28.52,6.92-.14.07-.3.11-.45.11Z"/>
    <path d="m64.21,72.3l8.77,36.15c-10.04.07-20.01,2.49-28.97,7.03l-8.77-36.15c8.96-4.54,18.92-6.96,28.97-7.03m0-2h-.01c-10.32.07-20.65,2.58-29.86,7.25-.83.42-1.26,1.35-1.04,2.26l8.77,36.15c.14.59.55,1.09,1.11,1.34.27.12.55.18.84.18.31,0,.62-.07.9-.22,8.66-4.39,18.37-6.74,28.08-6.81.61,0,1.19-.29,1.56-.77s.51-1.11.37-1.7l-8.77-36.15c-.22-.9-1.02-1.53-1.94-1.53h0Z"/>
  </g>
  <g>
    <path class="cls-14" d="m15.05,123.5c-.14,0-.29-.03-.42-.09-.28-.13-.48-.38-.55-.67l-8.77-36.15c-.11-.45.11-.92.52-1.13,9.07-4.6,19.24-7.07,29.41-7.14h0c.46,0,.86.32.97.76l8.77,36.15c.07.3,0,.61-.18.85-.19.24-.48.38-.78.38-9.86.07-19.72,2.46-28.52,6.92-.14.07-.3.11-.45.11Z"/>
    <path d="m35.24,79.33l8.77,36.15c-10.04.07-20.01,2.49-28.97,7.03l-8.77-36.15c8.96-4.54,18.92-6.96,28.97-7.03m0-2h-.01c-10.32.07-20.65,2.58-29.86,7.25-.83.42-1.26,1.35-1.04,2.26l8.77,36.15c.14.59.55,1.09,1.11,1.34.27.12.55.18.84.18.31,0,.62-.07.9-.22,8.66-4.39,18.37-6.74,28.08-6.81.61,0,1.19-.29,1.56-.77s.51-1.11.37-1.7l-8.77-36.15c-.22-.9-1.02-1.53-1.94-1.53h0Z"/>
  </g>
  <path class="cls-10" d="m69.81,106.32h0c-9.22-.13-18.32,2.08-26.46,6.42h0s-8.77-36.15-8.77-36.15h0c8.14-4.34,17.24-6.55,26.46-6.42h0s8.77,36.15,8.77,36.15Z"/>
  <path class="cls-10" d="m43.35,112.74h0c-9.22-.13-18.32,2.08-26.46,6.42h0s-8.77-36.15-8.77-36.15h0c8.14-4.34,17.24-6.55,26.46-6.42h0s8.77,36.15,8.77,36.15Z"/>
  <circle class="cls-2" cx="45.26" cy="85.05" r="1.7" transform="translate(-50.19 71.95) rotate(-54.16)"/>
  <circle class="cls-2" cx="54.17" cy="82.23" r="1.7" transform="translate(-44.21 78) rotate(-54.16)"/>
  <path class="cls-1" d="m48.38,90.37s-3.85,2.91-3.38,4.8c.46,1.89,1.2,1.93,1.2,1.93l2.78-.88-.59-5.84Z"/>
  <path class="cls-1" d="m54.82,88.33s4.82.16,5.53,1.97c.71,1.81.13,2.26.13,2.26l-2.78.88-2.88-5.12Z"/>
  <polygon class="cls-1" points="49.81 101.8 52.55 99.71 49.59 98.18 49.81 101.8"/>
  <polygon class="cls-1" points="60.48 98.42 57.04 98.29 58.58 95.33 60.48 98.42"/>
  <path class="cls-1" d="m58.94,92.74c-.99-3.12-4.6-5.73-7.73-4.74-3.12.99-4.58,5.2-3.59,8.32.99,3.12,4.05,3.98,7.17,2.99,3.12-.99,5.13-3.45,4.14-6.58Z"/>
  <path class="cls-2" d="m56.59,93.11c-.6-1.88-2.78-3.45-4.66-2.86-1.88.6-2.76,3.14-2.16,5.02.6,1.88,2.44,2.4,4.33,1.81s3.1-2.08,2.5-3.97Z"/>
  <rect class="cls-1" x="46.39" y="96.45" width="3.62" height="5.83" rx="1.27" ry="1.27" transform="translate(-46.87 43.17) rotate(-33.53)"/>
  <rect class="cls-1" x="58.38" y="92.65" width="3.62" height="5.83" rx="1.27" ry="1.27" transform="translate(123.07 189.38) rotate(178.37)"/>
  <path class="cls-1" d="m55.96,85.57s.86,4.33-3.51,5.62c-.11.03-.21.06-.31.07-.09.04-.19.08-.3.12-4.31,1.45-6.1-2.58-6.1-2.58,0,0-.47-.91.17-3.69.64-2.78,3.23-3.33,3.23-3.33,0,0,2.43-1.04,4.56.87,2.12,1.9,2.27,2.92,2.27,2.92Z"/>
  <circle cx="47.59" cy="86.78" r=".5" transform="translate(-50.62 74.55) rotate(-54.16)"/>
  <circle cx="53.25" cy="84.98" r=".5" transform="translate(-46.82 78.4) rotate(-54.16)"/>
  <ellipse cx="50.69" cy="86.71" rx="1.35" ry=".65" transform="translate(-23.82 19.37) rotate(-17.58)"/>
  <path class="cls-3" d="m19.03,89.59l2.19-.54,9.66,9.4-2.73-11.1,1.76-.43,3.37,13.7-2.08.51-9.76-9.36,2.73,11.09-1.77.44-3.37-13.7Z"/>
  <text class="cls-15" transform="translate(97.05 124.32)"><tspan x="0" y="0">3-9 mois</tspan></text>
  <rect class="cls-13" x="-851.11" y="-421.07" width="1496.63" height="1236.8"/>
</svg>