<?xml version="1.0" encoding="UTF-8"?><svg id="Calque_1" xmlns="http://www.w3.org/2000/svg" viewBox="0 0 128 128.13"><defs><style>.cls-1,.cls-2,.cls-3{fill:#fff;}.cls-4{fill:none;stroke:#e30613;stroke-width:8px;}.cls-4,.cls-2{stroke-linecap:round;stroke-linejoin:round;}.cls-5{fill:#f387d5;}.cls-5,.cls-6,.cls-2,.cls-7,.cls-8,.cls-9,.cls-3,.cls-10,.cls-11{stroke:#000;}.cls-5,.cls-6,.cls-7,.cls-3,.cls-10,.cls-11{stroke-miterlimit:10;}.cls-6{fill:#ff6d75;}.cls-12{fill:#b2f0e9;}.cls-7,.cls-9{fill:#87f3b9;}.cls-13{fill:#8987f3;}.cls-8{fill:#afaff9;}.cls-8,.cls-9{fill-rule:evenodd;stroke-miterlimit:1;}.cls-14,.cls-11{fill:#f3d587;}.cls-15{fill:#b4eac3;}.cls-10{fill:#87ccf3;}</style></defs><rect class="cls-4" x="-391.03" y="-648.66" width="2655.08" height="1511.77"/><rect class="cls-6" x="21.78" y="35.98" width="73.76" height="70.35"/><path class="cls-1" d="m91.51,68.59l-4.49-.23c.03-.53.04-1.06.04-1.57h4.5c0,.59-.02,1.19-.05,1.8Z"/><path class="cls-1" d="m57.41,100.93c-.92,0-1.84-.04-2.74-.12l.39-4.48c1.03.09,2.09.12,3.14.09l.11,4.5c-.3,0-.6.01-.91.01Zm2.72-.11l-.35-4.49c1.05-.08,2.1-.22,3.13-.42l.83,4.42c-1.19.22-2.4.38-3.6.48Zm-7.28-.23c-1.21-.18-2.41-.43-3.59-.75l1.18-4.34c1,.27,2.03.49,3.06.64l-.66,4.45Zm17.84-2.35l-1.75-4.15c.97-.41,1.92-.87,2.84-1.38l2.18,3.94c-1.06.59-2.15,1.12-3.27,1.59Zm-28.2-1.15c-1.06-.59-2.11-1.24-3.1-1.95l2.62-3.66c.85.61,1.74,1.17,2.65,1.67l-2.17,3.94Zm33.04-1.37l-2.39-3.81c.89-.56,1.75-1.17,2.58-1.82l2.78,3.54c-.95.75-1.95,1.45-2.97,2.09Zm-37.59-1.7c-.94-.76-1.85-1.6-2.7-2.47l3.22-3.14c.73.75,1.5,1.46,2.31,2.11l-2.83,3.5Zm41.96-1.55l-2.96-3.39c.79-.69,1.55-1.43,2.26-2.2l3.3,3.05c-.82.89-1.7,1.74-2.6,2.53Zm-23.03-1.92c-.13,0-.26,0-.4,0l.08-4.5c1.01.02,2.03-.05,3.02-.19l.65,4.45c-1.1.16-2.23.24-3.36.24Zm-22.87-.35c-.8-.92-1.54-1.9-2.23-2.9l3.73-2.52c.58.86,1.22,1.7,1.91,2.48l-3.4,2.94Zm28.08-.24l-1.01-4.39c.98-.23,1.95-.53,2.88-.92l1.71,4.16c-1.16.48-2.37.86-3.59,1.14Zm-13.02-.91c-1.18-.47-2.32-1.05-3.39-1.72l2.39-3.81c.84.53,1.74.99,2.66,1.35l-1.67,4.18Zm34.64-.49l-3.46-2.88c.67-.8,1.3-1.66,1.88-2.53l3.75,2.49c-.67,1.01-1.4,1.99-2.17,2.92Zm-11.66-3.67l-2.95-3.4c.76-.66,1.48-1.39,2.12-2.16l3.45,2.89c-.8.96-1.69,1.86-2.63,2.68Zm14.8-.79l-3.88-2.29c.54-.91,1.03-1.85,1.46-2.8l4.1,1.86c-.5,1.1-1.06,2.18-1.68,3.23Zm-30.32-.35c-.21,0-.41,0-.62-.01l.18-4.5c.94.04,1.9-.04,2.82-.24l.93,4.4c-1.08.23-2.2.34-3.31.34Zm-2.62-.23c-1.32-.24-2.6-.66-3.81-1.25l1.98-4.04c.83.41,1.72.7,2.63.86l-.8,4.43Zm-13.81-1.29c-.77-1.01-1.45-2.09-2.02-3.22l4.01-2.04c.45.89.99,1.74,1.59,2.53l-3.58,2.73Zm8.26-.97c-1.11-.75-2.11-1.65-2.98-2.67l3.43-2.91c.6.71,1.3,1.33,2.07,1.85l-2.52,3.73Zm-19.93-.45c-.43-1.14-.79-2.32-1.08-3.5l4.37-1.06c.25,1.01.55,2.01.92,2.99l-4.21,1.58Zm47.4-.08l-3.68-2.6c.58-.82,1.1-1.7,1.54-2.61l4.05,1.97c-.55,1.13-1.19,2.22-1.91,3.24Zm-8.96-.77l-2.91-3.43c.72-.62,1.37-1.32,1.92-2.09l3.66,2.62c-.77,1.07-1.66,2.05-2.67,2.9Zm-22.67-2.98c-.72-1.13-1.28-2.36-1.67-3.64l4.31-1.29c.26.89.65,1.73,1.15,2.52l-3.8,2.42Zm34.3-1.21l-4.19-1.63c.36-.94.65-1.91.86-2.9l4.4.92c-.26,1.23-.62,2.44-1.07,3.61Zm-51.52-.25c-.22-1.19-.36-2.42-.44-3.64l4.49-.27c.06,1.04.19,2.09.37,3.11l-4.43.8Zm43.61-.13l-3.96-2.14c.45-.83.8-1.72,1.03-2.64l4.36,1.1c-.32,1.28-.81,2.52-1.44,3.68Zm20.23-1.4l-4.4-.94c.22-1.03.39-2.07.5-3.12l4.48.47c-.13,1.2-.32,2.41-.57,3.59Zm-54.89-2.22c-.08-.76-.12-1.53-.12-2.29,0-.51.02-1.02.06-1.52l4.49.36c-.03.38-.05.77-.05,1.16,0,.6.03,1.21.1,1.81l-4.47.49Zm43.95-1.46l-4.47-.56c.1-.78.15-1.57.15-2.36,0-.23,0-.45-.01-.68l4.5-.14c0,.27.01.54.01.82,0,.98-.06,1.96-.18,2.92Zm-48.9-.26h-4.5v-.08c0-1.2.08-2.41.23-3.59l4.46.57c-.13,1-.19,2.01-.19,3.02v.08Zm9.56-3.2l-4.43-.8c.23-1.26.58-2.51,1.06-3.7l4.18,1.67c-.36.91-.64,1.86-.81,2.83Zm34.91-1.67c-.11-1.01-.29-2.03-.54-3.01l4.36-1.12c.31,1.2.53,2.43.66,3.67l-4.48.47Zm-7.75-.25c-.21-.94-.53-1.86-.94-2.73l4.06-1.94c.56,1.17.99,2.41,1.27,3.68l-4.39.99Zm-25.73-2.23l-3.99-2.08c.59-1.13,1.3-2.21,2.11-3.21l3.5,2.83c-.62.76-1.16,1.59-1.62,2.46Zm-9.21-1.72l-4.16-1.72c.47-1.14,1.02-2.25,1.63-3.31l3.9,2.25c-.52.89-.98,1.83-1.37,2.78Zm33.3-.05c-.51-.82-1.11-1.58-1.79-2.27l3.2-3.16c.91.92,1.72,1.95,2.41,3.05l-3.82,2.38Zm8.42-.23c-.32-.96-.72-1.92-1.19-2.82l4.01-2.04c.56,1.11,1.05,2.26,1.44,3.43l-4.27,1.43Zm-11.28-3.01c-.75-.61-1.57-1.13-2.43-1.56l1.99-4.03c1.16.58,2.27,1.28,3.27,2.1l-2.84,3.49Zm9.35-1.15c-.53-.87-1.13-1.71-1.78-2.5l3.47-2.86c.79.95,1.51,1.98,2.15,3.03l-3.85,2.33Zm-13.11-.98c-.91-.33-1.85-.55-2.81-.67l.55-4.47c1.29.16,2.57.46,3.79.91l-1.53,4.23Zm-7.19-.51l-.84-4.42c1.18-.22,2.39-.34,3.6-.34h.22s-.04,4.5-.04,4.5h-.18c-.93,0-1.86.09-2.76.26Zm-14.34-1.76l-3.18-3.18c.87-.87,1.8-1.69,2.77-2.43l2.74,3.57c-.82.63-1.6,1.31-2.33,2.04Zm3.59-2.94l-2.5-3.74c1.02-.68,2.1-1.3,3.2-1.84l1.98,4.04c-.92.45-1.83.97-2.68,1.55Zm24.74-.42c-.85-.57-1.74-1.08-2.66-1.52l1.93-4.07c1.12.53,2.21,1.15,3.24,1.84l-2.51,3.74Zm-4.07-2.12c-.95-.37-1.94-.67-2.93-.9l.99-4.39c1.21.27,2.41.64,3.56,1.09l-1.63,4.2Zm-12.12-.98l-.86-4.42c1.2-.23,2.43-.39,3.66-.46l.27,4.49c-1.03.06-2.07.19-3.07.39Zm7.68-.2c-1-.15-2.03-.23-3.06-.23l.02-4.5c1.24,0,2.49.1,3.71.29l-.67,4.45Z"/><path class="cls-1" d="m42.04,71.16c-.09-.66-.14-1.32-.14-1.99h4.5c0,.46.03.93.09,1.38l-4.46.61Z"/><path class="cls-15" d="m65.52,99.96l-1.07-4.37c1.02-.25,2.04-.56,3.02-.91l1.53,4.23c-1.13.41-2.31.76-3.48,1.05Z"/><path class="cls-15" d="m67.36,88.06l-2.04-4.01c.9-.46,1.76-.99,2.58-1.59l2.66,3.63c-1.01.74-2.09,1.41-3.2,1.97Z"/><path class="cls-15" d="m30.78,85.77c-.62-1.05-1.19-2.14-1.68-3.25l4.11-1.82c.42.95.9,1.88,1.43,2.78l-3.87,2.3Z"/><path class="cls-15" d="m31.4,65.43l-4.42-.86c.24-1.21.55-2.41.95-3.57l4.26,1.44c-.33.97-.6,1.98-.79,3Z"/><path class="cls-15" d="m34.92,56.88l-3.74-2.5c.68-1.02,1.44-2,2.25-2.93l3.38,2.97c-.68.78-1.32,1.6-1.89,2.46Z"/><path class="cls-15" d="m48.07,56.51l-2.12-3.97c1.13-.6,2.33-1.1,3.56-1.46l1.28,4.31c-.94.28-1.85.65-2.72,1.12Z"/><path class="cls-14" d="m44.1,86.27c-1.01-.77-1.95-1.63-2.8-2.56l3.32-3.04c.67.73,1.41,1.41,2.21,2.02l-2.73,3.58Z"/><path class="cls-14" d="m89.22,79.22l-4.19-1.64c.38-.98.72-1.99.99-3l4.34,1.18c-.32,1.16-.7,2.33-1.14,3.45Z"/><path class="cls-14" d="m72.36,69.78l-4.47-.55c.06-.47.09-.95.09-1.43,0-.48-.03-.96-.08-1.44l4.47-.49c.07.64.1,1.29.1,1.93,0,.66-.04,1.33-.12,1.98Z"/><path class="cls-14" d="m44.54,59.14l-3.2-3.17c.9-.91,1.9-1.73,2.96-2.45l2.51,3.74c-.82.55-1.58,1.18-2.27,1.87Z"/><path class="cls-13" d="m47.51,99.32c-1.15-.39-2.3-.85-3.4-1.38l1.93-4.06c.94.45,1.92.84,2.9,1.17l-1.44,4.26Z"/><path class="cls-13" d="m54.57,90.45c-1.26-.14-2.51-.39-3.72-.75l1.28-4.31c.95.28,1.94.48,2.93.59l-.48,4.47Z"/><path class="cls-13" d="m69.72,52.89c-.7-.74-1.47-1.43-2.27-2.06l2.77-3.55c.98.76,1.9,1.6,2.76,2.5l-3.25,3.11Z"/><path class="cls-13" d="m45.56,48.17l-1.71-4.16c1.13-.47,2.31-.86,3.5-1.18l1.15,4.35c-1,.26-1.98.6-2.94.99Z"/><path class="cls-9" d="m90.74,59.07h-1.19c-.1-.18-.19-.36-.27-.55-.03-.06-.06-.12-.08-.18-.08-.17-.15-.34-.22-.52-.03-.07-.06-.15-.08-.22-.04-.11-.08-.22-.12-.34-.03-.09-.06-.19-.09-.28-.05-.15-.09-.31-.14-.47-.03-.11-.06-.23-.09-.34-.02-.07-.04-.15-.05-.22-.05-.22-.1-.44-.14-.66,0-.05-.02-.1-.03-.15-.02-.13-.04-.26-.06-.39-.01-.07-.02-.14-.03-.21-.03-.2-.05-.4-.07-.6,0-.03,0-.06,0-.1h.31c.14,0,.24-.11.24-.24v-.2c0-.14-.11-.24-.24-.24h-.37c-.02-.26-.03-.53-.03-.79,0-.19,0-.39,0-.59-.02,0-.04.01-.06.02.77-.33,1.31-1.09,1.31-1.98,0-1.19-.97-2.15-2.15-2.15h-.07s0,0,0,0c-1.16.03-2.09.98-2.09,2.15,0,.85.5,1.59,1.23,1.94-.02,0-.04-.01-.05-.02,0,.48-.01.96-.04,1.42h-.37c-.14,0-.24.11-.24.24v.2c0,.13.11.24.24.24h.31c-.19,1.88-.64,3.63-1.49,5.21h-1.2c-.3,0-.56.25-.56.56v.48c0,.3.25.56.56.56h7.45c.31,0,.56-.25.56-.56v-.48c0-.31-.25-.56-.56-.56Zm-3.34-7.12s-.08.01-.12.02c.04,0,.08-.01.12-.02Zm.24-.05s-.09.03-.14.04c.05,0,.09-.02.14-.04Zm.07-.02c.06-.02.12-.04.17-.06-.06.02-.11.04-.17.06Zm-1.32,0s-.09-.03-.13-.05c.04.02.09.03.13.05Zm.44.1s-.08-.01-.12-.02c.04,0,.08.01.12.02Zm-.22-.04s-.1-.02-.14-.04c.05.01.1.03.14.04Z"/><path class="cls-8" d="m75.17,94.59h-1.19c-.1-.18-.19-.36-.27-.55-.03-.06-.06-.12-.08-.18-.08-.17-.15-.34-.22-.52-.03-.07-.06-.15-.08-.22-.04-.11-.08-.22-.12-.34-.03-.09-.06-.19-.09-.28-.05-.15-.09-.31-.14-.47-.03-.11-.06-.23-.09-.34-.02-.07-.04-.15-.05-.22-.05-.22-.1-.44-.14-.66,0-.05-.02-.1-.03-.15-.02-.13-.04-.26-.06-.39-.01-.07-.02-.14-.03-.21-.03-.2-.05-.4-.07-.6,0-.03,0-.06,0-.1h.31c.14,0,.24-.11.24-.24v-.2c0-.14-.11-.24-.24-.24h-.37c-.02-.26-.03-.53-.03-.79,0-.19,0-.39,0-.59-.02,0-.04.01-.06.02.77-.33,1.31-1.09,1.31-1.98,0-1.19-.97-2.15-2.15-2.15h-.07s0,0,0,0c-1.16.03-2.09.98-2.09,2.15,0,.85.5,1.59,1.23,1.94-.02,0-.04-.01-.05-.02,0,.48-.01.96-.04,1.42h-.37c-.14,0-.24.11-.24.24v.2c0,.13.11.24.24.24h.31c-.19,1.88-.64,3.63-1.49,5.21h-1.2c-.3,0-.56.25-.56.56v.48c0,.3.25.56.56.56h7.45c.31,0,.56-.25.56-.56v-.48c0-.31-.25-.56-.56-.56Zm-3.34-7.12s-.08.01-.12.02c.04,0,.08-.01.12-.02Zm.24-.05s-.09.03-.14.04c.05,0,.09-.02.14-.04Zm.07-.02c.06-.02.12-.04.17-.06-.06.02-.11.04-.17.06Zm-1.32,0s-.09-.03-.13-.05c.04.02.09.03.13.05Zm.44.1s-.08-.01-.12-.02c.04,0,.08.01.12.02Zm-.22-.04s-.1-.02-.14-.04c.05.01.1.03.14.04Z"/><polygon class="cls-2" points="24.11 101.6 15.98 106.29 24.11 110.99 32.24 106.29 24.11 101.6"/><polygon class="cls-2" points="24.11 110.7 15.98 106.29 24.11 110.99 32.24 106.29 24.11 110.7"/><path d="m23.42,105.89c-.38.22-.38.58,0,.8s1,.22,1.39,0c.38-.22.38-.58,0-.8-.38-.22-1-.22-1.39,0Z"/><path d="m23.42,103.44c-.38.22-.38.58,0,.8.38.22,1,.22,1.39,0,.38-.22.38-.58,0-.8-.38-.22-1-.22-1.39,0Z"/><path d="m19.17,105.89c-.38.22-.38.58,0,.8s1,.22,1.39,0c.38-.22.38-.58,0-.8-.38-.22-1-.22-1.39,0Z"/><path d="m27.67,105.89c-.38.22-.38.58,0,.8s1,.22,1.39,0c.38-.22.38-.58,0-.8-.38-.22-1-.22-1.39,0Z"/><path d="m23.42,108.35c-.38.22-.38.58,0,.8s1,.22,1.39,0c.38-.22.38-.58,0-.8-.38-.22-1-.22-1.39,0Z"/><polygon class="cls-2" points="15.98 106.29 15.98 115.68 24.11 120.37 24.11 110.99 15.98 106.29"/><path d="m20.05,112.53c-.38-.22-.69-.04-.69.4,0,.44.31.98.69,1.2.38.22.69.04.69-.4s-.31-.98-.69-1.2Z"/><path d="m17.92,108.85c-.38-.22-.69-.04-.69.4,0,.44.31.98.69,1.2.38.22.69.04.69-.4s-.31-.98-.69-1.2Z"/><path d="m22.17,116.21c-.38-.22-.69-.04-.69.4,0,.44.31.98.69,1.2.38.22.69.04.69-.4s-.31-.98-.69-1.2Z"/><polygon class="cls-2" points="24.11 110.99 24.11 120.37 32.24 115.68 32.24 106.29 24.11 110.99"/><path d="m28.18,112.53c-.38.22-.69.76-.69,1.2s.31.62.69.4c.38-.22.69-.76.69-1.2s-.31-.62-.69-.4Z"/><path class="cls-12" d="m61.73,82.9l-1.47-4.25c.89-.31,1.75-.73,2.54-1.25l2.47,3.76c-1.11.73-2.3,1.31-3.54,1.74Z"/><path class="cls-12" d="m37.28,77.3c-.47-1.18-.83-2.4-1.08-3.64l4.41-.89c.2.98.48,1.94.85,2.86l-4.18,1.67Z"/><polygon class="cls-3" points="111.19 69.01 103.27 65.76 110.78 46.83 118.71 50.08 111.19 69.01"/><line class="cls-6" x1="107.03" y1="56.3" x2="114.95" y2="59.55"/><ellipse cx="112.93" cy="53.04" rx="1.05" ry="1.07" transform="translate(-1.15 103.56) rotate(-49.05)"/><ellipse cx="109.74" cy="61.07" rx="1.05" ry="1.07" transform="translate(-8.31 103.92) rotate(-49.05)"/><ellipse cx="108.45" cy="64.32" rx="1.05" ry="1.07" transform="translate(-11.21 104.07) rotate(-49.05)"/><polygon class="cls-3" points="99.79 76.73 103.05 68.93 121.97 76.28 118.71 84.08 99.79 76.73"/><line class="cls-6" x1="112.51" y1="72.61" x2="109.25" y2="80.4"/><ellipse cx="115.76" cy="78.4" rx="1.07" ry="1.04" transform="translate(-22.92 60.68) rotate(-26.83)"/><ellipse cx="107.73" cy="75.28" rx="1.07" ry="1.04" transform="translate(-22.38 56.72) rotate(-26.83)"/><ellipse cx="104.49" cy="74.02" rx="1.07" ry="1.04" transform="translate(-22.16 55.12) rotate(-26.83)"/><polygon class="cls-3" points="106.35 29.37 98.72 33.28 89.22 15.27 96.84 11.36 106.35 29.37"/><line class="cls-6" x1="93.97" y1="24.28" x2="101.59" y2="20.36"/><ellipse cx="99.37" cy="25.32" rx="1.07" ry="1.05" transform="translate(-2.66 15.07) rotate(-8.56)"/><ellipse cx="101" cy="28.41" rx="1.07" ry="1.05" transform="translate(-3.1 15.34) rotate(-8.56)"/><polygon class="cls-3" points="104.8 43.05 101 35.51 118.87 25.9 122.68 33.44 104.8 43.05"/><line class="cls-6" x1="109.93" y1="30.7" x2="113.74" y2="38.24"/><ellipse cx="117.89" cy="31.03" rx="1.07" ry="1.04" transform="translate(59.79 138.21) rotate(-76.28)"/><ellipse cx="108.04" cy="34.52" rx="1.07" ry="1.04" transform="translate(47.83 130.64) rotate(-75.65)"/><ellipse cx="105" cy="36.11" rx="1.07" ry="1.04" transform="translate(44 128.9) rotate(-75.65)"/><ellipse cx="109.62" cy="37.67" rx="1.07" ry="1.04" transform="translate(45.96 134.54) rotate(-75.65)"/><ellipse cx="106.53" cy="39.27" rx="1.07" ry="1.04" transform="translate(42.09 132.75) rotate(-75.65)"/><ellipse cx="114.52" cy="32.62" rx="1.07" ry="1.04" transform="translate(55.68 136.14) rotate(-76.28)"/><ellipse cx="95.08" cy="17.68" rx="1.07" ry="1.04" transform="translate(55.36 105.85) rotate(-76.28)"/><path class="cls-10" d="m20.47,43.03l-13.63-1.64c-.99-.12-1.47-.72-1.35-1.71l2.44-19.98c.12-.99.67-1.35,1.66-1.23l13.54,1.64c.99.12,1.5.65,1.38,1.65l-2.42,19.97c-.12.99-.62,1.43-1.62,1.31Z"/><path class="cls-11" d="m19.54,46.72l-12.5-5.8c-.91-.43-1.22-.94-.79-1.85l8.64-18.37c.43-.91,1.13-1.13,2.04-.7l12.36,5.8c.91.43,1.15,1.18.72,2.09l-8.54,18.16c-.43.91-1.01,1.11-1.92.69Z"/><path class="cls-7" d="m20.63,50.07l-11.12-8.06c-.81-.59-.9-1.25-.31-2.07l11.82-16.32c.59-.81,1.28-.86,2.09-.27l11.04,7.95c.81.59.96,1.36.37,2.17l-11.71,16.18c-.59.81-1.38,1-2.19.41Z"/><path class="cls-5" d="m20.99,53.26l-9.01-10.44c-.65-.76-.6-1.39.16-2.05l15.22-13.16c.76-.65,1.52-.59,2.17.17l8.87,10.3c.65.76.66,1.53-.1,2.19l-15.2,13.13c-.76.65-1.45.63-2.1-.13Z"/></svg>