<?xml version="1.0" encoding="UTF-8"?><svg id="Calque_1" xmlns="http://www.w3.org/2000/svg" viewBox="0 0 128 128"><defs><style>.cls-1{fill:none;stroke:#e30613;stroke-linecap:round;stroke-linejoin:round;stroke-width:8px;}.cls-2{fill:#ff6d75;}.cls-3{fill:#fff;stroke:#000;stroke-miterlimit:10;stroke-width:2px;}</style></defs><rect class="cls-1" x="-1202.55" y="-816.91" width="2655.08" height="1511.77"/><path class="cls-3" d="m83.91,83.84l-36.96,23.12c-2.7,1.69-5.08,1.16-6.77-1.54L6.38,51.16c-1.69-2.7-1.05-4.68,1.65-6.37l36.74-22.94c2.7-1.69,5-1.37,6.69,1.32l33.84,54.19c1.69,2.7,1.32,4.78-1.38,6.47Z"/><path class="cls-2" d="m20.59,53.72c-1.13-.34-2.69.66-2.08,2.52-1.4-1.36-2.99-.41-3.18.76-.17,1.01.63,2.15,2.39,2.58,1.16.28,2.26.29,3.28.65.12-1.08.6-2.07.85-3.24.38-1.77-.29-2.99-1.27-3.28Z"/><path class="cls-2" d="m16.43,51.24l-2.15,1.34.36,1.2c.07.23.13.41.19.51.12.2.28.17.62-.04l.23.36-1.53.96-.23-.36c.31-.19.36-.37.24-.87l-1.92-7.17.65-.41,5.7,4.64c.52.43.69.46,1.01.26l.23.36-2.13,1.33-.23-.36c.35-.22.43-.37.32-.54-.06-.09-.16-.19-.29-.31l-1.06-.9Zm-.43-.36l-2.82-2.37-.03.02,1,3.51,1.85-1.16Z"/><path class="cls-3" d="m88.99,94.81l-42.47,10.6c-3.09.76-4.9.1-5.65-2.99l-15.31-62.64c-.76-3.09.54-5.05,3.63-5.8l42.11-10.33c3.09-.76,5.19.63,5.95,3.72l15.11,61.92c.76,3.09-.28,4.76-3.37,5.52Z"/><path class="cls-2" d="m36.82,47.91c-1.36-.94-1.72-1.4-1.72-1.4,0,0-.1.58-.88,2.04-.77,1.45-1.21,1.89-1.21,1.89,0,0,.59.18,1.95,1.11,1.36.94,1.72,1.4,1.72,1.4,0,0,.1-.58.88-2.04.77-1.45,1.21-1.89,1.21-1.89,0,0-.59-.18-1.95-1.11Z"/><path class="cls-2" d="m35.11,42.86l-2.46.6-.03,1.25c0,.24,0,.43.02.54.06.23.21.24.6.15l.1.42-1.76.43-.1-.42c.35-.09.46-.23.5-.75l.42-7.42.75-.18,3.96,6.19c.36.57.51.66.88.57l.1.42-2.44.6-.1-.42c.41-.1.52-.22.47-.41-.03-.1-.09-.23-.18-.38l-.72-1.19Zm-.29-.48l-1.94-3.14h-.03s-.15,3.66-.15,3.66l2.12-.52Z"/><path class="cls-3" d="m98.33,100.92l-43.58,2.26c-3.18.16-4.73-1.31-4.89-4.49l-3.34-63.91c-.16-3.18,1.45-4.68,4.63-4.84l43.16-2.37c3.18-.16,5.1,1.45,5.26,4.63l3.34,63.34c.16,3.18-1.41,5.22-4.59,5.39Z"/><path d="m56.5,45.95c-.26.01-.5.08-.71.2-.03.02-.07,0-.08-.03,0-.02,0-.05.01-.06.27-.3.43-.72.4-1.17-.04-.87-.73-1.53-1.54-1.49-.8.04-1.42.78-1.37,1.64.02.45.22.85.52,1.12,0,0,.02.02.02.03,0,.05-.04.08-.08.07-.22-.09-.47-.14-.73-.12-.87.04-1.53.73-1.49,1.54.04.8.78,1.42,1.64,1.37.45-.02.85-.22,1.12-.52,0,0,0,0,0,0,.14-.15.38,0,.31.19-.23.66-.7.78-.85.81-.04,0-.07.05-.07.09v.09s.05.09.1.08l1.06-.05.3-.02h.03s1.03-.05,1.03-.05c.05,0,.09-.04.08-.09v-.09s-.04-.08-.09-.08c-.15-.01-.63-.08-.93-.72-.09-.18.14-.35.29-.22,0,0,0,0,0,0,.3.27.72.42,1.17.4.87-.04,1.53-.73,1.49-1.54-.04-.8-.78-1.42-1.64-1.37Z"/><path d="m55.28,39.66l-2.53.13-.27,1.22c-.05.24-.09.42-.08.54.01.23.16.28.56.26l.02.43-1.81.09-.02-.43c.36-.02.5-.14.63-.64l1.8-7.21.77-.04,2.73,6.82c.25.63.38.74.75.72l.02.43-2.51.13-.02-.43c.42-.02.55-.11.54-.32,0-.11-.04-.24-.11-.41l-.49-1.3Zm-.2-.53l-1.31-3.45h-.03s-.83,3.56-.83,3.56l2.18-.11Z"/><path class="cls-3" d="m105.61,108.08l-43.1-7.84c-3.13-.57-4.27-2.24-3.7-5.37l11.36-62.88c.57-3.13,2.56-4.49,5.69-3.92l42.46,7.76c3.13.57,4.69,2.48,4.12,5.61l-11.39,62.77c-.57,3.13-2.31,4.44-5.45,3.87Z"/><path d="m77.8,44.88c-.59-.9-1.44-1.7-1.67-2.86h0c-.62,1.01-1.7,1.46-2.57,2.09-1.02.74-1.11,1.49-1.11,1.8,0,1.08,1.39,1.75,2.32,1.11.09-.06.19.04.14.13-.39.71-.93.73-1.09.72-.04,0-.08.03-.09.07l-.02.09s.02.09.07.1l1.03.19h.03s.15.03.15.03h0s.15.03.15.03h.03s1.03.19,1.03.19c.05,0,.09-.02.1-.07l.02-.09s-.02-.09-.06-.1c-.16-.05-.66-.25-.77-1.06-.01-.1.12-.16.18-.07.64.92,2.18.79,2.56-.22.11-.28.28-1.02-.41-2.07Z"/><path d="m77.67,38.56l-2.49-.45-.54,1.13c-.11.22-.18.39-.2.51-.04.23.1.31.49.38l-.08.42-1.78-.32.08-.42c.36.06.52-.03.76-.48l3.4-6.6.76.14,1.1,7.26c.1.67.2.81.57.88l-.08.42-2.47-.45.08-.42c.41.07.56.02.6-.18.02-.11.01-.25,0-.43l-.17-1.38Zm-.07-.56l-.49-3.65h-.03s-1.63,3.26-1.63,3.26l2.15.39Z"/><path d="m98.74,66.37c-1.99-3.02-4.85-5.71-5.61-9.61h0c-2.09,3.38-5.7,4.9-8.63,7.03-3.43,2.5-3.75,5.02-3.75,6.04,0,3.64,4.67,5.88,7.79,3.73.29-.2.64.12.48.43-1.31,2.4-3.13,2.45-3.68,2.42-.15,0-.28.1-.31.24l-.05.29c-.03.16.08.32.24.35l3.47.63.09.02.5.09h0s.5.09.5.09l.09.02,3.47.63c.16.03.32-.08.35-.24l.05-.29c.03-.15-.06-.29-.21-.34-.52-.16-2.21-.85-2.59-3.56-.05-.35.4-.52.6-.24,2.16,3.11,7.33,2.66,8.6-.76.36-.96.95-3.43-1.39-6.98Z"/><path d="m103.43,91.17c.59.9,1.44,1.7,1.67,2.86h0c.62-1.01,1.7-1.46,2.57-2.09,1.02-.74,1.11-1.49,1.11-1.8,0-1.08-1.39-1.75-2.32-1.11-.09.06-.19-.04-.14-.13.39-.71.93-.73,1.09-.72.04,0,.08-.03.09-.07l.02-.09s-.02-.09-.07-.1l-1.03-.19h-.03s-.15-.03-.15-.03h0s-.15-.03-.15-.03h-.03s-1.03-.19-1.03-.19c-.05,0-.09.02-.1.07l-.02.09s.02.09.06.1c.16.05.66.25.77,1.06.01.1-.12.16-.18.07-.64-.92-2.18-.79-2.56.22-.11.28-.28,1.02.41,2.07Z"/><path d="m103.55,97.5l2.49.45.54-1.13c.11-.22.18-.39.2-.51.04-.23-.1-.31-.49-.38l.08-.42,1.78.32-.08.42c-.36-.06-.52.03-.76.48l-3.4,6.6-.76-.14-1.1-7.26c-.1-.67-.2-.81-.57-.88l.08-.42,2.47.45-.08.42c-.41-.07-.56-.02-.6.18-.02.11-.01.25,0,.43l.17,1.38Zm.07.56l.49,3.65h.03s1.63-3.26,1.63-3.26l-2.15-.39Z"/></svg>