<?xml version="1.0" encoding="UTF-8"?>
<svg id="Calque_1" data-name="Calque 1" xmlns="http://www.w3.org/2000/svg" viewBox="0 0 128 128">
  <defs>
    <style>
      .cls-1 {
        fill: #f3d587;
      }

      .cls-2 {
        fill: #ff6d75;
      }

      .cls-3 {
        fill: #a07637;
      }

      .cls-4 {
        fill: #baa584;
      }

      .cls-5 {
        fill: #87f3b9;
      }

      .cls-6 {
        fill: #fff;
      }

      .cls-6, .cls-7, .cls-8 {
        stroke: #000;
        stroke-miterlimit: 10;
        stroke-width: 2px;
      }

      .cls-7 {
        fill: #d6d6d6;
      }

      .cls-8, .cls-9 {
        fill: none;
      }

      .cls-9 {
        stroke: #fff;
        stroke-linecap: round;
        stroke-linejoin: round;
        stroke-width: 8px;
      }
    </style>
  </defs>
  <g>
    <path class="cls-4" d="m26.29,97.01h-6.54v-8.69h6.54v8.69Z"/>
    <path class="cls-8" d="m26.29,97.01h-6.54v-8.69h6.54v8.69Z"/>
  </g>
  <g>
    <path class="cls-4" d="m80.23,97.01h-6.54v-8.69h6.54v8.69Z"/>
    <path class="cls-8" d="m80.23,97.01h-6.54v-8.69h6.54v8.69Z"/>
  </g>
  <g>
    <path class="cls-2" d="m115.27,74.62l-2.14-2.47-6.05-6.98-.72-.83c-.45-.52-1.09-.81-1.78-.81h-14.36c-1.06,0-1.96.7-2.25,1.67-.07.22-.1.45-.1.68v28.2c0,1.3,1.05,2.35,2.35,2.35h25.04c1.3,0,2.35-1.05,2.35-2.35v-13.18c0-2.31-.83-4.53-2.34-6.28Zm-21.84-4.8c0-.98.91-1.75,1.98-1.68,12.38.83,12.43,9.55,11.94,13.06-.12.83-.89,1.46-1.81,1.47l-10.24.08c-1.02,0-1.86-.75-1.86-1.68v-11.25Z"/>
    <path class="cls-8" d="m115.27,74.62l-2.14-2.47-6.05-6.98-.72-.83c-.45-.52-1.09-.81-1.78-.81h-14.36c-1.06,0-1.96.7-2.25,1.67-.07.22-.1.45-.1.68v28.2c0,1.3,1.05,2.35,2.35,2.35h25.04c1.3,0,2.35-1.05,2.35-2.35v-13.18c0-2.31-.83-4.53-2.34-6.28Zm-21.84-4.8c0-.98.91-1.75,1.98-1.68,12.38.83,12.43,9.55,11.94,13.06-.12.83-.89,1.46-1.81,1.47l-10.24.08c-1.02,0-1.86-.75-1.86-1.68v-11.25Z"/>
  </g>
  <g>
    <path class="cls-2" d="m105.94,64.97h-16.98c-.93,0-1.69-.76-1.69-1.69v-.84c0-1.29,1.05-2.35,2.35-2.35h16.33c1.29,0,2.35,1.05,2.35,2.35v.18c0,1.29-1.05,2.35-2.35,2.35Z"/>
    <path class="cls-8" d="m105.94,64.97h-16.98c-.93,0-1.69-.76-1.69-1.69v-.84c0-1.29,1.05-2.35,2.35-2.35h16.33c1.29,0,2.35,1.05,2.35,2.35v.18c0,1.29-1.05,2.35-2.35,2.35Z"/>
  </g>
  <g>
    <path class="cls-3" d="m118.61,103.83H14.84c-1.45,0-2.62-1.18-2.62-2.62v-2.65c0-1.45,1.18-2.62,2.62-2.62h103.76c1.45,0,2.62,1.18,2.62,2.62v2.65c0,1.45-1.18,2.62-2.62,2.62Z"/>
    <path class="cls-8" d="m118.61,103.83H14.84c-1.45,0-2.62-1.18-2.62-2.62v-2.65c0-1.45,1.18-2.62,2.62-2.62h103.76c1.45,0,2.62,1.18,2.62,2.62v2.65c0,1.45-1.18,2.62-2.62,2.62Z"/>
  </g>
  <g>
    <path class="cls-4" d="m81.5,91.38H14.93c-1.5,0-2.72-1.22-2.72-2.72v-23.13c0-1.5,1.22-2.72,2.72-2.72h41.31c4.4,0,8.63-2.09,11.59-5.73,1.79-2.2,3.58-3.31,5.34-3.31h2.09c4.94,0,8.96,4.28,8.96,9.54v25.34c0,1.5-1.22,2.72-2.72,2.72Z"/>
    <path class="cls-8" d="m81.5,91.38H14.93c-1.5,0-2.72-1.22-2.72-2.72v-23.13c0-1.5,1.22-2.72,2.72-2.72h41.31c4.4,0,8.63-2.09,11.59-5.73,1.79-2.2,3.58-3.31,5.34-3.31h2.09c4.94,0,8.96,4.28,8.96,9.54v25.34c0,1.5-1.22,2.72-2.72,2.72Z"/>
  </g>
  <path class="cls-6" d="m74.88,62.1c-1.34,0-2.44-1.09-2.44-2.44s1.09-2.44,2.44-2.44,2.44,1.09,2.44,2.44-1.09,2.44-2.44,2.44Z"/>
  <path class="cls-7" d="m34.34,113.19c-6.09,0-11.05-4.96-11.05-11.05s4.96-11.05,11.05-11.05,11.05,4.96,11.05,11.05-4.96,11.05-11.05,11.05Z"/>
  <path class="cls-7" d="m94.04,113.19c-6.09,0-11.05-4.96-11.05-11.05s4.96-11.05,11.05-11.05,11.05,4.96,11.05,11.05-4.96,11.05-11.05,11.05Z"/>
  <g>
    <path class="cls-5" d="m41.83,86.48h-15c-1.06,0-1.92-.87-1.92-1.94v-15.23c0-1.07.86-1.94,1.92-1.94h15c1.06,0,1.92.87,1.92,1.94v15.23c0,1.07-.86,1.94-1.92,1.94Z"/>
    <path class="cls-8" d="m41.83,86.48h-15c-1.06,0-1.92-.87-1.92-1.94v-15.23c0-1.07.86-1.94,1.92-1.94h15c1.06,0,1.92.87,1.92,1.94v15.23c0,1.07-.86,1.94-1.92,1.94Z"/>
  </g>
  <g>
    <path class="cls-1" d="m68.96,86.13h-16.97c-.5,0-.96-.26-1.21-.69-.25-.42-.27-.94-.03-1.38l8.48-15.88c.25-.46.72-.75,1.25-.75s1,.29,1.25.75l8.48,15.88c.23.44.22.95-.03,1.38-.26.43-.71.69-1.21.69Z"/>
    <path class="cls-8" d="m68.96,86.13h-16.97c-.5,0-.96-.26-1.21-.69-.25-.42-.27-.94-.03-1.38l8.48-15.88c.25-.46.72-.75,1.25-.75s1,.29,1.25.75l8.48,15.88c.23.44.22.95-.03,1.38-.26.43-.71.69-1.21.69Z"/>
  </g>
  <path d="m76.82,54.77c-.09,0-.18-.02-.26-.07-.18-.11-.27-.31-.24-.51.22-1.3,5.63-31.94,17.03-38.25,2.44-1.35,5-1.49,7.6-.43,2.42.99,3.8,2.58,4.1,4.73,1.55,11.04-26.72,33.47-27.92,34.42-.09.07-.2.11-.31.11Zm20.72-38.97c-1.25,0-2.48.34-3.7,1.01-9.68,5.36-15.09,30.17-16.27,36.21,5.2-4.25,27.8-23.33,26.5-32.65-.25-1.8-1.39-3.09-3.49-3.94-1.04-.42-2.04-.64-3.04-.64Z"/>
  <path d="m75.35,58.29c-.27,0-.49-.22-.5-.49-.06-2.63,1.6-3.88,1.67-3.93.22-.16.54-.12.7.11.16.22.12.53-.1.7-.06.04-1.31,1.02-1.27,3.11,0,.28-.21.5-.49.51h-.01Z"/>
  <rect class="cls-9" x="-406.53" y="-78.92" width="1215" height="875.1"/>
</svg>