<?xml version="1.0" encoding="UTF-8"?>
<svg id="Calque_1" data-name="Calque 1" xmlns="http://www.w3.org/2000/svg" viewBox="0 0 128 128.13">
  <defs>
    <style>
      .cls-1 {
        fill: #fce9b9;
      }

      .cls-1, .cls-2, .cls-3, .cls-4, .cls-5, .cls-6, .cls-7 {
        stroke: #000;
        stroke-miterlimit: 10;
      }

      .cls-2 {
        fill: #ffbeed;
      }

      .cls-3 {
        fill: #d6d6d6;
      }

      .cls-4 {
        fill: #bbfedb;
      }

      .cls-5 {
        fill: #bfe6fc;
      }

      .cls-6 {
        fill: #baa584;
      }

      .cls-7 {
        fill: #fab0b4;
      }

      .cls-8 {
        fill: none;
        stroke: #fff;
        stroke-linecap: round;
        stroke-linejoin: round;
        stroke-width: 8px;
      }
    </style>
  </defs>
  <g>
    <rect class="cls-3" x="33.7" y="110.04" width="60.6" height="14.45"/>
    <rect class="cls-6" x="33.7" y="92.31" width="60.6" height="14.45"/>
    <rect class="cls-7" x="33.7" y="74.57" width="60.6" height="14.45"/>
    <rect class="cls-5" x="33.7" y="56.84" width="60.6" height="14.45"/>
    <rect class="cls-2" x="33.7" y="39.1" width="60.6" height="14.45"/>
    <rect class="cls-1" x="33.7" y="21.37" width="60.6" height="14.45"/>
    <rect class="cls-4" x="33.7" y="3.63" width="60.6" height="14.45"/>
    <path d="m43.68,114.08c.46.15.84.43,1.13.84.23.33.39.68.47,1.07s.13.75.13,1.09c0,.88-.18,1.62-.53,2.23-.48.82-1.22,1.23-2.22,1.23h-2.85v-6.61h2.85c.41,0,.75.05,1.02.14Zm-2.53,1v4.31h1.28c.65,0,1.11-.32,1.36-.96.14-.35.21-.77.21-1.26,0-.67-.11-1.19-.32-1.55-.21-.36-.63-.54-1.26-.54h-1.28Z"/>
    <path d="m47.69,120.54h-1.37v-6.61h1.37v6.61Z"/>
    <path d="m53.37,113.93h1.99v6.61h-1.29v-4.47c0-.13,0-.31,0-.54s0-.41,0-.54l-1.25,5.54h-1.34l-1.24-5.54c0,.13,0,.3,0,.54s0,.41,0,.54v4.47h-1.29v-6.61h2.01l1.2,5.19,1.19-5.19Z"/>
    <path d="m58.52,113.93h1.56l2.34,6.61h-1.5l-.44-1.36h-2.43l-.45,1.36h-1.44l2.36-6.61Zm-.09,4.11h1.69l-.83-2.6-.86,2.6Z"/>
    <path d="m63.24,113.93h1.45l2.62,4.61v-4.61h1.29v6.61h-1.38l-2.69-4.69v4.69h-1.29v-6.61Z"/>
    <path d="m70.52,114.62c.53-.54,1.21-.82,2.03-.82,1.1,0,1.9.36,2.41,1.09.28.41.43.82.45,1.23h-1.38c-.09-.32-.2-.56-.34-.72-.25-.29-.61-.43-1.09-.43s-.88.2-1.16.61-.43.98-.43,1.72.15,1.3.45,1.67.68.55,1.14.55.84-.16,1.08-.48c.14-.17.25-.43.34-.77h1.37c-.12.72-.42,1.31-.91,1.76s-1.11.68-1.87.68c-.94,0-1.68-.3-2.22-.91-.54-.61-.81-1.45-.81-2.52,0-1.15.31-2.04.92-2.67Z"/>
    <path d="m76.51,120.54v-6.61h1.37v2.52h2.57v-2.52h1.37v6.61h-1.37v-2.95h-2.57v2.95h-1.37Z"/>
    <path d="m88.03,115.1h-3.5v1.4h3.21v1.15h-3.21v1.7h3.66v1.19h-5.01v-6.61h4.85v1.17Z"/>
    <path d="m47.95,100.81c.04.3.13.53.25.68.23.27.62.41,1.18.41.33,0,.6-.04.81-.11.39-.14.59-.39.59-.77,0-.22-.1-.39-.29-.51-.19-.12-.5-.22-.92-.31l-.71-.16c-.7-.16-1.19-.32-1.45-.51-.45-.3-.67-.78-.67-1.43,0-.59.22-1.08.65-1.47.44-.39,1.07-.59,1.92-.59.7,0,1.31.18,1.8.55s.76.9.78,1.61h-1.33c-.02-.4-.2-.68-.53-.85-.22-.11-.49-.17-.82-.17-.36,0-.66.07-.87.22s-.33.34-.33.6c0,.24.11.41.32.53.14.08.43.17.88.27l1.16.27c.51.12.89.28,1.14.48.39.31.59.76.59,1.35s-.23,1.1-.7,1.5-1.13.6-1.98.6-1.55-.2-2.05-.59c-.5-.39-.75-.93-.75-1.62h1.32Z"/>
    <path d="m54.97,96.24h1.56l2.34,6.61h-1.5l-.44-1.36h-2.43l-.45,1.36h-1.44l2.36-6.61Zm-.09,4.11h1.69l-.83-2.6-.86,2.6Z"/>
    <path d="m64.09,96.24h1.99v6.61h-1.29v-4.47c0-.13,0-.31,0-.54s0-.41,0-.54l-1.25,5.54h-1.34l-1.24-5.54c0,.13,0,.3,0,.54s0,.41,0,.54v4.47h-1.29v-6.61h2.01l1.2,5.19,1.19-5.19Z"/>
    <path d="m72.24,97.41h-3.5v1.4h3.21v1.15h-3.21v1.7h3.66v1.19h-5.01v-6.61h4.85v1.17Z"/>
    <path d="m77.35,96.38c.46.15.84.43,1.13.84.23.33.39.68.47,1.07s.13.75.13,1.09c0,.88-.18,1.62-.53,2.23-.48.82-1.22,1.23-2.22,1.23h-2.85v-6.61h2.85c.41,0,.75.05,1.02.14Zm-2.53,1v4.31h1.28c.65,0,1.11-.32,1.36-.96.14-.35.21-.77.21-1.26,0-.67-.11-1.19-.32-1.55-.21-.36-.63-.54-1.26-.54h-1.28Z"/>
    <path d="m81.37,102.85h-1.37v-6.61h1.37v6.61Z"/>
    <path d="m45.04,78.49h1.43l-2.25,6.61h-1.3l-2.23-6.61h1.47l1.43,5.02,1.45-5.02Z"/>
    <path d="m52.18,79.66h-3.5v1.4h3.21v1.15h-3.21v1.7h3.66v1.19h-5.01v-6.61h4.85v1.17Z"/>
    <path d="m53.4,78.49h1.45l2.62,4.61v-4.61h1.29v6.61h-1.38l-2.69-4.69v4.69h-1.29v-6.61Z"/>
    <path d="m63.92,78.64c.46.15.84.43,1.13.84.23.33.39.68.47,1.07s.13.75.13,1.09c0,.88-.18,1.62-.53,2.23-.48.82-1.22,1.23-2.22,1.23h-2.85v-6.61h2.85c.41,0,.75.05,1.02.14Zm-2.53,1v4.31h1.28c.65,0,1.11-.32,1.36-.96.14-.35.21-.77.21-1.26,0-.67-.11-1.19-.32-1.55-.21-.36-.63-.54-1.26-.54h-1.28Z"/>
    <path d="m70.91,78.66c.24.1.45.26.62.46.14.17.25.35.33.56s.12.43.12.69c0,.31-.08.62-.24.93s-.42.52-.78.64c.3.12.52.3.65.52s.19.57.19,1.03v.44c0,.3.01.51.04.61.04.17.12.3.25.38v.17h-1.52c-.04-.15-.07-.26-.09-.35-.04-.19-.06-.38-.06-.57v-.61c-.01-.42-.09-.7-.23-.84-.14-.14-.4-.21-.79-.21h-1.35v2.59h-1.35v-6.61h3.16c.45,0,.8.07,1.04.17Zm-2.85.98v1.77h1.49c.3,0,.52-.04.66-.11.26-.13.39-.37.39-.74,0-.4-.13-.67-.38-.81-.14-.08-.35-.12-.64-.12h-1.52Z"/>
    <path d="m78.19,79.66h-3.5v1.4h3.21v1.15h-3.21v1.7h3.66v1.19h-5.01v-6.61h4.85v1.17Z"/>
    <path d="m83.3,78.64c.46.15.84.43,1.13.84.23.33.39.68.47,1.07s.13.75.13,1.09c0,.88-.18,1.62-.53,2.23-.48.82-1.22,1.23-2.22,1.23h-2.85v-6.61h2.85c.41,0,.75.05,1.02.14Zm-2.53,1v4.31h1.28c.65,0,1.11-.32,1.36-.96.14-.35.21-.77.21-1.26,0-.67-.11-1.19-.32-1.55-.21-.36-.63-.54-1.26-.54h-1.28Z"/>
    <path d="m87.32,85.1h-1.37v-6.61h1.37v6.61Z"/>
    <path d="m52.18,64.78v.15c.01.51.06.87.16,1.08s.3.31.6.31.51-.11.61-.34c.06-.13.09-.36.09-.68v-4.62h1.38v4.6c0,.56-.09,1.01-.28,1.34-.32.56-.9.83-1.74.83s-1.4-.22-1.69-.67-.43-1.06-.43-1.84v-.15h1.3Z"/>
    <path d="m61.37,61.84h-3.5v1.4h3.21v1.15h-3.21v1.7h3.66v1.19h-5.01v-6.61h4.85v1.17Z"/>
    <path d="m62.6,60.67h1.4v4.06c0,.45.05.79.16.99.17.37.53.56,1.09.56s.92-.19,1.09-.56c.11-.21.16-.54.16-.99v-4.06h1.4v4.06c0,.7-.11,1.25-.33,1.64-.41.72-1.18,1.08-2.32,1.08s-1.92-.36-2.33-1.08c-.22-.39-.33-.94-.33-1.64v-4.06Z"/>
    <path d="m73.1,60.82c.46.15.84.43,1.13.84.23.33.39.68.47,1.07s.13.75.13,1.09c0,.88-.18,1.62-.53,2.23-.48.82-1.22,1.23-2.22,1.23h-2.85v-6.61h2.85c.41,0,.75.05,1.02.14Zm-2.53,1v4.31h1.28c.65,0,1.11-.32,1.36-.96.14-.35.21-.77.21-1.26,0-.67-.11-1.19-.32-1.55-.21-.36-.63-.54-1.26-.54h-1.28Z"/>
    <path d="m77.12,67.28h-1.37v-6.61h1.37v6.61Z"/>
    <path d="m44.56,43h1.99v6.61h-1.29v-4.47c0-.13,0-.31,0-.54s0-.41,0-.54l-1.25,5.54h-1.34l-1.24-5.54c0,.13,0,.3,0,.54s0,.41,0,.54v4.47h-1.29v-6.61h2.01l1.2,5.19,1.19-5.19Z"/>
    <path d="m52.71,44.17h-3.5v1.4h3.21v1.15h-3.21v1.7h3.66v1.19h-5.01v-6.61h4.85v1.17Z"/>
    <path d="m58.18,43.17c.24.1.45.26.62.46.14.17.25.35.33.56s.12.43.12.69c0,.31-.08.62-.24.93s-.42.52-.78.64c.3.12.52.3.65.52s.19.57.19,1.03v.44c0,.3.01.51.04.61.04.17.12.3.25.38v.17h-1.52c-.04-.15-.07-.26-.09-.35-.04-.19-.06-.38-.06-.57v-.61c-.01-.42-.09-.7-.23-.84-.14-.14-.4-.21-.79-.21h-1.35v2.59h-1.35v-6.61h3.16c.45,0,.8.07,1.04.17Zm-2.85.98v1.77h1.49c.3,0,.52-.04.66-.11.26-.13.39-.37.39-.74,0-.4-.13-.67-.38-.81-.14-.08-.35-.12-.64-.12h-1.52Z"/>
    <path d="m61.21,43.69c.53-.54,1.21-.82,2.03-.82,1.1,0,1.9.36,2.41,1.09.28.41.43.82.45,1.23h-1.38c-.09-.32-.2-.56-.34-.72-.25-.29-.61-.43-1.09-.43s-.88.2-1.16.61-.43.98-.43,1.72.15,1.3.45,1.67.68.55,1.14.55.84-.16,1.08-.48c.14-.17.25-.43.34-.77h1.37c-.12.72-.42,1.31-.91,1.76s-1.11.68-1.87.68c-.94,0-1.68-.3-2.22-.91-.54-.61-.81-1.45-.81-2.52,0-1.15.31-2.04.92-2.67Z"/>
    <path d="m71.44,43.17c.24.1.45.26.62.46.14.17.25.35.33.56s.12.43.12.69c0,.31-.08.62-.24.93s-.42.52-.78.64c.3.12.52.3.65.52s.19.57.19,1.03v.44c0,.3.01.51.04.61.04.17.12.3.25.38v.17h-1.52c-.04-.15-.07-.26-.09-.35-.04-.19-.06-.38-.06-.57v-.61c-.01-.42-.09-.7-.23-.84-.14-.14-.4-.21-.79-.21h-1.35v2.59h-1.35v-6.61h3.16c.45,0,.8.07,1.04.17Zm-2.85.98v1.77h1.49c.3,0,.52-.04.66-.11.26-.13.39-.37.39-.74,0-.4-.13-.67-.38-.81-.14-.08-.35-.12-.64-.12h-1.52Z"/>
    <path d="m78.72,44.17h-3.5v1.4h3.21v1.15h-3.21v1.7h3.66v1.19h-5.01v-6.61h4.85v1.17Z"/>
    <path d="m83.83,43.14c.46.15.84.43,1.13.84.23.33.39.68.47,1.07s.13.75.13,1.09c0,.88-.18,1.62-.53,2.23-.48.82-1.22,1.23-2.22,1.23h-2.85v-6.61h2.85c.41,0,.75.05,1.02.14Zm-2.53,1v4.31h1.28c.65,0,1.11-.32,1.36-.96.14-.35.21-.77.21-1.26,0-.67-.11-1.19-.32-1.55-.21-.36-.63-.54-1.26-.54h-1.28Z"/>
    <path d="m87.85,49.6h-1.37v-6.61h1.37v6.61Z"/>
    <path d="m50.62,7.47h1.38v5.42h3.3v1.19h-4.68v-6.61Z"/>
    <path d="m56.23,7.47h1.4v4.06c0,.45.05.79.16.99.17.37.53.56,1.09.56s.92-.19,1.09-.56c.11-.21.16-.54.16-.99v-4.06h1.4v4.06c0,.7-.11,1.25-.33,1.64-.41.72-1.18,1.08-2.32,1.08s-1.92-.36-2.33-1.08c-.22-.39-.33-.94-.33-1.64v-4.06Z"/>
    <path d="m62.84,7.47h1.45l2.62,4.61v-4.61h1.29v6.61h-1.38l-2.69-4.69v4.69h-1.29v-6.61Z"/>
    <path d="m73.36,7.61c.46.15.84.43,1.13.84.23.33.39.68.47,1.07s.13.75.13,1.09c0,.88-.18,1.62-.53,2.23-.48.82-1.22,1.23-2.22,1.23h-2.85v-6.61h2.85c.41,0,.75.05,1.02.14Zm-2.53,1v4.31h1.28c.65,0,1.11-.32,1.36-.96.14-.35.21-.77.21-1.26,0-.67-.11-1.19-.32-1.55-.21-.36-.63-.54-1.26-.54h-1.28Z"/>
    <path d="m77.38,14.08h-1.37v-6.61h1.37v6.61Z"/>
    <path d="m54,25.29h1.99v6.61h-1.29v-4.47c0-.13,0-.31,0-.54s0-.41,0-.54l-1.25,5.54h-1.34l-1.24-5.54c0,.13,0,.3,0,.54s0,.41,0,.54v4.47h-1.29v-6.61h2.01l1.2,5.19,1.19-5.19Z"/>
    <path d="m59.15,25.29h1.56l2.34,6.61h-1.5l-.44-1.36h-2.43l-.45,1.36h-1.44l2.36-6.61Zm-.09,4.11h1.69l-.83-2.6-.86,2.6Z"/>
    <path d="m68.12,25.46c.24.1.45.26.62.46.14.17.25.35.33.56s.12.43.12.69c0,.31-.08.62-.24.93s-.42.52-.78.64c.3.12.52.3.65.52s.19.57.19,1.03v.44c0,.3.01.51.04.61.04.17.12.3.25.38v.17h-1.52c-.04-.15-.07-.26-.09-.35-.04-.19-.06-.38-.06-.57v-.61c-.01-.42-.09-.7-.23-.84-.14-.14-.4-.21-.79-.21h-1.35v2.59h-1.35v-6.61h3.16c.45,0,.8.07,1.04.17Zm-2.85.98v1.77h1.49c.3,0,.52-.04.66-.11.26-.13.39-.37.39-.74,0-.4-.13-.67-.38-.81-.14-.08-.35-.12-.64-.12h-1.52Z"/>
    <path d="m74.39,25.43c.46.15.84.43,1.13.84.23.33.39.68.47,1.07s.13.75.13,1.09c0,.88-.18,1.62-.53,2.23-.48.82-1.22,1.23-2.22,1.23h-2.85v-6.61h2.85c.41,0,.75.05,1.02.14Zm-2.53,1v4.31h1.28c.65,0,1.11-.32,1.36-.96.14-.35.21-.77.21-1.26,0-.67-.11-1.19-.32-1.55-.21-.36-.63-.54-1.26-.54h-1.28Z"/>
    <path d="m78.41,31.9h-1.37v-6.61h1.37v6.61Z"/>
  </g>
  <rect class="cls-8" x="-6094.69" y="-614.65" width="6562.35" height="1176.7"/>
</svg>