<?xml version="1.0" encoding="UTF-8"?>
<svg id="Calque_1" data-name="Calque 1" xmlns="http://www.w3.org/2000/svg" viewBox="0 0 128 128">
  <defs>
    <style>
      .cls-1 {
        fill: #ff6d75;
      }

      .cls-1, .cls-2, .cls-3, .cls-4 {
        stroke-linecap: round;
        stroke-linejoin: round;
      }

      .cls-1, .cls-2, .cls-3, .cls-5, .cls-6 {
        stroke: #000;
      }

      .cls-2, .cls-7 {
        fill: #fff;
      }

      .cls-3, .cls-8, .cls-4, .cls-9, .cls-5, .cls-6, .cls-10 {
        fill: none;
      }

      .cls-11 {
        font-family: Helvetica-Bold, Helvetica;
        font-size: 3px;
        font-weight: 700;
      }

      .cls-11, .cls-12 {
        fill: #f7a62f;
      }

      .cls-13 {
        fill: #003873;
      }

      .cls-14 {
        fill: #f05921;
      }

      .cls-15 {
        fill: #fce9b9;
      }

      .cls-16 {
        fill: #1f7baf;
      }

      .cls-17 {
        fill: #1d1d1b;
      }

      .cls-18 {
        fill: #87ccf3;
      }

      .cls-19 {
        fill: #76ac75;
      }

      .cls-8 {
        stroke-width: .23px;
      }

      .cls-8, .cls-9 {
        stroke: #f7a62f;
      }

      .cls-8, .cls-9, .cls-5, .cls-6, .cls-10 {
        stroke-miterlimit: 10;
      }

      .cls-20 {
        letter-spacing: -.07em;
      }

      .cls-4 {
        stroke: #fff;
        stroke-width: 8px;
      }

      .cls-9, .cls-5 {
        stroke-width: .15px;
      }

      .cls-10 {
        stroke: #1f7baf;
        stroke-width: .25px;
      }
    </style>
  </defs>
  <rect class="cls-7" x="22.84" y="5.21" width="82.31" height="117.59"/>
  <g>
    <path class="cls-14" d="m60.76,17.36c-.12-.12-.46-.35-.52-.35-.04,0-.1-.04-.12-.08,0-.02,0-.04.02-.07.02-.04.03-.06.02-.19,0-.11,0-.16-.02-.18-.02-.03-.04-.08-.08-.16-.01-.03-.05-.07-.08-.11s-.07-.08-.09-.11c-.02-.03-.07-.08-.15-.13-.12-.08-.18-.13-.2-.18-.02-.04.03-.11.13-.17l.09-.05h.11c.55.07,1.15.44,1.45.89.12.17.19.38.19.53,0,.06-.05.19-.08.22-.01.01-.05.02-.08.03-.04,0-.09.03-.17.07-.13.08-.19.1-.29.1-.08,0-.08,0-.12-.05h0Zm-3.13-.02c-.07-.03-.09-.03-.17-.03h-.09s-.01-.03-.01-.03c-.01-.04-.01-.04-.08-.03-.04,0-.07,0-.08,0,0,0-.03-.03-.04-.06-.03-.06-.07-.11-.09-.11-.03,0-.05-.05-.06-.16,0-.07-.02-.18-.06-.33-.03-.12-.05-.23-.05-.23,0,0,.03.02.06.04.03.02.09.05.13.06.07.02.1.03.27.03.17,0,.2,0,.29-.03.14-.04.3-.12.39-.19.08-.06.14-.13.26-.3.08-.11.08-.12.18-.17.09-.05.11-.05.18-.05.06,0,.08.01.11.04.04.04.07.11.1.25.02.08.02.14.02.33,0,.34-.02.42-.19.63-.11.14-.18.2-.26.22-.04.01-.1.04-.15.07-.15.09-.17.1-.4.1-.19,0-.2,0-.27-.03h0Zm-.28-2s-.06-.01-.11-.02c-.47-.08-.95-.43-1.03-.75-.01-.05,0-.06.06-.21.04-.09.09-.17.1-.18.05-.05.14-.07.16-.03.02.06.1-.03.11-.12v-.05h.11v-.12c.02-.14.03-.2.07-.24.03-.03.03-.03.04,0,0,.01.03.06.05.11.02.05.06.13.09.19.15.27.33.46.47.51.02,0,.06.02.08.03.07.03.16.03.35,0,.27-.04.35-.03.42.04.03.03.05.06.06.13.04.14.04.19,0,.26-.05.11-.23.28-.38.36-.1.05-.58.12-.67.1h0Zm4.04-.17s-.11-.02-.14-.01h-.06s-.01-.05-.01-.05c-.02-.08-.07-.15-.16-.2-.19-.13-.48-.18-.99-.16-.33,0-.31.01-.35-.1-.03-.07-.03-.15,0-.21,0-.02.05-.07.09-.11.17-.16.45-.27.79-.34.17-.03.63-.03.77,0,.24.05.4.13.53.26.13.12.2.26.23.44.01.07.01.08-.01.13-.01.03-.03.08-.04.1,0,.03-.02.06-.03.07-.02.02-.11.05-.18.06-.04,0-.04.01-.04.04.01.04-.03.06-.17.09-.07.01-.12.02-.13.02,0,0-.05,0-.09-.02h0Zm-2.64-1.12s-.06-.03-.09-.07c-.02-.03-.04-.06-.06-.07-.08-.05-.21-.2-.32-.37l-.13-.18v-.07s0-.08,0-.11c-.06-.14.02-.4.18-.6.18-.21.28-.29.41-.33l.07-.02.1.03.1.03.1-.02c.06-.01.2-.05.31-.08.23-.07.31-.07.34-.04.04.04.02.06-.1.12-.11.05-.11.06-.17.15-.07.12-.09.16-.1.35v.15s.04.05.04.05c.03.03.06.07.07.09.02.04.02.04,0,.1-.01.04-.04.16-.07.27-.02.11-.05.24-.07.29-.05.18-.14.29-.23.3-.02,0-.07.01-.1.02-.07.02-.24.01-.3,0h0Z"/>
    <path class="cls-13" d="m63.88,16.35c-.14-.03-.22-.05-.31-.09-.32-.15-.49-.44-.53-.9-.03-.3.02-.61.13-.83.14-.28.38-.45.71-.5.13-.02.39,0,.51.02.25.06.43.21.53.41.09.19.14.42.14.71v.15h-.4c-.22.01-.51.02-.65.02-.31,0-.33,0-.33.05,0,.06.03.16.06.23.05.09.12.15.22.2.07.03.09.04.21.04.21,0,.41-.05.58-.15l.07-.05.11.2.11.2-.03.03c-.06.05-.29.15-.4.19-.17.05-.3.07-.51.07-.11,0-.21,0-.23,0Zm.54-1.49c0-.12-.02-.17-.07-.24-.03-.04-.06-.07-.1-.09-.06-.03-.08-.03-.17-.03-.07,0-.13,0-.15.02-.14.06-.21.18-.23.37v.07s.74,0,.74,0v-.1s0,0,0,0Zm.97.34v-1.13h.54c.59,0,.66,0,.84.07.4.15.63.51.63,1.03,0,.67-.33,1.06-.97,1.14-.06,0-.31.01-.57.01h-.46s0-1.13,0-1.13h0Zm1.01.67c.19-.05.3-.17.36-.39.03-.13.04-.44,0-.56-.06-.23-.2-.37-.41-.42-.05-.01-.13-.02-.22-.02h-.14s0,1.42,0,1.42h.17c.09-.01.2-.02.24-.03h0Zm1.29-.67v-1.13h1.43v.43h-.42s-.42,0-.42,0v.45h.37s.37,0,.37,0v.41h-.37s-.37,0-.37,0v.48s0,.48,0,.48h-.6v-1.13h0Z"/>
  </g>
  <rect class="cls-15" x="25.32" y="7.09" width="25.18" height="115.7"/>
  <rect class="cls-6" x="22.84" y="5.21" width="82.31" height="117.59"/>
  <rect class="cls-17" x="65.97" y="24.18" width="22" height="1"/>
  <rect class="cls-17" x="65.97" y="26.03" width="28.36" height="1"/>
  <text class="cls-11" transform="translate(27.2 12.86) scale(.7)"><tspan x="0" y="0">NOUS</tspan></text>
  <text class="cls-11" transform="translate(33.27 12.86)"><tspan x="0" y="0"> </tspan></text>
  <text class="cls-11" transform="translate(34.1 12.86) scale(.7)"><tspan x="0" y="0">CON</tspan><tspan class="cls-20" x="6.67" y="0">T</tspan><tspan x="8.28" y="0">ACTER</tspan></text>
  <rect class="cls-17" x="65.97" y="27.88" width="12.81" height="1"/>
  <rect class="cls-7" x="27.2" y="14.73" width="19.84" height="6.91"/>
  <rect class="cls-7" x="27.36" y="27.6" width="19.69" height="1.97"/>
  <rect class="cls-7" x="27.36" y="32.59" width="19.69" height="1.97"/>
  <rect class="cls-7" x="27.36" y="40.29" width="19.69" height="1.97"/>
  <rect class="cls-7" x="27.36" y="52.3" width="19.69" height="1.97"/>
  <rect class="cls-7" x="27.36" y="56.36" width="19.69" height="1.97"/>
  <path class="cls-8" d="m47.04,23.7v34.74h-19.84v-31.65c0-1.71,1.78-3.09,3.98-3.09h15.86Z"/>
  <line class="cls-9" x1="27.62" y1="36.6" x2="46.58" y2="36.6"/>
  <line class="cls-9" x1="27.62" y1="43.97" x2="46.58" y2="43.97"/>
  <line class="cls-5" x1="27.62" y1="49.93" x2="46.58" y2="49.93"/>
  <rect class="cls-12" x="35.22" y="28.22" width="5.39" height=".73"/>
  <rect class="cls-17" x="28.57" y="30.71" width="17.38" height=".73"/>
  <rect class="cls-17" x="28.1" y="38.94" width="17.85" height=".73"/>
  <rect class="cls-17" x="28.57" y="42.75" width="17.38" height=".73"/>
  <rect class="cls-17" x="28.57" y="34.88" width="17.38" height=".73"/>
  <rect class="cls-12" x="28.57" y="33.21" width="17.38" height=".73"/>
  <rect class="cls-12" x="28.57" y="40.91" width="17.38" height=".73"/>
  <rect class="cls-17" x="28.57" y="46.54" width="17.38" height=".73"/>
  <rect class="cls-17" x="28.57" y="47.97" width="17.38" height=".73"/>
  <rect class="cls-17" x="28.57" y="50.89" width="17.38" height=".73"/>
  <rect class="cls-17" x="28.57" y="54.95" width="17.38" height=".73"/>
  <rect class="cls-19" x="28.57" y="56.98" width="17.38" height=".73"/>
  <rect class="cls-17" x="28.57" y="52.92" width="17.38" height=".73"/>
  <g>
    <path class="cls-12" d="m29.02,25.94h-.23v.39h-.22v-1.08h.47c.11,0,.19.03.26.08s.1.14.1.26c0,.13-.03.22-.1.27s-.16.08-.28.08Zm.11-.23s.04-.07.04-.12-.01-.1-.04-.12c-.03-.02-.07-.04-.12-.04h-.21v.32h.21c.05,0,.09-.01.12-.04Z"/>
    <path class="cls-12" d="m29.58,25.62c.06-.07.15-.11.28-.11.09,0,.17.02.23.05.07.04.1.1.1.2v.37s0,.06,0,.09c0,.03,0,.05.01.06s.02.02.03.02v.03h-.23s-.01-.03-.01-.05,0-.03,0-.05c-.03.03-.06.06-.1.08-.04.03-.1.04-.15.04-.07,0-.13-.02-.18-.06-.05-.04-.07-.1-.07-.18,0-.1.04-.17.11-.21.04-.02.1-.04.18-.05h.07s.07-.02.08-.03c.03-.01.04-.03.04-.06,0-.03-.01-.06-.03-.07-.02-.01-.06-.02-.1-.02-.05,0-.08.01-.1.04-.01.02-.02.04-.03.07h-.2c0-.07.02-.13.06-.17Zm.16.56s.04.02.07.02c.04,0,.09-.01.12-.04.04-.03.06-.07.06-.14v-.08s-.03.02-.04.02c-.01,0-.03,0-.06.01h-.05s-.08.03-.09.04c-.03.02-.05.05-.05.09,0,.04,0,.06.03.08Z"/>
    <path class="cls-12" d="m30.78,25.73c-.08,0-.14.03-.17.08-.02.03-.02.08-.02.14v.38h-.21v-.8h.2v.14c.03-.05.06-.09.08-.11.04-.03.09-.05.15-.05,0,0,0,0,0,0,0,0,0,0,.02,0v.21s-.02,0-.04,0c0,0-.02,0-.02,0Z"/>
    <path class="cls-12" d="m31.38,25.25h.22v1.08h-.22v-1.08Z"/>
    <path class="cls-12" d="m32.18,25.69c-.07,0-.12.03-.15.09-.01.03-.02.07-.02.12v.43h-.21v-.8h.2v.12s.05-.07.08-.09c.04-.03.1-.05.16-.05.08,0,.15.02.2.06.05.04.08.11.08.21v.54h-.21v-.49s0-.07-.02-.1c-.02-.04-.06-.06-.12-.06Z"/>
    <path class="cls-12" d="m33.08,26.18v.16h-.1c-.1,0-.17,0-.2-.05-.02-.02-.04-.06-.04-.11v-.49h-.11v-.15h.11v-.22h.21v.22h.13v.15h-.13v.42s0,.05.01.06c0,0,.03.01.08.01h.02s.01,0,.02,0Z"/>
    <path class="cls-12" d="m33.9,26.1s-.03.1-.07.14c-.07.08-.16.12-.29.12-.1,0-.19-.03-.27-.1s-.12-.17-.12-.32c0-.14.04-.24.11-.32.07-.07.16-.11.27-.11.07,0,.13.01.18.04s.1.06.13.12c.03.05.05.1.06.16,0,.04,0,.09,0,.16h-.55c0,.08.03.14.08.17.03.02.06.03.1.03.04,0,.08-.01.1-.04.01-.01.03-.03.04-.05h.21Zm-.21-.24c0-.06-.02-.1-.05-.13-.03-.03-.07-.04-.11-.04-.05,0-.09.02-.11.05-.03.03-.04.07-.05.12h.32Z"/>
    <path class="cls-12" d="m34.45,25.73c-.08,0-.14.03-.17.08-.02.03-.02.08-.02.14v.38h-.21v-.8h.2v.14c.03-.05.06-.09.08-.11.04-.03.09-.05.15-.05,0,0,0,0,0,0,0,0,0,0,.02,0v.21s-.02,0-.04,0c0,0-.02,0-.02,0Z"/>
    <path class="cls-12" d="m35.01,25.69c-.07,0-.12.03-.15.09-.01.03-.02.07-.02.12v.43h-.21v-.8h.2v.12s.05-.07.08-.09c.04-.03.1-.05.16-.05.08,0,.15.02.2.06.05.04.08.11.08.21v.54h-.21v-.49s0-.07-.02-.1c-.02-.04-.06-.06-.12-.06Z"/>
    <path class="cls-12" d="m36.23,26.1s-.03.1-.07.14c-.07.08-.16.12-.29.12-.1,0-.19-.03-.27-.1s-.12-.17-.12-.32c0-.14.04-.24.11-.32.07-.07.16-.11.27-.11.07,0,.13.01.18.04s.1.06.13.12c.03.05.05.1.06.16,0,.04,0,.09,0,.16h-.55c0,.08.03.14.08.17.03.02.06.03.1.03.04,0,.08-.01.1-.04.01-.01.03-.03.04-.05h.21Zm-.21-.24c0-.06-.02-.1-.05-.13-.03-.03-.07-.04-.11-.04-.05,0-.09.02-.11.05-.03.03-.04.07-.05.12h.32Z"/>
    <path class="cls-12" d="m36.75,26.18v.16h-.1c-.1,0-.17,0-.2-.05-.02-.02-.04-.06-.04-.11v-.49h-.11v-.15h.11v-.22h.21v.22h.13v.15h-.13v.42s0,.05.01.06c0,0,.03.01.08.01h.02s.01,0,.02,0Z"/>
  </g>
  <g>
    <path class="cls-12" d="m29.02,38.01h-.23v.39h-.22v-1.08h.47c.11,0,.19.03.26.08s.1.14.1.26c0,.13-.03.22-.1.27s-.16.08-.28.08Zm.11-.23s.04-.07.04-.12-.01-.1-.04-.12c-.03-.02-.07-.04-.12-.04h-.21v.32h.21c.05,0,.09-.01.12-.04Z"/>
    <path class="cls-12" d="m29.58,37.68c.06-.07.15-.11.28-.11.09,0,.17.02.23.05.07.04.1.1.1.2v.37s0,.06,0,.09c0,.03,0,.05.01.06s.02.02.03.02v.03h-.23s-.01-.03-.01-.05,0-.03,0-.05c-.03.03-.06.06-.1.08-.04.03-.1.04-.15.04-.07,0-.13-.02-.18-.06-.05-.04-.07-.1-.07-.18,0-.1.04-.17.11-.21.04-.02.1-.04.18-.05h.07s.07-.02.08-.03c.03-.01.04-.03.04-.06,0-.03-.01-.06-.03-.07-.02-.01-.06-.02-.1-.02-.05,0-.08.01-.1.04-.01.02-.02.04-.03.07h-.2c0-.07.02-.13.06-.17Zm.16.56s.04.02.07.02c.04,0,.09-.01.12-.04.04-.03.06-.07.06-.14v-.08s-.03.02-.04.02c-.01,0-.03,0-.06.01h-.05s-.08.03-.09.04c-.03.02-.05.05-.05.09,0,.04,0,.06.03.08Z"/>
    <path class="cls-12" d="m30.78,37.79c-.08,0-.14.03-.17.08-.02.03-.02.08-.02.14v.38h-.21v-.8h.2v.14c.03-.05.06-.09.08-.11.04-.03.09-.05.15-.05,0,0,0,0,0,0,0,0,0,0,.02,0v.21s-.02,0-.04,0c0,0-.02,0-.02,0Z"/>
    <path class="cls-12" d="m31.75,38.25v.16h-.1c-.1,0-.17,0-.2-.05-.02-.02-.04-.06-.04-.11v-.49h-.11v-.15h.11v-.22h.21v.22h.13v.15h-.13v.42s0,.05.01.06c0,0,.03.01.08.01h.02s.01,0,.02,0Z"/>
    <path class="cls-12" d="m32.57,38.16s-.03.1-.07.14c-.07.08-.16.12-.29.12-.1,0-.19-.03-.27-.1s-.12-.17-.12-.32c0-.14.04-.24.11-.32.07-.07.16-.11.27-.11.07,0,.13.01.18.04s.1.06.13.12c.03.05.05.1.06.16,0,.04,0,.09,0,.16h-.55c0,.08.03.14.08.17.03.02.06.03.1.03.04,0,.08-.01.1-.04.01-.01.03-.03.04-.05h.21Zm-.21-.24c0-.06-.02-.1-.05-.13-.03-.03-.07-.04-.11-.04-.05,0-.09.02-.11.05-.03.03-.04.07-.05.12h.32Zm-.27-.43l.14-.22h.23l-.22.22h-.15Z"/>
    <path class="cls-12" d="m32.72,37.32h.21v1.08h-.21v-1.08Z"/>
    <path class="cls-12" d="m33.82,38.16s-.03.1-.07.14c-.07.08-.16.12-.29.12-.1,0-.19-.03-.27-.1s-.12-.17-.12-.32c0-.14.04-.24.11-.32.07-.07.16-.11.27-.11.07,0,.13.01.18.04s.1.06.13.12c.03.05.05.1.06.16,0,.04,0,.09,0,.16h-.55c0,.08.03.14.08.17.03.02.06.03.1.03.04,0,.08-.01.1-.04.01-.01.03-.03.04-.05h.21Zm-.21-.24c0-.06-.02-.1-.05-.13-.03-.03-.07-.04-.11-.04-.05,0-.09.02-.11.05-.03.03-.04.07-.05.12h.32Zm-.27-.43l.14-.22h.23l-.22.22h-.15Z"/>
    <path class="cls-12" d="m34.64,37.68c.06.07.1.17.1.3,0,.14-.03.25-.09.32-.06.07-.15.11-.24.11-.06,0-.12-.02-.16-.05-.02-.02-.04-.04-.07-.08v.42h-.21v-1.11h.2v.12s.05-.06.07-.08c.05-.04.1-.05.17-.05.09,0,.17.03.24.1Zm-.12.31c0-.06-.01-.12-.04-.16-.03-.05-.07-.07-.14-.07-.08,0-.13.04-.16.11-.01.04-.02.09-.02.15,0,.09.02.16.07.2.03.02.06.03.1.03.06,0,.1-.02.13-.07.03-.04.05-.1.05-.18Z"/>
    <path class="cls-12" d="m35.61,37.93v.47h-.21v-.49s0-.08-.02-.1c-.02-.04-.06-.06-.11-.06-.06,0-.1.02-.13.06-.03.04-.04.09-.04.16v.43h-.21v-1.08h.21v.38s.07-.08.11-.1c.04-.02.08-.03.13-.03.05,0,.09,0,.13.03.04.02.07.04.1.08.02.03.04.06.04.09,0,.03,0,.08,0,.15Z"/>
    <path class="cls-12" d="m36.47,37.7c.07.08.1.18.1.3s-.03.22-.1.3c-.07.08-.17.12-.31.12s-.24-.04-.31-.12c-.07-.08-.1-.18-.1-.3s.03-.22.1-.3.17-.13.31-.13.24.04.31.13Zm-.31.05c-.06,0-.11.02-.14.06-.03.04-.05.1-.05.19s.02.14.05.19c.03.04.08.06.14.06s.11-.02.14-.06.05-.1.05-.19-.02-.14-.05-.19c-.03-.04-.08-.06-.14-.06Z"/>
    <path class="cls-12" d="m37.09,37.75c-.07,0-.12.03-.15.09-.01.03-.02.07-.02.12v.43h-.21v-.8h.2v.12s.05-.07.08-.09c.04-.03.1-.05.16-.05.08,0,.15.02.2.06.05.04.08.11.08.21v.54h-.21v-.49s0-.07-.02-.1c-.02-.04-.06-.06-.12-.06Z"/>
    <path class="cls-12" d="m38.32,38.16s-.03.1-.07.14c-.07.08-.16.12-.29.12-.1,0-.19-.03-.27-.1s-.12-.17-.12-.32c0-.14.04-.24.11-.32.07-.07.16-.11.27-.11.07,0,.13.01.18.04s.1.06.13.12c.03.05.05.1.06.16,0,.04,0,.09,0,.16h-.55c0,.08.03.14.08.17.03.02.06.03.1.03.04,0,.08-.01.1-.04.01-.01.03-.03.04-.05h.21Zm-.21-.24c0-.06-.02-.1-.05-.13-.03-.03-.07-.04-.11-.04-.05,0-.09.02-.11.05-.03.03-.04.07-.05.12h.32Z"/>
  </g>
  <g>
    <path class="cls-12" d="m29.02,45.28h-.23v.39h-.22v-1.08h.47c.11,0,.19.03.26.08s.1.14.1.26c0,.13-.03.22-.1.27s-.16.08-.28.08Zm.11-.23s.04-.07.04-.12-.01-.1-.04-.12c-.03-.02-.07-.04-.12-.04h-.21v.32h.21c.05,0,.09-.01.12-.04Z"/>
    <path class="cls-12" d="m29.58,44.96c.06-.07.15-.11.28-.11.09,0,.17.02.23.05.07.04.1.1.1.2v.37s0,.06,0,.09c0,.03,0,.05.01.06s.02.02.03.02v.03h-.23s-.01-.03-.01-.05,0-.03,0-.05c-.03.03-.06.06-.1.08-.04.03-.1.04-.15.04-.07,0-.13-.02-.18-.06-.05-.04-.07-.1-.07-.18,0-.1.04-.17.11-.21.04-.02.1-.04.18-.05h.07s.07-.02.08-.03c.03-.01.04-.03.04-.06,0-.03-.01-.06-.03-.07-.02-.01-.06-.02-.1-.02-.05,0-.08.01-.1.04-.01.02-.02.04-.03.07h-.2c0-.07.02-.13.06-.17Zm.16.56s.04.02.07.02c.04,0,.09-.01.12-.04.04-.03.06-.07.06-.14v-.08s-.03.02-.04.02c-.01,0-.03,0-.06.01h-.05s-.08.03-.09.04c-.03.02-.05.05-.05.09,0,.04,0,.06.03.08Z"/>
    <path class="cls-12" d="m30.78,45.06c-.08,0-.14.03-.17.08-.02.03-.02.08-.02.14v.38h-.21v-.8h.2v.14c.03-.05.06-.09.08-.11.04-.03.09-.05.15-.05,0,0,0,0,0,0,0,0,0,0,.02,0v.21s-.02,0-.04,0c0,0-.02,0-.02,0Z"/>
    <path class="cls-12" d="m32.07,45.16h-.21s-.01-.06-.03-.08c-.02-.03-.06-.05-.11-.05-.07,0-.12.03-.14.1-.01.04-.02.09-.02.15s0,.11.02.14c.02.07.07.1.14.1.05,0,.08-.01.1-.04s.03-.06.04-.1h.21c0,.06-.03.12-.07.18-.07.09-.16.14-.29.14s-.22-.04-.28-.11-.09-.18-.09-.3c0-.14.03-.24.1-.32s.16-.11.28-.11c.1,0,.18.02.25.07.06.04.1.12.11.24Z"/>
    <path class="cls-12" d="m32.88,44.97c.07.08.1.18.1.3s-.03.22-.1.3c-.07.08-.17.12-.31.12s-.24-.04-.31-.12c-.07-.08-.1-.18-.1-.3s.03-.22.1-.3.17-.13.31-.13.24.04.31.13Zm-.31.05c-.06,0-.11.02-.14.06-.03.04-.05.1-.05.19s.02.14.05.19c.03.04.08.06.14.06s.11-.02.14-.06.05-.1.05-.19-.02-.14-.05-.19c-.03-.04-.08-.06-.14-.06Z"/>
    <path class="cls-12" d="m33.65,45.55s0,0-.01.02-.02.02-.03.03c-.03.03-.06.05-.09.06-.03.01-.07.02-.11.02-.12,0-.2-.04-.24-.13-.02-.05-.03-.12-.03-.21v-.48h.21v.48s0,.08.02.1c.02.04.06.06.11.06.07,0,.12-.03.15-.09.01-.03.02-.07.02-.12v-.43h.21v.8h-.2v-.11Z"/>
    <path class="cls-12" d="m34.45,45.06c-.08,0-.14.03-.17.08-.02.03-.02.08-.02.14v.38h-.21v-.8h.2v.14c.03-.05.06-.09.08-.11.04-.03.09-.05.15-.05,0,0,0,0,0,0,0,0,0,0,.02,0v.21s-.02,0-.04,0c0,0-.02,0-.02,0Z"/>
    <path class="cls-12" d="m35.04,45.06c-.08,0-.14.03-.17.08-.02.03-.02.08-.02.14v.38h-.21v-.8h.2v.14c.03-.05.06-.09.08-.11.04-.03.09-.05.15-.05,0,0,0,0,0,0,0,0,0,0,.02,0v.21s-.02,0-.04,0c0,0-.02,0-.02,0Z"/>
    <path class="cls-12" d="m35.43,44.58v.19h-.21v-.19h.21Zm0,.29v.8h-.21v-.8h.21Z"/>
    <path class="cls-12" d="m36.32,45.43s-.03.1-.07.14c-.07.08-.16.12-.29.12-.1,0-.19-.03-.27-.1s-.12-.17-.12-.32c0-.14.04-.24.11-.32.07-.07.16-.11.27-.11.07,0,.13.01.18.04s.1.06.13.12c.03.05.05.1.06.16,0,.04,0,.09,0,.16h-.55c0,.08.03.14.08.17.03.02.06.03.1.03.04,0,.08-.01.1-.04.01-.01.03-.03.04-.05h.21Zm-.21-.24c0-.06-.02-.1-.05-.13-.03-.03-.07-.04-.11-.04-.05,0-.09.02-.11.05-.03.03-.04.07-.05.12h.32Z"/>
    <path class="cls-12" d="m36.87,45.06c-.08,0-.14.03-.17.08-.02.03-.02.08-.02.14v.38h-.21v-.8h.2v.14c.03-.05.06-.09.08-.11.04-.03.09-.05.15-.05,0,0,0,0,0,0,0,0,0,0,.02,0v.21s-.02,0-.04,0c0,0-.02,0-.02,0Z"/>
  </g>
  <rect class="cls-7" x="27.36" y="80.71" width="19.69" height="1.97"/>
  <rect class="cls-17" x="28.57" y="64.94" width="17.38" height=".73"/>
  <rect class="cls-17" x="28.57" y="66.25" width="17.38" height=".73"/>
  <rect class="cls-17" x="28.57" y="67.56" width="17.38" height=".73"/>
  <rect class="cls-17" x="28.57" y="83.61" width="8.69" height=".73"/>
  <rect class="cls-17" x="28.57" y="84.91" width="8.69" height=".73"/>
  <rect class="cls-17" x="28.57" y="86.22" width="8.69" height=".73"/>
  <rect class="cls-17" x="28.57" y="68.86" width="17.38" height=".73"/>
  <rect class="cls-17" x="56.24" y="56" width="42.8" height=".73"/>
  <rect class="cls-17" x="56.24" y="57.33" width="42.8" height=".73"/>
  <rect class="cls-17" x="56.24" y="58.65" width="42.8" height=".73"/>
  <rect class="cls-17" x="56.24" y="59.98" width="42.8" height=".73"/>
  <rect class="cls-17" x="56.24" y="61.3" width="42.8" height=".73"/>
  <rect class="cls-17" x="56.24" y="62.63" width="42.8" height=".73"/>
  <rect class="cls-17" x="56.24" y="63.95" width="42.8" height=".73"/>
  <rect class="cls-17" x="56.24" y="65.28" width="42.8" height=".73"/>
  <rect class="cls-17" x="81.92" y="69.88" width="17.1" height=".73"/>
  <rect class="cls-17" x="81.92" y="71.19" width="17.1" height=".73"/>
  <rect class="cls-17" x="28.57" y="72.42" width="17.38" height=".73"/>
  <rect class="cls-16" x="28.57" y="76.56" width="17.38" height=".73"/>
  <rect class="cls-16" x="28.57" y="81.33" width="17.38" height=".73"/>
  <rect class="cls-7" x="27.36" y="87.56" width="19.69" height="1.97"/>
  <rect class="cls-16" x="28.57" y="88.18" width="17.38" height=".73"/>
  <rect class="cls-17" x="28.57" y="77.91" width="17.38" height=".73"/>
  <rect class="cls-17" x="28.57" y="79.26" width="17.38" height=".73"/>
  <rect class="cls-17" x="28.57" y="90.26" width="17.38" height=".73"/>
  <rect class="cls-17" x="28.57" y="91.73" width="17.38" height=".73"/>
  <rect class="cls-17" x="28.57" y="93.19" width="17.38" height=".73"/>
  <g>
    <path class="cls-16" d="m28.56,62.99h.23v.89h.53v.19h-.76v-1.08Z"/>
    <path class="cls-16" d="m29.68,62.98v.19h-.21v-.19h.21Zm0,.29v.8h-.21v-.8h.21Z"/>
    <path class="cls-16" d="m30.56,63.83s-.03.1-.07.14c-.07.08-.16.12-.29.12-.1,0-.19-.03-.27-.1s-.12-.17-.12-.32c0-.14.04-.24.11-.32.07-.07.16-.11.27-.11.07,0,.13.01.18.04s.1.06.13.12c.03.05.05.1.06.16,0,.04,0,.09,0,.16h-.55c0,.08.03.14.08.17.03.02.06.03.1.03.04,0,.08-.01.1-.04.01-.01.03-.03.04-.05h.21Zm-.21-.24c0-.06-.02-.1-.05-.13-.03-.03-.07-.04-.11-.04-.05,0-.09.02-.11.05-.03.03-.04.07-.05.12h.32Z"/>
    <path class="cls-16" d="m31.23,63.96s0,0-.01.02-.02.02-.03.03c-.03.03-.06.05-.09.06-.03.01-.07.02-.11.02-.12,0-.2-.04-.24-.13-.02-.05-.03-.12-.03-.21v-.48h.21v.48s0,.08.02.1c.02.04.06.06.11.06.07,0,.12-.03.15-.09.01-.03.02-.07.02-.12v-.43h.21v.8h-.2v-.11Z"/>
    <path class="cls-16" d="m32.77,62.99v1.08h-.2v-.11s-.06.08-.1.1-.09.03-.14.03c-.09,0-.17-.04-.24-.11-.06-.08-.1-.17-.1-.29,0-.14.03-.24.09-.32.06-.08.15-.12.25-.12.05,0,.09.01.13.03.04.02.07.05.09.09v-.38h.21Zm-.56.68c0,.07.01.13.04.18.03.04.07.07.13.07s.1-.02.13-.07c.03-.04.05-.1.05-.17,0-.1-.02-.17-.07-.21-.03-.03-.07-.04-.11-.04-.06,0-.11.02-.13.07-.03.05-.04.1-.04.17Z"/>
    <path class="cls-16" d="m33.65,63.83s-.03.1-.07.14c-.07.08-.16.12-.29.12-.1,0-.19-.03-.27-.1s-.12-.17-.12-.32c0-.14.04-.24.11-.32.07-.07.16-.11.27-.11.07,0,.13.01.18.04s.1.06.13.12c.03.05.05.1.06.16,0,.04,0,.09,0,.16h-.55c0,.08.03.14.08.17.03.02.06.03.1.03.04,0,.08-.01.1-.04.01-.01.03-.03.04-.05h.21Zm-.21-.24c0-.06-.02-.1-.05-.13-.03-.03-.07-.04-.11-.04-.05,0-.09.02-.11.05-.03.03-.04.07-.05.12h.32Z"/>
    <path class="cls-16" d="m34.91,63.56h-.21s-.01-.06-.03-.08c-.02-.03-.06-.05-.11-.05-.07,0-.12.03-.14.1-.01.04-.02.09-.02.15s0,.11.02.14c.02.07.07.1.14.1.05,0,.08-.01.1-.04s.03-.06.04-.1h.21c0,.06-.03.12-.07.18-.07.09-.16.14-.29.14s-.22-.04-.28-.11-.09-.18-.09-.3c0-.14.03-.24.1-.32s.16-.11.28-.11c.1,0,.18.02.25.07.06.04.1.12.11.24Z"/>
    <path class="cls-16" d="m35.71,63.37c.07.08.1.18.1.3s-.03.22-.1.3c-.07.08-.17.12-.31.12s-.24-.04-.31-.12c-.07-.08-.1-.18-.1-.3s.03-.22.1-.3.17-.13.31-.13.24.04.31.13Zm-.31.05c-.06,0-.11.02-.14.06-.03.04-.05.1-.05.19s.02.14.05.19c.03.04.08.06.14.06s.11-.02.14-.06.05-.1.05-.19-.02-.14-.05-.19c-.03-.04-.08-.06-.14-.06Z"/>
    <path class="cls-16" d="m36.34,63.43c-.07,0-.12.03-.15.09-.01.03-.02.07-.02.12v.43h-.21v-.8h.2v.12s.05-.07.08-.09c.04-.03.1-.05.16-.05.08,0,.15.02.2.06.05.04.08.11.08.21v.54h-.21v-.49s0-.07-.02-.1c-.02-.04-.06-.06-.12-.06Z"/>
    <path class="cls-16" d="m37.43,63.31c.06.04.1.11.11.21h-.21s-.01-.05-.02-.06c-.02-.03-.06-.04-.12-.04-.04,0-.08,0-.1.02-.02.01-.03.03-.03.05,0,.02.01.04.03.05.02.01.09.03.22.06.08.02.15.05.19.09.04.04.06.09.06.15,0,.08-.03.14-.09.19-.06.05-.15.08-.27.08s-.22-.03-.28-.08c-.06-.05-.09-.12-.09-.2h.21s.01.06.03.08c.03.03.07.04.14.04.04,0,.07,0,.1-.02.02-.01.04-.03.04-.05s-.01-.04-.03-.05c-.02-.01-.09-.03-.22-.06-.09-.02-.15-.05-.19-.08-.04-.03-.06-.08-.06-.14,0-.07.03-.14.09-.19.06-.05.14-.08.24-.08s.18.02.24.06Z"/>
    <path class="cls-16" d="m38.38,63.37c.07.08.1.18.1.3s-.03.22-.1.3c-.07.08-.17.12-.31.12s-.24-.04-.31-.12c-.07-.08-.1-.18-.1-.3s.03-.22.1-.3.17-.13.31-.13.24.04.31.13Zm-.31.05c-.06,0-.11.02-.14.06-.03.04-.05.1-.05.19s.02.14.05.19c.03.04.08.06.14.06s.11-.02.14-.06.05-.1.05-.19-.02-.14-.05-.19c-.03-.04-.08-.06-.14-.06Z"/>
    <path class="cls-16" d="m39.08,63.49s-.05-.06-.1-.06c-.06,0-.1.02-.12.06-.01.02-.02.05-.02.1v.48h-.21v-.8h.2v.12s.05-.07.07-.09c.04-.03.09-.05.16-.05.06,0,.11.01.15.04.03.02.05.06.07.1.03-.05.06-.08.1-.1.04-.02.09-.03.14-.03.04,0,.07,0,.1.02.03.01.06.04.09.07.02.03.04.06.05.1,0,.03,0,.07,0,.12v.5h-.22v-.51s0-.06-.01-.07c-.02-.04-.05-.06-.1-.06-.06,0-.1.02-.12.07-.01.03-.02.06-.02.09v.48h-.21v-.48s0-.08-.01-.1Z"/>
    <path class="cls-16" d="m40.41,63.49s-.05-.06-.1-.06c-.06,0-.1.02-.12.06-.01.02-.02.05-.02.1v.48h-.21v-.8h.2v.12s.05-.07.07-.09c.04-.03.09-.05.16-.05.06,0,.11.01.15.04.03.02.05.06.07.1.03-.05.06-.08.1-.1.04-.02.09-.03.14-.03.04,0,.07,0,.1.02.03.01.06.04.09.07.02.03.04.06.05.1,0,.03,0,.07,0,.12v.5h-.22v-.51s0-.06-.01-.07c-.02-.04-.05-.06-.1-.06-.06,0-.1.02-.12.07-.01.03-.02.06-.02.09v.48h-.21v-.48s0-.08-.01-.1Z"/>
    <path class="cls-16" d="m41.33,63.36c.06-.07.15-.11.28-.11.09,0,.17.02.23.05.07.04.1.1.1.2v.37s0,.06,0,.09c0,.03,0,.05.01.06s.02.02.03.02v.03h-.23s-.01-.03-.01-.05,0-.03,0-.05c-.03.03-.06.06-.1.08-.04.03-.1.04-.15.04-.07,0-.13-.02-.18-.06-.05-.04-.07-.1-.07-.18,0-.1.04-.17.11-.21.04-.02.1-.04.18-.05h.07s.07-.02.08-.03c.03-.01.04-.03.04-.06,0-.03-.01-.06-.03-.07-.02-.01-.06-.02-.1-.02-.05,0-.08.01-.1.04-.01.02-.02.04-.03.07h-.2c0-.07.02-.13.06-.17Zm.16.56s.04.02.07.02c.04,0,.09-.01.12-.04.04-.03.06-.07.06-.14v-.08s-.03.02-.04.02c-.01,0-.03,0-.06.01h-.05s-.08.03-.09.04c-.03.02-.05.05-.05.09,0,.04,0,.06.03.08Z"/>
    <path class="cls-16" d="m42.5,63.92v.16h-.1c-.1,0-.17,0-.2-.05-.02-.02-.04-.06-.04-.11v-.49h-.11v-.15h.11v-.22h.21v.22h.13v.15h-.13v.42s0,.05.01.06c0,0,.03.01.08.01h.02s.01,0,.02,0Z"/>
    <path class="cls-16" d="m42.85,62.98v.19h-.21v-.19h.21Zm0,.29v.8h-.21v-.8h.21Z"/>
    <path class="cls-16" d="m43.71,63.37c.07.08.1.18.1.3s-.03.22-.1.3c-.07.08-.17.12-.31.12s-.24-.04-.31-.12c-.07-.08-.1-.18-.1-.3s.03-.22.1-.3.17-.13.31-.13.24.04.31.13Zm-.31.05c-.06,0-.11.02-.14.06-.03.04-.05.1-.05.19s.02.14.05.19c.03.04.08.06.14.06s.11-.02.14-.06.05-.1.05-.19-.02-.14-.05-.19c-.03-.04-.08-.06-.14-.06Z"/>
    <path class="cls-16" d="m44.34,63.43c-.07,0-.12.03-.15.09-.01.03-.02.07-.02.12v.43h-.21v-.8h.2v.12s.05-.07.08-.09c.04-.03.1-.05.16-.05.08,0,.15.02.2.06.05.04.08.11.08.21v.54h-.21v-.49s0-.07-.02-.1c-.02-.04-.06-.06-.12-.06Z"/>
  </g>
  <g>
    <path class="cls-16" d="m67.16,50.66h-1.33l-.25.74h-.79l1.28-3.6h.85l1.27,3.6h-.82l-.23-.74Zm-.21-.62l-.45-1.42-.46,1.42h.91Z"/>
    <path class="cls-16" d="m69.83,50.9v.52h-.33c-.33.02-.55-.03-.67-.16-.08-.08-.12-.2-.12-.37v-1.64h-.37v-.5h.37v-.74h.69v.74h.43v.5h-.43v1.41c0,.11.01.18.04.2.03.03.11.04.25.04.02,0,.04,0,.07,0,.02,0,.05,0,.07,0Z"/>
    <path class="cls-16" d="m71.49,50.9v.52h-.33c-.33.02-.55-.03-.67-.16-.08-.08-.12-.2-.12-.37v-1.64h-.37v-.5h.37v-.74h.69v.74h.43v.5h-.43v1.41c0,.11.01.18.04.2.03.03.11.04.25.04.02,0,.04,0,.07,0,.02,0,.05,0,.07,0Z"/>
    <path class="cls-16" d="m74.22,50.61c-.02.16-.1.32-.25.48-.23.26-.55.39-.96.39-.34,0-.64-.11-.9-.33s-.39-.57-.39-1.06c0-.46.12-.81.35-1.06.23-.25.54-.37.91-.37.22,0,.42.04.6.12s.32.21.44.39c.1.16.17.34.2.55.02.12.03.3.02.53h-1.82c0,.27.09.45.25.56.1.07.21.1.35.1.14,0,.26-.04.35-.12.05-.04.09-.1.13-.18h.71Zm-.69-.82c-.01-.18-.07-.32-.17-.42-.1-.09-.22-.14-.37-.14-.16,0-.29.05-.37.15-.09.1-.14.24-.17.41h1.08Z"/>
    <path class="cls-16" d="m76.55,48.86c.21.13.33.36.36.69h-.7c0-.09-.04-.16-.08-.21-.08-.09-.21-.14-.39-.14-.15,0-.26.02-.32.07-.06.05-.1.1-.1.17,0,.08.03.14.1.17.07.04.31.1.73.19.28.06.48.16.62.3.14.13.21.3.21.5,0,.26-.1.48-.29.65-.2.17-.5.25-.91.25s-.73-.09-.93-.27c-.2-.18-.3-.4-.3-.67h.71c.01.12.05.21.1.26.09.09.25.14.48.14.14,0,.25-.02.33-.06.08-.04.12-.1.12-.18s-.03-.14-.1-.18-.31-.11-.73-.21c-.3-.07-.51-.17-.64-.28-.12-.11-.19-.27-.19-.48,0-.25.1-.46.29-.63.19-.18.46-.27.81-.27.33,0,.6.07.81.2Z"/>
    <path class="cls-16" d="m78.72,50.9v.52h-.33c-.33.02-.55-.03-.67-.16-.08-.08-.12-.2-.12-.37v-1.64h-.37v-.5h.37v-.74h.69v.74h.43v.5h-.43v1.41c0,.11.01.18.04.2.03.03.11.04.25.04.02,0,.04,0,.07,0,.02,0,.05,0,.07,0Z"/>
    <path class="cls-16" d="m79.27,49.02c.18-.23.5-.35.95-.35.29,0,.55.06.78.17s.34.33.34.65v1.22c0,.08,0,.19,0,.31,0,.09.02.15.04.19s.06.06.1.08v.1h-.76c-.02-.05-.04-.1-.04-.15s-.01-.1-.02-.16c-.1.1-.21.19-.33.27-.15.09-.32.13-.51.13-.24,0-.44-.07-.6-.21-.16-.14-.24-.33-.24-.58,0-.33.13-.56.38-.71.14-.08.34-.14.61-.17l.24-.03c.13-.02.22-.04.28-.06.1-.04.15-.11.15-.2,0-.11-.04-.18-.11-.23-.08-.04-.19-.06-.33-.06-.16,0-.28.04-.35.12-.05.06-.08.14-.1.24h-.67c.01-.23.08-.42.2-.57Zm.52,1.87c.06.05.15.08.24.08.15,0,.29-.04.41-.13.13-.09.19-.25.2-.48v-.26s-.09.05-.13.07c-.04.02-.11.03-.18.05l-.16.03c-.15.03-.25.06-.31.1-.11.06-.16.16-.16.3,0,.12.03.2.1.26Z"/>
    <path class="cls-16" d="m83.17,50.9v.52h-.33c-.33.02-.55-.03-.67-.16-.08-.08-.12-.2-.12-.37v-1.64h-.37v-.5h.37v-.74h.69v.74h.43v.5h-.43v1.41c0,.11.01.18.04.2.03.03.11.04.25.04.02,0,.04,0,.07,0,.02,0,.05,0,.07,0Z"/>
    <path class="cls-16" d="m84.33,47.77v.64h-.71v-.64h.71Zm0,.96v2.66h-.71v-2.66h.71Z"/>
    <path class="cls-16" d="m87.22,49.07c.22.28.34.61.34,1s-.11.72-.34,1c-.22.28-.57.42-1.02.42s-.8-.14-1.02-.42c-.22-.28-.34-.61-.34-1s.11-.72.34-1,.57-.42,1.02-.42.8.14,1.02.42Zm-1.03.17c-.2,0-.36.07-.47.22-.11.14-.17.35-.17.62s.05.47.17.62c.11.15.27.22.47.22s.36-.07.47-.22.16-.35.16-.62-.05-.47-.16-.62c-.11-.14-.27-.22-.47-.22Z"/>
    <path class="cls-16" d="m89.31,49.25c-.24,0-.4.1-.49.3-.05.11-.07.24-.07.41v1.44h-.69v-2.66h.67v.39c.09-.14.17-.24.25-.3.14-.11.32-.16.54-.16.27,0,.5.07.68.22.17.14.26.38.26.72v1.79h-.71v-1.62c0-.14-.02-.25-.06-.32-.07-.14-.2-.21-.39-.21Z"/>
  </g>
  <g>
    <path class="cls-16" d="m29.35,70.62v.19h-.32v.89h-.23v-.89h-.32v-.19h.87Z"/>
    <path class="cls-16" d="m29.65,70.61v.19h-.21v-.19h.21Zm0,.29v.8h-.21v-.8h.21Z"/>
    <path class="cls-16" d="m30.22,71.55v.16h-.1c-.1,0-.17,0-.2-.05-.02-.02-.04-.06-.04-.11v-.49h-.11v-.15h.11v-.22h.21v.22h.13v.15h-.13v.42s0,.05.01.06c0,0,.03.01.08.01h.02s.01,0,.02,0Z"/>
    <path class="cls-16" d="m30.87,71.58s0,0-.01.02-.02.02-.03.03c-.03.03-.06.05-.09.06-.03.01-.07.02-.11.02-.12,0-.2-.04-.24-.13-.02-.05-.03-.12-.03-.21v-.48h.21v.48s0,.08.02.1c.02.04.06.06.11.06.07,0,.12-.03.15-.09.01-.03.02-.07.02-.12v-.43h.21v.8h-.2v-.11Z"/>
    <path class="cls-16" d="m31.27,70.62h.21v1.08h-.21v-1.08Z"/>
    <path class="cls-16" d="m31.72,70.99c.06-.07.15-.11.28-.11.09,0,.17.02.23.05.07.04.1.1.1.2v.37s0,.06,0,.09c0,.03,0,.05.01.06s.02.02.03.02v.03h-.23s-.01-.03-.01-.05,0-.03,0-.05c-.03.03-.06.06-.1.08-.04.03-.1.04-.15.04-.07,0-.13-.02-.18-.06-.05-.04-.07-.1-.07-.18,0-.1.04-.17.11-.21.04-.02.1-.04.18-.05h.07s.07-.02.08-.03c.03-.01.04-.03.04-.06,0-.03-.01-.06-.03-.07-.02-.01-.06-.02-.1-.02-.05,0-.08.01-.1.04-.01.02-.02.04-.03.07h-.2c0-.07.02-.13.06-.17Zm.16.56s.04.02.07.02c.04,0,.09-.01.12-.04.04-.03.06-.07.06-.14v-.08s-.03.02-.04.02c-.01,0-.03,0-.06.01h-.05s-.08.03-.09.04c-.03.02-.05.05-.05.09,0,.04,0,.06.03.08Z"/>
    <path class="cls-16" d="m32.74,70.61v.19h-.21v-.19h.21Zm0,.29v.8h-.21v-.8h.21Z"/>
    <path class="cls-16" d="m33.34,71.09c-.08,0-.14.03-.17.08-.02.03-.02.08-.02.14v.38h-.21v-.8h.2v.14c.03-.05.06-.09.08-.11.04-.03.09-.05.15-.05,0,0,0,0,0,0,0,0,0,0,.02,0v.21s-.02,0-.04,0c0,0-.02,0-.02,0Z"/>
    <path class="cls-16" d="m34.21,71.46s-.03.1-.07.14c-.07.08-.16.12-.29.12-.1,0-.19-.03-.27-.1s-.12-.17-.12-.32c0-.14.04-.24.11-.32.07-.07.16-.11.27-.11.07,0,.13.01.18.04s.1.06.13.12c.03.05.05.1.06.16,0,.04,0,.09,0,.16h-.55c0,.08.03.14.08.17.03.02.06.03.1.03.04,0,.08-.01.1-.04.01-.01.03-.03.04-.05h.21Zm-.21-.24c0-.06-.02-.1-.05-.13-.03-.03-.07-.04-.11-.04-.05,0-.09.02-.11.05-.03.03-.04.07-.05.12h.32Z"/>
    <path class="cls-16" d="m35.5,70.62v1.08h-.2v-.11s-.06.08-.1.1-.09.03-.14.03c-.09,0-.17-.04-.24-.11-.06-.08-.1-.17-.1-.29,0-.14.03-.24.09-.32.06-.08.15-.12.25-.12.05,0,.09.01.13.03.04.02.07.05.09.09v-.38h.21Zm-.56.68c0,.07.01.13.04.18.03.04.07.07.13.07s.1-.02.13-.07c.03-.04.05-.1.05-.17,0-.1-.02-.17-.07-.21-.03-.03-.07-.04-.11-.04-.06,0-.11.02-.13.07-.03.05-.04.1-.04.17Z"/>
    <path class="cls-16" d="m36.2,71.58s0,0-.01.02-.02.02-.03.03c-.03.03-.06.05-.09.06-.03.01-.07.02-.11.02-.12,0-.2-.04-.24-.13-.02-.05-.03-.12-.03-.21v-.48h.21v.48s0,.08.02.1c.02.04.06.06.11.06.07,0,.12-.03.15-.09.01-.03.02-.07.02-.12v-.43h.21v.8h-.2v-.11Z"/>
    <path class="cls-16" d="m37.71,71.19h-.21s-.01-.06-.03-.08c-.02-.03-.06-.05-.11-.05-.07,0-.12.03-.14.1-.01.04-.02.09-.02.15s0,.11.02.14c.02.07.07.1.14.1.05,0,.08-.01.1-.04s.03-.06.04-.1h.21c0,.06-.03.12-.07.18-.07.09-.16.14-.29.14s-.22-.04-.28-.11-.09-.18-.09-.3c0-.14.03-.24.1-.32s.16-.11.28-.11c.1,0,.18.02.25.07.06.04.1.12.11.24Z"/>
    <path class="cls-16" d="m38.52,71c.07.08.1.18.1.3s-.03.22-.1.3c-.07.08-.17.12-.31.12s-.24-.04-.31-.12c-.07-.08-.1-.18-.1-.3s.03-.22.1-.3.17-.13.31-.13.24.04.31.13Zm-.31.05c-.06,0-.11.02-.14.06-.03.04-.05.1-.05.19s.02.14.05.19c.03.04.08.06.14.06s.11-.02.14-.06.05-.1.05-.19-.02-.14-.05-.19c-.03-.04-.08-.06-.14-.06Z"/>
    <path class="cls-16" d="m39.15,71.05c-.07,0-.12.03-.15.09-.01.03-.02.07-.02.12v.43h-.21v-.8h.2v.12s.05-.07.08-.09c.04-.03.1-.05.16-.05.08,0,.15.02.2.06.05.04.08.11.08.21v.54h-.21v-.49s0-.07-.02-.1c-.02-.04-.06-.06-.12-.06Z"/>
    <path class="cls-16" d="m40.05,71.55v.16h-.1c-.1,0-.17,0-.2-.05-.02-.02-.04-.06-.04-.11v-.49h-.11v-.15h.11v-.22h.21v.22h.13v.15h-.13v.42s0,.05.01.06c0,0,.03.01.08.01h.02s.01,0,.02,0Z"/>
    <path class="cls-16" d="m40.59,71.09c-.08,0-.14.03-.17.08-.02.03-.02.08-.02.14v.38h-.21v-.8h.2v.14c.03-.05.06-.09.08-.11.04-.03.09-.05.15-.05,0,0,0,0,0,0,0,0,0,0,.02,0v.21s-.02,0-.04,0c0,0-.02,0-.02,0Z"/>
    <path class="cls-16" d="m40.8,70.99c.06-.07.15-.11.28-.11.09,0,.17.02.23.05.07.04.1.1.1.2v.37s0,.06,0,.09c0,.03,0,.05.01.06s.02.02.03.02v.03h-.23s-.01-.03-.01-.05,0-.03,0-.05c-.03.03-.06.06-.1.08-.04.03-.1.04-.15.04-.07,0-.13-.02-.18-.06-.05-.04-.07-.1-.07-.18,0-.1.04-.17.11-.21.04-.02.1-.04.18-.05h.07s.07-.02.08-.03c.03-.01.04-.03.04-.06,0-.03-.01-.06-.03-.07-.02-.01-.06-.02-.1-.02-.05,0-.08.01-.1.04-.01.02-.02.04-.03.07h-.2c0-.07.02-.13.06-.17Zm.16.56s.04.02.07.02c.04,0,.09-.01.12-.04.04-.03.06-.07.06-.14v-.08s-.03.02-.04.02c-.01,0-.03,0-.06.01h-.05s-.08.03-.09.04c-.03.02-.05.05-.05.09,0,.04,0,.06.03.08Z"/>
    <path class="cls-16" d="m41.97,71.55v.16h-.1c-.1,0-.17,0-.2-.05-.02-.02-.04-.06-.04-.11v-.49h-.11v-.15h.11v-.22h.21v.22h.13v.15h-.13v.42s0,.05.01.06c0,0,.03.01.08.01h.02s.01,0,.02,0Z"/>
  </g>
  <g>
    <path class="cls-16" d="m28.48,74.75h.24l.23.82.24-.82h.23l-.37,1.08h-.21l-.37-1.08Z"/>
    <path class="cls-16" d="m30.1,75.14c.07.08.1.18.1.3s-.03.22-.1.3c-.07.08-.17.12-.31.12s-.24-.04-.31-.12c-.07-.08-.1-.18-.1-.3s.03-.22.1-.3.17-.13.31-.13.24.04.31.13Zm-.31.05c-.06,0-.11.02-.14.06-.03.04-.05.1-.05.19s.02.14.05.19c.03.04.08.06.14.06s.11-.02.14-.06.05-.1.05-.19-.02-.14-.05-.19c-.03-.04-.08-.06-.14-.06Z"/>
    <path class="cls-16" d="m30.72,75.69v.16h-.1c-.1,0-.17,0-.2-.05-.02-.02-.04-.06-.04-.11v-.49h-.11v-.15h.11v-.22h.21v.22h.13v.15h-.13v.42s0,.05.01.06c0,0,.03.01.08.01h.02s.01,0,.02,0Z"/>
    <path class="cls-16" d="m31.26,75.23c-.08,0-.14.03-.17.08-.02.03-.02.08-.02.14v.38h-.21v-.8h.2v.14c.03-.05.06-.09.08-.11.04-.03.09-.05.15-.05,0,0,0,0,0,0,0,0,0,0,.02,0v.21s-.02,0-.04,0c0,0-.02,0-.02,0Z"/>
    <path class="cls-16" d="m32.12,75.6s-.03.1-.07.14c-.07.08-.16.12-.29.12-.1,0-.19-.03-.27-.1s-.12-.17-.12-.32c0-.14.04-.24.11-.32.07-.07.16-.11.27-.11.07,0,.13.01.18.04s.1.06.13.12c.03.05.05.1.06.16,0,.04,0,.09,0,.16h-.55c0,.08.03.14.08.17.03.02.06.03.1.03.04,0,.08-.01.1-.04.01-.01.03-.03.04-.05h.21Zm-.21-.24c0-.06-.02-.1-.05-.13-.03-.03-.07-.04-.11-.04-.05,0-.09.02-.11.05-.03.03-.04.07-.05.12h.32Z"/>
    <path class="cls-16" d="m33.38,75.32h-.21s-.01-.06-.03-.08c-.02-.03-.06-.05-.11-.05-.07,0-.12.03-.14.1-.01.04-.02.09-.02.15s0,.11.02.14c.02.07.07.1.14.1.05,0,.08-.01.1-.04s.03-.06.04-.1h.21c0,.06-.03.12-.07.18-.07.09-.16.14-.29.14s-.22-.04-.28-.11-.09-.18-.09-.3c0-.14.03-.24.1-.32s.16-.11.28-.11c.1,0,.18.02.25.07.06.04.1.12.11.24Z"/>
    <path class="cls-16" d="m34.19,75.14c.07.08.1.18.1.3s-.03.22-.1.3c-.07.08-.17.12-.31.12s-.24-.04-.31-.12c-.07-.08-.1-.18-.1-.3s.03-.22.1-.3.17-.13.31-.13.24.04.31.13Zm-.31.05c-.06,0-.11.02-.14.06-.03.04-.05.1-.05.19s.02.14.05.19c.03.04.08.06.14.06s.11-.02.14-.06.05-.1.05-.19-.02-.14-.05-.19c-.03-.04-.08-.06-.14-.06Z"/>
    <path class="cls-16" d="m34.81,75.19c-.07,0-.12.03-.15.09-.01.03-.02.07-.02.12v.43h-.21v-.8h.2v.12s.05-.07.08-.09c.04-.03.1-.05.16-.05.08,0,.15.02.2.06.05.04.08.11.08.21v.54h-.21v-.49s0-.07-.02-.1c-.02-.04-.06-.06-.12-.06Z"/>
    <path class="cls-16" d="m35.72,75.69v.16h-.1c-.1,0-.17,0-.2-.05-.02-.02-.04-.06-.04-.11v-.49h-.11v-.15h.11v-.22h.21v.22h.13v.15h-.13v.42s0,.05.01.06c0,0,.03.01.08.01h.02s.01,0,.02,0Z"/>
    <path class="cls-16" d="m36.26,75.23c-.08,0-.14.03-.17.08-.02.03-.02.08-.02.14v.38h-.21v-.8h.2v.14c.03-.05.06-.09.08-.11.04-.03.09-.05.15-.05,0,0,0,0,0,0,0,0,0,0,.02,0v.21s-.02,0-.04,0c0,0-.02,0-.02,0Z"/>
    <path class="cls-16" d="m36.47,75.12c.06-.07.15-.11.28-.11.09,0,.17.02.23.05.07.04.1.1.1.2v.37s0,.06,0,.09c0,.03,0,.05.01.06s.02.02.03.02v.03h-.23s-.01-.03-.01-.05c0-.01,0-.03,0-.05-.03.03-.06.06-.1.08-.04.03-.1.04-.15.04-.07,0-.13-.02-.18-.06-.05-.04-.07-.1-.07-.18,0-.1.04-.17.11-.21.04-.02.1-.04.18-.05h.07s.07-.02.08-.03c.03-.01.04-.03.04-.06,0-.03-.01-.06-.03-.07-.02-.01-.06-.02-.1-.02-.05,0-.08.01-.1.04-.01.02-.02.04-.03.07h-.2c0-.07.02-.13.06-.17Zm.16.56s.04.02.07.02c.04,0,.09-.01.12-.04.04-.03.06-.07.06-.14v-.08s-.03.02-.04.02c-.01,0-.03,0-.06.01h-.05s-.08.03-.09.04c-.03.02-.05.05-.05.09,0,.04,0,.06.03.08Z"/>
    <path class="cls-16" d="m37.64,75.69v.16h-.1c-.1,0-.17,0-.2-.05-.02-.02-.04-.06-.04-.11v-.49h-.11v-.15h.11v-.22h.21v.22h.13v.15h-.13v.42s0,.05.01.06c0,0,.03.01.08.01h.02s.01,0,.02,0Z"/>
  </g>
  <rect class="cls-17" x="28.48" y="16" width="5.66" height="1"/>
  <rect class="cls-18" x="34.57" y="16" width="11.31" height="1"/>
  <rect class="cls-17" x="28.48" y="17.85" width="9.8" height="1"/>
  <rect class="cls-18" x="28.48" y="19.7" width="17.4" height="1"/>
  <path class="cls-10" d="m47.04,61.44v33.04h-19.84v-29.95c0-1.71,1.78-3.09,3.98-3.09h15.86Z"/>
  <g>
    <polygon class="cls-1" points="122.58 94.03 92.85 94.03 107.72 83.97 122.58 94.03"/>
    <rect class="cls-2" x="92.85" y="94.03" width="29.72" height="21.66"/>
    <rect class="cls-3" x="105.15" y="107.25" width="5.13" height="8.43"/>
    <g>
      <rect class="cls-6" x="98.17" y="98.48" width="3.99" height="5.8"/>
      <rect class="cls-6" x="113.27" y="98.48" width="3.99" height="5.8"/>
    </g>
  </g>
  <rect class="cls-4" x="-270.12" y="-282.18" width="1509.9" height="999.05"/>
</svg>