<?xml version="1.0" encoding="UTF-8"?>
<svg id="Calque_1" data-name="Calque 1" xmlns="http://www.w3.org/2000/svg" viewBox="0 0 128 128">
  <defs>
    <style>
      .cls-1 {
        fill: #87ccf3;
      }

      .cls-1, .cls-2, .cls-3, .cls-4, .cls-5, .cls-6, .cls-7 {
        stroke: #000;
      }

      .cls-1, .cls-2, .cls-3, .cls-4, .cls-5, .cls-8 {
        stroke-linecap: round;
        stroke-linejoin: round;
      }

      .cls-2 {
        fill: #b2f0e9;
      }

      .cls-3, .cls-9 {
        fill: #ff6d75;
      }

      .cls-4, .cls-6 {
        fill: #fff;
      }

      .cls-5, .cls-8, .cls-7, .cls-10 {
        fill: none;
      }

      .cls-11 {
        fill: #d6d6d6;
      }

      .cls-12 {
        fill: #1d1d1b;
      }

      .cls-6, .cls-7, .cls-10 {
        stroke-miterlimit: 10;
      }

      .cls-8 {
        stroke: #fff;
        stroke-width: 8px;
      }

      .cls-10 {
        stroke: #d6d6d6;
      }
    </style>
  </defs>
  <rect class="cls-6" x="22.84" y="5.21" width="82.31" height="117.59"/>
  <rect class="cls-12" x="65.97" y="24.18" width="22" height="1"/>
  <rect class="cls-12" x="65.97" y="26.03" width="28.36" height="1"/>
  <g>
    <path d="m28.32,11.35h.33l.6,1.05v-1.05h.29v1.51h-.32l-.62-1.07v1.07h-.29v-1.51Z"/>
    <path d="m31.01,12.73c-.11.12-.28.18-.5.18s-.38-.06-.5-.18c-.15-.14-.23-.35-.23-.62s.08-.48.23-.62c.11-.12.28-.18.5-.18s.38.06.5.18c.15.14.23.35.23.62s-.08.48-.23.62Zm-.2-.23c.07-.09.11-.22.11-.39s-.04-.3-.11-.39c-.07-.09-.17-.14-.3-.14s-.23.05-.3.14c-.07.09-.11.22-.11.39s.04.3.11.39c.07.09.17.14.3.14s.22-.05.3-.14Z"/>
    <path d="m31.47,11.35h.32v.93c0,.1.01.18.04.23.04.08.12.13.25.13s.21-.04.25-.13c.02-.05.04-.12.04-.23v-.93h.32v.93c0,.16-.02.29-.07.38-.09.16-.27.25-.53.25s-.44-.08-.53-.25c-.05-.09-.07-.21-.07-.38v-.93Z"/>
    <path d="m33.22,12.4c0,.07.03.12.06.15.05.06.14.09.27.09.08,0,.14,0,.19-.02.09-.03.14-.09.14-.18,0-.05-.02-.09-.07-.12-.04-.03-.11-.05-.21-.07l-.16-.04c-.16-.04-.27-.07-.33-.12-.1-.07-.15-.18-.15-.33,0-.14.05-.25.15-.34.1-.09.25-.13.44-.13.16,0,.3.04.41.13s.17.21.18.37h-.3c0-.09-.05-.16-.12-.19-.05-.03-.11-.04-.19-.04-.08,0-.15.02-.2.05s-.07.08-.07.14c0,.05.02.09.07.12.03.02.1.04.2.06l.27.06c.12.03.2.06.26.11.09.07.14.17.14.31s-.05.25-.16.34c-.11.09-.26.14-.45.14s-.36-.04-.47-.13c-.11-.09-.17-.21-.17-.37h.3Z"/>
    <path d="m35.37,11.51c.12-.12.28-.19.46-.19.25,0,.44.08.55.25.06.09.1.19.1.28h-.32c-.02-.07-.05-.13-.08-.16-.06-.07-.14-.1-.25-.1s-.2.05-.27.14c-.06.09-.1.22-.1.39s.03.3.1.38c.07.08.16.13.26.13s.19-.04.25-.11c.03-.04.06-.1.08-.18h.31c-.03.16-.1.3-.21.4s-.25.15-.43.15c-.21,0-.38-.07-.51-.21-.12-.14-.18-.33-.18-.58,0-.26.07-.47.21-.61Z"/>
    <path d="m37.91,12.73c-.11.12-.28.18-.5.18s-.38-.06-.5-.18c-.15-.14-.23-.35-.23-.62s.08-.48.23-.62c.11-.12.28-.18.5-.18s.38.06.5.18c.15.14.23.35.23.62s-.08.48-.23.62Zm-.2-.23c.07-.09.11-.22.11-.39s-.04-.3-.11-.39c-.07-.09-.17-.14-.3-.14s-.23.05-.3.14c-.07.09-.11.22-.11.39s.04.3.11.39c.07.09.17.14.3.14s.22-.05.3-.14Z"/>
    <path d="m38.37,11.35h.33l.6,1.05v-1.05h.29v1.51h-.32l-.62-1.07v1.07h-.29v-1.51Z"/>
    <path d="m40.99,11.35v.27h-.45v1.24h-.32v-1.24h-.45v-.27h1.22Z"/>
    <path d="m41.45,11.35h.36l.53,1.51h-.34l-.1-.31h-.56l-.1.31h-.33l.54-1.51Zm-.02.94h.39l-.19-.59-.2.59Z"/>
    <path d="m42.68,11.51c.12-.12.28-.19.46-.19.25,0,.44.08.55.25.06.09.1.19.1.28h-.32c-.02-.07-.05-.13-.08-.16-.06-.07-.14-.1-.25-.1s-.2.05-.27.14c-.06.09-.1.22-.1.39s.03.3.1.38c.07.08.16.13.26.13s.19-.04.25-.11c.03-.04.06-.1.08-.18h.31c-.03.16-.1.3-.21.4s-.25.15-.43.15c-.21,0-.38-.07-.51-.21-.12-.14-.18-.33-.18-.58,0-.26.07-.47.21-.61Z"/>
    <path d="m45.15,11.35v.27h-.45v1.24h-.32v-1.24h-.45v-.27h1.22Z"/>
    <path d="m46.45,11.62h-.8v.32h.73v.26h-.73v.39h.84v.27h-1.15v-1.51h1.11v.27Z"/>
    <path d="m47.71,11.39c.06.02.1.06.14.11.03.04.06.08.08.13.02.05.03.1.03.16,0,.07-.02.14-.05.21-.04.07-.1.12-.18.15.07.03.12.07.15.12.03.05.04.13.04.24v.1c0,.07,0,.12,0,.14,0,.04.03.07.06.09v.04h-.35s-.02-.06-.02-.08c0-.04-.01-.09-.01-.13v-.14c0-.1-.02-.16-.05-.19-.03-.03-.09-.05-.18-.05h-.31v.59h-.31v-1.51h.72c.1,0,.18.01.24.04Zm-.65.22v.41h.34c.07,0,.12,0,.15-.02.06-.03.09-.09.09-.17,0-.09-.03-.15-.09-.18-.03-.02-.08-.03-.15-.03h-.35Z"/>
  </g>
  <rect class="cls-12" x="65.97" y="27.88" width="12.81" height="1"/>
  <rect class="cls-12" x="56.24" y="56" width="42.8" height=".73"/>
  <rect class="cls-12" x="56.24" y="57.33" width="42.8" height=".73"/>
  <rect class="cls-12" x="56.24" y="58.65" width="42.8" height=".73"/>
  <rect class="cls-12" x="56.24" y="59.98" width="42.8" height=".73"/>
  <rect class="cls-12" x="56.24" y="61.3" width="42.8" height=".73"/>
  <rect class="cls-12" x="56.24" y="62.63" width="42.8" height=".73"/>
  <rect class="cls-12" x="56.24" y="63.95" width="42.8" height=".73"/>
  <rect class="cls-12" x="56.24" y="65.28" width="42.8" height=".73"/>
  <rect class="cls-12" x="81.92" y="69.88" width="17.1" height=".73"/>
  <rect class="cls-12" x="81.92" y="71.19" width="17.1" height=".73"/>
  <g>
    <path class="cls-9" d="m60.34,50.11h-2.19l-.41,1.22h-1.3l2.12-5.94h1.4l2.11,5.94h-1.35l-.38-1.22Zm-.35-1.02l-.74-2.34-.77,2.34h1.51Z"/>
    <path class="cls-9" d="m64.75,50.52v.86l-.54.02c-.54.02-.91-.08-1.11-.28-.13-.13-.19-.33-.19-.61v-2.71h-.61v-.82h.61v-1.23h1.14v1.23h.71v.82h-.71v2.32c0,.18.02.29.07.34.05.05.19.07.42.07.03,0,.07,0,.11,0,.04,0,.08,0,.11,0Z"/>
    <path class="cls-9" d="m67.5,50.52v.86l-.54.02c-.54.02-.91-.08-1.11-.28-.13-.13-.19-.33-.19-.61v-2.71h-.61v-.82h.61v-1.23h1.14v1.23h.71v.82h-.71v2.32c0,.18.02.29.07.34.05.05.19.07.42.07.03,0,.07,0,.11,0,.04,0,.08,0,.11,0Z"/>
    <path class="cls-9" d="m72,50.04c-.03.26-.17.53-.41.79-.38.43-.9.64-1.58.64-.56,0-1.05-.18-1.48-.54-.43-.36-.64-.95-.64-1.76,0-.76.19-1.34.58-1.75.39-.41.89-.61,1.5-.61.37,0,.7.07.99.21s.53.35.73.65c.17.26.28.56.33.91.03.2.04.49.04.87h-3.01c.02.44.15.75.42.93.16.11.35.17.57.17.24,0,.43-.07.58-.2.08-.07.15-.17.21-.3h1.17Zm-1.14-1.35c-.02-.3-.11-.53-.28-.69-.17-.16-.37-.24-.62-.24-.27,0-.47.08-.62.25-.15.17-.24.39-.28.68h1.79Z"/>
    <path class="cls-9" d="m75.86,47.14c.34.22.54.6.59,1.14h-1.15c-.02-.15-.06-.26-.13-.35-.13-.16-.34-.23-.65-.23-.25,0-.43.04-.53.12-.11.08-.16.17-.16.27,0,.13.06.23.17.29.11.06.51.17,1.2.32.46.11.8.27,1.03.49.23.22.34.5.34.83,0,.44-.16.79-.49,1.07-.32.28-.82.41-1.5.41s-1.2-.15-1.53-.44c-.33-.29-.49-.66-.49-1.11h1.17c.02.2.08.35.16.44.14.15.41.23.79.23.23,0,.4-.03.54-.1.13-.07.2-.17.2-.3s-.05-.23-.16-.29-.51-.18-1.2-.35c-.5-.12-.85-.28-1.05-.46-.2-.18-.31-.45-.31-.79,0-.41.16-.75.48-1.05.32-.29.77-.44,1.34-.44.55,0,1,.11,1.34.33Z"/>
    <path class="cls-9" d="m79.43,50.52v.86l-.54.02c-.54.02-.91-.08-1.11-.28-.13-.13-.19-.33-.19-.61v-2.71h-.61v-.82h.61v-1.23h1.14v1.23h.71v.82h-.71v2.32c0,.18.02.29.07.34.05.05.19.07.42.07.03,0,.07,0,.11,0,.04,0,.08,0,.11,0Z"/>
    <path class="cls-9" d="m80.34,47.41c.3-.39.83-.58,1.56-.58.48,0,.91.1,1.28.29s.56.55.56,1.08v2.02c0,.14,0,.31,0,.51,0,.15.03.25.07.31s.09.1.17.13v.17h-1.25c-.03-.09-.06-.17-.07-.25s-.02-.17-.03-.27c-.16.17-.34.32-.55.44-.25.14-.53.21-.84.21-.4,0-.73-.11-.99-.34-.26-.23-.39-.55-.39-.97,0-.54.21-.93.63-1.17.23-.13.56-.23,1.01-.28l.39-.05c.21-.03.36-.06.46-.1.16-.07.25-.18.25-.33,0-.18-.06-.3-.19-.37-.12-.07-.31-.1-.55-.1-.27,0-.46.07-.58.2-.08.1-.13.23-.16.4h-1.11c.02-.38.13-.7.32-.95Zm.85,3.09c.11.09.24.13.4.13.25,0,.48-.07.68-.22.21-.15.32-.41.32-.79v-.43c-.07.05-.15.08-.22.11-.07.03-.18.05-.3.08l-.26.05c-.24.04-.42.1-.52.16-.18.1-.27.27-.27.49,0,.2.05.34.17.42Z"/>
    <path class="cls-9" d="m86.78,50.52v.86l-.54.02c-.54.02-.91-.08-1.11-.28-.13-.13-.19-.33-.19-.61v-2.71h-.61v-.82h.61v-1.23h1.14v1.23h.71v.82h-.71v2.32c0,.18.02.29.07.34.05.05.19.07.42.07.03,0,.07,0,.11,0,.04,0,.08,0,.11,0Z"/>
    <path class="cls-9" d="m88.7,45.35v1.06h-1.17v-1.06h1.17Zm0,1.58v4.4h-1.17v-4.4h1.17Z"/>
    <path class="cls-9" d="m93.48,47.49c.37.47.56,1.01.56,1.65s-.19,1.2-.56,1.66c-.37.46-.93.69-1.69.69s-1.32-.23-1.69-.69c-.37-.46-.56-1.01-.56-1.66s.19-1.18.56-1.65.93-.7,1.69-.7,1.32.23,1.69.7Zm-1.69.27c-.34,0-.6.12-.78.36-.18.24-.27.58-.27,1.02s.09.78.27,1.02c.18.24.44.36.78.36s.59-.12.77-.36.27-.58.27-1.02-.09-.78-.27-1.02c-.18-.24-.44-.36-.77-.36Z"/>
    <path class="cls-9" d="m96.93,47.79c-.39,0-.66.17-.8.5-.08.18-.11.4-.11.67v2.38h-1.15v-4.39h1.11v.64c.15-.23.29-.39.42-.49.24-.18.54-.27.9-.27.45,0,.83.12,1.12.36.29.24.43.63.43,1.18v2.96h-1.18v-2.67c0-.23-.03-.41-.09-.53-.11-.23-.33-.34-.65-.34Z"/>
  </g>
  <rect class="cls-11" x="28.48" y="16" width="5.66" height="1"/>
  <rect class="cls-11" x="34.57" y="16" width="11.31" height="1"/>
  <rect class="cls-11" x="28.48" y="17.85" width="9.8" height="1"/>
  <rect class="cls-11" x="28.48" y="19.7" width="17.4" height="1"/>
  <g>
    <polygon class="cls-3" points="122.58 94.03 92.85 94.03 107.72 83.97 122.58 94.03"/>
    <rect class="cls-4" x="92.85" y="94.03" width="29.72" height="21.66"/>
    <rect class="cls-5" x="105.15" y="107.25" width="5.13" height="8.43"/>
    <g>
      <rect class="cls-7" x="98.17" y="98.48" width="3.99" height="5.8"/>
      <rect class="cls-7" x="113.27" y="98.48" width="3.99" height="5.8"/>
    </g>
  </g>
  <circle class="cls-2" cx="48.14" cy="92.57" r="17.21"/>
  <line class="cls-10" x1="53" y1="55.43" x2="53" y2="67.04"/>
  <path class="cls-1" d="m54.62,94.8c0,3.58-2.9,6.48-6.48,6.48s-6.48-2.9-6.48-6.48,6.48-10.95,6.48-10.95c0,0,6.48,7.37,6.48,10.95Z"/>
  <rect class="cls-8" x="-91.75" y="-282.18" width="1509.9" height="999.05"/>
</svg>