<?xml version="1.0" encoding="UTF-8"?>
<svg id="Calque_1" data-name="Calque 1" xmlns="http://www.w3.org/2000/svg" viewBox="0 0 200.13 128.13">
  <defs>
    <style>
      .cls-1 {
        fill: #d6d6d6;
      }

      .cls-1, .cls-2, .cls-3, .cls-4, .cls-5, .cls-6 {
        stroke: #000;
      }

      .cls-1, .cls-2, .cls-3, .cls-4, .cls-5, .cls-6, .cls-7 {
        stroke-linecap: round;
        stroke-linejoin: round;
      }

      .cls-2 {
        fill: #afaff9;
      }

      .cls-3 {
        fill: #87f3b9;
      }

      .cls-4 {
        fill: #87ccf3;
      }

      .cls-5 {
        fill: #fff;
      }

      .cls-6, .cls-7 {
        fill: none;
      }

      .cls-7 {
        stroke: #fff;
        stroke-width: 8px;
      }
    </style>
  </defs>
  <path class="cls-1" d="m112.98,123.71c-.62,1.74-5.02,1.22-5.56-.91-.37-1.4.02-1.69,0-6h4.61c.23,1.08.45,2.08.6,2.67.43,1.75.98,2.49.35,4.24Z"/>
  <path class="cls-5" d="m111.36,110c-.05,1.62.01,3.18.26,4.62.12.68.26,1.45.41,2.18h-4.61c0-1.08-.18-3.67-.43-6.76-.39-4.71-.98-10.6-1.48-14.14-.82-5.84.05-11.24.15-12.75.1-1.53,7.11-3.52,7.23-.78.12,2.76-.32,3.71-.07,11.62.14,4.32-1.3,10.5-1.46,16.01Z"/>
  <path class="cls-4" d="m105.46,49.67s-.04.08-.06.11c-.03,0-.05,0-.05,0-5.56,9.01-1.65,26.2-.75,34.3.32,2.9-.4,22.03.65,25.39.8.34,1.71.59,2.49.72,0-.04-.01-.08-.02-.13,3.15.56,5.28-.62,5.28-.62,0,0,.59-31.47.7-27.26.01.54,1.51-21.14,1.86-28.99.14-3-10.1-3.53-10.1-3.53Z"/>
  <path class="cls-1" d="m120.18,122.8c-.55,2.13-5.67,2.07-5.91.23-.28-2.2-.25-2.3.3-4.6.13-.54.27-1.03.42-1.63l4.83-.04c.28,4.31.74,4.65.37,6.04Z"/>
  <path class="cls-5" d="m123.11,95.91c-.52,3.64-1.76,9.36-2.57,14.07-.49,2.86-.82,5.34-.74,6.78l-4.83.04c.13-.51.27-1.11.39-1.88.27-1.52.42-3.21.48-4.98.25-5.57-.23-11.9-.1-16.16.25-7.92.53-7.71.66-10.47.11-2.74,6.03-.93,6.14.59.1,1.52,1.39,6.16.55,12Z"/>
  <path class="cls-4" d="m123.93,49.66s-9.16.45-9.16,3.46c0,2.39.07,6.48.16,10.84-.05-.12-.11-.23-.16-.33,0,0,.12,1.98.26,4.8.16,6.96.33,13.41.3,13.74-.16,2.17-.29,4.17-.42,6.03-.51,6.27-1.04,19.87-1.05,20.23-.02.63,1.02,1.2,2.01,1.52,1.07.43,3.01.6,6.55-.47,2.24-11.16.6-20.26,1.5-26.57.9-6.31,5.82-21.88,0-33.26Z"/>
  <path class="cls-2" d="m88.14,39.88c-.42.65-.76,1.23-.81,1.8,0,.05,0,.1.02.13.58,1.03.79.95.79.95l3.75,1.32s.93-1.4,2.05-3.15c-.61-.37-1.14-.67-1.47-.82-1.36-.61-4.33-.22-4.33-.22Zm37.6,11.28c-.38-1.21-.86-2.41-1.43-3.34l-2.06-3.52c-1.01-1.62-1.84-2.79-2.32-4.11-.27-.74-.45-1.51-.56-2.32.25-.01.55-.07.93-.19l5.71-2.65c.45-.25.75-.4.75-.4,0,0-1.13-2.48-3.04-7.18-1.42-3.51-3.18-5.21-4.55-5.54l-6.48-1.96c-.8,5.8-3.36,6.64-6.61,7.13-4.33.64-5.45-1.88-5.29-4.85l-4.39,2.67c-1.11.78-2.59,2.44-3.6,4.59-1.13,2.4-3.6,6.5-3.6,6.5l.66.35,5.13,2.91c.39.23.59.35.59.35l3.31-4.22c.23.59.49,1.11.74,1.51,1.09,1.74,1.96,4.01,2.43,6.06.04.18.09.37.12.54.01.07.03.14.04.2.12.65.19,1.27.22,1.81v.04c.01.27.01.52,0,.76,0,.1-.01.2-.03.29-.01.19-.04.37-.09.53,0,.03-.01.06-.02.1-1.58,5.61-1.77,14.63-1.61,14.66,1.59.33,3.38.48,5.26.49l2.45-.06c3.15-.16,6.44-.64,9.37-1.27.8-.17,1.57-.42,2.32-.72l7.68-3.06c-.67-2.42-1.36-4.4-2.04-6.11Z"/>
  <path class="cls-5" d="m128.8,44.53c-.18,1.13-2.77,3.56-4.24,3.34-.09-.01-.17-.03-.25-.05l-2.06-3.52c.11-.85.17-1.65.17-1.81,0-.18-1.08-2.41-2.13-4.82l5.71-2.65c1.6,4.06,3.03,8.04,2.79,9.52Z"/>
  <path class="cls-5" d="m94.98,39.24c-.35.58-.71,1.15-1.04,1.68-.61-.37-1.14-.67-1.47-.82-1.36-.61-4.33-.22-4.33-.22-.42.65-.76,1.23-.81,1.8-.07-.65.98-2.78,2.53-5.35l5.13,2.91Z"/>
  <g>
    <path class="cls-1" d="m43.57,94.75c.24.53.69.84,1.01.7l47.28-21.53c.32-.14.38-.69.14-1.22h0c-.24-.53-.7-.84-1.01-.69l-47.28,21.53c-.32.15-.38.69-.14,1.22h0Z"/>
    <path class="cls-1" d="m42.19,116.51c0,.78.64,1.41,1.41,1.41h0c.78,0,1.41-.63,1.41-1.41v-37.53c0-.78-.63-1.41-1.41-1.41h0c-.78,0-1.41.63-1.41,1.41v37.53Z"/>
    <path class="cls-1" d="m32.82,103.61c.25.53.73.82,1.09.66l53.82-24.51c.36-.16.46-.73.22-1.26h0c-.24-.53-.73-.83-1.09-.66l-53.82,24.51c-.36.17-.46.73-.22,1.26h0Z"/>
    <path class="cls-1" d="m32.13,123.08c0,.88.71,1.58,1.58,1.58h0c.87,0,1.58-.71,1.58-1.58v-39.82c0-.87-.71-1.58-1.58-1.58h0c-.87,0-1.58.71-1.58,1.58v39.82Z"/>
  </g>
  <path class="cls-1" d="m146.11,94.75c-.24.53-.69.84-1.01.7l-47.28-21.53c-.31-.14-.38-.69-.14-1.22h0c.24-.53.7-.84,1.01-.69l47.28,21.53c.32.15.38.69.14,1.22h0Z"/>
  <path class="cls-1" d="m147.49,116.51c0,.78-.63,1.41-1.41,1.41h0c-.78,0-1.41-.63-1.41-1.41v-37.53c0-.78.63-1.41,1.41-1.41h0c.78,0,1.41.63,1.41,1.41v37.53Z"/>
  <path class="cls-1" d="m156.87,103.61c-.24.53-.73.82-1.09.66l-53.82-24.51c-.36-.16-.46-.73-.22-1.26h0c.24-.53.73-.83,1.09-.66l53.82,24.51c.36.17.46.73.22,1.26h0Z"/>
  <path class="cls-1" d="m157.56,123.08c0,.88-.71,1.58-1.58,1.58h0c-.87,0-1.58-.71-1.58-1.58v-39.82c0-.87.71-1.58,1.58-1.58h0c.87,0,1.58.71,1.58,1.58v39.82Z"/>
  <g>
    <path class="cls-3" d="m23.84,76.58c-1.21,1.86-2.05,4.8.79,4.8l70.62.14c2.83,0,2.1-7.83,2.1-7.83-1.36-1.63-2.02-4.15-4.44-4.15l-62.75.32c-2.42,0-4.36,3.72-5.42,5.35l-.9,1.38Z"/>
    <path class="cls-3" d="m22.65,80.15c0,1.89,1.77,3.43,3.95,3.43h66.82c2.18,0,3.95-1.54,3.95-3.43h0c0-1.9-1.77-3.43-3.95-3.43H26.6c-2.18,0-3.95,1.54-3.95,3.43h0Z"/>
    <path class="cls-3" d="m98.3,81.38l70.61.14c2.84,0,2.75-2.4,1.2-4.26l-1.15-1.38c-1.36-1.63-4.44-5.86-6.86-5.86h-60.73c-2.42,0-4.05.37-5.12,2,0,0-.8,9.35,2.04,9.35Z"/>
    <path class="cls-3" d="m96.32,80.15c0,1.89,1.77,3.43,3.95,3.43h66.82c2.18,0,3.95-1.54,3.95-3.43h0c0-1.9-1.76-3.43-3.95-3.43h-66.82c-2.18,0-3.95,1.54-3.95,3.43h0Z"/>
  </g>
  <path class="cls-5" d="m87.28,62.88c3.12-9.12,11.17-16.93,13.09-20.53,0,0,1.96-4.59,7.56-3,1.39.39,12.85,3.06,16.69,2.4,5.31-1,7.01-2.33,8.34-3.67,2.11-1.55,2.73-.18,1.42,3.17-.67,1.7-3.05,2.14-3.46,5.09-.46,3.27-2.68,2.57-4.38,1.17-1.68-1.38-1.18-1.49-4.08-1.08-2.9.42-7.2,3.48-13.57,0-2.76-1.51-1.77,9.95-11.77,19.81-3.78,3.73-9.85-3.36-9.85-3.36Z"/>
  <path class="cls-5" d="m81.28,60.64c.51-.67,5.14-.88,6.6-3.12,2.09-3.19,4.8-5.88,4.8-5.88,0,0,10.67,6.07,12.13,6.12-1.38,4.3-4.19,8.31-5.76,9.24-1.57.93-17.77-6.36-17.77-6.36Z"/>
  <path class="cls-5" d="m126.56,45.52c-.07.43-.16.7-.23.91.1-.2.24-.43.45-.67.18-.21.25-.72.84-.71.28.01-.65,1.09-.89,2.16-.17.76-.96.73-1.87,1.02-1.65-.17-2.16-.68-2.84-.97-.68-.85.6-1.01.57-1.53.13-.71,1.36-2.84,1.56-2.82.23.02.07.27-.02.88-.02.18-.17,1.42-.2,1.54.33.11.49-2.12.87-2.61.24-.31.51-.25.47.23-.07.78-.43,2.58-.43,2.58,0,0,.73-3.29,1.01-3.12.27.17,0,2.59,0,2.59l.19-.11.03-2.31c.3-.25.81,1.16.49,2.94Z"/>
  <path class="cls-5" d="m106.75,46.57c.01.24-1.56-.14-2.63-.43-.25-.07-.46-.13-.63-.17.17.06.38.13.63.21.62.2,1.36.46,1.79.65.5.23.41.52-.01.58-.36.06-1.11-.19-1.78-.39-.64-.19-1.2-.34-1.23-.15.09.02.75.28,1.2.47.19.07.36.13.41.15.64.25.97.24.86.46-.05.09-.66.07-1.37-.02-.73-.09-1.55-.25-1.94-.38-.49-.31-1.88,1.23-3.65-.43-.15-.05-.3-.11-.43-.17-2.69-.41-8.5-1.71-9.86-3.18-.66-.71-.86-1.32-.78-1.91.06-.64.44-1.28.9-2,0,0,3.29-.43,4.81.25.37.17.96.5,1.64.91,1.74,1.07,4.05,2.64,4.78,3.14.92-.24,2.32-1.27,3.1-1.04.36.11.76.14,1.14.15.83.05,1.54-.06,1.45.13-.31.58-.84.39-1.14.45-.06.01-.12.02-.18.02-.27.04-.52.05-.72.05.19.02.44.08.77.18.07.02.15.06.24.08,1.91.64,3.01,1.9,2.6,2.05l-2.26-1.21-.21.13s2.5,1.03,2.52,1.39Z"/>
  <path class="cls-5" d="m94.15,62.72c6.38-1.55,24.23,1.9,27.77,1.73,0,0,2.31-.87,4.9,1.07,1.12.83,18.39,3.81,22.04,2.95,4.92-1.44,5.64-1.76,6.83-3.13,1.92-1.61,2.12,2.25.58,5.04-.85,1.54-3.25,1.06-4.34,2.72-1.74,2.65-2.53,2.4-4.17,1.06-.75-.61-1.51-.79-1.92-.84-2.79-.35-14.13,3.92-20.58-.35-3.89-2.57-14.9,2.23-27.88,1.62-7.14-.34-3.23-11.87-3.23-11.87Z"/>
  <path class="cls-5" d="m82.15,71.76c3.36,2.16,7.68,4.08,11.52,4.08s15.12-.96,15.12-.96c0,0,1.68-6,.72-9.36-.96-3.36-1.88-3.21-1.88-3.21,0,0-7.96-.63-10.13-.63s-10.09-.24-12.73.24c-2.64.48-2.64,9.84-2.64,9.84Z"/>
  <path class="cls-1" d="m44.61,69.08c-3.08-1.15-9.51-5.66-11.4-3.51-1.9,2.16-4.63,5.63-1.87,6.58,2.76.95,15.91,2.39,17.31.19,1.4-2.21-4.03-3.26-4.03-3.26Z"/>
  <path class="cls-5" d="m54.17,62.16c.35-.15,2.31-.96,4.48-1.68,1.55-.52,3.96-.46,6.29-.36,2.03-.09,4.14-.12,5.58-.12,3.04,0,16.02-1.58,16.02-1.58,0,0,2.82,4.61,3.77,9.57.96,4.96-.8,7.36-2.4,7.52-1.6.16-13.63-.78-20.36-.78s-14.4,2.19-16.52.06c-3.76-3.78-2.61-3.62-3.09-3.78-.48-.16,2.27-1.85,4.03-3.44.04-.03.06-.06.1-.1.36-.39,2.56-2.9,2.1-5.31Z"/>
  <path class="cls-5" d="m71.4,63.94c.41-.78.49-2.73.72-3.15.25-.48,1.45-.82,1.49-1.07.03-.25-.19-.24-.61-.15-.17.05-.41.12-.64.2.47-.18.89-.38.7-.49-.29-.16-1.32.1-1.93.29l1.28-.4c-.31-.28-1.58.07-2.44.35.58-.21,1.23-.48,1.09-.58-.36-.24-2.31.59-2.31.59l-1.01.72s.84-.69.76-.8c-.22-.32-1.18.15-1.5.58-.37.57-.2,1.87.12,2.71.01.03.2.48.34.81-.11,1.57-.31,4.36-.37,6.67-3.55-.34-10.08-.88-11.34-.61-1.68.36-3.48,4.32-2.52,5.76.85,1.28,14.45,1.36,18.52,1.37.22.06.42.12.6.15,1.45.31,1.95-1.43,2.29-3.05.65-3.08-1.53-7.02-3.24-9.89Z"/>
  <path class="cls-5" d="m51.36,74.06c.96,2.28,1.75,2.27,3.67,2.63,1.92.36,7.85.5,7.85.5,0,0,.17-8.13,1.37-8.13-2.4-.72-8.29-.46-9.61-.27-3.59.53-3.28,5.26-3.28,5.26Z"/>
  <path class="cls-6" d="m43.02,56.57c1.46.06,2.45-.82,2.83-.68.47.17.34,1.08,2.12,1.84,1.8.78,3.12.95,2.67,2.76-.44,1.72-1.43,3.42-1.78,3.76l5.3-2.1"/>
  <path class="cls-5" d="m45.67,68.74c-1.03-.69-2.41-2.09-2.41-2.09-.82.75-2.46.19-2.73-.74-.28-.93.64-1.51,1.25-2.32.67-.9-.5-2.71-.92-3.26-.42-.58-3.19-3.47-3.19-3.47.69-.39,1.99-1,3.71-.64.21.03.42.09.64.17.35.12.68.17.99.18,0,0-1.85-1.99-3.76-2.22-2.31-.27-2.93,1.71-2.93,1.71-2.06.56-4.43,4.94-3.33,9.93.59,2.65,2.41,3.56,4.18,3.68,0,0,2.01,1.45,4.02.82,1.13-.35,2.29-.88,3.45-1.14h.01c.55-.12,1.11-.17,1.66-.1l-.65-.51Zm-8.45.93l1.29-.05c-.4.05-.85.07-1.29.05Z"/>
  <path class="cls-6" d="m39.08,69.51c-.18.04-.37.07-.56.11"/>
  <path class="cls-5" d="m37.22,69.67l1.29-.05c-.4.05-.85.07-1.29.05Z"/>
  <ellipse class="cls-5" cx="43.02" cy="59.22" rx=".29" ry=".62" transform="translate(-27.74 77.94) rotate(-68.82)"/>
  <line class="cls-6" x1="41.99" y1="65.54" x2="42.29" y2="65.14"/>
  <line class="cls-6" x1="120.29" y1="37.67" x2="126.75" y2="34.61"/>
  <line class="cls-5" x1="46.32" y1="69.26" x2="47.95" y2="71.01"/>
  <path class="cls-6" d="m103.67,4.59s.19,1.1.73,1.77h.01"/>
  <path class="cls-6" d="m106.22,6.51c.78-.66,1.14-2.05,1.14-2.05"/>
  <path class="cls-6" d="m110.82,16.13h.01c.1-.04.78-.36.99-1.56.23-1.3.78-1.25.6-2.52-.18-1.2-1.32-.46-1.45-.36"/>
  <path class="cls-6" d="m98.76,7.09s.94.35,1.92.35"/>
  <path class="cls-5" d="m108.12,6.72c-.54.13-1.19.11-1.9-.21-.23.21-.5.34-.8.36-.43.03-.76-.2-1.01-.51,0,.01-.02.02-.03.02-.1.13-.73.93-1.83.2-.38.67-1.14.87-1.87.87-.37.41-.95.48-.95.48-.02.05-.06.12-.07.17-1.3,2.78-1.16,4.48-1.15,4.66-.19-.42-.34-.82-.47-1.21.23.72.46,1.23.51,1.34h0s.01.03.01.03h0c.1.71.42,2.51,1.05,4.32.52,1.51,1.28,3.02,2.32,3.9,2.4,2.04,3.69,1.86,3.88,1.81.21,0,1.59-.03,3.54-2.53.84-1.07,1.27-2.7,1.48-4.29.24-1.9.19-3.74.15-4.45h0c0-.08,0-.16-.03-.25-.01.07-.03.12-.03.12-.03-.29-.08-.58-.14-.86-.45-1.41-2.21-3.57-2.44-3.95h-.2Z"/>
  <path class="cls-6" d="m110.96,11.68s0-.01,0-.02h0c.04-.16.22-.92.26-1.93v-.03c.08-2.01-.44-4.93-3.88-5.65,0,0-.39-1.02-1.72-.61,0,0-1.88-1.43-3.52.32-1.38-.13-1.56.95-1.56.95-3.47,1.51-3.11,4.82-2.54,6.73.01.04.03.07.03.1"/>
  <path class="cls-6" d="m99.66,8.3s-1.37,3.05-1.09,4.61"/>
  <path class="cls-6" d="m98.56,12.91v-.02"/>
  <path class="cls-6" d="m98.52,12.61s.01.1.04.27"/>
  <path class="cls-6" d="m99.62,17.23h-.01c-.1-.02-.84-.19-1.29-1.33-.49-1.23-1.02-1.07-1.1-2.35-.06-1.21,1.2-.72,1.34-.65"/>
  <path class="cls-6" d="m101.59,5.65c.32.4.61.68.88.87.03.03.06.06.09.06"/>
  <path class="cls-6" d="m104.38,6.38l.02-.02"/>
  <path class="cls-5" d="m104.06,11.75s.26,3.83-.21,5.86c0,0,.23.36,1.41-.1"/>
  <ellipse class="cls-5" cx="106.9" cy="13.09" rx=".13" ry=".38" transform="translate(-.78 10.99) rotate(-5.86)"/>
  <ellipse class="cls-5" cx="101.65" cy="13.54" rx=".13" ry=".38" transform="translate(-.85 10.45) rotate(-5.86)"/>
  <line class="cls-5" x1="100.79" y1="22.21" x2="101.93" y2="21.13"/>
  <line class="cls-5" x1="112.68" y1="19.93" x2="110.1" y2="19.07"/>
  <rect class="cls-7" x="-860.9" y="-308.58" width="2179.47" height="547.09"/>
</svg>