<?xml version="1.0" encoding="UTF-8"?><svg id="Calque_1" xmlns="http://www.w3.org/2000/svg" viewBox="0 0 200.13 128.13"><defs><style>.cls-1{fill:#baa584;}.cls-1,.cls-2,.cls-3,.cls-4,.cls-5,.cls-6,.cls-7,.cls-8{stroke:#000;}.cls-1,.cls-7{stroke-miterlimit:10;}.cls-2,.cls-9{fill:#9fc69e;}.cls-2,.cls-10,.cls-3,.cls-4,.cls-5,.cls-6,.cls-8{stroke-linecap:round;stroke-linejoin:round;}.cls-10{stroke:#e30613;stroke-width:8px;}.cls-10,.cls-6{fill:none;}.cls-3{fill:#76ac75;}.cls-4,.cls-5,.cls-7{fill:#fff;}.cls-5{stroke-width:2px;}.cls-8{fill:#f3d587;}</style></defs><rect class="cls-10" x="-1632.08" y="-68.32" width="2655.08" height="1511.77"/><line class="cls-5" x1="100.06" y1="10.13" x2="100.06" y2="117.87"/><circle class="cls-4" cx="49.32" cy="64.06" r="43.86"/><circle class="cls-4" cx="49.32" cy="64.06" r="35.81"/><path class="cls-1" d="m54.89,35.01c.04,1-.03,2.08-.09,2.99-.04.56-.08,1.08-.12,1.57-.19,2.15-.47,3.6-1.52,4.13-1.48.75-2.61-1.24-5.52-1.05-2.19.14-3.82,1.41-5.17,2.46-1.55,1.22-1.99,2.06-3.69,4.11-1.58,1.91-3.44,4.17-5.82,6.02-2.42,1.88-4.92,3.82-8.13,3.56-3.45-.27-5.7-2.91-6.71-4.09-.67-.78-4.52-5.48-3.07-11.48,1.18-4.86,5.05-7.32,5.95-7.86,4.8-2.84,10.5-1.84,13.52-1.31,2.67.47,4.58,1.23,8.37,1.33,4.28.11,5.48-.76,5.89-1.1.69-.57,1.28-1.4,2.67-1.97.77-.32,1.6-.66,2.27-.34.84.39,1.11,1.63,1.16,3.02Z"/><path class="cls-7" d="m74.8,33.94c.26,2.07-2.96,5.9-5.61,5-2.66-.9-3.96-2.85-3.96-2.85l-10.55,3.49c.04-.49.08-1.02.12-1.57.07-.91.14-1.99.09-2.99l9.22-3s.26-4.95,3.63-4.76c3.36.2,3.19,4.61,3.19,4.61,0,0,3.61,0,3.87,2.07Z"/><path class="cls-8" d="m14.15,65.34c.4.02.72-.3.71-.69-.02-.5-.4-1.4-.41-2.15-.02-1.41.68-3.49,1.13-4.21.45-.72,1.33.83,1.33.83l1.31-.35c.3-.08.61.1.69.4l.06.23c.06.23.26.4.5.41l1.49.11c.29.02.51.25.52.54l.03.78c0,.25.18.46.42.52l.76.2c.36.09.53.5.35.82l-.03.05c-.16.29-.04.66.27.79l.95.41-.65.9.67.35c.39.2.41.77.03.99-.83.47-2.11,1.09-3.2,1.12-.89.02-2.22-.32-3.03-.45-.62-.09-1.12.49-.93,1.08.22.71.75,1.75.79,2.15.08.8-.24,2.39-.73,3.23-.3.51-.88,1.19-1.3,1.65-.2.22-.57.13-.64-.17l-.36-1.52-.72.54c-.17.13-.41.09-.53-.08l-.51-.71c-.08-.11-.21-.17-.34-.15l-1.15.12c-.21.02-.39-.13-.41-.34l-.11-1.15c-.01-.15-.11-.27-.25-.32l-.99-.33c-.2-.07-.3-.28-.24-.47l.15-.43c.06-.18-.03-.38-.2-.46l-.54-.25c-.17-.08-.26-.28-.2-.46l.26-.77c.05-.14,0-.29-.1-.39l-.85-.8c-.18-.17-.15-.47.07-.6.77-.44,2.42-1.3,3.65-1.25.82.03,1.85.26,2.31.29Z"/><path class="cls-6" d="m20.17,65.71s-2.16.4-3.11,1.28-2.15,3.32-2.15,3.32"/><path class="cls-6" d="m11.65,66.87s2.16-.4,3.11-1.28c.95-.87,2.15-3.32,2.15-3.32"/><path class="cls-8" d="m16.45,80.73c.28-.28.25-.74-.06-.99-.39-.32-1.32-.62-1.89-1.1-1.07-.91-2.18-2.81-2.42-3.62-.25-.81,1.5-.45,1.5-.45l.59-1.22c.14-.28.47-.4.75-.26l.21.1c.21.1.47.06.64-.11l1.06-1.05c.2-.2.53-.22.75-.04l.6.49c.19.16.47.17.67.03l.65-.44c.3-.21.72-.07.85.28l.02.06c.11.32.47.46.77.32l.93-.45.25,1.08.7-.28c.41-.16.85.19.76.63-.19.93-.57,2.31-1.26,3.15-.57.68-1.71,1.46-2.33,1.99-.48.4-.37,1.16.2,1.41.69.3,1.81.59,2.14.82.66.46,1.64,1.75,1.95,2.67.19.56.32,1.44.39,2.06.04.3-.28.51-.55.37l-1.38-.73-.07.9c-.02.21-.2.37-.41.35l-.87-.08c-.13-.01-.27.05-.34.16l-.66.95c-.12.17-.36.21-.53.09l-.94-.67c-.12-.09-.28-.09-.41-.02l-.9.53c-.18.1-.41.04-.51-.13l-.23-.39c-.1-.17-.3-.23-.48-.15l-.54.24c-.17.08-.38.01-.48-.15l-.41-.7c-.07-.13-.21-.2-.36-.18l-1.16.11c-.25.02-.45-.2-.41-.44.17-.87.61-2.67,1.46-3.57.56-.6,1.41-1.22,1.74-1.55Z"/><path class="cls-6" d="m20.68,76.44s-1.12,1.89-1.09,3.18c.03,1.29,1.09,3.8,1.09,3.8"/><path class="cls-6" d="m15.96,83.62s1.12-1.89,1.09-3.18-1.09-3.8-1.09-3.8"/><path class="cls-8" d="m36.49,67.38c.05.39.43.66.81.57.49-.11,1.31-.65,2.03-.8,1.38-.28,3.55.03,4.34.34s-.58,1.46-.58,1.46l.59,1.22c.13.28.02.62-.26.75l-.21.1c-.22.1-.34.33-.32.57l.17,1.48c.03.29-.16.55-.44.61l-.76.17c-.24.05-.42.26-.44.51l-.06.78c-.03.37-.39.61-.74.49l-.06-.02c-.32-.11-.66.08-.73.41l-.23,1.01-1.01-.48-.22.72c-.13.43-.68.54-.96.21-.62-.73-1.46-1.88-1.68-2.94-.18-.87-.09-2.24-.12-3.06-.02-.62-.68-1.01-1.23-.72-.66.35-1.58,1.05-1.97,1.17-.77.23-2.39.2-3.31-.13-.55-.2-1.33-.65-1.86-.97-.26-.16-.23-.54.05-.66l1.43-.63-.67-.61c-.16-.14-.16-.38-.02-.54l.6-.63c.09-.1.13-.24.09-.37l-.33-1.11c-.06-.2.06-.41.26-.47l1.11-.32c.14-.04.25-.16.27-.31l.15-1.04c.03-.21.22-.35.42-.32l.45.06c.19.03.37-.09.42-.28l.14-.58c.05-.19.23-.31.42-.28l.81.11c.14.02.29-.05.37-.17l.63-.98c.14-.21.43-.23.6-.04.58.67,1.72,2.14,1.89,3.36.12.81.08,1.86.14,2.32Z"/><path class="cls-6" d="m37.24,73.36s-.79-2.05-1.82-2.83-3.65-1.5-3.65-1.5"/><path class="cls-6" d="m34.54,65.2s.79,2.05,1.82,2.83c1.03.77,3.65,1.5,3.65,1.5"/><path class="cls-8" d="m33.74,78.41c.05.39.43.66.81.57.49-.11,1.31-.65,2.03-.8,1.38-.28,3.55.03,4.34.34.79.31-.58,1.46-.58,1.46l.59,1.22c.13.28.02.62-.26.75l-.21.1c-.22.1-.34.33-.32.57l.17,1.48c.03.29-.16.55-.44.61l-.76.17c-.24.05-.42.26-.44.51l-.06.78c-.03.37-.39.61-.74.49l-.06-.02c-.32-.11-.66.08-.73.41l-.23,1.01-1.01-.48-.22.72c-.13.43-.68.54-.96.21-.62-.73-1.46-1.88-1.68-2.94-.18-.87-.09-2.24-.12-3.06-.02-.62-.68-1.01-1.23-.72-.66.35-1.58,1.05-1.97,1.17-.77.23-2.39.2-3.31-.13-.55-.2-1.33-.65-1.86-.97-.26-.16-.23-.54.05-.66l1.43-.63-.67-.61c-.16-.14-.16-.38-.02-.54l.6-.63c.09-.1.13-.24.09-.37l-.33-1.11c-.06-.2.06-.41.26-.47l1.11-.32c.14-.04.25-.16.27-.31l.15-1.04c.03-.21.22-.35.42-.32l.45.06c.19.03.37-.09.42-.28l.14-.58c.05-.19.23-.31.42-.28l.81.11c.14.02.29-.05.37-.17l.63-.98c.14-.21.43-.23.6-.04.58.67,1.72,2.14,1.89,3.36.12.81.08,1.86.14,2.32Z"/><path class="cls-6" d="m34.49,84.39s-.79-2.05-1.82-2.83-3.65-1.5-3.65-1.5"/><path class="cls-6" d="m31.79,76.23s.79,2.05,1.82,2.83,3.65,1.5,3.65,1.5"/><path class="cls-8" d="m33.25,92.9c.2.34.65.43.97.2.41-.29.95-1.11,1.56-1.53,1.16-.8,3.28-1.37,4.13-1.4s.05,1.57.05,1.57l1.02.89c.23.2.26.56.05.79l-.15.18c-.16.18-.18.44-.07.65l.74,1.3c.14.25.07.57-.16.73l-.63.45c-.2.15-.28.41-.2.64l.26.74c.12.35-.12.72-.49.75h-.06c-.33.03-.57.34-.51.67l.19,1.02-1.11-.04.08.75c.05.44-.41.77-.81.57-.85-.43-2.08-1.15-2.71-2.04-.51-.73-.97-2.03-1.31-2.77-.26-.56-1.03-.66-1.42-.17-.47.58-1.04,1.59-1.35,1.85-.62.51-2.12,1.13-3.09,1.18-.59.03-1.47-.07-2.09-.16-.3-.04-.42-.41-.22-.63l1.07-1.14-.85-.3c-.2-.07-.3-.29-.23-.49l.31-.82c.05-.13.02-.27-.06-.37l-.74-.89c-.13-.16-.11-.4.05-.53l.89-.73c.11-.09.16-.25.12-.39l-.27-1.01c-.05-.2.06-.41.26-.46l.44-.12c.19-.05.3-.23.27-.42l-.09-.59c-.03-.19.09-.37.27-.42l.79-.21c.14-.04.25-.16.27-.3l.19-1.15c.04-.25.31-.39.53-.28.79.39,2.42,1.29,3.06,2.34.43.7.81,1.68,1.05,2.08Z"/><path class="cls-6" d="m36.29,98.11s-1.54-1.57-2.79-1.88-3.95.06-3.95.06"/><path class="cls-6" d="m30.6,91.67s1.54,1.57,2.79,1.88c1.25.3,3.95-.06,3.95-.06"/><path class="cls-8" d="m50.64,89.58c-.17.36,0,.78.37.92.47.17,1.45.16,2.14.44,1.31.52,2.97,1.95,3.46,2.65.5.69-1.28.91-1.28.91l-.17,1.34c-.04.31-.32.53-.63.49l-.23-.03c-.24-.03-.47.09-.57.31l-.67,1.34c-.13.26-.43.38-.7.28l-.73-.27c-.23-.09-.5,0-.64.19l-.47.62c-.22.29-.66.3-.89.01l-.04-.05c-.21-.26-.6-.29-.84-.05l-.74.73-.59-.95-.58.49c-.34.29-.86.09-.92-.35-.12-.95-.21-2.37.18-3.39.32-.83,1.14-1.93,1.57-2.64.32-.53-.03-1.22-.65-1.27-.75-.06-1.9.03-2.29-.09-.77-.23-2.12-1.13-2.71-1.9-.36-.47-.76-1.26-1.03-1.82-.13-.27.1-.58.4-.53l1.54.25-.23-.88c-.05-.2.07-.41.28-.46l.85-.2c.13-.03.24-.13.27-.26l.32-1.11c.06-.2.27-.31.47-.25l1.1.33c.14.04.29,0,.39-.11l.69-.79c.14-.16.37-.17.53-.04l.35.3c.15.13.36.12.5,0l.43-.41c.14-.13.36-.14.5,0l.62.53c.11.1.27.12.4.06l1.06-.48c.23-.1.49.04.53.29.12.88.28,2.73-.23,3.85-.34.75-.94,1.61-1.14,2.03Z"/><path class="cls-6" d="m48.02,95.01s.45-2.15,0-3.36-2.25-3.25-2.25-3.25"/><path class="cls-6" d="m50.18,86.7s-.45,2.15,0,3.36c.45,1.21,2.25,3.25,2.25,3.25"/><path class="cls-8" d="m54.44,73.68c-.36.15-.52.59-.33.94.24.44.98,1.09,1.31,1.75.63,1.26.92,3.43.83,4.28-.09.85-1.56-.16-1.56-.16l-1.02.89c-.23.2-.59.18-.79-.05l-.15-.18c-.16-.18-.41-.24-.63-.15l-1.39.56c-.27.11-.57,0-.71-.26l-.37-.69c-.12-.22-.36-.34-.61-.29l-.77.15c-.36.07-.69-.22-.67-.58v-.06c.02-.33-.25-.61-.59-.59l-1.04.05.19-1.1-.76-.02c-.44,0-.71-.51-.46-.87.54-.79,1.42-1.91,2.39-2.41.79-.41,2.14-.69,2.92-.93.6-.19.79-.93.36-1.38-.52-.54-1.44-1.25-1.65-1.59-.42-.68-.83-2.25-.76-3.22.04-.59.27-1.45.44-2.05.08-.29.46-.36.65-.13l.99,1.21.41-.81c.1-.19.33-.26.51-.16l.77.41c.12.06.26.06.38-.01l.98-.61c.18-.11.41-.06.52.12l.6.98c.08.13.22.19.37.18l1.04-.14c.21-.03.39.12.42.32l.06.45c.03.19.19.33.38.33l.59-.02c.19,0,.36.14.38.33l.11.81c.02.14.12.27.26.31l1.11.35c.24.07.34.36.2.56-.5.73-1.6,2.23-2.73,2.72-.75.33-1.77.58-2.2.76Z"/><path class="cls-6" d="m48.88,76s1.77-1.31,2.24-2.51.47-3.92.47-3.92"/><path class="cls-6" d="m56.02,71.22s-1.77,1.31-2.24,2.51c-.47,1.2-.47,3.92-.47,3.92"/><path class="cls-8" d="m46.77,59.21c-.39-.07-.75.2-.79.6-.05.5.22,1.44.13,2.18-.16,1.4-1.13,3.37-1.67,4.03s-1.21-1-1.21-1l-1.34.18c-.31.04-.59-.17-.63-.48l-.03-.23c-.03-.24-.21-.43-.44-.48l-1.46-.3c-.28-.06-.47-.32-.45-.6l.07-.77c.02-.25-.12-.48-.35-.57l-.72-.29c-.34-.14-.46-.56-.24-.86l.04-.05c.2-.27.12-.65-.16-.82l-.89-.53.76-.81-.62-.43c-.36-.25-.31-.81.1-.98.88-.36,2.24-.81,3.32-.69.89.1,2.16.61,2.95.84.6.17,1.17-.34,1.06-.95-.13-.74-.51-1.83-.5-2.23.02-.8.55-2.33,1.15-3.1.36-.46,1.03-1.06,1.5-1.46.23-.2.58-.05.61.25l.16,1.56.79-.45c.18-.1.42-.04.52.15l.41.77c.06.12.19.19.32.2l1.16.03c.21,0,.37.18.37.39l-.04,1.15c0,.15.08.28.21.35l.94.46c.19.09.26.32.17.5l-.2.41c-.08.17-.02.38.14.48l.5.31c.16.1.22.31.14.48l-.36.73c-.06.13-.05.29.05.4l.74.9c.16.19.09.49-.14.58-.82.34-2.57.97-3.78.76-.81-.14-1.8-.5-2.25-.58Z"/><path class="cls-6" d="m40.85,58.07s2.2-.12,3.25-.86c1.06-.74,2.56-3.01,2.56-3.01"/><path class="cls-6" d="m49.45,58.03s-2.2.12-3.25.86c-1.06.74-2.56,3.01-2.56,3.01"/><path class="cls-2" d="m66.79,64.69l6.94.76,3.92,2.37-.59.82s.73,1.87,1.46,2.52,1.32,1.11,1.67,1.55c.35.44.67.97.67.97,0,0,2.58-1.35,3.13-2.05s.82-1.23,1.41-1.7,1.38-.91,1.61-1.23-.76-3.19-1.35-4.15-.61-1-.73-1.79-.26-5.62-.18-6.82c.09-1.2,1-5.68,1-5.68l-3.45,1.2s-.44,3.69-.53,4.39-.53,2.05-.53,2.05l-.97-5.97-2.46.03-1.02,2.46,1.02,4.08-2.25-2.53-2.55,1.99s1.51,2.28,1.72,2.9.3,1,.8,1.64,1.38,1.14,1.38,1.14c0,0-1.66-.85-2.18-1.29s-.81-.82-1.05-1-4.3-1.41-4.8-1.99c-.5-.59-1.32.97-1.32.97,0,0,1.93,1.9,2.55,2.34.61.44-.11.27-.97.23-.85-.04-1.87-.76-1.87-.76l-.5,2.55Z"/><path class="cls-3" d="m67.85,58.5c-.15.04-.32.01-.47-.07-.22-.12-.36-.35-.36-.57-.13,0-.26-.02-.38-.08-.32-.17-.45-.55-.29-.85.1-.18.28-.29.48-.3-.1-.18-.11-.39-.01-.57.11-.2.31-.31.53-.31-.23-.19-.3-.51-.17-.76.09-.16.25-.27.43-.3-.02,0-.03-.01-.05-.02-.32-.17-.45-.55-.29-.85.07-.13.19-.23.33-.27-.08,0-.17-.04-.25-.08-.22-.12-.35-.33-.35-.55-.21-.19-.28-.5-.15-.75s.4-.35.67-.29c-.12-.18-.14-.42-.04-.62.16-.3.55-.4.87-.23.03.01.05.03.07.04,0-.1.02-.21.07-.3.15-.27.5-.38.8-.25,0-.08.03-.16.07-.23.16-.3.55-.4.87-.22.06.03.11.07.15.11,0-.07.03-.13.06-.2.16-.29.55-.39.86-.22.06.03.11.07.15.11.01-.04.03-.08.05-.12.16-.3.55-.4.87-.22.17.09.29.25.34.42.19-.21.52-.27.8-.12.2.11.32.29.35.48.17-.29.55-.38.86-.21.24.13.37.37.36.6.19-.14.46-.16.7-.03.32.17.45.55.29.85,0,.01-.02.03-.03.05.19-.12.44-.13.67,0,.3.16.43.52.31.81.18-.1.42-.1.63,0,.32.17.45.55.29.85-.05.09-.12.16-.2.21h0c.32.18.45.55.29.85-.09.16-.24.26-.41.3.2.19.27.49.14.74s-.39.34-.65.3c.12.19.15.42.04.62-.08.14-.2.24-.35.28-.13.07-.29.1-.44.07.08.17.09.37,0,.54-.15.29-.52.39-.84.24.13.19.16.43.05.64-.16.29-.55.39-.87.22-.07-.04-.13-.09-.18-.14.07.16.07.35-.02.51-.16.3-.55.4-.87.23-.12-.07-.21-.16-.27-.27.02.12,0,.24-.06.35-.16.3-.55.4-.86.22-.05-.03-.1-.06-.14-.1,0,.11,0,.22-.06.32-.16.3-.55.4-.87.23-.07-.04-.13-.09-.18-.14-.17.28-.55.36-.85.2-.14-.07-.24-.19-.3-.32-.19.16-.48.19-.73.06-.17-.09-.28-.24-.33-.4-.19.19-.5.23-.76.09-.22-.12-.35-.33-.36-.54Z"/><path class="cls-3" d="m79.16,41.69c.03.09.05.19.04.28.08-.21.24-.37.47-.45.35-.12.74.05.92.37.12-.19.35-.31.58-.28.27.03.47.24.52.49.13-.18.34-.28.57-.25.16.02.29.1.39.22.11.09.2.23.23.38.13-.13.31-.21.51-.18.33.04.56.34.54.68.13-.19.35-.3.58-.27.34.04.58.36.53.71,0,.08-.03.15-.07.21.13-.12.3-.18.49-.16.34.04.58.36.53.71-.02.13-.07.25-.15.34.1-.06.23-.08.35-.07.34.04.58.36.53.71,0,.06-.02.11-.04.16.1-.05.21-.07.33-.05.34.04.58.36.53.71,0,.08-.03.15-.06.21.32.06.54.37.5.71-.02.15-.09.29-.19.39.22.12.36.37.32.65-.02.18-.12.34-.26.44.25.1.41.38.37.67-.03.24-.18.43-.38.51.09.13.13.29.11.46-.03.25-.2.45-.41.52.05.11.08.24.06.37-.05.35-.36.6-.69.56-.21-.03-.38-.16-.47-.33-.13.15-.32.24-.53.21-.22-.03-.4-.18-.49-.38-.1.28-.37.45-.66.42-.19-.02-.34-.13-.44-.29,0,.02,0,.03,0,.05-.04.35-.35.6-.69.56-.15-.02-.29-.1-.38-.21.03.08.03.17.02.26-.03.24-.18.44-.39.51-.1.26-.37.44-.65.4-.23-.03-.42-.19-.49-.4.02.22-.06.44-.2.6.03.35-.18.69-.51.8-.32.11-.67-.01-.87-.29-.05.27-.24.5-.51.59-.41.14-.85-.09-.99-.51-.01-.04-.02-.07-.03-.1-.09.1-.19.18-.32.22-.38.13-.79-.07-.96-.43-.08.07-.16.12-.27.15-.41.14-.85-.09-.99-.51-.02-.07-.04-.15-.04-.22-.07.05-.14.1-.23.13-.4.13-.85-.1-.99-.51-.03-.08-.04-.15-.04-.23-.05.03-.1.05-.15.07-.4.14-.85-.1-.99-.51-.07-.19-.06-.4.02-.57-.15.13-.35.21-.56.2.18.21.25.49.15.76-.14.4-.6.61-1.02.46-.04-.01-.07-.03-.1-.04.03.13.02.26-.03.39-.13.37-.54.57-.93.48,0,.1,0,.2-.05.3-.14.4-.6.61-1.02.46-.07-.03-.14-.06-.2-.1,0,.08,0,.17-.04.26-.04.1-.09.18-.16.26.07.04.12.09.18.15.24.28.22.68-.04.89-.16.13-.37.16-.56.1.03.2-.04.4-.2.53-.17.14-.4.17-.61.09.14.26.1.58-.12.77-.14.12-.33.16-.51.12.02.01.03.03.04.04.24.28.21.67-.04.89-.12.1-.26.14-.41.13.08.04.15.1.21.17.15.18.2.41.14.61.09.12.14.28.13.45-.01.2-.1.37-.25.48.27.08.46.36.44.68-.01.22-.13.41-.29.51.33.03.57.34.55.7-.02.27-.18.49-.4.58.21.11.34.35.32.62-.03.36-.31.64-.65.61-.02,0-.04,0-.05,0,.18.12.3.35.28.6-.02.34-.29.61-.61.61.17.12.27.34.25.58-.02.36-.32.64-.65.61-.1,0-.2-.04-.28-.09h0c-.03.37-.32.64-.65.62-.18-.01-.34-.11-.44-.25-.09.26-.34.45-.61.43-.26-.02-.48-.21-.54-.47-.12.19-.32.31-.55.29-.16,0-.3-.09-.4-.2-.12-.09-.21-.22-.24-.38-.12.14-.3.23-.49.22-.32-.02-.57-.32-.56-.67-.12.2-.33.32-.56.31-.33-.02-.59-.33-.56-.7,0-.08.03-.15.06-.22-.12.13-.29.21-.48.19-.34-.02-.59-.33-.56-.69,0-.14.06-.26.13-.36-.1.06-.22.1-.35.09-.33-.02-.59-.33-.56-.69,0-.06.01-.11.03-.16-.1.05-.21.08-.32.07-.34-.02-.59-.33-.56-.69,0-.08.02-.15.05-.22-.32-.04-.56-.34-.53-.69,0-.16.07-.3.17-.41-.22-.11-.37-.36-.35-.64.01-.19.1-.36.23-.47-.25-.09-.42-.36-.4-.66.02-.25.15-.45.35-.55-.1-.12-.14-.28-.13-.46.02-.26.17-.47.37-.56-.06-.11-.09-.24-.08-.37.03-.36.32-.64.65-.62.05,0,.1.01.14.03,0,0,0,0,.02-.02.01,0,.03-.02.04-.03-.22.04-.46-.04-.63-.24-.22-.26-.21-.64,0-.86-.21.03-.43-.06-.58-.24-.24-.28-.21-.68.04-.89.08-.07.17-.11.27-.13h0c-.24-.28-.22-.68.04-.89.14-.12.32-.16.49-.13-.12-.25-.07-.56.14-.73.2-.17.49-.18.71-.04-.05-.22.02-.45.19-.59.12-.1.28-.15.43-.13.07,0,.14,0,.21,0-.03-.13-.02-.27.03-.4.05-.12.12-.23.21-.31t0,0c-.42-.15-.64-.59-.49-1,.08-.22.25-.38.45-.45-.28-.2-.41-.56-.29-.89.11-.31.42-.51.74-.5-.18-.21-.25-.49-.15-.77.07-.19.21-.33.38-.42.14-.12.33-.18.53-.17-.13-.2-.17-.45-.09-.68.14-.39.57-.59.98-.47-.19-.21-.27-.51-.17-.78.14-.4.6-.6,1.02-.45.09.03.17.08.24.14-.11-.19-.14-.42-.06-.64.14-.4.6-.61,1.02-.46.16.06.29.15.38.28-.04-.14-.04-.3.02-.45.14-.4.6-.61,1.01-.46.07.02.13.05.18.09-.03-.13-.03-.28.02-.41.14-.4.6-.61,1.02-.46.09.03.17.08.24.13.16-.38.6-.57,1.01-.42.18.07.33.18.42.34.21-.24.55-.33.88-.22.22.08.39.24.47.44.2-.28.57-.39.91-.27.28.1.48.34.52.61.18-.08.38-.09.59-.01.09-.18.24-.33.44-.4.22-.08.45-.04.64.07-.02-.34.19-.67.52-.78.31-.1.66.01.86.27.05-.27.23-.5.5-.6.19-.06.39-.05.56.04.18.04.35.15.46.3.07-.22.24-.41.48-.48.39-.13.82.08.97.47.05-.28.24-.52.51-.62.4-.14.85.09.99.51Z"/><path class="cls-3" d="m64.68,52.99c.07-.14.19-.26.35-.33.23-.1.49-.06.67.08.07-.1.17-.19.3-.24.33-.14.71,0,.84.3.08.19.05.4-.06.57.2.03.37.16.45.34.09.2.05.44-.09.61.29-.06.59.08.7.34.07.17.05.36-.03.52.02,0,.03-.02.05-.02.33-.14.71,0,.84.3.06.14.06.29,0,.43.06-.06.13-.11.22-.15.23-.1.48-.07.65.07.28-.05.57.09.68.35s.02.53-.18.7c.22.02.42.15.51.36.13.31-.03.68-.36.82-.03.01-.05.02-.08.03.08.06.15.14.19.24.12.29-.01.63-.3.79.06.05.11.12.14.2.13.31-.03.68-.36.82-.06.02-.12.04-.18.05.05.05.09.1.12.17.13.31-.03.67-.36.82-.06.03-.12.04-.18.05.02.03.05.07.07.11.13.31-.03.68-.36.82-.18.08-.38.07-.54,0,.05.28-.11.57-.4.7-.2.09-.42.07-.59-.02.12.31-.04.66-.37.81-.25.11-.52.06-.7-.1,0,.24-.16.46-.41.57-.33.14-.71.01-.84-.3,0-.02-.01-.03-.02-.05-.03.22-.18.43-.41.53-.32.14-.67.02-.82-.26-.03.21-.18.4-.4.49-.33.14-.71,0-.84-.3-.04-.09-.05-.2-.04-.29h0c-.33.15-.71.01-.84-.3-.07-.17-.06-.35.02-.51-.28.04-.55-.1-.66-.35s-.03-.52.17-.69c-.22-.02-.42-.15-.51-.35-.06-.15-.06-.31,0-.45.02-.15.1-.29.22-.39-.18-.04-.34-.16-.42-.34-.13-.3.02-.65.33-.8-.23-.01-.44-.15-.53-.36-.13-.31.03-.67.36-.82.07-.03.15-.05.22-.05-.17-.05-.32-.16-.39-.33-.13-.31.03-.68.36-.82.13-.05.26-.07.38-.05-.1-.06-.19-.15-.24-.27-.13-.31.03-.67.36-.82.05-.02.1-.04.16-.05-.09-.06-.17-.14-.21-.25-.13-.31.03-.68.36-.82.07-.03.15-.05.22-.05-.11-.3.05-.65.38-.79.14-.06.3-.07.44-.04,0-.25.15-.5.41-.61.18-.08.36-.07.52,0-.03-.27.13-.54.4-.66.23-.1.47-.07.65.06Z"/><path class="cls-3" d="m70.52,45.17c.13-.12.3-.19.49-.19.28,0,.52.16.64.39.12-.08.26-.12.4-.12.4,0,.72.32.72.71,0,.24-.12.46-.3.58.18.13.3.34.3.58,0,.26-.14.49-.35.62.32.07.55.36.55.7,0,.22-.1.42-.26.55.02,0,.04,0,.06,0,.4,0,.71.32.71.72,0,.18-.07.34-.18.47.09-.04.18-.06.29-.06.27,0,.51.15.63.37.3.08.53.36.53.69s-.2.58-.49.68c.21.12.35.35.35.62,0,.4-.32.72-.71.72-.03,0-.06,0-.09,0,.06.1.09.22.09.35,0,.37-.28.67-.64.71.04.09.06.18.06.28,0,.4-.32.72-.72.72-.07,0-.14,0-.2-.03.03.07.04.15.04.24,0,.39-.32.71-.71.71-.07,0-.14,0-.2-.03,0,.05.02.1.02.15,0,.4-.32.72-.72.72-.22,0-.41-.1-.54-.25-.07.32-.36.57-.7.57-.24,0-.46-.12-.58-.3,0,.39-.33.7-.72.7-.29,0-.54-.17-.66-.43-.11.25-.36.43-.66.43-.4,0-.71-.32-.71-.71,0-.02,0-.04,0-.06-.12.23-.36.38-.64.38-.38,0-.68-.29-.71-.66-.12.21-.35.34-.61.34-.4,0-.71-.32-.71-.72,0-.12.03-.24.08-.33h0c-.4,0-.71-.32-.71-.71,0-.22.09-.41.24-.54-.29-.09-.51-.36-.51-.68s.2-.57.47-.67c-.22-.12-.36-.35-.36-.62,0-.19.07-.36.19-.48.09-.15.22-.26.39-.31-.17-.13-.28-.33-.28-.56,0-.38.3-.69.68-.71-.23-.12-.38-.36-.38-.63,0-.39.32-.71.72-.71.09,0,.17.02.25.05-.15-.13-.25-.32-.25-.54,0-.4.32-.72.71-.72.15,0,.29.05.4.12-.08-.11-.12-.25-.12-.4,0-.4.32-.71.71-.71.06,0,.12,0,.18.02-.07-.11-.1-.23-.1-.37,0-.4.32-.72.71-.72.09,0,.17.02.24.04.02-.38.33-.68.72-.68.17,0,.33.06.46.16.1-.27.36-.47.67-.47.21,0,.4.09.52.23.08-.3.36-.52.68-.52.27,0,.5.15.62.36Z"/><path class="cls-3" d="m83.48,45.53c.16.02.31.11.42.25.16.2.18.47.08.69.12.04.24.12.32.22.22.29.17.7-.11.93-.18.14-.4.17-.6.11.01.21-.08.41-.25.55-.19.15-.44.18-.65.09.13.27.05.6-.19.8-.16.12-.36.16-.54.12.01.01.02.02.03.04.22.29.17.7-.12.92-.13.1-.29.15-.44.14.08.04.15.1.2.17.15.2.18.45.08.67.11.27.04.59-.2.78s-.54.18-.77.03c.03.22-.06.46-.25.61-.29.22-.7.17-.93-.11-.02-.02-.03-.05-.05-.07-.04.1-.11.19-.2.26-.27.21-.65.18-.88-.06-.04.07-.1.14-.17.2-.29.22-.7.17-.93-.11-.04-.05-.07-.11-.09-.16-.04.06-.09.12-.15.17-.29.22-.7.17-.92-.11-.04-.05-.07-.11-.09-.16-.03.04-.06.07-.1.1-.29.22-.7.17-.93-.11-.12-.16-.16-.35-.13-.53-.27.13-.61.06-.81-.19-.14-.18-.17-.4-.11-.59-.29.21-.69.16-.91-.13-.17-.21-.18-.49-.06-.72-.24.06-.51-.02-.68-.23-.22-.29-.17-.7.11-.92.01-.01.03-.02.05-.03-.23.04-.48-.05-.64-.25-.21-.27-.18-.66.08-.89-.22.03-.45-.06-.59-.25-.22-.29-.17-.7.12-.92.09-.07.19-.11.29-.13h0c-.22-.29-.17-.7.11-.93.16-.12.35-.16.53-.13-.11-.26-.03-.58.21-.76s.53-.18.75-.04c-.03-.23.05-.46.25-.61.14-.11.3-.15.46-.14.16-.02.32.01.45.11,0-.2.09-.39.25-.52.28-.22.68-.17.9.09-.04-.23.05-.48.25-.63.29-.22.7-.17.92.12.05.06.08.13.11.2,0-.18.1-.36.25-.48.29-.22.7-.17.93.11.09.11.13.24.14.36.04-.12.11-.23.22-.31.29-.22.7-.17.92.11.04.05.06.09.09.14.04-.11.11-.21.21-.28.29-.22.7-.17.93.11.05.06.08.13.11.2.29-.2.68-.14.9.14.1.12.14.27.14.42.26-.08.54,0,.72.22.12.15.16.34.13.51.27-.11.58-.03.77.2.15.2.18.45.09.66Z"/><path class="cls-6" d="m79.11,67.1s-.51.11-.76.28c-.44.29-.81.76-.81.76"/><path class="cls-2" d="m62.03,80.95l2.16,5.23-.16,3.71-.81-.1s-1.05,1.25-1.22,2.02c-.17.77-.28,1.37-.45,1.79s-.43.85-.43.85c0,0,1.96,1.31,2.68,1.43s1.19.11,1.75.34c.56.23,1.18.63,1.5.67s1.97-1.78,2.43-2.57c.46-.79.47-.83.99-1.22s3.9-2.37,4.78-2.78,4.43-1.5,4.43-1.5l-2.2-1.99s-2.79,1.12-3.33,1.33-1.66.42-1.66.42l3.87-3.01-.98-1.74-2.15.23-2.5,2.31.92-2.58-2.41-1.04s-1.04,1.96-1.39,2.35-.59.6-.86,1.21c-.26.6-.28,1.42-.28,1.42,0,0-.04-1.51.07-2.05s.27-.9.3-1.13-.67-3.61-.45-4.19-1.2-.56-1.2-.56c0,0-.6,2.11-.68,2.72s-.24.03-.54-.6-.19-1.63-.19-1.63l-2,.64Z"/><path class="cls-3" d="m66.84,79.29c-.08-.09-.13-.22-.14-.36,0-.21.11-.39.27-.48-.05-.09-.09-.19-.09-.3,0-.29.22-.53.49-.54.17,0,.31.09.4.22.09-.14.23-.23.4-.23.18,0,.34.1.43.26.05-.24.24-.41.48-.41.15,0,.29.07.38.19,0-.01,0-.03,0-.04,0-.29.22-.53.49-.53.12,0,.24.05.32.13-.03-.06-.04-.14-.04-.21,0-.2.1-.38.26-.47.06-.23.25-.4.47-.4s.4.15.47.36c.08-.16.24-.26.43-.27.27,0,.5.24.5.53,0,.02,0,.05,0,.07.07-.04.15-.07.24-.07.25,0,.46.21.49.47.06-.03.12-.04.19-.04.27,0,.5.24.5.53,0,.05,0,.1-.02.15.05-.02.11-.03.16-.03.27,0,.49.24.5.53,0,.05,0,.1-.02.15.03,0,.07-.01.11-.01.27,0,.5.24.5.53,0,.16-.06.3-.17.4.22.05.39.26.39.52,0,.18-.08.34-.21.43.27,0,.48.24.48.53,0,.22-.12.4-.29.49.17.08.3.27.3.49,0,.29-.22.53-.49.53-.01,0-.03,0-.04,0,.16.09.26.27.26.47,0,.28-.2.51-.45.53.14.09.24.26.24.45,0,.29-.22.53-.49.53-.08,0-.16-.02-.23-.06h0c0,.3-.22.54-.49.54-.15,0-.28-.07-.37-.18-.06.22-.25.38-.47.38s-.4-.14-.46-.35c-.09.16-.24.27-.43.27-.13,0-.25-.05-.34-.14-.1-.06-.18-.16-.22-.29-.09.12-.23.21-.39.21-.26,0-.48-.22-.5-.5-.08.17-.25.28-.43.28-.27,0-.49-.24-.5-.53,0-.06.01-.13.03-.18-.09.11-.22.18-.37.18-.27,0-.5-.24-.5-.53,0-.11.03-.21.08-.3-.08.06-.17.09-.28.09-.27,0-.49-.23-.5-.53,0-.05,0-.09.02-.13-.07.05-.16.08-.25.08-.27,0-.5-.24-.5-.53,0-.06.01-.12.03-.18-.26-.01-.47-.25-.47-.53,0-.13.04-.25.11-.34-.19-.07-.32-.27-.32-.5,0-.16.06-.3.16-.39-.21-.06-.36-.27-.36-.51,0-.2.1-.37.25-.46Z"/><path class="cls-3" d="m83.19,80.8c-.05.06-.12.11-.18.14.18-.02.36.03.5.16.22.2.26.55.1.8.19.01.36.13.42.31.08.2.01.42-.14.56.18.02.33.13.4.31.05.12.04.25,0,.36-.02.12-.08.23-.18.31.15.04.27.14.33.29.1.25-.02.53-.27.65.18.02.35.13.42.31.1.26-.03.55-.3.66-.06.02-.12.04-.18.03.13.05.25.15.31.29.1.26-.03.55-.3.66-.1.04-.21.05-.3.03.08.05.15.13.18.23.1.26-.03.55-.3.66-.04.01-.08.03-.13.03.07.05.13.12.16.21.1.26-.03.55-.3.66-.06.02-.12.03-.17.04.08.25-.05.53-.31.63-.11.04-.24.05-.35.02,0,.21-.13.4-.34.48-.14.06-.29.05-.41-.01.02.22-.11.44-.33.52-.18.07-.38.04-.51-.07-.06.11-.15.2-.28.26-.19.07-.39.03-.53-.09-.06.08-.14.15-.24.19-.27.1-.57-.02-.67-.27-.06-.16-.03-.33.06-.46-.16-.03-.29-.14-.36-.3-.07-.17-.03-.36.08-.49-.23.04-.46-.09-.55-.31-.06-.14-.04-.3.03-.42-.01,0-.02.01-.04.02-.27.11-.57-.02-.67-.27-.05-.12-.04-.24,0-.35-.05.05-.11.09-.18.11-.18.07-.38.04-.52-.08-.23.03-.45-.09-.54-.31-.07-.18-.03-.37.09-.5-.15.1-.33.13-.5.09-.24.16-.56.14-.77-.05-.2-.19-.25-.48-.13-.73-.21.07-.45.03-.62-.13-.26-.24-.26-.64-.02-.9.02-.02.04-.04.06-.06-.1-.02-.2-.07-.28-.15-.24-.22-.26-.59-.06-.85-.08-.03-.15-.07-.21-.13-.26-.24-.26-.64-.02-.91.04-.04.09-.09.14-.11-.06-.03-.13-.06-.18-.11-.25-.23-.26-.64-.02-.9.04-.05.09-.09.14-.12-.04-.02-.08-.05-.11-.08-.25-.23-.26-.64-.02-.9.11-.12.26-.19.41-.21-.15-.05-.29-.17-.36-.32-.08.21-.25.37-.49.4-.34.05-.66-.19-.72-.55,0-.03,0-.06,0-.08-.08.07-.18.11-.29.13-.32.05-.62-.16-.7-.48-.07.04-.15.07-.23.09-.34.05-.66-.19-.72-.55,0-.06-.01-.12,0-.18-.06.03-.13.06-.2.07-.08.01-.16,0-.24-.01,0,.06-.01.12-.04.18-.11.28-.4.42-.65.32-.15-.06-.26-.2-.29-.36-.13.1-.3.13-.46.07-.17-.07-.28-.22-.3-.4-.13.2-.38.29-.6.21-.14-.06-.24-.17-.28-.32,0,.02,0,.03-.01.04-.11.28-.4.41-.65.32-.12-.05-.2-.13-.25-.24,0,.07-.01.14-.04.21-.07.18-.22.3-.38.34-.05.11-.15.21-.27.27-.14.07-.3.07-.44.01.05.23-.08.47-.31.57-.16.08-.34.07-.48,0,.11.25-.02.54-.28.66-.2.09-.42.06-.57-.06,0,.19-.12.38-.32.47-.27.12-.57.02-.69-.23,0-.01-.01-.03-.02-.04-.02.18-.13.35-.32.43-.25.12-.55.03-.67-.19-.02.17-.14.32-.31.4-.27.13-.58.02-.69-.23-.04-.08-.05-.16-.04-.23h0c-.27.12-.58.02-.69-.22-.06-.14-.06-.28,0-.41-.22.04-.45-.07-.54-.27-.09-.19-.03-.42.12-.57-.18-.01-.34-.11-.42-.28-.05-.12-.06-.25-.01-.36.02-.12.07-.23.17-.32-.15-.03-.28-.12-.35-.27-.11-.24,0-.53.25-.66-.19,0-.36-.11-.44-.28-.11-.25,0-.55.28-.67.06-.03.12-.04.18-.05-.14-.04-.26-.13-.32-.26-.11-.25,0-.55.28-.67.1-.05.21-.06.31-.05-.08-.05-.16-.12-.2-.21-.11-.25,0-.55.28-.67.04-.02.08-.03.13-.04-.08-.05-.14-.11-.17-.2-.11-.25,0-.55.28-.67.06-.03.12-.04.18-.05-.1-.24.03-.53.29-.65.12-.05.24-.07.36-.04,0-.2.11-.4.32-.5.14-.06.29-.07.42-.02-.03-.21.09-.44.31-.54.18-.08.38-.07.53.03.05-.11.14-.21.27-.27.19-.09.4-.06.55.05.06-.09.14-.16.24-.2.27-.12.58-.02.69.22.02.04.03.07.03.11,0,0,.01,0,.02,0,.01,0,.03,0,.04.02-.11-.14-.15-.35-.08-.54.1-.26.37-.4.62-.33-.1-.14-.13-.33-.06-.51.11-.28.4-.42.65-.32.08.03.14.08.19.14h0c.11-.28.4-.42.65-.32.14.05.24.16.28.3.13-.18.37-.27.58-.19.2.08.32.28.31.49.14-.12.32-.16.49-.1.12.05.21.14.26.25.03.05.06.1.08.16.08-.07.18-.12.3-.14.1-.01.21,0,.3.03t0,0c-.06-.36.17-.68.52-.74.19-.03.36.03.5.15.03-.28.24-.51.52-.55.26-.04.52.1.65.33.08-.21.25-.37.49-.41.16-.02.32.02.44.11.14.06.26.17.33.31.09-.17.25-.29.45-.32.33-.05.64.18.71.51.07-.22.26-.39.49-.42.34-.05.66.19.72.55.01.08.01.15,0,.23.09-.15.25-.26.43-.29.34-.05.67.19.72.55.02.14,0,.26-.05.38.09-.08.2-.14.33-.16.34-.05.66.19.72.54.01.06.01.11,0,.17.08-.07.19-.13.3-.14.34-.05.67.19.72.55.01.08.01.15,0,.22.33-.04.64.21.69.55.02.15,0,.3-.08.43.25.06.45.26.5.54.03.19-.02.37-.13.5.27.03.5.25.55.55.04.24-.06.47-.23.61.12.1.21.24.24.41.16-.01.33.04.45.16.14.13.2.3.2.48.24-.14.55-.13.76.06.2.18.25.47.14.71.21-.07.45-.03.62.13.12.11.18.26.19.41.04.14.03.3-.04.45.19-.04.38.01.53.15.25.23.26.61.04.88.22-.08.46-.04.64.13.25.23.26.64.02.9Z"/><path class="cls-3" d="m69.52,74.89c.13,0,.26.03.37.12.16.13.24.33.21.51.1.01.2.05.29.12.23.18.28.5.12.72-.1.13-.26.19-.43.18.05.15.03.32-.07.45-.11.14-.29.2-.47.17.16.18.17.45.03.63-.09.12-.24.18-.38.18.01,0,.02.01.03.02.23.18.28.5.11.72-.08.1-.18.16-.3.17.07.02.13.05.19.1.16.12.23.31.21.49.14.18.16.44.02.62s-.37.22-.57.14c.07.16.06.35-.06.5-.17.22-.49.24-.72.06-.02-.02-.04-.03-.05-.05-.01.08-.04.16-.1.23-.16.2-.45.24-.68.09-.02.06-.04.12-.09.18-.17.22-.49.24-.72.06-.04-.03-.08-.07-.1-.11-.02.05-.04.1-.08.15-.17.21-.49.24-.72.06-.04-.03-.08-.07-.11-.11-.02.03-.03.06-.06.09-.17.22-.49.24-.72.06-.13-.1-.2-.24-.21-.38-.18.14-.45.14-.65-.02-.14-.11-.22-.27-.21-.43-.17.21-.49.23-.72.05-.17-.13-.24-.34-.2-.53-.17.09-.39.07-.56-.07-.23-.18-.28-.5-.11-.72,0-.01.02-.02.03-.03-.17.07-.37.04-.53-.09-.22-.17-.28-.47-.13-.69-.16.06-.35.03-.5-.09-.23-.18-.28-.5-.11-.72.05-.07.12-.11.19-.14h0c-.23-.18-.28-.5-.11-.72.09-.12.23-.18.37-.18-.14-.18-.15-.43,0-.61s.36-.22.56-.15c-.07-.17-.06-.36.05-.5.08-.1.19-.16.32-.18.11-.04.24-.04.36,0-.04-.15-.02-.31.08-.43.16-.21.47-.24.7-.08-.08-.17-.07-.37.05-.52.17-.21.49-.24.72-.06.05.04.09.09.12.14-.03-.14,0-.29.09-.41.17-.22.49-.24.72-.06.09.07.15.16.18.25,0-.09.03-.19.1-.27.17-.22.49-.24.72-.06.04.03.07.06.1.1,0-.09.04-.17.09-.25.17-.22.49-.24.72-.06.05.04.09.09.12.13.17-.2.49-.22.71-.04.1.08.17.18.2.3.18-.1.41-.09.59.06.12.1.19.23.21.37.18-.13.43-.12.62.03.16.12.23.31.21.48Z"/><path class="cls-3" d="m77.35,76.01c.14.04.25.14.33.27.11.2.09.43-.03.61.1.05.19.13.25.24.15.28.05.64-.23.79-.17.09-.37.09-.53,0-.02.18-.12.35-.29.44-.19.1-.4.09-.57,0,.07.25-.04.53-.28.67-.16.09-.34.09-.49.03,0,.01.02.02.02.04.15.28.05.63-.23.79-.13.07-.27.09-.4.06.06.05.11.11.15.18.11.19.09.42-.02.59.06.25-.05.52-.29.65s-.49.08-.67-.08c0,.2-.11.39-.3.49-.28.15-.64.05-.79-.23-.01-.02-.02-.05-.03-.07-.05.08-.12.15-.21.2-.26.14-.59.06-.75-.18-.05.06-.11.11-.18.15-.28.15-.64.05-.79-.23-.03-.05-.05-.1-.06-.15-.04.05-.09.09-.15.12-.28.15-.63.05-.79-.23-.03-.05-.05-.1-.06-.16-.03.03-.07.05-.1.07-.28.15-.64.05-.79-.23-.08-.15-.09-.33-.03-.48-.26.08-.54-.03-.68-.28-.09-.17-.09-.37-.01-.53-.28.14-.62.04-.78-.24-.11-.21-.09-.45.05-.63-.22.02-.44-.09-.56-.3-.15-.28-.05-.63.23-.79.01,0,.03-.02.05-.02-.21,0-.41-.11-.52-.3-.15-.27-.06-.6.19-.76-.19,0-.38-.12-.48-.3-.15-.28-.05-.63.23-.79.09-.05.18-.07.27-.07h0c-.15-.29-.05-.64.23-.79.15-.08.32-.09.48-.04-.05-.24.06-.51.29-.63s.48-.08.66.07c0-.2.11-.39.3-.5.13-.07.28-.09.42-.05.14,0,.27.06.38.16.03-.17.13-.33.29-.41.27-.15.61-.06.77.2,0-.21.11-.41.3-.51.28-.15.63-.05.79.23.03.06.05.13.06.19.03-.16.14-.3.29-.38.28-.15.64-.05.79.23.06.11.08.22.07.33.05-.1.13-.18.24-.24.28-.15.63-.05.79.23.02.04.04.09.05.14.05-.09.12-.17.22-.22.28-.15.64-.05.79.23.03.06.05.13.06.19.28-.13.61-.03.76.25.07.12.09.26.06.39.23-.03.47.08.59.3.08.15.09.32.04.46.25-.06.51.05.64.28.1.19.09.41-.02.58Z"/><path class="cls-3" d="m82.14,85.37c.05.12.04.26-.01.39-.08.19-.26.31-.46.32.02.1,0,.21-.03.31-.12.27-.43.4-.7.28-.17-.07-.28-.22-.31-.38-.14.09-.32.11-.49.04-.18-.08-.29-.24-.32-.42-.14.2-.41.27-.64.17-.15-.07-.25-.19-.3-.34,0,.01,0,.03-.01.04-.12.27-.43.39-.7.28-.12-.05-.22-.15-.27-.26,0,.07-.01.14-.04.21-.08.19-.25.3-.44.32-.15.18-.4.26-.63.16s-.34-.31-.32-.53c-.15.11-.35.14-.53.06-.27-.12-.4-.43-.28-.7,0-.02.02-.04.03-.06-.09,0-.18,0-.27-.04-.25-.11-.38-.39-.3-.65-.07,0-.14-.02-.21-.04-.27-.12-.4-.43-.28-.7.02-.05.05-.09.08-.13-.06,0-.12-.02-.18-.04-.27-.12-.39-.43-.28-.7.02-.05.05-.09.08-.13-.04,0-.07-.02-.11-.03-.27-.12-.4-.43-.28-.7.06-.15.19-.25.33-.3-.2-.14-.28-.41-.18-.65.07-.17.22-.28.38-.31-.26-.12-.38-.43-.27-.7.09-.2.28-.32.49-.32-.14-.15-.18-.37-.1-.58.12-.27.43-.39.7-.28.01,0,.03.01.04.02-.12-.15-.15-.36-.07-.55.11-.26.4-.38.66-.29-.11-.14-.13-.34-.05-.52.12-.27.43-.39.7-.28.08.04.15.09.2.16h0c.12-.28.43-.4.7-.28.15.06.25.18.3.33.15-.18.4-.25.62-.15s.33.3.32.52c.15-.11.35-.14.53-.06.13.06.22.16.28.27.08.1.11.23.1.36.14-.08.31-.09.47-.02.26.11.39.41.29.68.15-.12.36-.15.54-.07.27.12.39.43.28.7-.03.06-.06.11-.1.15.13-.06.29-.07.44,0,.27.12.4.43.28.7-.04.1-.12.18-.2.24.1-.02.21,0,.31.04.27.12.39.43.28.7-.02.04-.04.08-.07.12.09-.01.19,0,.28.04.27.12.4.43.28.7-.03.06-.06.11-.1.15.25.13.37.43.25.69-.05.12-.14.21-.25.26.16.15.21.39.12.6-.06.14-.18.25-.31.29.18.15.25.4.15.62-.08.18-.25.3-.43.32Z"/><path class="cls-6" d="m65.09,90.64s-.27-.32-.49-.43c-.37-.2-.85-.28-.85-.28"/><circle class="cls-4" cx="150.81" cy="64.06" r="43.86"/><circle class="cls-4" cx="150.81" cy="64.06" r="35.81"/><path class="cls-8" d="m137.99,67.38c.05.39.43.66.81.57.49-.11,1.31-.65,2.03-.8,1.38-.28,3.55.03,4.34.34s-.58,1.46-.58,1.46l.59,1.22c.13.28.02.62-.26.75l-.21.1c-.22.1-.34.33-.32.57l.17,1.48c.03.29-.16.55-.44.61l-.76.17c-.24.05-.42.26-.44.51l-.06.78c-.03.37-.39.61-.74.49l-.06-.02c-.32-.11-.66.08-.73.41l-.23,1.01-1.01-.48-.22.72c-.13.43-.68.54-.96.21-.62-.73-1.46-1.88-1.68-2.94-.18-.87-.09-2.24-.12-3.06-.02-.62-.68-1.01-1.23-.72-.66.35-1.58,1.05-1.97,1.17-.77.23-2.39.2-3.31-.13-.55-.2-1.33-.65-1.86-.97-.26-.16-.23-.54.05-.66l1.43-.63-.67-.61c-.16-.14-.16-.38-.02-.54l.6-.63c.09-.1.13-.24.09-.37l-.33-1.11c-.06-.2.06-.41.26-.47l1.11-.32c.14-.04.25-.16.27-.31l.15-1.04c.03-.21.22-.35.42-.32l.45.06c.19.03.37-.09.42-.28l.14-.58c.05-.19.23-.31.42-.28l.81.11c.14.02.29-.05.37-.17l.63-.98c.14-.21.43-.23.6-.04.58.67,1.72,2.14,1.89,3.36.12.81.08,1.86.14,2.32Z"/><path class="cls-6" d="m138.73,73.36s-.79-2.05-1.82-2.83c-1.03-.77-3.65-1.5-3.65-1.5"/><path class="cls-6" d="m136.03,65.2s.79,2.05,1.82,2.83c1.03.77,3.65,1.5,3.65,1.5"/><path class="cls-8" d="m155.93,73.68c-.36.15-.52.59-.33.94.24.44.98,1.09,1.31,1.75.63,1.26.92,3.43.83,4.28s-1.56-.16-1.56-.16l-1.02.89c-.23.2-.59.18-.79-.05l-.15-.18c-.16-.18-.41-.24-.63-.15l-1.39.56c-.27.11-.57,0-.71-.26l-.37-.69c-.12-.22-.36-.34-.61-.29l-.77.15c-.36.07-.69-.22-.67-.58v-.06c.02-.33-.25-.61-.59-.59l-1.04.05.19-1.1-.76-.02c-.44,0-.71-.51-.46-.87.54-.79,1.42-1.91,2.39-2.41.79-.41,2.14-.69,2.92-.93.6-.19.79-.93.36-1.38-.52-.54-1.44-1.25-1.65-1.59-.42-.68-.83-2.25-.76-3.22.04-.59.27-1.45.44-2.05.08-.29.46-.36.65-.13l.99,1.21.41-.81c.1-.19.33-.26.51-.16l.77.41c.12.06.26.06.38-.01l.98-.61c.18-.11.41-.06.52.12l.6.98c.08.13.22.19.37.18l1.04-.14c.21-.03.39.12.42.32l.06.45c.03.19.19.33.38.33l.59-.02c.19,0,.36.14.38.33l.11.81c.02.14.12.27.26.31l1.11.35c.24.07.34.36.2.56-.5.73-1.6,2.23-2.73,2.72-.75.33-1.77.58-2.2.76Z"/><path class="cls-6" d="m150.37,76s1.77-1.31,2.24-2.51c.47-1.2.47-3.92.47-3.92"/><path class="cls-6" d="m157.51,71.22s-1.77,1.31-2.24,2.51c-.47,1.2-.47,3.92-.47,3.92"/><path class="cls-8" d="m148.27,59.21c-.39-.07-.75.2-.79.6-.05.5.22,1.44.13,2.18-.16,1.4-1.13,3.37-1.67,4.03-.54.66-1.21-1-1.21-1l-1.34.18c-.31.04-.59-.17-.63-.48l-.03-.23c-.03-.24-.21-.43-.44-.48l-1.46-.3c-.28-.06-.47-.32-.45-.6l.07-.77c.02-.25-.12-.48-.35-.57l-.72-.29c-.34-.14-.46-.56-.24-.86l.04-.05c.2-.27.12-.65-.16-.82l-.89-.53.76-.81-.62-.43c-.36-.25-.31-.81.1-.98.88-.36,2.24-.81,3.32-.69.89.1,2.16.61,2.95.84.6.17,1.17-.34,1.06-.95-.13-.74-.51-1.83-.5-2.23.02-.8.55-2.33,1.15-3.1.36-.46,1.03-1.06,1.5-1.46.23-.2.58-.05.61.25l.16,1.56.79-.45c.18-.1.42-.04.52.15l.41.77c.06.12.19.19.32.2l1.16.03c.21,0,.37.18.37.39l-.04,1.15c0,.15.08.28.21.35l.94.46c.19.09.26.32.17.5l-.2.41c-.08.17-.02.38.14.48l.5.31c.16.1.22.31.14.48l-.36.73c-.06.13-.05.29.05.4l.74.9c.16.19.09.49-.14.58-.82.34-2.57.97-3.78.76-.81-.14-1.8-.5-2.25-.58Z"/><path class="cls-6" d="m142.35,58.07s2.2-.12,3.25-.86c1.06-.74,2.56-3.01,2.56-3.01"/><path class="cls-6" d="m150.94,58.03s-2.2.12-3.25.86c-1.06.74-2.56,3.01-2.56,3.01"/><path class="cls-9" d="m171.72,71.54c-1.11,0-2.02-.91-2.02-2.02s.91-2.02,2.02-2.02,2.02.91,2.02,2.02-.91,2.02-2.02,2.02Z"/><path d="m171.72,68c.84,0,1.52.68,1.52,1.52s-.68,1.52-1.52,1.52-1.52-.68-1.52-1.52.68-1.52,1.52-1.52m0-1c-1.39,0-2.52,1.13-2.52,2.52s1.13,2.52,2.52,2.52,2.52-1.13,2.52-2.52-1.13-2.52-2.52-2.52h0Z"/><path class="cls-9" d="m177.4,65.87c-1.11,0-2.02-.91-2.02-2.02s.91-2.02,2.02-2.02,2.02.91,2.02,2.02-.91,2.02-2.02,2.02Z"/><path d="m177.4,62.33c.84,0,1.52.68,1.52,1.52s-.68,1.52-1.52,1.52-1.52-.68-1.52-1.52.68-1.52,1.52-1.52m0-1c-1.39,0-2.52,1.13-2.52,2.52s1.13,2.52,2.52,2.52,2.52-1.13,2.52-2.52-1.13-2.52-2.52-2.52h0Z"/><path class="cls-9" d="m171.72,61.98c-1.11,0-2.02-.91-2.02-2.02s.91-2.02,2.02-2.02,2.02.91,2.02,2.02-.91,2.02-2.02,2.02Z"/><path d="m171.72,58.44c.84,0,1.52.68,1.52,1.52s-.68,1.52-1.52,1.52-1.52-.68-1.52-1.52.68-1.52,1.52-1.52m0-1c-1.39,0-2.52,1.13-2.52,2.52s1.13,2.52,2.52,2.52,2.52-1.13,2.52-2.52-1.13-2.52-2.52-2.52h0Z"/></svg>