<?xml version="1.0" encoding="UTF-8"?>
<svg id="Calque_1" data-name="Calque 1" xmlns="http://www.w3.org/2000/svg" viewBox="0 0 200 128">
  <defs>
    <style>
      .cls-1 {
        fill: #d6d6d6;
      }

      .cls-1, .cls-2, .cls-3, .cls-4, .cls-5, .cls-6, .cls-7 {
        stroke-linecap: round;
        stroke-linejoin: round;
      }

      .cls-1, .cls-2, .cls-3, .cls-4, .cls-5, .cls-7 {
        stroke: #000;
      }

      .cls-2, .cls-5 {
        fill: #fff;
      }

      .cls-3, .cls-6 {
        fill: none;
      }

      .cls-4 {
        fill: #fab0b4;
      }

      .cls-5 {
        stroke-width: 2px;
      }

      .cls-6 {
        stroke: #fff;
        stroke-width: 8px;
      }
    </style>
  </defs>
  <path class="cls-2" d="m52.61,52.1c.02-.24.05-.48.07-.73.54-4.9,2.84-5.26,2.91-6.5.06-1.26-4.19-3.53-4.06-8.92.02-.59,0-1.14-.06-1.68-.41-4.42-2.85-7.11-4.32-8.51,0,0-4.98,8.88-6.05,10.31-1.05,1.42-4.56,5.6-7.22,4.66-2.43-.86-4.54-2.66-6.58-1.3-2.04,1.34-2.17,5.75.26,7.16,0,0-2.37,4.37-3.28,7.4l-4.35,11.18"/>
  <path class="cls-2" d="m52.19,56.18c-.38,2.19-1.27,3.56-4.21,3.71-4.45.23-9.35-.9-10.43-1.51l6.43,10.1"/>
  <path class="cls-2" d="m48.58,97.31c10.82,2.31,22.76,4.77,25.71,5.06,6.51.64,10.57-6.09,11.1-8.4,1.24-5.45,3.82-30.15,3.82-30.15l-3.81-.04c-.91,0-1.82.03-2.73.13l-5.49.58-.75.07-6.45,18.98-22.04-5.93c.87,4.59,1.25,11.02.65,19.69Z"/>
  <path class="cls-2" d="m11.2,112.38c1.9-11.32,5.66-30.73,6.39-33.85,1.57-6.65,10.75-13.28,16.34-7.06.81.91,1.43,1.88,1.91,2.89,3,6.31.29,14.07.29,14.07-.18.7-.67,2.89-1.33,5.92-1.06,4.84-2.53,11.8-3.85,18.02"/>
  <path class="cls-2" d="m46.85,112.38c.87-5.65,1.43-10.66,1.74-15.07.6-8.68.23-15.1-.65-19.69-.95-5.08-2.49-7.92-3.96-9.13l-13.7-6.03c-3.26-1.09-6.83-.38-9.43,1.87-2.53,2.19-5.37,5.61-7.02,10.73-4.32,13.42-5.17,26.56-5.17,26.56,0,0-.47,4.48-1.03,10.77"/>
  <path class="cls-2" d="m30.96,112.38c1.32-6.23,2.79-13.18,3.85-18.02.65-3.03,1.14-5.23,1.33-5.92,0,0,2.72-7.76-.29-14.07-.48-1.02-1.1-1.99-1.91-2.89-5.6-6.22-14.78.41-16.34,7.06-.74,3.11-4.49,22.53-6.39,33.85"/>
  <path class="cls-3" d="m51.88,38.72s3.39-6.19,2.5-11c-1.07-5.8-6.31-5.84-6.31-5.84-2.89-4.57-15.26-7.06-26.55-.68-8.24,4.66-6.74,12.57-3.99,17.35"/>
  <path class="cls-3" d="m15.54,34.36s-1.84,5.67,1.17,10.05c2.62,3.83,5.72,7.88,6.3,12.33"/>
  <ellipse class="cls-7" cx="45.41" cy="40.45" rx="1.58" ry=".73" transform="translate(1.8 82.84) rotate(-85.88)"/>
  <line class="cls-2" x1="29.33" y1="42.65" x2="30.51" y2="43.1"/>
  <g>
    <path class="cls-1" d="m57.81,52.12s.07-.03.11-.03c.59,0,1.18,0,1.78,0,.63,0,1.25,0,1.88,0,.53,0,1.06,0,1.58.01.63,0,1.25,0,1.88,0,.43,0,.85.02,1.28.01.46,0,.89.1,1.3.3.46.22.83.53,1.1.93.32.48.76.82,1.36.98.32.09.66.09.99.1.38,0,.76.04,1.14.05.49.01.97.05,1.46.07.92.04,1.84.08,2.76.13.58.03,1.16.05,1.74.08.91.04,1.82.08,2.73.13.58.03,1.17.05,1.75.08.91.04,1.81.08,2.72.13.6.03,1.19.05,1.79.08.8.04,5.82.27,6.62.31.81.05,1.44.66,1.46,1.38.02.73-.59,1.34-1.4,1.39-.39.02-5-.25-5.39-.29-.31-.03-.61-.07-.91-.1-.75-.07-1.5-.14-2.25-.22-1.09-.11-2.19-.22-3.28-.33-.8-.08-1.6-.16-2.41-.24-.84-.08-1.68-.17-2.52-.25-.83-.08-1.66-.17-2.49-.25-.82-.08-1.65-.16-2.47-.25-.56-.06-1.13-.13-1.69-.17-.74-.05-1.36.18-1.83.69-.52.56-1.16.92-1.97,1.01-.39.04-.78-.03-1.17-.08-.31-.04-.62-.09-.94-.13-.57-.08-1.14-.16-1.71-.23-.42-.06-.84-.11-1.25-.17-.57-.08-1.15-.16-1.72-.23-.41-.06-.83-.11-1.24-.17-.3-.04-.6-.08-.9-.12-.17-.02-.26-.11-.31-.25-.07-.24.31-4.29.44-4.38Z"/>
    <g>
      <line class="cls-1" x1="57.73" y1="55.24" x2="64.61" y2="55.74"/>
      <line class="cls-1" x1="57.85" y1="53.55" x2="64.73" y2="54.05"/>
    </g>
  </g>
  <path class="cls-2" d="m72.29,55.74c.24.16.48.41.72.79.19.32.38.61.56.89.42.62.8,1.13,1.2,1.63.2.26.43.53.67.77.62.63,1.33,1.19,2.11,1.6l.5.26c.63.19.98.5,1.16.72.5.59.41.84.4,1.68l6.94-.29c.12-.61.28-1.29.5-2.01.26-.89.5-1.44.75-1.96.22-.49.42-.95.65-1.6l-5.84-.31-1.41-.07h-.02l-.98-.06h-.01c-.13-.02-.25-.07-.37-.13-.59-.29-1.5-.48-2.41-1.63-.66-.83-2-1.9-3.52-2.45-.34-.13-.81-.22-1.31-.25-.86-.06-1.71.06-1.76.43-.26,1.99.51,1.33,1.47,2.01Z"/>
  <path class="cls-2" d="m75.82,53.65c-.03.72.52,1.34,1.21,1.37l7.5.41,4.38.23c.7.04,1.29-.52,1.32-1.24l.05-1.18.02-.39h0c.03-.73-.52-1.34-1.21-1.38l-11.88-.64c-.7-.04-1.28.52-1.32,1.23h0s-.07,1.59-.07,1.59Z"/>
  <path class="cls-3" d="m52.59,52.46s-2.59-.04-4.65-1.63c0,0-2.28,3.21,4.25,5.35"/>
  <path class="cls-2" d="m152.86,52.1c.02-.24.05-.48.07-.73.54-4.9,2.84-5.26,2.91-6.5.06-1.26-4.19-3.53-4.06-8.92.02-.59,0-1.14-.06-1.68-.41-4.42-2.85-7.11-4.32-8.51,0,0-4.98,8.88-6.05,10.31-1.05,1.42-4.56,5.6-7.22,4.66-2.43-.86-4.54-2.66-6.58-1.3-2.04,1.34-2.17,5.75.26,7.16,0,0-2.37,4.37-3.28,7.4l-4.35,11.18"/>
  <path class="cls-2" d="m152.44,56.18c-.38,2.19-1.27,3.56-4.21,3.71-4.45.23-9.35-.9-10.43-1.51l6.43,10.1"/>
  <path class="cls-2" d="m148.83,97.31c10.82,2.31,22.76,4.77,25.71,5.06,6.51.64,10.57-6.09,11.1-8.4,1.24-5.45,3.82-30.15,3.82-30.15l-3.81-.04c-.91,0-1.82.03-2.73.13l-5.49.58-.75.07-6.45,18.98-22.04-5.93c.87,4.59,1.25,11.02.65,19.69Z"/>
  <path class="cls-2" d="m111.45,112.38c1.9-11.32,5.66-30.73,6.39-33.85,1.57-6.65,10.75-13.28,16.34-7.06.81.91,1.43,1.88,1.91,2.89,3,6.31.29,14.07.29,14.07-.18.7-.67,2.89-1.33,5.92-1.06,4.84-2.53,11.8-3.85,18.02"/>
  <path class="cls-2" d="m147.09,112.38c.87-5.65,1.43-10.66,1.74-15.07.6-8.68.23-15.1-.65-19.69-.95-5.08-2.49-7.92-3.96-9.13l-13.7-6.03c-3.26-1.09-6.83-.38-9.43,1.87-2.53,2.19-5.37,5.61-7.02,10.73-4.32,13.42-5.17,26.56-5.17,26.56,0,0-.47,4.48-1.03,10.77"/>
  <path class="cls-2" d="m131.21,112.38c1.32-6.23,2.79-13.18,3.85-18.02.65-3.03,1.14-5.23,1.33-5.92,0,0,2.72-7.76-.29-14.07-.48-1.02-1.1-1.99-1.91-2.89-5.6-6.22-14.78.41-16.34,7.06-.74,3.11-4.49,22.53-6.39,33.85"/>
  <path class="cls-3" d="m152.13,38.72s3.39-6.19,2.5-11c-1.07-5.8-6.31-5.84-6.31-5.84-2.89-4.57-15.26-7.06-26.55-.68-8.24,4.66-6.74,12.57-3.99,17.35"/>
  <path class="cls-3" d="m115.79,34.36s-1.84,5.67,1.17,10.05c2.62,3.83,5.72,7.88,6.3,12.33"/>
  <ellipse class="cls-7" cx="145.66" cy="40.45" rx="1.58" ry=".73" transform="translate(94.85 182.83) rotate(-85.88)"/>
  <line class="cls-2" x1="129.58" y1="42.65" x2="130.76" y2="43.1"/>
  <g>
    <path class="cls-1" d="m158.06,52.12s.07-.03.11-.03c.59,0,1.18,0,1.78,0,.63,0,1.25,0,1.88,0,.53,0,1.06,0,1.58.01.63,0,1.25,0,1.88,0,.43,0,.85.02,1.28.01.46,0,.89.1,1.3.3.46.22.83.53,1.1.93.32.48.76.82,1.36.98.32.09.66.09.99.1.38,0,.76.04,1.14.05.49.01.97.05,1.46.07.92.04,1.84.08,2.76.13.58.03,1.16.05,1.74.08.91.04,1.82.08,2.73.13.58.03,1.17.05,1.75.08.91.04,1.81.08,2.72.13.6.03,1.19.05,1.79.08.8.04,5.82.27,6.62.31.81.05,1.44.66,1.46,1.38.02.73-.59,1.34-1.4,1.39-.39.02-5-.25-5.39-.29-.31-.03-.61-.07-.91-.1-.75-.07-1.5-.14-2.25-.22-1.09-.11-2.19-.22-3.28-.33-.8-.08-1.6-.16-2.41-.24-.84-.08-1.68-.17-2.52-.25-.83-.08-1.66-.17-2.49-.25-.82-.08-1.65-.16-2.47-.25-.56-.06-1.13-.13-1.69-.17-.74-.05-1.36.18-1.83.69-.52.56-1.16.92-1.97,1.01-.39.04-.78-.03-1.17-.08-.31-.04-.62-.09-.94-.13-.57-.08-1.14-.16-1.71-.23-.42-.06-.84-.11-1.25-.17-.57-.08-1.15-.16-1.72-.23-.41-.06-.83-.11-1.24-.17-.3-.04-.6-.08-.9-.12-.17-.02-.26-.11-.31-.25-.07-.24.31-4.29.44-4.38Z"/>
    <g>
      <line class="cls-1" x1="157.97" y1="55.24" x2="164.86" y2="55.74"/>
      <line class="cls-1" x1="158.1" y1="53.55" x2="164.98" y2="54.05"/>
    </g>
  </g>
  <path class="cls-2" d="m172.53,55.74c.24.16.48.41.72.79.19.32.38.61.56.89.42.62.8,1.13,1.2,1.63.2.26.43.53.67.77.62.63,1.33,1.19,2.11,1.6l.5.26c.63.19.98.5,1.16.72.5.59.41.84.4,1.68l6.94-.29c.12-.61.28-1.29.5-2.01.26-.89.5-1.44.75-1.96.22-.49.42-.95.65-1.6l-5.84-.31-1.41-.07h-.02l-.98-.06h-.01c-.13-.02-.25-.07-.37-.13-.59-.29-1.5-.48-2.41-1.63-.66-.83-2-1.9-3.52-2.45-.34-.13-.81-.22-1.31-.25-.86-.06-1.71.06-1.76.43-.26,1.99.51,1.33,1.47,2.01Z"/>
  <path class="cls-2" d="m176.06,53.65c-.03.72.52,1.34,1.21,1.37l7.5.41,4.38.23c.7.04,1.29-.52,1.32-1.24l.05-1.18.02-.39h0c.03-.73-.52-1.34-1.21-1.38l-11.88-.64c-.7-.04-1.28.52-1.32,1.23h0s-.07,1.59-.07,1.59Z"/>
  <path class="cls-3" d="m152.84,52.46s-4.1-1.46-6.23,2.35c0,0,4.47.38,5.84,1.38"/>
  <line class="cls-5" x1="100" y1="10.13" x2="100" y2="117.87"/>
  <line class="cls-3" x1="144.48" y1="36.58" x2="147.5" y2="35.15"/>
  <path class="cls-4" d="m82.23,20.28c0-2.76-2.25-5.01-5.01-5.01-2.03,0-3.77,1.21-4.56,2.94-.79-1.73-2.53-2.94-4.56-2.94-2.76,0-5.01,2.25-5.01,5.01,0,.58.1,1.14.28,1.66.21.59.53,1.13.93,1.6.17.2.36.39.56.56l7.64,7.59s.11.07.17.07.12-.02.17-.07l7.92-7.87h0c.51-.52.92-1.14,1.17-1.84.19-.53.3-1.1.3-1.7Z"/>
  <path class="cls-4" d="m188.32,20.28c0-2.76-2.25-5.01-5.01-5.01-2.03,0-3.77,1.21-4.56,2.94-.79-1.73-2.53-2.94-4.56-2.94-2.76,0-5.01,2.25-5.01,5.01,0,.58.1,1.14.28,1.66.21.59.53,1.13.93,1.6.17.2.36.39.56.56l7.64,7.59s.11.07.17.07.12-.02.17-.07l7.92-7.87h0c.51-.52.92-1.14,1.17-1.84.19-.53.3-1.1.3-1.7Z"/>
  <g>
    <line class="cls-4" x1="166.79" y1="11.94" x2="190.72" y2="33.34"/>
    <line class="cls-4" x1="189.46" y1="10.67" x2="168.06" y2="34.61"/>
  </g>
  <rect class="cls-6" x="-1270.26" y="-368.22" width="3385.57" height="2571.67"/>
</svg>