<?xml version="1.0" encoding="UTF-8"?>
<svg id="Calque_1" data-name="Calque 1" xmlns="http://www.w3.org/2000/svg" viewBox="0 0 128 128">
  <defs>
    <style>
      .cls-1 {
        fill: #d6d6d6;
      }

      .cls-1, .cls-2, .cls-3, .cls-4, .cls-5, .cls-6 {
        stroke-linecap: round;
        stroke-linejoin: round;
      }

      .cls-1, .cls-2, .cls-3, .cls-4, .cls-5, .cls-7 {
        stroke: #000;
      }

      .cls-2 {
        fill: #87ccf3;
      }

      .cls-3, .cls-8 {
        fill: #ff6d75;
      }

      .cls-4, .cls-9 {
        fill: #fff;
      }

      .cls-5, .cls-6, .cls-7 {
        fill: none;
      }

      .cls-10 {
        fill: #f3d587;
      }

      .cls-6 {
        stroke: #fff;
        stroke-width: 8px;
      }

      .cls-7 {
        stroke-miterlimit: 10;
      }
    </style>
  </defs>
  <path class="cls-4" d="m33.2,56.17c-.61-.96-.89-2.08-1.24-3.16-.05-.16-.1-.31-.2-.45-.07-.1-.17-.19-.27-.28-1.33-1.19-2.27-2.87-3.49-4.19-.54-.58-.99-1.23-1.54-1.79-.82-.83-1.53-1.64-1.79-2.82-.11-.49-.06-1.03.23-1.43.05-.07.11-.14.12-.23,0-.05-.02-.11-.04-.16-.41-.97-.57-2.01.23-2.85-.33-.69-.57-1.27-.07-1.98.81-1.15,1.99-.92,3.13-.59.85.25,1.67.58,2.45.98,1.53.8,2.92,1.89,4.04,3.2.31.36.6.74.93,1.07.55.54,1.23.87,1.73,1.47.49.59.82,1.31,1.04,2.04.35,1.13.45,2.33.65,3.49.3,1.75.81,3.45,1.33,5.15"/>
  <rect class="cls-4" x="28.07" y="31.65" width="4.57" height="9.82"/>
  <path class="cls-4" d="m32.5,32.7h-4.3c-.54,0-.98-.44-.98-.98h0c0-.54.44-.98.98-.98h4.3c.54,0,.98.44.98.98h0c0,.54-.44.98-.98.98Z"/>
  <path class="cls-4" d="m38.87,46.94c-.29-3.47-.46-5.16-1.79-6.55-.45-.47-.99-.84-1.51-1.22-1.31-.94-2.58-1.96-3.64-3.16-.3-.33-.61-.7-1.05-.79-1.34-.26-.88,2.13-.57,2.74.82,1.63,2.61,2.67,2.77,4.66.04.53-.07,1.06-.1,1.59-.06.98.16,1.96.4,2.92.48,1.91.46,2.09,1.12,3.95"/>
  <path class="cls-4" d="m28.56,36.16c-.05.36-.17.74-.48.93-.11.07-.24.1-.36.11-.54.05-1.19-.34-1.4-.84-.48-1.1.21-2.41,1.27-2.85.19-.08.41-.1.6-.01.33.16.41.58.42.94.03.58.03,1.14-.05,1.72Z"/>
  <g>
    <path class="cls-9" d="m67.45,44.25c-3.7,1.24-6.28,2.39-8.29,4.26-2.51,2.33-4.45,6.02-5.89,9.07-1.24,2.61-2.63,5.25-3.94,7.93-.35-.72-.71-1.43-1.07-2.14-1.29-2.56-2.63-5.09-4.04-7.59-1.22-2.17-4.16-7.2-4.38-7.24-.28-.05-2.19.85-2.57,1.03-2.1.98-4.1,2.16-5.99,3.51-.31.22-.62.45-.8.78-.31.53-.04.98.17,1.48,1.92,4.61,3.65,9.3,5.59,13.9,1.85,4.41,3.6,9.24,6.38,13.17,2.05,2.91,4.58,5.48,8.42,5.19.18-.01.35-.04.52-.08.01,0,.03,0,.04,0,0,0,.02,0,.03,0,.04,0,.08-.02.12-.03.02,0,.04-.01.06-.02,0,0,0,0,0,0h0c.1-.03.19-.07.29-.11,3.05-1.18,4.61-3.46,5.11-4.23,5.18-8,8.28-18.18,10.25-27.44.61-2.85,2.52-9.15,0-11.42Z"/>
    <path class="cls-5" d="m67.45,44.25c-3.7,1.24-6.28,2.39-8.29,4.26-2.51,2.33-4.45,6.02-5.89,9.07-1.24,2.61-2.63,5.25-3.94,7.93-.35-.72-.71-1.43-1.07-2.14-1.29-2.56-2.63-5.09-4.04-7.59-1.22-2.17-4.16-7.2-4.38-7.24-.28-.05-2.19.85-2.57,1.03-2.1.98-4.1,2.16-5.99,3.51-.31.22-.62.45-.8.78-.31.53-.04.98.17,1.48,1.92,4.61,3.65,9.3,5.59,13.9,1.85,4.41,3.6,9.24,6.38,13.17,2.05,2.91,4.58,5.48,8.42,5.19.18-.01.35-.04.52-.08.01,0,.03,0,.04,0,0,0,.02,0,.03,0,.04,0,.08-.02.12-.03.02,0,.04-.01.06-.02,0,0,0,0,0,0h0c.1-.03.19-.07.29-.11,3.05-1.18,4.61-3.46,5.11-4.23,5.18-8,8.28-18.18,10.25-27.44.61-2.85,2.52-9.15,0-11.42Z"/>
  </g>
  <g>
    <path class="cls-8" d="m28.07,41.47h4.57v13.54c0,.97-.79,1.77-1.77,1.77h-1.04c-.97,0-1.77-.79-1.77-1.77v-13.54h0Z"/>
    <path class="cls-5" d="m28.07,41.47h4.57v13.54c0,.97-.79,1.77-1.77,1.77h-1.04c-.97,0-1.77-.79-1.77-1.77v-13.54h0Z"/>
  </g>
  <path class="cls-4" d="m105.92,125.59h-53.99c-.54-.77.82-17.17,1.94-28.45,1.86-18.65,3.7-29.56,5.72-42.64.41-2.62,1.2-5.42,2.3-6.76,1.71-2.08,4.19-2.98,6.64-3.9l6.89,22.09,13.5-22.23c.06.02.11.04.17.06,2.1.11,5.92,1.56,8.22,2.83,4.11,2.26,6.38,6.32,8.62,10.26,2.95,5.17,5.61,10.54,7.32,16.26,1.54,5.17,2.79,10.42,3.78,15.72,1.24,6.64,2.07,13.36,2.57,20.13"/>
  <polyline class="cls-4" points="63.73 45.65 65.54 59.56 67.9 60.06 66.68 61.62 75.42 84.67"/>
  <line class="cls-4" x1="75.42" y1="84.67" x2="93.95" y2="45.05"/>
  <rect class="cls-4" x="51.33" y="101.59" width="4.32" height="9.29" transform="translate(106.98 212.47) rotate(-180)"/>
  <path class="cls-3" d="m55.48,120.81h-3.98c-3.02,0-4.9-3.27-3.39-5.88l1.99-3.45c.32-.56.75-.99,1.23-1.31v-3.78h4.32v3.77c.49.31.92.76,1.24,1.32l1.99,3.45c1.51,2.61-.38,5.88-3.4,5.88Z"/>
  <path class="cls-4" d="m51.46,102.58h4.07c.51,0,.93-.41.93-.93h0c0-.51-.41-.93-.93-.93h-4.07c-.51,0-.93.41-.93.93h0c0,.51.41.93.93.93Z"/>
  <rect class="cls-1" x="59.41" y="67.9" width="7.43" height="3.79"/>
  <rect class="cls-4" x="33.06" y="92.94" width="4.57" height="9.82" transform="translate(70.68 195.7) rotate(-180)"/>
  <g>
    <path class="cls-10" d="m34.82,96.67h1.04c.97,0,1.77.79,1.77,1.77v19.62h-4.57v-19.62c0-.97.79-1.77,1.77-1.77Z" transform="translate(70.68 214.73) rotate(180)"/>
    <path class="cls-5" d="m34.82,96.67h1.04c.97,0,1.77.79,1.77,1.77v19.62h-4.57v-19.62c0-.97.79-1.77,1.77-1.77Z" transform="translate(70.68 214.73) rotate(180)"/>
  </g>
  <path class="cls-4" d="m33.19,93.99h4.3c.54,0,.98-.44.98-.98h0c0-.54-.44-.98-.98-.98h-4.3c-.54,0-.98.44-.98.98h0c0,.54.44.98.98.98Z"/>
  <rect class="cls-4" x="24.12" y="92.94" width="4.57" height="9.82" transform="translate(52.81 195.7) rotate(-180)"/>
  <g>
    <path class="cls-10" d="m25.89,100.73h1.04c.97,0,1.77.79,1.77,1.77v15.56h-4.57v-15.56c0-.97.79-1.77,1.77-1.77Z" transform="translate(52.81 218.79) rotate(180)"/>
    <path class="cls-5" d="m25.89,100.73h1.04c.97,0,1.77.79,1.77,1.77v15.56h-4.57v-15.56c0-.97.79-1.77,1.77-1.77Z" transform="translate(52.81 218.79) rotate(180)"/>
  </g>
  <path class="cls-4" d="m24.26,93.99h4.3c.54,0,.98-.44.98-.98h0c0-.54-.44-.98-.98-.98h-4.3c-.54,0-.98.44-.98.98h0c0,.54.44.98.98.98Z"/>
  <rect class="cls-4" x="15.19" y="92.94" width="4.57" height="9.82" transform="translate(34.94 195.7) rotate(-180)"/>
  <g>
    <path class="cls-10" d="m16.95,98.02h1.04c.97,0,1.77.79,1.77,1.77v18.28h-4.57v-18.28c0-.97.79-1.77,1.77-1.77Z" transform="translate(34.94 216.08) rotate(180)"/>
    <path class="cls-5" d="m16.95,98.02h1.04c.97,0,1.77.79,1.77,1.77v18.28h-4.57v-18.28c0-.97.79-1.77,1.77-1.77Z" transform="translate(34.94 216.08) rotate(180)"/>
  </g>
  <path class="cls-4" d="m15.32,93.99h4.3c.54,0,.98-.44.98-.98h0c0-.54-.44-.98-.98-.98h-4.3c-.54,0-.98.44-.98.98h0c0,.54.44.98.98.98Z"/>
  <polygon class="cls-1" points="41.73 119.04 41.73 108.14 39.99 108.14 39.99 119.04 12.36 119.04 12.36 108.14 10.62 108.14 10.62 119.04 9.33 119.04 9.33 120.78 42.9 120.78 42.9 119.04 41.73 119.04"/>
  <line class="cls-4" x1="42.55" y1="108.14" x2="9.8" y2="108.14"/>
  <line class="cls-4" x1="42.55" y1="114.02" x2="9.8" y2="114.02"/>
  <rect class="cls-1" x="7.01" y="121.32" width="117.06" height="4.33"/>
  <path class="cls-5" d="m79.38,5.28s-.01,2.42.88,4.05h.02"/>
  <path class="cls-5" d="m84.07,10.36c1.91-1.11,3.21-3.91,3.21-3.91"/>
  <path class="cls-5" d="m90.12,32.57h.02c.22-.05,1.8-.45,2.71-2.94,1-2.67,2.14-2.37,2.25-5.13.07-2.61-2.64-1.48-2.93-1.33"/>
  <path class="cls-5" d="m67.97,8.71s1.87,1.11,3.96,1.49"/>
  <path class="cls-4" d="m88.03,11.54c-1.19.06-2.58-.22-3.96-1.19-.58.35-1.19.52-1.84.45-.92-.09-1.53-.71-1.96-1.47-.02.02-.05.04-.07.04-.26.24-1.91,1.7-3.96-.28-1.07,1.28-2.75,1.42-4.31,1.12-.94.72-2.21.64-2.21.64-.07.1-.17.23-.22.33-3.83,5.4-4.2,9.07-4.23,9.47-.23-.96-.4-1.88-.54-2.75.2,1.62.51,2.79.58,3.04v.02s.02.05.02.05h-.02c-.05,1.53-.07,5.5.56,9.59.53,3.41,1.56,6.92,3.43,9.18,4.33,5.26,7.13,5.37,7.55,5.34.43.1,3.39.55,8.5-4.01,2.2-1.94,3.75-5.26,4.8-8.54,1.25-3.95,1.84-7.87,2.03-9.4h-.02c.03-.17.05-.35.04-.55-.06.15-.11.23-.11.23.05-.63.05-1.27.04-1.89-.41-3.18-3.32-8.44-3.67-9.35l-.43-.08Z"/>
  <path class="cls-5" d="m92.12,20.97c.09.6.11,1.15.07,1.66"/>
  <path class="cls-5" d="m92.14,23.17s0-.02.03-.04v-.02c.13-.3.83-1.85,1.3-3.97v-.07c.95-4.24.98-10.64-6.06-13.5,0,0-.44-2.32-3.41-1.96,0,0-3.45-3.77-7.61-.68-2.89-.82-3.67,1.41-3.67,1.41-7.96,1.87-8.47,9.05-8.01,13.33.02.09.03.16.03.22"/>
  <path class="cls-5" d="m69.42,11.62s-4.09,5.96-4.09,9.39"/>
  <path class="cls-5" d="m65.31,21.01v-.04"/>
  <path class="cls-5" d="m65.33,20.35s-.02.22-.02.59"/>
  <path class="cls-5" d="m65.88,30.61h-.02c-.21-.08-1.7-.73-2.23-3.32-.58-2.8-1.75-2.67-1.43-5.41.33-2.59,2.83-1.06,3.1-.86"/>
  <path class="cls-5" d="m74.55,6.74c.52.96,1.04,1.69,1.53,2.19.06.07.1.14.16.17"/>
  <path class="cls-5" d="m80.2,9.37l.05-.04"/>
  <path class="cls-4" d="m77.9,24.73s-.68,4.49-2.47,8.62c0,0,.35.84,3.03.32"/>
  <ellipse class="cls-4" cx="82.96" cy="24.61" rx=".83" ry=".29" transform="translate(52.03 105.43) rotate(-85.58)"/>
  <ellipse class="cls-4" cx="71.62" cy="23.52" rx=".83" ry=".29" transform="translate(42.64 93.12) rotate(-85.58)"/>
  <line class="cls-5" x1="88.92" y1="43.7" x2="85.34" y2="41.11"/>
  <line class="cls-5" x1="70.78" y1="41.47" x2="68.62" y2="43.81"/>
  <path class="cls-2" d="m75.42,65.93l-6.8-22.12c7.62,15.33,20.29-.11,20.29-.11l-13.5,22.23Z"/>
  <line class="cls-5" x1="75.42" y1="121.32" x2="75.42" y2="65.93"/>
  <g>
    <path class="cls-1" d="m124.53,98.41c-.47-17.92-15.34-20.69-15.34-20.69h-7.86v15.51l3.46-.1h.02s2.36-.07,2.36-.07c0,0,1.4-4.71,4.28-4.74,2.89.03,6.2,3.36,6.37,9.92.18,6.56-4.44,9.89-6.56,9.92-2.09-.02-3.39-1.58-3.39-1.58h-7.99l3.73,3.86v7.02h8.39s12.97-2.45,12.53-19.05Z"/>
    <rect class="cls-4" x="93.76" y="82.22" width="5.79" height="11.36"/>
    <rect class="cls-1" x="91.98" y="70.58" width="9.34" height="21.09"/>
    <rect class="cls-1" x="93.76" y="59.22" width="5.79" height="11.36"/>
    <polygon class="cls-1" points="101.33 70.58 91.98 70.58 93.76 68.12 99.55 68.12 101.33 70.58"/>
    <rect class="cls-1" x="88.21" y="117.46" width="32.13" height="3.51"/>
    <rect class="cls-1" x="84.08" y="104.12" width="23.79" height="2.46"/>
    <rect class="cls-1" x="83.62" y="90.61" width="3.51" height="3.42" transform="translate(74.5 -32.95) rotate(37.8)"/>
    <rect class="cls-1" x="94.47" y="94.75" width="3.51" height="3.42" transform="translate(192.5 192.88) rotate(179.97)"/>
    <g>
      <polygon class="cls-1" points="99.83 92.97 99.34 94.41 84.07 89.19 84.57 87.75 99.83 92.97"/>
      <path class="cls-1" d="m84.07,89.2l15.26,5.23s-3.51,1.03-8.31-.62c-4.81-1.64-6.95-4.61-6.95-4.61Z"/>
    </g>
    <rect class="cls-1" x="88.5" y="93.68" width="3.51" height="3.42" transform="translate(36.76 -24.54) rotate(19.38)"/>
    <line class="cls-4" x1="118.35" y1="117.46" x2="118.58" y2="114.02"/>
  </g>
  <path class="cls-7" d="m90.29,21.67l-1.34,6.73c-.11.53-.58.91-1.12.89l-7.02-.22c-.55-.02-1.01-.44-1.07-.99-.14-1.29-.53-3.45-1.63-3.64-1.14-.19-2.29,2.02-2.83,3.25-.21.46-.7.73-1.2.64l-7.52-1.29c-.54-.09-.93-.56-.92-1.11l.11-6.8,24.54,2.53Z"/>
  <path class="cls-5" d="m91.82,25.49l-1.91-1.97.37-1.86,1.88,1.51v-.04s0,0,0-.02c.05-.3.06-.5.07-.57v-.02"/>
  <rect class="cls-6" x="-1086.02" y="-308.58" width="2179.47" height="547.09"/>
</svg>