<?xml version="1.0" encoding="UTF-8"?><svg id="Calque_1" xmlns="http://www.w3.org/2000/svg" viewBox="0 0 128 128"><defs><style>.cls-1,.cls-2,.cls-3,.cls-4,.cls-5{stroke:#000;}.cls-1,.cls-2,.cls-6,.cls-4,.cls-7,.cls-8,.cls-9,.cls-5{stroke-linecap:round;stroke-linejoin:round;}.cls-1,.cls-2,.cls-4,.cls-7,.cls-8,.cls-9,.cls-5{stroke-width:2px;}.cls-1,.cls-8{fill:#76ac75;}.cls-2,.cls-7{fill:#fff;}.cls-3{fill:#fce9b9;stroke-miterlimit:10;stroke-width:.75px;}.cls-6{stroke:#fff;stroke-width:8px;}.cls-6,.cls-9,.cls-5{fill:none;}.cls-4{fill:#d6d6d6;}.cls-7,.cls-8,.cls-9{stroke:#1d1d1b;}</style></defs><rect class="cls-6" x="-481.59" y="-514.12" width="3385.57" height="2571.67"/><polygon class="cls-8" points="108.27 22.03 100.94 28.66 47.05 20.27 54.97 14.16 108.27 22.03"/><polygon class="cls-8" points="114.16 16.7 108.28 22.03 108.27 22.03 54.97 14.16 61.54 9.09 114.16 16.7"/><path class="cls-1" d="m100.94,28.66v34.62c-.96,1.3-2.09,2.15-3.51,2.15-4.94,0-13.23-1.2-18.7-9.62-5.48-8.42-13.49-7.39-16.17-5.57-2.67,1.82-14.11.86-14.91-6.75l-.6-23.22,53.89,8.4Z"/><path class="cls-7" d="m100.94,63.28v53.87l-.71.96-50.03-9.43-2.55-65.19c.8,7.62,12.23,8.58,14.91,6.75,2.67-1.82,10.69-2.85,16.17,5.57,5.47,8.42,13.76,9.62,18.7,9.62,1.43,0,2.55-.85,3.51-2.15Z"/><polygon class="cls-9" points="100.94 117.15 100.94 118.91 49.34 109.24 47.65 43.49 50.2 108.68 100.23 118.11 100.94 117.15"/><path class="cls-8" d="m114.16,36.05v65.06l-13.22,17.8v-1.76l12.65-17.08v-46.67s-3.47-5.61-6.68-1.87c-2.28,2.66-3.61,8.56-5.97,11.75V28.66l13.22,7.39Z"/><path class="cls-7" d="m113.6,53.4v46.67l-12.65,17.08v-53.87c2.36-3.19,3.69-9.09,5.97-11.75,3.21-3.74,6.68,1.87,6.68,1.87Z"/><polygon class="cls-8" points="117.04 37.66 114.16 36.05 100.94 28.66 108.27 22.03 108.28 22.03 114.16 32.53 117.04 37.66"/><polygon class="cls-8" points="117.04 37.66 114.16 32.53 108.28 22.03 114.16 16.7 117.04 37.66"/><g><path class="cls-4" d="m52.97,67.94h1.31c.8,0,1.44-.64,1.44-1.44v-.36c0-.8-.64-1.44-1.44-1.44H19.09c-.8,0-1.44.64-1.44,1.44v.36c0,.8.64,1.44,1.44,1.44h1.31"/><polyline class="cls-4" points="21.37 80.84 20.4 67.94 35.11 67.94 52.97 67.94 52 80.84"/><path class="cls-2" d="m52,80.84l-1.57,20.85-1.08,14.29c-.11,1.47-1.33,2.6-2.8,2.6h-19.72c-1.47,0-2.69-1.13-2.8-2.6l-1.08-14.29-1.57-20.85h30.63Z"/><polygon class="cls-5" points="22.95 101.68 22.94 101.68 21.37 80.84 22.95 101.68"/></g><g><path class="cls-3" d="m90.3,108.17c-.97.59-26.25-42.18-25.68-42.53s26.72,41.9,25.68,42.53Z"/><path class="cls-3" d="m84.67,101.7s-4.84-3.89-9.4-2.32c0,0,3.68,6.1,9.4,2.32Z"/><path class="cls-3" d="m82.75,98.9s-5.45-.21-6.51-4.67c0,0,5.06-.51,6.51,4.67Z"/><path class="cls-3" d="m78.98,92.27s-4.84-3.89-9.4-2.32c0,0,3.68,6.1,9.4,2.32Z"/><path class="cls-3" d="m77.06,89.47s-5.45-.21-6.51-4.67c0,0,5.06-.51,6.51,4.67Z"/><path class="cls-3" d="m73.29,82.84s-4.84-3.89-9.4-2.32c0,0,3.68,6.1,9.4,2.32Z"/><path class="cls-3" d="m71.36,80.04s-5.45-.21-6.51-4.67c0,0,5.06-.51,6.51,4.67Z"/><path class="cls-3" d="m67.59,73.41s-4.84-3.89-9.4-2.32c0,0,3.68,6.1,9.4,2.32Z"/><path class="cls-3" d="m65.67,70.61s-5.45-.22-6.51-4.67c0,0,5.06-.51,6.51,4.67Z"/><path class="cls-3" d="m86.96,100.32s-1.19-6.09,2.32-9.4c0,0,3.68,6.1-2.32,9.4Z"/><path class="cls-3" d="m85.38,97.31s2.35-4.92-1.1-7.94c0,0-2.81,4.24,1.1,7.94Z"/><path class="cls-3" d="m81.27,90.89s-1.19-6.09,2.32-9.4c0,0,3.68,6.1-2.32,9.4Z"/><path class="cls-3" d="m79.68,87.88s2.35-4.92-1.1-7.94c0,0-2.81,4.24,1.1,7.94Z"/><path class="cls-3" d="m75.57,81.46s-1.19-6.09,2.32-9.4c0,0,3.68,6.1-2.32,9.4Z"/><path class="cls-3" d="m73.99,78.45s2.35-4.92-1.1-7.94c0,0-2.81,4.24,1.1,7.94Z"/><path class="cls-3" d="m69.88,72.03s-1.19-6.09,2.32-9.4c0,0,3.68,6.1-2.32,9.4Z"/><path class="cls-3" d="m68.29,69.02s2.35-4.92-1.1-7.94c0,0-2.81,4.24,1.1,7.94Z"/><path class="cls-3" d="m64.04,64.6s-5.05-2.05-4.54-6.61c0,0,4.93,1.24,4.54,6.61Z"/><path class="cls-3" d="m89.46,106.84s-2.65-1.16-5.13-.71c0,0,1.72-1.85,3.97-.94l1.16,1.65Z"/><path class="cls-3" d="m88.38,105.06s.21-2.88,1.76-4.87c0,0-2.44.66-2.68,3.08l.92,1.8Z"/></g></svg>