<?xml version="1.0" encoding="UTF-8"?>
<svg id="Calque_1" data-name="Calque 1" xmlns="http://www.w3.org/2000/svg" viewBox="0 0 128 128">
  <defs>
    <style>
      .cls-1 {
        fill: #ffbeed;
      }

      .cls-1, .cls-2, .cls-3, .cls-4, .cls-5, .cls-6, .cls-7, .cls-8, .cls-9, .cls-10, .cls-11 {
        stroke-linecap: round;
        stroke-linejoin: round;
      }

      .cls-1, .cls-2, .cls-3, .cls-6, .cls-8, .cls-9 {
        stroke: #000;
      }

      .cls-2 {
        fill: #fee4cb;
      }

      .cls-3, .cls-7, .cls-8 {
        fill: #fff;
      }

      .cls-4 {
        fill: #8987f3;
      }

      .cls-4, .cls-5, .cls-6, .cls-7, .cls-8, .cls-9, .cls-10 {
        stroke-width: 2px;
      }

      .cls-4, .cls-5, .cls-7, .cls-10 {
        stroke: #1d1d1b;
      }

      .cls-5 {
        fill: #87ccf3;
      }

      .cls-6 {
        fill: #b2f0e9;
      }

      .cls-9, .cls-10, .cls-11 {
        fill: none;
      }

      .cls-11 {
        stroke: #fff;
        stroke-width: 8px;
      }
    </style>
  </defs>
  <polygon class="cls-5" points="105.46 22.03 98.13 28.66 44.24 20.27 52.15 14.16 105.46 22.03"/>
  <polygon class="cls-5" points="111.35 16.7 105.47 22.03 105.46 22.03 52.15 14.16 58.73 9.09 111.35 16.7"/>
  <path class="cls-5" d="m98.13,28.66v34.62c-.96,1.3-2.09,2.15-3.51,2.15-4.94,0-13.23-1.2-18.7-9.62-5.48-8.42-13.49-7.39-16.17-5.57-2.67,1.82-14.11.86-14.91-6.75l-.6-23.22,53.89,8.4Z"/>
  <path class="cls-7" d="m98.13,63.28v53.87l-.71.96-50.03-9.43-2.55-65.19c.8,7.62,12.23,8.58,14.91,6.75,2.67-1.82,10.69-2.85,16.17,5.57,5.47,8.42,13.76,9.62,18.7,9.62,1.43,0,2.55-.85,3.51-2.15Z"/>
  <polygon class="cls-10" points="98.13 117.15 98.13 118.91 46.53 109.24 44.84 43.49 47.39 108.68 97.42 118.11 98.13 117.15"/>
  <path class="cls-5" d="m111.35,36.05v65.06l-13.22,17.8v-1.76l12.65-17.08v-46.67s-3.47-5.61-6.68-1.87c-2.28,2.66-3.61,8.56-5.97,11.75V28.66l13.22,7.39Z"/>
  <path class="cls-7" d="m110.78,53.4v46.67l-12.65,17.08v-53.87c2.36-3.19,3.69-9.09,5.97-11.75,3.21-3.74,6.68,1.87,6.68,1.87Z"/>
  <polygon class="cls-4" points="114.23 37.66 111.35 36.05 98.13 28.66 105.46 22.03 105.47 22.03 111.35 32.53 114.23 37.66"/>
  <polygon class="cls-4" points="114.23 37.66 111.35 32.53 105.47 22.03 111.35 16.7 114.23 37.66"/>
  <g>
    <path class="cls-3" d="m76.52,94.49c-.02.18-.07.36-.14.55l.04-2.2s.18.86.1,1.65Z"/>
    <path class="cls-3" d="m72.08,91.63l-.2,1.11c.04-.63.2-1.11.2-1.11Z"/>
    <path class="cls-3" d="m56.91,97.07s-.41-.11-.76-.2c-.34-.1-.37-.83-.37-.83l-1.28-3.61c.22.16.48.33.78.47l-.2.59c-.08.22.04.47.27.55h.05c.22.09.47-.03.55-.25l.19-.56c.33.09.67.15,1.05.15h0s.03.08.03.08h0c.04.29.08.62.12.98.14,1.14.51,1.4.51,1.4,0,0,1.04.46,1.37.93.7.96.58,2.66.58,2.66l-3.8-.51.11-.85c.06-.45.79-.98.79-.98Z"/>
    <path class="cls-3" d="m57.22,93.44l-.03-.08h.02s0,.05,0,.08Z"/>
    <path class="cls-3" d="m73.92,102.11s-.24,0-1.21-.04c-.97-.03-1.65-.48-1.65-.48,0,0,.19-1.01.09-1.47-.1-.46-.79-1.19-.79-1.19l.87-.97s.21-1.22.23-2.16c.01-.67-.15-2.33-.25-3.26.03,0,.06.01.07.02.22.07.42.14.6.22-.04.68.05,1.55.63,2.2.26.29.47.54.65.75-.13.36-.26.76-.33,1.11-.16.85-.04,2.48-.04,2.48,0,0,.32.17.8.9.49.73.33,1.9.33,1.9Z"/>
    <path class="cls-3" d="m71.91,92.78s-.03,0-.04-.02v-.03s.04.04.04.04Z"/>
    <path class="cls-1" d="m60.21,92.75l-.03.04c-.15.19-.42.23-.61.08l-.44-.34c-.3.32-.65.59-1.01.71l.21.51c.09.22-.01.48-.24.56l-.04.02c-.22.09-.48-.02-.56-.24l-.27-.65h0s0-.06,0-.08h-.03c-.38,0-.73-.06-1.05-.15l-.19.56c-.07.22-.32.35-.55.27h-.05c-.22-.09-.35-.34-.27-.56l.2-.59c-.29-.14-.55-.31-.78-.47-.13-.1-.25-.2-.36-.29.05-.08.11-.16.18-.24.22-.29.49-.6.75-.89.12-.13.25-.27.37-.39t0,0s.07-.05.12-.07c.02-.01.28-.17.55-.31,1.1-.58,1.67-.89,2.24-.71.47.15,1.13.68,1.22.75.24.19.49.37.73.53-.16.32-.36.68-.61,1.04l.42.33c.19.14.23.41.08.61Z"/>
    <path class="cls-3" d="m57.22,93.44l-.03-.08h.02s0,.05,0,.08Z"/>
    <path class="cls-3" d="m49.94,90.68c-.45,1.48-1.81,1.61-1.81,1.61,0,0-.27-1.43.15-2.64.25-.71,1.38-1.08,1.74-1.79,0,0,.21,1.87-.08,2.82Z"/>
    <path class="cls-3" d="m51.07,76.68c-.37.42-.73,1.08-.85,2.11-.25,2.19.54,4.1.52,5.59s-.37,2.77-.73,3.49"/>
    <path class="cls-3" d="m51.88,76.04s-.4.15-.8.63"/>
    <path class="cls-3" d="m71.88,92.74l.2-1.11s-.16.47-.2,1.11Zm4.54.1l-.04,2.2c.07-.19.12-.38.14-.55.08-.78-.1-1.65-.1-1.65Z"/>
    <path class="cls-3" d="m92.79,86.35c-.13.18-.25.23-.9.6-1.08.61-1.02.61-1.1.63-.82.21-1.89-.19-2.3-.89-.15-.26-.12-.41-.22-.58h0c-.02-.06-.06-.12-.11-.19-.15-.16-.42-.39-1.38-.53-.92-.12-.84,0-1.36-.01-.48-.06-.56-.15-.67-.23-.7.18-1.4.47-1.75.96-.08.11-.14.23-.18.36-.04.14,0,.07-.04.56v.08c-.09.74-.26,1.35-.42,1.8-.1.28-.19.49-.26.63-.02.03-.02.04-.03.07-.6,1.24-1.65,1.84-2.02,2.02-.71.36-.93.24-1.13.55-.29.44.07.81-.1,1.5-.16.65-.69,1.21-1.25,1.41-.29.11-.61.13-1.19-.04.07-.19.12-.38.14-.55.08-.78-.1-1.65-.1-1.65l-.04,2.2c-.25.65-.74,1.33-.85,1.82-.13.63.22,1.27.22,1.27l.08.08c.41.45.6,1.05.54,1.66l-.12,1.23s.78.48,1.12,1.07c.34.59-.05,1.41-.05,1.41,0,0-2.33-.21-2.56-.35-.23-.13-.61-1.02-.56-1.39s.45-.88.06-1.71c-.23-.49-.57-.81-.8-.99-.13-.1-.14-.29-.02-.4l.67-.64-.11-1.38s-.23-.3-.85-1.01c-.18-.21-.4-.46-.65-.75-.58-.66-.67-1.52-.63-2.2.01,0,.03,0,.04.02l-.03-.04.2-1.11s-.16.47-.2,1.11v.03c-.19-.07-.38-.15-.61-.22-.02,0-.04-.01-.07-.02-.25-.07-.87-.25-1.7-.34-1.1-.13-1.74-.01-2.78.04-1.62.08-2.42.12-3.39-.1,0,0-1.48-.35-3.01-1.35-.24-.16-.49-.33-.73-.53-.09-.07-.75-.6-1.22-.75-.57-.17-1.13.13-2.24.71-.27.14-.53.3-.55.31-.04.02-.08.05-.12.07t0,0c-.12.13-.25.26-.37.39-.27.3-.53.61-.75.89-.07.08-.13.16-.18.24-.2.27-.34.51-.39.68-.21.81-.38,1.97-.21,2.69.18.72,1.2,1.6,1.2,1.6l-.88-.12-.34.68s.65.23.85.67c.28.59.39,1.36.39,1.36l-3.02-.41s-.89-.25-.77-1.34c.05-.48.56-1.11.56-1.11l-.79-.21.32-2.34c.1-.72.5-1.82.7-2.56h0c.06-.23.11-.42.12-.56.06-.58.17-1.15.28-1.55h0c.06-.34.14-.67.15-.84.03-.62.2-.98-.07-2.38-.59-3.04.25-3.14-.5-5.3-.35-1.04-.73-1.53-.8-2.68,0-.06,0-.15-.01-.25h0c-.02-.38-.01-.97.14-1.49h0c.11-.39.3-.73.62-.92.16-.1.35-.15,2.12.09.59.09.96.14,1.22.19.43.07.53.09.82.09,1.43-.02,1.49-.64,2.5-.54.92.1,1.15.64,2.15,1.02.16.06.34.12.55.17.57.14.98.1,1.43.15,1.37.15,3.25.35,5.38.68,1.27.2,2.06.36,2.62.46.88.16,1.16.21,1.77.08,1.34-.26,1.6-.78,2.77-.74.95.03,1.24.38,2.13.78.27.12.6.24,1.01.36.68.2,1.61.48,2.71.44.33-.01.67-.05,1.02-.13.38-.08.88-.19,1.41-.42.27.91.77,1.93,1.68,2.04,1.67.21,2.24-.63,2.24-.63,0,0,.1-.41-.12-.71-.51-.71-1-.33-1-.33,0,0-.92.32-1.43,0-.26-.16-.53-.41-.77-.68.27-.16.53-.36.78-.6.44-.42.7-.88,1.36-1.07.31-.1.68-.06,1.41,0,.96.08,1.45.12,1.83.44.09.08.26.32.57.8l.84,1.65c.01.49-.29.72-.19,1.44.04.27.29.73.79,1.66.24.43.41.75.55,1,.14.24.25.4.36.53.49.59.76.65.87,1.08.11.44,0,.93-.27,1.27Z"/>
    <path class="cls-2" d="m87.22,79.86s-.57.84-2.24.63c-.91-.11-1.41-1.13-1.68-2.04-.21-.72-.28-1.38-.29-1.46.07.09.43.65.89,1.16.24.27.51.52.77.68.52.32,1.43,0,1.43,0,0,0,.49-.38,1,.33.21.3.12.71.12.71Z"/>
    <path class="cls-2" d="m92.21,77.45c-.3.92-.99,1.56-1.52,1.92l-.84-1.65s.8-.34,1.21-1.05c.36-.61.43-2.1.43-2.1,0,0,1.22,1.33.72,2.88Z"/>
    <path class="cls-3" d="m83.15,82.83c.07.29.19.69.45,1.11.37.62.84,1,1.14,1.2"/>
    <path d="m89.32,81.28c-.04.26-.28.44-.54.41s-.44-.27-.41-.53.28-.45.53-.41.45.28.41.54Z"/>
    <path d="m70.76,82.2c-.2.41-.54.72-1.24,1.33-1.12.99-1.39.92-1.7,1.48-.4.74-.05,1.09-.49,1.7-.51.69-1.38.82-1.57.84-1.21.18-2.1-.58-2.23-.7-1.14-1-1.11-2.65-1.09-2.96.05-1.08.52-1.48.2-2.17-.18-.41-.42-.42-1.17-1.12-.56-.53-1.07-1.01-1.29-1.49-.32-.71-.12-1.68.32-2.49.16.06.34.12.55.17.57.14.98.1,1.43.15,1.37.15,3.25.35,5.38.68,1.27.2,2.06.36,2.62.46.28.79.4,1.64.42,1.78.12.89.22,1.61-.14,2.35Z"/>
    <path d="m56.6,87.41c-.25.73-.92.82-2.21,1.72,0,0-.96.68-1.74,1.48-.36.37-.64.74-.89,1.09.06-.22.11-.41.12-.55.06-.58.17-1.15.28-1.55h0c.06-.34.14-.67.15-.84.03-.62.2-.98-.07-2.38-.59-3.04.25-3.14-.5-5.3-.35-1.04-.73-1.53-.8-2.68,0-.06,0-.15-.01-.25h0c-.02-.38-.01-.97.14-1.49h0c.11-.39.3-.73.62-.92.16-.1.35-.15,2.12.09.59.09.96.14,1.22.19.1.51.05,1.08.53,1.82.36.56.63.61.85,1.17.3.76.1,1.5.02,1.76-.07.25-.33,1.23-1.17,1.83-.31.21-.62.34-.8.72-.04.08-.22.46-.06.74.19.31.62.13,1.13.41.52.29.73.84.88,1.26.14.38.38,1.03.17,1.65Z"/>
    <path d="m82.99,86.11c-.09-.13-.2-.28-.3-.45-.49-.79-.8-1.29-.75-1.95.07-.81.64-1.15.45-1.69-.16-.44-.59-.37-1.04-.8-.64-.62-.43-1.46-.5-2.21-1.1.03-2.03-.24-2.71-.44-.41-.12-.74-.24-1.01-.36-.47.48-.72,1.11-.79,1.64-.15,1.26.74,1.98.3,2.67-.32.49-.87.32-1.13.86-.28.59.23,1.08-.08,1.53-.05.08-.19.24-1.16.42-1.25.24-1.68.09-1.85.37-.19.32.09.99.57,1.31.73.48,1.46-.17,2.11.33.44.33.51.94.54,1.22.13,1.06-.53,1.63-.26,1.94.24.27,1.02.13,1.44-.29.41-.4.2-.76.59-1.15.3-.29.72-.35,1.56-.45.64-.07,1.08-.13,1.68-.08.76.06,1.27.24,1.67.39l.64-2.79Z"/>
    <path d="m92.79,86.35c-.13.18-.25.23-.9.6-1.08.61-1.02.61-1.1.63-.82.21-1.89-.19-2.3-.89-.15-.26-.12-.41-.22-.58h0c.06-.25.09-.45.28-.62.23-.2.51-.17,1.18-.17.81,0,1.22,0,1.35-.07.64-.36.35-1.41.75-1.78.14.24.25.4.36.53.49.59.76.65.87,1.08.11.44,0,.93-.27,1.27Z"/>
  </g>
  <path class="cls-6" d="m53.02,67.44h1.31c.8,0,1.44-.64,1.44-1.44v-.36c0-.8-.64-1.44-1.44-1.44H19.14c-.8,0-1.44.64-1.44,1.44v.36c0,.8.64,1.44,1.44,1.44h1.31"/>
  <polyline class="cls-6" points="21.42 80.33 20.44 67.44 35.15 67.44 53.02 67.44 52.05 80.33"/>
  <path class="cls-8" d="m52.05,80.33l-1.57,20.85-1.08,14.29c-.11,1.47-1.33,2.6-2.8,2.6h-19.72c-1.47,0-2.69-1.13-2.8-2.6l-1.08-14.29-1.57-20.85h30.63Z"/>
  <polygon class="cls-9" points="22.99 101.18 22.98 101.18 21.42 80.33 22.99 101.18"/>
  <rect class="cls-11" x="-51.93" y="-514.12" width="3385.57" height="2571.67"/>
</svg>