<?xml version="1.0" encoding="UTF-8"?><svg id="Calque_1" xmlns="http://www.w3.org/2000/svg" viewBox="0 0 128 128"><defs><style>.cls-1,.cls-2,.cls-3{fill:#76ac75;}.cls-2,.cls-4,.cls-5,.cls-6,.cls-7{stroke:#000;}.cls-2,.cls-4,.cls-8,.cls-6,.cls-9,.cls-3,.cls-10,.cls-7{stroke-linecap:round;stroke-linejoin:round;}.cls-2,.cls-4,.cls-6,.cls-9,.cls-3,.cls-10,.cls-7{stroke-width:2px;}.cls-4,.cls-9{fill:#fff;}.cls-5{fill:#fce9b9;stroke-miterlimit:10;stroke-width:.75px;}.cls-8{stroke:#fff;stroke-width:8px;}.cls-8,.cls-10,.cls-7{fill:none;}.cls-6{fill:#d6d6d6;}.cls-9,.cls-3,.cls-10{stroke:#1d1d1b;}</style></defs><polygon class="cls-3" points="108.27 22.03 100.94 28.66 47.05 20.27 54.97 14.16 108.27 22.03"/><polygon class="cls-3" points="114.16 16.7 108.28 22.03 108.27 22.03 54.97 14.16 61.54 9.09 114.16 16.7"/><path class="cls-2" d="m100.94,28.66v34.62c-.96,1.3-2.09,2.15-3.51,2.15-4.94,0-13.23-1.2-18.7-9.62-5.48-8.42-13.49-7.39-16.17-5.57-2.67,1.82-14.11.86-14.91-6.75l-.6-23.22,53.89,8.4Z"/><path class="cls-9" d="m100.94,63.28v53.87l-.71.96-50.03-9.43-2.55-65.19c.8,7.62,12.23,8.58,14.91,6.75,2.67-1.82,10.69-2.85,16.17,5.57,5.47,8.42,13.76,9.62,18.7,9.62,1.43,0,2.55-.85,3.51-2.15Z"/><polygon class="cls-10" points="100.94 117.15 100.94 118.91 49.34 109.24 47.65 43.49 50.2 108.68 100.23 118.11 100.94 117.15"/><path class="cls-3" d="m114.16,36.05v65.06l-13.22,17.8v-1.76l12.65-17.08v-46.67s-3.47-5.61-6.68-1.87c-2.28,2.66-3.61,8.56-5.97,11.75V28.66l13.22,7.39Z"/><path class="cls-9" d="m113.6,53.4v46.67l-12.65,17.08v-53.87c2.36-3.19,3.69-9.09,5.97-11.75,3.21-3.74,6.68,1.87,6.68,1.87Z"/><polygon class="cls-3" points="117.04 37.66 114.16 36.05 100.94 28.66 108.27 22.03 108.28 22.03 114.16 32.53 117.04 37.66"/><polygon class="cls-3" points="117.04 37.66 114.16 32.53 108.28 22.03 114.16 16.7 117.04 37.66"/><g><path class="cls-6" d="m52.97,67.94h1.31c.8,0,1.44-.64,1.44-1.44v-.36c0-.8-.64-1.44-1.44-1.44H19.09c-.8,0-1.44.64-1.44,1.44v.36c0,.8.64,1.44,1.44,1.44h1.31"/><polyline class="cls-6" points="21.37 80.84 20.4 67.94 35.11 67.94 52.97 67.94 52 80.84"/><path class="cls-4" d="m52,80.84l-1.57,20.85-1.08,14.29c-.11,1.47-1.33,2.6-2.8,2.6h-19.72c-1.47,0-2.69-1.13-2.8-2.6l-1.08-14.29-1.57-20.85h30.63Z"/><polygon class="cls-7" points="22.95 101.68 22.94 101.68 21.37 80.84 22.95 101.68"/></g><rect class="cls-8" x="-333" y="-514.12" width="3385.57" height="2571.67"/><g><g><path class="cls-1" d="m73.84,91.4s-.07,0-.11-.01c-1.22-.27-7.44-1.96-10.58-8.26-2.9-5.81-1.12-11.27-.51-12.8.08-.19.27-.31.46-.31.06,0,.12,0,.17.03.28.1,6.78,2.54,9.98,8.34,2.55,4.63,2.16,9.96,1.87,12.03-.03.22-.21.4-.43.43-.02,0-.04,0-.06,0-.12,0-.23-.04-.32-.12.06.16.03.34-.07.47-.1.13-.24.2-.4.2Zm-3.72-9.95c.32.59.62,1.19.91,1.79.37.79.72,1.61,1.07,2.51l.5,1.27c.17.42.34.84.52,1.26.29.65.58,1.28.89,1.87-.26-.64-.52-1.27-.77-1.92l-.97-2.56c-.17-.41-.34-.84-.53-1.26-.19-.41-.39-.83-.6-1.23-.32-.61-.67-1.19-1.02-1.73Z"/><path d="m63.1,70.51s6.57,2.41,9.72,8.12c2.49,4.51,2.09,9.74,1.81,11.72-.32-.76-.63-1.52-.92-2.29l-.97-2.56c-.17-.43-.35-.86-.54-1.29-.19-.43-.4-.85-.62-1.26-.44-.82-.92-1.62-1.46-2.38-1.07-1.52-2.32-2.91-3.73-4.09,1.05,1.52,2.06,3.02,2.94,4.59.44.78.86,1.58,1.24,2.39.38.81.73,1.63,1.05,2.47l.5,1.27c.17.43.35.85.53,1.28.36.82.75,1.63,1.18,2.42-.83-.19-7.11-1.71-10.25-8-2.96-5.94-.83-11.53-.49-12.39m0-1c-.4,0-.77.24-.93.63-.63,1.58-2.47,7.22.52,13.21,3.25,6.51,9.67,8.24,10.92,8.53.07.02.15.02.22.02.31,0,.61-.14.8-.4.04-.05.07-.11.1-.16h.02c.45-.06.8-.41.86-.86.3-2.12.7-7.58-1.93-12.34-3.29-5.96-9.96-8.47-10.25-8.57-.11-.04-.23-.06-.34-.06h0Z"/></g><g><path class="cls-1" d="m77.14,91.62c-.14,0-.27-.06-.37-.16-.08-.09-.13-.2-.13-.32-.09.1-.22.15-.36.15-.03,0-.05,0-.08,0-.22-.04-.4-.22-.42-.44-.18-1.77-.36-6.3,1.97-10.16,2.89-4.79,8.46-6.63,8.7-6.71.05-.02.1-.02.15-.02.09,0,.18.02.26.07.12.08.21.2.23.34.04.24,1,6.03-1.89,10.82-2.27,3.76-6.27,5.72-7.88,6.39-.06.03-.13.04-.19.04Zm.74-3.28s.06-.13.07-.15c-.01.02-.07.15-.07.15Z"/><path d="m86.6,74.45s1.01,5.79-1.82,10.47c-2.18,3.61-6.01,5.51-7.64,6.19.09-.19.19-.37.28-.56.17-.35.33-.7.49-1.05l.46-1.05c.3-.7.62-1.37.97-2.04.35-.67.72-1.32,1.12-1.96.8-1.29,1.69-2.52,2.62-3.76-1.23.95-2.32,2.07-3.27,3.31-.48.62-.91,1.27-1.3,1.95-.2.34-.38.69-.56,1.04-.17.35-.34.71-.49,1.06l-.9,2.11c-.09.21-.18.42-.28.63-.17-1.62-.37-6.09,1.9-9.85,2.83-4.68,8.42-6.49,8.42-6.49m0-1c-.1,0-.21.02-.31.05-.24.08-5.98,1.98-8.97,6.92-2.41,3.99-2.23,8.65-2.04,10.47.05.45.39.81.84.88.05,0,.1.01.16.01.04,0,.08,0,.11,0,0,0,0,0,.01.01.19.21.46.32.73.32.13,0,.26-.02.38-.08,1.66-.69,5.77-2.71,8.11-6.6,2.99-4.95,2-10.91,1.95-11.16-.05-.29-.22-.54-.47-.68-.16-.1-.34-.14-.52-.14h0Z"/></g></g><ellipse class="cls-5" cx="68.51" cy="100.4" rx="3.41" ry="2.53" transform="translate(-50.93 77.85) rotate(-45)"/><ellipse class="cls-5" cx="73.31" cy="98.42" rx="2.53" ry="3.41" transform="translate(-33.38 159.07) rotate(-82.93)"/><ellipse class="cls-5" cx="78.33" cy="97.1" rx="3.41" ry="2.53" transform="translate(-44.47 75.11) rotate(-40.96)"/><ellipse class="cls-5" cx="77.27" cy="100.38" rx="3.41" ry="2.53" transform="translate(-46.88 75.22) rotate(-40.96)"/><ellipse class="cls-5" cx="88.68" cy="99.7" rx="2.53" ry="3.41" transform="translate(-23.34 27.2) rotate(-15.44)"/><ellipse class="cls-5" cx="82.47" cy="105.58" rx="2.53" ry="3.41" transform="translate(-50.5 89.23) rotate(-45)"/><ellipse class="cls-5" cx="77.66" cy="103.6" rx="3.41" ry="2.53" transform="translate(-12.16 10.35) rotate(-7.07)"/><ellipse class="cls-5" cx="72.65" cy="102.27" rx="2.53" ry="3.41" transform="translate(-52.21 90.1) rotate(-49.04)"/></svg>