<?xml version="1.0" encoding="UTF-8"?>
<svg id="Calque_1" data-name="Calque 1" xmlns="http://www.w3.org/2000/svg" viewBox="0 0 128 128">
  <defs>
    <style>
      .cls-1, .cls-2 {
        fill: #87ccf3;
      }

      .cls-1, .cls-2, .cls-3, .cls-4, .cls-5, .cls-6 {
        stroke-width: 2px;
      }

      .cls-1, .cls-2, .cls-3, .cls-4, .cls-5, .cls-6, .cls-7 {
        stroke-linecap: round;
        stroke-linejoin: round;
      }

      .cls-1, .cls-3, .cls-6 {
        stroke: #1d1d1b;
      }

      .cls-2, .cls-4, .cls-5 {
        stroke: #000;
      }

      .cls-3, .cls-4 {
        fill: #fff;
      }

      .cls-5, .cls-6, .cls-7 {
        fill: none;
      }

      .cls-7 {
        stroke: #fff;
        stroke-width: 8px;
      }
    </style>
  </defs>
  <polygon class="cls-1" points="106.43 22.03 99.1 28.66 45.21 20.27 53.13 14.16 106.43 22.03"/>
  <polygon class="cls-1" points="112.32 16.7 106.44 22.03 106.43 22.03 53.13 14.16 59.7 9.09 112.32 16.7"/>
  <path class="cls-1" d="m99.1,28.66v34.62c-.96,1.3-2.09,2.15-3.51,2.15-4.94,0-13.23-1.2-18.7-9.62-5.48-8.42-13.49-7.39-16.17-5.57-2.67,1.82-14.11.86-14.91-6.75l-.6-23.22,53.89,8.4Z"/>
  <path class="cls-3" d="m99.1,63.28v53.87l-.71.96-50.03-9.43-2.55-65.19c.8,7.62,12.23,8.58,14.91,6.75,2.67-1.82,10.69-2.85,16.17,5.57,5.47,8.42,13.76,9.62,18.7,9.62,1.43,0,2.55-.85,3.51-2.15Z"/>
  <polygon class="cls-6" points="99.1 117.15 99.1 118.91 47.5 109.24 45.81 43.49 48.36 108.68 98.39 118.11 99.1 117.15"/>
  <path class="cls-1" d="m112.32,36.05v65.06l-13.22,17.8v-1.76l12.65-17.08v-46.67s-3.47-5.61-6.68-1.87c-2.28,2.66-3.61,8.56-5.97,11.75V28.66l13.22,7.39Z"/>
  <path class="cls-3" d="m111.76,53.4v46.67l-12.65,17.08v-53.87c2.36-3.19,3.69-9.09,5.97-11.75,3.21-3.74,6.68,1.87,6.68,1.87Z"/>
  <polygon class="cls-1" points="115.2 37.66 112.32 36.05 99.1 28.66 106.43 22.03 106.44 22.03 112.32 32.53 115.2 37.66"/>
  <polygon class="cls-1" points="115.2 37.66 112.32 32.53 106.44 22.03 112.32 16.7 115.2 37.66"/>
  <g>
    <path class="cls-2" d="m53.99,67.94h1.31c.8,0,1.44-.64,1.44-1.44v-.36c0-.8-.64-1.44-1.44-1.44H20.11c-.8,0-1.44.64-1.44,1.44v.36c0,.8.64,1.44,1.44,1.44h1.31"/>
    <polyline class="cls-2" points="22.39 80.84 21.41 67.94 36.13 67.94 53.99 67.94 53.02 80.84"/>
    <path class="cls-4" d="m53.02,80.84l-1.57,20.85-1.08,14.29c-.11,1.47-1.33,2.6-2.8,2.6h-19.72c-1.47,0-2.69-1.13-2.8-2.6l-1.08-14.29-1.57-20.85h30.63Z"/>
    <polygon class="cls-5" points="23.96 101.68 23.96 101.68 22.39 80.84 23.96 101.68"/>
  </g>
  <rect class="cls-7" x="-188.61" y="-514.12" width="3385.57" height="2571.67"/>
</svg>