<?xml version="1.0" encoding="UTF-8"?>
<svg id="Calque_1" data-name="Calque 1" xmlns="http://www.w3.org/2000/svg" viewBox="0 0 128 128">
  <defs>
    <style>
      .cls-1 {
        fill: #baa584;
      }

      .cls-1, .cls-2, .cls-3, .cls-4, .cls-5, .cls-6, .cls-7, .cls-8, .cls-9, .cls-10 {
        stroke-linecap: round;
        stroke-linejoin: round;
      }

      .cls-1, .cls-3, .cls-4, .cls-6, .cls-7, .cls-9 {
        stroke: #000;
      }

      .cls-2, .cls-3 {
        fill: #76ac75;
      }

      .cls-2, .cls-3, .cls-4, .cls-5, .cls-6, .cls-7, .cls-8 {
        stroke-width: 2px;
      }

      .cls-2, .cls-5, .cls-8 {
        stroke: #1d1d1b;
      }

      .cls-4 {
        fill: #d6d6d6;
      }

      .cls-5, .cls-6 {
        fill: #fff;
      }

      .cls-7, .cls-8, .cls-9, .cls-10 {
        fill: none;
      }

      .cls-9 {
        stroke-width: .5px;
      }

      .cls-10 {
        stroke: #fff;
        stroke-width: 8px;
      }
    </style>
  </defs>
  <polygon class="cls-2" points="108.27 22.03 100.94 28.66 47.05 20.27 54.97 14.16 108.27 22.03"/>
  <polygon class="cls-2" points="114.16 16.7 108.28 22.03 108.27 22.03 54.97 14.16 61.54 9.09 114.16 16.7"/>
  <path class="cls-3" d="m100.94,28.66v34.62c-.96,1.3-2.09,2.15-3.51,2.15-4.94,0-13.23-1.2-18.7-9.62-5.48-8.42-13.49-7.39-16.17-5.57-2.67,1.82-14.11.86-14.91-6.75l-.6-23.22,53.89,8.4Z"/>
  <path class="cls-5" d="m100.94,63.28v53.87l-.71.96-50.03-9.43-2.55-65.19c.8,7.62,12.23,8.58,14.91,6.75,2.67-1.82,10.69-2.85,16.17,5.57,5.47,8.42,13.76,9.62,18.7,9.62,1.43,0,2.55-.85,3.51-2.15Z"/>
  <polygon class="cls-8" points="100.94 117.15 100.94 118.91 49.34 109.24 47.65 43.49 50.2 108.68 100.23 118.11 100.94 117.15"/>
  <path class="cls-2" d="m114.16,36.05v65.06l-13.22,17.8v-1.76l12.65-17.08v-46.67s-3.47-5.61-6.68-1.87c-2.28,2.66-3.61,8.56-5.97,11.75V28.66l13.22,7.39Z"/>
  <path class="cls-5" d="m113.6,53.4v46.67l-12.65,17.08v-53.87c2.36-3.19,3.69-9.09,5.97-11.75,3.21-3.74,6.68,1.87,6.68,1.87Z"/>
  <polygon class="cls-2" points="117.04 37.66 114.16 36.05 100.94 28.66 108.27 22.03 108.28 22.03 114.16 32.53 117.04 37.66"/>
  <polygon class="cls-2" points="117.04 37.66 114.16 32.53 108.28 22.03 114.16 16.7 117.04 37.66"/>
  <g>
    <path class="cls-1" d="m53.39,79.42s-.59,6.17,5.34,12.38c5.92,6.22,9.69,6.48,12.02,6.41,3.6-.12,6.62-5.3,6.44-7.39-.28-3.32-2.47-6.09-4.68-7.48-2.95-1.85-8.46-4.16-12.33-4.5-3.87-.34-6.79.58-6.79.58Z"/>
    <path class="cls-9" d="m53.4,80.67c.35,1.03.78,1.55,1.13,2,.65.83,1.31.91,2,1.82.63.84.56,1.11,1.16,1.99.15.22.37.52,1.8,1.9,2.23,2.16,2.41,2.11,2.91,2.9.52.81.52,1.15,1.11,1.69.6.55,1.01.57,1.66,1.18.59.56.74,1.01,1.02,1.41.85,1.24,2.37,1.52,3.57,1.83.55.14,1.32.47,2.33.49"/>
    <path class="cls-9" d="m62.79,91.95c-.42-.41-1.66-1.58-2.49-2.04-.9-.49-1.56-.46-2.35-.82-.64-.3-1.85-1.05-2.72-2.15"/>
    <path class="cls-9" d="m57.69,88.96c.69.73,1.64,1.29,2,1.64.41.41.7.77,1.05,1.21.82,1.03.69,1.06,1.13,1.53.7.74,1.46,1.13,1.97,1.39.43.22.87.24,1.55.58.39.19,1.03.63,1.24.75"/>
    <path class="cls-9" d="m53.61,79.63c.79.88,1.51,1.49,2.02,1.89.71.55,1.17.8,2.34,1.73.55.44.83.65,1.1.91,1.02.98.97,1.34,1.68,1.82.65.44.85.24,1.81.7.75.37,1.19.77,1.72,1.22,2.02,1.74,1.89,1.35,4.03,3.21,1.11.96,1.44,1.32,2.52,2.18.94.74,1.49,1.1,2.14,1.39.84.38,1.6.56,2.13.64"/>
    <path class="cls-9" d="m73.07,94.73c-1.17.03-3.12-1.08-3.67-1.35-1.02-.48-1.54-.73-2.04-1.03-1-.61-.91-.74-1.8-1.25-.89-.51-1.08-.44-1.96-.97-.45-.27-.66-.44-1.42-1.03-1.47-1.12-2.05-1.55-2.24-1.67.09.17.4.49.99,1.39.25.38.9,1.63,1.02,1.86"/>
    <path class="cls-9" d="m74.1,96.34c-.3-.04-.71-.11-1.18-.22-.24-.06-.88-.23-1.77-.6-.93-.4-.8-.46-1.78-.89-.6-.26-1.11-.48-1.82-.69-.54-.16-.72-.17-1.08-.35-.71-.37-1.07-.9-1.08-.89-.01.01.58.89,1.7,1.67.45.31.63.36,1.48.84.97.55,1.08.72,1.8,1.09.39.2.8.41,1.38.6.57.18,1.06.27,1.42.31"/>
    <path class="cls-9" d="m57.33,81.3c.37.42.85.92,1.47,1.43.32.27.9.74,1.72,1.19.97.54,1.09.39,1.96.86.81.44.92.69,2.04,1.51.82.6,1.47.99,2.07,1.35,1.96,1.17,3.61,1.91,3.56,2.03-.04.09-1.18-.4-2.57-.78-.95-.26-1.39-.36-2.1-.6-.62-.21-1.35-.53-1.57-.71"/>
    <path class="cls-9" d="m75.56,94.58c-.36-.11-.88-.3-1.49-.61-.4-.2-.56-.32-1.7-1.04-.87-.55-1.31-.83-1.68-1.04-.7-.39-2.36-1.06-2.82-1.16"/>
    <path class="cls-9" d="m75.97,93.94c-.22-.26-.53-.62-.96-.99-.37-.33-.87-.76-1.62-1.13-.53-.26-1.06-.42-1.45-.53-.33-.1-.54-.15-.93-.28-.42-.14-.75-.28-.97-.38"/>
    <path class="cls-9" d="m54.29,79.42c.44.12.98.25,1.6.38,1.16.24,1.42.2,2.12.44.71.24.66.34,1.51.64.68.24,1.12.39,1.74.44.83.07,1.19-.11,2.07.1.13.03.32.08.33.05.02-.05-.49-.28-1.34-.71-.95-.48-.94-.51-1.62-.83-.36-.17-2-.95-2.93-1.14"/>
    <path class="cls-9" d="m60.06,78.88c.34.11,1.81.71,2.39,1.02,1.18.62,1.92,1.14,2.67,1.56.54.31,1.48.69,3.36,1.44.31.13,1.74.7,3.46,1.42.52.22,1.14.48,1.85.99.62.44,1.09.82,1.31,1.05.49.53,1.13,1.18,1.36,1.59"/>
    <path class="cls-9" d="m76.84,91.63c-.3-.67-.81-1.59-1.69-2.48-.25-.25-1.24-1.23-2.83-1.91-1.08-.46-1.27-.3-2.96-.98-.99-.4-1.65-.75-1.81-.84-.68-.36-.74-.46-1.95-1.21-1.12-.69-1.73-.89-2.37-1.16-.73-.31-1.44-.38-1.74-.46-.55-.16-.82-.28-1.25-.62.67-.05,1.59.26,3.69.56.47.07.62.17,1.04.22.93.13,1.36.53,2.32,1.06.44.25,1.21.56,2.76,1.19,1.34.54,1.52.57,2.11.9.61.34.82.55,1.69,1.12.73.48,2,1.34,3.05,2.36"/>
    <path class="cls-9" d="m62.21,83.54c.93.58,1.75,1.04,2.4,1.39.57.3,1.32.7,2.35,1.16,1.07.47,1.38.54,2.42,1.05.7.34,1.06.52,1.51.83.84.59.76.77,1.61,1.41.83.63,1.1.59,1.91,1.25.45.37.78.71,1,.95"/>
    <path class="cls-9" d="m72.83,86.32c-.46-.33-2.22-1.89-2.73-2.22-.33-.21-1.58-1.09-1.89-1.28"/>
  </g>
  <g>
    <path class="cls-1" d="m91.46,75.82s-6.18.46-11.31,7.35c-5.13,6.88-4.75,10.65-4.29,12.93.72,3.53,6.34,5.63,8.37,5.1,3.23-.83,5.59-3.47,6.58-5.87,1.32-3.22,2.67-9.04,2.36-12.92-.32-3.87-1.71-6.59-1.71-6.59Z"/>
    <path class="cls-9" d="m90.24,76.04c-.96.52-1.4,1.03-1.78,1.45-.71.78-.68,1.45-1.46,2.28-.72.77-1,.74-1.77,1.48-.19.18-.45.46-1.57,2.09-1.75,2.57-1.68,2.73-2.36,3.36-.71.65-1.05.71-1.48,1.38-.44.69-.39,1.09-.88,1.83-.45.67-.87.9-1.22,1.25-1.08,1.04-1.1,2.59-1.2,3.82-.05.57-.24,1.38-.09,2.38"/>
    <path class="cls-9" d="m80.7,87.2c.33-.48,1.28-1.91,1.59-2.8.34-.97.19-1.62.41-2.46.18-.68.72-2,1.66-3.04"/>
    <path class="cls-9" d="m82.78,81.67c-.6.81-1,1.84-1.28,2.24-.33.48-.64.82-1.01,1.24-.87.98-.93.86-1.31,1.38-.61.82-.87,1.63-1.04,2.18-.14.46-.09.9-.31,1.63-.12.42-.44,1.12-.53,1.35"/>
    <path class="cls-9" d="m91.29,76.07c-.73.92-1.21,1.74-1.52,2.31-.43.8-.6,1.29-1.31,2.6-.34.62-.5.93-.71,1.24-.79,1.17-1.16,1.18-1.51,1.96-.32.72-.09.88-.39,1.9-.23.8-.56,1.3-.92,1.9-1.38,2.28-1.01,2.09-2.49,4.51-.76,1.25-1.06,1.64-1.72,2.85-.57,1.05-.83,1.65-1.01,2.34-.24.89-.28,1.67-.28,2.21"/>
    <path class="cls-9" d="m79.69,97.8c-.23-1.15.54-3.25.71-3.85.3-1.09.46-1.65.68-2.18.43-1.09.57-1.02.92-1.99.35-.96.25-1.14.63-2.09.19-.49.33-.72.77-1.58.86-1.64,1.18-2.29,1.27-2.49-.15.12-.41.48-1.2,1.21-.33.31-1.45,1.16-1.67,1.32"/>
    <path class="cls-9" d="m78.28,99.09c-.01-.31-.01-.72.02-1.2.02-.24.08-.91.3-1.84.23-.99.32-.87.57-1.91.16-.64.29-1.17.37-1.91.06-.56.04-.74.16-1.12.24-.76.7-1.21.69-1.21-.01,0-.78.73-1.35,1.95-.23.5-.25.68-.58,1.6-.37,1.05-.53,1.19-.77,1.96-.13.41-.27.86-.36,1.46-.08.59-.08,1.09-.07,1.45"/>
    <path class="cls-9" d="m90.27,80.02c-.35.43-.77.99-1.16,1.69-.21.36-.57,1.01-.88,1.9-.36,1.05-.2,1.14-.52,2.08-.3.87-.52,1.02-1.14,2.26-.45.91-.72,1.61-.98,2.27-.82,2.13-1.27,3.88-1.4,3.86-.1-.02.2-1.23.33-2.66.09-.98.12-1.44.24-2.17.1-.64.29-1.42.43-1.67"/>
    <path class="cls-9" d="m80.26,100.23c.05-.37.15-.92.35-1.57.13-.43.22-.6.74-1.85.4-.95.6-1.44.74-1.83.27-.76.65-2.51.67-2.98"/>
    <path class="cls-9" d="m80.96,100.52c.22-.26.52-.63.81-1.11.26-.42.61-.99.84-1.79.16-.57.23-1.11.28-1.52.04-.34.05-.55.12-.96.07-.43.15-.79.21-1.02"/>
    <path class="cls-9" d="m91.61,76.71c-.04.46-.09,1.01-.1,1.64-.04,1.18.04,1.43-.07,2.16-.11.74-.23.71-.37,1.59-.12.72-.2,1.17-.14,1.79.07.83.31,1.16.25,2.06,0,.13-.03.33,0,.34.05.01.2-.54.47-1.44.31-1.02.34-1.02.55-1.74.11-.38.6-2.13.63-3.08"/>
    <path class="cls-9" d="m93.11,82.3c-.05.36-.39,1.91-.6,2.53-.42,1.27-.8,2.09-1.09,2.89-.21.59-.43,1.58-.85,3.55-.07.33-.39,1.83-.82,3.65-.13.55-.28,1.2-.67,1.99-.33.68-.62,1.21-.82,1.46-.44.57-.97,1.31-1.34,1.61"/>
    <path class="cls-9" d="m83.39,100.99c.61-.41,1.43-1.07,2.16-2.08.21-.29,1-1.43,1.41-3.11.28-1.14.08-1.31.47-3.08.23-1.04.46-1.76.52-1.92.24-.73.33-.81.86-2.13.49-1.22.59-1.86.75-2.53.18-.77.13-1.48.16-1.8.06-.56.14-.85.4-1.33.16.65,0,1.61.07,3.73.01.48-.06.64-.04,1.06.03.94-.29,1.43-.66,2.47-.17.48-.35,1.29-.7,2.92-.31,1.42-.3,1.6-.53,2.23-.24.66-.4.9-.82,1.85-.35.81-.98,2.19-1.81,3.4"/>
    <path class="cls-9" d="m88.89,85.2c-.41,1.01-.73,1.9-.96,2.6-.2.61-.47,1.42-.75,2.51-.29,1.13-.3,1.46-.63,2.56-.22.75-.34,1.14-.57,1.63-.43.93-.63.88-1.12,1.83-.48.92-.4,1.18-.91,2.09-.28.51-.57.89-.77,1.15"/>
    <path class="cls-9" d="m87.94,96.14c.25-.5,1.49-2.51,1.73-3.07.15-.36.81-1.74.94-2.08"/>
  </g>
  <g>
    <path class="cls-4" d="m52.97,67.94h1.31c.8,0,1.44-.64,1.44-1.44v-.36c0-.8-.64-1.44-1.44-1.44H19.09c-.8,0-1.44.64-1.44,1.44v.36c0,.8.64,1.44,1.44,1.44h1.31"/>
    <polyline class="cls-4" points="21.37 80.84 20.4 67.94 35.11 67.94 52.97 67.94 52 80.84"/>
    <path class="cls-6" d="m52,80.84l-1.57,20.85-1.08,14.29c-.11,1.47-1.33,2.6-2.8,2.6h-19.72c-1.47,0-2.69-1.13-2.8-2.6l-1.08-14.29-1.57-20.85h30.63Z"/>
    <polygon class="cls-7" points="22.95 101.68 22.94 101.68 21.37 80.84 22.95 101.68"/>
  </g>
  <rect class="cls-10" x="-759.9" y="-514.12" width="3385.57" height="2571.67"/>
</svg>