<?xml version="1.0" encoding="UTF-8"?><svg id="Calque_1" xmlns="http://www.w3.org/2000/svg" viewBox="0 0 128 128"><defs><style>.cls-1{fill:#baa584;}.cls-1,.cls-2,.cls-3,.cls-4,.cls-5,.cls-6,.cls-7,.cls-8{stroke:#000;}.cls-1,.cls-3,.cls-4,.cls-6{stroke-width:.75px;}.cls-1,.cls-3,.cls-6{stroke-miterlimit:10;}.cls-2,.cls-4,.cls-5,.cls-9,.cls-7,.cls-10,.cls-11,.cls-12,.cls-8{stroke-linecap:round;stroke-linejoin:round;}.cls-2,.cls-5,.cls-7,.cls-10,.cls-11,.cls-12,.cls-8{stroke-width:2px;}.cls-2,.cls-11{fill:#76ac75;}.cls-3,.cls-5,.cls-10{fill:#fff;}.cls-4,.cls-9,.cls-12,.cls-8{fill:none;}.cls-6{fill:#a07637;}.cls-9{stroke:#fff;stroke-width:8px;}.cls-7{fill:#d6d6d6;}.cls-10,.cls-11,.cls-12{stroke:#1d1d1b;}</style></defs><rect class="cls-9" x="-623.3" y="-514.12" width="3385.57" height="2571.67"/><polygon class="cls-11" points="108.27 22.03 100.94 28.66 47.05 20.27 54.97 14.16 108.27 22.03"/><polygon class="cls-11" points="114.16 16.7 108.28 22.03 108.27 22.03 54.97 14.16 61.54 9.09 114.16 16.7"/><path class="cls-2" d="m100.94,28.66v34.62c-.96,1.3-2.09,2.15-3.51,2.15-4.94,0-13.23-1.2-18.7-9.62-5.48-8.42-13.49-7.39-16.17-5.57-2.67,1.82-14.11.86-14.91-6.75l-.6-23.22,53.89,8.4Z"/><path class="cls-10" d="m100.94,63.28v53.87l-.71.96-50.03-9.43-2.55-65.19c.8,7.62,12.23,8.58,14.91,6.75,2.67-1.82,10.69-2.85,16.17,5.57,5.47,8.42,13.76,9.62,18.7,9.62,1.43,0,2.55-.85,3.51-2.15Z"/><polygon class="cls-12" points="100.94 117.15 100.94 118.91 49.34 109.24 47.65 43.49 50.2 108.68 100.23 118.11 100.94 117.15"/><path class="cls-11" d="m114.16,36.05v65.06l-13.22,17.8v-1.76l12.65-17.08v-46.67s-3.47-5.61-6.68-1.87c-2.28,2.66-3.61,8.56-5.97,11.75V28.66l13.22,7.39Z"/><path class="cls-10" d="m113.6,53.4v46.67l-12.65,17.08v-53.87c2.36-3.19,3.69-9.09,5.97-11.75,3.21-3.74,6.68,1.87,6.68,1.87Z"/><polygon class="cls-11" points="117.04 37.66 114.16 36.05 100.94 28.66 108.27 22.03 108.28 22.03 114.16 32.53 117.04 37.66"/><polygon class="cls-11" points="117.04 37.66 114.16 32.53 108.28 22.03 114.16 16.7 117.04 37.66"/><g><path class="cls-7" d="m52.97,67.94h1.31c.8,0,1.44-.64,1.44-1.44v-.36c0-.8-.64-1.44-1.44-1.44H19.09c-.8,0-1.44.64-1.44,1.44v.36c0,.8.64,1.44,1.44,1.44h1.31"/><polyline class="cls-7" points="21.37 80.84 20.4 67.94 35.11 67.94 52.97 67.94 52 80.84"/><path class="cls-5" d="m52,80.84l-1.57,20.85-1.08,14.29c-.11,1.47-1.33,2.6-2.8,2.6h-19.72c-1.47,0-2.69-1.13-2.8-2.6l-1.08-14.29-1.57-20.85h30.63Z"/><polygon class="cls-8" points="22.95 101.68 22.94 101.68 21.37 80.84 22.95 101.68"/></g><g><g><path class="cls-6" d="m78.98,66.01c-.81-.51-1.16-1.24-1.26-1.42-.92-1.59-7.34-2.33-12.78.71-3.63,2.03-5.45,4.98-6.39,6.55-.77,1.28-2.32,4.22-2.68,8.2-.25,2.77.36,2.92.91,7.43.03.21.08.68.43.93.35.26.71.08,1.34.24.58.14.93.45,1.09.56.64.45,5.43,2.7,10.93,1.91,5.2-.75,9.82-4.05,12.27-8.3.72-1.24,2.04-3.61,1.97-6.86-.05-2.55-.91-4.28-1.97-6.39-1.31-2.62-2.25-2.98-2.6-3.08-.28-.08-.73-.14-1.26-.47Z"/><path d="m74.4,67.18c.23-.07.2-.17.84-.64.46-.33.58-.36.61-.51.08-.35-.41-.8-.84-1-.07-.03-.95-.41-1.64.13-.05.04-.66.53-.54,1.15.13.67,1.02,1.03,1.56.87Z"/><path d="m79.49,68.33c-.24.19-.16.61-.08,1.07.09.46.27,1.42.77,1.48.34.04.75-.33.79-.69.03-.26-.15-.32-.31-.82-.15-.51-.03-.66-.2-.87-.22-.27-.72-.38-.97-.18Z"/><path d="m76.62,68.89c-.6,0-.97.6-1.1.82-.3.49-.52,1.29-.2,1.53.21.16.58.02.95-.13.3-.12.75-.3,1.02-.77.1-.17.36-.62.15-1.02-.16-.31-.54-.44-.82-.43Z"/><path class="cls-4" d="m77.38,86.08c-3.44,2.11-6.02,2.31-7.78,2.07-1.57-.21-3.46-.91-6.65-.99-.79-.02-1.87,0-3.06.54-1.15.53-2.79,2.12-3.19,2.64"/><path class="cls-4" d="m71.43,89.79c-1.29.13-2.3.07-2.95,0-1.83-.2-2.44-.65-4.88-1.01-1.25-.19-1.9-.28-2.67-.14-1.37.25-2.37.99-2.95,1.52"/><path class="cls-4" d="m60.7,71.78c-.46.55-1.12,1.43-1.66,2.62-1.08,2.39-1.07,4.6-1.06,5.53.03,1.9.32,3.87.32,3.87.18,1.18.32,1.66.14,2.3-.36,1.25-1.62,1.99-2.58,2.39"/><path class="cls-4" d="m60.15,74.13c-.5,1.35-.72,2.54-.83,3.41-.17,1.41-.31,2.56.05,3.96.35,1.35.8,1.55.78,2.67,0,.35-.04,1.46-.83,2.39-.22.26-.44.44-.6.55"/><path class="cls-4" d="m57.67,69.1c.35-.36.93-.9,1.8-1.39,1.37-.77,2.36-.78,3.76-1.29"/><path class="cls-4" d="m66.51,64.45c-.07.06-.13.11-.2.17"/><path class="cls-4" d="m65.37,65.87c-1.01,1.17-2.01,1.86-2.72,2.27-1.44.83-2.46.94-3.79,1.95-.79.6-1.29,1.22-1.59,1.62"/><path class="cls-4" d="m83.2,80.18c-.24.48-.62,1.28-.97,2.31-.61,1.8-.57,2.61-1.17,3.91-.27.6-.76,1.48-1.67,2.43"/><path class="cls-4" d="m75.66,91.11c.12-.11.3-.27.52-.47.91-.8,1.58-1.26,1.83-1.45.39-.3.62-.62,1.29-2.12"/></g><g><path class="cls-1" d="m95.59,87.8c-.04-.67-.18-1.26-.36-1.77-.4-1.1-1-1.81-1.14-1.98-.18-.21-1.91-1.8-3.77-2.3-.39-.1.02.23-2.9.27-2.7.04-2.91.06-3.3.15-1.67.39-2.91,1.26-3.15,1.43-1.18.84-1.19,1.29-2.1,1.57-.95.29-1.34-.08-2.32.3-.64.25-.84.54-1.58,1.13-1.29,1.03-1.71.97-2.77,1.72-.72.52-2.11,1.51-2.77,3.22-.08.22-.42,1.13-.43,2.23,0,.75.15,1.58.65,2.34.75,1.14,1.88,1.51,3.45,2.02,1.59.52,3.2.61,6.37.75,1.42.07,2.13.1,2.47.07,2.72-.18,4.68-1.26,6.82-2.48,2.09-1.18,3.13-1.76,4.2-2.92.94-1.02,2.77-3.01,2.62-5.77Zm-3.79,2.15c-.59,1.2-1.37,1.9-2.11,2.56-.42.38-1.93,1.67-4.37,2.64-2.35.93-4.3,1.05-5.73,1.13-1.67.09-2.88.14-4.37-.38-.92-.32-2.99-1.04-3.24-2.56-.09-.54.07-1.06.29-1.51.24-.47.55-.86.76-1.12.62-.79,1.34-1.21,1.73-1.43.83-.47.92-.3,2.34-.9.21-.09,1.17-.51,2.34-1.21.24-.14.7-.42,1.28-.83.65-.46.75-.59,1.13-.83.41-.26.81-.44,1.81-.75,1.54-.49,2.31-.73,3.16-.83,1.1-.13,1.86-.22,2.79.07.29.09,1.77.56,2.52,1.84.11.18.19.36.26.57.47,1.37-.15,2.64-.6,3.54Z"/><path class="cls-3" d="m91.8,89.95c-.59,1.2-1.37,1.9-2.11,2.56-.42.38-1.93,1.67-4.37,2.64-2.35.93-4.3,1.05-5.73,1.13-1.67.09-2.88.14-4.37-.38-.92-.32-2.99-1.04-3.24-2.56-.09-.54.07-1.06.29-1.51.24-.47.55-.86.76-1.12.62-.79,1.34-1.21,1.73-1.43.83-.47.92-.3,2.34-.9.21-.09,1.17-.51,2.34-1.21.24-.14.7-.42,1.28-.83.65-.46.75-.59,1.13-.83.41-.26.81-.44,1.81-.75,1.54-.49,2.31-.73,3.16-.83,1.1-.13,1.86-.22,2.79.07.29.09,1.77.56,2.52,1.84.11.18.19.36.26.57.47,1.37-.15,2.64-.6,3.54Z"/><path class="cls-6" d="m96.06,91.26c-.12,4.89-3.71,7.95-4.38,8.5-2.24,1.83-4.54,2.34-6.28,2.73-3.04.67-5.46.37-7.48.13-3.17-.39-4.69-1.14-5.08-1.33-1.27-.65-3.16-2.58-3.42-4.2-.38-2.35-.6-2.88-.41-3.3,0,.75.15,1.58.65,2.34.75,1.14,1.88,1.51,3.45,2.02,1.59.52,3.2.61,6.37.75,1.42.07,2.13.1,2.47.07,2.72-.18,4.68-1.26,6.82-2.48,2.09-1.18,3.13-1.76,4.2-2.92.94-1.02,2.77-3.01,2.62-5.77-.04-.67-.18-1.26-.36-1.77.84,1.42.87,4.07.84,5.23Z"/><path class="cls-4" d="m92.95,97.38c.47-1.85,1.2-3.08,1.77-3.85,1.02-1.38,1.94-1.86,2.42-3.24.4-1.15.25-2.24.09-2.94"/><path class="cls-4" d="m96,88.22c.29-.66.29-1.16.23-1.5-.07-.43-.25-.68-.33-1.29-.05-.37-.03-.68-.01-.88"/><path class="cls-4" d="m75.23,102.21c-1.59-.28-2.75-.85-3.45-1.26-1.02-.6-1.74-1.26-2.08-1.58-.52-.48-.93-.95-1.19-1.26-.25-.3-.46-.57-.61-.79"/><path class="cls-4" d="m67.72,94.73c.08,1.24.51,1.93.89,2.34.31.33.64.5,1,.68"/></g></g></svg>