<?xml version="1.0" encoding="UTF-8"?><svg id="Calque_1" xmlns="http://www.w3.org/2000/svg" viewBox="0 0 128 128"><defs><style>.cls-1{fill:#76ac75;}.cls-2,.cls-3,.cls-4,.cls-5,.cls-6,.cls-7,.cls-8{stroke-linecap:round;stroke-linejoin:round;}.cls-2,.cls-3,.cls-5,.cls-6,.cls-7,.cls-8{stroke-width:2px;}.cls-2,.cls-5,.cls-8{stroke:#000;}.cls-2,.cls-6{fill:#fff;}.cls-3{fill:#b4eac3;}.cls-3,.cls-6,.cls-7{stroke:#1d1d1b;}.cls-4{stroke:#fff;stroke-width:8px;}.cls-4,.cls-7,.cls-8{fill:none;}.cls-5{fill:#d6d6d6;}</style></defs><polygon class="cls-3" points="106.43 22.03 99.1 28.66 45.21 20.27 53.13 14.16 106.43 22.03"/><polygon class="cls-3" points="112.32 16.7 106.44 22.03 106.43 22.03 53.13 14.16 59.7 9.09 112.32 16.7"/><path class="cls-3" d="m99.1,28.66v34.62c-.96,1.3-2.09,2.15-3.51,2.15-4.94,0-13.23-1.2-18.7-9.62-5.48-8.42-13.49-7.39-16.17-5.57-2.67,1.82-14.11.86-14.91-6.75l-.6-23.22,53.89,8.4Z"/><path class="cls-6" d="m99.1,63.28v53.87l-.71.96-50.03-9.43-2.55-65.19c.8,7.62,12.23,8.58,14.91,6.75,2.67-1.82,10.69-2.85,16.17,5.57,5.47,8.42,13.76,9.62,18.7,9.62,1.43,0,2.55-.85,3.51-2.15Z"/><polygon class="cls-7" points="99.1 117.15 99.1 118.91 47.5 109.24 45.81 43.49 48.36 108.68 98.39 118.11 99.1 117.15"/><path class="cls-3" d="m112.32,36.05v65.06l-13.22,17.8v-1.76l12.65-17.08v-46.67s-3.47-5.61-6.68-1.87c-2.28,2.66-3.61,8.56-5.97,11.75V28.66l13.22,7.39Z"/><path class="cls-6" d="m111.76,53.4v46.67l-12.65,17.08v-53.87c2.36-3.19,3.69-9.09,5.97-11.75,3.21-3.74,6.68,1.87,6.68,1.87Z"/><polygon class="cls-3" points="115.2 37.66 112.32 36.05 99.1 28.66 106.43 22.03 106.44 22.03 112.32 32.53 115.2 37.66"/><polygon class="cls-3" points="115.2 37.66 112.32 32.53 106.44 22.03 112.32 16.7 115.2 37.66"/><g><path class="cls-5" d="m53.99,67.94h1.31c.8,0,1.44-.64,1.44-1.44v-.36c0-.8-.64-1.44-1.44-1.44H20.11c-.8,0-1.44.64-1.44,1.44v.36c0,.8.64,1.44,1.44,1.44h1.31"/><polyline class="cls-5" points="22.39 80.84 21.41 67.94 36.13 67.94 53.99 67.94 53.02 80.84"/><path class="cls-2" d="m53.02,80.84l-1.57,20.85-1.08,14.29c-.11,1.47-1.33,2.6-2.8,2.6h-19.72c-1.47,0-2.69-1.13-2.8-2.6l-1.08-14.29-1.57-20.85h30.63Z"/><polygon class="cls-8" points="23.96 101.68 23.96 101.68 22.39 80.84 23.96 101.68"/></g><rect class="cls-4" x="-897.12" y="-514.12" width="3385.57" height="2571.67"/><g><g><path class="cls-1" d="m74.53,99.17s-.07,0-.11-.01c-1.4-.31-8.55-2.25-12.17-9.5-3.33-6.68-1.29-12.95-.58-14.72.08-.2.27-.31.46-.31.06,0,.12,0,.17.03.32.12,7.8,2.92,11.48,9.6,2.94,5.32,2.48,11.45,2.15,13.84-.03.22-.21.4-.43.43-.02,0-.04,0-.06,0-.2,0-.38-.12-.46-.31-.37-.88-.73-1.77-1.07-2.66l-1.12-2.95c-.19-.48-.39-.97-.61-1.46-.22-.48-.45-.96-.7-1.42-.52-.97-1.07-1.88-1.65-2.7-.14-.21-.29-.41-.44-.61.13.21.25.43.37.65.51.89,1,1.83,1.45,2.79.42.9.83,1.84,1.23,2.89l.58,1.47c.2.48.39.97.61,1.46.43.97.88,1.9,1.34,2.75.09.17.08.38-.04.54-.1.13-.24.2-.4.2Z"/><path d="m62.14,75.13s7.58,2.78,11.22,9.37c2.87,5.21,2.41,11.24,2.09,13.53-.37-.88-.73-1.76-1.07-2.65l-1.12-2.95c-.2-.49-.4-.99-.62-1.48-.22-.49-.46-.98-.71-1.45-.51-.95-1.07-1.87-1.69-2.75-1.24-1.75-2.68-3.36-4.31-4.72,1.21,1.75,2.38,3.49,3.4,5.3.51.9.99,1.82,1.43,2.76.44.94.84,1.88,1.22,2.86l.58,1.47c.2.49.4.98.61,1.47.42.95.87,1.88,1.36,2.79-.96-.22-8.21-1.98-11.83-9.23-3.42-6.86-.96-13.31-.57-14.31m0-1c-.4,0-.77.24-.93.63-.73,1.81-2.83,8.26.6,15.12,3.72,7.45,11.07,9.44,12.5,9.76.07.02.15.02.22.02.31,0,.61-.14.8-.4.06-.07.1-.16.13-.24.04,0,.07,0,.11,0,.45-.06.8-.41.86-.85.34-2.44.8-8.7-2.21-14.15-3.77-6.84-11.42-9.71-11.75-9.83-.11-.04-.23-.06-.34-.06h0Z"/></g><g><path class="cls-1" d="m78.34,99.42c-.14,0-.27-.06-.37-.16-.14-.15-.17-.38-.08-.57.11-.21.21-.42.32-.64.19-.39.37-.79.55-1.19l.54-1.22c.38-.87.75-1.65,1.13-2.39.24-.46.5-.92.76-1.37-.29.42-.57.87-.84,1.33-.22.38-.43.77-.63,1.17-.2.4-.38.8-.56,1.2l-1.03,2.43-.32.73c-.08.18-.26.3-.46.3-.03,0-.05,0-.08,0-.22-.04-.4-.22-.42-.44-.21-2.04-.41-7.25,2.27-11.68,3.32-5.5,9.73-7.62,10-7.71.05-.02.1-.02.15-.02.09,0,.18.02.26.07.12.08.21.2.23.34.05.28,1.16,6.93-2.17,12.44-2.61,4.32-7.2,6.58-9.06,7.35-.06.03-.13.04-.19.04Z"/><path d="m89.27,79.68s1.16,6.68-2.1,12.09c-2.52,4.17-6.93,6.36-8.82,7.15.11-.21.22-.43.32-.64.2-.4.38-.81.56-1.22l.53-1.21c.35-.81.71-1.59,1.11-2.36.4-.77.83-1.52,1.29-2.27.92-1.49,1.95-2.91,3.03-4.34-1.41,1.09-2.67,2.39-3.77,3.82-.55.72-1.05,1.47-1.51,2.25-.23.39-.44.79-.65,1.2-.2.41-.39.82-.57,1.23l-1.04,2.44c-.1.24-.21.48-.32.72-.19-1.87-.43-7.03,2.2-11.37,3.27-5.41,9.72-7.49,9.72-7.49m0-1c-.1,0-.21.02-.31.05-.28.09-6.85,2.26-10.27,7.93-2.76,4.56-2.55,9.91-2.34,11.99.05.45.39.81.84.88.05,0,.1.01.16.01.07,0,.13,0,.19-.02.02.03.04.05.06.07.19.21.46.32.73.32.13,0,.26-.02.38-.08,1.9-.79,6.61-3.11,9.29-7.55,3.42-5.66,2.28-12.49,2.23-12.78-.05-.29-.22-.54-.47-.68-.16-.1-.34-.14-.52-.14h0Z"/></g></g></svg>