<?xml version="1.0" encoding="UTF-8"?>
<svg id="Calque_1" data-name="Calque 1" xmlns="http://www.w3.org/2000/svg" viewBox="0 0 128 128.13">
  <defs>
    <style>
      .cls-1, .cls-2, .cls-3, .cls-4, .cls-5, .cls-6, .cls-7, .cls-8, .cls-9, .cls-10 {
        stroke-linecap: round;
        stroke-linejoin: round;
      }

      .cls-1, .cls-2, .cls-3, .cls-4, .cls-5, .cls-6, .cls-7, .cls-8, .cls-9, .cls-11 {
        stroke: #000;
      }

      .cls-1, .cls-7 {
        fill: #d6d6d6;
      }

      .cls-2 {
        fill: #a07637;
      }

      .cls-3 {
        fill: #bfe6fc;
      }

      .cls-4, .cls-12, .cls-6 {
        fill: #fff;
      }

      .cls-5 {
        fill: #b4eac3;
      }

      .cls-5, .cls-6, .cls-8 {
        stroke-width: 2px;
      }

      .cls-7 {
        stroke-width: .5px;
      }

      .cls-8, .cls-9, .cls-10, .cls-11 {
        fill: none;
      }

      .cls-9 {
        stroke-width: 2.06px;
      }

      .cls-10 {
        stroke: #fff;
        stroke-width: 8px;
      }

      .cls-11 {
        stroke-miterlimit: 10;
      }
    </style>
  </defs>
  <path class="cls-9" d="m14.65,19.52v81.26s10.05,6.38,30.55,6.38,30.77-6.38,30.77-6.38V19.39l-61.32.13Z"/>
  <path class="cls-6" d="m121.99,63.57l-.73.65-39.22,34.37c0,.05-.01.09-.02.14-.21,1.06-.48,2.11-.72,3.16-.19.82-.36,1.65-.54,2.48h0c-.55,2.5-1.19,5-2.64,7.12-4.31,6.3-15.91,8.46-22.78,5.93-.78-.29-1.58-.65-2.27-1.13-.88-.6-1.62-1.36-2.02-2.34-.68-1.69-.19-3.67.83-5.18,2.09-3.12,5.87-5.35,9.26-6.74,2.24-.91,4.58-1.54,6.91-2.16,1.05-.28,2.1-.57,3.14-.87,1.67-.5,3.32-1.05,4.89-1.79.02,0,.04-.02.06-.03l42.01-33.73c1.2-.98,2.86-1.08,3.84.12Z"/>
  <path class="cls-6" d="m121.39,67.4l-39.26,34.23h0c-.21,1.09-.48,2.16-.73,3.22-.77,3.27-1.24,6.77-3.19,9.6-4.31,6.3-13.85,8.22-20.72,5.69-1.78-.65-3.58-1.72-4.29-3.47-.05-.13-.09-.25-.13-.38.69.48,1.49.84,2.27,1.13,6.87,2.53,18.47.37,22.78-5.93,1.45-2.12,2.09-4.62,2.64-7.11h0c.18-.84.35-1.67.54-2.49.24-1.05.51-2.1.72-3.16.01-.05.02-.09.02-.14l39.22-34.37.75-.61c.83.95.55,2.78-.62,3.79Z"/>
  <path class="cls-1" d="m52.65,110.77s4.29,5.17,13.14,4.5c10.29-.78,12.29-11.77,12.29-11.77,0,0-3.99-1.18-5.56-2.33s-5.73-4.3-5.73-4.3c-1.33-1.28-3.09-2.06-4.78,0s-1.72,2.22-3.03,4.36c-1.31,2.14-1.96,3.56-3.9,6.26-1.18,1.64-2.43,3.28-2.43,3.28Z"/>
  <circle class="cls-7" cx="62.5" cy="98.71" r=".36"/>
  <circle class="cls-7" cx="59.96" cy="105.27" r=".36"/>
  <circle class="cls-7" cx="55.79" cy="108.86" r=".36"/>
  <circle class="cls-7" cx="65.47" cy="111.68" r=".36"/>
  <circle class="cls-7" cx="59.16" cy="111.88" r=".36"/>
  <circle class="cls-7" cx="64.14" cy="106.88" r=".36"/>
  <circle class="cls-7" cx="69.16" cy="106.52" r=".36"/>
  <circle class="cls-7" cx="71.43" cy="108.5" r=".36"/>
  <circle class="cls-7" cx="61.78" cy="112.96" r=".36"/>
  <circle class="cls-7" cx="63.06" cy="101.98" r=".36"/>
  <circle class="cls-7" cx="67.59" cy="103.86" r=".36"/>
  <circle class="cls-7" cx="67.01" cy="102.2" r=".36"/>
  <circle class="cls-7" cx="65.43" cy="99.29" r=".36"/>
  <circle class="cls-7" cx="72.15" cy="104.22" r=".36"/>
  <circle class="cls-7" cx="61.42" cy="108.35" r=".36"/>
  <circle class="cls-7" cx="60.68" cy="101.84" r=".36"/>
  <circle class="cls-7" cx="58.01" cy="107.09" r=".36"/>
  <circle class="cls-7" cx="69.71" cy="101.26" r=".36"/>
  <circle class="cls-7" cx="67.37" cy="109.22" r=".36"/>
  <circle class="cls-7" cx="75.78" cy="105.27" r=".36"/>
  <circle class="cls-7" cx="68.99" cy="112.6" r=".36"/>
  <circle class="cls-7" cx="55.22" cy="111.52" r=".36"/>
  <circle class="cls-7" cx="64.75" cy="96.4" r=".36"/>
  <path class="cls-5" d="m77.1,24.65s-16.13-.57-31.91-.57-31.91.57-31.91.57v-6.4s16.05-.57,31.91-.57,31.91.57,31.91.57v6.4Z"/>
  <path class="cls-8" d="m68.38,43.13v49.71c-1.81.85-13.32,3.6-23.08,3.6s-21.2-2.85-23.08-3.77v-49.67s14.86,1.02,22.98,1.02,23.18-.89,23.18-.89Z"/>
  <path class="cls-3" d="m50.72,62.58c.55.6.86,1.38.86,2.2v24.55c0,2.1-2.69,3.04-6.02,3.04s-6.02-.94-6.02-3.04v-24.55c0-.82.31-1.6.86-2.2l.33-.36c.55-.6.86-1.39.86-2.2v-1.85h7.93v1.85c0,.81.31,1.6.86,2.2l.33.36Z"/>
  <path class="cls-2" d="m48.14,53.77v1.75h-5.15v-1.75c0-.17.05-.34.13-.48.29-.49.95-.99,1.09-1.53.13-.5.19-1.01.19-1.53,0-.2,0-.39-.03-.59,0-.08-.02-.17-.03-.25,0-.66.55-1.19,1.22-1.19s1.22.53,1.22,1.19c-.01.08-.02.17-.03.25-.07.78,0,1.57.22,2.32.14.48.78.9,1.04,1.33.08.14.13.3.13.48Z"/>
  <path class="cls-4" d="m50.34,56.61l-.91-.07c-2.55-.21-5.11-.21-7.67,0l-.99.08v2.46l.96-.08c2.55-.2,5.11-.2,7.67,0l.93.07v-2.46Z"/>
  <path class="cls-4" d="m49.85,56.57h0c-2.84-.25-5.69-.26-8.53,0h-.04s0-1.35,0-1.35h.05c2.84-.26,5.69-.25,8.53,0h0v1.36Z"/>
  <line class="cls-11" x1="41.39" y1="66.31" x2="43.56" y2="66.31"/>
  <line class="cls-11" x1="41.39" y1="69.74" x2="43.56" y2="69.74"/>
  <line class="cls-11" x1="41.39" y1="73.17" x2="43.56" y2="73.17"/>
  <line class="cls-11" x1="41.39" y1="76.6" x2="43.56" y2="76.6"/>
  <line class="cls-11" x1="41.39" y1="80.03" x2="43.56" y2="80.03"/>
  <line class="cls-11" x1="41.39" y1="83.46" x2="43.56" y2="83.46"/>
  <line class="cls-11" x1="41.39" y1="86.89" x2="43.56" y2="86.89"/>
  <path class="cls-12" d="m46.76,62.52s1.77,0,1.78,0c.27,0,.62,1.15.69,1.36.18.59.22,1.17.24,1.78,0,.08.09,1.24.03,1.24-.66,0-.94,0-1.6,0,.04,0-.12-2.32-.15-2.5-.07-.38-.18-.77-.36-1.11-.1-.18-.38-.77-.61-.77Z"/>
  <rect class="cls-10" x="-3646.15" y="-1872.09" width="6467.34" height="6437.3"/>
</svg>