<?xml version="1.0" encoding="UTF-8"?>
<svg id="Calque_1" data-name="Calque 1" xmlns="http://www.w3.org/2000/svg" viewBox="0 0 128 128">
  <defs>
    <style>
      .cls-1 {
        fill: #fff;
        stroke: #000;
        stroke-miterlimit: 10;
        stroke-width: 2px;
      }

      .cls-2 {
        fill: none;
        stroke: #fff;
        stroke-linecap: round;
        stroke-linejoin: round;
        stroke-width: 8px;
      }
    </style>
  </defs>
  <path class="cls-1" d="m123.95,89.68l-10.77,8.29c-.4.31-.64.79-.64,1.29v8.64c0,5.32-3.21,9.63-7.17,9.63H13.8c-3.96,0-7.17-4.31-7.17-9.63V23.93c0-5.32,3.21-9.63,7.17-9.63h91.58c3.96,0,7.17,4.31,7.17,9.63v53.59c0,.51.24.98.64,1.29l10.77,8.29c.85.65.85,1.93,0,2.59Z"/>
  <g>
    <path d="m39.49,23.65h3.44c.94,0,1.61.28,2,.84.23.33.35.71.35,1.15,0,.51-.14.92-.43,1.24-.15.17-.36.33-.64.47.41.16.72.33.92.53.36.35.54.83.54,1.45,0,.52-.16.98-.49,1.4-.48.63-1.25.94-2.31.94h-3.39v-8.01Zm3.04,3.39c.46,0,.81-.06,1.07-.19.4-.2.6-.56.6-1.08s-.21-.88-.64-1.06c-.24-.1-.6-.15-1.07-.15h-1.94v2.48h1.97Zm.37,3.7c.67,0,1.14-.19,1.42-.58.18-.24.27-.54.27-.88,0-.58-.26-.98-.78-1.19-.28-.11-.64-.17-1.1-.17h-2.15v2.82h2.34Z"/>
    <path d="m51.1,26.4c.52.5.78,1.24.78,2.21s-.23,1.72-.69,2.33-1.17.92-2.13.92c-.8,0-1.44-.27-1.91-.82s-.71-1.27-.71-2.19c0-.98.25-1.76.75-2.35s1.17-.87,2.01-.87c.75,0,1.39.25,1.91.75Zm-.61,3.89c.24-.49.36-1.04.36-1.64,0-.55-.09-.99-.26-1.33-.28-.54-.75-.81-1.43-.81-.6,0-1.04.23-1.31.69s-.41,1.01-.41,1.66.14,1.14.41,1.55.71.62,1.3.62c.65,0,1.1-.25,1.34-.74Z"/>
    <path d="m53.05,25.82h.93v.83c.28-.34.57-.59.88-.74s.65-.22,1.03-.22c.83,0,1.39.29,1.68.87.16.32.24.77.24,1.36v3.75h-1v-3.68c0-.36-.05-.64-.16-.86-.17-.36-.49-.55-.95-.55-.23,0-.42.02-.57.07-.27.08-.51.24-.71.48-.16.19-.27.39-.32.6s-.07.5-.07.88v3.06h-.98v-5.84Z"/>
    <path d="m58.34,33.14c.44-.01.7-.05.79-.12s.13-.26.13-.6v-6.58h.98v6.68c0,.43-.07.74-.21.95-.23.36-.66.53-1.3.53-.05,0-.1,0-.15,0s-.14-.01-.25-.02v-.85Zm1.91-8.36h-.98v-1.13h.98v1.13Z"/>
    <path d="m66.01,26.4c.52.5.78,1.24.78,2.21s-.23,1.72-.69,2.33c-.46.61-1.17.92-2.13.92-.8,0-1.44-.27-1.91-.82s-.71-1.27-.71-2.19c0-.98.25-1.76.75-2.35.5-.58,1.17-.87,2.01-.87.75,0,1.39.25,1.91.75Zm-.61,3.89c.24-.49.36-1.04.36-1.64,0-.55-.09-.99-.26-1.33-.28-.54-.75-.81-1.43-.81-.6,0-1.04.23-1.31.69s-.41,1.01-.41,1.66.14,1.14.41,1.55c.27.41.71.62,1.3.62.65,0,1.1-.25,1.34-.74Z"/>
    <path d="m68.94,25.82v3.88c0,.3.05.54.14.73.17.35.5.52.98.52.68,0,1.15-.31,1.4-.92.13-.33.2-.78.2-1.35v-2.87h.98v5.84h-.93v-.86c-.12.22-.27.41-.46.56-.37.31-.83.46-1.36.46-.83,0-1.4-.28-1.7-.83-.16-.3-.25-.7-.25-1.19v-3.97h1Z"/>
    <path d="m74.2,25.82h.93v1.01c.08-.2.26-.44.56-.72s.64-.42,1.03-.42c.02,0,.05,0,.09,0s.12.01.22.02v1.04c-.06-.01-.11-.02-.16-.02s-.1,0-.16,0c-.49,0-.87.16-1.14.48s-.4.68-.4,1.1v3.36h-.98v-5.84Z"/>
  </g>
  <g>
    <path d="m46.2,42.26h1.1v3.31h4.17v-3.31h1.1v8.01h-1.1v-3.75h-4.17v3.75h-1.1v-8.01Z"/>
    <path d="m57.75,44.6c.39.19.69.45.89.76.2.29.33.64.39,1.03.06.27.09.7.09,1.29h-4.28c.02.59.16,1.07.42,1.43s.67.54,1.22.54c.51,0,.92-.17,1.23-.51.17-.2.3-.42.37-.68h.97c-.03.21-.11.45-.25.72s-.3.48-.48.65c-.3.29-.67.49-1.11.59-.24.06-.5.09-.8.09-.73,0-1.34-.26-1.85-.79-.51-.53-.76-1.27-.76-2.22s.25-1.7.76-2.29,1.17-.88,2-.88c.41,0,.82.1,1.21.29Zm.36,2.29c-.04-.43-.13-.77-.28-1.02-.27-.47-.72-.71-1.35-.71-.45,0-.83.16-1.13.49s-.47.74-.49,1.24h3.25Z"/>
    <path d="m60.35,42.26h.98v8.01h-.98v-8.01Z"/>
    <path d="m62.83,42.26h.98v8.01h-.98v-8.01Z"/>
    <path d="m69.55,45.02c.52.5.78,1.24.78,2.21s-.23,1.72-.69,2.33c-.46.61-1.17.92-2.13.92-.8,0-1.44-.27-1.91-.82s-.71-1.27-.71-2.19c0-.98.25-1.76.75-2.35s1.17-.87,2.01-.87c.75,0,1.39.25,1.91.75Zm-.61,3.89c.24-.49.36-1.04.36-1.64,0-.55-.09-.99-.26-1.33-.28-.54-.75-.81-1.43-.81-.6,0-1.04.23-1.31.69s-.41,1.01-.41,1.66.14,1.14.41,1.55.71.62,1.3.62c.65,0,1.1-.25,1.34-.74Z"/>
  </g>
  <g>
    <path d="m28.14,60.88h3.44c.94,0,1.61.28,2,.84.23.33.35.71.35,1.15,0,.51-.14.92-.43,1.24-.15.17-.36.33-.64.47.41.16.72.33.92.53.36.35.54.83.54,1.45,0,.52-.16.98-.49,1.4-.48.63-1.25.94-2.31.94h-3.39v-8.01Zm3.04,3.39c.46,0,.81-.06,1.07-.19.4-.2.6-.56.6-1.08s-.21-.88-.64-1.06c-.24-.1-.6-.15-1.07-.15h-1.94v2.48h1.97Zm.37,3.7c.67,0,1.14-.19,1.42-.58.18-.24.27-.54.27-.88,0-.58-.26-.98-.78-1.19-.28-.11-.64-.17-1.1-.17h-2.15v2.82h2.34Z"/>
    <path d="m36.47,63.05v3.88c0,.3.05.54.14.73.17.35.5.52.98.52.68,0,1.15-.31,1.4-.92.13-.33.2-.78.2-1.35v-2.87h.98v5.84h-.93v-.86c-.12.22-.27.41-.46.56-.37.31-.83.46-1.36.46-.83,0-1.4-.28-1.7-.83-.16-.3-.25-.7-.25-1.19v-3.97h1Z"/>
    <path d="m45.34,63.21c.39.19.69.45.89.76.2.29.33.64.39,1.03.06.27.09.7.09,1.29h-4.28c.02.59.16,1.07.42,1.43.26.36.67.54,1.22.54.51,0,.92-.17,1.23-.51.17-.2.3-.42.37-.68h.97c-.03.21-.11.45-.25.72s-.3.48-.48.65c-.3.29-.67.49-1.11.59-.24.06-.5.09-.8.09-.73,0-1.34-.26-1.85-.79s-.76-1.27-.76-2.22.25-1.7.76-2.29,1.17-.88,2-.88c.41,0,.82.1,1.21.29Zm.36,2.29c-.04-.43-.13-.77-.28-1.02-.27-.47-.72-.71-1.35-.71-.45,0-.83.16-1.13.49s-.47.74-.49,1.24h3.25Z"/>
    <path d="m47.91,63.05h.93v.83c.28-.34.57-.59.88-.74s.65-.22,1.03-.22c.83,0,1.39.29,1.68.87.16.32.24.77.24,1.36v3.75h-1v-3.68c0-.36-.05-.64-.16-.86-.17-.36-.49-.55-.95-.55-.23,0-.42.02-.57.07-.27.08-.51.24-.71.48-.16.19-.27.39-.32.6s-.07.5-.07.88v3.06h-.98v-5.84Z"/>
    <path d="m58.39,63.64c.52.5.78,1.24.78,2.21s-.23,1.72-.69,2.33-1.17.92-2.13.92c-.8,0-1.44-.27-1.91-.82-.47-.54-.71-1.27-.71-2.19,0-.98.25-1.76.75-2.35s1.17-.87,2.01-.87c.75,0,1.39.25,1.91.75Zm-.61,3.89c.24-.49.36-1.04.36-1.64,0-.55-.09-.99-.26-1.33-.28-.54-.75-.81-1.43-.81-.6,0-1.04.23-1.31.69s-.41,1.01-.41,1.66.14,1.14.41,1.55.71.62,1.3.62c.65,0,1.1-.25,1.34-.74Z"/>
    <path d="m60.92,67.06c.03.33.11.58.25.75.25.32.68.47,1.29.47.36,0,.68-.08.96-.24s.41-.4.41-.73c0-.25-.11-.44-.33-.57-.14-.08-.42-.17-.84-.28l-.78-.2c-.5-.12-.87-.26-1.1-.41-.42-.27-.63-.63-.63-1.1,0-.55.2-1,.6-1.34s.93-.51,1.61-.51c.88,0,1.51.26,1.9.77.24.33.36.68.35,1.06h-.93c-.02-.22-.1-.42-.23-.61-.23-.26-.62-.39-1.17-.39-.37,0-.65.07-.84.21s-.29.33-.29.56c0,.25.13.46.38.61.15.09.36.17.64.24l.65.16c.71.17,1.18.34,1.42.5.38.25.57.65.57,1.18s-.2.97-.59,1.35-1,.57-1.8.57c-.87,0-1.48-.2-1.85-.59s-.56-.88-.58-1.46h.94Z"/>
    <path d="m72.25,63.23c.17.11.37.3.59.57v-2.95h.94v8.04h-.88v-.81c-.23.36-.5.62-.81.78s-.67.24-1.07.24c-.65,0-1.21-.27-1.69-.82s-.71-1.28-.71-2.18c0-.85.22-1.59.65-2.21s1.06-.94,1.86-.94c.45,0,.82.09,1.12.28Zm-2.2,4.38c.27.42.69.63,1.28.63.45,0,.83-.2,1.12-.59s.44-.95.44-1.68-.15-1.28-.45-1.64-.67-.53-1.12-.53c-.49,0-.9.19-1.2.57s-.46.93-.46,1.67c0,.63.13,1.15.4,1.57Z"/>
    <path d="m75.24,60.88h1v1.11h-1v-1.11Zm0,2.2h1v5.81h-1v-5.81Z"/>
    <path d="m80.85,65.35c.23-.03.38-.12.45-.28.04-.09.07-.21.07-.38,0-.33-.12-.58-.36-.73s-.58-.23-1.02-.23c-.51,0-.88.14-1.09.41-.12.15-.2.38-.23.68h-.92c.02-.72.25-1.22.7-1.5s.97-.42,1.56-.42c.69,0,1.25.13,1.67.39.43.26.64.67.64,1.22v3.37c0,.1.02.18.06.25s.13.09.26.09c.04,0,.09,0,.15,0s.11-.01.17-.02v.73c-.15.04-.27.07-.35.08s-.19.02-.33.02c-.34,0-.58-.12-.74-.36-.08-.13-.14-.31-.17-.54-.2.26-.49.49-.86.68s-.79.29-1.24.29c-.54,0-.98-.16-1.33-.49s-.52-.74-.52-1.24c0-.54.17-.96.51-1.26s.78-.48,1.33-.55l1.57-.2Zm-2.07,2.66c.21.16.45.25.74.25.35,0,.68-.08,1-.24.55-.27.82-.7.82-1.3v-.79c-.12.08-.27.14-.46.19s-.37.09-.56.11l-.59.08c-.36.05-.62.12-.8.22-.3.17-.45.44-.45.82,0,.28.1.51.31.67Z"/>
    <path d="m84.51,67.06c.03.33.11.58.25.75.25.32.68.47,1.29.47.36,0,.68-.08.96-.24s.41-.4.41-.73c0-.25-.11-.44-.33-.57-.14-.08-.42-.17-.84-.28l-.78-.2c-.5-.12-.87-.26-1.1-.41-.42-.27-.63-.63-.63-1.1,0-.55.2-1,.6-1.34s.93-.51,1.61-.51c.88,0,1.51.26,1.9.77.24.33.36.68.35,1.06h-.93c-.02-.22-.1-.42-.23-.61-.23-.26-.62-.39-1.17-.39-.37,0-.65.07-.84.21s-.29.33-.29.56c0,.25.13.46.38.61.15.09.36.17.64.24l.65.16c.71.17,1.18.34,1.42.5.38.25.57.65.57,1.18s-.2.97-.59,1.35-1,.57-1.8.57c-.87,0-1.48-.2-1.85-.59-.36-.39-.56-.88-.58-1.46h.94Z"/>
  </g>
  <g>
    <path d="m30.33,79.5h3.44c.94,0,1.61.28,2,.84.23.33.35.71.35,1.15,0,.51-.14.92-.43,1.24-.15.17-.36.33-.64.47.41.16.72.33.92.53.36.35.54.83.54,1.45,0,.52-.16.98-.49,1.4-.48.63-1.25.94-2.31.94h-3.39v-8.01Zm3.04,3.39c.46,0,.81-.06,1.07-.19.4-.2.6-.56.6-1.08s-.21-.88-.64-1.06c-.24-.1-.6-.15-1.07-.15h-1.94v2.48h1.97Zm.37,3.7c.67,0,1.14-.19,1.42-.58.18-.24.27-.54.27-.88,0-.58-.26-.98-.78-1.19-.28-.11-.64-.17-1.1-.17h-2.15v2.82h2.34Z"/>
    <path d="m38.66,81.67v3.88c0,.3.05.54.14.73.17.35.5.52.98.52.68,0,1.15-.31,1.4-.92.13-.33.2-.78.2-1.35v-2.87h.98v5.84h-.93v-.86c-.12.22-.27.41-.46.56-.37.31-.83.46-1.36.46-.83,0-1.4-.28-1.7-.83-.16-.3-.25-.7-.25-1.19v-3.97h1Z"/>
    <path d="m48.16,82.25c.52.5.78,1.24.78,2.21s-.23,1.72-.69,2.33-1.17.92-2.13.92c-.8,0-1.44-.27-1.91-.82-.47-.54-.71-1.27-.71-2.19,0-.98.25-1.76.75-2.35s1.17-.87,2.01-.87c.75,0,1.39.25,1.91.75Zm-.61,3.89c.24-.49.36-1.04.36-1.64,0-.55-.09-.99-.26-1.33-.28-.54-.75-.81-1.43-.81-.6,0-1.04.23-1.31.69s-.41,1.01-.41,1.66.14,1.14.41,1.55.71.62,1.3.62c.65,0,1.1-.25,1.34-.74Z"/>
    <path d="m50.1,81.67h.93v.83c.28-.34.57-.59.88-.74s.65-.22,1.03-.22c.83,0,1.39.29,1.68.87.16.32.24.77.24,1.36v3.75h-1v-3.68c0-.36-.05-.64-.16-.86-.17-.36-.49-.55-.95-.55-.23,0-.42.02-.57.07-.27.08-.51.24-.71.48-.16.19-.27.39-.32.6s-.07.5-.07.88v3.06h-.98v-5.84Z"/>
    <path d="m59.58,81.91c.19.13.37.31.57.56v-.74h.91v5.31c0,.74-.11,1.33-.33,1.76-.41.79-1.18,1.19-2.31,1.19-.63,0-1.16-.14-1.59-.42s-.67-.72-.72-1.32h1c.05.26.14.46.28.61.22.22.57.33,1.05.33.75,0,1.25-.27,1.48-.8.14-.31.2-.87.19-1.67-.2.3-.43.52-.71.67s-.64.22-1.1.22c-.63,0-1.19-.22-1.66-.67-.47-.45-.71-1.19-.71-2.23,0-.98.24-1.74.72-2.29s1.06-.82,1.73-.82c.46,0,.86.11,1.2.34Zm.12,1.05c-.3-.35-.68-.52-1.14-.52-.69,0-1.16.32-1.42.97-.13.35-.2.8-.2,1.36,0,.66.13,1.16.4,1.5s.63.52,1.08.52c.71,0,1.2-.32,1.49-.95.16-.36.24-.78.24-1.26,0-.72-.15-1.26-.45-1.61Z"/>
    <path d="m62.53,79.5h1v1.11h-1v-1.11Zm0,2.2h1v5.81h-1v-5.81Z"/>
    <path d="m69.27,82.25c.52.5.78,1.24.78,2.21s-.23,1.72-.69,2.33c-.46.61-1.17.92-2.13.92-.8,0-1.44-.27-1.91-.82s-.71-1.27-.71-2.19c0-.98.25-1.76.75-2.35s1.17-.87,2.01-.87c.75,0,1.39.25,1.91.75Zm-.61,3.89c.24-.49.36-1.04.36-1.64,0-.55-.09-.99-.26-1.33-.28-.54-.75-.81-1.43-.81-.6,0-1.04.23-1.31.69s-.41,1.01-.41,1.66.14,1.14.41,1.55.71.62,1.3.62c.65,0,1.1-.25,1.34-.74Z"/>
    <path d="m71.25,81.67h.93v1.01c.08-.2.26-.44.56-.72s.64-.42,1.03-.42c.02,0,.05,0,.09,0s.12.01.22.02v1.04c-.06-.01-.11-.02-.16-.02s-.1,0-.16,0c-.49,0-.87.16-1.14.48s-.4.68-.4,1.1v3.36h-.98v-5.84Z"/>
    <path d="m74.94,81.67h.93v.83c.28-.34.57-.59.88-.74s.65-.22,1.03-.22c.83,0,1.39.29,1.68.87.16.32.24.77.24,1.36v3.75h-1v-3.68c0-.36-.05-.64-.16-.86-.17-.36-.49-.55-.95-.55-.23,0-.42.02-.57.07-.27.08-.51.24-.71.48-.16.19-.27.39-.32.6s-.07.5-.07.88v3.06h-.98v-5.84Z"/>
    <path d="m85.42,82.25c.52.5.78,1.24.78,2.21s-.23,1.72-.69,2.33c-.46.61-1.17.92-2.13.92-.8,0-1.44-.27-1.91-.82-.47-.54-.71-1.27-.71-2.19,0-.98.25-1.76.75-2.35.5-.58,1.17-.87,2.01-.87.75,0,1.39.25,1.91.75Zm-.61,3.89c.24-.49.36-1.04.36-1.64,0-.55-.09-.99-.26-1.33-.28-.54-.75-.81-1.43-.81-.6,0-1.04.23-1.31.69s-.41,1.01-.41,1.66.14,1.14.41,1.55.71.62,1.3.62c.65,0,1.1-.25,1.34-.74Z"/>
  </g>
  <g>
    <path d="m39.85,104.8c-.31.7-1.14,1.22-1.98,1.22-1.17,0-1.76-.86-1.76-1.92,0-.65.18-1.26.46-1.69l.23.11c-.18.39-.29.77-.29,1.13,0,.99.68,1.52,1.48,1.52.73,0,1.46-.59,1.7-1.13-.06-.7-.27-1.34-.65-1.92.11-.21.27-.42.45-.65h.05c.25.42.43.89.5,1.49h0c.34-.53.71-1.06,1.24-1.54.39-.34.91-.66,1.45-.66.57,0,.95.31,1.13.67.13.25.15.5.15.72,0,.19-.05.37-.11.56-.16.48-.54.86-1.26,1.09-.37.13-.88.19-1.51.19-.23,0-.59-.05-1.03-.13-.06.39-.13.68-.24.93Zm1.62-1.57c.57,0,1.17-.15,1.57-.34.29-.14.5-.27.5-.44-.08-.52-.5-.92-1.04-.92-.71,0-1.53.66-2.16,1.57.22.07.59.13,1.13.13Z"/>
    <path d="m48.05,104.24c-1.67,0-2.96-.62-2.96-2.1,0-.49.1-.97.36-1.46l.24.1c-.11.34-.18.65-.18.92,0,1.22,1.2,1.72,2.72,1.72.71,0,1.4-.1,2.07-.26.28-.07.55-.14.8-.25.05-.02.06-.05.06-.07,0-.28-.29-.88-.6-1.49.15-.26.3-.49.45-.68h.03c.28.49.6,1.25.6,1.84,0,.45-.15.73-.32,1.01-.53.32-2.07.72-3.27.72Zm.21,1.09c.25.18.49.4.73.65-.13.22-.3.42-.5.59-.24-.22-.47-.42-.71-.62.16-.22.33-.43.49-.62Z"/>
    <path d="m52.8,104.1c.06-.38.07-.81.07-1.21v-.59c0-1.11-.12-2.71-.22-3.76.17-.22.41-.47.59-.64l.05.02c.13,1.32.16,2.85.16,4.26,0,.37-.01.73-.04,1-.02.33-.18.59-.53.97l-.08-.04Z"/>
    <path d="m57.45,102.02c-.7-.26-1.12-.34-1.68-.34-.34,0-.6.11-.77.3l.12.51-.17.48-.07.02-.35-.96c.05-.67.59-1.09,1.31-1.09.41,0,1.05.15,1.98.53.29.11.59.19,1.03.19h.53s0,0,0,0l-.36.61c-.41.04-1.34.3-1.61.4-1.32.5-2.24,1.21-2.24,2.01,0,1.26,1.33,1.98,3.02,1.98.54,0,1.06-.05,1.55-.13l.02.06c-.31.25-.65.53-.99.72-.31.06-.71.11-1.14.11-1.59,0-2.91-.77-2.91-2.45,0-1.44,1.22-2.58,2.72-2.94v-.02Z"/>
    <path d="m63.93,104.1c.06-.38.07-.81.07-1.21v-.59c0-1.11-.12-2.71-.22-3.76.17-.22.41-.47.59-.64l.05.02c.13,1.32.16,2.85.16,4.26,0,.37-.01.73-.04,1-.02.33-.18.59-.53.97l-.08-.04Z"/>
    <path d="m69.53,97.81c0,.43.19.9.51,1.4-.11.11-.25.22-.41.34.03.78.07,1.74.07,2.52,0,.41,0,.92-.3,1.78-.19.3-.42.51-.69.68-.39.25-.86.38-1.26.38-.53,0-.96-.18-1.26-.52-.28-.32-.43-.78-.43-1.37,0-.51.16-1.02.41-1.52l.22.08c-.15.34-.25.7-.25,1.05s.1.67.31.94c.25.33.62.49,1.05.49.41,0,.75-.11,1.05-.29.3-.16.54-.34.66-.57.01-.13.02-.25.02-.37,0-.91-.06-2.03-.16-3.38-.02-.25-.05-.53-.05-.79,0-.18.02-.34.13-.48.08-.13.21-.25.36-.38l.04.02Z"/>
    <path d="m73.8,102.02c-.7-.26-1.12-.34-1.68-.34-.34,0-.6.11-.77.3l.12.51-.17.48-.07.02-.35-.96c.05-.67.59-1.09,1.31-1.09.41,0,1.05.15,1.98.53.29.11.59.19,1.03.19h.53s0,0,0,0l-.36.61c-.41.04-1.34.3-1.61.4-1.32.5-2.24,1.21-2.24,2.01,0,1.26,1.33,1.98,3.02,1.98.54,0,1.06-.05,1.55-.13l.02.06c-.31.25-.65.53-.99.72-.31.06-.71.11-1.14.11-1.59,0-2.91-.77-2.91-2.45,0-1.44,1.22-2.58,2.72-2.94v-.02Zm-.82-3.17c.25.18.49.4.73.65-.13.22-.3.42-.5.59-.24-.22-.47-.42-.71-.62.16-.22.33-.43.49-.62Z"/>
    <path d="m81.4,101.69c-.11-.51-.29-.76-.46-.76-.27,0-.64.18-.96.43-.34.27-.59.56-.59.78,0,.54,1.57.47,2,.82.16.15.27.34.27.68,0,.32-.22.85-.5,1.12-.59.56-1.52,1-2.33,1-1.41,0-2.09-.95-2.09-2.22,0-.56.13-1.05.32-1.49l.24.08c-.13.41-.19.75-.19,1.06,0,1.14.78,1.76,1.78,1.76.37,0,1.02-.15,1.63-.5.39-.23.75-.51.75-.6,0-.18-.44-.32-.94-.39-.53-.08-.95-.19-1.11-.37-.13-.14-.22-.31-.22-.54,0-.61.26-1.12.67-1.55.42-.44,1.08-.86,1.5-.86.19,0,.33.1.44.32.1.21.15.41.15.57,0,.15-.15.46-.25.67h-.09Zm-2.85,5.92c-.25-.24-.47-.43-.71-.63.16-.22.33-.42.48-.57.25.19.45.39.69.65-.17.24-.29.4-.46.56Zm1.17-.08c-.25-.24-.47-.43-.71-.63.16-.22.33-.42.48-.57.25.19.45.39.69.65-.17.24-.29.4-.46.56Z"/>
    <path d="m84.84,100.88l.43.82c.16.3.3.63.3,1.15v.67c0,.54-.29,1.11-.76,1.68-.37.39-.7.55-1,.55-.45,0-.96-.16-1.55-.47l.07-.21c.19.06.41.11.67.11.85,0,1.72-.74,2.12-1.63.05-.1.07-.2.07-.27,0-.1-.05-.22-.08-.32-.22-.48-.46-.93-.73-1.33.14-.26.28-.51.43-.76h.04Z"/>
  </g>
  <rect class="cls-2" x="-1255.76" y="-752.15" width="6562.35" height="1176.7"/>
</svg>