<?xml version="1.0" encoding="UTF-8"?><svg id="Calque_1" xmlns="http://www.w3.org/2000/svg" viewBox="0 0 200.13 128.13"><defs><style>.cls-1{stroke:#e30613;stroke-width:8px;}.cls-1,.cls-2,.cls-3,.cls-4{fill:none;}.cls-1,.cls-5,.cls-6,.cls-7,.cls-3,.cls-8,.cls-9{stroke-linecap:round;stroke-linejoin:round;}.cls-2{stroke-miterlimit:10;}.cls-2,.cls-5,.cls-6,.cls-7,.cls-3,.cls-8,.cls-9{stroke:#000;}.cls-5{fill:#fff;}.cls-6{fill:#afaff9;}.cls-7{fill:#b2f0e9;}.cls-8{fill:#87ccf3;}.cls-9{fill:#d6d6d6;}</style></defs><rect class="cls-1" x="-803.83" y="-457.34" width="2655.08" height="1511.77"/><path class="cls-4" d="m51.04,70.47c-.08.24-.17.46-.29.67-.32.59-.88.93-1.46,1.1-1,.29-2.09.09-2.24-.15-.06-.09.02-.19.32-.26.5-.13.95-.71,1.27-1.38.09-.15.15-.31.22-.46.06-.16.12-.32.18-.48,0-.05.03-.1.04-.15.05-.15.09-.3.12-.43.13-.57.11-.93-.09-.76-.02,0-.04.02-.06.06-.02,0-.04.04-.07.08-.15.21-.3.37-.44.51-.05.06-.1.1-.14.13-.09.07-.17.14-.25.2-.25.16-.45.22-.57.25-.05.02-.08.02-.11.02-.02,0-.03,0-.03,0h0s0-.02.01-.04c0-.02.02-.05.04-.09,0-.04.03-.09.05-.15.08-.22.2-.56.35-.93.14-.37.3-.77.45-1.12.2-.44.37-.8.49-.92.18-.18.3-.31.39-.43.45-.66-.46-.8-2.01-4.7-.41-1.04-.81-1.98-1.17-2.86-.18-.44-.35-.86-.52-1.27-.08-.2-.16-.41-.24-.6-.28-.73-.52-1.42-.71-2.1-.31-1.12-.46-2.19-.41-3.32,0-.16.02-.32.04-.49,0-.07,0-.13,0-.2h.01c.11-1.34-.16-2.68-.54-4.05-.1-.38-.22-.77-.34-1.16-.23-.78-.48-1.58-.67-2.38-.1-.41-.18-.81-.26-1.22-.07-.4-.13-.81-.16-1.23-.12.26-.24.55-.36.87-.39.96-.83,2.14-1.2,3.35-.11.35-.21.71-.31,1.06-.02.1-.05.21-.08.32-.42,1.67-.65,3.29-.38,4.44h-10.96c.45-1.88-.44-5.05-1.35-7.6-.14-.37-.27-.73-.41-1.07,0,0,0,0,0,0-.2-.5-.39-.96-.56-1.36,0-.01-.01-.01-.01-.02-.03.39-.08.77-.14,1.15-.08.5-.18.99-.31,1.47-.12.5-.26.98-.41,1.47-.03.11-.07.23-.1.35-.08.27-.16.55-.25.82-.5,1.69-.92,3.34-.74,4.99.16,1.45-.04,2.79-.48,4.22-.05.19-.11.37-.18.56-.08.24-.16.48-.26.72-.1.28-.21.57-.32.86-.05.11-.1.23-.14.35-.12.29-.25.59-.37.9-.39.92-.81,1.92-1.25,3.03h-.01c-.24.61-.46,1.12-.66,1.56,0,.01,0,.01,0,.01-.21.44-.4.8-.56,1.11-.05.1-.11.2-.16.29-.11.18-.2.33-.28.47-.12.21-.22.37-.3.51-.27.5-.19.64.36,1.19.05.05.11.14.16.25.42.76,1.16,2.81,1.23,2.99h0s-.1,0-.26-.06c-.21-.07-.5-.22-.83-.54-.14-.13-.29-.3-.45-.51-.02-.03-.04-.06-.06-.08-.02-.03-.04-.04-.06-.06-.05-.05-.09-.05-.12-.03-.1.06-.06.49.09,1.04.04.17.1.35.17.53.06.19.14.38.23.56.08.19.18.37.28.54.15.26.32.49.51.66.18.18.37.31.58.36.17.04.27.09.31.15.03.04.02.08,0,.12-.06.07-.17.13-.32.17-.04.02-.09.03-.14.04-.03,0-.06,0-.09.02-.78.15-2.18.05-2.92-.86-.08-.1-.15-.21-.22-.33-.81-1.49-.78-3.62-.39-6.06.32-1.99,1.06-3.33,1.43-6.15.05-.42.1-.87.13-1.36,0-.03,0-.06,0-.1.02-.24.03-.49.04-.75,0-.26.03-.52.05-.77.02-.3.04-.6.07-.88.05-.62.13-1.18.21-1.7.37-2.29.95-3.65,1.44-4.73.02-.04.04-.09.05-.15.04-.11.07-.24.11-.39.52-2.38.57-9.73,1.33-13.84.83-4.5,4.42-4.69,6.62-5.18.29-.07.56-.19.79-.36.08-.05.16-.11.22-.18.3-.27.54-.62.72-1.02.08-.16.15-.33.21-.51.07-.2.13-.42.17-.63.05-.22.09-.45.11-.67.02-.21.04-.41.04-.62v-.06h5.87c.01.23.02.46.04.68.02.19.05.39.09.58v.02c.02.08.03.15.06.23.11.47.28.92.5,1.3.05.09.11.18.17.26.06.08.13.17.19.25.19.22.41.4.66.53.17.09.35.16.55.2,2.2.49,5.79.68,6.62,5.18.34,1.83.54,4.3.7,6.69.02.36.04.73.07,1.08h0c.19,3.07.35,5.81.72,6.62.2.45.42.96.64,1.56.23.65.46,1.43.66,2.39.01.01,0,.02,0,.02.11.54.2,1.14.29,1.82.05.46.1.95.13,1.47,0,.26.03.53.04.81.19,4.45,1.22,5.92,1.61,8.36.34,2.1.41,3.96-.09,5.39Z"/><path class="cls-7" d="m39.93,50.21c.02.1.05.2.09.31.02.1.05.22.1.33.57,1.74,1.83,4,2.91,6.74.16.4.31.82.46,1.25.02.04.03.07.04.11.91,2.65,1.55,5.7,1.23,9.11-.76,8.22-2.03,13.24-2.96,19.1-.56,3.52.71,8.68.07,13.14-.63,4.45-1.37,6.72-1.47,11.66-.07,3.47.29,4.69,1.46,6.44,1.23,1.8,2.46,3.39,1.34,3.68-1.13.29-3.93.57-4.42-.16-.49-.74-.24-1.57-1.03-2.35-.78-.78-1.33-1.11-.7-3.02.64-1.91.12-2.23.2-3.1.13-1.45.38-1.25-.16-5.36s-1.84-6.69-1.05-11.46c.87-5.23.67-5.74.62-8.27-.05-2.39-1.07-8.56-1.51-13.84-.44-5.28.22-8.34.22-8.34l-.91-.12h-.01l-.9.12s.66,3.06.22,8.34c-.44,5.28-1.47,11.45-1.52,13.84-.05,2.53-.24,3.04.62,8.27.79,4.77-.51,7.35-1.05,11.46s-.29,3.91-.16,5.36c.09.87-.44,1.19.2,3.1s.08,2.24-.7,3.02c-.79.78-.54,1.61-1.03,2.35-.49.73-3.29.45-4.41.16-1.13-.29.1-1.88,1.33-3.68,1.17-1.75,1.53-2.97,1.46-6.44-.1-4.94-.83-7.21-1.47-11.66-.63-4.46.63-9.62.08-13.14-.93-5.86-2.21-10.88-2.97-19.1-.32-3.41.32-6.46,1.23-9.11,0-.04.02-.07.04-.11.15-.43.3-.85.46-1.25.18-.44.35-.87.53-1.29.65-1.51,1.32-2.85,1.82-4.02.11-.24.2-.47.29-.69.19-.5.35-.96.45-1.38"/><path class="cls-3" d="m40.12,50.85c.57,1.73,1.83,3.99,2.91,6.74-1.08-2.74-2.34-5-2.91-6.74Z"/><path class="cls-3" d="m28.97,50.21c.45-1.88-.44-5.05-1.35-7.6-.14-.37-.27-.73-.41-1.07,0,0,0,0,0,0-.2-.52-.39-.99-.56-1.39v.03c-.03.38-.08.76-.15,1.13-.08.5-.18.99-.31,1.47-.12.5-.26.98-.41,1.47-.03.11-.07.23-.1.35-.08.27-.17.55-.25.82-.5,1.69-.92,3.34-.74,4.99.16,1.45-.04,2.79-.48,4.22-.05.19-.11.37-.18.56-.08.24-.16.48-.26.72-.1.28-.21.57-.32.86-.05.11-.1.23-.14.35-.12.29-.25.59-.37.9-.39.92-.81,1.92-1.25,3.03h-.01c-.23.61-.46,1.12-.66,1.56,0,.01,0,.01,0,.01-.2.44-.39.8-.56,1.11-.05.1-.11.2-.16.29-.1.18-.19.33-.28.47-.12.21-.22.37-.3.51-.27.5-.19.64.36,1.19.05.05.11.14.16.25.46.81,1.24,2.99,1.24,2.99h0s-.13-.01-.26-.06c-.21-.07-.5-.22-.83-.54-.14-.14-.29-.3-.44-.51-.03-.04-.05-.07-.07-.08-.02-.04-.04-.05-.06-.06-.05-.05-.09-.05-.12-.03-.09.09-.05.51.09,1.04.05.16.11.35.17.53.07.19.15.37.23.56.09.19.18.37.28.54.15.25.32.48.51.66.18.18.37.31.58.36.17.04.27.09.31.15.04.04.03.09,0,.12-.06.07-.17.13-.32.17-.04.02-.09.03-.14.04-.03,0-.06,0-.09.02-.78.14-2.17.04-2.92-.86-.08-.1-.15-.21-.22-.33-.81-1.49-.78-3.62-.39-6.06.32-1.99,1.06-3.33,1.43-6.15.05-.42.1-.87.13-1.36,0-.03,0-.06,0-.1.02-.24.04-.5.05-.76.01-.26.03-.51.04-.76.02-.3.04-.6.07-.88.06-.62.13-1.18.21-1.7.37-2.29.95-3.65,1.44-4.73.02-.04.04-.09.05-.15.04-.11.08-.24.11-.39.52-2.38.57-9.73,1.33-13.84.83-4.5,4.42-4.69,6.62-5.18.29-.07.56-.19.79-.36.08-.05.15-.11.22-.18.3-.27.54-.62.72-1.02.09-.16.15-.33.21-.51.07-.2.13-.41.17-.63.05-.22.09-.44.11-.67.02-.21.04-.41.04-.62v-.06c.01-.66-.08-1.3-.25-1.84h.01c-.36-.33-.67-.66-.86-.95-.29-.42-.61-1.23-.89-2.22-.92.14-1.76-3.17-.68-3.03h.01c-.11-.66-.19-1.31-.22-1.91-.13-2.57,1.74-5.32,5.81-5.32h.01c4.07,0,5.94,2.75,5.81,5.32-.03.6-.11,1.25-.21,1.91,1.08-.14.24,3.17-.67,3.03-.29.99-.61,1.8-.9,2.22-.19.29-.49.61-.85.94h0c-.17.55-.25,1.19-.25,1.85.01.23.02.46.04.68.02.2.05.39.09.58v.02c.02.08.04.15.06.23.11.47.28.92.5,1.3.06.09.11.17.17.26.06.08.13.17.19.25.2.21.41.39.66.53.17.09.35.16.55.2,2.2.49,5.79.68,6.62,5.18.34,1.83.54,4.3.7,6.69.03.36.05.73.07,1.08h0c.2,3.08.36,5.81.73,6.61.2.46.43.96.64,1.57.24.66.46,1.44.65,2.39.01.01,0,.02,0,.02.12.55.21,1.15.29,1.82.05.46.1.95.13,1.47.02.26.04.52.05.8.19,4.46,1.22,5.92,1.61,8.37.33,2.09.41,3.96-.1,5.39-.08.24-.17.46-.29.67-.32.59-.88.93-1.46,1.1-.99.28-2.06.08-2.24-.15-.06-.09.02-.19.32-.26.5-.13.95-.71,1.27-1.38.09-.15.15-.31.22-.46.06-.16.12-.32.18-.48,0-.05.03-.1.04-.15.05-.15.09-.3.12-.43.13-.57.11-.93-.09-.76-.02.02-.04.03-.06.06-.02.02-.04.05-.06.08-.15.21-.31.38-.45.51-.05.06-.1.1-.14.13-.09.08-.17.14-.25.2-.25.16-.45.22-.57.25-.05,0-.09.02-.11.02h-.02s0-.01.01-.03c0-.02.02-.05.04-.09,0-.04.03-.09.05-.15.08-.22.2-.56.35-.93.14-.37.3-.77.45-1.12.2-.44.37-.8.49-.92.18-.18.3-.31.39-.43.47-.66-.45-.79-2-4.71-.41-1.04-.81-1.98-1.18-2.85-.18-.44-.35-.86-.52-1.27-.08-.2-.16-.41-.24-.6-.28-.74-.52-1.43-.71-2.1-.31-1.12-.46-2.19-.41-3.32.02-.17.03-.34.05-.5.01-.06.01-.13.01-.19.12-1.34-.16-2.68-.54-4.05-.1-.38-.22-.77-.34-1.16-.23-.78-.47-1.58-.67-2.38-.1-.41-.18-.81-.26-1.22-.07-.41-.12-.83-.15-1.25,0,0,0,0,0,.02-.12.26-.24.55-.36.87-.39.96-.83,2.14-1.2,3.35-.11.35-.21.7-.31,1.06-.02.1-.05.21-.08.32-.42,1.67-.64,3.29-.37,4.44.02.1.05.21.08.31-.04-.11-.07-.21-.09-.31"/><path class="cls-3" d="m41.11,40.41s-2.76,2.83-5.85,0"/><path class="cls-3" d="m33.67,40.41s-2.76,2.83-5.85,0"/><path class="cls-3" d="m71.83,18.28c.01-.33,0-.68-.05-.98-.08-.49-.26-.76-.53-1.16-.16-.24-.28-.49-.39-1.04-.06-.33-.12-.87-.18-1.36-.2.07-.49-.02-.61-.32-.1-.26-.25-.59-.28-.76-.08-.45-.03-1.22-.05-1.76-.01-.2-.06-.55.1-.73.15-.17.44-.17.56.05-.01-2.23.13-3.58.61-4.47.84-1.55,2.87-2.72,4.31-2.72s3.47,1.17,4.32,2.72c.48.89.62,2.24.61,4.47.13-.22.42-.22.56-.05.15.18.11.53.1.73-.03.54.03,1.31-.06,1.76-.03.17-.18.5-.28.76-.12.3-.4.38-.61.32-.05.48-.11,1.03-.18,1.36-.1.55-.22.8-.39,1.04-.27.4-.45.67-.52,1.16-.05.3-.06.65-.05.98"/><path class="cls-4" d="m71.82,18.42c-.03.57-.13,1.1-.27,1.32-.52.82-1.74,1.05-4.31,2.34-1.33.66-2.56,1.45-3.73,1.78-2.89.81-4.34,2.24-4.44,5.66-.01.39.18,1.47.18,1.8.05,1.66-.37,2.91-.54,5.85-.25,4.38.27,5.11-.17,8.2-.19,1.43-1.08,2.67-1.42,4.76,0,.03,0,.05,0,.08-.56,3.59.02,7.88-.5,11.1-.12.78-.84,3.51-1.04,6.3-.03.49.25,1.03.37,1.77.15.92.24,1.13.53,1.72.06.11.77,1.21,1.44,2.07.38.48.5.35,1.03.94.21.24.58.23.62-.25.02-.16-.02-.43-.2-.75-.14-.25-.39-.39-.44-.59-.13-.51-.37-1.21-.66-1.89-.08-.21-.06-1.26-.13-1.92-.05-.44.27-.88.5-1.1.01.01.16-.17.17.02.02.26.16,1.35.22,1.61.11.47.37,1.01.51,1.28.27.48.99.31.84-.46-.08-.44-.1-1.01-.1-1.35,0-.71.02-1.91.04-2.42.03-.71-.01-1.23-.06-1.66-.08-.74-.36-.87-.36-1.68-.01-.21-.01-.39.03-.62.91-4.91,2.67-6.22,3.43-10.23.13-.69.22-1.31.3-1.89.12-.98.17-1.88.25-2.91.09-1.38.73-4.45,1.06-6.4.09-.52-.3-2.31-.22-5.27.31,3.16.96,4.13.96,5.22,0,2.48.65,4.7.5,5.67-.2,1.42-.39,1.66-.45,2.63-.02.36-.02.68-.05,1.06"/><path class="cls-4" d="m78.85,18.42c.03.57.14,1.1.27,1.32.53.82,1.75,1.05,4.32,2.34,1.33.66,2.56,1.45,3.73,1.78,2.89.81,4.33,2.24,4.43,5.66.02.39-.17,1.47-.18,1.8-.05,1.66.38,2.91.54,5.85.25,4.38-.26,5.11.17,8.2.2,1.43,1.09,2.67,1.42,4.76.58,3.61-.01,7.94.51,11.18.12.78.84,3.51,1.05,6.3.03.49-.26,1.03-.38,1.77-.14.92-.23,1.13-.52,1.72-.06.11-.78,1.21-1.45,2.07-.37.48-.5.35-1.02.94-.22.24-.58.23-.62-.25-.02-.17.01-.43.2-.75.14-.25.39-.39.44-.59.13-.51.37-1.21.65-1.89.09-.21.07-1.26.14-1.92.05-.44-.28-.88-.5-1.1-.01.01-.17-.17-.18.02,0,.26-.15,1.35-.21,1.61-.12.47-.37,1.01-.52,1.28-.27.48-.99.31-.84-.46.08-.44.11-1.01.11-1.35,0-.71-.03-1.91-.05-2.42-.03-.71,0-1.23.07-1.67.08-.73.35-.86.36-1.67,0-.21,0-.39-.04-.62-.46-2.51-1.15-4.08-1.81-5.55-.63-1.41-1.24-2.72-1.61-4.68-.35-1.86-.44-3.15-.55-4.8-.1-1.38-.73-4.45-1.06-6.4-.09-.52.3-2.31.21-5.27-.3,3.16-.95,4.13-.95,5.22,0,2.48-.65,4.7-.51,5.67.21,1.42.4,1.66.46,2.63.02.36.02.68.05,1.06"/><path class="cls-5" d="m75.78,71.61c-.29.1-.58.1-.89-.04.08-.84.16-1.76.23-2.79.01-.09.05-.03.22-.03s.21-.06.21.03c.07,1.04.15,1.98.23,2.83Z"/><path class="cls-2" d="m71.82,18.42c-.03.57-.13,1.1-.27,1.32-.52.82-1.74,1.05-4.31,2.34-1.33.66-2.56,1.45-3.73,1.78-2.89.81-4.34,2.24-4.44,5.66-.01.39.18,1.47.18,1.8.05,1.66-.37,2.91-.54,5.85-.25,4.38.27,5.11-.17,8.2-.19,1.43-1.08,2.67-1.42,4.76,0,.03,0,.05,0,.08-.56,3.59.02,7.88-.5,11.1-.12.78-.84,3.51-1.04,6.3-.03.49.25,1.03.37,1.77.15.92.24,1.13.53,1.72.06.11.77,1.21,1.44,2.07.38.48.5.35,1.03.94.21.24.58.23.62-.25.02-.16-.02-.43-.2-.75-.14-.25-.39-.39-.44-.59-.13-.51-.37-1.21-.66-1.89-.08-.21-.06-1.26-.13-1.92-.05-.44.27-.88.5-1.1.01.01.16-.17.17.02.02.26.16,1.35.22,1.61.11.47.37,1.01.51,1.28.27.48.99.31.84-.46-.08-.44-.1-1.01-.1-1.35,0-.71.02-1.91.04-2.42.03-.71-.01-1.23-.06-1.66-.08-.74-.36-.87-.36-1.68-.01-.21-.01-.39.03-.62.91-4.91,2.67-6.22,3.43-10.23.13-.69.22-1.31.3-1.89.12-.98.17-1.88.25-2.91.09-1.38.73-4.45,1.06-6.4.09-.52-.3-2.31-.22-5.27.31,3.16.96,4.13.96,5.22,0,2.48.65,4.7.5,5.67-.2,1.42-.39,1.66-.45,2.63-.02.36-.02.68-.05,1.06"/><path class="cls-2" d="m78.85,18.42c.03.57.14,1.1.27,1.32.53.82,1.75,1.05,4.32,2.34,1.33.66,2.56,1.45,3.73,1.78,2.89.81,4.33,2.24,4.43,5.66.02.39-.17,1.47-.18,1.8-.05,1.66.38,2.91.54,5.85.25,4.38-.26,5.11.17,8.2.2,1.43,1.09,2.67,1.42,4.76.58,3.61-.01,7.94.51,11.18.12.78.84,3.51,1.05,6.3.03.49-.26,1.03-.38,1.77-.14.92-.23,1.13-.52,1.72-.06.11-.78,1.21-1.45,2.07-.37.48-.5.35-1.02.94-.22.24-.58.23-.62-.25-.02-.17.01-.43.2-.75.14-.25.39-.39.44-.59.13-.51.37-1.21.65-1.89.09-.21.07-1.26.14-1.92.05-.44-.28-.88-.5-1.1-.01.01-.17-.17-.18.02,0,.26-.15,1.35-.21,1.61-.12.47-.37,1.01-.52,1.28-.27.48-.99.31-.84-.46.08-.44.11-1.01.11-1.35,0-.71-.03-1.91-.05-2.42-.03-.71,0-1.23.07-1.67.08-.73.35-.86.36-1.67,0-.21,0-.39-.04-.62-.46-2.51-1.15-4.08-1.81-5.55-.63-1.41-1.24-2.72-1.61-4.68-.35-1.86-.44-3.15-.55-4.8-.1-1.38-.73-4.45-1.06-6.4-.09-.52.3-2.31.21-5.27-.3,3.16-.95,4.13-.95,5.22,0,2.48-.65,4.7-.51,5.67.21,1.42.4,1.66.46,2.63.02.36.02.68.05,1.06"/><path class="cls-7" d="m136.77,52.8c-.16-.66-.17-1.55.05-2.46.15-.65.41-1.24.79-1.78.47-.65,1.01-1.23,1.64-1.72.67-.52,1.4-.94,2.17-1.29.03-.01.06-.02.09-.03.09-.02.19-.11.26-.05.09.09-.02.19-.07.27-.48.78-.9,1.6-1.16,2.48-.32,1.07-.43,2.15,0,3.22.2.49.4.96.43,1.5.07,1.5-1.33,2.39-2.65,1.87-.75-.29-1.19-.83-1.56-2.01Z"/><path class="cls-8" d="m180.28,93.56s.02.1.04.14l-18.63,4.4c-.01-.09-.04-.19-.07-.3-.14-.52-.27-1.04-.4-1.57-.21-.9-.41-1.81-.62-2.72-.01-.06-.02-.11-.03-.17l.49-.11c.54-.27,1.13-.36,1.72-.41.21-.05.41-.1.62-.15.31-.4.79-.45,1.23-.55.86-.21,1.72-.44,2.6-.6,1.68-.45,3.39-.82,5.08-1.22.17-.04.33-.08.5-.09.03-.04.05-.09.07-.14.05-.39-.07-.75-.16-1.11-1.38-5.86-2.77-11.72-4.15-17.58-.03-.11-.05-.22-.08-.34-.25-.98-.34-1.04-1.3-.82-1.57.35-3.13.77-4.71,1.09-1.34.35-2.68.67-4.04.95-.92.16-1.78.67-2.76.41-.36-1.77-1.02-3.48-1.09-5.31-.09-2.26.81-4.12,2.27-5.77.7-.79.97-1.75,1-2.77.01-.61-.13-1.2-.94-1.21.65-.69,1.58-.61,2.39-.82,2-.51,4.01-.98,6.02-1.43.34-.07.67-.17,1,.04-.75.42-.54.92-.23,1.55.78,1.55,2.34,2.04,3.69,2.78,1.74.96,2.84,2.4,3.35,4.27,2.71,9.77,4.74,19.7,7.13,29.55Z"/><path class="cls-6" d="m167.85,69.78c-1.81.46-3.62.89-5.44,1.33-1.35.31-2.69.63-4.04.94h0c-.89.21-1.79.42-2.68.63.83,3.56,1.66,7.12,2.5,10.67.79,3.33,1.59,6.66,2.39,9.99,1-.08,1.96-.3,2.88-.68,0,0,0,0,0,0,1.27-.3,2.55-.6,3.82-.9h0s0,0,0,0c2.01-.47,4.02-.95,6.03-1.42-1.57-6.68-3.14-13.37-4.7-20.05-.11-.45-.28-.62-.77-.5Z"/><path class="cls-9" d="m162.69,37.5c-.41-.37-.8-.09-1.15.18-2.37,1.84-5.06,2.59-8.04,2.56-2.01-.02-4.02.17-5.93.91-1.56.51-3.02,1.2-4.34,2.17-.06.08-.11.17-.14.26.12.78.39,1.01,1.1.94.61-.07,1.14-.33,1.67-.61,2.27-.63,4.44-.19,6.55.7,1.35.57,2.66,1.21,3.99,1.82h0c.06.04.12.07.18.11h0c.14.5.26,1,.42,1.48.17.52.05.77-.52.89-1.04.23-1.04.27-.71,1.36h0s0,0,0,0c.02.75.47,1.45.3,2.23.08.07.12.16.16.24-.05-.08-.1-.16-.16-.24.23,1.71,1,3.34.86,5.11,3.14-.73,6.28-1.47,9.41-2.2.12-.21.1-.39-.12-.52-.23.05-.4-1.17-.61-1.76-.32-.93-.26-1.97-.84-2.83h0c-.09-.11-.18-.22-.26-.33h0s0,0,0,0c-.16-.73-.34-1.45-.48-2.18-.09-.46-.28-.69-.75-.48-.94.41-1.3-.02-1.37-.91-.01-.14-.08-.27-.13-.41h0c-.11-.54-.23-1.07-.31-1.61-.32-2.04-.24-4.01,1.05-5.77.25-.34.62-.72.17-1.13Zm-6.86,12.71s-.03-.07-.04-.1c.01.03.02.07.04.1Z"/><path class="cls-5" d="m115.84,99.41l14.63,1.58.93-8.59s2.47-1.04,4.4-3.62c1.94-2.58,2.91-8.4,2.91-8.4l1.67-8.27s.29-1.08-.4-2.11c-.27-.41-.69-.8-1.34-1.13-1.29-.64-2.27-.16-2.89.38-.48.42-.74.89-.74.89l-.89,2.32.4-3.7,1.13-10.45c.07-.68-.14-1.33-.54-1.83-.4-.5-.99-.85-1.67-.92-1.36-.15-2.6.85-2.75,2.21l.38-3.56c.08-.68-.14-1.33-.54-1.83-.4-.49-1-.84-1.68-.92-.74-.08-1.43.18-1.94.64-.44.39-.74.95-.8,1.57l-.38,3.56c.08-.68-.14-1.33-.54-1.83-.4-.5-.99-.84-1.67-.92-1.36-.15-2.6.85-2.75,2.21l-.68,6.27c.08-.68-.14-1.33-.54-1.83-.4-.5-.99-.84-1.68-.92-1.36-.15-2.59.85-2.74,2.21l-1.91,17.7s-.57,3.33.73,5.82c1.3,2.5,2.88,4.06,2.88,4.06l-1.01,9.36Z"/><polyline class="cls-5" points="134.13 72.48 133.28 77.95 132.88 80.53"/><line class="cls-5" x1="120.11" y1="63" x2="119.1" y2="72.42"/><line class="cls-5" x1="125.75" y1="57.26" x2="124.05" y2="72.95"/><line class="cls-5" x1="129.01" y1="73.49" x2="130.7" y2="57.8"/><path class="cls-3" d="m102.5,30.62l-1.71,4.11c25.36-8.68,34.98,5.94,34.98,5.94"/><line class="cls-3" x1="100.79" y1="34.73" x2="104.21" y2="37.7"/><path class="cls-5" d="m132.8,55.98c.26-.63.41-1.33.41-2.05,0-2.99-2.42-5.41-5.41-5.41-2.6,0-4.77,1.83-5.29,4.27-2.48.5-4.35,2.68-4.35,5.31,0,2.99,2.42,5.41,5.41,5.41,1.41,0,2.69-.54,3.65-1.42.54.24,1.14.38,1.77.38,2.41,0,4.37-1.96,4.37-4.37,0-.77-.2-1.49-.55-2.12Z"/><path class="cls-7" d="m84.98,50.21c.02.43.08.93.24,1.65.24,1.06.61,2.03.73,2.56.2.91.31,1.57.39,2.14,0,.07.02.15.03.22.1.69.21,1.54.43,2.48.35,1.43.5,3.93.64,6.03.24,3.86.25,7.35.19,10.27-.05,2.28-.07,6.34-.7,9.58-.21,1.1-.41.73-.48,2-.06.93-.04,1.67.04,2.6.27,2.95,1.17,5.08,1.31,8.29.12,2.66-.36,4.6-1.22,9.67-.59,3.43-1.44,7.17-1.12,9.38.03.21.1.73.38,1.27.16.3.43.67.7,1.15.31.54.71,1.29,1.05,1.39.53.15.63.68.5.96-.16.36-.42.43-.92.43h-5.16c-1.18,0-1.19-.62-1.04-1.43.1-.57.27-.98.25-1.43-.02-.62.01-.64.14-1.28.14-.69.39-1.42.46-2.42.01-.1-.05-4.95-1.36-9.94-.61-2.3-.97-3.47-1.31-7.23-.27-3.08.34-5.13.29-7.25-.03-1.41-.32-1.94-.95-4.26-.4-1.47-.72-2.89-1.01-4.6-.66-4.08-1.25-6.25-1.7-10.83-.08-.85-.16-1.79-.23-2.83,0-.09-.04-.03-.21-.03s-.21-.06-.22.03c-.07,1.03-.15,1.95-.23,2.79-.43,4.61-1.03,6.78-1.7,10.87-.28,1.71-.6,3.13-1,4.6-.63,2.32-.93,2.85-.96,4.26-.05,2.12.57,4.17.29,7.25-.34,3.76-.7,4.93-1.3,7.23-1.31,4.99-1.37,9.84-1.37,9.94.08,1,.33,1.73.46,2.42.13.64.17.66.15,1.28-.02.45.14.86.25,1.43.14.81.13,1.43-1.05,1.43h-5.16c-.5,0-.75-.07-.92-.43-.12-.28-.03-.81.51-.96.33-.1.73-.85,1.04-1.39.28-.48.55-.85.7-1.15.29-.54.35-1.06.38-1.27.32-2.21-.52-5.95-1.11-9.38-.87-5.07-1.35-7.01-1.23-9.67.15-3.21,1.05-5.34,1.31-8.29.08-.93.1-1.67.05-2.6-.08-1.27-.28-.9-.49-2-.62-3.24-.64-7.3-.69-9.58-.07-2.92-.06-6.41.19-10.27.14-2.1.28-4.6.64-6.03.22-.93.33-1.79.42-2.48,0-.07.02-.15.03-.22.08-.57.19-1.23.4-2.14.12-.53.49-1.5.72-2.56.16-.72.22-1.22.25-1.65"/></svg>