<?xml version="1.0" encoding="UTF-8"?><svg id="Calque_1" xmlns="http://www.w3.org/2000/svg" viewBox="0 0 200.13 128.13"><defs><style>.cls-1{stroke-miterlimit:10;}.cls-1,.cls-2,.cls-3{fill:#b2f0e9;}.cls-1,.cls-4,.cls-5,.cls-3,.cls-6,.cls-7,.cls-8{stroke:#000;}.cls-9{stroke:#e30613;stroke-width:8px;}.cls-9,.cls-4,.cls-5,.cls-3,.cls-6,.cls-7,.cls-8{stroke-linecap:round;stroke-linejoin:round;}.cls-9,.cls-6{fill:none;}.cls-4{fill:#fff;}.cls-5{fill:#afaff9;}.cls-7{fill:#87ccf3;}.cls-8{fill:#d6d6d6;}</style></defs><rect class="cls-9" x="-803.83" y="-269.94" width="2655.08" height="1511.77"/><path class="cls-2" d="m18.16,71.15c-.81-1.49-.78-3.62-.39-6.07.39-2.44,1.42-3.91,1.61-8.36.19-4.46,1.07-6.55,1.76-8.07.69-1.52.66-9.88,1.49-14.38.83-4.5,4.42-4.7,6.62-5.18,1.53-.34,2.24-2.26,2.26-4.05h5.87c.02,1.79.71,3.71,2.26,4.05,2.2.49,5.79.69,6.62,5.18.83,4.5.81,12.86,1.49,14.38.68,1.52,1.56,3.62,1.76,8.07.19,4.45,1.22,5.92,1.61,8.36.39,2.44.43,4.58-.39,6.07-1.1,2.01-4.84,1.05-3.38.68,1.47-.36,2.42-4.62,1.61-3.52-.81,1.1-1.54,1.12-1.54,1.12,0,0,1.03-2.88,1.39-3.24,1.16-1.16.22-.52-1.61-5.14-1.84-4.62-3.38-7.34-3.01-10.64.37-3.3-1.68-6.6-1.95-10.25-1.05,2.49-2.93,7.48-2.32,10.06.48,2.06,2.31,5,3.59,8.74h-18.15c1.28-3.73,3.1-6.67,3.59-8.74.61-2.58-1.27-7.57-2.33-10.06-.26,3.66-2.32,6.96-1.95,10.26.37,3.3-1.17,6.01-3.01,10.64-1.84,4.62-2.77,3.98-1.61,5.14.36.36,1.39,3.24,1.39,3.24,0,0-.73-.02-1.54-1.12-.81-1.1.15,3.16,1.61,3.52,1.47.37-2.27,1.32-3.38-.68Z"/><path class="cls-6" d="m51.14,65.08c-.39-2.44-1.42-3.91-1.61-8.36-.2-4.45-1.08-6.55-1.76-8.07-.69-1.52-.66-9.88-1.49-14.38-.83-4.5-4.42-4.7-6.62-5.19-2.1-.47-2.64-3.87-2-5.89h0c.36-.33.66-.66.86-.94.29-.42.61-1.23.9-2.22.92.14,1.75-3.17.67-3.03.11-.66.18-1.31.21-1.91.13-2.57-1.73-5.32-5.81-5.32h0c-4.07,0-5.94,2.76-5.81,5.32.03.6.11,1.25.21,1.91h0c-1.09-.13-.24,3.18.67,3.03.28.99.6,1.8.89,2.22.2.29.5.62.86.94h0c.63,2.02.09,5.43-2.01,5.9-2.2.49-5.79.69-6.62,5.19s-.81,12.86-1.49,14.38c-.69,1.52-1.57,3.62-1.76,8.07-.2,4.45-1.22,5.92-1.61,8.36-.39,2.44-.43,4.58.39,6.07,1.1,2,4.84,1.05,3.38.68-1.47-.37-2.42-4.62-1.61-3.52.81,1.1,1.54,1.12,1.54,1.12,0,0-1.03-2.88-1.39-3.25-1.16-1.16-.22-.51,1.61-5.14,1.83-4.62,3.38-7.34,3.01-10.64-.37-3.3,1.69-6.6,1.95-10.26,1.05,2.49,2.94,7.48,2.33,10.06-.83,3.52-5.58,9.64-4.82,17.86.76,8.22,2.03,13.24,2.96,19.1.56,3.52-.71,8.68-.07,13.13.64,4.45,1.37,6.73,1.47,11.67.07,3.46-.29,4.69-1.46,6.43-1.22,1.81-2.46,3.39-1.33,3.69s3.92.57,4.41-.16c.49-.73.24-1.57,1.03-2.35.78-.78,1.34-1.11.7-3.02-.64-1.91-.11-2.23-.2-3.1-.13-1.45-.38-1.25.16-5.36.54-4.11,1.84-6.69,1.05-11.46-.87-5.22-.67-5.73-.62-8.27.05-2.39,1.08-8.56,1.52-13.84.44-5.28-.22-8.34-.22-8.34l.9-.12h0s.91.12.91.12c0,0-.66,3.06-.22,8.34.44,5.28,1.47,11.45,1.51,13.84.05,2.53.25,3.04-.62,8.27-.79,4.77.51,7.35,1.05,11.46.54,4.11.29,3.91.16,5.36-.08.87.44,1.19-.19,3.1-.64,1.91-.08,2.23.7,3.02.78.78.54,1.61,1.03,2.35.49.73,3.29.46,4.41.16,1.12-.29-.11-1.88-1.33-3.69-1.17-1.74-1.53-2.97-1.46-6.43.1-4.94.83-7.21,1.47-11.67.64-4.45-.63-9.62-.07-13.13.93-5.86,2.2-10.88,2.96-19.1.76-8.22-3.99-14.33-4.82-17.86-.61-2.58,1.27-7.57,2.33-10.06.27,3.65,2.32,6.96,1.95,10.25-.37,3.3,1.17,6.02,3.01,10.64,1.83,4.62,2.77,3.98,1.61,5.14-.37.37-1.39,3.25-1.39,3.25,0,0,.73-.02,1.54-1.12s-.15,3.15-1.61,3.52c-1.47.37,2.27,1.32,3.38-.68.82-1.49.78-3.62.39-6.07Z"/><path class="cls-6" d="m41.11,40.41s-2.76,2.83-5.85,0"/><path class="cls-6" d="m33.67,40.41s-2.76,2.83-5.85,0"/><path class="cls-6" d="m71.83,18.28c.01-.33,0-.68-.05-.98-.08-.49-.26-.76-.53-1.16-.16-.24-.28-.49-.39-1.04-.06-.33-.12-.87-.18-1.36-.2.07-.49-.02-.61-.32-.1-.26-.25-.59-.28-.76-.08-.45-.03-1.22-.05-1.76-.01-.2-.06-.55.1-.73.15-.17.44-.17.56.05-.01-2.23.13-3.58.61-4.47.84-1.55,2.87-2.72,4.31-2.72s3.47,1.17,4.32,2.72c.48.89.62,2.24.61,4.47.13-.22.42-.22.56-.05.15.18.11.53.1.73-.03.54.03,1.31-.06,1.76-.03.17-.18.5-.28.76-.12.3-.4.38-.61.32-.05.48-.11,1.03-.18,1.36-.1.55-.22.8-.39,1.04-.27.4-.45.67-.52,1.16-.05.3-.06.65-.05.98"/><path class="cls-2" d="m78.86,18.42c.03.57.13,1.1.27,1.32.52.83,1.74,1.06,4.32,2.34,1.33.67,2.56,1.45,3.73,1.78,2.89.81,4.33,2.24,4.43,5.66.02.39-.17,1.48-.18,1.8-.05,1.66.37,2.91.54,5.85.25,4.38-.26,5.11.17,8.19.2,1.43,1.09,2.68,1.43,4.76.57,3.61-.02,7.94.5,11.18.13.78.84,3.51,1.05,6.3.04.49-.26,1.03-.37,1.77-.14.92-.23,1.12-.53,1.71-.06.11-.78,1.22-1.44,2.07-.38.48-.5.36-1.03.94-.21.24-.57.23-.62-.25-.02-.17.02-.43.2-.75.15-.25.39-.39.44-.59.13-.51.37-1.21.66-1.88.09-.21.07-1.26.14-1.92.05-.44-.27-.88-.5-1.1-.01.01-.17-.17-.18.02-.02.26-.16,1.35-.22,1.61-.12.47-.36,1.01-.51,1.28-.27.48-.99.32-.84-.46.08-.43.11-1,.11-1.35,0-.71-.03-1.9-.05-2.42-.03-.71.02-1.23.07-1.66.09-.74.36-.86.37-1.68,0-.2,0-.38-.04-.61-.46-2.51-1.15-4.08-1.81-5.55-.63-1.41-1.24-2.73-1.61-4.69-.35-1.85-.43-3.15-.54-4.79-.1-1.39-.74-4.45-1.06-6.4-.09-.52.3-2.31.21-5.28-.3,3.16-.95,4.14-.95,5.22,0,2.48-.65,4.7-.51,5.67.21,1.43.4,1.66.46,2.63.04.76,0,1.35.3,2.71.23,1.06.6,2.04.73,2.57.2.9.31,1.56.39,2.14.01.07.02.15.03.22h-22.07c.01-.08.02-.15.03-.22.08-.57.19-1.23.4-2.14.12-.53.49-1.51.73-2.57.3-1.36.25-1.95.3-2.71.06-.97.25-1.2.45-2.63.15-.97-.5-3.19-.5-5.67,0-1.08-.66-2.06-.96-5.22-.09,2.96.3,4.75.22,5.28-.33,1.95-.97,5.01-1.06,6.4-.12,1.64-.2,2.94-.55,4.79-.76,4.01-2.51,5.33-3.43,10.24-.04.23-.04.41-.04.61,0,.82.28.94.37,1.68.05.43.09.95.06,1.66-.02.51-.05,1.71-.05,2.42,0,.35.03.92.11,1.35.15.78-.57.94-.84.46-.15-.26-.4-.81-.51-1.28-.07-.26-.21-1.35-.22-1.61-.01-.19-.16-.01-.17-.02-.23.22-.55.66-.5,1.1.08.66.05,1.71.14,1.92.29.68.53,1.38.66,1.88.06.21.3.35.44.59.19.32.22.58.2.75-.04.47-.4.48-.62.25-.53-.58-.65-.46-1.03-.94-.67-.85-1.38-1.96-1.44-2.07-.3-.59-.39-.8-.53-1.71-.12-.74-.4-1.28-.37-1.77.2-2.79.92-5.52,1.04-6.3.52-3.24-.07-7.56.51-11.18.33-2.09,1.22-3.33,1.42-4.76.43-3.08-.08-3.82.17-8.19.17-2.94.59-4.19.54-5.85,0-.33-.19-1.42-.18-1.8.11-3.42,1.55-4.85,4.44-5.66,1.17-.33,2.4-1.11,3.73-1.78,2.57-1.29,3.79-1.52,4.31-2.34.14-.22.24-.75.27-1.32"/><path class="cls-6" d="m86.38,56.78c.1.69.2,1.54.43,2.48.35,1.43.5,3.93.63,6.03.25,3.86.26,7.35.19,10.27-.05,2.28-.07,6.34-.7,9.58-.21,1.11-.41.73-.48,2-.06.93-.04,1.67.05,2.6.27,2.96,1.16,5.08,1.31,8.3.12,2.66-.36,4.6-1.23,9.67-.59,3.43-1.44,7.18-1.11,9.38.03.21.1.73.38,1.26.16.3.43.67.71,1.15.31.55.71,1.29,1.04,1.39.53.16.63.69.5.97-.16.36-.42.43-.92.43h-5.16c-1.18,0-1.19-.62-1.04-1.43.1-.57.27-.98.25-1.43-.03-.62.01-.64.14-1.28.14-.69.39-1.42.46-2.42,0-.11-.06-4.95-1.37-9.94-.6-2.29-.97-3.47-1.31-7.23-.27-3.08.34-5.14.29-7.25-.03-1.41-.33-1.94-.96-4.26-.4-1.47-.72-2.89-1-4.6-.78-4.83-1.48-6.99-1.93-13.66,0-.1-.05-.03-.22-.03s-.21-.07-.22.03c-.45,6.67-1.14,8.83-1.93,13.66-.28,1.71-.6,3.13-1,4.6-.63,2.33-.93,2.86-.96,4.26-.05,2.12.57,4.17.29,7.25-.34,3.76-.7,4.93-1.3,7.23-1.32,4.99-1.38,9.84-1.37,9.94.08,1,.33,1.73.46,2.42.13.64.16.66.14,1.28-.02.45.15.86.25,1.43.15.81.14,1.43-1.05,1.43h-5.16c-.5,0-.76-.07-.92-.43-.13-.28-.03-.81.5-.97.34-.1.74-.84,1.05-1.39.27-.48.54-.85.7-1.15.28-.54.35-1.06.38-1.26.32-2.21-.52-5.95-1.11-9.38-.87-5.07-1.35-7.01-1.23-9.67.15-3.21,1.04-5.34,1.31-8.3.09-.93.11-1.67.05-2.6-.08-1.27-.28-.89-.49-2-.62-3.24-.65-7.3-.7-9.58-.06-2.92-.06-6.41.2-10.27.14-2.1.28-4.6.63-6.03.23-.93.33-1.79.42-2.48"/><path class="cls-4" d="m79.28,65.15s-3.76,14.69-7.52,0"/><path class="cls-1" d="m64.3,56.78c.01-.08.02-.15.03-.22.08-.57.19-1.23.4-2.14.12-.53.49-1.51.73-2.57.3-1.36.25-1.95.3-2.71.06-.97.25-1.2.45-2.63.15-.97-.5-3.19-.5-5.67,0-1.08-.66-2.06-.96-5.22-.09,2.96.3,4.75.22,5.28-.33,1.95-.97,5.01-1.06,6.4-.12,1.64-.2,2.94-.55,4.79-.76,4.01-2.51,5.33-3.43,10.24-.04.23-.04.41-.04.61,0,.82.28.94.37,1.68.05.43.09.95.06,1.66-.02.51-.05,1.71-.05,2.42,0,.35.03.92.11,1.35.15.78-.57.94-.84.46-.15-.26-.4-.81-.51-1.28-.07-.26-.21-1.35-.22-1.61-.01-.19-.16-.01-.17-.02-.23.22-.55.66-.5,1.1.08.66.05,1.71.14,1.92.29.68.53,1.38.66,1.88.06.21.3.35.44.59.19.32.22.58.2.75-.04.47-.4.48-.62.25-.53-.58-.65-.46-1.03-.94-.67-.85-1.38-1.96-1.44-2.07-.3-.59-.39-.8-.53-1.71-.12-.74-.4-1.28-.37-1.77.2-2.79.92-5.52,1.04-6.3.52-3.24-.07-7.56.51-11.18.33-2.09,1.22-3.33,1.42-4.76.43-3.08-.08-3.82.17-8.19.17-2.94.59-4.19.54-5.85,0-.33-.19-1.42-.18-1.8.11-3.42,1.55-4.85,4.44-5.66,1.17-.33,2.4-1.11,3.73-1.78,2.57-1.29,3.79-1.52,4.31-2.34.14-.22.24-.75.27-1.32"/><path class="cls-1" d="m78.86,18.42c.03.57.13,1.1.27,1.32.52.83,1.74,1.06,4.32,2.34,1.33.67,2.56,1.45,3.73,1.78,2.89.81,4.33,2.24,4.43,5.66.02.39-.17,1.48-.18,1.8-.05,1.66.37,2.91.54,5.85.25,4.38-.26,5.11.17,8.19.2,1.43,1.09,2.68,1.43,4.76.57,3.61-.02,7.94.5,11.18.13.78.84,3.51,1.05,6.3.04.49-.26,1.03-.37,1.77-.14.92-.23,1.12-.53,1.71-.06.11-.78,1.22-1.44,2.07-.38.48-.5.36-1.03.94-.21.24-.57.23-.62-.25-.02-.17.02-.43.2-.75.15-.25.39-.39.44-.59.13-.51.37-1.21.66-1.88.09-.21.07-1.26.14-1.92.05-.44-.27-.88-.5-1.1-.01.01-.17-.17-.18.02-.02.26-.16,1.35-.22,1.61-.12.47-.36,1.01-.51,1.28-.27.48-.99.32-.84-.46.08-.43.11-1,.11-1.35,0-.71-.03-1.9-.05-2.42-.03-.71.02-1.23.07-1.66.09-.74.36-.86.37-1.68,0-.2,0-.38-.04-.61-.46-2.51-1.15-4.08-1.81-5.55-.63-1.41-1.24-2.73-1.61-4.69-.35-1.85-.43-3.15-.54-4.79-.1-1.39-.74-4.45-1.06-6.4-.09-.52.3-2.31.21-5.28-.3,3.16-.95,4.14-.95,5.22,0,2.48-.65,4.7-.51,5.67.21,1.43.4,1.66.46,2.63.04.76,0,1.35.3,2.71.23,1.06.6,2.04.73,2.57.2.9.31,1.56.39,2.14.01.07.02.15.03.22"/><path class="cls-6" d="m102.5,30.62l-1.71,4.11c25.36-8.68,34.98,5.94,34.98,5.94"/><line class="cls-6" x1="100.79" y1="34.73" x2="104.21" y2="37.7"/><path class="cls-3" d="m136.77,52.8c-.16-.66-.17-1.55.05-2.46.15-.65.41-1.24.79-1.78.47-.65,1.01-1.23,1.64-1.72.67-.52,1.4-.94,2.17-1.29.03-.01.06-.02.09-.03.09-.02.19-.11.26-.05.09.09-.02.19-.07.27-.48.78-.9,1.6-1.16,2.48-.32,1.07-.43,2.15,0,3.22.2.49.4.96.43,1.5.07,1.5-1.33,2.39-2.65,1.87-.75-.29-1.19-.83-1.56-2.01Z"/><path class="cls-7" d="m180.28,93.56s.02.1.04.14l-18.63,4.4c-.01-.09-.04-.19-.07-.3-.14-.52-.27-1.04-.4-1.57-.21-.9-.41-1.81-.62-2.72-.01-.06-.02-.11-.03-.17l.49-.11c.54-.27,1.13-.36,1.72-.41.21-.05.41-.1.62-.15.31-.4.79-.45,1.23-.55.86-.21,1.72-.44,2.6-.6,1.68-.45,3.39-.82,5.08-1.22.17-.04.33-.08.5-.09.03-.04.05-.09.07-.14.05-.39-.07-.75-.16-1.11-1.38-5.86-2.77-11.72-4.15-17.58-.03-.11-.05-.22-.08-.34-.25-.98-.34-1.04-1.3-.82-1.57.35-3.13.77-4.71,1.09-1.34.35-2.68.67-4.04.95-.92.16-1.78.67-2.76.41-.36-1.77-1.02-3.48-1.09-5.31-.09-2.26.81-4.12,2.27-5.77.7-.79.97-1.75,1-2.77.01-.61-.13-1.2-.94-1.21.65-.69,1.58-.61,2.39-.82,2-.51,4.01-.98,6.02-1.43.34-.07.67-.17,1,.04-.75.42-.54.92-.23,1.55.78,1.55,2.34,2.04,3.69,2.78,1.74.96,2.84,2.4,3.35,4.27,2.71,9.77,4.74,19.7,7.13,29.55Z"/><path class="cls-5" d="m167.85,69.78c-1.81.46-3.62.89-5.44,1.33-1.35.31-2.69.63-4.04.94h0c-.89.21-1.79.42-2.68.63.83,3.56,1.66,7.12,2.5,10.67.79,3.33,1.59,6.66,2.39,9.99,1-.08,1.96-.3,2.88-.68,0,0,0,0,0,0,1.27-.3,2.55-.6,3.82-.9h0s0,0,0,0c2.01-.47,4.02-.95,6.03-1.42-1.57-6.68-3.14-13.37-4.7-20.05-.11-.45-.28-.62-.77-.5Z"/><path class="cls-8" d="m162.69,37.5c-.41-.37-.8-.09-1.15.18-2.37,1.84-5.06,2.59-8.04,2.56-2.01-.02-4.02.17-5.93.91-1.56.51-3.02,1.2-4.34,2.17-.06.08-.11.17-.14.26.12.78.39,1.01,1.1.94.61-.07,1.14-.33,1.67-.61,2.27-.63,4.44-.19,6.55.7,1.35.57,2.66,1.21,3.99,1.82h0c.06.04.12.07.18.11h0c.14.5.26,1,.42,1.48.17.52.05.77-.52.89-1.04.23-1.04.27-.71,1.36h0s0,0,0,0c.02.75.47,1.45.3,2.23.08.07.12.16.16.24-.05-.08-.1-.16-.16-.24.23,1.71,1,3.34.86,5.11,3.14-.73,6.28-1.47,9.41-2.2.12-.21.1-.39-.12-.52-.23.05-.4-1.17-.61-1.76-.32-.93-.26-1.97-.84-2.83h0c-.09-.11-.18-.22-.26-.33h0s0,0,0,0c-.16-.73-.34-1.45-.48-2.18-.09-.46-.28-.69-.75-.48-.94.41-1.3-.02-1.37-.91-.01-.14-.08-.27-.13-.41h0c-.11-.54-.23-1.07-.31-1.61-.32-2.04-.24-4.01,1.05-5.77.25-.34.62-.72.17-1.13Zm-6.86,12.71s-.03-.07-.04-.1c.01.03.02.07.04.1Z"/><path class="cls-4" d="m115.84,99.41l14.63,1.58.93-8.59s2.47-1.04,4.4-3.62c1.94-2.58,2.91-8.4,2.91-8.4l1.67-8.27s.29-1.08-.4-2.11c-.27-.41-.69-.8-1.34-1.13-1.29-.64-2.27-.16-2.89.38-.48.42-.74.89-.74.89l-.89,2.32.4-3.7,1.13-10.45c.07-.68-.14-1.33-.54-1.83-.4-.5-.99-.85-1.67-.92-1.36-.15-2.6.85-2.75,2.21l.38-3.56c.08-.68-.14-1.33-.54-1.83-.4-.49-1-.84-1.68-.92-.74-.08-1.43.18-1.94.64-.44.39-.74.95-.8,1.57l-.38,3.56c.08-.68-.14-1.33-.54-1.83-.4-.5-.99-.84-1.67-.92-1.36-.15-2.6.85-2.75,2.21l-.68,6.27c.08-.68-.14-1.33-.54-1.83-.4-.5-.99-.84-1.68-.92-1.36-.15-2.59.85-2.74,2.21l-1.91,17.7s-.57,3.33.73,5.82c1.3,2.5,2.88,4.06,2.88,4.06l-1.01,9.36Z"/><polyline class="cls-4" points="134.13 72.48 133.28 77.95 132.88 80.53"/><line class="cls-4" x1="120.11" y1="63" x2="119.1" y2="72.42"/><line class="cls-4" x1="125.75" y1="57.26" x2="124.05" y2="72.95"/><line class="cls-4" x1="129.01" y1="73.49" x2="130.7" y2="57.8"/><path class="cls-4" d="m132.8,55.98c.26-.63.41-1.33.41-2.05,0-2.99-2.42-5.41-5.41-5.41-2.6,0-4.77,1.83-5.29,4.27-2.48.5-4.35,2.68-4.35,5.31,0,2.99,2.42,5.41,5.41,5.41,1.41,0,2.69-.54,3.65-1.42.54.24,1.14.38,1.77.38,2.41,0,4.37-1.96,4.37-4.37,0-.77-.2-1.49-.55-2.12Z"/></svg>