<?xml version="1.0" encoding="UTF-8"?>
<svg id="Calque_1" data-name="Calque 1" xmlns="http://www.w3.org/2000/svg" viewBox="0 0 128 128.13">
  <defs>
    <style>
      .cls-1, .cls-2, .cls-3, .cls-4, .cls-5, .cls-6, .cls-7, .cls-8, .cls-9, .cls-10 {
        stroke: #000;
      }

      .cls-1, .cls-2, .cls-3, .cls-11 {
        stroke-linecap: round;
        stroke-linejoin: round;
      }

      .cls-1, .cls-6 {
        fill: #d6d6d6;
      }

      .cls-2, .cls-11 {
        fill: none;
      }

      .cls-3, .cls-10 {
        fill: #fab0b4;
      }

      .cls-4 {
        fill: #fff;
      }

      .cls-4, .cls-5, .cls-6, .cls-7, .cls-8, .cls-9, .cls-10 {
        stroke-miterlimit: 10;
      }

      .cls-5 {
        fill: #f387d5;
      }

      .cls-7 {
        fill: #ddd;
      }

      .cls-8 {
        fill: #b2f0e9;
      }

      .cls-9 {
        fill: #77eddf;
      }

      .cls-11 {
        stroke: #fff;
        stroke-width: 8px;
      }
    </style>
  </defs>
  <line class="cls-3" x1="1.85" y1="12.33" x2="120.93" y2="12.33"/>
  <path class="cls-6" d="m84.19,41.98h-36.74v58.56h73.48v-58.56h-36.74Zm0,53.12c-12.34,0-22.35-10.01-22.35-22.35s10.01-22.35,22.35-22.35,22.35,10.01,22.35,22.35-10.01,22.35-22.35,22.35Z"/>
  <path class="cls-7" d="m68.5,22.53h-21.05v17.81h21.05v-17.81Zm-2.57,15.34h-15.93v-11.84h15.93v11.84Z"/>
  <path class="cls-7" d="m84.19,22.52h-14.04v17.81h50.78v-17.81h-36.74Zm13.49,14.44h-22.94v-1.7h22.94v1.7Zm0-4.42h-22.94v-1.7h22.94v1.7Zm0-4.42h-22.94v-1.7h22.94v1.7Zm10.75,10.04c-3.57,0-6.48-2.9-6.48-6.48s2.91-6.48,6.48-6.48,6.48,2.91,6.48,6.48-2.91,6.48-6.48,6.48Z"/>
  <path class="cls-8" d="m108.42,26.85c-2.66,0-4.83,2.17-4.83,4.83s2.17,4.83,4.83,4.83,4.83-2.17,4.83-4.83-2.17-4.83-4.83-4.83Z"/>
  <path class="cls-4" d="m84.19,50.4c-12.34,0-22.35,10.01-22.35,22.35s10.01,22.35,22.35,22.35,22.35-10.01,22.35-22.35-10.01-22.35-22.35-22.35Z"/>
  <polygon class="cls-8" points="84.19 40.33 70.15 40.33 70.15 22.52 68.5 22.52 68.5 40.33 47.45 40.33 47.45 41.98 84.19 41.98 120.93 41.98 120.93 40.33 84.19 40.33"/>
  <polygon class="cls-6" points="103.28 102.19 101.63 102.19 101.63 102.19 84.19 102.19 47.45 102.19 47.45 113.78 84.19 113.78 101.63 113.78 101.63 113.78 103.28 113.78 120.93 113.78 120.93 102.19 103.28 102.19"/>
  <polygon class="cls-8" points="84.19 100.54 47.45 100.54 47.45 102.19 84.19 102.19 101.63 102.19 103.28 102.19 120.93 102.19 120.93 100.54 84.19 100.54"/>
  <path class="cls-4" d="m108.42,25.2c-3.57,0-6.48,2.91-6.48,6.48s2.91,6.48,6.48,6.48,6.48-2.9,6.48-6.48-2.91-6.48-6.48-6.48Zm0,11.31c-2.66,0-4.83-2.17-4.83-4.83s2.17-4.83,4.83-4.83,4.83,2.17,4.83,4.83-2.17,4.83-4.83,4.83Z"/>
  <rect class="cls-4" x="84.19" y="26.42" width="13.49" height="1.7"/>
  <rect class="cls-4" x="74.74" y="26.42" width="18.31" height="1.7"/>
  <rect class="cls-4" x="74.74" y="30.84" width="9.45" height="1.7"/>
  <rect class="cls-4" x="81.14" y="30.84" width="16.54" height="1.7"/>
  <rect class="cls-4" x="84.19" y="35.27" width="13.49" height="1.7"/>
  <rect class="cls-4" x="74.74" y="35.27" width="11.93" height="1.7"/>
  <path class="cls-4" d="m50,37.87h15.93v-11.84h-15.93v11.84Z"/>
  <path class="cls-9" d="m101.29,72.75c0,2.4-.5,4.69-1.4,6.77-.9,2.07-2.2,3.93-3.8,5.49-3.08,2.99-7.27,4.83-11.9,4.83,20.2-17.22,0-34.19,0-34.19,4.8,0,9.13,1.98,12.24,5.17,3,3.08,4.86,7.28,4.86,11.93Z"/>
  <rect class="cls-8" x="51.4" y="31.43" width="13.15" height="4.97"/>
  <path class="cls-8" d="m84.19,89.84c-9.44,0-17.09-7.65-17.09-17.09s7.65-17.1,17.09-17.1c0,0,20.2,16.97,0,34.19Z"/>
  <path class="cls-10" d="m27.27,95.94l-10.07,6.44c-1.76,1.13-4.11.6-5.23-1.17l-2.89-4.59c-1.11-1.76-.59-4.07,1.16-5.19l10.07-6.44c1.76-1.13,4.11-.6,5.23,1.17l2.89,4.59c1.11,1.76.59,4.07-1.16,5.19Z"/>
  <path class="cls-5" d="m36.5,97.26l-10.07,6.44c-1.76,1.13-4.11.6-5.23-1.17l-2.89-4.59c-1.11-1.76-.59-4.07,1.16-5.19l10.07-6.44c1.76-1.13,4.11-.6,5.23,1.17l2.89,4.59c1.11,1.76.59,4.07-1.16,5.19Z"/>
  <polygon class="cls-6" points="36.61 113.86 8.92 113.86 6.08 98.27 39.44 98.27 36.61 113.86"/>
  <rect class="cls-6" x="3.8" y="93.63" width="37.82" height="4.75" rx="2.38" ry="2.38"/>
  <path class="cls-3" d="m25.6,31.82l-2.43.17-1.24,20.72h-11.54s-1.88-34.62-1.88-34.62c0,0,12.1-5.47,34.09,0l-1.88,34.62h-11.54l-1.24-20.72-2.43-.17"/>
  <path class="cls-2" d="m20.37,32.34s5.76-1.2,10.93,0"/>
  <rect class="cls-1" x="16.6" y="9.68" width="3.89" height="8.56"/>
  <rect class="cls-1" x="30.22" y="9.45" width="3.89" height="8.56"/>
  <line class="cls-10" x1="6.64" y1="101.36" x2="38.88" y2="101.36"/>
  <rect class="cls-11" x="-560.92" y="-5541.86" width="2244.45" height="5948.74"/>
</svg>