<?xml version="1.0" encoding="UTF-8"?>
<svg id="Calque_1" data-name="Calque 1" xmlns="http://www.w3.org/2000/svg" viewBox="0 0 128 128">
  <defs>
    <style>
      .cls-1 {
        fill: #d6d6d6;
      }

      .cls-1, .cls-2, .cls-3, .cls-4, .cls-5, .cls-6, .cls-7, .cls-8 {
        stroke-linejoin: round;
      }

      .cls-1, .cls-2, .cls-3, .cls-4, .cls-5, .cls-6, .cls-9, .cls-8 {
        stroke: #000;
      }

      .cls-1, .cls-2, .cls-3, .cls-4, .cls-6, .cls-7 {
        stroke-linecap: round;
      }

      .cls-2 {
        fill: #87ccf3;
      }

      .cls-3 {
        fill: #fff;
      }

      .cls-4, .cls-5, .cls-7, .cls-9, .cls-8 {
        fill: none;
      }

      .cls-6 {
        stroke-width: .5px;
      }

      .cls-7 {
        stroke: #fff;
        stroke-width: 8px;
      }

      .cls-9 {
        stroke-miterlimit: 10;
      }

      .cls-8 {
        stroke-width: 2px;
      }
    </style>
  </defs>
  <path class="cls-4" d="m47.89,34.41s9.54-5.33,14.33,6.23"/>
  <path class="cls-4" d="m50.8,36.85s3.49-2.84,7.61.65"/>
  <path class="cls-4" d="m58.12,41.28s-.99-.11-2.86.06c-3.37.32-5.01-1.51-5.01-1.51l.06-.6s4.43-3.91,9.05,1.58"/>
  <path class="cls-4" d="m61.74,47.52s-2.93,2.98,0,5.17"/>
  <path class="cls-4" d="m61.95,51.12s1.22,1.06,2.17,1.45"/>
  <path class="cls-9" d="m53.88,9.44s2.81,7.56,7.34,7.4,5.12-8.27,5.12-8.27"/>
  <path class="cls-4" d="m46.94,15.44s5.57,4.02,11.48.49"/>
  <path class="cls-4" d="m45.25,19.46s5.73.05,8.12-2.08"/>
  <path class="cls-4" d="m44.29,34.9s-4.56-2.6-4.76,1.73c-.2,4.33,1.63,3.98,2.86,8.26,1.23,4.28,3.91,4.92,3.91,4.92"/>
  <path class="cls-9" d="m64.4,8.83s-.69,2.98-2.06,5.08"/>
  <circle class="cls-2" cx="55.58" cy="39.84" r="1.46"/>
  <circle class="cls-6" cx="55.51" cy="40.45" r=".72"/>
  <path class="cls-4" d="m82.73,34.27s-9.54-5.33-14.33,6.23"/>
  <path class="cls-4" d="m79.81,36.71s-3.49-2.84-7.61.65"/>
  <path class="cls-4" d="m68.87,47.38s2.93,2.98,0,5.17"/>
  <path class="cls-4" d="m83.68,15.3s-9.36,4.59-12.93-.4"/>
  <path class="cls-4" d="m85.36,19.32s-5.8.2-8.19-1.92"/>
  <path class="cls-4" d="m81.09,19.66s5.63,9.75,5.23,15.1c0,0,8.2-21.16-9.49-26.83,0,0-.96-3.58-5.57-2.66-6.08-5.31-11.91.14-11.91.14-4.62-.92-5.57,2.66-5.57,2.66-17.68,5.66-9.49,26.83-9.49,26.83-.4-5.34,5.23-16.13,5.23-16.13"/>
  <path class="cls-4" d="m86.39,33.74s-.44,21.48-8.48,29.8c-8.04,8.32-12.5,7.39-12.5,7.39l.14.02s-4.78,1.05-12.82-7.26c-8.04-8.32-8.48-29.8-8.48-29.8"/>
  <path class="cls-4" d="m86.32,34.76s4.56-2.6,4.76,1.73c.2,4.33-1.63,3.98-2.86,8.26-1.23,4.28-3.91,4.92-3.91,4.92"/>
  <path class="cls-9" d="m64.47,14.77s3.92,4.96,9.2-3.34"/>
  <path class="cls-4" d="m58.62,56.66h12.85s-6.42,5.35-12.85,0Z"/>
  <path class="cls-4" d="m60.09,59.73s4.86,2.89,10.08-.09"/>
  <path class="cls-4" d="m72.47,41.11s.99-.11,2.86.06c3.37.32,5.01-1.51,5.01-1.51l-.06-.6s-4.43-3.91-9.05,1.58"/>
  <circle class="cls-2" cx="75.56" cy="39.67" r="1.5"/>
  <path class="cls-4" d="m68.67,51.12s-1.22,1.06-2.17,1.45"/>
  <circle class="cls-6" cx="75.56" cy="40.28" r=".74"/>
  <path class="cls-1" d="m15.52,58.45h0c14.92-8.69,27.56-8.05,46.23-3.43v66s-27.63-3.67-46.23,3.43h0s0-66,0-66Z"/>
  <path class="cls-1" d="m68.61,55.02c15.18-3.75,32.8-3.59,46.36,3.27h0s0,66,0,66h0c-15.18-3.75-31.05-7.18-46.23-3.43l-.13-65.84Z"/>
  <rect class="cls-1" x="61.88" y="55.12" width="6.86" height="66"/>
  <g>
    <line class="cls-5" x1="26.49" y1="88.9" x2="50.91" y2="86.31"/>
    <line class="cls-5" x1="26.49" y1="85.02" x2="50.91" y2="82.43"/>
    <line class="cls-5" x1="26.49" y1="81.77" x2="50.91" y2="79.18"/>
    <line class="cls-5" x1="26.49" y1="78.14" x2="50.91" y2="75.55"/>
    <line class="cls-5" x1="26.49" y1="74.26" x2="50.91" y2="71.67"/>
    <line class="cls-5" x1="26.49" y1="70.37" x2="50.91" y2="67.78"/>
    <line class="cls-5" x1="26.49" y1="66.49" x2="50.91" y2="63.9"/>
  </g>
  <g>
    <line class="cls-8" x1="105.29" y1="71.84" x2="80.93" y2="68.72"/>
    <line class="cls-8" x1="101.09" y1="77.2" x2="82.42" y2="74.81"/>
  </g>
  <path class="cls-3" d="m119.43,104.62c-2.14.71-5.68,2.5-7.35,3.34-6.58,3.29-7.13,1.31-6.29-.16.96-1.68,6.54-4.09,10.29-6.29-4.54.93-5.95,1.34-10.87,3.12-3.03,1.09-7.25-1.73.97-4.35,1.82-.58,5.07-1.43,8.65-2.79-2.38-.05-6.4.47-9.65,1.15-5.25,1.11-7.14.95-7.48-.52-.52-2.27,5.17-3.13,6.49-3.39,1.28-.26,8.68-1.65,9.99-1.88-3.31-.33-10.32.42-13.71.76-2.36.24-3.86-1.19-2.43-2.72.62-.66,2.49-1.12,3.32-1.24,2.82-.41,5.4-.76,8.23-.92.98-.06,4.62-.41,5.49-.51l-.04-6.32c2.48.96,10.11,2.29,9.82,13.1-.19,6.99-1.51,7.61-5.44,9.62Z"/>
  <path class="cls-3" d="m11.22,104.62c2.14.71,5.68,2.5,7.35,3.34,6.58,3.29,7.13,1.31,6.29-.16-.96-1.68-6.54-4.09-10.29-6.29,4.54.93,5.95,1.34,10.87,3.12,3.03,1.09,7.25-1.73-.97-4.35-1.82-.58-5.07-1.43-8.65-2.79,2.38-.05,6.4.47,9.65,1.15,5.25,1.11,7.14.95,7.48-.52.52-2.27-5.17-3.13-6.49-3.39-1.28-.26-8.68-1.65-9.99-1.88,3.31-.33,10.32.42,13.71.76,2.36.24,3.86-1.19,2.43-2.72-.62-.66-2.49-1.12-3.32-1.24-2.82-.41-5.4-.76-8.23-.92-.98-.06-4.62-.41-5.49-.51l.04-6.32c-2.48.96-10.11,2.29-9.82,13.1.19,6.99,1.51,7.61,5.44,9.62Z"/>
  <rect class="cls-7" x="-381.24" y="-708.08" width="1496.63" height="1236.8"/>
</svg>