<?xml version="1.0" encoding="UTF-8"?>
<svg id="Calque_1" data-name="Calque 1" xmlns="http://www.w3.org/2000/svg" viewBox="0 0 128 128">
  <defs>
    <style>
      .cls-1 {
        fill: #eee;
      }

      .cls-2 {
        fill: #ebeaea;
      }

      .cls-3 {
        fill: #f0f0f0;
      }

      .cls-4 {
        fill: #fcfcfc;
      }

      .cls-5 {
        fill: #ea018c;
      }

      .cls-6 {
        fill: #e3cbd8;
      }

      .cls-7 {
        fill: #fefefe;
      }

      .cls-8 {
        fill: #fefdfe;
      }

      .cls-9 {
        fill: #fdfdfd;
      }

      .cls-10 {
        fill: #b696a7;
      }

      .cls-11 {
        fill: #ca006a;
      }

      .cls-12 {
        fill: #ca006b;
      }

      .cls-13 {
        fill: #231f20;
      }

      .cls-14 {
        fill: none;
        stroke: #fff;
        stroke-linecap: round;
        stroke-linejoin: round;
        stroke-width: 8px;
      }
    </style>
  </defs>
  <g>
    <path class="cls-12" d="m18.57,54.3c.08-1.36.36-2.69.56-4.03.28-1.89-.09-3.63-.9-5.33-1.06-2.21-2.37-4.29-3.52-6.44-1.05-1.95-1.96-3.95-2.27-6.17-.41-2.92-.03-5.77.79-8.57,1-3.41,2.68-6.5,4.53-9.52.33-.54.79-1.01,1.44-1.18.72-.19,1.44.52,1.26,1.24-.12.46-.27.9-.5,1.33-1.44,2.78-2.93,5.54-3.87,8.56-.48,1.55-.82,3.13-.91,4.76-.03.64.06,1.27.29,1.87.18.47.49.86,1.04.81.54-.04.72-.46.82-.95.59-2.92,1.24-5.82,2.51-8.54,1.1-2.36,2.4-4.6,4-6.65.8-1.03,1.32-1.02,1.99-.17.38.48.14,1.09-.13,1.59-.76,1.41-1.53,2.82-2.22,4.26-1.21,2.56-2.15,5.21-2.43,8.05-.09.91-.19,1.83.04,2.74.07.3.19.57.38.81.21.26.44.55.83.45.39-.1.63-.36.72-.76.28-1.26.56-2.51.84-3.76.91-3.97,2.66-7.56,4.87-10.95.21-.33.53-.56.89-.73.45-.21.88-.2,1.26.17.36.36.47.74.27,1.24-.48,1.16-1.05,2.27-1.61,3.39-1.33,2.67-2.33,5.44-2.66,8.42-.12,1.09-.22,2.2-.05,3.32.29-.07.41-.28.57-.43,2.04-1.9,4.01-3.87,6.27-5.52,3.1-2.26,6.61-3.42,10.37-3.91,3.48-.46,6.89-.25,10.19,1.06,2.2.87,4.28,1.98,6.35,3.12,1.1.6,2.22,1.16,3.3,1.79.51.29.97.25,1.45.04,2.03-.89,4.05-1.81,6.09-2.68,2.47-1.06,5-1.9,7.71-2.11,1.87-.14,3.69.1,5.5.57,2.21.57,4.31,1.41,6.31,2.52-.1.32-.41.43-.63.62-.41.36-.87.66-1.25,1.06-.3.33-.66.43-1.1.36-.76-.12-1.15.17-1.33.93-.11.49-.05.98-.07,1.47,0,.14,0,.28-.02.42-.02.16-.08.33-.26.36-.16.03-.25-.11-.33-.23-.23-.38-.4-.78-.61-1.17-.2-.38-.45-.71-.84-.93-.59-.33-1.04-.1-1.13.57-.06.42-.05.84-.23,1.23-.48.1-.94-.08-1.4-.16-.9-.16-1.81-.3-2.73-.34-2.06-.1-3.97.57-5.86,1.25-2.96,1.07-5.78,2.47-8.66,3.71-.93.4-1.77.35-2.64-.07-1.54-.74-3-1.64-4.49-2.48-1.74-.98-3.49-1.91-5.41-2.51-2.68-.84-5.33-.67-7.95.21-2.43.82-4.52,2.19-6.41,3.92-1.34,1.22-2.54,2.55-3.56,4.03-1.64,2.38-2.57,5.04-2.96,7.91-.1.73-.07,1.48-.2,2.21-.03.15-.01.32-.13.45-.98,0-1.59.55-2.04,1.36-.48.86-.96,1.73-1.3,2.65-.29.77-.37,1.57-.34,2.39.03.81.57,1.29,1.38,1.24.98-.07,1.06.03.75.98-.15.45-.28.91-.53,1.32-.31.5-.68.56-1.14.2-.61-.48-.86-.47-1.48.01-.27.2-.5.63-.88.41-.33-.18-.15-.61-.18-.93-.04-.52.14-.96.46-1.37.23-.29.46-.58.65-.9.17-.28.29-.56.26-.9-.04-.38-.18-.61-.62-.63-.62-.03-.74-.24-.68-.86.09-.86.48-1.58,1.08-2.18.39-.39.47-.86.38-1.37-.08-.5-.39-.68-.88-.6-.24.04-.49.11-.68.27-1.16.96-2.13,2.05-2.37,3.63-.22,1.4-.21,2.81-.09,4.22.06.67.03,1.34.02,2.01,0,.29-.13.52-.44.58-.68.13-1.18.53-1.63,1.01-.11.12-.23.22-.37.3-.24.13-.4.07-.49-.19-.05-.17-.09-.34-.1-.52-.02-1.34-.04-2.68.13-4.01.12-.93.17-1.86.25-2.79.07-.84-.29-1.37-1.05-1.7-.1-.04-.2-.07-.26-.17Z"/>
    <path class="cls-13" d="m52.95,85.12c-.7.37-1.39.74-2.2.85-2.13.3-3.8-.61-5.27-2.01-1.3-1.23-2.04-2.8-2.75-4.4-.05-.11-.1-.23-.14-.34-.17-.18-.29-.39-.36-.64-.61-2.12-.87-4.28-.65-6.49.04-.4.02-.81.12-1.21.31-2.22.93-4.35,2.03-6.31.8-1.43,1.81-2.69,3.34-3.35,2.11-.91,4.1-.42,5.98.76.25.16.49.35.71.56.26.24.44.16.55-.15.1-.3.2-.6.3-.91.47-1.52,1.09-2.94,2.24-4.09,1.82-1.82,4.34-2.26,6.68-1.17.46.22.92.45,1.32.77.24.19.36.14.41-.18.1-.73.44-1.36.94-1.86,1.84-1.85,3.59-3.8,5.64-5.43.68-.54,1.39-1.02,2.3-1.12.87-.1,1.62.28,2.03,1.05.17.32.05.58-.1.84-.62,1.07-1.49,1.92-2.41,2.72-.71.63-1.45,1.24-2.2,1.83-.4.31-.56.69-.53,1.19.03.45.15.87.22,1.3.06.36.25.39.52.19.44-.33.84-.7,1.29-1.01.48-.33.97-.65,1.53-.83.84-.27,1.66.11,1.97.93.41,1.05.39,2.01-.42,2.9-.93,1.04-1.94,2-2.93,2.98-.41.4-.6.79-.51,1.39.14.93.26,1.85.48,2.76.03.13.02.31.2.33.14.01.2-.13.27-.23.47-.6.88-1.23,1.36-1.82.87-1.07,1.88-1.87,3.37-1.74.26.02.3-.13.26-.33-.05-.26-.15-.51-.22-.76-.68-2.46-1.03-4.97-1.31-7.5-.19-1.7-.28-3.41-.54-5.1-.03-.17-.01-.32.09-.45,1.33-1.72,3.15-1.4,4.14.1.6.9.69,1.94.58,3.01-.08.7-.16,1.4-.17,2.11-.03,2.79.49,5.51,1.04,8.22.17.83.45,1.63.72,2.43.13.39.32.75.61,1.04.63.62,1.48.41,1.75-.43.07-.22.1-.45.13-.67.2-1.51.23-3.02.1-4.53-.16-1.95-.34-3.9-.86-5.8-.42-1.57-.89-3.12-1.2-4.72-.09-.49-.17-.97-.24-1.46-.09-.61.05-1.19.28-1.76.53-1.34,2.84-1.73,3.77-.44.57.79.94,1.66,1.17,2.58.56,2.28.94,4.59,1.19,6.93.08.79.14,1.58.21,2.37,0,1.46.04,2.92,0,4.38-.08,2.35-.39,4.67-1.45,6.81-.74,1.48-1.85,2.53-3.56,2.75-1.37.17-2.55-.36-3.65-1.13-.52-.4-1-.84-1.45-1.31-.14-.15-.31-.29-.45,0-.64,1.27-1.62,2.3-2.51,3.39-.96,1.18-2.07,2.21-3.15,3.28-.14.14-.31.23-.45.36-.13.11-.25.24-.36.37-.49.44-1.01.82-1.67.97-1.05.16-1.71-.33-2.13-1.26-.1-.23-.15-.62-.42-.61-.29.01-.34.41-.44.66-.46,1.21-1.12,2.27-2.18,3.06-1.88,1.4-3.82,1.44-5.85.33-2.08-1.14-3.41-2.91-4.32-5.04-.91-2.13-1.35-4.38-1.69-6.65-.09-.6-.1-.61-.65-.35-.71.34-1.43.34-2.15.02-.52-.23-.97-.57-1.43-.9-.83-.6-1.33-.5-1.85.39-.48.82-.71,1.73-.82,2.66-.21,1.88-.28,3.76.08,5.64.27,1.4.74,2.72,1.54,3.91.25.38.6.59,1.04.66.42.07.76-.04,1.03-.38.37-.48.61-1.03.85-1.58.14-.33.3-.63.51-.93.6-.86,1.44-1.1,2.42-.91.94.19,1.4.88,1.67,1.74.27.88.09,1.75-.15,2.6-.46,1.49-1.33,2.7-2.49,3.72-.2.17-.38.37-.67.4Z"/>
    <path class="cls-13" d="m83.15,32.67c.03-.4.06-.81.1-1.21.07-.75.65-1.06,1.32-.71.5.26.78.7,1.02,1.17.22.43.35.91.69,1.29.26-.18.17-.43.18-.65.02-.58-.07-1.16.08-1.73.21-.77.67-1.07,1.45-.91.38.08.66.01.95-.28.6-.62,1.3-1.14,2.01-1.62.44-.27.88-.55,1.32-.82.78-.56,1.57-1.05,2.55-.39.3.21.49-.03.67-.22.6-.62,1.3-1.07,2.14-1.31.65-.19,1.19.02,1.65.44.47.42.5.99.43,1.56-.03.23-.17.38-.39.45-.15.05-.31.08-.46.13-1.03.32-1.51,1.09-1.36,2.15.04.26.19.29.4.32,1.17.13,1.72.73,1.71,1.91-.01,1.12-.45,2.13-.87,3.14-.52,1.26-1.12,2.47-2,3.53-.53.64-1.2,1.08-1.96,1.4-.31.14-.63.15-.91-.05-.36-.25-.51-.12-.63.25-.21.66-.61,1.15-1.37,1.23-.93,0-1.42-.43-1.54-1.41-.08-.67-.17-1.35-.14-2.03-.21-1.23-.07-2.46-.1-3.69-.02-.6,0-1.2,0-1.8,0-.22-.04-.44-.34-.43-.26,0-.43.13-.47.4-.01.09-.02.18-.02.26.06,1.24-.12,2.46-.11,3.7-.06,1.48-.17,2.96-.12,4.44.02.56-.09,1.09-.45,1.54-.43.54-.95.58-1.46.12-.4-.37-.65-.83-.86-1.32-.12-.29-.24-.59-.44-.93-.15.33-.16.62-.19.9-.08.68-.11,1.37-.45,2-.22.4-.5.72-.94.89-.33.13-.63.32-.93.5-.6.37-1.01.32-1.53-.15-.43-.39-.68-.89-.98-1.37-.18-.28-.33-.62-.75-.56-.44.06-.66.37-.79.76-.11.34-.16.69-.21,1.04-.11.8-.42,1.53-.88,2.19-.54.77-1.17.93-2.03.58-.78-.33-1.38-.91-1.99-1.47-.23-.21-.44-.58-.76-.5-.37.1-.24.54-.3.83-.11.55-.15,1.12-.33,1.66-.16.5-.43.92-.82,1.27-.72.66-1.67.48-2.09-.41-.13-.26-.18-.56-.29-.94-.25.64-.46,1.18-.76,1.67-.6.98-1.51,1.38-2.61,1.47-.11,0-.21.02-.32,0-.72-.11-1.24.07-1.7.72-.53.75-1.37.69-1.99,0-.37-.41-.61-.9-.85-1.4-.09-.19-.18-.38-.29-.56-.12-.19-.27-.34-.52-.29-.24.05-.35.22-.4.44-.12.54-.14,1.08-.24,1.62-.08.42-.13.84-.28,1.24-.32.87-.98,1.3-1.78,1.15-.84-.15-1.33-.73-1.29-1.67.07-1.62.3-3.23.55-4.83.19-1.24.4-2.47.57-3.71.01-.09.03-.18.03-.26,0-.12.06-.27-.09-.33-.11-.05-.19.06-.27.13-.32.3-.69.55-1.08.76-.38.21-.54.53-.59.94-.01.12-.02.25-.02.37.07,1.75-.11,3.49-.13,5.23-.01,1.07-.13,2.15-.32,3.21-.08.44-.24.85-.46,1.23-.3.52-.72.9-1.36.84-.69-.06-1.1-.52-1.36-1.12-.17-.39-.18-.83-.18-1.25.02-1.3.13-2.6.2-3.9.05-1.05.18-2.11.15-3.17-.01-.4-.16-.48-.54-.5-.68-.04-1.15.25-1.51.79-.36.53-.64,1.09-.76,1.73-.09.48.06.83.49.98.97.33,1.15,1.04,1.13,1.96-.06,2.33-.92,4.33-2.44,6.05-.62.71-1.09.7-1.84.15-.56-.42-.62-.41-1.11.07-.61.6-1.21,1.2-1.91,1.72-1.26.92-3.32.71-4.26-.22-.89-.87-1.86-1.68-2.76-2.54-.12-.11-.25-.32-.44-.22-.14.08-.08.29-.08.45-.01,1.37.03,2.75-.1,4.12-.05.58-.24,1.07-.65,1.46-.45.43-.99.41-1.54.22-.75-.39-1.03-1.03-.97-1.85,0-.39,0-.78,0-1.17.18-2.18.25-4.36.22-6.55-.01-.92-.1-1.83-.18-2.74-.04-.44,0-.88.29-1.2,1.08-1.2,2.48-1.79,4.05-1.69,1.39.08,2.42,1.39,2.48,2.79.04.94-.17,1.82-.47,2.69-.49,1.4-.48,1.41.64,2.38.18.16.35.5.57.41.26-.11.13-.48.13-.73-.01-1.62-.17-3.24-.38-4.85-.15-1.16.14-2.09.9-2.96.8-.92,1.7-1.74,2.59-2.57.48-.45,1.14-.55,1.66-.27.51.28.77.84.69,1.49-.06.46-.3.82-.6,1.15-.47.51-1.02.93-1.54,1.37-.34.29-.65.61-.75,1.06-.05.19-.07.4.11.54.15.11.3-.01.44-.09.32-.17.65-.3,1.01-.26.42.05.54-.17.63-.52.33-1.28.73-2.54,1.44-3.68.36-.58.84-1.04,1.36-1.47.38-.31.83-.47,1.33-.45.28.01.47-.08.64-.29.51-.65,1.18-1.11,1.94-1.44,1.18-.51,2.35-1.05,3.58-1.46.75-.25,1.51-.37,2.27-.04.21.09.37.05.51-.13.08-.11.17-.22.27-.32.62-.64,1.29-.62,1.85.07.42.53.75,1.11,1.01,1.73.24.58.52,1.14.89,1.75.12-.28.09-.49.08-.69-.02-1.13.06-2.25.22-3.37.05-.35.17-.69.37-.98.51-.78,1.66-.81,2.21-.06.62.84.66,1.81.52,2.79-.2,1.41-.44,2.82-.38,4.26.02.5.09.98.2,1.46.05.21.11.44.38.44.24,0,.31-.2.38-.38.35-.84.35-1.72.37-2.6.02-1.4-.29-2.77-.41-4.16-.07-.75-.13-1.52.09-2.26.2-.67.62-1.01,1.29-1.07.42-.04.76.09,1.02.44.25.33.4.71.5,1.1.25.98.41,1.97.5,2.97.06.7.14,1.4.15,1.96-.07-.52.11-1.17.12-1.83.02-1.54-.09-3.07-.11-4.6-.02-.99.19-1.28,1.11-1.63.63-.24,1.28-.4,1.95-.46,2.46-.22,4.23,2.32,3.21,4.6-.3.67-.72,1.25-1.15,1.84-.42.58-.42.73,0,1.32.19.26.41.48.64.7.11.1.21.29.39.21.16-.07.15-.27.17-.42.18-1.29.37-2.59.55-3.88.25-1.69.47-3.39.73-5.08.04-.28.12-.55.21-.82.26-.77,1.03-.93,1.56-.31.42.5.73,1.08,1.03,1.66.65,1.23,1.19,2.52,1.83,3.76.09.17.13.37.31.47.13-.02.13-.11.13-.2.04-1.39.19-2.78.23-4.17.01-.54.03-1.09.24-1.61Z"/>
    <path class="cls-13" d="m98.1,42.36c2.07,1.23,2.52,3.56,1.97,5.81-.43,1.74-1.38,3.22-2.36,4.69-.53.8-.54.86.39,1.03,2.5.45,4.78,1.53,7.15,2.36,2.32.81,4.65,1.02,7.06.45,1.18-.28,2.4-.4,3.62-.17,1.48.27,2.4,1.21,2.63,2.7.13.83-.25,1.43-.81,1.96-.86.82-1.94,1.2-3.06,1.48-2.51.62-4.97.27-7.41-.39-2.68-.73-5.19-1.85-7.64-3.14-.84-.44-1.72-.8-2.64-1.07-.39-.12-.5-.02-.47.39.1,1.32.11,2.64-.01,3.96.07.13.11.27.09.41-.27,1.83-.78,3.55-2.15,4.9-1.31,1.29-2.93.98-3.63-.73-.36-.88-.63-1.82-.62-2.77.04-2.38-.18-4.75-.12-7.13-.13-3.13-.35-6.26-1.26-9.29-.05-.17-.09-.34-.16-.5-.57-1.32-.22-2.48.64-3.53.73-.89,1.64-1.54,2.71-1.97,1.55-.58,3.13-.61,4.72-.19.5.13,1.03.28,1.34.76Z"/>
    <path class="cls-12" d="m90.23,57.07c.05,2.39.07,4.79.17,7.18.05,1.14.24,2.29.93,3.26.75,1.06,1.77,1.18,2.77.35,1.12-.93,1.69-2.18,2.09-3.54.18-.63.28-1.27.36-1.92.53.66.87,1.43,1.11,2.22.58,1.95,1.28,3.87,1.68,5.88.35,1.75.44,3.49-.16,5.21-.07.2-.11.41-.29.55-.16.07-.27-.04-.39-.1-1.09-.55-2.6-.27-3.46.61-.23.24-.3.49-.25.81.11.62.15,1.26.23,1.89.02.17.07.39-.16.44-.18.04-.26-.15-.33-.29-.12-.25-.21-.52-.32-.78-.12-.28-.24-.55-.46-.77-.19-.19-.4-.39-.69-.22-.27.16-.45.39-.41.74.02.22.19.43.01.65-.22.11-.44.1-.66.02-.03-.02-.07-.03-.08-.06-.19-.54-.57-.77-1.13-.73-.63-.48-.94-1.21-1.37-1.84-.5-.73-.8-1.57-1.13-2.38-.15-.36-.3-.38-.62-.23-1.58.7-3.02,1.66-4.52,2.5-4.82,2.7-9.64,5.42-14.46,8.12-1.89,1.06-3.66,2.31-5.6,3.3-.53.27-1.09.49-1.62.77-1.13.6-2.16.37-3.18-.28-1.77-1.12-3.55-2.22-5.33-3.32,1.04-.83,1.95-1.77,2.55-2.97.19-.38.33-.77.49-1.16.24-.05.39.12.56.24.96.65,1.94,1.28,2.88,1.97.52.38,1.01.37,1.58.11,2.71-1.28,5.27-2.84,7.87-4.33.71-.41,1.38-.91,2.19-1.14.6-.2,1.12-.53,1.58-.97.2-.04.3-.21.46-.31,2.57-1.67,4.99-3.53,7.35-5.47.19-.16.36-.34.62-.37.89.58,1.82,1.08,2.91,1.16,1.66.12,3.38-.94,4.15-2.58.82-1.74,1.23-3.58,1.39-5.5.17-1.94.1-3.87.11-5.81.15-.34.15-.77.59-.92Z"/>
    <path class="cls-13" d="m38.81,77.2c-.19,1.03-.42,2.05-.81,3.04-.54,1.38-1.57,2.01-2.94,2.23-.47.08-.95.07-1.42-.05-.62,0-1.05-.37-1.47-.74-.51-.44-.94-.95-1.31-1.51-.08-.13-.14-.28-.31-.36-.21.11-.17.33-.21.5-.29,1.31-.83,2.5-1.59,3.6-.12.17-.24.35-.44.44-1.15,1.15-2.43,2.08-4.07,2.41-.84.17-1.68.19-2.52.02-.8-.16-1.35-.62-1.61-1.43-.19-.58-.26-1.15-.27-1.76,0-1.83.16-3.67,0-5.49-.1-1.1-.35-2.19-.54-3.28-.12-.68-.1-1.37-.05-2.05.04-.12-.01-.24-.02-.36-.03-.65.4-1.27.99-1.6,1.64-.94,3.25-.66,4.87.04,1.27.55,2.37,1.32,3.22,2.42.08.11.16.23.35.25.17-.26.13-.56.15-.86.07-1.07.12-2.15.34-3.2.14-.64.34-1.26.66-1.83.51-.89,1.58-1.14,2.4-.52.97.73,1.2,1.8,1.22,2.92.03,1.62,0,3.24.01,4.87,0,.78.12,1.54.34,2.29.08.26.18.5.38.69.27.27.49.24.67-.1.04-.08.08-.16.09-.25.12-1.14.23-2.27.2-3.42-.06-1.99-.53-3.91-.95-5.83-.11-.5-.11-1.02,0-1.52.17-.8.61-1.38,1.42-1.63.95-.13,1.77.39,2.24,1.45.23.51.42,1.04.59,1.58.48,1.76.66,3.57.75,5.39.05,1.09-.07,2.18-.2,3.27-.02.14-.04.28-.15.38Z"/>
    <path class="cls-12" d="m98.1,42.36c-1.94-1.14-3.97-1.11-6.04-.44-.08-.08-.17-.16-.08-.3.75-.15,1.03-.74,1.23-1.38.1-.33.18-.58.56-.21.31.3.66.31,1.07.13.93-.42,1.68-1.04,2.23-1.88,1.09-1.66,1.91-3.44,2.36-5.38.08-.35.08-.7.05-1.05-.08-.8-.71-1.38-1.52-1.34-.49.03-.7-.11-.59-.61.04-.21.07-.42.09-.63.09-.82.54-1.34,1.32-1.54.29-.07.7.02.8-.38.12-.49.06-1.01-.26-1.4-.41-.49-.96-.7-1.6-.54-.93.24-1.69.77-2.32,1.49-.13.15-.24.39-.5.15-.63-.6-1.3-.47-1.99-.11-.2.11-.42.18-.63.26,1.11-4.5,2.6-8.82,5.72-12.39,1.52-1.74,3.29-3.07,5.58-3.64.68-.17,1.36-.2,2.04-.01,1.76.5,2.61,2.22,1.99,3.98-.97,2.76-2.27,5.38-3.4,8.08-2.49,5.95-4.57,12.04-5.93,18.37-.06.26-.11.52-.16.77Z"/>
    <path class="cls-13" d="m18.57,54.3c1.06.11,1.56.9,1.46,2.1-.18,2.07-.5,4.13-.4,6.22.02.35.05.7.15,1.07.4-.12.62-.46.9-.71.4-.36.81-.69,1.38-.71.34,0,.35-.23.35-.47-.03-1-.08-2.01-.11-3.01-.03-1.14-.03-2.29.19-3.42.31-1.53,1.23-2.62,2.41-3.55.1-.07.21-.13.33-.17.39-.16.82-.28,1.16-.01.36.28.38.73.31,1.17-.06.39-.17.71-.49,1.01-.63.58-.96,1.34-1.02,2.2-.02.32.05.54.45.55.74,0,1.07.54.82,1.28-.16.46-.45.84-.78,1.19-.55.58-.58,1.29-.56,2.02,0,.12,0,.27.11.33.16.08.25-.08.36-.16.25-.19.48-.42.74-.59.41-.26.8-.28,1.18.13.51.56.79.5,1.15-.18.28-.54.38-1.13.59-1.69.1-.26-.04-.35-.3-.32-.31.04-.62.13-.94.05-.66-.14-1.02-.57-1.08-1.25-.12-1.49.38-2.81,1.05-4.09.33-.64.64-1.3,1.12-1.85.44-.51.98-.81,1.68-.62.22-.04.38.07.5.22.32.39.6.81.78,1.29.14.38.04.64-.35.79-.25.09-.47.23-.65.43-.4.36-.69.8-.84,1.31-.15.51-.04.75.45.96.32.14.66.25.93.48.64.57.83,1.3.75,2.12-.17,2.16-1.13,3.97-2.46,5.62-.69.86-1.22.97-2.21.48-.87-.43-.91-.42-1.5.36-.3.39-.57.8-.99,1.09-.83.58-1.56.47-2.15-.33-.4-.54-.4-.53-.82-.03-.54.65-1.07,1.31-1.61,1.96-.35.42-.78.71-1.32.83-.39.09-.78.08-1.06-.28-.89-.76-1.13-1.79-1.21-2.88-.23-3.09-.15-6.17.2-9.24.09-.79.42-1.51,1.35-1.67Z"/>
    <path class="cls-13" d="m49.07,98.43c.26.1.43,0,.59-.11.34-.23.68-.24.95.06.3.32.28.71.06,1.08-.25.43-.67.68-1.07.93-.3.19-.37.46-.39.75-.02.27.12.41.39.26.49-.28.96-.58,1.45-.87.23-.13.13-.35.13-.52-.02-1.71,0-3.42.18-5.13.06-.5.33-.78.79-.84.48-.07.8.17.95.64.14.43.17.87.12,1.31-.16,1.27-.04,2.54.02,3.8,0,.18-.03.46.17.52.22.07.35-.18.49-.33.47-.46.6-1.04.66-1.67.17-1.61.15-3.24.41-4.85.05-.32.17-.61.34-.88.41-.62,1.04-.7,1.56-.18.44.44.8.92.97,1.55.27,1.02.58,2.02.9,3.09.3-.24.28-.52.27-.79-.04-1.18-.09-2.36-.13-3.54,0-.3,0-.6.03-.9.04-.53.35-.79.95-.87.5-.07.61.28.76.63.42.96.26,1.98.27,2.97,0,.64.1,1.08.82,1.21.27.05.49.24.62.53.11.24.3.28.51.1.67-.54.66-1.28-.03-1.77-1.1-.79-1.44-1.23-.82-2.96.25-.69.72-1.25,1.25-1.75.3-.28,1.08-.25,1.54.04.64.41.97,1.36.71,2.08-.2.55-.58.62-.98.19-.14-.15-.18-.52-.46-.41-.36.14-.41.55-.51.88-.08.29.1.45.33.59.88.5,1.24,1.26,1.1,2.27-.23,1.62-.97,2.46-2.34,2.76-.68.15-1.14-.21-1.63-.59-.19.29-.14.6-.19.89-.12.61-.55.91-1.14.7-.32-.11-.52-.07-.79.17-.49.44-1.1.27-1.39-.32-.04-.08-.06-.17-.1-.24-.12-.22-.03-.61-.48-.56-.58.07-.86.32-.9.82-.03.37-.03.74-.09,1.11-.08.46-.32.79-.85.73-.24-.03-.38.07-.52.27-.43.61-1.06.9-1.75,1.12-.29.09-.52-.03-.74-.19-.39-.29-.73-.26-1.07.11-.18.19-.42.33-.59.53-.67.8-1.58.98-2.55,1.02-1.01.05-1.92-.17-2.69-.86-.13-.11-.26-.32-.44-.24-.2.09-.15.33-.16.52-.06.78-.27,1.52-.52,2.25-.14.4-.35.81-.92.65-.42-.12-.83-.78-.76-1.2.18-1.01.37-2.01.55-3.01.16-.89.23-1.79.15-2.69-.04-.47.14-.79.52-1.01.74-.44,1.54-.89,2.37-.4.77.46.85,1.32.86,2.15,0,.54-.07,1.05-.46,1.47-.21.23-.13.41.16.51.75.26,1,.07.97-.71-.05-1.29-.12-2.57-.06-3.86.02-.45.13-.8.55-1.05.41-.24.77-.56,1.15-.84.48-.35.98-.33,1.36.07.39.41.41,1.07.04,1.49-.23.27-.55.43-.84.64-.25.18-.54.34-.68.68Z"/>
    <path class="cls-12" d="m106.68,88.25c.01.47-.27.78-.83.85-2.15.27-4.27.73-6.39,1.2-6.75,1.49-13.34,3.53-19.82,5.94-11.15,4.14-21.85,9.25-32.2,15.1-2.84,1.6-5.66,3.23-8.38,5.04-.42.28-.96.18-1.2-.21-.25-.4-.1-.88.35-1.17,9.23-5.81,18.85-10.88,28.81-15.32,8.4-3.75,17-6.96,25.89-9.39,4.18-1.14,8.41-2.07,12.68-2.8.59-.1,1.07.25,1.08.78Z"/>
    <path class="cls-12" d="m18.22,68.1c.9.34,1.61.15,2.24-.61.66-.78,1.31-1.57,1.95-2.36.21-.26.35-.25.48.05.01.03.03.06.05.09.75,1.17,1.71,1.23,2.62.15.3-.35.56-.73.85-1.08.28-.34.6-.45.99-.13.29.24.65.36,1.01.43.41.08.79,0,1.05-.33,1.21-1.49,2.26-3.07,2.6-5.01.05-.26.07-.52.11-.78.35.54.54,1.15.78,1.74.03.17.05.34.08.51-.05.75.23,1.34.88,1.73.25.11.31.36.43.57.31.57.71,1.08,1.05,1.63.1.17.3.31.2.55-1.12.51-1.56,1.49-1.33,2.9.2,1.2.59,2.36.76,3.56.28,1.97.3,3.93.04,5.9-.04.31-.22.57-.52.68-.33.11-.49-.18-.62-.39-.52-.84-.61-1.8-.64-2.74-.04-1.64,0-3.28-.02-4.92,0-.87-.13-1.72-.64-2.47-.62-.91-1.57-1.1-2.37-.49-.19.14-.31.34-.41.54-.54,1.06-.71,2.2-.81,3.37-.08.89-.14,1.79-.21,2.73-.37-.15-.56-.42-.77-.67-1.43-1.63-3.2-2.63-5.37-2.86-.72-.07-1.37.14-2.05.36-1.05.33-1.24,1.16-1.41,2.04-.56-1.43-.86-2.92-1.06-4.43-.01-.08.02-.17.04-.25Z"/>
    <path class="cls-13" d="m88.1,82.29c.44-.2.77-.35,1.11-.5.22-.09.46-.09.65.06.22.17,0,.35-.02.53-.08.87-.51,1.47-1.36,1.75-.18.06-.35.17-.47.33-.18.26-.17.57,0,.79.16.22.38-.01.56-.1.14-.07.27-.16.4-.25.77-.51.92-.18,1.3.44.14.23.03.44-.15.61-.4.37-.8.75-1.21,1.1-.75.65-1.2.65-1.97.05-.17-.13-.27-.1-.38.07-.18.28-.36.56-.55.84-.48.67-1.16.86-1.92.7-.68-.15-.96-.72-1.12-1.35-.06-.24-.11-.48-.14-.73-.06-.58-.14-1.14-.71-1.49-.15-.09-.27-.31-.3-.48-.08-.45-.34-.37-.62-.26-.18.07-.36.16-.45.35-.85,1.77-.98,3.58-.23,5.41.17.41.51.6.95.64.75.08.98-.12.95-.85-.03-.65.13-.88.64-.93.51-.05.92.25.98.8.09.81-.11,1.54-.74,2.11-1.1,1-3.21,1.29-4.38-.6-.88-1.42-1.01-3.02-.9-4.64.07-1.1.35-2.16,1.03-3.06.93-1.24,2.19-1.52,3.53-.74.29.17.37.09.49-.17.2-.43.43-.85.74-1.21.57-.66,1.29-.84,2.08-.47.22.11.32.08.48-.1.64-.77,1.44-1.34,2.33-1.79.36-.18.72-.37,1.05.02.29.35.23,1.19-.1,1.47-.31.27-.64.5-.95.76-.26.21-.47.45-.61.89Z"/>
    <path class="cls-13" d="m90.79,78.48c.88-.21.92-.19,1.19.74.21.33.22.7.23,1.07.01.69,0,1.37,0,2.06,0,.26,0,.53.07.79.05.22.04.52.3.57.31.05.45-.23.56-.47.21-.45.29-.94.22-1.44-.11-.78-.17-1.58-.64-2.26-.07-.1-.1-.23-.05-.35-.12-.35-.31-.68-.1-1.06.33-.61.87-.67,1.31-.13.26.32.39.7.56,1.07.12.27.17.57.49.88-.1-.86-.16-1.61-.29-2.35-.08-.42.01-.69.32-.97,1.2-1.06,2.81-1.22,3.92-.35.62.94.58,2.79-.14,3.64-.26.31-.19.44.07.65,1.03.86,2.26,1.18,3.56,1.28.66.05,1.16.28,1.23.69.1.64-.27,1.16-.97,1.35-1.08.29-2.09.1-3.07-.4-.68-.34-1.29-.8-1.84-1.32-.11-.1-.2-.29-.39-.2-.18.08-.2.27-.19.45.02.52-.05,1.03-.25,1.5-.11.27-.16.68-.58.66-.45-.02-.92-.09-1.19-.54-.05-.09-.08-.19-.12-.29-.11-.12.11-.37-.17-.42-.3.67-.69,1.27-1.27,1.72-.48.38-1.03.6-1.64.64-.76.05-1.09-.14-1.4-.84-.11-.25-.21-.53-.24-.8-.14-1.57-.27-3.15-.07-4.73.05-.41.19-.69.57-.84Z"/>
    <path class="cls-13" d="m31.18,107.45c0,.37,0,.74,0,1.11,0,.28.09.39.33.21.44-.35.87-.72,1.3-1.09.15-.12.09-.3.08-.45-.05-1.22-.1-2.43-.19-3.64-.03-.39.07-.61.4-.8.65-.38,1.28-.81,1.97-1.12.43-.2.83-.19,1.15.19.27.32.2.91-.17,1.25-.35.32-.75.58-1.12.88-.13.1-.34.23-.24.42.11.21.34.12.52.08.66-.16.99-.02,1.21.54.17.46-.02.85-.57,1.15-.23.12-.48.23-.71.35-.25.14-.39.35-.41.64,0,.12,0,.26.1.34.14.11.2-.06.3-.1.71-.29,1.25-.83,1.89-1.23.45-.29.84-.2,1.16.2.11.14.2.17.34.06.26-.21.44-.47.45-.8,0-.19-.18-.17-.32-.19-1.56-.25-2.08-1.22-1.71-2.65.2-.77.61-1.42,1.19-1.96.82-.77,1.72-.63,2.27.35.07.12.15.25.17.38.05.26.27.55.02.8-.24.23-.49.02-.73-.06-.69-.22-.82-.15-1.02.53-.05.18-.15.35-.22.53-.06.17-.12.35-.01.51.13.2.32.08.48.03.73-.23,1.27.02,1.7.61.13.19.23.4.24.63.09,1.9-1.77,3.6-3.61,2.76-.2-.09-.35-.1-.54.12-.46.53-1.02.97-1.65,1.29-.62.31-1.25.39-1.79-.19-.14-.15-.2-.1-.33.09-.55.79-1.27,1.39-2.26,1.53-.55.07-1.13-.43-1.18-.99-.15-1.92-.28-3.83-.4-5.75-.03-.46.29-.72.84-.74.59-.02.84.16.87.66.06,1.18.24,2.35.22,3.54Z"/>
    <path class="cls-13" d="m67.07,91.55c.05-1.08.05-2.15.18-3.22.03-.26.15-.41.36-.53,1.44-.91,3.44-.16,3.97,1.47.39,1.2.38,2.35,0,3.56-.37,1.16-1.16,1.85-2.15,2.41-.4.22-.85.23-1.29.15-.67-.12-1.08-.66-1.07-1.35,0-.83,0-1.66,0-2.49Z"/>
    <path class="cls-12" d="m38.81,77.2c.04-.72.08-1.44.13-2.16.14-2.23-.1-4.42-.62-6.59-.03-.14-.04-.28-.07-.42.38-.01.57.29.83.49.77.6,1.48,1.28,2.3,1.82.19.12.39.24.47.48-.3,2.49-.24,4.95.45,7.38.1.34.2.67.3,1.01-1.26-.67-2.52-1.35-3.79-2.02Z"/>
    <path class="cls-13" d="m72.16,89.13c0-.9.01-1.69.22-2.46.1-.39.27-.77.77-.7.47.07.57.47.6.88.04.69-.09,1.37-.16,2.05-.06.62-.1,1.23.02,1.84.07.35.23.66.59.73.36.07.51-.25.65-.52.53-.98.36-2.02.23-3.05-.08-.64-.26-1.27-.38-1.91-.08-.42.11-.66.53-.62.59.06,1.13.24,1.46.81.31.55.5,1.14.5,1.76-.01,1.47.01,2.96-.99,4.21-.57.71-1.35.98-2.2.88-.89-.11-1.4-.73-1.62-1.59-.21-.79-.26-1.59-.2-2.31Z"/>
    <path class="cls-12" d="m28.31,84.35c1-1.34,1.68-2.83,2-4.48.03-.13.02-.31.19-.34.18-.03.21.16.28.27.73,1.12,1.55,2.13,2.86,2.61-.85,2.27-3.42,3.2-5.34,1.93Z"/>
    <path class="cls-1" d="m94.84,83.33l.11-.31s.04,0,.06.01v.72c-.06-.14-.12-.28-.17-.42Z"/>
    <path class="cls-7" d="m32.89,60.35c-.2-.63-.62-1.17-.7-1.84.08-.82-.03-1.57-.68-2.15-.32-.95-.56-1.91-.56-2.91.15-.23.38-.39.64-.43.52-.09.46-.43.32-.73-.27-.57-.55-1.15-1.13-1.48.05-3.34.7-6.56,2.45-9.41,2.83-4.62,6.64-8.11,12.02-9.56,3.28-.89,6.38-.28,9.39,1.16,1.78.86,3.46,1.9,5.18,2.86.81.45,1.64.89,2.48,1.29.65.31,1.32.27,2-.01,3.01-1.25,5.91-2.74,8.98-3.83,1.98-.7,3.97-1.37,6.12-1.2,1.27.1,2.51.36,3.76.58-.11,1.97-.21,3.95-.32,5.92,0,.18-.06.34-.26.47-.36-.55-.62-1.14-.9-1.72-.68-1.39-1.3-2.81-2.13-4.13-.1-.16-.21-.33-.34-.47-.5-.49-1.03-.36-1.23.31-.37,1.22-.43,2.5-.63,3.75-.33,2.11-.62,4.22-.94,6.33-.03.17-.01.4-.19.46-.19.06-.28-.17-.41-.29-.39-.34-.72-.72-1-1.16-.21-.33-.25-.61.01-.95.42-.56.84-1.13,1.17-1.76.52-.97.53-1.96.09-2.95-.51-1.16-1.41-1.76-2.7-1.76-.9,0-1.73.28-2.56.59-.51.19-.7.59-.69,1.13.04,1.38.07,2.75.1,4.13.02.88-.05,1.76-.12,2.64-.01.17,0,.36-.16.51-.17-.62-.2-1.24-.22-1.85-.05-1.13-.28-2.24-.46-3.35-.06-.37-.19-.72-.36-1.05-.33-.63-.59-.77-1.21-.68-.61.09-.99.44-1.09,1.04-.21,1.31,0,2.6.19,3.89.21,1.42.32,2.84.04,4.26-.07.34-.2.67-.31,1.01-.07.23-.22.35-.47.34-.25-.01-.38-.16-.44-.38-.14-.55-.23-1.1-.25-1.67-.07-1.45.15-2.88.37-4.31.15-.98.13-1.94-.51-2.78-.47-.62-1.43-.6-1.91.03-.41.54-.42,1.19-.48,1.81-.11,1.05-.12,2.11-.1,3.17,0,.12.1.32-.09.36-.17.04-.21-.16-.28-.26-.42-.61-.69-1.31-1-1.97-.25-.53-.52-1.04-.9-1.49-.56-.66-1.13-.65-1.67.01-.1.12-.2.25-.27.39-.14.26-.27.28-.53.11-.52-.33-1.11-.34-1.68-.17-1.66.48-3.24,1.17-4.78,1.94-.56.28-1.03.69-1.35,1.23-.12.2-.24.25-.47.2-.47-.09-.9.04-1.3.31-1.1.75-1.72,1.84-2.19,3.04-.31.79-.55,1.6-.74,2.42-.06.25-.13.39-.45.3-.54-.14-1.01.11-1.43.41-.35.25-.47.07-.54-.23-.08-.38-.02-.73.23-1.05.38-.49.88-.86,1.35-1.26.41-.34.82-.67,1.1-1.13.38-.63.33-1.38-.1-1.81-.45-.45-1.11-.54-1.58-.12-1.2,1.09-2.42,2.17-3.35,3.51-.27.39-.38.79-.34,1.28.16,2.04.44,4.07.45,6.12,0,.2.09.47-.15.57-.21.09-.32-.17-.46-.29-.43-.37-.85-.74-1.22-1.17-.18-.21-.23-.4-.14-.67.23-.65.43-1.3.62-1.96.34-1.22.29-2.38-.49-3.47-.52-.72-1.78-1.16-2.77-.83-.6.2-1.19.43-1.77.69-1.07.49-1.38,1.09-1.29,2.26.24,3,.19,5.99-.1,8.99-.16.26.15.62-.18.85Z"/>
    <path class="cls-7" d="m41.84,70.83c-1.3-.8-2.38-1.88-3.6-2.79-.24-.56-.38-1.17-.71-1.7-.45-.7-.97-1.27-1.92-1.11-.56-.92-1.25-1.76-1.68-2.75,1.33.21,2-.37,2.04-1.76.03-1.43.05-2.86.08-4.29,0-.17-.06-.41.12-.48.15-.06.26.15.37.25,1.02.92,2.06,1.82,3.04,2.79.98.96,3.15.99,4.23.06.64-.55,1.25-1.12,1.85-1.72.32-.33.6-.44,1.03-.07.84.74,1.22.72,1.94-.15,1.56-1.89,2.4-4.04,2.23-6.53-.03-.46-.25-.75-.66-.93-.21-.09-.42-.18-.62-.29-.28-.17-.4-.41-.36-.75.12-1.07.63-1.93,1.36-2.68.17-.17,1.42-.32,1.62-.21.21.11.13.31.14.47.03,1.54-.14,3.07-.21,4.6-.05,1.06-.2,2.11-.1,3.17.05.52.21,1,.62,1.36.59.52,1.32.47,1.81-.14.38-.48.57-1.03.66-1.64.37-2.47.37-4.96.39-7.44,0-1.17.09-2.2,1.37-2.69.23-.09.41-.33.61-.5.1-.08.19-.24.36-.13.13.09.07.22.05.34-.17,1.17-.33,2.34-.51,3.5-.28,1.76-.53,3.52-.66,5.3-.05.65-.03,1.28.66,1.65.9.48,1.68.22,2.06-.73.3-.72.36-1.5.47-2.27.02-.16.03-.32.04-.47.03-.43.13-.8.64-.9.52-.1.54.36.7.64.29.54.52,1.12.91,1.6.68.85,1.54.85,2.11-.07.29-.47.57-.63,1.15-.58,1.97.16,2.98-.51,3.73-2.34.14-.33.26-.67.44-1.14.12.48.19.84.3,1.18.34,1.03,1.28,1.25,2.05.49.64-.64.79-1.47.93-2.31.06-.37.08-.74.15-1.1.1-.52.3-.6.7-.26.48.41.93.87,1.42,1.26,1.61,1.3,2.56,1.08,3.4-.75.29-.64.36-1.32.48-1.99.13-.74.42-1.08.99-1.21.28-.06.48,0,.63.24.25.4.51.8.77,1.2.19.3.43.56.72.77.33.23.66.22.98,0,.38-.25.77-.46,1.2-.63.55-.22.8-.77.95-1.33.19-.7.18-1.43.31-2.14.03-.17.03-.35.22-.47.26.32.37.71.53,1.08.21.48.42.97.8,1.36.5.52.99.48,1.4-.12.24-.36.35-.76.35-1.2-.01-1.52.03-3.03.12-4.55.65.31,1.01.88,1.31,1.49.05.64.11,1.28.16,1.93.07.96.56,1.42,1.51,1.39.03.1.05.2.08.3-.81.39-1.57.85-2.22,1.48-.57.55-.98,1.19-1.2,1.95-.14.47-.16.94.01,1.4.82,2.17,1.17,4.44,1.39,6.74.11,1.19.19,2.38.19,3.58-.2.31-.4.61-.59.92-.23-2.95-.62-5.89-1.29-8.78-.2-.88-.45-1.74-.95-2.5-.75-1.16-1.53-1.46-2.78-1.05-.85.28-1.44,1.33-1.33,2.47.11,1.2.36,2.37.69,3.52.76,2.66,1.41,5.34,1.58,8.12.12,1.89.18,3.77-.16,5.64-.09.52-.39.88-.86,1.05-.49.17-.89-.09-1.23-.43-.36-.36-.52-.83-.68-1.3-.73-2.02-1.05-4.13-1.37-6.23-.3-1.96-.48-3.92-.2-5.9.1-.72.13-1.44-.01-2.16-.17-.86-.56-1.58-1.33-2.06-1.06-.66-2.53-.28-3.12.81-.04.07-.06.13-.04.23.31,1.66.37,3.36.56,5.04.31,2.75.66,5.49,1.49,8.15.02.07.04.14.06.2.15.59.13.61-.49.53-1.02-.13-1.81.32-2.52.99-.81.77-1.39,1.73-2.06,2.61-.11.15-.18.4-.4.37-.28-.04-.2-.34-.25-.52-.27-1.1-.44-2.21-.54-3.34-.03-.29.05-.5.26-.7.91-.89,1.81-1.78,2.7-2.69.33-.34.62-.72.89-1.11.55-.81.36-2.18-.36-2.86-.42-.39-.87-.49-1.4-.28-.86.35-1.58.91-2.3,1.48-1.08.87-1.05.95-1.3-.46-.03-.14-.06-.27-.09-.41-.14-.73,0-1.28.65-1.78,1.39-1.08,2.79-2.16,3.9-3.56.09-.11.19-.22.25-.34.2-.37.71-.7.49-1.12-.36-.69-.94-1.19-1.83-1.09-.55.06-1.06.21-1.53.53-1.68,1.15-3.11,2.6-4.54,4.04-.6.6-1.21,1.19-1.77,1.82-.55.62-1.06,1.28-1.01,2.19,0,.1.01.22-.11.28-.17.08-.26-.06-.37-.14-.89-.7-1.89-1.16-3-1.35-2.48-.41-4.36.56-5.78,2.56-.84,1.18-1.25,2.55-1.67,3.91-.03.1-.06.2-.1.3-.13.31-.27.41-.57.13-.95-.91-2.07-1.51-3.37-1.76-1.84-.36-3.45.05-4.83,1.35-1.59,1.5-2.44,3.42-3.09,5.45-.31.98-.49,1.98-.66,2.99Z"/>
    <path class="cls-7" d="m71.07,77.83c-3.37,1.93-6.64,4.03-10.18,5.66-.48.22-.92.24-1.38-.09-1.16-.82-2.35-1.61-3.53-2.41.18-.77.36-1.54.19-2.35-.2-.98-.87-1.75-1.69-1.89-1.04-.18-1.82.2-2.37,1.18-.33.6-.58,1.24-.92,1.84-.67,1.16-1.86,1.18-2.59.06-1.15-1.76-1.68-3.71-1.75-5.79-.06-1.74-.06-3.49.41-5.2.17-.61.4-1.2.82-1.7.47-.56.9-.63,1.51-.24.43.28.84.58,1.27.86.86.55,1.73.61,2.64.09.46-.27.56-.21.63.32.35,2.52.83,5,1.91,7.33.97,2.07,2.37,3.74,4.5,4.71,2.19,1.01,4.38.57,6-1.22.6-.66,1.06-1.4,1.35-2.25.13-.38.29-.75.59-1.08.27.24.37.56.49.86.39.93,1.02,1.46,2.08,1.32Z"/>
    <path class="cls-7" d="m65.14,69.23c-.02,1.58-.21,3.02-.74,4.4-.2.51-.46.98-.85,1.38-.6.62-1.34.7-2.02.18-.72-.55-1.27-1.24-1.6-2.07-1.31-3.34-1.59-6.77-.68-10.26.13-.51.35-1,.6-1.46.42-.76,1.11-1,1.92-.66.83.35,1.32,1.02,1.74,1.78.93,1.68,1.36,3.5,1.55,5.39.05.47.06.95.08,1.32Z"/>
    <path class="cls-7" d="m81.08,70.72c-2.54,2.13-5.13,4.19-7.96,5.95-.11.04-.14-.01-.12-.11,2.12-1.95,4.07-4.06,5.73-6.41.11-.16.22-.32.3-.49.28-.65.27-.64.78-.12.41.41.84.8,1.27,1.19Z"/>
    <path class="cls-6" d="m73,76.55s.08.08.12.11c-.13.12-.25.29-.47.2.09-.13.2-.24.35-.31Z"/>
    <path class="cls-12" d="m93.24,37.82c-.26-2.32-.33-4.62-.33-6.93,0-.76.73-.93,1.27-1.38-.08.76-.19,1.4-.22,2.05-.05,1.25.36,1.8,1.57,2.14.32.09.37.25.34.52-.05.68-.4,1.24-.73,1.79-.46.75-.93,1.5-1.91,1.8Z"/>
    <path class="cls-9" d="m47.17,52.45c0,.06-.02.23-.06.4-.16.68-.24.73-.89.47-.42-.17-.77-.05-1.07.21-.37.33-.71.69-1.06,1.03-.23.23-.33.23-.44-.13-.21-.69-.23-1.3.39-1.81.17-.14.3-.35.44-.52.22-.27.41-.61.68-.8.36-.25.56.3.9.31.17,0,.34.07.52.09.59.04.59.04.58.75Z"/>
    <path class="cls-12" d="m90.32,38.3c-.44-.5-.88-.99-1.31-1.49.04-1.37.08-2.75.11-4.12.01-.57.43-.5.79-.54.45-.04.34.3.34.54.03,1.87.05,3.73.07,5.6Z"/>
    <path class="cls-4" d="m36.9,52.12c.02.58-.12,1.09-.37,1.56-.05.09-.09.22-.22.19-.11-.03-.14-.14-.15-.25-.08-.7-.16-1.4-.24-2.1-.03-.22.1-.37.22-.51.22-.26.4-.25.54.08.15.34.24.7.22,1.03Z"/>
    <path class="cls-4" d="m73.62,38.85c-.06.37-.05.8-.32,1.16-.13.17-.32.27-.37-.02-.1-.64-.42-1.23-.39-1.9.01-.2-.02-.44.26-.51.29-.07.46.07.59.31.15.29.22.59.23.95Z"/>
    <path class="cls-4" d="m78.91,38.19c.04-.26-.15-.69.18-.78.31-.09.52.29.7.55.22.32.44.65.27,1.07-.11.27-.3.44-.6.44-.32,0-.39-.24-.47-.48-.09-.26-.04-.52-.08-.8Z"/>
    <path class="cls-4" d="m59.94,44.74c0-.08.02-.3.03-.53.01-.14.01-.31.15-.37.16-.06.31.05.41.18.27.36.44.76.48,1.2.04.44-.24.78-.61.78-.49,0-.4-.39-.44-.69-.02-.14-.02-.28-.03-.57Z"/>
    <path class="cls-10" d="m32.89,60.35c.18-.26-.03-.6.18-.85,0,.42,0,.84-.01,1.25-.06-.13-.11-.27-.17-.4Z"/>
    <path class="cls-11" d="m95.54,47.39c-.05.79-.41,1.43-1.01,1.95-.23.19-.37.13-.48-.13-.35-.79-.7-1.57-1.07-2.35-.08-.17-.05-.3.05-.44.32-.44.74-.71,1.3-.67.51.04.81.39,1.01.82.12.26.19.53.19.83Z"/>
    <path class="cls-8" d="m92.68,79.18c.74,1.1.95,2.32.77,3.62-.05.36-.21.67-.44.94-.14.16-.29.25-.51.2-.21-.05-.25-.23-.29-.4-.15-.62-.17-1.25-.16-1.89.02-.81-.02-1.62-.07-2.43.23-.02.46-.03.7-.05Z"/>
    <path class="cls-12" d="m25.91,77.95c-.03,1.69-1,2.79-2.34,3.63-.35.22-.53.05-.53-.33,0-.74,0-1.48,0-2.22,0-1.39-.11-2.77-.31-4.15-.11-.77-.03-.85.72-.67,1.22.29,1.79,1.22,2.22,2.28.18.46.26.95.24,1.46Z"/>
    <path class="cls-5" d="m30.95,53.44c.24.96.48,1.92.56,2.91-.31-.23-.69-.34-1.04-.48-.43-.18-.57-.51-.43-.94.18-.57.42-1.11.91-1.49Z"/>
    <path class="cls-2" d="m56.43,95.46c.27.32.46.66.27,1.06-.06.12-.15.23-.27.2-.12-.03-.16-.16-.14-.3.05-.32.09-.64.14-.96Z"/>
    <path class="cls-3" d="m44.91,100.17c.07-.17-.2-.5.15-.5.3,0,.25.34.25.55,0,.21-.02.57-.27.54-.28-.04-.13-.37-.13-.59Z"/>
    <path class="cls-7" d="m84.3,85.03c0-1,.08-1.83.67-2.52.31-.36.67-.34.78.11.27,1.15.33,2.3-.44,3.33-.08.11-.19.22-.3.29-.31.2-.6.08-.65-.29-.04-.35-.05-.7-.06-.91Z"/>
    <path class="cls-4" d="m97.7,78.08c0,.49-.17.82-.35,1.14-.04.08-.09.17-.19.15-.1-.01-.15-.1-.14-.19.01-.4-.16-.75-.21-1.14-.05-.31-.11-.61.35-.67.42-.05.5.22.54.54.01.09.01.18,0,.16Z"/>
    <path class="cls-9" d="m68.66,91.49c0-.58,0-1.16,0-1.74,0-.19-.1-.43.22-.51.29-.07.58-.2.85.04.18.15.3.35.33.58.15,1.14.1,2.24-.5,3.26-.06.11-.14.21-.23.29-.16.15-.32.44-.53.37-.27-.1-.16-.42-.16-.66,0-.54,0-1.09,0-1.63,0,0,.01,0,.02,0Z"/>
  </g>
  <rect class="cls-14" x="-882.53" y="-55.49" width="1951.05" height="522.43"/>
</svg>