<?xml version="1.0" encoding="UTF-8"?>
<svg id="Calque_1" data-name="Calque 1" xmlns="http://www.w3.org/2000/svg" viewBox="0 0 200.13 128.13">
  <defs>
    <style>
      .cls-1, .cls-2, .cls-3, .cls-4, .cls-5, .cls-6, .cls-7 {
        stroke-linecap: round;
        stroke-linejoin: round;
      }

      .cls-1, .cls-3, .cls-4, .cls-5, .cls-6 {
        stroke: #000;
      }

      .cls-1, .cls-5 {
        fill: #d6d6d6;
      }

      .cls-2, .cls-8, .cls-9 {
        stroke: #f387d5;
      }

      .cls-2, .cls-6, .cls-10, .cls-9, .cls-7 {
        fill: none;
      }

      .cls-11, .cls-4, .cls-8 {
        fill: #fff;
      }

      .cls-12 {
        fill: #ffd4ad;
      }

      .cls-3 {
        fill: #f387d5;
      }

      .cls-3, .cls-4, .cls-6, .cls-10, .cls-9 {
        stroke-width: 2px;
      }

      .cls-5, .cls-8 {
        stroke-width: .5px;
      }

      .cls-8, .cls-10, .cls-9 {
        stroke-miterlimit: 10;
      }

      .cls-10 {
        stroke: #ffd4ad;
      }

      .cls-7 {
        stroke: #fff;
        stroke-width: 8px;
      }
    </style>
  </defs>
  <g>
    <rect class="cls-4" x="15.15" y="13.38" width="70.88" height="51.64"/>
    <rect class="cls-4" x="24.74" y="22.97" width="70.88" height="51.64"/>
    <polygon class="cls-4" points="86.04 13.38 95.63 22.97 24.74 22.97 15.15 13.38 86.04 13.38"/>
    <polygon class="cls-6" points="95.63 74.62 86.04 65.03 15.15 65.03 24.74 74.62 95.63 74.62"/>
    <rect class="cls-12" x="39.9" y="41.45" width="40.57" height="6.48"/>
    <g>
      <path d="m47.1,33.03h.64v4.15h2.37v.56h-3v-4.72Z"/>
      <path d="m50.82,33.03h3.42v.58h-2.8v1.43h2.59v.55h-2.59v1.6h2.85v.56h-3.47v-4.72Z"/>
      <path d="m55.52,33.03l1.35,4.02,1.34-4.02h.72l-1.72,4.72h-.68l-1.72-4.72h.71Z"/>
      <path d="m60.22,33.03v2.91c0,.34.06.63.19.85.19.34.52.51.97.51.55,0,.92-.19,1.11-.56.11-.2.16-.47.16-.81v-2.91h.65v2.65c0,.58-.08,1.03-.24,1.34-.29.57-.83.85-1.63.85s-1.34-.28-1.63-.85c-.16-.31-.24-.76-.24-1.34v-2.65h.65Z"/>
      <path d="m64.35,33.03h2.14c.35,0,.64.05.87.16.44.2.65.57.65,1.11,0,.28-.06.51-.17.69s-.28.32-.49.43c.18.07.32.17.42.3s.15.32.16.59l.02.63c0,.18.02.31.04.4.04.15.11.25.21.29v.11h-.78s-.04-.09-.05-.16-.02-.19-.03-.37l-.04-.79c-.01-.31-.13-.51-.33-.62-.12-.06-.3-.09-.56-.09h-1.41v2.02h-.64v-4.72Zm2.07,2.16c.29,0,.52-.06.69-.18s.25-.34.25-.65c0-.34-.12-.57-.36-.69-.13-.06-.3-.1-.51-.1h-1.52v1.61h1.44Z"/>
      <path d="m69.08,33.03h3.42v.58h-2.8v1.43h2.59v.55h-2.59v1.6h2.85v.56h-3.47v-4.72Z"/>
    </g>
    <polyline class="cls-3" points="95.63 52.16 95.63 74.62 24.74 74.62 24.74 52.16"/>
    <polyline class="cls-3" points="15.15 42.65 15.15 65.1 24.74 74.62 24.74 52.16"/>
    <line class="cls-9" x1="60.19" y1="23.9" x2="60.19" y2="30.34"/>
    <line class="cls-10" x1="60.19" y1="52.16" x2="60.19" y2="58.6"/>
    <path class="cls-8" d="m77.28,56.27l-5.39,9.69c-.41.74.12,1.64.97,1.64h11.05c.41,0,.78-.22.97-.58l5.26-9.69c.4-.74-.13-1.63-.97-1.63h-10.92c-.4,0-.77.22-.97.57Z"/>
    <path class="cls-8" d="m71.71,58.49l-5.39,9.69c-.41.74.12,1.64.97,1.64h11.05c.41,0,.78-.22.97-.58l5.26-9.69c.4-.74-.13-1.63-.97-1.63h-10.92c-.4,0-.77.22-.97.57Z"/>
    <rect class="cls-11" x="30.83" y="66.41" width="9.44" height="3.24"/>
    <rect class="cls-11" x="41.81" y="66.41" width="4.01" height="3.24"/>
    <path d="m76.85,33.85c-.32.32-.71.48-1.16.48s-.84-.16-1.16-.48c-.32-.32-.48-.71-.48-1.17s.16-.84.48-1.16.7-.48,1.16-.48.84.16,1.16.48.48.71.48,1.16-.16.84-.48,1.17Zm-2.16-2.16c-.27.28-.41.61-.41,1s.14.73.41,1.01c.27.28.61.42,1,.42s.73-.14,1-.42.41-.61.41-1.01-.14-.72-.41-1c-.28-.28-.61-.42-1-.42s-.72.14-1,.42Zm.97.09c.22,0,.39.02.49.06.19.08.28.23.28.46,0,.16-.06.28-.18.36-.06.04-.15.07-.26.09.14.02.24.08.31.18s.1.19.1.28v.13s0,.09,0,.13,0,.08.02.09v.02s-.29,0-.29,0v-.02s0-.01,0-.02v-.06s0-.14,0-.14c0-.21-.06-.35-.17-.41-.07-.04-.18-.06-.35-.06h-.25v.71h-.32v-1.8h.63Zm.34.28c-.08-.04-.21-.07-.38-.07h-.27v.65h.29c.13,0,.24-.01.3-.04.12-.05.19-.14.19-.28,0-.13-.04-.22-.12-.26Z"/>
    <line class="cls-6" x1="24.74" y1="22.97" x2="24.74" y2="74.62"/>
  </g>
  <rect class="cls-2" x="137.84" y="43.87" width="41.72" height="27.79" transform="translate(-6.08 20.76) rotate(-7.34)"/>
  <polygon class="cls-6" points="181.09 35.99 185.87 73.14 144.36 78.49 135.38 72.32 131.52 42.38 181.09 35.99"/>
  <rect class="cls-6" x="183.46" y="35.56" width="4.31" height="37.46" transform="translate(376.64 84.41) rotate(172.66)"/>
  <polygon class="cls-6" points="131.52 42.38 135.38 72.32 130.61 69.04 127.25 42.93 131.52 42.38"/>
  <path class="cls-1" d="m110.81,113.8h35.86l-.46-.33c-3.17-2.25-6.09-4.83-8.72-7.69l-6.36-6.93c-1.33-1.28-3.44-1.28-4.78,0l-6.34,6.9c-2.61,2.84-5.51,5.41-8.65,7.65l-.55.4Z"/>
  <circle class="cls-5" cx="125.3" cy="81.9" r=".36"/>
  <circle class="cls-5" cx="133.87" cy="97.3" r=".36"/>
  <circle class="cls-5" cx="124.31" cy="107.25" r=".36"/>
  <circle class="cls-5" cx="120.14" cy="110.84" r=".36"/>
  <circle class="cls-5" cx="108.32" cy="113.8" r=".36"/>
  <circle class="cls-5" cx="112.44" cy="112.04" r=".36"/>
  <circle class="cls-5" cx="137.47" cy="94.12" r=".36"/>
  <circle class="cls-5" cx="128.49" cy="108.86" r=".36"/>
  <circle class="cls-5" cx="133.51" cy="108.5" r=".36"/>
  <circle class="cls-5" cx="135.78" cy="110.48" r=".36"/>
  <circle class="cls-5" cx="147.57" cy="113.5" r=".36"/>
  <circle class="cls-5" cx="127.41" cy="103.96" r=".36"/>
  <circle class="cls-5" cx="131.93" cy="105.84" r=".36"/>
  <circle class="cls-5" cx="131.36" cy="104.18" r=".36"/>
  <circle class="cls-5" cx="129.78" cy="101.27" r=".36"/>
  <circle class="cls-5" cx="136.5" cy="106.2" r=".36"/>
  <circle class="cls-5" cx="125.77" cy="110.33" r=".36"/>
  <circle class="cls-5" cx="122.79" cy="103.82" r=".36"/>
  <circle class="cls-5" cx="119.78" cy="106.56" r=".36"/>
  <circle class="cls-5" cx="128.13" cy="96.94" r=".36"/>
  <circle class="cls-5" cx="129.21" cy="95.28" r=".36"/>
  <circle class="cls-5" cx="130.85" cy="97.66" r=".36"/>
  <circle class="cls-5" cx="130.14" cy="96.29" r=".36"/>
  <circle class="cls-5" cx="131.57" cy="93.76" r=".36"/>
  <circle class="cls-5" cx="126.84" cy="97.89" r=".36"/>
  <circle class="cls-5" cx="129.1" cy="98.38" r=".36"/>
  <circle class="cls-5" cx="130.88" cy="78.49" r=".36"/>
  <circle class="cls-5" cx="130.88" cy="84.44" r=".36"/>
  <circle class="cls-5" cx="128.49" cy="85.16" r=".36"/>
  <circle class="cls-5" cx="126.48" cy="91.82" r=".36"/>
  <circle class="cls-5" cx="134.8" cy="76.85" r=".36"/>
  <circle class="cls-5" cx="133.51" cy="80.82" r=".36"/>
  <circle class="cls-5" cx="138.81" cy="76.99" r=".36"/>
  <circle class="cls-5" cx="137.45" cy="80.15" r=".36"/>
  <circle class="cls-5" cx="137.74" cy="83.13" r=".36"/>
  <circle class="cls-5" cx="141.24" cy="81.18" r=".36"/>
  <circle class="cls-5" cx="142.34" cy="78.49" r=".36"/>
  <circle class="cls-5" cx="133.51" cy="88.76" r=".36"/>
  <circle class="cls-5" cx="135.06" cy="84.8" r=".36"/>
  <circle class="cls-5" cx="128.85" cy="89.12" r=".36"/>
  <rect class="cls-7" x="-3021.1" y="-2339.62" width="6467.34" height="6437.3"/>
</svg>