<?xml version="1.0" encoding="UTF-8"?>
<svg id="Calque_1" data-name="Calque 1" xmlns="http://www.w3.org/2000/svg" viewBox="0 0 128 128">
  <defs>
    <style>
      .cls-1 {
        fill: #ff6d75;
      }

      .cls-1, .cls-2, .cls-3, .cls-4, .cls-5, .cls-6, .cls-7, .cls-8 {
        stroke: #000;
      }

      .cls-1, .cls-2, .cls-3, .cls-4, .cls-5, .cls-9 {
        stroke-linecap: round;
        stroke-linejoin: round;
      }

      .cls-2, .cls-4 {
        fill: #fff;
      }

      .cls-3, .cls-5, .cls-6, .cls-9, .cls-7, .cls-8 {
        fill: none;
      }

      .cls-4, .cls-5, .cls-6 {
        stroke-width: 2px;
      }

      .cls-6, .cls-7, .cls-8 {
        stroke-miterlimit: 10;
      }

      .cls-9 {
        stroke: #fff;
        stroke-width: 8px;
      }

      .cls-8 {
        stroke-linecap: square;
        stroke-width: 1.5px;
      }
    </style>
  </defs>
  <polygon class="cls-6" points="106.24 39.31 106.24 123.88 5.76 123.88 5.76 39.31 56.03 16.67 106.24 39.31"/>
  <rect class="cls-5" x="46.01" y="77.39" width="19.99" height="46.35"/>
  <line class="cls-3" x1="53.38" y1="101.27" x2="50.11" y2="101.27"/>
  <rect class="cls-5" x="11.16" y="80.02" width="28.9" height="35.99"/>
  <rect class="cls-5" x="71.59" y="80.02" width="28.9" height="35.99"/>
  <rect class="cls-5" x="31.88" y="64" width="48.88" height="8.18"/>
  <path class="cls-4" d="m123.25,35.78v.39c0,17.4-14.12,31.52-31.53,31.52-8.66,0-16.5-3.49-22.19-9.14-1.33-1.32-2.54-2.75-3.6-4.28-1.44-2.02-2.62-4.22-3.54-6.55-1.41-3.57-2.19-7.47-2.19-11.55,0-2.11.21-4.17.6-6.16,2.69-13.6,14.13-24.06,28.21-25.25.34-.03.68-.06,1.03-.08.55-.03,1.12-.04,1.68-.04,16.77,0,30.49,13.1,31.47,29.62.03.5.05,1.01.06,1.52Z"/>
  <g>
    <g>
      <path class="cls-1" d="m112.81,50.92h0c-6.91-1.63-14.17-1.63-21.08,0h0s0-26.31,0-26.31h0c6.91-1.63,14.17-1.63,21.08,0h0s0,26.31,0,26.31Z"/>
      <path class="cls-1" d="m91.72,50.92h0c-6.91-1.63-14.17-1.63-21.08,0h0s0-26.31,0-26.31h0c6.91-1.63,14.17-1.63,21.08,0h0s0,26.31,0,26.31Z"/>
      <path class="cls-2" d="m110.98,48.93h0c-6.32-1.63-12.94-1.63-19.26,0h0s0-26.31,0-26.31h0c6.32-1.63,12.94-1.63,19.26,0h0v26.31Z"/>
      <path class="cls-2" d="m91.72,48.93h0c-6.32-1.63-12.94-1.63-19.26,0h0s0-26.31,0-26.31h0c6.32-1.63,12.94-1.63,19.26,0h0v26.31Z"/>
      <g>
        <g>
          <line class="cls-7" x1="76.24" y1="34.15" x2="88.2" y2="34.15"/>
          <line class="cls-7" x1="76.24" y1="31.82" x2="88.2" y2="31.82"/>
          <line class="cls-7" x1="76.24" y1="29.49" x2="88.2" y2="29.49"/>
          <line class="cls-7" x1="79.28" y1="27.16" x2="88.2" y2="27.16"/>
          <line class="cls-7" x1="76.24" y1="36.47" x2="88.2" y2="36.47"/>
          <line class="cls-7" x1="76.24" y1="38.8" x2="88.2" y2="38.8"/>
          <line class="cls-7" x1="76.24" y1="41.13" x2="88.2" y2="41.13"/>
          <line class="cls-7" x1="76.24" y1="43.45" x2="88.2" y2="43.45"/>
          <line class="cls-7" x1="95.38" y1="34.15" x2="107.33" y2="34.15"/>
          <line class="cls-7" x1="95.38" y1="31.82" x2="107.33" y2="31.82"/>
          <line class="cls-7" x1="95.38" y1="29.49" x2="107.33" y2="29.49"/>
          <line class="cls-7" x1="95.38" y1="27.16" x2="107.33" y2="27.16"/>
          <line class="cls-7" x1="95.38" y1="36.47" x2="107.33" y2="36.47"/>
          <line class="cls-7" x1="95.38" y1="38.8" x2="107.33" y2="38.8"/>
          <line class="cls-7" x1="95.38" y1="41.13" x2="107.33" y2="41.13"/>
        </g>
        <line class="cls-7" x1="95.38" y1="43.45" x2="107.33" y2="43.45"/>
      </g>
    </g>
    <rect x="76.23" y="25.56" width="2.01" height="2.29"/>
  </g>
  <line class="cls-3" x1="15.76" y1="96.3" x2="35.47" y2="96.3"/>
  <line class="cls-3" x1="15.76" y1="104.47" x2="35.47" y2="104.47"/>
  <line class="cls-3" x1="15.76" y1="112.2" x2="35.47" y2="112.2"/>
  <line class="cls-8" x1="18.08" y1="90.95" x2="18.08" y2="95.35"/>
  <line class="cls-8" x1="20.29" y1="90.95" x2="20.29" y2="95.35"/>
  <line class="cls-8" x1="22.5" y1="90.95" x2="22.5" y2="95.35"/>
  <line class="cls-8" x1="24.71" y1="90.95" x2="24.71" y2="95.35"/>
  <line class="cls-8" x1="26.92" y1="90.95" x2="26.92" y2="95.35"/>
  <line class="cls-8" x1="29.13" y1="90.95" x2="29.13" y2="95.35"/>
  <line class="cls-8" x1="31.34" y1="90.95" x2="31.34" y2="95.35"/>
  <line class="cls-8" x1="33.56" y1="90.95" x2="33.56" y2="95.35"/>
  <line class="cls-8" x1="18.08" y1="99.07" x2="18.08" y2="103.47"/>
  <line class="cls-8" x1="20.29" y1="99.07" x2="20.29" y2="103.47"/>
  <line class="cls-8" x1="22.5" y1="99.07" x2="22.5" y2="103.47"/>
  <line class="cls-8" x1="24.71" y1="99.07" x2="24.71" y2="103.47"/>
  <line class="cls-8" x1="26.92" y1="99.07" x2="26.92" y2="103.47"/>
  <line class="cls-8" x1="29.13" y1="99.07" x2="29.13" y2="103.47"/>
  <line class="cls-8" x1="31.34" y1="99.07" x2="31.34" y2="103.47"/>
  <line class="cls-8" x1="33.56" y1="99.07" x2="33.56" y2="103.47"/>
  <line class="cls-8" x1="18.08" y1="107.19" x2="18.08" y2="111.59"/>
  <line class="cls-8" x1="20.29" y1="107.19" x2="20.29" y2="111.59"/>
  <line class="cls-8" x1="22.5" y1="107.19" x2="22.5" y2="111.59"/>
  <line class="cls-8" x1="24.71" y1="107.19" x2="24.71" y2="111.59"/>
  <line class="cls-8" x1="26.92" y1="107.19" x2="26.92" y2="111.59"/>
  <line class="cls-8" x1="29.13" y1="107.19" x2="29.13" y2="111.59"/>
  <line class="cls-8" x1="31.34" y1="107.84" x2="33.56" y2="111.59"/>
  <line class="cls-3" x1="76.19" y1="96.3" x2="95.9" y2="96.3"/>
  <line class="cls-3" x1="76.19" y1="104.47" x2="95.9" y2="104.47"/>
  <line class="cls-3" x1="76.19" y1="112.2" x2="95.9" y2="112.2"/>
  <line class="cls-8" x1="78.51" y1="90.95" x2="78.51" y2="95.35"/>
  <line class="cls-8" x1="80.72" y1="90.95" x2="80.72" y2="95.35"/>
  <line class="cls-8" x1="82.93" y1="90.95" x2="82.93" y2="95.35"/>
  <line class="cls-8" x1="85.14" y1="90.95" x2="85.14" y2="95.35"/>
  <line class="cls-8" x1="87.35" y1="90.95" x2="87.35" y2="95.35"/>
  <line class="cls-8" x1="89.56" y1="90.95" x2="89.56" y2="95.35"/>
  <line class="cls-8" x1="91.77" y1="90.95" x2="91.77" y2="95.35"/>
  <line class="cls-8" x1="93.98" y1="90.95" x2="93.98" y2="95.35"/>
  <line class="cls-8" x1="80.72" y1="99.78" x2="78.51" y2="103.47"/>
  <line class="cls-8" x1="82.93" y1="99.07" x2="82.93" y2="103.47"/>
  <line class="cls-8" x1="85.14" y1="99.07" x2="85.14" y2="103.47"/>
  <line class="cls-8" x1="87.35" y1="99.07" x2="87.35" y2="103.47"/>
  <line class="cls-8" x1="89.56" y1="99.07" x2="89.56" y2="103.47"/>
  <line class="cls-8" x1="91.77" y1="99.07" x2="91.77" y2="103.47"/>
  <line class="cls-8" x1="93.98" y1="99.07" x2="93.98" y2="103.47"/>
  <line class="cls-8" x1="78.51" y1="107.19" x2="78.51" y2="111.59"/>
  <line class="cls-8" x1="80.72" y1="107.19" x2="80.72" y2="111.59"/>
  <line class="cls-8" x1="82.93" y1="107.19" x2="82.93" y2="111.59"/>
  <line class="cls-8" x1="85.14" y1="107.19" x2="85.14" y2="111.59"/>
  <line class="cls-8" x1="87.35" y1="107.19" x2="87.35" y2="111.59"/>
  <line class="cls-8" x1="89.56" y1="107.19" x2="89.56" y2="111.59"/>
  <line class="cls-8" x1="91.77" y1="107.19" x2="91.77" y2="111.59"/>
  <line class="cls-8" x1="93.98" y1="107.19" x2="93.98" y2="111.59"/>
  <rect class="cls-9" x="-824.45" y="-708.08" width="1496.63" height="1236.8"/>
</svg>