<?xml version="1.0" encoding="UTF-8"?>
<svg id="Calque_1" data-name="Calque 1" xmlns="http://www.w3.org/2000/svg" viewBox="0 0 445.07 128.46">
  <defs>
    <style>
      .cls-1, .cls-2, .cls-3, .cls-4, .cls-5, .cls-6, .cls-7, .cls-8, .cls-9, .cls-10, .cls-11, .cls-12, .cls-13 {
        stroke-linecap: round;
      }

      .cls-1, .cls-2, .cls-3, .cls-4, .cls-5, .cls-6, .cls-7, .cls-8, .cls-9, .cls-11, .cls-12, .cls-13 {
        stroke-linejoin: round;
      }

      .cls-1, .cls-2, .cls-3, .cls-4, .cls-5, .cls-6, .cls-7, .cls-8, .cls-10, .cls-14, .cls-15, .cls-16, .cls-17, .cls-18 {
        stroke: #010101;
      }

      .cls-1, .cls-16 {
        fill: #d6d7d7;
      }

      .cls-2 {
        fill: #b8dfde;
      }

      .cls-3 {
        fill: #a17737;
      }

      .cls-4, .cls-19, .cls-17 {
        fill: #bfe5fb;
      }

      .cls-5, .cls-20, .cls-15 {
        fill: #fff;
      }

      .cls-6, .cls-21, .cls-14 {
        fill: #ed6d76;
      }

      .cls-7 {
        fill: #010101;
      }

      .cls-8, .cls-9, .cls-10, .cls-11, .cls-12, .cls-18, .cls-13 {
        fill: none;
      }

      .cls-22 {
        fill: #f5afb5;
      }

      .cls-23 {
        fill: #cfaa57;
      }

      .cls-9 {
        stroke-dasharray: 0 0 0 0 0 0 .3 5.91;
      }

      .cls-9, .cls-11, .cls-13 {
        stroke: #cfaa57;
      }

      .cls-10, .cls-14, .cls-15, .cls-16, .cls-17, .cls-18 {
        stroke-miterlimit: 10;
      }

      .cls-11 {
        stroke-width: 2px;
      }

      .cls-12 {
        stroke: #fff;
        stroke-width: 8px;
      }

      .cls-13 {
        stroke-dasharray: 0 0 0 0 0 0 .29 5.9;
      }
    </style>
  </defs>
  <rect class="cls-12" x="-2502.12" y="-4096.14" width="6467.34" height="6437.3"/>
  <g id="Titres_catégories" data-name="Titres catégories">
    <g>
      <path class="cls-8" d="m74.79,45.08l1.59.06c7.01-7.22,17.42-20.89,24.36-19.68,4.17.72,4.67,6.25,6.44,11.29s2.21,7.86,4.87,13.07l1.27,2.03c1.04,1.66,2.51,3.02,4.3,3.79.49.21,1.02.39,1.59.51,3.05.64,3.66.46,3.62,2.14-.04,1.67-11.44,1.02-12.86.99-.59-.01-.67-1.02-.56-2.19.24-2.69-.46-5.38-2.06-7.56-.38-.51-.79-1.08-1.26-1.71-2.92-3.95-5.29-5.7-6.78-11.24-.47-2.1-.04-3.21-.04-3.21-1.65,1.91-7.34,17.28-19.91,25.45l-4.58-13.72"/>
      <path class="cls-4" d="m83.28,55.76s-2.39,3.4-6.08,4.17c-2.14.45-9.08.85-11.98-.87l-1.64-.77h-.03c-.18-.07-.38.06-.51.16-.44.36-.81.9-1.2,1.31-.44.45-.91.91-1.47,1.24-1.01.59-2.26.59-3.39.82-1.24.25-2.49.44-3.75.59-.24.03-.47.05-.7.08-3.69-1.34-8.11-3.43-8.91-5.93-1.42-4.44,5.24-10.52,5.24-10.52.48.04,1.02-.1,1.59-.34,0,0,.01-.01.02-.01,2.08-.88,3.58-2.7,5.47-3.91.1-.05.19-.12.3-.18,2.09-1.23,4.6-2.09,7.05-1.85.41.05.82.13,1.22.25,1.4.43,2.75,1.28,3.97,2,1.11.67,1.89,1.73,2.86,2.4.47.33.99.57,1.6.62,1.65.16,1.62.07,1.85.04,1.93-.28,3.01-1.43,3.21-1.66l2.08-2.26,3.19,14.6h.02Z"/>
      <path class="cls-5" d="m52.52,62.5h-.04.04Z"/>
      <path class="cls-20" d="m35.8,53.09c.08.22.15.45.22.68,2.16,1.02,4.29-1.02,4.29-1.02,0,0,6.28-6.92,8.54-6.7,0,0-6.64,6.07-5.24,10.5.59.08,2.46.38,5.12.17,5.87-.45,10.49,1.02,10.49,1.02,3.39-.42,4.4-.53,5.32-.54,1.5-.02,2.28,0,3.77.09,1.56.1,3.13.18,4.7.13,1.01-.03,2.32,0,3.21-.56.48-.31.96-.6,1.31-1.07.3-.41.46-.9.85-1.25.45-.41,1.32-.51,1.89-.61.16-.03.25-.04.25-.04,0,0,1.47-.45,1.17.11s-.55.85-.15.81c.39-.05.77.38.7.77-.07.39.45.57.38,1.11-.07.55.01.86-.35,1.3-.36.42-.15,1.22-.88,1.61-.01.01-.03.02-.04.02-.75.38-2.36.45-2.88.56-.54.11-4.87.73-7.86,1.53-1.48.39-3.45.62-5.18.74-.54.04-1.07.12-1.62.13-.65.02-3.5.16-3.69.18-1.04.1-1.79-.02-1.8-.02-.02-.02-4.02-.41-5.81-.22h-.04c-.59.07-1.13.11-1.51.1-1.51-.04-3.31.04-3.31.04,0,0-5.04.97-7.35.42-.74-.17-1.66-.45-2.55-.84-.36-.15-.73-.34-1.07-.53-.72-.41-1.38-.9-1.85-1.48-.12-.14-.22-.28-.31-.43-.27-.45-.44-.95-.44-1.5,0-1.93-.27-4.04.75-5.24-2.63-.47-5.39-3.53-5.39-3.53,0,0-4.08-3.54-.88-5.29,0,0,1.8-.23,4.35,1.38,2.54,1.61,3,1.36,3.48,1.36s0,.99,0,.99c0,0,2.14,2.49,1.27,4.07-.19.35-.53.64-1.07.87-.25.1-.51.16-.79.19"/>
      <path class="cls-8" d="m35.8,53.09c.08.22.15.45.22.68,2.16,1.02,4.29-1.02,4.29-1.02,0,0,6.28-6.92,8.54-6.7,0,0-6.64,6.07-5.24,10.5.59.08,2.46.38,5.12.17,5.87-.45,10.49,1.02,10.49,1.02,3.39-.42,4.4-.53,5.32-.54,1.5-.02,2.28,0,3.77.09,1.56.1,3.13.18,4.7.13,1.01-.03,2.32,0,3.21-.56.48-.31.96-.6,1.31-1.07.3-.41.46-.9.85-1.25.45-.41,1.32-.51,1.89-.61.16-.03.25-.04.25-.04,0,0,1.47-.45,1.17.11s-.55.85-.15.81c.39-.05.77.38.7.77-.07.39.45.57.38,1.11-.07.55.01.86-.35,1.3-.36.42-.15,1.22-.88,1.61-.01.01-.03.02-.04.02-.75.38-2.36.45-2.88.56-.54.11-4.87.73-7.86,1.53-1.48.39-3.45.62-5.18.74-.54.04-1.07.12-1.62.13-.65.02-3.5.16-3.69.18-1.04.1-1.79-.02-1.8-.02-.02-.02-4.02-.41-5.81-.22h-.04c-.59.07-1.13.11-1.51.1-1.51-.04-3.31.04-3.31.04,0,0-5.04.97-7.35.42-.74-.17-1.66-.45-2.55-.84-.36-.15-.73-.34-1.07-.53-.72-.41-1.38-.9-1.85-1.48-.12-.14-.22-.28-.31-.43-.27-.45-.44-.95-.44-1.5,0-1.93-.27-4.04.75-5.24-2.63-.47-5.39-3.53-5.39-3.53,0,0-4.08-3.54-.88-5.29,0,0,1.8-.23,4.35,1.38,2.54,1.61,3,1.36,3.48,1.36s0,.99,0,.99c0,0,2.14,2.49,1.27,4.07-.19.35-.53.64-1.07.87-.25.1-.51.16-.79.19"/>
      <path class="cls-5" d="m47.67,62.64s-5.04.96-7.35.42c-1.05-.25-2.43-.7-3.63-1.37-.19-11.01-8.13-17.47-8.13-17.47,0,0,1.8-.23,4.35,1.37,2.54,1.61,3,1.36,3.47,1.36s0,.99,0,.99c0,0,2.14,2.49,1.28,4.07-.19.35-.53.65-1.07.87-.25.11-.51.16-.79.19.08.22.15.45.22.68,2.16,1.02,4.29-1.02,4.29-1.02h0c-.08-.2-1.72-4.38-3.5-6.33-1.8-1.97-4.78-5.37-10.92-2.6-.1.04-.18.08-.28.13-2.89,1.37-4.14,4.89-3.89,7.91.42,5.17,4.75,6.16,8.71,7.88,1.97.85,3.9,1.79,5.75,2.89.16.1.31.18.47.27,5.44,2.88,11.01-.27,11.01-.27h0Z"/>
      <path class="cls-20" d="m32.87,48.86s.99-.16,1-1.2l-1,1.2Z"/>
      <path class="cls-8" d="m32.87,48.86s.99-.16,1-1.2"/>
      <path class="cls-5" d="m71.34,44.44v7.07h-6.83v-11.47c1.4.43,2.75,1.28,3.97,2,1.11.67,1.89,1.73,2.86,2.4Z"/>
      <path class="cls-7" d="m71.24,25.35l-3.32-3.84-3.32,3.84h6.64Z"/>
      <path class="cls-8" d="m67.87,25.35v10.55"/>
      <path class="cls-22" d="m66.74,41.4c-.06.61-.08,1.46.12,2.45.23,1.16.67,2.05,1.01,2.62.28-.45.65-1.17.85-2.11.13-.66.15-1.24.12-1.68"/>
      <path class="cls-8" d="m66.74,41.4c-.06.61-.08,1.46.12,2.45.23,1.16.67,2.05,1.01,2.62.28-.45.65-1.17.85-2.11.13-.66.15-1.24.12-1.68"/>
    </g>
    <g>
      <path class="cls-8" d="m74.63,86.98l1.6.06c7.04-7.24,17.47-20.96,24.43-19.74,4.18.73,4.69,6.27,6.47,11.32,1.78,5.05,2.22,7.88,4.88,13.11l1.27,2.04c1.04,1.66,2.51,3.03,4.32,3.8.49.21,1.03.39,1.6.51,3.06.65,3.66.46,3.63,2.14-.04,1.68-11.47,1.02-12.9.99-.59-.02-.67-1.01-.56-2.19.24-2.71-.46-5.4-2.06-7.59-.38-.51-.79-1.08-1.27-1.71-2.93-3.97-5.31-5.72-6.8-11.27-.48-2.11-.04-3.21-.04-3.21-1.65,1.92-7.36,17.34-19.97,25.52l-4.6-13.77"/>
      <path class="cls-4" d="m63.08,81.65c1.86.19,3.64,1.33,5.21,2.26,1.65.99,2.57,2.84,4.49,3.03,1.66.16,1.62.06,1.85.03,1.93-.28,3.03-1.43,3.23-1.66l2.08-2.28,3.2,14.64s-2.39,3.41-6.1,4.2c-2.16.45-9.11.84-12.02-.88l-1.65-.77h-.02c-.18-.07-.38.06-.51.17-.44.36-.81.9-1.21,1.32-.44.46-.92.91-1.47,1.24-1.01.59-2.26.59-3.4.83-1.24.26-2.51.44-3.76.6-.24.03-.47.05-.7.08-3.7-1.34-8.12-3.43-8.94-5.95-1.43-4.45,5.26-10.54,5.26-10.54.48.04,1.03-.09,1.6-.33,0,0,0,0,.02,0,2.1-.89,3.6-2.71,5.5-3.92.1-.05.19-.12.3-.18,2.11-1.23,4.61-2.11,7.07-1.85l-.02-.02h0Z"/>
      <path class="cls-20" d="m35.51,95.02c.08.22.15.45.22.68,2.17,1.02,4.3-1.02,4.3-1.02,0,0,6.3-6.94,8.56-6.72,0,0-6.66,6.08-5.26,10.52.6.08,2.49.54,5.15.17,3.13-.43,7.43.12,7.43.12,1.05.12,1.57-.81,2.25-1.43,1.09-1.03,2.32-1.89,3.49-2.83,1.22-1,2.43-2,3.55-3.11.72-.7,1.71-1.58,1.98-2.6.15-.56.3-1.1.24-1.68-.06-.51-.27-.98-.22-1.51.05-.61.62-1.27.98-1.74.1-.13.16-.2.16-.2,0,0,.77-1.33.94-.71.16.62.18,1.01.44.7.25-.3.83-.25,1.04.09.22.33.72.11,1.05.55.33.45.59.62.63,1.19.03.55.72,1,.44,1.79,0,.02,0,.03-.02.05-.3.79-1.43,1.93-1.74,2.38-.33.44-3.09,3.86-4.74,6.48-.82,1.3-2.12,2.82-3.31,4.08-.38.39-.72.82-1.1,1.19-.47.46-1,1.01-1.59,1.4-.02.02-.04.03-.07.04-.02.02-.05.04-.08.05-.1.06-.19.11-.29.16-.04.02-.08.04-.12.05,0,0-.02,0-.02,0-.16.07-.35.12-.51.16-.48.12-.99.16-1.48.22-.38.05-.73.11-1.08.22h-.02s-.05,0-.08.02c-.12.02-.18.04-.18.04,0,0-2.32.41-4.12.6h-.04c-.59.07-1.13.11-1.51.1-1.51-.04-3.32.04-3.32.04,0,0-5.06.97-7.38.42-.75-.17-1.66-.45-2.56-.84-.37-.16-.73-.33-1.08-.53-.73-.41-1.38-.9-1.86-1.48-.12-.14-.22-.28-.31-.44-.27-.45-.44-.95-.44-1.5,0-1.93-.27-4.06.75-5.26-2.65-.48-5.41-3.54-5.41-3.54,0,0-4.09-3.55-.89-5.3,0,0,1.81-.24,4.36,1.38,2.55,1.62,3.02,1.36,3.49,1.36s0,1,0,1c0,0,2.14,2.49,1.27,4.08-.19.35-.53.65-1.07.87-.26.1-.51.16-.79.19"/>
      <path class="cls-8" d="m35.51,95.02c.08.22.15.45.22.68,2.17,1.02,4.3-1.02,4.3-1.02,0,0,6.3-6.94,8.56-6.72,0,0-6.66,6.08-5.26,10.52.6.08,2.49.54,5.15.17,3.13-.43,7.43.12,7.43.12,1.05.12,1.57-.81,2.25-1.43,1.09-1.03,2.32-1.89,3.49-2.83,1.22-1,2.43-2,3.55-3.11.72-.7,1.71-1.58,1.98-2.6.15-.56.3-1.1.24-1.68-.06-.51-.27-.98-.22-1.51.05-.61.62-1.27.98-1.74.1-.13.16-.2.16-.2,0,0,.77-1.33.94-.71.16.62.18,1.01.44.7.25-.3.83-.25,1.04.09.22.33.72.11,1.05.55.33.45.59.62.63,1.19.03.55.72,1,.44,1.79,0,.02,0,.03-.02.05-.3.79-1.43,1.93-1.74,2.38-.33.44-3.09,3.86-4.74,6.48-.82,1.3-2.12,2.82-3.31,4.08-.38.39-.72.82-1.1,1.19-.47.46-1,1.01-1.59,1.4-.02.02-.04.03-.07.04-.02.02-.05.04-.08.05-.1.06-.19.11-.29.16-.04.02-.08.04-.12.05,0,0-.02,0-.02,0-.16.07-.35.12-.51.16-.48.12-.99.16-1.48.22-.38.05-.73.11-1.08.22h-.02s-.05,0-.08.02c-.12.02-.18.04-.18.04,0,0-2.32.41-4.12.6h-.04c-.59.07-1.13.11-1.51.1-1.51-.04-3.32.04-3.32.04,0,0-5.06.97-7.38.42-.75-.17-1.66-.45-2.56-.84-.37-.16-.73-.33-1.08-.53-.73-.41-1.38-.9-1.86-1.48-.12-.14-.22-.28-.31-.44-.27-.45-.44-.95-.44-1.5,0-1.93-.27-4.06.75-5.26-2.65-.48-5.41-3.54-5.41-3.54,0,0-4.09-3.55-.89-5.3,0,0,1.81-.24,4.36,1.38,2.55,1.62,3.02,1.36,3.49,1.36s0,1,0,1c0,0,2.14,2.49,1.27,4.08-.19.35-.53.65-1.07.87-.26.1-.51.16-.79.19"/>
      <path class="cls-5" d="m47.41,104.59s-5.06.97-7.38.43c-1.05-.25-2.44-.7-3.64-1.38-.19-11.05-8.16-17.52-8.16-17.52,0,0,1.81-.24,4.36,1.38s3.02,1.36,3.49,1.36,0,1,0,1c0,0,2.14,2.49,1.28,4.08-.19.35-.53.65-1.07.87-.26.11-.51.17-.79.19.08.22.15.45.22.68,2.17,1.02,4.3-1.01,4.3-1.01-.08-.19-1.73-4.38-3.51-6.34-1.8-1.98-4.79-5.39-10.96-2.6-.09.04-.19.08-.28.13-2.89,1.37-4.15,4.9-3.9,7.94.42,5.18,4.76,6.18,8.74,7.91,1.97.86,3.92,1.79,5.76,2.9.16.09.32.19.48.27,5.45,2.89,11.04-.27,11.04-.27v-.02h.01Z"/>
      <path class="cls-20" d="m32.57,90.77s.99-.16,1-1.2l-1,1.2Z"/>
      <path class="cls-8" d="m32.57,90.77s.99-.16,1-1.2"/>
      <path class="cls-7" d="m100.62,98.71l3.84-3.33-3.84-3.33v6.66Z"/>
      <path class="cls-8" d="m100.62,95.32h-10.59"/>
    </g>
    <rect class="cls-13" x="10.24" y="7.49" width="123.26" height="111.51" rx="9.2" ry="9.2"/>
    <path class="cls-18" d="m265.56,112.13h29.15c.19,0,.33-.15.33-.33v-16.57c0-2.31-1.89-4.21-4.21-4.21h-21.3c-2.31,0-4.21,1.89-4.21,4.21v16.69c0,.12.1.22.22.22h.01Z"/>
    <path class="cls-14" d="m292.15,91.01h-4.23v-1.01c0-1.17.95-2.11,2.11-2.11s2.11.95,2.11,2.11v1.01h0Z"/>
    <path class="cls-18" d="m313.88,112.13h-18.83v-8.85h9.98c4.88,0,8.85,3.97,8.85,8.85h0Z"/>
    <path class="cls-18" d="m313.51,109.59h-18.46"/>
    <path class="cls-18" d="m283.42,105.9h-18.4"/>
    <path class="cls-16" d="m274.23,116.17c2.23,0,4.04-1.81,4.04-4.04s-1.81-4.04-4.04-4.04-4.04,1.81-4.04,4.04,1.81,4.04,4.04,4.04Z"/>
    <path class="cls-15" d="m274.23,113.51c.76,0,1.39-.62,1.39-1.39s-.62-1.39-1.39-1.39-1.39.62-1.39,1.39.62,1.39,1.39,1.39Z"/>
    <path class="cls-16" d="m306.23,116.17c2.23,0,4.04-1.81,4.04-4.04s-1.81-4.04-4.04-4.04-4.04,1.81-4.04,4.04,1.81,4.04,4.04,4.04Z"/>
    <path class="cls-15" d="m306.23,113.51c.76,0,1.39-.62,1.39-1.39s-.62-1.39-1.39-1.39-1.39.62-1.39,1.39.62,1.39,1.39,1.39Z"/>
    <path class="cls-18" d="m285.34,95.25h4.84c1.06,0,1.91.85,1.91,1.91v14.96h-8.66v-14.96c0-1.06.85-1.91,1.91-1.91h0Z"/>
    <path class="cls-21" d="m278.45,96.56h-2.96v-2.96h-3.18v2.96h-2.96v3.17h2.96v2.96h3.18v-2.96h2.96v-3.17Z"/>
    <path class="cls-18" d="m311.75,106.37s-.14,1.15-.56,3.22"/>
    <path class="cls-10" d="m261.35,107.7h1.91"/>
    <path class="cls-10" d="m260.3,109.86h2.96"/>
    <path class="cls-18" d="m294.96,94.34h6.34c1.48,0,2.68,1.2,2.68,2.68v6.34"/>
    <path class="cls-17" d="m301.72,97.25h-4.5v3.58h4.5v-3.58Z"/>
    <path class="cls-18" d="m263.26,116.17h49.63"/>
    <path class="cls-8" d="m403.88,87.9h-35.52v31.77h35.52v-31.77Z"/>
    <path class="cls-1" d="m381.63,108.57h-10.93v11.1h10.93v-11.1Z"/>
    <path class="cls-1" d="m376.16,108.57h-5.47v11.1h5.47v-11.1Z"/>
    <path class="cls-8" d="m374.91,93.6h-4.21v4.21h4.21v-4.21Z"/>
    <path class="cls-8" d="m381.63,93.6h-4.21v4.21h4.21v-4.21Z"/>
    <path class="cls-8" d="m388.2,93.6h-4.21v4.21h4.21v-4.21Z"/>
    <path class="cls-8" d="m394.82,93.6h-4.21v4.21h4.21v-4.21Z"/>
    <path class="cls-8" d="m401.43,93.6h-4.21v4.21h4.21v-4.21Z"/>
    <path class="cls-8" d="m388.2,99.58h-4.21v4.21h4.21v-4.21Z"/>
    <path class="cls-8" d="m394.82,99.58h-4.21v4.21h4.21v-4.21Z"/>
    <path class="cls-8" d="m401.43,99.58h-4.21v4.21h4.21v-4.21Z"/>
    <path class="cls-8" d="m388.2,105.55h-4.21v4.21h4.21v-4.21Z"/>
    <path class="cls-8" d="m394.82,105.55h-4.21v4.21h4.21v-4.21Z"/>
    <path class="cls-8" d="m401.43,105.55h-4.21v4.21h4.21v-4.21Z"/>
    <path class="cls-1" d="m403.88,87.9h-35.52v3.23h35.52v-3.23Z"/>
    <path class="cls-8" d="m375.02,113.71v1.42"/>
    <path class="cls-8" d="m377.31,113.71v1.42"/>
    <path class="cls-21" d="m377.45,99.62h-2.58v7.37h2.58v-7.37Z"/>
    <path class="cls-21" d="m372.48,102.02v2.57h7.37v-2.57h-7.37Z"/>
    <path class="cls-19" d="m371.25,96.23v-2.14h2.79v.71s-1-.33-1.58.29-.58,1.14-.58,1.14h-.64Z"/>
    <path class="cls-19" d="m378.05,96.23v-2.14h2.79v.71s-1-.33-1.58.29-.58,1.14-.58,1.14h-.64Z"/>
    <path class="cls-19" d="m384.51,96.23v-2.14h2.79v.71s-1-.33-1.58.29-.58,1.14-.58,1.14h-.64Z"/>
    <path class="cls-19" d="m391.18,96.23v-2.14h2.79v.71s-1-.33-1.58.29-.58,1.14-.58,1.14h-.64Z"/>
    <path class="cls-19" d="m397.81,96.23v-2.14h2.79v.71s-1-.33-1.58.29-.58,1.14-.58,1.14h-.64Z"/>
    <path class="cls-19" d="m384.51,102.24v-2.14h2.79v.71s-1-.33-1.58.29-.58,1.14-.58,1.14h-.64Z"/>
    <path class="cls-19" d="m391.18,102.24v-2.14h2.79v.71s-1-.33-1.58.29-.58,1.14-.58,1.14h-.64Z"/>
    <path class="cls-19" d="m397.81,102.24v-2.14h2.79v.71s-1-.33-1.58.29-.58,1.14-.58,1.14h-.64Z"/>
    <path class="cls-19" d="m384.51,108.25v-2.14h2.79v.71s-1-.33-1.58.29-.58,1.14-.58,1.14h-.64Z"/>
    <path class="cls-19" d="m391.18,108.25v-2.14h2.79v.71s-1-.33-1.58.29-.58,1.14-.58,1.14h-.64Z"/>
    <path class="cls-19" d="m397.81,108.25v-2.14h2.79v.71s-1-.33-1.58.29-.58,1.14-.58,1.14h-.64Z"/>
    <path class="cls-8" d="m388.2,111.61h-4.21v4.21h4.21v-4.21Z"/>
    <path class="cls-8" d="m394.82,111.61h-4.21v4.21h4.21v-4.21Z"/>
    <path class="cls-8" d="m401.43,111.61h-4.21v4.21h4.21v-4.21Z"/>
    <path class="cls-19" d="m384.51,114.31v-2.14h2.79v.71s-1-.33-1.58.29-.58,1.14-.58,1.14h-.64Z"/>
    <path class="cls-19" d="m391.18,114.31v-2.14h2.79v.71s-1-.33-1.58.29-.58,1.14-.58,1.14h-.64Z"/>
    <path class="cls-19" d="m397.81,114.31v-2.14h2.79v.71s-1-.33-1.58.29-.58,1.14-.58,1.14h-.64Z"/>
    <g>
      <path class="cls-5" d="m204.73,97.42h-39.3v21.88h39.3v-21.88Z"/>
      <path class="cls-6" d="m185.08,86.07l19.66,11.35h-39.3l19.65-11.35h0Z"/>
      <path class="cls-2" d="m183.07,104.02h-9.78v7.77h9.78v-7.77Z"/>
      <path class="cls-3" d="m197.69,106.68h-7.06v12.13h7.06v-12.13h0Z"/>
    </g>
    <g>
      <path class="cls-11" d="m432.93,59c1.93,1.26,5.21,3.09,7.24,4.19-2.45,1.48-4.1,2.84-6.54,4.32"/>
      <line class="cls-11" x1="138.42" y1="63.62" x2="437.56" y2="63.62"/>
    </g>
    <path class="cls-23" d="m387.96,62.74s-.03-.03-.04-.05l.3.39s-.03-.04-.04-.07l.19.46s-.02-.06-.02-.09l.07.51v-.12l-.07.51s.02-.09.04-.14l-.19.46c.02-.05.05-.1.08-.15l-.3.39s.07-.07.1-.1l-.39.3s.07-.05.1-.06l-.46.19s.07-.02.12-.04l-.51.07h.1l-.51-.07s.07.01.1.03l-.46-.19s.07.04.1.06l-.39-.3s.06.05.08.08l-.3-.39s.06.09.08.14l-.19-.46c.02.05.04.1.04.16l-.07-.51c0,.06,0,.13,0,.19l.07-.51c0,.05-.02.11-.04.16l.19-.46s-.04.08-.07.12l.3-.39s-.05.06-.09.09l.39-.3s-.07.05-.12.07l.46-.19c-.05.02-.12.04-.18.05l.51-.07c-.06,0-.12,0-.18,0l.51.07c-.07-.01-.13-.03-.2-.05l.46.19c-.05-.02-.11-.05-.16-.09l.39.3s-.09-.08-.13-.13l.3.39s-.06-.09-.08-.15l.19.46c-.02-.05-.04-.12-.05-.17l.07.51c-.01-.08-.01-.15,0-.23l-.07.51c.01-.08.04-.17.07-.25l-.19.46c.03-.07.07-.14.12-.2l-.3.39c.05-.06.1-.12.16-.16l-.39.3c.05-.04.1-.07.16-.1l-.46.19c.08-.03.16-.05.24-.07l-.51.07c.08-.01.17,0,.25,0l-.51-.07c.09.01.18.04.27.07l-.46-.19c.08.04.16.08.24.14l-.39-.3c.06.05.12.1.16.16l-.3-.39c.05.06.08.13.12.2l-.19-.46c.03.07.05.13.05.21l-.07-.51c.01.08.01.16,0,.24l.07-.51c-.01.1-.04.19-.08.28l.19-.46c-.04.08-.08.16-.13.23l.3-.39c-.05.07-.12.13-.19.19l.39-.3c-.07.05-.13.09-.21.12l.46-.19c-.07.03-.13.05-.21.06l.51-.07c-.08.01-.16.01-.23,0l.51.07c-.08-.01-.15-.04-.22-.06l.46.19c-.08-.04-.16-.08-.22-.13l.39.3c-.07-.05-.13-.12-.19-.19l.3.39c-.06-.08-.11-.16-.15-.25l.19.46c-.03-.07-.05-.15-.06-.23l.07.51c0-.07,0-.14,0-.21l-.07.51c.01-.08.03-.16.07-.24l-.19.46c.03-.07.07-.13.11-.19l-.3.39c.05-.07.12-.13.19-.19l-.39.3c.07-.05.15-.1.24-.14l-.46.19c.08-.03.15-.05.24-.07l-.51.07c.07-.01.15-.01.22,0l-.51-.07c.07.01.14.03.21.05l-.46-.19c.07.03.12.06.18.1l-.39-.3c.06.05.12.1.16.16l-.3-.39c.05.07.1.14.13.22l-.19-.46c.04.08.06.18.07.27l-.07-.51c.01.08.01.15,0,.23l.07-.51c-.01.08-.03.15-.06.22l.19-.46c-.02.05-.05.11-.09.16l.3-.39c-.04.05-.09.1-.14.14l.39-.3c-.06.04-.12.08-.19.12l.46-.19c-.08.03-.16.05-.24.07l.51-.07c-.09.01-.18.01-.27,0l.51.07c-.07-.01-.15-.03-.21-.06l.46.19c-.06-.02-.12-.06-.17-.1l.39.3s-.09-.08-.13-.13l.3.39c-.04-.05-.07-.11-.1-.17l.19.46c-.02-.07-.04-.14-.05-.21l.07.51c-.01-.08,0-.16,0-.24l-.07.51c.01-.09.04-.17.07-.25l-.19.46c.03-.07.07-.13.11-.19l-.3.39s.08-.1.14-.14l-.39.3s.1-.07.15-.09l-.46.19h.02c.25-.07.47-.18.65-.35.21-.13.38-.31.5-.54.14-.22.22-.46.23-.71.05-.25.05-.51-.04-.77l-.19-.46c-.17-.29-.4-.52-.69-.69l-.46-.19c-.34-.09-.68-.09-1.02,0-.21.08-.44.15-.62.28-.17.12-.38.27-.53.44-.31.36-.54.72-.66,1.19-.05.22-.08.46-.1.69v.1c0,.2.04.41.08.61.01.07.03.13.05.19.07.19.16.45.29.63.27.37.56.73.99.92s.85.35,1.36.33.89-.13,1.36-.36c.19-.09.41-.28.54-.39.18-.15.31-.36.44-.53.13-.18.21-.41.28-.62.03-.07.05-.15.06-.22.04-.22.09-.47.07-.71s-.04-.49-.11-.72c-.16-.5-.36-.82-.7-1.2-.14-.16-.38-.32-.53-.43-.19-.14-.43-.22-.64-.3-.07-.02-.13-.04-.21-.05-.24-.04-.48-.09-.73-.07-.19.02-.48.04-.7.12s-.46.16-.66.29-.39.27-.56.43c-.02.02-.05.05-.08.08-.13.15-.26.31-.37.48-.02.03-.04.06-.05.1-.09.18-.16.37-.24.55-.08.22-.1.53-.12.73v.12c.01.2.04.41.08.61,0,.04.02.08.03.13.06.19.15.38.23.56.03.07.07.14.12.21.13.18.28.41.47.56.38.32.76.58,1.25.71s1,.13,1.47,0,.84-.36,1.2-.7c.16-.15.32-.38.43-.53.05-.07.09-.13.13-.21.22-.47.35-.84.36-1.37v-.12c-.02-.19-.04-.41-.08-.59,0-.04-.02-.07-.03-.1-.07-.19-.15-.38-.24-.56-.1-.19-.28-.41-.41-.55-.15-.17-.37-.32-.54-.44-.05-.04-.12-.08-.18-.11-.21-.1-.43-.21-.65-.27s-.47-.08-.7-.1-.48.04-.72.07c-.07.01-.14.03-.21.05-.21.08-.45.16-.65.3-.39.28-.76.59-.97,1.04s-.38.9-.35,1.4c.01.24.03.48.1.71.03.09.08.19.12.28s.07.19.12.28c.02.04.04.07.06.1.12.16.26.38.43.52.1.08.31.26.47.35.17.1.36.16.54.24.15.06.29.07.45.09.39.05.51.04.96-.04.42-.07.91-.35,1.19-.67.15-.16.3-.33.39-.53.08-.16.16-.35.22-.53.01-.04.02-.07.02-.11.07-.47.13-.91-.04-1.37-.15-.4-.19-.5-.42-.79-.21-.27-.34-.41-.67-.61-.19-.12-.41-.21-.62-.25-.15-.02-.39-.07-.53-.07h-.04c-.1,0-.23.03-.3.04-.08.01-.21.02-.3.04-.02,0-.03.01-.05.02-.14.05-.35.13-.48.2-.03.02-.06.03-.09.05-.42.28-.51.41-.81.81-.27.36-.37.85-.39,1.3-.01.22.02.45.09.67.06.18.13.37.23.53.07.12.22.3.31.41.01.02.02.03.04.05.18.19.38.32.62.4.23.12.48.18.74.16.27.01.51-.04.74-.16.24-.08.45-.21.62-.4l.3-.39c.18-.3.26-.62.26-.97l-.07-.51c-.09-.33-.25-.61-.5-.85h0Z"/>
    <path class="cls-23" d="m287.13,62.74s-.03-.03-.04-.05l.3.39s-.03-.04-.04-.07l.19.46s-.02-.06-.02-.09l.07.51v-.12l-.07.51s.02-.09.04-.14l-.19.46c.02-.05.05-.1.08-.15l-.3.39s.07-.07.1-.1l-.39.3s.07-.05.1-.06l-.46.19s.07-.02.12-.04l-.51.07h.1l-.51-.07s.07.01.1.03l-.46-.19s.07.04.1.06l-.39-.3s.06.05.08.08l-.3-.39s.06.09.08.14l-.19-.46c.02.05.04.1.04.16l-.07-.51c0,.06,0,.13,0,.19l.07-.51c0,.05-.02.11-.04.16l.19-.46s-.04.08-.07.12l.3-.39s-.05.06-.09.09l.39-.3s-.07.05-.12.07l.46-.19c-.05.02-.12.04-.18.05l.51-.07c-.06,0-.12,0-.18,0l.51.07c-.07-.01-.13-.03-.2-.05l.46.19c-.05-.02-.11-.05-.16-.09l.39.3s-.09-.08-.13-.13l.3.39s-.06-.09-.08-.15l.19.46c-.02-.05-.04-.12-.05-.17l.07.51c-.01-.08-.01-.15,0-.23l-.07.51c.01-.08.04-.17.07-.25l-.19.46c.03-.07.07-.14.12-.2l-.3.39c.05-.06.1-.12.16-.16l-.39.3c.05-.04.1-.07.16-.1l-.46.19c.08-.03.16-.05.24-.07l-.51.07c.08-.01.17,0,.25,0l-.51-.07c.09.01.18.04.27.07l-.46-.19c.08.04.16.08.24.14l-.39-.3c.06.05.12.1.16.16l-.3-.39c.05.06.08.13.12.2l-.19-.46c.03.07.05.13.05.21l-.07-.51c.01.08.01.16,0,.24l.07-.51c-.01.1-.04.19-.08.28l.19-.46c-.04.08-.08.16-.13.23l.3-.39c-.05.07-.12.13-.19.19l.39-.3c-.07.05-.13.09-.21.12l.46-.19c-.07.03-.13.05-.21.06l.51-.07c-.08.01-.16.01-.23,0l.51.07c-.08-.01-.15-.04-.22-.06l.46.19c-.08-.04-.16-.08-.22-.13l.39.3c-.07-.05-.13-.12-.19-.19l.3.39c-.06-.08-.11-.16-.15-.25l.19.46c-.03-.07-.05-.15-.06-.23l.07.51c0-.07,0-.14,0-.21l-.07.51c.01-.08.03-.16.07-.24l-.19.46c.03-.07.07-.13.11-.19l-.3.39c.05-.07.12-.13.19-.19l-.39.3c.07-.05.15-.1.24-.14l-.46.19c.08-.03.15-.05.24-.07l-.51.07c.07-.01.15-.01.22,0l-.51-.07c.07.01.14.03.21.05l-.46-.19c.07.03.12.06.18.1l-.39-.3c.06.05.12.1.16.16l-.3-.39c.05.07.1.14.13.22l-.19-.46c.04.08.06.18.07.27l-.07-.51c.01.08.01.15,0,.23l.07-.51c-.01.08-.03.15-.06.22l.19-.46c-.02.05-.05.11-.09.16l.3-.39c-.04.05-.09.1-.14.14l.39-.3c-.06.04-.12.08-.19.12l.46-.19c-.08.03-.16.05-.24.07l.51-.07c-.09.01-.18.01-.27,0l.51.07c-.07-.01-.15-.03-.21-.06l.46.19c-.06-.02-.12-.06-.17-.1l.39.3s-.09-.08-.13-.13l.3.39c-.04-.05-.07-.11-.1-.17l.19.46c-.02-.07-.04-.14-.05-.21l.07.51c-.01-.08,0-.16,0-.24l-.07.51c.01-.09.04-.17.07-.25l-.19.46c.03-.07.07-.13.11-.19l-.3.39s.08-.1.14-.14l-.39.3s.1-.07.15-.09l-.46.19h.02c.25-.07.47-.18.65-.35.21-.13.38-.31.5-.54.14-.22.22-.46.23-.71.05-.25.05-.51-.04-.77l-.19-.46c-.17-.29-.4-.52-.69-.69l-.46-.19c-.34-.09-.68-.09-1.02,0-.21.08-.44.15-.62.28-.17.12-.38.27-.53.44-.31.36-.54.72-.66,1.19-.05.22-.08.46-.1.69v.1c0,.2.04.41.08.61.01.07.03.13.05.19.07.19.16.45.29.63.27.37.56.73.99.92s.85.35,1.36.33.89-.13,1.36-.36c.19-.09.41-.28.54-.39.18-.15.31-.36.44-.53.13-.18.21-.41.28-.62.03-.07.05-.15.06-.22.04-.22.09-.47.07-.71s-.04-.49-.11-.72c-.16-.5-.36-.82-.7-1.2-.14-.16-.38-.32-.53-.43-.19-.14-.43-.22-.64-.3-.07-.02-.13-.04-.21-.05-.24-.04-.48-.09-.73-.07-.19.02-.48.04-.7.12s-.46.16-.66.29-.39.27-.56.43c-.02.02-.05.05-.08.08-.13.15-.26.31-.37.48-.02.03-.04.06-.05.1-.09.18-.16.37-.24.55-.08.22-.1.53-.12.73v.12c.01.2.04.41.08.61,0,.04.02.08.03.13.06.19.15.38.23.56.03.07.07.14.12.21.13.18.28.41.47.56.38.32.76.58,1.25.71s1,.13,1.47,0,.84-.36,1.2-.7c.16-.15.32-.38.43-.53.05-.07.09-.13.13-.21.22-.47.35-.84.36-1.37v-.12c-.02-.19-.04-.41-.08-.59,0-.04-.02-.07-.03-.1-.07-.19-.15-.38-.24-.56-.1-.19-.28-.41-.41-.55-.15-.17-.37-.32-.54-.44-.05-.04-.12-.08-.18-.11-.21-.1-.43-.21-.65-.27s-.47-.08-.7-.1-.48.04-.72.07c-.07.01-.14.03-.21.05-.21.08-.45.16-.65.3-.39.28-.76.59-.97,1.04s-.38.9-.35,1.4c.01.24.03.48.1.71.03.09.08.19.12.28s.07.19.12.28c.02.04.04.07.06.1.12.16.26.38.43.52.1.08.31.26.47.35.17.1.36.16.54.24.15.06.29.07.45.09.39.05.51.04.96-.04.42-.07.91-.35,1.19-.67.15-.16.3-.33.39-.53.08-.16.16-.35.22-.53.01-.04.02-.07.02-.11.07-.47.13-.91-.04-1.37-.15-.4-.19-.5-.42-.79-.21-.27-.34-.41-.67-.61-.19-.12-.41-.21-.62-.25-.15-.02-.39-.07-.53-.07h-.04c-.1,0-.23.03-.3.04-.08.01-.21.02-.3.04-.02,0-.03.01-.05.02-.14.05-.35.13-.48.2-.03.02-.06.03-.09.05-.42.28-.51.41-.81.81-.27.36-.37.85-.39,1.3-.01.22.02.45.09.67.06.18.13.37.23.53.07.12.22.3.31.41.01.02.02.03.04.05.18.19.38.32.62.4.23.12.48.18.74.16.27.01.51-.04.74-.16.24-.08.45-.21.62-.4l.3-.39c.18-.3.26-.62.26-.97l-.07-.51c-.09-.33-.25-.61-.5-.85h0Z"/>
    <path class="cls-23" d="m186.32,62.74s-.03-.03-.04-.05l.3.39s-.03-.04-.04-.07l.19.46s-.02-.06-.02-.09l.07.51v-.12l-.07.51s.02-.09.04-.14l-.19.46c.02-.05.05-.1.08-.15l-.3.39s.07-.07.1-.1l-.39.3s.07-.05.1-.06l-.46.19s.07-.02.12-.04l-.51.07h.1l-.51-.07s.07.01.1.03l-.46-.19s.07.04.1.06l-.39-.3s.06.05.08.08l-.3-.39s.06.09.08.14l-.19-.46c.02.05.04.1.04.16l-.07-.51c0,.06,0,.13,0,.19l.07-.51c0,.05-.02.11-.04.16l.19-.46s-.04.08-.07.12l.3-.39s-.05.06-.09.09l.39-.3s-.07.05-.12.07l.46-.19c-.05.02-.12.04-.18.05l.51-.07c-.06,0-.12,0-.18,0l.51.07c-.07-.01-.13-.03-.2-.05l.46.19c-.05-.02-.11-.05-.16-.09l.39.3s-.09-.08-.13-.13l.3.39s-.06-.09-.08-.15l.19.46c-.02-.05-.04-.12-.05-.17l.07.51c-.01-.08-.01-.15,0-.23l-.07.51c.01-.08.04-.17.07-.25l-.19.46c.03-.07.07-.14.12-.2l-.3.39c.05-.06.1-.12.16-.16l-.39.3c.05-.04.1-.07.16-.1l-.46.19c.08-.03.16-.05.24-.07l-.51.07c.08-.01.17,0,.25,0l-.51-.07c.09.01.18.04.27.07l-.46-.19c.08.04.16.08.24.14l-.39-.3c.06.05.12.1.16.16l-.3-.39c.05.06.08.13.12.2l-.19-.46c.03.07.05.13.05.21l-.07-.51c.01.08.01.16,0,.24l.07-.51c-.01.1-.04.19-.08.28l.19-.46c-.04.08-.08.16-.13.23l.3-.39c-.05.07-.12.13-.19.19l.39-.3c-.07.05-.13.09-.21.12l.46-.19c-.07.03-.13.05-.21.06l.51-.07c-.08.01-.16.01-.23,0l.51.07c-.08-.01-.15-.04-.22-.06l.46.19c-.08-.04-.16-.08-.22-.13l.39.3c-.07-.05-.13-.12-.19-.19l.3.39c-.06-.08-.11-.16-.15-.25l.19.46c-.03-.07-.05-.15-.06-.23l.07.51c0-.07,0-.14,0-.21l-.07.51c.01-.08.03-.16.07-.24l-.19.46c.03-.07.07-.13.11-.19l-.3.39c.05-.07.12-.13.19-.19l-.39.3c.07-.05.15-.1.24-.14l-.46.19c.08-.03.15-.05.24-.07l-.51.07c.07-.01.15-.01.22,0l-.51-.07c.07.01.14.03.21.05l-.46-.19c.07.03.12.06.18.1l-.39-.3c.06.05.12.1.16.16l-.3-.39c.05.07.1.14.13.22l-.19-.46c.04.08.06.18.07.27l-.07-.51c.01.08.01.15,0,.23l.07-.51c-.01.08-.03.15-.06.22l.19-.46c-.02.05-.05.11-.09.16l.3-.39c-.04.05-.09.1-.14.14l.39-.3c-.06.04-.12.08-.19.12l.46-.19c-.08.03-.16.05-.24.07l.51-.07c-.09.01-.18.01-.27,0l.51.07c-.07-.01-.15-.03-.21-.06l.46.19c-.06-.02-.12-.06-.17-.1l.39.3s-.09-.08-.13-.13l.3.39c-.04-.05-.07-.11-.1-.17l.19.46c-.02-.07-.04-.14-.05-.21l.07.51c-.01-.08,0-.16,0-.24l-.07.51c.01-.09.04-.17.07-.25l-.19.46c.03-.07.07-.13.11-.19l-.3.39s.08-.1.14-.14l-.39.3s.1-.07.15-.09l-.46.19h.02c.25-.07.47-.18.65-.35.21-.13.38-.31.5-.54.14-.22.22-.46.23-.71.05-.25.05-.51-.04-.77l-.19-.46c-.17-.29-.4-.52-.69-.69l-.46-.19c-.34-.09-.68-.09-1.02,0-.21.08-.44.15-.62.28-.17.12-.38.27-.53.44-.31.36-.54.72-.66,1.19-.05.22-.08.46-.1.69v.1c0,.2.04.41.08.61.01.07.03.13.05.19.07.19.16.45.29.63.27.37.56.73.99.92s.85.35,1.36.33.89-.13,1.36-.36c.19-.09.41-.28.54-.39.18-.15.31-.36.44-.53.13-.18.21-.41.28-.62.03-.07.05-.15.06-.22.04-.22.09-.47.07-.71s-.04-.49-.11-.72c-.16-.5-.36-.82-.7-1.2-.14-.16-.38-.32-.53-.43-.19-.14-.43-.22-.64-.3-.07-.02-.13-.04-.21-.05-.24-.04-.48-.09-.73-.07-.19.02-.48.04-.7.12s-.46.16-.66.29-.39.27-.56.43c-.02.02-.05.05-.08.08-.13.15-.26.31-.37.48-.02.03-.04.06-.05.1-.09.18-.16.37-.24.55-.08.22-.1.53-.12.73v.12c.01.2.04.41.08.61,0,.04.02.08.03.13.06.19.15.38.23.56.03.07.07.14.12.21.13.18.28.41.47.56.38.32.76.58,1.25.71s1,.13,1.47,0,.84-.36,1.2-.7c.16-.15.32-.38.43-.53.05-.07.09-.13.13-.21.22-.47.35-.84.36-1.37v-.12c-.02-.19-.04-.41-.08-.59,0-.04-.02-.07-.03-.1-.07-.19-.15-.38-.24-.56-.1-.19-.28-.41-.41-.55-.15-.17-.37-.32-.54-.44-.05-.04-.12-.08-.18-.11-.21-.1-.43-.21-.65-.27s-.47-.08-.7-.1-.48.04-.72.07c-.07.01-.14.03-.21.05-.21.08-.45.16-.65.3-.39.28-.76.59-.97,1.04s-.38.9-.35,1.4c.01.24.03.48.1.71.03.09.08.19.12.28s.07.19.12.28c.02.04.04.07.06.1.12.16.26.38.43.52.1.08.31.26.47.35.17.1.36.16.54.24.15.06.29.07.45.09.39.05.51.04.96-.04.42-.07.91-.35,1.19-.67.15-.16.3-.33.39-.53.08-.16.16-.35.22-.53.01-.04.02-.07.02-.11.07-.47.13-.91-.04-1.37-.15-.4-.19-.5-.42-.79-.21-.27-.34-.41-.67-.61-.19-.12-.41-.21-.62-.25-.15-.02-.39-.07-.53-.07h-.04c-.1,0-.23.03-.3.04-.08.01-.21.02-.3.04-.02,0-.03.01-.05.02-.14.05-.35.13-.48.2-.03.02-.06.03-.09.05-.42.28-.51.41-.81.81-.27.36-.37.85-.39,1.3-.01.22.02.45.09.67.06.18.13.37.23.53.07.12.22.3.31.41.01.02.02.03.04.05.18.19.38.32.62.4.23.12.48.18.74.16.27.01.51-.04.74-.16.24-.08.45-.21.62-.4l.3-.39c.18-.3.26-.62.26-.97l-.07-.51c-.09-.33-.25-.61-.5-.85h0Z"/>
    <line class="cls-9" x1="285.88" y1="66.82" x2="285.88" y2="84"/>
    <line class="cls-9" x1="387.07" y1="66.82" x2="387.07" y2="84"/>
    <line class="cls-9" x1="185.43" y1="66.82" x2="185.43" y2="84"/>
  </g>
</svg>