<?xml version="1.0" encoding="UTF-8"?>
<svg id="Calque_1" data-name="Calque 1" xmlns="http://www.w3.org/2000/svg" viewBox="0 0 128 128">
  <defs>
    <style>
      .cls-1 {
        stroke-dasharray: 0 0 1.02 1.02;
      }

      .cls-1, .cls-2, .cls-3, .cls-4, .cls-5, .cls-6, .cls-7 {
        stroke: #000;
      }

      .cls-1, .cls-3, .cls-8, .cls-4 {
        fill: none;
      }

      .cls-1, .cls-3, .cls-4 {
        stroke-miterlimit: 10;
      }

      .cls-2 {
        fill: #fab0b4;
      }

      .cls-2, .cls-8, .cls-5, .cls-6, .cls-7 {
        stroke-linecap: round;
        stroke-linejoin: round;
      }

      .cls-2, .cls-5, .cls-6, .cls-7 {
        stroke-width: .75px;
      }

      .cls-3 {
        stroke-width: 2px;
      }

      .cls-8 {
        stroke: #fff;
        stroke-width: 8px;
      }

      .cls-5 {
        fill: #ff6d75;
      }

      .cls-6 {
        fill: #fffefb;
      }

      .cls-7 {
        fill: #e5e2da;
      }
    </style>
  </defs>
  <g>
    <path class="cls-6" d="m33.69,51.28s10.49,1.27,14.79-4.59c-.21,2.17-.89,7.01-.89,7.01,0,0,.98-1.91-2.08-1.57-3.06.34-9.13,1.23-13.51,4.55-.34-1.57.51-3.99,1.7-5.4Z"/>
    <path class="cls-7" d="m31.89,56.93l-.05-.23c-.33-1.53.44-4.01,1.73-5.52l.05-.06h.08s.97.12,2.41.12c3.3,0,9.28-.6,12.24-4.65l.32-.44-.05.54c-.15,1.57-.55,4.5-.77,6.12.1.46-.13.92-.14.94l-.4.79.24-1.71c-.15-.51-.85-.7-2.04-.57-5.89.66-10.29,2.13-13.44,4.52l-.18.14Zm1.86-5.5c-1.14,1.38-1.85,3.54-1.66,4.98,3.18-2.33,7.56-3.78,13.39-4.43.25-.03.48-.04.69-.04.78,0,1.21.2,1.44.44.2-1.49.5-3.71.66-5.19-3.13,3.78-8.91,4.36-12.16,4.36-1.22,0-2.1-.08-2.36-.11Z"/>
  </g>
  <g>
    <path class="cls-6" d="m98.33,51.28s-10.49,1.27-14.79-4.59c.21,2.17.89,7.01.89,7.01,0,0-.98-1.91,2.08-1.57,3.06.34,9.13,1.23,13.51,4.55.34-1.57-.51-3.99-1.7-5.4Z"/>
    <path class="cls-7" d="m100.13,56.93l-.19-.14c-3.15-2.38-7.54-3.86-13.44-4.52-1.19-.13-1.89.07-2.03.57l.24,1.71-.4-.79s-.24-.48-.14-.94c-.22-1.63-.62-4.56-.77-6.12l-.05-.54.32.44c2.96,4.04,8.94,4.65,12.24,4.65,1.44,0,2.4-.11,2.41-.11h.08s.05.05.05.05c1.29,1.52,2.06,3.99,1.73,5.52l-.05.23Zm-14.28-4.99c.21,0,.44.01.69.04,5.83.65,10.21,2.1,13.39,4.43.19-1.44-.52-3.59-1.66-4.98-.26.03-1.15.11-2.36.11-3.24,0-9.03-.58-12.16-4.36.17,1.48.46,3.7.66,5.19.24-.24.67-.44,1.45-.44Z"/>
  </g>
  <path class="cls-5" d="m35.02,23.17c-2.85-.19-3.49-.71-6.66-3.29l-.38-.31c-1.83-1.34-3.71-2.03-5.6-2.03-2.22,0-4.39,1.02-5.79,2.72-1.51,1.84-1.81,1.99-2.92,2.54-.39.2-.88.44-1.56.83l-.48.27c-2.32,1.32-3.86,2.19-4.78,5.3-1.24,4.88-.27,8.6,3.59,13.72,2.31,3.07,2.2,6.31,1.71,8.48,0,.01,0,.02,0,.03,0,.52.05,2.34,1.16,3.73.61.77.85.87.99.87.08,0,.16-.04.2-.11.18-.3-.24-1.16-.33-1.33-.19-.37-.29-.85-.35-1.3.29.78.75,1.74,1.39,2.24.43.31.69.34.82.13.13-.2.05-.62-.23-1.24-.14-.32-.27-.86-.37-1.4.33.58.85,1.1,1.63,1.1.25,0,.53-.06.81-.17.29-.12.3-.55.32-1.26.04-1.67.11-4.78,3.92-6.89,2.13-1.1,3.42-1.67,4.27-2.04.82-.36,1.2-.52,1.47-.8.17-.17.34-.36.26-.56-.1-.24-.47-.34-2.21-.36-.03-.05-.09-.08-.15-.07-1.78.26-3.95.22-6.34-.1-2.74-.53-4.83-1.92-6.04-4.02-1.29-2.24-1.47-5.14-.49-7.97,1.45-4.13,7.36-6.52,10.89-6.59,2.02-.05,2.58.59,3.42,1.56l.14.16c.71.81,1.42,1.47,2.96,1.47.61,0,1.32-.11,2.16-.32.64-.16,1.29-.25,1.94-.28-.02-.95.2-1.91.66-2.73Z"/>
  <path class="cls-5" d="m90.28,25.79c-.53.87-1.01,2.08-1.47,3.83-1.57,5.86-2.04,7.63-6.26,10.38-4.86,3-10.22,4.52-15.92,4.52-3.72,0-7.6-.66-11.52-1.97-9.64-3.21-10.55-8.48-11.16-11.97-.12-.67-.22-1.3-.38-1.83-.05-.16-.09-.31-.14-.46-.53,1.06-1.44,1.92-2.71,2.3.08.42.15.85.22,1.3.48,3.09,1.02,6.59,6.21,9.19,6.14,3.11,9.13,4.87,10.22,11.01.22,1.26.36,2.28.49,3.19.5,3.56.68,4.9,4.22,8.67,3.19,3.1,3.5,5.4,2.81,6.42l-.09.11c-.96,1.16-1.05,1.37-.02,3.02.86,1.39.64,1.74.23,2.36-.06.09-.12.19-.19.3-.52.89-.57,1.28.05,2.51.52,1.05.32,1.5.01,2.19l-.07.15c-.35.8-.27.97.15,1.67l.06.1q.37.62.14.96l-.04.06c-.35.53-.26.84.04,1.43.28.56.22.85,0,1.3-.15.3-.11.48-.04.79.06.27.15.68.18,1.46.02.76-.08,1.8-.68,2.42-.42.43-1.03.59-1.82.49-1.83-.25-3.01-1.77-3.83-4.93-.24-.95-.66-2.07-1.24-2.07-.46,0-.77.69-.88,1.95-.2,2.38-.35,4.27,1.53,6,1.34,1.23.98,1.81.58,2.49-.12.19-.24.39-.32.61-.29.79.03,1.11.52,1.59.16.16.35.35.55.58.68.81.46,1.52.26,2.15l-.04.13c-.2.64.09.89.73,1.44.12.1.25.22.39.35.85.76,1.04,1.39.75,2.47-.31,1.13-.26,1.41.42,2.35l.1.14c.57.79.71.97-.03,1.59-.44.36-.61.61-.61.84,0,.26.21.44.51.68l.1.09c.32.27.69.74.69,1.2,0,.25-.12.47-.34.65-.53.43-.78.65-.79.92-.01.21.13.38.29.54.2.2.3.36.28.48-.01.1-.11.21-.31.32-.28.17-.44.29-.47.47-.03.17.09.33.24.5.14.17.25.42-.16.89-.05.06-.05.14,0,.19.03.04.07.05.11.05.03,0,.05,0,.08-.02.83-.5,2.69-1.01,4.65-1.01,1.47,0,2.77.28,3.84.81l.06.04s.06.03.09.03c.08,0,.15-.07.15-.15,0-.03,0-.05-.02-.07-.05-.22-.05-.43,0-.62.14-.52-.18-.78-.41-.97-.28-.23-.43-.35-.11-.81.29-.41.4-.7.34-.94-.06-.24-.26-.38-.47-.53-.12-.09-.25-.18-.38-.3-.18-.18-.26-.38-.24-.6.03-.35.3-.72.77-1.05.39-.27.58-.53.59-.79.02-.35-.27-.67-.73-1.07-.53-.46-.28-.85.25-1.55.06-.07.11-.15.17-.23.6-.82.41-1.85.17-2.65-.22-.76-.08-1,.86-1.98.97-1.02,1.24-1.36.97-2.46-.23-.96-.09-1.16.84-1.98,1.2-1.05.99-1.43.37-2.58l-.04-.07c-.58-1.07-.39-1.24.71-2.19,1.16-1,1.63-3.14,1.28-5.86-.17-1.36-.46-2.02-.9-2.02-.48,0-.82.84-1.02,1.55-.08.26-.14.57-.21.89-.4,1.87-.95,4.42-4.23,4.58-.74-.04-1.29-.31-1.64-.8-.64-.89-.54-2.36-.26-3.36.18-.64.05-1-.07-1.31-.12-.31-.22-.58.01-1.14.37-.89.27-1.08.07-1.35-.06-.08-.12-.16-.17-.29-.09-.25,0-.38.16-.62.12-.17.27-.39.38-.71.1-.31,0-.64-.11-1.02-.2-.65-.44-1.46.11-2.68.48-1.23.15-1.92-.16-2.59-.12-.25-.24-.52-.32-.81-.18-.66.25-1.2.62-1.68.19-.24.37-.47.46-.7.28-.72.28-1.07-.72-2.27-.89-1.07-.51-2.55,1.29-4.95.42-.57.93-1.07,1.47-1.61,1.73-1.73,3.69-3.69,4.31-8.73.79-6.42,1.12-9.08,9.7-13.52,5.16-2.95,5.78-3.49,7.18-10.02.15-.69.33-1.29.52-1.85-1.19-.93-1.8-2.42-1.83-3.93Z"/>
  <path class="cls-5" d="m123.57,25.85c-1.08-1.05-2.48-1.76-3.72-2.38-.76-.39-1.48-.75-2.03-1.14-.42-.31-.86-.78-1.36-1.33-1.16-1.25-2.59-2.82-4.78-3.24-3.09-.6-6.15.43-8.68,2.9-1.35,1.33-2.48,1.95-3.79,2.3.56.97.78,2.15.67,3.28.76.14,1.49.26,2.16.26,1.48,0,2.58-.62,3.56-1.98.68-.71,1.94-1.12,3.44-1.12,2.99,0,6.22,1.47,8.64,3.93,3.98,4.05,2.47,8.42.5,11.37-1.43,2.14-4.65,3.32-9.05,3.32-.95,0-1.94-.06-2.94-.17-.08,0-.15.04-.16.12,0,.02,0,.05,0,.07-.27,0-.49,0-.68,0-.59,0-.92,0-1.05.29-.05.11-.04.23.02.34.29.53,1.88.89,4.18,1.27,2.93.49,6.47,3.19,7.28,7.94.07.85.3,1.28.68,1.28.31,0,.6-.32.82-.65-.11.71-.37,1.37-.58,1.89-.24.61-.39,1.02-.28,1.27.04.09.11.15.2.19.05.02.11.03.17.03.58,0,1.3-1.08,1.83-2.37-.13.46-.31.88-.47,1.24-.23.51-.38.85-.27,1.08.03.06.1.15.25.18.03,0,.06,0,.09,0,.82,0,1.94-2.71,2.15-4.65,0-.02,0-.04,0-.06-1.45-4.19.52-6.94,1.83-8.76.33-.46.69-.88,1.04-1.29,1.13-1.31,2.3-2.67,2.83-5.74.7-4.04-.77-8.02-2.51-9.71Z"/>
  <path class="cls-2" d="m34.36,25.6c-.67.04-1.35.12-2.01.29-.81.21-1.5.31-2.08.31-1.42,0-2.05-.59-2.73-1.37l-.14-.16c-.86-1-1.48-1.71-3.65-1.66-1.98.04-4.4.74-6.46,1.88-2.38,1.31-4.05,3.05-4.7,4.91-1.01,2.9-.82,5.89.51,8.21,1.25,2.18,3.42,3.62,6.25,4.16,2.44.33,4.61.36,6.44.1,1.97-.44,3.37-1.47,3.33-1.91-.01-.12-.13-.25-.41-.19h-.04s-2.33,1.16-5.59,1.16c-1.75,0-3.46-.32-5.09-.96-2.26-1.02-3.92-2.87-4.56-5.06-.65-2.25-.21-4.71,1.24-6.91,2.18-2.66,5.63-4.52,8.39-4.52,1.5,0,2.71.52,3.6,1.54,1.24,1.17,2.34,1.69,3.59,1.69.87,0,1.71-.25,2.72-.58.41-.13.9-.2,1.41-.21-.02-.24-.03-.48-.02-.73Z"/>
  <path class="cls-2" d="m65.42,85.1c-.29-.59-.3-.77-.06-1.14l.04-.06c.31-.46.29-.56-.14-1.28l-.06-.1c-.39-.64-.43-.71-.13-1.4l.07-.15c.32-.71.57-1.27-.02-2.45-.57-1.14-.52-1.44-.05-2.23.06-.11.12-.2.18-.29.46-.72.68-1.2-.23-2.68-.95-1.54-.89-1.6,0-2.68l.09-.12c.8-1.17.48-3.58-2.83-6.8-3.47-3.7-3.63-4.91-4.14-8.51-.13-.91-.27-1.94-.49-3.2-1.11-6.27-4.15-8.07-10.38-11.22-5.04-2.52-5.58-5.95-6.05-8.97-.07-.46-.14-.92-.23-1.35-.35.13-.72.22-1.13.27.08.51.15,1.03.21,1.54.4,3.24.78,6.29,4.52,8.02,3.71,2.1,4.16,3.9,3.72,6.9-.04.25-.08.54-.14.88-.56,3.67-1.87,12.26-.23,16.31.77,1.88,2.04,3.49,3.39,5.19,1.75,2.22,3.57,4.51,4.16,7.44.22,1.7-.05,3.92-.35,6.27-.39,3.15-.8,6.4-.09,8.94.66,2.35,1.53,4.47,2.37,6.51.94,2.28,1.83,4.43,2.22,6.51.66,3.5.85,7.13.52,9.73-.14,1.06-.11,1.62.1,1.85.08.09.19.14.32.14s.29-.07.49-.17v.02s.24-.16.24-.16l.06-.04h0c.11-.08.22-.16.35-.25.04-.03.09-.06.15-.1l.03-.03c.16-.18.26-.35.32-.53h0s0,0,0,0c0,0,0,0,0,0,.02-.09.02-.16.01-.23,0-.18-.04-.35-.18-.5-.04-.05-.17-.2-.17-.26,0-.05.12-.13.33-.26.28-.17.42-.34.44-.54.03-.22-.09-.45-.37-.73-.14-.14-.21-.24-.2-.31,0-.15.32-.41.69-.7.29-.24.45-.53.45-.88,0-.56-.41-1.1-.79-1.43l-.11-.09c-.24-.19-.4-.33-.4-.45s.16-.33.51-.61c.95-.79.64-1.21.08-1.99l-.1-.14c-.62-.86-.66-1.05-.37-2.1.33-1.2.11-1.92-.84-2.77-.15-.13-.28-.25-.4-.35-.66-.57-.78-.69-.64-1.12l.04-.13c.2-.63.47-1.49-.32-2.43-.21-.25-.4-.44-.57-.6-.48-.47-.67-.67-.45-1.28.07-.19.18-.37.29-.56.41-.68.89-1.46-.63-2.86-1.78-1.63-1.64-3.36-1.44-5.76.1-1.15.37-1.68.58-1.68.18,0,.58.39.95,1.85.53,2.04,1.53,4.8,4.07,5.15.17.02.34.04.49.04.66,0,1.19-.21,1.58-.61.68-.7.79-1.82.77-2.64-.02-.8-.12-1.23-.18-1.51-.06-.28-.09-.38.02-.59.25-.51.33-.91,0-1.56Z"/>
  <path class="cls-2" d="m91.86,29.51c-.21.58-.4,1.23-.57,1.99-1.29,5.97-1.61,6.73-7.04,9.83-8.72,4.51-9.05,7.21-9.86,13.74-.61,4.94-2.53,6.86-4.23,8.56-.54.54-1.06,1.06-1.5,1.64-1.9,2.53-2.28,4.12-1.28,5.32.98,1.17.88,1.41.67,1.98-.07.19-.24.4-.41.62-.4.5-.9,1.13-.68,1.94.09.32.22.59.34.86.32.67.59,1.24.16,2.35-.59,1.31-.32,2.22-.12,2.88.1.35.19.62.11.84-.09.28-.23.47-.34.64-.18.26-.35.5-.2.89.06.17.14.28.21.37.13.18.21.28-.11,1.05-.28.67-.15,1.02-.02,1.36.11.3.22.58.06,1.13-.29,1.06-.39,2.64.3,3.61.41.57,1.03.88,1.88.92,3.52-.17,4.12-2.97,4.52-4.82.07-.32.13-.62.2-.87.27-.92.57-1.34.74-1.34.04,0,.39.05.61,1.76.33,2.58-.12,4.67-1.2,5.61-1.09.94-1.45,1.25-.76,2.54l.04.07c.61,1.12.72,1.32-.3,2.21-.99.86-1.2,1.17-.94,2.27.23.95.04,1.2-.9,2.18-.92.97-1.2,1.32-.92,2.27.22.74.4,1.68-.12,2.39-.06.08-.11.15-.17.23-.47.63-.97,1.28-.2,1.95.38.33.64.6.62.83,0,.17-.16.35-.46.57-.54.38-.85.83-.89,1.26-.03.31.09.6.33.84.14.14.28.24.41.34.18.13.32.23.35.36.04.15-.06.37-.29.7-.48.68-.12.99.16,1.21.25.21.4.35.31.67-.07.25-.06.53,0,.81l.02.05.03.02h0s.02.02.02.02l.26.19h0c.14.1.28.19.4.26h0s.07.04.07.04l.24.14v-.03c.2.1.38.16.52.16.15,0,.27-.05.36-.15.22-.25.18-.77.1-1.41-.11-.88-.98-8.8,2.44-16.07,2.55-6.33,3.6-8.95,2.3-16.23-.98-6.63,1.27-9.6,3.66-12.75.22-.29.44-.58.66-.87,2.67-3.59,4.26-6.16,3.49-13.54-.09-.71-.19-1.41-.28-2.08-.88-6.44-1.46-10.7,2.47-12.88,4.04-2.17,4.63-3.44,5.21-7.52.17-1.22.42-2.26.74-3.14-.47-.2-.88-.46-1.23-.78Z"/>
  <path class="cls-2" d="m117.92,27.13c-2.48-2.52-5.79-4.02-8.86-4.02-1.61,0-2.91.43-3.67,1.22-.94,1.31-1.94,1.87-3.33,1.87-.66,0-1.38-.12-2.14-.27-.01.25-.04.51-.08.76,1.18.21,2.06.35,2.77.35,1.45,0,2.24-.58,4.01-2.42.66-.48,1.48-.72,2.43-.72,2.33,0,4.92,1.44,6.58,2.79,3.14,2.56,4.38,5.23,3.7,7.95-.61,2.42-3.32,6.53-9.66,6.53-1.79,0-3.76-.34-5.86-1h-.04s-.04,0-.04,0c-.3.07-.35.24-.35.34,0,.51,1.29,1.27,2.8,1.64,1.01.11,2.01.17,2.97.17,4.51,0,7.81-1.23,9.3-3.46,2.03-3.04,3.58-7.55-.54-11.74Z"/>
  <g>
    <path class="cls-6" d="m113,45.08s-1.11-1.97-4.54-1.39c-1.14-1.13-5.09-1.3-6.23,1.52-2.27.69-2.22,3.51-2.22,3.51-1.73.74-1.38,2.96-.89,3.9-.64,1.18.49,2.62,1.09,3.01,0,0,.05,2.91,3.56,2.62,1.48,1.23,3.85.64,4.79-.64,1.14.99,3.9.45,4.79-.94,1.58.3,4.74-2.91,2.17-6.57.74-1.78-.29-4.56-2.52-5.02Z"/>
    <path class="cls-7" d="m105.74,59.08c-.77,0-1.47-.23-2.01-.67-.15.01-.3.02-.44.02-2.84,0-3.17-2.26-3.21-2.71-.62-.46-1.7-1.87-1.11-3.09-.34-.69-.55-1.82-.22-2.74.2-.57.58-.99,1.13-1.25.02-.51.22-2.86,2.26-3.53.62-1.45,2.07-2.31,3.91-2.31,1.02,0,1.96.29,2.48.76.4-.06.79-.1,1.16-.1,2.29,0,3.23,1.22,3.42,1.51.97.22,1.78.88,2.3,1.86.56,1.06.67,2.3.29,3.28,1.46,2.13.93,3.91.47,4.78-.59,1.15-1.69,1.98-2.6,1.98h0s-.1,0-.14,0c-.6.85-1.9,1.43-3.22,1.43-.65,0-1.22-.16-1.62-.44-.63.77-1.73,1.26-2.85,1.26Zm-1.92-.98l.05.04c.51.42,1.15.64,1.87.64,1.07,0,2.15-.51,2.7-1.26l.09-.13.12.11c.35.3.9.47,1.55.47,1.24,0,2.51-.58,3.02-1.37l.05-.08.1.02c.06.01.12.01.19.01h0c.68,0,1.73-.64,2.34-1.82.43-.82.93-2.51-.5-4.54l-.05-.07.03-.08c.38-.91.28-2.1-.25-3.1-.49-.92-1.25-1.53-2.16-1.72h-.06s-.04-.07-.04-.07c-.03-.06-.84-1.42-3.2-1.42-.38,0-.78.04-1.19.11h-.08s-.05-.04-.05-.04c-.44-.44-1.35-.72-2.32-.72-.65,0-2.84.16-3.66,2.19l-.03.06-.07.02c-2.14.65-2.12,3.33-2.12,3.36v.1s-.09.04-.09.04c-.51.22-.87.6-1.05,1.12-.33.93-.04,2.05.24,2.58l.04.07-.04.07c-.59,1.1.5,2.46,1.04,2.82l.06.04v.08c0,.1.09,2.49,2.93,2.49.15,0,.31,0,.47-.02h.06Z"/>
  </g>
  <g>
    <path class="cls-6" d="m19.36,45.08s1.11-1.97,4.54-1.39c1.13-1.13,5.09-1.3,6.23,1.52,2.27.69,2.22,3.51,2.22,3.51,1.73.74,1.38,2.96.89,3.9.64,1.18-.49,2.62-1.09,3.01,0,0-.05,2.91-3.56,2.62-1.48,1.23-3.85.64-4.79-.64-1.14.99-3.9.45-4.79-.94-1.58.3-4.74-2.91-2.17-6.57-.74-1.78.29-4.56,2.52-5.02Z"/>
    <path class="cls-7" d="m26.63,59.08c-1.12,0-2.22-.49-2.85-1.26-.4.29-.97.44-1.62.44-1.31,0-2.62-.59-3.22-1.43-.92.1-2.12-.76-2.74-1.97-.45-.87-.99-2.65.47-4.78-.38-.97-.26-2.22.29-3.28.52-.98,1.33-1.64,2.3-1.86.19-.29,1.13-1.51,3.42-1.51.37,0,.76.03,1.16.1.52-.47,1.45-.76,2.48-.76,1.84,0,3.29.86,3.91,2.31,2.04.67,2.24,3.02,2.26,3.53.55.26.92.68,1.13,1.25.32.92.12,2.05-.22,2.74.59,1.22-.49,2.63-1.11,3.09-.04.45-.38,2.71-3.21,2.71-.14,0-.29,0-.44-.02-.55.44-1.25.67-2.01.67Zm-2.8-1.69l.09.13c.55.75,1.64,1.26,2.7,1.26.72,0,1.37-.22,1.87-.64l.05-.04h.06c.16.02.32.03.47.03,2.84,0,2.92-2.39,2.92-2.49v-.08l.06-.04c.54-.36,1.63-1.72,1.04-2.82l-.04-.07.04-.07c.28-.53.57-1.65.24-2.58-.18-.52-.54-.9-1.05-1.12l-.09-.04v-.1s.02-2.71-2.11-3.36l-.07-.02-.03-.06c-.82-2.04-3.01-2.19-3.66-2.19-.97,0-1.88.28-2.33.72l-.05.06h-.07c-.41-.08-.81-.12-1.19-.12-2.37,0-3.19,1.4-3.2,1.42l-.03.06h-.06c-.91.2-1.67.81-2.16,1.73-.53,1.01-.63,2.2-.25,3.1l.03.08-.05.07c-1.43,2.03-.92,3.72-.5,4.54.61,1.18,1.66,1.82,2.34,1.82.06,0,.12,0,.18-.01l.1-.02.05.08c.51.8,1.78,1.37,3.02,1.37.65,0,1.2-.16,1.55-.47l.12-.11Z"/>
  </g>
  <line class="cls-3" x1="35.02" y1="20.7" x2="33.2" y2="28.6"/>
  <line class="cls-3" x1="99.04" y1="20.63" x2="100.01" y2="28.67"/>
  <line class="cls-3" x1="89.58" y1="25.28" x2="94.01" y2="32.07"/>
  <line class="cls-3" x1="38.27" y1="32.05" x2="44.89" y2="27.37"/>
  <g>
    <line class="cls-4" x1="42.9" y1="14.72" x2="42.68" y2="15.17"/>
    <line class="cls-1" x1="42.24" y1="16.1" x2="32.66" y2="35.94"/>
    <line class="cls-4" x1="32.44" y1="36.4" x2="32.22" y2="36.85"/>
  </g>
  <g>
    <line class="cls-4" x1="88.68" y1="14.72" x2="88.89" y2="15.17"/>
    <line class="cls-1" x1="89.34" y1="16.1" x2="98.91" y2="35.94"/>
    <line class="cls-4" x1="99.13" y1="36.4" x2="99.35" y2="36.85"/>
  </g>
  <rect class="cls-8" x="-825.66" y="-3004.76" width="6467.34" height="6437.3"/>
</svg>