<?xml version="1.0" encoding="UTF-8"?>
<svg id="Calque_1" data-name="Calque 1" xmlns="http://www.w3.org/2000/svg" viewBox="0 0 128 128">
  <defs>
    <style>
      .cls-1 {
        fill: #87f3b9;
      }

      .cls-1, .cls-2, .cls-3, .cls-4, .cls-5, .cls-6 {
        stroke-linecap: round;
        stroke-linejoin: round;
      }

      .cls-1, .cls-2, .cls-3, .cls-4, .cls-6 {
        stroke: #000;
        stroke-width: 2px;
      }

      .cls-2 {
        fill: #b2f0e9;
      }

      .cls-3 {
        fill: #fff;
      }

      .cls-4, .cls-5, .cls-6 {
        fill: none;
      }

      .cls-5 {
        stroke: #fff;
        stroke-width: 8px;
      }

      .cls-6 {
        stroke-dasharray: 0 0 9.78 9.78;
      }
    </style>
  </defs>
  <path class="cls-1" d="m86.24,63.95c0,4.54-4.34,8.23-9.67,8.23h-24.45c-5.33,0-9.67-3.69-9.67-8.23s4.13-8.03,9.28-8.2l3.35.04,20.86.22,3.18.03c4.08.97,7.11,4.12,7.11,7.92Z"/>
  <path class="cls-2" d="m109.6,38.3l-9.78,2.44c-.16.04-.3.06-.46.06H29.33c-.16,0-.31-.03-.46-.06l-9.78-2.44h-10.4v61.27h10.19l9.61-4.8c.26-.13.55-.2.84-.2h70.03c.29,0,.58.07.83.2l9.62,4.8h10.18v-61.27h-10.39Zm-30.25,37.52h-30.02c-6.54,0-11.88-5.33-11.88-11.88s5.08-11.58,11.39-11.83l33.65.42c5.01,1.39,8.74,5.95,8.74,11.41,0,6.54-5.33,11.88-11.88,11.88Z"/>
  <path class="cls-2" d="m82.5,52.52l-33.65-.42c-6.32.26-11.39,5.44-11.39,11.83s5.33,11.88,11.88,11.88h30.02c6.55,0,11.88-5.33,11.88-11.88,0-5.46-3.72-10.02-8.74-11.41Zm-5.93,19.65h-24.45c-5.33,0-9.67-3.69-9.67-8.23s4.13-8.03,9.28-8.2l3.35.04,20.86.22,3.18.03c4.08.97,7.11,4.12,7.11,7.92,0,4.54-4.34,8.23-9.67,8.23Z"/>
  <g>
    <line class="cls-4" x1="29.08" y1="46.19" x2="29.08" y2="52.19"/>
    <line class="cls-6" x1="29.08" y1="61.97" x2="29.08" y2="76.64"/>
    <line class="cls-4" x1="29.08" y1="81.53" x2="29.08" y2="87.53"/>
  </g>
  <g>
    <line class="cls-4" x1="99.6" y1="46.19" x2="99.6" y2="52.19"/>
    <line class="cls-6" x1="99.6" y1="61.97" x2="99.6" y2="76.64"/>
    <line class="cls-4" x1="99.6" y1="81.53" x2="99.6" y2="87.53"/>
  </g>
  <path class="cls-3" d="m77.03,63.21c0,2.56-2.45,4.66-5.47,4.66h-13.81c-3.01,0-5.47-2.09-5.47-4.66s2.34-4.54,5.24-4.64l1.9.02,11.79.13,1.8.02c2.31.55,4.02,2.33,4.02,4.47Z"/>
  <g>
    <path class="cls-3" d="m73.79,34.45c1.12-9.96,1.01-14.33-6.53-22.82-.33-.37-.91-.37-1.24,0-4.71,5.29-12.23,10.86-15.94,13.48-.37.26-.45.76-.21,1.13l3.53,5.29,1.06,1.64c.36.55-.04,1.28-.69,1.28h-9.51c-.65,0-1.05.71-.71,1.26.47.76.98,1.59,1.52,2.49.36.6.72,1.23,1.1,1.88.36.6.71,1.23,1.07,1.88,1.96,3.46,4.02,7.42,5.68,11.25.28.63.53,1.26.78,1.88.26.63.49,1.26.71,1.88.71,1.97,1.26,3.86,1.55,5.56.07.4.4.69.81.69h16.38c.24,0,.47-.1.63-.28,1.48-1.7,2.65-3.73,3.6-5.97.26-.61.49-1.24.71-1.88.22-.61.42-1.24.61-1.88,1.05-3.57,1.65-7.44,1.96-11.25.05-.63.1-1.26.14-1.88.04-.63.06-1.26.07-1.88.18-5.07-.07-9.77-.36-13.07-.06-.64-.78-.97-1.3-.6-1.4,1-2.94,1.99-4.93,2.37"/>
    <path class="cls-3" d="m49.87,26.24s8.58,11.9,11.99,19.39"/>
  </g>
  <rect class="cls-5" x="-5643.54" y="-681.97" width="6562.35" height="1176.7"/>
</svg>