<?xml version="1.0" encoding="UTF-8"?>
<svg id="Calque_1" data-name="Calque 1" xmlns="http://www.w3.org/2000/svg" viewBox="0 0 200 128">
  <defs>
    <style>
      .cls-1, .cls-2, .cls-3, .cls-4, .cls-5, .cls-6, .cls-7 {
        stroke: #000;
      }

      .cls-1, .cls-2, .cls-3, .cls-4, .cls-5, .cls-6, .cls-8 {
        stroke-linecap: round;
        stroke-linejoin: round;
      }

      .cls-1, .cls-7, .cls-9 {
        fill: #87ccf3;
      }

      .cls-2 {
        fill: #b4eac3;
      }

      .cls-3 {
        fill: #f3d587;
      }

      .cls-4 {
        fill: #fff;
      }

      .cls-5, .cls-8 {
        fill: none;
      }

      .cls-6 {
        fill: #fab0b4;
      }

      .cls-7 {
        opacity: .53;
        stroke-miterlimit: 10;
      }

      .cls-8 {
        stroke: #fff;
        stroke-width: 8px;
      }

      .cls-9 {
        opacity: .6;
      }
    </style>
  </defs>
  <g>
    <rect class="cls-3" x="14.54" y="80.87" width="76.32" height="5.9"/>
    <rect class="cls-5" x="14.61" y="56.89" width="76.25" height="29.42"/>
    <rect class="cls-4" x="14.61" y="56.89" width="76.25" height="4.03"/>
    <rect class="cls-4" x="90.86" y="54.39" width="3.92" height="48.88" transform="translate(185.64 157.67) rotate(180)"/>
    <rect class="cls-4" x="14.61" y="86.32" width="76.25" height="9.47"/>
    <circle class="cls-4" cx="92.82" cy="51.58" r="3.24"/>
    <rect class="cls-4" x="10.62" y="54.39" width="3.92" height="48.88" transform="translate(25.16 157.67) rotate(180)"/>
    <g>
      <rect class="cls-4" x="19.08" y="60.92" width="3.19" height="25.39" transform="translate(41.34 147.24) rotate(180)"/>
      <rect class="cls-4" x="28.24" y="60.92" width="3.19" height="25.39" transform="translate(59.67 147.24) rotate(180)"/>
      <rect class="cls-4" x="37.4" y="60.92" width="3.19" height="25.39" transform="translate(77.99 147.24) rotate(180)"/>
      <rect class="cls-4" x="46.56" y="60.92" width="3.19" height="25.39" transform="translate(96.31 147.24) rotate(180)"/>
      <rect class="cls-4" x="55.72" y="60.92" width="3.19" height="25.39" transform="translate(114.63 147.24) rotate(180)"/>
      <rect class="cls-4" x="64.88" y="60.92" width="3.19" height="25.39" transform="translate(132.96 147.24) rotate(180)"/>
      <rect class="cls-4" x="74.04" y="60.92" width="3.19" height="25.39" transform="translate(151.28 147.24) rotate(180)"/>
      <rect class="cls-4" x="83.21" y="60.92" width="3.19" height="25.39" transform="translate(169.6 147.24) rotate(180)"/>
    </g>
    <circle class="cls-4" cx="12.58" cy="51.58" r="3.24"/>
    <polyline class="cls-5" points="12.58 48.34 12.58 29.78 28.91 29.78 28.91 35.37 18.75 41.3"/>
    <polyline class="cls-5" points="28.96 29.78 28.96 35.37 39.13 41.3"/>
    <line class="cls-5" x1="28.91" y1="35.37" x2="28.91" y2="40.71"/>
    <rect class="cls-1" x="27.4" y="40.83" width="3.03" height="3.03" transform="translate(38.41 -8.04) rotate(45)"/>
    <rect class="cls-2" x="17.21" y="40.83" width="3.03" height="3.03" transform="translate(61.07 23.62) rotate(90)"/>
    <rect class="cls-6" x="37.34" y="40.91" width="3.58" height="3.58" rx="1.75" ry="1.75" transform="translate(41.66 -15.16) rotate(45)"/>
  </g>
  <rect class="cls-3" x="108.04" y="80.87" width="76.32" height="5.9"/>
  <rect class="cls-5" x="108.11" y="56.89" width="76.25" height="29.42"/>
  <rect class="cls-4" x="108.11" y="56.89" width="76.25" height="4.03"/>
  <rect class="cls-4" x="184.36" y="54.39" width="3.92" height="48.88" transform="translate(372.64 157.67) rotate(180)"/>
  <rect class="cls-4" x="108.11" y="86.32" width="76.25" height="9.47"/>
  <circle class="cls-4" cx="186.32" cy="51.58" r="3.24"/>
  <rect class="cls-4" x="104.12" y="54.39" width="3.92" height="48.88" transform="translate(212.17 157.67) rotate(180)"/>
  <circle class="cls-4" cx="106.08" cy="51.58" r="3.24"/>
  <polyline class="cls-5" points="106.08 48.34 106.08 29.78 122.41 29.78 122.41 35.37 112.25 41.3"/>
  <polyline class="cls-5" points="122.47 29.78 122.47 35.37 132.63 41.3"/>
  <line class="cls-5" x1="122.41" y1="35.37" x2="122.41" y2="40.71"/>
  <rect class="cls-1" x="120.9" y="40.83" width="3.03" height="3.03" transform="translate(65.8 -74.16) rotate(45)"/>
  <rect class="cls-2" x="110.71" y="40.83" width="3.03" height="3.03" transform="translate(154.57 -69.88) rotate(90)"/>
  <rect class="cls-6" x="130.84" y="40.91" width="3.58" height="3.58" rx="1.75" ry="1.75" transform="translate(69.04 -81.28) rotate(45)"/>
  <rect class="cls-7" x="108.04" y="60.98" width="76.32" height="25.34"/>
  <polygon class="cls-9" points="108.66 61.47 108.65 85.67 146.26 61.47 108.66 61.47"/>
  <rect class="cls-8" x="-5973.3" y="-5317" width="6467.34" height="6437.3"/>
</svg>