<?xml version="1.0" encoding="UTF-8"?>
<svg id="Calque_1" data-name="Calque 1" xmlns="http://www.w3.org/2000/svg" xmlns:xlink="http://www.w3.org/1999/xlink" viewBox="0 0 200 128">
  <defs>
    <style>
      .cls-1, .cls-2, .cls-3, .cls-4, .cls-5, .cls-6, .cls-7 {
        fill: none;
      }

      .cls-8 {
        fill: #76ac75;
      }

      .cls-8, .cls-9, .cls-10, .cls-11, .cls-12, .cls-13, .cls-14, .cls-2, .cls-15, .cls-4, .cls-16, .cls-6, .cls-7, .cls-17, .cls-18 {
        stroke: #000;
      }

      .cls-8, .cls-9, .cls-10, .cls-11, .cls-12, .cls-13, .cls-14, .cls-2, .cls-5, .cls-18 {
        stroke-linecap: round;
        stroke-linejoin: round;
      }

      .cls-9 {
        fill: #d6d6d6;
      }

      .cls-10 {
        fill: #87f3b9;
      }

      .cls-11 {
        fill: #87ccf3;
      }

      .cls-12, .cls-15 {
        fill: #ff6d75;
      }

      .cls-13 {
        fill: #f3d587;
      }

      .cls-14, .cls-16, .cls-17, .cls-18 {
        fill: #fff;
      }

      .cls-19 {
        clip-path: url(#clippath);
      }

      .cls-20 {
        clip-path: url(#clippath-1);
      }

      .cls-21 {
        clip-path: url(#clippath-3);
      }

      .cls-22 {
        clip-path: url(#clippath-2);
      }

      .cls-15 {
        stroke-width: .5px;
      }

      .cls-15, .cls-3, .cls-4, .cls-16, .cls-6, .cls-7, .cls-17 {
        stroke-miterlimit: 10;
      }

      .cls-3 {
        stroke: #baa584;
      }

      .cls-3, .cls-4, .cls-17, .cls-18 {
        stroke-width: .75px;
      }

      .cls-5 {
        stroke: #fff;
        stroke-width: 8px;
      }

      .cls-6 {
        stroke-width: .59px;
      }
    </style>
    <clipPath id="clippath">
      <path class="cls-1" d="m79.71,46.69v7h7v-7h-7Zm5.2,3.01c-.18.29-.39.5-.57.67-.18.17-.55.53-1.11.64-.1.02-.21.03-.31.03-.27,0-.56-.07-.82-.19-.24-.12-.47-.29-.69-.52-.1-.11-.19-.22-.28-.34l-.05-1.13c.11-.18.24-.33.37-.47.46-.44,1.07-.69,1.71-.69.56,0,1.11.19,1.56.53l.31,1.19c-.05.11-.08.2-.13.28Zm-1.7-.26c-.19,0-.38.07-.53.21-.14.14-.22.32-.22.52,0,.2.08.39.22.54.14.14.32.22.52.23.19-.02.38-.07.53-.21.15-.14.23-.33.24-.53,0-.2-.07-.39-.2-.53-.15-.15-.35-.23-.55-.23Z"/>
    </clipPath>
    <clipPath id="clippath-1">
      <path class="cls-1" d="m83.21,49.44c-.19,0-.38.07-.53.21-.14.14-.22.32-.22.52,0,.2.08.39.22.54.14.14.32.22.52.23.19-.02.38-.07.53-.21.15-.14.23-.33.24-.53,0-.2-.07-.39-.2-.53-.15-.15-.35-.23-.55-.23Zm-3.5-2.75v7h7v-7h-7Zm5.2,3.01c-.18.29-.39.5-.57.67-.18.17-.55.53-1.11.64-.1.02-.21.03-.31.03-.27,0-.56-.07-.82-.19-.24-.12-.47-.29-.69-.52-.1-.11-.19-.22-.28-.34l-.05-1.13c.11-.18.24-.33.37-.47.46-.44,1.07-.69,1.71-.69.56,0,1.11.19,1.56.53l.31,1.19c-.05.11-.08.2-.13.28Z"/>
    </clipPath>
    <clipPath id="clippath-2">
      <path class="cls-1" d="m82.68,49.65c-.14.14-.22.32-.22.52,0,.2.08.39.22.54.14.14.32.22.52.23.19-.02.38-.07.53-.21.15-.14.23-.33.24-.53,0-.2-.07-.39-.2-.53-.15-.15-.35-.23-.55-.23s-.38.07-.53.21Zm-7.35-5.17v10.2h10.2v-10.2h-10.2Zm8.83,6.04c-.21.19-.52.41-.93.49-.1.02-.19.03-.29.03-.15,0-.3-.02-.46-.06l-.74-1.15c.08-.44-.05-.87-.35-1.18-.13-.13-.28-.24-.45-.31l-.06-.23c.05-.06.09-.12.15-.17.6-.58,1.41-.85,2.24-.88.14,0,.27.03.4.05.59.77.9,1.73.84,2.72l-.34.69Z"/>
    </clipPath>
    <clipPath id="clippath-3">
      <path class="cls-1" d="m75.47,48.28v6.4h7.85v-6.4h-7.85Zm4.32,4.07c-.14.26-.37.45-.66.54-.11.03-.22.05-.33.05-.18,0-.36-.04-.52-.13-.04-.02-.07-.06-.11-.09l-.22-.7-.12-.03.07-.22c.1-.25.29-.63.61-.93l.59-.05c.35.1.65.35.76.72.09.28.06.58-.08.85Z"/>
    </clipPath>
  </defs>
  <path class="cls-14" d="m114.54,116.19s3.84-3.48,3.84-3.48c.57-.51,1.09-1.07,1.68-1.56.3-.25.61-.48.94-.68.3-.18.72-.41.57.1-.09.33-.29.65-.44.96-.24.48-.51,1.01-.59,1.55-.04.3,0,.64.23.86.28.28.76.27,1.11.08.01,0,.03-.01.04-.02.35-.21.6-.57.82-.92.72-1.12,1.3-2.35,2.09-3.41.46-.61,1-1.1,1.4-1.76.32-.54.59-1.11.81-1.7l1.19-.42s.05.07.05.07c.37-.13.74-.26,1.12-.38-1.14-1.62-2.28-3.24-3.41-4.86-.74.42-1.19.69-1.17.7,0,0,0,0,.02.02-2.33-.46-5.2.14-7.02,1.45-.19.13-.37.28-.58.36-.16.07-.34.09-.52.12-1.03.14-2.05.25-3.09.31-.65.04-2.07-.15-2.4.59-.23.51.19,1.11.75,1.07,1.01-.08,2.01-.17,3.01-.27.37-.04.75-.12,1.12-.11.12,0,.41-.02.5.09.44.56-.97.91-1.28,1.02-.59.2-1.18.4-1.77.61-.83.29-1.66.6-2.48.91-.52.2-1.43.34-1.41,1.06,0,.5.53.87,1,.69.26-.1.52-.2.78-.3.08,0,.17-.01.25-.04.93-.31,1.87-.6,2.82-.86.47-.13.95-.26,1.42-.38.2-.05,1.04-.51,1.16-.19.14.38-.97.8-1.17.94-.6.4-1.19.8-1.79,1.19-.8.53-1.62,1.04-2.42,1.57-.5.33-1.58.8-1.29,1.57.16.41.68.61,1.07.41.05-.01.1-.03.16-.05,1.28-.56,2.48-1.28,3.69-1.98.59-.35,1.18-.69,1.79-1.01.31-.16.63-.32.95-.47.13-.06.44-.28.55-.1.11.18-.19.46-.29.56-.27.29-.64.49-.9.77-.44.49-.89.97-1.33,1.46-.62.67-1.24,1.35-1.87,2.02-.37.4-1.18.9-.95,1.56.17.47.86.67,1.24.33Z"/>
  <path class="cls-9" d="m64.74,124.64c-.22-.94-.43-1.76-.63-2.42-2.5-8.26-8.72-22.04-8.72-22.04,0,0-2.86.5-7.34,1.01-.44.05-.94.08-1.43.13-3.09.11-4.34,0-7.42-.76-1.85-.46-4.34-1.48-5.84-2.73-2.37,4.23-5.82,10.56-6.6,18.3-.23,2.25-.29,5.81-.23,8.52h38.21Z"/>
  <path class="cls-16" d="m77.77,51.62l.72,8.05,1.7-.42c1.74-1.38,1.97-6.41,2.28-8.36.31-1.96,1.63-2.85,1.63-2.85l-2.36.07"/>
  <path class="cls-7" d="m77.92,47.58s-.42-.93-1.13,1.24-1.7,5.03-1.7,5.03"/>
  <path class="cls-14" d="m53.29,56.35c-.46.21-.95.36-1.43.48-4.04.96-8.62-.76-10.19-1.41l.48-6.85.05-.77,10.6-2.04.28,2.2.89,7.46c-.05.14-.09.29-.14.41-.03.09-.14.34-.14.34l-.41.19Z"/>
  <path class="cls-2" d="m46.01,18.43s0,1.98-.71,3.31h-.02"/>
  <path class="cls-2" d="m42.17,22.58c-1.56-.9-2.62-3.2-2.62-3.2"/>
  <path class="cls-2" d="m37.23,40.73h-.02c-.18-.04-1.47-.37-2.22-2.4-.82-2.18-1.75-1.93-1.83-4.19-.06-2.14,2.15-1.21,2.4-1.08"/>
  <path class="cls-2" d="m55.32,21.24s-1.53.91-3.23,1.22"/>
  <path class="cls-14" d="m38.94,23.55c.97.05,2.11-.18,3.23-.97.47.29.97.43,1.5.37.75-.08,1.25-.58,1.6-1.2.02.02.04.03.06.03.21.2,1.56,1.39,3.24-.23.87,1.05,2.25,1.16,3.52.91.76.59,1.8.53,1.8.53.06.09.14.19.18.27,3.13,4.42,3.43,7.41,3.46,7.73.19-.79.33-1.54.44-2.25-.17,1.33-.42,2.28-.47,2.48v.02s-.01.04-.01.04h.02c.04,1.25.06,4.49-.45,7.84-.43,2.78-1.27,5.66-2.8,7.5-3.53,4.3-5.83,4.39-6.17,4.36-.35.08-2.77.45-6.94-3.27-1.79-1.59-3.07-4.29-3.92-6.98-1.02-3.23-1.5-6.43-1.65-7.68h.02c-.03-.14-.04-.29-.03-.45.05.12.09.19.09.19-.04-.52-.04-1.04-.03-1.54.34-2.6,2.71-6.9,2.99-7.64l.35-.06Z"/>
  <path class="cls-2" d="m35.6,31.25c-.07.49-.09.94-.06,1.35"/>
  <path class="cls-2" d="m35.58,33.05s0-.02-.02-.03v-.02c-.11-.24-.68-1.51-1.06-3.24v-.05c-.78-3.46-.8-8.7,4.95-11.03,0,0,.36-1.9,2.79-1.6,0,0,2.82-3.08,6.22-.55,2.36-.67,3,1.15,3,1.15,6.5,1.53,6.92,7.39,6.54,10.89-.01.07-.03.13-.02.18"/>
  <path class="cls-2" d="m54.14,23.61s3.34,4.87,3.35,7.67"/>
  <path class="cls-2" d="m35.5,32.52v.02c0,.05.02.21.06.46v.02s0,.04,0,.04"/>
  <path class="cls-2" d="m57.5,31.28v-.04"/>
  <path class="cls-2" d="m57.48,30.74s.01.18.02.48"/>
  <path class="cls-2" d="m57.03,39.12h.02c.17-.07,1.39-.59,1.82-2.71.47-2.28,1.43-2.18,1.17-4.42-.27-2.12-2.31-.86-2.54-.7"/>
  <path class="cls-2" d="m49.95,19.62c-.42.79-.85,1.38-1.25,1.79-.05.06-.08.11-.13.14"/>
  <path class="cls-2" d="m45.33,21.78l-.04-.03"/>
  <path class="cls-14" d="m47.59,31s.75,6.73,2.22,10.11c0,0-.29.69-2.47.26"/>
  <ellipse class="cls-14" cx="43.07" cy="34.22" rx=".23" ry=".68" transform="translate(-2.51 3.43) rotate(-4.42)"/>
  <ellipse class="cls-14" cx="52.34" cy="33.34" rx=".23" ry=".68" transform="translate(-2.42 4.14) rotate(-4.42)"/>
  <path class="cls-12" d="m81.85,63.27c-.13-1.55-.49-3.5-.63-3.74-.01-.01-.26-.01-.26-.01,0,0-.11.24-.56.57-.51.37-1.45.85-3.16,1.18-1.59.31-2.58.23-3.17.06-.59-.16-.78-.4-.78-.4-.55.88-.77,3.87-.87,4.96-.11,1.11.17,12.19.17,12.19,0,0-4.9-17.07-10.46-19.37-2.36-.97-8.03-2.89-8.03-2.89-.19.12-.82.53-.82.53-.46.2-.94.36-1.42.48-4.03.96-8.62-.76-10.19-1.41-.36-.15-.54-.25-.54-.25-2.52.32-5.02.87-7.44,1.68-2.65.89-4.97,1.94-7.17,3.69-2.21,1.81-4.19,3.91-6.06,6.07-.91,1.04-1.78,2.11-2.66,3.19-.43.52-.86,1.04-1.29,1.56-2.11,2.56-4.22,5.16-5.96,7.97-3.04,4.9-5.24,11.14-2.3,16.6,1.75,3.26,4.63,5.79,7.47,8.1,3.36,2.75,7.07,5.23,11.05,7.07.72.34,1.54.28,2.19-.08.35-.2.66-.48.88-.85.79-1.29,1.44-2.63,2.03-4,.06-.12.12-.26.17-.38.07-.16.12-.32.16-.47l.37.4c.67-.02,1.34,0,2.01.1.81.13,1.52.47,2.31.67,1.37.35,2.83.42,4.22.67.44.09.88.18,1.23.45.02,0,.03.02.05.02.16.15.3.34.37.55,4.09.22,8.23-.13,12.23-1.05,1.53-.35,3.13-.84,4.07-2.17.86-1.2.77-26.58.77-26.58,1.88,1.75,3.77,4.95,6.84,10.17,3.08,5.2,6.15,6.5,7.96,6.8,1.81.31,4.49-3.9,6.22-7.93,1.74-4.02,2.05-11.5,2.15-14.57.11-3.06-.89-6.44-1.15-9.58Zm-51.72,21.53c-.17,4.24-.57,10.27-.8,14.1-2.16-3.21-4.71-6.31-7.61-9.35,1.42-1.35,2.83-2.72,4.19-4.17,1.55-1.63,2.98-3.35,4.3-5.13.06.77.02,2.43-.08,4.55Z"/>
  <line class="cls-2" x1="80.96" y1="59.52" x2="80.96" y2="59.51"/>
  <path class="cls-8" d="m31.87,106.17c.06.04.12.05.19.06,3.47,1.1,7.07,1.76,10.7,1.95"/>
  <path class="cls-8" d="m29.33,98.9c.91,1.32,1.75,2.7,2.54,4.07.28.49.43,1.03.43,1.57,0,.26-.03.52-.1.77.07-.25.1-.51.1-.77,0-.54-.14-1.09-.43-1.57-.8-1.38-1.64-2.75-2.54-4.07"/>
  <line class="cls-9" x1="49.26" y1="57.55" x2="47.83" y2="107.82"/>
  <line class="cls-9" x1="46.76" y1="62.57" x2="52.34" y2="62.57"/>
  <path class="cls-2" d="m48.07,47.54c1.41.07,1.95-1.53,2.61-3.36,0,0-3.3.33-5.94-.04-1.35-.19,1.74,3.33,3.33,3.41Z"/>
  <path class="cls-14" d="m47.71,115.35c-.55.5-1.38-.1-1.93-.31-.91-.34-1.84-.68-2.75-1.02-.66-.24-1.32-.48-1.98-.71-.39-.14-.73-.43-1.13-.58-.14-.05-.53-.24-.67-.05-.14.18.21.4.32.5.28.26.56.51.85.75.56.47,1.15.91,1.73,1.36,1.19.91,2.39,1.79,3.47,2.83.05.05.08.09.12.14.35.3.37.9.04,1.22-.64.6-1.55-.28-2.07-.63-.86-.57-1.68-1.18-2.54-1.75-.63-.43-1.27-.86-1.9-1.29-.23-.14-1.1-1.07-1.4-.78-.28.25.52.9.65,1.08.32.42.64.83.96,1.24.65.83,1.31,1.64,2,2.43.07.07.12.15.15.24.2.22.4.43.61.65.37.39.22,1.06-.27,1.27-.71.31-1.22-.52-1.63-.96-.64-.69-1.28-1.38-1.91-2.08-.44-.5-.88-1-1.32-1.5-.23-.26-1.16-1.51-1.52-.84-.07.13.07.41.12.52.14.38.37.71.56,1.07.52.95,1.01,1.9,1.5,2.86.26.53-.15,1.19-.75,1.18-.87-.03-1.26-1.5-1.57-2.13-.48-1-1-1.97-1.57-2.92-.1-.16-.19-.33-.33-.46-.17-.17-.39-.29-.59-.43-1.74-1.08-3.28-3.11-3.99-5.22.35-.2.66-.48.89-.85.79-1.29,1.44-2.62,2.03-4,.06-.12.12-.26.17-.38.06-.15.12-.32.15-.47l.37.41c.67-.03,1.34,0,2.01.1.81.13,1.52.46,2.31.67,1.38.34,2.83.42,4.23.67.43.08.88.17,1.23.44.02,0,.03.02.05.03.16.14.3.33.37.54.07.19.08.4,0,.59-.13.3-.43.49-.75.57-.57.14-1.2.09-1.77.05-.37-.03-.77-.09-1.13-.05-.56.07-.16.38.14.61.33.25.69.46,1.06.65.72.38,1.48.68,2.23,1.02,0,0,5,2.37,5,2.38.49.23.57,1,.18,1.36Z"/>
  <g>
    <polygon class="cls-12" points="126.22 18.04 93.79 18.04 110.01 7.07 126.22 18.04"/>
    <rect class="cls-14" x="93.79" y="18.04" width="32.43" height="23.63"/>
    <rect class="cls-2" x="107.2" y="32.47" width="5.59" height="9.2"/>
    <g>
      <rect class="cls-7" x="99.59" y="22.9" width="4.35" height="6.32"/>
      <rect class="cls-7" x="116.06" y="22.9" width="4.35" height="6.32"/>
    </g>
  </g>
  <path class="cls-9" d="m173.23,125h-40.76c.62-3.39,1.22-6.22,1.76-8,2.62-8.64,9.13-23.07,9.13-23.07,0,0,2.99.53,7.68,1.06.46.05.98.08,1.5.14,3.23.12,4.54,0,7.76-.8,1.94-.48,4.55-1.55,6.11-2.86,2.49,4.42,6.1,11.05,6.92,19.15.41,4.1.3,9.13-.1,14.38Z"/>
  <path class="cls-14" d="m145.86,50.02c.46.2.94.36,1.41.48,4,.95,8.55-.75,10.1-1.4l-.48-6.79-.05-.77-10.51-2.03-.27,2.18-.89,7.39c.05.14.08.29.14.41.03.09.05.17.08.24.02.03.02.07.03.1h.02l.41.19Z"/>
  <path class="cls-2" d="m153.08,12.44s0,1.96.71,3.28h.02"/>
  <path class="cls-2" d="m156.88,16.55c1.55-.9,2.6-3.17,2.6-3.17"/>
  <path class="cls-2" d="m161.78,34.54h.02c.18-.04,1.45-.37,2.2-2.38.81-2.17,1.73-1.92,1.82-4.15.06-2.12-2.14-1.2-2.38-1.08"/>
  <path class="cls-2" d="m143.84,15.22s1.52.9,3.2,1.21"/>
  <path class="cls-14" d="m160.08,17.51c-.97.05-2.09-.18-3.21-.96-.47.28-.96.42-1.49.37-.74-.08-1.24-.58-1.58-1.19-.02.02-.04.03-.06.03-.21.2-1.55,1.38-3.21-.23-.86,1.04-2.23,1.15-3.49.91-.76.58-1.79.52-1.79.52-.06.08-.14.19-.18.27-3.1,4.38-3.4,7.35-3.43,7.67-.19-.78-.33-1.52-.43-2.23.17,1.31.41,2.26.47,2.46v.02s.01.04.01.04h-.02c-.04,1.24-.06,4.45.45,7.77.43,2.76,1.26,5.61,2.78,7.43,3.5,4.26,5.78,4.35,6.12,4.32.35.08,2.75.44,6.88-3.25,1.78-1.57,3.04-4.26,3.89-6.92,1.01-3.2,1.49-6.37,1.64-7.61h-.02c.03-.14.04-.28.03-.44-.05.12-.09.19-.09.19.04-.51.04-1.03.03-1.53-.34-2.57-2.69-6.84-2.97-7.57l-.34-.06Z"/>
  <path class="cls-2" d="m163.39,25.14c.07.49.09.93.06,1.34"/>
  <path class="cls-2" d="m163.42,26.93s0-.02.02-.03v-.02c.11-.24.67-1.5,1.05-3.22v-.05c.77-3.43.8-8.62-4.91-10.93,0,0-.35-1.88-2.76-1.59,0,0-2.79-3.05-6.16-.55-2.34-.66-2.98,1.14-2.98,1.14-6.44,1.52-6.86,7.33-6.49,10.8.01.07.03.13.02.18"/>
  <path class="cls-2" d="m145.02,17.57s-3.31,4.82-3.32,7.6"/>
  <path class="cls-2" d="m163.49,26.4v.02c0,.05-.02.21-.05.46v.02s0,.04,0,.04"/>
  <path class="cls-2" d="m141.68,25.17v-.04"/>
  <path class="cls-2" d="m141.71,24.64s-.01.18-.02.48"/>
  <path class="cls-2" d="m142.15,32.95h-.02c-.17-.07-1.38-.59-1.81-2.69-.47-2.26-1.42-2.16-1.16-4.39.27-2.1,2.29-.86,2.51-.7"/>
  <path class="cls-2" d="m149.17,13.62c.42.78.84,1.37,1.24,1.77.05.06.08.11.13.13"/>
  <path class="cls-2" d="m153.75,15.75l.04-.03"/>
  <path class="cls-14" d="m151.51,24.9s-.74,6.67-2.2,10.02c0,0,.28.68,2.45.26"/>
  <ellipse class="cls-14" cx="155.98" cy="28.09" rx=".67" ry=".23" transform="translate(115.94 181.44) rotate(-85.58)"/>
  <ellipse class="cls-14" cx="146.8" cy="27.21" rx=".67" ry=".23" transform="translate(108.34 171.47) rotate(-85.58)"/>
  <path class="cls-10" d="m173,78.8c-1.53-1.62-2.96-3.32-4.26-5.09-.07.77-.03,2.42.07,4.51.17,4.21.56,10.18.8,13.98-.9,1.31-1.74,2.67-2.52,4.04-.49.85-.56,1.89-.17,2.79.05.12.1.26.17.37-.07.03-.12.05-.19.07-7.3,2.33-15.26,2.6-22.73.89-1.52-.34-3.1-.83-4.04-2.15-.15-.22-.31-.46-.41-.72-1.94,2.43-4,4.8-6.2,7.03-1.87,1.89-4.78,2.32-7.13,1.06-1.75-.94-2.76-2.72-2.76-4.56,0-.87.22-1.75.7-2.57,1.31-2.25,2.67-4.36,4.19-6.52.83-1.19,2.38-3.2,3.23-4.29.37-.48.56-1.09.53-1.7-.26-4.21-2.43-22.65,2.71-29.66.18-.24.31-.53.51-.75,2.2-2.23,6.59-4.9,9.36-6.01.19.12.37.22.56.32h.02l.41.19c.46.2.94.36,1.41.48,4,.95,8.55-.75,10.1-1.4.36-.15.54-.26.54-.26,2.5.32,4.97.87,7.37,1.67,2.62.89,4.92,1.92,7.1,3.66,2.2,1.79,4.15,3.87,6.01,6.01.9,1.04,1.77,2.09,2.64,3.17.43.51.85,1.02,1.28,1.55"/>
  <path class="cls-14" d="m144.87,49.51c.19.12.37.22.56.32h.02c.14.07.27.14.41.19.46.2.94.36,1.41.48l-1.5-.61-.37-.15-.53-.22Z"/>
  <path class="cls-2" d="m136.85,73.79c.09,2.43,1.57,17.86,1.98,20.28.24,1.41.46,2.95,1.31,4.14.94,1.31,2.52,1.8,4.04,2.15"/>
  <path class="cls-14" d="m152.08,107.92s4.96-2.35,4.96-2.35c.73-.35,1.49-.64,2.21-1.02.36-.19.72-.4,1.04-.65.3-.23.69-.53.14-.6-.36-.05-.76.02-1.12.05-.57.04-1.2.09-1.76-.05-.32-.08-.62-.27-.75-.57-.16-.39.05-.85.37-1.12.01,0,.02-.02.04-.03.35-.26.8-.36,1.23-.43,1.38-.25,2.82-.32,4.18-.67.79-.2,1.48-.54,2.29-.66.66-.1,1.33-.13,1.99-.1l.89-.99s-.04-.08-.04-.08c.27-.31.55-.62.83-.94,1.12,1.77,2.25,3.54,3.38,5.31-.71.55-1.15.88-1.16.87,0,0,0-.01-.02-.03-.49,2.47-2.23,5.03-4.25,6.29-.2.13-.42.25-.59.42-.13.13-.23.3-.32.46-.55.95-1.07,1.91-1.56,2.9-.3.62-.68,2.08-1.55,2.11-.59.02-1.01-.64-.74-1.16.48-.95.98-1.9,1.49-2.84.19-.35.42-.68.56-1.06.05-.12.19-.39.12-.52-.37-.66-1.28.58-1.51.84-.43.5-.87.99-1.31,1.48-.62.7-1.25,1.38-1.89,2.07-.4.43-.91,1.26-1.61.95-.49-.21-.64-.87-.28-1.26.21-.21.41-.43.61-.64.03-.08.08-.16.14-.23.68-.79,1.34-1.59,1.98-2.41.32-.41.64-.82.95-1.24.13-.17.92-.81.65-1.06-.31-.29-1.17.62-1.39.77-.63.42-1.26.85-1.89,1.27-.85.57-1.67,1.16-2.51,1.73-.53.35-1.42,1.23-2.05.63-.34-.32-.32-.91.03-1.21.03-.04.07-.09.12-.13,1.06-1.03,2.26-1.91,3.43-2.81.58-.44,1.16-.88,1.71-1.34.29-.24.57-.49.84-.74.11-.1.45-.31.32-.5-.13-.18-.52,0-.67.06-.39.15-.73.43-1.12.57-.65.23-1.31.47-1.96.71-.91.34-1.82.67-2.73,1.02-.54.2-1.36.79-1.91.3-.39-.35-.31-1.12.18-1.35Z"/>
  <path class="cls-10" d="m173,78.8c1.35,1.43,2.74,2.79,4.16,4.14-2.88,3.01-5.4,6.08-7.54,9.26-.9,1.31-1.74,2.67-2.52,4.04-.49.85-.56,1.89-.17,2.79.05.12.1.26.17.37.58,1.36,1.23,2.69,2.01,3.97.63,1.04,1.94,1.43,3.05.92,3.93-1.82,7.61-4.27,10.95-7,2.81-2.3,5.67-4.8,7.41-8.04,2.91-5.41.73-11.6-2.28-16.45-1.72-2.79-3.81-5.36-5.91-7.9"/>
  <line class="cls-2" x1="177.16" y1="82.93" x2="182.31" y2="78.36"/>
  <g>
    <path class="cls-7" d="m90.08,52.75s20.05-8.42,38.34.27"/>
    <polygon points="123.71 55.43 123.39 54.48 128.06 52.89 126.14 48.35 127.06 47.96 129.4 53.49 123.71 55.43"/>
  </g>
  <path class="cls-18" d="m149.14,39.02s3.26,1.1,5.62-1.43"/>
  <path class="cls-14" d="m99.25,58.8h22.5c2.3,0,4.17,1.87,4.17,4.17v21.09c0,1.42-1.15,2.57-2.57,2.57h-25.7c-1.42,0-2.57-1.15-2.57-2.57v-21.09c0-2.3,1.87-4.17,4.17-4.17Z"/>
  <path class="cls-11" d="m99.25,58.8h22.5c2.3,0,4.17,1.87,4.17,4.17v3.06h-30.84v-3.06c0-2.3,1.87-4.17,4.17-4.17Z"/>
  <rect class="cls-13" x="106.65" y="57.82" width="1.25" height="2.87" rx=".63" ry=".63"/>
  <rect class="cls-13" x="113.63" y="57.82" width="1.25" height="2.87" rx=".63" ry=".63"/>
  <rect class="cls-13" x="120.61" y="57.82" width="1.25" height="2.87" rx=".63" ry=".63"/>
  <rect class="cls-9" x="98.26" y="70.08" width="4.11" height="2.67"/>
  <rect class="cls-9" x="98.26" y="74.83" width="4.11" height="2.67"/>
  <rect class="cls-9" x="104.81" y="74.83" width="4.11" height="2.67"/>
  <rect class="cls-9" x="111.36" y="74.83" width="4.11" height="2.67"/>
  <rect class="cls-9" x="117.78" y="74.83" width="4.11" height="2.67"/>
  <rect class="cls-9" x="98.26" y="79.57" width="4.11" height="2.67"/>
  <rect class="cls-9" x="104.81" y="79.57" width="4.11" height="2.67"/>
  <rect class="cls-9" x="111.36" y="79.57" width="4.11" height="2.67"/>
  <rect class="cls-9" x="104.81" y="70.08" width="4.11" height="2.67"/>
  <rect class="cls-9" x="111.36" y="70.08" width="4.11" height="2.67"/>
  <rect class="cls-9" x="117.9" y="70.08" width="4.11" height="2.67"/>
  <rect class="cls-13" x="99.22" y="57.82" width="1.25" height="2.87" rx=".63" ry=".63"/>
  <path class="cls-16" d="m82.38,46.3s1.31-.25,2.52.66,2.16,1.6,1.16,1.77-2.62-1-4.32-.63c-1.7.37-2.64.32-2.64.32,0,0,1.31-.42,2.61-1.59,1.3-1.17,2.74-1.53,3.26-2.58.53-1.05-.89-.78-1.92-.37s-3,1.16-3,1.16"/>
  <path class="cls-16" d="m80.4,60.09c-.51.37-1.45.85-3.16,1.18-1.59.31-2.58.23-3.17.06.01-.08.02-.16.02-.25h0c.18-3.11.56-9.37.65-9.97.11-.81,1.45-2.49,2.27-3.39.82-.91,1.62-3.19,2.36-4.05.75-.87.69.45.69,1.38-.01.92-1.07,2.83-1.07,2.83,0,0,.32.43-.09,2.69-.06.33-.12.65-.15.98-.24,1.91-.08,3.83.94,6.24.21.49.37.98.5,1.46.08.28.15.56.21.84Z"/>
  <g>
    <g>
      <g>
        <path class="cls-17" d="m82.41,50.97c.43.45,1.13.46,1.58.03s.47-1.14.05-1.59-1.16-.46-1.6-.03-.45,1.14-.02,1.59Z"/>
        <path class="cls-17" d="m82.41,50.97c.43.45,1.13.46,1.58.03s.47-1.14.05-1.59-1.16-.46-1.6-.03-.45,1.14-.02,1.59Z"/>
        <path class="cls-3" d="m78.47,51.46c.15.16.32.29.5.41.16.1.33.19.5.25.24.09.49.15.75.17.75.06,1.52-.19,2.1-.75,1.08-1.04,1.12-2.77.08-3.85-1.04-1.08-2.77-1.12-3.85-.08s-1.12,2.77-.08,3.85Z"/>
      </g>
      <path class="cls-17" d="m89.82,61.06c.47.49.96.02.96.02l.97-.93h.01s.64.89,1.25.3c.61-.59-.19-1.3-.19-1.3l-7.26-7.58c-.11.22-.26.42-.45.6-.13.13-.28.24-.44.34l4.5,4.68-1.13,1.09s-.43.47,0,.92.83.06.89,0l1.06-1.02.87.91-1,1.07s-.49.41-.03.89Z"/>
      <path class="cls-17" d="m81.23,52.1c.92.95,2.36,1.11,3.43.42.16-.1.31-.21.44-.34.19-.19.34-.39.45-.6.63-1.04.51-2.38-.36-3.29-1.06-1.1-2.81-1.13-3.91-.08-1.1,1.06-1.12,2.79-.06,3.89Zm1.17-1.13c-.43-.45-.43-1.16.02-1.59s1.18-.41,1.6.03.4,1.16-.05,1.59-1.15.42-1.58-.03Z"/>
      <g class="cls-19">
        <path class="cls-17" d="m82.41,50.97c.43.45,1.13.46,1.58.03s.47-1.14.05-1.59-1.16-.46-1.6-.03-.45,1.14-.02,1.59Z"/>
      </g>
      <g class="cls-20">
        <path class="cls-17" d="m82.41,50.97c.43.45,1.13.46,1.58.03s.47-1.14.05-1.59-1.16-.46-1.6-.03-.45,1.14-.02,1.59Z"/>
      </g>
      <g class="cls-22">
        <path class="cls-3" d="m78.47,51.46c.15.16.32.29.5.41.16.1.33.19.5.25.24.09.49.15.75.17.75.06,1.52-.19,2.1-.75,1.08-1.04,1.12-2.77.08-3.85-1.04-1.08-2.77-1.12-3.85-.08s-1.12,2.77-.08,3.85Z"/>
      </g>
      <path class="cls-4" d="m78.97,51.87c.16.1.33.19.5.25.24.09.49.15.75.17"/>
    </g>
    <polygon class="cls-15" points="77.46 56.02 78.54 59.09 80.21 58.51 81.46 58.07 83.16 57.47 82.18 54.26 79 52.91 77.46 56.02"/>
    <g>
      <path class="cls-3" d="m77.83,50.39c.44,1.43,1.95,2.24,3.38,1.8"/>
      <circle class="cls-6" cx="78.8" cy="51.82" r=".81"/>
      <g class="cls-21">
        <path class="cls-3" d="m77.83,50.39c.44,1.43,1.95,2.24,3.38,1.8"/>
      </g>
    </g>
  </g>
  <path class="cls-7" d="m79.05,47.98c-.22-.67-.62-1.39-1.13-.4-.51.99-1.22,6.7-1.22,6.7"/>
  <rect class="cls-5" x="-1199.88" y="-4551.15" width="2244.45" height="5948.74"/>
</svg>