<?xml version="1.0" encoding="UTF-8"?>
<svg id="Calque_1" data-name="Calque 1" xmlns="http://www.w3.org/2000/svg" viewBox="0 0 200 128">
  <defs>
    <style>
      .cls-1, .cls-2, .cls-3, .cls-4, .cls-5, .cls-6, .cls-7, .cls-8, .cls-9, .cls-10, .cls-11, .cls-12, .cls-13, .cls-14, .cls-15, .cls-16 {
        stroke-linecap: round;
        stroke-linejoin: round;
      }

      .cls-1, .cls-2, .cls-3, .cls-4, .cls-5, .cls-6, .cls-7, .cls-8, .cls-9, .cls-10, .cls-12, .cls-13, .cls-14, .cls-17, .cls-15, .cls-18, .cls-19, .cls-20, .cls-21, .cls-22, .cls-23, .cls-24, .cls-25, .cls-26, .cls-27 {
        stroke: #000;
      }

      .cls-1, .cls-25 {
        fill: #76ac75;
      }

      .cls-2 {
        fill: #77eddf;
      }

      .cls-3, .cls-21 {
        fill: #d6d6d6;
      }

      .cls-4 {
        fill: #87f3b9;
      }

      .cls-5 {
        fill: #b2f0e9;
      }

      .cls-6, .cls-24 {
        fill: #baa584;
      }

      .cls-7, .cls-22 {
        fill: #a07637;
      }

      .cls-8, .cls-17 {
        fill: #fce9b9;
      }

      .cls-9, .cls-18 {
        fill: #ff6d75;
      }

      .cls-10 {
        fill: #bbfedb;
      }

      .cls-11 {
        stroke: #f3d587;
      }

      .cls-11, .cls-12, .cls-20 {
        fill: #f3d587;
      }

      .cls-13, .cls-19 {
        fill: #fff;
      }

      .cls-14, .cls-26 {
        fill: #fab0b4;
      }

      .cls-17, .cls-15 {
        stroke-width: .5px;
      }

      .cls-17, .cls-18, .cls-19, .cls-20, .cls-21, .cls-22, .cls-23, .cls-24, .cls-25, .cls-26, .cls-27 {
        stroke-miterlimit: 10;
      }

      .cls-15 {
        fill: #fee4cb;
      }

      .cls-23 {
        fill: #b4eac3;
      }

      .cls-27 {
        fill: #f9f8f6;
      }

      .cls-16 {
        fill: none;
        stroke: #fff;
        stroke-width: 8px;
      }
    </style>
  </defs>
  <polygon class="cls-3" points="126.76 125.6 17.89 125.6 46.24 94.85 155.1 94.85 126.76 125.6"/>
  <g>
    <rect class="cls-21" x="6.03" y="35.92" width="24.75" height="71.47"/>
    <rect class="cls-19" x="7.91" y="37.88" width="20.97" height="20.97"/>
    <rect class="cls-19" x="7.91" y="61.34" width="20.97" height="20.97"/>
    <rect class="cls-21" x="7.91" y="85.63" width="20.97" height="9.03"/>
    <rect class="cls-19" x="14.29" y="89.46" width="8.23" height="1.37"/>
    <g>
      <rect class="cls-21" x="6.03" y="107.39" width="6.54" height="2.13"/>
      <rect class="cls-21" x="24.23" y="107.39" width="6.54" height="2.13"/>
    </g>
  </g>
  <rect class="cls-14" x="12.37" y="74.33" width="11.57" height="3.84"/>
  <rect class="cls-9" x="12.86" y="78.17" width="11.57" height="3.84"/>
  <rect class="cls-14" x="10.66" y="65.73" width="11.57" height="3.84" transform="translate(-24.9 11.64) rotate(-22.77)"/>
  <rect class="cls-9" x="15.94" y="70.41" width="11.57" height="3.84"/>
  <rect class="cls-4" x="12.13" y="50.85" width="11.57" height="3.84"/>
  <rect class="cls-12" x="12.62" y="54.69" width="11.57" height="3.84"/>
  <rect class="cls-4" x="15.2" y="42.95" width="11.57" height="3.84"/>
  <rect class="cls-12" x="15.69" y="46.79" width="11.57" height="3.84"/>
  <polygon class="cls-3" points="156.95 60.55 156.95 62.43 166.26 62.43 166.26 60.58 156.95 60.55"/>
  <rect class="cls-3" x="155.42" y="62.43" width="12.38" height="1.53"/>
  <rect class="cls-3" x="135.27" y="33.52" width="54.59" height="27.06"/>
  <rect class="cls-13" x="137.56" y="35.39" width="50.01" height="23.33"/>
  <rect class="cls-3" x="138.4" y="66.33" width="48.59" height="28.47"/>
  <rect class="cls-6" x="135.93" y="63.83" width="52.15" height="2.5"/>
  <rect class="cls-3" x="140.63" y="69.28" width="44.31" height="6.94"/>
  <rect class="cls-3" x="140.63" y="77.65" width="44.31" height="6.94"/>
  <rect class="cls-3" x="140.63" y="86.1" width="44.31" height="6.94"/>
  <polygon class="cls-13" points="142.4 94.79 141.45 100.65 143.77 100.65 145.81 94.79 142.4 94.79"/>
  <polygon class="cls-6" points="179.63 94.79 180.58 100.65 178.26 100.65 176.22 94.79 179.63 94.79"/>
  <path class="cls-8" d="m53.5,59.61h42.85c1.14,0,2.07.93,2.07,2.07v29.06c0,1.14-.93,2.07-2.07,2.07h-42.85c-1.15,0-2.08-.93-2.08-2.08v-29.05c0-1.15.93-2.08,2.08-2.08Z"/>
  <path class="cls-8" d="m145.36,61.68v29.06c0,1.15-.93,2.07-2.07,2.07h-42.85c-1.15,0-2.08-.93-2.08-2.07v-29.06c0-1.15.93-2.08,2.08-2.08h42.85c.13,0,.25.01.37.03.97.18,1.7,1.02,1.7,2.04Z"/>
  <rect class="cls-8" x="51.42" y="86.47" width="93.53" height="17.22"/>
  <rect class="cls-12" x="59.56" y="85.7" width="78" height="1.94"/>
  <path class="cls-11" d="m61.33,64.78c0,.49-.4.88-.88.88s-.88-.4-.88-.88.4-.88.88-.88.88.4.88.88Z"/>
  <path class="cls-11" d="m90.3,64.78c0,.49-.4.88-.88.88s-.88-.4-.88-.88.4-.88.88-.88.88.4.88.88Z"/>
  <path class="cls-11" d="m138.45,64.78c0,.49-.4.88-.88.88s-.88-.4-.88-.88.4-.88.88-.88.88.4.88.88Z"/>
  <path class="cls-11" d="m107.13,64.78c0,.49-.4.88-.88.88s-.88-.4-.88-.88.4-.88.88-.88.88.4.88.88Z"/>
  <path class="cls-11" d="m90.3,82.24c0,.49-.4.88-.88.88s-.88-.4-.88-.88.4-.88.88-.88.88.4.88.88Z"/>
  <path class="cls-11" d="m134.67,82.24c0,.49-.4.88-.88.88s-.88-.4-.88-.88.4-.88.88-.88.88.4.88.88Z"/>
  <path class="cls-11" d="m107.13,82.24c0,.49-.4.88-.88.88s-.88-.4-.88-.88.4-.88.88-.88.88.4.88.88Z"/>
  <path class="cls-11" d="m66.69,82.24c0,.49-.4.88-.88.88s-.88-.4-.88-.88.4-.88.88-.88.88.4.88.88Z"/>
  <path class="cls-11" d="m76.16,72.76c0,.49-.4.88-.88.88s-.88-.4-.88-.88.4-.88.88-.88.88.4.88.88Z"/>
  <path class="cls-11" d="m122.74,72.76c0,.49-.4.88-.88.88s-.88-.4-.88-.88.4-.88.88-.88.88.4.88.88Z"/>
  <g>
    <path class="cls-3" d="m58.55,100.11c0,1.12-5.26,2.04-11.75,2.04s-11.76-.92-11.76-2.04,4.87-1.97,11.01-2.03V13.6h2.18v84.49c5.81.12,10.32.97,10.32,2.02Z"/>
    <polygon class="cls-14" points="42.16 7.04 33.13 30.41 61.15 30.41 52.75 7.04 42.16 7.04"/>
    <rect class="cls-13" x="41.26" y="30.41" width=".25" height="12.72"/>
    <ellipse class="cls-3" cx="41.31" cy="43.65" rx=".69" ry="1.02"/>
  </g>
  <polygon class="cls-7" points="88.85 91.91 84.77 115.46 105.88 115.46 109.22 91.91 88.85 91.91"/>
  <polygon class="cls-5" points="89.87 93.38 86.3 113.98 104.77 113.98 107.69 93.38 89.87 93.38"/>
  <polygon class="cls-2" points="90.2 107.79 95.23 100.18 98.58 105.19 101.03 102.26 103.79 108.25 90.2 107.79"/>
  <circle class="cls-2" cx="99.73" cy="98.39" r="1.13"/>
  <path class="cls-6" d="m163.93,72.76c0,.63-.51,1.14-1.14,1.14s-1.14-.51-1.14-1.14.51-1.14,1.14-1.14,1.14.51,1.14,1.14Z"/>
  <path class="cls-6" d="m163.93,81.12c0,.63-.51,1.14-1.14,1.14s-1.14-.51-1.14-1.14.51-1.14,1.14-1.14,1.14.51,1.14,1.14Z"/>
  <path class="cls-6" d="m163.93,89.58c0,.63-.51,1.14-1.14,1.14s-1.14-.51-1.14-1.14.51-1.14,1.14-1.14,1.14.51,1.14,1.14Z"/>
  <path class="cls-12" d="m59.56,79.6v22.54c0,2.22-1.8,4.01-4.01,4.01h-6.76c-2.22,0-4.01-1.8-4.01-4.01v-22.54c0-2.22,1.8-4.01,4.01-4.01h6.76c.26,0,.52.03.77.07,1.85.36,3.24,1.98,3.24,3.94Z"/>
  <rect class="cls-12" x="137.56" y="75.59" width="14.79" height="30.57" rx="4.01" ry="4.01"/>
  <polygon class="cls-7" points="36.38 93.56 36.38 112.63 53.9 112.63 57.6 111.32 57.6 93.56 36.38 93.56"/>
  <polygon class="cls-6" points="53.9 93.56 53.9 112.63 57.6 111.32 57.6 93.56 53.9 93.56"/>
  <rect class="cls-15" x="45.31" y="107.03" width="1.45" height="5.6"/>
  <polygon class="cls-14" points="68.98 102.15 68.98 121.21 86.5 121.21 90.2 119.91 90.2 102.15 68.98 102.15"/>
  <polygon class="cls-9" points="86.5 102.15 86.5 121.21 90.2 119.91 90.2 102.15 86.5 102.15"/>
  <polygon class="cls-7" points="148.17 97.86 148.17 116.92 165.68 116.92 169.39 115.62 169.39 97.86 148.17 97.86"/>
  <polygon class="cls-6" points="165.68 97.86 165.68 116.92 169.39 115.62 169.39 97.86 165.68 97.86"/>
  <rect class="cls-15" x="157.09" y="111.33" width="1.45" height="5.6"/>
  <polygon class="cls-7" points="119.19 92.39 119.19 116.04 140.92 116.04 145.52 114.43 145.52 92.39 119.19 92.39"/>
  <polygon class="cls-6" points="140.92 92.39 140.92 116.04 145.52 114.43 145.52 92.39 140.92 92.39"/>
  <rect class="cls-15" x="130.26" y="109.1" width="1.8" height="6.95"/>
  <rect class="cls-7" x="155.42" y="25.01" width="27.69" height="1.46"/>
  <rect class="cls-9" x="156.39" y="22.08" width="14.52" height="2.93"/>
  <rect class="cls-14" x="158.65" y="19.15" width="14.52" height="2.93"/>
  <rect class="cls-14" x="174.86" y="19.15" width="14.52" height="2.93"/>
  <rect class="cls-12" x="156.57" y="16.23" width="14.52" height="2.93"/>
  <rect class="cls-10" x="175.48" y="22.08" width="14.52" height="2.93"/>
  <polygon class="cls-1" points="178.71 18.89 165.13 13.71 166.18 10.98 179.76 16.15 178.71 18.89"/>
  <polygon class="cls-7" points="14.34 98.39 14.34 122.05 36.07 122.05 40.67 120.44 40.67 98.39 14.34 98.39"/>
  <polygon class="cls-6" points="36.07 98.39 36.07 122.05 40.67 120.44 40.67 98.39 36.07 98.39"/>
  <rect class="cls-15" x="25.41" y="115.11" width="1.8" height="6.95"/>
  <rect class="cls-7" x="9.07" y="15.84" width="18.18" height="19.79"/>
  <rect class="cls-15" x="18.33" y="29.82" width="1.51" height="5.81"/>
  <g>
    <path class="cls-17" d="m176.29,78.59s.07.03.07.03c0,0,.02-.02.04-.06.03-.04.08-.1.12-.17.09-.14.19-.34.27-.57.16-.46.22-1.03.09-1.56-.12-.53-.42-1.02-.77-1.36-.18-.17-.35-.3-.5-.39-.06-.05-.14-.08-.18-.1-.04-.02-.07-.04-.07-.04,0,0-.02.02-.04.06-.03.04-.08.1-.11.17-.09.14-.19.34-.27.57-.16.46-.22,1.03-.09,1.56.12.53.42,1.02.76,1.36.18.17.36.3.5.39.06.05.14.08.18.1Z"/>
    <path class="cls-17" d="m180.42,74.92c.39-.29.75-.74.93-1.25.19-.51.22-1.09.11-1.56-.05-.24-.13-.45-.2-.6-.03-.07-.07-.14-.09-.18-.02-.04-.04-.07-.04-.07,0,0-.02,0-.07.03-.04.02-.12.04-.19.08-.15.07-.35.18-.54.33-.39.29-.75.74-.94,1.25-.14.37-.17.76-.15,1.14-.59-1.26-1.22-2.5-1.91-3.71,0,0,0-.01,0-.02-.22-.76-.38-1.52-.49-2.29.05,0,.12.02.2.02.17,0,.39,0,.63-.04.48-.08,1-.32,1.4-.7.4-.37.68-.87.81-1.34.06-.24.09-.46.1-.62,0-.08,0-.16,0-.2,0-.05,0-.07,0-.07,0,0-.03,0-.07,0-.05,0-.12-.02-.2-.02-.17,0-.39,0-.63.05-.48.08-1,.32-1.4.69-.41.37-.69.87-.81,1.34-.04.15-.06.29-.07.42-.17-1.51-.15-3.04.07-4.54.05,0,.09.01.15.01.17,0,.39,0,.63-.04.48-.08,1-.32,1.4-.7.4-.37.68-.87.81-1.34.06-.24.09-.46.1-.62,0-.08,0-.16,0-.2,0-.05,0-.07,0-.07,0,0-.03,0-.07,0-.05,0-.12-.02-.2-.02-.17,0-.39,0-.63.05-.48.08-1,.32-1.4.69-.16.15-.3.32-.42.51.25-1.02.58-2.01,1-2.97.15.07.36.13.59.18.48.09,1.05.06,1.56-.15.51-.2.95-.57,1.23-.96.14-.2.25-.39.31-.55.04-.07.06-.15.07-.19.02-.05.03-.07.03-.07,0,0-.02-.01-.07-.03-.04-.02-.11-.06-.18-.09-.16-.07-.37-.14-.61-.18-.48-.09-1.05-.06-1.56.14-.21.08-.41.2-.6.33.42-.75.89-1.47,1.41-2.15.03.02.05.04.08.06.14.09.34.2.56.29.46.18,1.03.24,1.56.13.54-.11,1.03-.39,1.38-.73.17-.17.31-.35.41-.49.05-.06.08-.13.11-.17.02-.04.04-.06.04-.06,0,0-.02-.02-.06-.05-.04-.03-.1-.08-.17-.12-.14-.09-.34-.2-.56-.29-.45-.18-1.02-.24-1.56-.13-.23.05-.45.13-.66.23.32-.35.66-.68,1.01-1,.04-.04.07-.08.09-.12.02,0,.04,0,.07,0,.49.04,1.05-.06,1.53-.32.48-.25.88-.67,1.12-1.09.12-.21.2-.42.25-.58.03-.07.04-.15.05-.2.01-.05.02-.07.02-.07,0,0-.02,0-.07-.03-.04-.02-.12-.05-.19-.07-.16-.05-.38-.09-.62-.12-.48-.04-1.05.06-1.53.31-.49.25-.88.66-1.12,1.09-.07.13-.12.25-.17.36-.06.02-.12.06-.18.11-.87.79-1.65,1.67-2.35,2.6.02-.21.02-.42-.02-.62-.08-.54-.34-1.05-.66-1.42-.16-.18-.33-.33-.46-.43-.06-.05-.13-.09-.17-.11-.04-.03-.06-.04-.06-.04,0,0-.02.02-.05.06-.03.04-.09.09-.13.16-.1.14-.21.33-.31.55-.2.44-.29,1.01-.21,1.55.08.54.34,1.05.66,1.42.14.16.28.28.4.38-.67,1.11-1.23,2.29-1.66,3.51-.03-.34-.11-.68-.26-.99-.23-.49-.63-.91-1.05-1.16-.21-.13-.41-.22-.57-.28-.07-.03-.15-.05-.19-.06-.05-.01-.07-.02-.07-.02,0,0-.01.02-.03.07-.02.04-.05.11-.08.19-.06.16-.11.37-.14.62-.06.48.01,1.05.25,1.54.23.49.63.91,1.04,1.17.21.13.41.22.57.28.03.02.06.02.09.03-.65,2.36-.85,4.84-.56,7.27-.47-.73-.97-1.46-1.48-2.17.03-.03.06-.05.09-.08.12-.12.27-.28.41-.48.28-.4.47-.94.49-1.49.02-.54-.14-1.1-.39-1.51-.13-.21-.26-.38-.38-.51-.05-.06-.11-.11-.15-.14-.04-.03-.05-.05-.05-.05,0,0-.02.02-.06.05-.03.03-.1.08-.15.13-.12.12-.27.28-.41.48-.28.4-.47.94-.49,1.49-.01.25.02.51.08.75-.59-.77-1.21-1.54-1.87-2.3,0,0,0,0,.01,0,.03-.03.1-.08.15-.13.12-.12.27-.28.41-.48.28-.4.47-.94.49-1.49.02-.54-.14-1.1-.39-1.51-.13-.21-.26-.38-.38-.51-.05-.06-.11-.11-.15-.14-.04-.03-.05-.05-.05-.05,0,0-.02.02-.06.05-.03.03-.1.08-.15.13-.12.12-.27.28-.41.48-.28.4-.47.94-.49,1.49-.02.5.12,1,.33,1.41-.93-1.02-1.92-2-2.96-2.89.03-.03.07-.05.11-.09.12-.12.27-.28.41-.48.28-.4.47-.94.49-1.49.02-.54-.14-1.1-.39-1.51-.13-.21-.26-.38-.38-.51-.05-.06-.11-.11-.15-.14-.04-.03-.05-.05-.05-.05,0,0-.02.02-.06.05-.03.03-.1.08-.15.13-.12.12-.27.28-.41.48-.28.4-.47.94-.49,1.49-.02.55.14,1.1.39,1.51.03.06.07.1.11.15-.43-.34-.87-.66-1.31-.97-.06-.13-.13-.27-.22-.42-.26-.41-.68-.8-1.18-1.02-.49-.23-1.07-.29-1.55-.23-.24.04-.46.09-.61.15-.08.02-.15.06-.19.08-.04.02-.07.03-.07.03,0,0,0,.02.02.07.02.04.03.12.06.19.06.16.15.36.29.56.26.41.68.8,1.18,1.03.45.21.97.27,1.42.23,1.14.74,2.21,1.61,3.22,2.57-.26-.09-.54-.15-.82-.15-.54-.02-1.1.14-1.52.39-.21.13-.38.26-.51.38-.06.05-.11.11-.14.15-.03.04-.05.05-.05.05,0,0,.02.02.05.06.03.03.08.1.13.15.12.12.28.27.48.41.4.28.94.48,1.48.49.55.02,1.1-.13,1.52-.38.21-.13.39-.26.51-.38,0,0,0,0,.01-.01.77.82,1.51,1.67,2.21,2.53-.39-.25-.89-.43-1.41-.44-.54-.02-1.1.14-1.52.39-.21.13-.38.26-.51.38-.06.05-.11.11-.14.15-.03.04-.05.05-.05.05,0,0,.02.02.05.06.03.03.08.1.13.15.12.12.28.27.48.41.4.28.94.48,1.48.49.55.02,1.1-.13,1.52-.38.21-.13.39-.26.51-.38.04-.03.06-.06.09-.09.16.21.33.42.49.62.47.61.92,1.23,1.36,1.86-.33-.16-.71-.26-1.1-.27-.54-.02-1.1.14-1.52.39-.21.13-.38.26-.51.38-.06.05-.11.11-.14.15-.03.04-.05.05-.05.05,0,0,.02.02.05.06.03.03.08.1.13.15.12.12.28.27.48.41.4.28.94.48,1.48.49.55.02,1.1-.13,1.52-.38.17-.1.3-.21.42-.3.84,1.29,1.62,2.62,2.34,3.98-.28-.31-.64-.59-1.07-.74-.51-.19-1.09-.21-1.56-.11-.24.05-.45.13-.6.2-.07.03-.14.07-.18.09-.04.02-.07.04-.07.04,0,0,0,.02.03.07.02.04.04.12.08.19.07.15.18.35.33.54.29.39.74.75,1.26.93.51.19,1.08.21,1.56.11.24-.05.45-.13.6-.2.07-.03.13-.06.17-.09.84,1.67,1.59,3.39,2.25,5.14,0,0-.02-.02-.03-.03-.42-.35-.96-.55-1.44-.6-.24-.03-.47-.02-.63,0-.08,0-.16.02-.2.03-.05,0-.07.01-.07.01,0,0,0,.03,0,.07,0,.05,0,.13.01.2.02.17.06.39.14.62.15.46.46.95.89,1.29.42.35.96.55,1.44.61.24.02.47.02.63,0,.02,0,.03,0,.04,0,.69,2.03,1.26,4.09,1.75,6.18-2.1-4.5-5.32-8.37-10.11-10.28,0-.01,0-.02,0-.04.03-.17.04-.39.03-.63-.03-.49-.2-1.03-.53-1.47-.32-.44-.79-.78-1.24-.96-.23-.09-.44-.14-.61-.17-.08-.02-.16-.02-.2-.02-.05,0-.07,0-.07,0,0,0,0,.03-.02.07,0,.05-.03.12-.04.2-.03.17-.04.39-.03.63.03.49.2,1.03.53,1.47.07.1.15.19.23.28-1.14-.3-2.33-.49-3.51-.53,0-.16,0-.34-.03-.55-.08-.48-.31-1.01-.67-1.41-.36-.41-.86-.7-1.33-.83-.24-.06-.46-.1-.62-.11-.08,0-.16,0-.2,0-.05,0-.07,0-.07,0,0,0,0,.03,0,.07,0,.05-.02.12-.02.2,0,.17,0,.39.04.63.08.48.31,1.01.67,1.41.22.25.49.45.77.6-.4.03-.79.07-1.18.14-.16.03-.26.11-.32.22-.04,0-.08,0-.12-.01-.49-.01-1.05.11-1.51.4-.47.28-.84.72-1.06,1.15-.11.22-.18.43-.22.59-.02.08-.03.15-.04.2,0,.05-.01.07-.01.07,0,0,.02,0,.07.02.04.01.12.04.2.06.16.04.38.07.63.08.49.01,1.05-.11,1.51-.4.47-.28.84-.71,1.06-1.15.04-.08.07-.16.1-.24,0,0,0,0,0,0,1.14-.21,2.47-.17,3.8.03-.27.07-.53.17-.77.32-.47.28-.84.72-1.06,1.15-.11.22-.18.43-.22.59-.02.08-.03.15-.04.2,0,.05-.01.07-.01.07,0,0,.02,0,.07.02.04.01.12.04.2.06.16.04.38.07.63.08.49.01,1.05-.11,1.51-.4.47-.28.84-.71,1.06-1.15.11-.22.18-.43.22-.59,0-.02,0-.03.01-.05.61.15,1.2.32,1.76.52.71.25,1.38.56,2.03.9-.11-.02-.23-.03-.36-.03-.49-.01-1.05.11-1.51.4-.47.28-.84.72-1.06,1.15-.11.22-.18.43-.22.59-.02.08-.03.15-.04.2,0,.05-.01.07-.01.07,0,0,.02,0,.07.02.04.01.12.04.2.06.16.04.38.07.63.08.49.01,1.05-.11,1.51-.4.47-.28.84-.71,1.06-1.15.11-.22.18-.43.22-.59.01-.04.02-.08.02-.12,1.1.65,2.09,1.43,2.99,2.32-.13-.02-.28-.04-.45-.05-.49-.01-1.05.11-1.51.4-.47.28-.84.72-1.06,1.15-.11.22-.18.43-.22.59-.02.08-.03.15-.04.2,0,.05-.01.07-.01.07,0,0,.02,0,.07.02.04.01.12.04.2.06.16.04.38.07.63.08.49.01,1.05-.11,1.51-.4.47-.28.84-.71,1.06-1.15.11-.22.18-.43.22-.59h0c2.71,2.85,4.5,6.65,5.62,10.42.05.17.16.27.29.32.06.41.13.81.19,1.22.09.66,1.13.64,1.04-.02-.87-6.14-2.45-12.17-4.93-17.81.03-.01.04-.01.07-.03.15-.07.35-.18.54-.33Z"/>
  </g>
  <g>
    <path class="cls-26" d="m174.51,97.22c-.62,2.72-.97,5.42-.67,7.54-.31-2.13.04-4.83.67-7.54Z"/>
    <path class="cls-26" d="m174.37,106.67c-.27-.56-.44-1.21-.53-1.91.11.71.28,1.35.53,1.91Z"/>
    <path class="cls-26" d="m189.82,108.25h-14.21c-.55-.39-.95-.93-1.24-1.57-.26-.56-.43-1.21-.53-1.91-.3-2.13.05-4.83.67-7.54.1-.42.2-.84.31-1.26.04-.17.09-.33.13-.49.03-.1.05-.2.09-.31.07-.28.16-.56.24-.84.03-.09.05-.18.09-.27.04-.16.1-.31.14-.47.03-.09.05-.18.09-.27.14-.45.28-.88.43-1.31.11-.33.21-.65.32-.96.17-.5.34-.98.51-1.44.06-.16.12-.32.18-.47.01-.04.03-.09.04-.13.06-.15.12-.3.18-.45.04-.12.09-.24.13-.34.06-.19.14-.36.2-.53.11-.26.2-.5.29-.72.52-1.28.88-2.06.88-2.06h7.94s8.79,19.33,3.14,23.36Z"/>
  </g>
  <rect class="cls-24" x="128.13" y="4.59" width="19.4" height="23.35" transform="translate(.35 35.23) rotate(-14.59)"/>
  <rect class="cls-27" x="129.75" y="6.21" width="16.15" height="20.1" transform="translate(.35 35.23) rotate(-14.59)"/>
  <rect class="cls-26" x="134.45" y="10.91" width="6.76" height="10.71" transform="translate(.35 35.23) rotate(-14.59)"/>
  <path class="cls-18" d="m79.01,78.61s0-.04-.01-.06c-.03-.15-.06-.3-.09-.45,0-.04-.02-.08-.02-.12-.03-.17-.06-.33-.09-.49,0-.03-.01-.06-.02-.09-.02-.13-.04-.26-.06-.38,0-.05-.01-.09-.02-.14-.02-.15-.04-.3-.06-.44-.22-2.52.1-7.04-.42-7.31-.41-.22-.81.31-2.06.09-3.7-.64-6.38-.51-6.85-.41-.47,0-3.13.44-6.61,1.83-.13.05-.26.09-.38.13-.04.01-.07.02-.11.03-.08.02-.15.03-.22.05-.04,0-.07.01-.1.02-.07,0-.14.01-.2.02-.02,0-.05,0-.07,0-.45.01-.73-.08-.95.1-.45.37.81,4.73,1.12,7.24.22,2.52-.1,7.04.42,7.31.41.22.81-.31,2.06-.09,3.7.64,6.37.38,6.83.28.47,0,3.14-.31,6.62-1.7,1.18-.47,1.68-.04,2.03-.34.15-.13.1-.72-.03-1.53,0-.03,0-.05-.01-.08-.17-.97-.45-2.24-.7-3.46Z"/>
  <path class="cls-18" d="m181.79,100.63c-.28-.05-.47.17-.87.39-.02.01-.04.02-.07.03-.06.03-.12.06-.18.08-.03.01-.07.03-.1.04-.07.03-.14.05-.22.07-.04.01-.07.02-.11.03-.12.03-.24.06-.39.08-3.71.54-6.23,1.5-6.64,1.73-.45.15-2.84,1.38-5.72,3.79-.97.81-1.58.56-1.83.95-.31.49,2.23,4.24,3.31,6.54.06.13.11.27.17.41.02.04.03.08.05.12.05.12.09.24.14.37,0,.03.02.05.03.08.06.16.11.32.17.48,0,.03.02.06.03.08.06.16.11.32.17.49,0,0,0,0,0,0,.75,2.22,1.48,4.71,1.91,4.78.46.08.67-.55,1.93-.73,3.71-.54,6.17-1.61,6.58-1.85.45-.15,2.89-1.27,5.77-3.67.97-.81,1.58-.56,1.83-.95.31-.49-2.23-4.24-3.3-6.54-.99-2.33-2.09-6.73-2.66-6.82Z"/>
  <path class="cls-25" d="m133.6,71.01c-.23-.17-.5-.07-.95-.07-.02,0-.05,0-.07,0-.06,0-.13,0-.2,0-.03,0-.07,0-.11-.01-.07,0-.15-.02-.23-.04-.04,0-.07-.01-.11-.02-.12-.03-.24-.06-.38-.11-3.53-1.27-6.2-1.61-6.67-1.6-.46-.08-3.15-.11-6.83.65-1.24.26-1.66-.25-2.06-.02-.51.29-.03,4.79-.16,7.32-.01.14-.03.29-.05.44,0,.04-.01.09-.02.13-.02.13-.03.26-.05.39,0,.03,0,.06-.01.08-.02.16-.05.33-.07.5,0,.03,0,.06-.01.09-.03.17-.05.34-.08.51,0,0,0,0,0,0-.38,2.32-.91,4.85-.57,5.12.37.28.85-.16,2.04.27,3.53,1.27,6.21,1.48,6.68,1.47.47.08,3.15.24,6.82-.53,1.24-.26,1.66.25,2.06.02.5-.29.03-4.79.16-7.32.22-2.52,1.32-6.92.86-7.27Z"/>
  <path class="cls-26" d="m121.06,71.01c-.23-.17-.5-.07-.95-.07-.02,0-.05,0-.07,0-.06,0-.13,0-.2,0-.03,0-.07,0-.11-.01-.07,0-.15-.02-.23-.04-.04,0-.07-.01-.11-.02-.12-.03-.24-.06-.38-.11-3.53-1.27-6.2-1.61-6.67-1.59-.46-.08-3.15-.11-6.83.65-1.24.26-1.66-.25-2.06-.02-.5.29-.03,4.79-.16,7.32-.01.14-.03.29-.05.44,0,.04-.01.09-.02.13-.02.13-.03.26-.05.39,0,.03,0,.06-.01.08-.02.16-.05.33-.07.5,0,.03,0,.06-.01.09-.03.17-.05.34-.08.51,0,0,0,0,0,0-.38,2.32-.91,4.85-.57,5.12.37.28.85-.16,2.04.27,3.53,1.27,6.21,1.48,6.68,1.47.47.08,3.15.24,6.82-.53,1.24-.26,1.66.25,2.06.02.5-.29.03-4.79.16-7.32.22-2.52,1.32-6.92.86-7.27Z"/>
  <path class="cls-23" d="m126.42,107.49c-.23-.17-.5-.07-.95-.07-.02,0-.05,0-.07,0-.06,0-.13,0-.2,0-.03,0-.07,0-.11-.01-.07,0-.15-.02-.23-.04-.04,0-.07-.01-.11-.02-.12-.03-.24-.06-.38-.11-3.53-1.27-6.2-1.61-6.67-1.59-.46-.08-3.15-.11-6.83.65-1.24.26-1.66-.25-2.06-.02-.5.29-.03,4.79-.16,7.32-.01.14-.03.29-.05.44,0,.04-.01.09-.02.13-.02.13-.03.26-.05.39,0,.03,0,.06-.01.08-.02.16-.05.33-.07.5,0,.03,0,.06-.01.09-.03.17-.05.34-.08.51,0,0,0,0,0,0-.38,2.32-.91,4.85-.57,5.12.37.28.85-.16,2.04.27,3.53,1.27,6.21,1.48,6.68,1.47.47.08,3.15.24,6.82-.53,1.24-.26,1.66.25,2.06.02.5-.29.03-4.79.16-7.32.22-2.52,1.32-6.92.86-7.27Z"/>
  <rect class="cls-24" x="67.03" y="40.99" width="54.14" height="3.03"/>
  <rect class="cls-22" x="73.16" y="7.8" width="24.59" height="32.37"/>
  <rect class="cls-19" x="75.58" y="9.87" width="19.76" height="28.22"/>
  <rect class="cls-26" x="78.94" y="14.67" width="13.04" height="18.62"/>
  <rect class="cls-22" x="89.83" y="18.9" width="16.15" height="21.27"/>
  <rect class="cls-20" x="93.62" y="23.41" width="8.57" height="12.24"/>
  <rect class="cls-22" x="109.63" y="26.38" width="10.47" height="13.78"/>
  <rect class="cls-26" x="112.09" y="29.31" width="5.55" height="7.93"/>
  <rect class="cls-22" x="68.89" y="26.38" width="10.47" height="13.78"/>
  <rect class="cls-26" x="71.35" y="29.31" width="5.55" height="7.93"/>
  <circle class="cls-4" cx="55.75" cy="111.68" r="6.54"/>
  <circle class="cls-4" cx="96.31" cy="82.01" r="4.41"/>
  <circle class="cls-4" cx="86.95" cy="82.01" r="4.41"/>
  <circle class="cls-4" cx="90.3" cy="82.01" r="4.41"/>
  <rect class="cls-16" x="-824.72" y="-2712.47" width="2244.45" height="5948.74"/>
</svg>