<?xml version="1.0" encoding="UTF-8"?>
<svg id="Calque_1" data-name="Calque 1" xmlns="http://www.w3.org/2000/svg" viewBox="0 0 200 128">
  <defs>
    <style>
      .cls-1, .cls-2, .cls-3, .cls-4, .cls-5, .cls-6, .cls-7, .cls-8, .cls-9, .cls-10, .cls-11 {
        stroke-linecap: round;
        stroke-linejoin: round;
      }

      .cls-1, .cls-2, .cls-3, .cls-4, .cls-5, .cls-6, .cls-8, .cls-9, .cls-10, .cls-12, .cls-13, .cls-14, .cls-15, .cls-16, .cls-17 {
        stroke: #000;
      }

      .cls-1, .cls-14 {
        fill: #d6d6d6;
      }

      .cls-2 {
        fill: #87f3b9;
      }

      .cls-3, .cls-16 {
        fill: #baa584;
      }

      .cls-4, .cls-15 {
        fill: #a07637;
      }

      .cls-5 {
        fill: #fce9b9;
      }

      .cls-6, .cls-12 {
        fill: #ff6d75;
      }

      .cls-7 {
        stroke: #f3d587;
      }

      .cls-7, .cls-8 {
        fill: #f3d587;
      }

      .cls-9, .cls-13 {
        fill: #fff;
      }

      .cls-10, .cls-17 {
        fill: #fab0b4;
      }

      .cls-12, .cls-13, .cls-14, .cls-15, .cls-16, .cls-17 {
        stroke-miterlimit: 10;
      }

      .cls-11 {
        fill: none;
        stroke: #fff;
        stroke-width: 8px;
      }
    </style>
  </defs>
  <g>
    <polygon class="cls-1" points="161.54 60.55 161.54 62.43 170.86 62.43 170.86 60.58 161.54 60.55"/>
    <rect class="cls-1" x="160.01" y="62.43" width="12.38" height="1.53"/>
    <rect class="cls-1" x="139.86" y="33.52" width="54.59" height="27.06"/>
    <rect class="cls-9" x="142.16" y="35.39" width="50.01" height="23.33"/>
    <rect class="cls-1" x="142.99" y="66.33" width="48.59" height="28.47"/>
    <rect class="cls-3" x="140.52" y="63.83" width="52.15" height="2.5"/>
    <rect class="cls-1" x="145.23" y="69.28" width="44.31" height="6.94"/>
    <rect class="cls-1" x="145.23" y="77.65" width="44.31" height="6.94"/>
    <rect class="cls-1" x="145.23" y="86.1" width="44.31" height="6.94"/>
    <polygon class="cls-9" points="147 94.79 146.04 100.65 148.36 100.65 150.41 94.79 147 94.79"/>
    <polygon class="cls-3" points="184.22 94.79 185.18 100.65 182.86 100.65 180.81 94.79 184.22 94.79"/>
    <path class="cls-3" d="m168.52,72.76c0,.63-.51,1.14-1.14,1.14s-1.14-.51-1.14-1.14.51-1.14,1.14-1.14,1.14.51,1.14,1.14Z"/>
    <path class="cls-3" d="m168.52,81.12c0,.63-.51,1.14-1.14,1.14s-1.14-.51-1.14-1.14.51-1.14,1.14-1.14,1.14.51,1.14,1.14Z"/>
    <path class="cls-3" d="m168.52,89.58c0,.63-.51,1.14-1.14,1.14s-1.14-.51-1.14-1.14.51-1.14,1.14-1.14,1.14.51,1.14,1.14Z"/>
  </g>
  <rect class="cls-14" x="6.03" y="35.92" width="24.75" height="71.47"/>
  <rect class="cls-13" x="7.91" y="37.88" width="20.97" height="20.97"/>
  <rect class="cls-13" x="7.91" y="61.34" width="20.97" height="20.97"/>
  <rect class="cls-14" x="7.91" y="85.63" width="20.97" height="9.03"/>
  <rect class="cls-13" x="14.29" y="89.46" width="8.23" height="1.37"/>
  <g>
    <rect class="cls-14" x="6.03" y="107.39" width="6.54" height="2.13"/>
    <rect class="cls-14" x="24.23" y="107.39" width="6.54" height="2.13"/>
  </g>
  <rect class="cls-10" x="12.62" y="74.33" width="11.57" height="3.84"/>
  <rect class="cls-6" x="12.62" y="78.17" width="11.57" height="3.84"/>
  <rect class="cls-10" x="12.62" y="66.57" width="11.57" height="3.84"/>
  <rect class="cls-6" x="12.62" y="70.41" width="11.57" height="3.84"/>
  <rect class="cls-2" x="12.62" y="50.85" width="11.57" height="3.84"/>
  <rect class="cls-8" x="12.62" y="54.69" width="11.57" height="3.84"/>
  <rect class="cls-2" x="12.62" y="42.95" width="11.57" height="3.84"/>
  <rect class="cls-8" x="12.62" y="46.79" width="11.57" height="3.84"/>
  <path class="cls-5" d="m53.5,59.61h42.85c1.14,0,2.07.93,2.07,2.07v29.06c0,1.14-.93,2.07-2.07,2.07h-42.85c-1.15,0-2.08-.93-2.08-2.08v-29.05c0-1.15.93-2.08,2.08-2.08Z"/>
  <path class="cls-5" d="m145.36,61.68v29.06c0,1.15-.93,2.07-2.07,2.07h-42.85c-1.15,0-2.08-.93-2.08-2.07v-29.06c0-1.15.93-2.08,2.08-2.08h42.85c.13,0,.25.01.37.03.97.18,1.7,1.02,1.7,2.04Z"/>
  <rect class="cls-5" x="51.42" y="86.47" width="93.53" height="17.22"/>
  <rect class="cls-8" x="59.56" y="85.7" width="78" height="1.94"/>
  <path class="cls-7" d="m61.33,64.78c0,.49-.4.88-.88.88s-.88-.4-.88-.88.4-.88.88-.88.88.4.88.88Z"/>
  <path class="cls-7" d="m90.3,64.78c0,.49-.4.88-.88.88s-.88-.4-.88-.88.4-.88.88-.88.88.4.88.88Z"/>
  <path class="cls-7" d="m138.45,64.78c0,.49-.4.88-.88.88s-.88-.4-.88-.88.4-.88.88-.88.88.4.88.88Z"/>
  <path class="cls-7" d="m107.13,64.78c0,.49-.4.88-.88.88s-.88-.4-.88-.88.4-.88.88-.88.88.4.88.88Z"/>
  <path class="cls-7" d="m90.3,82.24c0,.49-.4.88-.88.88s-.88-.4-.88-.88.4-.88.88-.88.88.4.88.88Z"/>
  <path class="cls-7" d="m134.67,82.24c0,.49-.4.88-.88.88s-.88-.4-.88-.88.4-.88.88-.88.88.4.88.88Z"/>
  <path class="cls-7" d="m107.13,82.24c0,.49-.4.88-.88.88s-.88-.4-.88-.88.4-.88.88-.88.88.4.88.88Z"/>
  <path class="cls-7" d="m66.69,82.24c0,.49-.4.88-.88.88s-.88-.4-.88-.88.4-.88.88-.88.88.4.88.88Z"/>
  <path class="cls-7" d="m76.16,72.76c0,.49-.4.88-.88.88s-.88-.4-.88-.88.4-.88.88-.88.88.4.88.88Z"/>
  <path class="cls-7" d="m122.74,72.76c0,.49-.4.88-.88.88s-.88-.4-.88-.88.4-.88.88-.88.88.4.88.88Z"/>
  <path class="cls-1" d="m58.55,100.11c0,1.12-5.26,2.04-11.75,2.04s-11.76-.92-11.76-2.04,4.87-1.97,11.01-2.03V13.6h2.18v84.49c5.81.12,10.32.97,10.32,2.02Z"/>
  <polygon class="cls-10" points="42.16 7.04 33.13 30.41 61.15 30.41 52.75 7.04 42.16 7.04"/>
  <rect class="cls-9" x="41.26" y="30.41" width=".25" height="12.72"/>
  <ellipse class="cls-1" cx="41.31" cy="43.65" rx=".69" ry="1.02"/>
  <path class="cls-8" d="m59.56,79.6v22.54c0,2.22-1.8,4.01-4.01,4.01h-6.76c-2.22,0-4.01-1.8-4.01-4.01v-22.54c0-2.22,1.8-4.01,4.01-4.01h6.76c.26,0,.52.03.77.07,1.85.36,3.24,1.98,3.24,3.94Z"/>
  <rect class="cls-8" x="137.56" y="75.59" width="14.79" height="30.57" rx="4.01" ry="4.01"/>
  <path class="cls-12" d="m79.01,78.61s0-.04-.01-.06c-.03-.15-.06-.3-.09-.45,0-.04-.02-.08-.02-.12-.03-.17-.06-.33-.09-.49,0-.03-.01-.06-.02-.09-.02-.13-.04-.26-.06-.38,0-.05-.01-.09-.02-.14-.02-.15-.04-.3-.06-.44-.22-2.52.1-7.04-.42-7.31-.41-.22-.81.31-2.06.09-3.7-.64-6.38-.51-6.85-.41-.47,0-3.13.44-6.61,1.83-.13.05-.26.09-.38.13-.04.01-.07.02-.11.03-.08.02-.15.03-.22.05-.04,0-.07.01-.1.02-.07,0-.14.01-.2.02-.02,0-.05,0-.07,0-.45.01-.73-.08-.95.1-.45.37.81,4.73,1.12,7.24.22,2.52-.1,7.04.42,7.31.41.22.81-.31,2.06-.09,3.7.64,6.37.38,6.83.28.47,0,3.14-.31,6.62-1.7,1.18-.47,1.68-.04,2.03-.34.15-.13.1-.72-.03-1.53,0-.03,0-.05-.01-.08-.17-.97-.45-2.24-.7-3.46Z"/>
  <path class="cls-12" d="m133.6,71.01c-.23-.17-.5-.07-.95-.07-.02,0-.05,0-.07,0-.06,0-.13,0-.2,0-.03,0-.07,0-.11-.01-.07,0-.15-.02-.23-.04-.04,0-.07-.01-.11-.02-.12-.03-.24-.06-.38-.11-3.53-1.27-6.2-1.61-6.67-1.6-.46-.08-3.15-.11-6.83.65-1.24.26-1.66-.25-2.06-.02-.51.29-.03,4.79-.16,7.32-.01.14-.03.29-.05.44,0,.04-.01.09-.02.13-.02.13-.03.26-.05.39,0,.03,0,.06-.01.08-.02.16-.05.33-.07.5,0,.03,0,.06-.01.09-.03.17-.05.34-.08.51,0,0,0,0,0,0-.38,2.32-.91,4.85-.57,5.12.37.28.85-.16,2.04.27,3.53,1.27,6.21,1.48,6.68,1.47.47.08,3.15.24,6.82-.53,1.24-.26,1.66.25,2.06.02.5-.29.03-4.79.16-7.32.22-2.52,1.32-6.92.86-7.27Z"/>
  <rect class="cls-16" x="67.03" y="40.99" width="54.14" height="3.03"/>
  <rect class="cls-15" x="73.16" y="8.62" width="24.59" height="32.37"/>
  <rect class="cls-13" x="75.58" y="10.69" width="19.76" height="28.22"/>
  <rect class="cls-17" x="78.94" y="15.49" width="13.04" height="18.62"/>
  <rect class="cls-15" x="103.98" y="27.21" width="10.47" height="13.78"/>
  <rect class="cls-17" x="106.44" y="30.13" width="5.55" height="7.93"/>
  <rect class="cls-4" x="155.42" y="25.01" width="27.69" height="1.46"/>
  <rect class="cls-6" x="162.57" y="22.08" width="14.52" height="2.93"/>
  <rect class="cls-10" x="162.57" y="19.15" width="14.52" height="2.93"/>
  <rect class="cls-8" x="162.57" y="16.23" width="14.52" height="2.93"/>
  <rect class="cls-11" x="-1084.4" y="-2712.47" width="2244.45" height="5948.74"/>
</svg>