<?xml version="1.0" encoding="UTF-8"?>
<svg id="Calque_1" data-name="Calque 1" xmlns="http://www.w3.org/2000/svg" viewBox="0 0 200 128">
  <defs>
    <style>
      .cls-1, .cls-2, .cls-3, .cls-4, .cls-5, .cls-6, .cls-7, .cls-8, .cls-9, .cls-10, .cls-11 {
        stroke-linecap: round;
        stroke-linejoin: round;
      }

      .cls-1, .cls-2, .cls-3, .cls-5, .cls-6, .cls-12, .cls-7, .cls-8, .cls-9, .cls-10, .cls-13, .cls-14, .cls-15, .cls-16 {
        stroke: #000;
      }

      .cls-1, .cls-8, .cls-13 {
        fill: #d6d6d6;
      }

      .cls-2, .cls-17, .cls-18 {
        fill: #b2f0e9;
      }

      .cls-3 {
        fill: #fce9b9;
      }

      .cls-4 {
        stroke: #f3d587;
      }

      .cls-4, .cls-5, .cls-9, .cls-15 {
        fill: #f3d587;
      }

      .cls-6, .cls-10, .cls-14 {
        fill: #fff;
      }

      .cls-12 {
        stroke-width: .25px;
      }

      .cls-12, .cls-8, .cls-9, .cls-10, .cls-13, .cls-14, .cls-15, .cls-16, .cls-18 {
        fill-rule: evenodd;
      }

      .cls-12, .cls-13, .cls-14, .cls-15, .cls-16 {
        stroke-miterlimit: 10;
      }

      .cls-7 {
        fill: #fab0b4;
      }

      .cls-16 {
        fill: #a07637;
      }

      .cls-11 {
        fill: none;
        stroke: #fff;
        stroke-width: 8px;
      }
    </style>
  </defs>
  <rect class="cls-17" x="1.94" y="2.01" width="146.28" height="91.4"/>
  <line class="cls-2" x1="1.94" y1="93.41" x2="147.82" y2="93.41"/>
  <path class="cls-10" d="m162.73,56.07l-1.68,2.95-1.73.71c-.1.04-.18.1-.23.18-.06.08-.11.18-.14.28l-.55,2c-.03.11,0,.22.06.31h0s.76,1.11.76,1.11l.07,1v.42s.03,0,.03,0v.03c.22.11,1.6-.22,2.74-.53l.6-.21c.3-.11,1.13-3.22,1.08-3.29l1.88-3.1,4.88-6.93c1.21-1.9,2.23-2.4,1.75-5.62l-5.56-.97c.85,2.12.34,2.83-.67,4.75l-3.28,6.92-.06-.04"/>
  <path class="cls-3" d="m53.5,59.61h42.84c1.15,0,2.08.93,2.08,2.08v29.06c0,1.14-.93,2.07-2.07,2.07h-42.85c-1.15,0-2.08-.93-2.08-2.08v-29.05c0-1.15.93-2.08,2.08-2.08Z"/>
  <path class="cls-3" d="m145.36,61.68v29.06c0,1.15-.93,2.07-2.07,2.07h-42.85c-1.15,0-2.08-.93-2.08-2.07v-29.06c0-1.15.93-2.08,2.08-2.08h42.85c.13,0,.25.01.37.03.97.18,1.7,1.02,1.7,2.04Z"/>
  <rect class="cls-3" x="51.42" y="86.47" width="93.53" height="17.22"/>
  <rect class="cls-5" x="59.56" y="85.7" width="78" height="1.94"/>
  <path class="cls-4" d="m61.33,64.78c0,.49-.4.88-.88.88s-.88-.4-.88-.88.4-.88.88-.88.88.4.88.88Z"/>
  <path class="cls-4" d="m90.3,64.78c0,.49-.4.88-.88.88s-.88-.4-.88-.88.4-.88.88-.88.88.4.88.88Z"/>
  <path class="cls-4" d="m138.45,64.78c0,.49-.4.88-.88.88s-.88-.4-.88-.88.4-.88.88-.88.88.4.88.88Z"/>
  <path class="cls-4" d="m107.13,64.78c0,.49-.4.88-.88.88s-.88-.4-.88-.88.4-.88.88-.88.88.4.88.88Z"/>
  <path class="cls-4" d="m90.3,82.24c0,.49-.4.88-.88.88s-.88-.4-.88-.88.4-.88.88-.88.88.4.88.88Z"/>
  <path class="cls-4" d="m134.67,82.24c0,.49-.4.88-.88.88s-.88-.4-.88-.88.4-.88.88-.88.88.4.88.88Z"/>
  <path class="cls-4" d="m107.13,82.24c0,.49-.4.88-.88.88s-.88-.4-.88-.88.4-.88.88-.88.88.4.88.88Z"/>
  <path class="cls-4" d="m66.69,82.24c0,.49-.4.88-.88.88s-.88-.4-.88-.88.4-.88.88-.88.88.4.88.88Z"/>
  <path class="cls-4" d="m76.16,72.76c0,.49-.4.88-.88.88s-.88-.4-.88-.88.4-.88.88-.88.88.4.88.88Z"/>
  <path class="cls-4" d="m122.74,72.76c0,.49-.4.88-.88.88s-.88-.4-.88-.88.4-.88.88-.88.88.4.88.88Z"/>
  <path class="cls-1" d="m58.55,100.11c0,1.12-5.26,2.04-11.75,2.04s-11.76-.92-11.76-2.04,4.87-1.97,11.01-2.03V13.6h2.18v84.49c5.81.12,10.32.97,10.32,2.02Z"/>
  <polygon class="cls-7" points="42.16 7.04 33.13 30.41 61.15 30.41 52.75 7.04 42.16 7.04"/>
  <rect class="cls-6" x="41.26" y="30.41" width=".25" height="12.72"/>
  <ellipse class="cls-1" cx="41.31" cy="43.65" rx=".69" ry="1.02"/>
  <path class="cls-5" d="m59.56,79.6v22.54c0,2.22-1.8,4.01-4.01,4.01h-6.76c-2.22,0-4.01-1.8-4.01-4.01v-22.54c0-2.22,1.8-4.01,4.01-4.01h6.76c.26,0,.52.03.77.07,1.85.36,3.24,1.98,3.24,3.94Z"/>
  <rect class="cls-5" x="137.56" y="75.59" width="14.79" height="30.57" rx="4.01" ry="4.01"/>
  <path class="cls-18" d="m146.55,2.01h17.05l1.2,25c-.1-.03-.2-.03-.31.02-.42.18-.75,1.09-1.5,1.24-2.02.4-2.74-.74-3.84-.53-.52.1-1.51.18-2.06,1.46-.44,1.02-1.36.88-2.29.69-.81-.16-5.86.66-6.37,1.14-.13.12-.29.17-.47.34l-1.41-29.36Z"/>
  <path class="cls-10" d="m158.43,45.5l-1.76-8.81-1.79.34,1.76,8.81c.02.09.43.08.93-.02.49-.09.88-.24.87-.33Z"/>
  <path class="cls-10" d="m156.67,36.69c-.02-.09-.43-.08-.92.02-.5.09-.88.24-.87.33.02.09.43.08.93-.02.49-.09.88-.24.87-.33Z"/>
  <path class="cls-8" d="m148.03,28.95h0c-.24.05-.27.93-.07,1.96.2,1.04.55,1.84.79,1.8h0l12.15-2.33-.72-3.76-12.15,2.33Z"/>
  <path class="cls-10" d="m160.18,26.63c-.24.05-.27.93-.07,1.96.2,1.04.56,1.84.79,1.8.24-.05.27-.93.07-1.96-.2-1.04-.56-1.84-.79-1.8Z"/>
  <path class="cls-12" d="m160.48,28.3c-.11.08,0,.49.09.48l.74-.14.44,2.35-6.45,3.74c-.1.06-.14.17-.12.27l.36,1.86c.02.06.47-.01.48-.1l-.33-1.7,6.45-3.74h0c.09-.05.14-.15.12-.26l-.52-2.74s0-.01,0-.02c-.03-.13-.15-.22-.29-.2l-.98.19Z"/>
  <path class="cls-9" d="m166.48,108.46c2.01,1.22,5.2.2,7.21.01.68.45,1.78.14,2.19.06.92-.19.73-2.43.47-3.78-.21-1.09-.01-1.93.01-3.13l-3.83-.98c.18,1.96.37,2.65-.13,3.48-1.03,1.72-3.27,1.85-4.76,1.91-2.35.1-2.5,1.62-1.17,2.42Z"/>
  <path class="cls-8" d="m179.47,68.98c.72-2.85.88-3.95.55-5.82-.42-2.34-1.2-3.76-2.26-5.81l-9.66,3.02,1.14,5.47,1.77,14.77.78,23.59,5.31.55,1.14-16.61-1.51-7.67c.34-3.91,1.95-8.32,2.74-11.5Z"/>
  <path class="cls-9" d="m171.23,108.7c2.01,1.17,5.2.08,7.21-.16.68.43,1.78.1,2.19,0,.92-.21.73-2.45.47-3.79-.21-1.08-.01-1.93.01-3.13l-3.83-.89c.18,1.96.37,2.64-.13,3.49-1.03,1.75-3.27,1.92-4.76,2.02-2.35.15-2.5,1.67-1.17,2.45Z"/>
  <path class="cls-8" d="m173.04,68.78l1.32,11.63.09.68,1.96,23.77,5.33.55.33-17.27-.9-7.87c.19-3.91.3-7.75.97-10.93,1.32-6.17-1.17-7.39-1.79-11.98l-7.92,2.12.61,9.3Z"/>
  <path class="cls-9" d="m177.47,31.95c.38.3.86.44,1.8.87,2.75,1.24,3.44,2.12,4.21,3.47,1.72,3.01-1.76,12.63-3.04,21.43-2.7,3.25-11.85,2.83-12.35,2.65-1.16-6.36-.78-9.57-1.08-14.75-.15-2.68-.1-5.16.22-7.04.37-2.17.37-3.18,2.11-4.36.88-.6,1.44-1.22,1.99-1.97-.01,5.25,5.53-.79,6.13-.31Z"/>
  <path class="cls-10" d="m177.56,32.04c-.84.81-5.2,3.53-6.48,2.06.1-1.53.04-1.94-1.15-4.14l3.06-5.81,3.44-1.56c.65,2.91-.7,5.51-.12,7.85.17.68.82,1.27,1.25,1.6Z"/>
  <path class="cls-10" d="m171.54,30.84c1.77-.45,2.68-.81,3.09-1.26.26-.28.76-.35.99-.98.18-.5.65-.84,1.18-.86.55-.02,1.02-.06,1.03-.41.03-.61.31-1.24.31-1.91-.01-1.5-.28-2.99-.67-3.46-.09-.11-4.39-2.1-4.39-2.1l-3.02.81-1.68,1.49c-.35,1.03-.63,1.78-.63,2.72,0,.61.57.93.17,1.91-.29.71.31,1.76.61,2.93.16.63.03,1.27.21,1.49.41.49,1.37,0,2.79-.36Z"/>
  <path class="cls-9" d="m168.09,22.9c.6-2.99,2.65-6.06,7.26-4.16,2.9,1.2,3.44,4.06,2.78,7.13-2.77-3.55-8.45-3.84-10.04-2.96Z"/>
  <path class="cls-9" d="m167.77,24.79l-1.39-.85c-1.01-.56-.92-1.2.47-2.36.89-.75,1.34-.72,2.99-.19,2.46.78,5.92,1.51,7.75,3.25.81.77.9,1.85.46,2.66-.23.43-1.39.96-1.86,1.26.25-.49,1.25-1.24,1.33-1.8.1-.69-.11-1.35-.96-1.91-1.46-.97-3.87-1.7-5.83-2.14-1.41-.32-3.11.35-2.95,2.09Z"/>
  <path class="cls-10" d="m174.16,52.31c-.14,0-.34-.06-.56-.16.18.06.37.11.56.16Z"/>
  <path class="cls-10" d="m181.02,45.44c-.92,1.62-2.45,4.11-4.22,5.61-.81.69-1.68,1.17-2.55,1.26h-.1c-.19-.05-.38-.1-.56-.16-4.57-1.35-8.12-4.26-12.67-6.09.57-1.51.75-1.75.8-2.57,0,0,7.79,1.92,12.38,2.86.31-.58.81-1.95,1.95-5.45,1.75-5.42,3.11-8.03,6.37-5.87,3.91,2.7-.3,8.49-1.39,10.42Z"/>
  <path class="cls-10" d="m158.45,40.73c-.62-.35-.66-.31-1.33-.37-.53-.04-1.3-.2-1.39-.2-.13,0-1.32.44-1.32.44-.65.66-1.09.88-.81,1.25.17.23.57.05,1.38-.4l.47-.1c-.41.19-.73.33-.95.66-.19.29-.33.76.24,1.11.14.08.18-.05.3-.17l.31-.33c.51.05.97.08,1.49.1-.71.02-1.14.06-1.39.18-.35.17-.25.5-.14.82.15.45.79.05,1.84.18-.37.01-.89-.02-1.21.2-.3.21,0,.53.25.66.96.49,2.54,1.09,3.64,1.33.48.11.88.07,1.18.17.72.3,1.7.83,2.4,1.17l1.46-3.59-3.07-.74c-.26-.33-2.99-2.19-3.35-2.4Z"/>
  <path class="cls-12" d="m159.55,63.39h2.67c1.21,0,2.3.49,3.1,1.29s1.29,1.89,1.29,3.1h0c0,1.21-.49,2.3-1.29,3.1-.8.8-1.89,1.29-3.1,1.29h-2.67c-1.21,0-2.3-.49-3.1-1.29-.8-.8-1.29-1.89-1.29-3.1h0c0-1.21.49-2.3,1.29-3.1s1.89-1.29,3.1-1.29h0Zm2.67.45h-2.67c-1.08,0-2.07.44-2.78,1.16-.71.71-1.16,1.7-1.16,2.78h0c0,1.08.44,2.07,1.16,2.78.71.71,1.7,1.16,2.78,1.16h2.67c1.08,0,2.07-.44,2.78-1.16.71-.71,1.16-1.7,1.16-2.78h0c0-1.08-.44-2.07-1.16-2.78-.71-.71-1.7-1.16-2.78-1.16Z"/>
  <rect class="cls-6" x="154.84" y="71.38" width="11.86" height="10.97"/>
  <rect class="cls-2" x="157.59" y="73.92" width="6.37" height="5.89"/>
  <rect class="cls-1" x="154.31" y="68.18" width="12.92" height="3.62"/>
  <g>
    <path class="cls-10" d="m160.22,63.55h0c.3-.08.55.09.62.4l.13.63c.06.31-.01.62-.32.7h0c-.3.08-.6-.13-.66-.44l-.13-.63c-.06-.31.06-.58.36-.67Z"/>
    <path class="cls-10" d="m162.36,63.41h0c.24-.07.5.07.56.32l.1.5c.05.24-.08.49-.32.56h0c-.24.07-.5-.07-.56-.32l-.1-.5c-.05-.24.08-.49.32-.56Z"/>
    <path class="cls-10" d="m159.15,63.73h0c.3-.08.55.09.62.4l.13.63c.06.31-.01.62-.32.7h0c-.3.08-.6-.13-.66-.44l-.13-.63c-.06-.31.06-.58.36-.67Z"/>
    <path class="cls-10" d="m161.29,63.31h0c.3-.08.55.09.62.4l.13.63c.06.31-.01.62-.32.7h0c-.3.08-.6-.13-.66-.44l-.13-.63c-.06-.31.06-.58.36-.67Z"/>
  </g>
  <path class="cls-9" d="m181.12,45.48c-1.21-1.86-4.02-2.62-5.78-2.44.2-.61.44-1.32.7-2.15,1.75-5.42,3.1-8.04,6.37-5.87,3.9,2.7-.19,8.53-1.29,10.46Z"/>
  <polygon class="cls-16" points="89.82 118.76 115.92 108.96 142.45 113.14 121.85 124.32 89.82 118.76"/>
  <path class="cls-14" d="m104.82,90.94c1.91,1.97,3.83,3.93,5.73,5.91,2.82.44,2.76,1.04,4.88,2.99l7.55,6.97-.74,2.03-3.08-1.78-7.81-3.57-2.4-2.21c-4.6-2.86-9.16-5.76-13.72-8.67,2.21-4.01,3.56-6.13,6.2-5.18.79.28,1.83.85,3.39,3.52Z"/>
  <path class="cls-13" d="m105.19,90.75c.77.79,1.41,1.78,2.17,2.61l-4.27,4.45c-2.6-1.64-5.26-3.55-7.85-5.21,2.21-4.01,3.56-6.13,6.2-5.18.79.28,2.2.66,3.76,3.33Z"/>
  <path class="cls-15" d="m127.77,110.88l2.01.34-.48-1.01-1.69-1.23c-.47-.42-.94-.84-1.42-1.26l-2.8-1.05-3.01-2.58-2.65,2.52,2.58,1.11c1.1,1.61,1.6,1.96,3.3,2.21l.6.83c.54.97.67,1.93,1.37,1.73,1.38-.4.34-1.44.1-1.99-.08-.18-.14-.37-.21-.55h.04s2.25.95,2.25.95Z"/>
  <path class="cls-10" d="m113.55,77.75c-.13.87-.01,1.88-.2,2.85-.28,1.35-.73,1.91-.99,2.45-.22.46-.42.59-.66.7-.11.05-.26.1-.34.19-.62.72-.47,1.94-.68,2.11-.17.14-.75.13-1.22-.37-.23.18-.32.33-.26.66-.11.17-.36.26-.57.16-.63-.67-.78,0-.73.06.44.5.22.62-.01.7-.17-.09-.28-.09-.36-.03-.24.17-.24.96-.88,1.05-.53.08-1.25-1.19-1.83-2.42-1.08,1.04-1.2,1.58-3.26,2.83l-1.23.08-1.18-5.58,2.83-3.24c.91.59,1.9-1.38,3.68-1.37.19,0,.38.02.59.07.5.12.69.53,1.42,1,1.1.69,1.45.73,2.66.31l-.69-2.98-2.11-.55c1.39-.72,3.24-1.67,3.31-1.63.11.05,2.71,2.95,2.71,2.95Z"/>
  <path class="cls-10" d="m110.33,79.96c-1.21.42-1.56.38-2.66-.31-.73-.47-.92-.88-1.42-1-.21-.05-.4-.07-.59-.07l.36-1.36s.67-.35,1.51-.79l2.11.55.69,2.98Z"/>
  <path class="cls-10" d="m110.33,79.96c-1.21.42-1.56.38-2.66-.31-.73-.47-.92-.88-1.42-1-.21-.05-.4-.07-.59-.07-1.78-.01-2.77,1.96-3.68,1.37.38-2.16.47-2.96,1.59-4.55l3.96,1.03,2.11.55.69,2.98Z"/>
  <path class="cls-9" d="m116.05,83.4c-.12.54-1.38-.09-2.91-.92-1.22-.65-2.57-1.36-3.13-1.91-1.6-1.55-3.07-2.8-5.17-2.91-.42-.02-.87,0-1.35.08l-1.5-.89c-.55-.29-.59-.41-.41-.77l.57-1.16c.25-.55.4-.47.9-.3,2.85-3.88,6.21-3.92,8.96-1.95.1.07.19.14.28.21,2.69,2.05,2.66,3.92,2.58,6.04-.1,2.7-.41,2.24,1.18,4.48Z"/>
  <path class="cls-10" d="m112.32,72.89s-.02-.01-.03-.01c-.09-.07-.18-.14-.28-.21.11.07.21.15.31.22Z"/>
  <path class="cls-15" d="m89.13,108.11l3.37.31c.39.04.75.51.66.89-2.2,9.01,2.84,7.66,4.81,8.06,1.76.15,2.22,1.5,2.29,2.12.26,2.28-3.22,2.05-4.9,1.88-2.43-.25-3.48-1.46-4.74-.63-.34.22-2.73.08-3.24-.08-1.16-.36-1.27-2.26-1.3-3.5-.05-1.76.72-2.52,1.67-4.3l.66-3.98c.07-.39.33-.83.72-.78Z"/>
  <path class="cls-13" d="m99.51,98.92l-6.04,17-6.76-1.42,2.28-9.85.32-1.39,4.4-8.23c3.89-.69,5.67.58,5.91,2.41.06.46.02.97-.11,1.48Z"/>
  <path class="cls-13" d="m99.62,97.44c-.24-1.83-2.02-3.1-5.91-2.41l-4.4,8.23-.32,1.39c-.72.27-1.45.58-2.2.91-3.16,1.4-11.13,3.27-14.35,2.28l.49-10.34,8.25-2.04,3.35.39,11.63-1.46c2.88-.26,3.47,1.32,3.46,3.05Z"/>
  <path class="cls-15" d="m64.7,119.15l-3.7.14c-1.59-.4-2.23-.63-2.68-1.23-.51-.66-.76-2.05-.74-4.22.01-.82.02-1.59.08-2.47.03-.36-.16-.65-.11-1.06l.2-1.39c.14-.25,1.07-.66,1.39-.79.73-.3,1.5.01,2.43.51.08.04.16.09.24.13.87.48,1.06,1.12.9,2.92-.12,1.32-.2,2.29-.04,3.14.19.98.69,1.8,1.8,2.83.34.31.43.66.23,1.49Z"/>
  <path class="cls-13" d="m77.06,120.28l-14.39-5.45c-.16-.85-.08-1.82.04-3.14.16-1.8-.03-2.44-.9-2.92-.08-.04-.16-.09-.24-.13v-.02l8.37.71.76.28c-2.04-3.68-3.6-6.38-2.59-10.57.71-2.92,1.97-4.8,4.01-7.1l10.46,2.79-1.2,8.01-.35,2.43,3.51,10.74c.23.74.45,1.18.47,1.74l.05.09c.92,3.97-4.46,3.67-8,2.54Z"/>
  <path class="cls-13" d="m101.37,81.19c-3.6.5-5.79.06-9.54-.02-6-.12-16.31,6.85-19.53,11.87-.38.59,8.2,3.67,9.01,5.03,5.07-3.99,9.48-.85,15.78-2.58,2.84-.78,3.76-2.84,5.81-7.69-1.33-2.02-2.08-5.46-1.54-6.61Z"/>
  <path class="cls-15" d="m86.19,85.83c-4.15,3.28-2.58,9.12,2.09,8.41,5.02-.76,8.53-.42,10.55-4.7,2.14-4.52-.04-5.94-2.99-6.35-3.65-.5-6.57,1.08-9.66,2.64h0Zm9.09-4.54c5.16.8,7.51,3.99,4.77,9.38-2.02,3.98-4.95,3.55-5.5,5.35-4.89.72-8.39-.39-12.74,3.03l-10.77-5.84c4.03-4.95,8.53-9.12,14.12-11.03,2.25-.77,4.68-1.18,7.32-1.13,1.08.02,1.96.11,2.8.24Z"/>
  <path class="cls-14" d="m102.07,109.81c-.68.52-.78.82-1.73,2.19-4.44-2.93-9.2-4.24-13.14-7.64-.67-.6-.88-1.32-.79-2.03v-.02c-.09-3.14,1.09-7.56,1.74-9.99.73-2.7,2.8-9.17,7.5-7.61,2.63.87,3.47,1.99,1.53,5.39-2.72,4.79-3.82,6.27-4.88,10.78,3.5,3.37,9.77,8.93,9.77,8.93Z"/>
  <path class="cls-13" d="m87.87,91.96l6.23,3.56c.99-1.39,2.41-2.66,3.7-4.81,2.32-3.85,1.43-6.26-.33-7.28-1.57-.91-3.82-.72-5.3.76-2.06,2.05-3.44,5.84-4.3,7.77Z"/>
  <path class="cls-15" d="m101.96,116.47c.79,1.2.94,1.82,1.03,2.5.07.52.18,1.03.05,2.09,1.76-.14,1.57-1.16,1.26-3.11.21-1.01.28-1.62.32-2.49.05-1.33.57-1.52,1.59-.8.7.8,1.59,1.55,2.18.91.67-.72-.76-1.53-1.72-2.23-.46-.64-1.12-1.78-1.6-2.29-.73-.77-1.54-.94-2.8-1.46l-2.95-2.61-2.31,3.32c2.01.99,3.18,1.35,3.45,2.48.49,2.05.16,1.91,1.5,3.71Z"/>
  <rect class="cls-11" x="-565.03" y="-2953.4" width="2244.45" height="5948.74"/>
</svg>