<?xml version="1.0" encoding="UTF-8"?>
<svg id="Calque_1" data-name="Calque 1" xmlns="http://www.w3.org/2000/svg" viewBox="0 0 200 128">
  <defs>
    <style>
      .cls-1, .cls-2, .cls-3, .cls-4, .cls-5, .cls-6, .cls-7, .cls-8, .cls-9, .cls-10, .cls-11, .cls-12, .cls-13 {
        stroke-linecap: round;
        stroke-linejoin: round;
      }

      .cls-1, .cls-2, .cls-3, .cls-4, .cls-5, .cls-6, .cls-7, .cls-9, .cls-10, .cls-11, .cls-12, .cls-14, .cls-15, .cls-16, .cls-17, .cls-18, .cls-19 {
        stroke: #000;
      }

      .cls-1, .cls-16 {
        fill: #d6d6d6;
      }

      .cls-2 {
        fill: #87f3b9;
      }

      .cls-3 {
        fill: #8987f3;
      }

      .cls-4, .cls-18 {
        fill: #baa584;
      }

      .cls-5, .cls-17 {
        fill: #a07637;
      }

      .cls-6 {
        fill: #fce9b9;
      }

      .cls-7, .cls-14 {
        fill: #ff6d75;
      }

      .cls-8 {
        stroke: #f3d587;
      }

      .cls-8, .cls-9 {
        fill: #f3d587;
      }

      .cls-10, .cls-15 {
        fill: #fff;
      }

      .cls-11, .cls-13 {
        fill: none;
      }

      .cls-12, .cls-19 {
        fill: #fab0b4;
      }

      .cls-14, .cls-15, .cls-16, .cls-17, .cls-18, .cls-19 {
        stroke-miterlimit: 10;
      }

      .cls-13 {
        stroke: #fff;
        stroke-width: 8px;
      }
    </style>
  </defs>
  <polygon class="cls-1" points="161.54 60.55 161.54 62.43 170.86 62.43 170.86 60.58 161.54 60.55"/>
  <rect class="cls-1" x="160.01" y="62.43" width="12.38" height="1.53"/>
  <rect class="cls-1" x="139.86" y="33.52" width="54.59" height="27.06"/>
  <rect class="cls-10" x="142.16" y="35.39" width="50.01" height="23.33"/>
  <rect class="cls-5" x="142.99" y="66.33" width="48.59" height="28.47"/>
  <rect class="cls-4" x="140.52" y="63.83" width="52.15" height="2.5"/>
  <polygon class="cls-10" points="147 94.79 146.04 100.65 148.36 100.65 150.41 94.79 147 94.79"/>
  <polygon class="cls-4" points="184.22 94.79 185.18 100.65 182.86 100.65 180.81 94.79 184.22 94.79"/>
  <rect class="cls-16" x="6.03" y="35.92" width="24.75" height="71.47"/>
  <rect class="cls-15" x="7.91" y="37.88" width="20.97" height="20.97"/>
  <rect class="cls-15" x="7.91" y="61.34" width="20.97" height="20.97"/>
  <rect class="cls-16" x="7.91" y="85.63" width="20.97" height="9.03"/>
  <rect class="cls-15" x="14.29" y="89.46" width="8.23" height="1.37"/>
  <g>
    <rect class="cls-16" x="6.03" y="107.39" width="6.54" height="2.13"/>
    <rect class="cls-16" x="24.23" y="107.39" width="6.54" height="2.13"/>
  </g>
  <rect class="cls-12" x="12.62" y="74.33" width="11.57" height="3.84"/>
  <rect class="cls-7" x="12.62" y="78.17" width="11.57" height="3.84"/>
  <rect class="cls-12" x="12.62" y="66.57" width="11.57" height="3.84"/>
  <rect class="cls-7" x="12.62" y="70.41" width="11.57" height="3.84"/>
  <rect class="cls-2" x="12.62" y="50.85" width="11.57" height="3.84"/>
  <rect class="cls-9" x="12.62" y="54.69" width="11.57" height="3.84"/>
  <rect class="cls-2" x="12.62" y="42.95" width="11.57" height="3.84"/>
  <rect class="cls-9" x="12.62" y="46.79" width="11.57" height="3.84"/>
  <path class="cls-6" d="m53.5,59.61h42.85c1.14,0,2.07.93,2.07,2.07v29.06c0,1.14-.93,2.07-2.07,2.07h-42.85c-1.15,0-2.08-.93-2.08-2.08v-29.05c0-1.15.93-2.08,2.08-2.08Z"/>
  <path class="cls-6" d="m145.36,61.68v29.06c0,1.15-.93,2.07-2.07,2.07h-42.85c-1.15,0-2.08-.93-2.08-2.07v-29.06c0-1.15.93-2.08,2.08-2.08h42.85c.13,0,.25.01.37.03.97.18,1.7,1.02,1.7,2.04Z"/>
  <rect class="cls-6" x="51.42" y="86.47" width="93.53" height="17.22"/>
  <rect class="cls-9" x="59.56" y="85.7" width="78" height="1.94"/>
  <path class="cls-8" d="m61.33,64.78c0,.49-.4.88-.88.88s-.88-.4-.88-.88.4-.88.88-.88.88.4.88.88Z"/>
  <path class="cls-8" d="m90.3,64.78c0,.49-.4.88-.88.88s-.88-.4-.88-.88.4-.88.88-.88.88.4.88.88Z"/>
  <path class="cls-8" d="m138.45,64.78c0,.49-.4.88-.88.88s-.88-.4-.88-.88.4-.88.88-.88.88.4.88.88Z"/>
  <path class="cls-8" d="m107.13,64.78c0,.49-.4.88-.88.88s-.88-.4-.88-.88.4-.88.88-.88.88.4.88.88Z"/>
  <path class="cls-8" d="m90.3,82.24c0,.49-.4.88-.88.88s-.88-.4-.88-.88.4-.88.88-.88.88.4.88.88Z"/>
  <path class="cls-8" d="m134.67,82.24c0,.49-.4.88-.88.88s-.88-.4-.88-.88.4-.88.88-.88.88.4.88.88Z"/>
  <path class="cls-8" d="m107.13,82.24c0,.49-.4.88-.88.88s-.88-.4-.88-.88.4-.88.88-.88.88.4.88.88Z"/>
  <path class="cls-8" d="m66.69,82.24c0,.49-.4.88-.88.88s-.88-.4-.88-.88.4-.88.88-.88.88.4.88.88Z"/>
  <path class="cls-8" d="m76.16,72.76c0,.49-.4.88-.88.88s-.88-.4-.88-.88.4-.88.88-.88.88.4.88.88Z"/>
  <path class="cls-8" d="m122.74,72.76c0,.49-.4.88-.88.88s-.88-.4-.88-.88.4-.88.88-.88.88.4.88.88Z"/>
  <path class="cls-1" d="m58.55,100.11c0,1.12-5.26,2.04-11.75,2.04s-11.76-.92-11.76-2.04,4.87-1.97,11.01-2.03V13.6h2.18v84.49c5.81.12,10.32.97,10.32,2.02Z"/>
  <polygon class="cls-12" points="42.16 7.04 33.13 30.41 61.15 30.41 52.75 7.04 42.16 7.04"/>
  <rect class="cls-10" x="41.26" y="30.41" width=".25" height="12.72"/>
  <ellipse class="cls-1" cx="41.31" cy="43.65" rx=".69" ry="1.02"/>
  <path class="cls-9" d="m59.56,79.6v22.54c0,2.22-1.8,4.01-4.01,4.01h-6.76c-2.22,0-4.01-1.8-4.01-4.01v-22.54c0-2.22,1.8-4.01,4.01-4.01h6.76c.26,0,.52.03.77.07,1.85.36,3.24,1.98,3.24,3.94Z"/>
  <rect class="cls-9" x="137.56" y="75.59" width="14.79" height="30.57" rx="4.01" ry="4.01"/>
  <path class="cls-14" d="m79.01,78.61s0-.04-.01-.06c-.03-.15-.06-.3-.09-.45,0-.04-.02-.08-.02-.12-.03-.17-.06-.33-.09-.49,0-.03-.01-.06-.02-.09-.02-.13-.04-.26-.06-.38,0-.05-.01-.09-.02-.14-.02-.15-.04-.3-.06-.44-.22-2.52.1-7.04-.42-7.31-.41-.22-.81.31-2.06.09-3.7-.64-6.38-.51-6.85-.41-.47,0-3.13.44-6.61,1.83-.13.05-.26.09-.38.13-.04.01-.07.02-.11.03-.08.02-.15.03-.22.05-.04,0-.07.01-.1.02-.07,0-.14.01-.2.02-.02,0-.05,0-.07,0-.45.01-.73-.08-.95.1-.45.37.81,4.73,1.12,7.24.22,2.52-.1,7.04.42,7.31.41.22.81-.31,2.06-.09,3.7.64,6.37.38,6.83.28.47,0,3.14-.31,6.62-1.7,1.18-.47,1.68-.04,2.03-.34.15-.13.1-.72-.03-1.53,0-.03,0-.05-.01-.08-.17-.97-.45-2.24-.7-3.46Z"/>
  <path class="cls-14" d="m133.6,71.01c-.23-.17-.5-.07-.95-.07-.02,0-.05,0-.07,0-.06,0-.13,0-.2,0-.03,0-.07,0-.11-.01-.07,0-.15-.02-.23-.04-.04,0-.07-.01-.11-.02-.12-.03-.24-.06-.38-.11-3.53-1.27-6.2-1.61-6.67-1.6-.46-.08-3.15-.11-6.83.65-1.24.26-1.66-.25-2.06-.02-.51.29-.03,4.79-.16,7.32-.01.14-.03.29-.05.44,0,.04-.01.09-.02.13-.02.13-.03.26-.05.39,0,.03,0,.06-.01.08-.02.16-.05.33-.07.5,0,.03,0,.06-.01.09-.03.17-.05.34-.08.51,0,0,0,0,0,0-.38,2.32-.91,4.85-.57,5.12.37.28.85-.16,2.04.27,3.53,1.27,6.21,1.48,6.68,1.47.47.08,3.15.24,6.82-.53,1.24-.26,1.66.25,2.06.02.5-.29.03-4.79.16-7.32.22-2.52,1.32-6.92.86-7.27Z"/>
  <rect class="cls-18" x="67.03" y="40.99" width="54.14" height="3.03"/>
  <rect class="cls-17" x="73.16" y="8.62" width="24.59" height="32.37"/>
  <rect class="cls-15" x="75.58" y="10.69" width="19.76" height="28.22"/>
  <rect class="cls-19" x="78.94" y="15.49" width="13.04" height="18.62"/>
  <rect class="cls-17" x="103.98" y="27.21" width="10.47" height="13.78"/>
  <rect class="cls-19" x="106.44" y="30.13" width="5.55" height="7.93"/>
  <rect class="cls-5" x="155.42" y="25.01" width="27.69" height="1.46"/>
  <rect class="cls-7" x="162.57" y="22.08" width="14.52" height="2.93"/>
  <rect class="cls-12" x="162.57" y="19.15" width="14.52" height="2.93"/>
  <rect class="cls-9" x="162.57" y="16.23" width="14.52" height="2.93"/>
  <g>
    <path class="cls-7" d="m157.06,116.54l1.11,1.6c.34-.21.74-.34,1.16-.34.29,0,.57.06.83.16l3.99-4.83-2.92-1.35-4.16,4.75Z"/>
    <path class="cls-7" d="m157.08,120c0-.78.41-1.47,1.03-1.86l-1.11-1.6s-8.86,1.6-8.98,4.34v1.17h9.95l.08-.23c-.59-.39-.97-1.06-.97-1.82Z"/>
    <path class="cls-1" d="m158.17,118.14c-.62.39-1.03,1.07-1.03,1.86s.38,1.42.97,1.82c.35.24.77.37,1.22.37,1.21,0,2.19-.98,2.19-2.19,0-.92-.57-1.71-1.37-2.03-.26-.1-.53-.16-.83-.16-.43,0-.83.12-1.16.34Z"/>
  </g>
  <g>
    <path class="cls-1" d="m192.28,87.44c0,.78.43,1.5,1.13,1.87.31.16.64.24.99.24,1.16,0,2.11-.95,2.11-2.11s-.95-2.11-2.11-2.11c-.39,0-.78.11-1.12.32-.62.39-.99,1.06-.99,1.79Z"/>
    <path class="cls-11" d="m181.69,104.06c.08-.08.16-.16.25-.24-.08.08-.16.16-.25.24Z"/>
    <path class="cls-7" d="m185.23,99.73s-.01.02-.02.03h0s.01-.02.02-.03Z"/>
    <path class="cls-11" d="m182.88,102.87c.08-.09.16-.18.24-.27-.08.09-.16.18-.24.27Z"/>
    <path class="cls-11" d="m183.44,102.23c.08-.09.15-.19.23-.28-.08.09-.15.19-.23.28Z"/>
    <path class="cls-7" d="m185.21,99.76c-.06.1-.13.21-.19.32.07-.1.13-.21.19-.32h0Z"/>
    <path class="cls-11" d="m183.99,101.55c.07-.1.15-.2.22-.3-.07.1-.15.2-.22.3Z"/>
    <path class="cls-11" d="m184.52,100.83c.07-.1.14-.21.21-.32-.07.11-.14.22-.21.32Z"/>
    <path class="cls-11" d="m179.2,106.07c.09-.06.18-.13.28-.2-.09.07-.18.13-.28.2Z"/>
    <path class="cls-7" d="m176.68,107.62c.11-.06.22-.12.34-.19-.11.06-.23.13-.34.19Z"/>
    <path class="cls-3" d="m176.07,107.95c.11-.06.23-.12.35-.18-.12.06-.23.12-.35.18Z"/>
    <path class="cls-1" d="m196.76,114.38c0,4.16-3.37,7.53-7.53,7.53-1.71,0-3.28-.57-4.55-1.53-1.81-1.37-2.99-3.55-2.99-6,0-2.68,1.4-5.04,3.51-6.38,1.16-.74,2.55-1.16,4.02-1.16.3,0,.59.02.87.05,0,0,.01,0,.02,0,3.74.44,6.64,3.63,6.64,7.49Z"/>
    <path class="cls-7" d="m174.29,108.77c.14-.06.28-.12.42-.18-.14.06-.28.12-.42.18Z"/>
    <path class="cls-7" d="m177.31,107.28c.1-.06.21-.12.31-.19-.1.06-.21.13-.31.19Z"/>
    <path class="cls-11" d="m182.54,103.23c-.08.09-.16.17-.25.26.08-.08.16-.17.25-.26Z"/>
    <path class="cls-7" d="m174.87,108.52c.13-.06.26-.12.39-.18-.13.06-.26.12-.39.18Z"/>
    <path class="cls-3" d="m175.46,108.24c.12-.06.24-.12.36-.18-.12.06-.24.12-.36.18Z"/>
    <path class="cls-11" d="m181.08,104.61c.08-.07.17-.15.25-.22-.08.07-.17.15-.25.22Z"/>
    <path class="cls-11" d="m180.46,105.13c.09-.07.17-.14.26-.22-.09.07-.17.15-.26.22Z"/>
    <path class="cls-11" d="m177.94,106.9c.1-.06.2-.12.29-.18-.1.06-.2.12-.29.18Z"/>
    <path class="cls-11" d="m178.57,106.5c.09-.06.19-.13.28-.19-.09.06-.19.13-.28.19Z"/>
    <path class="cls-11" d="m179.84,105.62c.09-.07.18-.14.27-.21-.09.07-.18.14-.27.21Z"/>
    <path class="cls-7" d="m174.31,104.93l-.02.11s.01-.07.02-.11h0Z"/>
    <path class="cls-11" d="m178.85,106.31c.12-.08.23-.16.35-.24-.12.08-.23.16-.35.24Z"/>
    <path class="cls-11" d="m179.48,105.88c.12-.09.24-.17.36-.26-.12.09-.24.17-.36.26Z"/>
    <path class="cls-11" d="m180.72,104.91c.12-.1.24-.2.36-.3-.12.1-.24.2-.36.3Z"/>
    <path class="cls-11" d="m181.33,104.39c.12-.11.24-.21.36-.32-.12.11-.24.22-.36.32Z"/>
    <path class="cls-11" d="m178.23,106.72c.11-.07.23-.14.34-.22-.11.07-.23.14-.34.22Z"/>
    <path class="cls-11" d="m180.1,105.41c.12-.09.24-.18.36-.28-.12.1-.24.19-.36.28Z"/>
    <path class="cls-11" d="m182.29,103.49c-.12.12-.23.23-.35.34.12-.11.24-.22.35-.34Z"/>
    <path class="cls-7" d="m174.71,108.59c.05-.02.1-.04.16-.07-.05.02-.1.05-.16.07Z"/>
    <path class="cls-7" d="m175.26,108.34c.07-.03.13-.06.2-.09-.07.03-.13.06-.2.09Z"/>
    <path class="cls-7" d="m174.18,108.82s.07-.03.11-.04c-.04.02-.07.03-.11.04Z"/>
    <path class="cls-7" d="m177.02,107.44c.1-.05.19-.11.29-.16-.1.06-.19.11-.29.16Z"/>
    <path class="cls-7" d="m177.62,107.09c.11-.06.21-.12.32-.19-.11.06-.21.13-.32.19Z"/>
    <path class="cls-3" d="m175.82,108.07c.08-.04.16-.08.24-.12-.08.04-.16.08-.24.12Z"/>
    <path class="cls-7" d="m176.42,107.77c.09-.05.18-.09.27-.14-.09.05-.18.09-.27.14Z"/>
    <path class="cls-11" d="m184.21,101.25c.1-.14.21-.27.3-.42-.1.14-.2.28-.3.42Z"/>
    <path class="cls-7" d="m184.73,100.51c.1-.14.19-.28.29-.43-.09.15-.19.29-.29.43Z"/>
    <path class="cls-11" d="m182.54,103.23c.11-.12.23-.23.34-.36-.11.12-.23.24-.34.36Z"/>
    <path class="cls-11" d="m183.11,102.6c.11-.12.22-.25.33-.38-.11.13-.22.25-.33.38Z"/>
    <path class="cls-11" d="m183.67,101.94c.11-.13.21-.26.32-.4-.1.14-.21.27-.32.4Z"/>
    <path class="cls-7" d="m193.61,108.04v.2l-.08-.05-.2-.12c-.6-.35-1.26-.69-1.94-.92-.09-.03-.18-.06-.27-.08-.22-.07-.44-.11-.65-.14-.12-.03-.23-.04-.35-.05,0,0-.01,0-.02,0-.28-.03-.58-.05-.87-.05-1.48,0-2.86.43-4.02,1.16v-8.25s0-1.5,0-1.5v-7.85c.01-.28.01-.56,0-.86v-3.29c.95-.7,1.77-1.2,2.37-1.54.06-.04.13-.08.18-.1.07-.04.12-.06.18-.09.42-.22.69-.34.76-.37h.01s2.85-.55,2.85-.55c.02,0,.04,0,.05.01.86.23,1.44.83,1.72,1.8l.04.14-.12.07c-.16.1-.3.22-.42.35-.12.12-.23.27-.31.43,0,0,0,0,0,0-.18.31-.27.65-.27,1.02,0,.29.06.58.18.84.19.43.52.8.95,1.03l.1.06.1,18.67Z"/>
    <path class="cls-7" d="m185.14,91.88l-.12,8.2c-.09.15-.19.29-.29.43h0s-.03.05-.05.07c-.05.09-.1.17-.17.26-.05.07-.1.14-.15.21-.05.07-.1.14-.15.21-.04.05-.08.1-.11.15s-.07.1-.11.14c-.05.07-.1.14-.16.2-.06.07-.11.13-.16.2-.04.05-.08.1-.11.14-.04.05-.08.1-.12.14-.1.12-.22.25-.33.38-.09.09-.16.18-.24.26h0c-.06.07-.11.12-.17.18-.06.06-.11.12-.17.18-.04.05-.09.09-.12.13-.05.04-.09.09-.13.12-.11.12-.23.23-.35.34l-.25.24c-.12.11-.24.22-.36.32-.08.07-.16.16-.25.23-.12.1-.24.2-.37.3-.08.07-.17.14-.25.22-.12.09-.24.19-.36.27-.09.07-.18.14-.27.21-.12.09-.24.17-.35.26-.1.07-.18.13-.28.2-.11.08-.23.16-.35.24-.05.03-.09.07-.14.1-.05.03-.1.06-.14.09-.12.08-.23.15-.34.22-.1.07-.2.13-.29.19-.1.06-.21.12-.32.19-.1.06-.21.12-.31.18-.09.05-.18.1-.28.16-.12.06-.23.12-.34.18-.05.03-.09.05-.13.07-.05.03-.09.05-.14.07-.11.06-.23.12-.35.18l-.24.12c-.12.06-.24.12-.36.18-.07.03-.14.06-.2.09-.14.07-.27.12-.39.18-.05.02-.1.05-.16.07-.14.06-.28.12-.42.18-.04.01-.07.03-.11.04-.08.03-.15.07-.23.1-.08.03-.15.07-.23.09l-.12.05-.21.09h0l.07-.34.02-.1c.33-1.59.67-2.71.67-2.73.03-.19.06-.39.09-.6l.31-.12c3.86-1.55,9.8-5.22,10.58-13.37Z"/>
    <path class="cls-3" d="m185.21,87.16l-.02,1.52c-.04-.51-.09-1.04-.16-1.59v-.07c-.03-.14-.05-.29-.07-.44l-.02-.1c.09-.07.16-.12.24-.18,0-.01.01-.01.02-.01h0s.01-.01.01-.01v.86s-.01.03-.01.03Z"/>
    <path class="cls-3" d="m185.21,89.21c0,.12.01.24.01.35v.86c0,.12,0,.25-.01.37v.1c-.01.33-.04.67-.07.99l.05-3.2c0,.17.01.33.02.5v.03Z"/>
    <path class="cls-7" d="m174.24,105.37h0c.02-.11.03-.22.05-.33l-.05.33Z"/>
    <path class="cls-7" d="m184.03,86.96c-3.62,3.01-8.2,8.55-9.72,17.97,0,.04-.01.07-.02.11-.02.11-.03.22-.05.33l.31-.12c4.56-1.82,11.98-6.6,10.48-18.16v-.07c-.03-.15-.05-.29-.07-.44l-.02-.1"/>
    <path class="cls-1" d="m187.89,68.76c.02,1.26,1.99,2.46,2.48,2.83,2.13,1.65,3.99,4.34.53,10-.05-.05-.09-.09-.14-.13-.09-.09-.18-.16-.29-.21-.73-.47-1.68-.54-2.44-.5h-.07c-.1.01-.2.02-.27.03l-.18.02s-.07,0-.07,0c3.73-4.31,1.63-6.37-.76-8.49-.36-.32-.71-.63-1.02-.94-.65-.64-.98-1.44-.98-2.31.01-2.09,2.01-4.03,4.11-6.1.86-.85,2.54-2.64,3.22-3.79,1.94-3.27,1.6-6.08.55-7.17-1.33-1.38-5.29-1.33-7.37-.44h0s-1.28-.81-1.28-.81l-.2-.12-1.23-.77c1.58-1.64,8.93-3.64,12.38-.09,2.03,2.11,2.34,5.61.12,10.57-.59,1.32-2.34,3.31-3.96,4.9-1.11,1.08-3.15,2.33-3.13,3.5Z"/>
    <path class="cls-3" d="m185.21,86.27h0s.01,0,.01,0h-.01Z"/>
    <polygon class="cls-1" points="183.91 50.77 183.7 50.65 182.48 49.88 161.23 111.78 162.62 112.43 164.15 113.13 185.11 51.82 185.19 51.58 185.19 51.58 183.91 50.77"/>
    <path class="cls-7" d="m185.12,99.92s.06-.1.09-.14v8.23c-2.11,1.34-3.52,3.69-3.52,6.38,0,2.45,1.17,4.63,2.99,6h-8.13c-1.09-.06-1.95-.49-2.58-1.29-1.65-2.16-1.25-6.54-.58-9.95l.21-.09.12-.05c.08-.03.15-.06.23-.09.07-.03.15-.06.23-.09.03-.02.07-.03.11-.05.14-.07.27-.12.42-.18.05-.03.1-.05.16-.07.12-.06.25-.12.39-.18.07-.03.14-.06.2-.09.12-.05.24-.12.36-.18l.24-.12c.12-.06.23-.12.35-.18.05-.03.09-.05.14-.07.05-.02.09-.05.13-.07.11-.07.22-.13.34-.19.1-.06.19-.11.28-.16.1-.06.22-.12.31-.18.11-.07.22-.13.32-.19.1-.06.2-.12.29-.19.11-.07.22-.14.34-.21.05-.03.1-.07.14-.1.05-.03.09-.07.14-.1.12-.08.24-.16.35-.24.1-.07.18-.13.28-.2.11-.09.24-.17.35-.26.09-.07.18-.14.27-.21.12-.09.24-.18.36-.27.08-.07.17-.14.25-.22.12-.1.25-.2.37-.3.08-.07.16-.16.25-.23.12-.1.24-.21.36-.32l.25-.24c.12-.11.24-.22.35-.34.05-.04.09-.09.13-.12.04-.05.08-.09.12-.13.05-.06.1-.12.16-.18.06-.06.11-.11.17-.18h0c.09-.09.16-.18.24-.27.1-.13.22-.26.33-.38.04-.05.08-.1.12-.14s.08-.1.12-.14c.05-.07.1-.13.16-.2.05-.07.1-.13.16-.2.04-.05.08-.09.11-.14s.07-.1.1-.16c.05-.07.1-.13.16-.2.05-.07.1-.14.15-.21.07-.09.12-.17.17-.26.02-.02.03-.04.05-.06h0c.1-.16.2-.29.29-.44.03-.05.06-.1.09-.16Z"/>
    <path class="cls-7" d="m185.22,98.27v1.5s0,0,0,.01v-8.89,7.38Z"/>
    <path class="cls-7" d="m191.64,83.64s-.03,0-.05-.01l-2.85.54h-.01c-.07.03-.34.15-.76.37-.06.03-.12.05-.18.09-.05.03-.12.07-.18.1-.61.33-1.43.84-2.37,1.54h-.01s-.01.01-.02.03c-.2.12-1.07.6-1.16.66,0,0-.22-1.54.19-3.09.18-.69.5-1.38,1.01-1.94l2.21-1.12s.02,0,.07,0l.18-.02c.08-.01.17-.02.27-.03.63-.03,1.7,0,2.5.49.1.07.2.13.29.21.05.04.1.09.14.13l.74,2.05Z"/>
    <path class="cls-3" d="m187.69,80.79l-.18.02s.1-.01.18-.02Z"/>
    <path class="cls-3" d="m187.96,84.54c.42-.22.69-.34.76-.37l-3.5,2.1c.95-.7,1.77-1.2,2.37-1.54.06-.04.13-.08.18-.1.07-.04.12-.06.18-.09Z"/>
    <path class="cls-3" d="m191.64,83.64l-2.9.53,2.85-.54s.04,0,.05.01Z"/>
  </g>
  <path class="cls-1" d="m130.22,35.92s2.6-1.39,2.68-6.18c.08,4.8,2.68,6.18,2.68,6.18,0,0-2.6,1.39-2.68,6.19-.08-4.8-2.68-6.19-2.68-6.19Z"/>
  <path class="cls-1" d="m126.19,44.87s2.6-1.39,2.68-6.19c.08,4.8,2.68,6.19,2.68,6.19,0,0-2.6,1.39-2.68,6.19-.08-4.8-2.68-6.19-2.68-6.19Z"/>
  <path class="cls-1" d="m56.46,57.25s2.6-1.39,2.68-6.19c.08,4.8,2.68,6.19,2.68,6.19,0,0-2.6,1.39-2.68,6.19-.08-4.8-2.68-6.19-2.68-6.19Z"/>
  <rect class="cls-13" x="-823.84" y="-2953.4" width="2244.45" height="5948.74"/>
</svg>