<?xml version="1.0" encoding="UTF-8"?>
<svg id="Calque_1" data-name="Calque 1" xmlns="http://www.w3.org/2000/svg" viewBox="0 0 200 128">
  <defs>
    <style>
      .cls-1, .cls-2, .cls-3, .cls-4, .cls-5, .cls-6, .cls-7, .cls-8, .cls-9, .cls-10, .cls-11, .cls-12, .cls-13, .cls-14 {
        stroke-linecap: round;
        stroke-linejoin: round;
      }

      .cls-1, .cls-2, .cls-3, .cls-4, .cls-5, .cls-6, .cls-7, .cls-8, .cls-9, .cls-11, .cls-12, .cls-13, .cls-15, .cls-16, .cls-17, .cls-18, .cls-19, .cls-20, .cls-21 {
        stroke: #000;
      }

      .cls-1, .cls-19 {
        fill: #76ac75;
      }

      .cls-2, .cls-17 {
        fill: #d6d6d6;
      }

      .cls-3 {
        fill: #87f3b9;
      }

      .cls-4 {
        fill: #b2f0e9;
      }

      .cls-5, .cls-18 {
        fill: #baa584;
      }

      .cls-6, .cls-22 {
        fill: #a07637;
      }

      .cls-7 {
        fill: #fce9b9;
      }

      .cls-8, .cls-15 {
        fill: #ff6d75;
      }

      .cls-9 {
        fill: #bbfedb;
      }

      .cls-10 {
        stroke: #f3d587;
      }

      .cls-10, .cls-11, .cls-23 {
        fill: #f3d587;
      }

      .cls-12, .cls-16 {
        fill: #fff;
      }

      .cls-13, .cls-20 {
        fill: #fab0b4;
      }

      .cls-15, .cls-16, .cls-17, .cls-18, .cls-19, .cls-20, .cls-21 {
        stroke-miterlimit: 10;
      }

      .cls-21 {
        fill: #f9f8f6;
      }

      .cls-14 {
        fill: none;
        stroke: #fff;
        stroke-width: 8px;
      }
    </style>
  </defs>
  <polygon class="cls-13" points="138.45 125.6 29.58 125.6 57.93 94.85 166.8 94.85 138.45 125.6"/>
  <g>
    <rect class="cls-17" x="6.03" y="35.92" width="24.75" height="71.47"/>
    <rect class="cls-16" x="7.91" y="37.88" width="20.97" height="20.97"/>
    <rect class="cls-16" x="7.91" y="61.34" width="20.97" height="20.97"/>
    <rect class="cls-17" x="7.91" y="85.63" width="20.97" height="9.03"/>
    <rect class="cls-16" x="14.29" y="89.46" width="8.23" height="1.37"/>
    <g>
      <rect class="cls-17" x="6.03" y="107.39" width="6.54" height="2.13"/>
      <rect class="cls-17" x="24.23" y="107.39" width="6.54" height="2.13"/>
    </g>
  </g>
  <rect class="cls-13" x="12.37" y="74.33" width="11.57" height="3.84"/>
  <rect class="cls-8" x="12.86" y="78.17" width="11.57" height="3.84"/>
  <rect class="cls-13" x="10.66" y="65.73" width="11.57" height="3.84" transform="translate(-24.9 11.64) rotate(-22.77)"/>
  <rect class="cls-8" x="15.94" y="70.41" width="11.57" height="3.84"/>
  <rect class="cls-3" x="12.13" y="50.85" width="11.57" height="3.84"/>
  <rect class="cls-11" x="12.62" y="54.69" width="11.57" height="3.84"/>
  <rect class="cls-3" x="142.39" y="113.19" width="11.57" height="3.84"/>
  <rect class="cls-11" x="15.69" y="46.79" width="11.57" height="3.84"/>
  <polygon class="cls-2" points="156.95 60.55 156.95 62.43 166.26 62.43 166.26 60.58 156.95 60.55"/>
  <rect class="cls-2" x="155.42" y="62.43" width="12.38" height="1.53"/>
  <rect class="cls-2" x="135.27" y="33.52" width="54.59" height="27.06"/>
  <rect class="cls-12" x="137.56" y="35.39" width="50.01" height="23.33"/>
  <rect class="cls-2" x="138.4" y="66.33" width="48.59" height="28.47"/>
  <rect class="cls-5" x="135.93" y="63.83" width="52.15" height="2.5"/>
  <rect class="cls-2" x="140.63" y="69.28" width="44.31" height="20.86"/>
  <polygon class="cls-12" points="142.4 94.79 141.45 100.65 143.77 100.65 145.81 94.79 142.4 94.79"/>
  <polygon class="cls-5" points="179.63 94.79 180.58 100.65 178.26 100.65 176.22 94.79 179.63 94.79"/>
  <path class="cls-7" d="m53.5,59.61h42.85c1.14,0,2.07.93,2.07,2.07v29.06c0,1.14-.93,2.07-2.07,2.07h-42.85c-1.15,0-2.08-.93-2.08-2.08v-29.05c0-1.15.93-2.08,2.08-2.08Z"/>
  <path class="cls-7" d="m145.36,61.68v29.06c0,1.15-.93,2.07-2.07,2.07h-42.85c-1.15,0-2.08-.93-2.08-2.07v-29.06c0-1.15.93-2.08,2.08-2.08h42.85c.13,0,.25.01.37.03.97.18,1.7,1.02,1.7,2.04Z"/>
  <rect class="cls-7" x="51.42" y="86.47" width="93.53" height="17.22"/>
  <rect class="cls-11" x="59.56" y="85.7" width="78" height="1.94"/>
  <path class="cls-10" d="m61.33,64.78c0,.49-.4.88-.88.88s-.88-.4-.88-.88.4-.88.88-.88.88.4.88.88Z"/>
  <path class="cls-10" d="m90.3,64.78c0,.49-.4.88-.88.88s-.88-.4-.88-.88.4-.88.88-.88.88.4.88.88Z"/>
  <path class="cls-10" d="m138.45,64.78c0,.49-.4.88-.88.88s-.88-.4-.88-.88.4-.88.88-.88.88.4.88.88Z"/>
  <path class="cls-10" d="m107.13,64.78c0,.49-.4.88-.88.88s-.88-.4-.88-.88.4-.88.88-.88.88.4.88.88Z"/>
  <path class="cls-10" d="m90.3,82.24c0,.49-.4.88-.88.88s-.88-.4-.88-.88.4-.88.88-.88.88.4.88.88Z"/>
  <path class="cls-10" d="m134.67,82.24c0,.49-.4.88-.88.88s-.88-.4-.88-.88.4-.88.88-.88.88.4.88.88Z"/>
  <path class="cls-10" d="m107.13,82.24c0,.49-.4.88-.88.88s-.88-.4-.88-.88.4-.88.88-.88.88.4.88.88Z"/>
  <path class="cls-10" d="m66.69,82.24c0,.49-.4.88-.88.88s-.88-.4-.88-.88.4-.88.88-.88.88.4.88.88Z"/>
  <path class="cls-10" d="m76.16,72.76c0,.49-.4.88-.88.88s-.88-.4-.88-.88.4-.88.88-.88.88.4.88.88Z"/>
  <path class="cls-10" d="m122.74,72.76c0,.49-.4.88-.88.88s-.88-.4-.88-.88.4-.88.88-.88.88.4.88.88Z"/>
  <g>
    <path class="cls-2" d="m58.55,100.11c0,1.12-5.26,2.04-11.75,2.04s-11.76-.92-11.76-2.04,4.87-1.97,11.01-2.03V13.6h2.18v84.49c5.81.12,10.32.97,10.32,2.02Z"/>
    <polygon class="cls-13" points="42.16 7.04 33.13 30.41 61.15 30.41 52.75 7.04 42.16 7.04"/>
    <rect class="cls-12" x="41.26" y="30.41" width=".25" height="12.72"/>
    <ellipse class="cls-2" cx="41.31" cy="43.65" rx=".69" ry="1.02"/>
  </g>
  <path class="cls-11" d="m59.56,79.6v22.54c0,2.22-1.8,4.01-4.01,4.01h-6.76c-2.22,0-4.01-1.8-4.01-4.01v-22.54c0-2.22,1.8-4.01,4.01-4.01h6.76c.26,0,.52.03.77.07,1.85.36,3.24,1.98,3.24,3.94Z"/>
  <rect class="cls-11" x="137.56" y="75.59" width="14.79" height="30.57" rx="4.01" ry="4.01"/>
  <rect class="cls-6" x="155.42" y="25.01" width="27.69" height="1.46"/>
  <rect class="cls-8" x="156.39" y="22.08" width="14.52" height="2.93"/>
  <rect class="cls-13" x="158.65" y="19.15" width="14.52" height="2.93"/>
  <rect class="cls-13" x="174.86" y="19.15" width="14.52" height="2.93"/>
  <rect class="cls-11" x="156.57" y="16.23" width="14.52" height="2.93"/>
  <rect class="cls-9" x="175.48" y="22.08" width="14.52" height="2.93"/>
  <polygon class="cls-1" points="178.71 18.89 165.13 13.71 166.18 10.98 179.76 16.15 178.71 18.89"/>
  <rect class="cls-18" x="83.63" y="14.79" width="19.4" height="23.35" transform="translate(-3.66 24.35) rotate(-14.59)"/>
  <rect class="cls-21" x="85.25" y="16.42" width="16.15" height="20.1" transform="translate(-3.66 24.35) rotate(-14.59)"/>
  <rect class="cls-20" x="89.95" y="21.11" width="6.76" height="10.71" transform="translate(-3.66 24.35) rotate(-14.59)"/>
  <path class="cls-15" d="m79.01,78.61s0-.04-.01-.06c-.03-.15-.06-.3-.09-.45,0-.04-.02-.08-.02-.12-.03-.17-.06-.33-.09-.49,0-.03-.01-.06-.02-.09-.02-.13-.04-.26-.06-.38,0-.05-.01-.09-.02-.14-.02-.15-.04-.3-.06-.44-.22-2.52.1-7.04-.42-7.31-.41-.22-.81.31-2.06.09-3.7-.64-6.38-.51-6.85-.41-.47,0-3.13.44-6.61,1.83-.13.05-.26.09-.38.13-.04.01-.07.02-.11.03-.08.02-.15.03-.22.05-.04,0-.07.01-.1.02-.07,0-.14.01-.2.02-.02,0-.05,0-.07,0-.45.01-.73-.08-.95.1-.45.37.81,4.73,1.12,7.24.22,2.52-.1,7.04.42,7.31.41.22.81-.31,2.06-.09,3.7.64,6.37.38,6.83.28.47,0,3.14-.31,6.62-1.7,1.18-.47,1.68-.04,2.03-.34.15-.13.1-.72-.03-1.53,0-.03,0-.05-.01-.08-.17-.97-.45-2.24-.7-3.46Z"/>
  <path class="cls-19" d="m133.6,71.01c-.23-.17-.5-.07-.95-.07-.02,0-.05,0-.07,0-.06,0-.13,0-.2,0-.03,0-.07,0-.11-.01-.07,0-.15-.02-.23-.04-.04,0-.07-.01-.11-.02-.12-.03-.24-.06-.38-.11-3.53-1.27-6.2-1.61-6.67-1.6-.46-.08-3.15-.11-6.83.65-1.24.26-1.66-.25-2.06-.02-.51.29-.03,4.79-.16,7.32-.01.14-.03.29-.05.44,0,.04-.01.09-.02.13-.02.13-.03.26-.05.39,0,.03,0,.06-.01.08-.02.16-.05.33-.07.5,0,.03,0,.06-.01.09-.03.17-.05.34-.08.51,0,0,0,0,0,0-.38,2.32-.91,4.85-.57,5.12.37.28.85-.16,2.04.27,3.53,1.27,6.21,1.48,6.68,1.47.47.08,3.15.24,6.82-.53,1.24-.26,1.66.25,2.06.02.5-.29.03-4.79.16-7.32.22-2.52,1.32-6.92.86-7.27Z"/>
  <path class="cls-2" d="m168.5,110.29c.07-.24.12-.49.12-.75,0-1.44-1.17-2.61-2.61-2.61-1.17,0-2.15.78-2.48,1.85-.41-.02-.84.05-1.24.24-1.3.62-1.86,2.17-1.24,3.47.62,1.3,2.17,1.86,3.47,1.24.04-.02.07-.05.11-.07.46.74,1.27,1.24,2.21,1.24,1.44,0,2.61-1.17,2.61-2.61,0-.81-.38-1.52-.95-2Z"/>
  <path class="cls-2" d="m188.32,113.5c.07-.24.12-.49.12-.75,0-1.44-1.17-2.61-2.61-2.61-1.17,0-2.15.78-2.48,1.85-.41-.02-.84.05-1.24.24-1.3.62-1.86,2.17-1.24,3.47.62,1.3,2.17,1.86,3.47,1.24.04-.02.07-.05.11-.07.46.74,1.27,1.24,2.21,1.24,1.44,0,2.61-1.17,2.61-2.61,0-.81-.38-1.52-.95-2Z"/>
  <path class="cls-2" d="m172.93,112.16c-.07-.24-.16-.48-.3-.7-.77-1.21-2.39-1.57-3.6-.8-.99.63-1.4,1.82-1.1,2.89-.36.21-.68.49-.92.87-.77,1.22-.4,2.83.82,3.59,1.22.77,2.83.4,3.59-.82.02-.04.04-.08.06-.12.79.38,1.74.36,2.53-.15,1.21-.77,1.57-2.39.8-3.6-.43-.68-1.13-1.08-1.88-1.17Z"/>
  <path class="cls-2" d="m56.11,71.68c0-.21-.02-.41-.08-.62-.34-1.13-1.54-1.77-2.68-1.43-.92.28-1.51,1.13-1.51,2.05-.33.08-.65.24-.92.48-.88.8-.94,2.15-.15,3.03.8.88,2.15.94,3.03.15.03-.02.05-.05.07-.08.54.47,1.3.67,2.04.44,1.13-.34,1.77-1.54,1.43-2.68-.19-.64-.66-1.11-1.23-1.35Z"/>
  <path class="cls-2" d="m183.2,58.73c0-.25-.01-.5-.09-.76-.39-1.39-1.83-2.19-3.22-1.8-1.13.32-1.86,1.34-1.89,2.45-.4.09-.79.27-1.13.56-1.09.95-1.2,2.59-.25,3.68.95,1.09,2.59,1.2,3.68.25.03-.03.06-.06.09-.1.64.59,1.56.84,2.46.59,1.39-.39,2.19-1.83,1.8-3.22-.22-.78-.77-1.36-1.46-1.67Z"/>
  <path class="cls-2" d="m25.09,117.21c.07-.24.12-.49.12-.75,0-1.44-1.17-2.61-2.61-2.61-1.17,0-2.15.78-2.48,1.85-.41-.02-.84.05-1.24.24-1.3.62-1.86,2.17-1.24,3.47.62,1.3,2.17,1.86,3.47,1.24.04-.02.07-.05.11-.07.46.74,1.27,1.24,2.21,1.24,1.44,0,2.61-1.17,2.61-2.61,0-.81-.38-1.52-.95-2Z"/>
  <path class="cls-2" d="m42.16,118.93c.07-.24.12-.49.12-.75,0-1.44-1.17-2.61-2.61-2.61-1.17,0-2.15.78-2.48,1.85-.41-.02-.84.05-1.24.24-1.3.62-1.86,2.17-1.24,3.47.62,1.3,2.17,1.86,3.47,1.24.04-.02.07-.05.11-.07.46.74,1.27,1.24,2.21,1.24,1.44,0,2.61-1.17,2.61-2.61,0-.81-.38-1.52-.95-2Z"/>
  <path class="cls-2" d="m59.45,103.41c-.07-.24-.16-.48-.3-.7-.77-1.21-2.39-1.57-3.6-.8-.99.63-1.4,1.82-1.1,2.89-.36.21-.68.49-.92.87-.77,1.22-.4,2.83.82,3.59,1.22.77,2.83.4,3.59-.82.02-.04.04-.08.06-.12.79.38,1.74.36,2.53-.15,1.21-.77,1.57-2.39.8-3.6-.43-.68-1.13-1.08-1.88-1.17Z"/>
  <path class="cls-22" d="m76.93,60.1c-1.17.62-2.34,1.47-2.44,2.68-.09,1.06.8,1.98,1.77,2.41.97.43,2.06.54,3.05.92.25.1.51.22.69.43.22.26.28.62.34.96.23,1.23.64,2.49,1.57,3.33.93.83,2.49,1.06,3.4.2.92-.86.81-2.31.73-3.56-.08-1.25.07-2.78,1.19-3.34.39-.2.84-.24,1.28-.25.67-.02,1.35.02,2.01.12.39.06.8.14,1.19.04.67-.17,1.1-.79,1.47-1.38.34-.54.51-2,.19-2.55h-16.43Z"/>
  <path class="cls-22" d="m122.81,106.6c-1.06.81-2.5.86-3.84.8-1.33-.06-2.73-.19-3.95.37-1.21.56-2.09,2.1-1.42,3.26.42.74,1.31,1.08,2.16,1.21.84.13,1.72.13,2.52.42.4.15.79.39,1.03.75.3.46.31,1.04.21,1.58-.32,1.75-1.69,3.49-.97,5.12.34.77,1.1,1.29,1.87,1.63,1.36.61,2.89.82,4.36.61.75-.11,1.56-.38,1.91-1.05.2-.38.22-.83.24-1.27.08-1.85.39-3.9,1.81-5.08,2.48-2.07,6.4-.16,9.4-1.37.73-.29,1.4-.79,1.75-1.49.35-.7.32-1.61-.19-2.21-.58-.67-1.58-.77-2.47-.77-1.22,0-2.44.07-3.65.22-.65.08-1.32.19-1.97.08-.65-.11-1.3-.48-1.55-1.09-.12-.29-.14-.63-.32-.89-.36-.54-1.19-.52-1.76-.21-1.07.57-3.46,2.64-2.97.24.11-.53.59-.99.18-1.53-.72-.96-1.8.2-2.38.65Z"/>
  <path class="cls-22" d="m113.74,119.98c-.42-.28-.49-.89-.37-1.38.09-.38.27-.77.16-1.15-.15-.51-.73-.72-1.19-.99-3.22-1.87,1.55-4.04,3.36-2.38,1.54,1.41.16,7.31-1.95,5.9Z"/>
  <path class="cls-4" d="m70.42,98.8c-.14.05-.77.41-.89.51-.11.1-.17.25-.22.4-.7,2.07-1.39,4.13-2.09,6.2-.06.17-.11.34-.09.52.03.23.19.42.36.58,1.38,1.31,3.48,1.45,5.38,1.3.17-.01.47-.09.5-.12,0,0,.1-.25.13-.37.19-.71.39-1.42.58-2.13-.14,2.91,1.38,5.66,3.27,7.88,1.88,2.22,4.16,4.1,5.98,6.37,5.19-3.02,17.2-3.89,17.53-3.38-.83-1.55-2.67-2.31-4.1-3.34-3.24-2.35-4.7-6.46-7.59-9.23.94.48,1.88.95,2.82,1.43.17.09.53.39.53.39,0,0,.51-.25.75-.33,1.43-.49,2.93-.74,4.44-.75-.98-1.73-2.65-2.96-4.34-4-1.33-.82-2.72-1.57-4.1-2.31-.57-.31-1.14-.61-1.74-.83-1.2-.43-2.48-.52-3.75-.6-.3-.02-.62-.04-.9.06-.28.1-.5.29-.74.46-1.51,1.12-3.6,1.41-5.36.75-.45-.17-1.55-.89-1.55-.89,0,0-2.78.67-4.81,1.42Z"/>
  <path class="cls-22" d="m134.12,60.08c.71.38,1.43.9,1.49,1.64.06.65-.49,1.21-1.09,1.47-.6.26-1.26.33-1.87.56-.16.06-.31.14-.42.26-.14.16-.17.38-.21.59-.14.75-.39,1.52-.96,2.04-.57.51-1.53.65-2.08.13-.56-.53-.49-1.41-.44-2.18.05-.77-.04-1.7-.73-2.04-.24-.12-.51-.15-.78-.15-.41-.01-.82.01-1.23.07-.24.04-.49.08-.73.03-.41-.1-.67-.49-.9-.84-.21-.33-.31-1.22-.11-1.56h10.06Z"/>
  <path class="cls-23" d="m87.7,112.94c.1.31,0,.65-.13.95-.12.3-.27.61-.24.94.03.33.31.66.63.6.21-.04.36-.21.46-.4.1-.18.17-.38.31-.54.07-.08.15-.15.26-.17.13-.03.27.02.38.08.38.22.66.68,1.1.65.21-.01.39-.15.53-.3.25-.26.43-.6.5-.95.04-.18.04-.39-.08-.53-.07-.08-.17-.12-.27-.16-.42-.17-.86-.41-1.02-.84-.27-.74.49-1.49.47-2.28,0-.19-.07-.39-.2-.53-.13-.14-.34-.21-.52-.14-.2.08-.31.3-.38.5-.1.28-.19.57-.25.86-.04.16-.07.32-.14.46-.08.14-.22.26-.38.27-.08,0-.16-.02-.23,0-.15.04-.22.23-.2.39.04.29.32,1.02-.19.7-.11-.07-.18-.22-.34-.17-.28.09-.1.43-.05.6Z"/>
  <polyline class="cls-12" points="146.88 35.39 142.39 42.95 146.88 44.02 137.56 56.07"/>
  <path class="cls-22" d="m56.98,121.7c2.87.87,6.21.93,4.7-1.05-.89-1.16-1.09-2.72-.34-3.99.34-.58.42-1.17-.37-1.84-3.94-3.27-8.8,0-10.08.62-3.48,1.72.87,2.71,2.87,4.08.58.4,1.27.54,1.96.63.98.13-.91,2.33,1.26,1.54Z"/>
  <path class="cls-22" d="m146.78,76.13c.37.2.74.47.77.85.03.34-.26.62-.58.75-.31.13-.66.16-.98.28-.08.03-.16.07-.22.13-.07.08-.09.2-.11.3-.08.39-.21.78-.51,1.04-.3.26-.8.33-1.09.05-.29-.27-.25-.73-.22-1.13.03-.4-.01-.88-.37-1.06-.12-.06-.27-.08-.41-.08-.21,0-.43,0-.64.03-.13.02-.26.04-.38,0-.21-.05-.35-.25-.46-.44-.11-.17-.16-.63-.05-.8l5.24.05Z"/>
  <rect class="cls-14" x="-565.03" y="-2712.47" width="2244.45" height="5948.74"/>
</svg>