<?xml version="1.0" encoding="UTF-8"?>
<svg id="Calque_1" data-name="Calque 1" xmlns="http://www.w3.org/2000/svg" viewBox="0 0 128 128">
  <defs>
    <style>
      .cls-1, .cls-2, .cls-3, .cls-4, .cls-5, .cls-6 {
        fill: none;
      }

      .cls-7, .cls-8, .cls-9, .cls-10, .cls-11, .cls-12, .cls-2, .cls-13, .cls-14, .cls-3, .cls-5 {
        stroke-linecap: round;
        stroke-linejoin: round;
      }

      .cls-7, .cls-9, .cls-12, .cls-2, .cls-15, .cls-14, .cls-3, .cls-16, .cls-17, .cls-18, .cls-19, .cls-20, .cls-4, .cls-6, .cls-21 {
        stroke: #000;
      }

      .cls-7, .cls-10 {
        fill: #afaff9;
      }

      .cls-8 {
        stroke: #b4eac3;
      }

      .cls-8, .cls-9 {
        fill: #b4eac3;
      }

      .cls-10 {
        stroke: #afaff9;
      }

      .cls-11 {
        stroke: #f3d587;
      }

      .cls-11, .cls-12, .cls-18 {
        fill: #f3d587;
      }

      .cls-15, .cls-16, .cls-17, .cls-18, .cls-19, .cls-20, .cls-4, .cls-6, .cls-21 {
        stroke-miterlimit: 10;
      }

      .cls-15, .cls-21 {
        stroke-width: 1.1px;
      }

      .cls-13 {
        fill: #fab0b4;
        stroke: #fab0b4;
      }

      .cls-14, .cls-3, .cls-4 {
        stroke-width: 2px;
      }

      .cls-14, .cls-16, .cls-21 {
        fill: #fff;
      }

      .cls-17 {
        fill: #f387d5;
      }

      .cls-19 {
        fill: #87f3b9;
      }

      .cls-20 {
        fill: #87ccf3;
      }

      .cls-5 {
        stroke: #fff;
        stroke-width: 8px;
      }
    </style>
  </defs>
  <polygon class="cls-4" points="106.24 39.31 106.24 123.88 5.76 123.88 5.76 39.31 56.03 16.67 106.24 39.31"/>
  <rect class="cls-3" x="29.28" y="59.26" width="53.45" height="10.18"/>
  <rect class="cls-3" x="36.75" y="77.39" width="38.51" height="46.35"/>
  <line class="cls-3" x1="56" y1="77.39" x2="56" y2="123.74"/>
  <polygon class="cls-10" points="16.89 98.27 16.89 90.17 23.18 95.04 16.89 98.27"/>
  <rect class="cls-11" x="17.78" y="106.98" width="7.62" height="7.62" transform="translate(47.47 .92) rotate(24.28)"/>
  <rect class="cls-8" x="85.66" y="85.87" width="8.34" height="8.34" transform="translate(-22.91 31.17) rotate(-17.49)"/>
  <circle class="cls-13" cx="90.38" cy="113.04" r="3.52"/>
  <line class="cls-2" x1="52.63" y1="101.27" x2="49.36" y2="101.27"/>
  <line class="cls-2" x1="62.64" y1="101.27" x2="59.37" y2="101.27"/>
  <path class="cls-14" d="m123.58,36.18v.39c0,17.4-14.12,31.52-31.53,31.52-8.66,0-16.5-3.49-22.19-9.14-1.33-1.32-2.54-2.75-3.6-4.28-1.44-2.02-2.62-4.22-3.54-6.55-1.41-3.57-2.19-7.47-2.19-11.55,0-2.11.21-4.17.6-6.16,2.69-13.6,14.13-24.06,28.21-25.25.34-.03.68-.06,1.03-.08.55-.03,1.12-.04,1.68-.04,16.77,0,30.49,13.1,31.47,29.62.03.5.05,1.01.06,1.52Z"/>
  <path class="cls-20" d="m104.1,35.83l-12.53-1.51c-.91-.11-1.36-.66-1.25-1.58l2.25-18.38c.11-.91.62-1.24,1.53-1.13l12.45,1.51c.91.11,1.38.6,1.27,1.51l-2.23,18.36c-.11.91-.57,1.32-1.49,1.21Z"/>
  <path class="cls-18" d="m103.25,39.22l-11.5-5.34c-.83-.39-1.12-.87-.73-1.7l7.94-16.9c.39-.83,1.04-1.04,1.87-.65l11.37,5.33c.83.39,1.06,1.09.66,1.92l-7.86,16.7c-.39.83-.93,1.02-1.76.63Z"/>
  <path class="cls-19" d="m104.24,42.3l-10.23-7.42c-.75-.54-.83-1.15-.29-1.9l10.87-15.01c.54-.75,1.18-.79,1.92-.25l10.16,7.32c.75.54.89,1.25.34,2l-10.77,14.88c-.54.75-1.27.92-2.01.38Z"/>
  <path class="cls-17" d="m104.58,45.23l-8.29-9.61c-.6-.7-.55-1.28.14-1.88l13.99-12.1c.7-.6,1.39-.55,2,.15l8.16,9.47c.6.7.61,1.41-.09,2.01l-13.98,12.07c-.7.6-1.33.58-1.93-.12Z"/>
  <g>
    <path class="cls-7" d="m82.46,30.41v24.26h-16.2c-1.44-2.02-2.62-4.22-3.54-6.55-1.41-3.57-2.19-7.47-2.19-11.55,0-2.11.21-4.17.6-6.16h21.33Z"/>
    <polygon class="cls-9" points="89 30.41 67.17 30.41 78.09 12.43 89 30.41"/>
    <circle class="cls-12" cx="83.24" cy="44.52" r="10.16"/>
  </g>
  <g>
    <path class="cls-21" d="m83.36,50.76l-.6-.33-1.12-.62c-.39-.21-.85-.39-1.24-.15-.5.3-.8,1.07-.8,1.65h0s1.26,3.73,1.26,3.73l.13.38.79,2.36.42,1.26,1.06,3.13c.23.15.49.21.74.21.23,0,.46-.06.67-.17.48-.26.55-.76.55-1.32v-6.57c0-1.5-.58-2.88-1.85-3.58Z"/>
    <path class="cls-16" d="m95.23,52.16c-.07-.4-.2-.78-.39-1.13-.29-.56-.72-1.04-1.25-1.38-.05-.04-.11-.08-.17-.1,0,0,0,0,0,0,0,0-.03-.02-.04-.03l-1.49-.77-.79-.4c-1.08-.55-2.28-.76-3.47-.6l-4.85.65-.57.08s-.03,0-.03,0l-.39.05c-.23.03-.46.11-.67.23-.05.03-.09.05-.13.09-.76.49-1.36,1.45-1.36,2.35v.12l.03,3.24v.87l.02,2.43c0,1.27.66,2.47,1.7,3.12l1.91,1.2.05.03c.96.6,2.05.91,3.16.91.3,0,.62-.02.91-.07l.09-.02,4.73-.75c.83-.13,1.55-.55,2.08-1.14,0,0,0-.02.02-.03.21-.24.4-.51.54-.81.08-.15.14-.29.18-.44.12-.33.19-.69.2-1.06,0-.05,0-.1,0-.15v-1.2s.02-1.19.02-1.19v-.75s.03-1.36.03-1.36v-1.26c0-.25,0-.49-.05-.72Z"/>
    <path class="cls-6" d="m87.5,51.68c-1.39.2-2.27,1.27-2.27,2.73v6.13c0,.74.09,1.19.56,1.74.41.48,1.08.85,1.7.75"/>
    <path d="m87.68,53.22c-.15.02-.29.08-.42.16-.13.08-.25.19-.34.31-.1.12-.18.27-.23.42-.06.15-.09.32-.09.49,0,.17.03.32.08.46.05.14.13.26.23.35.1.1.21.17.34.21.13.04.27.06.42.03.15-.02.29-.08.42-.16.13-.08.25-.19.34-.31.1-.12.18-.27.23-.42.05-.15.09-.32.09-.49,0-.17-.03-.32-.08-.46-.05-.14-.13-.26-.23-.35-.1-.1-.21-.17-.34-.21-.13-.04-.27-.06-.42-.04h0Z"/>
    <path d="m87.67,58.89c-.15.02-.29.08-.42.16-.13.08-.25.19-.34.31-.1.12-.18.27-.23.42-.05.15-.09.32-.09.48,0,.17.03.32.08.46.05.14.13.25.23.35.1.09.21.16.34.2.13.04.27.05.42.03.15-.02.29-.08.42-.16.13-.08.24-.19.34-.31.1-.12.18-.27.23-.42.05-.15.08-.31.09-.48,0-.17-.03-.32-.08-.46-.05-.14-.13-.25-.23-.35-.1-.09-.21-.16-.34-.21-.13-.04-.27-.05-.42-.03h0Z"/>
    <path class="cls-15" d="m92.73,52.5c-.15.02-.29.07-.41.15-.13.08-.24.18-.34.31-.1.12-.18.27-.23.42-.05.15-.09.32-.09.48,0,.17.03.32.08.46.05.14.13.26.23.35.1.1.21.17.34.21.13.04.27.06.41.03.15-.02.29-.08.41-.16.13-.08.24-.18.34-.31.1-.12.17-.26.23-.42.05-.15.09-.32.09-.48,0-.17-.03-.32-.08-.46-.05-.14-.13-.26-.22-.35-.1-.1-.21-.17-.34-.21-.13-.04-.27-.06-.41-.04"/>
    <path d="m92.69,58.13c-.15.02-.29.08-.41.16-.13.08-.24.19-.34.31-.1.12-.17.26-.23.42-.05.15-.09.31-.09.48,0,.17.03.32.08.45.05.13.13.25.22.34.09.09.21.16.33.2.13.04.26.05.41.03.15-.02.28-.08.41-.16.13-.08.24-.19.34-.31.1-.12.17-.26.23-.41.05-.15.09-.31.09-.48,0-.16-.03-.32-.08-.45-.05-.13-.13-.25-.22-.35-.09-.09-.21-.16-.33-.21-.13-.04-.26-.05-.41-.03h0Z"/>
    <path d="m81.15,55.22c0,.16.02.33.04.49.03.16.07.31.11.44.05.14.1.26.17.35.06.1.13.17.2.21.07.04.14.05.2.03.06-.02.12-.08.17-.16.05-.08.09-.19.11-.31.03-.13.04-.28.04-.44,0-.16-.02-.33-.04-.49-.03-.16-.07-.31-.11-.45-.05-.14-.1-.26-.17-.35-.06-.1-.13-.17-.2-.21-.07-.04-.14-.05-.2-.02-.06.02-.12.08-.16.16-.05.08-.08.19-.11.31-.03.13-.04.27-.04.44h0Z"/>
    <path d="m81.14,51.86c0,.16.02.33.04.49.03.16.07.31.11.44.05.13.1.25.17.35.06.1.13.17.2.21.07.04.14.05.2.02.06-.02.12-.08.17-.16.05-.08.09-.19.11-.32.03-.13.04-.28.04-.44,0-.17-.02-.33-.04-.49-.03-.16-.07-.31-.11-.45-.05-.14-.1-.26-.17-.35-.06-.1-.13-.17-.2-.21-.07-.04-.14-.05-.2-.02-.06.03-.12.08-.16.16-.05.08-.08.19-.11.32-.03.13-.04.28-.04.44h0Z"/>
    <path d="m81.17,58.57c0,.16.02.33.04.48.03.16.07.31.11.44.05.14.1.26.17.35.06.1.13.17.2.22.07.04.14.05.2.03.06-.02.12-.07.16-.15.05-.08.08-.18.11-.31.03-.13.04-.27.04-.44,0-.16-.02-.33-.04-.49-.03-.16-.07-.31-.11-.45-.05-.14-.1-.26-.17-.35-.06-.1-.13-.17-.2-.22-.07-.04-.14-.05-.2-.03-.06.02-.12.07-.16.15-.05.08-.08.18-.11.31-.03.13-.04.27-.04.43h0Z"/>
    <path d="m82.76,56.18c0,.17.02.33.04.49.03.16.07.31.11.45.05.14.11.26.17.36.06.1.13.17.21.22.07.04.14.05.21.03.06-.02.12-.08.17-.16.05-.08.09-.19.11-.31.03-.13.04-.28.04-.44,0-.17-.02-.33-.04-.49-.03-.16-.07-.31-.12-.45-.05-.14-.11-.26-.17-.36-.06-.1-.13-.17-.21-.22-.07-.04-.14-.05-.21-.03-.06.02-.12.08-.17.16-.05.08-.09.19-.11.31-.03.13-.04.28-.04.44h0Z"/>
    <path d="m82.76,52.78c0,.17.02.33.04.49.03.16.07.31.11.45.05.14.11.26.17.36.06.1.13.17.21.21.07.04.14.05.21.02.06-.02.12-.08.17-.16.05-.08.09-.19.11-.32.03-.13.04-.28.04-.45,0-.17-.02-.34-.04-.5-.03-.16-.07-.31-.12-.45-.05-.14-.11-.26-.17-.36-.06-.1-.13-.17-.21-.21-.07-.04-.14-.05-.21-.02-.06.03-.12.08-.17.16-.05.08-.09.19-.11.32-.03.13-.04.28-.04.45h0Z"/>
    <path d="m82.77,59.55c0,.16.02.33.04.49.03.16.07.31.11.45.05.14.11.26.17.36.06.1.13.18.21.22.07.05.14.06.21.03.06-.02.12-.07.17-.15.05-.08.09-.18.11-.31.03-.13.04-.27.04-.44,0-.17-.02-.33-.04-.49-.03-.16-.07-.31-.12-.45-.05-.14-.11-.26-.17-.36-.06-.1-.13-.18-.21-.22-.07-.04-.14-.05-.21-.03-.06.02-.12.07-.17.15-.05.08-.09.18-.11.31-.03.13-.04.27-.04.44h0Z"/>
    <path class="cls-6" d="m93.59,49.65c-.05-.04-.11-.08-.17-.1h0s0,0,0,0c0,0-.03-.02-.04-.03l-1.49-.77-.79-.4c-1.08-.55-2.28-.76-3.47-.6l-4.36.57c-.09,0-.26.03-.49.07-.17.03-.37.05-.57.09,0,0-.03,0-.03,0-.41.08-.82.17-1.07.28-.05.03-.09.05-.13.09-.05.03-.09.08-.09.12-.07.38.28.56.61.75l.16.09,1.12.62.6.33.24.13c.83.46,1.73.91,2.64.91.26,0,.51-.02.76-.05l.5-.07,3.38-.48.91-.13.49-.07.84-.12c.35-.05.62-.32.68-.68.05-.28-.03-.43-.21-.55Z"/>
    <path class="cls-1" d="m83.11,49.18c-.15.02-.27.05-.37.08-.1.03-.18.07-.23.11-.05.04-.07.08-.06.12,0,.04.05.08.12.12.07.04.17.07.29.1.12.03.25.05.4.06.14.01.3.02.45.02.15,0,.31-.01.46-.03.15-.02.27-.05.37-.08.1-.03.18-.07.22-.11.05-.04.07-.08.06-.12-.01-.04-.05-.08-.12-.12-.07-.04-.17-.07-.29-.1-.12-.03-.25-.05-.39-.06-.14-.01-.3-.02-.45-.02-.15,0-.31.01-.45.03"/>
    <path class="cls-1" d="m85.6,50.53c-.15.02-.27.05-.37.08-.1.03-.18.07-.23.11-.05.04-.07.08-.06.13.01.04.05.09.13.13.07.04.18.08.3.1.12.03.26.05.4.06.15.01.3.02.46.02.16,0,.31-.01.46-.04.15-.02.28-.05.38-.08.1-.03.18-.07.22-.11.05-.04.07-.08.06-.13-.01-.04-.05-.09-.13-.13-.08-.04-.18-.08-.3-.1-.12-.03-.26-.05-.4-.06-.15-.01-.3-.02-.46-.02-.16,0-.31.01-.46.03"/>
    <path class="cls-1" d="m88.05,48.51c-.14.02-.27.05-.36.08-.1.03-.17.07-.22.11-.05.04-.06.08-.05.12.01.04.05.08.13.12.07.04.17.07.29.1.12.03.25.05.4.06.14.01.3.02.45.02.15,0,.31-.01.45-.03.14-.02.27-.05.36-.08.1-.03.17-.07.22-.11.05-.04.06-.08.05-.12-.01-.04-.05-.08-.13-.12-.07-.04-.18-.07-.29-.1-.12-.03-.25-.05-.39-.06-.14-.01-.29-.02-.45-.02-.15,0-.3.01-.45.03"/>
    <path class="cls-1" d="m86.82,49.51c-.15.02-.27.05-.37.08-.1.03-.17.07-.22.11-.05.04-.07.08-.06.12.01.04.05.08.13.12.07.04.18.07.29.1.12.03.25.05.4.06.15.01.3.02.45.02.15,0,.31-.01.46-.03.15-.02.27-.05.37-.08.1-.03.17-.07.22-.11.05-.04.06-.08.05-.12-.01-.04-.05-.08-.13-.12-.08-.04-.18-.07-.29-.1-.12-.03-.25-.05-.4-.06-.14-.01-.3-.02-.45-.02-.15,0-.31.01-.45.03"/>
    <path class="cls-1" d="m90.6,49.84c-.15.02-.27.05-.37.08-.1.03-.17.07-.22.11-.05.04-.06.08-.05.12.01.04.06.08.13.13.08.04.18.07.3.1.12.03.26.05.4.06.15.01.3.02.46.02.16,0,.31-.01.46-.03.15-.02.27-.05.37-.08.1-.03.17-.07.22-.11.04-.04.06-.08.05-.12-.01-.04-.06-.08-.14-.12-.08-.04-.18-.07-.3-.1-.12-.03-.26-.05-.4-.06-.15-.01-.3-.02-.45-.02-.15,0-.31.01-.45.03"/>
    <path class="cls-16" d="m108.73,57.86c0-.16-.03-.32-.08-.49l-.94-3.65c-.44-1.73-1.58-3.44-3.01-4.6-.06-.05-.12-.09-.18-.14-.08-.06-.15-.11-.22-.16-.06-.05-.13-.09-.19-.14l-1.76-1.16-.06-.03h0s-.08-.06-.08-.06l-.3-.2s-.05-.03-.08-.04c-.03-.03-.06-.04-.09-.06-.26-.16-.55-.27-.84-.35-.03,0-.08-.03-.11-.03-.61-.13-1.24-.09-1.84.11-.05.02-.11.04-.16.07l-.19.09-1.86.91-1.66.81-1.67.81h0s-.03.02-.03.03c-.08.04-.15.09-.23.13-.55.32-1.02.81-1.35,1.38-.43.73-.63,1.57-.52,2.37,0,0,0,.02,0,.03,0,.07.02.13.03.2v.03c0,.06.03.11.04.17l1.25,4.29.21.74c.12.42.31.84.55,1.21.25.39.56.75.91,1.03h0s2.49,1.94,2.49,1.94c1.54,1.19,3.9,1.45,5.63.56l.16-.09,4.13-2.11c1.2-.62,2.03-1.96,2.04-3.29,0-.09,0-.2-.02-.29Z"/>
    <path class="cls-6" d="m108.73,57.86c-.02-.15-.05-.28-.09-.43l-1.03-4.01c-.19-.73-.7-1.33-1.39-1.65-.63-.29-1.36-.31-2-.05-.08.03-.15.06-.22.09l-.04.03-4.42,2.19c-.15.08-.29.15-.42.25,0,0,0,0-.02,0-1.3.91-1.65,2.54-1.2,4.13l.87,3.12c.25.86.48,1.66,1.32,2.02.4.18.82.26,1.24.26s.85-.09,1.24-.27c.05-.02.11-.04.16-.07l4.1-2.09c1.25-.64,1.97-1.9,1.9-3.24,0-.09,0-.2-.02-.29Z"/>
    <path d="m100.99,60.44c-.15.07-.28.17-.39.29-.11.12-.21.25-.28.39-.07.14-.12.29-.14.44-.02.15-.01.3.03.43.04.14.1.26.19.35.09.09.19.16.31.2.12.04.25.06.39.04.14-.01.29-.06.43-.13.15-.07.28-.17.39-.29.11-.11.21-.25.28-.38.07-.14.12-.29.14-.43.02-.15.01-.29-.02-.43-.04-.14-.1-.26-.19-.35-.09-.09-.19-.16-.31-.21-.12-.04-.25-.06-.39-.05-.14.01-.29.06-.43.13h0Z"/>
    <path d="m104.68,53.17c-.15.07-.28.17-.39.29-.11.12-.21.25-.28.39-.07.14-.12.29-.14.44-.02.15-.01.3.02.44.04.14.1.26.19.36.09.1.19.17.31.21.12.04.25.06.39.05.14-.01.29-.05.43-.13.15-.07.28-.17.39-.29.11-.11.21-.25.28-.39.07-.14.12-.29.14-.44.02-.15.02-.3-.02-.44-.04-.14-.1-.26-.19-.36-.09-.1-.19-.17-.31-.21-.12-.05-.25-.06-.39-.05-.14.01-.29.05-.43.12h0Z"/>
    <path d="m102.81,56.82c-.15.07-.28.17-.39.29-.11.12-.21.25-.28.39-.07.14-.12.29-.14.44-.02.15-.01.3.02.44.04.14.1.26.19.35.09.09.19.16.31.21.12.04.25.06.39.05.14-.01.29-.05.43-.13.15-.07.28-.17.39-.29.11-.11.21-.25.28-.39.07-.14.12-.29.14-.44.02-.15.01-.3-.02-.44-.04-.14-.1-.26-.19-.35-.09-.09-.19-.17-.31-.21-.12-.04-.25-.06-.39-.05-.14.01-.29.05-.43.13h0Z"/>
    <path class="cls-16" d="m98.91,62.06l-1.33-4.76c-.33-1.2-1.08-2.26-2.08-3.01l-.21-.15-1.67-1.21-.58-.43h0c-.38-.29-.89-.3-1.28-.02-.32.22-.5.58-.47.96,0,0,0,.02,0,.03,0,.07.02.13.03.2v.03s1.31,4.45,1.31,4.45l.25.85c.11.39.28.77.5,1.1.25.38.56.73.93,1.02l.03.03,2.74,2.12c.21.17.47.26.72.26.23,0,.45-.07.66-.21.42-.28.6-.77.46-1.25Z"/>
    <path class="cls-1" d="m93.82,58.8c.04.14.09.28.16.42.06.14.14.28.22.41.08.13.16.25.25.35.08.1.17.19.25.25.08.06.15.09.21.1.06,0,.1-.02.13-.07.03-.05.04-.12.04-.22,0-.1-.03-.21-.06-.35-.04-.14-.09-.28-.16-.42-.06-.14-.14-.28-.22-.41-.08-.13-.16-.25-.25-.35-.08-.1-.17-.19-.25-.25-.08-.06-.15-.09-.2-.09-.06,0-.1.02-.12.07-.03.05-.04.12-.03.22,0,.1.03.21.07.35"/>
    <path class="cls-1" d="m96.58,60.9c.04.14.09.28.16.42.06.14.14.28.22.41.08.13.17.25.25.36.09.11.17.19.26.26.08.06.15.1.21.1.06,0,.1-.02.13-.07.03-.05.04-.12.04-.22,0-.1-.02-.21-.06-.35-.04-.14-.09-.28-.16-.43-.06-.14-.14-.29-.22-.42-.08-.13-.17-.26-.25-.36-.09-.11-.17-.19-.26-.26-.08-.06-.15-.1-.21-.1-.06,0-.1.02-.13.07-.03.05-.04.12-.04.22,0,.1.02.21.06.35"/>
    <path class="cls-1" d="m92.46,54.1c.04.14.09.28.16.43.06.14.14.28.22.41.08.13.16.25.25.35.08.1.17.19.25.25.08.06.15.09.21.09.06,0,.1-.02.12-.08.03-.05.04-.13.03-.23,0-.1-.03-.22-.07-.36-.04-.14-.09-.28-.16-.43-.06-.14-.14-.28-.22-.42-.08-.13-.16-.25-.25-.36-.09-.1-.17-.19-.25-.25-.08-.06-.15-.09-.2-.09-.06,0-.1.03-.12.08-.03.05-.04.13-.03.23,0,.1.03.22.07.36"/>
    <path class="cls-1" d="m94.52,57.51c.04.14.09.28.16.42.06.14.14.28.22.41.08.13.16.25.25.36.09.1.17.19.25.25.08.06.15.09.21.1.06,0,.1-.02.13-.07.03-.05.04-.12.04-.22,0-.1-.02-.22-.06-.36-.04-.14-.09-.28-.16-.43-.06-.14-.14-.28-.22-.42-.08-.13-.17-.25-.25-.36-.09-.1-.17-.19-.25-.25-.08-.06-.15-.09-.21-.09-.06,0-.1.02-.13.07-.03.05-.04.13-.04.22,0,.1.03.22.07.36"/>
    <path class="cls-1" d="m95.23,56.16c.04.14.09.29.16.43.06.14.14.29.22.42.08.13.17.26.25.36.09.11.17.19.26.26.08.06.15.09.21.1.06,0,.1-.02.13-.07.03-.05.04-.13.04-.23,0-.1-.02-.22-.06-.36-.04-.14-.09-.29-.16-.43-.07-.15-.14-.29-.22-.42-.08-.13-.17-.26-.25-.36-.09-.11-.17-.19-.26-.25-.08-.06-.15-.09-.21-.09-.06,0-.1.03-.13.08-.03.05-.04.13-.04.23,0,.1.03.22.07.36"/>
    <path class="cls-6" d="m103.96,51.85c.09-.03.18-.08.26-.12.62-.32,1.08-.86,1.09-1.14.03-.56-.19-1.1-.62-1.46-.06-.05-.12-.09-.18-.14l-.23-.15-1.94-1.31-.06-.03h0s-.08-.06-.08-.06l-.3-.2-.07-.05-.08-.05s-.02,0-.03-.02c-.25-.17-.51-.29-.79-.38-.04,0-.08-.03-.12-.03-.62-.15-1.27-.11-1.87.15-.05.02-.11.04-.16.07l-.19.09-1.85.91-1.67.8-1.67.81h0s-.04.03-.04.03l-.23.13c-.46.31-.77.77-.86,1.31-.02.06-.03.12-.03.19-.05.56.42.97.9,1.34,0,0,.02,0,.03.02.11.07.21.15.32.22l.03.02,1.31.96c.16.12.32.24.46.34.67.49,1.24.85,2.1.85.33,0,1.15-.35,1.73-.65,0,0,.02,0,.02,0,.09-.04.16-.09.23-.13"/>
    <path d="m97.12,49.79c-.14.07-.27.15-.36.23-.1.08-.16.17-.21.25-.04.08-.05.17-.04.24.02.08.07.15.15.21.08.06.19.1.32.12.13.02.27.03.42.02.15,0,.31-.03.46-.07.16-.04.31-.1.46-.17.15-.07.27-.15.36-.23.09-.08.16-.17.2-.26.04-.08.05-.17.03-.24-.02-.08-.07-.15-.15-.2-.08-.06-.19-.1-.32-.12-.12-.02-.27-.03-.42-.02-.15,0-.31.03-.46.07-.16.04-.31.1-.45.17h0Z"/>
    <path d="m100.07,48.35c-.14.07-.26.15-.36.23-.09.08-.16.17-.2.25-.04.08-.05.17-.03.24.02.08.07.15.15.2.08.06.19.1.32.12.13.02.27.03.42.02.15,0,.31-.03.46-.07.16-.04.31-.1.45-.17.14-.07.26-.15.36-.23.09-.08.16-.17.2-.25.04-.08.05-.17.03-.24-.02-.08-.07-.14-.16-.2-.08-.06-.19-.1-.32-.12-.13-.02-.27-.03-.42-.02-.15,0-.31.03-.46.07-.15.04-.31.1-.45.17h0Z"/>
    <path d="m94.15,51.25c-.15.07-.27.15-.36.23-.1.08-.17.17-.21.26-.04.09-.06.17-.04.25.02.08.07.15.15.21s.19.1.31.13c.12.03.27.03.42.03.15,0,.31-.03.46-.07.16-.04.31-.1.46-.17.15-.07.27-.15.37-.24.1-.08.17-.17.21-.26.04-.09.05-.17.04-.25-.02-.08-.07-.15-.15-.21-.08-.06-.19-.1-.31-.13-.12-.02-.27-.03-.41-.02-.15,0-.31.03-.46.07-.16.04-.31.1-.46.17h0Z"/>
    <path d="m98.98,51.1c-.15.07-.27.15-.36.24-.1.08-.16.17-.21.26-.04.09-.05.17-.03.25.02.08.07.15.15.21.08.06.19.1.32.13.13.03.27.03.42.03.15,0,.31-.03.47-.07s.31-.1.46-.17c.15-.07.27-.15.36-.24.1-.08.16-.17.2-.26.04-.09.05-.17.03-.25-.02-.08-.07-.15-.16-.21-.09-.06-.2-.1-.32-.13-.13-.02-.27-.03-.42-.02-.15,0-.31.03-.47.07-.16.04-.31.1-.46.17h0Z"/>
    <path d="m101.95,49.63c-.14.07-.26.15-.36.23-.09.08-.16.17-.2.26-.04.09-.05.17-.03.25.02.08.07.15.16.21.09.06.2.1.32.13.13.02.27.03.42.02.15,0,.31-.03.47-.07.16-.04.31-.1.46-.17.15-.07.27-.15.36-.24.09-.08.16-.17.2-.26.04-.09.05-.17.03-.25-.02-.08-.07-.15-.16-.21-.09-.06-.2-.1-.32-.12-.13-.02-.27-.03-.42-.02-.15,0-.31.03-.46.07-.16.04-.31.1-.46.17h0Z"/>
    <path d="m95.98,52.58c-.15.07-.27.15-.37.24-.1.08-.17.17-.21.26-.04.09-.06.17-.04.25.02.08.07.15.15.21.08.06.19.1.32.13.13.03.27.03.42.03.15,0,.31-.03.47-.07s.32-.1.46-.17c.15-.07.27-.15.37-.24.1-.09.17-.17.21-.26.04-.09.05-.17.03-.25-.02-.08-.07-.15-.15-.21-.08-.06-.19-.1-.32-.13-.13-.03-.27-.03-.42-.03-.15,0-.31.03-.47.07-.16.04-.31.1-.46.17h0Z"/>
  </g>
  <rect class="cls-5" x="-1032.52" y="-133.07" width="1496.63" height="1236.8"/>
</svg>