<?xml version="1.0" encoding="UTF-8"?>
<svg id="Calque_1" data-name="Calque 1" xmlns="http://www.w3.org/2000/svg" viewBox="0 0 128 128.13">
  <defs>
    <style>
      .cls-1 {
        fill: #d6d6d6;
      }

      .cls-2 {
        fill: #1d1d1b;
      }

      .cls-3 {
        stroke: #fff;
        stroke-width: 8px;
      }

      .cls-3, .cls-4 {
        fill: none;
        stroke-linecap: round;
        stroke-linejoin: round;
      }

      .cls-4 {
        stroke: #ff6d75;
        stroke-width: 3px;
      }
    </style>
  </defs>
  <g>
    <path class="cls-1" d="m94.42,50.21c-5.2,0-11.82-.66-16.91-5.83-4.77-4.84-9.02-14.08-8.3-16.68.1-.37.36-.74.63-1.13.56-.82.94-1.45.62-2.05-.35-.67-2.52-1.02-4.49-1.02h-.22c-1.97,0-4.14.35-4.49,1.01-.32.6.06,1.23.62,2.05.27.39.52.76.63,1.14.72,2.6-3.52,11.84-8.3,16.68-5.09,5.17-11.71,5.83-16.91,5.83s-10.51-2.45-14.82-7.1c-3-3.23-4.15-6.78-4.76-9.17-.55-2.17-1.57-7.59-1.73-8.6-.18-1.16-2.56-3.52-4.02-4.74l-.2-.17.43-4.18.43-.02s.27-.01.63-.01c1.05,0,1.49.09,1.68.15.21-.05.89-.31,1.6-.59,3.55-1.38,11.86-4.6,21.34-4.6,11.38,0,19.46,6.58,20.65,7.6h14.7c1.19-1.02,9.27-7.6,20.65-7.6,9.48,0,17.8,3.22,21.35,4.6.7.27,1.37.53,1.6.58.19-.06.63-.15,1.67-.15.36,0,.63.01.63.01l.43.02.43,4.18-.2.17c-1.46,1.22-3.83,3.58-4.02,4.74-.16,1.01-1.18,6.44-1.73,8.6-.61,2.39-1.77,5.95-4.76,9.17-4.31,4.64-9.43,7.1-14.82,7.1Zm1.7-36.19c-5.18,0-10.36,1.07-14.21,2.94-8.33,4.03-9.68,7.78-6.56,18.26,3.46,11.65,14.2,12.91,18.66,12.91,6.66,0,13.46-5.92,15.39-9.23,1.97-3.38,5.18-12.93,1.88-19.32-1.74-3.38-7.69-5.56-15.15-5.56Zm-60.52,0c-7.47,0-13.42,2.18-15.15,5.55-3.3,6.39-.09,15.94,1.88,19.32,1.93,3.31,8.72,9.23,15.39,9.23,4.46,0,15.19-1.26,18.66-12.91,3.12-10.48,1.77-14.23-6.56-18.26-3.85-1.87-9.04-2.94-14.21-2.94Z"/>
    <path class="cls-2" d="m93.85,11.7c11.99,0,22.06,5.19,22.98,5.19.02,0,.03,0,.04,0,.34-.13,1.07-.15,1.6-.15.35,0,.6.01.6.01l.35,3.48s-3.91,3.27-4.19,5.04c-.17,1.07-1.18,6.44-1.72,8.55-.62,2.44-1.76,5.85-4.64,8.95-4.26,4.59-9.28,6.94-14.46,6.94-5.77,0-11.87-.93-16.56-5.69-4.69-4.76-8.83-13.83-8.17-16.2.25-.91,1.92-2.21,1.21-3.55-.64-1.22-4.25-1.28-4.93-1.28-.07,0-.11,0-.11,0,0,0-.04,0-.11,0-.68,0-4.29.06-4.93,1.28-.71,1.35.96,2.65,1.21,3.55.66,2.36-3.48,11.44-8.17,16.2-4.69,4.76-10.78,5.69-16.55,5.69-5.18,0-10.19-2.34-14.46-6.94-2.88-3.1-4.02-6.51-4.64-8.95-.53-2.11-1.55-7.48-1.72-8.55-.28-1.78-4.2-5.04-4.2-5.04l.35-3.48s.26-.01.6-.01c.53,0,1.26.03,1.6.15.01,0,.03,0,.04,0,.92,0,10.99-5.19,22.98-5.19s20.46,7.6,20.46,7.6h15.08s8.24-7.6,20.46-7.6m.15,36.93c6.92,0,13.83-6.06,15.82-9.47,1.99-3.41,5.3-13.2,1.89-19.8-1.99-3.86-8.53-5.83-15.6-5.83-5.02,0-10.3.99-14.43,2.99-8.78,4.25-9.95,8.34-6.82,18.85,3.13,10.52,12.22,13.26,19.14,13.26m-56.29,0c6.91,0,16.01-2.75,19.13-13.26,3.13-10.51,1.96-14.61-6.82-18.85-4.13-2-9.42-2.99-14.43-2.99-7.07,0-13.61,1.96-15.6,5.83-3.41,6.6-.1,16.39,1.89,19.8,1.99,3.41,8.91,9.47,15.82,9.47M93.85,10.7c-11.31,0-19.21,6.21-20.84,7.6h-14.32c-1.63-1.39-9.52-7.6-20.84-7.6-9.57,0-17.94,3.25-21.52,4.63-.57.22-1.15.45-1.43.53-.3-.07-.79-.13-1.67-.13-.37,0-.65.01-.65.01l-.86.04-.09.86-.35,3.48-.05.53.41.34c1.74,1.46,3.71,3.57,3.85,4.43.16,1.01,1.18,6.45,1.74,8.64.62,2.45,1.81,6.08,4.88,9.39,4.41,4.75,9.66,7.26,15.19,7.26s12.04-.68,17.27-5.98c4.62-4.68,9.26-14.15,8.42-17.17-.13-.45-.4-.86-.7-1.28-.48-.7-.78-1.18-.59-1.54.21-.31,1.74-.75,4.05-.75h.1s.13,0,.13,0c2.31,0,3.84.44,4.05.75.17.32-.05.73-.59,1.53-.29.43-.57.83-.7,1.28-.84,3.02,3.81,12.49,8.42,17.17,5.22,5.3,11.97,5.98,17.27,5.98s10.78-2.51,15.19-7.26c3.07-3.31,4.26-6.94,4.88-9.39.55-2.17,1.57-7.62,1.74-8.64.14-.87,2.1-2.98,3.85-4.43l.41-.34-.05-.53-.35-3.48-.09-.86-.86-.04s-.28-.01-.65-.01c-.88,0-1.37.06-1.67.13-.28-.09-.86-.31-1.43-.53-3.58-1.39-11.95-4.64-21.53-4.64h0Zm.15,36.93c-4.34,0-14.81-1.22-18.18-12.55-3.05-10.27-1.82-13.74,6.3-17.67,3.79-1.83,8.89-2.89,14-2.89,7.28,0,13.06,2.07,14.71,5.28,3.2,6.21.06,15.54-1.87,18.84-1.88,3.22-8.49,8.98-14.96,8.98h0Zm-56.29,0c-6.48,0-13.08-5.76-14.96-8.98-1.93-3.3-5.07-12.63-1.87-18.84,1.65-3.21,7.43-5.28,14.71-5.28,5.11,0,10.21,1.05,14,2.89,8.12,3.92,9.35,7.39,6.3,17.67-3.37,11.33-13.83,12.55-18.18,12.55h0Z"/>
  </g>
  <g>
    <path class="cls-1" d="m94.1,113.72c-5.2,0-11.82-.66-16.91-5.83-4.77-4.84-9.02-14.08-8.3-16.68.1-.37.36-.74.63-1.13.56-.82.94-1.45.62-2.05-.35-.67-2.52-1.02-4.49-1.02h-.22c-1.97,0-4.14.35-4.49,1.01-.32.6.06,1.23.62,2.05.27.39.52.76.63,1.13.72,2.6-3.52,11.84-8.3,16.68-5.09,5.17-11.71,5.83-16.91,5.83s-10.51-2.45-14.82-7.1c-3-3.23-4.15-6.78-4.76-9.17-.55-2.18-1.57-7.59-1.73-8.6-.18-1.16-2.56-3.52-4.02-4.74l-.2-.17.43-4.18.43-.02s.27-.01.63-.01c1.05,0,1.49.09,1.68.15.21-.05.89-.31,1.6-.59,3.55-1.38,11.86-4.6,21.34-4.6,11.38,0,19.46,6.58,20.65,7.6h14.7c1.19-1.02,9.27-7.6,20.65-7.6,9.48,0,17.8,3.22,21.35,4.6.7.27,1.37.53,1.6.58.19-.06.63-.15,1.67-.15.36,0,.63.01.63.01l.43.02.43,4.18-.2.17c-1.46,1.22-3.83,3.58-4.02,4.74-.16,1.01-1.18,6.44-1.73,8.6-.61,2.39-1.77,5.95-4.76,9.17-4.31,4.64-9.43,7.1-14.82,7.1Zm1.7-36.19c-5.18,0-10.36,1.07-14.21,2.94-8.33,4.02-9.68,7.78-6.56,18.26,3.46,11.65,14.2,12.91,18.66,12.91,6.67,0,13.46-5.92,15.39-9.23,1.97-3.38,5.18-12.93,1.88-19.32-1.74-3.38-7.69-5.56-15.15-5.56Zm-60.52,0c-7.47,0-13.42,2.18-15.15,5.56-3.3,6.39-.09,15.94,1.88,19.32,1.93,3.31,8.72,9.23,15.39,9.23,4.46,0,15.19-1.26,18.66-12.91,3.12-10.48,1.77-14.23-6.56-18.26-3.85-1.87-9.04-2.94-14.21-2.94Z"/>
    <path class="cls-2" d="m93.53,75.21c11.99,0,22.06,5.19,22.98,5.19.02,0,.03,0,.04,0,.34-.13,1.07-.15,1.6-.15.35,0,.61.01.61.01l.35,3.48s-3.91,3.27-4.19,5.04c-.17,1.07-1.18,6.44-1.72,8.55-.62,2.44-1.76,5.85-4.64,8.95-4.26,4.59-9.28,6.94-14.46,6.94-5.77,0-11.87-.93-16.56-5.68-4.69-4.76-8.83-13.83-8.17-16.2.25-.91,1.92-2.21,1.21-3.55-.64-1.22-4.25-1.28-4.93-1.28-.07,0-.11,0-.11,0,0,0-.04,0-.11,0-.68,0-4.29.06-4.93,1.28-.71,1.35.96,2.65,1.21,3.55.66,2.36-3.48,11.44-8.17,16.2-4.69,4.76-10.78,5.68-16.55,5.68-5.18,0-10.19-2.34-14.46-6.94-2.88-3.1-4.02-6.51-4.64-8.95-.53-2.11-1.55-7.48-1.72-8.55-.28-1.78-4.2-5.04-4.2-5.04l.35-3.48s.26-.01.61-.01c.53,0,1.26.03,1.6.15.01,0,.03,0,.04,0,.92,0,10.99-5.19,22.97-5.19s20.46,7.6,20.46,7.6h15.08s8.24-7.6,20.46-7.6m.15,36.93c6.92,0,13.83-6.06,15.82-9.47,1.99-3.41,5.3-13.2,1.89-19.8-1.99-3.86-8.52-5.83-15.6-5.83-5.02,0-10.3.99-14.43,2.99-8.78,4.25-9.95,8.34-6.82,18.85,3.13,10.52,12.22,13.26,19.14,13.26m-56.29,0c6.91,0,16.01-2.75,19.13-13.26,3.13-10.51,1.96-14.61-6.82-18.85-4.13-2-9.42-2.99-14.43-2.99-7.07,0-13.61,1.96-15.6,5.83-3.41,6.6-.1,16.39,1.89,19.8,1.99,3.41,8.91,9.47,15.82,9.47m56.14-37.93c-11.31,0-19.21,6.21-20.84,7.6h-14.32c-1.63-1.39-9.52-7.6-20.84-7.6-9.57,0-17.94,3.25-21.52,4.63-.57.22-1.15.45-1.43.53-.3-.07-.79-.13-1.67-.13-.37,0-.65.01-.65.01l-.86.04-.09.86-.35,3.48-.05.53.41.34c1.74,1.46,3.71,3.57,3.85,4.43.16,1.01,1.18,6.45,1.74,8.64.62,2.45,1.81,6.08,4.88,9.39,4.41,4.75,9.66,7.26,15.19,7.26s12.04-.68,17.27-5.98c4.62-4.68,9.26-14.15,8.42-17.17-.13-.45-.4-.86-.7-1.28-.48-.7-.78-1.18-.59-1.54.21-.31,1.74-.75,4.05-.75h.1s.13,0,.13,0c2.31,0,3.84.44,4.05.75.17.32-.05.73-.59,1.53-.29.43-.57.83-.7,1.28-.84,3.02,3.81,12.49,8.42,17.17,5.22,5.3,11.97,5.98,17.27,5.98s10.78-2.51,15.19-7.26c3.07-3.31,4.26-6.94,4.88-9.39.55-2.17,1.57-7.62,1.74-8.64.14-.87,2.1-2.98,3.85-4.43l.41-.34-.05-.53-.35-3.48-.09-.86-.86-.04s-.28-.01-.65-.01c-.87,0-1.37.06-1.67.13-.28-.09-.86-.31-1.43-.53-3.58-1.39-11.95-4.64-21.53-4.64h0Zm.15,36.93c-4.34,0-14.81-1.22-18.18-12.55-3.05-10.27-1.82-13.74,6.3-17.67,3.79-1.83,8.89-2.89,14-2.89,7.28,0,13.06,2.07,14.71,5.28,3.2,6.21.06,15.54-1.87,18.84-1.88,3.22-8.48,8.98-14.96,8.98h0Zm-56.29,0c-6.48,0-13.08-5.76-14.96-8.98-1.93-3.3-5.07-12.63-1.87-18.84,1.65-3.21,7.43-5.28,14.71-5.28,5.11,0,10.21,1.05,14,2.89,8.12,3.92,9.35,7.39,6.3,17.67-3.37,11.33-13.83,12.55-18.18,12.55h0Z"/>
  </g>
  <g>
    <line class="cls-4" x1="40.64" y1="65.82" x2="91.06" y2="118.51"/>
    <line class="cls-4" x1="91.06" y1="65.82" x2="40.64" y2="118.51"/>
  </g>
  <rect class="cls-3" x="-3407.7" y="-5543.69" width="6467.34" height="6437.3"/>
</svg>