<?xml version="1.0" encoding="UTF-8"?>
<svg id="Calque_1" data-name="Calque 1" xmlns="http://www.w3.org/2000/svg" viewBox="0 0 128 128">
  <defs>
    <style>
      .cls-1 {
        fill: #87f3b9;
      }

      .cls-2 {
        stroke-width: 2px;
      }

      .cls-2, .cls-3 {
        stroke-linecap: round;
        stroke-linejoin: round;
      }

      .cls-2, .cls-3, .cls-4 {
        fill: none;
      }

      .cls-2, .cls-4 {
        stroke: #000;
      }

      .cls-3 {
        stroke: #fff;
        stroke-width: 8px;
      }

      .cls-4 {
        stroke-miterlimit: 10;
      }
    </style>
  </defs>
  <circle class="cls-1" cx="90.56" cy="58.15" r="33.99"/>
  <circle class="cls-1" cx="37.44" cy="58.15" r="33.99"/>
  <g>
    <path class="cls-2" d="m39.8,115.8l20.59-4.78-5.63-26.87s2.85-2.57,4.25-6.98c1.41-4.41-.02-12.77-.02-12.77l-1.64-12.01s-.12-1.6-1.54-2.67c-.56-.42-1.32-.76-2.35-.9-2.05-.26-3.16.86-3.74,1.89-.45.8-.58,1.56-.58,1.56l-.1,3.57-1.21-5.21-3.41-14.7c-.23-.95-.83-1.74-1.6-2.22-.78-.49-1.75-.68-2.7-.45-1.92.45-3.13,2.38-2.68,4.3l-1.16-5.01c-.22-.96-.82-1.74-1.59-2.23-.78-.48-1.75-.67-2.71-.45-1.04.24-1.86.92-2.33,1.79-.41.74-.55,1.63-.35,2.51l1.16,5c-.22-.96-.82-1.74-1.59-2.23-.78-.49-1.74-.67-2.7-.45-1.92.45-3.13,2.38-2.68,4.3l2.05,8.83c-.22-.96-.82-1.74-1.59-2.23-.78-.49-1.74-.67-2.71-.45-1.91.44-3.12,2.38-2.67,4.3l5.78,24.92s.8,4.79,3.75,7.55c2.94,2.77,5.82,4.14,5.82,4.14l5.88,27.96Z"/>
    <polyline class="cls-2" points="49.04 55.84 50.47 63.66 51.14 67.34"/>
    <line class="cls-2" x1="25.54" y1="49.61" x2="28.61" y2="62.86"/>
    <line class="cls-2" x1="30.46" y1="39.16" x2="35.59" y2="61.24"/>
    <line class="cls-2" x1="42.56" y1="59.63" x2="37.44" y2="37.55"/>
  </g>
  <g>
    <path class="cls-2" d="m90.19,114.32l-20.59-4.78,5.63-26.87s-2.85-2.57-4.25-6.98c-1.41-4.41.02-12.77.02-12.77l1.64-12.01s.12-1.6,1.54-2.67c.56-.42,1.32-.76,2.35-.9,2.05-.26,3.16.86,3.74,1.89.45.8.58,1.56.58,1.56l.1,3.57,1.21-5.21,3.41-14.7c.23-.95.83-1.74,1.6-2.22.78-.49,1.75-.68,2.7-.45,1.92.45,3.13,2.38,2.68,4.3l1.16-5.01c.22-.96.82-1.74,1.59-2.23.78-.48,1.75-.67,2.71-.45,1.04.24,1.86.92,2.33,1.79.41.74.55,1.63.35,2.51l-1.16,5c.22-.96.82-1.74,1.59-2.23.78-.49,1.74-.67,2.7-.45,1.92.45,3.13,2.38,2.68,4.3l-2.05,8.83c.22-.96.82-1.74,1.59-2.23.78-.49,1.74-.67,2.71-.45,1.91.44,3.12,2.38,2.67,4.3l-5.78,24.92s-.8,4.79-3.75,7.55c-2.94,2.77-5.82,4.14-5.82,4.14l-5.88,27.96Z"/>
    <polyline class="cls-2" points="80.95 54.36 79.51 62.19 78.84 65.86"/>
    <line class="cls-2" x1="104.45" y1="48.13" x2="101.37" y2="61.39"/>
    <line class="cls-2" x1="99.52" y1="37.68" x2="94.4" y2="59.77"/>
    <line class="cls-2" x1="87.42" y1="58.15" x2="92.54" y2="36.07"/>
  </g>
  <path class="cls-4" d="m23.55,50.13c-.19-.79-.99-1.27-1.78-1.08s-1.27.99-1.08,1.78l.21.86,2.86-.7-.21-.86Z"/>
  <path class="cls-4" d="m28.8,39.93c-.23-.94-1.18-1.52-2.13-1.29s-1.52,1.18-1.29,2.13l.25,1.02,3.42-.84-.25-1.02Z"/>
  <path class="cls-4" d="m34.64,33.13c-.23-.94-1.18-1.52-2.13-1.29s-1.52,1.18-1.29,2.13l.25,1.02,3.42-.84-.25-1.02Z"/>
  <path class="cls-4" d="m42.73,36.59c-.23-.94-1.18-1.52-2.13-1.29s-1.52,1.18-1.29,2.13l.25,1.02,3.42-.84-.25-1.02Z"/>
  <path class="cls-4" d="m55.4,52.98c-.15-1.15-1.21-1.96-2.37-1.81-1.15.16-1.97,1.22-1.81,2.37l.17,1.25,4.18-.56-.17-1.25Z"/>
  <g>
    <path class="cls-4" d="m106.49,48.64c.19-.79.99-1.27,1.78-1.08s1.27.99,1.08,1.78l-.21.86-2.86-.7.21-.86Z"/>
    <path class="cls-4" d="m101.24,38.44c.23-.94,1.18-1.52,2.13-1.29.94.23,1.52,1.18,1.29,2.13l-.25,1.02-3.42-.84.25-1.02Z"/>
    <path class="cls-4" d="m95.4,31.63c.23-.94,1.18-1.52,2.13-1.29.94.23,1.52,1.18,1.29,2.13l-.25,1.02-3.42-.84.25-1.02Z"/>
    <path class="cls-4" d="m87.31,35.09c.23-.94,1.18-1.52,2.13-1.29.94.23,1.52,1.18,1.29,2.13l-.25,1.02-3.42-.84.25-1.02Z"/>
    <path class="cls-4" d="m74.64,51.48c.15-1.15,1.21-1.96,2.37-1.81,1.15.16,1.97,1.22,1.81,2.37l-.17,1.25-4.18-.56.17-1.25Z"/>
  </g>
  <rect class="cls-3" x="-607.4" y="-963.94" width="6467.34" height="6437.3"/>
</svg>