<?xml version="1.0" encoding="UTF-8"?>
<svg id="Calque_1" data-name="Calque 1" xmlns="http://www.w3.org/2000/svg" viewBox="0 0 128 128">
  <defs>
    <style>
      .cls-1 {
        fill: #d6d6d6;
      }

      .cls-1, .cls-2, .cls-3, .cls-4, .cls-5, .cls-6 {
        stroke: #000;
      }

      .cls-1, .cls-2, .cls-3, .cls-4, .cls-5, .cls-6, .cls-7 {
        stroke-linecap: round;
        stroke-linejoin: round;
      }

      .cls-2 {
        fill: #87ccf3;
      }

      .cls-3 {
        fill: #b2f0e9;
      }

      .cls-4 {
        fill: #ff6d75;
      }

      .cls-5 {
        fill: #bbfedb;
      }

      .cls-6 {
        fill: #fff;
      }

      .cls-7 {
        fill: none;
        stroke: #fff;
        stroke-width: 8px;
      }
    </style>
  </defs>
  <g>
    <polygon class="cls-1" points="124.72 64.82 75.03 64.82 83.11 54.15 116.65 54.15 124.72 64.82"/>
    <polygon class="cls-1" points="53.28 64.82 3.45 64.82 11.55 54.15 45.19 54.15 53.28 64.82"/>
    <polygon class="cls-6" points="121.84 64.85 121.84 111.61 6.5 111.61 6.5 64.85 42.81 64.85 42.81 50.49 85.54 50.49 85.54 64.85 121.84 64.85"/>
    <polygon class="cls-1" points="88.56 50.39 39.78 50.39 47.71 34.08 80.64 34.08 88.56 50.39"/>
    <rect class="cls-3" x="11.14" y="69.87" width="9.06" height="10.55"/>
    <rect class="cls-3" x="29.93" y="69.87" width="9.06" height="10.55"/>
    <rect class="cls-3" x="88.56" y="69.87" width="9.06" height="10.55"/>
    <rect class="cls-3" x="107.35" y="69.87" width="9.06" height="10.55"/>
    <rect class="cls-3" x="88.56" y="87.84" width="9.06" height="10.55"/>
    <rect class="cls-3" x="107.35" y="87.84" width="9.06" height="10.55"/>
    <rect class="cls-3" x="11.14" y="87.84" width="9.06" height="10.55"/>
    <rect class="cls-3" x="29.93" y="87.84" width="9.06" height="10.55"/>
    <rect class="cls-3" x="46.42" y="55.57" width="6.77" height="10.55"/>
    <rect class="cls-3" x="60.79" y="55.57" width="6.77" height="10.55"/>
    <rect class="cls-3" x="75.15" y="55.57" width="6.77" height="10.55"/>
    <path class="cls-6" d="m63.78,84.81h-6.37v17.02h-.68c-.28,0-.5-.22-.5-.5v-17.71c0-.28.22-.5.5-.5h14.93c.28,0,.5.22.5.5v18.21h-1.22v-17.02h-7.16Z"/>
    <rect class="cls-6" x="47.06" y="81.05" width="2.97" height="20.34"/>
    <rect class="cls-6" x="78.54" y="81.05" width="2.63" height="20.34"/>
    <path class="cls-5" d="m47.41,107.91c-8.47.07-16.96.5-25.43.57-5.25.04-11.04,2.18-15.6-.82-.12-.08-.25-.17-.37-.26-.63-.46-.87-1.55-.51-2.33.36-.78,1.25-1.11,1.91-.72-.15-.66.09-1.47.51-1.93.42-.46,1.01-.65,1.58-.59.56.06,1.09.36,1.54.78.05-.62.35-1.15.85-1.28.5-.13,1.04.06,1.46.42.42.36.74.87,1.02,1.4.35-.69.99-1.02,1.66-.87.66.14,1.23.81,1.36,1.61.03-.99.66-1.99,1.45-2.26s1.71.14,2.17.97c.27-.79,1.16-1.11,1.83-.81.67.3,1.14,1.05,1.41,1.84.22-.83.73-1.55,1.44-1.68.71-.13,1.47.26,1.89.97.01-1.06.88-2.02,1.75-2.08.88-.07,1.73.78,1.85,1.83.44-.77,1.26-1.14,2.03-.98.77.17,1.42.91,1.61,1.82.27-1.01.97-1.71,1.83-1.9.87-.19,1.81.23,2.36,1.06.58-.78,1.63-1.16,2.46-.83.77.3,1.36,1.14,1.51,2.1.01.07.02.15.03.22.02-.05.05-.09.08-.14.57-.99,1.56-1.48,2.54-1.15.86.29,1.54,1.19,1.74,2.23.04.2.06.4.07.61,0,.8.04,1.4,0,2.21Z"/>
    <path class="cls-5" d="m122.81,107.21c-.06.07-.13.14-.21.19-4.61,3.38-10.57,1.12-15.97,1.08-8.48-.07-16.96-.5-25.43-.57-.05-.8-.02-1.4,0-2.21,0-.09,0-.18.01-.27.11-1.18.85-2.25,1.8-2.57,1.02-.34,2.06.2,2.61,1.29.08-1.04.71-1.99,1.54-2.32.83-.33,1.88.05,2.46.83.55-.83,1.49-1.26,2.36-1.06.87.2,1.57.89,1.83,1.9.19-.91.84-1.66,1.61-1.82.77-.17,1.59.2,2.03.98.12-1.05.98-1.9,1.85-1.83.88.06,1.74,1.02,1.75,2.08.42-.71,1.18-1.1,1.89-.97.71.13,1.23.85,1.44,1.68.27-.79.74-1.54,1.41-1.84.67-.3,1.57.02,1.83.81.45-.83,1.37-1.24,2.17-.97.79.27,1.42,1.27,1.45,2.26.13-.8.7-1.46,1.36-1.61.66-.14,1.3.18,1.66.87.27-.53.59-1.04,1.02-1.4.42-.36.96-.56,1.46-.42.51.14.8.66.85,1.28.45-.41.98-.71,1.54-.78.56-.06,1.16.13,1.58.59.42.46.66,1.27.51,1.93.66-.4,1.55-.06,1.91.72.31.68.16,1.61-.31,2.14Z"/>
    <polygon class="cls-6" points="42.9 106.47 42.9 111.62 6.5 111.62 5.34 108.65 4.49 106.47 42.9 106.47"/>
    <polygon class="cls-6" points="123.79 106.47 122.94 108.65 121.78 111.62 85.38 111.62 85.38 106.47 123.79 106.47"/>
    <polygon class="cls-6" points="4.49 106.47 42.9 106.47 42.9 108.65 5.34 108.65 4.49 106.47"/>
    <polygon class="cls-6" points="123.79 106.47 122.94 108.65 85.38 108.65 85.38 106.47 123.79 106.47"/>
    <path class="cls-6" d="m86.75,52.2h-45.15c-1,0-1.82-.81-1.82-1.82h48.78c0,1-.81,1.82-1.82,1.82Z"/>
    <path class="cls-6" d="m124.72,64.82c0,.5-.2.95-.53,1.28-.33.33-.78.53-1.28.53h-37.34v-1.82h39.15Z"/>
    <path class="cls-6" d="m42.8,64.82v1.82H5.09c-1,0-1.82-.81-1.82-1.82h39.53Z"/>
    <rect class="cls-1" x="44.67" y="73.57" width="39.05" height="7.96" rx="3.46" ry="3.46"/>
    <rect class="cls-1" x="45.49" y="101.4" width="37.36" height="2.54"/>
    <rect class="cls-1" x="44.16" y="103.93" width="40.02" height="2.54"/>
    <rect class="cls-1" x="42.9" y="106.47" width="42.54" height="2.54"/>
    <rect class="cls-1" x="41.35" y="109.01" width="45.65" height="2.61"/>
    <rect class="cls-2" x="70.04" y="16.38" width="7.18" height="10.97"/>
    <rect class="cls-4" x="84.4" y="16.38" width="7.18" height="10.97"/>
    <rect class="cls-6" x="77.22" y="16.38" width="7.18" height="10.97"/>
    <line class="cls-6" x1="70.05" y1="27.36" x2="70.05" y2="39.02"/>
    <rect class="cls-6" x="77.22" y="16.38" width="7.18" height="10.97"/>
    <g>
      <path d="m55.43,75.28h1.33v4.42h-.86v-2.99c0-.09,0-.21,0-.36s0-.27,0-.36l-.84,3.71h-.9l-.83-3.71c0,.08,0,.2,0,.36s0,.28,0,.36v2.99h-.86v-4.42h1.34l.8,3.48.8-3.48Z"/>
      <path d="m59.49,75.28h1.05l1.56,4.42h-1l-.29-.91h-1.63l-.3.91h-.97l1.58-4.42Zm-.06,2.75h1.13l-.56-1.74-.57,1.74Z"/>
      <path d="m64.12,79.7h-.92v-4.42h.92v4.42Z"/>
      <path d="m68.43,75.39c.16.07.3.17.41.31.09.11.17.24.22.37s.08.29.08.46c0,.21-.05.42-.16.62s-.28.35-.52.43c.2.08.35.2.43.35s.13.38.13.69v.3c0,.2,0,.34.02.41.02.11.08.2.17.25v.11h-1.02c-.03-.1-.05-.18-.06-.24-.02-.12-.04-.25-.04-.38v-.41c0-.28-.06-.47-.15-.56-.09-.09-.27-.14-.53-.14h-.9v1.73h-.9v-4.42h2.11c.3,0,.53.04.7.11Zm-1.91.65v1.19h.99c.2,0,.35-.02.44-.07.17-.08.26-.25.26-.5,0-.27-.08-.45-.25-.54-.09-.05-.24-.08-.43-.08h-1.02Z"/>
      <path d="m71.49,79.7h-.92v-4.42h.92v4.42Z"/>
      <path d="m76.24,76.06h-2.34v.94h2.15v.77h-2.15v1.14h2.45v.79h-3.35v-4.42h3.24v.78Z"/>
    </g>
  </g>
  <rect class="cls-7" x="-32.95" y="-282.18" width="889.3" height="495.34"/>
</svg>