<?xml version="1.0" encoding="UTF-8"?>
<svg id="Calque_1" data-name="Calque 1" xmlns="http://www.w3.org/2000/svg" viewBox="0 0 200.13 128">
  <defs>
    <style>
      .cls-1 {
        fill: #87ccf3;
      }

      .cls-1, .cls-2, .cls-3, .cls-4, .cls-5, .cls-6, .cls-7, .cls-8, .cls-9, .cls-10, .cls-11, .cls-12, .cls-13, .cls-14, .cls-15 {
        stroke: #000;
      }

      .cls-1, .cls-2, .cls-3, .cls-4, .cls-5, .cls-6, .cls-8, .cls-9, .cls-10, .cls-11, .cls-12, .cls-14, .cls-16, .cls-15 {
        stroke-linecap: round;
        stroke-linejoin: round;
      }

      .cls-2 {
        fill: #fce9b9;
      }

      .cls-3 {
        fill: #f3d587;
      }

      .cls-4, .cls-9, .cls-10 {
        fill: #fff;
      }

      .cls-5, .cls-6, .cls-11, .cls-13, .cls-14, .cls-16, .cls-15 {
        fill: none;
      }

      .cls-6 {
        stroke-width: .75px;
      }

      .cls-7 {
        stroke-width: .35px;
      }

      .cls-7, .cls-13 {
        stroke-miterlimit: 10;
      }

      .cls-8 {
        fill: #afaff9;
      }

      .cls-8, .cls-10 {
        fill-rule: evenodd;
      }

      .cls-9, .cls-11, .cls-13 {
        stroke-width: 2px;
      }

      .cls-12 {
        stroke-width: .25px;
      }

      .cls-14 {
        stroke-width: .5px;
      }

      .cls-16 {
        stroke: #fff;
        stroke-width: 8px;
      }

      .cls-15 {
        stroke-width: .8px;
      }
    </style>
  </defs>
  <polygon class="cls-13" points="109.51 38.25 109.51 122.82 9.03 122.82 9.03 38.25 59.29 15.62 109.51 38.25"/>
  <polygon class="cls-11" points="85.99 68.38 59.27 68.38 32.54 68.38 32.54 58.2 59.27 58.2 85.99 58.2 85.99 68.38"/>
  <rect class="cls-11" x="40.01" y="76.33" width="38.51" height="46.35"/>
  <line class="cls-11" x1="59.27" y1="76.33" x2="59.27" y2="122.68"/>
  <line class="cls-5" x1="55.9" y1="100.21" x2="52.63" y2="100.21"/>
  <line class="cls-5" x1="65.9" y1="100.21" x2="62.63" y2="100.21"/>
  <path class="cls-9" d="m186.78,58.33v.68c0,30.37-24.64,55.01-55.03,55.01-15.11,0-28.8-6.09-38.73-15.95-2.32-2.3-4.43-4.8-6.28-7.47-2.51-3.53-4.57-7.37-6.18-11.43-2.46-6.23-3.82-13.04-3.82-20.16,0-3.68.37-7.28,1.05-10.75,4.7-23.74,24.66-41.99,49.23-44.07.59-.05,1.19-.1,1.8-.14.96-.05,1.95-.07,2.93-.07,29.27,0,53.21,22.86,54.92,51.69.05.87.09,1.76.1,2.65Z"/>
  <path class="cls-10" d="m127.71,34.69c-.14.31-.62,1.41-.81,1.82-.22.47-1.21,2.97-3.49,3.12-2.28.15-4.7-2.5-4.7-2.5,0,0,2.28-.11,2.64-.51.37-.41-.33-1.99-.33-1.99,0,0-1.39.59-1.91.63-.51.03-.95-1.07-1.25-1.88-.29-.81-.92-1.03-.99-1.14-.07-.11.81-1.03.22-2.09l.29-4.03,7.17,5.5s.96,3.16,1.76,3.75c.39.28.74.12.99-.13,0-.01.01-.01.01-.01.15-.15.26-.32.33-.45.02-.02.04-.05.07-.09Z"/>
  <path class="cls-10" d="m127.64,34.78c-.07.13-.18.3-.33.45.13-.21.24-.36.29-.41,0-.01.02-.02.04-.04Z"/>
  <path class="cls-8" d="m132.05,53.23c-6.18,2.76-11.36,0-11.36,0,0,0,.07-3.27-.84-5.26-.92-1.98-1.18-5.03-1.36-5.33-.19-.29-1.69-.55-1.69-.55-.13-.07-.26-.14-.38-.23-1.81-1.21-2.34-3.77-2.43-4.32,0-.07-.02-.11-.02-.11.55-.19,4.74-.3,4.74-.3,0,0,2.42,2.65,4.7,2.5,2.28-.15,3.27-2.65,3.49-3.12.19-.41.67-1.51.81-1.82h0c.66-.84,3.27-4.87,3.27-4.87,0,0,0,.11,0,.3.04.74.19,2.75.69,4.22.35,1.02.84,1.32,1.21,1.38h0c.29.04.51-.06.51-.06,0,0-1.22,2.68-1.55,5-.33,2.32.19,12.57.19,12.57Z"/>
  <path class="cls-10" d="m116.42,41.86s-.01.04-.03.05c-.4.18-12.31-.74-15.84-1.62-3.53-.88-4.08-.84-5.11-.59-1.03.26-2.06,1.58-2.5,1.7-.44.11-.88.58-1.47.95-.59.37-.83-.05-.59-.62.25-.57,1.44-1.18,1.25-1.55-.18-.37-1.58-.37-1.58-.37,0,0-2.05,1.62-2.35,1.07-.29-.55,2.35-2.5,2.35-2.5,0,0-2.27.08-2.27-.18s.51-.41,1.47-.55c.95-.15,1.83.07,3.6-.08,1.76-.14,3.31.08,4.19.08s5.91,0,8.45.22c2.54.22,7.98-.33,7.98-.33h.02c.09.55.62,3.11,2.43,4.32Z"/>
  <path class="cls-10" d="m91.67,38.72s-2.99.64-3.41.69-.86.1-.86.49,3.15-.09,3.15-.09"/>
  <path class="cls-10" d="m133.41,35.66l-.51.06h0c-.37-.06-.86-.36-1.21-1.38-.5-1.47-.65-3.48-.69-4.22l.07-.12,2.09-5.22s-3.63-5.19-4.34-6.06c-.71-.88-1.14-1.8-2.05-1.8s-2.91-.33-3.72-.15c-.81.18-1.72.48-1.83.04,0,0-1.25.37-1.36.03-.11-.33.58-.55.58-.55,0,0-.62-.07-.69-.44-.08-.37,3.16-1.36,3.16-1.36,0,0-2.98-.22-2.87-.7.11-.47,3.38-.18,3.38-.18.33,0,3.38.77,4.93,1.62,1.54.84,8.11,7.67,8.34,8.34.55,1.62-3.27,12.09-3.27,12.09Z"/>
  <path class="cls-10" d="m131.83,68.67s-1.58,14-1.58,15.95.25,4.48.03,5.84c-.22,1.36-.77,7.06-.77,7.06-1.73.77-2.79-.11-2.79-.11,0,0-.44-4.3-.85-6.55-.4-2.24,0-6.98.04-8.01s-1.25-16.24-1.29-17.16c-.03-.92.02-1.57-.88-2.32-.9-.75-1.95-.4-4.41.3-2.46.7-8.08,1.28-10.69,1.98-2.61.7-3.61,1.55-4.85,2.43-1.25.88-4.64,2.02-5.89,2.28-1.24.25-3.85,1.03-3.85,1.03-.02-.02-.04-.03-.06-.05-.9-.74-1.33-2.05-1.45-2.49-.03-.1-.04-.15-.04-.15,0,0,9.26-5,10.77-6.1,1.51-1.1,10.33-5.29,13.86-6.76,3.52-1.47,3.56-2.61,3.56-2.61,0,0,5.18,2.76,11.36,0,.88,2.72-.22,15.44-.22,15.44Z"/>
  <path class="cls-10" d="m93.99,71.34v.03c-.5.15-1.14.51-1.68.85-.62.39-1.11.76-1.11.76h0c-1.36-.22-3.12.41-4.15.76-1.02.35-1.91.55-2.35.03-.44-.51-.62-1.32-.62-1.32,1.01-.56,4.68-2.11,5.86-2.61.18-.08.31-.13.35-.15.11-.05.39-.16.72-.29.65-.26,1.47-.59,1.47-.59l.07.04c.12.44.55,1.75,1.45,2.49Z"/>
  <path class="cls-10" d="m90.99,69.37s.16,1.77,1.34,2.87l-1.08.81s-1.21-1.62-1.32-3.25l1.07-.43Z"/>
  <path class="cls-8" d="m84.06,72.45s-1.89,1.03-2.35,1.3-.7.37-.7.66.29,1.4.96,1.56,2.46-.83,3.25-.96,2.17-.24,3.34-.17,1.38.11,1.75-.44.88-1.43.88-1.43l-1.18-1.03-5.95.5Z"/>
  <path class="cls-10" d="m126.79,97.44s-.13,1.18-.2,1.8.26,1.82.04,3.56-.38,2.77.31,4.58c.09.24,1.71.66,2.52,0,.52-.43.31-3.4.15-5.22-.17-1.82.06-3.88-.17-4.67s-2.65-.06-2.65-.06Z"/>
  <path class="cls-8" d="m126.42,105.01s-.24,1.38,0,3.09c.24,1.71.39,2.54.7,2.68s1.76.29,2.28-.07.59-4.69.4-5.75c-.18-1.07-3.38.06-3.38.06Z"/>
  <path class="cls-4" d="m126.7,98.65s1.77.25,2.89-.13v1.55s-2.01.25-2.93.11l.04-1.52Z"/>
  <path class="cls-4" d="m123.13,32.8c.29-.03.62-.08.86-.29.29-.25.37-.68.32-1.06-.04-.31-.15-.62-.39-.83-.19-.17-.46-.26-.71-.23-.26.03-.5.16-.65.37-.55-.09-1.09-.22-1.62-.4-.46-.16-.9-.35-1.31-.59-.89-.51-1.62-.86-2.07-1.79-.2.4-.55,2.02-.84,2.16-.74-1-1.13-2.66-.4-3.66.73-1,1.93-1.58,3.14-1.83.64-.13,1.3-.18,1.95-.08,1.88.29,3.23,1.96,3.81,3.77.45,1.4.76,3.11-.64,4.39"/>
  <g>
    <path class="cls-15" d="m175.34,57.16s-2.13,3.48-2.77,5.3c-.21.58-.92,1.82-1.82,3.27"/>
    <path class="cls-15" d="m172.95,69.71c.1-.19.19-.36.28-.51,1.05-1.88,3.97-11.1,3.97-11.1"/>
    <path class="cls-5" d="m164.74,74.41s.41-.1.83-.67"/>
    <path class="cls-5" d="m159.03,74.6c-.07-.04-.14-.08-.22-.12"/>
    <path class="cls-15" d="m148.17,62.47s.24.08.69,1.52c.44,1.43,1.9,5.04,2.75,6.8.4.82,1.16,2.07,1.97,3.3"/>
    <path class="cls-15" d="m156.87,72.86c-.82-.82-1.63-1.77-2.26-2.57-1.3-1.66-4.09-7.66-4.62-8.81h0c-.05-.13-.08-.19-.08-.19"/>
    <path class="cls-5" d="m165.1,71.36s-.25,1.39-.69,2.26c-.45.89-1.3,1.76-2.06,1.93-.76.18-2.11-.64-2.93-1.37-.82-.72-1.3-1.8-1.3-1.8"/>
    <line class="cls-5" x1="164.71" y1="75.5" x2="164.22" y2="74.29"/>
    <path class="cls-6" d="m161.06,68.64s-.11.96.03,1.22.63.3.72.47-.1.52-.29.59"/>
    <path class="cls-5" d="m159.61,64.92s.59.39.87,1.09c.28.69.51,1.56,1.3,1.52.79-.04,1.11-.45,1.11-.45,0,0,.03.77.41,1.02s1.04.08,1.04.08"/>
    <path class="cls-5" d="m159.73,65.22s-1.44.86-1.25,1.59.3,1.62-.12,2.14c-.42.52-1.25,2.14-1.25,2.14-.27.15-.4.83-.19,1.29.28.61,1.19.71,1.19.71"/>
    <path class="cls-5" d="m165.04,71.68s.87-.29,1.01-.95c.11-.5-.17-1.13-.47-1.22,0,0,.23-1.17.67-2.24.59.26,1.15-.07,1.03-.42-.31-.19-1.25-.77-1.47-1.14-.25-.42-.97-2.19-.81-2.35s.12-.63.12-.63c0,0-.33.06-.66.04s-.35.06-1.51-.55c-1.95-1.02-4.25,1.11-4.25,1.11,0,0-1.25.02-1.78.42s-1.34,1.35-1.37,1.53-1,1.51-1,1.51c0,0,1.04.11,1.25.03s.11,1.1.28,1.64,1.05,2.63,1.05,2.63"/>
    <path class="cls-6" d="m160.27,72.33s.71.77,1.54.6,1.39-.56,1.52-1.12"/>
    <circle class="cls-12" cx="159.54" cy="69.62" r=".34"/>
    <circle class="cls-12" cx="162.87" cy="69.01" r=".34"/>
    <path class="cls-14" d="m158.66,67.89c.43-.14,1.03.08,1.03.08"/>
    <path class="cls-15" d="m175.34,57.16s.79-1.72.78-2.14-.6-2.34-.71-2.61.38-.55.58-.23.84,1.73.94,1.97.55.66.74,1.14"/>
    <path class="cls-15" d="m177.2,58.11s.92-.67,1.13-1.02.47-.68.47-.68l2.03-.74s.8-.54.13-.63c-.66-.09-1.3.32-1.58.21s1.25-1.98,1.31-2.23-.28-.48-.5-.24-1.71,1.57-1.71,1.57l1.53-2.01s.22-.58-.13-.71-1.86,2.15-1.86,2.15l.96-1.95s.18-1.06-.23-.87-1.81,3.18-1.81,3.18"/>
    <path class="cls-15" d="m149.91,61.29c-.22-.46-.74-1.6-.74-1.93,0-.42.54-2.35.65-2.63s-.39-.54-.58-.22-.8,1.75-.89,1.99-.53.67-.71,1.16"/>
    <path class="cls-15" d="m148.17,62.47s-.94-.65-1.16-1-.49-.67-.49-.67l-2.04-.69s-.81-.52-.15-.63,1.3.29,1.58.18-1.3-1.95-1.36-2.19.27-.49.5-.25,1.75,1.53,1.75,1.53l-1.58-1.98s-.24-.58.12-.71c.35-.14,1.91,2.1,1.91,2.1l-1-1.93s-.21-1.05.21-.88,1.88,3.13,1.88,3.13"/>
    <path class="cls-1" d="m166.77,100.75s-7.08-17.02-8.45-18.94c-1.37-1.92-5.53-6.46-5.53-6.46l.78-1.27,1.69-2.73s.77.74,1.61,1.51c.01.01.02.02.03.03.5.51,1.01.95,1.48,1.29.06.05.12.09.17.13.09.06.17.12.24.17.09.06.16.1.22.12.47.25.87.33,1.14.16l.81.58s-.72.63-.59,1.04c.13.4,1.15,2.21,2.72,2.06,1.61-.15,1.98-.94,2.34-1.96.34-.98.15-2.58.13-2.73h0c.06-.09.14-.19.2-.31.02-.02.03-.06.06-.1l.69-1.07c.06-.1.13-.2.2-.31.06-.1.13-.21.21-.31.13-.2.27-.41.41-.63,1.02-1.55,2.35-3.56,3.42-5.29l2.19,3.99,1.26,2.3-2.62,5.73s2.58,5.88,3.76,7.41c1.16,1.52,2.94,3.68,2.94,3.68,0,0-.15.17-.4.44l-1.12,1.66c-2.41,3.57-5.47,6.67-9.01,9.12l-1,.69Z"/>
    <path class="cls-5" d="m158.39,74.18c-.48-.34-.98-.79-1.48-1.29.52.48,1.06.95,1.48,1.29Z"/>
    <path class="cls-5" d="m160.17,74.76c-.28.18-.67.09-1.14-.16.63.23,1.14.16,1.14.16Z"/>
    <path class="cls-5" d="m170.76,65.73c-1.21,1.97-2.78,4.32-3.83,5.92l3.83-5.92Z"/>
  </g>
  <g>
    <path class="cls-2" d="m155.8,32.76c-.19,0-.37.06-.53.16-.41.23-.66.69-.7,1.22,0,0-4.62-1.45-9.14,1.87-2.92,2.14-3.95,5.79-4.32,8.1-.53-1.29-.81-2.7-.81-4.18,0-5.95,4.63-10.83,10.52-11.17h.02c.98.52,1.95,1.09,2.73,1.67,1.84,1.4,2.25,2.34,2.25,2.34Z"/>
    <path class="cls-3" d="m159.72,32.36l-2.12,1.28h-.02c-.5-.61-1.19-.95-1.78-.87,0,0-.41-.94-2.25-2.34-.78-.58-1.75-1.15-2.73-1.67.22-.03.44-.03.67-.03,3.26,0,6.2,1.4,8.22,3.64Z"/>
    <path class="cls-2" d="m162.69,39.93c0,.48-.03.95-.11,1.42-.34-.92-.78-1.92-1.37-2.75-1.12-1.64-2.96-2.68-2.96-2.68v-.02c.11-.55,0-1.22-.36-1.84-.09-.16-.19-.3-.3-.42h.02l2.12-1.28c1.86,2,2.96,4.65,2.96,7.57Z"/>
    <path class="cls-3" d="m162.58,41.35c-.67,5.51-5.38,9.78-11.08,9.78-.87,0-1.72-.09-2.53-.3,2.12-.81,5.1-2.43,7.05-5.52,2.79-4.43,1.54-8.41,1.54-8.41.36-.2.58-.56.67-.98,0,0,1.84,1.05,2.96,2.68.59.83,1.03,1.83,1.37,2.75Z"/>
    <path class="cls-2" d="m156.02,45.31c-1.95,3.09-4.93,4.71-7.05,5.52h-.02c-2-.47-3.79-1.47-5.21-2.84,1.16-1.59,3.39-4.49,6.21-7.27,1.98-1.95,5.01-4.49,5.2-4.65.67.87,1.69,1.25,2.42.83,0,0,1.25,3.98-1.54,8.41Z"/>
    <path class="cls-3" d="m155.15,36.07c-.19.16-3.21,2.7-5.2,4.65-2.82,2.78-5.06,5.68-6.21,7.27-1.14-1.08-2.04-2.4-2.64-3.89.37-2.31,1.4-5.96,4.32-8.1,4.53-3.32,9.14-1.87,9.14-1.87-.05.5.08,1.09.39,1.62.06.11.12.2.19.31Z"/>
    <path class="cls-2" d="m158.24,35.9v.02c-.09.42-.31.78-.67.98-.73.42-1.75.05-2.42-.83-.06-.11-.12-.2-.19-.31-.31-.53-.44-1.12-.39-1.62.05-.53.3-.98.7-1.22.16-.09.34-.16.53-.16.59-.08,1.28.27,1.78.87.11.12.2.27.3.42.36.62.47,1.3.36,1.84Z"/>
    <path class="cls-5" d="m155.16,36.06l-.02.02"/>
    <line class="cls-5" x1="143.74" y1="48.01" x2="143.74" y2="47.99"/>
    <path class="cls-5" d="m162.59,41.38s0-.02-.02-.03"/>
    <line class="cls-5" x1="159.74" y1="32.36" x2="159.72" y2="32.36"/>
  </g>
  <g>
    <path class="cls-7" d="m50.88,60.27h1.16l1.72,5.05,1.71-5.05h1.15v5.98h-.77v-3.53c0-.12,0-.32,0-.61s0-.58,0-.91l-1.71,5.04h-.8l-1.72-5.04v.18c0,.15,0,.37.01.67s.01.52.01.66v3.53h-.77v-5.98Z"/>
    <path class="cls-7" d="m61.4,64.47c0,.5-.07.9-.22,1.18-.28.51-.8.77-1.58.77-.45,0-.83-.12-1.15-.36-.32-.24-.48-.67-.48-1.3v-.43h.76v.43c0,.33.07.57.22.73.15.17.37.25.68.25.43,0,.72-.15.85-.44.08-.18.12-.53.12-1.03v-3.98h.8v4.2Z"/>
    <path class="cls-7" d="m67.49,60.71c.41.4.64.85.69,1.36h-.79c-.09-.39-.26-.69-.53-.92-.26-.23-.63-.34-1.11-.34-.58,0-1.04.21-1.4.62-.36.41-.53,1.05-.53,1.9,0,.7.16,1.27.48,1.7s.8.65,1.44.65c.59,0,1.03-.23,1.34-.69.16-.24.28-.56.36-.95h.79c-.07.63-.3,1.16-.69,1.58-.47.51-1.1.77-1.9.77-.69,0-1.26-.21-1.73-.63-.61-.56-.92-1.42-.92-2.58,0-.88.23-1.6.69-2.17.5-.61,1.19-.92,2.06-.92.75,0,1.33.2,1.74.6Z"/>
  </g>
  <line class="cls-15" x1="120.43" y1="16.29" x2="123.43" y2="15.3"/>
  <rect class="cls-16" x="-281.53" y="-421.07" width="1496.63" height="1236.8"/>
</svg>