<?xml version="1.0" encoding="UTF-8"?>
<svg id="Calque_1" data-name="Calque 1" xmlns="http://www.w3.org/2000/svg" viewBox="0 0 128 128">
  <defs>
    <style>
      .cls-1, .cls-2, .cls-3, .cls-4 {
        stroke: #000;
      }

      .cls-1, .cls-2, .cls-5 {
        stroke-linecap: round;
        stroke-linejoin: round;
      }

      .cls-1, .cls-6, .cls-3 {
        fill: #f3d587;
      }

      .cls-2, .cls-5 {
        fill: none;
      }

      .cls-3, .cls-4 {
        stroke-miterlimit: 10;
      }

      .cls-4 {
        fill: #76ac75;
      }

      .cls-5 {
        stroke: #fff;
        stroke-width: 8px;
      }
    </style>
  </defs>
  <path class="cls-4" d="m110.14,39.34c-2-.29-4.97.36-7.65,3.27-2.38,2.6-2.76,5.74-2.93,7.3-.22,1.84-.17,4.3.23,5.53.62,3.34,1.8,5.53,2.44,7.67,1.04,3.54.4,6.67-.87,12.9-.45,2.21-1.02,4.2-1.86,7.11-.08.27-.16.55-.24.84-.45,1.53-1.09,2.66-1.52,3.99-.23.7-.41,1.44-.47,2.33-.03.41-.03.77-.02,1.09,0,.15,0,.28.02.41.1,1.31.41,1.84.05,2.3-.21.27-.59.46-1.12.57-.61.13-1.42.15-2.36.05-.89-.08-1.9-.27-2.98-.56-.22-.05-.44-.12-.66-.19-4.76-1.41-10.63-4.71-13.68-10.08-1.57-2.77-1.47-4.46-.99-8.14.14-1.1.32-2.38.5-3.91.05-.46.1-.95.16-1.46.2-2.01.39-4.43.5-7.38.03-.62.04-1.25.06-1.92h0c.02-.76.03-1.52.04-2.33v-.07c0-.64,0-1.31,0-2,0-.06,0-.66.08-1.64.17-2.05.71-5.78,2.4-9.78,1.37-3.24,2.63-4.63,4.22-5.33.16-.07,3.39-1.45,5.33,0,.98.75,1.22,1.91,2.36,2.11.74.12,1.37-.24,1.61-.37,1.49-.82,4.01-1.25,9.06-2.11,2.98-.5,5.74-.97,8.28-.2Z"/>
  <path class="cls-4" d="m102.55,105.28c-.44.33-1.59-.28-2.99-1.41-.03-.1-.05-.2-.08-.3-.17-.7-.26-1.36-.29-1.97-.02-.42-.02-.81,0-1.17-.8-1.63-1.63-3.25-2.44-4.75-.19-.35-.38-.7-.57-1.04.53-.1.91-.3,1.12-.57.36-.46.04-.98-.05-2.3,0-.13-.02-.26-.02-.41-.02-.32,0-.68.02-1.09.06-.89.23-1.64.47-2.33.44-1.33,1.07-2.46,1.52-3.99.09-.29.17-.57.24-.84.23.6.5,1.3.84,2.11.84,2.07,1.08,2.51,1.36,3.65.1.39.44,1.9.43,5.01-.02,3.52-.47,3.62-.36,5.93.18,3.57,1.35,5.02.79,5.45Z"/>
  <path class="cls-4" d="m99.56,103.87c-1.66-1.34-3.69-3.39-5.39-5.46-.6-.73-1.16-1.41-1.66-2.05-.63-.79-1.18-1.51-1.65-2.21-.16-.23-.3-.44-.44-.66-.32-.5-.6-1.01-.82-1.5-.56-1.19-.82-2.37-.74-3.66,0-.05,0-.1,0-.15.03-.28.06-.55.11-.82.11-.62.3-1.23.55-1.8h0c.1-.27.21-.5.34-.75.08-.17.17-.33.27-.49.44-.77.97-1.49,1.55-2.12.15-.17.3-.32.46-.48,1.98-1.98,4.37-3.05,5.6-2.5.57.25.53.7,1.75,3.91-.08.27-.16.55-.24.84-.45,1.53-1.09,2.66-1.52,3.99-.23.7-.41,1.44-.47,2.33-.03.41-.03.77-.02,1.09,0,.15,0,.28.02.41.1,1.31.41,1.84.05,2.3-.21.27-.59.46-1.12.57.18.35.37.7.57,1.04.81,1.51,1.64,3.12,2.44,4.75-.02.36-.02.75,0,1.17.03.61.11,1.27.29,1.97.03.1.05.2.08.3Z"/>
  <path class="cls-4" d="m97.32,94.08c-.21.27-.59.46-1.12.57-.59-1.05-1.18-2.06-1.78-3.05h0c-.54-.91-1.09-1.79-1.65-2.65-.16-.24-.31-.49-.47-.72-.7-1.06-1.42-2.08-2.15-3.07-.09-.11-.17-.23-.26-.35-.34-.46-.69-.92-1.04-1.37-.53-.68-1.06-1.35-1.62-2-3.31-3.99-6.94-7.54-11.03-11.06-.16-.13-.3-.26-.46-.38-.77-.66-1.56-1.31-2.37-1.98-.2-.16-.41-.32-.61-.5-.97-.77-1.97-1.56-2.98-2.35-.23-.18-.48-.37-.71-.55-.37-.29-.76-.58-1.14-.88h0c-8.61-6.54-19.13-13.77-32.56-24.04-1.06-.81-3.79-2.9-7.75-3.39-7.19-.9-13.92,4.05-13.58,5.03-1.78,1.86-2.24,4.32-2.58,4.21-.37-.1-.36-2.93.81-5.44,2.53-5.39,9.39-6.96,11.02-7.34,6.15-1.41,11.28.49,13.18,1.22,2.58,1,2.8,1.61,8.15,4.62,4.79,2.71,8.21,4.26,9.51,4.9,1.23.6,2.51,1.35,3.83,2.23.77.5,1.55,1.06,2.34,1.65.03.02.05.04.09.07.92.68,1.86,1.43,2.81,2.21,4.42,3.67,9.08,8.34,13.53,13.32.56.63,1.11,1.26,1.67,1.9.64.73,1.27,1.48,1.89,2.22.77.9,1.51,1.81,2.25,2.71.17.2.33.41.5.62.81,1,1.6,2.01,2.38,3.01.07.09.13.17.2.26.78,1.01,1.54,2.02,2.27,3.02.17.23.33.44.5.67.62.84,1.22,1.68,1.79,2.51.26.37.51.73.76,1.1.29.4.56.8.82,1.19.22.31.43.63.63.93.42.64.83,1.26,1.21,1.87.63.97,1.21,1.91,1.75,2.82.1.18.2.36.3.53.62,1.07,1.17,2.08,1.66,3.03,0,.15,0,.28.02.41.1,1.31.41,1.84.05,2.3Z"/>
  <g>
    <g>
      <path class="cls-6" d="m63.53,57.78c.04-1.81.21-3.71-.55-5.36s-2.88-2.83-4.42-1.87c3.49,7.04,12.65,9.09,17.92,14.93-2.45-2.81-4.9-5.61-7.34-8.42,5.45,2.46,9.99,6.63,13.66,11.35,3.67,4.72,6.56,9.99,9.42,15.24"/>
      <path class="cls-6" d="m66.03,57.78c.07-2.78.13-5.71-1.8-7.94-1.74-2.01-4.56-2.7-6.94-1.45-1.24.66-1.49,2.26-.9,3.42,3.88,7.57,12.83,9.48,18.31,15.44,2.19,2.39,5.63-1.13,3.54-3.54-2.45-2.81-4.9-5.61-7.34-8.42l-3.03,3.93c10.81,4.97,16.73,15.71,22.19,25.7,1.54,2.83,5.86.3,4.32-2.52-5.84-10.7-12.41-22.18-23.98-27.49-2.56-1.18-4.96,1.71-3.03,3.93,2.45,2.81,4.9,5.61,7.34,8.42,1.18-1.18,2.36-2.36,3.54-3.54-2.74-2.98-6.29-5.02-9.69-7.13-3.09-1.92-6.13-3.97-7.83-7.29l-.9,3.42s-.13-.01-.16-.03c.13.09.3.07.43.15.28.16.49.36.65.65.66,1.18.33,3.03.3,4.31-.08,3.22,4.92,3.22,5,0h0Z"/>
    </g>
    <g>
      <path class="cls-6" d="m48.2,22.08c-.79,10.54,3.43,21.36,11.16,28.57-.19-6.97-3.33-13.45-5.68-20.01-.61-1.71-1.18-3.49-1.01-5.29.24,4.46,1.33,8.87,3.19,12.92-1.66-1.87-2.73-4.25-3.01-6.73-.03-.26-.05-.54.08-.77.29-.51,1.05-.39,1.6-.18,3.48,1.32,6.5,3.63,9.27,6.13,3.6,3.24,6.86,6.85,9.73,10.76-1.96-3.83-5.06-7.06-8.8-9.19,1.36,3.73,2.86,7.42,4.48,11.04-3.63-2.91-7.06-6.05-10.27-9.42,4.79,3.91,9.2,8.3,13.13,13.08-3.5-3.37-6.7-7.05-9.57-10.97,5.28,6.14,10.33,12.47,15.15,18.98-5.06-9.55-11.4-18.49-19.28-25.88,2.01,6.52,5.31,12.64,9.64,17.91-3.36-1.47-6.73-2.94-10.09-4.41,3.67,2.88,7.79,5.17,12.17,6.77.18-3.52.37-7.03.55-10.55,3.67,2.98,7.59,6.38,8.36,11.04.37,2.27.07,4.94,1.76,6.5.33.3.73.55,1.01.9.43.54.54,1.26.75,1.92.37,1.21,1.1,2.27,1.81,3.32.72,1.06,1.44,2.11,2.16,3.17,1.35,1.99,2.71,3.98,3.89,6.08,1.67,2.96,2.98,6.13,3.9,9.4.48-.76.04-1.74-.4-2.53-3.62-6.48-7.56-13.28-14.04-16.91-2.33-1.31-4.94-2.16-7.06-3.8-2.18-1.69-3.41-3.36-7-4.26"/>
      <path class="cls-6" d="m45.7,22.08c-.78,11.23,3.71,22.61,11.89,30.34,1.51,1.43,4.35.47,4.27-1.77-.17-4.48-1.35-8.78-2.87-12.98-.73-2.01-1.52-3.99-2.27-5.99s-1.68-4.13-1.54-6.34h-5c.3,4.96,1.49,9.67,3.54,14.19l3.93-3.03c-.67-.78-1.24-1.68-1.63-2.63-.18-.44-.32-.9-.44-1.36-.07-.27-.13-.54-.18-.81-.08-.46-.09-.55-.04-.26l-.64,1.1c-1.22.15-1.5.31-.83.46.2.07.4.15.59.24.39.17.77.37,1.15.57.88.47,1.74.99,2.56,1.56,1.68,1.15,3.21,2.49,4.7,3.88,3.11,2.9,5.97,6.07,8.5,9.49,1.88,2.54,5.84.39,4.32-2.52-2.21-4.21-5.6-7.7-9.7-10.08-1.77-1.02-4.45.7-3.67,2.82,1.44,3.93,3.02,7.81,4.73,11.64l3.93-3.03c-3.63-2.92-7.05-6.06-10.27-9.42l-3.54,3.54c4.79,3.93,9.18,8.31,13.13,13.08l3.54-3.54c-3.34-3.23-6.42-6.72-9.17-10.47-1.31,1.01-2.62,2.02-3.93,3.03,5.13,5.98,10.06,12.14,14.75,18.47.8,1.08,2.16,1.63,3.42.9s1.53-2.22.9-3.42c-5.17-9.72-11.64-18.81-19.67-26.39-1.75-1.65-4.95-.04-4.18,2.43,2.18,6.97,5.67,13.36,10.29,19.01,1.01-1.31,2.02-2.62,3.03-3.93-3.36-1.47-6.73-2.94-10.09-4.41-1.14-.5-2.42-.43-3.23.64-.67.9-.8,2.51.2,3.28,4.06,3.16,8.45,5.63,13.27,7.42,1.61.6,3.09-.92,3.16-2.41.18-3.52.37-7.03.55-10.55l-4.27,1.77c2.73,2.22,5.95,4.7,7.24,8.11.67,1.78.55,3.68.89,5.52.17.9.47,1.79.94,2.58.28.48.65.94,1.05,1.32.23.22.62.4.79.66.43.62.55,1.73.87,2.44.41.9.96,1.72,1.51,2.53,1.35,1.99,2.72,3.96,4.04,5.97,2.47,3.78,4.42,7.74,5.66,12.09.54,1.9,3.65,2.65,4.57.6,1.06-2.36.11-4.17-1.07-6.25-.94-1.66-1.9-3.32-2.92-4.93-1.99-3.12-4.26-6.16-7.06-8.61-1.43-1.25-2.98-2.38-4.65-3.28s-3.59-1.64-5.29-2.66c-1.41-.84-2.57-2-3.87-2.99-1.54-1.18-3.25-1.97-5.13-2.46-3.11-.83-4.44,4-1.33,4.82,2.96.78,4.63,2.84,7.09,4.5,2.78,1.88,6.07,2.8,8.75,4.86,2.5,1.92,4.54,4.42,6.29,7.02.89,1.31,1.71,2.66,2.52,4.02.4.68.79,1.37,1.18,2.05.23.4.45.8.67,1.2.32.57.18.87.49.18l4.57.6c-1.31-4.58-3.33-8.88-5.91-12.88-1.3-2.02-2.68-3.99-4.03-5.98-.59-.87-1.27-1.75-1.69-2.72s-.5-1.9-1.04-2.78c-.47-.76-1.3-1.14-1.77-1.85-.41-.62-.46-1.48-.52-2.2-.2-2.1-.46-4.05-1.33-6-1.66-3.73-4.9-6.51-8-9.03-1.68-1.37-4.15-.51-4.27,1.77-.18,3.52-.37,7.03-.55,10.55l3.16-2.41c-3.95-1.47-7.73-3.54-11.06-6.13l-3.03,3.93c3.36,1.47,6.73,2.94,10.09,4.41,2.62,1.14,4.88-1.66,3.03-3.93-4.05-4.96-7.09-10.7-9-16.8l-4.18,2.43c7.74,7.3,13.9,16,18.89,25.37l4.32-2.52c-4.95-6.67-10.13-13.18-15.54-19.48-1.82-2.13-5.61.73-3.93,3.03,3,4.1,6.31,7.94,9.96,11.48,2.35,2.28,5.56-1.09,3.54-3.54-3.95-4.77-8.34-9.15-13.13-13.08-2.45-2.01-5.81,1.17-3.54,3.54,3.22,3.36,6.65,6.5,10.27,9.42,2.25,1.81,5.11-.38,3.93-3.03-1.53-3.43-2.93-6.92-4.23-10.45l-3.67,2.82c3.41,1.98,6.08,4.8,7.91,8.29l4.32-2.52c-4.31-5.83-9.42-11.52-15.53-15.52-2.37-1.55-7.71-4.85-9.51-.89-.74,1.62-.06,3.84.55,5.42.69,1.8,1.65,3.35,2.9,4.81.8.93,2.38.92,3.28.2,1.04-.83,1.17-2.06.64-3.23-1.66-3.67-2.61-7.65-2.85-11.66-.19-3.22-4.8-3.22-5,0-.15,2.38.6,4.62,1.41,6.81.74,2,1.53,3.99,2.27,5.99,1.5,4.03,2.85,8.17,3.01,12.51,1.42-.59,2.85-1.18,4.27-1.77-7.3-6.89-11.12-16.8-10.42-26.81.09-1.35-1.22-2.5-2.5-2.5-1.43,0-2.41,1.15-2.5,2.5h0Z"/>
    </g>
  </g>
  <path class="cls-4" d="m118.73,59.4c-.02,4.5-.69,10.85-1.86,10.91-.63.03-.84-1.8-2.23-5.08-.99-2.34-3.62-7.86-8.68-11.79-.44-.33-1.71-1.32-3.01-2.01-1.13-.59-2.3-.96-2.95-.47-.63.47-.57,1.57-.5,2.36.07.76.17,1.46.3,2.12-.41-1.23-.45-3.68-.23-5.53.17-1.56.55-4.7,2.93-7.3,2.68-2.92,5.65-3.56,7.65-3.27.56.17,1.11.39,1.64.7,2.45,1.39,3.48,3.65,4.71,6.33,2.24,4.86,2.25,9.22,2.24,13.03Z"/>
  <path class="cls-2" d="m92.8,41.65s-2.24,1.03-3.35,4.54-.83,7.63-.83,7.63"/>
  <path class="cls-4" d="m105.6,110.78c.1,1.72-.84,3.45-1.37,3.4-.44-.05-.23-1.35-1.08-3.4-.74-1.78-1.32-1.83-2.45-4.07-.34-.69-.9-1.79-1.22-3.13-.17-.7-.26-1.36-.29-1.97.22.05.29.07.29.07.11.03.23.04.33.05,1.72.31,2.39.16,2.93.76.51.58.15,1.02.68,2.72.23.73.32.74.95,2.18.78,1.79,1.18,2.69,1.23,3.39Z"/>
  <path class="cls-3" d="m61.75,26.19c.56.33.73,1.01.8,1.28.07.28.19.78-.05,1.19-.21.36-.58.45-1.15.61-.53.14-.79.21-1.08.08-.56-.25-.79-.99-.83-1.45-.01-.13-.04-.7.32-1.18.43-.57,1.32-.92,2-.52Z"/>
  <path class="cls-3" d="m59.55,23.53c.56.33.73,1.01.8,1.28.07.28.19.78-.05,1.19-.21.36-.58.45-1.15.61-.53.14-.79.21-1.08.08-.56-.25-.79-.99-.83-1.45-.01-.13-.04-.7.32-1.18.43-.57,1.32-.92,2-.52Z"/>
  <path class="cls-3" d="m48.36,18.45c.56.33.73,1.01.8,1.28.07.28.19.78-.05,1.19-.21.36-.58.45-1.15.61-.53.14-.79.21-1.08.08-.56-.25-.79-.99-.83-1.45-.01-.13-.04-.7.32-1.18.43-.57,1.32-.92,2-.52Z"/>
  <g>
    <path class="cls-3" d="m61.89,37.31c-.02.78.6,1.33.84,1.55.25.22.71.63,1.32.6.53-.02.87-.36,1.42-.89.5-.48.75-.72.81-1.1.11-.72-.53-1.38-1.01-1.68-.14-.08-.72-.43-1.49-.32-.9.14-1.87.89-1.9,1.83Z"/>
    <path class="cls-3" d="m64.1,40.28c-.02.78.6,1.33.84,1.55.25.22.71.63,1.32.6.53-.02.87-.36,1.42-.89.5-.48.75-.72.81-1.1.11-.72-.53-1.38-1.01-1.68-.14-.08-.72-.43-1.49-.32-.9.14-1.87.89-1.9,1.83Z"/>
    <path class="cls-3" d="m65.85,43.58c-.02.78.6,1.33.84,1.55.25.22.71.63,1.32.6.53-.02.87-.36,1.42-.89.5-.48.75-.72.81-1.1.11-.72-.53-1.38-1.01-1.68-.14-.08-.72-.43-1.49-.32-.9.14-1.87.89-1.9,1.83Z"/>
    <path class="cls-3" d="m68.05,46.5c-.02.78.6,1.33.84,1.55.25.22.71.63,1.32.6.53-.02.87-.36,1.42-.89.5-.48.75-.72.81-1.1.11-.72-.53-1.38-1.01-1.68-.14-.08-.72-.43-1.49-.32-.9.14-1.87.89-1.9,1.83Z"/>
    <path class="cls-3" d="m70.25,49.86c-.02.78.6,1.33.84,1.55.25.22.71.63,1.32.6.53-.02.87-.36,1.42-.89.5-.48.75-.72.81-1.1.11-.72-.53-1.38-1.01-1.68-.14-.08-.72-.43-1.49-.32-.9.14-1.87.89-1.9,1.83Z"/>
    <path class="cls-3" d="m71.82,53.28c-.02.78.6,1.33.84,1.55.25.22.71.63,1.32.6.53-.02.87-.36,1.42-.89.5-.48.75-.72.81-1.1.11-.72-.53-1.38-1.01-1.68-.14-.08-.72-.43-1.49-.32-.9.14-1.87.89-1.9,1.83Z"/>
    <path class="cls-3" d="m74.02,56.78c-.02.78.6,1.33.84,1.55.25.22.71.63,1.32.6.53-.02.87-.36,1.42-.89.5-.48.75-.72.81-1.1.11-.72-.53-1.38-1.01-1.68-.14-.08-.72-.43-1.49-.32-.9.14-1.87.89-1.9,1.83Z"/>
    <path class="cls-3" d="m76.22,59.83c-.02.78.6,1.33.84,1.55.25.22.71.63,1.32.6.53-.02.87-.36,1.42-.89.5-.48.75-.72.81-1.1.11-.72-.53-1.38-1.01-1.68-.14-.08-.72-.43-1.49-.32-.9.14-1.87.89-1.9,1.83Z"/>
    <path class="cls-3" d="m77.88,63.7c-.02.78.6,1.33.84,1.55.25.22.71.63,1.32.6.53-.02.87-.36,1.42-.89.5-.48.75-.72.81-1.1.11-.72-.53-1.38-1.01-1.68-.14-.08-.72-.43-1.49-.32-.9.14-1.87.89-1.9,1.83Z"/>
    <path class="cls-3" d="m80.08,67.71c-.02.78.6,1.33.84,1.55.25.22.71.63,1.32.6.53-.02.87-.36,1.42-.89.5-.48.75-.72.81-1.1.11-.72-.53-1.38-1.01-1.68-.14-.08-.72-.43-1.49-.32-.9.14-1.87.89-1.9,1.83Z"/>
    <path class="cls-3" d="m82.29,71.71c-.02.78.6,1.33.84,1.55.25.22.71.63,1.32.6.53-.02.87-.36,1.42-.89.5-.48.75-.72.81-1.1.11-.72-.53-1.38-1.01-1.68-.14-.08-.72-.43-1.49-.32-.9.14-1.87.89-1.9,1.83Z"/>
    <path class="cls-3" d="m84.49,75.24c-.02.78.6,1.33.84,1.55.25.22.71.63,1.32.6.53-.02.87-.36,1.42-.89.5-.48.75-.72.81-1.1.11-.72-.53-1.38-1.01-1.68-.14-.08-.72-.43-1.49-.32-.9.14-1.87.89-1.9,1.83Z"/>
    <path class="cls-3" d="m85.96,79.25c-.02.78.6,1.33.84,1.55.25.22.71.63,1.32.6.53-.02.87-.36,1.42-.89.5-.48.75-.72.81-1.1.11-.72-.53-1.38-1.01-1.68-.14-.08-.72-.43-1.49-.32-.9.14-1.87.89-1.9,1.83Z"/>
    <path class="cls-3" d="m85.2,82.99c-.02.66.51,1.13.72,1.32.21.19.6.54,1.12.51.45-.02.74-.3,1.21-.75.43-.41.64-.61.69-.94.09-.62-.45-1.17-.86-1.43-.12-.07-.61-.37-1.27-.27-.77.12-1.59.75-1.62,1.56Z"/>
    <path class="cls-3" d="m88.77,82.56c-.02.66.51,1.13.72,1.32.21.19.6.54,1.12.51.45-.02.74-.3,1.21-.75.43-.41.64-.61.69-.94.09-.62-.45-1.17-.86-1.43-.12-.07-.61-.37-1.27-.27-.77.12-1.59.75-1.62,1.56Z"/>
    <path class="cls-3" d="m88.89,86.79c-.02.78.6,1.33.84,1.55.25.22.71.63,1.32.6.53-.02.87-.36,1.42-.89.5-.48.75-.72.81-1.1.11-.72-.53-1.38-1.01-1.68-.14-.08-.72-.43-1.49-.32-.9.14-1.87.89-1.9,1.83Z"/>
    <path class="cls-3" d="m90.36,90.79c-.02.78.6,1.33.84,1.55.25.22.71.63,1.32.6.53-.02.87-.36,1.42-.89.5-.48.75-.72.81-1.1.11-.72-.53-1.38-1.01-1.68-.14-.08-.72-.43-1.49-.32-.9.14-1.87.89-1.9,1.83Z"/>
  </g>
  <g>
    <path class="cls-3" d="m57.09,37.41c.66.38.86,1.18.93,1.49.08.32.22.91-.06,1.39-.24.42-.67.53-1.35.71-.62.16-.92.24-1.27.09-.65-.29-.92-1.15-.97-1.69-.01-.15-.05-.82.37-1.38.5-.67,1.54-1.08,2.34-.61Z"/>
    <path class="cls-3" d="m58.63,40.76c.66.38.86,1.18.93,1.49.08.32.22.91-.06,1.39-.24.42-.67.53-1.35.71-.62.16-.92.24-1.27.09-.65-.29-.92-1.15-.97-1.69-.01-.15-.05-.82.37-1.38.5-.67,1.54-1.08,2.34-.61Z"/>
    <path class="cls-3" d="m60.64,43.91c.66.38.86,1.18.93,1.49.08.32.22.91-.06,1.39-.24.42-.67.53-1.35.71-.62.16-.92.24-1.27.09-.65-.29-.92-1.15-.97-1.69-.01-.15-.05-.82.37-1.38.5-.67,1.54-1.08,2.34-.61Z"/>
    <path class="cls-3" d="m62.13,47.23c.66.38.86,1.18.93,1.49.08.32.22.91-.06,1.39-.24.42-.67.53-1.35.71-.62.16-.92.24-1.27.09-.65-.29-.92-1.15-.97-1.69-.01-.15-.05-.82.37-1.38.5-.67,1.54-1.08,2.34-.61Z"/>
    <path class="cls-3" d="m64,50.78c.66.38.86,1.18.93,1.49.08.32.22.91-.06,1.39-.24.42-.67.53-1.35.71-.62.16-.92.24-1.27.09-.65-.29-.92-1.15-.97-1.69-.01-.15-.05-.82.37-1.38.5-.67,1.54-1.08,2.34-.61Z"/>
    <path class="cls-3" d="m66.18,53.84c.66.38.86,1.18.93,1.49.08.32.22.91-.06,1.39-.24.42-.67.53-1.35.71-.62.16-.92.24-1.27.09-.65-.29-.92-1.15-.97-1.69-.01-.15-.05-.82.37-1.38.5-.67,1.54-1.08,2.34-.61Z"/>
    <path class="cls-3" d="m68.17,57.46c.66.38.86,1.18.93,1.49.08.32.22.91-.06,1.39-.24.42-.67.53-1.35.71-.62.16-.92.24-1.27.09-.65-.29-.92-1.15-.97-1.69-.01-.15-.05-.82.37-1.38.5-.67,1.54-1.08,2.34-.61Z"/>
    <path class="cls-3" d="m70.38,60.85c.66.38.86,1.18.93,1.49.08.32.22.91-.06,1.39-.24.42-.67.53-1.35.71-.62.16-.92.24-1.27.09-.65-.29-.92-1.15-.97-1.69-.01-.15-.05-.82.37-1.38.5-.67,1.54-1.08,2.34-.61Z"/>
    <path class="cls-3" d="m72.3,64.22c.66.38.86,1.18.93,1.49.08.32.22.91-.06,1.39-.24.42-.67.53-1.35.71-.62.16-.92.24-1.27.09-.65-.29-.92-1.15-.97-1.69-.01-.15-.05-.82.37-1.38.5-.67,1.54-1.08,2.34-.61Z"/>
    <path class="cls-3" d="m74.71,68.11c.66.38.86,1.18.93,1.49.08.32.22.91-.06,1.39-.24.42-.67.53-1.35.71-.62.16-.92.24-1.27.09-.65-.29-.92-1.15-.97-1.69-.01-.15-.05-.82.37-1.38.5-.67,1.54-1.08,2.34-.61Z"/>
    <path class="cls-3" d="m77.11,72c.66.38.86,1.18.93,1.49.08.32.22.91-.06,1.39-.24.42-.67.53-1.35.71-.62.16-.92.24-1.27.09-.65-.29-.92-1.15-.97-1.69-.01-.15-.05-.82.37-1.38.5-.67,1.54-1.08,2.34-.61Z"/>
    <path class="cls-3" d="m79.12,75.63c.66.38.86,1.18.93,1.49.08.32.22.91-.06,1.39-.24.42-.67.53-1.35.71-.62.16-.92.24-1.27.09-.65-.29-.92-1.15-.97-1.69-.01-.15-.05-.82.37-1.38.5-.67,1.54-1.08,2.34-.61Z"/>
    <path class="cls-3" d="m81.84,78.92c.66.38.86,1.18.93,1.49.08.32.22.91-.06,1.39-.24.42-.67.53-1.35.71-.62.16-.92.24-1.27.09-.65-.29-.92-1.15-.97-1.69-.01-.15-.05-.82.37-1.38.5-.67,1.54-1.08,2.34-.61Z"/>
    <path class="cls-3" d="m84.12,82.04c.66.38.86,1.18.93,1.49.08.32.22.91-.06,1.39-.24.42-.67.53-1.35.71-.62.16-.92.24-1.27.09-.65-.29-.92-1.15-.97-1.69-.01-.15-.05-.82.37-1.38.5-.67,1.54-1.08,2.34-.61Z"/>
    <path class="cls-3" d="m86.88,85.23c.66.38.86,1.18.93,1.49.08.32.22.91-.06,1.39-.24.42-.67.53-1.35.71-.62.16-.92.24-1.27.09-.65-.29-.92-1.15-.97-1.69-.01-.15-.05-.82.37-1.38.5-.67,1.54-1.08,2.34-.61Z"/>
    <path class="cls-3" d="m89.6,88.52c.66.38.86,1.18.93,1.49.08.32.22.91-.06,1.39-.24.42-.67.53-1.35.71-.62.16-.92.24-1.27.09-.65-.29-.92-1.15-.97-1.69-.01-.15-.05-.82.37-1.38.5-.67,1.54-1.08,2.34-.61Z"/>
  </g>
  <g>
    <path class="cls-3" d="m53.52,38.67c.66.38.86,1.18.93,1.49.08.32.22.91-.06,1.39-.24.42-.67.53-1.35.71-.62.16-.92.24-1.27.09-.65-.29-.92-1.15-.97-1.69-.01-.15-.05-.82.37-1.38.5-.67,1.54-1.08,2.34-.61Z"/>
    <path class="cls-3" d="m55.06,42.02c.66.38.86,1.18.93,1.49.08.32.22.91-.06,1.39-.24.42-.67.53-1.35.71-.62.16-.92.24-1.27.09-.65-.29-.92-1.15-.97-1.69-.01-.15-.05-.82.37-1.38.5-.67,1.54-1.08,2.34-.61Z"/>
    <path class="cls-3" d="m57.07,45.17c.66.38.86,1.18.93,1.49.08.32.22.91-.06,1.39-.24.42-.67.53-1.35.71-.62.16-.92.24-1.27.09-.65-.29-.92-1.15-.97-1.69-.01-.15-.05-.82.37-1.38.5-.67,1.54-1.08,2.34-.61Z"/>
    <path class="cls-3" d="m58.56,48.49c.66.38.86,1.18.93,1.49.08.32.22.91-.06,1.39-.24.42-.67.53-1.35.71-.62.16-.92.24-1.27.09-.65-.29-.92-1.15-.97-1.69-.01-.15-.05-.82.37-1.38.5-.67,1.54-1.08,2.34-.61Z"/>
    <path class="cls-3" d="m60.43,52.04c.66.38.86,1.18.93,1.49.08.32.22.91-.06,1.39-.24.42-.67.53-1.35.71-.62.16-.92.24-1.27.09-.65-.29-.92-1.15-.97-1.69-.01-.15-.05-.82.37-1.38.5-.67,1.54-1.08,2.34-.61Z"/>
    <path class="cls-3" d="m62.61,55.1c.66.38.86,1.18.93,1.49.08.32.22.91-.06,1.39-.24.42-.67.53-1.35.71-.62.16-.92.24-1.27.09-.65-.29-.92-1.15-.97-1.69-.01-.15-.05-.82.37-1.38.5-.67,1.54-1.08,2.34-.61Z"/>
    <path class="cls-3" d="m64.6,58.73c.66.38.86,1.18.93,1.49.08.32.22.91-.06,1.39-.24.42-.67.53-1.35.71-.62.16-.92.24-1.27.09-.65-.29-.92-1.15-.97-1.69-.01-.15-.05-.82.37-1.38.5-.67,1.54-1.08,2.34-.61Z"/>
    <path class="cls-3" d="m66.2,62.11c.66.38.86,1.18.93,1.49.08.32.22.91-.06,1.39-.24.42-.67.53-1.35.71-.62.16-.92.24-1.27.09-.65-.29-.92-1.15-.97-1.69-.01-.15-.05-.82.37-1.38.5-.67,1.54-1.08,2.34-.61Z"/>
    <path class="cls-3" d="m68.73,65.49c.66.38.86,1.18.93,1.49.08.32.22.91-.06,1.39-.24.42-.67.53-1.35.71-.62.16-.92.24-1.27.09-.65-.29-.92-1.15-.97-1.69-.01-.15-.05-.82.37-1.38.5-.67,1.54-1.08,2.34-.61Z"/>
    <path class="cls-3" d="m71.14,69.37c.66.38.86,1.18.93,1.49.08.32.22.91-.06,1.39-.24.42-.67.53-1.35.71-.62.16-.92.24-1.27.09-.65-.29-.92-1.15-.97-1.69-.01-.15-.05-.82.37-1.38.5-.67,1.54-1.08,2.34-.61Z"/>
    <path class="cls-3" d="m73.54,73.26c.66.38.86,1.18.93,1.49.08.32.22.91-.06,1.39-.24.42-.67.53-1.35.71-.62.16-.92.24-1.27.09-.65-.29-.92-1.15-.97-1.69-.01-.15-.05-.82.37-1.38.5-.67,1.54-1.08,2.34-.61Z"/>
    <path class="cls-3" d="m75.55,76.9c.66.38.86,1.18.93,1.49.08.32.22.91-.06,1.39-.24.42-.67.53-1.35.71-.62.16-.92.24-1.27.09-.65-.29-.92-1.15-.97-1.69-.01-.15-.05-.82.37-1.38.5-.67,1.54-1.08,2.34-.61Z"/>
    <path class="cls-3" d="m78.27,80.18c.66.38.86,1.18.93,1.49.08.32.22.91-.06,1.39-.24.42-.67.53-1.35.71-.62.16-.92.24-1.27.09-.65-.29-.92-1.15-.97-1.69-.01-.15-.05-.82.37-1.38.5-.67,1.54-1.08,2.34-.61Z"/>
    <path class="cls-3" d="m80.54,83.3c.66.38.86,1.18.93,1.49.08.32.22.91-.06,1.39-.24.42-.67.53-1.35.71-.62.16-.92.24-1.27.09-.65-.29-.92-1.15-.97-1.69-.01-.15-.05-.82.37-1.38.5-.67,1.54-1.08,2.34-.61Z"/>
    <path class="cls-3" d="m83.31,86.5c.66.38.86,1.18.93,1.49.08.32.22.91-.06,1.39-.24.42-.67.53-1.35.71-.62.16-.92.24-1.27.09-.65-.29-.92-1.15-.97-1.69-.01-.15-.05-.82.37-1.38.5-.67,1.54-1.08,2.34-.61Z"/>
    <path class="cls-3" d="m86.03,89.78c.66.38.86,1.18.93,1.49.08.32.22.91-.06,1.39-.24.42-.67.53-1.35.71-.62.16-.92.24-1.27.09-.65-.29-.92-1.15-.97-1.69-.01-.15-.05-.82.37-1.38.5-.67,1.54-1.08,2.34-.61Z"/>
  </g>
  <g>
    <path class="cls-3" d="m50.88,41.69c.66.38.86,1.18.93,1.49.08.32.22.91-.06,1.39-.24.42-.67.53-1.35.71-.62.16-.92.24-1.27.09-.65-.29-.92-1.15-.97-1.69-.01-.15-.05-.82.37-1.38.5-.67,1.54-1.08,2.34-.61Z"/>
    <path class="cls-3" d="m52.42,45.04c.66.38.86,1.18.93,1.49.08.32.22.91-.06,1.39-.24.42-.67.53-1.35.71-.62.16-.92.24-1.27.09-.65-.29-.92-1.15-.97-1.69-.01-.15-.05-.82.37-1.38.5-.67,1.54-1.08,2.34-.61Z"/>
    <path class="cls-3" d="m54.43,48.19c.66.38.86,1.18.93,1.49.08.32.22.91-.06,1.39-.24.42-.67.53-1.35.71-.62.16-.92.24-1.27.09-.65-.29-.92-1.15-.97-1.69-.01-.15-.05-.82.37-1.38.5-.67,1.54-1.08,2.34-.61Z"/>
    <path class="cls-3" d="m55.92,51.51c.66.38.86,1.18.93,1.49.08.32.22.91-.06,1.39-.24.42-.67.53-1.35.71-.62.16-.92.24-1.27.09-.65-.29-.92-1.15-.97-1.69-.01-.15-.05-.82.37-1.38.5-.67,1.54-1.08,2.34-.61Z"/>
    <path class="cls-3" d="m57.79,55.06c.66.38.86,1.18.93,1.49.08.32.22.91-.06,1.39-.24.42-.67.53-1.35.71-.62.16-.92.24-1.27.09-.65-.29-.92-1.15-.97-1.69-.01-.15-.05-.82.37-1.38.5-.67,1.54-1.08,2.34-.61Z"/>
    <path class="cls-3" d="m59.98,58.12c.66.38.86,1.18.93,1.49.08.32.22.91-.06,1.39-.24.42-.67.53-1.35.71-.62.16-.92.24-1.27.09-.65-.29-.92-1.15-.97-1.69-.01-.15-.05-.82.37-1.38.5-.67,1.54-1.08,2.34-.61Z"/>
    <path class="cls-3" d="m61.96,61.74c.66.38.86,1.18.93,1.49.08.32.22.91-.06,1.39-.24.42-.67.53-1.35.71-.62.16-.92.24-1.27.09-.65-.29-.92-1.15-.97-1.69-.01-.15-.05-.82.37-1.38.5-.67,1.54-1.08,2.34-.61Z"/>
    <path class="cls-3" d="m63.57,65.13c.66.38.86,1.18.93,1.49.08.32.22.91-.06,1.39-.24.42-.67.53-1.35.71-.62.16-.92.24-1.27.09-.65-.29-.92-1.15-.97-1.69-.01-.15-.05-.82.37-1.38.5-.67,1.54-1.08,2.34-.61Z"/>
    <path class="cls-3" d="m66.09,68.51c.66.38.86,1.18.93,1.49.08.32.22.91-.06,1.39-.24.42-.67.53-1.35.71-.62.16-.92.24-1.27.09-.65-.29-.92-1.15-.97-1.69-.01-.15-.05-.82.37-1.38.5-.67,1.54-1.08,2.34-.61Z"/>
    <path class="cls-3" d="m68.5,72.39c.66.38.86,1.18.93,1.49.08.32.22.91-.06,1.39-.24.42-.67.53-1.35.71-.62.16-.92.24-1.27.09-.65-.29-.92-1.15-.97-1.69-.01-.15-.05-.82.37-1.38.5-.67,1.54-1.08,2.34-.61Z"/>
    <path class="cls-3" d="m70.91,76.28c.66.38.86,1.18.93,1.49.08.32.22.91-.06,1.39-.24.42-.67.53-1.35.71-.62.16-.92.24-1.27.09-.65-.29-.92-1.15-.97-1.69-.01-.15-.05-.82.37-1.38.5-.67,1.54-1.08,2.34-.61Z"/>
    <path class="cls-3" d="m72.91,79.91c.66.38.86,1.18.93,1.49.08.32.22.91-.06,1.39-.24.42-.67.53-1.35.71-.62.16-.92.24-1.27.09-.65-.29-.92-1.15-.97-1.69-.01-.15-.05-.82.37-1.38.5-.67,1.54-1.08,2.34-.61Z"/>
    <path class="cls-3" d="m75.63,83.2c.66.38.86,1.18.93,1.49.08.32.22.91-.06,1.39-.24.42-.67.53-1.35.71-.62.16-.92.24-1.27.09-.65-.29-.92-1.15-.97-1.69-.01-.15-.05-.82.37-1.38.5-.67,1.54-1.08,2.34-.61Z"/>
    <path class="cls-3" d="m77.91,86.32c.66.38.86,1.18.93,1.49.08.32.22.91-.06,1.39-.24.42-.67.53-1.35.71-.62.16-.92.24-1.27.09-.65-.29-.92-1.15-.97-1.69-.01-.15-.05-.82.37-1.38.5-.67,1.54-1.08,2.34-.61Z"/>
    <path class="cls-3" d="m80.67,89.51c.66.38.86,1.18.93,1.49.08.32.22.91-.06,1.39-.24.42-.67.53-1.35.71-.62.16-.92.24-1.27.09-.65-.29-.92-1.15-.97-1.69-.01-.15-.05-.82.37-1.38.5-.67,1.54-1.08,2.34-.61Z"/>
    <path class="cls-3" d="m83.39,92.8c.66.38.86,1.18.93,1.49.08.32.22.91-.06,1.39-.24.42-.67.53-1.35.71-.62.16-.92.24-1.27.09-.65-.29-.92-1.15-.97-1.69-.01-.15-.05-.82.37-1.38.5-.67,1.54-1.08,2.34-.61Z"/>
  </g>
  <path class="cls-3" d="m70.3,42.48c-.02.78.6,1.33.84,1.55.25.22.71.63,1.32.6.53-.02.87-.36,1.42-.89.5-.48.75-.72.81-1.1.11-.72-.53-1.38-1.01-1.68-.14-.08-.72-.43-1.49-.32-.9.14-1.87.89-1.9,1.83Z"/>
  <path class="cls-3" d="m68.5,39.31c-.02.78.6,1.33.84,1.55.25.22.71.63,1.32.6.53-.02.87-.36,1.42-.89.5-.48.75-.72.81-1.1.11-.72-.53-1.38-1.01-1.68-.14-.08-.72-.43-1.49-.32-.9.14-1.87.89-1.9,1.83Z"/>
  <path class="cls-3" d="m65.85,36.29c-.02.78.6,1.33.84,1.55.25.22.71.63,1.32.6.53-.02.87-.36,1.42-.89.5-.48.75-.72.81-1.1.11-.72-.53-1.38-1.01-1.68-.14-.08-.72-.43-1.49-.32-.9.14-1.87.89-1.9,1.83Z"/>
  <path class="cls-3" d="m63.26,32.73c-.02.78.6,1.33.84,1.55.25.22.71.63,1.32.6.53-.02.87-.36,1.42-.89.5-.48.75-.72.81-1.1.11-.72-.53-1.38-1.01-1.68-.14-.08-.72-.43-1.49-.32-.9.14-1.87.89-1.9,1.83Z"/>
  <path class="cls-3" d="m72.5,45.39c-.02.78.6,1.33.84,1.55.25.22.71.63,1.32.6.53-.02.87-.36,1.42-.89.5-.48.75-.72.81-1.1.11-.72-.53-1.38-1.01-1.68-.14-.08-.72-.43-1.49-.32-.9.14-1.87.89-1.9,1.83Z"/>
  <path class="cls-3" d="m74.7,48.76c-.02.78.6,1.33.84,1.55.25.22.71.63,1.32.6.53-.02.87-.36,1.42-.89.5-.48.75-.72.81-1.1.11-.72-.53-1.38-1.01-1.68-.14-.08-.72-.43-1.49-.32-.9.14-1.87.89-1.9,1.83Z"/>
  <path class="cls-3" d="m76.27,52.17c-.02.78.6,1.33.84,1.55.25.22.71.63,1.32.6.53-.02.87-.36,1.42-.89.5-.48.75-.72.81-1.1.11-.72-.53-1.38-1.01-1.68-.14-.08-.72-.43-1.49-.32-.9.14-1.87.89-1.9,1.83Z"/>
  <path class="cls-3" d="m78.47,55.67c-.02.78.6,1.33.84,1.55.25.22.71.63,1.32.6.53-.02.87-.36,1.42-.89.5-.48.75-.72.81-1.1.11-.72-.53-1.38-1.01-1.68-.14-.08-.72-.43-1.49-.32-.9.14-1.87.89-1.9,1.83Z"/>
  <path class="cls-3" d="m80.68,58.72c-.02.78.6,1.33.84,1.55.25.22.71.63,1.32.6.53-.02.87-.36,1.42-.89.5-.48.75-.72.81-1.1.11-.72-.53-1.38-1.01-1.68-.14-.08-.72-.43-1.49-.32-.9.14-1.87.89-1.9,1.83Z"/>
  <path class="cls-3" d="m82.34,62.59c-.02.78.6,1.33.84,1.55.25.22.71.63,1.32.6.53-.02.87-.36,1.42-.89.5-.48.75-.72.81-1.1.11-.72-.53-1.38-1.01-1.68-.14-.08-.72-.43-1.49-.32-.9.14-1.87.89-1.9,1.83Z"/>
  <path class="cls-3" d="m84.54,66.6c-.02.78.6,1.33.84,1.55.25.22.71.63,1.32.6.53-.02.87-.36,1.42-.89.5-.48.75-.72.81-1.1.11-.72-.53-1.38-1.01-1.68-.14-.08-.72-.43-1.49-.32-.9.14-1.87.89-1.9,1.83Z"/>
  <path class="cls-3" d="m86.74,70.61c-.02.78.6,1.33.84,1.55.25.22.71.63,1.32.6.53-.02.87-.36,1.42-.89.5-.48.75-.72.81-1.1.11-.72-.53-1.38-1.01-1.68-.14-.08-.72-.43-1.49-.32-.9.14-1.87.89-1.9,1.83Z"/>
  <path class="cls-3" d="m88.94,74.14c-.02.78.6,1.33.84,1.55.25.22.71.63,1.32.6.53-.02.87-.36,1.42-.89.5-.48.75-.72.81-1.1.11-.72-.53-1.38-1.01-1.68-.14-.08-.72-.43-1.49-.32-.9.14-1.87.89-1.9,1.83Z"/>
  <path class="cls-3" d="m90.41,78.14c-.02.78.6,1.33.84,1.55.25.22.71.63,1.32.6.53-.02.87-.36,1.42-.89.5-.48.75-.72.81-1.1.11-.72-.53-1.38-1.01-1.68-.14-.08-.72-.43-1.49-.32-.9.14-1.87.89-1.9,1.83Z"/>
  <path class="cls-3" d="m91.98,81.67c-.02.78.6,1.33.84,1.55.25.22.71.63,1.32.6.53-.02.87-.36,1.42-.89.5-.48.75-.72.81-1.1.11-.72-.53-1.38-1.01-1.68-.14-.08-.72-.43-1.49-.32-.9.14-1.87.89-1.9,1.83Z"/>
  <path class="cls-3" d="m93.34,85.68c-.02.78.6,1.33.84,1.55.25.22.71.63,1.32.6.53-.02.87-.36,1.42-.89.5-.48.75-.72.81-1.1.11-.72-.53-1.38-1.01-1.68-.14-.08-.72-.43-1.49-.32-.9.14-1.87.89-1.9,1.83Z"/>
  <path class="cls-1" d="m97.26,90.29c-.03.41-.03.77-.02,1.09,0,.15,0,.28.02.41-.09.03-.19.05-.3.05-.61.03-1.06-.37-1.31-.6-.24-.22-.86-.77-.84-1.55.02-.54.33-1.01.77-1.34.33-.26.73-.44,1.12-.49.41-.06.77,0,1.03.1-.23.7-.41,1.44-.47,2.33Z"/>
  <path class="cls-3" d="m59.09,40.47c-.02.78.6,1.33.84,1.55.25.22.71.63,1.32.6.53-.02.87-.36,1.42-.89.5-.48.75-.72.81-1.1.11-.72-.53-1.38-1.01-1.68-.14-.08-.72-.43-1.49-.32-.9.14-1.87.89-1.9,1.83Z"/>
  <path class="cls-3" d="m61.03,43.82c-.02.85.66,1.47.93,1.7.28.25.78.7,1.45.67.58-.03.96-.39,1.57-.98.55-.53.83-.79.89-1.22.12-.8-.59-1.52-1.11-1.85-.15-.09-.79-.48-1.64-.35-.99.15-2.06.97-2.09,2.02Z"/>
  <path class="cls-3" d="m62.83,47.82c-.02.85.66,1.47.93,1.7.28.25.78.7,1.45.67.58-.03.96-.39,1.57-.98.55-.53.83-.79.89-1.22.12-.8-.59-1.52-1.11-1.85-.15-.09-.79-.48-1.64-.35-.99.15-2.06.97-2.09,2.02Z"/>
  <path class="cls-3" d="m65.47,51.26c-.02.85.66,1.47.93,1.7.28.25.78.7,1.45.67.58-.03.96-.39,1.57-.98.55-.53.83-.79.89-1.22.12-.8-.59-1.52-1.11-1.85-.15-.09-.79-.48-1.64-.35-.99.15-2.06.97-2.09,2.02Z"/>
  <path class="cls-3" d="m67.35,55.66c-.02.85.66,1.47.93,1.7.28.25.78.7,1.45.67.58-.03.96-.39,1.57-.98.55-.53.83-.79.89-1.22.12-.8-.59-1.52-1.11-1.85-.15-.09-.79-.48-1.64-.35-.99.15-2.06.97-2.09,2.02Z"/>
  <path class="cls-3" d="m70.03,59.3c-.02.85.66,1.47.93,1.7.28.25.78.7,1.45.67.58-.03.96-.39,1.57-.98.55-.53.83-.79.89-1.22.12-.8-.59-1.52-1.11-1.85-.15-.09-.79-.48-1.64-.35-.99.15-2.06.97-2.09,2.02Z"/>
  <path class="cls-3" d="m72.45,62.91c-.02.85.66,1.47.93,1.7.28.25.78.7,1.45.67.58-.03.96-.39,1.57-.98.55-.53.83-.79.89-1.22.12-.8-.59-1.52-1.11-1.85-.15-.09-.79-.48-1.64-.35-.99.15-2.06.97-2.09,2.02Z"/>
  <path class="cls-3" d="m74.48,66.75c-.02.85.66,1.47.93,1.7.28.25.78.7,1.45.67.58-.03.96-.39,1.57-.98.55-.53.83-.79.89-1.22.12-.8-.59-1.52-1.11-1.85-.15-.09-.79-.48-1.64-.35-.99.15-2.06.97-2.09,2.02Z"/>
  <path class="cls-3" d="m76.89,70.59c-.02.85.66,1.47.93,1.7.28.25.78.7,1.45.67.58-.03.96-.39,1.57-.98.55-.53.83-.79.89-1.22.12-.8-.59-1.52-1.11-1.85-.15-.09-.79-.48-1.64-.35-.99.15-2.06.97-2.09,2.02Z"/>
  <path class="cls-3" d="m78.97,74.32c-.02.85.66,1.47.93,1.7.28.25.78.7,1.45.67.58-.03.96-.39,1.57-.98.55-.53.83-.79.89-1.22.12-.8-.59-1.52-1.11-1.85-.15-.09-.79-.48-1.64-.35-.99.15-2.06.97-2.09,2.02Z"/>
  <path class="cls-3" d="m81.67,77.13c-.02.7.54,1.2.76,1.39.23.2.64.57,1.18.54.47-.02.79-.32,1.28-.8.45-.43.67-.65.73-.99.1-.65-.48-1.24-.9-1.51-.12-.08-.65-.39-1.34-.28-.81.12-1.68.8-1.71,1.64Z"/>
  <path class="cls-3" d="m82.56,79.84c-.02.7.54,1.2.76,1.39.23.2.64.57,1.18.54.47-.02.79-.32,1.28-.8.45-.43.67-.65.73-.99.1-.65-.48-1.24-.9-1.51-.12-.08-.65-.39-1.34-.28-.81.12-1.68.8-1.71,1.64Z"/>
  <path class="cls-3" d="m55.19,34.66c.66.38.86,1.18.93,1.49.08.32.22.91-.06,1.39-.24.42-.67.53-1.35.71-.62.16-.92.24-1.27.09-.65-.29-.92-1.15-.97-1.69-.01-.15-.05-.82.37-1.38.5-.67,1.54-1.08,2.34-.61Z"/>
  <path class="cls-3" d="m51.15,35.07c.66.38.86,1.18.93,1.49.08.32.22.91-.06,1.39-.24.42-.67.53-1.35.71-.62.16-.92.24-1.27.09-.65-.29-.92-1.15-.97-1.69-.01-.15-.05-.82.37-1.38.5-.67,1.54-1.08,2.34-.61Z"/>
  <path class="cls-3" d="m49,38.05c.66.38.86,1.18.93,1.49.08.32.22.91-.06,1.39-.24.42-.67.53-1.35.71-.62.16-.92.24-1.27.09-.65-.29-.92-1.15-.97-1.69-.01-.15-.05-.82.37-1.38.5-.67,1.54-1.08,2.34-.61Z"/>
  <path class="cls-3" d="m49.81,31.1c.66.38.86,1.18.93,1.49.08.32.22.91-.06,1.39-.24.42-.67.53-1.35.71-.62.16-.92.24-1.27.09-.65-.29-.92-1.15-.97-1.69-.01-.15-.05-.82.37-1.38.5-.67,1.54-1.08,2.34-.61Z"/>
  <path class="cls-3" d="m58.2,31.98c.66.38.86,1.18.93,1.49.08.32.22.91-.06,1.39-.24.42-.67.53-1.35.71-.62.16-.92.24-1.27.09-.65-.29-.92-1.15-.97-1.69-.01-.15-.05-.82.37-1.38.5-.67,1.54-1.08,2.34-.61Z"/>
  <path class="cls-3" d="m60.64,28.92c.66.38.86,1.18.93,1.49.08.32.22.91-.06,1.39-.24.42-.67.53-1.35.71-.62.16-.92.24-1.27.09-.65-.29-.92-1.15-.97-1.69-.01-.15-.05-.82.37-1.38.5-.67,1.54-1.08,2.34-.61Z"/>
  <path class="cls-3" d="m58.55,25.64c.66.38.86,1.18.93,1.49.08.32.22.91-.06,1.39-.24.42-.67.53-1.35.71-.62.16-.92.24-1.27.09-.65-.29-.92-1.15-.97-1.69-.01-.15-.05-.82.37-1.38.5-.67,1.54-1.08,2.34-.61Z"/>
  <path class="cls-3" d="m56.67,22.62c.66.38.86,1.18.93,1.49.08.32.22.91-.06,1.39-.24.42-.67.53-1.35.71-.62.16-.92.24-1.27.09-.65-.29-.92-1.15-.97-1.69-.01-.15-.05-.82.37-1.38.5-.67,1.54-1.08,2.34-.61Z"/>
  <path class="cls-3" d="m54.04,19.59c.66.38.86,1.18.93,1.49.08.32.22.91-.06,1.39-.24.42-.67.53-1.35.71-.62.16-.92.24-1.27.09-.65-.29-.92-1.15-.97-1.69-.01-.15-.05-.82.37-1.38.5-.67,1.54-1.08,2.34-.61Z"/>
  <path class="cls-3" d="m62.73,31.98c.66.38.86,1.18.93,1.49.08.32.22.91-.06,1.39-.24.42-.67.53-1.35.71-.62.16-.92.24-1.27.09-.65-.29-.92-1.15-.97-1.69-.01-.15-.05-.82.37-1.38.5-.67,1.54-1.08,2.34-.61Z"/>
  <path class="cls-3" d="m60.64,35.07c.66.38.86,1.18.93,1.49.08.32.22.91-.06,1.39-.24.42-.67.53-1.35.71-.62.16-.92.24-1.27.09-.65-.29-.92-1.15-.97-1.69-.01-.15-.05-.82.37-1.38.5-.67,1.54-1.08,2.34-.61Z"/>
  <path class="cls-3" d="m53.52,31.68c.66.38.86,1.18.93,1.49.08.32.22.91-.06,1.39-.24.42-.67.53-1.35.71-.62.16-.92.24-1.27.09-.65-.29-.92-1.15-.97-1.69-.01-.15-.05-.82.37-1.38.5-.67,1.54-1.08,2.34-.61Z"/>
  <path class="cls-3" d="m56.31,28.01c.66.38.86,1.18.93,1.49.08.32.22.91-.06,1.39-.24.42-.67.53-1.35.71-.62.16-.92.24-1.27.09-.65-.29-.92-1.15-.97-1.69-.01-.15-.05-.82.37-1.38.5-.67,1.54-1.08,2.34-.61Z"/>
  <path class="cls-3" d="m52.42,27.63c.66.38.86,1.18.93,1.49.08.32.22.91-.06,1.39-.24.42-.67.53-1.35.71-.62.16-.92.24-1.27.09-.65-.29-.92-1.15-.97-1.69-.01-.15-.05-.82.37-1.38.5-.67,1.54-1.08,2.34-.61Z"/>
  <path class="cls-3" d="m51.03,24.41c.56.33.73,1.01.8,1.28.07.28.19.78-.05,1.19-.21.36-.58.45-1.15.61-.53.14-.79.21-1.08.08-.56-.25-.79-.99-.83-1.45-.01-.13-.04-.7.32-1.18.43-.57,1.32-.92,2-.52Z"/>
  <path class="cls-3" d="m48.36,27.48c.56.33.73,1.01.8,1.28.07.28.19.78-.05,1.19-.21.36-.58.45-1.15.61-.53.14-.79.21-1.08.08-.56-.25-.79-.99-.83-1.45-.01-.13-.04-.7.32-1.18.43-.57,1.32-.92,2-.52Z"/>
  <path class="cls-3" d="m47.81,23.9c.56.33.73,1.01.8,1.28.07.28.19.78-.05,1.19-.21.36-.58.45-1.15.61-.53.14-.79.21-1.08.08-.56-.25-.79-.99-.83-1.45-.01-.13-.04-.7.32-1.18.43-.57,1.32-.92,2-.52Z"/>
  <path class="cls-3" d="m45.14,24.2c.56.33.73,1.01.8,1.28.07.28.19.78-.05,1.19-.21.36-.58.45-1.15.61-.53.14-.79.21-1.08.08-.56-.25-.79-.99-.83-1.45-.01-.13-.04-.7.32-1.18.43-.57,1.32-.92,2-.52Z"/>
  <path class="cls-3" d="m46.53,20.52c.56.33.73,1.01.8,1.28.07.28.19.78-.05,1.19-.21.36-.58.45-1.15.61-.53.14-.79.21-1.08.08-.56-.25-.79-.99-.83-1.45-.01-.13-.04-.7.32-1.18.43-.57,1.32-.92,2-.52Z"/>
  <path class="cls-3" d="m51.03,18.82c.56.33.73,1.01.8,1.28.07.28.19.78-.05,1.19-.21.36-.58.45-1.15.61-.53.14-.79.21-1.08.08-.56-.25-.79-.99-.83-1.45-.01-.13-.04-.7.32-1.18.43-.57,1.32-.92,2-.52Z"/>
  <path class="cls-3" d="m45.7,27.88c.56.33.73,1.01.8,1.28.07.28.19.78-.05,1.19-.21.36-.58.45-1.15.61-.53.14-.79.21-1.08.08-.56-.25-.79-.99-.83-1.45-.01-.13-.04-.7.32-1.18.43-.57,1.32-.92,2-.52Z"/>
  <path class="cls-3" d="m46.75,31.35c.56.33.73,1.01.8,1.28.07.28.19.78-.05,1.19-.21.36-.58.45-1.15.61-.53.14-.79.21-1.08.08-.56-.25-.79-.99-.83-1.45-.01-.13-.04-.7.32-1.18.43-.57,1.32-.92,2-.52Z"/>
  <path class="cls-3" d="m47.81,34.57c.56.33.73,1.01.8,1.28.07.28.19.78-.05,1.19-.21.36-.58.45-1.15.61-.53.14-.79.21-1.08.08-.56-.25-.79-.99-.83-1.45-.01-.13-.04-.7.32-1.18.43-.57,1.32-.92,2-.52Z"/>
  <path class="cls-3" d="m54.79,24.58c.56.33.73,1.01.8,1.28.07.28.19.78-.05,1.19-.21.36-.58.45-1.15.61-.53.14-.79.21-1.08.08-.56-.25-.79-.99-.83-1.45-.01-.13-.04-.7.32-1.18.43-.57,1.32-.92,2-.52Z"/>
  <path class="cls-3" d="m64.18,28.26c.56.33.73,1.01.8,1.28.07.28.19.78-.05,1.19-.21.36-.58.45-1.15.61-.53.14-.79.21-1.08.08-.56-.25-.79-.99-.83-1.45-.01-.13-.04-.7.32-1.18.43-.57,1.32-.92,2-.52Z"/>
  <path class="cls-3" d="m53.05,21.54c.56.33.73,1.01.8,1.28.07.28.19.78-.05,1.19-.21.36-.58.45-1.15.61-.53.14-.79.21-1.08.08-.56-.25-.79-.99-.83-1.45-.01-.13-.04-.7.32-1.18.43-.57,1.32-.92,2-.52Z"/>
  <path class="cls-3" d="m49.91,21.09c.55.32.71.98.78,1.24.07.27.19.76-.05,1.16-.2.35-.56.44-1.12.59-.51.14-.77.2-1.06.08-.54-.24-.77-.96-.81-1.41-.01-.13-.04-.68.31-1.15.42-.56,1.28-.9,1.95-.51Z"/>
  <path class="cls-3" d="m88.76,92.49c.66.38.86,1.18.93,1.49.08.32.22.91-.06,1.39-.24.42-.67.53-1.35.71-.62.16-.92.24-1.27.09-.65-.29-.92-1.15-.97-1.69-.01-.15-.05-.82.37-1.38.5-.67,1.54-1.08,2.34-.61Z"/>
  <path class="cls-3" d="m90.64,95.55c.66.38.86,1.18.93,1.49.08.32.22.91-.06,1.39-.24.42-.67.53-1.35.71-.62.16-.92.24-1.27.09-.65-.29-.92-1.15-.97-1.69-.01-.15-.05-.82.37-1.38.5-.67,1.54-1.08,2.34-.61Z"/>
  <path class="cls-3" d="m92.82,92.8c.66.38.86,1.18.93,1.49.08.32.22.91-.06,1.39-.24.42-.67.53-1.35.71-.62.16-.92.24-1.27.09-.65-.29-.92-1.15-.97-1.69-.01-.15-.05-.82.37-1.38.5-.67,1.54-1.08,2.34-.61Z"/>
  <path class="cls-3" d="m94.18,96.46c.66.38.86,1.18.93,1.49.08.32.22.91-.06,1.39-.24.42-.67.53-1.35.71-.62.16-.92.24-1.27.09-.65-.29-.92-1.15-.97-1.69-.01-.15-.05-.82.37-1.38.5-.67,1.54-1.08,2.34-.61Z"/>
  <path class="cls-4" d="m104.23,114.18c-.42.23-1.56-1.27-4.34-3.94,0,0-2.58-2.47-8.7-7.2-6.27-4.84-10.09-5.6-17.8-10.06-9.15-5.3-15.29-10.91-17.12-12.64-4.56-4.29-10.07-9.47-14.54-17.8-4.21-7.84-3.87-11.72-9.11-16.17-1.37-1.17-5.26-4.39-10.87-5.17-4.6-.64-7.54.77-7.74.14-.34-.98,6.4-5.93,13.58-5.03,3.96.5,6.69,2.58,7.75,3.39,13.44,10.28,23.96,17.5,32.56,24.04h0c.38.3.77.59,1.14.88.23.18.48.37.71.55,1.02.79,2.02,1.57,2.98,2.35.2.17.41.34.61.5.81.66,1.6,1.31,2.37,1.98.16.12.3.25.46.38,4.1,3.52,7.73,7.07,11.03,11.06.56.65,1.09,1.32,1.62,2,.36.45.7.91,1.04,1.37.09.11.17.23.26.35.73.99,1.44,2.01,2.15,3.07.16.23.31.48.47.72.57.85,1.11,1.73,1.65,2.64h0c.6,1,1.19,2.01,1.78,3.06.18.35.37.7.57,1.04.81,1.51,1.64,3.12,2.44,4.75-.02.36-.02.75,0,1.17.03.61.11,1.27.29,1.97.03.1.05.2.08.3.32,1.21.83,2.2,1.14,2.84,1.13,2.25,1.71,2.29,2.45,4.07.84,2.05.64,3.35,1.08,3.4Z"/>
  <path class="cls-2" d="m91.46,61.98s2.4,4.37,2.72,9.99c.08,1.33.09,3.24.07,5.04"/>
  <rect class="cls-5" x="-842.31" y="-2285.27" width="3385.57" height="2571.67"/>
</svg>