<?xml version="1.0" encoding="UTF-8"?>
<svg id="Calque_1" data-name="Calque 1" xmlns="http://www.w3.org/2000/svg" xmlns:xlink="http://www.w3.org/1999/xlink" viewBox="0 0 128 128">
  <defs>
    <style>
      .cls-1, .cls-2, .cls-3 {
        fill: none;
      }

      .cls-4 {
        fill: #d6d6d6;
      }

      .cls-4, .cls-5, .cls-6, .cls-2 {
        stroke: #000;
      }

      .cls-4, .cls-5, .cls-6, .cls-2, .cls-3 {
        stroke-linecap: round;
        stroke-linejoin: round;
      }

      .cls-5 {
        fill: #f3d587;
      }

      .cls-6, .cls-7 {
        fill: #fff;
      }

      .cls-8 {
        clip-path: url(#clippath);
      }

      .cls-3 {
        stroke: #fff;
        stroke-width: 8px;
      }
    </style>
    <clipPath id="clippath">
      <path class="cls-1" d="m39.91,73.58c.06.29.1.58.15.88-1.83,2.98-3.17,5.81-4.54,9.19-.58,1.45-1.14,2.93-1.47,4.45-1.24,5.8,1.06,12.06,5.39,16.13.2.19.4.38.6.55,4.71,4.03,11.3,5.56,17.44,4.62,2.23-.34,3.18-2.53,4.35-3.89.41-.48.85-.99,1.45-1.16.6-.18,1.4.18,1.42.81,0,.19-.06.37-.12.54-.3.83-.67,1.63-1.08,2.41-.55,1.02-1.18,1.99-1.9,2.88,2.6.17,4.76-.67,6.98-.88.98-.09,2-.05,2.86.42.24.13.46.3.6.54.26.45.09,1.09-.35,1.36.57-.03.98.46.92.91s-.44.81-.88.95c.45.14.7.44.79.8.03.1.04.21,0,.3-.08.38-.57.5-.8.82.11.56-.11,1.04-.44,1.38s-.75.58-1.19.81c-1.74.89-3.59,1.55-5.51,1.96-8.53,2.09-18.94.67-26.82-3.83-4.18-2.45-7.82-4.39-11.33-7.92-3.52-3.54-6.07-8.75-6.99-13.66-.66-3.51-.33-7.13.22-10.66,1.17-7.45,3.29-14.76,6.31-21.66l13.91,10.96h0Z"/>
    </clipPath>
  </defs>
  <path class="cls-6" d="m96.09,73.38c0,.23-.12.43-.24.62-1.67,2.85-3.37,5.75-5.61,8.16-.31.33-.62.65-.95.96l-.06.06s-.05.05-.08.07c-.03.04-.07.07-.09.09-.1.09-.2.18-.3.27-2.8,2.47-6.54,4.1-10.22,3.55-1.48-.22-2.87-.76-4.21-1.42-2.02-1.01-3.9-2.25-5.62-3.68.08-.84.2-1.67.32-2.49.02-.13.05-.28.13-.39.1-.14.29-.19.46-.23.19-.04.37-.07.56-.08h0c.09-1.52.43-3.02,1.02-4.43.06-.15.13-.31.26-.4.12-.1.33-.13.44,0,.08.08.09.18.11.27.1.64.15,1.28.16,1.92.09-.63.28-1.25.56-1.83.06-.1.12-.23.23-.28-.7-.45-1.37-.92-2.04-1.41-4.19-3.09-7.87-6.79-11.33-10.22-3.46-6.4-5.56-13.51-9.53-19.6.06,0,.1-.03.16-.05,3.89-.96,7.42-3.26,9.92-6.38v-.02c.61-.75,1.16-1.55,1.63-2.4,1.18,1.45,2.36,2.9,3.58,4.31,1.63,1.92,3.31,3.78,5.13,5.52,1.31,1.26,2.78,2.26,4.76,2.74.51.12,1.02.25,1.52.4,2.2.62,4.35,1.45,6.04,2.96,1.26,1.13,2.19,2.57,3.07,4.02,1.93,3.15,3.68,6.4,5.38,9.68.16.3.31.6.47.9.76,1.48,1.52,2.97,2.27,4.46.29.57.58,1.15.88,1.72.34.68.69,1.36,1.03,2.03.09.19.2.4.19.61h0Z"/>
  <path class="cls-4" d="m92.77,66.6c-2.12-6.83-7.81-16.57-12.06-18.1-.88-.31.03,8.04-2.61,12.14-5.49,8.53-15.52,5.85-18.5,1.83-3.46-6.4-5.56-13.51-9.53-19.6-.34.08-.68.16-1.03.22-4.91.08-11.39,3.31-14.9,6.79-3.61,3.56-6.11,8.1-8.14,12.76-3.02,6.91-5.15,14.21-6.31,21.66-.55,3.53-.88,7.15-.22,10.66.92,4.89,3.47,10.12,6.99,13.66,1.48,1.48,2.97,2.68,4.52,3.75l6.95-9.76c-3.32-4-4.96-9.44-3.87-14.51.33-1.52.88-3,1.47-4.45,1.36-3.38,2.71-6.2,4.54-9.19,1.73,9.8,1.59,19.92-.61,29.77.2.19.4.38.6.55.87.74,1.8,1.39,2.78,1.97,1.52-3.6,3.27-7.27,6.03-10.14.97-1.01,2.07-1.91,3.37-2.46,1.19-.5,2.48-.67,3.76-.74,3.13-.2,6.29.09,9.41.39,1.65-.99,2.99-1.99,4.33-2.97-1.32-2.43-1.36-5.59-1.02-8.75.08-.84.2-1.67.32-2.49.02-.13.05-.28.13-.39.1-.14.29-.19.46-.23.19-.04.37-.07.56-.08h0c.09-1.52.43-3.02,1.02-4.43.06-.15.13-.31.26-.4.12-.1.33-.13.44,0,.08.08.09.18.11.27.1.64.15,1.28.16,1.92.09-.63.28-1.25.56-1.83.06-.1.12-.23.23-.28-.19-.12,2.45-.17,2.96.66.38.62-1.09,2.43-.33,2.62s.65,1.42.55,2.29c-.24,2.07-3.08,7.09.4,5.13,1.56-.88,14.17,2.19,12.28-1.55-3.5-6.92.73-8.95,1.83-9.87,1.9-1.6,3.68-2.45,4.22-2.64,0,0-1.99-3.78-2.1-4.14h0Z"/>
  <path class="cls-6" d="m92.77,82.57l-.13-.02c.02-.14.04-.27.05-.41,0,.11.02.28.08.43Z"/>
  <path class="cls-2" d="m50.07,42.87c-.04-.07-.08-.12-.12-.19l.28.14"/>
  <path class="cls-6" d="m39.45,104.23c-.54-.51-1.04-1.04-1.52-1.62-3.32-4-4.96-9.44-3.87-14.51.33-1.52.88-3,1.47-4.45,1.36-3.38,2.71-6.2,4.54-9.19,1.73,9.8,1.59,19.92-.61,29.77Z"/>
  <path class="cls-6" d="m88.32,32.37c4-2.32,5.67-7.59,4.66-12.11-1.01-4.52-4.24-8.27-8.04-10.94-2-1.4-4.19-2.55-6.54-3.18-6.86-1.82-14.61,1.41-18.63,7.26-4.03,5.85-6.34,13.07-3.42,19.55.47,1.04,2.97,2.84,3.86,3.55.81.65,1.82.98,2.8,1.25,3.83,1.07,7.88,1.56,11.81,1.01,3.94-.56,7.37-2.85,13.49-6.4v.02Z"/>
  <path class="cls-6" d="m87.26,22.29c-2.93,2.48-6.7,3.86-10.51,4.29-1.78.21-3.58.21-5.37.07-2.04-.17-4.09-.54-6.12-1.04-.23-.93-.86-1.75-1.69-2.22-.84-.46-1.87-.56-2.78-.27-1.11.36-1.98,1.26-2.57,2.27-.72,1.24-1.09,2.81-.47,4.11.51,1.05,1.55,1.72,2.5,2.25-.24,3.28-.41,6.82,1.36,9.6.83,1.3,1.73,2.59,2.94,3.55,1.24.99,2.96,2.09,4.46,2.62,2.58.91,5.76.43,8.24-.71,3.74-1.72,6.25-5.27,8.4-8.77,1.58-2.57,2.79-5.36,3.51-8.29-.79-.94-1.26-2.13-1.52-3.33-.25-1.2-.31-2.44-.39-4.11Z"/>
  <path class="cls-6" d="m97.8,72.44c-.38-.02-.79-.06-1.04-.35-.29-.36-.08-.99.37-1.1-.54,0-.98.57-.85,1.09s.8.81,1.52.35h0Z"/>
  <path class="cls-6" d="m89.08,83.07c.87.68,2.04.94,3.12.71-1.06-.19-2.12-.41-3.12-.71Z"/>
  <path class="cls-6" d="m76.23,77.49c.06.16-.03.32-.1.47-.31.57-.63,1.15-.93,1.72-.04.05-.07.1-.08.15-.09.17-.19.33-.27.5-1.49-.77-3.14-.92-4.69-.56,0-.3,0-.61.04-.91h0c.09-1.52.43-3.02,1.02-4.43.06-.15.13-.31.26-.4.12-.1.33-.13.44,0,.08.08.09.18.11.27.1.64.15,1.28.16,1.92.09-.63.28-1.25.56-1.83.06-.1.12-.23.23-.28.04-.03.08-.05.13-.06.2,0,.31.17.37.38.02.08.03.18.03.26,0,.58,0,1.16-.07,1.73.08-.59.24-1.17.52-1.69v-.03c.06-.12.13-.24.24-.3.11-.07.28-.05.34.07.04.07.03.14.02.22-.02.13-.03.26-.06.39-.07.58-.17,1.16-.28,1.73.09-.55.27-1.09.52-1.59v-.02c.05-.09.1-.2.19-.25.24-.15.56.08.61.35.03.12.02.24,0,.37-.03.15-.08.3-.12.44-.21.62-.26,1.3-.17,1.96.07-.24.14-.51.35-.67.2-.15.56-.12.63.11h.02Z"/>
  <path class="cls-6" d="m100.16,69.75c-1.51-.1-2.76,1.58-4.25,1.34-.6-.09-1.16-.51-1.77-.46-.81.07-1.32.88-1.91,1.43-.58.56-1.34.9-2,1.36-1.61,1.11-2.68,2.96-2.86,4.91-.18,1.95.55,3.96,2.09,5.19.03,1.23.07,2.5.55,3.64.34.8.88,1.49,1.42,2.16,1.06,1.34,2.16,2.71,3.47,3.71,1.28-.83,2.64-1.52,4.07-2.06.4-.15.82-.29,1.17-.55.65-.47.98-1.25,1.25-2,1.91-5.23,2.59-10.85,2.67-16.41,0-.71,0-1.47-.44-2.01-.47-.6-1.22-.08-3.45-.24h0Z"/>
  <path class="cls-6" d="m100.15,74.78c.63-.1,1.3.35,1.43.97.14.62-.27,1.32-.88,1.49.32-.29.4-.79.25-1.2-.16-.4-.53-.71-.8-1.26h0Z"/>
  <g>
    <path class="cls-7" d="m100.16,69.75c-1.51-.1-2.76,1.58-4.25,1.34-.6-.09-1.16-.51-1.77-.46-.81.07-1.32.88-1.91,1.43-.58.56-1.34.9-2,1.36-1.61,1.11-2.68,2.96-2.86,4.91-.18,1.95.55,3.96,2.09,5.19.03,1.23.07,2.5.55,3.64.34.8.88,1.49,1.42,2.16,1.06,1.34,2.16,2.71,3.47,3.71,1.28-.83,2.64-1.52,4.07-2.06.4-.15.82-.29,1.17-.55.65-.47.98-1.25,1.25-2,1.91-5.23,2.59-10.85,2.67-16.41,0-.71,0-1.47-.44-2.01-.47-.6-1.22-.08-3.45-.24h0Z"/>
    <path class="cls-2" d="m100.16,69.75c-1.51-.1-2.76,1.58-4.25,1.34-.6-.09-1.16-.51-1.77-.46-.81.07-1.32.88-1.91,1.43-.58.56-1.34.9-2,1.36-1.61,1.11-2.68,2.96-2.86,4.91-.18,1.95.55,3.96,2.09,5.19.03,1.23.07,2.5.55,3.64.34.8.88,1.49,1.42,2.16,1.06,1.34,2.16,2.71,3.47,3.71,1.28-.83,2.64-1.52,4.07-2.06.4-.15.82-.29,1.17-.55.65-.47.98-1.25,1.25-2,1.91-5.23,2.59-10.85,2.67-16.41,0-.71,0-1.47-.44-2.01-.47-.6-1.22-.08-3.45-.24h0Z"/>
  </g>
  <path class="cls-5" d="m97.16,95.41c-.15,1.36-.7,2.66-1.39,3.85-2.16,3.68-5.75,6.36-9.63,8.15-3.88,1.78-8.08,2.72-12.27,3.58-.42.28-.87.54-1.32.78-.16.09-.32.18-.49.25h0c-2.54,1.29-5.35,1.91-8.05,1.3-1.24-.28-2.47-.85-3.33-1.79l-10.89-2.25c-.36.44-.71.88-1.04,1.33-2.19-.77-4.3-1.79-6.28-3,.12-.29.24-.57.37-.87,1.52-3.6,3.27-7.27,6.03-10.14.97-1.01,2.07-1.91,3.37-2.46,1.19-.5,2.48-.67,3.76-.74,3.13-.2,6.29.09,9.41.39,1.65-.99,2.99-1.99,4.33-2.97-1.32-2.43-1.36-5.59-1.02-8.75.08-.84.2-1.67.32-2.49.02-.13.05-.28.13-.39.1-.14.29-.19.46-.23.19-.04.37-.07.56-.08h.02c1.52-.19,3.11.06,4.49.73h0s.05.03.08.04c.11.06.23.12.33.2.09.08.19.17.24.28.08.18.06.38.05.56-.12,1.53-.24,3.07-.36,4.6,2.3-1.42,4.67-2.64,7.25-3.04,2.25-.35,4.71.02,6.48,1.36.25.19.49.4.72.63l.05.05c.8.85,1.53,1.51,2.2,2.06,1.97,1.62,3.33,2.2,4.06,3.47.08.13.15.27.22.4.3.56.55,1.14.74,1.74.37,1.11.54,2.28.41,3.44h0Z"/>
  <path class="cls-6" d="m72.64,111.58c-.46-.21-.75-.74-.67-1.24.08-.5.54-.91,1.04-.96-.35-.22-.67-.37-.92-.61-.25-.24-.42-.59-.37-.93.08-.45.5-.76.88-1.01-.47-.3-1.08-.72-.98-1.29.08-.45.58-.68,1.04-.77,1.05-.22,2.14-.04,3.21.04,2.44.19,4.91-.08,7.26-.82-1.83-.24-3.82,0-4.92-1.05-.34-.33-.22-1.01.08-1.37.12-.15.3-.22.48-.27,1.44-.46,2.97-.45,4.48-.4,2.16.06,4.39.14,6.36-.69.44-.19.88-.42,1.22-.75.39-.36.66-.81.92-1.26.87-1.49,1.68-3,2.41-4.55.57-1.2,1.11-2.45,1.91-3.51.8-1.07,1.9-1.98,3.19-2.35.87,1.28,1.2,2.86,1.18,4.39-.02,1.54-.36,3.06-.74,4.55-.52,1.98-1.13,3.94-2.07,5.75-1.66,3.18-4.31,5.79-7.38,7.64-3.07,1.85-6.68,2.84-10.21,3.45-2.26.4-4,.22-6.75-.49-.72-.19-1.12-.72-.66-1.47v-.02Z"/>
  <path class="cls-6" d="m97.45,89.61c1.06,1.79,2.99,2.96,5.02,3.43,2.03.47,3.04.32,5.09-.07,1.97-.37,3.95-1.11,5.47-2.42,1.93-1.67,2.54-3.08,3.42-6.08.38-1.29.35-3.4.07-4.71-.64-2.98-2.11-5.24-4.35-7.32-1.72-1.6-3.59-3.12-5.82-3.87-2.23-.74-4.89-.55-6.64,1.03,1.07.8,2.32,1.37,3.61,1.68-1.46.04-2.88.88-3.61,2.15.47.49,1.12.74,1.52.95.45.24.91.49,1.2.91.43.65.28,1.56-.2,2.17-.48.61-1.21.97-1.97,1.18-.77.21-1.61.26-2.34-.06-.72-.33-1.28-1.12-1.15-1.88-.34.76-.45,1.6-.56,2.43-.12.94-.24,1.87-.35,2.81-.06.53-.11,1.06.04,1.54,0,.26,0,.53.08.78.09.24.29.47.55.52.4.07.73-.29,1.13-.4-1.04.55-1.7,1.74-1.61,2.92.02.24.08.5.26.66.21.18.52.19.77.1.25-.09.47-.27.68-.45-.27.29-.54.57-.81.87-.08.08-.15.17-.15.27,0,.08.05.17.09.24.15.23.4.38.56.64v-.02Z"/>
  <path class="cls-2" d="m69.74,90.81s5.9,5.8,12.82-.74"/>
  <path class="cls-6" d="m65.41,93.79s2.67.6,4.74,1.72"/>
  <g>
    <path class="cls-7" d="m39.91,73.58c.06.29.1.58.15.88-1.83,2.98-3.17,5.81-4.54,9.19-.58,1.45-1.14,2.93-1.47,4.45-1.24,5.8,1.06,12.06,5.39,16.13.2.19.4.38.6.55,4.71,4.03,11.3,5.56,17.44,4.62,2.23-.34,3.18-2.53,4.35-3.89.41-.48.85-.99,1.45-1.16.6-.18,1.4.18,1.42.81,0,.19-.06.37-.12.54-.3.83-.67,1.63-1.08,2.41-.55,1.02-1.18,1.99-1.9,2.88,2.6.17,4.76-.67,6.98-.88.98-.09,2-.05,2.86.42.24.13.46.3.6.54.26.45.09,1.09-.35,1.36.57-.03.98.46.92.91s-.44.81-.88.95c.45.14.7.44.79.8.03.1.04.21,0,.3-.08.38-.57.5-.8.82.11.56-.11,1.04-.44,1.38s-.75.58-1.19.81c-1.74.89-3.59,1.55-5.51,1.96-8.53,2.09-18.94.67-26.82-3.83-4.18-2.45-7.82-4.39-11.33-7.92-3.52-3.54-6.07-8.75-6.99-13.66-.66-3.51-.33-7.13.22-10.66,1.17-7.45,3.29-14.76,6.31-21.66l13.91,10.96h0Z"/>
    <g class="cls-8">
      <g>
        <line class="cls-2" x1="71.69" y1="112.44" x2="64" y2="113.32"/>
        <line class="cls-2" x1="71.75" y1="114.31" x2="62.93" y2="115.7"/>
        <line class="cls-2" x1="71.74" y1="116.22" x2="63.73" y2="117.94"/>
      </g>
    </g>
    <path class="cls-2" d="m39.91,73.58c.06.29.1.58.15.88-1.83,2.98-3.17,5.81-4.54,9.19-.58,1.45-1.14,2.93-1.47,4.45-1.24,5.8,1.06,12.06,5.39,16.13.2.19.4.38.6.55,4.71,4.03,11.3,5.56,17.44,4.62,2.23-.34,3.18-2.53,4.35-3.89.41-.48.85-.99,1.45-1.16.6-.18,1.4.18,1.42.81,0,.19-.06.37-.12.54-.3.83-.67,1.63-1.08,2.41-.55,1.02-1.18,1.99-1.9,2.88,2.6.17,4.76-.67,6.98-.88.98-.09,2-.05,2.86.42.24.13.46.3.6.54.26.45.09,1.09-.35,1.36.57-.03.98.46.92.91s-.44.81-.88.95c.45.14.7.44.79.8.03.1.04.21,0,.3-.08.38-.57.5-.8.82.11.56-.11,1.04-.44,1.38s-.75.58-1.19.81c-1.74.89-3.59,1.55-5.51,1.96-8.53,2.09-18.94.67-26.82-3.83-4.18-2.45-7.82-4.39-11.33-7.92-3.52-3.54-6.07-8.75-6.99-13.66-.66-3.51-.33-7.13.22-10.66,1.17-7.45,3.29-14.76,6.31-21.66l13.91,10.96h0Z"/>
  </g>
  <path class="cls-6" d="m72.62,106.82s4.33.98,8.09,0"/>
  <path class="cls-6" d="m73.01,109.38s5.46.23,7.7-.33"/>
  <path class="cls-6" d="m72.64,111.58s5.26.75,8.47-.44"/>
  <path class="cls-2" d="m97.13,70.99s.67,1.44,1.37,2.26"/>
  <path class="cls-2" d="m79.59,30.47s-1.44,5.77,0,8.01c1.44,2.24-.64,3.2-3.44,1.44"/>
  <ellipse cx="71.62" cy="32.35" rx="1.77" ry=".89" transform="translate(25.11 95.71) rotate(-78.03)"/>
  <ellipse cx="82.54" cy="35.66" rx="1.77" ry=".89" transform="translate(22.18 102.31) rotate(-71.2)"/>
  <path class="cls-2" d="m70.62,42.68s2.58,1.89,6.24,1.89"/>
  <line class="cls-2" x1="39.91" y1="73.58" x2="39.91" y2="64.76"/>
  <line class="cls-2" x1="60.68" y1="26.63" x2="61.81" y2="27.51"/>
  <path class="cls-4" d="m47.07,80.33s8,9.73,18.33,5.4"/>
  <path class="cls-6" d="m68.33,29.03s1.95-1.32,4.64-.96"/>
  <path class="cls-6" d="m84.28,29.51s1.91,1.01,2.64,2.84"/>
  <rect class="cls-3" x="-1311.21" y="-50.12" width="1656.38" height="875.1"/>
</svg>