<?xml version="1.0" encoding="UTF-8"?>
<svg id="Calque_1" data-name="Calque 1" xmlns="http://www.w3.org/2000/svg" viewBox="0 0 128 128">
  <defs>
    <style>
      .cls-1 {
        font-family: Raleway-Bold, 'Raleway Bold';
        font-size: 11.93px;
        font-weight: 700;
      }

      .cls-1, .cls-2, .cls-3 {
        fill: #8987f3;
      }

      .cls-4 {
        fill: #fff;
      }

      .cls-5 {
        letter-spacing: -.08em;
      }

      .cls-6 {
        fill: #f3d587;
      }

      .cls-6, .cls-7, .cls-8, .cls-9, .cls-3 {
        stroke: #000;
      }

      .cls-6, .cls-7, .cls-8, .cls-9, .cls-3, .cls-10 {
        stroke-miterlimit: 10;
      }

      .cls-7 {
        fill: #afaff9;
      }

      .cls-8 {
        fill: #bfe6fc;
      }

      .cls-9 {
        fill: #baa584;
      }

      .cls-11 {
        stroke: #fff;
        stroke-linecap: round;
        stroke-linejoin: round;
        stroke-width: 8px;
      }

      .cls-11, .cls-10 {
        fill: none;
      }

      .cls-10 {
        stroke: #8987f3;
        stroke-width: 1.21px;
      }

      .cls-12 {
        letter-spacing: 0em;
      }
    </style>
  </defs>
  <g>
    <rect class="cls-8" x="8.07" y="33.57" width="105.76" height="46.48" transform="translate(-14.59 21.66) rotate(-18.03)"/>
    <rect class="cls-10" x="10.49" y="35.99" width="100.92" height="41.64" transform="translate(-14.59 21.66) rotate(-18.03)"/>
    <text class="cls-1" transform="translate(15.46 63.1) rotate(-18.03)"><tspan x="0" y="0">SE</tspan><tspan class="cls-5" x="11.75" y="0">P</tspan><tspan class="cls-12" x="17.09" y="0">A</tspan></text>
    <rect class="cls-4" x="15.99" y="57.1" width="60.63" height="5.86" transform="translate(-16.31 17.28) rotate(-18.03)"/>
    <rect class="cls-4" x="18.31" y="66.16" width="60.63" height="2.02" transform="translate(-18.4 18.35) rotate(-18.03)"/>
    <rect class="cls-4" x="82.37" y="51.23" width="25.73" height="11.21" transform="translate(-12.92 32.27) rotate(-18.03)"/>
    <path class="cls-2" d="m98.44,37l.19.58h-.02c1.14,4.46-1.22,9.09-5.49,10.79v.02s-.58.19-.58.19l-.58.19v-.02c-4.47,1.14-9.09-1.22-10.8-5.49h-.02s-.19-.58-.19-.58l-.19-.59h.02c-1.13-4.46,1.22-9.09,5.49-10.8v-.02s.57-.19.57-.19l.59-.19v.02c4.46-1.13,9.09,1.22,10.79,5.49h.02s.19.58.19.58Zm-11.56,6.99l3.19-1.04-.76-2.33-3.49,1.14c.3.81.66,1.56,1.06,2.23Zm4.68,3.55l-1.11-3.42-2.86.93c1.22,1.61,2.67,2.56,3.97,2.49Zm-6.12-6.95l3.49-1.14-.76-2.33-3.19,1.04c.07.78.22,1.6.45,2.43Zm9.32-6.9c-1.14-.94-2.54-1.55-4.01-1.75.8.56,1.58,1.35,2.27,2.31l1.74-.57Zm-9.83,3.2l2.86-.93-1.11-3.42c-1.1.71-1.71,2.33-1.75,4.35Zm-.29,9.12c1.15.94,2.54,1.55,4.01,1.74-.81-.57-1.58-1.35-2.27-2.31l-1.74.57Zm-.84-7.46l-2.05.67c-.07.83,0,1.67.2,2.51l2.32-.75c-.23-.82-.39-1.64-.47-2.42Zm.85,3.59l-2.32.76c.33.8.77,1.52,1.32,2.15l2.05-.67c-.4-.69-.75-1.44-1.05-2.24Zm-.45-8.06c-1.08,1.03-1.85,2.34-2.22,3.77l1.75-.57c-.01-1.18.15-2.27.47-3.21Zm9.49,1.25c.4.68.75,1.43,1.05,2.24l2.32-.76c-.33-.8-.78-1.52-1.32-2.15l-2.05.67Zm1.5,10.3c1.07-1.03,1.84-2.34,2.22-3.77l-1.74.57c0,1.18-.16,2.27-.47,3.2Zm.39-4.47l2.05-.67c.07-.83,0-1.67-.2-2.52l-2.32.76c.23.82.39,1.64.47,2.43Zm-7.75-9l1.11,3.42,2.86-.93c-1.22-1.61-2.67-2.57-3.97-2.49Zm4.68,3.55l-3.18,1.04.76,2.33,3.49-1.13c-.3-.8-.66-1.56-1.06-2.23Zm1.44,3.4l-3.49,1.13.76,2.33,3.18-1.04c-.07-.78-.22-1.6-.46-2.43Zm-2.35,4.63l1.11,3.42c1.09-.71,1.71-2.33,1.74-4.35l-2.86.93Z"/>
    <path class="cls-6" d="m90.87,92.73c-.06-.06-.11-.13-.15-.21-1.46-2.7,3.61-6.97,13.48-13.9,1.05-.74,1.88-1.32,2.26-1.62,1.4-1.11-.25-3.38-.27-3.4-.35-.47-.25-1.13.22-1.48.47-.35,1.14-.25,1.48.22,1,1.36,2.27,4.43-.12,6.32-.43.34-1.24.91-2.36,1.69-2.26,1.59-5.68,3.99-8.44,6.28-4.34,3.61-4.4,4.77-4.39,4.89.26.51.07,1.14-.44,1.42-.44.24-.97.13-1.29-.22Z"/>
    <path class="cls-9" d="m53.15,116.86l-3.34,3.05-.36.33c-.37.35-.96.32-1.3-.05-.17-.18-.25-.4-.25-.63,0-.25.1-.5.3-.68l.36-.33,3.34-3.06c.37-.34.96-.31,1.3.06.35.38.32.96-.05,1.31Z"/>
    <path class="cls-7" d="m79.42,83.81l-27.37,27.14c-2.32,2.12-3.5,4.61-1.37,6.93,2.12,2.32,4.7,1.36,7.02-.77l29.41-24.9-7.7-8.39Z"/>
    <path class="cls-3" d="m87.11,92.2l19.46-17.84c2.32-2.12,2.48-5.73.35-8.04-2.12-2.32-5.73-2.47-8.05-.35l-19.46,17.84,7.7,8.39Z"/>
    <path class="cls-6" d="m87.98,93.15c-.58.53-1.47.49-2-.09l-7.52-8.21c-.53-.58-.49-1.47.09-2h0c.58-.53,1.47-.49,2,.09l7.52,8.21c.53.58.49,1.47-.09,2h0Z"/>
    <rect class="cls-4" x="19.45" y="69.37" width="60.63" height="2.02" transform="translate(-19.34 18.86) rotate(-18.03)"/>
  </g>
  <rect class="cls-11" x="-543.69" y="-52.99" width="1168.31" height="629.76"/>
</svg>