<?xml version="1.0" encoding="UTF-8"?>
<svg id="Calque_1" data-name="Calque 1" xmlns="http://www.w3.org/2000/svg" viewBox="0 0 128 128">
  <defs>
    <style>
      .cls-1 {
        font-family: Raleway-Bold, 'Raleway Bold';
        font-size: 11.93px;
        font-weight: 700;
      }

      .cls-1, .cls-2, .cls-3 {
        fill: #8987f3;
      }

      .cls-4, .cls-5, .cls-6, .cls-7, .cls-3 {
        stroke: #000;
      }

      .cls-4, .cls-5, .cls-6, .cls-7, .cls-3, .cls-8 {
        stroke-miterlimit: 10;
      }

      .cls-9 {
        fill: #fff;
      }

      .cls-10 {
        letter-spacing: -.08em;
      }

      .cls-5 {
        fill: #f3d587;
      }

      .cls-6 {
        fill: #afaff9;
      }

      .cls-7 {
        fill: #bfe6fc;
      }

      .cls-11 {
        stroke: #fff;
        stroke-linecap: round;
        stroke-linejoin: round;
        stroke-width: 8px;
      }

      .cls-11, .cls-8 {
        fill: none;
      }

      .cls-8 {
        stroke: #8987f3;
        stroke-width: 1.21px;
      }

      .cls-12 {
        letter-spacing: 0em;
      }
    </style>
  </defs>
  <g>
    <rect class="cls-7" x="13.35" y="38.86" width="105.76" height="46.48" transform="translate(-15.97 23.55) rotate(-18.03)"/>
    <rect class="cls-8" x="15.77" y="41.28" width="100.92" height="41.64" transform="translate(-15.97 23.55) rotate(-18.03)"/>
    <text class="cls-1" transform="translate(20.75 68.39) rotate(-18.03)"><tspan x="0" y="0">SE</tspan><tspan class="cls-10" x="11.75" y="0">P</tspan><tspan class="cls-12" x="17.09" y="0">A</tspan></text>
    <rect class="cls-9" x="21.27" y="62.39" width="60.63" height="5.86" transform="translate(-17.69 19.18) rotate(-18.03)"/>
    <rect class="cls-9" x="23.6" y="71.45" width="60.63" height="2.02" transform="translate(-19.78 20.25) rotate(-18.03)"/>
    <rect class="cls-9" x="87.65" y="56.51" width="25.73" height="11.21" transform="translate(-14.29 34.16) rotate(-18.03)"/>
    <path class="cls-2" d="m103.73,42.28l.19.58h-.02c1.14,4.46-1.22,9.09-5.49,10.79v.02s-.58.19-.58.19l-.58.19v-.02c-4.47,1.14-9.09-1.22-10.8-5.49h-.02s-.19-.58-.19-.58l-.19-.59h.02c-1.13-4.46,1.22-9.09,5.49-10.8v-.02s.57-.19.57-.19l.59-.19v.02c4.46-1.13,9.09,1.22,10.79,5.49h.02s.19.58.19.58Zm-11.56,6.99l3.19-1.04-.76-2.33-3.49,1.14c.3.81.66,1.56,1.06,2.23Zm4.68,3.55l-1.11-3.42-2.86.93c1.22,1.61,2.67,2.56,3.97,2.49Zm-6.12-6.95l3.49-1.14-.76-2.33-3.19,1.04c.07.78.22,1.6.45,2.43Zm9.32-6.9c-1.14-.94-2.54-1.55-4.01-1.75.8.56,1.58,1.35,2.27,2.31l1.74-.57Zm-9.83,3.2l2.86-.93-1.11-3.42c-1.1.71-1.71,2.33-1.75,4.35Zm-.29,9.12c1.15.94,2.54,1.55,4.01,1.74-.81-.57-1.58-1.35-2.27-2.31l-1.74.57Zm-.84-7.46l-2.05.67c-.07.83,0,1.67.2,2.51l2.32-.75c-.23-.82-.39-1.64-.47-2.42Zm.85,3.59l-2.32.76c.33.8.77,1.52,1.32,2.15l2.05-.67c-.4-.69-.75-1.44-1.05-2.24Zm-.45-8.06c-1.08,1.03-1.85,2.34-2.22,3.77l1.75-.57c-.01-1.18.15-2.27.47-3.21Zm9.49,1.25c.4.68.75,1.43,1.05,2.24l2.32-.76c-.33-.8-.78-1.52-1.32-2.15l-2.05.67Zm1.5,10.3c1.07-1.03,1.84-2.34,2.22-3.77l-1.74.57c0,1.18-.16,2.27-.47,3.2Zm.39-4.47l2.05-.67c.07-.83,0-1.67-.2-2.52l-2.32.76c.23.82.39,1.64.47,2.43Zm-7.75-9l1.11,3.42,2.86-.93c-1.22-1.61-2.67-2.57-3.97-2.49Zm4.68,3.55l-3.18,1.04.76,2.33,3.49-1.13c-.3-.8-.66-1.56-1.06-2.23Zm1.44,3.4l-3.49,1.13.76,2.33,3.18-1.04c-.07-.78-.22-1.6-.46-2.43Zm-2.35,4.63l1.11,3.42c1.09-.71,1.71-2.33,1.74-4.35l-2.86.93Z"/>
    <rect class="cls-9" x="24.74" y="74.65" width="60.63" height="2.02" transform="translate(-20.72 20.76) rotate(-18.03)"/>
  </g>
  <path class="cls-4" d="m48.52,116.61l-2.2,3.52,4.05-.93c-.13-.37-.36-.86-.75-1.42-.4-.56-.78-.93-1.09-1.17Z"/>
  <path class="cls-5" d="m52.83,109.72l-3.61,5.77c1.06.74,2.08,2.17,2.43,3.41l6.64-1.53c-.42-1.06-1.14-2.45-2.33-4.11-1.19-1.67-2.26-2.8-3.13-3.55Z"/>
  <g>
    <path class="cls-6" d="m80.11,90.23l-26.25,18.69c1.18,1.07,2.34,2.48,3.14,3.6.8,1.13,1.75,2.68,2.37,4.15l26.25-18.69c-.42-1.06-1.14-2.47-2.35-4.17-1.21-1.69-2.3-2.84-3.17-3.58Z"/>
    <path class="cls-3" d="m115.81,76.49l.24-.17c1.47-1.05,1.45-1.8.19-3.73l.21-.15c.83-.59.58-1.42-.01-2.24s-1.29-1.33-2.11-.74l-.25.18c-1.47-1.75-2.35-1.92-3.55-1.07l-29.36,20.9c1.19,1.08,2.34,2.47,3.15,3.6.8,1.13,1.75,2.67,2.38,4.15l3.81-2.71,1.13-.8,23.05-16.41,1.13-.8Z"/>
    <path class="cls-5" d="m115.43,78.35c-.93,1.4-1.71,2.8-2.87,4.11-2.37,2.65-5.5,4.75-8.71,6.23-1.07.5-2.13,1.04-3.2,1.47-1.06.47-2.12.89-3.15,1.3-1.05.42-2.02.84-2.97,1.34-.9.48-1.72,1.01-2.44,1.54l-1.07.88c-.32.29-.62.58-.87.87-.54.53-.84,1.09-1.15,1.52-.16.22-.82,1.09-.55,1.27.32.22,1.62-1.18,1.86-1.4.8-.74,1.72-1.3,2.67-1.81,1.65-.77,3.32-1.2,5.01-1.65,1.07-.29,2.2-.56,3.35-.97,1.14-.35,2.35-.85,3.55-1.29,1.2-.6,2.41-1.09,3.6-1.83,1.15-.73,2.31-1.52,3.32-2.46.99-.86,2.11-2.14,2.85-3.09.98-1.27,4.85-7.35,2.68-7.82-.02,0-.04,0-.06,0-.28,0-.64.29-.97.63l-.89,1.14Z"/>
  </g>
  <rect class="cls-11" x="-479.14" y="-269.82" width="1168.31" height="629.76"/>
</svg>