<?xml version="1.0" encoding="UTF-8"?>
<svg id="Calque_1" data-name="Calque 1" xmlns="http://www.w3.org/2000/svg" viewBox="0 0 128 128">
  <defs>
    <style>
      .cls-1, .cls-2, .cls-3, .cls-4 {
        stroke-miterlimit: 10;
      }

      .cls-1, .cls-2, .cls-3, .cls-4, .cls-5 {
        stroke: #000;
      }

      .cls-1, .cls-2, .cls-3, .cls-5 {
        stroke-width: 2px;
      }

      .cls-1, .cls-2, .cls-6, .cls-7, .cls-8, .cls-9, .cls-4, .cls-5 {
        fill-rule: evenodd;
      }

      .cls-1, .cls-3 {
        fill: #fff;
      }

      .cls-2 {
        fill: #d6d6d6;
      }

      .cls-10 {
        stroke: #fff;
        stroke-width: 8px;
      }

      .cls-10, .cls-5 {
        fill: none;
        stroke-linecap: round;
        stroke-linejoin: round;
      }

      .cls-6 {
        fill: #77eddf;
      }

      .cls-7 {
        fill: #87f3b9;
      }

      .cls-8 {
        fill: #ff6d75;
      }

      .cls-9 {
        fill: #f3d587;
      }
    </style>
  </defs>
  <polygon class="cls-2" points="38.99 39.78 39.08 78.32 66.28 78.32 93.57 78.32 93.48 39.78 38.99 39.78"/>
  <path class="cls-2" d="m96.9,52.9h0c6.96-2.34,12.82-3.49,15.17,3.47l11.22,33.76c2.34,6.96-1.44,14.57-8.4,16.91h0c-6.96,2.34-14.57-1.44-16.92-8.4l-9.47-28.83c-2.34-6.96,1.44-14.57,8.4-16.91Z"/>
  <path class="cls-2" d="m117.4,72.51l5.88,17.62c2.02,6.04-.54,12.56-5.8,15.71,1.25-12.53-7.91-28.51-.08-33.33Z"/>
  <path class="cls-2" d="m35.66,52.9h0c-6.96-2.34-12.83-3.49-15.17,3.47l-11.21,33.76c-2.34,6.96,1.44,14.57,8.4,16.91h0c6.96,2.34,14.57-1.44,16.91-8.4l9.47-28.83c2.34-6.96-1.44-14.57-8.4-16.91Z"/>
  <path class="cls-2" d="m15.15,72.51l-5.88,17.62c-2.02,6.04.54,12.56,5.8,15.71-1.25-12.53,7.92-28.51.08-33.33Z"/>
  <path class="cls-2" d="m91.14,31.02h13.04c1.3,0,1.97,1.12,2.36,2.36l5.51,17.51c.39,1.24-1.06,2.36-2.36,2.36h-24.06c-1.3,0-2.75-1.12-2.36-2.36l5.51-17.51c.39-1.24,1.06-2.36,2.36-2.36Z"/>
  <path class="cls-2" d="m28.37,31.02h13.05c1.3,0,1.97,1.12,2.36,2.36l5.51,17.51c.39,1.24-1.06,2.36-2.36,2.36h-24.06c-1.3,0-2.75-1.12-2.36-2.36l5.51-17.51c.39-1.24,1.06-2.36,2.36-2.36Z"/>
  <path class="cls-2" d="m34.89,34.79c-10.1,0-18.28,8.19-18.28,18.28s8.19,18.28,18.28,18.28c1.07,0,2.13-.09,3.15-.27-.81,1.76-1.26,3.71-1.26,5.77,0,7.61,6.17,13.77,13.77,13.77s13.77-6.17,13.77-13.77-6.16-13.77-13.77-13.77c-.12,0-.24,0-.36,0,1.89-2.88,2.99-6.32,2.99-10.01,0-10.1-8.19-18.28-18.28-18.28Z"/>
  <path class="cls-1" d="m50.55,86.27c5.19,0,9.43-4.23,9.43-9.43s-4.23-9.43-9.43-9.43-9.42,4.24-9.42,9.43,4.23,9.43,9.42,9.43Z"/>
  <path class="cls-4" d="m50.55,83.48c3.65,0,6.63-2.98,6.63-6.63s-2.98-6.63-6.63-6.63-6.63,2.98-6.63,6.63,2.98,6.63,6.63,6.63Z"/>
  <path class="cls-2" d="m97.66,34.79c10.1,0,18.28,8.19,18.28,18.28s-8.19,18.28-18.28,18.28c-1.07,0-2.13-.09-3.15-.27.81,1.76,1.26,3.71,1.26,5.77,0,7.61-6.17,13.77-13.77,13.77s-13.77-6.17-13.77-13.77,6.17-13.77,13.77-13.77c.12,0,.24,0,.36,0-1.89-2.88-2.99-6.32-2.99-10.01,0-10.1,8.19-18.28,18.28-18.28Z"/>
  <g>
    <path class="cls-7" d="m107.75,57.71c-2.56,0-4.65-2.08-4.65-4.64s2.08-4.65,4.65-4.65,4.65,2.08,4.65,4.65-2.08,4.64-4.65,4.64Z"/>
    <path d="m107.75,49.42c2.01,0,3.65,1.64,3.65,3.65s-1.64,3.64-3.65,3.64-3.65-1.63-3.65-3.64,1.64-3.65,3.65-3.65m0-2c-3.11,0-5.65,2.54-5.65,5.65s2.54,5.64,5.65,5.64,5.65-2.54,5.65-5.64-2.54-5.65-5.65-5.65h0Z"/>
  </g>
  <g>
    <path class="cls-9" d="m97.87,67.62c-2.56,0-4.65-2.08-4.65-4.65s2.08-4.64,4.65-4.64,4.64,2.08,4.64,4.64-2.08,4.65-4.64,4.65Z"/>
    <path d="m97.87,59.33c2.01,0,3.65,1.63,3.65,3.64s-1.64,3.65-3.65,3.65-3.65-1.64-3.65-3.65,1.64-3.64,3.65-3.64m0-2c-3.11,0-5.65,2.54-5.65,5.64s2.54,5.65,5.65,5.65,5.65-2.54,5.65-5.65-2.54-5.64-5.65-5.64h0Z"/>
  </g>
  <g>
    <path class="cls-6" d="m87.57,57.71c-2.56,0-4.65-2.08-4.65-4.64s2.08-4.65,4.65-4.65,4.64,2.08,4.64,4.65-2.08,4.64-4.64,4.64Z"/>
    <path d="m87.57,49.42c2.01,0,3.64,1.64,3.64,3.65s-1.63,3.64-3.64,3.64-3.65-1.63-3.65-3.64,1.64-3.65,3.65-3.65m0-2c-3.11,0-5.65,2.54-5.65,5.65s2.54,5.64,5.65,5.64,5.64-2.54,5.64-5.64-2.54-5.65-5.64-5.65h0Z"/>
  </g>
  <g>
    <path class="cls-8" d="m97.87,47.81c-2.56,0-4.65-2.08-4.65-4.64s2.08-4.65,4.65-4.65,4.64,2.08,4.64,4.65-2.08,4.64-4.64,4.64Z"/>
    <path d="m97.87,39.52c2.01,0,3.65,1.64,3.65,3.65s-1.64,3.64-3.65,3.64-3.65-1.63-3.65-3.64,1.64-3.65,3.65-3.65m0-2c-3.11,0-5.65,2.54-5.65,5.65s2.54,5.64,5.65,5.64,5.65-2.54,5.65-5.64-2.54-5.65-5.65-5.65h0Z"/>
  </g>
  <path class="cls-1" d="m34.89,66.61c7.45,0,13.54-6.08,13.54-13.54s-6.08-13.53-13.54-13.53-13.54,6.08-13.54,13.53,6.08,13.54,13.54,13.54Z"/>
  <g>
    <polygon class="cls-8" points="32.75 61.97 32.75 55.21 25.99 55.21 25.99 50.93 32.75 50.93 32.75 44.17 37.03 44.17 37.03 50.93 43.79 50.93 43.79 55.21 37.03 55.21 37.03 61.97 32.75 61.97"/>
    <path d="m36.03,45.17v6.76h6.76v2.29h-6.76v6.76h-2.29v-6.76h-6.76v-2.29h6.76v-6.76h2.29m2-2h-6.29v6.76h-6.76v6.29h6.76v6.76h6.29v-6.76h6.76v-6.29h-6.76v-6.76h0Z"/>
  </g>
  <circle class="cls-3" cx="82" cy="76.85" r="9.43"/>
  <path class="cls-4" d="m82,83.48c3.65,0,6.63-2.98,6.63-6.63s-2.98-6.63-6.63-6.63-6.63,2.98-6.63,6.63,2.98,6.63,6.63,6.63Z"/>
  <path class="cls-1" d="m59.83,54.7h2.87c1.26,0,2.29,1.03,2.29,2.29h0c0,1.26-1.03,2.29-2.29,2.29h-2.87c-1.26,0-2.29-1.03-2.29-2.29h0c0-1.26,1.03-2.29,2.29-2.29Z"/>
  <path class="cls-1" d="m69.85,54.7h2.87c1.26,0,2.29,1.03,2.29,2.29h0c0,1.26-1.03,2.29-2.29,2.29h-2.87c-1.26,0-2.29-1.03-2.29-2.29h0c0-1.26,1.03-2.29,2.29-2.29Z"/>
  <path class="cls-3" d="m58.25,43.7h16.05c.96,0,1.74.78,1.74,1.74v3.5c0,.96-.78,1.74-1.74,1.74h-16.05c-.96,0-1.74-.78-1.74-1.74v-3.5c0-.96.78-1.74,1.74-1.74Z"/>
  <path class="cls-5" d="m51.61,39.76s-3.47-17.77,15.19-21.6c18.66-3.82,21.79-6.42,21.79-6.42"/>
  <rect class="cls-10" x="-5152.96" y="-678.71" width="6562.35" height="1176.7"/>
</svg>