<?xml version="1.0" encoding="UTF-8"?>
<svg id="Calque_1" data-name="Calque 1" xmlns="http://www.w3.org/2000/svg" viewBox="0 0 200 128">
  <defs>
    <style>
      .cls-1, .cls-2, .cls-3, .cls-4, .cls-5, .cls-6, .cls-7 {
        stroke: #000;
      }

      .cls-1, .cls-2, .cls-3, .cls-4, .cls-5, .cls-8, .cls-7 {
        stroke-linecap: round;
        stroke-linejoin: round;
      }

      .cls-1, .cls-9 {
        fill: #d6d6d6;
      }

      .cls-2 {
        fill: #fee4cb;
      }

      .cls-3, .cls-5, .cls-6 {
        fill: #fff;
      }

      .cls-4, .cls-8 {
        fill: none;
      }

      .cls-10 {
        fill: #ff6d75;
      }

      .cls-11 {
        fill: #a07637;
      }

      .cls-12 {
        fill: #baa584;
      }

      .cls-5 {
        stroke-width: 2px;
      }

      .cls-6 {
        stroke-miterlimit: 10;
      }

      .cls-8 {
        stroke: #fff;
        stroke-width: 8px;
      }
    </style>
  </defs>
  <path class="cls-3" d="m52.61,52.1c.02-.24.05-.48.07-.73.54-4.9,2.84-5.26,2.91-6.5.06-1.26-4.19-3.53-4.06-8.92.02-.59,0-1.14-.06-1.68-.41-4.42-2.85-7.11-4.32-8.51,0,0-4.98,8.88-6.05,10.31-1.05,1.42-4.56,5.6-7.22,4.66-2.43-.86-4.54-2.66-6.58-1.3-2.04,1.34-2.17,5.75.26,7.16,0,0-2.37,4.37-3.28,7.4l-4.35,11.18"/>
  <path class="cls-3" d="m52.19,56.18c-.38,2.19-1.27,3.56-4.21,3.71-4.45.23-9.35-.9-10.43-1.51l6.43,10.1"/>
  <path class="cls-2" d="m48.58,97.31c10.82,2.31,22.76,4.77,25.71,5.06,6.51.64,10.57-6.09,11.1-8.4,1.24-5.45,3.82-30.15,3.82-30.15l-3.81-.04c-.91,0-1.82.03-2.73.13l-5.49.58-.75.07-6.45,18.98-22.04-5.93c.87,4.59,1.25,11.02.65,19.69Z"/>
  <path class="cls-2" d="m11.2,112.38c1.9-11.32,5.66-30.73,6.39-33.85,1.57-6.65,10.75-13.28,16.34-7.06.81.91,1.43,1.88,1.91,2.89,3,6.31.29,14.07.29,14.07-.18.7-.67,2.89-1.33,5.92-1.06,4.84-2.53,11.8-3.85,18.02"/>
  <path class="cls-2" d="m46.85,112.38c.87-5.65,1.43-10.66,1.74-15.07.6-8.68.23-15.1-.65-19.69-.95-5.08-2.49-7.92-3.96-9.13l-13.7-6.03c-3.26-1.09-6.83-.38-9.43,1.87-2.53,2.19-5.37,5.61-7.02,10.73-4.32,13.42-5.17,26.56-5.17,26.56,0,0-.47,4.48-1.03,10.77h39.23Z"/>
  <path class="cls-2" d="m30.96,112.38c1.32-6.23,2.79-13.18,3.85-18.02.65-3.03,1.14-5.23,1.33-5.92,0,0,2.72-7.76-.29-14.07-.48-1.02-1.1-1.99-1.91-2.89-5.6-6.22-14.78.41-16.34,7.06-.74,3.11-4.49,22.53-6.39,33.85h19.76Z"/>
  <path class="cls-4" d="m51.88,38.72s3.39-6.19,2.5-11c-1.07-5.8-6.31-5.84-6.31-5.84-2.89-4.57-15.26-7.06-26.55-.68-8.24,4.66-6.74,12.57-3.99,17.35"/>
  <path class="cls-4" d="m15.54,34.36s-1.84,5.67,1.17,10.05c2.62,3.83,5.72,7.88,6.3,12.33"/>
  <ellipse class="cls-7" cx="45.41" cy="40.45" rx="1.58" ry=".73" transform="translate(1.8 82.84) rotate(-85.88)"/>
  <line class="cls-3" x1="29.33" y1="42.65" x2="30.51" y2="43.1"/>
  <g>
    <path class="cls-1" d="m57.81,52.12s.07-.03.11-.03c.59,0,1.18,0,1.78,0,.63,0,1.25,0,1.88,0,.53,0,1.06,0,1.58.01.63,0,1.25,0,1.88,0,.43,0,.85.02,1.28.01.46,0,.89.1,1.3.3.46.22.83.53,1.1.93.32.48.76.82,1.36.98.32.09.66.09.99.1.38,0,.76.04,1.14.05.49.01.97.05,1.46.07.92.04,1.84.08,2.76.13.58.03,1.16.05,1.74.08.91.04,1.82.08,2.73.13.58.03,1.17.05,1.75.08.91.04,1.81.08,2.72.13.6.03,1.19.05,1.79.08.8.04,5.82.27,6.62.31.81.05,1.44.66,1.46,1.38.02.73-.59,1.34-1.4,1.39-.39.02-5-.25-5.39-.29-.31-.03-.61-.07-.91-.1-.75-.07-1.5-.14-2.25-.22-1.09-.11-2.19-.22-3.28-.33-.8-.08-1.6-.16-2.41-.24-.84-.08-1.68-.17-2.52-.25-.83-.08-1.66-.17-2.49-.25-.82-.08-1.65-.16-2.47-.25-.56-.06-1.13-.13-1.69-.17-.74-.05-1.36.18-1.83.69-.52.56-1.16.92-1.97,1.01-.39.04-.78-.03-1.17-.08-.31-.04-.62-.09-.94-.13-.57-.08-1.14-.16-1.71-.23-.42-.06-.84-.11-1.25-.17-.57-.08-1.15-.16-1.72-.23-.41-.06-.83-.11-1.24-.17-.3-.04-.6-.08-.9-.12-.17-.02-.26-.11-.31-.25-.07-.24.31-4.29.44-4.38Z"/>
    <g>
      <line class="cls-1" x1="57.73" y1="55.24" x2="64.61" y2="55.74"/>
      <line class="cls-1" x1="57.85" y1="53.55" x2="64.73" y2="54.05"/>
    </g>
  </g>
  <path class="cls-3" d="m72.29,55.74c.24.16.48.41.72.79.19.32.38.61.56.89.42.62.8,1.13,1.2,1.63.2.26.43.53.67.77.62.63,1.33,1.19,2.11,1.6l.5.26c.63.19.98.5,1.16.72.5.59.41.84.4,1.68l6.94-.29c.12-.61.28-1.29.5-2.01.26-.89.5-1.44.75-1.96.22-.49.42-.95.65-1.6l-5.84-.31-1.41-.07h-.02l-.98-.06h-.01c-.13-.02-.25-.07-.37-.13-.59-.29-1.5-.48-2.41-1.63-.66-.83-2-1.9-3.52-2.45-.34-.13-.81-.22-1.31-.25-.86-.06-1.71.06-1.76.43-.26,1.99.51,1.33,1.47,2.01Z"/>
  <path class="cls-3" d="m75.82,53.65c-.03.72.52,1.34,1.21,1.37l7.5.41,4.38.23c.7.04,1.29-.52,1.32-1.24l.05-1.18.02-.39h0c.03-.73-.52-1.34-1.21-1.38l-11.88-.64c-.7-.04-1.28.52-1.32,1.23h0s-.07,1.59-.07,1.59Z"/>
  <path class="cls-4" d="m52.59,52.46s-2.65.63-4.9.4c-1.38-.14-2.03,1.72-.87,2.46,1,.64,2.65,1.06,5.37.86"/>
  <line class="cls-5" x1="100" y1="10.13" x2="100" y2="117.87"/>
  <path class="cls-6" d="m43.98,68.49s-1.22,20.3-4.57,35.42l8.53.41s4.95-26.81-3.96-35.82Z"/>
  <path class="cls-11" d="m42.68,96.52c.05.49-.21.96-.49,1.38-.28.41-.59.83-.64,1.33-.06.49.27,1.07.76,1.08.32,0,.6-.21.8-.45.21-.24.37-.52.62-.72.13-.1.28-.18.44-.18.2,0,.39.1.54.24.5.44.79,1.21,1.44,1.3.31.04.62-.1.88-.28.46-.32.82-.76,1.04-1.27.11-.26.18-.57.04-.81-.08-.14-.22-.23-.36-.32-.57-.38-1.17-.88-1.27-1.56-.18-1.19,1.19-2.07,1.38-3.26.05-.29.02-.6-.14-.84-.16-.25-.45-.41-.74-.37-.33.06-.55.35-.72.64-.24.39-.45.79-.63,1.2-.1.22-.19.46-.35.64-.16.19-.4.32-.65.28-.12-.02-.23-.08-.35-.07-.24.01-.4.28-.41.52-.02.45.17,1.61-.5.99-.15-.14-.2-.38-.45-.35-.44.04-.28.61-.25.88Z"/>
  <path class="cls-10" d="m47.33,84.93c-.22-.19-.29-.49-.32-.77-.03-.28-.06-.57-.23-.81-.17-.23-.56-.37-.8-.19-.15.11-.2.31-.2.48,0,.18.03.36,0,.53-.02.09-.06.18-.13.24-.09.08-.23.1-.35.09-.41-.01-.86-.24-1.2-.04-.16.1-.25.27-.3.44-.09.3-.08.62.02.92.05.15.14.31.31.36.09.03.2.02.3.01.43-.04-.05,1.17.27,1.43.56.45,1.22.11,1.6.69.09.14.23.26.4.32.17.05.38.02.5-.11.13-.14.12-.35.09-.54-.04-.25-.1-.5-.18-.75-.04-.13-.09-.27-.09-.4,0-.14.06-.28.19-.35.06-.03.14-.05.19-.09.11-.09.08-.26-.01-.37-.17-.2-.73-.63-.16-.61.13,0,.25.09.35-.01.19-.18-.11-.37-.23-.47Z"/>
  <path class="cls-9" d="m47.64,77.28c-.22-.19-.29-.49-.32-.77-.03-.28-.06-.57-.23-.81-.17-.23-.56-.37-.8-.19-.15.11-.2.31-.2.48,0,.18.03.36,0,.53-.02.09-.06.18-.13.24-.09.08-.23.1-.35.09-.41-.01-.86-.24-1.2-.04-.16.1-.25.27-.3.44-.09.3-.08.62.02.92.05.15.14.31.31.36.09.03.2.02.3.01.43-.04-.05,1.17.27,1.43.56.45,1.22.11,1.6.69.09.14.23.26.4.32.17.05.38.02.5-.11.13-.14.12-.35.09-.54-.04-.25-.1-.5-.18-.75-.04-.13-.09-.27-.09-.4,0-.14.06-.28.19-.35.06-.03.14-.05.19-.09.11-.09.08-.26-.01-.37-.17-.2-.73-.63-.16-.61.13,0,.25.09.35-.01.19-.18-.11-.37-.23-.47Z"/>
  <path class="cls-11" d="m44.56,52.85c-.3-.25-.38-.63-.42-.99-.04-.36-.07-.73-.3-1.03-.23-.3-.75-.48-1.07-.26-.21.14-.27.39-.28.61,0,.23.04.46-.02.68-.03.11-.08.22-.19.3-.13.09-.31.12-.48.11-.56-.02-1.16-.32-1.63-.08-.22.12-.35.34-.42.55-.13.38-.12.79,0,1.17.07.19.19.4.41.47.13.04.27.03.4.02.58-.04-.08,1.49.35,1.83.75.58,1.65.16,2.16.91.12.18.31.34.54.41.23.07.51.03.67-.13.18-.18.17-.44.13-.68-.05-.32-.13-.64-.23-.96-.06-.17-.12-.34-.11-.52,0-.18.09-.36.27-.45.09-.04.19-.06.26-.12.15-.11.11-.33-.01-.47-.23-.26-.98-.82-.21-.78.17.01.33.12.48,0,.26-.22-.14-.47-.31-.61Z"/>
  <path class="cls-11" d="m45.19,102c-.17.08-.38-.02-.51-.15-.1-.1-.19-.24-.34-.27-.19-.05-.37.09-.54.19-1.22.67-.99-1.27-.11-1.53.75-.22,2.36,1.36,1.5,1.76Z"/>
  <path class="cls-12" d="m47.91,81.01c-.17.08-.38-.02-.51-.15-.1-.1-.19-.24-.34-.27-.19-.05-.37.09-.54.19-1.22.67-.99-1.27-.11-1.53.75-.22,2.36,1.36,1.5,1.76Z"/>
  <path class="cls-3" d="m154.69,52.1c.02-.24.05-.48.07-.73.54-4.9,2.84-5.26,2.91-6.5.06-1.26-4.19-3.53-4.06-8.92.02-.59,0-1.14-.06-1.68-.41-4.42-2.85-7.11-4.32-8.51,0,0-4.98,8.88-6.05,10.31-1.05,1.42-4.56,5.6-7.22,4.66-2.43-.86-4.54-2.66-6.58-1.3-2.04,1.34-2.17,5.75.26,7.16,0,0-2.37,4.37-3.28,7.4l-4.35,11.18"/>
  <path class="cls-3" d="m154.27,56.18c-.38,2.19-1.27,3.56-4.21,3.71-4.45.23-9.35-.9-10.43-1.51l6.43,10.1"/>
  <path class="cls-2" d="m150.66,97.31c10.82,2.31,22.76,4.77,25.71,5.06,6.51.64,10.57-6.09,11.1-8.4,1.24-5.45,3.82-30.15,3.82-30.15l-3.81-.04c-.91,0-1.82.03-2.73.13l-5.49.58-.75.07-6.45,18.98-22.04-5.93c.87,4.59,1.25,11.02.65,19.69Z"/>
  <path class="cls-2" d="m113.28,112.38c1.9-11.32,5.66-30.73,6.39-33.85,1.57-6.65,10.75-13.28,16.34-7.06.81.91,1.43,1.88,1.91,2.89,3,6.31.29,14.07.29,14.07-.18.7-.67,2.89-1.33,5.92-1.06,4.84-2.53,11.8-3.85,18.02"/>
  <path class="cls-2" d="m148.92,112.38c.87-5.65,1.43-10.66,1.74-15.07.6-8.68.23-15.1-.65-19.69-.95-5.08-2.49-7.92-3.96-9.13l-13.7-6.03c-3.26-1.09-6.83-.38-9.43,1.87-2.53,2.19-5.37,5.61-7.02,10.73-4.32,13.42-5.17,26.56-5.17,26.56,0,0-.47,4.48-1.03,10.77h39.23Z"/>
  <path class="cls-2" d="m133.04,112.38c1.32-6.23,2.79-13.18,3.85-18.02.65-3.03,1.14-5.23,1.33-5.92,0,0,2.72-7.76-.29-14.07-.48-1.02-1.1-1.99-1.91-2.89-5.6-6.22-14.78.41-16.34,7.06-.74,3.11-4.49,22.53-6.39,33.85h19.76Z"/>
  <path class="cls-4" d="m153.96,38.72s3.39-6.19,2.5-11c-1.07-5.8-6.31-5.84-6.31-5.84-2.89-4.57-15.26-7.06-26.55-.68-8.24,4.66-6.74,12.57-3.99,17.35"/>
  <path class="cls-4" d="m117.62,34.36s-1.84,5.67,1.17,10.05c2.62,3.83,5.72,7.88,6.3,12.33"/>
  <ellipse class="cls-7" cx="147.49" cy="40.45" rx="1.58" ry=".73" transform="translate(96.55 184.66) rotate(-85.88)"/>
  <line class="cls-3" x1="131.41" y1="42.65" x2="132.59" y2="43.1"/>
  <g>
    <path class="cls-1" d="m159.89,52.12s.07-.03.11-.03c.59,0,1.18,0,1.78,0,.63,0,1.25,0,1.88,0,.53,0,1.06,0,1.58.01.63,0,1.25,0,1.88,0,.43,0,.85.02,1.28.01.46,0,.89.1,1.3.3.46.22.83.53,1.1.93.32.48.76.82,1.36.98.32.09.66.09.99.1.38,0,.76.04,1.14.05.49.01.97.05,1.46.07.92.04,1.84.08,2.76.13.58.03,1.16.05,1.74.08.91.04,1.82.08,2.73.13.58.03,1.17.05,1.75.08.91.04,1.81.08,2.72.13.6.03,1.19.05,1.79.08.8.04,5.82.27,6.62.31.81.05,1.44.66,1.46,1.38.02.73-.59,1.34-1.4,1.39-.39.02-5-.25-5.39-.29-.31-.03-.61-.07-.91-.1-.75-.07-1.5-.14-2.25-.22-1.09-.11-2.19-.22-3.28-.33-.8-.08-1.6-.16-2.41-.24-.84-.08-1.68-.17-2.52-.25-.83-.08-1.66-.17-2.49-.25-.82-.08-1.65-.16-2.47-.25-.56-.06-1.13-.13-1.69-.17-.74-.05-1.36.18-1.83.69-.52.56-1.16.92-1.97,1.01-.39.04-.78-.03-1.17-.08-.31-.04-.62-.09-.94-.13-.57-.08-1.14-.16-1.71-.23-.42-.06-.84-.11-1.25-.17-.57-.08-1.15-.16-1.72-.23-.41-.06-.83-.11-1.24-.17-.3-.04-.6-.08-.9-.12-.17-.02-.26-.11-.31-.25-.07-.24.31-4.29.44-4.38Z"/>
    <g>
      <line class="cls-1" x1="159.8" y1="55.24" x2="166.69" y2="55.74"/>
      <line class="cls-1" x1="159.93" y1="53.55" x2="166.81" y2="54.05"/>
    </g>
  </g>
  <path class="cls-3" d="m174.36,55.74c.24.16.48.41.72.79.19.32.38.61.56.89.42.62.8,1.13,1.2,1.63.2.26.43.53.67.77.62.63,1.33,1.19,2.11,1.6l.5.26c.63.19.98.5,1.16.72.5.59.41.84.4,1.68l6.94-.29c.12-.61.28-1.29.5-2.01.26-.89.5-1.44.75-1.96.22-.49.42-.95.65-1.6l-5.84-.31-1.41-.07h-.02l-.98-.06h-.01c-.13-.02-.25-.07-.37-.13-.59-.29-1.5-.48-2.41-1.63-.66-.83-2-1.9-3.52-2.45-.34-.13-.81-.22-1.31-.25-.86-.06-1.71.06-1.76.43-.26,1.99.51,1.33,1.47,2.01Z"/>
  <path class="cls-3" d="m177.89,53.65c-.03.72.52,1.34,1.21,1.37l7.5.41,4.38.23c.7.04,1.29-.52,1.32-1.24l.05-1.18.02-.39h0c.03-.73-.52-1.34-1.21-1.38l-11.88-.64c-.7-.04-1.28.52-1.32,1.23h0s-.07,1.59-.07,1.59Z"/>
  <path class="cls-4" d="m154.66,52.46s-2.65.63-4.9.4c-1.38-.14-2.03,1.72-.87,2.46,1,.64,2.65,1.06,5.37.86"/>
  <path class="cls-6" d="m146.05,68.49s-1.22,20.3-4.57,35.42l8.53.41s4.95-26.81-3.96-35.82Z"/>
  <rect class="cls-8" x="-1254.05" y="-164.33" width="3385.57" height="2571.67"/>
</svg>