<?xml version="1.0" encoding="UTF-8"?>
<svg id="Calque_1" data-name="Calque 1" xmlns="http://www.w3.org/2000/svg" viewBox="0 0 128 128.13">
  <defs>
    <style>
      .cls-1, .cls-2, .cls-3, .cls-4 {
        stroke: #000;
      }

      .cls-1, .cls-2, .cls-5 {
        stroke-linecap: round;
        stroke-linejoin: round;
      }

      .cls-1, .cls-5 {
        fill: none;
      }

      .cls-2 {
        fill: #ff6d75;
        stroke-width: 2px;
      }

      .cls-3 {
        fill: #fff;
      }

      .cls-3, .cls-4 {
        stroke-miterlimit: 10;
      }

      .cls-4 {
        fill: #f3d587;
      }

      .cls-5 {
        stroke: #fff;
        stroke-width: 8px;
      }
    </style>
  </defs>
  <path class="cls-2" d="m126.14,46.89c0-17.93-14.59-32.52-32.52-32.52-13.16,0-24.51,7.86-29.62,19.12-5.11-11.26-16.46-19.12-29.61-19.12C16.45,14.37,1.86,28.96,1.86,46.89c0,3.78.65,7.41,1.84,10.79,1.36,3.85,3.42,7.36,6.03,10.4,1.11,1.3,2.32,2.5,3.63,3.61l49.6,49.27c.31.31.7.46,1.1.46s.81-.15,1.11-.46l51.44-51.11h0c3.33-3.35,5.95-7.4,7.59-11.93,1.24-3.44,1.92-7.16,1.92-11.03Z"/>
  <g>
    <polygon class="cls-3" points="55.31 37.42 51.52 40.08 45.1 40.08 41.31 37.42 45.1 33.48 51.52 33.48 55.31 37.42"/>
    <path class="cls-4" d="m48.02,40.18c-13.17,0-23.9,10.66-23.9,23.75s10.73,23.76,23.9,23.76,23.91-10.66,23.91-23.76-10.73-23.75-23.91-23.75Zm0,44.67c-11.63,0-21.06-9.36-21.06-20.92s9.43-20.92,21.06-20.92,21.07,9.37,21.07,20.92-9.43,20.92-21.07,20.92Z"/>
    <path class="cls-4" d="m80.07,40.18c-13.18,0-23.9,10.66-23.9,23.75s10.72,23.76,23.9,23.76,23.9-10.66,23.9-23.76-10.72-23.75-23.9-23.75Zm0,44.67c-11.63,0-21.06-9.36-21.06-20.92s9.43-20.92,21.06-20.92,21.07,9.37,21.07,20.92-9.43,20.92-21.07,20.92Z"/>
    <polyline class="cls-1" points="45.1 33.48 48.02 40.18 51.52 33.48"/>
  </g>
  <rect class="cls-5" x="-370.47" y="-80.55" width="1466.44" height="999.05"/>
</svg>