<?xml version="1.0" encoding="UTF-8"?>
<svg id="Calque_1" data-name="Calque 1" xmlns="http://www.w3.org/2000/svg" viewBox="0 0 200 128">
  <defs>
    <style>
      .cls-1, .cls-2, .cls-3, .cls-4, .cls-5, .cls-6, .cls-7 {
        stroke-linecap: round;
        stroke-linejoin: round;
      }

      .cls-1, .cls-2, .cls-4, .cls-6, .cls-7 {
        fill: none;
      }

      .cls-1, .cls-3, .cls-4, .cls-5 {
        stroke: #000;
      }

      .cls-2 {
        stroke: #fab0b4;
      }

      .cls-8 {
        fill: #bfe6fc;
      }

      .cls-3 {
        fill: #fff;
      }

      .cls-3, .cls-4, .cls-5 {
        stroke-width: 2px;
      }

      .cls-5 {
        fill: #fab0b4;
      }

      .cls-6 {
        stroke: #fff;
        stroke-width: 8px;
      }

      .cls-7 {
        stroke: #ff6d75;
        stroke-width: 3px;
      }
    </style>
  </defs>
  <path class="cls-5" d="m169.97,79.82h-31.25c-5.73,0-11.2,5.14-16.55,7.19-14.94,5.74-31.47,5.98-46.3.18-5.49-2.15-11.48-7.38-17.38-7.38H15.26c-2.18,0-3.95,1.77-3.95,3.95v9.42c0,2.18,1.77,3.95,3.95,3.95h43.37c5.84,0,11.78,5.2,17.22,7.31,14.81,5.75,31.27,5.61,46.14-.1,5.36-2.06,10.85-7.21,16.59-7.21h31.39c2.18,0,3.95-1.77,3.95-3.95v-9.42c0-2.18-1.77-3.95-3.95-3.95Z"/>
  <path class="cls-1" d="m172.97,82.82h-34.25c-5.73,0-11.2,5.14-16.55,7.19-14.94,5.74-31.47,5.98-46.3.18-5.49-2.15-11.48-7.38-17.38-7.38H12.25"/>
  <path class="cls-1" d="m172.97,85.62h-34.25c-5.73,0-11.2,5.14-16.55,7.19-14.94,5.74-31.47,5.98-46.3.18-5.49-2.15-11.48-7.38-17.38-7.38H12.25"/>
  <path class="cls-1" d="m172.97,88.41h-34.25c-5.73,0-11.2,5.14-16.55,7.19-14.94,5.74-31.47,5.98-46.3.18-5.49-2.15-11.48-7.38-17.38-7.38H12.25"/>
  <path class="cls-1" d="m172.97,91.2h-34.25c-5.73,0-11.2,5.14-16.55,7.19-14.94,5.74-31.47,5.98-46.3.18-5.49-2.15-11.48-7.38-17.38-7.38H12.25"/>
  <path class="cls-1" d="m172.97,93.99h-34.25c-5.73,0-11.2,5.14-16.55,7.19-14.94,5.74-31.47,5.98-46.3.18-5.49-2.15-11.48-7.38-17.38-7.38H12.25"/>
  <path class="cls-2" d="m67.19,107.7c2.03,1.03,4.02,2.02,5.95,2.69,16.55,5.75,34.96,5.61,51.58-.1,1.87-.64,3.75-1.58,5.65-2.58"/>
  <path class="cls-2" d="m67.19,113.67c2.03,1.03,4.02,2.02,5.95,2.69,16.55,5.75,34.96,5.61,51.58-.1,1.87-.64,3.75-1.58,5.65-2.58"/>
  <g>
    <path class="cls-3" d="m59.85,77.9c.43,1.59-.51,3.24-2.11,3.67-1.1.3-2.22-.06-2.95-.84l-2.9,1.33c-7.67,3.52-15.89,5.74-24.29,6.56l-3.12.3c-.25,1.03-1.04,1.9-2.13,2.2-1.6.43-3.24-.52-3.67-2.11-.29-1.06.03-2.14.75-2.87-3.22-6.92-5.23-14.34-5.92-21.94-.98-.26-1.8-1.04-2.09-2.1-.43-1.59.51-3.24,2.11-3.67,1.09-.3,2.21.06,2.95.83l2.81-1.29c7.67-3.52,15.89-5.74,24.29-6.57l3.01-.29c.25-1.02,1.04-1.88,2.12-2.17,1.6-.43,3.24.52,3.67,2.11.27,1.01,0,2.03-.65,2.76,1.63,3.48,2.94,7.08,3.94,10.78.99,3.66,1.66,7.4,2.01,11.19,1.03.24,1.89,1.03,2.18,2.13Z"/>
    <path class="cls-4" d="m22.23,77.66c-1.38-3.66-2.22-7.5-2.49-11.43"/>
    <path class="cls-4" d="m51.38,70.51c.28,2.28-.48,4.39-2.27,6.26"/>
  </g>
  <g>
    <polyline class="cls-1" points="42.04 34.24 46.56 34.24 42.04 39.68 46.56 39.68"/>
    <polyline class="cls-1" points="37.19 40.19 40.71 40.19 37.19 44.44 40.71 44.44"/>
    <polyline class="cls-1" points="33.27 44.82 35.57 44.82 33.27 47.58 35.57 47.58"/>
  </g>
  <circle class="cls-8" cx="98.78" cy="64.54" r="25.81"/>
  <g>
    <line class="cls-1" x1="98.78" y1="18.13" x2="98.78" y2="51.94"/>
    <polygon points="93.8 50.48 98.78 59.12 103.77 50.48 93.8 50.48"/>
  </g>
  <g>
    <line class="cls-7" x1="51.67" y1="17.83" x2="145.89" y2="116.3"/>
    <line class="cls-7" x1="145.89" y1="17.83" x2="51.67" y2="116.3"/>
  </g>
  <rect class="cls-6" x="-5612.24" y="-5566.62" width="6467.34" height="6437.3"/>
</svg>