<?xml version="1.0" encoding="UTF-8"?>
<svg id="Calque_1" data-name="Calque 1" xmlns="http://www.w3.org/2000/svg" viewBox="0 0 200 128">
  <defs>
    <style>
      .cls-1, .cls-2 {
        fill: #d6d6d6;
      }

      .cls-2, .cls-3, .cls-4, .cls-5 {
        stroke: #000;
        stroke-width: 2px;
      }

      .cls-2, .cls-3, .cls-4, .cls-5, .cls-6 {
        stroke-linecap: round;
        stroke-linejoin: round;
      }

      .cls-3 {
        fill: #a07637;
      }

      .cls-4 {
        fill: #fff;
      }

      .cls-5, .cls-6 {
        fill: none;
      }

      .cls-6 {
        stroke: #fff;
        stroke-width: 8px;
      }
    </style>
  </defs>
  <line class="cls-2" x1="3.28" y1="107.61" x2="196.74" y2="107.61"/>
  <rect class="cls-2" x="13.87" y="74.68" width="178.85" height="22.79" rx="8.22" ry="8.22"/>
  <path class="cls-3" d="m187.13,96.35H17.97c-.39,0-.7-.31-.7-.7v-46.62c0-.39-.31-.7-.7-.7h-4.18c-.39,0-.7.31-.7.7v58.02c0,.39.31.7.7.7h4.18c.39,0,.7-.31.7-.7v-5.19c0-.39.31-.7.7-.7h168.46c.39,0,.7.31.7.7v5.19c0,.39.31.7.7.7h4.18c.39,0,.7-.31.7-.7v-10c0-.39-.31-.7-.7-.7h-4.88Z"/>
  <g>
    <path class="cls-4" d="m55.85,73.97c.35,1.3-.42,2.63-1.72,2.98-.89.24-1.81-.05-2.4-.68l-2.36,1.08c-6.25,2.86-12.93,4.67-19.77,5.34l-2.54.25c-.2.84-.84,1.55-1.73,1.79-1.3.35-2.63-.42-2.98-1.72-.23-.87.03-1.74.61-2.33-2.62-5.64-4.25-11.67-4.82-17.86-.8-.22-1.47-.84-1.7-1.71-.35-1.3.42-2.63,1.72-2.98.89-.24,1.8.05,2.4.67l2.29-1.05c6.24-2.86,12.93-4.67,19.77-5.34l2.45-.24c.2-.83.84-1.53,1.73-1.77,1.3-.35,2.63.42,2.98,1.72.22.82,0,1.66-.53,2.25,1.32,2.83,2.4,5.77,3.21,8.77s1.35,6.02,1.64,9.1c.83.2,1.54.84,1.78,1.73Z"/>
    <path class="cls-5" d="m25.24,73.77c-1.13-2.98-1.81-6.1-2.03-9.3"/>
    <path class="cls-5" d="m48.97,67.96c.23,1.86-.39,3.57-1.85,5.09"/>
  </g>
  <g>
    <line class="cls-1" x1="165.85" y1="16.42" x2="150.53" y2="71.94"/>
    <g>
      <line class="cls-5" x1="165.85" y1="16.42" x2="151.1" y2="69.85"/>
      <polygon points="144.98 61.29 146.76 60.36 151.31 69.11 159.7 63.94 160.75 65.64 150.53 71.94 144.98 61.29"/>
    </g>
  </g>
  <rect class="cls-6" x="-565.03" y="-2207.29" width="2244.45" height="5948.74"/>
</svg>