<?xml version="1.0" encoding="UTF-8"?><svg id="Calque_1" xmlns="http://www.w3.org/2000/svg" viewBox="0 0 128 128"><defs><style>.cls-1{stroke:#e30613;stroke-width:8px;}.cls-1,.cls-2,.cls-3,.cls-4,.cls-5,.cls-6,.cls-7,.cls-8,.cls-9,.cls-10,.cls-11,.cls-12{stroke-linecap:round;}.cls-1,.cls-2,.cls-3,.cls-5,.cls-6,.cls-7,.cls-8,.cls-11{stroke-linejoin:round;}.cls-1,.cls-3{fill:none;}.cls-2,.cls-3,.cls-4,.cls-5,.cls-6,.cls-7,.cls-8,.cls-9,.cls-10,.cls-11,.cls-12{stroke:#000;}.cls-2,.cls-10{fill:#fff;}.cls-4,.cls-9,.cls-10,.cls-12{stroke-miterlimit:10;}.cls-5{fill:#fce9b9;}.cls-6{fill:#fee4cb;}.cls-7{fill:#87ccf3;}.cls-8{fill:#8987f3;}.cls-9{fill:#b4eac3;}.cls-11{fill:#f3d587;}.cls-12{fill:#d6d6d6;}</style></defs><polygon class="cls-7" points="121.77 121.77 6.22 121.77 64 64 121.77 121.77"/><polygon class="cls-8" points="64 64 6.22 121.77 6.22 6.22 64 64"/><polygon class="cls-5" points="121.77 6.22 64 64 6.22 6.22 121.77 6.22"/><polygon class="cls-11" points="121.77 6.22 121.77 121.77 64 64 121.77 6.22"/><rect class="cls-1" x="-1254.72" y="-463.81" width="2655.08" height="1511.77"/><path class="cls-10" d="m64,27.98c-19.89,0-36.01,16.13-36.01,36.02s16.12,36.01,36.01,36.01,36.01-16.12,36.01-36.01-16.12-36.02-36.01-36.02Zm.43,64.59c-15.78,0-28.57-12.79-28.57-28.57s12.79-28.57,28.57-28.57,28.57,12.79,28.57,28.57-12.79,28.57-28.57,28.57Z"/><path class="cls-12" d="m93,64c0,15.78-12.79,28.57-28.57,28.57s-28.57-12.79-28.57-28.57,12.79-28.57,28.57-28.57,28.57,12.79,28.57,28.57Z"/><rect class="cls-10" x="63.36" y="35.43" width="2.15" height="6.07"/><rect class="cls-10" x="63.36" y="86.5" width="2.15" height="6.07"/><rect class="cls-10" x="86.94" y="63.48" width="6.01" height="2.15"/><rect class="cls-10" x="35.89" y="63.48" width="6.04" height="2.15"/><rect class="cls-4" x="64.43" y="47.02" width="2.15" height="19.04" rx="1.07" ry="1.07"/><rect class="cls-4" x="69.41" y="58.5" width="2.15" height="12.11" rx=".97" ry=".97" transform="translate(135.04 -5.94) rotate(90)"/><circle class="cls-9" cx="65.51" cy="64.55" r="2.91"/><path class="cls-10" d="m22.38,63.58c-1.13,1.99-3.26,3.33-5.71,3.33-3.63,0-6.57-2.94-6.57-6.57s2.66-6.28,6.05-6.55c-.55.96-.86,2.06-.86,3.24,0,3.63,2.94,6.57,6.57,6.57.18,0,.35,0,.52-.02Z"/><polygon class="cls-2" points="16.24 22.54 17.49 25.07 20.28 25.47 18.26 27.44 18.74 30.22 16.24 28.91 13.74 30.22 14.22 27.44 12.2 25.47 14.99 25.07 16.24 22.54"/><polygon class="cls-2" points="19.45 86.5 20.7 89.03 23.49 89.44 21.47 91.41 21.95 94.19 19.45 92.88 16.95 94.19 17.43 91.41 15.41 89.44 18.2 89.03 19.45 86.5"/><circle class="cls-6" cx="111.06" cy="64" r="4.85"/><line class="cls-3" x1="111.06" y1="72.65" x2="111.06" y2="69.91"/><line class="cls-3" x1="104.94" y1="70.12" x2="106.88" y2="68.18"/><line class="cls-3" x1="104.94" y1="57.89" x2="106.88" y2="59.82"/><line class="cls-3" x1="111.06" y1="55.36" x2="111.06" y2="58.09"/><line class="cls-3" x1="117.17" y1="57.89" x2="115.23" y2="59.82"/><line class="cls-3" x1="119.7" y1="64" x2="116.97" y2="64"/><line class="cls-3" x1="117.17" y1="70.12" x2="115.24" y2="68.18"/><line class="cls-3" x1="117.17" y1="70.12" x2="115.23" y2="68.18"/><line class="cls-3" x1="111.06" y1="72.65" x2="111.06" y2="69.91"/><line class="cls-3" x1="104.94" y1="70.12" x2="106.88" y2="68.18"/><line class="cls-3" x1="104.94" y1="57.89" x2="106.88" y2="59.82"/><line class="cls-3" x1="111.06" y1="55.36" x2="111.06" y2="58.09"/><line class="cls-3" x1="117.17" y1="57.89" x2="115.23" y2="59.82"/><line class="cls-3" x1="119.7" y1="64" x2="116.97" y2="64"/><line class="cls-3" x1="105.15" y1="64" x2="102.42" y2="64"/><path class="cls-6" d="m60,22.54c0-2.68,2.17-4.85,4.85-4.85s4.85,2.17,4.85,4.85"/><line class="cls-3" x1="55.12" y1="22.54" x2="74.58" y2="22.54"/><line class="cls-3" x1="58.74" y1="16.43" x2="60.67" y2="18.36"/><line class="cls-3" x1="64.85" y1="13.89" x2="64.85" y2="16.63"/><line class="cls-3" x1="70.96" y1="16.43" x2="69.03" y2="18.36"/><path class="cls-6" d="m59.58,115.39c0-2.68,2.17-4.85,4.85-4.85s4.85,2.17,4.85,4.85"/><line class="cls-3" x1="54.7" y1="115.39" x2="74.16" y2="115.39"/><line class="cls-3" x1="58.32" y1="109.28" x2="60.25" y2="111.21"/><line class="cls-3" x1="64.43" y1="106.75" x2="64.43" y2="109.48"/><line class="cls-3" x1="70.55" y1="109.28" x2="68.61" y2="111.21"/></svg>