<?xml version="1.0" encoding="UTF-8"?>
<svg id="Calque_1" data-name="Calque 1" xmlns="http://www.w3.org/2000/svg" viewBox="0 0 128 128">
  <defs>
    <style>
      .cls-1 {
        fill: #005ea5;
      }

      .cls-2 {
        fill: none;
        stroke: #fff;
        stroke-linecap: round;
        stroke-linejoin: round;
        stroke-width: 8px;
      }
    </style>
  </defs>
  <g>
    <path class="cls-1" d="m61.65,5.23c-4.66.26-8.19.77-12.12,1.76-17.34,4.35-31.89,16.6-39.27,33.06-5.63,12.57-6.62,26.98-2.76,40.37,2.17,7.53,6.09,14.97,11.05,20.95,2.48,2.99,5.37,5.87,8.29,8.24,7.56,6.17,16.64,10.4,26.2,12.2,3.97.75,7.27,1.02,11.8.96,2.93-.04,4.14-.11,6.53-.41,15.83-1.96,30.08-10.27,39.78-23.17,9.09-12.09,13.12-27.41,11.21-42.59-1.46-11.65-6.34-22.5-14.14-31.41-1.13-1.29-3.55-3.73-4.88-4.92-5.42-4.87-11.58-8.64-18.31-11.22-5.37-2.05-10.82-3.26-16.82-3.73-.96-.08-5.69-.15-6.54-.1h0Zm-.66,8.72l.23.04.05,1.34c.03.73.04,1.34.03,1.36-.01.01-.2,0-.41-.05-.22-.04-.82-.06-1.37-.04-2.88.11-3.86,1.13-3.62,3.76.21,2.26.79,3.89,1.58,4.46.46.34.94.44,1.86.39.95-.04,1.77-.25,2.63-.68.4-.2.56-.25.58-.18.02.05.18.59.34,1.2.23.79.29,1.13.24,1.2-.11.14-1.31.71-1.9.9-.92.31-1.73.42-2.91.38-.91-.03-1.13-.06-1.62-.23-1.92-.66-3.12-2.26-3.71-4.97-.27-1.24-.35-2.05-.31-3.28.04-1.23.13-1.72.51-2.52.82-1.77,2.4-2.74,5.13-3.16.27-.04,2.39.01,2.68.07h0Zm7.03.05l1.2.08v.25c.04.35-.91,13.29-.97,13.34-.04.05-3.07-.15-3.1-.2-.02-.03.94-13.43.98-13.53.01-.05.15-.07.37-.05.18.02.88.07,1.53.11h0Zm8.5,1.24c.65.23,1.19.42,1.2.44.03.02,2.27,8.12,2.57,9.28l.08.32.65-1.9c.36-1.05.96-2.79,1.34-3.88l.69-1.98,1.24.42c.68.24,1.27.45,1.29.48.05.04-4.32,12.77-4.42,12.86-.08.08-2.05-.64-2.09-.76-.01-.06-.62-2.15-1.34-4.65-.72-2.5-1.38-4.73-1.44-4.96l-.12-.42-.13.39c-.27.82-2.66,7.7-2.68,7.72-.01.01-.6-.18-1.32-.43-.91-.32-1.28-.48-1.27-.55.02-.09,4.26-12.31,4.38-12.64.04-.08.08-.15.11-.15.04,0,.59.18,1.24.41Zm-28.66,3.91s-1.21.58-2.66,1.27c-1.45.69-2.65,1.27-2.67,1.28-.05.04,1.1,2.38,1.16,2.36.04,0,1.04-.47,2.23-1.04,1.2-.56,2.2-1.02,2.24-1.01.07.02,1.05,2,1.05,2.13,0,.04-.44.27-.97.53-.53.25-1.54.73-2.24,1.07l-1.28.61.63,1.32c.35.72.64,1.34.65,1.38,0,.04,1.29-.54,2.86-1.29,1.55-.74,2.84-1.34,2.85-1.32s.26.57.56,1.24l.53,1.22-.72.34c-.39.19-2.29,1.08-4.2,2l-3.48,1.66-.15-.3c-.42-.83-5.72-12.03-5.7-12.05.01,0,1.84-.89,4.07-1.95l4.04-1.92.62,1.22c.34.68.61,1.23.6,1.24h0Zm44.78,3.9c.31.08.79.26,1.08.4,1.15.57,2.74,2,3.52,3.17l.36.53-.93.89c-.51.49-.96.89-.98.89s-.23-.24-.45-.53c-1.13-1.48-2.6-2.6-3.42-2.6-.54,0-1.05.49-1.05,1.02,0,.42.27.98.97,2.05,1.03,1.58,1.39,2.39,1.47,3.29.07.91-.22,1.74-.91,2.62-1.05,1.32-2.6,1.85-4.22,1.43-1.77-.46-3.85-2.21-4.81-4.07l-.27-.53.95-.91c.52-.5.96-.91.98-.91.02,0,.19.28.38.63.89,1.59,2.42,2.97,3.44,3.08.41.05.88-.16,1.15-.51.42-.56.26-1.13-.81-2.79-1.25-1.94-1.6-3.09-1.31-4.23.36-1.37,1.62-2.64,2.94-2.96.56-.13,1.29-.12,1.91.04h0Zm-57.91,2.72c.54.14,1.35.54,2.03,1.02.68.47,2.23,2.03,2.82,2.82,1.72,2.31,1.92,4.37.62,6.35-.46.72-.84,1.1-3.14,3.28l-2.01,1.91-.14-.18c-.08-.1-2.17-2.32-4.65-4.94-2.48-2.62-4.51-4.79-4.52-4.82-.03-.08,4.02-3.89,4.61-4.33,1.52-1.15,2.91-1.5,4.4-1.11h0Zm33.11,9.49c6.71.83,12.73,3.76,17.44,8.48,1.81,1.81,3.8,4.35,3.8,4.87,0,.27-.16.57-.39.75-.23.18-.77.2-.98.05-.08-.06-.41-.48-.75-.94-1.77-2.44-4.19-4.84-6.6-6.53-3.66-2.57-7.98-4.26-12.41-4.84-3.83-.51-7.91-.18-11.6.94-2.75.83-4.94,1.86-7.39,3.48-5.28,3.5-9.12,8.57-11.11,14.64-1.37,4.22-1.7,9.05-.91,13.39.71,3.92,2.09,7.34,4.28,10.62,5.32,7.98,14.49,12.69,24.02,12.35,6.44-.23,11.78-2.15,16.49-5.91.88-.71,2.6-2.38,3.41-3.32,2.47-2.86,4.45-6.36,5.61-9.95.29-.89,1.7-5.75,1.7-5.87,0-.16-1.91-.36-3.52-.36-1.86,0-1.86,0-2.72.98-1.83,2.06-4.11,3.53-6.37,4.08-.96.23-1.59.3-4.56.44-1.37.06-2.5.13-2.52.13-.01.01.12.44.3.95,1.84,5.28,1.14,9.5-1.93,11.7-.61.43-1.77.98-2.55,1.21-.59.17-.94.2-6.15.49-3.04.18-5.54.3-5.55.3,0-.01.07-.44.19-.94.53-2.34.57-3.41.32-8.08-.1-1.9-.2-3.7-.22-4.01l-.04-.56-2.93.15c-1.61.08-3.21.15-3.54.15-1.75.01-3.49-.68-4.8-1.91-1.17-1.1-1.91-2.5-2.18-4.18-.07-.41-.21-2.64-.36-5.51-.13-2.65-.25-4.99-.27-5.19-.02-.2,0-.37.03-.37s.2.1.38.22c.51.34,1.45.75,2.16.94,1.15.3,1.77.34,3.97.21,1.08-.06,3.04-.17,4.34-.23,1.31-.07,2.39-.15,2.42-.18.08-.08-.46-9.95-.58-10.53-.2-.94-.56-1.73-1.27-2.76-.34-.5-.37-.54-.22-.54.09,0,.96-.05,1.92-.11,4.67-.28,9.38-.53,9.98-.53,2.38,0,4.2,1.2,5.37,3.55.72,1.43.83,2.03,1.01,5.38.18,3.37.18,3.83-.08,4.35l-.18.38.51-.04c.62-.04,1.17-.26,1.86-.72.29-.19.88-.53,1.32-.75,3.88-1.96,8.05-1.42,10.85,1.43.96.97,1.79,2.39,2.11,3.62.15.6.32,1.93.26,2.15-.03.11.08.2.6.46,1.29.64,2.34,1.49,2.87,2.29l.26.4.37-1.1c1.43-4.33,2.88-6.91,4.85-8.64,1.17-1.03,2.84-1.98,4.45-2.53.86-.29,1.05-.29,1.42.05.28.25.37.57.25.93-.11.34-.3.48-1.07.74-2.74.95-4.55,2.42-6.03,4.9-1.13,1.89-1.91,4.05-3.83,10.68-1.06,3.64-1.58,5.09-2.6,7.1-2.67,5.36-6.75,9.72-11.69,12.52-3.29,1.87-6.89,3.02-11.01,3.52-1.28.15-4.66.21-6.03.11-7.26-.58-13.84-3.68-18.92-8.9-4.16-4.26-6.86-9.53-7.93-15.38-.34-1.88-.42-2.9-.42-5.28,0-2.38.08-3.4.42-5.28,1.79-9.88,8.48-18.2,17.73-22.08,2.79-1.17,6.11-1.96,9.21-2.22.91-.07,4.83.01,5.73.13h0Zm-48.26,1.44c.13.79.24,1.51.26,1.58.02.09-.17.46-.53,1.06-.31.5-.59.94-.63.97-.08.08-1.29-2.06-1.24-2.19.11-.27,1.82-2.96,1.86-2.91.03.03.15.7.27,1.5h0Zm3.98-.16l1.15.68-.27.43c-.15.24-.86,1.38-1.58,2.54l-1.31,2.1.51.32c.98.63,1.74,1.08,1.77,1.05.01-.01.6-.96,1.31-2.1.7-1.14,1.29-2.09,1.31-2.1,0-.01.49.27,1.08.63l1.06.65-.23.36c-.74,1.17-2.38,3.84-2.38,3.89,0,.06,2.49,1.63,2.55,1.6.02-.01.77-1.2,1.65-2.63.89-1.43,1.64-2.61,1.67-2.61.06,0,2.08,1.3,2.19,1.41.05.04-4.19,6.98-4.77,7.82-.08.11-.65-.23-5.85-3.45-3.85-2.39-5.76-3.62-5.75-3.69.01-.14,4.61-7.56,4.7-7.57.04,0,.58.3,1.2.68h0Zm84.17,4.83c.63,2.09.56,4.54-.2,6.05-.51,1.02-1.37,2.03-2.39,2.83-.56.44-1.58,1.08-1.72,1.08-.09,0-.19-.27-.4-1.16-.17-.7-.18-.9-.18-2.22,0-1.37,0-1.47.2-2.07.56-1.84,1.89-3.4,3.91-4.64.29-.18.56-.31.6-.3.04,0,.12.2.19.41h0Zm-8.57,1.34c.33.49.91,1.65,1.09,2.19.56,1.66.63,3.14.18,4.57-.37,1.2-1.35,2.76-2.29,3.69l-.39.38-.29-.45c-.41-.63-.94-1.74-1.15-2.45-.76-2.41-.39-4.54,1.16-6.71.42-.6,1.3-1.6,1.39-1.6.04,0,.17.17.31.38h0Zm16.21,5.57c.77.13,1.42.32,1.42.4,0,.15-.74,1.35-1.19,1.93-1.77,2.29-3.98,3.26-6.79,2.98-.81-.08-2.16-.35-2.27-.46-.07-.08.44-1.03.91-1.69,1.36-1.93,3.09-3.02,5.19-3.27.65-.08,1.94-.03,2.73.11h0Zm-93.43,3.24c3.64.46,6.64.84,6.67.87.05.04-.25,2.72-.31,2.77-.02.02-5.13-.61-7.91-.98-.34-.04-.32-.04.56.44.51.27,2.26,1.24,3.9,2.15l2.99,1.65-.02.45c0,.25-.06.72-.11,1.05l-.08.59-1.58.41c-.87.23-2.81.72-4.33,1.1-2.43.62-2.7.7-2.43.74.18.02,2.03.25,4.11.51,2.09.25,3.81.47,3.81.48.04.02-.32,2.64-.35,2.69-.04.04-13.48-1.64-13.52-1.68s.4-3.33.44-3.37c.05-.04,3.85-1.03,7.81-2.03l1.86-.47-.8-.42c-.76-.41-7.96-4.37-7.98-4.4,0,0,.08-.71.19-1.56.11-.85.2-1.6.2-1.67,0-.06.06-.12.13-.12.06,0,3.09.37,6.73.82h0Zm87.04,4.74c1.29.15,2.53.61,3.42,1.29.58.44,1.39,1.31,1.85,1.98.39.56,1.13,1.95,1.13,2.11,0,.13-.11.15-1,.29-1.39.2-3.09.08-4.21-.31-1.57-.55-2.94-1.75-3.97-3.5-.39-.65-.74-1.39-.74-1.55,0-.25,2.25-.46,3.52-.31h0Zm-6.93,2.54c2.92.75,4.75,2.36,5.63,4.95.23.68.43,1.67.5,2.42l.05.58-.45-.05c-.69-.08-1.94-.42-2.65-.72-2.72-1.17-4.21-3.34-4.59-6.71-.04-.34-.06-.65-.04-.68.05-.07.87.04,1.55.21h0Zm-1.51,18.81c.66.33,1.2.61,1.2.63s-.6,1.2-1.34,2.62c-.74,1.42-1.33,2.61-1.32,2.64,0,.03.53.32,1.15.65l1.14.59.52-1c.29-.55.8-1.54,1.14-2.19.34-.66.63-1.21.65-1.23.04-.04,2.2,1.06,2.2,1.11,0,.01-.51,1-1.13,2.19-.62,1.19-1.13,2.19-1.13,2.22,0,.09,2.66,1.45,2.69,1.39.02-.03.66-1.26,1.42-2.73s1.4-2.69,1.43-2.72c.07-.06,2.29,1.18,2.31,1.29.03.17-4.18,8.18-4.28,8.16-.21-.05-12.01-6.18-12.02-6.23,0-.04.87-1.77,1.94-3.83,1.07-2.07,1.99-3.85,2.05-3.97.05-.11.11-.19.13-.19.02,0,.58.27,1.23.6h0Zm-70.2,2.79c.74,1.3,1.47,2.63,1.62,2.95,1.32,2.83.55,5.18-2.36,7.12-2.35,1.56-4.45,2.23-6.15,1.94-1.1-.18-2.31-1.01-3.16-2.17-.32-.42-3.28-5.5-3.24-5.54.22-.18,11.85-6.77,11.88-6.73.02.03.65,1.12,1.39,2.42h0Zm5.63,8.61l1.13,1.03-1.29,1.41c-4.46,4.91-4.96,5.48-5.15,5.87-.42.86-.21,1.6.7,2.47,1.1,1.05,2.03,1.19,2.93.44.18-.15,1.68-1.76,3.33-3.58,1.65-1.83,3.02-3.32,3.05-3.32.08,0,2.22,1.96,2.22,2.03,0,.13-6.32,7.02-6.77,7.38-2.19,1.72-4.61,1.3-7.05-1.22-.7-.73-.97-1.1-1.31-1.81-.36-.77-.49-1.48-.4-2.23.15-1.17.63-2.01,1.96-3.5,4.28-4.75,5.42-5.99,5.46-5.99.02,0,.56.46,1.17,1.02h0Zm59.81-.92c1.08.23,2.28.93,3.57,2.1,1.57,1.41,2.62,2.91,2.95,4.25.17.65.18,1.58.04,2.17-.15.57-.58,1.44-1.01,2.05-.38.53-4.42,4.75-4.52,4.72s-9.76-9.44-9.75-9.49c.07-.18,4.24-4.35,4.71-4.71,1.36-1.03,2.65-1.38,4.01-1.09h0Zm-7.05,12.91c1.66,3.33,3.02,6.07,3.02,6.11,0,.03-.43.27-.96.53l-.95.47-4.06-2.15c-2.23-1.19-4.3-2.29-4.59-2.46s-.56-.31-.58-.31c-.02,0,.81,1.71,1.86,3.8,1.04,2.09,1.9,3.81,1.9,3.83,0,.04-2.36,1.23-2.43,1.23-.04,0-6.08-12.08-6.08-12.17,0-.04.51-.32,1.14-.64l1.14-.57.23.11c.2.1,7.3,4,8.19,4.5l.32.19-1.82-3.62c-1-1.99-1.82-3.65-1.82-3.68,0-.07,2.23-1.21,2.37-1.22.05,0,1.45,2.72,3.12,6.04h0Zm-38.74-2.35c.89.22,1.62.43,1.64.48.04.09,1.2,8.73,1.27,9.38.03.25.06.44.09.44.02,0,.18-.22.35-.48.64-.97,5.44-7.61,5.5-7.61.04,0,.71.16,1.49.35.78.2,1.49.37,1.58.39.08.02.15.08.15.13,0,.12-3.21,13.12-3.24,13.15-.06.06-2.74-.63-2.74-.7,0-.09,1.93-7.84,2-8.02.03-.08-.13.13-.35.46-.4.59-4.72,6.66-4.82,6.77-.05.06-1.93-.39-2.02-.47-.04-.04-1.05-7.36-1.12-8.18-.03-.28-.07-.51-.09-.51s-.48,1.78-1.01,3.95c-.53,2.17-.97,3.96-.98,3.97-.02.02-2.6-.61-2.64-.65,0,0,.71-2.98,1.6-6.6.89-3.62,1.62-6.59,1.62-6.61,0-.06-.03-.07,1.7.35h0Zm21.57,2.24c.71.18,1.52.63,2.05,1.16.99,1,1.56,2.42,1.91,4.73.18,1.19.21,2.98.07,3.78-.42,2.36-1.72,3.59-4.38,4.16-.96.2-2.81.23-3.5.04-2.26-.6-3.52-2.42-4.06-5.83-.18-1.14-.18-3.4,0-4.17.44-1.91,1.6-3.08,3.61-3.66,1.34-.38,3.23-.48,4.31-.21h0Z"/>
    <path class="cls-1" d="m32.71,28.8c-.51.16-.96.49-1.95,1.43l-.9.85,2.75,2.92c1.51,1.6,2.79,2.91,2.83,2.91.04,0,.53-.45,1.1-1.01,1.24-1.2,1.37-1.43,1.37-2.26,0-.49-.04-.62-.23-.98-.65-1.25-2.47-3.15-3.5-3.66-.6-.3-1.01-.35-1.48-.2h0Zm50.8,31.33c-.32.1-.6.34-.75.65-.18.38-.19.7,0,1.07.53,1.1,2.19.83,2.31-.37.04-.46-.08-.8-.37-1.06-.35-.31-.77-.41-1.17-.29h0Zm-58.89,23.85c-1.81,1.05-3.38,1.93-3.46,1.98-.15.08-.13.11.5,1.21,1.01,1.75,1.48,2.17,2.43,2.16.6,0,1.34-.25,2.38-.79,2.72-1.42,3.55-2.55,2.95-4-.24-.59-1.32-2.47-1.41-2.46-.04,0-1.56.86-3.38,1.9h0Zm69.35,7.22c-.5.18-.91.51-1.91,1.51l-.87.87,1.22,1.2c.67.66,1.98,1.93,2.9,2.83l1.69,1.64.99-1.02c.72-.74,1.05-1.12,1.2-1.43.55-1.12.04-2.24-1.81-4-1.53-1.46-2.51-1.91-3.4-1.6h0Zm-25.29,12.43c-.96.19-1.46.56-1.76,1.28-.15.38-.16.51-.16,1.67,0,2.41.53,4.38,1.33,5.07.51.44,1.31.56,2.38.35,1.65-.32,2.16-1.27,1.96-3.64-.2-2.37-.64-3.84-1.33-4.42-.5-.41-1.38-.52-2.43-.32h0Z"/>
  </g>
  <rect class="cls-2" x="-713.68" y="-260.19" width="1951.05" height="522.43"/>
</svg>