<?xml version="1.0" encoding="UTF-8"?>
<svg id="Calque_1" data-name="Calque 1" xmlns="http://www.w3.org/2000/svg" viewBox="0 0 128.13 128.13">
  <defs>
    <style>
      .cls-1 {
        fill: #bfe6fc;
      }

      .cls-1, .cls-2, .cls-3 {
        stroke: #000;
      }

      .cls-1, .cls-2, .cls-3, .cls-4 {
        stroke-linecap: round;
        stroke-linejoin: round;
      }

      .cls-1, .cls-3 {
        stroke-width: 2px;
      }

      .cls-2 {
        fill: #d6d6d6;
        stroke-width: .5px;
      }

      .cls-3, .cls-4 {
        fill: none;
      }

      .cls-4 {
        stroke: #fff;
        stroke-width: 8px;
      }
    </style>
  </defs>
  <path class="cls-1" d="m74.15,73.31l-1.96,25.94-1.35,17.77c-.13,1.83-1.65,3.23-3.48,3.23h-24.54c-1.83,0-3.35-1.41-3.49-3.23l-1.34-17.77-1.96-25.94h38.1Z"/>
  <polyline class="cls-3" points="36.04 73.31 34.83 57.27 75.35 57.27 74.15 73.31"/>
  <polygon class="cls-3" points="38 99.25 37.99 99.25 36.04 73.31 38 99.25"/>
  <polygon class="cls-3" points="95.19 11.64 98.84 39.96 67.19 44.04 60.34 39.33 57.4 16.51 95.19 11.64"/>
  <rect class="cls-3" x="96.99" y="11.31" width="3.28" height="28.55" transform="translate(199.73 38.36) rotate(172.66)"/>
  <polygon class="cls-3" points="57.4 16.51 60.34 39.33 56.71 36.83 54.14 16.93 57.4 16.51"/>
  <circle class="cls-2" cx="52.66" cy="46.63" r=".27"/>
  <circle class="cls-2" cx="59.19" cy="58.37" r=".27"/>
  <circle class="cls-2" cx="51.91" cy="65.96" r=".27"/>
  <circle class="cls-2" cx="61.93" cy="55.95" r=".27"/>
  <circle class="cls-2" cx="58.92" cy="66.92" r=".27"/>
  <circle class="cls-2" cx="54.27" cy="63.45" r=".27"/>
  <circle class="cls-2" cx="57.72" cy="64.89" r=".27"/>
  <circle class="cls-2" cx="57.28" cy="63.62" r=".27"/>
  <circle class="cls-2" cx="56.07" cy="61.4" r=".27"/>
  <circle class="cls-2" cx="61.2" cy="65.16" r=".27"/>
  <circle class="cls-2" cx="50.75" cy="63.34" r=".27"/>
  <circle class="cls-2" cx="48.45" cy="65.43" r=".27"/>
  <circle class="cls-2" cx="50.47" cy="58.37" r=".27"/>
  <circle class="cls-2" cx="53.84" cy="56.84" r=".27"/>
  <circle class="cls-2" cx="60.38" cy="61.4" r=".27"/>
  <circle class="cls-2" cx="56.35" cy="57.6" r=".27"/>
  <circle class="cls-2" cx="57.44" cy="55.67" r=".27"/>
  <circle class="cls-2" cx="52.45" cy="60.85" r=".27"/>
  <circle class="cls-2" cx="55.56" cy="59.2" r=".27"/>
  <circle class="cls-2" cx="56.91" cy="44.04" r=".27"/>
  <circle class="cls-2" cx="56.91" cy="48.57" r=".27"/>
  <circle class="cls-2" cx="55.09" cy="49.12" r=".27"/>
  <circle class="cls-2" cx="53.56" cy="54.2" r=".27"/>
  <circle class="cls-2" cx="59.9" cy="42.79" r=".27"/>
  <circle class="cls-2" cx="58.92" cy="45.81" r=".27"/>
  <circle class="cls-2" cx="62.96" cy="42.89" r=".27"/>
  <circle class="cls-2" cx="61.92" cy="45.3" r=".27"/>
  <circle class="cls-2" cx="62.15" cy="47.57" r=".27"/>
  <circle class="cls-2" cx="64.81" cy="46.09" r=".27"/>
  <circle class="cls-2" cx="65.65" cy="44.04" r=".27"/>
  <circle class="cls-2" cx="58.92" cy="51.87" r=".27"/>
  <circle class="cls-2" cx="60.1" cy="48.85" r=".27"/>
  <circle class="cls-2" cx="55.37" cy="52.14" r=".27"/>
  <rect class="cls-4" x="-2876.69" y="-2339.62" width="6467.34" height="6437.3"/>
</svg>