<?xml version="1.0" encoding="UTF-8"?>
<svg id="Calque_1" data-name="Calque 1" xmlns="http://www.w3.org/2000/svg" viewBox="0 0 128 128">
  <defs>
    <style>
      .cls-1 {
        fill: #d6d6d6;
      }

      .cls-1, .cls-2, .cls-3, .cls-4, .cls-5, .cls-6, .cls-7, .cls-8, .cls-9 {
        stroke: #000;
      }

      .cls-1, .cls-2, .cls-3, .cls-4, .cls-5, .cls-6, .cls-10 {
        stroke-linecap: round;
        stroke-linejoin: round;
      }

      .cls-2 {
        fill: #ff6d75;
      }

      .cls-3, .cls-5 {
        fill: #fff;
      }

      .cls-4, .cls-6, .cls-7, .cls-10, .cls-8, .cls-9 {
        fill: none;
      }

      .cls-11 {
        fill: #fee4cb;
      }

      .cls-5, .cls-6, .cls-7 {
        stroke-width: 2px;
      }

      .cls-7, .cls-8, .cls-9 {
        stroke-miterlimit: 10;
      }

      .cls-10 {
        stroke: #fff;
        stroke-width: 8px;
      }

      .cls-9 {
        stroke-linecap: square;
        stroke-width: 1.5px;
      }
    </style>
  </defs>
  <polygon class="cls-7" points="106.24 39.31 106.24 123.88 5.76 123.88 5.76 39.31 56.03 16.67 106.24 39.31"/>
  <rect class="cls-6" x="46.01" y="77.39" width="19.99" height="46.35"/>
  <line class="cls-4" x1="53.38" y1="101.27" x2="50.11" y2="101.27"/>
  <rect class="cls-6" x="11.16" y="80.02" width="28.9" height="35.99"/>
  <rect class="cls-6" x="71.59" y="80.02" width="28.9" height="35.99"/>
  <rect class="cls-6" x="31.88" y="64" width="48.88" height="8.18"/>
  <path class="cls-5" d="m123.25,35.78v.39c0,17.4-14.12,31.52-31.53,31.52-8.66,0-16.5-3.49-22.19-9.14-1.33-1.32-2.54-2.75-3.6-4.28-1.44-2.02-2.62-4.22-3.54-6.55-1.41-3.57-2.19-7.47-2.19-11.55,0-2.11.21-4.17.6-6.16,2.69-13.6,14.13-24.06,28.21-25.25.34-.03.68-.06,1.03-.08.55-.03,1.12-.04,1.68-.04,16.77,0,30.49,13.1,31.47,29.62.03.5.05,1.01.06,1.52Z"/>
  <g>
    <g>
      <path class="cls-2" d="m107.78,35.45h0c-5.27-1.24-10.79-1.24-16.06,0h0s0-20.04,0-20.04h0c5.27-1.24,10.79-1.24,16.06,0h0v20.04Z"/>
      <path class="cls-2" d="m91.72,35.45h0c-5.27-1.24-10.79-1.24-16.06,0h0s0-20.04,0-20.04h0c5.27-1.24,10.79-1.24,16.06,0h0v20.04Z"/>
      <path class="cls-3" d="m106.39,33.93h0c-4.81-1.24-9.86-1.24-14.67,0h0s0-20.04,0-20.04h0c4.81-1.24,9.86-1.24,14.67,0h0v20.04Z"/>
      <path class="cls-3" d="m91.72,33.93h0c-4.81-1.24-9.86-1.24-14.67,0h0s0-20.04,0-20.04h0c4.81-1.24,9.86-1.24,14.67,0h0v20.04Z"/>
      <g>
        <g>
          <line class="cls-8" x1="79.93" y1="22.67" x2="89.04" y2="22.67"/>
          <line class="cls-8" x1="79.93" y1="20.9" x2="89.04" y2="20.9"/>
          <line class="cls-8" x1="79.93" y1="19.12" x2="89.04" y2="19.12"/>
          <line class="cls-8" x1="82.25" y1="17.35" x2="89.04" y2="17.35"/>
          <line class="cls-8" x1="79.93" y1="24.44" x2="89.04" y2="24.44"/>
          <line class="cls-8" x1="79.93" y1="26.21" x2="89.04" y2="26.21"/>
          <line class="cls-8" x1="79.93" y1="27.99" x2="89.04" y2="27.99"/>
          <line class="cls-8" x1="79.93" y1="29.76" x2="89.04" y2="29.76"/>
          <line class="cls-8" x1="94.51" y1="22.67" x2="103.61" y2="22.67"/>
          <line class="cls-8" x1="94.51" y1="20.9" x2="103.61" y2="20.9"/>
          <line class="cls-8" x1="94.51" y1="19.12" x2="103.61" y2="19.12"/>
          <line class="cls-8" x1="94.51" y1="17.35" x2="103.61" y2="17.35"/>
          <line class="cls-8" x1="94.51" y1="24.44" x2="103.61" y2="24.44"/>
          <line class="cls-8" x1="94.51" y1="26.21" x2="103.61" y2="26.21"/>
          <line class="cls-8" x1="94.51" y1="27.99" x2="103.61" y2="27.99"/>
        </g>
        <line class="cls-8" x1="94.51" y1="29.76" x2="103.61" y2="29.76"/>
      </g>
    </g>
    <rect x="79.92" y="16.13" width="1.53" height="1.75"/>
  </g>
  <line class="cls-4" x1="15.76" y1="96.3" x2="35.47" y2="96.3"/>
  <line class="cls-4" x1="15.76" y1="104.47" x2="35.47" y2="104.47"/>
  <line class="cls-4" x1="15.76" y1="112.2" x2="35.47" y2="112.2"/>
  <line class="cls-9" x1="18.08" y1="90.95" x2="18.08" y2="95.35"/>
  <line class="cls-9" x1="20.29" y1="90.95" x2="20.29" y2="95.35"/>
  <line class="cls-9" x1="22.5" y1="90.95" x2="22.5" y2="95.35"/>
  <line class="cls-9" x1="24.71" y1="90.95" x2="24.71" y2="95.35"/>
  <line class="cls-9" x1="26.92" y1="90.95" x2="26.92" y2="95.35"/>
  <line class="cls-9" x1="29.13" y1="90.95" x2="29.13" y2="95.35"/>
  <line class="cls-9" x1="31.34" y1="90.95" x2="31.34" y2="95.35"/>
  <line class="cls-9" x1="33.56" y1="90.95" x2="33.56" y2="95.35"/>
  <line class="cls-9" x1="18.08" y1="99.07" x2="18.08" y2="103.47"/>
  <line class="cls-9" x1="20.29" y1="99.07" x2="20.29" y2="103.47"/>
  <line class="cls-9" x1="22.5" y1="99.07" x2="22.5" y2="103.47"/>
  <line class="cls-9" x1="24.71" y1="99.07" x2="24.71" y2="103.47"/>
  <line class="cls-9" x1="26.92" y1="99.07" x2="26.92" y2="103.47"/>
  <line class="cls-9" x1="29.13" y1="99.07" x2="29.13" y2="103.47"/>
  <line class="cls-9" x1="31.34" y1="99.07" x2="31.34" y2="103.47"/>
  <line class="cls-9" x1="33.56" y1="99.07" x2="33.56" y2="103.47"/>
  <line class="cls-9" x1="18.08" y1="107.19" x2="18.08" y2="111.59"/>
  <line class="cls-9" x1="20.29" y1="107.19" x2="20.29" y2="111.59"/>
  <line class="cls-9" x1="22.5" y1="107.19" x2="22.5" y2="111.59"/>
  <line class="cls-9" x1="24.71" y1="107.19" x2="24.71" y2="111.59"/>
  <line class="cls-9" x1="26.92" y1="107.19" x2="26.92" y2="111.59"/>
  <line class="cls-9" x1="29.13" y1="107.19" x2="29.13" y2="111.59"/>
  <line class="cls-9" x1="31.34" y1="107.84" x2="33.56" y2="111.59"/>
  <line class="cls-4" x1="76.19" y1="96.3" x2="95.9" y2="96.3"/>
  <line class="cls-4" x1="76.19" y1="104.47" x2="95.9" y2="104.47"/>
  <line class="cls-4" x1="76.19" y1="112.2" x2="95.9" y2="112.2"/>
  <line class="cls-9" x1="78.51" y1="90.95" x2="78.51" y2="95.35"/>
  <line class="cls-9" x1="80.72" y1="90.95" x2="80.72" y2="95.35"/>
  <line class="cls-9" x1="82.93" y1="90.95" x2="82.93" y2="95.35"/>
  <line class="cls-9" x1="85.14" y1="90.95" x2="85.14" y2="95.35"/>
  <line class="cls-9" x1="87.35" y1="90.95" x2="87.35" y2="95.35"/>
  <line class="cls-9" x1="89.56" y1="90.95" x2="89.56" y2="95.35"/>
  <line class="cls-9" x1="91.77" y1="90.95" x2="91.77" y2="95.35"/>
  <line class="cls-9" x1="93.98" y1="90.95" x2="93.98" y2="95.35"/>
  <line class="cls-9" x1="80.72" y1="99.78" x2="78.51" y2="103.47"/>
  <line class="cls-9" x1="82.93" y1="99.07" x2="82.93" y2="103.47"/>
  <line class="cls-9" x1="85.14" y1="99.07" x2="85.14" y2="103.47"/>
  <line class="cls-9" x1="87.35" y1="99.07" x2="87.35" y2="103.47"/>
  <line class="cls-9" x1="89.56" y1="99.07" x2="89.56" y2="103.47"/>
  <line class="cls-9" x1="91.77" y1="99.07" x2="91.77" y2="103.47"/>
  <line class="cls-9" x1="93.98" y1="99.07" x2="93.98" y2="103.47"/>
  <line class="cls-9" x1="78.51" y1="107.19" x2="78.51" y2="111.59"/>
  <line class="cls-9" x1="80.72" y1="107.19" x2="80.72" y2="111.59"/>
  <line class="cls-9" x1="82.93" y1="107.19" x2="82.93" y2="111.59"/>
  <line class="cls-9" x1="85.14" y1="107.19" x2="85.14" y2="111.59"/>
  <line class="cls-9" x1="87.35" y1="107.19" x2="87.35" y2="111.59"/>
  <line class="cls-9" x1="89.56" y1="107.19" x2="89.56" y2="111.59"/>
  <line class="cls-9" x1="91.77" y1="107.19" x2="91.77" y2="111.59"/>
  <line class="cls-9" x1="93.98" y1="107.19" x2="93.98" y2="111.59"/>
  <g>
    <circle class="cls-1" cx="97.27" cy="48.87" r=".87"/>
    <path class="cls-1" d="m97.27,39.67c-5.08,0-9.2,4.11-9.2,9.19s4.11,9.19,9.2,9.19,9.2-4.11,9.2-9.19-4.11-9.19-9.2-9.19Zm0,11.51c-1.28,0-2.31-1.03-2.31-2.31s1.03-2.31,2.31-2.31,2.31,1.03,2.31,2.31-1.03,2.31-2.31,2.31Z"/>
    <circle class="cls-4" cx="97.27" cy="48.87" r=".87"/>
    <circle class="cls-4" cx="97.27" cy="48.87" r=".87"/>
    <rect class="cls-3" x="76.99" y="39.09" width="20.28" height="20.28"/>
    <rect class="cls-11" x="78.78" y="40.88" width="16.69" height="16.69"/>
    <path d="m90.54,46.48c0,.05-.01.09-.02.13-.31,1.91-.63,3.83-.94,5.74-.04.26-.17.46-.37.62-.46.36-1.17.36-1.58,0-.3-.26-.37-.66-.15-.99.28-.43.7-.57,1.19-.54.26.02.48.12.69.3l.65-3.98c-1.44-.07-2.87-.14-4.32-.2,0,.05-.02.1-.02.14-.24,1.45-.48,2.91-.72,4.36-.09.53-.39.84-.91.95-.36.07-.7.03-1-.19-.38-.27-.44-.75-.16-1.11.4-.51,1.23-.62,1.74-.22.02.02.05.04.09.07.15-.89.29-1.77.44-2.65s.29-1.76.44-2.66c1.65.08,3.29.15,4.96.23Z"/>
  </g>
  <rect class="cls-10" x="-1009.99" y="-708.08" width="1496.63" height="1236.8"/>
</svg>