<?xml version="1.0" encoding="UTF-8"?>
<svg id="Calque_1" data-name="Calque 1" xmlns="http://www.w3.org/2000/svg" viewBox="0 0 128 128">
  <defs>
    <style>
      .cls-1, .cls-2, .cls-3, .cls-4, .cls-5, .cls-6 {
        stroke: #000;
      }

      .cls-1, .cls-5, .cls-6, .cls-7 {
        stroke-linejoin: round;
      }

      .cls-1, .cls-7 {
        fill: none;
      }

      .cls-2 {
        fill: #f3d587;
      }

      .cls-2, .cls-3, .cls-4 {
        stroke-miterlimit: 10;
      }

      .cls-2, .cls-3, .cls-4, .cls-5, .cls-6 {
        stroke-width: 2px;
      }

      .cls-3, .cls-6 {
        fill: #fff;
      }

      .cls-4 {
        fill: #ff6d75;
      }

      .cls-5 {
        fill: #fce9b9;
      }

      .cls-5, .cls-6, .cls-7 {
        stroke-linecap: round;
      }

      .cls-7 {
        stroke: #fff;
        stroke-width: 8px;
      }
    </style>
  </defs>
  <path class="cls-4" d="m42.62,74.18l6.86,11.73-17.65,10.31-6.86-11.73c-2.83-4.84-1.18-11.13,3.66-13.96,2.42-1.42,5.22-1.72,7.75-1.04,2.54.65,4.82,2.27,6.23,4.69Z"/>
  <path class="cls-2" d="m49.48,85.91l6.86,11.73c2.84,4.86,1.19,11.15-3.67,14-4.84,2.83-11.13,1.18-13.98-3.68l-6.86-11.73,17.65-10.31Z"/>
  <g>
    <circle class="cls-3" cx="33.47" cy="32.41" r="13.41"/>
    <circle class="cls-3" cx="30.19" cy="30.85" r="13.41"/>
    <line class="cls-2" x1="20.06" y1="22.07" x2="40.13" y2="39.85"/>
  </g>
  <g>
    <circle class="cls-3" cx="56.2" cy="60.07" r="9.18"/>
    <circle class="cls-3" cx="53.96" cy="59" r="9.18"/>
    <line class="cls-2" x1="47.02" y1="52.99" x2="60.76" y2="65.16"/>
  </g>
  <path class="cls-6" d="m119.11,59.43c-.2-.68-.42-1.36-.65-2.03-1.09-3.19-2.48-6.29-4.35-9.1-2.41-3.63-5.59-5.88-8.74-8.75l-.95-5.86h-16.66l-.93,5.85c-5.98,5.43-10.47,10.25-13.09,17.85-.24.66-.46,1.34-.67,2.04v49.47c0,4.73,10.31,8.56,23.02,8.56s23.03-3.83,23.03-8.56c0,0,0-49.47,0-49.47Zm-5.01,47.54c-1.63.76-3.59,1.42-5.81,1.93-3.54.82-7.72,1.3-12.2,1.3s-8.66-.48-12.19-1.3c-2.37-.55-4.46-1.26-6.14-2.08v-39.48c4.2,1.49,10.85,2.44,18.33,2.44s13.79-.9,18.01-2.32v39.51Z"/>
  <path class="cls-5" d="m85.34,11.43h21.53c1.89,0,3.43,1.54,3.43,3.43v18.83h-28.39V14.86c0-1.89,1.54-3.43,3.43-3.43Z"/>
  <line class="cls-1" x1="84.59" y1="11.43" x2="84.59" y2="26.5"/>
  <line class="cls-1" x1="86.9" y1="11.43" x2="86.9" y2="26.5"/>
  <line class="cls-1" x1="89.21" y1="11.43" x2="89.21" y2="26.5"/>
  <line class="cls-1" x1="91.52" y1="11.43" x2="91.52" y2="26.5"/>
  <line class="cls-1" x1="93.83" y1="11.43" x2="93.83" y2="26.5"/>
  <line class="cls-1" x1="96.14" y1="11.43" x2="96.14" y2="26.5"/>
  <line class="cls-1" x1="98.45" y1="11.43" x2="98.45" y2="26.5"/>
  <line class="cls-1" x1="100.76" y1="11.43" x2="100.76" y2="26.5"/>
  <line class="cls-1" x1="103.07" y1="11.43" x2="103.07" y2="26.5"/>
  <line class="cls-1" x1="105.38" y1="11.43" x2="105.38" y2="26.5"/>
  <line class="cls-1" x1="107.68" y1="11.43" x2="107.68" y2="26.5"/>
  <rect class="cls-7" x="-3958.89" y="-2339.75" width="6467.34" height="6437.3"/>
</svg>