<?xml version="1.0" encoding="UTF-8"?>
<svg id="Calque_1" data-name="Calque 1" xmlns="http://www.w3.org/2000/svg" viewBox="0 0 128 128">
  <defs>
    <style>
      .cls-1, .cls-2, .cls-3, .cls-4, .cls-5, .cls-6 {
        stroke: #000;
      }

      .cls-1, .cls-2, .cls-3, .cls-7 {
        stroke-linecap: round;
        stroke-linejoin: round;
      }

      .cls-1, .cls-6 {
        fill: #76ac75;
      }

      .cls-2, .cls-7 {
        fill: none;
      }

      .cls-8 {
        fill: #fdbd62;
      }

      .cls-3 {
        stroke-width: 2px;
      }

      .cls-3, .cls-4 {
        fill: #e6ea9b;
      }

      .cls-4, .cls-5, .cls-6 {
        stroke-miterlimit: 10;
      }

      .cls-5 {
        fill: #fe8302;
      }

      .cls-7 {
        stroke: #fff;
        stroke-width: 8px;
      }
    </style>
  </defs>
  <path class="cls-3" d="m77.66,96.91c-15.1,15.33-43.4,15.51-58.15.84-10.29-10.24-10.57-24.32-10.57-26-.07-12.43,6.14-21.02,8.45-23.9,5.45-6.8,12.07-10.25,16.98-12.04,0,0,.01-.01.05-.03.38-.18,2.9-1.41,3.46-2.04.59-.68-.57-.97-1.76-.85-1.62.16-3.37,1.35-3.71,1.79-.34.42-1.39-1.45-1.39-1.45,0,0,2.92-2.05,4.72-2.05s2.39-.17,4.11.59c1.71.78,2.56.95,4.02.95,1.05,0,3.51.13,4.81.21h.03c6.13-.26,14.48.7,22.59,6.03,14.96,9.85,16.77,26.46,16.92,28.13.11,1.13,1.35,17.69-10.57,29.81Z"/>
  <path class="cls-6" d="m44.89,108.48h-.01c-.09-.01-.17-.04-.22-.05-4.75-1.47-8.14-9.56-9.77-15.87-2.6-10-4.86-18.72-4.17-32.89.46-9.31,2.29-21,4.51-21.04.54-.01,2.18-.8,2.01-.24-1.3,4.46-1.91,9.44-2.14,13.92-.14,2.71-.68,4.86-.53,14.16,0,0,.25,13.33,4.64,29.64,1.05,3.9,3.29,8.33,6.01,9.42,2.72,1.09,5.48,2.44,4.81,3.01"/>
  <path class="cls-6" d="m56.67,107.74c.68-.28,1.74-.71,2.04-.93,4.06-2.85,4.82-11.59,4.47-18.09-.57-10.32-1.06-19.32-6.03-32.6-3.27-8.73-9.6-20.33-11.72-19.69-.51.16-2.31-.11-1.98.39,2.6,3.84,5.7,9.42,7.3,13.62.96,2.54,2.13,4.42,4.8,13.33,0,0,3.82,12.76,4.61,29.64.18,4.05-.6,8.94-2.85,10.8-1.89,1.56-3.75,3.3-3.84,4.02"/>
  <path class="cls-6" d="m34.99,106.72s.03-.03.04-.04c.22-.41-4.8-4.05-8.6-7.78-5.91-5.82-7.49-13.05-8.83-19.16-1.47-6.73-3.22-14.14-.33-22.5.93-2.69,2.66-7.7,7.12-11.78,1.71-1.55,4.06-3.21,3.9-3.43-.13-.2-2.12.83-3.69,1.87,0,0-3.82,2.54-6.51,6.51-4.53,6.73-6.41,23.66.34,38.34,3.12,6.8,5.85,12.29,9.41,14.77.79.55,1.6,1.04,2.39,1.47"/>
  <path class="cls-6" d="m68.25,103.79s.04-.05.07-.07c2.34-2.05,3.89-6.34,4.34-7.24,2.75-5.6,5.26-8.33,6.37-13.16,1-4.31,2.92-11.36,1.2-20.11-.71-3.59-3.46-17.61-15.18-24.21-6.09-3.42-14.38-4.04-14.51-3.64-.07.22,1.84.91,6.02,2.88,3.09,1.46,6.84,3.35,8.25,4.19,6.11,3.63,8.41,11.23,10.07,16.75.83,2.75,3.12,11.29,1.05,21.73-.62,3.13-2,10.09-6.81,17.01-1.39,2-3.71,5.98-4.06,7.33"/>
  <path class="cls-2" d="m103.32,114.37c1.92-.87,3.38-1.66,3.88-1.95-1.25.84-2.54,1.49-3.88,1.95Z"/>
  <path class="cls-2" d="m73.1,80.47c-.3.13-.6.24-.91.35"/>
  <path class="cls-2" d="m102.43,64.31c-.26.2-.53.39-.79.59h-.01c.28-.21.54-.41.8-.59Z"/>
  <path class="cls-4" d="m60.79,85.67s-3.01,3.06-4.56,6.31c-1.2,2.5-1.93,4.67-1.66,5.91.29,1.25,2.51,4.15,4.68,6.43,2.16,2.29,7.76,6.47,13.25,9.1,5.51,2.63,14.77,3.89,20.97,3.67,3.29-.13,7.01-1.47,9.78-2.69"/>
  <path class="cls-2" d="m101.63,64.89c-3.13,2.25-6.93,4.82-10.83,7.08,1.73-1.03,3.48-2.13,5.18-3.25.5-.33.99-.66,1.47-.99,1.46-.97,2.85-1.96,4.15-2.89l.03.04Z"/>
  <path class="cls-1" d="m109.51,110.63c-.68.63-1.39,1.18-2.12,1.67,0,0-.07.04-.2.12-.5.29-1.96,1.08-3.88,1.95-.03,0-.04.01-.07.03-8.99,3.09-19.39-1.52-26.45-5.81-8.78-5.32-16.01-22.91-16.01-22.91,0,0,.7-.29,1.92-.8,0,0,6.65,16.65,15.43,21.98,8.78,5.32,20.36,9.32,29.57,2.05,10.62-8.37,10.03-17.89,9.86-22.11-.18-4.22-2.39-14.42-4.47-18.89-2.06-4.48-4.09-8.64-4.09-8.64.87-.7,1.35-1.09,1.35-1.09,0,0,1.89,3.92,3.96,8.39,2.06,4.48,5.34,16.01,5.51,20.23.17,4.22-.34,14.72-10.33,23.84Z"/>
  <path class="cls-5" d="m107.72,108.9c-9.21,7.27-20.79,3.27-29.57-2.05-8.78-5.32-15.43-21.98-15.43-21.98,0,0,.04-.01.13-.05.08-.04.2-.08.37-.16.09-.04.2-.08.32-.13.18-.08.41-.17.64-.26.18-.08.38-.17.6-.26.21-.08.43-.17.68-.29.04-.01.09-.03.14-.05.35-.16.75-.32,1.17-.5.07-.03.13-.05.2-.09.85-.35,1.83-.78,2.88-1.24.74-.32,1.52-.66,2.34-1.01.3-.12.6-.22.91-.35,4.56-1.76,9.65-4.02,15.01-6.97,5.17-2.84,9.67-5.78,13.54-8.6.26-.2.53-.39.79-.59.35-.26.71-.53,1.06-.79,1.39-1.02,2.58-1.93,3.48-2.66.54-.41.99-.76,1.31-1.02.08-.07.14-.12.21-.17.33-.26.51-.41.51-.41,0,0,2.02,4.15,4.09,8.64,2.08,4.47,4.29,14.67,4.47,18.89.17,4.22.76,13.74-9.86,22.11Z"/>
  <path class="cls-8" d="m105.37,77.43c-.3,3.31-4.31,11.63-9.63,11.93-5.31.29-14.16-2.31-15.19-3.01-.66-.46-4.92-3.04-7.9-4.84,1.08-.47,2.19-.97,3.34-1.47.11-.04.2-.08.3-.13.93-.41,1.89-.84,2.87-1.29.35-.16.72-.32,1.08-.49l3.19-1.46c.35-.16.7-.33,1.05-.49,1.06-.5,2.14-1.04,3.22-1.62.89-.49,1.79-1,2.69-1.52,3.9-2.26,7.7-4.84,10.83-7.08l1.24,1.43s3.22,6.72,2.92,10.03Z"/>
  <rect class="cls-7" x="-1011.5" y="-1403.97" width="3385.57" height="2571.67"/>
</svg>