<?xml version="1.0" encoding="UTF-8"?><svg id="Calque_1" xmlns="http://www.w3.org/2000/svg" xmlns:xlink="http://www.w3.org/1999/xlink" viewBox="0 0 128 128.13"><defs><style>.cls-1,.cls-2{fill:#fff;}.cls-3{stroke:#e30613;stroke-width:8px;}.cls-3,.cls-2,.cls-4,.cls-5,.cls-6{stroke-linecap:round;stroke-linejoin:round;}.cls-3,.cls-4{fill:none;}.cls-2,.cls-4,.cls-5,.cls-6{stroke:#000;}.cls-7{clip-path:url(#clippath-1);}.cls-5{fill:#f3d587;}.cls-6{fill:#d6d6d6;}</style><clipPath id="clippath-1"><path class="cls-2" d="m34.71,74.48c.06.31.11.62.16.93-1.94,3.17-3.37,6.17-4.82,9.76-.62,1.54-1.21,3.11-1.56,4.73-1.32,6.16,1.13,12.82,5.73,17.14.21.2.42.4.64.58,5.01,4.28,12.01,5.91,18.53,4.91,2.37-.36,3.38-2.69,4.62-4.13.44-.51.9-1.05,1.54-1.23.64-.19,1.49.19,1.51.86,0,.2-.06.39-.13.57-.32.88-.71,1.73-1.15,2.56-.58,1.08-1.25,2.11-2.02,3.06,2.76.18,5.06-.71,7.42-.93,1.04-.1,2.13-.05,3.04.45.25.14.49.32.64.57.28.48.1,1.16-.37,1.45.61-.03,1.04.49.98.97-.06.48-.47.86-.93,1.01.48.15.74.47.84.85.03.11.04.22.01.32-.09.4-.61.53-.85.87.12.59-.12,1.1-.47,1.47-.35.37-.8.62-1.26.86-1.85.95-3.82,1.65-5.85,2.08-9.06,2.22-20.13.71-28.5-4.07-4.44-2.6-8.31-4.66-12.04-8.42-3.74-3.76-6.45-9.3-7.43-14.51-.7-3.73-.35-7.58.23-11.33,1.24-7.92,3.5-15.68,6.71-23.02l14.78,11.65Z"/></clipPath></defs><rect class="cls-3" x="-382.86" y="-68.32" width="2655.08" height="1511.77"/><path class="cls-6" d="m37.8,109.71c-1.04-.61-2.03-1.3-2.95-2.09-.22-.18-.43-.38-.64-.58,2.34-10.46,2.49-21.22.65-31.63-1.94,3.17-3.37,6.17-4.82,9.76-.62,1.54-1.21,3.11-1.56,4.73-1.16,5.39.58,11.17,4.11,15.42l-7.38,10.37c-1.64-1.14-3.23-2.42-4.8-3.99-3.74-3.76-6.45-9.31-7.43-14.51-.71-3.73-.35-7.58.23-11.33,1.24-7.92,3.5-15.68,6.71-23.02,2.16-4.95,4.81-9.78,8.65-13.56,3.73-3.69,10.61-7.13,15.83-7.21.37-.06.73-.14,1.09-.23,0,0,14,11.79,34.79,7.52,1.34,1.2,2.33,2.73,3.26,4.27,2.05,3.35,3.91,6.8,5.72,10.29.17.32.33.64.5.96.81,1.57,1.61,3.16,2.41,4.74.31.61.62,1.22.93,1.83.36.72.73,1.44,1.09,2.16.1.2.21.42.2.65,0,.24-.13.46-.25.66-1.77,3.03-3.58,6.11-5.96,8.67-.33.35-.66.69-1.01,1.02l-.06.06s-.05.05-.08.07c-.03.04-.07.07-.1.1-.11.1-.21.19-.32.29-2.98,2.62-6.95,4.36-10.86,3.77-1.57-.23-3.05-.81-4.47-1.51-2.15-1.07-4.14-2.39-5.97-3.91-.36,3.36-.32,6.72,1.08,9.3-1.42,1.05-2.85,2.11-4.6,3.16"/><path class="cls-2" d="m80.28,49.36c-20.79,4.27-34.79-7.52-34.79-7.52.06,0,.11-.03.17-.05,4.13-1.02,7.88-3.46,10.54-6.78v-.02c.65-.8,1.23-1.65,1.73-2.55,1.25,1.54,2.51,3.08,3.8,4.58,1.73,2.04,3.52,4.02,5.45,5.87,1.39,1.34,2.95,2.4,5.06,2.91.54.13,1.08.27,1.62.42,2.34.66,4.62,1.54,6.42,3.14Z"/><path class="cls-2" d="m87.63,78.72h-.15c0-.16,0-.3-.01-.46.02.12.06.3.16.46Z"/><path class="cls-2" d="m34.22,107.04c-.57-.54-1.11-1.11-1.62-1.72-3.53-4.25-5.27-10.03-4.11-15.42.35-1.62.94-3.19,1.56-4.73,1.45-3.59,2.88-6.59,4.82-9.76,1.84,10.41,1.69,21.17-.65,31.63Z"/><path class="cls-2" d="m86.15,30.69c4.25-2.47,6.02-8.07,4.95-12.87-1.07-4.8-4.51-8.79-8.54-11.62-2.12-1.49-4.45-2.71-6.95-3.38-7.29-1.93-15.52,1.5-19.8,7.71-4.28,6.22-6.74,13.89-3.63,20.77.5,1.1,3.16,3.02,4.1,3.77.86.69,1.93,1.04,2.98,1.33,4.07,1.14,8.37,1.66,12.55,1.07,4.19-.59,7.83-3.03,14.33-6.8Z"/><path class="cls-2" d="m85.02,19.97c-3.11,2.64-7.12,4.1-11.17,4.56-1.89.22-3.8.22-5.71.07-2.17-.18-4.35-.57-6.5-1.11-.24-.99-.91-1.86-1.8-2.36-.89-.49-1.99-.6-2.95-.29-1.18.38-2.1,1.34-2.73,2.41-.77,1.32-1.16,2.99-.5,4.37.54,1.12,1.65,1.83,2.66,2.39-.25,3.49-.44,7.25,1.44,10.2.88,1.38,1.84,2.75,3.12,3.77,1.32,1.05,3.15,2.22,4.74,2.78,2.74.97,6.12.46,8.76-.75,3.97-1.83,6.64-5.6,8.93-9.32,1.68-2.73,2.96-5.7,3.73-8.81-.84-1-1.34-2.26-1.61-3.54-.27-1.28-.33-2.59-.41-4.37Z"/><path class="cls-2" d="m91.51,66.94c-.41.04-.87.06-1.17-.21-.38-.34-.25-1.06.23-1.25-.58.08-.98.78-.75,1.32.22.54,1,.75,1.7.15Z"/><path class="cls-2" d="m83.71,79.83c1.05.6,2.37.71,3.5.28-1.18-.04-2.36-.13-3.5-.28Z"/><path class="cls-2" d="m68.88,75.78c.09.16.02.35-.04.53-.25.67-.51,1.34-.74,2.01-.03.06-.06.12-.07.18-.08.2-.15.39-.22.58-1.73-.61-3.56-.51-5.17.13-.05-.33-.09-.67-.1-1h0c-.13-1.67,0-3.35.42-4.97.04-.17.09-.36.22-.48.12-.13.34-.19.48-.08.09.07.13.18.17.28.21.68.36,1.37.47,2.06,0-.7.11-1.4.33-2.07.05-.12.1-.26.2-.34.04-.04.08-.06.13-.08.21-.04.36.14.46.35.03.09.06.19.07.28.1.63.17,1.26.2,1.89-.01-.66.08-1.3.3-1.92,0-.01,0-.02,0-.03.04-.14.11-.29.22-.36.11-.09.3-.09.38.02.05.07.05.15.05.23,0,.15.01.29,0,.43.02.64,0,1.28-.04,1.92.02-.61.13-1.23.32-1.81,0,0,0-.01,0-.02.04-.11.08-.23.17-.31.23-.2.62,0,.72.28.05.13.06.26.05.4,0,.17-.03.34-.06.5-.13.71-.08,1.45.12,2.15.03-.28.07-.57.27-.78.19-.19.58-.22.7.02Z"/><path class="cls-2" d="m93.66,63.64c-1.65.12-2.75,2.14-4.41,2.11-.67-.01-1.33-.37-1.99-.23-.87.19-1.29,1.15-1.85,1.85-.55.7-1.32,1.19-1.97,1.79-1.57,1.46-2.45,3.63-2.34,5.77.11,2.14,1.21,4.21,3.07,5.32.22,1.34.46,2.71,1.16,3.87.49.81,1.19,1.48,1.88,2.13,1.36,1.29,2.76,2.61,4.35,3.48,1.26-1.1,2.64-2.06,4.1-2.87.41-.23.84-.45,1.18-.78.63-.61.86-1.51,1.05-2.37,1.26-5.98,1.12-12.18.35-18.24-.1-.76-.24-1.59-.79-2.12-.6-.58-1.34.09-3.79.27Z"/><path class="cls-2" d="m94.43,69.12c.67-.21,1.46.18,1.71.83.25.65-.09,1.47-.73,1.75.31-.36.32-.93.09-1.34-.23-.42-.68-.69-1.07-1.24Z"/><path class="cls-1" d="m93.66,63.64c-1.65.12-2.75,2.14-4.41,2.11-.67-.01-1.33-.37-1.99-.23-.87.19-1.29,1.15-1.85,1.85-.55.7-1.32,1.19-1.97,1.79-1.57,1.46-2.45,3.63-2.34,5.77.11,2.14,1.21,4.21,3.07,5.32.22,1.34.46,2.71,1.16,3.87.49.81,1.19,1.48,1.88,2.13,1.36,1.29,2.76,2.61,4.35,3.48,1.26-1.1,2.64-2.06,4.1-2.87.41-.23.84-.45,1.18-.78.63-.61.86-1.51,1.05-2.37,1.26-5.98,1.12-12.18.35-18.24-.1-.76-.24-1.59-.79-2.12-.6-.58-1.34.09-3.79.27Z"/><path class="cls-4" d="m93.66,63.64c-1.65.12-2.75,2.14-4.41,2.11-.67-.01-1.33-.37-1.99-.23-.87.19-1.29,1.15-1.85,1.85-.55.7-1.32,1.19-1.97,1.79-1.57,1.46-2.45,3.63-2.34,5.77.11,2.14,1.21,4.21,3.07,5.32.22,1.34.46,2.71,1.16,3.87.49.81,1.19,1.48,1.88,2.13,1.36,1.29,2.76,2.61,4.35,3.48,1.26-1.1,2.64-2.06,4.1-2.87.41-.23.84-.45,1.18-.78.63-.61.86-1.51,1.05-2.37,1.26-5.98,1.12-12.18.35-18.24-.1-.76-.24-1.59-.79-2.12-.6-.58-1.34.09-3.79.27Z"/><path class="cls-5" d="m94.38,91.98c.05,1.5-.34,3-.91,4.39-1.78,4.33-5.25,7.8-9.19,10.34-3.93,2.53-8.35,4.21-12.77,5.79-.42.37-.86.72-1.31,1.05-.16.13-.32.24-.49.35h0c-2.56,1.8-5.51,2.91-8.53,2.66-1.39-.11-2.81-.54-3.89-1.42l-12.17-.75c-.32.54-.63,1.07-.93,1.6-2.5-.5-4.95-1.27-7.28-2.28.09-.34.17-.66.26-1,1.08-4.15,2.42-8.39,4.97-11.95.9-1.24,1.95-2.4,3.28-3.19,1.21-.73,2.59-1.11,3.97-1.39,3.37-.7,6.84-.87,10.28-1.04,1.63-1.33,2.94-2.62,4.24-3.9-1.81-2.43-2.34-5.86-2.46-9.34-.04-.92-.04-1.84-.04-2.76,0-.15,0-.31.08-.44.09-.17.29-.25.47-.32.2-.07.39-.13.59-.18h.02c1.63-.44,3.38-.42,4.99.1h.01s.06.02.09.03c.13.04.26.1.39.16.11.07.23.15.3.27.11.18.12.4.14.61.11,1.68.21,3.37.33,5.05,2.27-1.9,4.66-3.6,7.39-4.43,2.39-.73,5.11-.71,7.25.47.31.17.59.35.87.57.02.02.03.03.06.04,1,.8,1.9,1.4,2.71,1.9,2.39,1.45,3.96,1.87,4.94,3.14.1.13.21.27.3.41.41.56.77,1.15,1.08,1.77.57,1.15.94,2.39.98,3.68Z"/><path class="cls-2" d="m70.28,113.34c-.53-.15-.93-.69-.92-1.24.01-.55.44-1.07.98-1.2-.41-.18-.78-.3-1.09-.52-.31-.22-.55-.58-.54-.96,0-.51.42-.9.81-1.23-.56-.26-1.29-.62-1.26-1.25.02-.5.53-.83,1-1,1.11-.39,2.31-.38,3.49-.45,2.68-.17,5.32-.86,7.75-2.01-2.02.02-4.15.6-5.5-.38-.42-.3-.39-1.06-.13-1.51.11-.18.3-.28.48-.37,1.49-.72,3.16-.95,4.8-1.14,2.34-.27,4.78-.52,6.8-1.74.45-.27.88-.59,1.21-1.01.36-.45.59-.99.81-1.52.71-1.75,1.35-3.52,1.91-5.32.43-1.4.83-2.82,1.53-4.11.7-1.29,1.75-2.44,3.09-3.05,1.14,1.25,1.74,2.92,1.96,4.59.22,1.68.09,3.38-.1,5.06-.25,2.22-.61,4.45-1.35,6.56-1.3,3.71-3.78,6.95-6.83,9.44-3.04,2.49-6.81,4.13-10.55,5.34-2.4.78-4.3.86-7.41.52-.81-.09-1.33-.62-.95-1.5Z"/><path class="cls-2" d="m93.8,85.63c1.43,1.78,3.71,2.75,5.98,2.94,2.28.2,3.35-.13,5.51-.86,2.08-.7,4.12-1.83,5.56-3.48,1.83-2.11,2.28-3.74,2.76-7.13.21-1.46-.15-3.74-.66-5.13-1.16-3.14-3.11-5.37-5.86-7.27-2.12-1.47-4.38-2.84-6.92-3.3-2.53-.46-5.4.17-7.05,2.14,1.29.7,2.72,1.13,4.18,1.27-1.58.27-2.99,1.4-3.59,2.89.58.46,1.33.63,1.8.8.52.19,1.07.39,1.44.81.57.64.55,1.65.13,2.39-.42.74-1.17,1.25-1.96,1.58-.8.34-1.71.54-2.55.3-.84-.24-1.56-1.01-1.54-1.87-.25.88-.24,1.81-.23,2.72.01,1.04.03,2.08.06,3.11.02.58.04,1.18.28,1.67.04.29.08.58.22.83.14.25.39.47.67.47.44.01.75-.43,1.16-.61-1.05.75-1.58,2.16-1.29,3.42.06.26.16.53.39.68.25.17.59.13.86-.01.26-.14.47-.37.67-.6-.25.35-.49.71-.74,1.06-.07.1-.14.2-.12.32.01.09.07.17.14.24.2.23.5.35.71.61Z"/><path class="cls-4" d="m63.9,91.24s7.31,5.38,13.8-2.8"/><path class="cls-2" d="m59.66,95.15s3,.24,5.42,1.14"/><path class="cls-1" d="m34.71,74.48c.06.31.11.62.16.93-1.94,3.17-3.37,6.17-4.82,9.76-.62,1.54-1.21,3.11-1.56,4.73-1.32,6.16,1.13,12.82,5.73,17.14.21.2.42.4.64.58,5.01,4.28,12.01,5.91,18.53,4.91,2.37-.36,3.38-2.69,4.62-4.13.44-.51.9-1.05,1.54-1.23.64-.19,1.49.19,1.51.86,0,.2-.06.39-.13.57-.32.88-.71,1.73-1.15,2.56-.58,1.08-1.25,2.11-2.02,3.06,2.76.18,5.06-.71,7.42-.93,1.04-.1,2.13-.05,3.04.45.25.14.49.32.64.57.28.48.1,1.16-.37,1.45.61-.03,1.04.49.98.97-.06.48-.47.86-.93,1.01.48.15.74.47.84.85.03.11.04.22.01.32-.09.4-.61.53-.85.87.12.59-.12,1.1-.47,1.47-.35.37-.8.62-1.26.86-1.85.95-3.82,1.65-5.85,2.08-9.06,2.22-20.13.71-28.5-4.07-4.44-2.6-8.31-4.66-12.04-8.42-3.74-3.76-6.45-9.3-7.43-14.51-.7-3.73-.35-7.58.23-11.33,1.24-7.92,3.5-15.68,6.71-23.02l14.78,11.65Z"/><g class="cls-7"><line class="cls-2" x1="68.48" y1="115.77" x2="60.31" y2="116.7"/><line class="cls-2" x1="68.54" y1="117.75" x2="59.17" y2="119.23"/><line class="cls-2" x1="68.53" y1="119.78" x2="60.02" y2="121.61"/></g><path class="cls-4" d="m34.71,74.48c.06.31.11.62.16.93-1.94,3.17-3.37,6.17-4.82,9.76-.62,1.54-1.21,3.11-1.56,4.73-1.32,6.16,1.13,12.82,5.73,17.14.21.2.42.4.64.58,5.01,4.28,12.01,5.91,18.53,4.91,2.37-.36,3.38-2.69,4.62-4.13.44-.51.9-1.05,1.54-1.23.64-.19,1.49.19,1.51.86,0,.2-.06.39-.13.57-.32.88-.71,1.73-1.15,2.56-.58,1.08-1.25,2.11-2.02,3.06,2.76.18,5.06-.71,7.42-.93,1.04-.1,2.13-.05,3.04.45.25.14.49.32.64.57.28.48.1,1.16-.37,1.45.61-.03,1.04.49.98.97-.06.48-.47.86-.93,1.01.48.15.74.47.84.85.03.11.04.22.01.32-.09.4-.61.53-.85.87.12.59-.12,1.1-.47,1.47-.35.37-.8.62-1.26.86-1.85.95-3.82,1.65-5.85,2.08-9.06,2.22-20.13.71-28.5-4.07-4.44-2.6-8.31-4.66-12.04-8.42-3.74-3.76-6.45-9.3-7.43-14.51-.7-3.73-.35-7.58.23-11.33,1.24-7.92,3.5-15.68,6.71-23.02l14.78,11.65Z"/><path class="cls-2" d="m69.51,108.18s4.86.39,8.79-1.26"/><path class="cls-2" d="m70.34,110.89s5.96-.6,8.31-1.56"/><path class="cls-2" d="m70.28,113.34s5.83,0,9.12-1.8"/><path class="cls-4" d="m90.56,65.47s.95,1.46,1.85,2.23"/><path class="cls-4" d="m76.87,28.67s-1.53,6.13,0,8.51c1.53,2.38-.68,3.4-3.66,1.53"/><ellipse cx="68.41" cy="30.67" rx="1.88" ry=".95" transform="translate(24.21 91.23) rotate(-78.03)"/><ellipse cx="80.01" cy="34.18" rx="1.88" ry=".95" transform="translate(21.87 98.91) rotate(-71.2)"/><path class="cls-4" d="m67.34,41.64s2.74,2.01,6.63,2.01"/><line class="cls-4" x1="34.71" y1="74.48" x2="34.71" y2="65.1"/><line class="cls-2" x1="56.78" y1="24.59" x2="57.98" y2="25.52"/><path class="cls-2" d="m64.91,27.14s2.07-1.4,4.93-1.02"/><path class="cls-2" d="m81.86,27.65s2.03,1.07,2.8,3.02"/></svg>