<?xml version="1.0" encoding="UTF-8"?>
<svg id="Calque_1" data-name="Calque 1" xmlns="http://www.w3.org/2000/svg" viewBox="0 0 128 128">
  <defs>
    <style>
      .cls-1 {
        fill: #d6d6d6;
      }

      .cls-1, .cls-2, .cls-3, .cls-4 {
        stroke: #000;
      }

      .cls-1, .cls-2, .cls-3, .cls-4, .cls-5 {
        stroke-linecap: round;
        stroke-linejoin: round;
      }

      .cls-2 {
        fill: #87ccf3;
      }

      .cls-3 {
        fill: #fff;
      }

      .cls-4, .cls-5 {
        fill: none;
      }

      .cls-5 {
        stroke: #fff;
        stroke-width: 8px;
      }
    </style>
  </defs>
  <path class="cls-1" d="m85.63,48.82c-.09.83-1.25,3.79-1.25,3.79h0c-.02-.08-.05-.16-.09-.24-.44-.96-3.39-1.86-5.04-1.92,0,0-.04,0-.1.04,0-.69.5-.88.5-.88l-2.33-6.34-.76,7.23c-.14-.58-.31-1.15-.54-1.67-.6-1.41-1.84-6.36-2.17-7.49-.33-1.12-.29-2.13-1.17-2.18-.87-.04-3.39.51-5.77.59-2.38.09-4.72-.08-6.16-.43-1.44-.35-2.05-.04-2.07.43-.03.48-.63,3.23-1.16,4.34-.54,1.1-1.76,5.09-2.2,6.22l-.33-4.64-1.8,8.36c-.18-.09-.36-.17-.53-.23,0,0-.02-.02-.03-.02-.31-.19-.67-.34-1-.45-.67-.22-2.56-.55-3.56-.49-.08,0-.16,0-.22,0-.2,0-.32,0-.32,0,0,0,2-18.59,2.64-20.92.64-2.33.86-2.05,3.17-3.44,2.32-1.39,7.23-2.26,7.23-2.26,0,0,.23-.62.63-.67.39-.04.77.28.77.28l7.19-.25c.97-.74,1.5.44,1.5.44,6,1.75,9.03,3.2,10.06,3.87,1.02.66,1.72,4.08,2.61,7.22.89,3.13,2.39,10.88,2.29,11.71Z"/>
  <path class="cls-2" d="m55.74,27.47s.66,6.05,4.1,11.59l3.45.55s-1.81-2.83-3.27-6.32c-1.45-3.49-2.27-6.48-2.27-6.48l-2,.66Z"/>
  <path class="cls-2" d="m75.78,27.59s-.98,4.62-1.8,7.06c-.53,1.57-1.41,3.18-2.2,4.48l-2.95.44s1.22-1.97,2.67-5.47c1.45-3.49,2.28-7.26,2.28-7.26l2,.75Z"/>
  <path class="cls-1" d="m52.72,55.69c.09.46.18,1.11-.54,1-.09-.02-.19-.03-.28-.06-.65-.14-1.41-.4-2.1-.52-.7-.13-1.57-.21-2.09-.25-.21-.02-.36-.03-.42-.03-.2,0-.49-.29-.29-.7.2-.42.46-.92.36-1.26-.1-.34-.22-.94.49-1.02.07,0,.15-.02.22,0,1-.06,2.89.26,3.56.49.32.11.68.26,1,.45.01,0,.02,0,.03.02.39.23.68.5.67.74-.03.43-.7.69-.61,1.16Z"/>
  <path class="cls-4" d="m53.16,70.86c-.34-.59-.6-.26-1.26.15-.2.13-.93.6-1.86,1.21,0-.43-.19-.89-.29-1.21-.04-.14-.04-.32-.03-.53.87-.54,1.46-.9,1.51-.92.29-.13,1.32.25,1.7.45.47.23.23.85.23.85Z"/>
  <path class="cls-1" d="m36.88,94.99c-.21-.63-.36-1.87-.49-2.87,0-.11-.03-.23-.05-.39.33,1.9.43,2.81.54,3.26Z"/>
  <path class="cls-1" d="m41.58,76.88c-.09.46-.15.91-.19,1.21-.03.21-.12,1-.21,1.96-.2,1.87-.45,4.4-.46,4.59,0,.03-.02.1-.04.18l-4.61-.34c0-.16,0-.32,0-.48v-.19c.06-1.6.35-2.54.65-3.09,0-.03.03-.07.05-.1.15-.24.28-.4.4-.5.05-.04.09-.07.12-.09.03-.02.06-.03.09-.04h0s4.19-3.11,4.19-3.11Z"/>
  <path class="cls-1" d="m47.95,85.36l.12-.25v.26h-.12Z"/>
  <path class="cls-1" d="m53.66,75.52c0,.28,0,.58,0,.87l-6.41,4.53c-.31-.23-.85-.36-1.82-.5-.68-.09-1.58-.18-2.54-.24.18-.91.34-1.7.46-2.08.38-1.19.3-1.56.88-2,.16-.12.77-.54,1.59-1.08l7.84.51Z"/>
  <path class="cls-1" d="m41.18,80.05c-.2,1.87-.45,4.4-.46,4.59,0,.03-.02.1-.04.18l-4.61-.34h-.02s.01-.19.03-.48v-.04c.06-.79.22-2.32.65-3.24,0-.03.03-.07.05-.1.11-.22.25-.39.4-.5.05-.04.09-.07.12-.09.03-.02.06-.03.09-.04h0c.24-.08,1.92-.04,3.79.06Z"/>
  <path class="cls-1" d="m48.07,85.1h0s-.12.26-.12.26l-2-.15-3.8-.28c-.02-.11-.04-.19-.04-.2,0-.14.39-2.61.77-4.56.96.07,1.85.16,2.54.24.98.14,1.51.26,1.82.5.47.33.44.87.62,1.9.18,1,.2,1.87.2,2.28Z"/>
  <path class="cls-1" d="m48.07,85.11v.26h-.12s.12-.26.12-.26Z"/>
  <path class="cls-4" d="m49.75,71.01c.11.32.28.78.29,1.21,0,.11,0,.21-.04.32-.13.51.12,1.38-.44,1.45-.35.05-.72-.35-.96-.83-.15-.28-.24-.6-.24-.85,0-.39-.07-.72-.11-.93-.03-.16-.06-.24-.06-.24l-1.69.75.08.51-1.33.82s-.53-.53-.81-1.27c-.27-.74-.02-1.28.41-1.96.44-.69,1.5-2.64,1.63-2.89.13-.24,1.18-10.8,1.23-11.25.52.04,1.39.13,2.09.25.68.12,1.44.38,2.1.52,0,0-2.5,10.46-2.57,10.75s.26,1.29.41,1.8c.1.35,0,.87-.03,1.31-.01.2-.01.39.03.53Z"/>
  <path class="cls-1" d="m48.61,73.16c-.98.63-1.98,1.31-2.79,1.84-.82.55-1.43.97-1.59,1.08-.58.44-.5.81-.88,2-.12.38-.28,1.17-.46,2.08-.38,1.94-.77,4.42-.77,4.56,0,.02.02.1.04.2.09.49.28,1.68.11,2.44-.21.94-1.48,1.08-1.92.31-.38-.68.2-2.3.34-2.87.02-.08.04-.15.04-.18,0-.19.26-2.71.46-4.59.1-.96.19-1.75.21-1.96.04-.3.1-.75.19-1.21.12-.62.28-1.26.53-1.52.26-.27,3.58-2.37,6.15-3.97.04.2.1.54.11.93,0,.25.1.57.24.85Z"/>
  <path class="cls-1" d="m48.07,85.37l-.18,1.1h0c-.11.71-.28,1.87-.58,3.77-.66,4.28-1.38,5.45-1.54,5.69,0,0-.02.02-.03.03h0s-.03.02-.05.02c-.07,0-4.17-.08-6.1-.28-.11,0-.21-.02-.32-.03-.58-.07-1.06-.13-1.41-.17-.47-.08-.79-.17-.88-.24,0,0,0,0,0-.02,0-.02-.02-.05-.03-.08-.02-.05-.04-.11-.06-.17-.11-.45-.2-1.36-.54-3.26v-.05c-.15-1.38-.35-4.36-.27-7.21l4.61.34c-.15.57-.72,2.19-.34,2.87.44.77,1.71.62,1.92-.31.18-.76-.02-1.95-.11-2.44l3.8.28,2,.15h.12Z"/>
  <path class="cls-1" d="m36.34,91.68c-.62-3.51-.29-7.21-.29-7.21h.02c-.08,2.85.13,5.83.27,7.21Z"/>
  <path class="cls-1" d="m37.85,95.5c-.25-.03-.42-.05-.5-.06-.19-.02-.3-.05-.38-.19.09.08.41.17.88.24Z"/>
  <path class="cls-1" d="m47.95,85.36l.12-.25v.26h-.12Z"/>
  <path class="cls-1" d="m53.66,76.38c0,1.34,0,2.74,0,4.19l-.94.76c-.21-.28-.58-.23-.58-.23l-1.17.81c.31.18.44.3.46.47l-3.36,2.72c0-.41-.02-1.28-.2-2.28-.19-1.03-.16-1.57-.62-1.9l6.41-4.53Z"/>
  <path class="cls-1" d="m53.71,90.81l-7.93,5.11s-.19.08-.09.05c.02,0,.05,0,.06-.02s.02-.02.03-.03c.17-.23.88-1.4,1.54-5.69.29-1.89.47-3.05.58-3.76h0l.18-1.11v-.26h0s3.36-2.73,3.36-2.73c0,.02,0,.05,0,.08,0,.15-.08,1.27-.05,2.02,0,.32.03.58.09.66.2.3,1.09-.31,1.2-.47.05-.07.11-.51.16-1.03l.83-.48c0,1.14,0,2.28,0,3.4h0c0,1.46.03,2.89.04,4.25Z"/>
  <path class="cls-1" d="m47.95,85.36l.12-.25v.26h-.12Z"/>
  <path class="cls-1" d="m52.83,83.63c-.05.53-.11.97-.16,1.03-.11.16-1,.77-1.2.47-.06-.09-.09-.34-.09-.66-.03-.75.05-1.87.05-2.02,0-.03,0-.06,0-.08-.02-.17-.15-.29-.46-.47l1.17-.81s.36-.05.58.23c.09.1.15.24.17.45.04.43.01,1.22-.05,1.85Z"/>
  <path class="cls-1" d="m84.16,53.4c-.21.12-.58.46-.59,1.13,0,.55-.28.6-.83.34-.12-.05-.25-.12-.41-.2-.61-.35-2.21-.85-3.19-1.13-.3-.09-.56-.17-.68-.2-.56-.18.23-1.34.28-1.41.05-.08.05-.34.11-.86.03-.34.2-.51.3-.57h0c.06-.04.1-.05.1-.05,1.66.06,4.61.97,5.04,1.92.04.09.07.17.09.23.14.44-.02.69-.21.8Z"/>
  <path class="cls-4" d="m82.73,54.87c-.51,1.09-1.54,3.39-2.01,5-.45,1.52-1.56,3.03-2.18,3.8-.26.33-.44.52-.44.52-1.77-.85-1.56-4.66-1.56-4.66,0,0,.4-.52.76-.97h0c.26-.32.51-.6.58-.63.19-.11,1.23-4.29,1.23-4.29l.02-.09c.98.28,2.58.78,3.19,1.13.16.09.29.16.41.2Z"/>
  <path class="cls-2" d="m77.01,57.12s-.02.03-.03.04c-.46.65-3.89,2.84-7.87,3.15-4.08.33-7.41.05-10.76-.97-1.48-.45-2.4-.67-2.94-.94-.67-.34-.76-.72-.64-1.68.21-1.71.31-5.79.57-6.42.44-1.13,1.66-5.12,2.2-6.22.53-1.11,1.13-3.86,1.16-4.34.02-.47.62-.78,2.07-.43,1.43.35,3.78.52,6.16.43,2.38-.08,4.9-.62,5.77-.59.88.05.84,1.05,1.17,2.18.32,1.13,1.56,6.08,2.17,7.49.22.52.4,1.09.54,1.67.24,1,.38,1.99.46,2.75.13,1.21.34,3.27,0,3.87Z"/>
  <path class="cls-2" d="m77.74,94.97c.03,1.12.55,20.23.55,21.4,0,1.17-.1,1.42-1.2,1.8-1.1.38-6.6.37-6.6.37-1.04-5.72-1.29-12.43-1.43-17.19-.15-4.75-1.31-16.17-1.42-19.59-.1-3-1.23-9.98-1.51-11.68h0c-.04-.25-.06-.38-.06-.38,0,0-.01.04-.02.13-.22,1.65-2.69,19.35-3.01,21.62-.34,2.39-.23,3.74-.27,5.33-.04,1.6-.04,21.22-.04,21.22,0,0-.61.71-3.32.7-2.69,0-4.31-.14-4.51-.56-.84-1.81-.71-14.42-.92-16.74-.13-1.42-.2-5.58-.26-10.59,0-1.37-.03-2.79-.04-4.24h0c0-1.13,0-2.27,0-3.41,0-.87,0-1.73,0-2.59,0-1.44,0-2.85,0-4.19,0-.29,0-.59,0-.87,0-3.88.05-7.07.12-8.55.22-5.05,1.53-8.56,1.53-8.56h.1c.54.25,1.45.48,2.94.93,3.35,1.01,6.68,1.3,10.76.97,3.98-.31,7.41-2.5,7.87-3.15l.33,1.39h0c-.36.46-.76.98-.76.98,0,0-.21,3.81,1.56,4.66,0,0,.18-.19.44-.52l.02.09s-.02,1.56.11,3.32c.12,1.76-.5,11.24-.63,13.86-.14,2.61-.34,12.91-.3,14.04Z"/>
  <path class="cls-4" d="m64.97,67.58s.69.75,1.35,3.21"/>
  <path class="cls-1" d="m58.64,125.21l-9.13.12c-.67,0-1.23-.53-1.25-1.2h0c-.01-.47.24-.9.65-1.12l7.77-4.16c.18-.1.38-.15.58-.15h3.97c.58,0,1.08.4,1.2.96l.76,3.41c.02.08.03.16.03.24l.02.59c.02.69-.53,1.26-1.22,1.26l-1.57.02-1.81.02Z"/>
  <path class="cls-1" d="m74.82,125.21l9.13.12c.67,0,1.23-.53,1.25-1.2h0c.01-.47-.24-.9-.65-1.12l-7.77-4.16c-.18-.1-.38-.15-.58-.15h-3.97c-.58,0-1.08.4-1.2.96l-.76,3.41c-.02.08-.03.16-.03.24l-.02.59c-.02.69.53,1.26,1.22,1.26l1.57.02,1.81.02Z"/>
  <polygon class="cls-3" points="68.45 26.89 65.77 29.28 62.74 26.89 63.64 24.6 68.09 24.6 68.45 26.89"/>
  <path class="cls-4" d="m65.08,7.18s0,1.11-.4,1.86h-.01"/>
  <path class="cls-4" d="m62.93,9.51c-.88-.51-1.47-1.79-1.47-1.79"/>
  <path class="cls-4" d="m59.97,19.37h-.01c-.1-.02-.82-.21-1.24-1.34-.46-1.23-.98-1.08-1.03-2.35-.03-1.2,1.21-.68,1.34-.61"/>
  <path class="cls-4" d="m70.3,8.76s-.86.51-1.81.68"/>
  <path class="cls-3" d="m61.12,10.05c.55.03,1.18-.1,1.81-.54.26.16.54.24.84.21.42-.04.7-.33.9-.67.01,0,.02.02.03.02.12.11.88.78,1.82-.13.49.59,1.26.65,1.98.51.43.33,1.01.29,1.01.29.03.05.08.1.1.15,1.75,2.48,1.93,4.16,1.94,4.34.11-.44.19-.86.25-1.26-.09.74-.23,1.28-.27,1.39h0s0,.03,0,.03h0c.02.7.03,2.52-.25,4.4-.24,1.56-.71,3.17-1.57,4.21-1.98,2.41-3.27,2.46-3.46,2.45-.2.05-1.55.25-3.89-1.84-1.01-.89-1.72-2.41-2.2-3.91-.57-1.81-1.18-4.14-.91-5.31.19-1.46,1.52-3.87,1.68-4.28l.19-.04Z"/>
  <path class="cls-3" d="m58.53,13.06c-.43-1.94-.36-4.43,2.87-5.74,0,0,.2-1.06,1.56-.9,0,0,1.58-1.73,3.49-.31,1.32-.37,1.68.65,1.68.65,3.65.86,3.88,4.15,3.67,6.11,0,.04-.01.07-.01.1"/>
  <path class="cls-4" d="m69.64,10.09s1.88,2.73,1.88,4.3"/>
  <path class="cls-4" d="m71.52,14.39v-.02"/>
  <path class="cls-4" d="m71.51,14.09s0,.1.01.27"/>
  <path class="cls-4" d="m71.26,19.51h.01c.1-.04.78-.33,1.02-1.52.26-1.28.8-1.22.66-2.48-.15-1.19-1.3-.48-1.42-.39"/>
  <path class="cls-4" d="m67.29,7.85c-.24.44-.47.77-.7,1-.03.03-.05.06-.07.08"/>
  <path class="cls-4" d="m64.7,9.06l-.02-.02"/>
  <path class="cls-3" d="m65.96,14.23s.42,3.77,1.24,5.67c0,0-.16.39-1.39.15"/>
  <ellipse class="cls-3" cx="63.43" cy="16.04" rx=".13" ry=".38" transform="translate(-1.05 4.94) rotate(-4.42)"/>
  <ellipse class="cls-3" cx="68.63" cy="15.54" rx=".13" ry=".38" transform="translate(-.99 5.34) rotate(-4.42)"/>
  <path class="cls-2" d="m73.43,13.82c-.16.11-1.07-.25-2.38-.69-1.56-.51-3.68-1.12-5.73-1.12-2.35,0-4.77.73-6.35,1.19-.97.29-1.62.5-1.76.39-.37-.29-.73-2.24.84-5.5,1.58-3.27,4.76-4.06,7.08-4.06s4.78.39,6.84,2.96c2.06,2.56,1.8,6.59,1.45,6.83Z"/>
  <rect class="cls-2" x="63.71" y="3.61" width="3.09" height="6.04" rx=".5" ry=".5"/>
  <path class="cls-2" d="m71.05,13.09c-.48.51-1.88,1.51-5.49,1.51-4.82,0-6.59-1.43-6.59-1.43,1.58-.5,4-1.27,6.35-1.27,2.05,0,4.17.64,5.73,1.19Z"/>
  <path class="cls-4" d="m60.8,26.22s-.16,1.18.39,2.73.95,4.1,1.47,3.71.63-1.73.97-2.43c.38-.78,1.56-1.3,2.23-.92,0,0-.02-.32-1.82-1.01-1.79-.69-2.23-2.01-2.42-2.38"/>
  <path class="cls-4" d="m70.28,26s.03,5.5-.47,6.38c-.5.88-1.65-1.51-2.12-2.06-.46-.55-.9-.93-1.73-1.12,0,0,3.36-1.65,3.56-3.51"/>
  <rect class="cls-5" x="-841.6" y="-214.82" width="2244.45" height="5948.74"/>
</svg>