<?xml version="1.0" encoding="UTF-8"?>
<svg id="Calque_1" data-name="Calque 1" xmlns="http://www.w3.org/2000/svg" viewBox="0 0 200.13 128">
  <defs>
    <style>
      .cls-1 {
        fill: #d6d6d6;
      }

      .cls-1, .cls-2, .cls-3, .cls-4 {
        stroke: #000;
        stroke-width: 2px;
      }

      .cls-1, .cls-2, .cls-3, .cls-4, .cls-5 {
        stroke-linecap: round;
        stroke-linejoin: round;
      }

      .cls-2 {
        fill: #bfe6fc;
      }

      .cls-3 {
        fill: #fff;
      }

      .cls-4, .cls-5 {
        fill: none;
      }

      .cls-5 {
        stroke: #fff;
        stroke-width: 8px;
      }
    </style>
  </defs>
  <g id="jkvMcz">
    <path class="cls-1" d="m84.62,59.24c2.46,1.75,5.55,2.92,9.15,1.94,1.56-.43,2.68-1.58,3.83-2.63.67-.62,1.38-.94,2.31-.87,2.84.2,5.69.36,8.54.5,2.53.12,5.06.1,7.58-.22.46-.06.93-.17,1.38-.32.93-.3,1.22-.71,1.22-1.58,0-.89-.3-1.28-1.22-1.58-.74-.25-1.51-.32-2.28-.38-4.47-.32-8.91.21-13.35.56-.73.06-1.46.09-2.18.17-.74.08-1.32-.21-1.87-.67-.75-.64-1.5-1.28-2.31-1.84-2.01-1.39-4.21-1.41-6.48-.81-1.78.48-3.45,1.17-4.78,2.51-1.55,1.57-1.52,3.29.47,5.22Z"/>
  </g>
  <circle class="cls-3" cx="100.83" cy="96.07" r="28.29"/>
  <circle class="cls-3" cx="100.83" cy="96.07" r="23.09"/>
  <g>
    <path class="cls-1" d="m60.63,70.8s-.05.1-.06.16c-.06.9-.13,1.79-.2,2.69-.07.95-.15,1.9-.22,2.84-.06.8-.11,1.6-.17,2.4-.07.95-.15,1.9-.22,2.84-.05.64-.07,1.29-.14,1.94-.07.7.07,1.37.34,2,.31.72.78,1.32,1.41,1.77.76.54,1.27,1.24,1.46,2.16.1.5.08,1.01.05,1.51-.03.58-.02,1.15-.05,1.73-.04.74-.03,1.48-.06,2.21-.05,1.4-.09,2.79-.12,4.19-.02.88-.05,1.76-.08,2.64-.04,1.38-.08,2.77-.12,4.15-.02.89-.05,1.77-.08,2.66-.04,1.38-.08,2.76-.12,4.13-.02.91-.06,1.81-.08,2.72-.03,1.21-.09,2.42-.1,3.63-.02,1.23.93,2.26,2.13,2.36,1.21.1,2.31-.75,2.49-1.97.09-.58.02-1.18,0-1.77-.01-.47-.04-.93-.06-1.4-.03-1.15-.06-2.29-.09-3.44-.05-1.67-.1-3.34-.15-5.01-.04-1.22-.08-2.44-.12-3.67-.04-1.28-.08-2.56-.12-3.84-.04-1.27-.08-2.54-.12-3.8-.04-1.25-.07-2.51-.12-3.76-.03-.86-.08-1.72-.07-2.58,0-1.12.46-2.03,1.37-2.69,1-.72,1.67-1.65,1.91-2.87.12-.59.04-1.19,0-1.78-.03-.48-.07-.95-.1-1.43-.06-.87-.12-1.74-.19-2.61-.04-.64-.08-1.28-.13-1.92-.06-.88-.12-1.75-.18-2.63-.04-.63-.08-1.26-.13-1.9-.03-.46-.07-.92-.09-1.37-.01-.26-.14-.41-.38-.49-.39-.13-7.19,0-7.34.19Z"/>
    <g>
      <line class="cls-1" x1="65.83" y1="71.02" x2="65.83" y2="81.49"/>
      <line class="cls-1" x1="63" y1="71.02" x2="63" y2="81.49"/>
    </g>
  </g>
  <path class="cls-1" d="m139.62,78.77c0,2.29,0,4.57,0,6.86,0,1.06,0,2.12.02,3.18.04,1.57.1,3.14.14,4.71.03,1.13.06,2.26.09,3.39.02.84.05,1.68.07,2.52.03.95.05,1.9.08,2.85.03.85.06,1.69.07,2.54.03,1.39.08,2.77.12,4.16.03.88.04,1.76.08,2.64.05,1.39.08,2.77.12,4.16.02.81.06,1.62.07,2.42,0,.33.03.67.03,1,.01,1.36-1.06,2.41-2.42,2.37-1.11-.03-2.12-.98-2.19-2.08-.05-.78.03-1.56.04-2.35.03-1.37.08-2.75.12-4.12.02-.78.05-1.55.07-2.33.05-1.71.11-3.41.16-5.12.03-.81.05-1.62.08-2.42.04-1.26.07-2.53.12-3.79.02-.51,0-1.03.06-1.54.02-.16-.03-.23-.21-.22-.44.01-.89,0-1.33,0-.18,0-.23-.06-.23-.23.05-1.26.07-2.51.14-3.77.03-.56.05-1.12.08-1.67.05-.94.11-1.87.19-2.8.07-.83.13-1.66.21-2.49.09-.94.2-1.89.31-2.83.13-1.04.28-2.08.45-3.12.4-2.34.88-4.67,1.66-6.92.29-.83.61-1.64,1.03-2.4.04-.07.08-.15.13-.21.09-.12.22-.15.36-.11.14.04.23.14.23.3.04.97.02,1.94.02,2.91,0,.55,0,1.09,0,1.64,0,.96,0,1.93,0,2.89Z"/>
  <path class="cls-2" d="m110.78,17.2l-1.02,13.54-.7,9.28c-.07.95-.86,1.69-1.82,1.69h-12.81c-.95,0-1.75-.73-1.82-1.69l-.7-9.28-1.02-13.54h19.9Z"/>
  <line class="cls-3" x1="90.25" y1="8.83" x2="90.88" y2="17.2"/>
  <line class="cls-4" x1="111.41" y1="8.83" x2="110.78" y2="17.2"/>
  <path class="cls-3" d="m90.25,8.83h-.85c-.52,0-.94-.68-.94-1.53v-.39c0-.85.42-1.53.94-1.53h22.86c.52,0,.94.68.94,1.53v.39c0,.85-.42,1.53-.94,1.53h-22.01Z"/>
  <polygon class="cls-4" points="91.91 30.75 91.9 30.75 90.88 17.2 91.91 30.75"/>
  <rect class="cls-5" x="-4986.2" y="-200.44" width="6562.35" height="1176.7"/>
</svg>