<?xml version="1.0" encoding="UTF-8"?><svg xmlns="http://www.w3.org/2000/svg" viewBox="0 0 128 128.13"><defs><style>.cls-1{fill:#a07637;}.cls-1,.cls-2,.cls-3,.cls-4,.cls-5,.cls-6,.cls-7{stroke-linecap:round;stroke-linejoin:round;}.cls-1,.cls-2,.cls-4,.cls-5,.cls-6,.cls-7{stroke:#000;}.cls-1,.cls-2,.cls-7{stroke-width:2px;}.cls-3{stroke:#e30613;stroke-width:8px;}.cls-3,.cls-7{fill:none;}.cls-8{isolation:isolate;}.cls-4{fill:#fff;}.cls-5,.cls-6{fill:#b2f0e9;}.cls-6{mix-blend-mode:multiply;}</style></defs><g class="cls-8"><g id="Calque_1"><rect class="cls-3" x="-568.22" y="-68.32" width="2655.08" height="1511.77"/><path class="cls-4" d="m46.19,66.19l-1.9-1.9,11.49-11.49,1.9,1.9c.37.37.37.97,0,1.33l-10.15,10.15c-.37.37-.97.37-1.34,0Z"/><path class="cls-4" d="m45.41,65.41l3.99,3.99c.37.37.97.37,1.33,0l10.15-10.15c.37-.37.37-.97,0-1.33l-3.99-3.99-11.49,11.49Z"/><path class="cls-4" d="m51.86,68.28l2.74,2.74c.25.25.66.25.92,0l6.98-6.98c.25-.25.25-.66,0-.92l-2.74-2.74-7.9,7.9Z"/><path class="cls-5" d="m54.77,71.19l8.13,2.85c.38.15.77.15,1.02-.1l1.47-1.47c.25-.25.27-.65.13-1.05l-2.85-8.13-7.9,7.9Z"/><path class="cls-6" d="m35.78,67.2L4.33,35.75c-1.55-1.55-1.54-4.05,0-5.59L21.64,12.85c1.55-1.55,4.05-1.55,5.59,0l31.45,31.45c1.54,1.54,1.54,4.05,0,5.59l-17.3,17.3c-1.55,1.55-4.05,1.55-5.59,0Z"/><rect class="cls-4" x="16.45" y="21.26" width="25.77" height="33.18" transform="translate(-18.17 31.83) rotate(-45)"/><path class="cls-5" d="m35.2,45.12c-1.21-.1-2.32-.31-3.4-.55l-.8-.18-.78-.21c-.53-.13-1.02-.29-1.52-.45-1.01-.31-1.97-.66-2.87-1.07-.9-.41-1.76-.87-2.49-1.46-2.86-2.31-3.3-6.5-.99-9.35,2.31-2.86,6.5-3.3,9.35-.99.36.29.7.64.99.99.59.73,1.04,1.59,1.45,2.49.41.9.77,1.86,1.07,2.87.15.5.32,1,.45,1.52l.21.78.18.8c.24,1.08.45,2.18.55,3.39.06.72-.47,1.35-1.19,1.41-.07,0-.15,0-.22,0Z"/><path class="cls-7" d="m72.35,84.1c0,4.35.84,8.51,2.35,12.32.89,2.24,2.02,4.35,3.35,6.32,1.26,1.88,2.71,3.62,4.31,5.19l42.46-24.06s-18.51-2.88-35.84-13.59c-3.55-2.19-6.76-4.46-9.61-6.66-1.07,1.38-2.04,2.84-2.9,4.38-1.15,2.1-2.08,4.33-2.78,6.66-.88,2.99-1.35,6.16-1.35,9.44Z"/><path class="cls-1" d="m72.35,84.1c0,4.35.84,8.51,2.35,12.32.89,2.24,2.02,4.35,3.35,6.32,5.55-3.19,9.33-9.6,9.33-16.97,0-8.04-4.51-14.93-10.91-17.77-1.15,2.1-2.08,4.33-2.78,6.66-.88,2.99-1.35,6.16-1.35,9.44Z"/><path class="cls-7" d="m65.47,117.51l16.89-9.57,42.46-24.06s-18.51-2.88-35.84-13.59c-3.55-2.19-6.76-4.46-9.61-6.66-11.8-9.17-10.01-17.57-10.01-17.57"/><path class="cls-2" d="m73.23,84.55c0,3,.58,5.86,1.62,8.5,2.47-1.33,4.17-4.12,4.17-7.35,0-3.52-2.03-6.51-4.86-7.66-.61,2.06-.93,4.24-.93,6.51Z"/><path class="cls-7" d="m89.9,70.58c-1.73-1.56-5.43-4.37-7.44-8.97-2.19-5.02-2.7-9.69-2.59-12.06"/><path class="cls-7" d="m100.63,76.26c-1.54-1.27-4.09-3.71-5.98-7.57-2.06-4.21-2.33-8.04-2.33-10.08"/><path class="cls-5" d="m65.78,76.26c-.19-.36-.47,7.23,2.96,5.52,3.78-1.89-2.96-5.64-2.96-5.52Z"/></g></g></svg>