<?xml version="1.0" encoding="UTF-8"?><svg xmlns="http://www.w3.org/2000/svg" viewBox="0 0 200.13 128.13"><defs><style>.cls-1,.cls-2{fill:#fff;}.cls-3{stroke:#e30613;stroke-width:8px;}.cls-3,.cls-2,.cls-4,.cls-5,.cls-6{stroke-linecap:round;stroke-linejoin:round;}.cls-3,.cls-4{fill:none;}.cls-7{fill:#8987f3;}.cls-7,.cls-8,.cls-2,.cls-4,.cls-9,.cls-6{stroke:#000;}.cls-7,.cls-8,.cls-9{stroke-miterlimit:10;}.cls-10{isolation:isolate;}.cls-8{fill:#ff6d75;}.cls-11{fill:#283154;mix-blend-mode:screen;opacity:.5;}.cls-12{fill:#4a3424;mix-blend-mode:difference;opacity:.4;}.cls-9,.cls-13{fill:#a07637;}.cls-5{fill:#baa584;stroke:#1d1d1b;}.cls-6{fill:#f3d587;}</style></defs><g class="cls-10"><g id="Calque_1"><polygon class="cls-2" points="118.07 28.38 123.25 25.75 129.77 26.95 131.52 29.58 131.13 35.39 129.47 42.12 126.69 45 121.31 45.55 116.59 43.26 116.1 37.77 117.08 32.72 118.07 28.38"/><path class="cls-6" d="m132.29,30.46c-.1-1.25-.42-2.5-1.11-3.55-.44-.67-1.04-1.24-1.73-1.62-1.37.02-2.75-.35-4.01-.93-1.39-.64-2.66-1.53-3.9-2.44-2.32,1.04-4.53,2.35-6.56,3.89-.09.15-.18.3-.27.45-2.02,3.54-3.52,7.37-4.44,11.34-.03,5.15-.02,10.29.02,15.44,3.33,1.14,6.93,1.36,10.46,1.42,2.09.03,4.25,0,6.14-.86l.99-.25c1.19-.49,2.36-1.06,3.49-1.68.42-3.85.1-7.78-.97-11.5,1.47-3.06,2.17-6.69,1.89-9.7Zm-5.5,12.18c-1.52.9-4.35.64-5.81-.36-1.81-1.6-2.13-4.28-2.06-6.7.04-1.13.14-2.29.62-3.32.43-.94,1.15-1.71,1.88-2.44,1.32-1.33,2.84-2.64,4.7-2.85,1.35-.15,2.76.34,3.72,1.31.96.97,1.44,2.38,1.27,3.73-.22,1.76-.53,4.84-1.14,6.5-.61,1.66-1.65,3.22-3.17,4.13Z"/><path class="cls-4" d="m124.49,25.91c-1.85.16-3.4,1.41-4.82,2.6-.67.56-1.34,1.13-1.84,1.84-1.05,1.49-1.22,3.4-1.33,5.21-.09,1.44-.15,2.9.17,4.31.22.98.62,1.91,1.02,2.83.39.91.8,1.83,1.45,2.57.66.74,1.62,1.28,2.6,1.17"/><path class="cls-2" d="m142.82,42.75c-1.98-1.02-3.36-.52-4.67,1.2-3.08.71-6.22,1.91-9.31,2.62.34-2.42.67-5.35.87-7.79.18-2.12.61-4.56.02-6.65-.51-1.82-2.04-3.27-4.03-2.98-1.45.21-2.91,1.51-3.07,3.03-.73,6.79-.46,12.65,1.25,19.72,4.95.17,9.59-2.54,13.61-4.59,1.08-.55,1.99.58,2.89-.43.52-.58.76-1.3,1.15-1.97.88-.17,2.78-.15,3.31-1.03-.66-.41-1.33-.79-2.02-1.14Z"/><path class="cls-1" d="m128.97,30.2c-.13-.23-.27-.46-.47-.65-.2-.19-.46-.31-.72-.42-1.14-.47-2.56-.56-3.64.11-.99.62-1.5,1.73-1.81,2.81-.47,1.58-.64,3.22-.52,4.84,2.67.99,5.57,1.36,8.41,1.08.5-2.66.07-5.45-1.24-7.77Z"/><path class="cls-11" d="m128.97,30.2c-.13-.23-.27-.46-.47-.65-.2-.19-.46-.31-.72-.42-1.14-.47-2.56-.56-3.64.11-.99.62-1.5,1.73-1.81,2.81-.47,1.58-.64,3.22-.52,4.84,2.67.99,5.57,1.36,8.41,1.08.5-2.66.07-5.45-1.24-7.77Z"/><path class="cls-4" d="m128.97,30.2c-.13-.23-.27-.46-.47-.65-.2-.19-.46-.31-.72-.42-1.14-.47-2.56-.56-3.64.11-.99.62-1.5,1.73-1.81,2.81-.47,1.58-.64,3.22-.52,4.84,2.67.99,5.57,1.36,8.41,1.08.5-2.66.07-5.45-1.24-7.77Z"/><path class="cls-2" d="m119.24,45.53c.1,2.87.19,5.75.29,8.62"/><path class="cls-2" d="m111.88,47.65c2.31.69,4.77.86,7.15.47"/><path class="cls-2" d="m115.38,28.22c.63.88,1.6,1.52,2.67,1.75"/><path class="cls-4" d="m128.95,10.72s-.13.78-.51,1.24h0"/><path class="cls-4" d="m127.15,12.05c-.55-.47-.82-1.45-.82-1.45"/><path class="cls-4" d="m123.98,18.78h0c-.07-.03-.55-.26-.71-1.11-.17-.92-.56-.89-.44-1.78.12-.84.93-.31,1.02-.24"/><path class="cls-4" d="m132.43,12.54s-.66.24-1.36.23"/><path class="cls-2" d="m125.81,12.18c.38.09.84.09,1.34-.13.17.15.35.24.57.26.3.03.53-.13.71-.35,0,0,.01.02.02.02.07.09.52.66,1.29.16.27.48.81.63,1.33.63.26.29.68.34.68.34.02.04.04.08.05.12.93,1.97.85,3.17.84,3.3.13-.29.23-.58.32-.85-.16.51-.32.86-.35.94h0s0,.02,0,.02h0c-.07.5-.28,1.76-.71,3.04-.36,1.06-.88,2.12-1.61,2.72-1.68,1.41-2.6,1.27-2.73,1.23-.14,0-1.12-.04-2.52-1.82-.6-.76-.92-1.92-1.07-3.04-.18-1.34-.16-2.63-.13-3.13h0c0-.06,0-.11.02-.18,0,.05.02.08.02.08.02-.21.05-.41.09-.61.31-.99,1.54-2.49,1.7-2.76h.14Z"/><path class="cls-4" d="m123.97,14.94c-.06.19-.1.36-.11.53"/><path class="cls-4" d="m123.84,15.65s0,0,0-.02h0c-.03-.11-.16-.65-.2-1.36v-.02c-.07-1.42.28-3.47,2.7-3.94,0,0,.27-.72,1.21-.41,0,0,1.32-.99,2.49.26.97-.08,1.11.68,1.11.68,2.46,1.1,2.23,3.43,1.84,4.77,0,.03-.02.05-.02.07"/><path class="cls-4" d="m131.8,13.38s.99,2.16.8,3.26"/><path class="cls-4" d="m123.85,15.43h0s0,.09-.01.19h0s0,.02,0,.02"/><path class="cls-4" d="m132.61,16.64h0"/><path class="cls-4" d="m132.63,16.43s0,.07-.03.19"/><path class="cls-4" d="m130.42,11.49c-.22.28-.43.47-.61.6-.02.02-.04.04-.06.04"/><path class="cls-4" d="m128.45,11.98v-.02"/><line class="cls-2" x1="121.54" y1="21.92" x2="123.97" y2="18.78"/><line class="cls-2" x1="128.69" y1="23.43" x2="129.45" y2="25.29"/><rect class="cls-3" x="-743.49" y="-1253.45" width="2655.08" height="1511.77"/><rect class="cls-7" x="5.38" y="78.53" width="189.36" height="38.49"/><path class="cls-2" d="m107.67,53.15c-.57-2.12-1.73-4.15-3.52-5.66-.09-.08-.2-.15-.29-.23-1.21-.1-2.44-.07-3.64.04-2.32.22-4.6.73-6.9,1.05-5.37.76-9.35.54-14.78.28-.65,2.49-1.26,5.27.81,7.07.82.72,1.71.94,2.87,1,5.08.52,11.46,2.82,16.78,1.37,2.75,1.26,6.17-1.24,9.15-2-.06-.99-.2-1.96-.46-2.92Z"/><path class="cls-5" d="m27.6,48.34s10.77,30.03,18.31,35.08c13.3,8.89,95.53,11.27,111.85,3.22,6.06-2.99,20.92-36.21,20.92-36.21,0,0-35.72,8.17-75.24,8.17s-75.85-10.26-75.85-10.26Z"/><path class="cls-13" d="m101.18,63.93c-22.63,0-45.24-2.46-67.29-7.34-.34-.07-.56-.41-.48-.75.08-.34.42-.55.75-.48,23.97,5.3,48.61,7.74,73.21,7.25,14.83-.3,40.12-2.14,63.19-5.59.35-.05.67.19.72.53.05.35-.19.67-.53.72-23.12,3.46-48.48,5.3-63.35,5.6-2.07.04-4.15.06-6.22.06Z"/><path class="cls-9" d="m29.34,49.35c-.37-.08-.6-.41-.52-.75.08-.34.45-.55.82-.48,25.97,5.3,52.88,8.51,79.53,8.88,16.4.23,43.22-3.77,68.2-7.22.38-.05.72.19.78.53.05.35-.21.65-.58.72-24.58,4.32-54.48,8.31-70.75,8.03-31.13-.53-53.59-4.83-77.48-9.7Z"/><path class="cls-13" d="m168.98,62.9c-.05-.35-.38-.58-.72-.53-22.23,3.45-46.59,5.29-60.88,5.59-23.71.49-47.44-1.95-70.54-7.25-.34-.08-.68.13-.76.47-.06.28.03.87-.01,1.06-.08.34.13.68.47.76,21.26,4.88,43.04,7.34,64.85,7.34,2,0,3.99-.02,5.99-.06,14.33-.3,38.76-2.14,61.05-5.6.35-.05.58-.38.53-.72-.03-.21.05-.78.01-1.05Z"/><path class="cls-13" d="m166.68,68.24c-.06-.35-.38-.58-.72-.52-21.28,3.45-44.61,5.29-58.29,5.59-22.69.49-45.41-1.95-67.53-7.24-.34-.08-.68.13-.76.47-.07.28.04.87,0,1.06-.08.34.13.68.47.76,20.36,4.87,41.22,7.34,62.11,7.34,1.91,0,3.82-.02,5.74-.06,13.72-.3,37.12-2.14,58.46-5.6.35-.06.58-.38.52-.72-.03-.21.04-.78,0-1.06Z"/><path class="cls-13" d="m164.8,73.59c-.06-.34-.38-.57-.73-.52-20.56,3.45-43.1,5.29-56.32,5.58-21.93.49-43.88-1.95-65.24-7.24-.34-.08-.68.12-.76.46-.07.28.05.87,0,1.06-.08.34.12.68.46.76,19.67,4.88,39.84,7.34,60.03,7.34,1.85,0,3.7-.02,5.55-.06,13.26-.3,35.88-2.14,56.5-5.6.34-.06.58-.38.52-.73-.03-.21.05-.78,0-1.06Z"/><path class="cls-13" d="m160.62,78.93c-.06-.34-.39-.57-.73-.51-19.36,3.45-40.58,5.29-53.02,5.58-20.64.49-41.31-1.95-61.42-7.24-.34-.09-.68.11-.77.45-.07.26.03,1.79,0,1.92-.09.34.11.68.45.77,18.53,4.88,37.53,7.34,56.55,7.34,1.74,0,3.48-.02,5.22-.06,12.49-.3,33.79-2.15,53.21-5.6.35-.06.57-.39.51-.73-.03-.15.05-1.67,0-1.92Z"/><path d="m101.98,63.2c-2.68,0-5.57-.58-7.42-2.19-.83-.73-1.73-1.57-2.52-2.33-3.23,2.34-7.21,3.3-10.71,2.57-1.33-.27-2.59-.78-3.8-1.27-1.51-.61-3.56-1.42-5.09-2.66-.34.18-.7.39-1.07.6-1.75,1-3.73,2.13-5.51,2.13-2.1,0-7,0-10.02-1.6-1.92-1.02-4.47-2.55-5.23-4.37-2.26.8-4.34,1.44-6.53,1.45h-.71c-2.75.03-5.59.05-8.21-1.12-1.57-.7-3.32-2.39-5.19-5.01-.13-.19-.09-.45.1-.59.19-.14.45-.09.59.1,1.76,2.47,3.43,4.1,4.84,4.73,2.45,1.09,5.08,1.07,7.86,1.05h.72c2.18-.02,4.3-.71,6.65-1.55.11-.04.24-.03.34.02.1.06.18.16.21.27.3,1.25,1.97,2.68,4.95,4.26,2.84,1.51,7.59,1.5,9.62,1.5,1.56,0,3.43-1.07,5.09-2.02.48-.27.93-.53,1.35-.75.15-.08.34-.06.47.05,1.45,1.25,3.55,2.09,5.08,2.7,1.18.48,2.41.96,3.66,1.23,3.38.7,7.23-.28,10.32-2.63.16-.13.39-.11.55.03.85.81,1.84,1.75,2.75,2.55,3.35,2.93,10.79,2.09,12.54.86l.34-.24c1.23-.86,2.38-1.67,3.25-2.85.11-.15.32-.21.5-.14.18.07.29.25.26.45-.07.52,1.26,2.05,2.05,2.61,2.44,1.74,6.88.48,8.55,0,.22-.06.4-.11.52-.14,1.32-.32,2.52-1.59,3.58-2.7.29-.31.58-.61.86-.89.15-.14.38-.16.54-.04,3.3,2.41,6.94,3.53,10.24,3.16,3.64-.42,7.09-2.25,9.48-5.02.12-.14.31-.19.48-.11.61.25,1.16.63,1.7.99.47.32.91.62,1.37.83.67.32,1.46.49,2.48.56,4.04.27,7.99-1.61,9.83-4.68.08-.13.21-.2.36-.2h0c.14,0,.28.08.36.2l.45.73c.88,1.42,3.22,1.64,5.08,1.12,1.15-.32,2.15-1.06,3.11-1.78l3.56-2.63c.19-.14.45-.1.59.09.14.19.1.45-.09.59l-3.56,2.63c-.98.72-2.09,1.55-3.39,1.91-2.1.59-4.88.38-6.02-1.48l-.1-.16c-2.12,3-6.15,4.8-10.24,4.52-1.13-.08-2.01-.28-2.78-.64-.52-.24-1.01-.58-1.48-.9-.43-.3-.85-.58-1.28-.79-2.52,2.8-6.07,4.64-9.81,5.07-3.42.39-7.14-.71-10.54-3.1-.19.2-.39.41-.6.62-1.14,1.2-2.43,2.56-3.99,2.94-.12.03-.28.08-.49.14-1.78.51-6.5,1.85-9.27-.13-.4-.28-1.64-1.42-2.16-2.46-.85.95-1.86,1.66-2.92,2.4l-.34.24c-.98.69-3.47,1.28-6.17,1.28Z"/><path class="cls-8" d="m32.08,48.42c-9.26,0-16.78,7.51-16.78,16.78s7.51,16.78,16.78,16.78,16.78-7.51,16.78-16.78-7.51-16.78-16.78-16.78Zm0,27.06c-5.68,0-10.28-4.6-10.28-10.28s4.6-10.28,10.28-10.28,10.28,4.6,10.28,10.28-4.6,10.28-10.28,10.28Z"/><path class="cls-9" d="m32.08,57.24c-.54,0-.99-.44-.99-.98v-9.38c0-.54.44-.99.99-.99s.99.44.99.99v9.38c0,.54-.44.98-.99.98Z"/><path class="cls-9" d="m114.42,53.12c.58-.58.58-1.51,0-2.08-.58-.57-1.51-.57-2.08,0l-42.53,42.53c-.22.22-5.05-.13-5.05-.13-.24-.05-.48.03-.65.2l-9.9,9.9c-.28.28-.28.74,0,1.03l6.69,6.69c.28.28.74.28,1.03,0l9.9-9.9c.17-.17.25-.42.2-.65,0,0-.35-4.84-.13-5.05l42.53-42.53Z"/><path class="cls-2" d="m100.89,14.81c.33-1.53.27-3.13-.16-4.63-.02-.03-.04-.05-.06-.08-.67-.77-1.44-1.46-2.35-1.92-.91-.46-1.96-.69-2.96-.51-1.01.18-1.91.75-2.62,1.49-.32.33-.6.69-.85,1.07-.64,2.53-.55,5.23.22,7.72-.08.31-.16.61-.24.92-.14.54-.29,1.11-.66,1.54l6.3,1.03c.09-.41.21-.81.33-1.21.22.03.44-.03.63-.14.23-.14.41-.34.59-.55.25-.28.49-.56.74-.83.26-.29.52-.59.65-.96.14-.41.09-.86.07-1.29,0-.09-.01-.19.02-.28.05-.13.17-.21.26-.32.21-.26.17-.64.11-.97,0-.03,0-.05-.01-.08Z"/><path class="cls-1" d="m94.1,16.5c.93.08,1.75.6,2.52,1.11.28-.68.8-1.27,1.47-1.59l1.12-1.11c.51-.69.74-1.52.96-2.35.05-1.04-.07-2.09-.35-3.09-.02-.03-.04-.05-.06-.08-.67-.77-1.44-1.46-2.35-1.92-.91-.46-1.96-.69-2.96-.51-1.01.18-1.91.75-2.62,1.49-.32.33-.6.69-.85,1.07-.64,2.53-.55,5.23.22,7.72l-.02.06c.38-.3.87-.48,1.35-.61.51-.14,1.05-.24,1.58-.19Z"/><path class="cls-12" d="m94.1,16.5c.93.08,1.75.6,2.52,1.11.28-.68.8-1.27,1.47-1.59l1.12-1.11c.51-.69.74-1.52.96-2.35.05-1.04-.07-2.09-.35-3.09-.02-.03-.04-.05-.06-.08-.67-.77-1.44-1.46-2.35-1.92-.91-.46-1.96-.69-2.96-.51-1.01.18-1.91.75-2.62,1.49-.32.33-.6.69-.85,1.07-.64,2.53-.55,5.23.22,7.72l-.02.06c.38-.3.87-.48,1.35-.61.51-.14,1.05-.24,1.58-.19Z"/><path class="cls-4" d="m94.1,16.5c.93.08,1.75.6,2.52,1.11.28-.68.8-1.27,1.47-1.59l1.12-1.11c.51-.69.74-1.52.96-2.35.05-1.04-.07-2.09-.35-3.09-.02-.03-.04-.05-.06-.08-.67-.77-1.44-1.46-2.35-1.92-.91-.46-1.96-.69-2.96-.51-1.01.18-1.91.75-2.62,1.49-.32.33-.6.69-.85,1.07-.64,2.53-.55,5.23.22,7.72l-.02.06c.38-.3.87-.48,1.35-.61.51-.14,1.05-.24,1.58-.19Z"/><path class="cls-2" d="m98.57,16.17c-.02-.18-.07-.35-.13-.51-.08-.19-.22-.39-.42-.38-.14,0-.25.12-.33.24-.2.29-.29.64-.37.99-.05.23-.09.45-.13.68-.03.17-.05.36,0,.53.06.17.22.31.4.28.2-.03.31-.25.38-.44"/><path class="cls-2" d="m107.2,33.08c0-1.24.23-2.48,0-3.7-.37-1.81-1.45-3.29-2.38-4.38-.28-.33-.57-.67-.91-.95-.37-.3-.79-.52-1.2-.75-1.36-.73-2.72-1.46-4.08-2.19l-.88-.78c-.52-.1-1-.35-1.49-.56-3.13-1.36-6.88-1.3-9.9.31l-.85.37c-1.08,1.21-3.06,1.26-4.13,2.48-.37.42-.6.94-.82,1.45-.31.71-.62,1.43-.93,2.14-2.46,5.91-4.28,14.5-2.54,23.36,1.64.33,3.34.36,4.99.07l18.15-.48c2.62.72,6.08,5.43,9.47,1.32-.75-3.72-1.92-12.55-2.29-15.34-.1-.79-.21-1.58-.21-2.38Z"/><path class="cls-2" d="m114.88,49.82c-1.18.06-2.36.17-3.53.33-1.07.47-2.13.98-3.16,1.54-.38.51-.87.94-1.44,1.25.11.2.31.33.5.44.6.35,1.31.57,1.99.45.45-.08.85-.31,1.25-.53.62-.35,1.25-.7,1.87-1.05.18-.1.37-.21.57-.27.24-.07.49-.09.74-.1.58-.03,1.17-.06,1.75-.08.51-.02,1.02-.05,1.52-.11-.62-.7-1.31-1.33-2.07-1.87Z"/><line class="cls-2" x1="131.38" y1="51.67" x2="131.38" y2="55.72"/><line class="cls-6" x1="100.24" y1="49.47" x2="97.16" y2="32.64"/></g></g></svg>