<?xml version="1.0" encoding="UTF-8"?>
<svg id="Calque_1" data-name="Calque 1" xmlns="http://www.w3.org/2000/svg" viewBox="0 0 200 128">
  <defs>
    <style>
      .cls-1, .cls-2, .cls-3, .cls-4, .cls-5, .cls-6, .cls-7, .cls-8 {
        stroke: #000;
      }

      .cls-1, .cls-2, .cls-3, .cls-4, .cls-5, .cls-6, .cls-7, .cls-8, .cls-9 {
        stroke-linecap: round;
        stroke-linejoin: round;
      }

      .cls-1, .cls-5 {
        fill: #ff6d75;
      }

      .cls-2, .cls-6 {
        fill: #bfe6fc;
      }

      .cls-3, .cls-8, .cls-9 {
        fill: none;
      }

      .cls-4 {
        fill: #d6d6d6;
      }

      .cls-4, .cls-5, .cls-6, .cls-7, .cls-8 {
        stroke-width: 2px;
      }

      .cls-7 {
        fill: #f3d587;
      }

      .cls-9 {
        stroke: #fff;
        stroke-width: 8px;
      }
    </style>
  </defs>
  <line class="cls-3" x1="15.35" y1="64.74" x2="30.66" y2="64.74"/>
  <line class="cls-3" x1="9.52" y1="70.84" x2="24.82" y2="70.84"/>
  <line class="cls-3" x1="11.88" y1="76.94" x2="27.19" y2="76.94"/>
  <path class="cls-4" d="m182.64,86.87c0,12.6-10.22,22.82-22.82,22.82s-22.82-10.22-22.82-22.82c0-.97.07-1.92.19-2.86.23-.21.47-.45.69-.7.23-.25.44-.51.64-.76.09-.13.18-.26.27-.38.13-.19.25-.38.34-.53.09-.15.15-.27.19-.37.02-.05.04-.09.05-.15,1.81-4.53,4.03-8.4,8.17-11.06,0-.01.01-.02.02-.02.3-.19.61-.38.92-.56h.01c2.53,5.79,5.06,11.59,7.58,17.39l-4.42-10.12c-2.95,2.38-4.84,6.03-4.84,10.12,0,7.18,5.83,13.01,13.01,13.01s13.01-5.83,13.01-13.01-5.82-13.01-13.01-13.01c-1.39,0-2.72.21-3.97.62-.87-2.32-1.74-4.64-2.62-6.96h.01c.08-.02.15-.04.22-.05h.02c.16-.05.32-.09.48-.13.02,0,.03,0,.04,0,1.12-.28,2.27-.54,3.42-.72.03,0,.06,0,.09-.01,1.41-.22,2.84-.3,4.2-.15h.01c.2.02.39.05.58.09.13.02.26.04.38.07.98.19,1.9.53,2.78,1.07.71.44,1.36.99,2,1.54.03.02.06.05.09.07.47.4.94.79,1.45,1.14.3.22.62.39.96.54.01.01.03.01.04.02.8.34,1.68.52,2.58.57h.07c1.16.07,2.36-.06,3.45-.29.11-.02.21-.04.32-.06,3.86,4.09,6.22,9.59,6.22,15.66Z"/>
  <path class="cls-8" d="m172.83,86.87c0,7.18-5.82,13.01-13.01,13.01s-13.01-5.83-13.01-13.01c0-4.09,1.89-7.74,4.84-10.12l4.42,10.12,3.75-1.83-.7-1.86-3.27-8.7c1.25-.41,2.58-.62,3.97-.62,7.19,0,13.01,5.82,13.01,13.01Z"/>
  <path class="cls-6" d="m163.57,86.87c0,2.07-1.68,3.75-3.75,3.75s-3.75-1.68-3.75-3.75l3.75-1.83-.7-1.86c.23-.05.46-.06.7-.06,2.07,0,3.75,1.68,3.75,3.75Z"/>
  <path class="cls-4" d="m93.83,84.43c-.03-.23-.06-.45-.09-.67-.85-.15-1.87-.38-3.01-.64-4.85-1.12-5.13-6.52-10.57-11.02-.33-.28-.78-.62-1.38-1.01-.14-.09-.28-.17-.44-.27-.15-.09-.29-.17-.46-.27l-1.21,4.54c.1.05.21.1.31.16.31.15.62.31.9.5.11.06.21.13.31.19.02,0,.05.03.06.05.09.06.18.11.27.17.16.1.3.21.44.32.1.07.2.15.3.23.15.12.29.24.43.37.15.13.29.27.44.4.15.13.28.27.4.4.13.14.26.28.38.41.26.28.5.58.71.88.15.2.29.41.43.62.17.26.32.51.47.78.12.2.23.41.33.63.09.18.17.37.25.55.04.07.06.16.09.23.06.14.11.27.17.4.06.19.13.39.19.59.06.18.11.36.16.54,0,.03.02.05.02.07.06.21.11.42.15.63.08.39.15.77.18,1.17.02.15.03.28.04.43.04.34.05.68.05,1.02,0,7.19-5.83,13.01-13,13.01s-13.01-5.83-13.01-13.01,5.83-13,13.01-13h.17l1.08-5.05c-.09-.02-.18-.03-.28-.04h-.04c-.1-.02-.2-.03-.3-.04-.65-.07-1.35-.11-2.1-.1-.26,0-.52,0-.8.02-.35,0-.72.04-1.09.07-.16,0-.33.03-.5.05-.22.03-.44.06-.66.08-.19.03-.38.06-.57.08-2.33.37-4.96,1.09-7.92,2.33-2.27.95-3.8,1.34-4.8,1.33-3.13,3.91-5.01,8.86-5.01,14.25,0,12.6,10.21,22.82,22.82,22.82,9.56,0,17.74-5.88,21.13-14.22.51-1.24.91-2.55,1.19-3.89.2-.9.33-1.83.41-2.78.06-.63.09-1.29.09-1.94,0-.83-.05-1.64-.13-2.44Z"/>
  <path class="cls-8" d="m84.09,85.85c0-.15-.02-.28-.04-.43-.04-.4-.1-.78-.18-1.17-.05-.21-.09-.42-.15-.63,0-.03,0-.05-.02-.07-.05-.18-.1-.37-.16-.54-.06-.2-.13-.4-.19-.59-.06-.14-.1-.27-.17-.4-.03-.07-.06-.16-.09-.23-.07-.18-.16-.37-.25-.55-.1-.22-.21-.43-.33-.63-.15-.27-.3-.52-.47-.78-.14-.21-.28-.42-.43-.62-.21-.3-.45-.6-.71-.88-.12-.14-.25-.28-.38-.41-.13-.14-.26-.28-.4-.4-.15-.14-.29-.28-.44-.4-.14-.13-.28-.25-.43-.37-.1-.08-.2-.16-.3-.23-.14-.11-.29-.22-.44-.32-.09-.06-.17-.12-.27-.17-.02-.02-.05-.04-.06-.05-.1-.06-.2-.14-.31-.19-.28-.18-.59-.35-.9-.5-.1-.06-.21-.11-.31-.16l-1.78,6.69-1.08-.4-.49,2.44-.35,1.73c-.15.74-.8,1.23-1.51,1.23-.17,0-.34-.03-.51-.09-.71-.26-1.12-.99-.97-1.73l.33-1.75.56-2.91-.86-.32,1.31-6.11h-.17c-7.19,0-13.01,5.82-13.01,13s5.83,13.01,13.01,13.01,13-5.83,13-13.01c0-.34,0-.68-.05-1.02Z"/>
  <path class="cls-8" d="m84.09,85.85c0-.15-.02-.28-.04-.43-.04-.4-.1-.78-.18-1.17-.05-.21-.09-.42-.15-.63,0-.03,0-.05-.02-.07-.05-.18-.1-.37-.16-.54-.06-.2-.13-.4-.19-.59-.06-.14-.1-.27-.17-.4-.03-.07-.06-.16-.09-.23-.07-.18-.16-.37-.25-.55-.1-.22-.21-.43-.33-.63-.15-.27-.3-.52-.47-.78-.14-.21-.28-.42-.43-.62-.21-.3-.45-.6-.71-.88-.12-.14-.25-.28-.38-.41-.13-.14-.26-.28-.4-.4-.15-.14-.29-.28-.44-.4-.14-.13-.28-.25-.43-.37-.1-.08-.2-.16-.3-.23-.14-.11-.29-.22-.44-.32-.09-.06-.17-.12-.27-.17-.02-.02-.05-.04-.06-.05-.1-.06-.2-.14-.31-.19-.28-.18-.59-.35-.9-.5-.1-.06-.21-.11-.31-.16l-1.78,6.69-1.08-.4-.49,2.44-.35,1.73c-.15.74-.8,1.23-1.51,1.23-.17,0-.34-.03-.51-.09-.71-.26-1.12-.99-.97-1.73l.33-1.75.56-2.91-.86-.32,1.31-6.11h-.17c-7.19,0-13.01,5.82-13.01,13s5.83,13.01,13.01,13.01,13-5.83,13-13.01c0-.34,0-.68-.05-1.02Z"/>
  <path class="cls-6" d="m74.87,86.87c0,2.07-1.67,3.75-3.74,3.75s-3.75-1.68-3.75-3.75c0-1.77,1.23-3.27,2.9-3.66l-.33,1.75c-.15.74.27,1.47.97,1.73.18.06.35.09.51.09.71,0,1.36-.5,1.51-1.23l.35-1.73c.96.68,1.57,1.79,1.57,3.05Z"/>
  <path class="cls-4" d="m108.82,59.4c.22.73.57,1.41,1.04,2.01-.51.13-1.08.27-1.69.4-2.5.55-5.79,1.14-10.03,1.65-.69.08-1.34.15-1.97.2-3.21.29-5.49.22-7.11-.02-1.54-1.74-3.18-3.24-4.93-4.34-5.89-3.69-17.29-5.63-24.95-6.56.08-.36.2-.73.36-1.11,4.98-12.45,13.08-9.09,15.33-8.59,2.26.5,6.46,2.87,15.55,4.73,6.93,1.42,17.5,1.9,22.11,2.05-3.13,3.13-4.61,6.56-3.71,9.59Z"/>
  <path class="cls-6" d="m106.96,90.42l-6.53.51c-.7-.09-1.36-.3-1.91-.66-.04-.03-.09-.07-.14-.11-.12-.1-.23-.21-.34-.32-.11-.11-.22-.23-.31-.34-.15-.19-.3-.38-.44-.58-.04-.04-.06-.09-.08-.13-.35-.58-.61-1.2-.83-1.83,0-.03-.02-.07-.03-.09-.18-.69-.38-1.4-.61-2.11-.01-.04-.03-.08-.04-.13-.17-.58-.34-1.15-.54-1.71-.57-1.52-1.22-3.03-1.95-4.5-.04-.09-.09-.18-.13-.27-.12-.26-.25-.52-.39-.77-.22-.43-.45-.86-.68-1.28-.14-.26-.29-.52-.44-.78-.21-.38-.44-.74-.66-1.11-1.59-2.61-3.53-5.15-5.93-7.04-.59-.48-1.19-.9-1.79-1.26-.26-.15-.52-.3-.79-.44-.23-.12-.48-.23-.76-.33-.08-.04-.18-.07-.27-.1-.2-.07-.41-.15-.63-.21-.13-.05-.27-.08-.4-.12-.27-.08-.56-.16-.85-.23-.67-.17-1.4-.31-2.18-.45-.19-.04-.39-.07-.58-.1-.5-.09-1.02-.17-1.55-.24-.43-.07-.88-.13-1.33-.19-.1-.01-.21-.02-.31-.03-.43-.06-.86-.11-1.3-.16-.28-.03-.55-.05-.83-.08-.28-.04-.56-.07-.84-.08-.56-.06-1.13-.11-1.7-.16-.28-.03-.57-.05-.85-.06-.58-.05-1.15-.1-1.73-.13-.58-.05-1.15-.09-1.72-.11-1.43-.09-2.84-.16-4.19-.21-.26-.02-.51-.03-.77-.04l-.81-.03c-3.06-.11-6.12-.16-9.18-.21-.3-1.65-.61-3.3-.53-4.97.11-2.07.91-3.78,2.36-5.23,0,0,3.21.19,7.74.73,7.66.93,19.06,2.87,24.95,6.57,1.74,1.09,3.39,2.6,4.92,4.33,3.56,4.05,6.18,8.9,8.41,13.78.68,1.48,1.43,3.49,2.36,5.5.01.04.02.07.04.1.58,1.23,1.23,2.45,1.97,3.54,1.6,1.86,4.01,3.65,4.94,3.85.06,0,.11.02.18.02Z"/>
  <path class="cls-5" d="m96.35,86.87c-.24-.69-.42-1.41-.62-2.1.23.71.43,1.42.62,2.1Z"/>
  <path class="cls-5" d="m98.38,90.16c-.23-.15-.44-.35-.62-.58-.18-.21-.33-.43-.47-.66.14.2.28.4.44.58.09.12.2.23.31.34.11.11.22.22.34.32Z"/>
  <path class="cls-5" d="m142.99,60.06c-.73.44-1.49.87-2.28,1.28h0s0,0-.02.02c-2.12,1.08-4.48,2.04-7,2.79-.3.09-.61.17-.91.25h-.03c-4.39,1.23-8.66,1.66-12.35,1.4h0c-.67-.05-1.31-.12-1.94-.22-2.68-.4-4.98-1.2-6.67-2.37-.76-.53-1.4-1.12-1.9-1.79-.47-.61-.82-1.29-1.04-2.01-.9-3.02.58-6.45,3.71-9.59,3.28-3.27,8.36-6.22,14.44-8.04,2.83-.85,5.62-1.37,8.24-1.59.21.13.42.26.63.38l.06.15,4.68,10.72c-.08.08-.16.17-.22.24-.5.54-.77.97-.77.97l3.38,7.44Z"/>
  <path class="cls-5" d="m151.6,50.94c-.08.28-.19.55-.34.83.09-.23.23-.57.34-.83Z"/>
  <path class="cls-5" d="m72.24,63.31c.44.05.87.1,1.31.16l-1.15,5.35h0c-.09-.02-.18-.03-.28-.04h-.04c-.1-.02-.2-.03-.3-.04-.65-.07-1.35-.11-2.1-.1-.26,0-.52,0-.8.02-.35,0-.72.04-1.09.07-.16,0-.33.03-.5.05-.22.03-.44.06-.66.08-.19.03-.38.06-.57.08-2.33.37-4.96,1.09-7.92,2.33-2.27.95-3.8,1.34-4.8,1.33-1.92-.04-1.89-1.58-1.52-3.58.65-3.5,3.56-6.08,6.99-6.63.27,0,.54.02.81.03.26.02.51.03.77.04,1.35.06,2.76.13,4.19.21.57.04,1.14.07,1.72.11.58.04,1.15.08,1.73.13.28.02.57.05.85.06.57.05,1.14.1,1.7.16.28.02.56.05.84.08.28.03.55.06.83.08Z"/>
  <path class="cls-5" d="m77.31,64.03c.78.14,1.51.28,2.18.45l-5.95-1.01c.1,0,.21.02.31.04.45.06.89.12,1.32.18.53.07,1.06.15,1.55.24.19.04.39.06.58.1Z"/>
  <path class="cls-5" d="m95.47,83.95c-.48,0-1.07-.08-1.74-.19-.85-.15-1.87-.38-3.01-.64-4.85-1.12-5.13-6.52-10.57-11.02-.33-.28-.78-.62-1.38-1.01-.14-.09-.28-.17-.44-.27-.15-.09-.29-.17-.46-.27l1.62-6.07c.29.07.58.15.85.23.13.04.27.07.39.12.22.06.43.14.63.21.09.03.18.06.27.1.28.1.53.21.76.33,5.62,2.86,10.5,10.91,13.07,18.48Z"/>
  <path class="cls-5" d="m147.53,70.06c-4.14,2.67-6.35,6.53-8.16,11.07-.02.06-.04.1-.06.15-.04.1-.1.22-.18.37-.09.16-.21.34-.34.53-.09.12-.18.25-.28.38-.2.25-.41.51-.63.76-.23.25-.47.49-.7.7-1.13,1.02-2.22,1.39-2.01-.89.24-2.56.88-5.75,1.33-7.83,0,0,0,0,0,0,.28-1.3.49-2.15.49-2.15,0,0,0-.02.02-.06,0,0,0-.02,0-.03,0-.03.02-.06.03-.09,0-.02,0-.03.02-.05.02-.06.05-.11.06-.17.02-.05.04-.1.06-.17.05-.13.11-.28.18-.46.24-.58.6-1.38,1.08-2.3.05-.07.08-.16.13-.24.05-.08.08-.17.14-.25.12-.22.25-.45.39-.68.11-.19.23-.39.35-.58.07-.12.15-.23.22-.35.14-.2.27-.41.41-.62.4-.59.85-1.19,1.34-1.78.08-.11.17-.22.27-.32.12-.15.25-.29.39-.44.14-.16.28-.31.42-.46.11-.13.23-.25.36-.38.12-.14.25-.25.37-.37.12-.13.25-.25.38-.36.16-.14.31-.28.48-.42h0s3.41,7.49,3.41,7.49h0Z"/>
  <path class="cls-5" d="m181.43,69.25c-.75.48-1.55.88-2.38,1.21-1.27.5-2.61.81-3.96.95-1.69.17-3.53.37-5.09-.42-1.06-.53-1.96-1.32-2.89-2.04-1.64-1.26-3.57-2.42-5.68-2.51-2.35-.11-4.7.18-6.98.74-.28.06-.95.4-1.2.26-.3-.16-.51-1.23-.63-1.54.16-.03.31-.04.47-.05s.3-.02.46-.02h.04c.2,0,.41,0,.62.03-.59-1.52-1.18-3.03-1.77-4.55l-.1-.25-.73-1.86c-.05-.45.15-.8.83-.89,5.18-.7,10.52-.84,15.66.31,4.81,1.08,10.32,3.51,13.47,7.45.85,1.07,1.19,2.33-.13,3.18Z"/>
  <path class="cls-6" d="m144.11,62.56c-.17.14-.32.28-.48.42-.13.11-.26.23-.38.36-.12.12-.25.23-.37.37-.28.26-.54.54-.78.84-.14.15-.27.29-.39.44-.09.1-.18.21-.27.32-.49.6-.94,1.19-1.34,1.78-.15.21-.28.42-.41.62-.07.12-.15.23-.22.35-.12.19-.24.39-.35.58-.14.23-.27.46-.39.68-.06.08-.09.17-.14.25-.05.08-.08.17-.13.24-.49.92-.85,1.72-1.08,2.3-.07.17-.14.33-.18.46-.03.06-.05.12-.06.17-.02.06-.05.12-.06.17,0,.02-.02.03-.02.05-.12.26-.24.51-.35.76-3.85,8.6-7.59,18.99-17.09,22.82-3.48,1.42-7.31,1.63-11.03,1.45-3.7-.17-6.85-.54-9.63-3.23.31.3,2.95-.31,3.36-.36,1.86-.19,3.7-.49,5.56-.65,3.78-.35,7.78-.28,11.22-2.09,1.38-.73,2.56-1.63,3.59-2.65,0,0,.02,0,.02-.02,2.87-2.83,4.6-6.62,6.35-10.33.17-.39.37-.8.57-1.21.18-.39.38-.78.58-1.19.04-.06.07-.14.11-.21.28-.58.57-1.15.88-1.72.26-.51.52-1,.81-1.49.14-.24.27-.48.4-.72,2.25-3.94,4.89-7.58,8.26-10.77,0,0,.02,0,.03-.02.79-.4,1.55-.84,2.28-1.28l.66,1.47.2.44.25.55s0,.04,0,.04Z"/>
  <path class="cls-5" d="m100.43,90.93l-.92.07h-.04l-3.67.28-2.33.17-.04.12c.2-.9.33-1.83.41-2.78.06-.63.09-1.29.09-1.94,0-.83-.05-1.64-.13-2.44-.03-.23-.06-.45-.09-.67.67.11,1.26.18,1.74.19.03.08.06.16.08.24.05.15.1.29.15.44,0,.05.03.08.04.13.19.7.38,1.42.62,2.1,0,.03.02.06.03.09.18.67.46,1.29.83,1.83.02.05.05.09.08.13.14.23.29.45.47.66.18.23.39.43.62.58.05.05.09.08.14.11.55.36,1.2.57,1.91.66Z"/>
  <path class="cls-5" d="m95.74,84.76c.23.71.43,1.42.62,2.1-.24-.69-.42-1.41-.62-2.1Z"/>
  <path class="cls-5" d="m98.38,90.16c-.23-.15-.44-.35-.62-.58-.18-.21-.33-.43-.47-.66.14.2.28.4.44.58.09.12.2.23.31.34.11.11.22.22.34.32Z"/>
  <path class="cls-5" d="m154.14,57.62c-.32.05-1.41.12-1.91.18-.07.02-.14.03-.18.04-.03,0-.06,0-.09.02-.24.05-.47.12-.7.19l-1.57-3.8h0c.05-.05.08-.1.11-.14.33-.42.63-.84.88-1.27.09-.14.17-.28.25-.41.08-.15.16-.3.23-.44,0,0,.02-.05.06-.13,0-.03.03-.06.05-.1.09-.22.23-.56.34-.81.02-.04.03-.08.05-.12.04-.11.06-.18.08-.21l2.37,6.87.05.14Z"/>
  <path class="cls-5" d="m122.45,89.24l-15.49,1.18c-.07,0-.12-.01-.18-.02-.93-.2-3.34-1.99-4.94-3.85-.74-1.09-1.39-2.31-1.97-3.54-.02-.03-.03-.06-.04-.1-.33-.81-.76-1.84-1.25-3.01.58-.71,1.6-1.35,3.33-1.31,1.9.03,5.01.19,7.9.4,1.47.1,2.88.22,4.06.34,1.17.12,2.11.24,2.65.35,2.04.43,5.87.78,6.24,3.12.02.11.02.21.02.32.05,1.66,0,4.17-.33,6.12Z"/>
  <path class="cls-5" d="m108.64,64.73h0c0,.77-.06,1.57-.23,2.37-.78,3.92-3.43,6.83-6.31,7.21h-.03c-.93,0-1.58-.04-1.58-.04-3.44-.69-5.48-5.02-4.55-9.67.06-.33.15-.64.24-.96.63-.06,1.28-.12,1.97-.2,4.24-.51,7.53-1.09,10.03-1.65.29.9.46,1.88.47,2.92Z"/>
  <path class="cls-5" d="m102.07,74.31c-.52.08-1.06.07-1.58-.04,0,0,.65.03,1.58.04Z"/>
  <path class="cls-5" d="m118.44,65.57c-.52.18-1.05.39-1.55.62-.64.28-1.27.58-1.84.92-.75.46-1.42.97-1.94,1.53-2.2,2.4-3.15,4.52-4.54,5.22-.96.48-4.4.5-6.47.45,2.89-.39,5.53-3.29,6.31-7.21.17-.8.24-1.6.23-2.36h0c0-1.05-.17-2.03-.47-2.93.61-.13,1.18-.27,1.69-.4.51.67,1.14,1.26,1.9,1.79,1.69,1.17,3.99,1.98,6.67,2.37Z"/>
  <path class="cls-6" d="m132.8,64.4v7.03c-.51.91-1.05,1.9-1.58,2.9h-16.18v-7.22c.57-.34,1.2-.64,1.84-.92.51-.23,1.03-.43,1.55-.62.62.1,1.27.17,1.94.22h0c3.69.27,7.96-.17,12.35-1.39h.03s.04,0,.04,0Z"/>
  <path class="cls-6" d="m131.22,74.33c-.3.58-.6,1.16-.89,1.72-.14.29-.28.57-.42.84-.2.41-.39.8-.56,1.18-.12.24-.23.48-.33.71-.06.15-.12.28-.18.42-1.46,3.44-3.25,7.18-6.07,9.75-.1.1-.21.2-.32.29.34-1.95.38-4.46.33-6.12,0-.11,0-.21-.02-.32l2.96-2.13v-3.34h-10.67v-3h16.17Z"/>
  <line class="cls-3" x1="115.05" y1="70.84" x2="132.14" y2="70.84"/>
  <line class="cls-3" x1="128.51" y1="73.55" x2="128.51" y2="71.52"/>
  <path class="cls-6" d="m146.27,48.94h-.03s0,0-.02,0h0s-.06,0-.08,0c-.65.1-1.9.32-2.72.58-.11.03-.22.07-.34.12-1.02.41-1.87,1.14-2.47,1.76l-4.68-10.72.1-.05c1.3.72,2.64,1.21,3.8.92.4,1.01,2.26,1.58,4.16,1.39.08.25.18.52.29.84.11.3.24.64.38,1.01h0c.06.17.12.31.17.48.06.16.12.32.18.49h0c.12.32.26.67.39,1.01h0c.28.7.56,1.42.85,2.12v.03Z"/>
  <path class="cls-6" d="m159.82,85.04l-3.75,1.83-4.42-10.12-3.17-7.27-.42-.96h0c.36-.63.97-1.32,1.98-1.86.92-.48,1.84-.7,2.58-.79h0l.61,1.63,2.62,6.98,3.27,8.7.7,1.86Z"/>
  <polygon class="cls-5" points="79.49 64.48 77.87 70.55 76.66 75.09 74.87 81.78 73.79 81.38 70.85 80.3 69.98 79.97 71.3 73.86 72.38 68.82 72.39 68.82 73.54 63.47 79.49 64.48"/>
  <path class="cls-5" d="m73.79,81.38l-.49,2.44-.35,1.73c-.15.74-.8,1.23-1.51,1.23-.17,0-.34-.03-.51-.09-.71-.26-1.12-.99-.97-1.73l.33-1.75.56-2.91,2.94,1.08Z"/>
  <path class="cls-6" d="m122.45,89.24c-.41.37-.83.7-1.29,1-.19.13-.41.24-.6.38-.09.05-.17.11-.25.17-.17.14-.31.3-.46.45,0,0,0,0,0,.01-.26.26-.54.5-1,.61l-1.95.83-2.24.41h-.11s-3.08.34-3.08.34l-1.13.12-1.06.11-6.94.73-.11.02-3.26.34-6.7.71c.52-1.24.91-2.55,1.19-3.89l.04-.12,2.32-.17,3.67-.29h.03l.92-.07,6.53-.51,15.49-1.18Z"/>
  <path class="cls-5" d="m93.45,91.58c-.28,1.34-.67,2.65-1.19,3.89l1.19-3.89Z"/>
  <path class="cls-6" d="m154.2,65.85c-.06,0-.28-.03-.62-.03h-.04c-.14,0-.29,0-.46.02-.15,0-.3.02-.46.04h0c-.74.09-1.66.31-2.58.79-1.01.53-1.62,1.22-1.98,1.85h0c-.39.7-.48,1.3-.5,1.51h0s-.02.02-.04.03l-3.41-7.5-.02-.03-.25-.55-.2-.44-.66-1.47-3.38-7.44s.28-.42.77-.97c.06-.07.14-.16.22-.24.61-.62,1.45-1.35,2.47-1.76.12-.05.23-.09.34-.12.69-.27,1.36-.41,1.94-.5.28-.05.55-.07.78-.08.03,0,.06,0,.08,0h.04s0,0,0,0h.07c.76-.06,1.25,0,1.25,0l1.76,4.47.35.91h0s1.67,4.26,1.67,4.26l.24.62.73,1.86.1.25c.6,1.52,1.19,3.03,1.77,4.55Z"/>
  <path class="cls-5" d="m154.21,65.85h0c-.59-1.52-1.18-3.03-1.77-4.55l1.78,4.55Z"/>
  <path class="cls-5" d="m147.56,70.03h0s0,.07,0,.07l-.02-.05h0s.03-.03.04-.03Z"/>
  <line class="cls-3" x1="109.29" y1="90.25" x2="109.27" y2="93.67"/>
  <path class="cls-6" d="m140.38,41.34c-.38.17-.79.27-1.2.29-1.32.06-2.58-.55-3.69-1.28-1.11-.72-2.15-1.58-3.36-2.1-1.47-.63-3.13-.74-4.7-.46-2.56.44-7.83,4.59-9.42.51-.42-1.07-.2-2.32.41-3.3.6-.98,1.55-1.71,2.58-2.22,2.22-1.11,5.04-1.95,7.53-1.73,4.32.37,10.3,2.21,12.79,6.06.43.66.77,1.44.69,2.22-.1.91-.78,1.64-1.63,2.02Z"/>
  <path class="cls-6" d="m156.49,33.64l-.36.5c-.61-.1-1.24-.04-1.83.2-.63.25-1.42.64-2.23,1.18-.35-1.32-.89-2.11-1.53-2.54.17.11,1.22-2.17,1.3-2.41.33-.95.64-2.49.19-3.44,0-.01-1.55.94-1.75,1.04-.72.36-1.54.56-2.34.51-.98-.05-1.95-.48-2.56-1.24-.62-.76-.83-1.85-.44-2.75,1.05-2.46,5.45-2.84,7.7-2.93,1.24-.05,2.55.21,3.47,1.04.63.58,1.02,1.38,1.29,2.2.86,2.6.81,6.34-.9,8.64Z"/>
  <path class="cls-1" d="m120.26,40.12l-10.39,6.71c-.94.6-2.18.33-2.78-.61l-.68-1.05c-.6-.94-.33-2.18.6-2.78l11.22-7.24.02.04c-.16.3-.28.62-.36.97-.2.86-.16,1.87.55,2.82.54.74,1.16,1.07,1.82,1.15Z"/>
  <path class="cls-1" d="m146.39,28.26l-7.16,3.15c-.42.19-.92,0-1.1-.42l-.73-1.64c-.18-.42,0-.91.43-1.1l6.92-3.05c-.14.57-.06,1.24.46,1.97.37.5.76.85,1.18,1.09Z"/>
  <path class="cls-5" d="m146.26,48.94h0v-.03c-.56-1.42-1.13-2.88-1.59-4.09.45,1.21,1.02,2.69,1.58,4.12t-.02,0h.03s.06,0,.08,0h-.07Z"/>
  <path class="cls-5" d="m148.07,41.47c-.15,3.15,1.71,5.27,3.54,6.48-.64,2.81-1.52,4.49-2.27,5.47l-1.76-4.47s-.49-.06-1.25,0h-.06v-.03c-.29-.71-.58-1.42-.85-2.11h0c-.13-.35-.27-.7-.39-1.02-.06-.17-.13-.33-.19-.49-.06-.17-.12-.31-.17-.47h0c-.14-.38-.27-.72-.38-1.02-.11-.31-.21-.59-.29-.84-1.9.19-3.76-.38-4.16-1.39.2-.05.39-.12.57-.21,1.69-.86,1.89-2.15,1.4-3.41-.28-.7-.76-1.38-1.33-1.98.11-.06,1.94-.89,4.64-2.15,1.54-.72,3.81-1.93,5.44-.85.63.42,1.18,1.21,1.53,2.54-.05.03-.1.06-.16.11-1.86,1.27-3.73,3.25-3.84,5.85Z"/>
  <path class="cls-7" d="m160.54,41.79c.06,4.37-2.48,6.37-4.29,7.1-.06.03-.11.05-.16.06-.59-.95-2.67-4.67-2.29-8.49.36-3.65,2.24-5.61,2.9-6.19.07.02.15.05.22.08.26.11.51.25.75.42,1.4,1.03,2.82,3.54,2.87,7.02Z"/>
  <path class="cls-5" d="m153.8,40.46c-.38,3.82,1.7,7.54,2.29,8.49h-.01c-.54.21-1,.29-1.29.29-.55,0-1.86-.41-3.18-1.3-1.83-1.21-3.69-3.32-3.54-6.47.11-2.6,1.98-4.58,3.84-5.85.05-.05.11-.08.16-.11.8-.53,1.6-.93,2.23-1.18.59-.24,1.22-.3,1.83-.2.19.03.38.07.57.14-.66.58-2.54,2.54-2.9,6.19Z"/>
  <path class="cls-1" d="m156.09,48.95s.1-.03.16-.06v.3s-.07-.08-.16-.24Z"/>
  <path class="cls-1" d="m156.93,34.08v.27c-.08-.03-.16-.06-.23-.08.15-.13.23-.19.23-.19Z"/>
  <g>
    <line class="cls-1" x1="107.14" y1="42.61" x2="109.7" y2="46.57"/>
    <line class="cls-1" x1="108.99" y1="41.64" x2="111.55" y2="45.6"/>
    <line class="cls-1" x1="110.68" y1="40.26" x2="113.24" y2="44.23"/>
    <line class="cls-1" x1="112.45" y1="39.02" x2="115.01" y2="42.99"/>
    <line class="cls-1" x1="114.24" y1="37.87" x2="116.8" y2="41.83"/>
    <line class="cls-1" x1="116.09" y1="36.77" x2="118.65" y2="40.73"/>
  </g>
  <line class="cls-1" x1="138.62" y1="27.9" x2="139.82" y2="30.81"/>
  <line class="cls-1" x1="142.38" y1="26.45" x2="143.59" y2="29.36"/>
  <line class="cls-1" x1="140.49" y1="27.23" x2="141.69" y2="30.14"/>
  <path class="cls-2" d="m49.07,55.12c-.36.71-.62,1.5-.62,2.28,0,.59.03,1.25.08,1.92h-8.72s-.51-.87-.51-2.38c0-1.23.85-1.86.85-1.86h8.93v.04Z"/>
  <path class="cls-6" d="m113.87,79.33c-1.18-.12-2.59-.24-4.06-.34.2-1,.4-2.21.46-3.28.06-1.03-.24-1.99-.6-2.75-.46-.98-1.03-1.62-1.03-1.62,0,0,.64-2.7,2.66-2.52.34.03.68.31,1,.75.88,1.23,1.6,3.72,1.8,5.57.15,1.43-.02,2.96-.23,4.19Z"/>
  <rect class="cls-9" x="-513.6" y="-3916.59" width="2244.45" height="5948.74"/>
</svg>