<?xml version="1.0" encoding="UTF-8"?>
<svg id="Calque_1" data-name="Calque 1" xmlns="http://www.w3.org/2000/svg" viewBox="0 0 128 128.13">
  <defs>
    <style>
      .cls-1 {
        fill: #ffd4ad;
      }

      .cls-1, .cls-2, .cls-3, .cls-4 {
        stroke-linecap: round;
        stroke-linejoin: round;
      }

      .cls-1, .cls-2, .cls-3, .cls-5 {
        stroke: #000;
      }

      .cls-2 {
        fill: #fff;
      }

      .cls-3, .cls-4, .cls-5 {
        fill: none;
      }

      .cls-6 {
        fill: #fab0b4;
      }

      .cls-7 {
        fill: #ff6d75;
      }

      .cls-8 {
        fill: #87f3b9;
      }

      .cls-4 {
        stroke: #fff;
        stroke-width: 8px;
      }

      .cls-5 {
        stroke-miterlimit: 10;
      }
    </style>
  </defs>
  <path class="cls-3" d="m68.81,97.83c2.61-.27.74-3.11-3.19-5.58-3.93-2.47-4.92-5.92-7.93-15.14-3-9.22-5.5-10.5-5.5-10.5-5.05-3.23-9.75-5.97-2.88-7.88,6.87-1.91,2.88-10.51,2.88-10.51,0,0,1.31-2.59-.33-2.7-1.65-.11-2.01-1.85-2.01-1.85,0,0,3.9-10.97-9.33-14.2-13.22-3.23-19.51,7.51-20.48,14.36-.97,6.85,2.66,13.75,13.6,15.92,0,0,1.42.57.48,3.04-.94,2.47-7.43,1.45-10.91,9.74,0,0-6.13,18.07,2.36,24.91,0,0,6.62,2.99,9.27,5.67,2.65,2.68,6.75,5.92,5.99,3.81-.76-2.11-1.86-2.77-1.86-2.77"/>
  <path class="cls-3" d="m46.07,105.66c-.79-.59-1.55-2.24-3.61-3.19"/>
  <path class="cls-3" d="m45.52,102.45s-.02-.02-.03-.02"/>
  <path class="cls-3" d="m31.45,73.67s.64,11.99.05,17.14c0,0,.92-.24,4.52,3.12.11.1.22.21.33.32"/>
  <path class="cls-3" d="m41.32,104.15s1.92,1.27,2.53,2.28h0"/>
  <path class="cls-3" d="m44.04,107.06c-.17.97-3.89-1.76-4.11-1.91h0"/>
  <path class="cls-3" d="m43.87,106.44h0"/>
  <path class="cls-3" d="m56.84,112.21c.35.19.74.45,1.16.75.27.18.54.39.85.62,5.46,4.15,3.19,10.2-2.8,6.15-5.98-4.06-30.05-.41-34.09-9.59-4.04-9.18,3.62-12.7,3.62-12.7"/>
  <line class="cls-3" x1="38.62" y1="96.76" x2="38.61" y2="96.76"/>
  <path class="cls-2" d="m55.43,94.97s-4.25,3.83-16.81,1.79c-.68-.82-1.43-1.68-2.27-2.5.72.04,15.3.7,18.15-1.81l.7,1.91.23.62Z"/>
  <path class="cls-3" d="m36.34,94.25h-.03"/>
  <path class="cls-2" d="m56.84,112.21c-3.4-2.01-3.57-.07-7.82-2.42l-4.97-2.73c.04-.18-.04-.4-.18-.62.18.13,2.6,1.8,2.2-.78.36.27.72.31,1.22,0,1.5-.98-1.45-3.01-1.76-3.21,1.93.93,3.57-1.45-.83-1.19-2.43.15-4.01-2.02-6.08-4.5,12.56,2.04,16.81-1.79,16.81-1.79,0,0,5.38,11.12,1.41,17.24Z"/>
  <path class="cls-3" d="m50.21,69.57s5.11,14.66,4.29,22.87"/>
  <path class="cls-3" d="m54.41,86.06l4.16,6.28s-.76,7.88.91,5.83c1.67-2.05,1.04-5.07,3.28-2.56,2.24,2.51,1.83,4.17,2.7,2.53.88-1.64-.83-3.73-.83-3.73"/>
  <path class="cls-3" d="m65.61,96.28s4.16,4.57,2.31.38l-1.46-2.25"/>
  <line class="cls-3" x1="55.2" y1="94.35" x2="58.38" y2="93.31"/>
  <path class="cls-3" d="m57.99,112.96s1.79-1.5,3.32-3.71"/>
  <path class="cls-3" d="m60.19,114.31s-.69-.96,2.42-1.38"/>
  <path class="cls-3" d="m64.88,91.71s11-2.79,9.95,5.09c-1.05,7.88-4.94,14.87-4.94,14.87"/>
  <path class="cls-3" d="m66.44,112.21s8.18-1.11,9.65-.15c1.05.69,3.02,8.99-14.04,6.67"/>
  <path class="cls-3" d="m61.05,113.17s.11-2.01.54-7.42c.43-5.41.63-5.61.63-5.61"/>
  <path class="cls-3" d="m65.07,100.37s-1.94-.55-3.44,6"/>
  <path class="cls-3" d="m34.13,50.39s-3.7,1.24-1.57,4.28c2.13,3.04,4.01.36,4.01.36"/>
  <circle cx="47.15" cy="45.55" r=".86"/>
  <path class="cls-3" d="m44.6,43.64s.24-2.22,2.55-2.08"/>
  <line class="cls-3" x1="36.57" y1="75.49" x2="37.7" y2="75.49"/>
  <line class="cls-3" x1="47.16" y1="74.56" x2="48.25" y2="74.29"/>
  <line class="cls-3" x1="34.24" y1="53.25" x2="34.97" y2="52.91"/>
  <polygon class="cls-6" points="49.96 52.04 49.95 52.04 49.96 52.04 49.96 52.04"/>
  <path class="cls-6" d="m50.89,53.25h-.03s0,0,0,0c0,0,.02,0,.03,0Z"/>
  <path class="cls-6" d="m48.93,51.65s-2.77.31-2.23,1.92c0,0,.28.47.87.78.43.22,1.02.37,1.81.17.97-.23,1.44-.93,1.45-1.58,0-.01,0-.02,0-.02.03-.81-.64-1.54-1.91-1.27Z"/>
  <path class="cls-3" d="m48.01,33.53s-3.27,7.47-10.31,8.03c0,0,1.43,4.32-3.8,5.73"/>
  <path class="cls-7" d="m50.85,52.77s.01,0,0,.02c-.01.65-.48,1.35-1.45,1.58-.79.2-1.38.05-1.81-.17,0,0,0-.01.01-.03,0-.02.02-.05.04-.09.04-.07.09-.17.17-.3.03-.04.06-.08.09-.13.06-.08.13-.17.22-.27.17-.17.39-.35.67-.48.07-.03.14-.07.22-.09.05-.03.11-.04.17-.05.44-.13.99-.16,1.67,0Z"/>
  <path class="cls-5" d="m48.93,51.65s-2.77.31-2.23,1.92c0,0,.28.47.87.78.43.22,1.02.37,1.81.17.97-.23,1.44-.93,1.45-1.58,0-.01,0-.02,0-.02.03-.81-.64-1.54-1.91-1.27Z"/>
  <path class="cls-2" d="m88.42,16.94v9.64c0,3.29-2.45,5.97-5.44,5.97h-10.86l-8.06,6.36v-6.36h-1.4c-2.99,0-5.44-2.68-5.44-5.97v-9.64c0-3.28,2.45-5.97,5.44-5.97h20.32c2.99,0,5.44,2.69,5.44,5.97Z"/>
  <path class="cls-2" d="m104.02,44.88v9.65c0,3.28-2.45,5.96-5.44,5.96h-20.32c-2.99,0-5.44-2.68-5.44-5.96v-1.16l-5.82-3.02,5.82-4.32v-1.15c0-3.28,2.45-5.97,5.44-5.97h20.32c2.99,0,5.44,2.69,5.44,5.97Z"/>
  <path class="cls-2" d="m109.9,74.21v9.64c0,3.28-2.45,5.97-5.44,5.97h-20.32c-2.99,0-5.44-2.69-5.44-5.97v-2.84l-8.67-8.28h8.85c.59-2.58,2.73-4.49,5.26-4.49h20.32c2.99,0,5.44,2.68,5.44,5.97Z"/>
  <g>
    <rect class="cls-8" x="87.45" y="72.95" width="12.15" height="12.15" rx="1.39" ry="1.39"/>
    <path class="cls-3" d="m99.6,78.07v5.33c0,.94-.77,1.71-1.71,1.71h-8.74c-.94,0-1.71-.77-1.71-1.71v-8.74c0-.94.77-1.71,1.71-1.71h8.74"/>
    <polyline class="cls-3" points="89.13 76.54 93.53 82.85 100.94 72.95"/>
  </g>
  <rect class="cls-7" x="66.72" y="15.01" width="12.21" height="12.21" rx="2.17" ry="2.17"/>
  <path class="cls-3" d="m78.93,20.15v5.36c0,.94-.77,1.71-1.71,1.71h-8.78c-.94,0-1.71-.77-1.71-1.71v-8.78c0-.94.77-1.71,1.71-1.71h8.78"/>
  <line class="cls-3" x1="76.6" y1="24.9" x2="69.16" y2="17.36"/>
  <line class="cls-3" x1="69.16" y1="24.9" x2="76.6" y2="17.36"/>
  <g>
    <path class="cls-1" d="m85.49,43.57c-.25.22-.5.5-.71.85-.26.43-.46.8-.61,1.13-.68-.07-1.21-.66-1.2-1.36.01-.74.62-1.33,1.36-1.32.5,0,.93.29,1.16.7Z"/>
    <path class="cls-1" d="m92.99,44.34c0,.7-.55,1.26-1.23,1.32-.14-.32-.32-.7-.57-1.14-.2-.36-.44-.65-.69-.88.24-.4.67-.67,1.17-.66.74.01,1.33.62,1.32,1.36Z"/>
    <path class="cls-1" d="m83.29,53.22c0,.08,0,.16,0,.24h-.07c-.15-.06-.31-.09-.47-.09-.13,0-.26.01-.39.05-.03,0-.05.02-.08.02h-.26s-.53-.21-.41-1.74c.09-1.09,1.95-2.03,3.01-2.47.06.08.13.15.2.23-.92,1.02-1.5,2.42-1.52,3.76Z"/>
    <path class="cls-1" d="m83.22,53.46h-.94s.05-.03.08-.04c.13-.04.26-.05.39-.05.16,0,.32.03.47.09Z"/>
    <path class="cls-1" d="m93.8,53.62h-.23s-.05-.02-.08-.03c-.13-.04-.26-.06-.39-.06-.16,0-.32.02-.47.07h-.04c0-.08,0-.16,0-.24.02-1.38-.56-2.84-1.5-3.9.05-.05.1-.11.14-.16,1.02.46,2.95,1.47,3.01,2.6.08,1.53-.46,1.72-.46,1.72Z"/>
    <path class="cls-1" d="m93.57,53.62h-.94c.15-.07.31-.09.47-.09.13,0,.26.02.39.06.03,0,.05.02.08.03Z"/>
    <path class="cls-1" d="m86.12,56.98l-2.4.82c.64-.26,1.01-.96.85-1.65.43.37.96.64,1.55.82Z"/>
    <path class="cls-1" d="m91.72,57.76l-1.91-.72.06-.06h0c.49-.16.94-.39,1.32-.68-.14.56.08,1.13.52,1.47Z"/>
    <path class="cls-1" d="m92.61,53.37c0,.08,0,.16,0,.24,0,0,0,0,0,.01-.41.15-.74.48-.87.92l-.27.91-.23.76s-.02.05-.02.08c-.38.29-.83.52-1.32.68h0c-.6.2-1.28.29-1.98.28-.63,0-1.23-.1-1.77-.27-.59-.18-1.12-.46-1.55-.82,0-.01,0-.03,0-.04l-.27-1.01h0s-.18-.68-.18-.68c-.12-.44-.43-.77-.81-.94,0,0,0-.02,0-.03,0-.08,0-.16,0-.24.02-1.34.6-2.74,1.52-3.76.1.11.21.21.33.31.32.27.72.49,1.21.64-.72.63-1.2,1.61-1.21,2.56-.02,1.56,1.23,2.41,2.78,2.43s2.82-.78,2.84-2.34c.01-.96-.45-1.99-1.18-2.64.48-.14.87-.37,1.19-.63.12-.1.23-.21.34-.32.94,1.06,1.52,2.52,1.5,3.9Z"/>
    <path class="cls-1" d="m90.76,53.05c-.02,1.56-1.29,2.37-2.84,2.34s-2.8-.87-2.78-2.43c.01-.95.49-1.93,1.21-2.56.38.11.81.18,1.3.18.09,0,.17,0,.25-.02.08.01.16.02.25.02.55.02,1.02-.05,1.43-.17.73.65,1.19,1.67,1.18,2.64Z"/>
    <path class="cls-1" d="m90.76,53.05c-.02,1.56-1.29,2.37-2.84,2.34s-2.8-.87-2.78-2.43c.01-.95.49-1.93,1.21-2.56.38.11.81.18,1.3.18.09,0,.17,0,.25-.02.08.01.16.02.25.02.55.02,1.02-.05,1.43-.17.73.65,1.19,1.67,1.18,2.64Z"/>
    <path class="cls-1" d="m83.72,57.8l-.16.06c-.75.2-1.54-.25-1.74-1.01l-.45-1.69c-.2-.73.21-1.49.92-1.72h.94s.05.03.07.04c.39.17.69.5.81.94l.18.67h0s.27,1.01.27,1.01c0,.01,0,.03,0,.04.17.69-.2,1.39-.85,1.65Z"/>
    <path class="cls-1" d="m83.22,53.46h-.94s.05-.03.08-.04c.13-.04.26-.05.39-.05.16,0,.32.03.47.09Z"/>
    <path class="cls-1" d="m94.44,55.37l-.5,1.67c-.23.75-1.02,1.18-1.77.95-.17-.05-.32-.13-.45-.23-.44-.33-.66-.91-.52-1.47,0-.03.01-.05.02-.08l.23-.76.27-.91c.13-.44.47-.78.87-.92.01,0,.02-.01.04-.01h.94c.7.27,1.09,1.04.87,1.76Z"/>
    <path class="cls-1" d="m93.57,53.62h-.94c.15-.07.31-.09.47-.09.13,0,.26.02.39.06.03,0,.05.02.08.03Z"/>
    <path class="cls-1" d="m91.77,45.66c-.14-.32-.32-.7-.57-1.14-.2-.36-.44-.65-.69-.88-1.11-1.02-2.49-.91-2.49-.91,0,0-1.38-.16-2.52.84-.26.22-.5.5-.71.85-.26.43-.46.8-.61,1.13-.51,1.11-.44,1.59-.44,1.59,0,0,.11,1.13.88,2.1.06.08.13.15.2.23.1.11.21.21.33.31.32.27.72.49,1.21.64.38.11.81.18,1.3.18.09,0,.17,0,.25-.02.08.01.16.02.25.02.55.02,1.02-.05,1.43-.17.48-.14.87-.37,1.19-.63.12-.1.23-.21.34-.32.05-.05.1-.11.14-.16.77-.94.91-2.04.91-2.04,0,0,.09-.48-.39-1.6Zm-3.82,1.65c-.58,0-1.05-.24-1.05-.53s.48-.5,1.06-.49,1.05.24,1.05.53-.48.5-1.06.49Z"/>
    <path d="m86.02,46.08c0,.22-.18.39-.4.39s-.39-.18-.39-.4.18-.39.4-.39.39.18.39.4Z"/>
    <path d="m90.68,46.16c0,.22-.18.39-.4.39s-.39-.18-.39-.4.18-.39.4-.39.39.18.39.4Z"/>
    <path d="m89.01,46.82c0,.28-.48.5-1.06.49s-1.05-.24-1.05-.53.48-.5,1.06-.49,1.05.24,1.05.53Z"/>
    <line class="cls-1" x1="87.9" y1="50.57" x2="87.95" y2="47.31"/>
  </g>
  <rect class="cls-4" x="-4610.38" y="-3043.9" width="6467.34" height="6437.3"/>
</svg>