<?xml version="1.0" encoding="UTF-8"?>
<svg id="Calque_1" data-name="Calque 1" xmlns="http://www.w3.org/2000/svg" viewBox="0 0 128 128">
  <defs>
    <style>
      .cls-1, .cls-2, .cls-3 {
        stroke: #000;
      }

      .cls-1, .cls-2, .cls-3, .cls-4 {
        stroke-linecap: round;
        stroke-linejoin: round;
      }

      .cls-1, .cls-3, .cls-4 {
        fill: none;
      }

      .cls-2 {
        fill: #a07637;
      }

      .cls-2, .cls-3 {
        stroke-width: 2px;
      }

      .cls-4 {
        stroke: #fff;
        stroke-width: 8px;
      }
    </style>
  </defs>
  <g>
    <path class="cls-2" d="m66.14,46.05c1.19-.72,1.97-2.03,1.97-3.5,0-2.27-1.85-4.12-4.12-4.12s-4.11,1.85-4.11,4.12c0,1.48.78,2.79,1.96,3.5"/>
    <path class="cls-2" d="m67.18,45.93v26.51c0,1.6-1.32,2.92-2.92,2.92h-.53c-1.6,0-2.92-1.32-2.92-2.92v-26.51h6.37Z"/>
    <polyline class="cls-3" points="67.19 49.12 76.95 41.68 76.95 29.22 87.56 11.62"/>
    <polyline class="cls-3" points="60.81 49.12 51.05 41.68 51.05 29.22 40.44 11.62"/>
    <polyline class="cls-3" points="60.81 58.53 54.25 66.33 54.25 83.49 39.19 118.87"/>
    <polyline class="cls-3" points="60.81 55.71 50.62 58.53 45.81 74.31 29.9 94.03"/>
    <polyline class="cls-3" points="67.19 58.53 73.75 66.33 73.75 83.49 88.81 118.87"/>
    <polyline class="cls-3" points="67.19 55.71 77.37 58.53 82.19 74.31 98.1 94.03"/>
    <path class="cls-3" d="m67.19,53.09c-.15-1.21,5.13-1.66,19.05-4.18,5.46-.99,16.73-3.43,17.67.38.37,1.52-1.46,2.78-5.93,4.22-1.72.56-7.97,1.55-15.62,1.35-3.86-.1-14.99-.38-15.17-1.77Z"/>
    <path class="cls-3" d="m60.81,53.09c.15-1.21-5.13-1.66-19.05-4.18-5.46-.99-16.73-3.43-17.67.38-.37,1.52,1.46,2.78,5.93,4.22,1.72.56,7.97,1.55,15.62,1.35,3.86-.1,14.99-.38,15.17-1.77Z"/>
    <line class="cls-3" x1="63.99" y1="38.43" x2="63.99" y2="20.72"/>
    <line class="cls-1" x1="60.82" y1="53.64" x2="67.18" y2="53.64"/>
    <line class="cls-1" x1="60.82" y1="60.72" x2="67.18" y2="60.72"/>
    <line class="cls-1" x1="60.82" y1="67.79" x2="67.18" y2="67.79"/>
  </g>
  <rect class="cls-4" x="-3809.24" y="-2750.5" width="6467.34" height="6437.3"/>
</svg>