<?xml version="1.0" encoding="UTF-8"?>
<svg id="Calque_1" data-name="Calque 1" xmlns="http://www.w3.org/2000/svg" viewBox="0 0 128 128">
  <defs>
    <style>
      .cls-1 {
        fill: #d6d6d6;
      }

      .cls-1, .cls-2, .cls-3 {
        stroke: #000;
      }

      .cls-1, .cls-2, .cls-3, .cls-4 {
        stroke-linecap: round;
        stroke-linejoin: round;
      }

      .cls-2 {
        fill: #ffbeed;
      }

      .cls-3, .cls-4 {
        fill: none;
      }

      .cls-4 {
        stroke: #fff;
        stroke-width: 8px;
      }
    </style>
  </defs>
  <g>
    <path class="cls-1" d="m41.38,83.97c0,.67.06,1.64.24,3.14.05.4.12.83.18,1.31.47,3.23.7,4.84,1.24,6.81.36,1.35.74,2.46,1.05,3.34l.65.28,2.83,4.22s-5,.14-5.43,0c-.45-.15-.94-2.04-.94-2.04,0,0-1.47.15-1.65-.22-.19-.37.41-1.22.55-1.73.05-.17.1-.46.15-.76-.76-1.38-.86-2.67-1.33-4.81-.56-2.67-.68-1.87-1.59-5.78-.18-.77-.32-1.44-.46-2.08"/>
    <path class="cls-1" d="m73.7,76.71c-.01.17-.05.33-.08.5-.23,1.13-.46,2.11-.46,2.11-.29,1.23-.42,1.53-.46,2.11-.08.96.29,1.36.27,2.31-.01.62-.15,1.05-.55,2.11-.85,2.24-1.56,3.86-1.56,3.86-.53,1.38-.97,2.47-1.29,3.22-.41.95-.79,1.79-.42,2.23.23.31.94.56.94.56,0,0,.36.19.72.51.36.31.74.73.79,1.2.08.64-.54.76-.91,2.1-.27.99-.08,1.37,0,1.49.22.36.64.49.88.55,0,0,2.1.59,5.65.17-.82-1.27-1.41-2.19-1.87-2.87-.45-.67-.76-1.1-.96-1.35-.04-.06-.15-.21-.28-.42-.42-.82-.32-1.64-.31-1.94.22-2.17-.49-2.9.04-5.73.26-1.41.55-2.99,1.67-4.61.87-1.27,1.56-1.58,2-2.88.37-1.14.08-1.59.13-3.08.03-.51.09-1.01.18-1.47"/>
    <path class="cls-1" d="m31.94,77.87s-.06.06-.09.09c-.04.04-.06.06-.1.12-.95,1.06-2.17,2.43-3.28,4.56-1.59,3.01-1.97,5.6-2.05,6.11-.35,2.52-.06,4.59.04,5.23.19,1.26.41,2.24.41,2.24.53,2.26,1.09,3.55.6,3.92l2.83,4.23s-4.99.14-5.42,0c-.45-.15-.94-2.04-.94-2.04,0,0-1.49.15-1.65-.22-.19-.37.4-1.22.54-1.74.05-.15.1-.41.15-.68h0c.08-.5.15-1.04.17-1.26.03-.06.03-.12.03-.12.06-.24.04-.17-.6-10.02-.08-1.26-.15-2.36-.82-3.55-.59-1-1.01-1.06-1.05-1.65-.1-1.2,1.78-4.78,2.27-7.57,2.29,2.04,5.65,2.78,8.97,2.35Z"/>
    <path class="cls-1" d="m90.43,103.06s-4.99.14-5.43,0c-.44-.15-.92-2.04-.92-2.04,0,0-1.49.15-1.67-.22-.19-.37.4-1.22.55-1.73.01-.04.03-.08.03-.13-.58.15-.86.51-1.12.4-.26-.12-.24-.65-.23-.79.05-1.58.08-2.37.47-3.65,0,0,.67-2.22.46-4.81-.01-.27-.31-1.59-.88-4.23-.41-1.81-.5-2.23-.58-3-.15-1.37-.04-2.05,0-3.42.01-.6,0-1.08-.03-1.47v-.1c2.17.26,3.68.28,4.75-.03-.08.3-.2.86-.14,1.56.08.86.37,1.12.6,1.88.35,1.11.21,2.04-.08,3.88-.19,1.14-.29,1.23-.47,2.22-.44,2.28-.06,3.09.09,7.33.03.88.04,1.51.42,2.22.23.42.41.54.37.81-.03.19-.14.37-.33.55l1.29.55,2.83,4.22Z"/>
    <path class="cls-1" d="m113.3,54.71c-1.24.83-3.18.12-3.54-.01-1.26-.46-1.94-1.24-2.54-1.82-1.38-1.35-2.55-1.87-3.56-2.24-1.14-.41-2.08-.63-2.91-1.65-2.1-2.58-1.73-8.09,1.44-10.59,1.37-1.08,3.67-1.92,5.64-1.15,1,.4,1.69,1.27,2.61,2.83.31.53.64,1.13,1.03,1.81,1.29,2.32,2.18,3.92,2.61,6.29.32,1.72,1,5.34-.78,6.54Z"/>
    <path class="cls-3" d="m88.85,35.61c-1.29,1.01-2.04,1.46-3.65,3.36,0,0-2.68,1.14-6.02,3-4.11,2.27-8.21.88-16.37.35-10.42-.7-15.08.04-16.34.01-6.38-.14-15.65-.31-20.83,4.97-2.82,2.86-4.02,6.51-4.99,9.42-1.63,4.93-.29,8.91-.24,10.3.15,3.88.23,5.82,1.55,7.46.31.38.64.73,1,1.04,2.29,2.04,5.65,2.78,8.97,2.35.38-.05.76-.12,1.13-.21h.01c.36-.08.7-.17,1.05-.27.78-.23,1.55-.53,2.28-.88.27-.13.78-.38,1.42-.69.56-.27,1.24-.59,1.95-.9.08-.03.15-.06.23-.1,1.41-.62,2.87-1.18,3.72-1.31.5-.08.99-.1,1.47-.05.54.04,1.05.14,1.58.29h.03c.17.05.35.1.51.15,1.2.38,2.43.92,3.83,1.32,2.24.63,4.97,2.65,10.3,1.85,2.32-.36,3.17-.9,5.9-.99,2.38-.09,4.04.23,5.79.54.19.04.38.06.56.09,1.53.27,2.88.5,4.1.69,1.23.19,2.31.35,3.27.46h.01c2.17.26,3.68.28,4.75-.03.19-.05.37-.12.54-.19,2.51-1.13,3.74-3.42,5.72-7.09,1.68-3.13,1.32-4.01,3.88-9.28.26-.53,1.11-2.04,2.83-5.07,1.68-2.96,2.26-3.9,3.5-4.58.64-.35,1.09-.42,1.32-.91.01-.03.03-.05.04-.09"/>
    <path class="cls-3" d="m98.91,30.96c.72-.08,1.51-.09,2.36-.01.83.08,6.15.67,8.37,4.63.65,1.18,1.38,3.24.81,4.5"/>
    <path class="cls-3" d="m101.92,31.72c-4.2-1.37-7.73-1.19-9.49-.82-2.78.58-6.29,2.1-6.15,3.22.06.47.74.75,2.08,1.29.86.35,2.28.91,4.15,1,3.32.17,5.9-1.23,6.94-1.86"/>
    <polyline class="cls-3" points="112.34 51.06 113.28 52.08 112.81 53.66"/>
    <path class="cls-3" d="m39.78,74.92c-.08.05-.14.08-.21.1"/>
    <path class="cls-3" d="m50.16,62.59s.17,4.4-1.7,6.16c-1.77,1.65-6.11,4.92-8.45,6.06"/>
    <path class="cls-3" d="m73.86,62.59s0,5.9,1.63,7.81c1.63,1.92,3.96,4.59,4.66,5.41s1.03,1.2.96,3.63"/>
    <path class="cls-3" d="m20.03,59.35c-1.36-.72-1.29-2.82-1.37-3.92-.09-1.32.67-4.82,2.55-6.61,1.83-1.74,6.91-3.56,7.23-3.67h.01"/>
    <circle cx="106.5" cy="42.25" r="1.12"/>
    <path class="cls-2" d="m47.32,73.91c-.26.27-.51.55-.77.85h0c-.53,2.18-1.32,4.87-2.17,5.84-.51.6-1.01,1.22-1.51,1.81-.23.27-.45.53-.7.78-.01.03-.04.05-.06.08-.21.22-.4.41-.62.6l-.1.1c-.22.19-.45.37-.69.54v2.42s0,.06-.01.09c-.03.83-.72,1.5-1.56,1.5s-1.59-.7-1.59-1.59v-1.28c-.15.03-.31.03-.46.03-.06,0-.13,0-.18-.01-.46-.05-.9-.32-1.33-.74-.97-.99-1.88-2.87-2.96-5.28-.09-.21-.22-.72-.37-1.44.14-.09.28-.18.41-.27.05-.03.09-.04.12-.06.12-.08.2-.14.32-.2h.01c.36-.08.7-.17,1.05-.27.78-.23,1.55-.53,2.28-.88.27-.13.78-.38,1.42-.69.56-.27,1.24-.59,1.95-.9.08-.03.15-.06.23-.1,1.41-.62,2.87-1.18,3.72-1.31.5-.08.99-.1,1.47-.05l1.58.29h.03c.17.05.35.1.51.15Z"/>
    <g>
      <path class="cls-2" d="m42.92,73.05l2.28.41c-.49-.05-.97-.03-1.47.05-.85.13-2.31.69-3.72,1.31-.08.04-.15.08-.23.1-.7.31-1.38.63-1.95.9-.64.31-1.15.56-1.42.69-.73.36-1.5.65-2.28.88-.35.1-.69.19-1.05.27"/>
      <path class="cls-2" d="m42.87,82.4v3.15c0,.77-.53,1.4-1.24,1.55-.12.03-.23.04-.35.04-.2,0-.41-.05-.6-.13.01-.03.01-.06.01-.09v-2.42c.24-.17.47-.35.69-.54l.1-.1c.2-.19.41-.4.62-.6.03-.03.05-.05.06-.08.24-.26.47-.51.7-.78Z"/>
    </g>
  </g>
  <rect class="cls-4" x="-237.64" y="-334.38" width="3385.57" height="2571.67"/>
</svg>