<?xml version="1.0" encoding="UTF-8"?>
<svg id="Calque_1" data-name="Calque 1" xmlns="http://www.w3.org/2000/svg" viewBox="0 0 128 128">
  <defs>
    <style>
      .cls-1 {
        fill: #fab0b4;
      }

      .cls-2 {
        fill: #fce9b9;
      }

      .cls-2, .cls-3 {
        stroke: #000;
        stroke-miterlimit: 10;
      }

      .cls-3 {
        fill: #ff6d75;
      }

      .cls-4 {
        fill: none;
        stroke: #fff;
        stroke-linecap: round;
        stroke-linejoin: round;
        stroke-width: 8px;
      }
    </style>
  </defs>
  <path class="cls-2" d="m85.09,105.95l-.2.08c-.13.04-.26.08-.39.13-.13.03-.25.07-.38.1-.06.02-.12.03-.18.05-.12.02-.24.05-.36.07-.59.1-1.12.09-1.55-.03-.18,0-.34-.07-.48-.2-.13-.07-.25-.16-.36-.27-.04-.04-.07-.08-.11-.12,0,0-.01-.02-.03-.03-.03-.04-.06-.09-.1-.14l-3.69-3.53L23.89,50.99c-4.4-4.22-5.33-10.76-2.67-15.94l-.13-.12c-.43-.41-.74-.89-.93-1.41-.51-1.35-.25-2.95.82-4.06,1.46-1.53,3.93-1.59,5.46-.12l.13.12c5.05-2.87,11.63-2.24,16.03,1.97l53.71,51.39,3.78,3.62s.03.02.05.03c.09.06.17.13.25.2.04.04.07.08.11.12.01.01.01.02.03.03.03.05.06.09.1.14h0c.03.05.06.1.08.15.01.01.01.02.02.03.03.05.05.1.07.15.03.08.06.16.08.24v.03s.03.06.03.09c0,.02,0,.03,0,.05,0,.03.01.05.01.08,0,.02,0,.04.01.05,0,.03,0,.05,0,.08,0,.02,0,.04,0,.06,0,.03,0,.06,0,.09,0,.02,0,.04,0,.05,0,.03,0,.06,0,.09,0,.02,0,.04,0,.06,0,.03,0,.06,0,.09,0,.02,0,.04,0,.05,0,.04,0,.08,0,.11,0,.02,0,.03,0,.04,0,.04,0,.1,0,.14,0,0,0,0,0,.02,0,.06-.01.11-.02.17,0,0,0,0,0,.02-.01.05-.02.1-.03.15,0,.02,0,.03,0,.05,0,.04-.01.08-.02.12,0,.02,0,.04-.02.06,0,.04-.01.08-.02.11,0,.02,0,.04-.01.06,0,.04-.02.07-.02.11,0,.02-.01.04-.02.07,0,.03-.02.07-.03.12,0,.02,0,.04-.02.06-.01.04-.02.08-.03.13,0,.02-.01.04-.02.06,0,.04-.03.09-.04.13,0,.02,0,.03-.02.05-.02.05-.03.1-.05.15-.01.01-.01.03-.02.04-.04.13-.09.26-.14.39,0,0,0,.02-.02.04-.02.05-.04.11-.07.16,0,.02-.01.04-.02.06-.02.05-.04.1-.06.14,0,.02-.02.05-.03.07-.02.05-.04.09-.06.14-.01.02-.03.05-.03.07-.02.05-.04.09-.06.14-.01.02-.03.05-.04.07-.02.05-.04.09-.07.14l-.03.07s-.05.09-.07.14c0,.02-.02.05-.03.07-.03.05-.05.1-.08.16,0,.02-.02.04-.03.05-.03.07-.07.14-.11.21h0c-.04.08-.08.15-.12.23h0c-.04.08-.08.15-.12.22,0,.02-.02.04-.03.06-.03.06-.06.11-.1.16-.01.03-.03.05-.05.08-.03.05-.06.1-.09.15-.02.03-.03.06-.05.09-.03.04-.06.09-.09.14-.02.03-.04.06-.06.09-.03.05-.05.1-.09.15-.02.02-.04.05-.05.08-.03.05-.07.1-.1.15-.01.03-.03.05-.05.08-.03.05-.06.11-.1.16-.02.02-.03.05-.05.07-.04.06-.07.12-.12.18-.01.01-.03.03-.04.05-.1.16-.21.31-.32.47-.01.02-.03.04-.04.06-.04.05-.08.11-.13.18-.02.02-.04.05-.06.08-.03.05-.07.1-.11.16-.02.03-.04.06-.06.09-.04.05-.08.1-.12.15-.02.03-.04.06-.07.09-.04.04-.08.1-.11.14-.03.03-.05.06-.08.1-.03.05-.08.1-.11.15-.03.03-.05.06-.08.1-.04.05-.08.1-.12.14-.03.03-.05.06-.07.09-.05.06-.09.11-.13.16-.02.02-.04.05-.07.08-.05.06-.1.13-.15.19-.01.02-.03.03-.04.05-.07.08-.14.16-.21.24-.02.01-.03.03-.05.05-.05.06-.1.12-.15.19-.03.03-.05.06-.07.09-.05.05-.1.1-.14.15-.03.03-.06.07-.08.1-.04.05-.09.09-.13.14-.03.03-.06.07-.09.1-.04.05-.08.09-.13.14-.03.03-.06.07-.1.1-.04.05-.08.09-.13.14-.03.03-.06.07-.1.1-.04.05-.08.09-.13.14-.03.03-.06.07-.09.09-.05.06-.09.1-.14.15-.03.03-.06.06-.09.09-.05.05-.1.11-.16.16-.03.03-.05.06-.07.08-.08.07-.16.16-.23.23-1.32,1.33-2.68,2.5-4,3.48-.42.31-.82.6-1.22.86-.16.11-.32.21-.48.31-.32.2-.63.39-.94.57-.15.09-.31.18-.46.26-.46.24-.89.45-1.32.64-.21.09-.41.17-.62.24Z"/>
  <path class="cls-2" d="m87.95,108.7c2.8-1.36,5.91-3.67,8.75-6.52,2.59-2.59,4.69-5.33,6.1-7.93,1.77-3.28,2.24-6.06,1.41-8.25h0c-.28-.73-.69-1.37-1.23-1.91-.87-.87-2.44-1.85-4.99-1.59-.53.05-1.09.16-1.67.32l3.78,3.62s.03.02.05.03c.09.06.18.13.25.21h0s.07.08.11.12c0,0,.02.02.02.03.03.04.07.09.09.13,0,0,0,0,0,0,.03.04.05.09.08.14,0,.01.01.02.02.04.02.05.05.1.07.15h0c.03.08.05.16.07.24,0,.01,0,.03,0,.04,0,.03.01.06.02.09,0,.02,0,.03,0,.05,0,.03.01.05.01.08,0,.02,0,.04,0,.05,0,.03,0,.05.01.08,0,.02,0,.04,0,.05,0,.03,0,.06,0,.09,0,.02,0,.04,0,.06,0,.03,0,.06,0,.09,0,.02,0,.04,0,.06,0,.03,0,.06,0,.1,0,.02,0,.04,0,.05,0,.04,0,.07,0,.11,0,.02,0,.03,0,.05,0,.05,0,.09-.01.14,0,0,0,.01,0,.02,0,.05-.01.11-.02.16,0,0,0,0,0,.02,0,.05-.01.1-.02.15,0,.02,0,.03,0,.05,0,.04-.01.08-.02.12,0,.02,0,.04-.01.06,0,.04-.02.08-.02.11,0,.02,0,.04-.01.06,0,.04-.02.08-.03.11,0,.02-.01.04-.02.06,0,.04-.02.08-.03.12,0,.02-.01.04-.02.06-.01.04-.02.08-.04.12,0,.02-.01.04-.02.06-.01.04-.03.09-.04.13,0,.02-.01.04-.02.05-.02.05-.03.1-.05.15,0,.01,0,.02-.01.03-.04.13-.09.26-.14.39,0,.01,0,.02-.01.03-.02.05-.04.11-.07.16,0,.02-.02.04-.02.06-.02.05-.04.09-.06.14,0,.02-.02.04-.03.07-.02.05-.04.09-.06.14-.01.02-.02.05-.03.07-.02.05-.04.09-.06.14-.01.02-.02.05-.03.07-.02.05-.04.09-.07.14-.01.02-.02.05-.03.07-.02.05-.05.1-.07.15-.01.02-.02.04-.03.07-.03.05-.05.11-.08.16,0,.02-.02.04-.03.05-.04.07-.07.14-.11.21,0,0,0,0,0,0-.04.08-.08.15-.12.23,0,0,0,0,0,0-.04.07-.08.14-.12.21-.01.02-.02.04-.03.06-.03.05-.06.11-.09.16-.01.02-.03.05-.04.07-.03.05-.06.1-.09.15-.02.03-.03.05-.05.08-.03.05-.06.1-.09.14-.02.03-.04.06-.05.08-.03.05-.06.1-.09.14-.02.03-.04.06-.05.08-.03.05-.06.1-.1.15-.02.03-.03.05-.05.08-.03.05-.07.1-.1.16-.02.02-.03.05-.05.07-.04.06-.08.12-.12.18-.01.02-.02.04-.04.06-.11.16-.22.31-.33.47-.01.02-.03.04-.04.06-.04.06-.08.12-.13.18-.02.03-.04.05-.06.08-.04.05-.08.1-.12.16-.02.03-.04.06-.07.09-.04.05-.07.1-.11.15-.02.03-.05.06-.07.09-.04.05-.07.1-.11.14-.02.03-.05.06-.07.09-.04.05-.08.1-.11.15-.02.03-.05.06-.07.09-.04.05-.08.1-.12.15-.02.03-.05.06-.07.09-.04.05-.09.11-.13.16-.02.03-.04.05-.07.08-.05.06-.11.13-.16.19-.01.02-.03.03-.04.05-.07.08-.14.16-.2.24-.02.02-.03.04-.05.06-.05.06-.11.12-.16.18-.02.03-.05.06-.07.09-.05.05-.09.1-.14.16-.03.03-.06.06-.08.09-.04.05-.09.1-.13.15-.03.03-.06.07-.09.1-.04.05-.08.09-.13.14-.03.03-.06.07-.09.1-.04.05-.09.09-.13.14-.03.03-.06.07-.09.1-.04.05-.09.09-.13.14-.03.03-.06.07-.09.1-.05.05-.09.1-.14.15-.03.03-.06.06-.09.09-.05.05-.1.11-.16.16-.02.03-.05.05-.07.08-.08.08-.16.16-.24.24-1.33,1.33-2.68,2.5-4,3.47-.41.31-.82.59-1.22.86-.16.11-.32.21-.48.31-.32.2-.63.39-.94.57-.15.09-.31.17-.46.25-.45.24-.89.46-1.32.64-.21.09-.42.17-.62.25-.07.03-.14.05-.21.07-.13.04-.26.09-.38.12-.13.04-.25.07-.38.1-.06.02-.12.03-.18.04-.12.03-.24.05-.36.07-.59.1-1.11.09-1.55-.03-.17,0-.35-.07-.48-.2-.13-.08-.25-.16-.35-.27-.04-.04-.07-.08-.11-.12,0-.01-.02-.02-.02-.03-.03-.04-.07-.09-.1-.13,0,0,0,0,0,0l-3.69-3.53c-.42,1.69-.39,3.2.11,4.5.28.73.69,1.37,1.23,1.91.87.87,2.44,1.85,4.99,1.59,1.31-.13,2.77-.58,4.35-1.35Z"/>
  <path class="cls-3" d="m95.51,39.44c1.26-1.9,3.64-1.74,5.35-2.98.22-.16.04-.5-.19-.52-1.99-.12-4.21.03-6.01-.95-.07-.04-.14-.03-.2,0,0,0-.02,0-.02-.01-.44-1.36-1.02-2.65-1.73-3.86,0-.02.02-.05.02-.08.31-2.25,2.53-3.14,3.53-5.01.13-.24-.18-.47-.4-.38-1.85.75-3.78,1.85-5.83,1.75-.04,0-.07,0-.1.02-1.02-1.07-2.15-2.03-3.39-2.86-.6-2.11.95-3.85,1.04-5.92.01-.27-.37-.35-.52-.17-1.32,1.46-2.57,3.26-4.42,4.07-1.45-.56-2.98-.95-4.57-1.15-1.29-1.63-.71-3.78-1.51-5.63-.11-.25-.48-.15-.55.07-.54,1.84-.88,3.94-2.11,5.46-1.13.09-2.23.27-3.3.54-.53.13-1.04.28-1.55.46-1.76-.94-2.19-3.06-3.67-4.35-.2-.18-.5.07-.46.3.31,1.85.89,3.85.5,5.72-1.48.87-2.83,1.91-4.03,3.12-1.95-.12-3.26-1.81-5.13-2.33-.26-.07-.42.28-.28.47,1.07,1.53,2.46,3.06,2.92,4.9-.94,1.41-1.7,2.95-2.26,4.59-1.82.74-3.73-.22-5.64.13-.27.05-.26.44-.05.55,1.65.92,3.58,1.71,4.8,3.2-.11.84-.17,1.69-.17,2.55s.05,1.64.15,2.44c-1.31,1.54-3.5,1.47-5.1,2.64-.22.16-.04.5.19.52,1.92.12,4.06-.02,5.83.86.52,1.52,1.22,2.96,2.07,4.28-.44,2.07-2.52,2.96-3.48,4.75-.13.24.18.47.4.38,1.84-.75,3.78-1.85,5.81-1.75,1.05,1.05,2.22,1.97,3.49,2.76.65,2.14-.93,3.89-1.02,5.99-.01.27.37.35.52.17,1.34-1.48,2.61-3.31,4.49-4.11.05-.02.08-.06.1-.1,1.32.45,2.69.77,4.12.94.02.04.04.07.07.1,1.57,1.65.88,3.94,1.72,5.88.11.25.48.15.55-.07.56-1.91.91-4.12,2.26-5.65.05-.06.06-.13.03-.19.02-.02.04-.04.05-.07,1.38-.16,2.72-.46,4-.89.04.06.1.11.18.14,2.13.81,2.5,3.17,4.1,4.55.2.18.5-.07.46-.3-.32-1.97-.97-4.1-.41-6.07.02-.08,0-.15-.05-.19.03-.05.03-.11,0-.16,1.14-.72,2.21-1.56,3.19-2.49.07.06.16.09.27.08,2.27-.2,3.63,1.77,5.67,2.33.26.07.42-.28.28-.47-1.14-1.63-2.65-3.28-3-5.29-.02-.08-.07-.13-.13-.15,0-.07-.03-.12-.08-.16.28-.44.55-.9.79-1.36.38-.73.73-1.48,1.02-2.25.08.02.18,0,.27-.05,1.96-1.16,4.04.02,6.12-.37.27-.05.25-.43.05-.55-1.74-.97-3.81-1.8-5-3.46-.05-.07-.12-.09-.18-.08-.02-.05-.06-.08-.11-.09.1-.82.16-1.65.16-2.49,0-.53-.03-1.06-.07-1.58.06-.02.12-.07.16-.14Z"/>
  <path class="cls-1" d="m67.92,31.62c-.25-.51-.81-.72-1.34-.65-.09.01-.18.03-.27.06-.05-.08-.15-.13-.25-.09-1.06.43-2,2.04-2.01,3.17,0,1.5,1.63,1.25,2.46.61.81-.62,1.95-2,1.41-3.09Z"/>
  <path class="cls-1" d="m75.28,39.11c-.08.03-.14.06-.19.11-.29.02-.58.1-.91.27-.64.33-1.19.88-1.49,1.55-.56,1.26-.12,2.97,1.38,3.24,1.49.27,3.01-1.06,3.41-2.42.41-1.38-.57-3.26-2.21-2.74Z"/>
  <path class="cls-1" d="m82.13,29.37c-.24-.51-.79-.81-1.31-.79-.39-.1-.75-.11-1.12.15-.37.26-.62.69-.65,1.14-.06,1,.84,1.9,1.85,1.72,1.01-.18,1.68-1.26,1.24-2.22Z"/>
  <path class="cls-1" d="m86.74,47.2c-.2-.08-.39-.1-.57-.06-1.33.01-1.98,1.98-1.47,3.05.07.14.23.21.38.22,1.12.05,2.25-.76,2.33-1.93.04-.53-.16-1.07-.68-1.28Z"/>
  <path class="cls-1" d="m69.46,49.21c-.31-.68-1.24-1.26-1.92-.98-.08-.04-.16-.07-.28-.07-.22,0-.46.12-.62.26-.38.33-.55.85-.52,1.35.07,1.04.99,1.93,2.06,1.69.97-.22,1.72-1.28,1.28-2.25Z"/>
  <path class="cls-3" d="m23.8,72.7c.29,1.29-.73,2.23-.89,3.45-.02.16.19.22.29.13.85-.79,1.68-1.79,2.81-2.15.05-.01.07-.05.08-.09,0,0,0,0,.01,0,.75.36,1.53.63,2.32.82,0,.01.01.03.02.04.82,1.04.31,2.33.69,3.5.05.15.27.11.32-.01.42-1.08.74-2.34,1.6-3.16.02-.02.03-.03.03-.05.86,0,1.72-.09,2.56-.28,1.13.6,1.24,1.94,2.08,2.81.11.11.29-.02.28-.15-.09-1.14-.34-2.39.06-3.5.82-.39,1.6-.87,2.32-1.46,1.2.11,1.88,1.22,2.98,1.63.15.06.26-.14.19-.26-.56-.97-1.3-1.95-1.45-3.08.42-.51.78-1.05,1.1-1.61.16-.27.3-.55.43-.84,1.1-.36,2.17.31,3.31.2.16-.01.17-.24.06-.32-.9-.61-1.98-1.17-2.61-2.09.23-.97.33-1.96.31-2.95.84-.77,2.07-.64,3.04-1.23.14-.08.05-.29-.08-.31-1.07-.16-2.28-.2-3.24-.74-.22-.96-.56-1.9-1.02-2.79.42-1.07,1.59-1.48,2.21-2.43.09-.13-.08-.28-.21-.24-1.05.32-2.16.82-3.28.74-.31-.38-.64-.75-1.01-1.1s-.71-.63-1.09-.92c-.12-1.17.78-2.06.93-3.21.02-.16-.19-.22-.29-.13-.82.76-1.63,1.72-2.7,2.11-.85-.39-1.73-.67-2.64-.85-.69-1.02-.24-2.25-.6-3.37-.05-.15-.27-.11-.32.01-.42,1.08-.74,2.33-1.6,3.15-.86.02-1.72.14-2.56.36-1.16-.59-1.27-1.96-2.11-2.83-.11-.11-.29.01-.28.15.09,1.16.35,2.43-.07,3.54-.01.03,0,.06,0,.08-.72.37-1.41.83-2.05,1.36-.02,0-.05-.01-.07-.01-1.32,0-2.01-1.21-3.17-1.64-.15-.06-.26.14-.19.26.58,1,1.37,2.04,1.47,3.22,0,.05.03.08.07.09,0,.02,0,.03,0,.05-.49.65-.9,1.33-1.23,2.04-.04,0-.09,0-.13.02-1.2.57-2.34-.22-3.56-.1-.16.01-.17.24-.06.31.96.65,2.12,1.24,2.72,2.27.03.04.06.06.1.05.01.03.04.06.07.07-.16.77-.23,1.56-.23,2.34-.05,0-.1.03-.15.08-.83,1.03-2.2.82-3.26,1.45-.13.08-.05.29.08.31,1.15.17,2.44.2,3.43.86.04.03.08.02.11,0,.03.03.07.04.1.03.07.3.16.59.25.88.15.45.33.9.54,1.34-.04.03-.07.07-.09.13-.3,1.29-1.63,1.69-2.3,2.72-.09.13.08.28.21.24,1.11-.34,2.29-.88,3.47-.72.05,0,.08-.01.11-.05.03.01.06,0,.08,0,.3.37.63.73.99,1.07.22.21.46.41.69.61-.01.04-.02.08,0,.12Z"/>
  <path class="cls-1" d="m38.17,64.22c.31.1.63-.05.81-.31.03-.04.06-.09.08-.14.06,0,.12-.01.14-.07.24-.62-.06-1.66-.53-2.12-.63-.61-1.18.18-1.24.79-.06.59.06,1.62.74,1.84Z"/>
  <path class="cls-1" d="m32.06,64.31s.03-.08.03-.12c.11-.13.19-.28.25-.49.12-.41.11-.86-.05-1.25-.3-.74-1.2-1.24-1.92-.72-.71.52-.76,1.69-.35,2.41.42.73,1.6,1.07,2.04.17Z"/>
  <path class="cls-1" d="m33.41,71.11c.31.11.66,0,.86-.23.2-.12.34-.27.39-.53.04-.26-.04-.54-.22-.73-.4-.43-1.13-.41-1.47.09-.33.5-.14,1.21.44,1.41Z"/>
  <path class="cls-1" d="m24.05,65.89c.11-.05.2-.13.25-.22.53-.57-.04-1.63-.7-1.84-.09-.03-.18.01-.25.07-.47.45-.59,1.25-.12,1.76.21.23.52.36.81.23Z"/>
  <path class="cls-1" d="m30.15,57.81c.41.14,1.02-.02,1.18-.41.05-.01.1-.04.14-.09.09-.09.13-.24.14-.37.01-.29-.14-.57-.36-.76-.47-.39-1.21-.36-1.54.19-.3.5-.15,1.24.44,1.44Z"/>
  <path class="cls-3" d="m58.72,96.23c.56-.85,1.63-.78,2.4-1.34.1-.07.02-.23-.09-.23-.89-.05-1.89.01-2.69-.42-.03-.02-.06-.01-.09,0,0,0,0,0-.01,0-.2-.61-.46-1.19-.78-1.73,0-.01,0-.02,0-.03.14-1.01,1.13-1.41,1.58-2.25.06-.11-.08-.21-.18-.17-.83.34-1.7.83-2.61.78-.02,0-.03,0-.04.01-.46-.48-.96-.91-1.52-1.28-.27-.95.43-1.72.47-2.65,0-.12-.16-.15-.23-.08-.59.66-1.15,1.46-1.98,1.83-.65-.25-1.34-.42-2.05-.52-.58-.73-.32-1.7-.68-2.53-.05-.11-.22-.07-.25.03-.24.82-.4,1.76-.94,2.45-.51.04-1,.12-1.48.24-.24.06-.47.13-.69.2-.79-.42-.98-1.37-1.65-1.95-.09-.08-.22.03-.21.14.14.83.4,1.73.22,2.56-.66.39-1.27.86-1.81,1.4-.88-.06-1.46-.81-2.3-1.04-.12-.03-.19.12-.13.21.48.68,1.1,1.37,1.31,2.2-.42.63-.76,1.32-1.01,2.06-.82.33-1.67-.1-2.53.06-.12.02-.12.2-.02.25.74.41,1.61.77,2.15,1.43-.05.37-.08.76-.08,1.14s.02.73.07,1.09c-.59.69-1.57.66-2.28,1.18-.1.07-.02.23.09.23.86.05,1.82,0,2.61.38.23.68.55,1.32.93,1.92-.2.93-1.13,1.33-1.56,2.13-.06.11.08.21.18.17.83-.34,1.69-.83,2.6-.79.47.47,1,.89,1.56,1.24.29.96-.42,1.75-.46,2.68,0,.12.16.16.23.08.6-.66,1.17-1.48,2.01-1.84.02,0,.04-.03.04-.04.59.2,1.21.34,1.85.42,0,.02.02.03.03.05.7.74.39,1.77.77,2.64.05.11.22.07.25-.03.25-.86.41-1.85,1.02-2.53.02-.03.03-.06.01-.09.01,0,.02-.02.02-.03.62-.07,1.22-.21,1.79-.4.02.03.04.05.08.06.95.36,1.12,1.42,1.84,2.04.09.08.22-.03.21-.13-.15-.88-.43-1.84-.18-2.72,0-.04,0-.07-.02-.09.01-.02.01-.05,0-.07.51-.32.99-.7,1.43-1.12.03.03.07.04.12.04,1.02-.09,1.63.79,2.54,1.04.12.03.19-.13.13-.21-.51-.73-1.19-1.47-1.35-2.37,0-.04-.03-.06-.06-.07,0-.03-.01-.06-.04-.07.13-.2.24-.4.36-.61.17-.33.33-.66.46-1.01.04,0,.08,0,.12-.02.88-.52,1.81,0,2.74-.16.12-.02.11-.19.02-.25-.78-.44-1.71-.81-2.24-1.55-.02-.03-.05-.04-.08-.04,0-.02-.03-.04-.05-.04.04-.37.07-.74.07-1.12,0-.24-.01-.47-.03-.71.03-.01.05-.03.07-.06Z"/>
  <path class="cls-1" d="m46.35,92.72c-.11-.23-.36-.32-.6-.29-.04,0-.08.01-.12.03-.02-.04-.07-.06-.11-.04-.48.19-.9.92-.9,1.42,0,.67.73.56,1.1.27.36-.28.87-.9.63-1.39Z"/>
  <path class="cls-1" d="m49.65,96.08s-.06.03-.08.05c-.13,0-.26.04-.41.12-.29.15-.53.4-.67.69-.25.56-.05,1.33.62,1.45.67.12,1.35-.48,1.53-1.08.18-.62-.25-1.46-.99-1.23Z"/>
  <path class="cls-1" d="m52.72,91.71c-.11-.23-.35-.36-.59-.36-.17-.04-.33-.05-.5.07-.17.12-.28.31-.29.51-.03.45.38.85.83.77.45-.08.75-.56.55-1Z"/>
  <path class="cls-1" d="m54.79,99.71c-.09-.04-.17-.04-.25-.03-.6,0-.89.89-.66,1.37.03.06.1.09.17.1.5.02,1.01-.34,1.05-.86.02-.24-.07-.48-.31-.58Z"/>
  <path class="cls-1" d="m47.04,100.61c-.14-.3-.55-.56-.86-.44-.03-.02-.07-.03-.13-.03-.1,0-.21.05-.28.12-.17.15-.25.38-.23.6.03.47.45.87.93.76.44-.1.77-.58.57-1.01Z"/>
  <rect class="cls-4" x="-1139.82" y="-3004.76" width="6467.34" height="6437.3"/>
</svg>