<?xml version="1.0" encoding="UTF-8"?>
<svg id="Calque_1" data-name="Calque 1" xmlns="http://www.w3.org/2000/svg" viewBox="0 0 200 128">
  <defs>
    <style>
      .cls-1 {
        fill: #76ac75;
      }

      .cls-1, .cls-2, .cls-3, .cls-4, .cls-5, .cls-6, .cls-7, .cls-8, .cls-9 {
        stroke: #000;
      }

      .cls-1, .cls-2, .cls-3, .cls-4, .cls-5, .cls-6, .cls-7, .cls-8, .cls-9, .cls-10, .cls-11 {
        stroke-linecap: round;
        stroke-linejoin: round;
      }

      .cls-2 {
        fill: #87ccf3;
      }

      .cls-3 {
        fill: #b2f0e9;
      }

      .cls-4 {
        fill: #b4eac3;
      }

      .cls-5 {
        fill: #ffd4ad;
      }

      .cls-6 {
        fill: #fab0b4;
      }

      .cls-7 {
        fill: #fff;
      }

      .cls-7, .cls-8, .cls-9 {
        stroke-width: 2px;
      }

      .cls-8 {
        fill: #f3d587;
      }

      .cls-9, .cls-10, .cls-11 {
        fill: none;
      }

      .cls-10 {
        stroke: #fff;
        stroke-width: 8px;
      }

      .cls-11 {
        stroke: #ff6d75;
        stroke-width: 3px;
      }
    </style>
  </defs>
  <g>
    <rect class="cls-8" x="46.34" y="84.16" width="107.31" height="8.29"/>
    <circle class="cls-2" cx="139.12" cy="76.56" r="14.04"/>
    <rect class="cls-4" x="92.92" y="71.67" width="29.88" height="20.41"/>
    <rect class="cls-3" x="84.2" y="44.18" width="20.41" height="24.77" transform="translate(-2.27 109.16) rotate(-59.48)"/>
    <rect class="cls-1" x="31.49" y="60.09" width="47.15" height="10.61" transform="translate(128 20.79) rotate(98.66)"/>
    <g>
      <path class="cls-5" d="m62.46,64.88c-.23.61-.38,1.31-.41,2.1-.04.97-.03,1.79.02,2.47-1.23.52-2.66.03-3.3-1.17-.68-1.26-.2-2.84,1.07-3.51.86-.46,1.85-.39,2.62.1Z"/>
      <path class="cls-5" d="m75.89,59.14c.63,1.19.25,2.65-.85,3.38-.54-.42-1.21-.89-2.04-1.39-.68-.42-1.35-.68-1.99-.83.02-.9.52-1.77,1.37-2.22,1.26-.67,2.84-.2,3.51,1.07Z"/>
      <path class="cls-5" d="m67.74,83.27c.07.14.15.27.23.4l-.12.07c-.3.04-.6.14-.88.29-.22.12-.43.27-.61.45-.04.04-.08.08-.11.12l-.44.24s-1.1.15-2.32-2.55c-.87-1.93,1.42-5.26,2.79-7,.17.07.36.14.54.2-.6,2.6-.29,5.51.94,7.79Z"/>
      <path class="cls-5" d="m67.85,83.74l-1.6.86s.07-.08.11-.12c.19-.18.39-.33.61-.45.28-.15.58-.25.88-.29Z"/>
      <path class="cls-5" d="m85.93,74.08l-.39.21c-.05,0-.11.02-.16.03-.26.05-.49.14-.71.26-.28.15-.52.34-.73.57l-.06.03c-.06-.14-.13-.27-.2-.41-1.26-2.36-3.6-4.28-6.18-5.19.03-.14.06-.27.09-.41,2.16-.18,6.38-.28,7.53,1.56,1.56,2.51.83,3.35.83,3.35Z"/>
      <path class="cls-5" d="m85.54,74.28l-1.61.86c.21-.23.45-.42.73-.57.22-.12.46-.21.71-.26.05-.01.11-.02.16-.03Z"/>
      <path class="cls-5" d="m76.05,86.96l-3.29,3.64c.84-1.04.82-2.57-.11-3.58,1.08.21,2.23.18,3.4-.06Z"/>
      <path class="cls-5" d="m86.27,83.02l-3.91.57.05-.17h0c.69-.73,1.23-1.54,1.61-2.4.29,1.07,1.2,1.83,2.25,1.99Z"/>
      <path class="cls-5" d="m83.67,74.77c.07.14.14.27.2.41,0,0,0,.02.01.03-.55.63-.81,1.51-.62,2.38l.39,1.8.33,1.5c0,.05.02.1.04.15-.38.86-.92,1.66-1.61,2.39h0c-.84.9-1.89,1.69-3.1,2.33-1.07.57-2.18.98-3.26,1.21-1.17.24-2.32.27-3.4.06-.02-.02-.04-.04-.05-.06l-1.41-1.46h0s-.94-.97-.94-.97c-.61-.63-1.44-.9-2.25-.82-.01-.02-.02-.03-.03-.05-.08-.13-.15-.26-.23-.4-1.22-2.29-1.54-5.2-.94-7.79.27.09.55.16.85.22.8.14,1.69.15,2.65-.06-.64,1.74-.52,3.86.34,5.47,1.42,2.66,4.32,2.92,6.98,1.5,2.66-1.42,4.05-3.98,2.63-6.63-.88-1.64-2.63-2.94-4.46-3.35.68-.69,1.13-1.44,1.43-2.19.11-.28.2-.57.27-.86,2.58.92,4.93,2.84,6.18,5.19Z"/>
      <path class="cls-5" d="m80.25,75.97c1.42,2.66.02,5.21-2.63,6.63-2.65,1.42-5.56,1.16-6.98-1.5-.86-1.61-.98-3.73-.34-5.47.74-.16,1.53-.46,2.36-.92.15-.08.29-.17.41-.26.15-.05.3-.12.45-.2.94-.48,1.69-1.04,2.26-1.63,1.84.41,3.58,1.7,4.46,3.35Z"/>
      <path class="cls-5" d="m80.25,75.97c1.42,2.66.02,5.21-2.63,6.63-2.65,1.42-5.56,1.16-6.98-1.5-.86-1.61-.98-3.73-.34-5.47.74-.16,1.53-.46,2.36-.92.15-.08.29-.17.41-.26.15-.05.3-.12.45-.2.94-.48,1.69-1.04,2.26-1.63,1.84.41,3.58,1.7,4.46,3.35Z"/>
      <path class="cls-5" d="m72.75,90.61l-.22.25c-1.09,1.05-2.84,1.02-3.89-.06l-2.34-2.42c-1.01-1.05-1.03-2.72-.05-3.78l1.6-.86s.1-.01.15-.02c.81-.08,1.65.2,2.25.82l.94.97h0s1.41,1.46,1.41,1.46c.02.02.04.04.05.06.92,1.01.95,2.54.11,3.58Z"/>
      <path class="cls-5" d="m67.85,83.74l-1.6.86s.07-.08.11-.12c.19-.18.39-.33.61-.45.28-.15.58-.25.88-.29Z"/>
      <path class="cls-5" d="m88.65,76.42l.71,3.3c.32,1.48-.63,2.95-2.11,3.27-.33.07-.66.08-.98.03-1.05-.16-1.96-.92-2.25-1.99-.02-.05-.03-.1-.04-.15l-.33-1.5-.39-1.8c-.19-.88.07-1.75.62-2.38.01-.02.03-.04.05-.06l1.61-.86c1.42-.22,2.8.71,3.11,2.14Z"/>
      <path class="cls-5" d="m85.54,74.28l-1.61.86c.21-.23.45-.42.73-.57.22-.12.46-.21.71-.26.05-.01.11-.02.16-.03Z"/>
      <path class="cls-5" d="m75.05,62.52c-.54-.42-1.21-.89-2.04-1.39-.68-.42-1.35-.68-1.99-.83-2.83-.68-5.07.8-5.07.8,0,0-2.48,1.03-3.49,3.78-.23.61-.38,1.31-.41,2.1-.04.97-.03,1.79.02,2.47.17,2.36.74,3.1.74,3.1,0,0,1.25,1.81,3.45,2.73.17.07.36.14.54.2.27.09.55.16.85.22.8.14,1.69.15,2.65-.06.74-.16,1.53-.46,2.36-.92.15-.08.29-.17.41-.26.15-.05.3-.12.45-.2.94-.48,1.69-1.04,2.26-1.63.68-.69,1.13-1.44,1.43-2.19.11-.28.2-.57.27-.86.03-.14.06-.27.09-.41.43-2.31-.37-4.3-.37-4.3,0,0-.3-.89-2.16-2.34Zm-4.93,6.38c-1,.53-2.02.58-2.27.1s.35-1.3,1.34-1.84,2.02-.58,2.27-.1-.35,1.3-1.35,1.83Z"/>
      <path d="m65.7,68.64c.2.37.06.83-.31,1.03s-.83.06-1.03-.31-.06-.83.31-1.03.83-.06,1.03.31Z"/>
      <path d="m73.67,64.38c.2.37.06.83-.31,1.03s-.83.06-1.03-.31-.06-.83.31-1.03.83-.06,1.03.31Z"/>
      <path class="cls-5" d="m71.46,67.06c.26.48-.35,1.3-1.35,1.83s-2.02.58-2.27.1.35-1.3,1.34-1.84,2.02-.58,2.27-.1Z"/>
      <line class="cls-5" x1="73.08" y1="74.45" x2="70.11" y2="68.9"/>
    </g>
    <g>
      <path class="cls-5" d="m133.05,39.95c-.61.25-1.22.62-1.83,1.14-.74.64-1.33,1.21-1.8,1.71-1.22-.55-1.84-1.94-1.4-3.22.47-1.36,1.95-2.09,3.31-1.62.92.32,1.55,1.1,1.72,2Z"/>
      <path class="cls-5" d="m146.45,45.9c-.44,1.28-1.77,1.99-3.06,1.69-.06-.68-.18-1.49-.37-2.45-.16-.79-.42-1.46-.75-2.04.68-.6,1.65-.83,2.57-.51,1.36.47,2.08,1.95,1.62,3.31Z"/>
      <path class="cls-5" d="m123.14,56.41c-.05.15-.1.29-.14.44l-.13-.05c-.24-.19-.52-.34-.82-.45-.23-.08-.49-.13-.75-.14-.06,0-.11,0-.16,0l-.48-.16s-.86-.71.29-3.45c.82-1.96,4.84-2.56,7.05-2.74.07.18.14.36.22.53-2.32,1.33-4.24,3.56-5.09,6.02Z"/>
      <path class="cls-5" d="m122.87,56.81l-1.73-.59c.05,0,.11,0,.16,0,.26.01.51.06.75.14.3.1.57.25.82.45Z"/>
      <path class="cls-5" d="m142.34,63.49l-.42-.14s-.08-.07-.13-.1c-.22-.15-.44-.27-.68-.35-.3-.1-.61-.15-.92-.15l-.07-.02c.06-.14.11-.28.16-.43.87-2.54.68-5.57-.41-8.1.12-.07.25-.14.36-.21,1.61,1.46,4.57,4.5,4,6.6-.78,2.87-1.9,2.9-1.9,2.9Z"/>
      <path class="cls-5" d="m141.92,63.35l-1.73-.59c.31,0,.62.05.92.15.24.08.46.2.68.35.05.03.09.06.13.1Z"/>
      <path class="cls-5" d="m126.11,65.04l-4.93.07c1.34-.09,2.45-1.16,2.56-2.53.58.94,1.39,1.76,2.37,2.45Z"/>
      <path class="cls-5" d="m136,69.86l-3.1-2.48.16-.08h0c1.01,0,1.97-.14,2.86-.45-.59.94-.53,2.13.07,3.01Z"/>
      <path class="cls-5" d="m140.29,62.3c-.05.15-.1.29-.16.43,0,0,0,.02-.01.03-.84.03-1.66.44-2.17,1.18l-1.05,1.51-.88,1.27s-.06.08-.08.13c-.89.31-1.85.46-2.86.46h0c-1.24,0-2.54-.24-3.84-.69-1.16-.4-2.21-.93-3.12-1.57-.98-.69-1.79-1.52-2.37-2.45,0-.03,0-.05,0-.08l.11-2.03h0s.07-1.36.07-1.36c.05-.87-.32-1.68-.94-2.22,0-.02,0-.03.01-.05.04-.14.09-.29.14-.44.84-2.46,2.77-4.69,5.09-6.02.12.26.26.51.42.77.44.69,1.04,1.34,1.86,1.91-1.71.72-3.19,2.25-3.79,3.99-.98,2.86.81,5.17,3.67,6.15,2.86.98,5.69.26,6.68-2.6.61-1.77.36-3.94-.59-5.57.97.02,1.84-.16,2.59-.45.29-.11.56-.24.81-.39,1.1,2.53,1.28,5.56.41,8.1Z"/>
      <path class="cls-5" d="m137.07,60.61c-.98,2.86-3.82,3.58-6.68,2.6-2.86-.98-4.65-3.3-3.67-6.15.6-1.73,2.07-3.27,3.79-3.99.63.43,1.39.81,2.29,1.11.16.05.32.09.48.12.14.07.29.14.45.2,1,.36,1.91.53,2.75.55.96,1.63,1.2,3.8.59,5.57Z"/>
      <path class="cls-5" d="m137.07,60.61c-.98,2.86-3.82,3.58-6.68,2.6-2.86-.98-4.65-3.3-3.67-6.15.6-1.73,2.07-3.27,3.79-3.99.63.43,1.39.81,2.29,1.11.16.05.32.09.48.12.14.07.29.14.45.2,1,.36,1.91.53,2.75.55.96,1.63,1.2,3.8.59,5.57Z"/>
      <path class="cls-5" d="m121.18,65.11h-.34c-1.52-.07-2.7-1.38-2.62-2.9l.18-3.38c.08-1.46,1.29-2.61,2.74-2.62l1.73.59s.08.06.12.1c.61.54.98,1.34.94,2.22l-.07,1.35h0s-.11,2.03-.11,2.03c0,.03,0,.05,0,.08-.11,1.37-1.22,2.44-2.56,2.53Z"/>
      <path class="cls-5" d="m122.87,56.81l-1.73-.59c.05,0,.11,0,.16,0,.26.01.51.06.75.14.3.1.57.25.82.45Z"/>
      <path class="cls-5" d="m142.48,67.1l-1.94,2.78c-.87,1.25-2.6,1.55-3.85.69-.28-.2-.51-.43-.69-.7-.6-.88-.66-2.07-.07-3.01.03-.04.05-.09.08-.13l.88-1.27,1.05-1.51c.51-.74,1.33-1.15,2.17-1.18.02,0,.05,0,.08,0l1.73.59c1.14.9,1.39,2.55.55,3.75Z"/>
      <path class="cls-5" d="m141.92,63.35l-1.73-.59c.31,0,.62.05.92.15.24.08.46.2.68.35.05.03.09.06.13.1Z"/>
      <path class="cls-5" d="m143.39,47.59c-.06-.68-.18-1.49-.37-2.45-.16-.79-.42-1.46-.75-2.04-1.44-2.55-4.05-3.17-4.05-3.17,0,0-2.46-1.12-5.17.02-.61.25-1.22.62-1.83,1.14-.74.64-1.33,1.21-1.8,1.71-1.61,1.74-1.77,2.67-1.77,2.67,0,0-.48,2.16.35,4.4.07.18.14.36.22.53.12.26.26.51.42.77.44.69,1.04,1.34,1.86,1.91.63.43,1.39.81,2.29,1.11.16.05.32.09.48.12.14.07.29.14.45.2,1,.36,1.91.53,2.75.55.97.02,1.83-.16,2.59-.45.29-.11.56-.24.81-.39.12-.07.25-.14.36-.21,1.99-1.26,2.91-3.21,2.91-3.21,0,0,.45-.83.24-3.19Zm-8.06.74c-1.07-.37-1.8-1.09-1.63-1.6.18-.52,1.19-.64,2.27-.27s1.8,1.09,1.63,1.6-1.19.63-2.27.26Z"/>
      <path d="m132.5,44.9c-.14.4-.57.61-.97.48-.4-.14-.61-.57-.48-.97s.57-.61.97-.47.61.57.47.97Z"/>
      <path d="m141.09,47.85c-.14.4-.57.61-.97.48s-.61-.57-.48-.97.57-.61.97-.47.61.57.47.97Z"/>
      <path class="cls-5" d="m137.6,48.06c-.18.51-1.19.63-2.27.26s-1.8-1.09-1.63-1.6c.18-.52,1.19-.64,2.27-.27s1.8,1.09,1.63,1.6Z"/>
      <line class="cls-5" x1="133.28" y1="54.3" x2="135.33" y2="48.32"/>
    </g>
    <rect class="cls-9" x="46.44" y="50.45" width="107.21" height="41.37"/>
    <g>
      <rect class="cls-7" x="46.44" y="50.45" width="107.21" height="5.67"/>
      <rect class="cls-7" x="153.66" y="46.94" width="5.51" height="68.74" transform="translate(312.83 162.61) rotate(180)"/>
      <rect class="cls-7" x="46.44" y="91.82" width="107.21" height="13.31"/>
      <circle class="cls-7" cx="156.41" cy="42.98" r="4.56"/>
      <rect class="cls-7" x="40.83" y="46.94" width="5.51" height="68.74" transform="translate(87.17 162.61) rotate(180)"/>
      <rect class="cls-7" x="57.47" y="56.12" width="5.51" height="35.7" transform="translate(120.46 147.94) rotate(180)"/>
      <rect class="cls-7" x="73.4" y="56.12" width="5.51" height="35.7" transform="translate(152.32 147.94) rotate(180)"/>
      <rect class="cls-7" x="89.33" y="56.12" width="5.51" height="35.7" transform="translate(184.17 147.94) rotate(180)"/>
      <rect class="cls-7" x="105.26" y="56.12" width="5.51" height="35.7" transform="translate(216.03 147.94) rotate(180)"/>
      <rect class="cls-7" x="121.18" y="56.12" width="5.51" height="35.7" transform="translate(247.88 147.94) rotate(180)"/>
      <rect class="cls-7" x="137.11" y="56.12" width="5.51" height="35.7" transform="translate(279.73 147.94) rotate(180)"/>
      <circle class="cls-7" cx="43.59" cy="42.98" r="4.56"/>
    </g>
    <polyline class="cls-9" points="43.59 38.43 43.59 12.33 66.55 12.33 66.55 20.19 52.26 28.52"/>
    <polyline class="cls-9" points="66.62 12.33 66.62 20.19 80.91 28.52"/>
    <line class="cls-9" x1="66.55" y1="20.19" x2="66.55" y2="27.69"/>
    <rect class="cls-2" x="64.42" y="27.86" width="4.26" height="4.26" transform="translate(40.7 -38.27) rotate(45)"/>
    <rect class="cls-4" x="50.09" y="27.86" width="4.26" height="4.26" transform="translate(82.22 -22.23) rotate(90)"/>
    <rect class="cls-6" x="78.4" y="27.98" width="5.04" height="5.04" rx="2.52" ry="2.52" transform="translate(45.26 -48.28) rotate(45)"/>
  </g>
  <g>
    <line class="cls-11" x1="52.89" y1="14.77" x2="147.11" y2="113.23"/>
    <line class="cls-11" x1="147.11" y1="14.77" x2="52.89" y2="113.23"/>
  </g>
  <rect class="cls-10" x="-5342.96" y="-5317" width="6467.34" height="6437.3"/>
</svg>