<?xml version="1.0" encoding="UTF-8"?>
<svg id="Calque_1" data-name="Calque 1" xmlns="http://www.w3.org/2000/svg" viewBox="0 0 128 128">
  <defs>
    <style>
      .cls-1 {
        fill: #f3d587;
      }

      .cls-1, .cls-2, .cls-3 {
        stroke: #000;
      }

      .cls-1, .cls-2, .cls-3, .cls-4, .cls-5 {
        stroke-linecap: round;
        stroke-linejoin: round;
      }

      .cls-2 {
        fill: #fff;
      }

      .cls-3, .cls-4, .cls-5 {
        fill: none;
      }

      .cls-6 {
        fill: #fab0b4;
      }

      .cls-4 {
        stroke: #ff6d75;
        stroke-width: 2px;
      }

      .cls-5 {
        stroke: #fff;
        stroke-width: 8px;
      }
    </style>
  </defs>
  <path class="cls-3" d="m71.8,94.42c2.61-.27.74-3.11-3.19-5.58s-4.92-5.92-7.93-15.14c-3-9.22-5.5-10.5-5.5-10.5-5.05-3.23-9.75-5.97-2.88-7.88,6.87-1.91,2.88-10.51,2.88-10.51,0,0,1.31-2.59-.33-2.7-1.65-.11-2.01-1.85-2.01-1.85,0,0,3.9-10.97-9.33-14.2-13.22-3.23-19.51,7.51-20.48,14.36-.97,6.85,2.66,13.75,13.6,15.92,0,0,1.42.57.48,3.04-.94,2.47-7.43,1.45-10.91,9.74,0,0-6.13,18.07,2.36,24.91,0,0,6.62,2.99,9.27,5.67,2.65,2.68,6.75,5.92,5.99,3.81s-1.86-2.77-1.86-2.77"/>
  <path class="cls-3" d="m49.05,102.25c-.79-.59-1.55-2.24-3.61-3.19"/>
  <path class="cls-3" d="m48.51,99.04s-.02-.02-.03-.02"/>
  <path class="cls-3" d="m34.43,70.26s.64,11.99.05,17.14c0,0,.92-.24,4.52,3.12.11.1.22.21.33.32"/>
  <path class="cls-3" d="m44.31,100.74s1.92,1.27,2.53,2.28h0"/>
  <path class="cls-3" d="m47.03,103.65c-.17.97-3.89-1.76-4.11-1.91h0"/>
  <path class="cls-3" d="m46.85,103.03h0"/>
  <path class="cls-3" d="m59.82,108.8c.35.19.74.45,1.16.75.27.18.54.39.85.62,5.46,4.15,3.19,10.2-2.8,6.15-5.98-4.06-30.05-.41-34.09-9.59-4.04-9.18,3.62-12.7,3.62-12.7"/>
  <line class="cls-3" x1="41.6" y1="93.35" x2="41.59" y2="93.35"/>
  <path class="cls-1" d="m58.41,91.56s-4.25,3.83-16.81,1.79c-.68-.82-1.43-1.68-2.27-2.5.72.04,15.3.7,18.15-1.81l.7,1.91.23.62Z"/>
  <path class="cls-3" d="m39.33,90.84h-.03"/>
  <path class="cls-1" d="m59.82,108.8c-3.4-2.01-3.57-.07-7.82-2.42l-4.97-2.73c.04-.18-.04-.4-.18-.62.18.13,2.6,1.8,2.2-.78.36.27.72.31,1.22,0,1.5-.98-1.45-3.01-1.76-3.21,1.93.93,3.57-1.45-.83-1.19-2.43.15-4.01-2.02-6.08-4.5,12.56,2.04,16.81-1.79,16.81-1.79,0,0,5.38,11.12,1.41,17.24Z"/>
  <path class="cls-3" d="m53.19,66.16s5.11,14.66,4.29,22.87"/>
  <path class="cls-3" d="m57.39,82.65l4.16,6.28s-.76,7.88.91,5.83c1.67-2.05,1.04-5.07,3.28-2.56,2.24,2.51,1.83,4.17,2.7,2.53.88-1.64-.83-3.73-.83-3.73"/>
  <path class="cls-3" d="m68.59,92.87s4.16,4.57,2.31.38l-1.46-2.25"/>
  <line class="cls-3" x1="58.18" y1="90.94" x2="61.36" y2="89.91"/>
  <path class="cls-3" d="m60.98,109.56s1.79-1.5,3.32-3.71"/>
  <path class="cls-3" d="m63.18,110.9s-.69-.96,2.42-1.38"/>
  <path class="cls-3" d="m67.87,88.3s11-2.79,9.95,5.09c-1.05,7.88-4.94,14.87-4.94,14.87"/>
  <path class="cls-3" d="m69.43,108.81s8.18-1.11,9.65-.15c1.05.69,3.02,8.99-14.04,6.67"/>
  <path class="cls-3" d="m64.03,109.76s.11-2.01.54-7.42c.43-5.41.63-5.61.63-5.61"/>
  <path class="cls-3" d="m68.06,96.96s-1.94-.55-3.44,6"/>
  <path class="cls-3" d="m37.12,46.98s-3.7,1.24-1.57,4.28c2.13,3.04,4.01.36,4.01.36"/>
  <circle cx="50.13" cy="42.14" r=".86"/>
  <path class="cls-3" d="m47.58,40.23s.24-2.22,2.55-2.08"/>
  <line class="cls-3" x1="39.56" y1="72.08" x2="40.68" y2="72.08"/>
  <line class="cls-3" x1="50.14" y1="71.15" x2="51.24" y2="70.89"/>
  <line class="cls-3" x1="37.22" y1="49.84" x2="37.96" y2="49.5"/>
  <polygon class="cls-6" points="52.94 48.63 52.94 48.63 52.94 48.63 52.94 48.63"/>
  <path class="cls-6" d="m53.87,49.84h-.03s0,0,0,0c0,0,.02,0,.03,0Z"/>
  <path class="cls-3" d="m50.99,30.12s-3.27,7.47-10.31,8.03c0,0,1.43,4.32-3.8,5.73"/>
  <path class="cls-2" d="m91.76,30.57v7.75c0,2.64-1.97,4.8-4.37,4.8h-8.72l-6.48,5.11v-5.11h-1.13c-2.4,0-4.37-2.16-4.37-4.8v-7.75c0-2.64,1.97-4.8,4.37-4.8h16.33c2.4,0,4.37,2.16,4.37,4.8Z"/>
  <g>
    <line class="cls-4" x1="93.56" y1="47.79" x2="64.91" y2="18.75"/>
    <line class="cls-4" x1="64.91" y1="47.79" x2="93.56" y2="18.75"/>
  </g>
  <line class="cls-3" x1="52.94" y1="49.85" x2="56.34" y2="49.67"/>
  <rect class="cls-5" x="-5124.25" y="-3043.9" width="6467.34" height="6437.3"/>
</svg>