<?xml version="1.0" encoding="UTF-8"?>
<svg id="Calque_1" data-name="Calque 1" xmlns="http://www.w3.org/2000/svg" viewBox="0 0 128 128">
  <defs>
    <style>
      .cls-1 {
        stroke: #000;
        stroke-width: 2px;
      }

      .cls-1, .cls-2 {
        fill: none;
        stroke-linecap: round;
        stroke-linejoin: round;
      }

      .cls-2 {
        stroke: #fff;
        stroke-width: 8px;
      }
    </style>
  </defs>
  <g>
    <path class="cls-1" d="m75.27,100.03c2.7-1.33,6.22-3.64,7.49-7.49,1.38-4.19-.78-7.54-3.54-14.98-3.07-8.28-4.41-15.01-5.41-19.97-2.22-11.09-4.49-31.82-12.56-31.82-8.77,0-10.34,20.73-12.56,31.82-.99,4.96-2.34,11.69-5.41,19.97-2.75,7.43-4.92,10.79-3.54,14.98,1.27,3.85,4.79,6.16,7.49,7.49"/>
    <path class="cls-1" d="m66.81,98.1c-1.27,1.68-3.28,2.76-5.55,2.76s-4.25-1.07-5.53-2.73"/>
    <path class="cls-1" d="m53.46,95.41c-4.19.69-7.37.03-7.73-1.46-.24-1.01.47-2.86,2.86-2.55,3.48.45,3.85,3.47,7.13,6.74"/>
    <path class="cls-1" d="m69.12,95.41c4.19.69,7.37.03,7.73-1.46.24-1.01-.47-2.86-2.86-2.55-3.48.45-3.85,3.47-7.13,6.74"/>
  </g>
  <rect class="cls-2" x="-995.08" y="-963.94" width="6467.34" height="6437.3"/>
</svg>