<?xml version="1.0" encoding="UTF-8"?>
<svg id="Calque_1" data-name="Calque 1" xmlns="http://www.w3.org/2000/svg" viewBox="0 0 128 128">
  <defs>
    <style>
      .cls-1, .cls-2, .cls-3, .cls-4 {
        stroke: #000;
      }

      .cls-1, .cls-5 {
        fill: none;
        stroke-linecap: round;
        stroke-linejoin: round;
      }

      .cls-2 {
        fill: #fff;
      }

      .cls-2, .cls-3, .cls-4 {
        stroke-miterlimit: 10;
        stroke-width: 2px;
      }

      .cls-3 {
        fill: #baa584;
      }

      .cls-4 {
        fill: #a07637;
      }

      .cls-5 {
        stroke: #fff;
        stroke-width: 8px;
      }
    </style>
  </defs>
  <g>
    <path class="cls-4" d="m69.97,18.73c-1.84-1.16-2.65-2.84-2.88-3.23-2.09-3.62-16.72-5.32-29.11,1.62-8.26,4.63-12.41,11.35-14.55,14.91-1.75,2.92-5.28,9.61-6.11,18.69-.57,6.31.81,6.66,2.08,16.93.06.48.19,1.54.97,2.12.8.59,1.62.19,3.05.54,1.32.32,2.12,1.02,2.48,1.27,1.46,1.02,12.38,6.16,24.91,4.35,11.85-1.71,22.37-9.23,27.95-18.92,1.63-2.83,4.64-8.22,4.49-15.63-.12-5.82-2.08-9.74-4.49-14.55-2.99-5.97-5.12-6.78-5.93-7.01-.65-.18-1.67-.32-2.88-1.08Z"/>
    <path d="m59.52,21.38c.52-.15.45-.39,1.92-1.46,1.04-.75,1.32-.81,1.4-1.17.18-.8-.93-1.83-1.92-2.27-.16-.07-2.16-.93-3.73.29-.11.08-1.5,1.2-1.22,2.62.3,1.52,2.32,2.35,3.55,1.98Z"/>
    <path d="m71.11,24c-.55.44-.37,1.38-.17,2.45.2,1.05.61,3.24,1.75,3.38.77.09,1.71-.75,1.81-1.57.07-.59-.35-.73-.7-1.86-.35-1.16-.06-1.5-.47-1.98-.51-.61-1.65-.86-2.21-.41Z"/>
    <path d="m64.58,25.29c-1.36.01-2.2,1.37-2.51,1.86-.69,1.11-1.17,2.94-.47,3.5.48.37,1.32.04,2.16-.29.68-.27,1.7-.68,2.33-1.75.23-.39.83-1.42.35-2.33-.38-.71-1.23-1-1.86-.99Z"/>
    <path class="cls-1" d="m66.31,64.46c-7.83,4.8-13.71,5.25-17.72,4.71-3.58-.49-7.88-2.06-15.16-2.25-1.81-.05-4.26-.02-6.96,1.23-2.62,1.21-6.36,4.83-7.27,6.01"/>
    <path class="cls-1" d="m52.77,72.9c-2.93.3-5.24.16-6.72,0-4.18-.45-5.57-1.47-11.12-2.31-2.86-.43-4.32-.64-6.09-.31-3.13.57-5.39,2.26-6.71,3.46"/>
    <path class="cls-1" d="m28.32,31.87c-1.06,1.26-2.54,3.26-3.78,5.98-2.47,5.44-2.45,10.48-2.41,12.59.07,4.32.73,8.81.73,8.81.4,2.69.73,3.78.31,5.25-.81,2.86-3.69,4.52-5.88,5.46"/>
    <path class="cls-1" d="m27.06,37.22c-1.14,3.08-1.65,5.79-1.89,7.76-.4,3.21-.72,5.83.1,9.02.79,3.06,1.83,3.53,1.78,6.09-.01.79-.09,3.33-1.89,5.46-.49.59-1,.99-1.36,1.26"/>
    <path class="cls-1" d="m21.41,25.77c.79-.83,2.13-2.06,4.09-3.16,3.13-1.75,5.38-1.78,8.57-2.94"/>
    <path class="cls-1" d="m41.55,15.18c-.15.13-.3.26-.45.38"/>
    <path class="cls-1" d="m38.95,18.41c-2.3,2.66-4.57,4.23-6.2,5.16-3.29,1.88-5.61,2.13-8.64,4.44-1.79,1.36-2.94,2.77-3.61,3.7"/>
    <path class="cls-1" d="m79.57,51c-.55,1.09-1.4,2.91-2.2,5.25-1.4,4.1-1.31,5.94-2.66,8.92-.62,1.37-1.73,3.37-3.79,5.55"/>
    <path class="cls-1" d="m62.4,75.91c.27-.25.68-.62,1.18-1.07,2.08-1.83,3.59-2.87,4.17-3.31.89-.69,1.42-1.41,2.93-4.82"/>
  </g>
  <g>
    <path class="cls-3" d="m107.79,68.37c-.08-1.52-.4-2.88-.83-4.04-.91-2.51-2.27-4.12-2.59-4.5-.41-.48-4.35-4.1-8.59-5.23-.88-.23.05.52-6.6.62-6.15.09-6.64.13-7.52.34-3.81.9-6.64,2.87-7.17,3.25-2.69,1.91-2.7,2.94-4.78,3.58-2.16.67-3.05-.18-5.29.68-1.45.56-1.92,1.23-3.59,2.57-2.95,2.35-3.9,2.2-6.32,3.92-1.65,1.18-4.8,3.43-6.31,7.34-.19.49-.96,2.57-.97,5.08,0,1.71.35,3.61,1.48,5.34,1.7,2.59,4.28,3.44,7.85,4.61,3.62,1.19,7.3,1.38,14.52,1.71,3.24.15,4.86.22,5.63.17,6.19-.42,10.66-2.88,15.54-5.64,4.76-2.68,7.14-4.02,9.56-6.65,2.14-2.33,6.31-6.85,5.98-13.15Zm-8.63,4.89c-1.35,2.73-3.12,4.34-4.81,5.84-.95.86-4.4,3.81-9.96,6.01-5.35,2.12-9.8,2.4-13.05,2.58-3.8.21-6.56.33-9.95-.86-2.09-.73-6.81-2.38-7.39-5.84-.2-1.22.15-2.41.67-3.45.54-1.06,1.26-1.95,1.74-2.56,1.42-1.8,3.06-2.75,3.95-3.26,1.89-1.08,2.1-.68,5.32-2.06.48-.21,2.67-1.16,5.32-2.75.54-.32,1.59-.96,2.92-1.89,1.48-1.04,1.72-1.34,2.58-1.89.94-.6,1.85-1,4.12-1.71,3.51-1.11,5.27-1.67,7.21-1.89,2.51-.29,4.24-.5,6.35.17.66.21,4.04,1.27,5.75,4.19.24.4.44.83.6,1.3,1.08,3.13-.35,6.02-1.37,8.07Z"/>
    <path class="cls-2" d="m99.16,73.26c-1.35,2.73-3.12,4.34-4.81,5.84-.95.86-4.4,3.81-9.96,6.01-5.35,2.12-9.8,2.4-13.05,2.58-3.8.21-6.56.33-9.95-.86-2.09-.73-6.81-2.38-7.39-5.84-.2-1.22.15-2.41.67-3.45.54-1.06,1.26-1.95,1.74-2.56,1.42-1.8,3.06-2.75,3.95-3.26,1.89-1.08,2.1-.68,5.32-2.06.48-.21,2.67-1.16,5.32-2.75.54-.32,1.59-.96,2.92-1.89,1.48-1.04,1.72-1.34,2.58-1.89.94-.6,1.85-1,4.12-1.71,3.51-1.11,5.27-1.67,7.21-1.89,2.51-.29,4.24-.5,6.35.17.66.21,4.04,1.27,5.75,4.19.24.4.44.83.6,1.3,1.08,3.13-.35,6.02-1.37,8.07Z"/>
    <path class="cls-4" d="m108.87,76.24c-.28,11.14-8.45,18.12-9.97,19.36-5.1,4.18-10.35,5.34-14.31,6.22-6.92,1.53-12.43.85-17.05.29-7.22-.89-10.69-2.59-11.57-3.04-2.89-1.47-7.19-5.87-7.8-9.58-.87-5.35-1.37-6.57-.94-7.51,0,1.71.35,3.61,1.48,5.34,1.7,2.59,4.28,3.44,7.85,4.61,3.62,1.19,7.3,1.38,14.52,1.71,3.24.15,4.86.22,5.63.17,6.19-.42,10.66-2.88,15.54-5.64,4.76-2.68,7.14-4.02,9.56-6.65,2.14-2.33,6.31-6.85,5.98-13.15-.08-1.52-.4-2.88-.83-4.04,1.92,3.23,1.98,9.27,1.91,11.91Z"/>
    <path class="cls-1" d="m101.78,90.2c1.06-4.21,2.74-7.01,4.04-8.76,2.33-3.15,4.43-4.25,5.51-7.39.91-2.62.57-5.1.2-6.7"/>
    <path class="cls-1" d="m108.74,69.33c.66-1.51.66-2.64.53-3.41-.17-.98-.58-1.56-.75-2.95-.11-.84-.07-1.55-.03-2.01"/>
    <path class="cls-1" d="m61.41,101.2c-3.62-.65-6.26-1.93-7.86-2.87-2.32-1.36-3.96-2.86-4.75-3.6-1.18-1.1-2.11-2.15-2.7-2.87-.57-.69-1.04-1.31-1.39-1.8"/>
    <path class="cls-1" d="m44.3,84.16c.19,2.83,1.16,4.4,2.03,5.32.71.75,1.45,1.15,2.28,1.55"/>
  </g>
  <rect class="cls-5" x="-264.98" y="-1635.28" width="3385.57" height="2571.67"/>
</svg>