<?xml version="1.0" encoding="UTF-8"?>
<svg id="Calque_1" data-name="Calque 1" xmlns="http://www.w3.org/2000/svg" viewBox="0 0 243.08 216.26">
  <defs>
    <style>
      .cls-1 {
        fill: #d6d7d7;
      }

      .cls-1, .cls-2, .cls-3, .cls-4, .cls-5, .cls-6 {
        stroke: #010101;
      }

      .cls-1, .cls-2, .cls-3, .cls-7 {
        stroke-linecap: round;
        stroke-linejoin: round;
      }

      .cls-2, .cls-8, .cls-9, .cls-5 {
        fill: #fff;
      }

      .cls-3, .cls-7, .cls-6 {
        fill: none;
      }

      .cls-10 {
        fill: #f7e7d5;
      }

      .cls-11 {
        fill: #010101;
      }

      .cls-12 {
        fill: #ed6d76;
      }

      .cls-13, .cls-4 {
        fill: #f5afb5;
      }

      .cls-14 {
        fill: #566985;
      }

      .cls-9 {
        font-family: Arial-Black, 'Arial Black';
        font-size: 14px;
        font-weight: 800;
      }

      .cls-15 {
        fill: #3b2c15;
        font-family: Arial-BoldMT, Arial;
        font-size: 15.44px;
        font-weight: 700;
      }

      .cls-15, .cls-16 {
        isolation: isolate;
      }

      .cls-4, .cls-5, .cls-17, .cls-6 {
        stroke-miterlimit: 10;
      }

      .cls-17 {
        fill: #cfaa57;
        stroke: #cfaa57;
      }

      .cls-7 {
        stroke: #fff;
        stroke-width: 8px;
      }

      .cls-18 {
        letter-spacing: .02em;
      }
    </style>
  </defs>
  <rect class="cls-7" x="-3627.88" y="-4046.05" width="6467.34" height="6437.3"/>
  <g id="Pictos">
    <g>
      <g>
        <path class="cls-5" d="m88.35,65.8c15.81,0,28.62-12.8,28.62-28.59s-12.81-28.59-28.62-28.59-28.62,12.8-28.62,28.59,12.82,28.59,28.62,28.59Z"/>
        <path class="cls-4" d="m93.43,46.95c0,3.36-2.72,6.09-6.09,6.09s-6.09-2.72-6.09-6.09,2.72-6.09,6.09-6.09,6.09,2.72,6.09,6.09Z"/>
        <g>
          <path class="cls-13" d="m90.14,46.95c0,1.54-1.26,2.8-2.8,2.8s-2.8-1.26-2.8-2.8,1.26-2.8,2.8-2.8,2.8,1.26,2.8,2.8Z"/>
          <path class="cls-6" d="m90.14,46.95c0,1.54-1.26,2.8-2.8,2.8s-2.8-1.26-2.8-2.8,1.26-2.8,2.8-2.8,2.8,1.26,2.8,2.8Z"/>
        </g>
        <path class="cls-8" d="m55.38,91.89s2.05-4.14,5.05-11.04c-2.53-.69-4.05-6.43-11.12-4.59-14.22,3.69-38.73-24.57-13.3-43.94,26.5-20.17,37.75-2.68,41.18,9.35,1.98,1.72,2.38-.06,4.23.25,1.61.27.95,3.44.39,4.37.15.11.31.25.47.35.55-.59,1.88-1.9,2.64-1.45.97.58.58,3.66.58,3.66,0,0,2.89-1.54,3.47,0,.27.73-.5,1.44-1.39,1.94,2.46,2.44,3.14,5.16.86,11.46-.78,2.13-3.47,4.44-5.52,6.32l9.88,7.01"/>
        <path class="cls-3" d="m55.38,91.89s2.05-4.14,5.05-11.04c-2.53-.69-4.05-6.43-11.12-4.59-14.22,3.69-38.73-24.57-13.3-43.94,26.5-20.17,37.75-2.68,41.18,9.35,1.98,1.72,2.38-.06,4.23.25,1.61.27.95,3.44.39,4.37.15.11.31.25.47.35.55-.59,1.88-1.9,2.64-1.45.97.58.58,3.66.58,3.66,0,0,2.89-1.54,3.47,0,.27.73-.5,1.44-1.39,1.94,2.46,2.44,3.14,5.16.86,11.46-.78,2.13-3.47,4.44-5.52,6.32l9.88,7.01"/>
        <path class="cls-3" d="m70.49,47.41s5.88.44,4.87-3.56"/>
        <path class="cls-3" d="m68.65,33.06s-4.06,2.7-3.67,8.3"/>
        <path class="cls-3" d="m59.77,54.29h1.37"/>
        <path class="cls-2" d="m92.76,54.29s1.07,7.25,3.77,5.12c2.9-2.29-3.77-5.12-3.77-5.12Z"/>
        <path class="cls-2" d="m91.5,61.12s-1.48,7.18,1.78,6.11c3.52-1.16-1.78-6.11-1.78-6.11Z"/>
        <path class="cls-3" d="m59.74,35.04c1.23,5.11,1.64,10.8-.88,14.7,0,0-6.25,1.86-1.89,6.62,4.37,4.76,7.15,1.14,7.15,1.14"/>
        <path class="cls-3" d="m62.19,58.72s6.68,10.28-7.86,17.6"/>
        <path class="cls-3" d="m66.03,25.36s1.28,5.29-6.29,9.68l-4.31,2.17"/>
      </g>
      <path class="cls-17" d="m134.04,28.95c1.49-1.59,3.54-2.39,6.16-2.39,2.41,0,4.34.68,5.8,2.04,1.45,1.36,2.18,3.1,2.18,5.21,0,1.28-.26,2.32-.79,3.12-.53.8-1.61,1.97-3.24,3.52-1.19,1.12-1.95,2.07-2.32,2.86-.23.51-.39,1.17-.48,2s-.77,1.46-1.61,1.46c-.95,0-1.7-.83-1.61-1.78.1-.93.27-1.74.53-2.41.41-1.05,1.32-2.27,2.74-3.64l1.48-1.43c.45-.41.8-.84,1.07-1.28.51-.79.75-1.61.75-2.45,0-1.18-.36-2.21-1.09-3.08-.72-.87-1.92-1.31-3.58-1.31-2.06,0-3.49.75-4.28,2.25-.3.58-.52,1.31-.65,2.23-.11.79-.79,1.38-1.6,1.38-1,0-1.76-.89-1.61-1.87.28-1.76.98-3.24,2.1-4.43h.01v-.03Zm5.76,21.57c1,0,1.8.81,1.8,1.8v.16c0,1-.81,1.8-1.8,1.8s-1.8-.81-1.8-1.8v-.16c0-1,.81-1.8,1.8-1.8Z"/>
      <g>
        <g>
          <path class="cls-10" d="m190.83,55.52l-.13.16.13-.16Z"/>
          <path class="cls-10" d="m190.85,56.36l-.19.2.19-.2Z"/>
          <path class="cls-10" d="m190.65,57.33l.18-.11.02-.02-.2.13Z"/>
          <path class="cls-10" d="m190.85,57.77l-.17.08.17-.08Z"/>
          <path class="cls-10" d="m190.88,58.17l-.25.04.25-.04Z"/>
          <path class="cls-1" d="m190.76,68.84c15.83,0,28.66-12.84,28.66-28.69s-12.83-28.69-28.66-28.69-28.66,12.84-28.66,28.69,12.83,28.69,28.66,28.69h0Z"/>
          <path class="cls-8" d="m190.76,62.89c12.55,0,22.72-10.18,22.72-22.75s-10.17-22.75-22.72-22.75-22.72,10.18-22.72,22.75,10.17,22.75,22.72,22.75Z"/>
          <path class="cls-14" d="m171.45,59.42c.22.22.46.46.7.67-.24-.22-.46-.44-.7-.67Z"/>
          <path class="cls-14" d="m172.14,60.1c.39.36.8.72,1.21,1.07-.42-.34-.81-.7-1.21-1.07Z"/>
          <path class="cls-14" d="m173.36,61.16c.33.27.67.54,1.02.81-.34-.26-.68-.52-1.02-.81Z"/>
          <path class="cls-11" d="m190.46,22.85c.68,0,1.24-.55,1.24-1.24s-.55-1.24-1.24-1.24-1.24.55-1.24,1.24.55,1.24,1.24,1.24Z"/>
          <path class="cls-11" d="m181.71,25.2c-.59.34-1.35.13-1.7-.46-.34-.59-.13-1.35.45-1.68.59-.34,1.35-.13,1.68.46s.13,1.35-.45,1.7h.01Z"/>
          <path class="cls-11" d="m175.29,31.62c-.34.59-1.09.79-1.7.46-.59-.34-.79-1.09-.45-1.7.34-.59,1.09-.79,1.7-.46.59.34.79,1.09.45,1.7Z"/>
          <path class="cls-11" d="m171.7,41.63c.68,0,1.24-.55,1.24-1.24s-.55-1.24-1.24-1.24-1.24.55-1.24,1.24.55,1.24,1.24,1.24Z"/>
          <path class="cls-11" d="m174.83,50.85c-.59.34-1.35.13-1.7-.46-.34-.59-.13-1.35.45-1.7.59-.34,1.35-.13,1.7.46.34.59.13,1.35-.45,1.7Z"/>
          <path class="cls-11" d="m182.16,57.28c-.34.59-1.09.79-1.68.46-.59-.34-.79-1.09-.45-1.7.34-.59,1.09-.79,1.7-.46.59.34.79,1.09.45,1.7h-.01Z"/>
          <path class="cls-11" d="m190.46,60.4c.68,0,1.24-.55,1.24-1.24s-.55-1.24-1.24-1.24-1.24.55-1.24,1.24.55,1.24,1.24,1.24Z"/>
          <path class="cls-11" d="m200.46,57.73c-.59.34-1.35.13-1.7-.46-.34-.59-.13-1.35.45-1.7.59-.34,1.35-.13,1.68.46.34.59.13,1.35-.45,1.7h.01Z"/>
          <path class="cls-11" d="m207.78,50.4c-.34.59-1.09.79-1.7.46-.59-.34-.79-1.09-.45-1.7.34-.59,1.09-.79,1.7-.46.59.34.79,1.09.45,1.7Z"/>
          <path class="cls-11" d="m209.22,41.63c.68,0,1.24-.55,1.24-1.24s-.55-1.24-1.24-1.24-1.24.55-1.24,1.24.55,1.24,1.24,1.24Z"/>
          <path class="cls-11" d="m200.91,24.75c-.34.59-1.09.79-1.68.46s-.79-1.09-.45-1.7c.34-.59,1.09-.79,1.7-.46.59.34.79,1.09.45,1.68h-.01s0,.01,0,.01Z"/>
          <path class="cls-11" d="m207.05,31.62c-.34.59-1.09.79-1.68.46s-.79-1.09-.45-1.7c.34-.59,1.09-.79,1.7-.46.59.34.79,1.09.45,1.68h-.01s0,.01,0,.01Z"/>
          <path class="cls-11" d="m191.66,38.97v15.81c0,.41-.39.74-.87.74s-.87-.33-.87-.74v-15.81c0-.41.39-.74.87-.74s.87.33.87.74Z"/>
          <path class="cls-11" d="m190.79,31.01c.61,0,1.12.31,1.12.69v9.64c0,.39-.5.69-1.12.69s-1.12-.31-1.12-.69v-9.64c0-.39.5-.69,1.12-.69Z"/>
          <path class="cls-11" d="m193.22,40.47c0,.41-.1.78-.27,1.12-.27.53-.74.95-1.3,1.16-.27.11-.57.16-.87.16s-.6-.06-.87-.16c-.33-.13-.61-.32-.85-.55-.18-.18-.33-.39-.44-.6-.17-.33-.27-.72-.27-1.12s.1-.78.27-1.12c.27-.53.74-.95,1.29-1.16.27-.11.57-.16.87-.16s.6.06.87.16c.33.13.61.32.85.55.18.18.33.39.44.61.17.34.27.72.27,1.12h.01s0-.01,0-.01Z"/>
        </g>
        <g class="cls-16">
          <text class="cls-15" transform="translate(176.04 88.11)"><tspan x="0" y="0">24h</tspan></text>
        </g>
      </g>
    </g>
    <g>
      <path class="cls-6" d="m19.59,133.98h203.79"/>
      <path class="cls-6" d="m19.08,129.62v8.73"/>
      <path class="cls-6" d="m121.49,129.62v8.73"/>
      <path class="cls-6" d="m39.57,130.48v7.01"/>
      <path class="cls-6" d="m60.05,130.48v7.01"/>
      <path class="cls-6" d="m80.52,130.48v7.01"/>
      <path class="cls-6" d="m101.01,130.48v7.01"/>
      <path class="cls-6" d="m141.98,130.48v7.01"/>
      <path class="cls-6" d="m162.45,130.48v7.01"/>
      <path class="cls-6" d="m182.92,130.48v7.01"/>
      <path class="cls-6" d="m203.41,130.48v7.01"/>
      <path class="cls-6" d="m223.89,129.62v8.73"/>
      <path class="cls-11" d="m20.98,120.53c.27.5.4,1.17.4,2.04s-.12,1.49-.36,2.03c-.36.77-.93,1.15-1.73,1.15-.72,0-1.26-.31-1.62-.94-.3-.52-.44-1.23-.44-2.11,0-.69.09-1.28.27-1.76.33-.91.93-1.38,1.8-1.38.78,0,1.34.32,1.68.96h.01Zm-.77,4.01c.23-.34.34-1,.34-1.94,0-.69-.09-1.24-.25-1.68-.17-.44-.5-.67-.98-.67-.44,0-.78.21-.98.63-.2.42-.31,1.03-.31,1.85,0,.61.06,1.11.2,1.47.2.57.54.86,1.03.86.39,0,.71-.18.94-.52h0Z"/>
      <path class="cls-11" d="m37.75,121.48v-.58c.54-.06.93-.15,1.14-.27s.38-.42.49-.88h.6v5.99h-.81v-4.25h-1.42s0-.01,0-.01Z"/>
      <path class="cls-11" d="m78.72,125.16c-.32-.39-.48-.86-.48-1.43h.79c.04.39.11.67.22.86.2.32.55.48,1.07.48.4,0,.72-.11.95-.32s.36-.48.36-.82c0-.41-.12-.71-.38-.86-.25-.15-.61-.25-1.05-.25h-.31v-.67c.08,0,.15.01.2.02s.11,0,.18,0c.28,0,.52-.04.7-.13.32-.15.48-.44.48-.84,0-.3-.11-.53-.32-.69-.21-.17-.46-.25-.74-.25-.5,0-.86.17-1.05.5-.11.19-.17.44-.18.79h-.74c0-.44.09-.83.27-1.14.31-.56.86-.84,1.63-.84.61,0,1.09.13,1.43.41s.5.67.5,1.19c0,.36-.1.67-.3.9-.12.15-.28.25-.48.33.32.09.57.25.74.5s.27.55.27.91c0,.58-.19,1.04-.57,1.4s-.92.54-1.61.54-1.23-.2-1.55-.59h-.04s0,.04,0,.04Z"/>
      <path class="cls-11" d="m58.15,124.38c.19-.39.55-.73,1.09-1.04l.81-.46c.36-.21.61-.39.77-.54.23-.23.34-.5.34-.8,0-.36-.1-.63-.31-.83s-.49-.31-.84-.31c-.52,0-.88.2-1.07.59-.11.21-.17.5-.18.88h-.77c0-.52.1-.95.29-1.28.33-.59.91-.88,1.74-.88.69,0,1.2.19,1.51.55s.48.79.48,1.24-.17.9-.51,1.23c-.2.2-.54.44-1.05.72l-.58.32c-.28.15-.49.3-.65.44-.28.25-.46.51-.53.81h3.28v.71h-4.13c.04-.52.13-.96.32-1.35v.02h0Z"/>
      <path class="cls-11" d="m100.71,125.75v-1.47h-2.64v-.74l2.77-3.83h.65v3.9h.88v.67h-.88v1.47h-.77Zm-.01-2.13v-2.72l-1.93,2.72h1.93Z"/>
      <path class="cls-11" d="m120.31,124.05c.06.44.25.73.6.9.18.09.39.12.62.12.44,0,.78-.15,1-.44.22-.29.32-.6.32-.95,0-.42-.13-.74-.39-.98s-.57-.34-.92-.34c-.27,0-.49.06-.67.15s-.34.25-.48.42l-.65-.04.46-3.24h3.13v.73h-2.56l-.25,1.67c.15-.11.28-.19.4-.25.22-.09.49-.15.78-.15.55,0,1.02.18,1.41.53.39.36.58.81.58,1.35s-.18,1.07-.53,1.51-.91.65-1.68.65c-.49,0-.92-.13-1.3-.41-.38-.27-.59-.69-.63-1.28h.79-.01Z"/>
      <path class="cls-11" d="m143.65,120.06c.27.34.4.71.4,1.07h-.74c-.04-.23-.12-.42-.21-.55-.18-.25-.46-.38-.84-.38-.42,0-.77.2-1.01.59-.25.39-.39.95-.42,1.67.18-.25.39-.44.65-.58.25-.11.51-.17.81-.17.5,0,.94.17,1.32.48.38.32.57.8.57,1.44,0,.54-.18,1.03-.53,1.45s-.86.63-1.52.63c-.57,0-1.05-.21-1.47-.65-.41-.44-.61-1.14-.61-2.16,0-.74.09-1.38.28-1.91.36-1,.99-1.49,1.92-1.49.67,0,1.14.18,1.41.52h-.01s.01.03.01.03Zm-.57,4.6c.2-.27.3-.59.3-.94,0-.31-.09-.6-.27-.88-.18-.27-.5-.42-.96-.42-.32,0-.61.11-.86.32s-.36.54-.36.98c0,.38.11.69.33.96s.53.39.93.39.7-.13.9-.4h-.01s0,0,0,0Z"/>
      <path class="cls-11" d="m164.55,119.83v.67c-.19.19-.46.51-.78.98s-.61.96-.86,1.51c-.25.52-.44,1-.55,1.43-.08.27-.19.72-.31,1.34h-.83c.19-1.15.61-2.3,1.26-3.43.39-.67.79-1.24,1.21-1.73h-3.33v-.77h4.2-.01Z"/>
      <path class="cls-11" d="m181.22,122.04c-.22-.22-.33-.51-.33-.88,0-.44.17-.83.49-1.15.32-.32.79-.48,1.38-.48s1.03.15,1.35.46c.32.3.49.65.49,1.07,0,.38-.1.67-.29.91-.11.13-.27.27-.5.39.25.11.44.25.59.4.27.27.4.65.4,1.09,0,.53-.18.98-.53,1.35s-.86.55-1.51.55c-.59,0-1.09-.15-1.49-.48-.4-.32-.61-.77-.61-1.38,0-.36.09-.67.27-.92s.44-.46.78-.6c-.21-.09-.38-.2-.49-.31h0s0-.02,0-.02Zm2.44,2.72c.23-.19.34-.48.34-.84s-.12-.69-.36-.88c-.23-.2-.54-.3-.92-.3s-.65.1-.88.31-.34.48-.34.86c0,.31.1.59.31.81.21.22.53.34.96.34.36,0,.65-.1.88-.29h.01,0Zm-.13-2.97c.19-.19.28-.41.28-.67,0-.22-.09-.44-.27-.62-.18-.19-.46-.27-.82-.27s-.63.09-.79.27c-.15.19-.25.41-.25.67,0,.29.1.5.31.67.21.17.46.25.74.25.33,0,.6-.09.79-.27h0s0-.02,0-.02Z"/>
      <path class="cls-11" d="m202.13,124.12c.02.42.19.71.48.86.15.09.33.12.52.12.36,0,.67-.15.92-.46s.44-.91.54-1.84c-.17.27-.38.46-.62.56-.25.11-.51.17-.8.17-.58,0-1.04-.18-1.38-.54-.33-.36-.51-.83-.51-1.4s.17-1.03.5-1.44.82-.62,1.47-.62c.88,0,1.49.4,1.82,1.19.19.44.28.98.28,1.63,0,.73-.11,1.38-.33,1.96-.36.94-.99,1.42-1.87,1.42-.59,0-1.03-.15-1.34-.46s-.46-.69-.46-1.17h.77-.01s.01.01.01.01Zm1.97-1.53c.25-.2.38-.54.38-1.03,0-.44-.11-.78-.33-.98-.22-.21-.51-.32-.86-.32-.36,0-.67.12-.88.38s-.32.58-.32,1c0,.39.1.71.29.93s.5.34.91.34c.3,0,.58-.1.82-.3h-.01s0-.01,0-.01Z"/>
      <path class="cls-11" d="m218.77,121.31v-.58c.54-.06.93-.15,1.14-.27.21-.12.38-.42.48-.88h.6v5.99h-.81v-4.25h-1.42s0-.01,0-.01Z"/>
      <path class="cls-11" d="m226.75,120.53c.27.5.4,1.17.4,2.04s-.12,1.49-.36,2.03c-.36.77-.93,1.15-1.73,1.15-.72,0-1.26-.31-1.62-.94-.3-.52-.44-1.23-.44-2.11,0-.69.09-1.28.27-1.76.33-.91.93-1.38,1.8-1.38.78,0,1.34.32,1.68.96h.01Zm-.77,4.01c.23-.34.34-1,.34-1.94,0-.69-.09-1.24-.25-1.68-.17-.44-.5-.67-.98-.67-.44,0-.78.21-.98.63-.2.42-.31,1.03-.31,1.85,0,.61.07,1.11.2,1.47.2.57.54.86,1.03.86.39,0,.71-.18.94-.52h0Z"/>
      <path class="cls-12" d="m39.57,144.87c.99,0,1.78-.8,1.78-1.78s-.8-1.78-1.78-1.78-1.78.8-1.78,1.78.8,1.78,1.78,1.78Z"/>
      <path class="cls-12" d="m59.98,144.87c.99,0,1.78-.8,1.78-1.78s-.8-1.78-1.78-1.78-1.78.8-1.78,1.78.8,1.78,1.78,1.78Z"/>
      <path class="cls-12" d="m59.98,150.63c.99,0,1.78-.8,1.78-1.78s-.8-1.78-1.78-1.78-1.78.8-1.78,1.78.8,1.78,1.78,1.78Z"/>
      <path class="cls-12" d="m80.54,144.87c.99,0,1.78-.8,1.78-1.78s-.8-1.78-1.78-1.78-1.78.8-1.78,1.78.8,1.78,1.78,1.78Z"/>
      <path class="cls-12" d="m80.54,150.63c.99,0,1.78-.8,1.78-1.78s-.8-1.78-1.78-1.78-1.78.8-1.78,1.78.8,1.78,1.78,1.78Z"/>
      <path class="cls-12" d="m80.54,156.4c.99,0,1.78-.8,1.78-1.78s-.8-1.78-1.78-1.78-1.78.8-1.78,1.78.8,1.78,1.78,1.78Z"/>
      <path class="cls-12" d="m101.04,144.87c.99,0,1.78-.8,1.78-1.78s-.8-1.78-1.78-1.78-1.78.8-1.78,1.78.8,1.78,1.78,1.78Z"/>
      <path class="cls-12" d="m101.04,150.83c.99,0,1.78-.8,1.78-1.78s-.8-1.78-1.78-1.78-1.78.8-1.78,1.78.8,1.78,1.78,1.78Z"/>
      <path class="cls-12" d="m101.04,156.8c.99,0,1.78-.8,1.78-1.78s-.8-1.78-1.78-1.78-1.78.8-1.78,1.78.8,1.78,1.78,1.78Z"/>
      <path class="cls-12" d="m101.04,162.76c.99,0,1.78-.8,1.78-1.78s-.8-1.78-1.78-1.78-1.78.8-1.78,1.78.8,1.78,1.78,1.78Z"/>
      <path class="cls-12" d="m121.53,144.87c.99,0,1.78-.8,1.78-1.78s-.8-1.78-1.78-1.78-1.78.8-1.78,1.78.8,1.78,1.78,1.78Z"/>
      <path class="cls-12" d="m121.53,150.69c.99,0,1.78-.8,1.78-1.78s-.8-1.78-1.78-1.78-1.78.8-1.78,1.78.8,1.78,1.78,1.78Z"/>
      <path class="cls-12" d="m121.53,156.51c.99,0,1.78-.8,1.78-1.78s-.8-1.78-1.78-1.78-1.78.8-1.78,1.78.8,1.78,1.78,1.78Z"/>
      <path class="cls-12" d="m121.53,162.32c.99,0,1.78-.8,1.78-1.78s-.8-1.78-1.78-1.78-1.78.8-1.78,1.78.8,1.78,1.78,1.78Z"/>
      <path class="cls-12" d="m121.53,168.14c.99,0,1.78-.8,1.78-1.78s-.8-1.78-1.78-1.78-1.78.8-1.78,1.78.8,1.78,1.78,1.78Z"/>
      <path class="cls-12" d="m142.15,144.87c.99,0,1.78-.8,1.78-1.78s-.8-1.78-1.78-1.78-1.78.8-1.78,1.78.8,1.78,1.78,1.78Z"/>
      <path class="cls-12" d="m142.15,150.6c.99,0,1.78-.8,1.78-1.78s-.8-1.78-1.78-1.78-1.78.8-1.78,1.78.8,1.78,1.78,1.78Z"/>
      <path class="cls-12" d="m142.15,156.32c.99,0,1.78-.8,1.78-1.78s-.8-1.78-1.78-1.78-1.78.8-1.78,1.78.8,1.78,1.78,1.78Z"/>
      <path class="cls-12" d="m142.15,162.05c.99,0,1.78-.8,1.78-1.78s-.8-1.78-1.78-1.78-1.78.8-1.78,1.78.8,1.78,1.78,1.78Z"/>
      <path class="cls-12" d="m142.15,167.78c.99,0,1.78-.8,1.78-1.78s-.8-1.78-1.78-1.78-1.78.8-1.78,1.78.8,1.78,1.78,1.78Z"/>
      <path class="cls-12" d="m142.15,173.51c.99,0,1.78-.8,1.78-1.78s-.8-1.78-1.78-1.78-1.78.8-1.78,1.78.8,1.78,1.78,1.78Z"/>
      <path class="cls-12" d="m162.49,144.87c.99,0,1.78-.8,1.78-1.78s-.8-1.78-1.78-1.78-1.78.8-1.78,1.78.8,1.78,1.78,1.78Z"/>
      <path class="cls-12" d="m162.49,150.54c.99,0,1.78-.8,1.78-1.78s-.8-1.78-1.78-1.78-1.78.8-1.78,1.78.8,1.78,1.78,1.78Z"/>
      <path class="cls-12" d="m162.49,156.22c.99,0,1.78-.8,1.78-1.78s-.8-1.78-1.78-1.78-1.78.8-1.78,1.78.8,1.78,1.78,1.78Z"/>
      <path class="cls-12" d="m162.49,161.88c.99,0,1.78-.8,1.78-1.78s-.8-1.78-1.78-1.78-1.78.8-1.78,1.78.8,1.78,1.78,1.78Z"/>
      <path class="cls-12" d="m162.49,167.55c.99,0,1.78-.8,1.78-1.78s-.8-1.78-1.78-1.78-1.78.8-1.78,1.78.8,1.78,1.78,1.78Z"/>
      <path class="cls-12" d="m162.49,173.22c.99,0,1.78-.8,1.78-1.78s-.8-1.78-1.78-1.78-1.78.8-1.78,1.78.8,1.78,1.78,1.78Z"/>
      <path class="cls-12" d="m162.49,178.88c.99,0,1.78-.8,1.78-1.78s-.8-1.78-1.78-1.78-1.78.8-1.78,1.78.8,1.78,1.78,1.78Z"/>
      <path class="cls-12" d="m182.98,144.87c.98,0,1.78-.8,1.78-1.78s-.8-1.78-1.78-1.78-1.78.8-1.78,1.78.8,1.78,1.78,1.78Z"/>
      <path class="cls-12" d="m182.98,150.5c.98,0,1.78-.8,1.78-1.78s-.8-1.78-1.78-1.78-1.78.8-1.78,1.78.8,1.78,1.78,1.78Z"/>
      <path class="cls-12" d="m182.98,156.13c.98,0,1.78-.8,1.78-1.78s-.8-1.78-1.78-1.78-1.78.8-1.78,1.78.8,1.78,1.78,1.78Z"/>
      <path class="cls-12" d="m182.98,161.76c.98,0,1.78-.8,1.78-1.78s-.8-1.78-1.78-1.78-1.78.8-1.78,1.78.8,1.78,1.78,1.78Z"/>
      <path class="cls-12" d="m182.98,167.38c.98,0,1.78-.8,1.78-1.78s-.8-1.78-1.78-1.78-1.78.8-1.78,1.78.8,1.78,1.78,1.78Z"/>
      <path class="cls-12" d="m182.98,173.01c.98,0,1.78-.8,1.78-1.78s-.8-1.78-1.78-1.78-1.78.8-1.78,1.78.8,1.78,1.78,1.78Z"/>
      <path class="cls-12" d="m182.98,178.64c.98,0,1.78-.8,1.78-1.78s-.8-1.78-1.78-1.78-1.78.8-1.78,1.78.8,1.78,1.78,1.78Z"/>
      <path class="cls-12" d="m182.98,184.26c.98,0,1.78-.8,1.78-1.78s-.8-1.78-1.78-1.78-1.78.8-1.78,1.78.8,1.78,1.78,1.78Z"/>
      <path class="cls-12" d="m203.33,144.87c.99,0,1.78-.8,1.78-1.78s-.8-1.78-1.78-1.78-1.78.8-1.78,1.78.8,1.78,1.78,1.78Z"/>
      <path class="cls-12" d="m203.33,150.46c.99,0,1.78-.8,1.78-1.78s-.8-1.78-1.78-1.78-1.78.8-1.78,1.78.8,1.78,1.78,1.78Z"/>
      <path class="cls-12" d="m203.33,156.06c.99,0,1.78-.8,1.78-1.78s-.8-1.78-1.78-1.78-1.78.8-1.78,1.78.8,1.78,1.78,1.78Z"/>
      <path class="cls-12" d="m203.33,161.66c.99,0,1.78-.8,1.78-1.78s-.8-1.78-1.78-1.78-1.78.8-1.78,1.78.8,1.78,1.78,1.78Z"/>
      <path class="cls-12" d="m203.33,167.25c.99,0,1.78-.8,1.78-1.78s-.8-1.78-1.78-1.78-1.78.8-1.78,1.78.8,1.78,1.78,1.78Z"/>
      <path class="cls-12" d="m203.33,172.85c.99,0,1.78-.8,1.78-1.78s-.8-1.78-1.78-1.78-1.78.8-1.78,1.78.8,1.78,1.78,1.78Z"/>
      <path class="cls-12" d="m203.33,178.44c.99,0,1.78-.8,1.78-1.78s-.8-1.78-1.78-1.78-1.78.8-1.78,1.78.8,1.78,1.78,1.78Z"/>
      <path class="cls-12" d="m203.33,184.05c.99,0,1.78-.8,1.78-1.78s-.8-1.78-1.78-1.78-1.78.8-1.78,1.78.8,1.78,1.78,1.78Z"/>
      <path class="cls-12" d="m203.33,189.64c.99,0,1.78-.8,1.78-1.78s-.8-1.78-1.78-1.78-1.78.8-1.78,1.78.8,1.78,1.78,1.78Z"/>
      <path class="cls-12" d="m223.93,144.87c.99,0,1.78-.8,1.78-1.78s-.8-1.78-1.78-1.78-1.78.8-1.78,1.78.8,1.78,1.78,1.78Z"/>
      <path class="cls-12" d="m223.93,150.44c.99,0,1.78-.8,1.78-1.78s-.8-1.78-1.78-1.78-1.78.8-1.78,1.78.8,1.78,1.78,1.78Z"/>
      <path class="cls-12" d="m223.93,156.01c.99,0,1.78-.8,1.78-1.78s-.8-1.78-1.78-1.78-1.78.8-1.78,1.78.8,1.78,1.78,1.78Z"/>
      <path class="cls-12" d="m223.93,161.59c.99,0,1.78-.8,1.78-1.78s-.8-1.78-1.78-1.78-1.78.8-1.78,1.78.8,1.78,1.78,1.78Z"/>
      <path class="cls-12" d="m223.93,167.16c.99,0,1.78-.8,1.78-1.78s-.8-1.78-1.78-1.78-1.78.8-1.78,1.78.8,1.78,1.78,1.78Z"/>
      <path class="cls-12" d="m223.93,172.73c.99,0,1.78-.8,1.78-1.78s-.8-1.78-1.78-1.78-1.78.8-1.78,1.78.8,1.78,1.78,1.78Z"/>
      <path class="cls-12" d="m223.93,178.3c.99,0,1.78-.8,1.78-1.78s-.8-1.78-1.78-1.78-1.78.8-1.78,1.78.8,1.78,1.78,1.78Z"/>
      <path class="cls-12" d="m223.93,183.86c.99,0,1.78-.8,1.78-1.78s-.8-1.78-1.78-1.78-1.78.8-1.78,1.78.8,1.78,1.78,1.78Z"/>
      <path class="cls-12" d="m223.93,189.44c.99,0,1.78-.8,1.78-1.78s-.8-1.78-1.78-1.78-1.78.8-1.78,1.78.8,1.78,1.78,1.78Z"/>
      <path class="cls-12" d="m223.93,195.01c.99,0,1.78-.8,1.78-1.78s-.8-1.78-1.78-1.78-1.78.8-1.78,1.78.8,1.78,1.78,1.78Z"/>
    </g>
  </g>
  <text class="cls-9" transform="translate(52.26 -19.13)"><tspan x="0" y="0">ti</tspan><tspan class="cls-18" x="10.88" y="0">r</tspan><tspan x="17.32" y="0">e lait</tspan></text>
  <text class="cls-9" transform="translate(210.1 -19.13)"><tspan x="0" y="0">quantité lait en </tspan><tspan x="31.77" y="14">poud</tspan><tspan class="cls-18" x="69.12" y="14">r</tspan><tspan x="75.56" y="14">e</tspan></text>
</svg>