<?xml version="1.0" encoding="UTF-8"?>
<svg id="Calque_1" data-name="Calque 1" xmlns="http://www.w3.org/2000/svg" viewBox="0 0 375.37 144.66">
  <defs>
    <style>
      .cls-1 {
        fill: #d6d7d7;
      }

      .cls-1, .cls-2, .cls-3, .cls-4, .cls-5, .cls-6, .cls-7 {
        stroke-linecap: round;
        stroke-linejoin: round;
      }

      .cls-1, .cls-2, .cls-3, .cls-4, .cls-5, .cls-8, .cls-9 {
        stroke: #010101;
      }

      .cls-2, .cls-10 {
        fill: #fce9b9;
      }

      .cls-3 {
        fill: #c0e0ce;
      }

      .cls-4, .cls-11, .cls-12, .cls-8 {
        fill: #fff;
      }

      .cls-5, .cls-6, .cls-7, .cls-13, .cls-9 {
        fill: none;
      }

      .cls-6 {
        stroke: #cfaa57;
      }

      .cls-14 {
        fill: #f7e7d5;
      }

      .cls-15 {
        fill: #010101;
      }

      .cls-16 {
        fill: #ed6d76;
      }

      .cls-17 {
        fill: #f5afb5;
      }

      .cls-18 {
        fill: #f29dbc;
      }

      .cls-19 {
        fill: #ee7e9a;
      }

      .cls-20 {
        fill: #a07636;
      }

      .cls-21 {
        fill: #566985;
      }

      .cls-22 {
        stroke-miterlimit: 10;
      }

      .cls-22, .cls-23, .cls-24 {
        fill: #b7dedf;
      }

      .cls-22, .cls-23, .cls-24, .cls-12, .cls-13 {
        stroke: #000;
      }

      .cls-23 {
        stroke-miterlimit: 10;
      }

      .cls-24, .cls-12, .cls-8, .cls-13, .cls-9 {
        stroke-miterlimit: 10;
      }

      .cls-25 {
        fill: #3b2c15;
        font-family: Arial-BoldMT, Arial;
        font-size: 23.19px;
        font-weight: 700;
      }

      .cls-25, .cls-26 {
        isolation: isolate;
      }

      .cls-7 {
        stroke: #fff;
        stroke-width: 8px;
      }
    </style>
  </defs>
  <rect class="cls-7" x="-1879.52" y="-5761.57" width="6467.34" height="6437.3"/>
  <g id="Titres_catégories" data-name="Titres catégories">
    <path class="cls-19" d="m241.44,63.68c-.02-.08-.03-.14-.05-.21.02.07.03.14.05.21Z"/>
    <path class="cls-19" d="m241.36,63.34l-.02-.08.02.08Z"/>
    <path class="cls-18" d="m242.78,53.48c.06.02.12.02.18.04-.07-.02-.13-.02-.18-.04Z"/>
    <g>
      <g>
        <g>
          <path class="cls-14" d="m47.77,76.9l-.17.21.17-.21Z"/>
          <path class="cls-14" d="m47.81,78.04l-.26.28.26-.28Z"/>
          <path class="cls-14" d="m47.54,79.36l.25-.14.03-.03-.28.17Z"/>
          <path class="cls-14" d="m47.79,79.96l-.23.11.23-.11Z"/>
          <path class="cls-14" d="m47.84,80.5l-.34.06.34-.06Z"/>
          <path class="cls-1" d="m47.67,94.98c21.49,0,38.92-17.44,38.92-38.96s-17.41-38.96-38.92-38.96S8.75,34.5,8.75,56.02s17.42,38.96,38.92,38.96Z"/>
          <path class="cls-11" d="m47.67,86.91c17.04,0,30.86-13.83,30.86-30.88s-13.81-30.89-30.86-30.89-30.85,13.82-30.85,30.88,13.81,30.88,30.86,30.88h0Z"/>
          <path class="cls-21" d="m21.45,82.2c.3.3.63.62.96.91-.32-.29-.63-.6-.96-.91Z"/>
          <path class="cls-21" d="m22.39,83.11c.54.49,1.09.98,1.65,1.44-.57-.46-1.1-.96-1.65-1.44Z"/>
          <path class="cls-21" d="m24.05,84.56c.44.37.91.74,1.38,1.1-.46-.35-.92-.71-1.38-1.1Z"/>
          <path class="cls-15" d="m47.27,32.53c.92,0,1.67-.75,1.67-1.67s-.75-1.67-1.67-1.67-1.67.75-1.67,1.67.75,1.67,1.67,1.67Z"/>
          <path class="cls-15" d="m35.38,35.73c-.8.46-1.83.18-2.31-.62-.46-.8-.18-1.83.62-2.29.8-.46,1.83-.18,2.29.62s.18,1.83-.62,2.31l.02-.02Z"/>
          <path class="cls-15" d="m26.68,44.45c-.46.8-1.49,1.08-2.31.62-.8-.46-1.08-1.49-.62-2.31.46-.8,1.49-1.08,2.31-.62.8.46,1.08,1.49.62,2.31Z"/>
          <path class="cls-15" d="m21.79,58.04c.92,0,1.67-.75,1.67-1.67s-.75-1.67-1.67-1.67-1.67.75-1.67,1.67.75,1.67,1.67,1.67Z"/>
          <path class="cls-15" d="m26.04,70.57c-.8.46-1.83.18-2.31-.62-.46-.8-.18-1.83.62-2.31.8-.46,1.83-.18,2.31.62.46.8.18,1.83-.62,2.31Z"/>
          <path class="cls-15" d="m35.99,79.28c-.46.8-1.49,1.08-2.29.62-.8-.46-1.07-1.49-.62-2.31.46-.8,1.49-1.08,2.31-.62.8.46,1.07,1.49.62,2.31h-.02Z"/>
          <path class="cls-15" d="m47.27,83.53c.92,0,1.67-.75,1.67-1.67s-.75-1.67-1.67-1.67-1.67.75-1.67,1.67.75,1.67,1.67,1.67Z"/>
          <path class="cls-15" d="m60.85,79.9c-.8.46-1.83.18-2.31-.62-.46-.8-.18-1.83.62-2.31.8-.46,1.83-.18,2.29.62s.18,1.83-.62,2.31h.02Z"/>
          <path class="cls-15" d="m70.78,69.95c-.46.8-1.49,1.08-2.31.62-.8-.46-1.08-1.49-.62-2.31.46-.8,1.49-1.08,2.31-.62.8.46,1.08,1.49.62,2.31Z"/>
          <path class="cls-15" d="m72.75,58.04c.92,0,1.67-.75,1.67-1.67s-.75-1.67-1.67-1.67-1.67.75-1.67,1.67.75,1.67,1.67,1.67Z"/>
          <path class="cls-15" d="m61.47,35.11c-.46.8-1.49,1.08-2.29.62-.8-.46-1.08-1.49-.62-2.31.46-.8,1.49-1.08,2.31-.62.8.46,1.08,1.49.62,2.29,0,0-.02.02-.02.02Z"/>
          <path class="cls-15" d="m69.8,44.45c-.46.8-1.49,1.08-2.29.62s-1.08-1.49-.62-2.31c.46-.8,1.49-1.08,2.31-.62.8.46,1.08,1.49.62,2.29,0,0-.02.02-.02.02Z"/>
          <path class="cls-15" d="m48.9,54.42v21.46c0,.55-.52,1.01-1.19,1.01s-1.19-.44-1.19-1.01v-21.46c0-.55.52-1.01,1.19-1.01s1.19.44,1.19,1.01Z"/>
          <path class="cls-15" d="m47.72,43.61c.83,0,1.52.41,1.52.94v13.1c0,.52-.68.94-1.52.94s-1.52-.41-1.52-.94v-13.1c0-.52.68-.94,1.52-.94Z"/>
          <path class="cls-15" d="m51.02,56.45c0,.55-.14,1.06-.37,1.52-.37.72-1,1.29-1.76,1.57-.37.14-.77.21-1.19.21s-.82-.07-1.19-.21c-.44-.17-.83-.43-1.15-.75-.25-.25-.44-.52-.6-.82-.23-.44-.37-.97-.37-1.52s.14-1.06.37-1.52c.37-.72,1-1.29,1.75-1.57.37-.14.77-.21,1.19-.21s.82.07,1.19.21c.44.17.83.43,1.15.75.25.25.44.52.6.83.23.46.37.97.37,1.52l.02-.02h0Z"/>
        </g>
        <g class="cls-26">
          <text class="cls-25" transform="translate(26.73 123.9)"><tspan x="0" y="0">24h</tspan></text>
        </g>
      </g>
      <path class="cls-8" d="m76.93,50.52c9.76,0,17.69-7.91,17.69-17.67s-7.92-17.65-17.69-17.65-17.69,7.91-17.69,17.65,7.92,17.67,17.69,17.67h0Z"/>
      <path class="cls-15" d="m72.32,23.95c1.19-1.28,2.83-1.91,4.88-1.91,1.91,0,3.45.54,4.61,1.63,1.14,1.1,1.72,2.49,1.72,4.19,0,1.01-.21,1.86-.63,2.49-.42.65-1.28,1.57-2.56,2.83-.93.91-1.54,1.66-1.82,2.3-.26.65-.4,1.56-.4,2.77h-2.59c0-1.38.16-2.5.49-3.34.33-.84,1.05-1.82,2.17-2.91l1.18-1.15c.35-.33.63-.67.84-1.04.39-.63.58-1.28.58-1.96,0-.95-.28-1.77-.86-2.47-.56-.72-1.51-1.05-2.83-1.05-1.61,0-2.73.59-3.37,1.79-.35.67-.56,1.63-.59,2.89h-2.59c0-2.08.59-3.76,1.77-5.07l.02.03h0Zm3.14,16.7h2.89v3.03h-2.89v-3.03Z"/>
    </g>
    <g>
      <path class="cls-2" d="m212.78,125c-7.05-4.79-35.43-.49-40.2-11.33-4.77-10.82,4.27-15.49,4.27-15.49,0,0,1.53,2.04,4.48,3.72,2.95,1.68,5.44,2.65,6.78,3.76,3.37,2.82,7.6,6.61,6.74,4.22-.22-.63-1.31-1.99-1.57-2.4l2.04,1.37h.02c1.18.77,2.67,1.62,3.15,1.38,1.13.55,2.28,1.09,3.44,1.61,3.68,1.68,7.31,3.08,9.88,3.19.27,0,1.14.54,1.93,1.05.59.39,1.13.76,1.36.91.31.21.64.46,1,.73,6.44,4.9,3.77,12.03-3.3,7.26l-.02.02h0Z"/>
      <path class="cls-11" d="m176.6,97.62c-10.02-8.06-2.54-28.29-2.54-28.29,4.11-9.76,11.75-8.57,12.86-11.48,1.12-2.91-.57-3.59-.57-3.59-12.89-2.55-17.18-10.68-16.02-18.77,1.13-8.08,8.56-20.74,24.14-16.93,15.59,3.8,11,16.74,11,16.74,0,0,.43,2.04,2.37,2.19,1.95.13.39,3.17.39,3.17,0,0,4.71,10.15-3.39,12.4-2.97.82-4.09,1.77-4.07,2.83v.12c0,.06.03.12.03.18.42,1.79,3.85,3.86,7.41,6.14h.02s.16.11.37.28c.07.07.16.15.26.24,1.05,1.05,3.3,4.04,5.84,11.85,2.17,6.68,3.46,10.79,5.19,13.63,1.09,1.79,2.36,3.1,4.16,4.22,4.64,2.91,6.84,6.24,3.76,6.57"/>
      <path class="cls-5" d="m176.6,97.62c-10.02-8.06-2.54-28.29-2.54-28.29,4.11-9.76,11.75-8.57,12.86-11.48,1.12-2.91-.57-3.59-.57-3.59-12.89-2.55-17.18-10.68-16.02-18.77,1.13-8.08,8.56-20.74,24.14-16.93,15.59,3.8,11,16.74,11,16.74,0,0,.43,2.04,2.37,2.19,1.95.13.39,3.17.39,3.17,0,0,4.71,10.15-3.39,12.4-2.97.82-4.09,1.77-4.07,2.83v.12c0,.06.03.12.03.18.42,1.79,3.85,3.86,7.41,6.14h.02s.16.11.37.28c.07.07.16.15.26.24,1.05,1.05,3.3,4.04,5.84,11.85,2.17,6.68,3.46,10.79,5.19,13.63,1.09,1.79,2.36,3.1,4.16,4.22,4.64,2.91,6.84,6.24,3.76,6.57"/>
      <path class="cls-5" d="m196.75,104.63c2.43,1.13,3.33,3.06,4.27,3.77"/>
      <path class="cls-5" d="m200.36,104.62s-.02-.02-.02-.02"/>
      <path class="cls-5" d="m183.78,70.68s.76,14.13.06,20.21c0,0,1.09-.28,5.34,3.68.13.12.26.26.39.37"/>
      <path class="cls-5" d="m195.42,106.61s2.27,1.51,2.98,2.69"/>
      <path class="cls-5" d="m189.55,94.94h-.03"/>
      <path class="cls-2" d="m211.3,87.86s.18,2.5.76,7.94c0,0,6.32,13.07,1.68,20.31,0,0,0,.02-.02.03-4-2.37-4.2-.09-9.23-2.85-1.03-.57-1.88-1.03-2.58-1.42l-3.3-1.82c.04-.21-.04-.46-.21-.73.21.15,3.06,2.13,2.59-.92.43.31.85.37,1.43,0,1.77-1.15-1.71-3.55-2.08-3.78,2.28,1.09,3.94.33-.98-1.4-2.19-.77-3.35-1.89-5.91-3.8l-1.97,1.53-4.74,3.62s-6.13-2.69-8.51-4.9c0,0-2.49-2.5-4.03-4.4-7.07-8.75-.5-28.78,2.69-31.82,3.19-3.02,9.98-5.6,9.98-5.6,13.42,2.83,14.11-.33,13.91-1.64,0-.06-.03-.12-.03-.18-.02-.12-.07-.21-.09-.27.02.04.06.11.07.15,1.12,2.01,1.77,2.46,7.46,6.45h.02c.12.09.26.2.37.29.07.07.16.15.26.24,5.67,5.14,11.33,25.14,11.33,25.14-.06.11-.15.21-.3.35-1.31,1.19-6.11,3.53-6.11,3.53l-2.52-4.04.03-.02h0Z"/>
      <path class="cls-5" d="m215.76,92.7s-.9,9.28,1.07,6.87c1.97-2.41,1.22-5.98,3.86-3.02,2.64,2.95,2.14,4.92,3.19,2.98,1.03-1.94-.99-4.4-.99-4.4"/>
      <path class="cls-5" d="m224.05,97.34s4.9,5.4,2.71.44l-1.73-2.65"/>
      <path class="cls-10" d="m220.53,116.68c-2.07.61-2.85,1.91-2.85,1.91,1.14,1.29,2.36,3.76,2.19,5.21-.35,3.28,18.55-1.12,14.96-7.22-1.82-3.08-9.78-1.16-9.78-1.16"/>
      <path class="cls-5" d="m220.53,116.68c-2.07.61-2.85,1.91-2.85,1.91,1.14,1.29,2.36,3.76,2.19,5.21-.35,3.28,18.55-1.12,14.96-7.22-1.82-3.08-9.78-1.16-9.78-1.16"/>
      <path class="cls-10" d="m223.42,102.17s-3.77-.85-4.07,7.08c-.07,1.99,0,7.96,0,7.96,0,0,5.04-2,9.73-2.3,0,0,4.6-7.66,5.84-16.95,1.24-9.28-9.33-6.56-9.33-6.56l-13.54,4.23s5.95,12.18,1.67,20.48l1.34.91s2.12-1.77,3.92-4.37"/>
      <path class="cls-5" d="m223.42,102.17s-3.77-.85-4.07,7.08c-.07,1.99,0,7.96,0,7.96,0,0,5.04-2,9.73-2.3,0,0,4.6-7.66,5.84-16.95,1.24-9.28-9.33-6.56-9.33-6.56l-13.54,4.23s5.95,12.18,1.67,20.48l1.34.91s2.12-1.77,3.92-4.37"/>
      <path class="cls-5" d="m186.93,43.23s-4.37,1.46-1.85,5.05c2.5,3.59,4.72.43,4.72.43"/>
      <path class="cls-15" d="m202.6,39.45c.56,0,1.01-.45,1.01-1.01s-.45-1.01-1.01-1.01-1.01.45-1.01,1.01.45,1.01,1.01,1.01Z"/>
      <path class="cls-5" d="m199.27,36.8s.28-2.63,3.01-2.45"/>
      <path class="cls-5" d="m187.07,46.61l.86-.4"/>
      <path class="cls-17" d="m197.59,44.97c1.18,0,2.13-.96,2.13-2.13s-.96-2.13-2.13-2.13-2.13.96-2.13,2.13.96,2.13,2.13,2.13Z"/>
      <path class="cls-16" d="m206.67,46.59v.02c-.13.76-.81,1.49-1.99,1.58-.96.09-1.62-.18-2.08-.52l.02-.03s.02-.06.06-.11c.06-.07.13-.18.26-.31.04-.04.09-.09.13-.13.09-.09.18-.18.3-.27.22-.18.52-.35.86-.44.09-.02.18-.06.27-.06.06-.02.13-.03.21-.03.54-.07,1.18,0,1.94.3l.02.02h0Z"/>
      <path class="cls-17" d="m206.67,46.59c-.76-.31-1.42-.37-1.94-.3-.07,0-.13,0-.21.02-.11,0-.18.04-.27.06-.35.11-.64.27-.86.44-.12.09-.22.18-.3.27-.06.04-.11.09-.13.13-.12.13-.19.24-.26.31-.03.04-.06.07-.06.11,0,.02-.02.03-.02.03-.64-.46-.88-1.05-.88-1.05-.35-1.99,2.94-1.85,2.94-1.85,1.52-.09,2.17.9,2,1.82h-.02Z"/>
      <path class="cls-9" d="m204.67,44.87s-3.3-.13-2.94,1.85c0,0,.24.59.88,1.05.46.35,1.13.61,2.08.52,1.18-.11,1.85-.82,1.99-1.58v-.02c.18-.94-.48-1.91-2-1.82l-.02-.02v.02Z"/>
      <path class="cls-5" d="m203.3,23.34s-3.86,8.81-12.16,9.47c0,0,1.68,5.1-4.49,6.75"/>
      <path class="cls-10" d="m211.3,87.86c-.81-3.24-1.22-6.17-2.78-10.24l2.78,10.24Z"/>
      <path class="cls-5" d="m211.3,87.86c-.81-3.24-1.22-6.17-2.78-10.24"/>
      <path class="cls-10" d="m181.48,84.95c.74,7.09,12.88,13.8,12.88,13.8l-2.85,2.19"/>
      <path class="cls-5" d="m181.48,84.95c.74,7.09,12.88,13.8,12.88,13.8l-2.85,2.19"/>
    </g>
    <g>
      <path class="cls-24" d="m315.39,95.36l-.49,2.33c-45.99,3.5-62.98-19.18-62.98-19.18l.1-.41c.19-.77,1.08-1.13,1.74-.7,3.9,2.48,15.18,9.51,19.47,10.54,0,0,8.48,5.38,42.17,7.41h0Z"/>
      <path class="cls-12" d="m314.9,97.7l.49-2.33c2.33.39,6.73,1.05,11.04,1.14.68,0,1.19.63,1.1,1.29l-1.25,9.92c-.05.45-.36.82-.8.96-2.3.71-9.65,2.92-12.4,3.25-.53.07-.93.48-.99,1.01l-.15,1.27c-.05.41-.3.76-.68.93-4.69,2.06-35.74,14.09-56.56-18.54-.12-.16-.27-.31-.46-.41l-8.83-4.24c-.31-.16-.55-.44-.63-.79l-2.36-10.77c-.18-.82.54-1.55,1.35-1.38,1.58.34,4.13.68,7.13.4.49-.04.89-.4,1.01-.87,0,0,16.99,22.68,62.98,19.18h0Z"/>
      <path class="cls-12" d="m356.88,53.09l-1.53,7.27c-.15.68-.86,1.08-1.51.86l-4.44-1.55c-.65-.22-1.35.16-1.51.83l-.99,4.28c-.1.4-.4.72-.79.85l-16.15,4.74c-.26.08-.49.26-.64.49l-14.69,22.75c-.44.7-.04,1.61.77,1.76-33.68-2.03-42.17-7.41-42.17-7.41.36.1.74,0,1.02-.26,2.36-2.07,13.41-12.55,9.12-24.29-.12-.33-.39-.58-.72-.7l-15.05-5.07c-.48-.16-.79-.6-.79-1.09v-2.7c0-.71-.63-1.24-1.32-1.14l-5.47.82c-.68.11-1.31-.41-1.32-1.1l-.14-5.82c0-.55.37-1.04.91-1.15l6.61-1.45c.53-.12.91-.58.91-1.12v-1.38c0-.44.26-.83.64-1.02,1.72-.84,6.6-3.07,10.11-2.84.8.05,1.43-.65,1.24-1.43-.02-.1-.03-.19-.03-.29,0-.57.42-1.08,1.01-1.14,6.69-.76,37.67-3.78,59.51,2.86.63.19.97.89.74,1.51l-.67,1.81c-.2.53.02,1.11.49,1.39l10.51,6.1c.45.26.67.82.53,1.32l-.12.4c-.21.72.33,1.46,1.09,1.47l3.71.05c.72,0,1.27.68,1.12,1.38h0Z"/>
      <line class="cls-13" x1="250.92" y1="79.4" x2="254.7" y2="96.58"/>
      <path class="cls-12" d="m277.75,37.64s-3.34,18.4,4.89,25.07"/>
      <path class="cls-12" d="m329.31,70.85c13.43-7.13,10.24-29.88,10.24-29.88"/>
      <path class="cls-12" d="m289.48,33.95s-10.34,11.2-6.11,29.46"/>
      <path class="cls-12" d="m331.55,35.71s1.36,28.68-2.24,35.13"/>
      <path class="cls-12" d="m282.88,91.19s14.83-43.87,12.68-57.75"/>
      <path class="cls-12" d="m323.8,34.5s8.14,25.1-18.95,60.04"/>
      <path class="cls-12" d="m290.3,66.47s16.08-17.94,28.18,5.69"/>
      <path class="cls-23" d="m261.79,47.17l2.29-.24.34,3.24-2.29.24c-.52.05-.99-.33-1.05-.85l-.14-1.33c-.05-.52.33-.99.85-1.05h0Z"/>
      <path class="cls-22" d="m352.54,57.82l-2.18-.74,1.05-3.08,2.18.74c.5.17.77.71.6,1.21l-.43,1.26c-.17.5-.71.77-1.21.6h0Z"/>
      <line class="cls-13" x1="314.9" y1="97.7" x2="312.09" y2="112.92"/>
      <path class="cls-20" d="m302.81,71.63c-4.56,5.39-3.37.19-5.73.13-1.06-.02-2.01.48-2.11,2.27-.24,4.28.44,6.04-2.75,8.65-3.06,2.5.31,6.85,3.86,5.93,3.54-.92,3.9-4.52,5.68-2.89,1.78,1.63,8.16-.09,5.23-4.6-2.93-4.51,3.26-7.97-1.8-10.2-.79-.35-1.8.04-2.36.7h0Z"/>
      <circle class="cls-3" cx="275.29" cy="102.18" r="1.93"/>
      <circle class="cls-3" cx="285.75" cy="104.16" r="1.93"/>
      <path class="cls-3" d="m285.74,108.33s-1.43,4.79-6.47,3.78c-.12-.02-.24-.06-.35-.09-.12,0-.24-.02-.36-.03-5.08-.82-4.75-5.8-4.75-5.8,0,0,.02-1.16,2.12-3.6,2.1-2.45,4.98-1.64,4.98-1.64,0,0,2.98.25,4.1,3.27,1.12,3.02.73,4.12.73,4.12h0Z"/>
      <circle class="cls-15" cx="276.75" cy="105.09" r=".57"/>
      <circle class="cls-15" cx="283.34" cy="106.39" r=".57"/>
      <ellipse class="cls-4" cx="279.87" cy="106.72" rx=".73" ry="1.52" transform="translate(121.09 360.69) rotate(-78.86)"/>
      <line class="cls-9" x1="278.82" y1="112.01" x2="279.72" y2="107.42"/>
    </g>
    <path class="cls-6" d="m137.72,72.74c2.33-1.57,6.29-3.86,8.74-5.23-2.95-1.85-4.95-3.54-7.91-5.39"/>
    <line class="cls-6" x1="111.78" y1="67.42" x2="146.46" y2="67.42"/>
  </g>
</svg>