<?xml version="1.0" encoding="UTF-8"?>
<svg id="Calque_1" data-name="Calque 1" xmlns="http://www.w3.org/2000/svg" viewBox="0 0 128 128">
  <defs>
    <style>
      .cls-1 {
        fill: #f3d587;
      }

      .cls-1, .cls-2, .cls-3 {
        stroke-width: 2px;
      }

      .cls-1, .cls-2, .cls-3, .cls-4 {
        stroke: #000;
        stroke-miterlimit: 10;
      }

      .cls-2, .cls-4 {
        fill: #fff;
      }

      .cls-3 {
        fill: #fce9b9;
      }

      .cls-5 {
        fill: none;
        stroke: #fff;
        stroke-linecap: round;
        stroke-linejoin: round;
        stroke-width: 8px;
      }

      .cls-4 {
        stroke-width: 1.5px;
      }
    </style>
  </defs>
  <g>
    <path class="cls-2" d="m44.9,36.69s.84-5.94,1.3-9.32c.88-6.49,22.07-22.73,41.28-15.95,8.19,2.9,23.29,22.09,16.26,40.44-.04.05-10.73,13.28-20.19,13.78-8.56.45-27.65-10.73-32.98-13.99-5.34-3.26-5.66-14.96-5.66-14.96Z"/>
    <g>
      <g>
        <g>
          <g>
            <path class="cls-2" d="m60.15,41.31l-.15,1.9s-1.41.56-2.22-2.3c-.81-2.86-.34-7.57.97-8.43,1.31-.86,3.53,0,4.06,1.48.53,1.49-2.51,5.44-2.66,7.34Z"/>
            <path class="cls-2" d="m59.38,33.75s1.45.55.56,6.03"/>
          </g>
          <g>
            <path class="cls-2" d="m85.66,53.07l-1.35,1.35s.49,1.44,3.19.2c2.7-1.25,5.98-4.66,5.78-6.21-.2-1.55-2.29-2.68-3.76-2.12-1.47.56-2.51,5.44-3.86,6.79Z"/>
            <path class="cls-2" d="m91.91,48.74s-1.36-.75-4.95,3.49"/>
          </g>
        </g>
        <path class="cls-2" d="m89.76,49.61c-4.43,8.37-15.15,11.9-22.08,8.71-6.54-3.02-11.21-13.64-7.72-22.44,3.71-9.35,10.77-14.69,22.08-8.71,12.75,6.74,12.72,13,7.72,22.44Z"/>
        <g>
          <g>
            <path class="cls-4" d="m72.02,39.47c-.64,1.39-2.26,2.01-3.61,1.39-1.35-.62-1.93-2.26-1.29-3.64"/>
            <path class="cls-4" d="m83.47,45.61c-.64,1.39-2.26,2.01-3.61,1.39s-1.93-2.26-1.29-3.64"/>
          </g>
          <path class="cls-4" d="m72.08,46.12c.72.49,1.84.23,2.26-.53.42-.76.05-1.85-.74-2.2"/>
        </g>
      </g>
      <g>
        <path class="cls-3" d="m59.95,28.87s13.81-11.71,24.8-7.67c11.54,4.25,12.09,24.88,9.69,27.62,0,0-.31-6.12-34.49-19.95Z"/>
        <path class="cls-1" d="m57.63,33.72s6.97-.55,19.23,5.55c9.4,4.67,10.46,8.1,14.54,12.88,0,0,6.31-4.01,3.49-8.58-2.54-4.11-15.16-16.23-31.9-16.14-2.19.01-4.88,1.78-5.36,6.29Z"/>
        <g>
          <g>
            <path class="cls-1" d="m86.24,21.13s-7.53.93-10.48-8.38c-2.94-9.31,5.44-3.96,7.23-1.83,3.19,3.81,4.77,7,3.25,10.21Z"/>
            <path class="cls-2" d="m79.5,12.25s4.21,3.81,6.75,8.88"/>
          </g>
          <g>
            <path class="cls-1" d="m85.69,21.66s4.18,6.34,13.17,2.53c8.99-3.81-.53-6.71-3.3-6.68-4.97.05-8.42.92-9.87,4.16Z"/>
            <path class="cls-2" d="m96.82,21.03s-5.63-.73-11.14.64"/>
          </g>
          <path class="cls-1" d="m85.82,18.12h.34c1.13,0,2.04.91,2.04,2.04v1.71c0,1.13-.91,2.04-2.04,2.04h-.34c-1.13,0-2.04-.91-2.04-2.04v-1.71c0-1.13.91-2.04,2.04-2.04Z" transform="translate(16.7 -34.07) rotate(24.75)"/>
        </g>
      </g>
    </g>
    <path class="cls-1" d="m46.62,35.85s11.22,14.69,44.29,22.51l1.42,5.56s-24.4,12.96-31.9,10.63c-7.5-2.33-14.75-33.05-14.75-33.05l.93-5.66Z"/>
    <path class="cls-1" d="m60.39,70.43c17.19.08,43.02-18.58,43.02-18.58,0,0-16.63,41.12-26.08,53.47-9.46,12.35-25.84,7.17-35.17,2.23-9.33-4.94-11.81-20.71-11.81-20.71l30.04-16.42Z"/>
    <path class="cls-1" d="m60.39,70.43c17.19.08,42.06-17.61,42.06-17.61,0,0-15.66,40.16-25.12,52.51-9.46,12.35-25.84,7.17-35.17,2.23-9.33-4.94-11.81-20.71-11.81-20.71l30.04-16.42Z"/>
    <path class="cls-1" d="m45.14,30.19c.25,17.59,31.38,73.33,32.19,74.79,0,0-6.92,23.14-31.06,12.99-24.15-10.15-25.16-19.79-23.13-27.54,2.03-7.75,22-60.24,22-60.24Z"/>
    <path class="cls-1" d="m46.1,30.19c.03,1.79-.03,2.58.43,4.85,4.79,23.63,30.8,69.93,30.8,69.93,0,0-6.92,23.14-31.06,12.99-24.15-10.15-25.16-19.79-23.13-27.54,1.38-5.27,11.34-31.79,17.58-48.24.64-1.7,1.25-3.29,1.8-4.73,1.97-5.18,3.58-7.27,3.58-7.27Z"/>
  </g>
  <rect class="cls-5" x="-991.96" y="-314.74" width="1656.38" height="875.1"/>
</svg>