<?xml version="1.0" encoding="UTF-8"?>
<svg id="Calque_1" data-name="Calque 1" xmlns="http://www.w3.org/2000/svg" viewBox="0 0 128 128">
  <defs>
    <style>
      .cls-1 {
        fill: none;
        stroke: #fff;
        stroke-linejoin: round;
        stroke-width: 8px;
      }

      .cls-1, .cls-2, .cls-3 {
        stroke-linecap: round;
      }

      .cls-2 {
        fill: #87ccf3;
      }

      .cls-2, .cls-3 {
        stroke: #000;
        stroke-miterlimit: 10;
        stroke-width: 3px;
      }

      .cls-3 {
        fill: #bfe6fc;
      }
    </style>
  </defs>
  <path class="cls-2" d="m24.36,38.76c1.75-7.06,8.13-12.3,15.74-12.3,5.48,0,10.33,2.72,13.26,6.88.95-.22,1.95-.33,2.97-.33,6.39,0,11.76,4.32,13.35,10.21,4.72,2.2,7.98,6.99,7.98,12.54,0,7.65-6.2,13.84-13.84,13.84l-31.84-.29c-8.95,0-16.21-7.26-16.21-16.21,0-6.21,3.49-11.6,8.61-14.33Z"/>
  <path class="cls-3" d="m99.52,55.95c-2.59-10.44-12.02-18.2-23.28-18.2-8.1,0-15.28,4.03-19.61,10.17-1.41-.33-2.88-.49-4.39-.49-9.45,0-17.4,6.39-19.75,15.09-6.97,3.26-11.8,10.35-11.8,18.54,0,11.32,9.17,20.47,20.47,20.47l47.1-.42c13.24,0,23.98-10.74,23.98-23.98,0-9.19-5.16-17.16-12.73-21.19Z"/>
  <rect class="cls-1" x="-3242.72" y="-617.97" width="6562.35" height="1176.7"/>
</svg>