<?xml version="1.0" encoding="UTF-8"?>
<svg id="Calque_1" data-name="Calque 1" xmlns="http://www.w3.org/2000/svg" viewBox="0 0 304.08 239.01">
  <defs>
    <style>
      .cls-1 {
        fill: #f3d587;
      }

      .cls-1, .cls-2, .cls-3, .cls-4 {
        stroke-miterlimit: 10;
      }

      .cls-1, .cls-2, .cls-3, .cls-4, .cls-5 {
        stroke-width: .5px;
      }

      .cls-1, .cls-2, .cls-3, .cls-4, .cls-5, .cls-6 {
        stroke: #fff;
      }

      .cls-2 {
        fill: #ff6d75;
      }

      .cls-3 {
        fill: #87ccf3;
      }

      .cls-4 {
        fill: #53bb9b;
      }

      .cls-5, .cls-6 {
        fill: none;
        stroke-linecap: round;
        stroke-linejoin: round;
      }

      .cls-6 {
        stroke-width: 8px;
      }
    </style>
  </defs>
  <polygon class="cls-2" points="274.56 70.81 273.94 70.7 275.02 69.73 275.02 69.06 275.74 68.39 275.64 67.93 274.46 68.91 273.84 68.91 273.02 69.88 272.14 69.42 271.32 69.93 270.39 69.93 269.83 71.06 270.8 71.89 271.11 71.27 272.04 71.42 272.3 70.96 273.07 71.01 273.12 71.53 274.92 71.27 275.38 70.5 275.18 70.09 274.56 70.81"/>
  <polygon class="cls-2" points="268.64 72.97 267.1 73.33 265.87 74.41 265.76 75.12 265.05 75.38 265.05 76.26 266.23 76.88 267.82 77.03 268.39 76.67 269.31 76.82 270.29 76.26 269.93 74.25 268.64 72.97"/>
  <polygon class="cls-4" points="236.09 82.45 236.19 81.88 235.85 81.32 235.78 81.86 236.09 82.45"/>
  <polygon class="cls-4" points="234.13 70.31 233.42 69.87 233.08 70.46 233.36 70.69 234.21 70.67 234.13 70.31"/>
  <path class="cls-4" d="m228.23,64.55l.36.95h.54l.33-.54.49.26.46-.33-.03-.85-.31-.46.23-.64-.41-.51-.18.33-.02.54-.49.16-.33-.28-.05-1.28s-.51-.54-.49-.51l-.36,1.51.28.85-.03.82Z"/>
  <polygon class="cls-4" points="234.21 63.5 233.83 62.25 233.95 63.45 233.8 64.2 234.21 63.5"/>
  <polygon class="cls-4" points="229.95 67.02 230.08 67.43 230.46 67.46 230.8 67.81 230.59 68.28 230.44 69.31 230.54 69.84 231.46 69.36 232.08 69.18 231.72 68.71 231.18 67.77 231.16 67.12 230.64 66.66 230.03 66.66 229.95 67.02"/>
  <polygon class="cls-4" points="235.73 79.68 235.83 78.55 235.39 78.01 235.09 78.27 235.19 79.01 235.73 79.68"/>
  <polygon class="cls-4" points="232.93 74.21 233.55 74.78 234.19 74.44 234.19 73.8 233.7 73.26 232.88 73.62 232.93 74.21"/>
  <polygon class="cls-4" points="232.47 68.77 232.88 69.07 233.29 69.13 233.52 68.9 233.93 68.9 233.95 68.38 233.62 68.23 233.42 67.74 232.52 68.38 232.47 68.77"/>
  <path class="cls-4" d="m233.13,64.2l.13-.33-.85.28s-.28.36-.31.38l.46.15.57-.49Z"/>
  <path class="cls-4" d="m233.8,66.71l.31.03-.05-.59-.03-.72-.28-.28s-.13.79-.13.79l.18.77Z"/>
  <polygon class="cls-1" points="195.03 28.43 194.19 29.28 194.9 28.92 195.03 28.43"/>
  <polygon class="cls-1" points="193.08 30.41 193.6 30.77 193.44 30.28 193.08 30.41"/>
  <polygon class="cls-1" points="199.63 37.78 200.09 37.62 200.17 37.08 199.41 36.98 199.42 37.39 199.63 37.78"/>
  <polygon class="cls-1" points="195.63 34.44 195.85 34.06 195.03 33.4 194.96 33.95 195.23 34.37 195.23 34.65 195.63 34.44"/>
  <polygon class="cls-1" points="198.32 34.86 197.97 34.69 197.52 35.08 197.29 35.89 197.74 35.94 198.23 36 198.38 36.56 198.87 36.76 199.26 36.8 199.32 36.09 199.09 35.64 198.49 35.31 198.32 34.86"/>
  <polygon class="cls-1" points="197.83 36.83 197.45 36.61 197.18 36.88 197.7 37.02 197.83 36.83"/>
  <polygon class="cls-1" points="227.22 46.3 227.77 45.8 227.54 45.46 226.94 45.46 226.39 45.86 226.54 46.15 227.22 46.3"/>
  <polygon class="cls-1" points="194.57 29.87 195.14 30.79 196.31 31.61 197.03 32.31 197.86 32.51 198.57 32.51 198.42 32.08 197.68 31.41 197.14 31.15 197.06 30.72 196.5 30.36 195.39 30.2 195.34 29.59 194.9 29.46 194.57 29.87"/>
  <polygon class="cls-1" points="209.28 36.91 209.18 37.34 209.57 37.96 209.8 39.06 211.23 40.29 211.8 40.47 211.9 41.19 212.44 41.37 212.59 40.58 211.9 39.81 211.36 39.55 211.03 38.98 210.13 37.75 210.28 37.16 209.57 36.36 208.74 36.31 208.77 36.6 209.28 36.91"/>
  <path class="cls-1" d="m204.04,35.44l.69.54.39.41.13.46.36-.44.51.36-.26-.46.28-.33-1.31-1.39-1.13-.51-.95-.8-1.23-.18s.85.64.85.64l1.67,1.69Z"/>
  <polygon class="cls-1" points="208.41 39.29 208.38 38.78 207.61 38.67 207.77 39.14 208.41 39.29"/>
  <polygon class="cls-1" points="211.83 43.73 211.08 43.66 211.47 44.28 211.52 44.78 212.49 45.68 213.62 46.12 214.52 46.07 214.26 45.81 214.34 45.38 213.9 44.74 212.57 44.45 211.83 43.73"/>
  <polygon class="cls-1" points="205.64 39.78 205.51 40.5 206.28 41.55 207.2 41.91 208 41.76 208.62 42.5 209.34 42.43 209.57 41.71 209.46 41.24 209.03 41.22 208.56 40.7 207.51 40.19 206.61 40.19 206.02 39.57 205.64 39.78"/>
  <polygon class="cls-1" points="206.95 48.38 206.2 48.35 206.23 48.82 206.56 49.12 207.15 49.07 207.74 49.3 208.26 49.05 207.54 48.77 206.95 48.38"/>
  <path class="cls-1" d="m196.63,34.27l-.4.27s.01.36.01.36l.33.26.64-.09.08-.37-.67-.43Z"/>
  <polygon class="cls-3" points="187.3 21.53 187.07 22.04 186.64 22.17 186.77 22.5 187.33 22.55 187.72 22.04 187.3 21.53"/>
  <polygon class="cls-3" points="187.85 23.73 187.67 24.07 187.97 24.5 188 25.17 188.44 24.61 188.38 23.91 187.85 23.73"/>
  <polygon class="cls-3" points="168.51 39.15 168.11 38.75 167.66 38.74 167.39 38.98 166.83 38.84 166.45 38.85 165.82 38.18 165.69 37.2 165.15 36.93 164.5 35.35 164.17 35.21 163.98 34.68 163.21 34.68 162.69 34.4 162.31 33.63 161.53 32.84 161.37 32 160.83 31.55 160.41 30.81 160.49 30.52 161.96 30.65 163.23 29.99 163.6 29.36 163.54 28.61 162.51 27.54 161.77 27.4 161.44 27.62 160.64 27.23 159.37 26.7 158.74 26.02 158.02 26.1 156.29 25.49 156.12 25 156.59 24.19 156.67 23.56 156.22 22.98 154.93 21.63 154.63 21.67 154.2 21.86 153.93 21.29 153.29 20.83 153.08 20.31 152.33 20.17 151.94 19.66 151.64 19.75 150.99 19.4 150.2 19.34 149.45 18.77 148.64 18.58 147.33 17.78 145.4 17.6 144.66 17.29 144.28 16.82 143.94 16.82 143.69 16.95 142.3 16.39 141.98 16.05 141.29 15.78 140.12 15.29 139.49 15.25 139.04 28.63 138.83 29.64 138.82 30.21 138.97 30.51 138.69 39.17 139.91 39.19 140.3 39.42 140.94 39.24 142.84 39.32 143.3 39.19 143.48 39.63 143.92 40.09 144.48 40.24 145.25 39.78 146.51 39.42 146.61 39.09 146.92 39.34 147.25 38.96 147.2 37.96 146.28 37.24 145.25 36.81 144.38 36.66 144 36.34 143.47 36.15 143.24 36.16 142.87 35.86 142.7 35.01 142.1 34.2 141.43 33.89 141.29 33.41 140.89 33.01 141.38 33.32 141.56 33.84 141.98 33.94 142.78 34.46 142.9 35.07 142.99 35.77 143.26 35.8 144.16 36.06 144.65 36.51 145.02 36.43 145.87 36.47 146.86 36.22 147.56 36.27 148.15 36.08 147.97 35.78 147.46 35.44 147.2 34.95 146.72 35.01 146.46 34.52 146.87 34.88 147.56 34.7 148.1 35.31 148.76 35.44 148.44 35.04 148.45 34.54 148.79 34.29 148.84 33.9 148.77 33.35 148.25 32.86 148.25 32.62 148.85 32.9 149.1 33.34 149.79 33.98 150.32 34.11 150.36 33.76 150.23 33.29 150.41 33.44 150.59 34.07 150.88 34.03 150.9 33.54 150.69 33.13 150.9 32.39 151.21 32.77 152.08 33.06 152.29 33.57 152.75 33.67 153.19 33.64 153.42 33.83 153.75 33.41 153.7 33.9 153.73 34.34 154.08 34.44 154.54 34.9 156.48 35.35 157.07 35.67 157.6 36.33 157.89 37.31 158.85 38.52 159 39.01 159.67 39.19 160.04 39.75 160.17 40.15 161.83 41.85 161.87 42.39 162.51 42.83 163.51 43.17 163.9 43.01 164.27 43.01 164.83 43.25 165.92 43.08 166.67 43.38 167.3 43.32 168.39 43.52 168.91 43.83 169.7 43.7 170.05 44.14 170.78 44.1 170.9 44.33 170.5 44.64 171.19 44.82 172.02 45.29 172.81 45.08 173.03 44.64 172.16 44.12 171.87 44.1 171.89 43.79 172.52 43.57 173.08 43.81 173.71 43.39 172.36 43.13 170.83 42.93 169.89 42.44 169.56 42.04 170.38 41.67 170.9 41.71 171.22 41.45 170.73 41.16 169.53 41.16 168.36 40.98 167.91 40.59 167.9 40.06 168.3 39.61 168.51 39.15"/>
  <polygon class="cls-3" points="190.95 27.17 190 26.87 189.75 25.86 189.36 25.35 188.59 25.4 188.46 26.07 188.61 26.66 188.61 27.79 189.33 28.15 190 29.38 189.79 29.77 190.21 30.33 190.74 30.33 191.23 30.51 192.11 30.41 192.26 30.1 192.75 29.95 192.82 29 192.11 28.1 190.95 27.17"/>
  <polygon class="cls-3" points="185.05 47.8 185.06 48 185.41 48.07 185.99 47.99 186.1 47.56 185.48 47.42 185.05 47.8"/>
  <polygon class="cls-3" points="182.56 22.42 182.89 21.73 182.86 21.11 182.48 20.99 182.2 19.47 181.71 19.44 181.09 18.42 180.27 18.03 179.73 17.42 178.73 17.21 177.42 16.11 176.32 15.8 174.72 14.85 174.83 15.34 175.26 15.78 177.73 17.21 179.01 17.93 179.86 18.01 181.12 19.32 181.63 21.14 181.37 21.73 181.58 22.5 182.3 23.3 182.56 22.42"/>
  <polygon class="cls-3" points="180.36 38.54 180.18 39.08 180.38 39.47 180.65 39.38 181.43 39.92 181.37 39.47 180.36 38.54"/>
  <polygon class="cls-3" points="183.85 48.39 183.25 48.41 182.5 47.87 182.08 47.88 182.91 48.77 183.36 48.76 183.78 48.95 184 48.78 183.85 48.39"/>
  <polygon class="cls-3" points="173.24 14.75 172.75 14.44 171.93 14.75 171.98 15.31 172.52 15.64 173.24 15.44 173.24 14.75"/>
  <path class="cls-3" d="m153.32,34.11l.23.35s-.01-.51,0-.53l-.23.18Z"/>
  <polygon class="cls-3" points="171.7 23.12 171.57 23.48 172.28 24.19 172.67 23.76 172.21 23.06 171.7 23.12"/>
  <polygon class="cls-3" points="175.44 37.82 175.54 37.25 175.42 36.3 175.03 36.39 174.88 36.66 175.14 37.16 175.3 37.13 175.37 37.61 175.3 37.82 175.44 37.82"/>
  <polygon class="cls-3" points="157.73 22.22 156.93 22.53 157.16 23.04 157.65 22.65 157.73 22.22"/>
  <polygon class="cls-3" points="170.85 10.61 170.87 10.18 170.46 9.56 169.82 9.53 169.95 10.02 170.85 10.61"/>
  <path class="cls-3" d="m162.01,12.51l-.54.13-.44-.31-.59.18-.56-.05-.23.18s.23.51.23.51l.56.08.31.28.9-.05.77-.65-.41-.31Z"/>
  <polygon class="cls-3" points="174.65 42.25 174.38 42.16 174.33 41.98 174.03 41.67 173.56 41.59 173.59 41.75 173.85 41.87 174.15 42.46 174.33 42.55 174.29 42.98 174.78 43.11 175.16 42.99 175.25 42.7 175.58 42.46 175.52 42.1 175.2 42.11 174.74 42.47 174.65 42.25"/>
  <polygon class="cls-3" points="164.27 26.87 164.45 26.53 164.27 25.89 163.71 25.43 163.27 25.92 163.66 26.48 164.27 26.87"/>
  <polygon class="cls-3" points="172.24 40.8 172.51 40.88 172.54 40.4 172.15 39.81 171.74 39.59 171.39 39.83 171.64 40.46 171.94 40.43 172.24 40.8"/>
  <polygon class="cls-3" points="173.75 40.45 173.47 40.45 173.06 40.37 172.91 40.46 173.05 41.08 173.38 41.25 173.86 41.21 174.01 41.42 174.2 41.18 174 40.87 173.78 40.87 173.87 40.74 173.75 40.45"/>
  <polygon class="cls-3" points="160.94 25.09 161.25 25.53 161.68 25.43 161.68 24.81 161.25 24.5 160.94 25.09"/>
  <polygon class="cls-3" points="179.58 25.04 178.81 24.32 178.76 23.84 179.24 23.55 179.63 23.76 180.48 22.96 180.45 21.35 179.65 20.65 179.22 20.96 178.96 21.27 178.5 20.91 177.65 20.88 177.29 21.42 177.65 22.96 177.91 23.25 177.55 23.63 176.85 23.61 175.5 24.71 175.24 25.4 174.8 25.74 174.44 25.58 173.93 25.92 173.47 25.4 173.03 25.43 172.52 26.07 172.06 25.96 171.85 25.07 172 24.5 171.46 24.22 171.1 24.58 171.21 25.07 170.67 25.43 169.95 25.35 169.13 25.69 168.51 25.66 168.02 25.4 167.38 25.4 166.51 25.61 165.82 25.2 165.3 26.15 165.89 26.89 166.66 26.97 167.82 27.89 167.95 28.3 168.46 27.92 169.64 27.97 170 28.64 170.85 28.76 171.41 28.66 172.72 28.41 173.41 28.61 174.01 28.36 174.88 28.72 175.16 28.33 175.14 27.82 176.06 27.79 177.32 26.22 177.32 25.71 177.83 25.58 178.29 25.94 179.17 25.69 179.58 25.04"/>
  <path class="cls-3" d="m148.45,38.16l-.46-.54s-1.02-.42-1-.42l1.47.97Z"/>
  <polygon class="cls-3" points="149.29 34.01 149.59 34.59 149.85 34.67 149.62 34.27 149.29 34.01"/>
  <polygon class="cls-3" points="147.24 36.89 147.67 37.1 147.85 36.87 147.24 36.89"/>
  <polygon class="cls-3" points="151.03 33.78 150.98 34.17 151.41 34.24 151.35 34.02 151.03 33.78"/>
  <path class="cls-3" d="m149.22,35.01l-.22-.74-.4.35-.03.34.29.36s.26-.03.26-.03l.1-.29Z"/>
  <polygon class="cls-3" points="148.05 37.29 148.34 37.5 148.25 37.18 148.05 37.29"/>
  <polygon class="cls-3" points="147.98 35.45 148.09 35.67 148.45 35.74 148.6 35.57 147.98 35.45"/>
  <path class="cls-3" d="m149.07,36.47l-.55-.03-.41.41s.77-.06.77-.06l.2-.32Z"/>
  <polygon class="cls-3" points="151.6 33.24 151.41 33.63 151.87 34.11 151.82 33.8 151.96 33.3 151.6 33.24"/>
  <polygon class="cls-3" points="152.11 34.07 152.3 33.75 152 33.8 152.11 34.07"/>
  <polygon class="cls-2" points="226.46 86.4 226.33 85.99 225.89 85.99 225.82 86.51 225.38 87.02 226.05 87.07 226.46 86.4"/>
  <polygon class="cls-2" points="227.82 88.74 228.64 89.13 228.93 88.82 228.28 88.28 228.49 87.74 228.46 87.05 228.18 86.89 227.51 87.38 227.61 87.69 227.48 88.13 227.82 88.74"/>
  <polygon class="cls-2" points="217.42 85.99 218.37 87.92 219.12 88.36 219.12 88.97 219.48 89.59 220.02 89.61 220.12 90.1 221.07 90.82 221.45 91.87 221.76 91.69 222.17 91.72 222.48 92.69 223.33 92.8 223.48 93.52 224.15 94.06 224.87 93.75 225.48 94.34 225.84 94.18 226.41 94.57 226.35 93.41 225.84 93.28 224.59 92.36 223.71 90.85 223.09 90.36 222.61 90.56 222.02 89.25 220.58 87.41 220.22 87.3 219.83 86.61 218.88 85.99 218.73 85.45 218.32 84.94 218.09 85.48 217.11 84.2 216.98 84.89 217.34 85.25 217.42 85.99"/>
  <polygon class="cls-2" points="231.08 91.38 231.11 90.62 230.57 90.28 229.64 90.41 229.74 91.13 230.36 91.74 230.72 91.38 231.08 91.38"/>
  <path class="cls-5" d="m128.14,197.48s0,0,0,0"/>
  <polygon class="cls-3" points="121.09 59.16 121.66 58.94 122.6 59.09 122.8 58.54 122.55 58.42 122.25 58.49 122.1 58.31 122.69 57.74 122.61 57.58 122.02 57.75 122.01 57.18 121.61 57.38 121.49 57.7 120.94 57.67 121.09 57.86 120.97 58.01 121.21 58.81 120.84 59.12 121.09 59.16"/>
  <polygon class="cls-3" points="174.25 118.22 174.33 117.36 173.82 116.01 173.6 115.57 173.57 114.85 173.82 114.53 173.84 113.69 174.46 112.61 174.41 112.29 174.35 110.21 174.76 109.51 174.46 109.11 174.27 108.38 174.3 106.98 174 106.87 174.38 106.09 173.68 105.8 173.33 105.09 173.36 104.29 172.55 103.58 172.04 102.56 171.82 101.57 171.36 100.7 170.91 100.67 170.37 100.91 169.88 100.46 169.77 99.54 169.42 99.38 169.34 98.87 168.48 98.11 168.07 97.73 168.26 97.2 167.78 96.33 168.45 95.47 168.61 94.4 168.4 93.88 168.51 93.18 168.02 92.91 167.89 93.29 168.1 93.61 167.83 93.99 166.24 92.54 165.89 91.7 165.59 91.86 165.59 92.35 165.41 92.88 165.78 93.99 165 93.04 164.62 93.48 164.62 92.81 164.33 92.24 164.2 90.24 164.41 90.03 164.41 89.54 163.74 89.11 164 88.52 163.49 88.12 163.66 87.49 162.5 86.5 162.17 85.8 162.12 84.96 162.77 85.12 162.77 84.42 162.2 83.4 161.9 83.56 161.28 83.48 160.58 82.48 160.04 82.45 159.4 81.89 159.02 82.29 158.72 81.89 157.94 81.62 157.46 82.08 157.86 81.43 158.56 81.24 158.62 80.73 158.4 80.33 157.59 80.41 156.97 80.35 156.78 79.92 156.43 79.92 154.95 79.09 154.3 77.79 154.17 76.5 153.74 75.66 153.76 74.99 154.12 74.85 154.41 73.43 154.01 71.54 153.58 70.68 153.95 70.49 153.5 70.06 152.96 70.06 152.28 68.65 152.26 66.91 152.52 66.69 152.55 66.31 152.23 65.91 152.07 63.7 152.26 63.11 152.07 62.4 152.31 62.19 152.39 61.67 151.15 60.49 150.39 60.03 150.61 59.71 149.8 58.9 149.08 59.39 148.72 59.14 148.32 59.92 147.73 59.95 147 58.85 147.08 58.25 146.62 57.25 146.89 55.93 146.73 54.35 146.44 54.48 146.16 53.83 146.49 53.21 145.95 52.49 145.92 51.87 145.55 51.62 145.57 50.73 146 50.3 145.52 50.03 144.92 50.17 144.46 49.74 144.74 48.04 144.52 47.66 144.31 46.67 143.55 46.5 143.58 46.04 142.74 46.37 142.34 46.93 142.34 48.2 141.96 49.28 141.96 49.58 141.8 50.3 141.39 50.25 140.94 51.41 140.32 52.27 140.86 52.78 141.53 53.32 141.1 53.62 140.64 53.54 140.34 54.24 139.97 54.94 140.48 55.77 140.56 56.37 140.02 56.15 139.62 56.45 139.29 58.2 139.62 59.39 139.37 60.68 139.72 61.59 139.64 62.65 138.97 63.27 138.97 63.86 138.24 65.23 138.11 67.25 137.49 67.95 137.7 68.68 137.3 69.79 136.65 70.43 136.57 71.78 135.47 72.62 133.2 73.51 132.29 72.86 131.34 72.78 130.88 72.16 129.99 71.46 129.97 71.03 129.73 70.7 129.51 69.92 128.67 69.79 127.97 69.49 126.87 69.41 125.84 68.76 125.66 68.17 124.87 67.17 123.93 67.09 123.1 66.55 123.04 66.09 122.58 66.04 122.18 65.72 121.4 65.75 120.75 65.58 120.94 65.28 120.05 64.56 119.89 63.86 118.97 62.91 118.38 62.83 117.6 61.92 117.57 61.03 118.24 59.95 118.4 59.09 119.1 58.6 119.32 57.61 119.62 56.96 119 57.42 118.49 56.45 119.22 55.96 119.08 55.21 119.46 55.24 119.89 55.05 120.07 55.32 120.72 55.45 121.61 55.05 121.91 54.24 121.29 53.73 121.77 53.35 122.29 53.48 122.64 52.27 123.1 52.03 123.58 51.38 123.61 51.03 122.88 50.68 122.42 51.22 121.96 51.03 121.86 49.82 121.26 50.09 120.43 51.08 120.86 51.27 120.86 51.76 120.27 52.05 119.7 51.71 119.57 51.27 119.27 50.87 119.02 51.32 118.54 51.46 118.57 51.01 118.97 50.57 119.13 50.22 118.62 50.44 118.24 50.87 117.43 51.14 117.33 51.44 116.9 51.52 116.68 51.22 116.01 51.16 115.98 50.84 115.44 50.09 115.14 50.01 114.31 50.47 113.72 50.22 113.37 50.44 113.1 49.93 112.77 49.85 112.37 49.09 111.56 49.47 110.7 49.33 109.92 48.98 109.97 48.47 109.43 47.8 109.11 47.88 109.19 48.17 108.11 48.5 107.84 47.85 107.25 47.64 106.3 47.1 106.17 47.37 105.68 47.01 105.09 47.47 105.79 48.01 105.58 48.2 106.25 48.36 106.84 48.09 107.87 48.95 107.79 49.44 108 50.57 107.27 50.63 107 51.44 106.76 50.95 106.22 50.79 105.66 51.16 103.61 51.27 102.83 50.6 102.72 50.9 101.91 51.19 101.99 51.87 101.32 51.73 101.54 52.67 101.29 52.32 100.46 52.05 100.13 52.54 100.46 53 100.4 53.3 99.51 53.02 99.06 53.48 99.41 53.86 99.03 54.05 98.44 54.39 98.49 54.83 99.03 55.38 99.17 55.78 98.54 55.42 98.03 55.85 97.41 55.85 96.79 56.85 96.23 57.98 95.77 58.12 95.55 59.06 94.98 59.41 95.47 59.92 96.68 60.14 96.23 60.28 95.96 60.79 97.41 61.27 96.85 61.51 95.93 61.41 95.63 60.97 95.66 61.41 96.25 61.86 96.23 62.65 96.85 63.48 95.93 62.75 95.36 61.7 94.69 61.62 94.66 62.05 94.39 62.54 94.31 61.97 92.8 61.01 91.7 61.22 92.05 61.62 91.67 62 91.29 61.67 91 61.67 90.67 62.11 91.18 62.78 91.05 63.19 90.94 62.89 90.59 62.97 90.59 63.32 89.89 63.72 88.87 63.91 89.68 63.54 90.21 62.81 90.16 61.7 90.73 61.01 90.38 60.55 89.78 60.46 88.76 58.6 88.22 57.79 87.22 57.55 86.55 57.12 86.12 57.39 86.47 57.74 86.06 57.88 85.58 58.6 85.09 58.52 85.26 58.12 84.61 58.31 84.45 58.74 83.96 57.71 83.56 57.61 83.45 58.2 83.96 58.5 83.26 59.01 83.02 59.73 83.26 60.16 82.53 60.6 82.21 60.08 81.81 60.06 81.67 59.68 82.18 59.09 81.64 59.11 81.37 59.87 80.62 60.06 80.31 60.49 80.18 61.27 81.27 61.58 80.35 62.35 79.65 61.97 78.81 62.54 78.97 63.05 79.97 63.19 79.62 63.75 79.14 63.86 78.44 63.02 77.84 63.7 77.13 63.81 77.28 64.33 77.42 64.82 77.47 65.28 77.9 65.12 77.39 65.83 77.74 66.34 77.14 66.63 76.77 67.12 78.01 67.33 77.22 67.74 77.06 68.06 76.39 67.9 76.01 67.39 75.45 67.01 74.91 67.47 74.66 66.96 73.99 66.53 73.51 66.93 74.39 67.55 74.07 67.71 73.69 68.41 74.42 69.06 75.15 69.03 74.83 69.63 74.8 70.27 74.5 70 74.13 70 74.26 70.76 73.96 71.57 73.86 72.46 72.72 70.03 71.97 68.55 71.57 67.98 71.75 67.12 71.49 67.52 70.73 68.09 70.54 69.03 69.97 69.17 69.89 69.57 69.19 69.52 68.79 70.06 68.2 70.57 68.33 71.49 68.33 73.35 68.68 73.53 68.68 74.18 68.03 74.53 67.66 75.23 66.69 75.5 66.77 75.9 65.93 76.44 65.96 77.36 65.5 77.79 64.39 79.33 62.27 80.6 60.41 80.76 59.68 81.03 58.6 81.11 57.74 81.32 56.88 81.11 55.77 81.54 55.64 82.19 54.91 82.54 52.59 82.45 52 82.8 51.81 83.43 50.36 84.02 49.25 84.02 48.66 83.77 48.09 83.83 47.87 83.43 47.28 83.72 46.72 84.58 45.21 84.86 45.07 85.18 44.67 85.18 43.48 86.23 41.95 86.95 39.93 87.58 39.04 88.81 39.01 89.95 38.2 90.65 37.64 90.27 37.9 89.86 37.8 89.3 38.17 88.41 38.15 87.76 37.01 88.63 36.74 89.68 35.94 91.21 36.48 92.29 36.1 93.18 36.15 94.82 34.78 96.55 34.24 98.89 34.62 100.11 34.43 101.81 35.67 103.91 35.72 104.72 36.23 105.31 35.78 106.36 36.04 107.3 35.29 107.6 34.97 107.03 34.91 105.8 34.45 106.47 34.24 106.23 34.29 105.09 33.56 103.53 33.11 104.31 33.27 105.88 34.24 106.85 34.91 108.19 33.92 108.35 33.11 107.28 32.92 106.01 32.6 106.55 32.19 106.77 32.81 107.95 34.05 109.49 34.78 111.51 34.64 115.12 35.15 115.79 35.53 117.81 36.61 120.48 36.23 121.42 36.34 125.41 36.18 125.95 36.56 127.06 36.53 128.3 37.28 130.05 37.31 130.91 36.64 131.4 36.99 131.77 36.74 132.72 36.61 134.28 35.99 134.85 36.18 135.3 35.99 136.25 35.37 136.7 35.51 137.62 34.35 138.51 33.83 138.05 32.95 139.4 33 141.61 33.48 142.04 34.02 142.07 35.53 143.6 35.51 144.17 35.78 144.5 36.56 144.63 36.91 145.06 37.93 145.22 38.34 145.14 38.55 145.44 39.33 145.54 40.25 145.36 40.49 145.87 40.89 145.54 41.11 145.71 42.13 145.52 43.02 145.44 43.13 145.01 43.67 144.9 44.26 144.01 45.32 144.15 45.32 143.53 45.99 143.15 46.53 143.15 47.07 143.71 47.63 142.93 47.93 143.06 48.28 142.88 48.47 142.02 50.44 140.8 51.19 140.91 51.68 141.21 52.32 140.78 54.21 140.37 54.45 140.75 55.66 140.48 56.02 140.72 56.58 140.78 57.31 140.51 57.58 141.26 58.01 141.26 58.58 140.96 58.9 141.34 59.46 140.96 60.87 140.96 60.78 141.56 61.03 141.67 61.81 140.91 62.59 141.13 63.53 140.48 63.88 139.62 64.24 139.51 64.99 138.76 65.42 137.49 66.28 136.81 67.31 136.52 67.68 136.76 69.17 136.25 71.05 135.09 72.21 134.01 72.75 133.8 73.26 133.82 73.88 133.8 74.93 134.25 75.9 134.31 76.58 134.07 78.01 134.14 79.97 133.45 81.13 133.18 82 132.56 82.53 132.56 83.53 131.83 85.01 131.72 88.92 131.42 90.19 131.77 91.05 131.8 92.13 131.42 92.99 131.53 94.07 132.56 94.91 133.98 95.55 134.2 96.01 133.82 96.44 133.66 96.77 134.01 97.17 133.82 97.92 134.01 98.6 134.9 99.51 135.06 99.89 134.82 101.45 135.93 101.32 136.6 101.8 136.63 102.34 137.19 102.13 137.7 101.54 137.7 101.4 138.19 102.02 139.57 102.67 139.62 103.39 140.4 103.64 141.39 103.5 142.15 104.28 143.88 104.01 144.66 104.34 145.09 104.2 146 103.9 146.54 103.47 146.27 103.26 146.49 103.82 147.22 104.36 147.51 104.63 148.24 105.23 148.03 105.85 148.51 105.87 147.89 105.52 147.32 105.93 146.89 106.28 146.19 106.84 146.09 107.17 145.49 107.79 145.22 107.98 144.6 108.62 143.77 110.13 143.01 110.29 142.56 110.59 142.56 111.78 141.99 112.07 140.99 113.02 139.54 114.04 139.32 114.44 138.73 114.17 137.97 114.34 137.11 114.77 138.11 114.79 139.02 114.79 139.91 114.36 140.48 114.15 142.28 112.67 143.26 112.45 144.04 112.02 144.6 112.07 145.41 111.21 146.62 111.48 146.98 110.86 148.7 109.16 148.51 108.81 149.46 108.38 150.21 108.38 150.48 109.43 150.21 110.46 149.75 111.67 150.18 112.85 148.19 113.18 146.35 114.17 145.33 114.44 145.65 114.47 147.35 114.85 148.35 114.53 148.46 114.63 150.15 113.85 151.61 112.5 152.15 112.72 152.63 113.58 152.52 114.5 152.55 114.91 152.13 115.53 151.98 116.28 151.37 116.88 151.54 117.34 151.47 116.98 152.09 116.63 152.67 115.98 152.63 115.81 153.01 116.44 153.93 116.71 154.71 117.17 155.84 117.22 157.16 117.08 158.81 116.2 159.75 116.36 160.21 116.22 161.45 116.84 161.99 117.38 162.93 117.54 164.09 118.81 165.79 119.78 166.03 120.45 166.51 120.78 167.38 121.5 167.43 121.67 167.11 122.13 166.95 123.04 167.24 123.79 168.16 124.6 168.24 125.49 169.07 125.6 169.8 126.3 170.04 127.03 170.91 127.57 170.91 127.81 170.42 129.19 169.77 129.61 169.16 130.47 169.13 131.38 168.22 132.04 168.35 132.34 168 132.16 167.64 131.38 167.43 131.64 166.95 133.04 166.03 134.21 166.85 134.17 167.63 132.74 168.41 133.08 169.08 133.52 169.19 134.04 168.63 134.62 168.19 135.35 168.59 135.28 169.28 134.85 169.27 134.28 169.83 135.23 170.93 135.41 172.15 135.76 171.93 136.25 171.98 136.3 172.71 136.81 173.46 137.33 172.58 137.27 171.61 136.71 172.04 136.57 171.63 137 171.15 138.75 171.2 138.97 171.55 139.21 171.15 140.1 169.94 141.93 168.83 142.96 167.92 142.42 167.92 142.01 168.16 142.18 167.94 141.55 167.73 142.23 167.67 143.15 167.67 144.49 167.27 147.24 166.73 149.45 167.16 150.37 166.62 150.37 166.03 151.02 166.03 151.69 165.57 152.31 164.3 152.04 162.9 152.01 162.15 153.22 160.94 153.22 158.83 153.79 158.02 154.04 156.6 154.74 156.28 154.68 155.58 156.84 152.88 157.44 152.77 157.82 151.31 158.68 150.18 159.22 148.67 160.08 147.8 159.99 147.03 160.61 146.7 161.18 145.33 160.72 144.9 161.82 144.39 162.58 143.26 163.04 142.8 163.57 141.64 164.62 141.32 165.27 140.99 164.2 140.99 164.46 140.64 165.73 140.56 166.86 139.75 167.1 138.92 166.94 138.48 167.1 137.76 168.26 136.87 168.29 136.11 169.1 135.79 169.88 134.47 169.77 133.8 170.18 132.72 169.88 132.37 169.99 131.8 170.99 129.49 171.23 128.24 172.52 125.93 172.47 125.06 173.14 123.39 174.11 122.58 174.46 121.61 174.19 120.57 174.79 119.84 174.25 118.22"/>
  <polygon class="cls-3" points="134.62 169.21 134.38 168.89 134.01 169.04 134.44 169.45 134.62 169.21"/>
  <polygon class="cls-3" points="140.48 180.18 140.07 180.45 140.29 180.9 141.37 180.96 141.91 181.18 142.01 180.77 141.29 180.1 140.48 180.18"/>
  <polygon class="cls-3" points="121.7 47.87 122.17 48.09 122.3 47.55 122.92 46.98 122.64 46.64 121.91 47.43 121.7 47.87"/>
  <polygon class="cls-3" points="130.92 70.9 131.29 70.7 131.24 70.31 130.71 70.57 130.92 70.9"/>
  <polygon class="cls-3" points="121.34 48.68 121.29 48.3 120.94 48.47 121.34 48.68"/>
  <polygon class="cls-3" points="122.97 65.08 122.57 64.55 122.34 65.13 122.6 65.58 122.97 65.08"/>
  <path class="cls-3" d="m131.83,68.28l-.92-.22-.87.5s-.19.49-.15.47l.31.32.42-.15.42-.54.78-.11v-.26Z"/>
  <polygon class="cls-3" points="128.61 179.64 128.42 180.19 128.9 180.47 129.13 179.99 129.1 179.37 128.61 179.64"/>
  <polygon class="cls-3" points="120.81 48.72 120.39 48.72 120.59 49 120.81 48.72"/>
  <polygon class="cls-3" points="129.25 181.48 129.7 181.62 130.04 181.28 129.58 180.84 129.13 180.94 129.25 181.48"/>
  <polygon class="cls-3" points="142.18 44.91 142.19 45.78 142.52 45.59 142.88 45.57 142.63 44.98 142.18 44.91"/>
  <polygon class="cls-3" points="138.24 171.43 137.62 171.48 138 171.74 138.24 171.43"/>
  <polygon class="cls-3" points="129.78 179.46 129.42 179.63 129.45 180.15 129.85 180.11 129.78 179.46"/>
  <path class="cls-3" d="m139.45,182.87l-.4.65-.19-.13-.4-.03-.49.38-.38.24-2.13-.14-.46.3.03.65-.54-.51-.7.03-.46.35-.67-.48-.97-.89-1.24-.67.03-1.05-.3.35-.11.38-.54-.43-.65-.33-.7-.5-.23.34-.05.82-.22.16v.74l.16,1.4-.18.9.09,1.57.16,1.26-.19,1,.32.21.03.46.65.65-.76-.06-.6-.67-.29.7.05,1.24.49.4-.16.38.03,1.99.38.3-.16.29.16.92.67.24-.4.46v.75s.3.14.3.14l.65-.14.48.48.57-.75v.59l.35.65h.57l.67-1.02.08-.65.32-1.16.48.46.21-.38.65-.51.27-.75v.75l.46.16.35-.62.59-.11.4.35-.09.6-.73-.3.04,1.05.63-.31.29.1.81-1.16v-.43l-.56-.38.51-.65-.02-.81h.57l.3-.29.08-1.54.46-.32.38-.68.21,1.03.13.51.35-.78-.03-.65.19-.32-.19-.89.51-.76.05-1.32.62-.75.32-1.83.24-.62-.84-.6h-.32Z"/>
  <polygon class="cls-3" points="132.85 196.16 132.85 196.78 132.34 197.59 132.8 197.86 133.04 196.83 133.36 196.38 133.2 196 132.85 196.16"/>
  <polygon class="cls-3" points="127.78 177.27 128.25 176.52 128.01 176.02 128.17 174.99 127.76 174.64 127.35 174.96 126.87 175.56 126.96 176.17 126.49 176.78 126.65 177.37 126.57 177.88 127.07 178.12 127.65 177.66 127.78 177.27"/>
  <polygon class="cls-3" points="136.89 193.65 137.3 193.44 136.89 193.06 136.89 193.65"/>
  <polygon class="cls-3" points="167.94 92.66 167.86 92.27 167.57 92.56 167.94 92.66"/>
  <polygon class="cls-3" points="119.51 49.09 119.1 49.4 119.51 49.44 119.51 49.09"/>
  <polygon class="cls-3" points="175.7 103.33 175.5 103.89 175.7 104.38 175.32 105.15 174.7 105.87 174.62 106.51 174.5 107.23 174.83 108.28 175.24 108.41 175.03 107.72 175.21 106.28 176.01 105.2 176.16 104.2 176.04 103.38 175.7 103.33"/>
  <polygon class="cls-3" points="140.34 177.48 140.56 178.07 140.29 178.72 140.53 179.15 140.75 179.64 142.01 179.07 142.01 178.45 140.86 177.29 140.34 177.48"/>
  <polygon class="cls-3" points="118.13 50.02 118.2 50.44 118.57 50.06 119.18 49.99 119.4 49.61 118.8 49.63 118.13 50.02"/>
  <polygon class="cls-3" points="117.34 50.91 117.97 50.65 117.92 50.43 117.05 50.7 117.34 50.91"/>
  <polygon class="cls-3" points="107.6 47.11 108 47.82 108.05 47.16 108.27 46.5 107.73 46.61 107.6 47.11"/>
  <polygon class="cls-3" points="174.5 117.21 174.91 116.7 174.74 115.9 174.5 117.21"/>
  <polygon class="cls-3" points="169.35 97.76 169.02 97.53 168.86 97.71 169.51 98.6 169.86 99.23 170 98.6 169.74 98.27 169.79 97.81 169.35 97.76"/>
  <polygon class="cls-3" points="80.24 60.2 80.32 59.81 80.02 59.77 79.82 60.15 80.24 60.2"/>
  <polygon class="cls-3" points="140.75 182.15 140.91 181.58 140.4 181.74 140.75 182.15"/>
  <polygon class="cls-3" points="142.68 43.08 142.87 43.54 143.17 43.15 142.68 43.08"/>
  <polygon class="cls-3" points="154.7 77.33 155 76.62 154.91 75.45 154.67 75.58 154.09 75.74 154.61 76.33 154.37 76.91 154.7 77.33"/>
  <polygon class="cls-3" points="119.99 57.74 120.18 57.61 120.28 57.96 120.68 57.51 120.33 57.02 119.92 57.4 119.99 57.74"/>
  <polygon class="cls-3" points="31.36 104.51 31.8 105.92 32.08 104.87 31.7 103.69 31.36 104.51"/>
  <polygon class="cls-3" points="42.48 84.66 42.86 84.17 42.94 83.38 42.27 84.3 42.48 84.66"/>
  <polygon class="cls-3" points="102.26 50.03 103.47 48.76 103.78 48.81 103.83 48.44 104.17 48.15 103.88 47.92 103.68 47.46 103.37 47.46 102.93 47.68 101.97 47.69 101.57 48.19 101.14 47.97 101.05 47.74 100.63 47.68 100.19 47.21 99.99 47.21 100.1 47.44 100.19 48.3 100.77 48.98 101.27 49.63 102.26 50.03"/>
  <polygon class="cls-3" points="111.65 153.36 111.01 153.34 111.25 153.04 110.82 153.04 110.66 152.7 110.78 152.13 110.22 152.31 109.59 152.25 107.69 152.77 106.84 153.21 106.8 153.63 107.32 153.99 108.14 154.01 108.39 153.96 109.03 154.06 109.47 153.9 109.74 154.26 110.08 154.24 110.16 154.02 110.53 154.01 110.78 153.68 112.06 153.86 112.51 153.44 112.02 153.2 111.65 153.36"/>
  <path class="cls-3" d="m32.21,102.61l-.08-.97-.28,1.54s.36-.57.36-.57Z"/>
  <path class="cls-3" d="m77.09,62.98l.26.36.58-.12-.5-.63s-.37.41-.33.39Z"/>
  <polygon class="cls-3" points="77.25 65.43 77.18 64.67 76.83 64.14 76.89 65.19 77.25 65.43"/>
  <polygon class="cls-3" points="100.02 49.15 100.83 49.33 100.75 49.11 100.15 48.9 99.86 47.62 99.36 47.87 99.45 47.99 99.42 48.37 99.59 48.45 99.59 48.64 99.24 48.54 99.01 48.58 98.98 48.98 99.73 49.17 100.02 49.15"/>
  <polygon class="cls-1" points="240.23 170.61 240.55 170.67 240.57 170.3 240.07 170.35 240.23 170.61"/>
  <polygon class="cls-1" points="194.56 218.81 194.82 218.74 194.82 218.33 194.23 218.29 194.1 218.54 194.21 218.62 194.56 218.81"/>
  <polygon class="cls-1" points="229.78 193.69 229.59 193.69 229.56 193.28 229.05 193.16 228.61 193.98 228.78 194.16 229.08 194.25 228.43 194.7 228.08 194.34 228.16 193.93 227.85 193.94 227.42 193.82 226.97 194.11 226.49 194.77 226.03 194.54 225.69 193.52 225.99 193.3 226.34 192.89 226.45 192.54 226.26 192.46 226.3 192.17 226.08 191.95 225.72 192.23 225.46 192.09 225.16 191.73 225.24 191.27 225.67 190.67 225.09 190.6 224.14 191.23 223.66 191.42 223.03 191.93 222.91 192.82 222.27 194.44 221.63 195.3 221.32 195.41 220.51 196.4 220.26 196.94 219.66 197.18 218.94 197.11 218.36 197.54 218.17 198.18 218.13 198.89 217.74 199.09 217.17 199.72 217.14 200.49 216.81 200.93 216.74 201.49 215.45 203 214.01 204.03 213.26 204.14 212.37 204.6 212.27 205.11 211.7 205.08 210.37 205.75 209.22 206.84 208.52 207 207.27 207.77 207.16 208.17 207.4 208.73 207.49 209.46 206.89 208.89 206.62 208.77 206.03 208.96 205.4 209.11 205.09 208.85 204.55 208.89 203.43 209.85 203.02 210.38 202.15 211.08 201.6 211.25 200.98 212.03 200.83 212.87 200.73 212.43 200.42 212.18 199.97 212.59 199.54 212.87 199.56 213.72 199.25 214.07 198.92 213.84 197.88 214.99 197.59 214.99 197.27 215.43 197.2 216.66 196.93 217.01 196.66 216.39 196.38 216.24 196.12 216.68 195.88 216.85 195.26 217.88 195.31 218.32 195.85 218.83 196.11 219.17 195.85 219.39 195.26 219.38 194.53 219.48 193.69 220.42 194.11 220.48 194.45 220.57 194.06 220.8 193.96 221.47 194.45 221.98 194.77 222.14 195.67 222.22 195.75 222.42 196.03 222.46 196.12 222.04 196.48 221.99 197.02 222.25 197.24 222.82 197.05 223.06 197.42 223.4 198 223.38 198.26 223.68 198.35 224.34 199.03 224.93 199.5 225.28 198.81 225.69 199.16 225.76 200.1 225.32 200.1 225.69 200.67 225.84 201.55 225.73 202.78 225.22 203.8 224.34 204.47 224.05 204.53 223.69 204.37 223.11 204.8 223.47 204.67 223.95 205.51 223.6 205.76 222.82 206.21 222.14 207.25 221.7 208.17 221.72 208.49 221.49 208.41 221.29 207.81 221.4 208.18 221.17 208.3 220.94 208.15 220.83 208.91 219.94 209.47 218.92 209.73 217.87 210.24 217.28 211.78 216.17 212.14 215.56 212.27 214.82 212.96 213.66 213.34 213.09 213.37 212.48 213.99 211.76 214.53 211.5 214.68 210.86 215.17 211.25 215.58 211.25 215.78 210.71 216.38 210.68 216.76 210.58 217.19 209.99 217.14 209.45 216.68 208.96 217.27 209.22 217.53 209.94 217.79 210.01 218.22 209.86 218.25 209.55 218.71 209.22 219.2 209.4 219.2 209.68 218.56 209.94 219.3 209.96 219.84 210.17 220.05 209.84 220.02 209.32 220.2 209.09 220.41 209.27 220.33 209.99 220.56 210.17 220.89 209.91 220.99 208.96 220.69 208.47 220.2 208.37 220.41 208.06 220.33 207.24 220.58 206.11 221.1 205.91 222.07 205.6 223.12 204.93 223.28 204.52 224.08 203.57 224.18 202.9 224.93 202.13 225.49 202.19 225.41 201.9 226.67 200.62 226.77 200.21 228.62 198.61 229.27 198.22 228.91 198.11 228.83 197.41 228.54 196.72 228.59 196.09 228.77 195.5 229 195.57 229.67 194.65 229.12 194.81 228.62 194.88 229.37 194.44 229.78 193.69"/>
  <polygon class="cls-1" points="250.08 175.7 249.77 175.29 250.04 175.2 250.09 175 249.28 174.84 248.54 175.33 247.23 176.69 246.39 176.76 245.93 177 245.28 176.71 243.85 175.23 243.41 175.3 242.87 174.53 242.66 174.04 243.02 173.66 243.15 172.86 242.61 171.76 242.61 171.2 242.38 170.81 242.46 170.11 242.64 169.63 242.28 169.55 242.18 168.76 242 168.32 241.74 168.5 241.18 168.16 241 168.45 241.51 168.96 241.48 169.66 241.59 169.91 241.05 170.42 241.07 170.91 241.54 171.5 241.54 171.91 240.97 172.09 240.56 171.63 240.48 171.04 239.76 170.94 239.76 170.6 239.2 170.35 238.76 170.42 238.71 170.07 239.25 169.76 239.46 169.27 238.89 168.81 239.3 168.01 239.84 167.88 240 167.16 239.76 166.62 239.92 166.24 239.69 165.65 239.74 164.85 238.99 164.31 239.07 163.95 239.51 164.21 240.1 164.08 240.23 163.31 240.48 163.06 240.48 162.05 240.23 161.13 240.33 160.54 240.02 160.67 239.17 161.03 238.53 160.38 238.92 160.05 238.53 159.69 238.25 159.64 238.51 159.23 239.07 158.97 238.97 158.59 238.3 158.44 237.86 158.02 237.43 158.2 237.33 157.59 237.61 157.59 237.84 157.18 237.48 157.12 237.12 157.38 237.13 157.75 236.83 158.26 236.37 158.05 236.56 157.49 236.28 157.01 236.1 156.09 236.14 155.48 236.14 155.26 236.33 155.18 236.01 154.82 235.65 155.06 234.7 155 234.67 155.22 235.12 155.72 235.88 157.57 235.99 158.22 235.88 159.41 235.6 159.7 235.33 159.7 235.2 159.9 235.61 161.38 235.82 161.58 236.36 161.2 237.09 161.2 236.59 161.35 236.09 161.96 236.27 162.82 236.69 163.8 236.86 165.6 236.84 166.69 236.87 167.43 237.24 167.25 237.4 166.62 237.22 166.18 237.43 165.99 237.69 166.39 237.69 166.99 238.08 166.94 238.14 166.65 238.05 166.43 238.26 166.38 238.32 166.88 237.94 167.56 237.76 168.13 237.72 168.47 237.46 168.55 237.19 168.14 236.9 168.14 237.05 169.21 237.54 170.59 237.83 170.69 238.08 170.56 238.34 171.03 238.4 171.36 238.72 171.61 238.01 172.08 238 172.34 238.25 172.58 238.03 173.07 237.62 174.3 237.63 174.92 237.43 175.14 237.8 175.51 237.65 175.77 237.17 175.81 236.86 176.36 236.84 176.71 237.24 177.11 236.83 177.33 236.39 177.36 236.09 178.14 235.61 180.66 235.53 181.27 235.03 181.64 234.52 181.68 233.91 181.45 233.24 181.54 231.89 182.18 231.28 182.86 231.08 183.68 231.24 184.79 231.84 185.31 232.86 185.93 233.35 186.86 234.29 187.17 234.68 187.55 234.83 189.09 234.91 189.24 234.73 189.42 234.73 190.25 234.43 190.92 233.02 192.69 232.02 193.74 230.97 194.69 230.59 195.15 230.7 195.5 231.42 195.67 231.57 195.27 231.88 195.29 231.9 195.79 231.84 196.15 232.03 196.24 232.32 196.15 232.52 196.4 232.48 196.97 232.64 197.18 233.18 197.11 234.48 196.16 235.62 195.24 236.68 194.14 237.66 193.01 238.88 191.5 239.53 191.07 239.97 191.03 240.27 190.66 240.32 190.09 240.59 189.73 241.28 189.45 241.74 188.06 242.46 186.98 242.46 186.68 242.82 186.34 242.28 185.83 241.69 185.73 241.23 185.8 241.71 185.39 242.15 185.26 243.74 183.57 244.44 183.31 245.59 183.49 246.18 183.55 246.07 184 246.14 184.49 246.74 183.91 247.16 183.68 246.32 183.33 246.41 182.63 246.86 181.52 247.26 181.08 247.85 181.1 248.02 181.34 248.33 181.04 248.7 180.48 249.63 179 249.62 178.51 249.59 178.02 249.86 177.18 250.41 176.54 251.03 176.15 250.93 175.99 250.08 175.7"/>
  <polygon class="cls-1" points="198.69 226.68 198.77 226.36 198.37 226.6 198.69 226.68"/>
  <polygon class="cls-1" points="197 226.68 197.39 226.6 197.43 226.45 197.32 226.22 197.01 225.47 196.39 224.84 195.77 225.02 195.67 225.51 195.72 226.19 195.53 226.84 195 226.94 195 227.39 194.72 227.57 194.02 228.28 194.13 228.59 194.46 228.61 194.99 227.99 195.22 227.94 195.43 228.08 195.8 228.11 196.17 227.84 196.93 227.59 197.19 227.68 197.41 227.4 197.36 227.12 197.03 226.97 196.75 226.69 196.52 226.64 196.84 226.51 197 226.68"/>
  <polygon class="cls-1" points="229.24 192.18 229.37 191.84 228.81 191.69 228.41 192.24 228.37 192.76 228.29 192.95 228.46 192.92 228.78 192.44 229.24 192.18"/>
  <polygon class="cls-1" points="208.03 218.4 207.73 218.38 207.57 218.51 207.86 218.76 208.23 218.72 208.49 218.26 208.26 218.04 208.03 218.4"/>
  <polygon class="cls-1" points="228.76 193.28 228.44 193.37 228.14 193.7 228.47 193.69 228.76 193.28"/>
  <polygon class="cls-1" points="228.28 193.37 228.3 193.17 227.58 193.55 227.96 193.52 228.28 193.37"/>
  <polygon class="cls-1" points="242.39 167.49 242.3 167.15 242.52 166.99 242.3 166.67 242.25 166.12 241.83 167.07 242.25 167.59 242.39 167.49"/>
  <polygon class="cls-1" points="241.2 166.95 240.92 167.08 241.08 167.3 241.2 166.95"/>
  <rect class="cls-6" x="-1768.95" y="-597.51" width="6562.35" height="1176.7"/>
</svg>