<?xml version="1.0" encoding="UTF-8"?>
<svg id="Calque_1" data-name="Calque 1" xmlns="http://www.w3.org/2000/svg" viewBox="0 0 128 128">
  <defs>
    <style>
      .cls-1 {
        fill: #ffd4ad;
      }

      .cls-1, .cls-2, .cls-3, .cls-4 {
        stroke: #000;
        stroke-width: 2px;
      }

      .cls-1, .cls-2, .cls-3, .cls-4, .cls-5 {
        stroke-linecap: round;
        stroke-linejoin: round;
      }

      .cls-2 {
        fill: #fee4cb;
      }

      .cls-3 {
        fill: #f3d587;
      }

      .cls-4, .cls-5 {
        fill: none;
      }

      .cls-5 {
        stroke: #fff;
        stroke-width: 8px;
      }
    </style>
  </defs>
  <path class="cls-2" d="m44.74,60.59c1.43,13.72-4.58,24.99-17.36,24.99s-18.58-11.25-17.36-24.99c1.26-14.21,9.56-24.99,17.36-24.99s15.77,9.72,17.36,24.99Z"/>
  <path class="cls-2" d="m57.41,59.4l-2.04,3.34,1.39,1.11-2.13,2.97,1.76,2.78-.37,5.19,5.38,8.62c-7.84-4.01-12.47-12.72-10.99-19.78,1.53-7.24,8.81-13.32,17.37-14.11l-6.29,5.42-4.08,1.02v3.43Z"/>
  <path class="cls-4" d="m102.46,88.89c-.22.04-.44.09-.65.12"/>
  <path class="cls-2" d="m118.75,78.57c-2.63,8.7-9.26,9.22-14.21,9.96-.03,0-.05,0-.08,0-.71.1-1.38.22-2.01.35l2.3-1.57,1.81-1.24-.1-2.66,3.09-1.81-.3-2.79,1.39-1.79-.8-2.29s1.69-1.19,2.59-4.09c.89-2.89.49-5.27,0-8.16-.29-1.68-1.69-3.58-3.53-5.11,7.4,4.13,11.93,14.21,9.83,21.19Z"/>
  <path class="cls-4" d="m108.54,57.16h.02s0,.02,0,.02c.12.06.24.13.36.2"/>
  <path class="cls-1" d="m86.55,62v6.4c0,2.7-2.14,8.54-2.14,8.54l-2.35,4.26c-3.04-.08-18.25-1.02-21.38.3-.29.13,3.64,2.93,7.85,3.84h-.03l-1.83-.1-5.25-1.82-5.38-8.62.37-5.19-1.76-2.78,2.13-2.97-1.39-1.11,2.04-3.34v-3.43l4.08-1.02,6.29-5.42h0s.03,0,.03,0l2.77.41,4.29.17h0l2.48,2.14s4.53,1.03,5.76,3.25c1.23,2.22,3.43,6.5,3.43,6.5Z"/>
  <path class="cls-1" d="m109.86,74.73l.8,2.29-1.39,1.79.3,2.79-3.09,1.81.1,2.66-1.81,1.24-2.3,1.57-.17.12c-1.04.04-2.09.06-3.16.06h-3.7l-2.9-1.39s-2.98-.62-4.38-2.01c-1.39-1.38-2.89-4.07-2.89-4.07l.09-.16,1.6-2.64-1.69-2.98,2.09-1.3.8-5.64,4.58-5.42.29-2.53,1.79-1.89,1.42-.16.99-1.79s3.59-3.29,7.27-2.2c1.55.47,3.11,1.37,4.44,2.46,1.84,1.53,3.23,3.43,3.53,5.11.49,2.89.89,5.27,0,8.16-.9,2.9-2.59,4.09-2.59,4.09Z"/>
  <path class="cls-4" d="m104.46,88.53c-.7.13-1.37.25-2.01.35.62-.14,1.3-.25,2.01-.35Z"/>
  <path class="cls-4" d="m104.46,88.53c-.7.13-1.37.25-2.01.35"/>
  <path class="cls-4" d="m107.21,88.48c-1.56.29-3.22.45-4.93.53-1.04.04-2.09.06-3.16.06h-3.7l-2.9-1.39s-2.98-.62-4.38-2.01c-1.39-1.38-2.89-4.07-2.89-4.07l.09-.16c-1.08-.14-2.19-.23-3.3-.25-3.04-.08-18.25-1.02-21.38.3-.29.13,3.64,2.93,7.85,3.84h-.03c-1.15.69-2.64,1.56-4.55,2.7-5.19,3.05-7.96,4.64-10.8,7.83-1.62,1.82-2.86,3.25-3.28,5.48-.78,4.06,1.76,7.59,2.51,8.61,4.48,6.21,12.65,7.35,19.57,8.31.65.09,5.91.11,16.44.16,9.44.03,11.83,0,14.72-1.73,3-1.78,3.63-3.65,7.21-4.69,3.53-1.04,5.26.1,7.51-1.25,2.62-1.57,3.71-5.13,3.76-7.36.14-5.86-6.72-11.1-14.35-14.9Zm-7.88,12.71c-.29,1.34-1.11,2.2-2.2,3.28-.81.83-2.94,2.92-6.27,3.92-4.46,1.34-8.44-.09-12.99-1.72-3.15-1.13-2.71-1.56-6.58-2.97-1.01-.37-1.68-.57-2.2-1.25-1.29-1.68-.39-4.54.47-6.11,1.35-2.47,4.26-4.67,6.34-5.64,2.02-.96,5.61-1.88,11.21-.93,1.4.24,6.41,1.17,9.86,5.32.94,1.14,2.9,3.5,2.35,6.11Z"/>
  <path class="cls-4" d="m99.33,101.19c-.29,1.34-1.11,2.2-2.2,3.28-.81.83-2.94,2.92-6.27,3.92-4.46,1.34-8.44-.09-12.99-1.72-3.15-1.13-2.71-1.56-6.58-2.97-1.01-.37-1.68-.57-2.2-1.25-1.29-1.68-.39-4.54.47-6.11,1.35-2.47,4.26-4.67,6.34-5.64,2.02-.96,5.61-1.88,11.21-.93,1.4.24,6.41,1.17,9.86,5.32.94,1.14,2.9,3.5,2.35,6.11Z"/>
  <path class="cls-3" d="m99.33,101.19c-.29,1.34-1.11,2.2-2.2,3.28-.81.83-2.94,2.92-6.27,3.92-4.46,1.34-8.44-.09-12.99-1.72-3.15-1.13-2.71-1.56-6.58-2.97-1.01-.37-1.68-.57-2.2-1.25-1.29-1.68-.39-4.54.47-6.11,1.35-2.47,4.26-4.67,6.34-5.64,2.02-.96,5.61-1.88,11.21-.93,1.4.24,6.41,1.17,9.86,5.32.94,1.14,2.9,3.5,2.35,6.11Z"/>
  <rect class="cls-5" x="-1393.67" y="-834.1" width="3385.57" height="2571.67"/>
</svg>