<?xml version="1.0" encoding="UTF-8"?>
<svg id="Calque_1" data-name="Calque 1" xmlns="http://www.w3.org/2000/svg" viewBox="0 0 128 128">
  <defs>
    <style>
      .cls-1, .cls-2 {
        fill: #d6d6d6;
      }

      .cls-2, .cls-3, .cls-4, .cls-5, .cls-6 {
        stroke-miterlimit: 10;
      }

      .cls-2, .cls-3, .cls-4, .cls-5, .cls-6, .cls-7, .cls-8, .cls-9, .cls-10, .cls-11 {
        stroke: #000;
      }

      .cls-3 {
        fill: #a07637;
      }

      .cls-4 {
        fill: #baa584;
      }

      .cls-5 {
        fill: #76ac75;
      }

      .cls-12 {
        stroke: #fff;
        stroke-linejoin: round;
        stroke-width: 8px;
      }

      .cls-12, .cls-6, .cls-10 {
        fill: none;
      }

      .cls-12, .cls-7, .cls-8, .cls-9, .cls-11 {
        stroke-linecap: round;
      }

      .cls-7 {
        fill: #f3d587;
      }

      .cls-7, .cls-8, .cls-9, .cls-10, .cls-11 {
        stroke-miterlimit: 1;
      }

      .cls-8 {
        fill: #8987f3;
      }

      .cls-9 {
        fill: #b2f0e9;
      }

      .cls-11 {
        fill: #fab0b4;
      }
    </style>
  </defs>
  <ellipse class="cls-1" cx="95.58" cy="88.16" rx="18.85" ry="8.6"/>
  <ellipse class="cls-1" cx="40.89" cy="89.81" rx="27.39" ry="8.6"/>
  <path class="cls-5" d="m16.12,39.8c-.87.63-2.1,1.49-2.82,2.3-2.19,2.49-3.31,5.87-3.05,9.18.25,3.21,1.77,6.26,4.18,8.39,0,0,0,0,0,.01.91.67,1.73,1.22,2.62,1.76.02.01.03.02.05.04,0,0,.01,0,.02,0,.08.05.15.09.23.14.03.01.05.02.08.04,0,.34,0,.68.03,1.02.24,3.14,1.73,6.12,4.1,8.2,2.59,2.28,5.6,2.99,8.96,2.99.36,0,.72-.02,1.07-.06.02,0,.05,0,.07,0,.35-.04.7-.11,1.04-.19.01,0,.03,0,.04,0,.56-.13,1.11-.32,1.64-.54.48-.21,1.03-.2,1.5.02,1.83.86,3.82,1.16,5.97,1.16,1.69,0,3.28-.47,4.68-1.27.47-.27,1.02-.33,1.53-.16,1.51.52,3.13.72,4.85.72,6.27,0,11.03-6.47,10.58-12.35-.1-1.34-.45-2.65-1-3.87-.28-.62-.23-1.32.15-1.88,1.65-2.43,2.54-5.4,2.32-8.24-.25-3.27-1.81-6.37-4.27-8.53-.28-.25-.56-.47-.85-.68-.47-.34-.73-.88-.77-1.45,0,0,0,0,0,0-.34-4.42-4.08-7.09-8.27-7.09-.17,0-.33,0-.5.02-.63.05-1.23-.27-1.61-.77-.17-.21-.34-.42-.52-.63-.03-.03-.06-.07-.09-.1-.3-.33-.6-.64-.94-.93-2.51-2.21-5.41-2.89-8.66-2.89s-6.01,1.65-7.97,4.04c-.42.52-1.08.78-1.74.7-.73-.09-1.49-.13-2.27-.13-5.78,0-10.26,5.63-10.38,11.09Z"/>
  <polygon class="cls-3" points="46.04 66.27 45.67 65.9 41.86 68.51 41.02 60.16 39.76 60.16 38.34 74.38 36.11 72.85 35.73 73.23 38.1 76.69 36.6 91.77 44.18 91.77 42.2 71.9 46.04 66.27"/>
  <g>
    <line x1="11.08" y1="76.4" x2="23.73" y2="87.63"/>
    <g>
      <line class="cls-6" x1="11.08" y1="76.4" x2="22.83" y2="86.83"/>
      <path d="m14.53,85.88c.04-.27.3-.46.57-.41l7.55,1.21-2.1-7.36c-.08-.27.08-.54.34-.62s.54.08.62.34l2.32,8.11c.05.16,0,.34-.11.47s-.28.19-.45.16l-8.33-1.33c-.1-.02-.18-.06-.25-.12-.12-.11-.19-.28-.16-.45Z"/>
    </g>
  </g>
  <line class="cls-10" x1="95.58" y1="59.8" x2="95.58" y2="59.72"/>
  <g>
    <path class="cls-11" d="m95.58,42.19s-11.63,5.46-12.18,17.53h-5.36c0-9.69,7.85-17.53,17.53-17.53Z"/>
    <path class="cls-8" d="m95.58,42.19v17.53h-12.18c.54-12.07,12.18-17.53,12.18-17.53Z"/>
    <path class="cls-7" d="m113.11,59.72h-5.36c-.54-12.07-12.18-17.53-12.18-17.53,9.68,0,17.53,7.85,17.53,17.53Z"/>
    <path class="cls-9" d="m107.76,59.72h-12.18v-17.53s11.63,5.46,12.18,17.53Z"/>
    <path class="cls-2" d="m94.86,42.19v-.99c0-.39.32-.72.72-.72h0c.39,0,.72.32.72.72v.99"/>
  </g>
  <rect class="cls-4" x="94.61" y="59.72" width="1.94" height="28.44"/>
  <g>
    <line x1="71.72" y1="73.37" x2="84.37" y2="84.59"/>
    <g>
      <line class="cls-6" x1="71.72" y1="73.37" x2="83.47" y2="83.79"/>
      <path d="m75.18,82.85c.04-.27.3-.46.57-.41l7.55,1.21-2.1-7.36c-.08-.27.08-.54.34-.62.27-.08.54.08.62.34l2.32,8.11c.05.16,0,.34-.11.47-.11.13-.28.19-.45.16l-8.33-1.33c-.1-.02-.18-.06-.25-.12-.12-.11-.19-.28-.16-.45Z"/>
    </g>
  </g>
  <rect class="cls-12" x="-4930.88" y="-979.45" width="6467.34" height="6437.3"/>
</svg>