<?xml version="1.0" encoding="UTF-8"?>
<svg id="Calque_1" data-name="Calque 1" xmlns="http://www.w3.org/2000/svg" viewBox="0 0 128 128">
  <defs>
    <style>
      .cls-1 {
        fill: #ff6d75;
      }

      .cls-2, .cls-3 {
        fill: #87f3b9;
      }

      .cls-4, .cls-3 {
        stroke: #000;
      }

      .cls-4, .cls-5 {
        stroke-width: 2px;
      }

      .cls-4, .cls-5, .cls-6 {
        fill: none;
      }

      .cls-4, .cls-6 {
        stroke-linecap: round;
        stroke-linejoin: round;
      }

      .cls-3, .cls-5 {
        stroke-miterlimit: 10;
      }

      .cls-5 {
        stroke: #ff6d75;
      }

      .cls-6 {
        stroke: #fff;
        stroke-width: 8px;
      }
    </style>
  </defs>
  <g>
    <path class="cls-4" d="m110.92,109.94l-26.38,13.09-17.74-33.87s-5.35-.24-10.76-3.74c-5.42-3.5-11.28-13.75-11.28-13.75l-8.87-14.36s-1.28-1.82-.71-4.24c.23-.95.74-1.99,1.73-3.04,1.98-2.09,4.16-1.88,5.69-1.28,1.2.46,2,1.16,2,1.16l3.27,3.75-3.32-6.67-9.35-18.83c-.6-1.23-.65-2.6-.25-3.81.4-1.21,1.27-2.28,2.5-2.88,2.46-1.22,5.47-.21,6.69,2.25l-3.19-6.42c-.61-1.22-.66-2.59-.26-3.81.42-1.21,1.29-2.27,2.51-2.88,1.33-.66,2.81-.66,4.09-.14,1.09.43,2.04,1.26,2.59,2.39l3.18,6.41c-.61-1.22-.66-2.59-.26-3.81.4-1.21,1.28-2.27,2.5-2.88,2.46-1.22,5.47-.21,6.69,2.25l5.62,11.31c-.61-1.22-.66-2.59-.26-3.81.4-1.21,1.28-2.27,2.51-2.88,2.45-1.22,5.46-.21,6.68,2.25l15.85,31.91s3.38,5.86,2.66,11.44c-.71,5.59-2.59,9.61-2.59,9.61l18.44,35.27Z"/>
    <polyline class="cls-4" points="47.87 53.65 53.26 63.33 55.8 67.88"/>
    <line class="cls-4" x1="67.63" y1="26.14" x2="76.06" y2="43.12"/>
    <line class="cls-4" x1="53.08" y1="19.27" x2="67.12" y2="47.55"/>
    <line class="cls-4" x1="58.19" y1="51.99" x2="44.14" y2="23.71"/>
  </g>
  <g>
    <path class="cls-3" d="m70.27,24.88c-.49-1.02-.06-2.24.96-2.73s2.25-.06,2.74.96l.53,1.11-3.69,1.78-.53-1.11Z"/>
    <path class="cls-3" d="m55.59,18.56c-.59-1.22-.08-2.68,1.14-3.27,1.22-.59,2.69-.08,3.27,1.14l.64,1.32-4.42,2.13-.64-1.32Z"/>
    <path class="cls-3" d="m43.29,16.41c-.59-1.22-.08-2.68,1.14-3.27,1.22-.59,2.69-.08,3.27,1.14l.64,1.32-4.42,2.13-.64-1.32Z"/>
    <path class="cls-3" d="m37.66,27.3c-.59-1.22-.08-2.68,1.14-3.27,1.22-.59,2.69-.08,3.27,1.14l.64,1.32-4.42,2.13-.64-1.32Z"/>
    <path class="cls-3" d="m38.54,56.14c-.86-1.38-.43-3.19.94-4.04,1.38-.86,3.19-.43,4.05.94l.93,1.49-4.99,3.1-.93-1.49Z"/>
  </g>
  <g>
    <line class="cls-2" x1="15.7" y1="47.55" x2="38.03" y2="27.32"/>
    <g>
      <line class="cls-5" x1="15.7" y1="47.55" x2="36.42" y2="28.77"/>
      <polygon class="cls-1" points="37 39.28 35.01 39.12 35.85 29.29 25.99 29.17 26.02 27.16 38.03 27.32 37 39.28"/>
    </g>
  </g>
  <rect class="cls-6" x="-219.84" y="-961.05" width="6467.34" height="6437.3"/>
</svg>