<?xml version="1.0" encoding="UTF-8"?>
<svg id="Calque_1" data-name="Calque 1" xmlns="http://www.w3.org/2000/svg" viewBox="0 0 128 128">
  <defs>
    <style>
      .cls-1 {
        fill: #76ac75;
      }

      .cls-1, .cls-2, .cls-3 {
        stroke: #000;
      }

      .cls-1, .cls-2, .cls-3, .cls-4 {
        stroke-linecap: round;
        stroke-linejoin: round;
      }

      .cls-2, .cls-4 {
        fill: none;
      }

      .cls-3 {
        fill: #ffa75f;
        stroke-width: 2px;
      }

      .cls-4 {
        stroke: #fff;
        stroke-width: 8px;
      }
    </style>
  </defs>
  <g>
    <path class="cls-3" d="m60.28,27.97c-3.06-.44-4.79.74-10.64,3.11-5.97,2.42-7.78,2.65-9.87,3.56-9.03,3.94-17.47,18.11-17.1,32.77.41,16.04,11.2,26.12,13.73,28.48,2.1,1.96,16.51,14.97,36.87,11.48,1.7-.29,22.77-4.27,31.4-24.06,1.01-2.31,7.14-17.02-.15-32.55-4.86-10.36-13.96-17.37-19.44-18.94-1.89-.54-4.3-.71-8.1-2.4-2.85-1.26-4.14-2.34-6.43-2.14-2,.18-2.37,1.13-4.71,1.45-2.41.34-3.51-.47-5.57-.76Z"/>
    <path class="cls-1" d="m66.54,33.75c-.55-.54-2.93-1.34-3.91-1.59.09-1.07.36-2.03.39-2.79.12-2.22.31-3.72-.32-5.26-.63-1.53,2.97-.19,4.13-.31,1.99-.22-.1,6.63-.29,9.96Z"/>
    <circle cx="66.57" cy="45.07" r=".89"/>
    <circle cx="38.5" cy="87.15" r=".89"/>
    <circle cx="36.17" cy="74.75" r=".89"/>
    <circle cx="30.69" cy="77.41" r=".89"/>
    <circle cx="28.77" cy="66.09" r=".89"/>
    <circle cx="78.86" cy="43.14" r=".89"/>
    <circle cx="88.33" cy="41.73" r=".89"/>
    <circle cx="92.62" cy="45.62" r=".89"/>
    <circle cx="86.17" cy="49.14" r=".89"/>
    <circle cx="75.74" cy="50.38" r=".89"/>
    <circle cx="85.34" cy="60.21" r=".89"/>
    <circle cx="93.47" cy="59.52" r=".89"/>
    <circle cx="93.37" cy="52.18" r=".89"/>
    <circle cx="100.96" cy="55.46" r=".89"/>
    <circle cx="101.08" cy="65.15" r=".89"/>
    <circle cx="93.82" cy="69.53" r=".89"/>
    <circle cx="99.12" cy="74.95" r=".89"/>
    <circle cx="95.08" cy="84.1" r=".89"/>
    <circle cx="88.46" cy="87.39" r=".89"/>
    <path class="cls-2" d="m74.15,34.27s-3.07-2.27-4.48-2.25-3.24,2.13-3.24,2.13c0,0-.14-.17-.38-.39-.43-.42-1.22-1.09-1.99-1.28-.14-.03-.29-.05-.43-.05-.37,0-.86.25-1.4.61-1.31.87-2.83,2.4-2.83,2.4"/>
    <path class="cls-2" d="m57.02,32.18s1.86-1.13,3.07-.86c.55.13,1.39.92,2.15,1.72"/>
  </g>
  <rect class="cls-4" x="-551.27" y="-1635.28" width="3385.57" height="2571.67"/>
</svg>