<?xml version="1.0" encoding="UTF-8"?>
<svg id="Calque_1" data-name="Calque 1" xmlns="http://www.w3.org/2000/svg" viewBox="0 0 200 128">
  <defs>
    <style>
      .cls-1 {
        fill: #bfe6fc;
      }

      .cls-1, .cls-2 {
        stroke: #000;
      }

      .cls-1, .cls-2, .cls-3 {
        stroke-linecap: round;
        stroke-linejoin: round;
      }

      .cls-4, .cls-2 {
        fill: #d6d6d6;
      }

      .cls-2 {
        stroke-width: 2px;
      }

      .cls-3 {
        fill: none;
        stroke: #fff;
        stroke-width: 8px;
      }
    </style>
  </defs>
  <path class="cls-2" d="m152.76,9.88H46.11c-1.48,0-2.69,1.21-2.69,2.69v71.08s112.03,0,112.03,0V12.57c0-1.48-1.21-2.69-2.69-2.69Z"/>
  <rect class="cls-1" x="51.36" y="15.87" width="96.14" height="61.77"/>
  <path d="m99.91,13.54c0,.26-.21.48-.48.48s-.48-.21-.48-.48.21-.48.48-.48.48.21.48.48Z"/>
  <g>
    <rect class="cls-4" x="89.24" y="107.77" width="20.63" height="4"/>
    <path class="cls-2" d="m109.88,108.94v1.26c0,.87-.52,1.58-1.15,1.58h-18.67c-.63,0-1.15-.71-1.15-1.58v-1.26H22.71l1.97,5.88h149.66l1.81-5.88h-66.27Z"/>
  </g>
  <polygon class="cls-2" points="22.71 109.19 176.15 109.19 155.44 83.64 43.42 83.64 22.71 109.19"/>
  <polygon class="cls-1" points="96.08 89.98 102.53 89.95 104.58 95.01 94.28 95.01 96.08 89.98"/>
  <polygon class="cls-1" points="84.08 97.69 115.01 97.65 117.06 102.72 82.28 102.72 84.08 97.69"/>
  <polygon class="cls-1" points="92.7 89.98 92.67 89.98 90.86 95.01 84.44 95.01 86.24 89.98 92.69 89.95 92.7 89.98"/>
  <polygon class="cls-1" points="82.8 89.98 82.76 89.98 80.96 95.01 74.54 95.01 76.33 89.98 82.79 89.95 82.8 89.98"/>
  <polygon class="cls-1" points="72.9 89.98 72.86 89.98 71.05 95.01 64.63 95.01 66.43 89.98 72.89 89.95 72.9 89.98"/>
  <polygon class="cls-1" points="62.99 89.98 62.96 89.98 61.15 95.01 54.73 95.01 56.53 89.98 62.98 89.95 62.99 89.98"/>
  <polygon class="cls-1" points="53.14 89.98 53.11 89.98 51.3 95.01 42.69 95.01 46.67 89.98 53.13 89.95 53.14 89.98"/>
  <polygon class="cls-1" points="106.13 89.98 106.17 89.98 107.97 95.01 114.39 95.01 112.6 89.98 106.14 89.95 106.13 89.98"/>
  <polygon class="cls-1" points="116.03 89.98 116.07 89.98 117.88 95.01 124.3 95.01 122.5 89.98 116.05 89.95 116.03 89.98"/>
  <polygon class="cls-1" points="125.94 89.98 125.97 89.98 127.78 95.01 134.2 95.01 132.4 89.98 125.95 89.95 125.94 89.98"/>
  <polygon class="cls-1" points="135.84 89.98 135.88 89.98 137.68 95.01 144.1 95.01 142.31 89.98 135.85 89.95 135.84 89.98"/>
  <polygon class="cls-1" points="145.69 89.98 145.73 89.98 147.53 95.01 156.15 95.01 152.16 89.98 145.7 89.95 145.69 89.98"/>
  <polygon class="cls-1" points="118.61 97.68 118.65 97.68 120.46 102.71 126.88 102.71 125.08 97.68 118.62 97.66 118.61 97.68"/>
  <polygon class="cls-1" points="128.52 97.68 128.55 97.68 130.36 102.71 136.78 102.71 134.98 97.68 128.53 97.66 128.52 97.68"/>
  <polygon class="cls-1" points="138.42 97.68 138.45 97.68 140.26 102.71 146.68 102.71 144.89 97.68 138.43 97.66 138.42 97.68"/>
  <polygon class="cls-1" points="148.27 97.68 148.31 97.68 150.11 102.71 162.34 102.72 158.35 97.68 148.28 97.66 148.27 97.68"/>
  <polygon class="cls-1" points="150.11 102.71 162.34 102.72 158.35 97.68 148.28 97.66 150.11 102.71"/>
  <polygon class="cls-1" points="48.96 102.71 36.73 102.71 40.72 97.68 50.79 97.65 48.96 102.71"/>
  <polygon class="cls-1" points="80.45 97.68 80.41 97.68 78.6 102.71 72.18 102.71 73.98 97.68 80.43 97.66 80.45 97.68"/>
  <polygon class="cls-1" points="70.54 97.68 70.51 97.68 68.7 102.71 62.28 102.71 64.07 97.68 70.53 97.66 70.54 97.68"/>
  <polygon class="cls-1" points="60.64 97.68 60.6 97.68 58.8 102.71 52.38 102.71 54.17 97.68 60.63 97.66 60.64 97.68"/>
  <rect class="cls-3" x="-3824.32" y="-5758" width="6467.34" height="6437.3"/>
</svg>