<?xml version="1.0" encoding="UTF-8"?>
<svg id="Calque_1" data-name="Calque 1" xmlns="http://www.w3.org/2000/svg" viewBox="0 0 128 128">
  <defs>
    <style>
      .cls-1 {
        stroke: #000;
        stroke-width: 2px;
      }

      .cls-1, .cls-2 {
        fill: none;
        stroke-linecap: round;
        stroke-linejoin: round;
      }

      .cls-2 {
        stroke: #fff;
        stroke-width: 8px;
      }
    </style>
  </defs>
  <g>
    <g>
      <path class="cls-1" d="m49.12,61.15c1.01-10.48-4.41-19.63-12.27-22.26-7.57-2.53-14.57,1.94-15.42,2.5-7.54,4.98-8.72,13.77-9.12,16.72-1.27,9.49,2.81,16.59,8.68,26.81.52.9,3.57,6.09,9.34,10.53,3.06,2.35,4.72,2.83,6.19,2.82,3.6,0,6.55-2.46,8.22-4.25,2.29-2.46,3.25-5.58,3.94-7.8"/>
      <path class="cls-1" d="m23.01,81.17c-2.83-4.17-6.1-10.54-6.75-18.62-.33-4.08-.59-8.01,1.69-12.04,2.46-4.34,7.34-7.85,13.01-7.99,1.27-.03,7.1-.18,10.63,4.25,3.93,4.94,3.15,13.22-1.69,17.61-4.23,3.83-9.81,3.07-10.72,2.93"/>
      <path class="cls-1" d="m44.09,54.66c-2.83,7.18-7.66,6.94-9.51,7.29-3.01.56-4.35-.13-7.18.91-1.49.55-4.01,1.48-5.16,3.95-1.25,2.67-.27,5.8,1.21,7.69,1.88,2.39,4.65,2.92,5.26,3.04,2.38.45,3.84-.38,5.75.23,1.21.39,2.15,1.89,3.87,3.61,1.64,1.64,2.53,1.86,3.54,1.92.2.01,2.03.09,2.93-1.11.99-1.33.23-3.38-.2-4.55-.64-1.71-1.28-1.95-1.52-3.24-.27-1.46.25-2.78.71-3.64"/>
    </g>
    <g>
      <path class="cls-1" d="m78.88,61.15c-1.01-10.48,4.41-19.63,12.27-22.26,7.57-2.53,14.57,1.94,15.42,2.5,7.54,4.98,8.72,13.77,9.12,16.72,1.27,9.49-2.81,16.59-8.68,26.81-.52.9-3.57,6.09-9.34,10.53-3.06,2.35-4.72,2.83-6.19,2.82-3.6,0-6.55-2.46-8.22-4.25-2.29-2.46-3.25-5.58-3.94-7.8"/>
      <path class="cls-1" d="m104.99,81.17c2.83-4.17,6.1-10.54,6.75-18.62.33-4.08.59-8.01-1.69-12.04-2.46-4.34-7.34-7.85-13.01-7.99-1.27-.03-7.1-.18-10.63,4.25-3.93,4.94-3.15,13.22,1.69,17.61,4.23,3.83,9.81,3.07,10.72,2.93"/>
      <path class="cls-1" d="m83.91,54.66c2.83,7.18,7.66,6.94,9.51,7.29,3.01.56,4.35-.13,7.18.91,1.49.55,4.01,1.48,5.16,3.95,1.25,2.67.27,5.8-1.21,7.69-1.88,2.39-4.65,2.92-5.26,3.04-2.38.45-3.84-.38-5.75.23-1.21.39-2.15,1.89-3.87,3.61-1.64,1.64-2.53,1.86-3.54,1.92-.2.01-2.03.09-2.93-1.11-.99-1.33-.23-3.38.2-4.55.64-1.71,1.28-1.95,1.52-3.24.27-1.46-.25-2.78-.71-3.64"/>
    </g>
  </g>
  <rect class="cls-2" x="-1186.63" y="-963.94" width="6467.34" height="6437.3"/>
</svg>