<?xml version="1.0" encoding="UTF-8"?>
<svg id="Calque_1" data-name="Calque 1" xmlns="http://www.w3.org/2000/svg" viewBox="0 0 128 128">
  <defs>
    <style>
      .cls-1 {
        fill: #fee4cb;
      }

      .cls-1, .cls-2 {
        stroke: #000;
        stroke-miterlimit: 10;
        stroke-width: 2px;
      }

      .cls-2, .cls-3 {
        fill: none;
      }

      .cls-3 {
        stroke: #fff;
        stroke-linecap: round;
        stroke-linejoin: round;
        stroke-width: 8px;
      }
    </style>
  </defs>
  <path class="cls-1" d="m42.72,89.85v-48.3c5.53-.22,9.96-4.76,9.96-10.35s-4.64-10.37-10.37-10.37c-2.07,0-3.99.61-5.6,1.65-2.07-1.86-4.8-3-7.81-3-6.47,0-11.71,5.24-11.71,11.71,0,5.87,4.32,10.72,9.96,11.57v49.9c-5,.43-8.92,4.61-8.92,9.72,0,5.39,4.37,9.76,9.76,9.76,2.44,0,4.67-.91,6.39-2.39,1.78,1.22,3.92,1.94,6.24,1.94,6.09,0,11.03-4.94,11.03-11.03,0-5.37-3.84-9.84-8.92-10.82Z"/>
  <path class="cls-1" d="m105,100.66c0,6.09-4.94,11.03-11.03,11.03-2.31,0-4.46-.72-6.24-1.94-1.71,1.49-3.94,2.39-6.38,2.39-5.4,0-9.77-4.37-9.77-9.76,0-5.11,3.93-9.29,8.93-9.72v-21.9l6.2-3.4,6.05,4.86,3.32-1.86v19.48c5.08.99,8.92,5.45,8.92,10.82Z"/>
  <path class="cls-1" d="m70.55,31.2c0-6.47,5.24-11.72,11.71-11.72,3,0,5.73,1.15,7.81,3,1.61-1.04,3.53-1.65,5.6-1.65,5.73,0,10.37,4.64,10.37,10.37s-4.43,10.13-9.96,10.34v18.7l-4.08,2.28-6.06-4.85-5.43,2.97v-17.88c-5.64-.85-9.96-5.69-9.96-11.56Z"/>
  <polyline class="cls-2" points="101.08 63.78 108.2 60.18 110.03 64.31 116.83 59.74"/>
  <polyline class="cls-2" points="100.81 68.19 106.71 68.58 106.31 71.9 112.38 71.55"/>
  <polyline class="cls-2" points="74.3 63.8 67.18 60.21 65.35 64.33 58.55 59.76"/>
  <polyline class="cls-2" points="74.57 68.22 68.67 68.61 69.07 71.92 63 71.57"/>
  <rect class="cls-3" x="-2043.21" y="-4696.12" width="6467.34" height="6437.3"/>
</svg>