<?xml version="1.0" encoding="UTF-8"?>
<svg id="Calque_1" data-name="Calque 1" xmlns="http://www.w3.org/2000/svg" viewBox="0 0 128 128">
  <defs>
    <style>
      .cls-1 {
        stroke: #000;
      }

      .cls-1, .cls-2 {
        stroke-width: 2px;
      }

      .cls-1, .cls-2, .cls-3 {
        fill: none;
        stroke-linecap: round;
        stroke-linejoin: round;
      }

      .cls-2 {
        stroke: #fab0b4;
      }

      .cls-3 {
        stroke: #fff;
        stroke-width: 8px;
      }
    </style>
  </defs>
  <g>
    <path class="cls-1" d="m86.15,53.2c1.3-13.54-5.7-25.36-15.85-28.75-9.78-3.27-18.82,2.5-19.92,3.23-9.74,6.43-11.27,17.78-11.78,21.6-1.65,12.26,3.63,21.43,11.22,34.64.67,1.16,4.61,7.87,12.06,13.6,3.95,3.04,6.09,3.65,7.99,3.65,4.65-.01,8.46-3.18,10.62-5.5,2.95-3.18,4.2-7.21,5.09-10.07"/>
    <path class="cls-1" d="m52.42,79.07c-3.65-5.39-7.88-13.61-8.72-24.05-.43-5.27-.77-10.35,2.18-15.56,3.18-5.61,9.48-10.14,16.8-10.33,1.63-.04,9.17-.24,13.73,5.49,5.08,6.38,4.07,17.08-2.18,22.75-5.47,4.95-12.67,3.97-13.85,3.79"/>
    <path class="cls-1" d="m79.65,44.82c-3.66,9.28-9.89,8.97-12.29,9.41-3.89.72-5.62-.17-9.28,1.18-1.92.71-5.17,1.91-6.67,5.1-1.62,3.45-.35,7.49,1.57,9.93,2.43,3.09,6.01,3.77,6.8,3.92,3.08.59,4.96-.49,7.42.3,1.56.5,2.78,2.45,5,4.66,2.11,2.11,3.26,2.41,4.58,2.48.26.02,2.63.12,3.79-1.44,1.28-1.72.3-4.37-.26-5.88-.82-2.22-1.65-2.52-1.96-4.18-.35-1.89.32-3.6.92-4.71"/>
  </g>
  <g>
    <path class="cls-2" d="m46.43,100.52c-9.36-1.86-15.5-11.05-13.64-20.41"/>
    <path class="cls-2" d="m44.51,108.98c-13.92-2.77-23.04-16.42-20.28-30.34"/>
    <path class="cls-2" d="m42.82,117.49c-18.66-3.71-30.9-22.02-27.19-40.69"/>
  </g>
  <rect class="cls-3" x="-2779.41" y="-998.34" width="6467.34" height="6437.3"/>
</svg>