<?xml version="1.0" encoding="UTF-8"?>
<svg id="Calque_1" data-name="Calque 1" xmlns="http://www.w3.org/2000/svg" viewBox="0 0 128 128">
  <defs>
    <style>
      .cls-1 {
        fill: #d6d6d6;
      }

      .cls-1, .cls-2, .cls-3, .cls-4, .cls-5, .cls-6, .cls-7, .cls-8 {
        stroke: #000;
      }

      .cls-1, .cls-2, .cls-3, .cls-4, .cls-5, .cls-6, .cls-7, .cls-8, .cls-9 {
        stroke-linecap: round;
        stroke-linejoin: round;
      }

      .cls-2 {
        fill: #87ccf3;
      }

      .cls-3 {
        fill: #b2f0e9;
      }

      .cls-4, .cls-7 {
        fill: #ff6d75;
      }

      .cls-5, .cls-8 {
        fill: #fff;
      }

      .cls-6, .cls-9 {
        fill: none;
      }

      .cls-7, .cls-8 {
        stroke-width: 2px;
      }

      .cls-9 {
        stroke: #fff;
        stroke-width: 8px;
      }
    </style>
  </defs>
  <rect class="cls-8" x="10.58" y="54.21" width="50.56" height="62.67" transform="translate(-18.34 10.27) rotate(-13.01)"/>
  <rect class="cls-8" x="10.58" y="54.21" width="50.56" height="62.67"/>
  <path class="cls-7" d="m43.3,84.31c-.2.56-.53,1.06-.94,1.48h0s-6.37,6.33-6.37,6.33c-.03.03-.07.05-.11.05,0,0,0,0-.01,0,0,0,0,0-.01,0-.04,0-.08-.02-.11-.05l-6.14-6.1c-.16-.14-.31-.29-.45-.45-.32-.38-.58-.81-.75-1.29-.15-.42-.23-.87-.23-1.34,0-2.22,1.81-4.03,4.03-4.03,1.62,0,3.02.96,3.65,2.34.64-1.38,2.04-2.34,3.66-2.34,2.22,0,4.03,1.81,4.03,4.03,0,.48-.08.94-.24,1.37Z"/>
  <g>
    <path d="m22.37,66.51c-.7.58-1.7.87-2.99.87h-2.49v4.29h-2.48v-11.94h5.13c1.18,0,2.12.31,2.83.92s1.06,1.57,1.06,2.86c0,1.41-.35,2.41-1.05,2.99Zm-1.91-4.3c-.31-.27-.76-.4-1.33-.4h-2.25v3.52h2.25c.57,0,1.01-.14,1.33-.43.32-.29.47-.74.47-1.36s-.16-1.07-.47-1.33Z"/>
    <path d="m27.61,59.74h2.82l4.23,11.94h-2.71l-.79-2.46h-4.4l-.81,2.46h-2.61l4.26-11.94Zm-.17,7.43h3.06l-1.51-4.7-1.55,4.7Z"/>
    <path d="m37.32,60.98c.96-.98,2.18-1.47,3.67-1.47,1.99,0,3.44.66,4.36,1.98.51.74.78,1.48.82,2.23h-2.49c-.16-.57-.36-1-.61-1.3-.44-.52-1.1-.78-1.98-.78s-1.59.37-2.1,1.1-.77,1.77-.77,3.11.27,2.34.81,3.01,1.23,1,2.06,1,1.51-.29,1.96-.86c.25-.3.45-.77.62-1.38h2.48c-.21,1.3-.76,2.36-1.64,3.18s-2,1.22-3.38,1.22c-1.7,0-3.04-.55-4.01-1.65-.97-1.1-1.46-2.62-1.46-4.55,0-2.09.55-3.69,1.66-4.82Z"/>
    <path d="m49.96,67.99c.08.55.23.96.45,1.22.41.49,1.12.74,2.13.74.6,0,1.09-.06,1.46-.19.71-.25,1.07-.71,1.07-1.39,0-.4-.17-.7-.52-.91-.35-.21-.9-.4-1.66-.56l-1.29-.28c-1.27-.28-2.14-.59-2.62-.92-.8-.55-1.21-1.41-1.21-2.58,0-1.07.39-1.96,1.18-2.67s1.94-1.06,3.47-1.06c1.27,0,2.36.33,3.26,1,.9.67,1.37,1.64,1.42,2.9h-2.4c-.05-.72-.37-1.23-.97-1.53-.4-.2-.89-.3-1.49-.3-.66,0-1.18.13-1.58.39-.39.26-.59.62-.59,1.08,0,.43.19.75.58.96.25.14.78.3,1.58.49l2.1.49c.92.22,1.61.51,2.07.87.71.56,1.07,1.37,1.07,2.44s-.42,2-1.26,2.72c-.85.72-2.03,1.08-3.57,1.08s-2.81-.36-3.71-1.07-1.35-1.68-1.35-2.93h2.38Z"/>
  </g>
  <g>
    <rect x="16.63" y="99.73" width="38.44" height="1.83"/>
    <rect x="16.63" y="103.95" width="38.44" height="1.83"/>
    <rect x="16.63" y="108.17" width="38.44" height="1.83"/>
  </g>
  <g>
    <circle class="cls-8" cx="93.25" cy="35.59" r="31.58"/>
    <polygon class="cls-1" points="108.32 30.49 108.32 35.59 97.75 35.59 97.81 35.52 101.04 31.24 101.61 30.49 108.32 30.49"/>
    <polygon class="cls-1" points="87.36 35.59 76.74 35.59 76.74 30.49 83.5 30.49 84.09 31.27 87.32 35.53 87.36 35.59"/>
    <polygon class="cls-5" points="108.32 35.61 108.32 57.94 76.74 57.94 76.74 35.61 82.36 35.61 82.36 28.75 102.76 28.75 102.76 35.61 108.32 35.61"/>
    <polygon class="cls-1" points="104.21 28.7 80.92 28.7 84.7 20.91 100.42 20.91 104.21 28.7"/>
    <rect class="cls-3" x="84.08" y="31.18" width="3.23" height="5.04"/>
    <rect class="cls-3" x="90.95" y="31.18" width="3.23" height="5.04"/>
    <rect class="cls-3" x="97.81" y="31.18" width="3.23" height="5.04"/>
    <rect class="cls-5" x="84.39" y="43.34" width="1.42" height="10.93"/>
    <rect class="cls-5" x="99.42" y="43.34" width="1.26" height="10.93"/>
    <rect class="cls-5" x="76.74" y="55.48" width="5.66" height="2.45"/>
    <rect class="cls-5" x="102.69" y="55.48" width="5.63" height="2.45"/>
    <line class="cls-5" x1="76.74" y1="56.53" x2="76.74" y2="55.48"/>
    <line class="cls-5" x1="82.4" y1="55.48" x2="82.4" y2="56.53"/>
    <rect class="cls-1" x="83.25" y="39.77" width="18.65" height="3.8" rx="1.84" ry="1.84"/>
    <rect class="cls-1" x="83.01" y="54.27" width="19.11" height="1.21"/>
    <rect class="cls-1" x="82.4" y="55.48" width="20.32" height="1.21"/>
    <rect class="cls-1" x="81.66" y="56.69" width="21.8" height="1.24"/>
    <rect class="cls-2" x="95.37" y="12.46" width="3.43" height="5.24"/>
    <rect class="cls-4" x="102.22" y="12.46" width="3.43" height="5.24"/>
    <rect class="cls-5" x="98.79" y="12.46" width="3.43" height="5.24"/>
    <line class="cls-6" x1="95.37" y1="17.7" x2="95.37" y2="23.27"/>
    <rect class="cls-5" x="98.79" y="12.46" width="3.43" height="5.24"/>
    <path d="m88.39,40.59h.63s0,2.11,0,2.11h-.41s0-1.43,0-1.43c0-.04,0-.1,0-.17s0-.13,0-.17l-.4,1.77h-.43s-.4-1.77-.4-1.77c0,.04,0,.1,0,.17s0,.13,0,.17v1.43s-.41,0-.41,0v-2.11s.64,0,.64,0l.38,1.66.38-1.66Z"/>
    <path d="m90.33,40.59h.5s.75,2.11.75,2.11h-.48s-.14-.43-.14-.43h-.78s-.14.43-.14.43h-.46s.75-2.11.75-2.11Zm-.03,1.31h.54s-.27-.83-.27-.83l-.27.83Z"/>
    <path d="m92.54,42.7h-.44s0-2.11,0-2.11h.44s0,2.11,0,2.11Z"/>
    <path d="m94.6,40.64c.08.03.14.08.2.15.04.05.08.11.11.18s.04.14.04.22c0,.1-.03.2-.08.3s-.13.17-.25.21c.1.04.17.09.21.17s.06.18.06.33v.14c0,.1,0,.16.01.2.01.05.04.09.08.12v.05s-.49,0-.49,0c-.01-.05-.02-.08-.03-.11-.01-.06-.02-.12-.02-.18v-.2c0-.13-.03-.22-.07-.27-.04-.04-.13-.07-.25-.07h-.43s0,.83,0,.83h-.43s0-2.11,0-2.11h1.01c.14,0,.26.02.33.05Zm-.91.31v.57s.47,0,.47,0c.09,0,.16-.01.21-.03.08-.04.13-.12.13-.24,0-.13-.04-.21-.12-.26-.05-.02-.11-.04-.2-.04h-.49Z"/>
    <path d="m96.06,42.7h-.44s0-2.11,0-2.11h.44s0,2.11,0,2.11Z"/>
    <path d="m98.33,40.96h-1.12s0,.45,0,.45h1.03s0,.37,0,.37h-1.03s0,.54,0,.54h1.17s0,.38,0,.38h-1.6s0-2.11,0-2.11h1.55s0,.37,0,.37Z"/>
  </g>
  <rect class="cls-9" x="-958.15" y="-80.55" width="1466.44" height="999.05"/>
</svg>