<?xml version="1.0" encoding="UTF-8"?>
<svg id="Calque_1" data-name="Calque 1" xmlns="http://www.w3.org/2000/svg" viewBox="0 0 128 128.13">
  <defs>
    <style>
      .cls-1, .cls-2, .cls-3 {
        stroke: #000;
      }

      .cls-1, .cls-2, .cls-3, .cls-4 {
        stroke-linecap: round;
        stroke-linejoin: round;
      }

      .cls-1, .cls-4 {
        fill: none;
      }

      .cls-2 {
        fill: #fff;
      }

      .cls-2, .cls-3 {
        stroke-width: 2px;
      }

      .cls-3 {
        fill: #fab0b4;
      }

      .cls-4 {
        stroke: #fff;
        stroke-width: 8px;
      }
    </style>
  </defs>
  <path class="cls-3" d="m92.51,97.3L17.33,52.12c-1.84-1.1-2.62-3.37-1.86-5.37l1.38-3.6c2.26-5.91,5.54-11.37,9.7-16.14l2.53-2.91c1.41-1.62,3.78-1.99,5.62-.88l75.18,45.17c1.84,1.1,2.62,3.37,1.86,5.37h0c-2.58,8.56-7.26,16.35-13.61,22.64h0c-1.41,1.62-3.78,1.99-5.62.88Z"/>
  <rect class="cls-2" x="41.74" y="50.02" width="43.83" height="20.55" rx="3.29" ry="3.29" transform="translate(40.15 -24.17) rotate(31)"/>
  <circle class="cls-1" cx="33.85" cy="31.38" r=".42"/>
  <circle class="cls-1" cx="38.83" cy="34.37" r=".42"/>
  <circle class="cls-1" cx="30.72" cy="36.59" r=".42"/>
  <circle class="cls-1" cx="35.7" cy="39.59" r=".42"/>
  <circle class="cls-1" cx="27.58" cy="41.81" r=".42"/>
  <circle class="cls-1" cx="32.57" cy="44.8" r=".42"/>
  <circle class="cls-1" cx="24.45" cy="47.02" r=".42"/>
  <circle class="cls-1" cx="29.43" cy="50.02" r=".42"/>
  <circle class="cls-1" cx="43.78" cy="37.34" r=".42"/>
  <circle class="cls-1" cx="40.64" cy="42.56" r=".42"/>
  <circle class="cls-1" cx="37.51" cy="47.77" r=".42"/>
  <circle class="cls-1" cx="34.38" cy="52.99" r=".42"/>
  <circle class="cls-1" cx="93.04" cy="66.94" r=".42"/>
  <circle class="cls-1" cx="98.03" cy="69.94" r=".42"/>
  <circle class="cls-1" cx="89.91" cy="72.16" r=".42"/>
  <circle class="cls-1" cx="94.89" cy="75.15" r=".42"/>
  <circle class="cls-1" cx="86.78" cy="77.37" r=".42"/>
  <circle class="cls-1" cx="91.76" cy="80.37" r=".42"/>
  <circle class="cls-1" cx="83.64" cy="82.59" r=".42"/>
  <circle class="cls-1" cx="88.63" cy="85.58" r=".42"/>
  <circle class="cls-1" cx="102.97" cy="72.91" r=".42"/>
  <circle class="cls-1" cx="99.84" cy="78.12" r=".42"/>
  <circle class="cls-1" cx="96.7" cy="83.34" r=".42"/>
  <circle class="cls-1" cx="93.57" cy="88.55" r=".42"/>
  <rect class="cls-4" x="-3453.91" y="-2339.62" width="6467.34" height="6437.3"/>
</svg>