<?xml version="1.0" encoding="UTF-8"?>
<svg id="Calque_1" data-name="Calque 1" xmlns="http://www.w3.org/2000/svg" viewBox="0 0 200.13 128">
  <defs>
    <style>
      .cls-1, .cls-2, .cls-3 {
        fill: none;
      }

      .cls-4, .cls-5, .cls-6, .cls-7, .cls-2, .cls-8 {
        stroke: #000;
      }

      .cls-4, .cls-5, .cls-6, .cls-7, .cls-2, .cls-8, .cls-3 {
        stroke-linecap: round;
        stroke-linejoin: round;
      }

      .cls-4, .cls-9 {
        fill: #76ac75;
      }

      .cls-5 {
        fill: #d6d6d6;
      }

      .cls-6 {
        fill: #baa584;
      }

      .cls-7, .cls-10 {
        fill: #ff6d75;
      }

      .cls-8 {
        fill: #fab0b4;
      }

      .cls-3 {
        stroke: #fff;
        stroke-width: 8px;
      }
    </style>
  </defs>
  <ellipse class="cls-9" cx="106.32" cy="105.57" rx="88.71" ry="12.87"/>
  <g>
    <rect class="cls-6" x="60.4" y="43.7" width="53.97" height="3.05"/>
    <polygon class="cls-6" points="65.5 45.56 62.2 59.43 52.45 100.29 49.3 100.29 62.53 44.85 62.87 44.93 65.5 45.56"/>
    <polygon class="cls-6" points="125.37 100.29 122.24 100.29 112.6 59.92 109.18 45.56 111.9 44.91 112.15 44.85 125.37 100.29"/>
    <polygon class="cls-6" points="66.04 42.39 63.5 96.58 60.45 96.58 62.18 59.47 62.2 59.43 62.87 44.93 62.99 42.25 66.04 42.39"/>
    <polygon class="cls-6" points="114.32 96.58 111.27 96.58 108.72 42.39 111.78 42.25 111.9 44.91 112.6 59.92 112.6 59.94 114.32 96.58"/>
    <rect class="cls-5" x="62.47" y="43.7" width="3.57" height="3.05"/>
    <rect class="cls-5" x="108.72" y="43.7" width="3.57" height="3.05"/>
    <line class="cls-2" x1="71.76" y1="43.7" x2="71.76" y2="82.42"/>
    <line class="cls-2" x1="81.24" y1="82.42" x2="81.24" y2="43.7"/>
    <line class="cls-2" x1="93.87" y1="43.7" x2="93.87" y2="82.42"/>
    <line class="cls-2" x1="103.34" y1="43.7" x2="103.34" y2="82.42"/>
    <rect class="cls-8" x="71.17" y="82.42" width="10.67" height="2.2"/>
    <rect class="cls-7" x="71.17" y="84.62" width="10.67" height="1.83"/>
    <rect class="cls-8" x="93.34" y="82.42" width="10.67" height="2.2"/>
    <rect class="cls-7" x="93.34" y="84.62" width="10.67" height="1.83"/>
  </g>
  <g>
    <path class="cls-10" d="m154.77,73.98v.63c-.48.79-1.03,1.64-1.65,2.56-2.18,3.21-5.27,7.15-9.5,11.45-6.4,6.5-14.11,9.91-18.47,11.45,2.05-.95,4.4-2.26,7-4.05,5.72-3.94,20.39-22.6,20.39-22.6l1.69.43.55.13Z"/>
    <rect class="cls-6" x="154.77" y="73.85" width="4.48" height="22.26"/>
    <polygon class="cls-6" points="154.77 73.85 154.77 73.98 154.23 73.85 154.77 73.85"/>
    <path class="cls-6" d="m153.12,77.17c.62-.92,1.17-1.77,1.65-2.56v21.5l-1.65-1.58v-17.35Z"/>
    <polygon class="cls-6" points="168.52 83.7 157.83 81.37 157.83 78.91 168.52 81.24 168.52 83.7"/>
    <polygon class="cls-6" points="168.52 89.15 157.83 86.82 157.83 84.36 168.52 86.69 168.52 89.15"/>
    <polygon class="cls-6" points="168.52 94.71 157.83 92.38 157.83 89.93 168.52 92.26 168.52 94.71"/>
    <rect class="cls-6" x="166.29" y="76.3" width="4.48" height="25.43"/>
    <polygon class="cls-6" points="164.64 76.3 166.29 76.3 166.29 101.73 164.64 100.14 164.64 76.3"/>
    <path class="cls-7" d="m161.53,73.96h-6.13l-.22-.04-.4-.08h0l-2.24-.43s-14.67,18.67-20.39,22.6c-2.59,1.79-4.95,3.1-7,4.05-1.21.57-2.31,1.01-3.29,1.35-1,.36-1.88.6-2.61.77-2.63.62-10.34,1.7-10.34,1.7l2.45-3.52c.68-.97,1.66-1.7,2.8-2.05,3.72-1.15,12.86-4.55,20.23-12.04,9.5-9.65,13.2-17.45,13.9-19.3.43-1.17,1-3.92,1.37-5.81.23-1.18,1.13-2.11,2.3-2.39,2.21-.52,4.02,1.7,5.1,3.25.61.89,1.13,1.81,1.57,2.76,1.37,2.89,2.09,6.02,2.9,9.16Z"/>
    <path class="cls-7" d="m170.77,76.3h-6.13l-2.88-.55s-.97,1.24-2.51,3.15c-.08.09-.15.18-.23.28-.37.45-.77.94-1.19,1.45-.92,1.12-1.96,2.38-3.06,3.69-.54.64-1.09,1.29-1.65,1.94-4.24,4.97-9.01,10.21-11.74,12.09-5.72,3.94-10.27,5.56-12.9,6.17-2.62.62-10.35,1.7-10.35,1.7l2.45-3.52c.35-.51.78-.94,1.27-1.29.46-.33.97-.59,1.53-.77.5-.15,1.09-.35,1.76-.59,4.36-1.54,12.07-4.95,18.47-11.45,4.24-4.3,7.32-8.24,9.5-11.45.62-.92,1.17-1.77,1.65-2.56.11-.19.22-.37.33-.55.02-.05.06-.09.08-.14.02-.02.03-.06.05-.08,1.31-2.23,2.02-3.81,2.29-4.53.34-.92.77-2.83,1.11-4.51.09-.45.18-.89.26-1.29.23-1.19,1.12-2.12,2.29-2.39,2.21-.53,4.03,1.7,5.1,3.25,2.48,3.59,3.4,7.74,4.48,11.92Z"/>
    <path class="cls-7" d="m121.86,101.42c-.49.35-.92.78-1.27,1.29l-2.45,3.52-9.23-2.33s7.72-1.08,10.34-1.7c.73-.17,1.6-.42,2.61-.77Z"/>
    <polyline class="cls-1" points="161.76 75.74 159.25 75.11 155.1 74.07 154.77 73.98"/>
  </g>
  <g>
    <path class="cls-6" d="m35.05,46.21h-8.85l.16,43.7c-.1,5.41-1.17,8.76-3.16,13.79h0s14.86,0,14.86,0h0c-1.99-5.03-3.06-8.38-3.16-13.79l.16-43.7Z"/>
    <path class="cls-4" d="m47.75,49.2c.06.46.09.93.09,1.41,0,6.4-5.19,11.58-11.58,11.58-5.33,0-9.82-3.59-11.17-8.48-1.9,1.38-4.24,2.19-6.77,2.19-6.39,0-11.58-5.19-11.58-11.59,0-5.03,3.21-9.31,7.69-10.91-.86-1.62-1.34-3.45-1.34-5.4,0-6.4,5.18-11.59,11.58-11.59,2.56,0,4.93.83,6.85,2.25.78-.17,1.59-.26,2.41-.26,5.1,0,9.42,3.29,10.97,7.86.25-.02.49-.03.74-.03,6.39,0,11.58,5.19,11.58,11.59,0,5.67-4.08,10.39-9.47,11.38Z"/>
  </g>
  <rect class="cls-3" x="-566.78" y="-708.08" width="1496.63" height="1236.8"/>
</svg>