<?xml version="1.0" encoding="UTF-8"?>
<svg id="Calque_1" data-name="Calque 1" xmlns="http://www.w3.org/2000/svg" viewBox="0 0 154.27 206.09">
  <defs>
    <style>
      .cls-1, .cls-2, .cls-3, .cls-4, .cls-5, .cls-6 {
        stroke-linecap: round;
        stroke-linejoin: round;
      }

      .cls-1, .cls-4, .cls-7 {
        stroke: #010101;
      }

      .cls-1, .cls-8 {
        fill: #fce9b9;
      }

      .cls-2, .cls-3, .cls-5 {
        stroke: #000;
      }

      .cls-2, .cls-9 {
        fill: #fff;
      }

      .cls-3, .cls-10 {
        fill: #ed6c76;
      }

      .cls-4, .cls-5, .cls-6, .cls-7 {
        fill: none;
      }

      .cls-11 {
        fill: #010101;
      }

      .cls-12 {
        fill: #ed6d76;
      }

      .cls-13 {
        fill: #f5afb5;
      }

      .cls-6 {
        stroke: #fff;
        stroke-width: 8px;
      }

      .cls-7 {
        stroke-miterlimit: 10;
      }
    </style>
  </defs>
  <rect class="cls-6" x="-1240.25" y="-536.94" width="1656.38" height="875.1"/>
  <g id="Titres_catégories" data-name="Titres catégories">
    <g>
      <g>
        <path class="cls-2" d="m46.64,190.74c-.2-1.47.26-3.98,1.39-7.91-2.27,0-4.17-1-6.48-.97-.63,3.7-1.62,9.77-1.62,9.77l-.11,4.81,16.11.12s-.14.08-4.88-2.93c-.35-.23-4.23-1.48-4.43-2.89h.02Z"/>
        <path class="cls-2" d="m26.55,190.73c-.2-1.46-.54-3.3-.05-8.16-2.27,0-4.41-.42-6.74-.38,0,3.81.08,9.45.08,9.45l-.11,4.81,16.11.12s-.14.08-4.88-2.93c-.35-.23-4.23-1.48-4.43-2.89l.02-.02h0Z"/>
        <path class="cls-2" d="m38.28,51.5l10.5-4.07s2.06,1.24,9.61,4.64c2.09-3.63,5.47-15.53,5.65-16.1.18-.58-3.97-7.73-3.05-7.91.94-.18,2.13,3.82,3.13,3.42.98-.41,3.5-9.69,4.11-9.18,1.1.95-1.33,5.77-.74,6.12.59.35,2.07-5.35,3.19-5.11,1.13.24-1.91,5.18-1.57,5.67.33.47,3.51-4.16,4.16-3.08.36.59-2.92,4.04-2.25,4.43.68.39,3.63-1.78,3.97-1.09.35.71-2.75,1.44-3.61,3.22-.86,1.78-2.43,2.48-2.95,5.85-.51,3.37-1.95,21.41-5.62,22.86-3.2,1.27-24.53-9.69-24.53-9.69v.02h0Z"/>
        <path class="cls-2" d="m42.2,81.23l-4.91,7.53-16.8-4.88,24.69,62.26s-2.01,6.33-2.67,9.49c-.68,3.31-2.37,31.7-2.37,31.7l7.63.12s7.24-30.22,8.46-40.03c1.5-11.91-7.57-40.29-7.57-40.29-1.69-5.79-2.06-22.15-2.06-22.15,0,0-4.17-3.22-4.38-3.73h0v-.02Z"/>
        <path class="cls-9" d="m18.11,88.45c-4.02,10.63-1.71,20.91-.62,26.2,0,0,2.99,22.91,3.54,31.45.2,3.08-1.15,8.65-1.83,12.41-.6,3.33-.39,28-.39,28l8.1.15,6.51-40.46,1.8-40.81"/>
        <path class="cls-5" d="m18.11,88.45c-4.02,10.63-1.71,20.91-.62,26.2,0,0,2.99,22.91,3.54,31.45.2,3.08-1.15,8.65-1.83,12.41-.6,3.33-.39,28-.39,28l8.1.15,6.51-40.46,1.8-40.81"/>
        <path class="cls-5" d="m38.28,84.96l-13.21-4.69"/>
        <path class="cls-3" d="m50.16,101.85l-5.26-46.32c2.72,1.26,7.63,3.14,7.63,3.14l2.8-8.84c-9.87-5.62-15.75-5.49-19.68-5.81-2.36-.2-4.34-2.21-6.75-1.56-9.14,2.49-13.45-1.68-21.6,20.37,0,0,6.21,2.8,8.43,3.69.95-2.72,2.69-8.15,3.69-5.06l-5.71,40.41s17.06,2.28,36.45,0v-.02Z"/>
        <path class="cls-2" d="m33.04,91c.1.01.62-.05,1.03-.05.57,0,1.07.09,1.07.09,0,0,.23-.2.65-.39.18-.08.47-.11.67-.2.2-.09.38-.27.57-.36.5-.21.97-.27,1.12,0,.12.21-2.67,1.94-2.67,1.94-2.6.01-5.31,1.33-11.32-2.59-3.43-1.5-20.1-9.74-20.43-11.52-.18-1.01,2.37-8.8,4.46-14.73,1.62.73,5.03,2.25,6.95,3.05-1.75,3.73-3.84,8.66-3.61,9.27.06.15.26.44,11.53,7.82.29.18.58.38.88.57.78.52,1.65,1.08,2.54,1.66l3.22-.33s5.09.35,5.24.94c.06.26-.36.39-.88.47h-.02c-.08,0-.15.02-.23.03-.56.06-1.15.08-1.28.12-.17.06-.48.18-.77.38,3.17,1.3,2.93.83,3.98.77.26-.02.54.06.78.03.42-.03.77-.29,1.1-.32.48-.03.88.2.97.29.1.1-.09.27-.5.45-2.45,1.06-4.47.65-5.12.82-.44.11.36.27,1.6.14.32-.03.71.08,1.13-.02.27-.06.53-.24.79-.3.24-.06.5-.06.71-.09.27-.05.65-.26.88-.29.81-.09,1.21.05,1.3.12.18.17-3.51,1.59-3.51,1.59,0,0-2.55.36-3.11.36,0,0-.35.15.33.26l-.05.02Z"/>
        <path class="cls-9" d="m40.28,30.23c.14-.05,1.04-.44,1.36-2.04.35-1.71,1.07-1.63.88-3.31-.2-1.59-1.74-.65-1.9-.53"/>
        <path class="cls-5" d="m40.28,30.23c.14-.05,1.04-.44,1.36-2.04.35-1.71,1.07-1.63.88-3.31-.2-1.59-1.74-.65-1.9-.53"/>
        <path class="cls-2" d="m37.3,44.05c-.38.17-.77.3-1.18.39-3.31.79-7.09-.62-8.37-1.16l.39-5.64.05-.63,8.7-1.68.23,1.81.74,6.12c-.05.11-.08.24-.11.33-.03.08-.05.13-.08.2,0,.03,0,.06-.03.09l-.33.15v.02h0Z"/>
        <path class="cls-5" d="m32.01,14.73s0,1.48-.53,2.48"/>
        <path class="cls-5" d="m29.14,17.83c-1.16-.68-1.96-2.39-1.96-2.39"/>
        <path class="cls-9" d="m25.44,31.44c-.13-.03-1.1-.27-1.66-1.8-.6-1.63-1.31-1.45-1.37-3.14-.05-1.6,1.62-.91,1.8-.82"/>
        <path class="cls-5" d="m25.44,31.44c-.13-.03-1.1-.27-1.66-1.8-.6-1.63-1.31-1.45-1.37-3.14-.05-1.6,1.62-.91,1.8-.82"/>
        <path class="cls-5" d="m38.99,16.84s-1.15.68-2.42.92"/>
        <path class="cls-2" d="m26.72,18.56c.73.05,1.57-.14,2.42-.73.35.21.73.32,1.12.27.56-.06.94-.44,1.19-.91,0,0,.03.03.05.03.17.15,1.18,1.04,2.42-.18.65.79,1.68.86,2.64.68.58.44,1.34.39,1.34.39.05.06.11.14.14.21,2.34,3.31,2.57,5.55,2.59,5.79.13-.59.24-1.15.33-1.68-.12,1-.32,1.71-.35,1.86v.05c.03.94.05,3.37-.35,5.87-.32,2.09-.95,4.23-2.1,5.62-2.64,3.22-4.37,3.3-4.62,3.27-.27.06-2.07.33-5.2-2.45-1.34-1.19-2.3-3.22-2.93-5.23-.77-2.42-1.13-4.82-1.24-5.75-.02-.1-.03-.21-.03-.33.03.09.06.14.06.14-.03-.39-.03-.79-.01-1.16.26-1.95,2.02-5.17,2.24-5.73l.26-.05.05.02h-.02Z"/>
        <path class="cls-5" d="m24.23,24.33c-.05.36-.06.71-.05,1.01"/>
        <path class="cls-5" d="m24.2,25.68l-.02-.03c-.08-.2-.5-1.15-.8-2.45v-.05c-.58-2.6-.6-6.52,3.7-8.27,0,0,.27-1.42,2.09-1.19,0,0,2.12-2.31,4.65-.41,1.77-.5,2.25.86,2.25.86,4.86,1.15,5.18,5.55,4.89,8.16,0,.06,0,.09,0,.14"/>
        <path class="cls-5" d="m38.12,18.6s2.51,3.65,2.51,5.75"/>
        <path class="cls-5" d="m24.15,25.29s0,.18.04.36v.05"/>
        <path class="cls-5" d="m40.62,24.35v-.03"/>
        <path class="cls-5" d="m40.61,23.96v.36"/>
        <path class="cls-5" d="m34.97,15.61c-.32.59-.63,1.03-.94,1.35-.03.05-.06.09-.1.11"/>
        <path class="cls-5" d="m31.51,17.23l-.03-.03"/>
        <path class="cls-2" d="m87.93,105.4c-.03.29-.03.57-.02.86,0,.77.06,1.54.06,2.31,0,.33,0,.66-.09,1-.09.33-.3.62-.59.77-.29.15-.71.09-.91-.17-.18-.23-.18-.55-.17-.85,0-.38.03-.77.05-1.15.02-.51.03-1.04.08-1.56.09-1.06.29-2.15.94-2.98.21-.26,1.21-.94,1.21-.17,0,.29-.24.62-.32.91-.1.33-.18.68-.21,1.03h-.03Z"/>
        <path class="cls-2" d="m87.32,105.9c-.03.29-.03.58-.01.86,0,.77.06,1.54.06,2.31,0,.33,0,.67-.09,1s-.3.62-.59.77c-.29.15-.71.09-.91-.17-.18-.23-.18-.54-.17-.85,0-.38.03-.77.05-1.15.02-.51.03-1.04.08-1.56.09-1.06.29-2.15.94-2.98.21-.26,1.21-.94,1.21-.17,0,.29-.24.62-.32.91-.11.33-.18.68-.21,1.03l-.03-.02v.02Z"/>
        <g>
          <path class="cls-9" d="m107.84,32.21c-.14-.06-1.09-.47-1.44-2.13-.36-1.8-1.12-1.71-.92-3.48.21-1.66,1.81-.68,1.99-.55"/>
          <path class="cls-5" d="m107.84,32.21c-.14-.06-1.09-.47-1.44-2.13-.36-1.8-1.12-1.71-.92-3.48.21-1.66,1.81-.68,1.99-.55"/>
          <path class="cls-2" d="m91.79,184.91l1.38-1.01,1.01-8.83s7.81,1.24,7.81,1.36-.79,8.27-.79,8.27l.56,2.27-5.77.45-3.28-.79-.92-1.71v-.02h0Z"/>
          <path class="cls-2" d="m131.3,187.14l.35-8.57-8.96-.11,1.66,8.3,2.93,2.77,4.02-2.39h0Z"/>
          <path class="cls-2" d="m121.08,192.79c.23-.73,2.63-4.99,3.22-6.05,1.18.5,2.31.79,3.6.79,1.18,0,2.48-.11,3.42-.82.6.85,1.33,1.99,1.89,2.93.5.85,1.21,1.74,1.56,2.67.36.95.2,2.06-.56,2.69-2.52,2.09-9.61,2.6-12.66.29-.91-.7-.62-2.01-.45-2.49h-.02Z"/>
          <path class="cls-2" d="m82.2,192.68c1.45.26,3.01.14,4.47.14,4.2,0,8.4-.2,12.6-.41.66-.03,1.36-.08,1.96-.35.48-.21.89-.58,1.18-1.01.17-.27.3-.57.33-.89,0-.11.01-.23,0-.33-.03-.44-.2-.88-.36-1.3-.3-.77-.44-1.33-.74-2.1-3.34,0-6.65-.62-9.87-1.5-.32.17-.65.33-.97.48l-5.58,2.81c-.76.38-1.51.76-2.27,1.13-.18.09-.36.18-.55.27-.53.27-1.28.44-1.68.92-.09.1-.17.24-.2.39-.32,1.12.73,1.59,1.63,1.74h.05Z"/>
          <path class="cls-2" d="m92.6,179.71s2.84,1.15,6.23,1.65c3.37.47,3.63.06,3.63.06l6.15-40.66s1.74-4.46,4.04-10.51c.18-.47.36-.95.54-1.45.8-2.06,1.65-4.26,2.49-6.49-.09,6.58-.17,13.11-.24,19.41l6.92,41.62c2.69.97,2.89.92,5.79.92,2.68,0,2.66-.06,5.09-1.03-1.09-14.49-3.04-41.16-3.04-41.16,0,0,6.07-28.15,4.61-42.74-.71-7.05-3.84-12.79-6-16.65-1.36,1.13-3.63,2.07-5.31,2.48-2.8.7-3.93.8-6.74.7-.44-.05-.91-.08-1.3-.12-4.06-.45-6.66-.92-6.66-.92,0,0-5.65,12.53-7.92,20.05-2.27,7.47-5.88,36.56-5.88,36.56l-2.37,38.27h-.03Z"/>
          <path class="cls-2" d="m110.96,46.7c.39.18.82.32,1.22.41,3.48.83,7.42-.65,8.76-1.21l-.41-5.9-.05-.66-9.13-1.75-.24,1.89-.77,6.42c.05.12.08.26.12.35.03.08.05.15.08.21.01.03.01.06.03.09h.02l.35.17h.02v-.02Z"/>
          <path class="cls-2" d="m94.86,95.27c-.09-.44-1.44-.78-2.04-1.65-1.89,1.1-5.08,7.17-5.86,8.77-.53,1.09-1.09,2.21-1.31,3.39-.24,1.26-.29,2.54-.35,3.82,0,.2-.02.41.05.59.12.35.56.56.88.33.68-.51.73-1.57.79-2.34.06-.73.08-1.45.26-2.16.18-.7.54-1.26,1-1.8.33-.39,2.01-2.6,2.18-2.43.18.18.74,1.13.7,1.34-.06.26-.17.5-.27.73-.2.41-.44.8-.51,1.25,0,.08-.01.15-.03.23-.03.83.78,1.81,1.5.92.15-.2.26-.42.36-.64.5-1.06,1.21-2.01,1.51-3.14.2-.73.3-1.47.41-2.19.41-2.78,1.04-3.72.77-5.02h-.04Z"/>
          <path class="cls-2" d="m89.66,102.64c.11-.15.21-.29.32-.42.2-.24.44-.45.74-.56.29-.11.67-.05.86.18.17.2.2.48.17.74-.09.64-.51,1.16-.89,1.68-.2.27-.38.55-.5.85.08-.44.32-.85.51-1.26.12-.24.23-.47.27-.73.05-.21.14-.5-.05-.68-.17-.17-.51-.2-.73-.17-.25.05-.5.17-.69.35l-.02.02h.01Z"/>
          <path class="cls-5" d="m116.49,15.97s0,1.56.56,2.6"/>
          <path class="cls-5" d="m119.5,19.22c1.23-.71,2.06-2.51,2.06-2.51"/>
          <path class="cls-9" d="m123.38,33.48c.14-.03,1.15-.29,1.74-1.89.64-1.71,1.38-1.51,1.44-3.3.05-1.68-1.69-.95-1.87-.85"/>
          <path class="cls-5" d="m123.38,33.48c.14-.03,1.15-.29,1.74-1.89.64-1.71,1.38-1.51,1.44-3.3.05-1.68-1.69-.95-1.87-.85"/>
          <path class="cls-5" d="m109.19,18.18s1.19.71,2.54.95"/>
          <path class="cls-2" d="m122.04,19.99c-.77.05-1.65-.14-2.54-.76-.36.23-.76.33-1.18.29-.59-.06-.98-.45-1.25-.94,0,0-.03.03-.05.03-.17.15-1.22,1.09-2.54-.18-.68.82-1.77.91-2.77.71-.6.47-1.42.41-1.42.41-.05.06-.11.15-.14.21-2.45,3.46-2.69,5.82-2.72,6.08-.15-.62-.26-1.21-.35-1.77.14,1.04.33,1.78.38,1.95v.05c-.03.98-.05,3.52.36,6.15.33,2.19,1,4.44,2.19,5.88,2.77,3.37,4.58,3.45,4.84,3.42.27.06,2.17.35,5.45-2.57,1.41-1.24,2.4-3.37,3.08-5.47.8-2.54,1.18-5.05,1.3-6.03.02-.11.03-.23.03-.35-.03.09-.08.15-.08.15.03-.41.03-.82.03-1.21-.27-2.04-2.13-5.41-2.34-6l-.27-.05h-.03.02Z"/>
          <path class="cls-5" d="m124.66,26.04c.06.38.08.74.05,1.06"/>
          <path class="cls-5" d="m124.68,27.45v-.03c.1-.21.54-1.2.85-2.56v-.05c.6-2.72.63-6.82-3.88-8.66,0,0-.29-1.5-2.19-1.26,0,0-2.21-2.42-4.88-.44-1.84-.53-2.36.91-2.36.91-5.11,1.19-5.43,5.81-5.14,8.56,0,.06.02.1.02.14"/>
          <path class="cls-5" d="m110.11,20.04s-2.63,3.82-2.63,6.02"/>
          <path class="cls-5" d="m124.74,27.04s0,.18-.05.38v.05"/>
          <path class="cls-5" d="m107.47,26.06v-.03"/>
          <path class="cls-5" d="m107.5,25.63s0,.14-.01.38"/>
          <path class="cls-5" d="m113.41,16.91c.33.62.66,1.09.98,1.41.05.05.06.09.11.11"/>
          <path class="cls-5" d="m117.02,18.6l.03-.03"/>
          <path class="cls-5" d="m115.67,122.3l.42-17.81"/>
          <path class="cls-10" d="m134.53,71.69c-1.33-1.41-2.57-2.89-3.7-4.43-.06.67-.03,2.1.06,3.92.15,3.66.48,8.85.69,12.14-.78,1.13-1.51,2.33-2.19,3.51-.42.74-.48,1.65-.15,2.42.04.11.09.23.15.33-.06.03-.11.04-.17.06-6.35,2.03-13.25,2.27-19.74.77-1.31-.3-2.69-.73-3.5-1.86-.14-.2-.27-.39-.36-.62-1.68,2.12-3.48,4.17-5.38,6.11-1.63,1.65-4.16,2.01-6.2.92-1.53-.82-2.39-2.37-2.39-3.96,0-.76.2-1.53.6-2.24,1.13-1.95,2.33-3.78,3.64-5.67.73-1.03,2.07-2.78,2.81-3.73.32-.41.48-.95.45-1.48-.23-3.66-2.12-19.67,2.36-25.76.15-.21.27-.45.44-.65,1.91-1.94,5.73-4.26,8.13-5.22.17.11.32.2.48.29h.02l.35.17c.39.18.82.32,1.23.41,3.48.83,7.42-.65,8.76-1.21.32-.14.47-.23.47-.23,2.18.29,4.32.76,6.41,1.45,2.28.77,4.28,1.68,6.17,3.17,1.91,1.56,3.61,3.36,5.21,5.21.78.91,1.54,1.81,2.3,2.75.36.44.74.89,1.1,1.34"/>
          <path class="cls-5" d="m134.53,71.69c-1.33-1.41-2.57-2.89-3.7-4.43-.06.67-.03,2.1.06,3.92.15,3.66.48,8.85.69,12.14-.78,1.13-1.51,2.33-2.19,3.51-.42.74-.48,1.65-.15,2.42.04.11.09.23.15.33-.06.03-.11.04-.17.06-6.35,2.03-13.25,2.27-19.74.77-1.31-.3-2.69-.73-3.5-1.86-.14-.2-.27-.39-.36-.62-1.68,2.12-3.48,4.17-5.38,6.11-1.63,1.65-4.16,2.01-6.2.92-1.53-.82-2.39-2.37-2.39-3.96,0-.76.2-1.53.6-2.24,1.13-1.95,2.33-3.78,3.64-5.67.73-1.03,2.07-2.78,2.81-3.73.32-.41.48-.95.45-1.48-.23-3.66-2.12-19.67,2.36-25.76.15-.21.27-.45.44-.65,1.91-1.94,5.73-4.26,8.13-5.22.17.11.32.2.48.29h.02l.35.17c.39.18.82.32,1.23.41,3.48.83,7.42-.65,8.76-1.21.32-.14.47-.23.47-.23,2.18.29,4.32.76,6.41,1.45,2.28.77,4.28,1.68,6.17,3.17,1.91,1.56,3.61,3.36,5.21,5.21.78.91,1.54,1.81,2.3,2.75.36.44.74.89,1.1,1.34"/>
          <path class="cls-2" d="m110.11,46.26c.17.1.32.2.48.29h.01c.12.06.24.12.35.17.39.18.82.32,1.22.41l-1.3-.53-.33-.14-.45-.2h.02Z"/>
          <path class="cls-5" d="m103.15,67.35c.08,2.12,1.36,15.51,1.72,17.61.21,1.22.39,2.55,1.13,3.6.81,1.13,2.19,1.57,3.5,1.86"/>
          <path class="cls-2" d="m116.37,97l4.31-2.04c.63-.3,1.3-.56,1.92-.88.32-.17.62-.35.91-.56.26-.2.6-.47.12-.53-.32-.05-.65,0-.97.05-.5.03-1.04.08-1.53-.05-.27-.08-.54-.23-.65-.5-.13-.33.05-.74.32-.97,0,0,.02-.01.03-.03.3-.23.7-.3,1.07-.38,1.19-.21,2.45-.29,3.63-.58.68-.17,1.28-.47,1.99-.57.58-.09,1.15-.11,1.74-.09l.77-.86-.05-.06c.24-.27.48-.54.71-.82.98,1.54,1.95,3.07,2.93,4.61-.62.48-1,.77-1.01.76v-.03c-.42,2.15-1.93,4.37-3.69,5.46-.18.11-.36.21-.51.36-.12.12-.2.26-.29.39-.48.82-.94,1.66-1.35,2.51-.26.53-.59,1.81-1.34,1.83-.51,0-.88-.56-.65-1.01.42-.83.85-1.65,1.28-2.46.17-.3.36-.59.48-.92.05-.1.17-.35.1-.45-.32-.58-1.12.5-1.31.73-.38.44-.76.86-1.13,1.28-.54.6-1.09,1.21-1.65,1.8-.35.38-.78,1.09-1.41.83-.42-.18-.56-.76-.24-1.09.18-.18.35-.38.53-.56.03-.08.08-.14.12-.2.59-.68,1.16-1.38,1.72-2.09.27-.36.56-.71.83-1.07.12-.15.8-.7.56-.92-.27-.26-1.01.55-1.21.67-.54.36-1.09.74-1.65,1.1-.74.5-1.45,1.01-2.18,1.5-.45.3-1.24,1.06-1.78.54-.29-.27-.27-.79.03-1.04.03-.05.06-.08.11-.12.92-.89,1.96-1.66,2.98-2.43.5-.38,1-.77,1.48-1.16.26-.21.5-.42.73-.65.09-.09.39-.27.27-.44-.12-.15-.45,0-.58.05-.33.12-.63.38-.97.5-.58.2-1.13.41-1.71.62-.79.29-1.59.59-2.37.88-.47.18-1.18.7-1.66.26-.35-.3-.27-.97.15-1.16h.07Z"/>
          <path class="cls-10" d="m134.53,71.69c1.16,1.24,2.39,2.42,3.61,3.6-2.49,2.62-4.68,5.28-6.54,8.04-.78,1.13-1.51,2.33-2.19,3.51-.42.74-.48,1.65-.15,2.42.05.1.09.23.15.33.5,1.18,1.06,2.34,1.74,3.45.54.91,1.69,1.24,2.64.8,3.41-1.59,6.6-3.72,9.5-6.08,2.43-2,4.93-4.17,6.44-6.99,2.52-4.7.63-10.07-1.98-14.29-1.5-2.42-3.31-4.66-5.12-6.86"/>
          <path class="cls-5" d="m134.53,71.69c1.16,1.24,2.39,2.42,3.61,3.6-2.49,2.62-4.68,5.28-6.54,8.04-.78,1.13-1.51,2.33-2.19,3.51-.42.74-.48,1.65-.15,2.42.05.1.09.23.15.33.5,1.18,1.06,2.34,1.74,3.45.54.91,1.69,1.24,2.64.8,3.41-1.59,6.6-3.72,9.5-6.08,2.43-2,4.93-4.17,6.44-6.99,2.52-4.7.63-10.07-1.98-14.29-1.5-2.42-3.31-4.66-5.12-6.86"/>
          <path class="cls-5" d="m138.14,75.29l4.47-3.98"/>
          <path class="cls-5" d="m114.43,47.1l1.24,43.91"/>
          <path class="cls-5" d="m116.6,52.05h-4.82"/>
        </g>
      </g>
      <g>
        <path class="cls-1" d="m80.91,198.91c-4.45-3.02-22.38-.31-25.39-7.15-3.01-6.83,2.69-9.78,2.69-9.78,0,0,.97,1.29,2.83,2.35,1.86,1.06,3.44,1.68,4.28,2.37,2.13,1.78,4.8,4.18,4.25,2.66-.14-.4-.83-1.25-.99-1.52l1.29.87h.01c.74.49,1.68,1.03,1.99.88.72.35,1.44.69,2.17,1.02,2.32,1.06,4.61,1.95,6.24,2.01.17,0,.72.34,1.22.66.38.24.72.48.86.57.2.13.4.29.63.46,4.07,3.1,2.38,7.6-2.08,4.58h0v.02Z"/>
        <path class="cls-9" d="m58.06,181.61c-6.33-5.09-1.6-17.87-1.6-17.87,2.6-6.17,7.42-5.41,8.12-7.25.71-1.84-.36-2.27-.36-2.27-8.14-1.61-10.85-6.75-10.12-11.85.72-5.1,5.4-13.1,15.25-10.69,9.85,2.4,6.95,10.57,6.95,10.57,0,0,.27,1.29,1.5,1.38,1.23.08.24,2.01.24,2.01,0,0,2.97,6.41-2.14,7.83-1.87.52-2.59,1.12-2.57,1.79v.08s.02.08.02.11c.26,1.13,2.43,2.44,4.68,3.88h0s.1.07.24.18c.05.05.1.09.16.15.67.67,2.08,2.55,3.69,7.48,1.37,4.22,2.18,6.82,3.28,8.61.69,1.13,1.49,1.96,2.63,2.66,2.93,1.84,4.32,3.94,2.37,4.15"/>
        <path class="cls-4" d="m58.06,181.61c-6.33-5.09-1.6-17.87-1.6-17.87,2.6-6.17,7.42-5.41,8.12-7.25.71-1.84-.36-2.27-.36-2.27-8.14-1.61-10.85-6.75-10.12-11.85.72-5.1,5.4-13.1,15.25-10.69,9.85,2.4,6.95,10.57,6.95,10.57,0,0,.27,1.29,1.5,1.38,1.23.08.24,2.01.24,2.01,0,0,2.97,6.41-2.14,7.83-1.87.52-2.59,1.12-2.57,1.79v.08s.02.08.02.11c.26,1.13,2.43,2.44,4.68,3.88h0s.1.07.24.18c.05.05.1.09.16.15.67.67,2.08,2.55,3.69,7.48,1.37,4.22,2.18,6.82,3.28,8.61.69,1.13,1.49,1.96,2.63,2.66,2.93,1.84,4.32,3.94,2.37,4.15"/>
        <path class="cls-4" d="m70.79,186.04c1.53.71,2.1,1.94,2.69,2.38"/>
        <path class="cls-4" d="m73.07,186.03h-.02"/>
        <path class="cls-4" d="m62.59,164.59s.48,8.92.04,12.76c0,0,.69-.18,3.37,2.33.09.08.16.16.24.24"/>
        <path class="cls-4" d="m69.94,187.29s1.43.95,1.88,1.7"/>
        <path class="cls-4" d="m66.23,179.92h-.02"/>
        <path class="cls-1" d="m79.98,175.45s.11,1.58.48,5.02c0,0,3.99,8.26,1.06,12.83,0,0,0,0-.01.02-2.52-1.5-2.65-.06-5.83-1.8-.65-.36-1.19-.65-1.63-.89l-2.08-1.15c.03-.13-.03-.29-.13-.46.13.09,1.93,1.35,1.64-.58.27.2.54.24.9,0,1.12-.73-1.08-2.24-1.31-2.39,1.44.69,2.49.21-.62-.89-1.38-.49-2.12-1.2-3.74-2.4l-1.24.97-2.99,2.29s-3.87-1.7-5.38-3.1c0,0-1.57-1.58-2.54-2.78-4.46-5.53-.32-18.18,1.7-20.1,2.01-1.91,6.31-3.54,6.31-3.54,8.47,1.79,8.92-.21,8.78-1.04,0-.04-.02-.08-.02-.11-.02-.08-.05-.13-.06-.17.02.03.04.07.05.09.71,1.27,1.12,1.55,4.71,4.08h0c.08.06.16.12.24.18.05.05.1.09.16.15,3.58,3.25,7.15,15.88,7.15,15.88-.04.07-.09.13-.19.22-.83.75-3.86,2.23-3.86,2.23l-1.59-2.55h.04Z"/>
        <path class="cls-4" d="m82.79,178.51s-.56,5.86.68,4.34.77-3.78,2.44-1.91c1.67,1.86,1.36,3.11,2.01,1.88.65-1.22-.62-2.78-.62-2.78"/>
        <path class="cls-4" d="m88.03,181.43s3.1,3.41,1.71.28l-1.09-1.68"/>
        <path class="cls-8" d="m85.81,193.65c-1.31.39-1.8,1.2-1.8,1.2.72.82,1.49,2.37,1.38,3.29-.23,2.07,11.72-.71,9.45-4.56-1.15-1.95-6.18-.73-6.18-.73"/>
        <path class="cls-4" d="m85.81,193.65c-1.31.39-1.8,1.2-1.8,1.2.72.82,1.49,2.37,1.38,3.29-.23,2.07,11.72-.71,9.45-4.56-1.15-1.95-6.18-.73-6.18-.73"/>
        <path class="cls-8" d="m87.63,184.48s-2.38-.54-2.57,4.47c-.05,1.25,0,5.03,0,5.03,0,0,3.18-1.26,6.15-1.45,0,0,2.91-4.84,3.69-10.7.78-5.86-5.89-4.14-5.89-4.14l-8.56,2.67s3.76,7.69,1.05,12.93l.85.57s1.34-1.12,2.48-2.76"/>
        <path class="cls-4" d="m87.63,184.48s-2.38-.54-2.57,4.47c-.05,1.25,0,5.03,0,5.03,0,0,3.18-1.26,6.15-1.45,0,0,2.91-4.84,3.69-10.7.78-5.86-5.89-4.14-5.89-4.14l-8.56,2.67s3.76,7.69,1.05,12.93l.85.57s1.34-1.12,2.48-2.76"/>
        <path class="cls-4" d="m64.59,147.25s-2.76.92-1.17,3.19c1.58,2.27,2.98.27,2.98.27"/>
        <path class="cls-11" d="m74.48,144.87c.35,0,.64-.29.64-.64s-.29-.64-.64-.64-.64.29-.64.64.29.64.64.64Z"/>
        <path class="cls-4" d="m72.38,143.19s.18-1.66,1.9-1.54"/>
        <path class="cls-4" d="m64.67,149.39l.55-.25"/>
        <path class="cls-13" d="m71.32,148.35c.74,0,1.35-.6,1.35-1.35s-.6-1.35-1.35-1.35-1.35.6-1.35,1.35.6,1.35,1.35,1.35Z"/>
        <path class="cls-12" d="m77.05,149.38h0c-.08.49-.51.95-1.25,1.01-.6.06-1.03-.11-1.32-.33v-.02s.03-.04.05-.07c.04-.05.08-.11.16-.2l.08-.08c.06-.06.11-.11.19-.17.14-.11.33-.22.55-.28.06,0,.11-.04.17-.04.04,0,.09-.02.13-.02.34-.05.74,0,1.22.19h.02,0Z"/>
        <path class="cls-13" d="m77.05,149.38c-.48-.2-.89-.24-1.22-.19-.05,0-.09,0-.13.02-.07,0-.11.03-.17.04-.22.07-.4.17-.55.28-.08.06-.14.11-.19.17-.04.03-.07.06-.09.08-.08.09-.12.15-.16.2-.02.03-.04.05-.04.07v.02c-.4-.29-.56-.67-.56-.67-.22-1.25,1.86-1.17,1.86-1.17.96-.06,1.37.56,1.26,1.15h-.01Z"/>
        <path class="cls-7" d="m75.79,148.29s-2.08-.09-1.86,1.17c0,0,.15.38.56.67.29.22.72.39,1.32.33.74-.07,1.17-.52,1.25-1h0c.11-.6-.3-1.22-1.26-1.16h0Z"/>
        <path class="cls-4" d="m74.92,134.69s-2.44,5.56-7.68,5.98c0,0,1.06,3.22-2.83,4.27"/>
        <path class="cls-8" d="m79.98,175.45c-.51-2.04-.77-3.9-1.76-6.47l1.76,6.47Z"/>
        <path class="cls-4" d="m79.98,175.45c-.51-2.04-.77-3.9-1.76-6.47"/>
        <path class="cls-8" d="m61.14,173.61c.47,4.48,8.13,8.72,8.13,8.72l-1.8,1.38"/>
        <path class="cls-4" d="m61.14,173.61c.47,4.48,8.13,8.72,8.13,8.72l-1.8,1.38"/>
      </g>
    </g>
  </g>
</svg>