<?xml version="1.0" encoding="UTF-8"?>
<svg id="Calque_1" data-name="Calque 1" xmlns="http://www.w3.org/2000/svg" viewBox="0 0 128 128">
  <defs>
    <style>
      .cls-1 {
        fill: #afaff9;
        stroke-miterlimit: 10;
      }

      .cls-1, .cls-2 {
        stroke: #000;
        stroke-width: 2px;
      }

      .cls-2, .cls-3, .cls-4 {
        fill: none;
        stroke-linecap: round;
        stroke-linejoin: round;
      }

      .cls-3 {
        stroke: #fff;
        stroke-width: 8px;
      }

      .cls-4 {
        stroke: #ff6d75;
        stroke-width: 3px;
      }
    </style>
  </defs>
  <circle class="cls-1" cx="63.99" cy="34.18" r="23.31"/>
  <path class="cls-2" d="m73.05,55.66c4.34-2.62,5.8-5.89,7.72-9.46,1.92-3.56,2.48-8,1.83-11.96-1.37-8.38-8.68-15.96-17.3-16.7-7.05-.6-14.24,3.79-16.93,10.33-2.92,7.1-.33,16.35,6.46,20.17,1.75.98,3.72,1.21,5.71,1.18,3.64-.05,6.56-1.71,8.64-4.76,3.06-4.48,2.89-11.34-2.39-14.15-1.96-1.04-4.49-1.1-6.34.13s-2.77,3.8-1.86,5.83c1.75,3.89,3.2-1.91,5.85-.91,1.05.4,1.73,1.52,1.8,2.64.07,1.12-.39,2.23-1.08,3.13-1.35,1.78-3.63,2.81-5.86,2.67-5.49-.35-7.8-6.43-6.99-11.15.96-5.57,6.03-9.88,11.76-9.71,5.75.16,10.93,4.57,12.7,10.04,3.52,10.89-4.86,23.14-16.34,23.37-3.52.07-6.76-.92-9.71-2.81-4.24-2.72-7.2-6.62-8.71-11.7-.64-2.13-1.23-4.27-1.31-6.5-.1-3.11.43-6.12,1.57-8.99.14-.35.33-.66.47-1.01,1.4-3.6,3.7-6.52,6.49-8.92,3.78-3.25,8.19-5.18,13.05-5.49,5.21-.33,9.51.69,13.97,3.7,7.75,5.24,11.3,12.91,11.06,20.8-.26,8.75-6.45,16.48-14.25,20.23Z"/>
  <path class="cls-2" d="m61.54,57.49h4.92v57.19c0,1.36-1.1,2.46-2.46,2.46h0c-1.36,0-2.46-1.1-2.46-2.46v-57.19h0Z"/>
  <g>
    <line class="cls-4" x1="16.89" y1="13.77" x2="111.11" y2="112.23"/>
    <line class="cls-4" x1="111.11" y1="13.77" x2="16.89" y2="112.23"/>
  </g>
  <rect class="cls-3" x="-1908.95" y="-1884.35" width="6467.34" height="6437.3"/>
</svg>