<?xml version="1.0" encoding="UTF-8"?>
<svg id="Calque_1" data-name="Calque 1" xmlns="http://www.w3.org/2000/svg" viewBox="0 0 200.13 128">
  <defs>
    <style>
      .cls-1 {
        fill: #76ac75;
      }

      .cls-1, .cls-2, .cls-3, .cls-4, .cls-5, .cls-6, .cls-7, .cls-8, .cls-9 {
        stroke: #000;
      }

      .cls-1, .cls-2, .cls-3, .cls-4, .cls-5, .cls-6, .cls-7, .cls-8, .cls-9, .cls-10, .cls-11 {
        stroke-linecap: round;
        stroke-linejoin: round;
      }

      .cls-2, .cls-7 {
        fill: #baa584;
      }

      .cls-3, .cls-12 {
        fill: #ff6d75;
      }

      .cls-4, .cls-13 {
        fill: #ffd4ad;
      }

      .cls-5, .cls-9, .cls-10, .cls-11 {
        fill: none;
      }

      .cls-14 {
        fill: #fee4cb;
      }

      .cls-6 {
        fill: #d6d6d6;
      }

      .cls-6, .cls-7, .cls-8, .cls-9 {
        stroke-width: 2px;
      }

      .cls-8 {
        fill: #fff;
      }

      .cls-10 {
        stroke: #fff;
        stroke-width: 8px;
      }

      .cls-11 {
        stroke: #ff6d75;
        stroke-width: 3px;
      }
    </style>
  </defs>
  <path class="cls-12" d="m128.68,58.54v48.96s-.31,10.25,31.47,10.25,28.26-11.9,28.26-11.9l.12-47.31s-13.39,5.28-29.84,5.28-30.01-5.28-30.01-5.28Z"/>
  <path class="cls-9" d="m189.27,41.25s-.01-.05-.02-.07c.01-.05.01-.08.01-.13.01.07.01.14.01.2Z"/>
  <path class="cls-9" d="m189.24,41.18c0,.06-.01.11-.02.17h0c.01.14.02.29.02.42,0,.45-.11.91-.3,1.35.11-.01.21-.01.32-.01v-1.85s-.01-.05-.02-.07Zm-61.11.58c0-.13.01-.26.02-.39h0c-.01-.07-.02-.12-.02-.18,0,.01-.01.02-.01.04v.02s-.01,1.14-.01,1.14c.02-.01.06-.01.1-.01-.05-.2-.07-.41-.07-.62Z"/>
  <path class="cls-9" d="m189.27,53.95v53.01c0,6.28-13.69,11.37-30.58,11.37s-30.58-5.09-30.58-11.37v-54.75c1.25-.49,2.67-.93,3.95-.37,2.67,1.17,2.1,5.54,4.33,6.02,1.8.39,2.73-2.36,5.22-2.16,1.99.17,2.3,1.99,4.43,2.16,2.04.17,2.35-1.48,4.32-1.59,3.46-.2,4.99,4.67,7.96,4.21,1.63-.26,1.47-1.79,3.53-2.4,2.73-.8,4.04,1.63,6.7.92,2.32-.63,2.18-2.72,4.43-3.18,2.36-.49,3.5,1.61,5.79,1.48,2.83-.18,2.87-4.34,5.69-5.23,1.78-.57,3.48,1.01,4.8,1.88Z"/>
  <path class="cls-8" d="m182.6,66.92v37.69c-2.16.68-4.77,1.26-7.71,1.73-4.7.73-10.25,1.16-16.2,1.16s-11.5-.43-16.2-1.16c-3.15-.49-5.91-1.13-8.15-1.86v-37.66c5.58,1.32,14.41,3.37,24.35,3.37s18.31-2,23.91-3.28Z"/>
  <path class="cls-7" d="m191.12,26.67c0,2.22-1.43,4.26-5.84,5.88-2.65.98-5.94,1.8-9.69,2.42-4.96.82-10.73,1.3-16.89,1.3s-11.93-.48-16.89-1.3c-3.75-.62-7.05-1.44-9.69-2.42-4.41-1.62-5.84-3.66-5.84-5.88,0-.46.12-.93.35-1.37.48-.63,1.03-1.25,1.62-1.86h.01c4.66-3.72,15.87-5.17,30.45-5.17s25.78,1.45,30.45,5.16h.01c.6.62,1.14,1.24,1.62,1.87.23.44.35.91.35,1.37Z"/>
  <path class="cls-9" d="m128.23,23.44c-.6.61-1.14,1.23-1.62,1.86.32-.64.87-1.28,1.62-1.86Z"/>
  <path class="cls-9" d="m190.77,25.3c-.48-.63-1.03-1.25-1.62-1.86.75.58,1.3,1.22,1.62,1.86Z"/>
  <path class="cls-7" d="m192.97,31.98c0,5.3-3.73,6.11-3.73,6.11v.38c0,.95-.44-.33-1.26.37-.04.02-.06.05-.1.08-3.86,3.91-15.46,6.76-29.19,6.76s-25.33-2.85-29.19-6.76c-.88-.89-1.36.54-1.36-.45v-.38s-3.73-.81-3.73-6.11c0-2.83.81-4.84,2.21-6.68-.23.44-.35.91-.35,1.37,0,2.22,1.43,4.26,5.84,5.88,2.65.98,5.94,1.8,9.69,2.42,4.96.82,10.73,1.3,16.89,1.3s11.93-.48,16.89-1.3c3.75-.62,7.05-1.44,9.69-2.42,4.41-1.62,5.84-3.66,5.84-5.88,0-.46-.12-.93-.35-1.37,1.39,1.84,2.21,3.85,2.21,6.68Z"/>
  <path class="cls-7" d="m196.29,49.56c-.61.91-3.02-.42-4.33.92-1.18,1.2-.08,3.22-1.01,3.86-.44.3-1.01.04-1.68-.39-1.32-.87-3.03-2.46-4.8-1.88-2.81.89-2.86,5.05-5.69,5.23-2.29.13-3.43-1.97-5.79-1.48-2.25.47-2.11,2.55-4.43,3.18-2.66.72-3.97-1.72-6.7-.92-2.06.61-1.9,2.13-3.53,2.4-2.97.46-4.51-4.41-7.96-4.21-1.97.11-2.28,1.75-4.32,1.59-2.13-.17-2.44-1.99-4.43-2.16-2.49-.2-3.42,2.55-5.22,2.16-2.23-.48-1.66-4.85-4.33-6.02-1.28-.56-2.69-.12-3.95.37-1.41.55-2.62,1.16-3.21.54-.82-.86.85-2.73-.12-4.32-.99-1.62-3.65-1.13-3.86-2.05-.23-.95,2.41-2.61,4.32-3.29.99-.36,1.94-.58,2.87-.69.02-.01.06-.01.1-.01.92,4.53,11.85,8.21,25.93,8.87.46.02.95.05,1.43.06.57.02,1.13.04,1.72.04.47.01.93.01,1.41.01,1.06,0,2.1-.01,3.12-.05.48-.01.95-.04,1.43-.06,2.57-.12,5.03-.35,7.36-.66,9.69-1.29,16.82-4.1,18.35-7.49.11-.01.21-.01.32-.01.77-.04,1.53.04,2.24.21,3.23.8,5.53,5.13,4.78,6.25Z"/>
  <path class="cls-6" d="m189.22,41.35h0c.01.14.02.29.02.42,0,.45-.11.91-.3,1.35-1.53,3.39-8.65,6.2-18.35,7.49-2.32.31-4.78.54-7.36.66-.48.02-.95.05-1.43.06-1.03.04-2.06.05-3.12.05-.48,0-.94,0-1.41-.01-.58,0-1.14-.01-1.72-.04-.48-.01-.97-.04-1.43-.06-14.08-.66-25.01-4.34-25.93-8.87-.05-.2-.07-.41-.07-.62,0-.13.01-.26.02-.39h0c-.01-.07-.02-.12-.02-.18v-2.72c0,.99.48-.44,1.36.45,3.86,3.91,15.46,6.76,29.19,6.76s25.33-2.85,29.19-6.76c.04-.04.06-.06.1-.08.82-.62,1.26,1.78,1.26.82v1.51c0,.06-.01.11-.02.17Z"/>
  <line class="cls-9" x1="128.14" y1="41.76" x2="128.14" y2="41.19"/>
  <line class="cls-9" x1="189.24" y1="41.76" x2="189.24" y2="41.18"/>
  <g>
    <path class="cls-3" d="m162.42,79.71c-.92-2.07-3.72-3.19-5.76-3.3-3.71-.22-6.31,2.82-6.77,3.35-2.03,2.37-2.68,6.34-2.55,12.25,0,.19.32,4.84,1.13,6.67.52,1.18,1.04,1.57,1.4,1.75.76.39,2.61.4,3.11.37,2.57-.14,1.73-.12,3.95-.4,2.13-.27,7.43-.94,11.14-5.08,1.11-1.24,3.51-3.91,3.11-7.51-.2-1.82-1.21-4.82-3.46-5.69-1.78-.69-3.61.23-4.72-1.05-.39-.45-.32-.74-.59-1.35Z"/>
    <path class="cls-1" d="m164.16,82.81c-.15.39-.52,1-1.02,1.57-.15.17-.32.34-.5.49-.75.66-1.92.03-2.67-.05-.75-.09-1.56.8-1.56.8,0,0,.68-3.42,2.2-4.45.01,0,.02-.01.03-.02.78-.5,1.61-.36,2.25-.11.24.1.46.21.62.32.25.15.4.28.4.28,0,0,.17.26.25.57.03.1.05.21.05.31,0,.1-.01.2-.05.3Z"/>
    <path class="cls-1" d="m164.91,79.83h0c-.43.47-.87.95-1.21,1.33-.02-.07-.11-.28-.21-.58-.11-.33-.25-.77-.36-1.24h0s-.01-.06-.02-.09c-.1-.42-.18-.85-.2-1.25,0-.03,0-.05,0-.08-.07-1.4,1.8-2.61,1.8-2.61,0,0,1.05,1.99.71,3.41-.1.4-.28.78-.49,1.11Z"/>
    <path class="cls-1" d="m170.69,81.54s-.67.84-1.54,1.42c-.17.11-.36.22-.55.32-.78.41-1.68.68-2.36.59-.04,0-.08-.01-.12-.03,0-.04-.02-.07-.02-.11-.03.03-.05.05-.08.08-.55-.23-1.11-.97-1.39-1.39l-.41.09c0-.11-.02-.21-.05-.31.15-.17.37-.41.63-.69.25-.26.53-.55.84-.83.08-.04.15-.08.24-.09.77-.16,2.76.63,3.33.75.56.13,1.49.19,1.49.19Z"/>
    <path class="cls-1" d="m166.12,83.85s-.07-.02-.1-.03c.02-.02.05-.05.08-.08,0,.04.02.07.02.11Z"/>
    <path class="cls-1" d="m164.94,89.45s-.76-1.43-1.42-2.86c-.3-.64-.38-1.47-.37-2.2.5-.56.87-1.18,1.02-1.57.04-.1.05-.2.05-.3l.41-.09c.29.42.84,1.16,1.39,1.39.03.01.07.03.1.03.1.52.19,1.07.23,1.53,0,.16.01.32,0,.45-.04,1.12-1.42,3.62-1.42,3.62Z"/>
    <path class="cls-1" d="m166.12,83.85s-.07-.02-.1-.03c.02-.02.05-.05.08-.08,0,.04.02.07.02.11Z"/>
    <path class="cls-1" d="m166.12,83.85s-.07-.02-.1-.03c.02-.02.05-.05.08-.08,0,.04.02.07.02.11Z"/>
    <path class="cls-1" d="m170.71,88.06s-.72-1.85-2.13-2.1c-.8-.14-1.61-.36-2.23-.59-.04-.45-.13-1.01-.23-1.53.04.01.08.02.12.03.68.09,1.58-.18,2.36-.59.56.19,1.14.44,1.45.74.74.69,1.03,1.85,1.01,2.37-.02.51-.35,1.67-.35,1.67Z"/>
    <path class="cls-1" d="m163.1,79.25s-.07,0-.11,0h0c-.7-.46-1.55-.96-2.01-1.06-.59-.13-1.57,0-2.38.06-.35-.45-.61-.99-.72-1.34-.19-.6.11-2.17.24-1.69.12.48.83.97,1.33,1.16.85.33,1.41,0,2.25.4.38.17.82.7,1.2,1.22.02.4.1.84.2,1.25Z"/>
    <path class="cls-1" d="m163.7,81.16c-.06.07-.13.14-.18.2-.17-.1-.38-.22-.62-.32-.63-.26-1.47-.39-2.25.11-.68-.19-1.45-.44-2.09-.7-1.48-.61-2.41-2.79-2.41-2.79,0,0,.68.46,1.46.58.25.04.6.03,1,0,.81-.06,1.79-.19,2.38-.06.46.1,1.3.6,2.01,1.06h0s.09.06.13.09h0c.11.47.25.91.36,1.24.1.3.19.51.21.58Z"/>
    <path class="cls-1" d="m171.27,78.36s-2.55.39-3.99,1.09c-.53.26-1.12.73-1.65,1.23-.3.28-.59.57-.84.83-.26.28-.48.52-.63.69-.08-.31-.25-.57-.25-.57,0,0-.15-.12-.4-.28.06-.06.12-.13.18-.2.34-.38.78-.86,1.21-1.33h0c.53-.58,1.05-1.13,1.39-1.47.94-.91,3.38-1.09,3.38-1.09l1.59,1.1Z"/>
    <line class="cls-5" x1="154.28" y1="80.57" x2="153.86" y2="81.65"/>
    <line class="cls-5" x1="156.28" y1="83.8" x2="155.86" y2="84.88"/>
    <line class="cls-5" x1="150.89" y1="84.74" x2="150.47" y2="85.82"/>
    <line class="cls-5" x1="154.41" y1="88.04" x2="153.99" y2="89.12"/>
    <line class="cls-5" x1="160.41" y1="87.05" x2="159.99" y2="88.13"/>
    <line class="cls-5" x1="160.21" y1="90.66" x2="159.79" y2="91.74"/>
    <line class="cls-5" x1="164.51" y1="90.48" x2="164.09" y2="91.55"/>
    <line class="cls-5" x1="169.15" y1="88.24" x2="168.72" y2="89.31"/>
    <line class="cls-5" x1="165.43" y1="94.52" x2="165" y2="95.6"/>
    <line class="cls-5" x1="160.33" y1="95.87" x2="159.91" y2="96.94"/>
    <line class="cls-5" x1="155.8" y1="93.11" x2="155.38" y2="94.18"/>
    <line class="cls-5" x1="150.96" y1="89.04" x2="150.53" y2="90.11"/>
    <line class="cls-5" x1="151.52" y1="92.2" x2="151.1" y2="93.28"/>
    <line class="cls-5" x1="149.74" y1="95.63" x2="149.31" y2="96.7"/>
    <line class="cls-5" x1="153.97" y1="97.77" x2="153.55" y2="98.84"/>
  </g>
  <path class="cls-4" d="m57.52,42.8c.99.68,2.65.99,5.36,1.48,3.06.56,5.48,1.01,6.79-.41.95-1.02.85-2.52.82-3.25-.15-2.52-1.63-4.6-2.82-5.76-1.2-1.18-2.45-2.12-3.77-2.53-.51.19-1.21.45-1.96,1.05-1.67,1.36-2.24,3.38-2.47,4.17-.65,2.31.05,3.13-.88,4.36-.29.39-.64.66-1.06.88Z"/>
  <path class="cls-4" d="m49.08,43.6c.74.32,1.52.45,1.98.52,2.17.33,3.89-.29,4.81-.64.68-.26,1.22-.46,1.65-.69.43-.23.77-.49,1.06-.88.93-1.23.24-2.05.88-4.36.23-.79.8-2.81,2.47-4.17.75-.61,1.44-.86,1.96-1.05.48-.19.8-.3.82-.59.07-.79-2.07-1.58-4.55-2.47-1.33-.47-2.28-.82-3.01-1.04-.35.57-1.35.89-1.83,1.08-3.21,1.3-4.6,5.83-4.75,6.37-.6,2.02.09,2.31-.71,5.57-.26,1.05-.51,1.79-.77,2.34Z"/>
  <path class="cls-4" d="m34.59,22.29c1.3,1.06,2.12,2.27,2.76,3.25,1.6,2.4,2.18,4.54,3.37,8.81,1.33,4.8.56,4.35,1.6,7.15.27.72.7,1.79.53,3.19-.02.18-.07.47-.16.81.03.04.06.06.09.09.97.83,1.81.93,2.05.95,1.35.1,2.46-.74,3.05-1.31,0,0,0,0,0,0,.19-.18.32-.32.4-.41.28-.31.54-.67.8-1.21-.14-.07.13.08,0,0,.34-.99.08-2.04.14-2.69.09-.87.07-1.76.04-2.91-.07-2.88-.37-3.05-.31-4.56.03-.69.08-2.11.66-3.63.26-.67.63-1.37,1.14-2.03.43-.55,1.32-1.67,2.95-2.32.63-.25,1.23-.37,1.77-.43-1.63-1.44-3.72-2.21-3.72-2.21-.63-.23-2.6-1.03-6.86-1.33-3.8-.28-4.75.09-9.79.69-.13.02-.32.04-.51.1Z"/>
  <path class="cls-2" d="m49.08,43.23c.13.08-.14.31,0,.38.26-.55.51-1.28.77-2.34.8-3.27.11-3.55.71-5.57.15-.54,1.54-5.07,4.75-6.37.48-.19,1.48-.51,1.83-1.08.07-.1.11-.21.13-.33.02-.11,0-.31-.28-.87-.26-.5-.58-1.1-1.25-1.76-.09-.09-.17-.16-.27-.23-.54.06-1.14.18-1.77.43-1.63.65-2.53,1.77-2.95,2.32-.51.66-.88,1.36-1.14,2.03-.59,1.52-.64,2.93-.66,3.63-.06,1.51.25,1.68.31,4.56.03,1.15.05,2.03-.04,2.91-.07.65.2,1.32-.14,2.31Z"/>
  <path class="cls-4" d="m10.79,30.53c.3-.08.65-.16,1.03-.26,1.56-.38,2.34-.56,2.84-.65,3.79-.62,7.85.6,8.39.77,6.96,2.14,15.39,9.51,15.18,16.67-.02.66-.18,1.54-.38,2.33,1.35-.23,2.53-.56,3.51-1.56.77-.77,1.14-1.66,1.32-2.33.1-.34.14-.63.16-.81.17-1.4-.27-2.47-.53-3.19-1.04-2.8-.27-2.36-1.6-7.15-1.19-4.27-1.78-6.41-3.37-8.81-.65-.98-1.46-2.18-2.76-3.25-.47-.4-1-.78-1.61-1.12-.89-.5-2.38-1.17-4.31-1.36-2.95-.29-5.19.71-6.32,1.23-.58.28-.69.37-4.97,3.61-2.62,1.98-3.71,2.81-5.14,4.25-.64.66-1.1,1.19-1.44,1.61Z"/>
  <path class="cls-2" d="m9.57,34.8c.66-1.07,1.25-1.52,1.48-1.69.51-.36,1.11-.66,2.07-.87.43-.1.94-.18,1.54-.25,1.54-.17,4.45-.46,8.16.71,5.25,1.64,8.34,5.01,9.81,6.68.34.38,4.14,4.73,4.25,8.8.02.56-.04,1.02-.13,1.38.04,0,.09,0,.13-.02.33-.05.66-.1.97-.15h0c.2-.79.36-1.66.38-2.33.21-7.16-8.22-14.53-15.18-16.67-.54-.17-4.61-1.39-8.39-.77-.5.09-1.28.27-2.84.65-.38.09-.72.18-1.03.26-.66.82-.86,1.28-.98,1.58-.08.2-.42,1.42-.25,2.7Z"/>
  <path class="cls-4" d="m13.12,32.24l23.63,17.32c.09-.36.15-.82.13-1.38-.11-4.07-3.91-8.42-4.25-8.8-1.47-1.66-4.56-5.03-9.81-6.68-3.7-1.17-6.62-.88-8.16-.71-.6.07-1.11.15-1.54.25Z"/>
  <path class="cls-4" d="m27.91,65.94c.06-.02.1-.04.16-.07"/>
  <path class="cls-4" d="m24.34,53.45c.55-.65,1.23-1.28,2.06-1.83.51-.35,1.28-.85,2.26-1.22h0c.93-.35,2.05-.56,3.31-.36.34.06.66.13.97.23-2.77-1.99-7.83-3.73-11.47-3.26-1.6.22-4.19.56-6.23,2.62-1.31,1.34-1.79,2.77-1.89,3.11-.27.85-.34,1.67-.32,2.38.04,1.11.3,2,.47,2.53"/>
  <path class="cls-2" d="m27.25,65.38c.18.25.4.43.66.56.06.04.11.07.18.1,0-.06-.02-.11-.02-.17-.06-.65-.06-1.34.04-2.06.13-1.05.42-1.83.5-2.06.23-.59.74-1.9,1.99-3.07,1.72-1.6,3.7-1.88,4.33-1.96.85-.11,1.62-.08,2.28.03-.16-.55-.15-1.34-.32-1.61-.51-.85-2.98-.61-3.18-.57-.72.13-1.61.46-2.84,1.46-.98.8-3.2,2.63-3.86,5.77-.25,1.16-.53,2.54.24,3.57Z"/>
  <path class="cls-4" d="m8.75,52.79c.21.47.45.87.71,1.23.04-2.22,1.14-4.08,1.56-4.8,1.88-3.2,4.85-4.46,5.73-4.82,3.68-1.51,6.96-.75,9.07-.28.66.16,1.58.37,2.6.79.95.39,2.02.94,3.08,1.79.49.39,1.15.86,1.72,1.67.21.3.53.76.77,1.27.19.4.32.83.3,1.22.33.2.63.4.87.61.36-.16.72-.4,1.02-.74.09-.11.24-.3.37-.59h0c.08-.17.14-.35.2-.58.09-.36.15-.82.13-1.38-.11-4.07-3.91-8.42-4.25-8.8-1.47-1.66-4.56-5.03-9.81-6.68-3.7-1.17-6.62-.88-8.16-.71-.6.07-1.11.15-1.54.25-.96.22-1.56.51-2.07.87-.23.17-.83.62-1.48,1.69-.25.41-.51.92-.77,1.55-.11.28-.23.58-.34.9-.27.78-.76,2.42-.84,7.15-.07,4.27.28,6.53,1.13,8.39Z"/>
  <path class="cls-4" d="m13.52,57.66s.02.07.03.1c.7,2.13,1.99,3.38,3.43,4.78,1.04,1.02,2.35,2.26,4.46,3.11,1,.4,2.45.97,4.33.77.56-.06,1.35-.14,2.14-.47-.26-.13-.47-.31-.66-.56-.77-1.04-.48-2.41-.24-3.57.66-3.14,2.88-4.98,3.86-5.77,1.23-1.01,2.12-1.33,2.84-1.46.2-.04,2.67-.28,3.18.57.17.28.16,1.06.32,1.61.06.21.13.37.26.47.08.07.15.12.2.16.03-.18.05-.36.06-.54.03-.47-.02-.91-.05-1.18-.17-1.58-1.02-2.64-1.4-3.11-.19-.23-.56-.66-1.12-1.1-.25-.21-.54-.41-.87-.61-.39-.23-.84-.43-1.33-.59-.3-.1-.63-.17-.97-.23-1.26-.2-2.38,0-3.31.36h0c-.98.36-1.75.86-2.26,1.22-.84.55-1.51,1.19-2.06,1.83"/>
  <path class="cls-2" d="m9.46,54.02l1.01.9c.1.07.23.12.35.17.79.32,1.51.21,1.71.18.18-.03.36-.08.51-.14-.02-.71.06-1.53.32-2.38.1-.34.58-1.78,1.89-3.11,2.04-2.06,4.62-2.4,6.23-2.62,3.65-.47,8.7,1.26,11.47,3.26.49.16.94.36,1.33.59.02-.39-.11-.82-.3-1.22-.24-.51-.56-.97-.77-1.27-.57-.81-1.22-1.28-1.72-1.67-1.05-.85-2.13-1.4-3.08-1.79-1.03-.42-1.94-.63-2.6-.79-2.11-.47-5.39-1.23-9.07.28-.87.36-3.85,1.62-5.73,4.82-.42.71-1.52,2.57-1.56,4.8Z"/>
  <path class="cls-4" d="m28.07,65.87c0,.06,0,.11.02.17.69.31,1.65.41,2.94.64,2.36.41,4.19.04,5.48-.25,1.89-.41,3.49-.78,4.72-2.16.34-.39,1.11-1.25.97-2.27-.09-.65-.5-1.1-1.13-1.79-.33-.35-.79-.8-1.75-1.51-1.77-1.3-1.03-.77-1.65-1.32-.05-.04-.12-.1-.2-.16-.12-.1-.2-.27-.26-.47-.66-.1-1.42-.14-2.28-.03-.63.08-2.61.36-4.33,1.96-1.25,1.17-1.77,2.48-1.99,3.07-.09.23-.37,1.01-.5,2.06-.1.72-.1,1.42-.04,2.06Z"/>
  <g>
    <path class="cls-13" d="m24.34,53.45c-1.23,1.46-1.82,3-2.14,3.85-.52,1.41-.7,2.64-.77,3.48"/>
    <path d="m24.73,53.77c-1.77,1.88-2.9,4.43-3.29,7,.08-2.71.91-5.42,2.52-7.64.16-.22.48-.27.7-.11.24.18.27.54.06.75h0Z"/>
  </g>
  <path class="cls-4" d="m33.33,91.51c.28.81.41.61,3.53,4.56,3.56,4.49,3.82,5.28,5.19,6.83,2.98,3.37,3.94,2.11,10.38,6.58,0,0,8.2,5.7,12.9,7.33.47.16,1.37.43,1.9,0,.08-.07.14-.13.19-.22-.42-.25-.84-.58-1.16-1.06-.66-.97-.64-2-.63-2.61.02-1.43.56-1.57.71-3.14.15-1.47-.3-1.55-.18-3.15.11-1.41.56-2.47.82-3.05.35-.84.82-1.62,1.43-2.43,1.46-1.91,3.3-3.29,6.03-5.21,4.15-2.95,4.24-2.86,6.38-4.5,2.74-2.09,2.58-2.22,3.77-2.88.63-.33,3.46-1.82,7.46-1.79,2.11.02,3.64.03,5.21,1.08,1.35.89,2.1,2.13,2.53,3.15.1-.95-.08-1.96-.45-2.76-.56-1.2-1.39-1.58-3.04-2.91-2.15-1.72-2.27-2.3-4.3-4.18-2.67-2.48-5.12-3.95-6.95-5.05-1.16-.69-1.64-.93-11.51-5.32-2.67-1.18-4.02-1.78-5.06-2.02-3.63-.85-6.65-.32-9.11.12-3.39.63-5.75,1.6-8.85,2.92-4.83,2.04-7.26,3.06-9.36,4.68-4.53,3.49-9.53,10.19-7.83,15.04Z"/>
  <path class="cls-4" d="m74.55,105.49c1.74-1.56,3.17-2.69,3.37-2.84.15-.12.3-.24.46-.36,0,0,.02,0,.02-.02.66-.76,1.52-1.66,2.75-3.05,1.4-1.57,1.36-1.27,1.92-1.62,1.17-.75,1.98-.77,3.04-.96h0c1.33-.84,2.54-1.44,3.74-1.86.54-.56,1.03-1.1,2.26-1.43,1.05-.28,1.19.4,2.33-.11.58-.27,3.76-.08,4.03-.29-1.79-.76-5.97-1.43-7.57-1.13-4.74.89-7.99,3.7-9.89,5.39-.32.28-4.26,3.84-6.48,8.28Z"/>
  <path class="cls-4" d="m66.46,115.28c.32.48.74.82,1.16,1.06.83.48,1.71.6,2.08.65.15.02,1.95.23,2.92-.39-.74-.34-1.11-1.09-1.51-1.85-.27-.51-.28-1.04-.41-2.06-.1-.82-.26-1.95-.14-3.23.07-.78.23-1.61.55-2.47.18-.47.61-1.19,1.44-2.61.85-1.41,1.27-2.15,1.99-2.95.26-.28.48-.52.75-.76,0,0,0,0,0,0,0,0,0,0,0-.02.9-.98,3.1-3.91,3.69-4.5.99-.98,1.49-1.47,2.14-1.99.97-.78,1.79-1.28,2.6-1.79.44-.27.57-.32,2.75-1.51,1.79-.98,2.18-1.19,2.95-1.58,1.41-.72,2.11-1.08,2.54-1.17,1.75-.38,3.25.25,3.78.47.25.1.47.23.69.35,1.62.91,2.58,2.25,2.47,2.4h0c.03.07.04.11.04.15h0c.25.1.49.26.73.46.04.03.08.06.11.09.32.28.58.58.79.88-.04-.19-.07-.33-.08-.39-.06-.28-.19-.97-.53-1.79-.43-1.03-1.18-2.26-2.53-3.15-1.58-1.05-3.11-1.06-5.21-1.08-4.01-.03-6.84,1.46-7.46,1.79-1.19.66-1.03.79-3.77,2.88-2.15,1.64-2.23,1.55-6.38,4.5-2.73,1.93-4.57,3.3-6.03,5.21-.62.81-1.08,1.6-1.43,2.43-.26.58-.7,1.64-.82,3.05-.12,1.6.33,1.68.18,3.15-.15,1.58-.69,1.71-.71,3.14,0,.61-.03,1.64.63,2.61Z"/>
  <path class="cls-4" d="m75.32,100.64c.36-.32.78-.66,1.36-1.14,1.32-1.06,1.79-1.3,2.68-1.98,2.32-1.79,1.89-2.31,3.71-3.65,1.57-1.15,1.78-.67,4.53-2.26,2.31-1.33,2.26-1.72,3.5-2.06,2.09-.59,4.01,0,4.67.2.12.04.24.08.35.12.16.06.31.12.47.19,1.44.6,2.21,1.36,2.34,1.27h0c.11-.15-.85-1.49-2.47-2.4-.22-.12-.45-.25-.69-.35-.53-.23-2.03-.85-3.78-.47-.43.09-1.13.45-2.54,1.17-.77.39-1.16.6-2.95,1.58-2.18,1.19-2.32,1.24-2.75,1.51-.82.5-1.63,1.01-2.6,1.79-.65.52-1.15,1.02-2.14,1.99-.6.59-2.79,3.52-3.69,4.5Z"/>
  <path class="cls-4" d="m72.84,114.02c.24.83.59,1.45.28,2.07-.07.13-.16.25-.27.34l3.33-.6c-1.52-.73-1.69-3.96-1.7-4.1-.09-1.81.52-3.32,1.17-4.95.17-.44.44-1.09.89-1.92.55-1.01,1.06-1.69,1.83-2.57,0,0,.02,0,.02-.02.66-.76,1.52-1.66,2.75-3.05,1.4-1.57,1.36-1.27,1.92-1.62,1.17-.75,1.98-.77,3.04-.96h0c1.12-.7,2.16-1.24,3.17-1.65.36-.14.69-.35.98-.63.42-.4.93-.77,1.85-1.02,1.05-.28,1.19.4,2.33-.11.58-.27,3.76-.08,4.04-.28-1.41-1.17-5.97-1.43-7.57-1.13-4.74.89-7.99,3.7-9.89,5.39-.32.28-4.26,3.84-6.48,8.28-.49.98-.9,2-1.17,3.05-.66,2.59-.99,3.88-.54,5.48Z"/>
  <path class="cls-4" d="m70.71,112.69c.13,1.02.14,1.55.41,2.06.36.69.7,1.38,1.32,1.76.06.03.12.07.19.1.09-.06.16-.1.23-.17.1-.1.2-.21.27-.34.31-.62-.04-1.24-.28-2.07-.45-1.6-.11-2.89.54-5.48.27-1.04.67-2.07,1.17-3.05,2.21-4.44,6.15-8,6.48-8.28,1.9-1.69,5.15-4.5,9.89-5.39,1.6-.3,6.15-.04,7.57,1.13-.28.21-3.46.02-4.04.28-1.14.51-1.27-.17-2.33.11-.92.25-1.43.62-1.85,1.02-.28.28-.62.48-.98.63-1.02.41-2.05.95-3.17,1.64h0c-1.05.2-1.87.22-3.04.97-.56.35-.52.06-1.92,1.62-1.23,1.39-2.09,2.29-2.75,3.05,0,0,0,0-.02.02-.77.88-1.28,1.57-1.83,2.57-.46.83-.72,1.48-.89,1.92-.65,1.62-1.25,3.13-1.17,4.95,0,.14.18,3.37,1.7,4.1.07.04.14.07.22.09.02,0,.03,0,.05,0,.54.14,1.26,0,1.54-.42,0-.02.03-.04.03-.06-.46-.21-.86-.49-1.2-.85-1.99-2.17-.35-6.35-.03-7.17,1.41-3.61,4.23-5.61,8.25-8.49,2.36-1.69,3.59-2.55,5.59-3.25.82-.28,1.86-.56,2.96-.76,1.37-.26,2.84-.38,4.12-.21,0,0,0,0,.02,0,0,0,0,0,0,0,.3.1.58.26.85.45,1.9,1.32,1.89,3.92,2.47,3.85.08,0,.13-.08.18-.18,0-.02,0-.04,0-.06.25-.59.21-2.1.2-2.93-.02-.85-.16-1.94-.84-2.92h0c-.21-.31-.47-.61-.79-.89-.04-.04-.08-.07-.11-.09-.24-.2-.48-.35-.73-.46h0s0-.09-.04-.15c-.12.09-.89-.67-2.34-1.27-.15-.07-.3-.13-.47-.19-.11-.05-.23-.09-.35-.12-.66-.21-2.58-.79-4.67-.2-1.24.34-1.2.73-3.5,2.06-2.75,1.59-2.96,1.11-4.53,2.26-1.82,1.34-1.4,1.86-3.71,3.65-.88.68-1.36.92-2.68,1.98-.58.47-1,.82-1.36,1.14,0,0,0,0,0,.02,0,0,0,0,0,0-.27.24-.49.47-.75.76-.72.81-1.15,1.54-1.99,2.95-.84,1.42-1.26,2.14-1.44,2.61-.32.85-.48,1.69-.55,2.47-.11,1.28.04,2.41.14,3.23Z"/>
  <path class="cls-4" d="m76.82,114.6c.33.36.74.65,1.2.85,1.43.7,3.2.69,3.58.09.02-.02.03-.05.04-.09-.86-.34-1.66-1.02-2.07-1.68-2.12-3.56,4.83-10.91,5.24-11.33.18-.19,3.69-3.76,9.37-5.59,2.23-.72,3.38-.72,4.35-.23,1.33.68,2.2,2.22,2.36,3.78.15-.34.3-.92.35-1.57-.05.1-.1.17-.18.18-.58.08-.57-2.53-2.47-3.85-.27-.19-.54-.34-.85-.45,0,0,0,0,0,0,0,0-.02,0-.02,0-1.28-.17-2.75-.05-4.12.21-1.1.2-2.15.48-2.96.76-2,.69-3.23,1.56-5.59,3.25-4.03,2.88-6.84,4.88-8.25,8.49-.32.82-1.97,5,.03,7.17Z"/>
  <path d="m91.7,103.57c.07.18.34.98,1.04,1.24.82.32,1.28-.46,2.92-.82,1.55-.34,1.91.17,2.79-.34.76-.45,1.52-1.42,1.34-2.41-.02-.06-.19-.89-.86-1.21-.57-.26-.98.1-2.15.3-1.12.19-1.09-.08-2.19.09-1.04.15-2.17.31-2.72,1.21-.53.85-.19,1.86-.17,1.94Z"/>
  <path d="m81.97,111.87c.15.78,1.01,1.46,1.68,1.41.42-.03.47-.3,1.21-.71.66-.36.79-.24,1.99-.66.98-.34,1.47-.53,1.91-.98.18-.18.69-.7.71-1.41,0-.3-.09-.35-.31-1.07-.38-1.21-.25-1.43-.58-1.81-.28-.34-.77-.58-1.24-.58-.34,0-.68.12-1.78,1.06-.7.61-1.04.91-1.55,1.46-1.48,1.64-2.21,2.46-2.04,3.3Z"/>
  <path class="cls-4" d="m79.57,113.78c.41.66,1.21,1.34,2.07,1.68.07-.23-.05-.66-.24-1.41-.42-1.61-.7-1.86-.72-2.59,0-.64.25-1.15.75-2.18.43-.85.92-1.64,1.71-2.7,1.01-1.34,1.57-2.08,2.46-2.9,1.59-1.45,1.91-1.03,4.46-2.97,1.27-.96,1.63-1.4,2.7-1.84.96-.4,1.74-.48,2.8-.61,2.02-.24,3.1-.36,3.92.28,1.03.8.9,2.23,1.16,2.21.08,0,.16-.13.26-.33-.16-1.56-1.04-3.1-2.36-3.78-.97-.49-2.12-.49-4.35.23-5.68,1.83-9.19,5.4-9.37,5.59-.41.42-7.36,7.77-5.24,11.33Z"/>
  <path class="cls-4" d="m81.4,114.05c.19.76.3,1.19.24,1.41.55.22,1.11.3,1.61.18.65-.15.78-.55,1.87-.98,1.13-.45,1.58-.26,2.44-.48.9-.25,1.37-.71,3.42-2.89,2.79-2.97,2.61-2.83,2.89-3.07,1.87-1.6,2.5-1.32,4.35-2.93,1.35-1.17,2.25-1.96,2.58-3.29.12-.51.15-1.05.1-1.6-.1.2-.18.32-.26.33-.26.02-.13-1.41-1.16-2.21-.83-.64-1.9-.51-3.92-.28-1.06.12-1.84.21-2.8.61-1.06.45-1.42.88-2.7,1.84-2.55,1.94-2.88,1.52-4.46,2.97-.89.82-1.45,1.56-2.46,2.9-.79,1.05-1.28,1.84-1.71,2.7-.5,1.04-.76,1.55-.75,2.18.02.73.3.98.72,2.59Z"/>
  <path d="m91.64,102.07c-.45.73-.16,1.58-.15,1.65.06.15.29.83.88,1.06.69.27,1.09-.39,2.49-.69,1.32-.29,1.62.15,2.37-.29.65-.38,1.29-1.2,1.14-2.05-.02-.05-.16-.76-.73-1.03-.48-.22-.83.09-1.82.26-.95.16-.93-.06-1.87.07-.88.13-1.84.27-2.31,1.03Z"/>
  <path d="m83.22,110.78c.13.66.86,1.24,1.43,1.2.36-.02.4-.26,1.03-.61.56-.31.67-.2,1.7-.57.83-.29,1.25-.45,1.62-.83.15-.15.59-.6.61-1.2,0-.26-.07-.3-.27-.91-.32-1.03-.21-1.22-.49-1.54-.24-.29-.65-.49-1.06-.49-.29,0-.58.11-1.51.9-.6.52-.89.78-1.32,1.24-1.26,1.4-1.88,2.09-1.74,2.8Z"/>
  <path class="cls-14" d="m69.99,91.33l-25.76-13.11-2.99,3.66,19.48,18.75s1.45-2.95,3.82-5.44c1.95-2.06,5.44-3.87,5.44-3.87Z"/>
  <g>
    <line class="cls-11" x1="47.79" y1="16.81" x2="142" y2="115.28"/>
    <line class="cls-11" x1="142" y1="16.81" x2="47.79" y2="115.28"/>
  </g>
  <rect class="cls-10" x="-1245.91" y="-1383.49" width="3385.57" height="2571.67"/>
</svg>