<?xml version="1.0" encoding="UTF-8"?>
<svg id="Calque_1" data-name="Calque 1" xmlns="http://www.w3.org/2000/svg" viewBox="0 0 200 128">
  <defs>
    <style>
      .cls-1, .cls-2, .cls-3, .cls-4, .cls-5, .cls-6, .cls-7, .cls-8, .cls-9, .cls-10 {
        stroke-linecap: round;
      }

      .cls-1, .cls-2, .cls-3, .cls-4, .cls-5, .cls-6, .cls-11, .cls-8, .cls-10 {
        stroke: #000;
      }

      .cls-1, .cls-2, .cls-3, .cls-5, .cls-6, .cls-7, .cls-8, .cls-9, .cls-10 {
        stroke-linejoin: round;
      }

      .cls-1, .cls-2, .cls-3, .cls-8 {
        fill: #bfe6fc;
      }

      .cls-2 {
        stroke-width: .57px;
      }

      .cls-12 {
        fill: #fff;
      }

      .cls-3, .cls-5 {
        stroke-width: 2px;
      }

      .cls-4, .cls-5, .cls-7, .cls-11, .cls-9, .cls-10 {
        fill: none;
      }

      .cls-4, .cls-11 {
        stroke-miterlimit: 10;
      }

      .cls-6, .cls-10 {
        stroke-width: .55px;
      }

      .cls-7 {
        stroke: #fff;
        stroke-width: 8px;
      }

      .cls-8 {
        stroke-width: .75px;
      }

      .cls-9 {
        stroke: #ff6d75;
        stroke-width: 3px;
      }
    </style>
  </defs>
  <rect class="cls-3" x="7.23" y="10.13" width="99.13" height="55.86"/>
  <circle class="cls-12" cx="56.79" cy="66.05" r=".48"/>
  <rect x="54.27" y="66.65" width="5.06" height="2.8"/>
  <polygon class="cls-6" points="42.18 69.45 41.57 71.42 72.02 71.42 71.36 69.45 42.18 69.45"/>
  <line class="cls-10" x1="41.57" y1="71.69" x2="72.02" y2="71.69"/>
  <path class="cls-5" d="m179.37,46.37h-61.08c-.85,0-1.54.69-1.54,1.54v40.71s64.16,0,64.16,0v-40.71c0-.85-.69-1.54-1.54-1.54Z"/>
  <rect class="cls-8" x="121.3" y="49.8" width="55.06" height="35.38"/>
  <path d="m149.11,48.47c0,.15-.12.27-.27.27s-.27-.12-.27-.27.12-.27.27-.27.27.12.27.27Z"/>
  <g>
    <rect x="143" y="102.26" width="11.82" height="2.29"/>
    <path class="cls-5" d="m154.82,103.1v.72c0,.5-.3.9-.66.9h-10.69c-.36,0-.66-.41-.66-.9v-.72h-37.91l1.13,4.78h85.71l1.04-4.78h-37.95Z"/>
  </g>
  <polygon class="cls-5" points="104.89 103.24 192.77 103.24 180.91 88.62 116.75 88.62 104.89 103.24"/>
  <polygon class="cls-2" points="146.92 92.24 150.61 92.23 151.78 95.13 145.88 95.13 146.92 92.24"/>
  <polygon class="cls-2" points="140.04 96.66 157.76 96.64 158.93 99.54 139.01 99.54 140.04 96.66"/>
  <polygon class="cls-2" points="144.98 92.24 144.96 92.24 143.92 95.12 140.25 95.12 141.28 92.24 144.97 92.23 144.98 92.24"/>
  <polygon class="cls-2" points="139.31 92.24 139.29 92.24 138.25 95.12 134.58 95.12 135.6 92.24 139.3 92.23 139.31 92.24"/>
  <polygon class="cls-2" points="133.64 92.24 133.62 92.24 132.58 95.12 128.9 95.12 129.93 92.24 133.63 92.23 133.64 92.24"/>
  <polygon class="cls-2" points="127.97 92.24 127.95 92.24 126.91 95.12 123.23 95.12 124.26 92.24 127.96 92.23 127.97 92.24"/>
  <polygon class="cls-2" points="122.32 92.24 122.3 92.24 121.27 95.12 116.34 95.13 118.62 92.24 122.32 92.23 122.32 92.24"/>
  <polygon class="cls-2" points="152.67 92.24 152.69 92.24 153.73 95.12 157.4 95.12 156.37 92.24 152.68 92.23 152.67 92.24"/>
  <polygon class="cls-2" points="158.34 92.24 158.36 92.24 159.4 95.12 163.07 95.12 162.05 92.24 158.35 92.23 158.34 92.24"/>
  <polygon class="cls-2" points="164.01 92.24 164.03 92.24 165.07 95.12 168.75 95.12 167.72 92.24 164.02 92.23 164.01 92.24"/>
  <polygon class="cls-2" points="169.68 92.24 169.71 92.24 170.74 95.12 174.42 95.12 173.39 92.24 169.69 92.23 169.68 92.24"/>
  <polygon class="cls-2" points="175.33 92.24 175.35 92.24 176.38 95.12 181.32 95.13 179.03 92.24 175.33 92.23 175.33 92.24"/>
  <polygon class="cls-2" points="159.82 96.65 159.84 96.65 160.87 99.53 164.55 99.53 163.52 96.65 159.83 96.64 159.82 96.65"/>
  <polygon class="cls-2" points="165.49 96.65 165.51 96.65 166.55 99.53 170.22 99.53 169.19 96.65 165.5 96.64 165.49 96.65"/>
  <polygon class="cls-2" points="171.16 96.65 171.18 96.65 172.22 99.53 175.89 99.53 174.87 96.65 171.17 96.64 171.16 96.65"/>
  <polygon class="cls-2" points="176.8 96.65 176.82 96.65 177.86 99.53 184.86 99.54 182.58 96.65 176.81 96.64 176.8 96.65"/>
  <polyline class="cls-2" points="177.86 99.53 184.86 99.54 182.58 96.65 176.81 96.64"/>
  <polyline class="cls-2" points="119.93 99.53 112.92 99.54 115.21 96.65 120.98 96.64"/>
  <polygon class="cls-2" points="137.96 96.65 137.94 96.65 136.9 99.53 133.23 99.53 134.26 96.65 137.95 96.64 137.96 96.65"/>
  <polygon class="cls-2" points="132.29 96.65 132.27 96.65 131.23 99.53 127.56 99.53 128.58 96.65 132.28 96.64 132.29 96.65"/>
  <polygon class="cls-2" points="126.62 96.65 126.6 96.65 125.56 99.53 121.88 99.53 122.91 96.65 126.61 96.64 126.62 96.65"/>
  <g>
    <path class="cls-11" d="m75.45,76.43h13.56c1.69,0,3.07,1.37,3.07,3.07v35.31c0,1.69-1.37,3.07-3.07,3.07h-13.56c-1.69,0-3.07-1.37-3.07-3.07v-35.31c0-1.69,1.37-3.07,3.07-3.07Z"/>
    <rect class="cls-1" x="74.11" y="82.09" width="16.25" height="30.3"/>
    <path d="m83.61,114.83c0,.76-.62,1.38-1.38,1.38s-1.38-.62-1.38-1.38.62-1.38,1.38-1.38,1.38.62,1.38,1.38Z"/>
    <line class="cls-4" x1="81.1" y1="80.07" x2="83.36" y2="80.07"/>
  </g>
  <g>
    <line class="cls-9" x1="21.92" y1="14.77" x2="178.08" y2="113.23"/>
    <line class="cls-9" x1="178.08" y1="14.77" x2="21.92" y2="113.23"/>
  </g>
  <rect class="cls-7" x="-894.71" y="-443.29" width="2244.45" height="5948.74"/>
</svg>