<?xml version="1.0" encoding="UTF-8"?>
<svg id="Calque_1" data-name="Calque 1" xmlns="http://www.w3.org/2000/svg" viewBox="0 0 200.13 128">
  <defs>
    <style>
      .cls-1 {
        fill: #ff6d75;
      }

      .cls-1, .cls-2, .cls-3, .cls-4, .cls-5, .cls-6 {
        stroke: #000;
      }

      .cls-1, .cls-2, .cls-7, .cls-8 {
        stroke-linecap: round;
        stroke-linejoin: round;
      }

      .cls-2, .cls-4 {
        fill: #f3d587;
      }

      .cls-9, .cls-3 {
        fill: #fff;
      }

      .cls-3, .cls-4, .cls-5, .cls-6 {
        stroke-miterlimit: 10;
      }

      .cls-5 {
        fill: #76ac75;
      }

      .cls-7 {
        stroke: #fff;
        stroke-width: 8px;
      }

      .cls-7, .cls-6, .cls-8 {
        fill: none;
      }

      .cls-8 {
        stroke: #ff6d75;
        stroke-width: 3px;
      }
    </style>
  </defs>
  <polygon class="cls-2" points="139.3 10.27 145.26 9.33 148.31 58.26 141.98 53.38 139.3 10.27"/>
  <g>
    <path class="cls-2" d="m127.67,9.33l-9.67,51.19,7.59-3.12s6.75-34.12,7.09-38.29c.34-4.17-.01-7.53-.01-7.53l-5-2.25Z"/>
    <polygon class="cls-2" points="123.86 10.99 127.67 9.33 118 60.52 115.48 56.05 123.86 10.99"/>
  </g>
  <g>
    <path class="cls-2" d="m155.23,12.62l-3.59,51.97,7.17-3.99s2.69-34.67,2.54-38.86c-.15-4.18-.9-7.47-.9-7.47l-5.23-1.64Z"/>
    <polygon class="cls-2" points="151.64 14.71 155.23 12.62 151.64 64.59 148.61 60.44 151.64 14.71"/>
  </g>
  <g>
    <path class="cls-2" d="m166.25,18.35l1.3,49.73,5.29-4.27s-.64-33.2-1.08-37.17-1.29-7.06-1.29-7.06l-4.22-1.23Z"/>
    <polygon class="cls-2" points="163.61 20.57 166.25 18.35 167.55 68.07 164.85 64.33 163.61 20.57"/>
  </g>
  <g>
    <path class="cls-2" d="m131.78,16.94l9.03,51.3,6-5.6s-5.74-34.3-6.89-38.33c-1.15-4.03-2.67-7.04-2.67-7.04l-5.47-.34Z"/>
    <polygon class="cls-2" points="128.81 19.83 131.78 16.94 140.81 68.24 136.87 64.95 128.81 19.83"/>
  </g>
  <polygon class="cls-2" points="125.42 27.96 130.14 26.62 137.49 65.83 131.88 62.52 125.42 27.96"/>
  <polygon class="cls-2" points="102.04 29.1 106.49 27.02 119.94 64.59 113.88 62.2 102.04 29.1"/>
  <polygon class="cls-2" points="185.58 29.1 181.13 27.02 167.68 64.59 173.74 62.2 185.58 29.1"/>
  <polygon class="cls-2" points="112.38 14.5 117.89 13.74 119.94 58.91 114.17 54.3 112.38 14.5"/>
  <polygon class="cls-2" points="163.37 26.45 168.23 27.1 159.32 65.99 155.51 60.72 163.37 26.45"/>
  <path class="cls-2" d="m168.5,53.13s6.08-14.18,5.97-19.7c-.11-5.52-1.46-12.72-1.46-12.72h4.02s2.17,7.65,2.17,12.49-6.08,19.92-6.08,19.92h-4.61Z"/>
  <path class="cls-2" d="m124.39,55.95s-8.52-12.86-9.4-18.31c-.88-5.45-.84-12.77-.84-12.77l-3.96.72s-.76,7.92.11,12.68,9.55,18.51,9.55,18.51l4.54-.83Z"/>
  <path class="cls-2" d="m143.45,66.48s5.56-17.01,4.86-23.37c-.7-6.36-3.01-14.54-3.01-14.54l4.65-.42s3.3,8.62,3.8,14.21c.5,5.59-4.96,23.65-4.96,23.65l-5.33.48Z"/>
  <path class="cls-2" d="m140.68,76.47s-9.17-15.7-9.6-22.08c-.43-6.38.54-14.86.54-14.86l-5.1.46s-1.96,9.09-1.46,14.68c.5,5.59,9.77,22.33,9.77,22.33l5.85-.52Z"/>
  <polygon class="cls-1" points="104.97 43.21 109.98 43.21 114.18 115.47 108.58 113.07 104.97 43.21"/>
  <polygon class="cls-1" points="181.63 43.21 176.63 43.21 172.43 115.47 178.03 113.07 181.63 43.21"/>
  <path class="cls-1" d="m109.98,43.21s15.96,16.64,32.85,16.04,33.8-16.04,33.8-16.04l-4.2,72.26h-58.24s-4.2-72.26-4.2-72.26Z"/>
  <ellipse class="cls-9" cx="142.9" cy="85.79" rx="27.43" ry="15.8"/>
  <path class="cls-5" d="m89.23,21.81c0,.54-.07,1.18-.15,1.72-.09.62-.19,1.09-.19,1.09l-.42-.03c-.96-.03-3.4-.02-5.59.92-2.82,1.2-6.54,1.91-9.77,1.1-3.22-.8-12.89-3.62-15.71-3.82-2.82-.2-15.3-.3-19.53.4-4.23.71-10.06,1-13.49.71-3.42-.3-8.56-1.01-8.56-1.01,0,0-.17-.19-.38-.51-.38-.52-.91-1.37-1.14-2.26-.05-.15-.07-.3-.09-.45-.2-1.62-.05-2.8-.05-2.8l1.23.2s11.54,1.39,16.5.99c4.97-.39,8.56-2.18,17.5-2.18s14.76,2.24,18.73,3.62c3.98,1.39,6.21,2.17,9,1.38,2.78-.8,3.74-1.82,5.49-1.82s6.23.09,6.23.09c0,0,.39,1.5.39,2.65Z"/>
  <path class="cls-6" d="m88.98,27.43h0c-.05.26-.08.42-.08.42,0,0-3.19-.31-6,.89-2.82,1.2-6.54,1.91-9.77,1.11-3.22-.81-12.89-3.63-15.71-3.83-2.82-.2-15.3-.3-19.53.4-4.23.71-10.06,1.01-13.49.71-3.42-.3-8.56-1.01-8.56-1.01,0,0-.28-.33-.61-.82.07-1.06.16-2.1.22-2.91.21.31.38.51.38.51,0,0,5.14.71,8.56,1.01,3.43.29,9.27,0,13.49-.71,4.23-.71,16.71-.61,19.53-.4,2.82.2,12.49,3.02,15.71,3.82,3.23.81,6.95.1,9.77-1.1,2.19-.94,4.63-.96,5.59-.92l.42.03s.06,1.3.08,2.81Z"/>
  <path class="cls-5" d="m89.23,56.22c-.02-.9-2.07-2.96-5.26-6.26-8.03-8.29-18.06-11.91-22.63-13.3-7.29-2.2-12.96-2.46-19.1-2.74-.71-.03-7.53-.3-15.9,1.37-3.1.62-4.79,1.18-6.43,2.45-.85.66-3.47,2.23-4.05,3.02-.43-1.43-.29-4.5-.63-5.57-.53-1.72-.19-3.8-.19-6.06,0-.9.09-2.37.19-3.83.33.49.61.82.61.82,0,0,5.14.71,8.56,1.01,3.43.3,9.27,0,13.49-.71,4.23-.71,16.71-.61,19.53-.4,2.82.2,12.49,3.02,15.71,3.83,3.23.8,6.95.09,9.77-1.11,2.81-1.2,6-.89,6-.89,0,0,.03-.16.08-.4.01,1.29.01,2.72-.08,3.63-.18,1.98-1.57,5.07-1.47,7.85.1,2.79,1.73,7.47,1.81,10.65.08,3.18,0,6.66,0,6.66Z"/>
  <path class="cls-5" d="m14.61,113.64c0-.54.07-1.18.15-1.72.09-.62.19-1.09.19-1.09l.42.03c.96.03,3.4.02,5.59-.92,2.82-1.2,6.54-1.91,9.77-1.1,3.22.8,12.89,3.62,15.71,3.82,2.82.2,15.3.3,19.53-.4s10.06-1,13.49-.71c3.42.3,8.56,1.01,8.56,1.01,0,0,.17.19.38.51.38.52.91,1.37,1.14,2.26.05.15.07.3.09.45.2,1.62.05,2.8.05,2.8l-1.23-.2s-11.54-1.39-16.5-.99c-4.97.39-8.56,2.18-17.5,2.18s-14.76-2.24-18.73-3.62c-3.98-1.39-6.21-2.17-9-1.38-2.78.8-3.74,1.82-5.49,1.82s-6.23-.09-6.23-.09c0,0-.39-1.5-.39-2.65Z"/>
  <path class="cls-6" d="m14.87,108.02h0c.05-.26.08-.42.08-.42,0,0,3.19.31,6-.89,2.82-1.2,6.54-1.91,9.77-1.11,3.22.81,12.89,3.63,15.71,3.83,2.82.2,15.3.3,19.53-.4,4.23-.71,10.06-1.01,13.49-.71,3.42.3,8.56,1.01,8.56,1.01,0,0,.28.33.61.82-.07,1.06-.16,2.1-.22,2.91-.21-.31-.38-.51-.38-.51,0,0-5.14-.71-8.56-1.01-3.43-.29-9.27,0-13.49.71s-16.71.61-19.53.4c-2.82-.2-12.49-3.02-15.71-3.82-3.23-.81-6.95-.1-9.77,1.1-2.19.94-4.63.96-5.59.92l-.42-.03s-.06-1.3-.08-2.81Z"/>
  <path class="cls-6" d="m15.13,79.52h0c-.03.67-.08,1.28-.11,1.86.2,1.24.39,2.86.44,4.43.03,1.38.2,3.05.39,4.72"/>
  <path class="cls-5" d="m14.88,108c-.01-1.29-.01-2.72.08-3.63.18-1.98,1.57-5.07,1.47-7.85-.06-1.59-.34-3.79-.57-5.99.06.13.13.27.22.4,1.62,2.56,3.97,3.82,7.96,5.51,11.92,5.03,18.92,7.98,29.65,7.95,8.3-.03,13.92-1.83,22.02-4.43,6.39-2.06,8.44-3.44,9.79-5.51.07-.1.13-.2.18-.3.26.87,1.34,4.41,1.81,5.93.53,1.72,1.33,3.98,1.33,6.24,0,.9-.09,2.37-.19,3.83-.33-.49-.61-.82-.61-.82,0,0-5.14-.71-8.56-1.01-3.43-.3-9.27,0-13.49.71-4.23.71-16.71.61-19.53.4-2.82-.2-12.49-3.02-15.71-3.83-3.23-.8-6.95-.09-9.77,1.11-2.81,1.2-6,.89-6,.89,0,0-.03.16-.08.4"/>
  <path class="cls-5" d="m15.85,90.53c.06.13.13.27.22.4,1.62,2.56,3.97,3.82,7.96,5.51,11.92,5.03,18.92,7.98,29.65,7.95,8.3-.03,13.92-1.83,22.02-4.43,6.39-2.06,8.44-3.44,9.79-5.51.07-.1.13-.2.18-.3,1.38-2.33.76-4.12,1.35-13.61.06-.96.39-4.77,1.07-12.39.49-5.6,1.17-10.21,1.14-11.93-.02-.9-2.07-2.96-5.26-6.26-8.03-8.29-18.06-11.91-22.63-13.3-7.29-2.2-12.96-2.46-19.1-2.74-.71-.03-7.53-.3-15.9,1.37-3.1.62-4.79,1.18-6.43,2.45-.85.66-2.95,1.42-3.54,2.2-1.9,2.55-1.15,5.52-1.5,7.27-.75,3.69-.27,5.81.15,10.69.6,6.98.44,12.56.31,17.28-.04,1.63-.11,3.06-.19,4.33h0c-.03.67-.08,1.28-.11,1.86"/>
  <ellipse class="cls-3" cx="51.87" cy="54.62" rx="14.56" ry="31.84" transform="translate(-11.06 96.01) rotate(-79.81)"/>
  <path class="cls-4" d="m64.66,87c2.93-.82,5.45-2.2,6.79-5.08,1.08-2.31,1.18-5,.6-7.48-.78-3.31-3.68-6.4-7.38-4.92-2.03.82-2.67,3.58-4.37,4.92-2.34,1.84-5.22,2.87-7.51,4.8-.5.42-.99.92-1.12,1.57-.11.57.08,1.15.33,1.68,2.27,4.87,7.93,5.84,12.66,4.51Z"/>
  <path class="cls-4" d="m32.77,77.15c-2.93-.82-5.45-2.2-6.79-5.08-1.08-2.31-1.18-5-.6-7.48.78-3.31,3.68-6.4,7.38-4.92,2.03.82,2.67,3.58,4.37,4.92,2.34,1.84,5.22,2.87,7.51,4.8.5.42.99.92,1.12,1.57.11.57-.08,1.15-.33,1.68-2.27,4.87-7.93,5.84-12.66,4.51Z"/>
  <g>
    <path class="cls-2" d="m56.21,81.55c-.38,1.97-1.28,3.81-2.35,5.63-.31.53-.63,1.06-1.07,1.49-.75.75-1.94,1-2.97,1.14-.95-.62-1.63-1.05-2.14-1.41-1.33-.93-1.69-1.43-2.94-3.05-.55-.73-.87-1.7-1.21-2.33-.04-.09-.1-.17-.14-.25.33-.47.73-1.06,1.16-1.83,1.31-2.31,1.1-2.79,2.25-4.29.97-1.28,2.14-2.8,3.94-3.06,2.64-.37,5.19,1.95,5.56,4.44.18,1.23.13,2.4-.08,3.53Z"/>
    <path class="cls-2" d="m49.85,89.88c-.08.01-.17.03-.26.04-.06.01-.12.01-.18,0-2.03.16-6.18-1.61-6.78-1.7-2.24-.36-4.21-.84-5.3-1.42-.53-.29-1.66-.9-1.89-1.96-.33-1.56,1.42-3.34,3.17-3.88.32-.1,1.57-.46,2.91.09.89.37,1.37.98,1.89,1.79.04.08.1.15.14.25.34.63.66,1.6,1.21,2.33,1.25,1.62,1.61,2.12,2.94,3.05.52.36,1.2.79,2.14,1.41Z"/>
  </g>
  <g>
    <line class="cls-8" x1="58.76" y1="16.76" x2="152.98" y2="115.23"/>
    <line class="cls-8" x1="152.98" y1="16.76" x2="58.76" y2="115.23"/>
  </g>
  <rect class="cls-7" x="-1245.91" y="-1584.3" width="3385.57" height="2571.67"/>
</svg>