<?xml version="1.0" encoding="UTF-8"?>
<svg id="Calque_1" data-name="Calque 1" xmlns="http://www.w3.org/2000/svg" viewBox="0 0 200.13 128">
  <defs>
    <style>
      .cls-1 {
        fill: #87ccf3;
      }

      .cls-1, .cls-2, .cls-3, .cls-4, .cls-5, .cls-6, .cls-7, .cls-8 {
        stroke: #000;
      }

      .cls-1, .cls-2, .cls-3, .cls-5, .cls-9, .cls-10 {
        stroke-linecap: round;
        stroke-linejoin: round;
      }

      .cls-2 {
        fill: #bbfedb;
      }

      .cls-3 {
        fill: #ffbeed;
      }

      .cls-11, .cls-8 {
        fill: #a07637;
      }

      .cls-4 {
        fill: #afaff9;
      }

      .cls-4, .cls-5 {
        stroke-width: 2px;
      }

      .cls-4, .cls-6, .cls-7, .cls-8 {
        stroke-miterlimit: 10;
      }

      .cls-5, .cls-9, .cls-10 {
        fill: none;
      }

      .cls-6 {
        fill: #fee4cb;
      }

      .cls-7 {
        fill: #ffd4ad;
      }

      .cls-9 {
        stroke: #fff;
        stroke-width: 8px;
      }

      .cls-10 {
        stroke: #ff6d75;
        stroke-width: 3px;
      }
    </style>
  </defs>
  <path class="cls-7" d="m125.89,105.75c.05.7.37,1.37.81,1.91l.07.09c.62.77,1.48,1.29,2.43,1.51.6.13,1.22.17,1.81.02.69-.17,1.21-.5,1.53-1.02.36-.58.32-1.31-.06-1.84l.56-.13.1.43c.24,1,1.25,1.64,2.25,1.4.5-.12.91-.43,1.16-.84.25-.41.35-.92.23-1.42l-.1-.43.42-.1.1.43c.24,1,1.25,1.64,2.26,1.4.5-.12.91-.43,1.16-.84.25-.41.35-.92.23-1.42l-.1-.43.42-.1.1.43c.24,1,1.25,1.64,2.25,1.4.51-.12.91-.43,1.17-.84.25-.41.35-.92.23-1.42l-.1-.43.42-.1.1.43c.24,1,1.25,1.64,2.25,1.4.5-.12.91-.43,1.16-.84.25-.41.35-.92.23-1.42l-.1-.43.42-.1.1.43c.24,1,1.25,1.64,2.26,1.4.5-.12.91-.43,1.16-.84.25-.41.35-.92.23-1.42l-.1-.43.42-.1.1.43c.24,1,1.25,1.64,2.25,1.4.51-.12.91-.43,1.17-.84.25-.41.35-.92.23-1.42l-.1-.43.74-.17c-.1.64.18,1.31.76,1.68.51.32,1.14.38,1.82.23.59-.13,1.14-.44,1.61-.82.76-.62,1.29-1.48,1.51-2.44l.02-.11c.16-.69.14-1.42-.13-2.07-.2-.49-.51-.91-.9-1.15-.39-.24-.84-.3-1.25-.2-.34.08-.66.27-.9.55l-.17-.74.57-.13c1-.24,1.64-1.26,1.4-2.26-.12-.5-.43-.91-.84-1.16-.41-.25-.92-.35-1.42-.23l-.57.13-.1-.42.57-.13c1-.24,1.64-1.25,1.4-2.25-.12-.5-.43-.91-.84-1.17-.41-.25-.92-.35-1.42-.23l-.57.13-.1-.42.57-.13c1-.24,1.64-1.25,1.4-2.25-.12-.5-.43-.91-.84-1.17-.41-.25-.92-.35-1.42-.23l-.57.13-.1-.42.57-.13c1-.24,1.64-1.25,1.4-2.26-.12-.5-.43-.91-.84-1.16-.41-.25-.92-.35-1.42-.23l-.57.13-.1-.42.57-.13c1-.24,1.64-1.25,1.4-2.25-.12-.5-.43-.91-.84-1.17-.41-.25-.92-.35-1.42-.23l-.57.13-.1-.42.57-.13c1-.24,1.64-1.25,1.4-2.25-.12-.5-.43-.91-.84-1.16s-.92-.35-1.42-.23l-.57.13-.2-.85c.34.15.71.18,1.05.1.41-.1.78-.35,1.02-.74.24-.39.33-.91.29-1.43-.04-.7-.36-1.36-.81-1.91l-.07-.09c-.62-.76-1.48-1.29-2.44-1.51-.59-.14-1.22-.17-1.81-.03-.68.17-1.21.5-1.53,1.02-.4.64-.31,1.44.17,1.97l-.82.19-.12-.52c-.24-1-1.25-1.63-2.26-1.39-.5.12-.91.43-1.16.84-.25.41-.35.91-.24,1.41l.12.52-.42.1-.12-.52c-.24-1-1.25-1.63-2.25-1.4-.51.12-.91.43-1.17.84-.25.41-.35.91-.24,1.41l.12.52-.42.1-.12-.52c-.24-1-1.25-1.63-2.25-1.4-.5.12-.91.43-1.16.84-.25.41-.35.91-.24,1.41l.12.52-.42.1-.12-.52c-.24-1-1.25-1.63-2.26-1.39-.5.12-.91.43-1.16.84-.25.41-.35.91-.24,1.41l.12.52-.42.1-.12-.52c-.24-1-1.25-1.63-2.25-1.4-.51.12-.91.43-1.17.84-.25.41-.35.91-.24,1.41l.12.52-.42.1-.12-.52c-.24-1-1.25-1.63-2.25-1.4-.5.12-.91.43-1.16.84-.25.41-.35.91-.24,1.41l.12.52-.63.15c.19-.69-.09-1.45-.73-1.84-.52-.32-1.14-.39-1.83-.23-.59.13-1.13.44-1.61.83-.76.62-1.29,1.48-1.51,2.43l-.02.11c-.16.69-.14,1.42.12,2.07.2.49.51.91.9,1.15.39.24.84.3,1.25.2.18-.04.36-.12.51-.22l.14.62-.28.07c-1,.24-1.64,1.25-1.4,2.25.12.5.43.91.84,1.16.41.25.92.35,1.42.23l.28-.07.1.42-.28.07c-1,.24-1.64,1.25-1.4,2.26.12.5.43.91.84,1.16.41.25.92.35,1.42.23l.28-.07.1.42-.28.07c-1,.24-1.64,1.25-1.4,2.25.12.5.43.91.84,1.17.41.25.92.35,1.42.23l.28-.07.1.42-.28.07c-1,.24-1.64,1.26-1.4,2.26.12.5.43.91.84,1.16.41.25.92.35,1.42.23l.28-.07.1.42-.28.07c-1,.24-1.64,1.25-1.4,2.26.12.5.43.91.84,1.16.41.25.92.35,1.42.23l.28-.07.1.42-.28.07c-1,.24-1.64,1.25-1.4,2.25.12.5.43.91.84,1.17.41.25.92.35,1.42.23l.28-.07.12.51c-.18-.02-.38,0-.56.04-.42.1-.79.35-1.03.74-.24.39-.32.9-.29,1.43Z"/>
  <g>
    <path class="cls-6" d="m173.09,36.47c1.55-.31,6.01-1.2,10.69.77,2.35.99,3.78,2.29,6.24,4.53,2.29,2.09,2.98,3.29,3.34,4.02.47.98.72,2.01,1.2,4.02.16.7.76,3.22.94,4.62.43,3.36-.53,8.17-3.51,12.14-3.37,4.5-7.87,5.97-9.83,6.58-1.96.61-6.96,2.09-12.66-.09-1.34-.51-5.37-2.24-8.29-6.5-2.52-3.67-2.89-7.3-3.16-10-.34-3.3.06-5.85.26-6.93.52-2.83,1.41-4.76,1.62-5.22.9-1.91,1.55-3.29,2.99-4.45.71-.57,1.36-.87,5.52-2.14,2.82-.86,4.23-1.28,4.65-1.37Z"/>
    <path class="cls-8" d="m185.37,42.92c.16.25.58.9.45,1.74-.13.85-.8,1.74-1.84,1.9-.79.12-1.61-.21-2.09-.87-.46-.63-.55-1.46-.26-2.13.42-.95,1.43-1.16,2.19-1.32.35-.07.62-.07.87.03.35.14.53.42.68.64Z"/>
    <path class="cls-8" d="m189.85,49.75c.19.04.86.2,1.32.84.1.14.65.9.32,1.77-.19.51-.69,1.06-1.38,1.09-.74.04-1.22-.53-1.26-.58-.28-.35-.29-.82-.31-1.75-.02-1.05.15-1.22.22-1.28.3-.27.79-.16,1.09-.1Z"/>
    <path class="cls-8" d="m179.17,55.38c.18-.15.7-.55,1.45-.55.24,0,.85,0,1.28.45.53.55.46,1.39.26,1.9-.23.6-.7.91-1.02,1.12-.4.26-.95.62-1.59.45-.59-.16-.89-.67-.97-.81-.38-.65-.23-1.31-.19-1.45.16-.62.58-.95.78-1.12Z"/>
    <path class="cls-8" d="m173.94,47.46c.21,0,.75.02,1.33.36.34.2.79.46.95,1,.14.46-.01.86-.05.95-.24.6-.82.83-1.24,1-.44.18-.85.34-1.26.17-.45-.19-.62-.66-.76-1.07-.24-.67-.13-1.23-.07-1.54.09-.48.23-.62.29-.67.22-.19.5-.19.81-.19Z"/>
    <path class="cls-8" d="m173.8,38.96c.41-.23.82-.15,1.24-.07.45.08.96.18,1.31.64.43.58.26,1.29.24,1.38-.18.68-.78,1.22-1.52,1.31-.72.09-1.39-.29-1.73-.83-.39-.61-.26-1.25-.24-1.35.03-.16.17-.77.71-1.07Z"/>
    <path class="cls-8" d="m165.27,43.38c.19-.1.66-.35,1.24-.24.13.03.49.09.74.38.17.2.15.34.26.62.26.66.66.67.78,1.09.19.65-.54,1.38-.59,1.43-.77.74-1.88.57-2.16.52-.42-.07-1.02-.16-1.38-.67-.5-.71-.1-1.66,0-1.9.08-.19.38-.85,1.12-1.24Z"/>
    <path class="cls-8" d="m161.82,53.12c.65-.18,1.22.09,1.43.19.28.13,1.03.49,1.24,1.33.01.06.23.97-.33,1.54-.7.72-2.13.4-2.76-.33-.27-.31-.35-.66-.4-.86-.08-.3-.25-.99.14-1.47.22-.27.52-.36.69-.4Z"/>
    <path class="cls-8" d="m172.68,58.78c.87.18,1.22,1.07,1.31,1.28.1.26.29.74.12,1.21-.37,1-2.18,1.51-2.99.78-.5-.45-.46-1.23-.45-1.45.01-.2.06-1.08.78-1.57.1-.07.61-.39,1.24-.26Z"/>
    <path class="cls-8" d="m164.32,61.82c.6-.43,1.39-.14,1.61-.06.85.31,1.2,1.04,1.26,1.16.06.12.53,1.17-.08,2.08-.05.07-.62.92-1.53.86-.62-.04-1.02-.47-1.22-.69-.67-.73-.64-1.64-.63-1.87.02-.41.05-1.11.59-1.49Z"/>
    <path class="cls-8" d="m177.17,66.46c.12.03.91.22,1.3,1,.06.13.4.86.02,1.57-.35.65-1.09.9-1.67.86-.94-.06-1.77-.89-1.79-1.81-.01-.79.58-1.29.61-1.32.63-.52,1.39-.35,1.53-.31Z"/>
    <path class="cls-8" d="m187.37,61.04c.62.01,1.18.02,1.63.43.52.48.61,1.24.49,1.79-.19.92-.98,1.36-1.3,1.53-.32.18-1.12.62-1.85.28-.5-.24-.7-.72-.84-1.06-.11-.26-.46-1.1-.06-1.93.08-.16.32-.61.84-.86.38-.19.71-.18,1.08-.18Z"/>
  </g>
  <g>
    <g>
      <circle class="cls-11" cx="149.64" cy="73.83" r=".63"/>
      <circle class="cls-11" cx="145.26" cy="74.86" r=".63"/>
      <circle class="cls-11" cx="140.88" cy="75.89" r=".63"/>
      <circle class="cls-11" cx="136.51" cy="76.92" r=".63"/>
      <circle class="cls-11" cx="132.13" cy="77.94" r=".63"/>
      <circle class="cls-11" cx="127.75" cy="78.97" r=".63"/>
    </g>
    <g>
      <circle class="cls-11" cx="150.63" cy="78.04" r=".63"/>
      <circle class="cls-11" cx="146.25" cy="79.07" r=".63"/>
      <circle class="cls-11" cx="141.87" cy="80.09" r=".63"/>
      <circle class="cls-11" cx="137.49" cy="81.12" r=".63"/>
      <circle class="cls-11" cx="133.11" cy="82.15" r=".63"/>
      <circle class="cls-11" cx="128.74" cy="83.18" r=".63"/>
    </g>
    <g>
      <circle class="cls-11" cx="151.62" cy="82.25" r=".63"/>
      <circle class="cls-11" cx="147.24" cy="83.27" r=".63"/>
      <circle class="cls-11" cx="142.86" cy="84.3" r=".63"/>
      <circle class="cls-11" cx="138.48" cy="85.33" r=".63"/>
      <circle class="cls-11" cx="134.1" cy="86.36" r=".63"/>
      <circle class="cls-11" cx="129.72" cy="87.39" r=".63"/>
    </g>
    <g>
      <circle class="cls-11" cx="152.6" cy="86.45" r=".63"/>
      <circle class="cls-11" cx="148.23" cy="87.48" r=".63"/>
      <circle class="cls-11" cx="143.85" cy="88.51" r=".63"/>
      <circle class="cls-11" cx="139.47" cy="89.54" r=".63"/>
      <circle class="cls-11" cx="135.09" cy="90.57" r=".63"/>
      <circle class="cls-11" cx="130.71" cy="91.59" r=".63"/>
    </g>
    <g>
      <circle class="cls-11" cx="153.59" cy="90.66" r=".63"/>
      <circle class="cls-11" cx="149.21" cy="91.69" r=".63"/>
      <circle class="cls-11" cx="144.83" cy="92.72" r=".63"/>
      <circle class="cls-11" cx="140.46" cy="93.75" r=".63"/>
      <circle class="cls-11" cx="136.08" cy="94.77" r=".63"/>
      <circle class="cls-11" cx="131.7" cy="95.8" r=".63"/>
    </g>
    <g>
      <circle class="cls-11" cx="154.58" cy="94.87" r=".63"/>
      <circle class="cls-11" cx="150.2" cy="95.9" r=".63"/>
      <circle class="cls-11" cx="145.82" cy="96.92" r=".63"/>
      <circle class="cls-11" cx="141.44" cy="97.95" r=".63"/>
      <circle class="cls-11" cx="137.06" cy="98.98" r=".63"/>
      <circle class="cls-11" cx="132.69" cy="100.01" r=".63"/>
    </g>
  </g>
  <circle class="cls-4" cx="21.91" cy="46.76" r="17.64"/>
  <path class="cls-5" d="m31.85,61.34c2.82-2.59,3.42-5.24,4.31-8.18.89-2.93.64-6.31-.44-9.14-2.28-6.01-8.84-10.54-15.34-9.79-5.32.61-10,4.95-11.01,10.21-1.1,5.71,2.21,12.18,7.82,13.99,1.45.47,2.94.34,4.41.02,2.7-.58,4.61-2.26,5.7-4.83,1.59-3.78.44-8.85-3.9-10.14-1.61-.48-3.49-.14-4.68,1.05s-1.48,3.24-.51,4.6c1.88,2.62,2.09-1.9,4.2-1.55.84.14,1.51.87,1.73,1.69s.04,1.72-.33,2.48c-.74,1.52-2.27,2.63-3.94,2.86-4.12.57-6.75-3.6-6.86-7.22-.12-4.28,2.99-8.23,7.26-8.97,4.29-.74,8.79,1.75,10.93,5.54,4.25,7.55-.13,17.9-8.61,19.79-2.6.58-5.15.34-7.63-.62-3.55-1.38-6.33-3.83-8.22-7.37-.79-1.48-1.56-2.98-1.95-4.63-.54-2.29-.6-4.6-.19-6.9.05-.28.15-.54.2-.82.5-2.88,1.76-5.4,3.47-7.59,2.31-2.98,5.3-5.08,8.85-6.03,3.82-1.03,7.16-.92,10.92.65,6.53,2.72,10.32,7.88,11.33,13.77,1.12,6.53-2.31,13.19-7.53,17.15Z"/>
  <path class="cls-5" d="m28.04,63.6h3.72v43.28c0,1.03-.83,1.86-1.86,1.86h0c-1.03,0-1.86-.83-1.86-1.86v-43.28h0Z" transform="translate(-16.51 7.65) rotate(-11.45)"/>
  <path class="cls-1" d="m97.93,37.98c-1.93,1.32-3.7,3.23-4.43,5.96-1.65,6.08-1.65,13-4.27,15.79-1.85-.9-3-2.1-3.74-3.17,1.19-3.41,1.5-8.47,2.75-13.06.62-2.31,1.99-4.03,3.56-5.29,1.12-.26,2.38-.39,3.83-.39.83,0,1.59.06,2.31.17Z"/>
  <path class="cls-3" d="m91.79,38.2c-1.56,1.26-2.94,2.98-3.56,5.29-1.25,4.6-1.55,9.65-2.75,13.06-1-1.48-1.21-2.72-1.34-2.66-.35-1.57-.57-3.1-.61-4.52-.04-1.55.05-3.06.23-4.47.66-1.58,2.41-5.47,8.03-6.7Z"/>
  <path class="cls-1" d="m105.47,42.28c-.49.76-.88,1.62-1.13,2.58-1.65,6.06-1.65,12.95-4.23,15.75h0c-1.23.36-2.68.56-4.37.52-.67-.02-1.3-.06-1.89-.13.18-.12.35-.27.53-.41,3.04-2.46,2.96-9.78,4.69-16.18.57-2.13,1.77-3.75,3.18-4.99,1.44.82,2.48,1.86,3.22,2.85Z"/>
  <path class="cls-3" d="m102.25,39.43c-1.41,1.24-2.61,2.86-3.18,4.99-1.74,6.4-1.65,13.72-4.69,16.18-.18.14-.35.29-.53.41-1.9-.21-3.4-.68-4.61-1.28,2.62-2.78,2.62-9.7,4.27-15.79.73-2.73,2.51-4.64,4.43-5.96,1.74.25,3.17.77,4.32,1.45Z"/>
  <path class="cls-3" d="m107.72,49.37c-.04,1.59-.31,3.32-.74,5.08h0c-.58,1.21-2.23,4.8-6.87,6.16,2.58-2.8,2.58-9.69,4.23-15.75.26-.96.65-1.82,1.13-2.58,1.4,1.85,1.78,3.53,1.94,3.26.05-.07.09-.14.13-.22.13,1.29.21,2.65.17,4.05Z"/>
  <path class="cls-1" d="m84.15,53.89h0c-.78.73-1.7,2.61-2.89,3.67-2.24,2-6.58,3.78-8.38,4.06-1.79.29-.51-3.31-.51-3.31l-2.39-1.61c-.55-.37-.71-1.12-.33-1.67l.29-.42c.29-.43.27-.98-.04-1.39l-1.92-2.55c-.37-.5-.31-1.18.14-1.6l1.22-1.13c.38-.36.49-.93.26-1.41l-.74-1.5c-.35-.71.07-1.55.84-1.71l.12-.03c.71-.14,1.12-.87.91-1.54l-.68-2.12,2.36-.21-.38-1.57c-.22-.92.66-1.74,1.55-1.42,1.93.68,4.73,1.88,6.29,3.6,1.28,1.41,2.59,4.04,3.53,5.52.08.11.17-.15.38-.65-.18,1.41-.27,2.92-.23,4.47.04,1.42.26,2.95.61,4.52Z"/>
  <path class="cls-1" d="m121.62,50.25c-.22.23-.29.56-.16.86l.86,2.07c.16.41-.03.88-.44,1.04l-.91.37c-.37.16-.57.58-.46.97l.35,1.21c.11.4-.09.82-.46.97l-1.62.67c-.29.11-.48.39-.5.71l-.1,2.49c-.03.54-.55.91-1.06.73-1.79-.62-5.48-2.09-7.12-4.15-1.1-1.37-2.17-3.35-2.78-4.13-.04-.06-.11.1-.26.39.44-1.76.71-3.49.74-5.08.04-1.4-.04-2.76-.17-4.05.8-1.37,1.68-3.47,2.23-4.07,1.17-1.25,4.19-2.96,6.24-3.34,1.23-.23,3.15-.25,4.47-.22.65.02,1,.75.63,1.27l-1.95,2.72,1.89.41c.44.09.72.52.61.96l-.43,1.81c-.07.29.02.58.23.77l1.81,1.69c.32.31.34.81.04,1.13l-1.7,1.79Z"/>
  <path class="cls-3" d="m79.17,75.87c-2.2.77-4.41,2.15-5.83,4.6-3.18,5.44-4.98,12.12-8.24,14.13-1.55-1.35-2.35-2.81-2.78-4.04,2.04-2.98,3.65-7.78,6.06-11.89,1.2-2.07,2.98-3.37,4.81-4.18,1.14.04,2.4.24,3.8.62.8.22,1.52.47,2.18.77Z"/>
  <path class="cls-2" d="m73.19,74.48c-1.84.81-3.61,2.11-4.81,4.18-2.4,4.11-4.02,8.91-6.06,11.89-.58-1.69-.46-2.94-.6-2.92.07-1.61.26-3.14.59-4.52.37-1.51.84-2.94,1.39-4.26,1.05-1.36,3.76-4.65,9.5-4.38Z"/>
  <path class="cls-3" d="m85.33,81.99c-.67.61-1.27,1.34-1.77,2.2-3.17,5.42-4.97,12.07-8.19,14.1h-.01c-1.28.03-2.73-.16-4.35-.64-.64-.19-1.24-.39-1.79-.62.21-.07.41-.17.62-.26,3.58-1.58,5.4-8.67,8.75-14.39,1.11-1.9,2.69-3.15,4.37-3.98,1.18,1.17,1.91,2.44,2.37,3.59Z"/>
  <path class="cls-2" d="m82.96,78.4c-1.69.83-3.27,2.08-4.37,3.98-3.34,5.72-5.17,12.81-8.75,14.39-.21.09-.42.18-.62.26-1.78-.7-3.11-1.54-4.12-2.44,3.26-2,5.06-8.69,8.24-14.13,1.42-2.44,3.63-3.83,5.83-4.6,1.62.69,2.85,1.57,3.79,2.53Z"/>
  <path class="cls-2" d="m85.65,89.42c-.45,1.53-1.16,3.12-2.04,4.71h0c-.87,1.02-3.4,4.06-8.24,4.15,3.23-2.03,5.02-8.68,8.19-14.1.5-.86,1.1-1.59,1.77-2.2.87,2.15.8,3.87,1.03,3.66.06-.05.12-.12.19-.18-.21,1.28-.49,2.61-.89,3.96Z"/>
  <path class="cls-3" d="m61.71,87.64h0c-.95.5-2.32,2.08-3.75,2.79-2.69,1.35-7.34,1.94-9.15,1.73-1.8-.19.37-3.33.37-3.33l-1.89-2.18c-.44-.5-.39-1.27.11-1.7l.39-.33c.39-.34.51-.88.33-1.35l-1.18-2.97c-.23-.58.01-1.22.56-1.51l1.47-.78c.46-.25.71-.78.62-1.29l-.33-1.64c-.16-.77.47-1.48,1.26-1.43h.13c.72.05,1.31-.54,1.28-1.25l-.1-2.22,2.34.41.04-1.62c.03-.95,1.09-1.5,1.87-.97,1.68,1.16,4.07,3.05,5.13,5.12.87,1.7,1.45,4.58,1.97,6.25.04.13.21-.1.54-.53-.54,1.31-1.02,2.75-1.39,4.26-.33,1.38-.52,2.91-.59,4.52Z"/>
  <path class="cls-3" d="m98.84,93.9c-.27.16-.42.47-.38.79l.29,2.22c.05.44-.26.84-.69.89l-.97.12c-.4.06-.7.41-.7.82l.02,1.26c0,.42-.3.77-.7.82l-1.74.22c-.31.04-.56.25-.66.55l-.74,2.38c-.17.52-.77.73-1.21.43-1.57-1.07-4.75-3.45-5.79-5.86-.7-1.61-1.23-3.8-1.61-4.71-.02-.07-.14.06-.35.31.88-1.59,1.59-3.18,2.04-4.71.4-1.34.68-2.68.89-3.96,1.13-1.12,2.53-2.91,3.22-3.35,1.46-.9,4.82-1.76,6.9-1.59,1.25.1,3.1.58,4.37.95.62.19.77.99.28,1.39l-2.6,2.11,1.72.89c.4.2.55.69.34,1.09l-.89,1.64c-.14.26-.13.57.02.81l1.31,2.1c.23.38.12.87-.26,1.11l-2.11,1.29Z"/>
  <g>
    <line class="cls-10" x1="46.69" y1="13.93" x2="140.9" y2="112.39"/>
    <line class="cls-10" x1="140.9" y1="13.93" x2="46.69" y2="112.39"/>
  </g>
  <rect class="cls-9" x="-1494.27" y="-1383.49" width="3385.57" height="2571.67"/>
</svg>