<?xml version="1.0" encoding="UTF-8"?>
<svg id="Calque_1" data-name="Calque 1" xmlns="http://www.w3.org/2000/svg" viewBox="0 0 200 128">
  <defs>
    <style>
      .cls-1, .cls-2, .cls-3, .cls-4, .cls-5, .cls-6 {
        stroke-linecap: round;
        stroke-linejoin: round;
      }

      .cls-1, .cls-2, .cls-3, .cls-5 {
        stroke: #000;
      }

      .cls-1, .cls-3, .cls-4, .cls-6 {
        fill: none;
      }

      .cls-2 {
        fill: #d6d6d6;
        stroke-width: 2px;
      }

      .cls-3 {
        stroke-width: 2.13px;
      }

      .cls-4 {
        stroke: #fff;
        stroke-width: 8px;
      }

      .cls-5 {
        fill: #f3d587;
        stroke-width: 1.42px;
      }

      .cls-6 {
        stroke: #ff6d75;
        stroke-width: 3px;
      }
    </style>
  </defs>
  <polygon class="cls-3" points="26.57 81.88 184.95 81.95 184.61 64.48 26.23 64.99 26.57 81.88"/>
  <polygon class="cls-5" points="134.93 81.91 184.95 81.95 184.61 64.48 134.6 65.02 134.93 81.91"/>
  <path class="cls-2" d="m26.23,64.99s-3.63-1.47-5.78-.58c-2.15.89-1.36,5.5-3.03,6.26-1.67.76-3.34,2.01-1.7,6.67.77,2.18,1.86,1.04,3.1,2.46,1.24,1.42,2.22,2.24,3.78,2.21,1.57-.03,3.96-.13,3.96-.13l-.33-16.89Z"/>
  <g>
    <line class="cls-1" x1="140.68" y1="73.46" x2="142.31" y2="71.56"/>
    <line class="cls-1" x1="146.85" y1="77.5" x2="148.48" y2="75.59"/>
    <line class="cls-1" x1="154.36" y1="72.23" x2="155.99" y2="70.33"/>
    <line class="cls-1" x1="160.69" y1="77.2" x2="162.32" y2="75.3"/>
    <line class="cls-1" x1="168.9" y1="71.92" x2="170.52" y2="70.01"/>
    <line class="cls-1" x1="175.44" y1="76.88" x2="177.07" y2="74.98"/>
  </g>
  <path class="cls-1" d="m25.21,55.8c-.09-4.48,1.35-8.27,4.57-11.37,1.34-1.29,2.75-2.6,3.46-4.31,1.91-4.57-4.6-9.42-7.82-5.17-1.35,1.78-1.59,4.51-.09,6.16"/>
  <path class="cls-1" d="m21.26,48.94c.62-1.94.36-4.06-.25-6.01-.61-1.94-1.55-3.76-2.31-5.65-1.12-2.77-1.87-5.8-1.32-8.74.55-2.94,2.65-5.72,5.57-6.37,1.05-.23,2.2-.16,3.1.43,1.34.88,1.76,2.83,1.08,4.29-.68,1.46-2.26,2.38-3.86,2.5"/>
  <g>
    <line class="cls-6" x1="52.89" y1="23.84" x2="147.11" y2="122.3"/>
    <line class="cls-6" x1="147.11" y1="23.84" x2="52.89" y2="122.3"/>
  </g>
  <rect class="cls-4" x="-995.28" y="-5192.27" width="6467.34" height="6437.3"/>
</svg>