<?xml version="1.0" encoding="UTF-8"?>
<svg id="Calque_1" data-name="Calque 1" xmlns="http://www.w3.org/2000/svg" viewBox="0 0 128 128">
  <defs>
    <style>
      .cls-1, .cls-2, .cls-3, .cls-4, .cls-5 {
        stroke: #000;
        stroke-miterlimit: 10;
      }

      .cls-1, .cls-3, .cls-4, .cls-6, .cls-5, .cls-7 {
        fill: none;
      }

      .cls-1, .cls-6, .cls-7 {
        stroke-linecap: round;
      }

      .cls-2 {
        fill: #b4eac3;
      }

      .cls-3 {
        stroke-width: .79px;
      }

      .cls-4 {
        stroke-width: 2px;
      }

      .cls-6 {
        stroke: #fff;
        stroke-width: 8px;
      }

      .cls-6, .cls-7 {
        stroke-linejoin: round;
      }

      .cls-7 {
        stroke: #ff6d75;
        stroke-width: 3px;
      }
    </style>
  </defs>
  <path class="cls-2" d="m45.04,35.67c-4.24.13-9.03-3.75-9.03-3.75,0,0,.45-3.09,3.64-5.16,3.61-2.35,29.9-3.63,31.46-3.44,4.74.59,5.83,4.15,7.46,5.29-.55,1.01-6.96,2.38-16.71,3.2-4.01.34-8.17.06-13.14.72-3.31.44-3.68,3.14-3.68,3.14Z"/>
  <path class="cls-5" d="m74.73,62.56c-5.34-.14-13.15,1.21-22.7,2.48-4.5.6-16.18,2.93-25.92,4.93"/>
  <path class="cls-5" d="m27.71,63.23c10.35-1.91,23.05-4.57,29.21-5.26,10.68-1.19,19.43-2.52,24.47-.6.73.28,1.9.82,3.39,1.56"/>
  <g>
    <line class="cls-7" x1="10.04" y1="14.34" x2="117.96" y2="112.8"/>
    <line class="cls-7" x1="117.96" y1="14.34" x2="10.04" y2="112.8"/>
  </g>
  <path class="cls-5" d="m41.13,112.71c-.44.17-1.76-.37-1.76-.37,0-1.18-.59-2.2-1.45-2.7l3.2.34s0-.05.01,0c.06.37.4,2.59-.01,2.74Z"/>
  <path class="cls-5" d="m77.7,64.81c0,.08-.01.16-.03.23h0s0,.02,0,.02c-.07.4-.22.76-.43,1.07-.43.65-1.11,1.09-1.89,1.16-.08.01-.16.02-.24.02-1.45,0-2.62-1.26-2.62-2.82,0-.68.23-1.3.6-1.79.53.02,1.05.04,1.56.09v.15l3.06,1.87Z"/>
  <path class="cls-5" d="m122.16,93.71c0,1.12-.86,2.03-1.92,2.03-.8,0-1.48-.51-1.77-1.23,1.31-.69,2.43-1.35,3.34-1.97.23.33.36.74.36,1.18Z"/>
  <path class="cls-5" d="m71.99,23.52s-3.09,4.55-2.1,7.41"/>
  <path class="cls-5" d="m41.35,26.19s3.51,2.47,2.82,9.29"/>
  <path class="cls-5" d="m94.47,64.03c-2.68-1.45-5.19-2.79-7.32-3.89l-1.42,2.06-1.66,2.4,5.03-.55.15,4.35c3.01,1.85,6.39,4.13,9.69,6.43l-4.46-10.8Z"/>
  <path class="cls-5" d="m103.74,83.01c.64-.27.96-.99.74-1.64-.01-.02-.02-.05-.03-.08l-1.48-3.59-4.81-11.65c2.29,1.27,4.63,2.58,6.89,3.86,6.19,3.52,11.77,6.84,14.16,8.53,6.08,4.3,6.47,10.49,4.45,12.6-.44.46-1.06.96-1.84,1.5-.91.62-2.03,1.28-3.34,1.97-8.59,4.51-25.05,10.12-40.19,12.55-14.29,2.29-27.53,3.62-37.13,2.92,0-.03-.01,0-.01,0h0s-.23-.02-.23-.02l-2.97-.31h0c-.57-.08-1.13-.16-1.67-.26h-.02c-1.44-.26-2.76-.59-3.92-1-9.05-3.11-20.02-17.05-24.91-24.17-4.89-7.12-5.49-14.53,4.3-18.09.62-.23,1.56-.49,2.74-.79,1.34-.34,2.99-.7,4.88-1.1"/>
  <path class="cls-5" d="m11.06,67.03s-1.32,2.06-.57,4.73c.56,2,3.1,6.02,4.35,7.91.04.06.08.11.11.17.2.3.36.54.45.68.03.05.07.09.08.12,1.8,2.8,4.02,5.89,6.46,8.76.03.03.05.08.09.12,3.76,4.37,8.02,8.18,12.18,9.52.01,0,.02,0,.03.01.35.11.69.21,1.04.28,10.82,2.37,33.8-2.67,37.21-1.04,3.02,1.44,7.3.62,12.51-.35,5.83-1.08,8.4-2.03,9.29-3.51.89-1.49,4.08-2.25,7.86-3.56,1.34-.46,7.38-2.07,10.96-3.45"/>
  <path class="cls-3" d="m37.93,109.64h0c-.57-.08-1.13-.16-1.67-.26h-.02c-1.2.28-2.1,1.5-2.1,2.96,0,1.66,1.18,3.01,2.62,3.01s2.62-1.35,2.62-3.01c0-1.18-.59-2.2-1.45-2.7Zm-2.05,3.44c-.36,0-.65-.36-.65-.8s.29-.79.65-.79.64.35.64.79-.29.8-.64.8Z"/>
  <path class="cls-3" d="m36.52,112.29c0,.44-.29.8-.64.8s-.65-.36-.65-.8.29-.79.65-.79.64.35.64.79Z"/>
  <path d="m36.52,112.29c0,.44-.29.8-.64.8s-.65-.36-.65-.8.29-.79.65-.79.64.35.64.79Z"/>
  <polyline class="cls-5" points="89.1 64.05 89.24 68.39 89.24 68.42 84.13 68.72 84.07 64.6"/>
  <line class="cls-5" x1="84.13" y1="68.72" x2="82.08" y2="67.47"/>
  <line class="cls-5" x1="85.72" y1="62.2" x2="89.1" y2="64.05"/>
  <line class="cls-4" x1="77.24" y1="66.13" x2="77.08" y2="66.05"/>
  <path class="cls-5" d="m87.14,60.14l-1.42,2.06-2.11,3.05-1.53,2.22-.68,1-.91,1.32c-.25.37-.67.57-1.08.57-.25,0-.52-.08-.74-.23-.6-.42-.75-1.24-.34-1.84l5.07-7.37,1.37-1.99,1.86-2.7s.08.07.17.15c.86.77,1.99,1.17,1.99,1.17.25-.09-1.64,2.59-1.64,2.59Z"/>
  <path class="cls-5" d="m98.52,43.63h0s-4.72,6.85-4.72,6.85c-.07.05-.15.13-.25.23-.3.3-1.28,1.12-1.28,1.12h0s-.98-2.35-.98-2.35l2.65-3.84c1.78-.61,3.31-1.27,4.57-2Z"/>
  <path class="cls-5" d="m92.27,51.83c-.14.14-.28.28-.43.41-.06.06-.13.12-.2.17-.17.14-.4.31-.53.41-.06.04-.1.08-.1.08-.18.09-.35.12-.48.09-.48-.11-.85-.63-1.07-1.07h0s-.28-.68-.28-.68l-.31-.73-1.3-3.14c.9-.21,1.76-.41,2.59-.63l1.13,2.73.98,2.36Z"/>
  <line class="cls-5" x1="81.9" y1="63.01" x2="74.71" y2="58.93"/>
  <path class="cls-5" d="m103.74,83.01c-.17.07-.34.1-.5.1-.52,0-1.01-.31-1.22-.81l-3.08-7.47-4.46-10.8-2.81-6.8c.73-1.32,1.96-1.12,2.43-.99h0l4.05,9.81,4.81,11.65,1.48,3.59s.02.06.03.08c.22.65-.1,1.37-.74,1.64Z"/>
  <path class="cls-1" d="m94.28,56.3s-.07-.03-.19-.07h0c-.47-.13-1.71-.33-2.43.99-.07.12-.03.4-.03.4,0,0-2.59-.17-2.83-.08,0,0-1.13-.4-1.99-1.17-.09-.08-.14-.11-.17-.15-.06-.05-.08-.09-.21-.26,0,0,.5-3.83,2.43-5.52,0,0,.43,1.12.61,1.46h0c.23.44.5,1.07,1.07,1.07.24,0,.46-.1.59-.17.06-.03.1-.06.11-.07.14-.1.28-.22.42-.35.07-.05.13-.11.2-.17.15-.13.29-.27.43-.41.4-.37.93-.83,1.28-1.12.21-.18.36-.29.36-.29.79.29,1.24,2.8.37,5.89Z"/>
  <path class="cls-5" d="m102.22,40.1c-.64,1.33-1.9,2.49-3.69,3.52h0s0,0,0,0c-1.26.73-2.8,1.39-4.57,2-1.16.39-2.42.76-3.78,1.12-.82.22-1.69.42-2.59.63h0c-2.14.48-4.45.92-6.94,1.33-11.56,1.93-33.21,1.04-39.14,0-.12-.02-.24-.04-.36-.07h0c.1-.24.14-.51.07-.79-.16-.71-.87-1.15-1.58-.99-.09.02-.81.19-1.86.6h0c-2.49-1.43-2.9-3.42-3.22-4.23-.44-1.11-10.16-3.93-11.57-4.53-.69-.29-1.04-.81-1.21-1.53.17-.09.28-.13.3-.14.68-.23,1.05-.98.82-1.66-.18-.54-.69-.89-1.24-.9,0-.02,0-.03,0-.05.07-2.33.28-3.46,1.13-4.16,1.01-.84,4.47-.86,5.18-.85-.21,1.3.21,2.51,1.53,3.07,1.04.45,2.3.08,3.86-.37,1.56-.44,2.51-.08,4.89,1.41,2.14,1.33,4.87,1.95,6.8,2.16-.08.59-.06,1.25.02,1.99.3,2.8,8.6,3.26,16.24,3.19,11.42-.11,28.77-4.01,30.25-5.26.04-.04.08-.08.12-.11.03-.03.05-.05.08-.09.02-.02.03-.04.05-.06.89-1.09.89-3.3.47-4.69,1.38-.42,3.38-.77,4.99.01,2.96,1.44,6.97,5.31,4.97,9.46Z"/>
  <path class="cls-5" d="m23.2,60.58c-.61,0-1.28.04-1.94.13-.27.04-.5.12-.7.24-1.2-3.84-2.14-6.82-2.55-8.06l-.07-.2c-1.76-5.28-2.92-8.77-1.51-12.81,1.48-4.22,4.65-5.32,4.78-5.36.14-.05.29-.07.43-.07.55,0,1.06.36,1.24.9.23.69-.14,1.43-.82,1.66-.03.01-.14.05-.3.14-.62.33-2.03,1.3-2.83,3.6-1.12,3.18-.18,5.99,1.52,11.1l.07.21c.43,1.29,1.43,4.46,2.69,8.51Z"/>
  <path class="cls-5" d="m57.66,4.89c-9.93-.3-24.31,2.37-28.47,8.45-4.15,6.08-.74,14.53-.74,14.53-.24.5-.42,1.02-.49,1.52-.21,1.3.21,2.51,1.53,3.07,1.04.45,2.3.08,3.86-.37,1.56-.44,2.51-.08,4.89,1.41,2.14,1.33,4.87,1.95,6.8,2.16.05-.41.14-.79.29-1.13.44-1,1.35-1.67,2.99-2,2.96-.59,6.81-.46,9.27-.52,5.97-.13,10.57-.64,14.13-1.31,9.72-1.83,11.67-4.87,12.49-4.76-3.41-17.79-16.61-20.76-26.54-21.06Z"/>
  <path class="cls-5" d="m92.21,30.37c-.39.12-.53.23-.95.61,0,0-.01,0-.02,0-5.44,5.05-24.46,6.46-32.4,6.23-5.04-.15-8.47-.85-10.63-1.51-1.67-.51-2.59-.99-2.89-1.17.44-1,1.35-1.67,2.99-2,2.96-.59,6.81-.46,9.27-.52,5.97-.13,10.57-.64,14.13-1.31,9.72-1.83,11.67-4.87,12.49-4.76,1.11.15,6.52,2.74,7.48,3.63.23.21.52.79.52.79Z"/>
  <path class="cls-5" d="m91.79,35.32s-.03.04-.05.06c-.03.03-.05.06-.08.09-.04.04-.08.08-.12.11-1.48,1.26-18.83,5.15-30.25,5.26-7.64.08-15.94-.38-16.24-3.19-.08-.74-.09-1.4-.02-1.99.05-.41.14-.79.29-1.13.3.18,1.22.66,2.89,1.17,2.16.66,5.59,1.36,10.63,1.51,7.93.23,26.95-1.18,32.4-6.23,0,0,.01,0,.02,0,.27-.11.49-.46.88-.58.43,1.39.52,3.79-.35,4.92Z"/>
  <path class="cls-5" d="m41.13,48.63c-.15.38-.49.69-.92.79-.12.03-6.43,1.58-9.21,7.02-.98,1.92-2.03,4-3.08,6.11-.22.44-.43.88-.65,1.32-.29-.09-.99-.35-1.43-.93-.25-.33-.42-.76-.37-1.34h0c1.08-2.2,2.17-4.37,3.19-6.36,2.35-4.61,6.63-6.85,9.09-7.79h0c1.06-.41,1.77-.58,1.86-.6.71-.16,1.41.28,1.58.99.07.28.03.55-.07.79Z"/>
  <path class="cls-5" d="m23.71,71.11c-2.42,4.92-4.22,8.66-4.25,8.74-.23.47-.7.74-1.19.74-.14,0-.28-.02-.42-.07h.12s-.1-3.45-.1-3.45c.66-1.37,1.69-3.49,2.92-6,.28-.57.57-1.16.87-1.77.44.15.95.25,1.52.3,0,0,.23.54.34.89.06.2.12.41.19.61Z"/>
  <path class="cls-5" d="m33.71,94.83l-3.75-3.39c-1.42-4.62-3.91-12.7-6.26-20.32-.06-.2-.12-.41-.19-.61-.11-.35-.22-.71-.33-1.06h0c.04-.44.32-1.65,2-1.41.11.01.22.08.35.11.18.61.37,1.21.56,1.83,3.58,11.57,7.49,24.31,7.56,24.53.03.11.05.22.05.33Z"/>
  <path class="cls-4" d="m45.32,34.54c-.08-.04-.12-.07-.12-.07"/>
  <path class="cls-5" d="m50.84,24.61s2.67,3.36,2.47,7.31"/>
  <path class="cls-1" d="m27.41,63.9c-.33,2.7-1.63,4.3-1.63,4.3-.08-.02-.16-.04-.24-.06-.12-.03-.3-.13-.41-.14-1.68-.23-1.9,1-1.94,1.44h0c-.01.11-.01.17-.01.17-.57-.05-1.08-.15-1.52-.3-1.54-.5-2.37-1.57-2.37-3.07,0-.58-.02-1.29.02-2,.07-1.35.32-2.72,1.25-3.27h0c.2-.13.43-.21.7-.25.66-.09,1.33-.12,1.94-.13,1.39-.01,2.63.13,2.63.13-.12.33-.35.62-.36.88h0c-.05.58.12,1.01.37,1.34.44.58,1.14.83,1.43.93.09.02.14.03.14.03Z"/>
  <path class="cls-5" d="m38.91,99.54s-2.04.21-4.68-.48c-.01,0-.02-.01-.03-.01-4.16-1.34-8.42-5.15-12.18-9.52-.03-.04-.06-.09-.09-.12-.15-.22-.23-.34-.23-.34l5.53-.1,2.73,2.48,3.75,3.39,5.19,4.71Z"/>
  <path class="cls-5" d="m17.97,80.51h-.12s-.02.01-.02.01l-2.33.16s-.01-.01-.03-.04c-.02-.03-.05-.07-.08-.12-.09-.14-4.35-6.76-4.91-8.76-.74-2.67.57-4.73.57-4.73l6.79,9.28.02.76.1,3.44Z"/>
  <line class="cls-5" x1="17.85" y1="76.31" x2="13.18" y2="76.7"/>
  <path class="cls-5" d="m62.88,23.92s1.73,3.11,1.24,7.66"/>
  <path class="cls-5" d="m118.46,83.6c.67-1.24.09-2.47-1.26-3.69-2.21-1.98-10.04-6.65-11.12-7.29l-4.23,2.15"/>
  <path class="cls-5" d="m101.84,74.77l14.59,10.69.22-.14s-.23.15-.22.14c0,0,1.71-1.29,2.02-1.85,0,0,0-.01,0-.02"/>
  <path class="cls-5" d="m104.29,80.9l8.95,6.45c2.35-1.31,3.38-1.99,3.38-1.99"/>
  <polygon class="cls-5" points="83.4 60.93 81.14 64.21 79.89 66.02 79.83 66.1 77.72 64.82 77.7 64.81 74.64 62.94 74.64 62.79 74.66 61.72 74.71 58.94 79.09 58.56 83.4 60.93"/>
  <rect class="cls-6" x="-1114.25" y="-443.73" width="2244.45" height="5948.74"/>
</svg>