<?xml version="1.0" encoding="UTF-8"?>
<svg id="Calque_1" data-name="Calque 1" xmlns="http://www.w3.org/2000/svg" viewBox="0 0 128 128">
  <defs>
    <style>
      .cls-1, .cls-2 {
        stroke: #000;
      }

      .cls-1, .cls-2, .cls-3, .cls-4 {
        fill: none;
        stroke-linecap: round;
        stroke-linejoin: round;
      }

      .cls-2 {
        stroke-width: 2px;
      }

      .cls-3 {
        stroke: #fff;
        stroke-width: 8px;
      }

      .cls-4 {
        stroke: #ff6d75;
        stroke-width: 3px;
      }
    </style>
  </defs>
  <g>
    <path class="cls-2" d="m41.41,65.83s-33.34-12.62-26.77-26.86c7.98-17.3,44.5,1.16,44.5,1.16l-2.55,2.84-2.65,2.95s-24.14-11.45-28.42-4.24c-3.65,6.13,19.98,16.6,19.98,16.6l-4.09,7.55Z"/>
    <path class="cls-2" d="m84.29,59.64c6.46-13.74,7.29-26.13,1.19-30.28-7.8-5.31-23.97,4.86-36.12,22.71-12.15,17.85-15.67,36.62-7.87,41.93,6.6,4.49,19.21-2.11,30.3-15.08"/>
    <path class="cls-1" d="m84.33,59.65c6.06-12.68,7.18-23.83,2.02-27.35-6.71-4.57-21.51,5.48-33.05,22.43-11.54,16.96-15.45,34.41-8.74,38.98,5.63,3.83,16.94-2.61,27.25-14.78"/>
    <path class="cls-2" d="m72.53,54.3c-.99-.99-5.97,3.87-6.59,4.61-2.89,3.45-4.14,7.79-3.72,12.25,0-.1,3.35.78,4.91,1.55,5.14,2.53,4.75,9.18,7.05,13.78,2.62,5.24,5.81,8.24,10.21,10.51,7.55,3.9,17.38,2,23.66-3.72,3.35-3.05,5.81-7.11,6.73-11.55,1.27-6.05-.47-12.66-4.54-17.31-4.08-4.65-10.4-7.23-16.57-6.76-4.11.31-8.32,2.43-12.45,2.2-3.57-.2-6.31-3.16-8.69-5.56Z"/>
    <path class="cls-1" d="m90.55,64.94s4.76-.77,8.75,1.21c3.99,1.98,7.05,4.76,7.74,6.29"/>
    <path class="cls-1" d="m76.39,47.39c-1.02-.54-.94-2.69.17-4.82,1.12-2.12,2.85-3.41,3.87-2.87.51.27.75.94.71,1.81"/>
    <path class="cls-1" d="m50.45,84.73c-1.02-.54-.94-2.69.17-4.82,1.12-2.12,2.85-3.41,3.87-2.87.51.27.75.94.71,1.81"/>
  </g>
  <g>
    <line class="cls-4" x1="17.37" y1="14.27" x2="111.59" y2="112.73"/>
    <line class="cls-4" x1="111.59" y1="14.27" x2="17.37" y2="112.73"/>
  </g>
  <rect class="cls-3" x="-2073.53" y="-1884.35" width="6467.34" height="6437.3"/>
</svg>