<?xml version="1.0" encoding="UTF-8"?>
<svg id="Calque_1" data-name="Calque 1" xmlns="http://www.w3.org/2000/svg" viewBox="0 0 260 128">
  <defs>
    <style>
      .cls-1, .cls-2 {
        stroke: #1a2e35;
      }

      .cls-1, .cls-2, .cls-3, .cls-4 {
        stroke-linecap: round;
        stroke-linejoin: round;
      }

      .cls-1, .cls-5 {
        fill: #fff;
      }

      .cls-2, .cls-3, .cls-4, .cls-6 {
        fill: none;
      }

      .cls-3 {
        stroke: #ff6d75;
        stroke-width: 2px;
      }

      .cls-5, .cls-6 {
        stroke: #000;
        stroke-miterlimit: 10;
      }

      .cls-4 {
        stroke: #fff;
        stroke-width: 8px;
      }
    </style>
  </defs>
  <polygon class="cls-2" points="80.59 39.9 80.44 40.55 74.22 42.92 74.23 42.89 51.64 51.5 51.66 51.52 50.79 51.85 40.66 42.16 40.8 41.52 40.15 41.06 40.33 40.28 39.68 39.82 39.86 39.05 39.21 38.58 39.39 37.81 38.74 37.35 38.91 36.57 38.26 36.11 38.44 35.33 37.79 34.87 37.97 34.09 37.32 33.63 37.5 32.86 36.85 32.39 37.03 31.62 36.38 31.16 36.55 30.38 35.9 29.92 36.08 29.14 35.43 28.68 35.61 27.9 34.96 27.44 35.14 26.67 34.49 26.21 34.67 25.43 34.02 24.97 34.2 24.19 33.55 23.73 33.72 22.96 33.08 22.49 33.25 21.72 32.6 21.26 32.78 20.48 32.13 20.02 32.28 19.38 38.5 17.01 38.49 17.03 61.08 8.42 61.06 8.41 67.25 6.05 67.84 6.47 67.67 7.25 68.32 7.71 68.14 8.49 68.79 8.95 68.61 9.73 69.26 10.19 69.08 10.96 69.73 11.43 69.56 12.2 70.21 12.67 70.03 13.44 70.68 13.91 70.5 14.68 71.15 15.14 70.97 15.92 71.62 16.38 71.45 17.16 72.1 17.62 71.92 18.4 72.57 18.86 72.39 19.64 73.04 20.1 72.86 20.88 73.51 21.34 73.33 22.11 73.98 22.58 73.81 23.35 74.46 23.81 74.28 24.59 74.93 25.05 74.75 25.83 75.4 26.29 75.22 27.07 75.87 27.53 75.69 28.3 76.34 28.77 76.17 29.54 76.82 30 76.64 30.78 77.29 31.24 77.11 32.02 77.76 32.48 77.58 33.25 78.23 33.72 78.05 34.49 78.7 34.95 78.52 35.73 79.17 36.19 79 36.97 79.65 37.43 79.47 38.2 80.12 38.66 79.94 39.44 80.59 39.9"/>
  <rect class="cls-2" x="41.83" y="15.4" width="28.75" height="29.23" transform="translate(64.24 -33.19) rotate(69.13)"/>
  <path class="cls-2" d="m55.28,19.87c1.28-.12,2.54.01,3.74.36"/>
  <path class="cls-2" d="m46.19,31.88c-.54-2.91.22-5.86,1.97-8.12"/>
  <path class="cls-2" d="m56.37,40.21c-3.01.05-5.91-1.25-7.88-3.53"/>
  <path class="cls-2" d="m64.44,24.01c.52.72.96,1.51,1.29,2.38,2,5.26-.63,11.15-5.89,13.15-1.14.43-2.31.65-3.47.67"/>
  <path class="cls-2" d="m65.7,13.89s-.98,1.25-1.81,2.15"/>
  <path class="cls-2" d="m65.24,17.28s-1.17,1.91-1.54,2.48"/>
  <line class="cls-2" x1="48.82" y1="43.55" x2="46.84" y2="46.78"/>
  <path class="cls-2" d="m48.49,38.85s-.83.9-1.76,2.28"/>
  <path class="cls-2" d="m38.2,23.35s2.11.95,3.3,1.37"/>
  <path class="cls-2" d="m73.74,35.36s-2.88-.66-4.19-1.03"/>
  <path class="cls-2" d="m71.54,33.42s-2.53-.5-3.44-.59"/>
  <path class="cls-6" d="m93.66,93.67s0,.06,0,.09v.14s0,.04-.01.05v.15s0,.09-.01.13v.02c-.01.05-.01.1-.02.15v.02s-.02.09-.03.13v.05s-.01.07-.02.11c0,.03,0,.04,0,.06-.01.04-.02.07-.03.11,0,.02,0,.03-.01.06s-.02.07-.02.1c-.01.02-.02.04-.02.07-.01.03-.02.07-.03.11,0,.01-.01.04-.01.05-.02.04-.02.08-.04.12,0,.02-.01.04-.02.06,0,.04-.02.08-.03.13,0,.01-.01.03-.02.05-.02.04-.03.09-.04.14-.01.01-.02.02-.02.03-.04.12-.08.25-.13.37-.01.01-.01.03-.02.04-.02.05-.04.1-.06.15-.01.02-.02.04-.02.06-.02.04-.04.09-.06.13,0,.02-.02.04-.02.07-.02.04-.04.08-.06.12-.01.02-.03.05-.03.07-.02.05-.04.09-.06.13-.01.02-.02.05-.03.07-.02.04-.04.09-.07.13l-.03.07s-.04.09-.07.13c0,.03-.02.05-.03.07-.02.05-.05.1-.08.15,0,.02-.01.04-.02.05-.03.06-.07.13-.1.2h-.01c-.03.07-.08.14-.11.21h0c-.04.08-.07.15-.11.21l-.03.06s-.06.1-.09.15c-.01.03-.03.05-.05.07-.02.05-.05.1-.08.14-.01.03-.03.05-.04.08-.03.04-.06.09-.09.13-.02.03-.03.06-.05.09-.03.04-.05.09-.08.13-.02.03-.04.05-.05.08-.03.05-.07.09-.1.14-.01.03-.03.05-.05.08-.03.04-.06.1-.09.15-.02.02-.03.04-.05.06-.04.06-.07.12-.11.17-.01.02-.03.04-.04.05-.1.16-.2.3-.31.45-.01.02-.02.04-.04.06-.03.04-.08.1-.12.16-.02.02-.04.05-.06.07-.03.05-.06.1-.1.15-.02.03-.04.06-.06.09-.04.05-.07.09-.11.14-.02.02-.04.05-.07.09-.03.04-.07.09-.1.13-.02.03-.05.06-.07.09-.03.05-.07.09-.11.14-.02.03-.04.06-.07.09-.04.04-.07.09-.11.13-.02.03-.05.06-.06.09-.05.05-.09.1-.13.15-.02.03-.04.05-.06.08-.05.06-.1.12-.15.17-.01.02-.03.04-.04.05-.06.08-.12.15-.19.23-.02.02-.03.04-.05.05-.04.06-.09.12-.14.18-.03.03-.05.05-.07.08-.05.04-.09.1-.13.14-.03.03-.05.06-.08.09-.04.05-.08.09-.12.14l-.09.09c-.04.05-.08.09-.12.13-.03.04-.06.07-.09.1-.04.04-.08.09-.12.13-.03.03-.06.07-.09.1-.04.04-.08.09-.12.13-.03.03-.06.07-.09.09-.04.05-.08.1-.13.14l-.09.09s-.09.1-.15.15c-.02.03-.04.05-.07.08-.07.07-.14.15-.22.22-1.25,1.25-2.52,2.35-3.77,3.27-.39.29-.77.57-1.15.82-.15.1-.3.2-.45.29-.3.19-.59.37-.88.54-.15.08-.29.16-.43.24-.43.23-.85.43-1.25.6-.19.08-.39.16-.58.23l-.19.07c-.13.04-.25.08-.37.12-.12.03-.24.06-.35.09-.06.02-.12.03-.18.05-.11.02-.22.04-.33.06-.56.09-1.06.09-1.47-.03-.16,0-.32-.06-.45-.18-.12-.07-.23-.16-.34-.26-.03-.03-.07-.07-.1-.12-.01,0-.01-.01-.02-.02-.03-.04-.06-.09-.09-.13l-3.48-3.33L21,58.66c-4.15-3.98-5.03-10.15-2.53-15.03l-.12-.11c-.4-.39-.69-.84-.88-1.33-.48-1.27-.23-2.78.77-3.83,1.38-1.44,3.7-1.5,5.15-.11l.12.11c4.77-2.7,10.97-2.11,15.12,1.86l2.03,1.94,10.13,9.69,38.49,36.83,3.56,3.41s.03.01.05.03c.09.05.16.12.24.19.03.04.07.07.1.12l.02.02c.04.05.06.09.1.13h0s.05.09.07.14c.01.01.01.02.02.03.02.05.04.1.06.15.03.07.06.15.07.23l.02.03s.01.05.01.08c0,.02.01.03.01.05.01.02.01.05.01.07.01.02.01.04.01.05.01.03.01.05.01.08,0,.02,0,.03.01.05v.09s.01.03.01.04Z"/>
  <path class="cls-6" d="m81.4,113.08c2.64-1.28,5.57-3.46,8.25-6.14,2.44-2.44,4.43-5.02,5.75-7.48,1.67-3.09,2.11-5.71,1.33-7.78h0c-.26-.69-.65-1.29-1.16-1.8-.82-.82-2.3-1.74-4.71-1.5-.5.05-1.03.15-1.58.3l3.57,3.41s.03.02.05.03c.09.06.17.12.24.19h0s.07.08.1.12c0,0,.02.02.02.03.03.04.06.08.09.13,0,0,0,0,0,0,.03.04.05.09.07.13,0,.01.01.02.02.03.02.05.04.1.06.15h0c.03.07.05.15.07.22,0,.01,0,.02,0,.04,0,.03.01.05.02.08,0,.01,0,.03,0,.05,0,.02,0,.05.01.08,0,.02,0,.03,0,.05,0,.03,0,.05,0,.08,0,.02,0,.03,0,.05,0,.03,0,.05,0,.08,0,.02,0,.04,0,.05,0,.03,0,.06,0,.08,0,.02,0,.04,0,.05,0,.03,0,.06,0,.09,0,.02,0,.03,0,.05,0,.03,0,.07,0,.1,0,.01,0,.03,0,.04,0,.04,0,.09-.01.13,0,0,0,.01,0,.02,0,.05-.01.1-.02.16,0,0,0,0,0,.01,0,.05-.01.09-.02.14,0,.01,0,.03,0,.04,0,.04-.01.08-.02.12,0,.02,0,.04-.01.05,0,.04-.01.07-.02.11,0,.02,0,.04-.01.06,0,.04-.02.07-.03.11,0,.02,0,.04-.02.06,0,.04-.02.07-.03.11,0,.02-.01.04-.02.06-.01.04-.02.08-.03.12,0,.02-.01.04-.02.06-.01.04-.03.08-.04.12,0,.02-.01.03-.02.05-.02.05-.03.1-.05.15,0,.01,0,.02-.01.03-.04.12-.09.25-.14.37,0,.01,0,.02-.01.03-.02.05-.04.1-.06.16,0,.02-.01.04-.02.06-.02.04-.04.09-.06.13,0,.02-.02.04-.03.06-.02.04-.04.09-.06.13,0,.02-.02.04-.03.07-.02.04-.04.09-.06.13-.01.02-.02.05-.03.07-.02.04-.04.09-.06.13-.01.02-.02.05-.03.07-.02.05-.05.09-.07.14-.01.02-.02.04-.03.06-.03.05-.05.1-.08.15,0,.02-.02.03-.03.05-.03.07-.07.13-.1.2,0,0,0,0,0,0-.04.07-.08.14-.12.21,0,0,0,0,0,0-.04.07-.07.13-.11.2-.01.02-.02.04-.03.06-.03.05-.06.1-.09.15-.01.02-.03.05-.04.07-.03.05-.06.09-.08.14-.02.03-.03.05-.05.08-.03.05-.06.09-.08.14-.02.03-.03.05-.05.08-.03.04-.06.09-.09.14-.02.03-.03.05-.05.08-.03.05-.06.09-.09.14-.02.03-.03.05-.05.08-.03.05-.06.1-.1.15-.02.02-.03.05-.05.07-.04.06-.07.11-.11.17-.01.02-.02.03-.04.05-.1.15-.2.3-.31.44-.01.02-.03.04-.04.05-.04.06-.08.11-.12.17-.02.03-.04.05-.05.08-.04.05-.07.1-.11.15-.02.03-.04.06-.06.08-.03.05-.07.09-.1.14-.02.03-.04.06-.07.09-.03.05-.07.09-.1.14-.02.03-.05.06-.07.09-.04.05-.07.09-.11.14-.02.03-.05.06-.07.09-.04.05-.07.09-.11.14-.02.03-.05.06-.07.09-.04.05-.08.1-.12.15-.02.03-.04.05-.06.08-.05.06-.1.12-.15.18-.01.02-.03.03-.04.05-.06.08-.13.15-.19.23-.01.02-.03.03-.04.05-.05.06-.1.12-.15.17-.02.03-.05.05-.07.08-.04.05-.09.1-.13.15-.03.03-.05.06-.08.09-.04.05-.08.09-.12.14-.03.03-.06.06-.08.09-.04.04-.08.09-.12.13-.03.03-.06.06-.09.1-.04.04-.08.09-.12.13-.03.03-.06.06-.09.1-.04.04-.08.09-.13.13-.03.03-.06.06-.09.09-.04.05-.09.09-.13.14-.03.03-.06.06-.08.09-.05.05-.1.1-.15.15-.02.02-.05.05-.07.07-.07.07-.15.15-.22.22-1.25,1.25-2.53,2.35-3.77,3.28-.39.29-.77.56-1.15.81-.15.1-.3.2-.45.29-.3.19-.59.37-.88.53-.15.08-.29.16-.43.24-.43.23-.84.43-1.24.6-.2.09-.39.16-.59.23-.07.02-.13.05-.2.07-.12.04-.24.08-.36.12-.12.04-.24.07-.36.1-.06.01-.12.03-.17.04-.11.03-.23.05-.34.06-.56.09-1.05.08-1.46-.03-.16,0-.33-.07-.46-.19-.12-.07-.23-.15-.33-.25-.04-.04-.07-.08-.1-.12,0,0-.02-.02-.02-.03-.03-.04-.06-.08-.09-.13,0,0,0,0,0,0l-3.48-3.33c-.4,1.6-.36,3.01.1,4.24.26.69.65,1.29,1.16,1.8.82.82,2.3,1.74,4.71,1.5,1.23-.12,2.61-.55,4.1-1.27Z"/>
  <g>
    <path class="cls-2" d="m178.74,49.75h69.49c2.94,0,5.33,2.39,5.33,5.33v24.93c0,2.94-2.39,5.33-5.33,5.33h-69.49c-2.94,0-5.33-2.39-5.33-5.33v-24.93c0-2.94,2.39-5.33,5.33-5.33Z" transform="translate(89.45 253.98) rotate(-73.92)"/>
    <path class="cls-2" d="m195.39,94.42c-1.19-.34-2.43.34-2.78,1.53s.34,2.43,1.53,2.78,2.43-.34,2.78-1.53c.34-1.19-.34-2.43-1.53-2.78Z"/>
    <path class="cls-2" d="m204.46,97.09c-1.19-.34-2.43.34-2.78,1.53-.34,1.19.34,2.43,1.53,2.78s2.43-.34,2.78-1.53c.34-1.19-.34-2.43-1.53-2.78Z"/>
    <path class="cls-2" d="m197.41,87.42c-1.19-.34-2.43.34-2.78,1.53s.34,2.43,1.53,2.78,2.43-.34,2.78-1.53c.34-1.19-.34-2.43-1.53-2.78Z"/>
    <path class="cls-2" d="m199.43,80.41c-1.19-.34-2.43.34-2.78,1.53s.34,2.43,1.53,2.78c1.19.34,2.43-.34,2.78-1.53.34-1.19-.34-2.43-1.53-2.78Z"/>
    <path class="cls-2" d="m201.45,73.41c-1.19-.34-2.43.34-2.78,1.53s.34,2.43,1.53,2.78c1.19.34,2.43-.34,2.78-1.53s-.34-2.43-1.53-2.78Z"/>
    <path class="cls-2" d="m203.46,66.41c-1.19-.34-2.43.34-2.78,1.53-.34,1.19.34,2.43,1.53,2.78s2.43-.34,2.78-1.53c.34-1.19-.34-2.43-1.53-2.78Z"/>
    <path class="cls-2" d="m205.48,59.41c-1.19-.34-2.43.34-2.78,1.53-.34,1.19.34,2.43,1.53,2.78s2.43-.34,2.78-1.53c.34-1.19-.34-2.43-1.53-2.78Z"/>
    <path class="cls-2" d="m207.5,52.41c-1.19-.34-2.43.34-2.78,1.53s.34,2.43,1.53,2.78,2.43-.34,2.78-1.53c.34-1.19-.34-2.43-1.53-2.78Z"/>
    <path class="cls-2" d="m209.52,45.4c-1.19-.34-2.43.34-2.78,1.53-.34,1.19.34,2.43,1.53,2.78s2.43-.34,2.78-1.53c.34-1.19-.34-2.43-1.53-2.78Z"/>
    <path class="cls-2" d="m211.54,38.4c-1.19-.34-2.43.34-2.78,1.53-.34,1.19.34,2.43,1.53,2.78s2.43-.34,2.78-1.53c.34-1.19-.34-2.43-1.53-2.78Z"/>
    <path class="cls-2" d="m213.56,31.4c-1.19-.34-2.43.34-2.78,1.53s.34,2.43,1.53,2.78c1.19.34,2.43-.34,2.78-1.53s-.34-2.43-1.53-2.78Z"/>
    <path class="cls-2" d="m212.9,99.47c-1.19-.34-2.43.34-2.78,1.53-.34,1.19.34,2.43,1.53,2.78s2.43-.34,2.78-1.53c.34-1.19-.34-2.43-1.53-2.78Z"/>
    <path class="cls-2" d="m214.91,92.46c-1.19-.34-2.43.34-2.78,1.53-.34,1.19.34,2.43,1.53,2.78s2.43-.34,2.78-1.53-.34-2.43-1.53-2.78Z"/>
    <path class="cls-2" d="m216.93,85.46c-1.19-.34-2.43.34-2.78,1.53-.34,1.19.34,2.43,1.53,2.78s2.43-.34,2.78-1.53c.34-1.19-.34-2.43-1.53-2.78Z"/>
    <path class="cls-2" d="m218.95,78.46c-1.19-.34-2.43.34-2.78,1.53-.34,1.19.34,2.43,1.53,2.78s2.43-.34,2.78-1.53-.34-2.43-1.53-2.78Z"/>
    <path class="cls-2" d="m220.97,71.46c-1.19-.34-2.43.34-2.78,1.53s.34,2.43,1.53,2.78,2.43-.34,2.78-1.53c.34-1.19-.34-2.43-1.53-2.78Z"/>
    <path class="cls-2" d="m222.99,64.45c-1.19-.34-2.43.34-2.78,1.53-.34,1.19.34,2.43,1.53,2.78s2.43-.34,2.78-1.53-.34-2.43-1.53-2.78Z"/>
    <path class="cls-2" d="m225.01,57.45c-1.19-.34-2.43.34-2.78,1.53s.34,2.43,1.53,2.78c1.19.34,2.43-.34,2.78-1.53.34-1.19-.34-2.43-1.53-2.78Z"/>
    <path class="cls-2" d="m227.03,50.45c-1.19-.34-2.43.34-2.78,1.53-.34,1.19.34,2.43,1.53,2.78,1.19.34,2.43-.34,2.78-1.53.34-1.19-.34-2.43-1.53-2.78Z"/>
    <path class="cls-2" d="m229.04,43.45c-1.19-.34-2.43.34-2.78,1.53s.34,2.43,1.53,2.78,2.43-.34,2.78-1.53c.34-1.19-.34-2.43-1.53-2.78Z"/>
    <path class="cls-2" d="m231.06,36.44c-1.19-.34-2.43.34-2.78,1.53s.34,2.43,1.53,2.78,2.43-.34,2.78-1.53-.34-2.43-1.53-2.78Z"/>
    <rect class="cls-2" x="183.02" y="63.74" width="61.94" height="3.64" rx="1.82" ry="1.82" transform="translate(91.72 253.02) rotate(-73.92)"/>
    <path class="cls-2" d="m243.2,58.41c-1.19-.34-2.43.34-2.78,1.53s.34,2.43,1.53,2.78,2.43-.34,2.78-1.53c.34-1.19-.34-2.43-1.53-2.78Z"/>
    <path class="cls-2" d="m245.46,67.14c-1.19-.34-2.43.34-2.78,1.53s.34,2.43,1.53,2.78c1.19.34,2.43-.34,2.78-1.53s-.34-2.43-1.53-2.78Z"/>
    <path class="cls-2" d="m250.12,60.86c-1.19-.34-2.43.34-2.78,1.53-.34,1.19.34,2.43,1.53,2.78s2.43-.34,2.78-1.53-.34-2.43-1.53-2.78Z"/>
  </g>
  <g>
    <line class="cls-3" x1="32.46" y1="39.47" x2="87.69" y2="97.19"/>
    <line class="cls-3" x1="87.69" y1="39.47" x2="32.46" y2="97.19"/>
  </g>
  <g>
    <line class="cls-3" x1="184.94" y1="39.47" x2="240.17" y2="97.19"/>
    <line class="cls-3" x1="240.17" y1="39.47" x2="184.94" y2="97.19"/>
  </g>
  <g>
    <g>
      <path class="cls-1" d="m161.35,31.96c-1.58-1.54-4.03-2.36-6.02-3.2-.13-.15-2.87-1.41-3.07-1.48-1.84-.56-16.64-4.97-20.63-4.57-4.53.43-6.95,6.57-7.05,6.83-.02.05-.03.09-.04.14h-.17s-.02-.09-.04-.14c-.1-.26-2.53-6.4-7.05-6.83-3.99-.39-18.79,4.02-20.63,4.57-.21.06-2.94,1.32-3.07,1.48-1.99.84-4.44,1.65-6.02,3.2-1.67,1.62-1.38,4.13,1.3,4.16,5.02.04,5.98-4.76,9.58-6.91.1-.06.19-.11.29-.17,5.99-1.72,15.82-4.35,18.34-4.1,1.28.12,2.41,1.07,3.3,2.18.29.79,1.93,5.36,2.04,6.14.12.86,0,2.83,0,2.83h3.81s-.12-2.7.37-3.93c.49-1.23,1.23-3.69,1.23-3.69l.61-1.18c.91-1.17,2.09-2.21,3.42-2.34,2.52-.24,12.35,2.38,18.34,4.1.1.06.19.11.29.17,3.59,2.16,4.56,6.96,9.58,6.91,2.69-.02,2.97-2.53,1.3-4.16Z"/>
      <polygon class="cls-1" points="127.6 38.73 121.28 38.73 121.91 35.44 126.97 35.44 127.6 38.73"/>
      <path class="cls-1" d="m126.3,93.58h.05s-.47-1.17-.12-2.34l-3.51-.12s.23,1.05-.12,2.46c0,0-1.07,1.46-1.07,2.49v4.55c0,1.68,1.36,3.04,3.04,3.04s3.04-1.36,3.04-3.04v-4.55c0-1.03-.52-1.94-1.3-2.49Zm-1.73,7.02c-.84,0-1.52-1.02-1.52-2.28s.68-2.28,1.52-2.28,1.52,1.02,1.52,2.28-.68,2.28-1.52,2.28Z"/>
      <polygon class="cls-1" points="121.28 88.07 127.6 88.07 126.97 91.36 121.91 91.36 121.28 88.07"/>
      <path class="cls-1" d="m121.62,38.48h5.89c.47,0,.85.38.85.85v48.15c0,.47-.38.85-.85.85h-5.89c-.47,0-.85-.38-.85-.85v-48.15c0-.47.38-.85.85-.85Z"/>
    </g>
    <line class="cls-5" x1="124.57" y1="100.6" x2="124.57" y2="114.95"/>
  </g>
  <g>
    <path class="cls-5" d="m155.83,50.99l24.24,44.05c.29.52-.37,1.44-1.47,2.05-1.1.61-2.23.67-2.52.15l-24.24-44.05,3.99-2.2Z"/>
    <ellipse class="cls-5" cx="153.75" cy="51.92" rx="2.27" ry="1.08" transform="translate(-5.97 80.65) rotate(-28.86)"/>
  </g>
  <g>
    <line class="cls-3" x1="102.02" y1="34.56" x2="146.87" y2="81.43"/>
    <line class="cls-3" x1="146.87" y1="34.56" x2="102.02" y2="81.43"/>
  </g>
  <g>
    <line class="cls-3" x1="150.78" y1="58.8" x2="181.21" y2="90.6"/>
    <line class="cls-3" x1="181.21" y1="58.8" x2="150.78" y2="90.6"/>
  </g>
  <rect class="cls-4" x="-222.42" y="-3004.76" width="6467.34" height="6437.3"/>
</svg>