<?xml version="1.0" encoding="UTF-8"?>
<svg id="Calque_1" data-name="Calque 1" xmlns="http://www.w3.org/2000/svg" viewBox="0 0 128 128">
  <defs>
    <style>
      .cls-1, .cls-2, .cls-3 {
        fill: #fff;
      }

      .cls-4 {
        fill: none;
        stroke: #fff;
        stroke-linecap: round;
        stroke-linejoin: round;
        stroke-width: 8px;
      }

      .cls-2, .cls-5 {
        stroke: #000;
        stroke-linejoin: bevel;
        stroke-width: 2px;
      }

      .cls-5 {
        fill: #735645;
      }

      .cls-3 {
        opacity: .9;
      }
    </style>
  </defs>
  <path class="cls-2" d="m23.55,13l62.81-8.78c2.42-.38,4.6,1.69,4.6,4.13v14.43L23.55,13Z"/>
  <path class="cls-5" d="m94.42,13H23.55v111.06h70.87c3.38,0,6.12-2.74,6.12-6.11V19.11c0-3.37-2.74-6.11-6.12-6.11Z"/>
  <g>
    <path class="cls-1" d="m47.54,86.38c0,.63-.15,1.1-.44,1.4-.3.3-.78.46-1.44.46h-.87v1.62h-1.06v-5.23h1.96c.59,0,1.05.14,1.37.41.32.28.48.72.48,1.34Zm-1.1,0c0-.29-.08-.51-.24-.64-.16-.13-.46-.2-.88-.2h-.53v1.76h.43c.39,0,.66-.03.81-.08.15-.05.26-.15.32-.27.06-.13.09-.32.09-.57Z"/>
    <path class="cls-1" d="m47.55,89.85l1.73-5.23h1.39l1.73,5.23h-1.09l-.35-1.06h-2.01l-.34,1.06h-1.06Zm1.7-1.99h1.41l-.7-2.16-.71,2.16Z"/>
    <path class="cls-1" d="m56.82,88.34c0,.52-.17.93-.52,1.2-.34.28-.85.42-1.52.42-.46,0-.87-.08-1.21-.23-.34-.15-.62-.4-.83-.74l.82-.63c.12.17.24.3.34.39.11.09.24.15.39.2.15.05.32.07.51.07.29,0,.52-.05.68-.15.16-.1.24-.25.24-.46,0-.12-.03-.21-.09-.29-.06-.08-.14-.15-.26-.2-.11-.06-.31-.12-.59-.19-.27-.07-.53-.15-.77-.22-.24-.07-.45-.17-.62-.29-.17-.12-.31-.27-.41-.45-.1-.18-.15-.4-.15-.68,0-.5.17-.88.5-1.16.34-.28.81-.42,1.44-.42.9,0,1.54.31,1.92.93l-.81.63c-.14-.22-.3-.38-.48-.48-.18-.1-.39-.14-.64-.14s-.45.04-.6.13c-.15.09-.23.23-.23.42,0,.17.08.3.24.39.16.09.44.18.84.27.22.06.44.12.66.19.22.07.41.16.58.28.17.12.31.27.41.46.1.19.16.44.16.74Z"/>
    <path class="cls-1" d="m61.46,88.34c0,.52-.17.93-.52,1.2-.34.28-.85.42-1.52.42-.46,0-.87-.08-1.21-.23-.34-.15-.62-.4-.83-.74l.82-.63c.12.17.24.3.34.39.11.09.24.15.39.2.15.05.32.07.51.07.29,0,.52-.05.68-.15.16-.1.24-.25.24-.46,0-.12-.03-.21-.09-.29-.06-.08-.14-.15-.26-.2-.11-.06-.31-.12-.59-.19-.27-.07-.53-.15-.77-.22-.24-.07-.45-.17-.62-.29-.17-.12-.31-.27-.41-.45-.1-.18-.15-.4-.15-.68,0-.5.17-.88.5-1.16.34-.28.81-.42,1.44-.42.9,0,1.54.31,1.92.93l-.81.63c-.14-.22-.3-.38-.48-.48-.18-.1-.39-.14-.64-.14s-.45.04-.6.13c-.15.09-.23.23-.23.42,0,.17.08.3.24.39.16.09.44.18.84.27.22.06.44.12.66.19.22.07.41.16.58.28.17.12.31.27.41.46.1.19.16.44.16.74Z"/>
    <path class="cls-1" d="m66.16,86.38c0,.63-.15,1.1-.44,1.4-.3.3-.78.46-1.44.46h-.87v1.62h-1.06v-5.23h1.96c.59,0,1.05.14,1.37.41.32.28.48.72.48,1.34Zm-1.1,0c0-.29-.08-.51-.24-.64-.16-.13-.46-.2-.88-.2h-.53v1.76h.43c.39,0,.66-.03.81-.08.15-.05.26-.15.32-.27.06-.13.09-.32.09-.57Z"/>
    <path class="cls-1" d="m71.28,87.24c0,.91-.19,1.59-.58,2.04-.38.45-.94.68-1.67.68-.77,0-1.34-.24-1.71-.72-.36-.48-.55-1.15-.55-2.01s.18-1.54.55-2.01c.36-.47.93-.71,1.71-.71s1.35.24,1.71.71c.36.47.54,1.14.54,2.01Zm-1.1,0c0-.62-.09-1.07-.26-1.35-.17-.28-.47-.42-.89-.42s-.71.14-.89.42c-.18.28-.26.73-.26,1.35s.09,1.07.27,1.35c.18.28.47.42.89.42s.71-.14.89-.42c.18-.28.26-.73.26-1.35Z"/>
    <path class="cls-1" d="m75.11,89.85l-1.33-1.98h-.54v1.98h-1.06v-5.23h1.9c.67,0,1.16.12,1.47.36.31.24.47.64.47,1.19,0,.45-.09.8-.28,1.06-.19.26-.45.43-.8.51l1.4,2.1h-1.22Zm-.18-3.63c0-.27-.07-.45-.2-.54-.13-.09-.36-.14-.67-.14h-.83v1.39h.78c.24,0,.42-.02.55-.07.13-.05.22-.12.28-.21.06-.1.09-.24.09-.44Z"/>
    <polygon class="cls-1" points="79.19 85.6 79.19 89.85 78.12 89.85 78.12 85.6 76.51 85.6 76.51 84.62 80.8 84.62 80.8 85.6 79.19 85.6"/>
  </g>
  <g>
    <path class="cls-3" d="m63.54,99.16c0,.83-.67,1.5-1.5,1.5s-1.5-.67-1.5-1.5.67-1.5,1.5-1.5,1.5.67,1.5,1.5Z"/>
    <path class="cls-1" d="m62.04,101.65c-1.09,0-2-.7-2.34-1.67h-3.84v3.2h12.36v-3.2h-3.84c-.34.97-1.26,1.67-2.34,1.67Z"/>
    <path class="cls-1" d="m55.86,95.13v3.2h3.84c.34-.97,1.26-1.67,2.34-1.67s2,.7,2.34,1.67h3.84v-3.2h-12.36Z"/>
  </g>
  <path class="cls-1" d="m75.74,45.74h0c-.04-.05-.75-.93-.71-.87h-.01c-6.95-7.95-19.03-7.94-25.98.01h-.01s-.75.91-.71.85h0c-5.17,6.71-5.14,16.25.05,22.91h0c.04.05.76.92.71.87h.01c6.74,7.92,19.21,7.81,25.86-.01h.01s.76-.9.71-.85h0c5.21-6.68,5.23-16.2.05-22.91Zm-11.65,28.43c1.6-1.72,4.01-4.67,5.72-8.36,1.59.73,3.05,1.69,4.37,2.92-2.63,2.99-6.16,4.92-10.09,5.44Zm-14.18-5.44c1.27-1.19,2.72-2.16,4.37-2.92,1.71,3.69,4.12,6.64,5.72,8.36-4.05-.53-7.56-2.56-10.09-5.44Zm-4.31-11.01h6.64c.08,2.52.7,4.91,1.59,7.07-1.64.76-3.3,1.84-4.63,3.07-2.31-3.01-3.49-6.58-3.6-10.15Zm3.54-11.18c1.22,1.16,2.85,2.28,4.64,3.11-.87,2.13-1.47,4.48-1.55,6.96h-6.64c.12-3.72,1.36-7.2,3.54-10.07Zm10.86-6.38c-1.62,1.74-4.06,4.72-5.77,8.47-1.57-.72-3.08-1.72-4.38-2.96,2.6-3,6.17-4.99,10.15-5.51Zm14.24,5.51c-1.32,1.25-2.83,2.24-4.38,2.96-1.72-3.74-4.16-6.73-5.77-8.47,4.06.53,7.61,2.58,10.15,5.51Zm4.24,10.94h-6.64c-.08-2.48-.68-4.83-1.55-6.96,1.66-.77,3.33-1.87,4.64-3.11,2.24,2.96,3.43,6.47,3.54,10.07Zm-3.6,11.26c-1.24-1.15-2.83-2.25-4.63-3.07.89-2.16,1.51-4.55,1.59-7.07h6.64c-.11,3.72-1.37,7.24-3.6,10.15Zm-12.29-4.83v-5.31h8.11c-.08,2.34-.67,4.58-1.52,6.62-2.02-.78-4.24-1.25-6.6-1.31Zm0-6.42v-5.18c2.37-.06,4.63-.54,6.64-1.33.82,2.01,1.39,4.21,1.47,6.51h-8.11Zm0-6.3v-10.06c1.45,1.48,4.29,4.7,6.2,8.83-1.98.77-4.06,1.17-6.2,1.24Zm-1.11,0c-2.26-.07-4.33-.51-6.2-1.24,1.91-4.13,4.75-7.34,6.2-8.83v10.06Zm0,1.11v5.18h-8.11c.08-2.3.65-4.5,1.47-6.51,2.03.79,4.27,1.26,6.64,1.33Zm0,6.29v5.31c-2.21.06-4.45.48-6.6,1.31-.85-2.04-1.44-4.28-1.52-6.62h8.11Zm0,6.42v9.93c-1.44-1.47-4.24-4.64-6.15-8.72,1.94-.74,3.98-1.15,6.15-1.22Zm1.11,0c2.23.07,4.28.5,6.15,1.22-1.91,4.07-4.71,7.24-6.15,8.72v-9.93Z"/>
  <rect class="cls-4" x="-744.36" y="-536.83" width="1509.9" height="999.05"/>
</svg>