<?xml version="1.0" encoding="UTF-8"?>
<svg id="Calque_1" data-name="Calque 1" xmlns="http://www.w3.org/2000/svg" viewBox="0 0 128 128">
  <defs>
    <style>
      .cls-1 {
        fill: #76ac75;
      }

      .cls-1, .cls-2, .cls-3, .cls-4, .cls-5 {
        stroke-miterlimit: 10;
      }

      .cls-1, .cls-2, .cls-3, .cls-4, .cls-5, .cls-6 {
        stroke: #000;
      }

      .cls-1, .cls-4 {
        stroke-width: 2px;
      }

      .cls-2 {
        fill: #ff6d75;
      }

      .cls-3 {
        fill: #9bc699;
      }

      .cls-4, .cls-7, .cls-5 {
        fill: none;
      }

      .cls-7 {
        stroke: #fff;
        stroke-width: 8px;
      }

      .cls-7, .cls-6 {
        stroke-linecap: round;
        stroke-linejoin: round;
      }
    </style>
  </defs>
  <path class="cls-1" d="m118.6,69.72c-.91,2.74-2.07,5.38-3.46,7.9-.45.81-3.7,6.47-9.43,12.01h-.01c-1.16,1.14-2.42,2.26-3.79,3.33-3.95,3.11-8.74,5.83-14.3,7.14-1.89.46-3.87.74-5.93.83-3.15.13-5.88-.23-8.37-.83-2.45-.59-4.67-1.41-6.84-2.21-2.82-1.04-26.74-10.28-32.44-33.45-.12-.47-.39-1.64-.65-3.32-.37-2.49-.69-6.12-.36-10.37.13-1.67.45-5.32,1.75-9.84h0c.64-2.26,1.54-4.73,2.77-7.29.62-1.3,1.34-2.62,2.16-3.94,1.85-3,4.22-6.01,7.26-8.83.07-.07.15-.14.22-.19,3.74-3.44,7.69-5.83,11.41-7.49,7.53-3.38,14.17-3.82,16.51-3.94,8.08-.43,14.13,1.46,15.7,1.99,2.18.72,4.21,1.6,6.08,2.58,11.72,6.13,17.53,16.42,18.76,18.7,1.33,2.45,2.4,5,3.24,7.61.45,1.42.84,2.86,1.15,4.32,1.82,8.42,1.26,17.24-1.43,25.29Z"/>
  <path class="cls-4" d="m83.69,15.83c2.4-.74,3.04-1.45,3.08-2.02.09-1.53-4.14-3.49-8.02-3.21-1.48.11-4.22.64-4.41,1.84-.19,1.21,2.31,2.56,3.75,3.09,2.32.86,4.46.55,5.6.29Z"/>
  <path class="cls-5" d="m81.66,14.22c.85-.26,1.08-.51,1.09-.71.03-.54-1.46-1.23-2.83-1.13-.52.04-1.49.23-1.56.65-.07.43.82.9,1.32,1.09.82.3,1.58.2,1.98.1Z"/>
  <path class="cls-3" d="m99.19,70.51c.11.83-.7,1.59-1.72,2.51-1.55,1.41-1.83,1.06-2.64,1.98-1.09,1.25-1.61,3.08-1.32,4.62.12.65.25.56.4,1.32.08.48.39,2.11-.4,3.57-.29.54-.72,1.03-1.08,1.39-.35.36-.64.59-.64.59,0,0,.58,2.14.53,3.83-.07,2.64-1.68,4.56-1.85,4.75-1.58,1.85-2.95,1.47-3.43,2.64-.31.77.01,1.58.57,2.39-1.89.46-3.87.74-5.93.83-3.15.13-5.88-.23-8.37-.83.87-1.43,2.35-3.24,4.35-5.69,5.34-6.51,8.97-8.27,8.72-11.88-.13-1.92-1.32-3.71-.26-5.15.79-1.09,2.11-.95,2.5-2.11.42-1.22-.59-2.64-.79-2.91-1-1.39-2.35-1.67-2.24-2.11.12-.5,1.84-.04,3.3-1.19.25-.2,1.02-.8.92-1.45-.11-.77-1.33-.86-1.45-1.59-.13-.78,1.24-1.08,1.98-2.51.65-1.26.56-2.91,0-4.09-.74-1.54-2.2-2.09-1.98-2.64.13-.31.61-.17,1.58-.66.57-.28,1.23-.62,1.46-1.19.23-.6-.2-.99-.8-2.51-.61-1.55-.98-2.5-.66-3.43.32-.9.96-.82,1.19-1.72.21-.79-.12-1.5-.66-2.64-.88-1.87-1.58-2.16-1.45-2.91.17-.91,1.29-.76,1.98-1.84.98-1.55.19-4.22-1.06-5.81-.81-1.04-1.75-1.55-1.58-1.98.21-.53,1.7.02,2.24-.67.59-.72-.59-1.96-1.18-4.22-.79-2.98.48-3.75-.4-6.08-.98-2.59-3.26-3.49-3.04-3.82.27-.41,3.87.52,5.28,3.16.7,1.3.15,1.67,1.06,3.83.77,1.82,1.84,3.19,2.25,3.7,1.36,1.72,1.65,1.42,1.98,2.25.82,2.1-1.2,3.67-.27,5.54.42.84.84.55,1.59,1.72.17.26,1.42,2.3.66,3.96-.32.68-.63.56-1.19,1.32-1.24,1.7-.88,3.94-.79,4.49.24,1.52.71,1.38,1.45,3.7.51,1.61.68,2.92.79,3.83.24,1.97.37,2.95.13,3.83-.64,2.43-2.63,2.75-2.5,4.36.1,1.35,1.55,1.45,1.71,3.16.11,1.17-.51,1.64-.13,2.65.36.97,1.09.97,1.19,1.71Z"/>
  <path class="cls-3" d="m78.95,18.25c-1.95.98-2.88,2.77-3,3-1.05,2.07-.21,2.61-1.19,4.75-.38.83-1.05,1.66-2.38,3.3-1.81,2.24-2.21,2.28-2.51,3.3-.38,1.31.14,1.72-.4,3.43-.35,1.12-.74,1.48-.53,1.98.34.81,1.59.39,2.64,1.19,1.35,1.03,1.27,3.26,1.19,5.41-.07,1.9-.11,3.05-.92,4.09-1.1,1.42-2.88,1.7-2.77,2.24.07.38.95.19,1.72.79.93.73.98,2.04,1.06,4.23.08,2.26.12,3.38-.66,4.23-.86.93-2.09.83-2.11,1.32-.03.57,1.63.58,2.64,1.72,1.43,1.61.85,4.71,0,6.6-1.18,2.62-2.7,2.58-2.91,4.36-.28,2.4,2.25,4.67,4.09,5.68,2.58,1.41,5.84,1.42,6.21.53.41-.98-2.91-2.46-2.64-4.89.1-.88.61-1.3.4-2.24-.25-1.13-1.14-1.17-1.32-2.11-.27-1.38,1.51-2.02,1.32-3.43-.13-1.01-1.09-.96-1.98-2.64-.34-.64-.88-1.66-.66-2.77.18-.92.67-.86,2.11-2.77,1.05-1.4,1.2-1.98,1.98-2.24.94-.32,1.76.19,1.85,0,.16-.33-2.54-1.25-4.09-3.57-1.09-1.61-1.84-4.23-.79-5.68.5-.69,1.68-1.5,2.77-1.98.71-.31,1.18-.39,1.32-.79.22-.63-.67-1.2-1.32-2.24-1.23-1.98-1.13-4.94,0-5.68.84-.55,2.09.24,2.38-.26.24-.41-.58-.93-.66-2.11-.06-.93.41-1.02.4-1.85-.02-1.39-1.36-1.63-1.58-3.17-.13-.85.11-1.98.79-2.38.74-.43,1.49.28,1.98-.13.5-.42-.13-1.29,0-2.91.15-1.81,1.07-2.3.66-3.17-.43-.91-1.98-1.45-1.98-1.45h0s.78-1.59.4-1.98c-.3-.3-1.23.17-1.49.3Z"/>
  <path class="cls-3" d="m72.73,15.54c-.26-.27-3.24,1.48-5.33,3.94-.56.65-1.1,1.42-2.21,2.13-1.11.71-1.51.55-1.8,1.07-.69,1.22,1.15,2.76.41,4.26-.24.48-.46.39-.9,1.15-.61,1.04-.34,1.47-.74,2.05-.79,1.16-2.44.36-3.28,1.39-.45.56-.15,1.01-.08,3.53.06,2.05.08,3.09-.33,4.02-.74,1.7-2.29,2.53-2.46,2.62-.6.31-.74.23-3.44,1.07-1.45.45-1.78.59-1.8.82-.04.45,1.08,1.16,2.05.98.99-.18,1.27-1.19,1.8-1.07.58.13.74,1.41.82,2.05.12.93.24,1.88-.25,2.79-.72,1.36-2.03,1.19-2.3,2.3-.21.87.55,1.15.41,2.21-.15,1.14-1.08,1.23-1.48,2.46-.35,1.09.27,1.35.25,2.95-.03,1.58-.66,2.78-1.31,4.02-.96,1.83-1.4,1.72-1.8,2.71-.98,2.41.45,5.98,2.95,7.87,1.68,1.27,4.71,2.43,6.32,1.15.97-.77,1.08-2.16,1.23-3.94.11-1.38.23-2.75-.57-3.94-.75-1.11-1.55-.94-1.97-1.97-.58-1.43.44-3.07.57-3.28.75-1.17,1.37-.91,2.54-2.3.58-.68,1.47-1.74,1.39-3.03-.01-.23-.04-.28-.74-2.13-.69-1.85-.72-1.95-.74-2.13-.03-.28-.04-.6.49-2.87.4-1.72.48-1.86.41-2.3-.16-.94-.66-.98-.9-2.05-.09-.41-.32-1.41.25-2.3.08-.12.66-1,1.56-1.07,1.29-.1,1.83,1.55,2.71,1.39,1.2-.22,1.72-3.64,1.23-3.85-.24-.11-.52.68-1.31.82-.85.15-1.81-.52-2.3-1.23-1.34-1.97.38-5.07.57-5.41.84-1.47,1.33-1.2,1.97-2.54,1.04-2.18.12-3.69,1.15-4.43.73-.53,1.33.16,3.03-.41.66-.22,1.65-.55,1.89-1.31.2-.63-.32-.92-.57-2.38-.12-.69-.22-1.3,0-1.97.22-.66.56-.81,1.31-1.72.48-.58,1.49-1.94,1.31-2.13Z"/>
  <path class="cls-3" d="m71.96,13.07c-.05-.13-1.56.41-4.35,1.08-3.44.83-3.44.56-4.37,1.04-2.29,1.17-1.7,2.71-4.24,4.24-2.15,1.3-2.99.79-4.95,2.28-.61.46-2.2,1.67-3.14,3.77-.67,1.49-.56,2.43-1.57,4.08-.63,1.03-.94.92-1.49,1.88-.94,1.65-.41,2.27-1.18,3.46-.98,1.51-2.14.94-2.98,2.36-.59.99.01,1.19-.63,3.85-.33,1.38-.5,2.08-.94,2.75-.43.65-.82.95-.86,1.57-.04.71.43.96.63,1.65.34,1.2-.65,2.06-1.18,3.46-.6,1.61.09,2.13.08,4.63-.03,3.9-1.73,4.45-1.26,7.23.41,2.42,2.1,4.34,2.59,4.16.41-.15-.17-1.73-.24-5.18-.06-3.27-.08-5.83,1.49-7.07.57-.45,1.3-.69,1.34-1.26.04-.67-.94-.85-1.41-1.73-.23-.41-.47-1.21,1.18-5.03,1.21-2.81,1.46-2.65,1.96-4.32.45-1.51.38-2.08,1.02-3.3.47-.9.96-1.82,1.96-2.43,1.32-.8,2.19-.26,3.14-1.18.64-.62,1-1.61.71-1.96-.36-.43-1.43.37-1.96-.08-.18-.15-.43-.54.39-3.38.46-1.58.86-2.54,1.65-4.4.52-1.23.71-1.57,1.1-1.89.8-.65,1.47-.44,2.67-.86,1.08-.39,1.72-.99,2.75-1.96,1.94-1.83,1.43-2.43,2.83-3.38.8-.54.83-.26,3.79-1.48.83-.34,1.41-.61,2.18-.95,1.88-.85,3.35-1.52,3.3-1.65Z"/>
  <path class="cls-3" d="m114.38,47.97c-.56.89-2.99-.66-4.42.47-1.34,1.06-1.38,4.12,0,5.62,1.44,1.57,4.06,1.01,4.18,1.79.11.69-1.99.88-2.99,2.63-.81,1.42-.48,3.12-.12,5.02.46,2.37,1.15,2.91.84,4.3-.25,1.15-.87,1.46-1.67,2.63-1.84,2.69-2.26,6.49-1.32,7.05,1.15.68,4.51-3.25,4.78-2.99.23.22-2.38,2.7-4.42,6.58-1.24,2.37-1.14,3.1-2.15,5.61-.42,1.05-.89,2.04-1.38,2.95h-.01c-1.16,1.14-2.42,2.26-3.79,3.33.34-.85.69-1.84,1-2.93.39-1.38.61-2.56,0-3.23-.82-.88-2.54-.19-2.75-.71-.3-.72,3.01-1.74,3.7-4.31.48-1.74-.78-2.27-.24-4.18.16-.53.33-.73,2.75-3.82,1.2-1.52,1.8-2.3,1.8-2.87-.01-1.33-1.29-1.54-1.56-3.23-.17-1.06.32-1.14.48-3.1.12-1.46-.05-2.7-.12-3.23-.28-2.01-.78-2.87-.24-3.59.34-.44.69-.3,1.08-.71.81-.86.31-2.51,0-3.71-1.23-4.69-.19-4.52-1.2-6.69-1.56-3.37-4.42-4.51-3.94-5.62.36-.83,2.01-.24,2.99-1.43.9-1.1.49-2.83.23-3.94-.56-2.44-1.61-2.59-2.5-5.38-.66-2.07-.23-2.43-.96-3.35-1.11-1.39-2.48-1-3.71-2.39-.95-1.07-.72-1.98-1.19-3.34-1.4-4.06-6.59-5.33-6.45-5.62.13-.28,5.27.66,8.72,4.54.94,1.06,1.13,1.64,2.87,3.59,2.14,2.39,2.66,2.43,3.22,3.7.82,1.85.05,2.5.96,4.9.63,1.65,1.02,1.39,1.67,2.99,1.21,2.93,0,4.03,1.2,6.09.76,1.32,1.31.97,2.99,3.11.86,1.11,2.13,2.73,1.67,3.47Z"/>
  <path class="cls-3" d="m118.6,69.72c-.29-.01-.56-.08-.76-.24-1.67-1.35,2.11-7.96.48-9.09-.5-.35-1.07.15-1.43-.24-.87-.91,2.47-3.5,2.03-6.93-.18-1.38-.94-2.7-.2-3.74.33-.46.72-.53.82-1,.17-.77-.82-1.13-1.58-2.43-.22-.39-.52-1.67-1.1-4.24-.09-.39-.25-1.08-.7-1.87-.13-.24-.36-.6-.77-1.07-1.04-1.2-1.68-1.25-2.25-1.89-.38-.43-.31-.64-.7-4.58-.17-1.75-.27-2.73-.91-3.84-1.24-2.17-2.29-2.01-3.95-4.43-1.23-1.78-.92-2.26-1.89-2.92-1.46-1.02-2.66-.25-4.23-1.22-1.22-.75-1.27-1.69-2.11-2.86-2.5-3.47-9.4-3.19-9.4-3.51.04-.22,3.4-.57,6.93.18,11.72,6.13,17.53,16.42,18.76,18.7,1.33,2.45,2.4,5,3.24,7.61-.46,1.26.05,3.18,1.15,4.32,1.82,8.42,1.26,17.24-1.43,25.29Z"/>
  <path class="cls-3" d="m68.82,12.43c0,.29-5.46-.15-11.44,2.97-3.39,1.78-5.64,4.02-6.61,5-1.5,1.52-2.25,2.28-2.79,3.56-.4.92-.48,1.61-1.19,2.54-.75.97-1.15.85-2.12,1.78-1.1,1.06-.72,1.35-2.54,4.23-.88,1.4-1.28,1.81-1.19,2.55.11.82.7,1.12.68,2.03-.02.87-.58,1.5-.68,1.61-1.05,1.16-2.41.39-3.38,1.44-.45.48-.55,1.14-.77,2.46-.22,1.36.03,1.45-.17,2.45-.33,1.67-1.06,1.67-1.35,3.22-.24,1.23.21,1.3,0,2.88-.18,1.31-.5,1.44-.68,2.71-.14,1.01-.05,1.75.09,2.88.33,2.77,1,3.58.59,4.07-.31.37-1.05.46-1.89.31-.37-2.49-.69-6.12-.36-10.37.13-1.67.45-5.32,1.75-9.84h0c.81-.99,1.6-1.8,2.19-2.89.83-1.51.81-3.04.58-4.4.62-1.3,1.34-2.62,2.16-3.94.58.19,1.2.27,1.84-.05,1.23-.62.94-1.94,2.79-4.23,1.14-1.41,1.39-1.09,2.04-2.04.63-.92.79-1.83.81-2.7,3.74-3.44,7.69-5.83,11.41-7.49,5.55-.68,10.21-1,10.23-.74Z"/>
  <path class="cls-5" d="m70.78,9.65c1.15.71,1.87,1.56,1.77,1.71-.09.14-.78-.26-1.89-.68-.76-.29-1.49-.49-2.16-.64"/>
  <path class="cls-5" d="m76.94,9.17c.06.27.07.44.01.48-.08.05-.26-.14-.55-.47"/>
  <path class="cls-5" d="m89.5,10.81c-.7.45-1.12.88-1.06,1,.06.14.8-.16,1.95-.44.18-.04.35-.08.52-.11"/>
  <path class="cls-5" d="m85.14,9.82c-.25.29-.37.51-.33.58.06.1.48-.12,1.17-.42"/>
  <path class="cls-1" d="m14.28,51.92l75.39,29.11s-20.85,37.39-45.9,34.59c-25.91-2.89-30.46-23.81-31.39-28.13-3.73-17.27,1.91-35.57,1.91-35.57Z"/>
  <path class="cls-2" d="m17.78,53.3l69.18,26.71s-19.81,35.33-42.42,32.81c-23.39-2.61-27.5-21.5-28.34-25.4-3.37-15.59,1.59-34.12,1.59-34.12Z"/>
  <g>
    <path class="cls-6" d="m35.75,87.72s-.89,2.77-1.67,3.53c-.77.76-1.38,1.37-2.1.72-.72-.63.35-1.62.99-2.33.64-.72,2.78-1.92,2.78-1.92Z"/>
    <path class="cls-6" d="m36.18,80.67s-1.45,2.53-2.37,3.1c-.91.59-1.64,1.05-2.2.27-.58-.76.68-1.51,1.45-2.07.77-.57,3.12-1.3,3.12-1.3Z"/>
    <path class="cls-6" d="m29.73,78.28s-2.42,1.62-3.5,1.73c-1.08.12-1.93.21-2.09-.74-.18-.94,1.27-1.05,2.22-1.21.94-.17,3.37.22,3.37.22Z"/>
    <path class="cls-6" d="m32.58,72.87s-2.61,1.3-3.69,1.28c-1.09-.02-1.94-.03-1.99-.99-.06-.96,1.4-.88,2.36-.93.96-.05,3.32.64,3.32.64Z"/>
    <path class="cls-6" d="m28.04,68.25s-2.75.97-3.82.8c-1.08-.15-1.93-.28-1.85-1.23.06-.96,1.5-.7,2.46-.62.95.07,3.21,1.05,3.21,1.05Z"/>
    <path class="cls-6" d="m31.92,64.65s-2.89.41-3.91.04c-1.02-.36-1.83-.65-1.57-1.57.25-.93,1.6-.4,2.53-.13.92.26,2.95,1.66,2.95,1.66Z"/>
    <path class="cls-6" d="m42.74,91s.72,2.82.46,3.88c-.25,1.06-.44,1.89-1.39,1.73-.95-.15-.57-1.55-.4-2.5.16-.94,1.34-3.11,1.34-3.11Z"/>
    <path class="cls-6" d="m51.68,90.51s1.16,2.67,1.08,3.75c-.07,1.08-.13,1.94-1.1,1.93-.96,0-.81-1.44-.8-2.4,0-.96.82-3.28.82-3.28Z"/>
    <path class="cls-6" d="m58.02,89.51s2.42,1.63,2.93,2.59c.52.95.93,1.71.11,2.22-.8.52-1.46-.78-1.97-1.6-.51-.81-1.07-3.21-1.07-3.21Z"/>
    <path class="cls-6" d="m57.82,82.46s2.28,1.81,2.71,2.81c.44.99.79,1.78-.06,2.22-.84.46-1.39-.89-1.83-1.75-.45-.85-.82-3.28-.82-3.28Z"/>
    <path class="cls-6" d="m47.97,84.53s.85,2.79.64,3.85c-.2,1.07-.36,1.91-1.31,1.79-.95-.1-.64-1.53-.52-2.48.11-.95,1.19-3.16,1.19-3.16Z"/>
    <path class="cls-6" d="m67.04,84.36s2.84.64,3.66,1.35c.83.7,1.48,1.26.91,2.03-.56.78-1.64-.2-2.41-.78-.77-.57-2.16-2.6-2.16-2.6Z"/>
    <path class="cls-6" d="m66.07,79.29s2.91.03,3.87.55c.96.51,1.72.92,1.31,1.79-.38.88-1.65.15-2.52-.25-.87-.39-2.66-2.09-2.66-2.09Z"/>
  </g>
  <rect class="cls-7" x="-859.22" y="-1635.28" width="3385.57" height="2571.67"/>
</svg>