<?xml version="1.0" encoding="UTF-8"?>
<svg id="Calque_1" data-name="Calque 1" xmlns="http://www.w3.org/2000/svg" viewBox="0 0 128 128">
  <defs>
    <style>
      .cls-1 {
        fill: #cf7452;
      }

      .cls-1, .cls-2, .cls-3 {
        stroke: #000;
      }

      .cls-1, .cls-2, .cls-4 {
        stroke-linecap: round;
        stroke-linejoin: round;
      }

      .cls-2, .cls-4 {
        fill: none;
      }

      .cls-5 {
        fill: #95533d;
      }

      .cls-3 {
        fill: #f8a856;
        stroke-miterlimit: 10;
      }

      .cls-4 {
        stroke: #fff;
        stroke-width: 8px;
      }
    </style>
  </defs>
  <path class="cls-1" d="m87.99,54.95c-1.2-1.13-2.6-2.01-4.08-2.12-4.51-.36-13.28,0-18.85,6.75-5.57,6.76-9.12,11.62-9.83,12.92-.72,1.31-2.26,3.08-1.78,5.69.31,1.7,2.59,5.27,4.1,7.02-.12.06-.25.12-.38.18-1.76.8-5.23.41-6.91.36-6.65-.21-8.17-.7-10.67-1.69-6.04-2.38-9.31-7.22-11.73-10.8-.82-1.21-2.51-3.88-3.91-7.63-.72-1.94-2.08-5.7-2.23-10.62-.15-4.69.99-4.46.93-10.05-.06-5.03-.09-7.55-1.49-9.87-.93-1.53-2.27-2.87-2.05-4.84.02-.24.21-1.96,1.3-2.61,2.77-1.65,8.51,4.12,10.41,5.47,5.15,3.62,9.93,7.29,16,9.39,5.22,1.8,10.56,2.33,15.92,3.44,4.72.97,9.44,1.92,14.24,2.53,1.33.17,6.2,1.05,8.63,3.24,1.19,1.07,1.93,2.37,2.38,3.24Z"/>
  <path class="cls-3" d="m88.67,66.65c-3.4,5.6-10.52,2.48-19.89,8.75-3.5,2.34-5.25,3.51-7.13,5.56-1.69,1.85-2.57,3.37-4.59,4.42-1.56-1.8-3.83-4.69-4.15-6.44-.49-2.69,1.09-4.51,1.83-5.86.73-1.34,4.39-6.34,10.12-13.31,5.74-6.95,14.77-7.32,19.41-6.95,1.52.11,2.97,1.02,4.2,2.18h.01c.06.14.12.26.18.37.56,1.1,1.51,3.01,1.57,5.52,0,0,.05,3.09-1.57,5.75Z"/>
  <path class="cls-3" d="m82.17,92.72c-2.61,2.76-4.8,3.63-6.47,3.97-.74.15-3.11.59-5.58-.44-3.46-1.44-4.86-4.83-6.03-7.64-1.22-2.95-3.7-8.93-1.03-14.55,1.5-3.17,4.2-5.29,5.88-6.61.8-.63,2.25-1.77,4.41-2.79,2.02-.96,5.87-2.4,10.73-2.06,2.96.21,4.95.99,8.08,2.2,5.12,1.99,7.71,3,7.94,4.7.36,2.78-6.19,3.07-10.88,9.41-3.83,5.18-2.09,8.57-7.05,13.82Z"/>
  <path class="cls-3" d="m107.3,88.9c.4-.39,1.74-2.02,4.41-5.29.98-1.2,1.57-1.94,1.76-3.09.23-1.42-.28-2.67-1.18-4.26-1.96-3.48-3.14-5.57-5.73-7.35-4.18-2.87-8.65-2.61-10.58-2.5-8.31.48-13.46,6.15-14.26,7.05-1.13,1.29-5.43,6.32-5.14,13.37.06,1.44.26,5.26,2.79,8.67,1.34,1.8,3,3.06,3.82,3.67,1.77,1.33,2.92,2.2,4.26,2.5,2.36.52,3.9-1.05,10.43-5.73,5.62-4.03,6.86-4.57,9.41-7.05Z"/>
  <path class="cls-3" d="m107.3,88.9c.4-.39,1.74-2.02,4.41-5.29.98-1.2,1.57-1.94,1.76-3.09.23-1.42-.28-2.67-1.18-4.26-1.96-3.48-3.14-5.57-5.73-7.35-4.18-2.87-8.65-2.61-10.58-2.5-8.31.48-13.46,6.15-14.26,7.05-1.13,1.29-5.43,6.32-5.14,13.37.06,1.44.26,5.26,2.79,8.67,1.34,1.8,3,3.06,3.82,3.67,1.77,1.33,2.92,2.2,4.26,2.5,2.36.52,3.9-1.05,10.43-5.73,5.62-4.03,6.86-4.57,9.41-7.05Z"/>
  <path class="cls-3" d="m93.05,110.09c-3.72-1.29-5.38-4.55-5.87-5.51-1.95-3.82-1.23-7.53-.86-9.42.24-1.25,1.52-7.04,6.97-11.01,1.22-.89,4.34-2.92,8.81-3.3,3.48-.3,6.13.56,6.97.86,1.89.67,5.07,1.79,6.97,5.02.49.82,1.65,3.08,1.35,6-.27,2.58-1.55,4.32-2.45,5.51-1.94,2.57-3.14,2.48-7.22,5.75-4.13,3.31-3.78,4.1-6.24,5.26-1.17.56-4.62,2.19-8.44.86Z"/>
  <path class="cls-2" d="m32.4,34.22s.83-2.07,0-2.91-2.79-.78-3.07-1.57-1.34-5.2-1.34-5.2c0,0-3.69-1.73-4.47-2.46-.78-.73-2.74-4.03-2.74-4.03"/>
  <path class="cls-2" d="m20.41,27.64s0-5.11-1.82-9.33c-.7-1.62-3.35-5.56-3.35-5.56"/>
  <path class="cls-2" d="m19.09,29.24s-1.92-3.1-3.26-4.65c-1.34-1.55-1.91-1.44-2.67-2.71s-.83-3.46-.83-3.46"/>
  <path class="cls-2" d="m22.02,38.12s-.79.69-1.92.69-2.27-1.33-2.71-2.02c-.44-.69-1.82-1.43-2.86-1.48s-2.17-2.56-2.51-3.84c-.34-1.28-.94-3.83-.94-3.83"/>
  <path class="cls-2" d="m13.51,34.61s.66-1.6.66-2.26-.28-1.29-.33-1.92,0-1.18,0-1.18"/>
  <path class="cls-2" d="m11.31,29.53s-1.06-.37-1.8-.86-1.22-1.33-1.22-1.33"/>
  <path class="cls-5" d="m38.25,75.6s.41,1.05.45,1.53.07.93.6.49.93-.78.75-1.49c-.19-.71-.36-1.53-.87-1.61s-1.75-.26-1.33.41l.41.67Z"/>
  <path class="cls-5" d="m55.04,57.85c.55-.46,1.24-.85,2.26-.81s1.47,1.04,1.7,1.51-.37.76-.74.75-.64-1.23-1.22-1.13-2-.31-2-.31Z"/>
  <path class="cls-5" d="m50.95,67.98c-.41,0-1.24-.14-1.2.41s.23,1.1,1.01,1.1,1.29.23,1.43-.41-1.24-1.1-1.24-1.1Z"/>
  <g>
    <path class="cls-5" d="m71.53,49.94s-1.43.88-2.16.88-1.47-.39-2.4,0c-.93.39-3.03,2.05-1.91,2.84s2.05.93,2.79.29.93-1.61,1.42-1.81,2.26-.88,2.26-.88v-1.32Z"/>
    <path class="cls-5" d="m49.14,58.24s.33-.84.18-1.88-.73-1.58-.73-1.58c0,0-.2.81-1.12,1.58-.93.77-1.86.96-1.61,1.55s1.73.15,1.73.15c0,0-.62,1.12,0,1.22s1.56-1.04,1.56-1.04Z"/>
    <path class="cls-5" d="m40.79,64.82c-.25-.19-.59-.59-1-.44s-.59.44-1.03.44-.93-.31-.93-.81,1.12-1,1.12-1c0,0-.22-.59,0-.93s.9-.59,1.37,0,1.09,1.09,1.09,1.59v1.8l-.62-.65Z"/>
    <path class="cls-5" d="m32.37,44.84l-1.17-.71s.13-.79,0-1.29-.92-.83-1.13-.25,0,1.54,0,1.79.82,1.13,1.1,1.13.65.42,1.19,0,0-.67,0-.67Z"/>
    <path class="cls-5" d="m26,49.08s1,.44,1.52.36,1.36-.36,1.36-.36c0,0,.12-1.52-1.04-1.6-1.16-.08-1.84,1.6-1.84,1.6Z"/>
    <path class="cls-5" d="m40.81,43.65c-.24.86-1.19,1.24-.24,1.24s1.57.71,2.19,0c.62-.71-.29-1.24-.29-1.24h-1.66Z"/>
    <path class="cls-5" d="m54.25,47.48c.04.54-.31,1.16.4,1.29s1.64.66,1.72,0,.27-1.21-.22-1.29-.21-.65-.81-.61-1.09.61-1.09.61Z"/>
    <path class="cls-5" d="m29.99,58.77c.39.6.34,2.03.34,2.72s0,2.81-.64,1.79c-.64-1.01-1.2-.56-1.01-2.12.18-1.56,1.32-2.39,1.32-2.39Z"/>
    <path class="cls-5" d="m45.84,80.94s1.77-1.29,2.41-1.31,2.23.64,2.72,1.15c.49.51-.34.86-1.03.72-.7-.13-.99-.7-1.46-.7s-.77.99-1.57.99-1.34-.4-1.47-.51.4-.35.4-.35Z"/>
  </g>
  <rect class="cls-4" x="-1023.64" y="-2047.77" width="3385.57" height="2571.67"/>
</svg>