<?xml version="1.0" encoding="UTF-8"?>
<svg id="Calque_1" data-name="Calque 1" xmlns="http://www.w3.org/2000/svg" viewBox="0 0 128 128">
  <defs>
    <style>
      .cls-1 {
        fill: #fce9b9;
      }

      .cls-1, .cls-2, .cls-3 {
        stroke: #000;
      }

      .cls-1, .cls-2, .cls-3, .cls-4 {
        stroke-linecap: round;
        stroke-linejoin: round;
      }

      .cls-2 {
        fill: #f3d587;
      }

      .cls-3, .cls-4 {
        fill: none;
      }

      .cls-4 {
        stroke: #fff;
        stroke-width: 8px;
      }
    </style>
  </defs>
  <path class="cls-3" d="m71.37,28.38c0,1.58-2.7,3.02-7.14,4.12-.37.09-.76.19-1.15.27-.8.18-1.65.34-2.54.49-.87.15-1.78.29-2.73.42-1.3.18-2.67.33-4.11.45-3.3.3-6.93.46-10.72.46h-.18c-.06-.17-.14-.33-.24-.49.02-.1.02-.2.02-.3,0-.03,0-.06,0-.09,0-.56-.19-1.1-.53-1.61-.32-.5-.81-.96-1.4-1.37-.47-.33-1-.63-1.59-.89-.31-.14-.64-.27-.98-.39-1.88-.67-4.21-1.06-6.73-1.06-5.1,0-9.41,1.61-10.78,3.82-3.75-1.06-5.98-2.38-5.98-3.82,0-3.42,12.71-6.2,28.39-6.2s28.4,2.78,28.4,6.2Z"/>
  <path class="cls-3" d="m71.37,28.38c0,14.11-6.73,26.27-16.44,31.85h-23.92c-9.7-5.57-16.43-17.73-16.43-31.85,0,1.44,2.23,2.76,5.98,3.82.55.14,1.12.3,1.72.43.82.19,1.7.37,2.62.54h0c3.59.64,7.92,1.1,12.67,1.3.19,0,.38.02.57.02.21,0,.43.02.64.02.52.02,1.05.03,1.59.04h.23c.22,0,.43,0,.64,0,.39,0,.78.02,1.18.02h.54c3.79,0,7.42-.16,10.72-.46,1.43-.12,2.8-.27,4.11-.45.95-.13,1.86-.27,2.73-.42.89-.15,1.75-.31,2.54-.49.39-.08.78-.18,1.15-.27,4.45-1.1,7.14-2.54,7.14-4.12Z"/>
  <path class="cls-2" d="m42.58,33.7s0,.06,0,.09c0,.1,0,.2-.02.3-.05-.09-.1-.17-.16-.25h0c-.34-.5-.83-.96-1.45-1.37-.5-.34-1.09-.64-1.73-.92-.32-.14-.66-.27-1.01-.38-.04-.02-.08-.03-.12-.04-1.8-.59-3.99-.93-6.34-.93-3.95,0-7.43.97-9.44,2.42-.6-.14-1.18-.29-1.72-.43,1.37-2.21,5.68-3.82,10.78-3.82,2.52,0,4.86.39,6.73,1.06.35.12.68.25.98.39.6.26,1.13.56,1.59.89.6.41,1.08.87,1.4,1.37.35.51.53,1.05.53,1.61Z"/>
  <path class="cls-2" d="m42.79,34.58h-.36c-.39,0-.79,0-1.18-.02-.11-.07-.23-.16-.35-.24-.41-.27-.88-.52-1.39-.76-.1-.05-.21-.1-.32-.14-.35-.15-.71-.27-1.09-.4-.06-.02-.11-.04-.17-.06-1.78-.56-3.92-.89-6.22-.89-2.56,0-4.93.4-6.81,1.1h0c-.92-.17-1.8-.35-2.62-.54,2.01-1.46,5.48-2.42,9.44-2.42,2.34,0,4.53.34,6.34.93.04,0,.08.02.12.04.35.11.69.24,1.01.38.64.27,1.23.58,1.73.92.62.41,1.11.87,1.45,1.37h0c.06.08.11.16.16.25.1.16.18.32.24.49Z"/>
  <path class="cls-2" d="m41.25,34.56c-.22,0-.43,0-.64,0h-.23c-.53,0-1.06-.02-1.59-.04-.22,0-.43-.02-.64-.02-.19,0-.39-.02-.57-.02-4.75-.2-9.08-.65-12.67-1.3,1.88-.69,4.25-1.1,6.81-1.1,2.3,0,4.44.33,6.22.89.06.02.11.04.17.06.38.13.74.26,1.09.4.11.05.22.1.32.14.51.23.97.48,1.39.76.12.08.23.17.35.24Z"/>
  <path class="cls-2" d="m64.22,32.49c-.37.09-.76.19-1.15.27-.8.18-1.65.34-2.54.49-.87.15-1.78.29-2.73.42-1.3.18-2.67.33-4.11.45-3.3.3-6.93.46-10.72.46h-.18c-.06-.17-.14-.33-.24-.49.02-.1.02-.2.02-.3,0-.03,0-.06,0-.09,0-.56-.19-1.1-.53-1.61-.32-.5-.81-.96-1.4-1.37-.47-.33-1-.63-1.59-.89-.31-.14-.64-.27-.98-.39.95-3.29,7.29-4.85,14.43-3.5,5.77,1.1,10.34,3.77,11.72,6.55Z"/>
  <path class="cls-2" d="m63.07,32.76c-.8.18-1.65.34-2.54.49-.87.15-1.78.29-2.73.42-1.3.18-2.67.33-4.11.45-3.3.3-6.93.46-10.72.46h-.18c-.06-.17-.14-.33-.24-.49.02-.1.02-.2.02-.3,0-.03,0-.06,0-.09,0-.56-.19-1.1-.53-1.61-.32-.5-.81-.96-1.4-1.37-.47-.33-1-.63-1.59-.89,2.19-2.22,7.56-3.11,13.5-1.97,4.61.87,8.46,2.75,10.52,4.9Z"/>
  <path class="cls-2" d="m60.53,33.25c-.87.15-1.78.29-2.73.42-1.3.18-2.67.33-4.11.45-3.3.3-6.93.46-10.72.46h-.18c-.06-.17-.14-.33-.24-.49.02-.1.02-.2.02-.3,0-.03,0-.06,0-.09,0-.56-.19-1.1-.53-1.61-.32-.5-.81-.96-1.4-1.37,2.71-1.2,6.93-1.51,11.48-.65,3.32.63,6.24,1.79,8.39,3.18Z"/>
  <path class="cls-2" d="m57.8,33.67c-1.3.18-2.67.33-4.11.45-3.3.3-6.93.46-10.72.46h-.18c-.06-.17-.14-.33-.24-.49.02-.1.02-.2.02-.3,0-.03,0-.06,0-.09,0-.56-.19-1.1-.53-1.61,2.66-.77,6.26-.88,10.08-.14,2.07.39,3.99.99,5.66,1.72Z"/>
  <path class="cls-2" d="m53.69,34.12c-3.3.3-6.93.46-10.72.46h-.18c-.06-.17-.14-.33-.24-.49.02-.1.02-.2.02-.3,2.59-.64,5.98-.68,9.56,0,.53.1,1.05.22,1.55.34Z"/>
  <path class="cls-2" d="m35.4,33.68c-.4-.45-1.02-.98-1.83-1.07-2.24-.25-4.93,2.98-4.64,5.52.27,2.44,3.14,3,2.99,5.21-.09,1.33-1.16,1.59-1.91,3.51-.66,1.7-.54,3.36-.31,4.54l1.05-.26s-.19-2.95.32-3.84,2.13-2.6,2.16-3.81-.28-2.13-.68-2.57-2.43-1.92-2.28-3.16c.37-3.07,2.55-3.58,2.55-3.58l2.81.21-.22-.69Z"/>
  <g>
    <path class="cls-1" d="m31.85,99.21s.62-3.32,2.39-4.57c1.77-1.25,5.09-1.04,5.09-1.04l20.47,13.82-11.32,3.01-16.62-11.22Z"/>
    <path class="cls-2" d="m48.47,110.43s.73-4.68,4.47-4.68,6.86,1.66,6.86,1.66c0,0-1.35,3.74-3.95,4.05s-7.38-1.04-7.38-1.04Z"/>
  </g>
  <g>
    <path class="cls-1" d="m21.09,94.8s1.55-3.01,3.6-3.69,5.17.47,5.17.47l15.64,19.11-11.71-.37-12.7-15.52Z"/>
    <path class="cls-2" d="m33.79,110.32s2.04-4.27,5.62-3.19,6.09,3.56,6.09,3.56c0,0-2.37,3.19-4.95,2.75s-6.77-3.11-6.77-3.11Z"/>
  </g>
  <g>
    <path class="cls-1" d="m25.83,85.58s-.94-3.25.07-5.16,4.08-3.22,4.08-3.22l26.5,4.11-8.75,7.8-21.9-3.52Z"/>
    <path class="cls-2" d="m47.73,89.1s-1.46-4.5,1.88-6.19c3.34-1.69,6.87-1.61,6.87-1.61,0,0,.48,3.95-1.7,5.4-2.18,1.45-7.05,2.4-7.05,2.4Z"/>
  </g>
  <g>
    <path class="cls-2" d="m76.89,88.69c.5-.14.76-.67.58-1.15-.23-.61-1.07-1.56-1.39-2.47-.6-1.72-.6-4.57-.34-5.64.26-1.07,1.98.48,1.98.48l1.46-.97c.34-.22.79-.13,1.01.2l.17.25c.17.26.49.38.79.3l1.88-.48c.36-.09.73.1.87.45l.35.94c.11.3.41.49.73.47l1.01-.07c.48-.03.86.39.77.86l-.02.08c-.08.43.23.83.66.86l1.34.11-.43,1.38.97.15c.57.09.82.77.44,1.2-.82.92-2.15,2.22-3.48,2.7-1.09.39-2.87.52-3.92.7-.8.14-1.17,1.06-.7,1.72.57.79,1.64,1.85,1.86,2.32.43.95.69,3.03.43,4.27-.16.75-.59,1.82-.91,2.56-.16.36-.65.39-.86.06l-1.07-1.72-.67.97c-.15.23-.46.28-.69.12l-.92-.66c-.14-.1-.33-.12-.49-.05l-1.36.62c-.25.11-.54,0-.65-.24l-.61-1.36c-.08-.18-.25-.29-.44-.29h-1.36c-.27,0-.49-.22-.49-.49v-.59c0-.25-.19-.46-.44-.48l-.77-.08c-.25-.03-.44-.23-.44-.48v-1.06c0-.19-.11-.36-.28-.44l-1.38-.63c-.3-.14-.38-.52-.16-.76.76-.86,2.44-2.59,3.98-3.04,1.02-.3,2.38-.44,2.96-.6Z"/>
    <path class="cls-3" d="m84.45,86.65s-2.49,1.39-3.3,2.86-1.27,4.97-1.27,4.97"/>
    <path class="cls-3" d="m74.45,91.59s2.49-1.39,3.3-2.86,1.27-4.97,1.27-4.97"/>
  </g>
  <g>
    <path class="cls-2" d="m86.08,106.67c.22-.46,0-1.01-.48-1.19-.61-.23-1.88-.22-2.78-.58-1.69-.68-3.84-2.55-4.48-3.45s1.66-1.18,1.66-1.18l.23-1.74c.05-.4.42-.68.82-.63l.3.04c.31.04.61-.12.75-.4l.87-1.73c.17-.33.56-.49.91-.36l.94.35c.3.11.64.01.84-.24l.61-.81c.29-.38.86-.39,1.16,0l.05.06c.27.34.77.38,1.08.07l.96-.94.75,1.23.75-.63c.44-.37,1.12-.11,1.19.46.15,1.23.26,3.08-.26,4.39-.42,1.08-1.5,2.5-2.05,3.41-.42.69.03,1.58.83,1.65.97.09,2.47-.02,2.97.13,1,.3,2.74,1.48,3.5,2.49.46.61.98,1.64,1.33,2.37.17.35-.13.75-.52.68l-2-.33.29,1.14c.07.26-.1.53-.36.59l-1.1.26c-.17.04-.31.17-.36.34l-.43,1.44c-.08.26-.35.41-.61.33l-1.43-.44c-.18-.06-.38,0-.51.15l-.89,1.02c-.18.2-.48.22-.69.05l-.45-.39c-.19-.16-.47-.16-.65,0l-.56.52c-.18.17-.46.17-.65,0l-.8-.7c-.14-.12-.35-.16-.52-.08l-1.38.62c-.3.13-.64-.05-.68-.38-.15-1.14-.35-3.54.32-4.99.45-.97,1.23-2.08,1.49-2.63Z"/>
    <path class="cls-3" d="m89.51,99.64s-.59,2.79-.02,4.37,2.91,4.23,2.91,4.23"/>
    <path class="cls-3" d="m86.66,110.42s.59-2.79.02-4.37-2.91-4.23-2.91-4.23"/>
  </g>
  <g>
    <path class="cls-2" d="m105.22,81.96c.23.46.79.63,1.23.36.56-.34,1.34-1.34,2.17-1.82,1.58-.91,4.38-1.43,5.49-1.37s-.11,2.03-.11,2.03l1.22,1.26c.28.29.28.75-.01,1.03l-.22.21c-.22.22-.28.55-.15.83l.82,1.76c.16.34.03.74-.28.93l-.86.52c-.28.17-.41.5-.33.81l.25.98c.12.46-.23.91-.71.91h-.08c-.43,0-.77.37-.73.81l.14,1.34-1.43-.17.03.98c.02.58-.61.95-1.1.65-1.06-.64-2.58-1.71-3.29-2.92-.58-1-1.04-2.72-1.41-3.72-.28-.76-1.26-.96-1.81-.37-.67.71-1.51,1.95-1.94,2.25-.85.6-2.86,1.23-4.12,1.21-.76-.02-1.9-.25-2.69-.43-.38-.09-.5-.57-.21-.83l1.5-1.37-1.07-.48c-.25-.11-.36-.41-.24-.65l.48-1.02c.07-.16.06-.34-.04-.49l-.86-1.23c-.16-.22-.1-.53.12-.68l1.23-.85c.16-.11.24-.3.2-.49l-.25-1.34c-.05-.26.13-.52.39-.57l.58-.11c.24-.05.42-.27.4-.52l-.06-.77c-.02-.25.15-.47.4-.52l1.04-.19c.19-.03.34-.17.38-.36l.37-1.47c.08-.32.44-.47.72-.3.99.59,3,1.92,3.72,3.35.48.95.87,2.26,1.13,2.8Z"/>
    <path class="cls-3" d="m108.61,89.01s-1.82-2.2-3.41-2.72-5.12-.34-5.12-.34"/>
    <path class="cls-3" d="m101.92,80.09s1.82,2.2,3.41,2.72,5.12.34,5.12.34"/>
  </g>
  <rect class="cls-2" x="12.95" y="61.74" width="106.44" height="1.78"/>
  <rect class="cls-2" x="12.95" y="59.86" width="106.44" height="1.78"/>
  <rect class="cls-2" x="9.79" y="57.99" width="106.44" height="1.78"/>
  <rect class="cls-2" x="12.95" y="59.86" width="106.44" height="1.78" transform="translate(-6.89 8.49) rotate(-6.98)"/>
  <rect class="cls-2" x="9.06" y="65.21" width="106.44" height="1.78" transform="translate(2.13 -1.95) rotate(1.82)"/>
  <rect class="cls-4" x="-1537.59" y="-834.1" width="3385.57" height="2571.67"/>
</svg>