<?xml version="1.0" encoding="UTF-8"?>
<svg id="Calque_1" data-name="Calque 1" xmlns="http://www.w3.org/2000/svg" viewBox="0 0 128 128">
  <defs>
    <style>
      .cls-1 {
        fill: #f3d587;
      }

      .cls-2 {
        fill: #fff;
      }

      .cls-3 {
        fill: #a07637;
      }

      .cls-4 {
        fill: #baa584;
      }

      .cls-5 {
        fill: none;
        stroke: #fff;
        stroke-linecap: round;
        stroke-linejoin: round;
        stroke-width: 8px;
      }
    </style>
  </defs>
  <g>
    <path class="cls-1" d="m38.01,117.68c-6.34,0-11.51-5.16-11.51-11.51l-.11-84.28c0-6.34,5.14-11.51,11.45-11.51l12.23-.06c6.07,0,11.12,4.79,11.49,10.79h-19.86c-1.33,0-2.37,1.04-2.37,2.37s1.04,2.37,2.37,2.37h19.88v4.89h-19.88c-1.33,0-2.37,1.04-2.37,2.37s1.09,2.37,2.37,2.37h19.89l.04,4.84h-19.93c-1.33,0-2.37,1.04-2.37,2.37s1.04,2.37,2.37,2.37h19.94v4.89h-19.94c-1.33,0-2.37,1.04-2.37,2.37s1.09,2.37,2.37,2.37h19.94v4.84h-19.94c-1.33,0-2.37,1.04-2.37,2.37s1.04,2.37,2.37,2.37h19.94l.05,4.84h-19.99c-1.29,0-2.37,1.09-2.37,2.37s1.06,2.43,2.37,2.43h19.99v4.84h-19.99c-1.33,0-2.37,1.04-2.37,2.37s1.04,2.37,2.37,2.37h19.99v4.84h-19.99c-1.29,0-2.37,1.09-2.37,2.37s1.04,2.37,2.37,2.37h20.05v13c0,6.35-5.16,11.51-11.51,11.51l-12.23.05Zm6.12-15.92c-2.1,0-3.8,1.71-3.8,3.81s1.71,3.75,3.8,3.75,3.81-1.68,3.81-3.75-1.71-3.81-3.81-3.81Z"/>
    <path d="m50.08,10.82c5.63,0,10.34,4.31,10.94,9.79h-19.32c-1.61,0-2.87,1.26-2.87,2.87s1.26,2.87,2.87,2.87h19.38v3.89h-19.38c-1.61,0-2.87,1.26-2.87,2.87s1.29,2.87,2.87,2.87h19.39l.04,3.84h-19.43c-1.61,0-2.87,1.26-2.87,2.87s1.26,2.87,2.87,2.87h19.44v3.89h-19.44c-1.61,0-2.87,1.26-2.87,2.87s1.29,2.87,2.87,2.87h19.44v3.84h-19.44c-1.61,0-2.87,1.26-2.87,2.87s1.26,2.87,2.87,2.87h19.45l.04,3.84h-19.48c-1.58,0-2.87,1.29-2.87,2.87s1.29,2.93,2.87,2.93h19.49v3.84h-19.49c-1.61,0-2.87,1.26-2.87,2.87s1.26,2.87,2.87,2.87h19.49v3.84h-19.49c-1.58,0-2.87,1.29-2.87,2.87s1.26,2.87,2.87,2.87h19.55v12.5c0,6.07-4.94,11.01-11.01,11.01l-12.23.05c-6.07,0-11.01-4.94-11.01-11.01l-.11-84.28c0-6.07,4.91-11.01,10.96-11.01l12.22-.06m-5.95,98.99c2.37,0,4.31-1.91,4.31-4.25s-1.93-4.31-4.31-4.31-4.3,1.93-4.3,4.31,1.93,4.25,4.3,4.25m5.95-99.99l-12.23.06c-6.61,0-11.95,5.34-11.95,12.01l.11,84.28c0,6.61,5.4,12.01,12.01,12.01l12.23-.05c6.66,0,12.01-5.4,12.01-12.01v-13.5h-20.55c-1.05,0-1.87-.83-1.87-1.87,0-.99.83-1.87,1.87-1.87h20.49v-5.84h-20.49c-1.05,0-1.87-.83-1.87-1.87s.83-1.87,1.87-1.87h20.49v-5.84h-20.49c-1.05,0-1.87-.88-1.87-1.93,0-.99.83-1.87,1.87-1.87h20.49l-.06-5.84h-20.44c-1.05,0-1.87-.83-1.87-1.87s.83-1.87,1.87-1.87h20.44v-5.84h-20.44c-1.05,0-1.87-.88-1.87-1.87,0-1.05.83-1.87,1.87-1.87h20.44v-5.89h-20.44c-1.05,0-1.87-.83-1.87-1.87s.83-1.87,1.87-1.87h20.44l-.06-5.84h-20.38c-1.05,0-1.87-.88-1.87-1.87,0-1.05.83-1.87,1.87-1.87h20.38v-5.89h-20.38c-1.05,0-1.87-.83-1.87-1.87s.83-1.87,1.87-1.87h20.38c-.11-6.56-5.45-11.79-12.01-11.79h0Zm-5.95,98.99c-1.82,0-3.3-1.49-3.3-3.25s1.49-3.31,3.3-3.31,3.31,1.49,3.31,3.31-1.49,3.25-3.31,3.25h0Z"/>
  </g>
  <path class="cls-1" d="m96.17,93.5c0,.32-.27.59-.6.59s-.6-.27-.6-.59.27-.6.6-.6.6.27.6.6Z"/>
  <path class="cls-2" d="m96.17,93.5c0,.32-.27.59-.6.59s-.6-.27-.6-.59.27-.6.6-.6.6.27.6.6Z"/>
  <g>
    <path class="cls-4" d="m92.59,11.23h5.96c.08,0,.14.06.14.14v63.03c0,.08-.06.14-.14.14h-5.96c-.08,0-.14-.06-.14-.14V11.37c0-.08.06-.14.14-.14Z"/>
    <path d="m98.19,11.73v62.3h-5.24V11.73h5.24m.36-1h-5.96c-.35,0-.64.29-.64.64v63.03c0,.35.29.64.64.64h5.96c.35,0,.64-.29.64-.64V11.37c0-.35-.29-.64-.64-.64h0Z"/>
  </g>
  <g>
    <path class="cls-3" d="m91.02,120.02c-.08,0-.14-.06-.14-.14v-45.15c0-2.35,1.91-4.26,4.26-4.26h.85c2.35,0,4.26,1.91,4.26,4.26v45.15c0,.08-.06.14-.14.14h-9.1Z"/>
    <path d="m96,70.97c2.07,0,3.76,1.69,3.76,3.76v44.79h-8.38v-44.79c0-2.07,1.69-3.76,3.76-3.76h.85m0-1h-.85c-2.63,0-4.76,2.13-4.76,4.76v45.15c0,.35.29.64.64.64h9.1c.35,0,.64-.29.64-.64v-45.15c0-2.63-2.13-4.76-4.76-4.76h0Z"/>
  </g>
  <rect x="79.65" y="14.62" width="31.85" height="1.21"/>
  <rect x="79.65" y="19.55" width="31.85" height="1.21"/>
  <rect x="79.65" y="24.47" width="31.85" height="1.21"/>
  <rect x="79.65" y="29.39" width="31.85" height="1.21"/>
  <rect x="79.65" y="34.31" width="31.85" height="1.21"/>
  <rect x="79.65" y="39.24" width="31.85" height="1.21"/>
  <rect x="79.65" y="49.08" width="31.85" height="1.21"/>
  <rect x="79.65" y="44.16" width="31.85" height="1.21"/>
  <rect x="79.65" y="54" width="31.85" height="1.21"/>
  <rect x="79.65" y="58.93" width="31.85" height="1.21"/>
  <rect x="79.65" y="63.85" width="31.85" height="1.21"/>
  <rect x="79.65" y="16.25" width="31.85" height="1.21"/>
  <rect x="79.65" y="21.18" width="31.85" height="1.21"/>
  <rect x="79.65" y="26.1" width="31.85" height="1.21"/>
  <rect x="79.65" y="31.02" width="31.85" height="1.21"/>
  <rect x="79.65" y="35.94" width="31.85" height="1.21"/>
  <rect x="79.65" y="40.86" width="31.85" height="1.21"/>
  <rect x="79.65" y="50.71" width="31.85" height="1.21"/>
  <rect x="79.65" y="45.79" width="31.85" height="1.21"/>
  <rect x="79.65" y="55.63" width="31.85" height="1.21"/>
  <rect x="79.65" y="60.55" width="31.85" height="1.21"/>
  <rect x="79.65" y="65.48" width="31.85" height="1.21"/>
  <rect class="cls-5" x="-1617.14" y="-2320.85" width="6467.34" height="6437.3"/>
</svg>