<?xml version="1.0" encoding="UTF-8"?>
<svg id="Calque_1" data-name="Calque 1" xmlns="http://www.w3.org/2000/svg" viewBox="0 0 128 128">
  <defs>
    <style>
      .cls-1 {
        fill: #87ccf3;
      }

      .cls-1, .cls-2, .cls-3, .cls-4 {
        stroke-linecap: round;
        stroke-linejoin: round;
      }

      .cls-1, .cls-2, .cls-5, .cls-6 {
        stroke: #000;
      }

      .cls-2 {
        fill: #fff;
      }

      .cls-3 {
        stroke: #222221;
      }

      .cls-3, .cls-4, .cls-6 {
        fill: none;
      }

      .cls-7, .cls-5 {
        fill: #f3d587;
      }

      .cls-8 {
        fill: #d6d6d6;
      }

      .cls-9 {
        fill: #222221;
      }

      .cls-5, .cls-6 {
        stroke-miterlimit: 10;
      }

      .cls-4 {
        stroke: #fff;
        stroke-width: 8px;
      }
    </style>
  </defs>
  <g>
    <path class="cls-1" d="m86.29,93.56l.38,8.65h-47.31c.77-4.1,1.78-8.1,1.78-8.1-3.43-2.17-7.3-5.59-10.79-9l7.36-8.84c3.98,1.6,7.9,2.81,10.59,3.24.79.12,1.47.18,2.01.15l26.95.38c.54-.18,1.3-.42,2.23-.73,2.73-.91,6.85-2.38,11.02-4.09l5.76,10.25c-3.3,3.11-6.84,6.12-9.96,8.09Z"/>
    <path class="cls-2" d="m90.86,66.64c.06,1.72-1.07,3.42-2.68,4.03-.98.37-2.08.32-3.05-.07-.95,2.7-2.4,5.22-4.31,7.35-5.96,6.67-16.1,9.04-24.57,6.15-6.54-2.23-11.88-7.38-14.79-13.66-.9.3-1.89.32-2.78-.02-1.61-.61-2.74-2.31-2.67-4.04.01-.51.13-1.01.26-1.51.09-.35.2-.71.38-1.03.57-.96,1.78-1.36,2.89-1.22.06-1.67.27-4.22.95-7.07.36-1.53.86-3.15,1.55-4.76,2.77-6.54,8.59-12.98,20.69-13.18,0,0,13.53-1.42,20.22,9.83.61,1.03,1.13,2.1,1.57,3.21.65,1.63,1.12,3.33,1.43,5.07.45,2.42.59,4.92.48,7.38.18-.07.35-.12.51-.16,1.21-.3,2.64.09,3.27,1.16.18.32.29.67.38,1.03.14.49.25,1,.27,1.51Z"/>
    <path class="cls-2" d="m30.35,85.11c-5.81-5.68-10.56-11.36-10.56-11.36-1.25-.77-2.34-1.85-3.15-3.13-.4-.63-.73-1.43-.46-2.14.03-.08.07-.16.15-.19.14-.06.28.08.36.21.28.41.57.83.85,1.24-.33-.47-.67-.96-.81-1.53-.14-.57-.04-1.26.39-1.64.28.51.62.98,1.01,1.39-.54-.57-.77-1.45-.58-2.25.04-.16.1-.34.24-.42.23-.13.5.07.68.28.42.48.79,1.03,1.08,1.61-.33-.51-.56-1.11-.65-1.73-.04-.27-.05-.57.06-.82.11-.25.36-.45.62-.4.13.03.25.12.35.22.74.71,1.11,1.76,1.71,2.6.08.11.18.22.3.22.1,0,.19-.07.25-.16.27-.33.34-.79.52-1.18.18-.39.62-.74.97-.53.25.14.32.48.36.78.09.81.22,1.54.04,2.34,2.45,2.54,8.07,5.5,13.61,7.73l-7.35,8.85Z"/>
    <path class="cls-2" d="m96.25,85.47l-5.76-10.25c5.51-2.25,11.06-4.95,13.41-7.4-.18-.79-.04-1.52.04-2.34.04-.3.11-.64.35-.77.37-.2.8.14.98.53.19.39.26.86.53,1.18.07.08.15.15.24.15.14,0,.23-.11.31-.22.6-.84.96-1.9,1.71-2.61.09-.1.22-.18.35-.22.24-.04.5.15.61.41.11.26.1.54.05.83-.05.42-.19.84-.38,1.24.24-.39.52-.77.81-1.13.19-.2.45-.41.69-.29.14.08.2.26.24.42.18.8-.05,1.68-.58,2.25.39-.42.73-.88,1-1.4.43.38.53,1.07.39,1.64-.09.43-.31.81-.56,1.17.19-.3.39-.58.6-.88.1-.12.23-.27.37-.22.07.04.11.12.15.2.27.71-.07,1.51-.46,2.13-.81,1.29-1.9,2.38-3.15,3.14,0,0-5.55,6.41-11.97,12.42Z"/>
    <path class="cls-9" d="m50.56,64.13c0,.81-.56,1.47-1.24,1.47s-1.24-.66-1.24-1.47.56-1.47,1.24-1.47,1.24.66,1.24,1.47Z"/>
    <path class="cls-9" d="m78.78,64.13c0,.81-.56,1.47-1.24,1.47s-1.24-.66-1.24-1.47.56-1.47,1.24-1.47,1.24.66,1.24,1.47Z"/>
    <path class="cls-3" d="m63.89,68.92c.66-.32,1.13-1.03,1.11-1.76-.02-.73-.59-1.43-1.31-1.54-.4-.06-.8.04-1.19.14"/>
    <path class="cls-5" d="m104.57,42.67c-3.48,12.39-13.06,14.01-18.62,13.05-.22-.04-.42-.08-.62-.12-9.3,2.26-17.34,3.02-23.98,3.02-11.56,0-18.81-2.32-20.86-3.07.36-1.53.86-3.15,1.55-4.76,1.86.69,17.51,6.01,42.48-.14.07-.02.14-.03.21-.05l.63-.16.63.17c1.05.28,10.48,2.41,13.76-9.3l4.82,1.36Z"/>
    <line class="cls-6" x1="43.7" y1="51.33" x2="42.44" y2="56.19"/>
    <line class="cls-6" x1="46.77" y1="52.35" x2="45.82" y2="57.28"/>
    <line class="cls-6" x1="49.85" y1="52.7" x2="49.03" y2="57.65"/>
    <line class="cls-6" x1="52.99" y1="53.44" x2="52.49" y2="58.43"/>
    <line class="cls-6" x1="56.31" y1="53.48" x2="55.91" y2="58.48"/>
    <line class="cls-6" x1="59.51" y1="53.95" x2="59.42" y2="58.97"/>
    <line class="cls-6" x1="63.16" y1="53.41" x2="63.29" y2="58.43"/>
    <line class="cls-6" x1="66.38" y1="53.55" x2="66.84" y2="58.54"/>
    <line class="cls-6" x1="69.83" y1="53.31" x2="70.42" y2="58.29"/>
    <line class="cls-6" x1="73.05" y1="53.14" x2="73.96" y2="58.07"/>
    <line class="cls-6" x1="76.5" y1="52.26" x2="77.1" y2="57.24"/>
    <line class="cls-6" x1="79.02" y1="52.09" x2="79.93" y2="57.03"/>
    <line class="cls-6" x1="81.85" y1="51.06" x2="82.44" y2="56.04"/>
    <line class="cls-6" x1="85.07" y1="50.9" x2="85.98" y2="55.83"/>
    <path class="cls-7" d="m84.54,53.55c-9.3,1.91-16.86,3.54-23.49,3.18-11.72-.65-17.42-2.31-19.47-2.95.36-1.3-.02-1.01.67-2.37,1.86.58,17.14,5.51,41.17,0"/>
    <line class="cls-6" x1="88.12" y1="55.94" x2="88.12" y2="54.07"/>
    <line class="cls-6" x1="91.14" y1="55.64" x2="90.95" y2="53.79"/>
    <line class="cls-6" x1="94.31" y1="54.97" x2="93.82" y2="53.17"/>
    <line class="cls-6" x1="97.13" y1="53.74" x2="96.35" y2="52.05"/>
    <line class="cls-6" x1="99.9" y1="51.71" x2="98.62" y2="50.35"/>
    <line class="cls-6" x1="101.54" y1="49.26" x2="100.17" y2="48.38"/>
    <line class="cls-6" x1="103.23" y1="46.41" x2="101.54" y2="45.63"/>
    <g>
      <path class="cls-6" d="m81.41,41.44c5.37.68,8.74,1.67,8.74,2.76,0,2.06-11.96,3.74-26.72,3.74s-26.72-1.67-26.72-3.74c0-1.09,3.34-2.07,8.66-2.75"/>
      <polygon points="83.15 43.43 81.7 41.51 83.62 40.07 82.2 39.87 80.28 41.31 81.72 43.22 83.15 43.43"/>
      <polygon points="43.64 43.44 45.08 41.52 43.17 40.08 44.59 39.88 46.51 41.32 45.07 43.23 43.64 43.44"/>
    </g>
    <g>
      <path class="cls-8" d="m57.34,26.09c.31-.2.68-.3,1.13-.3.59,0,1.08.14,1.47.42s.58.7.58,1.25c0,.34-.08.62-.25.86-.1.14-.29.32-.57.54l-.28.21c-.15.12-.25.25-.3.41-.03.1-.05.25-.05.46h-1.06c.02-.44.06-.74.12-.91.07-.17.24-.36.52-.58l.28-.22c.09-.07.17-.15.23-.23.1-.14.16-.3.16-.47,0-.2-.06-.38-.17-.54-.12-.16-.33-.24-.63-.24s-.52.1-.64.3c-.13.2-.19.41-.19.62h-1.13c.03-.74.29-1.27.78-1.58Zm.65,4.39h1.17v1.13h-1.17v-1.13Z"/>
      <path d="m64.03,28.87c-.02-.16-.07-.3-.16-.43-.13-.17-.32-.26-.58-.26-.38,0-.63.19-.77.56-.07.2-.11.46-.11.79s.04.56.11.75c.13.35.38.53.75.53.26,0,.45-.07.56-.21.11-.14.18-.32.2-.55h1.14c-.03.34-.15.66-.37.96-.35.49-.87.73-1.55.73s-1.19-.2-1.51-.61c-.32-.41-.48-.93-.48-1.58,0-.73.18-1.3.54-1.71.36-.41.85-.61,1.48-.61.53,0,.97.12,1.31.36.34.24.54.66.6,1.27h-1.14Z"/>
      <path d="m71.25,27.36c.18.07.35.2.5.38.12.15.2.33.24.55.03.14.04.35.04.63v2.68h-1.15v-2.71c0-.16-.03-.29-.08-.4-.1-.2-.28-.3-.55-.3-.31,0-.52.13-.64.38-.06.14-.09.3-.09.49v2.54h-1.12v-2.54c0-.25-.03-.44-.08-.55-.09-.21-.28-.31-.55-.31-.32,0-.53.1-.64.31-.06.12-.09.29-.09.52v2.56h-1.13v-4.25h1.08v.62c.14-.22.27-.38.39-.47.22-.17.5-.25.84-.25.33,0,.59.07.79.21.16.13.28.3.37.51.15-.25.33-.43.54-.55.23-.12.48-.18.77-.18.19,0,.37.04.55.11Z"/>
    </g>
  </g>
  <rect class="cls-4" x="-2337.44" y="-4096.59" width="6467.34" height="6437.3"/>
</svg>