<?xml version="1.0" encoding="UTF-8"?>
<svg id="Calque_1" data-name="Calque 1" xmlns="http://www.w3.org/2000/svg" viewBox="0 0 128 128">
  <defs>
    <style>
      .cls-1 {
        fill: #d6d6d6;
      }

      .cls-1, .cls-2, .cls-3, .cls-4, .cls-5, .cls-6, .cls-7, .cls-8 {
        stroke-linecap: round;
        stroke-linejoin: round;
      }

      .cls-1, .cls-2, .cls-3, .cls-4, .cls-5, .cls-9, .cls-7, .cls-8 {
        stroke: #000;
      }

      .cls-2 {
        fill: #87ccf3;
      }

      .cls-3, .cls-10 {
        fill: #fce9b9;
      }

      .cls-4 {
        fill: #fff;
      }

      .cls-5, .cls-6, .cls-9 {
        fill: none;
      }

      .cls-10 {
        stroke: #fce9b9;
      }

      .cls-10, .cls-9 {
        stroke-miterlimit: 10;
      }

      .cls-6 {
        stroke: #fff;
        stroke-width: 8px;
      }

      .cls-8 {
        fill: #f3d587;
        stroke-width: .75px;
      }
    </style>
  </defs>
  <path class="cls-2" d="m42.09,99.05c-.1-.09-.19-.18-.29-.27-.36-.49-.35-1.29.12-1.68.57-.48-.17-.52-1.31-.82-1.15-.3,1.34-1.75,1.34-1.75,0,0,.15-.11.39-.29.87-.66,2.14-1.75,3.27-1.84.99-.1,1.87.3,2.83.42,1.09.12,2.11-.17,3.16-.44,1.91-.52,3.57-2.37,4.89-3.72,2.08-2.12,3.97-4.38,5.84-6.67,1.77-2.18,3.38-4.51,5.31-6.56,1.18-1.25,2.91-2.25,2.7-4.21,0,0-.78-6.2-.44-11.68.01-.16.02-.33.04-.49,0,0,3.8,1.55,8.95.35.8,1.63,1.51,3.31,2.12,4.98-.03.35-.07.69-.11,1.03-.18,1.42-.39,2.9-.58,4.11-.03.19-.06.37-.09.55-.15.91-.32,1.81-.5,2.71,0,.01-.01.02-.01.03-.24,1.24-.35,2.55-.62,3.8-.18.89-.46,1.75-.92,2.55-.61,1.06-1.46,1.94-2.33,2.78-.78.76-1.79,1.44-2.46,2.27-.1.12-.21.26-.28.42"/>
  <path class="cls-4" d="m81.21,61.47c0,.7-.06,1.71-.19,2.83v.07c-.04.34-.08.69-.12,1.04-.18,1.42-.39,2.9-.58,4.11-.03.19-.06.37-.09.55-.19,1.23-.34,2.06-.34,2.06,0,0-.03.12-.07.33,0,.05-.02.1-.04.16,0,.01,0,.03,0,.04-.01.04-.03.08-.04.12,0,.01-.01.02-.01.03-.2.61-.29,1.24-.38,1.89-.08.63-.14,1.28-.24,1.91-.04.3-.1.59-.17.88-.09.33-.19.66-.31.97-.01,0-.02.03-.03.04-.03.08-.05.15-.09.23-.09.18-.17.36-.3.54-.03.05-.06.11-.1.16-.02.05-.05.08-.08.12-.72,1.09-1.76,2.1-2.62,2.97-.71.73-1.52,1.38-2.25,2.08h-.01s-.02.02-.03.03c-.39.37-.79.74-1.21,1.11-2.08,1.9-4.39,3.8-6.43,5.08-4.93,3.11-11.33,8.3-12.18,8.91-.82.59-2.99,2.72-4.47,3.27-.03.01-.06.03-.09.03-1.48.51-2.32-.78-3.37-.84-1.05-.06-1.38-.57-2.23-1.18-.84-.61-.4-1.55-1.04-1.96-.1-.09-.19-.18-.29-.27-.36-.49-.35-1.29.12-1.68.57-.48-.17-.52-1.31-.82-1.15-.3,1.34-1.75,1.34-1.75,0,0,.15-.11.39-.29.87-.66,2.14-1.75,3.27-1.84.99-.1,1.87.3,2.83.42,1.09.12,2.11-.17,3.16-.44,1.91-.52,3.57-2.37,4.89-3.72,2.08-2.12,3.97-4.38,5.84-6.67,1.77-2.18,3.38-4.51,5.31-6.56,1.18-1.25,2.91-2.25,2.7-4.21,0,0-.78-6.2-.44-11.68.01-.16.02-.33.04-.49,0,0,3.8,1.55,8.95.35.74-.17,1.52-.4,2.31-.7,0,.3,0,.62,0,.94,0,.61,0,1.23.02,1.83Z"/>
  <path class="cls-4" d="m46.56,19.19s-.44,3.41,2.6,8.2c3.04,4.79,2.56,5.67,2.56,6.55s1.87,0,1.87,0c0,0,4.7,4.04,7.67,2.4.66-.36,1.22-1,1.64-2.01.2-.48.32-.97.37-1.48.42.15.85.28,1.29.42,1.92,4.07-1.91,8.1-1.91,8.1,0,0,0,0-.01,0-.36-.14-8.24-3.25-11.93-6.6-3.72-3.39-10.13-9.01-4.9-20.59.08-.17.16-.35.25-.53,2.58-5.44,9.22-7.79,14.92-7.33,9.75.79,11.62,8.95,14.87,16.44,1.61,3.71,3.37,7.36,5.45,10.84.18.3.34.6.5.89,5.44,10.25-.5,20.76-.5,20.76"/>
  <path class="cls-2" d="m81.29,55.23s-.07,1.57-.09,3.47c-.79.3-1.57.53-2.31.7-5.15,1.2-8.95-.35-8.95-.35-.02.16-.03.33-.04.49-.34,5.48.44,11.68.44,11.68.21,1.96-1.52,2.96-2.7,4.21-1.93,2.05-3.54,4.38-5.31,6.56-1.87,2.29-3.76,4.55-5.84,6.67-1.32,1.35-2.98,3.2-4.89,3.72-1.05.27-2.07.56-3.16.44-.96-.12-1.84-.52-2.83-.42-1.13.09-2.4,1.18-3.27,1.84-.24.18-.39.29-.39.29,0,0-2.49,1.45-1.34,1.75,1.14.3,1.88.34,1.31.82-.47.39-.48,1.19-.12,1.68-29.12-17.86,7.32-37.66,7.32-37.66l.23-.63s.01-.02.01-.03c.47-1.07.72-2.1.64-3,.74-4.26,3.31-7.78,6.64-9.84,1.89-2.02,3.77-3.97,4.91-5.14,0,0,.01,0,.02,0,.28.09,3.7,1.17,6.22,0,.42,1.77,1.01,3.56,1.82,5.21h.01c2.07,4.19,5.62,7.51,11.65,7.53h.02Z"/>
  <path class="cls-4" d="m67.79,42.48c-2.52,1.18-5.94.1-6.22,0,0,0-.02,0-.02,0,.68-.7,1.1-1.12,1.1-1.12,0,0,3.96-4.16,1.81-8.29l-1.24.14c-.06.38-.17.75-.32,1.12-.42,1.01-.98,1.64-1.65,2.01-2.97,1.63-7.66-2.4-7.66-2.4,0,0-1.87.88-1.87,0s.47-1.75-2.57-6.55c-3.04-4.8-2.6-8.19-2.6-8.19,2.84-5.19,1.02,5.14,10.07.46.31-.16.54.44.83.64,1.83,1.24,2.2,11.17,9.39,10.43,0,0-.47,5.8.95,11.75Z"/>
  <rect class="cls-1" x="38.88" y="114.79" width="39.83" height="7.66"/>
  <path class="cls-4" d="m78.29,97.02l-5.71-1.38.53-11.01s.02-.02.03-.03h.01c.73-.7,1.54-1.35,2.25-2.08.86-.87,1.9-1.88,2.62-2.97.03-.04.06-.07.08-.12.04-.05.07-.11.1-.16v16.88s.04.26.08.73c0,.04.01.09.01.14Z"/>
  <path class="cls-2" d="m38.88,114.79h27.57c12-3.27,12.07-14.55,11.84-17.77l-5.71-1.38.53-11.01c-.39.37-.79.74-1.21,1.11-2.08,1.9-4.39,3.8-6.43,5.08-4.93,3.11-11.33,8.3-12.18,8.91-.82.59-2.99,2.72-4.47,3.27-.03.01-.06.03-.09.03-1.48.51-2.32-.78-3.37-.84-1.05-.06-1.38-.57-2.23-1.18l-14.08,4.33s-3.52,1.19-1.44,14.81h11.27v-5.36Z"/>
  <path class="cls-2" d="m78.34,97.03h-.05c0-.06-.01-.11-.01-.15l.06.15Z"/>
  <path class="cls-4" d="m67.79,42.48c-2.52,1.18-5.94.1-6.22,0,0,0-.02,0-.02,0"/>
  <g>
    <line class="cls-9" x1="88.38" y1="90.09" x2="79.52" y2="88.93"/>
    <path class="cls-5" d="m119.94,96.4l-25.96-3.65c.1-.16.19-.33.27-.5.39-.84.52-1.78.38-2.69-.03-.18-.07-.37-.12-.55l25.96,3.65-.53,3.74Z"/>
    <path class="cls-3" d="m103,94.02l-9.02-1.27c.1-.16.19-.33.27-.5.39-.84.52-1.78.38-2.69-.03-.18-.07-.37-.12-.55l9.02,1.27-.53,3.74Z"/>
    <path class="cls-5" d="m94.24,92.25l-1.86-.26-1.33-.79-2.77-1.16,2.98-.34,1.5-.4,1.86.26c.15.92.01,1.86-.38,2.69Z"/>
    <line class="cls-5" x1="120.9" y1="90.31" x2="119.71" y2="98.78"/>
    <rect class="cls-7" x="105.67" y="92.52" width="9.14" height="1.23" transform="translate(217.82 -3.07) rotate(98.01)"/>
    <line class="cls-9" x1="100.12" y1="91.71" x2="99.86" y2="93.58"/>
    <line class="cls-9" x1="98.1" y1="91.42" x2="97.83" y2="93.29"/>
    <line class="cls-9" x1="96.05" y1="91.13" x2="95.79" y2="93"/>
  </g>
  <circle class="cls-10" cx="75.71" cy="88.27" r=".94"/>
  <polygon class="cls-8" points="22.09 58.44 25.98 64.97 29.12 63.1 33.62 69.19 30.16 58.23 26.58 59.1 24.31 55.29 22.09 58.44"/>
  <polygon class="cls-8" points="21.81 72.22 25.59 74.24 26.28 72.46 30.17 74.09 25.11 69.83 23.91 71.26 21.7 70.09 21.81 72.22"/>
  <path class="cls-4" d="m54.68,27.05s-.71,1.75-2.62,1.33"/>
  <rect class="cls-6" x="-3001.09" y="-3875.04" width="6467.34" height="6437.3"/>
</svg>