<?xml version="1.0" encoding="UTF-8"?>
<svg xmlns="http://www.w3.org/2000/svg" viewBox="0 0 200 128">
  <defs>
    <style>
      .cls-1 {
        fill: #ffd4ad;
      }

      .cls-1, .cls-2, .cls-3, .cls-4, .cls-5, .cls-6, .cls-7, .cls-8, .cls-9, .cls-10 {
        stroke: #000;
      }

      .cls-1, .cls-2, .cls-5, .cls-6, .cls-11 {
        stroke-linecap: round;
        stroke-linejoin: round;
      }

      .cls-2, .cls-3, .cls-5 {
        fill: #fff;
      }

      .cls-12 {
        fill: #ff6d75;
      }

      .cls-3, .cls-4, .cls-5, .cls-6 {
        stroke-width: 2px;
      }

      .cls-3, .cls-4, .cls-7, .cls-8, .cls-9, .cls-10 {
        stroke-miterlimit: 10;
      }

      .cls-4 {
        fill: #87ccf3;
      }

      .cls-6, .cls-11, .cls-9 {
        fill: none;
      }

      .cls-7, .cls-10 {
        fill: #d6d6d6;
      }

      .cls-8 {
        fill: #b2f0e9;
      }

      .cls-11 {
        stroke: #fff;
        stroke-width: 8px;
      }

      .cls-13 {
        isolation: isolate;
      }

      .cls-10 {
        mix-blend-mode: multiply;
        opacity: .8;
      }
    </style>
  </defs>
  <g class="cls-13">
    <g id="Calque_1" data-name="Calque 1">
      <path class="cls-3" d="m67.44,20.55c.27-.48.72-.84,1.22-1.07.75-.35,1.61-.44,2.42-.26.65.15,1.25.47,1.87.72.61.25,1.25.44,1.9.58.65.14,1.32.23,1.92.52.6.29,1.13.83,1.19,1.49.05.59-.29,1.16-.71,1.57-.32.31-.71.57-1.15.63-.47.07-.95-.1-1.4-.26-1.88-.66-3.79-1.2-5.73-1.64-.49-.11-1.19-.23-1.53-.65-.35-.44-.24-1.18,0-1.64Z"/>
      <path class="cls-3" d="m91.85,26.77s-4.09,6.07-10.33,3.75c-6.24-2.32-12.17-10.28-20.44-7.37-8.27,2.9-12.34,10.16-10.01,17.71,2.32,7.54,8.56,10.88,14.51,10.74,5.95-.15,14.41-2.73,18.38-3.91,3.97-1.17,8.91.26,10.36,2.44,1.45,2.19,18.72,1.46,18.72,1.46l42.67.11,1.6-26.68-2.61-8.71-18.43,3.34-27.43,2.58-16.98,4.53Z"/>
      <path class="cls-4" d="m91.58,36.05s.2-4.31-.89-8.01c0,0,2.03-6.13,2.25-7.95.22-1.81,2.68-7.04,7.62-7.4,4.93-.36,9.8.05,14.69,1.47,4.9,1.41,12.28,4.74,16.11,5.17,3.83.43,19.95-2.4,19.95-2.4,0,0-9.32,2.51-16.65,5.85-7.33,3.34-26.91,7.33-30.8,9.07-3.89,1.74-12.28,4.21-12.28,4.21Z"/>
      <path class="cls-4" d="m91.58,36.05s-.07,10,0,12.69c.07,2.69,1.96,5.75,5.88,6.36,3.92.61,23.81.04,27.51-.18,3.7-.22,34.67,2.08,29.16-2.84,0,0-24.63-3.05-31.29-3.48-6.66-.44-18.49-3.05-23.06-5.01s-8.2-7.55-8.2-7.55Z"/>
      <path class="cls-4" d="m151.31,54.93c.24-1.12,1.59-7.12,1.73-8.37.38-3.47.37-7.36.17-11.13v-.23c-.03-.63-.07-1.24-.12-1.85t-.02-.03c-.59-8.53-2.04-16.03-2.08-16.31l-.02-.02.02-.02h.05l.02-.02c.99-.45,2.02-.91,2.93-1.31,1.73-.73,3.58-1.12,5.46-1.1,4.53.03,7.74.94,9.96,2.01v38.37"/>
      <path class="cls-7" d="m15.94,25.08v85.91H7.43V25.08c0-2.35,1.91-4.25,4.25-4.25,1.17,0,2.24.48,3.01,1.25.05.05.11.11.16.17.68.75,1.09,1.75,1.09,2.84Z"/>
      <path class="cls-7" d="m169.42,54.93v17.55H15.98v-5.98c0-3.89,1.92-7.33,4.85-9.42,1.9-1.36,4.22-2.15,6.72-2.15h141.87Z"/>
      <rect class="cls-7" x="15.94" y="86.49" width="153.47" height="6.02"/>
      <circle class="cls-7" cx="11.68" cy="115.38" r="8.87"/>
      <circle class="cls-10" cx="11.68" cy="115.38" r="5"/>
      <rect class="cls-7" x="15.98" y="72.47" width="153.44" height="13.69"/>
      <rect class="cls-8" x="27.57" y="46.7" width="63.97" height="8.51" rx="4.26" ry="4.26"/>
      <path class="cls-5" d="m62.96,22.63s7.89-2.59,14.31,2.97,9.26,14.22,4.92,20.04h-28.77s-2.47-.13-2.57-5.58c0,0-1.17,1.13-1.17,3.38,0,0-7.83-19.47,13.28-20.81Z"/>
      <ellipse class="cls-12" cx="145.08" cy="36.36" rx="1.44" ry="1.62"/>
      <line class="cls-9" x1="155.66" y1="30.22" x2="145.59" y2="35.71"/>
      <path class="cls-2" d="m193.16,12.92l-29.68,15.83c-.02-.24-.05-.48-.1-.71-.22-1.16-.8-2.24-1.64-3.08-.17-.17-.35-.33-.54-.48l29.68-15.83,2.28,4.27Z"/>
      <path class="cls-1" d="m173.79,23.24l-10.32,5.5c-.02-.24-.05-.48-.1-.71-.22-1.16-.8-2.24-1.64-3.08-.17-.17-.35-.33-.54-.48l10.32-5.5,2.28,4.27Z"/>
      <path class="cls-2" d="m163.38,28.03l-2.12,1.13-1.98.18-3.75.89,2.83-2.61,1.26-1.54,2.12-1.13c.84.84,1.42,1.92,1.64,3.08Z"/>
      <line class="cls-6" x1="189.56" y1="5.88" x2="194.72" y2="15.56"/>
      <rect x="174.77" y="16.06" width="11.73" height="1.58" transform="translate(110.51 -150.47) rotate(61.93)"/>
      <line class="cls-9" x1="169.06" y1="23.02" x2="170.2" y2="25.16"/>
      <line class="cls-9" x1="166.75" y1="24.26" x2="167.89" y2="26.4"/>
      <line class="cls-9" x1="164.41" y1="25.5" x2="165.55" y2="27.64"/>
      <rect class="cls-11" x="-2732.68" y="-3875.04" width="6467.34" height="6437.3"/>
    </g>
  </g>
</svg>