<?xml version="1.0" encoding="UTF-8"?>
<svg id="Calque_1" data-name="Calque 1" xmlns="http://www.w3.org/2000/svg" viewBox="0 0 200 128">
  <defs>
    <style>
      .cls-1, .cls-2, .cls-3, .cls-4, .cls-5, .cls-6, .cls-7, .cls-8, .cls-9, .cls-10, .cls-11, .cls-12, .cls-13, .cls-14, .cls-15, .cls-16, .cls-17 {
        stroke: #000;
      }

      .cls-1, .cls-2, .cls-3, .cls-4, .cls-5, .cls-7, .cls-18, .cls-8, .cls-9, .cls-12, .cls-13, .cls-19, .cls-14, .cls-20, .cls-15, .cls-16, .cls-17 {
        stroke-linejoin: round;
      }

      .cls-1, .cls-2, .cls-3, .cls-4, .cls-7, .cls-18, .cls-12, .cls-13, .cls-19, .cls-14, .cls-20, .cls-15, .cls-16, .cls-17 {
        stroke-linecap: round;
      }

      .cls-1, .cls-21 {
        fill: #76ac75;
      }

      .cls-2, .cls-22 {
        fill: #d6d6d6;
      }

      .cls-3 {
        fill: #876b68;
      }

      .cls-4, .cls-5, .cls-18, .cls-19, .cls-14, .cls-17 {
        fill: none;
      }

      .cls-23, .cls-7, .cls-9, .cls-12, .cls-16 {
        fill: #fff;
      }

      .cls-24 {
        fill: #a07637;
      }

      .cls-5, .cls-8, .cls-9, .cls-17 {
        stroke-width: 3px;
      }

      .cls-6 {
        fill: #baa584;
        stroke-width: .5px;
      }

      .cls-6, .cls-10, .cls-11 {
        stroke-miterlimit: 10;
      }

      .cls-7 {
        stroke-width: .98px;
      }

      .cls-18 {
        stroke: #ff6d75;
        stroke-width: 2px;
      }

      .cls-8 {
        fill: #87ccf3;
      }

      .cls-10, .cls-13 {
        fill: #f3d587;
      }

      .cls-11 {
        fill: #b4eac3;
      }

      .cls-12, .cls-13, .cls-14, .cls-20 {
        stroke-width: 1.3px;
      }

      .cls-19 {
        stroke-width: 8px;
      }

      .cls-19, .cls-20 {
        stroke: #fff;
      }

      .cls-16 {
        stroke-width: 1.08px;
      }
    </style>
  </defs>
  <line class="cls-5" x1="129.14" y1="60.99" x2="129.14" y2="91.68"/>
  <polyline class="cls-17" points="85.36 29.15 87.84 29.11 119.46 27.31 129.56 61.69 89.19 67.49 78.31 68.85 72.12 69.62 47.48 72.69 42.58 73.31 40.15 73.61 12.81 77.02 7.76 33.96 52.79 31.23 54.41 31.14 71.6 30.09 71.61 30.09 72.26 30.06 73.24 30"/>
  <line class="cls-5" x1="40.87" y1="31.57" x2="46.36" y2="73.24"/>
  <line class="cls-5" x1="85.36" y1="29.88" x2="93.81" y2="69.58"/>
  <line class="cls-5" x1="50.16" y1="30.86" x2="55.65" y2="72.53"/>
  <line class="cls-8" x1="58.47" y1="29.74" x2="63.96" y2="71.41"/>
  <line class="cls-8" x1="67.48" y1="29.17" x2="72.97" y2="70.85"/>
  <path class="cls-3" d="m111.96,122.03c-1.39.24-2.88.13-4.28.13-4.02,0-8.03-.19-12.05-.39-.64-.03-1.3-.07-1.88-.33-.46-.21-.86-.55-1.13-.97-.17-.26-.28-.55-.32-.86-.01-.11-.02-.21,0-.32.03-.43.19-.84.34-1.24.29-.74.42-1.27.71-2.01,3.19,0,6.36-.59,9.44-1.44.31.15.62.31.92.47l5.33,2.69c.72.36,1.44.73,2.16,1.09.17.09.34.17.52.26.51.26,1.23.42,1.61.88.08.11.15.23.19.37.3,1.07-.69,1.51-1.57,1.66Z"/>
  <path class="cls-1" d="m80.2,18.17l-1.17,1.29c-2.04.08-4.43.11-7.23.06-.47.28-.92.58-1.3.87l-1.31,1.52c.36.64.75,1.33,1.16,2.02.61,1.03,1.28,2.06,1.96,2.98l-.84.93-1.69-3.91-.77-1.8-1.58-3.67s-.03-.06-.04-.08c-.03-.07-.05-.11-.05-.11.28-.39,1.57-.78,3.25-1.04.69-.11,1.44-.2,2.22-.25h.03c.5-.04,1-.06,1.51-.06.81-.02,1.61.01,2.36.09h.01c.27.03.54.07.79.12h.02c.86.13,1.61.36,2.17.68.02.02.04.03.07.04.16.1.31.2.43.32Z"/>
  <polygon points="35.33 90.09 35.33 93.85 156.21 75.18 156.21 71.42 35.33 90.09"/>
  <polygon class="cls-9" points="12.81 77.03 35.33 90.09 154.76 71.69 129.94 61.88 12.81 77.03"/>
  <path class="cls-2" d="m56.93,72.59l12.19-10.76,20.49,7.33c10.11,4.65,13.63-.87,13.92,13.77.28,14.64-1.36,31.83-1.36,31.83l-6.66,1.5-5.07-33.45-33.5-10.22Z"/>
  <path class="cls-2" d="m97.84,119.09l-9.95.32-1.55-33.63s-4.18-1.05-13.63-1.06c-9.46-.01-23.65.79-27.15-2.53-3.51-3.33-2.46-9.82-2.46-9.82l22.98-7.45,11,3.33s.46.08,1.24.22c2.21.41,6.95,1.32,10.86,2.26,1.98.48,3.75.96,4.86,1.4,3.57,1.4,6.38,1.97,5.96,11.26s-2.16,35.7-2.16,35.7Z"/>
  <path class="cls-13" d="m85.07,28.23c.55.3-.34,9.45-.13,15.5.21,5.67.46,17.37,1.41,20.55l-4.78-1.67c-1.31-2.73.28-12.67.28-12.67-.77.72-1.89,11.7-2.25,12.93l-7.19-.04-7.14,4.01c-2.97.57-5.21,2.65-8.29,2.95-4.14.41-7.26,1.62-9.49,2.9-2.89,1.67-4.29,3.46-4.52,3.8-.2.3-.34-1.28-.38-3.18-.04-1.89.03-4.09.25-5.07.43-1.96,3.71-15.18,6.69-26.05,1.24-4.55,2.85-8.22,4.89-11.05,2.83-3.93,6.47-6.22,11.07-6.92.69-.11,1.33-.18,1.93-.24.08-.01.16-.01.25-.02.25-.01.53-.02.83-.03.41-.01.85-.01,1.29,0l.09,4.12c.18.63,5.36,5.07,9.53,5.07"/>
  <path class="cls-20" d="m86.74,18.62c.04-.08.08-.15.14-.23.33-.44.84-.61,1.14-.39.08.07.14.16.17.27"/>
  <path class="cls-4" d="m79.48,31.01s.03.03.05.04c1.78,1.48,2.81.08,4.33-1.7,0,0,0-.01.02-.02.19-.23.4-.46.61-.7.16-.18.47-.47.47-.47.07-.07.14-.13.2-.19,1.49-1.29,2.45-.89,2.84-1.38.45-.56-.76-3.02,1.09-5.47.21-.26.38-.52.53-.8.64-1.09.91-2.15.98-3.08-.39.28-8.1,2.07-11.57,2.22-2.04.08-4.43.11-7.23.06-.47.28-.92.58-1.3.87l-1.31,1.52c.36.64.75,1.33,1.16,2.02m6.09-.39l-.52-2.86s-3.05.92-3.2,1.01c-.14.1-.93-1.78-.93-1.78l6.98-.17.95-.02s-3.43,3.25-3.29,3.82Zm8.64-2.11c-.32.39-.72.58-.89.43-.18-.15-.06-.57.26-.96.31-.38.72-.57.89-.42.18.15.06.57-.26.95Z"/>
  <path class="cls-12" d="m85.08,21.43c-.32.39-.72.58-.89.43-.18-.15-.06-.57.26-.96.31-.38.72-.57.89-.42.18.15.06.57-.26.95Z"/>
  <path class="cls-15" d="m85.08,21.43c-.32.39-.72.58-.89.43-.18-.15-.06-.57.26-.96.31-.38.72-.57.89-.42.18.15.06.57-.26.95Z"/>
  <path class="cls-4" d="m83.45,28.22c-.38-.19-.85-.37-1.45-.53"/>
  <line class="cls-14" x1="76.6" y1="16.83" x2="76.99" y2="17.44"/>
  <path class="cls-14" d="m85.9,17.03s1.78.28,2.11.98"/>
  <path class="cls-1" d="m87.26,43.09c-.38,4.06.05,18.45,0,24.28-.01,1.09,1.92,2.28,1.92,3.34-3.91-.94-9.28-1.24-11.49-1.65l1.84-38.02c1.78,1.48,2.81.08,4.33-1.7,0,0,0-.01.02-.02.19-.23,1.08-1.17,1.08-1.17.07-.07,3.24,4.89,2.3,14.93Z"/>
  <path class="cls-4" d="m81.84,42.88s.28,5.56.21,19.36"/>
  <path class="cls-12" d="m102.13,73.82s-1.03,2.03-2.28,1.93c-.1,0-.21,0-.32,0-1.18.09-2.48,1.08-3.43.28-1.03-.87-2.59-3.19-4.31-3.65-1.72-.47-5.63-1.09-5.63-1.09,0,0-.05-1.45.52-3.14.31-.94.82-1.96,1.63-2.84,0,0,1.11.35,2.47.68,1.68.44,3.75.87,4.58.69,1.53-.34,2.96-.53,5.09.64.48.27.93.53,1.35.77,1.43.87,2.42,1.63,2.57,1.92.17.32-.66.7-1.5.58.68.18,2.14.64,2.05,1.23-.09.76-1.35.89-1.35.89,0,0,.92,1.34-1.43,1.1Z"/>
  <path class="cls-7" d="m103.49,76.84s-1.07,1.72-2.6.52c-.7-.54-1.12-1.13-1.36-1.61.11,0,.21-.01.32,0,1.26.1,2.28-1.93,2.28-1.93,2.35.24,1.43-1.1,1.43-1.1,0,0,1.26-.13,1.35-.89.09-.59-1.37-1.05-2.05-1.23.85.12,1.68-.26,1.5-.58-.15-.29-1.14-1.05-2.57-1.92.11-.05.69-.19,2.41.72,1.96,1.06,2.61,1.33,2.37,1.62-.25.3-.63.48-.63.48,0,0,.85,1.15-.45,2.5,0,0,.95.76-.67,2.02,0,0-.1,1.32-1.33,1.39Z"/>
  <path class="cls-1" d="m74.94,29.62s-.07.09-.19.28c-.05.1-.13.24-.22.42-.24.44-.55,1.11-.87,2.03t0,.02c-.78,2.24-1.61,5.96-1.53,11.52.15,10.28.29,18.58.29,18.58,0,.12,0,.24,0,.36-.06,2.14-.16,4.43-.28,6.79-.66,12.61-1.97,26.83-1.97,26.83,0,0-25.52-7.32-29.28-13.8-.97-1.67-1.11-4.95-.72-9.04,1.1-11.76,6.57-30.24,9.36-36.57.93-2.12,2.06-4.06,3.28-5.81,6.05-8.68,14.55-12.96,14.55-12.96,0,0,.02.04.05.11.01.02.02.05.04.08.23.48.89,1.83,1.76,3.45.36.64.75,1.33,1.16,2.02.61,1.03,1.28,2.06,1.96,2.98.89,1.2,1.8,2.2,2.63,2.71Z"/>
  <path class="cls-7" d="m105.95,70.92s-1.3.26-2.64-.18"/>
  <path class="cls-7" d="m104.82,75.44s-1.71.36-3.11-.57"/>
  <path class="cls-7" d="m103.49,76.84s-1.55-.58-2.57-1.38"/>
  <path class="cls-16" d="m102.87,70.6s-2.07-.53-2.97-2.19"/>
  <path class="cls-16" d="m103.56,72.72s-1.77-.96-3.12-.72"/>
  <path class="cls-7" d="m105.49,73.42s-1.02,1.17-3.37.4"/>
  <line class="cls-7" x1="100.35" y1="73.72" x2="102.07" y2="73.77"/>
  <polygon points="11.22 76.05 11.56 79.09 35.33 93.85 35.33 90.09 11.22 76.05"/>
  <path class="cls-1" d="m91.04,16.81s-.08.17-.44.43c-.39.28-.86,1.45-9.7,2.06-2.72.19-6.3.27-9.1.22-.36-.01-.71-.02-1.08-.03,0,0-.13-.9-.13-2.26-.01-3.54.77-10.22,6.53-12.36,5.34-1.99,13.82,3.48,13.92,11.94Z"/>
  <path class="cls-1" d="m70.62,17.33s13.61.38,20.01-3.17"/>
  <path class="cls-1" d="m65.35,32.34c2.36,3.32,3.14,6.11,3.71,12.38.59,6.28,4.24,14.85,4.24,14.85.86,1.5,15.57,5.09,15.57,5.09,0,0-2.6,7.46-2.46,7.67s-12.25-2.17-15.27-2.63c-2.26-.35-4.2-.81-5.88-2.85-2.22-2.7-3.99-6.74-5.41-9.87-2.52-5.51-5.16-13.29-5.16-13.29"/>
  <path class="cls-4" d="m65.65,19.3s2.28,7.31,7.91,12.85"/>
  <path class="cls-3" d="m108.71,125.97c-1.51.26-3.13.14-4.66.14-4.38,0-8.74-.21-13.11-.42-.7-.03-1.41-.07-2.05-.36-.5-.22-.93-.6-1.23-1.06-.18-.28-.31-.6-.35-.94-.01-.12-.02-.23,0-.35.03-.46.2-.92.37-1.35.31-.8.46-1.39.77-2.19,3.47,0,6.93-.65,10.27-1.56.33.17.67.34,1,.51l5.8,2.92c.78.39,1.57.79,2.35,1.19.19.1.38.19.56.28.55.28,1.34.46,1.75.96.09.12.17.25.21.41.33,1.16-.75,1.65-1.7,1.81Z"/>
  <line class="cls-5" x1="14.83" y1="34.1" x2="20.32" y2="75.77"/>
  <line class="cls-5" x1="23.42" y1="32.98" x2="28.91" y2="74.65"/>
  <line class="cls-5" x1="32.15" y1="32.41" x2="37.64" y2="74.08"/>
  <line class="cls-5" x1="93.66" y1="28.75" x2="101.55" y2="65.07"/>
  <line class="cls-5" x1="102.53" y1="28.47" x2="111.26" y2="64.23"/>
  <line class="cls-5" x1="111.12" y1="27.77" x2="120.41" y2="62.68"/>
  <line class="cls-5" x1="35.52" y1="91.68" x2="35.52" y2="122.37"/>
  <line class="cls-5" x1="13.42" y1="76.62" x2="13.42" y2="107.31"/>
  <line class="cls-5" x1="153.21" y1="71.55" x2="153.21" y2="102.24"/>
  <path class="cls-1" d="m52.63,64.58l13.09,5.91s-2.89,12.39-9.78,10.42-5.56-9.22-3.31-16.33Z"/>
  <polygon class="cls-22" points="46.46 56.81 49.98 54.84 51.1 59.44 47.25 61.69 46.46 56.81"/>
  <path class="cls-22" d="m65.06,65.81l.76-2.72,4.79,3.14-.39,2.89s-1.17-.22-2.28-.63c-1.43-.54-2.89-2.67-2.89-2.67Z"/>
  <line class="cls-1" x1="45.7" y1="55.45" x2="47.07" y2="62.77"/>
  <line class="cls-1" x1="50.02" y1="53.34" x2="51.52" y2="60.38"/>
  <line class="cls-1" x1="50.87" y1="53.9" x2="45.38" y2="56.91"/>
  <line class="cls-1" x1="52.27" y1="59.07" x2="46.36" y2="62.49"/>
  <line class="cls-1" x1="64.87" y1="66.09" x2="65.82" y2="62.5"/>
  <line class="cls-1" x1="70.18" y1="69.25" x2="71.07" y2="65.6"/>
  <line class="cls-1" x1="64.77" y1="63.14" x2="71.77" y2="67.15"/>
  <path class="cls-24" d="m61.42,22.84c.69-.27,1.4-.45,1.95-.05.48.35.54,1.07.37,1.64-.18.57-.53,1.07-.73,1.64-.05.14-.09.3-.07.45.03.19.16.35.28.5.44.55.82,1.19.83,1.89.01.7-.47,1.45-1.16,1.52-.7.07-1.28-.51-1.78-1-.5-.5-1.2-.99-1.85-.72-.23.09-.41.27-.58.45-.26.28-.49.58-.69.9-.12.19-.24.39-.42.52-.32.22-.74.18-1.12.12-.35-.05-2.54.24-1.5-1.36,1.74-2.67,6.47-6.48,6.47-6.48Z"/>
  <path class="cls-24" d="m59.32,82.46c-.59.46-1.41.48-2.16.45-.75-.03-1.54-.1-2.22.21-.68.31-1.17,1.18-.8,1.83.24.42.74.6,1.21.68.47.08.96.07,1.41.24.23.08.44.22.58.42.17.26.17.59.12.89-.18.98-.95,1.96-.54,2.88.19.44.62.72,1.05.92.76.34,1.62.46,2.45.34.42-.06.88-.21,1.07-.59.11-.22.12-.47.13-.71.05-1.04.22-2.19,1.02-2.85,1.39-1.16,3.6-.09,5.28-.77.41-.16.78-.44.98-.84.2-.39.18-.91-.11-1.24-.33-.38-.89-.43-1.39-.43-.68,0-1.37.04-2.05.12-.37.05-.74.11-1.1.04-.36-.06-.73-.27-.87-.61-.07-.16-.08-.35-.18-.5-.2-.3-.67-.29-.99-.12-.6.32-1.94,1.48-1.67.13.06-.3.33-.55.1-.86-.4-.54-1.01.11-1.34.36Z"/>
  <path class="cls-11" d="m175.55,50.59s-5.91-4.74-20.8-11.11c-11.21-4.79-22.75-6.2-22.75-6.2l6.94-17.46s12.23,2.2,21.6,5.92c12.3,4.89,21.95,11.39,21.95,11.39l-6.94,17.46Z"/>
  <path class="cls-21" d="m135.99,32.68c-.11-.04-.2-.12-.25-.22-.07-.13-.08-.28-.02-.42.13-.32.11-.68-.06-.98-.16-.3-.44-.5-.77-.57-.14-.03-.27-.12-.34-.25-.07-.13-.08-.28-.03-.42l4.28-10.77c.09-.23.33-.35.57-.3.55.13,1.11-.17,1.32-.7.09-.23.33-.35.57-.3,3.33.76,11.82,2.81,18.74,5.56,9.05,3.6,16.65,7.93,19.5,9.63.21.12.3.38.21.61-.21.53-.01,1.12.47,1.41.21.12.3.38.21.61l-4.28,10.76c-.05.14-.17.24-.31.29-.14.05-.29.03-.42-.05-.28-.18-.63-.22-.95-.11-.33.11-.59.35-.71.67-.05.14-.17.24-.31.29-.14.05-.29.03-.42-.05-2.51-1.57-8.16-4.82-17.84-8.92-7.6-3.21-15.21-4.97-19.08-5.74-.03,0-.06-.01-.09-.03Zm-.36-2.97c.38.19.69.49.89.87.21.39.29.82.25,1.25,4.03.82,11.4,2.58,18.77,5.7,9.22,3.9,14.82,7.04,17.54,8.72.26-.34.62-.6,1.04-.74.41-.13.85-.14,1.25-.02l3.95-9.94c-.54-.49-.79-1.23-.66-1.96-3.05-1.8-10.37-5.92-19.03-9.37-6.61-2.63-14.69-4.62-18.22-5.43-.4.62-1.09.99-1.83.97l-3.95,9.95Z"/>
  <path class="cls-21" d="m152.23,28.63c1.17-2.94,4.5-4.38,7.44-3.21,2.94,1.17,4.38,4.5,3.21,7.44-1.17,2.94-4.5,4.38-7.44,3.21-2.94-1.17-4.38-4.5-3.21-7.44Z"/>
  <path class="cls-21" d="m146.02,26.74c.47-1.18,1.81-1.76,3-1.29,1.18.47,1.76,1.81,1.29,3-.47,1.18-1.81,1.76-3,1.29-1.18-.47-1.76-1.81-1.29-3Z"/>
  <path class="cls-21" d="m163.6,33.73c.47-1.18,1.81-1.76,3-1.29,1.18.47,1.76,1.81,1.29,3-.47,1.18-1.81,1.76-3,1.29-1.18-.47-1.76-1.81-1.29-3Z"/>
  <g>
    <path d="m156.33,34.81s-.06,0-.08-.02l-.57-.23c-.11-.05-.17-.17-.12-.29l.3-.73c-.48-.24-.91-.61-1.13-.96-.05-.08-.04-.19.02-.26l.47-.52s.1-.07.16-.07c0,0,0,0,.01,0,.07,0,.13.04.17.1.25.37.63.68,1.05.85.16.07.32.1.47.1.32,0,.57-.16.69-.43.15-.38,0-.74-.54-1.27-.71-.68-1.31-1.44-.91-2.43.28-.69.91-1.1,1.69-1.1.12,0,.23,0,.35.03l.31-.76c.02-.05.06-.1.12-.12.03-.01.06-.02.08-.02s.06,0,.08.02l.57.23c.11.05.17.17.12.29l-.28.7c.39.2.7.46.95.78.07.08.06.2-.01.28l-.47.51s-.1.07-.16.07c0,0,0,0,0,0-.06,0-.12-.03-.16-.08-.12-.16-.39-.49-.93-.71-.16-.06-.3-.1-.43-.1-.39,0-.53.28-.57.37-.14.34,0,.62.66,1.26.9.88,1.13,1.62.78,2.48-.29.71-.97,1.16-1.78,1.16-.12,0-.24,0-.36-.03l-.32.78c-.02.05-.06.1-.12.12-.03.01-.06.02-.08.02Z"/>
    <path class="cls-23" d="m158.87,26.88l.57.23-.36.89c.54.24.85.54,1.05.8l-.47.51c-.15-.19-.44-.54-1.02-.78-.19-.08-.36-.11-.51-.11-.4,0-.66.24-.77.5-.19.47.05.85.71,1.5.78.77,1.06,1.43.73,2.25-.24.6-.81,1.02-1.57,1.02-.16,0-.32-.02-.5-.06l-.39.95-.57-.23.37-.92c-.52-.23-1-.61-1.23-.97l.47-.52c.24.35.64.72,1.15.93.19.08.38.12.56.12.41,0,.74-.21.89-.57.2-.5-.02-.96-.59-1.51-.78-.74-1.18-1.4-.86-2.19.25-.62.81-.97,1.48-.97.16,0,.32.02.49.06l.37-.92m0-.44c-.06,0-.12.01-.17.03-.11.05-.19.13-.24.24l-.24.6c-.07,0-.14,0-.21,0-.87,0-1.57.46-1.89,1.24-.45,1.11.23,1.98.96,2.67.59.58.56.83.48,1.02-.1.25-.32.3-.48.3-.12,0-.26-.03-.39-.08-.38-.15-.73-.44-.96-.77-.08-.11-.2-.18-.33-.19,0,0-.02,0-.03,0-.12,0-.24.05-.33.15l-.47.52c-.13.15-.15.36-.04.53.22.35.6.69,1.04.95l-.22.55c-.09.22.02.48.24.57l.57.23c.05.02.11.03.17.03s.12-.01.17-.03c.11-.05.19-.13.24-.24l.25-.63c.07,0,.15,0,.22,0,.9,0,1.65-.5,1.98-1.3.49-1.21-.19-2.09-.83-2.72-.68-.67-.68-.85-.61-1.02.04-.09.13-.23.36-.23.1,0,.22.03.35.08.5.2.73.5.84.64.08.1.2.16.33.17,0,0,.01,0,.02,0,.12,0,.24-.05.32-.14l.47-.51c.15-.16.16-.39.03-.56-.23-.3-.5-.54-.84-.74l.21-.52c.09-.22-.02-.48-.24-.57l-.57-.23c-.05-.02-.11-.03-.17-.03h0Z"/>
  </g>
  <circle class="cls-10" cx="144.4" cy="42.97" r="4.17"/>
  <circle class="cls-10" cx="150.43" cy="46.31" r="4.17" transform="translate(42.97 161.32) rotate(-64.05)"/>
  <circle class="cls-6" cx="158.79" cy="47.45" r="2.79" transform="translate(-6.79 54.45) rotate(-19.06)"/>
  <path d="m149.18,48.45l.23-.57c-.32-.14-.62-.38-.75-.6l.29-.32c.15.22.39.44.71.57.4.16.76.04.89-.28s-.02-.59-.36-.92c-.48-.46-.73-.86-.53-1.34s.66-.68,1.21-.56l.23-.57.35.14-.22.54c.33.15.52.33.65.49l-.29.31c-.09-.11-.27-.33-.63-.48-.43-.18-.7.02-.79.24-.12.29.03.52.43.92.48.47.65.88.45,1.38-.18.44-.65.73-1.27.59l-.24.58-.35-.14Z"/>
  <path d="m144.32,45.45l-.02-.61c-.35,0-.71-.1-.92-.25l.13-.41c.22.14.53.25.87.24.42,0,.7-.27.69-.61s-.25-.54-.7-.71c-.62-.23-1-.5-1.02-1.03-.02-.5.33-.9.87-1l-.02-.61h.37s.02.58.02.58c.36,0,.61.1.78.19l-.14.4c-.13-.07-.38-.2-.76-.19-.46.01-.63.29-.62.54,0,.32.24.47.76.68.62.24.94.55.96,1.09.01.48-.3.94-.91,1.06l.02.63h-.38Z"/>
  <path d="m159.29,49.11l-.16-.43c-.25.08-.53.1-.71.05v-.32c.18.05.43.05.67-.04.3-.11.44-.36.35-.6s-.31-.32-.66-.34c-.49-.02-.83-.12-.97-.49s.02-.71.38-.92l-.16-.43.26-.09.15.41c.26-.08.45-.08.6-.05v.32c-.11-.02-.32-.05-.59.05-.32.12-.37.36-.31.53.08.22.28.28.7.3.5.02.8.17.94.55.13.34.01.74-.4.97l.16.44-.27.1Z"/>
  <g>
    <line class="cls-18" x1="130.63" y1="14.57" x2="189.2" y2="51.5"/>
    <line class="cls-18" x1="189.2" y1="14.57" x2="130.63" y2="51.5"/>
  </g>
  <rect class="cls-19" x="-997" y="-603.92" width="1656.38" height="875.1"/>
</svg>