<?xml version="1.0" encoding="UTF-8"?>
<svg id="Calque_1" data-name="Calque 1" xmlns="http://www.w3.org/2000/svg" viewBox="0 0 128 128">
  <defs>
    <style>
      .cls-1, .cls-2, .cls-3, .cls-4 {
        stroke: #000;
      }

      .cls-1, .cls-2, .cls-3, .cls-4, .cls-5 {
        stroke-linecap: round;
        stroke-linejoin: round;
      }

      .cls-1, .cls-5 {
        fill: none;
      }

      .cls-2 {
        fill: #76ac75;
      }

      .cls-2, .cls-3, .cls-4 {
        stroke-width: 2px;
      }

      .cls-3 {
        fill: #b4eac3;
      }

      .cls-4 {
        fill: #baa584;
      }

      .cls-5 {
        stroke: #fff;
        stroke-width: 8px;
      }
    </style>
  </defs>
  <path class="cls-3" d="m54.9,99.04c-1.83.92-2.76,2.44-3.11,3.02-1.47,2.46-1.79,5.88-.27,8.61,2.44,4.35,8.79,5.51,12.15,3.19,1.77-1.22,2.46-3.24,2.84-4.35.36-1.06,1.34-3.95.09-6.65-1.86-4.02-7.8-5.79-11.71-3.81Z"/>
  <path class="cls-1" d="m30.38,18.22c1.5.45,3.45,1.09,4.72,1.69,1.12.54,2.59,1.42,3.79,2.18"/>
  <path class="cls-1" d="m31.86,17.28c2.44.57,6.59,1.6,8.65,2.63.54.27,1.1.55,1.66.86"/>
  <path class="cls-1" d="m49.48,25.63c-2.22-1.67-4.8-3.45-7.31-4.86"/>
  <path class="cls-1" d="m119.73,85.68c-.04.11-.11.21-.2.31-.02.02-.04.04-.06.05-.51.42-1.59.53-2.52.57-.16,0-.31,0-.47,0,.79-.27,1.48-.52,2.01-.7.07-.02.13-.04.18-.06.63-.2,1.01-.29,1.06-.18Z"/>
  <path class="cls-1" d="m119.73,85.68c.03.06-.05.17-.2.31-.02.02-.04.04-.06.05-.51.42-1.59.53-2.52.57-.16,0-.31,0-.47,0,.79-.27,1.48-.52,2.01-.7.07-.02.13-.04.18-.06.63-.2,1.01-.29,1.06-.18Z"/>
  <path class="cls-4" d="m34.03,13.32c-.03.41-.3,1.17-.67,1.91-.32.63-.7,1.24-1.08,1.65-.15.16-.28.29-.42.4-.51.47-1.01.73-1.48.94-.9.4-1.68.59-2.24,1.53-.25.45-.14.53-.4,1.98h0c-.05.33-.13.71-.22,1.17-.1.45-.2.87-.29,1.22-.47,1.76-.91,2.34-1.01,2.37-.54-1.14-.73-2-2.48-4.08-.84-1.01-1.91-2.26-3.64-3.29-.5-.28-2.05-1.2-4.19-1.54-2.09-.31-3.29-.27-3.29-.27-1.04.03-1.87.19-2.02-.14-.1-.2.14-.4.62-1.26.55-.96.46-1.11.7-1.34.39-.35.96-.35,3.01.08,1.55.32,2.94.68,4.55,1.05,1.42.33,1.59.34,1.75.34,1.45.07,2.19-.48,3.71-.97,1.28-.42,1.02-.11,4.47-.69,2.97-.52,3.02-.76,4.62-1.06Z"/>
  <path class="cls-2" d="m119.47,86.04c-.62.53-2.15,1.43-3.05,1.96-1.67.99-3.43,2.03-5.87,3-3.65,1.42-6.67,1.84-9.08,2.15-1.72.23-5.69.65-10.86.21-2.51-.2-8.29-.72-14.29-3.15-11.36-4.59-17.63-13.64-21.07-18.71-.56-.83-.41-.67-8.14-15.99-7.81-15.49-8.79-17.32-11.04-20.43-2.73-3.77-5.25-7.25-8.84-10.96.09-.35.19-.77.29-1.22.09-.46.17-.84.22-1.16.01-.01.02-.01.03.01t.02.01c.28.21.57.43.84.65,1.95,1.6,3.87,3.58,9.26,11.82,2.24,3.42,4.15,6.34,6.84,11.02,4.73,8.23,4.63,9.3,7.34,13.66,3.42,5.53,7.14,9.54,9.94,12.22.91.87,1.71,1.61,2.38,2.21,2.66,2.42,5.9,5.31,10.16,7.99,2.18,1.37,4.63,2.7,7.4,3.85.55.23,1.14.46,1.72.69,6.24,2.36,11.74,3.06,14.99,3.26,1.41.1,2.4.09,2.85.09,2.17-.03,6.09-.09,10.99-1.37,1.47-.39,2.84-.84,3.98-1.23.16,0,.31,0,.47,0,.93-.04,2.01-.15,2.52-.57Z"/>
  <path class="cls-3" d="m82.77,71.66c-.2,1.25-.54,2.26-.74,2.85-.47,1.39-1.34,3.92-3.56,5.44-1.11.77-2.47,1.21-3.92,1.38-4.26-2.68-7.5-5.57-10.16-7.99-.67-.6-1.47-1.34-2.38-2.21-.02-1.55.28-3.08.85-4.48.2-.51.44-.99.73-1.46.44-.73,1.59-2.63,3.89-3.78,1.31-.67,2.79-.98,4.32-1.01,1.08,1.19,2.06,2.29,3,3.29,3.2,3.48,5.56,5.83,7.97,7.97Z"/>
  <path class="cls-2" d="m118.43,83.44c-1.78-1.09-3.5.49-5.2-.37-1.43-.7-1.78-2.58-2.05-3.7,0,0-.97-4.22-4.65-11.35-2.02-3.92-4.93-6.08-10-9.68h-.01c-.25-.17-.49-.35-.76-.54-3.78-2.66-4.68-2.58-10.05-6.33-2.17-1.51-4.46-3.1-7.06-5.38-2.02-1.78-3.19-3.07-4.39-4.44-.08-.1-.15-.2-.24-.29-1.13-1.34-2.31-2.81-4.29-4.94-5.22-5.57-9.9-9.1-11.16-10.04-2.76-2.06-5.93-3.85-12.27-7.43-2.27-1.3-4.82-2.69-8.37-3.35-2.15-.41-3.87-.38-4.46-.37h-.11c-.32.63-.7,1.24-1.08,1.65-.15.16-.28.29-.42.4-.51.47-1.01.73-1.48.94-.9.4-1.68.59-2.24,1.53-.25.45-.14.53-.4,1.98h0s.02,0,.03.02t.02.01c2.58,1.05,5.68,2.35,8.95,4,2.03,1.04,4.14,2.23,6.21,3.59.11.08.23.16.33.23,1.34.9,2.36,1.68,3.82,3.14.45.44.93.95,1.49,1.54.37.39.77.82,1.2,1.3.32.35.67.73,1.04,1.14.36.41.75.84,1.17,1.31,1.17,1.31,2.55,2.87,4.19,4.76,1.48,1.68,3.18,3.6,5.13,5.83.54.62,1.11,1.28,1.71,1.95.94,1.07,1.84,2.08,2.7,3.05,2.32,2.62,4.31,4.86,6.07,6.8,1.08,1.19,2.06,2.29,3,3.29,3.2,3.48,5.56,5.83,7.97,7.97,1.01.91,2.03,1.78,3.12,2.68,0,0,.25.19.72.55,1.73,1.31,6.61,4.76,13.91,8.18,1.46.7,3.05,1.38,4.71,2.05,0,0,4.25,1.71,11.25,1.5.79-.27,1.48-.52,2.01-.7.07-.02.13-.04.18-.06.63-.2,1.01-.29,1.06-.18.24-.67-.44-1.7-1.3-2.24Z"/>
  <path class="cls-1" d="m31.86,17.28c2.44.57,6.59,1.6,8.65,2.63.54.27,1.1.55,1.66.86"/>
  <path class="cls-1" d="m30.38,18.22c1.5.45,3.45,1.09,4.72,1.69,1.12.54,2.59,1.42,3.79,2.18"/>
  <path class="cls-1" d="m49.48,25.63c-2.23-1.66-4.81-3.44-7.31-4.86"/>
  <path class="cls-3" d="m71.8,60.4c-1.53.03-3.01.34-4.32,1.01-2.3,1.15-3.45,3.05-3.89,3.78-.29.47-.53.95-.73,1.46-2.07-.85-3.9-2.29-5.03-4.32-1.17-2.06-1.44-4.47-1.05-6.72.24-1.33.71-2.6,1.36-3.69.39-.65,1.36-2.21,3.18-3.32.54.62,1.11,1.28,1.71,1.95.94,1.07,1.84,2.08,2.7,3.05,2.32,2.62,4.31,4.86,6.07,6.8Z"/>
  <path class="cls-3" d="m61.32,48.6c-1.82,1.11-2.79,2.67-3.18,3.32-.65,1.09-1.12,2.36-1.36,3.69-2.78-.67-5.41-2.34-6.86-4.93-1.15-2.07-1.44-4.45-1.05-6.67.22-1.36.69-2.64,1.36-3.77.27-.44.83-1.35,1.77-2.23,1.17,1.31,2.55,2.87,4.19,4.76,1.48,1.68,3.18,3.6,5.13,5.83Z"/>
  <path class="cls-3" d="m52,38.01c-.94.88-1.5,1.79-1.77,2.23-.67,1.13-1.14,2.41-1.36,3.77-2.53-.6-4.92-2.1-6.25-4.46-1.02-1.84-1.28-3.97-.95-5.95.2-1.22.62-2.41,1.24-3.45.08-.14.21-.34.37-.57,1.34.9,2.36,1.68,3.82,3.14.45.44.93.95,1.49,1.54.37.39.76.82,1.2,1.3.32.35.67.73,1.04,1.14.36.41.75.84,1.17,1.31Z"/>
  <path class="cls-2" d="m62.86,66.65c-.57,1.4-.87,2.93-.85,4.48-2.8-2.68-6.52-6.69-9.94-12.22-2.71-4.36-2.61-5.43-7.34-13.66-2.69-4.68-4.6-7.6-6.84-11.02-5.39-8.24-7.31-10.22-9.26-11.82-.27-.22-.56-.44-.84-.65,2.58,1.05,5.68,2.35,8.95,4-.37,1.54-.22,3.24.58,4.68.94,1.65,2.58,2.72,4.35,3.16-.33,1.98-.07,4.11.95,5.95,1.33,2.36,3.72,3.86,6.25,4.46-.39,2.22-.1,4.6,1.05,6.67,1.45,2.59,4.08,4.26,6.86,4.93-.39,2.25-.12,4.66,1.05,6.72,1.13,2.03,2.96,3.47,5.03,4.32Z"/>
  <path class="cls-3" d="m43.28,29.58c-.16.23-.29.43-.37.57-.62,1.04-1.04,2.23-1.24,3.45-1.77-.44-3.41-1.51-4.35-3.16-.8-1.44-.95-3.14-.58-4.68,2.03,1.04,4.14,2.23,6.21,3.59.11.08.23.16.33.23Z"/>
  <path class="cls-1" d="m49.48,25.63c-2.22-1.67-4.8-3.45-7.31-4.86"/>
  <path class="cls-1" d="m65.51,69.87c-.03-.65,0-1.68.48-2.79.25-.6.78-1.85,2.07-2.51.34-.18.65-.27.88-.32"/>
  <path class="cls-3" d="m38.28,96c-2.2,1.11-3.31,2.93-3.73,3.62-1.77,2.96-2.15,7.06-.32,10.33,2.92,5.22,10.55,6.61,14.59,3.83,2.13-1.47,2.95-3.88,3.41-5.22.43-1.28,1.61-4.74.11-7.99-2.24-4.82-9.36-6.95-14.05-4.58Z"/>
  <path class="cls-1" d="m37.05,104.77c-.04-.71,0-1.83.52-3.04.28-.65.85-2.01,2.26-2.74.37-.19.71-.29.96-.35"/>
  <path class="cls-3" d="m14.7,97.89c-1.83.92-2.76,2.44-3.11,3.02-1.47,2.46-1.79,5.88-.27,8.61,2.44,4.35,8.79,5.51,12.15,3.19,1.77-1.22,2.46-3.24,2.84-4.35.36-1.06,1.34-3.95.09-6.65-1.86-4.02-7.8-5.79-11.71-3.81Z"/>
  <path class="cls-2" d="m86.61,74.89c-2,1.04-3.01,2.69-3.4,3.32-1.19,2-1.71,4.55-1.26,6.97-2.77-1.15-5.22-2.48-7.4-3.85,1.45-.17,2.81-.61,3.92-1.38,2.22-1.52,3.09-4.05,3.56-5.44.2-.59.54-1.6.74-2.85,1.01.91,2.03,1.78,3.12,2.68,0,0,.25.19.72.55Z"/>
  <path class="cls-2" d="m116.48,86.62c-1.14.39-2.51.84-3.98,1.23-4.9,1.28-8.82,1.34-10.99,1.37-.45,0-1.44.01-2.85-.09.56-.94.87-1.88,1.1-2.54.23-.67.66-1.96.76-3.52,1.46.7,3.05,1.38,4.71,2.05,0,0,4.25,1.71,11.25,1.5Z"/>
  <path class="cls-3" d="m100.52,83.07c-.1,1.56-.53,2.85-.76,3.52-.23.66-.54,1.6-1.1,2.54-3.25-.2-8.75-.9-14.99-3.26-.58-.23-1.17-.46-1.72-.69-.45-2.42.07-4.97,1.26-6.97.39-.63,1.4-2.28,3.4-3.32,1.73,1.31,6.61,4.76,13.91,8.18Z"/>
  <path class="cls-1" d="m84.75,80.97c-.02-.37,0-.95.27-1.57.14-.34.44-1.04,1.17-1.42.19-.1.37-.15.49-.18"/>
  <path class="cls-1" d="m60.64,53.57s-.73.45-.99.94c-.76,1.44-.43,2.57-.43,2.57"/>
  <path class="cls-1" d="m52.54,42.76s-.65.55-.83,1.08c-.53,1.54-.03,2.61-.03,2.61"/>
  <path class="cls-1" d="m83.92,57.08s2.73-.67,6-.37c3.27.3,4.53.57,6.6,1.62"/>
  <path class="cls-1" d="m95.26,66.3s1.88.12,3.76,1.82c1.88,1.7,2.97,3.94,3.27,5.03"/>
  <path class="cls-1" d="m103.62,77.81s1.7,2.56,3.74,4.08c2.91,2.15,9.26,4.5,11.13,4.03"/>
  <path class="cls-1" d="m73.36,52.34s.18,1.46,2.19,3.61c2.01,2.16,3.87,3.22,3.87,3.22"/>
  <path class="cls-1" d="m74.26,41.65c1.13,1.44,1.11,2.17,1.11,3.35s-.95,2.27-.95,2.27"/>
  <path class="cls-1" d="m63.2,36.62c.1-.04.2-.07.3-.1,1.15-.27,1.84-.19,3.22.01"/>
  <path class="cls-1" d="m60.7,38.83s.94-1.67,2.49-2.21"/>
  <path class="cls-1" d="m49.3,25.5c3.38,2.57,5.84,4.77,5.84,4.77"/>
  <path class="cls-1" d="m38.89,22.08c1.21.77,2.14,1.4,2.14,1.4"/>
  <rect class="cls-5" x="-743.85" y="-2048.4" width="3385.57" height="2571.67"/>
</svg>