<?xml version="1.0" encoding="UTF-8"?>
<svg id="Calque_1" data-name="Calque 1" xmlns="http://www.w3.org/2000/svg" viewBox="0 0 128 128">
  <defs>
    <style>
      .cls-1 {
        fill: #76ac75;
      }

      .cls-1, .cls-2, .cls-3, .cls-4, .cls-5, .cls-6, .cls-7, .cls-8, .cls-9 {
        stroke: #000;
      }

      .cls-1, .cls-2, .cls-3, .cls-4, .cls-5, .cls-6, .cls-7, .cls-8, .cls-9, .cls-10 {
        stroke-linecap: round;
        stroke-linejoin: round;
      }

      .cls-2 {
        fill: #ff6d75;
      }

      .cls-3, .cls-11, .cls-8 {
        fill: #ffa75f;
      }

      .cls-4, .cls-9, .cls-10 {
        fill: none;
      }

      .cls-5, .cls-12 {
        fill: #fab0b4;
      }

      .cls-13 {
        fill: #d6d6d6;
      }

      .cls-6 {
        fill: #b4eac3;
      }

      .cls-6, .cls-7, .cls-8, .cls-9 {
        stroke-width: 2px;
      }

      .cls-7 {
        fill: #fff;
      }

      .cls-10 {
        stroke: #fff;
        stroke-width: 8px;
      }
    </style>
  </defs>
  <polygon class="cls-13" points="29.52 25.39 75.21 25.39 75.79 29.49 77.55 31.69 83 34.93 70.64 38.47 30.3 39.4 24.89 36.03 22.6 34.53 27.05 32.21 28.26 30.71 29.52 25.39"/>
  <path class="cls-11" d="m22.14,33.91c-.67-.39-1.26.85-1.75,2.03,0,.01-.01.02-.02.04s-.02.03-.02.05c-.25.59-.48,1.16-.68,1.46h-.01s0,.02-.01.03c-.16.24-.32.32-.45.09v51.61c0,.1,0,.2.01.29.47,4.63,11.83,8.59,23.12,10.31.02.01.04.01.08.01,3.91.6,7.8.93,11.22.93,5.29,0,11.34-.79,16.77-2.12.01,0,.02,0,.03-.01,8.49-2.09,15.43-5.53,15.43-9.42v-25.12c0-8.49-.01-17.05-.01-22.51v-1.42l-2.93-6.25s-50.42-.03-60.78-.03Z"/>
  <path class="cls-9" d="m29.07,24.59v2.76c0,3.69-2.05,3.79-5.32,5.5-.05.03-.1.05-.15.08-.52.27-1.02.6-1.46.98-.69.58-1.28,1.27-1.75,2.03,0,.01-.01.02-.02.04-.01.01-.02.03-.03.04-.27.47-.5.96-.67,1.47h-.01c-.29.85-.45,1.75-.45,2.68v51.16c0,3.87,11.59,7.17,23.12,8.5.02.01.04.01.08.01,3.49.4,6.97.62,10.12.62,5.52,0,12.05-.67,17.87-1.81.01,0,.02,0,.03-.01,8.48-1.66,15.43-4.32,15.43-7.31v-27.22c0-8.49-.01-17.05-.01-22.51v-1.42c0-2.15-.84-4.17-2.29-5.67h-.01c-.2-.21-.4-.4-.62-.58-.45-.38-.93-.71-1.45-.98l-.17-.1c-3.26-1.7-5.3-1.8-5.3-5.48v-2.79"/>
  <path class="cls-7" d="m45.66,44.01v43.09c-5.5-.19-10.64-.63-15.19-1.24-4.34-.59-8.19-1.34-11.26-2.22v-42.15c6.33,1.31,15.7,2.23,26.45,2.52Z"/>
  <path class="cls-6" d="m85.85,41.62v42.18c-3,.81-6.58,1.51-10.66,2.06-6.49.87-14.15,1.38-22.37,1.38-2.44,0-4.84-.05-7.16-.14v-43.09c2.33.06,4.72.09,7.16.09,13.37,0,25.28-.97,33.03-2.48Z"/>
  <path class="cls-6" d="m84.62,16.81v5.76c0,1.11-1.42,2.02-3.17,2.02H23.6c-1.75,0-3.17-.9-3.17-2.02v-5.76c0-1.11,1.42-2.02,3.17-2.02h57.85c1.75,0,3.17.9,3.17,2.02Z"/>
  <g>
    <g id="jkvMcz">
      <path class="cls-7" d="m50.09,110.38c1.57-4.71,4.55-9.27,10.28-11.46,2.49-.95,5.1-.5,7.66-.22,1.5.16,2.74-.09,3.92-1.09,3.59-3.02,32.11-24.2,35.77-27.14,3.25-2.61,6.63-5.05,10.29-7.06.68-.37,1.4-.67,2.14-.91,1.53-.5,2.31-.24,3.15.92.85,1.18.84,1.99-.08,3.28-.74,1.04-1.69,1.89-2.66,2.72-5.64,4.77-36.94,26.56-43.2,30.4-1.02.63-2.02,1.29-3.06,1.89-1.06.62-1.56,1.56-1.83,2.71-.38,1.58-.76,3.16-1.29,4.69-1.31,3.8-4.23,5.97-7.83,7.37-2.83,1.1-5.73,1.79-8.8,1.3-3.58-.58-5.22-2.9-4.45-7.4Z"/>
    </g>
    <path class="cls-8" d="m58.55,114.21c2.81-.84,4.66-2.31,5.87-3.3,2.23-1.82,4.07-3.31,4.65-5.9.05-.23.77-3.61-.75-4.86-1.4-1.15-3.52.45-4.79-.89-.83-.87-.32-1.94-1.1-2.4-.94-.56-1.83.91-4.27,1.36-2.04.38-2.8-.39-3.65.39-.84.77-.32,1.72-1.3,2.98-.83,1.08-1.43.66-2.43,1.69-.77.78-.67,1.28-1.82,4.33-.99,2.65-1.23,2.72-1.14,3.34.33,2.41,4.13,3.5,4.55,3.62,2.56.73,4.75.08,6.2-.35Z"/>
  </g>
  <path class="cls-4" d="m37.56,76.67c-.22-.22-.37-.44-.45-.66-.01-.04-.02-.08-.03-.11,0-.03-.01-.05-.01-.08-.09-.66.56-1.3,2.33-1.98,4.84-1.87,1.34-7.82,1.34-7.82,0,0,.78-1.96-.43-1.92-1.19.02-1.58-1.2-1.58-1.2,0,0,1.08-4.3-2.04-7.22-1.18-1.1-2.99-2.02-5.69-2.41-5.98-.86-9.72,1.86-11.79,5.24"/>
  <path class="cls-4" d="m19.21,71.59c1.73,2.11,4.61,3.66,8.9,4.09,0,0,.95.27.64,1.85"/>
  <path class="cls-4" d="m26.61,66.41s-2.71.12-1.95,2.83c.76,2.71,2.58,1.13,2.58,1.13"/>
  <circle cx="37.15" cy="65" r=".62"/>
  <path class="cls-4" d="m35.01,64.19s.02-1.62,1.7-1.68"/>
  <line class="cls-4" x1="26.07" y1="68.55" x2="26.63" y2="68.46"/>
  <polygon class="cls-5" points="37.7 70.67 37.7 70.67 37.7 70.67 37.7 70.67"/>
  <path class="cls-4" d="m38.8,68.82s-2.03.11-1.7,1.31c0,0,.18.35.6.6.31.18.73.31,1.31.2.71-.13,1.08-.62,1.12-1.09,0,0,0-.01,0-.01.05-.58-.41-1.14-1.33-1Z"/>
  <path class="cls-4" d="m36.69,55.68s-1.85,5.64-6.91,6.53c0,0,.52,2.81-3.18,4.19"/>
  <path class="cls-1" d="m66.5,62.97c-.02.13-.55.16-1.01.1-.8-.1-1.43-.47-1.6-.57-.62-.38-.72-.66-1.04-.62-.34.04-.67.41-.67.77,0,.26.19.45.25.51.25.27.48.19.66.4.21.24.14.62.09.9-.14.77-.66,1.4-.8,1.34-.1-.05.1-.42-.03-1.01-.08-.36-.24-.62-.37-.82-.42-.66-.71-.59-.9-1.05-.24-.55.07-.87-.19-1.12-.25-.24-.73-.14-1.27-.02-.39.08-.43.15-.88.28-.04.02-.08.03-.12.04-.79.22-.85.11-1.1.28-.57.4-.56,1.26-.72,1.24-.08,0-.13-.26-.13-.46,0-.59.38-1.02.67-1.37.37-.41.62-.7,1.05-.83.13-.04.34-.08.63-.13.11-.02.25-.05.39-.07.3-.05.48-.08.53-.2.02-.04.03-.15-.24-.44-.08-.09-.18-.18-.28-.28-.23-.2-.51-.4-.89-.44-.52-.06-.59.22-1.16.21-.62-.02-1.18-.36-1.16-.53.02-.13.38-.08,1.08-.32.59-.2.57-.31.9-.37.65-.13,1.39,0,1.86.26.02,0,.03.02.04.03.45.27.57.57.8.77h0c-.15.61-.32,1.09-.32,1.09,0,0,.41.45.77.54.37.09.91-.06.91-.06,0,0,.08-1.21.12-2.1.07-.14.16-.28.27-.43.29-.38.69-.55.88-.61.03,0,.06-.02.07-.02.45-.13.56.04.94-.1.54-.21.76-.73.83-.69.06.03-.08.33-.25.8-.15.4-.21.62-.24.76-.04.18-.05.23-.14.37-.3.5-.6.43-1.14,1.1-.18.22-.47.58-.37.74.11.17.51-.11,1.02.08.37.14.61.44.8.68.22.29.18.34.36.57.48.62,1.14.69,1.12.84Z"/>
  <g>
    <path class="cls-2" d="m68.53,71.95c-1.97,3.08-5.49,3.69-6.41,3.85-5.01.86-10.39-2.22-13.04-6.93-.69-1.22-2.26-9,5.82-11.64.51-.17,2.67-.82,5.45-.34h0c.16.16.31.32.45.47.06.06.11.14.14.23.18.45.07,1.2-.08,1.83-.23-.2-.35-.51-.8-.77-.01-.01-.03-.02-.04-.03-.47-.26-1.21-.39-1.86-.26-.33.07-.31.18-.9.37-.7.24-1.06.19-1.08.32-.03.17.54.52,1.16.53.58.02.65-.27,1.16-.21.38.05.66.24.89.44.11.09.2.19.28.28.28.29.26.4.24.44-.05.12-.23.15-.53.2-.14.03-.27.05-.39.07-.29.05-.5.1-.63.13-.43.13-.69.42-1.05.83-.3.34-.68.78-.67,1.37,0,.2.05.45.13.46.15.02.14-.84.72-1.24.24-.17.31-.06,1.1-.28.04-.01.09-.02.12-.04.46-.13.49-.2.88-.28.54-.12,1.02-.22,1.27.02.26.25-.04.57.19,1.12.2.46.48.39.9,1.05.13.2.29.46.37.82.13.59-.07.96.03,1.01.14.06.66-.57.8-1.34.05-.28.12-.66-.09-.9-.18-.2-.41-.13-.66-.4-.06-.06-.24-.25-.25-.51,0-.36.33-.73.67-.77.32-.04.42.24,1.04.62.17.11.8.48,1.6.57.46.06.99.03,1.01-.1.03-.15-.64-.22-1.12-.84-.18-.23-.13-.28-.36-.57-.19-.24-.43-.55-.8-.68-.52-.19-.92.09-1.02-.08-.11-.16.19-.53.37-.74.54-.67.84-.6,1.14-1.1.09-.14.09-.19.14-.37.15.09.29.19.44.29.41.29.82.64,1.23,1.03.21.2.42.42.62.65.2.23.52.61.87,1.12.26.39.54.85.8,1.4.35.73.65,1.59.81,2.6.11.68.44,2.73-.4,4.91-.17.45-.39.91-.68,1.37Z"/>
    <path class="cls-2" d="m63.5,57.85c-.19.06-.6.23-.88.61-.11.15-.2.29-.27.43.02-.42.03-.77.03-.89,0-.13-.09-.39-.21-.68.39.13.84.3,1.33.52Z"/>
  </g>
  <path class="cls-1" d="m62.23,60.99s-.54.14-.91.06c-.37-.09-.77-.54-.77-.54,0,0,.18-.48.32-1.09h0c.15-.63.26-1.38.08-1.83-.04-.09-.08-.17-.14-.23-.14-.15-.3-.31-.45-.47h0c-.51-.53-1.08-1.1-1.47-1.34-.04-.02-.08-.04-.11-.06-.1-.05-.2-.11-.31-.18.17-.16.36-.32.52-.42.27-.16.63-.22,1-.22.01.01.02.02.04.02.18.09.44.28.69.5.38.33.76.7.86.84.07.1.23.41.39.76.08.17.16.36.23.54.11.29.2.55.21.68,0,.12,0,.46-.03.89-.04.89-.12,2.1-.12,2.1Z"/>
  <g>
    <path class="cls-3" d="m60.24,77.89c-.06-.08.61-.54,1.63-1.63.93-.99.9-1.18,1.59-1.75.56-.46.79-.52,1.36-1.06.47-.46.58-.67.95-1.09.74-.83,1.02-.73,1.98-1.56,1.23-1.06.97-1.38,2.13-2.24.5-.37.81-.5,1.35-1.01.45-.41.61-.67,1.05-1.2.97-1.18,1.45-1.77,2-2.03,1.28-.62,2.65-.03,2.72,0,.09.04.51.24.93.62.09.09.18.18.27.28.03.04.07.09.1.13.1.13.2.28.28.43.11.22.21.47.26.74.18.95-.2,1.72-.3,1.93-.28.54-1.21,1.09-1.33,1.17-.35.24-.35.26-1.08.54-.59.23-.47.28-1.79,1.02-1.15.64-1.72.96-2.53,1.27-1.12.42-1.21.26-2.03.67-1.01.5-.83.72-1.81,1.18-.83.39-1.11.3-2.32.86-.28.13-.23.12-.92.45-.85.42-1.35.64-1.72.81-1.79.84-1.96,1.03-2.82,1.46Z"/>
    <path class="cls-1" d="m85.18,61.14c-.17-.02-.36-.03-.57,0-.64.05-1.08.29-1.95.78-.93.52-1.57,1.03-1.94,1.36-.11.2-.24.41-.39.63-.12.17-.22.32-.35.47.25-.08.52-.16.85-.21.03,0,.06,0,.09,0,.46-.41.87-.85,1.3-.96.3-.07.6,0,.82.05.28.07.47.12.62.28.27.28.17.67.35.71.13.04.29-.15.37-.24.24-.27.19-.49.33-.54.13-.05.25.08.48.26"/>
    <path class="cls-1" d="m78.24,65.23c-.09-.1-.18-.19-.27-.28.22-.17.51-.41.87-.74.52-.49.81-.85.97-1.34.07-.23.18-.6,0-.87-.12-.19-.25-.15-.66-.42-.24-.16-.55-.38-.68-.75-.04-.11-.11-.31-.01-.47.11-.17.37-.19.54-.2.36-.03.53.09.6,0,.07-.09-.06-.22-.1-.51,0-.05-.08-.59.17-.74.25-.15.67.16.72.19.41.3.5.76.59.74.06-.02-.01-.29.07-.65.04-.2.09-.5.21-.52.18-.03.44.59.55,1.06.07.3.14.58.06.94-.06.29-.17.36-.4.87-.15.33-.13.35-.29.75-.1.24-.24.58-.45.97-.11.2-.24.41-.39.63-.12.17-.22.32-.35.46-.15.04-.28.09-.42.14-.02,0-.04.01-.05.02-.41.15-.9.42-1.28.71Z"/>
    <path class="cls-1" d="m82.45,69.08c-.26-.07-.28-.99-.26-1.41.02-.45.09-.74-.03-.81-.18-.09-.5.4-.75.31-.22-.09-.22-.56-.22-.67,0-.25.06-.47.15-.79.1-.35.15-.44.1-.55-.1-.2-.42-.23-.58-.24-.59-.04-1.08.16-1.4.33-.36.19-.63.38-.83.54-.08-.16-.18-.3-.28-.43-.03-.04-.07-.09-.1-.13.39-.29.87-.56,1.28-.71.02,0,.04-.01.05-.02.13-.05.27-.1.42-.14.25-.08.52-.15.85-.2.03,0,.06,0,.09-.01.59-.09,1.08-.15,1.65.05.19.07.75.3,1.17.86.07.09.13.19.5,1.23.35,1,.4,1.19.3,1.28-.14.13-.5.03-.72-.14-.27-.2-.29-.47-.38-.46-.15.02,0,.79-.4,1.53-.13.24-.41.64-.6.59Z"/>
  </g>
  <path class="cls-1" d="m78.76,73.3c-.47.24-.7.62-.79.77-.37.63-.46,1.5-.07,2.19.62,1.11,2.24,1.4,3.09.81.45-.31.63-.82.72-1.11.09-.27.34-1,.02-1.69-.47-1.02-1.98-1.47-2.98-.97Z"/>
  <path class="cls-1" d="m74.53,72.53c-.56.28-.84.74-.95.92-.45.75-.55,1.8-.08,2.63.74,1.33,2.68,1.68,3.71.98.54-.37.75-.99.87-1.33.11-.33.41-1.21.03-2.03-.57-1.23-2.38-1.77-3.58-1.16Z"/>
  <path class="cls-1" d="m68.54,73.01c-.47.24-.7.62-.79.77-.37.63-.46,1.5-.07,2.19.62,1.11,2.24,1.4,3.09.81.45-.31.63-.82.72-1.11.09-.27.34-1,.02-1.69-.47-1.02-1.98-1.47-2.98-.97Z"/>
  <line class="cls-9" x1="20.35" y1="36.04" x2="20.33" y2="36.03"/>
  <line class="cls-4" x1="45.66" y1="87.24" x2="45.66" y2="87.1"/>
  <line class="cls-4" x1="45.66" y1="44.01" x2="45.66" y2="44"/>
  <circle class="cls-12" cx="33.72" cy="67.79" r="1.29"/>
  <rect class="cls-10" x="-1461.05" y="-2049.43" width="3385.57" height="2571.67"/>
</svg>