<?xml version="1.0" encoding="UTF-8"?>
<svg id="Calque_1" data-name="Calque 1" xmlns="http://www.w3.org/2000/svg" viewBox="0 0 200 128">
  <defs>
    <style>
      .cls-1 {
        fill: #e20349;
      }

      .cls-2 {
        fill: none;
        stroke: #fff;
        stroke-linecap: round;
        stroke-linejoin: round;
        stroke-width: 8px;
      }
    </style>
  </defs>
  <g>
    <path class="cls-1" d="m186.61,54.29c-.17.44-.31.86-.48,1.27-2.12,4.95-5.89,7.86-11.14,8.85-.95.18-1.94.22-2.91.23-4.65.02-9.31.01-13.96.01-.23,0-.46,0-.75,0v.75c0,7.94,0,15.88,0,23.82,0,1.89-1.81,3-3.43,2.09-.68-.38-1.05-.97-1.11-1.75-.02-.23-.01-.47-.01-.7,0-12.63.02-25.27-.02-37.9,0-1.9,1.24-2.71,2.69-2.71,8.54.04,17.09.02,25.63.02h1.24c-.21-.6-.35-1.17-.6-1.67-1.89-3.85-5.02-5.91-9.28-5.96-8.35-.09-16.7-.03-25.05-.03-1.27,0-2.15-.65-2.38-1.74-.26-1.23.59-2.43,1.84-2.58.21-.03.43-.03.64-.03,8.29,0,16.58-.01,24.87,0,6.51,0,12.19,4.08,14.07,10.07.27.85.43,1.74.55,2.63.06.4.19.61.55.78,2.87,1.37,5.1,3.43,6.62,6.25,2.76,5.12,1.94,11.6-2.04,15.85-2.99,3.2-6.68,4.8-11.05,4.82-4.48.02-8.96,0-13.43,0-1.14,0-1.99-.56-2.28-1.48-.46-1.43.58-2.84,2.12-2.85,2.44-.01,4.89,0,7.33,0,2.19,0,4.38.02,6.57-.02,5.19-.09,9.51-4.09,9.83-9.25.23-3.69-1.36-6.58-4.4-8.67-.06-.04-.13-.06-.23-.1Zm-4.33-1.58h-24.88v7.61c.28,0,.51,0,.74,0,2.7,0,5.39,0,8.09,0,2.3,0,4.61.06,6.91-.08,3.3-.19,5.91-1.74,7.8-4.45.64-.91,1.1-1.92,1.34-3.08Z"/>
    <path class="cls-1" d="m15.21,77.36v-11.76s.07-.08.1-.08c1.79.03,3.61-.12,5.37.15,3.04.46,4.88,3.13,4.68,6.44-.17,2.72-2.48,5.06-5.34,5.24-1.59.1-3.19.02-4.81.02Zm2.47-9.73c-.11.14-.14.15-.14.17-.01,2.36-.03,4.72-.02,7.08,0,.11.23.32.35.32.74,0,1.49.02,2.22-.07,1.64-.21,2.85-1.57,2.95-3.23.13-2.08-.78-3.65-2.51-4.04-.95-.22-1.96-.17-2.85-.23Z"/>
    <path class="cls-1" d="m111.29,56.67c.48-.43,1.14-.83,1.57-1.4,1.78-2.36.42-5.84-2.57-6.62-1.93-.51-3.91-.17-5.89-.26v11.92h2.31c0-.83-.01-1.64.01-2.44,0-.15.11-.41.22-.45,1.01-.32,2.36.12,2.98.99.37.52.71,1.07,1.08,1.6.09.12.25.3.37.3.77.02,1.55.01,2.51.01-.93-1.32-1.79-2.52-2.6-3.65Zm-2.04-1.5c-.81.06-1.64.01-2.51.01v-4.56c1.11-.01,2.2-.19,3.24.21.99.39,1.53,1.3,1.4,2.37-.14,1.09-.93,1.86-2.14,1.96Z"/>
    <path class="cls-1" d="m109.92,73.66c.09-.05.26-.14.42-.24.97-.57,1.62-1.39,1.84-2.52.52-2.56-.96-4.87-3.58-5.23-1.79-.25-3.62-.11-5.43-.14-.02,0-.06.05-.07.06v11.79h2.3v-2.9c.41,0,.76.02,1.11,0,1.01-.09,1.73.34,2.25,1.18.3.48.61.96.93,1.43.09.12.25.3.37.31.77.02,1.55.01,2.52.01-.94-1.33-1.79-2.52-2.66-3.77Zm-1.64-1.49c-.83.14-1.7.11-2.56.14-.11,0-.31-.19-.31-.3-.02-1.42-.02-2.83-.02-4.39,1.07.07,2.06.05,3.03.24,1.08.21,1.7,1.13,1.67,2.17-.02,1.09-.68,1.96-1.8,2.14Z"/>
    <path class="cls-1" d="m88.97,56.65c.43-.35,1.01-.68,1.4-1.17,2.01-2.35.72-6.15-2.44-6.8-1.88-.4-3.86-.29-5.83-.4v11.99h2.27c0-.83-.01-1.62.01-2.4,0-.16.1-.41.21-.46.93-.34,2.36.11,2.95.92.4.55.73,1.12,1.12,1.65.09.14.24.31.37.32.78.02,1.58.01,2.54.01-.96-1.34-1.8-2.54-2.61-3.68Zm-2.04-1.48c-.82.06-1.64.01-2.55.01,0-1.48,0-2.87.01-4.27,0-.11.21-.3.31-.3.82,0,1.65-.02,2.45.1,1.27.2,2,1.14,1.94,2.32-.06,1.18-.89,2.04-2.16,2.14Z"/>
    <path class="cls-1" d="m15.35,60.28v-11.85h7.85v2.13h-5.45v2.63c.18,0,.39.03.59.03,1.33,0,2.66.01,3.99,0,.41,0,.56.12.54.53-.03.52,0,1.05,0,1.67h-5.13v2.67h5.47v2.19h-7.84Z"/>
    <path class="cls-1" d="m101.79,48.44v2.15h-5.54v2.64h5.11v2.19h-5.11v2.7h5.53v2.18h-7.83v-11.85h7.84Z"/>
    <path class="cls-1" d="m115.89,60.3v-11.88h7.88v2.14c-.19,0-.4.03-.6.03-1.49,0-2.97.01-4.46,0-.4,0-.56.11-.54.53.03.68,0,1.36,0,2.1h5.13v2.21c-.53,0-1.06,0-1.58,0-1.02,0-2.03.01-3.05,0-.37,0-.53.1-.52.5.03.7,0,1.4,0,2.19h5.59v2.19h-7.88Z"/>
    <path class="cls-1" d="m35.53,75.23v2.16h-7.88v-11.85h7.86v2.13h-5.57c0,.84-.02,1.61.02,2.39,0,.1.3.25.47.25,1.31.02,2.62.01,3.93.01.21,0,.43,0,.69,0v2.19h-5.11c0,.85-.02,1.63.02,2.4,0,.11.31.3.48.3,1.45.02,2.89.01,4.34.01.23,0,.46,0,.74,0Z"/>
    <path class="cls-1" d="m53.68,58.04c.5-.45.97-.89,1.49-1.36.73.83,1.62,1.4,2.7,1.49.76.06,1.56-.01,2.3-.18.65-.15.98-.71.95-1.25-.02-.56-.36-1.03-1.04-1.19-.72-.18-1.46-.23-2.19-.38-.72-.15-1.46-.29-2.14-.57-2.49-1-2.19-4.02-.69-5.2,1.66-1.3,3.52-1.38,5.43-.73.95.32,1.8.84,2.55,1.6-.51.47-.99.91-1.37,1.27-.95-.36-1.79-.79-2.69-.97-.61-.12-1.31.04-1.94.2-.49.13-.81.53-.77,1.11.04.54.41.81.87.9.86.18,1.73.26,2.59.43.59.12,1.19.25,1.74.49,2.32,1.01,2.69,4.18.68,5.74-2.38,1.84-6.75,1.14-8.49-1.4Z"/>
    <path class="cls-1" d="m135,50.14c-.65.6-1.13,1.04-1.5,1.38-.96-.36-1.81-.78-2.71-.97-.57-.12-1.24.02-1.83.16-.54.13-.92.55-.88,1.16.04.59.51.83,1,.93.82.17,1.66.23,2.48.39.61.12,1.22.28,1.79.52,2.37.96,2.45,4.22.71,5.65-2.31,1.9-6.92,1.21-8.57-1.34.48-.44.96-.89,1.48-1.36,1.05,1.2,2.38,1.67,3.9,1.56.49-.04,1.02-.17,1.44-.42.9-.52.85-1.77-.12-2.14-.77-.29-1.63-.34-2.45-.51-.59-.12-1.2-.2-1.76-.4-1.23-.42-2.12-1.19-2.22-2.58-.1-1.39.46-2.5,1.67-3.19,1.59-.91,3.29-.98,4.96-.29.87.36,1.66.91,2.61,1.44Z"/>
    <path class="cls-1" d="m117.59,67.69v2.62h5.11v2.2h-5.14c0,.86-.02,1.65.02,2.44,0,.1.33.27.51.27,1.43.02,2.85.01,4.28.01.21,0,.43,0,.7,0v2.16h-7.8v-11.85h7.86c0,.62.03,1.22-.02,1.82-.01.12-.3.32-.46.32-1.43.03-2.85.01-4.28.01-.23,0-.47,0-.77,0Z"/>
    <path class="cls-1" d="m37.79,75.1c.5-.46.97-.89,1.46-1.35,1.18,1.3,2.64,1.76,4.34,1.51.21-.03.42-.08.62-.16.65-.25,1.02-.73,1-1.3-.03-.67-.44-1.06-1.03-1.19-.85-.19-1.73-.28-2.59-.45-.51-.1-1.03-.22-1.52-.41-1.07-.4-1.86-1.11-2-2.3-.16-1.32.24-2.47,1.38-3.21,1.89-1.23,3.88-1.15,5.86-.21.66.31,1.24.79,1.93,1.23-.57.52-1.05.97-1.53,1.41-.55-.27-1.05-.56-1.59-.79-.81-.34-1.66-.44-2.52-.22-.28.07-.56.2-.79.37-.67.5-.6,1.41.17,1.68.76.26,1.6.32,2.39.49.74.16,1.51.27,2.2.57,2.24.98,2.69,3.85.91,5.54-2.17,2.06-7.08,1.4-8.69-1.21Z"/>
    <path class="cls-1" d="m125.69,75.12c.5-.46.97-.9,1.48-1.37.83.97,1.9,1.5,3.15,1.56.63.03,1.28-.08,1.89-.25.56-.16.91-.59.91-1.23,0-.64-.38-1.05-.95-1.18-.85-.2-1.73-.3-2.59-.46-.48-.09-.96-.2-1.42-.35-1.2-.4-2.06-1.14-2.2-2.47-.14-1.41.41-2.52,1.62-3.27,1.17-.72,2.47-.85,3.79-.66,1.41.21,2.61.88,3.7,1.89-.45.42-.87.85-1.34,1.22-.1.08-.39,0-.54-.09-1.01-.61-2.07-1.02-3.28-.86-.38.05-.8.15-1.08.38-.27.22-.55.64-.52.95.02.3.37.74.67.83.76.24,1.56.29,2.34.46.7.15,1.43.25,2.09.52,2.41,1,2.79,4.2.72,5.8-2.35,1.81-6.73,1.1-8.45-1.42Z"/>
    <path class="cls-1" d="m61.58,65.67c-1.53-.24-3.12-.11-4.67-.2-.58-.02-.77.11-.77.73.04,2.92.02,5.83.02,8.75,0,.68-.02,1.37.01,2.05.01.15.2.4.32.41.62.04,1.24.01,1.98.01,0-.81.02-1.53,0-2.25-.01-.4.11-.53.53-.53.83-.01,1.69.01,2.51-.14,1.84-.32,3.21-1.32,3.72-3.21.72-2.71-.83-5.19-3.65-5.63Zm-.78,6.76c-.73.05-1.48.01-2.31.01,0-1.53-.01-2.98.01-4.45,0-.1.2-.29.31-.29.75-.01,1.49-.06,2.22.05,1.4.21,2.19,1.16,2.14,2.47-.04,1.21-.98,2.1-2.37,2.2Z"/>
    <path class="cls-1" d="m9.78,48.65c-1.83-.32-3.72-.25-5.59-.35v11.99h2.27v-2.65c.94-.05,1.8-.06,2.66-.14,2.31-.21,4.08-1.89,4.25-4.05.2-2.4-1.14-4.39-3.59-4.81Zm-.68,6.65c-.73.1-1.48.06-2.22.1-.35.01-.42-.16-.41-.47.01-.65,0-1.29,0-1.94s-.01-1.33.02-1.99c0-.14.21-.39.34-.39.8,0,1.6-.02,2.39.12,1.26.22,1.99,1.16,1.96,2.32-.02,1.17-.81,2.05-2.08,2.24Z"/>
    <path class="cls-1" d="m78.36,65.53h2.25c0,.25,0,.46,0,.67,0,2.11-.01,4.22,0,6.33,0,1,.27,1.92,1.19,2.47,1.68,1,3.67-.07,3.75-2.08.09-2.21.03-4.42.04-6.62,0-.23,0-.46,0-.75h2.28c.01.22.03.43.03.64,0,2.11,0,4.22,0,6.33,0,2.93-1.69,4.84-4.6,5.01-2.48.14-4.79-1.32-4.98-4.41-.16-2.45-.04-4.92-.04-7.39,0-.05.03-.11.06-.19Z"/>
    <path class="cls-1" d="m76.5,76.87c-1.47-3.63-2.96-7.26-4.41-10.9-.2-.51-.51-.48-.89-.48-.41-.01-.71,0-.91.5-.98,2.5-2.03,4.98-3.06,7.47-.52,1.29-1.06,2.58-1.62,3.94h2.51c.25-.55.48-1.09.72-1.64.01-.04.04-.07.04-.11.07-.32.26-.43.6-.42.71.02,1.4.01,2.11.01.55,0,1.23-.17,1.59.09.4.29.48.98.71,1.49.05.14.09.27.16.37.1.11.24.24.35.24.75.02,1.48.01,2.3.01-.09-.26-.14-.41-.2-.56Zm-6.61-3.89c.42-1.07.82-2.09,1.28-3.26.46,1.17.86,2.17,1.28,3.26h-2.56Z"/>
    <path class="cls-1" d="m101.02,65.49c-.48,1.19-.93,2.29-1.38,3.39-1.1,2.71-2.21,5.42-3.3,8.14-.13.33-.32.48-.65.42-.37-.07-.82.22-1.05-.35-1.54-3.77-3.1-7.54-4.66-11.31-.03-.07-.02-.15-.05-.28.77,0,1.51-.03,2.25.02.16,0,.36.25.43.43.86,2.15,1.71,4.32,2.55,6.48.07.18.15.35.28.66.38-.95.7-1.76,1.03-2.58.59-1.51,1.19-3.01,1.76-4.53.14-.38.32-.51.72-.5.66.03,1.32,0,2.07,0Z"/>
    <path class="cls-1" d="m79.06,55.44h-5.12v4.84h-2.3v-11.85h7.85v2.14h-5.52v2.64h5.1v2.22Z"/>
    <path class="cls-1" d="m30.39,50.59v9.71h-2.31c-.01-.25-.03-.47-.03-.7,0-2.77-.01-5.55,0-8.32,0-.53-.13-.73-.68-.69-.83.05-1.67.01-2.55.01v-2.16h8.77v2.16h-3.21Z"/>
    <path class="cls-1" d="m46.74,50.59h-3.24v-2.16h8.8v2.16c-.44,0-.88-.01-1.32,0-.62.02-1.47-.18-1.79.15-.32.33-.13,1.18-.13,1.8,0,2.37,0,4.73,0,7.1,0,.21,0,.42,0,.66h-2.32v-9.71Z"/>
    <path class="cls-1" d="m41.02,60.3h-5.13v-2.17h1.39c.01-.27.03-.48.03-.69,0-2.05-.02-4.1.01-6.15,0-.57-.15-.79-.72-.71-.22.03-.46,0-.72,0v-2.17h5.14v2.17h-1.36v7.52h1.35v2.19Z"/>
    <path class="cls-1" d="m15.19,91.55c-.01-.12-.04-.25-.04-.39,0-1.86,0-3.71,0-5.55.43-.25.61.02.8.27.83,1.11,1.66,2.22,2.5,3.33.11.15.24.29.46.56v-4.22h.89v6.18c-.29-.17-.57-.25-.71-.43-.84-1.08-1.65-2.18-2.47-3.28-.14-.18-.28-.35-.55-.5,0,.63,0,1.27,0,1.9,0,.49,0,.98,0,1.47,0,.8-.03.82-.86.65Z"/>
    <path class="cls-1" d="m69.38,91.55c0-.73,0-1.43,0-2.14,0-.88-.38-1.35-1.1-1.38-.79-.04-1.33.47-1.37,1.35-.03.72,0,1.44,0,2.21h-.83c0-.51,0-1.03,0-1.55,0-.27.02-.55-.01-.82-.08-.81-.47-1.19-1.17-1.19-.72,0-1.23.49-1.27,1.26-.03.64,0,1.29-.01,1.94,0,.11-.02.23-.02.33-.82.16-.85.14-.85-.61,0-1-.02-1.99.01-2.99,0-.23.16-.45.24-.68.17.17.34.35.47.48.47-.16,1.02-.42,1.59-.51.67-.1,1.2.25,1.58.89.47-.64,1.06-.96,1.85-.91.89.06,1.6.61,1.68,1.5.08.85.05,1.72.04,2.58,0,.36-.1.38-.82.26Z"/>
    <path class="cls-1" d="m89.48,91.58c-.04-.19-.07-.36-.12-.65-.61.66-1.32.92-2.09.68-.44-.13-.89-.43-1.19-.78-.71-.82-.6-2.16.14-2.95.77-.81,1.78-.87,2.94-.08v-2.25h.8c.02.11.05.22.05.33,0,1.76,0,3.51,0,5.27,0,.36-.06.58-.54.43Zm-.26-2.04c.04-.8-.55-1.46-1.32-1.5-.75-.04-1.39.56-1.42,1.33-.04.82.53,1.46,1.31,1.5.75.03,1.39-.56,1.43-1.33Z"/>
    <path class="cls-1" d="m36.83,87.88s.04-.06.05-.1c.06-.22-.02-.6.37-.49.13.04.25.37.26.58.03.9.01,1.79.01,2.69,0,.2.04.4-.01.58-.04.17-.17.32-.26.48-.12-.14-.24-.27-.35-.41-.03-.04-.03-.11-.02-.05-.59.17-1.17.42-1.76.48-.66.07-1.19-.31-1.59-.83-.64-.87-.54-2.2.2-2.96.82-.84,1.83-.83,3.09.03Zm-1.51,2.98c.77.01,1.41-.63,1.41-1.42,0-.76-.62-1.4-1.36-1.41-.76-.02-1.41.64-1.41,1.42,0,.76.61,1.4,1.36,1.41Z"/>
    <path class="cls-1" d="m118.34,91.57c-.02-.2-.04-.37-.08-.66-.61.65-1.32.94-2.1.7-.44-.13-.89-.43-1.19-.78-.7-.82-.59-2.19.15-2.96.83-.86,1.84-.86,3.14.04.03-.2.06-.38.09-.58.34-.15.54-.09.53.35-.01,1.17-.01,2.35,0,3.52,0,.38-.13.5-.54.37Zm-2.98-2.21c-.04.8.54,1.46,1.32,1.5.75.04,1.39-.56,1.43-1.33.04-.8-.54-1.47-1.31-1.5-.74-.04-1.39.57-1.43,1.33Z"/>
    <path class="cls-1" d="m131.04,89.68h-3.22c.02,1.2,1.12,1.55,2.73.87.13.14.27.28.41.43-.78.81-2.42.92-3.26.25-.81-.63-1.07-1.88-.57-2.87.48-.97,1.67-1.39,2.77-1.02.82.28,1.52,1.4,1.14,2.33Zm-3.19-.6h2.42c-.08-.68-.48-1.05-1.11-1.08-.7-.03-1.17.34-1.31,1.08Z"/>
    <path class="cls-1" d="m95,89.66h-3.29c.04,1.22.97,1.51,2.78.91.12.13.24.28.36.42-.82.75-2.11.91-3.01.4-.81-.47-1.2-1.41-1-2.42.24-1.23,1.28-1.92,2.57-1.72,1.1.17,1.73,1.09,1.59,2.42Zm-3.27-.57h2.43c-.07-.67-.46-1.05-1.08-1.09-.7-.04-1.17.32-1.34,1.09Z"/>
    <path class="cls-1" d="m75.13,89.67h-3.24c-.03,1.19,1.02,1.53,2.74.89.12.13.25.27.38.41-.69.8-2.13.83-2.83.51-.81-.38-1.31-1.26-1.23-2.21.08-1,.65-1.71,1.56-1.97,1.59-.45,2.95.73,2.62,2.37Zm-.78-.59c-.13-.73-.54-1.09-1.19-1.09-.68,0-1.12.38-1.23,1.09h2.42Z"/>
    <path class="cls-1" d="m61.93,89.66h-3.23c-.06,1.21.98,1.54,2.72.9.13.13.26.27.39.41-.74.85-2.35.86-3.07.39-.84-.55-1.21-1.63-.87-2.69.35-1.08,1.46-1.67,2.63-1.4,1.06.25,1.61,1.13,1.44,2.39Zm-.77-.57c-.16-.79-.61-1.14-1.31-1.09-.65.04-1.07.45-1.1,1.09h2.42Z"/>
    <path class="cls-1" d="m22.9,91.67c-1.26,0-2.22-.98-2.21-2.24,0-1.25.98-2.21,2.24-2.21,1.26,0,2.21.98,2.21,2.24,0,1.26-.97,2.21-2.24,2.2Zm-1.35-2.2c.01.78.61,1.39,1.37,1.39.76,0,1.42-.68,1.4-1.44-.02-.78-.69-1.42-1.45-1.39-.75.03-1.33.66-1.32,1.44Z"/>
    <path class="cls-1" d="m53.11,91.67c-1.26,0-2.23-.97-2.23-2.22,0-1.26.98-2.23,2.23-2.22,1.24,0,2.24.99,2.25,2.22.01,1.22-1,2.22-2.25,2.22Zm-1.37-2.24c0,.81.6,1.44,1.38,1.43.75,0,1.36-.63,1.37-1.4,0-.79-.62-1.44-1.39-1.43-.75,0-1.35.62-1.36,1.4Z"/>
    <path class="cls-1" d="m105.18,87.23c1.25,0,2.24.96,2.26,2.21.02,1.23-.98,2.23-2.22,2.24-1.26,0-2.26-.97-2.26-2.2,0-1.24.99-2.24,2.23-2.24Zm1.4,2.25c.01-.79-.62-1.45-1.38-1.44-.75,0-1.36.62-1.37,1.39-.01.77.57,1.42,1.32,1.44.77.02,1.43-.6,1.44-1.39Z"/>
    <path class="cls-1" d="m76.78,91.6h-.83c0-1.37-.01-2.71.02-4.06,0-.11.27-.22.49-.39.05.36.08.55.09.61.59-.18,1.17-.46,1.77-.51.91-.07,1.6.52,1.71,1.43.1.87.11,1.76.08,2.63-.02.56-.49.24-.86.33,0-.85.02-1.64,0-2.43-.03-.89-.69-1.37-1.51-1.14-.53.15-.82.52-.88,1.05-.04.41-.05.82-.06,1.23,0,.39,0,.78,0,1.24Z"/>
    <path class="cls-1" d="m98.85,91.6h-.75c0-.54,0-1.06,0-1.58,0-.78,0-1.56,0-2.34,0-.39.16-.49.55-.36.03.18.06.38.1.66.51-.54,1.06-.8,1.75-.76.9.05,1.56.59,1.7,1.47.05.31.04.62.05.93,0,.64,0,1.28,0,1.96h-.83c0-.75.02-1.51,0-2.26-.03-1.05-.79-1.58-1.69-1.2-.61.26-.76.8-.78,1.39-.02.64-.01,1.29-.02,1.93,0,.03-.03.07-.07.15Z"/>
    <path class="cls-1" d="m30.03,91.6h-.79c0-.75.02-1.48,0-2.21-.02-.92-.46-1.39-1.25-1.36-.72.03-1.2.54-1.22,1.38-.02.72,0,1.44,0,2.19h-.83c0-.88,0-1.73,0-2.58,0-.37-.03-.75.01-1.11.02-.21.15-.42.23-.63.16.16.32.32.44.44.51-.15,1.09-.42,1.68-.46.93-.07,1.64.55,1.72,1.49.08.93.02,1.87.02,2.87Z"/>
    <path class="cls-1" d="m126.13,91.6h-.81c0-.8.02-1.57,0-2.34-.04-.97-.78-1.47-1.64-1.14-.6.23-.78.73-.81,1.31-.02.35,0,.7-.01,1.06,0,.35,0,.7,0,1.1h-.78c-.01-.29-.04-.59-.04-.89,0-.92-.02-1.84.01-2.76,0-.22.16-.44.25-.66.15.18.3.36.4.47.51-.16,1.07-.45,1.65-.49.96-.08,1.68.54,1.76,1.5.08.93.02,1.87.02,2.85Z"/>
    <path class="cls-1" d="m50.24,88.01c-.12.13-.24.27-.28.31-.61-.16-1.12-.36-1.64-.38-.23-.01-.47.34-.71.53.22.17.42.42.67.51.32.11.69.09,1.04.16.63.13.98.5,1.02,1.04.05.67-.23,1.13-.85,1.37-.96.37-2.22.07-2.88-.74.14-.12.28-.24.3-.26.68.17,1.24.36,1.82.44.38.05.77-.13.78-.6,0-.45-.37-.54-.74-.59-.4-.06-.81-.11-1.21-.22-.47-.12-.78-.43-.82-.94-.04-.53.2-.9.64-1.16.68-.39,2.21-.38,2.85.55Z"/>
    <path class="cls-1" d="m131.61,90.8c.15-.13.28-.25.31-.27.66.17,1.22.36,1.79.44.38.05.77-.12.78-.6,0-.46-.37-.54-.73-.6-.4-.07-.81-.12-1.21-.22-.51-.13-.82-.48-.83-1.01-.01-.51.24-.89.71-1.12.91-.45,2.05-.24,2.86.61-.14.14-.29.28-.44.42-.01-.07-.03-.14-.04-.21-.51-.12-1.02-.3-1.54-.32-.22,0-.45.32-.68.5.21.18.4.43.65.53.32.12.69.09,1.04.15.66.13,1.03.53,1.09,1.13.05.56-.3,1.07-.9,1.3-.94.36-2.16.07-2.86-.74Z"/>
    <path class="cls-1" d="m111.59,88.02c-.16.14-.29.26-.33.31-.56-.15-1.05-.33-1.55-.4-.36-.05-.75.1-.77.54-.02.43.38.48.71.53.33.05.66.07.99.13.65.13,1.03.54,1.07,1.14.04.55-.29,1.03-.86,1.27-.93.38-2.19.1-2.87-.67.05-.07.1-.15.16-.21.07-.07.15-.13.12-.1.65.16,1.21.36,1.79.43.38.05.77-.12.77-.6,0-.46-.37-.54-.73-.59-.4-.06-.81-.11-1.21-.22-.44-.12-.76-.39-.8-.89-.05-.55.16-.95.64-1.21.88-.49,2.1-.27,2.87.56Z"/>
    <path class="cls-1" d="m80.89,87.34c.18-.05.34-.09.55-.15v-1.32h.82v1.32c.22.06.39.1.59.15v.71c-.19.04-.36.08-.58.13v3.41h-.83c0-.96-.01-1.91,0-2.85,0-.39-.02-.72-.56-.67v-.74Z"/>
    <path class="cls-1" d="m40.9,91.58v-5.98c.8-.2.85-.17.85.63,0,1.56,0,3.12,0,4.68q0,.78-.85.67Z"/>
    <path class="cls-1" d="m56.18,85.56c.82-.12.83-.11.83.66,0,1.56,0,3.12,0,4.68q0,.78-.83.68v-6.02Z"/>
    <path class="cls-1" d="m95.34,45.07c.81,0,1.46,0,2.12,0,.09,0,.22.09.27.18.43.72.84,1.44,1.29,2.21-.96.14-1.76.16-2.32-.77-.33-.55-.83-1.01-1.36-1.63Z"/>
    <path class="cls-1" d="m120.09,91.59v-4.28h.75v4.28h-.75Z"/>
    <path class="cls-1" d="m45.72,91.61h-.72v-4.3h.72v4.3Z"/>
    <path class="cls-1" d="m121.53,86.84c-.35-.14-.71-.29-1.06-.43-.32.13-.68.28-1.05.43-.04-.06-.07-.13-.11-.19.4-.32.41-.99,1.12-1.03.76-.04.81.67,1.2,1.01l-.1.21Z"/>
    <path class="cls-1" d="m42.48,87.61c.17-.56.33-.99.41-1.42.12-.6.41-.85,1.1-.61-.27.61-.52,1.23-.84,1.81-.07.13-.38.13-.68.22Z"/>
    <path class="cls-1" d="m34.5,85.73c.9-.13.91-.12,1.38.93q-.6.17-1.38-.93Z"/>
    <path class="cls-1" d="m130.05,85.73q-.75,1.06-1.37.98c.28-.97.46-1.1,1.37-.98Z"/>
    <path class="cls-1" d="m45.33,85.68c.24.3.47.47.48.65,0,.13-.28.4-.43.39-.18-.01-.47-.22-.49-.39-.03-.15.22-.35.44-.66Z"/>
  </g>
  <rect class="cls-2" x="-1220.14" y="-55.49" width="1951.05" height="522.43"/>
</svg>