<?xml version="1.0" encoding="UTF-8"?>
<svg id="Calque_1" data-name="Calque 1" xmlns="http://www.w3.org/2000/svg" viewBox="0 0 128 128">
  <defs>
    <style>
      .cls-1, .cls-2, .cls-3, .cls-4 {
        fill: none;
      }

      .cls-5 {
        fill: #ff6d75;
      }

      .cls-5, .cls-2, .cls-6, .cls-3, .cls-7 {
        stroke: #000;
      }

      .cls-5, .cls-2, .cls-6, .cls-3, .cls-4 {
        stroke-linecap: round;
        stroke-linejoin: round;
      }

      .cls-6 {
        fill: #fab0b4;
      }

      .cls-8 {
        fill: #fff;
      }

      .cls-3 {
        stroke-width: 2px;
      }

      .cls-7 {
        stroke-miterlimit: 10;
        stroke-width: .25px;
      }

      .cls-4 {
        stroke: #fff;
        stroke-width: 8px;
      }
    </style>
  </defs>
  <g>
    <path class="cls-2" d="m72.39,96.21h-17.36c.84-1.16,1.86-2.19,3.29-2.53.91-.22,1.86-.21,2.8-.2,1.58.01,3.16.02,4.75.04,1.05.01,2.12.02,3.15.28,1.43.35,2.48,1.3,3.37,2.41Z"/>
    <path class="cls-6" d="m75.56,102.11c0,2.51-2.16,2.33-5.5,1.92h1.4c-4.49-6.2-7.85-2.17-7.85-2.17-3.95-3.35-7.04,2.17-7.04,2.17h1.42c-3.56.44-5.93.66-5.93-1.87,0-.65.34-1.32.6-1.89.41-.9.9-1.76,1.41-2.6.3-.48.62-.98.96-1.46h17.36c.35.43.67.9.98,1.36.56.82,1.08,1.68,1.52,2.56.29.59.67,1.3.67,1.98Z"/>
    <path class="cls-1" d="m96.13,60.75s-2.39-20.8-9.37-24.76c-6.98-3.96-9.9-3.08-9.9-3.08l-4.09-2.28-3.6.96-5.16-.85-5.16,2.63-5.12-1.26-9.77,2.62-6.23,5.19-6.24,20.91.04.13s-.01-.01-.04-.01c.17,3.64.81,13.19,3.13,22.92,1.91,8.08,4.97,16.28,9.84,21.32,12.36,12.78,19.7,11.16,19.7,11.16,1.25.11,7.91.1,18.99-11.38,10.76-11.12,12.67-37.59,12.98-44.24-.03,0-.03-.03,0-.1h0"/>
    <path class="cls-8" d="m74.48,69.98s1.52-.17,4.4.1c5.18.49,7.7-2.72,7.7-2.72l-.09-.93s-6.81-5.6-13.91,2.83l1.9.72Z"/>
    <path class="cls-8" d="m52.95,70.45s-1.52-.17-4.4.1c-5.18.49-7.7-2.72-7.7-2.72l.09-.93s6.81-5.6,13.91,2.83l-1.9.72Z"/>
    <path class="cls-1" d="m93.19,83.22s4.11-1,6-7.57c1.9-6.57,4.69-6.04,4.4-12.68-.28-6.33-6.67-2.99-7.26-2.67-.17,3.62-.81,13.19-3.13,22.92Z"/>
    <path class="cls-1" d="m34.81,83.43s-4.11-1-6-7.57c-1.9-6.57-4.69-6.04-4.4-12.68.28-6.33,6.67-2.99,7.26-2.67.17,3.62.81,13.19,3.13,22.92Z"/>
    <path class="cls-2" d="m58.53,80.03s-4.5,4.58,0,7.94"/>
    <path class="cls-2" d="m58.84,85.56s1.87,1.62,3.33,2.23"/>
    <path class="cls-3" d="m46.45,21.53s4.32,11.62,11.28,11.37c6.96-.24,7.86-12.71,7.86-12.71"/>
    <path class="cls-3" d="m35.78,30.75s8.55,6.18,17.63.76"/>
    <path class="cls-3" d="m33.19,36.93s8.81.07,12.47-3.19"/>
    <path class="cls-3" d="m31.72,60.64s-7-3.99-7.3,2.66c-.3,6.64,2.5,6.11,4.39,12.68,1.89,6.57,6,7.56,6,7.56"/>
    <path class="cls-2" d="m62.6,20.61s-1.07,4.58-3.16,7.8"/>
    <path class="cls-2" d="m69.47,79.82s4.5,4.58,0,7.94"/>
    <path class="cls-3" d="m92.22,30.54s-14.38,7.06-19.86-.62"/>
    <path class="cls-3" d="m94.81,36.71s-8.91.31-12.58-2.95"/>
    <path class="cls-3" d="m88.25,37.24s8.66,14.98,8.04,23.19c0,0,12.59-32.51-14.57-41.21,0,0-1.47-5.49-8.56-4.08-9.34-8.15-18.29.21-18.29.21-7.09-1.41-8.56,4.08-8.56,4.08-27.17,8.7-14.57,41.21-14.57,41.21-.62-8.2,8.04-24.78,8.04-24.78"/>
    <path class="cls-3" d="m96.38,58.87s-.68,33-13.03,45.78-19.21,11.34-19.21,11.34l.22.03s-7.34,1.62-19.7-11.16c-12.36-12.78-13.03-45.78-13.03-45.78"/>
    <path class="cls-3" d="m96.28,60.43s7-3.99,7.3,2.66c.3,6.64-2.5,6.11-4.39,12.68s-6,7.56-6,7.56"/>
    <path class="cls-3" d="m62.71,29.73s6.02,7.62,14.14-5.14"/>
    <path class="cls-2" d="m75.01,70.19s1.52-.17,4.4.1c5.18.49,7.7-2.32,7.7-2.32l-.09-.93s-6.81-6-13.91,2.43"/>
    <circle class="cls-2" cx="80.66" cy="67.88" r="2.35"/>
    <path class="cls-2" d="m69.16,85.56s-1.87,1.62-3.33,2.23"/>
    <circle class="cls-7" cx="81.06" cy="67.71" r="1.16"/>
    <path class="cls-2" d="m41.9,63.43s5.63-3.53,11.69.99"/>
    <path class="cls-2" d="m53.18,70.19s-1.52-.17-4.4.1c-5.18.49-7.7-2.32-7.7-2.32l.09-.93s6.81-6,13.91,2.43"/>
    <circle class="cls-2" cx="47.53" cy="67.88" r="2.35"/>
    <circle class="cls-7" cx="48.08" cy="67.71" r="1.16"/>
    <path class="cls-3" d="m53.26,50.46s-7.7,0-16.17,6.29"/>
    <path class="cls-3" d="m74.15,50.46s7.7,0,16.17,6.29"/>
    <path class="cls-2" d="m86.5,63.43s-5.63-3.53-11.69.99"/>
    <path class="cls-5" d="m71.46,104.03h-1.4c-1.72-.21-3.75-.48-5.96-.48s-4.32.27-6.11.48h-1.42s3.09-5.52,7.04-2.17c0,0,3.36-4.03,7.85,2.17Z"/>
    <path class="cls-2" d="m81.1,38.5c.49,1.41.76,1.8,1.42,3.25.52,1.14,1.35,2.9.46,3.72-.2.18-.47.23-.74.24-.77.03-1.23-.45-1.48-1.21-.14-.42-.14-1.45-.04-1.74"/>
    <path class="cls-2" d="m86.5,42.73c.4,1.15.62,1.47,1.15,2.64.42.93,1.1,2.36.37,3.03-.16.14-.39.18-.6.19-.63.02-1.01-.37-1.2-.98-.11-.35-.11-1.18-.03-1.41"/>
  </g>
  <rect class="cls-4" x="-442.95" y="-164.15" width="1496.63" height="629.76"/>
</svg>