<?xml version="1.0" encoding="UTF-8"?><svg id="Calque_1" xmlns="http://www.w3.org/2000/svg" viewBox="0 0 200.13 128.13"><defs><style>.cls-1{stroke:#251f2d;}.cls-1,.cls-2,.cls-3{fill:#87ccf3;}.cls-1,.cls-3,.cls-4,.cls-5,.cls-6{stroke-miterlimit:10;}.cls-1,.cls-3,.cls-7,.cls-8,.cls-9,.cls-10,.cls-11,.cls-12,.cls-13,.cls-14,.cls-6{stroke-width:2px;}.cls-15,.cls-8{fill:#fff;}.cls-16,.cls-17,.cls-8,.cls-9,.cls-18,.cls-13{stroke-linejoin:round;}.cls-16,.cls-17,.cls-18,.cls-12,.cls-13{fill:none;}.cls-16,.cls-3,.cls-4,.cls-7,.cls-8,.cls-9,.cls-18,.cls-10,.cls-11,.cls-12,.cls-13,.cls-14,.cls-5,.cls-6{stroke:#000;}.cls-17{stroke:#e30613;stroke-width:8px;}.cls-17,.cls-7,.cls-8,.cls-9,.cls-18,.cls-10,.cls-11,.cls-13,.cls-14{stroke-linecap:round;}.cls-19{fill:#bfe6fc;}.cls-4{fill:#ff6d75;}.cls-20,.cls-5,.cls-6{fill:#d6d6d6;}.cls-7{fill:#fab0b4;}.cls-7,.cls-10,.cls-11,.cls-12,.cls-14{stroke-miterlimit:1;}.cls-9,.cls-14{fill:#f3d587;}.cls-10{fill:#b2f0e9;}.cls-11{fill:#8987f3;}.cls-21{fill:#baa584;}</style></defs><rect class="cls-17" x="-534.98" y="-468.58" width="2655.08" height="1511.77"/><ellipse class="cls-20" cx="161.24" cy="112.86" rx="24.56" ry="11.21"/><rect class="cls-21" x="159.61" y="74.8" width="3.26" height="39.07"/><path d="m161.87,75.8v37.06h-1.26v-37.06h1.26m2-2h-5.26v41.06h5.26v-41.06h0Z"/><path class="cls-3" d="m70.98,94.49c-.52-7.45-2.94-14.91-9.44-19.25-2.13-1.41-4.56-2.25-7.09-2.72-.32-.68-.94-1.2-1.66-1.44-.25-.08-.51-.12-.77-.12-.22,0-.45.03-.67.08-.48.1-.9.35-1.25.66-.1.09-.18.2-.23.33-.56-.02-1.12-.02-1.68-.02-4.61.02-8.82,1.53-11.79,5.14-.89,1.09-1.69,2.52-2.39,4.13-1.25,2.87-2.23,6.33-2.94,9.45-.02.09-.03.17-.06.26-.18.83-.36,1.61-.51,2.36-.02.01-.03.01-.06.02-.11.11-.22.22-.32.35-.44.47-.86.93-1.29,1.41-2.32,2.57-4.49,5.27-6.52,8.05h-.01s-1.1,1.51-1.62,2.27c-.06.08-.11.16-.17.23-.5.74.19,1.51.91,1.6,4.99.58,9.69,2.06,14.24,4.09,3.92,1.75,8.03,3.66,12.43,3.17,7.32-.82,11.59-6.84,14.63-13,.43-.84.83-1.69,1.2-2.53,0,0,0,0,0,0,.02-.01.06-.01.08-.02.73-.16,1.44-.34,2.16-.53.92-.25,1.83-.53,2.74-.83.75-.25,1.49-.51,2.22-.81-.02-.78-.06-1.57-.11-2.35Z"/><path class="cls-1" d="m63.9,99.02c-26.58-.5-33.42-5.67-33.42-5.67"/><path class="cls-3" d="m49.86,72.03s1.42,1.08,4.59.49"/><path class="cls-3" d="m51.85,72.65s-14.57,5.29-14.47,23.39"/><path class="cls-3" d="m52.69,72.7s9.73,11.3,11.29,26.31"/><circle class="cls-9" cx="32.61" cy="30.35" r="12.98"/><line class="cls-13" x1="32.61" y1="53.47" x2="32.61" y2="46.16"/><line class="cls-13" x1="16.26" y1="46.7" x2="21.43" y2="41.53"/><line class="cls-13" x1="9.49" y1="30.35" x2="16.8" y2="30.35"/><line class="cls-13" x1="16.26" y1="14" x2="21.43" y2="19.17"/><line class="cls-13" x1="32.61" y1="7.22" x2="32.61" y2="14.53"/><line class="cls-13" x1="48.96" y1="14" x2="43.79" y2="19.17"/><line class="cls-13" x1="55.74" y1="30.35" x2="48.43" y2="30.35"/><line class="cls-13" x1="48.96" y1="46.7" x2="43.79" y2="41.53"/><line class="cls-13" x1="48.96" y1="46.7" x2="43.79" y2="41.53"/><line class="cls-13" x1="32.61" y1="53.47" x2="32.61" y2="46.16"/><line class="cls-13" x1="16.26" y1="46.7" x2="21.43" y2="41.53"/><line class="cls-13" x1="9.49" y1="30.35" x2="16.8" y2="30.35"/><line class="cls-13" x1="16.26" y1="14" x2="21.43" y2="19.17"/><line class="cls-13" x1="32.61" y1="7.22" x2="32.61" y2="14.53"/><line class="cls-13" x1="48.96" y1="14" x2="43.79" y2="19.17"/><line class="cls-13" x1="55.74" y1="30.35" x2="48.43" y2="30.35"/><path class="cls-19" d="m113.33,113.61l-.08,1.76v4.38c0,.7-.56,1.26-1.26,1.26h-2.88c0-1.17-.95-2.12-2.12-2.12s-2.12.95-2.12,2.12h-4.1c0-1.17-.95-2.12-2.12-2.12s-2.12.95-2.12,2.12h-2.89c-.7,0-1.26-.56-1.26-1.26v-4.38l-.08-1.81c-.07-1.64-.11-3.28-.11-4.92,0-6.08.49-12.15,1.46-18.16l-.63-10.61c-.43-1.98-.64-4-.64-6.01s.19-3.83.58-5.71l.06-.3-.41-2.48c-.16-1.03-.01-2.07.44-3,.15-.31.31-.62.48-.93h18.62c.15.29.3.59.45.89l.02.04c.45.93.6,1.98.44,3l-.41,2.48h0l.06.3c.8,3.87.77,7.86-.06,11.72l-.63,10.61v.06c1.24,7.62,1.69,15.36,1.35,23.07Z"/><path class="cls-13" d="m113.02,65.35l-.4,2.49h-19.63l-.4-2.49c-.17-1.02-.01-2.07.44-3h0c.66-1.37,1.45-2.66,2.37-3.86.69-.9,1.44-1.75,2.26-2.53.03-.03.07-.06.1-.1.41-.41.69-.94.8-1.53.03-.16.04-.34.04-.51,0-.03,0-.05,0-.08l.08-1.1h8.26l.08,1.18c0,.08,0,.16.01.23v.08c.08.67.37,1.25.81,1.7.05.06.11.11.16.15,1.88,1.83,3.42,3.97,4.56,6.32l.02.04c.45.93.6,1.98.44,3Z"/><path class="cls-8" d="m112.61,79.86h-19.62c-.84-3.86-.86-7.85-.06-11.72l.06-.3h19.62l.06.3c.8,3.87.77,7.86-.06,11.72h0Z"/><polygon class="cls-13" points="111.98 90.48 93.62 90.48 92.99 79.86 112.61 79.86 111.98 90.48"/><path class="cls-13" d="m113.33,113.61l-.08,1.76v4.38c0,.7-.56,1.26-1.26,1.26h-2.88c0-1.17-.95-2.12-2.12-2.12s-2.12.95-2.12,2.12h-4.1c0-1.17-.95-2.12-2.12-2.12s-2.12.95-2.12,2.12h-2.89c-.7,0-1.26-.56-1.26-1.26v-4.38l-.08-1.81c-.07-1.64-.11-3.28-.11-4.92,0-6.08.49-12.15,1.46-18.16h18.35v.06c1.24,7.62,1.69,15.36,1.35,23.07Z"/><line class="cls-13" x1="97.71" y1="52.64" x2="107.9" y2="52.64"/><rect class="cls-13" x="98.67" y="48.64" width="8.33" height="4"/><line class="cls-16" x1="100.18" y1="48.64" x2="100.18" y2="52.8"/><line class="cls-16" x1="101.52" y1="48.64" x2="101.52" y2="52.8"/><line class="cls-16" x1="102.86" y1="48.64" x2="102.86" y2="52.8"/><line class="cls-16" x1="104.2" y1="48.64" x2="104.2" y2="52.8"/><line class="cls-16" x1="105.54" y1="48.64" x2="105.54" y2="52.8"/><line class="cls-18" x1="92.85" y1="97.44" x2="104.54" y2="97.44"/><line class="cls-18" x1="107.59" y1="97.44" x2="112.88" y2="97.44"/><line class="cls-18" x1="103.45" y1="107.81" x2="112.88" y2="107.81"/><line class="cls-18" x1="92.85" y1="102.92" x2="103.16" y2="102.92"/><line class="cls-18" x1="92.85" y1="107.81" x2="100.2" y2="107.81"/><line class="cls-18" x1="110.46" y1="102.92" x2="112.88" y2="102.92"/><line class="cls-18" x1="105.6" y1="102.92" x2="108.02" y2="102.92"/><path class="cls-2" d="m103.16,77.67c1.52,0,2.76-1.24,2.76-2.76s-2.76-4.88-2.76-4.88c0,0-2.76,3.36-2.76,4.88s1.24,2.76,2.76,2.76Z"/><line class="cls-12" x1="161.24" y1="75.9" x2="161.24" y2="75.8"/><path class="cls-7" d="m161.24,52.95s-15.16,7.12-15.87,22.85h-6.98c0-12.62,10.23-22.85,22.85-22.85Z"/><path class="cls-11" d="m161.24,52.95v22.85h-15.87c.71-15.73,15.87-22.85,15.87-22.85Z"/><path class="cls-14" d="m184.09,75.8h-6.98c-.71-15.73-15.87-22.85-15.87-22.85,12.62,0,22.85,10.23,22.85,22.85Z"/><path class="cls-10" d="m177.11,75.8h-15.87v-22.85s15.16,7.12,15.87,22.85Z"/><path class="cls-6" d="m160.3,52.95v-1.29c0-.51.42-.93.93-.93h0c.51,0,.93.42.93.93v1.29"/><path class="cls-15" d="m65.47,51.57c-3.81,0-6.91-3.1-6.91-6.91,0-2.57,1.45-4.94,3.72-6.13V9.91c0-1.76,1.43-3.19,3.19-3.19s3.19,1.43,3.19,3.19v28.62c2.27,1.19,3.72,3.56,3.72,6.13,0,3.81-3.1,6.91-6.91,6.91Z"/><path d="m65.47,7.22c1.48,0,2.69,1.2,2.69,2.69v28.93c2.2,1.02,3.72,3.24,3.72,5.81,0,3.54-2.87,6.41-6.41,6.41s-6.41-2.87-6.41-6.41c0-2.58,1.53-4.8,3.72-5.81V9.91c0-1.49,1.2-2.69,2.69-2.69m0-1c-2.03,0-3.69,1.65-3.69,3.69v28.32c-2.28,1.31-3.72,3.77-3.72,6.42,0,4.09,3.32,7.41,7.41,7.41s7.41-3.32,7.41-7.41c0-2.65-1.44-5.11-3.72-6.42V9.91c0-2.03-1.65-3.69-3.69-3.69h0Z"/><rect class="cls-5" x="64.13" y="10.29" width="2.68" height="12.75"/><path class="cls-4" d="m70.1,44.62c0,2.56-2.07,4.63-4.63,4.63s-4.63-2.07-4.63-4.63c0-2.09,1.39-3.86,3.29-4.44V13.69h2.68v26.49c1.9.58,3.29,2.34,3.29,4.43Z"/></svg>