<?xml version="1.0" encoding="UTF-8"?><svg id="Calque_1" xmlns="http://www.w3.org/2000/svg" viewBox="0 0 200.13 128.13"><defs><style>.cls-1{fill:#b2f0e9;}.cls-1,.cls-2,.cls-3,.cls-4,.cls-5,.cls-6,.cls-7,.cls-8,.cls-9{stroke:#000;}.cls-1,.cls-2,.cls-3,.cls-5,.cls-6,.cls-8,.cls-9{stroke-miterlimit:10;}.cls-10{stroke:#e30613;stroke-linecap:round;stroke-linejoin:round;stroke-width:8px;}.cls-10,.cls-2,.cls-7{fill:none;}.cls-3{fill:#77eddf;}.cls-4,.cls-7{stroke-miterlimit:1;}.cls-4,.cls-8{fill:#fff;}.cls-5{fill:#a1c8e1;}.cls-6{fill:#ff6d75;}.cls-9{fill:#f3d587;}</style></defs><rect class="cls-10" x="-534.98" y="-269.94" width="2655.08" height="1511.77"/><rect class="cls-5" x="10.66" y="52.99" width="174.91" height="51.22"/><polygon class="cls-4" points="15.53 110.97 10.75 104.21 185.57 104.21 189.65 110.97 15.53 110.97"/><rect class="cls-8" x="10.71" y="52.97" width="24.98" height="51.22" transform="translate(-.1 .03) rotate(-.08)"/><rect class="cls-8" x="35.69" y="52.94" width="24.98" height="51.22" transform="translate(-.1 .06) rotate(-.08)"/><rect class="cls-8" x="60.68" y="52.91" width="24.98" height="51.22" transform="translate(-.1 .1) rotate(-.08)"/><rect class="cls-8" x="85.66" y="52.87" width="24.98" height="51.22" transform="translate(-.1 .13) rotate(-.08)"/><rect class="cls-8" x="110.65" y="52.84" width="24.98" height="51.22" transform="translate(-.1 .16) rotate(-.08)"/><rect class="cls-8" x="135.63" y="52.81" width="24.98" height="51.22" transform="translate(-.1 .2) rotate(-.08)"/><rect class="cls-8" x="160.62" y="52.77" width="24.98" height="51.22" transform="translate(-.1 .23) rotate(-.08)"/><path class="cls-6" d="m50.92,74.77l-.87-4.98,7.49-1.3.87,4.98c.36,2.06-1.03,4.03-3.09,4.39-1.03.18-2.04-.08-2.84-.64-.8-.56-1.38-1.42-1.56-2.45Z"/><path class="cls-9" d="m50.05,69.79l-.87-4.98c-.36-2.06,1.03-4.04,3.1-4.4s4.03,1.03,4.39,3.1l.87,4.98-7.49,1.3Z"/><circle class="cls-8" cx="48.59" cy="91.84" r="6.26" transform="translate(-52.9 114.11) rotate(-74.5)"/><line class="cls-9" x1="51.59" y1="97.33" x2="45.71" y2="86.29"/><circle class="cls-8" cx="45" cy="78.59" r="3.41" transform="translate(-42.76 100.94) rotate(-74.5)"/><line class="cls-9" x1="46.63" y1="81.59" x2="43.42" y2="75.56"/><path class="cls-3" d="m73.87,84.93l2.55,4.36-6.56,3.84-2.55-4.36c-1.05-1.8-.44-4.14,1.36-5.19.9-.53,1.94-.64,2.88-.39.94.24,1.79.85,2.32,1.75Z"/><path class="cls-8" d="m76.42,89.29l2.55,4.36c1.06,1.81.44,4.15-1.37,5.21-1.8,1.05-4.14.44-5.2-1.37l-2.55-4.36,6.56-3.84Z"/><circle class="cls-8" cx="75.51" cy="63.01" r="6.26"/><line class="cls-9" x1="70.78" y1="58.91" x2="80.14" y2="67.21"/><circle class="cls-8" cx="67.7" cy="75.56" r="3.41"/><line class="cls-9" x1="65.12" y1="73.32" x2="70.23" y2="77.85"/><path class="cls-6" d="m98.8,97.45l-.87-4.98,7.49-1.3.87,4.98c.36,2.06-1.03,4.03-3.09,4.39-1.03.18-2.04-.08-2.84-.64-.8-.56-1.38-1.42-1.56-2.45Z"/><path class="cls-9" d="m97.94,92.47l-.87-4.98c-.36-2.06,1.03-4.04,3.1-4.4s4.03,1.03,4.39,3.1l.87,4.98-7.49,1.3Z"/><circle class="cls-8" cx="95.64" cy="65.9" r="6.26" transform="translate(-4.41 6.91) rotate(-4.05)"/><line class="cls-9" x1="89.43" y1="66.57" x2="101.88" y2="65.36"/><circle class="cls-8" cx="92.77" cy="91.81" r="3.41" transform="translate(-20.49 156.67) rotate(-74.5)"/><line class="cls-9" x1="94.41" y1="94.81" x2="91.2" y2="88.78"/><path class="cls-6" d="m124.07,81.19l-.87-4.98,7.49-1.3.87,4.98c.36,2.06-1.03,4.03-3.09,4.39-1.03.18-2.04-.08-2.84-.64-.8-.56-1.38-1.42-1.56-2.45Z"/><path class="cls-9" d="m123.2,76.21l-.87-4.98c-.36-2.06,1.03-4.04,3.1-4.4s4.03,1.03,4.39,3.1l.87,4.98-7.49,1.3Z"/><circle class="cls-8" cx="122.28" cy="93.13" r="6.26" transform="translate(-.14 186.06) rotate(-74.5)"/><line class="cls-9" x1="125.28" y1="98.61" x2="119.4" y2="87.57"/><circle class="cls-8" cx="116.48" cy="78.08" r="3.41" transform="translate(10.11 169.45) rotate(-74.5)"/><line class="cls-9" x1="118.12" y1="81.08" x2="114.91" y2="75.05"/><path class="cls-6" d="m147.81,97.45l-.87-4.98,7.49-1.3.87,4.98c.36,2.06-1.03,4.03-3.09,4.39-1.03.18-2.04-.08-2.84-.64-.8-.56-1.38-1.42-1.56-2.45Z"/><path class="cls-9" d="m146.95,92.47l-.87-4.98c-.36-2.06,1.03-4.04,3.1-4.4,2.06-.36,4.03,1.03,4.39,3.1l.87,4.98-7.49,1.3Z"/><circle class="cls-8" cx="144.66" cy="65.89" r="6.26" transform="translate(42.5 187.67) rotate(-74.5)"/><line class="cls-9" x1="147.66" y1="71.38" x2="141.78" y2="60.33"/><circle class="cls-8" cx="143.03" cy="78.59" r="3.41" transform="translate(29.06 195.4) rotate(-74.5)"/><line class="cls-9" x1="144.66" y1="81.59" x2="141.46" y2="75.56"/><path class="cls-1" d="m170.27,86.22l4.63,1.95-3.2,6.83-4.63-1.95c-1.91-.8-2.76-3-1.88-4.88.44-.94,1.23-1.63,2.16-1.98.92-.36,1.97-.38,2.92.02Z"/><path class="cls-8" d="m174.9,88.16l4.63,1.95c1.92.81,2.76,3,1.88,4.89s-3.16,2.75-5.08,1.95l-4.63-1.95,3.2-6.83Z"/><circle class="cls-8" cx="169.49" cy="63.02" r="6.26" transform="translate(20.21 165.06) rotate(-54.75)"/><line class="cls-9" x1="167.9" y1="69.07" x2="171.22" y2="57.01"/><circle class="cls-8" cx="177.91" cy="76.15" r="3.41" transform="translate(56.98 227.23) rotate(-74.5)"/><line class="cls-9" x1="179.55" y1="79.14" x2="176.34" y2="73.12"/><polyline class="cls-7" points="185.57 104.21 185.56 52.76 189.65 58.91 189.65 110.97"/><line class="cls-2" x1="40.29" y1="110.97" x2="35.51" y2="104.21"/><line class="cls-2" x1="65.33" y1="110.97" x2="60.55" y2="104.21"/><line class="cls-2" x1="90.79" y1="110.97" x2="86.01" y2="104.21"/><line class="cls-2" x1="115.31" y1="110.97" x2="110.53" y2="104.21"/><line class="cls-2" x1="140.56" y1="110.97" x2="135.78" y2="104.21"/><line class="cls-2" x1="165.45" y1="110.97" x2="160.67" y2="104.21"/><polygon class="cls-6" points="112.68 24.22 104.48 24.22 104.48 16 95.64 16 95.64 24.22 87.44 24.22 87.44 33.03 95.64 33.03 95.64 41.25 104.48 41.25 104.48 33.03 112.68 33.03 112.68 24.22"/><polygon class="cls-8" points="30.06 98.5 5.08 98.53 10.66 52.98 35.65 52.94 30.06 98.5"/></svg>