<?xml version="1.0" encoding="UTF-8"?>
<svg id="Calque_1" data-name="Calque 1" xmlns="http://www.w3.org/2000/svg" viewBox="0 0 128 128">
  <defs>
    <style>
      .cls-1 {
        fill: #fff;
      }

      .cls-1, .cls-2, .cls-3 {
        stroke: #1a2e35;
      }

      .cls-1, .cls-2, .cls-3, .cls-4 {
        stroke-linecap: round;
        stroke-linejoin: round;
      }

      .cls-2 {
        fill: #fee4cb;
      }

      .cls-3 {
        fill: #fab0b4;
      }

      .cls-4 {
        fill: none;
        stroke: #fff;
        stroke-width: 8px;
      }
    </style>
  </defs>
  <g>
    <path class="cls-3" d="m11.53,41.44h90.94c2.94,0,5.33,2.39,5.33,5.33v34.46c0,2.94-2.39,5.33-5.33,5.33H11.53c-2.94,0-5.33-2.39-5.33-5.33v-34.46c0-2.94,2.39-5.33,5.33-5.33Z" transform="translate(-20.28 101.04) rotate(-73.92)"/>
    <path class="cls-1" d="m34.05,98.06c-1.51-.43-3.08.44-3.52,1.94-.43,1.51.44,3.08,1.94,3.52,1.51.43,3.08-.44,3.52-1.94.43-1.51-.44-3.08-1.94-3.52Z"/>
    <path class="cls-1" d="m45.56,101.44c-1.51-.43-3.08.44-3.52,1.94-.43,1.51.44,3.08,1.94,3.52s3.08-.44,3.52-1.94c.43-1.51-.44-3.08-1.94-3.52Z"/>
    <path class="cls-1" d="m36.61,89.18c-1.51-.43-3.08.44-3.52,1.94s.44,3.08,1.94,3.52c1.51.43,3.08-.44,3.52-1.94s-.44-3.08-1.94-3.52Z"/>
    <path class="cls-1" d="m39.17,80.31c-1.51-.43-3.08.44-3.52,1.94-.43,1.51.44,3.08,1.94,3.52,1.51.43,3.08-.44,3.52-1.94.43-1.51-.44-3.08-1.94-3.52Z"/>
    <path class="cls-1" d="m41.73,71.43c-1.51-.43-3.08.44-3.52,1.94-.43,1.51.44,3.08,1.94,3.52,1.51.43,3.08-.44,3.52-1.94.43-1.51-.44-3.08-1.94-3.52Z"/>
    <path class="cls-1" d="m44.29,62.55c-1.51-.43-3.08.44-3.52,1.94s.44,3.08,1.94,3.52,3.08-.44,3.52-1.94c.43-1.51-.44-3.08-1.94-3.52Z"/>
    <path class="cls-1" d="m46.85,53.68c-1.51-.43-3.08.44-3.52,1.94-.43,1.51.44,3.08,1.94,3.52,1.51.43,3.08-.44,3.52-1.94s-.44-3.08-1.94-3.52Z"/>
    <path class="cls-1" d="m49.41,44.8c-1.51-.43-3.08.44-3.52,1.94-.43,1.51.44,3.08,1.94,3.52,1.51.43,3.08-.44,3.52-1.94s-.44-3.08-1.94-3.52Z"/>
    <path class="cls-1" d="m51.97,35.93c-1.51-.43-3.08.44-3.52,1.94s.44,3.08,1.94,3.52,3.08-.44,3.52-1.94-.44-3.08-1.94-3.52Z"/>
    <path class="cls-1" d="m54.52,27.05c-1.51-.43-3.08.44-3.52,1.94s.44,3.08,1.94,3.52,3.08-.44,3.52-1.94-.44-3.08-1.94-3.52Z"/>
    <path class="cls-1" d="m57.08,18.18c-1.51-.43-3.08.44-3.52,1.94-.43,1.51.44,3.08,1.94,3.52,1.51.43,3.08-.44,3.52-1.94.43-1.51-.44-3.08-1.94-3.52Z"/>
    <path class="cls-1" d="m56.25,104.45c-1.51-.43-3.08.44-3.52,1.94-.43,1.51.44,3.08,1.94,3.52s3.08-.44,3.52-1.94c.43-1.51-.44-3.08-1.94-3.52Z"/>
    <path class="cls-1" d="m58.8,95.58c-1.51-.43-3.08.44-3.52,1.94-.43,1.51.44,3.08,1.94,3.52s3.08-.44,3.52-1.94c.43-1.51-.44-3.08-1.94-3.52Z"/>
    <path class="cls-1" d="m61.36,86.7c-1.51-.43-3.08.44-3.52,1.94-.43,1.51.44,3.08,1.94,3.52,1.51.43,3.08-.44,3.52-1.94s-.44-3.08-1.94-3.52Z"/>
    <path class="cls-1" d="m63.92,77.83c-1.51-.43-3.08.44-3.52,1.94-.43,1.51.44,3.08,1.94,3.52,1.51.43,3.08-.44,3.52-1.94s-.44-3.08-1.94-3.52Z"/>
    <path class="cls-1" d="m66.48,68.95c-1.51-.43-3.08.44-3.52,1.94s.44,3.08,1.94,3.52,3.08-.44,3.52-1.94-.44-3.08-1.94-3.52Z"/>
    <path class="cls-1" d="m69.04,60.08c-1.51-.43-3.08.44-3.52,1.94s.44,3.08,1.94,3.52c1.51.43,3.08-.44,3.52-1.94s-.44-3.08-1.94-3.52Z"/>
    <path class="cls-1" d="m71.6,51.2c-1.51-.43-3.08.44-3.52,1.94s.44,3.08,1.94,3.52,3.08-.44,3.52-1.94-.44-3.08-1.94-3.52Z"/>
    <path class="cls-1" d="m74.16,42.32c-1.51-.43-3.08.44-3.52,1.94-.43,1.51.44,3.08,1.94,3.52s3.08-.44,3.52-1.94c.43-1.51-.44-3.08-1.94-3.52Z"/>
    <path class="cls-1" d="m76.71,33.45c-1.51-.43-3.08.44-3.52,1.94-.43,1.51.44,3.08,1.94,3.52,1.51.43,3.08-.44,3.52-1.94s-.44-3.08-1.94-3.52Z"/>
    <path class="cls-1" d="m79.27,24.57c-1.51-.43-3.08.44-3.52,1.94s.44,3.08,1.94,3.52c1.51.43,3.08-.44,3.52-1.94.43-1.51-.44-3.08-1.94-3.52Z"/>
    <rect class="cls-2" x="18.37" y="59.17" width="78.52" height="4.62" rx="1.82" ry="1.82" transform="translate(-17.4 99.83) rotate(-73.92)"/>
    <path class="cls-1" d="m94.66,52.42c-1.51-.43-3.08.44-3.52,1.94s.44,3.08,1.94,3.52c1.51.43,3.08-.44,3.52-1.94.43-1.51-.44-3.08-1.94-3.52Z"/>
    <path class="cls-1" d="m97.52,63.48c-1.51-.43-3.08.44-3.52,1.94s.44,3.08,1.94,3.52c1.51.43,3.08-.44,3.52-1.94.43-1.51-.44-3.08-1.94-3.52Z"/>
    <path class="cls-1" d="m103.43,55.52c-1.51-.43-3.08.44-3.52,1.94-.43,1.51.44,3.08,1.94,3.52,1.51.43,3.08-.44,3.52-1.94.43-1.51-.44-3.08-1.94-3.52Z"/>
  </g>
  <rect class="cls-4" x="-511.5" y="-3004.76" width="6467.34" height="6437.3"/>
</svg>