<?xml version="1.0" encoding="UTF-8"?>
<svg id="Calque_1" data-name="Calque 1" xmlns="http://www.w3.org/2000/svg" viewBox="0 0 128 128.13">
  <defs>
    <style>
      .cls-1, .cls-2, .cls-3 {
        stroke: #000;
      }

      .cls-1, .cls-2, .cls-3, .cls-4 {
        stroke-linecap: round;
        stroke-linejoin: round;
      }

      .cls-1, .cls-3, .cls-4 {
        fill: none;
      }

      .cls-5 {
        fill: #ffbeed;
      }

      .cls-2 {
        fill: #fff;
      }

      .cls-2, .cls-3 {
        stroke-width: 2px;
      }

      .cls-4 {
        stroke: #fff;
        stroke-width: 8px;
      }
    </style>
  </defs>
  <rect class="cls-5" x="45.96" y="36.09" width="9.38" height="94.86" transform="translate(70.79 -12.06) rotate(43.13)"/>
  <rect class="cls-3" x="55.91" y="10.29" width="10.16" height="124.76" transform="translate(66.95 -22.02) rotate(43.61)"/>
  <path class="cls-1" d="m24.41,104.55l-4.08,4.22c-1.32,1.39-.92,3.91.88,5.63h0c1.81,1.72,4.35,2,5.67.61l4.08-4.22"/>
  <rect class="cls-2" x="103.88" y="18.74" width="7.28" height="10.16" transform="translate(46.09 -67.58) rotate(43.61)"/>
  <rect class="cls-2" x="104.44" y="17.29" width="15.45" height="3.31" transform="translate(44.01 -72.13) rotate(43.61)"/>
  <line class="cls-3" x1="112.87" y1="35.94" x2="95.16" y2="19.06"/>
  <line class="cls-1" x1="99.33" y1="34.48" x2="94.31" y2="29.7"/>
  <line class="cls-1" x1="93.88" y1="37.05" x2="90.44" y2="33.83"/>
  <line class="cls-1" x1="89.5" y1="41.73" x2="86.06" y2="38.51"/>
  <line class="cls-1" x1="85.15" y1="46.38" x2="81.7" y2="43.15"/>
  <line class="cls-1" x1="77.18" y1="54.88" x2="73.74" y2="51.66"/>
  <line class="cls-1" x1="72.79" y1="59.56" x2="69.35" y2="56.34"/>
  <line class="cls-1" x1="68.44" y1="64.21" x2="65" y2="60.98"/>
  <line class="cls-1" x1="60.47" y1="72.71" x2="57.03" y2="69.49"/>
  <line class="cls-1" x1="56.09" y1="77.39" x2="52.65" y2="74.17"/>
  <line class="cls-1" x1="51.74" y1="82.04" x2="48.3" y2="78.81"/>
  <line class="cls-1" x1="43.77" y1="90.55" x2="40.33" y2="87.32"/>
  <line class="cls-1" x1="39.38" y1="95.22" x2="35.94" y2="92"/>
  <line class="cls-1" x1="35.03" y1="99.87" x2="31.59" y2="96.65"/>
  <line class="cls-1" x1="82.71" y1="52.21" x2="77.69" y2="47.43"/>
  <line class="cls-1" x1="66.1" y1="69.95" x2="61.08" y2="65.17"/>
  <line class="cls-1" x1="49.48" y1="87.68" x2="44.47" y2="82.9"/>
  <line class="cls-1" x1="32.87" y1="105.42" x2="27.85" y2="100.64"/>
  <rect class="cls-4" x="-3088.28" y="-1872.09" width="6467.34" height="6437.3"/>
</svg>