<?xml version="1.0" encoding="UTF-8"?>
<svg id="Calque_1" data-name="Calque 1" xmlns="http://www.w3.org/2000/svg" viewBox="0 0 128 128.13">
  <defs>
    <style>
      .cls-1, .cls-2, .cls-3 {
        stroke: #000;
      }

      .cls-1, .cls-2, .cls-3, .cls-4 {
        stroke-linecap: round;
        stroke-linejoin: round;
      }

      .cls-1, .cls-3, .cls-4 {
        fill: none;
      }

      .cls-5 {
        fill: #bfe6fc;
      }

      .cls-6 {
        fill: #e30613;
      }

      .cls-2 {
        fill: #d6d6d6;
      }

      .cls-2, .cls-3 {
        stroke-width: 2px;
      }

      .cls-4 {
        stroke: #fff;
        stroke-width: 8px;
      }
    </style>
  </defs>
  <g>
    <rect class="cls-3" x="10.46" y="16.12" width="107.09" height="95.88"/>
    <rect class="cls-2" x="17.52" y="78.51" width="32.96" height="33.5"/>
    <rect class="cls-2" x="17.52" y="78.51" width="16.48" height="33.5"/>
    <rect class="cls-2" x="10.46" y="16.12" width="107.09" height="9.73"/>
    <line class="cls-1" x1="30.55" y1="94.02" x2="30.55" y2="98.31"/>
    <line class="cls-1" x1="37.45" y1="94.02" x2="37.45" y2="98.31"/>
    <g>
      <rect class="cls-1" x="17.52" y="49.66" width="12.7" height="12.7"/>
      <path class="cls-5" d="m19.19,57.59v-6.44h8.42v2.13s-3.03-1-4.77.88-1.74,3.43-1.74,3.43h-1.91Z"/>
    </g>
    <g>
      <rect class="cls-1" x="37.78" y="49.66" width="12.7" height="12.7"/>
      <path class="cls-5" d="m39.69,57.59v-6.44h8.42v2.13s-3.03-1-4.77.88-1.74,3.43-1.74,3.43h-1.91Z"/>
    </g>
    <g>
      <rect class="cls-1" x="57.58" y="49.66" width="12.7" height="12.7"/>
      <path class="cls-5" d="m59.18,57.71v-6.44h8.42v2.13s-3.03-1-4.77.88c-1.74,1.88-1.74,3.43-1.74,3.43h-1.91Z"/>
    </g>
    <g>
      <rect class="cls-1" x="77.54" y="49.66" width="12.7" height="12.7"/>
      <path class="cls-5" d="m79.29,57.71v-6.44h8.42v2.13s-3.03-1-4.77.88c-1.74,1.88-1.74,3.43-1.74,3.43h-1.91Z"/>
    </g>
    <g>
      <rect class="cls-1" x="97.48" y="49.55" width="12.7" height="12.7"/>
      <path class="cls-5" d="m99.25,57.59v-6.44h8.42v2.13s-3.03-1-4.77.88c-1.74,1.88-1.74,3.43-1.74,3.43h-1.91Z"/>
    </g>
    <g>
      <rect class="cls-1" x="57.58" y="67.68" width="12.7" height="12.7"/>
      <path class="cls-5" d="m59.18,75.84v-6.44h8.42v2.13s-3.03-1-4.77.88c-1.74,1.88-1.74,3.43-1.74,3.43h-1.91Z"/>
    </g>
    <g>
      <rect class="cls-1" x="77.54" y="67.68" width="12.7" height="12.7"/>
      <path class="cls-5" d="m79.29,75.84v-6.44h8.42v2.13s-3.03-1-4.77.88c-1.74,1.88-1.74,3.43-1.74,3.43h-1.91Z"/>
    </g>
    <g>
      <rect class="cls-1" x="97.48" y="67.68" width="12.7" height="12.7"/>
      <path class="cls-5" d="m99.25,75.84v-6.44h8.42v2.13s-3.03-1-4.77.88c-1.74,1.88-1.74,3.43-1.74,3.43h-1.91Z"/>
    </g>
    <g>
      <rect class="cls-1" x="57.58" y="85.97" width="12.7" height="12.7"/>
      <path class="cls-5" d="m59.18,94.13v-6.44h8.42v2.13s-3.03-1-4.77.88c-1.74,1.88-1.74,3.43-1.74,3.43h-1.91Z"/>
    </g>
    <g>
      <rect class="cls-1" x="77.54" y="85.97" width="12.7" height="12.7"/>
      <path class="cls-5" d="m79.29,94.13v-6.44h8.42v2.13s-3.03-1-4.77.88c-1.74,1.88-1.74,3.43-1.74,3.43h-1.91Z"/>
    </g>
    <g>
      <rect class="cls-1" x="97.48" y="85.97" width="12.7" height="12.7"/>
      <path class="cls-5" d="m99.25,94.13v-6.44h8.42v2.13s-3.03-1-4.77.88c-1.74,1.88-1.74,3.43-1.74,3.43h-1.91Z"/>
    </g>
  </g>
  <path class="cls-6" d="m34.96,34.87h1.69c0,.15.02.27.02.39,0,1.41,0,2.82,0,4.23q0,.66.65.71v.57h-2.36v-.6c.65.02.66,0,.66-.63,0-.59,0-1.17,0-1.76,0-.65,0-1.29,0-1.94,0-.27-.11-.41-.39-.4-.09,0-.18,0-.27,0,0-.2,0-.4,0-.6Z"/>
  <path class="cls-6" d="m29.86,35.14c-.11,1.88-1.57,3.84-3.89,4.22-2.37.39-4.59-1-5.28-3.29-.67-2.26.43-4.53,2.36-5.5-1.07.87-1.67,1.97-1.68,3.36,0,1.39.57,2.51,1.65,3.38-1.33-1.51-1.59-3.16-.43-4.86.86-1.27,2.15-1.7,3.69-1.49-.29.09-.56.15-.82.27-.25.11-.5.26-.72.43-.22.17-.43.38-.59.61-.17.23-.31.48-.42.74-.1.26-.17.53-.21.81-.03.28-.03.57,0,.85.2,1.42,1.36,2.56,2.76,2.75,1.45.2,3.02-.61,3.57-2.27Z"/>
  <path class="cls-6" d="m29.33,33.72c-.32-.81-.87-1.27-1.7-1.34-.67-.06-1.21.2-1.62.76.09-.03.18-.06.28-.09.72-.22,1.45.07,1.82.72.35.61.23,1.42-.28,1.9-.55.51-1.37.6-1.96.16-.63-.47-.91-1.13-.83-1.91.15-1.64,2-2.51,3.37-1.61.46.31.76.74.91,1.28,0,.03,0,.06.02.13Z"/>
  <path class="cls-6" d="m16.19,41.12c2.52,2.86,6.34,3.49,9.3,2.25,3.25-1.36,4.93-3.88,5.24-7.22.31,2.65-1.23,6.36-4.96,7.87-3.58,1.45-7.54.13-9.58-2.9Z"/>
  <path class="cls-6" d="m63.83,40.21c0,.13,0,.24,0,.35,0,.06-.01.12-.02.19-.05,0-.1.02-.15.02-1.19,0-2.38,0-3.58,0-.4,0-.6-.21-.61-.65-.01-.67-.01-1.33-.01-2,0-.68-.18-.92-.71-.95-.5-.03-1.04.42-1.06.94-.03.58-.02,1.17,0,1.76,0,.38.32.3.57.33v.55h-2.33v-.52s.04-.03.05-.03q.64-.05.64-.69c0-.58,0-1.15,0-1.73,0-.51-.05-.55-.56-.58-.04,0-.08-.01-.11-.02-.02-.03-.03-.04-.03-.06q-.04-.5.47-.5c.42,0,.83,0,1.28,0v.67s.07.05.1.07c.03-.07.06-.14.1-.2.36-.43.82-.68,1.4-.67.71,0,1.18.42,1.21,1.12.04.69.03,1.39.03,2.08,0,.41.08.49.49.49.28,0,.56,0,.83,0,.23,0,.35-.11.35-.35,0-.75,0-1.49,0-2.24,0-.26-.13-.38-.38-.4-.1,0-.2-.01-.32-.02,0-.11-.01-.2-.02-.3-.02-.2.06-.28.27-.27.48.02.97,0,1.48,0v.77c.13-.15.2-.24.28-.32.46-.48,1.01-.69,1.67-.54.54.12.82.5.86,1.01.05.66.04,1.33.05,1.99,0,.64,0,.64.65.65.05,0,.1,0,.17.01v.55c-.48,0-.97.04-1.46-.01-.33-.03-.41-.35-.41-.64,0-.65,0-1.29,0-1.94,0-.67-.16-.91-.62-.97-.48-.06-1.06.29-1.11.78-.07.65-.06,1.31-.03,1.96.01.32.33.24.58.28Z"/>
  <path class="cls-6" d="m80.15,36.96c-.31-.16-.67-.07-.8.2-.03.06-.02.15,0,.22.42,1.2-.12,2.07-1.4,2.18-.38.03-.77-.01-1.15-.06-.21-.03-.36-.01-.42.2-.07.24.11.33.29.36.21.04.43.05.65.06.52,0,1.03-.01,1.55,0,.91.03,1.41.68,1.18,1.51-.1.37-.38.6-.72.74-.58.25-1.2.28-1.81.26-.48-.01-.97-.07-1.44-.17-.5-.1-.76-.42-.75-.8,0-.35.15-.52.62-.69.04-.02.09-.04.17-.07-.48-.12-.69-.41-.66-.86.04-.45.32-.68.78-.8-.44-.29-.63-.67-.62-1.17.01-.69.31-1.17.97-1.42.85-.32,1.67-.21,2.47.23.26-.27.57-.42.95-.41.55.02.93.44.86.99-.03.28-.21.48-.46.5-.25.02-.49,0-.6-.28-.1-.24,0-.48.25-.66.03-.02.06-.04.09-.07Zm-2.18,4.05s0-.02,0-.03c-.36.03-.73.04-1.09.1-.24.05-.43.21-.43.5,0,.29.2.4.43.46.68.17,1.36.17,2.03-.04.29-.09.42-.31.38-.57-.04-.26-.24-.42-.56-.43-.25,0-.5,0-.75,0Zm.43-2.94c-.04-.21-.07-.44-.14-.65-.1-.3-.35-.45-.66-.45-.32,0-.57.17-.68.48-.14.4-.14.8,0,1.19.11.31.35.47.68.47.34,0,.58-.16.68-.47.06-.18.08-.36.12-.57Z"/>
  <path class="cls-6" d="m71.93,40.2v.57c-.12,0-.23,0-.33,0-1.08,0-2.16,0-3.25,0-.61,0-.79-.19-.79-.81,0-.73,0-1.47,0-2.2,0-.52-.02-.54-.55-.56-.06,0-.12-.01-.19-.02v-.56c.55,0,1.09,0,1.64.01.05,0,.14.17.14.26.01.81.01,1.63,0,2.44-.01,1.05.11.85.84.85.85,0,.86.12.85-.86,0-.46,0-.91,0-1.37q0-.68-.69-.78v-.53h1.7c.01.21.02.42.04.7.11-.11.17-.18.24-.26.37-.42.84-.62,1.4-.6.63.03,1.07.38,1.13,1.01.06.57.04,1.15.05,1.72,0,.19,0,.38,0,.57-.01.28.14.4.4.4.14,0,.28,0,.43,0v.57c-.48,0-.96.02-1.44,0-.27-.02-.43-.29-.43-.66,0-.65,0-1.29,0-1.94,0-.69-.18-.94-.68-.98-.51-.03-1.06.41-1.09.94-.04.58-.02,1.17,0,1.76,0,.37.32.3.59.33Z"/>
  <path class="cls-6" d="m43.04,37.16c0-.11,0-.21,0-.31,0-.16.05-.24.22-.23.46,0,.91,0,1.4,0,.01.21.03.41.04.62.23-.2.41-.42.64-.56.71-.43,1.71-.18,2.13.56.52.91.54,1.87.07,2.79-.52,1.02-1.84,1.18-2.64.35-.05-.06-.09-.13-.13-.2-.02.02-.04.03-.07.05,0,.54-.01,1.08.01,1.62,0,.08.16.17.27.21.09.04.21.02.34.03v.55h-2.31v-.52s.03-.03.05-.03c.55-.06.56-.07.56-.64,0-1.2,0-2.4,0-3.61,0-.59,0-.59-.6-.7Zm3.66,1.56c-.05-.31-.06-.58-.13-.83-.12-.46-.39-.69-.77-.7-.43-.02-.78.2-.94.63-.22.6-.21,1.21.02,1.8.14.37.53.63.88.6.4-.03.66-.27.77-.64.09-.29.12-.6.17-.86Z"/>
  <path class="cls-6" d="m55.07,39.24h.48c.18.62-.08,1.36-.57,1.57-.56.25-1.12.06-1.44-.5-.4.46-.93.6-1.51.59-.62-.01-1.03-.32-1.13-.85-.12-.64.13-1.12.75-1.35.29-.11.59-.16.89-.25.23-.07.46-.14.67-.24.28-.14.38-.4.33-.7-.04-.3-.25-.44-.52-.5-.42-.09-.81-.06-1.12.13.16.17.36.3.43.47.11.29-.06.52-.34.59-.4.1-.74-.06-.85-.39-.12-.34.02-.8.37-.99.82-.45,1.67-.48,2.52-.09.4.19.57.56.58,1,0,.68,0,1.35,0,2.03,0,.08-.02.17.01.24.04.09.12.16.19.24.07-.07.19-.13.21-.21.05-.25.06-.51.08-.78Zm-1.5-.6l-.1-.05c-.37.18-.75.34-1.12.54-.28.16-.36.53-.23.84.1.23.4.32.73.22.31-.09.53-.3.6-.6.07-.31.08-.64.12-.96Z"/>
  <path class="cls-6" d="m41.77,38.8h-2.95c.09.36.12.67.24.96.15.35.47.49.85.49.41,0,.74-.15.93-.53.24-.47.27-.48.83-.39.03.78-.57,1.43-1.46,1.55-.28.04-.58.03-.86,0-.91-.13-1.43-.64-1.6-1.55-.11-.63-.09-1.25.23-1.82.39-.72,1.18-1.11,2.03-1,.8.1,1.43.64,1.63,1.45.07.26.09.54.13.86Zm-2.87-.6h1.61c.04-.67-.25-1.08-.75-1.09-.51-.02-.88.44-.85,1.09Z"/>
  <path class="cls-6" d="m48.09,35.45v-.54h1.66c0,.12.02.23.02.35,0,1.38,0,2.76,0,4.14,0,.65-.16.74.67.82v.53h-2.35v-.53s.04-.03.06-.03c.57-.04.58-.05.58-.61,0-1.15,0-2.31,0-3.46q0-.63-.64-.68Z"/>
  <path class="cls-6" d="m68.61,35.42c0,.36-.3.64-.65.63-.34-.01-.62-.31-.61-.65,0-.35.32-.65.66-.64.34.01.61.31.61.65Z"/>
  <g>
    <path class="cls-6" d="m95.12,40.4v.37c-.3,0-.6.03-.88-.01-.11-.02-.24-.17-.3-.29-.06-.13-.06-.29-.06-.44,0-.7,0-1.39,0-2.09,0-.38-.08-.72-.48-.88-.41-.17-.76-.02-1.06.26-.29.28-.46.61-.46,1.03,0,.5,0,.99,0,1.49,0,.46.01.47.48.57v.36h-1.81v-.36c.07,0,.12-.03.18-.03.29,0,.4-.15.4-.43,0-.75,0-1.49,0-2.24q0-.59-.58-.71v-.36h1.32c.01.21.02.43.04.74.36-.53.76-.87,1.36-.89.61-.01,1.02.26,1.26.85.08-.09.15-.15.21-.22.4-.5.93-.69,1.56-.62.49.05.86.32.95.8.08.42.1.86.12,1.3.02.39,0,.77,0,1.16,0,.55.01.56.6.62,0,.11.01.22.02.36-.35,0-.69.03-1.01-.02-.11-.02-.25-.19-.3-.32-.06-.15-.05-.33-.05-.5,0-.72,0-1.43,0-2.15,0-.6-.46-.92-1.03-.76-.49.14-.93.67-.95,1.18-.02.6,0,1.19,0,1.79,0,.32.21.37.48.39Z"/>
    <path class="cls-6" d="m110.15,39.4h.39c.06.4.04.8-.16,1.15-.18.33-.51.38-.85.37-.31-.01-.53-.15-.66-.43-.03-.06-.05-.12-.09-.21-.11.09-.19.16-.29.23-.58.43-1.22.51-1.89.31-.41-.12-.63-.43-.68-.86-.05-.42.08-.79.47-.98.37-.18.77-.3,1.16-.45.29-.1.59-.17.87-.3.43-.2.44-.92.05-1.18-.39-.25-1.33-.16-1.65.13.1.16.24.31.28.48.06.25-.08.42-.33.49-.27.08-.48-.02-.59-.27-.15-.36-.03-.8.32-1.02.75-.47,1.56-.5,2.37-.17.45.19.6.62.61,1.08.02.68,0,1.35.01,2.03,0,.09,0,.18,0,.27.02.17,0,.39.24.42.22.02.31-.15.35-.33.03-.12.04-.25.05-.38,0-.12,0-.24,0-.39Zm-1.49-.86c-.59.25-1.13.46-1.65.71-.32.15-.4.45-.3.79.09.3.31.51.64.45.31-.05.63-.17.89-.35.55-.38.43-.99.42-1.61Z"/>
    <path class="cls-6" d="m86.17,37.26c.31.12.43.33.33.62-.08.24-.3.35-.52.29-.15-.04-.32-.17-.38-.31-.16-.37-.02-.77.33-.99.74-.45,1.52-.49,2.31-.19.49.19.65.62.66,1.11.01.72,0,1.45,0,2.18,0,.21-.04.5.25.52.29.02.35-.25.39-.48.03-.19.02-.39.03-.61h.38c.04.38.02.75-.15,1.1-.18.36-.52.43-.89.42-.32,0-.54-.17-.67-.46-.02-.05-.05-.1-.08-.18-.08.07-.15.12-.22.18-.56.47-1.2.56-1.88.39-.41-.1-.67-.37-.74-.8-.07-.45.04-.85.47-1.07.35-.18.73-.29,1.11-.43.31-.11.63-.18.92-.32.4-.19.43-.88.08-1.14-.39-.29-1.36-.21-1.76.17Zm1.91,1.29c-.56.23-1.09.43-1.6.67-.37.18-.46.5-.32.88.11.3.41.48.77.39.24-.06.49-.17.69-.31.58-.4.48-1.01.45-1.64Z"/>
    <path class="cls-6" d="m84.83,35.29c-.21-.13-.49-.22-.79-.07-.29.14-.39.41-.38.72,0,.22,0,.44,0,.69h.61v.41c-.21.01-.39.02-.62.03,0,.31,0,.61,0,.9,0,.59,0,1.17,0,1.76,0,.53.04.58.59.68v.37h-1.94v-.36c.06,0,.1-.02.15-.02.38-.03.44-.08.44-.47,0-.85,0-1.71,0-2.56,0-.09-.01-.17-.02-.28-.19-.01-.36-.02-.56-.03v-.38c.18-.01.36-.02.58-.04,0-.22,0-.42,0-.63.02-.67.36-1.07,1.01-1.22.44-.1.87-.04,1.27.18.25.14.39.36.4.66.01.42-.36.69-.74.52-.1-.05-.23-.21-.22-.31.01-.16.12-.32.22-.52Z"/>
    <path class="cls-6" d="m100.96,35.3v-.38h1.32c0,.11,0,.22,0,.33,0,1.52,0,3.04,0,4.56,0,.49.01.49.5.58.07.01.16.14.16.21,0,.07-.12.18-.18.18-.59.01-1.17,0-1.79,0v-.38c.57-.1.57-.1.57-.68,0-1.27,0-2.54,0-3.82,0-.47-.09-.56-.57-.62Z"/>
    <path class="cls-6" d="m111.09,35.28v-.36h1.32c0,.13,0,.24,0,.36,0,1.48,0,2.96,0,4.44,0,.62.01.63.65.69v.38c-.62,0-1.22.01-1.82-.01-.07,0-.13-.21-.2-.34q.65-.13.64-.74c0-1.24,0-2.48,0-3.72,0-.53-.06-.6-.58-.7Z"/>
    <path class="cls-6" d="m99.58,36.65c0,.72,0,1.41,0,2.11,0,.38,0,.76,0,1.13,0,.42.05.47.48.49.05,0,.1,0,.16.02v.39c-.33,0-.66.03-.98-.02-.14-.02-.28-.19-.37-.32-.07-.11-.05-.27-.05-.41,0-.79,0-1.59,0-2.38q0-.56-.56-.64v-.37h1.33Z"/>
    <path class="cls-6" d="m103.37,37.01v-.36h1.34c0,.24,0,.47,0,.69,0,.79,0,1.59,0,2.38q0,.62.63.68v.37c-.34,0-.7.04-1.04-.01-.31-.05-.35-.34-.35-.61,0-.8,0-1.61,0-2.41q0-.61-.58-.73Z"/>
    <path class="cls-6" d="m99.55,35.32c0,.26-.23.47-.49.46-.24,0-.47-.25-.47-.49.01-.26.23-.46.5-.45.27,0,.46.22.46.48Z"/>
    <path class="cls-6" d="m104.21,35.78c-.25,0-.48-.22-.49-.47,0-.26.21-.47.47-.48.27,0,.48.2.48.46,0,.26-.2.48-.46.48Z"/>
  </g>
  <rect class="cls-4" x="-38.49" y="-260.12" width="1951.05" height="522.43"/>
</svg>