<?xml version="1.0" encoding="UTF-8"?>
<svg id="Calque_1" data-name="Calque 1" xmlns="http://www.w3.org/2000/svg" viewBox="0 0 128 128">
  <defs>
    <style>
      .cls-1 {
        fill: none;
        stroke: #fff;
        stroke-linejoin: round;
        stroke-width: 8px;
      }

      .cls-1, .cls-2, .cls-3 {
        stroke-linecap: round;
      }

      .cls-2 {
        fill: #b2f0e9;
      }

      .cls-2, .cls-3 {
        stroke: #000;
        stroke-miterlimit: 10;
        stroke-width: 3px;
      }

      .cls-3 {
        fill: #87ccf3;
      }
    </style>
  </defs>
  <path class="cls-3" d="m95.17,29.91c-2.59-10.44-12.02-18.2-23.28-18.2-8.1,0-15.28,4.03-19.61,10.17-1.41-.33-2.88-.49-4.39-.49-9.45,0-17.4,6.39-19.75,15.09-6.97,3.26-11.8,10.35-11.8,18.54,0,11.32,9.17,20.47,20.47,20.47l47.1-.42c13.24,0,23.98-10.74,23.98-23.98,0-9.19-5.16-17.16-12.73-21.19Z"/>
  <path class="cls-2" d="m45.65,90.45c-.44,2.48-2.8,4.49-5.28,4.49s-4.13-2.01-3.7-4.49,5.92-8.12,5.92-8.12c0,0,3.49,5.64,3.06,8.12Z"/>
  <path class="cls-2" d="m90.22,90.45c-.44,2.48-2.8,4.49-5.28,4.49s-4.13-2.01-3.7-4.49,5.92-8.12,5.92-8.12c0,0,3.49,5.64,3.06,8.12Z"/>
  <path class="cls-2" d="m67.94,90.45c-.44,2.48-2.8,4.49-5.28,4.49s-4.13-2.01-3.7-4.49,5.92-8.12,5.92-8.12c0,0,3.49,5.64,3.06,8.12Z"/>
  <path class="cls-2" d="m53.24,109.1c-.44,2.48-2.8,4.49-5.28,4.49s-4.13-2.01-3.7-4.49,5.92-8.12,5.92-8.12c0,0,3.49,5.64,3.06,8.12Z"/>
  <path class="cls-2" d="m76.05,109.1c-.44,2.48-2.8,4.49-5.28,4.49s-4.13-2.01-3.7-4.49,5.92-8.12,5.92-8.12c0,0,3.49,5.64,3.06,8.12Z"/>
  <rect class="cls-1" x="-3095.74" y="-616.95" width="6562.35" height="1176.7"/>
</svg>