<?xml version="1.0" encoding="UTF-8"?><svg id="Calque_1" xmlns="http://www.w3.org/2000/svg" viewBox="0 0 200 128"><defs><style>.cls-1{fill:#fff;}.cls-2{fill-rule:evenodd;}.cls-2,.cls-3,.cls-4,.cls-5,.cls-6,.cls-7,.cls-8{stroke-linecap:round;stroke-linejoin:round;}.cls-2,.cls-3,.cls-5,.cls-8{fill:none;}.cls-2,.cls-4,.cls-5,.cls-6,.cls-7,.cls-8{stroke:#000;}.cls-3{stroke:#e30613;stroke-width:8px;}.cls-9{fill:#ff0032;}.cls-10,.cls-7{fill:#bfe6fc;}.cls-6{fill:#d6d6d6;}.cls-6,.cls-8{stroke-width:2px;}.cls-11{fill:#ff6d75;}</style></defs><rect class="cls-3" x="-2113.78" y="-462.51" width="2655.08" height="1511.77"/><rect class="cls-8" x="27.49" y="20.23" width="135" height="95.88"/><rect class="cls-6" x="34.55" y="82.62" width="32.96" height="33.5"/><rect class="cls-6" x="34.55" y="82.62" width="16.48" height="33.5"/><rect class="cls-5" x="34.55" y="37.45" width="12.7" height="12.7"/><rect class="cls-5" x="54.81" y="37.45" width="12.7" height="12.7"/><rect class="cls-5" x="74.61" y="37.45" width="12.7" height="12.7"/><rect class="cls-5" x="74.61" y="55.47" width="12.7" height="12.7"/><rect class="cls-5" x="74.61" y="73.49" width="12.7" height="12.7"/><rect class="cls-5" x="94.57" y="73.49" width="12.7" height="12.7"/><rect class="cls-5" x="114.51" y="73.49" width="12.7" height="12.7"/><rect class="cls-6" x="27.49" y="20.23" width="135.96" height="9.73"/><line class="cls-5" x1="47.58" y1="98.13" x2="47.58" y2="102.42"/><line class="cls-5" x1="54.48" y1="98.13" x2="54.48" y2="102.42"/><path class="cls-10" d="m36.23,45.38v-6.44h8.42v2.13s-3.03-1-4.77.88-1.74,3.43-1.74,3.43h-1.91Z"/><path class="cls-10" d="m56.72,45.38v-6.44h8.42v2.13s-3.03-1-4.77.88-1.74,3.43-1.74,3.43h-1.91Z"/><path class="cls-10" d="m76.21,45.38v-6.44h8.42v2.13s-3.03-1-4.77.88-1.74,3.43-1.74,3.43h-1.91Z"/><path class="cls-10" d="m76.21,63.52v-6.44h8.42v2.13s-3.03-1-4.77.88c-1.74,1.88-1.74,3.43-1.74,3.43h-1.91Z"/><path class="cls-10" d="m76.21,81.65v-6.44h8.42v2.13s-3.03-1-4.77.88c-1.74,1.88-1.74,3.43-1.74,3.43h-1.91Z"/><path class="cls-10" d="m96.32,81.65v-6.44h8.42v2.13s-3.03-1-4.77.88c-1.74,1.88-1.74,3.43-1.74,3.43h-1.91Z"/><path class="cls-10" d="m116.29,81.65v-6.44h8.42v2.13s-3.03-1-4.77.88c-1.74,1.88-1.74,3.43-1.74,3.43h-1.91Z"/><rect class="cls-5" x="74.61" y="91.78" width="12.7" height="12.7"/><rect class="cls-5" x="94.57" y="91.78" width="12.7" height="12.7"/><rect class="cls-5" x="114.51" y="91.78" width="12.7" height="12.7"/><path class="cls-10" d="m76.21,99.94v-6.44h8.42v2.13s-3.03-1-4.77.88c-1.74,1.88-1.74,3.43-1.74,3.43h-1.91Z"/><path class="cls-10" d="m96.32,99.94v-6.44h8.42v2.13s-3.03-1-4.77.88c-1.74,1.88-1.74,3.43-1.74,3.43h-1.91Z"/><path class="cls-10" d="m116.29,99.94v-6.44h8.42v2.13s-3.03-1-4.77.88c-1.74,1.88-1.74,3.43-1.74,3.43h-1.91Z"/><rect class="cls-5" x="134.63" y="73.49" width="12.7" height="12.7"/><path class="cls-10" d="m136.4,81.65v-6.44h8.42v2.13s-3.03-1-4.77.88c-1.74,1.88-1.74,3.43-1.74,3.43h-1.91Z"/><rect class="cls-5" x="134.63" y="91.78" width="12.7" height="12.7"/><path class="cls-10" d="m136.4,99.94v-6.44h8.42v2.13s-3.03-1-4.77.88c-1.74,1.88-1.74,3.43-1.74,3.43h-1.91Z"/><path class="cls-4" d="m36.25,54.98h5.49c1.08,0,1.96.31,2.62.92.66.61,1,1.47,1,2.58,0,.95-.3,1.78-.89,2.49-.59.71-1.5,1.06-2.73,1.06h-3.83v5.15h-1.65v-12.19Zm6.44,1.68c-.37-.17-.87-.26-1.5-.26h-3.29v4.23h3.29c.74,0,1.34-.16,1.81-.47s.69-.87.69-1.67c0-.9-.33-1.51-1-1.83Z"/><path class="cls-4" d="m48.24,54.98h2.37l3.5,10.31,3.48-10.31h2.34v12.19h-1.57v-7.2c0-.25,0-.66.02-1.24s.02-1.19.02-1.85l-3.48,10.28h-1.64l-3.5-10.28v.37c0,.3,0,.75.02,1.37.01.61.02,1.06.02,1.35v7.2h-1.58v-12.19Z"/><path class="cls-4" d="m63.67,54.98h1.67v12.19h-1.67v-12.19Z"/><rect class="cls-11" x="49.04" y="69.69" width="3.45" height="9.85"/><rect class="cls-11" x="49.04" y="69.69" width="3.44" height="9.85" transform="translate(-23.86 125.38) rotate(-90)"/><circle class="cls-7" cx="163.14" cy="33.91" r="23.65"/><path class="cls-2" d="m168.39,11.1s.74,2.89-.84,4.67c-.64.72-.51,3.25-.89,3.62s-1.77-.16-1.77-.16c0,0-1.57,1.39-2.01,1.45-.72.09-.48,1.53-1.57,1.45s-2.66-1.01-2.98-1.73"/><path class="cls-2" d="m177.1,25.06c.68.99-.35,6.78-.3,7.53s-.75,4.08-2.36,6.98c-1.61,2.9-7.08,9.71-8.16,10.3s-1.82.21-2.84-.48-1.77-.86-7.78-6.65c-6.01-5.8-8.33-10.98-8-14.65.27-3.05,1.02-2.84,3.33-5.58s2.79-5.37,2.79-5.37c0,0-1.05-3.5.93-5.33"/><path class="cls-2" d="m152.98,26.37s3.06.91,6.12,6.92c3.06,6.01,5.26,8.32,5.26,8.32,0,0,2.63-1.07,4.24-2.2,1.61-1.13,4.23-3.62,4.29-5.47.01-.42-.43-4.2-.35-4.92"/><path class="cls-2" d="m166.82,27.12s-.21-.91-.97-1.72.16-1.88.16-1.88c0,0-.11-.59.27-1.02s.29-1.25.4-1.38c.13-.17,1.59.04,1.91-.17s1.99-2.15,4.99-.59c3.01,1.56,3.68,4.02,2.9,5.74-.73,1.6-2.45,2.18-2.45,2.18"/><path class="cls-2" d="m167.69,27.8s-.9-.46-1.6.19-2.07,1.81-2.07,1.81c0,0-.91-2.22-.59-3.81.11-.54-.16-1.38-.96-1.41s-1.51-.1-1.83.9.11,1.34.13,1.93.72,5.02,2.98,5.02c1.91,0,2.71-.48,2.71-.48"/><path class="cls-2" d="m165.05,32.43s.4.51.48,1.37.03,3.57.8,4.56"/><path class="cls-2" d="m149.84,35.65s4.58,10.93,2.17,18.56"/><path class="cls-2" d="m171.43,48.12s1.56,4.27.06,7.75"/><path class="cls-2" d="m168.99,39.02s-3.04-1.17-6.33.37"/><path class="cls-2" d="m174.37,39.98s2.22,4.12,1.07,5.87c-1,1.52-3.36,2.19-4,2.27s-1.32-.4-1.32-.4"/><path class="cls-2" d="m161.31,22.13s2.17,1.92,4.71,1.4"/><path class="cls-9" d="m94.81,56.95c0-3.03,0-6.06,0-9.09h34.03v8.55h.42c5.18,0,10.36,0,15.53,0,.11,0,.23-.02.34-.02v9.09h-16.79v-8.53h-.48c-10.88,0-21.76,0-32.64,0-.14,0-.27,0-.41.01Zm5.39-4.5s.04.01.07.02c0,.42,0,.83,0,1.25,0,.54,0,.52.55.54.27,0,.33-.09.33-.34-.01-1,0-2,0-3.01,0-.09-.01-.18-.02-.31-.14,0-.27.02-.39,0-.32-.05-.51.07-.65.38-.22.47-.48.91-.75,1.41-.29-.55-.56-1.06-.84-1.56-.05-.09-.14-.21-.23-.22-.23-.03-.47-.01-.71-.01,0,.13-.02.21-.02.29,0,1.01,0,2.03,0,3.04,0,.25.07.35.32.32.07,0,.15,0,.22,0,.24.03.33-.06.32-.31-.02-.51,0-1.01,0-1.52.23.33.41.66.57,1.01.08.16.18.23.36.22.17,0,.29-.04.37-.21.16-.34.34-.66.51-.99Zm39.33,6.71c0,1.15,0,2.28,0,3.4,0,.07.1.19.16.2.21.03.43,0,.69,0v-1.93c.38.57.74,1.05,1.03,1.57.2.35.46.42.8.36.08-.01.2-.13.2-.2.01-1.08,0-2.15.01-3.23,0-.16-.07-.22-.23-.21-.09,0-.19.01-.28,0-.29-.04-.38.07-.37.36.02.49,0,.99,0,1.48-.38-.46-.74-.92-1-1.42-.24-.44-.57-.48-1.02-.38Zm-31.73-8.53v3.62c.22,0,.42-.01.61,0,.22.02.29-.08.28-.29-.01-.35,0-.7,0-1.04.3-.09.45-.02.54.24.1.29.24.58.38.86.04.08.1.2.16.2.29.02.58,0,.93,0-.26-.55-.48-1.03-.7-1.5.48-.37.63-.76.52-1.26-.11-.49-.44-.78-.9-.83-.6-.06-1.2-.01-1.81-.01Zm31.27,10.33c-.02-.25-.03-.5-.07-.75-.1-.67-.59-1.11-1.25-1.14-.82-.04-1.39.29-1.51,1-.09.56-.09,1.15,0,1.7.1.68.67,1.07,1.38,1.05.74-.02,1.25-.43,1.38-1.12.04-.24.05-.5.07-.75Zm-37.37-10.36c-.02.07-.04.09-.04.12,0,1.11,0,2.21,0,3.32,0,.07.13.2.2.2.65.02,1.29.01,1.94,0,.06,0,.17-.1.17-.16.02-.19,0-.39,0-.61h-1.37v-.73c.32,0,.63-.02.93,0,.34.03.31-.19.3-.4,0-.2.03-.4-.29-.38-.31.03-.62,0-.93,0v-.61c.39,0,.76,0,1.12,0,.08,0,.22-.09.24-.16.03-.19.01-.39.01-.61h-.82c.12-.21.22-.38.35-.6-.33,0-.59,0-.85,0-.07,0-.17.06-.2.12-.16.32-.35.6-.77.48Zm9.3,1.81s.03,0,.05,0c0,.21-.02.42,0,.62.07.76.6,1.24,1.37,1.25.84,0,1.38-.43,1.45-1.22.04-.44.04-.9,0-1.34-.06-.67-.57-1.14-1.21-1.17-.85-.05-1.37.27-1.55.99-.07.28-.07.58-.11.86Zm9.55.03s-.02,0-.04,0c0-.16,0-.31,0-.47-.04-.79-.49-1.32-1.17-1.4-.84-.1-1.5.24-1.62.96-.1.58-.09,1.21,0,1.79.09.62.62.96,1.28.97.76.01,1.23-.28,1.41-.93.08-.3.09-.61.14-.92Zm4.23.31c.27,0,.51,0,.76,0,.48,0,.48,0,.47-.48,0-.21-.06-.3-.28-.29-.31.02-.62,0-.95,0v-.61c.26,0,.5,0,.74,0,.7-.02.65.17.62-.68,0-.02-.02-.03-.05-.08-.64,0-1.31,0-1.98,0-.22,0-.29.08-.28.29,0,1.02,0,2.05,0,3.07,0,.24.09.3.31.3.46-.01.92,0,1.38,0q.68,0,.62-.69s-.02-.03-.05-.08h-1.31v-.74Zm-9.47.27c.27,0,.5.01.73,0,.66-.04,1.07-.47,1.13-1.15.05-.61-.27-1.12-.89-1.2-.6-.07-1.22-.02-1.87-.02,0,.11,0,.22,0,.33,0,.89,0,1.78,0,2.66,0,.67-.16.6.65.61.21,0,.27-.09.26-.28-.01-.3,0-.6,0-.96Zm19.68,9.74c-.29-1.12.2-2,.7-2.89.03-.05.06-.11.09-.17.09-.17.17-.35.29-.58-.3,0-.54.01-.78,0-.2-.01-.3.06-.38.24-.12.3-.27.6-.43.95-.17-.37-.3-.68-.45-.98-.04-.08-.13-.2-.2-.2-.29-.02-.58,0-.91,0,.05.12.06.2.1.27.29.57.59,1.13.87,1.7.07.15.12.33.12.5.02.38,0,.76,0,1.16h.95Zm-29.57-11.39c0,.8,0,1.54,0,2.28,0,.68-.11.59.62.61.24,0,.31-.08.3-.31-.01-.74,0-1.48,0-2.22,0-.11.01-.22.02-.36.24,0,.45,0,.65,0,.34.02.26-.22.26-.41,0-.19.04-.38-.27-.37-.69.02-1.38,0-2.06,0-.5,0-.49,0-.48.5,0,.21.09.28.28.27.21-.01.41,0,.66,0Zm26.55,10.64v-2.89c-.27,0-.49,0-.7,0-.18,0-.24.07-.24.24,0,1.05,0,2.11,0,3.16,0,.23.11.25.29.25.59,0,1.19,0,1.78,0,.08,0,.16-.02.24-.03v-.73h-1.38Zm-10.06-11.41c-.26,0-.45,0-.65,0-.18,0-.26.05-.26.25,0,1.05,0,2.11,0,3.16,0,.17.06.25.24.25.63,0,1.25,0,1.88,0,.07,0,.2-.09.21-.16.03-.19,0-.39,0-.6-.22,0-.38,0-.55,0-.28-.01-.66.07-.8-.07-.15-.15-.06-.53-.07-.81,0-.65,0-1.31,0-2Z"/><path class="cls-1" d="m118.79,59.39c-.06-.19-.16-.26-.36-.25-.19,0-.32.02-.39.25-.29.89-.61,1.77-.91,2.66-.07.21-.15.42-.22.64.54.08.59.06.68-.16q.22-.56.82-.56h.16c.61,0,.49-.06.66.48.06.2.15.31.37.28.1-.02.21,0,.36,0-.4-1.15-.78-2.24-1.15-3.33Zm-.85,2.06c.16-.47.3-.91.48-1.44.18.53.32.97.48,1.44h-.95Zm-4.74-.53h-1.25v.47c.23.01.44.02.64.03.02.46-.16.73-.52.83-.35.09-.7-.05-.81-.4-.19-.61-.19-1.23,0-1.84.08-.25.28-.38.55-.39.29-.01.57.04.68.33.14.38.39.32.66.27-.04-.62-.46-1.05-1.07-1.12-.72-.08-1.33.25-1.43.91-.09.61-.06,1.24,0,1.86.04.41.32.73.74.84.5.14,1,.16,1.41-.25.43-.43.44-.98.41-1.54Zm12.87-.81c-.06-.54-.45-.9-.98-.95-.48-.04-.97,0-1.48,0v3.56c.47,0,.91.01,1.36,0,.6-.02,1.03-.36,1.1-.96.06-.54.06-1.1,0-1.64Zm-.54,1.37c-.04.52-.3.73-.82.74-.16,0-.31,0-.51,0v-2.57c.28.01.55,0,.82.04.3.05.49.32.51.7.02.36.03.73,0,1.09Zm-9.7-.2c.21-.28.45-.48.53-.73.25-.74-.2-1.35-1.02-1.4-.47-.03-.94,0-1.43,0v3.54q.57.08.57-.45v-.95c.67-.08.67-.08.92.46.08.18.17.35.26.53q.23.49.84.4c-.24-.5-.48-.99-.67-1.4Zm-.37-.58c-.31.05-.63.05-.97.07v-1.14c.34.02.66.02.97.08.25.04.35.24.36.48,0,.26-.11.47-.36.51Zm6.89-1.54v2.32s-.05.01-.08.02c-.41-.68-.83-1.34-1.21-2.04-.18-.33-.39-.37-.7-.29v3.51h.56v-2.28c.47.66.88,1.34,1.28,2.02.2.34.27.36.68.24v-3.5h-.54Z"/><path class="cls-1" d="m100.21,52.44c-.17.33-.35.65-.51.99-.08.17-.2.21-.37.21-.18,0-.28-.06-.36-.22-.16-.34-.34-.68-.57-1.01,0,.51-.01,1.01,0,1.52.01.26-.08.34-.32.31-.07,0-.15,0-.22,0-.24.03-.32-.07-.32-.32.01-1.01,0-2.03,0-3.04,0-.08.01-.16.02-.29.24,0,.48-.02.71.01.09.01.18.13.23.22.28.5.54,1,.84,1.56.27-.5.53-.95.75-1.41.14-.3.33-.42.65-.38.12.02.24,0,.39,0,0,.13.02.22.02.31,0,1,0,2,0,3.01,0,.26-.07.35-.33.34-.55-.01-.55,0-.55-.54,0-.42,0-.83,0-1.25-.02,0-.04-.01-.07-.02Z"/><path class="cls-1" d="m139.53,59.15c.46-.1.78-.06,1.02.38.27.5.62.96,1,1.42,0-.49.02-.99,0-1.48-.01-.29.08-.41.37-.36.09.01.19,0,.28,0,.16-.01.23.05.23.21,0,1.08,0,2.15-.01,3.23,0,.07-.12.19-.2.2-.34.06-.6-.01-.8-.36-.29-.52-.65-.99-1.03-1.57v1.93c-.26,0-.48.02-.69,0-.06,0-.16-.13-.16-.2-.01-1.13,0-2.25,0-3.4Z"/><path class="cls-1" d="m107.8,50.63c.61,0,1.22-.04,1.81.01.46.04.8.34.9.83.11.5-.04.89-.52,1.26.22.47.44.95.7,1.5-.34,0-.64.01-.93,0-.06,0-.13-.12-.16-.2-.13-.28-.27-.56-.38-.86-.09-.26-.25-.34-.54-.24,0,.33,0,.69,0,1.04,0,.21-.06.31-.28.29-.19-.01-.39,0-.61,0v-3.62Zm.91.75v.74c.23-.01.45.01.64-.06.12-.04.27-.23.26-.35,0-.12-.17-.29-.3-.33-.18-.06-.39-.01-.61-.01Z"/><path class="cls-1" d="m139.06,60.96c-.02.25-.03.5-.07.75-.12.69-.64,1.1-1.38,1.12-.71.02-1.29-.37-1.38-1.05-.08-.56-.08-1.15,0-1.7.12-.71.69-1.04,1.51-1,.66.03,1.15.47,1.25,1.14.04.25.04.5.07.75Zm-.93-.04c-.01-.19,0-.41-.04-.62-.05-.25-.17-.45-.47-.46-.31,0-.48.17-.5.45-.03.43-.03.87,0,1.3.02.28.2.46.49.46.27,0,.45-.19.49-.51.02-.2.02-.4.03-.63Z"/><path class="cls-1" d="m101.69,50.59c.42.12.6-.16.77-.48.03-.06.13-.11.2-.12.26-.01.52,0,.85,0-.13.22-.23.39-.35.6h.82c0,.23.02.42-.01.61-.01.07-.15.15-.24.16-.36.02-.73,0-1.12,0v.61c.31,0,.62.02.93,0,.32-.03.29.17.29.38,0,.21.03.43-.3.4-.3-.02-.6,0-.93,0v.73h1.37c0,.22.01.42,0,.61,0,.06-.11.15-.17.16-.65.01-1.29.01-1.94,0-.07,0-.2-.13-.2-.2-.01-1.11,0-2.21,0-3.32,0-.03.02-.06.04-.12Z"/><path class="cls-1" d="m110.99,52.4c.03-.29.04-.58.11-.86.18-.72.7-1.04,1.55-.99.64.04,1.15.5,1.21,1.17.04.44.04.9,0,1.34-.07.79-.61,1.23-1.45,1.22-.77,0-1.3-.49-1.37-1.25-.02-.21,0-.42,0-.62-.02,0-.03,0-.05,0Zm2.01,0c-.03-.24-.03-.49-.09-.73-.05-.24-.22-.36-.48-.35-.25,0-.42.15-.44.37-.03.49-.03.99,0,1.49.02.22.2.35.45.35.26,0,.42-.12.47-.36.05-.24.05-.49.08-.75Z"/><path class="cls-1" d="m120.55,52.43c-.04.31-.05.62-.14.92-.18.65-.66.94-1.41.93-.66-.01-1.19-.35-1.28-.97-.09-.59-.1-1.21,0-1.79.12-.72.79-1.07,1.62-.96.68.08,1.13.62,1.17,1.4,0,.16,0,.31,0,.47.01,0,.02,0,.04,0Zm-.92-.02c-.02-.23-.03-.46-.07-.68-.05-.26-.2-.42-.5-.42-.28,0-.44.18-.46.42-.03.45-.03.91,0,1.37.02.24.18.41.46.42.29,0,.45-.16.5-.42.05-.22.05-.45.07-.68Z"/><path class="cls-1" d="m124.78,52.74v.74h1.31s.05.07.05.08q.06.69-.62.69c-.46,0-.92,0-1.38,0-.22,0-.32-.06-.31-.3.01-1.02,0-2.05,0-3.07,0-.21.06-.29.28-.29.67.01,1.33,0,1.98,0,.03.05.05.07.05.08.03.85.07.66-.62.68-.24,0-.48,0-.74,0v.61c.33,0,.64.01.95,0,.23-.01.28.08.28.29,0,.48,0,.48-.47.48-.25,0-.5,0-.76,0Z"/><path class="cls-1" d="m115.31,53.01c0,.35,0,.65,0,.96,0,.19-.05.29-.26.28-.81-.01-.64.06-.65-.61-.01-.89,0-1.78,0-2.66,0-.11,0-.22,0-.33.65,0,1.27-.06,1.87.02.62.08.95.59.89,1.2-.06.68-.47,1.11-1.13,1.15-.23.02-.46,0-.73,0Zm.01-.77c.33-.01.68.12.87-.23.06-.12.05-.36-.03-.46-.22-.28-.53-.18-.84-.17v.86Z"/><path class="cls-1" d="m134.99,62.75h-.95c0-.4.01-.78,0-1.16,0-.17-.05-.35-.12-.5-.28-.57-.58-1.13-.87-1.7-.04-.07-.06-.15-.1-.27.33,0,.62-.01.91,0,.07,0,.16.12.2.2.15.3.28.6.45.98.16-.35.31-.65.43-.95.07-.18.18-.26.38-.24.24.02.47,0,.78,0-.11.23-.2.41-.29.58-.03.06-.06.11-.09.17-.5.88-1,1.77-.7,2.89Z"/><path class="cls-1" d="m105.41,51.36c-.25,0-.46,0-.66,0-.2,0-.28-.06-.28-.27-.01-.5-.02-.5.48-.5.69,0,1.38.01,2.06,0,.31,0,.27.18.27.37,0,.18.07.43-.26.41-.21-.01-.41,0-.65,0,0,.14-.02.25-.02.36,0,.74,0,1.48,0,2.22,0,.23-.07.32-.3.31-.73-.02-.62.07-.62-.61,0-.74,0-1.48,0-2.28Z"/><path class="cls-1" d="m131.97,62h1.38v.73c-.08.01-.16.03-.24.03-.59,0-1.19,0-1.78,0-.18,0-.29-.03-.29-.25,0-1.05,0-2.11,0-3.16,0-.17.06-.25.24-.24.22,0,.43,0,.7,0v2.89Z"/><path class="cls-1" d="m121.91,50.59c0,.69,0,1.35,0,2,0,.28-.08.66.07.81.14.15.53.06.8.07.17,0,.33,0,.55,0,0,.22.02.41,0,.6,0,.06-.13.15-.21.16-.63.01-1.25,0-1.88,0-.17,0-.24-.07-.24-.25,0-1.05,0-2.11,0-3.16,0-.2.07-.26.26-.25.2.01.4,0,.65,0Z"/><path class="cls-9" d="m122.34,61.48v-2.32h.54v3.5c-.41.13-.48.1-.68-.24-.41-.68-.81-1.35-1.28-2.02v2.28h-.56v-3.52c.31-.08.52-.04.7.29.38.69.8,1.36,1.21,2.04.03,0,.05-.01.08-.02Z"/><path class="cls-9" d="m115.81,61.29c.21-.28.45-.48.53-.73.25-.74-.2-1.35-1.02-1.4-.47-.03-.94,0-1.43,0v3.54q.57.08.57-.45v-.95c.67-.08.67-.08.92.46.08.18.17.35.26.53q.23.49.84.4c-.24-.5-.48-.99-.67-1.4Zm-.37-.58c-.31.05-.63.05-.97.07v-1.14c.34.02.66.02.97.08.25.04.35.24.36.48,0,.26-.11.47-.36.51Z"/><path class="cls-9" d="m126.06,60.11c-.06-.54-.45-.9-.98-.95-.48-.04-.97,0-1.48,0v3.56c.47,0,.91.01,1.36,0,.6-.02,1.03-.36,1.1-.96.06-.54.06-1.1,0-1.64Zm-.54,1.37c-.04.52-.3.73-.82.74-.16,0-.31,0-.51,0v-2.57c.28.01.55,0,.82.04.3.05.49.32.51.7.02.36.03.73,0,1.09Z"/><path class="cls-9" d="m112.58,61.42c-.2,0-.41-.02-.64-.03v-.47h1.25c.03.56.02,1.11-.41,1.54-.4.4-.91.38-1.41.25-.42-.11-.71-.43-.75-.84-.06-.62-.08-1.25,0-1.86.1-.66.72-.99,1.43-.91.62.07,1.04.5,1.07,1.12-.28.05-.53.11-.66-.27-.11-.29-.39-.34-.68-.33-.27.01-.47.14-.55.39-.2.61-.2,1.23,0,1.84.11.35.46.49.82.4.36-.09.54-.37.52-.83Z"/><path class="cls-9" d="m118.79,59.39c-.06-.19-.16-.26-.36-.25-.19,0-.32.02-.39.25-.29.89-.61,1.77-.91,2.66-.07.21-.15.42-.22.64.54.08.59.06.68-.16q.22-.56.82-.56h.16c.61,0,.49-.06.66.48.06.2.15.31.37.28.1-.02.21,0,.36,0-.4-1.15-.78-2.24-1.15-3.33Zm-.85,2.06c.16-.47.3-.91.48-1.44.18.53.32.97.48,1.44h-.95Z"/><path class="cls-9" d="m108.71,51.38c.22,0,.43-.04.61.01.13.04.29.21.3.33,0,.11-.14.3-.26.35-.19.07-.41.04-.64.06v-.74Z"/><path class="cls-9" d="m138.13,60.91c-.01.23,0,.43-.03.63-.04.32-.23.51-.49.51-.3,0-.48-.18-.49-.46-.02-.43-.03-.87,0-1.3.02-.28.19-.45.5-.45.3,0,.42.21.47.46.04.21.03.44.04.62Z"/><path class="cls-9" d="m113,52.4c-.03.26-.03.51-.08.75-.05.24-.21.37-.47.36-.25,0-.43-.13-.45-.35-.03-.49-.03-.99,0-1.49.01-.22.19-.36.44-.37.26,0,.43.11.48.35.05.24.06.49.09.73Z"/><path class="cls-9" d="m119.62,52.41c-.02.23-.03.46-.07.68-.05.26-.2.42-.5.42-.28,0-.45-.18-.46-.42-.03-.45-.03-.91,0-1.37.02-.24.18-.41.46-.42.3,0,.45.16.5.42.05.22.05.45.07.68Z"/><path class="cls-9" d="m115.32,52.24v-.86c.3-.01.62-.11.84.17.08.1.09.34.03.46-.19.35-.54.21-.87.23Z"/></svg>