<?xml version="1.0" encoding="UTF-8"?>
<svg id="Calque_1" data-name="Calque 1" xmlns="http://www.w3.org/2000/svg" viewBox="0 0 128 128">
  <defs>
    <style>
      .cls-1 {
        fill: #87ccf3;
      }

      .cls-1, .cls-2, .cls-3, .cls-4 {
        stroke-linecap: round;
        stroke-linejoin: round;
      }

      .cls-1, .cls-2, .cls-5, .cls-6, .cls-7, .cls-8, .cls-9 {
        stroke: #000;
      }

      .cls-2, .cls-6 {
        fill: #fff;
      }

      .cls-3 {
        stroke: #222221;
      }

      .cls-3, .cls-4, .cls-9 {
        fill: none;
      }

      .cls-10, .cls-7 {
        fill: #d6d6d6;
      }

      .cls-11 {
        fill: #222221;
      }

      .cls-5 {
        fill: #ff6d75;
      }

      .cls-5, .cls-6, .cls-7, .cls-8, .cls-9 {
        stroke-miterlimit: 10;
      }

      .cls-8 {
        fill: #b4eac3;
      }

      .cls-4 {
        stroke: #fff;
        stroke-width: 8px;
      }
    </style>
  </defs>
  <path class="cls-7" d="m104.87,52.92v42.32c0,6.24-5.56,11.32-12.37,11.32H30.92c-6.82,0-12.37-5.08-12.37-11.32v-42.32h86.32Z"/>
  <path class="cls-7" d="m104.87,41.54v11.38H18.55v-11.38c0-6.28,5.55-11.36,12.37-11.36h61.58c6.81,0,12.37,5.08,12.37,11.36Z"/>
  <circle class="cls-6" cx="61.86" cy="33.36" r="16.03"/>
  <path class="cls-5" d="m61.87,33.35h-12.23c0-6.75,5.47-12.22,12.22-12.22v12.22Z"/>
  <path class="cls-8" d="m74.08,33.35h-12.21v-12.22c6.74,0,12.21,5.47,12.21,12.22Z"/>
  <path d="m59.97,33.33c0-1.06.86-1.87,1.92-1.87s1.87.81,1.87,1.87-.86,1.92-1.87,1.92-1.92-.86-1.92-1.92Z"/>
  <line class="cls-9" x1="68.78" y1="28.2" x2="61.71" y2="33.35"/>
  <g>
    <path class="cls-1" d="m95.8,89.63l-1.96,7.19c-7.03,2.88-23.67,2.76-30.52,1.74h0c-3.64-.39-9.51-1.87-9.51-1.87-1.6,2.53-4.12,5.38-6.63,7.95l-6.51-5.42c1.52-3.78,2.58-7.52,2.5-9.28l.28-19.85c-.51-1.59-1.86-5.66-3.55-9.76l7.55-4.24c2.29,2.43,4.51,5.04,5.96,7.34l10.8-.48c8.39-.63,21.28-1.96,27.16-1.48l3.59,6.43c-3.98,2.25-12.15,6.75-18.41,9.81,1.05,4.86-.07,7.71-.08,7.72,6.9,1.23,15.38,3.23,19.34,4.2Z"/>
    <path class="cls-2" d="m32.45,60.26c-.26.07-.52.15-.76.28-.79.46-1.07,1.52-.86,2.41.03.12.07.24.12.38-4.01-.17-8.13.54-11.53,2.57-8.29,4.93-7.25,14.89-7.25,14.89.26,15.18,13.83,16.93,18.43,17.08-.1.82.2,1.71.9,2.13.23.14.5.21.76.28.37.1.74.18,1.11.19,1.27.05,2.52-.79,2.97-1.97.25-.65.24-1.38.02-2.05,4.62-2.15,8.42-6.08,10.06-10.9,2.13-6.24.38-13.71-4.53-18.1-1.57-1.4-3.43-2.48-5.41-3.17.29-.71.32-1.53.05-2.25-.45-1.19-1.7-2.02-2.97-1.97-.38.01-.75.1-1.11.19Z"/>
    <path class="cls-2" d="m93.78,56.57c.8.74,1.37,1.68,1.89,2.62.8,1.42,1.51,2.89,2.14,4.38.32.77.61,1.68.19,2.35-.16.26-.41.44-.67.62-.11.08-.99.59-2.38,1.37l-3.59-6.44c.07-1.47.31-2.9.6-4.32.09-.43.25-.93.69-1.03.4-.11.81.17,1.12.46Z"/>
    <path class="cls-2" d="m95.79,89.63c1.29.31,2.09.52,2.21.56.29.09.59.19.82.39.6.51.6,1.47.53,2.3-.15,1.61-.39,3.22-.72,4.82-.21,1.05-.47,2.11-1.01,3.06-.21.38-.53.77-.93.78-.44.03-.75-.39-.96-.77-.72-1.27-1.38-2.56-1.89-3.94l1.96-7.19Z"/>
    <path class="cls-2" d="m47.17,104.64c-4.18,4.28-8.37,7.78-8.37,7.78-.57.92-1.36,1.72-2.31,2.32-.46.29-1.05.54-1.58.34-.06-.02-.12-.05-.14-.11-.05-.1.06-.2.16-.27.31-.21.61-.42.92-.62-.35.24-.71.49-1.13.59-.42.1-.93.03-1.21-.29.38-.2.72-.45,1.03-.74-.42.4-1.07.56-1.65.43-.12-.03-.25-.08-.31-.18-.1-.17.06-.37.21-.5.36-.31.76-.58,1.19-.8-.38.25-.82.41-1.27.48-.2.03-.42.04-.6-.04-.19-.08-.34-.27-.3-.45.02-.1.09-.18.16-.26.52-.55,1.29-.82,1.92-1.26.08-.06.16-.13.16-.22,0-.07-.06-.14-.11-.19-.24-.2-.58-.25-.87-.39-.29-.14-.54-.46-.39-.72.11-.18.35-.24.57-.26.6-.07,1.14-.16,1.72-.03,1.87-1.8,4.05-5.94,5.7-10.02l6.52,5.42Z"/>
    <path class="cls-2" d="m47.44,56.09l-7.55,4.24c-1.66-4.06-3.65-8.15-5.45-9.88-.58.13-1.12.03-1.72-.03-.22-.03-.47-.08-.57-.26-.15-.27.1-.59.39-.72.29-.14.63-.19.87-.39.06-.05.11-.11.11-.18,0-.1-.08-.17-.16-.23-.62-.44-1.4-.71-1.92-1.26-.07-.07-.13-.16-.16-.26-.03-.18.11-.37.3-.45.19-.08.4-.07.61-.04.31.04.62.14.91.28-.29-.18-.57-.38-.83-.6-.15-.14-.3-.33-.21-.51.06-.1.19-.15.31-.18.59-.13,1.24.04,1.66.43-.31-.29-.65-.54-1.03-.74.28-.32.79-.39,1.21-.29.32.07.6.23.86.41-.22-.14-.43-.29-.65-.44-.09-.07-.2-.17-.16-.27.03-.05.09-.08.15-.11.52-.2,1.11.05,1.57.34.95.6,1.75,1.4,2.31,2.32,0,0,4.72,4.09,9.15,8.82Z"/>
    <path class="cls-11" d="m31.71,89.75c.6,0,1.08.41,1.08.91s-.48.91-1.08.91-1.08-.41-1.08-.91.48-.91,1.08-.91Z"/>
    <path class="cls-11" d="m31.71,68.96c.6,0,1.08.41,1.08.91s-.48.91-1.08.91-1.08-.41-1.08-.91.48-.91,1.08-.91Z"/>
    <path class="cls-3" d="m35.24,79.93c-.24-.48-.76-.83-1.3-.81-.54.02-1.05.43-1.14.97-.05.29.03.59.11.87"/>
  </g>
  <line class="cls-9" x1="61.87" y1="33.36" x2="61.87" y2="33.35"/>
  <g>
    <path class="cls-10" d="m55.96,36.94c.36-.23.8-.34,1.32-.34.68,0,1.25.16,1.71.49s.68.81.68,1.45c0,.39-.1.73-.29,1-.12.16-.33.37-.66.63l-.32.25c-.17.14-.29.29-.35.48-.04.12-.06.29-.06.54h-1.23c.02-.51.07-.87.14-1.06.08-.2.28-.42.61-.67l.33-.26c.11-.08.2-.17.26-.27.12-.17.18-.35.18-.55,0-.23-.07-.44-.2-.63-.13-.19-.38-.28-.74-.28s-.6.12-.75.35-.22.48-.22.73h-1.31c.04-.86.34-1.47.9-1.83Zm.75,5.1h1.36v1.31h-1.36v-1.31Z"/>
    <path d="m60.69,37.61h1.09v3.11l1.4-1.61h1.38l-1.53,1.59,1.58,2.65h-1.35l-1.03-1.82-.46.48v1.34h-1.09v-5.74Z"/>
    <path d="m67.26,39.09c.27.11.49.32.66.62v-.61h1.09v4.04c0,.55-.09.96-.28,1.24-.32.48-.93.72-1.83.72-.54,0-.99-.11-1.33-.32s-.53-.53-.57-.96h1.21c.03.13.08.22.15.28.12.1.32.15.61.15.4,0,.67-.13.8-.4.09-.17.13-.46.13-.87v-.27c-.11.18-.22.32-.34.41-.22.17-.51.25-.86.25-.55,0-.98-.19-1.31-.58s-.49-.9-.49-1.56.16-1.17.47-1.6c.32-.43.76-.65,1.34-.65.21,0,.4.03.56.1Zm.38,3.05c.18-.2.27-.51.27-.94,0-.4-.08-.71-.25-.92s-.4-.32-.68-.32c-.39,0-.66.18-.8.55-.08.2-.12.44-.12.72,0,.25.04.47.12.66.15.36.42.54.81.54.26,0,.48-.1.66-.29Z"/>
  </g>
  <rect class="cls-4" x="-1873.54" y="-4096.59" width="6467.34" height="6437.3"/>
</svg>