<?xml version="1.0" encoding="UTF-8"?>
<svg id="Calque_1" data-name="Calque 1" xmlns="http://www.w3.org/2000/svg" viewBox="0 0 200.13 128">
  <defs>
    <style>
      .cls-1, .cls-2, .cls-3, .cls-4, .cls-5 {
        stroke: #000;
      }

      .cls-1, .cls-2, .cls-3, .cls-4, .cls-5, .cls-6 {
        stroke-linecap: round;
        stroke-linejoin: round;
      }

      .cls-1, .cls-4 {
        fill: #b4eac3;
      }

      .cls-2, .cls-5, .cls-6 {
        fill: none;
      }

      .cls-3 {
        fill: #76ac75;
      }

      .cls-3, .cls-4, .cls-5 {
        stroke-width: 2px;
      }

      .cls-6 {
        stroke: #fff;
        stroke-width: 8px;
      }
    </style>
  </defs>
  <path class="cls-2" d="m107.83,56.68s-.07-.02-.09-.04c0,0,.03,0,.05.01.01,0,.03.02.04.03Z"/>
  <path class="cls-3" d="m107.74,56.64c-5.35-1.01-10.34-1-11.89-1.07-3.56-.16-15.76,1.25-20.03,1.97l-13.87,1.97c-.67.09-1.26.47-1.61,1.04-.04.06-.08.13-.13.2-14.42-.48-47.67-2.71-47.99-3.43-.4-.89,0-3.75,0-6.9s2.42-4.9,3.71-5.11c.01-.01.02-.01.03-.01,1.28-.2,8.87-.3,21.68-1.68,6.82-.73,15.68-.77,23.36-.5.54.01,1.07.03,1.6.05,6.07.25,11.21.69,13.73,1.1,4.81.79,9.56,2.66,14.27,4.67,2.42,1.02,4.84,2.09,7.25,3.06,2.82,1.14,6.49,2.91,9.89,4.64Z"/>
  <path class="cls-5" d="m174.19,95.42c-.23.85-.65,1.86-1.13,2.85-.29.57-.6,1.14-.91,1.67-.46.79-.94,1.49-1.38,2.01,0,.01,0,.02-.02.03-.2.24-.41.47-.61.68-.63.68-1.23,1.23-1.72,1.65-.85.7-1.41,1.04-1.41,1.04,0,0-.44-.23-1.24-.65-.83-.44-2.05-1.08-3.59-1.89-8.78-4.6-27.79-14.57-42.12-22.05,1.47-1.66,2.6-4,2.84-6.08.25-2.15-.99-8.34-1.92-12.52,11.04,6.8,42.57,25.49,50.95,30.09h.01c.95.52,1.61.86,1.89.97.05.03.09.04.12.05.57.13.57.99.24,2.15Z"/>
  <path class="cls-3" d="m97.55,69.95c-2.96.26-9.6.7-15.33.03-7.64-.89-20.46-2-20.46-2,0,0-1.53,1.58-3.04,1.54-2.55-.07-1.52-3.74-.48-5.52.61-1.04,1.41-2.34,1.97-3.25.05-.07.09-.14.13-.2.35-.57.94-.95,1.61-1.04l13.87-1.97c4.27-.72,16.47-2.13,20.03-1.97,1.55.07,6.54.06,11.89,1.07.02.02.06.03.09.04-.01,0-.03-.02-.04-.03.18.03.35.07.53.11"/>
  <path class="cls-3" d="m90.6,48.94c-4.71-2.01-9.46-3.88-14.27-4.67-2.52-.41-7.66-.85-13.73-1.1-.5-.26-1.01-.55-1.52-.85-2.27-1.34-4.66-3.03-6.89-5.12-.49-.46-.98-.94-1.45-1.44-.62-.65-1.22-1.33-1.79-2.04-2.67-3.33-5.49-7.19-8.08-10.89-5.34-7.65-9.69-14.59-9.69-14.59,0,0,2.77-1.34,7.73-1.13,4.95.21,8.66,2.03,8.66,2.03,0,0,.67.78,1.99,3.27.77,1.46,8.52,10.33,15.07,17,3.04,3.09,5.77,5.76,7.38,7.08,3.09,2.53,10.92,8.3,16.59,12.45Z"/>
  <path class="cls-3" d="m62.6,43.17c-.53-.02-1.06-.04-1.6-.05-7.68-.27-16.54-.23-23.36.5-12.81,1.38-20.4,1.48-21.68,1.68-.01,0-.02,0-.03.01-.4-2.39-.84-5.46-.84-7.65,0-4.11,2.91-7.3,2.91-7.3,0,0,4.85-.23,12.04.8,1.49.21,3.09.48,4.76.82,5.61,1.13,12.54,2.61,17.94,3.78.47.5.96.98,1.45,1.44,2.23,2.09,4.62,3.78,6.89,5.12.51.3,1.02.59,1.52.85Z"/>
  <path class="cls-3" d="m52.74,35.76c-5.4-1.17-12.33-2.65-17.94-3.78-1.67-.34-3.27-.61-4.76-.82l-21.39-12.08s-.58-3.19,1.74-5.22c2.33-2.03,10.02-5.37,11.32-5.37.93,0,13.79,9.08,21.16,14.34,2.59,3.7,5.41,7.56,8.08,10.89.57.71,1.17,1.39,1.79,2.04Z"/>
  <path class="cls-3" d="m107.79,56.65s-.04-.01-.05-.01c-3.4-1.73-7.07-3.5-9.89-4.64-2.41-.97-4.83-2.04-7.25-3.06-5.67-4.15-13.5-9.92-16.59-12.45-1.61-1.32-4.34-3.99-7.38-7.08,1.04-1.93,2.83-4.84,5.06-6.68,3.15-2.59,8.45-5.49,9.73-6.18-1,.75-1.11,3.59-.84,7.79.26,4.2,2.89,9.92,5.62,14.09.24.37.48.73.72,1.07,1.72,2.46,12.31,10.7,20.87,17.15Z"/>
  <path class="cls-3" d="m93.07,40.01s-3.34-.24-6.87-1.58c-2.73-4.17-5.36-9.89-5.62-14.09-.27-4.2-.16-7.04.84-7.79.09-.05.16-.09.21-.11.04-.03.07-.04.07-.04,1.27-.42,4.09,1.13,7.33,10.85,3.24,9.72,4.04,12.76,4.04,12.76Z"/>
  <path class="cls-3" d="m81.63,16.44c-.07.02-.15.06-.21.11"/>
  <path class="cls-2" d="m171.94,92.25c1.79-.92,5.03-2.06,7.92-.33,4.27,2.55,3.89,7.21,3.89,7.21"/>
  <path class="cls-2" d="m171.93,92.25c-.85.44-1.37.82-1.37.82"/>
  <path class="cls-2" d="m164.95,100.6c-.77,1.24.12,1.71.74,2.86.88,1.64-1.32,1.67-.74,4.6.57,2.93,1.98,4.53,3.76,5.8,1.78,1.27,2.93.89,2.8,3.06s-1.4,2.68-1.4,2.68"/>
  <path class="cls-2" d="m166.86,99.13s-.25,1.72.96,2.68,5.93,1.15,6.18,3c.25,1.85.02,2.36.72,4.02.7,1.66,2.04,3.12,3.69,3.95,1.66.83,1.9,4.08,1.9,4.47"/>
  <path class="cls-2" d="m169.03,96.39s.72,2.29,2.5,3.25c1.78.96,3.05.57,3.88,1.4s1.73,2.38,1.76,4.31c.03,1.93.66,3.91,1.88,4.36,1.21.45,2.8,1.27,3.44,1.4"/>
  <path class="cls-2" d="m171.13,95.08s3.19-.48,4.08,1.31,2.17,2.68,3.19,2.74c1.02.06,2.42,1.08,2.93,2.68.51,1.59,2.42,3.89,3.57,4.46s2.61,1.47,2.61,2.36-.7,1.47-.7,1.47"/>
  <path class="cls-2" d="m163.1,101.04s-1.66,1.53-.64,3.76c1.02,2.23,3.84,3.89,4.38,5.29.53,1.4,1.49,4.14.72,5.48-.76,1.34-3.19,1.66-3.19,1.66"/>
  <path class="cls-2" d="m168.18,97.99s.14,1.59,1.11,2.61,2.76,1.94,2.61,4.07-.21,2.39.23,4.91,1.76,2.45,2.28,3.19c.84,1.21.11,3.09.5,3.91s1.6,1.69,1.6,1.69"/>
  <path class="cls-2" d="m172.35,93.68s5.81-2.34,7.36,1.35c1.55,3.69,1.55,5.82,3.29,6.35,1.74.53,2.1-.55,3.84-.11,1.15.29,1.59,1.95,1.59,1.95"/>
  <path class="cls-2" d="m171.7,96.39s1.5,2.59,2.58,2.74c1.08.15,4.25,1.4,4.77,3.04s.8,4.56,2.05,5.33,2.51.49,3.17,1.84"/>
  <path class="cls-2" d="m166.38,102.22s1.07,1.08,1.46,1.31,1.43,2,.93,3.47-.38,2.93.25,3.39,3.44,2.55,3.64,4.7c.11,1.17.41,1.57.91,2.62"/>
  <path class="cls-1" d="m122.9,74.68c-.24,2.08-1.37,4.42-2.84,6.08-10.01-5.22-17.75-9.24-18.11-9.36-1.06-.35-2.84-1.6-2.84-1.6,0,0-.58.07-1.56.15-.16-1.36-.37-2.84-.56-3.6-.39-1.62.4-3.91,2.12-5.6,1.07-1.05,5.8-2.81,9.21-3.99h.01c3.42.68,6.95,1.8,9.8,3.62.66.43,1.63,1.03,2.85,1.78.93,4.18,2.17,10.37,1.92,12.52Z"/>
  <path class="cls-2" d="m100.66,62.91s-1.09,1.59-1.33,3.45-.22,3.45-.22,3.45"/>
  <path class="cls-4" d="m122.19,62.91c-1.06-.73-5.53-3.82-7.32-4.21s-7.13-2.05-7.13-2.05"/>
  <path class="cls-4" d="m120.06,80.76s-16.14-8.45-17.26-8.95-5.25-1.86-5.25-1.86"/>
  <rect class="cls-6" x="-533.43" y="-2051.09" width="3385.57" height="2571.67"/>
</svg>