<?xml version="1.0" encoding="UTF-8"?>
<svg id="Calque_1" data-name="Calque 1" xmlns="http://www.w3.org/2000/svg" viewBox="0 0 128 128">
  <defs>
    <style>
      .cls-1, .cls-2, .cls-3, .cls-4, .cls-5, .cls-6, .cls-7 {
        stroke-linecap: round;
      }

      .cls-1, .cls-2, .cls-3, .cls-4, .cls-5, .cls-6, .cls-7, .cls-8 {
        stroke-linejoin: round;
      }

      .cls-1, .cls-2, .cls-3, .cls-4, .cls-5, .cls-6, .cls-8 {
        stroke: #000;
      }

      .cls-1, .cls-4, .cls-8 {
        fill: #76ac75;
      }

      .cls-2 {
        fill: #baa584;
      }

      .cls-3, .cls-6, .cls-7 {
        fill: none;
      }

      .cls-4, .cls-5, .cls-6, .cls-8 {
        stroke-width: 2px;
      }

      .cls-5 {
        fill: #fce9b9;
      }

      .cls-7 {
        stroke: #fff;
        stroke-width: 8px;
      }
    </style>
  </defs>
  <path class="cls-6" d="m76.28,108.62s-.01-.02-.02-.03"/>
  <path class="cls-8" d="m46.65,27.46c.38.01.75.04,1.13.1,4.51.6,9.41,3.33,11.3,7.31.53,1.12.65,1.99,2.13,5.44.91,2.13,1.55,3.64,2.49,5.21,1.75,2.94,3.7,4.68,4.61,5.56,5.53,5.32,8.58,13.37,8.76,13.83,3.71,10.03.27,19.54-.12,20.58-1.12,2.96-4.4,10.16-12.3,14.78-9.73,5.68-19.58,3.45-22.59,2.72-1.08-.27-16.39-4.26-22.11-18.34-.75-1.84-3.45-8.48-1.65-15.96.81-3.39,2.46-6.65,2.94-7.58,2.39-4.64,2.77-5.03,4.28-8.58,1.75-4.11,1.41-4.76,3.04-9.94.8-2.52,1.76-5.57,4.06-8.38.68-.83,4.87-5.75,11.28-6.64"/>
  <path class="cls-6" d="m38.33,32.48c.43-.06.61-.31,1.96,0s1.84,1.29,2.76,1.35,2.51.52,3.74-.75c1.23-1.27,1.29-2.01,1.9-2.38s1.72,0,1.72,0"/>
  <path class="cls-2" d="m47.28,30.04c.12,1.2-1.9,3.15-1.9,3.15,0,0-1.76,0-2.91-.31-1.13-.32-2.52-1.33-2.52-1.33,0,0,1.2-.5,2.26-.5s2.15-1.14,2.14-2.02c0-.26-.2-.79-.47-1.45-.65-1.62-1.78-4.04-1.73-5.27.06-1.73-.32-3.82-.51-5.21-.11-.78-.31-2.46-.47-3.8-.06-.45-.1-.87-.14-1.19-.04-.42-.08-.7-.08-.7l2.97,1.43c-.03.11-.12.42-.27,1.22-.31,1.7,0,3.46,0,5.29s1.01,3.8,1.71,4.86c.38.6.89,1.95,1.27,3.24.33,1.04.58,2.04.63,2.57Z"/>
  <path class="cls-3" d="m44,12.87l-.06-.02c.06-.12.06.02.06.02Z"/>
  <path class="cls-1" d="m41.19,13.3c-1.15.45-2.92,1.18-3.13,1.52-.31.5-1.2,3.34-1.2,6.5s-1.83,5.49-3.41,7.7c-1.58,2.21-4.74,4.23-12.19,7.07-7.45,2.84-14.37-2.91-14.37-2.91,0,0,2.44-.5,3.33-.93.88-.43,1.51-.9,2.96-1.98,1.45-1.07,4.61-4.54,9.66-9.66,1.61-1.62,3.65-2.93,5.69-3.95,4.38-2.21,8.77-3.12,8.77-3.12l3.74-1.44c.04.32.09.73.14,1.19Z"/>
  <path class="cls-3" d="m38.06,14.82s-2.4,1.96-3.26,7.28c-.38,2.37-2.44,6.07-6.37,8.45-3.93,2.38-6.37,3.96-10.01,3.96s-6.23-.54-6.23-.54"/>
  <path class="cls-3" d="m34.8,16.21s-3.45,2.49-4.45,3.45-3.92,3.85-5.22,4.77c-1.29.93-8.52,6.81-9.86,7.24"/>
  <path class="cls-3" d="m33.6,17.31s-1.05,2.11-1.25,4.45c-.09,1.1-.53,3.26-.86,4.17"/>
  <path class="cls-3" d="m28.05,21.92s-1.05,2.11-1.25,4.45c-.09,1.1-.53,3.26-.86,4.17"/>
  <path class="cls-3" d="m22.33,26.8s-1.54,1.34-2.31,3.14c-.36.84-1.33,2.41-1.88,3.03"/>
  <path class="cls-3" d="m32.02,16.46s-.78.37-1.38.44-2.1-.22-2.1-.22"/>
  <path class="cls-3" d="m26.06,21.73s-1.03.65-1.84.77-2.79-.39-2.79-.39"/>
  <path class="cls-3" d="m21.43,25.84s-.85.36-1.52.43-2.3-.21-2.3-.21"/>
  <g>
    <path class="cls-5" d="m110.2,54.31c-.11-.52-1.3-5.87-3.95-6.29-.98-.16-1.62.47-2.22,0-1.22-.94.35-3.67-.87-5.67-.5-.82-2.43-3.2-6.25-2-2.38,1.54-3.46,3.34-4.68,5.05-.87,1.21-3.37,3.73-8.41,8.79-8.15,8.18-8.41,6.97-10.85,10.29-4.08,5.55-5.07,11.31-5.6,14.58-.63,3.92-2.56,15.88,3,19.83,1.37.97,3.14,1.42,4.48,3.55,1.24,1.98.91,3.47,1.31,5.6.03.19.08.38.13.57.59.9,2.87,5.73,9.11,7,4.06.83,7.27-.91,8.77-1.72,3.67-2.01,5.43-5.03,6.42-6.79,2.18-3.88,2.5-7.98,3.07-16.04.52-7.18.03-8.27.99-12.57.71-3.17,1.05-2.99,2.96-9.01,3.25-10.24,3.01-13.21,2.6-15.17Zm-26.28,27.05c-1.07,1.05-1.91,1.89-2.9,1-1-.87.48-2.23,1.37-3.22.88-.99,3.84-2.65,3.84-2.65,0,0-1.23,3.83-2.31,4.87Zm5.05,4.51c-.67,1.34-1.19,2.4-2.41,1.9-1.23-.5-.29-2.26.22-3.49.5-1.22,2.75-3.77,2.75-3.77,0,0,.1,4.02-.57,5.36Z"/>
    <path class="cls-6" d="m81.02,82.36c-1-.87.48-2.23,1.37-3.22.88-.99,3.84-2.65,3.84-2.65,0,0-1.23,3.83-2.31,4.87-1.07,1.05-1.91,1.89-2.9,1Z"/>
    <path class="cls-6" d="m86.78,84.28c.5-1.22,2.75-3.77,2.75-3.77,0,0,.1,4.02-.57,5.36-.67,1.34-1.19,2.4-2.41,1.9-1.23-.5-.29-2.26.22-3.49Z"/>
    <path class="cls-4" d="m115.81,75.51c-.28,6.54,1.48,7.4,1.31,13.46-.04,1.4-.17,2.71-.37,3.94-.62,4.12-1.91,7.24-2.63,8.78-1.04,2.26-4.01,7.98-10.29,12.53-1.93,1.41-5.14,3.68-9.91,4.68-2.74.58-5.62,1.18-8.79,0-4.25-1.58-7.82-5.86-8.85-10.29.59.9,2.87,5.73,9.11,7,4.06.83,7.27-.91,8.77-1.72,3.67-2.01,5.43-5.03,6.42-6.79,2.18-3.88,2.5-7.98,3.07-16.04.52-7.18.03-8.27.99-12.57.71-3.17,1.05-2.99,2.96-9.01,3.25-10.24,3.01-13.21,2.6-15.17-.11-.52-1.3-5.87-3.95-6.29-.98-.16-1.62.47-2.22,0-1.22-.94.35-3.67-.87-5.67-.5-.82-2.43-3.2-6.25-2,1.42-.93,3.75-2.45,6.17-1.88,1.98.48,2.31,1.94,4.32,3.83.52.49,1.15,1.01,1.95,1.54.03.01.06.03.09.06,2.15,1.41,2.55.99,4.12,2.24,2.71,2.18,3.68,5.19,4.11,6.55.7,2.22.84,4.37-.19,11.96-1.12,8.28-1.54,7.56-1.68,10.85Z"/>
    <path class="cls-6" d="m105.43,43.06s-.29,1.78.93,2.61,3.66.72,3.66.72c0,0,1.65,0,3.92,2.12,2.27,2.11,3.44,5.09,3.29,8.84-.16,3.76-4.23,14.08-4.23,16.43s.47,7.67,1.49,10.41c1.02,2.74,2.18,6.61,2.26,8.72"/>
    <path class="cls-2" d="m88.97,85.86c-.67,1.34-1.19,2.4-2.41,1.9-1.23-.5-.29-2.26.22-3.49.5-1.22,2.75-3.77,2.75-3.77,0,0,.1,4.02-.57,5.36Z"/>
    <path class="cls-2" d="m86.23,76.49s-1.23,3.83-2.31,4.87c-1.07,1.05-1.91,1.89-2.9,1-1-.87.48-2.23,1.37-3.22.88-.99,3.84-2.65,3.84-2.65Z"/>
    <path class="cls-3" d="m102.76,51.58s-5.22,12.14-7.05,15.01c-1.83,2.87-6.8,9.86-7.41,11.43"/>
    <path class="cls-3" d="m93.35,81.08s.63,4.75-1.44,6.81c-2.07,2.06-6.34,2.84-8.45,3.63-2.11.78-5.37,4.96-5.76,5.87"/>
    <path class="cls-3" d="m84.76,74.68s-2.76.65-4.07,2.22c-1.3,1.57-2.42,3.43-2.05,6.21s.74,2.69.74,4.26-.09,2.41-.09,2.41"/>
    <path class="cls-2" d="m107.86,46.45s3.19-5.13,3.47-7.56c.27-2.43-.22-3.2.84-5.79s2.6-5.31,2.6-5.31h-3.94s-1.57,3.08-1.41,5.35c.16,2.27-.08,4.53-.65,6.23-.57,1.7-2.94,5.75-2.94,5.75l2.03,1.32Z"/>
  </g>
  <rect class="cls-7" x="-859.22" y="-1403.97" width="3385.57" height="2571.67"/>
</svg>