<?xml version="1.0" encoding="UTF-8"?>
<svg id="Calque_1" data-name="Calque 1" xmlns="http://www.w3.org/2000/svg" viewBox="0 0 200.13 128">
  <defs>
    <style>
      .cls-1, .cls-2, .cls-3 {
        stroke: #000;
      }

      .cls-1, .cls-2, .cls-3, .cls-4 {
        stroke-linecap: round;
        stroke-linejoin: round;
      }

      .cls-1, .cls-3, .cls-4 {
        fill: none;
      }

      .cls-2 {
        fill: #d6d6d6;
      }

      .cls-2, .cls-3 {
        stroke-width: 2px;
      }

      .cls-4 {
        stroke: #fff;
        stroke-width: 8px;
      }
    </style>
  </defs>
  <path class="cls-2" d="m176.77,66.62c.89-.66,2.63-.7,3.73-.56,1.16.15,1.55-1.2.74-1.73-4.6-3.06-18.05-10.58-30.24-13-14.29-2.83-24.81-5.17-38.08-4.59-1.21.05-2.44.13-3.7.23-1.65.13-3.3.32-4.94.55-1.53.21-3.04.45-4.51.71-1.06.19-2.1.39-3.12.6-2.81.57-5.44,1.19-7.75,1.79-5.5,1.43-9.21,2.7-9.21,2.7,0,0-12.5,4.08-19.76,3.78-4-.16-8.53-.15-11.79-.1-2.8.04-5.53-.79-7.84-2.37-2.5-1.71-6.05-3.89-9.42-5.04-4.35-1.48-9.28-2.2-11.77-2.5-.73-.08-1.3.63-1.06,1.33,1.03,3.01,2.97,12.2,2.75,17.79-.23,5.78-3.33,13.29-4.72,17.14-.26.74.37,1.47,1.14,1.32,3.74-.71,12.57-2.62,16.85-5.4,2.35-1.52,4.64-2.89,6.51-3.95,2.67-1.53,5.39-4.5,8.47-4.5h2.85c.32,0,.65.01.97.03,2.24.13,4.44.73,6.45,1.74.58.27,1.14.58,1.68.93.27.17.55.35.85.54,2.28,1.39,5.46,3.07,9.61,4.72,3.99,1.58,8.89,3.12,14.75,4.32.2-.41.6-.72,1.07-.82l5.5-1.2c1.16-.25,2.37-.13,3.45.35l3.28,1.46c.77.49,1.15,1.34,1.09,2.17,6.53.5,13.88.54,22.09-.07,16.57-1.24,28.82-3.5,37.73-5.9,12.88-3.46,18.76-7.2,20.59-8.55.37-.27.39-.8.04-1.09-.62-.52-1.61-1.19-2.54-1.2-1.69,0-3.72.73-3.84.77.06-.15.62-1.31,2.1-2.4Zm-34.31,13.31c-.85.52-1.83.8-2.83.8h-2.12c-1.07,0-2.12-.32-3.01-.92l-5.96-4c-.84-.55-.8-1.79.07-2.29l1.96-1.12c.28-.16.61-.22.93-.15l6,1.22,3.67.75h.01l4.32.89,3.6.73-6.64,4.09Z"/>
  <path class="cls-3" d="m149.1,75.84l-6.64,4.09c-.85.52-1.83.8-2.83.8h-2.12c-1.07,0-2.12-.32-3.01-.92l-5.96-4c-.84-.55-.8-1.79.07-2.29l1.96-1.12c.28-.16.61-.22.93-.15l6,1.22,3.67.75h.01l4.32.89,3.6.73Z"/>
  <path d="m171.67,63.49c0,1.04-.85,1.89-1.9,1.89s-1.89-.85-1.89-1.89.85-1.9,1.89-1.9,1.9.85,1.9,1.9Z"/>
  <path class="cls-1" d="m158.09,56.5c-7.23-.26-13.55,6.81-10.32,13.83,1.66,3.61,5.67,7.91,9.77,8.52,1.01.15,2.29.32,2.88.24"/>
  <path class="cls-2" d="m100.6,85.06c-.03.57-.27,1.13-.73,1.57l-9.56,7.69c-1.02.98-2.57,1.17-3.8.48-1.02-.57-1.63-1.64-1.63-2.78,0-.15.01-.31.03-.46l1.11-7.93c.03-.19.09-.37.19-.53.2-.41.6-.72,1.07-.82l5.5-1.2c1.16-.25,2.37-.13,3.45.35l3.28,1.46c.77.49,1.15,1.34,1.09,2.17Z"/>
  <path class="cls-2" d="m149.1,75.84l-6.64,4.09c-.85.52-1.83.8-2.83.8h-2.12c-1.07,0-2.12-.32-3.01-.92l-5.96-4c-.84-.55-.8-1.79.07-2.29l1.96-1.12c.28-.16.61-.22.93-.15l6,1.22,3.67.75h.01l4.32.89,3.6.73Z"/>
  <path class="cls-2" d="m71.86,79.03l-11.15,10.54c-.57.54-1.3.82-2.04.84-.6.01-1.21-.14-1.74-.49-.92-.59-1.46-1.63-1.41-2.72l.17-3.97c0-.12,0-.24,0-.36-.03-1.12-.38-2.2-1.02-3.13-1.58-2.27-2.18-5.1-1.64-7.82l.07-.38c2.24.08,4.46.63,6.49,1.59.59.26,1.15.55,1.7.89.27.16.56.34.86.52,2.31,1.34,5.53,2.94,9.72,4.5Z"/>
  <path class="cls-2" d="m112.57,46.04c-1.21.08-2.44.19-3.69.32-1.65.17-3.29.4-4.93.66-1.52.25-3.03.52-4.49.81-1.06.21-2.09.44-3.11.67-2.8.64-5.41,1.32-7.71,1.97l-.76-.22c-1.16-.34-1.96-1.39-1.99-2.6-.03-1.1.59-2.11,1.59-2.58l1.77-.85c1.87-.88,3.42-2.35,4.39-4.17l1.42-5.36c.84-1.57,2.87-2.06,4.35-1.05l.79.43c4.5,2.46,8.34,5.98,11.2,10.24l1.16,1.73Z"/>
  <g>
    <line class="cls-1" x1="21.92" y1="50" x2="34.36" y2="55.12"/>
    <line class="cls-1" x1="22.76" y1="53.36" x2="33.1" y2="56.63"/>
    <line class="cls-1" x1="22.85" y1="56.55" x2="32.17" y2="58.4"/>
    <line class="cls-1" x1="23.52" y1="59.15" x2="31.92" y2="59.9"/>
    <line class="cls-1" x1="23.6" y1="62.1" x2="30.83" y2="62.26"/>
  </g>
  <g>
    <line class="cls-1" x1="21.96" y1="76.56" x2="34.4" y2="71.44"/>
    <line class="cls-1" x1="22.8" y1="73.2" x2="33.14" y2="69.92"/>
    <line class="cls-1" x1="22.89" y1="70.01" x2="32.21" y2="68.16"/>
    <line class="cls-1" x1="23.56" y1="67.4" x2="31.96" y2="66.66"/>
    <line class="cls-1" x1="23.64" y1="64.46" x2="30.87" y2="64.3"/>
  </g>
  <line class="cls-1" x1="21.24" y1="80.92" x2="35.64" y2="73.29"/>
  <g>
    <line class="cls-1" x1="100.06" y1="37.58" x2="109.22" y2="46.97"/>
    <line class="cls-1" x1="104.28" y1="47.52" x2="98.84" y2="40.82"/>
    <line class="cls-1" x1="99.77" y1="48.23" x2="97.65" y2="43.4"/>
    <line class="cls-1" x1="96.65" y1="48.83" x2="96.03" y2="46.15"/>
  </g>
  <g>
    <line class="cls-1" x1="138.68" y1="78.33" x2="144.39" y2="75.37"/>
    <line class="cls-1" x1="140.06" y1="74.48" x2="136.78" y2="76.3"/>
    <line class="cls-1" x1="134.68" y1="74.71" x2="136.39" y2="73.74"/>
  </g>
  <line class="cls-1" x1="96.88" y1="83.75" x2="95.98" y2="84.63"/>
  <g>
    <line class="cls-1" x1="95.97" y1="84.63" x2="89.56" y2="90.85"/>
    <line class="cls-1" x1="90.48" y1="87.04" x2="94.51" y2="83.52"/>
    <line class="cls-1" x1="89" y1="85.28" x2="92.49" y2="83.29"/>
  </g>
  <g>
    <line class="cls-1" x1="60.54" y1="84.88" x2="67.76" y2="77.19"/>
    <line class="cls-1" x1="60.43" y1="80.95" x2="65.05" y2="75.86"/>
    <line class="cls-1" x1="59.41" y1="77.62" x2="61.85" y2="74.05"/>
    <line class="cls-1" x1="58.28" y1="74.86" x2="59.33" y2="72.57"/>
  </g>
  <rect class="cls-4" x="-1469.31" y="-1054.38" width="3385.57" height="2571.67"/>
</svg>