<?xml version="1.0" encoding="UTF-8"?>
<svg id="Calque_1" data-name="Calque 1" xmlns="http://www.w3.org/2000/svg" viewBox="0 0 128 128">
  <defs>
    <style>
      .cls-1, .cls-2, .cls-3, .cls-4, .cls-5, .cls-6 {
        stroke: #000;
      }

      .cls-1, .cls-2, .cls-3, .cls-4, .cls-5, .cls-6, .cls-7 {
        stroke-linecap: round;
        stroke-linejoin: round;
      }

      .cls-1, .cls-3 {
        fill: #76ac75;
      }

      .cls-2, .cls-6, .cls-7 {
        fill: none;
      }

      .cls-3, .cls-4, .cls-5, .cls-6 {
        stroke-width: 2px;
      }

      .cls-4 {
        fill: #ff6d75;
      }

      .cls-5 {
        fill: #f3d587;
      }

      .cls-7 {
        stroke: #fff;
        stroke-width: 8px;
      }
    </style>
  </defs>
  <g>
    <g>
      <path class="cls-5" d="m24.28,63.3c2.63,7.94,5.94,12.97,8.87,17.35,3.98,5.93,6.49,7.99,9.29,9.23,2.92,1.27,5.67,1.42,6.76,1.43,4.22.09,7.29-1.35,7.98-1.69,1.95-.95,2.37-1.65,6.25-5.19,6.32-5.76,6.67-5.25,8.24-7.46,1.78-2.52,2.41-4.81,3.67-9.41,1.04-3.72,1.38-6.42,1.97-11.34.78-6.2,1.15-9.37.39-12.03-.09-.31-.19-.67-.31-1.07-.66-2.11-1.96-5.22-5.13-6.92-2.55-1.37-5.59-1.26-8.18-.39-1.03.36-1.98.82-2.8,1.37-2.92,1.93-2.49,1.83-3.66,3.09-2.11-1.67-2.46-2.72-6.75-2.72-2.52,0-3.27.31-5.41.82-.74-1.32-.88-2.68-3.3-5.19-.58-.59-1.25-1.05-1.96-1.41-2.14-1.1-4.55-1.24-5.08-1.29-3.81-.42-6.82,1.39-8.37,2.6-.47.35-.79.66-.99.84-3.28,3.11-3.84,7.11-4.29,10.62-.92,7.33.91,13.04,2.8,18.77Z"/>
      <path class="cls-5" d="m59.07,29.46c.82.21,1.66.65,2.49,1.55,1.29,1.4,2.09,3.37,2.53,4.79,2.59-.87,5.63-.98,8.18.39,3.16,1.7,4.47,4.81,5.13,6.92.36-1.07.59-2.28.59-3.6,0-2.91-.4-3.74-.85-5.27-.43-1.51-1.55-3.53-3.31-4.45-.06-2.49-1.36-5.73-3.36-7.19-2.52-1.84-6.34-1.18-6.97-1.07-.77.14-1.28.3-1.73.46h-.01c-.46,1.09-.82,1.87-.82,1.87-.24.51-.51,1.11-.77,1.97-.29.93-.17.97-.4,1.81-.22.82-.47,1.26-.71,1.82Z"/>
      <path class="cls-5" d="m26.76,33.07c1.55-1.21,4.56-3.02,8.37-2.6.53.05,2.95.2,5.08,1.29-.08-1.12-.4-2.33-.4-2.33,0,0,3.47,1.27,5.42.58,1.94-.69,4.18-2.83,4.18-2.83,0,0,.57.27,1.37.61.19-.9.02-1.6.55-2.91.48-1.22.77-.96,1.82-2.77.37-.62.75-1.24,1.04-1.87-.81-.45-1.07-.64-1.71-.65-1.53-.07-2.2.28-3.24,1.57-1.95-1.39-4.37-2.04-6.06-2.24-3.73-.4-4.33.2-6.28.91-4.84,1.76-6.1,5.22-7.33,7.18-.81,1.3-2.14,3.45-2.81,6.05Z"/>
    </g>
    <path class="cls-3" d="m40.21,31.77c.7.35,1.37.82,1.96,1.41,2.42,2.51,2.56,3.87,3.3,5.19,2.14-.52,2.9-.83,5.41-.82,4.29,0,4.64,1.06,6.75,2.72,1.17-1.27.73-1.16,3.66-3.09.82-.55,1.78-1.01,2.8-1.37-.44-1.42-1.24-3.39-2.53-4.79-.83-.9-1.67-1.34-2.49-1.55-.17.4-.36.85-.55,1.55-.09.36-.18.8-.16,1.34.02.28.05.77.31,1.3.38.78.87.89.84,1.24-.02.18-.17.46-1.63.93-1.46.47-1.78.36-3.13.73-1.39.4-1.63.69-2.2.52-.21-.06-.38-.16-1.49-1.37-1.11-1.2-1.2-1.39-1.59-1.54-.7-.25-.92.1-1.75-.14-.59-.19-1.44-.65-1.44-1.17,0-.55.97-.67,2.17-1.6.12-.1,1.22-.98,1.91-2.31.24-.44.36-.81.43-1.15-.81-.34-1.37-.61-1.37-.61,0,0-2.24,2.14-4.18,2.83-1.95.69-5.42-.58-5.42-.58,0,0,.31,1.21.4,2.33Z"/>
    <path class="cls-3" d="m54.37,12.45s2.73,2.57,4.87,2.48c2.14-.09,4.85-2.3,4.85-2.3,0,0-.28-.25-.74-.57-1.01-.72-2.87-1.84-4.4-1.72-1.48.12-3.02,1.02-3.88,1.61h-.01c-.36.25-.6.42-.66.48-.02-.01-.01,0-.02.02Z"/>
    <path class="cls-3" d="m46.27,32.86c0,.52.85.98,1.44,1.17.82.24,1.05-.11,1.75.14.39.15.48.33,1.59,1.54,1.11,1.2,1.28,1.31,1.49,1.37.57.18.82-.12,2.2-.52,1.35-.37,1.67-.26,3.13-.73,1.46-.47,1.61-.75,1.63-.93.04-.35-.46-.45-.84-1.24-.26-.53-.29-1.03-.31-1.3-.02-.54.07-.98.16-1.34.19-.7.38-1.15.55-1.55.24-.56.49-1,.71-1.82.23-.84.12-.89.4-1.81.26-.86.53-1.46.77-1.97,0,0,.36-.78.82-1.86h.01c.26-.64.57-1.36.84-2.09.58-1.5.85-2.43,1.03-3.26.28-1.26.65-3.54.44-4.01,0,0-2.71,2.22-4.85,2.3-2.14.09-4.87-2.48-4.87-2.48-.4.8.61,3.02.62,4.65,0,1.15-.32,2.18-.8,3.15-.3.63-.67,1.25-1.04,1.87-1.06,1.8-1.34,1.54-1.82,2.77-.52,1.31-.36,2.01-.55,2.91-.07.34-.19.71-.43,1.15-.69,1.33-1.79,2.21-1.91,2.31-1.2.93-2.16,1.05-2.17,1.6Z"/>
    <path class="cls-6" d="m40.63,45.39s-5.1,4.4-5.16,16.19,5.15,23.2,5.82,24.84,1.84,3.95,3.74,4.33"/>
    <path class="cls-6" d="m63.59,58.67s1.3,10.63-.56,16.34c-1.87,5.71-2.38,9.13-3.83,10.98-1.45,1.85-3.52,4.41-6.19,4.99"/>
    <path class="cls-2" d="m57.28,17.37s-.58,2.65-1.44,3.59c-.86.94-3.46,3.58-3.46,3.58"/>
    <path class="cls-2" d="m57.07,23.99s-1.2,2.49-2.83,3.84-4.94,2.59-4.94,2.59"/>
    <path class="cls-2" d="m59.99,26.59s-2.12,4.28-3.44,5.22c-1.32.94-1.97,1.32-1.97,1.32"/>
    <path class="cls-6" d="m59.56,43.17s-.67-1.28-1.67-2.56c-.58-.75-1.38-1.29-1.38-1.29"/>
  </g>
  <g>
    <path class="cls-4" d="m122.98,80.32c-.75,8.33-2.82,13.99-4.68,18.91-2.52,6.68-4.49,9.26-6.94,11.11-2.55,1.9-5.2,2.68-6.25,2.94-4.09,1.05-7.4.35-8.15.17-2.12-.48-2.68-1.07-7.27-3.63-7.46-4.16-7.69-3.59-9.72-5.39-2.3-2.05-3.44-4.13-5.72-8.33-1.86-3.39-2.81-5.94-4.51-10.59-2.18-5.86-3.26-8.86-3.13-11.63.01-.32.03-.69.06-1.11.16-2.2.72-5.53,3.41-7.91,2.18-1.92,5.16-2.51,7.88-2.25,1.08.12,2.12.35,3.04.69,3.28,1.21,2.84,1.21,4.26,2.18,1.67-2.1,1.77-3.21,5.95-4.19,2.45-.58,3.26-.45,5.46-.43.42-1.45.24-2.81,2.03-5.81.43-.71.98-1.31,1.58-1.81,1.83-1.56,4.15-2.25,4.65-2.42,3.62-1.28,6.96-.2,8.74.62.53.23.92.46,1.15.59,3.9,2.28,5.36,6.05,6.6,9.36,2.56,6.93,2.09,12.91,1.56,18.91Z"/>
    <path class="cls-4" d="m81.39,55.31c-.75.39-1.47,1.01-2.07,2.07-.94,1.66-1.27,3.76-1.37,5.24-2.72-.26-5.7.33-7.88,2.25-2.69,2.38-3.26,5.7-3.41,7.91-.59-.97-1.09-2.09-1.4-3.37-.66-2.84-.46-3.73-.37-5.33.07-1.57.71-3.79,2.2-5.09-.5-2.43.01-5.89,1.63-7.76,2.03-2.36,5.91-2.59,6.54-2.64.78-.04,1.31,0,1.79.06h.01c.69.95,1.22,1.63,1.22,1.63.35.45.75.97,1.2,1.74.49.84.39.91.81,1.67.4.75.75,1.12,1.11,1.61Z"/>
    <path class="cls-4" d="m113.67,51.45c-1.79-.82-5.13-1.9-8.74-.62-.5.17-2.82.86-4.65,2.42-.17-1.11-.14-2.36-.14-2.36,0,0-3.08,2.03-5.14,1.8-2.05-.23-4.71-1.8-4.71-1.8,0,0-.49.39-1.2.91-.39-.84-.39-1.56-1.2-2.71-.75-1.08-.97-.76-2.41-2.28-.5-.52-1.01-1.04-1.44-1.58.69-.62.89-.86,1.51-1.02,1.47-.42,2.2-.23,3.52.79,1.58-1.8,3.79-2.98,5.39-3.56,3.54-1.24,4.26-.79,6.32-.55,5.11.6,7.13,3.69,8.77,5.32,1.08,1.08,2.87,2.87,4.12,5.24Z"/>
  </g>
  <g>
    <path class="cls-3" d="m100.28,53.25c-.6.5-1.15,1.11-1.58,1.81-1.79,3-1.61,4.35-2.03,5.81-2.2-.01-3.01-.14-5.46.43-4.18.98-4.28,2.09-5.95,4.19-1.43-.97-.98-.97-4.26-2.18-.92-.35-1.96-.58-3.04-.69.1-1.48.43-3.59,1.37-5.24.6-1.07,1.33-1.69,2.07-2.07.26.35.55.75.89,1.38.17.33.36.73.46,1.27.04.27.13.76,0,1.34-.19.85-.65,1.07-.53,1.4.06.17.27.4,1.8.53,1.53.13,1.82-.06,3.21,0,1.44.07,1.74.3,2.26,0,.19-.1.33-.24,1.14-1.67.81-1.43.85-1.63,1.2-1.86.62-.4.92-.12,1.67-.53.53-.32,1.25-.97,1.14-1.47-.13-.53-1.09-.43-2.48-1.07-.14-.07-1.41-.68-2.39-1.82-.33-.37-.53-.71-.68-1.02.71-.52,1.2-.91,1.2-.91,0,0,2.67,1.57,4.71,1.8,2.06.23,5.14-1.8,5.14-1.8,0,0-.03,1.25.14,2.36Z"/>
    <path class="cls-3" d="m82.08,37.68s-2.07,3.13-4.18,3.53c-2.1.4-5.24-1.14-5.24-1.14,0,0,.22-.3.59-.72.82-.94,2.38-2.45,3.89-2.68,1.47-.22,3.17.3,4.15.68h.01c.4.16.68.27.75.32.01-.01.01,0,.03.01Z"/>
    <path class="cls-3" d="m94.63,55.7c.12.5-.6,1.15-1.14,1.47-.75.42-1.05.13-1.67.53-.35.23-.39.43-1.2,1.86-.81,1.43-.95,1.57-1.14,1.67-.52.3-.82.07-2.26,0-1.4-.06-1.69.13-3.21,0-1.53-.13-1.74-.36-1.8-.53-.12-.33.35-.55.53-1.4.13-.58.04-1.07,0-1.34-.1-.53-.29-.94-.46-1.27-.35-.63-.63-1.04-.89-1.38-.36-.49-.71-.86-1.11-1.61-.42-.76-.32-.84-.81-1.67-.45-.78-.85-1.3-1.2-1.74,0,0-.53-.68-1.22-1.63h-.01c-.4-.56-.86-1.2-1.3-1.84-.91-1.33-1.38-2.17-1.74-2.94-.56-1.17-1.44-3.3-1.34-3.8,0,0,3.14,1.54,5.24,1.14,2.1-.4,4.18-3.53,4.18-3.53.58.69.1,3.08.46,4.67.26,1.12.81,2.05,1.5,2.88.43.55.94,1.07,1.44,1.58,1.44,1.51,1.66,1.2,2.41,2.28.81,1.15.81,1.87,1.2,2.71.14.32.35.65.68,1.02.98,1.14,2.25,1.74,2.39,1.82,1.38.63,2.35.53,2.48,1.07Z"/>
  </g>
  <path class="cls-6" d="m102.97,66.61s5.96,3.12,8.72,14.59c2.75,11.47.28,23.77,0,25.51s-.89,4.27-2.65,5.07"/>
  <path class="cls-6" d="m83.65,84.78s1.16,10.64,4.28,15.78c3.12,5.14,4.4,8.35,6.24,9.82s4.43,3.49,7.17,3.44"/>
  <path class="cls-2" d="m80.65,43.11s1.17,2.45,2.22,3.17,4.18,2.69,4.18,2.69"/>
  <path class="cls-2" d="m82.08,49.53s1.74,2.15,3.63,3.09c1.89.94,5.4,1.39,5.4,1.39"/>
  <path class="cls-2" d="m79.84,52.72s3.04,3.68,4.54,4.29c1.5.61,2.22.83,2.22.83"/>
  <path class="cls-6" d="m70.71,57.65c-.29,0-1.52.24-2.33.54-1.35.5-2.16,1.78-2.16,1.78"/>
  <path class="cls-6" d="m84.04,68.77s.36-1.4,1.04-2.88c.4-.86,1.04-1.57,1.04-1.57"/>
  <path class="cls-3" d="m45.67,72.53c-.16.47-.59.52-1.3,1.01-1.54,1.09-1.37,2.31-2.35,2.53-.69.14-.79-.46-2.07-.73-1.44-.32-1.89.34-3.21.08-1.08-.21-.94-.67-2.49-1.42-2.09-1.01-3.32-.62-3.73-1.52-.34-.75.18-1.65.28-1.8.51-.88,1.39-1.12,1.66-1.19.97-.28,1.46.1,2.18.07.21.34.53.67.88.96.88.74,1.95,1.29,2.05,1.33.28.09,1.93.68,3.4-.35.75-.51,1.01-1.23,1.26-1.77.17-.37.36-.72.59-1.05.26.14.56.33.86.58.17.13.78.63,1.34,1.47.4.62.81,1.22.65,1.8Z"/>
  <g>
    <path class="cls-3" d="m56.37,101.51c-.37.95-.73,1.87-1.11,2.75-1.89,4.58-3.86,8.36-8.01,11.41-1.24.92-5.14,3.72-10.76,4.06-1.77.12-4.88.27-8.12-1.43-1.01-.52-3.18-1.83-5.6-5.49-.04-.06-.09-.13-.12-.19-5.39-8.3-4.8-17.56-4.38-23.85.26-4.09.84-6.12,1.97-8.01.73-1.22,3.47-5.3,8.34-6.04.16-.03.32-.04.46-.04,2.95-.33,5.33.71,6.02,1.02,3.26,1.54,2.68,1.61,4.84,3.33,1.11-.75,2.1-1.31,3.21-1.77,1.3-.55,2.77-.97,4.8-1.34,3.66-.68,7.81,1.54,9.77,4.62.69,1.08,1.28,2.55,1.43,5.92.26,6.02-1.21,11.18-2.74,15.04Z"/>
    <path class="cls-3" d="m42.34,58.84c-.69.6-1.41,1.27-2.18,1.97-1.56,1.43-2.87,2.77-3.82,4h-.01c-1.07.12-2.43.48-3.7.79-1.18.32-1.77.56-2.62.33-1.34-.37-1.73-1.51-2.48-1.34-.65.16-1.17,1.2-1.01,1.99.13.69.73.76,1.09,1.79.1.26.27.75.19,1.34-.14.98-.85,1.15-.88,1.84-.01.62.56.78,1.34,1.79.4.52.62.97.78,1.34-.14,0-.3.01-.46.04-4.87.73-7.61,4.81-8.34,6.04-1.14,1.89-1.71,3.92-1.97,8.01-.42,6.29-1.01,15.56,4.38,23.85-3.4.53-3.67.03-4.74-.26-3.83-1.05-6.01-4.13-7.82-6.71-4.57-6.47-5.1-13.24-5.42-17.91-.37-5.76.73-14.69,2.88-18.44.98-1.71,3.63-5.42,6.6-6.77,1.41-.65,1.04-1.5,1.63-2.33,1.12-1.56,2.82-2.59,3.57-2.75.56-.13,2.81-1.09,7.49.06.73.17,1.89,1.35,2.45,1.4,2.69.17,4.51-.65,7.49-.76.78-.04,3.01-.1,5.56.69Z"/>
    <path class="cls-3" d="m62.56,84.54c-.88,6.42-1.38,8.28-1.8,9.59-.52,1.71-.91,2.97-1.73,4.54-.82,1.61-1.99,3.86-3.77,5.59.37-.88.73-1.8,1.11-2.75,1.53-3.86,3-9.02,2.74-15.04-.14-3.37-.73-4.84-1.43-5.92-1.96-3.08-6.11-5.3-9.77-4.62-2.03.37-3.5.79-4.8,1.34.04-.3.14-.6.37-.92.49-.66,1.25-.98,1.43-1.07.86-.36,1.2-.1,2.18-.5.39-.16,1.28-.52,1.33-1.09.01-.13-.01-.26-.46-.88-.65-.92-1.07-1.34-.97-1.47.12-.16.66.25,1.01,0,.23-.16.29-.53.23-.79-.09-.39-.45-.65-1.05-.92-1.27-.55-1.7-.32-2.54-.63-.58-.23-.99-.59-1.33-.95.79-.95,1.92-1.94,3.56-3.38,1.69-1.48,2.13-1.93,2.71-2.36.84.27,1.38.39,2.65.99,2.09,1.01,3.4,2.06,5,3.34,2.49,1.97,2.81,2.77,2.94,3.13.32.94.69,1.63.66,2.59,1.47,1.04,2.09,2.62,2.23,3.08.48,1.67.55,1.5-.5,9.12Z"/>
  </g>
  <path class="cls-3" d="m62.74,60.73c-.52.98-1.53,1.32-2.22,1.56-.37.12-1.78.57-3.31,0-.54-.21-1.2-.45-1.63-1.11q-.46-.71-.66-1.55c-.9.06-2.31.67-2.6.85-1.62,1.06-2.24,1.43-2.73,1.81-.58.43-1.03.87-2.71,2.36-1.64,1.44-2.77,2.43-3.56,3.38-.19.22-.36.43-.5.65-.23.33-.42.68-.59,1.05-.25.54-.51,1.26-1.26,1.77-1.47,1.03-3.12.44-3.4.35-.1-.04-1.17-.59-2.05-1.33-.35-.29-.67-.62-.88-.96-.38-1.35.3-2.94,1.7-4.74h.01c.95-1.24,2.26-2.58,3.82-4,.76-.71,1.48-1.37,2.17-1.98h.02c1.83-1.6,3.57-2.82,5.99-3.79,1.34-.52,3.56-1.24,6.35-1.32,1.82-.06,3.53.17,5.16.88,1.28.56,1.86,1.14,2.22,1.62.57.8.73,1.59.8,1.99.15.75.32,1.64-.14,2.51Z"/>
  <path class="cls-1" d="m48.42,73.68c-.04.58-.94.94-1.32,1.09-.98.41-1.32.15-2.18.51-.17.08-.94.4-1.43,1.06-.23.32-.33.62-.37.93-1.11.46-2.1,1.02-3.21,1.77-.07-.05-.13-.1-.19-.15-.61-.5-.99-.85-1.31-1.14-.01-.01-.02-.01-.03-.02-.69-.63-1.18-1.01-3.31-2.02-.69-.32-3.07-1.35-6.02-1.02-.1-.23-.22-.49-.39-.77-.01-.02-.03-.05-.05-.07-.09-.16-.2-.32-.34-.5-.78-1.01-1.36-1.17-1.34-1.79.03-.69.73-.86.88-1.84.08-.59-.09-1.08-.19-1.34-.36-1.02-.97-1.1-1.09-1.79-.16-.79.36-1.83,1-1.99.75-.17,1.14.97,2.48,1.34.85.23,1.44,0,2.62-.33,1.27-.31,2.64-.67,3.71-.79-1.4,1.8-2.08,3.39-1.7,4.74-.72.03-1.21-.35-2.18-.07-.27.07-1.15.31-1.66,1.19-.1.15-.62,1.05-.28,1.8.41.9,1.64.51,3.73,1.52,1.55.75,1.41,1.21,2.49,1.42,1.32.26,1.77-.4,3.21-.08,1.28.27,1.38.87,2.07.73.98-.22.81-1.44,2.35-2.53.71-.49,1.14-.54,1.3-1.01.16-.58-.25-1.18-.65-1.8-.56-.84-1.17-1.34-1.34-1.47-.3-.25-.6-.44-.86-.58.14-.22.31-.43.5-.65.33.36.75.72,1.33.95.83.32,1.26.09,2.53.64.61.27.97.53,1.05.92.06.26,0,.63-.23.79-.34.25-.89-.16-1.01,0-.1.13.32.55.97,1.47.45.62.48.75.46.88Z"/>
  <path class="cls-6" d="m13.77,73.61s4.71-2.89,7.41-2.64c2.7.25,7.1,2.18,7.49,2.95"/>
  <path class="cls-6" d="m44.09,85.83s-.67-1.67-1.75-3.37c-.92-1.43-2.11-3.45-3.96-4.73"/>
  <path class="cls-6" d="m53.26,70.96s2.76-.58,4.15-.34c1.39.23,2.79.87,3.9,2.1"/>
  <path class="cls-6" d="m23.47,64.98s-1.21-2.07-3.27-2.7c-1.69-.51-4.52-.66-6.06.26"/>
  <path class="cls-2" d="m35.52,70.52c2.02-2.83,4.07-5.67,6.55-8.13,2.2-2.18,4.96-4.54,7.77-5.88"/>
  <path class="cls-6" d="m57.28,59.22s-3,.43-3.78.75"/>
  <path class="cls-2" d="m42.34,65.47c1.46-1.42,2.95-2.83,4.5-4.15,1.13-.96,2.42-1.74,3.64-2.59,1.35-.95,2.76-1.88,4.37-2.3.06-.02.13-.03.19-.05,1.17-.27,2.39-.26,3.57-.06,1.05.17,2.11.5,2.94,1.17.84.67,1.69,2.15,1.19,3.24"/>
  <rect class="cls-7" x="-87.49" y="-2285.27" width="3385.57" height="2571.67"/>
</svg>