<?xml version="1.0" encoding="UTF-8"?>
<svg id="Calque_1" data-name="Calque 1" xmlns="http://www.w3.org/2000/svg" viewBox="0 0 200 128">
  <defs>
    <style>
      .cls-1, .cls-2, .cls-3, .cls-4, .cls-5, .cls-6, .cls-7, .cls-8, .cls-9, .cls-10 {
        stroke: #000;
      }

      .cls-1, .cls-4, .cls-8, .cls-11, .cls-9 {
        fill: none;
      }

      .cls-1, .cls-11, .cls-10 {
        stroke-linejoin: round;
      }

      .cls-12 {
        fill: #eeefef;
      }

      .cls-13 {
        fill: #f5ec5b;
      }

      .cls-14, .cls-2, .cls-5, .cls-10 {
        fill: #fff;
      }

      .cls-15 {
        fill: #edd661;
      }

      .cls-16 {
        fill: #ff6d75;
      }

      .cls-17 {
        fill: #333;
      }

      .cls-18, .cls-6 {
        fill: #d6d6d6;
      }

      .cls-19, .cls-3, .cls-7 {
        fill: #435e7d;
      }

      .cls-20 {
        fill: #424243;
      }

      .cls-21 {
        fill: #87ccf3;
      }

      .cls-2 {
        stroke-width: 1.01px;
      }

      .cls-2, .cls-3, .cls-4, .cls-5, .cls-6, .cls-7, .cls-8, .cls-9 {
        stroke-miterlimit: 10;
      }

      .cls-3, .cls-11 {
        stroke-linecap: round;
      }

      .cls-4 {
        stroke-width: 1.03px;
      }

      .cls-8 {
        stroke-width: 2px;
      }

      .cls-11 {
        stroke: #fff;
        stroke-width: 8px;
      }

      .cls-22 {
        opacity: .48;
      }
    </style>
  </defs>
  <g>
    <rect class="cls-9" x="137.78" y="51.54" width="36.17" height="51.65"/>
    <polygon class="cls-15" points="92.75 29.15 99.55 25.58 99.55 25.58 106.34 29.15 106.34 29.15 105.04 21.59 105.04 21.59 110.54 16.23 110.54 16.23 102.94 15.13 102.94 15.13 99.55 8.24 99.55 8.24 96.15 15.13 96.15 15.13 88.55 16.23 88.55 16.23 94.05 21.59 94.05 21.59 92.75 29.15 92.75 29.15"/>
    <path class="cls-5" d="m138.06,23.37h-21.76v-1.17c0-9.29-7.55-16.84-16.84-16.84s-16.84,7.55-16.84,16.84v1.17h-21.48v31.24l76.93.64v-31.89Zm-42.01-8.17l3.4-6.88,3.4,6.88,7.6,1.1-5.5,5.36,1.3,7.57-6.8-3.57-6.8,3.57,1.3-7.57-5.5-5.36,7.6-1.1Z"/>
    <rect class="cls-19" x="137.7" y="59.6" width=".08" height="17.64"/>
    <path class="cls-14" d="m86.79,40.45h-.56v1.38h.56c.38,0,.69-.31.69-.68s-.31-.69-.69-.69Z"/>
    <path class="cls-14" d="m92.77,40.45c-1.15,0-2.08.93-2.08,2.07s.93,2.08,2.08,2.08,2.07-.93,2.07-2.08-.93-2.07-2.07-2.07Z"/>
    <rect class="cls-5" x="108.3" y="82.4" width="13.34" height="17.6"/>
    <rect class="cls-5" x="77.61" y="82.4" width="13.34" height="17.6"/>
    <rect class="cls-5" x="77.61" y="59.6" width="13.34" height="17.64"/>
    <rect class="cls-19" x="137.7" y="82.4" width=".08" height="17.6"/>
    <rect class="cls-5" x="108.3" y="59.6" width="13.34" height="17.64"/>
    <polygon class="cls-18" points="140.12 49.2 173.95 49.2 175.23 49.2 175.23 47.25 140.12 47.25 140.12 49.2"/>
    <rect class="cls-18" x="150.32" y="82.57" width="3.15" height="17.3"/>
    <rect class="cls-18" x="154.48" y="82.57" width="3.16" height="17.3"/>
    <rect class="cls-18" x="146.87" y="82.57" width="2.82" height="17.3"/>
    <rect class="cls-18" x="158.26" y="82.57" width="3.46" height="17.3"/>
    <rect class="cls-18" x="162.04" y="82.57" width="2.92" height="17.3"/>
    <rect x="144.7" y="79.08" width="22.34" height="1.49"/>
    <rect class="cls-5" x="60.87" y="59.44" width="14.74" height="17.97"/>
    <rect class="cls-5" x="92.96" y="59.44" width="13.34" height="17.97"/>
    <polyline class="cls-5" points="106.3 101.04 106.3 82.23 92.96 82.23 92.96 101.04"/>
    <polygon class="cls-5" points="123.65 77.41 137.7 77.41 137.7 77.24 137.7 59.6 137.7 59.44 123.65 59.44 123.65 77.41"/>
    <path class="cls-5" d="m137.7,82.23h-14.05v18.81s0,.09,0,.13h14.06v-18.94Z"/>
    <rect class="cls-13" x="60.81" y="56.28" width="77.3" height="1.49"/>
    <g class="cls-22">
      <path class="cls-20" d="m172.09,113.25h-3.18c-.7,0-1.27.57-1.27,1.27s.57,1.27,1.27,1.27h3.18c.7,0,1.27-.57,1.27-1.27s-.57-1.27-1.27-1.27Z"/>
    </g>
    <rect class="cls-17" x="108.3" y="59.44" width="13.34" height=".17"/>
    <rect class="cls-17" x="137.7" y="59.44" width=".08" height=".17"/>
    <rect class="cls-17" x="77.61" y="59.44" width="13.34" height=".17"/>
    <rect class="cls-17" x="61.14" y="54.45" width="76.64" height=".17"/>
    <rect class="cls-17" x="77.61" y="82.23" width="13.34" height=".17"/>
    <rect class="cls-17" x="137.7" y="82.23" width=".08" height=".17"/>
    <rect class="cls-17" x="108.3" y="82.23" width="13.34" height=".17"/>
    <rect class="cls-17" x="137.7" y="77.24" width=".08" height=".17"/>
    <rect class="cls-17" x="108.3" y="77.24" width="13.34" height=".17"/>
    <rect class="cls-17" x="77.61" y="77.24" width="13.34" height=".17"/>
    <rect class="cls-17" x="154.48" y="82.23" width="2.78" height=".33"/>
    <rect class="cls-17" x="158.26" y="82.23" width="2.78" height=".33"/>
    <rect class="cls-17" x="150.69" y="82.23" width="2.78" height=".33"/>
    <line class="cls-9" x1="90.95" y1="100" x2="77.61" y2="100"/>
    <line class="cls-9" x1="106.31" y1="100.89" x2="92.95" y2="100.89"/>
    <path class="cls-9" d="m75.62,100.89h-14.47v1.45h76.64v-2.34h-.08v1.17h-14.06c-.07.49-.48.87-.99.87-.55,0-1-.45-1-1v-1.04h-13.34"/>
    <path class="cls-5" d="m177.57,44.91h-39.79v6.62h39.79v-6.62Zm-2.34,4.29h-35.12v-1.95h35.12v1.95Z"/>
    <polygon class="cls-18" points="24.33 49.2 58.17 49.2 59.45 49.2 59.45 47.25 24.33 47.25 24.33 49.2"/>
    <path class="cls-5" d="m62.04,44.91H22.25v6.62h39.79v-6.62Zm-2.34,4.29H24.58v-1.95h35.12v1.95Z"/>
    <path class="cls-9" d="m166.86,82.15h1.01c.46,0,.83-.37.83-.83v-3.15c0-.46-.37-.83-.83-.83h-24.01c-.46,0-.83.37-.83.83v3.15c0,.46.37.83.83.83h22.99Z"/>
    <polygon class="cls-5" points="75.61 77.41 77.61 77.41 77.61 77.24 77.61 59.6 77.61 59.44 75.61 59.44 75.61 77.41"/>
    <polygon class="cls-5" points="90.95 77.24 90.95 77.41 92.96 77.41 92.96 59.44 90.95 59.44 90.95 59.6 90.95 77.24"/>
    <polygon class="cls-5" points="106.3 77.41 108.3 77.41 108.3 77.24 108.3 59.6 108.3 59.44 106.3 59.44 106.3 77.41"/>
    <polygon class="cls-5" points="121.64 77.24 121.64 77.41 123.65 77.41 123.65 59.44 121.64 59.44 121.64 59.6 121.64 77.24"/>
    <path class="cls-2" d="m77.61,82.23h-2v19.1s0,.09,0,.13c.07.5.48.88.99.88.55,0,1-.46,1-1.02v-19.1Z"/>
    <path class="cls-2" d="m92.96,82.23h-2v19.1c0,.56.45,1.02,1,1.02.51,0,.93-.38.99-.88,0-.04,0-.09,0-.13v-19.1Z"/>
    <path class="cls-2" d="m108.3,82.23h-2v19.1s0,.09,0,.13c.07.5.48.88.99.88.55,0,1-.46,1-1.02v-19.1Z"/>
    <path class="cls-2" d="m123.65,82.23h-2v19.1c0,.56.45,1.02,1,1.02.51,0,.93-.38.99-.88,0-.04,0-.09,0-.13v-19.1Z"/>
    <polygon class="cls-5" points="25.31 51.54 25.31 102.34 30.38 102.34 61.49 102.34 61.49 51.54 25.31 51.54"/>
    <rect x="32.23" y="79.08" width="22.34" height="1.49"/>
    <rect class="cls-17" x="42.01" y="82.23" width="2.78" height=".33"/>
    <rect class="cls-17" x="38.23" y="82.23" width="2.78" height=".33"/>
    <rect class="cls-17" x="45.79" y="82.23" width="2.78" height=".33"/>
    <path class="cls-9" d="m54.39,82.15h1.01c.46,0,.83-.37.83-.83v-3.15c0-.46-.37-.83-.83-.83h-24.01c-.46,0-.83.37-.83.83v3.15c0,.46.37.83.83.83h1.01s21.98,0,21.98,0Z"/>
    <line class="cls-8" x1="165.74" y1="82.21" x2="165.74" y2="101.08"/>
    <line class="cls-8" x1="146.06" y1="82.21" x2="146.06" y2="100.51"/>
    <line class="cls-9" x1="150" y1="82.07" x2="150" y2="96.15"/>
    <line class="cls-9" x1="153.93" y1="82.07" x2="153.93" y2="96.15"/>
    <line class="cls-9" x1="157.87" y1="82.07" x2="157.87" y2="96.15"/>
    <line class="cls-9" x1="161.8" y1="82.07" x2="161.8" y2="96.15"/>
    <path class="cls-5" d="m176.97,116.9h-69.85c-.43,0-.78-.35-.78-.78v-7.8c0-1.99,1.5-3.65,3.48-3.85l10.24-1.02,6.57-10.18s.03-.04.04-.06c1.65-2.13,4.05-3.35,6.58-3.35h21.32c2.53,0,4.93,1.22,6.58,3.35.01.02.02.03.03.05l6.54,9.92h5.82c2.31,0,4.2,1.88,4.2,4.2v8.73c0,.43-.35.78-.78.78Z"/>
    <g>
      <path class="cls-12" d="m118.87,116.12c0,1.27,1.03,2.3,2.3,2.3s2.3-1.03,2.3-2.3-1.03-2.3-2.3-2.3-2.3,1.03-2.3,2.3Z"/>
      <path class="cls-20" d="m121.16,119.19c-1.69,0-3.07-1.38-3.07-3.07s1.38-3.07,3.07-3.07,3.07,1.38,3.07,3.07-1.38,3.07-3.07,3.07Zm0-4.59c-.84,0-1.52.68-1.52,1.52s.68,1.52,1.52,1.52,1.52-.68,1.52-1.52-.68-1.52-1.52-1.52Z"/>
    </g>
    <path d="m86.76,39.06h-1.91v6.92h1.38v-2.76h.57c1.36,0,2.41-1.32,1.96-2.74-.27-.86-1.1-1.41-2-1.41Zm.03,2.76h-.56v-1.38h.56c.38,0,.69.31.69.69s-.31.68-.69.68Z"/>
    <path d="m93.69,39.18c-2.61-.68-4.93,1.64-4.26,4.26.31,1.18,1.24,2.12,2.42,2.42,2.61.68,4.93-1.65,4.26-4.26-.31-1.18-1.24-2.12-2.42-2.42Zm-1.61,5.31c-.6-.2-1.07-.67-1.27-1.27-.55-1.66.97-3.19,2.65-2.66.61.19,1.09.68,1.28,1.28.53,1.68-1,3.2-2.66,2.65Z"/>
    <polygon points="98.25 39.06 96.87 39.06 96.87 39.06 96.87 45.98 96.87 45.98 100.77 45.98 100.77 45.98 100.77 44.59 100.77 44.59 98.25 44.59 98.25 44.59 98.25 39.06 98.25 39.06"/>
    <polygon points="101.4 45.98 102.78 45.98 102.78 45.98 102.78 39.06 102.78 39.06 101.4 39.06 101.4 39.06 101.4 45.98 101.4 45.98"/>
    <path d="m106.88,40.45c.54,0,1.04.21,1.41.56h0l.98-.99h0c-.79-.75-1.93-1.14-3.14-.88-1.28.28-2.31,1.29-2.61,2.57-.51,2.26,1.2,4.27,3.37,4.27.92,0,1.76-.36,2.38-.96h0l-.98-.98h0c-.59.55-1.54.76-2.43.28-.46-.25-.81-.67-.96-1.17-.43-1.41.63-2.71,1.98-2.71Z"/>
    <polygon points="109.9 45.98 114.07 45.98 114.07 45.98 114.07 44.59 114.07 44.59 111.28 44.59 111.28 44.59 111.28 43.22 111.28 43.22 114.07 43.22 114.07 43.22 114.07 41.83 114.07 41.83 111.28 41.83 111.28 41.83 111.28 40.45 111.28 40.45 114.07 40.45 114.07 40.45 114.07 39.06 114.07 39.06 109.9 39.06 109.9 39.06 109.9 45.98 109.9 45.98"/>
    <path class="cls-5" d="m59.14,54.61v4.82h80.64v-4.82H59.14Z"/>
    <path class="cls-5" d="m123.65,77.41H59.14v4.82h80.64v-4.82h-16.14Z"/>
    <circle class="cls-6" cx="164.61" cy="116.21" r="6.69"/>
    <line class="cls-3" x1="138.88" y1="106.81" x2="141.48" y2="106.81"/>
    <line class="cls-3" x1="158.11" y1="106.81" x2="160.72" y2="106.81"/>
    <line class="cls-7" x1="162.71" y1="104.05" x2="162.71" y2="109.81"/>
    <line class="cls-7" x1="125.41" y1="104.33" x2="125.41" y2="110.94"/>
    <circle class="cls-6" cx="121.11" cy="116.21" r="6.69"/>
    <circle class="cls-5" cx="121.13" cy="116.11" r="2.29"/>
    <circle class="cls-5" cx="164.62" cy="116.11" r="2.29"/>
    <path class="cls-10" d="m163.28,104.05h-38.42s4.43-6.51,5.45-8.1,2.55-2.47,5.37-2.52c2.39-.04,15.09-.09,16.87,0,2.14.11,3.33.53,4.46,1.87,1.13,1.34,6.27,8.74,6.27,8.74Z"/>
    <line class="cls-7" x1="143.98" y1="93.12" x2="143.98" y2="116.9"/>
    <path class="cls-18" d="m176.6,109.32h-3.87c-.55,0-1-.45-1-1s.45-1,1-1h3.87c.55,0,1,.45,1,1s-.45,1-1,1Z"/>
    <path class="cls-16" d="m176.6,112.42h-3.87c-.55,0-1-.45-1-1s.45-1,1-1h3.87c.55,0,1,.45,1,1s-.45,1-1,1Z"/>
    <path class="cls-18" d="m111.35,109.32h-3.87c-.55,0-1-.45-1-1s.45-1,1-1h3.87c.55,0,1,.45,1,1s-.45,1-1,1Z"/>
    <path class="cls-16" d="m111.35,112.42h-3.87c-.55,0-1-.45-1-1s.45-1,1-1h3.87c.55,0,1,.45,1,1s-.45,1-1,1Z"/>
    <rect class="cls-18" x="37.87" y="82.6" width="3.15" height="19.73"/>
    <rect class="cls-18" x="42.03" y="82.6" width="3.16" height="19.73"/>
    <rect class="cls-18" x="34.43" y="82.6" width="2.82" height="19.73"/>
    <rect class="cls-18" x="45.81" y="82.6" width="3.46" height="19.73"/>
    <rect class="cls-18" x="49.6" y="82.6" width="2.92" height="19.73"/>
    <line class="cls-8" x1="53.29" y1="82.22" x2="53.29" y2="102.23"/>
    <line class="cls-8" x1="33.62" y1="82.22" x2="33.62" y2="102.19"/>
    <line class="cls-4" x1="37.55" y1="82.07" x2="37.55" y2="102.39"/>
    <line class="cls-4" x1="41.49" y1="82.07" x2="41.49" y2="102.39"/>
    <line class="cls-4" x1="45.42" y1="82.07" x2="45.42" y2="102.39"/>
    <line class="cls-4" x1="49.36" y1="82.07" x2="49.36" y2="102.39"/>
    <rect class="cls-21" x="136.98" y="86.62" width="5.67" height="4.03"/>
    <rect class="cls-16" x="145.85" y="86.62" width="5.67" height="4.03"/>
    <rect class="cls-18" x="142.36" y="86.62" width="3.47" height="4.03"/>
    <rect class="cls-1" x="136.98" y="86.62" width="14.18" height="4.03"/>
    <line class="cls-5" x1="142.51" y1="86.72" x2="142.51" y2="90.45"/>
    <line class="cls-5" x1="145.81" y1="86.72" x2="145.81" y2="90.45"/>
    <polyline class="cls-5" points="25.31 102.34 30.38 102.34 61.49 102.34"/>
  </g>
  <rect class="cls-11" x="-192.95" y="-47.79" width="889.3" height="495.34"/>
</svg>