<?xml version="1.0" encoding="UTF-8"?>
<svg id="Calque_1" data-name="Calque 1" xmlns="http://www.w3.org/2000/svg" viewBox="0 0 200.13 128.13">
  <defs>
    <style>
      .cls-1 {
        fill: #fce9b9;
      }

      .cls-1, .cls-2, .cls-3 {
        stroke: #000;
      }

      .cls-1, .cls-2, .cls-3, .cls-4 {
        stroke-linecap: round;
        stroke-linejoin: round;
      }

      .cls-2, .cls-3, .cls-4 {
        fill: none;
      }

      .cls-5 {
        fill: #ff6d75;
      }

      .cls-3 {
        stroke-width: 2px;
      }

      .cls-4 {
        stroke: #fff;
        stroke-width: 8px;
      }
    </style>
  </defs>
  <polygon class="cls-3" points="176.4 77.27 71.07 73.89 71.07 50.48 176.4 47.1 176.4 77.27"/>
  <rect class="cls-3" x="176.4" y="47.1" width="9.26" height="30.17"/>
  <rect class="cls-3" x="64.78" y="50.48" width="6.29" height="23.42"/>
  <rect class="cls-3" x="52.67" y="57.04" width="12.11" height="10.29" transform="translate(117.45 124.37) rotate(180)"/>
  <line class="cls-2" x1="56.41" y1="57.04" x2="56.41" y2="67.33"/>
  <line class="cls-2" x1="60.59" y1="57.04" x2="60.59" y2="67.33"/>
  <g>
    <line class="cls-2" x1="177.29" y1="51.18" x2="185.66" y2="51.18"/>
    <line class="cls-2" x1="177.29" y1="54.84" x2="185.66" y2="54.84"/>
    <line class="cls-2" x1="177.29" y1="58.51" x2="185.66" y2="58.51"/>
    <line class="cls-2" x1="177.29" y1="62.18" x2="185.66" y2="62.18"/>
    <line class="cls-2" x1="177.29" y1="65.85" x2="185.66" y2="65.85"/>
    <line class="cls-2" x1="177.29" y1="69.52" x2="185.66" y2="69.52"/>
    <line class="cls-2" x1="177.29" y1="73.19" x2="185.66" y2="73.19"/>
  </g>
  <path class="cls-1" d="m52.1,57.43v9.9s-6.18,2.69-10.67,3.42c-4.49.74-8.61-2.8-11.42-3.17s-7.75,1.1-9.63,1.85c-1.87.75-4.61.4-4.61.4-.01,0-.04-.01-.03-.04,1.02-.33,1.82-2.78,1.82-5.77s-.79-5.4-1.79-5.77v-.05c3.11.47,5.28-.32,7.41-.92,2.78-.78,5.73-1.44,8.57-.6,1.63.48,3.09,1.4,4.68,1.95,2.96,1.03,6.13.68,9.1-.08.58-.15,5.43-.87,6.57-1.13Z"/>
  <path class="cls-1" d="m17.56,64.02c0,2.98-.8,5.43-1.82,5.77-.08.03-.16.04-.24.04-1.14,0-2.06-2.59-2.06-5.81s.92-5.82,2.06-5.82c.09,0,.17.01.27.05,1,.36,1.79,2.8,1.79,5.77Z"/>
  <g>
    <rect class="cls-5" x="153.94" y="53.52" width="6.06" height="17.33"/>
    <rect class="cls-5" x="153.95" y="53.52" width="6.05" height="17.33" transform="translate(94.79 219.16) rotate(-90)"/>
  </g>
  <rect class="cls-4" x="-3598.2" y="-2339.62" width="6467.34" height="6437.3"/>
</svg>