<?xml version="1.0" encoding="UTF-8"?>
<svg id="Calque_1" data-name="Calque 1" xmlns="http://www.w3.org/2000/svg" viewBox="0 0 128 128">
  <defs>
    <style>
      .cls-1, .cls-2, .cls-3, .cls-4, .cls-5, .cls-6, .cls-7 {
        stroke: #000;
      }

      .cls-1, .cls-2, .cls-3, .cls-4, .cls-5, .cls-6, .cls-7, .cls-8 {
        stroke-linecap: round;
        stroke-linejoin: round;
      }

      .cls-1, .cls-4 {
        fill: #76ac75;
      }

      .cls-2 {
        fill: #baa584;
      }

      .cls-3, .cls-7, .cls-8 {
        fill: none;
      }

      .cls-4, .cls-5, .cls-6, .cls-7 {
        stroke-width: 2px;
      }

      .cls-5 {
        fill: #ff6d75;
      }

      .cls-6 {
        fill: #fce9b9;
      }

      .cls-8 {
        stroke: #fff;
        stroke-width: 8px;
      }
    </style>
  </defs>
  <g>
    <path class="cls-5" d="m38.05,25.96c1.67.2,3.35.07,4.96-.41,4.42-1.34,9.82-3.9,17.23-2.33,9.27,1.97,14.09,12.35,12.42,20.32s-3.71,20.28-11.68,28.31c-7.97,8.03-23.91,5.69-27.81,5.47-3.89-.22-13.53-4.96-17.61-15.48-4.08-10.52-4.45-13.37-3.52-20.47s4.51-15.9,14.63-15.9c5.99,0,9.51.27,11.38.49Z"/>
    <path class="cls-7" d="m44.43,27.24s-2.93,1.6-3.52,2.52c-1.18-.85-1.7-1.49-3.01-1.59"/>
    <path class="cls-1" d="m40.77,24.59s2.85-.94,4.12-6.77c1.26-5.83.9-8.73.9-8.73,0,0-4.62,3.43-5.59,7.01-.47,1.74-.69,4.77-.69,4.77l1.26,3.71Z"/>
    <path class="cls-3" d="m40.96,21.18s.38-1.76,1.09-3.85,2.38-5.61,2.38-5.61"/>
    <line class="cls-3" x1="43.94" y1="16.45" x2="42.05" y2="17.33"/>
    <line class="cls-3" x1="43.56" y1="19.25" x2="41.16" y2="20.09"/>
    <line class="cls-3" x1="42.3" y1="14.36" x2="42.57" y2="15.95"/>
    <line class="cls-3" x1="41.42" y1="17.33" x2="41.42" y2="19.36"/>
    <path class="cls-2" d="m41.69,28.5s-.06-4.22-.53-5.78-2.96-5.34-3.51-5.81c-.55-.48-.22,3.08-.22,3.08,0,0,1.84,1.51,2.24,3.41.4,1.91.84,5.62.84,5.62l1.17-.52Z"/>
    <path class="cls-7" d="m83.69,63.19c0,.05,0,.1-.02.15.02-.13.04-.26.05-.41,0,.09-.02.17-.03.25Z"/>
    <path class="cls-6" d="m110.66,62.36c-.45-1-2.93-5.8-7.12-8.1-1.26-.69-2.68-1.16-4.24-1.23-1.22-.06-2.53.1-3.86.46-1.76.47-3.57,1.3-5.25,2.44-.31.22-.62.44-.92.68-.04.04-.08.06-.13.1-.08.06-.16.13-.24.2-.04.04-.08.07-.13.11-.05.04-.1.08-.15.13-.19.16-.38.33-.56.5-.11.1-.21.2-.31.29-.36.34-.71.71-1.04,1.09-.11.13-.22.26-.32.39-.13.15-.26.31-.37.47-.2.25-.4.52-.59.79-.07.1-.14.2-.21.32-.19.29-.37.58-.55.89-.1.16-.19.34-.28.5-.03.05-.05.1-.08.15-.11.2-.21.41-.31.63-.08.18-.17.35-.25.53-.05.13-.11.25-.15.36-.04.07-.06.14-.08.2-.02.05-.03.09-.06.13.01-.04.02-.08.03-.13.01-.06.04-.11.05-.17,0-.05.01-.1.03-.14,0-.05.02-.11.04-.15.01-.08.03-.16.04-.25.01-.06.02-.12.04-.18v-.04s.01-.05.01-.08c0-.01,0-.03,0-.06v-.02c.01-.08.03-.17.04-.25,0,0,0-.01,0-.02v-.06c.01-.08.01-.15.03-.22h0v-.04s0-.06,0-.1c0-.05.01-.1.01-.15h0s.01-.1.01-.15c0-.1.01-.2.02-.31.01-.08.01-.18.01-.27,0-.09.01-.18.01-.28.07-1.7-.04-3.78-.47-5.67-.18-.76-1.83-4.99-6.12-6.71-1.25-.5-2.51-.61-3.71-.48-2.45.25-4.59,1.46-5.75,2.11-9.86,5.5-11.99,18.64-12.45,21.5-2.07,12.84,1.64,28.3,7.85,29.48.22.05.46.07.7.08,2.43.1,5.89-1.32,8.22-3.33.23-.2.46-.4.66-.59,1.68-1.56,2.49-2.77,3.54-3.47.01.62.04,1.53.08,2.41.04,1.09.07,2.1.08,2.43.02.99.15,1.95.39,2.87.94,3.74,3.52,6.77,6.88,7.99,2.42.87,5.06-.07,7.4-1.43,1.57-.92,2.99-2.02,4.1-2.9,11.82-9.34,20.72-31.42,15.42-43.28Zm-31.88,11.48c-.06.13-.11.28-.16.43-.03.08-.06.17-.1.25-.04.09-.07.18-.11.27,0,.03-.02.06-.04.09-.04.09-.08.18-.12.27-.07.16-.14.32-.21.48h0c-.08.17-.15.33-.23.48-.25.48-.51.9-.76,1.14-.97.95-1.72,1.7-2.61.9-.9-.78.43-2.01,1.23-2.9.5-.55,1.72-1.35,2.58-1.87.05-.03.1-.06.15-.08.08-.05.17-.1.24-.14.06-.04.12-.07.17-.11.18-.1.3-.17.33-.18-.01.07-.14.46-.34.97Zm5.18,7.22c-1.19.13-1.19-1.67-1.31-2.87-.13-1.18.57-4.17.57-4.17,0,0,1.8,3.15,1.85,4.5.04,1.35.08,2.42-1.11,2.54Z"/>
    <path class="cls-7" d="m83.42,64.51s0,0,0,0c-.01.03-.03.07-.04.11"/>
    <path class="cls-7" d="m83.42,64.51s0,0,0,0"/>
    <g>
      <path class="cls-4" d="m116.07,78c-.23,2.81-1.29,13.86-10.03,22.39-3.65,3.57-7.22,5.3-8.57,5.9-1.51.68-3.94,1.61-6.33,2.25,1.57-.91,2.99-2.02,4.1-2.9,11.82-9.34,20.71-31.42,15.42-43.28-.45-1-2.93-5.8-7.13-8.1,3.84,1.54,8.94,6.13,11.31,11.83,1.83,4.4,1.52,8.25,1.23,11.91Z"/>
      <path class="cls-4" d="m95.43,53.48c-1.76.47-3.57,1.3-5.25,2.44.44-.8.81-1.45.95-1.67.25-.38.65-.9,1.05-1.43.19.04.39.08.6.11,1.06.21,1.94.38,2.64.54Z"/>
      <path class="cls-4" d="m89.66,52.44c-1.94,2.88-4.53,7.15-4.53,7.15l-1.28,1.77c.07-1.7-.04-3.78-.47-5.67-.18-.76-1.83-4.99-6.12-6.71-1.25-.5-2.51-.61-3.71-.48,1.99-.55,5.81.32,8.11,1.12,2.92,1.02,3.57,2.01,6.77,2.63.45.08.83.15,1.23.2Z"/>
      <path class="cls-4" d="m72.77,97.74c-.41,1.16-.79,2.44-.79,3.11,0,.57-.04,1.3-.09,1.97-1.43.21-2.65.06-3.39-.03-.27-.04-2.64-.32-4.61-1.13,2.43.1,5.89-1.32,8.22-3.33.23-.2.46-.4.66-.59Z"/>
    </g>
    <path class="cls-7" d="m76.87,101.98c-.27-.04-.57-.07-.9-.07"/>
    <path class="cls-2" d="m75.97,101.92c.17,1.3.32,2.37-.12,2.37s-1.93.14-2.99.25c-.58.06-1.07-.42-1.02-1,.02-.22.04-.47.06-.72.05-.67.09-1.39.09-1.97,0-.67.39-1.95.79-3.11,1.68-1.56,2.49-2.77,3.54-3.47.01.62.04,1.53.08,2.41-.36.97-.63,1.95-.65,2.64-.01.79.11,1.74.22,2.59Z"/>
    <path class="cls-2" d="m93.19,51.47c-.25.39-.62.88-.99,1.36-.4.53-.81,1.05-1.05,1.43-.15.22-.51.87-.95,1.67-.31.22-.62.44-.92.68-.04.04-.08.06-.13.1-.08.06-.16.13-.24.2-.04.04-.08.07-.13.11-.05.04-.1.08-.15.13-.19.16-.38.33-.56.5-.11.1-.21.2-.31.29-.36.34-.71.71-1.04,1.09-.11.13-.22.26-.32.39-.13.15-.26.31-.37.47-.2.25-.4.52-.59.79-.07.1-.14.2-.21.32-.19.29-.37.58-.55.89-.1.16-.19.34-.28.5-.03.05-.05.1-.08.15-.11.2-.21.41-.31.63-.08.18-.17.35-.25.53-.05.13-.11.25-.15.36-.04.07-.06.14-.08.2-.03.07-.06.13-.08.2,0-.02,0-.04.02-.06.01-.04.02-.08.03-.13.01-.06.04-.11.05-.17,0-.05.01-.1.03-.14,0-.05.02-.11.04-.15.01-.08.03-.16.04-.25.01-.06.02-.12.04-.18v-.04s.01-.05.01-.08c0-.01,0-.03,0-.06v-.02c.01-.08.03-.17.04-.25,0,0,0-.01,0-.02v-.06c.01-.08.01-.15.03-.22h0v-.04s0-.06,0-.1c0-.05.01-.1.01-.15h0s.01-.1.01-.15c0-.1.01-.2.02-.31.01-.08.01-.18.01-.27,0-.09.01-.18.01-.28l1.28-1.77s2.59-4.27,4.53-7.15c.58-.87,1.47-1.48,1.48-2.07.01-3.21,3.06-1.6,3.89,0,.29.57-1.72.9-1.84,1.09Z"/>
    <path class="cls-3" d="m83.73,62.93c-.01.14-.03.28-.05.41,0-.05.01-.1.02-.15.01-.08.02-.17.03-.25Z"/>
    <path class="cls-3" d="m84.31,69.8c.31.95.86,2.34,1.83,3.84,1.72,2.67,2.9,2.79,3.97,4.66,2.06,3.59.49,7.93.32,8.38-1.32,3.48-4.05,5.15-4.85,5.61"/>
    <path class="cls-3" d="m77.75,69.3c-.52.55-1.38,1.34-2.58,2.02-2.53,1.44-4.21,1.04-5.79,1.88-2.53,1.35-3.38,4.73-3.42,7.05-.03,1.85.52,3.31.91,4.12"/>
    <path class="cls-2" d="m83.96,81.05c-1.19.13-1.19-1.68-1.31-2.87-.12-1.18.57-4.17.57-4.17,0,0,1.8,3.15,1.84,4.5.04,1.35.08,2.42-1.11,2.54Z"/>
    <path class="cls-2" d="m79.12,72.85s-1.11,3.45-2.08,4.39c-.97.94-1.73,1.69-2.62.9-.9-.79.44-2.01,1.23-2.9.79-.89,3.47-2.39,3.47-2.39Z"/>
    <path class="cls-3" d="m80.13,77.54c-.92,1.58-1.95,3.77-2.62,6.5-.39,1.59-.58,3.04-.66,4.29"/>
  </g>
  <rect class="cls-8" x="-112.69" y="-1635.28" width="3385.57" height="2571.67"/>
</svg>