<?xml version="1.0" encoding="UTF-8"?>
<svg id="Calque_1" data-name="Calque 1" xmlns="http://www.w3.org/2000/svg" viewBox="0 0 128 128">
  <defs>
    <style>
      .cls-1 {
        stroke-miterlimit: 10;
      }

      .cls-1, .cls-2 {
        stroke: #000;
      }

      .cls-2 {
        fill: #fee4cb;
        stroke-width: 2px;
      }

      .cls-2, .cls-3 {
        stroke-linecap: round;
        stroke-linejoin: round;
      }

      .cls-3 {
        fill: none;
        stroke: #fff;
        stroke-width: 8px;
      }
    </style>
  </defs>
  <path class="cls-2" d="m65.23,23.37c-7.84-2.92-15.05-.03-15.71.25-7.11,2.97-10.23,8.93-11.04,10.55-2.12,4.21-.51,4.45-3.19,13.74-1.82,6.31-3,7.68-3.19,12.03-.09,2.04.14,2.46.98,9.08,1.31,10.23.84,13.97,1.47,16.67.87,3.69,2.22,9.48,7.12,13.99,6.64,6.11,15.3,5.73,17.18,5.65,2.27-.1,8.54.39,13.56-2.89,2.39-1.57,4.33-1.09,11.16-7.8,5.23-5.14,5.68-5.16,7.12-7.12,3.57-4.85,4.57-13.95,4.91-15.69,1.97-10.21-5.27-20.6-6.8-23.68-1.83-3.69-3.88-6.3-7.61-11.04-3.85-4.9-6.24-7.05-6.87-7.61-2.93-2.59-5.37-4.75-9.08-6.14Z"/>
  <circle class="cls-1" cx="49.34" cy="40.23" r=".42"/>
  <circle class="cls-1" cx="58.77" cy="32.06" r=".42"/>
  <circle class="cls-1" cx="62.48" cy="50.19" r=".42"/>
  <circle class="cls-1" cx="46.45" cy="59.24" r=".42"/>
  <circle class="cls-1" cx="51.93" cy="64.83" r=".42"/>
  <circle class="cls-1" cx="78.8" cy="58.16" r=".42"/>
  <circle class="cls-1" cx="68.06" cy="77.95" r=".42"/>
  <circle class="cls-1" cx="81.79" cy="80.36" r=".42"/>
  <circle class="cls-1" cx="52.6" cy="95.03" r=".42"/>
  <circle class="cls-1" cx="46.87" cy="78.37" r=".42"/>
  <rect class="cls-3" x="-993.28" y="-2285.27" width="3385.57" height="2571.67"/>
</svg>