<?xml version="1.0" encoding="UTF-8"?>
<svg xmlns="http://www.w3.org/2000/svg" viewBox="0 0 128 128">
  <defs>
    <style>
      .cls-1 {
        fill: #d6d6d6;
      }

      .cls-1, .cls-2, .cls-3, .cls-4, .cls-5, .cls-6, .cls-7, .cls-8, .cls-9 {
        stroke-linecap: round;
        stroke-linejoin: round;
      }

      .cls-1, .cls-2, .cls-3, .cls-4, .cls-5, .cls-6, .cls-7, .cls-9 {
        stroke: #000;
      }

      .cls-2 {
        fill: #87ccf3;
      }

      .cls-3 {
        fill: #ff6d75;
      }

      .cls-4 {
        fill: #f3d587;
      }

      .cls-5 {
        fill: #fee4cb;
      }

      .cls-6, .cls-7 {
        fill: #fff;
      }

      .cls-10 {
        fill: #fce9b9;
      }

      .cls-7 {
        mix-blend-mode: multiply;
      }

      .cls-8 {
        fill: none;
        stroke: #fff;
        stroke-width: 8px;
      }

      .cls-11 {
        isolation: isolate;
      }
    </style>
  </defs>
  <g class="cls-11">
    <g id="Calque_1" data-name="Calque 1">
      <g>
        <g>
          <path class="cls-4" d="m17.7,104.38c7.97,8.48,29.59,15.62,34.23.12,3.06-10.22-3.06-25.37,6.88-32.92.51-.39.84-.78.82-1.43-1.18-.67-2.43-.64-3.77-.32-4.74,1.12-8.69,4.7-11.83,8.27-1.12-2.32.54-4.93,1.89-7.12,2.69-4.37,4.37-9.55,3.67-14.64-.7-5.08-4.12-9.95-9.04-11.43,3.39,2.06,3.59,6.98,2.39,10.76-1.09,3.42-3.65,6.98-7.24,6.99-3.78.01-6.39-3.93-7.16-7.63-.77-3.7-.48-7.67-1.99-11.13-1.6-3.67-5.26-6.35-9.25-6.78,4.11,1.9,4.61,7.68,3.14,11.96-1.47,4.28-4.29,8.15-4.78,12.64-.47,4.35,1.33,8.65,3.69,12.33,1.43,2.23,11.2,12.28,5.66,14.36-2.99,1.12-6.14-4.8-7.36-6.76-1.47-2.36-2.95-4.61-4.35-7.01-.51-.87-1.81-2.92-2.5-3.67-.94-1.02-3.8-1.34-4.07-1.78,2.25,3.68,3.71,7.6,2.7,12-1.74,7.6,2.08,16.65,8.25,23.21Z"/>
          <path class="cls-10" d="m29.81,107.31c3.92,4.17,14.57,7.69,16.85.06,1.51-5.03-1.51-12.49,3.39-16.21.25-.19.41-.38.4-.7-.58-.33-1.2-.31-1.86-.16-2.33.55-4.28,2.31-5.82,4.07-.55-1.14.27-2.43.93-3.51,1.32-2.15,2.15-4.7,1.81-7.2-.34-2.5-2.03-4.9-4.45-5.62,1.67,1.02,1.77,3.44,1.18,5.3-.54,1.68-1.79,3.43-3.56,3.44-1.86,0-3.15-1.93-3.52-3.76-.38-1.82-.23-3.77-.98-5.48-.79-1.81-2.59-3.13-4.55-3.34,2.02.93,2.27,3.78,1.54,5.89-.73,2.11-2.11,4.01-2.35,6.22-.23,2.14.65,4.26,1.82,6.07.7,1.1,5.51,6.05,2.79,7.07-1.47.55-3.02-2.37-3.62-3.33-.72-1.16-1.31-2.4-2-3.58-.25-.43-.44-.98-.78-1.34-.46-.5-2.46-.99-2.6-1.21,1.11,1.81,1.83,3.74,1.33,5.91-.86,3.74,1.03,8.19,4.06,11.42Z"/>
        </g>
        <path class="cls-2" d="m59,25.33s-14.87-7.84-30.41-20.61c0,0,4.56,4.94,10.59,9.96.94.78-.02,2.27-1.12,1.74L19.82,7.64l13.17,7.83c.94.56.27,1.99-.76,1.64l-21.08-7.19s12.73,6.11,22.16,9.84c.84.33.51,1.59-.39,1.46l-21.77-3.12,22.2,5.09H9.28s25.4,2.22,25.4,2.22c.9.08.9,1.39,0,1.46-4.64.34-9.94.93-14.3,1.93,0,0,26.41-.7,37.51.82l1.11-4.29Z"/>
        <g>
          <path class="cls-3" d="m67.74,73.39c3.32.99,6.87.79,10.3.37,3.44-.43,6.87-1.09,10.33-.97,2.16.07,4.31.43,6.47.65l.05-.02c-1.04-2.16-2.22-4.25-3.39-6.35-1.33-2.42-2.65-4.85-3.67-7.4-1.59.14-3.18.27-4.76.39-1.58.11-3.18.22-4.76.33-3.3.21-6.63.39-9.91,0v.09c.29,4.33.03,8.69-.66,12.91Z"/>
          <path class="cls-3" d="m56.16,48.19c.31,1.18,1.09,2.3,2.22,2.77.6.25,1.25.31,1.9.33,1.91.02,3.83-.42,5.54-1.27h.03c.16,2.19.29,4.38.37,6.58.02.57.03,1.16.04,1.74.01.58.02,1.15.02,1.74.01,1.63-.01,3.26-.09,4.88-.11,2.28-.3,4.57-.87,6.78-.31,1.27-.76,2.53-.77,3.84.27.05.54.11.8.17,2.78.57,5.6,1.18,8.46,1.18,3.54,0,7.01-.9,10.52-1.3,1.23-.14,2.46-.22,3.69-.23.16-.01.31-.01.48-.01,2.54,0,5.09.26,7.57.78-.24-.59-.49-1.17-.76-1.75-.13-.29-.26-.59-.4-.88-.02-.03-.03-.08-.05-.11l-.05.02c-2.16-.22-4.31-.59-6.47-.65-3.46-.12-6.89.53-10.33.97-3.43.42-6.98.62-10.3-.37.69-4.22.95-8.58.65-12.91v-.09c3.29.39,6.62.21,9.92,0,1.58-.11,3.18-.22,4.76-.33,1.58-.12,3.17-.25,4.76-.39-.12-.28-.23-.56-.34-.85-.15-.4-.29-.8-.42-1.22l.07-.11c-.6-.33-1.15-.71-1.7-1.09-.02-.02-.05-.04-.09-.07-.14-.1-.29-.21-.45-.31-.52-.36-1.04-.73-1.55-1.1-.61-.42-1.2-.86-1.8-1.29-.81-.61-1.63-1.2-2.44-1.81-.6-.46-1.19-.9-1.79-1.36-.41-.31-.81-.63-1.22-.93-.18-.15-.37-.29-.55-.43-.16-.12-.31-.24-.48-.37-.59-.46-1.17-.91-1.75-1.38-1.38-1.1-2.75-2.2-4.1-3.32,1.45-2.57,2.97-5.11,4.52-7.48,2.32,1.45,4.59,2.99,6.79,4.62l.07-.08c0-1.96.18-3.93.52-5.85.17-.92.38-1.84.87-2.65.71-1.14,1.97-1.91,3.31-2,.39-.03.78,0,1.17.09v-.02c-.56-.55-.99-1.24-1.39-1.92-.48-.78-.94-1.56-1.27-2.39-1.09.1-2.15.38-3.2.66-2.7.73-5.41,1.44-8.11,2.22-.16.6-.16,1.24-.4,1.8-.25.58-.73,1.03-1.25,1.39l-12.24,5.76c-1.19,1.92-2.04,4.07-2.45,6.29-.23,1.22-.33,2.47-.01,3.67Z"/>
          <path class="cls-4" d="m66.22,56.59c.02.59.03,1.16.05,1.74.01.58.02,1.15.02,1.74.69.14,1.4.26,2.1.34,3.28.39,6.61.21,9.91,0,1.58-.11,3.18-.22,4.76-.33,1.58-.12,3.17-.25,4.76-.39-.12-.28-.23-.56-.34-.85-.15-.4-.29-.81-.42-1.22l.07-.11c-.6-.33-1.15-.71-1.7-1.09-.02-.02-.05-.04-.09-.07-2.07.21-4.16.34-6.23.42-3.59.15-7.18.13-10.76-.08-.64-.03-1.29-.08-1.93-.12h-.21Z"/>
          <path class="cls-4" d="m65.18,41.3c.23,2.9.48,5.8.68,8.71.16,2.19.28,4.39.36,6.58h.2c.65.04,1.29.08,1.94.12-.6-4.85-1.02-9.73-1.25-14.62l.02-.05c-.24-.13-.49-.24-.75-.35-.38-.16-.78-.28-1.16-.43v.04s-.04,0-.04,0Z"/>
          <path class="cls-4" d="m64.57,75.56c.27.05.54.11.8.17,2.78.57,5.6,1.18,8.46,1.18,3.54,0,7.01-.9,10.52-1.3,1.23-.14,2.46-.22,3.69-.23.16-.01.31-.01.48-.01,2.54,0,5.09.26,7.57.78-.24-.59-.49-1.17-.76-1.75-.13-.29-.26-.59-.4-.88-.02-.03-.03-.08-.05-.11l-.05.02c-2.16-.22-4.31-.59-6.47-.65-3.46-.12-6.89.53-10.33.97-3.43.42-6.98.62-10.3-.37.69-4.22.95-8.58.65-12.91v-.09c-.69-.08-1.4-.2-2.09-.34.01,1.63-.01,3.26-.09,4.88-.11,2.28-.3,4.57-.87,6.78-.31,1.27-.76,2.53-.77,3.84Z"/>
          <path class="cls-4" d="m74.21,28.79c-.56.16-1.13.32-1.69.48-.17.59-.16,1.23-.4,1.8-.25.58-.72,1.02-1.24,1.38.08.73.21,1.47.41,2.17.59-.5,1.15-1.02,1.69-1.58.33-.34.66-.69.85-1.12.19-.42.24-.88.29-1.34.06-.58.12-1.16.11-1.74l-.02-.05Z"/>
        </g>
        <path class="cls-1" d="m64.98,41.17c-.16.28-.33.56-.49.84-.05.08-.09.16-.17.21-.14.08-.32.01-.47-.06-1.11-.52-2.21-1.07-3.19-1.82-.97-.74-1.82-1.69-2.28-2.83-.03-.07-.06-.15-.05-.22,0-.1.07-.19.13-.27.4-.56.81-1.12,1.21-1.68.38-.52.76-1.05,1.01-1.65.25-.59.36-1.27.18-1.89l1.76-6.97c.02-.43.04-.87.2-1.27.16-.4.5-.76.92-.83.66-.11,1.22.49,1.53,1.08.29.56.48,1.17.65,1.77.28.99.51,1.99.7,3l-1.64,12.59h0Z"/>
        <path class="cls-3" d="m73.02,9.52c-.31-.1-.62-.19-.94-.25-1.07,1.81-2.01,3.75-2.79,5.76-.1-.08-.26-.13-.43-.17-.32-.07-.67-.08-.97.05-.3.13-.55.42-.56.75,0,.24.11.46.23.68,1.18.52,2.45,1.05,3.72,1.58.98.41,1.96.82,2.94,1.24.19-1.86.6-7.04.64-8.91-.42-.26-.89-.42-1.36-.57-.16-.05-.32-.11-.49-.16Z"/>
        <path class="cls-4" d="m73.02,9.52c.16.05.33.1.49.16.47.15.93.3,1.36.57-.04,1.87-.45,7.05-.64,8.91,5.07,2.14,10.1,4.39,14.8,7.24l.02-.03c.14-.22.27-.44.34-.7.07-.25.06-.53-.08-.74-.12-.17-.3-.28-.48-.39-.65-.39-1.27-.82-1.86-1.3l-9.24-5.38c.24-1.8.51-5.05.51-7.35,0-.48-.02-.92-.04-1.3-.02-.32-.06-.66-.28-.89-.15-.17-.37-.26-.58-.34-.51-.2-1.05-.4-1.6-.33-.32.04-.63.18-.92.34-.69.38-1.3.91-1.79,1.53Z"/>
        <path class="cls-3" d="m78.23,10.5c0,2.3-.27,5.55-.51,7.35l9.24,5.38c.04-1.41.34-2.83.47-4.28.13-1.45.08-2.94-.44-4.3-.7-1.84-2.22-3.29-3.99-4.15-.61-.3-1.27-.54-1.95-.58-.95-.06-1.88.26-2.78.58h-.04Z"/>
        <path class="cls-6" d="m70.82,20.54c-.1.74-.1,1.5-.02,2.24.08.77.25,1.53.49,2.26l.06-.02c1.38-.32,2.75-.69,4.11-1.1.46-.14.92-.28,1.32-.54.41-.26.76-.63.88-1.09.17-.65-.15-1.36-.66-1.8-.19-.16-.41-.29-.64-.4-.38-.18-.8-.27-1.22-.33-1.45-.2-2.97.08-4.26.77h-.07Z"/>
        <path class="cls-5" d="m74.23,19.16c-.84-.36-1.68-.71-2.52-1.06v.03c-.49.73-.76,1.56-.88,2.41h.07c1.29-.68,2.81-.96,4.26-.76.42.06.84.15,1.22.33v-.02c-.71-.31-1.43-.62-2.15-.92Z"/>
        <path class="cls-5" d="m71.3,25.04c.48,1.47,1.27,2.83,2.36,3.92l7.64-2.07c-1.03-1.5-1.54-3.35-1.31-5.15l.02-.04c-1.2-.55-2.41-1.09-3.62-1.61v.02c.22.1.44.23.63.4.52.44.84,1.15.66,1.8-.12.46-.47.84-.88,1.09-.4.25-.86.4-1.32.54-1.36.41-2.73.77-4.11,1.1l-.06.02Z"/>
        <path class="cls-3" d="m81.3,26.89c.24.36.52.7.83,1.02.3.31.63.6,1,.81.45.27.96.43,1.47.56.57.14,1.15.24,1.73.3.52.06,1.06.07,1.52-.18-.22-1.3-.37-2.6-.47-3.91l.02-.04c-2.4-1.37-4.88-2.6-7.39-3.75l-.02.04c-.22,1.8.28,3.65,1.31,5.15Z"/>
        <path class="cls-7" d="m81.32,34.36s-.88,4.05-.78,6.84l-6.79-4.62-.7,1.02s-1.1-.75-1.53-2.26l6.6,1.24,3.2-2.22Z"/>
        <path class="cls-9" d="m58.01,123.19s.04.06.06.09c6.5-.85,13.04-1.36,19.59-1.68-1.61-5.98-3.33-11.96-5.25-17.87l-.04-.22c-3.24.58-6.58.52-9.79,1.21v.04c1.26,3.02,2.41,6.08,3.45,9.18-3.05,1.4-5.75,3.72-7.56,6.6-.5.8-.93,1.86-.45,2.65Z"/>
        <g>
          <path class="cls-3" d="m70.37,92.26c1.45-.74,2.83-1.63,4.17-2.55,1.37-.93,2.72-1.89,4.03-2.91,1.32-1.03,2.59-2.11,3.79-3.29,2.37-2.34,4.41-5.05,5.7-8.12-1.23.01-2.47.09-3.69.23-3.52.4-6.99,1.31-10.53,1.3-2.86,0-5.69-.61-8.46-1.19v.02c-1.44,1.26-2.86,2.53-4.29,3.79-1.43,1.27-2.95,2.67-3.3,4.55-.21,1.1.01,2.23.23,3.33,1.17,5.83,2.34,11.67,3.96,17.43.2-.05.4-.1.6-.14,3.21-.69,6.55-.63,9.79-1.21.17-.02.34-.06.51-.09-.82-3.69-1.64-7.38-2.46-11.06l-.05-.1Z"/>
          <path class="cls-4" d="m59.62,80.93h0c3.19,4.48,7.96,7.56,12.85,10.07l.02.05c.7-.43,1.38-.88,2.05-1.34.45-.31.9-.62,1.35-.94v-.02c-5.45-1.87-10.32-5.36-13.82-9.92l-.08-.09c-.3.27-.6.53-.9.8-.5.44-1,.9-1.47,1.39Z"/>
        </g>
        <path class="cls-9" d="m97.64,102.54c3.67,3.05,7.35,6.11,11.03,9.17-1.65,1.05-3.54,2.01-5.09,3.41-1.55,1.4-2.73,3.31-2.88,5.39h.07c3.95,0,7.8-.27,11.63-.72,1.63-1.39,3.07-2.84,4.4-4.39.8-.92,1.56-1.88,2.31-2.84.72-.91,1.44-1.82,2.16-2.73-.84-1.25-2.07-2.27-3.3-3.28-4.45-3.67-8.9-7.35-13.35-11.03l-.1-.08c-2.17,2.47-4.47,4.83-6.87,7.1Z"/>
        <path class="cls-3" d="m78.57,86.8l.05.07c.62,1.21,1.27,2.41,1.96,3.58.33.58.68,1.15,1.03,1.71.6.97,1.24,1.94,2.07,2.73.92.87,2.04,1.49,3.15,2.1,3.52,1.93,7.03,3.85,10.55,5.78.09-.08.18-.16.26-.24,2.41-2.26,4.7-4.62,6.87-7.1.05-.05.1-.1.14-.16-4.11-2.59-7.95-5.48-11.43-8.74h0c-.25-.92-.76-1.83-1.22-2.68-.3-.55-.59-1.11-.86-1.68-1.05-2.15-1.91-4.4-2.58-6.7,0-.03-.02-.06-.03-.1h0s-.08-.01-.08-.01c-.13,0-.26,0-.39,0-1.29,3.07-3.33,5.78-5.7,8.12-1.19,1.18-2.46,2.27-3.79,3.29Z"/>
        <path class="cls-4" d="m80.6,90.31l-.08.04c.35.61.71,1.21,1.08,1.81.21.33.42.67.64.99,3.77-2.44,7.11-5.52,9.86-9.06h0c-.04-.08-.08-.16-.12-.24-.44-.8-.85-1.62-1.23-2.45h0l-.12.06c-2.93,3.38-6.32,6.36-10.04,8.85Z"/>
        <g>
          <path class="cls-9" d="m64.86,33.95s.38.13,1.02.36c.17.06.38.13.61.22.69.24,1.59.57,2.68.96.86.3,1.83.66,2.91,1.04.01,0,.04,0,.06.01.42.16.86.3,1.32.47h.01c.63.23,1.29.46,1.97.7.07.02.15.05.22.07,1.5.53,3.15,1.12,4.93,1.75.02.01.04.01.06.02,3.09,1.09,6.55,2.31,10.31,3.64-.13-1.76-.3-3.52-.51-5.28-3.35-1.18-6.43-2.27-9.2-3.24-.1-.04-.18-.06-.27-.1-2.74-.97-5.17-1.83-7.21-2.56-.66-.22-1.26-.44-1.83-.64-.45-.16-.87-.32-1.27-.46-.75-.27-1.42-.5-1.98-.7-.1-.04-.21-.06-.29-.1-1.09-.39-1.75-.63-1.89-.68-.02-.01-.04-.01-.04-.01l-.8,2.24h0s-.81,2.27-.81,2.27Z"/>
          <g>
            <path class="cls-9" d="m54.91,30.32c.78.26,2.01.72,3.44,1.28v-.03c.65-1.69,1.3-3.38,1.94-5.06.14-.38.29-.77.53-1.1l.04-.08c-1.33-.73-2.67-1.44-4.02-2.14-.82,2.3-1.5,4.7-1.94,7.14Z"/>
            <path class="cls-9" d="m58.36,31.58v.03c.79.31,1.65.65,2.54,1,.79-1.98,1.62-3.94,2.49-5.89-.84-.47-1.68-.93-2.52-1.39l-.04.08c-.24.33-.39.72-.53,1.1-.64,1.69-1.29,3.38-1.93,5.06Z"/>
            <path class="cls-9" d="m60.9,32.61c3.24,1.3,6.73,2.75,8.31,3.44l-.56-6.3c-1.74-1.03-3.49-2.04-5.26-3.02-.87,1.94-1.7,3.91-2.49,5.89Z"/>
          </g>
        </g>
        <path class="cls-3" d="m69.24,44.06c1.99,1.64,4.02,3.26,6.08,4.88.07.05.16.11.23.17.18.15.38.29.56.44.05.05.11.09.17.13.56.44,1.13.87,1.7,1.3.38.29.76.58,1.14.86.72.55,1.44,1.08,2.17,1.6.68.51,1.37,1.01,2.06,1.5.67.47,1.33.95,2,1.41.04.02.06.05.1.07.55.38,1.1.76,1.69,1.08.52.28,1.04.51,1.61.64.44.11.9.16,1.31,0,.74-.29,1.07-1.16,1.21-1.95.21-1.18.19-2.39.17-3.59-.06-3.14-.22-6.27-.49-9.4-.13-1.76-.3-3.52-.51-5.28-.05-.47-.1-.93-.16-1.41-.19-1.54-.44-3.15-1.42-4.36-.61-.73-1.47-1.24-2.39-1.44-.39-.08-.78-.12-1.16-.08-1.33.08-2.61.85-3.31,2-.35.57-.56,1.21-.72,1.88-.01.06-.02.11-.04.17-.04.19-.07.4-.11.59-.25,1.41-.42,2.85-.5,4.28-.02.52-.04,1.03-.04,1.55l-.06.08c-1.59-1.18-3.23-2.32-4.89-3.41-.63-.41-1.26-.81-1.89-1.21-.1.15-.19.3-.29.45-.13.19-.27.4-.39.59-.55.85-1.09,1.73-1.63,2.62-.36.59-.72,1.2-1.08,1.81-.29.51-.58,1.02-.87,1.53-.09.16-.18.33-.27.49Z"/>
        <path class="cls-4" d="m75.6,49.06l-.05.06c1.18.92,2.36,1.82,3.56,2.72,1.7-2.61,3.4-5.22,5.1-7.82-1.17-.94-2.35-1.86-3.56-2.75h0c-1.75,2.55-3.43,5.15-5.05,7.79Z"/>
        <path class="cls-1" d="m62.54,35.03h-.05c-.54.84-.48,1.93-.21,2.89.34,1.17,1,2.29,2.04,2.92.28.17.59.3.9.42.38.15.78.27,1.16.43.26.1.5.22.75.35.83.43,1.6.99,2.37,1.54,1.16-2.04,2.35-4.05,3.57-5.96l-.03-.02c-1.58-1.32-2.01-3.53-2.23-5.57-.09-.86-.19-1.79-.78-2.41-.27-.28-.69-.48-1.04-.32-.2.09-.34.27-.44.46-.67,1.22-.12,2.87-.85,4.06-1-.19-1.62-1.2-2.05-2.12-.16-.33-.31-.68-.58-.94-.26-.26-.66-.41-1-.28-.54.21-.63.93-.54,1.5h-.13c-.87.7-1.11,1.94-.88,3.05Z"/>
        <ellipse cx="72.4" cy="22.46" rx=".48" ry=".77"/>
        <path class="cls-2" d="m55.96,18.1s.12-5.28-1.47-3.88c-1.59,1.4,1.47,3.88,1.47,3.88Z"/>
        <path class="cls-2" d="m48.23,34.14c1.57,1.42,3.69-1.91,3.69-1.91,0,0-5.26.49-3.69,1.91"/>
        <path class="cls-2" d="m42.18,33.01c1.57,1.42,3.69-1.91,3.69-1.91,0,0-5.26.49-3.69,1.91"/>
      </g>
      <rect class="cls-8" x="-195.32" y="-282.18" width="889.3" height="495.34"/>
    </g>
  </g>
</svg>