<?xml version="1.0" encoding="UTF-8"?>
<svg id="Calque_1" data-name="Calque 1" xmlns="http://www.w3.org/2000/svg" viewBox="0 0 200 128">
  <defs>
    <style>
      .cls-1 {
        fill: #bfe6fc;
      }

      .cls-1, .cls-2 {
        stroke: #000;
      }

      .cls-1, .cls-2, .cls-3 {
        stroke-linecap: round;
        stroke-linejoin: round;
      }

      .cls-4 {
        fill: #f7c09e;
      }

      .cls-5 {
        fill: #f9c8aa;
      }

      .cls-6 {
        fill: #f28c4c;
      }

      .cls-7 {
        fill: #fee4cb;
      }

      .cls-8 {
        fill: #fff;
      }

      .cls-9 {
        fill: #ffd4ad;
      }

      .cls-10 {
        fill: #fcebe0;
      }

      .cls-11 {
        fill: #fce9b9;
      }

      .cls-12 {
        fill: #a07637;
      }

      .cls-13 {
        fill: #baa584;
      }

      .cls-2 {
        stroke-width: 2px;
      }

      .cls-2, .cls-3 {
        fill: none;
      }

      .cls-3 {
        stroke: #fff;
        stroke-width: 8px;
      }
    </style>
  </defs>
  <path class="cls-2" d="m154.16,11.01H47.51c-1.48,0-2.69,1.21-2.69,2.69v71.08s112.03,0,112.03,0V13.69c0-1.48-1.21-2.69-2.69-2.69Z"/>
  <rect class="cls-1" x="52.77" y="17" width="96.14" height="61.77"/>
  <path d="m101.31,14.67c0,.26-.21.48-.48.48s-.48-.21-.48-.48.21-.48.48-.48.48.21.48.48Z"/>
  <g>
    <rect x="90.65" y="108.9" width="20.63" height="4"/>
    <path class="cls-2" d="m111.28,110.06v1.26c0,.87-.52,1.58-1.15,1.58h-18.67c-.63,0-1.15-.71-1.15-1.58v-1.26H24.12l1.97,5.88h149.66l1.81-5.88h-66.27Z"/>
  </g>
  <polygon class="cls-2" points="24.12 110.31 177.56 110.31 156.85 84.77 44.82 84.77 24.12 110.31"/>
  <polygon class="cls-1" points="97.49 91.11 103.94 91.07 105.99 96.14 95.69 96.14 97.49 91.11"/>
  <polygon class="cls-1" points="85.48 98.81 116.42 98.78 118.46 103.84 83.68 103.84 85.48 98.81"/>
  <polygon class="cls-1" points="94.11 91.1 94.08 91.1 92.27 96.13 85.85 96.13 87.64 91.1 94.1 91.08 94.11 91.1"/>
  <polygon class="cls-1" points="84.21 91.1 84.17 91.1 82.37 96.13 75.94 96.13 77.74 91.1 84.2 91.08 84.21 91.1"/>
  <polygon class="cls-1" points="74.31 91.1 74.27 91.1 72.46 96.13 66.04 96.13 67.84 91.1 74.29 91.08 74.31 91.1"/>
  <polygon class="cls-1" points="64.4 91.1 64.37 91.1 62.56 96.13 56.14 96.13 57.93 91.1 64.39 91.08 64.4 91.1"/>
  <polygon class="cls-1" points="54.55 91.1 54.51 91.1 52.71 96.13 44.09 96.14 48.08 91.1 54.54 91.08 54.55 91.1"/>
  <polygon class="cls-1" points="107.54 91.1 107.57 91.1 109.38 96.13 115.8 96.13 114.01 91.1 107.55 91.08 107.54 91.1"/>
  <polygon class="cls-1" points="117.44 91.1 117.48 91.1 119.28 96.13 125.7 96.13 123.91 91.1 117.45 91.08 117.44 91.1"/>
  <polygon class="cls-1" points="127.34 91.1 127.38 91.1 129.19 96.13 135.61 96.13 133.81 91.1 127.36 91.08 127.34 91.1"/>
  <polygon class="cls-1" points="137.25 91.1 137.28 91.1 139.09 96.13 145.51 96.13 143.72 91.1 137.26 91.08 137.25 91.1"/>
  <polygon class="cls-1" points="147.1 91.1 147.13 91.1 148.94 96.13 157.56 96.14 153.57 91.1 147.11 91.08 147.1 91.1"/>
  <polygon class="cls-1" points="120.02 98.81 120.06 98.81 121.86 103.84 128.28 103.84 126.49 98.81 120.03 98.78 120.02 98.81"/>
  <polygon class="cls-1" points="129.92 98.81 129.96 98.81 131.77 103.84 138.19 103.84 136.39 98.81 129.94 98.78 129.92 98.81"/>
  <polygon class="cls-1" points="139.83 98.81 139.86 98.81 141.67 103.84 148.09 103.84 146.29 98.81 139.84 98.78 139.83 98.81"/>
  <polygon class="cls-1" points="149.68 98.81 149.71 98.81 151.52 103.84 163.75 103.84 159.76 98.81 149.69 98.78 149.68 98.81"/>
  <polygon class="cls-1" points="151.52 103.84 163.75 103.84 159.76 98.81 149.69 98.78 151.52 103.84"/>
  <polygon class="cls-1" points="50.36 103.83 38.14 103.84 42.13 98.8 52.2 98.78 50.36 103.83"/>
  <polygon class="cls-1" points="81.85 98.81 81.82 98.81 80.01 103.84 73.59 103.84 75.39 98.81 81.84 98.78 81.85 98.81"/>
  <polygon class="cls-1" points="71.95 98.81 71.91 98.81 70.11 103.84 63.69 103.84 65.48 98.81 71.94 98.78 71.95 98.81"/>
  <polygon class="cls-1" points="62.05 98.81 62.01 98.81 60.2 103.84 53.78 103.84 55.58 98.81 62.04 98.78 62.05 98.81"/>
  <g>
    <rect class="cls-13" x="77.79" y="17.84" width="7.52" height="7.52"/>
    <rect class="cls-13" x="122.89" y="17.84" width="7.52" height="7.52"/>
    <rect class="cls-12" x="107.86" y="17.84" width="7.52" height="7.52"/>
    <rect class="cls-12" x="100.34" y="17.84" width="7.52" height="7.52"/>
    <rect class="cls-11" x="70.27" y="25.36" width="7.52" height="7.52"/>
    <rect class="cls-7" x="77.79" y="25.36" width="7.52" height="7.52"/>
    <rect class="cls-10" x="122.89" y="25.36" width="7.52" height="7.52"/>
    <rect class="cls-10" x="115.37" y="25.36" width="7.52" height="7.52"/>
    <rect class="cls-4" x="107.86" y="25.36" width="7.52" height="7.52"/>
    <rect class="cls-12" x="100.34" y="25.36" width="7.52" height="7.52"/>
    <rect class="cls-10" x="92.82" y="25.36" width="7.52" height="7.52"/>
    <rect class="cls-11" x="92.82" y="32.87" width="7.52" height="7.52"/>
    <rect class="cls-11" x="100.34" y="32.87" width="7.52" height="7.52"/>
    <rect class="cls-11" x="107.86" y="32.87" width="7.52" height="7.52"/>
    <rect class="cls-7" x="115.37" y="32.87" width="7.52" height="7.52"/>
    <rect class="cls-11" x="122.89" y="32.87" width="7.52" height="7.52"/>
    <rect class="cls-12" x="77.79" y="32.87" width="7.52" height="7.52"/>
    <rect class="cls-9" x="70.27" y="32.87" width="7.52" height="7.52"/>
    <rect class="cls-10" x="85.31" y="32.87" width="7.52" height="7.52"/>
    <rect class="cls-10" x="115.37" y="40.39" width="7.52" height="7.52"/>
    <rect class="cls-5" x="107.86" y="40.39" width="7.52" height="7.52"/>
    <rect class="cls-12" x="100.34" y="40.39" width="7.52" height="7.52"/>
    <rect class="cls-4" x="85.31" y="70.46" width="7.52" height="7.52"/>
    <rect class="cls-9" x="92.82" y="40.39" width="7.52" height="7.52"/>
    <rect class="cls-7" x="85.31" y="40.39" width="7.52" height="7.52"/>
    <rect class="cls-12" x="77.79" y="40.39" width="7.52" height="7.52"/>
    <rect class="cls-12" x="70.27" y="40.39" width="7.52" height="7.52"/>
    <rect class="cls-12" x="122.89" y="47.91" width="7.52" height="7.52"/>
    <rect class="cls-12" x="115.37" y="47.91" width="7.52" height="7.52"/>
    <rect class="cls-12" x="100.34" y="70.46" width="7.52" height="7.52"/>
    <rect class="cls-11" x="107.86" y="47.91" width="7.52" height="7.52"/>
    <rect class="cls-10" x="100.34" y="47.91" width="7.52" height="7.52"/>
    <rect class="cls-11" x="92.82" y="47.91" width="7.52" height="7.52"/>
    <rect class="cls-6" x="85.31" y="47.91" width="7.52" height="7.52"/>
    <rect class="cls-7" x="77.79" y="47.91" width="7.52" height="7.52"/>
    <rect class="cls-11" x="70.27" y="47.91" width="7.52" height="7.52"/>
    <rect class="cls-9" x="70.27" y="55.42" width="7.52" height="7.52"/>
    <rect class="cls-12" x="77.79" y="55.42" width="7.52" height="7.52"/>
    <rect class="cls-4" x="85.31" y="55.42" width="7.52" height="7.52"/>
    <rect class="cls-11" x="92.82" y="55.42" width="7.52" height="7.52"/>
    <rect class="cls-9" x="100.34" y="55.42" width="7.52" height="7.52"/>
    <rect class="cls-7" x="107.86" y="55.42" width="7.52" height="7.52"/>
    <rect class="cls-12" x="115.37" y="55.42" width="7.52" height="7.52"/>
    <rect class="cls-9" x="122.89" y="55.42" width="7.52" height="7.52"/>
    <rect class="cls-5" x="77.79" y="62.94" width="7.52" height="7.52"/>
    <rect class="cls-12" x="85.31" y="62.94" width="7.52" height="7.52"/>
    <rect class="cls-10" x="92.82" y="62.94" width="7.52" height="7.52"/>
    <rect class="cls-13" x="100.34" y="62.94" width="7.52" height="7.52"/>
    <rect class="cls-13" x="115.37" y="62.94" width="7.52" height="7.52"/>
  </g>
  <rect x="63.97" y="40.82" width="70.71" height="14.18" transform="translate(-3.18 7.26) rotate(-4.12)"/>
  <g>
    <path class="cls-8" d="m87.6,50.79l-.09-1.2,3.11-.23-.24-3.14,1.22-.09.24,3.14,3.11-.23.09,1.2-3.11.23.24,3.13-1.22.09-.24-3.13-3.11.23Z"/>
    <path class="cls-8" d="m96.58,45.98l-.07-.99c.92-.16,1.56-.36,1.91-.6s.59-.76.71-1.57l1.01-.08.77,10.19-1.37.1-.55-7.24-2.41.18Z"/>
    <path class="cls-8" d="m104.8,46.62c-.4-.35-.63-.83-.68-1.44-.06-.76.17-1.44.68-2.03.51-.59,1.27-.92,2.29-1s1.77.13,2.36.6c.59.47.92,1.06.97,1.75.05.64-.08,1.17-.37,1.59-.16.24-.43.48-.79.72.44.16.79.36,1.05.6.49.44.76,1.04.82,1.81.07.9-.18,1.69-.73,2.36s-1.39,1.05-2.49,1.13c-1,.07-1.86-.13-2.59-.62s-1.13-1.25-1.21-2.28c-.05-.6.06-1.14.32-1.6.26-.46.67-.83,1.24-1.11-.37-.13-.66-.28-.88-.47Zm4.49,4.31c.37-.35.53-.85.48-1.48s-.29-1.15-.72-1.46-.96-.44-1.6-.4-1.1.26-1.46.64-.52.88-.47,1.5c.04.53.25.98.64,1.34s.95.51,1.69.46c.6-.04,1.08-.24,1.45-.59Zm-.62-5.04c.29-.34.43-.73.39-1.17-.03-.38-.21-.72-.54-1.02-.33-.3-.8-.42-1.43-.38s-1.05.24-1.3.58c-.25.34-.36.73-.33,1.15.04.48.24.85.62,1.09.38.25.81.35,1.29.31.57-.04,1-.23,1.29-.58Z"/>
  </g>
  <rect class="cls-3" x="-377.92" y="-5192.27" width="6467.34" height="6437.3"/>
</svg>