<?xml version="1.0" encoding="UTF-8"?><svg id="Calque_1" xmlns="http://www.w3.org/2000/svg" viewBox="0 0 128 128"><defs><style>.cls-1{fill:#87f3b9;}.cls-1,.cls-2,.cls-3,.cls-4,.cls-5{stroke-linecap:round;stroke-linejoin:round;}.cls-1,.cls-3,.cls-4,.cls-5{stroke:#000;}.cls-2{fill:none;stroke:#e30613;stroke-width:8px;}.cls-6,.cls-5{fill:#d6d6d6;}.cls-3{fill:#fff;}.cls-4{fill:#8987f3;}</style></defs><rect class="cls-2" x="-209.41" y="-462.51" width="2655.08" height="1511.77"/><path class="cls-5" d="m92.18,35.14s.51-1.38,2.38-.89c2.87.76,8.39,9.73,9.55,13.16,1.16,3.43-3.2,4.55-3.2,4.55l-8.73-16.82Z"/><path class="cls-4" d="m72.58,30.02c-1.75-1.88,1.36-4.82,4.72-3.95,30.6,7.88,26.63,37.22,25.6,41.35-3.08,12.31-15.85,14.62-19.08,11.85-3.23-2.77,14.47-21.7-11.23-49.25Z"/><path class="cls-5" d="m76.63,72.44c-.19-.02-.19.28,0,.3,3.71.34,7.51.7,11.18-.14,3.05-.7,5.95-2.23,7.81-4.81,1.82-2.53,2.51-5.72,2.6-8.8.04-1.42-.07-2.82-.29-4.23-.25-1.56-.61-3.11-1.06-4.63-.53-1.8-1.19-3.57-1.97-5.28-.85-1.88-1.85-3.69-3.01-5.4-1.22-1.81-2.62-3.51-4.19-5.03-1.67-1.62-3.53-3.04-5.54-4.2-2.19-1.26-4.55-2.21-6.99-2.85-.64-.17-1.29-.31-1.94-.44-.19-.04-.27.25-.08.29,2.52.48,4.99,1.28,7.29,2.42"/><path class="cls-3" d="m73.62,27.64c-9.73-2.66-21.1.28-26.94,9.14-7.23,10.94-4.04,26.46-5.62,38.78-1.5,11.71-7.81,21.63-.69,30.24,7.11,8.6,23.58,2.03,40.17-18.71,16.59-20.74,17.21-52.85-6.91-59.45Z"/><path class="cls-3" d="m83.07,67.12c2.05-9.9-2.62-21.44-12.08-25.79-4.3-1.97-9.38-2.03-13.21.99-3.45,2.73-5.27,7.2-5.5,11.52-.29,5.63,2.52,10.76,3.43,16.21.52,3.1.14,5.97-1.15,8.83-1.03,2.29-2.35,4.45-3.3,6.77-.52,1.27-1.43,3.62-.53,4.95.93,1.37,3.03.84,4.21.28,4.27-2.04,7.89-6.45,9.8-10.7,2.06-4.59,1.95-10.46-1.23-14.53-1.48-1.9-5.38-4.03-7.36-5.34m10.15-6.93c-2.52-3.87-6.34-6.68-10.79-7.93"/><path class="cls-3" d="m58.78,99.88c-.69,1.03-1.57,1.92-2.58,2.63-1.01.72-2.15,1.25-3.35,1.58-1.2.32-2.46.42-3.7.28-1.25-.14-2.47-.52-3.59-1.1-1.13-.58-2.15-1.36-2.99-2.31-.1-.12-.21-.24-.3-.36l-.21.21c.81,1.01,1.83,1.85,2.95,2.5,1.12.64,2.37,1.09,3.65,1.29,1.28.2,2.59.17,3.85-.12,1.23-.28,2.42-.78,3.48-1.47,1.07-.69,2.02-1.58,2.78-2.61.09-.12.18-.25.27-.38.11-.16-.15-.31-.26-.15Z"/><path class="cls-6" d="m56.23,74.14c-.24,0-.48-.18-.52-.42-.01-.09,0-.18.03-.26.02-.33.02-.67.02-1.01,0-.21.13-.41.33-.48.14-.05.22-.13.38-.3.08-.09.18-.19.28-.28,1.34-1.17,1.86-3.19,1.32-5.14-.68-2.46-2.67-4.39-4.32-5.79-.42-.36-.86-.71-1.29-1.07l-.25-.2c-1.58-1.28-3.21-2.6-4.52-4.25-1.53-1.92-2.68-4.07-3.41-6.41-.74-2.33-1.03-4.8-.84-7.12.2-2.51.92-4.83,2.13-6.92,1.2-2.07,2.88-3.91,5-5.48,1.94-1.44,4.16-2.56,6.61-3.32,2.49-.77,5.24-1.16,8.19-1.16h.51c2.75.05,5.63.42,8.81,1.14.22.05.38.24.39.46.01.22-.13.43-.34.5-.53.17-1.01.45-1.39.79-.09.08-.21.13-.33.13-.03,0-.07,0-.1,0-.21-.04-.42-.08-.63-.12-2.4-.45-4.72-.68-6.89-.68-.58,0-1.17.02-1.75.05-2.76.16-5.33.73-7.64,1.68-2.12.87-4.08,2.13-5.68,3.62-1.7,1.59-2.99,3.46-3.74,5.41-.78,2.02-1.08,4.12-.93,6.42.14,2.11.74,4.35,1.68,6.29,1,2.07,2.33,3.84,4.08,5.42.45.41.91.79,1.38,1.18l.88.71c1.38,1.12,2.82,2.27,4.01,3.66,1.44,1.67,3.09,4.27,2.8,7.23-.26,2.65-1.75,4.78-3.9,5.61-.09.07-.21.11-.33.11Z"/><path d="m65.35,25.03c.17,0,.34,0,.51,0,2.93.04,5.85.47,8.7,1.12-.61.2-1.15.52-1.57.89-.21-.04-.43-.09-.64-.13-2.3-.43-4.64-.69-6.98-.69-.59,0-1.19.02-1.78.05-2.67.15-5.33.7-7.81,1.72-2.1.87-4.16,2.15-5.83,3.72-1.67,1.57-3.06,3.5-3.86,5.6-.83,2.15-1.11,4.34-.96,6.63.15,2.19.77,4.49,1.73,6.48,1.04,2.16,2.43,3.97,4.2,5.57.45.41.92.8,1.4,1.19,1.67,1.37,3.41,2.67,4.83,4.31,1.62,1.88,2.93,4.3,2.68,6.85-.22,2.27-1.5,4.46-3.73,5.24.02-.39.03-.78.03-1.17.38-.14.52-.41.82-.67,1.59-1.39,2.01-3.68,1.47-5.65-.68-2.47-2.56-4.41-4.48-6.04-.43-.36-.86-.72-1.3-1.07-1.67-1.35-3.35-2.69-4.69-4.38-1.48-1.86-2.61-3.98-3.33-6.25-.7-2.23-1.01-4.6-.82-6.93.19-2.36.87-4.66,2.06-6.7,1.22-2.1,2.92-3.89,4.86-5.33,1.94-1.44,4.15-2.52,6.46-3.24,2.59-.8,5.32-1.14,8.03-1.14m-9.12,48.58c.05.02.02.03,0,.03s-.05,0,0-.03m9.12-49.58c-2.99,0-5.8.4-8.33,1.19-2.5.78-4.77,1.92-6.76,3.39-2.17,1.61-3.89,3.51-5.13,5.63-1.25,2.15-1.99,4.54-2.2,7.13-.19,2.39.1,4.92.86,7.31.76,2.39,1.93,4.6,3.5,6.57,1.35,1.69,3,3.04,4.6,4.34l.24.19c.43.35.86.7,1.28,1.06,1.6,1.36,3.52,3.22,4.16,5.54.49,1.77.03,3.59-1.16,4.63-.12.11-.22.21-.32.32-.12.13-.15.16-.18.17-.4.15-.67.53-.66.96,0,.3,0,.61-.01.9-.04.14-.06.29-.03.44.08.48.53.84,1.01.84.2,0,.4-.06.56-.17,2.31-.91,3.9-3.19,4.17-6.01.3-3.13-1.42-5.86-2.92-7.6-1.23-1.42-2.68-2.59-4.08-3.72-.29-.24-.58-.47-.88-.71-.56-.46-.98-.82-1.36-1.16-1.7-1.54-3-3.26-3.97-5.27-.91-1.89-1.49-4.06-1.63-6.11-.15-2.22.14-4.25.89-6.21.72-1.88,1.97-3.69,3.62-5.23,1.53-1.43,3.49-2.69,5.53-3.53,2.27-.94,4.79-1.49,7.48-1.65.56-.03,1.15-.05,1.73-.05,2.14,0,4.43.23,6.8.67.21.04.42.08.63.12.07.01.13.02.2.02.25,0,.48-.09.67-.26.33-.3.75-.53,1.21-.69.43-.14.71-.55.69-1-.02-.45-.34-.83-.78-.93-3.2-.73-6.12-1.11-8.91-1.15-.17,0-.35,0-.53,0h0Z"/><path class="cls-4" d="m59.09,73.88c.33-.91.39-1.9.16-2.84-.22-.95-.71-1.83-1.37-2.54-.74-.8-1.71-1.38-2.78-1.61-.04,0-.07,0-.1,0,.29,1.05.54,2.1.71,3.16.43,2.58.24,5-.58,7.39,1.81-.4,3.33-1.83,3.96-3.57Z"/><path class="cls-1" d="m95.14,17.03v-4.49c11.87-.36,21.31,9.58,20.87,20.84h-4.47c-.8-10.16-6.27-15.58-16.4-16.36Z"/><path class="cls-1" d="m95.18,26.46v-4.61c7.18-.27,11.8,4.21,11.54,11.54h-4.61c.14-4.71-2.17-7.06-6.94-6.93Z"/></svg>