<?xml version="1.0" encoding="UTF-8"?>
<svg id="Calque_1" data-name="Calque 1" xmlns="http://www.w3.org/2000/svg" viewBox="0 0 128 128">
  <defs>
    <style>
      .cls-1, .cls-2, .cls-3, .cls-4, .cls-5, .cls-6, .cls-7, .cls-8, .cls-9, .cls-10, .cls-11, .cls-12, .cls-13, .cls-14 {
        stroke: #000;
      }

      .cls-1, .cls-2, .cls-3, .cls-4, .cls-5, .cls-6, .cls-7, .cls-8, .cls-10, .cls-15, .cls-11, .cls-12, .cls-13, .cls-14 {
        stroke-linecap: round;
        stroke-linejoin: round;
      }

      .cls-1, .cls-12 {
        fill: #d6d6d6;
      }

      .cls-2 {
        fill: #87ccf3;
      }

      .cls-3, .cls-8 {
        fill: #baa584;
      }

      .cls-4 {
        fill: #b4eac3;
      }

      .cls-5, .cls-11, .cls-14 {
        fill: #fff;
      }

      .cls-6, .cls-7, .cls-10, .cls-15 {
        fill: none;
      }

      .cls-7, .cls-12, .cls-13, .cls-14 {
        stroke-width: .75px;
      }

      .cls-8 {
        stroke-width: .96px;
      }

      .cls-9 {
        fill: #a07637;
        stroke-miterlimit: 10;
      }

      .cls-10 {
        stroke-width: .5px;
      }

      .cls-15 {
        stroke: #fff;
        stroke-width: 8px;
      }

      .cls-11 {
        stroke-width: .85px;
      }

      .cls-13 {
        fill: #ff6d75;
      }
    </style>
  </defs>
  <path class="cls-9" d="m85.73,65.35c.13-.33-.03-.7-.35-.83l-5.01-2.03h0s-.31-.13-.31-.13c-.48-.19-1.02.04-1.22.52l-22.72,56.05,1.24.4,22.3-55.08c.13-.32.49-.47.81-.34l4.44,1.8c.33.13.7-.03.83-.35h0Z"/>
  <path class="cls-14" d="m85.08,59.74c-.72.6-1.27,1.18-1.53,1.77-.48,1.1-1.25,1.7-1.65,2.13-.9.95-1.4,2.19-2.24,1.9-.63-.22-1.63-1-.37-3.44.65-1.25,1.43-2,2.28-2.76.78-.7,1.48-1.36,2.1-1.96.01.07.04.13.08.2.03.06.06.12.09.18.32.62.67,1.23,1.08,1.81.05.07.11.13.17.18Z"/>
  <polygon class="cls-5" points="43.38 44.15 55.25 41.31 55.16 44.09 42.09 46.67 43.38 44.15"/>
  <g>
    <path class="cls-12" d="m62.63,37.96c-.02.12-.1.23-.24.33-.08.07-.19.13-.31.19,0,0,0,0,0,0-.02.01-.04.02-.07.03-.18.08-.4.16-.65.24-.44-.42-2.5-.74-4.96-.74-2.26,0-4.17.27-4.82.63-.03-.01-.07-.02-.1-.03h0s0,0,0,0c-.01,0-.03,0-.04-.01-.18-.06-.35-.12-.49-.19-.03-.01-.05-.02-.08-.04-.4-.19-.64-.39-.67-.61.57-.56,3.11-.99,6.16-.99,3.37,0,6.13.52,6.28,1.18Z"/>
    <path class="cls-12" d="m62.64,37.98s0,.06,0,.09c-.1,3.22-1.61,5.96-3.72,7.2-1.76.7-3.51.72-5.24-.08-1.99-1.26-3.37-3.87-3.48-6.93,0-.16,0-.32,0-.48,0,0,0,0,0,0,.04.21.28.42.67.61.03.01.05.03.08.04.15.06.31.13.49.19.01,0,.03,0,.04.01,0,0,0,0,0,0h0s.07.02.1.03c.03,0,.07.02.1.03.05.02.11.03.16.04.09.02.19.05.3.07h0s.1.02.15.04c.04,0,.08.02.12.03h0c.3.06.64.12.99.17h0c.55.08,1.15.14,1.78.17.04,0,.08,0,.13,0,.05,0,.09,0,.14,0,.11,0,.23.01.35.01h.05s.09,0,.14,0c.09,0,.17,0,.26,0h.08s.03,0,.03,0c.83.01,1.63-.01,2.35-.07.31-.02.61-.05.9-.09.21-.03.41-.06.6-.09.19-.03.38-.07.56-.11.09-.02.17-.04.25-.06.04,0,.09-.02.13-.03,0,0,.01,0,.02,0,.06-.02.12-.03.18-.05.25-.07.47-.15.65-.24.03-.01.05-.02.07-.03,0,0,0,0,0,0,.12-.06.22-.12.31-.19.13-.1.21-.22.24-.33,0,0,0,.01,0,.02Z"/>
    <path class="cls-13" d="m61.37,38.76c-.06.02-.11.03-.18.05,0,0,0,0-.02,0-.04,0-.08.02-.13.03-.08.02-.17.04-.25.05-.18.04-.37.07-.56.1-.19.03-.4.06-.61.08-.29.03-.59.06-.91.09-.72.06-1.51.09-2.34.09h-.12c-.09,0-.17,0-.26,0-.05,0-.09,0-.14,0h-.05c-.11,0-.23-.01-.35-.01-.05,0-.09,0-.14,0-.04,0-.09,0-.13,0-.63-.04-1.23-.1-1.78-.17h0c-.35-.05-.68-.11-.99-.17h0s-.08-.02-.12-.03c-.05-.01-.1-.02-.15-.04h0c-.1-.02-.2-.05-.3-.07-.06-.01-.11-.03-.16-.04-.04,0-.07-.02-.1-.03.64-.37,2.56-.63,4.82-.63,2.46,0,4.51.32,4.96.74Z"/>
    <path class="cls-10" d="m53.34,35.96c-.29-.25-.49-.61-.47-1,.03-.61.46-.87.81-1.29.12-.14.21-.31.24-.5.07-.46-.26-.91-.52-1.25"/>
    <path class="cls-10" d="m54.54,35.96c-.29-.25-.49-.61-.47-1,.03-.61.46-.87.81-1.29.12-.14.21-.31.24-.5.07-.46-.26-.91-.52-1.25"/>
    <path class="cls-10" d="m55.82,35.96c-.29-.25-.49-.61-.47-1,.03-.61.46-.87.81-1.29.12-.14.21-.31.24-.5.07-.46-.26-.91-.52-1.25"/>
    <g id="jkvMcz">
      <path class="cls-12" d="m53.31,38.53s0,0,0,0c-.12-.21-.15-.31-.18-.4-.23-.73-.57-1.41-.87-2.11-.26-.62-1.31-2.74-1.68-3.31-.07-.1-.15-.2-.24-.29-.18-.19-.31-.22-.53-.12-.21.1-.28.21-.24.47.03.2.1.4.17.59.44,1.11,1.83,3.64,2.43,4.67.1.17.19.34.29.51,0,.01.01.02.02.03"/>
    </g>
    <path class="cls-12" d="m52.49,38.55h.02c.33-.03.47-.03.8-.02h.01"/>
  </g>
  <path class="cls-1" d="m103.52,17.06s0,0,.01-.02h0c.06-.14.37-.83.58-1.78v-.03c.42-1.89.44-4.74-2.7-6.02,0,0-.19-1.04-1.52-.87,0,0-1.54-1.68-3.39-.3-1.29-.36-1.64.63-1.64.63-3.55.83-3.78,4.03-3.57,5.94,0,.04.01.07.01.1"/>
  <path class="cls-5" d="m81.71,117.35l.87-.64.65-5.59s4.95.79,4.95.86-.5,5.24-.5,5.24l.36,1.43-3.66.29-2.08-.5-.58-1.08Z"/>
  <polygon class="cls-5" points="106.75 118.75 106.97 113.33 101.29 113.26 102.34 118.51 104.2 120.27 106.75 118.75"/>
  <path class="cls-3" d="m100.27,122.34c.15-.46,1.67-3.16,2.04-3.84.74.32,1.47.5,2.28.5.74,0,1.57-.07,2.17-.52.38.53.84,1.26,1.19,1.86.32.54.76,1.1.99,1.7.23.61.13,1.31-.36,1.71-1.6,1.32-6.09,1.65-8.02.18-.58-.44-.39-1.27-.29-1.58Z"/>
  <path class="cls-3" d="m75.63,122.27c.92.16,1.91.09,2.84.09,2.66,0,5.33-.13,7.99-.26.42-.02.86-.04,1.25-.22.3-.14.57-.36.75-.64.11-.17.19-.37.21-.57,0-.07.01-.14,0-.21-.02-.28-.12-.56-.23-.82-.19-.49-.28-.84-.47-1.33-2.11,0-4.22-.39-6.26-.95-.2.1-.41.21-.61.31l-3.53,1.78c-.48.24-.96.48-1.43.72-.12.06-.23.12-.34.17-.34.17-.82.28-1.07.59-.06.07-.1.15-.13.25-.2.71.46,1,1.04,1.1Z"/>
  <path class="cls-2" d="m82.22,114.05s1.8.73,3.95,1.04c2.14.3,2.3.04,2.3.04l3.9-25.76s1.1-2.83,2.56-6.65c.11-.3.23-.6.35-.92.51-1.3,1.04-2.7,1.58-4.11-.06,4.17-.1,8.3-.15,12.3l4.39,26.37c1.71.61,1.83.58,3.66.58,1.7,0,1.69-.04,3.22-.65-.69-9.17-1.92-26.07-1.92-26.07,0,0,3.85-17.83,2.92-27.08-.45-4.46-2.44-8.11-3.8-10.54-.86.72-2.3,1.31-3.36,1.57-1.77.44-2.49.51-4.27.44-.28-.03-.57-.05-.83-.07-2.58-.29-4.23-.58-4.23-.58,0,0-3.58,7.94-5.02,12.7-1.43,4.73-3.73,23.17-3.73,23.17l-1.51,24.24Z"/>
  <path class="cls-5" d="m93.86,29.77c.25.11.52.2.78.26,2.2.52,4.7-.41,5.56-.77l-.26-3.74-.03-.42-5.78-1.12-.15,1.2-.49,4.07c.03.07.05.16.08.22.02.05.03.09.05.13,0,.02,0,.04.02.06h0l.22.1Z"/>
  <path class="cls-6" d="m97.83,9.09s0,1.08.39,1.81h0"/>
  <path class="cls-6" d="m99.92,11.35c.85-.49,1.43-1.74,1.43-1.74"/>
  <path class="cls-6" d="m102.62,21.25h0c.1-.02.8-.2,1.21-1.31.45-1.19.95-1.05,1-2.29.03-1.17-1.1-.66-1.23-.59"/>
  <path class="cls-6" d="m92.75,10.62s.83.5,1.76.67"/>
  <path class="cls-5" d="m101.69,11.88c-.53.03-1.15-.1-1.76-.53-.26.16-.53.23-.82.2-.41-.04-.68-.32-.87-.66-.01,0-.02.02-.03.02-.12.11-.85.76-1.77-.13-.48.57-1.23.63-1.92.5-.42.32-.98.29-.98.29-.03.05-.08.1-.1.15-1.71,2.41-1.87,4.04-1.89,4.22-.1-.43-.18-.84-.24-1.23.09.72.23,1.24.26,1.35h0s0,.03,0,.03h0c-.02.68-.03,2.45.25,4.28.24,1.52.69,3.09,1.53,4.09,1.93,2.35,3.18,2.39,3.37,2.38.19.04,1.51.24,3.79-1.79.98-.87,1.67-2.34,2.14-3.81.56-1.76.82-3.51.9-4.19h0c.02-.08.02-.16.02-.24-.02.07-.02-.46-.03-.74-.18-1.42-1.48-3.76-1.63-4.17l-.19-.04Z"/>
  <path class="cls-6" d="m103.51,16.08c.04.27.05.51.03.74"/>
  <path class="cls-6" d="m93.4,11.91s-1.82,2.65-1.82,4.19"/>
  <path class="cls-6" d="m103.57,16.77h0s0,.13-.03.26h0s0,.03,0,.03"/>
  <path class="cls-6" d="m91.56,16.1v-.02"/>
  <path class="cls-6" d="m91.57,15.8s0,.1-.01.26"/>
  <path class="cls-6" d="m91.82,20.37h0c-.1-.04-.76-.32-.99-1.48-.26-1.25-.78-1.19-.64-2.41.15-1.16,1.26-.47,1.38-.38"/>
  <path class="cls-6" d="m95.68,9.73c.23.43.46.75.68.97.03.03.04.06.07.07"/>
  <path class="cls-6" d="m98.2,10.91l.02-.02"/>
  <path class="cls-14" d="m96.97,15.94s-.41,3.67-1.21,5.51c0,0,.16.38,1.35.14"/>
  <ellipse class="cls-14" cx="99.43" cy="17.7" rx=".37" ry=".13" transform="translate(74.11 115.47) rotate(-85.58)"/>
  <ellipse class="cls-14" cx="94.38" cy="17.22" rx=".37" ry=".13" transform="translate(69.93 109.98) rotate(-85.58)"/>
  <line class="cls-5" x1="96.85" y1="77.68" x2="97.11" y2="66.4"/>
  <path class="cls-5" d="m108.8,45.61c-.84-.89-1.63-1.83-2.34-2.8-.04.42-.02,1.33.04,2.48.09,2.31.31,5.6.44,7.69-.5.72-.96,1.47-1.39,2.22-.27.47-.31,1.04-.09,1.54.03.07.06.14.09.21-.04.02-.07.03-.1.04-4.02,1.28-8.4,1.43-12.51.49-.83-.19-1.71-.46-2.22-1.18-.08-.12-.17-.25-.23-.39-1.07,1.34-2.2,2.64-3.41,3.87-1.03,1.04-2.63,1.27-3.93.58-.97-.52-1.52-1.5-1.52-2.51,0-.48.12-.97.38-1.42.72-1.24,1.47-2.4,2.31-3.59.46-.66,1.31-1.76,1.78-2.36.21-.26.31-.6.29-.94-.14-2.31-1.34-12.46,1.49-16.33.1-.13.17-.29.28-.41,1.21-1.23,3.63-2.7,5.15-3.31.1.07.21.12.31.18h0l.22.1c.25.11.52.2.78.26,2.2.52,4.7-.41,5.56-.77.2-.08.3-.14.3-.14,1.38.18,2.74.48,4.06.92,1.44.49,2.71,1.06,3.91,2.01,1.21.98,2.29,2.13,3.31,3.31.5.57.97,1.15,1.45,1.74.23.28.47.56.7.85"/>
  <path class="cls-5" d="m93.32,29.49c.1.07.21.12.31.18h0c.08.04.15.07.22.1.25.11.52.2.78.26l-.82-.34-.21-.08-.29-.12Z"/>
  <path class="cls-6" d="m88.9,42.85c.05,1.34.86,9.83,1.09,11.16.13.78.25,1.62.72,2.28.52.72,1.39.99,2.22,1.18"/>
  <path class="cls-14" d="m97.28,61.64s2.73-1.29,2.73-1.29c.4-.19.82-.35,1.21-.56.2-.1.39-.22.57-.36.16-.12.38-.29.08-.33-.2-.03-.42,0-.62.03-.31.02-.66.05-.97-.03-.17-.04-.34-.15-.41-.31-.09-.22.02-.47.21-.62,0,0,.01-.01.02-.02.19-.14.44-.2.68-.24.76-.14,1.55-.18,2.3-.37.43-.11.81-.3,1.26-.36.36-.05.73-.07,1.1-.05l.49-.55s-.02-.04-.02-.04c.15-.17.3-.34.45-.52.62.97,1.24,1.95,1.86,2.92-.39.3-.63.49-.64.48,0,0,0,0,0-.01-.27,1.36-1.23,2.77-2.34,3.46-.11.07-.23.14-.32.23-.07.07-.12.16-.18.25-.31.52-.59,1.05-.86,1.59-.17.34-.38,1.15-.85,1.16-.33,0-.55-.35-.41-.64.26-.52.54-1.05.82-1.56.1-.19.23-.38.31-.58.02-.06.1-.22.06-.29-.2-.36-.71.32-.83.46-.24.27-.48.55-.72.82-.34.38-.69.76-1.04,1.14-.22.24-.5.69-.89.52-.27-.12-.35-.48-.15-.69.11-.12.22-.24.34-.35.02-.04.04-.09.08-.13.38-.43.74-.87,1.09-1.33.18-.23.35-.45.52-.68.07-.1.51-.45.36-.58-.17-.16-.64.34-.77.42-.35.23-.69.47-1.04.7-.47.31-.92.64-1.38.95-.29.19-.78.67-1.13.35-.19-.17-.18-.5.02-.67.02-.02.04-.05.06-.07.59-.57,1.24-1.05,1.89-1.55.32-.24.64-.48.94-.74.16-.13.31-.27.46-.41.06-.06.25-.17.17-.27-.07-.1-.29,0-.37.03-.21.08-.4.24-.61.31-.36.13-.72.26-1.08.39-.5.19-1,.37-1.5.56-.3.11-.75.44-1.05.16-.22-.19-.17-.61.1-.74Z"/>
  <path class="cls-5" d="m108.8,45.61c.74.79,1.51,1.54,2.29,2.28-1.58,1.66-2.97,3.35-4.15,5.1-.5.72-.96,1.47-1.39,2.22-.27.47-.31,1.04-.09,1.54.03.07.06.14.09.21.32.75.67,1.48,1.11,2.18.35.57,1.07.79,1.68.51,2.16-1,4.19-2.35,6.03-3.85,1.55-1.27,3.12-2.64,4.08-4.42,1.6-2.98.4-6.38-1.26-9.05-.95-1.54-2.1-2.95-3.25-4.35"/>
  <line class="cls-5" x1="96.06" y1="30.03" x2="96.84" y2="57.85"/>
  <circle class="cls-7" cx="99.38" cy="17.78" r="1.76"/>
  <circle class="cls-7" cx="94.17" cy="17.26" r="1.76"/>
  <path class="cls-7" d="m98.06,16.6s-1.22-.96-2.34-.23"/>
  <line class="cls-7" x1="98.79" y1="14.15" x2="95.88" y2="13.76"/>
  <line class="cls-7" x1="99.08" y1="13" x2="96.18" y2="12.61"/>
  <path class="cls-7" d="m95.64,23.87c.48.22,1.25.35,2.22-.24"/>
  <path class="cls-7" d="m98.97,23.97s.45-.46-.18-1.17"/>
  <path class="cls-7" d="m94.82,23.02s-.6.23-.33,1.13"/>
  <line class="cls-14" x1="101.29" y1="17.57" x2="104.05" y2="16.8"/>
  <line class="cls-5" x1="92.17" y1="16.56" x2="91.28" y2="15.87"/>
  <path class="cls-8" d="m13.98,118.97l6.62,4.94c.49.36,1.18.27,1.55-.22h0c.26-.33.3-.78.12-1.16l-3.48-7.17c-.08-.16-.2-.31-.35-.42l-2.9-2.11c-.42-.31-1-.28-1.39.07l-2.37,2.09c-.05.05-.1.1-.15.16l-.33.43c-.38.49-.28,1.2.22,1.57l1.14.85,1.31.98Z"/>
  <path class="cls-2" d="m42.93,55.13s1.19,9.9.34,14.63c-.84,4.73-4.37,48.81-4.37,48.81l-8.22.05s.11-18.99.28-21.54c.17-2.55.56-9.29.56-9.29l-2.47-31.04,9.89-.05,3.98-1.57Z"/>
  <path class="cls-2" d="m31,56.3s-3.54,5.28-4.38,9.64c-.84,4.37-2.52,15.97-4.13,21.69-.88,3.1-2.61,7.25-3.53,11.19-1.28,5.51-5.29,13.59-5.29,13.59l8.32,3.47,11.21-29.31,5.65-16.09"/>
  <path class="cls-8" d="m36.14,124.95l8.48.11c.63,0,1.14-.49,1.16-1.11h0c.01-.43-.22-.83-.6-1.04l-7.21-3.86c-.17-.09-.35-.14-.54-.14h-3.68c-.54,0-1,.37-1.12.89l-.71,3.16c-.02.07-.03.15-.03.22v.55c-.03.64.48,1.17,1.12,1.17l1.46.02,1.68.02Z"/>
  <path class="cls-4" d="m41.96,11.17s-.59-.06-1.97.17c-1.39.22-1.78.61-1.78.61-1.51-1.39-10.42.87-10.61,1.81-.02.08-.03.16-.03.25-.29.04-.46.07-.46.07,0,0-.38-2.78-.13-4.68.26-1.9,2.81-4,6.75-4.52,3.93-.51,6.74,1.04,7.48,2.29.75,1.26.75,4,.75,4Z"/>
  <path class="cls-5" d="m45.73,12.18c-.86-.03-2.4-.08-3.86-.12-1.89-.06-3.66-.11-3.66-.11,0,0,.39-.39,1.78-.61,1.38-.23,1.97-.17,1.97-.17,0,0,3.48,0,4.64.1,1.16.1.91.96-.87.91Z"/>
  <path class="cls-4" d="m36.51,25.43h.02c-.08.3-.32,1.13-.46,1.96-.1.59-.14,1.17-.05,1.56,0,0-2-2-3.49-2.74-1.48-.74-3.45-1.58-3.45-1.58,0,0,.55-2,1.06-2.42h.01c.55-.39,5.89,2.21,6.39,3.05.01,0,.02.03.02.04l-.05.13Z"/>
  <path class="cls-5" d="m42.25,17.98c-.29.42-.07,1.52-.42,2.94-.36,1.42-.68,1.81-1.58,1.9-.91.1-2.67-.48-3.1.62-.22.55-.32,1.04-.37,1.38-.05.3-.05.49-.05.52,0,0-.05-.02-.15-.07-.01,0-.02,0-.04,0-.5-.84-5.84-3.44-6.39-3.05,0,0,.34-1.5.37-2.91.96-.5,1.26-1.99,1.26-1.99-.85-.68-1.18-2.39-.18-2.78,1-.39,2.19.45,4.16.13,1.97-.32,2.45-2.71,2.45-2.71l3.41-.16.25.27.05.05s-.26,2.39-.06,3.07c.19.67,1.13,1.19,1.26,1.32s-.58,1.06-.87,1.48Z"/>
  <path class="cls-5" d="m33.18,14.64s-1.66-.65-2.04.32.09,2,.65,2.34,1.23.41,1.23.41"/>
  <path class="cls-11" d="m42,18.91s-1.42.28-2.77-.13c0,0,.22,1.51,1.03,1.68s1.38-.34,1.74-1.55Z"/>
  <path class="cls-5" d="m36.57,25.31s-.01.04-.04.12h-.02l.05-.13h.01Z"/>
  <path class="cls-4" d="m38.6,28.92l-.17-.1-2.36-1.43c.14-.83.38-1.66.46-1.96h-.02l.05-.13.02-.03.2-.45.14-.32s1.38.7,1.68,1.19c.3.5,0,3.23,0,3.23Z"/>
  <path class="cls-4" d="m44.1,64.19s-10.12,2.32-18.1-.68c0,0,1.14-9.71,1.06-10.65-.07-.93-1.26-11.13-1.4-14.86-.15-3.72.01-5.63.77-7.88.77-2.26,1.38-5.07,2.65-5.49,0,0,1.97.84,3.45,1.58,1.49.74,3.49,2.74,3.49,2.74-.09-.39-.05-.97.05-1.56.14-.83.38-1.66.46-1.96.03.01.04.01.04.01,0,0,.71.25.8.32.06.04.52,1.54,1.06,3.06.36,1,.76,2.02,1.1,2.62.88,1.51,3.1,9.55,3.84,12.71.75,3.16.73,20.04.73,20.04Z"/>
  <path class="cls-11" d="m38.45,41.84l.92,2.91,10.6-1.55s1.82-1.29,3.07-1.78c1.25-.48,1.39-.44,1.92-.85s.99-.74,1.15-.53.09.92-.65,1.41-1.41,1.06-1.41,1.06c0,0,3.46.76,4.25.9s2.42.37,2.45.78-.92.37-2.19.23c-1.27-.14-2.72-.25-2.72-.25,0,0,1.82.58,2.86.76s2.01.28,2.08.78-1.32.28-1.99.18-3.12-.32-3.12-.32c0,0,3.12.95,3.58,1.09s.62.58.55.74-.69.32-1.75,0c-1.06-.32-2.91-.76-2.91-.76,0,0,1.75,1.71,2.05,2.03s.35.74.12.85-2.55-1.67-2.7-1.8-2.82-1.06-3.65-1.75c0,0-3.99,1.75-7.41,2.61-3.42.85-6.16,1.36-6.6,1.13s-2.75-3.02-3.56-5.29c-.81-2.26,5.06-2.59,5.06-2.59Z"/>
  <path class="cls-5" d="m38.21,11.95s-.48,2.39-2.45,2.71c-1.97.32-3.16-.52-4.16-.13-1,.39-.67,2.1.18,2.78,0,0-.3,1.49-1.26,1.99-.06.04-.14.07-.21.1,0,0-.81-1.87-1.62-2.61-.73-.68-1.2-1.87-1.12-2.78,0-.09.01-.17.03-.25.19-.94,9.1-3.2,10.61-1.81Z"/>
  <path class="cls-4" d="m32.96,28.18s1.77.65,2.71,2.42,4.03,10.26,4.03,10.26c0,0-1.81,1-2.65,1.61s-4.97,2.48-6.03,2.52c0,0-2.58-6.42-2.97-7.61s-.39-4.36.13-5.61"/>
  <ellipse class="cls-5" cx="39.84" cy="15.02" rx=".37" ry=".13" transform="translate(21.79 53.59) rotate(-85.58)"/>
  <rect class="cls-15" x="-990.27" y="-59.99" width="1447.07" height="727.52"/>
</svg>