<?xml version="1.0" encoding="UTF-8"?>
<svg id="Calque_1" data-name="Calque 1" xmlns="http://www.w3.org/2000/svg" viewBox="0 0 128 128">
  <defs>
    <style>
      .cls-1 {
        fill: #76ac75;
      }

      .cls-1, .cls-2, .cls-3, .cls-4, .cls-5, .cls-6, .cls-7, .cls-8 {
        stroke-linecap: round;
        stroke-linejoin: round;
      }

      .cls-1, .cls-2, .cls-3, .cls-4, .cls-5, .cls-6, .cls-8 {
        stroke: #000;
      }

      .cls-2 {
        fill: #d6d6d6;
      }

      .cls-3 {
        fill: #87ccf3;
      }

      .cls-4 {
        fill: #baa584;
      }

      .cls-5, .cls-8 {
        fill: #fff;
      }

      .cls-6, .cls-7 {
        fill: none;
      }

      .cls-7 {
        stroke: #fff;
        stroke-width: 8px;
      }

      .cls-8 {
        stroke-width: .75px;
      }
    </style>
  </defs>
  <path class="cls-5" d="m74.21,118.37l-.93-.68-.69-5.97s-5.28.84-5.28.92.54,5.59.54,5.59l-.38,1.53,3.9.31,2.22-.54.62-1.15Z"/>
  <polygon class="cls-5" points="47.49 119.86 47.25 114.08 53.32 114 52.2 119.61 50.21 121.48 47.49 119.86"/>
  <path class="cls-4" d="m54.41,123.69c-.16-.49-1.78-3.37-2.17-4.09-.79.34-1.57.53-2.44.53-.79,0-1.68-.08-2.31-.56-.41.57-.9,1.35-1.27,1.98-.34.57-.81,1.17-1.06,1.81-.24.65-.14,1.39.38,1.82,1.71,1.41,6.5,1.76,8.56.19.62-.47.41-1.36.31-1.69Z"/>
  <path class="cls-4" d="m80.7,123.62c-.98.17-2.03.09-3.03.09-2.84,0-5.68-.14-8.52-.27-.45-.02-.92-.05-1.33-.23-.32-.15-.61-.39-.8-.69-.12-.18-.2-.39-.23-.61,0-.08-.01-.15,0-.23.02-.3.13-.6.24-.88.2-.52.3-.9.5-1.42,2.26,0,4.5-.42,6.68-1.02.22.11.44.22.65.33l3.77,1.9c.51.26,1.02.51,1.53.77.12.06.24.12.37.18.36.18.87.3,1.14.63.06.08.11.16.14.27.22.75-.49,1.07-1.11,1.17Z"/>
  <path class="cls-3" d="m73.67,114.85s-1.92.78-4.21,1.11c-2.28.32-2.45.04-2.45.04l-4.16-27.49s-1.17-3.02-2.73-7.1c-.12-.32-.25-.64-.37-.98-.54-1.39-1.11-2.88-1.69-4.39.06,4.45.11,8.86.16,13.12l-4.68,28.14c-1.82.65-1.95.62-3.91.62-1.81,0-1.8-.04-3.44-.69.74-9.79,2.05-27.82,2.05-27.82,0,0-4.11-19.03-3.12-28.9.48-4.76,2.6-8.65,4.06-11.25.92.77,2.45,1.4,3.59,1.68,1.89.47,2.66.54,4.56.47.3-.03.61-.05.88-.08,2.75-.31,4.51-.62,4.51-.62,0,0,3.82,8.47,5.36,13.55,1.53,5.05,3.98,24.72,3.98,24.72l1.61,25.87Z"/>
  <path class="cls-5" d="m61.25,24.92c-.27.12-.55.21-.83.28-2.35.56-5.02-.44-5.93-.82l.28-3.99.03-.45,6.17-1.19.16,1.28.52,4.34c-.03.08-.05.17-.08.24-.02.05-.03.1-.05.14-.01.02-.01.04-.02.06h-.01l-.24.11Z"/>
  <g>
    <path class="cls-8" d="m76.83,64.61c.02.19.02.39.01.58,0,.52-.04,1.04-.04,1.56,0,.23,0,.45.07.67s.2.42.4.52.48.07.62-.11c.12-.15.12-.37.12-.57,0-.26-.02-.52-.03-.78-.01-.35-.02-.7-.05-1.05-.06-.71-.2-1.45-.64-2.01-.14-.18-.81-.63-.81-.12,0,.2.16.42.22.61.07.23.12.46.14.7Z"/>
    <path class="cls-8" d="m77.24,64.94c.02.19.02.39.01.58,0,.52-.04,1.04-.04,1.56,0,.23,0,.45.07.67s.2.42.4.52.48.07.62-.11c.12-.15.12-.37.12-.57,0-.26-.02-.52-.03-.78-.01-.35-.02-.7-.05-1.05-.06-.71-.2-1.45-.64-2.01-.14-.18-.81-.63-.81-.12,0,.2.16.42.22.61.07.23.12.46.14.7Z"/>
    <path class="cls-8" d="m72.14,57.76c.06-.3.97-.53,1.38-1.11,1.28.75,3.44,4.85,3.97,5.93.36.73.73,1.49.89,2.29.17.85.19,1.72.24,2.58,0,.14.01.27-.03.4-.08.23-.38.38-.59.22-.46-.34-.49-1.06-.53-1.59-.04-.49-.05-.98-.17-1.46-.12-.47-.37-.85-.68-1.21-.23-.26-.44-.53-.67-.79-.09-.1-.18-.2-.28-.28-.14-.12-.29-.21-.47-.23-.15-.02-.38,0-.49.12-.12.12-.06.31-.03.46.04.17.11.34.19.49.13.27.3.54.35.84,0,.05.02.1.02.15.02.56-.53,1.23-1.01.62-.1-.13-.17-.28-.24-.43-.34-.71-.82-1.36-1.02-2.13-.13-.49-.2-.99-.28-1.49-.28-1.88-.7-2.52-.52-3.4Z"/>
    <path class="cls-8" d="m75.66,62.74c-.07-.1-.14-.19-.22-.28-.14-.16-.3-.31-.5-.38-.2-.07-.44-.04-.58.12-.12.13-.13.33-.11.5.06.43.35.79.6,1.14.13.18.26.37.34.58-.05-.3-.21-.57-.35-.84-.08-.16-.15-.32-.19-.49-.03-.15-.1-.34.03-.46.11-.11.34-.14.49-.12.18.03.33.12.47.23Z"/>
  </g>
  <path class="cls-6" d="m57.01,2.84s0,1.15-.42,1.93h-.01"/>
  <path class="cls-6" d="m54.78,5.26c-.91-.53-1.53-1.86-1.53-1.86"/>
  <path class="cls-6" d="m51.9,15.82h-.01c-.11-.02-.85-.22-1.29-1.4-.48-1.27-1.02-1.13-1.07-2.44-.03-1.24,1.25-.7,1.4-.63"/>
  <path class="cls-6" d="m62.43,4.48s-.89.53-1.88.71"/>
  <path class="cls-5" d="m52.9,5.82c.57.03,1.23-.11,1.88-.56.27.17.56.25.87.21.44-.04.73-.34.93-.7.01,0,.02.02.03.02.12.12.91.81,1.88-.14.51.61,1.31.67,2.05.53.45.34,1.05.31,1.05.31.04.05.08.11.11.16,1.82,2.57,2,4.32,2.01,4.5.11-.46.19-.89.25-1.31-.1.77-.24,1.33-.28,1.45h0s0,.03,0,.03h.01c.03.73.03,2.61-.26,4.56-.25,1.62-.74,3.29-1.63,4.37-2.06,2.5-3.39,2.56-3.59,2.54-.21.05-1.61.26-4.04-1.91-1.04-.92-1.78-2.5-2.28-4.06-.6-1.88-.88-3.74-.96-4.47h.01c-.02-.08-.02-.17-.02-.26.03.07.05.11.05.11-.02-.3-.03-.61-.02-.9.2-1.51,1.58-4.02,1.74-4.45l.2-.04Z"/>
  <path class="cls-6" d="m50.95,10.31c-.04.29-.05.55-.03.79"/>
  <path class="cls-6" d="m50.94,11.35s0-.01-.01-.02h0c-.06-.15-.39-.89-.62-1.9v-.03c-.45-2.02-.47-5.06,2.88-6.42,0,0,.21-1.1,1.62-.93,0,0,1.64-1.79,3.62-.32,1.37-.39,1.75.67,1.75.67,3.79.89,4.03,4.3,3.81,6.34,0,.04-.02.07-.01.11"/>
  <path class="cls-6" d="m61.74,5.86s1.95,2.83,1.95,4.47"/>
  <path class="cls-6" d="m50.89,11.04h0s0,.14.03.28h0s0,.03,0,.03"/>
  <path class="cls-6" d="m63.7,10.32v-.02"/>
  <path class="cls-6" d="m63.69,10.01s0,.1.01.28"/>
  <path class="cls-6" d="m63.43,14.89h.01c.1-.04.81-.35,1.06-1.58.27-1.33.83-1.27.68-2.58-.16-1.23-1.35-.5-1.48-.41"/>
  <path class="cls-6" d="m59.3,3.54c-.25.46-.49.8-.73,1.04-.03.03-.05.07-.08.08"/>
  <path class="cls-6" d="m56.62,4.79l-.02-.02"/>
  <path class="cls-5" d="m57.93,10.16s.44,3.92,1.29,5.88c0,0-.17.4-1.44.15"/>
  <ellipse class="cls-5" cx="55.3" cy="12.04" rx=".14" ry=".39" transform="translate(-.76 4.3) rotate(-4.42)"/>
  <ellipse class="cls-5" cx="60.7" cy="11.52" rx=".14" ry=".39" transform="translate(-.71 4.72) rotate(-4.42)"/>
  <line class="cls-5" x1="58.06" y1="76.03" x2="57.78" y2="64"/>
  <path class="cls-1" d="m45.31,41.82c.9-.95,1.74-1.95,2.5-2.99.04.45.02,1.42-.04,2.65-.1,2.47-.33,5.98-.47,8.21.53.77,1.02,1.57,1.48,2.37.29.5.33,1.11.1,1.64-.03.07-.06.15-.1.22.04.02.07.03.11.04,4.29,1.37,8.96,1.53,13.35.52.89-.2,1.82-.49,2.37-1.26.09-.13.18-.27.24-.42,1.14,1.43,2.35,2.82,3.64,4.13,1.1,1.11,2.81,1.36,4.19.62,1.03-.55,1.62-1.6,1.62-2.68,0-.51-.13-1.03-.41-1.51-.77-1.32-1.57-2.56-2.46-3.83-.49-.7-1.4-1.88-1.9-2.52-.22-.28-.33-.64-.31-1,.15-2.47,1.43-13.3-1.59-17.42-.1-.14-.18-.31-.3-.44-1.29-1.31-3.87-2.88-5.5-3.53-.11.07-.22.13-.33.19h-.01l-.24.11c-.27.12-.55.21-.83.28-2.35.56-5.02-.44-5.93-.82-.21-.09-.32-.15-.32-.15-1.47.19-2.92.51-4.33.98-1.54.52-2.89,1.13-4.17,2.15-1.29,1.05-2.44,2.27-3.53,3.53-.53.61-1.04,1.23-1.55,1.86-.25.3-.5.6-.75.91"/>
  <path class="cls-5" d="m61.83,24.62c-.11.07-.22.13-.33.19h-.01c-.08.04-.16.08-.24.11-.27.12-.55.21-.83.28l.88-.36.22-.09.31-.13Z"/>
  <path class="cls-6" d="m66.54,38.88c-.05,1.43-.92,10.49-1.16,11.91-.14.83-.27,1.73-.77,2.43-.55.77-1.48,1.06-2.37,1.26"/>
  <path class="cls-8" d="m57.59,58.92s-2.91-1.38-2.91-1.38c-.43-.2-.87-.38-1.3-.6-.21-.11-.42-.23-.61-.38-.18-.13-.41-.31-.08-.35.21-.03.44,0,.66.03.33.03.7.05,1.03-.03.19-.05.37-.16.44-.34.09-.23-.03-.5-.22-.66,0,0-.01-.01-.02-.02-.21-.15-.47-.21-.72-.25-.81-.15-1.66-.19-2.46-.39-.46-.12-.87-.32-1.35-.39-.39-.06-.78-.08-1.17-.06l-.53-.58s.03-.04.03-.04c-.16-.18-.32-.37-.49-.55-.66,1.04-1.32,2.08-1.99,3.12.42.32.68.52.68.51,0,0,0,0,0-.02.29,1.45,1.31,2.96,2.5,3.69.12.08.25.15.35.25.08.08.13.17.19.27.33.56.63,1.12.91,1.7.18.36.4,1.22.91,1.24.35.01.59-.37.44-.68-.28-.56-.57-1.12-.87-1.67-.11-.21-.24-.4-.33-.62-.03-.07-.11-.23-.07-.31.21-.39.75.34.89.49.25.29.51.58.77.87.37.41.74.81,1.11,1.21.24.25.54.74.95.56.29-.12.38-.51.16-.74-.12-.13-.24-.25-.36-.38-.02-.05-.05-.09-.08-.14-.4-.46-.79-.93-1.17-1.42-.19-.24-.37-.48-.56-.73-.08-.1-.54-.48-.38-.62.18-.17.69.37.82.45.37.25.74.5,1.11.75.5.33.98.68,1.48,1.02.31.21.83.72,1.21.37.2-.19.19-.54-.02-.71-.02-.03-.04-.05-.07-.08-.62-.61-1.33-1.12-2.02-1.65-.34-.26-.68-.52-1.01-.79-.17-.14-.33-.29-.5-.44-.07-.06-.27-.18-.19-.29.08-.1.31,0,.39.03.23.09.43.25.66.34.38.14.77.28,1.15.42.54.2,1.07.4,1.6.6.32.12.8.47,1.12.18.23-.21.18-.66-.1-.79Z"/>
  <path class="cls-1" d="m45.31,41.82c-.79.84-1.61,1.64-2.44,2.43,1.69,1.77,3.17,3.57,4.43,5.44.53.77,1.02,1.57,1.48,2.37.29.5.33,1.11.1,1.64-.03.07-.06.15-.1.22-.34.8-.72,1.58-1.18,2.33-.37.61-1.14.84-1.79.54-2.31-1.07-4.47-2.51-6.43-4.11-1.65-1.35-3.33-2.82-4.35-4.72-1.71-3.18-.43-6.81,1.34-9.66,1.01-1.64,2.24-3.15,3.47-4.64"/>
  <line class="cls-6" x1="42.87" y1="44.25" x2="39.84" y2="41.56"/>
  <line class="cls-2" x1="58.9" y1="25.2" x2="58.07" y2="54.88"/>
  <line class="cls-2" x1="57.45" y1="28.54" x2="60.7" y2="28.54"/>
  <rect class="cls-7" x="-3371.69" y="-285.51" width="6467.34" height="6437.3"/>
</svg>