<?xml version="1.0" encoding="UTF-8"?>
<svg id="Calque_1" data-name="Calque 1" xmlns="http://www.w3.org/2000/svg" viewBox="0 0 260 128">
  <defs>
    <style>
      .cls-1, .cls-2, .cls-3, .cls-4 {
        fill: none;
      }

      .cls-5 {
        fill: #76ac75;
      }

      .cls-5, .cls-6, .cls-7, .cls-8, .cls-2 {
        stroke: #000;
      }

      .cls-5, .cls-6, .cls-7, .cls-8, .cls-2, .cls-3, .cls-4 {
        stroke-linecap: round;
        stroke-linejoin: round;
      }

      .cls-6 {
        fill: #87ccf3;
      }

      .cls-7 {
        fill: #baa584;
      }

      .cls-8 {
        fill: #fff;
      }

      .cls-3 {
        stroke: #d6d6d6;
      }

      .cls-4 {
        stroke: #fff;
        stroke-width: 8px;
      }
    </style>
  </defs>
  <path class="cls-8" d="m40.46,40.23c1.95-.04,3.57,1.51,3.6,3.47.03,1.35-.71,2.53-1.81,3.15l.69,3.71c1.84,9.81,2.03,19.88.57,29.75l-.55,3.67c1.11.58,1.88,1.73,1.91,3.07.04,1.96-1.52,3.57-3.47,3.6-1.3.02-2.45-.65-3.07-1.68-8.87,1.71-17.95,1.89-26.88.51-.59,1.05-1.71,1.77-3.01,1.8-1.95.04-3.57-1.51-3.6-3.47-.03-1.34.7-2.52,1.79-3.14l-.67-3.59c-1.84-9.81-2.03-19.87-.57-29.75l.52-3.54c-1.1-.58-1.86-1.73-1.88-3.06-.04-1.96,1.52-3.57,3.47-3.6,1.23-.02,2.33.59,2.98,1.53,4.46-.87,8.97-1.35,13.49-1.43,4.48-.08,8.96.22,13.41.9.58-1.11,1.72-1.87,3.06-1.89Z"/>
  <path class="cls-3" d="m29.4,83.32c-4.6.54-9.24.4-13.83-.42"/>
  <path class="cls-3" d="m29.56,47.82c2.7.33,4.89,1.81,6.53,4.4"/>
  <path class="cls-5" d="m118.54,91.69c4.65,1.84,6.84,3.27,8.1,4.02l-1.92,3.92c-4-1.02-7.56-2.6-15.56-2.96-9.65-.42-14.21-2.33-17.5-3.82-3.29-1.48-21.42-1.43-31.18-3.23-9.75-1.8-10.18-9.59-11.24-14.36-.28-1.25-1.03-2.24-2.07-2.99,5.06-9.9-.72-16.07-.72-16.07,1.41-.79,2.45-1.93,2.79-3.45,1.06-4.77,1.49-12.56,11.24-14.36,9.76-1.81,27.89-1.75,31.18-3.24,3.29-1.48,7.85-3.39,17.5-3.82,8.33-.36,11.84-2.07,16.05-3.07l1.43,4.04c-1.26.75-3.45,2.17-8.1,4.02-10.02,3.98-15.9,7.32-23.06,6.52-7.15-.79-14.31,3.65-22.23,4.23,5.39,2.29,16.21,2.96,21.8,1.65,1.02-.24,2.15-.57,3.37-.97v32.77c-1.22-.38-2.35-.71-3.37-.95-5.59-1.32-16.42-.92-21.82,1.36,7.93.58,15.09,5.03,22.25,4.24,7.16-.8,13.04,2.54,23.06,6.52Z"/>
  <path class="cls-2" d="m126.64,32.3l-1.43-4.04h0c.67-.17,1.35-.31,2.08-.43,5.3-.84,9.92-.92,13.15.86,4.35,2.38,2.28,10.49,1.48,7.31-.79-3.18-10.02-5.25-7.63-3.5s2.42,3.34,2.42,3.34c0,0-6.24-2.22-7.03-3.02-1.35-1.35-1.58-1.39-3.04-.52Z"/>
  <path class="cls-2" d="m140.44,99.32c-3.23,1.77-7.85,1.7-13.15.85-.9-.15-1.75-.33-2.57-.54l1.92-3.92c1.46.86,1.69.83,3.04-.52.79-.8,7.03-3.03,7.03-3.03,0,0-.03,1.6-2.42,3.34-2.39,1.75,6.84-.31,7.64-3.49.79-3.19,2.86,4.93-1.49,7.31Z"/>
  <path class="cls-7" d="m250.87,82.95c-.64,2.44-4.07-.23-7.99-2.89-3.06-2.06-5.4-2.97-10.19-3.15v-6.88c1.53.05,2.47.84,6.19-.4,4.14-1.38,4.85-.17,6.54,1.53,1.7,1.69,3.5,1.17,5.09,2.22,1.59,1.06,1,7.13.36,9.57Z"/>
  <path class="cls-2" d="m232.69,70.03v6.88c-1.11-.04-2.35-.05-3.76-.02v-6.48c1.14-.05,1.83-.23,3.23-.36.19-.02.36-.02.53-.02Z"/>
  <path class="cls-6" d="m129.68,65.12s6.63-.58,18.08.37c11.45.96,24.81,3.18,30.01,3.29,5.49.12,6.59.54,17.92-1.34,10.34-1.71,15.94,1.11,24.85,2.27,4.92.65,6.99.77,8.39.7v6.48c-10.71.21-15.64,1.81-25.29,3.19-9.65,1.38-20.85-1.37-28.47-.16-12.71,2.01-23.59,4.49-41.41,6.14-15.43,1.43-27.44-3.07-35.34-5.54v-32.77c7.91-2.53,19.92-7.23,35.34-5.81,17.82,1.66,28.7,4.13,41.41,6.15,7.62,1.21,18.82-1.54,28.47-.16,9.65,1.38,14.58,2.97,25.29,3.18v6.48c-1.4-.07-3.47.06-8.39.7-8.91,1.17-14.51,3.99-24.85,2.28-11.33-1.88-12.43-1.46-17.92-1.34-5.2.1-18.56,2.32-30.01,3.28-11.45.95-18.08.37-18.08.37v2.24Z"/>
  <path class="cls-7" d="m250.51,54.63c-1.59,1.05-3.39.52-5.09,2.22-1.69,1.69-2.4,2.9-6.54,1.52-3.72-1.23-4.66-.45-6.19-.4v-6.87c4.8-.19,7.13-1.09,10.19-3.16,3.92-2.65,7.35-5.32,7.99-2.88.64,2.43,1.23,8.5-.36,9.57Z"/>
  <path class="cls-2" d="m232.69,51.1v6.87c-.17,0-.34,0-.53-.02-1.41-.13-2.1-.31-3.23-.36v-6.48c1.41.03,2.65.03,3.76-.01Z"/>
  <line class="cls-2" x1="98.42" y1="80.53" x2="98.42" y2="80.52"/>
  <line class="cls-2" x1="125.21" y1="28.26" x2="125.21" y2="28.25"/>
  <line class="cls-5" x1="49.25" y1="64.15" x2="98.42" y2="64.15"/>
  <line class="cls-5" x1="52.62" y1="61.99" x2="52.62" y2="66.33"/>
  <path class="cls-1" d="m7.54,60.34c-2.82,3.23.07,6.32.07,6.32-.49,2.46,1.41,2.96,1.41,2.96,1.91,5.96,7.12,6.39,10.68,5.9-3.62.66-9.13.48-10.92-5.97,0,0-2.09-.55-1.41-2.96,0,0-3-2.4-.08-6.33,0,0-.71-2.21,1.41-2.96,0,0,1.3-7.74,11.52-5.74-3.56-.6-9.26-.47-11.27,5.82,0,0-1.9.51-1.41,2.96Z"/>
  <path class="cls-1" d="m23.03,74.59s-.07.03-.19.08c-.42-.01-.89-.08-1.38-.18.51.06,1.03.1,1.57.1Z"/>
  <path class="cls-2" d="m9.29,62.95s2,.14,3.29,1h.01"/>
  <path class="cls-2" d="m9.75,69.57s2.38-.88,3.44-2.39"/>
  <path class="cls-2" d="m13.97,69.84c0,.25,0,.48-.03.7-.19,1.6-1,2.72-1,2.72"/>
  <path class="cls-2" d="m14.85,71.97c.03.12.05.25.07.37.16.98.15,1.82.15,1.82"/>
  <path class="cls-2" d="m23.26,74.68c-.13.24-1.24,2.42.93,2.51,2.3.1,2.12-.86,4.39-1.52,2.27-.65,2.61-2.07,2.61-2.07"/>
  <path class="cls-2" d="m13.84,57.12c-.18-1.75-.98-3.38-.98-3.38"/>
  <path class="cls-2" d="m15,52.84s.11,3.08-1.02,4.35"/>
  <path class="cls-2" d="m14.85,71.97c-.1-.05-.15-.08-.15-.08"/>
  <path class="cls-2" d="m13.84,57.12c-.06.07-.13.14-.21.21,0,0,.51,2.09-1.11,3.13-.04.02-.08.05-.12.07,0,0,1.36,1.6.21,3.39,0,.01,0,.02-.02.03,0,.02-.02.05-.04.07,0,0,1.3,1.19.65,3.14,0,.01,0,.02,0,.02-.05.13-.1.27-.17.41,0,0,.79.71.71,2.73,0,0,.08.04.21.22.17.23.43.71.72,1.64,0,0,.09.06.26.16.79.46,3.3,1.79,6.52,2.15h.02c.49.1.96.17,1.38.18-.03.01-.06.02-.09.03-.49.18-1.56.55-2.92.8-.04.01-.08.02-.13.02-3.56.49-8.77.06-10.68-5.9,0,0-1.9-.5-1.41-2.96,0,0-2.89-3.09-.07-6.32-.49-2.45,1.41-2.96,1.41-2.96,2.01-6.29,7.71-6.42,11.27-5.82.15.03.31.06.46.09.35.07.71.16,1.08.25t.02,0c.38.11.77.22,1.17.35,0,0-3.15-.09-8.12,2.88-.1.05-.21.12-.31.18,0,0-.02,1.06-.68,1.8Z"/>
  <path class="cls-2" d="m22.95,52.26c-.24-.09-.64-.22-1.17-.35"/>
  <path class="cls-2" d="m21.76,51.9c-.32-.09-.68-.17-1.08-.25"/>
  <path class="cls-2" d="m19.83,75.5c1.76-.25,3.09-.71,3.38-.82h.02s.02-.02.03-.01h0"/>
  <path class="cls-2" d="m15.18,55.12s5.18-3,8.02-2.78"/>
  <path class="cls-2" d="m40.41,68.18c-.48.62-1.09,1.29-1.84,2.01-3.85,3.72-13.02,4.38-15.31,4.49h0v-.02c-.13.01-.27.01-.42.01.12-.05.19-.08.19-.08-.54,0-1.06-.04-1.57-.1h-.02c-2.59-.55-5.86-2.15-6.59-2.52-.15-.79-.42-1.61-.88-2.13-.01-.82-.21-1.74-.77-2.68.31-.44.5-.94.48-1.49-.03-.77-.48-1.32-1.09-1.72.01-.01.01-.02.02-.03.24-.2,1.54-1.49.04-3.31,1.13-.81,1.34-2.19,1.19-3.49.66-.74.68-1.8.68-1.8.1-.06.21-.13.31-.18,4.97-2.97,8.12-2.88,8.12-2.88.08.02.15.04.19.06.02,0,.03.01.05.01h0c2.29.1,11.46.76,15.3,4.48.85.82,1.52,1.57,2.04,2.25,1.95,2.51,1.93,4.01,1.9,4.32h0c.03.17.27,1.91-2.02,4.8Z"/>
  <path class="cls-2" d="m22.73,74.7h.02c.06,0,.21-.01.46-.02h.05"/>
  <path class="cls-2" d="m42.43,63.39s0,.06,0,.06"/>
  <path class="cls-2" d="m23.19,52.32h-.05c-.31-.02-.48-.02-.48-.02"/>
  <path class="cls-2" d="m23.19,52.32c-.13-.24-1.25-2.41.93-2.51,2.3-.1,2.11.87,4.39,1.52,2.27.65,2.61,2.07,2.61,2.07"/>
  <path class="cls-2" d="m10.81,59.06c.77.49,1.33.96,1.71,1.4.05.05.1.1.13.15"/>
  <path class="cls-2" d="m12.59,63.95h-.01"/>
  <line class="cls-2" x1="40.41" y1="68.18" x2="40.4" y2="68.18"/>
  <path class="cls-8" d="m47.17,72.27l-6.76-4.09c2.29-2.89,2.05-4.63,2.02-4.79h0c.03-.32.05-1.82-1.9-4.33l5.92-2.86s5.78,6.17.72,16.07Z"/>
  <g>
    <ellipse class="cls-8" cx="23.88" cy="70.06" rx=".3" ry=".85" transform="translate(-46.63 92.56) rotate(-88.87)"/>
    <ellipse class="cls-8" cx="23.91" cy="58.25" rx=".3" ry=".85" transform="translate(-34.8 81.01) rotate(-88.87)"/>
  </g>
  <line class="cls-8" x1="21.89" y1="64.16" x2="32.56" y2="64.16"/>
  <rect class="cls-4" x="-3684.42" y="-285.51" width="6467.34" height="6437.3"/>
</svg>