<?xml version="1.0" encoding="UTF-8"?>
<svg id="Calque_1" data-name="Calque 1" xmlns="http://www.w3.org/2000/svg" viewBox="0 0 128 128">
  <defs>
    <style>
      .cls-1 {
        fill: #76ac75;
      }

      .cls-1, .cls-2, .cls-3, .cls-4, .cls-5, .cls-6, .cls-7, .cls-8 {
        stroke-linecap: round;
        stroke-linejoin: round;
      }

      .cls-1, .cls-2, .cls-3, .cls-4, .cls-5, .cls-6, .cls-8 {
        stroke: #000;
      }

      .cls-2 {
        fill: #d6d6d6;
      }

      .cls-3 {
        fill: #87ccf3;
      }

      .cls-4 {
        fill: #baa584;
      }

      .cls-5, .cls-8 {
        fill: #fff;
      }

      .cls-6, .cls-7 {
        fill: none;
      }

      .cls-7 {
        stroke: #fff;
        stroke-width: 8px;
      }

      .cls-8 {
        stroke-width: .75px;
      }
    </style>
  </defs>
  <path class="cls-1" d="m54.38,33.03c.73.07,1.44.15,2.16.25.22.02.44.05.66.08.19.03.37.05.56.08.62.14,1.15.3,1.66.51.62.26,1.22.59,1.93,1.03,1.35.83,3.13,3.42,3.65,4.91,2.69,7.72,2.4,20.86,2.4,20.86,0,0,2.05,2.43,3,3.67,1.58,2.11,2.96,4.16,4.34,6.5.55.94.23,2.16-.71,2.71l-2.9,1.68c-.99.57-2.24.45-3.08-.32-3.17-2.86-6.05-6.09-8.62-9.44l-3.13.3"/>
  <path class="cls-1" d="m44.88,65.85l-6.41-14.65,3.57-12.19,12.33-5.66,1.44,28.78.48,3.72s-2.45,2.24-11.41,0"/>
  <rect class="cls-2" x="36.69" y="77.58" width="41.68" height="38.3"/>
  <path class="cls-5" d="m100.7,110.07l-.93-.73-1.6-6.19s-5.33,1-5.33,1.08c0,.08,1.33,5.49,1.33,5.49l-.44,1.56,4,.44,2.3-.48.68-1.17Z"/>
  <path class="cls-4" d="m107.2,115.67c-1.02.14-2.09.03-3.12,0-2.92-.09-5.84-.32-8.75-.55-.46-.04-.94-.08-1.36-.28-.33-.16-.61-.42-.8-.73-.11-.19-.19-.41-.21-.63,0-.08,0-.16,0-.23.03-.31.15-.61.28-.9.22-.53.34-.92.56-1.45,2.32.07,4.64-.29,6.9-.83.22.12.44.24.66.36l3.82,2.07c.52.28,1.03.56,1.55.84.12.07.25.13.37.2.36.2.89.33,1.15.68.06.08.11.17.13.28.2.78-.53,1.08-1.18,1.17Z"/>
  <path class="cls-5" d="m89.51,112.51l-.77-.91-1.78-9.2s-5.69.96-5.71,1.04c-.02.08,1.93,7.39,1.93,7.39l-.75,1.44,3.83,1.24h2.35s.9-1.01.9-1.01Z"/>
  <path class="cls-4" d="m94.74,119.32c-1.02-.07-2.06-.39-3.05-.63-2.84-.68-5.65-1.5-8.46-2.31-.45-.13-.91-.27-1.28-.55-.29-.22-.51-.53-.63-.88-.07-.21-.11-.44-.08-.66,0-.08.03-.15.05-.23.09-.3.27-.56.45-.82.33-.47.51-.83.84-1.3,2.26.54,4.6.66,6.92.58.19.16.38.32.57.49l3.32,2.8c.45.38.9.76,1.35,1.14.11.09.21.18.32.27.32.27.8.51.99.9.04.09.07.19.07.3.03.81-.74.95-1.39.91Z"/>
  <path class="cls-3" d="m63.34,63.63c.55.3,1.05.47,1.37.58,10.09,2.08,19.64,4.13,28.12,9.49,2.79,1.76,4.02,4.14,5.16,10.08.91,4.73,1.67,16.93,1.93,21.45.05.95-.65,1.77-1.6,1.87-.62.06-1.25.14-1.61.21-2.17.41-1.76.39-2.83.41-.76.02-1.43-.49-1.61-1.23-.81-3.24-2.62-8.93-4.09-13.63-.98-3.14-1.81-5.84-2.08-7.07-.01-.05-.02-.1-.03-.15-5.34-.22-10.93-.74-16.38-1.63-2.88-.47-5.71-1.03-8.45-1.71-3.03-.75-5.82-2.09-8.59-3.53-2.48-1.3-4.73-3.18-5.65-6.99"/>
  <path class="cls-3" d="m56.3,65.85c9.22,1.82,18.71,3.74,26.59,9.14,1.17.8,2.41,1.72,3.24,2.94.74,1.09,1.14,2.57,1.52,3.86.7,2.39,1.72,19.86,2.02,25.27.05.93-.56,1.77-1.46,2.01-1.03.27-2.27.58-2.72.63-1.84.2-1.44.19-2.17.19-.79,0-1.47-.55-1.66-1.32-1.7-7.06-4.38-14.26-5.53-21.4-7.63-.53-15.78-1.78-23.14-3.92-2.81-.82-5.39-2.22-7.94-3.73-2.28-1.35-4.34-3.29-5.09-7.12l4.92-6.54s5.99,1.75,11.41,0Z"/>
  <line class="cls-6" x1="54.38" y1="33.03" x2="54.38" y2="33.02"/>
  <path class="cls-8" d="m52.7,88.35s-1.99-2.83-1.99-2.83c-.29-.42-.62-.81-.89-1.24-.14-.22-.27-.44-.37-.68-.09-.22-.21-.51.11-.37.21.09.41.24.6.37.3.2.63.42.98.52.2.05.43.05.59-.08.21-.16.24-.48.14-.73,0,0,0-.02-.01-.03-.11-.25-.33-.44-.54-.62-.68-.57-1.45-1.05-2.08-1.66-.37-.35-.64-.75-1.05-1.07-.33-.26-.69-.48-1.06-.67l-.18-.82s.05-.03.05-.03c-.05-.26-.11-.51-.16-.77-1.16.62-2.33,1.24-3.5,1.86.22.52.36.84.37.83,0,0,0,0,.02-.01-.5,1.51-.34,3.45.38,4.76.07.13.15.27.19.41.03.11.03.23.03.35.01.69,0,1.38-.05,2.07-.03.43-.27,1.35.19,1.63.32.19.75-.04.77-.41.03-.67.05-1.34.07-2.02,0-.25-.02-.5.02-.75.01-.08.02-.27.1-.32.4-.25.52.71.57.93.08.41.17.81.26,1.22.13.58.26,1.15.4,1.72.09.36.11.97.59,1.02.33.04.62-.28.54-.6-.05-.18-.09-.36-.13-.54,0-.05,0-.11,0-.17-.13-.64-.24-1.29-.34-1.94-.05-.32-.09-.65-.14-.97-.02-.14-.26-.73-.03-.78.26-.06.45.7.52.85.21.43.43.86.64,1.28.29.57.55,1.16.84,1.73.18.35.4,1.11.93.98.28-.07.46-.4.36-.67,0-.03-.01-.07-.02-.11-.26-.89-.64-1.75-1.01-2.6-.18-.42-.36-.84-.52-1.27-.08-.22-.16-.44-.23-.67-.03-.09-.15-.31-.02-.37.13-.06.29.16.35.24.17.2.27.46.43.66.29.33.57.67.86,1,.39.47.79.93,1.18,1.4.23.28.5.86.95.75.32-.07.52-.52.32-.79Z"/>
  <path class="cls-1" d="m43.72,61.64c.64,2.19,1.58,5.66,1.93,7.4.59,2.96,1.33,5.86,1.78,8.86.04.28-.05.56-.23.77-1.18,1.31-2.65,1.53-4.41,1.84-.36.07-.73-.08-.95-.39-3.37-4.73-7.49-16.56-7.78-18.04-.39-1.99-.36-4.04-.26-6.06.18-3.92.6-7.86,1.75-11.61.52-1.71,1.21-3.38,2.07-4.95.45-.82.98-1.61,1.58-2.33,1.26-1.51,2.55-2.49,4.41-3.15,1.02-.36,2.59-.84,3.65-1,.62-.1.93-.18,1.57-.21,1.46-.05,2.92.03,4.38.15.39.04.78.07,1.18.11"/>
  <path class="cls-6" d="m42.41,36.33s3.26.65,3.63,6.89c.37,6.24-2.85,15.38-2.85,15.38"/>
  <path class="cls-5" d="m56.26,33.36c-.31.14-.63.24-.95.32-2.68.64-5.72-.5-6.76-.93l.32-4.55.03-.51,7.03-1.36.18,1.46.59,4.94c-.03.09-.06.19-.09.27-.02.06-.03.11-.06.16-.01.02-.01.05-.02.07h-.01l-.27.13Z"/>
  <path class="cls-6" d="m51.09,8.87s.05,1.31-.4,2.21h-.01"/>
  <path class="cls-6" d="m48.64,11.71c-1.06-.56-1.81-2.06-1.81-2.06"/>
  <path class="cls-6" d="m45.79,23.85h-.01c-.12-.02-.98-.21-1.53-1.54-.59-1.43-1.2-1.24-1.31-2.74-.09-1.41,1.4-.85,1.56-.77"/>
  <path class="cls-6" d="m57.33,10.51s-.99.64-2.11.88"/>
  <path class="cls-5" d="m46.52,12.42c.65.01,1.39-.17,2.12-.72.32.18.65.26,1,.21.49-.07.81-.41,1.03-.83.01.01.03.02.04.02.15.13,1.07.88,2.14-.23.6.67,1.52.71,2.36.52.52.37,1.21.31,1.21.31.04.06.1.12.13.18,2.18,2.85,2.45,4.83,2.47,5.05.11-.53.18-1.03.24-1.5-.08.88-.22,1.52-.26,1.66h0s0,.04,0,.04h.01c.06.83.14,2.97-.12,5.2-.22,1.86-.71,3.78-1.68,5.04-2.24,2.93-3.76,3.04-3.99,3.03-.23.06-1.83.36-4.68-2.01-1.23-1.01-2.13-2.78-2.76-4.53-.75-2.12-1.15-4.23-1.27-5.05h.01c-.02-.09-.03-.19-.03-.3.03.08.06.12.06.12-.04-.34-.05-.69-.06-1.02.16-1.73,1.64-4.63,1.81-5.13l.23-.05Z"/>
  <path class="cls-6" d="m44.48,17.61c-.03.33-.04.63,0,.9"/>
  <path class="cls-6" d="m44.51,18.8s0-.01-.01-.02h0c-.08-.17-.48-1-.78-2.14v-.04c-.6-2.28-.73-5.74,3.02-7.42,0,0,.19-1.27,1.81-1.13,0,0,1.8-2.1,4.11-.51,1.55-.5,2.02.69,2.02.69,4.34.86,4.76,4.74,4.59,7.07,0,.05-.01.09-.01.12"/>
  <path class="cls-6" d="m56.6,12.12s2.33,3.15,2.39,5.01"/>
  <path class="cls-6" d="m44.45,18.45h0s.02.15.05.32h0s0,.04,0,.04"/>
  <path class="cls-6" d="m59,17.12v-.02"/>
  <path class="cls-6" d="m58.97,16.76s.01.12.02.32"/>
  <path class="cls-6" d="m58.87,22.33h.01c.11-.05.91-.43,1.14-1.84.26-1.52.9-1.48.67-2.96-.23-1.4-1.55-.52-1.7-.41"/>
  <path class="cls-6" d="m53.73,9.57c-.26.53-.53.93-.78,1.21-.03.04-.05.08-.09.09"/>
  <path class="cls-6" d="m50.72,11.1l-.03-.02"/>
  <path class="cls-5" d="m52.43,17.17s.65,4.44,1.7,6.65c0,0-.17.46-1.63.23"/>
  <ellipse class="cls-5" cx="49.51" cy="19.4" rx=".15" ry=".45" transform="translate(-1.86 5.66) rotate(-6.43)"/>
  <ellipse class="cls-5" cx="55.63" cy="18.6" rx=".15" ry=".45" transform="translate(-1.73 6.34) rotate(-6.43)"/>
  <line class="cls-1" x1="53.75" y1="37.84" x2="55.49" y2="37.69"/>
  <path class="cls-6" d="m56.3,65.85l3.26-.65c1.26-.25,2.47-.72,3.56-1.41.55-.35,1.01-.72,1.07-.99.15-.71-1.13-7.36-1.04-14.19.09-6.83-1.45-10.84-1.45-10.84"/>
  <rect class="cls-7" x="-3528.05" y="-285.51" width="6467.34" height="6437.3"/>
</svg>