<?xml version="1.0" encoding="UTF-8"?>
<svg id="Calque_1" data-name="Calque 1" xmlns="http://www.w3.org/2000/svg" viewBox="0 0 128 128.13">
  <defs>
    <style>
      .cls-1 {
        fill: #76ac75;
      }

      .cls-1, .cls-2 {
        stroke: #000;
      }

      .cls-1, .cls-2, .cls-3 {
        stroke-linecap: round;
        stroke-linejoin: round;
      }

      .cls-2 {
        fill: #d6d6d6;
      }

      .cls-3 {
        fill: none;
        stroke: #fff;
        stroke-width: 8px;
      }
    </style>
  </defs>
  <path class="cls-1" d="m95.74,31.47l-.8,7.85s-.1.05-.16.08c-2.86,1.33-12.17,4.8-30.78,4.46-18.96.35-28.27-3.27-30.94-4.54l-.8-7.9c.72,3.76,14.67,6.97,31.74,6.97h.02c17,0,30.87-3.18,31.72-6.92Z"/>
  <path class="cls-1" d="m65.32,106.72c-.46.01-.9.02-1.32.02h0c-.42,0-.86,0-1.32-.02-6.93-.18-18.69-1.77-24.28-6.82v3.43c5.96,5.39,18.95,6.84,25.6,6.84h0c6.65,0,19.64-1.45,25.6-6.84v-3.43c-5.58,5.05-17.35,6.64-24.28,6.82Z"/>
  <path class="cls-2" d="m64,43.86h0c-18.97.34-28.28-3.27-30.94-4.54l5.34,60.58c5.59,5.05,17.35,6.64,24.28,6.82.46.01.9.02,1.32.02h0c.42,0,.86,0,1.32-.02,6.93-.18,18.69-1.77,24.28-6.82l5.34-60.58c-1.56.83-10.74,5.23-30.94,4.54Zm-23.12,55.05l-3.91-54.95,4.74.99,3.7,56.27-4.53-2.32Zm10.43,3.75l-1.96-56.38,4.63.5,1.85,57.05-4.52-1.16Zm14.95,1.99h-4.52v-57.81h4.52v57.81Zm10.43-1.99l-4.52,1.16,1.85-57.05,4.63-.5-1.96,56.38Zm10.43-3.75l-4.52,2.32,3.7-56.27,4.75-.99-3.92,54.95Z"/>
  <polygon class="cls-2" points="64 43.86 64 43.86 64 43.86 64 43.86"/>
  <path class="cls-2" d="m64,43.86c20.2.69,29.38-3.71,30.94-4.54-2.66,1.27-11.97,4.88-30.94,4.54Z"/>
  <path class="cls-1" d="m95.78,31.11l-.03.31s-.01.04-.01.05c-.85,3.74-14.72,6.92-31.72,6.92h-.02c-17.07,0-31.02-3.21-31.74-6.97h0c-.02-.11-.03-.21-.03-.31,0-3.9,14.22-7.07,31.77-7.07s31.78,3.17,31.78,7.07Z"/>
  <polygon class="cls-2" points="73.06 29.95 73.06 26.46 65.32 26.46 57.58 26.46 57.58 29.95 54.76 29.95 54.76 32.27 59.91 32.27 59.91 28.79 65.32 28.79 70.73 28.79 70.73 32.27 75.88 32.27 75.88 29.95 73.06 29.95"/>
  <polygon class="cls-2" points="64 46.84 61.74 46.84 61.74 104.65 64 104.65 66.26 104.65 66.26 46.84 64 46.84"/>
  <polygon class="cls-2" points="49.35 46.28 51.31 102.66 55.83 103.82 53.99 46.78 49.35 46.28"/>
  <polygon class="cls-2" points="36.97 43.97 40.88 98.91 45.41 101.23 41.71 44.96 36.97 43.97"/>
  <polygon class="cls-2" points="78.65 46.28 74.01 46.78 72.16 103.82 76.69 102.66 78.65 46.28"/>
  <polygon class="cls-2" points="91.03 43.97 86.29 44.96 82.59 101.23 87.12 98.91 91.03 43.97"/>
  <rect class="cls-3" x="-910.12" y="-1718.42" width="2244.45" height="5948.74"/>
</svg>