<?xml version="1.0" encoding="UTF-8"?>
<svg id="Calque_1" data-name="Calque 1" xmlns="http://www.w3.org/2000/svg" viewBox="0 0 128 128">
  <defs>
    <style>
      .cls-1 {
        stroke: #000;
      }

      .cls-1, .cls-2 {
        fill: none;
        stroke-linecap: round;
        stroke-linejoin: round;
      }

      .cls-3 {
        fill: #87f3b9;
      }

      .cls-2 {
        stroke: #fff;
        stroke-width: 8px;
      }
    </style>
  </defs>
  <circle class="cls-3" cx="90.22" cy="78.34" r="33.99"/>
  <circle class="cls-3" cx="37.11" cy="78.34" r="33.99"/>
  <path class="cls-1" d="m80.92,29.25c-5.39.72-4.73,6.33-7.97,10.99-.2.29-.43.62-.67.96,2.73,3.2,5.3,7.47,5.92,7.88.52.35,2.45-2.86,2.66-4.43.21-1.58-.55-5.15-1.71-6.72,1.89,1.47,1.82,2.94,2.34,2.94s-.31-2.83,2.2-4.83c-1.67,3.04-1.39,8.69-.97,9.1.42.42,1.46-.39,3.24-.49.94-.06,2.77.21,4.34-1.47-.95,3.07-4.82,2.52-6.3,3.46-1.46.94-2.93,3.67-2.62,4.72.31,1.05,2.78,3.7,5.08,7.07,2.52,3.67,3.62,6.68,4.88,8.28.92,1.17,3.74,2.65,5.93,2.21,1.73-.36,4.83-3.25,3.9-7.73,1.87,2.53-.32,6.04.07,6.29.41.26,1.88-1.3,4.4-1.01-2.96.79-7.17,3.51-7.08,3.75.21.52,2.53.29,3.38,2.86-1.68-1.88-4.36-1.57-5.77-1.78-2.09-.31-3.49-1.12-4.01-.81-.53.31.69,1.94,1.6,6.17.4,1.85,1.03,5.15,2.17,6.86.85,1.27,2.86,4.12,6.3,4.69-5.15.92-5.92-2.72-6.75-2.51-.84.21,1.38,6.52-3.65,9.72,3.42-3.78,1.85-12.39,1.12-12.91-.74-.52-.67,3.07-4.9,3.64,3.78-1.83,4.01-4.91,3.84-7-.3-3.75-1.45-5.81-3.04-9.35-.88-1.95-5.17-8.58-5.49-8.58-.38,0-.12,6.31.23,7.89.25,1.16.68,3.78,2.05,5.95-2.94-1.68-2.78-5.13-2.99-5.34-.21-.21-1.02,2.47-3.36,3.03.89-.57,2.28-2.25,2.83-4.3.2-.72.31-8.04-.84-9.65-.32-.46-4.28-5.17-5.93-6.98-1.32-1.46-3.87-4.52-5.6-6.37-2.19,4.24-4.12,10.18-2.98,17.49,2.13,13.67,14.14,21.62,16.28,29.9,2.13,8.27-5.45,16.32-1.66,20.02,2.77,2.7,8.53,2.4,14.7,3.7,6.16,1.3,14.71,4.69,18.73,2.08,4.03-2.6,1.9-35.39-4.26-52.37-6.16-16.98-21.57-38.1-29.64-37.02Z"/>
  <path class="cls-1" d="m49.61,56.73c-.54,1.8-.78,6.65-.24,10.24.17,1.12.72,8.98,5.56,10.6-5.2-.81-5.2-5.02-5.56-4.76-.36.27.09,2.61-2.87,4.49,2.24-3.86,1.97-6.23,1.7-7.36-.35-1.53-1.16-6.29-1.8-6.29s-2.02,4.59-2.78,6.47c-1.62,3.95-3.78,7.18-4.49,8.88-.5,1.18-2.79,7.82.36,10.24-3.96-2.25-2.39-6.66-2.97-6.82-.63-.18-2.87,3.77-5.48,6.55-1.61,1.72-5.75,4.4-7.18,8.71.09-4.59,3.95-7.81,5.38-8.98,1.44-1.17,3.05-4.22,2.87-4.58-.17-.35-1.61,0-2.69.36-1.07.36-3.86,1.35-6.73.9,1.44-.28,3.6-.99,3.86-1.27.27-.27-3.5-1.16-2.61-5.48.63,4.04,3.71,4.44,4.59,4.32,1.88-.28,4.85-1.8,7.36-4.58,2.25-2.49,7.9-18.5,7.72-19.03-.18-.54-4.04.27-5.75.99-1.66.69-4.49,2.78-4.14,5.2-1.07-1.62.46-3.5.18-3.77-.27-.28-2.78.89-4.94-.72,4.31.99,10.33-2.96,10.24-3.77-.09-.91-7.54-1.89-5.3-8.17-.27,3.77,2.24,4.66,2.61,4.49.36-.18-.54-4.85,4.4-8.53-3.51,4.21-3.06,8.55-2.43,9.25.89.99,4.44,1.36,7.81-1.17,1.01-.75,5.69-7.64,9.08-12.01-2.35-4.77-.43-11.42-7.23-11.84-8.3-.52-23.08,16.98-30.48,40.92-7.4,23.94-7.4,45.71-4.36,47.89,3.05,2.18,20.02-2.61,26.56-3.48,6.53-.87,13.5-.87,15.68-3.48,2.17-2.62,3.45-24.57,3.48-31.78.07-12.99-.5-25.7-1.97-33-2.74,3.18-7.17,9.35-7.48,10.39Z"/>
  <path class="cls-1" d="m67.6,29.3c.82-.55.72-3.65.32-4.19-.51-.66-.84.91-4.07.84-3.23-.08-3.7-1.21-4.34-.95-.7.28-.72,3.27-.04,3.95,1.48,1.51,6.39,1.52,8.14.34Z"/>
  <path class="cls-1" d="m68.11,18.94c-.53-.34-1.73,1.12-4.47,1.08-2.74-.03-3.89-1.28-4.38-1.08-.47.19-.4,3.14-.09,3.53.66.84,2.6,1.43,4.47,1.46,1.56.03,3.39-.3,4.21-1.15.37-.37.73-3.52.26-3.84Z"/>
  <path class="cls-1" d="m59.42,35.16c1.4,1.4,6.77,2.02,8.62-.22.43-.53.19-3.82-.21-4-.5-.22-1.37.79-4,.79-3.61,0-3.61-.91-4.16-.78-.87.21-.99,3.46-.25,4.2Z"/>
  <path class="cls-1" d="m57.57,45.51c.47-.54.88-.99,1.21-1.29.22-.21.25-.54.08-.78-.79-1.09-1.46-2.08-2-3.09-.09-.16-.32-.19-.43-.04-.12.16-.25.32-.38.48.04.1.1.21.16.31.53.98.99,2.49,1.37,4.42Z"/>
  <path class="cls-1" d="m59.11,16.72c.76.53,2.71,1.07,4.26,1.04,1.38-.02,4.13-.67,4.75-1.62.61-.95.85-11.65,0-11.83-.85-.19-2.45,7.66-5.06,7.93-3.9.38-4.19-4.82-5.45-4.5-.62.16.07,4.2.3,5.22.18.86.64,3.35,1.21,3.76Z"/>
  <path class="cls-1" d="m70.35,39.77c-.1-.1-.28-.09-.36.03-.93,1.28-1.46,2.31-1.94,3.52-.07.16-.03.35.1.47.25.23.54.54.88.9.78-1.52,1.6-2.81,2.29-3.84-.32-.38-.65-.75-.97-1.09Z"/>
  <path class="cls-1" d="m67.41,40.55c.41-.74,1.25-1.63,1.62-2.19.28-.44-.22-2.09-.72-2.17-.48-.08-1.9,1.34-4.7,1.37-2.81.04-4.37-1.45-4.82-1.26-.47.19-.98,2.02-.66,2.78.14.34,2.21,3.94,2.74,4.09.53.15,1.46-.4,2.56-.4,1.42,0,2.29.39,2.69.29.52-.13.77-1.58,1.3-2.52Z"/>
  <rect class="cls-2" x="-1378.17" y="-963.94" width="6467.34" height="6437.3"/>
</svg>