<?xml version="1.0" encoding="UTF-8"?>
<svg id="Calque_1" data-name="Calque 1" xmlns="http://www.w3.org/2000/svg" viewBox="0 0 128 128">
  <defs>
    <style>
      .cls-1 {
        fill: #d6d6d6;
      }

      .cls-1, .cls-2, .cls-3, .cls-4 {
        stroke: #000;
      }

      .cls-1, .cls-2, .cls-3, .cls-4, .cls-5 {
        stroke-linecap: round;
        stroke-linejoin: round;
      }

      .cls-2 {
        fill: #ff6d75;
      }

      .cls-3 {
        fill: #fff;
      }

      .cls-4 {
        fill: #fab0b4;
      }

      .cls-5 {
        fill: none;
        stroke: #fff;
        stroke-width: 8px;
      }
    </style>
  </defs>
  <path class="cls-1" d="m64.5,76.97c-1.51.92-3.1,1.35-4.83,1.53-1.12.12-1.41-1.52-.31-1.79.4-.14,2.06-.45,3.71-1.82,2.11-1.72,3.39-4.36,4.12-7.02.49-1.78.7-3.66.69-4.06-.04-1.29.98-2.37,2.27-2.41,1.48-.04,2.63,1.28,2.38,2.75-.15.88-3.66,10.21-8.03,12.82Z"/>
  <path class="cls-1" d="m58.39,107.91c0,6.65-5.39,12.04-12.04,12.04s-12.04-5.39-12.04-12.04c0-6.65,5.39-12.04,12.04-12.04s12.04,5.39,12.04,12.04Z"/>
  <path class="cls-3" d="m54.18,107.91c0,4.32-3.5,7.82-7.82,7.82-4.32,0-7.82-3.5-7.82-7.82,0-4.32,3.5-7.82,7.82-7.82,4.32,0,7.82,3.5,7.82,7.82Z"/>
  <ellipse class="cls-1" cx="86.95" cy="112.63" rx="7.84" ry="7.38"/>
  <polygon class="cls-4" points="78.36 100.54 95.42 102.49 101.95 87.17 66.09 84.45 78.36 100.54"/>
  <path class="cls-1" d="m46.36,110.03c-.26,0-.52-.06-.75-.2-.75-.42-1.01-1.36-.59-2.11l14.94-26.63c.42-.74,1.36-1.01,2.11-.59.75.42,1.01,1.36.59,2.11l-14.94,26.63c-.28.51-.81.79-1.35.79Z"/>
  <path class="cls-1" d="m86.08,112.18l2.09-10.24,4.55.85-4.62,10.24c-.43.95-1.41.6-1.34.6-.52-.22-.81-.84-.69-1.45Z"/>
  <path class="cls-1" d="m98.72,102.58c-.04.5-.47.88-.95.88-.03,0-.07,0-.1-.01l-19.8-1.99-.26-.31L23.24,33.86c-.11-.14-.18-.31-.2-.49-3.5,1.55-5.69,3.33-5.73,3.36-.22.19-.51.26-.78.21-.22-.03-.43-.14-.58-.33-.34-.41-.29-1.02.12-1.37.38-.31,9.41-7.67,20.82-5.75.52.09.88.59.79,1.12-.09.52-.59.88-1.11.79-4.43-.74-8.54.07-11.8,1.27l54.07,66.95,19,1.91c.53.06.92.53.87,1.06Z"/>
  <path class="cls-3" d="m38.54,53.46h70.95s-1.68,6.39-1.68,6.39c-.72,2.73-3.19,4.63-6.01,4.63h-54.37c-2.47,0-4.7-1.46-5.69-3.72l-3.19-7.3Z"/>
  <path class="cls-1" d="m103.58,53.46l-.67,2.54c-.72,2.73-3.18,4.63-6.01,4.63h-54.37c-.3,0-.6-.02-.89-.06l.08.19c.99,2.26,3.22,3.72,5.69,3.72h54.37c2.82,0,5.29-1.9,6.01-4.63l1.68-6.39h-5.9Z"/>
  <polygon class="cls-2" points="79.71 9.7 82.22 10.35 80.48 55.78 79.71 55.78 79.71 9.7"/>
  <polygon class="cls-4" points="82.22 10.35 106.78 20.16 80.48 55.78 82.22 10.35"/>
  <polygon class="cls-4" points="113.45 42.4 106.78 20.16 80.48 55.78 113.45 42.4"/>
  <polygon class="cls-4" points="109.48 53.46 80.48 55.78 113.45 42.4 109.48 53.46"/>
  <path class="cls-4" d="m38.54,53.46s6.98-7.6,17.49-9.34c10.5-1.74,13.21-1.72,13.21-1.72l10.37,11.18-41.07-.12Z"/>
  <path class="cls-2" d="m72.14,38.76l-2.9,3.63,10.37,11.18s-2.89-14.81-7.47-14.81Z"/>
  <path class="cls-1" d="m82.22,55.78c0,.96-.78,1.74-1.74,1.74s-1.74-.78-1.74-1.74c0-.96.78-1.74,1.74-1.74s1.74.78,1.74,1.74Z"/>
  <rect class="cls-5" x="-584.59" y="-78.92" width="1215" height="875.1"/>
</svg>