<?xml version="1.0" encoding="UTF-8"?><svg id="Calque_1" xmlns="http://www.w3.org/2000/svg" viewBox="0 0 128 128"><defs><style>.cls-1,.cls-2,.cls-3,.cls-4,.cls-5,.cls-6{stroke-linecap:round;}.cls-1,.cls-2,.cls-4{stroke-linejoin:round;}.cls-1,.cls-7,.cls-4,.cls-5,.cls-6{stroke:#000;}.cls-1,.cls-6{fill:#ff6d75;}.cls-2{stroke:#e30613;stroke-width:8px;}.cls-2,.cls-7{fill:none;}.cls-7,.cls-3,.cls-5,.cls-6{stroke-miterlimit:10;}.cls-3{stroke:#ff6d75;}.cls-3,.cls-4,.cls-5{fill:#fff;}</style></defs><rect class="cls-2" x="-1054.55" y="-816.91" width="2655.08" height="1511.77"/><path class="cls-7" d="m40.09,19.22s11.06-6.85,18.93,4.07"/><path d="m52.64,21.22c.08-.21.31-.31.52-.23l5.72,2.17-.45-6.1c-.02-.22.15-.41.37-.43.22-.02.41.15.43.37l.5,6.73c0,.14-.05.27-.16.35-.11.08-.25.1-.38.05l-6.31-2.4c-.07-.03-.13-.08-.18-.13-.08-.11-.1-.25-.05-.38Z"/><circle class="cls-5" cx="24.03" cy="28.36" r="20.94"/><path class="cls-5" d="m46.95,52.35h.01l.81-.71c-.25.22-.53.46-.83.71Z"/><path class="cls-5" d="m34.1,74.88c1.68,1.31,16.1,6.27,21.59,6.27,5.49,0,1.34-11.32,1.34-11.32-.56-.1-14.27-1.97-14.27-1.97,0,0,6.87-7.78,9.78-11.24,1.17-.13,3.45-.66,5.94-2.64,3.64-2.89,6.7-15.07,4.48-16-2.24-.94-4.01,2.51-4.01,2.51-2.14-.53-3.08,1.65-3.15,1.86.1-.03.58-.18-.94.75-1.68,1.03-4.93,6.7-4.93,6.7l-.62.55c-.06.05-.19.17-.37.32l-1.14.98-.81.71h-.01c-4.7,4.06-14.76,12.93-15.55,15.28-1.02,3.06,1.03,5.95,2.7,7.25Z"/><path class="cls-5" d="m48.92,50.66l.37-.32c-.06.05-.19.17-.37.32Z"/><path class="cls-4" d="m75.24,24.11c-4.18.18-6.86,3.13-12.32,3.16,0,0-5.88-1-8.54,1.47-1.49,1.38-1.68,3.94-.85,5.61,0,0-.02-.35-1.29.24-1.27.59-2.15,1.5-2.45,2.5-.33,1.09-.64,4.07,1.42,5.3-1.19,2.17,3.76,6.88,5.1,7.96,1.93,1.56,2.24,1.21,4.7,1.02"/><path class="cls-4" d="m85.31,54.08l4.74,14.99-15.32,7.64-2.33-8.02s-9.26,2.6-12.76-6.1c-1.74-4.33-2.85-14.15-3.84-20.25"/><path class="cls-4" d="m85.31,54.08s1.78-.85,3.93-4.28c2.15-3.43,3.58-9.77,1.22-16-2.36-6.23-7.38-6.45-7.38-6.45,0,0-1.82-3.67-7.84-3.24"/><path class="cls-4" d="m85.31,54.08c-1.56.39-2.2-2.15-3.5-3.09-4.54-3.3-5.79-9.06-6.77-14.59-.32.71-.28,1.52-.36,2.3-.08.78-.35,1.62-1.04,1.99-1.15.62-2.5-.52-2.99-1.73-.49-1.21-.6-2.62-1.47-3.58-.81,2.09-2.11,3.99-3.76,5.51-.78.72-1.87,1.38-2.83.93-.68-.32-1.02-1.12-1.01-1.87,0-.75.3-1.46.59-2.15-1.1,1.97-2.78,3.61-4.78,4.65-.44.23-.97.43-1.42.21-.65-.32-.63-1.25-.44-1.94"/><path class="cls-5" d="m63.62,51.67c.04-.08-.16-.3-.58-.48-.42-.18-1.08-.29-1.76-.12-.68.17-1.19.58-1.45.93-.26.35-.31.63-.23.68"/><path class="cls-5" d="m74.73,49.88c.04-.08-.15-.3-.57-.49-.41-.19-1.07-.31-1.76-.15-.69.16-1.2.56-1.46.91-.27.35-.32.63-.24.68"/><path class="cls-5" d="m70.24,61.73c.04-.63.26-1.09.77-1.49,1.18-.95,2.6-.84,3.64-.23.22.13.44.31.48.56.05.29-.15.58-.4.73-.25.15-.55.21-.83.29s-.58.2-.76.43c-.13.16-.18.37-.28.55-.3.56-1.04.83-1.64.63-.6-.2-1.02-.84-.99-1.47Z"/><path class="cls-5" d="m88.28,37.71c.34.03.56.05.56.02,0-.02-.21-.07-.55-.13"/><path class="cls-4" d="m90.29,32.36c-.49-.88-2.11-1.39-2.11-1.39-.08-.01-.13-.01-.19-.03h-.01c-3.13.2-2.72,2.63-2.72,2.63l3.28.42,1.18.64m.57-2.28-2.29-1.49,1.61,3.79s.04-.03.1-.03c-1.68-.42-2.16.03-2.7.36-.29.19-.5.43-.62.69-.33.64-.09,1.41.53,1.77l.2.11h1.54v1.04s1.88,7.4,3.69,8.52c.85.53,1.86.71,2.7.78l14.53,13.48c-.08.01-1.11.57-2.49,1.33,1.13,4.09,3.11,7.46,7.3,11.3,2.43-1.58,5.2-3.38,7.76-5.1,3.46-2.3,3.97-5.09,3.65-7.25-.27-1.81-1.2-3.45-2.53-4.68-6.79-6.22-18.13-12.69-22.99-15.33l-1.46-.8-.88-.5-6.56-9.56s-1.11-1.88-2.51-2.35c-1.4-.48-3.2,1.23-3.2,1.23,0,0-.74.9,1.42,1.41"/><polygon class="cls-6" points="60.59 85.7 60.59 85.7 60.55 85.8 60.59 85.7"/><path class="cls-1" d="m63.34,95.17l-3.32,29.18s6.57,0,20.32,0h25.49s-3.18-39.35-3.18-39.35l12.54-10.27c-.28-.24-.55-.48-.8-.71-4.18-3.84-6.17-7.21-7.3-11.3-.13-.42-.23-.86-.33-1.31l-8.51,4.51c-1.95-1.3-4.3,1.51-4.3,1.51l-4.32-.32s-2.25,4.46-9.4,4.46c-5.8,0-7.41-2.37-7.41-2.37l-6.15.09h-.15c-.32,0-1.07.01-1.6.08-.7.08-13.26-.85-13.26-.85l-2.89,13.1,11.88,4.03,1.74.81.95,8.71Z"/><path class="cls-4" d="m82.11,44.65s2.39-2.29,3.71,1.75c1.32,4.04-1.21,3.7-1.21,3.7"/><path class="cls-3" d="m81.02,21.6s1.07-7.77,9.03-9.18"/><path class="cls-3" d="m94.98,24.97s-4.34-1.3-9.26,0"/><path class="cls-3" d="m73.66,22.17s-3.41-6.39-10.04-8.13"/><circle cx="86.39" cy="22.27" r=".67"/><circle cx="78.92" cy="16.64" r="1.04"/><circle cx="75.68" cy="20.52" r=".72"/><path class="cls-4" d="m67.11,49.17s-2.6,8.03,0,7.15"/><path class="cls-5" d="m86.32,36.71s-1.81-.1-4.34,1.12"/><path class="cls-5" d="m85.72,31.89s-2.65-1.36-4.81,0"/><path class="cls-5" d="m72.4,68.69s5.02-.97,7.56-4.57"/><path class="cls-4" d="m89.71,34.64s1.23.6,1.96,1.76"/><path d="m11.39,38.86c.05,0,.08,0,.08,0,2.17,1.21,2.72-.6,2.72-.6,0,0,0,1.01,2.15.48,2.14-.53,1.97-2.32,1.97-2.32,0,0,.59,1.47,1.71.98s1.63-2.32,1.63-2.32c.78.46,1.77.28,2.33-.44.42-.54.67-1.11.67-1.11,1.89.72,1.88-1.86,1.88-1.86,1.47.29,1.44-1.7,1.44-1.7l.24-.16s0,0,0,0c-.04.19,0,.39.07.57.17.46.56.85,1.03,1.01-.24.23-.36.58-.31.92s.26.64.55.8c-.53.2-1.12.26-1.68.18-.08-.01-.17-.02-.25,0-.08.03-.14.13-.1.2.05.09.17.08.27.07.1,0,.23.03.23.13,0,.09-.12.12-.2.12-.19,0-.39-.05-.54-.16s-.25-.31-.23-.5c.02-.19.18-.36.37-.37-.41-.03-.77.39-.76.8,0,.42.31.79.69.97.37.18.81.19,1.22.14.49-.06.99-.23,1.35-.56.37-.33.58-.86.46-1.34.37-.05.66-.42.69-.79.03-.38-.14-.75-.39-1.04-.25-.28-.58-.49-.91-.68.31-.23.52-.59.55-.98.02-.26-.03-.52-.15-.75l.69-.45c.14.62.54,1.19,1.09,1.52.12.07.26.14.34.25.07.1.1.22.13.33.17.54.55,1.01,1.05,1.27-.22.2-.36.5-.36.8,0,.3.12.6.34.81-.14.05-.29.14-.35.28-.06.14.01.35.17.36.06,0,.11-.02.17-.02.2-.01.35.22.31.41s-.24.32-.44.34c-.2.01-.39-.07-.56-.18.18.33.56.54.94.52.37-.02.73-.26.88-.6.15-.34.09-.77-.15-1.06.49-.71.4-1.76-.2-2.39.21-.44.04-.98-.29-1.34-.33-.35-.8-.55-1.26-.7.12-.53-.03-1.12-.4-1.52l.11-.07c.18-.17.33-.35.45-.53.05.03.1.06.16.08.24.11.52.22.76.11.03.3.52.32.63.6.03.09.02.19.02.28-.02.53.31,1.04.75,1.34.44.3.97.43,1.5.48.42.43,1.1.58,1.65.37,0,0,1.32.64,1.69-.4,0,0,.29-.33.03-.71,0,0,.21.57-.57.29-.77-.29-.52-.73-.44-.84.08-.11.13-.25.13-.25,0,0-.31-.06-.48.25-.17.3.01.71.01.71-.35-.43-1-.58-1.5-.35-.12-.57-.51-1.09-1.04-1.34-.14-.07-.28-.12-.4-.22-.13-.12-.2-.3-.29-.46-.26-.48-.71-.86-1.24-1.02-.17-.29-.45-.52-.78-.62,0-.16,0-.25,0-.25l.5.13c.69.18,1.42-.13,1.74-.76.01-.02.02-.05.03-.07.22.16.55.15.73-.05.1.27.41.45.69.4-.02.18.17.31.34.37.29.11.59.26.78.1,0,0,.7.5.88.1.04-.09.2,0,.29-.05.09-.04.16-.13.15-.23,0-.1-.09-.17-.23-.16-.14,0-.23.04-.37.08-.1-.25-.44-.37-.67-.23-.11-.29-.41-.45-.81-.35-.2-.32-.57-.53-.94-.54,0-.01-.01-.02-.02-.03,0-.02,0-.03,0-.05v.02c-.09-.16-.23-.29-.38-.38.4-.25.46-.62.46-.83h0s0,0,0,0c0-.09-.01-.15-.01-.15.49-.41.03-.87.03-.87-.06-.12-.26-.4-.78-.12-.04-.03-.07-.06-.11-.09l.03.05c-.16-.1-.56-.28-1.01,0,0-.2-.08-.41-.2-.57.16-.34.15-.76-.04-1.08.23-.22.26-.62.06-.88.23-.14.29-.5.11-.71.1-.11.17-.17.24-.29.07-.12.05-.24-.04-.28-.08-.05-.2-.03-.28.03-.08.06-.08.24-.18.23-.44-.02-.32.83-.32.83-.23.1-.23.43-.27.74-.02.18,0,.41.17.47-.17.23-.16.58.04.8-.26.06-.42.36-.38.62-.03,0-.05,0-.08,0-.71,0-1.32.5-1.48,1.2l-.12.51s-.08-.05-.23-.12c.06-.33,0-.69-.19-.97.1-.54-.03-1.11-.34-1.57-.1-.15-.23-.29-.27-.47-.04-.15-.02-.3-.01-.45.01-.58-.26-1.17-.71-1.54.43-.34.6-.98.38-1.49,0,0,.28.35.62.34.35-.01.44-.31.44-.31,0,0-.15-.01-.28,0-.13.02-.64.04-.54-.78.1-.82.51-.37.51-.37-.22-.4-.65-.3-.65-.3-1.09-.15-1.14,1.31-1.14,1.31-.44.4-.62,1.07-.43,1.64-.2.49-.33,1.03-.26,1.56.07.53.37,1.05.85,1.28.09.04.18.07.24.15.2.22,0,.67.25.83-.21.16-.24.46-.25.72,0,.06,0,.12,0,.18-.21.03-.44.08-.68.16l-.07.04c-.21-.47-.64-.84-1.13-.97.08-.48.12-.98-.04-1.44-.16-.46-.57-.86-1.05-.88-.28-.82-1.17-1.39-2.03-1.28-.15-.35-.5-.6-.87-.62-.37-.02-.75.18-.94.5-.19.32-.17.76.03,1.07-.02-.2,0-.41.1-.58s.31-.28.5-.23c.19.05.32.29.22.46-.03.05-.07.09-.1.14-.06.14.09.3.24.31.15,0,.29-.08.41-.18.08.29.29.54.56.68.27.14.59.16.87.05,0,.56.24,1.12.65,1.52.09.08.18.16.23.27.06.13.06.28.07.42.03.58.3,1.14.72,1.55-.2.13-.4.26-.6.4-.15-.26-.39-.48-.67-.59-.36-.15-.78-.13-1.12.04-.02-.38-.05-.77-.19-1.12-.14-.36-.39-.68-.74-.83-.35-.14-.8-.06-1.02.25-.37-.33-.94-.38-1.4-.21-.47.17-.84.53-1.12.94-.24.34-.42.73-.44,1.15s.18.86.54,1.06.9.07,1.06-.3c-.1.16-.32.22-.5.16-.18-.07-.3-.25-.33-.43s.01-.38.1-.55c.04-.08.12-.16.2-.12.09.04.06.18,0,.26s-.12.19-.06.27c.05.07.16.06.22,0,.06-.05.09-.14.12-.22.19-.54.52-1.02.94-1.41,0,.34.19.66.46.86.27.19.64.25.96.15-.07.49.09,1.01.42,1.38.13.14.29.27.48.32.1.03.2.03.29.01l-.53.3s-1.73-.94-2.17.48l-.02-.03s.01.03.02.04c0,0,0,0,0,0,0,0-2.28-1.19-2.52.8l-.15-.22c.04.08.08.15.13.23-.2-.01-2.03-.07-2.62,1.18l-.11.74-.09-.15c.03.06.06.11.09.17-.07-.01-1.88-.37-2.81.38-.95.76.08,1.96.08,1.96,0,0-1.51-.98-2.97.68-1.46,1.66-.57,2.13-.57,2.13,0,0-1.86-.34-1.78,2.14,0,0-1.5,2.77-1.23,3.01.08.3,2.61.39,3.3.41.09.11.18.22.28.32l-.19-.32Z"/></svg>