<?xml version="1.0" encoding="UTF-8"?>
<svg id="Calque_1" data-name="Calque 1" xmlns="http://www.w3.org/2000/svg" viewBox="0 0 128 128">
  <defs>
    <style>
      .cls-1 {
        fill: #76ac75;
      }

      .cls-1, .cls-2 {
        stroke: #000;
        stroke-width: 2px;
      }

      .cls-1, .cls-2, .cls-3 {
        stroke-linecap: round;
        stroke-linejoin: round;
      }

      .cls-2, .cls-3 {
        fill: none;
      }

      .cls-3 {
        stroke: #fff;
        stroke-width: 8px;
      }
    </style>
  </defs>
  <path class="cls-1" d="m63.28,53.22h-1.91c-3.11,0-5.66-2.55-5.66-5.66v-6.72c0-3.11,2.55-5.66,5.66-5.66h1.91c1.27,0,2.44.42,3.39,1.13,1.38,1.03,2.27,2.68,2.27,4.52v6.72c0,3.11-2.55,5.66-5.66,5.66Z"/>
  <rect class="cls-1" x="60.5" y="31.58" width="3.61" height="3.61"/>
  <path class="cls-1" d="m62.54,16.15h0c2.7,0,4.89,2.19,4.89,4.89v10.54h-9.79v-10.54c0-2.7,2.19-4.89,4.89-4.89Z"/>
  <g>
    <g>
      <path class="cls-2" d="m67.9,36.71s1.42-2.69,3.76-3.53,6.73-.52,6.73-.52c0,0-1.28-1.96-1.24-3.8s.7-3.17.7-3.17"/>
      <path class="cls-2" d="m69.5,39.27s2.7-2.67,5.81-2.8,8.21,1.91,8.21,1.91c0,0-.79-2.82-.05-4.98s2.02-3.51,2.02-3.51"/>
      <path class="cls-2" d="m69.5,41.55s3.42,1.52,6.52,1.64c3.1.13,7.5-.75,7.5-.75,0,0-.79,2.82-.05,4.98s2.02,3.51,2.02,3.51"/>
    </g>
    <g>
      <path class="cls-2" d="m56.86,36.71s-1.42-2.69-3.76-3.53-6.73-.52-6.73-.52c0,0,1.28-1.96,1.24-3.8-.05-1.84-.7-3.17-.7-3.17"/>
      <path class="cls-2" d="m55.26,39.27s-2.7-2.67-5.81-2.8-8.21,1.91-8.21,1.91c0,0,.79-2.82.05-4.98-.74-2.17-2.02-3.51-2.02-3.51"/>
      <path class="cls-2" d="m55.26,41.55s-3.42,1.52-6.52,1.64c-3.1.13-7.5-.75-7.5-.75,0,0,.79,2.82.05,4.98-.74,2.17-2.02,3.51-2.02,3.51"/>
    </g>
  </g>
  <polyline class="cls-2" points="58.72 18 53.42 15.52 53.42 8.83"/>
  <polyline class="cls-2" points="66.85 18 72.15 15.52 72.15 8.83"/>
  <path class="cls-1" d="m88.42,73.93c0,16.24-11.69,40.56-26.11,40.56s-26.11-24.32-26.11-40.56,11.69-29.41,26.11-29.41,26.11,13.17,26.11,29.41Z"/>
  <rect class="cls-3" x="-3980.53" y="-2750.5" width="6467.34" height="6437.3"/>
</svg>