<?xml version="1.0" encoding="UTF-8"?>
<svg id="Calque_1" data-name="Calque 1" xmlns="http://www.w3.org/2000/svg" viewBox="0 0 200 128">
  <defs>
    <style>
      .cls-1 {
        fill: #d6d6d6;
      }

      .cls-1, .cls-2, .cls-3, .cls-4, .cls-5 {
        stroke: #000;
      }

      .cls-1, .cls-2, .cls-3, .cls-4, .cls-5, .cls-6 {
        stroke-linecap: round;
        stroke-linejoin: round;
      }

      .cls-2 {
        fill: #87ccf3;
      }

      .cls-3 {
        fill: #b2f0e9;
      }

      .cls-4 {
        fill: #ff6d75;
      }

      .cls-5 {
        fill: #fff;
      }

      .cls-6 {
        fill: none;
        stroke: #fff;
        stroke-width: 8px;
      }
    </style>
  </defs>
  <g>
    <polygon class="cls-1" points="4.24 53.36 29.98 43.38 71.97 40.3 71.97 53.36 4.24 53.36"/>
    <polygon class="cls-1" points="195.76 53.36 170.28 43.38 128.7 40.3 128.7 53.36 195.76 53.36"/>
    <rect class="cls-1" x="7.45" y="53.36" width="185.2" height="60.97"/>
    <rect class="cls-1" x="4.24" y="53.36" width="42.26" height="1.96"/>
    <rect class="cls-1" x="153.49" y="53.36" width="42.26" height="1.96"/>
    <rect class="cls-1" x="44.31" y="53.36" width="108.71" height="1.96"/>
    <polygon class="cls-5" points="80.14 101.95 70.01 101.95 71.74 51.22 78.42 51.22 80.14 101.95"/>
    <rect class="cls-5" x="67.18" y="101.95" width="15.81" height="4.62" rx="2.31" ry="2.31"/>
    <polygon class="cls-5" points="130.15 101.95 120.02 101.95 121.75 51.22 128.42 51.22 130.15 101.95"/>
    <rect class="cls-5" x="117.19" y="101.95" width="15.81" height="4.62" rx="2.31" ry="2.31"/>
    <polygon class="cls-5" points="156.93 109.64 146.81 109.64 148.53 51.22 155.21 51.22 156.93 109.64"/>
    <rect class="cls-5" x="143.97" y="109.64" width="15.81" height="4.62" rx="2.31" ry="2.31"/>
    <rect class="cls-1" x="68.71" y="106.57" width="64.29" height="1.94"/>
    <rect class="cls-1" x="67.14" y="108.51" width="67.44" height="1.94"/>
    <rect class="cls-1" x="65.38" y="110.45" width="70.97" height="1.94"/>
    <rect class="cls-1" x="64.19" y="112.39" width="73.34" height="1.94"/>
    <rect class="cls-5" x="86.91" y="85.39" width="26.29" height="21.18"/>
    <rect class="cls-1" x="88.45" y="86.86" width="10.84" height="19.71"/>
    <rect class="cls-1" x="100.96" y="86.86" width="10.54" height="19.71"/>
    <polygon class="cls-5" points="53.37 109.64 43.24 109.64 44.96 51.22 51.64 51.22 53.37 109.64"/>
    <rect class="cls-5" x="40.4" y="109.64" width="15.81" height="4.62" rx="2.31" ry="2.31"/>
    <rect class="cls-3" x="12.71" y="60.42" width="8.72" height="13.28"/>
    <rect class="cls-3" x="27.63" y="60.42" width="8.72" height="13.28"/>
    <rect class="cls-3" x="27.63" y="82.97" width="8.72" height="13.28"/>
    <rect class="cls-3" x="57.24" y="59.7" width="9.95" height="14.7"/>
    <rect class="cls-3" x="57.85" y="82.97" width="8.72" height="13.28"/>
    <rect class="cls-3" x="12.71" y="82.97" width="8.72" height="13.28"/>
    <rect class="cls-3" x="163.76" y="60.42" width="8.72" height="13.28"/>
    <rect class="cls-3" x="178.68" y="60.42" width="8.72" height="13.28"/>
    <rect class="cls-3" x="178.68" y="82.97" width="8.72" height="13.28"/>
    <rect class="cls-3" x="163.76" y="82.97" width="8.72" height="13.28"/>
    <rect class="cls-3" x="134.12" y="60.42" width="8.72" height="13.28"/>
    <rect class="cls-3" x="105.93" y="60.42" width="8.72" height="13.28"/>
    <rect class="cls-3" x="84.89" y="59.7" width="9.95" height="14.7"/>
    <rect class="cls-3" x="134.12" y="82.97" width="8.72" height="13.28"/>
    <polygon class="cls-1" points="156.5 51.77 43.64 51.77 43.64 40.03 100.07 13.67 156.5 40.03 156.5 51.77"/>
    <polygon class="cls-1" points="163.14 42.88 156.46 42.88 100.07 19.27 43.64 42.88 36.96 42.88 100.03 13.69 100.05 13.68 100.07 13.69 163.14 42.88"/>
    <polygon class="cls-1" points="100.07 13.67 100.07 13.69 100.05 13.68 100.07 13.67"/>
    <polygon class="cls-1" points="100.05 13.68 100.03 13.69 100.03 13.67 100.05 13.68"/>
    <rect class="cls-5" x="43.26" y="55.96" width="10.1" height="4.19" rx="2.09" ry="2.09"/>
    <path class="cls-5" d="m54.76,51.76v2.39c0,1-.81,1.8-1.81,1.8h-9.29c-1,0-1.8-.81-1.8-1.8v-2.39h12.89Z"/>
    <rect class="cls-5" x="70.04" y="55.96" width="10.1" height="4.19" rx="2.09" ry="2.09"/>
    <path class="cls-5" d="m81.54,51.76v2.39c0,1-.81,1.8-1.81,1.8h-9.28c-1,0-1.81-.81-1.81-1.8v-2.39h12.9Z"/>
    <rect class="cls-5" x="146.83" y="55.96" width="10.1" height="4.19" rx="2.09" ry="2.09"/>
    <path class="cls-5" d="m158.33,51.76v2.39c0,1-.81,1.8-1.8,1.8h-9.28c-1,0-1.81-.81-1.81-1.8v-2.39h12.89Z"/>
    <rect class="cls-5" x="120.04" y="55.96" width="10.1" height="4.19" rx="2.09" ry="2.09"/>
    <path class="cls-5" d="m131.54,51.76v2.39c0,1-.81,1.8-1.8,1.8h-9.28c-1,0-1.81-.81-1.81-1.8v-2.39h12.89Z"/>
    <polygon class="cls-5" points="163.15 42.88 163.15 48.99 161.58 48.99 161.58 53.36 38.57 53.36 38.57 48.99 36.96 48.99 36.96 42.88 163.15 42.88"/>
    <path class="cls-5" d="m100.96,94.69h.1c1.05,0,1.9.85,1.9,1.9h0c0,1.05-.85,1.9-1.9,1.9h-.1v-3.81h0Z"/>
    <path class="cls-5" d="m97.34,94.69h.1c1.05,0,1.9.85,1.9,1.9h0c0,1.05-.85,1.9-1.9,1.9h-.1v-3.81h0Z" transform="translate(196.68 193.19) rotate(180)"/>
    <rect class="cls-5" x="127.99" y="20.24" width="7.18" height="10.97"/>
    <g>
      <rect class="cls-2" x="117.22" y="19.99" width="7.18" height="10.97"/>
      <rect class="cls-4" x="131.58" y="19.99" width="7.18" height="10.97"/>
      <line class="cls-5" x1="117.23" y1="30.97" x2="117.23" y2="42.63"/>
      <rect class="cls-5" x="124.4" y="19.99" width="7.18" height="10.97"/>
    </g>
    <g>
      <rect class="cls-2" x="64.31" y="19.99" width="7.18" height="10.97"/>
      <rect class="cls-4" x="78.67" y="19.99" width="7.18" height="10.97"/>
      <rect class="cls-5" x="71.49" y="19.99" width="7.18" height="10.97"/>
      <line class="cls-5" x1="85.85" y1="30.97" x2="85.85" y2="42.63"/>
      <rect class="cls-5" x="71.49" y="19.99" width="7.18" height="10.97"/>
    </g>
    <g>
      <path d="m78.35,48.66c-.29.24-.71.36-1.25.36h-1.03v1.79h-1.03v-4.97h2.13c.49,0,.88.13,1.18.38.29.26.44.65.44,1.19,0,.59-.15,1-.44,1.24Zm-.79-1.79c-.13-.11-.32-.17-.55-.17h-.94v1.46h.94c.24,0,.42-.06.55-.18s.2-.31.2-.57-.07-.44-.2-.55Z"/>
      <path d="m83.49,45.97c.18.08.34.19.46.35.11.13.19.27.25.42s.09.33.09.52c0,.24-.06.47-.18.7s-.32.39-.59.48c.23.09.39.22.49.39s.14.43.14.78v.33c0,.23,0,.38.03.46.03.13.09.22.19.28v.12h-1.15c-.03-.11-.05-.2-.07-.27-.03-.14-.04-.28-.04-.43v-.46c-.01-.32-.07-.53-.17-.63-.11-.11-.3-.16-.59-.16h-1.01v1.95h-1.01v-4.97h2.38c.34,0,.6.05.78.13Zm-2.15.74v1.34h1.12c.22,0,.39-.03.5-.08.2-.09.29-.28.29-.56,0-.3-.09-.5-.28-.61-.11-.06-.27-.09-.48-.09h-1.15Z"/>
      <path d="m89.66,46.72h-2.63v1.06h2.41v.86h-2.41v1.28h2.75v.89h-3.77v-4.97h3.65v.88Zm-.65-2.29l-1.03,1.01h-.69l.65-1.01h1.07Z"/>
      <path d="m91.28,45.85h3.54v.87h-2.51v1.14h2.2v.86h-2.2v2.08h-1.03v-4.96Z"/>
      <path d="m99.87,46.72h-2.63v1.06h2.41v.86h-2.41v1.28h2.75v.89h-3.77v-4.97h3.65v.88Z"/>
      <path d="m101.96,46.36c.4-.41.91-.61,1.53-.61.83,0,1.43.27,1.82.82.21.31.32.62.34.93h-1.04c-.07-.24-.15-.42-.25-.54-.18-.22-.46-.32-.82-.32s-.66.15-.88.46-.32.74-.32,1.29.11.98.34,1.25.51.42.86.42.63-.12.81-.36c.1-.13.19-.32.26-.58h1.03c-.09.54-.32.98-.68,1.32s-.83.51-1.41.51c-.71,0-1.26-.23-1.67-.69-.4-.46-.61-1.09-.61-1.9,0-.87.23-1.54.69-2.01Z"/>
      <path d="m110.78,45.84v.88h-1.49v4.09h-1.05v-4.09h-1.49v-.88h4.03Z"/>
      <path d="m112.08,45.84h1.06v3.05c0,.34.04.59.12.75.13.28.4.42.82.42s.69-.14.82-.42c.08-.16.12-.41.12-.75v-3.05h1.06v3.05c0,.53-.08.94-.25,1.23-.31.54-.89.81-1.75.81s-1.44-.27-1.75-.81c-.16-.29-.25-.71-.25-1.23v-3.05Z"/>
      <path d="m120.94,45.97c.18.08.34.19.46.35.11.13.19.27.25.42s.09.33.09.52c0,.24-.06.47-.18.7s-.32.39-.59.48c.23.09.39.22.49.39s.14.43.14.78v.33c0,.23,0,.38.03.46.03.13.09.22.19.28v.12h-1.15c-.03-.11-.05-.2-.07-.27-.03-.14-.04-.28-.04-.43v-.46c-.01-.32-.07-.53-.17-.63-.11-.11-.3-.16-.59-.16h-1.01v1.95h-1.01v-4.97h2.38c.34,0,.6.05.78.13Zm-2.15.74v1.34h1.12c.22,0,.39-.03.5-.08.2-.09.29-.28.29-.56,0-.3-.09-.5-.28-.61-.11-.06-.27-.09-.48-.09h-1.15Z"/>
      <path d="m127.11,46.72h-2.63v1.06h2.41v.86h-2.41v1.28h2.75v.89h-3.77v-4.97h3.65v.88Z"/>
    </g>
  </g>
  <rect class="cls-6" x="-603.47" y="-47.79" width="889.3" height="495.34"/>
</svg>