<?xml version="1.0" encoding="UTF-8"?>
<svg id="Calque_1" data-name="Calque 1" xmlns="http://www.w3.org/2000/svg" viewBox="0 0 200 128">
  <defs>
    <style>
      .cls-1, .cls-2, .cls-3, .cls-4, .cls-5 {
        stroke: #000;
        stroke-miterlimit: 10;
      }

      .cls-1, .cls-2, .cls-6 {
        stroke-linecap: round;
      }

      .cls-1, .cls-6, .cls-5 {
        fill: none;
      }

      .cls-2, .cls-3 {
        fill: #fff;
      }

      .cls-4 {
        fill: #87ccf3;
      }

      .cls-6 {
        stroke: #fff;
        stroke-linejoin: round;
        stroke-width: 8px;
      }
    </style>
  </defs>
  <path class="cls-4" d="m90.83,31.68c-.35-1.44-.71-2.95-1.66-3.95-.98-1.03-2.59-1.12-3.96-1.52-1.32-.39-2.49-.32-3.93.02-.5.12-1.02.2-1.52.29-.93.16-1.81.37-2.46.99-1.03.98-1.03,2.57-1.43,3.93-.39,1.32-.57,2.47-.22,3.91.35,1.44-.02,3.37.93,4.37.98,1.03,2.76,1.38,4.13,1.78,1.32.39,2.81.33,4.25-.02,1.44-.35,3-.76,4-1.71.62-.6.92-1.44,1.14-2.32.14-.57.26-1.15.42-1.69.39-1.32.67-2.64.33-4.08Z"/>
  <g>
    <path class="cls-3" d="m172.88,60.05c.39-.62.35-1.42-.09-2l-6.03-7.91-.87-3.09-9.78-1.96-2.38,5.61-5.19,2.97s1.37,6.03,2.48,8l.43,2.89,4.25-2.77,5.23,1.99s2.14,3.84,3.55,5.98c.64.97,1.55,1.19,2.35,1.13.96-.07,1.56-1.07,1.24-1.97l-1.47-4.05c.47.41.9.72,1.26.86.96.37,1.89-.07,2.56-.56.6-.45.78-1.28.39-1.93-.49-.84-1.22-2.05-1.83-3.01,1.24.53,2.67.49,3.9-.18Z"/>
    <path class="cls-4" d="m179.51,45.52c-.4-1.66-.82-3.4-1.92-4.56-1.13-1.19-2.99-1.29-4.57-1.75-1.53-.45-2.88-.37-4.54.03-.58.14-1.18.23-1.76.33-1.08.19-2.09.42-2.84,1.14-1.19,1.13-1.18,2.96-1.65,4.54-.45,1.53-.66,2.84-.26,4.51.4,1.66-.02,3.89,1.07,5.04,1.13,1.19,3.19,1.59,4.76,2.06,1.53.45,3.25.38,4.91-.02,1.66-.4,3.46-.87,4.61-1.97.72-.69,1.06-1.66,1.31-2.67.17-.66.3-1.33.49-1.95.45-1.53.78-3.05.38-4.71Z"/>
    <path class="cls-3" d="m173.97,48.64c-1.52-1.34-3.81-3.3-5.14-4.09-1.56-.93-6.93-2.66-9.65-3.51-1.1-.35-2.29-.22-3.31.33-4.79,2.57-11.58,7.95-11.58,7.95l-4.38,1.8c-2.14.87-3.7,2.77-4.15,5.05-1.36,7-4.46,22.02-6.43,25.49-.49.87-4.77,4.85-10.27,9.69l1.58,1.92,8.07,9.82,2.06,2.5c5.66-5.49,11.52-10.85,16.27-14.47,2.51-1.92,4.91-4.03,7.32-6.21,3.88-3.51,6.52-7.9,8.8-12.59.07-.15.15-.3.22-.45.34-.7.7-1.42,1.08-2.14.76-1.47,1.57-2.97,2.3-4.42.04-.07.07-.13.11-.2.78-1.56,1.49-3.06,1.95-4.4.06-.16.12-.31.16-.47h0c.02-.08.04-.27.04-.52.05-1,.03-3.13.18-4.56.04-.34.09-.65.14-.88.02-.09.05-.19.09-.3.02-.07.05-.14.09-.21.26-.67.71-1.59.94-2.53.16.05.32.09.48.12.81.15,1.64.1,2.42-.12,1.15-.33,1.51-1.79.61-2.59Zm-11.42,3.85c-.21.48-.4.96-.57,1.41-.06.16-.12.32-.17.47-.06.16-.12.33-.16.48-.27.8-.47,1.43-.58,1.77,0,0-.3.44-.83,1.19-.09.12-.19.26-.3.41-.09.12-.19.26-.3.41-.09.12-.2.27-.3.41-.68.9-1.54,2-2.54,3.18-.66.77-1.38,1.58-2.15,2.39-.12-.11-.22-.22-.31-.33-.31-.34-.58-.69-.83-1.06-.02-.02-.04-.05-.05-.08-.11-.17-.22-.35-.32-.53-.34-.62-.58-1.29-.7-1.98-.29-1.58.02-3.25.9-4.66,0-.02.02-.02.02-.04l1.33-2.12,2-3.2.8-1.28,2.64-1.35,4.08.74.44.08.12.02c-.89.97-1.63,2.34-2.21,3.67Z"/>
    <path class="cls-1" d="m167.78,46.87s-1.87,2.12-1.63,5.04c0,0,2.35.94,3.45,1.65"/>
    <path class="cls-1" d="m164.77,48.82s2.43-2.82,4.29-1.73c1.86,1.09,2.02,1.91,1.34,4.38"/>
    <line class="cls-2" x1="159.65" y1="58.62" x2="157.54" y2="57.69"/>
    <line class="cls-2" x1="161.81" y1="54.37" x2="159.27" y2="53.05"/>
  </g>
  <path class="cls-3" d="m81.76,47.17c-.02.33-.09.68-.2,1.03-.05.17-.11.34-.18.52-.14.34-.53.74-1.04,1.17-.51.43-1.15.88-1.78,1.3-1.27.85-2.54,1.59-2.84,1.87-.23.2-1.29,1.01-2.54,1.98-.21.16-.42.33-.64.49-1.95,1.5-4.08,3.18-4.22,3.47-.05.11-.54.55-1.27,1.18-.21.18-.44.37-.68.57-.12.11-.24.21-.37.32-2.15,1.83-5.14,4.36-5.94,5.47-.14.2-.21.36-.19.45,0,.07.05.11.14.12,1.42.2,7.91-3.22,9.41-4.13,1.22-.73,5.63-4.12,7.81-5.91.17-.14.32-.27.46-.38.28-.24.5-.43.63-.55.26-.26.52-.39.76-.42.72-.1,1.26.69,1.34,1.75.03.29-.14.75-.44,1.3-.14.26-.3.54-.5.84-.03.06-.07.12-.11.18-1.33,2.02-3.66,4.71-5.47,6.49-.13.13-.27.26-.4.38-.25.25-.59.54-1,.88-.4.33-.87.71-1.39,1.12-.35.27-.72.55-1.1.85-.3.23-.62.47-.94.71-.78.59-1.6,1.21-2.43,1.82-.67.5-1.34.99-2,1.47-.48.35-.95.69-1.4,1.02-.07.05-.14.11-.22.16-.32.23-.64.46-.94.68-.06.05-.13.09-.19.14-.3.22-.59.42-.86.62-1.5,1.08-2.51,1.79-2.51,1.79,0,0-.83,1.24-3.93,5.3-.33.44-.66.88-.99,1.31-.17.22-.34.45-.51.67-1.74,2.3-5.76,6.63-10.44,8.02,0,0-3.45,4.39-9.09,10.68l-19.3-9.89c6.84-5.1,12.17-9.42,12.17-9.42-.5-1.42-1.06-3.1-1.07-3.27-.04-.71-.05-1.42-.03-2.14,0-.1,0-.19.02-.28.16-3.21,1.07-6.94,3.4-14.13.84-2.57,1.3-4.92,1.55-6.99.09-.77.15-1.5.19-2.19.09-1.82,0-3.36-.12-4.52-.03-.28-.06-.54-.09-.77-.01-.04-.02-.07-.02-.11-.14-.94.54-1.81,1.49-1.88.02,0,.05-.01.07-.01,1.64-.13,3.09,1.07,3.27,2.71.28,2.61.67,6.22.8,7.6.09.91.14,1.57.15,1.73,0,.03,0,.04,0,.04,0,0,0-.01.01-.01.08-.11.18-.24.3-.39.01-.01.02-.02.03-.03.1-.13.22-.27.34-.43.04-.04.07-.08.11-.13.14-.17.29-.35.45-.55.03-.04.07-.08.1-.12.15-.17.3-.36.46-.55.05-.05.09-.1.14-.15.19-.23.38-.46.59-.7.06-.06.11-.13.17-.19.19-.22.39-.45.59-.68.04-.04.08-.08.12-.13.24-.26.48-.54.74-.82.06-.06.12-.13.18-.19.26-.3.54-.59.82-.89.48-.51,1.13-1.09,1.87-1.7,1.32-1.07,2.96-2.26,4.61-3.38.38-.27.76-.52,1.14-.78,0,0,0,0,0-.01,3.34-2.23,6.38-4.06,6.38-4.06,0,0,2.95-1.06,5.63-2.05,1.75-.65,3.38-1.26,4.02-1.54.21-.08.46-.2.74-.34.29-.14.6-.29.93-.44.49-.23,1.02-.47,1.52-.65.67-.24,1.29-.4,1.72-.33.22.03.39.11.5.27.16.23.18.61,0,1.21-.12.4-.36.81-.7,1.21-.17.21-.36.41-.58.61-.14.15-.3.29-.47.43-.31.26-.64.52-.99.77-.14.1-.28.2-.42.29-.42.29-.86.57-1.31.84-.15.09-.3.18-.45.26-.9.52-1.81.99-2.61,1.38-.27.13-.52.26-.76.37-1.08.5-1.84.81-1.91.83-.19.04-7.42,4.93-10.52,7.26-.91.69-1.47,1.15-1.39,1.21.28.22,8.84-5.26,12.17-7.33.1-.06.19-.12.27-.17.29-.18.54-.33.71-.43.14-.08.23-.14.29-.16.02-.02.06-.03.11-.05,1.54-.56,13.6-3.28,13.6-3.28h.01c.18-.04.35-.07.51-.08,1.08-.13,1.67.1,1.97.45.09.1.16.21.2.32.23.4.27.87.26,1.21.18-.08.35-.16.52-.24,0,0,.02,0,.04-.02.15-.07.3-.14.45-.2.02-.01.03-.02.05-.03.14-.05.26-.11.38-.16.03-.01.06-.03.09-.04.1-.04.21-.08.3-.12.04-.02.07-.03.11-.04.08-.03.15-.06.22-.09.04-.01.08-.02.12-.04.05-.01.11-.03.15-.04.05-.02.08-.02.12-.03.03,0,.06-.02.08-.02.06-.01.1-.01.13,0,.07.02.12.07.18.1.04.03.08.04.12.07.35.29.48.86.44,1.51Z"/>
  <line class="cls-2" x1="54.88" y1="60.16" x2="78.26" y2="46.56"/>
  <line class="cls-2" x1="36.04" y1="60.34" x2="32.37" y2="66.71"/>
  <g>
    <line class="cls-5" x1="88.45" y1="56.29" x2="114.82" y2="56.29"/>
    <path d="m107.98,61.09c-.15-.23-.08-.54.15-.69l6.45-4.11-6.45-4.11c-.23-.15-.3-.46-.15-.69s.46-.3.69-.15l7.11,4.53c.14.09.23.25.23.42s-.09.33-.23.42l-7.11,4.53c-.08.05-.18.08-.27.08-.17,0-.33-.08-.42-.23Z"/>
  </g>
  <rect class="cls-6" x="-5442.93" y="-2762.19" width="6467.34" height="6437.3"/>
</svg>