<?xml version="1.0" encoding="UTF-8"?>
<svg id="Calque_1" data-name="Calque 1" xmlns="http://www.w3.org/2000/svg" viewBox="0 0 128 128">
  <defs>
    <style>
      .cls-1 {
        fill: #ff6d75;
      }

      .cls-1, .cls-2 {
        stroke: #1a2e35;
      }

      .cls-1, .cls-2, .cls-3 {
        stroke-linecap: round;
        stroke-linejoin: round;
      }

      .cls-2, .cls-3 {
        fill: none;
      }

      .cls-4 {
        fill: #baa584;
      }

      .cls-5 {
        fill: #fce9b9;
        stroke: #000;
        stroke-miterlimit: 10;
      }

      .cls-3 {
        stroke: #fff;
        stroke-width: 8px;
      }
    </style>
  </defs>
  <polygon class="cls-1" points="82.17 45.65 88.76 43.14 88.92 42.45 88.23 41.96 88.42 41.14 87.73 40.65 87.92 39.83 87.23 39.34 87.42 38.52 86.73 38.03 86.92 37.21 86.23 36.72 86.42 35.89 85.73 35.4 85.92 34.58 85.23 34.09 85.42 33.27 84.73 32.78 84.92 31.96 84.23 31.47 84.42 30.65 83.73 30.16 83.92 29.33 83.23 28.84 83.42 28.02 82.73 27.53 82.92 26.71 82.23 26.22 82.42 25.39 81.73 24.9 81.92 24.08 81.23 23.59 81.42 22.77 80.73 22.28 80.91 21.45 80.23 20.96 80.41 20.14 79.72 19.65 79.91 18.83 79.22 18.34 79.41 17.51 78.72 17.02 78.91 16.2 78.22 15.71 78.41 14.88 77.72 14.39 77.91 13.57 77.22 13.08 77.41 12.26 76.72 11.77 76.91 10.94 76.22 10.45 76.41 9.63 75.72 9.14 75.91 8.31 75.22 7.82 75.4 7 74.77 6.55 68.21 9.05 68.23 9.07 44.28 18.2 44.28 18.17 37.69 20.69 37.53 21.37 38.22 21.86 38.03 22.68 38.72 23.17 38.53 23.99 39.22 24.48 39.03 25.3 39.72 25.79 39.53 26.62 40.22 27.11 40.03 27.93 40.72 28.42 40.53 29.24 41.22 29.73 41.03 30.55 41.72 31.04 41.53 31.87 42.22 32.35 42.03 33.18 42.72 33.67 42.53 34.49 43.22 34.98 43.03 35.8 43.72 36.29 43.53 37.12 44.22 37.61 44.03 38.43 44.72 38.92 44.54 39.74 45.22 40.23 45.04 41.06 45.72 41.55 45.54 42.37 46.23 42.86 46.04 43.68 46.73 44.17 46.54 45 47.23 45.49 47.04 46.31 47.73 46.8 47.54 47.63 48.23 48.12 48.04 48.94 48.73 49.43 48.54 50.25 49.23 50.74 49.04 51.57 49.73 52.06 49.54 52.88 50.23 53.37 50.04 54.2 50.73 54.69 50.55 55.51 51.23 56 51.05 56.82 51.68 57.27 58.25 54.77 58.22 54.76 82.17 45.62 82.17 45.65"/>
  <rect class="cls-2" x="47.82" y="16.48" width="30.49" height="31" transform="translate(70.48 -38.34) rotate(69.13)"/>
  <path class="cls-2" d="m62.08,21.21c1.35-.12,2.7.01,3.97.38"/>
  <path class="cls-2" d="m52.44,33.95c-.58-3.09.24-6.21,2.09-8.61"/>
  <path class="cls-2" d="m63.24,42.78c-3.19.05-6.27-1.33-8.36-3.75"/>
  <path class="cls-2" d="m71.79,25.6c.55.76,1.02,1.6,1.37,2.52,2.13,5.58-.67,11.82-6.25,13.95-1.21.46-2.45.69-3.68.71"/>
  <path class="cls-2" d="m73.13,14.87s-1.04,1.33-1.92,2.28"/>
  <path class="cls-2" d="m72.64,18.46s-1.24,2.02-1.63,2.63"/>
  <line class="cls-2" x1="55.23" y1="46.32" x2="53.13" y2="49.75"/>
  <path class="cls-2" d="m54.88,41.34s-.88.95-1.87,2.42"/>
  <path class="cls-2" d="m43.97,24.9s2.24,1,3.5,1.45"/>
  <path class="cls-2" d="m81.65,37.64s-3.05-.69-4.44-1.09"/>
  <path class="cls-2" d="m79.32,35.58s-2.68-.53-3.65-.62"/>
  <path class="cls-5" d="m86.91,117.31l-.2.08c-.13.04-.26.08-.39.13-.13.03-.25.07-.38.1-.06.02-.12.03-.18.05-.12.02-.24.05-.36.07-.59.1-1.12.09-1.55-.03-.18,0-.34-.07-.48-.2-.13-.07-.25-.16-.36-.27-.04-.04-.07-.08-.11-.12,0,0-.01-.02-.03-.03-.03-.04-.06-.09-.1-.14l-3.69-3.53L25.72,62.35c-4.4-4.22-5.33-10.76-2.67-15.94l-.13-.12c-.43-.41-.74-.89-.93-1.41-.51-1.35-.25-2.95.82-4.06,1.46-1.53,3.93-1.59,5.46-.12l.13.12c5.05-2.87,11.63-2.24,16.03,1.97l53.71,51.39,3.78,3.62s.03.02.05.03c.09.06.17.13.25.2.04.04.07.08.11.12.01.01.01.02.03.03.03.05.06.09.1.14h0c.03.05.06.1.08.15.01.01.01.02.02.03.03.05.05.1.07.15.03.08.06.16.08.24v.03s.03.06.03.09c0,.02,0,.03,0,.05,0,.03.01.05.01.08,0,.02,0,.04.01.05,0,.03,0,.05,0,.08,0,.02,0,.04,0,.06,0,.03,0,.06,0,.09,0,.02,0,.04,0,.05,0,.03,0,.06,0,.09,0,.02,0,.04,0,.06,0,.03,0,.06,0,.09,0,.02,0,.04,0,.05,0,.04,0,.08,0,.11,0,.02,0,.03,0,.04,0,.04,0,.1,0,.14,0,0,0,0,0,.02,0,.06-.01.11-.02.17,0,0,0,0,0,.02-.01.05-.02.1-.03.15,0,.02,0,.03,0,.05,0,.04-.01.08-.02.12,0,.02,0,.04-.02.06,0,.04-.01.08-.02.11,0,.02,0,.04-.01.06,0,.04-.02.07-.02.11,0,.02-.01.04-.02.07,0,.03-.02.07-.03.12,0,.02,0,.04-.02.06-.01.04-.02.08-.03.13,0,.02-.01.04-.02.06,0,.04-.03.09-.04.13,0,.02,0,.03-.02.05-.02.05-.03.1-.05.15-.01.01-.01.03-.02.04-.04.13-.09.26-.14.39,0,0,0,.02-.02.04-.02.05-.04.11-.07.16,0,.02-.01.04-.02.06-.02.05-.04.1-.06.14,0,.02-.02.05-.03.07-.02.05-.04.09-.06.14-.01.02-.03.05-.03.07-.02.05-.04.09-.06.14-.01.02-.03.05-.04.07-.02.05-.04.09-.07.14l-.03.07s-.05.09-.07.14c0,.02-.02.05-.03.07-.03.05-.05.1-.08.16,0,.02-.02.04-.03.05-.03.07-.07.14-.11.21h0c-.04.08-.08.15-.12.23h0c-.04.08-.08.15-.12.22,0,.02-.02.04-.03.06-.03.06-.06.11-.1.16-.01.03-.03.05-.05.08-.03.05-.06.1-.09.15-.02.03-.03.06-.05.09-.03.04-.06.09-.09.14-.02.03-.04.06-.06.09-.03.05-.05.1-.09.15-.02.02-.04.05-.05.08-.03.05-.07.1-.1.15-.01.03-.03.05-.05.08-.03.05-.06.11-.1.16-.02.02-.03.05-.05.07-.04.06-.07.12-.12.18-.01.01-.03.03-.04.05-.1.16-.21.31-.32.47-.01.02-.03.04-.04.06-.04.05-.08.11-.13.18-.02.02-.04.05-.06.08-.03.05-.07.1-.11.16-.02.03-.04.06-.06.09-.04.05-.08.1-.12.15-.02.03-.04.06-.07.09-.04.04-.08.1-.11.14-.03.03-.05.06-.08.1-.03.05-.08.1-.11.15-.03.03-.05.06-.08.1-.04.05-.08.1-.12.14-.03.03-.05.06-.07.09-.05.06-.09.11-.13.16-.02.02-.04.05-.07.08-.05.06-.1.13-.15.19-.01.02-.03.03-.04.05-.07.08-.14.16-.21.24-.02.01-.03.03-.05.05-.05.06-.1.12-.15.19-.03.03-.05.06-.07.09-.05.05-.1.1-.14.15-.03.03-.06.07-.08.1-.04.05-.09.09-.13.14-.03.03-.06.07-.09.1-.04.05-.08.09-.13.14-.03.03-.06.07-.1.1-.04.05-.08.09-.13.14-.03.03-.06.07-.1.1-.04.05-.08.09-.13.14-.03.03-.06.07-.09.09-.05.06-.09.1-.14.15-.03.03-.06.06-.09.09-.05.05-.1.11-.16.16-.03.03-.05.06-.07.08-.08.07-.16.16-.23.23-1.32,1.33-2.68,2.5-4,3.48-.42.31-.82.6-1.22.86-.16.11-.32.21-.48.31-.32.2-.63.39-.94.57-.15.09-.31.18-.46.26-.46.24-.89.45-1.32.64-.21.09-.41.17-.62.24Z"/>
  <path class="cls-5" d="m89.78,120.06c2.8-1.36,5.91-3.67,8.75-6.52,2.59-2.59,4.69-5.33,6.1-7.93,1.77-3.28,2.24-6.06,1.41-8.25h0c-.28-.73-.69-1.37-1.23-1.91-.87-.87-2.44-1.85-4.99-1.59-.53.05-1.09.16-1.67.32l3.78,3.62s.03.02.05.03c.09.06.18.13.25.21h0s.07.08.11.12c0,0,.02.02.02.03.03.04.07.09.09.13,0,0,0,0,0,0,.03.04.05.09.08.14,0,.01.01.02.02.04.02.05.05.1.07.15h0c.03.08.05.16.07.24,0,.01,0,.03,0,.04,0,.03.01.06.02.09,0,.02,0,.03,0,.05,0,.03.01.05.01.08,0,.02,0,.04,0,.05,0,.03,0,.05.01.08,0,.02,0,.04,0,.05,0,.03,0,.06,0,.09,0,.02,0,.04,0,.06,0,.03,0,.06,0,.09,0,.02,0,.04,0,.06,0,.03,0,.06,0,.1,0,.02,0,.04,0,.05,0,.04,0,.07,0,.11,0,.02,0,.03,0,.05,0,.05,0,.09-.01.14,0,0,0,.01,0,.02,0,.05-.01.11-.02.16,0,0,0,0,0,.02,0,.05-.01.1-.02.15,0,.02,0,.03,0,.05,0,.04-.01.08-.02.12,0,.02,0,.04-.01.06,0,.04-.02.08-.02.11,0,.02,0,.04-.01.06,0,.04-.02.08-.03.11,0,.02-.01.04-.02.06,0,.04-.02.08-.03.12,0,.02-.01.04-.02.06-.01.04-.02.08-.04.12,0,.02-.01.04-.02.06-.01.04-.03.09-.04.13,0,.02-.01.04-.02.05-.02.05-.03.1-.05.15,0,.01,0,.02-.01.03-.04.13-.09.26-.14.39,0,.01,0,.02-.01.03-.02.05-.04.11-.07.16,0,.02-.02.04-.02.06-.02.05-.04.09-.06.14,0,.02-.02.04-.03.07-.02.05-.04.09-.06.14-.01.02-.02.05-.03.07-.02.05-.04.09-.06.14-.01.02-.02.05-.03.07-.02.05-.04.09-.07.14-.01.02-.02.05-.03.07-.02.05-.05.1-.07.15-.01.02-.02.04-.03.07-.03.05-.05.11-.08.16,0,.02-.02.04-.03.05-.04.07-.07.14-.11.21,0,0,0,0,0,0-.04.08-.08.15-.12.23,0,0,0,0,0,0-.04.07-.08.14-.12.21-.01.02-.02.04-.03.06-.03.05-.06.11-.09.16-.01.02-.03.05-.04.07-.03.05-.06.1-.09.15-.02.03-.03.05-.05.08-.03.05-.06.1-.09.14-.02.03-.04.06-.05.08-.03.05-.06.1-.09.14-.02.03-.04.06-.05.08-.03.05-.06.1-.1.15-.02.03-.03.05-.05.08-.03.05-.07.1-.1.16-.02.02-.03.05-.05.07-.04.06-.08.12-.12.18-.01.02-.02.04-.04.06-.11.16-.22.31-.33.47-.01.02-.03.04-.04.06-.04.06-.08.12-.13.18-.02.03-.04.05-.06.08-.04.05-.08.1-.12.16-.02.03-.04.06-.07.09-.04.05-.07.1-.11.15-.02.03-.05.06-.07.09-.04.05-.07.1-.11.14-.02.03-.05.06-.07.09-.04.05-.08.1-.11.15-.02.03-.05.06-.07.09-.04.05-.08.1-.12.15-.02.03-.05.06-.07.09-.04.05-.09.11-.13.16-.02.03-.04.05-.07.08-.05.06-.11.13-.16.19-.01.02-.03.03-.04.05-.07.08-.14.16-.2.24-.02.02-.03.04-.05.06-.05.06-.11.12-.16.18-.02.03-.05.06-.07.09-.05.05-.09.1-.14.16-.03.03-.06.06-.08.09-.04.05-.09.1-.13.15-.03.03-.06.07-.09.1-.04.05-.08.09-.13.14-.03.03-.06.07-.09.1-.04.05-.09.09-.13.14-.03.03-.06.07-.09.1-.04.05-.09.09-.13.14-.03.03-.06.07-.09.1-.05.05-.09.1-.14.15-.03.03-.06.06-.09.09-.05.05-.1.11-.16.16-.02.03-.05.05-.07.08-.08.08-.16.16-.24.24-1.33,1.33-2.68,2.5-4,3.47-.41.31-.82.59-1.22.86-.16.11-.32.21-.48.31-.32.2-.63.39-.94.57-.15.09-.31.17-.46.25-.45.24-.89.46-1.32.64-.21.09-.42.17-.62.25-.07.03-.14.05-.21.07-.13.04-.26.09-.38.12-.13.04-.25.07-.38.1-.06.02-.12.03-.18.04-.12.03-.24.05-.36.07-.59.1-1.11.09-1.55-.03-.17,0-.35-.07-.48-.2-.13-.08-.25-.16-.35-.27-.04-.04-.07-.08-.11-.12,0-.01-.02-.02-.02-.03-.03-.04-.07-.09-.1-.13,0,0,0,0,0,0l-3.69-3.53c-.42,1.69-.39,3.2.11,4.5.28.73.69,1.37,1.23,1.91.87.87,2.44,1.85,4.99,1.59,1.31-.13,2.77-.58,4.35-1.35Z"/>
  <path class="cls-4" d="m73.56,93.22c-.68-.42-1.43-.67-2.17-.92-.37-.12-.73-.25-1.08-.39-.35-.14-.69-.31-.98-.51-.15-.1-.29-.22-.41-.34-.06-.06-.12-.13-.18-.19-.06-.07-.12-.14-.17-.22-.22-.29-.41-.61-.58-.94-.34-.66-.57-1.37-.79-2.11-.22-.74-.42-1.5-.75-2.27-.17-.38-.37-.76-.63-1.12-.26-.36-.58-.69-.94-.96-.16-.12-.33-.23-.5-.33.22-1.16-.37-2.68-1.62-3.88-1.67-1.6-3.88-2-4.94-.89-1.06,1.11-.56,3.3,1.11,4.9,1.59,1.52,3.68,1.96,4.78,1.04.14.07.28.14.41.23.27.17.52.39.74.64.22.25.41.55.58.86.34.64.6,1.36.88,2.09.28.73.59,1.48,1.02,2.18.21.35.45.68.72.99.07.08.14.15.21.23.07.08.15.15.23.22.16.14.34.26.52.37.36.21.74.36,1.12.48.38.12.76.21,1.14.31.75.19,1.5.37,2.18.72.34.17.66.39.94.65.28.26.52.57.71.91-.16-.35-.38-.68-.64-.98-.26-.29-.57-.54-.91-.75Z"/>
  <path class="cls-4" d="m39.84,63.37c-.5-.31-1.06-.5-1.6-.68-.27-.09-.54-.18-.8-.29-.26-.11-.51-.23-.72-.38-.11-.08-.21-.16-.3-.25-.05-.05-.09-.09-.13-.14-.04-.05-.09-.11-.13-.16-.16-.22-.3-.45-.43-.69-.25-.49-.42-1.01-.58-1.56-.16-.54-.31-1.11-.56-1.68-.12-.28-.27-.56-.46-.83-.19-.27-.43-.51-.69-.71-.12-.09-.24-.17-.37-.24.16-.85-.27-1.98-1.2-2.86-1.23-1.18-2.87-1.47-3.65-.66-.78.82-.41,2.43.82,3.61,1.18,1.12,2.71,1.45,3.53.76.11.05.21.1.31.17.2.13.38.29.54.48.16.19.3.4.43.64.25.47.44,1,.65,1.54.21.54.44,1.09.75,1.61.16.26.33.5.53.73.05.06.1.11.15.17.05.06.11.11.17.16.12.1.25.19.38.27.27.16.55.26.83.35.28.09.56.16.84.23.55.14,1.11.27,1.61.53.25.13.49.29.69.48.21.19.38.42.52.67-.12-.26-.28-.51-.47-.72-.19-.22-.42-.4-.67-.56Z"/>
  <path class="cls-4" d="m59.36,67.64c-.5-.31-1.06-.5-1.6-.68-.27-.09-.54-.18-.8-.29-.26-.11-.51-.23-.72-.38-.11-.08-.21-.16-.3-.25-.05-.05-.09-.09-.13-.14-.04-.05-.09-.11-.13-.16-.16-.22-.3-.45-.43-.69-.25-.49-.42-1.01-.58-1.56-.16-.54-.31-1.11-.56-1.68-.12-.28-.27-.56-.46-.83-.19-.26-.43-.51-.69-.71-.12-.09-.24-.17-.37-.24.16-.85-.27-1.98-1.2-2.86-1.23-1.18-2.87-1.47-3.65-.66-.78.82-.41,2.43.82,3.61,1.18,1.13,2.71,1.45,3.53.77.11.05.21.1.31.17.2.13.38.29.54.48.16.19.3.4.43.64.25.47.44,1,.65,1.54.21.54.44,1.09.75,1.61.16.26.33.5.53.73.05.06.1.11.15.17.05.06.11.11.17.16.12.1.25.19.38.27.27.16.55.26.83.35.28.09.56.16.84.23.56.14,1.11.28,1.61.53.25.13.49.29.69.48.21.19.38.42.52.67-.12-.26-.28-.51-.47-.72-.19-.22-.42-.4-.67-.55Z"/>
  <rect class="cls-3" x="-982.74" y="-3004.76" width="6467.34" height="6437.3"/>
</svg>