<?xml version="1.0" encoding="UTF-8"?>
<svg id="Calque_1" data-name="Calque 1" xmlns="http://www.w3.org/2000/svg" viewBox="0 0 128 128">
  <defs>
    <style>
      .cls-1 {
        fill: #b4eac3;
      }

      .cls-1, .cls-2, .cls-3, .cls-4, .cls-5 {
        stroke-width: 2px;
      }

      .cls-1, .cls-2, .cls-3, .cls-4, .cls-5, .cls-6, .cls-7 {
        stroke-linecap: round;
        stroke-linejoin: round;
      }

      .cls-1, .cls-2, .cls-3, .cls-4, .cls-5, .cls-7 {
        stroke: #000;
      }

      .cls-2 {
        fill: #ff6d75;
      }

      .cls-3 {
        fill: #fff;
      }

      .cls-4 {
        fill: #f3d587;
      }

      .cls-5 {
        fill: #fab0b4;
      }

      .cls-6 {
        stroke: #fff;
        stroke-width: 8px;
      }

      .cls-6, .cls-7 {
        fill: none;
      }

      .cls-7 {
        stroke-width: 3px;
      }
    </style>
  </defs>
  <rect class="cls-2" x="5.38" y="18.87" width="117.24" height="15.84"/>
  <rect class="cls-3" x="5.38" y="34.7" width="117.24" height="81.12"/>
  <g>
    <line class="cls-7" x1="18.29" y1="12.17" x2="18.29" y2="25.09"/>
    <line class="cls-7" x1="109.7" y1="12.17" x2="109.7" y2="25.09"/>
    <line class="cls-7" x1="48.76" y1="12.17" x2="48.76" y2="25.09"/>
    <line class="cls-7" x1="79.23" y1="12.17" x2="79.23" y2="25.09"/>
  </g>
  <g>
    <path class="cls-5" d="m83.2,82.81c.89,1.64,1.38,3.52,1.38,5.52,0,6.49-5.25,11.74-11.74,11.74-3.31,0-6.31-1.38-8.45-3.59-2.14,2.21-5.14,3.59-8.45,3.59-6.48,0-11.74-5.25-11.74-11.74,0-1.94.47-3.77,1.3-5.38-4.59-1.59-7.87-5.95-7.87-11.08,0-6.48,5.25-11.74,11.74-11.74,1.1,0,2.15.15,3.16.43.75-5.77,5.67-10.22,11.63-10.22s10.89,4.45,11.64,10.22c1.01-.28,2.06-.43,3.16-.43,6.48,0,11.74,5.26,11.74,11.74,0,5-3.11,9.25-7.5,10.94Z"/>
    <circle class="cls-4" cx="64.17" cy="77.35" r="7.59"/>
  </g>
  <g>
    <path class="cls-1" d="m92.84,95.33s2.23-17.08,19.9-11.12c0,0-4.06,16.22-19.9,11.12Z"/>
    <path class="cls-1" d="m34.19,96.92s-16.8,3.81-17.3-14.83c0,0,16.63-1.79,17.3,14.83Z"/>
  </g>
  <rect class="cls-6" x="-4047.45" y="-624.15" width="6562.35" height="1176.7"/>
</svg>