<?xml version="1.0" encoding="UTF-8"?>
<svg id="Calque_1" data-name="Calque 1" xmlns="http://www.w3.org/2000/svg" viewBox="0 0 128 128">
  <defs>
    <style>
      .cls-1 {
        fill: #fff;
      }

      .cls-1, .cls-2, .cls-3, .cls-4, .cls-5, .cls-6, .cls-7, .cls-8, .cls-9, .cls-10, .cls-11, .cls-12 {
        stroke-linecap: round;
      }

      .cls-1, .cls-2, .cls-3, .cls-4, .cls-5, .cls-6, .cls-7, .cls-8, .cls-9, .cls-11, .cls-12 {
        stroke-linejoin: round;
      }

      .cls-1, .cls-2, .cls-3, .cls-4, .cls-5, .cls-6, .cls-8, .cls-9, .cls-10, .cls-13, .cls-12 {
        stroke: #000;
      }

      .cls-2, .cls-6, .cls-7, .cls-10, .cls-11, .cls-13, .cls-12 {
        fill: none;
      }

      .cls-3 {
        fill: #76ac75;
      }

      .cls-3, .cls-4, .cls-5, .cls-6, .cls-7, .cls-9, .cls-10 {
        stroke-width: 2px;
      }

      .cls-4 {
        fill: #8987f3;
      }

      .cls-5 {
        fill: #ff6d75;
      }

      .cls-7 {
        stroke: #ff6d75;
      }

      .cls-8, .cls-12 {
        stroke-width: 3px;
      }

      .cls-9 {
        fill: #fab0b4;
      }

      .cls-10, .cls-13 {
        stroke-miterlimit: 10;
      }

      .cls-11 {
        stroke: #fff;
        stroke-width: 8px;
      }
    </style>
  </defs>
  <path class="cls-10" d="m19.06,6.92s17.8,7.45,20.91,35.61c0,0,18.22,30.43,21.95,48.24"/>
  <path class="cls-10" d="m60.59,85.58s12.48,11.63,16.23,16.99c5.22,7.47,11.18,19.67,11.18,19.67"/>
  <path class="cls-10" d="m17.2,66.34s10.77,22.15,30.85,32.71"/>
  <path class="cls-10" d="m40.2,94.26s7.77,20.25,13.57,28.32"/>
  <path class="cls-6" d="m59.43,14.77h9.09v39.4c0,2.51-2.04,4.54-4.54,4.54h0c-2.51,0-4.54-2.04-4.54-4.54V14.77h0Z"/>
  <path class="cls-5" d="m59.43,27.42h9.09v26.75c0,2.51-2.04,4.54-4.54,4.54h0c-2.51,0-4.54-2.04-4.54-4.54v-26.75h0Z"/>
  <path class="cls-5" d="m74.45,27.42h9.09v26.75c0,2.51-2.04,4.54-4.54,4.54h0c-2.51,0-4.54-2.04-4.54-4.54v-26.75h0Z"/>
  <path class="cls-5" d="m89.48,27.42h9.09v26.75c0,2.51-2.04,4.54-4.54,4.54h0c-2.51,0-4.54-2.04-4.54-4.54v-26.75h0Z"/>
  <rect class="cls-9" x="59" y="8.48" width="9.94" height="6.29"/>
  <path class="cls-6" d="m74.45,14.77h9.09v39.4c0,2.51-2.04,4.54-4.54,4.54h0c-2.51,0-4.54-2.04-4.54-4.54V14.77h0Z"/>
  <rect class="cls-4" x="74.03" y="8.48" width="9.94" height="6.29"/>
  <line class="cls-2" x1="61.96" y1="8.48" x2="61.96" y2="14.77"/>
  <line class="cls-2" x1="63.97" y1="8.48" x2="63.97" y2="14.77"/>
  <line class="cls-2" x1="65.99" y1="8.48" x2="65.99" y2="14.77"/>
  <line class="cls-2" x1="76.98" y1="8.48" x2="76.98" y2="14.77"/>
  <line class="cls-2" x1="79" y1="8.48" x2="79" y2="14.77"/>
  <line class="cls-2" x1="81.01" y1="8.48" x2="81.01" y2="14.77"/>
  <path class="cls-6" d="m89.48,14.77h9.09v39.4c0,2.51-2.04,4.54-4.54,4.54h0c-2.51,0-4.54-2.04-4.54-4.54V14.77h0Z"/>
  <rect class="cls-3" x="89.05" y="8.48" width="9.94" height="6.29"/>
  <line class="cls-2" x1="92.01" y1="8.48" x2="92.01" y2="14.77"/>
  <line class="cls-2" x1="94.02" y1="8.48" x2="94.02" y2="14.77"/>
  <line class="cls-2" x1="96.03" y1="8.48" x2="96.03" y2="14.77"/>
  <rect class="cls-1" x="62.01" y="20.82" width="3.92" height="31.02"/>
  <rect class="cls-1" x="77.04" y="20.82" width="3.92" height="31.02"/>
  <rect class="cls-1" x="92.06" y="20.82" width="3.92" height="31.02"/>
  <g>
    <g>
      <line class="cls-13" x1="71.99" y1="91.6" x2="58.79" y2="99.06"/>
      <path class="cls-6" d="m121.17,67.96l-38.9,21.53c-.03-.32-.08-.64-.14-.94-.32-1.53-1.1-2.94-2.23-4.03-.22-.22-.46-.43-.72-.62l38.9-21.53,3.1,5.6Z"/>
      <path class="cls-5" d="m95.8,82.01l-13.52,7.48c-.03-.32-.08-.64-.14-.94-.32-1.53-1.1-2.94-2.23-4.03-.22-.22-.46-.43-.72-.62l13.52-7.48,3.1,5.6Z"/>
      <path class="cls-6" d="m82.13,88.55l-2.78,1.54-2.62.28-4.93,1.26,3.69-3.51,1.63-2.07,2.78-1.54c1.13,1.09,1.91,2.5,2.23,4.03Z"/>
      <line class="cls-12" x1="116.27" y1="58.73" x2="123.3" y2="71.42"/>
      <rect class="cls-8" x="96.96" y="72.38" width="15.5" height="2.08" transform="translate(118.25 -53.75) rotate(61.04)"/>
      <line class="cls-13" x1="89.54" y1="81.81" x2="91.09" y2="84.61"/>
      <line class="cls-13" x1="86.51" y1="83.49" x2="88.06" y2="86.29"/>
      <line class="cls-13" x1="83.44" y1="85.19" x2="84.99" y2="87.99"/>
    </g>
    <circle class="cls-7" cx="57.01" cy="100.13" r=".22"/>
  </g>
  <rect class="cls-11" x="-248.67" y="-4216.29" width="6467.34" height="6437.3"/>
</svg>