<?xml version="1.0" encoding="UTF-8"?>
<svg id="Calque_1" data-name="Calque 1" xmlns="http://www.w3.org/2000/svg" viewBox="0 0 128 128">
  <defs>
    <style>
      .cls-1 {
        fill: #d6d6d6;
      }

      .cls-1, .cls-2, .cls-3, .cls-4, .cls-5 {
        stroke: #000;
      }

      .cls-1, .cls-2, .cls-3, .cls-4, .cls-5, .cls-6 {
        stroke-linecap: round;
        stroke-linejoin: round;
      }

      .cls-2 {
        fill: #baa584;
      }

      .cls-3 {
        fill: #a07637;
      }

      .cls-4 {
        fill: #fff;
      }

      .cls-5, .cls-6 {
        fill: none;
      }

      .cls-6 {
        stroke: #fff;
        stroke-width: 8px;
      }
    </style>
  </defs>
  <rect class="cls-1" x="7.23" y="75.49" width="29.62" height="46.53"/>
  <g>
    <path class="cls-4" d="m47.1,77.76l-.31.81-1.4,3.67c-.1.25-.37.38-.62.3-.21-.07-.35-.26-.35-.48,0-.05,0-.08.02-.13l.11-.43h0s.47-1.8.47-1.8l2.07-1.95Z"/>
    <path class="cls-4" d="m51.89,43.07l-.09,6.73-.1,1.43-.1,1.55-.3,4.37-1.53,14.51c0,.09-.02.18-.06.26l.08.68s.87,2.36-.2,4.53c-.02.04-.04.07-.06.11-.62,1.29-.83,2.23-.89,2.74-.04.27-.26.48-.54.49h-.02c-.29,0-.53-.21-.56-.5-.05-.57-.07-1.54.18-2.57l-.91,1.19.31-.81-2.07,1.95-.47,1.79h0s-.41.54-.41.54c-.16.2-.46.23-.65.07-.08-.08-.14-.2-.14-.33,0-.06,0-.11.04-.17l2.38-6.38s.87-2.29,1.31-3.93c0-.02,0-.05.02-.07l-.35-20.95s-.56-5.33-.56-10.46h5.23l-.07-.52c.18,1.25.36,2.52.56,3.76Z"/>
    <polygon class="cls-4" points="47.1 77.76 46.79 78.58 44.55 81.5 45.03 79.71 47.1 77.76"/>
  </g>
  <g>
    <path class="cls-4" d="m75.06,78.62l.31.81,1.4,3.67c.1.25.37.38.62.3.21-.07.35-.26.35-.48,0-.05,0-.08-.02-.13l-.11-.43h0s-.47-1.8-.47-1.8l-2.07-1.95Z"/>
    <path class="cls-4" d="m70.26,43.92l.09,6.73.1,1.43.1,1.55.3,4.37,1.53,14.51c0,.09.02.18.06.26l-.08.68s-.87,2.36.2,4.53c.02.04.04.07.06.11.62,1.29.83,2.23.89,2.74.04.27.26.48.54.49h.02c.29,0,.53-.21.56-.5.05-.57.07-1.54-.18-2.57l.91,1.19-.31-.81,2.07,1.95.47,1.79h0s.41.54.41.54c.16.2.46.23.65.07.08-.08.14-.2.14-.33,0-.06,0-.11-.04-.17l-2.38-6.38s-.87-2.29-1.31-3.93c0-.02,0-.05-.02-.07l.35-20.95s.56-5.33.56-10.46h-5.23s.07-.52.07-.52c-.18,1.25-.36,2.52-.56,3.76Z"/>
    <polygon class="cls-4" points="75.06 78.62 75.36 79.43 77.6 82.35 77.12 80.56 75.06 78.62"/>
  </g>
  <polygon class="cls-4" points="57.42 116.13 58.4 98.89 52.75 99.42 53.15 116.03 57.42 116.13"/>
  <polygon class="cls-4" points="62.1 116.36 62.1 112.54 62.75 101.76 67.75 99.15 66.7 116.03 62.1 116.36"/>
  <path class="cls-2" d="m71.06,69.17l-3.84,40.53h-6.05l.03-45.26-.94-.13-1.93,45.39h-6.05s-.75-16.68-1.67-31.62c-.16-2.65-.33-5.26-.49-7.7-.37-5.44-.03-9.45.61-12.39.4-1.86.91-3.29,1.43-4.37,1.07-2.26,2.13-2.98,2.13-2.98,6.99-4.04,13.12,0,13.12,0,1.09,1.59,1.89,3.33,2.47,5.06.25.75.46,1.52.63,2.26.11.49.21.98.29,1.45.94,5.26.25,9.76.25,9.76Z"/>
  <path class="cls-3" d="m54.46,122.23l-8.72.11c-.64,0-1.17-.5-1.19-1.14h0c-.01-.44.23-.86.62-1.07l7.42-3.97c.17-.09.36-.14.55-.14h3.79c.55,0,1.03.38,1.15.92l.73,3.25c.02.07.03.15.03.23v.57c.03.66-.49,1.2-1.15,1.21l-1.5.02-1.73.02Z"/>
  <path class="cls-3" d="m65.38,122.24l8.72.11c.64,0,1.17-.5,1.19-1.14h0c.01-.44-.23-.86-.62-1.07l-7.42-3.97c-.17-.09-.36-.14-.55-.14h-3.79c-.55,0-1.03.38-1.15.92l-.73,3.25c-.02.07-.03.15-.03.23v.57c-.03.66.49,1.2,1.15,1.21l1.5.02,1.73.02Z"/>
  <path class="cls-2" d="m71.1,37.37l.16,4.45,5.49-.25c.05-10.14-4.34-11.36-5.58-11.5l-4.77-1.11h-.02s-2.56-.61-2.56-.61h-5.45l-2.79.75-4.45,1.2s0,.02,0,.05c-1.45.25-5.44,1.8-5.39,11.48l5.21.24-.22,13.01-.63,2.76v.13s1.76,0,1.76,0l16.47-.03h3.2l-.91-2.96.48-17.62Z"/>
  <rect class="cls-1" x="7.23" y="2.57" width="112.68" height="3.4"/>
  <rect class="cls-1" x="7.23" y="122.02" width="112.68" height="3.4"/>
  <path class="cls-4" d="m63.82,28.36l-.52,1.11c-.89,1.91-3.61,1.88-4.46-.05l-.47-1.06.86-2.18h4.25l.34,2.18Z"/>
  <path class="cls-5" d="m60.61,9.55s0,1.06-.38,1.77h0"/>
  <path class="cls-5" d="m58.55,11.77c-.84-.48-1.4-1.71-1.4-1.71"/>
  <path class="cls-5" d="m55.91,21.49h0c-.1-.02-.79-.2-1.19-1.28-.44-1.17-.94-1.03-.98-2.24-.03-1.14,1.15-.65,1.28-.58"/>
  <path class="cls-5" d="m65.59,11.05s-.82.49-1.73.65"/>
  <path class="cls-4" d="m56.82,12.29c.52.03,1.13-.1,1.73-.52.25.15.52.23.8.2.4-.04.67-.31.86-.64.01,0,.02.02.03.02.11.11.84.74,1.73-.12.47.56,1.2.62,1.89.49.41.31.97.28.97.28.03.05.07.1.1.15,1.68,2.36,1.84,3.97,1.85,4.14.1-.42.18-.82.23-1.2-.09.71-.22,1.22-.25,1.33h0s0,.03,0,.03h0c.02.67.03,2.4-.24,4.2-.23,1.49-.68,3.03-1.5,4.02-1.89,2.3-3.12,2.35-3.3,2.34-.19.04-1.48.24-3.72-1.75-.96-.85-1.64-2.3-2.1-3.74-.55-1.73-.81-3.44-.89-4.11h0c-.02-.08-.02-.15-.02-.24.02.07.05.1.05.1-.02-.28-.02-.56-.02-.83.18-1.39,1.45-3.69,1.6-4.09l.19-.03Z"/>
  <path class="cls-5" d="m55.03,16.41c-.04.26-.05.5-.03.72"/>
  <path class="cls-5" d="m55.02,17.38s0,0-.01-.02h0c-.06-.14-.36-.82-.57-1.75v-.03c-.42-1.86-.43-4.66,2.65-5.9,0,0,.19-1.02,1.49-.86,0,0,1.51-1.65,3.33-.3,1.26-.36,1.61.62,1.61.62,3.48.82,3.7,3.96,3.5,5.83,0,.04-.01.07-.01.1"/>
  <path class="cls-5" d="m64.96,12.32s1.79,2.61,1.79,4.11"/>
  <path class="cls-5" d="m54.98,17.09h0s0,.12.03.26h0s0,.03,0,.03"/>
  <path class="cls-5" d="m66.76,16.43v-.02"/>
  <path class="cls-5" d="m66.75,16.14s0,.1.01.26"/>
  <path class="cls-5" d="m66.51,20.63h0c.09-.04.75-.32.98-1.45.25-1.22.77-1.17.63-2.37-.15-1.13-1.24-.46-1.36-.38"/>
  <path class="cls-5" d="m62.72,10.19c-.23.42-.45.74-.67.96-.03.03-.04.06-.07.07"/>
  <path class="cls-5" d="m60.24,11.34l-.02-.02"/>
  <path class="cls-4" d="m61.45,16.28s.4,3.6,1.19,5.41c0,0-.15.37-1.32.14"/>
  <ellipse class="cls-4" cx="59.04" cy="18" rx=".12" ry=".36" transform="translate(-1.21 4.61) rotate(-4.42)"/>
  <ellipse class="cls-4" cx="64" cy="17.53" rx=".12" ry=".36" transform="translate(-1.16 4.99) rotate(-4.42)"/>
  <g>
    <line class="cls-5" x1="7.23" y1="5.98" x2="7.23" y2="122.02"/>
    <line class="cls-5" x1="19.75" y1="5.98" x2="19.75" y2="122.02"/>
    <line class="cls-5" x1="32.27" y1="5.98" x2="32.27" y2="122.02"/>
    <line class="cls-5" x1="44.79" y1="5.98" x2="44.79" y2="122.02"/>
    <line class="cls-5" x1="57.31" y1="5.98" x2="57.31" y2="122.02"/>
    <line class="cls-5" x1="69.83" y1="5.98" x2="69.83" y2="122.02"/>
    <line class="cls-5" x1="82.35" y1="5.98" x2="82.35" y2="122.02"/>
    <line class="cls-5" x1="94.87" y1="5.98" x2="94.87" y2="122.02"/>
    <line class="cls-5" x1="107.39" y1="5.98" x2="107.39" y2="122.02"/>
    <line class="cls-5" x1="119.91" y1="5.98" x2="119.91" y2="122.02"/>
  </g>
  <rect class="cls-6" x="-1088.99" y="-752.15" width="6562.35" height="1176.7"/>
</svg>