<?xml version="1.0" encoding="UTF-8"?>
<svg id="Calque_1" data-name="Calque 1" xmlns="http://www.w3.org/2000/svg" viewBox="0 0 128 128">
  <defs>
    <style>
      .cls-1, .cls-2, .cls-3, .cls-4, .cls-5, .cls-6, .cls-7 {
        stroke: #000;
      }

      .cls-1, .cls-2, .cls-6, .cls-7, .cls-8 {
        stroke-linecap: round;
      }

      .cls-1, .cls-2, .cls-7, .cls-8 {
        stroke-linejoin: round;
      }

      .cls-1, .cls-4 {
        fill: #d6d6d6;
      }

      .cls-9 {
        fill: #546885;
      }

      .cls-2, .cls-5 {
        fill: #87ccf3;
      }

      .cls-2, .cls-6 {
        stroke-width: 2px;
      }

      .cls-3 {
        fill: #fff;
        stroke-width: .25px;
      }

      .cls-3, .cls-4, .cls-5, .cls-6 {
        stroke-miterlimit: 10;
      }

      .cls-6, .cls-7, .cls-8 {
        fill: none;
      }

      .cls-7 {
        stroke-width: .5px;
      }

      .cls-8 {
        stroke: #fff;
        stroke-width: 8px;
      }
    </style>
  </defs>
  <rect class="cls-4" x="90.22" y="52.21" width="3.91" height="2.63"/>
  <path class="cls-6" d="m19.06,6.92s17.8,7.45,20.91,35.61c0,0,18.22,30.43,21.95,48.24"/>
  <path class="cls-6" d="m88,122.24s-.73-1.5-1.9-3.76"/>
  <path class="cls-6" d="m60.59,85.58s12.49,11.63,16.23,16.99c2.66,3.81,5.52,8.85,7.67,12.87"/>
  <path class="cls-6" d="m12.22,57.99s12.5,27.81,35.82,41.06"/>
  <path class="cls-6" d="m40.2,94.26s7.77,20.25,13.57,28.32"/>
  <path class="cls-2" d="m59.08,79.32l-.59.34-8.53,4.93-3.06,1.76-9.27,5.35-1.26.73c-1.24.72-2.82.39-3.67-.75l-18.91-25.38c-.95-1.29-.65-3.08.63-3.98.07-.06.14-.11.22-.15l27.51-15.88h.01c1.4-.81,3.2-.27,3.92,1.18l2.64,5.27,1.39,2.77,4.38,8.74,1.39,2.78s0,0,0,0l4.31,8.58c.67,1.33.18,2.96-1.11,3.7Z"/>
  <g>
    <path class="cls-9" d="m46.36,76.02c.18.03.36.06.54.08-.18-.02-.36-.05-.54-.08Z"/>
    <g>
      <circle class="cls-1" cx="44.3" cy="63.9" r="12"/>
      <circle class="cls-3" cx="44.3" cy="63.9" r="10.2"/>
      <path class="cls-9" d="m40.66,74.72c.13.04.26.08.39.12-.13-.04-.26-.08-.39-.12Z"/>
      <path class="cls-9" d="m41.04,74.84c.22.06.43.12.65.17-.22-.05-.44-.11-.65-.17Z"/>
      <path class="cls-9" d="m41.7,75.01c.18.04.35.08.53.11-.18-.03-.35-.07-.53-.11Z"/>
      <g>
        <path d="m40.87,59.23s8.62,10.38,8.47,10.51-9.02-10.04-9.02-10.04c-.13-.15-.1-.37.05-.5s.38-.12.5.03Z"/>
        <path d="m44.93,63.54c.07.08.12.18.14.28.04.16.01.33-.06.47-.04.07-.09.13-.15.19s-.13.09-.21.12c-.09.03-.18.04-.27.04-.07,0-.13-.02-.2-.05-.09-.04-.18-.1-.25-.18s-.12-.18-.14-.28c-.04-.16-.01-.33.06-.47.04-.07.09-.13.15-.19s.13-.09.21-.12c.09-.03.18-.04.27-.04.07,0,.14.02.2.05.09.04.18.1.25.18Z"/>
        <path d="m40.32,57.75c-.09-.04-.2-.06-.3-.07-.14-.01-.29,0-.42.05-.11.04-.22.1-.32.19s-.18.18-.23.29c-.12.22-.15.48-.1.72.03.16.11.3.22.43s.24.22.39.28c.09.04.2.07.3.07.14.01.29,0,.42-.05.11-.04.22-.1.32-.19s.18-.18.23-.29c.12-.22.15-.48.1-.72-.03-.16-.11-.3-.22-.43s-.24-.22-.39-.28Zm.26.79c.03.16.01.32-.06.47-.04.07-.09.13-.15.19s-.13.09-.21.12c-.09.03-.18.04-.27.04-.07,0-.13-.02-.2-.05-.09-.04-.18-.1-.25-.18s-.12-.18-.14-.28c-.03-.16-.01-.32.06-.47.04-.07.08-.13.15-.19s.13-.09.21-.12c.09-.03.18-.04.27-.04.07,0,.13.02.2.05.09.04.18.1.25.18s.12.18.14.28Z"/>
      </g>
      <g>
        <g>
          <line class="cls-7" x1="48.29" y1="71.91" x2="47.96" y2="71.24"/>
          <line class="cls-7" x1="40.65" y1="56.58" x2="40.32" y2="55.91"/>
        </g>
        <g>
          <line class="cls-7" x1="36.3" y1="67.9" x2="36.98" y2="67.56"/>
          <line class="cls-7" x1="51.63" y1="60.26" x2="52.31" y2="59.92"/>
        </g>
        <g>
          <line class="cls-7" x1="41.47" y1="72.39" x2="41.71" y2="71.68"/>
          <line class="cls-7" x1="46.91" y1="56.15" x2="47.15" y2="55.43"/>
        </g>
        <g>
          <line class="cls-7" x1="52.79" y1="66.75" x2="52.07" y2="66.51"/>
          <line class="cls-7" x1="36.54" y1="61.31" x2="35.83" y2="61.07"/>
        </g>
      </g>
      <g>
        <g>
          <circle cx="36.75" cy="59.15" r=".15"/>
          <circle cx="38.36" cy="57.18" r=".15"/>
        </g>
        <g>
          <circle cx="43.57" cy="72.84" r=".15"/>
          <circle cx="46.12" cy="72.74" r=".15"/>
        </g>
        <g>
          <circle cx="45" cy="55.03" r=".15"/>
          <circle cx="42.45" cy="55.14" r=".15"/>
        </g>
        <g>
          <circle cx="51.83" cy="68.73" r=".15"/>
          <circle cx="50.21" cy="70.7" r=".15"/>
        </g>
      </g>
      <g>
        <g>
          <circle cx="39.5" cy="71.48" r=".15"/>
          <circle cx="37.53" cy="69.86" r=".15"/>
        </g>
        <g>
          <circle cx="53.19" cy="64.65" r=".15"/>
          <circle cx="53.09" cy="62.11" r=".15"/>
        </g>
        <g>
          <circle cx="35.38" cy="63.22" r=".15"/>
          <circle cx="35.49" cy="65.77" r=".15"/>
        </g>
        <g>
          <circle cx="49.08" cy="56.4" r=".15"/>
          <circle cx="51.05" cy="58.02" r=".15"/>
        </g>
      </g>
    </g>
  </g>
  <path class="cls-1" d="m95.49,111.61c-2.28,2.88-5.65,5.24-9.39,6.87-6.6,2.9-14.38,3.54-19.5.82-5.3-2.82-7.58-9.18-8.63-12.11-2.03-5.67-.58-10.02-3.47-14.38-2.31-3.49-5.04-5.2-7.6-6.46l3.06-1.76c2.2,1.24,5.5,3.43,7.48,6.87,2.48,4.29,1.48,7.14,3.22,12.72.9,2.88,2.86,9.13,7.41,11.91,4.31,2.63,10.83,2.06,16.42-.65,3.34-1.62,6.35-4,8.37-6.92,2.47-3.56,2.74-6.9,2.25-26.56-.16-6.45-.34-21.23-.51-26.17h2.82c.23,5.51.48,21.21.7,28.83.56,19.97.24,23.36-2.63,26.99Z"/>
  <path class="cls-5" d="m102.13,41.4c-1.12,1.96-2.57,3.36-3.47,6.57-.31,1.13-.47,2.19-.55,3.12h-4.33c-.01-.97-.13-2.09-.44-3.27-.83-3.2-2.37-4.47-3.67-6.64-2.93-4.9-2.51-13.38-.62-17.89.48-1.14,2.83-5.75,6.63-5.85,4.01-.11,6.73,4.96,7.16,5.94,2.01,4.51,2.14,13.05-.71,18.02Z"/>
  <rect class="cls-4" x="93.13" y="50.16" width="5.82" height="6.92" rx="1.38" ry="1.38"/>
  <path class="cls-4" d="m90.82,52.11v3.02c0,.82-.67,1.49-1.49,1.49s-1.48-.67-1.48-1.49v-3.02c0-.82.67-1.49,1.48-1.49s1.49.67,1.49,1.49Z"/>
  <rect class="cls-8" x="-1251.33" y="-3948.24" width="6467.34" height="6437.3"/>
</svg>