<?xml version="1.0" encoding="UTF-8"?>
<svg id="Calque_1" data-name="Calque 1" xmlns="http://www.w3.org/2000/svg" xmlns:xlink="http://www.w3.org/1999/xlink" viewBox="0 0 214.5 144.38">
  <defs>
    <style>
      .cls-1, .cls-2, .cls-3, .cls-4, .cls-5, .cls-6, .cls-7, .cls-8 {
        fill: none;
      }

      .cls-9 {
        fill: #d6d6d6;
      }

      .cls-9, .cls-10, .cls-11, .cls-2 {
        stroke: #000;
      }

      .cls-9, .cls-10, .cls-11, .cls-2, .cls-3, .cls-4, .cls-12, .cls-13, .cls-14, .cls-5, .cls-6, .cls-15, .cls-16, .cls-7, .cls-17, .cls-18, .cls-19, .cls-8 {
        stroke-linejoin: round;
      }

      .cls-9, .cls-10, .cls-11, .cls-2, .cls-3, .cls-4, .cls-12, .cls-13, .cls-14, .cls-5, .cls-6, .cls-15, .cls-16, .cls-7, .cls-17, .cls-18, .cls-8 {
        stroke-linecap: round;
      }

      .cls-10 {
        fill: #f3d587;
      }

      .cls-11, .cls-14, .cls-20, .cls-17 {
        fill: #fff;
      }

      .cls-3, .cls-12, .cls-13, .cls-14, .cls-5, .cls-15, .cls-16, .cls-7, .cls-17, .cls-18, .cls-21, .cls-19, .cls-8 {
        stroke: #010101;
      }

      .cls-3, .cls-21 {
        stroke-width: 1.4px;
      }

      .cls-4 {
        stroke-width: 3px;
      }

      .cls-4, .cls-22 {
        stroke: #cfaa57;
      }

      .cls-22 {
        fill: #cfaa57;
        stroke-width: 2.91px;
      }

      .cls-22, .cls-21 {
        stroke-miterlimit: 10;
      }

      .cls-12 {
        stroke-width: 1.15px;
      }

      .cls-12, .cls-18 {
        fill: #aeadd7;
      }

      .cls-23 {
        clip-path: url(#clippath);
      }

      .cls-13 {
        fill: #d6d7d7;
      }

      .cls-13, .cls-14, .cls-5 {
        stroke-width: 1.21px;
      }

      .cls-24 {
        fill: #f7e7d5;
      }

      .cls-25 {
        fill: #010101;
      }

      .cls-26 {
        fill: #dfdfe0;
      }

      .cls-27 {
        fill: #566985;
      }

      .cls-28, .cls-21, .cls-19 {
        fill: #76ac76;
      }

      .cls-6 {
        stroke: #fff;
        stroke-width: 8px;
      }

      .cls-15 {
        fill: #89ccf2;
      }

      .cls-15, .cls-16, .cls-17, .cls-18, .cls-8 {
        stroke-width: 1.11px;
      }

      .cls-16 {
        fill: #b8dfde;
      }

      .cls-7 {
        stroke-width: .84px;
      }

      .cls-19 {
        stroke-width: 2.41px;
      }
    </style>
    <clipPath id="clippath">
      <path class="cls-1" d="m27.64,85.14c.04.2.07.41.1.61-1.27,2.07-2.2,4.03-3.15,6.38-.41,1.01-.79,2.03-1.02,3.09-.86,4.03.74,8.38,3.75,11.21.14.13.27.26.42.38,3.28,2.8,7.85,3.86,12.11,3.21,1.55-.24,2.21-1.76,3.02-2.7.29-.33.59-.69,1.01-.8.42-.12.97.12.99.56,0,.13-.04.25-.08.37-.21.58-.46,1.13-.75,1.67-.38.71-.82,1.38-1.32,2,1.8.12,3.31-.46,4.85-.61.68-.07,1.39-.03,1.99.29.16.09.32.21.42.37.18.31.07.76-.24.95.4-.02.68.32.64.63s-.31.56-.61.66c.31.1.48.31.55.56.02.07.03.14,0,.21-.06.26-.4.35-.56.57.08.39-.08.72-.31.96s-.52.41-.82.56c-1.21.62-2.5,1.08-3.82,1.36-5.92,1.45-13.16.46-18.63-2.66-2.9-1.7-5.43-3.05-7.87-5.5-2.45-2.46-4.22-6.08-4.86-9.49-.46-2.44-.23-4.96.15-7.41.81-5.18,2.29-10.25,4.39-15.05l9.66,7.62h0Z"/>
    </clipPath>
  </defs>
  <rect class="cls-6" x="-4608.71" y="-1170.78" width="6467.34" height="6437.3"/>
  <g>
    <path class="cls-4" d="m110.87,79.24c1.74-1.21,4.7-2.97,6.54-4.02-2.21-1.43-3.71-2.72-5.92-4.14"/>
    <line class="cls-4" x1="79.11" y1="74.81" x2="115.06" y2="74.81"/>
  </g>
  <g>
    <g>
      <path class="cls-7" d="m135.7,26.23c1.13-1.48,4.05-1.77,5.89-.68"/>
      <path class="cls-17" d="m130.67,53.42l-.44,2.68c-.02.15-.16.25-.3.24-.15-.02-.26-.15-.25-.3l.08-1.3.91-1.31h0Z"/>
      <path class="cls-17" d="m131.94,52.77c-.22.82-.22,1.39-.2,1.69.02.16-.09.3-.23.34-.02,0-.06.01-.08.01-.13,0-.25-.09-.29-.23-.09-.31-.21-.85-.18-1.45l-.37.77-.89,1.86-.16.35c-.06.13-.22.19-.34.11-.08-.04-.12-.13-.12-.22v-.04l.59-3.81s.22-1.37.28-2.33v-.09c.04-.28.2-.52.46-.61.39-.15.8.07.94.46l.02.06.04.13.15.46s.73,1.21.37,2.54h.02Z"/>
      <path class="cls-16" d="m136.07,81.8l-5.04.07c-.37,0-.68-.3-.69-.68,0-.27.13-.51.36-.63l4.28-2.36c.1-.06.21-.08.32-.08h2.19c.32,0,.59.23.66.54l.42,1.93s.02.09.02.13v.34c.03.39-.28.72-.66.72h-.87s-.99.03-.99.03h0Z"/>
      <path class="cls-17" d="m138.05,73.91h-2.96v4.21h2.96v-4.21Z"/>
      <path class="cls-17" d="m144.78,73.91h-2.96l.2,4.21h2.96l-.2-4.21Z"/>
      <path class="cls-15" d="m143.81,43.62c.2,2.11,1.56,32.87,1.56,32.87h-4l-1.75-27.64-.72.02-.47,27.62h-3.99s-.22-28.74.02-32.81c0,0,9.36-.07,9.36-.07Z"/>
      <path class="cls-16" d="m144,81.81l5.04.07c.37,0,.68-.3.69-.68,0-.27-.13-.51-.36-.63l-4.28-2.36c-.1-.06-.21-.08-.32-.08h-2.19c-.32,0-.59.23-.67.54l-.42,1.93s-.02.09-.02.13v.34c-.03.39.28.72.66.72h.87s.99.03.99.03h0Z"/>
      <path class="cls-16" d="m142.67,27.85v15.94h-7.18v-15.26l1.18-2.27,1.27,2.27,1.27-1.33,1.27,1.33,1.02-2.27,1.16,1.59h0Z"/>
      <path class="cls-16" d="m139.21,27.2l-1.27,1.33-1.27-2.27.86-.53.6.53,1.08.94h0Z"/>
      <path class="cls-16" d="m141.51,26.26l-1.02,2.27-1.27-1.33.91-.94.53-.55.86.55h0Z"/>
      <path class="cls-17" d="m145.85,39.03c.3.42.4.94.42,1.28l-.42-1.28Z"/>
      <path class="cls-17" d="m148.32,33.85l-2.58,4.25-.06.06-.09.08-.03-.08-.94-2.8.08,2.8v.24l-.3-.03-.17.83-.29,1.41-.27,1.29,1.14.08.42,15.08h-4.28l.31-17.26.02-1.06-.16.67.06-1.56v-.14l.08-1.91.14-3.95.1-5.57,2.59,1.12c.51.12,2.32.81,3.59,4.38.09.27.18.54.27.84.13.42.23.84.35,1.24h.01,0Z"/>
      <path class="cls-17" d="m133.35,57.05l.22-15-1.15,7.77-1-.03h-.07l-1.39-.04h0l-1.09-.03s1.32-10.92,1.91-16.3c.56-5.2,3.01-5.9,3.01-5.9l2.89-1.25.41,13.15.55,17.65h-4.29Z"/>
      <path class="cls-15" d="m149.82,31.37l-1.5,2.49-2.58,4.25-.06.05-.09.08-.03-.08h-.86v.24l-.3-.03-.17.84-1.15.21-1.88-1.56-.03-.02.03-.12.32-1.47,1.64-3.6,4.52-.86,2.13-.41h0Z"/>
      <path class="cls-17" d="m145.56,38.16h-.86l-.3.21-.17.83-.29,1.41-.27,1.29,1.14.08,3.38.25c.14.03.27.03.41,0,.91-.2,1.24-1.65,1.06-2.58-.23-1.31-.66-3.32-1.34-5.78l-2.58,4.25-.06.06h-.11,0Z"/>
      <path class="cls-17" d="m143,38.21l1.4.16-.17.83-.29,1.41c-1.17-.16-1.88-.46-1.88-.46l-.78-.35-.89-.4c-.41-.22-.67-.66-.67-1.13v-.34c0-.27.08-.53.23-.75l.34-.76c.23-.33.59-.57.98-.63h.03l.44-.04-.22.5c2.17.23,1.48,1.98,1.48,1.98h0Z"/>
      <path class="cls-8" d="m138.78,14.14s0,.63-.22,1.05h0"/>
      <path class="cls-8" d="m137.6,15.45c-.48-.29-.81-1.02-.81-1.02"/>
      <path class="cls-8" d="m136.06,21.23h0c-.06-.01-.45-.11-.68-.76-.25-.7-.54-.61-.56-1.33-.02-.68.67-.39.74-.34"/>
      <path class="cls-8" d="m141.66,15.03s-.48.29-1,.39"/>
      <path class="cls-17" d="m142.34,18.23c.01.4.02,1.43-.14,2.49-.13.89-.39,1.8-.87,2.38-.34.41-.63.71-.89.92-.58.46-.94.48-1.02.47-.09.03-.58.1-1.43-.47-.22-.15-.45-.33-.72-.57-.56-.51-.94-1.37-1.21-2.22-.32-1.03-.47-2.05-.51-2.45h0s-.02-.09-.01-.14c.01.04.03.06.03.06-.02-.16-.02-.33-.01-.49.1-.83.84-2.2.92-2.43l.11-.02c.3.02.65-.06,1-.31.15.1.3.14.46.12.23-.03.39-.19.49-.39,0,0,.01.01.02.01.07.06.48.44,1-.07.27.33.7.37,1.09.29.23.19.56.17.56.17.02.03.04.06.05.08.97,1.41,1.06,2.36,1.07,2.46.06-.25.1-.49.13-.72-.06.42-.13.72-.15.79v.02h.02Z"/>
      <path class="cls-8" d="m135.56,18.21c-.02.15-.03.3-.02.43"/>
      <path class="cls-8" d="m135.56,18.78h0c-.03-.1-.21-.5-.33-1.05v-.02c-.24-1.1-.25-2.77,1.53-3.5,0,0,.11-.6.86-.51,0,0,.87-.98,1.92-.18.73-.21.93.37.93.37,2.01.49,2.14,2.35,2.02,3.47v.06"/>
      <path class="cls-8" d="m141.3,15.79s1.03,1.55,1.03,2.44"/>
      <path class="cls-8" d="m135.53,18.62s0,.07.02.15v.02"/>
      <path class="cls-8" d="m142.34,18.23h0"/>
      <path class="cls-8" d="m142.33,18.05v.15"/>
      <path class="cls-8" d="m142.19,20.72h0c.05-.02.43-.19.56-.86.15-.72.44-.69.36-1.41-.09-.68-.72-.28-.79-.22"/>
      <path class="cls-8" d="m140,14.51c-.13.25-.27.44-.39.57-.02.02-.03.04-.04.04"/>
      <path class="cls-8" d="m138.57,15.2h-.01"/>
      <path class="cls-20" d="m139.28,18.14s.23,2.14.68,3.21c0,0-.09.22-.77.08"/>
      <path class="cls-8" d="m139.28,18.14s.23,2.14.68,3.21c0,0-.09.22-.77.08"/>
      <path class="cls-17" d="m137.89,19.38s.06-.1.05-.22-.04-.22-.09-.21c-.04,0-.06.1-.05.22,0,.12.04.22.09.21Z"/>
      <path class="cls-17" d="m140.76,19.09s.06-.1.05-.22-.04-.22-.09-.21c-.04,0-.06.1-.05.22,0,.12.05.22.09.21Z"/>
      <path class="cls-7" d="m133.63,33.68c-.34-.06-1.4-.11-1.34-.98.06-.86,1.36-3.52,2.42-3.47,1.06.06,1.87,4.34,1.31,4.48-.56.14-1.2.03-1.2.03"/>
      <path class="cls-7" d="m133.5,30.05s1.08-2.22,1.32-2.2c.3.02.92,2.81.92,2.81"/>
      <path class="cls-17" d="m140.65,25.71l-1.34,1.42-1.79-1.39.46-1.72c.85.57,1.34.49,1.43.47.08,0,.44,0,1.02-.47l.21,1.69h0Z"/>
      <path class="cls-7" d="m141.49,25.49c2.59,1.56,1.88,4.75,1.88,4.75"/>
      <path class="cls-7" d="m134.69,28c.06-.25.84-1.68,1.31-2.1"/>
      <path class="cls-7" d="m143.37,31.85c.44,0,.8-.37.8-.82s-.35-.82-.8-.82-.8.37-.8.82.35.82.8.82Z"/>
      <path class="cls-7" d="m133.63,33.91c.13,0,.23-.13.23-.28s-.11-.29-.23-.29-.23.13-.23.29.11.28.23.28Z"/>
      <path class="cls-7" d="m134.92,34.03c.13,0,.23-.13.23-.29s-.11-.28-.23-.28-.23.13-.23.28.11.29.23.29Z"/>
      <path class="cls-17" d="m173.03,55.05l.18.48.8,2.18c.06.15.22.23.36.18.13-.04.2-.16.2-.29s0-.05-.01-.08l-.06-.25h0l-.27-1.06-1.2-1.16h0Z"/>
      <path class="cls-17" d="m170.26,34.44l.05,3.99.06.85.06.91.17,2.6.89,8.62c0,.06.01.11.03.16l-.05.4s-.5,1.4.12,2.69c.01.02.02.04.03.06.36.77.48,1.32.51,1.63.02.16.15.29.31.29h.01c.16,0,.3-.13.32-.3.03-.34.04-.91-.1-1.53l.53.71-.18-.48,1.2,1.16.27,1.06h0l.23.32c.09.12.27.13.37.04.05-.05.08-.12.08-.19,0-.03,0-.06-.02-.1l-1.37-3.78s-.5-1.37-.76-2.34c0,0,0-.03-.01-.04l.2-12.44s.32-3.16.32-6.21h-3.02l.04-.32c-.1.74-.21,1.5-.32,2.24h.03Z"/>
      <path class="cls-17" d="m173.03,55.05l.18.48,1.29,1.74-.27-1.06-1.2-1.16Z"/>
      <path class="cls-17" d="m157.45,54.01l-.18.48-.8,2.18c-.06.15-.22.23-.36.18-.13-.04-.2-.16-.2-.29s0-.05.01-.08l.06-.25h0l.27-1.06,1.2-1.16h0Z"/>
      <path class="cls-17" d="m159.92,33.41l-.05,3.99-.06.85-.06.91-.17,2.6-.89,8.62c0,.06-.01.11-.03.16l.05.4s.5,1.4-.12,2.69c-.01.02-.02.04-.03.06-.36.77-.48,1.32-.51,1.63-.02.16-.15.29-.31.29h-.01c-.16,0-.3-.13-.32-.3-.03-.34-.04-.91.1-1.53l-.53.71.18-.48-1.2,1.16-.27,1.06h0l-.23.32c-.09.12-.27.13-.37.04-.05-.05-.08-.12-.08-.19,0-.03,0-.06.02-.1l1.37-3.78s.5-1.37.76-2.34c0,0,0-.03.01-.04l-.2-12.44s-.32-3.16-.32-6.21h3.02l-.04-.32c.1.74.21,1.5.32,2.24h-.03Z"/>
      <path class="cls-17" d="m157.45,54.01l-.18.48-1.29,1.74.27-1.06,1.2-1.16Z"/>
      <path class="cls-18" d="m170.6,26.21s3.45-.17,3.41,6.84l-3.17.15-.25-6.99Z"/>
      <path class="cls-17" d="m162.84,77.33l.56-10.24-3.27.32.23,9.86,2.47.06h0Z"/>
      <path class="cls-17" d="m165.55,77.46v-2.27l.37-6.4,2.89-1.55-.61,10.03-2.66.19h0Z"/>
      <path class="cls-18" d="m170.72,49.44l-2.22,24.07h-3.49l.02-26.88-.54-.08-1.12,26.96h-3.49s-.44-9.9-.96-18.78c-.09-1.57-.19-3.12-.29-4.57-.22-3.23-.02-5.62.35-7.36.23-1.11.53-1.95.82-2.6.62-1.34,1.23-1.77,1.23-1.77,4.04-2.4,7.58,0,7.58,0,.63.94,1.09,1.98,1.43,3,.15.44.27.9.37,1.34.06.29.13.58.16.86.54,3.12.15,5.8.15,5.8h0Z"/>
      <path class="cls-18" d="m161.13,80.95l-5.04.07c-.37,0-.68-.3-.69-.68,0-.27.13-.51.36-.63l4.28-2.35c.1-.06.21-.09.32-.09h2.19c.32,0,.59.23.66.55l.42,1.93s.02.09.02.13v.34c.03.39-.28.71-.66.71h-.87s-.99.01-.99.01h0Z"/>
      <path class="cls-18" d="m167.45,80.95l5.04.06c.37,0,.68-.29.69-.68,0-.27-.13-.51-.36-.63l-4.28-2.35c-.1-.06-.21-.09-.32-.09h-2.19c-.32,0-.59.23-.67.55l-.42,1.93s-.02.09-.02.13v.34c-.03.39.28.72.66.72h.87s.99.01.99.01h0s0,.01,0,.01Z"/>
      <path class="cls-18" d="m171,42.78h-11.37s-1.02.01-1.02.01v-.08l.37-1.64.24-14.64c0-.05-.01-.08-.01-.08l2.57-.72,1.61-.45-1.14,1.04,2.67,2.52,2.71-2.52-1.09-1.04,1.48.35h.01l2.83.68-.39,14.78.53,1.76h0Z"/>
      <path class="cls-15" d="m167.63,26.25l-2.71,2.52,1.7-3.45,1.02.93h0Z"/>
      <path class="cls-15" d="m164.92,28.77l-2.67-2.52,1.07-.98,1.6,3.5Z"/>
      <path class="cls-15" d="m164.92,28.77l-2.67-2.52,1.07-.98,1.6,3.5Z"/>
      <path class="cls-15" d="m167.63,26.25l-2.71,2.52,1.7-3.45,1.02.93h0Z"/>
      <path class="cls-12" d="m164.92,28.77l-2.67-2.52,1.07-.98,1.6,3.5Z"/>
      <path class="cls-12" d="m167.63,26.25l-2.71,2.52,1.7-3.45,1.02.93h0Z"/>
      <path class="cls-17" d="m166.54,25.21l-1.62,3.56-1.53-3.56.49-1.29h2.45l.2,1.29h0Z"/>
      <path class="cls-8" d="m164.69,14.03s0,.63-.22,1.05h0"/>
      <path class="cls-8" d="m163.5,15.35c-.48-.29-.81-1.02-.81-1.02"/>
      <path class="cls-8" d="m161.97,21.13h0c-.06-.01-.45-.11-.68-.76-.25-.7-.54-.61-.56-1.33-.02-.68.67-.39.74-.34"/>
      <path class="cls-8" d="m167.56,14.92s-.48.29-1,.39"/>
      <path class="cls-17" d="m162.5,15.66c.3.02.65-.06,1-.31.15.1.3.14.46.11.23-.03.39-.18.49-.38,0,0,.01.01.02.01.06.06.48.44,1-.07.27.33.7.37,1.09.29.23.19.56.16.56.16.02.03.04.06.06.09.97,1.41,1.06,2.36,1.07,2.46.06-.25.1-.49.13-.72-.05.42-.13.72-.15.79v.02h0c.02.4.02,1.43-.14,2.5-.13.89-.39,1.8-.87,2.38-1.09,1.37-1.81,1.39-1.91,1.39-.11.03-.86.15-2.15-1.04-.56-.5-.94-1.37-1.21-2.22-.32-1.03-.46-2.05-.51-2.44h0s-.01-.09-.01-.15c.02.04.03.06.03.06-.01-.16-.02-.33-.01-.49.1-.82.84-2.19.92-2.43l.11-.03h-.01s.03-.01.03-.01Z"/>
      <path class="cls-8" d="m161.46,18.11c-.02.15-.03.3-.02.43"/>
      <path class="cls-8" d="m161.46,18.68h0c-.03-.1-.21-.5-.33-1.05v-.02c-.24-1.1-.25-2.77,1.53-3.5,0,0,.11-.6.86-.51,0,0,.87-.98,1.92-.18.73-.21.93.37.93.37,2.01.49,2.14,2.35,2.02,3.47v.06"/>
      <path class="cls-8" d="m167.2,15.68s1.03,1.55,1.03,2.44"/>
      <path class="cls-8" d="m161.44,18.52s0,.07.02.15v.02"/>
      <path class="cls-8" d="m168.24,18.12h0"/>
      <path class="cls-8" d="m168.24,17.95v.15"/>
      <path class="cls-8" d="m168.1,20.61h0c.05-.02.43-.19.56-.86.15-.72.44-.69.36-1.41-.09-.68-.72-.28-.79-.22"/>
      <path class="cls-8" d="m165.9,14.41c-.13.25-.27.44-.39.57-.02.02-.03.04-.04.04"/>
      <path class="cls-8" d="m164.48,15.1h-.01"/>
      <path class="cls-20" d="m165.17,18.04s.23,2.14.68,3.21c0,0-.09.22-.77.08"/>
      <path class="cls-8" d="m165.17,18.04s.23,2.14.68,3.21c0,0-.09.22-.77.08"/>
      <path class="cls-17" d="m163.79,19.27s.06-.1.05-.22-.04-.22-.09-.21c-.04,0-.06.1-.05.22,0,.12.04.22.09.21Z"/>
      <path class="cls-17" d="m166.66,18.99s.06-.1.05-.22-.04-.22-.09-.21c-.04,0-.06.1-.05.22,0,.12.05.22.09.21Z"/>
      <path class="cls-17" d="m168.61,30.53h-1.99v.85h1.99v-.85Z"/>
      <path class="cls-18" d="m159.52,26.37s-3.45-.18-3.41,6.84l3.17.15.25-6.99Z"/>
    </g>
    <path class="cls-22" d="m183.91,64.73c1.82-2,4.33-2.99,7.51-2.99,2.95,0,5.3.86,7.08,2.57,1.77,1.7,2.65,3.89,2.65,6.54,0,1.62-.32,2.91-.96,3.92-.65,1.01-1.96,2.47-3.95,4.42-1.45,1.41-2.38,2.6-2.83,3.59-.28.63-.48,1.47-.58,2.51-.1,1.03-.94,1.82-1.96,1.82-1.16,0-2.08-1.03-1.96-2.23.12-1.17.34-2.18.65-3.02.5-1.32,1.62-2.85,3.35-4.57l1.81-1.8c.54-.51.98-1.05,1.32-1.62.61-.99.92-2.01.92-3.08,0-1.48-.44-2.77-1.32-3.87-.88-1.09-2.34-1.64-4.37-1.64-2.52,0-4.25.94-5.23,2.83-.37.72-.63,1.65-.79,2.79-.13.99-.97,1.74-1.95,1.74-1.22,0-2.15-1.12-1.96-2.35.34-2.21,1.2-4.07,2.56-5.56h.03Zm7.02,27.07c1.22,0,2.2,1.01,2.2,2.27v.2c0,1.25-.99,2.27-2.2,2.27s-2.2-1.01-2.2-2.27v-.2c0-1.25.99-2.27,2.2-2.27Z"/>
    <g>
      <path class="cls-28" d="m139.61,122.6h-6.97v7.97h6.97v-7.97Z"/>
      <path class="cls-21" d="m176.72,90.27h.07c.18,0,.35.02.53.05,1.18.25,2.07,1.32,2.07,2.6v6.42h-56.92v-6.42c0-.16.02-.32.04-.48l.03-.13c.03-.12.06-.24.11-.35l.04-.1c.06-.13.13-.27.2-.39l.02-.04.06-.08c.06-.08.13-.16.19-.24l.11-.12c.1-.09.19-.18.3-.25l.04-.03.28-.16c.06-.03.1-.06.16-.09.22-.1.46-.16.7-.19.1-.01.2-.02.31-.02h.16v.02h1.56v-.02h2.98v.02h1.56v-.02h2.98s1.56.01,1.56.01h0s2.98-.01,2.98-.01h0s1.56.01,1.56.01h0s3-.01,3-.01h0s1.56.01,1.56.01h0s2.98-.01,2.98-.01h1.56s2.97,0,2.97,0h1.56s2.98,0,2.98,0h19.29"/>
      <path class="cls-3" d="m176.72,90.27h.07c.18,0,.35.02.53.05,1.18.25,2.07,1.32,2.07,2.6v6.42h-56.92v-6.42c0-.16.02-.32.04-.48l.03-.13c.03-.12.06-.24.11-.35l.04-.1c.06-.13.13-.27.2-.39l.02-.04.06-.08c.06-.08.13-.16.19-.24l.11-.12c.1-.09.19-.18.3-.25l.04-.03.28-.16c.06-.03.1-.06.16-.09.22-.1.46-.16.7-.19.1-.01.2-.02.31-.02h.16v.02h1.56v-.02h2.98v.02h1.56v-.02h2.98s1.56.01,1.56.01h0s2.98-.01,2.98-.01h0s1.56.01,1.56.01h0s3-.01,3-.01h0s1.56.01,1.56.01h0s2.98-.01,2.98-.01h1.56s2.97,0,2.97,0h1.56s2.98,0,2.98,0h19.29"/>
      <path class="cls-24" d="m123.61,90.73l-.04.03.04-.03Z"/>
      <path class="cls-24" d="m122.47,130.79c0,.37.08.72.2,1.03-.13-.32-.2-.67-.2-1.03Z"/>
      <path class="cls-24" d="m178.96,132.25l-.05.07.05-.07Z"/>
      <path class="cls-24" d="m178.68,132.61l-.08.09.08-.09Z"/>
      <path class="cls-24" d="m125.06,133.44c-.36,0-.7-.07-1.01-.21.31.13.65.21,1.01.21Z"/>
      <path class="cls-24" d="m178.19,133.02l.08-.05h.01s-.09.04-.09.04h0Z"/>
      <path class="cls-24" d="m177.86,133.2l-.07.03.07-.03Z"/>
      <path class="cls-24" d="m122.92,132.27c.16.25.38.46.61.65l.09.07c-.28-.19-.51-.44-.7-.72Z"/>
      <path class="cls-24" d="m177.36,133.37l-.1.02.1-.02Z"/>
      <path class="cls-3" d="m122.47,99.35v31.43c0,.37.08.72.2,1.03.06.16.15.31.24.45.18.28.42.53.7.72.14.1.29.18.44.25.31.13.65.21,1.01.21h51.74c.16,0,.31-.02.47-.04l.1-.02c.15-.03.29-.08.42-.13l.07-.03c.11-.05.23-.11.34-.18l.08-.06c.11-.08.22-.17.32-.27l.08-.09c.08-.09.16-.18.23-.29l.05-.07h0c.27-.43.43-.93.43-1.47v-31.43m-54.64,1.93h52.5v29.28h-52.5v-29.28h0Z"/>
      <path class="cls-26" d="m126.01,93.67c.07,0,.13-.01.2-.03-.06.02-.13.03-.2.03Z"/>
      <path class="cls-26" d="m126.26,93.63c.06-.02.11-.04.16-.08-.05.03-.1.06-.16.08Z"/>
      <path class="cls-26" d="m126.71,93.23c-.06.13-.16.24-.28.32.12-.08.22-.18.28-.32Z"/>
      <path class="cls-26" d="m130.56,93.67c.07,0,.13-.01.2-.03-.06.02-.13.03-.2.03Z"/>
      <path class="cls-26" d="m130.8,93.63c.06-.02.11-.04.16-.08-.05.03-.1.06-.16.08Z"/>
      <path class="cls-26" d="m135.34,93.63c.06-.02.11-.04.16-.08-.05.03-.1.06-.16.08Z"/>
      <path class="cls-26" d="m135.79,93.23c-.06.13-.16.24-.28.32.11-.08.22-.18.28-.32Z"/>
      <path class="cls-26" d="m135.1,93.67c.07,0,.13-.01.2-.03-.06.02-.13.03-.2.03Z"/>
      <path class="cls-26" d="m139.88,93.63c.06-.02.11-.04.16-.08-.05.03-.1.06-.16.08Z"/>
      <path class="cls-26" d="m139.64,93.67c.07,0,.13-.01.2-.03-.06.02-.13.03-.2.03Z"/>
      <path class="cls-26" d="m139.14,93.48l-.1-.11.1.11Z"/>
      <path class="cls-26" d="m144.21,93.67c.07,0,.13-.01.2-.03-.06.02-.13.03-.2.03Z"/>
      <path class="cls-26" d="m144.45,93.63c.06-.02.11-.04.16-.08-.05.03-.1.06-.16.08Z"/>
      <path class="cls-26" d="m148.25,93.48l-.1-.11.1.11Z"/>
      <path class="cls-26" d="m148.99,93.63c.06-.02.11-.04.16-.08-.05.03-.1.06-.16.08Z"/>
      <path class="cls-26" d="m148.75,93.67c.07,0,.13-.01.2-.03-.06.02-.13.03-.2.03Z"/>
      <path class="cls-26" d="m153.3,93.67c.07,0,.13-.01.2-.03-.06.02-.13.03-.2.03Z"/>
      <path class="cls-26" d="m153.54,93.63c.06-.02.11-.04.16-.08-.05.03-.1.06-.16.08Z"/>
      <path class="cls-26" d="m158.07,93.63c.06-.02.11-.04.16-.08-.05.03-.1.06-.16.08Z"/>
      <path class="cls-26" d="m157.84,93.67c.07,0,.13-.01.2-.03-.06.02-.13.03-.2.03Z"/>
      <path class="cls-26" d="m162.36,93.67c.07,0,.13-.01.2-.03-.06.02-.13.03-.2.03Z"/>
      <path class="cls-26" d="m163.05,93.23c-.06.13-.16.24-.28.32.12-.08.22-.18.28-.32Z"/>
      <path class="cls-26" d="m162.6,93.63c.06-.02.11-.04.16-.08-.05.03-.1.06-.16.08Z"/>
      <path class="cls-26" d="m166.4,93.48l-.1-.11.1.11Z"/>
      <path class="cls-26" d="m166.9,93.67c.07,0,.13-.01.2-.03-.06.02-.13.03-.2.03Z"/>
      <path class="cls-26" d="m167.15,93.63c.06-.02.11-.04.16-.08-.05.03-.1.06-.16.08Z"/>
      <path class="cls-26" d="m172.1,93.23c-.06.13-.16.24-.28.32.12-.08.22-.18.28-.32Z"/>
      <path class="cls-26" d="m171.4,93.67c.07,0,.13-.01.2-.03-.06.02-.13.03-.2.03Z"/>
      <path class="cls-26" d="m171.64,93.63c.06-.02.11-.04.16-.08-.05.03-.1.06-.16.08Z"/>
      <path class="cls-26" d="m175.95,93.67c.07,0,.13-.01.2-.03-.06.02-.13.03-.2.03Z"/>
      <path class="cls-26" d="m175.44,93.48l-.1-.11.1.11Z"/>
      <path class="cls-26" d="m176.19,93.63c.06-.02.11-.04.16-.08-.05.03-.1.06-.16.08Z"/>
      <path class="cls-14" d="m126.01,88.62c-.08,0-.16.02-.23.04h0c-.06.03-.13.05-.18.1-.01,0-.02.01-.03.02-.06.04-.11.1-.16.16h-.01c-.04.08-.08.14-.1.22v.04c-.04.07-.05.15-.05.23v3.45c0,.44.35.8.79.8.07,0,.13,0,.2-.03h.04c.06-.03.11-.06.16-.09h.01c.11-.09.22-.19.28-.32.06-.11.09-.23.09-.36v-3.45c0-.44-.35-.8-.79-.8h0Z"/>
      <path class="cls-14" d="m130.56,88.62c-.08,0-.16.02-.23.04h-.01c-.06.03-.13.05-.18.1,0,0-.03.01-.03.02-.06.04-.11.1-.16.16h0c-.05.08-.09.14-.11.22v.04c-.04.07-.05.15-.05.23v3.45c0,.44.35.8.79.8.07,0,.13,0,.2-.03h.04c.06-.03.11-.06.16-.09h.01c.06-.04.11-.09.16-.15,0,0,0,0,.01-.01.04-.04.08-.11.11-.16.06-.11.09-.23.09-.36v-3.45c0-.44-.35-.8-.79-.8h0Z"/>
      <path class="cls-14" d="m135.1,88.62c-.08,0-.16.02-.23.04h0c-.06.03-.13.05-.18.1,0,0-.03.01-.03.02-.06.04-.11.1-.16.16h-.01c-.04.08-.08.14-.1.22v.04c-.04.07-.05.15-.05.23v3.45c0,.44.35.8.79.8.07,0,.13,0,.2-.03h.04c.06-.03.11-.06.16-.09h.01c.11-.09.22-.19.28-.32.06-.11.09-.23.09-.36v-3.45c0-.44-.35-.8-.79-.8h0Z"/>
      <path class="cls-14" d="m139.64,88.62c-.08,0-.16.02-.23.04h-.01c-.06.03-.13.05-.18.1-.01,0-.03.01-.03.03-.06.04-.11.1-.16.16h0c-.06.08-.09.14-.11.22v.04c-.04.07-.05.15-.05.23v3.45c0,.19.07.36.18.5l.1.11c.13.12.31.19.5.19.07,0,.13-.01.2-.03h.04c.06-.03.11-.06.16-.09h.01c.06-.04.11-.09.16-.15h0c.04-.06.08-.11.11-.17.06-.11.09-.23.09-.36v-3.45c0-.44-.35-.8-.79-.8h.02Z"/>
      <path class="cls-14" d="m144.21,88.62c-.08,0-.16.02-.23.04h0c-.06.03-.13.05-.18.1,0,0-.02.01-.03.02-.06.05-.11.1-.16.16h-.01c-.04.07-.08.14-.1.21v.04c-.04.07-.05.15-.05.23v3.45c0,.44.35.8.79.8.07,0,.13,0,.2-.03h.04c.06-.03.11-.06.16-.09h.01c.06-.04.11-.09.16-.15,0,0,0-.01,0-.01.04-.04.08-.11.11-.16.06-.11.09-.23.09-.36v-3.45c0-.44-.35-.8-.79-.8h0Z"/>
      <path class="cls-14" d="m148.75,88.62c-.08,0-.16.02-.23.04h0c-.06.03-.13.05-.18.1-.01,0-.03.01-.03.03-.06.04-.11.1-.16.16h0c-.05.08-.09.14-.11.22v.04c-.04.07-.05.15-.05.23v3.45c0,.19.07.36.18.5l.1.11c.13.12.31.19.5.19.07,0,.13-.01.2-.03h.04c.06-.03.11-.06.16-.09h.01c.06-.04.11-.09.16-.15h0c.04-.06.08-.11.11-.17.06-.11.09-.23.09-.36v-3.45c0-.44-.35-.8-.79-.8h.01Z"/>
      <path class="cls-14" d="m153.3,88.62c-.08,0-.16.02-.23.04h0c-.06.03-.13.05-.18.1,0,0-.03.01-.03.03-.06.04-.11.1-.16.16h-.01c-.04.08-.08.14-.1.22v.04c-.04.07-.05.15-.05.23v3.45c0,.44.35.8.79.8.07,0,.13-.01.2-.03h.04c.06-.03.11-.06.16-.09h.01c.06-.04.11-.09.16-.15h0c.04-.06.08-.11.11-.17.06-.11.09-.23.09-.36v-3.45c0-.44-.35-.8-.79-.8h0Z"/>
      <path class="cls-14" d="m157.83,88.62c-.08,0-.16.02-.23.04h-.01c-.06.03-.13.06-.18.1,0,0-.02.01-.03.02-.06.04-.11.1-.16.16h0c-.05.08-.09.14-.11.22v.04c-.04.07-.05.15-.05.23v3.45c0,.44.35.8.79.8.07,0,.13,0,.2-.03h.04c.06-.03.11-.06.16-.09h.01c.06-.04.11-.09.16-.15h0c.04-.06.08-.11.11-.17.06-.11.09-.23.09-.36v-3.45c0-.44-.35-.8-.79-.8h.01Z"/>
      <path class="cls-14" d="m162.36,88.62c-.08,0-.16.02-.23.04h-.01c-.06.03-.13.05-.18.1,0,0-.03.01-.03.02-.06.04-.11.1-.16.16h0c-.05.08-.09.14-.11.22v.04c-.04.07-.05.15-.05.23v3.45c0,.44.35.8.79.8.07,0,.13,0,.2-.03h.04c.06-.03.11-.06.16-.09h.01c.11-.09.22-.19.28-.32.06-.11.09-.23.09-.36v-3.45c0-.44-.35-.8-.79-.8h0Z"/>
      <path class="cls-14" d="m166.9,88.62c-.08,0-.16.02-.23.04h0c-.06.03-.13.05-.18.1-.01,0-.02.01-.03.02-.06.05-.11.1-.16.16h-.01c-.04.07-.08.14-.1.21v.04c-.04.07-.05.15-.05.23v3.45c0,.19.07.36.18.5l.1.11c.13.12.31.19.5.19.07,0,.13,0,.2-.03h.04c.06-.03.11-.06.16-.09h.01c.06-.04.11-.09.16-.15,0,0,0-.01,0-.01.04-.04.08-.11.11-.16.06-.11.09-.23.09-.36v-3.45c0-.44-.35-.8-.79-.8h0v.02Z"/>
      <path class="cls-14" d="m171.4,88.62c-.08,0-.16.02-.23.04h-.01c-.06.03-.13.06-.18.1,0,0-.02.01-.03.02-.06.04-.11.1-.16.16h0c-.05.08-.09.14-.11.22v.04c-.04.07-.05.15-.05.23v3.45c0,.44.35.8.79.8.07,0,.13,0,.2-.03h.04c.06-.03.11-.06.16-.09h.01c.11-.09.22-.19.28-.32.06-.11.09-.23.09-.36v-3.45c0-.44-.35-.8-.79-.8h0Z"/>
      <path class="cls-14" d="m175.95,88.62c-.08,0-.16.02-.23.04h0c-.06.03-.13.05-.18.1,0,0-.02.01-.03.02-.06.04-.11.1-.16.16h-.01c-.04.08-.08.14-.1.22v.04c-.04.07-.05.15-.05.23v3.45c0,.19.07.36.18.5l.1.11c.13.12.31.19.5.19.07,0,.13,0,.2-.03h.04c.06-.03.11-.06.16-.09h.01c.06-.04.11-.09.16-.15h0c.04-.06.08-.11.11-.17.06-.11.09-.23.09-.36v-3.45c0-.44-.35-.8-.79-.8h.01Z"/>
      <path class="cls-5" d="m169.9,130.57v-29.28"/>
      <path class="cls-5" d="m154.7,130.57v-29.28"/>
      <path class="cls-5" d="m162.3,130.57v-29.28"/>
      <path class="cls-5" d="m147.16,130.57v-29.28"/>
      <path class="cls-5" d="m139.61,130.57v-29.28"/>
      <path class="cls-5" d="m132.38,130.57v-29.28"/>
      <path class="cls-5" d="m177.02,116.05h-52.27"/>
      <path class="cls-5" d="m177.02,109.39h-52.27"/>
      <path class="cls-5" d="m177.13,122.7h-52.27"/>
      <path class="cls-5" d="m177.13,102.62h-52.27"/>
      <path class="cls-5" d="m177.06,129.39h-52.27"/>
      <path class="cls-19" d="m133.86,123.19l-1.03-4.59c.67-1.28,1.03-2.72,1.03-4.19,0-4.88-3.88-8.86-8.66-8.86s-8.67,3.98-8.67,8.86,3.88,8.86,8.67,8.86c1.29,0,2.57-.3,3.73-.87l4.3,1.39c.37.12.73-.22.64-.61h0Z"/>
      <path class="cls-20" d="m123.48,119.09c-.13,0-.26-.05-.36-.15l-3.49-3.57c-.1-.1-.15-.23-.15-.37s.05-.27.15-.37l1.03-1.05c.1-.1.22-.15.36-.15s.26.05.35.15l2.1,2.15,5.63-5.77c.1-.1.22-.15.36-.15s.26.05.35.15l1.03,1.05c.1.1.15.23.15.37s-.05.27-.15.37l-7.01,7.18c-.1.1-.22.15-.36.15h0Z"/>
      <path class="cls-13" d="m179.39,140.27c6.54,0,11.83-5.42,11.83-12.11s-5.3-12.11-11.83-12.11-11.83,5.42-11.83,12.11,5.3,12.11,11.83,12.11Z"/>
      <path class="cls-20" d="m179.39,137.76c5.18,0,9.38-4.3,9.38-9.6s-4.2-9.6-9.38-9.6-9.38,4.3-9.38,9.6,4.2,9.6,9.38,9.6Z"/>
      <path class="cls-27" d="m171.42,136.3c.1.1.19.19.29.28-.1-.09-.19-.18-.29-.28Z"/>
      <path class="cls-27" d="m171.71,136.58c.16.15.33.3.5.45-.17-.15-.34-.3-.5-.45Z"/>
      <path class="cls-27" d="m172.21,137.03c.13.11.28.23.42.34-.14-.11-.28-.22-.42-.34Z"/>
      <path class="cls-27" d="m172.73,137.45c.15.11.29.21.44.31-.15-.1-.29-.2-.44-.31Z"/>
      <path class="cls-25" d="m179.27,120.85c.28,0,.51-.23.51-.52s-.23-.52-.51-.52-.51.23-.51.52.23.52.51.52Z"/>
      <path class="cls-25" d="m175.65,121.85c-.24.15-.56.06-.7-.19-.14-.25-.06-.57.18-.71.24-.15.56-.06.7.19s.06.57-.18.72h0Z"/>
      <path class="cls-25" d="m173.01,124.56c-.14.25-.45.34-.7.19-.24-.15-.33-.46-.18-.72.14-.25.46-.34.7-.19.24.15.33.46.18.72Z"/>
      <path class="cls-25" d="m171.52,128.79c.28,0,.51-.23.51-.52s-.23-.52-.51-.52-.51.23-.51.52.23.52.51.52Z"/>
      <path class="cls-25" d="m172.82,132.68c-.24.15-.56.06-.7-.19-.14-.25-.06-.57.18-.72.24-.15.56-.06.7.19.14.25.06.57-.18.72Z"/>
      <path class="cls-25" d="m175.84,135.39c-.14.25-.46.34-.7.19s-.33-.46-.18-.72c.14-.25.45-.34.7-.19.24.15.33.46.18.72h0Z"/>
      <path class="cls-25" d="m179.27,136.71c.28,0,.51-.23.51-.52s-.23-.52-.51-.52-.51.23-.51.52.23.52.51.52Z"/>
      <path class="cls-25" d="m183.4,135.58c-.24.15-.56.06-.7-.19-.14-.25-.06-.57.18-.72.24-.15.56-.06.7.19s.06.57-.18.72h0Z"/>
      <path class="cls-25" d="m186.42,132.49c-.14.25-.46.34-.7.19-.24-.15-.33-.46-.18-.72.14-.25.45-.34.7-.19.24.15.33.46.18.72Z"/>
      <path class="cls-25" d="m187.01,128.79c.28,0,.51-.23.51-.52s-.23-.52-.51-.52-.51.23-.51.52.23.52.51.52Z"/>
      <path class="cls-25" d="m183.59,121.66c-.14.25-.45.34-.7.19-.24-.15-.33-.46-.18-.72.14-.25.45-.34.7-.19.24.15.33.46.18.71h0Z"/>
      <path class="cls-25" d="m186.12,124.56c-.14.25-.45.34-.7.19-.24-.15-.33-.46-.18-.72.14-.25.46-.34.7-.19.24.15.33.46.18.71h0Z"/>
      <path class="cls-25" d="m179.78,121.88v7.77c0,.2-.16.37-.36.37s-.36-.16-.36-.37v-7.77c0-.2.16-.37.36-.37s.36.16.36.37Z"/>
      <path class="cls-25" d="m185.02,128.29c0,.26-.2.48-.46.48h-6.46c-.26,0-.46-.21-.46-.48s.2-.48.46-.48h6.46c.26,0,.46.21.46.48Z"/>
      <path class="cls-25" d="m180.43,128.29c0,.17-.04.33-.11.48-.11.22-.3.4-.54.49-.11.04-.23.07-.36.07s-.25-.03-.36-.07c-.13-.05-.25-.13-.35-.23-.08-.08-.13-.16-.18-.25-.07-.14-.11-.3-.11-.48s.04-.33.11-.48c.11-.22.3-.4.53-.49.11-.04.23-.07.36-.07s.25.03.36.07c.13.05.25.13.35.23.08.08.13.16.18.26.07.15.11.3.11.48h0Z"/>
    </g>
  </g>
  <path class="cls-11" d="m66.67,84.99c0,.16-.08.3-.16.43-1.16,1.98-2.34,3.99-3.9,5.67-.22.23-.43.45-.66.67l-.04.04s-.03.03-.05.05c-.02.03-.05.05-.07.07-.07.07-.14.12-.21.19-1.95,1.71-4.54,2.85-7.1,2.46-1.03-.15-1.99-.53-2.92-.99-1.41-.7-2.71-1.56-3.9-2.56.06-.58.14-1.16.22-1.73.01-.09.03-.2.09-.27.07-.1.2-.13.32-.16.13-.03.25-.05.39-.06h0c.07-1.06.3-2.1.71-3.08.04-.1.09-.22.18-.28.08-.07.23-.09.31,0,.05.05.07.12.08.19.07.44.1.89.11,1.33.07-.44.2-.87.39-1.27.04-.07.08-.16.16-.2-.48-.31-.95-.64-1.42-.98-2.91-2.14-5.47-4.72-7.87-7.1-2.41-4.45-3.86-9.39-6.62-13.62.04,0,.07-.02.11-.03,2.7-.67,5.15-2.26,6.89-4.43h0c.42-.54.8-1.09,1.13-1.68.82,1.01,1.64,2.01,2.48,2.99,1.13,1.33,2.3,2.63,3.56,3.84.91.88,1.93,1.57,3.31,1.9.35.08.71.18,1.06.27,1.53.43,3.02,1.01,4.2,2.05.88.78,1.52,1.78,2.13,2.79,1.34,2.19,2.56,4.45,3.74,6.73.11.21.22.42.33.63.53,1.03,1.05,2.07,1.58,3.1.2.4.41.8.61,1.2.24.47.48.94.71,1.41.07.13.14.27.13.42h0Z"/>
  <path class="cls-9" d="m64.37,80.29c-1.47-4.75-5.43-11.51-8.38-12.57-.61-.22.02,5.58-1.81,8.43-3.81,5.92-10.78,4.07-12.85,1.27-2.41-4.45-3.86-9.39-6.62-13.62-.24.06-.47.11-.71.15-3.41.05-7.91,2.3-10.35,4.71-2.51,2.47-4.24,5.63-5.66,8.87-2.1,4.8-3.58,9.87-4.39,15.05-.38,2.45-.61,4.97-.15,7.41.64,3.4,2.41,7.03,4.86,9.49,1.03,1.03,2.07,1.86,3.14,2.61l4.82-6.78c-2.31-2.78-3.45-6.56-2.69-10.08.23-1.06.61-2.09,1.02-3.09.95-2.35,1.88-4.31,3.15-6.38,1.2,6.81,1.1,13.84-.42,20.68.14.13.27.26.42.38.6.52,1.25.97,1.93,1.37,1.05-2.5,2.27-5.05,4.19-7.05.67-.7,1.44-1.33,2.34-1.71.82-.35,1.73-.46,2.62-.52,2.18-.14,4.37.07,6.54.27,1.14-.69,2.08-1.38,3.01-2.07-.92-1.69-.94-3.88-.71-6.08.06-.58.14-1.16.22-1.73.01-.09.03-.2.09-.27.07-.1.2-.13.32-.16.13-.03.25-.05.39-.06h0c.07-1.06.3-2.1.71-3.08.04-.1.09-.22.18-.28.08-.07.23-.09.31,0,.05.05.07.12.08.19.07.44.1.89.11,1.33.07-.44.2-.87.39-1.27.04-.07.08-.16.16-.2-.13-.08,1.7-.12,2.05.46.26.43-.76,1.69-.23,1.82s.45.99.38,1.59c-.17,1.44-2.14,4.92.28,3.56,1.09-.61,9.85,1.52,8.53-1.08-2.43-4.81.51-6.22,1.27-6.86,1.32-1.11,2.56-1.7,2.93-1.83,0,0-1.38-2.63-1.46-2.88h0Z"/>
  <path class="cls-11" d="m64.37,91.38h-.09c.01-.11.03-.2.03-.3,0,.08.01.2.06.3Z"/>
  <path class="cls-2" d="m34.7,63.8s-.06-.08-.08-.13l.2.1"/>
  <path class="cls-11" d="m27.32,106.42c-.37-.35-.73-.73-1.06-1.12-2.31-2.78-3.45-6.56-2.69-10.08.23-1.06.61-2.09,1.02-3.09.95-2.35,1.88-4.31,3.15-6.38,1.2,6.81,1.1,13.84-.42,20.68Z"/>
  <path class="cls-11" d="m61.27,56.51c2.78-1.61,3.94-5.28,3.24-8.41-.7-3.14-2.95-5.75-5.58-7.6-1.39-.97-2.91-1.77-4.54-2.21-4.77-1.26-10.15.98-12.94,5.04-2.8,4.07-4.41,9.08-2.37,13.58.33.72,2.07,1.97,2.68,2.46.56.45,1.26.68,1.95.87,2.66.75,5.47,1.09,8.21.7,2.74-.39,5.12-1.98,9.37-4.45h0Z"/>
  <path class="cls-11" d="m60.53,49.5c-2.03,1.73-4.65,2.68-7.3,2.98-1.24.14-2.48.14-3.73.05-1.42-.12-2.84-.37-4.25-.73-.16-.65-.59-1.22-1.18-1.54-.58-.32-1.3-.39-1.93-.19-.77.25-1.37.88-1.78,1.58-.5.86-.76,1.95-.33,2.86.35.73,1.08,1.2,1.74,1.56-.16,2.28-.29,4.74.94,6.67.58.9,1.2,1.8,2.04,2.46.86.69,2.06,1.45,3.1,1.82,1.79.63,4,.3,5.73-.49,2.6-1.2,4.34-3.66,5.84-6.09,1.1-1.78,1.94-3.73,2.44-5.76-.55-.65-.88-1.48-1.05-2.31-.18-.84-.22-1.69-.27-2.86Z"/>
  <path class="cls-11" d="m67.86,84.34c-.26-.01-.55-.04-.72-.24-.2-.25-.06-.69.25-.76-.37,0-.68.4-.59.76s.56.56,1.05.24h0Z"/>
  <path class="cls-11" d="m61.8,91.73c.6.47,1.42.65,2.17.49-.74-.13-1.47-.29-2.17-.49Z"/>
  <path class="cls-11" d="m52.87,87.85c.04.11-.02.22-.07.33-.22.4-.44.8-.65,1.2-.03.03-.05.07-.06.1-.07.12-.13.23-.19.35-1.03-.54-2.18-.64-3.26-.39,0-.21,0-.42.03-.63h0c.07-1.06.3-2.1.71-3.08.04-.1.09-.22.18-.28.08-.07.23-.09.31,0,.05.05.07.12.08.19.07.44.1.89.11,1.33.07-.44.2-.87.39-1.27.04-.07.08-.16.16-.2.03-.02.06-.03.09-.04.14,0,.22.12.25.26.01.06.02.12.02.18,0,.41,0,.8-.05,1.2.05-.41.17-.81.36-1.18v-.02c.04-.08.09-.17.17-.21.08-.05.2-.03.24.05.03.05.02.1.01.15-.01.09-.02.18-.04.27-.05.41-.12.8-.2,1.2.07-.38.19-.76.36-1.1h0c.03-.08.07-.15.13-.19.16-.1.39.06.42.24.02.08.01.17,0,.25-.02.1-.05.21-.08.31-.14.43-.18.9-.12,1.36.05-.17.1-.35.24-.46.14-.1.39-.08.44.08h.01Z"/>
  <path class="cls-11" d="m69.5,82.47c-1.05-.07-1.92,1.1-2.96.93-.42-.07-.8-.35-1.23-.32-.56.05-.92.61-1.33.99-.41.39-.93.63-1.39.95-1.12.77-1.86,2.06-1.99,3.41s.38,2.75,1.45,3.61c.02.86.05,1.74.38,2.53.24.56.61,1.03.99,1.5.74.93,1.5,1.88,2.41,2.58.89-.58,1.84-1.06,2.83-1.43.28-.1.57-.2.81-.38.45-.33.68-.87.87-1.39,1.33-3.64,1.8-7.54,1.86-11.4,0-.49,0-1.02-.31-1.4-.33-.42-.85-.06-2.4-.17h0Z"/>
  <path class="cls-11" d="m69.49,85.97c.44-.07.9.24.99.67.1.43-.19.92-.61,1.03.22-.2.28-.55.18-.84-.11-.28-.37-.49-.56-.88h0Z"/>
  <g>
    <path class="cls-20" d="m69.5,82.47c-1.05-.07-1.92,1.1-2.96.93-.42-.07-.8-.35-1.23-.32-.56.05-.92.61-1.33.99-.41.39-.93.63-1.39.95-1.12.77-1.86,2.06-1.99,3.41s.38,2.75,1.45,3.61c.02.86.05,1.74.38,2.53.24.56.61,1.03.99,1.5.74.93,1.5,1.88,2.41,2.58.89-.58,1.84-1.06,2.83-1.43.28-.1.57-.2.81-.38.45-.33.68-.87.87-1.39,1.33-3.64,1.8-7.54,1.86-11.4,0-.49,0-1.02-.31-1.4-.33-.42-.85-.06-2.4-.17h0Z"/>
    <path class="cls-2" d="m69.5,82.47c-1.05-.07-1.92,1.1-2.96.93-.42-.07-.8-.35-1.23-.32-.56.05-.92.61-1.33.99-.41.39-.93.63-1.39.95-1.12.77-1.86,2.06-1.99,3.41s.38,2.75,1.45,3.61c.02.86.05,1.74.38,2.53.24.56.61,1.03.99,1.5.74.93,1.5,1.88,2.41,2.58.89-.58,1.84-1.06,2.83-1.43.28-.1.57-.2.81-.38.45-.33.68-.87.87-1.39,1.33-3.64,1.8-7.54,1.86-11.4,0-.49,0-1.02-.31-1.4-.33-.42-.85-.06-2.4-.17h0Z"/>
  </g>
  <path class="cls-10" d="m67.41,100.3c-.1.95-.48,1.85-.97,2.67-1.5,2.56-3.99,4.42-6.69,5.66-2.69,1.24-5.62,1.89-8.53,2.48-.29.2-.6.37-.92.54-.11.07-.22.12-.34.18h0c-1.77.9-3.71,1.33-5.59.9-.86-.2-1.71-.59-2.31-1.24l-7.56-1.56c-.25.31-.49.61-.73.92-1.52-.54-2.99-1.24-4.36-2.09.08-.2.16-.4.25-.6,1.05-2.5,2.27-5.05,4.19-7.05.67-.7,1.44-1.33,2.34-1.71.82-.35,1.73-.46,2.62-.52,2.18-.14,4.37.07,6.54.27,1.14-.69,2.08-1.38,3.01-2.07-.92-1.69-.94-3.88-.71-6.08.06-.58.14-1.16.22-1.73.01-.09.03-.2.09-.27.07-.1.2-.13.32-.16.13-.03.25-.05.39-.06h.01c1.06-.13,2.16.04,3.12.51h0s.03.02.05.03c.08.04.16.08.23.14.07.05.13.12.16.2.05.12.04.26.03.39-.08,1.07-.17,2.13-.25,3.2,1.6-.99,3.24-1.84,5.03-2.11,1.56-.24,3.27.01,4.5.95.18.13.34.27.5.44l.03.03c.56.59,1.07,1.05,1.53,1.43,1.37,1.12,2.31,1.53,2.82,2.41.05.09.1.19.15.28.21.39.38.79.52,1.21.25.77.37,1.58.29,2.39h0Z"/>
  <path class="cls-11" d="m50.38,111.53c-.32-.14-.52-.52-.46-.86.06-.35.37-.63.72-.67-.24-.15-.46-.25-.64-.42-.18-.17-.29-.41-.25-.65.05-.31.35-.53.61-.7-.33-.21-.75-.5-.68-.9.06-.31.41-.47.72-.54.73-.15,1.48-.03,2.23.03,1.69.13,3.41-.06,5.04-.57-1.27-.16-2.65,0-3.42-.73-.24-.23-.15-.7.06-.95.08-.1.21-.15.33-.19,1-.32,2.07-.31,3.11-.28,1.5.04,3.05.1,4.42-.48.31-.13.61-.29.85-.52.27-.25.46-.56.64-.88.6-1.03,1.16-2.09,1.67-3.16.4-.84.77-1.7,1.33-2.44.56-.75,1.32-1.37,2.22-1.63.6.89.83,1.99.82,3.05-.01,1.07-.25,2.12-.52,3.16-.36,1.37-.78,2.74-1.44,3.99-1.15,2.21-2.99,4.02-5.13,5.31-2.13,1.29-4.64,1.97-7.09,2.4-1.57.27-2.78.15-4.69-.34-.5-.13-.78-.5-.46-1.02h0Z"/>
  <path class="cls-11" d="m67.62,96.27c.74,1.24,2.08,2.05,3.48,2.39,1.41.33,2.11.22,3.54-.05,1.37-.25,2.75-.77,3.8-1.68,1.34-1.16,1.77-2.14,2.37-4.22.26-.9.24-2.36.05-3.28-.44-2.07-1.46-3.64-3.02-5.09-1.2-1.11-2.49-2.17-4.04-2.69s-3.4-.38-4.62.71c.75.56,1.61.95,2.51,1.17-1.01.03-2,.61-2.51,1.49.33.34.78.52,1.05.66.31.16.63.34.83.63.3.45.2,1.09-.14,1.51-.33.42-.84.67-1.37.82-.54.14-1.12.18-1.63-.04-.5-.23-.89-.78-.8-1.31-.24.53-.31,1.11-.39,1.69-.08.65-.17,1.3-.24,1.95-.04.37-.08.74.03,1.07,0,.18,0,.37.06.54.07.17.2.33.38.36.27.05.51-.2.78-.28-.73.38-1.18,1.21-1.12,2.03.01.17.05.35.18.46.14.12.36.13.54.07.18-.07.33-.19.47-.31-.19.2-.37.4-.56.6-.05.05-.1.12-.1.19,0,.06.03.12.07.16.1.16.28.26.39.44h0Z"/>
  <path class="cls-2" d="m48.36,97.1s4.1,4.03,8.9-.52"/>
  <path class="cls-11" d="m45.35,99.17s1.86.42,3.3,1.2"/>
  <g>
    <path class="cls-20" d="m27.64,85.14c.04.2.07.41.1.61-1.27,2.07-2.2,4.03-3.15,6.38-.41,1.01-.79,2.03-1.02,3.09-.86,4.03.74,8.38,3.75,11.21.14.13.27.26.42.38,3.28,2.8,7.85,3.86,12.11,3.21,1.55-.24,2.21-1.76,3.02-2.7.29-.33.59-.69,1.01-.8.42-.12.97.12.99.56,0,.13-.04.25-.08.37-.21.58-.46,1.13-.75,1.67-.38.71-.82,1.38-1.32,2,1.8.12,3.31-.46,4.85-.61.68-.07,1.39-.03,1.99.29.16.09.32.21.42.37.18.31.07.76-.24.95.4-.02.68.32.64.63s-.31.56-.61.66c.31.1.48.31.55.56.02.07.03.14,0,.21-.06.26-.4.35-.56.57.08.39-.08.72-.31.96s-.52.41-.82.56c-1.21.62-2.5,1.08-3.82,1.36-5.92,1.45-13.16.46-18.63-2.66-2.9-1.7-5.43-3.05-7.87-5.5-2.45-2.46-4.22-6.08-4.86-9.49-.46-2.44-.23-4.96.15-7.41.81-5.18,2.29-10.25,4.39-15.05l9.66,7.62h0Z"/>
    <g class="cls-23">
      <g>
        <line class="cls-2" x1="49.72" y1="112.13" x2="44.38" y2="112.74"/>
        <line class="cls-2" x1="49.76" y1="113.43" x2="43.63" y2="114.39"/>
        <line class="cls-2" x1="49.75" y1="114.75" x2="44.19" y2="115.95"/>
      </g>
    </g>
    <path class="cls-2" d="m27.64,85.14c.04.2.07.41.1.61-1.27,2.07-2.2,4.03-3.15,6.38-.41,1.01-.79,2.03-1.02,3.09-.86,4.03.74,8.38,3.75,11.21.14.13.27.26.42.38,3.28,2.8,7.85,3.86,12.11,3.21,1.55-.24,2.21-1.76,3.02-2.7.29-.33.59-.69,1.01-.8.42-.12.97.12.99.56,0,.13-.04.25-.08.37-.21.58-.46,1.13-.75,1.67-.38.71-.82,1.38-1.32,2,1.8.12,3.31-.46,4.85-.61.68-.07,1.39-.03,1.99.29.16.09.32.21.42.37.18.31.07.76-.24.95.4-.02.68.32.64.63s-.31.56-.61.66c.31.1.48.31.55.56.02.07.03.14,0,.21-.06.26-.4.35-.56.57.08.39-.08.72-.31.96s-.52.41-.82.56c-1.21.62-2.5,1.08-3.82,1.36-5.92,1.45-13.16.46-18.63-2.66-2.9-1.7-5.43-3.05-7.87-5.5-2.45-2.46-4.22-6.08-4.86-9.49-.46-2.44-.23-4.96.15-7.41.81-5.18,2.29-10.25,4.39-15.05l9.66,7.62h0Z"/>
  </g>
  <path class="cls-11" d="m50.36,108.23s3.01.68,5.62,0"/>
  <path class="cls-11" d="m50.64,110.01s3.79.16,5.35-.23"/>
  <path class="cls-11" d="m50.38,111.53s3.65.52,5.88-.31"/>
  <path class="cls-2" d="m67.39,83.33s.46,1,.95,1.57"/>
  <path class="cls-2" d="m55.21,55.19s-1,4.01,0,5.56-.44,2.22-2.39,1"/>
  <ellipse cx="49.67" cy="56.49" rx="1.23" ry=".62" transform="translate(-15.9 93.37) rotate(-78.03)"/>
  <ellipse cx="57.26" cy="58.79" rx="1.23" ry=".62" transform="translate(-16.85 94.05) rotate(-71.2)"/>
  <path class="cls-2" d="m48.98,63.67s1.79,1.31,4.33,1.31"/>
  <line class="cls-2" x1="27.64" y1="85.14" x2="27.64" y2="79.01"/>
  <line class="cls-2" x1="42.07" y1="52.52" x2="42.86" y2="53.13"/>
  <path class="cls-9" d="m32.62,89.83s5.56,6.76,12.74,3.75"/>
  <path class="cls-11" d="m47.39,54.19s1.35-.92,3.22-.67"/>
  <path class="cls-11" d="m58.47,54.52s1.33.7,1.83,1.97"/>
</svg>