<?xml version="1.0" encoding="UTF-8"?>
<svg xmlns="http://www.w3.org/2000/svg" viewBox="0 0 128 128">
  <defs>
    <style>
      .cls-1 {
        fill: #f3d587;
      }

      .cls-2 {
        fill: #fff;
      }

      .cls-3 {
        fill: #ff6d75;
      }

      .cls-3, .cls-4, .cls-5, .cls-6, .cls-7, .cls-8, .cls-9 {
        stroke-miterlimit: 10;
      }

      .cls-3, .cls-5, .cls-6, .cls-8, .cls-9 {
        stroke: #000;
      }

      .cls-4, .cls-5, .cls-8 {
        fill: #d6d6d6;
      }

      .cls-4, .cls-7 {
        stroke: #1d1d1b;
      }

      .cls-6 {
        fill: #b2f0e9;
      }

      .cls-7 {
        fill: #87f3b9;
      }

      .cls-8 {
        mix-blend-mode: multiply;
      }

      .cls-10 {
        stroke: #fff;
        stroke-linecap: round;
        stroke-linejoin: round;
        stroke-width: 8px;
      }

      .cls-10, .cls-9 {
        fill: none;
      }

      .cls-11 {
        isolation: isolate;
      }
    </style>
  </defs>
  <g class="cls-11">
    <g id="Calque_1" data-name="Calque 1">
      <path class="cls-8" d="m33.85,38.76c.93-.72,5-.65,7.54-.53,1.21.06,2.07.13,2.07.13,0,0,2.17,1.69.72,4.58-1.45,2.89-2.03,3.51-.58,5.68,1.45,2.17,2.57,1.61-.32,5.79-.8,1.15-.22,3.54,1.87,4.93,3.87,2.59,13.33,6.4,14.95,8.44,5.55,6.99,2.53,40-.72,41.48-3.47,1.57-18.61,5.44-31.96.78-2.12-.74-3.46-4.08-4.17-8.95-2.62-17.97,3.36-56.76,10.6-62.33Z"/>
      <polygon class="cls-7" points="52.66 20.54 52.66 25.19 56.68 25.19 58.29 23.94 58.29 21.88 56.56 20.54 52.66 20.54"/>
      <path class="cls-7" d="m45.12,26.63c.07-.17.08-.08.04-.02l5.04-4.32c-.15,2.69-1.75,6.66.08,8.93,1,1.24,7.77,6.86,7.23,7.02-1.97.91-8.8-5.14-9.56-5.94-.91-.96-2.59-4.44-2.83-5.67Z"/>
      <path class="cls-4" d="m27.55,28.71l7.29,1.29.11,2.25,7.4.11v-1.5s2.4-1.15,2.4-1.15l8.75-4.21-.11-5.14-5.48-.04-10.81-.07s-5.89,1.06-9.86,6.11c-1.18,1.5.32,2.36.32,2.36Z"/>
      <path class="cls-3" d="m47.35,65.34c2.57,1.16,7.56,2.97,10.21,5.39,2.65,2.41,2.89,29.74-.8,35.37-3.02,4.6-27.76,2.9-28.62.48-1.45-4.1-3.42-26.44,1.21-42.69,2.05-7.18,6.75-13.5,8.68-5.31,1.26,5.36,4.34,4.5,9.33,6.75Z"/>
      <g>
        <g>
          <path d="m28.92,94.99h27.09s-13.55-23.46-13.55-23.46l-13.55,23.46Zm24.76-1.35h-22.43s11.21-19.42,11.21-19.42l11.21,19.42Z"/>
          <polygon class="cls-1" points="31.26 93.64 53.68 93.64 42.47 74.22 31.26 93.64"/>
        </g>
        <g>
          <path d="m39.21,82.86c-.2-.96-.13-1.85.58-2.61.6-.64,1.47-.93,2.3-1.02.15-.01.28-.02.38-.02.1,0,.23,0,.38.02.83.08,1.7.37,2.3,1.02.71.77.78,1.66.58,2.61-.11.5-.26.84-.19,1.37.06.45.31.76.2,1.13-.29.96-1.29.65-1.53.91-.33.36.2,1.29-.36,1.45,0-.6-.51-.45-.38.12-.09.03-.34.07-.42.06.03-.26.06-.71-.2-.65-.08.02-.13.08-.15.15v.09c0,.1,0,.2,0,.29,0,.06.01.13.02.18-.06.02-.15.03-.25.03-.09,0-.19,0-.25-.03,0-.05,0-.12.02-.18,0-.1,0-.2,0-.29v-.09c-.02-.08-.06-.13-.15-.15-.26-.06-.23.39-.2.65-.08,0-.33-.03-.42-.06.13-.58-.39-.72-.38-.12-.56-.16-.03-1.09-.36-1.45-.23-.26-1.24.04-1.53-.91-.11-.37.14-.68.2-1.13.07-.53-.08-.87-.19-1.37Z"/>
          <g>
            <path class="cls-1" d="m40,83.55c-.44,1.52.82,2.11,1.38,1.63.35-.29.82-.71.8-1.23-.04-.97-2.05-.88-2.18-.4Z"/>
            <path class="cls-1" d="m44.94,83.55c.44,1.52-.82,2.11-1.39,1.63-.35-.29-.82-.71-.8-1.23.04-.97,2.05-.88,2.18-.4Z"/>
          </g>
          <path class="cls-1" d="m42.06,86.02s.08-.55.3-.66c.03-.02.07-.02.1-.02h0s0,0,0,0c0,0,0,0,0,0h0s.06,0,.1.03c.22.11.3.66.3.66.01.04.02.09,0,.13-.07.13-.18.04-.25-.02-.08-.06-.1-.11-.15-.11h0s0,0,0,0c0,0,0,0,0,0h0s-.07.05-.15.11c-.08.06-.19.15-.25.02-.02-.04-.01-.09,0-.13Z"/>
          <g>
            <g>
              <rect x="42.11" y="85.28" width=".97" height="8.44" transform="translate(-56.5 87.16) rotate(-63.19)"/>
              <g>
                <path d="m38.62,87.42c.36.18.51.62.32.99-.18.36-.62.51-.99.32-.36-.18-.51-.62-.32-.99.18-.36.62-.51.99-.32Z"/>
                <path d="m39.23,86.22c.36.18.51.62.32.99-.18.36-.62.51-.99.32-.36-.18-.51-.62-.32-.99.18-.36.62-.51.99-.32Z"/>
              </g>
              <g>
                <path d="m46.37,91.41c.36.18.51.62.32.99-.18.36-.62.51-.99.32-.36-.18-.51-.62-.32-.99.18-.36.62-.51.99-.32Z"/>
                <path d="m46.98,90.21c.36.18.51.62.32.99-.18.36-.62.51-.99.32-.36-.18-.51-.62-.32-.99.18-.36.62-.51.99-.32Z"/>
              </g>
            </g>
            <g>
              <rect x="38.12" y="89.02" width="8.44" height=".97" transform="translate(-35.8 28.7) rotate(-26.79)"/>
              <g>
                <path d="m46.32,87.42c-.36.18-.51.62-.32.99.18.36.62.51.99.32.36-.18.51-.62.32-.99-.18-.36-.62-.51-.99-.32Z"/>
                <path d="m45.71,86.22c-.36.18-.51.62-.32.99.18.36.62.51.99.32.36-.18.51-.62.32-.99-.18-.36-.62-.51-.99-.32Z"/>
              </g>
              <g>
                <path d="m38.57,91.41c-.36.18-.51.62-.32.99.18.36.62.51.99.32.36-.18.51-.62.32-.99-.18-.36-.62-.51-.99-.32Z"/>
                <path d="m37.96,90.21c-.36.18-.51.62-.32.99.18.36.62.51.99.32.36-.18.51-.62.32-.99-.18-.36-.62-.51-.99-.32Z"/>
              </g>
            </g>
          </g>
        </g>
      </g>
      <g>
        <g>
          <path d="m92.57,24.03c0,1.02.83,1.85,1.85,1.85h0c1.02,0,1.85-.83,1.85-1.85v-8.37c0-1.02-.83-1.85-1.85-1.85h0c-1.02,0-1.85.83-1.85,1.85v8.37Z"/>
          <path class="cls-9" d="m92.57,24.03c0,1.02.83,1.85,1.85,1.85h0c1.02,0,1.85-.83,1.85-1.85v-8.37c0-1.02-.83-1.85-1.85-1.85h0c-1.02,0-1.85.83-1.85,1.85v8.37Z"/>
        </g>
        <path class="cls-2" d="m93.69,16.23c0,.4.32.72.72.72s.72-.32.72-.72-.32-.72-.72-.72-.72.32-.72.72Z"/>
      </g>
      <rect class="cls-5" x="88.44" y="19.55" width="12.31" height="9.65" rx="4.44" ry="4.44"/>
      <path class="cls-3" d="m83.68,29.92v77.99c0,1.78,2.09,3.22,4.67,3.22h12.37c2.58,0,4.67-1.44,4.67-3.22V29.92c0-.09,0-.18-.02-.27-.17-1.42-1.67-2.57-3.64-2.87-.33-.05-.66-.08-1.01-.08h-12.37c-.35,0-.69.03-1.01.08-1.97.3-3.47,1.45-3.64,2.87-.01.09-.02.18-.02.27Z"/>
      <path class="cls-5" d="m85.8,25.34c0,.8.65,1.45,1.45,1.45h14.71c.8,0,1.45-.65,1.45-1.45h0c0-.8-.65-1.45-1.45-1.45h-14.71c-.8,0-1.45.65-1.45,1.45h0Z"/>
      <path class="cls-6" d="m83.68,48.44v41.53c3.16,1.73,6.76,2.71,10.58,2.71,4.05,0,7.84-1.1,11.13-3.02v-40.91c-3.29-1.92-7.08-3.02-11.13-3.02-3.82,0-7.42.98-10.58,2.71Z"/>
      <g>
        <g>
          <path d="m85.47,76.58h18.12s-9.06-15.69-9.06-15.69l-2.84,4.92-6.22,10.77Zm1.56-.9l4.73-8.2,2.76-4.79,7.5,12.99h-15Z"/>
          <polygon class="cls-1" points="87.03 75.68 102.03 75.68 94.53 62.69 87.03 75.68"/>
        </g>
        <g>
          <path d="m92.35,68.47c-.13-.64-.09-1.23.39-1.75.4-.43.98-.62,1.54-.68.1-.01.19-.02.25-.02.07,0,.15,0,.26.02.56.06,1.14.25,1.54.68.48.51.52,1.11.39,1.75-.07.34-.17.56-.13.92.04.3.21.51.13.76-.19.64-.87.44-1.02.61-.22.24.14.86-.24.97,0-.4-.34-.3-.26.08-.06.02-.23.05-.28.04.02-.18.04-.48-.13-.44-.06.01-.08.05-.1.1v.06c0,.07,0,.13,0,.2,0,.04,0,.08.01.12-.04.01-.1.02-.17.02-.06,0-.12,0-.16-.02,0-.04,0-.08.01-.12,0-.07,0-.13,0-.2v-.06c-.01-.05-.04-.09-.1-.1-.17-.04-.15.26-.13.44-.05,0-.22-.02-.28-.04.09-.38-.26-.48-.26-.08-.38-.1-.02-.73-.24-.97-.16-.17-.83.03-1.02-.61-.08-.25.09-.45.13-.76.05-.35-.06-.58-.13-.92Z"/>
          <g>
            <path class="cls-1" d="m92.87,68.93c-.29,1.02.55,1.41.93,1.09.24-.2.55-.48.53-.82-.03-.65-1.37-.59-1.46-.27Z"/>
            <path class="cls-1" d="m96.18,68.93c.29,1.02-.55,1.41-.93,1.09-.24-.2-.55-.48-.53-.82.03-.65,1.37-.59,1.46-.27Z"/>
          </g>
          <path class="cls-1" d="m94.26,70.58s.05-.37.2-.44c.02-.01.05-.02.07-.02h0s0,0,0,0,0,0,0,0h0s.04,0,.07.02c.15.07.2.44.2.44,0,.03.02.06,0,.09-.04.08-.12.03-.17-.02-.05-.04-.07-.07-.1-.07h0,0s0,0,0,0h0s-.05.03-.1.07c-.05.04-.12.1-.17.02-.01-.02,0-.06,0-.09Z"/>
          <g>
            <g>
              <rect x="94.29" y="70.09" width=".65" height="5.64" transform="translate(-13.12 124.49) rotate(-63.2)"/>
              <g>
                <path d="m91.96,71.52c.24.12.34.42.22.66-.12.24-.42.34-.66.22-.24-.12-.34-.42-.22-.66.12-.24.42-.34.66-.22Z"/>
                <path d="m92.36,70.72c.24.12.34.42.22.66-.12.24-.42.34-.66.22-.24-.12-.34-.42-.22-.66.12-.24.42-.34.66-.22Z"/>
              </g>
              <g>
                <path d="m97.14,74.18c.24.12.34.42.22.66-.12.24-.42.34-.66.22-.24-.12-.34-.42-.22-.66.12-.24.42-.34.66-.22Z"/>
                <path d="m97.55,73.38c.24.12.34.42.22.66-.12.24-.42.34-.66.22-.24-.12-.34-.42-.22-.66.12-.24.42-.34.66-.22Z"/>
              </g>
            </g>
            <g>
              <rect x="91.62" y="72.59" width="5.64" height=".65" transform="translate(-22.73 50.42) rotate(-26.8)"/>
              <g>
                <path d="m97.1,71.52c-.24.12-.34.42-.22.66.12.24.42.34.66.22.24-.12.34-.42.22-.66-.12-.24-.42-.34-.66-.22Z"/>
                <path d="m96.7,70.72c-.24.12-.34.42-.22.66.12.24.42.34.66.22.24-.12.34-.42.22-.66-.12-.24-.42-.34-.66-.22Z"/>
              </g>
              <g>
                <path d="m91.92,74.18c-.24.12-.34.42-.22.66.12.24.42.34.66.22.24-.12.34-.42.22-.66-.12-.24-.42-.34-.66-.22Z"/>
                <path d="m91.51,73.38c-.24.12-.34.42-.22.66.12.24.42.34.66.22.24-.12.34-.42.22-.66-.12-.24-.42-.34-.66-.22Z"/>
              </g>
            </g>
          </g>
        </g>
      </g>
      <path class="cls-7" d="m33.13,32.86c.07-.36.23-.69.46-.94.24-.27.56-.46.91-.52.08-.01.17-.02.26-.02h7.95c.09,0,.17,0,.26.02.35.06.67.25.91.52.23.25.39.58.46.94.03.13.04.27.04.4v6.24s-11.29,0-11.29,0v-6.24c0-.14.01-.27.04-.4Z"/>
      <rect class="cls-10" x="-5090.97" y="-979.45" width="6467.34" height="6437.3"/>
    </g>
  </g>
</svg>