<?xml version="1.0" encoding="UTF-8"?><svg id="Calque_1" xmlns="http://www.w3.org/2000/svg" viewBox="0 0 128 128"><defs><style>.cls-1{fill:#fff;}.cls-2{stroke:#e30613;stroke-linecap:round;stroke-linejoin:round;stroke-width:8px;}.cls-2,.cls-3{fill:none;}.cls-4{fill:#87ccf3;}.cls-3,.cls-5,.cls-6,.cls-7,.cls-8{stroke:#000;stroke-miterlimit:10;}.cls-5{fill:#fce9b9;}.cls-9{fill:#bfe6fc;}.cls-6{fill:#ff6d75;}.cls-7{fill:#fab0b4;}.cls-8{fill:#f3d587;}</style></defs><rect class="cls-2" x="-1597.99" y="-1040.06" width="2655.08" height="1511.77"/><path class="cls-9" d="m112.35,111.27s-7.06-5.67-24.85-13.27c-13.39-5.72-27.17-7.41-27.17-7.41l8.29-20.86s14.61,2.63,25.8,7.08c14.7,5.84,26.22,13.6,26.22,13.6l-8.29,20.86Z"/><path class="cls-4" d="m84.49,85.05c1.4-3.51,5.37-5.23,8.89-3.83,3.51,1.4,5.23,5.37,3.83,8.89-1.4,3.51-5.37,5.23-8.89,3.83-3.51-1.4-5.23-5.37-3.83-8.89Z"/><path class="cls-4" d="m77.07,82.79c.56-1.41,2.17-2.11,3.58-1.54,1.41.56,2.11,2.17,1.54,3.58-.56,1.41-2.17,2.11-3.58,1.54-1.41-.56-2.11-2.17-1.54-3.58Z"/><path class="cls-4" d="m98.06,91.13c.56-1.41,2.17-2.11,3.58-1.54,1.41.56,2.11,2.17,1.54,3.58-.56,1.41-2.17,2.11-3.58,1.54-1.41-.56-2.11-2.17-1.54-3.58Z"/><path d="m91.21,92.9c-.59,0-1.22-.13-1.79-.38-1.21-.52-2.08-1.45-2.46-2.63-.26-.76-.29-1.61-.1-2.54l-.42-.18c-.25-.11-.37-.4-.26-.66l.27-.65c.05-.12.15-.22.27-.27.04-.02.08-.03.12-.03-.1-.14-.13-.32-.06-.49l.28-.66c.05-.12.15-.22.27-.27.06-.02.12-.04.19-.04.07,0,.13.01.2.04l.49.21c.55-.74,1.24-1.29,2.01-1.61.56-.24,1.13-.36,1.7-.36s1.18.13,1.76.38c.94.4,1.51,1,1.77,1.32.15.19.15.45,0,.63l-.63.76c-.09.11-.24.18-.38.18h-.02c-.16,0-.3-.08-.39-.21-.17-.24-.56-.6-1.11-.83-.29-.12-.58-.19-.86-.19s-.53.06-.79.17c-.32.12-.63.35-.92.68l3.08,1.32c.25.11.37.4.26.66l-.28.66c-.05.12-.15.22-.27.27-.04.02-.08.03-.12.03.1.14.13.32.06.49l-.27.65c-.05.12-.15.22-.27.27-.06.02-.12.04-.19.04s-.13-.01-.2-.04l-3.16-1.35c-.05.44-.02.83.1,1.18.21.56.64,1,1.25,1.26.45.19.9.23,1.21.23.13,0,.25,0,.34-.02.02,0,.04,0,.05,0,.13,0,.26.05.36.15.11.11.16.26.14.42l-.13.93c-.03.21-.19.38-.4.42-.22.04-.45.06-.7.06Z"/><path class="cls-1" d="m91.93,82.89c.51,0,1.03.11,1.56.34.78.33,1.29.82,1.57,1.17l-.63.76c-.24-.34-.73-.75-1.32-1-.36-.15-.71-.23-1.06-.23s-.67.07-.99.21c-.56.21-1.07.7-1.5,1.34l3.67,1.57-.28.66-3.79-1.62c-.09.17-.18.36-.26.54-.03.08-.06.15-.1.24l3.82,1.63-.27.65-3.73-1.59c-.22.81-.2,1.49,0,2.04.27.72.82,1.26,1.53,1.56.5.21,1.01.27,1.4.27.15,0,.29,0,.39-.02l-.13.93c-.17.03-.38.06-.6.06-.46,0-1.01-.09-1.6-.34-1.07-.46-1.84-1.27-2.18-2.32-.26-.77-.27-1.68.02-2.68l-.82-.35.27-.65.75.32c.03-.07.06-.13.08-.2.09-.21.19-.4.28-.58l-.78-.33.28-.66.87.37c.55-.86,1.27-1.46,2.03-1.77.49-.21.99-.32,1.51-.32m0-1c-.64,0-1.28.13-1.9.4-.74.31-1.41.81-1.97,1.46l-.14-.06c-.13-.05-.26-.08-.39-.08s-.25.02-.37.07c-.25.1-.44.29-.55.54l-.28.66c-.06.14-.08.29-.08.44-.11.1-.2.22-.26.36l-.27.65c-.22.51.02,1.09.53,1.31l.06.02c-.13.86-.06,1.67.19,2.41.41,1.3,1.39,2.34,2.73,2.91.64.27,1.33.42,1.99.42.28,0,.54-.02.79-.07.42-.08.74-.42.8-.84l.13-.93c.04-.31-.06-.61-.27-.83-.19-.19-.45-.3-.72-.3-.04,0-.07,0-.11,0-.08,0-.17.01-.28.01-.26,0-.64-.03-1.01-.19-.34-.14-.78-.43-.99-.99-.02-.07-.04-.15-.06-.23l2.47,1.05c.12.05.26.08.39.08s.25-.02.37-.07c.25-.1.44-.29.55-.54l.27-.65c.06-.14.08-.29.08-.43.11-.1.2-.22.26-.36l.28-.66c.21-.51-.02-1.09-.53-1.31l-2.34-1s.09-.04.13-.06c.24-.1.43-.15.63-.15.21,0,.43.05.66.15.42.18.76.47.9.67.18.25.47.4.78.41.01,0,.02,0,.04,0,.3,0,.58-.13.77-.36l.63-.76c.3-.37.31-.89.01-1.27-.35-.44-.97-1.04-1.96-1.46-.65-.28-1.31-.42-1.96-.42h0Z"/><rect class="cls-4" x="56.81" y="79.49" width="22.44" height="2.62" transform="translate(-31.98 114.79) rotate(-68.68)"/><path class="cls-3" d="m112.35,111.27s-7.06-5.67-24.85-13.27c-13.39-5.72-27.17-7.41-27.17-7.41l8.29-20.86s14.61,2.63,25.8,7.08c14.7,5.84,26.22,13.6,26.22,13.6l-8.29,20.86Z"/><circle class="cls-8" cx="75.13" cy="102.17" r="4.98"/><path d="m75.46,105.06c-.28.05-.71.05-1.17-.15-.57-.24-.98-.67-1.15-1.23-.14-.41-.14-.89,0-1.42l-.43-.18.15-.34.4.17.04-.11c.05-.11.1-.21.15-.31l-.41-.18.15-.35.46.2c.29-.46.67-.77,1.08-.94.51-.22,1.06-.24,1.63,0,.41.18.68.43.83.62l-.34.4c-.13-.18-.38-.4-.7-.53-.38-.16-.74-.16-1.09,0-.3.11-.57.37-.8.71l1.95.83-.15.35-2.01-.86c-.05.09-.1.19-.14.29l-.05.13,2.03.87-.15.34-1.98-.84c-.12.43-.1.79,0,1.08.14.38.44.67.81.83s.75.15.95.13l-.07.49Z"/><circle class="cls-8" cx="82.34" cy="106.17" r="4.98" transform="translate(-49.15 133.75) rotate(-64.05)"/><path d="m84.41,108.22c-.18.22-.52.48-1,.62-.59.17-1.18.09-1.67-.23-.37-.23-.67-.6-.89-1.11l-.45.13-.1-.36.42-.12-.03-.11c-.03-.12-.06-.23-.08-.33l-.43.12-.1-.37.48-.14c-.06-.54.04-1.02.25-1.41.26-.49.68-.85,1.27-1.02.43-.12.8-.09,1.04-.04v.53c-.22-.06-.56-.07-.89.03-.39.11-.68.34-.85.67-.16.27-.21.65-.17,1.05l2.04-.58.1.37-2.11.59c.02.1.04.21.07.31l.04.13,2.12-.6.1.36-2.07.58c.18.41.42.68.68.85.35.21.76.25,1.15.13s.68-.35.82-.49l.26.43Z"/><circle class="cls-7" cx="92.32" cy="107.52" r="3.33" transform="translate(-30.05 36.04) rotate(-19.06)"/><path d="m94.19,108.06c-.04.19-.15.45-.39.68-.29.29-.67.43-1.05.4-.29-.02-.58-.14-.87-.37l-.22.22-.17-.18.21-.2-.05-.05c-.06-.06-.11-.12-.15-.17l-.21.21-.18-.18.24-.23c-.21-.3-.3-.61-.31-.9,0-.37.12-.71.42-1,.21-.21.44-.31.6-.36l.16.31c-.14.03-.34.14-.51.3-.2.19-.29.42-.28.67,0,.21.08.45.24.67l1.01-.99.18.18-1.04,1.02c.04.05.09.11.14.16l.06.07,1.05-1.03.17.18-1.03,1c.24.18.46.27.67.28.27,0,.52-.1.72-.29s.29-.42.32-.55l.29.17Z"/><circle class="cls-5" cx="99.18" cy="116.41" r="4.98" transform="translate(-31.75 37.38) rotate(-18.46)"/><path d="m100.3,119.11c-.25.13-.66.24-1.16.18-.61-.08-1.13-.38-1.45-.86-.25-.35-.38-.81-.39-1.37l-.47-.06.04-.37.43.05v-.11c.03-.12.05-.23.07-.34l-.44-.05.05-.38.5.06c.15-.52.43-.93.77-1.2.43-.35.95-.52,1.57-.44.45.05.78.23.97.37l-.21.48c-.17-.14-.48-.27-.82-.32-.41-.05-.76.05-1.05.29-.25.19-.44.51-.57.91l2.1.26-.05.38-2.17-.27c-.02.1-.04.21-.05.32l-.02.14,2.19.27-.04.37-2.13-.26c0,.45.12.79.3,1.04.24.33.6.52,1.01.57.4.05.76-.06.95-.14l.07.49Z"/><path class="cls-6" d="m47.23,95.59s-1.21.98-3.25,1.6h-.04c-.13.05-.26.1-.41.13l-.13.05c-.17.01-.35.09-.54.13-.51.08-1.01.14-1.45.17-.31.02-.58.04-.85.05-.28-.02-.53-.03-.75-.05-1.07-.06-1.71-.27-1.71-.27,0,0-.45-1.67-1.71-4.01l-.33-.58c-.49-.92-1.12-1.88-1.89-2.92,0-.04-.03-.05-.04-.09-.82-1.07-1.74-2.17-2.83-3.26-.63-.62-1.32-1.24-2.05-1.86-.74-.59-1.54-1.16-2.39-1.73-.27-.18-.58-.35-.87-.55-.56-.34-1.13-.66-1.71-.95-.57-.32-1.13-.59-1.69-.87-.56-.28-1.12-.52-1.67-.76-.55-.24-1.09-.47-1.64-.67-.53-.23-1.06-.41-1.56-.59-1.03-.36-2.03-.67-2.96-.93-.46-.14-.91-.25-1.32-.36-.45-.11-.86-.22-1.24-.28-.78-.2-1.47-.33-2.09-.42-.47-.08-.85-.14-1.17-.2-.24-.03-.42-.05-.6-.08-.42-.05-.64-.07-.64-.07l-.33-5.69-.04-.29v-.06s-.03-.48-.03-.48l-.07-1.35s.06,0,.16,0h.04c.06,0,.1,0,.16,0h.1c.06,0,.1,0,.16,0h.14c.06,0,.16,0,.23-.01.06,0,.1,0,.16,0s.16,0,.26,0c.06,0,.11-.02.17-.01.1,0,.22.02.31.01.08-.01.14,0,.2,0,.17-.01.35-.03.54-.03.08.02.18.02.26,0,.13,0,.23,0,.35,0,.11-.02.23,0,.35-.03.1,0,.22.02.33,0,.12.02.25,0,.37-.01.12.02.22.01.35,0,.14,0,.27-.01.41-.02.12.02.23,0,.35,0,.14,0,.31-.02.47-.01.1,0,.23,0,.33,0,.17-.01.35-.03.5-.02.11-.02.23,0,.33,0,.17-.02.37-.01.58-.04.06,0,.14,0,.23,0,.43,0,.91-.04,1.37-.06.08-.01.14,0,.2,0,.21-.02.42-.04.61-.04.14,0,.27-.01.37-.01.21-.02.44-.03.64-.03.14,0,.27-.01.41-.02.21-.02.42-.04.65-.05.13,0,.27-.02.4-.02.21-.02.44-.03.65-.05.14,0,.31-.02.44-.03.21-.02.44-.03.65-.05.14,0,.31-.02.44-.03.25-.03.46-.05.69-.06.14,0,.25-.03.38-.04.86-.07,1.73-.15,2.63-.23.15-.03.26-.05.4-.06.25-.03.48-.04.73-.07.15-.03.32-.04.49-.06.21-.02.46-.05.67-.07.19-.04.36-.05.53-.07.25-.03.46-.05.7-.08.17-.01.36-.05.53-.07.22-.05.44-.07.68-.1.17-.01.36-.05.53-.07.23-.04.47-.07.68-.1,1.7-.26,3.39-.53,5.04-.86,13.82-2.8,28.09-8.91,28.09-8.91l.44,1.24.23.68,1.87,5.52s-8.19,4.16-14.55,12.7c-2.47,3.36-3.86,6.79-4.63,9.79-.33,1.28-.56,2.49-.7,3.57v.1s-.08.66-.08.66v.1c-.24,2.6-.05,4.26-.05,4.26Z"/><path class="cls-3" d="m7.36,70.2s28.19,3.57,58-11.3"/><path class="cls-3" d="m7.47,76.22c1.25.13.6,2.33,2.15,2.65.7.14,2.04-1.88,2.97-1.63.75.2.92,2.61,1.78,2.88.76.24,2.31-1.61,3.13-1.3.76.29.66,2.71,1.46,3.06.75.34,2.5-1.34,3.26-.94s.35,2.77,1.09,3.21,2.65-1.01,3.35-.52c.68.47-.01,2.79.65,3.33s2.77-.63,3.39-.05-.42,2.76.16,3.39,2.83-.21,3.36.46-.84,2.66-.37,3.37,2.97.21,3.39.96"/><path class="cls-3" d="m66.97,64.74c-1.13.58.4,2.43-.94,3.3-.6.39-2.69-1.03-3.47-.46-.62.46.2,2.81-.49,3.39-.61.51-2.84-.69-3.48-.08-.59.55.49,2.81-.11,3.44-.56.59-2.9-.35-3.45.31s.81,2.76.3,3.45-2.91.01-3.37.73,1.16,2.64.75,3.4c-.39.73-2.87.41-3.22,1.2s1.52,2.47,1.24,3.27-2.76.84-2.97,1.67,1.88,2.22,1.73,3.07c-.11.61-1.47,1.01-2.2,1.53"/><path class="cls-6" d="m70.88,2.8c-.87,1.16-1.99,2.98-3.4,5.57-2.38,4.37-6.96,14.14-10.01,21.06l-.17.39,2.1.93.17-.39c5.49-12.47,11.57-24.24,13.32-26.43l.35-.44-2.17-.96-.2.26Z"/><path class="cls-6" d="m113.78,28.79c.96-2.79,1.55-4.84,1.82-6.27l.06-.33-2.17-.96-.09.56c-.43,2.77-5.01,15.2-10.5,27.67l-.17.39,2.1.93.17-.39c3.05-6.93,7.17-16.9,8.78-21.6Z"/><rect class="cls-6" x="76.69" y="45.36" width="1.94" height="5.06" transform="translate(2.5 99.61) rotate(-66.19)"/><path class="cls-6" d="m50.55,38.83l-2.89,9.04s10.42,6.33,14.34,6.33c2.45,0,7.02-.32,12.05,1.9,5.03,2.22,7.89,5.81,9.53,7.62,2.64,2.9,14.34,6.33,14.34,6.33l4.72-8.24-52.09-22.98Z"/><path class="cls-6" d="m77.51,45.61c-4.12,6.59-11.9,9.27-18.48,6.36-7.33-3.23-10.44-12.33-6.94-20.27,1.02-2.31,2.49-4.31,4.36-5.93l21.06,19.84Z"/><path class="cls-6" d="m79.65,46.38l-.04.15c-2.08,7.49,1.19,15.04,7.77,17.95,7.33,3.23,16.14-.6,19.64-8.54,1.02-2.31,1.5-4.74,1.43-7.22v-.16s-28.8-2.18-28.8-2.18Z"/></svg>