<?xml version="1.0" encoding="UTF-8"?>
<svg id="Calque_1" data-name="Calque 1" xmlns="http://www.w3.org/2000/svg" viewBox="0 0 128 128">
  <defs>
    <style>
      .cls-1 {
        fill: #ff6d75;
        stroke: #000;
      }

      .cls-1, .cls-2, .cls-3 {
        stroke-miterlimit: 10;
      }

      .cls-2 {
        fill: #b2f0e9;
      }

      .cls-2, .cls-3 {
        stroke: #1d1d1b;
      }

      .cls-4 {
        stroke: #fff;
        stroke-linecap: round;
        stroke-linejoin: round;
        stroke-width: 8px;
      }

      .cls-4, .cls-3 {
        fill: none;
      }
    </style>
  </defs>
  <path class="cls-1" d="m86.11,51.37c-.25,2.57-.6,5.19-1.06,7.78-2.07,11.67-10.73,25.97-21.5,26.41-10.29.42-19.15-14.53-21.29-25.63-.2-.99-.37-2.22-.53-3.6,2.58-1.03,5.42-.93,8.45-.35,4.56.88,8.79,1.74,13.45.99,4.31-.69,8.12-2.63,12.11-4.34,3.63-1.56,6.97-2.48,10.37-1.26Z"/>
  <path class="cls-3" d="m59.79,103.38v1.31l.2.02c2.38.67,4.88.67,7.26,0h.01v-1.29c-2.46.61-5.02.61-7.47-.04Z"/>
  <path class="cls-3" d="m91.05,29.79c.56,8.36.48,21.06-1.16,30.63-2.33,13.65-12.88,26.54-22.63,29.4v11.73h0c-2.38.67-4.88.67-7.26,0h-.2v-11.69c-9.74-2.87-20.14-16.45-22.63-29.95-1.45-7.92-1.77-22.37-1.29-30.28.45.31,1.11.62,2,.92-.5,6.23.13,22.84,1.48,29.52,2.44,11.99,12.49,28.13,24.16,27.67,3.37-.13,6.56-1.4,9.46-3.44l.02.05"/>
  <path class="cls-3" d="m59.79,106.53v1.31l.2.02c2.38.67,4.88.67,7.26,0h.01v-1.29c-2.46.61-5.02.6-7.47-.04Z"/>
  <path class="cls-3" d="m67.26,111.58v-1.86c-2.46.61-5.02.61-7.47-.04v1.9c0,2.77,7.47,3.08,7.47,0Z"/>
  <path class="cls-3" d="m59.99,101.55l-.2-.02c-.35,0-.69.2-.8.56l-.05.18c-.14.43.14.92.61,1.05l.24.05c2.46.65,5.01.65,7.47.04.14-.04.29-.05.43-.09.48-.13.75-.62.61-1.05l-.05-.18c-.14-.42-.58-.65-.99-.55h-.01c-2.38.67-4.88.67-7.26,0Z"/>
  <path class="cls-3" d="m59.99,104.71l-.2-.02c-.35,0-.69.2-.8.56l-.05.18c-.14.43.14.91.61,1.05l.24.05c2.46.64,5.01.65,7.47.04.14-.04.29-.05.43-.09.48-.13.75-.62.61-1.05l-.05-.18c-.14-.43-.58-.65-.99-.55h-.01c-2.38.67-4.88.67-7.26,0Z"/>
  <path class="cls-3" d="m59.99,107.86l-.2-.02c-.35,0-.69.2-.8.56l-.05.18c-.06.17-.03.35.04.51.1.24.29.45.58.53l.24.05c2.46.65,5.01.65,7.47.04.14-.04.29-.05.43-.09.3-.08.5-.31.59-.56.05-.16.08-.32.03-.48l-.05-.18c-.14-.42-.58-.65-.99-.55h-.01c-2.38.67-4.88.67-7.26,0Z"/>
  <path class="cls-3" d="m37.87,30.55c-.5,6.23.13,22.84,1.48,29.52,2.44,11.99,12.49,28.13,24.16,27.67,3.37-.13,6.56-1.4,9.46-3.44,0,0,18.24-9.9,15.76-51.08-.03-.81-.07-1.56-.12-2.28"/>
  <path class="cls-2" d="m91.81,29.09c-.11.24-.38.47-.76.7-.36.22-.84.43-1.41.64-4.19,1.52-13.92,2.79-26.08,2.79s-21.29-1.21-25.69-2.67c-.89-.3-1.55-.61-2-.92-.26-.18-.47-.36-.57-.54-.47-.89-.89-2.56.07-3.71-.07.12-.11.24-.11.37,0,2.27,12.65,4.12,28.25,4.12s28.26-1.85,28.26-4.12c0-.24-.15-.48-.41-.7l.16.1c1.03.87.79,2.94.29,3.94Z"/>
  <path class="cls-3" d="m63.51,23.95c-1.22,0-2.41.01-3.58.02l-4.21.07c-10.08.26-17.37.98-17.37,1.84,0,1.06,11.27,1.92,25.16,1.92s25.16-.86,25.16-1.92-11.26-1.93-25.16-1.93Z"/>
  <path class="cls-2" d="m91.36,25.05c-2.26-1.95-13.87-3.43-27.85-3.43-1.09,0-2.16,0-3.21.02l-5.5.18c-10.58.5-18.42,1.88-19.43,3.56-.07.12-.11.24-.11.37,0,2.27,12.65,4.12,28.25,4.12s28.26-1.85,28.26-4.12c0-.24-.15-.48-.41-.7Zm-27.85,2.75c-13.89,0-25.16-.86-25.16-1.92,0-.86,7.29-1.58,17.37-1.84l4.21-.07c1.17-.01,2.36-.02,3.58-.02,13.9,0,25.16.86,25.16,1.93s-11.26,1.92-25.16,1.92Z"/>
  <path class="cls-3" d="m88.67,25.88c0,1.06-11.26,1.92-25.16,1.92s-25.16-.86-25.16-1.92c0-.86,7.29-1.58,17.37-1.84l4.21-.07c1.17-.01,2.36-.02,3.58-.02,13.9,0,25.16.86,25.16,1.93Z"/>
  <rect class="cls-4" x="-3120.05" y="-2755.83" width="6467.34" height="6437.3"/>
</svg>