<?xml version="1.0" encoding="UTF-8"?>
<svg id="Calque_1" data-name="Calque 1" xmlns="http://www.w3.org/2000/svg" viewBox="0 0 128 128">
  <defs>
    <style>
      .cls-1 {
        fill: #b2f0e9;
      }

      .cls-1, .cls-2, .cls-3 {
        stroke: #000;
      }

      .cls-1, .cls-2, .cls-4 {
        stroke-linecap: round;
        stroke-linejoin: round;
      }

      .cls-2, .cls-4 {
        fill: none;
      }

      .cls-3 {
        fill: #f3d587;
        stroke-miterlimit: 10;
      }

      .cls-4 {
        stroke: #fff;
        stroke-width: 8px;
      }
    </style>
  </defs>
  <path class="cls-1" d="m45.38,47.29c-3.41,1.23-7.4,2.78-8.66,3.75-2.35,1.8-3.13,21.22-1.38,24.25.99,1.71,5.13,4.21,8.57,6.06,1.57-5.7,3.4-11.83,3.4-19.99,0-5.94-.88-10.32-1.93-14.07Z"/>
  <path class="cls-1" d="m82.6,61.36c0,7.71,1.66,13.62,3.18,19.06,2.99-1.7,6.05-3.69,6.88-5.13,1.75-3.03.97-22.45-1.38-24.25-1.05-.8-3.96-2.01-6.87-3.09-.99,3.61-1.81,7.83-1.81,13.42Z"/>
  <path class="cls-2" d="m83.84,79.28c1.79,6.92,3.34,12.89,1.05,21.08-2.76,9.88-10.4,16.02-19.93,16.02-11.5,0-17.93-8.63-19.93-16.03-2.23-8.2-.69-14.15,1.08-21.05,1.34-5.21,2.73-10.61,2.73-17.79s-1.42-12.4-2.67-16.71c-1.55-5.35-2.89-9.97-1.15-17.74,2.27-10.1,9.17-15.45,19.94-15.45,7.5,0,16.54,1.75,19.94,15.43,1.93,7.76.54,12.42-1.07,17.81-1.28,4.3-2.74,9.18-2.74,16.65s1.4,12.56,2.75,17.77Z"/>
  <path class="cls-2" d="m83.82,44.86c1.61-5.39,3-10.05,1.07-17.81-3.39-13.68-12.44-15.43-19.94-15.43-10.77,0-17.67,5.34-19.94,15.45-1.75,7.77-.4,12.39,1.15,17.74,1.25,4.31,2.67,9.19,2.67,16.71s-1.39,12.58-2.73,17.79c-1.77,6.9-3.31,12.85-1.08,21.05,2.01,7.39,8.43,16.03,19.93,16.03,9.53,0,17.17-6.14,19.93-16.02,2.29-8.19.74-14.16-1.05-21.08-1.35-5.21-2.75-10.6-2.75-17.77s1.45-12.34,2.74-16.65Z"/>
  <path class="cls-2" d="m54.5,18.94c4.4-3.34,14.13-5.25,20.95-.15"/>
  <path class="cls-2" d="m75.19,109.27c-4.4,3.34-14.13,5.25-20.95.15"/>
  <path class="cls-1" d="m74.09,49.34c.78-4.06,1.45-7.57.52-13.41-1.64-10.3-6.01-11.62-9.64-11.62-5.21,0-8.54,4.02-9.64,11.63-.84,5.85-.2,9.33.55,13.36.6,3.24,1.29,6.92,1.29,12.58s-.67,9.47-1.32,13.4c-.86,5.19-1.6,9.68-.52,15.85.97,5.57,4.08,12.07,9.64,12.07,4.61,0,8.3-4.62,9.64-12.06,1.11-6.17.36-10.67-.51-15.87-.65-3.92-1.33-7.98-1.33-13.38s.7-9.29,1.32-12.54Z"/>
  <path class="cls-3" d="m53.78,59.93c.77,3.06-2.33,7.25-2.63,9.5-.28,2.06,1.17,4.79,2.88,6.42,1.71,1.63,4.64,2.06,6.46.55.79-.65,1.31-1.59,2.1-2.25,2.51-2.13,6.39-.78,9.56-1.66,3.65-1.02,5.79-4.91,6.44-8.64.42-2.38.37-4.94-.81-7.05-1.18-2.1-3.73-3.56-6.05-2.89-2.09.6-4.07,2.74-6.03,1.8-1.37-.66-1.69-2.43-2.57-3.67-1.39-1.93-4.31-2.36-6.43-1.29-2.13,1.07-3.7,2.43-3.71,4.82,0,1.11.52,3.3.79,4.37Z"/>
  <g>
    <path class="cls-3" d="m65.08,37.91c.59-1.01,2.86-1.79,4.84-2.68.55-.24,1.17-.28,1.73-.07,1.22.46,1.19,1.7,1.19,2.76,0,.84.15,1.83.89,2.23.54.29,1.2.15,1.81.12.79-.04,1.65.15,2.15.77.62.78.43,1.95-.11,2.79-.54.83-1.37,1.43-2.09,2.12-1.03.98-1.85,2.17-2.93,3.09-1.08.92-2.54,1.58-3.91,1.21-1.08-.29-1.92-1.19-2.38-2.21-.45-1.02-.57-2.16-.58-3.28,0-.89.04-1.83-.35-2.64-.26-.54-.84-1.6-.85-2.19-.02-.65.26-1.45.58-2.01Z"/>
    <path class="cls-3" d="m65.65,44.5c0-.89.04-1.83-.35-2.64-.26-.54-.84-1.6-.85-2.19-.02-.65.26-1.45.58-2.01.59-1.01,2.86-1.79,4.84-2.68.55-.24,1.17-.28,1.73-.07,1.22.46,1.19,1.7,1.19,2.76"/>
  </g>
  <path class="cls-2" d="m84.41,47.95c2.18-7.9,5.23-12.89,2.55-22.91-3.61-13.53-12.97-15.84-22.01-15.84s-18.94,3.13-22.01,15.84c-2.37,9.8.35,14.77,2.44,22.26,1.04,3.75,1.93,8.13,1.93,14.07,0,8.16-1.83,14.3-3.4,19.99-1.85,6.73-3.33,12.85-.96,20.97,2.53,8.67,10.39,16.48,22.01,16.48s19.26-7.33,22.01-16.48c2.55-8.47.8-14.78-1.18-21.9-1.52-5.44-3.18-11.35-3.18-19.06,0-5.59.81-9.81,1.81-13.42Z"/>
  <rect class="cls-4" x="-2517.99" y="-2755.83" width="6467.34" height="6437.3"/>
</svg>