<?xml version="1.0" encoding="UTF-8"?><svg id="Calque_1" xmlns="http://www.w3.org/2000/svg" viewBox="0 0 128 128"><defs><style>.cls-1{stroke:#e30613;stroke-linecap:round;stroke-linejoin:round;stroke-width:8px;}.cls-1,.cls-2{fill:none;}.cls-2,.cls-3,.cls-4,.cls-5,.cls-6,.cls-7{stroke:#000;stroke-miterlimit:10;}.cls-3{fill:#bbfedb;}.cls-4,.cls-5{fill:#fff;}.cls-5,.cls-6{stroke-width:2px;}.cls-6{fill:#b2f0e9;}.cls-7{fill:#f3d587;}</style></defs><rect class="cls-1" x="-1740.29" y="-816.91" width="2655.08" height="1511.77"/><path class="cls-5" d="m112.28,58.34c-.04,1.24-.17,2.52-.33,3.72-.2,1.42-.44,2.75-.67,3.85-.35,1.75-.66,2.92-.66,2.92-16.71-1.66-25.04,5.06-29.09,13.3-20.56-6.28-30.18,0-30.18,0-4.06-8.24-12.39-14.96-29.1-13.3,0,0-.31-1.16-.66-2.91-.23-1.1-.48-2.44-.67-3.86-.16-1.2-.29-2.48-.33-3.72-.17-4.02.46-7.79,3.22-8.39,1.29-.29,2.48-.24,3.61,0,1.56.31,3.01.98,4.42,1.62h0c1.44.65,2.86,1.26,4.39,1.47,1.17.17,2.39.11,3.72-.36,6.04-2.15,13.44-7.21,26.48-5.84,13.04-1.37,20.43,3.69,26.47,5.84,1.33.47,2.55.53,3.72.36,1.53-.21,2.95-.82,4.39-1.47h0c1.42-.64,2.85-1.31,4.41-1.62h0c1.13-.24,2.32-.29,3.61,0,2.76.6,3.39,4.37,3.22,8.39Z"/><path class="cls-6" d="m54.57,106.99c-27.07-9.53-32.32-38.16-32.32-38.16,16.71-1.66,25.04,5.06,29.1,13.3,5.45,11.06,3.22,24.86,3.22,24.86Z"/><path class="cls-3" d="m20.93,62.06s6.57-1.51,13,0"/><path class="cls-3" d="m20.37,66.23l-1.7-7.43c1.71-.52,8.92-2.14,16.13-.44l-1.75,7.42c-5.44-1.28-11.22,0-12.68.45Z"/><line class="cls-2" x1="31.85" y1="51.55" x2="29.75" y2="57.65"/><line class="cls-2" x1="36.24" y1="53.03" x2="34.8" y2="58.35"/><path class="cls-6" d="m110.62,68.83s-5.25,28.63-32.32,38.16c0,0-2.23-13.8,3.23-24.86,4.05-8.24,12.38-14.96,29.09-13.3Z"/><path class="cls-3" d="m111.94,62.06s-6.57-1.51-13,0"/><path class="cls-3" d="m112.5,66.23l1.7-7.43c-1.71-.52-8.92-2.14-16.13-.44l1.75,7.42c5.44-1.28,11.22,0,12.68.45Z"/><line class="cls-2" x1="105.44" y1="49.95" x2="107.41" y2="57.15"/><line class="cls-2" x1="101.02" y1="51.55" x2="103.12" y2="57.65"/><line class="cls-2" x1="96.63" y1="53.03" x2="98.07" y2="58.35"/><path class="cls-4" d="m78.3,106.99c-11.13,14.33-23.73,0-23.73,0,0,0,2.23-13.8-3.22-24.86,0,0,9.62-6.28,30.18,0-5.46,11.06-3.23,24.86-3.23,24.86Z"/><path class="cls-7" d="m62.89,33.05c0,2.17-1.76,3.93-3.93,3.93s-3.93-1.76-3.93-3.93,3.93-13.06,3.93-13.06c0,0,3.93,10.88,3.93,13.06Z"/><path class="cls-7" d="m75.59,36.83c0,2.17-1.76,3.93-3.93,3.93s-3.93-1.76-3.93-3.93,3.93-13.06,3.93-13.06c0,0,3.93,10.88,3.93,13.06Z"/><path class="cls-7" d="m67.88,17.01c0,1.38-1.12,2.5-2.5,2.5s-2.5-1.12-2.5-2.5,2.5-8.28,2.5-8.28c0,0,2.5,6.9,2.5,8.28Z"/></svg>