<?xml version="1.0" encoding="UTF-8"?>
<svg id="Calque_1" data-name="Calque 1" xmlns="http://www.w3.org/2000/svg" viewBox="0 0 128 128">
  <defs>
    <style>
      .cls-1, .cls-2, .cls-3 {
        fill: none;
      }

      .cls-4 {
        fill: #f9f2ea;
      }

      .cls-5 {
        fill: #f8e7dd;
      }

      .cls-6 {
        fill: #ebc9bb;
      }

      .cls-7 {
        fill: #ff6d75;
      }

      .cls-7, .cls-8, .cls-3 {
        stroke: #000;
        stroke-miterlimit: 10;
      }

      .cls-8 {
        fill: #b2f0e9;
      }

      .cls-2 {
        stroke: #fff;
        stroke-linecap: round;
        stroke-linejoin: round;
        stroke-width: 8px;
      }
    </style>
  </defs>
  <path class="cls-7" d="m22.28,37.78c.56,1.44,1.99,2.44,3.53,2.32,1.48-.11,4.22.94,9.27,5.58,13.69,12.61,12.43.15,12.22-1.49-.02-.14-.03-.28-.03-.42,0-1.22.14-6.65,3.22-9.73,1.43-1.44,1.34-3.8-.09-5.24-5.24-5.23-16.07-14.21-25.3-10.01-.76.34-1.38.93-1.78,1.66-1.37,2.51-4.2,9.18-1.03,17.32Z"/>
  <path class="cls-8" d="m117.34,97.32l-.12.13c-.25.19-.61.19-.86-.01-1.84-1.45-4.43-2.12-6.93-1.8-2.29.3-4.24,1.37-5.48,3.02-.54.71-.92,1.56-1.33,2.45-.48,1.05-.98,2.14-1.77,3.05-1.1,1.28-3.34,2.86-4.89,3.68-2.32,1.24-4.83,1.44-7.06.55-2.29-.92-4.02-2.83-4.87-5.4-.48-1.45-.84-3.04-1.19-4.57-.76-3.33-1.54-6.74-3.6-9.21-.16.12-.32.25-.48.37-9.35,7.15-17.88,11.71-19.05,10.18-.62-.81.96-3.17,3.95-6.26.78.33,1.94.24,3.33-.17l.58-.19c1.42-.48,3.03-1.25,4.71-2.21l.17-.1.24-.14.08-.04h0c1.31-.79,2.65-1.67,3.95-2.63h.02s.1-.09.1-.09c.11-.08.22-.16.33-.25l.22-.16c.39-.3.77-.6,1.15-.91.81-.66,1.6-1.34,2.33-2.03h.01c.13-.12.27-.25.41-.38h0c1.41-1.37,2.6-2.73,3.43-4.02h0s.11-.17.11-.17l.15-.25.06-.09h0c.72-1.25,1.08-2.4.92-3.35,4.04-2.28,6.95-3.31,7.59-2.46,1.11,1.44-4.71,7.78-13.21,14.48.01.01.02.03.03.04,2.24,2.74,3.07,6.39,3.83,9.73.36,1.57.69,3.05,1.15,4.44.72,2.17,2.16,3.78,4.06,4.53,1.84.74,3.93.57,5.88-.48,1.42-.76,3.54-2.26,4.49-3.36.65-.76,1.09-1.71,1.55-2.72.42-.92.86-1.87,1.49-2.71,1.47-1.95,3.75-3.21,6.42-3.56,2.91-.38,5.82.38,7.98,2.09.3.24.36.68.11.98Z"/>
  <path class="cls-1" d="m21.21,24.82c.1-.38.21-.74.34-1.1-.13.35-.24.72-.34,1.1Z"/>
  <path class="cls-1" d="m20.94,26.17c.03-.21.06-.42.1-.63-.04.2-.07.42-.1.63Z"/>
  <path class="cls-4" d="m20.78,27.55c.01-.22.03-.45.05-.67-.02.22-.03.44-.05.67Z"/>
  <path class="cls-1" d="m21.76,23.19c.09-.2.18-.39.28-.58-.09.19-.19.38-.28.58Z"/>
  <path class="cls-1" d="m22.9,21.17c.12-.17.25-.32.38-.48-.13.16-.26.31-.38.48Z"/>
  <path class="cls-1" d="m22.28,22.13c.1-.18.22-.35.33-.53-.11.17-.23.34-.33.53Z"/>
  <path class="cls-4" d="m21.38,33.93c-.06-.26-.12-.53-.17-.78.05.26.11.52.17.78Z"/>
  <path class="cls-4" d="m22.46,37.57c-.1-.27-.18-.53-.27-.8.09.27.17.53.27.8Z"/>
  <path class="cls-4" d="m21.85,35.71c-.08-.27-.15-.53-.22-.8.07.27.14.53.22.8Z"/>
  <path class="cls-4" d="m24.11,41.49c-.11-.23-.2-.44-.3-.67.1.22.2.44.3.67Z"/>
  <path class="cls-4" d="m23.21,39.5c-.11-.26-.21-.52-.31-.78.1.26.2.51.31.78Z"/>
  <path class="cls-4" d="m21.04,32.22c-.04-.26-.08-.51-.12-.77.03.25.07.51.12.77Z"/>
  <path class="cls-4" d="m85.35,74.83c.07.14.15.28.21.41-.06-.12-.14-.27-.21-.41Z"/>
  <path class="cls-4" d="m20.75,29.03c0-.24-.01-.47,0-.7,0,.23,0,.47,0,.7Z"/>
  <path class="cls-4" d="m20.83,30.58c-.02-.25-.05-.5-.06-.74.01.24.04.49.06.74Z"/>
  <path class="cls-5" d="m72.69,90.7l-.24.14.24-.14Z"/>
  <path class="cls-5" d="m76.84,87.93l-.1.08.1-.08Z"/>
  <path class="cls-5" d="m84.99,79.76l-.15.25.15-.25Z"/>
  <path class="cls-3" d="m72.77,90.64c-.29-.35-.6-.72-.91-1.11-.09-.11-.18-.23-.27-.34-.23-.28-.46-.56-.7-.86-.12-.15-.25-.31-.38-.47-.23-.28-.45-.56-.69-.86-.11-.14-.23-.29-.34-.43-.26-.32-.52-.64-.78-.98-.12-.15-.24-.3-.36-.45-9.95-12.47-26.09-33.39-34.45-45.59-7.81-11.39-10.18-17.86-9.15-19.48l7.69,10.04,32.17,42.05,8.6,11.26.23.3,3.29,4.3"/>
  <path class="cls-3" d="m24.63,19.6c1.25.28,3.15,0,6.63,2.63h0c2.96,2.41,6.65,6.16,10.81,11.03,5.99,7.03,18.54,23.25,28.36,36.28,3.02,4,5.77,7.69,8,10.73.16.22.32.43.47.64.21.29.42.57.62.85.1.13.19.26.29.4.18.25.36.5.53.74.08.11.16.23.24.34.24.34.48.66.7.97"/>
  <path class="cls-3" d="m63.66,93.5c-.2-.08-.38-.18-.52-.32-5.99-5.63-29.3-33.59-37.98-49.65-.38-.69-.72-1.38-1.05-2.05-.11-.23-.2-.44-.3-.67-.21-.44-.41-.89-.59-1.32-.11-.26-.21-.52-.31-.78-.15-.39-.31-.77-.44-1.15-.1-.27-.18-.53-.27-.8-.12-.35-.23-.71-.34-1.06-.08-.27-.15-.53-.22-.8-.09-.33-.17-.66-.25-.99-.06-.26-.12-.53-.17-.78-.06-.31-.12-.62-.17-.93-.04-.26-.08-.51-.12-.77-.04-.29-.07-.58-.09-.87-.02-.25-.05-.5-.06-.74-.02-.28-.02-.55-.03-.82,0-.24-.01-.47,0-.7,0-.26.02-.51.04-.77.01-.22.03-.45.05-.67.03-.25.07-.48.11-.72.03-.21.06-.42.1-.62.05-.25.12-.48.18-.72.1-.38.21-.74.34-1.1.07-.18.13-.37.2-.54.09-.2.18-.39.28-.58.08-.16.16-.32.24-.48.1-.18.22-.35.33-.53.09-.14.19-.29.29-.43.12-.17.25-.32.38-.47l1.41-1.37"/>
  <path class="cls-3" d="m66.99,93.33c-9.52-11.04-29.13-35.84-37.86-50.2-.41-.68-.81-1.35-1.18-2.02-.12-.22-.23-.43-.35-.65-.24-.44-.49-.89-.72-1.32-.13-.26-.26-.51-.39-.77-.19-.38-.39-.77-.57-1.14-.13-.27-.25-.54-.37-.81-.16-.35-.32-.7-.47-1.04-.12-.28-.23-.55-.34-.82-.13-.32-.27-.65-.39-.97-.1-.27-.2-.54-.3-.81-.11-.31-.22-.61-.31-.91-.09-.27-.17-.53-.25-.79-.09-.29-.17-.57-.24-.85-.07-.26-.14-.52-.2-.77-.06-.27-.12-.53-.18-.79-.05-.25-.1-.5-.15-.74-.04-.25-.08-.49-.11-.73-.03-.24-.07-.48-.09-.71-.02-.23-.04-.44-.05-.66-.01-.23-.03-.46-.03-.68,0-.21,0-.4.01-.6,0-.22,0-.43.03-.64.02-.18.05-.35.07-.53.03-.2.05-.41.09-.6l.12-.44c.17-.64,1.55-2.27,1.86-2.77"/>
  <path class="cls-6" d="m27.95,41.12c-.12-.22-.23-.43-.35-.65.12.22.23.43.35.65Z"/>
  <path class="cls-6" d="m80.59,83.23c-.08-.11-.16-.22-.24-.34.08.11.16.23.24.34Z"/>
  <path class="cls-6" d="m79.81,82.16c-.1-.13-.19-.26-.29-.4.1.13.19.26.29.4Z"/>
  <path class="cls-3" d="m63.22,93.27s3.7,2.73,16.02-7.24c0,0,6.62-4.72,6.72-9.71,0-.18-.07-.34-.13-.5-.07-.17-.16-.37-.27-.59-.06-.12-.14-.27-.21-.41l-.15-.29h0c-4.6-8.35-27.56-39.1-37.34-48.36-9.58-9.07-18.38-10.51-23.22-6.79,1.99-1.52,5.01-1.32,8.63.35,3.87,1.79,8.42,5.26,13.13,10.2,6.24,6.54,18.4,22.04,28.02,34.96,3.26,4.38,6.23,8.46,8.57,11.79.08.11.16.23.24.34h0s.05.07.05.07c.25.35.49.7.72,1.03l.22.31c.29.43.58.84.85,1.23"/>
  <line class="cls-3" x1="79.24" y1="89.21" x2="80.78" y2="88.01"/>
  <rect class="cls-2" x="-3270.56" y="-2755.83" width="6467.34" height="6437.3"/>
</svg>