<?xml version="1.0" encoding="UTF-8"?><svg id="Calque_1" xmlns="http://www.w3.org/2000/svg" viewBox="0 0 200.13 128.13"><defs><style>.cls-1,.cls-2,.cls-3{fill:#fff;}.cls-4{fill:#ff6d75;}.cls-4,.cls-5,.cls-6,.cls-7,.cls-2,.cls-8,.cls-3,.cls-9,.cls-10,.cls-11{stroke-linecap:round;}.cls-4,.cls-5,.cls-6,.cls-2,.cls-8,.cls-3,.cls-9,.cls-10,.cls-11{stroke-linejoin:round;}.cls-4,.cls-6,.cls-7,.cls-12,.cls-2,.cls-8,.cls-3,.cls-13,.cls-9,.cls-10,.cls-14,.cls-11,.cls-15{stroke:#000;}.cls-5{stroke:#e30613;stroke-width:8px;}.cls-5,.cls-6,.cls-7,.cls-8,.cls-10{fill:none;}.cls-6{stroke-width:.7px;}.cls-7,.cls-12,.cls-13,.cls-14,.cls-15{stroke-miterlimit:10;}.cls-12{fill:#8987f3;}.cls-16,.cls-13{fill:#fab0b4;}.cls-3,.cls-14{stroke-width:.75px;}.cls-9{fill:#87ccf3;}.cls-10{stroke-width:1.05px;}.cls-14{fill:#b2f0e9;}.cls-11{fill:#d6d6d6;}.cls-15{fill:#f3d587;}</style></defs><circle class="cls-9" cx="49.03" cy="62.76" r="31.23"/><line class="cls-13" x1="138.08" y1="62.58" x2="138.08" y2="83.63"/><path class="cls-13" d="m138.08,85.13c-.83,0-1.5-.67-1.5-1.5v-21.05c0-.83.67-1.5,1.5-1.5s1.5.67,1.5,1.5v21.05c0,.83-.67,1.5-1.5,1.5Z"/><line class="cls-15" x1="75.19" y1="58.71" x2="75.19" y2="79.76"/><path class="cls-15" d="m75.19,81.26c-.83,0-1.5-.67-1.5-1.5v-21.05c0-.83.67-1.5,1.5-1.5s1.5.67,1.5,1.5v21.05c0,.83-.67,1.5-1.5,1.5Z"/><rect class="cls-5" x="-2101.06" y="-1253.45" width="2655.08" height="1511.77"/><ellipse class="cls-14" cx="109.72" cy="101.62" rx="65.05" ry="18.46"/><path class="cls-2" d="m164.45,82c5.09-6,12.32-12.73,12.82-13.96.43.88,3.75,5.16,3.95,10.48.04,1.19-.29,2.43-.87,3.57-1.42,2.78-4.01,5.07-4.01,5.07,0,0,.65,1.29,1.6,3,.7,1.27.73,4.99.31,7.06-.14.74-.34,1.27-.59,1.39-.94.47-3.76.47-8.45,3.57-4.69,3.09-10.6,5.63-15.39,7.97-4.79,2.35-10.23,1.97-13.42.94-3.19-1.03-3.29-4.41-3.29-4.41-3.19.38-4.04-.59-5.82-3-1.77-2.41-2.25-5.63,3.01-14.93,5.25-9.29,15.08-16.68,15.08-16.68.57.64,5.07,2.33,6.62,3.1.56.28,2.23.64,4.42.83-.67.98-1.07,1.63-1.07,1.76,0,.21.16.37.42.52.5.3,1.37.58,2.07,1.25.87.83,1.23,1.75,1.6,2.24.27.36.54.49,1.01.23"/><path class="cls-8" d="m176.34,87.16s-8.25,6.78-12.01,9.57c-3.76,2.79-12.86,7.13-13.61,8.82"/><path class="cls-8" d="m137.11,106.68c-.94-4.04,2.91-9.29,2.91-9.29,3.94-4.41,10-11.87,13.23-15.04"/><path class="cls-11" d="m185.45,101.42c-1.77,2.49-2.32,3.59-4.41,2.54-2.09-1.05-1.86-1.26-2.16-4.32-.12-1.11-.36-1.88-.63-2.42.42-2.07.39-5.79-.31-7.06-.95-1.71-1.6-3-1.6-3,0,0,2.59-2.29,4.01-5.07.39-.01,2.38.06,2.66,2.25.3,2.44,1.03,6.95,2.53,9.2s1.67,5.4-.09,7.88Z"/><path class="cls-3" d="m150.24,86.5s3.44-2.38,3.44-2.38c.51-.35,1.04-.66,1.53-1.04.25-.19.49-.39.7-.61.2-.21.46-.49.03-.47-.28.01-.56.11-.83.17-.42.1-.89.22-1.32.18-.25-.02-.5-.12-.63-.33-.17-.27-.07-.64.14-.89,0,0,.02-.02.02-.03.23-.24.55-.37.87-.48,1.01-.36,2.08-.59,3.06-1.02.56-.25,1.04-.59,1.64-.78.48-.15.98-.26,1.48-.32l.55-.85s-.04-.05-.04-.05c.17-.27.34-.54.51-.81,1.06,1.19,2.12,2.37,3.18,3.56-.47.5-.76.81-.77.79,0,0,0,0-.01-.02-.06,1.92-1.06,4.05-2.42,5.24-.14.12-.28.24-.39.39-.08.12-.13.25-.19.38-.3.78-.57,1.57-.81,2.37-.15.5-.26,1.65-.9,1.77-.44.09-.83-.35-.7-.78.24-.78.5-1.55.77-2.31.1-.29.23-.56.29-.86.02-.09.09-.32.02-.41-.35-.45-.89.59-1.03.82-.26.43-.53.85-.8,1.27-.38.6-.77,1.19-1.17,1.78-.25.37-.53,1.06-1.09.91-.39-.1-.59-.58-.36-.91.13-.19.25-.37.38-.56.02-.06.04-.13.08-.19.42-.67.81-1.36,1.19-2.05.19-.35.38-.7.56-1.05.08-.15.59-.72.36-.88-.27-.18-.8.61-.95.75-.42.4-.84.79-1.26,1.19-.57.53-1.11,1.08-1.67,1.61-.35.33-.92,1.1-1.46.73-.29-.2-.35-.65-.12-.91.02-.04.04-.08.07-.11.67-.91,1.46-1.72,2.23-2.53.38-.4.76-.8,1.12-1.22.19-.22.37-.44.54-.66.07-.09.3-.29.18-.41-.12-.12-.39.07-.49.12-.27.16-.5.42-.77.57-.46.26-.93.52-1.39.78-.64.37-1.28.73-1.92,1.1-.38.22-.92.76-1.39.46-.34-.22-.37-.8-.03-1.03Z"/><path class="cls-3" d="m119.96,58.94s4.17.34,4.17.34c.61.05,1.22.15,1.84.17.31.01.62,0,.93-.03.28-.03.66-.09.32-.34-.22-.17-.5-.28-.76-.39-.39-.19-.82-.39-1.14-.7-.18-.17-.31-.41-.28-.66.04-.32.36-.54.67-.59.01,0,.02,0,.03,0,.33-.04.66.07.97.18,1.01.36,1.98.86,3.01,1.15.59.17,1.18.21,1.76.44.47.19.92.42,1.35.69l.97-.31s0-.07,0-.07c.3-.1.6-.2.9-.3.06,1.59.13,3.18.2,4.77-.68.09-1.1.14-1.1.13,0,0,0,0,0-.02-1.27,1.44-3.39,2.46-5.2,2.51-.18,0-.37,0-.55.05-.14.04-.26.11-.39.18-.73.41-1.44.85-2.13,1.31-.44.29-1.25,1.11-1.82.8-.4-.21-.42-.8-.05-1.05.68-.44,1.37-.88,2.06-1.3.26-.16.54-.29.77-.48.07-.06.27-.19.28-.3.01-.57-1.06-.11-1.32-.02-.48.16-.95.32-1.43.48-.68.22-1.35.43-2.03.64-.43.13-1.08.48-1.42.01-.24-.32-.09-.82.3-.93.22-.06.43-.13.65-.19.05-.04.11-.07.18-.1.75-.26,1.49-.53,2.23-.83.37-.15.73-.3,1.1-.45.15-.06.92-.18.83-.45-.09-.31-1.01-.04-1.21-.02-.58.04-1.15.08-1.73.12-.77.05-1.54.13-2.32.18-.48.03-1.4.27-1.59-.37-.1-.34.14-.72.48-.78.04-.02.08-.03.13-.04,1.09-.27,2.22-.4,3.33-.54.55-.07,1.1-.14,1.64-.23.28-.05.56-.1.84-.17.11-.03.42-.04.4-.21-.02-.17-.35-.2-.46-.22-.31-.05-.65,0-.95-.05-.52-.09-1.04-.19-1.57-.28-.73-.12-1.46-.25-2.19-.37-.44-.07-1.2,0-1.37-.53-.12-.38.22-.85.63-.82Z"/><path class="cls-7" d="m39.27,52.47s-2.68-5.05,2.51-6.58"/><path class="cls-1" d="m159.01,16.6c-.67,1.83-1.62,4.75-1.84,7.06-.27-.35-.53-.74-.78-1.14-.87-1.43-2.67-3.36-2.67-3.36,1.06-1.05.41-3.29-.82-3.71-1.23-.42-2.07.78-3.2,1.55-1.24.84-3.6-.84-4.33-1.43-.74-.59-4.48-4.48-4.48-4.48-.54.86-1.36,2.44-1.13,4.57-.85-.23-2.19-.86-2.31-2.6-.23-3.12,2.46-3.84,2.46-3.84.87-2.73,6.89-5.66,13.53-3.89,3.38.9,4.55,3.24,4.68,5.53,0,0,1.85,3.09.89,5.74Z"/><path class="cls-9" d="m177.27,68.04s4.49-5.19,3.86-8.29c-.63-3.09-3.24-14.99-5.21-19.78-1.97-4.78-4.15-10.44-8.37-11.19-4.23-.75-6.97-1.55-6.97-1.55-.02.06-.04.12-.06.17-.24.72-.45,1.28-1.27,2.57-1.72,2.71-4.61,5.02-7.49,4.65-2.51-.33-2.79-3.06-2.72-4.64.02-.62.33-1.14.33-1.14,0,0-3.91,1.15-5.05,2.12-1.85,1.58-1.63,24.11-1.92,24.46-.07.09-8.75,2.37-8.7,2.95.06,1.05.8,5.87.96,5.99.56.43,12.18-2.64,13.72-5.28,1.71,2.96,3.41,6.08,3.05,7.78-.5,2.33-2.61,4.58-2.05,5.21.57.64,5.07,2.33,6.62,3.1.56.28,2.23.64,4.42.83-.67.98-1.07,1.63-1.07,1.76,0,.21.16.37.42.52.5.3,1.37.58,2.07,1.25.87.83,1.23,1.75,1.6,2.24.27.36.54.49,1.01.23l12.82-13.96Z"/><path class="cls-8" d="m139.66,16.22s-2.08-.39-2.27-2.98c-.22-3.12,2.46-3.84,2.46-3.84.87-2.73,6.89-5.66,13.54-3.89,3.3.88,4.48,3.13,4.67,5.36"/><path class="cls-8" d="m158.22,11.47s1.7,2.66.74,5.32c-.84,2.31-1.88,4.81-1.59,7.17"/><path class="cls-8" d="m160.52,27.4c-.24.72-.45,1.28-1.27,2.57-1.72,2.71-4.61,5.02-7.49,4.65-2.51-.33-2.79-3.06-2.72-4.64.01-.03.02-.06.03-.09.49-1.54.84-2.84,1.05-3.16-.47.46-2.83,1.69-5.15,2.17-2.46.5-2.61-1.29-3.55-3.75-.93-2.44-2.16-2.32-2.36-2.95-.2-.64,1.68-2.37.89-5.12-.09-.3-.15-.58-.19-.87-.38-2.32.51-4.03,1.08-4.94,0,0,3.74,3.89,4.48,4.48.73.59,3.09,2.27,4.33,1.43,1.13-.77,1.97-1.97,3.2-1.55,1.23.42,1.88,2.66.82,3.71,0,0,1.8,1.93,2.67,3.36,1.72,2.8,4.08,4.59,4.08,4.59l.1.11Z"/><path d="m141.96,18.55c-.23-.45-.16-.94.16-1.11.32-.16.75.07.98.53.23.44.15.93-.15,1.1-.32.16-.76-.07-.99-.51Z"/><path class="cls-6" d="m152.38,17.47s-.84.54-.94,1.55"/><path class="cls-8" d="m145.3,35.19s-.26,8.45-.14,11.4c.07,1.69,1.38,7.65,3.22,12.48"/><path class="cls-8" d="m165.36,36.03s-.77,3.94.14,6.62c.92,2.67,6.97,17.46,6.97,17.46"/><path class="cls-8" d="m160.42,76c2.88-3.96,9.78-13.36,11.07-14.84,2.39-2.74,5.21-.84,5.21-.84"/><path class="cls-10" d="m154.13,18.58s-.5,1.48-2.22,2.02"/><path class="cls-16" d="m155.05,80.64h.02s0,0,0,0c0,0-.01,0-.02,0Z"/><path class="cls-8" d="m142.4,55.42s1.06.84,2.96.56"/><path class="cls-8" d="m84.5,76.14c-.76,3.53-2.35,2.91-4.06,4.52-.24.22-.48.46-.62.75-.4.85.2,1.81.77,2.56.93,1.21,2.04,2.53,3.57,2.63,1.26.08,2.42-.75,3.17-1.76.75-1.02,1.18-2.22,1.73-3.36.56-1.13.67-2.63,1.79-3.2"/><path class="cls-2" d="m98.95,70.02c.18,1.74,1.4,2.76,1.3,3.24-.12.59-1.22.59-1.82,2.83-.61,2.27-.58,3.86-2.81,3.65-2.11-.22-4.3-1.1-4.77-1.46"/><path class="cls-2" d="m84.99,75.28c.64-1.34,2.06-3.22,2.06-3.22-1.03-.84-.65-2.88.4-3.36,1.05-.49,1.9.49,2.97,1.07,1.18.64,3.12-1.06,3.7-1.65.61-.59,3.56-4.38,3.56-4.38.59.75,1.53,2.19,1.4,4.28,0,.26-.03.51-.09.79-.08.44-.08.84-.04,1.21,0,0,2.04-2.54,1.97-4.84-.09-2.79-2.53-3.18-2.53-3.18-1.03-2.34-6.63-4.39-12.34-2.21-3.04,1.15-3.8,3.47-3.63,5.59,0,0-1.37,2.64-.27,4.9.61,1.28,1.45,2.56,1.95,3.89h0c.24.65.39,1.3.4,1.97l.49-.86Zm-2.57-9.85l.29,1.52c-.13-.47-.24-1-.29-1.52Z"/><ellipse class="cls-2" cx="95.82" cy="70.48" rx=".75" ry=".34" transform="translate(5.81 148.24) rotate(-77.16)"/><line class="cls-2" x1="88.15" y1="70.35" x2="88.67" y2="70.65"/><path class="cls-2" d="m57.64,98.34s-7.77-3.42-14.01-7.82c-2.64-1.87-5.01-3.91-6.39-5.94-.98-1.45-1.47-2.89-1.2-4.26,0,0,1.15-3.69,6.44-2.85,5.3.84,18.99,4,20.02,7.97,1.03,3.97-4.86,12.9-4.86,12.9Z"/><path class="cls-4" d="m90.32,81.36c.29.17.59.34.89.52,3.18,1.82,6.52,3.9,8.36,5.54,0,0,14.33,4.2,15.36,4.54,1.02.33-1.14,2.31-1.14,2.31,0,0-9.26.6-14.73-.29-1.93-.73-3.3-1.25-3.3-1.25-1.13-1.21-2.92-2.69-4.88-4.15-.61-.45-1.25-.91-1.89-1.38"/><path class="cls-2" d="m114.36,91.85s5.38.43,5.68,2.61c.15,1.11-4.23.75-4.27,1.05-.04.3,1.4,1.18.42,1.18-1.2,0-3.18-2.41-3.18-2.41l1.35-2.42Z"/><path class="cls-2" d="m61.03,101.53c-.75-.04-1.49-.1-2.23-.16-12.7-1.13-3.75-6.51-3.01-12.88.05-.52,2.06-1.54,4.97-2.77-2.47,2.59-6.81,8.84.27,15.81Z"/><path class="cls-2" d="m82.88,77.66c.26-.09.46-.16.61-.2l-.61.2Z"/><path class="cls-2" d="m83.8,77.34h0s-.02.01-.02.01c.01-.01.02-.01.02-.01Z"/><path class="cls-2" d="m58.79,101.37s-25.06-.19-26.62-8.03c0,0-.55-4.28,4.66-5.52,5.22-1.24,20.1-3.82,22.57-.54,2.46,3.28-.61,14.09-.61,14.09Z"/><path class="cls-2" d="m38.52,87.58c-2.2-3.21-18.08-11.66-18.08-11.66l-2.87,3.25s16.64,18.7,18.77,18.32"/><path class="cls-2" d="m17.58,79.18s-8.48-4.62-7.37-6.05c1.12-1.43,5.74,1.6,7.01.53,1.27-1.06,1.06-.28,3.23,2.27.92,2.8-.53,3.44-2.87,3.25Z"/><path class="cls-2" d="m46.62,79.29c2.04-3.31,2.41-20.79,2.41-20.79l-3.92-1.85s-9.14,19.66-9.03,24.16"/><path class="cls-2" d="m45.11,56.65s2.08-9.43,3.76-8.76c1.69.67.06,5.96,1.44,6.88,1.37.92.56.94-1.28,3.73-1.04.61-2.39-.18-3.92-1.85Z"/><path class="cls-2" d="m47.4,86.03s.61-1.36,1.83-1.96c3.42-1.67,8.72-1.9,12.89.39,0,0-9.48,12.45.42,17.28l-8.5-.7"/><path class="cls-2" d="m111.2,101.85s4.93,2.57,5.96.76c1.04-1.81-3.3-3.35-3.17-3.62.13-.27,1.63-.3.9-.97-.6-.55-3.74.55-3.74.55l.04,3.28Z"/><path class="cls-4" d="m111.2,102.13s-14.39-1.33-18.76-3.38c-.95-.44-2.35-1.05-3.96-1.78-.16-.08-.32-.15-.48-.23-.35.56-.76,1.05-1.25,1.45-2.87,2.38-14.74,4.25-25.73,3.62-7.08-6.97-2.47-15.4,0-17.99,6.17-2.6,16.14-3.94,20.59-5.46l1.26-.42.61-.2.13-.04.16-.05h.02c.18.25,3.29,4.55,5.85,3.45,0,0,.47,3.31.33,7.12h0c.3.23.6.45.9.67,1.95,1.46,3.75,2.93,4.88,4.15,0,0,1.36.52,3.3,1.25,4.39,1.65,11.71,4.42,12.41,4.72,1,.43-.27,3.15-.27,3.15Z"/><line class="cls-15" x1="73.77" y1="66.19" x2="43.39" y2="76.14"/><path class="cls-15" d="m43.39,77.64c-.63,0-1.22-.4-1.43-1.03-.26-.79.17-1.63.96-1.89l30.38-9.95c.79-.26,1.63.17,1.89.96.26.79-.17,1.63-.96,1.89l-30.38,9.95c-.16.05-.31.07-.47.07Z"/><line class="cls-15" x1="42.54" y1="69.45" x2="42.54" y2="107.88"/><path class="cls-15" d="m42.54,109.38c-.83,0-1.5-.67-1.5-1.5v-38.43c0-.83.67-1.5,1.5-1.5s1.5.67,1.5,1.5v38.43c0,.83-.67,1.5-1.5,1.5Z"/><line class="cls-13" x1="136.67" y1="70.06" x2="106.28" y2="80.01"/><path class="cls-13" d="m106.28,81.51c-.63,0-1.22-.4-1.43-1.03-.26-.79.17-1.63.96-1.89l30.38-9.95c.79-.26,1.63.17,1.89.96.26.79-.17,1.63-.96,1.89l-30.38,9.95c-.16.05-.31.07-.47.07Z"/><line class="cls-13" x1="105.43" y1="73.32" x2="105.43" y2="111.75"/><path class="cls-13" d="m105.43,113.25c-.83,0-1.5-.67-1.5-1.5v-38.43c0-.83.67-1.5,1.5-1.5s1.5.67,1.5,1.5v38.43c0,.83-.67,1.5-1.5,1.5Z"/><path class="cls-13" d="m28.05,121.93c-1.98,0-19.33-.16-19.33-5.84s17.35-5.84,19.33-5.84,19.33.16,19.33,5.84-17.35,5.84-19.33,5.84Zm-16.25-5.84c.98,1.09,6.84,2.84,16.25,2.84s15.27-1.75,16.25-2.84c-.98-1.09-6.84-2.84-16.25-2.84s-15.27,1.75-16.25,2.84Z"/><path class="cls-12" d="m57.26,121.93c-1.98,0-19.33-.16-19.33-5.84s17.35-5.84,19.33-5.84,19.33.16,19.33,5.84-17.35,5.84-19.33,5.84Zm-16.25-5.84c.98,1.09,6.84,2.84,16.25,2.84s15.27-1.75,16.25-2.84c-.98-1.09-6.84-2.84-16.25-2.84s-15.27,1.75-16.25,2.84Z"/><path class="cls-13" d="m88.15,113.44c-1.38,0-13.45-.11-13.45-4.06s12.07-4.06,13.45-4.06,13.45.11,13.45,4.06-12.07,4.06-13.45,4.06Zm-11.31-4.06c.68.76,4.76,1.98,11.31,1.98s10.62-1.22,11.31-1.98c-.68-.76-4.76-1.98-11.31-1.98s-10.62,1.22-11.31,1.98Z"/><path class="cls-7" d="m16.91,97.1s4.18,3.66,10.05,2.44"/></svg>