<?xml version="1.0" encoding="UTF-8"?>
<svg id="Calque_1" data-name="Calque 1" xmlns="http://www.w3.org/2000/svg" viewBox="0 0 200.13 128.13">
  <defs>
    <style>
      .cls-1, .cls-2, .cls-3, .cls-4, .cls-5, .cls-6, .cls-7, .cls-8, .cls-9, .cls-10, .cls-11, .cls-12, .cls-13, .cls-14, .cls-15 {
        stroke: #000;
      }

      .cls-1, .cls-2, .cls-3, .cls-4, .cls-5, .cls-6, .cls-7, .cls-16, .cls-15 {
        stroke-linecap: round;
      }

      .cls-1, .cls-2, .cls-3, .cls-4, .cls-5, .cls-7, .cls-16, .cls-15 {
        stroke-linejoin: round;
      }

      .cls-1, .cls-11 {
        fill: #d6d6d6;
      }

      .cls-2 {
        fill: #87ccf3;
      }

      .cls-3, .cls-17, .cls-9, .cls-15 {
        fill: #fff;
      }

      .cls-4, .cls-5, .cls-6, .cls-7, .cls-16 {
        fill: none;
      }

      .cls-5 {
        stroke-width: .7px;
      }

      .cls-18 {
        fill: #fab0b4;
      }

      .cls-6, .cls-8, .cls-9, .cls-10, .cls-11, .cls-12, .cls-13, .cls-14 {
        stroke-miterlimit: 10;
      }

      .cls-7 {
        stroke-width: 1.05px;
      }

      .cls-8 {
        fill: #ff6d75;
      }

      .cls-10 {
        fill: #ffd4ad;
      }

      .cls-12 {
        fill: #b4eac3;
      }

      .cls-13 {
        fill: #baa584;
      }

      .cls-16 {
        stroke: #fff;
        stroke-width: 8px;
      }

      .cls-14 {
        fill: #b2f0e9;
      }

      .cls-14, .cls-15 {
        stroke-width: .75px;
      }
    </style>
  </defs>
  <ellipse class="cls-14" cx="109.72" cy="101.62" rx="65.05" ry="18.46"/>
  <path class="cls-3" d="m164.45,82c5.09-6,12.32-12.73,12.82-13.96.43.88,3.75,5.16,3.95,10.48.04,1.19-.29,2.43-.87,3.57-1.42,2.78-4.01,5.07-4.01,5.07,0,0,.65,1.29,1.6,3,.7,1.27.73,4.99.31,7.06-.14.74-.34,1.27-.59,1.39-.94.47-3.76.47-8.45,3.57-4.69,3.09-10.6,5.63-15.39,7.97-4.79,2.35-10.23,1.97-13.42.94-3.19-1.03-3.29-4.41-3.29-4.41-3.19.38-4.04-.59-5.82-3-1.77-2.41-2.25-5.63,3.01-14.93,5.25-9.29,15.08-16.68,15.08-16.68.57.64,5.07,2.33,6.62,3.1.56.28,2.23.64,4.42.83-.67.98-1.07,1.63-1.07,1.76,0,.21.16.37.42.52.5.3,1.37.58,2.07,1.25.87.83,1.23,1.75,1.6,2.24.27.36.54.49,1.01.23"/>
  <path class="cls-4" d="m176.34,87.16s-8.25,6.78-12.01,9.57c-3.76,2.79-12.86,7.13-13.61,8.82"/>
  <path class="cls-4" d="m137.11,106.68c-.94-4.04,2.91-9.29,2.91-9.29,3.94-4.41,10-11.87,13.23-15.04"/>
  <path class="cls-1" d="m185.45,101.42c-1.77,2.49-2.32,3.59-4.41,2.54-2.09-1.05-1.86-1.26-2.16-4.32-.12-1.11-.36-1.88-.63-2.42.42-2.07.39-5.79-.31-7.06-.95-1.71-1.6-3-1.6-3,0,0,2.59-2.29,4.01-5.07.39-.01,2.38.06,2.66,2.25.3,2.44,1.03,6.95,2.53,9.2s1.67,5.4-.09,7.88Z"/>
  <path class="cls-15" d="m150.24,86.5s3.44-2.38,3.44-2.38c.51-.35,1.04-.66,1.53-1.04.25-.19.49-.39.7-.61.2-.21.46-.49.03-.47-.28.01-.56.11-.83.17-.42.1-.89.22-1.32.18-.25-.02-.5-.12-.63-.33-.17-.27-.07-.64.14-.89,0,0,.02-.02.02-.03.23-.24.55-.37.87-.48,1.01-.36,2.08-.59,3.06-1.02.56-.25,1.04-.59,1.64-.78.48-.15.98-.26,1.48-.32l.55-.85s-.04-.05-.04-.05c.17-.27.34-.54.51-.81,1.06,1.19,2.12,2.37,3.18,3.56-.47.5-.76.81-.77.79,0,0,0,0-.01-.02-.06,1.92-1.06,4.05-2.42,5.24-.14.12-.28.24-.39.39-.08.12-.13.25-.19.38-.3.78-.57,1.57-.81,2.37-.15.5-.26,1.65-.9,1.77-.44.09-.83-.35-.7-.78.24-.78.5-1.55.77-2.31.1-.29.23-.56.29-.86.02-.09.09-.32.02-.41-.35-.45-.89.59-1.03.82-.26.43-.53.85-.8,1.27-.38.6-.77,1.19-1.17,1.78-.25.37-.53,1.06-1.09.91-.39-.1-.59-.58-.36-.91.13-.19.25-.37.38-.56.02-.06.04-.13.08-.19.42-.67.81-1.36,1.19-2.05.19-.35.38-.7.56-1.05.08-.15.59-.72.36-.88-.27-.18-.8.61-.95.75-.42.4-.84.79-1.26,1.19-.57.53-1.11,1.08-1.67,1.61-.35.33-.92,1.1-1.46.73-.29-.2-.35-.65-.12-.91.02-.04.04-.08.07-.11.67-.91,1.46-1.72,2.23-2.53.38-.4.76-.8,1.12-1.22.19-.22.37-.44.54-.66.07-.09.3-.29.18-.41-.12-.12-.39.07-.49.12-.27.16-.5.42-.77.57-.46.26-.93.52-1.39.78-.64.37-1.28.73-1.92,1.1-.38.22-.92.76-1.39.46-.34-.22-.37-.8-.03-1.03Z"/>
  <path class="cls-15" d="m119.96,58.94s4.17.34,4.17.34c.61.05,1.22.15,1.84.17.31.01.62,0,.93-.03.28-.03.66-.09.32-.34-.22-.17-.5-.28-.76-.39-.39-.19-.82-.39-1.14-.7-.18-.17-.31-.41-.28-.66.04-.32.36-.54.67-.59.01,0,.02,0,.03,0,.33-.04.66.07.97.18,1.01.36,1.98.86,3.01,1.15.59.17,1.18.21,1.76.44.47.19.92.42,1.35.69l.97-.31s0-.07,0-.07c.3-.1.6-.2.9-.3.06,1.59.13,3.18.2,4.77-.68.09-1.1.14-1.1.13,0,0,0,0,0-.02-1.27,1.44-3.39,2.46-5.2,2.51-.18,0-.37,0-.55.05-.14.04-.26.11-.39.18-.73.41-1.44.85-2.13,1.31-.44.29-1.25,1.11-1.82.8-.4-.21-.42-.8-.05-1.05.68-.44,1.37-.88,2.06-1.3.26-.16.54-.29.77-.48.07-.06.27-.19.28-.3.01-.57-1.06-.11-1.32-.02-.48.16-.95.32-1.43.48-.68.22-1.35.43-2.03.64-.43.13-1.08.48-1.42.01-.24-.32-.09-.82.3-.93.22-.06.43-.13.65-.19.05-.04.11-.07.18-.1.75-.26,1.49-.53,2.23-.83.37-.15.73-.3,1.1-.45.15-.06.92-.18.83-.45-.09-.31-1.01-.04-1.21-.02-.58.04-1.15.08-1.73.12-.77.05-1.54.13-2.32.18-.48.03-1.4.27-1.59-.37-.1-.34.14-.72.48-.78.04-.02.08-.03.13-.04,1.09-.27,2.22-.4,3.33-.54.55-.07,1.1-.14,1.64-.23.28-.05.56-.1.84-.17.11-.03.42-.04.4-.21-.02-.17-.35-.2-.46-.22-.31-.05-.65,0-.95-.05-.52-.09-1.04-.19-1.57-.28-.73-.12-1.46-.25-2.19-.37-.44-.07-1.2,0-1.37-.53-.12-.38.22-.85.63-.82Z"/>
  <path class="cls-15" d="m117.11,82.44s-2.71-1.75-2.71-1.75c-.4-.26-.82-.49-1.21-.76-.2-.14-.39-.29-.56-.46-.16-.15-.36-.36-.03-.36.22,0,.44.07.65.11.33.07.69.14,1.03.11.19-.02.38-.11.48-.28.12-.22.04-.5-.13-.68,0,0-.01-.01-.02-.02-.18-.18-.44-.27-.68-.35-.79-.25-1.62-.4-2.38-.71-.44-.18-.82-.43-1.28-.56-.38-.11-.76-.18-1.15-.21l-.44-.65s.03-.04.03-.04c-.14-.2-.27-.41-.41-.61-.79.95-1.58,1.89-2.38,2.84.37.37.6.6.61.59,0,0,0,0,.01-.01.09,1.48.91,3.1,1.99,3.99.11.09.23.18.31.29.07.09.11.19.15.29.25.59.48,1.2.68,1.81.13.38.24,1.27.74,1.35.34.06.64-.29.52-.62-.21-.59-.42-1.18-.65-1.77-.08-.22-.19-.43-.24-.66-.02-.07-.08-.24-.03-.31.26-.36.7.43.81.61.21.32.43.64.65.96.31.45.62.9.94,1.35.2.28.43.8.86.68.3-.09.44-.46.26-.71-.1-.14-.2-.28-.3-.42-.01-.05-.03-.1-.07-.15-.34-.51-.66-1.03-.97-1.56-.15-.26-.31-.53-.46-.79-.06-.11-.48-.54-.3-.67.2-.15.63.45.75.56.33.29.67.59,1,.88.45.4.88.81,1.33,1.2.28.24.73.82,1.15.52.22-.16.26-.51.07-.71-.02-.03-.03-.06-.06-.09-.54-.68-1.17-1.29-1.78-1.9-.3-.3-.6-.6-.89-.91-.15-.16-.29-.33-.43-.5-.06-.07-.24-.22-.15-.31.09-.09.3.04.38.08.22.12.39.31.61.42.36.19.73.38,1.09.56.5.27,1.01.53,1.51.8.3.16.73.57,1.09.32.26-.18.27-.63,0-.8Z"/>
  <path class="cls-15" d="m124.57,45.81s-2.77,1.65-2.77,1.65c-.41.24-.8.52-1.22.74-.21.11-.43.22-.66.3-.21.07-.49.16-.34-.13.1-.19.26-.36.39-.53.21-.26.44-.55.55-.87.06-.18.07-.39-.03-.55-.14-.21-.43-.26-.67-.18,0,0-.02,0-.03,0-.24.09-.43.27-.61.46-.57.59-1.08,1.27-1.69,1.82-.35.32-.75.55-1.07.9-.26.29-.5.61-.7.94l-.78.11s-.02-.05-.02-.05c-.24.03-.48.06-.73.1.5,1.13.99,2.26,1.48,3.39.5-.17.81-.27.8-.28,0,0,0,0,0-.02,1.37.57,3.18.56,4.46-.02.13-.06.26-.12.4-.15.11-.02.22-.01.33,0,.64.04,1.28.1,1.92.19.4.05,1.24.35,1.53-.06.2-.28.02-.7-.32-.74-.62-.08-1.25-.15-1.87-.2-.23-.02-.47-.02-.7-.07-.07-.02-.25-.04-.29-.11-.2-.39.7-.44.91-.46.38-.05.77-.1,1.15-.15.54-.08,1.08-.16,1.63-.25.34-.06.91-.03.99-.47.06-.31-.22-.6-.52-.55-.17.03-.34.06-.51.09-.05-.01-.1-.01-.16,0-.61.08-1.21.13-1.82.18-.3.02-.61.04-.91.06-.13,0-.7.19-.73-.03-.04-.25.69-.37.83-.43.41-.17.83-.34,1.24-.51.55-.23,1.11-.43,1.67-.66.34-.14,1.06-.29.98-.8-.04-.27-.34-.45-.6-.38-.03,0-.07,0-.1.01-.85.18-1.67.47-2.49.75-.4.14-.81.28-1.22.39-.21.06-.42.12-.64.17-.09.02-.3.12-.35,0-.04-.12.17-.25.25-.31.2-.14.45-.22.64-.36.33-.24.66-.48.99-.73.46-.33.92-.67,1.39-1,.28-.2.83-.4.77-.83-.04-.31-.44-.52-.72-.35Z"/>
  <path class="cls-3" d="m90.46,46.21c-2.55,2.76-3.65,1.37-6.03,1.92-.33.08-.67.16-.95.35-.8.56-.77,1.74-.66,2.71.19,1.58.5,3.35,1.82,4.25,1.09.74,2.57.61,3.78.09,1.21-.52,2.23-1.38,3.33-2.1,1.1-.72,1.99-2.01,3.3-1.92"/>
  <g>
    <path class="cls-4" d="m106.67,48.35c-.76,1.66-.2,3.22-.54,3.6-.42.46-1.4-.11-3.13,1.59-1.75,1.72-2.56,3.16-4.45,1.8-1.78-1.31-3.28-3.26-3.51-3.82"/>
    <path class="cls-3" d="m91.36,45.7c1.29-.87,3.55-1.8,3.55-1.8-.48-1.3.93-2.94,2.13-2.81,1.2.12,1.45,1.45,2.1,2.53.72,1.2,3.36.69,4.2.47.86-.21,5.51-2.05,5.51-2.05.13.99.22,2.77-1,4.59-.14.23-.29.44-.5.66-.3.35-.52.71-.67,1.06,0,0,3.17-1.21,4.33-3.31,1.39-2.55-.59-4.19-.59-4.19.31-2.64-3.63-7.45-9.92-8.51-3.34-.57-5.25,1.11-6.21,3.1,0,0-2.62,1.65-2.84,4.26-.12,1.47-.05,3.06-.3,4.53h0c-.12.71-.32,1.37-.67,1.98l.9-.51Zm2.9-10.2l-.54,1.52c.13-.49.31-1.02.54-1.52Z"/>
    <ellipse class="cls-3" cx="103.62" cy="47.11" rx=".78" ry=".36" transform="translate(-1.72 90.22) rotate(-46.71)"/>
    <line class="cls-4" x1="96.8" y1="42.95" x2="97.11" y2="43.49"/>
  </g>
  <path class="cls-11" d="m106.22,79.1c-1.3-.94-2.23-1.93-3.4-2.91-5.26-4.42-10.52-8.85-15.79-13.27-1.3-1.09-2.72-2.46-2.56-4.15.18-1.96,2.4-3.06,4.36-3.27,2.26-.24,4.5.57,5.87,2.21,5.03,6.02,10.07,12.04,15.1,18.06l-3.58,3.33Z"/>
  <path class="cls-8" d="m98.35,71.28c-3.05-8.67-12.23-14.97-23.08-14.97-13.34,0-24.15,9.52-24.15,21.25,0,5.42,2.3,10.36,6.1,14.11,4.42,4.39,10.87,7.15,18.05,7.15,13.34,0,24.16-9.52,24.16-21.26,0-2.19-.38-4.3-1.07-6.28Z"/>
  <path class="cls-13" d="m14.98,44.76c-.37-.3-.77-.62-1.24-.66-.97-.1-1.65.89-2.08,1.76-1.19,2.42-2.22,4.92-3.06,7.47-.18.55-.36,1.15-.18,1.7.27.86,1.32,1.28,2.2,1.1.88-.18,1.6-.82,2.17-1.52.57-.7,1.05-1.47,1.7-2.1.65-.62,1.54-1.09,2.43-.95.83.13,1.54.75,2.37.81.92.07,1.82-.67,1.94-1.57.12-.91-4.44-4.57-6.25-6.04Z"/>
  <path class="cls-13" d="m23.58,87.91c-.44.19-.9.4-1.16.8-.53.81.04,1.87.61,2.66,1.59,2.17,3.34,4.23,5.22,6.16.41.42.86.85,1.43.95.89.16,1.75-.58,1.99-1.45.24-.87,0-1.8-.35-2.63s-.83-1.61-1.08-2.47c-.25-.86-.26-1.86.27-2.59.49-.68,1.37-1.02,1.81-1.74.48-.78.25-1.92-.5-2.45-.75-.53-6.1,1.84-8.24,2.76Z"/>
  <path class="cls-10" d="m55.88,50.31c-6.21,2.13-10.66,5-17.13,3.86-5.98-1.06-13.36-5.56-19.35-6.45-.29-.04-.6.06-.8.27-1.01,1.06-1.61,3.52-.86,4.84.83,1.47,14.59,9.11,16.02,10.01,4.55,2.88,15.15,2.69,19.05,2.03,3.9-.65,5.07-12.77,3.07-14.56Z"/>
  <path class="cls-10" d="m56.02,51.14c-6.91,3.16-8.41,14.03-13.53,21.14-2.78,3.85-13.95,10.23-14.95,11.49-1,1.25,3.37,6.61,4.89,6.38,1.53-.23,13.27-6.87,18.04-11.79,4.89-5.04,8.37-11.6,11.81-17.73-1.62-3.32-3.37-7-6.26-9.49Z"/>
  <path class="cls-11" d="m117.18,54.79c-.33.47-.88.72-1.41.94-8.55,3.56-17.84,5.37-27.11,5.28-.25,0-.5,0-.74-.01-1.13-.19-2.27-.34-3.42-.44-6.4-.62-12.91,0-19.09,1.8-1.32.39-2.84.81-4.01.06-.59-.37-.97-.99-1.34-1.58-1.74-2.83-3.48-5.66-5.22-8.49-.29-.47-.59-1-.48-1.54.13-.65.78-1.03,1.37-1.32,9.46-4.63,21.51-5.59,31.76-2.74.78.22,1.3.96,1.21,1.77-.12,1.08-.24,2.66-.2,4.3.17.05.34.09.51.14,4.44,1.2,9.17,1,13.67.09,4.08-.82,8.01-2.21,11.92-3.65.57-.21,1.19.11,1.38.69.2.6.57,1.18.89,1.75.52.91.91,2.09.31,2.95Z"/>
  <path class="cls-12" d="m88.66,61.01c-.23.04-.46.03-.68,0-.02,0-.04-.01-.06-.01.24.01.49.01.74.01Z"/>
  <path class="cls-9" d="m87.92,61c-.5,0-.99-.02-1.49-.04-.59-.02-1.27-.15-1.93-.4,1.15.1,2.29.25,3.42.44Z"/>
  <path class="cls-6" d="m8.34,44.09s1.62-5.33,6.44-2.65"/>
  <path class="cls-6" d="m18.26,89.54s-.45-5.55,5.02-4.83"/>
  <path class="cls-17" d="m159.01,16.6c-.67,1.83-1.62,4.75-1.84,7.06-.27-.35-.53-.74-.78-1.14-.87-1.43-2.67-3.36-2.67-3.36,1.06-1.05.41-3.29-.82-3.71-1.23-.42-2.07.78-3.2,1.55-1.24.84-3.6-.84-4.33-1.43-.74-.59-4.48-4.48-4.48-4.48-.54.86-1.36,2.44-1.13,4.57-.85-.23-2.19-.86-2.31-2.6-.23-3.12,2.46-3.84,2.46-3.84.87-2.73,6.89-5.66,13.53-3.89,3.38.9,4.55,3.24,4.68,5.53,0,0,1.85,3.09.89,5.74Z"/>
  <path class="cls-2" d="m177.27,68.04s4.49-5.19,3.86-8.29c-.63-3.09-3.24-14.99-5.21-19.78-1.97-4.78-4.15-10.44-8.37-11.19-4.23-.75-6.97-1.55-6.97-1.55-.02.06-.04.12-.06.17-.24.72-.45,1.28-1.27,2.57-1.72,2.71-4.61,5.02-7.49,4.65-2.51-.33-2.79-3.06-2.72-4.64.02-.62.33-1.14.33-1.14,0,0-3.91,1.15-5.05,2.12-1.85,1.58-1.63,24.11-1.92,24.46-.07.09-8.75,2.37-8.7,2.95.06,1.05.8,5.87.96,5.99.56.43,12.18-2.64,13.72-5.28,1.71,2.96,3.41,6.08,3.05,7.78-.5,2.33-2.61,4.58-2.05,5.21.57.64,5.07,2.33,6.62,3.1.56.28,2.23.64,4.42.83-.67.98-1.07,1.63-1.07,1.76,0,.21.16.37.42.52.5.3,1.37.58,2.07,1.25.87.83,1.23,1.75,1.6,2.24.27.36.54.49,1.01.23l12.82-13.96Z"/>
  <path class="cls-4" d="m139.66,16.22s-2.08-.39-2.27-2.98c-.22-3.12,2.46-3.84,2.46-3.84.87-2.73,6.89-5.66,13.54-3.89,3.3.88,4.48,3.13,4.67,5.36"/>
  <path class="cls-4" d="m158.22,11.47s1.7,2.66.74,5.32c-.84,2.31-1.88,4.81-1.59,7.17"/>
  <path class="cls-4" d="m160.52,27.4c-.24.72-.45,1.28-1.27,2.57-1.72,2.71-4.61,5.02-7.49,4.65-2.51-.33-2.79-3.06-2.72-4.64.01-.03.02-.06.03-.09.49-1.54.84-2.84,1.05-3.16-.47.46-2.83,1.69-5.15,2.17-2.46.5-2.61-1.29-3.55-3.75-.93-2.44-2.16-2.32-2.36-2.95-.2-.64,1.68-2.37.89-5.12-.09-.3-.15-.58-.19-.87-.38-2.32.51-4.03,1.08-4.94,0,0,3.74,3.89,4.48,4.48.73.59,3.09,2.27,4.33,1.43,1.13-.77,1.97-1.97,3.2-1.55,1.23.42,1.88,2.66.82,3.71,0,0,1.8,1.93,2.67,3.36,1.72,2.8,4.08,4.59,4.08,4.59l.1.11Z"/>
  <path d="m141.96,18.55c-.23-.45-.16-.94.16-1.11.32-.16.75.07.98.53.23.44.15.93-.15,1.1-.32.16-.76-.07-.99-.51Z"/>
  <path class="cls-5" d="m152.38,17.47s-.84.54-.94,1.55"/>
  <path class="cls-4" d="m145.3,35.19s-.26,8.45-.14,11.4c.07,1.69,1.38,7.65,3.22,12.48"/>
  <path class="cls-4" d="m165.36,36.03s-.77,3.94.14,6.62,6.97,17.46,6.97,17.46"/>
  <path class="cls-4" d="m160.42,76c2.88-3.96,9.78-13.36,11.07-14.84,2.39-2.74,5.21-.84,5.21-.84"/>
  <path class="cls-7" d="m154.13,18.58s-.5,1.48-2.22,2.02"/>
  <path class="cls-18" d="m155.05,80.64h.02s0,0,0,0c0,0-.01,0-.02,0Z"/>
  <path class="cls-4" d="m142.4,55.42s1.06.84,2.96.56"/>
  <path class="cls-6" d="m105.9,62.51s5.5.79,9.76-3.44"/>
  <rect class="cls-16" x="-635.77" y="-308.58" width="2179.47" height="547.09"/>
</svg>