<?xml version="1.0" encoding="UTF-8"?>
<svg id="Calque_1" data-name="Calque 1" xmlns="http://www.w3.org/2000/svg" viewBox="0 0 200.13 128.13">
  <defs>
    <style>
      .cls-1 {
        fill: #76ac75;
      }

      .cls-1, .cls-2, .cls-3, .cls-4, .cls-5, .cls-6, .cls-7, .cls-8, .cls-9, .cls-10, .cls-11, .cls-12, .cls-13, .cls-14, .cls-15 {
        stroke: #000;
      }

      .cls-1, .cls-2, .cls-3, .cls-4, .cls-5, .cls-6, .cls-7, .cls-8, .cls-10, .cls-16, .cls-12, .cls-13, .cls-17 {
        stroke-linejoin: round;
      }

      .cls-1, .cls-2, .cls-3, .cls-4, .cls-5, .cls-6, .cls-7, .cls-8, .cls-10, .cls-16, .cls-13, .cls-17 {
        stroke-linecap: round;
      }

      .cls-2 {
        fill: #d6d6d6;
      }

      .cls-3 {
        fill: #8987f3;
      }

      .cls-4 {
        fill: #baa584;
      }

      .cls-5 {
        fill: #a07637;
      }

      .cls-6, .cls-14 {
        fill: #ff6d75;
      }

      .cls-7, .cls-9, .cls-10, .cls-15 {
        fill: #fff;
      }

      .cls-8, .cls-16, .cls-11, .cls-12 {
        fill: none;
      }

      .cls-9, .cls-10, .cls-11, .cls-12 {
        stroke-width: .59px;
      }

      .cls-9, .cls-11, .cls-14, .cls-15 {
        stroke-miterlimit: 10;
      }

      .cls-18 {
        fill: #87ccf3;
      }

      .cls-16 {
        stroke-width: 8px;
      }

      .cls-16, .cls-17 {
        stroke: #fff;
      }

      .cls-14 {
        stroke-width: .35px;
      }

      .cls-15 {
        stroke-width: .75px;
      }
    </style>
  </defs>
  <polygon class="cls-14" points="142.76 59.15 134.59 59.94 132.96 60.45 134.59 60.65 142.85 59.51 142.76 59.15"/>
  <path class="cls-9" d="m139.34,59.31s-.21-1.32-1.46-1.27-1.82,1.9-1.28,3.28,1.47.89,1.42.26-.54-1.51.33-2.13"/>
  <path class="cls-11" d="m136.48,59.16s-1.31-.36-1.3.68"/>
  <path class="cls-11" d="m135.55,60.65s.55,2.35,1.89,2.59c1.74.31.38-1.38.38-1.38"/>
  <path class="cls-11" d="m134.59,60.65s-.3,1.43,1.15,2.37"/>
  <path class="cls-11" d="m134.59,61.31s-1.02-.03-.13,1.5"/>
  <path class="cls-9" d="m140.86,62.06c-1.81.05-4.22-.9-2.88-1.4,1.99-.75,2.28-.09,3.59,0s2.51-.43,2.51-.43c0,0,2.63.85,1.59,4.25"/>
  <path class="cls-6" d="m145.99,63.92h0c-1.03-2.99-1.95-3.84-1.95-3.84,1.65-.3,12.9-.14,13.32-2.19s0-16.12,0-16.12l5.21,24.61s-14.4,1.67-16.58-2.46"/>
  <line class="cls-8" x1="7.95" y1="120.35" x2="193.4" y2="120.35"/>
  <path class="cls-7" d="m159.71,32.67l3.04-4.79c-.51.29-2.82.82-4.93.72-2.24-.12-1.96-1.7-2.22-4.04-.26-2.32-1.34-2.49-1.38-3.08-.03-.6,1.98-1.67,1.92-4.22-.01-.28,0-.53.03-.79.19-2.09,1.34-3.37,2.04-4.02,0,0,2.36,4.2,2.86,4.87.5.67,2.16,2.65,3.42,2.21,1.15-.41,2.14-1.26,3.11-.62.97.64,1.03,2.72-.12,3.39,0,0,1.12,2.07,1.55,3.5l2.06,5.29"/>
  <path class="cls-7" d="m65.23,42.98s-.03-4.62-.1-5.61c-.06-.99,1.12-3.08,1.12-3.08l3.32-3.4,1.03-2.56-.36-2.44s1,.02,1.15.99c.14.98,1,2.26.47,3.17-.53.91-2.03,4.79-2.03,4.79,0,0-.41,1.14-.18,2.69.23,1.55.84,5.73.84,5.73l-5.25-.28Z"/>
  <path class="cls-1" d="m64.86,42.29l.27,11.26-3.87-7.09-3.83-6.73-8.51-1.1,10.87,20.16s4.76,3.3,7.93,2.44c3.17-.85,3.79-2.22,4.04-4.41.24-2.2-.52-15.17-.52-15.17l-6.38.63Z"/>
  <polygon class="cls-7" points="105.33 87.9 108.98 84.73 114.91 90.54 111.61 93.95 105.33 87.9"/>
  <path class="cls-5" d="m111.71,92.43c.56.56.85,1.34.78,2.13-.09,1.03-.14,2.62-1.53,4.04h0c-.59.96-1.73,1.44-2.83,1.19-.49-.11-1.02-.28-1.56-.54-1.79-.88-3-2.7-6.1-3.35-3.1-.65-7.09-2.33-8.92-4.64-1.83-2.32-1.55-3.61-1.55-3.61h0c1.52-.76,3.26-.97,4.91-.55,1.07.27,2.49.53,4.19.58,3.98.13,7.2-.66,7.2-.66l5.42,5.41Z"/>
  <polygon class="cls-7" points="120.71 111.79 121.64 107.05 129.89 107.99 129.38 112.7 120.71 111.79"/>
  <path class="cls-5" d="m129.8,112.54c.45.8,1.75,2.03,1.72,4.17,0,.23.04.47.15.67h0c.32.58.15,1.32-.4,1.7-.68.48-1.67,1.05-2.72,1.31-1.94.47-4.03-.14-6.83,1.35-2.8,1.49-6.93,2.77-9.82,2.17-2.89-.6-3.5-1.77-3.5-1.77h0c.67-1.56,1.88-2.84,3.41-3.58,1-.48,2.25-1.2,3.58-2.24,2.28-1.79,3.95-3.7,4.68-4.6.27-.33.69-.51,1.11-.47l7.58.64c.43.04.82.28,1.03.66Z"/>
  <polygon class="cls-2" points="136.38 97.16 131.87 120.45 135.2 120.45 143.27 94.7 136.38 97.16"/>
  <polygon class="cls-2" points="188.94 97.84 193.4 120.4 190.06 120.4 182.06 95.38 188.94 97.84"/>
  <path class="cls-2" d="m195.89,52.29l-5.61,36.47v7.38c0,2.16-1.8,3.9-3.96,3.82l-49.38-1.71c-2.21-.08-3.9-2-3.68-4.2l.86-8.82c.2-2.02,1.94-3.54,3.97-3.46l40.1,1.66,5.11-32.92c.23-1.45,1.56-2.46,3.02-2.28l7.23.89c1.54.19,2.61,1.64,2.34,3.17Z"/>
  <path class="cls-3" d="m107.22,84.92c.56-.65,16.72-19.64,21-21.3,4.28-1.66,40.96,6.98,40.96,6.98l7.87-3.63s6.31,13.71-2.12,18c-8.43,4.29-24.52-3.85-24.52-3.85l-19.64-6.52-16.54,18.2-7-7.88Z"/>
  <path class="cls-3" d="m132.07,75.04c-2.22-.74-7.24,3.07-7.76,5.4-.51,2.33-2.64,24.43-3.01,25.59l-.29,1.89,9.07,1.07s1.91-10.1,3.12-14.28c1.21-4.18,2.51-9.07,2.51-9.07l22.72-1.75s-24.14-8.11-26.36-8.85Z"/>
  <path class="cls-17" d="m67.37,29.91c.19-.06.38-.2.53-.4.3-.39.33-.88.06-1.08-.27-.2-.73-.05-1.03.35-.3.39-.33.88-.06,1.08.13.1.32.11.5.05"/>
  <polygon class="cls-7" points="71.81 113.69 70.94 109.86 78.08 106.91 79.74 112.27 71.81 113.69"/>
  <path class="cls-4" d="m70.2,119.24h0c-.28.84.13,1.76.95,2.1.72.3,1.63.58,2.54.64,1.99.11,3.94-.86,6.96.1,3.02.96,7.32,1.48,10.05.36s3.13-2.37,3.13-2.37h0c-.94-1.41-2.36-2.46-4-2.9-1.07-.29-2.43-.77-3.93-1.56-3.52-1.85-5.93-4.13-5.93-4.13l-8.87,2.41v.03s-.91,5.33-.91,5.33Z"/>
  <path class="cls-7" d="m72.73,62.79s1.86.63,1.26,1.79-.36,1.49-.36,1.49c0,0,1.23.99.8,2.09-.43,1.1-1.24,1.74-1.24,1.74l-1.08-1.37-.51-.66-5.56-1.86,2.01-3.86,4.66.65Z"/>
  <g>
    <path class="cls-18" d="m22.1,75.59s1.01,6.48,8.29,6.6c7.28.12,33.61-1.06,33.61-1.06,0,0-.24,6.46.69,10.1s5.87,19.38,5.87,19.38l8.22-2.94s-3.55-25.78-3.99-31.64c-.29-3.83-.99-8.14-7.08-10.04-6.08-1.9-20.78-.7-21.12-.67-.34.03-15.38-.4-15.38-.4l-8.46,6.22-.65,4.44Z"/>
    <path class="cls-8" d="m22.1,75.59s1.01,6.48,8.29,6.6c7.28.12,33.61-1.06,33.61-1.06,0,0-.24,6.46.69,10.1s5.87,19.38,5.87,19.38l8.22-2.94s-3.55-25.78-3.99-31.64c-.29-3.83-.99-8.14-7.08-10.04-6.08-1.9-20.78-.7-21.12-.67-.34.03-15.38-.4-15.38-.4l-8.46,6.22-.65,4.44Z"/>
  </g>
  <polygon class="cls-2" points="62.09 96.15 66.69 120.38 63.57 120.38 55.21 93.68 62.09 96.15"/>
  <polygon class="cls-2" points="12.36 96.53 7.95 120.35 10.88 120.35 19.24 94.07 12.36 96.53"/>
  <path class="cls-2" d="m68.04,91.67c.21,2.2-1.47,4.12-3.68,4.2l-49.38,1.71c-2.17.08-3.96-1.66-3.96-3.82v-7.38l-5.62-36.47c-.27-1.53.8-2.98,2.35-3.17l7.23-.89c1.45-.18,2.79.83,3.01,2.28l5.12,32.92,40.1-1.66c2.03-.08,3.77,1.44,3.97,3.46l.86,8.82Z"/>
  <path class="cls-1" d="m56.39,39.96l1.08,5.65,3.41,14.28,6.84,2.19v3.91s-9.89,2.56-13.92,0c-1.21-.77-2.39-2.97-3.45-5.66l-2.42,4.92c-12.3.3-20.65,9.87-20.65,9.87l-1.67-4.56-2.43,5.47-2.58-1.06s.31-5.93,1.98-10.33c1.67-4.4,11.99-23.23,18.67-27.78,2.36-1.61,4.56-2.44,6.4-2.84,2.36-.51,4.16-.33,5.02-.17"/>
  <line class="cls-1" x1="50.35" y1="60.34" x2="46.66" y2="47.47"/>
  <path class="cls-8" d="m53.98,22.13c.29-2.81,2.03-6.56,6.87-6.03,6.62.72,11.02,5.47,10.86,8.24,0,0,.33,1.34-1.55,1.34"/>
  <path class="cls-8" d="m54.41,19.78s-2.46,1.81-2.53,4.54c-.05,2.38.31,5.47-.79,7.5"/>
  <path class="cls-7" d="m56.38,36.39c.26.58,1.96,2.51,3.89,3.76,2.04,1.31,2.81-.25,4.51-2.14,1.69-1.88,2.76-1.34,3.16-1.84.4-.51-.69-2.73.99-4.93.19-.24.34-.47.48-.72,1.15-1.96.95-3.81.75-4.84,0,0-4.74,2.2-5.61,2.48-.87.28-3.58.97-4.41-.22-.75-1.09-1.09-2.47-2.35-2.52-1.26-.05-2.63,1.74-2.04,3.06,0,0-2.3,1.11-3.58,2.1l-2.87,3.34s1.44,7.75,8.12,5.82l-1.05-3.35Z"/>
  <ellipse class="cls-13" cx="65.03" cy="31.28" rx=".81" ry=".37" transform="translate(-.66 61.14) rotate(-50.13)"/>
  <path class="cls-8" d="m64.23,38.64s1.12-.11-2.59-2.03"/>
  <line class="cls-7" x1="57.67" y1="27.37" x2="58.03" y2="27.92"/>
  <path class="cls-8" d="m66.05,27.54s1.6.25,1.9.88"/>
  <line class="cls-2" x1="11.02" y1="86.38" x2="67.25" y2="83.55"/>
  <path class="cls-8" d="m155.96,18.58s-1.6-2.93-1.18-5.2c.51-2.75,2.99-2.76,2.99-2.76,1.37-2.16,7.22-3.34,12.56-.32,3.9,2.21,3.19,5.95,1.89,8.21"/>
  <path class="cls-8" d="m173.16,16.52s.87,2.68-.56,4.76c-1.24,1.81-2.71,3.73-2.98,5.84"/>
  <ellipse class="cls-13" cx="159.02" cy="19.4" rx=".34" ry=".75" transform="translate(-.98 11.47) rotate(-4.12)"/>
  <line class="cls-7" x1="166.64" y1="20.44" x2="166.08" y2="20.66"/>
  <path class="cls-8" d="m155.7,25.89s1.72.94,3.32-.21"/>
  <line class="cls-2" x1="190.28" y1="88.76" x2="134.87" y2="88.76"/>
  <path class="cls-6" d="m159.71,32.67l6.48-2.86c1.54-.52,3.23-.18,4.46.89,1.2,1.03,2.54,2.66,3.32,5.08,2.05,6.35,2.45,12.57,2.45,12.57,0,0,2.24,21.52,1.11,23.62l-.85,1.24-21.1-2.34,3.88-11.3"/>
  <path class="cls-6" d="m159.46,59.57c-3.76-18.19-1.63-25.36.25-26.9"/>
  <polygon class="cls-12" points="133.75 60.97 121.52 55.91 128.94 61.27 134.17 61.96 133.75 60.97"/>
  <polygon class="cls-10" points="128.94 61.27 140.49 66.37 146.47 66.37 138.91 62.63 128.94 61.27"/>
  <path class="cls-15" d="m148.14,65.3s-2.53.11-3.95.43-3.85.16-4.2.77,2.44.7,3,1.13.88.74,3.8.74,15.35-.04,15.35-.04c0,0-1.6-2.24-1.51-3.46,0,0-2.49.47-4.79.32s-4.53-.46-6-.85-2.15-.36-3.47.14-1.5.75-1.5.75"/>
  <path class="cls-6" d="m163.41,42.11c.39,1.52,3.89,18.16,3.89,18.16l-13.4,3.59.4,6.41s18.11-3.78,21.05-5.79c1.6-1.09.59-4.96.37-7.55s-3.08-17.59-3.54-19.5c-.74-3.15-5.09-6.29-7.74-3.34-2.77,3.08-1.04,8.03-1.04,8.03Z"/>
  <rect class="cls-16" x="-1276.56" y="-68.12" width="2179.47" height="547.09"/>
</svg>