<?xml version="1.0" encoding="UTF-8"?>
<svg id="Calque_1" data-name="Calque 1" xmlns="http://www.w3.org/2000/svg" viewBox="0 0 200 128">
  <defs>
    <style>
      .cls-1 {
        fill: #baa584;
      }

      .cls-1, .cls-2, .cls-3, .cls-4, .cls-5, .cls-6, .cls-7, .cls-8 {
        stroke-linecap: round;
        stroke-linejoin: round;
      }

      .cls-1, .cls-2, .cls-3, .cls-4, .cls-5, .cls-6, .cls-7, .cls-9 {
        stroke: #000;
      }

      .cls-2, .cls-5 {
        fill: #a07637;
      }

      .cls-3, .cls-7, .cls-8, .cls-9 {
        fill: none;
      }

      .cls-10, .cls-4 {
        fill: #d6d6d6;
      }

      .cls-4, .cls-5, .cls-6, .cls-7 {
        stroke-width: 2px;
      }

      .cls-6 {
        fill: #fff;
      }

      .cls-8 {
        stroke: #fff;
        stroke-width: 8px;
      }

      .cls-9 {
        stroke-miterlimit: 10;
      }
    </style>
  </defs>
  <g>
    <line class="cls-4" x1="3.27" y1="110.11" x2="196.73" y2="110.11"/>
    <rect class="cls-4" x="13.86" y="77.18" width="178.85" height="22.79" rx="8.22" ry="8.22"/>
    <path class="cls-5" d="m187.12,98.85H17.96c-.39,0-.7-.31-.7-.7v-46.62c0-.39-.31-.7-.7-.7h-4.18c-.39,0-.7.31-.7.7v58.02c0,.39.31.7.7.7h4.18c.39,0,.7-.31.7-.7v-5.19c0-.39.31-.7.7-.7h168.46c.39,0,.7.31.7.7v5.19c0,.39.31.7.7.7h4.18c.39,0,.7-.31.7-.7v-10c0-.39-.31-.7-.7-.7h-4.88Z"/>
    <g>
      <path class="cls-6" d="m55.84,76.47c.35,1.3-.42,2.63-1.72,2.98-.89.24-1.81-.05-2.4-.68l-2.36,1.08c-6.25,2.86-12.93,4.67-19.77,5.34l-2.54.25c-.2.84-.84,1.55-1.73,1.79-1.3.35-2.63-.42-2.98-1.72-.23-.87.03-1.74.61-2.33-2.62-5.64-4.25-11.67-4.82-17.86-.8-.22-1.47-.84-1.7-1.71-.35-1.3.42-2.63,1.72-2.98.89-.24,1.8.05,2.4.67l2.29-1.05c6.24-2.86,12.93-4.67,19.77-5.34l2.45-.24c.2-.83.84-1.53,1.73-1.77,1.3-.35,2.63.42,2.98,1.72.22.82,0,1.66-.53,2.25,1.32,2.83,2.4,5.77,3.21,8.77s1.35,6.02,1.64,9.1c.83.2,1.54.84,1.78,1.73Z"/>
      <path class="cls-7" d="m25.23,76.27c-1.13-2.98-1.81-6.1-2.03-9.3"/>
      <path class="cls-7" d="m48.96,70.46c.23,1.86-.39,3.57-1.85,5.09"/>
    </g>
    <path class="cls-1" d="m92.18,37.47c-.17.06-.33.23-.6.51-.28.29-.9.85-.92,1.07h0c-.24-.17-.47-.32-.68-.41.44.06.92-1.1,1.07-2.42h0c.02-.17.04-.34.06-.51.16-1.42-.78-2.95-1.34-2.98.23-.12.56-.19,1.02-.22.74-.05,1.49-.06,2.25-.03.12.52.22,1.13.16,1.65-.11,1.19-.62,2.75-1.02,3.34Z"/>
    <path class="cls-1" d="m105.92,42.35s-.75.64-1.9,1.19c-.39.19-.83.37-1.31.51-.59.17-1.23.29-1.9.29-.39,0-.78-.04-1.18-.13-.21-.05-.41-.1-.61-.15-.56-.16-1.11-.35-1.63-.57-.86-.36-1.65-.78-2.34-1.19h0c-.03-.12-.07-.25-.11-.38-.13-.42-.3-.86-.44-1.07-.25-.37-.49-.92-.77-1.36-.07-.11-.24-.1-.3.02-.07.16-.28.48-.46.59-.23.15-.53.07-.77.04-.07,0-.13.03-.17.08-.24-.2-.48-.42-.72-.63.32-.12.74-.35,1.08-.45.41-.12.61-.19.71-.37.19-.34-.07-.79-.1-.84-.01-.02-.04-.07-.09-.13-.11-.15-.33-.37-.6-.37-.05,0-.1.01-.15.03.4-.59.91-2.15,1.02-3.34.05-.52-.04-1.13-.16-1.65.69.03,1.37.11,2.03.23s1.27.27,1.85.43c.85.23,1.61.49,2.29.77.71.29,1.33.61,1.87.94.61.36,1.12.73,1.55,1.1.42.35.76.7,1.05,1.02.04.04.07.09.11.13.4.5.78,1.25,1.09,2.02.64,1.56,1.04,3.22,1.04,3.22Z"/>
    <path class="cls-1" d="m89.98,38.64h0c-.73-.11-1.72-.25-1.83-.27-.13-.02-.25-.05-.38-.08.09-.1.1-.25.03-.37l-1-1.58c-.09-.13-.26-.18-.41-.11-.08.05-.14.12-.16.22,0,.03,0,.07,0,.11l.21,1.33c-.48-.18-.95-.38-1.42-.6l.04-.38c.01-.14-.08-.26-.22-.29-.11-.02-.22.03-.28.13l-.14.24c-.21-.1-.42-.21-.63-.32.21-.35.34-.67.43-.89.25-.64.45-1.13.21-1.47-.07-.11-.18-.18-.3-.23l.02-.09c.07-.35,2.13-.93,2.45-1.02,1.04-.28,2.1-.31,3.16-.24h0c.55.04,1.5,1.56,1.34,2.98-.02.17-.04.34-.06.51h0c-.15,1.32-.63,2.48-1.07,2.42Z"/>
    <path class="cls-1" d="m84.22,35.77c-.09.22-.22.55-.43.89-.23.38-.55.79-1,1.13h0s-.5.32-.5.32c-.45.23-.87.45-1.2.28-.16-.08-.27-.23-.35-.43-.24-.6-.14-1.62.25-2.39.11-.21.59-1.11,1.63-1.45.39-.12,1.08-.24,1.52-.05.12.05.23.13.3.23.24.34.04.83-.21,1.47Z"/>
    <path class="cls-3" d="m82.79,37.8c-.15.11-.31.22-.5.31l.5-.31Z"/>
    <path class="cls-3" d="m85.24,42.7c.06-.03.06-.12,0-.15-.07-.05-.15-.11-.2-.16-.09-.11-.13-.31-.13-.31,0,0-.81.4-1.04.55-.15.1-.4.3-.55.43-.07.06-.09.17-.03.25h0c.04.05.1.08.17.07.19-.02.61-.09.92-.23.29-.13.66-.34.85-.45Z"/>
    <polyline class="cls-3" points="89.08 53.71 89.82 53.01 89.51 48.94 92.77 44.59 92.09 44.58 89.51 48.94"/>
    <polyline class="cls-3" points="83.35 50.77 83.92 49.9 82.48 46.45 83.5 44.09 82.98 43.85 82.48 46.45"/>
    <polyline class="cls-3" points="98.91 56.07 98.24 54.83 100.93 51.98 98.96 48.84 98.25 49.09 100.93 51.98"/>
    <g>
      <path class="cls-2" d="m87.77,38.29s0,0,0,.01l-.12.13c-.22.23-.55.34-.86.28-.13-.02-.23-.13-.25-.26l-.09-.57-.21-1.33s0-.07,0-.11c.02-.09.08-.17.16-.22.14-.07.32-.03.41.11l1,1.58c.07.12.06.27-.03.37Z"/>
      <path class="cls-2" d="m87.48,39.15h0s.32-.18.32-.18c.05-.03.11-.02.15.03.2.24.67.82.89,1.2.45.8.58,1.47.54,1.66-.03.15-.03.31-.15.4h0c-.16.11-.37.09-.5-.05-.26-.28-.68-.76-.9-1.19-.21-.4-.47-.99-.64-1.39-.09-.22.06-.46.3-.48Z"/>
      <path class="cls-2" d="m98.55,45.07c-.07.16-.25.26-.42.22h0c-.3-.07-.77-.18-1.15-.35-.06-.03-.12-.05-.18-.08-.37-.19-.88-.5-1.21-.72-.19-.12-.19-.38,0-.51l.17-.3s.08-.07.13-.06c.28.08.96.27,1.32.45.04.02.08.04.12.06.69.36,1.09.76,1.16.91.06.13.13.24.08.38Z"/>
      <path class="cls-2" d="m84.91,38.5c-.01.12-.1.22-.23.24l-.15.02c-.09.02-.19.01-.28,0-.17-.03-.34-.12-.46-.26-.07-.08-.09-.21-.03-.3l.67-1.2.14-.24c.05-.1.17-.15.28-.13.14.02.23.15.22.29l-.04.38-.12,1.22Z"/>
      <path class="cls-2" d="m84.73,39.48h0s.27-.16.27-.16c.04-.02.1-.01.13.02.17.2.58.71.76,1.03.39.69.5,1.26.47,1.43-.02.13-.02.26-.13.34h0c-.13.1-.32.08-.43-.04-.22-.24-.58-.65-.78-1.03-.18-.35-.4-.85-.55-1.19-.08-.19.05-.4.25-.41Z"/>
      <path class="cls-2" d="m90.11,41.82c-.09-.05-.21.02-.21.12,0,.13-.01.29-.05.4-.07.21-.29.44-.29.44,0,0,1.22.73,1.61.91.25.12.74.27,1.03.36.15.04.3-.03.35-.17h0c.04-.1.02-.2-.05-.28-.19-.24-.63-.74-1.08-1.02-.42-.27-1.01-.59-1.31-.75Z"/>
      <path class="cls-2" d="m98.47,48.29c-.03.08-.11.13-.19.14-.12.02-.24-.06-.26-.18-.04-.24-.11-.64-.12-.86-.01-.34.07-1.46.07-1.46,0,0,.25.07.43.04.02,0,.04,0,.06-.01.08-.02.17-.06.25-.1.08-.04.17.01.17.1,0,.28-.02.8-.06,1.2-.04.42-.25.92-.35,1.14Z"/>
      <path class="cls-2" d="m95.15,42.9c-.04.2-.16.37-.34.47-.17.09-.36.11-.53.05-.08-.03-.16-.07-.23-.13-.34-.3-.77-.94-1.08-1.34-.38-.49-.75-1.07-.93-1.57-.02-.05-.01-.1.01-.14.03-.06.1-.09.17-.08.24.03.54.11.77-.04.18-.11.39-.43.46-.59.05-.12.22-.13.3-.02.27.44.51.99.77,1.36.14.21.31.64.44,1.07.04.13.08.26.11.38h0c.03.13.06.25.08.35.02.09.02.17,0,.25Z"/>
      <path class="cls-2" d="m93.12,38.78c-.1.18-.31.25-.71.37-.33.1-.76.33-1.08.45-.19.07-.35.1-.43.04-.18-.14-.25-.39-.23-.59h0c.02-.22.64-.78.92-1.07.27-.28.44-.45.6-.51.05-.02.1-.03.15-.03.28,0,.49.22.6.37.04.06.07.11.09.13.03.06.29.5.1.84Z"/>
    </g>
    <polygon class="cls-9" points="82.62 38.74 82.29 38.12 82.79 37.8 82.79 37.8 82.62 38.74"/>
    <polygon class="cls-9" points="81.52 38.5 81.84 39.01 81.98 38.4 81.52 38.5"/>
    <path class="cls-3" d="m80.74,37.96s-.8.24-1.4.75-1.04,1.29-1.04,1.29"/>
    <path class="cls-3" d="m80.94,38.33s-.7.61-1.07,1.42c-.37.82-.47,1.85-.47,1.85"/>
    <path class="cls-3" d="m92.93,37.81c.72-.01,1.68-.3,2.31-.63.23-.12.41-.33.56-.57.35-.56.49-1.28.49-1.28l.63-2.19"/>
    <path class="cls-3" d="m96.1,38.46s1.06-.35,1.71-.91c.19-.16.35-.34.44-.53.25-.54.68-2.07.96-3.11"/>
    <path class="cls-3" d="m101.08,34.85c-.28,1.04-.72,2.62-.97,3.18-.1.22-.29.41-.51.59-.44.35-1.03.61-1.37.75"/>
    <path class="cls-3" d="m102.63,35.95c-.27,1-.63,2.24-.85,2.72-.06.12-.15.24-.26.36-.46.48-1.28.85-1.68,1"/>
    <path class="cls-3" d="m103.79,37.1c-.25.91-.56,2.01-.78,2.56h0c-.02.05-.04.1-.06.14-.2.44-.77.81-1.27,1.06h0"/>
    <path class="cls-3" d="m104.88,39.12c-.16.39-.31.72-.42.91-.05.08-.11.16-.18.23-.27.29-.7.52-1.1.68"/>
    <path class="cls-3" d="m97.4,43.48c.28-.98.59-2.13.76-2.98.07-.39.09-.77.06-1.14-.05-.72-.24-1.37-.42-1.81"/>
    <path class="cls-3" d="m95.8,36.6c.17.63.42,1.97-.02,3.24-.21.6-.52,1.35-.83,2.08"/>
    <path class="cls-3" d="m99.59,38.62c.12.4.23.88.25,1.4.02.35,0,.71-.07,1.08-.16.84-.47,1.98-.75,2.95"/>
    <path class="cls-3" d="m101.52,39.02c.14.53.22,1.17.15,1.84h0c-.01.11-.03.22-.05.33-.17.9-.51,2.14-.8,3.15"/>
    <path class="cls-3" d="m103,39.66h0c.1.4.17.83.17,1.29,0,.15,0,.3-.02.45-.08.75-.26,1.75-.44,2.65"/>
    <path class="cls-3" d="m104.28,40.26c.12.57.18,1.24.05,1.91-.08.4-.19.87-.31,1.36"/>
    <path class="cls-3" d="m106.51,49.58c14.05,7.75,14.76,23.81,15.84,38.17,0,0,1.51-38.53,16.44-38.53s17.65,38.53,17.65,38.53c0,0,2.56-38.46,15.23-38.46"/>
    <g>
      <line class="cls-10" x1="131.89" y1="17.75" x2="109.24" y2="30.69"/>
      <g>
        <line class="cls-3" x1="131.89" y1="17.75" x2="110.18" y2="30.15"/>
        <polygon points="111.03 24.96 111.99 25.25 110.51 29.96 115.32 31.08 115.09 32.06 109.24 30.69 111.03 24.96"/>
      </g>
    </g>
  </g>
  <rect class="cls-8" x="-1091.02" y="-3177.54" width="2244.45" height="5948.74"/>
</svg>