<?xml version="1.0" encoding="UTF-8"?>
<svg id="Calque_1" data-name="Calque 1" xmlns="http://www.w3.org/2000/svg" viewBox="0 0 128 128">
  <defs>
    <style>
      .cls-1 {
        fill: #baa584;
      }

      .cls-1, .cls-2, .cls-3, .cls-4 {
        stroke-linecap: round;
        stroke-linejoin: round;
      }

      .cls-1, .cls-2, .cls-3, .cls-5 {
        stroke: #000;
      }

      .cls-2 {
        fill: #a07637;
      }

      .cls-3, .cls-4, .cls-5 {
        fill: none;
      }

      .cls-4 {
        stroke: #fff;
        stroke-width: 8px;
      }

      .cls-5 {
        stroke-miterlimit: 10;
      }
    </style>
  </defs>
  <path class="cls-1" d="m26.57,49.09c-.2.07-.41.28-.74.63-.34.35-1.1,1.04-1.12,1.31h0c-.29-.21-.57-.39-.83-.5.54.08,1.12-1.34,1.31-2.96h0c.02-.21.05-.41.07-.62.2-1.74-.96-3.6-1.64-3.65.28-.14.69-.24,1.25-.27.9-.06,1.83-.08,2.75-.03.15.64.26,1.38.2,2.01-.14,1.45-.75,3.36-1.25,4.09Z"/>
  <path class="cls-1" d="m43.36,55.05s-.91.79-2.32,1.46c-.48.23-1.02.45-1.6.62-.72.21-1.5.35-2.32.35-.47,0-.95-.05-1.44-.16-.25-.06-.5-.12-.75-.19-.69-.19-1.36-.43-1.99-.7-1.05-.44-2.02-.95-2.86-1.45h0c-.04-.15-.08-.31-.13-.47-.16-.52-.37-1.05-.54-1.31-.31-.45-.6-1.12-.94-1.66-.09-.14-.3-.13-.36.02-.09.19-.34.59-.56.72-.28.18-.65.09-.94.05-.09-.01-.16.03-.2.1-.29-.24-.58-.51-.88-.76.39-.15.91-.43,1.32-.55.5-.15.75-.23.87-.45.23-.42-.08-.96-.12-1.03-.02-.03-.05-.09-.11-.16-.14-.19-.4-.45-.74-.45-.06,0-.12.01-.18.04.49-.72,1.11-2.63,1.25-4.09.06-.63-.05-1.38-.2-2.01.84.04,1.68.13,2.49.28s1.56.33,2.26.52c1.04.28,1.97.6,2.8.95.87.36,1.63.75,2.29,1.15.74.44,1.37.9,1.9,1.34.51.43.93.85,1.29,1.25.05.05.09.1.13.16.49.62.95,1.53,1.33,2.47.78,1.91,1.28,3.94,1.28,3.94Z"/>
  <path class="cls-1" d="m23.87,50.52h0c-.89-.13-2.1-.3-2.24-.33-.15-.03-.31-.06-.46-.1.11-.12.13-.31.04-.45l-1.22-1.93c-.1-.16-.32-.22-.5-.13-.1.06-.17.15-.2.26,0,.04,0,.09,0,.13l.25,1.62c-.59-.22-1.16-.47-1.73-.74l.04-.46c.01-.17-.1-.32-.27-.35-.13-.03-.27.04-.34.16l-.17.3c-.26-.13-.52-.26-.77-.39.26-.43.42-.82.53-1.09.31-.78.55-1.38.26-1.8-.09-.13-.22-.22-.37-.28l.02-.11c.08-.43,2.6-1.13,3-1.24,1.27-.34,2.57-.38,3.86-.29h0c.68.05,1.83,1.91,1.64,3.65-.02.21-.05.41-.07.62h0c-.19,1.62-.77,3.04-1.31,2.96Z"/>
  <path class="cls-1" d="m16.84,47.01c-.11.27-.27.67-.53,1.09-.28.47-.67.97-1.22,1.39h0s-.61.39-.61.39c-.55.28-1.06.55-1.47.34-.19-.1-.33-.28-.43-.53-.29-.73-.17-1.99.3-2.92.13-.26.72-1.36,1.99-1.77.48-.15,1.32-.3,1.86-.06.15.06.28.15.37.28.29.42.05,1.02-.26,1.8Z"/>
  <path class="cls-3" d="m15.08,49.5c-.18.14-.38.27-.61.38l.61-.38Z"/>
  <path class="cls-3" d="m18.08,55.48c.07-.04.08-.14,0-.19-.08-.06-.18-.13-.24-.2-.11-.14-.16-.38-.16-.38,0,0-.99.49-1.27.67-.18.12-.49.37-.67.52-.09.08-.11.21-.04.3h0c.05.06.13.1.2.09.24-.03.75-.1,1.13-.28.35-.16.81-.41,1.05-.54Z"/>
  <polyline class="cls-3" points="22.77 68.95 23.68 68.09 23.3 63.12 27.29 57.79 26.45 57.78 23.3 63.12"/>
  <polyline class="cls-3" points="15.77 65.34 16.47 64.28 14.71 60.07 15.95 57.18 15.32 56.89 14.71 60.07"/>
  <polyline class="cls-3" points="34.79 71.83 33.97 70.32 37.27 66.83 34.86 62.99 33.99 63.3 37.27 66.83"/>
  <g>
    <path class="cls-2" d="m21.17,50.09s0,0-.01.01l-.15.16c-.27.29-.67.41-1.06.34-.16-.03-.28-.16-.3-.32l-.11-.7-.25-1.62s0-.09,0-.13c.02-.11.09-.21.2-.26.17-.09.39-.03.5.13l1.22,1.93c.09.14.07.33-.04.45Z"/>
    <path class="cls-2" d="m20.82,51.14h0s.39-.22.39-.22c.06-.04.14-.02.18.03.24.29.82,1,1.09,1.47.55.98.71,1.8.66,2.03-.03.19-.03.37-.19.48h0c-.19.14-.45.11-.61-.06-.32-.34-.83-.93-1.1-1.46-.26-.49-.57-1.21-.78-1.7-.11-.27.07-.57.36-.58Z"/>
    <path class="cls-2" d="m34.35,58.39c-.09.2-.31.31-.52.27h-.01c-.37-.08-.94-.23-1.41-.43-.08-.03-.15-.07-.22-.1-.46-.24-1.07-.61-1.48-.87-.23-.14-.23-.46,0-.63l.2-.37c.03-.06.1-.09.16-.07.34.1,1.17.33,1.62.55.05.02.1.05.15.07.85.44,1.33.93,1.41,1.12.07.16.16.3.1.46Z"/>
    <path class="cls-2" d="m17.67,50.35c-.01.15-.13.27-.28.29l-.19.03c-.11.02-.23.01-.34,0-.21-.04-.41-.15-.56-.32-.09-.1-.11-.25-.04-.37l.81-1.47.17-.3c.07-.12.2-.19.34-.16.17.03.28.18.27.35l-.04.46-.14,1.49Z"/>
    <path class="cls-2" d="m17.45,51.55h0s.33-.19.33-.19c.05-.03.12-.02.16.03.21.25.71.86.93,1.26.47.84.61,1.55.57,1.75-.03.16-.03.32-.16.42h0c-.16.12-.39.09-.53-.05-.27-.29-.71-.8-.95-1.25-.22-.42-.49-1.04-.67-1.46-.1-.23.06-.49.31-.5Z"/>
    <path class="cls-2" d="m24.03,54.41c-.12-.06-.25.02-.25.15,0,.16-.02.35-.06.48-.09.26-.36.54-.36.54,0,0,1.5.89,1.97,1.11.31.14.9.33,1.26.44.18.05.37-.04.43-.21h0c.04-.12.02-.25-.06-.35-.24-.29-.78-.9-1.32-1.25-.52-.33-1.23-.72-1.61-.92Z"/>
    <path class="cls-2" d="m34.26,62.32c-.04.09-.13.16-.23.17-.15.02-.29-.08-.32-.22-.05-.3-.14-.78-.15-1.05-.01-.41.08-1.79.08-1.79,0,0,.31.08.53.05.02,0,.05,0,.07-.02.1-.03.21-.08.31-.12.1-.05.21.02.21.12,0,.34-.02.98-.07,1.47-.05.51-.3,1.12-.43,1.4Z"/>
    <path class="cls-2" d="m30.19,55.73c-.05.24-.2.45-.42.57-.2.11-.44.13-.65.06-.1-.03-.2-.09-.29-.16-.42-.36-.94-1.15-1.32-1.64-.46-.6-.91-1.31-1.13-1.92-.02-.06-.01-.12.02-.18.04-.07.12-.11.2-.1.29.04.66.13.94-.05.22-.14.47-.53.56-.72.07-.15.27-.16.36-.02.33.54.63,1.21.94,1.66.17.25.38.79.54,1.31.05.16.1.32.13.47h0c.04.16.08.3.1.43.02.11.02.21,0,.31Z"/>
    <path class="cls-2" d="m27.71,50.69c-.12.22-.37.3-.87.45-.41.12-.92.41-1.32.55-.24.09-.43.12-.53.05-.22-.17-.31-.47-.29-.72h0c.02-.27.78-.96,1.12-1.31.33-.34.54-.55.74-.63.06-.02.12-.04.18-.04.34,0,.6.26.74.45.05.07.09.13.11.16.04.07.35.61.12,1.03Z"/>
  </g>
  <polygon class="cls-5" points="14.88 50.64 14.47 49.88 15.08 49.5 15.09 49.49 14.88 50.64"/>
  <polygon class="cls-5" points="13.53 50.35 13.92 50.97 14.1 50.23 13.53 50.35"/>
  <path class="cls-3" d="m12.57,49.69s-.98.29-1.71.91c-.73.63-1.27,1.58-1.27,1.58"/>
  <path class="cls-3" d="m12.82,50.14s-.86.74-1.31,1.74c-.45,1-.57,2.27-.57,2.27"/>
  <path class="cls-3" d="m27.48,49.5c.88-.02,2.06-.37,2.83-.77.28-.15.51-.4.68-.7.43-.69.59-1.56.59-1.56l.76-2.67"/>
  <path class="cls-3" d="m31.35,50.3s1.29-.43,2.09-1.11c.23-.2.43-.41.54-.65.31-.66.83-2.54,1.17-3.8"/>
  <path class="cls-3" d="m37.44,45.88c-.34,1.27-.88,3.21-1.19,3.89-.12.26-.35.51-.62.72-.54.43-1.26.75-1.67.91"/>
  <path class="cls-3" d="m39.34,47.23c-.33,1.22-.77,2.74-1.04,3.32-.07.15-.18.3-.31.44-.56.59-1.57,1.03-2.05,1.22"/>
  <path class="cls-3" d="m40.76,48.64c-.3,1.11-.69,2.46-.96,3.13h0c-.03.06-.05.12-.07.17-.25.54-.94.99-1.56,1.3h0"/>
  <path class="cls-3" d="m42.09,51.11c-.2.48-.38.88-.51,1.11-.06.1-.13.19-.22.28-.33.35-.86.63-1.35.83"/>
  <path class="cls-3" d="m32.95,56.44c.35-1.19.72-2.6.92-3.64.09-.48.11-.95.08-1.39-.06-.88-.3-1.67-.51-2.22"/>
  <path class="cls-3" d="m30.99,48.03c.21.78.52,2.41-.02,3.96-.26.74-.63,1.66-1.02,2.54"/>
  <path class="cls-3" d="m35.62,50.49c.15.49.28,1.08.31,1.71.03.43,0,.87-.08,1.32-.2,1.03-.57,2.43-.92,3.61"/>
  <path class="cls-3" d="m37.98,50.99c.17.65.27,1.43.18,2.25h0c-.01.13-.03.26-.06.4-.21,1.1-.62,2.61-.98,3.85"/>
  <path class="cls-3" d="m39.8,51.76h0c.13.48.21,1.02.21,1.57,0,.18,0,.36-.03.55-.1.92-.32,2.14-.53,3.24"/>
  <path class="cls-3" d="m41.35,52.5c.15.7.22,1.52.06,2.34-.09.49-.23,1.07-.38,1.66"/>
  <path class="cls-3" d="m44.09,63.9c17.17,9.48,18.05,29.12,19.36,46.67,0,0,1.84-47.1,20.1-47.1s21.58,47.1,21.58,47.1c0,0,3.14-47.02,18.63-47.02"/>
  <rect class="cls-4" x="-740.41" y="-3177.54" width="2244.45" height="5948.74"/>
</svg>