<?xml version="1.0" encoding="UTF-8"?>
<svg id="Calque_1" data-name="Calque 1" xmlns="http://www.w3.org/2000/svg" viewBox="0 0 128 128">
  <defs>
    <style>
      .cls-1, .cls-2, .cls-3, .cls-4, .cls-5, .cls-6, .cls-7 {
        stroke: #000;
      }

      .cls-1, .cls-2, .cls-3, .cls-4, .cls-5, .cls-6, .cls-7, .cls-8 {
        stroke-linecap: round;
      }

      .cls-1, .cls-2, .cls-3, .cls-4, .cls-5, .cls-7, .cls-8 {
        stroke-linejoin: round;
      }

      .cls-1, .cls-5 {
        fill: #afaff9;
      }

      .cls-2 {
        fill: #87ccf3;
      }

      .cls-3 {
        fill: #fff;
      }

      .cls-4, .cls-7, .cls-8 {
        fill: none;
      }

      .cls-5 {
        stroke-width: 1.03px;
      }

      .cls-9 {
        fill: #1d1d1b;
      }

      .cls-6 {
        fill: #fad78c;
        stroke-miterlimit: 10;
      }

      .cls-7 {
        stroke-width: .5px;
      }

      .cls-8 {
        stroke: #fff;
        stroke-width: 8px;
      }
    </style>
  </defs>
  <g>
    <path class="cls-3" d="m81.42,36.99c-1.14,2.74-1.22,3.79-2.37,6.53-1.1,2.62-4.88,6.2-6.22,6.34-2.1.22-5.94-6.08-6.35-8.34"/>
    <path class="cls-3" d="m71.17,38.27c.58,1.23,1.24,3.69,1.85,4.95.17-.34,3.53-4.4,4.19-5.58.24-.8.48-1.6.62-2.42.09-.55.15-1.11.31-1.65.11-.34.26-.68.49-.96.23-.28.55-.44.81-.69.16-.16.29-.33.44-.5.53-.62,1.18-1.13,1.9-1.51.37-.19.75-.35,1.15-.46.53-.16,1.09-.27,1.47.28.23.33.12.61-.03.93.38.4.3.89.11,1.34,0,.02-.02.05-.02.07,0,.04.03.08.06.11.14.19.16.44.11.67-.12.55-.46.94-.84,1.33-.26.26-.47.57-.72.84-.58.62-1.02,1.41-1.64,1.97-.05.04-.09.08-.13.13-.04.06-.07.14-.09.21-.16.51.29-.45,0,0"/>
    <g>
      <path class="cls-3" d="m41.38,77.77l-.33.87-1.5,3.94c-.11.27-.4.41-.67.32-.23-.07-.38-.28-.38-.51,0-.05.01-.09.02-.14l.12-.46h.01s.51-1.93.51-1.93l2.22-2.09Z"/>
      <path class="cls-3" d="m46.53,40.52l-.09,7.22-.11,1.53-.11,1.66-.32,4.69-1.65,15.58c-.01.1-.02.19-.06.28l.09.73s.93,2.53-.22,4.86c-.02.04-.04.08-.06.12-.67,1.39-.89,2.39-.96,2.94-.04.29-.28.52-.58.53h-.02c-.31,0-.57-.23-.6-.54-.05-.61-.08-1.65.19-2.76l-.98,1.28.33-.87-2.22,2.09-.51,1.92h-.01s-.44.58-.44.58c-.17.22-.49.25-.7.07-.09-.09-.15-.22-.15-.35,0-.06.01-.12.04-.18l2.55-6.85s.93-2.46,1.41-4.22c.01-.02.01-.05.02-.07l-.38-22.49s-.6-5.72-.6-11.23h5.61l-.07-.56c.19,1.34.39,2.71.6,4.04Z"/>
      <polygon class="cls-3" points="41.38 77.77 41.05 78.64 38.65 81.78 39.16 79.86 41.38 77.77"/>
    </g>
    <path class="cls-1" d="m45.9,25.63s-6.41-.32-6.35,12.37l5.89.27.46-12.64Z"/>
    <polygon class="cls-3" points="60.31 118.05 59.26 99.53 65.32 100.11 64.9 117.93 60.31 118.05"/>
    <polygon class="cls-3" points="55.28 118.29 55.28 114.19 54.58 102.62 49.22 99.82 50.35 117.94 55.28 118.29"/>
    <path class="cls-1" d="m45.67,67.63l4.12,43.51h6.49s-.03-48.59-.03-48.59l1.01-.14,2.07,48.73h6.49s.81-17.91,1.79-33.95c.17-2.85.35-5.65.53-8.27.4-5.84.03-10.15-.65-13.3-.43-2-.98-3.53-1.53-4.69-1.15-2.43-2.29-3.2-2.29-3.2-7.5-4.34-14.09,0-14.09,0-1.17,1.71-2.03,3.57-2.65,5.43-.27.81-.49,1.63-.68,2.43-.12.53-.23,1.05-.31,1.56-1.01,5.65-.27,10.48-.27,10.48Z"/>
    <path class="cls-1" d="m63.49,124.59l9.36.12c.69,0,1.26-.54,1.28-1.23h0c.01-.48-.25-.92-.67-1.15l-7.96-4.26c-.18-.1-.39-.15-.6-.15h-4.06c-.59,0-1.1.41-1.23.99l-.78,3.49c-.02.08-.03.16-.03.24l-.02.61c-.02.7.54,1.29,1.25,1.29l1.61.02,1.85.02Z"/>
    <path class="cls-1" d="m51.76,124.6l-9.36.12c-.69,0-1.26-.54-1.28-1.23h0c-.01-.48.25-.92.67-1.15l7.96-4.26c.18-.1.39-.15.6-.15h4.06c.59,0,1.1.41,1.23.99l.78,3.49c.02.08.03.16.03.24l.02.61c.02.7-.54,1.29-1.25,1.29l-1.61.02-1.85.02Z"/>
    <path class="cls-1" d="m45.16,55.59h3.44s17.68.03,17.68.03h1.9s-.01-.14-.01-.14l-.68-2.96-.45-26.46h0c.01-.09.02-.14.02-.14l-4.78-1.29-2.99-.81,2.12,1.88-4.96,4.55-5.04-4.55,2.03-1.88-2.75.64h-.02s-5.26,1.23-5.26,1.23h0s.73,26.72.73,26.72l-.98,3.18Z"/>
    <polygon class="cls-2" points="51.41 25.7 56.45 30.25 53.3 24.02 51.41 25.7"/>
    <polygon class="cls-2" points="56.45 30.25 61.41 25.7 59.42 23.93 56.45 30.25"/>
    <polygon class="cls-2" points="56.45 30.25 61.41 25.7 59.42 23.93 56.45 30.25"/>
    <polygon class="cls-2" points="51.41 25.7 56.45 30.25 53.3 24.02 51.41 25.7"/>
    <polygon class="cls-5" points="56.45 30.25 61.41 25.7 59.42 23.93 56.45 30.25"/>
    <polygon class="cls-5" points="51.41 25.7 56.45 30.25 53.3 24.02 51.41 25.7"/>
    <polygon class="cls-3" points="53.44 23.82 56.45 30.25 59.29 23.82 58.37 21.48 53.81 21.48 53.44 23.82"/>
    <path class="cls-4" d="m56.89,3.62s0,1.14.41,1.9h.01"/>
    <path class="cls-4" d="m59.09,6c.9-.52,1.51-1.84,1.51-1.84"/>
    <path class="cls-4" d="m61.93,16.44h.01c.11-.02.84-.21,1.27-1.38.47-1.26,1.01-1.11,1.05-2.41.03-1.23-1.24-.7-1.38-.62"/>
    <path class="cls-4" d="m51.54,5.23s.88.52,1.86.7"/>
    <path class="cls-3" d="m60.95,6.56c-.56.03-1.21-.1-1.86-.56-.27.17-.56.25-.86.21-.43-.04-.72-.33-.92-.69-.01,0-.02.02-.03.02-.12.11-.9.8-1.86-.13-.5.6-1.29.66-2.03.53-.44.34-1.04.3-1.04.3-.03.05-.08.11-.11.16-1.8,2.54-1.97,4.26-1.99,4.45-.11-.45-.19-.88-.25-1.29.1.76.24,1.31.27,1.43h0s0,.03,0,.03h-.01c-.03.72-.03,2.58.26,4.51.25,1.6.73,3.25,1.61,4.31,2.03,2.47,3.35,2.52,3.55,2.51.2.05,1.59.26,3.99-1.88,1.03-.91,1.76-2.47,2.25-4.01.59-1.86.86-3.7.95-4.41h-.01c.02-.08.02-.16.02-.26-.03.07-.05.11-.05.11.02-.3.03-.6.02-.89-.19-1.49-1.56-3.96-1.72-4.39l-.2-.04Z"/>
    <path class="cls-4" d="m62.87,10.99c.04.28.05.54.03.78"/>
    <path class="cls-4" d="m62.89,12.02s0-.01.01-.02h0c.06-.15.39-.88.61-1.88v-.03c.45-1.99.46-5-2.85-6.34,0,0-.2-1.09-1.6-.92,0,0-1.62-1.77-3.57-.32-1.36-.38-1.73.66-1.73.66-3.74.88-3.98,4.25-3.76,6.26,0,.04.01.07.01.1"/>
    <path class="cls-4" d="m52.22,6.6s-1.92,2.8-1.92,4.41"/>
    <path class="cls-4" d="m62.93,11.72h0s0,.13-.03.28h0s0,.03,0,.03"/>
    <path class="cls-4" d="m50.28,11.01v-.02"/>
    <path class="cls-4" d="m50.3,10.7s0,.1-.01.28"/>
    <path class="cls-4" d="m50.55,15.51h-.01c-.1-.04-.8-.34-1.05-1.56-.27-1.31-.82-1.25-.67-2.54.16-1.22,1.33-.5,1.46-.4"/>
    <path class="cls-4" d="m54.63,4.3c.24.45.49.79.72,1.03.03.03.05.07.08.08"/>
    <path class="cls-4" d="m57.28,5.54l.02-.02"/>
    <path class="cls-3" d="m55.98,10.85s-.43,3.87-1.27,5.81c0,0,.16.4,1.42.15"/>
    <ellipse class="cls-3" cx="58.58" cy="12.7" rx=".39" ry=".13" transform="translate(41.4 70.12) rotate(-85.58)"/>
    <ellipse class="cls-3" cx="53.25" cy="12.19" rx=".39" ry=".13" transform="translate(36.99 64.34) rotate(-85.58)"/>
    <rect class="cls-3" x="49.6" y="33.44" width="3.7" height="1.53"/>
    <path class="cls-1" d="m66.49,25.92s6.41-.32,6.35,12.37l-5.89.27-.46-12.64Z"/>
    <path class="cls-3" d="m77.95,34.48c.14-1.63.22-2.43.84-3.09.21-.22.46-.4.71-.58.62-.44,1.21-.92,1.72-1.49.14-.16.29-.33.49-.37.63-.12.41,1.01.27,1.29-.38.77-1.23,1.26-1.31,2.2-.02.25.03.5.05.75.03.46-.07.92-.19,1.37"/>
  </g>
  <g>
    <path class="cls-6" d="m36.61,84.38s-.4-.68.83-1.4,3.94-1.86,4.36-2.86-.91-1.68-2.52-1.21-5.27,2.66-6.78,2.22-1.15-1.05-2.05-2.89-3.72-2.42-3.85-3.15-1.37-6.72-3.78-9.03c-2.41-2.31-3.89-2.13-3.5-.24s4.35,6.1,4.68,7.16,1.18,2.29.22,2.69-1.76,1.03-2.1,1.5-2.17-1.03-3.04-2.87c-.87-1.84-3.11-5.85-4.49-5.73s-1.03,3.07.19,4.9c1.22,1.83,4.51,4.21,5.51,4.98s.8.9.88,2.74c.08,1.84,1.9,3.91,3.2,4.43,1.3.52,1.61,1.47.43,3.19s-2.14,3.21-2.55,4.74.38,2.17,1.3,1.79,2.89-3.18,3.86-5.1c0,0,3.56,5.27,6.65,8.37,3.09,3.11,6.11,6.32,7.74,6.03s1.74-1.79.63-3.12c-1.11-1.33-5-4.51-3.24-6.38s6.67,6.03,8.76,3.71-5.26-7.99-6.12-8.71-4.36-4.04-5.21-5.76Z"/>
    <path class="cls-7" d="m27.52,85.84s2.28-.44,3.42-3.25"/>
    <ellipse class="cls-9" cx="23.77" cy="80.88" rx=".34" ry=".46" transform="translate(-47.33 35.6) rotate(-41.13)"/>
    <ellipse class="cls-9" cx="26.19" cy="78.95" rx=".34" ry=".46" transform="translate(-45.47 36.71) rotate(-41.13)"/>
    <ellipse cx="25.87" cy="81.33" rx=".5" ry=".37" transform="translate(-49.41 41.11) rotate(-44.24)"/>
    <path class="cls-7" d="m27.51,81.36c-.53.6-1.53.08-1.53.08,0,0,.31,1.01-.22,1.46"/>
  </g>
  <rect class="cls-8" x="-573.29" y="-68.12" width="2179.47" height="547.09"/>
</svg>