<?xml version="1.0" encoding="UTF-8"?>
<svg id="Calque_1" data-name="Calque 1" xmlns="http://www.w3.org/2000/svg" viewBox="0 0 128 128">
  <defs>
    <style>
      .cls-1 {
        fill: #ff6d75;
      }

      .cls-2 {
        fill: #b4eac3;
      }

      .cls-3 {
        fill: none;
        stroke: #fff;
        stroke-linecap: round;
        stroke-linejoin: round;
        stroke-width: 8px;
      }
    </style>
  </defs>
  <g>
    <path class="cls-1" d="m36.33,71.16c-.17,0-.34-.07-.47-.19l-8.22-7.83-.16-.02c-.08-.01-.16-.02-.24-.02-.72,0-1.33.45-1.53,1.11-.28.98-.79,1.85-1.49,2.58-1.2,1.25-2.82,1.93-4.58,1.93-2.56,0-5.91-1.58-6.9-6.05-.06-.29-.07-.58-.03-.86.42-2.88,2.04-4.99,4.43-5.8.72-.24,1.15-.95,1.06-1.71l-.02-.18-8.18-7.8c-.26-.24-.28-.64-.06-.9l.24-.36,6.89-7.17c.34-.5.41-1.05.23-1.55-.18-.49-.56-.86-1.06-1.01-1.02-.31-1.93-.84-2.72-1.59-1.33-1.27-2.08-2.97-2.1-4.79-.02-1.73.64-3.36,1.85-4.57,1.23-1.34,2.89-2.07,4.71-2.07s3.39.67,4.66,1.89c.78.75,1.35,1.63,1.71,2.64.23.66.84,1.08,1.55,1.08.36,0,.69-.11.97-.32l6.99-7.32.23-.15c.17-.16.32-.22.48-.22.17,0,.34.07.47.19l8.16,7.83.29.02c.73,0,1.34-.46,1.54-1.14.7-2.43,2.74-4.14,5.59-4.69.15-.03.3-.04.45-.04.14,0,.28.01.41.04,3,.53,5.19,2.29,6.03,4.85.75,2.28.21,4.75-1.4,6.45-.7.74-1.54,1.27-2.51,1.6-.74.25-1.16,1.01-1.01,1.81l.03.16,8.19,7.86c.13.13.21.3.21.48,0,.17-.06.32-.17.44l-7.3,7.62-.1.07-.07.07c-.14.15-.3.18-.42.18-.25,0-.57-.17-.67-.54-.79-3.04-3.31-5.26-6.73-5.94-.25-.02-.43-.03-.62-.03-.53,0-1.05.05-1.56.16-1.55.42-2.82,1.15-3.82,2.16-.98,1.06-1.65,2.36-1.99,3.89-.12.72-.14,1.44-.06,2.15.84,3.46,3.17,5.87,6.24,6.52.31.07.49.3.55.49.04.12.07.36-.13.58l-.09.11-.1.14-7.23,7.58c-.12.12-.28.19-.45.19Z"/>
    <path d="m34.58,20.43s.07,0,.12.05l8.03,7.7.26.25.36.02s.1,0,.15,0c.95,0,1.76-.6,2.02-1.5.65-2.24,2.54-3.82,5.21-4.34.11-.02.23-.03.35-.03.11,0,.22,0,.33.03,2.81.49,4.86,2.14,5.64,4.51.69,2.11.2,4.38-1.29,5.94-.65.68-1.42,1.17-2.31,1.47-.98.33-1.54,1.33-1.34,2.38l.06.32.23.22,8.08,7.75c.05.05.06.1.06.13,0,.05-.02.07-.03.08l-7.25,7.56-.07.06-.06.05-.05.06-.04.04s-.04.03-.05.03c-.04,0-.15-.03-.19-.17-.84-3.23-3.5-5.58-7.12-6.3h-.06s-.06-.02-.06-.02c-.2-.01-.4-.02-.6-.02-.56,0-1.12.06-1.66.17h-.03s-.03.01-.03.01c-1.6.44-2.95,1.21-4.03,2.31-1.03,1.11-1.74,2.5-2.1,4.12v.03s0,.03,0,.03c-.13.74-.14,1.51-.05,2.27v.06s.02.06.02.06c.88,3.59,3.35,6.14,6.61,6.83.13.03.17.12.17.15.02.05,0,.07-.01.08l-.04.05-.06.06-.05.07-.05.07-7.22,7.58s-.05.03-.09.03c-.03,0-.08,0-.13-.05l-8.1-7.72-.23-.22-.32-.04c-.1-.01-.21-.02-.31-.02-.94,0-1.75.59-2.01,1.47-.26.9-.72,1.7-1.37,2.37-1.1,1.15-2.6,1.78-4.22,1.78-2.38,0-5.48-1.48-6.42-5.66-.05-.23-.06-.46-.02-.69.39-2.68,1.89-4.65,4.1-5.39.94-.32,1.52-1.24,1.39-2.24l-.04-.35-.26-.25-8.05-7.68c-.07-.07-.07-.16-.03-.21l.04-.05.03-.05.15-.23,6.88-7.17.06-.06.05-.07c.38-.56.46-1.28.23-1.93-.23-.64-.73-1.12-1.38-1.32-.94-.29-1.79-.78-2.52-1.47-1.24-1.18-1.93-2.75-1.95-4.43-.02-1.6.59-3.09,1.73-4.24,1.11-1.22,2.65-1.89,4.33-1.89s3.13.62,4.31,1.75c.72.69,1.25,1.51,1.58,2.45.3.85,1.11,1.42,2.02,1.42.46,0,.9-.14,1.27-.42l.07-.05.06-.06,6.86-7.2.23-.16.06-.04.05-.05s.05-.03.08-.03m0-1c-.28,0-.56.1-.78.31l-.3.22-6.92,7.27c-.2.15-.44.22-.68.22-.46,0-.91-.27-1.08-.75-.36-1.04-.98-2.02-1.83-2.84-1.41-1.35-3.22-2.03-5-2.03-1.87,0-3.72.74-5.07,2.22-2.77,2.76-2.64,7.31.26,10.07.86.82,1.86,1.38,2.92,1.7.75.23,1.02,1.12.61,1.74l-6.95,7.24-.2.31c-.39.46-.36,1.16.09,1.59l8.05,7.67c.06.49-.2,1-.72,1.17-2.32.79-4.27,2.84-4.76,6.2-.05.34-.04.7.04,1.05.96,4.3,4.21,6.45,7.39,6.45,1.81,0,3.61-.7,4.94-2.09.78-.81,1.31-1.77,1.61-2.79.14-.49.58-.75,1.05-.75.06,0,.11,0,.17.01l8.1,7.72c.23.22.53.33.82.33s.59-.12.81-.34l7.27-7.63.1-.14.04-.05c.62-.65.23-1.71-.67-1.9-2.6-.55-4.99-2.57-5.85-6.09-.08-.66-.06-1.33.05-1.98.34-1.51,1-2.73,1.86-3.65.88-.9,2.07-1.61,3.56-2.02.48-.1.97-.15,1.46-.15.18,0,.35,0,.53.02,3.55.7,5.68,3,6.35,5.57.15.57.65.92,1.15.92.28,0,.56-.11.78-.34l.04-.05.13-.1,7.3-7.61c.43-.45.41-1.18-.06-1.63l-8.08-7.75c-.1-.52.14-1.06.68-1.25,1-.34,1.93-.91,2.71-1.73,3.66-3.84,1.91-10.93-4.91-12.13-.16-.03-.33-.04-.5-.04-.18,0-.37.02-.55.05-3.33.64-5.29,2.68-5.97,5.04-.14.5-.59.78-1.06.78-.03,0-.05,0-.08,0l-8.03-7.7c-.23-.22-.52-.33-.81-.33h0Z"/>
  </g>
  <g>
    <path class="cls-2" d="m35.67,115.44c-.35,0-.63-.3-.63-.67l-.05-11.35-.09-.13c-.31-.43-.8-.69-1.31-.69-.25,0-.48.06-.71.18-.91.47-1.88.71-2.89.71-2.34,0-4.5-1.31-5.63-3.43-1.27-2.37-1.03-5.18.65-7.71.16-.24.37-.46.6-.62,1.42-1.01,2.89-1.52,4.38-1.52,1.01,0,1.97.24,2.87.7.23.12.47.18.72.18.48,0,.93-.22,1.24-.6l.11-.14-.04-11.3c0-.35.27-.65.6-.66l.44-.08h9.94c.6-.09,1.04-.43,1.28-.9.23-.47.23-1,0-1.46-.48-.95-.73-1.98-.73-3.05,0-1.82.68-3.52,1.95-4.78,1.21-1.21,2.8-1.88,4.49-1.88h.33c3.54,0,6.43,2.97,6.43,6.63,0,1.09-.25,2.12-.72,3.06-.23.46-.23,1,0,1.46.24.47.69.81,1.2.9l10.12-.04.27.06c.23.01.41.1.52.25-.04.16-.06.33-.06.49l.02,12.09,1.08-.22c.16.05.33.08.5.08.25,0,.48-.06.7-.18l.06-.02c.29,0,.59.03.88.07h.08s.17.01.17.01c.48-.09.8-.15,1.1-.15,2.92,0,5.41,2.28,5.79,5.28.03.26.06.52.06.79,0,1.12-.31,2.27-.92,3.41-.16.29-.29.54-.45.78-.12.18-.28.34-.45.46-1.29.92-2.63,1.38-3.99,1.38-.33,0-.66-.03-.98-.08h-.08s-.17-.02-.17-.02c0,0-.57.1-.67.11-.13-.05-.25-.1-.36-.17-.22-.12-.46-.17-.7-.17s-.47.06-.69.16l-.92-.18.02,12.27c0,.11,0,.22.03.35-.12.16-.29.25-.48.25h-10.55s-.13-.01-.13-.01h-.1c-.3,0-.45-.19-.51-.3-.1-.18-.14-.46.03-.73,1.64-2.67,1.5-6.02-.39-8.96-.49-.59-1.01-1.08-1.6-1.48-1.37-.82-2.78-1.24-4.21-1.26-1.43.02-2.83.45-4.18,1.26-.62.43-1.14.91-1.59,1.46-1.91,2.99-2.03,6.34-.38,9.01.17.27.12.56.03.74-.06.11-.21.3-.51.3h-.13s-.17.03-.17.03l-10.48.04Z"/>
    <path d="m53.16,66.72c3.27,0,5.93,2.75,5.93,6.13,0,1.01-.23,1.97-.67,2.84-.3.6-.3,1.3,0,1.91.31.61.89,1.05,1.56,1.16l.09.02h.09s9.94-.05,9.94-.05l.27.05h.06c0,.09-.01.17-.01.25l.02,11.49v1.22s1.19-.24,1.19-.24l.37-.07c.17.04.35.07.52.07.3,0,.59-.07.87-.2.24,0,.47.03.71.07h.09s.15.03.15.03l.15-.03.11-.02c.34-.06.65-.12.91-.12,2.67,0,4.95,2.09,5.3,4.85.04.27.05.5.05.72,0,1.04-.29,2.11-.86,3.18l-.02.05c-.13.24-.25.47-.39.69-.09.13-.2.25-.33.34-1.2.85-2.45,1.28-3.69,1.29-.3,0-.61-.03-.87-.07l-.09-.02-.18-.04-.18.03-.09.02-.27.05c-.06.01-.12.02-.17.03-.07-.03-.13-.06-.2-.1-.29-.15-.6-.23-.92-.23-.25,0-.51.05-.75.14l-.16-.03-1.2-.24v1.22s.02,11.66.02,11.66c0,.03,0,.07,0,.1h-10.43s-.09,0-.09,0h-.07s-.07,0-.07,0h-.07s-.05,0-.07-.05c-.01-.03-.05-.12.02-.23,1.75-2.84,1.6-6.39-.4-9.49l-.03-.05-.04-.05c-.48-.58-1.04-1.1-1.67-1.53l-.02-.02-.03-.02c-1.42-.85-2.92-1.29-4.46-1.31-1.51.02-2.99.47-4.42,1.33l-.03.02-.03.02c-.63.44-1.19.95-1.67,1.54l-.04.05-.03.05c-1.98,3.11-2.11,6.66-.34,9.5.07.11.03.21.01.23-.03.05-.05.05-.07.05h-.21s-.1.02-.1.02l-10.47.05c-.07,0-.13-.08-.13-.17l-.04-11.19v-.32s-.19-.26-.19-.26c-.41-.56-1.05-.89-1.71-.89-.33,0-.64.08-.94.23-.83.44-1.73.66-2.67.66-2.15,0-4.14-1.21-5.19-3.16-1.18-2.2-.95-4.82.62-7.2.13-.19.3-.37.48-.5,1.33-.95,2.7-1.43,4.09-1.43.93,0,1.81.22,2.64.65.3.15.62.23.95.23.63,0,1.22-.29,1.63-.78l.23-.28v-.36s-.05-11.13-.05-11.13c0-.09.06-.16.12-.16h.07s.07-.02.07-.02l.27-.05h9.94s.09,0,.09,0l.09-.02c.67-.12,1.25-.56,1.55-1.17.3-.61.3-1.31,0-1.91-.45-.88-.68-1.84-.68-2.83,0-1.68.63-3.26,1.8-4.43,1.11-1.12,2.58-1.73,4.13-1.73h.17s.16,0,.16,0m0-1c-.06,0-.12,0-.18,0-.05,0-.1,0-.15,0-3.84,0-6.95,3.21-6.93,7.17,0,1.18.29,2.3.79,3.28.36.7-.1,1.51-.83,1.64h-10.03s-.37.08-.37.08c-.6.03-1.08.54-1.08,1.16l.04,11.12c-.21.26-.52.42-.86.42-.16,0-.33-.04-.49-.12-.93-.48-1.98-.76-3.1-.76-1.49,0-3.09.49-4.67,1.61-.28.2-.54.46-.73.75-3.83,5.77.09,11.92,5.4,11.92h0c1.12,0,2.18-.28,3.12-.77.16-.08.32-.12.47-.12.35,0,.69.19.9.48l.04,11.19c0,.64.51,1.16,1.13,1.16h0l10.54-.05.17-.02h.06c.9,0,1.39-1.02.91-1.8-1.4-2.26-1.6-5.38.34-8.43.42-.52.92-.97,1.46-1.35,1.33-.8,2.66-1.17,3.92-1.19,1.26.01,2.6.37,3.93,1.17.55.38,1.04.82,1.47,1.34,1.96,3.05,1.78,6.17.39,8.43-.48.78.01,1.8.91,1.8h.07l.16.02h10.55c.45,0,.83-.28,1.01-.67-.03-.14-.06-.29-.06-.44l-.02-11.66.5.1c.18-.12.39-.19.6-.19.15,0,.31.04.46.11.17.09.35.16.53.24.21-.02.44-.07.73-.12l.09-.02.09.02c.35.05.7.09,1.06.09,1.35,0,2.8-.42,4.28-1.47.23-.16.43-.37.59-.6.18-.27.32-.55.47-.82.67-1.25.98-2.49.98-3.65,0-.29-.02-.57-.06-.85-.4-3.23-3.07-5.71-6.29-5.72-.34,0-.69.06-1.09.14l-.09.02h-.09c-.36-.06-.71-.09-1.05-.09l-.19.09c-.15.08-.31.12-.47.12s-.31-.04-.45-.1l-.63.12-.02-11.49c0-.2.04-.38.1-.56-.18-.38-.54-.65-.97-.67l-.36-.07-10.04.05c-.73-.13-1.19-.94-.84-1.64.5-.98.78-2.1.78-3.29,0-3.94-3.11-7.13-6.93-7.13h0Z"/>
  </g>
  <g>
    <path class="cls-2" d="m72.52,65.95l-.09-.13c-.31-.43-.8-.69-1.31-.69-.24,0-.48.06-.7.17-.9.48-1.88.72-2.89.72h0c-2.34,0-4.5-1.31-5.63-3.43-1.27-2.37-1.03-5.18.65-7.71.16-.24.37-.46.6-.62,1.42-1.01,2.89-1.52,4.38-1.52,1.01,0,1.97.24,2.87.7.23.12.47.18.72.18.48,0,.93-.22,1.24-.6l.11-.14-.05-11.3c0-.36.26-.65.6-.66l.44-.08h9.94c.6-.1,1.05-.43,1.28-.91.23-.47.23-1,0-1.46-.48-.95-.73-1.97-.74-3.06,0-1.82.68-3.51,1.94-4.78,1.21-1.21,2.8-1.88,4.49-1.88h.33c3.54,0,6.43,2.97,6.43,6.63,0,1.08-.24,2.11-.72,3.06-.23.46-.23,1,0,1.47.24.47.68.8,1.2.89l10.12-.04.27.06c.41.02.67.31.67.67v11.3s.13.14.13.14c.31.38.76.59,1.24.59.25,0,.5-.06.73-.18.9-.47,1.88-.71,2.9-.71,1.48,0,2.95.5,4.35,1.5.23.16.44.38.61.62,1.69,2.52,1.94,5.33.68,7.7-1.13,2.12-3.28,3.45-5.62,3.45-1.04,0-2-.24-2.89-.7-.22-.12-.46-.17-.7-.17-.51,0-1,.26-1.31.7l-.09.13v11c-.13-.04-.28-.06-.43-.07-.15-.04-.29-.07-.45-.07l-9.86.02v-.19c.55-1.12.84-2.35.85-3.62,0-.78-.11-1.52-.36-2.38-1.02-3.52-4.09-5.89-7.65-5.89h-.32c-3.51,0-6.66,2.42-7.66,5.89-.24.86-.36,1.59-.36,2.32,0,1.3.29,2.54.86,3.7l.03.11-9.9.04c-.18,0-.33.04-.45.07h0c-.15,0-.3.04-.45.08l-.03-10.91Z"/>
    <path d="m90.7,29.26c3.27,0,5.93,2.75,5.93,6.13,0,1.01-.23,1.96-.67,2.84-.31.61-.3,1.3,0,1.91.31.61.89,1.04,1.56,1.16h.08s.09.01.09.01l9.94-.04.27.05h.07s.07.02.07.02c.06,0,.13.07.13.16v11.12s.01.36.01.36l.23.28c.41.49,1,.77,1.62.77.34,0,.66-.08.96-.24.83-.44,1.73-.66,2.67-.66,1.38,0,2.74.47,4.07,1.41.18.12.35.3.48.49,1.59,2.37,1.83,4.99.66,7.19-1.04,1.96-3.02,3.18-5.21,3.19-.92,0-1.81-.22-2.63-.65-.29-.15-.6-.23-.93-.23-.67,0-1.32.34-1.72.91l-.18.26v10.55c-.1-.02-.23-.04-.38-.04l-9.17.02c.31-.76.52-1.55.61-2.36h.06v-1c0-.77-.12-1.55-.38-2.45-1.08-3.74-4.34-6.25-8.14-6.25h-.15s-.17,0-.17,0c-3.72,0-7.07,2.57-8.13,6.25-.26.9-.38,1.68-.38,2.47,0,1.16.22,2.28.66,3.35l-9.17-.02c-.15,0-.28.02-.39.04l-.04-10.15v-.32s-.19-.26-.19-.26c-.41-.56-1.05-.89-1.71-.89-.33,0-.64.08-.94.23-.83.44-1.73.66-2.66.66-2.15,0-4.14-1.21-5.19-3.16-1.18-2.2-.95-4.82.62-7.19.13-.2.3-.37.48-.5,1.33-.95,2.7-1.43,4.09-1.43.93,0,1.81.22,2.64.65.3.15.62.23.95.23.63,0,1.22-.29,1.63-.78l.23-.28v-.36s-.05-11.12-.05-11.12c0-.1.07-.16.13-.16h.07s.07-.02.07-.02l.27-.05h9.94s.09,0,.09,0l.09-.02c.67-.12,1.25-.55,1.56-1.17.3-.61.3-1.31,0-1.91-.45-.88-.68-1.83-.68-2.83,0-1.68.63-3.25,1.8-4.43,1.11-1.12,2.58-1.74,4.14-1.74h.17s.16,0,.16,0m0-1c-.06,0-.12,0-.18,0-.05,0-.1,0-.14,0-3.84,0-6.95,3.21-6.94,7.17,0,1.18.29,2.3.79,3.28.36.7-.1,1.51-.83,1.64h-10.03s-.36.08-.36.08c-.6.03-1.08.54-1.08,1.16l.05,11.12c-.21.26-.53.42-.86.42-.16,0-.33-.04-.49-.12-.93-.48-1.99-.76-3.1-.76-1.49,0-3.09.49-4.67,1.61-.28.2-.53.46-.73.75-3.83,5.77.09,11.92,5.4,11.92h0c1.13,0,2.18-.28,3.12-.77.16-.08.32-.12.47-.12.35,0,.69.19.9.48l.05,11.19.06.31c.26-.2.58-.32.93-.34h0c.12-.03.24-.07.39-.07l9.96.02c.25-.05.46-.31.46-.56l-.06-.24v-.02s-.03-.06-.03-.06c-.51-1.04-.81-2.21-.81-3.46v-.02c0-.78.14-1.5.34-2.18.92-3.17,3.75-5.53,7.17-5.53h.15s.18,0,.18,0c3.42,0,6.25,2.35,7.17,5.53.19.68.34,1.4.34,2.18v.02h0v.04h0c0,1.23-.3,2.39-.81,3.41v.03s-.03.03-.03.03v.03s-.07.24-.07.24c0,.25.2.51.45.56l9.96-.02c.14,0,.27.04.39.07h0c.35.01.67.13.93.32.04-.13.08-.26.08-.4v-11.19c.2-.3.54-.49.9-.49.16,0,.31.04.47.12.93.48,1.98.76,3.09.76h.04c5.31-.02,9.2-6.19,5.35-11.94-.2-.29-.45-.55-.73-.75-1.57-1.11-3.16-1.59-4.64-1.59-1.13,0-2.19.28-3.13.77-.16.09-.33.13-.49.13-.33,0-.64-.16-.85-.41v-11.12c0-.63-.49-1.14-1.1-1.16l-.36-.07-10.04.04c-.73-.12-1.19-.94-.84-1.63.5-.98.78-2.1.78-3.29,0-3.94-3.11-7.13-6.93-7.13h0Z"/>
  </g>
  <g>
    <path class="cls-2" d="m97.23,114.48c.79-1.3,1.2-2.79,1.2-4.32,0-1.76-.55-3.56-1.61-5.2l-.06-.09c-.49-.6-1.06-1.12-1.7-1.56-1.48-.89-2.98-1.34-4.51-1.37-1.57.03-3.07.48-4.49,1.34l-.07.03v.03c-.62.42-1.19.94-1.67,1.53l-.08.1c-1.05,1.65-1.61,3.45-1.6,5.2,0,1.53.42,3.03,1.2,4.32l.04.16-.11.06h-.04l-.19.03h-10.44s-.06-.01-.06-.08l-.02-9.72c.08,0,.16,0,.24,0,.38,0,.69-.06.94-.11l.14-.03c.42.06.77.09,1.11.09,1.71,0,3.45-.57,5.05-1.66l.16-.1c.43-.31.76-.65,1.03-1.05.6-.9,1.05-1.86,1.35-2.86.09-.3.15-.6.21-.9.11-.6.17-1.13.17-1.63,0-2.37-1.01-4.63-2.76-6.2-1.33-1.19-2.99-1.89-4.74-2v-.02h-.99s0,.03,0,.03c-.26.03-.5.07-.72.11-.39-.04-.78-.07-1.14-.08h-.07v-9.6s.02,0,.02,0l.09-.09h.08s.26-.07.26-.07l10.03.03.09-.02c.99-.18,1.72-.98,1.81-2l.02-.11c0-.11,0-.21-.01-.31h.09l-.29-.74-.05-.1c-.41-.83-.63-1.77-.63-2.73,0-.54.09-1.08.27-1.74.75-2.59,3-4.33,5.58-4.33h.34c1.17,0,2.32.38,3.31,1.1,1.09.79,1.89,1.94,2.26,3.24.09.3.16.62.21.99.04.24.07.48.07.73,0,.98-.22,1.91-.66,2.79l-.07.16c-.04.09-.07.18-.1.28v.02c-.06.19-.08.38-.08.57l.04.23c.08.97.81,1.78,1.81,1.96l.14.02,10.08-.02.08.03.16.04c.1,0,.14.03.14.09l-.02,11.5.24.3c.43.51,1.04.8,1.68.8.35,0,.7-.09,1-.25.82-.42,1.7-.64,2.61-.64,1.37,0,2.72.47,4.03,1.4.18.13.34.29.46.47.91,1.36,1.37,2.77,1.37,4.19,0,3.34-2.62,6.06-5.84,6.07-.93,0-1.81-.22-2.63-.64-.3-.16-.64-.24-.97-.24-.69,0-1.36.35-1.78.93l-.2.28-.02,11.54c0,.07-.04.09-.06.09l-10.5-.02-.13-.02h-.08l-.1.07.08-.28Z"/>
    <path d="m90.34,67.22h.17s.04,0,.04,0h.01s.14,0,.14,0c1.07,0,2.11.35,3.01,1,1,.73,1.74,1.78,2.08,2.98.08.28.15.58.2.92.03.21.06.43.06.67,0,.88-.2,1.74-.59,2.52l-.04.07-.03.09-.33.8.1.06c0,.08-.01.16-.01.24v.1l.02.09.02.09c.13,1.21,1.04,2.19,2.26,2.41l.09.02h.09s9.96-.02,9.96-.02l-.02,10.98v.36s.22.28.22.28l.14.17c.52.62,1.27.98,2.06.98.43,0,.86-.11,1.22-.3.75-.39,1.55-.59,2.39-.59,1.26,0,2.52.44,3.75,1.31.13.09.25.21.33.34.85,1.27,1.28,2.59,1.28,3.91,0,3.06-2.4,5.56-5.35,5.57-.84,0-1.64-.2-2.39-.59-.37-.19-.79-.3-1.2-.3-.85,0-1.67.43-2.18,1.14l-.11.15-.19.26v.32s-.02,10.97-.02,10.97l-9.58-.02c.65-1.25.98-2.64.98-4.06,0-1.86-.58-3.75-1.68-5.47l-.02-.04h0s-.05-.07-.05-.07l-.03-.04c-.52-.63-1.12-1.18-1.8-1.64l-.04-.03-.04-.02c-1.51-.91-3.09-1.38-4.71-1.41h-.04s-.02,0-.02,0c-1.61.03-3.18.49-4.67,1.39l-.08.04-.07.06c-.66.46-1.25,1-1.76,1.62l-.03.04h0s-.03.05-.03.05h0s-.02.04-.02.04l-.02.03c-1.1,1.73-1.68,3.62-1.68,5.47,0,1.42.34,2.81.98,4.06l-9.58.02-.02-8.82c.31-.02.57-.07.78-.11.02,0,.03,0,.05,0,.41.06.76.08,1.1.08,1.8,0,3.65-.6,5.29-1.72l.18-.11.03-.02.03-.02c.44-.32.82-.71,1.12-1.16.63-.94,1.1-1.95,1.41-3,.08-.28.15-.58.22-.94.12-.63.18-1.19.18-1.72,0-2.52-1.07-4.91-2.93-6.57-1.29-1.15-2.89-1.88-4.57-2.08v-.06h-1.99s0,.09,0,.09c-.09.01-.17.03-.26.04-.24-.03-.46-.05-.67-.06v-8.77s9.94.02,9.94.02h.14s.09-.03.09-.03c1.19-.22,2.08-1.18,2.22-2.39h0s.33-.01.33-.01l-.46-1.17s-.03-.07-.04-.11l-.03-.08-.02-.06-.06-.14-.02-.03c-.38-.78-.57-1.62-.57-2.49,0-.47.08-.98.25-1.58.69-2.38,2.74-3.98,5.08-3.98m.35-1h-.15s-.02,0-.02,0h-.16c-2.87,0-5.27,1.98-6.06,4.7-.18.61-.29,1.23-.29,1.86v.02c0,1.08.26,2.09.71,2.99v.02s.04.06.04.06h0c.11.23.17.48.17.72l-.03.15c-.07.76-.62,1.41-1.41,1.55h-.05s-10.08,0-10.08,0l-.17.03-.08.03h-.09s-.04.01-.04.01c-.27.03-.49.26-.49.58v10.13c.2-.02.39-.03.57-.03.38,0,.76.04,1.13.08.37-.06.77-.14,1.23-.14v.56-.56c1.88,0,3.59.72,4.9,1.89,1.59,1.42,2.59,3.5,2.59,5.82,0,.5-.06,1.02-.16,1.53-.05.28-.12.56-.2.85-.27.91-.68,1.83-1.28,2.73-.24.35-.54.66-.87.9l-.18.11c-1.6,1.08-3.23,1.57-4.77,1.57-.38,0-.76-.04-1.12-.09-.29.05-.63.14-1.06.15h0c-.26,0-.5-.02-.74-.05l.02,10.27c0,.34.26.59.56.59l10.51-.02.13-.02h.04s.1,0,.1,0c.17,0,.28-.06.37-.16.09-.1.15-.25.15-.41l-.1-.35c-.74-1.19-1.16-2.61-1.16-4.12,0-1.59.47-3.29,1.52-4.93l.02-.03.02-.03c.46-.56.99-1.05,1.59-1.45h.02s.01-.02.01-.02c1.41-.85,2.85-1.24,4.21-1.27h.02c1.36.02,2.8.42,4.21,1.27h.01s.01.02.01.02c.59.41,1.13.89,1.59,1.45l.02.02.02.03c1.05,1.65,1.53,3.34,1.53,4.93s-.43,2.93-1.16,4.12l-.1.35c0,.16.06.31.15.41.1.1.2.16.37.16h.1l.17.02,10.5.02c.3,0,.56-.25.56-.59l.02-11.38.11-.15c.31-.43.81-.72,1.37-.72.25,0,.5.06.74.18.86.45,1.82.7,2.85.7h.01c3.49,0,6.34-2.93,6.34-6.57,0-1.41-.43-2.94-1.45-4.47-.15-.23-.36-.44-.59-.6-1.49-1.06-2.97-1.5-4.32-1.5-1.03,0-1.99.25-2.85.7-.24.13-.51.19-.76.19-.51,0-.98-.24-1.29-.62l-.13-.16.02-11.33c0-.33-.25-.58-.53-.59h-.09s-.08-.03-.08-.03l-.09-.02-.08-.02-10.08.02h-.05c-.79-.15-1.34-.81-1.41-1.57l-.03-.14c0-.24.06-.48.16-.71h0s.01-.04.01-.04v-.03s.02-.02.02-.02c.45-.9.71-1.91.71-2.99v-.02h0c0-.27-.03-.54-.07-.8-.05-.35-.12-.7-.23-1.05-.42-1.44-1.3-2.66-2.45-3.5-1.02-.75-2.26-1.2-3.61-1.2h0Z"/>
  </g>
  <rect class="cls-3" x="-519.48" y="-421.07" width="1496.63" height="1236.8"/>
</svg>