<?xml version="1.0" encoding="UTF-8"?>
<svg id="Calque_1" data-name="Calque 1" xmlns="http://www.w3.org/2000/svg" viewBox="0 0 128 128">
  <defs>
    <style>
      .cls-1 {
        fill: #fce9b9;
        stroke-width: 2px;
      }

      .cls-1, .cls-2, .cls-3 {
        stroke: #000;
        stroke-miterlimit: 10;
      }

      .cls-2 {
        fill: #f3d587;
      }

      .cls-4 {
        stroke: #fff;
        stroke-linecap: round;
        stroke-linejoin: round;
        stroke-width: 8px;
      }

      .cls-4, .cls-3 {
        fill: none;
      }
    </style>
  </defs>
  <path class="cls-1" d="m80.92,8.93c-.64-.24-1.34-.1-1.84.35-2.03,1.85-7.49,6.31-12.7,6.31-6.57,0-10.59-4.96-13.19-7.09-2.6-2.13-19.1,5.22-22.17,8.76-3.07,3.55-11.35,24.82-11.82,26.48s-4.26,11.82,0,13.24c4.26,1.42,8.75,1.42,10.4,1.42s3.67-4.63,4.73-8.51c.9-3.29,5.62-9.95,6.33-11.13s-1.65,20.1,0,32.62c1.65,12.53,3.64,24.9,5.29,30.54,3.42,11.7,2.4,17.94,7.27,17.94,10.19,0,9.45-4.3,7.68-17-1.65-11.85-.55-16.39,5.48-17.05,8.16-.9,6.43,17.73,5.96,21.51s-.92,10.71,2.13,11.11c10.95,1.43,9.93-3.55,14.42-18.91,4.49-15.37,5.44-18.44,3.78-30.97s-2.36-21.75-1.42-26.48,6.17,13.16,7.33,14.95c1.51,2.32,8.51,1.18,11.35.47,2.84-.71,3.58-1.8,3.69-4.27.17-3.93-1.56-7.55-1.8-8.97s-6.15-17.49-8.04-20.8c-1.89-3.31-8.51-11.4-15.13-12.58-4.15-.74-6.53-1.48-7.73-1.93Z"/>
  <path class="cls-3" d="m46.35,9.22s7.82,12.19,16.87,12.24c11.02.05,12.5-2.41,15.13-4.71,2.63-2.3,4.5-6.82,4.5-6.82"/>
  <path class="cls-2" d="m96.98,52.67s6.48-1.02,8.34-1.02h7.92s.34,3.28-.67,4.12-5.03,2.03-8.66,2.18c-3.63.14-4.18-.25-4.85-1.05s-2.09-4.22-2.09-4.22Z"/>
  <path class="cls-2" d="m32.39,54.23s-3.59-1.69-6.94-2.18c-3.34-.5-7.87-1.13-7.87-1.13,0,0-.42,4.05.46,4.72s3.14,1.88,6.57,2.05c3.43.17,4.73.75,5.48.17s2.31-3.62,2.31-3.62Z"/>
  <path class="cls-2" d="m50.89,46.59s7.2.85,13.11.85,15.25-.85,15.25-.85c0,0,2.55,23.09-14.18,23.6-16.72.51-14.18-23.6-14.18-23.6Z"/>
  <rect class="cls-4" x="-5412.15" y="-5566.62" width="6467.34" height="6437.3"/>
</svg>