<?xml version="1.0" encoding="UTF-8"?><svg id="Calque_1" xmlns="http://www.w3.org/2000/svg" viewBox="0 0 128 128"><defs><style>.cls-1,.cls-2{stroke-linecap:round;stroke-linejoin:round;}.cls-1,.cls-3,.cls-4,.cls-5{stroke:#000;}.cls-1,.cls-6{fill:#87f3b9;}.cls-7,.cls-4{fill:#fff;}.cls-2{stroke:#e30613;stroke-width:8px;}.cls-2,.cls-5{fill:none;}.cls-3,.cls-4,.cls-8,.cls-5{stroke-miterlimit:10;}.cls-9{fill:#bfe6fc;}.cls-8{fill:#cfb999;stroke:#fff;}.cls-8,.cls-5{stroke-width:.5px;}</style></defs><rect class="cls-2" x="-1586.55" y="-260.57" width="2655.08" height="1511.77"/><circle class="cls-4" cx="99" cy="65.78" r="18.76"/><path class="cls-3" d="m91.15,58.4c.74-1.66,2.13-2.84,4.18-3.55,1.89-.66,3.6-.65,5.11.02,1.51.67,2.56,1.84,3.13,3.5.35,1.01.43,1.89.23,2.66-.19.77-.72,1.99-1.58,3.65-.62,1.21-.97,2.17-1.04,2.88-.04.46.01,1.03.18,1.7s-.21,1.35-.86,1.58h0c-.75.26-1.56-.18-1.75-.95-.18-.76-.26-1.44-.24-2.03.03-.94.42-2.14,1.16-3.61l.77-1.53c.24-.44.4-.88.5-1.31.18-.75.15-1.46-.08-2.13-.32-.93-.89-1.64-1.69-2.12-.8-.49-1.86-.5-3.17-.05-1.62.56-2.53,1.54-2.74,2.93-.08.53-.05,1.17.1,1.93.13.65-.25,1.3-.88,1.52h0c-.78.27-1.63-.22-1.77-1.03-.26-1.46-.11-2.81.44-4.05Zm10.41,15.37h0c.78-.27,1.64.14,1.91.92l.04.13c.27.78-.14,1.64-.92,1.91h0c-.78.27-1.64-.14-1.91-.92l-.04-.13c-.27-.78.14-1.64.92-1.91Z"/><path class="cls-3" d="m62.57,6.29H22.3c-4.08,0-7.4,3.32-7.4,7.4v101.79c0,4.08,3.32,7.39,7.4,7.39h40.27c4.08,0,7.4-3.31,7.4-7.39V13.69c0-4.08-3.32-7.4-7.4-7.4Zm7.12,109.19c0,3.92-3.19,7.11-7.12,7.11H22.3c-3.92,0-7.11-3.19-7.11-7.11V13.69c0-3.92,3.19-7.12,7.11-7.12h40.27c3.93,0,7.12,3.2,7.12,7.12v101.79Z"/><path class="cls-3" d="m69.69,13.69v101.79c0,3.92-3.19,7.11-7.12,7.11H22.3c-3.92,0-7.11-3.19-7.11-7.11V13.69c0-3.92,3.19-7.12,7.11-7.12h40.27c3.93,0,7.12,3.2,7.12,7.12Z"/><path class="cls-9" d="m67.92,14.52v100.12c0,3.47-2.81,6.28-6.28,6.28H23.24c-.29,0-.58-.02-.86-.06-3.07-.42-5.43-3.04-5.43-6.22V14.52c0-3.47,2.81-6.28,6.28-6.28h1.12c3.45,0,6.91.06,10.36,0,0,.02-.02.06-.01.1.94-.15,2.41.26,3.09.94,1.08,1.08,2.35,2.57,4.01,2.74,1.73.18,3.1-1.22,4.23-2.33,1.26-1.25,2.95-1.44,4.66-1.44h10.94c3.47,0,6.28,2.81,6.28,6.28Z"/><circle class="cls-8" cx="42.11" cy="9.61" r="1.11"/><path class="cls-3" d="m69.81,39.89h0v-14.47h0c.55,0,.99.44.99.99v12.49c0,.55-.44.99-.99.99Z"/><path class="cls-3" d="m69.81,52.36h0v-7.22h0c.55,0,.99.44.99.99v5.24c0,.55-.44.99-.99.99Z"/><rect class="cls-6" x="57.96" y="10.58" width="3.74" height="2.63"/><rect class="cls-7" x="61.7" y="10.58" width="1.05" height="2.63"/><rect x="62.75" y="11.32" width=".68" height="1.16"/><rect x="20.29" y="11.4" width=".88" height="1.51"/><rect x="21.67" y="10.87" width=".88" height="2.04"/><rect x="23.05" y="10.24" width=".88" height="2.66"/><rect class="cls-5" x="57.96" y="10.58" width="4.8" height="2.63"/><circle class="cls-4" cx="26.77" cy="63.16" r="4.79" transform="translate(-13.34 7.51) rotate(-12.82)"/><circle class="cls-4" cx="42.37" cy="63.16" r="4.79" transform="translate(-32.25 48.46) rotate(-45)"/><circle class="cls-4" cx="58.14" cy="63.16" r="4.79" transform="translate(-13.02 15.14) rotate(-13.36)"/><path d="m25.45,62.1v-.49c.46-.04.78-.12.97-.23s.32-.35.41-.75h.5v5.06h-.68v-3.6h-1.2Z"/><path d="m40.88,64.57c.16-.32.46-.62.92-.88l.68-.39c.31-.18.52-.33.64-.45.19-.2.29-.42.29-.67,0-.3-.09-.53-.27-.7s-.41-.26-.71-.26c-.44,0-.74.17-.91.5-.09.18-.14.42-.15.74h-.65c0-.44.09-.8.24-1.08.28-.49.77-.74,1.47-.74.58,0,1.01.16,1.28.47s.4.66.4,1.05c0,.41-.14.75-.43,1.04-.17.17-.46.37-.89.61l-.49.27c-.23.13-.41.25-.55.37-.24.21-.39.43-.45.69h2.78v.6h-3.49c.02-.44.11-.82.27-1.14Z"/><path d="m56.77,65.28c-.27-.33-.41-.73-.41-1.21h.67c.03.33.09.57.18.72.17.27.46.4.9.4.34,0,.61-.09.81-.27s.31-.41.31-.7c0-.35-.11-.6-.32-.73s-.51-.21-.89-.21c-.04,0-.09,0-.13,0s-.09,0-.13,0v-.56c.07,0,.12.01.17.01s.09,0,.15,0c.24,0,.44-.04.59-.11.27-.13.4-.37.4-.71,0-.25-.09-.45-.27-.59s-.39-.21-.63-.21c-.43,0-.72.14-.88.43-.09.16-.14.38-.15.67h-.63c0-.38.08-.7.23-.97.26-.47.72-.71,1.37-.71.52,0,.92.12,1.2.35s.43.56.43,1c0,.31-.08.57-.25.76-.1.12-.24.22-.4.28.27.07.48.21.63.42s.23.47.23.77c0,.49-.16.88-.48,1.19s-.77.46-1.36.46-1.04-.17-1.31-.5Z"/><circle class="cls-4" cx="26.77" cy="79.29" r="4.79" transform="translate(-16.92 7.91) rotate(-12.82)"/><circle class="cls-4" cx="42.37" cy="79.29" r="4.79" transform="translate(-43.66 53.18) rotate(-45)"/><circle class="cls-4" cx="58.14" cy="79.29" r="4.79" transform="translate(-16.75 15.58) rotate(-13.36)"/><path d="m26.81,81.47v-1.24h-2.23v-.62l2.33-3.23h.54v3.3h.75v.56h-.75v1.24h-.64Zm-.01-1.8v-2.3l-1.63,2.3h1.63Z"/><path d="m41.28,80.43c.04.36.21.62.51.76.15.07.33.11.53.11.38,0,.66-.12.84-.36s.27-.51.27-.8c0-.35-.11-.63-.32-.82s-.48-.29-.78-.29c-.22,0-.41.04-.57.13s-.29.2-.4.35l-.55-.03.39-2.74h2.64v.62h-2.16l-.22,1.41c.12-.09.23-.16.34-.2.19-.08.41-.12.66-.12.47,0,.86.15,1.19.45.32.3.49.68.49,1.14s-.15.9-.45,1.27-.77.55-1.42.55c-.41,0-.78-.12-1.1-.35s-.5-.59-.53-1.07h.66Z"/><path d="m59.43,77.12c.22.29.34.6.34.91h-.63c-.04-.2-.1-.36-.18-.47-.15-.21-.39-.32-.7-.32-.36,0-.64.17-.85.5s-.33.8-.35,1.42c.15-.22.33-.38.55-.48.2-.09.43-.14.68-.14.43,0,.8.14,1.11.41s.48.68.48,1.22c0,.46-.15.87-.45,1.23s-.73.53-1.28.53c-.48,0-.89-.18-1.23-.54s-.52-.97-.52-1.82c0-.63.08-1.17.23-1.61.3-.84.84-1.26,1.62-1.26.57,0,.96.15,1.19.44Zm-.48,3.89c.17-.23.25-.49.25-.8,0-.26-.07-.51-.22-.74s-.42-.35-.81-.35c-.27,0-.52.09-.72.27s-.31.46-.31.82c0,.32.09.59.28.81s.45.33.78.33.59-.11.75-.34Z"/><circle class="cls-4" cx="26.77" cy="95.42" r="4.79" transform="translate(-20.5 8.31) rotate(-12.82)"/><circle class="cls-4" cx="42.37" cy="95.42" r="4.79" transform="translate(-55.06 57.91) rotate(-45)"/><circle class="cls-4" cx="58.14" cy="95.42" r="4.79" transform="translate(-20.47 16.01) rotate(-13.36)"/><path d="m28.53,93.3v.56c-.16.16-.38.43-.65.83s-.51.82-.72,1.27c-.21.44-.36.85-.47,1.21-.07.23-.16.61-.27,1.13h-.71c.16-.97.52-1.94,1.06-2.9.32-.56.66-1.05,1.02-1.46h-2.81v-.64h3.54Z"/><path d="m41.08,94.92c-.19-.19-.28-.44-.28-.74,0-.38.14-.7.41-.98s.66-.41,1.17-.41.87.13,1.15.39.42.56.42.9c0,.32-.08.57-.24.77-.09.11-.23.22-.42.33.21.1.38.21.5.33.22.24.34.54.34.92,0,.45-.15.83-.45,1.14s-.73.47-1.27.47c-.49,0-.91-.13-1.25-.4s-.51-.66-.51-1.17c0-.3.07-.56.22-.78s.36-.39.65-.5c-.18-.08-.32-.16-.42-.27Zm2.06,2.3c.2-.16.29-.4.29-.72s-.1-.58-.3-.75-.46-.26-.77-.26-.55.09-.75.26-.29.41-.29.72c0,.27.09.49.26.69s.45.29.82.29c.3,0,.54-.08.74-.24Zm-.12-2.51c.16-.16.24-.34.24-.56,0-.19-.08-.36-.23-.52s-.38-.24-.69-.24-.53.08-.67.24-.21.34-.21.56c0,.24.09.43.27.56s.39.2.63.2c.28,0,.5-.08.66-.24Z"/><path d="m57.13,96.67c.02.35.15.6.41.73.13.07.28.11.44.11.31,0,.57-.13.78-.38s.37-.77.46-1.55c-.14.22-.32.38-.53.47s-.43.14-.68.14c-.49,0-.88-.15-1.16-.46s-.43-.7-.43-1.18.14-.87.42-1.22.7-.53,1.25-.53c.74,0,1.25.33,1.53,1,.16.37.23.83.23,1.38,0,.62-.09,1.17-.28,1.65-.31.8-.84,1.2-1.58,1.2-.5,0-.87-.13-1.13-.39s-.39-.59-.39-.98h.65Zm1.66-1.29c.21-.17.31-.46.31-.87,0-.37-.09-.65-.28-.84s-.43-.28-.72-.28c-.31,0-.56.1-.74.31s-.28.49-.28.84c0,.33.08.59.24.79s.42.29.77.29c.25,0,.48-.08.69-.25Z"/><circle class="cls-4" cx="42.45" cy="111.55" r="4.79" transform="translate(-24.62 12.83) rotate(-13.36)"/><path d="m43.86,109.75c.23.42.34.99.34,1.72,0,.69-.1,1.26-.31,1.71-.3.65-.79.97-1.46.97-.61,0-1.06-.27-1.36-.8-.25-.44-.37-1.04-.37-1.78,0-.58.07-1.07.22-1.49.28-.77.78-1.16,1.52-1.16.66,0,1.13.27,1.43.81Zm-.64,3.39c.2-.29.29-.84.29-1.64,0-.58-.07-1.05-.21-1.43s-.42-.56-.83-.56c-.38,0-.65.18-.83.53s-.26.87-.26,1.56c0,.52.06.93.17,1.25.17.48.46.72.87.72.33,0,.6-.15.79-.44Z"/><g id="JKa6IG.tif"><path class="cls-1" d="m47.27,48.75c-.48-.07-.97-.12-1.45-.21-6.29-1.13-10.71-4.58-13.03-10.59-.73-1.89-1.07-3.87-1.07-5.9,0-.47.16-.84.53-1.14.71-.59,1.4-1.2,2.1-1.8.65-.56,1.26-.52,1.84.12,1.3,1.44,2.61,2.87,3.92,4.31.56.61.54,1.22-.06,1.8-.83.81-1.66,1.62-2.49,2.42-.12.11-.15.21-.11.36.35,1.38,1.13,2.48,2.18,3.41.78.69,1.66,1.21,2.67,1.48.18.05.31.03.44-.11.8-.83,1.6-1.65,2.4-2.48.57-.59,1.19-.61,1.8-.05,1.44,1.31,2.89,2.62,4.33,3.94.62.56.65,1.16.1,1.8-.56.65-1.12,1.3-1.68,1.96-.24.29-.49.55-.85.68h-1.58Z"/><path class="cls-1" d="m42.97,29.59v-2.17c5.74-.18,10.3,4.63,10.09,10.07h-2.16c-.38-4.91-3.03-7.53-7.93-7.9Z"/><path class="cls-1" d="m42.98,34.15v-2.23c3.47-.13,5.7,2.03,5.58,5.58h-2.23c.07-2.28-1.05-3.41-3.35-3.35Z"/></g></svg>