<?xml version="1.0" encoding="UTF-8"?>
<svg id="Calque_1" data-name="Calque 1" xmlns="http://www.w3.org/2000/svg" viewBox="0 0 128 128">
  <defs>
    <style>
      .cls-1 {
        fill: #fff;
      }

      .cls-1, .cls-2, .cls-3, .cls-4, .cls-5 {
        stroke: #000;
        stroke-miterlimit: 10;
        stroke-width: 2px;
      }

      .cls-2 {
        fill: #87ccf3;
      }

      .cls-3 {
        fill: #d6d6d6;
      }

      .cls-4, .cls-6 {
        fill: none;
      }

      .cls-6 {
        stroke: #fff;
        stroke-linecap: round;
        stroke-linejoin: round;
        stroke-width: 8px;
      }
    </style>
  </defs>
  <path class="cls-1" d="m68.72,90.54V11.87c0-4.04-3.27-7.31-7.31-7.31s-7.31,3.27-7.31,7.31v78.68c-5.97,2.77-10.12,8.8-10.12,15.81,0,9.63,7.81,17.43,17.43,17.43s17.44-7.81,17.44-17.43c0-7.01-4.15-13.05-10.12-15.81Z"/>
  <line class="cls-4" x1="68.21" y1="12.52" x2="74.33" y2="12.52"/>
  <line class="cls-4" x1="68.21" y1="18.23" x2="74.33" y2="18.23"/>
  <line class="cls-4" x1="68.21" y1="23.94" x2="74.33" y2="23.94"/>
  <line class="cls-4" x1="68.21" y1="29.64" x2="74.33" y2="29.64"/>
  <line class="cls-4" x1="68.21" y1="35.35" x2="74.33" y2="35.35"/>
  <line class="cls-4" x1="68.21" y1="46.76" x2="74.33" y2="46.76"/>
  <line class="cls-4" x1="68.21" y1="41.06" x2="74.33" y2="41.06"/>
  <line class="cls-4" x1="68.21" y1="52.47" x2="74.33" y2="52.47"/>
  <line class="cls-4" x1="68.21" y1="58.18" x2="74.33" y2="58.18"/>
  <line class="cls-4" x1="68.21" y1="63.89" x2="74.33" y2="63.89"/>
  <line class="cls-4" x1="68.21" y1="69.59" x2="74.33" y2="69.59"/>
  <line class="cls-4" x1="68.21" y1="75.3" x2="74.33" y2="75.3"/>
  <line class="cls-4" x1="68.21" y1="81.01" x2="74.33" y2="81.01"/>
  <line class="cls-4" x1="68.21" y1="86.71" x2="74.33" y2="86.71"/>
  <rect class="cls-3" x="57.77" y="12.89" width="7.28" height="34.68"/>
  <path class="cls-2" d="m74,106.24c0,6.95-5.64,12.58-12.59,12.58s-12.58-5.63-12.58-12.58c0-5.68,3.77-10.5,8.94-12.06v-46.6h7.28v46.61c5.18,1.56,8.94,6.37,8.94,12.05Z"/>
  <path class="cls-5" d="m90.12,25.6c2.01-2.14,4.77-3.21,8.28-3.21,3.25,0,5.85.92,7.8,2.75,1.95,1.83,2.93,4.17,2.93,7.02,0,1.73-.35,3.12-1.06,4.2s-2.16,2.65-4.35,4.74c-1.6,1.51-2.63,2.79-3.12,3.85-.31.68-.53,1.58-.64,2.69s-1.04,1.96-2.16,1.96h0c-1.28,0-2.29-1.11-2.16-2.39.13-1.26.37-2.34.72-3.24.55-1.42,1.78-3.06,3.69-4.9l1.99-1.93c.6-.55,1.08-1.13,1.45-1.73.68-1.06,1.01-2.16,1.01-3.3,0-1.59-.49-2.98-1.46-4.15-.97-1.17-2.58-1.76-4.82-1.76-2.77,0-4.69,1.01-5.76,3.03-.41.77-.7,1.77-.87,3-.15,1.07-1.07,1.86-2.15,1.86h0c-1.34,0-2.37-1.2-2.16-2.52.38-2.37,1.32-4.36,2.82-5.96Zm7.74,29.04h0c1.34,0,2.43,1.09,2.43,2.43v.22c0,1.34-1.09,2.43-2.43,2.43h0c-1.34,0-2.43-1.09-2.43-2.43v-.22c0-1.34,1.09-2.43,2.43-2.43Z"/>
  <rect class="cls-6" x="-50.41" y="-78.92" width="1215" height="875.1"/>
</svg>