<?xml version="1.0" encoding="UTF-8"?><svg id="Calque_1" xmlns="http://www.w3.org/2000/svg" viewBox="0 0 200 128"><defs><style>.cls-1{stroke:#e30613;stroke-width:8px;}.cls-1,.cls-2,.cls-3,.cls-4,.cls-5{stroke-linecap:round;stroke-linejoin:round;}.cls-1,.cls-5{fill:none;}.cls-6,.cls-2,.cls-3,.cls-4,.cls-7,.cls-5{stroke:#000;}.cls-6,.cls-7{stroke-miterlimit:10;}.cls-8,.cls-3{fill:#d6d6d6;}.cls-2,.cls-3,.cls-5{stroke-width:2px;}.cls-2,.cls-7{fill:#fff;}.cls-4{fill:#bfe6fc;}</style></defs><rect class="cls-1" x="-1753.01" y="-462.51" width="2655.08" height="1511.77"/><path class="cls-3" d="m144.83,11.9H38.18c-1.48,0-2.69,1.21-2.69,2.69v71.08s112.03,0,112.03,0V14.59c0-1.48-1.21-2.69-2.69-2.69Z"/><rect class="cls-4" x="43.43" y="17.89" width="96.14" height="61.77"/><path d="m91.98,15.56c0,.26-.21.48-.48.48s-.48-.21-.48-.48.21-.48.48-.48.48.21.48.48Z"/><rect class="cls-8" x="81.31" y="109.79" width="20.63" height="4"/><path class="cls-3" d="m101.95,110.96v1.26c0,.87-.52,1.58-1.15,1.58h-18.67c-.63,0-1.15-.71-1.15-1.58v-1.26H14.78l1.97,5.88h149.66l1.81-5.88h-66.27Z"/><polygon class="cls-3" points="14.78 111.21 168.22 111.21 147.52 85.66 35.49 85.66 14.78 111.21"/><polygon class="cls-4" points="88.16 92 94.6 91.97 96.65 97.03 86.35 97.03 88.16 92"/><polygon class="cls-4" points="76.15 99.7 107.08 99.67 109.13 104.73 74.35 104.73 76.15 99.7"/><polygon class="cls-4" points="84.78 91.99 84.74 91.99 82.93 97.02 76.51 97.02 78.31 91.99 84.76 91.97 84.78 91.99"/><polygon class="cls-4" points="74.87 91.99 74.84 91.99 73.03 97.02 66.61 97.02 68.41 91.99 74.86 91.97 74.87 91.99"/><polygon class="cls-4" points="64.97 91.99 64.93 91.99 63.13 97.02 56.71 97.02 58.5 91.99 64.96 91.97 64.97 91.99"/><polygon class="cls-4" points="55.07 91.99 55.03 91.99 53.22 97.02 46.8 97.02 48.6 91.99 55.06 91.97 55.07 91.99"/><polygon class="cls-4" points="45.22 91.99 45.18 91.99 43.37 97.02 34.76 97.03 38.75 91.99 45.2 91.97 45.22 91.99"/><polygon class="cls-4" points="98.2 91.99 98.24 91.99 100.05 97.02 106.47 97.02 104.67 91.99 98.22 91.97 98.2 91.99"/><polygon class="cls-4" points="108.11 91.99 108.14 91.99 109.95 97.02 116.37 97.02 114.57 91.99 108.12 91.97 108.11 91.99"/><polygon class="cls-4" points="118.01 91.99 118.05 91.99 119.85 97.02 126.27 97.02 124.48 91.99 118.02 91.97 118.01 91.99"/><polygon class="cls-4" points="127.91 91.99 127.95 91.99 129.76 97.02 136.18 97.02 134.38 91.99 127.92 91.97 127.91 91.99"/><polygon class="cls-4" points="137.76 91.99 137.8 91.99 139.61 97.02 148.22 97.03 144.23 91.99 137.78 91.97 137.76 91.99"/><polygon class="cls-4" points="110.69 99.7 110.72 99.7 112.53 104.73 118.95 104.73 117.15 99.7 110.7 99.68 110.69 99.7"/><polygon class="cls-4" points="120.59 99.7 120.62 99.7 122.43 104.73 128.85 104.73 127.06 99.7 120.6 99.68 120.59 99.7"/><polygon class="cls-4" points="130.49 99.7 130.53 99.7 132.33 104.73 138.76 104.73 136.96 99.7 130.5 99.68 130.49 99.7"/><polygon class="cls-4" points="140.34 99.7 140.38 99.7 142.19 104.73 154.41 104.73 150.42 99.7 140.36 99.68 140.34 99.7"/><polygon class="cls-4" points="142.19 104.73 154.41 104.73 150.42 99.7 140.36 99.68 142.19 104.73"/><polygon class="cls-4" points="41.03 104.73 28.8 104.73 32.79 99.7 42.86 99.67 41.03 104.73"/><polygon class="cls-4" points="72.52 99.7 72.48 99.7 70.68 104.73 64.26 104.73 66.05 99.7 72.51 99.68 72.52 99.7"/><polygon class="cls-4" points="62.62 99.7 62.58 99.7 60.77 104.73 54.35 104.73 56.15 99.7 62.6 99.68 62.62 99.7"/><polygon class="cls-4" points="52.71 99.7 52.68 99.7 50.87 104.73 44.45 104.73 46.24 99.7 52.7 99.68 52.71 99.7"/><circle class="cls-7" cx="175.48" cy="47.56" r="18.76"/><path class="cls-6" d="m167.63,40.19c.74-1.66,2.13-2.84,4.18-3.55,1.89-.66,3.6-.65,5.11.02,1.51.67,2.56,1.84,3.13,3.5.35,1.01.43,1.89.23,2.66-.19.77-.72,1.99-1.58,3.65-.62,1.21-.97,2.17-1.04,2.88-.04.46.01,1.03.18,1.7s-.21,1.35-.86,1.58h0c-.75.26-1.56-.18-1.75-.95-.18-.76-.26-1.44-.24-2.03.03-.94.42-2.14,1.16-3.61l.77-1.53c.24-.44.4-.88.5-1.31.18-.75.15-1.46-.08-2.13-.32-.93-.89-1.64-1.69-2.12-.8-.49-1.86-.5-3.17-.05-1.62.56-2.53,1.54-2.74,2.93-.08.53-.05,1.17.1,1.93.13.65-.25,1.3-.88,1.52h0c-.78.27-1.63-.22-1.77-1.03-.26-1.46-.11-2.81.44-4.05Zm10.41,15.37h0c.78-.27,1.64.14,1.91.92l.04.13c.27.78-.14,1.64-.92,1.91h0c-.78.27-1.64-.14-1.91-.92l-.04-.13c-.27-.78.14-1.64.92-1.91Z"/><rect class="cls-2" x="56.75" y="30.3" width="70.51" height="41.1"/><polyline class="cls-5" points="56.75 30.3 92.01 57.12 127.26 30.3"/><line class="cls-2" x1="56.75" y1="71.4" x2="73.13" y2="42.76"/><line class="cls-2" x1="127.26" y1="71.4" x2="111.58" y2="43.01"/><path d="m86.03,46.27c-.99-1.14-1.48-2.46-1.48-3.95,0-1.78.6-3.29,1.8-4.53,1.33-1.39,3.12-2.08,5.36-2.08,1.94,0,3.47.49,4.58,1.47,1.04.93,1.56,2.13,1.56,3.61,0,1.24-.37,2.31-1.12,3.19s-1.58,1.32-2.5,1.32c-.54,0-.94-.13-1.19-.39s-.38-.57-.38-.94c0-.06,0-.12.02-.19s.02-.13.04-.2c-.29.63-.65,1.07-1.1,1.33s-.9.39-1.37.39c-.67,0-1.21-.24-1.63-.73s-.63-1.11-.63-1.87c0-1.09.36-2.04,1.07-2.87s1.48-1.24,2.29-1.24c.56,0,1.02.16,1.38.48s.55.71.58,1.16l.41-1.37h1.2l-1.09,3.58c-.08.28-.14.5-.18.67s-.06.32-.06.45c0,.25.07.42.22.54s.32.17.51.17c.62,0,1.18-.32,1.67-.97s.74-1.5.74-2.54c0-1.27-.44-2.26-1.33-2.98-.88-.72-2.07-1.08-3.57-1.08-2.07,0-3.66.61-4.75,1.82-.94,1.03-1.41,2.33-1.41,3.89,0,1.36.45,2.51,1.34,3.44,1.05,1.1,2.54,1.64,4.47,1.64.91,0,1.75-.14,2.53-.43s1.49-.67,2.14-1.16l.54.74c-.49.44-1.22.85-2.2,1.23-.98.38-2.05.57-3.22.57-2.28,0-4.04-.71-5.27-2.14Zm6.56-6.43c-.23-.27-.54-.4-.94-.4-.62,0-1.16.37-1.62,1.1s-.68,1.46-.68,2.19c0,.53.12.94.35,1.22s.53.42.88.42c.74,0,1.31-.43,1.72-1.29.41-.86.62-1.63.62-2.33,0-.34-.11-.64-.34-.91Z"/></svg>