<?xml version="1.0" encoding="UTF-8"?>
<svg id="Calque_1" data-name="Calque 1" xmlns="http://www.w3.org/2000/svg" viewBox="0 0 128 128">
  <defs>
    <style>
      .cls-1 {
        fill: #d6d6d6;
      }

      .cls-1, .cls-2, .cls-3, .cls-4, .cls-5, .cls-6, .cls-7 {
        stroke: #000;
      }

      .cls-1, .cls-2, .cls-3, .cls-4, .cls-8, .cls-9 {
        stroke-linecap: round;
        stroke-linejoin: round;
      }

      .cls-2, .cls-10 {
        fill: #87f3b9;
      }

      .cls-3 {
        fill: #ff6d75;
      }

      .cls-4, .cls-11, .cls-8 {
        fill: #fff;
      }

      .cls-5, .cls-12, .cls-6, .cls-7 {
        stroke-miterlimit: 10;
      }

      .cls-13 {
        fill: #bfe6fc;
      }

      .cls-14 {
        fill: #87ccf3;
      }

      .cls-8 {
        stroke: #ff6d75;
        stroke-width: 2px;
      }

      .cls-12 {
        fill: #cfb999;
      }

      .cls-12, .cls-9 {
        stroke: #fff;
      }

      .cls-12, .cls-7 {
        stroke-width: .5px;
      }

      .cls-6 {
        fill: #f3d587;
      }

      .cls-9 {
        stroke-width: 8px;
      }

      .cls-9, .cls-7 {
        fill: none;
      }
    </style>
  </defs>
  <g>
    <g>
      <path class="cls-5" d="m39.21,3.91l-29.34,14.26c-2.97,1.44-4.22,5.04-2.77,8.01l36.05,74.17c1.44,2.97,5.04,4.21,8.01,2.76l29.34-14.26c2.97-1.44,4.22-5.03,2.77-8.01L47.22,6.68c-1.44-2.97-5.04-4.22-8.01-2.77Zm43.86,77.04c1.39,2.86.19,6.31-2.67,7.7l-29.34,14.26c-2.86,1.39-6.31.19-7.7-2.66L7.31,26.08c-1.39-2.86-.2-6.32,2.66-7.71l29.34-14.26c2.86-1.39,6.32-.19,7.71,2.67l36.05,74.17Z"/>
      <path class="cls-5" d="m47.02,6.78l36.05,74.17c1.39,2.86.19,6.31-2.67,7.7l-29.34,14.26c-2.86,1.39-6.31.19-7.7-2.66L7.31,26.08c-1.39-2.86-.2-6.32,2.66-7.71l29.34-14.26c2.86-1.39,6.32-.19,7.71,2.67Z"/>
    </g>
    <path class="cls-13" d="m46.03,8.02l35.45,72.95c1.23,2.53.18,5.57-2.35,6.8l-27.98,13.6c-.21.1-.43.19-.64.26-2.38.78-5.03-.29-6.16-2.61L8.89,26.07c-1.23-2.53-.17-5.57,2.35-6.8l.81-.39c2.52-1.22,5.06-2.4,7.55-3.67.01.01,0,.06.02.08.64-.44,1.85-.66,2.59-.41,1.17.41,2.62,1.04,3.89.58,1.32-.48,1.83-1.99,2.25-3.2.48-1.36,1.64-2.1,2.89-2.7l7.97-3.88c2.53-1.23,5.57-.18,6.8,2.35Z"/>
    <circle class="cls-12" cx="25.48" cy="13.58" r=".9"/>
    <path class="cls-5" d="m56.39,25.83h0l-5.13-10.55h0c.4-.19.88-.03,1.07.37l4.42,9.1c.19.4.03.88-.37,1.07Z"/>
    <path class="cls-5" d="m60.8,34.92h0l-2.56-5.26h0c.4-.19.88-.03,1.07.37l1.86,3.82c.19.4.03.88-.37,1.07Z"/>
    <rect class="cls-10" x="37.71" y="8" width="2.59" height="2.13" transform="translate(-.04 17.96) rotate(-25.92)"/>
    <rect class="cls-11" x="40.1" y="7.15" width="1.29" height="2.13" transform="translate(.51 18.64) rotate(-25.92)"/>
    <rect x="41.3" y="7.35" width=".55" height=".94" transform="translate(.77 18.96) rotate(-25.92)"/>
    <g>
      <rect x="10.44" y="22.39" width=".71" height="1.22" transform="translate(-8.97 7.03) rotate(-25.92)"/>
      <rect x="11.36" y="21.49" width=".71" height="1.65" transform="translate(-8.58 7.37) rotate(-25.92)"/>
      <rect x="12.25" y="20.52" width=".71" height="2.16" transform="translate(-8.17 7.68) rotate(-25.92)"/>
    </g>
    <rect class="cls-7" x="37.64" y="7.72" width="3.89" height="2.13" transform="translate(.14 18.19) rotate(-25.92)"/>
    <g>
      <circle class="cls-3" cx="49.01" cy="85.07" r="7.82" transform="translate(-49.06 89.82) rotate(-62.82)"/>
      <path class="cls-4" d="m44.99,86.64c.09-.17.17-.34.26-.51,1.22-2.18,3.07-3.38,5.59-3.47.79-.03,1.57.1,2.32.36.17.06.29.17.36.34.13.34.26.67.4,1.01.12.31.03.53-.28.67-.7.3-1.4.6-2.1.9-.3.13-.52.04-.66-.25-.19-.41-.39-.82-.58-1.23-.03-.06-.06-.08-.12-.09-.55-.05-1.06.1-1.54.37-.36.2-.66.46-.89.8-.04.06-.05.11-.01.18.21.4.41.8.61,1.21.15.29.07.52-.21.67-.67.37-1.34.73-2.01,1.1-.29.16-.51.09-.68-.19-.17-.29-.34-.58-.51-.87-.08-.13-.14-.25-.14-.4l.2-.59Z"/>
    </g>
    <g>
      <circle class="cls-2" cx="67.22" cy="76.23" r="7.82" transform="translate(-31.29 101.21) rotate(-62.82)"/>
      <g id="JKa6IG.tif">
        <path class="cls-4" d="m70.83,78.4c-.18.06-.36.12-.55.18-2.41.68-4.56.22-6.4-1.5-.58-.54-1.04-1.18-1.39-1.9-.08-.17-.09-.32,0-.49.15-.33.29-.66.43-.99.13-.31.36-.4.67-.27.71.28,1.41.57,2.12.85.3.12.4.34.29.64-.15.43-.31.86-.46,1.28-.02.06-.02.1.02.15.36.42.82.68,1.35.83.39.11.79.14,1.19.06.07-.01.11-.04.14-.12.14-.43.28-.86.42-1.28.1-.31.31-.42.63-.33.73.21,1.47.43,2.2.65.31.09.43.3.34.62-.09.33-.17.65-.25.98-.04.14-.08.28-.18.38l-.56.27Z"/>
      </g>
    </g>
    <path class="cls-14" d="m32.7,27.06c-8.45,4.11-11.97,14.29-7.86,22.74,1.8,3.71,4.78,6.47,8.26,8.05-2.58-6.36.17-13.71,6.43-16.75,6.26-3.04,13.74-.67,17.15,5.29.91-3.71.58-7.76-1.23-11.47-4.11-8.45-14.29-11.98-22.74-7.87Zm6.17,12.69c-2.65,1.29-5.83.18-7.12-2.46-1.29-2.65-.19-5.84,2.46-7.12s5.84-.19,7.13,2.47c1.29,2.65.18,5.83-2.47,7.12Z"/>
    <path class="cls-11" d="m56.67,46.4c-1.17,4.75-4.35,8.97-9.1,11.27-4.74,2.3-10.02,2.2-14.48.19-2.58-6.36.17-13.71,6.43-16.75,6.26-3.04,13.74-.67,17.15,5.29Z"/>
    <path class="cls-11" d="m41.33,32.63c1.29,2.65.18,5.83-2.47,7.12-2.65,1.29-5.83.18-7.12-2.46-1.29-2.65-.19-5.84,2.46-7.12s5.84-.19,7.13,2.47Z"/>
    <rect class="cls-11" x="39.53" y="61.34" width="21.92" height="3.31" transform="translate(-22.46 28.41) rotate(-25.92)"/>
  </g>
  <g>
    <path class="cls-4" d="m106.87,101.98c-.43-.28-1.42-1.27-2.63-2.53-.36-.38-.75-.78-1.14-1.2s-.8-.85-1.2-1.28c-1.22-1.29-2.45-2.6-3.44-3.62h0c-.77-.79-1.41-1.4-1.78-1.69-.38-.3-.96-.67-1.62-1.08-.31-.19-.63-.38-.97-.58-.49-.29-1-.58-1.51-.86-1.72-.96-3.36-1.82-3.75-2.02-.76-.38-2.14-1.05-3.04-.47-.9.58-.95,1.51-.95,1.51,0,0-.63-.42-1.14-.73-.17-.1-.11.03-.23-.03-1.15-.6-2.08-.6-2.92.03-.04.03-.09.06-.13.1-.1.09-.19.18-.27.27-.24.28-.39.57-.48.82-.12.33-.14.57-.14.57,0,0-.41-.24-1-.43h0s0,0,0,0c-.9-.28-2.23-.43-3.2.62-1.72,1.86-.09,3.81.3,4.29.86,1.07,2.48,3.14,2.48,3.14,0,0-.63.31-1.16.47-.23.06-.48.1-.73.11-.51,0-.88-.15-.88-.15,0,0,.04.02.09.05-1.52-.36-5.66-1.86-7.94-2.93-2.53-1.17-9.07-4.06-11.17-4.93-2.1-.88-4.31-1.46-5.16.49-.92,2.1,1.35,3.17,2.44,3.93,1.1.76,7.34,3.78,9.77,5.06,1.91,1.01,9.33,5.16,12.34,6.88,1.96,1.12,5.02,3.49,5.02,3.49,0,0-.57-.18-1.46-.43-.01,0-.03,0-.04-.01-.01,0-.02,0-.04,0-1.76-.48-4.71-1.21-7.17-1.39-.01,0-.03,0-.03,0,0,0,0,0,0,0-.65-.05-1.27-.06-1.82-.01-3.76.3-5.48,4.23-4.89,5.26.47.82,2.2.19,3.97,0,.26-.03.51-.05.77-.05.01,0,.03,0,.04,0,.25,0,.5,0,.74.04,1.22.16,7.15,1.95,11.6,4.2.27.14,1.85.57,3.76,1.04.29.07.6.15.9.22.46.11.93.22,1.4.33.16.04.31.07.47.11.31.07.62.14.92.2,1.65.35,3.11.62,3.79.64,1.44.04,4.7.27,6.81.32,1.12.03,3.42,1.6,5.33,3.07.56.43,1.09.86,1.54,1.23.36.3.68.56.93.77.37.32.59.51.59.51l2.56-3.24,4.59-5.85,4.61-6.45s-12.36-6.94-13.74-7.84Z"/>
    <line class="cls-4" x1="79.51" y1="89.21" x2="83.64" y2="92.43"/>
    <line class="cls-4" x1="84.83" y1="88.18" x2="88.58" y2="90.56"/>
  </g>
  <g>
    <path class="cls-1" d="m45.3,109.77c.08.58.16,1.16.24,1.74-4.59.77-8.77-2.58-9.21-6.98l1.74-.24c.85,3.9,3.26,5.71,7.23,5.47Z"/>
    <path class="cls-1" d="m44.78,106.12c.09.63.17,1.21.25,1.79-2.77.49-4.8-1.01-5.09-3.86.58-.08,1.16-.16,1.79-.24.19,1.83,1.22,2.62,3.06,2.32Z"/>
  </g>
  <path class="cls-4" d="m97.18,7.73c-10.68-1.61-20.64,5.75-22.24,16.43-.68,4.53.25,8.92,2.37,12.61h0l-2.05,6.48,6.07-1.54h0c2.73,2.42,6.16,4.1,10.04,4.69,10.68,1.61,20.64-5.75,22.24-16.43,1.61-10.68-5.75-20.64-16.43-22.24Z"/>
  <path class="cls-6" d="m101.57,29.66l.49-5.29c.31-3.32-1.7-6.32-4.69-7.4.08-1-.65-1.88-1.65-1.97-1-.09-1.88.64-1.98,1.63-3.14.52-5.66,3.1-5.97,6.42l-.49,5.29s-3.56,1.53-2.94,6.26l6.6.61c-.15,1.59,1.02,3,2.62,3.15s3-1.03,3.15-2.62l6.6.61c1.47-4.54-1.74-6.7-1.74-6.7Z"/>
  <line class="cls-8" x1="21.32" y1="88.77" x2="31.43" y2="98.88"/>
  <line class="cls-8" x1="21.32" y1="98.89" x2="31.43" y2="88.77"/>
  <rect class="cls-9" x="-541.54" y="-359.81" width="1447.07" height="727.52"/>
</svg>