<?xml version="1.0" encoding="UTF-8"?>
<svg id="Calque_1" data-name="Calque 1" xmlns="http://www.w3.org/2000/svg" viewBox="0 0 128 128">
  <defs>
    <style>
      .cls-1 {
        fill: #76ac75;
      }

      .cls-1, .cls-2 {
        stroke: #000;
        stroke-width: 2px;
      }

      .cls-1, .cls-2, .cls-3 {
        stroke-linecap: round;
        stroke-linejoin: round;
      }

      .cls-2 {
        fill: #8987f3;
      }

      .cls-3 {
        fill: none;
        stroke: #fff;
        stroke-width: 8px;
      }
    </style>
  </defs>
  <g>
    <path class="cls-1" d="m76.39,27.88c-1.07-.27-2.29-.49-3.29-.64.65,4.4.72,9.69.67,13.32-.15-.06-.3-.11-.46-.15-1.03-.3-2.06-.41-3.07-.34-.12-3.59-.32-8.82-.72-11.66-.64-4.63-4.89-13.84-4.89-13.84l4.79-1.42s1.06,3.39,3.01,10.78c.04.16.08.32.12.48,1.29.34,3.08.84,4.62,1.42,1.49.56,3.03,1.35,4.13,1.95-.03.57-.02.93-.02.93,0,0-.4.35-.98.91-1.21-.67-2.76-1.44-3.92-1.74Z"/>
    <path class="cls-1" d="m105.87,40.66s-3.19.54-5.2,1.51c-2.01.97-4.09,1.78-5.52,1-1.38-.77-4.02-4.01-4.19-4.21.06.23.7,2.73.81,3.93.1,1.25-.19,2.49.08,3.08.28.59.43.88.43.88,0,0-4.41-.27-6.93-2.68-2.53-2.41-2.63-3.45-2.63-3.45,0,0-.4.56-.39.97.02.41.27,1.27.27,1.27,0,0-2.34-1.03-3.5-2.52-1.17-1.5-3.11-4.11-2.06-6.55.68-1.57,2.23-3.25,3.27-4.26.57-.56.98-.91.98-.91,0,0,0-.36.02-.93.11-2.34.94-8.33,6.34-8.4,6.71-.09,7.27,1.22,7.27,1.22,0,0-1.43.3-1.82.46-.38.16-.81.65-.81.65,0,0,3.95-.24,6,1.46,2.05,1.68,1.87,2.23,3.35,3.39.24.18.45.4.45.4,0,0-.83.41-1.56,1.18-.73.76-1.28,1.46-2.74,1.71-1.47.25-2.74.76-2.74.76,0,0,4.63.06,6.15.92,1.52.85,1.58,4.24,2.77,6.07,1.2,1.85,1.89,3.07,1.89,3.07Z"/>
    <path class="cls-2" d="m67.79,59.53c-.69.86-1.21,1.86-1.54,2.99-.33,1.12-.43,2.25-.31,3.35h0c-.42.54-.88,1-1.39,1.42-1.99,1.6-4.62,2.33-7.26,1.82h0s-.03,0-.05,0c-.27-.05-.53-.11-.8-.19-2.92-.85-5.07-3.07-5.95-5.76-.07-.22-.14-.45-.2-.67-.35-1.47-.34-3.06.11-4.61.15-.5.33-.97.55-1.42.47-.96,1.1-1.81,1.84-2.52,2.23-2.12,5.48-3.03,8.65-2.1.38.11.76.25,1.12.41.33.15.66.32.97.5,1.69,1.02,2.98,2.56,3.69,4.35.31.78.51,1.59.6,2.44h0Z"/>
    <path class="cls-2" d="m83.34,67.52c-.47,1.6-1.35,2.97-2.49,4.03-.14.13-.29.26-.44.38-2.19,1.78-5.2,2.48-8.1,1.63-.31-.09-.6-.2-.89-.31-.03,0-.05-.02-.07-.03h0c-2.42-1.02-4.19-3.02-4.98-5.39-.21-.63-.35-1.28-.42-1.96h0c-.12-1.11-.02-2.23.31-3.36.33-1.12.85-2.13,1.54-2.99h0c.52-.68,1.14-1.27,1.83-1.76h0c1.79-1.28,4.07-1.89,6.36-1.58.07.01.13.02.19.03.38.06.75.14,1.13.25,3.11.91,5.35,3.38,6.11,6.31.29,1.11.37,2.27.21,3.46-.06.43-.16.86-.28,1.28Z"/>
    <path class="cls-2" d="m98.01,71.82c-1.38,4.72-6.33,7.42-11.04,6.04-.54-.16-1.05-.36-1.54-.61-2.1-1.06-3.63-2.89-4.37-5.02-.08-.22-.15-.45-.21-.68,1.14-1.06,2.02-2.43,2.49-4.03.12-.42.22-.85.28-1.28.16-1.18.08-2.35-.21-3.46,2.23-2.06,5.44-2.93,8.56-2.01.38.11.76.25,1.12.41,4.01,1.78,6.19,6.3,4.92,10.64Z"/>
    <path class="cls-2" d="m50.37,57.86c-.46,1.55-.46,3.15-.11,4.61-.2.19-.41.37-.63.55-1.77,1.4-4.06,2.11-6.39,1.87-.55-.06-1.09-.16-1.63-.32-4.72-1.38-7.42-6.32-6.04-11.04,1.38-4.72,6.32-7.43,11.05-6.05l.09.03c3.12.95,5.35,3.45,6.06,6.41-.74.71-1.38,1.57-1.84,2.52-.23.45-.41.92-.55,1.42Z"/>
    <path class="cls-2" d="m62.54,52.23c-.36-.16-.74-.3-1.12-.41-3.17-.93-6.42-.02-8.65,2.1-.72-2.96-2.94-5.47-6.06-6.41.05-.4.14-.8.26-1.21,1.38-4.72,6.33-7.42,11.05-6.04,2.26.66,4.08,2.15,5.18,4.06-.4.64-.71,1.36-.93,2.11-.58,1.99-.43,4.01.27,5.79Z"/>
    <path class="cls-2" d="m93.55,59.94c-.12.42-.28.84-.45,1.23-.36-.16-.74-.3-1.12-.41-3.12-.91-6.33-.04-8.56,2.01-.77-2.93-3-5.4-6.11-6.31-.37-.11-.75-.19-1.13-.25.02-.07.03-.14.04-.21,1.46-1.1,2.59-2.68,3.14-4.57.1-.35.19-.72.24-1.08,2.17-1.66,5.08-2.29,7.9-1.47,4.72,1.38,7.43,6.32,6.05,11.05Z"/>
    <path class="cls-2" d="m79.36,51.44c-.55,1.89-1.68,3.47-3.14,4.57-.07.06-.15.12-.23.17-2.3-.31-4.57.3-6.36,1.59h0c-.44-.06-.87-.15-1.3-.28-.38-.11-.76-.25-1.12-.41-.71-1.79-1.99-3.33-3.69-4.35-.31-.18-.64-.35-.97-.5-.71-1.78-.86-3.8-.27-5.79.22-.76.53-1.47.93-2.11,1.52-2.5,4.17-4.09,7.05-4.26,1.01-.07,2.04.04,3.07.34.15.04.31.09.46.15,4.09,1.43,6.52,5.6,5.83,9.81-.05.36-.14.72-.24,1.08Z"/>
    <path class="cls-2" d="m71.42,78.52c-.52,1.79-1.55,3.29-2.89,4.38-.06.06-.12.1-.19.14-1.89,1.49-4.38,2.19-6.89,1.78-.36-.05-.72-.14-1.08-.24-.08-.02-.16-.05-.24-.08-2.76-.88-4.81-3.01-5.69-5.58,0-.04-.03-.09-.04-.14h0c-.54-1.66-.6-3.47-.08-5.25s1.55-3.28,2.9-4.37c.02-.02.03-.02.03-.04h0c2.64.52,5.27-.21,7.26-1.82.29.04.57.12.85.2.34.1.66.21.96.34.79,2.37,2.56,4.36,4.98,5.39h0s.02.05.02.07c.54,1.65.59,3.46.07,5.24Z"/>
    <path class="cls-2" d="m58.41,93.25c-.07.08-.14.17-.22.25-.03-.11-.05-.23-.07-.34.1.03.19.06.29.09Z"/>
    <path class="cls-2" d="m63.92,104.13c-1.38,4.71-6.32,7.42-11.04,6.04-4.72-1.38-7.43-6.33-6.05-11.05.38-1.29,1.02-2.43,1.85-3.38.18.06.35.12.53.18,3.32.97,6.74-.08,8.97-2.43.59,3.09,2.81,5.77,5.99,6.8.2,1.25.12,2.55-.26,3.83Z"/>
    <path class="cls-2" d="m85.56,82.66c-1.3,4.44-5.76,7.11-10.22,6.24-.92-2.62-3.04-4.78-5.9-5.61-.28-.08-.56-.15-.84-.19-.02-.06-.05-.13-.07-.2,1.34-1.09,2.36-2.59,2.89-4.38.52-1.78.47-3.59-.07-5.24.02-.02.03-.02.05-.04.29.12.58.22.89.31,2.91.85,5.92.15,8.1-1.63.22.09.43.19.65.3.74,2.13,2.28,3.96,4.37,5.02.59,1.69.67,3.57.13,5.42Z"/>
    <path class="cls-2" d="m54.33,73.52c-.52,1.79-.46,3.6.08,5.24h0s-.08.07-.12.09l-.07-.02c-2.89-.85-5.86-.16-8.05,1.58-4.67-1.41-7.34-6.34-5.97-11.03.54-1.84,1.63-3.38,3.03-4.49,2.34.24,4.62-.47,6.39-1.87.27.03.55.07.83.13.88,2.69,3.03,4.9,5.95,5.76.27.08.53.14.8.19,0,.01.01.03.02.05-1.34,1.1-2.37,2.59-2.9,4.37Z"/>
    <path class="cls-2" d="m58.12,93.16c.02.11.04.23.07.34-2.23,2.35-5.65,3.4-8.97,2.43-.18-.05-.35-.11-.53-.18-4.39-1.59-6.84-6.34-5.52-10.87.54-1.83,1.61-3.36,3.01-4.46,2.19-1.75,5.16-2.43,8.05-1.58l.07.02c.06.02.11.03.16.06.88,2.57,2.93,4.7,5.69,5.58.14.4.25.81.33,1.23-.94.98-1.67,2.21-2.08,3.61-.38,1.29-.44,2.58-.26,3.82Z"/>
    <path class="cls-2" d="m58.41,93.25c-.07.08-.14.17-.22.25-.03-.11-.05-.23-.07-.34.1.03.19.06.29.09Z"/>
    <path class="cls-2" d="m75.48,94.34c-1.38,4.71-6.33,7.42-11.04,6.04-.09-.03-.17-.05-.26-.09-3.18-1.03-5.41-3.71-5.99-6.8.08-.08.15-.16.22-.25-.09-.04-.19-.07-.29-.09-.18-1.24-.11-2.53.26-3.82.41-1.4,1.13-2.63,2.08-3.61.3-.33.63-.64.99-.91,2.51.41,4.99-.29,6.89-1.78.09.02.17.03.26.05.28.04.56.11.84.19,2.86.84,4.98,2.99,5.9,5.61.59,1.69.68,3.59.14,5.44Z"/>
    <path class="cls-2" d="m58.41,93.25c-.07.08-.14.17-.22.25-.03-.11-.05-.23-.07-.34.1.03.19.06.29.09Z"/>
  </g>
  <rect class="cls-3" x="-111.17" y="-1403.97" width="3385.57" height="2571.67"/>
</svg>