<?xml version="1.0" encoding="UTF-8"?>
<svg id="Calque_1" data-name="Calque 1" xmlns="http://www.w3.org/2000/svg" viewBox="0 0 128 128">
  <defs>
    <style>
      .cls-1, .cls-2, .cls-3, .cls-4, .cls-5, .cls-6 {
        fill: none;
      }

      .cls-2, .cls-3, .cls-7, .cls-4, .cls-6 {
        stroke: #000;
      }

      .cls-2, .cls-3, .cls-5 {
        stroke-linecap: round;
        stroke-linejoin: round;
      }

      .cls-8 {
        fill: #a07637;
      }

      .cls-3, .cls-4 {
        stroke-width: 2px;
      }

      .cls-7 {
        stroke-width: .25px;
      }

      .cls-7, .cls-4, .cls-6 {
        stroke-miterlimit: 10;
      }

      .cls-5 {
        stroke: #fff;
        stroke-width: 8px;
      }
    </style>
  </defs>
  <path class="cls-8" d="m59.66,61.28l2.3,3.27c1.16-4.08,1.87-8.27,2.3-11.78,0-.04,0-.07,0-.1.02-.18.04-.37.07-.52.05-.48.1-.87.14-1.16.02-.28.05-.45.05-.51-.13.3-2.35,5.72-4.87,10.8Zm-10.32,6.16c-1.3-.73-2.69-.72-8.06-.72s-6.9-.18-8.1.72c-1.69,1.26-1.7,4.5-4.97,2.58-3.26-1.92-10.35-19.56-10.35-19.56,0,0,.02.18.05.52.04.29.09.68.14,1.16.03.15.05.34.07.52,0,.03,0,.06,0,.1.99,7.9,3.38,19.23,9.03,24.97,7.24,7.35,12.18,8.2,13.98,8.22.09,0,.18,0,.29,0,1.8-.02,6.69-.87,13.87-8.22.8-.82,1.53-1.75,2.2-2.77l-3.48-4.92c-3.19,1.85-2.81-1.58-4.68-2.61Zm.24,4.91c-.56,1.96-4.81,4.59-7.89,4.59h-1.06c-3.08,0-7.34-2.63-7.9-4.59-.56-1.96.39-2.07,1.22-2.86.62-.58,4.29-.3,6.16-.12.7.08,1.4.08,2.1,0,1.87-.18,5.54-.46,6.15.12.82.78,1.77.9,1.22,2.86Z"/>
  <path class="cls-1" d="m16.92,44.02S6.28,18.83,27.95,12.8c0,0,1.21-4.57,6.48-3.09,0,0,5.26-6.55,13.86-.16,0,0,4.85-1.56,6.48,3.09,0,0,19.9,3.32,11.04,31.21,0,0,.2-7.2-6.71-18.47,0,0-2.82-.04-4.39-1.96,0,0-4.81,1.18-7.03-2.68,0,0-3.63,3.08-7.64.32,0,0-2.99,3.26-7.81,1.03,0,0-1.56,1.73-5.97,1.55,0,0-.51.93-4.09,2.04,0,0-5.25,8.03-5.27,18.32Z"/>
  <path class="cls-2" d="m20.93,43.99s11.1-6.2,16.67,7.25"/>
  <path class="cls-2" d="m24.32,46.83s4.06-3.31,8.86.75"/>
  <path class="cls-2" d="m32.83,51.99s-1.15-.13-3.33.08c-3.92.37-5.83-1.76-5.83-1.76l.07-.7s5.16-4.54,10.53,1.84"/>
  <path class="cls-2" d="m37.05,59.24s-3.41,3.47,0,6.01"/>
  <path class="cls-2" d="m37.29,63.43s1.41,1.23,2.53,1.69"/>
  <path class="cls-3" d="m27.9,14.93s3.27,8.8,8.54,8.62c5.27-.18,5.95-9.62,5.95-9.62"/>
  <path class="cls-3" d="m19.82,21.91s6.48,4.68,13.35.57"/>
  <path class="cls-3" d="m17.86,26.59s6.67.06,9.45-2.42"/>
  <path class="cls-3" d="m16.75,44.56s-5.31-3.02-5.53,2.01,1.89,4.63,3.33,9.61c1.43,4.98,4.54,5.73,4.54,5.73"/>
  <path class="cls-2" d="m40.14,14.23s-.81,3.47-2.39,5.91"/>
  <circle class="cls-2" cx="28.55" cy="50.24" r="1.78"/>
  <circle class="cls-7" cx="29.1" cy="50.21" r=".88"/>
  <path class="cls-2" d="m61.46,43.83s-11.1-6.2-16.67,7.25"/>
  <path class="cls-2" d="m58.08,46.66s-4.06-3.31-8.86.75"/>
  <path class="cls-2" d="m45.35,59.08s3.41,3.47,0,6.01"/>
  <path class="cls-3" d="m62.57,21.75s-10.89,5.35-15.04-.47"/>
  <path class="cls-3" d="m64.53,26.43s-6.75.24-9.53-2.24"/>
  <path class="cls-3" d="m59.56,26.83s6.56,11.35,6.09,17.56c0,0,9.54-24.62-11.04-31.21,0,0-1.11-4.16-6.48-3.09-7.08-6.17-13.86.16-13.86.16-5.37-1.07-6.48,3.09-6.48,3.09-20.58,6.59-11.04,31.21-11.04,31.21-.47-6.21,6.09-18.77,6.09-18.77"/>
  <path class="cls-3" d="m16.68,43.38s.05,2.62.44,6.49c0,0,.02.19.06.54.04.39.08.79.13,1.2.02.17.04.36.07.54,0,.03,0,.07,0,.1,1.01,8.16,3.42,19.86,9.16,25.8,7.77,8.04,12.91,8.55,14.45,8.49.27,0,.42-.03.47-.04h-.02c-.09,0-.13-.02-.13-.02l.13.02h.02c.91.09,5.95.12,14.4-8.61,9.36-9.68,9.87-34.68,9.87-34.68,0,0-.51,25-9.87,34.68-8.44,8.73-13.49,8.7-14.4,8.61"/>
  <path class="cls-3" d="m65.65,44.4s5.31-3.02,5.53,2.01c.23,5.03-1.89,4.63-3.33,9.61s-4.54,5.73-4.54,5.73"/>
  <path class="cls-3" d="m40.22,21.14s4.56,5.78,10.71-3.89"/>
  <path class="cls-2" d="m33.75,70.71h14.95s-7.47,6.23-14.95,0Z"/>
  <path class="cls-2" d="m35.47,74.29s5.66,3.36,11.73-.11"/>
  <path class="cls-2" d="m49.53,51.79s1.15-.13,3.33.08c3.92.37,5.83-1.76,5.83-1.76l-.07-.7s-5.16-4.54-10.53,1.84"/>
  <circle class="cls-2" cx="53.82" cy="50.04" r="1.78"/>
  <path class="cls-2" d="m45.11,63.43s-1.41,1.23-2.53,1.69"/>
  <circle class="cls-7" cx="54.52" cy="50.04" r=".88"/>
  <path class="cls-4" d="m97.45,67.73l19.82,48.54c.62,1.53-.12,3.29-1.64,3.91l-.59.24c-1.52.62-3.28-.11-3.91-1.64l-19.82-48.54s.1.03.15.05c1.04.32,2.24.28,3.38-.19,1.14-.47,2.03-1.27,2.55-2.23.02-.04.05-.09.07-.14Z"/>
  <path class="cls-4" d="m104.74,51.49l2.06,5.05c.33.81-.06,1.74-.87,2.07l-26.8,10.94c-.81.33-1.74-.06-2.07-.87l-2.06-5.05c-.33-.81.06-1.74.87-2.07l26.8-10.94c.81-.33,1.74.06,2.07.87Z"/>
  <path class="cls-4" d="m105.44,58.82l.72,1.77c.28.7-.05,1.51-.75,1.79l-23.27,9.5c-.7.28-1.51-.06-1.79-.75l-.72-1.77,25.82-10.54Z"/>
  <path class="cls-4" d="m97.91,65.44c.08.79-.09,1.58-.46,2.29-.02.05-.05.09-.07.14-.52.96-1.4,1.77-2.55,2.23-1.14.47-2.34.51-3.38.19-.05-.01-.1-.03-.15-.05-.76-.25-1.44-.7-1.93-1.32l8.53-3.48Z"/>
  <line class="cls-6" x1="75.52" y1="64.92" x2="105.26" y2="52.77"/>
  <line class="cls-6" x1="76.54" y1="67.41" x2="106.28" y2="55.26"/>
  <rect class="cls-5" x="-1579.79" y="-1884.35" width="6467.34" height="6437.3"/>
</svg>