<?xml version="1.0" encoding="UTF-8"?>
<svg id="Calque_1" data-name="Calque 1" xmlns="http://www.w3.org/2000/svg" viewBox="0 0 128 128">
  <defs>
    <style>
      .cls-1, .cls-2, .cls-3, .cls-4, .cls-5, .cls-6, .cls-7, .cls-8 {
        stroke: #000;
      }

      .cls-1, .cls-2, .cls-9, .cls-6, .cls-8 {
        fill: none;
      }

      .cls-1, .cls-2, .cls-9, .cls-7, .cls-8 {
        stroke-linejoin: round;
      }

      .cls-1, .cls-7, .cls-8 {
        stroke-width: .84px;
      }

      .cls-10, .cls-7 {
        fill: #fff;
      }

      .cls-2 {
        stroke-width: 1.12px;
      }

      .cls-2, .cls-9, .cls-7, .cls-8 {
        stroke-linecap: round;
      }

      .cls-3 {
        fill: #f3d587;
      }

      .cls-3, .cls-4 {
        stroke-width: .25px;
      }

      .cls-3, .cls-4, .cls-5, .cls-6 {
        stroke-miterlimit: 10;
      }

      .cls-4 {
        fill: #fab0b4;
      }

      .cls-5 {
        fill: #d6d6d6;
      }

      .cls-9 {
        stroke: #fff;
        stroke-width: 8px;
      }

      .cls-6 {
        stroke-width: .15px;
      }
    </style>
  </defs>
  <path class="cls-5" d="m123.02,112.83c0,.8-.8,1.45-1.8,1.45H9.79c-1.12,0-2.02-.41-2.02-.91V16.65c0-.5.91-.91,2.02-.91h112.17c.59,0,1.06.38,1.06.86v96.23Z"/>
  <g>
    <path d="m29.67,23.8h-.78v1.41h-.73v-3.6h1.77c.25,0,.45.04.58.09.14.06.25.14.35.25.08.09.14.19.19.3s.07.24.07.38c0,.17-.04.34-.13.5-.09.17-.23.28-.43.35.17.07.28.16.35.28.07.12.1.31.1.56v.24c0,.16,0,.28.02.33.02.09.06.16.14.21v.09h-.83c-.02-.08-.04-.14-.05-.19-.02-.1-.03-.2-.03-.31v-.33c0-.23-.05-.38-.13-.46-.08-.08-.23-.11-.45-.11Zm.46-.65c.15-.07.22-.2.22-.41,0-.22-.07-.36-.22-.44-.08-.04-.2-.06-.37-.06h-.87v.97h.85c.17,0,.3-.02.38-.06Z"/>
    <path d="m34.76,23.64h-1.75v.93h1.99v.65h-2.73v-3.6h2.64v.64h-1.9v.76h1.75v.62Zm-1.56-2.31l.47-.73h.78l-.74.73h-.5Z"/>
    <path d="m37.62,23.91h-.76v1.29h-.75v-3.6h1.57c.36,0,.65.09.86.28s.32.47.32.86c0,.42-.11.73-.32.9s-.52.26-.92.26Zm.35-.75c.1-.09.15-.22.15-.41s-.05-.32-.15-.4c-.1-.08-.24-.12-.41-.12h-.7v1.06h.7c.18,0,.32-.04.42-.13Z"/>
    <path d="m42.05,23.82v-2.21h.76v2.21c0,.38-.06.68-.18.89-.22.39-.64.59-1.27.59s-1.05-.2-1.27-.59c-.12-.21-.18-.51-.18-.89v-2.21h.76v2.21c0,.25.03.43.09.54.09.2.29.3.6.3s.5-.1.59-.3c.06-.11.09-.29.09-.54Z"/>
    <path d="m45.68,25.21h-1.63v-3.6h1.75c.44,0,.75.13.94.38.11.15.17.34.17.55s-.06.4-.17.53c-.06.07-.15.14-.27.21.18.07.32.17.42.32.09.15.14.32.14.53s-.05.4-.16.57c-.07.11-.15.21-.26.28-.12.09-.25.15-.41.18-.16.03-.33.05-.51.05Zm.36-2.27c.1-.06.15-.16.15-.31,0-.17-.06-.28-.2-.33-.11-.04-.26-.06-.43-.06h-.79v.79h.88c.16,0,.29-.03.39-.09Zm-.37.69h-.9v.96h.88c.16,0,.28-.02.37-.06.16-.08.24-.23.24-.45,0-.19-.08-.32-.23-.39-.09-.04-.21-.06-.36-.06Z"/>
    <path d="m48.15,21.61h.75v2.95h1.78v.65h-2.53v-3.6Z"/>
    <path d="m51.64,21.61h.75v3.6h-.75v-3.6Z"/>
    <path d="m55.75,25.23c-.16.05-.35.08-.58.08-.47,0-.86-.14-1.16-.42-.37-.34-.56-.83-.56-1.48s.19-1.15.57-1.49c.31-.27.7-.41,1.16-.41s.86.15,1.17.44c.36.34.55.81.55,1.41,0,.32-.04.59-.12.81-.06.21-.16.38-.28.52l.42.39-.39.41-.43-.41c-.13.08-.25.14-.34.17Zm-.16-.65l-.36-.35.39-.41.36.35c.06-.12.1-.22.12-.31.04-.13.05-.29.05-.46,0-.4-.08-.72-.25-.94-.17-.22-.41-.33-.72-.33-.3,0-.54.11-.71.32s-.27.53-.27.95c0,.49.13.85.38,1.06.16.14.36.21.59.21.09,0,.17-.01.25-.03.04-.01.1-.03.17-.06Z"/>
    <path d="m60.11,23.82v-2.21h.76v2.21c0,.38-.06.68-.18.89-.22.39-.64.59-1.27.59s-1.05-.2-1.27-.59c-.12-.21-.18-.51-.18-.89v-2.21h.76v2.21c0,.25.03.43.09.54.09.2.29.3.6.3s.5-.1.59-.3c.06-.11.09-.29.09-.54Z"/>
    <path d="m64.59,23.64h-1.75v.93h1.99v.65h-2.73v-3.6h2.64v.64h-1.9v.76h1.75v.62Z"/>
    <path d="m70.36,22.25h-1.8v.83h1.58v.62h-1.58v1.51h-.75v-3.59h2.55v.63Z"/>
    <path d="m72.9,23.8h-.78v1.41h-.73v-3.6h1.77c.25,0,.45.04.58.09.14.06.25.14.35.25.08.09.14.19.19.3s.07.24.07.38c0,.17-.04.34-.13.5-.09.17-.23.28-.43.35.17.07.28.16.35.28.07.12.1.31.1.56v.24c0,.16,0,.28.02.33.02.09.06.16.14.21v.09h-.83c-.02-.08-.04-.14-.05-.19-.02-.1-.03-.2-.03-.31v-.33c0-.23-.05-.38-.13-.46-.08-.08-.23-.11-.45-.11Zm.46-.65c.15-.07.22-.2.22-.41,0-.22-.07-.36-.22-.44-.08-.04-.2-.06-.37-.06h-.87v.97h.85c.17,0,.3-.02.38-.06Z"/>
    <path d="m77.59,24.47h-1.33l-.25.74h-.79l1.28-3.6h.85l1.27,3.6h-.82l-.23-.74Zm-.21-.62l-.45-1.42-.46,1.42h.91Z"/>
    <path d="m82.5,25.21h-.75l-1.47-2.56v2.56h-.7v-3.6h.79l1.43,2.51v-2.51h.7v3.6Z"/>
    <path d="m85.04,26.1c.1,0,.17-.02.21-.06.04-.04.06-.08.06-.13,0-.07-.02-.12-.07-.14s-.1-.04-.15-.04c-.03,0-.06,0-.1.01-.03,0-.07.02-.11.03l-.1-.1.23-.36c-.39,0-.73-.17-1.02-.5-.3-.33-.44-.79-.44-1.37,0-.63.17-1.11.51-1.45.29-.3.67-.44,1.12-.44.61,0,1.05.2,1.33.6.15.22.24.45.25.67h-.75c-.05-.17-.11-.3-.19-.39-.14-.16-.34-.23-.61-.23s-.49.11-.65.33c-.16.22-.24.53-.24.94s.08.71.25.91c.17.2.38.3.64.3s.46-.09.6-.26c.08-.09.14-.23.19-.42h.74c-.06.39-.23.71-.5.96-.27.25-.59.37-.96.37l-.15.22c.05-.01.09-.02.11-.02.02,0,.05,0,.07,0,.13,0,.24.03.31.1.08.06.12.16.12.28,0,.15-.06.27-.18.36-.12.09-.28.13-.47.13-.08,0-.18-.02-.3-.05-.05-.02-.13-.04-.23-.08l.09-.21c.09.03.16.05.19.05.08.02.14.03.19.03Z"/>
    <path d="m89.92,24.47h-1.33l-.25.74h-.79l1.28-3.6h.85l1.27,3.6h-.82l-.23-.74Zm-.21-.62l-.45-1.42-.46,1.42h.91Z"/>
    <path d="m91.86,21.61h.75v3.6h-.75v-3.6Z"/>
    <path d="m95.12,24.69c.18,0,.32-.02.43-.06.21-.07.31-.21.31-.42,0-.12-.05-.21-.16-.28-.1-.06-.27-.12-.49-.17l-.38-.09c-.37-.08-.63-.18-.78-.28-.24-.17-.36-.43-.36-.78,0-.32.12-.59.35-.8s.58-.32,1.03-.32c.38,0,.7.1.97.3.27.2.41.49.42.88h-.72c-.01-.22-.11-.37-.28-.46-.12-.06-.26-.09-.44-.09-.19,0-.35.04-.46.12s-.17.19-.17.33c0,.13.06.22.17.29.07.04.23.09.47.15l.62.15c.27.06.48.15.62.26.21.17.32.41.32.73s-.13.6-.38.82c-.25.22-.61.33-1.07.33s-.84-.11-1.11-.32c-.27-.21-.4-.51-.4-.88h.72c.02.16.07.29.13.37.12.15.33.22.63.22Z"/>
    <path d="m100.15,23.64h-1.75v.93h1.99v.65h-2.73v-3.6h2.64v.64h-1.9v.76h1.75v.62Z"/>
    <path d="m28.48,28.34h1.3c.21,0,.39.03.53.1.26.12.4.35.4.68,0,.17-.04.31-.11.42-.07.11-.17.2-.3.26.11.05.2.11.25.18s.09.19.09.36v.38c.02.11.03.19.04.24.02.09.06.15.12.18v.06h-.48s-.02-.06-.03-.1-.01-.11-.02-.23l-.02-.48c0-.19-.08-.31-.2-.38-.07-.04-.19-.05-.34-.05h-.86v1.23h-.39v-2.87Zm1.26,1.31c.18,0,.32-.04.42-.11s.15-.2.15-.39c0-.2-.07-.34-.22-.42-.08-.04-.18-.06-.31-.06h-.92v.98h.87Z"/>
    <path d="m31.4,28.34h2.08v.35h-1.7v.87h1.57v.33h-1.57v.97h1.73v.34h-2.11v-2.87Zm1.5-.79l-.52.56h-.27l.36-.56h.43Z"/>
    <path d="m36.1,28.55c.2.19.31.41.33.65h-.38c-.04-.19-.13-.33-.25-.44s-.3-.16-.53-.16c-.28,0-.5.1-.67.3-.17.2-.26.5-.26.91,0,.34.08.61.23.82.15.21.38.31.69.31.28,0,.5-.11.64-.33.08-.12.14-.27.17-.46h.38c-.03.3-.14.56-.33.76-.23.25-.53.37-.91.37-.33,0-.61-.1-.83-.3-.29-.27-.44-.68-.44-1.24,0-.42.11-.77.33-1.04.24-.29.57-.44.99-.44.36,0,.64.1.84.29Z"/>
    <path d="m37.03,28.34h2.08v.35h-1.7v.87h1.57v.33h-1.57v.97h1.73v.34h-2.11v-2.87Zm1.5-.79l-.52.56h-.27l.36-.56h.43Z"/>
    <path d="m39.74,28.34h1.28c.25,0,.46.07.62.22.16.14.23.35.23.61,0,.22-.07.42-.21.58s-.35.25-.64.25h-.9v1.21h-.39v-2.87Zm1.51.39c-.08-.04-.2-.06-.35-.06h-.77v.99h.77c.17,0,.31-.04.42-.11s.16-.21.16-.39c0-.21-.08-.35-.23-.43Z"/>
    <path d="m42.5,28.34h.39v2.87h-.39v-2.87Z"/>
    <path d="m43.82,30.28c0,.16.05.29.11.4.12.19.34.29.66.29.14,0,.27-.02.38-.06.22-.08.33-.23.33-.43,0-.16-.05-.27-.14-.33-.1-.06-.25-.12-.45-.17l-.38-.09c-.25-.06-.42-.12-.52-.19-.18-.12-.26-.3-.26-.54,0-.26.09-.47.26-.63.17-.17.42-.25.74-.25.29,0,.54.07.75.22s.31.38.31.7h-.37c-.02-.15-.06-.27-.12-.35-.11-.15-.31-.22-.58-.22-.22,0-.38.05-.47.14s-.14.21-.14.34c0,.14.06.24.17.31.07.04.24.09.51.16l.39.09c.19.04.33.1.44.18.18.13.27.33.27.58,0,.32-.11.54-.34.68-.23.14-.49.21-.79.21-.35,0-.62-.09-.82-.27-.2-.18-.29-.43-.29-.74h.37Z"/>
    <path d="m46.53,30.28c0,.16.05.29.11.4.12.19.34.29.66.29.14,0,.27-.02.38-.06.22-.08.33-.23.33-.43,0-.16-.05-.27-.14-.33-.1-.06-.25-.12-.45-.17l-.38-.09c-.25-.06-.42-.12-.52-.19-.18-.12-.26-.3-.26-.54,0-.26.09-.47.26-.63.17-.17.42-.25.74-.25.29,0,.54.07.75.22s.31.38.31.7h-.37c-.02-.15-.06-.27-.12-.35-.11-.15-.31-.22-.58-.22-.22,0-.38.05-.47.14s-.14.21-.14.34c0,.14.06.24.17.31.07.04.24.09.51.16l.39.09c.19.04.33.1.44.18.18.13.27.33.27.58,0,.32-.11.54-.34.68-.23.14-.49.21-.79.21-.35,0-.62-.09-.82-.27-.2-.18-.29-.43-.29-.74h.37Z"/>
    <path d="m49.02,28.34h2.08v.35h-1.7v.87h1.57v.33h-1.57v.97h1.73v.34h-2.11v-2.87Zm1.5-.79l-.52.56h-.27l.36-.56h.43Z"/>
    <path d="m54.87,28.55c.2.19.31.41.33.65h-.38c-.04-.19-.13-.33-.25-.44s-.3-.16-.53-.16c-.28,0-.5.1-.67.3-.17.2-.26.5-.26.91,0,.34.08.61.23.82.15.21.38.31.69.31.28,0,.5-.11.64-.33.08-.12.14-.27.17-.46h.38c-.03.3-.14.56-.33.76-.23.25-.53.37-.91.37-.33,0-.61-.1-.83-.3-.29-.27-.44-.68-.44-1.24,0-.42.11-.77.33-1.04.24-.29.57-.44.99-.44.36,0,.64.1.84.29Z"/>
    <path d="m58.13,28.75c.19.25.29.58.29.97,0,.43-.11.78-.33,1.07-.26.33-.62.5-1.09.5-.44,0-.79-.15-1.04-.44-.23-.28-.34-.64-.34-1.07,0-.39.1-.72.29-1,.25-.35.61-.53,1.1-.53s.88.16,1.12.49Zm-.34,1.83c.15-.25.23-.53.23-.85,0-.34-.09-.61-.26-.81-.18-.21-.42-.31-.72-.31s-.54.1-.73.31c-.19.2-.28.5-.28.9,0,.32.08.59.24.8s.42.33.78.33c.34,0,.59-.12.74-.37Z"/>
    <path d="m58.92,28.34h.46l1.43,2.32v-2.32h.37v2.87h-.44l-1.45-2.32v2.32h-.37v-2.87Z"/>
    <path d="m62.1,30.28c0,.16.05.29.11.4.12.19.34.29.66.29.14,0,.27-.02.38-.06.22-.08.33-.23.33-.43,0-.16-.05-.27-.14-.33-.1-.06-.25-.12-.45-.17l-.38-.09c-.25-.06-.42-.12-.52-.19-.18-.12-.26-.3-.26-.54,0-.26.09-.47.26-.63.17-.17.42-.25.74-.25.29,0,.54.07.75.22s.31.38.31.7h-.37c-.02-.15-.06-.27-.12-.35-.11-.15-.31-.22-.58-.22-.22,0-.38.05-.47.14s-.14.21-.14.34c0,.14.06.24.17.31.07.04.24.09.51.16l.39.09c.19.04.33.1.44.18.18.13.27.33.27.58,0,.32-.11.54-.34.68-.23.14-.49.21-.79.21-.35,0-.62-.09-.82-.27-.2-.18-.29-.43-.29-.74h.37Z"/>
    <path d="m66.64,28.34v.34h-.97v2.53h-.39v-2.53h-.97v-.34h2.33Z"/>
    <path d="m67.58,28.34h.44l1.04,2.87h-.43l-.29-.86h-1.13l-.31.86h-.4l1.08-2.87Zm.64,1.69l-.44-1.27-.46,1.27h.9Z"/>
    <path d="m71.24,28.34v.34h-.97v2.53h-.39v-2.53h-.97v-.34h2.33Z"/>
    <path d="m72.18,28.34h.44l1.04,2.87h-.43l-.29-.86h-1.13l-.31.86h-.4l1.08-2.87Zm.64,1.69l-.44-1.27-.46,1.27h.9Z"/>
    <path d="m74.05,28.34h.46l1.43,2.32v-2.32h.37v2.87h-.44l-1.45-2.32v2.32h-.37v-2.87Z"/>
    <path d="m79.07,28.34v.34h-.97v2.53h-.39v-2.53h-.97v-.34h2.33Z"/>
    <path d="m80.55,28.34h.39v2.53h1.44v.34h-1.83v-2.87Z"/>
    <path d="m82.85,28.34h2.08v.35h-1.7v.87h1.57v.33h-1.57v.97h1.73v.34h-2.11v-2.87Z"/>
    <path d="m86.69,28.34h1.15c.39,0,.69.14.91.42.19.25.29.58.29.97,0,.3-.06.58-.17.83-.2.44-.54.65-1.03.65h-1.14v-2.87Zm1.07,2.54c.13,0,.23-.01.32-.04.15-.05.27-.15.36-.29.08-.12.13-.26.16-.45.02-.11.03-.21.03-.3,0-.36-.07-.63-.21-.83-.14-.2-.36-.29-.67-.29h-.67v2.2h.68Z"/>
    <path d="m89.64,28.34h2.08v.35h-1.7v.87h1.57v.33h-1.57v.97h1.73v.34h-2.11v-2.87Zm1.5-.79l-.52.56h-.27l.36-.56h.43Z"/>
    <path d="m92.35,28.34h1.28c.25,0,.46.07.62.22.16.14.23.35.23.61,0,.22-.07.42-.21.58s-.35.25-.64.25h-.9v1.21h-.39v-2.87Zm1.51.39c-.08-.04-.2-.06-.35-.06h-.77v.99h.77c.17,0,.31-.04.42-.11s.16-.21.16-.39c0-.21-.08-.35-.23-.43Z"/>
    <path d="m97.38,28.75c.19.25.29.58.29.97,0,.43-.11.78-.33,1.07-.26.33-.62.5-1.09.5-.44,0-.79-.15-1.04-.44-.23-.28-.34-.64-.34-1.07,0-.39.1-.72.29-1,.25-.35.61-.53,1.1-.53s.88.16,1.12.49Zm-.34,1.83c.15-.25.23-.53.23-.85,0-.34-.09-.61-.26-.81-.18-.21-.42-.31-.72-.31s-.54.1-.73.31c-.19.2-.28.5-.28.9,0,.32.08.59.24.8s.42.33.78.33c.34,0,.59-.12.74-.37Zm-.56-3.11l.4.56h-.32l-.26-.37-.26.37h-.32l.4-.56h.37Z"/>
    <path d="m100.25,28.34v.34h-.97v2.53h-.39v-2.53h-.97v-.34h2.33Z"/>
    <path d="m39.32,33.14h1.15c.39,0,.69.14.91.42.19.25.29.58.29.97,0,.3-.06.58-.17.83-.2.44-.54.65-1.03.65h-1.14v-2.87Zm1.07,2.54c.13,0,.23-.01.32-.04.15-.05.27-.15.36-.29.08-.12.13-.26.16-.45.02-.11.03-.21.03-.3,0-.36-.07-.63-.21-.83-.14-.2-.36-.29-.67-.29h-.67v2.2h.68Z"/>
    <path d="m42.26,33.97c.07-.01.13-.05.16-.12s.06-.15.06-.24c0,0,0-.02,0-.02s0-.02,0-.02h-.21v-.43h.42v.39c0,.17-.03.31-.1.42s-.17.18-.31.2v-.18Z"/>
    <path d="m43.58,33.14v1.77c0,.21.04.38.12.52.12.21.31.31.59.31.33,0,.56-.11.68-.34.06-.12.1-.29.1-.49v-1.77h.39v1.61c0,.35-.05.62-.14.81-.18.35-.51.52-.99.52s-.82-.17-.99-.52c-.1-.19-.14-.46-.14-.81v-1.61h.39Z"/>
    <path d="m46.09,33.14h.46l1.43,2.32v-2.32h.37v2.87h-.44l-1.45-2.32v2.32h-.37v-2.87Z"/>
    <path d="m49.06,33.14h2.08v.35h-1.7v.87h1.57v.33h-1.57v.97h1.73v.34h-2.11v-2.87Z"/>
    <path d="m52.9,33.14h1.15c.39,0,.69.14.91.42.19.25.29.58.29.97,0,.3-.06.58-.17.83-.2.44-.54.65-1.03.65h-1.14v-2.87Zm1.07,2.54c.13,0,.23-.01.32-.04.15-.05.27-.15.36-.29.08-.12.13-.26.16-.45.02-.11.03-.21.03-.3,0-.36-.07-.63-.21-.83-.14-.2-.36-.29-.67-.29h-.67v2.2h.68Z"/>
    <path d="m55.84,33.14h2.08v.35h-1.7v.87h1.57v.33h-1.57v.97h1.73v.34h-2.11v-2.87Z"/>
    <path d="m58.5,33.14h.56l.83,2.43.82-2.43h.55v2.87h-.37v-1.69c0-.06,0-.16,0-.29s0-.28,0-.44l-.82,2.42h-.38l-.83-2.42v.09c0,.07,0,.18,0,.32s0,.25,0,.32v1.69h-.37v-2.87Z"/>
    <path d="m62.72,33.14h.44l1.04,2.87h-.43l-.29-.86h-1.13l-.31.86h-.4l1.08-2.87Zm.64,1.69l-.44-1.27-.46,1.27h.9Z"/>
    <path d="m64.59,33.14h.46l1.43,2.32v-2.32h.37v2.87h-.44l-1.45-2.32v2.32h-.37v-2.87Z"/>
    <path d="m67.54,33.14h1.15c.39,0,.69.14.91.42.19.25.29.58.29.97,0,.3-.06.58-.17.83-.2.44-.54.65-1.03.65h-1.14v-2.87Zm1.07,2.54c.13,0,.23-.01.32-.04.15-.05.27-.15.36-.29.08-.12.13-.26.16-.45.02-.11.03-.21.03-.3,0-.36-.07-.63-.21-.83-.14-.2-.36-.29-.67-.29h-.67v2.2h.68Z"/>
    <path d="m70.49,33.14h2.08v.35h-1.7v.87h1.57v.33h-1.57v.97h1.73v.34h-2.11v-2.87Z"/>
    <path d="m74.33,33.14h1.15c.39,0,.69.14.91.42.19.25.29.58.29.97,0,.3-.06.58-.17.83-.2.44-.54.65-1.03.65h-1.14v-2.87Zm1.07,2.54c.13,0,.23-.01.32-.04.15-.05.27-.15.36-.29.08-.12.13-.26.16-.45.02-.11.03-.21.03-.3,0-.36-.07-.63-.21-.83-.14-.2-.36-.29-.67-.29h-.67v2.2h.68Z"/>
    <path d="m77.27,33.97c.07-.01.13-.05.16-.12s.06-.15.06-.24c0,0,0-.02,0-.02s0-.02,0-.02h-.21v-.43h.42v.39c0,.17-.03.31-.1.42s-.17.18-.31.2v-.18Z"/>
    <path d="m79,33.14h.44l1.04,2.87h-.43l-.29-.86h-1.13l-.31.86h-.4l1.08-2.87Zm.64,1.69l-.44-1.27-.46,1.27h.9Z"/>
    <path d="m81.13,35.08c0,.16.05.29.11.4.12.19.34.29.66.29.14,0,.27-.02.38-.06.22-.08.33-.23.33-.43,0-.16-.05-.27-.14-.33-.1-.06-.25-.12-.45-.17l-.38-.09c-.25-.06-.42-.12-.52-.19-.18-.12-.26-.3-.26-.54,0-.26.09-.47.26-.63.17-.17.42-.25.74-.25.29,0,.54.07.75.22.2.15.31.38.31.7h-.37c-.02-.15-.06-.27-.12-.35-.11-.15-.31-.22-.58-.22-.22,0-.38.05-.47.14s-.14.21-.14.34c0,.14.06.24.17.31.07.04.24.09.51.16l.39.09c.19.04.33.1.44.18.18.13.27.33.27.58,0,.32-.11.54-.34.68-.23.14-.49.21-.79.21-.35,0-.62-.09-.82-.27-.2-.18-.29-.43-.29-.74h.37Z"/>
    <path d="m83.67,33.14h.39v2.87h-.39v-2.87Z"/>
    <path d="m84.74,33.14h.39v2.53h1.44v.34h-1.83v-2.87Z"/>
    <path d="m87.04,33.14h2.08v.35h-1.7v.87h1.57v.33h-1.57v.97h1.73v.34h-2.11v-2.87Z"/>
  </g>
  <polygon class="cls-3" points="10.47 23.97 13.95 26.01 17.43 23.97 17.43 20.13 13.96 18.05 10.47 20.13 10.47 23.97"/>
  <polygon class="cls-4" points="113.66 23.97 117.14 26.01 120.63 23.97 120.63 20.13 117.15 18.05 113.66 20.13 113.66 23.97"/>
  <g>
    <path d="m15.04,44.27h.64c.13,0,.23.04.31.11s.12.17.12.3c0,.11-.03.21-.1.29s-.18.12-.32.12h-.45v.61h-.19v-1.43Zm.75.2s-.1-.03-.18-.03h-.38v.5h.38c.09,0,.16-.02.21-.06.05-.04.08-.1.08-.2,0-.11-.04-.18-.12-.21Z"/>
    <path d="m16.4,44.27h.65c.11,0,.2.02.27.05.13.06.2.17.2.34,0,.09-.02.16-.05.21s-.08.1-.15.13c.06.02.1.05.13.09s.04.1.05.18v.19c0,.05.01.1.02.12.01.05.03.07.06.09v.03h-.24s-.01-.03-.02-.05,0-.06,0-.11v-.24c-.02-.09-.05-.16-.11-.19-.04-.02-.09-.03-.17-.03h-.43v.62h-.19v-1.43Zm.63.66c.09,0,.16-.02.21-.05.05-.04.08-.1.08-.2,0-.1-.04-.17-.11-.21-.04-.02-.09-.03-.15-.03h-.46v.49h.44Z"/>
    <path d="m17.86,44.27h1.04v.18h-.85v.44h.79v.17h-.79v.49h.87v.17h-1.06v-1.43Zm.75-.4l-.26.28h-.13l.18-.28h.22Z"/>
    <path d="m19.21,44.27h1v.18h-.8v.44h.7v.17h-.7v.65h-.19v-1.43Z"/>
    <path d="m20.45,44.27h1.04v.18h-.85v.44h.79v.17h-.79v.49h.87v.17h-1.06v-1.43Z"/>
    <path d="m22.8,44.37c.1.1.15.2.17.33h-.19c-.02-.09-.06-.17-.13-.22s-.15-.08-.27-.08c-.14,0-.25.05-.34.15-.09.1-.13.25-.13.46,0,.17.04.3.12.41s.19.16.34.16c.14,0,.25-.06.32-.17.04-.06.07-.13.09-.23h.19c-.02.15-.07.28-.17.38-.11.12-.26.18-.46.18-.17,0-.3-.05-.42-.15-.15-.13-.22-.34-.22-.62,0-.21.06-.39.17-.52.12-.15.28-.22.5-.22.18,0,.32.05.42.14Z"/>
    <path d="m24.3,44.27v.17h-.48v1.26h-.2v-1.26h-.48v-.17h1.16Z"/>
    <path d="m24.7,44.27v.89c0,.1.02.19.06.26.06.1.16.16.3.16.17,0,.28-.06.34-.17.03-.06.05-.14.05-.25v-.89h.2v.81c0,.18-.02.31-.07.41-.09.17-.25.26-.5.26s-.41-.09-.5-.26c-.05-.1-.07-.23-.07-.41v-.81h.2Z"/>
    <path d="m25.98,44.27h.65c.11,0,.2.02.27.05.13.06.2.17.2.34,0,.09-.02.16-.05.21s-.08.1-.15.13c.06.02.1.05.13.09s.04.1.05.18v.19c0,.05.01.1.02.12.01.05.03.07.06.09v.03h-.24s-.01-.03-.02-.05,0-.06,0-.11v-.24c-.02-.09-.05-.16-.11-.19-.04-.02-.09-.03-.17-.03h-.43v.62h-.19v-1.43Zm.63.66c.09,0,.16-.02.21-.05.05-.04.08-.1.08-.2,0-.1-.04-.17-.11-.21-.04-.02-.09-.03-.15-.03h-.46v.49h.44Z"/>
    <path d="m27.44,44.27h1.04v.18h-.85v.44h.79v.17h-.79v.49h.87v.17h-1.06v-1.43Z"/>
    <path d="m15.03,46.67h.57c.19,0,.35.07.45.21.1.13.14.29.14.49,0,.15-.03.29-.08.41-.1.22-.27.33-.51.33h-.57v-1.43Zm.54,1.27c.06,0,.12,0,.16-.02.07-.03.13-.07.18-.15.04-.06.06-.13.08-.22,0-.05.01-.1.01-.15,0-.18-.03-.32-.1-.41-.07-.1-.18-.15-.33-.15h-.34v1.1h.34Z"/>
    <path d="m17.67,46.87c.1.13.14.29.14.49,0,.21-.05.39-.16.53-.13.17-.31.25-.55.25-.22,0-.39-.07-.52-.22-.11-.14-.17-.32-.17-.53,0-.19.05-.36.14-.5.12-.18.31-.27.55-.27s.44.08.56.24Zm-.17.91c.08-.12.11-.26.11-.42,0-.17-.04-.3-.13-.41s-.21-.15-.36-.15-.27.05-.36.15-.14.25-.14.45c0,.16.04.29.12.4.08.11.21.16.39.16s.29-.06.37-.18Z"/>
    <path d="m18.19,47.64c0,.08.02.15.06.2.06.1.17.14.33.14.07,0,.13-.01.19-.03.11-.04.17-.11.17-.22,0-.08-.02-.13-.07-.17-.05-.03-.12-.06-.23-.08l-.19-.04c-.12-.03-.21-.06-.26-.09-.09-.06-.13-.15-.13-.27,0-.13.04-.23.13-.32.09-.08.21-.12.37-.12.15,0,.27.04.37.11.1.07.15.19.15.35h-.18c0-.08-.03-.14-.06-.18-.06-.07-.15-.11-.29-.11-.11,0-.19.02-.24.07-.05.05-.07.1-.07.17,0,.07.03.12.08.15.04.02.12.05.25.08l.19.05c.09.02.17.05.22.09.09.07.13.16.13.29,0,.16-.06.27-.17.34s-.24.1-.39.1c-.17,0-.31-.05-.41-.14-.1-.09-.15-.21-.14-.37h.18Z"/>
    <path d="m19.54,47.64c0,.08.02.15.06.2.06.1.17.14.33.14.07,0,.13-.01.19-.03.11-.04.17-.11.17-.22,0-.08-.02-.13-.07-.17-.05-.03-.12-.06-.23-.08l-.19-.04c-.12-.03-.21-.06-.26-.09-.09-.06-.13-.15-.13-.27,0-.13.04-.23.13-.32.09-.08.21-.12.37-.12.15,0,.27.04.37.11.1.07.15.19.15.35h-.18c0-.08-.03-.14-.06-.18-.06-.07-.15-.11-.29-.11-.11,0-.19.02-.24.07-.05.05-.07.1-.07.17,0,.07.03.12.08.15.04.02.12.05.25.08l.19.05c.09.02.17.05.22.09.09.07.13.16.13.29,0,.16-.06.27-.17.34s-.24.1-.39.1c-.17,0-.31-.05-.41-.14-.1-.09-.15-.21-.14-.37h.18Z"/>
    <path d="m20.81,46.67h.2v1.43h-.2v-1.43Z"/>
    <path d="m21.36,46.67h1.04v.18h-.85v.44h.79v.17h-.79v.49h.87v.17h-1.06v-1.43Z"/>
    <path d="m22.72,46.67h.65c.11,0,.2.02.27.05.13.06.2.17.2.34,0,.09-.02.16-.05.21s-.08.1-.15.13c.06.02.1.05.13.09s.04.1.05.18v.19c0,.05.01.1.02.12.01.05.03.07.06.09v.03h-.24s-.01-.03-.02-.05,0-.06,0-.11v-.24c-.02-.09-.05-.16-.11-.19-.04-.02-.09-.03-.17-.03h-.43v.62h-.19v-1.43Zm.63.66c.09,0,.16-.02.21-.05.05-.04.08-.1.08-.2,0-.1-.04-.17-.11-.21-.04-.02-.09-.03-.15-.03h-.46v.49h.44Z"/>
    <path d="m24.74,46.67h.23l.72,1.16v-1.16h.19v1.43h-.22l-.73-1.16v1.16h-.19v-1.43Z"/>
    <path d="m26.66,46.79c.06.06.08.13.08.21s-.03.16-.09.21-.13.08-.21.08c-.09,0-.16-.03-.21-.09s-.08-.13-.08-.21c0-.08.03-.15.09-.21s.13-.09.21-.09.15.03.21.09Zm-.34.34s.08.06.13.06.09-.02.13-.06.06-.08.06-.13-.02-.09-.06-.13-.08-.06-.13-.06-.1.02-.13.06-.06.08-.06.13.02.09.06.13Z"/>
    <path d="m15.04,49.07h1.04v.18h-.85v.44h.79v.17h-.79v.49h.87v.17h-1.06v-1.43Z"/>
    <path d="m16.37,49.07h.23l.72,1.16v-1.16h.19v1.43h-.22l-.73-1.16v1.16h-.19v-1.43Z"/>
    <path d="m18.88,49.07v.17h-.48v1.26h-.2v-1.26h-.48v-.17h1.16Z"/>
    <path d="m19.1,49.07h.65c.11,0,.2.02.27.05.13.06.2.17.2.34,0,.09-.02.16-.05.21s-.08.1-.15.13c.06.02.1.05.13.09s.04.1.05.18v.19c0,.05.01.1.02.12.01.05.03.07.06.09v.03h-.24s-.01-.03-.02-.05,0-.06,0-.11v-.24c-.02-.09-.05-.16-.11-.19-.04-.02-.09-.03-.17-.03h-.43v.62h-.19v-1.43Zm.63.66c.09,0,.16-.02.21-.05.05-.04.08-.1.08-.2,0-.1-.04-.17-.11-.21-.04-.02-.09-.03-.15-.03h-.46v.49h.44Z"/>
    <path d="m20.56,49.07h1.04v.18h-.85v.44h.79v.17h-.79v.49h.87v.17h-1.06v-1.43Zm.75-.4l-.26.28h-.13l.18-.28h.22Z"/>
    <path d="m21.92,49.07h1.04v.18h-.85v.44h.79v.17h-.79v.49h.87v.17h-1.06v-1.43Z"/>
    <path d="m23.85,49.07h1.04v.18h-.85v.44h.79v.17h-.79v.49h.87v.17h-1.06v-1.43Z"/>
    <path d="m25.18,49.07h.23l.72,1.16v-1.16h.19v1.43h-.22l-.73-1.16v1.16h-.19v-1.43Z"/>
    <path d="m27.24,49.07h1v.18h-.8v.44h.7v.17h-.7v.65h-.19v-1.43Z"/>
    <path d="m28.49,49.07h.65c.11,0,.2.02.27.05.13.06.2.17.2.34,0,.09-.02.16-.05.21s-.08.1-.15.13c.06.02.1.05.13.09s.04.1.05.18v.19c0,.05.01.1.02.12.01.05.03.07.06.09v.03h-.24s-.01-.03-.02-.05,0-.06,0-.11v-.24c-.02-.09-.05-.16-.11-.19-.04-.02-.09-.03-.17-.03h-.43v.62h-.19v-1.43Zm.63.66c.09,0,.16-.02.21-.05.05-.04.08-.1.08-.2,0-.1-.04-.17-.11-.21-.04-.02-.09-.03-.15-.03h-.46v.49h.44Z"/>
    <path d="m30.35,49.07h.22l.52,1.43h-.21l-.15-.43h-.57l-.16.43h-.2l.54-1.43Zm.32.85l-.22-.63-.23.63h.45Z"/>
    <path d="m31.28,49.07h.23l.72,1.16v-1.16h.19v1.43h-.22l-.73-1.16v1.16h-.19v-1.43Z"/>
    <path d="m33.76,49.17c.1.1.15.2.17.33h-.19c-.02-.09-.06-.17-.13-.22s-.15-.08-.27-.08c-.14,0-.25.05-.34.15-.09.1-.13.25-.13.46,0,.17.04.3.12.41s.19.16.34.16c.14,0,.25-.06.32-.17.04-.06.07-.13.09-.23h.19c-.02.15-.07.28-.17.38-.11.12-.26.18-.46.18-.17,0-.3-.05-.42-.15-.15-.13-.22-.34-.22-.62,0-.21.06-.39.17-.52.12-.15.28-.22.5-.22.18,0,.32.05.42.14Z"/>
    <path d="m34.23,49.07h1.04v.18h-.85v.44h.79v.17h-.79v.49h.87v.17h-1.06v-1.43Z"/>
    <path d="m15.02,53.87h.23l.72,1.16v-1.16h.19v1.43h-.22l-.73-1.16v1.16h-.19v-1.43Z"/>
    <path d="m17.67,54.07c.1.13.14.29.14.49,0,.21-.05.39-.16.53-.13.17-.31.25-.55.25-.22,0-.39-.07-.52-.22-.11-.14-.17-.32-.17-.53,0-.19.05-.36.14-.5.12-.18.31-.27.55-.27s.44.08.56.24Zm-.17.91c.08-.12.11-.26.11-.42,0-.17-.04-.3-.13-.41s-.21-.15-.36-.15-.27.05-.36.15-.14.25-.14.45c0,.16.04.29.12.4.08.11.21.16.39.16s.29-.06.37-.18Z"/>
    <path d="m18.06,53.87h.28l.41,1.21.41-1.21h.28v1.43h-.19v-.85s0-.08,0-.15,0-.14,0-.22l-.41,1.21h-.19l-.41-1.21v.04s0,.09,0,.16,0,.12,0,.16v.85h-.19v-1.43Z"/>
    <path d="m15.04,58.67h.64c.13,0,.23.04.31.11s.12.17.12.3c0,.11-.03.21-.1.29s-.18.12-.32.12h-.45v.61h-.19v-1.43Zm.75.2s-.1-.03-.18-.03h-.38v.5h.38c.09,0,.16-.02.21-.06.05-.04.08-.1.08-.2,0-.11-.04-.18-.12-.21Z"/>
    <path d="m16.4,58.67h.65c.11,0,.2.02.27.05.13.06.2.17.2.34,0,.09-.02.16-.05.21s-.08.1-.15.13c.06.02.1.05.13.09s.04.1.05.18v.19c0,.05.01.1.02.12.01.05.03.07.06.09v.03h-.24s-.01-.03-.02-.05,0-.06,0-.11v-.24c-.02-.09-.05-.16-.11-.19-.04-.02-.09-.03-.17-.03h-.43v.62h-.19v-1.43Zm.63.66c.09,0,.16-.02.21-.05.05-.04.08-.1.08-.2,0-.1-.04-.17-.11-.21-.04-.02-.09-.03-.15-.03h-.46v.49h.44Z"/>
    <path d="m17.86,58.67h1.04v.18h-.85v.44h.79v.17h-.79v.49h.87v.17h-1.06v-1.43Zm.75-.4l-.26.28h-.13l.18-.28h.22Z"/>
    <path d="m19.19,58.67h.23l.72,1.16v-1.16h.19v1.43h-.22l-.73-1.16v1.16h-.19v-1.43Z"/>
    <path d="m21.84,58.87c.1.13.14.29.14.49,0,.21-.05.39-.16.53-.13.17-.31.25-.55.25-.22,0-.39-.07-.52-.22-.11-.14-.17-.32-.17-.53,0-.19.05-.36.14-.5.12-.18.31-.27.55-.27s.44.08.56.24Zm-.17.91c.08-.12.11-.26.11-.42,0-.17-.04-.3-.13-.41s-.21-.15-.36-.15-.27.05-.36.15-.14.25-.14.45c0,.16.04.29.12.4.08.11.21.16.39.16s.29-.06.37-.18Z"/>
    <path d="m22.23,58.67h.28l.41,1.21.41-1.21h.28v1.43h-.19v-.85s0-.08,0-.15,0-.14,0-.22l-.41,1.21h-.19l-.41-1.21v.04s0,.09,0,.16,0,.12,0,.16v.85h-.19v-1.43Z"/>
    <path d="m15.02,61.07h.23l.72,1.16v-1.16h.19v1.43h-.22l-.73-1.16v1.16h-.19v-1.43Z"/>
    <path d="m16.5,61.07h1.04v.18h-.85v.44h.79v.17h-.79v.49h.87v.17h-1.06v-1.43Zm.75-.4l-.26.28h-.13l.18-.28h.22Z"/>
    <path d="m18.28,61.04c-.1.2-.17.34-.2.44-.05.14-.07.31-.07.49s.03.36.08.52c.03.1.1.23.19.42h-.12c-.1-.15-.15-.24-.18-.28s-.05-.1-.07-.17c-.04-.1-.06-.2-.08-.31,0-.06-.01-.11-.01-.16,0-.19.03-.36.09-.51.04-.1.12-.24.24-.43h.12Z"/>
    <path d="m18.54,61.07h1.04v.18h-.85v.44h.79v.17h-.79v.49h.87v.17h-1.06v-1.43Z"/>
    <path d="m19.8,62.91c.1-.2.17-.35.2-.44.05-.14.07-.3.07-.49s-.03-.36-.08-.52c-.03-.1-.1-.23-.19-.42h.12c.1.16.16.26.18.3s.04.09.07.15c.03.08.05.16.07.24s.02.16.02.23c0,.19-.03.36-.09.52-.04.1-.12.24-.24.43h-.12Z"/>
    <path d="m21.14,61.07h.19v1.26h.72v.17h-.91v-1.43Z"/>
    <path d="m22.29,61.07h1.04v.18h-.85v.44h.79v.17h-.79v.49h.87v.17h-1.06v-1.43Z"/>
    <path d="m15.04,63.47h.64c.13,0,.23.04.31.11s.12.17.12.3c0,.11-.03.21-.1.29s-.18.12-.32.12h-.45v.61h-.19v-1.43Zm.75.2s-.1-.03-.18-.03h-.38v.5h.38c.09,0,.16-.02.21-.06.05-.04.08-.1.08-.2,0-.11-.04-.18-.12-.21Z"/>
    <path d="m16.39,63.47h1.04v.18h-.85v.44h.79v.17h-.79v.49h.87v.17h-1.06v-1.43Zm.65-.11h-.13l-.26-.28h.22l.18.28Z"/>
    <path d="m17.75,63.47h.65c.11,0,.2.02.27.05.13.06.2.17.2.34,0,.09-.02.16-.05.21s-.08.1-.15.13c.06.02.1.05.13.09s.04.1.05.18v.19c0,.05.01.1.02.12.01.05.03.07.06.09v.03h-.24s-.01-.03-.02-.05,0-.06,0-.11v-.24c-.02-.09-.05-.16-.11-.19-.04-.02-.09-.03-.17-.03h-.43v.62h-.19v-1.43Zm.63.66c.09,0,.16-.02.21-.05.05-.04.08-.1.08-.2,0-.1-.04-.17-.11-.21-.04-.02-.09-.03-.15-.03h-.46v.49h.44Z"/>
    <path d="m19.21,63.47h1.04v.18h-.85v.44h.79v.17h-.79v.49h.87v.17h-1.06v-1.43Z"/>
    <path d="m15.02,65.87h.28l.41,1.21.41-1.21h.28v1.43h-.19v-.85s0-.08,0-.15,0-.14,0-.22l-.41,1.21h-.19l-.41-1.21v.04s0,.09,0,.16,0,.12,0,.16v.85h-.19v-1.43Z"/>
    <path d="m16.73,65.87h1.04v.18h-.85v.44h.79v.17h-.79v.49h.87v.17h-1.06v-1.43Zm.65-.11h-.13l-.26-.28h.22l.18.28Z"/>
    <path d="m18.08,65.87h.65c.11,0,.2.02.27.05.13.06.2.17.2.34,0,.09-.02.16-.05.21s-.08.1-.15.13c.06.02.1.05.13.09s.04.1.05.18v.19c0,.05.01.1.02.12.01.05.03.07.06.09v.03h-.24s-.01-.03-.02-.05,0-.06,0-.11v-.24c-.02-.09-.05-.16-.11-.19-.04-.02-.09-.03-.17-.03h-.43v.62h-.19v-1.43Zm.63.66c.09,0,.16-.02.21-.05.05-.04.08-.1.08-.2,0-.1-.04-.17-.11-.21-.04-.02-.09-.03-.15-.03h-.46v.49h.44Z"/>
    <path d="m19.54,65.87h1.04v.18h-.85v.44h.79v.17h-.79v.49h.87v.17h-1.06v-1.43Z"/>
    <path d="m15.02,68.27h.23l.72,1.16v-1.16h.19v1.43h-.22l-.73-1.16v1.16h-.19v-1.43Z"/>
    <path d="m16.9,68.27h.22l.52,1.43h-.21l-.15-.43h-.57l-.16.43h-.2l.54-1.43Zm.32.85l-.22-.63-.23.63h.45Z"/>
    <path d="m18.73,68.27v.17h-.48v1.26h-.2v-1.26h-.48v-.17h1.16Z"/>
    <path d="m18.98,68.27h.2v1.43h-.2v-1.43Z"/>
    <path d="m20.69,68.47c.1.13.14.29.14.49,0,.21-.05.39-.16.53-.13.17-.31.25-.55.25-.22,0-.39-.07-.52-.22-.11-.14-.17-.32-.17-.53,0-.19.05-.36.14-.5.12-.18.31-.27.55-.27s.44.08.56.24Zm-.17.91c.08-.12.11-.26.11-.42,0-.17-.04-.3-.13-.41s-.21-.15-.36-.15-.27.05-.36.15-.14.25-.14.45c0,.16.04.29.12.4.08.11.21.16.39.16s.29-.06.37-.18Z"/>
    <path d="m21.08,68.27h.23l.72,1.16v-1.16h.19v1.43h-.22l-.73-1.16v1.16h-.19v-1.43Z"/>
    <path d="m22.97,68.27h.22l.52,1.43h-.21l-.15-.43h-.57l-.16.43h-.2l.54-1.43Zm.32.85l-.22-.63-.23.63h.45Z"/>
    <path d="m23.9,68.27h.19v1.26h.72v.17h-.91v-1.43Z"/>
    <path d="m25.08,68.27h.2v1.43h-.2v-1.43Z"/>
    <path d="m26.65,68.27v.17h-.48v1.26h-.2v-1.26h-.48v-.17h1.16Z"/>
    <path d="m26.87,68.27h1.04v.18h-.85v.44h.79v.17h-.79v.49h.87v.17h-1.06v-1.43Zm.75-.4l-.26.28h-.13l.18-.28h.22Z"/>
    <path d="m15.15,71.64c0,.08.02.15.06.2.06.1.17.14.33.14.07,0,.13-.01.19-.03.11-.04.17-.11.17-.22,0-.08-.02-.13-.07-.17-.05-.03-.12-.06-.23-.08l-.19-.04c-.12-.03-.21-.06-.26-.09-.09-.06-.13-.15-.13-.27,0-.13.04-.23.13-.32.09-.08.21-.12.37-.12.15,0,.27.04.37.11.1.07.15.19.15.35h-.18c0-.08-.03-.14-.06-.18-.06-.07-.15-.11-.29-.11-.11,0-.19.02-.24.07-.05.05-.07.1-.07.17,0,.07.03.12.08.15.04.02.12.05.25.08l.19.05c.09.02.17.05.22.09.09.07.13.16.13.29,0,.16-.06.27-.17.34s-.24.1-.39.1c-.17,0-.31-.05-.41-.14-.1-.09-.15-.21-.14-.37h.18Z"/>
    <path d="m16.42,70.67h.2v1.43h-.2v-1.43Z"/>
    <path d="m17.99,70.67v.17h-.48v1.26h-.2v-1.26h-.48v-.17h1.16Z"/>
    <path d="m18.4,70.67v.89c0,.1.02.19.06.26.06.1.16.16.3.16.17,0,.28-.06.34-.17.03-.06.05-.14.05-.25v-.89h.2v.81c0,.18-.02.31-.07.41-.09.17-.25.26-.5.26s-.41-.09-.5-.26c-.05-.1-.07-.23-.07-.41v-.81h.2Z"/>
    <path d="m20.07,70.67h.22l.52,1.43h-.21l-.15-.43h-.57l-.16.43h-.2l.54-1.43Zm.32.85l-.22-.63-.23.63h.45Z"/>
    <path d="m21.91,70.67v.17h-.48v1.26h-.2v-1.26h-.48v-.17h1.16Z"/>
    <path d="m22.15,70.67h.2v1.43h-.2v-1.43Z"/>
    <path d="m23.86,70.87c.1.13.14.29.14.49,0,.21-.05.39-.16.53-.13.17-.31.25-.55.25-.22,0-.39-.07-.52-.22-.11-.14-.17-.32-.17-.53,0-.19.05-.36.14-.5.12-.18.31-.27.55-.27s.44.08.56.24Zm-.17.91c.08-.12.11-.26.11-.42,0-.17-.04-.3-.13-.41s-.21-.15-.36-.15-.27.05-.36.15-.14.25-.14.45c0,.16.04.29.12.4.08.11.21.16.39.16s.29-.06.37-.18Z"/>
    <path d="m24.26,70.67h.23l.72,1.16v-1.16h.19v1.43h-.22l-.73-1.16v1.16h-.19v-1.43Z"/>
    <path d="m26.31,70.67h1v.18h-.8v.44h.7v.17h-.7v.65h-.19v-1.43Z"/>
    <path d="m27.85,70.67h.22l.52,1.43h-.21l-.15-.43h-.57l-.16.43h-.2l.54-1.43Zm.32.85l-.22-.63-.23.63h.45Z"/>
    <path d="m28.78,70.67h.28l.41,1.21.41-1.21h.28v1.43h-.19v-.85s0-.08,0-.15,0-.14,0-.22l-.41,1.21h-.19l-.41-1.21v.04s0,.09,0,.16,0,.12,0,.16v.85h-.19v-1.43Z"/>
    <path d="m30.51,70.67h.2v1.43h-.2v-1.43Z"/>
    <path d="m31.04,70.67h.19v1.26h.72v.17h-.91v-1.43Z"/>
    <path d="m32.22,70.67h.2v1.43h-.2v-1.43Z"/>
    <path d="m33.17,70.67h.22l.52,1.43h-.21l-.15-.43h-.57l-.16.43h-.2l.54-1.43Zm.32.85l-.22-.63-.23.63h.45Z"/>
    <path d="m34.11,70.67h.19v1.26h.72v.17h-.91v-1.43Z"/>
    <path d="m35.26,70.67h1.04v.18h-.85v.44h.79v.17h-.79v.49h.87v.17h-1.06v-1.43Z"/>
    <path d="m15.44,73.07h.22l.52,1.43h-.21l-.15-.43h-.57l-.16.43h-.2l.54-1.43Zm.32.85l-.22-.63-.23.63h.45Z"/>
    <path d="m16.38,73.07h.57c.19,0,.35.07.45.21.1.13.14.29.14.49,0,.15-.03.29-.08.41-.1.22-.27.33-.51.33h-.57v-1.43Zm.54,1.27c.06,0,.12,0,.16-.02.07-.03.13-.07.18-.15.04-.06.06-.13.08-.22,0-.05.01-.1.01-.15,0-.18-.03-.32-.1-.41-.07-.1-.18-.15-.33-.15h-.34v1.1h.34Z"/>
    <path d="m17.86,73.07h.65c.11,0,.2.02.27.05.13.06.2.17.2.34,0,.09-.02.16-.05.21s-.08.1-.15.13c.06.02.1.05.13.09s.04.1.05.18v.19c0,.05.01.1.02.12.01.05.03.07.06.09v.03h-.24s-.01-.03-.02-.05,0-.06,0-.11v-.24c-.02-.09-.05-.16-.11-.19-.04-.02-.09-.03-.17-.03h-.43v.62h-.19v-1.43Zm.63.66c.09,0,.16-.02.21-.05.05-.04.08-.1.08-.2,0-.1-.04-.17-.11-.21-.04-.02-.09-.03-.15-.03h-.46v.49h.44Z"/>
    <path d="m19.32,73.07h1.04v.18h-.85v.44h.79v.17h-.79v.49h.87v.17h-1.06v-1.43Z"/>
    <path d="m20.78,74.04c0,.08.02.15.06.2.06.1.17.14.33.14.07,0,.13-.01.19-.03.11-.04.17-.11.17-.22,0-.08-.02-.13-.07-.17-.05-.03-.12-.06-.23-.08l-.19-.04c-.12-.03-.21-.06-.26-.09-.09-.06-.13-.15-.13-.27,0-.13.04-.23.13-.32.09-.08.21-.12.37-.12.15,0,.27.04.37.11.1.07.15.19.15.35h-.18c0-.08-.03-.14-.06-.18-.06-.07-.15-.11-.29-.11-.11,0-.19.02-.24.07-.05.05-.07.1-.07.17,0,.07.03.12.08.15.04.02.12.05.25.08l.19.05c.09.02.17.05.22.09.09.07.13.16.13.29,0,.16-.06.27-.17.34s-.24.1-.39.1c-.17,0-.31-.05-.41-.14-.1-.09-.15-.21-.14-.37h.18Z"/>
    <path d="m22.14,74.04c0,.08.02.15.06.2.06.1.17.14.33.14.07,0,.13-.01.19-.03.11-.04.17-.11.17-.22,0-.08-.02-.13-.07-.17-.05-.03-.12-.06-.23-.08l-.19-.04c-.12-.03-.21-.06-.26-.09-.09-.06-.13-.15-.13-.27,0-.13.04-.23.13-.32.09-.08.21-.12.37-.12.15,0,.27.04.37.11.1.07.15.19.15.35h-.18c0-.08-.03-.14-.06-.18-.06-.07-.15-.11-.29-.11-.11,0-.19.02-.24.07-.05.05-.07.1-.07.17,0,.07.03.12.08.15.04.02.12.05.25.08l.19.05c.09.02.17.05.22.09.09.07.13.16.13.29,0,.16-.06.27-.17.34s-.24.1-.39.1c-.17,0-.31-.05-.41-.14-.1-.09-.15-.21-.14-.37h.18Z"/>
    <path d="m23.38,73.07h1.04v.18h-.85v.44h.79v.17h-.79v.49h.87v.17h-1.06v-1.43Z"/>
    <path d="m25.73,73.04c-.1.2-.17.34-.2.44-.05.14-.07.31-.07.49s.03.36.08.52c.03.1.1.23.19.42h-.12c-.1-.15-.15-.24-.18-.28s-.05-.1-.07-.17c-.04-.1-.06-.2-.08-.31,0-.06-.01-.11-.01-.16,0-.19.03-.36.09-.51.04-.1.12-.24.24-.43h.12Z"/>
    <path d="m27,73.17c.1.1.15.2.17.33h-.19c-.02-.09-.06-.17-.13-.22s-.15-.08-.27-.08c-.14,0-.25.05-.34.15-.09.1-.13.25-.13.46,0,.17.04.3.12.41s.19.16.34.16c.14,0,.25-.06.32-.17.04-.06.07-.13.09-.23h.19c-.02.15-.07.28-.17.38-.11.12-.26.18-.46.18-.17,0-.3-.05-.42-.15-.15-.13-.22-.34-.22-.62,0-.21.06-.39.17-.52.12-.15.28-.22.5-.22.18,0,.32.05.42.14Z"/>
    <path d="m27.45,73.07h.2v.59h.74v-.59h.2v1.43h-.2v-.67h-.74v.67h-.2v-1.43Z"/>
    <path d="m28.93,73.07h1.04v.18h-.85v.44h.79v.17h-.79v.49h.87v.17h-1.06v-1.43Z"/>
    <path d="m30.16,74.34l.88-1.1h-.82v-.17h1.07v.17l-.89,1.1h.89v.17h-1.13v-.16Z"/>
    <path d="m31.42,74.91c.1-.2.17-.35.2-.44.05-.14.07-.3.07-.49s-.03-.36-.08-.52c-.03-.1-.1-.23-.19-.42h.12c.1.16.16.26.18.3s.04.09.07.15c.03.08.05.16.07.24s.02.16.02.23c0,.19-.03.36-.09.52-.04.1-.12.24-.24.43h-.12Z"/>
    <path d="m15.04,77.87h.65c.11,0,.2.02.27.05.13.06.2.17.2.34,0,.09-.02.16-.05.21s-.08.1-.15.13c.06.02.1.05.13.09s.04.1.05.18v.19c0,.05.01.1.02.12.01.05.03.07.06.09v.03h-.24s-.01-.03-.02-.05,0-.06,0-.11v-.24c-.02-.09-.05-.16-.11-.19-.04-.02-.09-.03-.17-.03h-.43v.62h-.19v-1.43Zm.63.66c.09,0,.16-.02.21-.05.05-.04.08-.1.08-.2,0-.1-.04-.17-.11-.21-.04-.02-.09-.03-.15-.03h-.46v.49h.44Z"/>
    <path d="m16.5,77.87h1.04v.18h-.85v.44h.79v.17h-.79v.49h.87v.17h-1.06v-1.43Z"/>
    <path d="m18.85,77.97c.1.1.15.2.17.33h-.19c-.02-.09-.06-.17-.13-.22s-.15-.08-.27-.08c-.14,0-.25.05-.34.15-.09.1-.13.25-.13.46,0,.17.04.3.12.41s.19.16.34.16c.14,0,.25-.06.32-.17.04-.06.07-.13.09-.23h.19c-.02.15-.07.28-.17.38-.11.12-.26.18-.46.18-.17,0-.3-.05-.42-.15-.15-.13-.22-.34-.22-.62,0-.21.06-.39.17-.52.12-.15.28-.22.5-.22.18,0,.32.05.42.14Z"/>
    <path d="m19.32,77.87h1.04v.18h-.85v.44h.79v.17h-.79v.49h.87v.17h-1.06v-1.43Z"/>
    <path d="m20.68,77.87h.64c.13,0,.23.04.31.11s.12.17.12.3c0,.11-.03.21-.1.29s-.18.12-.32.12h-.45v.61h-.19v-1.43Zm.75.2s-.1-.03-.18-.03h-.38v.5h.38c.09,0,.16-.02.21-.06.05-.04.08-.1.08-.2,0-.11-.04-.18-.12-.21Z"/>
    <path d="m22.06,77.87h.2v1.43h-.2v-1.43Z"/>
    <path d="m22.71,78.84c0,.08.02.15.06.2.06.1.17.14.33.14.07,0,.13-.01.19-.03.11-.04.17-.11.17-.22,0-.08-.02-.13-.07-.17-.05-.03-.12-.06-.23-.08l-.19-.04c-.12-.03-.21-.06-.26-.09-.09-.06-.13-.15-.13-.27,0-.13.04-.23.13-.32.09-.08.21-.12.37-.12.15,0,.27.04.37.11.1.07.15.19.15.35h-.18c0-.08-.03-.14-.06-.18-.06-.07-.15-.11-.29-.11-.11,0-.19.02-.24.07-.05.05-.07.1-.07.17,0,.07.03.12.08.15.04.02.12.05.25.08l.19.05c.09.02.17.05.22.09.09.07.13.16.13.29,0,.16-.06.27-.17.34s-.24.1-.39.1c-.17,0-.31-.05-.41-.14-.1-.09-.15-.21-.14-.37h.18Z"/>
    <path d="m24.07,78.84c0,.08.02.15.06.2.06.1.17.14.33.14.07,0,.13-.01.19-.03.11-.04.17-.11.17-.22,0-.08-.02-.13-.07-.17-.05-.03-.12-.06-.23-.08l-.19-.04c-.12-.03-.21-.06-.26-.09-.09-.06-.13-.15-.13-.27,0-.13.04-.23.13-.32.09-.08.21-.12.37-.12.15,0,.27.04.37.11.1.07.15.19.15.35h-.18c0-.08-.03-.14-.06-.18-.06-.07-.15-.11-.29-.11-.11,0-.19.02-.24.07-.05.05-.07.1-.07.17,0,.07.03.12.08.15.04.02.12.05.25.08l.19.05c.09.02.17.05.22.09.09.07.13.16.13.29,0,.16-.06.27-.17.34s-.24.1-.39.1c-.17,0-.31-.05-.41-.14-.1-.09-.15-.21-.14-.37h.18Z"/>
    <path d="m25.31,77.87h1.04v.18h-.85v.44h.79v.17h-.79v.49h.87v.17h-1.06v-1.43Z"/>
    <path d="m28.24,77.97c.1.1.15.2.17.33h-.19c-.02-.09-.06-.17-.13-.22s-.15-.08-.27-.08c-.14,0-.25.05-.34.15-.09.1-.13.25-.13.46,0,.17.04.3.12.41s.19.16.34.16c.14,0,.25-.06.32-.17.04-.06.07-.13.09-.23h.19c-.02.15-.07.28-.17.38-.11.12-.26.18-.46.18-.17,0-.3-.05-.42-.15-.15-.13-.22-.34-.22-.62,0-.21.06-.39.17-.52.12-.15.28-.22.5-.22.18,0,.32.05.42.14Z"/>
    <path d="m29.87,78.07c.1.13.14.29.14.49,0,.21-.05.39-.16.53-.13.17-.31.25-.55.25-.22,0-.39-.07-.52-.22-.11-.14-.17-.32-.17-.53,0-.19.05-.36.14-.5.12-.18.31-.27.55-.27s.44.08.56.24Zm-.17.91c.08-.12.11-.26.11-.42,0-.17-.04-.3-.13-.41s-.21-.15-.36-.15-.27.05-.36.15-.14.25-.14.45c0,.16.04.29.12.4.08.11.21.16.39.16s.29-.06.37-.18Z"/>
    <path d="m30.26,77.87h.23l.72,1.16v-1.16h.19v1.43h-.22l-.73-1.16v1.16h-.19v-1.43Z"/>
    <path d="m31.86,78.84c0,.08.02.15.06.2.06.1.17.14.33.14.07,0,.13-.01.19-.03.11-.04.17-.11.17-.22,0-.08-.02-.13-.07-.17-.05-.03-.12-.06-.23-.08l-.19-.04c-.12-.03-.21-.06-.26-.09-.09-.06-.13-.15-.13-.27,0-.13.04-.23.13-.32.09-.08.21-.12.37-.12.15,0,.27.04.37.11.1.07.15.19.15.35h-.18c0-.08-.03-.14-.06-.18-.06-.07-.15-.11-.29-.11-.11,0-.19.02-.24.07-.05.05-.07.1-.07.17,0,.07.03.12.08.15.04.02.12.05.25.08l.19.05c.09.02.17.05.22.09.09.07.13.16.13.29,0,.16-.06.27-.17.34s-.24.1-.39.1c-.17,0-.31-.05-.41-.14-.1-.09-.15-.21-.14-.37h.18Z"/>
    <path d="m34.13,77.87v.17h-.48v1.26h-.2v-1.26h-.48v-.17h1.16Z"/>
    <path d="m34.59,77.87h.22l.52,1.43h-.21l-.15-.43h-.57l-.16.43h-.2l.54-1.43Zm.32.85l-.22-.63-.23.63h.45Z"/>
    <path d="m35.53,77.87h.23l.72,1.16v-1.16h.19v1.43h-.22l-.73-1.16v1.16h-.19v-1.43Z"/>
    <path d="m38.04,77.87v.17h-.48v1.26h-.2v-1.26h-.48v-.17h1.16Z"/>
    <path d="m38.78,77.87h.19v1.26h.72v.17h-.91v-1.43Z"/>
    <path d="m39.93,77.87h1.04v.18h-.85v.44h.79v.17h-.79v.49h.87v.17h-1.06v-1.43Z"/>
    <path d="m41.85,77.87h.57c.19,0,.35.07.45.21.1.13.14.29.14.49,0,.15-.03.29-.08.41-.1.22-.27.33-.51.33h-.57v-1.43Zm.54,1.27c.06,0,.12,0,.16-.02.07-.03.13-.07.18-.15.04-.06.06-.13.08-.22,0-.05.01-.1.01-.15,0-.18-.03-.32-.1-.41-.07-.1-.18-.15-.33-.15h-.34v1.1h.34Z"/>
    <path d="m43.33,77.87h.65c.11,0,.2.02.27.05.13.06.2.17.2.34,0,.09-.02.16-.05.21s-.08.1-.15.13c.06.02.1.05.13.09s.04.1.05.18v.19c0,.05.01.1.02.12.01.05.03.07.06.09v.03h-.24s-.01-.03-.02-.05,0-.06,0-.11v-.24c-.02-.09-.05-.16-.11-.19-.04-.02-.09-.03-.17-.03h-.43v.62h-.19v-1.43Zm.63.66c.09,0,.16-.02.21-.05.05-.04.08-.1.08-.2,0-.1-.04-.17-.11-.21-.04-.02-.09-.03-.15-.03h-.46v.49h.44Z"/>
    <path d="m45.95,78.07c.1.13.14.29.14.49,0,.21-.05.39-.16.53-.13.17-.31.25-.55.25-.22,0-.39-.07-.52-.22-.11-.14-.17-.32-.17-.53,0-.19.05-.36.14-.5.12-.18.31-.27.55-.27s.44.08.56.24Zm-.17.91c.08-.12.11-.26.11-.42,0-.17-.04-.3-.13-.41s-.21-.15-.36-.15-.27.05-.36.15-.14.25-.14.45c0,.16.04.29.12.4.08.11.21.16.39.16s.29-.06.37-.18Z"/>
    <path d="m46.39,77.87h.2v1.43h-.2v-1.43Z"/>
    <path d="m47.96,77.87v.17h-.48v1.26h-.2v-1.26h-.48v-.17h1.16Z"/>
    <path d="m48.71,77.87h.57c.19,0,.35.07.45.21.1.13.14.29.14.49,0,.15-.03.29-.08.41-.1.22-.27.33-.51.33h-.57v-1.43Zm.54,1.27c.06,0,.12,0,.16-.02.07-.03.13-.07.18-.15.04-.06.06-.13.08-.22,0-.05.01-.1.01-.15,0-.18-.03-.32-.1-.41-.07-.1-.18-.15-.33-.15h-.34v1.1h.34Z"/>
    <path d="m50.18,78.28s.06-.03.08-.06c.02-.03.03-.07.03-.12,0,0,0,0,0-.01s0,0,0-.01h-.11v-.21h.21v.2c0,.08-.02.15-.05.21s-.09.09-.16.1v-.09Z"/>
    <path d="m50.84,77.87v.89c0,.1.02.19.06.26.06.1.16.16.3.16.17,0,.28-.06.34-.17.03-.06.05-.14.05-.25v-.89h.2v.81c0,.18-.02.31-.07.41-.09.17-.25.26-.5.26s-.41-.09-.5-.26c-.05-.1-.07-.23-.07-.41v-.81h.2Z"/>
    <path d="m52.1,77.87h.23l.72,1.16v-1.16h.19v1.43h-.22l-.73-1.16v1.16h-.19v-1.43Z"/>
    <path d="m53.58,77.87h1.04v.18h-.85v.44h.79v.17h-.79v.49h.87v.17h-1.06v-1.43Z"/>
    <path d="m55.5,77.87h.57c.19,0,.35.07.45.21.1.13.14.29.14.49,0,.15-.03.29-.08.41-.1.22-.27.33-.51.33h-.57v-1.43Zm.54,1.27c.06,0,.12,0,.16-.02.07-.03.13-.07.18-.15.04-.06.06-.13.08-.22,0-.05.01-.1.01-.15,0-.18-.03-.32-.1-.41-.07-.1-.18-.15-.33-.15h-.34v1.1h.34Z"/>
    <path d="m56.97,77.87h1.04v.18h-.85v.44h.79v.17h-.79v.49h.87v.17h-1.06v-1.43Z"/>
    <path d="m58.3,77.87h.28l.41,1.21.41-1.21h.28v1.43h-.19v-.85s0-.08,0-.15,0-.14,0-.22l-.41,1.21h-.19l-.41-1.21v.04s0,.09,0,.16,0,.12,0,.16v.85h-.19v-1.43Z"/>
    <path d="m60.41,77.87h.22l.52,1.43h-.21l-.15-.43h-.57l-.16.43h-.2l.54-1.43Zm.32.85l-.22-.63-.23.63h.45Z"/>
    <path d="m61.35,77.87h.23l.72,1.16v-1.16h.19v1.43h-.22l-.73-1.16v1.16h-.19v-1.43Z"/>
    <path d="m62.82,77.87h.57c.19,0,.35.07.45.21.1.13.14.29.14.49,0,.15-.03.29-.08.41-.1.22-.27.33-.51.33h-.57v-1.43Zm.54,1.27c.06,0,.12,0,.16-.02.07-.03.13-.07.18-.15.04-.06.06-.13.08-.22,0-.05.01-.1.01-.15,0-.18-.03-.32-.1-.41-.07-.1-.18-.15-.33-.15h-.34v1.1h.34Z"/>
    <path d="m64.29,77.87h1.04v.18h-.85v.44h.79v.17h-.79v.49h.87v.17h-1.06v-1.43Z"/>
    <path d="m66.21,77.87h.57c.19,0,.35.07.45.21.1.13.14.29.14.49,0,.15-.03.29-.08.41-.1.22-.27.33-.51.33h-.57v-1.43Zm.54,1.27c.06,0,.12,0,.16-.02.07-.03.13-.07.18-.15.04-.06.06-.13.08-.22,0-.05.01-.1.01-.15,0-.18-.03-.32-.1-.41-.07-.1-.18-.15-.33-.15h-.34v1.1h.34Z"/>
    <path d="m67.68,78.28s.06-.03.08-.06c.02-.03.03-.07.03-.12,0,0,0,0,0-.01s0,0,0-.01h-.11v-.21h.21v.2c0,.08-.02.15-.05.21s-.09.09-.16.1v-.09Z"/>
    <path d="m68.55,77.87h.22l.52,1.43h-.21l-.15-.43h-.57l-.16.43h-.2l.54-1.43Zm.32.85l-.22-.63-.23.63h.45Z"/>
    <path d="m69.62,78.84c0,.08.02.15.06.2.06.1.17.14.33.14.07,0,.13-.01.19-.03.11-.04.17-.11.17-.22,0-.08-.02-.13-.07-.17-.05-.03-.12-.06-.23-.08l-.19-.04c-.12-.03-.21-.06-.26-.09-.09-.06-.13-.15-.13-.27,0-.13.04-.23.13-.32.09-.08.21-.12.37-.12.15,0,.27.04.37.11.1.07.15.19.15.35h-.18c0-.08-.03-.14-.06-.18-.06-.07-.15-.11-.29-.11-.11,0-.19.02-.24.07-.05.05-.07.1-.07.17,0,.07.03.12.08.15.04.02.12.05.25.08l.19.05c.09.02.17.05.22.09.09.07.13.16.13.29,0,.16-.06.27-.17.34s-.24.1-.39.1c-.17,0-.31-.05-.41-.14-.1-.09-.15-.21-.14-.37h.18Z"/>
    <path d="m70.89,77.87h.2v1.43h-.2v-1.43Z"/>
    <path d="m71.42,77.87h.19v1.26h.72v.17h-.91v-1.43Z"/>
    <path d="m72.57,77.87h1.04v.18h-.85v.44h.79v.17h-.79v.49h.87v.17h-1.06v-1.43Z"/>
  </g>
  <g>
    <path d="m89.74,86.32h1v.18h-.8v.44h.7v.17h-.7v.65h-.19v-1.43Z"/>
    <path d="m91.27,86.32h.22l.52,1.43h-.21l-.15-.43h-.57l-.16.43h-.2l.54-1.43Zm.32.85l-.22-.63-.23.63h.45Z"/>
    <path d="m92.25,86.32h.2v1.43h-.2v-1.43Z"/>
    <path d="m93.83,86.32v.17h-.48v1.26h-.2v-1.26h-.48v-.17h1.16Z"/>
    <path d="m94.57,86.32h.19v1.26h.72v.17h-.91v-1.43Z"/>
    <path d="m95.44,86.32h.23l.41.69.41-.69h.23l-.54.86v.58h-.19v-.58l-.54-.86Z"/>
    <path d="m98.09,86.53c.1.13.14.29.14.49,0,.21-.05.39-.16.53-.13.17-.31.25-.55.25-.22,0-.39-.07-.52-.22-.11-.14-.17-.32-.17-.53,0-.19.05-.36.14-.5.12-.18.31-.27.55-.27s.44.08.56.24Zm-.17.91c.08-.12.11-.26.11-.42,0-.17-.04-.3-.13-.41s-.21-.15-.36-.15-.27.05-.36.15-.14.25-.14.45c0,.16.04.29.12.4.08.11.21.16.39.16s.29-.06.37-.18Z"/>
    <path d="m98.48,86.32h.23l.72,1.16v-1.16h.19v1.43h-.22l-.73-1.16v1.16h-.19v-1.43Z"/>
    <path d="m89.72,91.12h.19v1.26h.72v.17h-.91v-1.43Z"/>
    <path d="m90.87,91.12h1.04v.18h-.85v.44h.79v.17h-.79v.49h.87v.17h-1.06v-1.43Z"/>
    <path d="m92.79,92.46c-.07-.09-.11-.2-.11-.33h.18c0,.09.02.16.05.2.05.07.13.11.25.11.09,0,.17-.02.22-.07s.08-.11.08-.19c0-.1-.03-.16-.09-.2s-.14-.06-.25-.06c-.01,0-.02,0-.04,0h-.04s0-.15,0-.15c.02,0,.03,0,.05,0s.03,0,.04,0c.07,0,.12-.01.16-.03.07-.04.11-.1.11-.2,0-.07-.02-.12-.07-.16s-.11-.06-.17-.06c-.12,0-.2.04-.24.12-.02.04-.04.1-.04.18h-.17c0-.1.02-.19.06-.27.07-.13.2-.2.38-.2.14,0,.25.03.33.1s.12.16.12.28c0,.09-.02.16-.07.21-.03.03-.07.06-.11.08.07.02.13.06.17.12s.06.13.06.21c0,.13-.04.24-.13.33s-.21.13-.37.13-.29-.05-.36-.14Z"/>
    <path d="m94.7,91.38c.06.12.09.27.09.47,0,.19-.03.35-.08.47-.08.18-.22.27-.4.27-.17,0-.29-.07-.38-.22-.07-.12-.1-.29-.1-.49,0-.16.02-.3.06-.41.08-.21.22-.32.42-.32.18,0,.31.07.39.22Zm-.18.93c.05-.08.08-.23.08-.45,0-.16-.02-.29-.06-.39s-.12-.15-.23-.15c-.1,0-.18.05-.23.15s-.07.24-.07.43c0,.14.02.26.05.34.05.13.13.2.24.2.09,0,.16-.04.22-.12Z"/>
    <path d="m95.35,91.12h.15l-.46,1.43h-.15l.46-1.43Z"/>
    <path d="m96.41,91.38c.06.12.09.27.09.47,0,.19-.03.35-.08.47-.08.18-.22.27-.4.27-.17,0-.29-.07-.38-.22-.07-.12-.1-.29-.1-.49,0-.16.02-.3.06-.41.08-.21.22-.32.42-.32.18,0,.31.07.39.22Zm-.18.93c.05-.08.08-.23.08-.45,0-.16-.02-.29-.06-.39s-.12-.15-.23-.15c-.1,0-.18.05-.23.15s-.07.24-.07.43c0,.14.02.26.05.34.05.13.13.2.24.2.09,0,.16-.04.22-.12Z"/>
    <path d="m96.87,92.22c0,.1.04.16.11.2.04.02.08.03.12.03.08,0,.16-.04.21-.1s.1-.21.13-.43c-.04.06-.09.11-.15.13s-.12.04-.19.04c-.13,0-.24-.04-.32-.13s-.12-.19-.12-.32.04-.24.12-.33.19-.14.34-.14c.2,0,.34.09.42.28.04.1.06.23.06.38,0,.17-.03.32-.08.45-.09.22-.23.33-.43.33-.14,0-.24-.04-.31-.11s-.11-.16-.11-.27h.18Zm.46-.36c.06-.05.09-.13.09-.24,0-.1-.03-.18-.08-.23s-.12-.08-.2-.08c-.09,0-.15.03-.2.09s-.08.13-.08.23c0,.09.02.16.07.22s.11.08.21.08c.07,0,.13-.02.19-.07Z"/>
    <path d="m98.19,91.12h.15l-.46,1.43h-.15l.46-1.43Z"/>
    <path d="m98.45,92.24c.04-.09.13-.17.25-.24l.19-.11c.08-.05.14-.09.18-.12.05-.05.08-.12.08-.19,0-.08-.02-.15-.07-.19s-.11-.07-.2-.07c-.12,0-.2.05-.25.14-.02.05-.04.12-.04.2h-.18c0-.12.02-.22.07-.3.08-.14.21-.2.4-.2.16,0,.28.04.35.13s.11.18.11.29c0,.11-.04.21-.12.29-.05.05-.13.1-.25.17l-.13.07c-.06.04-.11.07-.15.1-.06.06-.11.12-.12.19h.76v.17h-.96c0-.12.03-.23.07-.31Z"/>
    <path d="m100.38,91.38c.06.12.09.27.09.47,0,.19-.03.35-.08.47-.08.18-.22.27-.4.27-.17,0-.29-.07-.38-.22-.07-.12-.1-.29-.1-.49,0-.16.02-.3.06-.41.08-.21.22-.32.42-.32.18,0,.31.07.39.22Zm-.18.93c.05-.08.08-.23.08-.45,0-.16-.02-.29-.06-.39s-.12-.15-.23-.15c-.1,0-.18.05-.23.15s-.07.24-.07.43c0,.14.02.26.05.34.05.13.13.2.24.2.09,0,.16-.04.22-.12Z"/>
    <path d="m100.71,92.24c.04-.09.13-.17.25-.24l.19-.11c.08-.05.14-.09.18-.12.05-.05.08-.12.08-.19,0-.08-.02-.15-.07-.19s-.11-.07-.2-.07c-.12,0-.2.05-.25.14-.02.05-.04.12-.04.2h-.18c0-.12.02-.22.07-.3.08-.14.21-.2.4-.2.16,0,.28.04.35.13s.11.18.11.29c0,.11-.04.21-.12.29-.05.05-.13.1-.25.17l-.13.07c-.06.04-.11.07-.15.1-.06.06-.11.12-.12.19h.76v.17h-.96c0-.12.03-.23.07-.31Z"/>
    <path d="m101.87,92.46c-.07-.09-.11-.2-.11-.33h.18c0,.09.02.16.05.2.05.07.13.11.25.11.09,0,.17-.02.22-.07s.08-.11.08-.19c0-.1-.03-.16-.09-.2s-.14-.06-.25-.06c-.01,0-.02,0-.04,0h-.04s0-.15,0-.15c.02,0,.03,0,.05,0s.03,0,.04,0c.07,0,.12-.01.16-.03.07-.04.11-.1.11-.2,0-.07-.02-.12-.07-.16s-.11-.06-.17-.06c-.12,0-.2.04-.24.12-.02.04-.04.1-.04.18h-.17c0-.1.02-.19.06-.27.07-.13.2-.2.38-.2.14,0,.25.03.33.1s.12.16.12.28c0,.09-.02.16-.07.21-.03.03-.07.06-.11.08.07.02.13.06.17.12s.06.13.06.21c0,.13-.04.24-.13.33s-.21.13-.37.13-.29-.05-.36-.14Z"/>
    <path d="m89.84,95.92l.41,1.22.41-1.22h.22l-.52,1.43h-.21l-.52-1.43h.21Z"/>
    <path d="m91.35,95.92h.22l.52,1.43h-.21l-.15-.43h-.57l-.16.43h-.2l.54-1.43Zm.32.85l-.22-.63-.23.63h.45Z"/>
    <path d="m92.28,95.92h.19v1.26h.72v.17h-.91v-1.43Z"/>
    <path d="m93.83,95.92h.22l.52,1.43h-.21l-.15-.43h-.57l-.16.43h-.2l.54-1.43Zm.32.85l-.22-.63-.23.63h.45Z"/>
    <path d="m94.76,95.92h.62c.17,0,.29.05.36.15.04.06.06.13.06.21,0,.09-.03.16-.08.22-.03.03-.06.06-.12.08.07.03.13.06.17.09.06.06.1.15.1.26,0,.09-.03.18-.09.25-.09.11-.23.17-.42.17h-.61v-1.43Zm.55.61c.08,0,.15-.01.19-.03.07-.04.11-.1.11-.19s-.04-.16-.12-.19c-.04-.02-.11-.03-.19-.03h-.35v.44h.36Zm.07.66c.12,0,.21-.03.26-.1.03-.04.05-.1.05-.16,0-.1-.05-.18-.14-.21-.05-.02-.12-.03-.2-.03h-.39v.5h.42Z"/>
    <path d="m96.12,95.92h.19v1.26h.72v.17h-.91v-1.43Z"/>
    <path d="m97.27,95.92h1.04v.18h-.85v.44h.79v.17h-.79v.49h.87v.17h-1.06v-1.43Z"/>
    <path d="m99.89,96.93c0,.12-.02.22-.05.28-.07.12-.19.18-.38.18-.11,0-.2-.03-.28-.09s-.11-.16-.11-.31v-.1h.18v.1c0,.08.02.14.05.18.04.04.09.06.16.06.1,0,.17-.04.2-.11.02-.04.03-.13.03-.25v-.96h.19v1.01Z"/>
    <path d="m100.42,95.92v.89c0,.1.02.19.06.26.06.1.16.16.3.16.17,0,.28-.06.34-.17.03-.06.05-.14.05-.25v-.89h.2v.81c0,.18-.02.31-.07.41-.09.17-.25.26-.5.26s-.41-.09-.5-.26c-.05-.1-.07-.23-.07-.41v-.81h.2Z"/>
    <path d="m101.8,96.9c0,.08.02.15.06.2.06.1.17.14.33.14.07,0,.13-.01.19-.03.11-.04.17-.11.17-.22,0-.08-.02-.13-.07-.17-.05-.03-.12-.06-.23-.08l-.19-.04c-.12-.03-.21-.06-.26-.09-.09-.06-.13-.15-.13-.27,0-.13.04-.23.13-.32.09-.08.21-.12.37-.12.15,0,.27.04.37.11.1.07.15.19.15.35h-.18c0-.08-.03-.14-.06-.18-.06-.07-.15-.11-.29-.11-.11,0-.19.02-.24.07-.05.05-.07.1-.07.17,0,.07.03.12.08.15.04.02.12.05.25.08l.19.05c.09.02.17.05.22.09.09.07.13.16.13.29,0,.16-.06.27-.17.34s-.24.1-.39.1c-.17,0-.31-.05-.41-.14-.1-.09-.15-.21-.14-.37h.18Z"/>
    <path d="m104.34,97.35l-.1.12-.22-.17c-.05.03-.11.05-.17.07-.06.02-.13.03-.2.03-.22,0-.4-.07-.52-.22-.11-.14-.17-.32-.17-.53,0-.19.05-.36.14-.5.12-.18.31-.27.55-.27s.44.08.56.24c.1.13.14.29.14.49,0,.09-.01.18-.03.27-.03.13-.09.24-.17.32l.2.15Zm-.56-.14s.07-.02.09-.03l-.16-.12.1-.12.19.15c.06-.07.1-.14.12-.23.02-.08.03-.16.03-.24,0-.17-.04-.3-.13-.41s-.21-.15-.36-.15-.28.05-.37.15-.14.25-.14.46c0,.17.04.31.13.41.09.1.21.15.38.15.04,0,.08,0,.11,0Z"/>
    <path d="m104.81,95.92v.89c0,.1.02.19.06.26.06.1.16.16.3.16.17,0,.28-.06.34-.17.03-.06.05-.14.05-.25v-.89h.2v.81c0,.18-.02.31-.07.41-.09.17-.25.26-.5.26s-.41-.09-.5-.26c-.05-.1-.07-.23-.07-.41v-.81h.2Z"/>
    <path d="m106.08,96.34s.06-.03.08-.06c.02-.03.03-.07.03-.12,0,0,0,0,0-.01s0,0,0-.01h-.11v-.21h.21v.2c0,.08-.02.15-.05.21s-.09.09-.16.1v-.09Z"/>
    <path d="m106.94,95.92h.22l.52,1.43h-.21l-.15-.43h-.57l-.16.43h-.2l.54-1.43Zm.32.85l-.22-.63-.23.63h.45Z"/>
    <path d="m108.09,95.92v.89c0,.1.02.19.06.26.06.1.16.16.3.16.17,0,.28-.06.34-.17.03-.06.05-.14.05-.25v-.89h.2v.81c0,.18-.02.31-.07.41-.09.17-.25.26-.5.26s-.41-.09-.5-.26c-.05-.1-.07-.23-.07-.41v-.81h.2Z"/>
    <path d="m89.71,99.44c.04-.09.13-.17.25-.24l.19-.11c.08-.05.14-.09.18-.12.05-.05.08-.12.08-.19,0-.08-.02-.15-.07-.19s-.11-.07-.2-.07c-.12,0-.2.05-.25.14-.02.05-.04.12-.04.2h-.18c0-.12.02-.22.07-.3.08-.14.21-.2.4-.2.16,0,.28.04.35.13s.11.18.11.29c0,.11-.04.21-.12.29-.05.05-.13.1-.25.17l-.13.07c-.06.04-.11.07-.15.1-.06.06-.11.12-.12.19h.76v.17h-.96c0-.12.03-.23.07-.31Z"/>
    <path d="m90.97,99.42c0,.1.04.16.11.2.04.02.08.03.12.03.08,0,.16-.04.21-.1s.1-.21.13-.43c-.04.06-.09.11-.15.13s-.12.04-.19.04c-.13,0-.24-.04-.32-.13s-.12-.19-.12-.32.04-.24.12-.33.19-.14.34-.14c.2,0,.34.09.42.28.04.1.06.23.06.38,0,.17-.03.32-.08.45-.09.22-.23.33-.43.33-.14,0-.24-.04-.31-.11s-.11-.16-.11-.27h.18Zm.46-.36c.06-.05.09-.13.09-.24,0-.1-.03-.18-.08-.23s-.12-.08-.2-.08c-.09,0-.15.03-.2.09s-.08.13-.08.23c0,.09.02.16.07.22s.11.08.21.08c.07,0,.13-.02.19-.07Z"/>
    <path d="m92.29,98.32h.15l-.46,1.43h-.15l.46-1.43Z"/>
    <path d="m93.34,98.58c.06.12.09.27.09.47,0,.19-.03.35-.08.47-.08.18-.22.27-.4.27-.17,0-.29-.07-.38-.22-.07-.12-.1-.29-.1-.49,0-.16.02-.3.06-.41.08-.21.22-.32.42-.32.18,0,.31.07.39.22Zm-.18.93c.05-.08.08-.23.08-.45,0-.16-.02-.29-.06-.39s-.12-.15-.23-.15c-.1,0-.18.05-.23.15s-.07.24-.07.43c0,.14.02.26.05.34.05.13.13.2.24.2.09,0,.16-.04.22-.12Z"/>
    <path d="m93.7,99.66c-.07-.09-.11-.2-.11-.33h.18c0,.09.02.16.05.2.05.07.13.11.25.11.09,0,.17-.02.22-.07s.08-.11.08-.19c0-.1-.03-.16-.09-.2s-.14-.06-.25-.06c-.01,0-.02,0-.04,0h-.04s0-.15,0-.15c.02,0,.03,0,.05,0s.03,0,.04,0c.07,0,.12-.01.16-.03.07-.04.11-.1.11-.2,0-.07-.02-.12-.07-.16s-.11-.06-.17-.06c-.12,0-.2.04-.24.12-.02.04-.04.1-.04.18h-.17c0-.1.02-.19.06-.27.07-.13.2-.2.38-.2.14,0,.25.03.33.1s.12.16.12.28c0,.09-.02.16-.07.21-.03.03-.07.06-.11.08.07.02.13.06.17.12s.06.13.06.21c0,.13-.04.24-.13.33s-.21.13-.37.13-.29-.05-.36-.14Z"/>
    <path d="m95.13,98.32h.15l-.46,1.43h-.15l.46-1.43Z"/>
    <path d="m95.39,99.44c.04-.09.13-.17.25-.24l.19-.11c.08-.05.14-.09.18-.12.05-.05.08-.12.08-.19,0-.08-.02-.15-.07-.19s-.11-.07-.2-.07c-.12,0-.2.05-.25.14-.02.05-.04.12-.04.2h-.18c0-.12.02-.22.07-.3.08-.14.21-.2.4-.2.16,0,.28.04.35.13s.11.18.11.29c0,.11-.04.21-.12.29-.05.05-.13.1-.25.17l-.13.07c-.06.04-.11.07-.15.1-.06.06-.11.12-.12.19h.76v.17h-.96c0-.12.03-.23.07-.31Z"/>
    <path d="m97.32,98.58c.06.12.09.27.09.47,0,.19-.03.35-.08.47-.08.18-.22.27-.4.27-.17,0-.29-.07-.38-.22-.07-.12-.1-.29-.1-.49,0-.16.02-.3.06-.41.08-.21.22-.32.42-.32.18,0,.31.07.39.22Zm-.18.93c.05-.08.08-.23.08-.45,0-.16-.02-.29-.06-.39s-.12-.15-.23-.15c-.1,0-.18.05-.23.15s-.07.24-.07.43c0,.14.02.26.05.34.05.13.13.2.24.2.09,0,.16-.04.22-.12Z"/>
    <path d="m97.65,99.44c.04-.09.13-.17.25-.24l.19-.11c.08-.05.14-.09.18-.12.05-.05.08-.12.08-.19,0-.08-.02-.15-.07-.19s-.11-.07-.2-.07c-.12,0-.2.05-.25.14-.02.05-.04.12-.04.2h-.18c0-.12.02-.22.07-.3.08-.14.21-.2.4-.2.16,0,.28.04.35.13s.11.18.11.29c0,.11-.04.21-.12.29-.05.05-.13.1-.25.17l-.13.07c-.06.04-.11.07-.15.1-.06.06-.11.12-.12.19h.76v.17h-.96c0-.12.03-.23.07-.31Z"/>
    <path d="m99.31,99.76v-.34h-.61v-.17l.64-.89h.15v.91h.21v.15h-.21v.34h-.18Zm0-.5v-.64l-.45.64h.45Z"/>
    <path d="m90.5,103.38c.06.12.09.27.09.47,0,.19-.03.35-.08.47-.08.18-.22.27-.4.27-.17,0-.29-.07-.38-.22-.07-.12-.1-.29-.1-.49,0-.16.02-.3.06-.41.08-.21.22-.32.42-.32.18,0,.31.07.39.22Zm-.18.93c.05-.08.08-.23.08-.45,0-.16-.02-.29-.06-.39s-.12-.15-.23-.15c-.1,0-.18.05-.23.15s-.07.24-.07.43c0,.14.02.26.05.34.05.13.13.2.24.2.09,0,.16-.04.22-.12Z"/>
    <path d="m90.86,104.46c-.07-.09-.11-.2-.11-.33h.18c0,.09.02.16.05.2.05.07.13.11.25.11.09,0,.17-.02.22-.07s.08-.11.08-.19c0-.1-.03-.16-.09-.2s-.14-.06-.25-.06c-.01,0-.02,0-.04,0h-.04s0-.15,0-.15c.02,0,.03,0,.05,0s.03,0,.04,0c.07,0,.12-.01.16-.03.07-.04.11-.1.11-.2,0-.07-.02-.12-.07-.16s-.11-.06-.17-.06c-.12,0-.2.04-.24.12-.02.04-.04.1-.04.18h-.17c0-.1.02-.19.06-.27.07-.13.2-.2.38-.2.14,0,.25.03.33.1s.12.16.12.28c0,.09-.02.16-.07.21-.03.03-.07.06-.11.08.07.02.13.06.17.12s.06.13.06.21c0,.13-.04.24-.13.33s-.21.13-.37.13-.29-.05-.36-.14Z"/>
    <path d="m92.5,104.56v-.34h-.61v-.17l.64-.89h.15v.91h.21v.15h-.21v.34h-.18Zm0-.5v-.64l-.45.64h.45Z"/>
    <path d="m93.9,103.38c.06.12.09.27.09.47,0,.19-.03.35-.08.47-.08.18-.22.27-.4.27-.17,0-.29-.07-.38-.22-.07-.12-.1-.29-.1-.49,0-.16.02-.3.06-.41.08-.21.22-.32.42-.32.18,0,.31.07.39.22Zm-.18.93c.05-.08.08-.23.08-.45,0-.16-.02-.29-.06-.39s-.12-.15-.23-.15c-.1,0-.18.05-.23.15s-.07.24-.07.43c0,.14.02.26.05.34.05.13.13.2.24.2.09,0,.16-.04.22-.12Z"/>
    <path d="m94.24,104.24c.04-.09.13-.17.25-.24l.19-.11c.08-.05.14-.09.18-.12.05-.05.08-.12.08-.19,0-.08-.02-.15-.07-.19s-.11-.07-.2-.07c-.12,0-.2.05-.25.14-.02.05-.04.12-.04.2h-.18c0-.12.02-.22.07-.3.08-.14.21-.2.4-.2.16,0,.28.04.35.13s.11.18.11.29c0,.11-.04.21-.12.29-.05.05-.13.1-.25.17l-.13.07c-.06.04-.11.07-.15.1-.06.06-.11.12-.12.19h.76v.17h-.96c0-.12.03-.23.07-.31Z"/>
    <path d="m96.28,103.18v.15s-.1.12-.18.23-.14.22-.2.35c-.06.12-.1.23-.13.33-.02.06-.04.17-.07.31h-.19c.04-.27.14-.53.29-.8.09-.15.18-.29.28-.4h-.77v-.18h.97Z"/>
    <path d="m96.63,104.22c0,.1.04.16.11.2.04.02.08.03.12.03.08,0,.16-.04.21-.1s.1-.21.13-.43c-.04.06-.09.11-.15.13s-.12.04-.19.04c-.13,0-.24-.04-.32-.13s-.12-.19-.12-.32.04-.24.12-.33.19-.14.34-.14c.2,0,.34.09.42.28.04.1.06.23.06.38,0,.17-.03.32-.08.45-.09.22-.23.33-.43.33-.14,0-.24-.04-.31-.11s-.11-.16-.11-.27h.18Zm.46-.36c.06-.05.09-.13.09-.24,0-.1-.03-.18-.08-.23s-.12-.08-.2-.08c-.09,0-.15.03-.2.09s-.08.13-.08.23c0,.09.02.16.07.22s.11.08.21.08c.07,0,.13-.02.19-.07Z"/>
    <path d="m97.74,104.2c.01.1.06.17.14.21.04.02.09.03.14.03.1,0,.18-.03.23-.1s.08-.14.08-.22c0-.1-.03-.17-.09-.23s-.13-.08-.21-.08c-.06,0-.11.01-.16.04s-.08.06-.11.1h-.15s.11-.76.11-.76h.73v.17h-.59l-.06.39s.06-.04.09-.06c.05-.02.11-.03.18-.03.13,0,.24.04.33.12s.13.19.13.31-.04.25-.12.35-.21.15-.39.15c-.11,0-.21-.03-.3-.1s-.14-.16-.15-.3h.18Z"/>
  </g>
  <g>
    <path d="m15.15,88.52c0,.08.02.15.06.2.06.1.17.14.33.14.07,0,.13-.01.19-.03.11-.04.17-.11.17-.22,0-.08-.02-.13-.07-.17-.05-.03-.12-.06-.23-.08l-.19-.04c-.12-.03-.21-.06-.26-.09-.09-.06-.13-.15-.13-.27,0-.13.04-.23.13-.32.09-.08.21-.12.37-.12.15,0,.27.04.37.11.1.07.15.19.15.35h-.18c0-.08-.03-.14-.06-.18-.06-.07-.15-.11-.29-.11-.11,0-.19.02-.24.07-.05.05-.07.1-.07.17,0,.07.03.12.08.15.04.02.12.05.25.08l.19.05c.09.02.17.05.22.09.09.07.13.16.13.29,0,.16-.06.27-.17.34s-.24.1-.39.1c-.17,0-.31-.05-.41-.14-.1-.09-.15-.21-.14-.37h.18Z"/>
    <path d="m16.42,87.54h.2v1.43h-.2v-1.43Z"/>
    <path d="m17.91,87.59c.14.07.23.21.26.39h-.19c-.02-.1-.07-.18-.14-.23-.07-.05-.16-.07-.27-.07-.13,0-.24.05-.33.15s-.13.25-.13.45c0,.17.04.31.11.42.07.11.19.16.36.16.13,0,.23-.04.32-.11.08-.08.13-.2.13-.36h-.45v-.16h.63v.77h-.12l-.05-.18c-.06.07-.12.12-.17.15-.08.05-.19.07-.32.07-.17,0-.31-.06-.43-.17-.13-.14-.2-.33-.2-.57s.06-.43.19-.57c.12-.14.28-.2.47-.2.13,0,.25.03.34.08Z"/>
    <path d="m18.53,87.54h.23l.72,1.16v-1.16h.19v1.43h-.22l-.73-1.16v1.16h-.19v-1.43Z"/>
    <path d="m20.41,87.54h.22l.52,1.43h-.21l-.15-.43h-.57l-.16.43h-.2l.54-1.43Zm.32.85l-.22-.63-.23.63h.45Z"/>
    <path d="m22.24,87.54v.17h-.48v1.26h-.2v-1.26h-.48v-.17h1.16Z"/>
    <path d="m22.65,87.54v.89c0,.1.02.19.06.26.06.1.16.16.3.16.17,0,.28-.06.34-.17.03-.06.05-.14.05-.25v-.89h.2v.81c0,.18-.02.31-.07.41-.09.17-.25.26-.5.26s-.41-.09-.5-.26c-.05-.1-.07-.23-.07-.41v-.81h.2Z"/>
    <path d="m23.93,87.54h.65c.11,0,.2.02.27.05.13.06.2.17.2.34,0,.09-.02.16-.05.21s-.08.1-.15.13c.06.02.1.05.13.09s.04.1.05.18v.19c0,.05.01.1.02.12.01.05.03.07.06.09v.03h-.24s-.01-.03-.02-.05,0-.06,0-.11v-.24c-.02-.09-.05-.16-.11-.19-.04-.02-.09-.03-.17-.03h-.43v.62h-.19v-1.43Zm.63.66c.09,0,.16-.02.21-.05.05-.04.08-.1.08-.2,0-.1-.04-.17-.11-.21-.04-.02-.09-.03-.15-.03h-.46v.49h.44Z"/>
    <path d="m25.39,87.54h1.04v.18h-.85v.44h.79v.17h-.79v.49h.87v.17h-1.06v-1.43Z"/>
    <path d="m15.03,89.94h.57c.19,0,.35.07.45.21.1.13.14.29.14.49,0,.15-.03.29-.08.41-.1.22-.27.33-.51.33h-.57v-1.43Zm.54,1.27c.06,0,.12,0,.16-.02.07-.03.13-.07.18-.15.04-.06.06-.13.08-.22,0-.05.01-.1.01-.15,0-.18-.03-.32-.1-.41-.07-.1-.18-.15-.33-.15h-.34v1.1h.34Z"/>
    <path d="m16.7,89.94v.89c0,.1.02.19.06.26.06.1.16.16.3.16.17,0,.28-.06.34-.17.03-.06.05-.14.05-.25v-.89h.2v.81c0,.18-.02.31-.07.41-.09.17-.25.26-.5.26s-.41-.09-.5-.26c-.05-.1-.07-.23-.07-.41v-.81h.2Z"/>
    <path d="m19.53,89.94v.17h-.48v1.26h-.2v-1.26h-.48v-.17h1.16Z"/>
    <path d="m19.78,89.94h.2v1.43h-.2v-1.43Z"/>
    <path d="m21.35,89.94v.17h-.48v1.26h-.2v-1.26h-.48v-.17h1.16Z"/>
    <path d="m21.76,89.94v.89c0,.1.02.19.06.26.06.1.16.16.3.16.17,0,.28-.06.34-.17.03-.06.05-.14.05-.25v-.89h.2v.81c0,.18-.02.31-.07.41-.09.17-.25.26-.5.26s-.41-.09-.5-.26c-.05-.1-.07-.23-.07-.41v-.81h.2Z"/>
    <path d="m23.01,89.94h.19v1.26h.72v.17h-.91v-1.43Z"/>
    <path d="m24.56,89.94h.22l.52,1.43h-.21l-.15-.43h-.57l-.16.43h-.2l.54-1.43Zm.32.85l-.22-.63-.23.63h.45Z"/>
    <path d="m25.54,89.94h.2v1.43h-.2v-1.43Z"/>
    <path d="m26.1,89.94h.65c.11,0,.2.02.27.05.13.06.2.17.2.34,0,.09-.02.16-.05.21s-.08.1-.15.13c.06.02.1.05.13.09s.04.1.05.18v.19c0,.05.01.1.02.12.01.05.03.07.06.09v.03h-.24s-.01-.03-.02-.05,0-.06,0-.11v-.24c-.02-.09-.05-.16-.11-.19-.04-.02-.09-.03-.17-.03h-.43v.62h-.19v-1.43Zm.63.66c.09,0,.16-.02.21-.05.05-.04.08-.1.08-.2,0-.1-.04-.17-.11-.21-.04-.02-.09-.03-.15-.03h-.46v.49h.44Z"/>
    <path d="m27.56,89.94h1.04v.18h-.85v.44h.79v.17h-.79v.49h.87v.17h-1.06v-1.43Z"/>
  </g>
  <g>
    <path d="m10.1,110.82h.15v.95h.54v.13h-.69v-1.08Z"/>
    <path d="m10.97,110.82h.78v.13h-.64v.33h.59v.12h-.59v.37h.65v.13h-.79v-1.08Z"/>
    <path d="m12.42,110.82h.49c.08,0,.15.01.2.04.1.05.15.13.15.25,0,.06-.01.12-.04.16-.03.04-.06.07-.11.1.04.02.07.04.09.07.02.03.03.07.04.14v.14s0,.07.02.09c0,.03.02.06.05.07v.02h-.18s0-.02-.01-.04,0-.04,0-.08v-.18c-.01-.07-.04-.12-.08-.14-.03-.01-.07-.02-.13-.02h-.32v.46h-.15v-1.08Zm.47.49c.07,0,.12-.01.16-.04.04-.03.06-.08.06-.15,0-.08-.03-.13-.08-.16-.03-.01-.07-.02-.12-.02h-.35v.37h.33Z"/>
    <path d="m13.51,110.82h.48c.09,0,.17.03.23.08.06.05.09.13.09.23,0,.08-.03.16-.08.22-.05.06-.13.09-.24.09h-.34v.46h-.15v-1.08Zm.57.15s-.08-.02-.13-.02h-.29v.37h.29c.06,0,.12-.01.16-.04s.06-.08.06-.15c0-.08-.03-.13-.09-.16Z"/>
    <path d="m14.53,110.82h.78v.13h-.64v.33h.59v.12h-.59v.37h.65v.13h-.79v-1.08Zm.56-.3l-.2.21h-.1l.13-.21h.16Z"/>
    <path d="m15.62,111.55c0,.06.02.11.04.15.05.07.13.11.25.11.05,0,.1,0,.14-.02.08-.03.13-.08.13-.16,0-.06-.02-.1-.05-.13-.04-.02-.09-.05-.17-.06l-.14-.03c-.09-.02-.16-.04-.2-.07-.07-.04-.1-.11-.1-.2,0-.1.03-.18.1-.24s.16-.09.28-.09c.11,0,.2.03.28.08.08.05.12.14.12.26h-.14c0-.06-.02-.1-.04-.13-.04-.06-.11-.08-.22-.08-.08,0-.14.02-.18.05s-.05.08-.05.13c0,.05.02.09.06.12.03.02.09.04.19.06l.15.03c.07.02.12.04.16.07.07.05.1.12.1.22,0,.12-.04.2-.13.26s-.18.08-.29.08c-.13,0-.23-.03-.31-.1-.07-.07-.11-.16-.11-.28h.14Z"/>
    <path d="m16.56,110.82h.78v.13h-.64v.33h.59v.12h-.59v.37h.65v.13h-.79v-1.08Z"/>
    <path d="m17.56,110.82h.17l.54.87v-.87h.14v1.08h-.16l-.54-.87v.87h-.14v-1.08Z"/>
    <path d="m19.44,110.82v.13h-.36v.95h-.15v-.95h-.36v-.13h.87Z"/>
    <path d="m20.01,110.82h.49c.08,0,.15.01.2.04.1.05.15.13.15.25,0,.06-.01.12-.04.16-.03.04-.06.07-.11.1.04.02.07.04.09.07.02.03.03.07.04.14v.14s0,.07.02.09c0,.03.02.06.05.07v.02h-.18s0-.02-.01-.04,0-.04,0-.08v-.18c-.01-.07-.04-.12-.08-.14-.03-.01-.07-.02-.13-.02h-.32v.46h-.15v-1.08Zm.47.49c.07,0,.12-.01.16-.04.04-.03.06-.08.06-.15,0-.08-.03-.13-.08-.16-.03-.01-.07-.02-.12-.02h-.35v.37h.33Z"/>
    <path d="m21.11,110.82h.78v.13h-.64v.33h.59v.12h-.59v.37h.65v.13h-.79v-1.08Zm.56-.3l-.2.21h-.1l.13-.21h.16Z"/>
    <path d="m22.87,110.9c.07.07.12.15.12.24h-.14c-.02-.07-.05-.12-.09-.17-.05-.04-.11-.06-.2-.06-.1,0-.19.04-.25.11s-.1.19-.1.34c0,.13.03.23.09.31.06.08.14.12.26.12.11,0,.19-.04.24-.12.03-.04.05-.1.07-.17h.14c-.01.11-.05.21-.12.28-.08.09-.2.14-.34.14-.12,0-.23-.04-.31-.11-.11-.1-.17-.25-.17-.46,0-.16.04-.29.12-.39.09-.11.21-.17.37-.17.13,0,.24.04.31.11Z"/>
    <path d="m23.22,110.82h.78v.13h-.64v.33h.59v.12h-.59v.37h.65v.13h-.79v-1.08Zm.56-.3l-.2.21h-.1l.13-.21h.16Z"/>
    <path d="m24.23,110.82h.48c.09,0,.17.03.23.08.06.05.09.13.09.23,0,.08-.03.16-.08.22-.05.06-.13.09-.24.09h-.34v.46h-.15v-1.08Zm.57.15s-.08-.02-.13-.02h-.29v.37h.29c.06,0,.12-.01.16-.04s.06-.08.06-.15c0-.08-.03-.13-.09-.16Z"/>
    <path d="m25.27,110.82h.15v1.08h-.15v-1.08Z"/>
    <path d="m25.76,111.55c0,.06.02.11.04.15.05.07.13.11.25.11.05,0,.1,0,.14-.02.08-.03.13-.08.13-.16,0-.06-.02-.1-.05-.13-.04-.02-.09-.05-.17-.06l-.14-.03c-.09-.02-.16-.04-.2-.07-.07-.04-.1-.11-.1-.2,0-.1.03-.18.1-.24s.16-.09.28-.09c.11,0,.2.03.28.08.08.05.12.14.12.26h-.14c0-.06-.02-.1-.04-.13-.04-.06-.11-.08-.22-.08-.08,0-.14.02-.18.05s-.05.08-.05.13c0,.05.02.09.06.12.03.02.09.04.19.06l.15.03c.07.02.12.04.16.07.07.05.1.12.1.22,0,.12-.04.2-.13.26s-.18.08-.29.08c-.13,0-.23-.03-.31-.1-.07-.07-.11-.16-.11-.28h.14Z"/>
    <path d="m26.78,111.55c0,.06.02.11.04.15.05.07.13.11.25.11.05,0,.1,0,.14-.02.08-.03.13-.08.13-.16,0-.06-.02-.1-.05-.13-.04-.02-.09-.05-.17-.06l-.14-.03c-.09-.02-.16-.04-.2-.07-.07-.04-.1-.11-.1-.2,0-.1.03-.18.1-.24s.16-.09.28-.09c.11,0,.2.03.28.08.08.05.12.14.12.26h-.14c0-.06-.02-.1-.04-.13-.04-.06-.11-.08-.22-.08-.08,0-.14.02-.18.05s-.05.08-.05.13c0,.05.02.09.06.12.03.02.09.04.19.06l.15.03c.07.02.12.04.16.07.07.05.1.12.1.22,0,.12-.04.2-.13.26s-.18.08-.29.08c-.13,0-.23-.03-.31-.1-.07-.07-.11-.16-.11-.28h.14Z"/>
    <path d="m27.71,110.82h.78v.13h-.64v.33h.59v.12h-.59v.37h.65v.13h-.79v-1.08Zm.56-.3l-.2.21h-.1l.13-.21h.16Z"/>
    <path d="m29.23,110.82l.31.92.31-.92h.16l-.39,1.08h-.15l-.39-1.08h.16Z"/>
    <path d="m30.36,110.82h.17l.39,1.08h-.16l-.11-.32h-.43l-.12.32h-.15l.4-1.08Zm.24.64l-.16-.48-.17.48h.34Z"/>
    <path d="m31.22,110.82v.67c0,.08.02.14.04.2.04.08.12.12.22.12.12,0,.21-.04.25-.13.02-.05.04-.11.04-.19v-.67h.15v.6c0,.13-.02.23-.05.31-.07.13-.19.19-.37.19s-.31-.06-.37-.19c-.04-.07-.05-.17-.05-.31v-.6h.15Z"/>
    <path d="m32.95,110.82v.13h-.36v.95h-.15v-.95h-.36v-.13h.87Z"/>
    <path d="m33.73,110.82h.17l.39,1.08h-.16l-.11-.32h-.43l-.12.32h-.15l.4-1.08Zm.24.64l-.16-.48-.17.48h.34Z"/>
    <path d="m34.59,110.82v.67c0,.08.02.14.04.2.04.08.12.12.22.12.12,0,.21-.04.25-.13.02-.05.04-.11.04-.19v-.67h.15v.6c0,.13-.02.23-.05.31-.07.13-.19.19-.37.19s-.31-.06-.37-.19c-.04-.07-.05-.17-.05-.31v-.6h.15Z"/>
    <path d="m35.55,110.82h.49c.08,0,.15.01.2.04.1.05.15.13.15.25,0,.06-.01.12-.04.16-.03.04-.06.07-.11.1.04.02.07.04.09.07.02.03.03.07.04.14v.14s0,.07.02.09c0,.03.02.06.05.07v.02h-.18s0-.02-.01-.04,0-.04,0-.08v-.18c-.01-.07-.04-.12-.08-.14-.03-.01-.07-.02-.13-.02h-.32v.46h-.15v-1.08Zm.47.49c.07,0,.12-.01.16-.04.04-.03.06-.08.06-.15,0-.08-.03-.13-.08-.16-.03-.01-.07-.02-.12-.02h-.35v.37h.33Z"/>
    <path d="m37.52,110.97c.07.09.11.22.11.37,0,.16-.04.29-.12.4-.1.13-.23.19-.41.19-.17,0-.3-.05-.39-.16-.08-.11-.13-.24-.13-.4,0-.15.04-.27.11-.37.09-.13.23-.2.41-.2s.33.06.42.18Zm-.13.69c.06-.09.09-.2.09-.32,0-.13-.03-.23-.1-.31-.07-.08-.16-.12-.27-.12s-.2.04-.27.11-.11.19-.11.34c0,.12.03.22.09.3.06.08.16.12.29.12s.22-.05.28-.14Z"/>
    <path d="m38.6,110.82v.13h-.36v.95h-.15v-.95h-.36v-.13h.87Z"/>
    <path d="m38.78,110.82h.15v1.08h-.15v-1.08Z"/>
    <path d="m39.27,111.55c0,.06.02.11.04.15.05.07.13.11.25.11.05,0,.1,0,.14-.02.08-.03.13-.08.13-.16,0-.06-.02-.1-.05-.13-.04-.02-.09-.05-.17-.06l-.14-.03c-.09-.02-.16-.04-.2-.07-.07-.04-.1-.11-.1-.2,0-.1.03-.18.1-.24s.16-.09.28-.09c.11,0,.2.03.28.08.08.05.12.14.12.26h-.14c0-.06-.02-.1-.04-.13-.04-.06-.11-.08-.22-.08-.08,0-.14.02-.18.05s-.05.08-.05.13c0,.05.02.09.06.12.03.02.09.04.19.06l.15.03c.07.02.12.04.16.07.07.05.1.12.1.22,0,.12-.04.2-.13.26s-.18.08-.29.08c-.13,0-.23-.03-.31-.1-.07-.07-.11-.16-.11-.28h.14Z"/>
    <path d="m40.5,110.82h.17l.39,1.08h-.16l-.11-.32h-.43l-.12.32h-.15l.4-1.08Zm.24.64l-.16-.48-.17.48h.34Z"/>
    <path d="m41.22,110.82h.49c.08,0,.15.01.2.04.1.05.15.13.15.25,0,.06-.01.12-.04.16-.03.04-.06.07-.11.1.04.02.07.04.09.07.02.03.03.07.04.14v.14s0,.07.02.09c0,.03.02.06.05.07v.02h-.18s0-.02-.01-.04,0-.04,0-.08v-.18c-.01-.07-.04-.12-.08-.14-.03-.01-.07-.02-.13-.02h-.32v.46h-.15v-1.08Zm.47.49c.07,0,.12-.01.16-.04.04-.03.06-.08.06-.15,0-.08-.03-.13-.08-.16-.03-.01-.07-.02-.12-.02h-.35v.37h.33Z"/>
    <path d="m43.06,110.82v.13h-.36v.95h-.15v-.95h-.36v-.13h.87Z"/>
    <path d="m43.24,110.82h.15v1.08h-.15v-1.08Z"/>
    <path d="m44.53,110.97c.07.09.11.22.11.37,0,.16-.04.29-.12.4-.1.13-.23.19-.41.19-.17,0-.3-.05-.39-.16-.08-.11-.13-.24-.13-.4,0-.15.04-.27.11-.37.09-.13.23-.2.41-.2s.33.06.42.18Zm-.13.69c.06-.09.09-.2.09-.32,0-.13-.03-.23-.1-.31-.07-.08-.16-.12-.27-.12s-.2.04-.27.11-.11.19-.11.34c0,.12.03.22.09.3.06.08.16.12.29.12s.22-.05.28-.14Z"/>
    <path d="m44.82,110.82h.17l.54.87v-.87h.14v1.08h-.16l-.54-.87v.87h-.14v-1.08Z"/>
    <path d="m46.36,110.82h.43c.15,0,.26.05.34.16.07.09.11.22.11.36,0,.11-.02.22-.06.31-.07.16-.2.24-.39.24h-.43v-1.08Zm.4.95s.09,0,.12-.02c.06-.02.1-.06.14-.11.03-.04.05-.1.06-.17,0-.04.01-.08.01-.11,0-.13-.03-.24-.08-.31s-.14-.11-.25-.11h-.25v.83h.25Z"/>
    <path d="m47.47,110.82h.78v.13h-.64v.33h.59v.12h-.59v.37h.65v.13h-.79v-1.08Z"/>
    <path d="m48.99,111.55c0,.06.02.11.04.15.05.07.13.11.25.11.05,0,.1,0,.14-.02.08-.03.13-.08.13-.16,0-.06-.02-.1-.05-.13-.04-.02-.09-.05-.17-.06l-.14-.03c-.09-.02-.16-.04-.2-.07-.07-.04-.1-.11-.1-.2,0-.1.03-.18.1-.24s.16-.09.28-.09c.11,0,.2.03.28.08.08.05.12.14.12.26h-.14c0-.06-.02-.1-.04-.13-.04-.06-.11-.08-.22-.08-.08,0-.14.02-.18.05s-.05.08-.05.13c0,.05.02.09.06.12.03.02.09.04.19.06l.15.03c.07.02.12.04.16.07.07.05.1.12.1.22,0,.12-.04.2-.13.26s-.18.08-.29.08c-.13,0-.23-.03-.31-.1-.07-.07-.11-.16-.11-.28h.14Z"/>
    <path d="m49.93,110.82h.78v.13h-.64v.33h.59v.12h-.59v.37h.65v.13h-.79v-1.08Zm.56-.3l-.2.21h-.1l.13-.21h.16Z"/>
    <path d="m51.46,111.57c0,.09-.01.16-.04.21-.05.09-.14.14-.28.14-.08,0-.15-.02-.21-.07-.06-.04-.09-.12-.09-.23v-.08h.14v.08c0,.06.01.1.04.13.03.03.07.04.12.04.08,0,.13-.03.15-.08.01-.03.02-.09.02-.19v-.72h.14v.76Z"/>
    <path d="m52.58,110.97c.07.09.11.22.11.37,0,.16-.04.29-.12.4-.1.13-.23.19-.41.19-.17,0-.3-.05-.39-.16-.08-.11-.13-.24-.13-.4,0-.15.04-.27.11-.37.09-.13.23-.2.41-.2s.33.06.42.18Zm-.13.69c.06-.09.09-.2.09-.32,0-.13-.03-.23-.1-.31-.07-.08-.16-.12-.27-.12s-.2.04-.27.11-.11.19-.11.34c0,.12.03.22.09.3.06.08.16.12.29.12s.22-.05.28-.14Z"/>
    <path d="m53.03,110.82v.67c0,.08.02.14.04.2.04.08.12.12.22.12.12,0,.21-.04.25-.13.02-.05.04-.11.04-.19v-.67h.15v.6c0,.13-.02.23-.05.31-.07.13-.19.19-.37.19s-.31-.06-.37-.19c-.04-.07-.05-.17-.05-.31v-.6h.15Z"/>
    <path d="m53.99,110.82h.49c.08,0,.15.01.2.04.1.05.15.13.15.25,0,.06-.01.12-.04.16-.03.04-.06.07-.11.1.04.02.07.04.09.07.02.03.03.07.04.14v.14s0,.07.02.09c0,.03.02.06.05.07v.02h-.18s0-.02-.01-.04,0-.04,0-.08v-.18c-.01-.07-.04-.12-.08-.14-.03-.01-.07-.02-.13-.02h-.32v.46h-.15v-1.08Zm.47.49c.07,0,.12-.01.16-.04.04-.03.06-.08.06-.15,0-.08-.03-.13-.08-.16-.03-.01-.07-.02-.12-.02h-.35v.37h.33Z"/>
    <path d="m55.09,111.73h.15v.16h-.15v-.16Z"/>
    <path d="m55.97,110.82h.15v1.08h-.15v-1.08Z"/>
    <path d="m56.37,110.82h.15v.95h.54v.13h-.69v-1.08Z"/>
    <path d="m57.6,110.82h.17l.54.87v-.87h.14v1.08h-.16l-.54-.87v.87h-.14v-1.08Z"/>
    <path d="m58.71,110.82h.78v.13h-.64v.33h.59v.12h-.59v.37h.65v.13h-.79v-1.08Z"/>
    <path d="m60.15,110.82h.43c.15,0,.26.05.34.16.07.09.11.22.11.36,0,.11-.02.22-.06.31-.07.16-.2.24-.39.24h-.43v-1.08Zm.4.95s.09,0,.12-.02c.06-.02.1-.06.14-.11.03-.04.05-.1.06-.17,0-.04.01-.08.01-.11,0-.13-.03-.24-.08-.31s-.14-.11-.25-.11h-.25v.83h.25Z"/>
    <path d="m62.12,110.97c.07.09.11.22.11.37,0,.16-.04.29-.12.4-.1.13-.23.19-.41.19-.17,0-.3-.05-.39-.16-.08-.11-.13-.24-.13-.4,0-.15.04-.27.11-.37.09-.13.23-.2.41-.2s.33.06.42.18Zm-.13.69c.06-.09.09-.2.09-.32,0-.13-.03-.23-.1-.31-.07-.08-.16-.12-.27-.12s-.2.04-.27.11-.11.19-.11.34c0,.12.03.22.09.3.06.08.16.12.29.12s.22-.05.28-.14Z"/>
    <path d="m62.42,110.82h.17l.54.87v-.87h.14v1.08h-.16l-.54-.87v.87h-.14v-1.08Z"/>
    <path d="m63.52,110.82h.17l.54.87v-.87h.14v1.08h-.16l-.54-.87v.87h-.14v-1.08Z"/>
    <path d="m64.63,110.82h.78v.13h-.64v.33h.59v.12h-.59v.37h.65v.13h-.79v-1.08Z"/>
    <path d="m66.08,110.82h.48c.09,0,.17.03.23.08.06.05.09.13.09.23,0,.08-.03.16-.08.22-.05.06-.13.09-.24.09h-.34v.46h-.15v-1.08Zm.57.15s-.08-.02-.13-.02h-.29v.37h.29c.06,0,.12-.01.16-.04s.06-.08.06-.15c0-.08-.03-.13-.09-.16Z"/>
    <path d="m67.28,110.82h.17l.39,1.08h-.16l-.11-.32h-.43l-.12.32h-.15l.4-1.08Zm.24.64l-.16-.48-.17.48h.34Z"/>
    <path d="m68.08,111.55c0,.06.02.11.04.15.05.07.13.11.25.11.05,0,.1,0,.14-.02.08-.03.13-.08.13-.16,0-.06-.02-.1-.05-.13-.04-.02-.09-.05-.17-.06l-.14-.03c-.09-.02-.16-.04-.2-.07-.07-.04-.1-.11-.1-.2,0-.1.03-.18.1-.24s.16-.09.28-.09c.11,0,.2.03.28.08.08.05.12.14.12.26h-.14c0-.06-.02-.1-.04-.13-.04-.06-.11-.08-.22-.08-.08,0-.14.02-.18.05s-.05.08-.05.13c0,.05.02.09.06.12.03.02.09.04.19.06l.15.03c.07.02.12.04.16.07.07.05.1.12.1.22,0,.12-.04.2-.13.26s-.18.08-.29.08c-.13,0-.23-.03-.31-.1-.07-.07-.11-.16-.11-.28h.14Z"/>
    <path d="m69.44,110.82h.43c.15,0,.26.05.34.16.07.09.11.22.11.36,0,.11-.02.22-.06.31-.07.16-.2.24-.39.24h-.43v-1.08Zm.4.95s.09,0,.12-.02c.06-.02.1-.06.14-.11.03-.04.05-.1.06-.17,0-.04.01-.08.01-.11,0-.13-.03-.24-.08-.31s-.14-.11-.25-.11h-.25v.83h.25Z"/>
    <path d="m70.55,110.82h.49c.08,0,.15.01.2.04.1.05.15.13.15.25,0,.06-.01.12-.04.16-.03.04-.06.07-.11.1.04.02.07.04.09.07.02.03.03.07.04.14v.14s0,.07.02.09c0,.03.02.06.05.07v.02h-.18s0-.02-.01-.04,0-.04,0-.08v-.18c-.01-.07-.04-.12-.08-.14-.03-.01-.07-.02-.13-.02h-.32v.46h-.15v-1.08Zm.47.49c.07,0,.12-.01.16-.04.04-.03.06-.08.06-.15,0-.08-.03-.13-.08-.16-.03-.01-.07-.02-.12-.02h-.35v.37h.33Z"/>
    <path d="m71.64,110.82h.78v.13h-.64v.33h.59v.12h-.59v.37h.65v.13h-.79v-1.08Z"/>
    <path d="m73.53,110.97c.07.09.11.22.11.37,0,.16-.04.29-.12.4-.1.13-.23.19-.41.19-.17,0-.3-.05-.39-.16-.08-.11-.13-.24-.13-.4,0-.15.04-.27.11-.37.09-.13.23-.2.41-.2s.33.06.42.18Zm-.13.69c.06-.09.09-.2.09-.32,0-.13-.03-.23-.1-.31-.07-.08-.16-.12-.27-.12s-.2.04-.27.11-.11.19-.11.34c0,.12.03.22.09.3.06.08.16.12.29.12s.22-.05.28-.14Z"/>
    <path d="m73.86,110.82h.15v1.08h-.15v-1.08Z"/>
    <path d="m75.04,110.82v.13h-.36v.95h-.15v-.95h-.36v-.13h.87Z"/>
    <path d="m75.9,110.82h.17l.39,1.08h-.16l-.11-.32h-.43l-.12.32h-.15l.4-1.08Zm.16-.08h-.1l-.2-.21h.16l.13.21Zm.08.72l-.16-.48-.17.48h.34Z"/>
    <path d="m77.05,110.82h.78v.13h-.64v.33h.59v.12h-.59v.37h.65v.13h-.79v-1.08Z"/>
    <path d="m78.14,111.89h-.18l.38-.55-.36-.52h.18l.27.41.27-.41h.17l-.36.52.37.55h-.18l-.29-.44-.29.44Z"/>
    <path d="m79.08,110.82h.78v.13h-.64v.33h.59v.12h-.59v.37h.65v.13h-.79v-1.08Z"/>
    <path d="m80.1,110.82h.49c.08,0,.15.01.2.04.1.05.15.13.15.25,0,.06-.01.12-.04.16-.03.04-.06.07-.11.1.04.02.07.04.09.07.02.03.03.07.04.14v.14s0,.07.02.09c0,.03.02.06.05.07v.02h-.18s0-.02-.01-.04,0-.04,0-.08v-.18c-.01-.07-.04-.12-.08-.14-.03-.01-.07-.02-.13-.02h-.32v.46h-.15v-1.08Zm.47.49c.07,0,.12-.01.16-.04.04-.03.06-.08.06-.15,0-.08-.03-.13-.08-.16-.03-.01-.07-.02-.12-.02h-.35v.37h.33Z"/>
    <path d="m81.95,110.9c.07.07.12.15.12.24h-.14c-.02-.07-.05-.12-.09-.17-.05-.04-.11-.06-.2-.06-.1,0-.19.04-.25.11s-.1.19-.1.34c0,.13.03.23.09.31.06.08.14.12.26.12.11,0,.19-.04.24-.12.03-.04.05-.1.07-.17h.14c-.01.11-.05.21-.12.28-.08.09-.2.14-.34.14-.12,0-.23-.04-.31-.11-.11-.1-.17-.25-.17-.46,0-.16.04-.29.12-.39.09-.11.21-.17.37-.17.13,0,.24.04.31.11Z"/>
    <path d="m82.3,110.82h.78v.13h-.64v.33h.59v.12h-.59v.37h.65v.13h-.79v-1.08Z"/>
    <path d="m83.31,110.82h.49c.08,0,.15.01.2.04.1.05.15.13.15.25,0,.06-.01.12-.04.16-.03.04-.06.07-.11.1.04.02.07.04.09.07.02.03.03.07.04.14v.14s0,.07.02.09c0,.03.02.06.05.07v.02h-.18s0-.02-.01-.04,0-.04,0-.08v-.18c-.01-.07-.04-.12-.08-.14-.03-.01-.07-.02-.13-.02h-.32v.46h-.15v-1.08Zm.47.49c.07,0,.12-.01.16-.04.04-.03.06-.08.06-.15,0-.08-.03-.13-.08-.16-.03-.01-.07-.02-.12-.02h-.35v.37h.33Z"/>
    <path d="m84.99,110.82v.67c0,.08.02.14.04.2.04.08.12.12.22.12.12,0,.21-.04.25-.13.02-.05.04-.11.04-.19v-.67h.15v.6c0,.13-.02.23-.05.31-.07.13-.19.19-.37.19s-.31-.06-.37-.19c-.04-.07-.05-.17-.05-.31v-.6h.15Z"/>
    <path d="m85.93,110.82h.17l.54.87v-.87h.14v1.08h-.16l-.54-.87v.87h-.14v-1.08Z"/>
    <path d="m87.04,110.82h.78v.13h-.64v.33h.59v.12h-.59v.37h.65v.13h-.79v-1.08Z"/>
    <path d="m88.7,110.82h.17l.39,1.08h-.16l-.11-.32h-.43l-.12.32h-.15l.4-1.08Zm.24.64l-.16-.48-.17.48h.34Z"/>
    <path d="m90.16,110.9c.07.07.12.15.12.24h-.14c-.02-.07-.05-.12-.09-.17-.05-.04-.11-.06-.2-.06-.1,0-.19.04-.25.11s-.1.19-.1.34c0,.13.03.23.09.31.06.08.14.12.26.12.11,0,.19-.04.24-.12.03-.04.05-.1.07-.17h.14c-.01.11-.05.21-.12.28-.08.09-.2.14-.34.14-.12,0-.23-.04-.31-.11-.11-.1-.17-.25-.17-.46,0-.16.04-.29.12-.39.09-.11.21-.17.37-.17.13,0,.24.04.31.11Z"/>
    <path d="m91.29,110.82v.13h-.36v.95h-.15v-.95h-.36v-.13h.87Z"/>
    <path d="m91.47,110.82h.15v1.08h-.15v-1.08Z"/>
    <path d="m91.95,110.82l.31.92.31-.92h.16l-.39,1.08h-.15l-.39-1.08h.16Z"/>
    <path d="m92.91,110.82h.15v1.08h-.15v-1.08Z"/>
    <path d="m94.1,110.82v.13h-.36v.95h-.15v-.95h-.36v-.13h.87Z"/>
    <path d="m94.26,110.82h.78v.13h-.64v.33h.59v.12h-.59v.37h.65v.13h-.79v-1.08Zm.56-.3l-.2.21h-.1l.13-.21h.16Z"/>
    <path d="m95.79,111.55c0,.06.02.11.04.15.05.07.13.11.25.11.05,0,.1,0,.14-.02.08-.03.13-.08.13-.16,0-.06-.02-.1-.05-.13-.04-.02-.09-.05-.17-.06l-.14-.03c-.09-.02-.16-.04-.2-.07-.07-.04-.1-.11-.1-.2,0-.1.03-.18.1-.24s.16-.09.28-.09c.11,0,.2.03.28.08.08.05.12.14.12.26h-.14c0-.06-.02-.1-.04-.13-.04-.06-.11-.08-.22-.08-.08,0-.14.02-.18.05s-.05.08-.05.13c0,.05.02.09.06.12.03.02.09.04.19.06l.15.03c.07.02.12.04.16.07.07.05.1.12.1.22,0,.12-.04.2-.13.26s-.18.08-.29.08c-.13,0-.23-.03-.31-.1-.07-.07-.11-.16-.11-.28h.14Z"/>
    <path d="m97.02,110.82h.17l.39,1.08h-.16l-.11-.32h-.43l-.12.32h-.15l.4-1.08Zm.24.64l-.16-.48-.17.48h.34Z"/>
    <path d="m97.72,110.82h.15v.95h.54v.13h-.69v-1.08Z"/>
    <path d="m98.88,110.82h.17l.39,1.08h-.16l-.11-.32h-.43l-.12.32h-.15l.4-1.08Zm.24.64l-.16-.48-.17.48h.34Z"/>
    <path d="m99.6,110.82h.49c.08,0,.15.01.2.04.1.05.15.13.15.25,0,.06-.01.12-.04.16-.03.04-.06.07-.11.1.04.02.07.04.09.07.02.03.03.07.04.14v.14s0,.07.02.09c0,.03.02.06.05.07v.02h-.18s0-.02-.01-.04,0-.04,0-.08v-.18c-.01-.07-.04-.12-.08-.14-.03-.01-.07-.02-.13-.02h-.32v.46h-.15v-1.08Zm.47.49c.07,0,.12-.01.16-.04.04-.03.06-.08.06-.15,0-.08-.03-.13-.08-.16-.03-.01-.07-.02-.12-.02h-.35v.37h.33Z"/>
    <path d="m100.72,110.82h.15v1.08h-.15v-1.08Z"/>
    <path d="m101.13,110.82h.78v.13h-.64v.33h.59v.12h-.59v.37h.65v.13h-.79v-1.08Zm.56-.3l-.2.21h-.1l.13-.21h.16Z"/>
    <path d="m102.15,110.82h.78v.13h-.64v.33h.59v.12h-.59v.37h.65v.13h-.79v-1.08Z"/>
    <path d="m103.68,111.55c0,.06.02.11.04.15.05.07.13.11.25.11.05,0,.1,0,.14-.02.08-.03.13-.08.13-.16,0-.06-.02-.1-.05-.13-.04-.02-.09-.05-.17-.06l-.14-.03c-.09-.02-.16-.04-.2-.07-.07-.04-.1-.11-.1-.2,0-.1.03-.18.1-.24s.16-.09.28-.09c.11,0,.2.03.28.08.08.05.12.14.12.26h-.14c0-.06-.02-.1-.04-.13-.04-.06-.11-.08-.22-.08-.08,0-.14.02-.18.05s-.05.08-.05.13c0,.05.02.09.06.12.03.02.09.04.19.06l.15.03c.07.02.12.04.16.07.07.05.1.12.1.22,0,.12-.04.2-.13.26s-.18.08-.29.08c-.13,0-.23-.03-.31-.1-.07-.07-.11-.16-.11-.28h.14Z"/>
    <path d="m104.91,110.82h.17l.39,1.08h-.16l-.11-.32h-.43l-.12.32h-.15l.4-1.08Zm.24.64l-.16-.48-.17.48h.34Z"/>
    <path d="m105.61,110.82h.17l.54.87v-.87h.14v1.08h-.16l-.54-.87v.87h-.14v-1.08Z"/>
    <path d="m106.8,111.55c0,.06.02.11.04.15.05.07.13.11.25.11.05,0,.1,0,.14-.02.08-.03.13-.08.13-.16,0-.06-.02-.1-.05-.13-.04-.02-.09-.05-.17-.06l-.14-.03c-.09-.02-.16-.04-.2-.07-.07-.04-.1-.11-.1-.2,0-.1.03-.18.1-.24s.16-.09.28-.09c.11,0,.2.03.28.08.08.05.12.14.12.26h-.14c0-.06-.02-.1-.04-.13-.04-.06-.11-.08-.22-.08-.08,0-.14.02-.18.05s-.05.08-.05.13c0,.05.02.09.06.12.03.02.09.04.19.06l.15.03c.07.02.12.04.16.07.07.05.1.12.1.22,0,.12-.04.2-.13.26s-.18.08-.29.08c-.13,0-.23-.03-.31-.1-.07-.07-.11-.16-.11-.28h.14Z"/>
    <path d="m108.39,110.82h.17l.39,1.08h-.16l-.11-.32h-.43l-.12.32h-.15l.4-1.08Zm.24.64l-.16-.48-.17.48h.34Z"/>
    <path d="m109.25,110.82v.67c0,.08.02.14.04.2.04.08.12.12.22.12.12,0,.21-.04.25-.13.02-.05.04-.11.04-.19v-.67h.15v.6c0,.13-.02.23-.05.31-.07.13-.19.19-.37.19s-.31-.06-.37-.19c-.04-.07-.05-.17-.05-.31v-.6h.15Z"/>
    <path d="m110.97,110.82v.13h-.36v.95h-.15v-.95h-.36v-.13h.87Z"/>
    <path d="m111.98,110.97c.07.09.11.22.11.37,0,.16-.04.29-.12.4-.1.13-.23.19-.41.19-.17,0-.3-.05-.39-.16-.08-.11-.13-.24-.13-.4,0-.15.04-.27.11-.37.09-.13.23-.2.41-.2s.33.06.42.18Zm-.13.69c.06-.09.09-.2.09-.32,0-.13-.03-.23-.1-.31-.07-.08-.16-.12-.27-.12s-.2.04-.27.11-.11.19-.11.34c0,.12.03.22.09.3.06.08.16.12.29.12s.22-.05.28-.14Z"/>
    <path d="m112.29,110.82h.49c.08,0,.15.01.2.04.1.05.15.13.15.25,0,.06-.01.12-.04.16-.03.04-.06.07-.11.1.04.02.07.04.09.07.02.03.03.07.04.14v.14s0,.07.02.09c0,.03.02.06.05.07v.02h-.18s0-.02-.01-.04,0-.04,0-.08v-.18c-.01-.07-.04-.12-.08-.14-.03-.01-.07-.02-.13-.02h-.32v.46h-.15v-1.08Zm.47.49c.07,0,.12-.01.16-.04.04-.03.06-.08.06-.15,0-.08-.03-.13-.08-.16-.03-.01-.07-.02-.12-.02h-.35v.37h.33Z"/>
    <path d="m113.41,110.82h.15v1.08h-.15v-1.08Z"/>
    <path d="m113.9,111.55c0,.06.02.11.04.15.05.07.13.11.25.11.05,0,.1,0,.14-.02.08-.03.13-.08.13-.16,0-.06-.02-.1-.05-.13-.04-.02-.09-.05-.17-.06l-.14-.03c-.09-.02-.16-.04-.2-.07-.07-.04-.1-.11-.1-.2,0-.1.03-.18.1-.24s.16-.09.28-.09c.11,0,.2.03.28.08.08.05.12.14.12.26h-.14c0-.06-.02-.1-.04-.13-.04-.06-.11-.08-.22-.08-.08,0-.14.02-.18.05s-.05.08-.05.13c0,.05.02.09.06.12.03.02.09.04.19.06l.15.03c.07.02.12.04.16.07.07.05.1.12.1.22,0,.12-.04.2-.13.26s-.18.08-.29.08c-.13,0-.23-.03-.31-.1-.07-.07-.11-.16-.11-.28h.14Z"/>
    <path d="m115.13,110.82h.17l.39,1.08h-.16l-.11-.32h-.43l-.12.32h-.15l.4-1.08Zm.24.64l-.16-.48-.17.48h.34Z"/>
    <path d="m116.51,110.82v.13h-.36v.95h-.15v-.95h-.36v-.13h.87Z"/>
    <path d="m116.69,110.82h.15v1.08h-.15v-1.08Z"/>
    <path d="m117.97,110.97c.07.09.11.22.11.37,0,.16-.04.29-.12.4-.1.13-.23.19-.41.19-.17,0-.3-.05-.39-.16-.08-.11-.13-.24-.13-.4,0-.15.04-.27.11-.37.09-.13.23-.2.41-.2s.33.06.42.18Zm-.13.69c.06-.09.09-.2.09-.32,0-.13-.03-.23-.1-.31-.07-.08-.16-.12-.27-.12s-.2.04-.27.11-.11.19-.11.34c0,.12.03.22.09.3.06.08.16.12.29.12s.22-.05.28-.14Z"/>
    <path d="m118.27,110.82h.17l.54.87v-.87h.14v1.08h-.16l-.54-.87v.87h-.14v-1.08Z"/>
    <path d="m119.38,111.73h.15v.16h-.15v-.16Z"/>
  </g>
  <g>
    <path d="m89.74,77.57c0,.08.02.15.06.2.06.1.17.14.33.14.07,0,.13-.01.19-.03.11-.04.17-.11.17-.22,0-.08-.02-.13-.07-.17-.05-.03-.12-.06-.23-.08l-.19-.04c-.12-.03-.21-.06-.26-.09-.09-.06-.13-.15-.13-.27,0-.13.04-.23.13-.32.09-.08.21-.12.37-.12.15,0,.27.04.37.11.1.07.15.19.15.35h-.18c0-.08-.03-.14-.06-.18-.06-.07-.15-.11-.29-.11-.11,0-.19.02-.24.07-.05.05-.07.1-.07.17,0,.07.03.12.08.15.04.02.12.05.25.08l.19.05c.09.02.17.05.22.09.09.07.13.16.13.29,0,.16-.06.27-.17.34s-.24.1-.39.1c-.17,0-.31-.05-.41-.14-.1-.09-.15-.21-.14-.37h.18Z"/>
    <path d="m91.01,76.6h.2v1.43h-.2v-1.43Z"/>
    <path d="m92.49,76.64c.14.07.23.21.26.39h-.19c-.02-.1-.07-.18-.14-.23-.07-.05-.16-.07-.27-.07-.13,0-.24.05-.33.15s-.13.25-.13.45c0,.17.04.31.11.42.07.11.19.16.36.16.13,0,.23-.04.32-.11.08-.08.13-.2.13-.36h-.45v-.16h.63v.77h-.12l-.05-.18c-.06.07-.12.12-.17.15-.08.05-.19.07-.32.07-.17,0-.31-.06-.43-.17-.13-.14-.2-.33-.2-.57s.06-.43.19-.57c.12-.14.28-.2.47-.2.13,0,.25.03.34.08Z"/>
    <path d="m93.12,76.6h.23l.72,1.16v-1.16h.19v1.43h-.22l-.73-1.16v1.16h-.19v-1.43Z"/>
    <path d="m95,76.6h.22l.52,1.43h-.21l-.15-.43h-.57l-.16.43h-.2l.54-1.43Zm.32.85l-.22-.63-.23.63h.45Z"/>
    <path d="m96.83,76.6v.17h-.48v1.26h-.2v-1.26h-.48v-.17h1.16Z"/>
    <path d="m97.24,76.6v.89c0,.1.02.19.06.26.06.1.16.16.3.16.17,0,.28-.06.34-.17.03-.06.05-.14.05-.25v-.89h.2v.81c0,.18-.02.31-.07.41-.09.17-.25.26-.5.26s-.41-.09-.5-.26c-.05-.1-.07-.23-.07-.41v-.81h.2Z"/>
    <path d="m98.52,76.6h.65c.11,0,.2.02.27.05.13.06.2.17.2.34,0,.09-.02.16-.05.21s-.08.1-.15.13c.06.02.1.05.13.09s.04.1.05.18v.19c0,.05.01.1.02.12.01.05.03.07.06.09v.03h-.24s-.01-.03-.02-.05,0-.06,0-.11v-.24c-.02-.09-.05-.16-.11-.19-.04-.02-.09-.03-.17-.03h-.43v.62h-.19v-1.43Zm.63.66c.09,0,.16-.02.21-.05.05-.04.08-.1.08-.2,0-.1-.04-.17-.11-.21-.04-.02-.09-.03-.15-.03h-.46v.49h.44Z"/>
    <path d="m99.97,76.6h1.04v.18h-.85v.44h.79v.17h-.79v.49h.87v.17h-1.06v-1.43Z"/>
    <path d="m101.9,76.6h1.04v.18h-.85v.44h.79v.17h-.79v.49h.87v.17h-1.06v-1.43Z"/>
    <path d="m104.28,76.6v.17h-.48v1.26h-.2v-1.26h-.48v-.17h1.16Z"/>
    <path d="m106.04,76.7c.1.1.15.2.17.33h-.19c-.02-.09-.06-.17-.13-.22s-.15-.08-.27-.08c-.14,0-.25.05-.34.15-.09.1-.13.25-.13.46,0,.17.04.3.12.41s.19.16.34.16c.14,0,.25-.06.32-.17.04-.06.07-.13.09-.23h.19c-.02.15-.07.28-.17.38-.11.12-.26.18-.46.18-.17,0-.3-.05-.42-.15-.15-.13-.22-.34-.22-.62,0-.21.06-.39.17-.52.12-.15.28-.22.5-.22.18,0,.32.05.42.14Z"/>
    <path d="m106.9,76.6h.22l.52,1.43h-.21l-.15-.43h-.57l-.16.43h-.2l.54-1.43Zm.32.85l-.22-.63-.23.63h.45Z"/>
    <path d="m108.85,76.7c.1.1.15.2.17.33h-.19c-.02-.09-.06-.17-.13-.22s-.15-.08-.27-.08c-.14,0-.25.05-.34.15-.09.1-.13.25-.13.46,0,.17.04.3.12.41s.19.16.34.16c.14,0,.25-.06.32-.17.04-.06.07-.13.09-.23h.19c-.02.15-.07.28-.17.38-.11.12-.26.18-.46.18-.17,0-.3-.05-.42-.15-.15-.13-.22-.34-.22-.62,0-.21.06-.39.17-.52.12-.15.28-.22.5-.22.18,0,.32.05.42.14Z"/>
    <path d="m109.31,76.6h.2v.59h.74v-.59h.2v1.43h-.2v-.67h-.74v.67h-.2v-1.43Z"/>
    <path d="m110.79,76.6h1.04v.18h-.85v.44h.79v.17h-.79v.49h.87v.17h-1.06v-1.43Z"/>
    <path d="m113.17,76.6v.17h-.48v1.26h-.2v-1.26h-.48v-.17h1.16Z"/>
    <path d="m93.92,79h.57c.19,0,.35.07.45.21.1.13.14.29.14.49,0,.15-.03.29-.08.41-.1.22-.27.33-.51.33h-.57v-1.43Zm.54,1.27c.06,0,.12,0,.16-.02.07-.03.13-.07.18-.15.04-.06.06-.13.08-.22,0-.05.01-.1.01-.15,0-.18-.03-.32-.1-.41-.07-.1-.18-.15-.33-.15h-.34v1.1h.34Z"/>
    <path d="m95.39,79h1.04v.18h-.85v.44h.79v.17h-.79v.49h.87v.17h-1.06v-1.43Z"/>
    <path d="m97.3,79h.19v1.26h.72v.17h-.91v-1.43Z"/>
    <path d="m98.34,79.42s.06-.03.08-.06c.02-.03.03-.07.03-.12,0,0,0,0,0-.01s0,0,0-.01h-.11v-.21h.21v.2c0,.08-.02.15-.05.21s-.09.09-.16.1v-.09Z"/>
    <path d="m99.21,79h.22l.52,1.43h-.21l-.15-.43h-.57l-.16.43h-.2l.54-1.43Zm.32.85l-.22-.63-.23.63h.45Z"/>
    <path d="m100.36,79v.89c0,.1.02.19.06.26.06.1.16.16.3.16.17,0,.28-.06.34-.17.03-.06.05-.14.05-.25v-.89h.2v.81c0,.18-.02.31-.07.41-.09.17-.25.26-.5.26s-.41-.09-.5-.26c-.05-.1-.07-.23-.07-.41v-.81h.2Z"/>
    <path d="m102.65,79v.17h-.48v1.26h-.2v-1.26h-.48v-.17h1.16Z"/>
    <path d="m104,79.2c.1.13.14.29.14.49,0,.21-.05.39-.16.53-.13.17-.31.25-.55.25-.22,0-.39-.07-.52-.22-.11-.14-.17-.32-.17-.53,0-.19.05-.36.14-.5.12-.18.31-.27.55-.27s.44.08.56.24Zm-.17.91c.08-.12.11-.26.11-.42,0-.17-.04-.3-.13-.41s-.21-.15-.36-.15-.27.05-.36.15-.14.25-.14.45c0,.16.04.29.12.4.08.11.21.16.39.16s.29-.06.37-.18Z"/>
    <path d="m104.42,79h.65c.11,0,.2.02.27.05.13.06.2.17.2.34,0,.09-.02.16-.05.21s-.08.1-.15.13c.06.02.1.05.13.09s.04.1.05.18v.19c0,.05.01.1.02.12.01.05.03.07.06.09v.03h-.24s-.01-.03-.02-.05,0-.06,0-.11v-.24c-.02-.09-.05-.16-.11-.19-.04-.02-.09-.03-.17-.03h-.43v.62h-.19v-1.43Zm.63.66c.09,0,.16-.02.21-.05.05-.04.08-.1.08-.2,0-.1-.04-.17-.11-.21-.04-.02-.09-.03-.15-.03h-.46v.49h.44Z"/>
    <path d="m105.9,79h.2v1.43h-.2v-1.43Z"/>
    <path d="m107.48,79v.17h-.48v1.26h-.2v-1.26h-.48v-.17h1.16Z"/>
    <path d="m107.69,79h1.04v.18h-.85v.44h.79v.17h-.79v.49h.87v.17h-1.06v-1.43Zm.75-.4l-.26.28h-.13l.18-.28h.22Z"/>
  </g>
  <g>
    <polygon class="cls-10" points="113.38 71.53 89.73 71.46 89.76 40.71 113.38 40.71 113.38 71.53"/>
    <path class="cls-7" d="m103.14,70.07c-2.65.56-4.94-1.99-4.94-1.99l.31-4.47.03-.5,6.91-1.33.18,1.43.58,4.86c-.03.09-.06.19-.09.27-.02.06-.03.11-.06.16-.01.02-.01.04-.02.07,0,0-1.06,1.11-2.91,1.51Z"/>
    <path class="cls-8" d="m101.02,43.98s0,1.29-.47,2.16h-.01"/>
    <path class="cls-8" d="m98.52,46.68c-1.02-.59-1.71-2.08-1.71-2.08"/>
    <path class="cls-8" d="m95.3,58.51h-.01c-.12-.03-.96-.24-1.45-1.56-.53-1.42-1.14-1.26-1.2-2.73-.04-1.39,1.4-.79,1.56-.71"/>
    <path class="cls-2" d="m107.09,45.81s-1,.59-2.11.8"/>
    <path class="cls-7" d="m96.41,47.31c.63.03,1.37-.12,2.11-.63.31.19.63.28.98.24.49-.05.81-.38,1.04-.78.01.01.02.02.04.02.14.13,1.02.91,2.11-.15.57.68,1.46.75,2.3.6.5.38,1.18.34,1.18.34.04.06.09.12.12.18,2.04,2.88,2.24,4.83,2.25,5.04.12-.51.22-1,.29-1.46-.11.86-.27,1.49-.31,1.62h0s0,.04,0,.04h.01c.03.82.04,2.93-.3,5.11-.28,1.82-.83,3.69-1.83,4.89-2.3,2.8-3.8,2.86-4.02,2.84-.23.05-1.81.29-4.53-2.13-1.17-1.03-2-2.8-2.56-4.55-.67-2.1-.98-4.19-1.08-5h.01c-.02-.09-.03-.19-.02-.29.03.08.06.12.06.12-.03-.34-.03-.68-.02-1.01.22-1.69,1.77-4.5,1.95-4.98l.23-.04Z"/>
    <path class="cls-2" d="m94.24,52.33c-.05.32-.06.61-.04.88"/>
    <path class="cls-8" d="m94.22,53.51s0-.01-.01-.02h0c-.07-.17-.44-1-.69-2.13v-.03c-.51-2.26-.52-5.67,3.23-7.19,0,0,.23-1.24,1.82-1.04,0,0,1.84-2.01,4.05-.36,1.54-.44,1.96.75,1.96.75,4.24,1,4.51,4.82,4.26,7.1,0,.05-.02.08-.01.12"/>
    <path class="cls-8" d="m106.32,47.35s2.18,3.17,2.18,5"/>
    <path class="cls-2" d="m94.17,53.16h0s.01.15.04.31h0s0,.03,0,.03"/>
    <path class="cls-2" d="m108.51,52.35v-.02"/>
    <path class="cls-2" d="m108.5,52s0,.12.01.32"/>
    <path class="cls-8" d="m108.2,57.46h.01c.11-.04.91-.39,1.19-1.77.31-1.49.93-1.42.76-2.88-.18-1.38-1.51-.56-1.65-.46"/>
    <path class="cls-8" d="m103.59,44.75c-.28.51-.55.9-.81,1.16-.03.04-.05.07-.09.09"/>
    <path class="cls-2" d="m100.58,46.16l-.03-.02"/>
    <path class="cls-7" d="m102.05,52.17s.49,4.39,1.44,6.59c0,0-.19.45-1.61.17"/>
    <ellipse class="cls-7" cx="99.11" cy="54.27" rx=".15" ry=".44" transform="translate(-3.89 7.81) rotate(-4.42)"/>
    <ellipse class="cls-7" cx="105.15" cy="53.69" rx=".15" ry=".44" transform="translate(-3.83 8.27) rotate(-4.42)"/>
    <path class="cls-1" d="m113.38,68.68s-5.02-.41-7.17-.61"/>
    <path class="cls-1" d="m98.14,68.09s-6.58,1.12-8.39,1.12"/>
  </g>
  <path class="cls-6" d="m21.03,93.86s1.93,8.02-1.04,6.68c-2.97-1.34-2.67-3.71-1.19-4.01s4.61,2.97,6.83,2.08,4.01-3.57,2.53-4.16-.59,4.75,1.63,4.61-8.62-4.01-15.45-3.12"/>
  <rect class="cls-9" x="-322.52" y="-73.43" width="1509.9" height="999.05"/>
</svg>