<?xml version="1.0" encoding="UTF-8"?>
<svg id="Calque_1" data-name="Calque 1" xmlns="http://www.w3.org/2000/svg" viewBox="0 0 128 128">
  <defs>
    <style>
      .cls-1 {
        fill: #fff;
      }

      .cls-1, .cls-2, .cls-3 {
        stroke: #000;
      }

      .cls-1, .cls-2, .cls-4 {
        stroke-linecap: round;
        stroke-linejoin: round;
      }

      .cls-2, .cls-4 {
        fill: none;
      }

      .cls-5 {
        fill: #fab0b4;
      }

      .cls-6, .cls-3 {
        fill: #ff6d75;
      }

      .cls-3 {
        stroke-miterlimit: 10;
      }

      .cls-4 {
        stroke: #fff;
        stroke-width: 8px;
      }
    </style>
  </defs>
  <path class="cls-1" d="m45.51,61.81l6.09-3.8c0,.2-.01,13.83-2.75,16.81l8.76,9.15c-.02.18-.05.36-.08.54.01-.03.01-.04.01-.04,0,0,1.18,1.06,3.48,1.45,2.3.38,5.03-.56,7.71.47,1.35.51,2.63.61,3.46.71,2.43-1.18,5.12-.7,7.25-1.37,2.22-.69,3.24-1.92,3.24-1.92.97.39,1.73.9,2.33,1.46,1.95,1.78,2.19,4,2.19,4-.07.11-.15.22-.23.33.08.32.12.52.12.52,0,0,14.47-7.72,15.55-10.61,1.09-2.9-1.57-19.17-1.93-25.56-.2-3.61-1.18-5.95-1.99-7.31h0c-.62-1.04-1.14-1.49-1.14-1.49l-7.65-6.85c-.49.28-.98.51-1.45.68h-.01c-.24.36-5.42,7.74-13.07,2.55-7.84-5.3-7.36-8.31-7.36-8.31,0,0-2.3.29-5.39.96-4.66,1.02-11.09,2.91-14.14,6.03-2.28,2.34-6.56,6.03-10.66,9.74m48.42,29.85c1.84-3.91,5.53-9.01,5.76-9.32-.07.15-.12.23-.12.23l.73,3.25-6.37,5.84Z"/>
  <path class="cls-1" d="m84.72,92.2l6.23,25.8s-21.22,9-52.08,0c0,0,1.55-26.27,5.6-32.82"/>
  <circle class="cls-5" cx="67.11" cy="93.35" r="16.8"/>
  <circle class="cls-6" cx="67.11" cy="93.35" r="13.42"/>
  <path class="cls-2" d="m77.93,30.93c.36,1.32,5.3,6.87,7.71,8.19.69.38,1.71.28,2.83-.13"/>
  <path class="cls-2" d="m89.93,38.3c2.43-1.35,4.87-3.76,5.24-5.69.6-3.25,3.85-6.87,3.85-6.87"/>
  <path class="cls-2" d="m95.65,52.38s-2.41,5.55-1.45,9.04c.85,3.07-1.56,7.91-2.16,9.04,0,0,0,.01-.01.02"/>
  <path class="cls-2" d="m86.27,79.8s-.01.01-.01.02l-3.87,3.54c1.1.3,1.96,1.03,2.62,1.91,1.15,1.5,1.73,3.42,1.96,4.33"/>
  <path class="cls-1" d="m45.51,61.81l-5.57,3.47c3.06,2.61,5.44,5.91,5.44,5.91l3.47,3.63,8.76,9.15c-.02.18-.05.36-.08.54-.01.04-.02.12-.04.21-.18,1.01-.46,1.87-.81,2.59-.64,1.34-1.5,2.23-2.3,2.81-.19.15-.38.27-.56.38-1.01.58-1.81.7-1.81.7-.06,0-.86-.14-7.54-6.02-1.78-1.57-3.97-3.54-6.68-6.03-13.39-12.3-11.34-13.99-10.25-17.97.59-2.18,5.32-6.72,10.31-11.23"/>
  <path class="cls-2" d="m39.94,65.28c-1.77-1.51-3.76-2.78-5.65-3.07"/>
  <line class="cls-2" x1="56.95" y1="54.67" x2="51.6" y2="58.01"/>
  <path class="cls-2" d="m56.95,39.36s2.89,5.98.65,11.14"/>
  <path class="cls-2" d="m93.82,25.74s-1.74.81-2.17,2.9c-.43,2.09.89,2.17-.98,3.15"/>
  <path class="cls-2" d="m90.46,34.77s-1.45-1.87-4.55-.89"/>
  <path class="cls-2" d="m95.7,15.7s3.54.96,3.67,3.77-.9,7.51.93,12.66"/>
  <path class="cls-2" d="m92.64,15.07c-2.48,3.45-2.69,5.79-6.18,6.26-3.49.47-3.62,7.15-7.96,7.23-4.34.09-7.06,1.53-7.06,1.53"/>
  <path class="cls-2" d="m71.64,32.78s-8.98-4.64-2.91-11.48c1.74-1.95,6.26-13.93,16.05-15.91,9.78-1.98,13.94,4.04,13.94,4.04,0,0,4.72.61,4.18,6.28-.54,5.67,3.04,4.74.04,10.04-3,5.29,4.52,7.04-1.48,12.56-4.79,4.41-9.21,2.08-9.21,2.08"/>
  <path class="cls-2" d="m76.63,28.68s-2.25,4.83-8.59,4.53"/>
  <path class="cls-2" d="m99.22,25.19s-2.54-.89-2.8-2.49"/>
  <path class="cls-2" d="m92.64,20.09s-.82,1.94-4.17.59"/>
  <ellipse cx="95.2" cy="27.47" rx="1.24" ry=".87" transform="translate(33.51 105) rotate(-67.58)"/>
  <ellipse cx="88.19" cy="25.19" rx="1.24" ry=".87" transform="translate(31.27 97.11) rotate(-67.58)"/>
  <path class="cls-1" d="m69.7,92.05c-.06.14.62.5,1.61.98.1.04.2.09.31.15,2.7,1.27,7.21,3.24,6.38,4.05-.66.64-3-.29-5.15-1.16-.2-.09-.4-.17-.59-.24-1.34-.54-2.53-.99-3.08-.93-.06.01-.12.02-.16.04-.08.03-.11.08-.11.14,0,.27.84.78,1.95,1.38.32.18.66.36,1.01.54.63.34,1.29.69,1.89,1.03.21.12.42.24.61.36.91.55,1.59,1.06,1.67,1.44.11.52-1.07.18-2.61-.42-.38-.14-.79-.31-1.2-.48-.62-.26-1.27-.54-1.88-.79-.5-.22-.98-.43-1.4-.6-.92-.37-1.59-.61-1.72-.52-.13.09.26.47.88,1,.33.27.73.58,1.15.91.42.33.86.67,1.29,1.01.49.38.95.75,1.33,1.08.75.65,1.18,1.14.83,1.21-.21.05-.78-.08-1.61-.37-.63-.22-1.4-.53-2.28-.92-.42-.19-.85-.39-1.31-.62-.65-.31-1.33-.66-2.04-1.04-.39-.22-.79-.44-1.2-.67-3.53-2.03-7.49-4.81-10.45-8.11h-.01s.57-.38.57-.38c1.01-.76,1.72-1.83,2.21-2.82.53-1.1.8-2.12.9-2.58.02-.09.03-.17.04-.21.01-.03.01-.04.01-.04,0,0,1.18,1.06,3.48,1.45,2.3.38,5.03-.56,7.71.47,1.35.51,2.63.61,3.46.71.81.11,1.19.23.74.78-.69.85-3.41.74-4.61.65-.36-.03-.58-.06-.58-.06l.34.13,2.68,1.04.6.24.33.12,4.6,1.79s2.64,1.23,1.92,2.09c-.72.85-8.3-2.35-8.51-1.83Z"/>
  <path class="cls-1" d="m87.2,89.27c-.07.11-.15.22-.23.33-.67.97-1.41,1.91-2.2,2.82-5.64,6.49-13.63,11.16-14.63,11.09-.41-.03.12-.74.96-1.65.23-.27.5-.55.78-.84.51-.54,1.07-1.1,1.55-1.61.37-.38.69-.73.94-1.02.38-.44.59-.74.47-.8-.11-.05-.51.13-1.08.44-.43.24-.96.55-1.53.9-.54.32-1.11.67-1.68,1.01-.59.36-1.19.7-1.73,1-1.33.73-2.34,1.15-2.3.65.02-.31.41-.76.99-1.27.48-.43,1.1-.91,1.75-1.39.36-.26.73-.53,1.09-.79.56-.41,1.09-.79,1.52-1.14.49-.38.86-.71.98-.93.1-.15.08-.25-.07-.29-.12-.04-.3-.02-.52.05-.37.1-.85.33-1.4.63-.58.31-1.24.69-1.91,1.08-.28.16-.56.32-.84.48-.96.54-1.9,1.03-2.64,1.26-.55.17-.99.2-1.25,0-.2-.15-.17-.38.05-.68.62-.89,2.79-2.33,4.64-3.53.09-.06.18-.12.27-.18,1.15-.76,2.13-1.4,2.44-1.72.08-.08.11-.14.09-.18-.04-.06-.18-.04-.4.03-1.55.48-7.03,3.62-7.76,2.96-.84-.74,1.6-2.33,1.6-2.33l6.54-3.66.1-.05,1.34-.75c-.17.04-1.23.31-2.37.44-.16.02-.32.04-.47.05-.98.08-1.93.03-2.36-.37-.02-.02-.04-.04-.05-.05-.33-.33-.21-.51.2-.67.07-.02.15-.05.24-.07.77-.24,2.16-.49,3.56-1.27.1-.06.21-.11.31-.16,2.43-1.18,5.12-.7,7.25-1.37,2.22-.69,3.24-1.92,3.24-1.92.97.39,1.73.9,2.33,1.46,1.95,1.78,2.19,4,2.19,4Z"/>
  <path class="cls-2" d="m86.27,79.8s-.01.01-.01.02"/>
  <path class="cls-2" d="m92.04,70.46s0,.01-.01.02"/>
  <path class="cls-1" d="m13.61,7.61c9.35-7.19,22.77-5.45,29.98,3.89,3.06,3.96,4.5,8.65,4.44,13.3h0l5.4,5.1-6.61,1.75h0c-1.32,3.76-3.71,7.19-7.1,9.8-9.35,7.19-22.77,5.45-29.98-3.89C2.52,28.21,4.26,14.8,13.61,7.61Z"/>
  <path class="cls-2" d="m62.14,67.55s10.95,8.94,23.77,5.82"/>
  <path class="cls-3" d="m26.58,40.19c6.32,0,11.44-5.12,11.44-11.44s-11.44-20.22-11.44-20.22c0,0-11.44,13.9-11.44,20.22s5.12,11.44,11.44,11.44Z"/>
  <rect class="cls-4" x="-946.9" y="-2748.45" width="6467.34" height="6437.3"/>
</svg>