<?xml version="1.0" encoding="UTF-8"?><svg id="Calque_1" xmlns="http://www.w3.org/2000/svg" viewBox="0 0 128 128"><defs><style>.cls-1{fill:#a07637;}.cls-1,.cls-2,.cls-3,.cls-4,.cls-5,.cls-6{stroke-linecap:round;stroke-linejoin:round;}.cls-1,.cls-2,.cls-4,.cls-5{stroke:#000;}.cls-1,.cls-2,.cls-4,.cls-5,.cls-6{stroke-width:2px;}.cls-2{fill:#76ac75;}.cls-3{stroke:#e30613;stroke-width:8px;}.cls-3,.cls-6{fill:none;}.cls-4{fill:#fff;}.cls-5{fill:#d6d6d6;}.cls-6{stroke:#ff6d75;}</style></defs><rect class="cls-3" x="-1047.95" y="-448.15" width="2655.08" height="1511.77"/><g id="jkvMcz"><path class="cls-5" d="m109.12,49.84c-3.37,4.73-5.62,10.69-3.73,17.6.82,3.01,3.04,5.16,5.07,7.38,1.19,1.3,1.8,2.65,1.68,4.45-.38,5.47-.7,10.95-.96,16.43-.23,4.87-.2,9.74.43,14.58.12.89.33,1.79.61,2.65.58,1.78,1.36,2.35,3.04,2.34,1.71-.01,2.45-.58,3.04-2.34.47-1.42.63-2.9.73-4.38.61-8.61-.4-17.14-1.08-25.7-.11-1.4-.18-2.8-.33-4.2-.15-1.43.4-2.54,1.3-3.6,1.22-1.45,2.46-2.9,3.54-4.45,2.68-3.86,2.72-8.11,1.55-12.47-.92-3.42-2.26-6.65-4.84-9.2-3.01-2.98-6.34-2.92-10.05.9Z"/></g><circle class="cls-4" cx="63.17" cy="81.05" r="38.59"/><circle class="cls-4" cx="63.17" cy="81.05" r="31.5"/><path class="cls-5" d="m8.79,46.58c-.05.06-.07.14-.08.22-.09,1.22-.18,2.45-.27,3.67-.1,1.29-.2,2.59-.3,3.88-.08,1.09-.15,2.18-.23,3.27-.1,1.29-.2,2.59-.3,3.88-.07.88-.1,1.76-.19,2.64-.09.96.09,1.86.46,2.73.42.98,1.06,1.8,1.92,2.42,1.04.74,1.73,1.7,1.99,2.95.14.68.1,1.38.07,2.06-.04.79-.03,1.57-.07,2.36-.06,1-.04,2.01-.08,3.02-.06,1.91-.12,3.81-.16,5.72-.03,1.2-.07,2.4-.1,3.6-.05,1.89-.11,3.78-.16,5.67-.03,1.21-.07,2.42-.1,3.63-.06,1.88-.11,3.76-.16,5.64-.03,1.24-.08,2.47-.1,3.71-.04,1.65-.12,3.3-.14,4.95-.02,1.68,1.27,3.08,2.91,3.22,1.65.14,3.15-1.02,3.4-2.69.12-.79.03-1.61,0-2.41-.02-.63-.06-1.27-.08-1.9-.04-1.56-.08-3.12-.12-4.69-.07-2.28-.14-4.55-.21-6.83-.05-1.67-.11-3.34-.16-5-.05-1.75-.11-3.49-.16-5.24-.05-1.73-.11-3.46-.16-5.19-.05-1.71-.1-3.42-.16-5.14-.04-1.17-.11-2.35-.1-3.52.01-1.53.63-2.77,1.87-3.67,1.36-.98,2.27-2.25,2.61-3.91.16-.81.06-1.62.01-2.43-.04-.65-.09-1.3-.14-1.95-.08-1.19-.17-2.38-.25-3.56-.06-.87-.11-1.74-.17-2.61-.08-1.2-.17-2.39-.25-3.59-.06-.86-.12-1.73-.17-2.59-.04-.63-.09-1.25-.12-1.88-.02-.36-.2-.56-.52-.67-.53-.18-9.81,0-10.02.26Z"/><line class="cls-5" x1="15.9" y1="46.88" x2="15.9" y2="61.17"/><line class="cls-5" x1="12.03" y1="46.88" x2="12.03" y2="61.17"/><path class="cls-2" d="m86.29,87.34c.52,1.1.8,2.33.8,3.63,0,4.8-3.9,8.7-8.7,8.7-4.35,0-7.97-3.21-8.6-7.39-3-1.37-5.08-4.4-5.08-7.91,0-4.23,3.03-7.76,7.04-8.53-.9-1.36-1.42-2.99-1.42-4.74,0-4.81,3.89-8.7,8.7-8.7s8.69,3.89,8.69,8.7c0,1.4-.33,2.73-.92,3.9,1.45,1.55,2.33,3.64,2.33,5.92,0,2.54-1.1,4.83-2.84,6.42Z"/><path class="cls-1" d="m59.93,75.87l-23.27-.84c.18-1.52.52-2.96.99-4.25l20.21.73c.79,1.33,1.5,2.79,2.07,4.36Z"/><path class="cls-1" d="m61.69,84.51l-24.6-.88c-.32-1.47-.5-2.91-.56-4.3l24.64.89c.3,1.46.47,2.9.53,4.3Z"/><path class="cls-1" d="m60.45,93.03l-19.98-.71h0c-.81-1.33-1.53-2.79-2.12-4.36l23.16.83c-.2,1.53-.55,2.96-1.05,4.25Z"/><path class="cls-1" d="m53.68,99.93c-3.25.82-6.68-.47-9.65-3.2l13.97.5c-1.19,1.33-2.64,2.28-4.32,2.7Z"/><path class="cls-1" d="m54.41,67.11l-14.41-.52c1.23-1.46,2.76-2.48,4.52-2.93,3.34-.84,6.88.54,9.88,3.45Z"/><path class="cls-5" d="m50.14,18.44c3.42.38,6.84.76,10.25,1.14,1.58.17,3.17.36,4.75.5,2.36.21,4.72.38,7.07.57,1.69.14,3.39.29,5.08.43,1.26.11,2.52.21,3.78.31,1.42.12,2.85.25,4.27.35,1.27.09,2.54.2,3.81.31,2.08.18,4.16.35,6.23.52,1.32.11,2.64.23,3.95.33,2.08.16,4.16.34,6.24.51,1.21.1,2.43.18,3.64.3.5.05,1,.06,1.5.12,2.03.21,3.42,1.99,3.14,4-.23,1.65-1.82,3-3.48,2.92-1.18-.05-2.33-.3-3.5-.45-2.05-.27-4.09-.58-6.14-.87-1.16-.16-2.31-.33-3.47-.5-2.54-.36-5.08-.73-7.63-1.09-1.2-.17-2.41-.34-3.61-.52-1.88-.27-3.77-.52-5.65-.82-.76-.12-1.54-.17-2.29-.35-.24-.06-.35.01-.37.28-.06.66-.16,1.32-.21,1.99-.02.27-.12.34-.38.3-1.87-.29-3.75-.52-5.61-.84-.83-.14-1.66-.27-2.49-.4-1.39-.22-2.78-.47-4.16-.74-1.23-.24-2.46-.47-3.69-.73-1.4-.3-2.79-.61-4.18-.94-1.54-.36-3.07-.76-4.59-1.2-3.44-.98-6.83-2.09-10.06-3.63-1.19-.56-2.34-1.18-3.42-1.94-.1-.07-.2-.15-.3-.23-.17-.16-.19-.36-.1-.56.09-.21.25-.31.48-.3,1.46.1,2.9.3,4.35.46.82.09,1.63.18,2.45.27,1.44.16,2.88.32,4.32.48Z"/><line class="cls-6" x1="94.59" y1="9.81" x2="61.69" y2="35.23"/><line class="cls-6" x1="61.69" y1="9.81" x2="94.59" y2="35.23"/></svg>