<?xml version="1.0" encoding="UTF-8"?>
<svg id="Calque_1" data-name="Calque 1" xmlns="http://www.w3.org/2000/svg" viewBox="0 0 200 128">
  <defs>
    <style>
      .cls-1 {
        fill: #bfe6fc;
      }

      .cls-1, .cls-2, .cls-3, .cls-4, .cls-5 {
        stroke-linecap: round;
        stroke-linejoin: round;
      }

      .cls-1, .cls-2, .cls-3, .cls-5 {
        stroke: #000;
      }

      .cls-2, .cls-6, .cls-5 {
        fill: #fff;
      }

      .cls-7 {
        fill: #fdfdfd;
      }

      .cls-8 {
        fill: #7a7a7a;
      }

      .cls-3 {
        stroke-width: 2px;
      }

      .cls-3, .cls-4 {
        fill: none;
      }

      .cls-4 {
        stroke: #fff;
        stroke-width: 8px;
      }

      .cls-5 {
        stroke-width: .85px;
      }
    </style>
  </defs>
  <path class="cls-3" d="m152.76,9.88H46.11c-1.48,0-2.69,1.21-2.69,2.69v71.08s112.03,0,112.03,0V12.57c0-1.48-1.21-2.69-2.69-2.69Z"/>
  <rect class="cls-1" x="51.36" y="15.87" width="96.14" height="61.77"/>
  <path d="m99.91,13.54c0,.26-.21.48-.48.48s-.48-.21-.48-.48.21-.48.48-.48.48.21.48.48Z"/>
  <g>
    <rect x="89.24" y="107.77" width="20.63" height="4"/>
    <path class="cls-3" d="m109.88,108.94v1.26c0,.87-.52,1.58-1.15,1.58h-18.67c-.63,0-1.15-.71-1.15-1.58v-1.26H22.71l1.97,5.88h149.66l1.81-5.88h-66.27Z"/>
  </g>
  <polygon class="cls-3" points="22.71 109.19 176.15 109.19 155.44 83.64 43.42 83.64 22.71 109.19"/>
  <polygon class="cls-1" points="96.08 89.98 102.53 89.95 104.58 95.01 94.28 95.01 96.08 89.98"/>
  <polygon class="cls-1" points="84.08 97.69 115.01 97.65 117.06 102.72 82.28 102.72 84.08 97.69"/>
  <polygon class="cls-1" points="92.7 89.98 92.67 89.98 90.86 95.01 84.44 95.01 86.24 89.98 92.69 89.95 92.7 89.98"/>
  <polygon class="cls-1" points="82.8 89.98 82.76 89.98 80.96 95.01 74.54 95.01 76.33 89.98 82.79 89.95 82.8 89.98"/>
  <polygon class="cls-1" points="72.9 89.98 72.86 89.98 71.05 95.01 64.63 95.01 66.43 89.98 72.89 89.95 72.9 89.98"/>
  <polygon class="cls-1" points="62.99 89.98 62.96 89.98 61.15 95.01 54.73 95.01 56.53 89.98 62.98 89.95 62.99 89.98"/>
  <polygon class="cls-1" points="53.14 89.98 53.11 89.98 51.3 95.01 42.69 95.01 46.67 89.98 53.13 89.95 53.14 89.98"/>
  <polygon class="cls-1" points="106.13 89.98 106.17 89.98 107.97 95.01 114.39 95.01 112.6 89.98 106.14 89.95 106.13 89.98"/>
  <polygon class="cls-1" points="116.03 89.98 116.07 89.98 117.88 95.01 124.3 95.01 122.5 89.98 116.05 89.95 116.03 89.98"/>
  <polygon class="cls-1" points="125.94 89.98 125.97 89.98 127.78 95.01 134.2 95.01 132.4 89.98 125.95 89.95 125.94 89.98"/>
  <polygon class="cls-1" points="135.84 89.98 135.88 89.98 137.68 95.01 144.1 95.01 142.31 89.98 135.85 89.95 135.84 89.98"/>
  <polygon class="cls-1" points="145.69 89.98 145.73 89.98 147.53 95.01 156.15 95.01 152.16 89.98 145.7 89.95 145.69 89.98"/>
  <polygon class="cls-1" points="118.61 97.68 118.65 97.68 120.46 102.71 126.88 102.71 125.08 97.68 118.62 97.66 118.61 97.68"/>
  <polygon class="cls-1" points="128.52 97.68 128.55 97.68 130.36 102.71 136.78 102.71 134.98 97.68 128.53 97.66 128.52 97.68"/>
  <polygon class="cls-1" points="138.42 97.68 138.45 97.68 140.26 102.71 146.68 102.71 144.89 97.68 138.43 97.66 138.42 97.68"/>
  <polygon class="cls-1" points="148.27 97.68 148.31 97.68 150.11 102.71 162.34 102.72 158.35 97.68 148.28 97.66 148.27 97.68"/>
  <polygon class="cls-1" points="150.11 102.71 162.34 102.72 158.35 97.68 148.28 97.66 150.11 102.71"/>
  <polygon class="cls-1" points="48.96 102.71 36.73 102.71 40.72 97.68 50.79 97.65 48.96 102.71"/>
  <polygon class="cls-1" points="80.45 97.68 80.41 97.68 78.6 102.71 72.18 102.71 73.98 97.68 80.43 97.66 80.45 97.68"/>
  <polygon class="cls-1" points="70.54 97.68 70.51 97.68 68.7 102.71 62.28 102.71 64.07 97.68 70.53 97.66 70.54 97.68"/>
  <polygon class="cls-1" points="60.64 97.68 60.6 97.68 58.8 102.71 52.38 102.71 54.17 97.68 60.63 97.66 60.64 97.68"/>
  <g>
    <circle cx="68.66" cy="60.94" r="12.93" transform="translate(-6.17 114.12) rotate(-76.99)"/>
    <path class="cls-7" d="m68.35,57.36c-.03.82,0,1.66,0,2.55h3.21c-.14,1.06-.25,2.04-.41,3.01,0,.1-.25.22-.39.23-.77.02-1.55,0-2.39,0v10.72c-1.19-.02-2.32-.21-3.41-.53v-10.17h-2.81v-3.23h2.75c0-.24.03-.44.03-.63.02-.85,0-1.7.07-2.55.18-1.85,1.31-3.15,3.14-3.41,1.14-.16,2.32-.03,3.52-.03v2.94c-.42,0-.85,0-1.27,0-.37,0-.76,0-1.13.08-.52.12-.88.47-.9,1.02Z"/>
  </g>
  <g>
    <circle class="cls-5" cx="131.81" cy="32.21" r="10.99" transform="translate(70.47 153.24) rotate(-76.85)"/>
    <g>
      <path d="m138.36,28.59c0-1.78-1.12-2.94-2.89-2.96-2.45-.02-4.9-.03-7.34,0-1.73.02-2.85,1.16-2.88,2.89-.02,1.22,0,2.44,0,3.67s0,2.39,0,3.59c.02,1.82,1.13,2.99,2.93,3.01,2.42.03,4.84.03,7.26,0,1.77-.02,2.9-1.18,2.91-2.95.01-2.42.01-4.83,0-7.25Zm-1.17,7.27c-.01,1.13-.62,1.75-1.75,1.76-2.42.02-4.84.02-7.26,0-1.13,0-1.75-.63-1.75-1.75-.01-2.44-.01-4.88,0-7.33,0-1.12.63-1.76,1.75-1.77,2.42-.02,4.84-.02,7.26,0,1.12,0,1.74.65,1.76,1.76.01,1.22,0,2.44,0,3.66s.01,2.44,0,3.66Z"/>
      <path d="m131.82,28.77c-1.87,0-3.4,1.51-3.42,3.39-.02,1.9,1.45,3.43,3.33,3.46,1.92.04,3.48-1.46,3.49-3.38.02-1.92-1.5-3.47-3.4-3.48Zm-.04,5.71c-1.22-.02-2.23-1.05-2.25-2.26-.01-1.25,1.02-2.28,2.28-2.28s2.3,1.03,2.28,2.27c-.01,1.24-1.08,2.28-2.32,2.26Z"/>
      <path d="m136.26,28.69c-.04.48-.34.73-.82.71-.52-.02-.78-.34-.75-.85.04-.48.35-.7.83-.73.49.08.77.36.74.87Z"/>
    </g>
  </g>
  <g>
    <circle class="cls-2" cx="130.48" cy="65.02" r="8.74" transform="translate(36.85 176.77) rotate(-76.53)"/>
    <polygon points="127.22 68.37 127.22 61.67 135.22 65.02 127.22 68.37"/>
  </g>
  <g>
    <circle cx="115.4" cy="51.02" r="9.07"/>
    <g id="QfoS7x.tif">
      <g>
        <path class="cls-7" d="m118.04,47.31c.05.09.1.17.16.25,0,0,0,0,.01.01-.02-.02-.09-.12-.17-.26Zm.17.26s0,0,0,0c0,0,0,0,0,0h0s0,0,0,0c.03.02.06.04.09.07-.03-.02-.06-.05-.1-.07Zm1.54,1.65c0-.24,0-.48,0-.71-.09-.02-.19-.04-.28-.06-.16-.05-.31-.1-.46-.18-.14-.08-.28-.16-.41-.27-.07-.06-.13-.11-.19-.17,0,0-.02-.02-.03-.03,0,0-.02-.02-.02-.03-.05-.06-.11-.12-.15-.19-.02,0-.05-.03-.07-.05-.1-.09-.2-.18-.28-.29-.13-.16-.24-.33-.33-.52-.09-.19-.16-.38-.21-.58-.02-.07-.03-.15-.05-.22,0,0,0,0,0,0,0,0,0,0,0,0,0,0,0,0,0,0,0,0,0,0,0,0,0,0,0-.01,0-.02h0c-.29,0-.57,0-.86,0-.02,0-.04,0-.06,0-.07,0-.14,0-.2,0-.03,0-.05,0-.08,0-.06,0-.12,0-.18,0-.03,0-.04,0-.04.04,0,2.19,0,4.37,0,6.56,0,.19,0,.38,0,.58,0,.11-.01.22-.02.33-.01.14-.04.27-.07.41-.02.06-.05.11-.08.17-.08.14-.18.26-.29.37-.08.08-.18.15-.28.2-.14.08-.29.13-.44.16-.06.01-.11.02-.17.02-.06,0-.11,0-.17,0-.2,0-.38-.04-.56-.12-.13-.05-.25-.12-.36-.21-.12-.1-.22-.21-.29-.35,0,0-.07-.14-.12-.32.03.1.06.2.11.3,0,0,0,0,0,.01,0,0,0,0,0,0-.04-.02-.08-.05-.11-.08,0,0,0,0,0,0-.04-.03-.09-.07-.12-.11-.11-.12-.2-.26-.25-.41-.03-.09-.06-.18-.08-.27-.01-.07-.02-.15-.03-.22,0-.04,0-.09,0-.13,0-.16.03-.31.07-.47.05-.16.12-.3.22-.43.11-.15.24-.26.39-.36.14-.09.3-.14.46-.18.07-.02.14-.03.21-.03.11-.01.22-.01.33-.01.08,0,.16,0,.23.02.03,0,.04,0,.04-.03,0-.5,0-1.01,0-1.51-.12,0-.23,0-.35,0-.13,0-.27.02-.4.05-.15.03-.3.06-.44.11-.1.03-.2.07-.3.12-.15.07-.3.15-.44.24-.1.07-.19.14-.29.22-.09.08-.18.16-.26.25-.1.11-.2.23-.29.36-.1.15-.2.31-.28.47-.06.12-.11.25-.16.38-.06.18-.11.37-.15.56-.02.09-.03.18-.04.27-.02.18-.03.35-.02.53,0,.1.01.21.02.31.02.16.05.32.09.48.04.17.1.33.17.49.08.18.17.35.28.51.03.04.05.08.07.12,0,0,.14.17.22.25-.06-.06-.11-.13-.17-.2,0,0,0,0,0-.02,0,0,.02,0,.03.02.02.02.04.04.06.05,0,0,0,0,0,0,.09.07.19.14.29.21.13.08.26.16.4.22.17.08.35.15.53.21.09.03.19.04.28.06.08.02.17.03.25.04.04,0,.08,0,.12.01.13,0,.25.02.38.02.11,0,.22,0,.33-.02.13-.02.25-.04.38-.06.19-.04.37-.1.55-.18.21-.09.4-.21.58-.34.15-.11.28-.23.4-.37.09-.1.18-.21.26-.32.11-.16.21-.32.29-.5.09-.19.17-.4.22-.6.03-.11.06-.23.08-.35.02-.09.03-.17.04-.26,0-.05.01-.1.01-.14.04-.66.01-1.31.02-1.97,0-.66,0-1.32,0-1.97v-.04s.05.04.07.06c.11.09.22.17.34.24.11.07.22.12.33.18.19.09.4.17.6.23.15.04.3.08.45.11.12.02.23.04.35.06.07,0,.14.02.22.02.05,0,.1,0,.14,0,.03,0,.03,0,.03-.03,0-.23,0-.45,0-.68Zm-8.06,6.07s0,0,0,0c0,0,0,0,0,0,0,0,0,0,0,0,0,0,0,0,0,0Zm.02.02s0,0,0,0c0,0,0,0,0,0,0,0,0,0,0,0,0,0,0,0,0,0Zm.18.22s.01.01.02.02c0,0-.01-.01-.02-.02Zm4.52-9.64c.42,0,.86,0,.86,0h0c-.29,0-.57,0-.86,0Zm.86,0s0,.01,0,.02c0,0,0-.01,0-.02h0Z"/>
        <path class="cls-8" d="m120.19,50.36s0,.03-.03.03c-.1,0-.2-.01-.31-.02-.08,0-.16-.02-.24-.03-.09-.01-.18-.03-.27-.05-.18-.04-.35-.09-.53-.15-.14-.05-.27-.1-.41-.16-.17-.08-.33-.17-.48-.27-.09-.06-.17-.12-.25-.19,0,0,0,0,0,.02,0,.28,0,.55,0,.83,0,.97,0,1.93,0,2.9,0,.1,0,.2-.02.3,0,.07-.01.13-.03.2-.01.09-.03.19-.05.28-.03.13-.06.26-.11.38-.05.15-.11.3-.18.44-.08.17-.18.34-.29.5-.05.07-.11.14-.17.21-.05.06-.11.12-.16.18-.08.08-.16.15-.25.22-.08.06-.16.12-.25.18-.14.09-.3.17-.46.24-.14.06-.28.11-.43.14-.09.02-.18.04-.27.05-.09.01-.18.02-.27.04-.03,0-.05,0-.08,0h-.36s-.02,0-.02,0c-.1,0-.2-.02-.3-.03-.08-.01-.16-.03-.23-.04-.17-.03-.34-.08-.5-.14-.1-.04-.19-.08-.29-.12-.16-.07-.32-.16-.47-.26-.09-.06-.17-.12-.25-.19-.11-.09-.21-.18-.3-.28,0,0,0,0,0,0,0,0,0,0,0,0,0,0,0-.01-.02-.02-.08-.09-.23-.25-.22-.25.02,0,.05.03.08.06.02.02.05.04.06.05,0,0,0,0,0,0,.09.07.19.14.29.21.13.08.26.16.4.22.17.08.35.15.53.21.09.03.19.04.28.06.08.02.17.03.25.04.04,0,.08,0,.12.01.13,0,.25.02.38.02.11,0,.22,0,.33-.02.13-.02.25-.04.38-.06.19-.04.37-.1.55-.18.21-.09.4-.21.58-.34.15-.11.28-.23.4-.37.09-.1.18-.21.26-.32.11-.16.21-.32.29-.5.09-.19.17-.4.22-.6.03-.11.06-.23.08-.35.02-.09.03-.17.04-.26,0-.05.01-.1.01-.14.04-.66.01-1.31.02-1.97,0-.66,0-1.32,0-1.97v-.04s.05.04.07.06c.11.09.22.17.34.24.11.07.22.12.33.18.19.09.4.17.6.23.15.04.3.08.45.11.12.02.23.04.35.06.07,0,.14.02.22.02.05,0,.1,0,.14,0,.03,0,.03,0,.03-.03,0-.23,0-.45,0-.68,0-.24,0-.48,0-.71,0,0,0,0,0,0,.04.01.08.02.13.02.07.01.13.02.2.02.03,0,.06,0,.08,0,.02,0,.02,0,.02.02,0,0,0,0,0,.01,0,.59,0,1.18,0,1.77Z"/>
        <path class="cls-8" d="m114.45,49.8s0,0,0,0c-.12,0-.23,0-.35,0-.13,0-.27.02-.4.05-.15.03-.3.06-.44.11-.1.03-.2.07-.3.12-.15.07-.3.15-.44.24-.1.07-.19.14-.29.22-.09.08-.18.16-.26.25-.1.11-.2.23-.29.36-.1.15-.2.31-.28.47-.06.12-.11.25-.16.38-.06.18-.11.37-.15.56-.02.09-.03.18-.04.27-.02.18-.03.35-.02.53,0,.1.01.21.02.31.02.16.05.32.09.48.04.17.1.33.17.49.08.18.17.35.28.51.03.04.05.08.07.12-.02-.02-.05-.04-.07-.06-.12-.12-.23-.24-.33-.37-.1-.13-.19-.27-.27-.42-.1-.18-.18-.38-.24-.58-.05-.15-.08-.3-.11-.45-.01-.09-.02-.18-.03-.27,0-.04,0-.07-.01-.11v-.43s0-.01,0-.02c0-.09.01-.17.02-.25.02-.17.06-.34.1-.5.04-.15.09-.3.15-.44.1-.24.22-.46.37-.67.06-.09.13-.18.21-.27.08-.1.17-.19.26-.27.16-.15.33-.27.51-.38.2-.12.4-.21.62-.28.15-.05.3-.09.46-.11.09-.01.17-.02.26-.03.14-.01.28-.01.41,0,.11,0,.22.01.33.03.04,0,.07,0,.11.01.02,0,.03.01.03.03,0,.13,0,.25,0,.38Z"/>
        <path class="cls-8" d="m117.27,45.88h0s-.48,0-.92,0c-.07,0-.14,0-.2,0-.03,0-.05,0-.08,0-.06,0-.12,0-.18,0-.03,0-.04,0-.04.04,0,2.19,0,4.37,0,6.56,0,.19,0,.38,0,.58,0,.11-.01.22-.02.33-.01.14-.04.27-.07.41-.02.06-.05.11-.08.17-.08.14-.18.26-.29.37-.08.08-.18.15-.28.2-.14.08-.29.13-.44.16-.06.01-.11.02-.17.02-.06,0-.11,0-.17,0-.2,0-.38-.04-.56-.12-.13-.05-.25-.12-.36-.21-.12-.1-.22-.21-.29-.35.03.01.05.02.07.04.13.07.26.12.4.15.16.04.31.04.47.03.2-.01.4-.07.58-.16.1-.05.19-.11.28-.19.13-.11.23-.24.32-.38.07-.12.12-.24.14-.37.01-.09.03-.19.04-.28,0-.06.01-.11.01-.17,0-.1,0-.19,0-.29,0-2.31,0-4.63,0-6.94,0,0,0-.02,0-.03,0-.02,0-.02.02-.02,0,0,.01,0,.02,0h1.72s.05,0,.05.05c0,.12.01.25.04.37,0,.01,0,.02,0,.04Z"/>
        <path class="cls-8" d="m114.89,50.22v1.56s0,.04-.04.03c-.04,0-.08-.01-.12-.01-.06,0-.12,0-.18,0-.16,0-.31,0-.47.04-.15.03-.29.08-.42.15-.09.05-.17.11-.25.17-.13.11-.23.24-.31.39-.07.13-.12.27-.15.41-.01.06-.02.12-.03.18,0,.08,0,.15,0,.23,0,.1.02.19.04.29,0,.02.01.05.02.07.05.17.12.31.12.32,0,0,0,0,0,0-.04-.02-.09-.05-.12-.08-.04-.03-.09-.07-.12-.11-.11-.12-.2-.26-.25-.41-.03-.09-.06-.18-.08-.27-.01-.07-.02-.15-.03-.22,0-.04,0-.09,0-.13,0-.16.03-.31.07-.47.05-.16.12-.3.22-.43.11-.15.24-.26.39-.36.14-.09.3-.14.46-.18.07-.02.14-.03.21-.03.11-.01.22-.01.33-.01.08,0,.16,0,.23.02.03,0,.04,0,.04-.03,0-.5,0-1.01,0-1.51,0,0,0,0,0,0,.01,0,.03,0,.04,0,.1,0,.21.01.31.03.02,0,.04,0,.06,0,.02,0,.02,0,.02.02,0,.12,0,.23,0,.35Z"/>
        <path class="cls-8" d="m118.21,47.57h0s-.05-.03-.07-.05c-.1-.09-.2-.18-.28-.29-.13-.16-.24-.33-.33-.52-.09-.19-.16-.38-.21-.58-.02-.07-.03-.15-.05-.22,0,0,0,0,0,0,0,0,0,0,0,0,0,0,0,0,0,0,0,0,0-.02,0-.02h0c.12,0,.25,0,.37,0,.02,0,.02,0,.02.02,0,.11.01.22.03.32.02.17.06.35.11.51.05.15.1.29.17.43.02.05.05.09.07.13,0,0,0,0,0,0,.08.14.15.24.17.26,0,0,0,0,0,0,0,0,0,0,0,0,0,0,0,0,0,0,0,0,0,0,0,0,0,0,0,0,0,0Z"/>
        <path d="m119.76,48.13c0,.13,0,.25,0,.38,0,0,0,0,0,0-.09-.02-.19-.04-.28-.06-.16-.05-.31-.1-.46-.18-.14-.08-.28-.16-.41-.27-.07-.06-.13-.11-.19-.17,0,0-.02-.02-.03-.03-.06-.07-.12-.14-.17-.22,0,0,0,0,0,0,0,0,0,0,0,0,0,0,0,0,0,0,0,0,0,0,0,0,.03.02.06.05.1.07,0,0,0,0,.01.01.11.08.23.15.36.2.08.04.17.07.25.1.16.05.31.09.48.11.11.02.22.03.33.04.02,0,.02,0,.02.02Z"/>
      </g>
    </g>
  </g>
  <g>
    <circle class="cls-2" cx="93.71" cy="38.05" r="12.93" transform="translate(34.64 120.15) rotate(-76.36)"/>
    <g>
      <path d="m85.46,46.31c.36-1.29.68-2.49,1.03-3.67.11-.39.08-.69-.1-1.06-2.5-5.03.82-11.11,6.41-11.79,5.14-.63,9.49,3.25,9.38,8.36-.09,4.19-3.65,7.8-7.85,7.99-1.44.06-2.8-.19-4.11-.78-.23-.1-.54-.12-.79-.06-1.29.31-2.57.65-3.96,1.01Zm2.01-1.95c.82-.21,1.51-.41,2.22-.56.23-.05.52-.01.73.09,1.05.55,2.16.85,3.34.87,4.27.08,7.71-3.89,6.9-8.05-.56-2.88-2.33-4.76-5.19-5.42-2.93-.67-5.42.27-7.19,2.69-1.73,2.37-1.78,4.92-.36,7.5.12.23.16.56.1.81-.14.67-.34,1.32-.55,2.06Z"/>
      <path d="m90.22,34.6c.56-.76,1.32-.61,1.71.23.15.33.19.44.34.81.23.56.18.94-.23,1.31-.3.27-.27.5-.06.8.64.95,1.47,1.66,2.52,2.12.32.14.53.11.76-.17.73-.87.74-.86,1.77-.38.12.06.24.11.35.17.79.38.91,1.09.27,1.71-.66.64-1.45.78-2.32.56-2.22-.56-3.81-1.96-5.04-3.83-.37-.57-.65-1.17-.63-1.88.07-.65.25-1.06.56-1.48Z"/>
    </g>
  </g>
  <g>
    <circle cx="136.86" cy="50.02" r="4.77"/>
    <g id="K0pxJE">
      <path class="cls-6" d="m136.78,46.7c.5,0,.89.1,1.23.35.31.22.52.52.63.88.04.13.05.26.06.39.01.19,0,.39,0,.58,0,.16-.02.32-.03.48,0,.07,0,.08.06.1.09.04.19.03.28,0,.05-.01.1-.03.14-.06.11-.05.28-.02.36.08.06.07.06.15,0,.22-.07.08-.17.13-.27.17-.08.03-.17.05-.25.09-.05.02-.1.05-.14.08-.12.09-.16.21-.12.36.05.17.14.31.23.46.18.27.4.51.68.68.18.11.37.19.58.22.07.01.09.06.06.12-.03.06-.08.1-.13.13-.14.08-.29.12-.45.16-.09.02-.17.04-.26.05-.05,0-.08.03-.09.08-.03.09-.04.19-.07.28-.03.1-.05.12-.15.11-.12-.01-.24-.04-.37-.05-.31-.03-.59.04-.84.23-.13.1-.26.19-.39.27-.22.13-.46.18-.72.17-.29,0-.53-.11-.76-.27-.13-.09-.26-.19-.39-.27-.13-.08-.28-.12-.44-.13-.2-.02-.4.01-.6.05,0,0,0,0,0,0-.14.02-.16,0-.19-.12-.02-.08-.04-.16-.06-.24-.01-.06-.05-.1-.12-.11-.22-.04-.45-.08-.65-.18-.04-.02-.07-.04-.11-.07-.03-.03-.06-.06-.07-.1-.02-.05,0-.1.06-.11.15-.03.3-.08.44-.15.28-.14.5-.34.69-.58.13-.17.25-.35.33-.55.02-.05.04-.1.04-.15.02-.14-.04-.24-.15-.31-.08-.06-.17-.09-.26-.12-.11-.04-.22-.08-.31-.15-.02-.02-.05-.04-.07-.06-.06-.08-.06-.18.03-.24.1-.07.2-.1.32-.04.1.05.2.08.31.08.06,0,.12-.01.17-.05.02-.01.03-.03.03-.05-.01-.22-.03-.44-.04-.66,0-.17,0-.33,0-.5.01-.13.02-.26.07-.38.2-.51.55-.88,1.07-1.06.23-.08.47-.12.62-.11Z"/>
    </g>
  </g>
  <g>
    <g>
      <path class="cls-2" d="m85.9,64.56c.54,5.21,5.21,8.99,10.42,8.45,2.11-.22,3.98-1.11,5.43-2.45l4.75.7-2.37-4.1c.58-1.4.82-2.96.65-4.57-.54-5.21-5.21-8.99-10.42-8.45-5.21.54-8.99,5.21-8.45,10.42Z"/>
      <path class="cls-2" d="m88.74,56.72c1.03-1.01,2.29-1.78,3.66-2.24,1.37-.46,2.85-.59,4.29-.4,1.44.19,2.84.7,4.05,1.52,1.21.81,2.24,1.9,2.97,3.16,1.47,2.52,1.73,5.75.58,8.45v-.16s2.35,4.11,2.35,4.11l.17.3-.34-.05-4.74-.73.11-.03c-1.31,1.19-2.96,2-4.69,2.32-.43.08-.87.13-1.31.14-.44.04-.88,0-1.32-.03-.87-.1-1.74-.27-2.55-.61-.81-.32-1.59-.74-2.29-1.27-.36-.25-.67-.56-1-.85-.29-.33-.61-.63-.86-.99-1.08-1.38-1.72-3.08-1.91-4.81-.31-2.86.74-5.84,2.84-7.83Z"/>
    </g>
    <g>
      <path d="m90.05,63.86c0,.63.51,1.15,1.15,1.15s1.15-.51,1.15-1.15-.51-1.15-1.15-1.15-1.15.51-1.15,1.15Z"/>
      <path d="m94.17,63.86c0,.63.51,1.15,1.15,1.15s1.15-.51,1.15-1.15-.51-1.15-1.15-1.15-1.15.51-1.15,1.15Z"/>
      <path d="m98.28,63.86c0,.63.51,1.15,1.15,1.15s1.15-.51,1.15-1.15-.51-1.15-1.15-1.15-1.15.51-1.15,1.15Z"/>
    </g>
  </g>
  <g>
    <circle cx="75.47" cy="25.64" r="6.13"/>
    <g>
      <path class="cls-7" d="m78.3,23.95c0,.69-.56,1.24-1.24,1.24s-1.24-.56-1.24-1.24.56-1.24,1.24-1.24,1.24.56,1.24,1.24Z"/>
      <path class="cls-7" d="m79.21,27.38v.45h-4.3v-.45c0-1.18.96-2.14,2.15-2.14s2.14.96,2.14,2.14Z"/>
    </g>
    <g>
      <path class="cls-7" d="m75.12,24.7c0,.69-.56,1.24-1.24,1.24s-1.24-.56-1.24-1.24.56-1.24,1.24-1.24,1.24.56,1.24,1.24Z"/>
      <path class="cls-7" d="m76.03,28.12v.45h-4.3v-.45c0-1.18.96-2.14,2.15-2.14s2.14.96,2.14,2.14Z"/>
    </g>
  </g>
  <g>
    <circle cx="112.54" cy="27.32" r="6.5" transform="translate(59.98 130.51) rotate(-76.65)"/>
    <path class="cls-6" d="m110.04,29.49h-.53c-.33,0-.6-.26-.6-.6s.26-.6.6-.6h.74l.35-2h-.67c-.32,0-.6-.28-.6-.6s.28-.6.6-.6h.88l.23-1.37c.05-.3.3-.49.6-.49.38,0,.65.35.6.7l-.21,1.16h1.8l.23-1.37c.05-.3.3-.49.61-.49.37,0,.64.35.59.7l-.2,1.16h.53c.32,0,.6.26.6.6s-.28.6-.6.6h-.74l-.35,2h.65c.33,0,.6.26.6.6s-.26.6-.6.6h-.86l-.24,1.41c-.04.29-.3.49-.6.49-.38,0-.65-.34-.6-.7l.22-1.21h-1.81l-.24,1.41c-.04.26-.26.49-.61.49-.37,0-.65-.31-.59-.7l.21-1.21Zm3.23-1.2l.35-2h-1.8l-.35,2h1.8Z"/>
  </g>
  <g>
    <circle cx="67.99" cy="39.15" r="6.41" transform="translate(-6.79 15.4) rotate(-12.31)"/>
    <path class="cls-6" d="m67.49,34.95c-2.32.27-3.99,2.38-3.71,4.7.27,2.32,2.39,3.99,4.71,3.71.35-.04.69-.13,1.01-.25.1-.03.18-.1.22-.19.04-.09.04-.19,0-.28-.02-.08-.07-.15-.14-.19-.09-.05-.21-.06-.32-.02-.26.11-.52.15-.85.19-1.91.23-3.65-1.14-3.88-3.06-.23-1.9,1.15-3.64,3.06-3.86,1.91-.23,3.64,1.14,3.86,3.04.07.58,0,1.14-.19,1.62-.03.1-.24.51-.55.63h-.08c-.11.02-.14,0-.14-.01-.04-.06-.09-.17-.1-.22-.1-.41-.2-1.7-.2-1.72l-.02-.15c-.15-1.26-1.24-2.17-2.43-2.02-1.21.14-2.07,1.28-1.92,2.54.15,1.27,1.25,2.19,2.46,2.05.54-.06,1.01-.32,1.36-.75l.02.19c.02.2.12.4.28.59.11.12.36.31.78.26.07,0,.16-.02.25-.06.41-.17.74-.51.98-1.01,0-.02.01-.03.02-.03v-.02c.24-.61.31-1.27.23-1.97-.27-2.31-2.38-3.97-4.69-3.7Zm.68,5.72c-.79.09-1.49-.5-1.59-1.36-.1-.85.45-1.61,1.23-1.7.77-.09,1.5.53,1.6,1.37.1.84-.46,1.6-1.24,1.7Z"/>
  </g>
  <rect class="cls-4" x="-212.96" y="-4971.2" width="6467.34" height="6437.3"/>
</svg>