<?xml version="1.0" encoding="UTF-8"?>
<svg id="Calque_1" data-name="Calque 1" xmlns="http://www.w3.org/2000/svg" viewBox="0 0 200 128">
  <defs>
    <style>
      .cls-1 {
        fill: #f3d587;
      }

      .cls-1, .cls-2, .cls-3 {
        stroke: #000;
      }

      .cls-1, .cls-4 {
        stroke-linecap: round;
        stroke-linejoin: round;
      }

      .cls-2 {
        fill: #fce9b9;
      }

      .cls-2, .cls-3, .cls-5 {
        stroke-miterlimit: 10;
      }

      .cls-4 {
        stroke: #fff;
        stroke-width: 8px;
      }

      .cls-4, .cls-5 {
        fill: none;
      }

      .cls-3 {
        stroke-width: 2px;
      }

      .cls-5 {
        stroke: #ff6d75;
      }
    </style>
  </defs>
  <line class="cls-3" x1="16.8" y1="87.74" x2="177.35" y2="87.74"/>
  <line class="cls-3" x1="16.8" y1="83.99" x2="16.8" y2="92.11"/>
  <line class="cls-3" x1="70.32" y1="83.99" x2="70.32" y2="92.11"/>
  <line class="cls-3" x1="123.83" y1="83.99" x2="123.83" y2="92.11"/>
  <line class="cls-3" x1="177.35" y1="83.99" x2="177.35" y2="92.11"/>
  <g>
    <path class="cls-1" d="m190.12,76.77c0-.09-.04-.18-.09-.26h0c-.06-.08-.15-.14-.26-.17,0,0,0,0,0,0h0s0,0,0,0c-.03-.01-.07-.02-.1-.02-.01,0-.03,0-.04,0-.02,0-.04,0-.06,0h-.16s-.14,0-.14,0h0s-.26,0-.26,0h0s-.27,0-.27,0h0s-.26,0-.26,0h0s-.29,0-.29,0h0s-.26,0-.26,0h0s-.57,0-.57,0h0s-.26,0-.26,0h0s-.61,0-.61,0h0s-.26,0-.26,0h0s-.79,0-.79,0h0s-.26,0-.26,0h0s-1.34,0-1.34,0h0s-.26,0-.26,0h0s-1.44,0-1.44,0h0s-.26,0-.26,0h0s-2.34,0-2.34,0h0s-.26,0-.26,0h0s-1.79,0-1.79,0h-.38s-.26,0-.26,0h0s-1.91,0-1.91,0h0s-.26,0-.26,0h0s-7.77,0-7.77,0h-.06s-.03.02-.05.02c-.06.01-.11.03-.16.05-.05.02-.08.04-.12.08-.05.05-.09.1-.12.17,0,0-.02.02-.02.03,0,.02-.01.03-.01.05,0,.01,0,.03,0,.05,0,0,0,.02,0,.02v1.19s0,.02,0,.02c0,.02,0,.03,0,.05,0,.02,0,.03.01.05,0,.01.01.02.02.03.03.06.06.12.12.17.04.03.07.06.12.08.05.02.1.04.16.05.02,0,.03.02.05.02h7.83s.26,0,.26,0h0s1.91,0,1.91,0h0s.26,0,.26,0h0s1.87,0,1.87,0h.3s.26,0,.26,0h0s2.34,0,2.34,0h0s.26,0,.26,0h0s1.44,0,1.44,0h0s.26,0,.26,0h0s1.34,0,1.34,0h0s.26,0,.26,0h0s.79,0,.79,0h0s.26,0,.26,0h0s.61,0,.61,0h0s.26,0,.26,0h0s.57,0,.57,0h0s.26,0,.26,0h0s.29,0,.29,0h0s.26,0,.26,0h0s.27,0,.27,0h0s.26,0,.26,0h0s.14,0,.14,0h0s.16,0,.16,0c.02,0,.04,0,.06,0,.01,0,.03,0,.04,0,.03,0,.07-.01.1-.02h0c.1-.03.19-.09.26-.17h0c.06-.07.09-.16.09-.26v-1.19Z"/>
    <path class="cls-1" d="m187.61,74.4s-.01-.02-.02-.02h0s0,0,0-.01c0,0,0,0-.01-.01,0,0-.01-.01-.02-.02-.02-.02-.04-.03-.07-.05,0,0-.01,0-.02-.01,0,0-.01,0-.02-.01-.01,0-.02-.01-.04-.02h0s-.04-.01-.06-.02c-.03-.01-.07-.02-.1-.02h0s0,0,0,0c0,0,0,0-.01,0,0,0-.01,0-.02,0,0,0,0,0,0,0,0,0,0,0-.02,0-.01,0-.03,0-.04,0h-22.69s-.03.02-.05.02c-.06.01-.11.03-.16.05-.05.02-.08.04-.12.08-.05.05-.09.1-.12.17,0,0-.02.02-.02.03,0,.02-.01.03-.01.05,0,.01,0,.03,0,.04,0,0,0,.02,0,.02v1.19s0,.02,0,.02c0,.01,0,.03,0,.04,0,.02,0,.03.01.05,0,.01.01.02.02.03.03.06.06.12.12.17.04.04.07.06.12.08.05.02.1.04.16.05.02,0,.03.02.05.02h22.69s.03,0,.04,0c.02,0,.04,0,.05,0h0s.07-.01.1-.02c.08-.03.15-.07.21-.12.02-.02.04-.04.05-.05.06-.07.09-.16.09-.26v-1.19c0-.1-.03-.18-.09-.26Z"/>
    <path class="cls-1" d="m188.87,72.6c0-.09-.03-.18-.09-.26h0s-.09-.06-.14-.09c-.04-.03-.07-.06-.12-.08-.03-.01-.07-.02-.1-.02h0s-.06,0-.1,0h-.16s-.14,0-.14,0h0s-.26,0-.26,0h0s-.27,0-.27,0h0s-.26,0-.26,0h0s-.29,0-.29,0h0s-.26,0-.26,0h0s-.57,0-.57,0h0s-.26,0-.26,0h0s-.61,0-.61,0h0s-.26,0-.26,0h0s-.79,0-.79,0h0s-.26,0-.26,0h0s-1.34,0-1.34,0h0s-.26,0-.26,0h0s-1.44,0-1.44,0h0s-.26,0-.26,0h0s-2.34,0-2.34,0h0s-.26,0-.26,0h0s-1.79,0-1.79,0h-.38s-.26,0-.26,0h0s-1.91,0-1.91,0h0s-.26,0-.26,0h0s-7.77,0-7.77,0h-.06s-.03.02-.05.02c-.06.01-.11.03-.16.05-.05.02-.09.05-.12.08-.05.05-.09.1-.12.17,0,.01-.02.02-.02.03,0,.02,0,.03-.01.05,0,.01,0,.03,0,.04,0,0,0,.02,0,.02v1.19s0,.02,0,.02c0,0,0,.01,0,.02,0,0,0,.02,0,.03.02.14.12.27.26.33.07.03.14.05.23.05h7.83s.26,0,.26,0h0s1.91,0,1.91,0h0s.26,0,.26,0h0s1.87,0,1.87,0h.3s.26,0,.26,0h0s2.34,0,2.34,0h0s.26,0,.26,0h0s1.44,0,1.44,0h0s.26,0,.26,0h0s1.34,0,1.34,0h0s.26,0,.26,0h0s.79,0,.79,0h0s.26,0,.26,0h0s.61,0,.61,0h0s.26,0,.26,0h0s.57,0,.57,0h0s.26,0,.26,0h0s.29,0,.29,0h0s.26,0,.26,0h0s.27,0,.27,0h0s.26,0,.26,0h0s.14,0,.14,0h.16s.06,0,.1,0c.03,0,.07-.01.1-.02h0c.1-.03.19-.09.26-.17h0c.06-.07.09-.16.09-.26v-1.19Z"/>
    <path class="cls-1" d="m189.41,70.48v1.19c0,.1-.04.19-.1.26,0,.01,0,.02-.02.03-.04.04-.1.08-.16.11-.02.01-.05.02-.07.03-.03.01-.07.02-.1.03h-22.79s-.03-.01-.05-.01c-.06-.01-.11-.03-.16-.06-.05-.02-.09-.04-.12-.08-.06-.04-.1-.1-.12-.16,0-.01-.02-.02-.02-.03s0-.03,0-.05c0-.01-.01-.03-.01-.04v-1.24c.02-.23.2-.41.43-.44h22.8s.03.01.04.01h.01s.07,0,.1.02c.07.02.12.07.17.12.03.02.06.03.08.05.06.08.1.17.1.26Z"/>
    <path class="cls-1" d="m187.65,68.12h0c-.06-.08-.15-.14-.26-.17h0s-.07-.02-.1-.02h0s0,0,0,0c0,0-.02,0-.02,0h0s-.01,0-.02,0c-.02,0-.03,0-.05,0h-22.69s-.06,0-.09,0c0,0-.01,0-.02,0-.2.04-.36.21-.38.41,0,0,0,.01,0,.02,0,0,0,.02,0,.02v1.19s0,.02,0,.02c.01.24.23.44.49.44h22.69s.02,0,.03,0c0,0,.01,0,.02,0,0,0,.01,0,.02,0h0s.02,0,.03,0c0,0,0,0,0,0h0s.07-.01.1-.02h0c.1-.03.19-.09.26-.17h0c.06-.07.09-.16.09-.26v-1.19c0-.1-.03-.18-.09-.26Z"/>
    <path class="cls-1" d="m187.7,66.27v1.2c0,.09-.04.18-.1.25,0,.02-.03.04-.05.06-.05.05-.12.09-.2.12-.03,0-.06,0-.08.02h-.07s-.03.01-.05.01h-22.72s-.02-.01-.03-.01c-.22-.02-.39-.19-.42-.39,0-.01,0-.03,0-.04v-1.24s0-.03,0-.04c0-.02,0-.04.01-.06,0-.01.01-.01.02-.02.02-.06.06-.12.11-.17.04-.03.08-.05.13-.08.05-.02.1-.04.16-.05.02,0,.03-.02.05-.02h22.73s0,.01,0,.01h.05s.06.01.1.02c.02,0,.03.02.05.03.07.03.13.07.18.12.01.01.02.02.02.03.06.07.1.16.1.25Z"/>
    <path class="cls-1" d="m188.87,64.22c0-.1-.03-.18-.09-.26h0s-.1-.07-.15-.1c-.04-.02-.06-.06-.11-.07-.03-.01-.07-.02-.1-.02h0s0,0,0,0c-.03,0-.06,0-.09,0h-22.69s-.03.02-.05.02c-.06.01-.11.03-.16.05-.05.02-.09.05-.12.08-.05.05-.09.1-.12.16,0,.01-.02.02-.02.03,0,.02,0,.03-.01.05,0,.01,0,.03,0,.04,0,0,0,.02,0,.02v1.19s0,.02,0,.02c0,0,0,.01,0,.02,0,0,0,.02,0,.03.02.14.12.27.26.33.07.03.14.05.23.05h22.69s0,0,0,0c.03,0,.06,0,.09,0h0s.07-.01.1-.02c.11-.03.19-.09.26-.17h0s0,0,0,0h0c.06-.07.09-.16.09-.26v-1.19Z"/>
    <path class="cls-1" d="m190.72,62.1v1.19c0,.1-.04.19-.1.26,0,.01,0,.02-.02.03-.04.03-.08.07-.12.09-.03.02-.05.03-.08.04-.01,0-.02,0-.04,0-.03.01-.06.02-.1.03h-22.78s-.04-.01-.05-.01c-.06-.02-.12-.03-.17-.06-.04-.02-.08-.04-.12-.08-.05-.05-.09-.1-.11-.16-.01-.01-.02-.02-.02-.03,0-.02,0-.03,0-.05-.01-.01-.01-.03-.01-.04v-1.24c.01-.23.2-.41.43-.44h22.77s.05,0,.07.01c.04,0,.07,0,.1.02h0c.09.03.17.08.23.14.01.01.01.02.02.03.06.08.1.16.1.26Z"/>
    <path class="cls-1" d="m187.65,59.74s-.03-.03-.04-.05c0,0,0,0,0,0,0,0,0,0,0,0-.04-.04-.1-.07-.16-.1h0s-.03-.01-.05-.02h0s0,0,0,0h0s-.07-.02-.1-.02h0s0,0,0,0c-.02,0-.03,0-.05,0,0,0,0,0-.01,0,0,0-.02,0-.03,0h-22.69s-.07,0-.1,0c-.21.04-.38.22-.39.43,0,0,0,.02,0,.02v1.19s0,.02,0,.02c0,.08.03.16.08.23.09.13.24.21.41.21h22.69s.02,0,.03,0c0,0,0,0,.01,0,0,0,.01,0,.02,0h0s.02,0,.03,0c0,0,0,0,0,0h0s.07-.01.1-.02c.03,0,.04-.03.06-.04.07-.04.15-.07.19-.13h0c.06-.07.09-.16.09-.26v-1.19c0-.1-.03-.18-.09-.26Z"/>
    <path class="cls-1" d="m189.41,57.93c0-.1-.03-.18-.09-.26h0c-.06-.08-.15-.14-.26-.17h0s0,0,0,0c-.03-.01-.07-.02-.1-.02h0s-.06,0-.1,0h-.16s-.14,0-.14,0h-22.39s-.04,0-.06,0c-.23.03-.42.21-.43.43,0,0,0,.02,0,.02v1.19s0,.02,0,.02c0,0,0,.01,0,.02.02.16.12.3.27.37.07.03.14.05.22.05h22.69s.07,0,.1,0c.03,0,.07-.01.1-.02.1-.03.19-.09.26-.17h0c.06-.07.09-.16.09-.26v-1.19Z"/>
    <path class="cls-1" d="m190.12,55.82c0-.09-.03-.18-.09-.26h0c-.06-.08-.15-.14-.26-.17h0s-.07-.02-.1-.02h0s-.06,0-.1,0h-22.69c-.26,0-.48.19-.49.44,0,0,0,.02,0,.02v1.19s0,.02,0,.02c.01.24.23.44.49.44h10s.26,0,.26,0h0s1.87,0,1.87,0h.3s.26,0,.26,0h0s2.34,0,2.34,0h0s.26,0,.26,0h0s1.44,0,1.44,0h0s.26,0,.26,0h0s1.34,0,1.34,0h0s.26,0,.26,0h0s.79,0,.79,0h0s.26,0,.26,0h0s.61,0,.61,0h0s.26,0,.26,0h0s.57,0,.57,0h0s.26,0,.26,0h0s.29,0,.29,0h0s.26,0,.26,0h0s.27,0,.27,0h0s.26,0,.26,0h0s.14,0,.14,0h.16s.02,0,.03,0c0,0,.01,0,.02,0,0,0,.01,0,.02,0,.01,0,.02,0,.03,0,.03,0,.07-.01.1-.02.1-.03.19-.09.26-.17h0c.06-.07.09-.16.09-.26v-1.19Z"/>
    <circle class="cls-2" cx="163.97" cy="65.81" r="9.52" transform="translate(-3.42 9.25) rotate(-3.2)"/>
    <path d="m166.85,70.59c-.44.32-1.19.64-2.15.67-1.18.03-2.23-.39-2.98-1.22-.57-.6-.96-1.43-1.12-2.48l-.9.02-.02-.71.83-.02v-.22c-.01-.23,0-.45,0-.66l-.86.02-.02-.73.96-.02c.15-1.02.56-1.88,1.12-2.49.72-.79,1.65-1.25,2.84-1.28.86-.02,1.53.21,1.94.42l-.26.97c-.37-.21-.98-.38-1.64-.37-.78.02-1.41.31-1.89.85-.42.43-.69,1.1-.82,1.87l4.05-.1.02.73-4.18.11c0,.19-.02.41-.01.61v.26s4.22-.11,4.22-.11l.02.71-4.11.11c.14.84.45,1.46.85,1.89.55.55,1.29.81,2.07.79s1.43-.33,1.76-.53l.27.91Z"/>
    <circle class="cls-2" cx="177.37" cy="43.78" r="9.52" transform="translate(60.4 184.12) rotate(-64.05)"/>
    <path d="m181.34,47.69c-.35.42-.99.92-1.91,1.18-1.13.32-2.26.17-3.19-.45-.7-.44-1.28-1.15-1.69-2.12l-.87.24-.2-.69.8-.22-.06-.21c-.06-.22-.11-.44-.15-.64l-.82.23-.2-.7.92-.26c-.11-1.03.08-1.96.47-2.69.5-.94,1.29-1.62,2.44-1.94.82-.23,1.54-.18,1.99-.08l-.02,1c-.41-.11-1.05-.13-1.68.05-.75.21-1.29.65-1.62,1.29-.3.52-.4,1.23-.33,2.01l3.9-1.1.2.7-4.02,1.13c.04.19.08.4.14.6l.07.25,4.05-1.14.2.69-3.95,1.12c.34.78.79,1.3,1.29,1.62.67.4,1.45.47,2.2.26.74-.21,1.3-.67,1.57-.94l.49.81Z"/>
  </g>
  <g>
    <path class="cls-1" d="m134.29,76.51s-.01-.02-.02-.02h0s0,0,0-.01c0,0,0,0-.01-.01,0,0-.01-.01-.02-.02-.02-.02-.04-.03-.07-.05,0,0-.01,0-.02-.01,0,0-.01,0-.02-.01-.01,0-.02-.01-.04-.02h0s-.04-.01-.06-.02c-.03-.01-.07-.02-.1-.02h0s0,0,0,0c0,0,0,0-.01,0,0,0-.01,0-.02,0,0,0,0,0,0,0,0,0,0,0-.02,0-.01,0-.03,0-.04,0h-22.69s-.03.02-.05.02c-.06.01-.11.03-.16.05-.05.02-.08.04-.12.08-.05.05-.09.1-.12.17,0,0-.02.02-.02.03,0,.02-.01.03-.01.05,0,.01,0,.03,0,.04,0,0,0,.02,0,.02v1.19s0,.02,0,.02c0,.01,0,.03,0,.04,0,.02,0,.03.01.05,0,.01.01.02.02.03.03.06.06.12.12.17.04.04.07.06.12.08.05.02.1.04.16.05.02,0,.03.02.05.02h22.69s.03,0,.04,0c.02,0,.04,0,.05,0h0s.07-.01.1-.02c.08-.03.15-.07.21-.12.02-.02.04-.04.05-.05.06-.07.09-.16.09-.26v-1.19c0-.1-.03-.18-.09-.26Z"/>
    <path class="cls-1" d="m135.56,74.71c0-.09-.03-.18-.09-.26h0s-.09-.06-.14-.09c-.04-.03-.07-.06-.12-.08-.03-.01-.07-.02-.1-.02h0s-.06,0-.1,0h-.16s-.14,0-.14,0h0s-.26,0-.26,0h0s-.27,0-.27,0h0s-.26,0-.26,0h0s-.29,0-.29,0h0s-.26,0-.26,0h0s-.57,0-.57,0h0s-.26,0-.26,0h0s-.61,0-.61,0h0s-.26,0-.26,0h0s-.79,0-.79,0h0s-.26,0-.26,0h0s-1.34,0-1.34,0h0s-.26,0-.26,0h0s-1.44,0-1.44,0h0s-.26,0-.26,0h0s-2.34,0-2.34,0h0s-.26,0-.26,0h0s-1.79,0-1.79,0h-.38s-.26,0-.26,0h0s-1.91,0-1.91,0h0s-.26,0-.26,0h0s-7.77,0-7.77,0h-.06s-.03.02-.05.02c-.06.01-.11.03-.16.05-.05.02-.09.05-.12.08-.05.05-.09.1-.12.17,0,.01-.02.02-.02.03,0,.02,0,.03-.01.05,0,.01,0,.03,0,.04,0,0,0,.02,0,.02v1.19s0,.02,0,.02c0,0,0,.01,0,.02,0,0,0,.02,0,.03.02.14.12.27.26.33.07.03.14.05.23.05h7.83s.26,0,.26,0h0s1.91,0,1.91,0h0s.26,0,.26,0h0s1.87,0,1.87,0h.3s.26,0,.26,0h0s2.34,0,2.34,0h0s.26,0,.26,0h0s1.44,0,1.44,0h0s.26,0,.26,0h0s1.34,0,1.34,0h0s.26,0,.26,0h0s.79,0,.79,0h0s.26,0,.26,0h0s.61,0,.61,0h0s.26,0,.26,0h0s.57,0,.57,0h0s.26,0,.26,0h0s.29,0,.29,0h0s.26,0,.26,0h0s.27,0,.27,0h0s.26,0,.26,0h0s.14,0,.14,0h.16s.06,0,.1,0c.03,0,.07-.01.1-.02h0c.1-.03.19-.09.26-.17h0c.06-.07.09-.16.09-.26v-1.19Z"/>
    <path class="cls-1" d="m136.1,72.6v1.19c0,.1-.04.19-.1.26,0,.01,0,.02-.02.03-.04.04-.1.08-.16.11-.02.01-.05.02-.07.03-.03.01-.07.02-.1.03h-22.79s-.03-.01-.05-.01c-.06-.01-.11-.03-.16-.06-.05-.02-.09-.04-.12-.08-.06-.04-.1-.1-.12-.16,0-.01-.02-.02-.02-.03s0-.03,0-.05c0-.01-.01-.03-.01-.04v-1.24c.02-.23.2-.41.43-.44h22.8s.03.01.04.01h.01s.07,0,.1.02c.07.02.12.07.17.12.03.02.06.03.08.05.06.08.1.17.1.26Z"/>
    <path class="cls-1" d="m134.34,70.23h0c-.06-.08-.15-.14-.26-.17h0s-.07-.02-.1-.02h0s0,0,0,0c0,0-.02,0-.02,0h0s-.01,0-.02,0c-.02,0-.03,0-.05,0h-22.69s-.06,0-.09,0c0,0-.01,0-.02,0-.2.04-.36.21-.38.41,0,0,0,.01,0,.02,0,0,0,.02,0,.02v1.19s0,.02,0,.02c.01.24.23.44.49.44h22.69s.02,0,.03,0c0,0,.01,0,.02,0,0,0,.01,0,.02,0h0s.02,0,.03,0c0,0,0,0,0,0h0s.07-.01.1-.02h0c.1-.03.19-.09.26-.17h0c.06-.07.09-.16.09-.26v-1.19c0-.1-.03-.18-.09-.26Z"/>
    <path class="cls-1" d="m134.39,68.39v1.2c0,.09-.04.18-.1.25,0,.02-.03.04-.05.06-.05.05-.12.09-.2.12-.03,0-.06,0-.08.02h-.07s-.03.01-.05.01h-22.72s-.02-.01-.03-.01c-.22-.02-.39-.19-.42-.39,0-.01,0-.03,0-.04v-1.24s0-.03,0-.04c0-.02,0-.04.01-.06,0-.01.01-.01.02-.02.02-.06.06-.12.11-.17.04-.03.08-.05.13-.08.05-.02.1-.04.16-.05.02,0,.03-.02.05-.02h22.73s0,.01,0,.01h.05s.06.01.1.02c.02,0,.03.02.05.03.07.03.13.07.18.12.01.01.02.02.02.03.06.07.1.16.1.25Z"/>
    <path class="cls-1" d="m135.56,66.33c0-.1-.03-.18-.09-.26h0s-.1-.07-.15-.1c-.04-.02-.06-.06-.11-.07-.03-.01-.07-.02-.1-.02h0s0,0,0,0c-.03,0-.06,0-.09,0h-22.69s-.03.02-.05.02c-.06.01-.11.03-.16.05-.05.02-.09.05-.12.08-.05.05-.09.1-.12.16,0,.01-.02.02-.02.03,0,.02,0,.03-.01.05,0,.01,0,.03,0,.04,0,0,0,.02,0,.02v1.19s0,.02,0,.02c0,0,0,.01,0,.02,0,0,0,.02,0,.03.02.14.12.27.26.33.07.03.14.05.23.05h22.69s0,0,0,0c.03,0,.06,0,.09,0h0s.07-.01.1-.02c.11-.03.19-.09.26-.17h0s0,0,0,0h0c.06-.07.09-.16.09-.26v-1.19Z"/>
    <circle class="cls-2" cx="110.66" cy="67.93" r="9.52" transform="translate(-18.47 54.35) rotate(-25.54)"/>
    <path d="m113.53,72.7c-.44.32-1.19.64-2.15.67-1.18.03-2.23-.4-2.98-1.22-.57-.6-.95-1.43-1.11-2.48l-.9.02-.02-.71.83-.02v-.22c-.01-.23,0-.45,0-.66l-.86.02-.02-.73.96-.02c.15-1.02.56-1.88,1.12-2.49.72-.79,1.65-1.25,2.84-1.28.86-.02,1.53.21,1.94.42l-.26.97c-.37-.21-.98-.38-1.64-.37-.78.02-1.41.31-1.89.85-.42.43-.7,1.1-.82,1.87l4.05-.1.02.73-4.18.11c0,.19-.02.41-.01.61v.26s4.22-.11,4.22-.11l.02.71-4.11.1c.14.84.45,1.46.85,1.89.55.55,1.29.81,2.07.79s1.43-.33,1.76-.52l.27.91Z"/>
    <circle class="cls-2" cx="126.58" cy="52.36" r="9.52" transform="translate(9.25 123.06) rotate(-53.55)"/>
    <path d="m129.77,56.93c-.42.35-1.14.72-2.09.81-1.17.11-2.25-.24-3.06-1.01-.61-.56-1.05-1.36-1.28-2.39l-.9.08-.07-.71.82-.08-.02-.22c-.02-.23-.03-.45-.03-.66l-.85.08-.07-.72.95-.09c.08-1.03.43-1.91.95-2.56.66-.84,1.56-1.36,2.75-1.47.85-.08,1.54.1,1.97.28l-.2.98c-.38-.18-1.01-.31-1.66-.25-.78.07-1.39.41-1.83.98-.39.46-.62,1.14-.69,1.92l4.03-.38.07.72-4.16.39c0,.19,0,.41.03.61l.03.26,4.19-.39.07.71-4.09.38c.2.83.55,1.42.98,1.82.59.51,1.34.72,2.12.65.77-.07,1.4-.42,1.72-.64l.33.89Z"/>
  </g>
  <g>
    <path class="cls-1" d="m81.5,76.51s-.01-.02-.02-.02h0s0,0,0-.01c0,0,0,0-.01-.01,0,0-.01-.01-.02-.02-.02-.02-.04-.03-.07-.05,0,0-.01,0-.02-.01,0,0-.01,0-.02-.01-.01,0-.02-.01-.04-.02h0s-.04-.01-.06-.02c-.03-.01-.07-.02-.1-.02h0s0,0,0,0c0,0,0,0-.01,0,0,0-.01,0-.02,0,0,0,0,0,0,0,0,0,0,0-.02,0-.01,0-.03,0-.04,0h-22.69s-.03.02-.05.02c-.06.01-.11.03-.16.05-.05.02-.08.04-.12.08-.05.05-.09.1-.12.17,0,0-.02.02-.02.03,0,.02-.01.03-.01.05,0,.01,0,.03,0,.04,0,0,0,.02,0,.02v1.19s0,.02,0,.02c0,.01,0,.03,0,.04,0,.02,0,.03.01.05,0,.01.01.02.02.03.03.06.06.12.12.17.04.04.07.06.12.08.05.02.1.04.16.05.02,0,.03.02.05.02h22.69s.03,0,.04,0c.02,0,.04,0,.05,0h0s.07-.01.1-.02c.08-.03.15-.07.21-.12.02-.02.04-.04.05-.05.06-.07.09-.16.09-.26v-1.19c0-.1-.03-.18-.09-.26Z"/>
    <path class="cls-1" d="m82.76,74.71c0-.09-.03-.18-.09-.26h0s-.09-.06-.14-.09c-.04-.03-.07-.06-.12-.08-.03-.01-.07-.02-.1-.02h0s-.06,0-.1,0h-.16s-.14,0-.14,0h0s-.26,0-.26,0h0s-.27,0-.27,0h0s-.26,0-.26,0h0s-.29,0-.29,0h0s-.26,0-.26,0h0s-.57,0-.57,0h0s-.26,0-.26,0h0s-.61,0-.61,0h0s-.26,0-.26,0h0s-.79,0-.79,0h0s-.26,0-.26,0h0s-1.34,0-1.34,0h0s-.26,0-.26,0h0s-1.44,0-1.44,0h0s-.26,0-.26,0h0s-2.34,0-2.34,0h0s-.26,0-.26,0h0s-1.79,0-1.79,0h-.38s-.26,0-.26,0h0s-1.91,0-1.91,0h0s-.26,0-.26,0h0s-7.77,0-7.77,0h-.06s-.03.02-.05.02c-.06.01-.11.03-.16.05-.05.02-.09.05-.12.08-.05.05-.09.1-.12.17,0,.01-.02.02-.02.03,0,.02,0,.03-.01.05,0,.01,0,.03,0,.04,0,0,0,.02,0,.02v1.19s0,.02,0,.02c0,0,0,.01,0,.02,0,0,0,.02,0,.03.02.14.12.27.26.33.07.03.14.05.23.05h7.83s.26,0,.26,0h0s1.91,0,1.91,0h0s.26,0,.26,0h0s1.87,0,1.87,0h.3s.26,0,.26,0h0s2.34,0,2.34,0h0s.26,0,.26,0h0s1.44,0,1.44,0h0s.26,0,.26,0h0s1.34,0,1.34,0h0s.26,0,.26,0h0s.79,0,.79,0h0s.26,0,.26,0h0s.61,0,.61,0h0s.26,0,.26,0h0s.57,0,.57,0h0s.26,0,.26,0h0s.29,0,.29,0h0s.26,0,.26,0h0s.27,0,.27,0h0s.26,0,.26,0h0s.14,0,.14,0h.16s.06,0,.1,0c.03,0,.07-.01.1-.02h0c.1-.03.19-.09.26-.17h0c.06-.07.09-.16.09-.26v-1.19Z"/>
    <g>
      <circle class="cls-2" cx="69.73" cy="61.78" r="9.52" transform="translate(-14.37 101.85) rotate(-67.02)"/>
      <path d="m72.24,66.75c-.46.28-1.23.55-2.19.51-1.17-.06-2.2-.56-2.88-1.44-.52-.64-.85-1.5-.93-2.55l-.9-.04.03-.71.83.04v-.22c.02-.23.05-.45.07-.65l-.85-.04.03-.73.96.05c.22-1.01.7-1.83,1.3-2.4.78-.73,1.74-1.12,2.93-1.07.86.04,1.51.32,1.91.56l-.33.95c-.35-.24-.95-.45-1.61-.49-.78-.04-1.43.21-1.95.71-.45.4-.77,1.04-.96,1.8l4.05.2-.03.73-4.18-.2c-.02.19-.05.41-.06.61v.26s4.19.21,4.19.21l-.03.71-4.1-.2c.08.85.34,1.49.71,1.94.51.59,1.22.9,2,.94s1.45-.22,1.79-.39l.2.93Z"/>
    </g>
  </g>
  <g>
    <circle class="cls-2" cx="17.06" cy="68.51" r="9.52" transform="translate(-20.81 8.92) rotate(-18.46)"/>
    <path d="m19.2,73.66c-.48.25-1.27.46-2.22.34-1.17-.14-2.15-.72-2.77-1.65-.47-.67-.73-1.56-.74-2.61l-.89-.11.09-.71.82.1.03-.22c.03-.23.07-.45.11-.65l-.85-.1.09-.72.95.12c.3-.99.83-1.78,1.47-2.3.83-.67,1.82-.99,3-.85.85.1,1.48.43,1.86.7l-.4.92c-.33-.26-.92-.52-1.57-.6-.78-.1-1.44.1-2,.56-.48.37-.85.98-1.08,1.73l4.02.49-.09.72-4.15-.51c-.04.19-.08.4-.1.6l-.03.26,4.18.51-.09.71-4.08-.5c.02.85.23,1.51.57,1.99.47.63,1.15.99,1.93,1.09.76.09,1.46-.11,1.82-.26l.14.94Z"/>
    <line class="cls-5" x1="6.95" y1="58.43" x2="26.65" y2="78.42"/>
    <line class="cls-5" x1="6.81" y1="78.28" x2="26.8" y2="58.58"/>
  </g>
  <rect class="cls-4" x="-300.78" y="-52.99" width="1168.31" height="629.76"/>
</svg>