<?xml version="1.0" encoding="UTF-8"?>
<svg id="Calque_1" data-name="Calque 1" xmlns="http://www.w3.org/2000/svg" viewBox="0 0 200 128">
  <defs>
    <style>
      .cls-1 {
        fill: #76ac75;
      }

      .cls-1, .cls-2, .cls-3, .cls-4, .cls-5, .cls-6, .cls-7, .cls-8, .cls-9, .cls-10, .cls-11, .cls-12, .cls-13, .cls-14, .cls-15, .cls-16, .cls-17, .cls-18, .cls-19 {
        stroke-linecap: round;
        stroke-linejoin: round;
      }

      .cls-1, .cls-2, .cls-3, .cls-4, .cls-5, .cls-6, .cls-7, .cls-9, .cls-10, .cls-11, .cls-12, .cls-13, .cls-14, .cls-20, .cls-21, .cls-22, .cls-16, .cls-17, .cls-18, .cls-19 {
        stroke: #000;
      }

      .cls-2, .cls-22 {
        fill: #d6d6d6;
      }

      .cls-3 {
        fill: #87f3b9;
      }

      .cls-4 {
        fill: #87ccf3;
      }

      .cls-5 {
        fill: #baa584;
      }

      .cls-6 {
        fill: #fce9b9;
      }

      .cls-7, .cls-20 {
        fill: #ff6d75;
      }

      .cls-8 {
        stroke: #f3d587;
      }

      .cls-8, .cls-9 {
        fill: #f3d587;
      }

      .cls-10, .cls-12, .cls-21, .cls-16, .cls-19 {
        fill: #fff;
      }

      .cls-11, .cls-14, .cls-15, .cls-17, .cls-18 {
        fill: none;
      }

      .cls-12, .cls-14 {
        stroke-width: .61px;
      }

      .cls-13 {
        fill: #fab0b4;
      }

      .cls-23 {
        fill: #faba02;
      }

      .cls-24 {
        fill: #f8fbfc;
      }

      .cls-25 {
        fill: #0473b9;
      }

      .cls-26 {
        fill: #0473ba;
      }

      .cls-27 {
        fill: #0171b9;
      }

      .cls-28 {
        fill: #0372b9;
      }

      .cls-29 {
        fill: #fefefe;
      }

      .cls-30 {
        fill: #117abd;
      }

      .cls-31 {
        fill: #0674ba;
      }

      .cls-32 {
        fill: #0f79bc;
      }

      .cls-33 {
        fill: #0d78bc;
      }

      .cls-20, .cls-21, .cls-22 {
        stroke-miterlimit: 10;
      }

      .cls-15 {
        stroke: #fff;
        stroke-width: 8px;
      }

      .cls-16, .cls-17 {
        stroke-width: .82px;
      }

      .cls-18 {
        stroke-width: .41px;
      }

      .cls-19 {
        stroke-width: .75px;
      }
    </style>
  </defs>
  <path class="cls-2" d="m173.54,24.97s0,0,0-.02h0c.05-.12.32-.73.51-1.56v-.03c.37-1.65.38-4.15-2.36-5.26,0,0-.17-.91-1.33-.76,0,0-1.34-1.47-2.97-.26-1.13-.32-1.43.55-1.43.55-3.1.73-3.3,3.53-3.12,5.2,0,.03.01.06.01.09"/>
  <path class="cls-10" d="m154.46,112.68l.76-.56.56-4.89s4.33.69,4.33.75-.44,4.58-.44,4.58l.31,1.25-3.2.25-1.82-.44-.51-.94Z"/>
  <polygon class="cls-10" points="176.36 113.9 176.55 109.16 171.59 109.1 172.51 113.69 174.13 115.23 176.36 113.9"/>
  <path class="cls-5" d="m170.69,117.04c.13-.4,1.46-2.76,1.78-3.35.65.28,1.29.44,2,.43.65,0,1.37-.06,1.9-.46.33.47.74,1.1,1.04,1.62.28.47.67.96.87,1.49.2.53.11,1.14-.31,1.49-1.4,1.16-5.33,1.44-7.02.16-.5-.38-.34-1.11-.25-1.38Z"/>
  <path class="cls-5" d="m149.14,116.98c.81.14,1.67.08,2.48.08,2.33,0,4.66-.11,6.98-.22.37-.02.75-.04,1.09-.19.27-.12.5-.32.65-.56.1-.15.17-.32.18-.5,0-.06,0-.12,0-.18-.01-.25-.11-.49-.2-.72-.17-.43-.24-.74-.41-1.17-1.85,0-3.69-.34-5.47-.83-.18.09-.36.18-.54.27l-3.09,1.56c-.42.21-.84.42-1.25.63-.1.05-.2.1-.3.15-.3.15-.72.24-.93.51-.05.06-.09.13-.11.22-.18.62.4.88.91.96Z"/>
  <path class="cls-4" d="m154.91,109.79s1.57.64,3.45.91c1.87.26,2.01.03,2.01.03l3.41-22.53s.96-2.48,2.24-5.82c.1-.26.2-.52.3-.8.44-1.14.91-2.36,1.39-3.6-.05,3.65-.09,7.26-.13,10.75l3.84,23.06c1.49.53,1.6.51,3.2.51,1.48,0,1.48-.03,2.82-.57-.61-8.02-1.68-22.8-1.68-22.8,0,0,3.37-15.6,2.56-23.69-.39-3.9-2.13-7.09-3.33-9.22-.75.63-2.01,1.15-2.94,1.38-1.55.39-2.18.44-3.74.39-.25-.02-.5-.04-.72-.07-2.25-.25-3.7-.51-3.7-.51,0,0-3.13,6.94-4.39,11.11-1.25,4.14-3.26,20.26-3.26,20.26l-1.32,21.2Z"/>
  <path class="cls-16" d="m165.09,36.09c.22.1.45.17.68.23,1.93.46,4.11-.36,4.86-.67l-.23-3.27-.02-.37-5.06-.98-.13,1.05-.43,3.56c.02.07.04.14.07.2.02.04.02.08.04.11,0,.02,0,.03.02.05h0l.2.09Z"/>
  <g>
    <path class="cls-12" d="m152.31,68.62c-.01.16-.01.32-.01.48,0,.43.03.85.04,1.28,0,.18,0,.37-.05.55s-.16.34-.33.43-.39.05-.51-.09c-.1-.13-.1-.3-.1-.47,0-.21.01-.43.02-.64,0-.29.02-.58.04-.86.05-.58.16-1.19.52-1.65.12-.15.67-.52.67-.1,0,.16-.13.34-.18.5-.06.19-.1.38-.11.57Z"/>
    <path class="cls-12" d="m151.98,68.89c-.01.16-.01.32-.01.48,0,.43.03.85.04,1.28,0,.18,0,.37-.05.55s-.16.34-.33.43-.39.05-.51-.09c-.1-.13-.1-.3-.1-.47,0-.21.01-.43.02-.64,0-.29.02-.58.04-.86.05-.58.16-1.19.52-1.65.12-.15.67-.52.67-.1,0,.16-.13.34-.18.5-.06.19-.1.38-.11.57Z"/>
    <path class="cls-19" d="m156.16,63.01c-.05-.24-.8-.43-1.13-.91-1.05.62-2.82,3.97-3.25,4.86-.29.6-.6,1.22-.73,1.88-.14.7-.16,1.41-.19,2.12,0,.11-.01.22.02.33.06.19.31.31.48.18.38-.28.4-.87.44-1.3.03-.4.04-.81.14-1.2.1-.38.3-.7.56-.99.18-.22.36-.44.55-.65.07-.08.15-.16.23-.23.11-.1.24-.17.39-.19.12-.02.31,0,.4.09.1.1.05.26.02.38-.03.14-.09.28-.15.41-.11.22-.24.45-.28.69,0,.04-.01.08-.01.13-.02.46.44,1.01.83.51.08-.11.14-.23.2-.35.28-.59.67-1.11.84-1.74.11-.4.17-.81.23-1.22.23-1.54.57-2.06.43-2.78Z"/>
    <path class="cls-12" d="m153.28,67.09c.05-.08.11-.16.18-.23.11-.13.24-.25.41-.31.16-.06.36-.03.48.1.09.11.11.27.09.41-.05.35-.29.64-.49.93-.11.15-.21.3-.28.47.04-.25.18-.47.28-.69.06-.13.12-.26.15-.41.03-.12.08-.28-.02-.38-.09-.09-.28-.11-.4-.09-.15.02-.27.1-.39.19Z"/>
  </g>
  <path class="cls-11" d="m168.56,18s0,.94.34,1.58h0"/>
  <path class="cls-11" d="m170.39,19.98c.75-.43,1.25-1.52,1.25-1.52"/>
  <path class="cls-17" d="m172.75,28.64h0c.09-.02.7-.18,1.06-1.14.39-1.04.83-.92.88-2,.03-1.02-.96-.58-1.07-.52"/>
  <path class="cls-11" d="m164.11,19.34s.73.43,1.54.58"/>
  <path class="cls-10" d="m171.93,20.44c-.46.02-1.01-.09-1.54-.46-.23.14-.46.2-.72.18-.36-.04-.6-.28-.76-.57,0,0-.02.02-.03.02-.1.1-.75.66-1.54-.11-.42.5-1.07.55-1.68.44-.36.28-.86.25-.86.25-.03.04-.07.09-.09.13-1.49,2.11-1.64,3.54-1.65,3.69-.09-.38-.16-.73-.21-1.07.08.63.2,1.09.23,1.18h0s0,.03,0,.03h0c-.02.6-.03,2.14.22,3.74.21,1.33.61,2.7,1.34,3.58,1.69,2.05,2.78,2.09,2.94,2.08.17.04,1.32.21,3.31-1.56.86-.76,1.46-2.05,1.87-3.33.49-1.54.72-3.07.79-3.66h0c.01-.07.02-.14.02-.21-.02.06-.02-.4-.03-.65-.16-1.24-1.29-3.29-1.43-3.64l-.17-.03Z"/>
  <path class="cls-17" d="m173.53,24.11c.03.23.04.45.03.65"/>
  <path class="cls-11" d="m164.68,20.47s-1.6,2.32-1.6,3.66"/>
  <path class="cls-17" d="m173.57,24.72h0s0,.11-.03.23h0s0,.03,0,.03"/>
  <path class="cls-17" d="m163.07,24.13v-.02"/>
  <path class="cls-17" d="m163.09,23.87s0,.09,0,.23"/>
  <path class="cls-17" d="m163.3,27.87h0c-.08-.03-.66-.28-.87-1.29-.22-1.09-.68-1.04-.56-2.11.13-1.01,1.1-.41,1.21-.34"/>
  <path class="cls-11" d="m166.68,18.57c.2.38.4.66.59.85.02.03.04.05.06.06"/>
  <path class="cls-17" d="m168.88,19.59l.02-.02"/>
  <path class="cls-16" d="m167.81,24s-.36,3.21-1.06,4.82c0,0,.14.33,1.18.13"/>
  <ellipse class="cls-16" cx="169.96" cy="25.53" rx=".32" ry=".11" transform="translate(131.39 193.01) rotate(-85.58)"/>
  <ellipse class="cls-16" cx="165.54" cy="25.11" rx=".32" ry=".11" transform="translate(127.73 188.22) rotate(-85.58)"/>
  <line class="cls-16" x1="167.7" y1="77.98" x2="167.93" y2="68.12"/>
  <path class="cls-1" d="m178.15,49.94c-.74-.78-1.43-1.6-2.05-2.45-.03.37-.02,1.16.03,2.17.08,2.02.27,4.9.39,6.73-.43.63-.84,1.29-1.21,1.94-.24.41-.27.91-.08,1.34.02.06.05.12.08.18-.03.02-.06.02-.09.03-3.52,1.12-7.34,1.25-10.94.43-.73-.16-1.49-.4-1.94-1.03-.07-.11-.15-.22-.2-.34-.93,1.17-1.93,2.31-2.98,3.38-.9.91-2.3,1.11-3.43.51-.84-.45-1.33-1.31-1.33-2.2,0-.42.11-.84.34-1.24.63-1.08,1.29-2.1,2.02-3.14.4-.57,1.15-1.54,1.56-2.07.18-.23.27-.52.25-.82-.12-2.02-1.17-10.9,1.3-14.28.08-.12.15-.25.25-.36,1.06-1.07,3.17-2.36,4.51-2.89.09.06.18.11.27.16h0l.2.09c.22.1.45.17.68.23,1.93.46,4.11-.36,4.86-.67.17-.07.26-.12.26-.12,1.2.16,2.39.42,3.55.8,1.26.43,2.37.93,3.42,1.76,1.06.86,2,1.86,2.89,2.89.43.5.85,1.01,1.27,1.52.2.25.41.49.61.75"/>
  <path class="cls-16" d="m164.61,35.84c.09.06.18.11.27.16h0c.07.03.13.07.2.09.22.1.45.17.68.23l-.72-.3-.18-.07-.25-.11Z"/>
  <path class="cls-17" d="m160.75,47.53c.04,1.17.75,8.6.95,9.76.11.68.22,1.42.63,1.99.45.63,1.21.87,1.94,1.03"/>
  <path class="cls-19" d="m168.08,63.96s2.39-1.13,2.39-1.13c.35-.17.72-.31,1.06-.49.17-.09.34-.19.5-.31.14-.11.33-.26.07-.29-.18-.02-.36,0-.54.02-.27.02-.58.04-.85-.02-.15-.04-.3-.13-.36-.27-.08-.19.02-.41.18-.54,0,0,.01,0,.02-.01.17-.13.38-.17.59-.21.67-.12,1.36-.16,2.01-.32.38-.1.71-.26,1.1-.32.32-.05.64-.06.96-.05l.43-.48s-.02-.04-.02-.04c.13-.15.26-.3.4-.45.54.85,1.08,1.7,1.63,2.55-.34.26-.56.42-.56.42,0,0,0,0,0-.01-.24,1.19-1.07,2.42-2.05,3.03-.1.06-.2.12-.28.2-.06.06-.11.14-.16.22-.27.46-.52.92-.75,1.39-.15.3-.33,1-.74,1.01-.29,0-.49-.31-.36-.56.23-.46.47-.91.72-1.37.09-.17.2-.33.27-.51.02-.06.09-.19.06-.25-.18-.32-.62.28-.73.41-.21.24-.42.48-.63.71-.3.34-.6.67-.91.99-.19.21-.44.6-.78.46-.23-.1-.31-.42-.13-.61.1-.1.2-.21.29-.31.02-.04.04-.08.07-.11.33-.38.65-.77.96-1.16.15-.2.31-.4.46-.59.06-.08.44-.39.31-.51-.15-.14-.56.3-.67.37-.3.2-.61.41-.91.61-.41.27-.8.56-1.21.83-.25.17-.68.59-.99.3-.16-.15-.15-.44.02-.58.02-.02.03-.04.06-.06.51-.5,1.09-.92,1.65-1.35.28-.21.56-.42.82-.65.14-.12.27-.23.41-.36.05-.05.22-.15.15-.24-.06-.08-.25,0-.32.03-.19.07-.35.21-.54.27-.31.11-.63.23-.95.34-.44.16-.88.32-1.31.49-.26.1-.65.38-.92.14-.19-.17-.15-.54.09-.65Z"/>
  <path class="cls-1" d="m178.15,49.94c.65.69,1.32,1.34,2,1.99-1.39,1.45-2.6,2.93-3.63,4.46-.43.63-.84,1.29-1.21,1.94-.24.41-.27.91-.08,1.34.02.06.05.12.08.18.28.66.59,1.29.97,1.91.3.5.93.69,1.47.44,1.89-.88,3.66-2.06,5.27-3.37,1.35-1.11,2.73-2.31,3.57-3.87,1.4-2.61.35-5.58-1.1-7.92-.83-1.34-1.84-2.58-2.84-3.8"/>
  <line class="cls-11" x1="181.56" y1="53.62" x2="184.04" y2="51.42"/>
  <line class="cls-2" x1="167.01" y1="36.32" x2="167.69" y2="60.65"/>
  <line class="cls-2" x1="168.2" y1="39.06" x2="165.54" y2="39.06"/>
  <circle class="cls-14" cx="169.92" cy="25.61" r="1.54"/>
  <circle class="cls-14" cx="165.36" cy="25.14" r="1.54"/>
  <path class="cls-14" d="m168.76,24.57s-1.07-.84-2.05-.2"/>
  <line class="cls-18" x1="169.39" y1="22.43" x2="166.85" y2="22.09"/>
  <line class="cls-18" x1="169.65" y1="21.42" x2="167.11" y2="21.08"/>
  <path class="cls-14" d="m166.64,30.93c.42.19,1.09.3,1.94-.21"/>
  <path class="cls-18" d="m169.55,31.01s.39-.4-.15-1.02"/>
  <path class="cls-18" d="m165.93,30.18s-.52.2-.29.99"/>
  <line class="cls-16" x1="171.59" y1="25.42" x2="174" y2="24.74"/>
  <line class="cls-16" x1="163.61" y1="24.54" x2="162.83" y2="23.94"/>
  <g>
    <path class="cls-29" d="m83.61,21.01c-.37-.36-.75-.71-1.13-1.07-.04-.04-.09-.07-.14-.12-.05.04-.09.07-.12.12-.07.1.03.13.08.18.37.36.75.71,1.13,1.07.07.06.12.18.24.05.11-.12,0-.17-.06-.23Zm9.36-4.73c-.08-.55-.17-1.1-.25-1.65-.01-.08-.03-.14-.14-.12-.13.02-.13.09-.11.18.08.54.16,1.08.24,1.63.01.08.03.15.14.13.09-.02.14-.05.12-.15Zm3.51-.21c-.16,0-.32-.02-.48-.02-.16,0-.21-.05-.2-.21.03-.45.04-.9.06-1.36,0-.08.02-.17-.11-.18-.14-.01-.16.07-.16.17,0,.27,0,.55,0,.82-.02,0-.04,0-.06,0,0,.3-.11.68.03.88.15.22.56.07.85.1.02,0,.04,0,.06,0,.07,0,.13,0,.13-.1,0-.09-.06-.11-.13-.11Zm-11.94,4.04c-.23-.26-.47-.52-.7-.78q-.3-.33,0-.65s.13-.08.05-.18c-.09-.11-.14-.03-.2.03-.23.21-.48.41-.69.63-.08.08-.33.12-.17.3.13.14.23-.06.3-.14.16-.18.26-.12.39.04.27.32.56.64.85.95.04.05.08.15.18.07.04-.03.1-.06.09-.15-.03-.03-.06-.07-.1-.12Zm-5.13,7.9c-.25-.1-.46-.05-.64.15-.1.11-.18.24-.28.35-.1.11-.23.14-.36.07-.13-.06-.16-.18-.15-.31,0-.12.05-.22.11-.32.05-.07.04-.12-.03-.16-.08-.04-.13-.02-.16.05-.05.11-.1.23-.12.34-.05.26.02.49.27.63.22.12.45.06.65-.17.09-.11.17-.23.26-.33.1-.1.22-.14.36-.08.14.06.19.17.19.31,0,.15-.05.28-.13.4-.04.07-.12.14,0,.2.12.06.15-.03.19-.1.1-.16.14-.33.16-.51-.01-.24-.09-.44-.33-.54Zm8.51-10.97c-.14-.05-.28-.04-.42-.02-.07,0-.13,0-.2,0-.17,0-.3-.06-.34-.23-.04-.16.06-.27.2-.34.08-.04.17-.08.26-.09.08-.02.11-.05.1-.13-.02-.09-.07-.09-.15-.08-.16.03-.31.09-.43.2-.19.15-.27.34-.2.58.07.24.25.34.49.35.15,0,.3-.02.45-.01.16,0,.27.08.31.24.05.16-.02.27-.15.36-.12.09-.25.13-.39.14-.07,0-.13.01-.12.11.01.1.07.12.15.11.25-.03.47-.13.64-.33.24-.28.13-.72-.21-.84Zm-6.98,7.71c-.17-.04-.11.12-.13.19-.12.41-.4.67-.73.63-.33-.03-.63-.16-.78-.48-.15-.3-.05-.57.13-.82.05-.08.15-.14.02-.22-.12-.08-.15.04-.19.1-.23.33-.35.7-.16,1.09.2.4.56.57.95.61.48,0,.83-.31.96-.84.02-.09.11-.21-.06-.25Zm11.24-8.38c-.08-.19-.19.04-.3.03-.02,0-.05.02-.08.03-.48.13-.83-.09-.95-.59-.12-.47.1-.83.57-.93.08-.02.17-.03.25-.03.09,0,.12-.03.13-.11,0-.09-.06-.11-.13-.11-.11,0-.23.01-.34.04-.52.12-.84.56-.78,1.06.07.58.42.93.92.93.15,0,.31-.01.44-.08.1-.06.35-.03.26-.24Zm6.05-1.82c-.23-.04-.47-.07-.73-.11-.14-.06-.18.05-.19.19-.05.38-.11.77-.17,1.15q-.08.55.46.64c.14.02.28.04.42.07.07.01.13.02.15-.07.02-.11-.03-.13-.12-.14-.17-.02-.33-.05-.5-.07-.16-.02-.2-.07-.17-.24.09-.48.08-.48.55-.41.05,0,.09.02.14.03.07.02.13,0,.14-.09.01-.09-.03-.12-.11-.12-.13-.02-.26-.04-.39-.05-.16-.01-.22-.07-.19-.25.06-.39.04-.39.44-.33.08.01.17.02.25.03.08.01.15.03.17-.08.02-.12-.07-.12-.14-.13Zm-3.21,1.54c-.22-.55-.45-1.1-.68-1.65-.04-.11-.11-.11-.2-.11-.09,0-.16.01-.19.12-.15.57-.31,1.15-.47,1.73,0,.04-.05.11.04.13.07.01.16.02.2-.07.03-.08.06-.16.07-.24.03-.25.15-.33.41-.35.29-.03.45.04.51.33.01.07.05.14.09.21.05.08.14.04.21.03.1-.02.04-.09.02-.13Zm-.87-.61c-.2.01-.24-.04-.18-.23.07-.19.1-.4.17-.65.09.21.16.38.23.56.13.31.13.3-.22.33Zm-12.53,7.43c-.33-.29-.73-.47-1.09-.72-.09-.06-.13-.01-.18.06-.05.07-.03.12.04.16.11.06.21.13.31.19.25.16.5.31.73.48.19.15.25.36.11.58-.14.22-.34.26-.57.16-.1-.04-.2-.1-.3-.16-.24-.15-.48-.3-.72-.45-.08-.05-.15-.11-.23.02-.08.14.03.16.1.21.28.18.56.35.84.52.15.09.3.15.48.16.27,0,.5-.16.63-.45.13-.29.08-.55-.16-.77Zm-1.39,3.57c-.11-.03-.12.04-.15.12-.05.16-.12.32-.16.48-.04.14-.09.14-.22.1-.49-.15-.49-.15-.34-.63.01-.04.03-.07.04-.11.02-.08.03-.15-.07-.18-.09-.03-.11.05-.13.11-.05.14-.09.29-.14.43-.02.05-.02.15-.12.12-.16-.05-.35-.08-.47-.19-.08-.07.05-.22.08-.33.03-.09.06-.18.09-.27.02-.06.06-.13-.04-.16-.09-.03-.13,0-.17.09-.04.1-.03.24-.17.31-.07-.16-.14-.3-.21-.45-.19.21-.05.34.05.49.1.15.11-.08.22-.03-.04.14-.07.27-.12.38-.06.14,0,.18.11.22.51.17,1.02.34,1.53.51.11.04.17.03.21-.1.07-.25.16-.5.25-.75.03-.08.05-.14-.06-.17Zm2.03-5.07c0-.39-.1-.57-.34-.65-.29-.09-.49.05-.67.26-.08.1-.16.21-.24.32-.07.09-.07.16.03.23.42.33.84.67,1.26,1,.07.06.13.09.21,0,.08-.11,0-.15-.06-.2-.13-.11-.27-.21-.4-.32-.05-.04-.14-.07-.08-.15.12-.16.24-.33.48-.25.13.05.26.1.39.17.17.09.28.07.34-.15-.31-.08-.57-.34-.94-.26Zm-.2-.02c-.06.15-.11.35-.32.39-.08.02-.48-.38-.47-.44.02-.15.31-.37.46-.36.18.01.35.21.32.41Zm7.2-6.04c-.51,0-.89.39-.88.9,0,.61.44,1.1.95,1.09.5,0,.87-.39.87-.89,0-.61-.43-1.11-.94-1.11Zm.32,1.74c-.27.11-.5.01-.68-.2-.21-.24-.29-.52-.24-.84.07-.43.53-.62.88-.36.27.2.38.48.39.76,0,.32-.09.54-.35.64Zm18.55,7.14c-.16,0-.21.06-.23.21-.08.48-.18.96-.27,1.44-.08.45-.08.45.37.45.42,0,.41,0,.49-.42.06-.34.13-.68.2-1.03.13-.67.14-.67-.56-.65Zm8.12,9.3c-.29,0-.66-.12-.85.05-.17.15-.14.53-.19.8q-.12.61.51.61c.14,0,.29-.01.43,0,.18.02.24-.05.26-.23.04-.29.1-.58.15-.86.07-.38.07-.39-.3-.38Zm-.16,2.19c-.46,0-.92,0-1.39,0-.08,0-.12.04-.13.12,0,.07-.05.14.06.19.24.11.22.31.18.53-.18.98-.36,1.96-.54,2.95-.03.19-.17.44-.06.56.11.1.37.04.57.05h0c.12,0,.25-.02.37,0,.21.03.3-.05.32-.27.04-.35.12-.7.19-1.06.18-.94.35-1.89.52-2.84.02-.08.09-.22-.1-.22Zm26.16-7.8c-.6-.21-1.18-.14-1.7.22-.75.51-1.15,1.23-1.25,2.12-.14,1.28.52,2.02,1.8,2.02.16,0,.32-.01.48,0,.24.02.23-.13.24-.29.02-.22-.15-.12-.24-.12-.16-.02-.32,0-.48,0-.55,0-.78-.28-.68-.83.09-.52.17-1.04.27-1.56.06-.3.07-.62.3-.87.18-.2.39-.34.67-.25.26.08.34.31.35.56,0,.1,0,.18.14.18.13,0,.19-.03.21-.16.03-.22.05-.44.11-.64.07-.23-.04-.32-.21-.38Zm-32.17,7.74c-.46-.09-.9-.05-1.31.19-.05.03-.16.13-.17.02-.01-.2-.14-.14-.23-.14-.2,0-.4,0-.6,0-.23,0-.45,0-.68,0-.07,0-.13.01-.14.1,0,.06-.07.15,0,.18.39.16.25.46.2.73-.19,1.06-.38,2.12-.58,3.17-.03.14,0,.21.16.2.26-.01.53-.02.79,0,.23.02.3-.08.34-.29.16-.95.34-1.89.51-2.84.04-.22.13-.41.31-.55.35-.27.72-.13.81.3.02.09-.02.19.13.2.13,0,.18-.06.22-.17.12-.28.23-.56.36-.83.08-.17.05-.23-.13-.27Zm19.61-7.81c-.53-.12-1.01-.01-1.51.31.04-.19,0-.26-.17-.26-.43.01-.85,0-1.28,0-.08,0-.16,0-.17.1-.01.08-.06.17.06.22.25.11.22.31.18.53-.2,1.1-.4,2.21-.61,3.32-.04.19.02.22.19.22.26-.01.53-.01.79,0,.18,0,.26-.04.29-.24.16-.93.33-1.86.5-2.79.05-.29.14-.55.42-.7.34-.19.66-.03.72.35.01.08-.04.2.12.2.12,0,.19-.03.24-.15.12-.29.24-.58.37-.86.09-.18.01-.22-.15-.25Zm-9.09.02c-.71-.31-1.87-.07-2.4.51-.46.5-.44,1.26.05,1.74.16.16.33.31.5.46.19.17.24.37.19.62-.1.45-.42.65-1.04.66-.47,0-.4-.07-.48.44.54-.01,1.08.06,1.61-.07.47-.12.85-.37,1.1-.79.36-.59.28-1.2-.23-1.67-.18-.17-.37-.33-.55-.5-.23-.21-.18-.46-.07-.7.12-.26.42-.42.68-.37.29.06.36.27.38.53,0,.07-.02.15.1.16.11,0,.15-.04.17-.14.04-.22.08-.45.13-.67.03-.13-.05-.16-.14-.2Zm-3.52-.02c-.75-.22-1.47-.13-2.11.32-.73.51-.76,1.42-.1,2.02.11.1.22.21.34.3.27.2.36.47.25.78-.12.33-.35.54-.71.56-.18.01-.36.02-.54,0-.27-.02-.21.21-.23.34-.03.19.13.1.21.11.16.01.32,0,.48,0h0c.19-.01.38,0,.57-.01.54-.05,1-.27,1.34-.71.47-.61.41-1.31-.16-1.83-.17-.16-.35-.31-.53-.48-.23-.21-.18-.46-.06-.7.12-.26.42-.42.68-.36.29.06.36.28.37.53,0,.08,0,.15.11.15.11,0,.15-.04.17-.14.03-.2.05-.4.11-.58.06-.19-.02-.26-.18-.3Zm-10.63,7.88c-.07-.02-.15-.01-.23,0-.25.04-.33-.04-.27-.31.13-.6.22-1.2.34-1.88-.23.11-.39.21-.57.26-.66.18-.98.59-.98,1.27,0,.12-.05.24-.06.36-.01.19-.06.34-.3.29-.09-.01-.15.02-.16.12,0,.06-.04.13.05.17.28.12.24.35.2.58-.1.53-.2,1.06-.28,1.59-.16,1.02.58,1.95,1.56,2.01.17.01.18-.08.2-.19.01-.1.09-.2-.09-.26-.43-.15-.6-.45-.53-.9.12-.68.25-1.36.36-2.03.11-.64.11-.65.74-.64.26,0,.27-.15.28-.32,0-.22-.17-.09-.27-.12Zm12.54,0c-.1-.02-.21-.01-.31,0-.19.02-.25-.04-.21-.24.12-.63.23-1.26.35-1.95-.43.2-.81.39-1.2.56-.14.06-.2.15-.22.29-.06.35-.12.71-.18,1.06-.03.17-.06.32-.29.27-.06-.01-.14-.01-.15.08,0,.06-.07.15,0,.18.41.18.23.5.2.78-.08.61-.28,1.2-.25,1.82.04.85.72,1.55,1.55,1.6.12,0,.22,0,.21-.15-.01-.1.14-.22-.07-.3-.46-.17-.62-.48-.53-.98.12-.66.24-1.32.37-1.97.12-.62.12-.64.73-.62.29,0,.28-.18.29-.34,0-.2-.17-.07-.26-.09Zm-13.08-8.08c.24-1.09.48-2.17.72-3.26-.02,0-.03-.02-.05-.03-.29.34-.58.69-.88,1.03-.39.46-.79.92-1.17,1.39-.1.12-.26.27.02.39.17.08.14.24.1.4-.22.99-.42,1.98-.66,2.96-.23.94.42,1.77,1.54,1.85.17.01.17-.1.2-.2.04-.13-.02-.15-.13-.19-.42-.12-.58-.38-.48-.81.26-1.18.52-2.36.78-3.54Zm39.98.33c-.48-.2-.99-.24-1.5-.09-1.21.34-2.08,1.86-1.8,3.1.2.85.74,1.29,1.61,1.29.19,0,.38,0,.57,0,.29,0,.59,0,.88,0,.23,0,.18-.18.2-.3.02-.17-.12-.1-.2-.11-.46,0-.93,0-1.39,0-.25,0-.44-.1-.54-.33-.09-.2-.05-.41-.02-.61.02-.13.07-.19.22-.19.24.01.49,0,.74,0,.9-.04,1.64-.54,1.89-1.25.23-.65-.03-1.25-.67-1.51Zm-1.03,2.18c-.3.29-.67.14-1.05.18.08-.43.14-.84.24-1.24.07-.3.22-.56.49-.74.34-.23.73-.08.8.33.09.56-.06,1.06-.47,1.47Zm-41.88,5.63c-.82-.31-1.6-.23-2.29.34-.64.53-.97,1.22-1.04,2.04-.08,1.01.49,1.8,1.37,1.91.3.04.6,0,.91,0h0c.28.01.57.01.85.01.24,0,.15-.21.18-.32.04-.15-.1-.1-.17-.1-.42,0-.83,0-1.25,0-.63,0-.86-.3-.73-.92.04-.17.11-.21.26-.2.33.01.66.02.99-.05.72-.14,1.3-.46,1.59-1.17.27-.66,0-1.3-.66-1.55Zm-1.11,2.26c-.07.05-.15.07-.23.09,0,0-.02,0-.02,0-.04,0-.08.01-.12.01-.02,0-.03,0-.05,0-.01,0-.02,0-.03,0-.03,0-.06,0-.09,0-.02,0-.04,0-.06,0h-.01s-.06,0-.09,0c-.01,0-.03,0-.04,0-.15.01-.21-.04-.18-.19.08-.37.13-.74.23-1.11.07-.28.22-.52.47-.68.33-.21.66-.09.78.28.16.49-.13,1.31-.56,1.6Zm20.44-2.32c-.89-.27-1.68-.09-2.34.59-.53.54-.81,1.2-.84,1.96-.04.96.54,1.71,1.4,1.81.29.03.59,0,.88,0h0c.25,0,.49-.01.74.01.27.03.3-.14.3-.32,0-.21-.19-.1-.28-.11-.47-.02-.95,0-1.42-.02-.33-.02-.52-.3-.49-.67q.03-.43.49-.43c.13,0,.27,0,.4,0,.79-.06,1.49-.29,1.9-1.04.43-.77.11-1.54-.73-1.79Zm-.96,2.32c-.17.11-.36.1-.55.1-.08,0-.15,0-.23,0-.13,0-.17-.04-.14-.17.07-.36.13-.72.22-1.08.07-.31.23-.58.51-.75.31-.19.63-.07.75.28.17.5-.12,1.33-.56,1.62Zm12.28-9.94c.03-.16,0-.22-.18-.21-.52.01-1.04.03-1.56,0-1.44-.09-2.65,1.28-2.55,2.78.08,1.27,1.02,1.87,2.2,1.45.05-.02.12-.07.12.03,0,.17.11.12.19.12.2,0,.4,0,.6,0,.22,0,.43,0,.65,0,.06,0,.14.01.15-.09,0-.07.08-.16-.02-.2-.36-.16-.23-.45-.18-.71.19-1.06.39-2.12.59-3.17Zm-1.35.39c-.16.89-.33,1.78-.5,2.67-.04.21-.17.38-.34.51-.2.16-.42.22-.66.1-.23-.12-.29-.33-.3-.58.14-.75.26-1.5.44-2.24.13-.53.78-.81,1.29-.61.1.04.07.1.06.16Zm6.06,3.46c-.18-.08-.21-.24-.18-.43.06-.32.12-.63.17-.95.09-.5.21-1,.08-1.51-.21-.9-1.1-1.47-1.87-1.2-.14.05-.26.09-.45.05-.47-.08-.96-.02-1.44-.03-.09,0-.11.05-.12.12,0,.06-.07.14.02.17.35.15.24.43.2.68-.19,1.06-.39,2.12-.59,3.17-.04.18,0,.25.21.24.26-.02.53-.01.79,0,.15,0,.22-.04.24-.2.13-.73.25-1.47.4-2.2.08-.4.07-.84.32-1.19.22-.31.59-.44.86-.33.27.11.39.42.31.83-.18.95-.35,1.89-.53,2.84-.04.21.02.27.22.25.19-.02.38,0,.57,0,.23,0,.45,0,.68,0,.09,0,.16,0,.18-.12,0-.09.02-.15-.09-.2Zm-13.1.02c-.28-.12-.24-.35-.19-.58.22-1.16.43-2.32.66-3.5-.37,0-.71,0-1.06,0-.17,0-.24.04-.27.22-.17.97-.36,1.93-.54,2.89-.06.34-.22.6-.53.75-.38.19-.73,0-.8-.42-.03-.18.02-.36.05-.53.18-.96.36-1.93.54-2.92-.55,0-1.07,0-1.6,0-.09,0-.15.03-.15.12,0,.07-.03.15.07.19.23.11.23.3.19.51-.07.36-.13.72-.19,1.09-.1.54-.14,1.07.11,1.58.34.73,1.14,1.09,1.83.84.11-.04.28-.28.38.04,0,.01.05.01.08.01.45,0,.91,0,1.36,0,.08,0,.13-.03.14-.11,0-.07.06-.15-.05-.19Zm-11.89,0c-.2-.06-.29-.22-.31-.43-.07-.82-.15-1.64-.23-2.46-.1-1.05-.19-2.11-.29-3.16,0-.11-.01-.21-.17-.21-.72,0-1.44,0-2.16,0-.06,0-.15,0-.13.09.01.07-.02.16.1.21.44.16.45.19.23.61-.89,1.77-1.78,3.54-2.67,5.31-.05.1-.12.19-.13.34.43,0,.85-.01,1.27,0,.19,0,.28-.07.36-.23.38-.79.78-1.57,1.17-2.36.12-.25.3-.4.58-.44.17-.02.24.01.26.21.06.86.14,1.71.21,2.57.01.17.04.26.24.25.53-.01,1.06,0,1.59,0,.07,0,.19.05.19-.09,0-.09,0-.18-.12-.22Zm-2.32-3.21c-.29,0-.58,0-.93,0,.31-.62.6-1.19.9-1.77.02,0,.03,0,.05,0,.04.54.08,1.08.13,1.61,0,.11-.03.15-.14.15Zm-12.74,7.99c.67-.25,1.12-.73,1.32-1.42.3-.99-.31-1.8-1.34-1.81-.53,0-1.06,0-1.59,0-.58,0-1.15,0-1.73,0-.08,0-.17-.02-.19.11-.02.1-.03.18.1.22.21.07.24.24.2.44-.09.44-.19.89-.28,1.33-.3,1.41-.6,2.82-.91,4.23-.04.18-.02.26.19.25.33-.02.66-.01.99,0,.17,0,.24-.04.28-.22.37-1.76.75-3.53,1.12-5.29.14-.64.13-.64.79-.63.68.01,1.09.52.95,1.2-.15.76-.75,1.26-1.54,1.29-.12,0-.25-.02-.2.18.29,1.1.57,2.21.85,3.32.03.12.09.15.2.14.45,0,.91,0,1.36,0,.11,0,.15-.04.17-.14.03-.1.01-.16-.1-.19-.15-.04-.19-.17-.22-.3-.2-.81-.4-1.61-.62-2.41-.05-.19.01-.25.18-.31Zm-2.53-15.95c-1.87,0-3.87,1.85-4,3.72,0,.08,0,.15,0,.23,0,.02,0,.05,0,.07s0,.05,0,.08c0,.02,0,.04,0,.05,0,.02,0,.03,0,.05,0,.03,0,.06,0,.09,0,.02,0,.04,0,.06,0,.01,0,.02,0,.04,0,.01,0,.02,0,.04,0,.03,0,.05.02.08h0s.01.06.02.09c0,.01,0,.03.01.04,0,.01,0,.03.01.04,0,.03.02.06.03.08,0,0,0,0,0,0,.01.04.03.07.04.11,0,.02.01.04.02.05,0,.02.02.03.02.05,0,.02.02.03.02.05.01.02.03.05.04.07.01.02.03.05.04.07,0,.01.02.03.03.04.01.02.02.03.03.05,0,.01.02.02.03.04.01.02.03.04.04.05.01.01.02.03.04.04.05.06.11.12.17.17.01.01.03.03.05.04.02.02.04.03.06.05.02.02.04.03.07.05.02.01.04.03.06.04.02.01.04.02.06.04.02.01.04.02.06.04,0,0,0,0,0,0,.02.01.05.02.07.04s.05.02.08.03c.02.01.05.02.08.03.03.01.06.02.1.03.02,0,.05.01.07.02.02,0,.05.01.08.02.01,0,.02,0,.03,0,.01,0,.02,0,.03,0,.03,0,.06.01.09.02.02,0,.05,0,.07,0,.03,0,.07,0,.1.01.08,0,.15,0,.23,0,.01,0,.03,0,.04,0,.03,0,.06,0,.09,0,.01,0,.03,0,.04,0,0,0,0,0,0,0t0,0s0,0,0,0c0,0,0,0,0,0,0,0,0,0,.01,0,.02,0,.04,0,.06,0,.03,0,.06,0,.09,0,.03,0,.07,0,.1-.01.02,0,.05,0,.07-.01.02,0,.04,0,.05,0,.03,0,.05,0,.08-.01.03,0,.06-.01.09-.02.03,0,.05-.01.08-.02.03,0,.05-.01.08-.02.02,0,.03,0,.05-.01.05-.01.1-.03.15-.05.02,0,.05-.02.07-.03.02,0,.03-.01.05-.02s.03-.01.05-.02c.02,0,.04-.02.06-.03.04-.02.08-.04.12-.06.02,0,.04-.02.06-.03.02-.01.04-.02.06-.03,1.35-.75,2.26-1.83,2.4-3.42.11-1.27-.76-2.2-2.03-2.2Zm9.94-2.93c-.49-.19-1.01-.26-1.53-.19-.44.06-.8.28-.98.72-.14.34-.33.66-.52.97-1.2,1.95-2.37,3.92-3.82,5.7-.9,1.1-1.87,2.13-3.11,2.88-1.83,1.11-3.53.98-5.2-.36-.77-.61-1.27-1.41-1.73-2.25-.25-.45-.46-.93-.7-1.39-.11-.2-.19-.44-.45-.52-.53-.18-1.07-.27-1.62-.18-.96.17-1.12.38-.82,1.31.01.04.03.09.05.13.57,1.41,1.42,2.62,2.6,3.59,1.12.93,2.41,1.56,3.88,1.95-.7.37-1.37.64-2.06.87-2.34.76-4.75,1.15-7.21,1.25-.45.02-.88.1-1.29.29-.39.18-.45.64-.13.93.15.14.33.22.53.27.33.08.67.11,1.01.11,1.5,0,2.98-.21,4.45-.45,3.85-.63,7.37-2.08,10.55-4.33,2.67-1.88,4.81-4.28,6.65-6.96.72-1.05,1.36-2.16,1.9-3.32.25-.53.11-.83-.43-1.04Zm8.32,18.03c.03-.16,0-.2-.15-.2-.34,0-.68,0-1.02,0-.4,0-.8-.05-1.19.05-1.28.31-2.16,1.75-1.88,3.04.21.98,1.2,1.67,2.22,1.1.02.02.03.03.05.05,0,.08,0,.14.12.14.44,0,.89,0,1.33,0,.07,0,.13-.02.15-.1.01-.07.06-.16-.03-.2-.3-.13-.24-.36-.2-.6.2-1.1.4-2.19.61-3.29Zm-1.39.63c-.13.74-.27,1.48-.4,2.22-.05.25-.13.49-.33.67-.22.21-.51.27-.72.16-.22-.11-.33-.38-.28-.68.07-.44.16-.87.24-1.31.04-.2.07-.41.11-.61.13-.62.42-.85,1.04-.85.41,0,.42,0,.35.39Zm-26.37-17.67c-.07-.08-.11-.03-.17,0-.14.11-.29.21-.43.32-.09.07-.14.08-.22-.02-.35-.42-.36-.42.08-.74.02-.01.03-.02.05-.03.06-.05.17-.08.09-.19-.08-.12-.14-.02-.21.02-.05.03-.09.07-.14.1-.34.25-.33.25-.58-.1-.09-.12-.08-.19.05-.26.14-.08.26-.19.39-.28.06-.04.09-.09.04-.17-.05-.07-.1-.05-.17-.01-.05.03-.09.08-.14.11,0,0-.01,0-.02.01h0s-.02,0-.03.01c-.02,0-.04,0-.06,0,0,0-.01,0-.02,0,0,0,0,0,0,0,0,0,0,0,0,0,0,0,0,0,0,0,0,0,0,0,0,0,0,0,0-.01,0-.02,0,0,0,0,0-.01,0,0,0,0,0,0,0,0,0-.01,0-.02,0,0,0-.01,0-.02,0,0,0-.01,0-.02,0,0,0-.01,0-.02,0,0,0,0,0,0,0,0,0-.02,0-.03,0,0,0,0,0-.01,0,0,0-.02,0-.03,0-.05.02-.09.03-.14,0,0,0-.02,0-.03,0,0,0-.01,0-.02,0,0,0-.02,0-.02,0-.01,0-.03,0-.04-.06.04-.13.06-.17.11-.11.12-.08.35.05.41,0,.16-.17.18-.26.26-.09.07-.11.12-.04.22.33.44.65.88.97,1.32.06.08.11.11.2.04.22-.17.44-.33.66-.49.07-.05.11-.1.04-.18Z"/>
    <path class="cls-23" d="m91.7,30.26c-1.47-.39-2.75-1.02-3.88-1.95-1.17-.97-2.03-2.18-2.6-3.59-.02-.04-.03-.09-.05-.13-.3-.94-.14-1.14.82-1.31.55-.1,1.09,0,1.62.18.26.09.34.32.45.52.24.46.45.93.7,1.39.46.84.97,1.64,1.73,2.25,1.67,1.33,3.37,1.46,5.2.36,1.23-.74,2.21-1.77,3.11-2.88,1.45-1.78,2.62-3.75,3.82-5.7.19-.31.38-.63.52-.97.18-.44.54-.66.98-.72.52-.07,1.04,0,1.53.19.55.21.68.51.43,1.04-.54,1.16-1.18,2.26-1.9,3.32-1.84,2.68-3.98,5.08-6.65,6.96-3.18,2.24-6.7,3.69-10.55,4.33-1.47.24-2.95.44-4.45.45-.34,0-.68-.03-1.01-.11-.2-.05-.37-.13-.53-.27-.32-.29-.26-.75.13-.93.41-.19.84-.27,1.29-.29,2.46-.1,4.87-.49,7.21-1.25.69-.23,1.36-.5,2.06-.87Z"/>
    <path class="cls-27" d="m93.79,26.85c-1.33,0-2.16-.92-2.06-2.31.14-1.87,2.13-3.73,4-3.72,1.27,0,2.14.93,2.03,2.2-.14,1.59-1.05,2.67-2.4,3.42-.48.27-1.01.42-1.57.41Z"/>
    <path class="cls-28" d="m96.66,33.54c.53,0,1.06,0,1.59,0,1.03.01,1.63.82,1.34,1.81-.21.69-.65,1.16-1.32,1.42-.17.06-.23.12-.18.31.22.8.42,1.61.62,2.41.03.13.08.26.22.3.11.03.12.09.1.19-.03.1-.07.14-.17.14-.45,0-.91,0-1.36,0-.11,0-.17-.03-.2-.14-.28-1.11-.56-2.21-.85-3.32-.05-.21.08-.18.2-.18.79-.03,1.39-.54,1.54-1.29.13-.68-.27-1.19-.95-1.2-.66-.01-.65-.01-.79.63-.37,1.76-.76,3.52-1.12,5.29-.04.18-.11.22-.28.22-.33-.01-.66-.02-.99,0-.21.01-.23-.06-.19-.25.31-1.41.6-2.82.91-4.23.09-.44.19-.89.28-1.33.04-.2,0-.37-.2-.44-.13-.04-.12-.12-.1-.22.02-.12.11-.11.19-.11.58,0,1.15,0,1.73,0Z"/>
    <path class="cls-28" d="m113.32,31.98c-.2-.06-.29-.22-.31-.43-.07-.82-.15-1.64-.23-2.46-.1-1.05-.19-2.11-.29-3.16,0-.11-.01-.21-.17-.21-.72,0-1.44,0-2.16,0-.06,0-.15,0-.13.09.01.07-.02.16.1.21.44.16.45.19.23.61-.89,1.77-1.78,3.54-2.67,5.31-.05.1-.12.19-.13.34.43,0,.85-.01,1.27,0,.19,0,.28-.07.36-.23.38-.79.78-1.57,1.17-2.36.12-.25.3-.4.58-.44.17-.02.24.01.26.21.06.86.14,1.71.21,2.57.01.17.04.26.24.25.53-.01,1.06,0,1.59,0,.07,0,.19.05.19-.09,0-.09,0-.18-.12-.22Zm-2.32-3.21c-.29,0-.58,0-.93,0,.31-.62.6-1.19.9-1.77.02,0,.03,0,.05,0,.04.54.08,1.08.13,1.61,0,.11-.03.15-.14.15Z"/>
    <path class="cls-28" d="m123.06,27.91c-.18.99-.36,1.95-.54,2.92-.03.18-.08.35-.05.53.07.42.42.61.8.42.31-.15.47-.42.53-.75.18-.96.37-1.93.54-2.89.03-.18.1-.23.27-.22.35.01.7,0,1.06,0-.22,1.19-.44,2.34-.66,3.5-.04.23-.09.46.19.58.11.04.05.12.05.19,0,.08-.06.11-.14.11-.45,0-.91,0-1.36,0-.03,0-.08,0-.08-.01-.1-.32-.27-.08-.38-.04-.69.24-1.49-.12-1.83-.84-.24-.51-.2-1.05-.11-1.58.07-.36.12-.73.19-1.09.04-.21.04-.4-.19-.51-.1-.04-.07-.12-.07-.19,0-.1.07-.12.15-.12.53,0,1.06,0,1.6,0Z"/>
    <path class="cls-28" d="m137.54,32.29c-.19,0-.38-.01-.57,0-.2.02-.26-.04-.22-.25.18-.95.35-1.89.53-2.84.08-.41-.04-.72-.31-.83-.28-.11-.64.02-.86.33-.26.35-.24.79-.32,1.19-.15.73-.28,1.47-.4,2.2-.03.16-.09.2-.24.2-.26,0-.53-.01-.79,0-.2.01-.24-.06-.21-.24.2-1.06.4-2.11.59-3.17.05-.25.15-.53-.2-.68-.09-.04-.03-.11-.02-.17,0-.07.03-.12.12-.12.48,0,.97-.05,1.44.03.19.03.3,0,.45-.05.77-.28,1.65.3,1.87,1.2.12.52,0,1.01-.08,1.51-.06.32-.11.63-.17.95-.04.19,0,.35.18.43.11.05.1.11.09.2-.01.12-.09.12-.18.12-.23,0-.45,0-.68,0Z"/>
    <path class="cls-25" d="m133.61,28.12c.03-.16,0-.22-.18-.21-.52.01-1.04.03-1.56,0-1.44-.09-2.65,1.28-2.55,2.78.08,1.27,1.02,1.87,2.2,1.45.05-.02.12-.07.12.03,0,.17.11.12.19.12.2,0,.4,0,.6,0,.22,0,.43,0,.65,0,.06,0,.14.01.15-.09,0-.07.08-.16-.02-.2-.36-.16-.23-.45-.18-.71.19-1.06.39-2.12.59-3.17Zm-1.35.39c-.16.89-.33,1.78-.5,2.67-.04.21-.17.38-.34.51-.2.16-.42.22-.66.1-.23-.12-.29-.33-.3-.58.14-.75.26-1.5.44-2.24.13-.53.78-.81,1.29-.61.1.04.07.1.06.16Z"/>
    <path class="cls-28" d="m114,35.92c.03-.16,0-.2-.15-.2-.34,0-.68,0-1.02,0-.4,0-.8-.05-1.19.05-1.28.31-2.16,1.75-1.88,3.04.21.98,1.2,1.67,2.22,1.1.02,0,.04-.02.06-.02,0,.02,0,.05,0,.07,0,.08,0,.14.12.14.44,0,.89,0,1.33,0,.07,0,.13-.02.15-.1.01-.07.06-.16-.03-.2-.3-.13-.24-.36-.2-.6.2-1.1.4-2.19.61-3.29Zm-1.39.63c-.13.74-.27,1.48-.4,2.22-.05.25-.13.49-.33.67-.22.21-.51.27-.72.16-.22-.11-.33-.38-.28-.68.07-.44.16-.87.24-1.31.04-.2.07-.41.11-.61.13-.62.42-.85,1.04-.85.41,0,.42,0,.35.39Z"/>
    <path class="cls-25" d="m122.29,35.74c-.89-.27-1.68-.09-2.34.59-.53.54-.81,1.2-.84,1.96-.04.96.54,1.71,1.4,1.81.29.03.59,0,.88,0h0c.25,0,.49-.01.74.01.27.03.3-.14.3-.32,0-.21-.19-.1-.28-.11-.47-.02-.95,0-1.42-.02-.33-.02-.52-.3-.49-.67q.03-.43.49-.43c.13,0,.27,0,.4,0,.79-.06,1.49-.29,1.9-1.04.43-.77.11-1.54-.73-1.79Zm-.96,2.32c-.17.11-.36.1-.55.1-.08,0-.15,0-.23,0-.13,0-.17-.04-.14-.17.07-.36.13-.72.22-1.08.07-.31.23-.58.51-.75.31-.19.63-.07.75.28.17.5-.12,1.33-.56,1.62Z"/>
    <path class="cls-25" d="m102.96,35.8c-.82-.31-1.6-.23-2.29.34-.64.53-.97,1.22-1.04,2.04-.08,1.01.49,1.8,1.37,1.91.3.04.6,0,.91,0h0c.28.01.57.01.85.01.24,0,.15-.21.18-.32.04-.15-.1-.1-.17-.1-.42,0-.83,0-1.25,0-.63,0-.86-.3-.73-.92.04-.17.11-.21.26-.2.33.01.66.02.99-.05.72-.14,1.3-.46,1.59-1.17.27-.66,0-1.3-.66-1.55Zm-1.11,2.26c-.07.05-.15.07-.23.09,0,0-.02,0-.02,0-.04,0-.08.01-.12.01-.02,0-.03,0-.05,0-.01,0-.02,0-.03,0-.03,0-.06,0-.09,0-.02,0-.04,0-.06,0h-.01s-.06,0-.09,0c-.01,0-.03,0-.04,0-.15.01-.21-.04-.18-.19.08-.37.13-.74.23-1.11.07-.28.22-.52.47-.68.33-.21.66-.09.78.28.16.49-.13,1.31-.56,1.6Z"/>
    <path class="cls-28" d="m145.87,27.99c-.48-.2-.99-.24-1.5-.09-1.21.34-2.08,1.86-1.8,3.1.2.85.74,1.29,1.61,1.29.19,0,.38,0,.57,0,.29,0,.59,0,.88,0,.23,0,.18-.18.2-.3.02-.17-.12-.1-.2-.11-.46,0-.93,0-1.39,0-.25,0-.44-.1-.54-.33-.09-.2-.05-.41-.02-.61.02-.13.07-.19.22-.19.24.01.49,0,.74,0,.9-.04,1.64-.54,1.89-1.25.23-.65-.03-1.25-.67-1.51Zm-1.03,2.18c-.3.29-.67.14-1.05.18.08-.43.14-.84.24-1.24.07-.3.22-.56.49-.74.34-.23.73-.08.8.33.09.56-.06,1.06-.47,1.47Z"/>
    <path class="cls-25" d="m106.61,24.4c-.24,1.09-.48,2.17-.72,3.26-.26,1.18-.52,2.36-.78,3.54-.09.43.06.69.48.81.11.03.17.06.13.19-.03.1-.03.22-.2.2-1.12-.08-1.77-.91-1.54-1.85.24-.98.44-1.97.66-2.96.03-.16.07-.32-.1-.4-.28-.13-.12-.27-.02-.39.38-.47.78-.93,1.17-1.39.29-.34.58-.69.88-1.03.02,0,.03.02.05.03Z"/>
    <path class="cls-28" d="m118.81,33.55c-.12.69-.23,1.32-.35,1.95-.04.2.02.26.21.24.1-.01.21-.02.31,0,.09.02.27-.1.26.09,0,.16,0,.35-.28.34-.61-.02-.61,0-.72.62-.12.66-.25,1.32-.37,1.98-.09.5.07.81.53.98.21.08.06.2.07.3.01.14-.08.16-.21.15-.83-.06-1.51-.75-1.55-1.6-.03-.62.17-1.21.25-1.82.04-.28.21-.6-.2-.78-.07-.03,0-.12,0-.18.01-.1.09-.09.15-.08.23.04.26-.1.29-.27.06-.35.13-.71.18-1.06.02-.14.08-.23.22-.29.39-.17.77-.36,1.2-.56Z"/>
    <path class="cls-28" d="m106.29,33.55c-.12.67-.21,1.28-.34,1.88-.06.27.01.34.27.31.07-.01.16-.02.23,0,.1.03.28-.1.27.12,0,.16-.02.32-.28.32-.63-.01-.63,0-.74.64-.12.68-.25,1.35-.36,2.03-.08.45.09.75.53.9.18.06.11.16.09.26-.02.11-.03.21-.2.19-.98-.06-1.71-.99-1.56-2.01.08-.53.18-1.06.28-1.59.04-.23.08-.46-.2-.58-.09-.04-.06-.11-.05-.17,0-.09.07-.13.16-.12.24.04.28-.1.3-.29,0-.12.06-.24.06-.36,0-.68.32-1.09.98-1.27.18-.05.34-.15.57-.26Z"/>
    <path class="cls-26" d="m114.65,32.29c-.16,0-.32,0-.48,0-.08,0-.25.08-.21-.11.02-.13-.04-.35.23-.34.18.01.36,0,.54,0,.36-.03.59-.24.71-.56.11-.31.02-.57-.25-.78-.12-.09-.22-.2-.34-.3-.66-.6-.62-1.51.1-2.02.64-.45,1.36-.54,2.11-.32.16.05.24.12.18.31-.06.19-.08.39-.11.58-.02.1-.06.15-.17.14-.12,0-.1-.07-.11-.15,0-.25-.08-.47-.37-.53-.26-.05-.55.1-.68.36-.11.24-.16.49.06.7.17.16.35.32.53.48.56.52.62,1.22.16,1.83-.34.44-.8.65-1.34.71-.19.02-.38,0-.57,0,0,0,0,0,0,.01Z"/>
    <path class="cls-25" d="m117.41,32.29c.07-.51,0-.44.48-.44.62,0,.94-.21,1.04-.66.05-.24,0-.45-.19-.62-.17-.15-.34-.3-.5-.46-.49-.48-.51-1.23-.05-1.74.53-.57,1.68-.82,2.4-.51.09.04.17.08.14.2-.05.22-.09.44-.13.67-.02.1-.06.14-.17.14-.12,0-.1-.08-.1-.16-.01-.25-.09-.47-.38-.53-.26-.05-.55.1-.68.37-.11.24-.16.49.07.7.18.17.37.33.55.5.5.47.59,1.07.23,1.67-.25.42-.63.67-1.1.79-.53.13-1.07.06-1.61.07Z"/>
    <path class="cls-28" d="m128.16,28.17c.5-.33.98-.43,1.51-.31.16.04.23.07.15.25-.14.28-.26.57-.37.86-.05.12-.12.15-.24.15-.16,0-.11-.11-.12-.2-.06-.38-.38-.53-.72-.35-.28.15-.37.42-.42.7-.17.93-.35,1.86-.5,2.79-.03.2-.11.25-.29.24-.26-.01-.53-.01-.79,0-.17,0-.22-.03-.19-.22.21-1.1.4-2.21.61-3.32.04-.21.07-.42-.18-.53-.11-.05-.07-.14-.06-.22.01-.1.09-.1.17-.1.43,0,.85,0,1.28,0,.17,0,.21.06.17.26Z"/>
    <path class="cls-28" d="m107.75,35.73c.2,0,.4,0,.6,0,.09,0,.22-.06.23.14,0,.11.12,0,.17-.02.41-.24.85-.28,1.31-.19.18.04.21.1.13.27-.13.27-.24.55-.36.83-.04.1-.09.17-.22.17-.16,0-.12-.11-.13-.2-.09-.43-.46-.57-.81-.3-.18.14-.27.33-.31.55-.17.95-.35,1.89-.51,2.84-.04.21-.1.31-.34.29-.26-.02-.53-.01-.79,0-.17,0-.19-.06-.16-.2.2-1.06.39-2.11.58-3.17.05-.27.19-.57-.2-.73-.08-.03,0-.12,0-.18,0-.09.06-.1.13-.1.23,0,.45,0,.68,0Z"/>
    <path class="cls-26" d="m141.08,32.29c-1.27,0-1.94-.75-1.8-2.02.1-.89.5-1.62,1.25-2.12.52-.35,1.1-.43,1.7-.22.18.06.29.15.21.38-.06.21-.08.43-.11.64-.02.13-.08.16-.21.16-.14,0-.14-.08-.14-.18,0-.25-.08-.48-.35-.56-.28-.09-.49.05-.67.25-.23.25-.24.57-.3.87-.1.52-.18,1.04-.27,1.56-.1.55.13.83.68.83.16,0,.32-.01.48,0,.09,0,.25-.09.24.12-.01.15,0,.31-.24.29-.16-.02-.32,0-.48,0Z"/>
    <path class="cls-28" d="m114.77,40.12c-.2,0-.47.05-.57-.05-.11-.11.03-.37.06-.56.18-.98.36-1.97.54-2.95.04-.22.06-.42-.18-.53-.11-.05-.07-.12-.06-.19,0-.08.05-.12.13-.12.46,0,.93,0,1.39,0,.19,0,.12.14.1.22-.17.95-.35,1.89-.52,2.84-.07.35-.15.7-.19,1.06-.03.22-.11.29-.32.27-.12-.01-.25,0-.37,0,0,0,0,0,0,0Z"/>
    <path class="cls-26" d="m115.7,35.01q-.63,0-.51-.61c.06-.28.03-.65.2-.8.19-.17.56-.04.85-.05.37,0,.37,0,.3.38-.05.29-.12.57-.15.86-.02.18-.08.25-.26.23-.14-.02-.28,0-.43,0Z"/>
    <path class="cls-31" d="m107.99,26.33c-.44,0-.45,0-.36-.45.09-.48.19-.96.27-1.44.02-.15.07-.2.23-.21.69-.02.69-.03.56.65-.07.34-.13.68-.2,1.03-.08.42-.08.42-.49.42Z"/>
    <path class="cls-30" d="m89.26,15.36c-.51,0-.89.39-.88.9,0,.61.44,1.1.95,1.09.5,0,.87-.39.87-.89,0-.61-.43-1.11-.94-1.11Zm.32,1.74c-.27.11-.5.01-.68-.2-.21-.24-.29-.52-.24-.84.07-.43.53-.62.88-.36.27.2.38.48.39.76,0,.32-.09.54-.35.64Z"/>
    <path class="cls-32" d="m82.26,21.42c0-.39-.1-.57-.34-.65-.29-.09-.49.05-.67.26-.08.1-.16.21-.24.32-.07.09-.07.16.03.23.42.33.84.67,1.26,1,.07.06.13.09.21,0,.08-.11,0-.15-.06-.2-.13-.11-.27-.21-.4-.32-.05-.04-.14-.07-.08-.15.12-.16.24-.33.48-.25.13.05.26.1.39.17.17.09.28.07.34-.15-.31-.08-.57-.34-.94-.26Zm-.2-.02c-.06.15-.11.35-.32.39-.08.02-.48-.38-.47-.44.02-.15.31-.37.46-.36.18.01.35.21.32.41Z"/>
    <path class="cls-30" d="m78.32,26.39c-.11-.05-.12.17-.22.03-.1-.14-.23-.28-.05-.49.07.15.14.29.21.45.14-.06.13-.2.17-.31.04-.09.08-.12.17-.09.1.03.06.1.04.16-.03.09-.06.18-.09.27-.03.11-.16.27-.08.33.12.1.3.14.47.19.1.03.1-.07.12-.12.05-.14.09-.29.14-.43.02-.06.04-.13.13-.11.1.03.09.1.07.18-.01.04-.03.07-.04.11-.16.48-.15.47.34.63.13.04.19.03.22-.1.04-.16.11-.32.16-.48.02-.07.04-.15.15-.12.11.03.09.1.06.18-.09.25-.18.5-.25.75-.04.13-.1.14-.21.1-.51-.17-1.02-.34-1.53-.51-.12-.04-.17-.09-.11-.22.05-.12.08-.25.12-.38Z"/>
    <path class="cls-32" d="m81.16,24.13c-.18,0-.33-.07-.48-.16-.28-.17-.56-.35-.84-.52-.07-.05-.18-.07-.1-.21.08-.13.15-.07.23-.02.24.15.48.3.72.45.1.06.2.11.3.16.23.1.43.06.57-.16.14-.22.08-.43-.11-.58-.23-.18-.49-.33-.73-.49-.1-.07-.21-.13-.31-.19-.07-.04-.09-.08-.04-.16.05-.07.09-.12.18-.06.36.24.76.42,1.09.72.24.22.29.48.16.77-.13.29-.36.46-.63.45Z"/>
    <path class="cls-32" d="m95.02,16.09c-.22-.55-.45-1.1-.68-1.65-.04-.11-.11-.11-.2-.11-.09,0-.16.01-.19.12-.15.57-.31,1.15-.47,1.73,0,.04-.05.11.04.13.07.01.16.02.2-.07.03-.08.06-.16.07-.24.03-.25.15-.33.41-.35.29-.03.45.04.51.33.01.07.05.14.09.21.05.08.14.04.21.03.1-.02.04-.09.02-.13Zm-.87-.61c-.2.01-.24-.04-.18-.23.07-.19.1-.4.17-.65.09.21.16.38.23.56.13.31.13.3-.22.33Z"/>
    <path class="cls-30" d="m97.49,14.44c.27.04.5.07.73.11.07.01.16.01.14.13-.02.12-.09.09-.17.08-.08-.01-.17-.02-.25-.03-.4-.07-.39-.06-.44.33-.03.18.03.24.2.25.13.01.26.04.39.05.08,0,.12.04.11.12-.01.09-.07.1-.14.09-.05,0-.09-.02-.14-.03-.48-.06-.47-.06-.55.41-.03.16.01.22.17.24.17.02.34.05.5.07.09.01.14.04.12.14-.02.1-.08.09-.15.08-.14-.02-.28-.04-.42-.07q-.54-.09-.46-.64c.06-.38.11-.76.17-1.15.02-.14.05-.25.19-.19Z"/>
    <path class="cls-32" d="m84.74,17.64c.13.04.19-.08.27-.13.07-.04.11-.06.17.01.05.07.03.12-.04.17-.13.09-.25.2-.39.28-.12.08-.14.14-.05.26.25.35.24.35.58.1.05-.03.09-.07.14-.1.06-.04.13-.14.21-.02.07.11-.03.14-.09.19-.01.01-.03.02-.05.03-.44.33-.43.32-.08.74.09.1.14.09.22.02.14-.11.29-.21.43-.32.05-.04.1-.09.17,0,.07.08.03.13-.04.18-.22.16-.45.32-.66.49-.09.07-.14.04-.2-.04-.32-.44-.64-.88-.97-1.32-.08-.1-.05-.15.04-.22.09-.08.25-.1.26-.26,0,0,0,0,0,0,.08.05.09,0,.09-.06h0Z"/>
    <path class="cls-32" d="m91.48,16.69c-.5,0-.84-.35-.92-.93-.06-.5.26-.94.78-1.06.11-.03.22-.03.34-.04.07,0,.13.01.13.11,0,.08-.04.11-.13.11-.08,0-.17,0-.25.03-.47.1-.69.46-.57.93.12.5.47.72.95.59.03,0,.05-.03.08-.03.11.01.22-.22.3-.03.09.21-.16.18-.26.24-.13.07-.29.08-.44.08Z"/>
    <path class="cls-33" d="m80.05,25.84c-.4-.04-.75-.2-.95-.61-.19-.39-.08-.75.16-1.09.04-.06.07-.17.19-.1.13.08.04.15-.02.22-.18.25-.28.52-.13.82.16.32.45.45.78.48.33.03.6-.23.73-.63.02-.07-.03-.22.13-.19.17.04.09.16.06.25-.13.53-.48.85-.96.84Z"/>
    <path class="cls-33" d="m87.51,17.02c.14-.01.28-.03.42.02.34.13.45.56.21.84-.16.2-.39.29-.64.33-.09.01-.14,0-.15-.11-.01-.1.05-.11.12-.11.15,0,.28-.05.39-.14.12-.09.2-.2.15-.36-.05-.15-.16-.23-.31-.24-.15,0-.3.02-.45.01-.24,0-.42-.11-.49-.35-.07-.23.02-.43.2-.58.13-.1.27-.16.43-.2.07-.02.13-.01.15.08.01.08-.01.12-.1.13-.09.02-.18.05-.26.09-.13.07-.23.18-.2.34.04.17.17.23.34.23.07,0,.13,0,.2,0Z"/>
    <path class="cls-32" d="m79.74,28.55c-.02.18-.06.36-.16.51-.04.07-.08.16-.19.1-.12-.07-.05-.13,0-.2.07-.12.13-.25.13-.4,0-.14-.05-.26-.19-.31-.14-.06-.26-.03-.36.08-.1.1-.17.22-.26.33-.2.23-.43.29-.65.17-.25-.14-.32-.37-.27-.63.02-.12.08-.23.12-.34.03-.07.08-.1.16-.05.07.04.08.09.03.16-.06.09-.1.2-.11.32-.01.13.02.25.15.31.13.07.26.04.36-.07.1-.11.18-.24.28-.35.17-.2.39-.26.64-.15.24.1.32.3.33.54Z"/>
    <path class="cls-32" d="m84.64,20.22c0,.09-.05.11-.09.15-.09.08-.13-.02-.18-.07-.29-.31-.58-.62-.85-.95-.13-.16-.23-.22-.39-.04-.07.08-.16.28-.3.14-.16-.18.09-.22.17-.3.22-.22.46-.42.69-.63.06-.05.11-.13.2-.03.08.1,0,.13-.05.18q-.3.32,0,.65c.23.26.47.52.7.78.04.04.07.08.1.12Z"/>
    <path class="cls-30" d="m95.6,15.3c0-.27,0-.55,0-.82,0-.1.02-.19.16-.18.13.01.11.1.11.18-.02.45-.03.9-.06,1.36-.01.16.04.22.2.21.16,0,.32,0,.48.02.07,0,.13.02.13.11,0,.09-.06.1-.13.1-.02,0-.04,0-.06,0-.29-.03-.7.11-.85-.1-.14-.2-.03-.58-.03-.88.02,0,.04,0,.06,0Z"/>
    <path class="cls-32" d="m92.97,16.28c.02.1-.03.13-.12.15-.11.02-.13-.05-.14-.13-.08-.54-.16-1.08-.24-1.63-.01-.09-.01-.16.11-.18.11-.01.13.04.14.12.08.55.17,1.1.25,1.65Z"/>
    <path class="cls-32" d="m82.34,19.82c.05.04.1.08.14.12.38.36.76.71,1.13,1.07.06.06.17.11.06.23-.12.13-.18.01-.24-.05-.38-.35-.76-.71-1.13-1.07-.05-.04-.15-.08-.08-.18.03-.04.08-.07.12-.12Z"/>
    <path class="cls-30" d="m84.65,17.7s0,0,0,0c-.13-.05-.17-.28-.05-.41.04-.05.11-.07.17-.11.02.16-.09.3-.03.45h0c-.05-.02-.07.02-.09.06Z"/>
    <path class="cls-29" d="m111.97,39.93s.04-.02.06-.03c0,.02,0,.05,0,.07-.02-.02-.03-.03-.05-.05Z"/>
    <path class="cls-24" d="m101.3,38.17s.06,0,.09,0c-.03,0-.06,0-.09,0-.02,0-.04,0-.06,0,.02,0,.04,0,.06,0Z"/>
    <path class="cls-29" d="m84.65,17.7s.04-.08.09-.06c0,.07-.01.11-.09.06Z"/>
  </g>
  <rect class="cls-22" x="5.79" y="41.64" width="24.75" height="71.47"/>
  <rect class="cls-21" x="7.67" y="43.6" width="20.97" height="20.97"/>
  <rect class="cls-21" x="7.67" y="67.06" width="20.97" height="20.97"/>
  <rect class="cls-22" x="7.67" y="91.35" width="20.97" height="9.03"/>
  <rect class="cls-21" x="14.05" y="95.18" width="8.23" height="1.37"/>
  <g>
    <rect class="cls-22" x="5.79" y="113.11" width="6.54" height="2.13"/>
    <rect class="cls-22" x="23.99" y="113.11" width="6.54" height="2.13"/>
  </g>
  <rect class="cls-13" x="12.38" y="80.05" width="11.57" height="3.84"/>
  <rect class="cls-7" x="12.38" y="83.89" width="11.57" height="3.84"/>
  <rect class="cls-13" x="12.38" y="72.29" width="11.57" height="3.84"/>
  <rect class="cls-7" x="12.38" y="76.13" width="11.57" height="3.84"/>
  <rect class="cls-3" x="12.38" y="56.57" width="11.57" height="3.84"/>
  <rect class="cls-9" x="12.38" y="60.41" width="11.57" height="3.84"/>
  <rect class="cls-3" x="12.38" y="48.67" width="11.57" height="3.84"/>
  <rect class="cls-9" x="12.38" y="52.51" width="11.57" height="3.84"/>
  <path class="cls-6" d="m53.26,65.33h42.85c1.14,0,2.07.93,2.07,2.07v29.06c0,1.14-.93,2.07-2.07,2.07h-42.85c-1.15,0-2.08-.93-2.08-2.08v-29.05c0-1.15.93-2.08,2.08-2.08Z"/>
  <path class="cls-6" d="m145.12,67.4v29.06c0,1.15-.93,2.07-2.07,2.07h-42.85c-1.15,0-2.08-.93-2.08-2.07v-29.06c0-1.15.93-2.08,2.08-2.08h42.85c.13,0,.25.01.37.03.97.18,1.7,1.02,1.7,2.04Z"/>
  <rect class="cls-6" x="51.18" y="92.19" width="93.53" height="17.22"/>
  <rect class="cls-9" x="59.32" y="91.42" width="78" height="1.94"/>
  <path class="cls-8" d="m61.09,70.5c0,.49-.4.88-.88.88s-.88-.4-.88-.88.4-.88.88-.88.88.4.88.88Z"/>
  <path class="cls-8" d="m90.06,70.5c0,.49-.4.88-.88.88s-.88-.4-.88-.88.4-.88.88-.88.88.4.88.88Z"/>
  <path class="cls-8" d="m138.21,70.5c0,.49-.4.88-.88.88s-.88-.4-.88-.88.4-.88.88-.88.88.4.88.88Z"/>
  <path class="cls-8" d="m106.89,70.5c0,.49-.4.88-.88.88s-.88-.4-.88-.88.4-.88.88-.88.88.4.88.88Z"/>
  <path class="cls-8" d="m90.06,87.96c0,.49-.4.88-.88.88s-.88-.4-.88-.88.4-.88.88-.88.88.4.88.88Z"/>
  <path class="cls-8" d="m134.43,87.96c0,.49-.4.88-.88.88s-.88-.4-.88-.88.4-.88.88-.88.88.4.88.88Z"/>
  <path class="cls-8" d="m106.89,87.96c0,.49-.4.88-.88.88s-.88-.4-.88-.88.4-.88.88-.88.88.4.88.88Z"/>
  <path class="cls-8" d="m66.45,87.96c0,.49-.4.88-.88.88s-.88-.4-.88-.88.4-.88.88-.88.88.4.88.88Z"/>
  <path class="cls-8" d="m75.92,78.48c0,.49-.4.88-.88.88s-.88-.4-.88-.88.4-.88.88-.88.88.4.88.88Z"/>
  <path class="cls-8" d="m122.5,78.48c0,.49-.4.88-.88.88s-.88-.4-.88-.88.4-.88.88-.88.88.4.88.88Z"/>
  <path class="cls-2" d="m58.31,105.83c0,1.12-5.26,2.04-11.75,2.04s-11.76-.92-11.76-2.04,4.87-1.97,11.01-2.03V19.32h2.18v84.49c5.81.12,10.32.97,10.32,2.02Z"/>
  <polygon class="cls-13" points="41.92 12.76 32.89 36.13 60.91 36.13 52.51 12.76 41.92 12.76"/>
  <rect class="cls-10" x="41.02" y="36.13" width=".25" height="12.72"/>
  <ellipse class="cls-2" cx="41.07" cy="49.37" rx=".69" ry="1.02"/>
  <path class="cls-9" d="m59.32,85.32v22.54c0,2.22-1.8,4.01-4.01,4.01h-6.76c-2.22,0-4.01-1.8-4.01-4.01v-22.54c0-2.22,1.8-4.01,4.01-4.01h6.76c.26,0,.52.03.77.07,1.85.36,3.24,1.98,3.24,3.94Z"/>
  <rect class="cls-9" x="137.32" y="81.31" width="14.79" height="30.57" rx="4.01" ry="4.01"/>
  <path class="cls-20" d="m78.77,84.33s0-.04-.01-.06c-.03-.15-.06-.3-.09-.45,0-.04-.02-.08-.02-.12-.03-.17-.06-.33-.09-.49,0-.03-.01-.06-.02-.09-.02-.13-.04-.26-.06-.38,0-.05-.01-.09-.02-.14-.02-.15-.04-.3-.06-.44-.22-2.52.1-7.04-.42-7.31-.41-.22-.81.31-2.06.09-3.7-.64-6.38-.51-6.85-.41-.47,0-3.13.44-6.61,1.83-.13.05-.26.09-.38.13-.04.01-.07.02-.11.03-.08.02-.15.03-.22.05-.04,0-.07.01-.1.02-.07,0-.14.01-.2.02-.02,0-.05,0-.07,0-.45.01-.73-.08-.95.1-.45.37.81,4.73,1.12,7.24.22,2.52-.1,7.04.42,7.31.41.22.81-.31,2.06-.09,3.7.64,6.37.38,6.83.28.47,0,3.14-.31,6.62-1.7,1.18-.47,1.68-.04,2.03-.34.15-.13.1-.72-.03-1.53,0-.03,0-.05-.01-.08-.17-.97-.45-2.24-.7-3.46Z"/>
  <path class="cls-20" d="m133.36,76.74c-.23-.17-.5-.07-.95-.07-.02,0-.05,0-.07,0-.06,0-.13,0-.2,0-.03,0-.07,0-.11-.01-.07,0-.15-.02-.23-.04-.04,0-.07-.01-.11-.02-.12-.03-.24-.06-.38-.11-3.53-1.27-6.2-1.61-6.67-1.6-.46-.08-3.15-.11-6.83.65-1.24.26-1.66-.25-2.06-.02-.51.29-.03,4.79-.16,7.32-.01.14-.03.29-.05.44,0,.04-.01.09-.02.13-.02.13-.03.26-.05.39,0,.03,0,.06-.01.08-.02.16-.05.33-.07.5,0,.03,0,.06-.01.09-.03.17-.05.34-.08.51,0,0,0,0,0,0-.38,2.32-.91,4.85-.57,5.12.37.28.85-.16,2.04.27,3.53,1.27,6.21,1.48,6.68,1.47.47.08,3.15.24,6.82-.53,1.24-.26,1.66.25,2.06.02.5-.29.03-4.79.16-7.32.22-2.52,1.32-6.92.86-7.27Z"/>
  <rect class="cls-15" x="-520.49" y="-4551.15" width="2244.45" height="5948.74"/>
</svg>