<?xml version="1.0" encoding="UTF-8"?>
<svg id="Calque_1" data-name="Calque 1" xmlns="http://www.w3.org/2000/svg" viewBox="0 0 200 128">
  <defs>
    <style>
      .cls-1 {
        fill: #d6d6d6;
      }

      .cls-1, .cls-2, .cls-3, .cls-4, .cls-5, .cls-6, .cls-7, .cls-8, .cls-9 {
        stroke: #000;
      }

      .cls-1, .cls-2, .cls-3, .cls-4, .cls-5, .cls-6, .cls-10 {
        stroke-linecap: round;
        stroke-linejoin: round;
      }

      .cls-2, .cls-7 {
        fill: #ff6d75;
      }

      .cls-3 {
        fill: #ffd4ad;
      }

      .cls-4, .cls-6, .cls-8 {
        fill: #fff;
      }

      .cls-5, .cls-10, .cls-11 {
        fill: none;
      }

      .cls-12 {
        fill: #fab0b4;
      }

      .cls-13 {
        fill: #231f20;
      }

      .cls-6 {
        stroke-width: 2px;
      }

      .cls-7, .cls-8, .cls-9, .cls-11 {
        stroke-miterlimit: 10;
      }

      .cls-9 {
        fill: #b2f0e9;
      }

      .cls-10 {
        stroke: #fff;
        stroke-width: 8px;
      }

      .cls-11 {
        stroke: #231f20;
      }
    </style>
  </defs>
  <rect class="cls-1" x="16.96" y="33.19" width="76.65" height="87.26" rx="20.3" ry="20.3"/>
  <circle class="cls-6" cx="32.49" cy="24.12" r="20.78"/>
  <circle class="cls-6" cx="53.28" cy="41.53" r="2.98"/>
  <g>
    <path class="cls-3" d="m24.91,13.44c-.39.35-.75.79-1.07,1.34-.39.68-.68,1.26-.89,1.76-1.06-.08-1.9-.96-1.91-2.04-.01-1.15.9-2.09,2.05-2.1.78,0,1.46.41,1.82,1.04Z"/>
    <path class="cls-3" d="m36.56,14.31c.01,1.08-.8,1.97-1.84,2.09-.23-.5-.53-1.07-.94-1.74-.33-.55-.71-.98-1.11-1.33.35-.63,1.02-1.06,1.79-1.07,1.15-.01,2.09.9,2.1,2.05Z"/>
    <path class="cls-3" d="m21.9,28.44c0,.12,0,.25.01.36h-.11c-.23-.08-.48-.12-.73-.12-.2,0-.4.03-.6.09-.04.01-.08.03-.12.04h-.4s-.84-.3-.71-2.66c.09-1.69,2.94-3.21,4.55-3.94.1.11.2.23.31.34-1.38,1.62-2.23,3.8-2.2,5.87Z"/>
    <path class="cls-3" d="m21.8,28.81l-1.45.02s.08-.03.12-.04c.2-.06.4-.09.6-.09.25,0,.5.04.73.12Z"/>
    <path class="cls-3" d="m38.19,28.6h-.35s-.08-.02-.12-.03c-.2-.06-.4-.08-.6-.08-.25,0-.5.05-.73.14h-.06c0-.12,0-.24,0-.36-.03-2.13-.98-4.36-2.48-5.96.07-.08.15-.17.21-.26,1.6.66,4.63,2.15,4.77,3.88.19,2.36-.65,2.68-.65,2.68Z"/>
    <path class="cls-3" d="m37.84,28.61l-1.45.02c.23-.09.48-.13.73-.14.2,0,.4.02.6.08.04.01.08.02.12.04Z"/>
    <path class="cls-3" d="m26.44,34.11l-3.68,1.38c.98-.43,1.53-1.53,1.24-2.58.69.55,1.51.95,2.43,1.21Z"/>
    <path class="cls-3" d="m35.14,35.07l-2.99-1.03.1-.1h0c.76-.27,1.44-.64,2.02-1.11-.19.87.18,1.74.86,2.24Z"/>
    <path class="cls-3" d="m36.34,28.26c0,.12,0,.25,0,.37,0,0,0,.02,0,.02-.62.25-1.13.77-1.31,1.46l-.38,1.42-.32,1.19s-.02.08-.03.12c-.58.47-1.26.84-2.02,1.11h0c-.93.33-1.96.5-3.06.51-.97.01-1.91-.1-2.76-.34-.92-.26-1.75-.66-2.43-1.21,0-.02-.01-.04-.02-.06l-.46-1.55h0s-.31-1.04-.31-1.04c-.2-.67-.69-1.17-1.3-1.41,0-.02,0-.03,0-.04,0-.12-.01-.24-.01-.36-.03-2.07.82-4.25,2.2-5.87.16.16.33.32.52.46.51.4,1.14.73,1.9.93-1.09,1-1.79,2.54-1.77,4,.03,2.41,2,3.66,4.4,3.63,2.41-.03,4.34-1.33,4.31-3.74-.02-1.49-.78-3.05-1.94-4.02.74-.24,1.33-.61,1.82-1.03.18-.16.35-.33.51-.51,1.5,1.6,2.45,3.83,2.48,5.96Z"/>
    <path class="cls-3" d="m33.47,27.86c.03,2.41-1.9,3.71-4.31,3.74-2.4.03-4.37-1.22-4.4-3.63-.02-1.46.68-3.01,1.77-4,.59.16,1.26.24,2.02.21.14,0,.27-.02.39-.04.12.02.25.02.39.03.85,0,1.58-.12,2.21-.32,1.15.96,1.92,2.53,1.94,4.02Z"/>
    <path class="cls-3" d="m33.47,27.86c.03,2.41-1.9,3.71-4.31,3.74-2.4.03-4.37-1.22-4.4-3.63-.02-1.46.68-3.01,1.77-4,.59.16,1.26.24,2.02.21.14,0,.27-.02.39-.04.12.02.25.02.39.03.85,0,1.58-.12,2.21-.32,1.15.96,1.92,2.53,1.94,4.02Z"/>
    <path class="cls-3" d="m22.76,35.49l-.25.09c-1.16.35-2.39-.32-2.74-1.48l-.77-2.58c-.33-1.12.27-2.3,1.35-2.7l1.45-.02s.08.03.11.04c.6.24,1.1.74,1.3,1.41l.31,1.03h0s.46,1.55.46,1.55c0,.02.01.04.02.06.29,1.05-.26,2.15-1.24,2.58Z"/>
    <path class="cls-3" d="m21.8,28.81l-1.45.02s.08-.03.12-.04c.2-.06.4-.09.6-.09.25,0,.5.04.73.12Z"/>
    <path class="cls-3" d="m39.26,31.27l-.71,2.6c-.32,1.17-1.53,1.86-2.7,1.54-.26-.07-.5-.19-.71-.34-.69-.5-1.05-1.37-.86-2.24,0-.04.02-.08.03-.12l.32-1.19.38-1.42c.19-.69.69-1.22,1.31-1.46.02-.01.04-.02.06-.02l1.45-.02c1.09.37,1.73,1.54,1.42,2.66Z"/>
    <path class="cls-3" d="m37.84,28.61l-1.45.02c.23-.09.48-.13.73-.14.2,0,.4.02.6.08.04.01.08.02.12.04Z"/>
    <path class="cls-3" d="m34.72,16.4c-.23-.5-.53-1.07-.94-1.74-.33-.55-.71-.98-1.11-1.33-1.76-1.52-3.89-1.29-3.89-1.29,0,0-2.14-.18-3.87,1.4-.39.35-.75.79-1.07,1.34-.39.68-.68,1.26-.89,1.76-.74,1.74-.61,2.47-.61,2.47,0,0,.22,1.74,1.44,3.21.1.11.2.23.31.34.16.16.33.32.52.46.51.4,1.14.73,1.9.93.59.16,1.26.24,2.02.21.14,0,.27-.02.39-.04.12.02.25.02.39.03.85,0,1.58-.12,2.21-.32.74-.24,1.33-.61,1.82-1.03.18-.16.35-.33.51-.51.07-.08.15-.17.21-.26,1.15-1.48,1.32-3.19,1.32-3.19,0,0,.11-.74-.67-2.46Zm-5.85,2.71c-.9.01-1.64-.33-1.65-.76s.73-.8,1.63-.81c.9-.01,1.64.33,1.65.77s-.73.79-1.63.81Z"/>
    <path d="m25.83,17.3c0,.34-.26.61-.6.62s-.61-.26-.62-.6.26-.61.6-.61.61.26.61.6Z"/>
    <path d="m33.06,17.21c0,.34-.26.61-.6.62s-.61-.26-.62-.6.26-.61.6-.61.61.26.61.6Z"/>
    <path class="cls-3" d="m30.5,18.3c0,.43-.73.79-1.63.81s-1.64-.33-1.65-.76.73-.8,1.63-.81c.9-.01,1.64.33,1.65.77Z"/>
    <line class="cls-3" x1="28.93" y1="24.14" x2="28.87" y2="19.11"/>
  </g>
  <path class="cls-2" d="m47.82,17.42c0-1.41-1.14-2.55-2.55-2.55-1.03,0-1.92.62-2.32,1.5-.4-.88-1.29-1.5-2.32-1.5-1.41,0-2.55,1.14-2.55,2.55,0,.3.05.58.14.85.11.3.27.58.47.82.09.1.18.2.28.28l3.89,3.87s.06.04.09.04.06-.01.09-.04l4.04-4.01h0c.26-.26.47-.58.6-.94.1-.27.15-.56.15-.86Z"/>
  <g>
    <path class="cls-8" d="m56.31,52.53s.13-.19.37-.42c1.04-.99,3.15-1.23,3.83,1.07.46,1.58-1.55,5.03-1.31,5.72,0,0-5.37-2.73-2.89-6.37Z"/>
    <path class="cls-8" d="m83.37,63.65s.02-.23-.02-.56c-.18-1.42-1.65-2.95-3.64-1.61-1.36.92-2,4.87-2.63,5.24,0,0,5.88,1.31,6.29-3.08Z"/>
    <path class="cls-9" d="m48.51,75.58c-1.63,2.01-5.43,6.98-5.51,9.76,0,.05-.04.1-.09.1-1.03.05-10.53.8-10.26,11.35,0,.08-.07.14-.14.11-.87-.33-5.4-1.85-4.55,2.17,0,.02.01.04.03.06.35.37,4.95,5.14,7.95,3.32.02-.01.04-.03.05-.05.26-.55,3.91-8.07,9.75-5.43,0,0,10.13,2.14,5.29,9.93,0,.02-.02.03-.04.04-.36.2-4.49,2.69-.56,6.43,0,0,6.83,6.83,5.66,0l-.92-2.59c-.03-.07.02-.15.09-.15.85-.04,5.14-.49,7.08-4.87h0s2.11-6.16.05-8.92c-.03-.04-.03-.08,0-.11.52-.63,5.46-6.75,5.46-10.85,0-.12.15-.15.2-.05.72,1.42,3.17,4.85,9.32,2.17,7.11-3.1,7.07-5,7.03-5.24,0-.02,0-.03-.02-.05l-2.68-4.01s-.07-.06-.11-.05c-.63.16-5.28,1.35-6.8,2.62-.08.07-.21-.01-.18-.11.4-1.41.9-5.67-5.64-10.13,0,0-4.59-4.54-13.7-5.4-1.3-.12-2.65.13-3.72.88-.56.39-1.04.9-1.23,1.55-.03.11-.19.12-.21,0-.34-1.68-1.4-6.21-2.96-7.53-.03-.02-.07-.03-.1-.02l-4.55,1.14s-.08.05-.08.1c-.05.92-.49,9.79,1.18,11.64,1.57,1.74,2.51,3.64,4.78,2.09.11-.07.24.06.15.16Z"/>
    <path class="cls-4" d="m43.13,57.61s-1.24-4.19-1.37-1.72c-.13,2.47.05,4.42.64,5.73l4.69-1.17s1.07-1.95.5-2.94c-.16-.29-.59-.25-.72.06-.17.4-.36.95-.36,1.33,0,0,.88-3.15.12-4.21-.21-.3-.69-.2-.77.16-.17.72-.44,2.05-.26,2.87,0,0,.02-2.2-.38-3.36-.12-.34-.6-.34-.71,0-.24.77-.51,2.07.04,3.14,0,0-.65-3.4-1.04-3.36-.84.08-.38,3.48-.38,3.48Z"/>
    <path class="cls-4" d="m86.77,79.26s3.9-1.98,2.19-.19-3.25,3-4.6,3.47l-2.64-3.99s.95-2.33,2.07-2.6c.32-.08.59.26.46.56-.18.39-.44.92-.72,1.17,0,0,1.69-2.8,2.98-2.98.37-.05.62.36.41.67-.4.62-1.19,1.73-1.91,2.16,0,0,1.59-1.53,2.7-2.03.33-.15.65.2.48.52-.39.71-1.16,1.79-2.31,2.13,0,0,2.91-1.86,3.15-1.55.52.67-2.27,2.67-2.27,2.67Z"/>
    <path class="cls-8" d="m70.19,70.01s-3.25,5.14-8.33,1.63c0,0-4.1-2.34-1.43-5.73l9.76,4.1Z"/>
    <path class="cls-11" d="m48.65,93.63s9.67-16.72,13.21-21.99"/>
    <path class="cls-8" d="m58.63,52.09c-1.33,5.41-4.06,10.15.19,12.8,3.84,2.4,12.81,8.13,15.69,6.3,4.4-2.8,18.98-19.71.89-26.58-.22-.08-5.79-2.54-8.02-2.3-3.76.4-7.21,3.49-8.75,9.78Z"/>
    <path class="cls-5" d="m62.39,55.27s1.4,2.17,3.3,1.85"/>
    <path class="cls-5" d="m76.07,62.5s-2.58-.17-3.22-1.98"/>
    <path class="cls-5" d="m64.04,63.94s.82,1.97,3.55,1.56"/>
    <path class="cls-5" d="m59.53,49.28s3.92,2.76,13.39.99"/>
    <path class="cls-5" d="m72.84,46.96s-1.76,9.07,9.81,14.66"/>
    <path class="cls-5" d="m66.86,62.55s-.99-1.09.45-1.67c1.44-.58,1.34-1.36,1.34-1.36"/>
  </g>
  <rect class="cls-1" x="107.54" y="33.19" width="76.65" height="87.26" rx="20.3" ry="20.3"/>
  <circle class="cls-6" cx="126.78" cy="24.12" r="20.78"/>
  <circle class="cls-6" cx="147.56" cy="41.53" r="2.98"/>
  <path class="cls-13" d="m116.94,18.86c3.56,3.8,7.26,4.02,6.87,3.42-.85-1.31.29-3.11.29-3.11,0,0,1.06,1.63,2.07,1.52s1.67-1.95,1.67-1.95c0,0,1.51,1.49.98,2.96-.25.68,3.31-.38,5.92-4.9,1.48,1.47,8.54,7.38,8.54,7.38,0,0-3.22-.83-4.34.04-1.13.86-.33,4.02-.33,4.02,0,0-2.89-2.59-4.5-2.14-1.61.45-1.25,3.4-1.25,3.4l-3.73-3.84-.32,1.77-2.04-1.49-1.65,1.92-.71-1.64-2.77,4.6s-.31-2.95-1.98-3.02c-1.67-.07-3.9,3.12-3.9,3.12,0,0,.07-3.26-1.23-3.84-1.29-.58-4.24.96-4.24.96,0,0,5.55-7.38,6.66-9.15Z"/>
  <g>
    <path class="cls-8" d="m146.89,52.53s.13-.19.37-.42c1.04-.99,3.15-1.23,3.83,1.07.46,1.58-1.55,5.03-1.31,5.72,0,0-5.37-2.73-2.89-6.37Z"/>
    <path class="cls-8" d="m173.95,63.65s.02-.23-.02-.56c-.18-1.42-1.65-2.95-3.64-1.61-1.36.92-2,4.87-2.63,5.24,0,0,5.88,1.31,6.29-3.08Z"/>
    <path class="cls-7" d="m139.08,75.58c-1.63,2.01-5.43,6.98-5.51,9.76,0,.05-.04.1-.09.1-1.03.05-10.53.8-10.26,11.35,0,.08-.07.14-.14.11-.87-.33-5.4-1.85-4.55,2.17,0,.02.01.04.03.06.35.37,4.95,5.14,7.95,3.32.02-.01.04-.03.05-.05.26-.55,3.91-8.07,9.75-5.43,0,0,10.13,2.14,5.29,9.93,0,.02-.02.03-.04.04-.36.2-4.49,2.69-.56,6.43,0,0,6.83,6.83,5.66,0l-.92-2.59c-.03-.07.02-.15.09-.15.85-.04,5.14-.49,7.08-4.87h0s2.11-6.16.05-8.92c-.03-.04-.03-.08,0-.11.52-.63,5.46-6.75,5.46-10.85,0-.12.15-.15.2-.05.72,1.42,3.17,4.85,9.32,2.17,7.11-3.1,7.07-5,7.03-5.24,0-.02,0-.03-.02-.05l-2.68-4.01s-.07-.06-.11-.05c-.63.16-5.28,1.35-6.8,2.62-.08.07-.21-.01-.18-.11.4-1.41.9-5.67-5.64-10.13,0,0-4.59-4.54-13.7-5.4-1.3-.12-2.65.13-3.72.88-.56.39-1.04.9-1.23,1.55-.03.11-.19.12-.21,0-.34-1.68-1.4-6.21-2.96-7.53-.03-.02-.07-.03-.1-.02l-4.55,1.14s-.08.05-.08.1c-.05.92-.49,9.79,1.18,11.64,1.57,1.74,2.51,3.64,4.78,2.09.11-.07.24.06.15.16Z"/>
    <path class="cls-4" d="m133.71,57.61s-1.24-4.19-1.37-1.72c-.13,2.47.05,4.42.64,5.73l4.69-1.17s1.07-1.95.5-2.94c-.16-.29-.59-.25-.72.06-.17.4-.36.95-.36,1.33,0,0,.88-3.15.12-4.21-.21-.3-.69-.2-.77.16-.17.72-.44,2.05-.26,2.87,0,0,.02-2.2-.38-3.36-.12-.34-.6-.34-.71,0-.24.77-.51,2.07.04,3.14,0,0-.65-3.4-1.04-3.36-.84.08-.38,3.48-.38,3.48Z"/>
    <path class="cls-4" d="m177.35,79.26s3.9-1.98,2.19-.19-3.25,3-4.6,3.47l-2.64-3.99s.95-2.33,2.07-2.6c.32-.08.59.26.46.56-.18.39-.44.92-.72,1.17,0,0,1.69-2.8,2.98-2.98.37-.05.62.36.41.67-.4.62-1.19,1.73-1.91,2.16,0,0,1.59-1.53,2.7-2.03.33-.15.65.2.48.52-.39.71-1.16,1.79-2.31,2.13,0,0,2.91-1.86,3.15-1.55.52.67-2.27,2.67-2.27,2.67Z"/>
    <path class="cls-8" d="m160.77,70.01s-3.25,5.14-8.33,1.63c0,0-4.1-2.34-1.43-5.73l9.76,4.1Z"/>
    <path class="cls-11" d="m139.23,93.63s9.67-16.72,13.21-21.99"/>
    <path class="cls-8" d="m149.21,52.09c-1.33,5.41-4.06,10.15.19,12.8,3.84,2.4,12.81,8.13,15.69,6.3,4.4-2.8,18.98-19.71.89-26.58-.22-.08-5.79-2.54-8.02-2.3-3.76.4-7.21,3.49-8.75,9.78Z"/>
    <path class="cls-5" d="m152.96,55.27s1.4,2.17,3.3,1.85"/>
    <path class="cls-5" d="m166.64,62.5s-2.58-.17-3.22-1.98"/>
    <path class="cls-5" d="m158.06,65.75s-.6-2.05-3.35-1.95"/>
    <path class="cls-5" d="m150.11,49.28s3.92,2.76,13.39.99"/>
    <path class="cls-5" d="m163.42,46.96s-1.76,9.07,9.81,14.66"/>
    <path class="cls-5" d="m157.85,62.2s-.99-1.09.45-1.67c1.44-.58,1.34-1.36,1.34-1.36"/>
    <line class="cls-5" x1="154.26" y1="50.63" x2="157.5" y2="53.52"/>
    <line class="cls-5" x1="168.07" y1="58.37" x2="164.11" y2="57.73"/>
    <circle class="cls-12" cx="151.94" cy="59.78" r="1.4"/>
    <circle class="cls-12" cx="163.32" cy="65.2" r="1.4"/>
  </g>
  <rect class="cls-10" x="-4850.86" y="-5317" width="6467.34" height="6437.3"/>
</svg>