<?xml version="1.0" encoding="UTF-8"?>
<svg id="Calque_1" data-name="Calque 1" xmlns="http://www.w3.org/2000/svg" viewBox="0 0 128 128">
  <defs>
    <style>
      .cls-1 {
        fill: #baa584;
      }

      .cls-1, .cls-2 {
        stroke: #000;
      }

      .cls-1, .cls-2, .cls-3 {
        stroke-linecap: round;
        stroke-linejoin: round;
      }

      .cls-2, .cls-4 {
        fill: #fff;
      }

      .cls-3 {
        fill: none;
        stroke: #fff;
        stroke-width: 8px;
      }
    </style>
  </defs>
  <path class="cls-1" d="m103.26,49.89c-.13.71-.63,1.39-1.44,2.03-.5.4-1.13.79-1.87,1.16,0,0,0,.01-.01.01-.11.07-.26.13-.43.2-1.35.63-3.04,1.21-5.01,1.74-.03,0-.06.01-.1.02-.25.06-.51.12-.77.18-.5.1-1.02.23-1.55.32-1.08.22-2.23.41-3.43.6-1.18.19-2.42.35-3.7.51-1.76.21-3.62.39-5.54.55-4.41.35-9.24.54-14.27.55h-.72c-.54-.02-1.05-.04-1.58-.04-.29-.01-.57-.01-.86-.04h-.31c-.7-.02-1.41-.07-2.11-.09-.29-.02-.58-.04-.86-.06-.26,0-.53-.02-.77-.04-3.86-.23-7.52-.59-10.87-1.06h-.02c-2.15-.31-4.18-.67-6.04-1.06h0c-.25-.05-.5-.11-.74-.16-.31-.07-.62-.14-.92-.22h-.02c-.62-.14-1.23-.29-1.81-.44-.34-.08-.67-.17-.99-.27-.43-.12-.84-.25-1.25-.37h-.01s-.03-.01-.05-.01c-.09-.03-.17-.05-.26-.08-1.11-.37-2.12-.75-3.02-1.14-.17-.07-.33-.15-.49-.23-2.43-1.14-3.88-2.39-4.11-3.7,3.5-3.44,19-6.05,37.61-6.05,20.6,0,37.43,3.2,38.33,7.19Z"/>
  <polygon class="cls-4" points="43.46 50.7 55.97 49.56 60.04 52.02 70.48 51.78 78.16 50.53 88.03 51.04 98.41 52.02 100 56.97 36.51 61.71 31.84 55.63 35.65 52.84 43.46 50.7"/>
  <path class="cls-2" d="m45.97,52.33c0,.55-2.16,1.54-2.69,1.67l-3.84.97s-.07.02-.11.02h-.02c-.62-.14-1.23-.29-1.81-.44-.34-.08-.67-.17-.99-.27.58-.53,2.02-1.17,2.43-1.28l3.85-.97c.54-.13,3.04-.29,3.17.25,0,.02.01.03.01.05Z"/>
  <path class="cls-2" d="m50.23,55.48c0,.55-2.42.95-3.02.95h-.17c-2.15-.31-4.18-.67-6.04-1.06h0c-.25-.05-.5-.11-.74-.16.12-.53,2.37-.9,2.98-.9h.04l3.97.08c.56.02,2.99.53,2.99,1.09Z"/>
  <path class="cls-2" d="m52.03,54.56l-3.96-.09c-.56-.01-3.01-.52-2.99-1.08h0c.01-.56,2.48-.96,3.04-.95l3.96.09c.56.01,3.01.52,2.99,1.08h0c-.01.56-2.48.96-3.04.95Z"/>
  <path class="cls-2" d="m52.93,52.1l-3.96-.09c-.56-.01-3.01-.52-2.99-1.08h0c.01-.56,2.48-.96,3.04-.95l3.96.09c.56.01,3.01.52,2.99,1.08h0c-.01.56-2.48.96-3.04.95Z"/>
  <path class="cls-2" d="m66.34,50.96l-3.88-.82c-.55-.12-2.86-1.07-2.74-1.62h0c.12-.55,2.62-.48,3.16-.37l3.88.82c.55.12,2.86,1.07,2.74,1.62h0c-.12.55-2.62.48-3.16.37Z"/>
  <path class="cls-2" d="m56.04,50.57l-3.88-.82c-.55-.12-2.86-1.07-2.74-1.62h0c.12-.55,2.62-.48,3.16-.37l3.88.82c.55.12,2.86,1.07,2.74,1.62h0c-.12.55-2.62.48-3.16.37Z"/>
  <path class="cls-2" d="m38.77,52.36v.03c0,.55-2.3,1.34-2.84,1.42l-.67.1h-.01s-.03-.01-.05-.01c-.09-.03-.17-.05-.26-.08-1.11-.37-2.12-.75-3.02-1.14-.17-.07-.33-.15-.49-.23.12-.03.21-.05.28-.06l3.92-.59c.24-.04.86-.04,1.49.02h.01c.76.06,1.52.22,1.63.5,0,.01,0,.03,0,.04Z"/>
  <path class="cls-2" d="m44.17,51.75l-3.92.59c-.55.08-3.05,0-3.13-.56h0c-.08-.55,2.28-1.37,2.83-1.45l3.92-.59c.55-.08,3.05,0,3.13.56h0c.08.55-2.28,1.37-2.83,1.45Z"/>
  <path class="cls-2" d="m57.12,55.95l-3.88.83c-.55.12-3.05.18-3.16-.37h0c-.12-.55,2.19-1.5,2.74-1.62l3.88-.83c.55-.12,3.05-.18,3.16.37h0c.12.55-2.19,1.5-2.74,1.62Z"/>
  <path class="cls-2" d="m62.19,52.6l-3.88.83c-.55.12-3.05.18-3.16-.37h0c-.12-.55,2.19-1.5,2.74-1.62l3.88-.83c.55-.12,3.05-.18,3.16.37h0c.12.55-2.19,1.5-2.74,1.62Z"/>
  <path class="cls-2" d="m66.86,55.37l-3.96-.23c-.56-.03-2.99-.63-2.95-1.19h0c.03-.56,2.51-.87,3.07-.84l3.96.23c.56.03,2.99.63,2.95,1.19h0c-.03.56-2.51.87-3.07.84Z"/>
  <path class="cls-2" d="m74.78,56.59l-3.95.37c-.56.05-3.05-.18-3.1-.73h0c-.05-.56,2.35-1.24,2.91-1.29l3.95-.37c.56-.05,3.05.18,3.1.73h0c.05.56-2.35,1.24-2.91,1.29Z"/>
  <path class="cls-2" d="m76.63,54.05l-3.95.37c-.56.05-3.05-.18-3.1-.73h0c-.05-.56,2.35-1.24,2.91-1.29l3.95-.37c.56-.05,3.05.18,3.1.73h0c.05.56-2.35,1.24-2.91,1.29Z"/>
  <path class="cls-2" d="m71.66,52.73l-3.95.37c-.56.05-3.05-.18-3.1-.73h0c-.05-.56,2.35-1.24,2.91-1.29l3.95-.37c.56-.05,3.05.18,3.1.73h0c.05.56-2.35,1.24-2.91,1.29Z"/>
  <path class="cls-2" d="m79.95,51.86l-3.91-.66c-.55-.09-2.9-.95-2.81-1.5h0c.09-.55,2.59-.59,3.14-.5l3.91.66c.55.09,2.9.95,2.81,1.5h0c-.09.55-2.59.59-3.14.5Z"/>
  <path class="cls-2" d="m89.81,52.37l-3.91-.66c-.55-.09-2.9-.95-2.81-1.5h0c.09-.55,2.59-.59,3.14-.5l3.91.66c.55.09,2.9.95,2.81,1.5h0c-.09.55-2.59.59-3.14.5Z"/>
  <path class="cls-2" d="m101.82,51.92c-.5.4-1.13.79-1.87,1.16,0,0,0,.01-.01.01-.36.05-.67.08-.85.08h-.05l-2.83-.08-1.13-.03c-.3-.01-1.15-.17-1.86-.4h-.01c-.37-.12-.7-.26-.91-.41-.13-.1-.21-.2-.21-.3.01-.18.26-.34.62-.47.74-.28,1.95-.45,2.38-.45h.05l3.96.11c.45.02,2.08.36,2.72.78Z"/>
  <path class="cls-2" d="m86.69,54.33l-3.96-.2c-.56-.03-2.99-.61-2.96-1.17h0c.03-.56,2.51-.89,3.06-.86l3.96.2c.56.03,2.99.61,2.96,1.17h0c-.03.56-2.51.89-3.06.86Z"/>
  <path class="cls-2" d="m84.18,56.65l-3.96.26c-.56.04-3.04-.26-3.08-.82h0c-.04-.56,2.39-1.17,2.94-1.21l3.96-.26c.56-.04,3.04.26,3.08.82h0c.04.56-2.39,1.17-2.94,1.21Z"/>
  <path class="cls-2" d="m93.79,54.6l-3.78,1.21c-.53.17-3.01.48-3.18-.05h0c-.17-.53,2.03-1.72,2.56-1.89l3.78-1.21c.53-.17,3.01-.48,3.18.05h0c.17.53-2.03,1.72-2.56,1.89Z"/>
  <path class="cls-2" d="m64.65,57.56l-3.96-.23c-.56-.03-2.99-.63-2.95-1.19h0c.03-.56,2.51-.87,3.07-.84l3.96.23c.56.03,2.99.63,2.95,1.19h0c-.03.56-2.51.87-3.07.84Z"/>
  <path class="cls-1" d="m103.28,50.01c.01.18,0,.35-.01.52-.6,19.66-9.81,36.38-22.7,43.99l-32-.5c-12.15-7.7-20.6-23.66-21.24-42.3-.04-.97-.05-1.95-.04-2.93,0-.01.02-.03.03-.04.23,1.31,1.68,2.56,4.11,3.7.16.08.32.16.49.23.9.39,1.91.77,3.02,1.14.09.03.17.05.26.08.02,0,.03.01.05.01h.01c.41.12.82.25,1.25.37.32.1.65.19.99.27.58.15,1.19.3,1.81.44h.02c.3.08.61.15.92.22.24.05.49.11.74.16h0c1.86.39,3.89.75,6.04,1.06h.02c3.35.47,7.01.83,10.87,1.06.24.02.51.04.77.04.28.02.57.04.86.06.7.02,1.41.07,2.11.09h.31c.29.03.57.03.86.04.53,0,1.04.02,1.58.03h.51s.21.01.21.01c5.07.08,9.93-.07,14.36-.42,1.91-.15,3.75-.33,5.5-.56,1.27-.17,2.51-.34,3.68-.54,1.19-.2,2.33-.4,3.4-.65.53-.1,1.05-.24,1.55-.34.26-.06.52-.13.77-.2.04-.01.07-.02.1-.02,1.97-.53,3.66-1.11,5.01-1.74.17-.07.32-.13.43-.2.01,0,.01-.01.01-.01.74-.37,1.37-.76,1.87-1.16.81-.64,1.31-1.32,1.44-2.03,0,.04.02.08.02.12Z"/>
  <path class="cls-2" d="m81.94,95.28l-3.96.02c-.56,0-3.02-.44-3.02-1h0c0-.56,2.45-1.03,3.01-1.03l3.96-.02c.56,0,3.02.44,3.02,1h0c0,.56-2.45,1.03-3.01,1.03Z"/>
  <path class="cls-2" d="m86.66,95.1l-3.46-1.93c-.49-.27-2.41-1.87-2.14-2.35h0c.27-.49,2.64.31,3.13.58l3.46,1.93c.49.27,2.41,1.87,2.14,2.35h0c-.27.49-2.64-.31-3.13-.58Z"/>
  <path class="cls-2" d="m99.15,97.83l-3.88.82c-.55.12-3.05.18-3.16-.37h0c-.12-.55,2.2-1.5,2.74-1.62l3.88-.82c.55-.12,3.05-.18,3.16.37h0c.12.55-2.2,1.5-2.74,1.62Z"/>
  <rect class="cls-3" x="-1679.66" y="-834.1" width="3385.57" height="2571.67"/>
</svg>