<?xml version="1.0" encoding="UTF-8"?><svg id="Calque_1" xmlns="http://www.w3.org/2000/svg" viewBox="0 0 128 128"><defs><style>.cls-1{stroke:#e30613;stroke-width:8px;}.cls-1,.cls-2,.cls-3,.cls-4{stroke-linejoin:round;}.cls-1,.cls-2,.cls-3,.cls-4,.cls-5{stroke-linecap:round;}.cls-1,.cls-3{fill:none;}.cls-2,.cls-3,.cls-4,.cls-5{stroke:#000;}.cls-2,.cls-5{fill:#fff;}.cls-4{fill:#ff6d75;stroke-width:2px;}.cls-5{stroke-miterlimit:10;}</style></defs><rect class="cls-1" x="-1052.51" y="-641.94" width="2655.08" height="1511.77"/><path class="cls-5" d="m32.54,69.4h.01l.81-.71c-.25.22-.53.46-.83.71Z"/><path class="cls-5" d="m34.51,67.71l.37-.32c-.06.05-.19.17-.37.32Z"/><path class="cls-2" d="m60.83,41.16c-4.18.18-6.86,3.13-12.32,3.16,0,0-5.88-1-8.54,1.47-1.49,1.38-1.68,3.94-.85,5.61,0,0-.02-.35-1.29.24-1.27.59-2.15,1.5-2.45,2.5-.33,1.09-.64,4.07,1.42,5.3-1.19,2.17,3.76,6.88,5.1,7.96,1.93,1.56,2.24,1.21,4.7,1.02"/><path class="cls-2" d="m57.98,85.74s-9.26,2.6-12.76-6.1c-1.74-4.33-2.85-14.15-3.84-20.25"/><polyline class="cls-2" points="70.9 71.13 75.23 84.16 95.18 78.42"/><path class="cls-2" d="m70.9,71.13s1.78-.85,3.93-4.28c2.15-3.43,3.58-9.77,1.22-16-2.36-6.23-7.38-6.45-7.38-6.45,0,0-1.82-3.67-7.84-3.24"/><path class="cls-2" d="m70.9,71.13c-1.56.39-2.2-2.15-3.5-3.09-4.54-3.3-5.79-9.06-6.77-14.59-.32.71-.28,1.52-.36,2.3-.08.78-.35,1.62-1.04,1.99-1.15.62-2.5-.52-2.99-1.73-.49-1.21-.6-2.62-1.47-3.58-.81,2.09-2.11,3.99-3.76,5.51-.78.72-1.87,1.38-2.83.93-.68-.32-1.02-1.12-1.01-1.87,0-.75.3-1.46.59-2.15-1.1,1.97-2.78,3.61-4.78,4.65-.44.23-.97.43-1.42.21-.65-.32-.63-1.25-.44-1.94"/><path class="cls-5" d="m56.85,67.71c.42.18,1.08.29,1.76.12.68-.17,1.19-.58,1.45-.93.26-.35.31-.63.23-.68"/><path class="cls-5" d="m45.16,69.03c-.04.08.15.3.57.49.41.19,1.07.31,1.76.15.69-.16,1.2-.56,1.46-.9.27-.35.32-.63.24-.68"/><path class="cls-5" d="m73.87,54.76c.34.03.56.05.56.02,0-.02-.21-.07-.55-.13"/><path class="cls-3" d="m75.87,49.41c-.49-.88-2.11-1.39-2.11-1.39-.08-.01-.13-.01-.19-.03h-.01c-3.13.2-2.72,2.63-2.72,2.63l3.28.42,1.18.64m.57-2.28-2.29-1.49,13.94,47.07c2.43-1.58,17.66-7.31,20.21-9.03,3.46-2.3,3.97-5.09,3.65-7.25-.27-1.81-1.2-3.45-2.53-4.68-6.79-6.22-18.13-12.69-22.99-15.33l-1.46-.8-.88-.5-6.56-9.56s-1.11-1.88-2.51-2.35c-1.4-.48-3.2,1.23-3.2,1.23,0,0-.74.9,1.42,1.41m2.52,3.58s.04-.03.1-.03c-1.68-.42-2.16.03-2.7.36-.29.19-.5.43-.62.69-.33.64-.09,1.41.53,1.77l.2.11h1.54v1.04s1.88,7.4,3.69,8.52c.85.53,1.86.71,2.7.78l14.53,13.48"/><path class="cls-2" d="m51.17,85.65l-6.15.09h-.15c-.32,0-1.07.01-1.6.08-.7.08-12.41-.18-12.41-.18l-2.5-.73s6.87-7.78,9.78-11.24c1.17-.13,3.45-.66,5.94-2.64,3.64-2.89,6.7-15.07,4.48-16-2.24-.94-4.01,2.51-4.01,2.51-2.14-.53-3.08,1.65-3.15,1.86.1-.03.58-.18-.94.75-1.68,1.03-4.93,6.7-4.93,6.7l-.62.55c-.06.05-.19.17-.37.32l-1.14.98-.81.71h-.01c-4.7,4.06-14.76,12.93-15.55,15.28-1.02,3.06,1.03,5.95,2.7,7.25,1.68,1.31,16.1,6.27,21.59,6.27h6.71"/><path class="cls-2" d="m47.99,98.2l-.8,13.26v6.74s2.98,0,16.72,0h25.49s-1.88-23.21-1.88-23.21"/><path class="cls-2" d="m52.7,66.22s-2.6,8.03,0,7.15"/><path class="cls-5" d="m57.98,85.74s5.02-.97,7.56-4.57"/><path class="cls-2" d="m75.3,51.68s1.23.6,1.96,1.76"/><path class="cls-4" d="m25.67,75.47c20.77-13.95,45.15-16.84,73-9.13l-15.87-34.93,14.04-1.79-5.54-17.62-24.81,5.04s-10.35,16.87-25.49,5.54l-17.95,6.79,4.85,12.65,9.45-2.7-11.68,36.15Z"/><path class="cls-5" d="m52.12,78.45s3.94.9,6.46-1.88"/></svg>