<?xml version="1.0" encoding="UTF-8"?>
<svg id="Calque_1" data-name="Calque 1" xmlns="http://www.w3.org/2000/svg" viewBox="0 0 128 128">
  <defs>
    <style>
      .cls-1 {
        fill: #baa584;
      }

      .cls-1, .cls-2, .cls-3, .cls-4, .cls-5, .cls-6 {
        stroke: #000;
        stroke-width: 2px;
      }

      .cls-1, .cls-2, .cls-3, .cls-4, .cls-5, .cls-6, .cls-7 {
        stroke-linecap: round;
        stroke-linejoin: round;
      }

      .cls-2 {
        fill: #bfe6fc;
      }

      .cls-3 {
        fill: #fff;
      }

      .cls-4 {
        fill: #f3d587;
      }

      .cls-5, .cls-7 {
        fill: none;
      }

      .cls-6 {
        fill: #fab0b4;
      }

      .cls-7 {
        stroke: #fff;
        stroke-width: 8px;
      }
    </style>
  </defs>
  <g>
    <g>
      <circle class="cls-4" cx="104.54" cy="64.08" r="10.58"/>
      <g>
        <line class="cls-5" x1="104.54" y1="82.93" x2="104.54" y2="76.97"/>
        <line class="cls-5" x1="91.22" y1="77.41" x2="95.43" y2="73.2"/>
        <line class="cls-5" x1="85.7" y1="64.08" x2="91.65" y2="64.08"/>
        <line class="cls-5" x1="91.22" y1="50.76" x2="95.43" y2="54.97"/>
        <line class="cls-5" x1="104.54" y1="45.24" x2="104.54" y2="51.19"/>
        <line class="cls-5" x1="117.87" y1="50.76" x2="113.65" y2="54.97"/>
        <line class="cls-5" x1="123.39" y1="64.08" x2="117.43" y2="64.08"/>
        <line class="cls-5" x1="117.87" y1="77.41" x2="113.65" y2="73.2"/>
      </g>
      <g>
        <line class="cls-5" x1="117.87" y1="77.41" x2="113.65" y2="73.2"/>
        <line class="cls-5" x1="104.54" y1="82.93" x2="104.54" y2="76.97"/>
        <line class="cls-5" x1="91.22" y1="77.41" x2="95.43" y2="73.2"/>
        <line class="cls-5" x1="85.7" y1="64.08" x2="91.65" y2="64.08"/>
        <line class="cls-5" x1="91.22" y1="50.76" x2="95.43" y2="54.97"/>
        <line class="cls-5" x1="104.54" y1="45.24" x2="104.54" y2="51.19"/>
        <line class="cls-5" x1="117.87" y1="50.76" x2="113.65" y2="54.97"/>
        <line class="cls-5" x1="123.39" y1="64.08" x2="117.43" y2="64.08"/>
      </g>
    </g>
    <g>
      <path class="cls-6" d="m76.35,29.46c.51.95.8,2.04.8,3.19,0,3.76-3.04,6.8-6.8,6.8-1.92,0-3.66-.8-4.89-2.08-1.24,1.28-2.97,2.08-4.89,2.08-3.75,0-6.8-3.04-6.8-6.8,0-1.12.27-2.18.75-3.11-2.66-.92-4.56-3.44-4.56-6.42,0-3.75,3.04-6.8,6.8-6.8.64,0,1.25.09,1.83.25.43-3.34,3.28-5.92,6.73-5.92s6.31,2.58,6.74,5.92c.59-.16,1.19-.25,1.83-.25,3.75,0,6.8,3.05,6.8,6.8,0,2.89-1.8,5.35-4.34,6.34Z"/>
      <circle class="cls-4" cx="65.33" cy="26.3" r="4.39"/>
    </g>
    <g>
      <path class="cls-1" d="m57.68,95.36s-10.86-.92-7.34,11.47,15.13,10.4,15.13,10.4c0,0-5.34-4.59-2.9-13.46,2.45-8.87-4.89-8.41-4.89-8.41Z"/>
      <path class="cls-5" d="m65.47,117.23s-15.57-10.05-4.72-29.48"/>
      <polyline class="cls-5" points="55.27 114.62 57.99 107.32 61.96 109.15"/>
      <polyline class="cls-5" points="50.34 106.83 56.92 100.22 62.57 103.77"/>
      <path class="cls-1" d="m72.98,86.43s10.86-.92,7.34,11.47c-3.52,12.38-15.13,10.4-15.13,10.4,0,0,5.34-4.59,2.9-13.46-2.45-8.87,4.89-8.41,4.89-8.41Z"/>
      <path class="cls-5" d="m65.19,108.3s15.57-10.05,4.72-29.48"/>
      <polyline class="cls-5" points="75.38 105.7 72.67 98.39 68.7 100.22"/>
      <polyline class="cls-5" points="80.31 97.9 73.73 91.29 68.08 94.84"/>
    </g>
    <g>
      <g>
        <g>
          <circle class="cls-3" cx="13.58" cy="75.77" r="1.63"/>
          <circle class="cls-3" cx="23.84" cy="75.77" r="1.63"/>
          <circle class="cls-3" cx="34.09" cy="75.77" r="1.63"/>
        </g>
        <g>
          <circle class="cls-3" cx="18.95" cy="80.96" r="1.63"/>
          <circle class="cls-3" cx="28.72" cy="80.96" r="1.63"/>
        </g>
      </g>
      <path class="cls-2" d="m37.02,53.06c-1.06-4.29-4.94-7.48-9.57-7.48-3.33,0-6.28,1.66-8.06,4.18-.58-.14-1.19-.2-1.8-.2-3.89,0-7.15,2.63-8.12,6.21-2.87,1.34-4.85,4.25-4.85,7.62,0,4.65,3.77,8.42,8.42,8.42l19.36-.17c5.44,0,9.86-4.41,9.86-9.86,0-3.78-2.12-7.06-5.23-8.71Z"/>
    </g>
  </g>
  <g>
    <path class="cls-5" d="m28.72,37.95s1.05-8.25,12.83-11.09"/>
    <polygon points="37.7 36.85 35.96 35.85 40.88 27.3 31.99 23.03 32.86 21.22 43.68 26.43 37.7 36.85"/>
  </g>
  <g>
    <path class="cls-5" d="m88.2,24.71s8.25,1.05,11.09,12.83"/>
    <polygon points="89.31 33.69 90.3 31.96 98.85 36.87 103.13 27.98 104.93 28.85 99.72 39.67 89.31 33.69"/>
  </g>
  <g>
    <path class="cls-5" d="m99.72,90.04s-1.05,8.25-12.83,11.09"/>
    <polygon points="90.74 91.15 92.48 92.14 87.57 100.69 96.45 104.97 95.58 106.77 84.76 101.56 90.74 91.15"/>
  </g>
  <g>
    <path class="cls-5" d="m40.24,103.28s-8.25-1.05-11.09-12.83"/>
    <polygon points="39.13 94.3 38.14 96.04 29.59 91.13 25.31 100.01 23.51 99.15 28.72 88.32 39.13 94.3"/>
  </g>
  <rect class="cls-7" x="-3881.57" y="-848.7" width="6562.35" height="1176.7"/>
</svg>