<?xml version="1.0" encoding="UTF-8"?>
<svg id="Calque_1" data-name="Calque 1" xmlns="http://www.w3.org/2000/svg" viewBox="0 0 200 128">
  <defs>
    <style>
      .cls-1, .cls-2, .cls-3, .cls-4, .cls-5, .cls-6, .cls-7 {
        stroke: #000;
      }

      .cls-1, .cls-2, .cls-3, .cls-4, .cls-5, .cls-6, .cls-7, .cls-8, .cls-9 {
        stroke-linecap: round;
        stroke-linejoin: round;
      }

      .cls-1, .cls-5 {
        fill: #b4eac3;
      }

      .cls-2, .cls-10, .cls-6 {
        fill: #bfe6fc;
      }

      .cls-3, .cls-7, .cls-8 {
        fill: none;
      }

      .cls-4 {
        fill: #afaff9;
      }

      .cls-4, .cls-5, .cls-6, .cls-7 {
        stroke-width: 2px;
      }

      .cls-8 {
        stroke: #fff;
        stroke-width: 8px;
      }

      .cls-9 {
        fill: #87ccf3;
        stroke: #87ccf3;
        stroke-width: .75px;
      }
    </style>
  </defs>
  <path class="cls-10" d="m59.86,40.82v-13.24h17.33v4.39s-6.24-2.06-9.82,1.8c-3.58,3.86-3.58,7.05-3.58,7.05h-3.93Z"/>
  <path class="cls-6" d="m11.53,81.1v9.56c0,5.04,2.35,9.52,6.03,12.42.92.73,1.93,1.36,3.01,1.87,2.05.98,4.35,1.53,6.78,1.53h42.47c2.06,0,4.03-.4,5.84-1.12,1.12-.44,2.17-1,3.14-1.67,4.13-2.86,6.84-7.62,6.84-13.02v-9.56s-74.11,0-74.11,0Z"/>
  <path class="cls-3" d="m16.39,89.03c0,7.24,5.87,13.11,13.11,13.11"/>
  <rect class="cls-6" x="7.23" y="75.61" width="82.8" height="5.49" rx="2.75" ry="2.75" transform="translate(97.25 156.71) rotate(-180)"/>
  <path class="cls-6" d="m43.1,44.54c0-4.01-4.21-7.26-9.4-7.26s-9.41,3.25-9.41,7.26h18.81Z"/>
  <path class="cls-6" d="m75.67,105.36l4.32,6.33c.55.8,1.66,1.02,2.46.46.5-.34.77-.89.77-1.46,0-.34-.1-.69-.31-.99l-4.1-6.01c-.97.67-2.02,1.24-3.14,1.67Z"/>
  <path class="cls-6" d="m12.74,110.69c0,.57.27,1.12.77,1.46.81.56,1.91.34,2.46-.46l4.6-6.74c-1.08-.51-2.09-1.14-3.01-1.87l-4.51,6.61c-.21.31-.31.65-.31.99Z"/>
  <g>
    <line class="cls-3" x1="34.09" y1="63.46" x2="34.09" y2="59.46"/>
    <line class="cls-3" x1="34.09" y1="51.59" x2="34.09" y2="47.59"/>
  </g>
  <g>
    <line class="cls-3" x1="27.65" y1="63.46" x2="27.65" y2="59.46"/>
    <line class="cls-3" x1="27.65" y1="51.59" x2="27.65" y2="47.59"/>
  </g>
  <g>
    <line class="cls-3" x1="40.1" y1="63.46" x2="40.1" y2="59.46"/>
    <line class="cls-3" x1="40.1" y1="51.59" x2="40.1" y2="47.59"/>
  </g>
  <g>
    <line class="cls-3" x1="37.1" y1="67.59" x2="37.1" y2="63.59"/>
    <line class="cls-3" x1="37.1" y1="55.72" x2="37.1" y2="51.72"/>
  </g>
  <g>
    <line class="cls-3" x1="30.96" y1="67.59" x2="30.96" y2="63.59"/>
    <line class="cls-3" x1="30.96" y1="55.72" x2="30.96" y2="51.72"/>
  </g>
  <g>
    <line class="cls-7" x1="11.52" y1="33.51" x2="11.52" y2="75.61"/>
    <line class="cls-7" x1="33.69" y1="33.51" x2="33.69" y2="36.64"/>
    <path class="cls-7" d="m33.69,33.51c0-4.33-3.55-7.88-7.88-7.88h-6.41c-2.16,0-4.13.89-5.56,2.32-1.43,1.43-2.32,3.39-2.32,5.56"/>
  </g>
  <path class="cls-6" d="m136.87,64.93v3.36c0,4.19-3.4,7.59-7.59,7.59h-20.45c-4.19,0-7.59-3.4-7.59-7.59v-3.36h35.64Z"/>
  <rect class="cls-6" x="99.12" y="61.95" width="39.86" height="2.98" rx="1.36" ry="1.36"/>
  <rect class="cls-2" x="109.06" y="58.38" width="2.81" height="4.34" transform="translate(171.01 -49.92) rotate(90)"/>
  <rect class="cls-3" x="109.5" y="56.89" width="1.93" height="2.57" transform="translate(168.64 -52.29) rotate(90)"/>
  <line class="cls-7" x1="114.05" y1="57.21" x2="106.88" y2="57.21"/>
  <rect class="cls-2" x="125.06" y="58.38" width="2.81" height="4.34" transform="translate(187.01 -65.92) rotate(90)"/>
  <rect class="cls-3" x="125.5" y="56.89" width="1.93" height="2.57" transform="translate(184.64 -68.29) rotate(90)"/>
  <line class="cls-7" x1="130.05" y1="57.21" x2="122.88" y2="57.21"/>
  <path class="cls-3" d="m129.13,42.76v-.09c-.05-2.48-2.07-4.47-4.56-4.47s-4.52,1.99-4.57,4.47v.09"/>
  <path class="cls-3" d="m129.13,42.76v-.09c-.05-2.48-2.07-4.47-4.56-4.47s-4.52,1.99-4.57,4.47v.09"/>
  <path class="cls-6" d="m132.02,42.67v4.65h-2.9v-4.65c-.05-2.48-2.07-4.47-4.56-4.47s-4.52,1.99-4.57,4.47v19.28h-2.9v-19.28c.05-4.08,3.37-7.37,7.46-7.37s7.41,3.29,7.46,7.37Z"/>
  <rect class="cls-6" x="127.98" y="47.32" width="5.19" height="2.3"/>
  <path class="cls-6" d="m122.88,79.78v3.51c0,2.08-1.7,3.77-3.77,3.77h-.1c-2.08,0-3.77-1.7-3.77-3.77v-3.51"/>
  <path class="cls-7" d="m124.94,75.88v2.85c0,.58-.47,1.05-1.05,1.05h-9.68c-.58,0-1.05-.47-1.05-1.05v-2.85h11.78Z"/>
  <rect class="cls-3" x="117.1" y="75.88" width="3.92" height="3.9"/>
  <path class="cls-9" d="m130.64,51.72s-1.35,2.75-.03,2.76.03-2.76.03-2.76Z"/>
  <path class="cls-7" d="m151.15,37.66c.24,2.22,2.01,3.96,4.13,3.96h31.28c2.12,0,3.88-1.74,4.12-3.96"/>
  <path class="cls-7" d="m152.35,35.02c0,.89-.72,1.62-1.61,1.64h-.04c-.91,0-1.63-.74-1.63-1.64s.73-1.64,1.63-1.64c.04,0,.06,0,.09.01.86.04,1.55.76,1.55,1.63Z"/>
  <path class="cls-7" d="m192.77,35.02c0,.91-.74,1.64-1.64,1.64h-.04c-.89-.02-1.6-.75-1.6-1.64s.68-1.6,1.54-1.63c.04-.01.06-.01.1-.01.91,0,1.64.74,1.64,1.64Z"/>
  <path class="cls-4" d="m158.3,39.64h24.83c2.26,0,4.09,1.83,4.09,4.09v41.13c0,.39-.32.71-.71.71h-31.57c-.39,0-.71-.32-.71-.71v-41.13c0-2.26,1.83-4.09,4.09-4.09Z"/>
  <line class="cls-3" x1="154.22" y1="81.28" x2="187.22" y2="81.28"/>
  <line class="cls-3" x1="156.59" y1="81.28" x2="156.59" y2="85.57"/>
  <line class="cls-3" x1="158.48" y1="81.28" x2="158.48" y2="85.57"/>
  <line class="cls-3" x1="160.36" y1="81.28" x2="160.36" y2="85.57"/>
  <line class="cls-3" x1="162.24" y1="81.28" x2="162.24" y2="85.57"/>
  <line class="cls-3" x1="164.13" y1="81.28" x2="164.13" y2="85.57"/>
  <line class="cls-3" x1="166.01" y1="81.28" x2="166.01" y2="85.57"/>
  <line class="cls-3" x1="167.89" y1="81.28" x2="167.89" y2="85.57"/>
  <line class="cls-3" x1="169.78" y1="81.28" x2="169.78" y2="85.57"/>
  <line class="cls-3" x1="171.66" y1="81.28" x2="171.66" y2="85.57"/>
  <line class="cls-3" x1="173.54" y1="81.28" x2="173.54" y2="85.57"/>
  <line class="cls-3" x1="175.43" y1="81.28" x2="175.43" y2="85.57"/>
  <line class="cls-3" x1="177.31" y1="81.28" x2="177.31" y2="85.57"/>
  <line class="cls-3" x1="179.19" y1="81.28" x2="179.19" y2="85.57"/>
  <line class="cls-3" x1="181.08" y1="81.28" x2="181.08" y2="85.57"/>
  <line class="cls-3" x1="182.96" y1="81.28" x2="182.96" y2="85.57"/>
  <line class="cls-3" x1="184.84" y1="81.28" x2="184.84" y2="85.57"/>
  <rect class="cls-7" x="57.89" y="25.63" width="39.61" height="17.13"/>
  <line class="cls-3" x1="71.02" y1="25.63" x2="71.02" y2="42.76"/>
  <line class="cls-3" x1="84.37" y1="25.63" x2="84.37" y2="42.76"/>
  <line class="cls-3" x1="97.5" y1="34.19" x2="57.89" y2="34.19"/>
  <g>
    <path class="cls-1" d="m131.16,106.48v5.45h-11.61v-.67c0-2.62,2.16-4.78,4.78-4.78h6.83Z"/>
    <line class="cls-5" x1="120.04" y1="111.93" x2="138.13" y2="111.93"/>
  </g>
  <g>
    <path class="cls-1" d="m108.35,106.48v5.45h-11.61v-.67c0-2.62,2.16-4.78,4.78-4.78h6.83Z"/>
    <line class="cls-5" x1="97.24" y1="111.93" x2="115.33" y2="111.93"/>
  </g>
  <rect class="cls-8" x="-1082.66" y="-1718.48" width="2244.45" height="5948.74"/>
</svg>