<?xml version="1.0" encoding="UTF-8"?><svg id="Calque_1" xmlns="http://www.w3.org/2000/svg" viewBox="0 0 128 128"><defs><style>.cls-1,.cls-2{fill:#fff;}.cls-3{fill:none;stroke:#e30613;stroke-linecap:round;stroke-linejoin:round;stroke-width:8px;}.cls-2,.cls-4{fill-rule:evenodd;}.cls-5{fill:#ff6d75;stroke:#000;stroke-miterlimit:10;stroke-width:2px;}.cls-4{fill:#295ba7;}</style></defs><rect class="cls-3" x="-1953.06" y="-837.85" width="2655.08" height="1511.77"/><path d="m39.24,109.92c.1.71.3,1.24.59,1.59.54.64,1.45.96,2.76.96.78,0,1.41-.08,1.9-.25.92-.32,1.38-.92,1.38-1.8,0-.51-.22-.91-.68-1.19-.45-.27-1.17-.51-2.15-.72l-1.68-.37c-1.65-.36-2.78-.76-3.39-1.19-1.04-.71-1.56-1.83-1.56-3.35,0-1.39.51-2.54,1.53-3.45,1.02-.92,2.52-1.38,4.5-1.38,1.65,0,3.06.43,4.22,1.3,1.17.87,1.78,2.12,1.83,3.76h-3.11c-.06-.93-.47-1.59-1.25-1.98-.52-.26-1.16-.39-1.93-.39-.85,0-1.54.17-2.04.5-.51.34-.76.8-.76,1.41,0,.55.25.97.75,1.24.32.18,1.01.4,2.06.64l2.72.64c1.19.28,2.08.65,2.68,1.12.92.73,1.38,1.78,1.38,3.16s-.55,2.59-1.64,3.52c-1.09.94-2.64,1.4-4.63,1.4s-3.64-.46-4.81-1.38c-1.17-.92-1.75-2.18-1.75-3.79h3.09Z"/><path d="m55.67,99.23h3.66l5.48,15.47h-3.51l-1.02-3.18h-5.7l-1.05,3.18h-3.38l5.53-15.47Zm-.21,9.63h3.96l-1.96-6.09-2.01,6.09Z"/><path d="m77.04,99.23h4.65v15.47h-3.01v-10.47c0-.3,0-.72.01-1.27,0-.54.01-.96.01-1.25l-2.93,12.99h-3.14l-2.91-12.99c0,.29,0,.71.01,1.25,0,.54.01.97.01,1.27v10.47h-3.01v-15.47h4.7l2.82,12.17,2.8-12.17Z"/><path d="m84.68,99.23h3.29v9.5c0,1.06.13,1.84.38,2.33.39.87,1.24,1.3,2.55,1.3s2.15-.43,2.54-1.3c.25-.49.38-1.27.38-2.33v-9.5h3.29v9.51c0,1.65-.25,2.93-.76,3.84-.95,1.68-2.76,2.52-5.44,2.52s-4.49-.84-5.45-2.52c-.51-.92-.76-2.2-.76-3.84v-9.51Z"/><path class="cls-4" d="m67.28,12.9l-33.99,19.44v40.04l33.56,18.83v-12.15h1.15v12.15l33.42-18.69v-39.9l-34.14-19.73h0Zm.72,40.14v17.62h-1.15v-17.62c-1.02-.04-2.03-.19-3.02-.46-2.97-1.27-10.42-5.15-10.5-12.27.1-.35.39-1.18.96-1.94l3.43,5.43,5.89-3.72v6.97h7.48v-6.97l5.89,3.72,4-6.32-6.63-4.19,6.63-4.19-4-6.32-5.89,3.72v-6.97h-7.48v6.97l-5.89-3.72-4,6.32.38.24c-.64.16-1.27.37-1.87.63,1.71-8.02,7.83-13.96,15.11-13.96,8.61,0,15.59,8.3,15.59,18.53s-6.64,18.11-14.95,18.51Z"/><path class="cls-2" d="m64.57,54.47s-12.8-4.13-12.75-14.33c0,0,1.07-4.66,5.13-4.72l11.64-.06s-1.37-1.73-.18-2.15c1.19-.42,3.16-.54,3.22-2.57l-3.4.12s.3,2.21-1.55,2.21-1.97-2.27-1.97-2.27l-9.55-.06s-8.57,1.24-8.66,10.63c-.12,12.84,17.85,18.57,17.85,18.57l.21-5.37h0Zm5.58,2.62s10.63,3.63,10.57,11.1c-.06,6.93-7.82,7.7-7.82,7.7,0,0-4.12.48-7.34,1.13-2.85.58-2.33,4.06-1.07,4.42v4.24s-6.15-1.19-5.49-7.46,8.66-6.39,8.66-6.39c0,0,7.82-.36,7.94-3.64.15-4-5.49-5.25-5.49-5.25l.06-5.85Zm.48,26.45l.06,2.39h5.79s-1.55-2.45-5.85-2.39h0Z"/><path d="m67.28,12.9l34.14,19.73v39.9l-34.06,18.69-34.06-18.83v-40.04l33.99-19.44m0-2.31l-1,.57-33.99,19.44-1.01.58v42.38l1.03.57,34.06,18.83.96.53.97-.53,34.06-18.69,1.04-.57V31.48l-1-.58-34.14-19.73-1-.58h0Z"/><circle class="cls-5" cx="23.83" cy="52.06" r="14.73"/><path class="cls-1" d="m14.57,49.41v-1.75c.81-.04,1.38-.09,1.7-.16.52-.11.94-.34,1.26-.69.22-.23.39-.55.5-.94.07-.23.1-.41.1-.52h2.15v13.08h-2.63v-9.02h-3.08Z"/><path class="cls-1" d="m26.62,54.93c.1.56.3.99.59,1.3.29.3.71.46,1.26.46.64,0,1.12-.22,1.45-.67.33-.45.5-1.01.5-1.69s-.16-1.23-.47-1.69-.8-.69-1.46-.69c-.31,0-.58.04-.81.12-.4.14-.71.41-.91.8l-2.31-.11.92-7.23h7.2v2.18h-5.34l-.47,2.86c.4-.26.71-.43.93-.51.37-.14.82-.21,1.36-.21,1.08,0,2.02.36,2.83,1.09.81.73,1.21,1.79,1.21,3.18,0,1.21-.39,2.29-1.16,3.24-.77.95-1.93,1.43-3.48,1.43-1.25,0-2.27-.33-3.07-1s-1.24-1.62-1.33-2.84h2.56Z"/></svg>