<?xml version="1.0" encoding="UTF-8"?><svg id="Calque_1" xmlns="http://www.w3.org/2000/svg" viewBox="0 0 128 128"><defs><style>.cls-1,.cls-2,.cls-3,.cls-4,.cls-5{stroke-linecap:round;stroke-linejoin:round;}.cls-1,.cls-6{fill:#fff;}.cls-1,.cls-6,.cls-7,.cls-8{stroke:#1d1d1b;}.cls-2{stroke-width:2px;}.cls-2,.cls-5{stroke:#000;}.cls-2,.cls-5,.cls-8{fill:#fab0b4;}.cls-3{stroke:#fff;stroke-width:8px;}.cls-3,.cls-4{fill:none;}.cls-4{stroke:#ff6d75;stroke-width:3px;}.cls-6,.cls-7,.cls-8{stroke-miterlimit:10;}.cls-7{fill:#ff6d75;}</style></defs><rect class="cls-3" x="-1864.26" y="-1383.49" width="3385.57" height="2571.67"/><g><g><path class="cls-7" d="m85.28,36.56c-4.94,2.66-9.49,6.08-17.7,2.83-4.72-1.87-8.13-4.86-7.23-9.02.92-4.26,3.65-7.27,6.69-9.71,1.35-1.08,2.91-1.85,4.21-2.97,1.42-1.21,3.17-2.19,5.6-1.98l8.43,20.85Z"/><path class="cls-8" d="m71.48,37.03c7.75,6.63,14.4-.08,16.52-3.89,1.44-2.59,2.54-6.19.51-10.53-1.19-2.53-3.95-5.51-6.61-6.62-6.18-2.59-8.75.93-11.46,3.64-2.31,2.3-4.56,5.95-3.58,10.52.5,2.33,2.34,4.93,4.62,6.88Z"/><path class="cls-7" d="m75.57,37.39c-4.52-.74-6.64-6.45-6.28-9.34.43-3.48,1.87-6.63,3.94-8.84,1.72-1.83,5.65-4.26,9.83-.67,1.38,1.18,3.76,4.06,4.56,5.58,1.89,3.57-.74,7.57-2.58,8.89-2.53,1.82-5.13,5.09-9.47,4.38Z"/><path class="cls-6" d="m80.53,27.53c1.44.89,2.31.44,2.33-.73.02-1.51-2.5-4.1-3.91-3.71-1.6.43-.29,3.29,1.58,4.45Z"/><path class="cls-1" d="m60.21,31.88l-3.96.37s-4.41-1.67-2.39,1.01c.46.61.58,1.42.28,2.11-.59,1.34-1.07,3.05,1.84.39l4.85-1.54"/></g><g><path class="cls-8" d="m50.33,12.67c-.26-.38-.64-.95-.74-1.4.47-.2,1.89.32,2.37.51-.18.4-.56.62-.88.89h-.75Z"/><g><path class="cls-8" d="m51.62,13.52c-3.54-2.55-5.23,3.89-6.23,5.86-1.18,2.32-3.6,3.21-6.04,3.53-1.51.2-4.89-.43-5.15,1.55-.04.15-.08.3-.1.47.05.23.13.45.23.61.66,2.17,3.34,2.58,5.29,2.46,3.66-.23,7.13-2.75,9.71-5.19,1.97-1.86,5.58-6.92,2.29-9.3Z"/><path class="cls-8" d="m33.94,25.38c-.03-.2-.09-.39-.18-.53-.49-1.89-3.09-2.06-5.02-1.81-3.62.48-7.21,2.99-9.93,5.37-2.08,1.81-6,6.61-2.94,8.49,3.29,2.02,5.43-3.87,6.56-5.71,1.33-2.17,3.78-3.14,6.2-3.61,1.5-.29,4.77.02,5.18-1.77.05-.13.1-.27.13-.43Z"/><path class="cls-8" d="m17.16,37.17c.23.32.56.8.62,1.2-.48.21-1.83-.15-2.29-.28.21-.37.6-.6.93-.86l.74-.06Z"/><path class="cls-8" d="m17.33,37.07c-.07,0-.18-.03-.28-.06-.15-.05-.3-.1-.47-.11-.15-.01-.3.06-.35.2-.05.13.02.28.17.29.31.03.57.21.89.18.36-.03.4-.53.05-.5h0Z"/><path class="cls-8" d="m24.19,47.26c-2.39-.88-3.82-3.09-4.76-5.37-.58-1.42-.92-4.69-2.76-4.73-.14-.03-.29-.05-.45-.05-.17.06-.32.14-.43.24-1.83.82-1.47,3.46-.83,5.31,1.18,3.45,4.35,6.48,7.21,8.68,2.19,1.68,7.66,4.59,8.91,1.21,1.33-3.62-4.86-4.56-6.89-5.31Z"/><path class="cls-8" d="m42.57,34.3c-3.84-.4-3.23,5.83-3.46,7.98-.27,2.53-2.06,4.47-4.04,5.93-1.23.91-4.32,2.04-3.91,3.83,0,.14.03.29.07.45.1.15.22.27.34.36,1.24,1.57,3.71.58,5.36-.5,3.06-1.99,5.22-5.81,6.65-9.13,1.09-2.53,2.57-8.56-1.01-8.93Z"/><path class="cls-8" d="m41.04,34.58c-.34-.19-.59-.45-.82-.78.34-.4,1.71-.66,2.19-.74-.03.42-.28.8-.47,1.18l-.9.34Z"/></g></g><path class="cls-2" d="m94.36,63.12s-8.32-2.77-10.86-3.23c-2.54-.46-4.85.69-5.78,1.62-.92.92-1.39,3.23-1.39,5.54s-.23,3.93,3,3.23c3.23-.69,7.62-2.54,10.4-3.93,2.77-1.39,4.62-3.23,4.62-3.23Z"/><path class="cls-5" d="m23.88,67.55c-2.32.57-6.54.14-5.9-2.54.04-.19.1-.37.17-.54,1.41-.18,2.78-.5,3.94-1.18,1.94-1.14,1.63-4.13-.96-3.39-1.66.47-3.04,1.64-3.89,3.11-1.09.13-2.18.2-3.27.29-.96.08-.82,1.57.14,1.49.78-.06,1.61-.1,2.45-.17-.1.37-.18.75-.21,1.14-.32,3.5,4.88,4.83,7.55,4.18.94-.23.93-2.61,0-2.38Zm-2.48-6.17c.15-.06.32-.11.48-.15.01,0,.02,0,.04,0-.01.3-.25.53-.48.7-.57.4-1.35.58-2.06.72.58-.54,1.27-.96,2.02-1.27Z"/><path class="cls-2" d="m74.46,88.32s.17-1.14,0-1.64c-.17-.51-1.69-1.01-4.35-1.14-2.66-.13-3.75.38-4.26,2.15-.5,1.77.24,4.64.4,6.53.17,1.9.97,9.28.97,9.28l1.48.38.62,3.14h.96l.79-.78,1.03.78h.77s-.79-2.53-1.46-3.41c-.68-.89-.34-5.06,0-7.96.34-2.91,3.04-7.33,3.04-7.33Z"/><path class="cls-2" d="m45.01,85.31s-13.59-.65-13.42.98c.17,1.63-3.02,7.16-2.81,8.73.21,1.57,1.81,9.06,1.81,9.06l1.36.12.44,2.83h1.11l.39-.82.7.82h1.45s-1.15-1.33-1.56-3.37c-.42-2.04.94-7.45,2.19-8.78,1.25-1.33,6.05-5.72,7.3-7.06,1.25-1.33,1.04-2.51,1.04-2.51Z"/><path class="cls-2" d="m95.9,71.59s-4.27-.64-7.27-2.27c-3-1.63-13.19-9.78-15.99-8.61-1.73.72-4.23,1.62-5.92,3.69-2.29-.48-4.65-.87-6.71-.88-5.27-.02-20.25-.51-29.14-.52-5.11,0-12.56,7.43-12.55,12.7,0,3.51.72,6.02,1.96,8.94.23.55.44,1.03.64,1.47.59,3.44.99,6.53.17,8.11-2.02,3.92-.54,10.21-.54,10.21l1.29.38.37,2.21h1.42l.37-.69.58.69h1.29s-1.15-1.45-1.56-3.67c-.42-2.22,4.38-6.7,5.23-8.42.74-1.5,1.54-3.52,2.31-5.39.38.11.71.23.95.37,2.11,1.25,9.56,2.17,15.9,2.8,2.06.2,5.85,1,9.83,1.34.26.63.47,1.29.59,1.96.44,2.45.97,7.79.97,7.79l1.23.62.39,2.6h1.27l.32-.72.55.72h1.01s0-2.71-.68-3.52c-.65-.78,1.55-7.09,2.62-9.78,1.18-.28,2.27-.7,3.19-1.3,1.62-1.06,3.62-2.87,5.61-4.84.88-.32,1.83-.75,2.87-1.27,4.2-2.1,10.79-6.05,12.19-6.75,1.4-.7,3.4,0,3.4,0,0,0,1.8-1.63,2.2-3.72.4-2.1-.33-4.24-.33-4.24Z"/><path class="cls-2" d="m96.21,75.7c-.43,2.24-1.43,3.93-2.23,3.78-.8-.15-1.1-2.09-.66-4.33.43-2.24,1.43-3.93,2.23-3.78.8.15,1.1,2.1.66,4.33Z"/><path class="cls-2" d="m86.1,55.33s-10.81,1.69-13.9,2.63c-3.08.94-4.98,3.55-5.48,5.1-.49,1.55.32,4.38,1.64,6.94,1.32,2.56,2,4.49,5.19,1.87,3.19-2.62,7-7.19,9.28-10.31,2.28-3.13,3.27-6.24,3.27-6.24Z"/><path d="m82.27,71.65c0,.75-.61,1.36-1.37,1.36s-1.36-.61-1.36-1.36.61-1.37,1.36-1.37,1.37.61,1.37,1.37Z"/><g><line class="cls-4" x1="13.36" y1="15.5" x2="110.26" y2="116.77"/><line class="cls-4" x1="110.26" y1="15.5" x2="13.36" y2="116.77"/></g><path class="cls-6" d="m112.79,44.01c-3.18-5.09-9.21-7.05-13.48-4.38-4.26,2.66-5.14,8.94-1.97,14.03,3.18,5.08,9.21,7.05,13.48,4.38,4.26-2.66,5.15-8.95,1.97-14.03Zm-2.98,12.42c-3.52,2.21-8.5.58-11.12-3.61-2.62-4.2-1.9-9.39,1.63-11.59,3.52-2.2,8.5-.58,11.12,3.62s1.9,9.38-1.63,11.58Z"/><path class="cls-8" d="m109.81,56.43c-3.52,2.21-8.5.58-11.12-3.61-2.62-4.2-1.9-9.39,1.63-11.59,3.52-2.2,8.5-.58,11.12,3.62s1.9,9.38-1.63,11.58Z"/><path class="cls-8" d="m109.81,56.43c-3.52,2.21-8.5.58-11.12-3.61-2.62-4.2-1.9-9.39,1.63-11.59,3.52-2.2,8.5-.58,11.12,3.62s1.9,9.38-1.63,11.58Z"/><circle class="cls-6" cx="103.92" cy="43.33" r="1.15"/></g></svg>