<?xml version="1.0" encoding="UTF-8"?>
<svg id="Calque_1" data-name="Calque 1" xmlns="http://www.w3.org/2000/svg" viewBox="0 0 200 128">
  <defs>
    <style>
      .cls-1 {
        fill: #d6d6d6;
      }

      .cls-1, .cls-2, .cls-3, .cls-4, .cls-5, .cls-6, .cls-7, .cls-8, .cls-9, .cls-10, .cls-11, .cls-12, .cls-13, .cls-14 {
        stroke: #000;
      }

      .cls-1, .cls-2, .cls-3, .cls-4, .cls-5, .cls-6, .cls-7, .cls-8, .cls-15, .cls-12, .cls-14 {
        stroke-linecap: round;
        stroke-linejoin: round;
      }

      .cls-2 {
        fill: #87ccf3;
      }

      .cls-3, .cls-16, .cls-10 {
        fill: #b2f0e9;
      }

      .cls-4, .cls-9 {
        fill: #a07637;
      }

      .cls-5 {
        fill: #ffbeed;
      }

      .cls-6, .cls-17, .cls-12, .cls-14 {
        fill: #fff;
      }

      .cls-7, .cls-15, .cls-13 {
        fill: none;
      }

      .cls-8 {
        fill: #fab0b4;
      }

      .cls-18 {
        fill: #ff6d75;
      }

      .cls-19, .cls-11 {
        fill: #76ac75;
      }

      .cls-9, .cls-10, .cls-11, .cls-13 {
        stroke-miterlimit: 10;
      }

      .cls-15 {
        stroke: #fff;
        stroke-width: 8px;
      }

      .cls-12 {
        stroke-width: .8px;
      }

      .cls-14 {
        stroke-width: .7px;
      }
    </style>
  </defs>
  <path class="cls-6" d="m74.68,62.3s-2.97-2.16-.03-6.23c2.95-4.07,7.84-1.12,7.84-1.12,0,0,4.83,2.35,1.73,7.67"/>
  <g>
    <path class="cls-4" d="m152.35,120.21c.05.23,1.24.43,3.07.05,1.82-.38,1.74-.81,1.53-1.48-.22-.66-1.29-1.44-1.42-2.09-.01-.11-.02-.26-.02-.45h-3.26c-.06.46-.13.85-.25,1.11-.46,1.03.3,2.63.36,2.86Z"/>
    <path class="cls-2" d="m152.24,116.25h3.26s.82-3.7,1.7-8.12c1.13-5.69,2.35-12.55,2.02-14.14-.57-2.84-2.62-2.87-2.62-2.87,0,0-4.01-.3-4.23,7.45-.05,1.42-.07,5.56-.08,9.45-.01,4.16-.01,8.03-.01,8.05-.01.06-.01.13-.02.19Z"/>
    <path class="cls-4" d="m147.24,120.26c1.83.38,3.02.18,3.07-.05.06-.23.83-1.83.36-2.86l-3.54-.66c-.13.65-1.2,1.43-1.42,2.09-.22.67-.29,1.09,1.53,1.48Z"/>
    <path class="cls-2" d="m145.46,108.13c.88,4.41,1.7,8.12,1.7,8.12,0,.18-.01.34-.02.45l3.54.66c-.13-.29-.22-.76-.28-1.3,0-.01,0-3.89-.01-8.05-.01-3.9-.04-8.03-.08-9.45-.23-7.75-4.23-7.45-4.23-7.45,0,0-2.06.04-2.62,2.87-.32,1.6.89,8.46,2.02,14.14Z"/>
  </g>
  <line class="cls-13" x1="6.51" y1="98.6" x2="193.48" y2="98.6"/>
  <path class="cls-10" d="m134.83,12.26h51.86c1.12,0,2.04.91,2.04,2.04v29.93c0,1.12-.91,2.04-2.04,2.04h-51.86c-1.12,0-2.04-.91-2.04-2.04V14.3c0-1.12.91-2.04,2.04-2.04Z"/>
  <g>
    <path class="cls-19" d="m187.3,21.91c-.15.18-.27.36-.44.48-.06.04-.26-.04-.36-.11-.31-.24-.39-.25-.72-.04-.18.11-.23.24-.15.42.08.2,0,.22-.19.26-.27.06-.52.19-.77.32-.2.1-.34.23-.62.19-.34-.05-.67.14-.92.41-.02.02-.05.06-.04.08.02.16.05.31.08.46-.2.18-.24.45-.47.62-.2.15-.33.41-.51.61-.1-.53-.25-1.05.09-1.54.02-.03.04-.05.06-.07.19-.16.38-.31.57-.48.14-.13.27-.28.37-.46-.13.06-.27.12-.42.18-.03-.04-.06-.08-.09-.13-.11-.16-.28-.18-.39-.05-.13.16-.42.22-.37.51-.16.02-.36.1-.49.04-.15-.07-.24-.12-.42-.07-.14.05-.32-.01-.48,0-.16.02-.37.01-.47.11-.31.31-.58.66-.86.99-.03-.03-.06-.06-.09-.08.04.08.07.15.09.19.18.03.4,0,.48.1.12.14.26.34.11.57-.04.06-.06.13-.07.21-.09.63-.51,1.07-.9,1.52-.08.09-.26.08-.38.14-.13.07-.26.15-.38.25-.07.06-.08.19-.15.24-.23.14-.18.28-.06.47.07.12.13.32.08.43-.05.13-.24.2-.36.29-.02-.01-.05-.03-.07-.04,0-.11,0-.22,0-.32,0-.13.06-.28-.15-.33-.03,0-.06-.12-.04-.17.05-.23-.08-.21-.22-.16-.09.03-.17.09-.28.14v-.35c-.18.12-.33.23-.48.34.06.1.12.19.15.25h.45s0,.05.01.08c-.11.09-.24.16-.34.26-.05.05-.06.17-.05.24.06.28.15.56.22.83,0,.03,0,.08-.02.11-.2.42-.41.83-.78,1.13-.07.05-.16.06-.24.1-.24.1-.48.19-.74.3-.08-.14-.21-.17-.38-.03-.19.16-.25.32-.15.53.06.1.13.2.21.29.27.29.19.8-.15,1-.11.07-.21.16-.29.23-.12-.17-.23-.33-.35-.48-.03-.04-.11-.07-.14-.05-.05.02-.11.1-.1.14.02.23.03.46.09.68.08.31.2.61.31.94-.3-.07-.46-.29-.53-.63-.03-.16-.11-.31-.17-.47-.03-.07-.05-.15-.06-.22-.04-.27-.05-.55-.1-.83-.03-.16-.06-.33-.29-.32-.03,0-.09-.07-.08-.1.11-.41-.24-.65-.33-.97-.41-.03-.61.26-.84.49-.17.17-.36.33-.51.52-.09.12-.17.27-.19.42-.04.38-.14.65-.43.95-.05-.08-.1-.14-.13-.22-.15-.58-.3-1.16-.44-1.74-.03-.13-.06-.22-.22-.24-.06,0-.13-.07-.17-.12-.14-.19-.26-.39-.39-.59-.12-.18-.31-.09-.46-.1-.25-.03-.52.01-.74-.08-.23-.1-.47-.17-.69-.28-.15-.08-.27-.24-.39-.38-.07-.09-.13-.22-.25-.13-.06.04-.08.19-.06.26.06.18.16.34.25.53.03-.02.07-.06.12-.1.02.03.03.05.04.07.02.1.04.2.06.29.14-.06.28-.1.41-.18.06-.04.08-.13.1-.16.14.16.28.31.42.47.1.11.16.24.03.36-.2.18-.21.49-.49.63-.46.22-.89.49-1.33.73-.05.03-.11.03-.16.06-.18.09-.29.05-.3-.16-.03-.45-.19-.84-.44-1.21-.17-.26-.25-.59-.38-.88-.07-.15-.17-.29-.25-.44-.18.03-.2.12-.15.25.11.28.23.56.34.84.01.03.04.06.03.09-.04.34.19.6.28.91.03.09.09.19.17.26.19.17.37.33.4.6,0,.06.14.16.19.15.28-.05.55-.13.87-.21-.04.18-.04.35-.11.49-.22.46-.44.9-.86,1.25-.29.24-.53.57-.74.89-.19.29-.07.63-.02.96.05.29.08.59.06.88,0,.11-.17.22-.27.32-.06.06-.15.09-.22.15-.22.18-.38.37-.27.7.06.19.03.41-.22.53-.08.04-.1.19-.14.29-.22.5-.46.99-1,1.21-.22.09-.47.11-.71.13-.2.02-.24-.17-.27-.31-.06-.24-.11-.48-.16-.71-.07-.29-.15-.59-.23-.88-.07-.26-.08-.54-.2-.77-.19-.37-.12-.73.05-1.04.18-.33.08-.63.03-.93-.04-.25-.16-.52-.32-.72-.21-.27-.16-.53-.1-.81.08-.38.02-.47-.36-.48-.06,0-.14-.04-.17-.09-.18-.24-.36-.31-.62-.18-.23.12-.45.26-.73.15-.03-.01-.06,0-.1.01-.25.08-.5.14-.71-.11-.16-.19-.33-.37-.48-.56-.11-.13-.18-.29-.29-.42-.22-.27-.24-.58-.13-.88.09-.24.03-.46-.01-.68-.02-.09-.03-.2,0-.28.16-.32.33-.63.5-.94.03-.05.1-.08.15-.12.19-.14.34-.29.35-.57,0-.15.18-.29.27-.45.09-.15.19-.29.22-.45.01-.06-.17-.15-.27-.23-.03.01-.07.03-.1.04,0-.23.01-.46.02-.69,0-.14.01-.29,0-.43-.02-.18.07-.21.21-.2.17,0,.34.03.51.03.33.01.51-.26.36-.56-.06-.12-.19-.21-.29-.31-.06-.06-.11-.14-.16-.2.08-.02.17-.04.25-.06.05,0,.09,0,.15,0,0-.08,0-.15,0-.15.15-.05.28-.06.36-.13.19-.18.34-.4.54-.57.18-.15.4-.26.64-.41.02-.24-.37-.64.2-.86.01.14.03.28.04.42.04-.02.09-.05.15-.09.02,0,.04.02.06.03-.04.16-.09.32-.14.51.12-.05.21-.09.31-.14.07.18.19.17.34.08.12-.07.24-.19.41-.06.04.03.29-.01.3-.23,0-.19-.05-.41.18-.54.06.05.13.09.24.18,0-.14.02-.23,0-.31-.08-.25-.08-.24.12-.4-.07-.02-.13-.03-.19-.06-.16-.08-.34-.15-.25-.39,0-.01,0-.03,0-.05-.12-.32.08-.49.29-.67.04-.03.1-.06.1-.1,0-.1.03-.26-.02-.3-.12-.09-.28-.02-.3.12-.04.24-.23.34-.36.49-.11.13-.21.28-.27.44-.03.07,0,.22.06.25.21.15.1.28.02.43-.07.13-.18.27-.18.4,0,.19-.07.29-.23.36-.08.03-.13.11-.23.19-.03-.09-.06-.15-.08-.21-.04-.13-.06-.27-.11-.4-.14-.34-.16-.35-.46-.15-.16.11-.36.04-.39-.15-.03-.22-.06-.44-.05-.66,0-.1.08-.21.16-.28.22-.22.49-.4.68-.64.19-.24.34-.52.48-.79.05-.11,0-.28.06-.38.06-.1.22-.12.32-.21.24-.21.51-.24.77-.23.14-.1.29-.28.39-.26.25.07.56-.15.74.18-.02.03-.06.07-.11.13.04.02.08.02.11.04.41.18.82.35,1.22.55.1.05.22.29.19.33-.1.12-.26.19-.4.26-.04.02-.11-.02-.17-.02-.11,0-.27-.15-.31.1-.05.33-.03.38.24.44.08-.07-.13-.3.13-.27.11.01.21.1.33.16.03-.39.28-.57.63-.45v-.68c.05,0,.12-.01.19,0,.13.04.22.08.08.24-.04.05,0,.16,0,.24.08-.02.18-.02.25-.06.18-.11.35-.26.54-.36.1-.06.24-.07.37-.11,0,.04-.02.1-.03.17.34-.07.67-.15,1.04-.23-.08-.12-.18-.25-.27-.38.01-.01.02-.03.03-.04.06.04.12.1.19.11.1.03.2.02.3.04.09.01.19.01.27.05.2.1.39.22.59.34.01-.04.04-.08.03-.09-.14-.17-.21-.34-.18-.59.02-.11.02-.17.11-.25.09-.08.14-.21.2-.32.07-.13.31-.21.45-.1.05.04.03.19.04.29,0,.09,0,.17,0,.26,0,.07,0,.14,0,.21.01.19.04.38.04.56,0,.09-.02.19-.07.27-.07.13-.17.25-.26.37.2.07.55-.21.54-.44,0-.09-.03-.19-.05-.28-.02-.11-.04-.21-.05-.32,0-.04.03-.08.03-.12,0-.14-.06-.3-.02-.42.04-.12.17-.21.26-.31.11.11-.16.36.08.47.08-.15.14-.28.23-.45.21.08.42.16.63.24-.06-.11-.14-.21-.17-.33-.05-.14.02-.23.18-.24.15,0,.29-.01.44-.03.14-.01.22-.06.18-.24-.01-.07.09-.22.18-.25.35-.14.7-.25,1.06-.36.03-.01.08,0,.12.01.15.05.54-.11.61-.26.1-.23.33-.35.55-.27.05.02.08.1.12.15.02.03.04.06.07.08.06.05.12.1.2.17.25-.05.55-.14.79.15.15.18.13.3-.05.44-.2.14-.41.29-.63.44.05.02.08.04.08.04.15-.13.27-.16.48-.04.17.1.41.05.61.09.18.04.34.13.52.17.14.04.3.04.43.06.06-.12.1-.21.12-.27.17.04.32.08.46.11.19.03.34.24.27.46-.08.26.08.35.26.47.08-.1.15-.2.19-.26h1.06c-.06-.33.04-.43.38-.36.32.07.63.13.95.21.04.01.07.09.11.14.01.02.02.05.04.05.25.09.43.36.74.25.07-.03.16-.02.24-.02.33,0,.45.1.5.4.28.05.55.12.82.15.09.01.19-.06.29-.09.07-.02.15-.03.22-.05,0,.02.01.04.02.07-.05.02-.09.05-.17.08.07.06.12.13.19.16.04.02.11.03.15,0,.03-.01.05-.09.03-.13-.09-.24.03-.21.21-.2.65.01,1.14.36,1.65.7.3.2.6.38.91.58Zm-27.91,6.52c.19.08.31.16.46.03.1-.08.24-.16.36-.18.38-.05.76-.08,1.14-.1.05,0,.15.07.15.12,0,.16-.01.32-.03.47-.02.02-.05.04-.07.05.15.07.31.13.46.2.08.04.15.11.23.15.16.09.32.19.49.27.02,0,.12-.09.13-.15.04-.26.17-.3.42-.2.33.13.64.38,1.04.22.06-.03.15.04.23.04.09,0,.25,0,.26-.04.1-.28.18-.56.24-.85.02-.13-.06-.2-.22-.13-.09.04-.21,0-.31,0-.05,0-.09-.04-.14-.03-.31.06-.52-.08-.57-.4-.02-.09-.04-.19-.09-.27-.04-.06-.16-.12-.18-.11-.08.08-.2.23-.18.26.19.23-.01.35-.13.52-.05-.06-.11-.1-.13-.15-.11-.28-.2-.57-.3-.85-.01-.03-.03-.06-.05-.08-.2-.19-.39-.38-.59-.56-.03-.03-.11-.03-.16-.03-.02,0-.05.08-.04.1.11.17.21.36.34.51.11.13.26.22.36.3-.18.26-.32.49-.48.73-.09-.07-.17-.13-.23-.18.15-.09.27-.17.4-.24-.08-.13-.15-.27-.25-.39-.16-.2-.34-.38-.53-.56-.05-.05-.17-.08-.22-.05-.18.09-.34.22-.56.14-.04-.01-.13.04-.14.07-.03.22-.2.29-.34.41-.09.08-.14.21-.17.33-.07.23-.18.4-.39.51-.06.03-.12.08-.21.14Zm5.93-1c.13-.02.21-.02.28-.05.17-.06.21-.22.08-.34-.14-.13-.29-.25-.46-.35-.07-.05-.2-.08-.27-.05-.24.11-.33-.04-.42-.21-.11-.2-.2-.21-.33-.02-.11.15-.17.34-.28.49-.1.14-.12.27,0,.39.13.13.3.16.46.04.2-.15.4-.13.62-.03.11.06.24.09.32.12Zm1.69-.69c.13-.07.24-.12.34-.19.04-.03.09-.1.08-.15-.01-.06-.07-.13-.12-.15-.29-.11-.77.32-.7.62.04.18.14.34.19.51.03.12.07.27.04.38-.08.27.13.59.41.59.26,0,.35-.19.22-.51-.07-.17-.16-.32.09-.38-.17-.23-.33-.46-.53-.72Zm-2.95,8.31c.24.13.3.04.32-.1,0-.05-.04-.1-.06-.16-.08.08-.16.16-.26.26Zm11.01-10.02c.36-.16.42-.25.39-.52-.12.16-.25.33-.39.52Z"/>
    <path class="cls-19" d="m135.12,23.13c.22-.22.44-.42.83-.21-.04-.12-.04-.18-.07-.21-.19-.13-.39-.25-.58-.38-.03-.02-.07-.07-.07-.11,0-.03.06-.07.1-.08.18-.03.23-.15.32-.3.12-.18.37-.28.57-.41.07-.04.14-.08.2-.12.04-.02.09-.07.12-.07.2.05.4.1.6.16.04.01.07.05.1.05.41,0,.81,0,1.22.02.24.02.49.08.73.16.16.05.27.07.44-.02.27-.14.59-.16.89-.26.1-.03.17-.13.28-.22,0,0,.05.05.08.1.17.26.18.26.36,0,.07.11.14.19.29.07.05-.04.17-.02.25-.01.28.04.55.09.82.15.07.02.15.06.21.11.1.07.19.23.27.22.19-.03.37-.12.55-.2.1-.05.18-.14.28-.18.05-.02.15,0,.2.05.25.22.65.28.97.13,0-.02.02-.04,0-.05-.15-.19-.07-.39.05-.53.28-.3.2-.65.21-.99.02-.5,0-.51.5-.49.06,0,.13,0,.27,0-.11.18-.17.36-.29.46-.12.1-.15.19-.09.31.1.22.21.44.34.65.02.04.11.05.17.06.26.05.34.14.37.41,0,.09.07.16.15.24.1-.23.33-.4.21-.69-.01-.03.08-.14.11-.13.13.03.26.06.37.13.11.07.22.19.08.34,0,0-.01.03,0,.05.17.37-.11.46-.35.58-.06.03-.12.08-.17.11.07.23.26.26.44.33.17.06.32.17.48.26,0,.02,0,.05,0,.07-.08.02-.16.04-.24.05-.07.01-.18-.01-.2.02-.15.23-.33.23-.54.12-.02-.15-.03-.3-.05-.49-.46.29-.81.64-.95,1.14-.06.19-.14.45.2.51,0,0,.02,0,.02.01.25.47.82.41,1.19.7.11.08.29.07.47.1,0,.36.14.66.46.86.29-.28.04-.55-.01-.84.04-.03.08-.06.13-.09.29-.2.31-.51.06-.76-.06-.06-.13-.18-.1-.24.11-.25-.03-.48-.06-.72-.02-.17.02-.22.19-.2.08.01.16,0,.24,0,.13.03.25.06.37.12.14.07.26.17.42.28.01.06.01.19.08.28.08.12.21.29.32.28.13,0,.27-.14.28-.33,0-.06.03-.12.07-.25.2.34.38.63.54.93.1.18.16.35.41.39.31.05.49.41.48.73,0,.19.05.51.16.56.19.08.2.25.3.36.03.04.01.12.01.18-.05,0-.11.02-.15,0-.11-.03-.22-.08-.34-.09-.12-.01-.24,0-.41.01.1-.29.18-.54.26-.8-.04,0-.07-.02-.08-.01-.25.24-.56.24-.87.29-.12.02-.23.11-.33.19.34-.04.41.01.32.31-.06.21.04.31.18.4.16.1.25-.01.33-.13.02-.02.05-.04.09-.07.05.05.1.09.18.17-.27.19-.51.37-.77.52-.04.02-.16-.09-.29-.17-.1.06-.25.14-.39.25-.05.04-.11.13-.09.18.05.22-.09.33-.23.44-.33.24-.41.58-.39.96,0,.06,0,.13-.04.18-.04.07-.1.13-.16.18-.57.57-.57.57-.3,1.33.04.12.04.26.03.4-.25-.07-.28-.29-.37-.46-.06-.11-.15-.31-.21-.31-.24.03-.53-.27-.72.11-.02.04-.19.06-.26.03-.33-.14-.54.04-.74.25-.05.05-.1.15-.09.22.03.47-.06.96.32,1.35.11.11.2.18.37.13.23-.07.39-.12.42-.42.02-.21.26-.17.44-.16-.04.32-.07.62-.12.95.14-.01.26-.02.37-.04.25-.03.36.06.37.31.01.26-.06.55.19.74.07.05.21.1.25.07.23-.21.38-.06.57.14.13-.37.38-.59.72-.72.01.05.02.1.04.16.02.01.04.02.06.04.03-.06.06-.13.08-.17.22.09.4.18.6.24.08.03.19.02.27-.01.19-.09.3,0,.41.14.06.06.14.1.2.17.26.31.63.38.99.48.3.09.37.41.45.67.05.16.12.22.26.27.2.07.38.19.58.26.14.05.3.05.45.09.13.04.26.09.38.15.06.03.11.1.17.13.14.05.32.06.3.27-.02.21,0,.47-.12.62-.27.34-.4.69-.38,1.13,0,.29-.13.6-.24.88-.04.09-.18.18-.29.21-.42.11-.65.38-.69.8-.02.17-.12.34-.2.51-.11.2-.24.39-.35.59-.11.2-.27.32-.51.29,0,.14.04.26.01.37-.06.23-.22.36-.46.41-.08.02-.2.1-.22.17-.04.17-.12.28-.3.28-.01.32-.06.62-.3.86-.03.03,0,.2.04.22.19.12.12.23.03.36-.05.07-.09.13-.14.2-.12.2-.17.37-.05.62.1.2.16.41.46.5-.2.09-.35.23-.47.2-.23-.06-.46-.19-.65-.33-.07-.05-.05-.22-.09-.33-.02-.07-.05-.13-.08-.19-.04-.09-.14-.18-.13-.26.01-.17,0-.35.02-.53.02-.26-.06-.51.16-.72,0,0,0-.04-.01-.04-.25-.19-.06-.43-.08-.64-.03-.43.07-.84.18-1.26,0-.02,0-.03,0-.05.04-.72.09-1.43.12-2.15.01-.31-.07-.6-.39-.74-.38-.18-.56-.51-.74-.85-.16-.3-.35-.57-.52-.86-.02-.03-.04-.07-.04-.11.02-.47-.02-.95.31-1.35.14-.17.15-.55.02-.74-.06-.09-.14-.17-.22-.27-.06.09-.11.16-.17.26-.24-.13-.5-.25-.72-.41-.13-.1-.19-.28-.3-.42-.04-.05-.11-.08-.18-.11-.23-.11-.45-.21-.68-.31-.1-.04-.21-.06-.32-.08-.16-.02-.33,0-.48-.06-.29-.11-.58-.25-.86-.39-.07-.03-.15-.13-.15-.2.02-.28-.15-.45-.32-.63-.18-.19-.36-.39-.54-.57-.07-.07-.15-.12-.27-.15.17.29.33.58.5.87-.03.02-.06.04-.09.06-.12-.15-.23-.3-.35-.45-.04-.06-.1-.11-.15-.15-.1-.08-.3-.1-.17-.31,0-.01-.02-.04-.03-.06-.18-.26-.36-.53-.55-.79-.05-.07-.13-.12-.21-.15-.24-.08-.37-.26-.48-.48-.13-.25-.31-.48-.39-.74-.09-.32-.1-.67-.12-1-.02-.36-.15-.65-.47-.86-.11-.07-.23-.16-.09-.28-.13-.16-.26-.3-.39-.45-.09-.1-.16-.22-.25-.32-.05-.05-.14-.08-.22-.08-.07,0-.15.04-.26.07.02-.13.04-.21.05-.31-.22-.15-.46-.27-.64-.51-.21-.29-.6-.35-.95-.42-.21-.04-.43-.07-.66-.1-.04.18-.17.2-.37.16-.28-.05-.32.03-.42.32-.05.16-.19.29-.31.43-.24.29-.5.57-.98.66.11-.14.18-.24.27-.31.08-.07.19-.1.26-.17.11-.1.21-.23.09-.38-.1-.13-.24-.23-.42-.11-.04.03-.08.05-.14.08-.07-.17-.13-.28-.36-.31-.14-.02-.29-.27-.36-.45-.04-.1.08-.26.14-.39.02-.03.1-.03.13-.06.1-.07.19-.16.28-.24-.07-.04-.14-.12-.2-.11-.38.06-.52.02-.75-.28Zm12.53,3.63c-.15-.4-.41-.46-.7-.17-.06.06-.09.16-.14.24.09-.03.18-.07.27-.1.01,0,.03,0,.07,0,.13.29.32.08.5.04Zm.24.57c.09.07.15.12.21.17.05-.15.11-.3.18-.5-.11-.02-.25-.04-.39-.06v.4Zm-.49.48s.05,0,.07,0v-.71c-.17.16-.21.48-.07.71Zm-5.68-5.12c.14-.02.17-.34.32-.08.06-.09.11-.17.15-.23-.06-.04-.13-.1-.21-.13-.04-.02-.13,0-.14.01-.05.13-.08.26-.13.43Zm1.62.8c-.13-.05-.23-.08-.34-.11-.06.11-.12.21-.18.32.27.14.32-.13.52-.2Zm2.29,1.92s-.05.03-.07.05c-.03.17.09.26.27.3-.06-.12-.13-.23-.19-.35Z"/>
    <path class="cls-19" d="m151.53,20.92c.06-.32-.21-.38-.41-.52.08-.05.13-.08.24-.14-.14-.07-.25-.12-.4-.19,0-.04-.04-.12-.03-.21.03-.43-.24-.71-.52-.96-.24-.22-.54-.23-.83-.16-.26.06-.47.09-.63-.18-.02-.04-.1-.05-.16-.09.05-.05.1-.09.17-.15-.11-.06-.2-.11-.29-.16-.1-.06-.13-.14-.01-.2.18-.09.37-.17.56-.22.13-.04.29-.04.27-.2,0-.08-.13-.14-.22-.22.07-.18.37-.39.6-.36.13.01.18-.02.17-.15,0-.05.04-.14.07-.15.3-.07.59-.16.9-.19.14-.01.29.08.46.13-.03-.09-.05-.15-.09-.28.2.09.35.15.51.22,0-.01.03-.03.02-.04-.1-.36-.1-.35.27-.4.54-.07,1.09-.17,1.63-.22.35-.03.72-.02,1.04.21.08.06.22.05.26.06.03.2.06.36.09.52.16,0,.31-.01.46-.02.04,0,.08,0,.11-.03.28-.2.34-.21.66-.05,0,.02,0,.04,0,.05-.26.24-.52.48-.78.73-.09.08-.19.18-.21.28-.02.08.06.19.1.29.02.07.02.15.06.21.03.05.1.07.19.12-.16.06-.27.1-.38.15.09.1.19.18.22.27.02.08-.05.18-.09.3.03.03.08.07.11.1-.08.14-.15.26-.21.38-.07.13-.15.26-.22.39.23.4.09.73-.41.97-.07.03-.13.06-.21.07-.35.06-.64.19-.82.53-.06.11-.24.18-.38.22-.23.06-.36.18-.42.41-.07.29-.17.58-.25.87-.05.17-.11.21-.29.15-.47-.16-.72-.49-.86-.94-.04-.13-.12-.27-.21-.38-.24-.3-.18-.65.15-.83Z"/>
    <path class="cls-19" d="m175.26,40.94c.29-.24.18-.57.16-.86-.03-.29-.06-.57.02-.87.1-.34.27-.49.63-.53.24-.02.47-.12.7-.2.06-.02.1-.1.13-.16.04-.07.04-.18.16-.08,0,0,.05-.02.07-.04.16-.14.31-.29.48-.44.07.08.11.1.12.13.1.17.18.19.32.02.12-.14.3-.24.43-.34.2.09.39.17.56.25-.05.15-.19.35-.15.47.08.2.27.36.42.54.39-.29.3-.77.58-1.09.02.07.04.11.04.15-.01.43.28.81.18,1.25,0,.01,0,.04,0,.05.27.17.24.5.38.74.12.21.25.45.25.68,0,.4-.1.79-.36,1.13-.18.23-.33.49-.5.74-.04.06-.11.11-.17.14-.07.03-.16.03-.23.07-.11.07-.17.07-.29,0-.15-.1-.36-.12-.52-.21-.08-.05-.18-.17-.18-.26.01-.3-.26-.37-.4-.55-.04-.05-.11-.09-.12-.15-.09-.38-.37-.6-.76-.54-.27.04-.53.12-.79.18-.05.01-.12.02-.17,0-.19-.05-.37-.04-.56.04-.23.1-.36-.06-.45-.26Z"/>
    <path class="cls-19" d="m146.06,18.54c.08-.05.16-.1.25-.17-.05-.11-.15-.26.13-.3-.04-.02-.08-.03-.12-.05.04-.09.05-.2.12-.26.23-.19.22-.19,0-.37-.08-.06-.09-.22-.13-.33.02-.01.04-.03.06-.04-.22-.08-.45-.16-.67-.25-.06-.03-.1-.12-.15-.18.07-.03.15-.06.22-.1.19-.1.45,0,.59-.24.02-.04.12-.07.15-.06.23.13.37-.06.53-.14.44-.22.91-.26,1.38-.28.32-.01.65,0,.97.04.18.02.36.1.57.17-.24.21-.47.41-.71.61-.13.11-.26.22-.4.31-.17.12-.35.21-.52.33-.1.07-.22.12-.21.31,0,.13-.11.28-.2.38-.11.12-.26.21-.39.31.09.09.14.15.19.21-.14.07-.27.16-.42.19-.18.03-.37.02-.56.02-.23,0-.46-.02-.69-.04,0-.03,0-.06,0-.1Z"/>
    <path class="cls-19" d="m150.57,21.24c-.03.07-.07.19-.12.3-.08.15-.17.26-.36.12-.05-.04-.15,0-.23.01.05.06.08.13.14.16.31.16.35.43.08.63.02.06.04.13.07.21-.05.01-.09.04-.12.03-.28-.14-.63-.12-.86-.39-.08-.08-.27-.08-.42-.08-.14,0-.35.14-.4-.05-.06-.2.15-.24.32-.25.06,0,.12-.03.11-.03.07-.17.11-.28.16-.39.08-.17.04-.31-.09-.41-.29-.23-.59-.41-.98-.44-.39-.03-.76-.11-1.15,0-.26.08-.42-.08-.51-.42-.08-.28.06-.58.33-.67.21-.07.42-.14.63-.14.1,0,.2.19.29.3.04.05.03.14.04.24.11-.05.21-.09.29-.14.22-.15.51-.13.67.08.08.11.15.13.26.07.03-.02.1-.04.11-.02.28.27.82.23.89.76.02.13.11.23.29.19.05-.01.12.02.17.05.13.07.25.15.39.25Z"/>
    <path class="cls-19" d="m142.28,21.07c.07-.13.11-.19.12-.21-.14-.12-.29-.2-.37-.33-.06-.09-.08-.25-.05-.36.04-.17.42-.32.6-.29.07,0,.15-.03.21-.01.07.01.13.06.2.1.02-.05.04-.1.08-.2.14.1.28.19.41.28-.02-.04-.04-.09-.06-.14-.09-.19,0-.41.17-.49.05-.02.12-.03.16,0,.03.02.05.1.05.14-.03.39.17.66.55.76.14.04.38,0,.21.32-.16.29-.13.36-.46.28-.24-.06-.38.1-.54.19-.24.12-.45.27-.7.04-.03-.02-.09,0-.14,0-.13-.02-.25-.05-.43-.08Z"/>
    <path class="cls-19" d="m179.05,37.21c.06-.05.12-.09.17-.12,0-.33-.23-.47-.47-.56-.22-.08-.3-.21-.33-.42,0-.05-.04-.1-.06-.16.12-.13.27-.16.36,0,.07.11.05.26.08.41.05-.01.09,0,.12-.03.23-.21.44-.15.66.03.18.16.4.27.58.44.16.15.34.3.3.6-.02.16.15.35.24.54-.18-.04-.32-.09-.42-.27-.17-.32-.19-.31-.51-.16-.05.02-.13.03-.18.01-.17-.09-.33-.2-.52-.31Z"/>
    <path class="cls-19" d="m175.35,35.33h.2c.26-.31.52-.61.78-.91.09.04.2.1.32.16-.06.13-.16.25-.16.38,0,.12.11.24.15.3-.08.25-.15.47-.21.68-.04.18-.09.31-.32.22-.09-.04-.21,0-.31-.02-.24-.06-.49-.5-.45-.82Z"/>
    <path class="cls-19" d="m168.43,19.94c-.27.03-.47.06-.62-.16-.06-.08-.18-.12-.25-.16.11-.22.19-.44.32-.62.29-.4.52-.87,1.07-.99.05-.01.1-.01.14-.02.18-.05.35-.1.53-.16.13-.04.25-.08.38-.12.02.04.04.08.06.12-.12.08-.23.17-.35.24-.31.17-.66.29-.93.51-.26.22-.44.53-.62.82-.04.07.05.24.09.35.03.06.09.1.18.2Z"/>
    <path class="cls-19" d="m144.98,16.55c.29.18.56.35.9.55.03.1.02.33.3.33-.19.16-.34.32-.52.45-.21.14-.52,0-.76-.3-.05-.07-.11-.13-.18-.19-.19-.17-.17-.42.04-.58.08-.07.14-.17.22-.26Z"/>
    <path class="cls-19" d="m159.28,25.43c.03-.24.05-.44.09-.65,0-.05.04-.1.07-.13.16-.11.17-.2,0-.3-.05-.03-.1-.08-.15-.11-.23-.14-.07-.39-.19-.57.15-.13.3-.24.44-.36.01.26.4.43.12.63.18.32.35.61.57.98-.04.32-.08.36-.49.42-.15.03-.31.06-.46.09Z"/>
    <path class="cls-19" d="m166.59,36.88c.05.21.11.4,0,.66-.18.39-.29.82-.42,1.24-.05.15-.12.31-.28.26-.09-.03-.2-.19-.21-.3-.02-.17.04-.35.06-.53.01-.12.03-.23.03-.35,0-.22,0-.4.29-.5.21-.07.36-.3.54-.47Z"/>
    <path class="cls-19" d="m145.01,18.51c.1,0,.19-.01.28,0,.19.03.38.07.56.12.09.03.18.1.24.18.09.12.37.16.59.11.21-.05.43-.07.64-.07.07,0,.2.12.19.15-.03.1-.1.23-.18.25-.27.05-.54.07-.81.09-.14.01-.28,0-.42.02-.17.02-.37-.1-.4-.27-.02-.2-.13-.27-.32-.29-.13-.02-.26-.09-.39-.14,0-.04.01-.09.02-.13Z"/>
    <path class="cls-19" d="m141.17,20.8c-.19-.12-.33-.21-.45-.29.03-.25.07-.5.11-.8.32-.17.96-.14,1.25.1-.31.34-.62.68-.91,1Z"/>
    <path class="cls-19" d="m178.29,29.41c-.03.06-.09.18-.15.29-.02,0-.04,0-.06,0-.05-.14-.1-.28-.16-.45.31-.12.54-.42.93-.42.09,0,.19-.16.31-.27.18,0,.36-.19.41-.5,0-.06,0-.13.04-.19.02-.04.09-.08.14-.08.04,0,.1.07.1.11,0,.11.01.23-.02.33-.05.18-.13.34-.18.52-.05.16-.13.25-.3.3-.25.07-.49.19-.74.28-.09.03-.19.05-.32.08Z"/>
    <path class="cls-19" d="m174.37,17.2c.3-.28.31-.28.75.08-.23.27-.54.25-.86.26.08-.27-.09-.3-.27-.37-.25-.09-.49-.24-.75-.37.17-.26.2-.58.61-.58.04.12.08.27.14.41.02.05.09.1.15.11.15.02.19.07.15.23-.02.06.04.15.08.24Z"/>
    <path class="cls-19" d="m155.4,22.3c-.05-.08-.1-.24-.2-.34-.15-.15,0-.23.04-.33.08.05.17.11.25.16.02.01.03.03.02.02.24-.11.45-.25.68-.29.11-.02.28.12.37.23.04.05-.05.21-.1.31-.01.03-.07.04-.1.07-.26.27-.57.34-.96.18Z"/>
    <path class="cls-19" d="m173.39,34.56c.13.1.27.2.4.31.13.11.25.22.36.35.09.1.15.22.24.32.09.1.18.19.28.28.04.04.13.09.13.12-.03.18-.07.35-.13.52,0,0-.15,0-.18-.03-.18-.23-.34-.46-.5-.7-.18-.28-.34-.56-.51-.84-.05-.09-.1-.17-.15-.26.02-.02.05-.05.07-.07Z"/>
    <path class="cls-19" d="m143.07,19.14c.04-.17-.21-.35.05-.48.15.1.2.44.48.19.17.19.15.32-.05.42-.21.11-.43.22-.63.34-.21.12-.29.11-.4-.12-.07.01-.13.04-.2.04-.06,0-.13-.01-.24-.03.06-.2.11-.38.17-.57.31.08.57.15.83.21Z"/>
    <path class="cls-19" d="m144.11,18.87v-.2c.09.02.15.04.23.06-.02-.08-.03-.14-.04-.2.16.02.31.02.45.06.08.03.17.13.17.21,0,.17,0,.35-.07.5-.03.06-.22.05-.33.06-.01,0-.04-.01-.04-.02-.04-.27-.26-.22-.44-.28-.21-.07-.38-.21-.39-.48.27-.09.28.22.46.28Z"/>
    <path class="cls-19" d="m145,19.87s.05,0,.15,0c-.01.14,0,.27-.05.38-.08.21-.29.25-.47.12-.08-.06-.17-.1-.24-.16-.05-.05-.09-.12-.13-.18.06,0,.12-.02.19-.03.03,0,.06-.01.11-.02-.06-.08-.11-.14-.19-.24.18-.07.34-.14.51-.18.01,0,.07.18.13.32Z"/>
    <path class="cls-19" d="m177.26,35.73c-.02.06-.03.17-.07.18-.16.06-.17.18-.17.31,0,.21-.07.28-.25.13-.05.07-.1.13-.15.2-.19-.42-.01-.73.23-1.01.05-.05.17-.06.25-.06.14,0,.27.04.45.08-.1.06-.2.12-.29.17Z"/>
    <path class="cls-19" d="m183.46,43.43s.07.02.2.06c-.12.18-.21.36-.34.51-.1.12-.23.21-.33.33-.1.12-.21.17-.36.11-.18-.08-.21-.22-.07-.36.06-.06.13-.1.19-.15.22-.16.43-.31.7-.51Z"/>
    <path class="cls-19" d="m169.56,16.4c-.39.15-.68.46-1.12.35-.1-.03-.17-.14-.25-.21.09-.06.17-.13.26-.18.12-.06.25-.1.37-.16.13-.07.55.02.74.19Z"/>
    <path class="cls-19" d="m180.2,18.54c.2-.15.38-.03.56.03.03.01.06.11.04.15-.02.05-.08.11-.13.12-.22.03-.44.06-.66.05-.1,0-.28-.09-.28-.14,0-.11.07-.24.15-.32.03-.03.17.05.26.08.01,0,.03.02.06.03Z"/>
    <path class="cls-19" d="m180.24,24.94c0,.25,0,.5,0,.75,0,.17.04.33-.1.49-.09.1-.05.31-.07.48h-.2s-.03-.04-.03-.05c.06-.46.11-.91.18-1.37.02-.11.09-.22.13-.32.03,0,.06,0,.08.01Z"/>
    <path class="cls-19" d="m158.61,24.5c.09-.07.21-.19.34-.27.17-.09.21.01.2.17,0,.09-.02.17-.01.26.01.19-.18.45-.36.46-.05,0-.15-.07-.15-.12-.02-.15,0-.31,0-.49Z"/>
    <path class="cls-19" d="m183.78,42.13c.07.11.12.18.15.27.06.14.1.29.18.42.03.05.15.06.28.1-.19.22-.37.43-.56.64-.06-.2-.09-.35-.13-.49,0-.01,0-.04,0-.05.25-.24.1-.51.04-.77,0-.02.01-.04.04-.11Z"/>
    <path class="cls-19" d="m141.35,19.4c-.06-.03-.12-.07-.18-.1.04-.06.08-.12.13-.17.04-.04.1-.06.12-.11.1-.25.35-.3.56-.4.02-.01.08.01.1.04.07.09-.04.42-.15.47-.11.06-.21.13-.32.19-.07.04-.15.05-.26.08Z"/>
    <path class="cls-19" d="m177.09,33.11c-.15-.24-.2-.51-.52-.58-.15-.03-.15-.69,0-.78.04-.02.14,0,.18.05.03.03.04.1.04.16,0,.31.06.47.29.73.14.17.15.21.01.42Z"/>
    <path class="cls-19" d="m180.43,27.34c-.14.08-.28.19-.43.25-.15.05-.32.06-.53.09.04-.11.06-.2.11-.28.1-.15.23-.28.35-.44.09.12.17.38.48.28,0,.03,0,.07.01.1Z"/>
    <path class="cls-19" d="m143.67,18.06c-.04-.09-.09-.2-.14-.33.25-.16.43.02.61.11.12.06.21.18.3.28.02.02.01.1-.01.13-.02.03-.09.04-.13.02-.21-.06-.41-.14-.63-.21Z"/>
    <path class="cls-19" d="m174.88,36.52c.1,0,.2,0,.29.02.23.07.46.15.68.26.11.06.18.19.3.33-.51-.04-.89-.29-1.29-.48,0-.04.02-.08.03-.12Z"/>
    <path class="cls-19" d="m148.23,31.61c.2-.27.35-.32.6-.23.28.11.57.24.9.38-.22.11-.35.14-.53.01-.19-.13-.43-.21-.65-.28-.07-.02-.17.06-.31.11Z"/>
    <path class="cls-19" d="m144.67,17.91c.16,0,.32-.01.48,0,.06,0,.13.1.14.16,0,.07-.03.19-.08.22-.09.05-.24.09-.3.05-.13-.1-.21-.25-.31-.38.02-.02.05-.04.07-.05Z"/>
    <path class="cls-19" d="m143.27,18.13c-.06.16-.08.24-.11.32-.1.2-.33.27-.51.15-.14-.1-.14-.26.02-.32.18-.07.37-.09.6-.15Z"/>
    <path class="cls-19" d="m149.95,31.74c.21.05.49-.08.7.12,0,.03,0,.06,0,.09-.29.06-.57.12-.89.19.08-.17.13-.28.19-.4Z"/>
    <path class="cls-19" d="m177.15,33.99c-.13-.1-.25-.21-.42-.35.16-.08.36-.18.57-.28.14.23.02.43-.15.63Z"/>
    <path class="cls-19" d="m167.17,16.54c.18-.11.36-.24.56-.32.08-.04.21.01.37.03-.42.37-.75.46-.92.29Z"/>
    <path class="cls-19" d="m179.8,43.66c-.04-.21-.08-.37-.11-.55h.4c.1.24.05.34-.29.55Z"/>
    <path class="cls-19" d="m177.72,36.95c-.2.18-.38.36-.58.52-.03.03-.12.01-.16-.02-.03-.02-.03-.14-.02-.14.25-.12.42-.4.76-.36Z"/>
    <path class="cls-19" d="m171.04,33.27c.23.31.23.46,0,.61-.15-.17-.15-.35,0-.61Z"/>
    <path class="cls-19" d="m177.8,35.88c.02-.17.04-.35.07-.58q.28.35,0,.6s-.05-.01-.08-.02Z"/>
    <path class="cls-19" d="m176.46,31.56c-.14-.27-.09-.43.18-.53-.06.19-.12.34-.18.53Z"/>
    <path class="cls-19" d="m161.28,27.82c-.14-.34-.11-.73.1-.93-.08.32.08.62-.1.93Z"/>
  </g>
  <g>
    <polygon class="cls-1" points="142.41 120.65 141.71 120.65 142.82 84.36 143.51 84.36 142.41 120.65"/>
    <polygon class="cls-1" points="161.31 120.65 162 120.65 160.9 84.36 160.21 84.36 161.31 120.65"/>
    <path class="cls-1" d="m140.78,66.78h.55s.83.28,1.7.41c.87.14,3.28.6,5.88.69.89.03,1.8.04,2.62.04,0,0,0,0,0,0,.1,0,.21,0,.32,0,.11,0,.22,0,.32,0,0,0,0,0,0,0,.82,0,1.73,0,2.62-.04,2.61-.09,5.01-.55,5.88-.69.87-.14,1.7-.41,1.7-.41h.55c.71,0,1.25.72,1.16,1.54l-2.56,23.86c-.07.65-.53,1.15-1.09,1.2l-7.68.59c-.36.03-.68-.13-.91-.41-.23.27-.56.44-.91.41l-7.68-.59c-.56-.04-1.02-.55-1.09-1.2l-2.56-23.86c-.09-.82.46-1.54,1.16-1.54Z"/>
  </g>
  <g>
    <path class="cls-6" d="m142.52,63.51c-1.03,1.9,1.3,4.09,2.32,4.39,1.01.3.14.05,2.44,1.41,2.3,1.37,5.17.73,5.17.73,1.6.66,3.91.07,5.1-1.06,1.18-1.12.85-2.65.85-2.65,0,0,.87-.04,1.36-1.73.49-1.7-1.35-1.98-1.71-3.27s.28-2.17-1.11-4.47c-2.49-4.13-7.4-2.37-7.4-2.37-.91-.04-1.86.35-3.31,2.37-.77,1.07-.63,1.86-2.72,3.02-2.1,1.15-1.01,3.63-1.01,3.63Zm3.48-3.09c.4-2.07,1.65-3.69,3.15-4.35.34,3.43,3.6,5.02,5.35,5.32.06-.02.12-.04.17-.06.14-.02.29-.02.42.04.05.02.08.05.12.08.34.26.4.89.13,1.47-.3.64-.88,1.01-1.31.83-.99,2.07-2.9,3.32-4.8,2.96-2.37-.46-3.81-3.27-3.24-6.28Z"/>
    <path class="cls-6" d="m154.5,61.39c.06.02.11.04.17.04.22.04.4.05.54.02-.04-.04-.07-.06-.12-.08-.13-.06-.28-.06-.42-.04-.05.02-.11.04-.17.06Z"/>
  </g>
  <path class="cls-3" d="m154.78,67.91s1.62-.23,4.13,2.19c2.52,2.42,5.91,5.38,4.44,7.74l-6.18-.15s-3.74-4.39-3.79-4.62c-.05-.23,1.39-5.17,1.39-5.17Z"/>
  <path class="cls-3" d="m147.57,67.91s-2.17-.23-4.69,2.2c-2.52,2.42-5.91,5.38-4.44,7.74l6.18-.15s3.74-4.39,3.79-4.62c.05-.23-.84-5.17-.84-5.17Z"/>
  <path class="cls-3" d="m151.13,89.04c-4.61-.23-8.34-1.31-8.34-1.31l1.62-13.47c.68-5.7,2.52-6.29,3.02-6.34.04,0,.09,0,.13,0h0s0,0,0,0c1-.03,2.3-.1,3.57-.18h0s.07,0,.11,0c.04,0,.07,0,.11,0h0c1.27.1,2.57.17,3.57.19h0s0,0,0,0c.05,0,.09,0,.13,0,.51.05,2.34.64,3.02,6.34l1.62,13.47s-3.74,1.08-8.34,1.31h0s-.07,0-.11,0c-.04,0-.07,0-.11,0h0Z"/>
  <g>
    <path class="cls-6" d="m147.9,77.99c-.08-.12.12-.33.27-.49.17-.17,1.17-.6,1.34-.66.17-.05,1.63.15,2.19.34.56.18.93.11.93.11.15-.03.37-.07.54-.11l.35,1.3c-1.31-.02-2.68.08-2.81.08-.39,0-1.12-.42-1.28-.48-.17-.06-.51-.01-.73.09-.23.11-.89.36-1,.3-.11-.06.22-.49.22-.49Z"/>
    <path class="cls-6" d="m152.55,77.3s7.37-2.69,9.03-2.19,2.32,2.06,1.82,3.05c-.5.99-10.27.32-10.27.32l-.58-1.19Z"/>
  </g>
  <path class="cls-6" d="m149.46,65.56s-.21,1.81-.33,2.73c-.04.35.26.63.59.74.89.3,2.12.66,3.16-.5.09-.11.46-.68.44-.83l-.5-3.6-3.35,1.45Z"/>
  <g>
    <path class="cls-6" d="m149.24,66.7c1.9.36,3.81-.89,4.8-2.96.43.18,1.01-.19,1.31-.83.26-.58.2-1.2-.13-1.47-.14.02-.32.01-.54-.02-.06,0-.11-.01-.17-.04-1.76-.3-5.02-1.89-5.35-5.32-1.5.66-2.75,2.29-3.15,4.35-.58,3.01.87,5.82,3.24,6.28Z"/>
    <path class="cls-6" d="m154.5,61.39c.06.02.11.04.17.04.22.04.4.05.54.02-.04-.04-.07-.06-.12-.08-.13-.06-.28-.06-.42-.04-.05.02-.11.04-.17.06Z"/>
    <path class="cls-6" d="m154.5,61.39c.06.02.11.04.17.04v-.1s-.11.04-.17.06Z"/>
  </g>
  <path class="cls-6" d="m149.24,77.3s-7.37-2.69-9.03-2.19c-1.66.5-2.28,2.13-1.78,3.12.5.99,10.71.44,10.71.44l.1-1.37Z"/>
  <rect class="cls-4" x="180.43" y="80.37" width="1.37" height="40.28" transform="translate(362.24 201.02) rotate(-180)"/>
  <rect class="cls-4" x="120" y="80.37" width="1.37" height="40.28" transform="translate(241.38 201.02) rotate(-180)"/>
  <rect class="cls-4" x="120" y="83.41" width="61.8" height="19.11" transform="translate(301.81 185.93) rotate(-180)"/>
  <g>
    <path class="cls-18" d="m151.1,78.7c-.07,0-.14-.03-.19-.09l-.79-.91-1.74-4.2c-.03-.08-.02-.17.03-.24l.15-.21s.07-.07.11-.09l.31-.13s.06-.02.09-.02c.01,0,.03,0,.04,0l.25.05c.08.02.15.07.19.15l1.7,4.13.07.88.03.41c0,.11-.06.21-.16.25-.03.01-.06.02-.09.02Z"/>
    <path d="m149.08,73.07l.26.05.08.19.15.37,1.47,3.58.05.8.03.41-.21-.24s-.06-.07-.06-.07l-.32-.37-.21-.24-1.7-4.13.15-.21.31-.13m0-.5c-.06,0-.13.01-.19.04l-.31.13c-.09.04-.16.1-.22.17l-.15.21c-.1.14-.12.32-.05.48l1.7,4.13c.02.05.05.1.08.14l.21.24.32.37.06.07.21.24c.1.11.24.17.38.17.06,0,.13-.01.19-.04.2-.08.32-.28.31-.49l-.03-.41-.05-.8c0-.05-.02-.11-.04-.16l-1.47-3.58-.15-.37-.08-.19c-.06-.16-.21-.27-.37-.3l-.26-.05s-.06,0-.09,0h0Z"/>
  </g>
  <path class="cls-6" d="m147.94,76.89c.29.04.51.06.54.05.12-.06.54-.3.81-.33.27-.03.71-.2.84-.18.13.02.77.36.86.37.09.02.19.1.24.15.06.04.69.15.81.24.12.09.11.47.02.56,0,0,0,.03.05.08.06.05.11.23.09.32-.02.1-.13.24-.26.22,0,0-.07,0-.08.03,0,.02.02.16-.03.28-.04.12-.16.18-.37.17,0,0,.1.46-.34.42l-.6-.06s-.33.05-.48.03c-.14-.03-1.04-.15-1.11-.2-.06-.04-.21-.15-.25-.15-.04,0-.48-.14-.54-.18-.02-.01-.1-.04-.2-.07v-1.74Z"/>
  <rect class="cls-4" x="117.42" y="78.38" width="66.96" height="1.99" transform="translate(301.81 158.75) rotate(-180)"/>
  <path class="cls-6" d="m154.5,61.39c.06.02.11.04.17.04.22.04.4.05.54.02-.04-.04-.07-.06-.12-.08-.13-.06-.28-.06-.42-.04-.05.02-.11.04-.17.06Z"/>
  <g>
    <path class="cls-4" d="m81.13,120.21c.05.23,1.24.43,3.07.05,1.82-.38,1.74-.81,1.53-1.48-.22-.66-1.29-1.44-1.42-2.09-.01-.11-.02-.26-.02-.45h-3.26c-.06.46-.13.85-.25,1.11-.46,1.03.3,2.63.36,2.86Z"/>
    <path class="cls-2" d="m81.02,116.25h3.26s.82-3.7,1.7-8.12c1.13-5.69,2.35-12.55,2.02-14.14-.57-2.84-2.62-2.87-2.62-2.87,0,0-4.01-.3-4.23,7.45-.05,1.42-.07,5.56-.08,9.45-.01,4.16-.01,8.03-.01,8.05-.01.06-.01.13-.02.19Z"/>
    <path class="cls-4" d="m76.01,120.26c1.83.38,3.02.18,3.07-.05.06-.23.83-1.83.36-2.86l-3.54-.66c-.13.65-1.2,1.43-1.42,2.09-.22.67-.29,1.09,1.53,1.48Z"/>
    <path class="cls-2" d="m74.23,108.13c.88,4.41,1.7,8.12,1.7,8.12,0,.18-.01.34-.02.45l3.54.66c-.13-.29-.22-.76-.28-1.3,0-.01,0-3.89-.01-8.05-.01-3.9-.04-8.03-.08-9.45-.23-7.75-4.23-7.45-4.23-7.45,0,0-2.06.04-2.62,2.87-.32,1.6.89,8.46,2.02,14.14Z"/>
  </g>
  <g>
    <polygon class="cls-1" points="71.18 120.65 70.49 120.65 71.59 84.36 72.28 84.36 71.18 120.65"/>
    <polygon class="cls-1" points="90.08 120.65 90.78 120.65 89.67 84.36 88.98 84.36 90.08 120.65"/>
    <path class="cls-1" d="m69.56,66.78h.55s.83.28,1.7.41c.87.14,3.28.6,5.88.69.89.03,1.8.04,2.62.04,0,0,0,0,0,0,.1,0,.21,0,.32,0,.11,0,.22,0,.32,0,0,0,0,0,0,0,.82,0,1.73,0,2.62-.04,2.61-.09,5.01-.55,5.88-.69.87-.14,1.7-.41,1.7-.41h.55c.71,0,1.25.72,1.16,1.54l-2.56,23.86c-.07.65-.53,1.15-1.09,1.2l-7.68.59c-.36.03-.68-.13-.91-.41-.23.27-.56.44-.91.41l-7.68-.59c-.56-.04-1.02-.55-1.09-1.2l-2.56-23.86c-.09-.82.46-1.54,1.16-1.54Z"/>
  </g>
  <path class="cls-5" d="m83.55,67.91s1.62-.23,4.13,2.19c2.52,2.42,5.91,5.38,4.44,7.74l-6.18-.15s-3.74-4.39-3.79-4.62c-.05-.23,1.39-5.17,1.39-5.17Z"/>
  <path class="cls-5" d="m76.34,67.91s-2.17-.23-4.69,2.2c-2.52,2.42-5.91,5.38-4.44,7.74l6.18-.15s3.74-4.39,3.79-4.62c.05-.23-.84-5.17-.84-5.17Z"/>
  <path class="cls-5" d="m79.91,89.04c-4.61-.23-8.34-1.31-8.34-1.31l1.62-13.47c.68-5.7,2.52-6.29,3.02-6.34.04,0,.09,0,.13,0h0s0,0,0,0c1-.03,2.3-.1,3.57-.18h0s.07,0,.11,0c.04,0,.07,0,.11,0h0c1.27.1,2.57.17,3.57.19h0s0,0,0,0c.05,0,.09,0,.13,0,.51.05,2.34.64,3.02,6.34l1.62,13.47s-3.74,1.08-8.34,1.31h0s-.07,0-.11,0c-.04,0-.07,0-.11,0h0Z"/>
  <g>
    <path class="cls-6" d="m76.68,77.99c-.08-.12.12-.33.27-.49.17-.17,1.17-.6,1.34-.66.17-.05,1.63.15,2.19.34.56.18.93.11.93.11.15-.03.37-.07.54-.11l.35,1.3c-1.31-.02-2.68.08-2.81.08-.39,0-1.12-.42-1.28-.48-.17-.06-.51-.01-.73.09-.23.11-.89.36-1,.3-.11-.06.22-.49.22-.49Z"/>
    <path class="cls-6" d="m81.32,77.3s7.37-2.69,9.03-2.19,2.32,2.06,1.82,3.05c-.5.99-10.27.32-10.27.32l-.58-1.19Z"/>
  </g>
  <path class="cls-6" d="m78.23,65.56s-.21,1.81-.33,2.73c-.04.35.26.63.59.74.89.3,2.12.66,3.16-.5.09-.11.46-.68.44-.83l-.5-3.6-3.35,1.45Z"/>
  <g>
    <path class="cls-6" d="m78.01,66.7c1.9.36,3.81-.89,4.8-2.96.43.18,1.01-.19,1.31-.83.26-.58.2-1.2-.13-1.47-.14.02-.32.01-.54-.02-.06,0-.11-.01-.17-.04-1.76-.3-5.02-1.89-5.35-5.32-1.5.66-2.75,2.29-3.15,4.35-.58,3.01.87,5.82,3.24,6.28Z"/>
    <path class="cls-6" d="m83.28,61.39c.06.02.11.04.17.04.22.04.4.05.54.02-.04-.04-.07-.06-.12-.08-.13-.06-.28-.06-.42-.04-.05.02-.11.04-.17.06Z"/>
    <path class="cls-6" d="m83.28,61.39c.06.02.11.04.17.04v-.1s-.11.04-.17.06Z"/>
  </g>
  <path class="cls-6" d="m78.01,77.3s-7.37-2.69-9.03-2.19c-1.66.5-2.28,2.13-1.78,3.12.5.99,10.71.44,10.71.44l.1-1.37Z"/>
  <rect class="cls-4" x="109.21" y="80.37" width="1.37" height="40.28" transform="translate(219.78 201.02) rotate(-180)"/>
  <rect class="cls-4" x="48.78" y="80.37" width="1.37" height="40.28" transform="translate(98.93 201.02) rotate(-180)"/>
  <rect class="cls-4" x="48.78" y="83.41" width="61.8" height="19.11" transform="translate(159.36 185.93) rotate(-180)"/>
  <g>
    <path class="cls-16" d="m79.88,78.7c-.07,0-.14-.03-.19-.09l-.79-.91-1.74-4.2c-.03-.08-.02-.17.03-.24l.15-.21s.07-.07.11-.09l.31-.13s.06-.02.09-.02c.01,0,.03,0,.04,0l.26.05c.08.01.15.07.19.15l1.7,4.13.07.88.03.41c0,.11-.05.21-.15.25-.03.01-.06.02-.09.02Z"/>
    <path d="m77.85,73.07l.26.05.08.19.15.37,1.47,3.58.05.8.03.41-.21-.24s-.06-.07-.06-.07l-.32-.37-.21-.24-1.7-4.13.15-.21.31-.13m0-.5c-.06,0-.13.01-.19.04l-.31.13c-.09.04-.16.1-.22.17l-.15.21c-.1.14-.12.32-.05.48l1.7,4.13c.02.05.05.1.09.14l.21.24.32.37.06.07.21.24c.1.11.24.17.38.17.06,0,.13-.01.19-.04.2-.08.32-.28.31-.49l-.03-.41-.05-.8c0-.05-.02-.11-.04-.16l-1.47-3.58-.15-.37-.08-.18c-.06-.16-.21-.27-.38-.3l-.26-.05s-.06,0-.09,0h0Z"/>
  </g>
  <path class="cls-6" d="m76.72,76.89c.29.04.51.06.54.05.12-.06.54-.3.81-.33.27-.03.71-.2.84-.18.13.02.77.36.86.37.09.02.19.1.24.15.06.04.69.15.81.24.12.09.11.47.02.56,0,0,0,.03.05.08.06.05.11.23.09.32-.02.1-.13.24-.26.22,0,0-.07,0-.08.03,0,.02.02.16-.03.28-.04.12-.16.18-.37.17,0,0,.1.46-.34.42l-.6-.06s-.33.05-.48.03c-.14-.03-1.04-.15-1.11-.2-.06-.04-.21-.15-.25-.15-.04,0-.48-.14-.54-.18-.02-.01-.1-.04-.2-.07v-1.74Z"/>
  <rect class="cls-4" x="46.2" y="78.38" width="66.96" height="1.99" transform="translate(159.36 158.75) rotate(-180)"/>
  <path class="cls-6" d="m83.28,61.39c.06.02.11.04.17.04.22.04.4.05.54.02-.04-.04-.07-.06-.12-.08-.13-.06-.28-.06-.42-.04-.05.02-.11.04-.17.06Z"/>
  <g>
    <rect class="cls-16" x="101" y="75.26" width="9.92" height="2.94" rx=".5" ry=".5"/>
    <path d="m110.42,75.76v1.94h-8.92v-1.94h8.92m0-1h-8.92c-.55,0-1,.45-1,1v1.94c0,.55.45,1,1,1h8.92c.55,0,1-.45,1-1v-1.94c0-.55-.45-1-1-1h0Z"/>
  </g>
  <g>
    <rect class="cls-16" x="101" y="71.6" width="9.92" height="2.94" rx=".5" ry=".5"/>
    <path d="m110.42,72.1v1.94h-8.92v-1.94h8.92m0-1h-8.92c-.55,0-1,.45-1,1v1.94c0,.55.45,1,1,1h8.92c.55,0,1-.45,1-1v-1.94c0-.55-.45-1-1-1h0Z"/>
  </g>
  <g>
    <rect class="cls-16" x="122.76" y="74.9" width="9.92" height="2.94" rx=".5" ry=".5"/>
    <path d="m132.19,75.4v1.94h-8.92v-1.94h8.92m0-1h-8.92c-.55,0-1,.45-1,1v1.94c0,.55.45,1,1,1h8.92c.55,0,1-.45,1-1v-1.94c0-.55-.45-1-1-1h0Z"/>
  </g>
  <rect class="cls-4" x="191.18" y="80.49" width="1.37" height="40.28" transform="translate(383.74 201.27) rotate(-180)"/>
  <rect class="cls-4" x="191.19" y="83.53" width="8.81" height="19.11"/>
  <rect class="cls-4" x="188.59" y="78.5" width="11.4" height="2"/>
  <path class="cls-4" d="m16.43,116.89c-.13,3.04-1.57,4.49-1.57,4.49,0,0-2.41.48-2.98-.9-.57-1.37.57-3.92,1.43-4.61l3.12,1.02Z"/>
  <path class="cls-6" d="m17.42,112.3s-.87,1.54-.99,4.59l-3.12-1.02c.86-.68,1.2-4.43,1.2-4.43l2.91.86Z"/>
  <path class="cls-6" d="m32.46,118.74c-2.06.59-3.59.19-4.44-.19.07-.23.13-.44.16-.61.13-.72.09-2.33.03-3.53-.03-.84-.08-1.47-.08-1.47l2.6.71s0,.29.03.73c.05,1.02.19,2.8.58,3.28.34.41.73.82,1.12,1.08Z"/>
  <path class="cls-6" d="m34.37,62.69s1,6.14.34,10.16c-.65,4.02-3.39,41.51-3.39,41.51l-4.16.05s-.76-15.35-.63-17.52c.13-2.17,1.04-5.51,1.04-5.51l.08-13.12,4.4-16.52,2.32.95Z"/>
  <path class="cls-6" d="m24.12,61.4s-2.75,4.49-3.4,8.2c-.65,3.71-.57,14.87-1.83,19.73-.68,2.63-2.96,6.65-3.35,10.05-.39,3.4-2.04,12.73-2.04,12.73l4.33.66,8.1-22.27,6.36-20.13,1.63-10.37-9.81,1.39Z"/>
  <path class="cls-4" d="m37.1,121.5l-8.73-.15s-.35-.16-.65-.78c-.17-.35-.02-.96.15-1.54.06-.16.11-.32.16-.48.85.38,2.38.78,4.44.19.15.11.31.19.46.24,4.15,1.31,4.17,2.52,4.17,2.52Z"/>
  <path class="cls-4" d="m37.1,121.5l-9.2-.07s-.25-.23-.33-.86c-.05-.4.12-.98.3-1.54-.17.58-.32,1.19-.15,1.54.3.62.65.78.65.78l8.73.15Z"/>
  <path class="cls-12" d="m42.56,67.51c-.21-.14-1.76-4.6-2.41-6.08,0,0,0,0,0,0-.99-2.46-1.89-5.04-1.99-5.3l-1.24-11.39-4.03-1.16s1.21,12.66,1.34,13.29c.06.3,2.75,5.81,2.75,5.81,1.48,2.63,2.8,4.93,3.04,5.39"/>
  <path class="cls-2" d="m28.94,34.84s-.8.07-4.89,1.03c-.66.16-1.71,1-2.11,1.78-2.09,4.09-3.93,11.42-3.93,11.42,0,0,3.41,1.23,4.6,1.23l1.4-4.88s.55,10.29-.11,12.03c-.66,1.74-2.31,6.16-2.31,6.16,0,0,1.07.94,7.31,1.67,2.5.29,6.93-.3,6.93-.3,0,0-.31-6.68.2-9.58.82-4.73.85-10.39.93-11.11.13-1.16-2.3-7.74-3.55-8.36-.32-.16-.86-.49-1.34-.62-1.45-.37-3.14-.48-3.14-.48Z"/>
  <polygon class="cls-8" points="34.82 63.85 24.64 61.98 26.82 46.38 37.54 48.7 34.82 63.85"/>
  <path class="cls-12" d="m36.2,56.74c-.01-.07-.86.19-1.44-.09-.12-.06.4-.37.48-.47.01-.01,1.02-.45,1.02-.89s-.82-.33-.82-.33c0,0-2.38.65-2.75.92-.37.28-.54.51-.57.53-.14.02-.26.03-.35.02-2.06-.14-5.25-1.34-10.09-3.27l.5-2.89c-1.07-.16-2.88-.75-3.72-1.04-.34,2.21-1.03,6.03-.73,6.85.21.57,2.79,1.48,5.68,2.35,3.68,1.11,4.71,1.08,8,1.52,1,.13,2.29.75,2.8.86.76.17,1.01.32,1.48-.04.39-.3.51-1.23.56-1.81.09-1.1.13-1.52-.04-2.23Z"/>
  <path class="cls-6" d="m29.49,30.18s-.13,3.29-.51,4.5c-.38,1.21.8,5.61,3.18,6.25,2.15.58.6-3.53.3-5.28-.03-.19.38-6.29.38-6.29l-3.35.81Z"/>
  <g>
    <path class="cls-14" d="m44.19,73.39c.01.16.01.33.01.49,0,.44-.03.88-.04,1.31,0,.19,0,.38.06.56s.17.35.34.44.4.06.52-.09c.1-.13.1-.31.1-.48,0-.22-.01-.44-.02-.66-.01-.3-.02-.59-.04-.88-.05-.6-.16-1.22-.54-1.69-.12-.15-.68-.53-.68-.1,0,.17.13.35.18.51.06.19.1.39.12.59Z"/>
    <path class="cls-14" d="m44.54,73.67c.01.16.01.33.01.49,0,.44-.03.88-.04,1.31,0,.19,0,.38.06.56s.17.35.34.44.4.06.52-.09c.1-.13.1-.31.1-.48,0-.22-.01-.44-.02-.66-.01-.3-.02-.59-.04-.88-.05-.6-.16-1.22-.54-1.69-.12-.15-.68-.53-.68-.1,0,.17.13.35.18.51.06.19.1.39.12.59Z"/>
    <path class="cls-12" d="m41.98,66.13c1.18,1.71,2.31,4.64,2.76,5.55.3.61.62,1.25.75,1.93.14.72.16,1.44.2,2.17,0,.11.01.23-.03.34-.07.19-.32.32-.5.19-.39-.29-.41-.89-.45-1.33-.03-.41-.04-.83-.14-1.23-.1-.39-.31-.71-.57-1.02-.19-.22-.37-.45-.56-.66-.07-.08-.15-.17-.24-.24-.12-.1-.25-.17-.4-.2-.13-.02-.32,0-.41.1-.1.1-.05.26-.02.39.03.15.09.28.16.42.11.23.25.46.29.71,0,.04.01.09.01.13.02.47-.45,1.03-.85.52-.09-.11-.14-.24-.2-.36-.28-.6-.69-1.14-.86-1.78-.11-.41-.17-.83-.23-1.25-.24-1.58-.76-2.29-1.01-3.08"/>
    <path class="cls-14" d="m43.21,71.82c-.06-.08-.12-.16-.18-.24-.12-.13-.25-.26-.42-.32-.17-.06-.37-.03-.49.1-.1.11-.11.28-.09.42.05.36.29.66.51.96.11.15.21.31.29.48-.04-.25-.18-.48-.29-.71-.06-.13-.13-.27-.16-.42-.03-.12-.08-.28.02-.39.1-.09.29-.11.41-.1.15.02.28.1.4.2Z"/>
  </g>
  <path class="cls-7" d="m30.77,19.99s0,.78-.28,1.31h0"/>
  <path class="cls-7" d="m29.25,21.63c-.62-.36-1.04-1.26-1.04-1.26"/>
  <path class="cls-14" d="m27.3,28.81h0c-.07-.02-.58-.15-.88-.95-.32-.86-.69-.76-.73-1.66-.02-.84.85-.48.95-.43"/>
  <path class="cls-7" d="m34.05,20.09s-.2,1.37-.88,1.5"/>
  <path class="cls-6" d="m27.97,22.02c.39.02.83-.07,1.28-.38.19.11.38.17.59.15.3-.03.49-.23.63-.48,0,0,.01.01.02.01.08.08.62.55,1.28-.09.34.41.89.46,1.39.36.3.23.71.21.71.21.02.03.06.07.07.11,1.24,1.75,1.36,2.93,1.37,3.06.08-.31.13-.61.17-.89-.07.52-.16.9-.19.98h0s0,.02,0,.02h0c.02.5,0,1.94-.21,3.27-.17,1.1-1.23,3.46-2.55,3.71-3.04.58-5.06-2.77-5.4-3.83-.4-1.28-.46-1.95-.52-2.45h0c-.01-.06-.02-.11-.01-.18.02.05.03.08.03.08-.02-.2-.02-.41-.01-.61.13-1.03,1.07-2.73,1.18-3.02l.14-.03Z"/>
  <path class="cls-7" d="m26.65,25.06c-.03.19-.04.37-.02.54"/>
  <path class="cls-7" d="m26.64,25.78s0,0,0-.01h0c-.04-.1-.27-.61-.42-1.29v-.02c-.31-1.37-.32-3.44,1.96-4.36,0,0,.14-.75,1.1-.63,0,0,1.11-1.22,2.46-.22.93-.26,1.19.46,1.19.46,2.57.6,2.74,2.92,2.59,4.31,0,.03-.01.05,0,.07"/>
  <path class="cls-7" d="m33.98,22.04s1.32,1.92,1.32,3.03"/>
  <path class="cls-7" d="m26.61,25.56h0s0,.09.02.19h0s0,.02,0,.02"/>
  <path class="cls-7" d="m35.31,25.08h0"/>
  <path class="cls-7" d="m35.3,24.86s0,.07,0,.19"/>
  <path class="cls-7" d="m32.32,20.46c-.17.31-.33.54-.49.71-.02.02-.03.05-.05.05"/>
  <path class="cls-7" d="m30.5,21.32h-.02"/>
  <path class="cls-11" d="m53.69,10.43h55.78c1.21,0,2.19.98,2.19,2.19v32.19c0,1.21-.98,2.19-2.19,2.19h-55.77c-1.21,0-2.19-.98-2.19-2.19V12.62c0-1.21.98-2.19,2.19-2.19Z"/>
  <path class="cls-9" d="m53.69,7.88h55.77c2.61,0,4.74,2.12,4.74,4.74v32.19c0,2.61-2.12,4.74-4.74,4.74h-55.77c-2.61,0-4.74-2.12-4.74-4.74V12.62c0-2.62,2.12-4.74,4.74-4.74Z"/>
  <path class="cls-11" d="m53.69,10.43h55.78c1.21,0,2.19.98,2.19,2.19v32.19c0,1.21-.98,2.19-2.19,2.19h-55.77c-1.21,0-2.19-.98-2.19-2.19V12.62c0-1.21.98-2.19,2.19-2.19Z"/>
  <rect class="cls-17" x="56.01" y="16.46" width="27.38" height="2.46"/>
  <rect class="cls-17" x="56.01" y="22.04" width="15.76" height="2.46"/>
  <rect class="cls-17" x="56.01" y="26.99" width="15.76" height="2.46"/>
  <rect class="cls-15" x="-1541.66" y="-214.82" width="2244.45" height="5948.74"/>
</svg>