<?xml version="1.0" encoding="UTF-8"?><svg id="Calque_1" xmlns="http://www.w3.org/2000/svg" viewBox="0 0 128 128"><defs><style>.cls-1{stroke:#e30613;stroke-width:8px;}.cls-1,.cls-2,.cls-3,.cls-4,.cls-5,.cls-6,.cls-7,.cls-8,.cls-9,.cls-10{stroke-linejoin:round;}.cls-1,.cls-2,.cls-3,.cls-4,.cls-5,.cls-8,.cls-9,.cls-11,.cls-10{stroke-linecap:round;}.cls-1,.cls-5{fill:none;}.cls-12,.cls-2,.cls-3,.cls-4,.cls-5,.cls-13,.cls-6,.cls-7,.cls-8,.cls-9,.cls-11,.cls-14,.cls-10{stroke:#000;}.cls-12,.cls-2,.cls-7,.cls-11{fill:#fff;}.cls-12,.cls-13,.cls-11{stroke-miterlimit:1;}.cls-3{fill:#afaff9;}.cls-4,.cls-13,.cls-6{fill:#b2f0e9;}.cls-8{fill:#bfe6fc;}.cls-9{fill:#87ccf3;}.cls-14{stroke-miterlimit:10;}.cls-14,.cls-10{fill:#d6d6d6;}</style></defs><rect class="cls-1" x="-1042.29" y="-260.57" width="2655.08" height="1511.77"/><rect class="cls-8" x="28.61" y="73.26" width="5.29" height="2.51"/><rect class="cls-8" x="28.61" y="73.26" width="5.29" height="2.51"/><rect class="cls-8" x="30.23" y="73.26" width="9.84" height="2.51" transform="translate(-39.36 109.67) rotate(-90)"/><path class="cls-14" d="m28.61,120.77c-.83,0-1.5-.67-1.5-1.5V11.79c0-.83.67-1.5,1.5-1.5s1.5.67,1.5,1.5v107.48c0,.83-.67,1.5-1.5,1.5Z"/><path class="cls-14" d="m60.36,13.6c-.83,0-1.5-.67-1.5-1.5v-.31c0-.83.67-1.5,1.5-1.5s1.5.67,1.5,1.5v.31c0,.83-.67,1.5-1.5,1.5Z"/><path class="cls-14" d="m60.36,13.29c-.83,0-1.5-.67-1.5-1.5,0-3.54-2.88-6.42-6.42-6.42h-15.91c-1.7,0-3.31.67-4.53,1.89-1.22,1.22-1.89,2.83-1.89,4.53,0,.83-.67,1.5-1.5,1.5s-1.5-.67-1.5-1.5c0-2.5.98-4.87,2.77-6.65,1.79-1.79,4.15-2.77,6.65-2.77h15.91c5.19,0,9.42,4.23,9.42,9.42,0,.83-.67,1.5-1.5,1.5Z"/><rect class="cls-8" x="27.11" y="119.27" width="55.54" height="5.81"/><path class="cls-4" d="m81.89,20.89c-.01-.44-.31-.87-.72-.99-.42-.13-.93.1-1.08.51-.1-.39-.52-.64-.92-.61-.4.02-.76.28-.99.61-.17.25-.27.54-.34.84-.37.75-.22,1.75.4,2.33.27.25.71.41.98.16.45.56,1.37.65,1.92.19.55-.46.62-1.38.16-1.92.36-.25.61-.67.6-1.11Z"/><path class="cls-12" d="m70.03,118.89l8.54-.71-1.45-12.82c-.13-2.74-.77-9.34-1.61-11.42-1.1-2.76-2.24-5.53-2.24-5.53,0,0,.67-6.13.79-8.43.12-2.3-.66-5.72-.58-5.84.08-.12-.27-2.81-.27-2.81l-8.49,11.49c-.06.22,1.52,9.09,1.52,9.09l6.14,18.93,1.65,5.63s-3.87,1.41-3.99,2.42Z"/><path class="cls-4" d="m69.44,26.43c-.42-.75-.35-1.74.17-2.42.06-.08.13-.16.12-.25,0-.08-.06-.15-.11-.22-.27-.36-.41-.84-.32-1.28s.4-.85.84-.99c-.5-.49-.37-1.42.17-1.85.55-.44,1.38-.41,1.97-.04-.07-.42.24-.84.64-1,.39-.17.85-.13,1.26-.02.56.15,1.14.49,1.24,1.06.18-.3.6-.37.94-.3.93.18,1.62,1.17,1.48,2.1.35-.07.74-.09,1.07.06.33.15.58.51.51.87.27-.23.68-.18,1.02-.06.24.09.48.22.63.43.15.21.19.51.03.72.5.04.92.49.93.99,0,.5-.41.96-.91,1.01.25.35.31.84.14,1.24-.17.4-.55.7-.98.77.19.11.16.42,0,.55-.17.13-.41.13-.62.07-.24.71-.47,1.42-.71,2.12-.15.46-.31.92-.6,1.31s-.73.69-1.21.68"/><path class="cls-12" d="m70.14,24.39c.66-1.68,3.07-2.8,4.72-2.07l5.21,2.85-.32.92-4.02,11.87-7.41.6,1.63-4.42s-2.08-1.07-1.61-4.08c.23-1.5,1.06-3.81,1.8-5.68Z"/><polyline class="cls-2" points="72.75 27.18 70.98 29.59 72.09 29.92"/><path class="cls-7" d="m69.95,34.15s.93.81,3.74,0"/><path class="cls-6" d="m72.39,21.48c-.35.46-.39,1.14-.09,1.64.3.5.92.78,1.49.69-.25.12-.33.47-.21.72s.36.42.62.52c.54.21,1.17.17,1.68-.1-.09.46.06.95.38,1.29.32.34.8.51,1.27.45-.51.24-.83.82-.76,1.38.06.56.51,1.05,1.06,1.17.55.12,1.16-.14,1.45-.62.46-.04.9-.31,1.15-.7s.3-.9.14-1.34c.32,0,.61-.21.77-.49.16-.28.2-.6.2-.92,0-.78-.27-1.58-.83-2.11s-1.46-.73-2.15-.38c-.08.04-.16.09-.25.08-.12-.02-.19-.14-.24-.25-.23-.48-.46-.99-.91-1.28-.54-.35-1.32-.26-1.76.2-.15-.7-.76-1.31-1.47-1.33-.71-.03-1.41.65-1.29,1.35"/><path class="cls-12" d="m71.73,22.58s-.04.01-.11.01c-.07,0-.18-.01-.3-.06-.12-.05-.26-.14-.36-.29-.05-.08-.08-.18-.06-.28.02-.1.1-.2.22-.23v.08s-.01,0-.02,0c-.42-.01-.75-.26-.91-.47-.08-.11-.13-.21-.15-.28-.02-.07-.03-.11-.03-.11.01,0,.06.16.22.35.16.19.48.42.87.43,0,0,.02,0,.03,0l.38.02-.37.06c-.08.01-.14.09-.16.17-.02.08,0,.16.04.23.08.14.21.23.32.28.23.11.4.08.4.1Z"/><path class="cls-12" d="m70.98,54.35s-.8.09-1.72.41c-.92.31-1.58.77-1.61.73-.01-.01.14-.15.42-.32.27-.17.68-.38,1.15-.54.47-.16.91-.24,1.24-.27.32-.03.52-.02.53,0Z"/><path class="cls-12" d="m75.69,23.75l2.6-.16.92-.79s-.22-.62-.62-.57c-.41.05-.84.3-.84.3l-.54-.08.62-1.16.51-.54s.03-.29-.05-.42c-.08-.13-.32-.23-.42-.21-.1.02-.24.15-.24.15,0,0,.15-.59-.15-.75-.29-.15-.64.16-.64.16,0,0,.04-.47-.1-.56s-.32-.08-.36-.08-.4.2-.4.2h-.24s-.07-.61-.2-.66-.24-.03-.34,0c-.1.03-.39.24-.39.24l-.43.64s-1.19,1.46-1.25,1.49c-2.83.38-12.67,1.7-13.32,1.91-.76.26-1.52,1.09-1.63,1.36-.11.27-.43,1.02-.53,1.73-.1.71,1.98,6.28,4.91,9.33,1.33,1.38,2.6,2.59,3.61,3.5l-.6.27s-3.32,2.6-3.87,3.59c-.55.99-.45,2.06-.65,3.09-.25,1.27.49,2.68-.06,4.06-.55,1.39-1.54,8.77-.88,11.74.66,2.97,1.17,4.56,1.23,4.85.05.3-4.43,17.07-4.43,17.07,0,0-1.98,7.82-1.54,9.8.44,1.98,10.32,18.81,10.32,18.81l1.87,3.72s-4.55,3.65-4.24,4.62l9.37-4.41-1.64-5.81s-1.58-7.87-2.73-11.13c-1.15-3.27-3.84-6.44-3.84-6.44l-.27-1.19s1.89-3.04,2.99-5.22c1.1-2.18,3.76-8.94,3.76-8.94l1.87-2.23s2.67-3.53,3.13-5.4c.79-3.2-.48-5.97-1.12-7.01-.64-1.04-2.4-3.3-2.61-4.44-.22-1.14-.22-3.31-.22-3.31l4.39-10.89s1.32-3.17.55-5.15c-.77-1.98-2.09-2.38-2.09-2.38l-1.32-.38c-.06-.16-.16-.31-.29-.44l-8.99-8.79,10.07-3.63,1.37.51Z"/><path class="cls-12" d="m68.07,40.12s-.05-.03-.14-.09c-.1-.07-.23-.16-.39-.28-.34-.24-.82-.61-1.4-1.07-1.16-.93-2.74-2.26-4.2-4.02-1.46-1.75-2.45-3.58-3.06-4.94-.3-.68-.53-1.24-.66-1.63-.06-.18-.12-.33-.16-.45-.03-.1-.05-.16-.05-.16s.03.05.07.15c.05.12.11.26.18.44.15.39.39.94.7,1.61.63,1.34,1.63,3.15,3.08,4.89,1.45,1.74,3.01,3.08,4.16,4.03.58.47,1.05.84,1.37,1.1.15.12.28.22.37.3.08.07.13.11.12.11Z"/><path class="cls-13" d="m75.45,60.72c.96-.4,1.48-1.62,1.1-2.59-.38-.97-1.6-1.51-2.57-1.15l-.3-.33c-.64-.49-1.67-.35-2.16.28-.49.64-.37,1.66.26,2.16-.76.27-1.4.89-1.62,1.66-.21.77.06,1.68.72,2.14.66.46,1.68.35,2.17-.28.34.7,1.08,1.21,1.87,1.21.78,0,1.54-.58,1.69-1.35.15-.77-.39-1.62-1.16-1.75Z"/><path class="cls-6" d="m73.4,73.36c-.33-.61-.91-1.1-1.59-1.22-.68-.12-1.44.18-1.78.78-.34.6-.16,1.47.44,1.82-.91-.35-2.02.3-2.27,1.24-.24.94.32,1.99,1.2,2.41.88.42,1.97.24,2.76-.33-.26.73.29,1.62,1.05,1.78.76.17,1.59-.32,1.88-1.04.3-.72.1-1.59-.4-2.19.71-.11,1.27-.82,1.21-1.54-.06-.71-.74-1.32-1.46-1.3.32-.38.15-1.05-.3-1.23-.46-.18-1.04.19-1.07.68"/><path class="cls-12" d="m73.05,73.21s0-.07.03-.2c.04-.12.15-.31.37-.44.11-.06.25-.12.41-.12.16,0,.34.04.48.17.14.12.25.31.28.52.03.21,0,.46-.16.65l-.03-.07c.59-.03,1.28.4,1.48,1.13.2.73-.33,1.65-1.22,1.8l.04-.1c.34.4.56.93.56,1.5,0,.28-.05.57-.18.84-.13.27-.33.5-.57.68-.24.18-.54.31-.85.34-.31.04-.64-.02-.92-.19-.27-.17-.5-.43-.63-.73-.14-.3-.16-.66-.05-.98l.11.08c-.1.07-.2.14-.31.2-.7.38-1.54.49-2.26.24-.73-.24-1.28-.87-1.47-1.57-.1-.35-.1-.72,0-1.06.1-.34.3-.63.55-.85.25-.23.55-.37.86-.45.31-.07.64-.05.93.06l-.05.11c-.43-.26-.64-.75-.63-1.18-.01-.45.21-.85.5-1.1.3-.26.65-.38.98-.42.33-.04.64.03.9.13.51.21.81.54.99.77.17.23.23.38.23.38,0,0-.08-.13-.26-.36-.18-.22-.48-.53-.98-.73-.25-.09-.54-.15-.86-.11-.32.04-.65.16-.93.41-.28.24-.47.61-.46,1.03,0,.41.2.85.59,1.08l-.05.11c-.26-.1-.56-.11-.85-.05-.29.07-.57.21-.8.42-.23.21-.42.48-.51.79-.09.31-.08.66.01.98.18.65.7,1.24,1.38,1.47.68.23,1.49.13,2.15-.23.11-.06.21-.13.3-.19l.19-.13-.08.22c-.2.58.12,1.24.62,1.54.5.32,1.17.2,1.61-.14.23-.16.41-.38.53-.63.12-.25.17-.52.17-.78,0-.53-.21-1.04-.52-1.42l-.07-.09.11-.02c.39-.06.73-.31.94-.63.21-.31.28-.69.19-1.03-.17-.68-.82-1.09-1.37-1.07h-.1s.06-.07.06-.07c.14-.16.18-.39.15-.58-.03-.19-.12-.37-.25-.48-.13-.12-.29-.16-.44-.16-.15,0-.28.05-.39.11-.21.12-.32.29-.37.41-.05.12-.04.19-.05.19Z"/><path class="cls-4" d="m74.17,44.56c.28-.03.5-.28.56-.56s-.02-.56-.16-.81c-.15-.28-.39-.53-.69-.65-.3-.12-.67-.09-.92.11s-.34.6-.16.87l-.04.1c-.47-.21-1.03-.25-1.49,0-.45.24-.74.8-.59,1.29.15.49.8.78,1.23.51-.32.38-.49.91-.35,1.38.14.48.61.86,1.1.81s.91-.57.78-1.04c.53.19,1.18-.11,1.37-.64.19-.53-.12-1.18-.64-1.37Z"/><path class="cls-4" d="m60.11,96.15c.41-.08.74-.41.93-.78.19-.37.27-.79.34-1.2.71.19,1.53-.13,1.93-.76.39-.62.33-1.5-.15-2.06.45-.21.83-.58.99-1.05.16-.47.07-1.03-.28-1.38-.34-.35-.95-.45-1.35-.17-.25.17-.41.45-.63.66-.22.21-.58.34-.82.15-.16-.12-.2-.33-.28-.51-.22-.49-.93-.92-1.59-.7v-.8c-.41-.67-1.15-.43-1.69.14-.54.57-.38,1.64.31,2.02-.75.52-1.24,1.46-1.06,2.36.18.9,1.14,1.61,2.02,1.38-.21.57-.31,1.22-.1,1.79.22.57.83,1.02,1.43.9Z"/><path class="cls-4" d="m68.61,46.64c-.67-.33-1.43-.39-2.18-.45.81-1.05.74-2.68-.15-3.66.53-.57.56-1.54.07-2.14-.5-.6-1.46-.74-2.11-.32l.06-.41c-.62-.51-1.57-.58-2.25-.15-.68.42-1.05,1.31-.86,2.09-.99,0-1.9.84-1.97,1.83-.07.98.71,1.95,1.69,2.09-.7.97-.51,2.47.41,3.22s2.43.66,3.24-.21c.33.99.79,2.11,1.79,2.38.73.2,1.49-.15,2.11-.57.7-.47,1.39-1.15,1.38-1.99,0-.75-.57-1.4-1.24-1.72Z"/><path class="cls-4" d="m68.56,63.83c-.37-.21-.83-.25-1.24-.14.8-.68.87-2.06.13-2.81.9-.55,1.17-1.91.55-2.77-.62-.86-1.99-1.02-2.8-.34l.09.13c-.55-.41-1.21-.7-1.89-.68-.68.02-1.38.4-1.64,1.03s.04,1.47.69,1.69c-.21.13-.41.29-.57.48-.71-.16-1.51.05-2.03.58-.59.6-.77,1.57-.44,2.34-1.07.44-1.74,1.7-1.51,2.83.23,1.14,1.33,2.03,2.49,2.02-.46,1.17.1,2.65,1.23,3.22,1.13.57,2.65.14,3.32-.93.94.4,2.13.09,2.75-.72.62-.81.61-2.04-.02-2.85.74.03,1.46-.49,1.66-1.2s-.13-1.53-.78-1.9Z"/><path class="cls-12" d="m60.24,68.51s-.06,0-.18-.01c-.12-.02-.29-.06-.49-.14-.41-.17-.97-.53-1.39-1.19h0c-.29-.4-.44-.96-.38-1.55.03-.29.08-.59.18-.88.1-.29.26-.58.46-.83.29-.36.66-.64,1.05-.82l-.04.09c-.26-.64-.16-1.34.12-1.83.28-.51.75-.79,1.15-.91.4-.12.75-.1.97-.06.11.02.2.05.25.07.06.02.08.04.08.04,0,.01-.12-.03-.34-.06-.22-.03-.55-.03-.94.1-.38.13-.81.41-1.07.88-.26.47-.35,1.12-.1,1.71l.03.06-.06.03c-.37.17-.72.44-.99.78-.4.48-.57,1.08-.62,1.64-.06.56.07,1.09.34,1.47h0s0,0,0,0c.39.64.93,1.01,1.31,1.19.4.17.65.19.65.21Z"/><path class="cls-12" d="m67.31,63.69s.03,0,.1-.02c.07-.01.17-.01.3,0,.26.02.66.1,1.06.41.19.15.38.37.51.64.06.14.12.28.14.44.03.16.03.34-.02.51-.1.34-.31.65-.59.91-.28.25-.64.5-1.09.5l.05-.11c.47.47.58,1.23.4,1.91-.08.34-.23.68-.46.98-.23.3-.55.52-.89.68-.61.27-1.33.32-1.92.03l.1-.04c-.23.53-.68.92-1.17,1.11-.49.19-1.01.21-1.48.13-.47-.1-.89-.29-1.2-.57-.32-.27-.55-.59-.7-.91-.31-.64-.33-1.22-.29-1.6.04-.38.13-.57.13-.57.02,0-.06.2-.08.58-.02.37.01.94.32,1.55.15.3.38.61.69.86.31.26.71.44,1.16.53.45.08.94.05,1.41-.13.46-.18.88-.55,1.09-1.04l.03-.07.07.03c.53.27,1.21.22,1.8-.03.33-.15.63-.36.84-.63.21-.28.36-.6.44-.92.17-.65.06-1.36-.36-1.79l-.11-.11h.16c.39.01.73-.22,1-.46.27-.25.47-.54.56-.85.05-.16.06-.31.03-.46-.02-.15-.07-.29-.13-.42-.12-.26-.29-.46-.47-.62-.37-.3-.76-.39-1.01-.43-.26-.03-.4,0-.4-.02Z"/><path class="cls-8" d="m67.35,15.98c0-3.19-3.35-5.78-7.49-5.78-4.14,0-7.49,2.59-7.49,5.78h14.98Z"/><line class="cls-5" x1="52.37" y1="17.12" x2="67.35" y2="17.12"/><path class="cls-11" d="m71.64,31.96s1.87.18,2.53-.76"/><line class="cls-2" x1="53.64" y1="20.94" x2="53.64" y2="24.21"/><line class="cls-2" x1="55.62" y1="25.84" x2="55.62" y2="29.11"/><line class="cls-2" x1="57.79" y1="32.52" x2="57.79" y2="35.79"/><path class="cls-9" d="m35.16,119.21s0,.03,0,.04l5.17.02s0-.05,0-.08c0-.15,0-.29,0-.44,0-.25,0-.5,0-.75,0-.02,0-.03,0-.05h-.13c-.16-.04-.32-.03-.48,0-.06,0-.12,0-.17,0-.11-.09-.23-.07-.36-.07-.24,0-.48,0-.72,0-.47-.01-.94,0-1.41-.01-.05,0-.09,0-.14,0,0,0-.02-.02-.03-.03-.04-.1-.03-.2-.03-.3,0-1.63.01-3.25.02-4.88,0-.03,0-.06,0-.09,0-.27.03-.29.29-.3.44,0,.87.01,1.31,0,.37.01.75.01,1.12,0,.25-.01.51.07.75-.06-.01-.49.06-.98-.04-1.46-.11-.6-.47-1.04-.95-1.38-.23-.17-.36-.4-.43-.67-.04-.16-.04-.32.17-.38-.21-.14-.45-.06-.68-.07-.56-.01-1.11-.01-1.67,0-.09,0-.19,0-.26.07.22.07.2.21.15.39-.11.46-.49.68-.8.96-.4.36-.6.8-.62,1.33-.12,2.74-.05,5.47-.08,8.21Z"/><path class="cls-3" d="m36.98,112.19c.5.01,1.01.01,1.51.02.37,0,.75,0,1.12,0h0c.25,0,.5,0,.74,0,0,.99,0,1.97,0,2.96,0,.92-.01,1.85-.02,2.77-.27.04-.53.04-.8,0,0,0,0,0,0,0-.35,0-.71,0-1.06,0h0c-.56,0-1.12,0-1.67,0,0-1.85.01-3.71.02-5.56,0-.13.04-.18.17-.18Z"/><path class="cls-10" d="m36.49,103.66c.45.38.59.9.63,1.45.01.15.01.29.01.44h0s-.01.08,0,.12c.04.24-.03.37-.3.32-.14-.03-.17.05-.17.17,0,.2,0,.4,0,.6h0s0,0,0,0c-.02.03-.03.07-.05.1h0c-.1.26-.02.53-.05.8-.02.17.01.5-.05.5-.05.05-.04.1,0,.14.87,0,1.74,0,2.61,0-.14-.46-.04-.93-.08-1.4-.01.02-.02.05-.03.07,0-.03.01-.05.03-.07-.09-.2-.02-.41-.06-.61,0,0,0,0,0,0h0c.02-.31.02-.32-.27-.32-.16,0-.21-.06-.19-.2.01-.14.01-.28.02-.42h0s.03-.03.04-.04h0c.31-.24.62-.49.94-.72.5-.36,1.04-.61,1.68-.58.16.04.31.08.48.06.19-.02.25-.1.23-.31-.01-.02-.03-.04-.05-.06-.41-.18-.84-.27-1.28-.31-.55-.08-1.09,0-1.62.12-.78.19-1.54.16-2.27-.19-.11-.05-.23-.1-.31.02-.09.13.03.21.11.29Zm2.47,2.61s0,.02,0,.03c0-.01,0-.02,0-.03Z"/></svg>