<?xml version="1.0" encoding="UTF-8"?><svg id="Calque_1" xmlns="http://www.w3.org/2000/svg" viewBox="0 0 128 128"><defs><style>.cls-1{stroke:#e30613;stroke-width:8px;}.cls-1,.cls-2,.cls-3,.cls-4,.cls-5,.cls-6,.cls-7,.cls-8{stroke-linejoin:round;}.cls-1,.cls-2,.cls-3,.cls-4,.cls-7,.cls-8,.cls-9{stroke-linecap:round;}.cls-1,.cls-4,.cls-8{fill:none;}.cls-10,.cls-2,.cls-3,.cls-4,.cls-11,.cls-5,.cls-6,.cls-7,.cls-8,.cls-9{stroke:#000;}.cls-10,.cls-2,.cls-6,.cls-9{fill:#fff;}.cls-10,.cls-11,.cls-9{stroke-miterlimit:1;}.cls-3,.cls-11,.cls-5{fill:#b2f0e9;}.cls-7{fill:#bfe6fc;}.cls-8{stroke-dasharray:0 0 4.5 4.5;}</style></defs><path class="cls-7" d="m100.66,114.21l5.85,8.58c.75,1.09,2.25,1.38,3.33.62.68-.47,1.05-1.21,1.05-1.98,0-.47-.13-.93-.41-1.35l-5.56-8.15c-1.31.91-2.74,1.68-4.26,2.27Z"/><path class="cls-10" d="m93.59,96.76c.18-3.33-.96-8.29-.84-8.46.12-.17-.4-4.08-.4-4.08l-12.31,16.66"/><path class="cls-3" d="m85.67,28.91c-.51-.9-.42-2.1.21-2.92.07-.09.15-.19.15-.31,0-.1-.07-.18-.13-.26-.33-.44-.49-1.01-.39-1.55.1-.54.49-1.03,1.01-1.2-.6-.59-.45-1.71.21-2.24.66-.53,1.66-.49,2.38-.05-.08-.51.29-1.01.77-1.21.48-.2,1.02-.15,1.52-.02.67.18,1.38.6,1.49,1.28.21-.37.72-.45,1.14-.36,1.12.22,1.95,1.41,1.78,2.53.43-.08.89-.11,1.28.07.4.18.7.62.61,1.05.33-.27.82-.22,1.23-.07.29.11.58.26.76.51.18.25.22.62.04.87.6.04,1.11.59,1.12,1.19,0,.6-.5,1.16-1.09,1.22.31.43.37,1.01.17,1.5-.2.48-.67.85-1.19.93.23.13.2.5,0,.66-.2.16-.5.15-.75.08-.29.85-.57,1.71-.86,2.56-.18.55-.37,1.11-.72,1.58-.35.47-.88.83-1.46.82"/><path class="cls-10" d="m86.51,26.45c.8-2.03,3.7-3.38,5.69-2.49l6.28,3.44-.38,1.11-4.85,14.32-8.93.73,1.96-5.33s-2.5-1.29-1.94-4.93c.28-1.81,1.28-4.59,2.17-6.85Z"/><polyline class="cls-2" points="89.66 29.81 87.52 32.72 88.86 33.13"/><path class="cls-6" d="m86.28,38.23s1.12.98,4.52,0"/><path class="cls-5" d="m89.22,22.93c-.43.56-.47,1.38-.11,1.98.36.6,1.1.95,1.8.83-.3.15-.39.56-.26.87s.43.51.74.63c.65.26,1.42.21,2.03-.12-.1.55.07,1.15.46,1.55.39.41.97.62,1.53.54-.61.29-1,.99-.92,1.66.08.67.61,1.26,1.27,1.41.66.15,1.4-.17,1.75-.75.56-.05,1.09-.37,1.38-.85s.36-1.09.17-1.61c.38,0,.73-.25.92-.59.19-.33.24-.73.24-1.11,0-.94-.32-1.9-1.01-2.54s-1.77-.88-2.6-.46c-.09.05-.19.11-.3.09-.14-.02-.23-.17-.29-.3-.28-.58-.56-1.2-1.1-1.55-.65-.43-1.59-.32-2.13.24-.18-.84-.92-1.58-1.78-1.61-.86-.03-1.7.78-1.56,1.63"/><path class="cls-10" d="m88.42,24.26s-.05.02-.14.02c-.09,0-.22-.02-.37-.08-.15-.06-.32-.17-.44-.35-.06-.09-.1-.22-.07-.34.03-.12.12-.25.26-.27v.09s-.01,0-.03,0c-.51-.02-.91-.31-1.1-.57-.1-.13-.16-.25-.19-.33-.03-.09-.04-.13-.03-.14.02,0,.07.19.27.43.19.23.58.5,1.05.52.01,0,.02,0,.03,0l.46.02-.45.07c-.1.02-.17.11-.19.2-.02.09,0,.2.05.28.1.17.26.27.39.34.28.13.48.1.48.12Z"/><path class="cls-10" d="m87.52,62.6c0,.05-.96.11-2.07.5-1.11.38-1.91.92-1.94.88-.01-.02.17-.18.5-.39.33-.21.81-.46,1.38-.66.57-.19,1.1-.29,1.49-.33.39-.04.63-.02.63,0Z"/><path class="cls-10" d="m82.94,101.02c1.32-2.63,4.54-10.78,4.54-10.78l2.25-2.69s3.22-4.26,3.77-6.51c.95-3.87-.58-7.2-1.35-8.45s-2.89-3.98-3.15-5.35c-.26-1.37-.27-3.99-.27-3.99l5.3-13.14s1.59-3.82.66-6.21c-.93-2.39-2.52-2.87-2.52-2.87l-1.6-.46c-.08-.19-.19-.38-.35-.53l-10.85-10.61,12.15-4.38,1.66.62,3.14-.2,1.11-.95s-.26-.75-.75-.69c-.49.07-1.01.36-1.01.36l-.65-.1.75-1.4.62-.65s.03-.35-.06-.51c-.1-.16-.39-.27-.5-.25-.11.03-.29.18-.29.18,0,0,.18-.72-.18-.9-.35-.19-.77.19-.77.19,0,0,.05-.57-.12-.68s-.39-.1-.43-.1-.48.24-.48.24h-.29s-.09-.73-.25-.8-.29-.04-.41,0c-.12.04-.47.29-.47.29l-.52.77s-1.43,1.76-1.51,1.8c-3.42.46-15.28,2.04-16.06,2.31-.91.31-1.84,1.31-1.97,1.64-.13.33-.52,1.23-.64,2.09-.12.86,2.39,7.58,5.92,11.25,1.6,1.67,3.14,3.12,4.36,4.23l-.72.33s-4,3.13-4.66,4.33c-.66,1.19-.54,2.48-.79,3.72-.31,1.53.59,3.23-.08,4.9-.66,1.67-1.86,10.58-1.07,14.16.79,3.58,1.41,5.5,1.48,5.85.07.36-5.34,20.6-5.34,20.6"/><path class="cls-10" d="m84.01,45.42s-.06-.03-.17-.11c-.12-.09-.28-.2-.47-.34-.41-.29-.99-.73-1.69-1.29-1.4-1.12-3.31-2.73-5.07-4.84-1.76-2.12-2.95-4.32-3.69-5.96-.36-.82-.63-1.5-.8-1.97-.08-.22-.14-.4-.19-.55-.04-.13-.06-.19-.06-.19s.04.06.09.18c.06.14.13.32.22.53.18.47.47,1.13.85,1.95.76,1.62,1.96,3.8,3.71,5.9,1.75,2.1,3.63,3.72,5.01,4.86.69.57,1.26,1.02,1.66,1.33.18.15.33.27.45.36.1.08.15.13.15.14Z"/><path class="cls-11" d="m92.91,70.27c1.16-.48,1.79-1.96,1.33-3.13-.46-1.17-1.92-1.82-3.1-1.39l-.36-.4c-.77-.59-2.01-.43-2.61.34-.6.77-.44,2.01.32,2.61-.91.33-1.69,1.07-1.95,2.01-.26.93.07,2.03.87,2.58.8.55,2.02.43,2.61-.34.41.85,1.31,1.46,2.25,1.45.94,0,1.86-.7,2.04-1.63.18-.92-.47-1.96-1.4-2.11Z"/><path class="cls-5" d="m92.63,87.16c-.48-.88-1.32-1.59-2.31-1.76-.99-.18-2.09.26-2.58,1.13-.49.87-.23,2.13.64,2.63-1.31-.51-2.93.43-3.28,1.8-.35,1.36.47,2.88,1.74,3.49,1.27.6,2.86.35,4-.48-.38,1.06.41,2.34,1.52,2.59,1.1.24,2.3-.47,2.73-1.51.43-1.04.15-2.31-.58-3.17,1.03-.15,1.84-1.19,1.75-2.23-.09-1.04-1.08-1.91-2.12-1.88.46-.55.22-1.52-.44-1.79-.66-.27-1.51.27-1.55.99"/><path class="cls-10" d="m92.13,86.95s-.01-.1.04-.28c.06-.18.21-.44.53-.63.16-.09.36-.17.59-.18.23,0,.49.06.7.25.21.18.36.45.41.75.05.3,0,.66-.23.94l-.05-.1c.85-.04,1.86.58,2.15,1.64.29,1.05-.48,2.4-1.76,2.62l.06-.15c.49.58.81,1.35.81,2.17,0,.41-.08.83-.27,1.22-.18.39-.47.73-.83.99-.35.26-.78.44-1.23.5-.45.06-.93-.04-1.34-.28-.4-.25-.72-.62-.91-1.06-.2-.43-.24-.95-.08-1.42l.16.12c-.14.1-.29.2-.45.29-1.01.56-2.23.71-3.28.35-1.06-.35-1.85-1.27-2.13-2.27-.14-.5-.15-1.04,0-1.53.14-.49.43-.92.8-1.24.36-.33.8-.54,1.25-.65.45-.1.93-.07,1.34.09l-.07.16c-.63-.37-.92-1.08-.92-1.71-.02-.65.3-1.23.73-1.6.43-.37.95-.55,1.43-.61.48-.05.93.04,1.3.18.74.3,1.18.79,1.43,1.11.25.34.33.55.33.55-.01,0-.11-.19-.37-.52-.26-.31-.7-.77-1.42-1.05-.36-.13-.79-.22-1.25-.16-.46.06-.95.24-1.35.59-.4.35-.69.89-.67,1.49,0,.59.28,1.24.85,1.57l-.07.16c-.38-.14-.82-.17-1.24-.07-.42.1-.83.31-1.17.61-.34.3-.61.7-.74,1.15-.13.45-.12.95.01,1.42.26.94,1.01,1.8,2,2.13.99.34,2.15.2,3.11-.33.15-.09.3-.18.43-.28l.27-.19-.11.31c-.29.84.18,1.79.9,2.23.73.46,1.69.28,2.34-.2.33-.24.6-.56.77-.91.17-.36.25-.75.25-1.13,0-.77-.3-1.51-.76-2.05l-.1-.12.16-.02c.57-.09,1.06-.45,1.36-.91.3-.46.4-1.01.28-1.49-.25-.98-1.19-1.58-1.99-1.55h-.14s.09-.1.09-.1c.2-.24.26-.56.22-.84-.04-.28-.18-.53-.36-.7-.18-.17-.42-.24-.63-.24-.21,0-.4.07-.56.15-.31.17-.47.42-.53.59-.07.17-.06.27-.08.27Z"/><path class="cls-3" d="m91.36,50.78c.34-.04.6-.34.67-.67s-.03-.68-.19-.98c-.19-.34-.47-.64-.83-.79-.36-.15-.81-.11-1.1.14s-.41.72-.19,1.05l-.05.12c-.57-.25-1.25-.3-1.79,0-.55.29-.9.97-.72,1.56.18.59.96.95,1.48.61-.39.45-.59,1.09-.42,1.67.16.57.73,1.03,1.33.98s1.1-.68.94-1.26c.63.23,1.42-.14,1.65-.77.23-.63-.14-1.42-.78-1.65Z"/><path class="cls-3" d="m84.65,53.29c-.81-.39-1.73-.47-2.63-.55.98-1.26.9-3.23-.18-4.41.64-.68.68-1.85.08-2.58-.6-.72-1.76-.9-2.55-.38l.07-.49c-.75-.62-1.89-.7-2.72-.18-.82.51-1.26,1.57-1.04,2.52-1.19,0-2.29,1.02-2.38,2.2-.09,1.19.86,2.36,2.04,2.52-.84,1.17-.61,2.97.5,3.89s2.93.8,3.91-.26c.39,1.19.95,2.55,2.17,2.87.88.24,1.79-.18,2.55-.68.85-.56,1.67-1.38,1.67-2.4,0-.9-.68-1.69-1.49-2.08Z"/><path class="cls-3" d="m84.6,74.02c-.45-.26-1-.3-1.5-.17.97-.82,1.06-2.48.16-3.38,1.09-.66,1.41-2.3.67-3.34-.75-1.03-2.4-1.24-3.38-.41l.11.16c-.66-.49-1.46-.85-2.28-.82-.82.02-1.66.48-1.97,1.25s.05,1.78.83,2.04c-.26.16-.49.35-.69.58-.86-.2-1.82.06-2.44.69-.71.73-.93,1.89-.53,2.83-1.29.54-2.09,2.05-1.82,3.42.28,1.37,1.61,2.45,3,2.44-.56,1.41.12,3.2,1.48,3.88,1.36.68,3.2.17,4-1.12,1.13.48,2.57.11,3.32-.87.75-.98.74-2.47-.03-3.43.89.04,1.76-.59,2.01-1.44s-.16-1.85-.94-2.29Z"/><path class="cls-10" d="m74.56,79.67s-.08,0-.22-.02c-.14-.02-.35-.07-.59-.17-.49-.2-1.17-.64-1.68-1.44h0c-.35-.48-.52-1.16-.46-1.87.03-.35.1-.71.22-1.07.12-.36.31-.7.56-1.01.35-.44.79-.78,1.26-.99l-.04.11c-.32-.77-.2-1.61.15-2.21.34-.61.91-.96,1.39-1.1.49-.15.9-.12,1.17-.07.14.03.24.06.3.08.07.03.1.04.1.05,0,.01-.15-.04-.41-.07-.26-.03-.67-.04-1.13.12-.46.15-.98.49-1.29,1.07-.31.56-.42,1.36-.12,2.07l.03.08-.08.03c-.45.2-.87.52-1.2.94-.48.58-.68,1.31-.75,1.98-.07.67.09,1.31.41,1.78h0s0,0,0,0c.47.77,1.12,1.22,1.59,1.44.48.21.78.23.78.26Z"/><path class="cls-10" d="m83.09,73.85s.04-.01.12-.02c.08-.01.2-.01.36,0,.31.02.8.12,1.28.49.23.19.46.44.61.77.07.16.14.34.17.53.04.19.03.41-.03.61-.12.41-.37.78-.71,1.1-.34.3-.77.61-1.31.6l.06-.13c.56.57.69,1.49.48,2.31-.1.42-.28.82-.55,1.18-.28.36-.66.63-1.08.82-.74.32-1.61.39-2.32.03l.12-.04c-.27.64-.82,1.11-1.41,1.34-.6.23-1.22.26-1.79.15-.56-.11-1.07-.35-1.45-.68-.39-.33-.66-.72-.85-1.09-.37-.77-.4-1.47-.35-1.93.05-.46.16-.69.16-.69.02,0-.07.24-.1.7-.03.45.01,1.13.39,1.87.19.36.46.73.83,1.04.37.31.86.53,1.4.64.54.09,1.14.06,1.7-.16.56-.22,1.06-.66,1.31-1.25l.04-.08.08.04c.65.32,1.46.26,2.17-.04.4-.18.76-.43,1.01-.76.25-.33.43-.72.53-1.11.2-.78.08-1.64-.43-2.16l-.14-.14h.2c.47.01.88-.26,1.21-.55.32-.3.57-.66.68-1.03.06-.19.07-.37.03-.55-.03-.18-.09-.35-.15-.51-.14-.31-.35-.56-.57-.74-.45-.37-.91-.47-1.22-.51-.31-.03-.48,0-.48-.02Z"/><path class="cls-9" d="m88.32,35.58s2.25.22,3.05-.92"/><rect class="cls-1" x="-1184.25" y="-260.57" width="2655.08" height="1511.77"/><path class="cls-7" d="m13.72,81.33v12.96c0,6.83,3.19,12.91,8.17,16.83,1.25.99,2.62,1.84,4.08,2.54,2.78,1.33,5.9,2.07,9.19,2.07h57.57c2.8,0,5.47-.54,7.92-1.52,1.51-.59,2.94-1.36,4.26-2.27,5.6-3.87,9.27-10.33,9.27-17.65v-12.96s-100.46,0-100.46,0Z"/><path class="cls-4" d="m20.3,92.08c0,9.82,7.96,17.77,17.77,17.77"/><rect class="cls-7" x="7.89" y="73.88" width="112.23" height="7.44" rx="2.75" ry="2.75" transform="translate(128 155.21) rotate(180)"/><path class="cls-7" d="m56.51,31.77c0-5.43-5.7-9.84-12.75-9.84s-12.75,4.41-12.75,9.84h25.5Z"/><path class="cls-7" d="m15.36,121.44c0,.77.36,1.51,1.05,1.98,1.1.76,2.59.47,3.33-.62l6.23-9.13c-1.46-.69-2.83-1.54-4.08-2.54l-6.12,8.97c-.28.41-.41.88-.41,1.35Z"/><line class="cls-4" x1="44.3" y1="57.41" x2="44.3" y2="53.41"/><line class="cls-8" x1="44.3" y1="48.91" x2="44.3" y2="42.16"/><line class="cls-4" x1="44.3" y1="39.91" x2="44.3" y2="35.91"/><line class="cls-4" x1="35.56" y1="57.41" x2="35.56" y2="53.41"/><line class="cls-8" x1="35.56" y1="48.91" x2="35.56" y2="42.16"/><line class="cls-4" x1="35.56" y1="39.91" x2="35.56" y2="35.91"/><line class="cls-4" x1="52.44" y1="57.41" x2="52.44" y2="53.41"/><line class="cls-8" x1="52.44" y1="48.91" x2="52.44" y2="42.16"/><line class="cls-4" x1="52.44" y1="39.91" x2="52.44" y2="35.91"/><line class="cls-4" x1="48.37" y1="63.01" x2="48.37" y2="59.01"/><line class="cls-8" x1="48.37" y1="54.51" x2="48.37" y2="47.76"/><line class="cls-4" x1="48.37" y1="45.5" x2="48.37" y2="41.5"/><line class="cls-4" x1="40.06" y1="63.01" x2="40.06" y2="59.01"/><line class="cls-8" x1="40.06" y1="54.51" x2="40.06" y2="47.76"/><line class="cls-4" x1="40.06" y1="45.5" x2="40.06" y2="41.5"/><line class="cls-4" x1="13.71" y1="16.81" x2="13.71" y2="73.88"/><line class="cls-4" x1="43.76" y1="16.81" x2="43.76" y2="21.06"/><path class="cls-4" d="m43.76,16.81c0-5.87-4.81-10.68-10.68-10.68h-8.7c-2.93,0-5.6,1.2-7.54,3.14-1.94,1.94-3.14,4.6-3.14,7.54"/><path class="cls-3" d="m100.67,22.23c-.01-.53-.37-1.05-.87-1.2-.51-.15-1.12.12-1.3.61-.12-.47-.63-.77-1.11-.74-.48.03-.92.33-1.19.73-.21.3-.33.65-.41,1.01-.45.91-.26,2.11.48,2.81.32.3.86.5,1.18.2.54.67,1.65.79,2.31.23.66-.55.75-1.67.19-2.32.44-.3.73-.81.72-1.34Z"/></svg>