<?xml version="1.0" encoding="UTF-8"?><svg id="Calque_1" xmlns="http://www.w3.org/2000/svg" viewBox="0 0 200.13 128"><defs><style>.cls-1,.cls-2,.cls-3,.cls-4,.cls-5,.cls-6,.cls-7,.cls-8{stroke-linecap:round;stroke-linejoin:round;}.cls-1,.cls-9{fill:#87ccf3;}.cls-1,.cls-3,.cls-4,.cls-5,.cls-6,.cls-7,.cls-8{stroke:#000;}.cls-1,.cls-3,.cls-7{stroke-width:2px;}.cls-2{stroke:#e30613;stroke-width:8px;}.cls-2,.cls-7{fill:none;}.cls-3{fill:#fff;}.cls-4{fill:#b2f0e9;}.cls-5{fill:#f387d5;}.cls-6{fill:#ffbeed;}.cls-8{fill:#d6d6d6;}</style></defs><path class="cls-3" d="m173.48,10.16l10.73,11.96-27.59,25.19s.65,2.85-.4,6.2c-1.05,3.36-5.59,7.94-5.59,7.94l-6.26,6.76s-.77.94-2.13.99c-.53.02-1.15-.1-1.85-.47-1.39-.74-1.59-1.91-1.5-2.81.07-.7.32-1.22.32-1.22l1.49-2.26-3.02,2.72-8.54,7.66c-.56.5-1.27.72-1.97.68-.7-.04-1.38-.34-1.88-.9-1-1.12-.91-2.85.21-3.85l-2.91,2.61c-.55.5-1.27.73-1.96.69-.69-.04-1.38-.35-1.88-.9-.54-.6-.76-1.38-.67-2.13.07-.64.37-1.26.88-1.71l2.91-2.61c-.55.5-1.27.73-1.96.69-.7-.04-1.38-.34-1.88-.9-1-1.12-.91-2.85.21-3.84l5.13-4.6c-.55.5-1.27.73-1.96.69-.7-.04-1.38-.34-1.88-.9-1-1.11-.9-2.84.21-3.84l14.47-12.98s2.59-2.63,5.63-3.06c3.04-.44,5.43-.04,5.43-.04l28.22-25.76Z"/><polyline class="cls-3" points="140.7 62.44 145 58.19 147.03 56.2"/><line class="cls-3" x1="123.35" y1="56.05" x2="131.05" y2="49.15"/><line class="cls-3" x1="121.86" y1="64.71" x2="134.69" y2="53.2"/><line class="cls-3" x1="138.32" y1="57.25" x2="125.49" y2="68.76"/><rect class="cls-2" x="-52.84" y="-68.38" width="2655.08" height="1511.77"/><path class="cls-6" d="m75.89,40.14c.31-1.27.32-3-.09-4.76-.3-1.26-.79-2.4-1.54-3.44-.9-1.25-1.96-2.37-3.18-3.33-1.29-1.01-2.71-1.82-4.2-2.49-.05-.02-.11-.05-.17-.06-.17-.04-.37-.22-.5-.09-.18.18.04.37.14.52.93,1.51,1.73,3.09,2.24,4.79.62,2.06.83,4.17-.02,6.23-.39.94-.78,1.85-.82,2.9-.13,2.89,2.58,4.62,5.13,3.62,1.44-.57,2.29-1.61,3.01-3.88Z"/><path class="cls-5" d="m24.16,79.51c-.01.05-.03.1-.04.15l20.34,4.8c.02-.1.04-.21.07-.33.15-.57.3-1.14.43-1.71.23-.99.45-1.98.68-2.97.01-.06.02-.12.03-.18l-.53-.13c-.59-.29-1.23-.39-1.88-.45-.23-.06-.45-.11-.68-.16-.34-.44-.86-.49-1.34-.6-.94-.22-1.88-.48-2.84-.65-1.84-.49-3.7-.89-5.55-1.33-.18-.04-.36-.09-.55-.09-.03-.04-.06-.09-.08-.15-.05-.42.08-.82.17-1.21,1.51-6.4,3.02-12.8,4.53-19.19.03-.12.06-.25.09-.37.28-1.07.37-1.13,1.42-.9,1.72.38,3.42.84,5.15,1.19,1.46.39,2.93.73,4.41,1.04,1,.17,1.94.73,3.01.45.39-1.93,1.11-3.8,1.19-5.8.1-2.46-.89-4.5-2.48-6.3-.76-.86-1.06-1.91-1.09-3.03-.02-.66.14-1.31,1.03-1.32-.71-.75-1.73-.67-2.61-.89-2.18-.56-4.37-1.07-6.57-1.56-.37-.08-.73-.18-1.09.05.81.46.59,1.01.25,1.69-.85,1.69-2.55,2.22-4.03,3.04-1.89,1.05-3.1,2.62-3.66,4.66-2.96,10.66-5.18,21.51-7.78,32.26Z"/><path class="cls-6" d="m37.73,53.55c1.97.5,3.96.97,5.94,1.46,1.47.34,2.94.69,4.41,1.03h0c.98.23,1.95.46,2.93.68-.91,3.89-1.81,7.77-2.73,11.66-.86,3.64-1.74,7.27-2.61,10.91-1.09-.08-2.14-.33-3.15-.74,0,0,0,0,0,0-1.39-.33-2.78-.66-4.18-.98h0s0,0,0,0c-2.2-.52-4.39-1.04-6.59-1.56,1.71-7.3,3.43-14.6,5.13-21.9.12-.49.3-.68.84-.54Z"/><path class="cls-8" d="m43.56,19.53c1.41,1.91,1.5,4.07,1.15,6.3-.09.59-.23,1.17-.34,1.75h0c-.05.15-.13.29-.14.45-.08.97-.47,1.44-1.49.99-.51-.22-.73.03-.82.53-.15.8-.35,1.59-.52,2.38,0,0,0,0,0,0h0c-.1.12-.19.24-.29.37h0c-.63.94-.56,2.08-.92,3.09-.22.64-.41,1.97-.66,1.92-.24.14-.26.34-.13.57,3.43.8,6.85,1.6,10.28,2.41-.15-1.94.69-3.71.94-5.58-.06.09-.12.18-.17.27.04-.1.09-.19.17-.27-.18-.85.31-1.61.33-2.44,0,0,0,0,0,0h0c.36-1.19.37-1.23-.77-1.49-.62-.14-.76-.41-.57-.98.18-.53.31-1.08.46-1.62h0c.07-.04.13-.08.2-.12h0c1.45-.66,2.88-1.37,4.35-1.98,2.3-.97,4.67-1.45,7.15-.76.57.31,1.16.6,1.82.67.77.08,1.07-.18,1.2-1.03-.03-.1-.08-.2-.15-.28-1.44-1.06-3.04-1.82-4.74-2.37-2.09-.8-4.28-1.01-6.47-.99-3.26.03-6.2-.79-8.78-2.8-.39-.3-.82-.6-1.26-.2-.49.45-.08.86.19,1.23Zm7.34,12.53s-.03.08-.04.11c.01-.04.03-.08.04-.11Z"/><path class="cls-1" d="m92.93,57.09h13.91c7.33,0,13.28,5.95,13.28,13.28v48.73h-40.46v-48.73c0-7.33,5.95-13.28,13.28-13.28Z" transform="translate(97.57 221.26) rotate(-130.41)"/><line class="cls-7" x1="130.4" y1="88.69" x2="104.17" y2="57.88"/><path class="cls-9" d="m142.41,85.01c-2.78,0-5.84-1.09-5.97-1.14-.25-.09-.39-.36-.31-.62,1.05-3.5,4.57-6.69,7.38-6.69,1.07,0,2.94.48,3.44,3.72.22,1.44-.02,2.57-.71,3.38-.77.89-2.05,1.34-3.83,1.34h0Zm-2.51-2.96c.62.18,1.74.47,2.76.47.55,0,1.28-.09,1.64-.51.25-.29.33-.74.24-1.34-.15-1-.57-1.51-1.23-1.51-1.17,0-2.74,1.37-3.4,2.89Z"/><path d="m143.51,77.07c1.42,0,2.58.94,2.94,3.3.5,3.28-1.63,4.14-4.05,4.14-2.72,0-5.8-1.11-5.8-1.11.99-3.3,4.35-6.33,6.9-6.33m-.85,5.95c1.41,0,2.67-.51,2.37-2.43-.21-1.38-.9-1.93-1.73-1.93-1.49,0-3.47,1.78-4.05,3.71,0,0,1.81.65,3.41.65m.85-6.95c-3,0-6.75,3.36-7.86,7.04-.15.51.12,1.05.62,1.23.13.05,3.27,1.17,6.14,1.17,1.93,0,3.35-.51,4.21-1.52.79-.92,1.07-2.19.82-3.78-.58-3.74-2.94-4.14-3.93-4.14h0Zm-2.89,5.66c.7-1.17,1.91-2.07,2.68-2.07h0c.16,0,.57,0,.74,1.09.05.31.06.72-.12.94-.18.21-.64.34-1.26.34-.69,0-1.45-.14-2.03-.29h0Z"/><line class="cls-7" x1="127.28" y1="85.02" x2="133.49" y2="79.73"/><line class="cls-7" x1="123.95" y1="81.11" x2="130.16" y2="75.82"/><line class="cls-7" x1="120.62" y1="77.2" x2="126.83" y2="71.91"/><line class="cls-7" x1="117.29" y1="73.28" x2="123.5" y2="68"/><line class="cls-7" x1="113.96" y1="69.37" x2="120.17" y2="64.08"/><line class="cls-7" x1="110.63" y1="65.46" x2="116.83" y2="60.17"/><line class="cls-7" x1="107.29" y1="61.55" x2="113.5" y2="56.26"/><path class="cls-4" d="m87.69,76.8c-.86-.28-1.82-.17-2.63.22,1.38-1.73.96-4.62-.88-5.86,1.63-1.51,1.64-4.43.01-5.95-1.63-1.52-4.54-1.3-5.93.44l.24.23c-1.3-.62-2.78-.96-4.18-.64-1.4.32-2.68,1.4-2.96,2.81s.69,3.03,2.11,3.22c-.39.35-.72.77-.99,1.23-1.54-.05-3.1.73-3.95,2.02-.98,1.49-.95,3.56.05,5.03-2.03,1.36-2.89,4.23-1.95,6.48.94,2.26,3.59,3.66,5.98,3.16-.48,2.61,1.3,5.44,3.86,6.16,2.56.71,5.53-.8,6.47-3.28,2.11.45,4.44-.69,5.4-2.62.95-1.93.43-4.48-1.21-5.88,1.53-.24,2.82-1.61,2.95-3.16s-.91-3.12-2.38-3.61Z"/><path class="cls-4" d="m115.54,91.12c-.27.58-.27,1.26-.05,1.87-1.11-1.1-3.18-1.04-4.19.16-.93-1.27-2.99-1.5-4.19-.48-1.2,1.03-1.27,3.09-.16,4.21l.18-.15c-.54.86-.89,1.88-.78,2.89.11,1.01.77,2,1.74,2.3.97.31,2.19-.24,2.43-1.23.22.3.49.57.79.79-.16,1.08.27,2.24,1.11,2.94.97.8,2.43.95,3.55.36.8,1.54,2.75,2.37,4.41,1.88,1.66-.49,2.86-2.24,2.7-3.96,1.8.54,3.93-.49,4.64-2.23.7-1.75-.13-3.96-1.8-4.82.48-1.45-.14-3.18-1.42-4-1.29-.82-3.12-.65-4.24.39-.04-1.1-.91-2.11-1.99-2.32s-2.27.39-2.73,1.39Z"/></svg>