<?xml version="1.0" encoding="UTF-8"?>
<svg id="Calque_1" data-name="Calque 1" xmlns="http://www.w3.org/2000/svg" viewBox="0 0 200 128">
  <defs>
    <style>
      .cls-1, .cls-2, .cls-3, .cls-4, .cls-5, .cls-6, .cls-7, .cls-8, .cls-9, .cls-10, .cls-11, .cls-12 {
        stroke: #000;
      }

      .cls-1, .cls-2, .cls-3, .cls-4, .cls-5, .cls-6, .cls-7, .cls-8, .cls-13 {
        stroke-linecap: round;
        stroke-linejoin: round;
      }

      .cls-1, .cls-7, .cls-10 {
        fill: #fff;
      }

      .cls-2, .cls-8, .cls-13, .cls-12 {
        fill: none;
      }

      .cls-3, .cls-4, .cls-5, .cls-6, .cls-7, .cls-8 {
        stroke-width: 2px;
      }

      .cls-3, .cls-11 {
        fill: #d6d6d6;
      }

      .cls-4 {
        fill: #87ccf3;
      }

      .cls-5 {
        fill: #b2f0e9;
      }

      .cls-6 {
        fill: #a07637;
      }

      .cls-9 {
        fill: #fce9b9;
      }

      .cls-9, .cls-10, .cls-11, .cls-12 {
        stroke-miterlimit: 10;
      }

      .cls-13 {
        stroke: #fff;
        stroke-width: 8px;
      }
    </style>
  </defs>
  <line class="cls-3" x1="3.28" y1="107.61" x2="196.74" y2="107.61"/>
  <rect class="cls-5" x="13.87" y="74.68" width="178.85" height="22.79" rx="8.22" ry="8.22"/>
  <path class="cls-6" d="m187.13,96.35H17.97c-.39,0-.7-.31-.7-.7v-46.62c0-.39-.31-.7-.7-.7h-4.18c-.39,0-.7.31-.7.7v58.02c0,.39.31.7.7.7h4.18c.39,0,.7-.31.7-.7v-5.19c0-.39.31-.7.7-.7h168.46c.39,0,.7.31.7.7v5.19c0,.39.31.7.7.7h4.18c.39,0,.7-.31.7-.7v-10c0-.39-.31-.7-.7-.7h-4.88Z"/>
  <path class="cls-4" d="m180.24,72.02c-5.42-1.82-19.68,1.68-26.35-.98-6.66-2.66-6.35-1.54-11.47,0-5.11,1.54-4.8-1.68-7.75-.98-2.94.7-4.03,1.82-7.28,1.54-3.25-.28-68.66-6.73-63.08,3.08,0,0,15.81-.42,20.77,7.15,4.96,7.57,7.9,26.76,13.95,28.87,6.04,2.1,13.33-3.92,18.75-.98,5.42,2.94,11.16,2.1,15.34,2.38,4.18.28,8.83-2.38,15.19-1.96,6.35.42,8.37,2.8,12.4,1.12,4.03-1.68,6.82-2.66,8.68-1.26,1.86,1.4,3.1-.42,5.89-.14,2.79.28,4.65,3.64,10.54,3.08,5.89-.56-.15-39.09-5.58-40.92Z"/>
  <path class="cls-9" d="m115.36,61.71s5,3.66,4.92,7.92c-.08,4.26-4.31,7.79-5.32,8.38-1.01.59-9.25,2.04-12.58,2.54-1.57.24-5.56,1.34-7.37-1.09-2.04-2.73-1.52-9.28,4.16-13.83l16.2-3.92Z"/>
  <path class="cls-10" d="m96.15,44.08s-1.11,4.12-1.49,5.9c-.38,1.78-.75,7.88-.4,9.93.35,2.05-1.89,11.42-2.01,13.25-.12,1.83.3,4.05-.28,5.41-.58,1.35-.9,2.94-.95,3.42s-.58.18-.72-.88c-.13-1.06.73-3.24.46-3.3-.27-.07-3.76,1.4-4.7,1.95-.94.55-4.79.41-4.62-.02.16-.43,1.16-1.18,2.92-2.25,1.76-1.08,4.8-2.55,4.86-4.28.05-1.73-.84-8.76-.38-12.15.46-3.38.18-9.67.16-13.1,0,0-.83-10.12,4.46-11.98"/>
  <path class="cls-10" d="m124,109.07c-1.17-.5-2.64-1.55-3.19-1.83s-3.15,1.95-3.15,1.95c0,0,.79,2.02,1.12,4.88.33,2.86-.41,5.31-.81,6.39-.41,1.07.01,2.55.14,3.12s1.3,2.1,3.78.14c2.49-1.96,3.58-3.51,3.03-5.26-.56-1.75-1.2-4.57-.71-5.95.49-1.39.96-2.93-.21-3.42Z"/>
  <path class="cls-10" d="m134.88,106.57c-1.17-.5-2.64-1.55-3.19-1.83s-3.15,1.95-3.15,1.95c0,0,.79,2.02,1.12,4.88.33,2.86-.41,5.31-.81,6.39-.41,1.07.01,2.55.14,3.12s1.3,2.1,3.78.14c2.49-1.96,3.58-3.51,3.03-5.26-.56-1.75-1.2-4.57-.71-5.95.49-1.39.96-2.93-.21-3.42Z"/>
  <path class="cls-9" d="m132.05,103.5s-10.54-22.95-17.14-31.33c-2.19-2.78-6.3-3.22-8.54-1.77h0c-2.24,1.45-1.85,6.05-.46,8.19,0,0,10.67,14.38,20.62,26.77,1.6,1.99,1.6,3.42,3.84,1.97h0c2.24-1.45,3.07-1.69,1.68-3.83Z"/>
  <path class="cls-9" d="m103.53,75c-1.43-2.11-5.52-4.24-7.73-2.75h0c-2.21,1.5-2.43,4.8-.91,8,5.37,11.3,21.46,28.49,21.46,28.49,1.43,2.11,1.98,1.43,4.18-.07s.89-2.05-.32-4.3c-7.57-13.97-16.68-29.37-16.68-29.37Z"/>
  <path class="cls-10" d="m108.09,34.39s2.9-.67,7.35,6.5c1.81,2.92,5.4,11.83,6.96,14.87,1.56,3.04,3.03,9.98,3.65,11.59s3.99,1.99,6.01,2.42c2.02.43,3.21.8,3.51,1.15.3.35-3.29,1.77-4.37,1.56-1.07-.21-4.85-.43-5.09-.27-.24.16,1.3,1.92,1.52,2.97.22,1.05-.18,1.5-.39,1.07-.2-.44-1.03-1.82-2.03-2.91-1-1.09-1.33-3.32-2.05-5.01-.72-1.69-5.94-9.78-6.28-11.84s-2.71-7.69-3.66-9.25c-.95-1.56-3.35-5.07-3.35-5.07"/>
  <path class="cls-11" d="m117.83,61.57l-21.15,4.43-2.17-8.98c-1.3-5.19-3.42-7.78-2.33-12.69,1.09-4.91,1.29-8.34,1.29-8.34l2.26-1.06,9.28-1.02,3.08.49s2.65,8.39,5.03,11.18c.33.39.59.83.72,1.32l3.98,14.68Z"/>
  <path class="cls-10" d="m96.89,32.72l-.65,1.56c-.97.84-1.17,2.37.05,4.96,1.22,2.6,5.21,3.08,7.41-.07,2.19-3.15,1.31-5.27,1.31-5.27,0,0-1.56-.36-2-1.25l-1.14-2.01"/>
  <path class="cls-2" d="m95.28,12.68s.27,1.21.91,1.93h.01"/>
  <path class="cls-2" d="m98.21,14.68c.83-.77,1.16-2.33,1.16-2.33"/>
  <path class="cls-2" d="m103.8,25.13h.01c.11-.05.85-.44,1.02-1.79.19-1.46.8-1.43.54-2.83-.27-1.32-1.49-.44-1.62-.33"/>
  <path class="cls-2" d="m89.95,15.71s1.07.34,2.16.29"/>
  <path class="cls-1" d="m100.33,14.82c-.59.17-1.32.19-2.12-.14-.25.24-.53.4-.87.44-.47.06-.85-.18-1.15-.51,0,.01-.02.03-.03.03-.1.15-.76,1.07-2.02.31-.39.77-1.22,1.03-2.03,1.06-.39.47-1.03.58-1.03.58-.02.06-.06.13-.07.19-1.3,3.15-1.06,5.03-1.03,5.23-.23-.46-.42-.9-.58-1.32.29.79.58,1.34.64,1.46h0s.01.03.01.03h-.01c.15.78.6,2.77,1.38,4.75.66,1.65,1.58,3.29,2.78,4.21,2.77,2.14,4.2,1.87,4.4,1.81.23,0,1.76-.12,3.8-2.99.88-1.23,1.28-3.07,1.42-4.84.17-2.13.02-4.16-.07-4.94h-.01c0-.09-.02-.18-.04-.28-.01.08-.03.13-.03.13-.05-.32-.12-.64-.2-.95-.57-1.55-2.64-3.85-2.91-4.27h-.22Z"/>
  <path class="cls-2" d="m103.47,19.08c.11.29.19.57.23.82"/>
  <path class="cls-2" d="m103.74,20.18s0-.01,0-.02h0c.03-.18.2-1.03.19-2.15v-.03c-.02-2.24-.74-5.45-4.6-6.07,0,0-.49-1.11-1.94-.59,0,0-2.16-1.49-3.89.54-1.54-.08-1.68,1.13-1.68,1.13-3.77,1.85-3.2,5.51-2.48,7.61.02.04.03.07.04.11"/>
  <path class="cls-2" d="m91.02,17.01s-1.37,3.46-.97,5.18"/>
  <path class="cls-2" d="m103.71,19.84h0s.02.15.03.3h0s0,.03,0,.03"/>
  <path class="cls-2" d="m90.03,22.19v-.02"/>
  <path class="cls-2" d="m89.97,21.85s.02.11.06.3"/>
  <path class="cls-2" d="m91.43,26.93h-.01c-.12-.02-.94-.17-1.5-1.41-.61-1.34-1.19-1.14-1.34-2.55-.13-1.34,1.3-.86,1.46-.79"/>
  <path class="cls-2" d="m93.03,13.97c.37.42.71.73,1.02.92.04.03.07.06.1.06"/>
  <path class="cls-2" d="m96.16,14.64l.02-.03"/>
  <path class="cls-1" d="m96.08,20.62s.49,4.23.06,6.52c0,0,.27.38,1.56-.19"/>
  <ellipse class="cls-1" cx="99.3" cy="21.96" rx=".15" ry=".43" transform="translate(-2.16 14.93) rotate(-8.51)"/>
  <ellipse class="cls-1" cx="93.49" cy="22.72" rx=".15" ry=".43" transform="translate(-2.33 14.08) rotate(-8.51)"/>
  <g>
    <path class="cls-7" d="m55.85,73.97c.35,1.3-.42,2.63-1.72,2.98-.89.24-1.81-.05-2.4-.68l-2.36,1.08c-6.25,2.86-12.93,4.67-19.77,5.34l-2.54.25c-.2.84-.84,1.55-1.73,1.79-1.3.35-2.63-.42-2.98-1.72-.23-.87.03-1.74.61-2.33-2.62-5.64-4.25-11.67-4.82-17.86-.8-.22-1.47-.84-1.7-1.71-.35-1.3.42-2.63,1.72-2.98.89-.24,1.8.05,2.4.67l2.29-1.05c6.24-2.86,12.93-4.67,19.77-5.34l2.45-.24c.2-.83.84-1.53,1.73-1.77,1.3-.35,2.63.42,2.98,1.72.22.82,0,1.66-.53,2.25,1.32,2.83,2.4,5.77,3.21,8.77s1.35,6.02,1.64,9.1c.83.2,1.54.84,1.78,1.73Z"/>
    <path class="cls-8" d="m25.24,73.77c-1.13-2.98-1.81-6.1-2.03-9.3"/>
    <path class="cls-8" d="m48.97,67.96c.23,1.86-.39,3.57-1.85,5.09"/>
  </g>
  <g>
    <path class="cls-12" d="m61.8,55.04c.79-4.25,4.97-19.87,24.03-23.43"/>
    <polygon points="66.56 52.68 65.99 51.86 61.94 54.67 59.43 50.43 58.57 50.94 61.63 56.11 66.56 52.68"/>
  </g>
  <g>
    <path class="cls-12" d="m68.87,55.11c1.4-3.24,6.29-13.4,13.48-15.68"/>
    <polygon points="74.01 53.8 73.62 52.88 69.07 54.77 67.51 50.09 66.56 50.41 68.46 56.11 74.01 53.8"/>
  </g>
  <rect class="cls-13" x="-1280.09" y="-443.51" width="2244.45" height="5948.74"/>
</svg>