<?xml version="1.0" encoding="UTF-8"?><svg id="Calque_1" xmlns="http://www.w3.org/2000/svg" viewBox="0 0 128 128.13"><defs><style>.cls-1{stroke:#e30613;stroke-width:8px;}.cls-1,.cls-2,.cls-3{fill:none;}.cls-1,.cls-4,.cls-5,.cls-6,.cls-7,.cls-3,.cls-8,.cls-9{stroke-linecap:round;stroke-linejoin:round;}.cls-2,.cls-4,.cls-5,.cls-6,.cls-7,.cls-3,.cls-8,.cls-10,.cls-9{stroke:#000;}.cls-2,.cls-10{stroke-miterlimit:10;}.cls-4{fill:#76ac75;}.cls-5{fill:#fff;}.cls-6{fill:#afaff9;}.cls-7{fill:#f387d5;}.cls-8{fill:#b4eac3;}.cls-10{fill:#a07637;}.cls-9{fill:#d6d6d6;}</style></defs><rect class="cls-1" x="-391.03" y="-462.45" width="2655.08" height="1511.77"/><line class="cls-10" x1="12.14" y1="103.3" x2="114.01" y2="103.3"/><path class="cls-10" d="m82.81,47.54c-.63,2.54-1.41,4.6-2.33,6.15-1.33,2.23-2.97,3.39-4.87,3.48v45.35c0,.36-.29.65-.65.65s-.65-.29-.65-.65v-30.75c-.28-.05-.61-.18-.94-.48-1.01-.9-1.85-3.11-2.55-6.75l.98-1.93c.88,5.46,1.84,7.19,2.43,7.71.03.03.06.05.08.07v-29.32l1.3.63v14.17c3.13-.21,4.93-4.56,5.93-8.61l1.27.28Z"/><path class="cls-8" d="m93.33,36.75c0-.23,0-.45-.02-.69-.08-2.06-.54-4.34-1.44-6.23-.21-.42-.43-.82-.67-1.19-.92-1.42-2.17-2.47-3.79-2.81.17-.53.26-1.1.26-1.69,0-2.78-2.02-5.03-4.52-5.03-.62,0-1.21.14-1.75.4.55-9.12-3.46-15.14-7.85-15.14s-8.04,5.91-8.69,13.63c-2.85,1.85-4.91,5.39-5.4,9.59-1.25-7.67-4.47-13.12-8.24-13.12-4.39,0-8.04,7.41-8.69,17.1-.65.53-1.26,1.18-1.82,1.91-.66-1.96-1.88-3.95-4.12-5.66-.2-.17-.41-.33-.63-.47-.66-8.06-4.3-14.22-8.69-14.22-4.62,0-8.4,6.79-8.78,15.44-.31-.11-.63-.17-.97-.17-2.28,0-4.13,2.59-4.13,5.79,0,.71.1,1.4.27,2.03-3.6,1.58-7.9,5.9-7.9,10.82,0,6.27,5.92,11.22,11.09,11.22.61,0,1.21-.07,1.79-.21l1.71,2.16c.71.7,1.54,1.33,2.47,1.88.29.16.58.32.89.47l1.29.56c1.89.72,4.03,1.13,6.3,1.13.74,0,1.46-.05,2.17-.14.06,1.54.42,3.01,1.05,4.36.53,1.1,1.22,2.12,2.06,3.02.72.78,1.54,1.47,2.45,2.07.84.56,1.76,1.03,2.73,1.4,1.08.42,2.23.71,3.44.87.65.09,1.31.13,1.99.13,1.22,0,2.39-.15,3.52-.42v27.11c0,.36.29.65.65.65s.65-.29.65-.65v-27.47c.7-.24,1.37-.52,2.01-.84,2.08-1.07,3.82-2.6,5.01-4.44.21-.3.39-.6.54-.91.1-.16.19-.33.27-.5.12.04.25.07.37.09.47.11.95.17,1.43.17h.29c1.34-.03,2.76-.28,4.14-.81,1.76-.68,3.43-1.83,4.71-3.61.02.06.03.14.04.21l.98-1.93c.94-1.98,1.5-4.52,1.44-7.76-.06-2.98-1.28-5.67-2.94-7.86,0-.05-.01-.1-.01-.16,1.41-1.28,2.84-4.13,4.02-5.76l1.3.63v-.08s.03.07.04.1c.22.5.48.98.76,1.44.43.67.92,1.29,1.46,1.84,1.05,1.05,2.3,1.83,3.67,2.26l1.27.28c.3.05.61.08.92.08.08.01.16.01.24.01h.02c.32,0,.62-.02.93-.05.1,0,.2-.04.31-.05.2-.04.4-.07.6-.11.07-.02.15-.04.22-.07.05-.01.09-.02.14-.04.18-.05.35-.09.53-.15.12-.05.24-.1.36-.15.16-.07.33-.13.48-.21.13-.06.24-.13.36-.19.14-.08.28-.16.41-.24.01,0,.03,0,.04-.02.12-.07.23-.15.35-.23.14-.1.28-.19.41-.3.12-.08.23-.18.34-.27.12-.11.25-.22.38-.34.11-.1.21-.2.31-.31.12-.12.24-.24.35-.37.1-.11.19-.23.28-.35.11-.13.22-.26.32-.4.09-.13.17-.25.26-.38.09-.15.19-.29.28-.44.08-.13.15-.27.23-.41.08-.15.16-.31.24-.46.07-.15.13-.29.2-.44.07-.16.14-.33.2-.49.06-.15.11-.31.16-.46.06-.17.12-.34.17-.52.04-.16.08-.32.12-.48.02-.11.05-.21.07-.32.02-.07.03-.15.05-.22.03-.16.06-.33.09-.5.02-.18.05-.37.07-.55.02-.17.03-.35.04-.52.01-.1.02-.19.03-.29,0,0,0,0,0-.02,0-.18.02-.35.02-.53Z"/><path class="cls-10" d="m25,63.12v39.4c0,.36-.29.65-.64.65s-.65-.29-.65-.65v-30.67c-.36-.09-.69-.28-1.01-.57-.96-.85-1.77-2.56-2.49-5.23-.55-2.03-1.03-4.61-1.44-7.66,0-.06,0-.12-.02-.18-.03-.05-.07-.11-.11-.16l1.71,2.16c1.13,7.24,2.47,9.45,3.21,10.11.05.04.1.08.15.11v-7.87l1.29.56Z"/><path class="cls-5" d="m80.48,74.08c.13-.23.25-.47.38-.71.09-.16.18-.31.28-.45-.09-.95.1-2.01.14-2.92.07-1.34.15-2.67.25-4.01.18-2.67.41-5.34.68-8.01.17-1.65,1.96-1.09,3.03-.68.46.18,1.12.43,1.31.95.18.49-.08,1.29-.17,1.8-.39,2.2-.79,4.39-1.18,6.59-.27,1.52-.55,3.04-.9,4.54-.18.75-.38,1.49-.61,2.23-.02.07-.04.13-.06.2.13.36.2.75.21,1.13.02.69-.08,1.49-.42,2.08-.04.08-.16.21-.21.08-.01-.03.02-.1.02-.14,0-.14-.07-.28-.19-.3-.02.02-.04.05-.05.07-.05.07-.09.15-.11.23-.02.08,0,.16.01.24.04.15.11.3.06.46-.01.04-.07.04-.12.03-.08.05-.19.11-.27.11-.28,0-.54-.3-.65-.54,0,.09-.09.17-.18.19-.09.02-.19-.01-.27-.06-.22-.12-.38-.34-.42-.59-.16.08-.36.07-.5-.04s-.22-.29-.18-.47c0,.02-.16-.1-.18-.11-.06-.06-.1-.14-.12-.22-.03-.14-.02-.34-.01-.49.03-.43.21-.84.42-1.21Z"/><path class="cls-5" d="m57.32,46.97c.36-.43.93-.68,1.5-.66,2.17.11,2.86,3.95,3.26,5.53.41,1.61.8,3.23,1.17,4.86.26,1.15.52,2.3.76,3.46.3,1.41.58,2.82.85,4.24.03.18.09.37.12.55.36.69.61,1.46.8,2.05,1.18,3.8,2.12,7.66,3.02,11.53.04.18.07.38.08.57.1.11.18.23.25.36.76,1.6.64,3.58,0,5.22-.03.08-.07.16-.16.19-.1.03-.21-.02-.26-.1s-.04-.17-.04-.26c0,.16-.1.31-.24.41-.23.16-.3-.08-.29-.25.02-.4.03-.78.06-1.18.03-.41.01-.83-.04-1.23-.04-.28-.07-.57-.16-.84-.04-.12-.08-.32-.25-.29-.09.02-.16.1-.21.18-.07.11-.12.24-.16.37-.04.14-.07.29-.12.43-.05.14-.14.28-.28.34-.26.12-.34-.13-.31-.34,0-.02,0-.03,0-.05.02-.11.05-.21.08-.31.09-.3.13-.62.12-.94,0-.11-.04-.21-.06-.32-.02-.16,0-.33,0-.48.02-.19.06-.36.12-.53-1-2.21-1.95-4.47-3.08-6.61-1.13-2.13-2.1-4.36-2.94-6.63-.07-.18-.13-.37-.18-.56-.03-.05-.05-.1-.07-.15-.55-1.27-.89-2.62-1.22-3.96-.7-2.86-1.37-5.74-2-8.62-.25-1.16-.5-2.33-.62-3.51-.08-.86-.07-1.8.48-2.47Z"/><path class="cls-5" d="m48.68,122.3s-1.52,2.01,0,2.23c1.52.23,5.47,0,5.47,0,0,0,1.2.41.15-2.4-.55-.04-1.09-.13-1.64-.18-1.33-.11-2.66.14-3.98.34-.53.08-1.16.13-1.52-.27-.14-.16-.22-.36-.28-.56-.23-.78-.25-1.6-.24-2.4.01-.8-.06-1.6-.08-2.4-.05-1.69-.04-3.39-.08-5.08-.05-2.55-.1-5.09-.15-7.64,0-10.05-.74-19.97-1.23-29.99-.03-.7-.08-1.56-.06-2.46,0-.11,0-.22.01-.33-.04-.68,0-1.36.12-2.02.01-.05.02-.11.03-.16.18-.86.48-1.68.79-2.5.45-1.22.73-2.69,1.2-3.83.43-1.04,1.94-1.06,2.98-1.22,2.79-.44,5.66-.38,8.46-.09.12.01.24.03.33.09.14.1.18.29.21.45.37,2.02.69,4.05.96,6.08.04.31.09.68.12,1.07.32,1.75.63,3.51.9,5.26.61,3.87,1.12,7.76,1.53,11.67.22,2.1.68,4.4.55,6.51,0,.07,0,.13-.01.2-.01.17-.03.34-.05.5-.13,1.08-.4,2.16-.72,3.22-.22.75-.47,1.49-.69,2.22-2.29,7.24-4.58,14.47-6.86,21.71,0,.3-.01.59-.02.89,0,.42.31.98-.32.96-.08,0-.16-.02-.24-.02"/><line class="cls-3" x1="54.89" y1="120.31" x2="54.67" y2="75.04"/><path class="cls-5" d="m58.41,61.04c.61,0,6.89-.64,6.83-.93-.85-3.9-1.91-7.76-3.15-11.55-.26-.8-.55-1.63-1.19-2.17-.29-.25-.63-.43-.97-.6-.29-.15-.58-.3-.9-.34-1.69-.23-1.93,2.98-1.98,4.07-.06,1.32.12,2.63.31,3.94.18,1.31.41,2.63.58,3.94.16,1.22.22,2.43.46,3.65Z"/><path class="cls-5" d="m47.5,46.41c-.39-.41-.98-.62-1.54-.55-2.16.26-2.59,4.13-2.89,5.74-.3,1.64-.58,3.28-.84,4.93-.19,1.16-.36,2.33-.53,3.5-.2,1.43-.39,2.85-.57,4.28-.02.18-.06.37-.08.56-.32.71-.52,1.49-.66,2.1-.92,3.87-1.6,7.79-2.24,11.71-.03.19-.05.38-.04.58-.09.11-.17.24-.22.38-.65,1.65-.4,3.62.35,5.21.04.07.08.15.17.18.1.03.21-.04.25-.12s.03-.18.02-.26c.02.16.12.3.27.39.24.14.29-.1.27-.27-.04-.39-.08-.78-.14-1.17-.06-.41-.07-.82-.04-1.23.02-.28.03-.57.11-.85.03-.12.05-.33.23-.3.09.01.16.09.22.16.08.11.14.23.19.36.05.14.08.29.15.43.06.14.16.27.3.32.27.1.33-.15.29-.36,0-.02,0-.03,0-.05-.03-.1-.07-.2-.1-.31-.11-.3-.17-.61-.18-.93,0-.11.03-.21.04-.33,0-.16-.01-.33-.04-.48-.03-.19-.09-.36-.16-.52.85-2.27,1.64-4.59,2.63-6.8.99-2.2,1.8-4.49,2.48-6.81.06-.19.11-.38.15-.57.02-.05.05-.1.06-.15.46-1.3.71-2.67.95-4.03.51-2.9.98-5.82,1.42-8.73.18-1.17.35-2.35.38-3.54.03-.86-.05-1.8-.65-2.43Z"/><path class="cls-5" d="m43.53,47.79c-.84,1.41-1.29,3.23-1.7,4.58-.83,2.72-1.39,5.52-1.95,8.31.32.06.81.28,1.12.28.63.25,1.39.24,2.05.38,1.29.27,2.6.47,3.91.59.15-2.17.58-4.32.86-6.48.29-2.21.55-4.43.77-6.65.05-.51.1-1.02,0-1.52s-.35-.99-.79-1.26c-.58-.34-1.72-.38-2.34-.1-.82.37-1.44,1.06-1.92,1.88Z"/><path class="cls-5" d="m61.72,51.69c-.13.97-.33,1.95-.45,2.86-.26,1.9-.55,3.79-.87,5.68-.13.75-.14,1.48-.35,2.21-.04.15-.1.31-.22.42-.13.11-.31.13-.49.15-.63.06-1.26.09-1.89.13-3.04.17-6.08.33-9.12.26-.34,0-.7-.02-1-.19-.54-.3-.72-.97-.84-1.57-.57-2.85-.59-5.97-1.75-8.65-.22-.5-.41-.92-.78-1.3-.55-.57-.62-1.14-.62-1.96-.02-2.75,2.81-4.56,5.15-5.27.57-.17,1.14-.3,1.73-.4,1.11-.18,2.26-.23,3.39-.17.97.05,1.94.14,2.88.4.03,0,.07.02.1.03,1.62.48,3.78,1.15,4.66,2.72.36.64.47,1.38.55,2.11.09.82.03,1.68-.08,2.55Z"/><path class="cls-5" d="m104.7,77.42c-.1,4.29-1.21,8.7-1.95,12.78-1.19,6.67-1.64,13.47-1.34,20.23.07,1.59.51,2.83-1.19,3.31.07.32.13.65.19.97.02.08.03.16.04.24.12.87.25,1.89-.07,2.74,0,.04-.03.07-.04.11-.18.42-.5.8-.95,1.03-.75.37-1.73.18-2.24-.39-.04-.04-.06-.07-.09-.12h0c-.06-.08-.12-.17-.17-.26-.05-.08-.09-.17-.12-.26-.17-.42-.2-.86-.23-1.32-.03-.42-.02-.84,0-1.26.03-.53.05-1.05.05-1.59-.19-.04-.37-.09-.55-.12-.12,1.75-.27,3.5-.48,5.25-.06.51-.12,1.04-.04,1.54.05.33.17.65.14.97-.04.28-.2.76-.53.82-.17.04-.35-.03-.51-.09-.22-.08-.46-.14-.69-.19.13.37.21.74.32,1.13.07.24.25.43.2.69,0,.04-.02.1-.04.14-.12.26-.46.29-.75.3h-2.29c-.34,0-.72,0-1.02-.14-.08-.04-.19-.09-.25-.15-.02-.02-.04-.04-.04-.05-.06-.12-.07-.23-.04-.35h0c.1-.39.2-.78.3-1.16-.04.02-.09.04-.12.05-.12.06-.51.2-.62.09-.08-.07-.1-.19-.12-.29-.16-.89-.31-1.81-.26-2.72.03-.6.15-1.21.06-1.82-.05-.4-.19-.77-.28-1.16-.16-.72-.02-1.41-.06-2.12-.05-.76-.1-1.52-.14-2.29-.47-7.39-.93-14.79-1.4-22.18-.25-4.02-.51-8.04-.75-12.06l-.03-.32c-.17-2.25-.58-4.68.35-6.81.89-2.05,2.93-2.43,5-2.44.51,0,1.02.02,1.52.04l5.71.67,3.51.41c.99.91,1.46,2.27,1.71,3.6.28,1.48.37,2.99.33,4.53Z"/><path class="cls-5" d="m87.69,54.76c-.14,1.76-.26,3.52-.39,5.27-.06.9-.13,1.79-.19,2.69-.05.68-.02,1.33-.52,1.86-.06.06-.13.13-.22.15-.1.02-.21-.01-.3-.05-.69-.3-.94-.92-1.4-1.45-.4-.45-1.04-.58-1.63-.6-.57-.02-1.07.04-1.59.27-.3.13-.52.1-.66-.24-.17-.42-.07-.89.1-1.31.17-.41.42-.79.58-1.21.21-.54.26-1.14.23-1.72-.03-.68-.16-1.41.15-2.02.15-.3.39-.54.55-.82.52-.93.14-2.04.32-3.04.09-.53.29-1.02.39-1.56.12-.63.23-1.26.36-1.89.33-1.72.58-3.94,1.58-5.43.71-1.05,1.93-2.67,3.38-2.29.1.03.2.07.27.15.08.1.07.24.05.37-.15,1.55-.29,3.1-.42,4.65-.1,1.15-.02,2.24-.16,3.4-.19,1.61-.34,3.22-.47,4.84Z"/><path class="cls-5" d="m100.06,50.73c-.19,3.48-.45,6.96-.65,10.44-.14,2.56-.29,5.15-.26,7.72l-5.71-.67c-.5-.03-1-.04-1.52-.04.06-1.9.12-3.78.18-5.67.1-2.97.19-5.93.29-8.89.09-2.89.26-5.78.28-8.66,0-.81-.03-1.6.05-2.4.06-.68-.14-1.41.27-2.04.27-.43.77-.66,1.27-.81,1.1-.32,2.22-.58,3.37-.65.3-.03.63-.03.9.12.27.14.43.4.58.66.74,1.3.82,2.78.84,4.24,0,2.22.2,4.47.09,6.66Z"/><path class="cls-5" d="m106.36,49.19c-1.9,8.13-1.59,16.6-1.2,24.95.03.62,0,1.29.04,1.93.02.3.05.58.12.87.04.17.21.32.23.48h-6.33c.04-.38.09-.75.12-1.13.16-1.56,0-3.15-.11-4.7-.06-.9-.09-1.79-.09-2.69-.04-2.57.12-5.16.26-7.72.19-3.48.46-6.96.65-10.44.12-2.19-.08-4.45-.09-6.66-.02-1.46-.11-2.94-.84-4.24-.15-.26-.32-.51-.58-.66-.27-.14-.6-.14-.9-.12-1.15.07-2.27.33-3.37.65-.5.14-.99.38-1.27.81-.41.63-.2,1.36-.27,2.04-.08.8-.05,1.59-.05,2.4-.03,2.89-.2,5.78-.28,8.66-.1,2.96-.19,5.92-.29,8.89-.06,1.89-.12,3.77-.18,5.67-.03,1.02-.07,2.05-.12,3.07-.09,2.06-.14,4.13.02,6.18h-5.73c.28-5.11.11-10.25.26-15.37.14-5.17.25-10.35-.4-15.48-.12-.97-.16-1.78.11-2.71.23-.81.21-1.66.95-2.22.27-.2.58-.32.89-.43,1.47-.52,2.93-1.05,4.39-1.58.99-.35,2-.73,3.05-.93.41-.08.91-.22,1.33-.2.53.03,1.11.24,1.64.34,1.98.34,3.91.97,5.71,1.86.8.39,1.73.78,2.28,1.5.57.76.82,1.59.82,2.53.03,1.5-.47,3.15-.76,4.45Z"/><path class="cls-5" d="m111.31,77.68c-.11-.24-.21-.49-.32-.73-.07-.16-.15-.32-.25-.48.16-.94.06-2.01.08-2.92.03-1.34.05-2.68.06-4.02.02-2.68,0-5.36-.06-8.04-.04-1.66-1.87-1.24-2.97-.91-.47.14-1.15.34-1.38.84-.22.48-.02,1.29.03,1.8.22,2.22.45,4.44.67,6.66.15,1.54.31,3.07.55,4.6.12.76.26,1.52.44,2.27.02.07.03.13.04.2-.16.35-.26.73-.3,1.11-.07.68-.04,1.49.26,2.11.04.08.14.23.2.1.01-.03-.01-.1,0-.14.01-.14.09-.27.21-.28.02.02.03.05.05.07.04.07.08.15.09.24.01.08,0,.16-.03.24-.05.15-.13.3-.1.46,0,.04.07.05.11.04.08.06.18.13.26.13.28.02.56-.26.69-.48,0,.09.07.18.16.2.09.03.19,0,.27-.04.23-.1.41-.31.46-.56.15.09.35.1.5,0s.24-.28.22-.45c0,.02.17-.08.18-.09.06-.05.11-.13.13-.21.04-.14.05-.34.05-.49,0-.44-.14-.85-.32-1.24Z"/><path class="cls-5" d="m104.81,54.76c0,.53,0,1.07.01,1.6.04.98.21,1.94.51,2.87.13.4.32.78.42,1.19.22.96-.12,1.93-.14,2.89,0,.35-.02,1.08.32,1.29.22.14.78.05,1.03.03.91-.08,1.83-.16,2.74-.24.49-.04,1.29.2,1.68-.18.46-.45.42-1.47.23-2.02-.1-.28-.24-.54-.32-.83-.28-1.06.45-2.27-.04-3.26-.12-.24-.3-.44-.44-.67-.35-.58-.4-1.27-.43-1.92-.03-.6-.12-1.2-.15-1.8-.09-1.54-.52-3.12-.81-4.63-.33-1.72-.58-3.94-1.58-5.43-.71-1.05-1.93-2.67-3.38-2.29-.1.03-.2.07-.27.15-.08.1-.07.24-.05.37.15,1.55.29,3.1.42,4.65.1,1.15.02,2.24.16,3.4.19,1.6.1,3.22.08,4.84Z"/><path class="cls-5" d="m86.49,59.73c-.02-1.56-.02-3.11,0-4.67.01-.88.03-1.76.05-2.63,0-.06-.17-.07-.17,0-.04,1.56-.06,3.13-.06,4.69,0,1.56.02,3.11.05,4.67.02.88.05,1.76.08,2.63,0,.07.17.06.17,0-.06-1.56-.1-3.13-.12-4.69Z"/><line class="cls-3" x1="96.03" y1="113.5" x2="95.24" y2="74.84"/><line class="cls-3" x1="90.31" y1="122.22" x2="93.93" y2="121.81"/><line class="cls-3" x1="96.58" y1="113.63" x2="100.23" y2="113.74"/><path class="cls-5" d="m46.4,65.22s9.62.73,13.33-.29"/><path class="cls-5" d="m49.18,65.38s-.06,4.3-4.11,4.58"/><path class="cls-5" d="m56.9,65.35s.18,4.99,3.57,4.87"/><path class="cls-5" d="m101.23,29.02s0,.05,0,.08c-.04.29-.1.61-.18.95-.02-.14-.14-1.4-1.46-3.26-.02-.04-.05-.08-.08-.12,0,0-.43.03-.75-.22-.54.1-1.12.05-1.49-.39-.7.68-1.28.19-1.36.1,0,0-.02,0-.03,0-.14.26-.35.47-.67.51-.22.03-.43-.04-.63-.16-.48.34-.96.43-1.36.41l-.14.04c-.12.31-1.13,2.12-1.27,3.22,0,.21,0,.43.02.65,0,0-.02-.03-.04-.08,0,.07,0,.13.02.19h0v-.02c-.04-.11-.28-.64-.44-1.36,0,0,0-.02,0-.03-.32-1.46-.34-3.67,2.09-4.64,0,0,.15-.81,1.18-.68,0,0,1.19-1.29,2.61-.23,1-.28,1.27.49,1.27.49,2.74.65,2.91,3.12,2.76,4.59Z"/><path class="cls-5" d="m100.83,33.47h0c.07-.03.59-.25.77-1.14.2-.96.6-.92.49-1.86-.11-.89-.98-.36-1.07-.3"/><path class="cls-5" d="m99.48,40.61c-4.08,3.61-5.7-.3-6.42-.61l.95-2.36.02-.36,4.9-.94.13,1.02.42,3.25"/><path class="cls-3" d="m96.18,24.75s0,.83-.3,1.4h0"/><path class="cls-3" d="m94.57,26.5c-.66-.38-1.1-1.35-1.1-1.35"/><path class="cls-5" d="m92.49,34.15h0c-.08-.02-.62-.16-.93-1.01-.34-.92-.74-.81-.77-1.77-.02-.9.91-.51,1.01-.46"/><path class="cls-3" d="m100.11,25.93s-.64.38-1.36.51"/><path class="cls-5" d="m101.03,30.16c.02.53.03,1.9-.2,3.3-.18,1.18-.53,2.38-1.18,3.16-1.49,1.82-2.45,1.85-2.6,1.83-.15.04-1.17.2-2.93-1.37-.75-.67-1.28-1.82-1.65-2.94-.43-1.36-.64-2.71-.7-3.23h0c0-.06-.02-.12-.02-.19.03.05.04.08.04.08-.02-.21-.03-.43-.02-.65.14-1.1,1.14-2.91,1.27-3.22l.14-.04c.41.03.89-.07,1.36-.41.19.12.41.19.63.16.32-.04.53-.25.67-.51,0,0,.02,0,.03,0,.09.09.66.58,1.36-.1.37.44.95.49,1.49.39.32.25.75.22.75.22.03.04.06.08.08.12,1.32,1.86,1.44,3.12,1.46,3.26.08-.34.13-.66.18-.95-.07.56-.17.96-.19,1.05h0v.02Z"/><path class="cls-3" d="m91.8,30.15c-.03.21-.04.4-.02.57"/><path class="cls-3" d="m99.61,26.93s1.41,2.05,1.41,3.23"/><path class="cls-3" d="m91.76,30.69h0s0,.1.02.2h0s0,.02,0,.02"/><path class="cls-3" d="m101.03,30.16v-.02"/><path class="cls-3" d="m101.02,29.94s0,.08,0,.2"/><path class="cls-3" d="m97.85,25.25c-.18.33-.36.58-.53.75-.02.02-.03.05-.06.06"/><path class="cls-3" d="m95.9,26.16h-.02"/><path class="cls-5" d="m57.38,33.2s0,.05,0,.08c-.04.29-.1.61-.18.95-.02-.14-.14-1.4-1.46-3.26-.02-.04-.05-.08-.08-.12,0,0-.43.03-.75-.22-.54.1-1.12.05-1.49-.39-.7.68-1.28.19-1.36.1,0,0-.02,0-.03,0-.14.26-.35.47-.67.51-.22.03-.43-.04-.63-.16-.48.34-.96.43-1.36.41l-.14.04c-.12.31-1.13,2.12-1.27,3.22,0,.21,0,.43.02.65,0,0-.02-.03-.04-.08,0,.07,0,.13.02.19h0v-.02c-.04-.11-.28-.64-.44-1.36,0,0,0-.02,0-.03-.32-1.46-.34-3.67,2.09-4.64,0,0,.15-.81,1.18-.68,0,0,1.19-1.29,2.61-.23,1-.28,1.27.49,1.27.49,2.74.65,2.91,3.12,2.76,4.59Z"/><path class="cls-5" d="m56.98,37.66h0c.07-.03.59-.25.77-1.14.2-.96.6-.92.49-1.86-.11-.89-.98-.36-1.07-.3"/><path class="cls-5" d="m55.63,44.8c-4.08,3.61-5.7-.3-6.42-.61l.95-2.36.02-.36,4.9-.94.13,1.02.42,3.25"/><path class="cls-3" d="m52.33,28.94s0,.83-.3,1.4h0"/><path class="cls-3" d="m50.72,30.68c-.66-.38-1.1-1.35-1.1-1.35"/><path class="cls-5" d="m48.63,38.33h0c-.08-.02-.62-.16-.93-1.01-.34-.92-.74-.81-.77-1.77-.02-.9.91-.51,1.01-.46"/><path class="cls-3" d="m56.26,30.12s-.64.38-1.36.51"/><path class="cls-5" d="m57.18,34.35c.02.53.03,1.9-.2,3.3-.18,1.18-.53,2.38-1.18,3.16-1.49,1.82-2.45,1.85-2.6,1.83-.15.04-1.17.2-2.93-1.37-.75-.67-1.28-1.82-1.65-2.94-.43-1.36-.64-2.71-.7-3.23h0c0-.06-.02-.12-.02-.19.03.05.04.08.04.08-.02-.21-.03-.43-.02-.65.14-1.1,1.14-2.91,1.27-3.22l.14-.04c.41.03.89-.07,1.36-.41.19.12.41.19.63.16.32-.04.53-.25.67-.51,0,0,.02,0,.03,0,.09.09.66.58,1.36-.1.37.44.95.49,1.49.39.32.25.75.22.75.22.03.04.06.08.08.12,1.32,1.86,1.44,3.12,1.46,3.26.08-.34.13-.66.18-.95-.07.56-.17.96-.19,1.05h0v.02Z"/><path class="cls-3" d="m47.95,34.34c-.03.21-.04.4-.02.57"/><path class="cls-3" d="m55.76,31.12s1.41,2.05,1.41,3.23"/><path class="cls-3" d="m47.9,34.87h0s0,.1.02.2h0s0,.02,0,.02"/><path class="cls-3" d="m57.18,34.35v-.02"/><path class="cls-3" d="m57.17,34.12s0,.08,0,.2"/><path class="cls-3" d="m53.99,29.44c-.18.33-.36.58-.53.75-.02.02-.03.05-.06.06"/><path class="cls-3" d="m52.05,30.34h-.02"/><line class="cls-2" x1="75.65" y1="41.72" x2="75.61" y2="41.7"/><path class="cls-4" d="m30.76,125.53c.46-2.45-.08-5.01.12-7.49.19-2.49.07-4.99-.06-7.48-.01-.19-.4-.19-.4,0-.02,2.49-.2,4.97-.4,7.45-.21,2.48-1,6.41.59,7.5-.02.21.11.22.15.02Z"/><path class="cls-4" d="m30.42,115.94c0-.14-.71-4.06-4.51-6.31,0,0,.64,3.92,4.51,6.31Z"/><path class="cls-4" d="m30.69,112.86c.04-.09,1.67-2.33,4.75-2.6,0,0-1.59,2.27-4.75,2.6Z"/><path class="cls-4" d="m30.42,118.73s.62-4.58,5.96-6.34c0,0-1.98,4.57-5.96,6.34Z"/><path class="cls-6" d="m28.08,102.24s-2.82,5.19,2.69,8.38c0,0-3.14-3.76-.74-7.11,0,0-.29-.44-.92-.83-.28-.17-.61-.33-1.03-.44Z"/><path class="cls-6" d="m29.1,102.69c.64.39.92.83.92.83.21-.29.46-.57.75-.85,0,0,.42.42.88,1.09,0,0,.26-.46,1.07-.97h0s-.31-1.21-2.06-1.96c0,0-.81.45-1.56,1.87Z"/><path class="cls-6" d="m30.02,103.52c-2.4,3.35.74,7.11.74,7.11,3.09-2.49,1.91-5.34.89-6.87-.46-.68-.88-1.09-.88-1.09-.29.28-.54.56-.75.85Z"/><path class="cls-6" d="m30.76,110.62c4.93-2.56,3.53-8.56,3.53-8.56-.67.22-1.18.48-1.57.73-.81.51-1.07.97-1.07.97,1.02,1.52,2.2,4.37-.89,6.87Z"/><path class="cls-4" d="m23.3,123.83c.14-1.84-.46-3.67-.51-5.51-.06-1.84-.35-3.67-.65-5.49-.02-.14-.31-.11-.29.04.19,1.83.25,3.67.31,5.5.04,1.84-.22,4.79,1.04,5.46,0,.15.1.15.11,0Z"/><path class="cls-4" d="m22.28,116.81c0-.1-.84-2.92-3.82-4.27,0,0,.78,2.83,3.82,4.27Z"/><path class="cls-4" d="m22.68,122.13c0-.13-1.09-3.77-4.92-5.51,0,0,1.01,3.65,4.92,5.51Z"/><path class="cls-4" d="m22.5,118.87s.09-3.41,3.87-5.13c0,0-1.09,3.52-3.87,5.13Z"/><path class="cls-7" d="m19.45,106.95s-1.66,4.04,2.65,5.94c0,0-2.61-2.51-1.11-5.16,0,0-.25-.3-.74-.53-.22-.1-.48-.19-.79-.24Z"/><path class="cls-7" d="m20.24,107.19c.5.24.74.53.74.53.13-.23.29-.46.48-.69,0,0,.35.27.73.73,0,0,.15-.36.71-.8h0s-.32-.87-1.67-1.28c0,0-.56.39-1,1.5Z"/><path class="cls-7" d="m20.99,107.72c-1.49,2.65,1.11,5.16,1.11,5.16,2.07-2.08.97-4.08.1-5.11-.39-.46-.73-.73-.73-.73-.19.23-.35.46-.48.69Z"/><path class="cls-7" d="m22.1,112.88c3.42-2.28,1.9-6.57,1.9-6.57-.47.22-.83.45-1.1.66-.55.44-.71.8-.71.8.87,1.03,1.97,3.03-.1,5.11Z"/><path class="cls-4" d="m113.53,120.05c-.46-2.45.08-5.01-.12-7.49-.19-2.49-.07-4.99.06-7.48.01-.19.4-.19.4,0,.02,2.49.2,4.97.4,7.45.21,2.48,1,6.41-.59,7.5.02.21-.11.22-.15.02Z"/><path class="cls-4" d="m113.87,110.46c0-.14.71-4.06,4.51-6.31,0,0-.64,3.92-4.51,6.31Z"/><path class="cls-4" d="m113.6,107.39c-.04-.09-1.67-2.33-4.75-2.6,0,0,1.59,2.27,4.75,2.6Z"/><path class="cls-4" d="m113.87,113.26s-.62-4.58-5.96-6.34c0,0,1.98,4.57,5.96,6.34Z"/><path class="cls-6" d="m116.22,96.77s2.82,5.19-2.69,8.38c0,0,3.14-3.76.74-7.11,0,0,.29-.44.92-.83.28-.17.61-.33,1.03-.44Z"/><path class="cls-6" d="m115.19,97.21c-.64.39-.92.83-.92.83-.21-.29-.46-.57-.75-.85,0,0-.42.42-.88,1.09,0,0-.26-.46-1.07-.97h0s.31-1.21,2.06-1.96c0,0,.81.45,1.56,1.87Z"/><path class="cls-6" d="m114.27,98.04c2.4,3.35-.74,7.11-.74,7.11-3.09-2.49-1.91-5.34-.89-6.87.46-.68.88-1.09.88-1.09.29.28.54.56.75.85Z"/><path class="cls-6" d="m113.53,105.15c-4.93-2.56-3.53-8.56-3.53-8.56.67.22,1.18.48,1.57.73.81.51,1.07.97,1.07.97-1.02,1.52-2.2,4.37.89,6.87Z"/><path class="cls-4" d="m120.99,118.35c-.14-1.84.46-3.67.51-5.51.06-1.84.35-3.67.65-5.49.02-.14.31-.11.29.04-.19,1.83-.25,3.67-.31,5.5-.04,1.84.22,4.79-1.04,5.46,0,.15-.1.15-.11,0Z"/><path class="cls-4" d="m122.02,111.34c0-.1.84-2.92,3.82-4.27,0,0-.78,2.83-3.82,4.27Z"/><path class="cls-4" d="m121.61,116.66c0-.13,1.09-3.77,4.92-5.51,0,0-1.01,3.65-4.92,5.51Z"/><path class="cls-4" d="m121.79,113.39s-.09-3.41-3.87-5.13c0,0,1.09,3.52,3.87,5.13Z"/><path class="cls-7" d="m124.84,101.47s1.66,4.04-2.65,5.94c0,0,2.61-2.51,1.11-5.16,0,0,.25-.3.74-.53.22-.1.48-.19.79-.24Z"/><path class="cls-7" d="m124.05,101.71c-.5.24-.74.53-.74.53-.13-.23-.29-.46-.48-.69,0,0-.35.27-.73.73,0,0-.15-.36-.71-.8h0s.32-.87,1.67-1.28c0,0,.56.39,1,1.5Z"/><path class="cls-7" d="m123.3,102.25c1.49,2.65-1.11,5.16-1.11,5.16-2.07-2.08-.97-4.08-.1-5.11.39-.46.73-.73.73-.73.19.23.35.46.48.69Z"/><path class="cls-7" d="m122.19,107.41c-3.42-2.28-1.9-6.57-1.9-6.57.47.22.83.45,1.1.66.55.44.71.8.71.8-.87,1.03-1.97,3.03.1,5.11Z"/><line class="cls-9" x1="41.07" y1="106.73" x2="43.34" y2="112.39"/><line class="cls-9" x1="43.34" y1="105.69" x2="45.07" y2="109.2"/><line class="cls-9" x1="80.69" y1="106.92" x2="85.87" y2="118.33"/><line class="cls-9" x1="83.34" y1="106.09" x2="86.22" y2="110.82"/></svg>