<?xml version="1.0" encoding="UTF-8"?>
<svg id="Calque_1" data-name="Calque 1" xmlns="http://www.w3.org/2000/svg" viewBox="0 0 128 128">
  <defs>
    <style>
      .cls-1 {
        fill: #06008d;
      }

      .cls-2 {
        fill: #f11731;
      }

      .cls-3 {
        fill: #fff;
      }

      .cls-4 {
        fill: #1d1d1b;
      }

      .cls-5 {
        fill: none;
        stroke: #fff;
        stroke-linecap: round;
        stroke-linejoin: round;
        stroke-width: 8px;
      }
    </style>
  </defs>
  <g id="Logo_CMJN" data-name="Logo CMJN">
    <g>
      <path class="cls-4" d="m98.85,73.29c.36.05,1.13.24,1.05.71-.01.05,0,.07-.05.07-.28.07-.46-.09-.71-.15-.18-.05-.37-.01-.54.02-.09.04-.18.07-.26.11-.58.24-1.17.52-1.64.99-.2.2-.31.44-.46.67-.05.07-.11.14-.16.2-.21.34-.19.78,0,1.11.1.17.24.26.39.36.24.16.46.31.72.43.29.11.57.23.85.34.51.25.95.52,1.41.86.2.15.45.4.47.66.02.25-.03.5-.16.69-.13.18-.38.31-.55.42-.07.06-.14.11-.2.17-.51.3-1.06.45-1.65.53-.34.05-.78.12-1.16-.01-.16-.06-.5-.25-.36-.48.03-.05.07-.1.12-.12.17-.06.33.06.49.08.17.01.34.02.51.03.13-.06.29-.08.45-.06.21-.06.42-.12.63-.19.33-.11,1.27-.58,1.3-.98.06-.66-2-1.26-2.48-1.53-.5-.28-.99-.63-1.3-1.14-.59-.99.36-2.26,1.12-2.85.33-.26.83-.52,1.21-.69.3-.13.65-.14.97-.24"/>
      <path class="cls-4" d="m88.24,74.24c1.41.22,2.17,1.42,1.88,2.84-.08.41-.22.78-.5,1.07-.28.28-.7.49-1.04.66-.12.05-.24.1-.36.15-.07.05-.12.12-.1.22.05.19.47.38.62.5.8.63,1.62,1.23,2.49,1.76.23.15.61.13.76.4.06.13.12.34-.02.44-.26.18-1.14-.58-1.38-.71-1.01-.58-1.89-1.38-2.89-1.98-.25-.15-.5-.3-.75-.45-.22-.12-.45-.19-.63-.39-.02-.02-.03-.05-.05-.07-.03-.08-.02-.18.03-.25.11-.16.79.14,1.01.16.16-.08.37-.07.54-.11.16-.07.32-.13.48-.2.81-.35,1.27-.87,1.26-1.82,0-.44-.05-.84-.3-1.18-.49-.66-1.97-.42-2.6-.15-.2.08-.41.28-.61.34-.1.03-.22.02-.3-.04-.09-.07-.21-.23-.16-.35.14-.31,1.38-.78,1.73-.75.15-.07.37-.07.55-.05.1-.01.21-.02.31-.04"/>
      <path class="cls-4" d="m85.04,75.54c.15.08.25.17.32.33.08.2.06.44.08.66.03.13.06.26.09.38,0,.09,0,.18,0,.28.02.11.05.22.07.32.02.22.04.43.06.65.07.91.06,1.82.23,2.71.02.13-.01.26,0,.41.01.28.12.74.03,1.02-.02.07-.08.1-.15.11-.63.05-.38-1.1-.4-1.51-.02-.54-.12-1.11-.16-1.64,0-.13,0-.27,0-.41-.05-.49-.1-.99-.14-1.49-.07-.5-.14-1-.22-1.5.01-.15.08-.24.19-.32"/>
      <path class="cls-4" d="m79.73,77.07c.72.21.78,1.23.64,1.91-.05.16-.09.31-.14.47-.08.34-.25.64-.37.97-.12.31-.25.6-.35.92-.07.1-.13.2-.2.3-.41.74-1.07,1.47-1.87,1.8-.19.08-.37.18-.59.22-1.03.14-1.89-.34-2.32-1.21-.07-.14-.04-.32-.09-.48-.45-1.31-.48-2.78-.37-4.3.01-.17.12-.29.13-.43.69.08.36.6.35,1.09,0,.21.01.42.02.62-.01.09-.03.18-.04.26.02.25.05.51.07.76.06.5.06.97.15,1.45.05.12.1.24.15.36.01.09.03.18.04.27.06.23.22.53.41.71.26.23.71.33,1.08.36.13-.03.25-.06.38-.09.12-.05.24-.09.35-.14.72-.32,1.29-.95,1.67-1.63.13-.26.25-.52.38-.78.06-.15.08-.29.17-.42.02-.04.01-.07.07-.06-.01-.22.12-.5.19-.71.19-.6.3-1.32.03-1.88-.02-.05-.11-.25-.04-.25.04-.03.07-.06.11-.09"/>
      <path class="cls-4" d="m64.65,79.24c-.11,0-.23.02-.34.02-.17.03-.33.06-.5.09-.22.02-.45-.05-.63.07-.25.16-.57.79-.7,1.06-.55,1.12-.61,2.93.54,3.63.4.24.84.3,1.36.35.11-.03.23-.06.34-.1.36-.11.72-.24,1.03-.48.26-.2.5-.44.66-.7.52-.82.75-2.61.03-3.36-.32-.34-.69-.44-1.18-.49-.22-.02-.45,0-.64-.09m-.55-.77c.3.06.54.23.83.3.16.02.32.04.47.06.59.13,1.39.45,1.71.99.24.41.34.98.35,1.49.04,1.58-.65,2.91-2.11,3.4-.34.11-.65.23-1.02.23-.48,0-.92-.12-1.3-.32-1.7-.93-1.69-2.97-.9-4.6.26-.54.61-1.05,1.16-1.37.24-.15.53-.11.82-.17"/>
      <path class="cls-4" d="m53.94,78.96c.19.04,1.08.14.83.49-.09.13-.97.02-1.19.04-.19.04-.39.08-.59.12-.34.09-.66.23-.96.38-.1.04-.2.07-.3.11-.31.18-.58.48-.77.76-.1.14-.23.26-.32.41-.19.32-.23.62-.32,1-.04.1-.08.2-.11.31,0,.12-.01.25-.02.37-.1.12-.09.34-.12.5-.03.19.03.36.07.53.17.74,1.08,1.12,1.81,1.18l.51.05c.11-.04.28-.01.41,0,.09,0,.18,0,.28-.01.15-.07.37-.07.55-.05.19-.1.49-.13.73-.11.11-.02.21-.05.32-.07.32-.1.45-.28.67.12.04.07.05.19,0,.26-.14.19-.53.14-.75.17-1.49.25-3.73.4-4.75-.9-.46-.59-.37-1.19-.26-1.93.32-2.15,1.3-3.08,3.27-3.6.32-.1.66-.08,1-.15"/>
      <path class="cls-4" d="m43.88,79.9c.24.04.91.12.88.46-.28.11-.57.02-.89,0l-.62.02c-.62.02-1.38.3-1.96.48-.31.1-.62.11-.9.28-.19.12-.6,1.65-.51,1.87.06.14.22.17.37.18.11-.05.28-.08.42-.07.11-.05.61-.08.76-.07.1,0,.2,0,.31,0,.08,0,.16,0,.24-.01.11-.04.25-.01.38,0,.33-.1,1.52.11,1.54.48,0,.05.01.1-.04.1-.16.02-.32-.01-.48-.04l-.71-.06c-.77-.02-1.48.11-2.18.19-.23.03-.52-.02-.7.12-.16.13-.36,1.71-.25,1.95.02.05.07.08.12.1.16.07.34-.02.48-.05.3-.06.6-.11.9-.17.16-.02.3-.07.49-.06.22-.11.69-.14.97-.12.16-.08.43-.1.62-.08.14-.05.35,0,.51.01.1-.04.23-.01.35,0,.22.02.45.05.68.08.11.03.22.05.34.08,0,.05.01.1.02.14h-.03c-.2.08-.43.04-.65.05-.42.02-.79.1-1.21.13-.16.02-.31.05-.46.07-.68.09-1.31.18-1.95.34-.26.06-.53.11-.79.17-.09.02-.23.08-.25.18-.06.24.23.61-.05.81-.09.06-.22,0-.29-.04-.45-.31-.34-2.02-.26-2.61.04-.31.2-.75.1-1.05-.06-.16-.24-.2-.37-.28-.06-.04-.14-.11-.14-.19,0-.18.2-.2.35-.2h.1c.1-.06.19-.07.25-.18.08-.16.35-1.43.26-1.58-.15-.26-.57-.01-.53-.5.23-.08.52-.07.72-.19.23-.13.31-.4.57-.47.25-.07.43.2.7.2.61-.02,1.11-.39,1.75-.34.16-.09.38-.1.59-.08.15-.01.3-.02.45-.03"/>
      <path class="cls-4" d="m32.38,79.23c.27.02.76.05.8.35.01.07,0,.12-.05.16-.23.16-.6.02-.86.09-.6.16-1.19.51-1.64.99-.06.11-.12.22-.18.33-.08.13-.19.2-.22.37-.02.14.02.34.06.47.12.42.81.82,1.14,1.02.91.54,2.44,1.33,2.81,2.43.16.47-.05,1-.35,1.34-.17.18-.36.3-.56.42-.21.13-.43.21-.63.33-.07.04-.13.08-.2.12-.22.06-.43.11-.64.17-.96.23-1.94.34-2.98.35-.41,0-1.96.06-1.91-.55.06-.06.13-.12.19-.18.37-.26.65.12,1.04.15.13-.05.33.03.48.04.09-.03.24-.01.34,0,.07,0,.14-.01.21-.01.12-.05.33,0,.48,0,.07,0,.14-.01.21-.01.1-.05.23-.05.35-.04.14-.07.8-.17.97-.16.18-.05.37-.09.55-.14.38-.11.75-.27,1.09-.46.22-.12.35-.3.53-.46.94-.87-.44-1.71-1.03-2.12-.23-.16-.47-.31-.7-.47-.29-.16-.58-.32-.87-.49-.32-.2-.71-.51-.93-.85-.29-.46-.34-1.08-.03-1.57.1-.16.25-.26.38-.4.36-.4.78-.71,1.26-.91.27-.12.56-.29.88-.26v-.04Z"/>
      <path class="cls-1" d="m28.98,16.17c.2.03.36.11.54.17.18.06.41.05.59.13.42.17.79.5,1.17.75.11.1.22.2.34.3.12.07.25.14.37.2.11.07.19.18.3.24.16.08.32.16.48.24.48.29.93.62,1.41.92.23.13.47.26.71.4.22.14.44.28.66.42.14.06.29.12.43.18.31.17.59.38.88.58.13.07.27.14.41.21.38.24.76.48,1.14.71.12.13.24.25.36.38.22.17.43.34.64.51.06.07.13.14.19.21.14.1.28.19.41.29.26.25.53.5.79.75.26.24.56.45.84.68.14.12.36.13.54.21.12.09.25.18.37.26.16.18.32.36.48.54.55.49,1.06,1.03,1.61,1.52.14.12.26.25.41.38.08.05.16.1.24.15.49.51,1.02.97,1.52,1.47.25.24.47.49.73.71.2.22.42.43.63.64.05.04.1.07.15.11.18.18.36.36.55.54.08.05.17.1.25.15.09.08.18.17.26.25.2.12.47.1.67.22.24.15.37.35.55.57.28.32.47.67.71,1.01.13.16.26.32.4.49.08.14.16.29.25.43.19.2.39.4.58.61.15.1.3.19.46.29.09.08.08.2.14.3.21.35.48.52.9.56.08-.05.2-.1.3-.06.18.06.26.33.43.42.25.13.59.12.85.26.12.06.19.26.33.28.19.09.36.28.5.43.14.15.32.26.47.43.14.17.21.37.34.53.11.1.21.2.32.3.06.13.12.26.18.38.22.37.47.75.74,1.08.13.13.25.27.38.4.28.38.52.79.76,1.2.1.17.24.3.35.46.05.1.09.2.13.3.18.3.36.61.57.91.17.24.56.18.74.38.31.36.48.82.66,1.24.08.14.17.29.26.44.02.08.05.16.07.25.14.3.32.6.41.93.07.28.07.59.1.89.02.12.05.24.07.36.03.42-.02.84,0,1.26.01.16.03.33.04.49-.01.17-.02.34-.04.51-.03.22,0,.42-.02.65-.01.13.02.25-.02.37-.22.59-.56,1.13-.77,1.72-.06.17,0,.36-.06.54-.06.18-.17.34-.27.5-.12.21-.23.44-.34.65-.02.09-.04.17-.05.26-.05.08-.1.16-.14.24-.03.1-.05.19-.08.28-.07.16-.24.24-.31.4-.08.18-.11.37-.23.53-.17.22-.43.33-.61.54-.14.16-.24.35-.42.48-.09.05-.19.11-.28.16-.09.08-.18.16-.27.23-.21.12-.37.16-.52.37,0,.01-.01.03-.01.05-.05,0-.07.01-.06-.04-.09-.07-.13-.18-.2-.28-.15-.2-.3-.41-.45-.62-.05-.14-.1-.28-.16-.42-.08-.12-.16-.23-.24-.35-.41-.93-.89-1.87-1.65-2.59-.1-.07-.2-.13-.29-.2-.24-.21-.44-.45-.69-.65-.13-.09-.27-.18-.41-.26-.33-.24-.65-.49-.99-.69-.23-.13-.47-.25-.7-.38-.09-.07-.18-.15-.27-.23-.4-.26-.79-.49-1.2-.72-.16-.09-.31-.13-.48-.2-.14-.07-.29-.14-.43-.22-.57-.23-1.24-.37-1.89-.41-.19-.02-.38-.05-.58-.08-.18.01-.37.02-.55.02-.14,0-.27,0-.41,0-.23.02-.47.09-.7.11-.21.02-.39.01-.58.05-.34.05-.68.16-1.02.22-.2.02-.41.04-.61.05-.35.07-.68.22-1.03.3-.2.02-.41.05-.62.07-.11.04-.22.07-.33.1-.13.02-.27.05-.4.08-.17.04-.31.14-.48.19-.52.15-1.03.29-1.57.41-.18.02-.37.04-.55.05-.11.04-.22.07-.32.11-.25.02-.55-.08-.77-.13-.26-.06-.52-.13-.75-.24-.54-.27-1.05-.77-1.46-1.22-.14-.17-.29-.34-.43-.52-.18-.19-.4-.34-.58-.53-.12-.16-.23-.32-.35-.48-.06-.14-.11-.6.08-.68.08-.04.19-.03.28-.02.2-.08.68-.01.93.01.1-.04.25-.01.38,0,.44-.21.94.05,1.33.19.21.06.42.13.63.19.28.1.58.11.88.18.24.05,1.21.42,1.42.22.08-.08.06-.22,0-.3-.09-.12-.22-.16-.34-.23-.09-.07-.19-.14-.28-.22-.19-.11-.37-.22-.57-.33-.14-.11-.29-.21-.43-.32-.06-.08-.11-.16-.17-.24-.16-.12-.31-.24-.47-.36-.31-.28-.68-.47-.99-.75-.61-.56-1.21-1.13-1.83-1.69-.15-.14-.23-.3-.37-.45-.23-.24-.52-.51-.65-.81-.07-.16-.09-.3-.14-.47-.1-.29-.22-.52-.27-.83-.04-.21.01-.45-.03-.65-.08-.34-.24-.65-.35-.98-.04-.11-.07-.22-.11-.33.31-.07.42.15.66.25.17.04.33.07.5.11.08.05.16.09.23.13.22.1.42.18.63.29.17.08.29.21.46.31.49.3.75.44,1.38.56.14.02.25.08.4.1.28-.07.6.2.8.33.28.17.56.33.84.49.1.08.21.16.31.24.25.12.51.24.76.35.19.09.35.24.57.29.29.07.66.04.88-.14.15-.12.08-.34,0-.46-.14-.22-.37-.37-.56-.54-.11-.13-.22-.26-.32-.39-.11-.08-.23-.17-.34-.25-.33-.33-.66-.66-.99-.99-.14-.1-.29-.2-.44-.3-.17-.14-.31-.32-.46-.49-.14-.15-.31-.25-.46-.4-.16-.15-.31-.3-.47-.46-.11-.11-.19-.24-.32-.32-.13-.08-.34-.07-.46-.17-.42-.41-.83-.83-1.25-1.24-.2-.15-.48-.13-.67-.3-.13-.12-.18-.29-.28-.43-.15-.2-.31-.33-.47-.52-.06-.1-.13-.2-.19-.31-.1-.12-.21-.25-.31-.37-.09-.06-.18-.13-.26-.19-.08-.13-.17-.25-.26-.38-.11-.13-.24-.23-.33-.38-.11-.22-.22-.43-.32-.65-.28-.41-.61-.79-.81-1.23-.07-.14-.06-.31-.11-.47-.05-.2-.15-.39-.21-.59-.11-.37-.16-.73-.26-1.1-.04-.14-.19-.35-.3-.46-.08-.07-.16-.12-.19-.22-.14-.44.13-.78.3-1.13.05-.1.12-.14.13-.27.03-.22-.24-.45-.18-.58.02-.06.13-.05.18-.04.22.04.42.21.64.28.12.04.24,0,.37.01.11.03.22.06.33.09.14.04.23.14.34.24.27.23.52.47.76.73.17.18.3.39.48.57.13.13.28.17.43.26.28.19.55.38.83.57.12.07.22.18.36.23.1.03.26-.02.35-.06.05-.02.21-.04.21-.09.24.08.41.21.62.32.18.1.39.06.55.18.07.07.14.15.22.22.15.13.3.25.45.38.29.2.58.41.87.61.33.3.65.6.98.9.41.37.87.71,1.3,1.06.21.17.36.38.56.56.09.08.21.12.31.19.09.08.18.16.27.23.19.13.38.26.57.38.21.14.41.38.69.4.04-.03.11-.04.11-.09h.03c-.07-.22-.24-.45-.43-.61-.06-.05-.13-.1-.2-.15-.27-.3-.54-.6-.82-.88-.27-.26-.57-.5-.83-.76-.2-.22-.4-.44-.6-.66-.1-.14-.18-.29-.3-.44-.41-.48-.88-.92-1.33-1.35-.18-.22-.36-.43-.54-.65-.18-.17-.37-.34-.56-.51-.06-.08-.11-.16-.16-.24-.17-.16-.35-.31-.52-.47-.22-.15-.44-.31-.66-.46-.24-.26-.48-.52-.72-.79-.15-.14-.29-.31-.44-.45-.16-.14-.31-.28-.47-.43-.1-.13-.19-.26-.29-.38-.23-.22-.46-.43-.69-.66-.09-.1-.13-.2-.2-.3-.1-.12-.2-.17-.31-.28-.08-.08-.13-.18-.23-.24-.04-.02-.05-.01-.05-.06-.23-.57-.38-.01-.68-.29-.1-.16-.2-.31-.3-.47-.27-.33-.52-.65-.76-1-.09-.11-.19-.22-.28-.33-.25-.4-.5-.82-.76-1.2-.24-.35-.79-.88-.75-1.32-.32-.26-.44-.78-.54-1.15-.01-.04-.06-.14,0-.13-.04-.07-.07-.15-.11-.23-.02-.17-.03-.34-.05-.51-.04-.12-.08-.24-.12-.35-.02-.24-.05-.48-.07-.72-.03-.14-.12-.28-.11-.43.03-.05.07-.08.11-.11"/>
      <path class="cls-1" d="m97.43,92.64c.25.02.65.17.46.49-.1.15-.38.19-.53.29-.16.11-.25.26-.36.41-.25.34-.62.77-.44,1.27.13.38.4.76.71,1.04.1.07.2.13.3.2.81.57,2.15,1.45,1.79,2.67-.34,1.14-1.29,1.72-2.32,2.12-.18.07-.37.14-.55.21-.2,0-.4,0-.6-.01-.33.01-.65.02-.89-.18-.07-.06-.09-.12-.08-.22.02-.26.26-.25.48-.23.09,0,.18,0,.27,0,.15,0,.29-.05.46-.03.13-.02.25-.05.38-.08.19-.05.37-.1.56-.16.72-.24,1.72-1.05,1.73-1.9.02-.78-1-1.28-1.52-1.68-.16-.12-.29-.27-.44-.42-.46-.47-.84-.86-.9-1.55-.04-.5.04-.81.35-1.17.07-.11.15-.23.22-.34.26-.34.54-.58.93-.73"/>
      <path class="cls-1" d="m91.64,92.58c.11.02.2.05.26.15.04.07.06.16.05.25-.04.14-.08.28-.13.41-.06.39-.13.79-.19,1.18-.12.85,0,1.8.07,2.62-.01.59-.03,1.18-.05,1.78-.02.3-.03.59-.02.89.01.21.06.47,0,.68-.03.1-.08.19-.2.2-.18.01-.31-.12-.34-.28-.17-1.03.08-2.23.06-3.31,0-.2-.04-.37-.05-.56,0-.15,0-.29,0-.44-.02-.16-.04-.33-.07-.49-.03-.36-.03-.88.04-1.23,0-.12.01-.25.02-.37.04-.19.07-.38.11-.58.04-.28.03-.89.42-.85v-.03Z"/>
      <path class="cls-1" d="m84.09,93.81c.19.03.31.08.43.23.18.23.28.83.37,1.13.08.26.24.48.33.74.21.58.51,1.11.78,1.66.1.19.1.44.24.61.13.16.31.2.53.22.13-.05.36,0,.51.01-.1.54-.7.37-.71.76.06.22.11.43.17.64.12.37.2.77.35,1.14.11.29.3.59.35.9.01.08,0,.2-.08.24-.17.1-.36-.07-.45-.2-.34-.48-.5-1.09-.64-1.65-.08-.3-.17-.96-.4-1.15-.14-.12-.43-.1-.61-.08-.2.03-.4.06-.6.1-.44.06-1.98.1-2.23.35-.17.18-.17.47-.24.71-.18.59-.38,1.17-.57,1.74-.08.23-.11.54-.25.75-.1.14-.32.19-.47.08-.31-.24.27-1.4.38-1.67.26-.7.48-1.46.65-2.21.1-.47.15-.93.25-1.38.18-.81.38-1.61.59-2.42.04-.16.14-.38.31-.42.21-.05.4.11.41.31.02.3-.16.59-.24.83-.03.13-.06.26-.1.4-.15.47-.29.94-.4,1.44-.04.17-.09.34-.13.5-.02.14,0,.28-.01.41.1.05.21.08.34.1.09-.03.24-.01.34,0,.11-.05.25-.05.38-.04.12-.05.27-.05.41-.03.22-.11.73-.14,1.01-.12.08,0,.16,0,.24-.01.09-.06.23-.09.25-.22.04-.2-.14-.47-.21-.64-.39-.96-.96-1.85-1.26-2.85-.05-.18-.17-.37-.17-.57,0-.15.04-.24.14-.32"/>
      <path class="cls-1" d="m74.71,95.18c.24.03.63.19.46.5-.06.12-.55.16-.7.23-.16.1-.31.21-.47.31-.21.14-.33.39-.46.59-.61,1-.84,2.67-.22,3.72.24.4.57.63.97.83.14.07.3.1.47.14,1.04.26.72-1.05,1.47-1.07.24,0,.45.11.34.38-.05.11-.39.43,0,.46.26.02.77-.21,1.01-.32.1-.05.18-.16.29-.19.12-.04.28,0,.37.09.63.72-1.98,1.14-2.24,1.28-.1.05-.17.18-.22.28-.05.14-.1.28-.15.42-.11.28-.4.77-.35,1.1.04.27.41.35.6.49.47.34.69.96.44,1.52-.08.17-.21.3-.34.45-.24.25-.64.56-1,.56-.58,0-.5-.58-.15-.83.13-.09.31-.02.46-.07.05-.03.09-.05.14-.08.17-.16.39-.51.35-.77-.08-.58-1.3-.48-1.28-1.05.01-.33.25-.93.37-1.23.07-.18.23-.39.15-.6-.01-.02-.02-.04-.03-.06-.1-.14-.69-.23-.87-.31-.31-.15-.81-.54-1.04-.82-1.23-1.52-.86-4.52.79-5.62.26-.18.53-.24.84-.32"/>
      <path class="cls-1" d="m69.13,95.86c.2.04.42.17.49.36.06.14.05.31.06.47.01.12.03.23.05.35,0,.2,0,.41.01.61.04.46.03.93.05,1.41.02.35.05.69.08,1.03-.01.12-.02.25-.03.37,0,.3.04.64.04.93,0,.22-.04.42-.04.65.01.17.02.35.04.52,0,.11,0,.23,0,.34.03.15.07.31.1.46.02.17-.02.97-.08,1.11-.02.06-.09.09-.15.1-.29.04-.48-.3-.51-.53-.02-.16.02-.33-.02-.47-.05-.18-.18-.32-.29-.48-.14-.21-.27-.42-.41-.64-.46-.53-.91-1.06-1.37-1.6-.54-.57-1.15-1.05-1.69-1.58-.34-.33-.67-.63-1.01-.92-.12-.1-.22-.28-.37-.34-.05-.02-.16-.09-.16-.03-.12.07-.15.18-.17.33-.05.44-.01.89,0,1.3.01.36-.04.73-.04,1.09,0,.84.04,1.71-.02,2.57-.02.32-.02.62,0,.93.01.14.06.29.03.45-.01.07-.04.14-.11.16-.64.17-.53-1.14-.51-1.51.09-1.28.06-2.48.06-3.73,0-.28,0-.58-.02-.86-.01-.13-.02-.25-.04-.38v-.51c.01-.13.08-.26.06-.39-.03-.18-.26-.26-.26-.45,0-.1.03-.17.1-.22.26-.22,1.38.82,1.59,1.05.14.12.29.24.43.37.27.24.52.49.79.73.1.11.2.21.29.31.22.18.44.37.66.55.43.38.82.82,1.21,1.25.19.22.38.43.58.65.12.14.2.29.34.4.06.04.13.06.2.05.27-.05.18-1.3.18-1.56-.01-1.15-.13-2.26-.18-3.41-.03-.34-.06-.67-.09-1.01.01-.12.07-.2.14-.29"/>
      <path class="cls-1" d="m38.08,96.74c.17.01.32.06.47.08.04.14.04.32.16.43.19.18,1.51.23,1.88.26.11-.04.28-.01.41,0,.13-.04.3-.01.45,0,.07,0,.14-.01.21-.01.11-.04.28-.01.41,0,.13-.06.32-.04.48-.02.1-.05.22-.05.35-.04.1-.05.25-.05.38-.04.19-.1.8-.06.68.29-.08.22-.87.31-1.08.32-.89.04-1.81.07-2.74,0-.38-.03-1.35-.22-1.61-.06-.27.15-.31,2.17-.14,2.39.13.17.42.13.65.15.14-.05.35,0,.51.01.37.03.73.09,1.08.13.4.04,1.1.02,1.42.17.11.05.18.14.14.28-.17.62-3.24-.38-3.78.09-.19.16-.14.46-.18.71-.04.37-.08.75-.12,1.12-.05.19-.11.38-.16.57-.01.16-.02.31-.04.47-.03.18-.22.81-.34.89-.17.1-.31-.02-.48-.04-.08-.33.09-.64.17-.95.13-.49.19-.99.29-1.52.05-.28.13-.62.13-.91-.02-.63-1.01-.2-.99-.74.01-.35.49-.26.75-.24.1-.07.2-.1.24-.22.05-.17.02-.38.01-.54,0-.25,0-.5,0-.75,0-.3.01-.59.01-.89-.01-.1-.17-.19-.16-.26-.3.04-.66.02-.96.06-.37.04-.75.18-1.14.12-.13-.02-.25-.08-.31-.19-.25-.43.97-.49,1.23-.47.08,0,.16-.01.24-.01.07,0,.14-.01.21-.01.11-.04.25-.01.38,0,.09,0,.18,0,.28-.01.09-.03.18-.06.27-.09.16-.12.23-.37.37-.51"/>
      <path class="cls-1" d="m56.34,98.96v.04c-.1.04-.17.13-.21.23-.11.32-.1.77-.14,1.11-.03.26-.18.85-.09,1.08.06.15.21.2.38.21.1,0,.2,0,.31,0,.1,0,.2,0,.31,0,.11-.04.28-.01.41,0,.1-.05.29-.04.34-.16.08-.22-1.07-2.27-1.3-2.49m-.3-2.08c.13.02.26.03.33.16.12.22.02.52.1.76.05.16.15.28.24.42.07.12.13.29.21.42.05.12.1.24.15.35.14.26.28.52.42.77.21.4.39.8.64,1.18.09.13.1.29.23.41.12.11.31.12.48.13.12-.06.59-.12.57.12-.18.08-.57.31-.6.53-.08.56,1.84,2.46,1.41,2.83-.12.11-.28.02-.38-.06-.19-.16-.31-.41-.44-.62-.31-.51-.66-.97-.97-1.48-.11-.19-.18-.43-.36-.57-.06-.05-.16-.08-.25-.09-.6.04-1.19.07-1.79.11-.13.02-.27.11-.34.24-.12.22-.12.51-.18.76-.15.63-.31,1.32-.52,1.94-.06.2-.12.4-.18.6-.09.12-.25.17-.4.11-.13-.06-.15-.28-.14-.42.02-.29.14-.55.22-.81.12-.39.24-.77.32-1.17.06-.25.27-.88.23-1.11-.04-.23-.37-.32-.33-.59.05-.32.49-.16.59-.6.13-.63.16-1.3.23-1.93.05-.34.1-.68.14-1.02.02-.19-.01-.35,0-.52,0-.18.17-.59.26-.72.02-.02.04-.05.06-.07.03-.03.04-.05.06-.07"/>
      <path class="cls-2" d="m115.95,80.54c.43.04.88.01,1.1.37.03.05.07.13.02.19-.07.09-.15.14-.26.16-.38.04-.8-.02-1.2-.02-.94,0-1.85.1-2.71.32-.13.03-.3-.02-.38.1-.2.28.11,1.17.07,1.57.13.49-.03.61.59.67.12-.05.33,0,.48,0,.31-.13.76.01,1.1-.03.04,0,.06.01.07-.04.24.05.48,0,.75.03.18-.06.62.03.65.24.03.22-.23.35-.4.38-.42.08-.84.05-1.3.04-.26.02-.53.04-.79.05-.28.01-.72-.05-.92.15-.18.18,0,1.84.07,2.08.02.06.06.12.11.16.31.26.88.24,1.33.28.1-.04.61.04.62-.05h.03c.07.02.13.04.2.06.17-.1.37-.04.58-.02.16-.06.63-.05.83-.03.13-.06.32-.07.49-.06.06,0,.11-.01.17-.02.06-.02.34.01.34.06.02.08.04.35.14.35-.06.11-.11.22-.17.33-.75-.02-1.49.1-2.24.1-.41,0-.82-.02-1.23-.04-.2-.01-.41-.02-.61-.04-.23.01-.3.26-.56.18-.19-.06-.45-.46-.57-.64-.13-.19-.01-.34-.03-.55-.01-.21-.09-.4-.12-.6-.04-.26-.04-.51-.07-.75,0-.2,0-.39-.01-.59-.06-.27-.38-.41-.39-.69v-.03c0-.21.2-.32.28-.49.05-.13,0-.79-.03-.95-.03-.13-.06-.26-.1-.4-.02-.15-.05-.29-.07-.44-.06-.23-.23-.48-.23-.72,0-.02,0-.04,0-.06.07-.25.33-.22.57-.19.25-.15.87-.26,1.19-.24.1-.06.22-.08.35-.07.16-.08.39-.07.59-.05.07,0,.14-.01.21-.01.08,0,.16,0,.24-.01.08,0,.16,0,.24-.01.12-.05.33,0,.48,0,.15-.05.34,0,.49-.05"/>
      <path class="cls-2" d="m106.29,81.58c.35.04.7.08,1.05.13v.04s-.04,0-.04,0c.02.15.41.38.53.48.43.35.9,1.19.84,1.77-.08.64-.55,1.31-1.09,1.64-.12.07-.23.1-.35.15-.1.05-.24.11-.2.24.03.1.14.15.21.22.25.25.52.42.8.63.12.11.24.21.37.31.1.07.2.13.3.2.06.07.12.13.19.2.13.09.28.09.37.23.1.14.08.38-.04.52,0,0,0,.01-.01.01-.13.1-.32-.01-.42-.08-.14-.11-.27-.23-.41-.34-.69-.54-1.38-1.09-2.15-1.49-.16-.08-.29-.21-.46-.26-.07-.02-.53-.16-.54-.06-.09.16-.05.4-.07.58-.03.33-.03.67-.04.99,0,.14-.03.26-.02.41.04.34.09.67.13,1.01-.02.12-.12.24-.25.23-.52-.05-.51-1.27-.51-1.7.03-.26.06-.52.09-.78-.02-.16-.04-.32-.06-.49,0-.32.03-.61,0-.92-.02-.16-.05-.33-.07-.49,0-.08.01-.16.02-.24-.02-.17-.05-.34-.08-.51-.04-.18-.07-.36-.1-.53-.07-.23-.15-.45-.22-.67,0-.1.02-.19.11-.23.17-.07.31,0,.42.14.31.38.41,1.09.46,1.59.02.21-.02.5.12.67.13.16.47.2.68.22.08-.05.2-.05.31-.04.07,0,.14-.01.2-.02.08-.02.16-.03.24-.05.49-.19,1.05-.55,1.31-1.02.03-.06.07-.19.14-.18-.06-.29-.02-.59-.11-.86-.24-.66-1.29-1.19-1.99-.88-.13.07-.26.14-.39.21-.18.13-.24.33-.51.19-.53-.26.02-.79.34-.95.17-.08.54-.16.75-.14.05,0,.09-.01.14-.02v-.03Z"/>
      <path class="cls-2" d="m100.92,82.97c.49.26.23,1.3.23,1.84,0,.79.01,1.58,0,2.37-.02.16-.05.31-.07.47.01.2.02.41.03.62,0,.24-.07.48-.08.71,0,.15,0,.3,0,.45-.01.12-.02.25-.04.37.01.16.03.32.04.49-.2.07-.44.15-.57-.11-.18-.36-.05-1.06-.01-1.49.04-.53.07-1.07.1-1.6.02-.34-.02-.67,0-1,.01-.09.02-.18.03-.27-.01-.29-.03-.58-.04-.86,0-.57.05-1.09.05-1.65,0-.22.16-.27.32-.34"/>
      <path class="cls-2" d="m85.3,84.27c.22.08.36.14.42.39.05.22-.03.4-.07.6-.01.18-.02.36-.04.54-.02.11-.05.23-.08.34-.05.76-.1,1.52-.09,2.26-.03.31-.06.61-.09.92,0,.11,0,.23,0,.35-.01.05-.04.06.02.07.05.12.16.18.29.2.25-.14.99-.25,1.32-.23.07,0,.14-.01.21-.02.09-.03.23-.01.34,0,.13-.05.29-.04.45-.03.21-.09.5-.06.76-.04.12-.04.28-.01.41,0,.37-.11.8.39.35.59-.3.13-.67.04-1.02.05-.39.02-.78.05-1.17.07-.12.02-.24.05-.36.08-.2.02-.4.04-.61.05-.15.03-.3.07-.45.1-.24.07-.46.22-.72.2-.11,0-.21-.06-.29-.12,0,0-.01-.01-.02-.01,0,0-.01-.01-.01-.01-.01-.01-.02-.02-.03-.04-.01-.01-.02-.02-.03-.04-.17-.25-.02-.65.04-.93.04-.32.08-.65.12-.98,0-.42,0-.84-.01-1.27.01-.45.03-.89.05-1.34.04-.22.06-.43.1-.64.01-.26-.01-.55.01-.82.06-.1.12-.2.19-.3"/>
      <path class="cls-2" d="m82.05,85.74c.17.03.36.09.45.24.25.41-.02,1.64-.14,2.11-.04.14-.18.41-.19.54.05.24-.13.49-.2.7-.36,1.06-1.19,2.63-2.32,3.06-.16.06-.3.15-.47.17-.75.09-1.49-.31-1.8-.92-.06-.13-.12-.27-.18-.41-.03-.09-.06-.18-.08-.27,0-.29-.07-.56-.09-.84-.02-.19,0-.37.01-.57-.01-.16-.03-.32-.04-.49.05,0,.03.01.04-.03.05-.16,0-.31.01-.48.02-.43,0-.82,0-1.23.02-.16.03-.31.05-.47,0-.18,0-.41.06-.57.08-.18.34-.35.52-.23.28.18-.02.83-.05,1.11-.06.59-.02,1.18-.03,1.74-.02.75-.15,2.06.29,2.61.26.32.55.38.97.42.15-.04.3-.08.45-.13.11-.06.23-.12.34-.18.75-.47,1.36-1.57,1.68-2.36.03-.08.25-.53.18-.53.28-.53.42-1.48.5-2.12.05-.31-.17-.6.04-.88"/>
      <path class="cls-2" d="m70.98,87.84c.13.16.19.35.21.55.05.74-.68,1.18-1.25,1.46-.19.1-.44.27-.66.28-.13,0-.26-.03-.31-.15-.06-.14-.02-.32-.02-.47,0-.55,0-1.1.04-1.68,0-.11,0-.23,0-.34.02-.22.36-.22.51-.26.56.16,1.1.16,1.47.63m-2.65-.82c-.1.23.13.38.1.61-.06.52-.07,1.06-.06,1.57,0,.1-.01.2-.02.3.01.18.07.37.07.56,0,.6.04,1.2.07,1.79,0,.2.03.4,0,.62-.01.16-.05.32-.03.48-.05,0-.07.04-.11.06-.02.19-.01.47.11.6.05.06.15.14.24.15.57.06.29-2.03.31-2.38,0-.15.01-.34.1-.44.16-.18.49-.23.71-.32.61-.27,1.33-.61,1.74-1.19.14-.2.3-.51.3-.78,0-.67-.57-1.34-1.11-1.65-.44-.25-1.03-.32-1.6-.37-.17.08-.76.22-.82.39m25.45-1.62c-.08.36-.45,1.5,0,1.65.22.07.45-.03.68-.01.09-.04.25-.02.31-.13.15-.29-.43-1.18-.66-1.37-.1-.08-.2-.11-.33-.13m-.14-2.28c.24.09.4.31.38.58-.01.16-.05.32,0,.47.07.17.19.3.29.47.2.38.41.77.62,1.15.17.33.3.83.57,1.1.08.08.24.12.37.14.1,0,.2,0,.31,0,.07,0,.14-.01.2-.01.16-.07.37-.06.5.06.04.04.05.09.11.1,0,.05,0,.04-.04.03-.17.12-.33.23-.52.31-.14.06-.3.07-.41.19-.05.06-.08.14-.07.23.02.25.18.49.29.72.14.32.25.64.41.95.09.2.18.4.26.6.11.19.65.91.34,1.1-.17.11-.33-.09-.42-.21-.36-.44-.59-1.02-.79-1.53-.14-.29-.27-.58-.41-.88-.1-.25-.24-.81-.49-.93-.18-.09-.63,0-.84,0-.3,0-.6-.04-.84.11-.22.13-.23.59-.29.83-.05.24-.16.46-.2.68-.06.29-.06.99-.36,1.09-.1.03-.22,0-.28-.08-.25-.32.04-1.14.14-1.5.02-.06.05-.13.07-.2t.04-.04s-.01-.07.04-.06c0-.24.17-.51.08-.74-.07-.19-.29-.28-.35-.48-.01-.04-.06-.14.01-.13.04-.05.11-.06.11-.13.02-.03.08-.09.08-.13.13.03.28.03.36-.08.19-.28.16-.89.21-1.24.06-.42.22-.85.18-1.29-.02-.2-.25-.36-.35-.53-.04-.06-.06-.14-.03-.22.06-.2.29-.18.43-.28.08-.09.18-.16.28-.23"/>
      <path class="cls-2" d="m62.07,88.04c-.42.1-.86.05-1.27.16-.2.05-.29.26-.48.34-.17.07-.38,0-.55.08-.5.24-.76,1.03-.99,1.51-.08.18-.12.4-.18.59-.09.29-.17.58-.26.87,0,.15-.01.29-.01.44-.04.33-.07.67-.05.99,0,.07.07.28.04.28.08.56.3.78.76,1.07.15.1.32.21.5.26.31.08.63.07.95.1.09,0,.19,0,.28-.01l.37-.06c.28-.07.58-.18.84-.3.1-.07.2-.15.3-.23.38-.22.8-.53,1.04-.91.07-.12.11-.25.18-.37.25-.46.34-.64.38-1.19.12-.16.14-.44.18-.64.21-.91.04-2.11-.68-2.69-.3-.24-.91-.25-1.34-.29m.35-.52c.38.03.72.12,1.02.28.81.44,1.37,1.66,1.35,2.57-.01.66-.19,1.33-.35,1.92-.01.1-.03.19-.05.29-.11.22-.23.43-.34.64-.16.28-.3.65-.54.87-.94.91-2.25,1.4-3.63,1.18-.64-.1-1.72-.76-1.98-1.38-.48-1.18-.12-2.7.26-3.9.04-.13.1-.3.16-.43.06-.11.12-.22.19-.33.06-.23.15-.47.29-.65.38-.51,1.27-1,1.92-.94.25-.15.46-.1.76-.07.08,0,.16,0,.24-.01.2-.08.47.01.69-.04"/>
      <path class="cls-2" d="m50.8,87.84c-.22.06-.63-.02-.76.2-.09.15-.01.41-.03.59-.12.96-.09,1.97-.05,2.91,0,.08.05.17.11.23.17.16.33.02.5-.01.1,0,.2,0,.3,0,.11-.02.23-.05.34-.07.14-.04.25-.09.4-.12.52-.12,1.04-.41,1.46-.77.19-.17.31-.4.4-.63.4-1.09-1.17-1.88-1.95-2.16-.23-.05-.47-.11-.7-.16m-.3-.54c.3.08.6.11.9.2.29.12.58.23.86.34.16.11.31.21.47.31.6.34,1.41,1.13,1.39,1.89-.01.45-.26.83-.52,1.13-.24.29-.62.43-.94.58-.08.05-.16.1-.24.14-.4.14-.82.24-1.23.33-.32.07-.84.1-1.09.3-.12.09-.14.24-.16.41v.69c-.03.31-.06.61-.1.91-.01.19-.01.58-.11.73-.05.08-.13.11-.23.11-.48-.02-.3-.49-.27-.79h-.03c.16-.27.3-1.58.13-1.82-.19-.25-.79.06-.75-.47.05-.07.07-.13.16-.18.17-.08.48-.03.59-.22.08-.14.06-.31.06-.47,0-.45,0-.89.01-1.34-.02-.21-.04-.41-.06-.63h.04c.03-.17,0-.35,0-.51,0-.22.04-.41-.01-.61-.04-.16-.19-.24-.27-.39-.18-.36.31-.42.52-.47.25-.07.49-.18.78-.15.03,0,.07-.02.1-.05"/>
      <path class="cls-1" d="m47.9,98.21c-.12.08-.24.14-.28.29-.11.38-.04.81-.06,1.19-.02.17-.04.34-.06.51,0,.25,0,.5-.01.75-.01.22-.07.41-.04.61.01.09.07.22.18.22.34-.03.64-.24.9-.46.32-.27.69-.71.79-1.11.14-.54-.21-1.43-.63-1.74-.21-.16-.51-.22-.79-.26m-.6-1.32c.67.1.29.49.58.7.08.06.2.08.31.11.28.08.54.2.79.34.16.09.26.23.38.37.53.63.78,1.5.44,2.33-.12.28-.35.57-.55.79-.14.15-.78.54-.8.7.03.07.05.13.11.19.25.17.5.34.75.51.41.28.8.58,1.21.87.22.16.48.27.65.5.06.08.09.18.06.29-.04.1-.15.11-.25.11-.32-.02-.61-.36-.84-.53-.64-.46-1.27-.95-1.96-1.32-.19-.1-.42-.28-.67-.25-.11.01-.18.1-.23.19-.05.11-.02.24-.05.37-.05.27-.12.57-.16.85-.02.17-.03.41-.14.52-.07.07-.2.06-.29.03-.61-.19.11-1.52-.06-1.92-.12-.29-.8-.22-.72-.61.09-.45.83-.08.96-.61.1-.4.1-.82.11-1.23,0-.76.01-1.57.11-2.32.04-.35.02-.73.27-.97"/>
      <path class="cls-3" d="m101.35,34.54s0,.04-.04.03v.03s.08.03.13.05c-.02-.05-.05-.07-.09-.11"/>
      <path class="cls-4" d="m106.07,44.49c.17.02.53.08.43.33-.08.2-.54.11-.71.1-.01-.08-.03-.16-.05-.24.11-.06.22-.12.32-.18"/>
      <path class="cls-4" d="m103.56,51.95c.06.02.13.05.11.13-.02.07-.2.13-.19.03,0-.07.05-.11.08-.16"/>
      <path class="cls-4" d="m105.16,52.13c-.11.05-.38.1-.39.28,0,.06,0,.11.01.17.05,0,.11-.01.16-.02.07-.05.14-.09.21-.14.08-.06.16-.06.26-.08.02,0,.03-.01.05-.02.08-.15-.2-.18-.3-.19m3.93-1.41v.04s-.07,0-.07,0c.02.06.02.21.12.22.01.02.03.04.03,0,.12-.1.01-.18-.08-.25m.36-.55v.03c-.09,0-.06-.18-.05-.24.12.06.17.12.05.21m1.16-.31s-.03.09-.05.13l-.2-.02c-.08,0-.04-.15-.01-.21.1.02.18.05.26.09m1.18-1.37c-.04.06-.11.17-.04.24.12.11.23-.14.24-.22l-.2-.02Zm-45.33-4.41c0,.06.05.28.17.19.1-.07-.14-.18-.17-.19m33.26,2.84c-.08.08-.17.17-.25.26-.13.08-.72.21-.88.17-.07-.04-.14-.08-.21-.13-.04-.02-.18-.08-.19-.02h-.03s-.02.06.03.07c.02.06.09.11.09.18h-.04s0,.03,0,.03c-.45-.1-.41.05-.72.22-.12.05-.24.1-.36.15-.07.04-.14.08-.22.13-.13.04-.28-.04-.41-.02-.11.07-.22.14-.32.21-.08.02-.16.05-.24.07-.12.1-.25.2-.38.31-.4.13-.81.25-1.21.38-.17.06-1.08.65-1.11.79-.01.05-.04.13.02.13.03.04.1.06.09.11.24-.04.33-.19.54-.3.12-.06.29-.07.42-.1.06-.02.12-.03.18-.05v.04c.22-.01.59-.11.78-.2.14-.08.27-.17.41-.25.14-.06.29-.12.43-.19.06-.05.12-.1.18-.14.2-.11.46-.08.67-.16.26-.1.41-.32.72-.29.16-.1.35-.23.52-.3.12-.05.24-.06.36-.12.16-.08.28-.24.46-.27.12-.02.25-.02.36.03.09.04.19.19.29.13.01-.02.02-.04.03-.06,0-.24-.02-.23.13-.43.13-.17.04-.32-.14-.38m2.16.02s-.09.06-.14.06c.06.14.2.24.38.2.04-.01.08-.05.13-.05-.07-.16-.19-.18-.36-.2m-.63.07c-.23-.01-.09-.22.02-.26v-.04c.08.08.19.31-.02.3m-1.53-.88c-.3.16-.73-.06-.9.27-.04.06-.07.13-.05.2.11.34.48-.06.59-.08.19.01.38.02.56.04.01,0,.32-.18.32-.18-.1-.22-.29-.23-.53-.25m14.01.99c-.16.3-.04.27.21.29-.01-.18-.04-.24-.21-.29m-11.51-1.31c-.15.12-.37.1-.49.23-.07.08-.03.18,0,.28.14.49.24.36.66.38.18.02.36.05.54.07.15-.08.36-.08.37-.31,0-.07-.02-.12-.07-.16-.13-.1-.34-.09-.49-.16-.22-.11-.24-.27-.52-.32m-.74-.61c-.05.02-.14.02-.14.09h-.03s.35.26.36.13h.04c-.03-.13-.09-.17-.22-.22m1.08-.18s-.08.1-.08.17c.05.07.08.14.19.15.05-.06.11-.1.12-.19-.07-.05-.14-.08-.23-.12m6.87-.08c-.02.06-.03.11-.05.17.05.01.09.03.13.05v-.03c.05-.09-.02-.14-.08-.18m1.84-.25c-.08.1-.21.16-.31.23-.13.11-.25.22-.38.34-.1.08-.23.13-.31.23-.1.12-.02.35-.1.5-.07.13-.27.17-.33.31-.02.12-.03.24-.05.36-.05.24-.18.55-.14.81.02.14.13.22.22.33.03.05.06.1.08.15.15.22.39.37.65.43.16.04.3-.13.42-.2.12-.07.24-.08.36-.14.13-.08.19-.2.32-.29.14-.1.3-.14.44-.26.07-.09.15-.18.22-.26.08-.07.16-.13.24-.2.06-.09.12-.18.18-.27.13-.13.32-.22.44-.37.12-.16.11-.38.21-.55.08-.14.35-.34.3-.53-.01-.05-.08-.08-.12-.1-.19-.07-.38.05-.6-.01-.18-.06-.25-.25-.43-.3-.25-.07-.44.02-.65,0-.1-.04-.2-.07-.3-.1-.13-.03-.25-.05-.37-.07m-19.8-1.8c-.08.2.05.21.04.31h.1s.06-.09.11-.08c-.06-.12-.13-.18-.25-.23m18.3,1.33c-.03.07-.06.13-.08.2.07.04.14.08.23.09.03-.04.06-.1.11-.09-.06-.13-.12-.16-.26-.19m-1.77-.16c-.01.05-.09.27-.02.27v.04c.05,0,.2.04.2-.02h.04c-.01-.18-.04-.24-.22-.29m-3.34-.26v.07c-.06,0-.11.08-.16.11-.05.01-.11.02-.17.03v-.03c-.11-.01.06-.23.13-.26v-.03c.06.04.13.08.2.12m2.12-1.53c0,.05-.04.17.02.17v.03s.17.01.17.01v-.03s.04,0,.04,0v-.14s-.06,0-.06,0c-.05-.01-.11-.03-.16-.05m-13.21-1.84c-.03.23.24.33.27.06-.09-.02-.18-.04-.27-.06m4.66.06s-.09.13-.15.12c.12.2.33.17.35-.07-.07-.02-.13-.04-.2-.05m7.24-2.42c-.05,0-.05.02-.07.06-.12-.01-.16-.11-.15-.22.12.03.16.05.23.16m-28.65-2.95c-.06.09-.15.29.04.31.1.01.13-.08.21-.08,0-.05.01-.03-.03-.04-.05-.11-.12-.15-.22-.19m31.63,2.29c-.08.02-.16.04-.24.05-.26.12-.48.32-.74.46-.09.03-.17.06-.26.09-.11.07-.21.14-.32.2l-.39.15c-.08.05-.31.29-.39.28.04.11.15.19.17.3,0,.18-.01.35-.01.53.05.53.64.65,1.11.69.09,0,.18,0,.28-.01.16-.07.36-.04.55-.02.24-.1.49-.11.72-.21.29-.13.52-.39.75-.6.12-.09.24-.19.36-.28.17-.17.48-.64.4-.91-.16-.49-.88-.54-1.35-.61-.21-.04-.4-.1-.64-.12m-28.07-8.04c-.25.12-.55.13-.8.25-.16.1-.31.19-.46.29-.18.06-.36.06-.53.15-.17.08-.22.31-.35.43-.08.06-.17.13-.25.19-.1.09-.19.17-.29.26-.12.07-.26.06-.36.17-.18.19-.29.47-.51.64-.12.08-.24.16-.37.24-.12.12-.25.25-.38.37-.16.14-.36.17-.47.37,0,.02-.01.04-.02.06-.04.19.17.45.25.61.02.11.05.22.07.33.02.19.4,1.02.55,1.1.06.03.14.02.19,0,.24-.07.42-.31.67-.37.13-.01.26-.03.4-.05.13-.03.27-.06.4-.09.14-.02.26,0,.4-.05.2-.07.43-.35.66-.33v-.1s-.38-.28-.24-.26c.11-.1.52-.32.67-.28.1.02.16.11.27.12v-.07c.05-.08.06-.2.13-.28.1-.11.3-.08.37-.21.05-.09.04-.16.04-.26,0-.37.05-.55.38-.66.15-.05.28-.1.46-.09.13-.06.28-.05.33-.22.06-.19-.01-.39-.01-.58,0-.37,0-.75,0-1.13-.01-.1-.03-.2-.1-.28-.23-.25-.73-.28-1.09-.31m-.02-.59c-.03.07-.06.13-.09.2.04.02.1.02.1.08.07-.02.14-.03.21-.05-.02-.14-.08-.18-.22-.23m22.45-2.6c.42.06.26.43.51.46.38-.4.86.32,1.08.54.11.08.22.17.34.26.1.1.34.52.34.66,0,.23-.23.49-.41.59-.05.02-.15.05-.16.11h-.03s-.01.03.03.03c.16.12.31.06.51.08.07-.04.18-.06.26-.03.25.09-.04.59-.04.77,0,.22.22.36.13.58,0,.01-.01.02-.02.04-.14.24-.49.21-.63.42-.09.14-.08.34-.11.51-.02.12-.25.58-.34.67-.11.12-.34,0-.42.18-.1.22.14.44.1.67-.04.24-.44.32-.58.47-.07.07-.07.19-.1.28-.06.16-.18.24-.2.44-.01.07-.02.13-.08.18-.01,0-.02.01-.04.02-.2.11-.52-.32-.77-.34-.14.3.14.27.19.48.04.21-.27.45-.44.49-.11.03-.22.01-.34,0v.04s-.04,0-.04,0c0,.32-.03.79-.42.84-.13.01-.29.01-.38.11-.15.14-.16.45-.37.54-.19.08-.32-.09-.52.1-.08.08-.16.17-.23.25-.12.1-.24.17-.31.31,0,.06,0,.13-.01.19-.01.11-.06.17-.13.25-.14.18-.46.2-.65.31-.12.07-.18.2-.3.26-.13.03-.27.06-.41.1-.1.06-.19.11-.29.17-.19.07-.38.15-.57.23-.12.06-.22.16-.35.2-.25.08-.55.02-.76.2-.14.12.14.34.13.46,0,.13-.1.23-.17.32-.08.09-.17.18-.25.26-.08.06-.17.12-.25.18-.29.3-.53.63-.78.95-.08.11-.25.18-.26.33-.17.05-.28.14-.43.23-.11.06-.23.08-.32.18-.25.25-.67.97-1.02,1.07-.14.04-.29-.01-.44-.02,0,.07.01.14.06.2.11.11.57.24.76.25.23-.16.38-.17.7-.14.08-.05.17-.1.25-.15-.02-.05-.19-.36-.11-.35.01-.01.02-.02.03-.04.2-.17.48-.05.72-.1l.26-.15c.12-.05.25-.09.37-.14.17-.08.31-.2.48-.31.01,0,.02-.01.03-.02.1-.04.21,0,.32.02.13-.22.26-.42.21-.71,0-.01,0-.02,0-.03h.04c.16-.2.5-.02.7-.14.1-.08.2-.15.3-.23.2-.12.42-.16.61-.3.21-.16.24-.4.53-.52.16-.06.31.05.48.01.1-.02.19-.11.28-.16.12-.06.24-.12.36-.18.1-.06.19-.12.28-.18.13-.05.31-.01.43-.07.24-.12.38-.38.65-.49.17-.07.43.1.65.02.21-.07.42-.17.62-.26.07-.05.14-.1.21-.15.13-.08.31-.08.48-.07.13-.09.33-.11.41-.28.02-.07.04-.14.05-.22.01-.05.07-.09.08-.14.12.05.24.1.36.15.06,0,.13-.08.18-.07-.01-.07-.05-.38,0-.38.26-.2.96.15.83-.36,0-.01,0-.03-.01-.05h.03c.1-.06.23-.04.34-.05.14-.04.29-.08.43-.12.12-.01.24-.02.36-.03.2-.06.23-.28.4-.36.16-.08.36.06.54.02.22-.05.35-.22.54-.32.18-.11.43-.1.66-.07.28-.1.81.11,1.12.13.13-.07.4-.09.55-.02.23.1.39.3.58.46.21.19.88.48.85.83.04.28.16.57.2.85-.01.11-.02.22-.03.33.02.19.11.45.02.64-.04.07-.15.13-.22.17-.04.03-.13.12-.19.12.02.11.02.3-.04.4-.11.17-.32.18-.45.32-.13.14-.19.31-.29.47-.12.18-.54.63-.74.71-.2.08-.41-.26-.58-.04-.23.28.43.29.41.54-.26.05-.4.18-.63.25-.35.11-.37-.07-.65.26-.04.05-.12.12-.13.19-.03.35-1.31.75-1.6.92-.13.07-.17.23-.29.31-.17.12-.38.13-.57.23-.14.07-.27.23-.41.3-.23.09-.46.19-.69.28-.35.24-.67.49-.91.83-.31.47.9.65.93.39.33.16.44.18.76-.03.04-.03.09-.1.14-.1-.04-.12-.22-.24-.21-.36h.07c.27-.09.64.06.83.19.03.02.04.04.04,0,.08-.06.15-.11.23-.17.25-.12,1.08-.26,1.14-.57,0-.17,0-.34,0-.5-.03-.1-.05-.19-.08-.29.17-.08.33-.16.49-.24.11-.06.19-.17.31-.21.16-.06.32-.02.49-.05.11-.02.18-.12.3-.12.11.02.23.04.34.06.08-.05.29-.22.4-.2.49.11.72.18.79-.38h.03c.46-.23.91.19,1.35.23.27-.08.53.13.74.22.12.04.25.06.35.13.14.1.16.28.29.41.1.09.23.12.34.19.12.09.23.18.35.27.18.15.22.35.36.52.22.28.79.79.85,1.13.03.15,0,.45-.06.59-.05.1-.18.18-.26.27-.17.23-.35.47-.52.7-.05.05-.13.1-.2.1-.07-.01-.33-.13-.34-.06h-.04c0,.19.06.29.13.46h-.03c-.08.1-.2.23-.34.25-.09.02-.17.03-.26.05-.11.07-.12.22-.21.31-.11.11-.26.07-.37.16-.13.14-.26.29-.4.43-.03.02-.07.05-.12.05-.08-.08-.41-.28-.53-.29-.03.08-.07.17-.13.23-.13.08-.26.16-.4.23-.1.11.03.25.15.26.1-.1.51-.33.65-.32v.04c.04.13.03.27-.08.35-.26.19-.37.01-.59.08-.1.03-.14.16-.23.22-.12.03-.23.07-.35.1-.1.04-.14.16-.2.23-.08.06-.16.11-.23.17-.05.05-.09.09-.14.13-.13.08-.26.16-.4.25-.13.09-.24.22-.39.27-.24.08-.55.07-.77.19-.24.12-.47.27-.69.41-.09.05-.18.13-.28.16-.31.05-.48-.41-.57-.42v-.04c.09-.04.21-.08.26-.16.06-.08-.03-.44-.14-.46s-.2.23-.4.24c-.37.03-.92.13-.71.67.05.13.19.27.17.42.05.02.17.02.16.08.1-.2.18-.47.2-.7h.07c.07.07.41.36.41.45,0,.06,0,.21-.05.2v.03c-.2,0-.52.02-.66.15-.1.09-.15.23-.29.28-.3.11-.65.11-.95.22-.2.06-.35.29-.54.38-.17.06-.33.13-.49.19-.12.02-.24.03-.36.05-.1.05-.2.1-.3.16-.14.05-.32-.04-.35-.17-.07-.35.37-.47.62-.47.13,0,.18.13.32.11.01,0,.03-.01.05-.02.09-.18-.48-.42-.46-.69h.03c.19-.1.48-.17.58.07.03.07.03.17.11.22.14.08.26-.03.39-.02v-.03c-.14-.3-.14-.47.1-.71.11-.11.2-.16.38-.14.14-.08.34-.14.43-.31.11-.23-.18-.26-.34-.27-.04,0-.07.02-.06-.04h-.03s.01-.14.01-.14h.07c.24-.06.48-.13.73-.19.11-.07.22-.13.32-.19.13-.06.26-.12.4-.18.24-.11.49-.3.79-.15.12.06.16.21.22.31.12.21.4.29.64.31.06-.28-.07-.7.07-.9.17-.22.32-.22.57-.31.06-.03.12-.06.18-.09.08-.02.17-.04.25-.07.09-.05.12-.15.19-.22.18-.2.61-.53.57-.84-.03-.19-.24-.3-.36-.43-.11-.17-.22-.34-.33-.51-.14-.36-.36-.69-.4-1.09,0-.05.03-.1-.02-.11.06-.07.1-.14.14-.24.06-.18.01-.37.04-.57.02-.26.21-.64.11-.88-.02-.05-.04-.11-.09-.12.01-.06.07-.23-.01-.24-.03-.02-.06-.07-.07,0-.07.04-.12.1-.18.16-.14.12-.3.07-.49.06-.02.05-.08.17-.01.17.08.07.22.14.14.26,0,.01-.02.02-.02.03-.06.06-.21.06-.28.08-.12.05-.24.1-.36.15-.11.03-.22.05-.33.08-.14.06-.21.21-.34.3-.14.1-.29.13-.44.2-.14.06-.26.14-.4.18-.28.08-.52-.08-.75,0-.18.06-.27.24-.45.32-.23.1-.5.1-.74.17-.28.11-.55.22-.83.34-.14.09-.28.18-.42.28-.13.04-.28.08-.41.12-.16.05-.31.15-.46.22-.08.02-.16.05-.24.08-.24.14-.48.28-.71.41-.17.06-.35.12-.52.17-.38.19-.77.37-1.16.56-.26.08-.53.16-.79.23-.14.08-.28.16-.42.23-.28.1-.56.14-.83.26-.27.12-.51.27-.79.36-.26.08-.54.11-.79.2-.29.1-.53.25-.85.3-.13.01-.26.02-.38.02-.46.09-1.52.49-1.95.32-.22-.08-.36-.34-.59-.43-.19-.09-.48-.12-.57-.34-.04-.1.04-.18.12-.23.23-.13.81-.19.68-.62-.04-.12-.18-.23-.17-.36.22-.09.48-.11.69-.24.14-.11.29-.21.43-.31l.38-.04c.09-.04.18-.08.28-.12.1-.01.19-.03.29-.04.07-.02.13-.05.2-.07.2-.05.35.15.55.09.12-.04.12-.19.2-.25.11-.09.26-.06.39-.11.06-.02.14-.13.2-.13,0-.12.05-.19.06-.3l.93.3c.1,0,.17-.1.25-.09-.07-.14-.2-.24-.26-.37-.1-.28.23-.55.47-.54.17,0,.28.13.47.15.16-.06.38.06.53-.04.12-.09.09-.3.19-.41.18-.21.48-.5.77-.49.13,0,.26.07.39.04.17-.04.23-.29.42-.27.17.01.25.57.67.61.17-.13.6-.22.66-.36.01-.04.04-.06-.01-.06v-.04c-.16-.02-.55-.06-.45-.31.02-.05.45-.42.5-.45.12-.04.23-.08.35-.13.19-.13.3-.4.55-.49.14-.05.29.08.43.09.31-.18.63-.09,1-.06.11,0,.21-.04.31-.03v-.03c-.05-.1-.41-.76-.31-.75.09-.15.25-.18.39-.29.1-.08.17-.2.29-.24.1-.04.18-.01.29,0,.17.46.36.18.51-.1.05-.1.1-.19.14-.29.44-.16.66-.56,1.21-.51.06-.04.13-.05.19-.11.06-.08.12-.17.18-.25.1-.11.38-.3.55-.28.01-.08.03-.17-.03-.23-.22-.25-.51-.26-.77-.42-.13-.08-.2-.23-.31-.33-.15-.13-.33-.19-.46-.34-.14-.16-.18-.4-.25-.58-.06-.12-.12-.23-.17-.34-.12-.28.26-.54-.01-.78-.09-.08-.19-.12-.31-.1-.11.04-.22.08-.32.12-.32.13-.64.26-.96.39-.11.03-.21.07-.32.1-.14.02-.28.04-.42.05-.16.06-.29.19-.44.27-.1.03-.19.05-.29.08-.1.06-.2.12-.3.17-.12.04-.23.08-.35.12l-.43.26c-.49.27-1.01.48-1.52.7-.16.05-.31.1-.46.16-.19.1-.36.28-.55.38-.22.12-.44.14-.65.25-.2.15-.41.3-.61.46-.29.14-.61.2-.89.34-.22.1-.37.31-.58.42-.24.12-.49.22-.74.33-.1.06-.2.11-.29.17-.16.06-.31.12-.47.17-.24.11-.42.3-.66.4-.2.05-.4.1-.6.14-.07.04-.14.08-.22.12-.1,0-.19,0-.29,0-.11.04-.22.07-.33.1-.23.01-.46.02-.68.04-.15.02-.3.05-.46.07-.14,0-.29,0-.44-.01-.12.02-.24.05-.36.07-.1,0-.2.02-.31.02-.52.11-.54.27-.52.79,0,.05.02.14-.04.13v.03c-.28-.05-.28-.12-.47-.26-.15-.11-.45-.22-.29-.47.1-.16.34-.11.44-.27.07-.12.06-.28.07-.42.05-.58.37-.41.82-.37,0-.05,0-.04.04-.03-.01-.1-.03-.21-.04-.31.1-.06.18-.18.29-.21.14-.01.28-.02.43-.04.06-.02.11-.12.17-.12-.01-.1-.02-.21-.04-.31.27-.15.51-.33.85-.3.16-.11.26-.16.35-.34,0-.01.02-.02.02-.04h-.04c.1-.14.18-.3.33-.4.15-.11.35-.12.48-.26.07-.09.08-.21.13-.32.06-.13.17-.19.24-.31.04-.08.08-.15.12-.23.02-.04.47-.41.51-.42.11-.05.24-.03.32-.11.11-.11.08-.28.14-.42.05-.08.11-.17.16-.25.21-.28.67-.64,1.01-.73.15-.05.32-.01.47-.06.14-.06.29-.13.43-.19.28-.11.51-.48.81-.51.17-.02.32.07.5.08.11-.07.35-.14.37-.31-.09-.07-.2-.19-.32-.2v-.07c.13-.03.24-.06.36-.09.09,0,.18-.02.26-.02.06-.02.1-.1.16-.09-.02-.42.45-.8.75-1.02.11-.07.23-.13.34-.2.22-.17.37-.39.57-.57.1-.06.19-.13.28-.19.16-.13.26-.28.41-.41.2-.18.43-.29.63-.46.15-.17.31-.34.46-.51.14-.16.33-.24.47-.4.11-.14.17-.31.26-.47.1-.11.19-.22.28-.33.08-.17.17-.34.25-.51.08-.13.25-.16.34-.28.08-.11.07-.29.13-.41.12-.2.25-.4.37-.6.25-.57.25-2.12-.32-2.44-.06-.04-.15-.05-.22-.04-.12.05-.25.1-.37.16-.16.03-.64-.02-.72.06-.02.02-.04.05-.04.07.08.07.24.22.19.34-.06.17-.31.1-.42.2-.19.18-.31.36-.45.58-.06.06-.12.13-.19.19-.04.09-.07.18-.11.27-.06.13-.14.22-.16.37-.07.45.44.62.81.65.1-.04.23-.05.35-.04.66-.31.32.8.04.94-.11.05-.25.05-.37.06-.37.05-.54-.05-.74-.36-.05-.08-.1-.17-.15-.25-.09-.07-.18-.14-.27-.22-.17-.17-.26-.41-.34-.62-.08-.2-.06-.38-.06-.61,0-.16-.06-.32,0-.48.05-.08.11-.16.16-.24.25-.38.56-.75.91-1.07.16-.14.43-.23.53-.43.04-.08.03-.22-.08-.23-.16-.01-.42.06-.55.14-.07.05-.14.1-.21.15-.21.08-.41.12-.61.24l-.37.29c-.24.11-.53.18-.75.33-.17.12-.29.28-.44.41-.1.05-.19.1-.29.15-.09.07-.19.15-.28.23-.09.04-.18.09-.27.13-.06.06-.12.12-.19.18-.17.1-.4.08-.56.17-.08.07-.17.14-.25.22-.19.11-.39.22-.59.32-.28.22-.51.46-.83.58-.11.04-.24-.02-.35,0-.1.03-.09.18-.14.25-.07.09-.15.17-.24.24-.2.14-.42.08-.6.19-.13.08-.16.22-.26.32-.14.11-.28.21-.42.31-.14.1-.32.1-.48.19-.22.13-.39.34-.61.45-.11.04-.22.07-.33.1-.17.16-.34.32-.51.48-.15.2-.23.43-.45.59-.19.13-.42.23-.62.36-.13.12-.26.23-.4.35-.23.15-.49.22-.73.38-.26.17-.47.42-.72.61-.35.26-.74.48-1.11.71-.08.06-.17.12-.25.18-.11.05-.22.1-.32.15l-.5.34c-.24.11-.48.23-.72.34-.19.06-.38.13-.58.19-.15.07-.36.34-.49.46-.17.12-.33.25-.5.37-.16.08-.32.17-.48.25-.14.05-.29.07-.4.17-.11.08-.16.22-.24.31-.19.22-.75.64-1.02.62-.12.16-.79.43-.81.61-.24.02-.36.19-.54.33-.14.11-.29.21-.43.31-.11.06-.22.11-.32.17-.13.1-.19.25-.29.37-.09.08-.19.17-.29.25-.06.07-.12.14-.17.21-.11.12-.25.13-.37.23-.1.1-.19.2-.28.3-.18.13-.37.27-.55.4-.29.23-.53.48-.83.7-.05.04-.47.2-.45.03h-.03c.07-.15.15-.29.22-.43.07-.23.05-.48.14-.7.05-.13.14-.19.22-.31.1-.17.21-.36.26-.55.05-.16.07-.31.13-.47.06-.12.12-.24.19-.36.09-.31.17-.61.22-.94.05-.35.04-.72.16-1.05.13-.4.41-.53.68-.83.24-.29.36-.51.66-.75.19-.16.57-1.27.78-1.25-.04-.13-.1-.3-.07-.45.05-.2.21-.3.3-.47.16-.35.31-.7.47-1.06.07-.2.01-.39.05-.6.03-.19.19-.44.14-.64-.05-.18-.25-.32-.39-.13-.08.1-.07.25-.12.38-.05.14-.4.6-.55.63-.05,0-.1-.01-.1.04h-.04c-.02.11-.03.2-.12.27-.21.18-.6.2-.82.37-.2.17-.41.34-.61.51-.08.09-.06.22-.17.28-.12.07-.29.04-.42.08-.13.06-.25.11-.37.17-.16.04-.32.08-.48.13-.13.07-.25.14-.38.22-.13.02-.54-.02-.65-.08-.11-.1-.23-.19-.34-.29-.19-.12-.44-.14-.57-.35-.09-.14-.15-.28-.2-.43-.09-.29-.14-.92-.46-1.06-.07-.03-.16,0-.21.04-.06.08-.12.17-.18.25-.08.07-.16.14-.23.2-.1.09-.15.2-.25.3-.13.11-.29.13-.4.27-.12.13-.14.3-.28.43-.34.3-.73.54-1.03.87-.06.11-.12.21-.19.32-.08.05-.16.11-.24.16-.14.12-.21.29-.35.42-.11.1-.25.16-.36.27-.13.13-.2.31-.36.45-.25.22-.54.35-.79.52-.08.07-.17.14-.25.22-.2.14-.39.29-.59.43-.05.07-.1.13-.15.2-.15.13-.3.26-.45.4-.11.14-.12.34-.22.49-.11.16-.38.12-.45.28-.07.15.03.31.03.47,0,.18-.08.4-.14.57-.12.34-.38.62-.49.95-.03.3-.05.59-.08.88-.05.12-.09.25-.14.37-.02.23-.04.45-.06.68-.05.17-.13.29-.16.47-.04.29-.07.59-.1.88,0,.13.02.25.03.38-.01.08-.03.16-.05.24,0,.14-.01.29-.02.44-.02.12-.08.24-.08.37.03.12.06.24.09.36,0,.23,0,.46-.01.68-.03.19-.07.38-.1.57.05.09.1.18.14.28.06.18.02.47.01.67,0,.13-.07.23-.13.33-.06.11-.07.31-.07.44.02.2.04.41.06.62.02.08.04.17.06.25-.05.04-.11.13-.18.12v-.04c-.08-.15-.26-.41-.43-.16-.11.16,0,.31-.04.48-.04.14-.16.25-.2.4-.04.15.02.26-.01.4-.09.24-.18.48-.26.72-.12.26-.6.49-.83.72-.1.1-.11.23-.24.32-.15.1-.34.08-.48.22-.06.1-.13.2-.19.3-.11.16-.4.41-.57.52-.12.08-.46.19-.61.18-.01.11,0,.26-.07.34-.12.13-.31.1-.44.22-.18.16-.26.37-.44.53-.16.13-.34.13-.51.23-.17.1-.18.3-.34.41-.14.09-.29.18-.43.27-.1.05-.21.06-.3.13-.07.07-.13.14-.2.21-.28.24-.58.46-.93.57-.26.08-.26-.16-.38-.17.01-.02.02-.04.04-.07.01-.02.03-.05.05-.08.11-.17.3-.18.45-.28.1-.08.19-.16.29-.25.09-.05.17-.1.26-.15.18-.12.28-.32.42-.48.16-.17.36-.27.52-.43.25-.26.24-.62.47-.84.01-.01.03-.02.04-.03.04-.02.08-.05.12-.07.08-.03.17-.04.27-.02.15-.05.34.05.47-.04.09-.06.11-.17.16-.27.08-.09.16-.18.23-.27.14-.08.28-.17.41-.25.08-.12.16-.25.24-.37.16-.17.31-.33.46-.5.11-.08.22-.16.34-.24.08-.08.16-.16.24-.23.1-.06.2-.12.3-.17.11-.1.17-.24.25-.35.17-.21.39-.42.49-.67.06-.32.11-.65.17-.97.1-.41.36-.81.35-1.27,0-.05-.02-.24.04-.24.04-.17.15-.31.19-.47,0-.11,0-.23,0-.34.04-.45,0-.87-.02-1.31-.01-.16.09-.28.1-.43,0-.2-.11-.35-.1-.55,0-.28.01-.63.1-.88.07-.15.13-.29.2-.44.03-.15-.06-.26-.08-.39,0-.22-.02-.43-.03-.65.02-.25.07-.48.13-.71.04-.14.08-.29.13-.44.04-.1.07-.2.11-.3.03-.2,0-.41.05-.61.05-.18.21-.32.28-.5.07-.19.06-.41.22-.54.1-.08.26-.07.38-.11.06-.02.19-.13.25-.13,0-.05.01-.04-.03-.04v-.07c-.11-.06-.31-.08-.38-.2-.08-.15.06-.32.12-.45l.15-.41c.11-.17.23-.34.34-.51.07-.12.12-.28.23-.37.23-.15.46-.31.69-.46.19-.16.33-.39.55-.54.13-.06.26-.12.39-.18.08-.07.17-.13.26-.2.18-.09.4.07.57-.05.3-.21.25-.73.45-.84.06-.02.11-.04.17-.05.05-.02.09-.07.15-.07-.01-.19.08-.28.23-.36.04-.02.06-.06.11-.06,0-.47.19-.43.59-.4v-.03s.04,0,.04,0v-.1c0-.16.03-.33.21-.33.13,0,.24.06.36.01.19-.07.23-.3.32-.44.1-.09.19-.18.28-.28.06-.12.04-.25.09-.38.08-.1.17-.21.25-.31.08-.07.15-.13.23-.2.11-.05.26-.04.34-.13.11-.13.05-.36.18-.48.14-.13.34-.08.51-.13.11-.07.23-.14.34-.21.14-.08.3-.08.42-.21.02-.03.05-.06.07-.1.05-.11.08-.23.17-.3.14-.13.34-.16.5-.24.23-.11.31-.4.34-.63,0-.06.02-.17.09-.17.11-.03.21-.05.31-.08.18-.06.32-.17.49-.26.06-.03.13-.06.2-.08.16-.1.02-.38.17-.51.19-.17.4-.21.64-.27.18-.05.37-.14.53-.23.18-.09.3-.27.45-.4.2-.19.74-.38,1.02-.39.49,0,.18.48.64.52.09-.04.24-.01.34,0,.5-.12.35.95.38,1.23.04.27.09.54.13.81,0,.22-.13.41-.12.64,0,.13.07.24.11.36.06.19.11.47.08.69-.02.11-.04.22-.05.34,0,.1.07.18.05.28-.04.3-.23.66-.34.94-.04.23-.09.47-.13.7-.04.17-.16.31-.21.47-.02.12-.05.24-.07.36-.09.25-.25.32-.36.53-.06.17-.12.34-.19.51-.17.35-.43.68-.66,1-.04.08-.08.16-.12.24l-.19.21c-.05.09-.1.19-.16.28-.05.05-.11.09-.16.13-.29.28-.55.55-.69.93-.06.14-.04.31-.06.47-.02.07-.05.14-.07.21-.04.18-.08.36-.12.53,0,.11,0,.22,0,.34-.05.07-.09.14-.13.21-.02.1-.04.2-.06.31-.05.14-.19.26-.21.41-.01.11.08.21.19.22v-.04c.18-.05.48-.16.59-.31.07-.13.15-.26.23-.39.09-.08.18-.15.27-.23.09-.1.16-.22.25-.32.12-.14.3-.14.44-.26.1-.08.12-.22.2-.32.11-.13.27-.23.41-.34.11-.09.25-.1.38-.16.15-.08.3-.16.45-.24.14-.07.3-.1.44-.19.13-.1.22-.26.34-.39.17-.12.35-.24.52-.35.14-.12.23-.26.38-.37.22-.14.44-.28.65-.41.12-.02.24-.05.35-.06.24-.07.46-.23.66-.39.18-.14.12-.41.31-.53.12-.08.29-.05.43-.1.24-.08.49-.27.71-.39.26-.15.5-.32.76-.48.13-.06.26-.12.4-.18.16-.11.31-.22.47-.32.17-.09.63-.12.7-.28.02-.06,0-.19.05-.19.12-.21.35-.24.53-.39.11-.1.18-.25.33-.31.11-.05.27-.01.36-.09.07-.06.09-.19.17-.26.16-.11.31-.23.47-.34.09-.11.18-.21.28-.31.29-.26.6-.46.9-.69.33-.26.6-.56,1.06-.53.05,0,.13.03.14-.02h.03c0-.06-.03-.27.02-.27.13-.23.39-.14.58-.26.1-.12.19-.24.29-.36.1-.09.24-.09.35-.12.16-.05.23-.16.43-.14.26-.16.92-.48,1.04-.74.02-.04.01-.13.06-.12.17-.31.55-.41.82-.6.12-.09.25-.26.4-.3.04-.01.13-.05.13.02.02.08-.03.34.07.35.19.06.74-.3.78-.48.01-.04.04-.06-.02-.07v-.03c-.15-.02-.4-.05-.38-.24.32-.13.65-.28.95-.49.1-.1.21-.19.31-.29.15-.08.31-.03.48-.07.12-.04.18-.21.3-.28.17-.09.39-.06.56-.14.23-.12.33-.39.56-.52.13-.06.25-.11.38-.17.1-.01.19-.02.29-.04.18-.06.26-.26.46-.27.17-.01.31.12.48.06.08-.07.2-.27.32-.34"/>
      <path class="cls-4" d="m102.39,52.43c.19.23.08.79-.2.92-.15.07-.58-.19-.57-.37.08-.06.17-.12.26-.18.08-.04.17-.08.25-.12.08-.08.17-.16.25-.25"/>
      <path class="cls-4" d="m101.57,53.56c.17.06.31.2.49.22.21-.11.39.12.29.31-.16.29-.71.18-.98.26-.08.05-.16.1-.24.16-.17.01-.29.14-.45.17-.05,0-.18.06-.17,0-.02-.03-.09-.11-.02-.11.13-.26.43-.25.62-.43.17-.17.11-.42.37-.53.03,0,.06-.01.09-.01v-.03Z"/>
      <path class="cls-3" d="m99.8,56.6s.07.07.13.08c-.05-.03-.09-.05-.13-.08"/>
      <path class="cls-4" d="m97.15,57.12c0,.06-.06.07-.11.1,0,.03-.01.02-.04,0h-.03s-.02-.07-.03-.11h.07s0-.02,0-.02c.05.01.09.02.13.04m-2.11-.63v.1c-.08,0-.14-.06-.17-.12h.17Zm4.33-.16v.03c-.09.05-.19.4-.07.41.04.01.07.03.1.04v-.03c.17-.13.14-.35-.02-.45m1.22-.23c-.06.18-.03.32-.05.51.39.09.45-.41.05-.51m3.97.11c.08,0-.03.19-.06.24h-.13s0-.05,0-.05c-.08,0,.03-.2.05-.24.05.01.09.03.13.05m-1.91-.54s-.28.18-.19.19c.08.1.35.16.39-.01.02-.13-.11-.16-.2-.18m-4.08-.43c-.11.08-.64.28-.39.51.22.22.43-.06.55-.2.06-.07.16-.15.17-.24h-.03s0-.04,0-.04l-.31-.02Zm10.25-.3v.03c-.11.04-.25.13-.27.25-.06.12-.02.34-.14.41-.1.01-.19.02-.29.03-.08.04-.16.09-.25.13-.1.02-.21-.04-.31-.01-.14.04-.31.3-.47.37-.17.08-.39.03-.56.11-.15.07-.6.45-.69.58-.04.09-.08.18-.12.26-.06.1-.2.17-.23.28-.06.2.43.69.6.79.17.06.34.12.51.17.18.08.33.2.54.25.32.04.63.07.95.1.09,0,.18,0,.28-.01.21-.14.48-.15.69-.3.07-.07.15-.15.22-.22.4-.37,1-.85,1.11-1.39.06-.31-.05-.59-.16-.84-.08-.18-.1-.36-.26-.51-.1-.09-.44-.31-.58-.31-.11,0-.22.08-.33.03-.08-.07-.16-.14-.24-.21m.45-1.23c.11.01.2.03.28.09.1.07.1.21.16.3.17.16.33.33.49.49.11.15.12.38.21.55.07.1.15.21.22.31.1.14.12.28.18.43.11.25.28.46.25.76,0,.08-.14.33-.11.33.07.11.2.13.26.25.15.29-.2.61-.47.59,0,.05.01.17-.05.17-.14.09-.18.24-.32.33-.32.22-.59.21-.65.68-.01.11.04.21.03.31-.07,0-.34-.06-.34,0h-.04c0,.05.01.11.02.17-.08.06-.16.13-.24.19-.11.06-.23.13-.34.19-.07.08-.07.19-.12.29-.1.17-.31.3-.48.39-.15.08-.31-.04-.47-.01-.13.05-.25.1-.37.15-.12,0-.24.01-.36.02-.22.04-.43.13-.64.22-.23.09-.32.36-.54.46-.26.12-.58.12-.85.22-.11.04-.17.13-.25.21-.1.09-.27.2-.39.24-.16.06-.41-.03-.55.06l-.3.36c-.16.16-.42.21-.61.29-.1.04-.19.13-.3.15-.04,0-.09,0-.13,0-.03-.05-.1-.09-.09-.14h-.07s0,.06,0,.06h-.04c.08.43-.52.41-.55.81-.16.05-1.34.58-1.41.3-.06-.21.31-.24.41-.36.04-.14.07-.28.11-.42.07-.18.26-.45.43-.56.12-.04.23-.08.35-.13.04-.02.07-.07.12-.07v-.1s-.36-.11-.35-.13h-.04s.01-.14.01-.14c.55-.34.59-.05,1.17,0,.12-.07.24-.09.31-.22.08-.14.02-.34.17-.44.2-.06.41-.12.61-.18.12-.05.2-.2.34-.19.17,0,.26.19.45.12.19-.07.24-.3.38-.41.2-.12.41-.24.61-.36.1-.04.2-.07.3-.1.14-.12.28-.23.42-.35.2-.11.42-.17.53-.38,0-.01.01-.03.02-.05,0-.05-.01-.11-.04-.14-.14-.21-.48-.2-.68-.32-.35-.2-.62-.57-.9-.88-.03-.04-.05-.08-.08-.12-.03-.1-.05-.2-.08-.3-.05-.11-.11-.23-.16-.35-.08-.29-.1-.5-.37-.65-.04-.02-.17-.16-.17-.1-.13-.02-.24.03-.38.02-.1-.01-.19-.08-.3-.06-.1.02-.19.14-.29.13.02-.29-.03-.39-.34-.32-.29.07-.35.43-.61.51-.19.06-.41.04-.61.06-.14.02-.28.05-.42.07-.33.03-.67.01-.99.05-.16.01-.32.05-.49.07-.27,0-.54-.01-.81-.02-.11-.06-.21-.11-.31-.17-.17-.08-.44-.12-.63-.08-.49.11-.08.35-.21.51-.09.12-.3.13-.43.15-.18.02-.35-.04-.51-.08-.06-.02-.11-.03-.17-.05-.33.35-.79.46-1.28.46-.12-.01-.25-.02-.37-.03-.16.02-.23.16-.37.19-.14,0-.29.01-.43.02-.78.16-1.24.37-1.62-.51-.06-.11-.11-.22-.17-.34-.02-.11.02-.19.09-.26.23-.23.5-.05.79-.09.1-.01.17-.08.24-.15.04-.04.1-.05.1-.1-.02-.05-.01-.17-.09-.18-.11-.07-.23-.06-.3-.18-.01-.03-.04-.05.01-.05.34-.49.58-.4,1.16-.34.07,0,.14-.01.21-.01.1-.02.2.02.31.03l.13-.26.37-.03c.23-.05.4-.24.6-.34.16-.08.35-.11.49-.22.13-.1.14-.28.29-.36.12-.07.23-.01.36.01.34.06.46-.23.49-.52.14-.09.29-.11.45-.16.09-.05.19-.1.28-.14.06-.01.12,0,.17.02.15.07.18.25.37.26.14-.08.28-.17.41-.25.24-.23.04-.61.61-.49.22.05.39.22.63.24.11-.13.31-.27.5-.24.05,0,.07,0,.07.05,0,.08.01.16.01.24-.18-.01-.41-.02-.56.06-.14.08-.42.77-.66.51-.05-.05-.09-.14-.08-.21l-.2-.02c-.02.14-.04.28.02.4.04.07.11.13.12.21.01.09-.04.17-.05.26-.14-.01-.31.01-.43-.04-.01,0-.02-.01-.03-.02-.18-.13-.24-.32-.5-.27-.05,0-.1,0-.11.06-.11.25.25.38.37.51.04.04.03.15.08.15.16.2.76-.09.63.22-.03.07-.08.12-.1.21-.01.05-.03.13.03.14.27.07.34-.22.49-.35.09-.08.21-.13.32-.17.21-.08.38.01.6.03.22-.04.25.16.36.17,0,.05,0,.04-.04.03-.06.11-.14.34.1.31.12-.02.13-.32.04-.33.15-.27.89-.47,1.2-.35.16.06.3.23.49.22.15-.01.17-.17.28-.23.09-.05.22-.04.32-.06.14-.04.22-.13.37-.15.3-.04.4.18.66.2.19-.14.56-.26.81-.24.06-.02.13-.04.19-.06.07-.07.14-.14.22-.21.23-.17.82-.41,1.13-.38l.18-.05c.2-.1.28-.33.51-.39.16-.04.38-.1.55-.09.12.01.2.06.31.09.16.05.32-.04.45-.1"/>
      <path class="cls-4" d="m109.92,59.3h.03s-.01.04.03.04c-.03.02-.03.03-.07.03v-.07Z"/>
      <path class="cls-4" d="m97.71,63.24h.03s-.01.04.03.04c-.03.02-.04.02-.04.06h-.1s0-.08,0-.08c.03,0,.05-.02.07-.03"/>
      <path class="cls-4" d="m74.03,73.61s-.13.19-.05.2v.04s.13.01.13.01c.02-.04.06-.1.11-.1,0-.05.01-.03-.03-.04v-.07s-.11-.03-.16-.05m3.09-2.03c-.09.03-.54.16-.4.34.14.19.58-.14.4-.34m9.8-2.67s-.19.26-.09.26v.04s.17.01.17.01c.02-.02.03-.03.07-.03v-.03c-.05-.11-.05-.18-.14-.25m3.24-1.29v.03c-.13.09-.1.3.07.31v-.03s.04,0,.04,0c0-.14-.01-.23-.11-.32m-2.33-.79c-.1.05-.2.09-.3.14-.1.05-.18.13-.28.16-.26.05-.52.1-.78.15-.16.05-.32.1-.47.15-.18.01-.36.03-.53.05-.17.04-.25.26-.43.3-.26.07-.57-.11-.81.04-.07.04-.15.1-.16.19-.02.09-.04.18-.05.26-.08.14-.17.3-.25.44-.08.23-.13.95.15.99.04,0,.07-.01.1-.02.11-.08.13-.52.18-.66.11-.32.26-.64.52-.87.04-.04.2-.14.19-.07.27.27-.02.97-.18,1.25-.12.21-.72.76-.07.82.3-.25.51-.51.64-.88.05-.15.05-.32.13-.46.02-.05.06-.11.13-.1.2.05-.11.65.2.67.05-.09.22-.56.25-.56v-.04s.04,0,.04,0c.19.19.09.45.3.55.03.02.06.05.06,0,.07-.03.12-.07.15-.14.05-.18.09-.37.13-.55.05-.12.1-.25.15-.37.29-.03.52.29.5.56h.13c.31-.38.45-.78.52-1.32,0-.16,0-.32,0-.48,0-.06.04-.17-.04-.17-.04-.01-.08-.03-.12-.04m4.65-1.38h-.14s0-.05,0-.05h-.04c0-.05.05-.1.08-.13.03.06.06.12.09.18m1.45-.15h.04s0,.04-.04.04v.03s-.07,0-.07,0c0-.04-.02-.07-.03-.11.04.02.07.03.1.05m1.86-.45s-.11.13-.05.13c.06.02.17.05.18-.05-.04-.03-.09-.06-.13-.08m4.5-2.42c.26.04.36.18.26.43-.04.11-.11.15-.24.13-.12-.02-.27-.13-.37,0-.17.22.21.58-.05.77-.11.03-.23.06-.34.09-.22.08-.2.28-.54.23-.19-.03-.3-.22-.52-.16-.04.01-.16.06-.16.1v.04c-.04.07,0,.27.07.28v.07s-.04,0-.04,0c-.2.11-.43.08-.66.13-.27.07-.54.14-.82.22-.07.17-.09.3-.25.41-.19.13-.34.07-.58.09-.1.04-.19.07-.29.11-.06.01-.11.02-.17.04-.22.08-.36.28-.59.33-.01,0-.02,0-.03,0-.17.01-.34.02-.51.03-.14-.01-.29-.09-.43-.06-.09.05-.18.11-.28.16-.22.1-.58.13-.8-.03-.09-.07-.44-.21-.46.01.02.08.06.21,0,.28-.06.07-.22.02-.3.03-.09.03-.17.07-.26.1-.22.04-.55.02-.78-.02-.14-.03-.24-.17-.4-.16-.07.01-.14.03-.22.05-.28.02-.57.05-.83.12-.23.06-.46.17-.69.24-.23.07-.41.03-.61.16-.08.05-.16.12-.18.21-.04.1-.04.96,0,1.05.05.12.14.18.22.28.04.06.09.16.18.17.11-.16.16-.28.18-.5,0-.01,0-.02,0-.03h.03s0-.03,0-.03h.1s.16.23.16.16c.06-.03.14-.08.15-.16.05-.08.1-.23.22-.22.04.09.09.25.22.26.1-.14.34-.66.5-.64.3.04.3.75.12.93-.12.12-.32.06-.48.08-.1.03-.2.06-.3.1-.11.02-.22,0-.32.03-.22.07-.35.19-.52.34-.06.05-.12.06-.2.03-.05-.02-.14-.04-.13-.1-.08.04-.12.1-.15.19,0,.16,0,.32,0,.48-.01.23-.03.45-.04.68,0,.06.02.12.03.18-.4-.14-.2-.85-.2-1.21-.01-.1-.03-.19-.05-.28-.23.08-.25.31-.41.46-.11.1-.25.09-.36.17-.11.07-.15.19-.27.23-.12,0-.23.01-.35.02-.24.09-.21.24-.51.11-.04-.02-.2-.07-.21-.01-.24.34-.22.65-.3,1.07-.05.15-.1.29-.14.44,0,.1-.01.2-.02.29-.02.05-.06.09-.11.09-.35,0-.23-.82-.15-1.03.07-.19.24-.36.26-.56-.06-.05-.11-.11-.19-.12-.12.14-.38.48-.57.53-.31.07-.41-.19-.63-.3-.1-.05-.23-.08-.31-.16-.07-.08-.11-.19-.13-.29-.09-.55.18-1.1.22-1.62-.16-.04-.28,0-.41.09-.26.22-.52.43-.78.64-.06.07-.13.14-.2.21-.27.2-.54.38-.82.58-.09.07-.11.17-.18.23-.11.1-.24.18-.36.28-.16.09-.31.18-.47.28-.18.15-.32.36-.49.51-.22.19-1.54,1.19-1.73,1.17-.02-.03-.28-.33-.29-.16-.03.08.05.31,0,.31-.18.22-.5.18-.73.3-.29.16-.36.51-.71.67-.17.08-.38.04-.57.1-.08.05-.16.09-.23.13-.12.02-.23-.05-.35.01-.08.07-.17.14-.25.2-.25.16-.4.13-.51.45-.01.04-.01.1-.07.1-.14.04-.29.07-.43.11-.15.01-.29-.08-.41.02-.18.16-.04.4-.07.61-.04.22-.18.27-.35.35-.09.06-.18.12-.28.18-.21.1-.43.1-.67.07,0-.05.01-.04-.03-.04v-.03c.04-.15-.05-.25-.05-.38,0-.12.07-.22.06-.33-.01-.11-.1-.19-.08-.31.04-.21.38-.24.52-.35.13-.1.29-.2.4-.31.12-.14.24-.29.37-.43.15-.08.3-.17.46-.25.09-.05.19-.13.3-.14.1.01.2.02.3.04.05-.07.17-.35.23-.37.14-.04.19.12.28.18.1.06.26.11.38.11.21,0,.32-.14.5-.21.08-.03.24-.07.25-.18-.03-.29-.48.02-.59.04-.06,0-.16-.1-.09-.09.05-.12.17-.38.25-.47.11-.15.3-.15.44-.25.24-.19.41-.53.71-.65,0,0,0,0,.01,0,.14-.04.28.05.42.06v-.03s.04,0,.04,0c0-.12-.01-.25.04-.36.08-.17.36-.26.49-.08.01.02.04.05,0,.05-.07.11-.28.22-.18.37.02.04.05.07.1.07.14.04.59-.11.72-.17.05-.02.11-.1.16-.1-.05-.14-.28-.29-.27-.4.07-.02.15-.04.23-.02.11.03.78.42.81.05,0-.07-.04-.15-.08-.2-.17-.2-.3-.07-.5-.05-.11.01-.23-.02-.34-.04-.05,0-.1.01-.1-.05h-.03c.04-.12.09-.23.18-.32.15-.1.29-.2.44-.3.18-.14.37-.29.55-.43.1-.1.2-.19.3-.28.19-.13.38-.18.54-.36.02-.03,0-.02.05-.02v-.03s.04,0,.04,0c.11.1.22.26.39.28.1-.27-.14-.44-.02-.67.1-.18.27-.21.42-.31.19-.15.39-.3.59-.46.15-.07.29-.13.44-.2.18-.11.3-.26.5-.31.16-.04.28.08.42.1.1-.02.21-.03.31-.05.23-.01.46-.02.69-.04.1-.05.2-.04.3-.09.06-.05.12-.1.18-.15.1-.06.2-.12.3-.17.08-.08.17-.16.24-.23.13-.1.39-.16.56-.18.18-.02.36.04.53.05.18-.09.37-.18.55-.27.11-.02.22-.04.32-.06.3-.13.56-.36.88-.43.24-.06.54.01.79-.06.17-.05.25-.22.41-.3.22-.12.47-.04.71-.11.07-.04.14-.08.21-.13.14-.07.29-.07.47-.05.27-.09.59.12.73.3.1.12.13.22.31.24.19-.06.34.11.5.14.1-.01.19-.03.28-.04.13.01.27.03.4.05.15-.09.39-.19.57-.2h.27c.13-.03.25-.06.38-.08.04,0,.11-.04.11.02.14.14-.24.49.23.53.03-.03.89-.41.42-.52-.08-.02-.52.09-.51-.04-.02-.07-.05-.35,0-.34.19-.29.35-.03.52.05.18.08.58.11.67-.1.04-.1,0-.19.02-.29.02-.07.04-.13.06-.2.06-.02.42-.15.42-.07.25.16-.06.58.05.59v.03s-.04-.01-.04.03h.07s0-.02,0-.02c.07-.07.13-.14.2-.21.11-.07.27-.1.32-.24.03-.09.02-.2.03-.29.11-.04.2-.08.32-.08.08,0,.17,0,.26,0,.1-.02.14-.13.23-.17.09-.01.18-.03.27-.04.14-.04.24-.13.37-.19.1-.02.19-.05.29-.08.19-.09.16-.34.4-.4.17-.04.24.15.4.16.08-.1.2-.27.32-.31.28-.13.39-.03.57-.26"/>
      <path class="cls-4" d="m71.93,74.46c.07.02.13.04.2.05.04.21-.06.47-.22.6-.08.05-.16.09-.23.13-.08.07-.07.2-.15.26-.19.14-.56.16-.53-.17.59-.07.2-.25.42-.49.17-.13.35-.26.52-.39"/>
      <path class="cls-4" d="m72.39,75.43c.07.07.23.32.23.43,0,.27-.41.45-.63.46-.14.01-.28-.07-.42-.04-.08.05-.17.1-.25.15-.07.02-.15.05-.23.08-.56.19-1.14.23-1.74.34-.2.06-.4.12-.6.18-.13,0-.35-.02-.47-.06-.06-.02-.11-.05-.17-.07v-.03c.08-.08.12-.17.24-.19.17-.05.3.02.47.03.21.02.52-.12.67-.28.03-.03.07-.06.01-.06-.01-.05-.03-.17-.09-.18v-.07c.12-.04.25-.08.35-.16.1-.08.24-.44.41-.34.17.1.23.38.46.4-.03.04-.22.22-.16.23v.07c.12-.02.23-.04.34-.11.08-.05.17-.16.27-.18.35-.05.33.28.71-.01.02-.02.11-.06.04-.07.19-.26.27-.35.55-.53"/>
      <path class="cls-2" d="m48.08,50.29c.39.1.85.08,1.25.19.3.13.6.26.9.4.13.04.26.09.38.13.92.4,1.82.85,2.66,1.39.18.11.33.26.5.39.15.1.3.2.44.29.16.13.31.26.46.4.34.26.77.54,1.03.9.31.43.58.88.81,1.35.12.24.32.44.44.69.12.25.22.51.36.76.15.23.3.46.45.69.31.51.56,1.1.95,1.57.12.12.25.23.37.35.31.38.63.76.94,1.14.19.2.44.32.64.51.53.47,1.01.99,1.55,1.43.31.26.86.5.98.94.05.17-.02.33-.05.5-.03.28-.06.57-.09.85-.02.12-.05.25-.07.37-.03.73-.15,1.48-.25,2.21v.2c-.02.1-.04.2-.06.3-.01.13.02.25-.02.37-.1.3-.36.58-.53.84-.29.42-.52.86-.84,1.26-.1.19-.2.37-.3.56-.17.3-.41.6-.62.88-.09.12-.25.19-.38.26-.12.1-.25.2-.37.3-.38.36-.68.77-1.08,1.12-.29.26-.72.47-1.06.66-.43.24-.88.52-1.35.66-.41.13-.85.2-1.29.29-.52.1-1.04.29-1.6.26-.46-.02-.85-.56-.76-1.01.01-.05.06-.17,0-.17.18-.2.46-.58.51-.85.04-.2,0-.41.08-.6.16-.42.41-.88.67-1.24.12-.12.23-.24.35-.36.17-.24.33-.46.53-.69.04-.05.08-.1.12-.16v-.03c.28-.28.7-.79.79-1.17.02-.09.09-.34-.06-.35-.04,0-.44.34-.53.39-.31.18-.67.31-.99.49-.17.1-.28.27-.44.37-.21.1-.43.2-.64.3-.17.12-.34.24-.51.36-.41.26-.85.52-1.24.83-.1.08-.13.2-.19.3-.12.18-.28.33-.46.46-.16.12-.36.14-.54.2-.4.11-.78.24-1.14.44-.16.08-.32.16-.48.23-.26.09-1.71.51-1.74.76.12.07.24.12.4.14v.1c-.16.05-.3.06-.45.1-.25.06-.5.15-.75.19-.32.02-.64.04-.96.06-.17.02-.35.04-.52.06-.2,0-.35-.15-.53-.2-.16-.05-.32.01-.47-.03-.45-.13-1.09-.83-1.03-1.32.13-.16.2-.36.37-.51.17-.14.4-.22.59-.31.31-.15.66-.31.93-.54.37-.31.76-.66,1.05-1.04.07-.12.14-.24.22-.36.16-.23.38-.44.54-.66.05-.08.1-.16.15-.24.18-.22.34-.42.49-.65.13-.2.25-.25.28-.53-.38.04-.46.18-.76.36-.1.05-.2.1-.3.14-.11.08-.23.16-.34.23-.12.04-.23.08-.35.12-.18.09-.33.2-.52.28-1.35.53-2.73.99-4.13,1.4-.38.14-.76.28-1.13.41-.13.03-.25.06-.38.08-.2.07-.41.13-.61.2-.23,0-.46,0-.69,0-.31,0-.61.05-.9.07-.12,0-.25,0-.37,0-.15.01-.28.02-.41.07-.15.05-.34.16-.5.14-.22.03-.41.1-.61.16-.1.02-.2.04-.3.06-.48.17-1.57.62-2.08.38-.18-.09-.37-.26-.51-.41-.11-.13-.19-.28-.34-.36-.2-.11-.51-.19-.76-.18-.15,0-.32.05-.48.03-.3-.05-.59-.37-.73-.64-.02-.05-.13-.28-.05-.28.06-.14.18-.22.31-.31.09-.07.18-.13.27-.19.19-.09.37-.05.6-.07.19-.02.42-.11.59-.19.16-.08.31-.2.47-.29.1-.04.19-.07.28-.12.31-.15.6-.3.9-.46.23-.12.47-.16.69-.28.55-.31,1.07-.71,1.61-1.05.57-.37,1.07-.86,1.82-.8.12-.05.23-.1.35-.15.08-.08.17-.16.26-.23.11-.04.23-.02.34-.08.07-.05.14-.1.21-.14.38-.21.79-.42,1.19-.59.07-.03.29-.22.35-.22v-.07c-.38-.02-.71.11-1.07.16-.24.02-.48.05-.72.07-.48.07-.97.22-1.44.3-.17.02-.34.04-.51.05-.2.05-.41.1-.61.15-.14.01-.29.02-.44.03-.32.05-.65.1-.97.15-.7.1-1.38.29-2.07.4-.2.03-.41,0-.61.02-.28.03-.57.1-.85.16-.12,0-.24.01-.36.02-.16.03-.3.11-.47.13-.25.04-.52.02-.78.06-1.05.16-2.13.24-3.25.23-.22,0-.41-.06-.61-.11-.65-.14-1.22-.29-1.67-.71-.18-.17-.37-.58-.32-.84,0-.04.04-.07-.02-.07.06-.1.13-.2.19-.31.21-.14.42-.27.63-.41.08-.08.16-.16.24-.24.18-.11.37-.23.55-.34.17-.07.35-.13.52-.2.29-.07.58-.15.87-.23.06-.02.4-.19.39-.13h.03s0-.03,0-.03c.22-.02.38-.13.58-.19.16-.05.32-.07.47-.14.12-.06.25-.11.37-.17.1-.02.2-.04.29-.06.2-.09.41-.17.62-.26.13-.02.25-.05.38-.08.29-.09.56-.25.84-.38.4-.19.81-.34,1.19-.58.36-.23.75-.48,1.16-.57.05-.01.14,0,.14-.06h.03c.22-.06.44-.12.66-.19l.26-.12c.26-.1.52-.15.79-.25.24-.09.51-.19.76-.24.48-.07.96-.15,1.44-.22.44-.12.87-.42,1.29-.59.38-.15.75-.31,1.12-.5.1-.05.21-.11.31-.16.04-.03.11-.08.08-.15-.08-.19-.47,0-.58.05-.2.1-.41.2-.62.31-.37.04-.73.09-1.1.13-.5.14-1.01.28-1.51.41-.57.15-1.06.51-1.64.65-.25.07-.51.13-.76.2-.17,0-.34.02-.51.02-.11.02-.21.04-.32.06-.39.04-.78.08-1.17.13-.14.02-.25.09-.37.13-.17.02-.34.04-.51.05-.25.04-.48.1-.71.16-.16.02-.31.04-.47.06-.13.03-.26.06-.39.1-.16.02-.32.05-.48.08-.23.05-.43.17-.65.25-.25.08-.52.11-.76.19-.24.09-.46.25-.72.29-.25.04-.46-.17-.66-.24-.16-.06-.38-.05-.53-.02-.7.14-1.41.26-2.11.39-.25.02-.49.05-.75.07-.37.06-.72.15-1.1.21-.26.01-.52.02-.78.02-.34.03-.63.17-.94.22-.12,0-.23-.01-.35-.02-.35.02-.68.05-1.03.08-.55.04-1.08.25-1.64.23-.37-.01-.66-.21-1-.3-.2-.04-.4-.07-.6-.11-.39-.11-.78-.21-1.18-.32-.25-.06-.48-.04-.7-.12-.24-.1-.49-.23-.7-.38-.07-.06-.15-.12-.22-.19-.36-.2-.71-.4-1.07-.59-.32-.16-.75-.08-1.03-.3-.13-.11-.26-.22-.4-.32-.34-.28-1.07-.68-.94-1.25.02-.11.12-.18.18-.28.12-.19.31-.28.55-.25.21-.08.82.07,1.09.1.17-.1.41-.14.63-.12.15-.06.41,0,.58.02.21-.08.7-.02.96.02.11.02.22.05.34.07.08-.02.17-.05.25-.07.18-.02.41,0,.6.03.01,0,.03,0,.04,0v-.03c.23,0,.44,0,.69.02.15-.06.48-.13.66-.11.11-.02.23-.05.34-.07.26-.07.5-.14.78-.19.16-.03.31-.1.49-.08.2-.08.53-.12.76-.11.1,0,.2,0,.31,0,.16-.07.43-.1.63-.08.07,0,.14-.01.21-.01l.87-.3c.55-.19,1.14-.35,1.7-.53.25-.08.43-.25.72-.23.25-.15.53-.13.81-.23.27-.11.54-.21.81-.31.12-.03.23-.06.35-.08.12-.05.25-.09.37-.14.18-.04.35-.09.53-.13.23-.08.45-.16.67-.25.13-.03.27-.07.4-.1.59-.2,1.17-.38,1.77-.57.14-.05.27-.11.41-.16.19-.04.38-.08.58-.13.25-.06.49-.21.78-.19.07,0,.14-.01.2-.01.16-.09.37-.1.55-.14.25-.05.45-.15.74-.12.04-.02.18-.11.18-.05h.04s0-.03,0-.03c.61-.05,1.16-.45,1.82-.39.12-.03.25-.06.37-.1.25-.08.46-.21.75-.18v-.03c.2-.04.32-.19.51-.24.95-.22,1.92-.41,2.83-.75.58-.22,1.03-.62,1.74-.55.2-.11.76-.28,1.02-.25.24-.16.85-.25,1.15-.32.2-.05.38-.16.58-.22s.41-.07.61-.12c.25-.08.51-.16.76-.24.35-.12.71-.19,1.08-.28.38-.09.8-.28,1.22-.24.08,0,.16,0,.24-.01.14-.06.35-.04.52-.02.1-.05.26-.05.38-.04.13-.06.32-.04.48-.02.09-.05.2-.05.31-.04.07,0,.14-.01.2-.01.23-.01.44-.02.66-.02"/>
    </g>
  </g>
  <rect class="cls-5" x="-376.09" y="-260.19" width="1951.05" height="522.43"/>
</svg>