<?xml version="1.0" encoding="UTF-8"?>
<svg id="Calque_1" data-name="Calque 1" xmlns="http://www.w3.org/2000/svg" viewBox="0 0 200 128">
  <defs>
    <style>
      .cls-1, .cls-2 {
        fill: #005c2f;
      }

      .cls-3, .cls-4 {
        fill: #e9cb61;
      }

      .cls-5 {
        fill: #97c722;
      }

      .cls-6, .cls-7 {
        fill: #c2524d;
      }

      .cls-8 {
        fill: #c9b5b9;
      }

      .cls-9 {
        fill: #3f3a32;
      }

      .cls-10 {
        fill: #e6e3d4;
      }

      .cls-10, .cls-4, .cls-11, .cls-12, .cls-13, .cls-2, .cls-14, .cls-7, .cls-15, .cls-16, .cls-17 {
        stroke: #000;
        stroke-miterlimit: 10;
        stroke-width: 2px;
      }

      .cls-11 {
        fill: #eecac3;
      }

      .cls-12 {
        fill: #b8b21c;
      }

      .cls-13 {
        fill: #96c522;
      }

      .cls-14 {
        fill: #3f3a31;
      }

      .cls-15 {
        fill: #876b68;
      }

      .cls-16 {
        fill: #c8b6b9;
      }

      .cls-17, .cls-18 {
        fill: none;
      }

      .cls-18 {
        stroke: #fff;
        stroke-linecap: round;
        stroke-linejoin: round;
        stroke-width: 8px;
      }
    </style>
  </defs>
  <g>
    <g>
      <path class="cls-15" d="m37.12,56.61c0,.87-.35,1.66-.93,2.23-.57.58-1.36.93-2.24.93H7.18c-1.75,0-3.16-1.41-3.16-3.16,0-.88.35-1.67.93-2.24.57-.58,1.36-.93,2.24-.93h3.13c-1.74,0-3.16-1.41-3.16-3.16,0-.87.35-1.66.93-2.23.58-.58,1.37-.93,2.24-.93h5.78c-1.74,0-3.16-1.41-3.16-3.16,0-.88.35-1.66.93-2.23.57-.58,1.36-.93,2.23-.93h6.04c.97,0,1.9-.38,2.6-1.06.67-.65,1.64-1.56,2.77-2.51,1.91-1.62,1.33,6.73,1.33,6.73,0,1.75-1.41,3.16-3.16,3.16h4.87c1.74,0,3.16,1.41,3.16,3.16,0,.88-.35,1.67-.93,2.24-.57.58-1.36.93-2.23.93h3.42c1.75,0,3.16,1.41,3.16,3.16Z"/>
      <line class="cls-15" x1="10.31" y1="53.44" x2="23.87" y2="53.44"/>
      <line class="cls-15" x1="16.09" y1="47.12" x2="21.86" y2="47.12"/>
      <line class="cls-15" x1="26.06" y1="47.12" x2="23.87" y2="47.12"/>
    </g>
    <line class="cls-15" x1="30.54" y1="53.44" x2="28.64" y2="53.44"/>
  </g>
  <g>
    <g>
      <g>
        <path class="cls-9" d="m37.12,86.37c0,.87-.35,1.66-.93,2.23-.57.58-1.36.93-2.24.93H7.18c-1.75,0-3.16-1.41-3.16-3.16,0-.88.35-1.67.93-2.24.57-.58,1.36-.93,2.24-.93h3.13c-1.74,0-3.16-1.41-3.16-3.16,0-.87.35-1.66.93-2.23.58-.58,1.37-.93,2.24-.93h5.78c-1.74,0-3.16-1.41-3.16-3.16,0-.88.35-1.66.93-2.23.57-.58,1.36-.93,2.23-.93h6.04c.97,0,1.9-.38,2.6-1.06.67-.65,1.64-1.56,2.77-2.51,1.91-1.62,1.33,6.73,1.33,6.73,0,1.75-1.41,3.16-3.16,3.16h4.87c1.74,0,3.16,1.41,3.16,3.16,0,.88-.35,1.67-.93,2.24-.57.58-1.36.93-2.23.93h3.42c1.75,0,3.16,1.41,3.16,3.16Z"/>
        <path class="cls-17" d="m37.12,86.37c0,.87-.35,1.66-.93,2.23-.57.58-1.36.93-2.24.93H7.18c-1.75,0-3.16-1.41-3.16-3.16,0-.88.35-1.67.93-2.24.57-.58,1.36-.93,2.24-.93h3.13c-1.74,0-3.16-1.41-3.16-3.16,0-.87.35-1.66.93-2.23.58-.58,1.37-.93,2.24-.93h5.78c-1.74,0-3.16-1.41-3.16-3.16,0-.88.35-1.66.93-2.23.57-.58,1.36-.93,2.23-.93h6.04c.97,0,1.9-.38,2.6-1.06.67-.65,1.64-1.56,2.77-2.51,1.91-1.62,1.33,6.73,1.33,6.73,0,1.75-1.41,3.16-3.16,3.16h4.87c1.74,0,3.16,1.41,3.16,3.16,0,.88-.35,1.67-.93,2.24-.57.58-1.36.93-2.23.93h3.42c1.75,0,3.16,1.41,3.16,3.16Z"/>
      </g>
      <line class="cls-17" x1="10.31" y1="83.2" x2="23.87" y2="83.2"/>
      <line class="cls-17" x1="16.09" y1="76.88" x2="21.86" y2="76.88"/>
      <line class="cls-17" x1="30.54" y1="83.2" x2="28.64" y2="83.2"/>
    </g>
    <line class="cls-17" x1="26.06" y1="76.88" x2="23.87" y2="76.88"/>
  </g>
  <g>
    <g>
      <g>
        <path class="cls-10" d="m192.32,86.37c0,.87-.35,1.66-.93,2.23-.57.58-1.36.93-2.24.93h-26.78c-1.75,0-3.16-1.41-3.16-3.16,0-.88.35-1.67.93-2.24.57-.58,1.36-.93,2.24-.93h3.13c-1.74,0-3.16-1.41-3.16-3.16,0-.87.35-1.66.93-2.23.58-.58,1.37-.93,2.24-.93h5.78c-1.74,0-3.16-1.41-3.16-3.16,0-.88.35-1.66.93-2.23.57-.58,1.36-.93,2.23-.93h6.04c.97,0,1.9-.38,2.6-1.06.67-.65,1.64-1.56,2.77-2.51,1.91-1.62,1.33,6.73,1.33,6.73,0,1.75-1.41,3.16-3.16,3.16h4.87c1.74,0,3.16,1.41,3.16,3.16,0,.88-.35,1.67-.93,2.24-.57.58-1.36.93-2.23.93h3.42c1.75,0,3.16,1.41,3.16,3.16Z"/>
        <line class="cls-10" x1="165.51" y1="83.2" x2="179.06" y2="83.2"/>
        <line class="cls-10" x1="171.29" y1="76.88" x2="177.06" y2="76.88"/>
        <line class="cls-10" x1="185.74" y1="83.2" x2="183.84" y2="83.2"/>
      </g>
      <line class="cls-10" x1="181.26" y1="76.88" x2="179.06" y2="76.88"/>
    </g>
    <g>
      <g>
        <g>
          <path class="cls-1" d="m192.32,56.61c0,.87-.35,1.66-.93,2.23-.57.58-1.36.93-2.24.93h-26.78c-1.75,0-3.16-1.41-3.16-3.16,0-.88.35-1.67.93-2.24.57-.58,1.36-.93,2.24-.93h3.13c-1.74,0-3.16-1.41-3.16-3.16,0-.87.35-1.66.93-2.23.58-.58,1.37-.93,2.24-.93h5.78c-1.74,0-3.16-1.41-3.16-3.16,0-.88.35-1.66.93-2.23.57-.58,1.36-.93,2.23-.93h6.04c.97,0,1.9-.38,2.6-1.06.67-.65,1.64-1.56,2.77-2.51,1.91-1.62,1.33,6.73,1.33,6.73,0,1.75-1.41,3.16-3.16,3.16h4.87c1.74,0,3.16,1.41,3.16,3.16,0,.88-.35,1.67-.93,2.24-.57.58-1.36.93-2.23.93h3.42c1.75,0,3.16,1.41,3.16,3.16Z"/>
          <path class="cls-17" d="m192.32,56.61c0,.87-.35,1.66-.93,2.23-.57.58-1.36.93-2.24.93h-26.78c-1.75,0-3.16-1.41-3.16-3.16,0-.88.35-1.67.93-2.24.57-.58,1.36-.93,2.24-.93h3.13c-1.74,0-3.16-1.41-3.16-3.16,0-.87.35-1.66.93-2.23.58-.58,1.37-.93,2.24-.93h5.78c-1.74,0-3.16-1.41-3.16-3.16,0-.88.35-1.66.93-2.23.57-.58,1.36-.93,2.23-.93h6.04c.97,0,1.9-.38,2.6-1.06.67-.65,1.64-1.56,2.77-2.51,1.91-1.62,1.33,6.73,1.33,6.73,0,1.75-1.41,3.16-3.16,3.16h4.87c1.74,0,3.16,1.41,3.16,3.16,0,.88-.35,1.67-.93,2.24-.57.58-1.36.93-2.23.93h3.42c1.75,0,3.16,1.41,3.16,3.16Z"/>
        </g>
        <line class="cls-17" x1="165.51" y1="53.44" x2="179.06" y2="53.44"/>
        <line class="cls-17" x1="171.29" y1="47.12" x2="177.06" y2="47.12"/>
        <line class="cls-17" x1="185.74" y1="53.44" x2="183.84" y2="53.44"/>
      </g>
      <line class="cls-17" x1="181.26" y1="47.12" x2="179.06" y2="47.12"/>
    </g>
  </g>
  <g>
    <g>
      <g>
        <g>
          <path class="cls-5" d="m153.52,56.61c0,.87-.35,1.66-.93,2.23-.57.58-1.36.93-2.24.93h-26.78c-1.75,0-3.16-1.41-3.16-3.16,0-.88.35-1.67.93-2.24.57-.58,1.36-.93,2.24-.93h3.13c-1.74,0-3.16-1.41-3.16-3.16,0-.87.35-1.66.93-2.23.58-.58,1.37-.93,2.24-.93h5.78c-1.74,0-3.16-1.41-3.16-3.16,0-.88.35-1.66.93-2.23.57-.58,1.36-.93,2.23-.93h6.04c.97,0,1.9-.38,2.6-1.06.67-.65,1.64-1.56,2.77-2.51,1.91-1.62,1.33,6.73,1.33,6.73,0,1.75-1.41,3.16-3.16,3.16h4.87c1.74,0,3.16,1.41,3.16,3.16,0,.88-.35,1.67-.93,2.24-.57.58-1.36.93-2.23.93h3.42c1.75,0,3.16,1.41,3.16,3.16Z"/>
          <path class="cls-17" d="m153.52,56.61c0,.87-.35,1.66-.93,2.23-.57.58-1.36.93-2.24.93h-26.78c-1.75,0-3.16-1.41-3.16-3.16,0-.88.35-1.67.93-2.24.57-.58,1.36-.93,2.24-.93h3.13c-1.74,0-3.16-1.41-3.16-3.16,0-.87.35-1.66.93-2.23.58-.58,1.37-.93,2.24-.93h5.78c-1.74,0-3.16-1.41-3.16-3.16,0-.88.35-1.66.93-2.23.57-.58,1.36-.93,2.23-.93h6.04c.97,0,1.9-.38,2.6-1.06.67-.65,1.64-1.56,2.77-2.51,1.91-1.62,1.33,6.73,1.33,6.73,0,1.75-1.41,3.16-3.16,3.16h4.87c1.74,0,3.16,1.41,3.16,3.16,0,.88-.35,1.67-.93,2.24-.57.58-1.36.93-2.23.93h3.42c1.75,0,3.16,1.41,3.16,3.16Z"/>
        </g>
        <line class="cls-17" x1="126.71" y1="53.44" x2="140.26" y2="53.44"/>
        <line class="cls-17" x1="132.49" y1="47.12" x2="138.26" y2="47.12"/>
        <line class="cls-17" x1="146.94" y1="53.44" x2="145.04" y2="53.44"/>
      </g>
      <line class="cls-17" x1="142.46" y1="47.12" x2="140.26" y2="47.12"/>
    </g>
    <g>
      <path class="cls-12" d="m114.72,56.61c0,.87-.35,1.66-.93,2.23-.57.58-1.36.93-2.24.93h-26.78c-1.75,0-3.16-1.41-3.16-3.16,0-.88.35-1.67.93-2.24.57-.58,1.36-.93,2.24-.93h3.13c-1.74,0-3.16-1.41-3.16-3.16,0-.87.35-1.66.93-2.23.58-.58,1.37-.93,2.24-.93h5.78c-1.74,0-3.16-1.41-3.16-3.16,0-.88.35-1.66.93-2.23.57-.58,1.36-.93,2.23-.93h6.04c.97,0,1.9-.38,2.6-1.06.67-.65,1.64-1.56,2.77-2.51,1.91-1.62,1.33,6.73,1.33,6.73,0,1.75-1.41,3.16-3.16,3.16h4.87c1.74,0,3.16,1.41,3.16,3.16,0,.88-.35,1.67-.93,2.24-.57.58-1.36.93-2.23.93h3.42c1.75,0,3.16,1.41,3.16,3.16Z"/>
      <line class="cls-12" x1="87.91" y1="53.44" x2="101.46" y2="53.44"/>
      <line class="cls-12" x1="93.69" y1="47.12" x2="99.46" y2="47.12"/>
      <line class="cls-12" x1="103.66" y1="47.12" x2="101.46" y2="47.12"/>
      <line class="cls-12" x1="108.14" y1="53.44" x2="106.24" y2="53.44"/>
    </g>
  </g>
  <g>
    <g>
      <path class="cls-4" d="m153.52,86.37c0,.87-.35,1.66-.93,2.23-.57.58-1.36.93-2.24.93h-26.78c-1.75,0-3.16-1.41-3.16-3.16,0-.88.35-1.67.93-2.24.57-.58,1.36-.93,2.24-.93h3.13c-1.74,0-3.16-1.41-3.16-3.16,0-.87.35-1.66.93-2.23.58-.58,1.37-.93,2.24-.93h5.78c-1.74,0-3.16-1.41-3.16-3.16,0-.88.35-1.66.93-2.23.57-.58,1.36-.93,2.23-.93h6.04c.97,0,1.9-.38,2.6-1.06.67-.65,1.64-1.56,2.77-2.51,1.91-1.62,1.33,6.73,1.33,6.73,0,1.75-1.41,3.16-3.16,3.16h4.87c1.74,0,3.16,1.41,3.16,3.16,0,.88-.35,1.67-.93,2.24-.57.58-1.36.93-2.23.93h3.42c1.75,0,3.16,1.41,3.16,3.16Z"/>
      <line class="cls-4" x1="126.71" y1="83.2" x2="140.26" y2="83.2"/>
      <line class="cls-4" x1="132.49" y1="76.88" x2="138.26" y2="76.88"/>
      <line class="cls-4" x1="142.46" y1="76.88" x2="140.26" y2="76.88"/>
      <line class="cls-4" x1="146.94" y1="83.2" x2="145.04" y2="83.2"/>
      <path class="cls-13" d="m153.52,86.37c0,.87-.35,1.66-.93,2.23-.57.58-1.36.93-2.24.93h-26.78c-1.75,0-3.16-1.41-3.16-3.16,0-.88.35-1.67.93-2.24.57-.58,1.36-.93,2.24-.93h3.13c-1.74,0-3.16-1.41-3.16-3.16,0-.87.35-1.66.93-2.23.58-.58,1.37-.93,2.24-.93h5.78c-1.74,0-3.16-1.41-3.16-3.16,0-.88.35-1.66.93-2.23.57-.58,1.36-.93,2.23-.93h6.04c.97,0,1.9-.38,2.6-1.06.67-.65,1.64-1.56,2.77-2.51,1.91-1.62,1.33,6.73,1.33,6.73,0,1.75-1.41,3.16-3.16,3.16h4.87c1.74,0,3.16,1.41,3.16,3.16,0,.88-.35,1.67-.93,2.24-.57.58-1.36.93-2.23.93h3.42c1.75,0,3.16,1.41,3.16,3.16Z"/>
      <line class="cls-13" x1="126.71" y1="83.2" x2="140.26" y2="83.2"/>
      <line class="cls-13" x1="132.49" y1="76.88" x2="138.26" y2="76.88"/>
      <line class="cls-13" x1="142.46" y1="76.88" x2="140.26" y2="76.88"/>
      <line class="cls-13" x1="146.94" y1="83.2" x2="145.04" y2="83.2"/>
      <path class="cls-2" d="m153.52,86.37c0,.87-.35,1.66-.93,2.23-.57.58-1.36.93-2.24.93h-26.78c-1.75,0-3.16-1.41-3.16-3.16,0-.88.35-1.67.93-2.24.57-.58,1.36-.93,2.24-.93h3.13c-1.74,0-3.16-1.41-3.16-3.16,0-.87.35-1.66.93-2.23.58-.58,1.37-.93,2.24-.93h5.78c-1.74,0-3.16-1.41-3.16-3.16,0-.88.35-1.66.93-2.23.57-.58,1.36-.93,2.23-.93h6.04c.97,0,1.9-.38,2.6-1.06.67-.65,1.64-1.56,2.77-2.51,1.91-1.62,1.33,6.73,1.33,6.73,0,1.75-1.41,3.16-3.16,3.16h4.87c1.74,0,3.16,1.41,3.16,3.16,0,.88-.35,1.67-.93,2.24-.57.58-1.36.93-2.23.93h3.42c1.75,0,3.16,1.41,3.16,3.16Z"/>
      <line class="cls-2" x1="126.71" y1="83.2" x2="140.26" y2="83.2"/>
      <line class="cls-2" x1="132.49" y1="76.88" x2="138.26" y2="76.88"/>
      <line class="cls-2" x1="142.46" y1="76.88" x2="140.26" y2="76.88"/>
      <line class="cls-2" x1="146.94" y1="83.2" x2="145.04" y2="83.2"/>
      <path class="cls-14" d="m153.52,86.37c0,.87-.35,1.66-.93,2.23-.57.58-1.36.93-2.24.93h-26.78c-1.75,0-3.16-1.41-3.16-3.16,0-.88.35-1.67.93-2.24.57-.58,1.36-.93,2.24-.93h3.13c-1.74,0-3.16-1.41-3.16-3.16,0-.87.35-1.66.93-2.23.58-.58,1.37-.93,2.24-.93h5.78c-1.74,0-3.16-1.41-3.16-3.16,0-.88.35-1.66.93-2.23.57-.58,1.36-.93,2.23-.93h6.04c.97,0,1.9-.38,2.6-1.06.67-.65,1.64-1.56,2.77-2.51,1.91-1.62,1.33,6.73,1.33,6.73,0,1.75-1.41,3.16-3.16,3.16h4.87c1.74,0,3.16,1.41,3.16,3.16,0,.88-.35,1.67-.93,2.24-.57.58-1.36.93-2.23.93h3.42c1.75,0,3.16,1.41,3.16,3.16Z"/>
      <line class="cls-14" x1="126.71" y1="83.2" x2="140.26" y2="83.2"/>
      <line class="cls-14" x1="132.49" y1="76.88" x2="138.26" y2="76.88"/>
      <line class="cls-14" x1="142.46" y1="76.88" x2="140.26" y2="76.88"/>
      <line class="cls-14" x1="146.94" y1="83.2" x2="145.04" y2="83.2"/>
      <path class="cls-7" d="m153.52,86.37c0,.87-.35,1.66-.93,2.23-.57.58-1.36.93-2.24.93h-26.78c-1.75,0-3.16-1.41-3.16-3.16,0-.88.35-1.67.93-2.24.57-.58,1.36-.93,2.24-.93h3.13c-1.74,0-3.16-1.41-3.16-3.16,0-.87.35-1.66.93-2.23.58-.58,1.37-.93,2.24-.93h5.78c-1.74,0-3.16-1.41-3.16-3.16,0-.88.35-1.66.93-2.23.57-.58,1.36-.93,2.23-.93h6.04c.97,0,1.9-.38,2.6-1.06.67-.65,1.64-1.56,2.77-2.51,1.91-1.62,1.33,6.73,1.33,6.73,0,1.75-1.41,3.16-3.16,3.16h4.87c1.74,0,3.16,1.41,3.16,3.16,0,.88-.35,1.67-.93,2.24-.57.58-1.36.93-2.23.93h3.42c1.75,0,3.16,1.41,3.16,3.16Z"/>
      <line class="cls-7" x1="126.71" y1="83.2" x2="140.26" y2="83.2"/>
      <line class="cls-7" x1="132.49" y1="76.88" x2="138.26" y2="76.88"/>
      <line class="cls-7" x1="142.46" y1="76.88" x2="140.26" y2="76.88"/>
      <line class="cls-7" x1="146.94" y1="83.2" x2="145.04" y2="83.2"/>
      <path class="cls-16" d="m153.52,86.37c0,.87-.35,1.66-.93,2.23-.57.58-1.36.93-2.24.93h-26.78c-1.75,0-3.16-1.41-3.16-3.16,0-.88.35-1.67.93-2.24.57-.58,1.36-.93,2.24-.93h3.13c-1.74,0-3.16-1.41-3.16-3.16,0-.87.35-1.66.93-2.23.58-.58,1.37-.93,2.24-.93h5.78c-1.74,0-3.16-1.41-3.16-3.16,0-.88.35-1.66.93-2.23.57-.58,1.36-.93,2.23-.93h6.04c.97,0,1.9-.38,2.6-1.06.67-.65,1.64-1.56,2.77-2.51,1.91-1.62,1.33,6.73,1.33,6.73,0,1.75-1.41,3.16-3.16,3.16h4.87c1.74,0,3.16,1.41,3.16,3.16,0,.88-.35,1.67-.93,2.24-.57.58-1.36.93-2.23.93h3.42c1.75,0,3.16,1.41,3.16,3.16Z"/>
      <line class="cls-16" x1="126.71" y1="83.2" x2="140.26" y2="83.2"/>
      <line class="cls-16" x1="132.49" y1="76.88" x2="138.26" y2="76.88"/>
      <line class="cls-16" x1="142.46" y1="76.88" x2="140.26" y2="76.88"/>
      <line class="cls-16" x1="146.94" y1="83.2" x2="145.04" y2="83.2"/>
      <path class="cls-11" d="m153.52,86.37c0,.87-.35,1.66-.93,2.23-.57.58-1.36.93-2.24.93h-26.78c-1.75,0-3.16-1.41-3.16-3.16,0-.88.35-1.67.93-2.24.57-.58,1.36-.93,2.24-.93h3.13c-1.74,0-3.16-1.41-3.16-3.16,0-.87.35-1.66.93-2.23.58-.58,1.37-.93,2.24-.93h5.78c-1.74,0-3.16-1.41-3.16-3.16,0-.88.35-1.66.93-2.23.57-.58,1.36-.93,2.23-.93h6.04c.97,0,1.9-.38,2.6-1.06.67-.65,1.64-1.56,2.77-2.51,1.91-1.62,1.33,6.73,1.33,6.73,0,1.75-1.41,3.16-3.16,3.16h4.87c1.74,0,3.16,1.41,3.16,3.16,0,.88-.35,1.67-.93,2.24-.57.58-1.36.93-2.23.93h3.42c1.75,0,3.16,1.41,3.16,3.16Z"/>
      <line class="cls-11" x1="126.71" y1="83.2" x2="140.26" y2="83.2"/>
      <line class="cls-11" x1="132.49" y1="76.88" x2="138.26" y2="76.88"/>
      <line class="cls-11" x1="142.46" y1="76.88" x2="140.26" y2="76.88"/>
      <line class="cls-11" x1="146.94" y1="83.2" x2="145.04" y2="83.2"/>
    </g>
    <g>
      <g>
        <g>
          <path class="cls-8" d="m114.72,86.37c0,.87-.35,1.66-.93,2.23-.57.58-1.36.93-2.24.93h-26.78c-1.75,0-3.16-1.41-3.16-3.16,0-.88.35-1.67.93-2.24.57-.58,1.36-.93,2.24-.93h3.13c-1.74,0-3.16-1.41-3.16-3.16,0-.87.35-1.66.93-2.23.58-.58,1.37-.93,2.24-.93h5.78c-1.74,0-3.16-1.41-3.16-3.16,0-.88.35-1.66.93-2.23.57-.58,1.36-.93,2.23-.93h6.04c.97,0,1.9-.38,2.6-1.06.67-.65,1.64-1.56,2.77-2.51,1.91-1.62,1.33,6.73,1.33,6.73,0,1.75-1.41,3.16-3.16,3.16h4.87c1.74,0,3.16,1.41,3.16,3.16,0,.88-.35,1.67-.93,2.24-.57.58-1.36.93-2.23.93h3.42c1.75,0,3.16,1.41,3.16,3.16Z"/>
          <path class="cls-17" d="m114.72,86.37c0,.87-.35,1.66-.93,2.23-.57.58-1.36.93-2.24.93h-26.78c-1.75,0-3.16-1.41-3.16-3.16,0-.88.35-1.67.93-2.24.57-.58,1.36-.93,2.24-.93h3.13c-1.74,0-3.16-1.41-3.16-3.16,0-.87.35-1.66.93-2.23.58-.58,1.37-.93,2.24-.93h5.78c-1.74,0-3.16-1.41-3.16-3.16,0-.88.35-1.66.93-2.23.57-.58,1.36-.93,2.23-.93h6.04c.97,0,1.9-.38,2.6-1.06.67-.65,1.64-1.56,2.77-2.51,1.91-1.62,1.33,6.73,1.33,6.73,0,1.75-1.41,3.16-3.16,3.16h4.87c1.74,0,3.16,1.41,3.16,3.16,0,.88-.35,1.67-.93,2.24-.57.58-1.36.93-2.23.93h3.42c1.75,0,3.16,1.41,3.16,3.16Z"/>
        </g>
        <line class="cls-17" x1="87.91" y1="83.2" x2="101.46" y2="83.2"/>
        <line class="cls-17" x1="93.69" y1="76.88" x2="99.46" y2="76.88"/>
        <line class="cls-17" x1="108.14" y1="83.2" x2="106.24" y2="83.2"/>
      </g>
      <line class="cls-17" x1="103.66" y1="76.88" x2="101.46" y2="76.88"/>
    </g>
  </g>
  <g>
    <g>
      <g>
        <g>
          <path class="cls-6" d="m75.92,86.37c0,.87-.35,1.66-.93,2.23-.57.58-1.36.93-2.24.93h-26.78c-1.75,0-3.16-1.41-3.16-3.16,0-.88.35-1.67.93-2.24.57-.58,1.36-.93,2.24-.93h3.13c-1.74,0-3.16-1.41-3.16-3.16,0-.87.35-1.66.93-2.23.58-.58,1.37-.93,2.24-.93h5.78c-1.74,0-3.16-1.41-3.16-3.16,0-.88.35-1.66.93-2.23.57-.58,1.36-.93,2.23-.93h6.04c.97,0,1.9-.38,2.6-1.06.67-.65,1.64-1.56,2.77-2.51,1.91-1.62,1.33,6.73,1.33,6.73,0,1.75-1.41,3.16-3.16,3.16h4.87c1.74,0,3.16,1.41,3.16,3.16,0,.88-.35,1.67-.93,2.24-.57.58-1.36.93-2.23.93h3.42c1.75,0,3.16,1.41,3.16,3.16Z"/>
          <path class="cls-17" d="m75.92,86.37c0,.87-.35,1.66-.93,2.23-.57.58-1.36.93-2.24.93h-26.78c-1.75,0-3.16-1.41-3.16-3.16,0-.88.35-1.67.93-2.24.57-.58,1.36-.93,2.24-.93h3.13c-1.74,0-3.16-1.41-3.16-3.16,0-.87.35-1.66.93-2.23.58-.58,1.37-.93,2.24-.93h5.78c-1.74,0-3.16-1.41-3.16-3.16,0-.88.35-1.66.93-2.23.57-.58,1.36-.93,2.23-.93h6.04c.97,0,1.9-.38,2.6-1.06.67-.65,1.64-1.56,2.77-2.51,1.91-1.62,1.33,6.73,1.33,6.73,0,1.75-1.41,3.16-3.16,3.16h4.87c1.74,0,3.16,1.41,3.16,3.16,0,.88-.35,1.67-.93,2.24-.57.58-1.36.93-2.23.93h3.42c1.75,0,3.16,1.41,3.16,3.16Z"/>
        </g>
        <line class="cls-17" x1="49.11" y1="83.2" x2="62.67" y2="83.2"/>
        <line class="cls-17" x1="54.89" y1="76.88" x2="60.66" y2="76.88"/>
        <line class="cls-17" x1="69.34" y1="83.2" x2="67.44" y2="83.2"/>
      </g>
      <line class="cls-17" x1="64.86" y1="76.88" x2="62.67" y2="76.88"/>
    </g>
    <g>
      <path class="cls-4" d="m75.92,56.61c0,.87-.35,1.66-.93,2.23-.57.58-1.36.93-2.24.93h-26.78c-1.75,0-3.16-1.41-3.16-3.16,0-.88.35-1.67.93-2.24.57-.58,1.36-.93,2.24-.93h3.13c-1.74,0-3.16-1.41-3.16-3.16,0-.87.35-1.66.93-2.23.58-.58,1.37-.93,2.24-.93h5.78c-1.74,0-3.16-1.41-3.16-3.16,0-.88.35-1.66.93-2.23.57-.58,1.36-.93,2.23-.93h6.04c.97,0,1.9-.38,2.6-1.06.67-.65,1.64-1.56,2.77-2.51,1.91-1.62,1.33,6.73,1.33,6.73,0,1.75-1.41,3.16-3.16,3.16h4.87c1.74,0,3.16,1.41,3.16,3.16,0,.88-.35,1.67-.93,2.24-.57.58-1.36.93-2.23.93h3.42c1.75,0,3.16,1.41,3.16,3.16Z"/>
      <line class="cls-4" x1="49.11" y1="53.44" x2="62.67" y2="53.44"/>
      <line class="cls-4" x1="54.89" y1="47.12" x2="60.66" y2="47.12"/>
      <line class="cls-4" x1="64.86" y1="47.12" x2="62.67" y2="47.12"/>
      <line class="cls-4" x1="69.34" y1="53.44" x2="67.44" y2="53.44"/>
      <g>
        <path class="cls-3" d="m75.92,56.61c0,.87-.35,1.66-.93,2.23-.57.58-1.36.93-2.24.93h-26.78c-1.75,0-3.16-1.41-3.16-3.16,0-.88.35-1.67.93-2.24.57-.58,1.36-.93,2.24-.93h3.13c-1.74,0-3.16-1.41-3.16-3.16,0-.87.35-1.66.93-2.23.58-.58,1.37-.93,2.24-.93h5.78c-1.74,0-3.16-1.41-3.16-3.16,0-.88.35-1.66.93-2.23.57-.58,1.36-.93,2.23-.93h6.04c.97,0,1.9-.38,2.6-1.06.67-.65,1.64-1.56,2.77-2.51,1.91-1.62,1.33,6.73,1.33,6.73,0,1.75-1.41,3.16-3.16,3.16h4.87c1.74,0,3.16,1.41,3.16,3.16,0,.88-.35,1.67-.93,2.24-.57.58-1.36.93-2.23.93h3.42c1.75,0,3.16,1.41,3.16,3.16Z"/>
        <path class="cls-17" d="m75.92,56.61c0,.87-.35,1.66-.93,2.23-.57.58-1.36.93-2.24.93h-26.78c-1.75,0-3.16-1.41-3.16-3.16,0-.88.35-1.67.93-2.24.57-.58,1.36-.93,2.24-.93h3.13c-1.74,0-3.16-1.41-3.16-3.16,0-.87.35-1.66.93-2.23.58-.58,1.37-.93,2.24-.93h5.78c-1.74,0-3.16-1.41-3.16-3.16,0-.88.35-1.66.93-2.23.57-.58,1.36-.93,2.23-.93h6.04c.97,0,1.9-.38,2.6-1.06.67-.65,1.64-1.56,2.77-2.51,1.91-1.62,1.33,6.73,1.33,6.73,0,1.75-1.41,3.16-3.16,3.16h4.87c1.74,0,3.16,1.41,3.16,3.16,0,.88-.35,1.67-.93,2.24-.57.58-1.36.93-2.23.93h3.42c1.75,0,3.16,1.41,3.16,3.16Z"/>
      </g>
      <line class="cls-17" x1="49.11" y1="53.44" x2="62.67" y2="53.44"/>
      <line class="cls-17" x1="54.89" y1="47.12" x2="60.66" y2="47.12"/>
      <line class="cls-17" x1="64.86" y1="47.12" x2="62.67" y2="47.12"/>
      <line class="cls-17" x1="69.34" y1="53.44" x2="67.44" y2="53.44"/>
      <g>
        <path class="cls-3" d="m75.92,56.61c0,.87-.35,1.66-.93,2.23-.57.58-1.36.93-2.24.93h-26.78c-1.75,0-3.16-1.41-3.16-3.16,0-.88.35-1.67.93-2.24.57-.58,1.36-.93,2.24-.93h3.13c-1.74,0-3.16-1.41-3.16-3.16,0-.87.35-1.66.93-2.23.58-.58,1.37-.93,2.24-.93h5.78c-1.74,0-3.16-1.41-3.16-3.16,0-.88.35-1.66.93-2.23.57-.58,1.36-.93,2.23-.93h6.04c.97,0,1.9-.38,2.6-1.06.67-.65,1.64-1.56,2.77-2.51,1.91-1.62,1.33,6.73,1.33,6.73,0,1.75-1.41,3.16-3.16,3.16h4.87c1.74,0,3.16,1.41,3.16,3.16,0,.88-.35,1.67-.93,2.24-.57.58-1.36.93-2.23.93h3.42c1.75,0,3.16,1.41,3.16,3.16Z"/>
        <path class="cls-17" d="m75.92,56.61c0,.87-.35,1.66-.93,2.23-.57.58-1.36.93-2.24.93h-26.78c-1.75,0-3.16-1.41-3.16-3.16,0-.88.35-1.67.93-2.24.57-.58,1.36-.93,2.24-.93h3.13c-1.74,0-3.16-1.41-3.16-3.16,0-.87.35-1.66.93-2.23.58-.58,1.37-.93,2.24-.93h5.78c-1.74,0-3.16-1.41-3.16-3.16,0-.88.35-1.66.93-2.23.57-.58,1.36-.93,2.23-.93h6.04c.97,0,1.9-.38,2.6-1.06.67-.65,1.64-1.56,2.77-2.51,1.91-1.62,1.33,6.73,1.33,6.73,0,1.75-1.41,3.16-3.16,3.16h4.87c1.74,0,3.16,1.41,3.16,3.16,0,.88-.35,1.67-.93,2.24-.57.58-1.36.93-2.23.93h3.42c1.75,0,3.16,1.41,3.16,3.16Z"/>
      </g>
      <line class="cls-17" x1="49.11" y1="53.44" x2="62.67" y2="53.44"/>
      <line class="cls-17" x1="54.89" y1="47.12" x2="60.66" y2="47.12"/>
      <line class="cls-17" x1="64.86" y1="47.12" x2="62.67" y2="47.12"/>
      <line class="cls-17" x1="69.34" y1="53.44" x2="67.44" y2="53.44"/>
      <g>
        <path class="cls-3" d="m75.92,56.61c0,.87-.35,1.66-.93,2.23-.57.58-1.36.93-2.24.93h-26.78c-1.75,0-3.16-1.41-3.16-3.16,0-.88.35-1.67.93-2.24.57-.58,1.36-.93,2.24-.93h3.13c-1.74,0-3.16-1.41-3.16-3.16,0-.87.35-1.66.93-2.23.58-.58,1.37-.93,2.24-.93h5.78c-1.74,0-3.16-1.41-3.16-3.16,0-.88.35-1.66.93-2.23.57-.58,1.36-.93,2.23-.93h6.04c.97,0,1.9-.38,2.6-1.06.67-.65,1.64-1.56,2.77-2.51,1.91-1.62,1.33,6.73,1.33,6.73,0,1.75-1.41,3.16-3.16,3.16h4.87c1.74,0,3.16,1.41,3.16,3.16,0,.88-.35,1.67-.93,2.24-.57.58-1.36.93-2.23.93h3.42c1.75,0,3.16,1.41,3.16,3.16Z"/>
        <path class="cls-17" d="m75.92,56.61c0,.87-.35,1.66-.93,2.23-.57.58-1.36.93-2.24.93h-26.78c-1.75,0-3.16-1.41-3.16-3.16,0-.88.35-1.67.93-2.24.57-.58,1.36-.93,2.24-.93h3.13c-1.74,0-3.16-1.41-3.16-3.16,0-.87.35-1.66.93-2.23.58-.58,1.37-.93,2.24-.93h5.78c-1.74,0-3.16-1.41-3.16-3.16,0-.88.35-1.66.93-2.23.57-.58,1.36-.93,2.23-.93h6.04c.97,0,1.9-.38,2.6-1.06.67-.65,1.64-1.56,2.77-2.51,1.91-1.62,1.33,6.73,1.33,6.73,0,1.75-1.41,3.16-3.16,3.16h4.87c1.74,0,3.16,1.41,3.16,3.16,0,.88-.35,1.67-.93,2.24-.57.58-1.36.93-2.23.93h3.42c1.75,0,3.16,1.41,3.16,3.16Z"/>
      </g>
      <line class="cls-17" x1="49.11" y1="53.44" x2="62.67" y2="53.44"/>
      <line class="cls-17" x1="54.89" y1="47.12" x2="60.66" y2="47.12"/>
      <line class="cls-17" x1="64.86" y1="47.12" x2="62.67" y2="47.12"/>
      <line class="cls-17" x1="69.34" y1="53.44" x2="67.44" y2="53.44"/>
      <g>
        <path class="cls-3" d="m75.92,56.61c0,.87-.35,1.66-.93,2.23-.57.58-1.36.93-2.24.93h-26.78c-1.75,0-3.16-1.41-3.16-3.16,0-.88.35-1.67.93-2.24.57-.58,1.36-.93,2.24-.93h3.13c-1.74,0-3.16-1.41-3.16-3.16,0-.87.35-1.66.93-2.23.58-.58,1.37-.93,2.24-.93h5.78c-1.74,0-3.16-1.41-3.16-3.16,0-.88.35-1.66.93-2.23.57-.58,1.36-.93,2.23-.93h6.04c.97,0,1.9-.38,2.6-1.06.67-.65,1.64-1.56,2.77-2.51,1.91-1.62,1.33,6.73,1.33,6.73,0,1.75-1.41,3.16-3.16,3.16h4.87c1.74,0,3.16,1.41,3.16,3.16,0,.88-.35,1.67-.93,2.24-.57.58-1.36.93-2.23.93h3.42c1.75,0,3.16,1.41,3.16,3.16Z"/>
        <path class="cls-17" d="m75.92,56.61c0,.87-.35,1.66-.93,2.23-.57.58-1.36.93-2.24.93h-26.78c-1.75,0-3.16-1.41-3.16-3.16,0-.88.35-1.67.93-2.24.57-.58,1.36-.93,2.24-.93h3.13c-1.74,0-3.16-1.41-3.16-3.16,0-.87.35-1.66.93-2.23.58-.58,1.37-.93,2.24-.93h5.78c-1.74,0-3.16-1.41-3.16-3.16,0-.88.35-1.66.93-2.23.57-.58,1.36-.93,2.23-.93h6.04c.97,0,1.9-.38,2.6-1.06.67-.65,1.64-1.56,2.77-2.51,1.91-1.62,1.33,6.73,1.33,6.73,0,1.75-1.41,3.16-3.16,3.16h4.87c1.74,0,3.16,1.41,3.16,3.16,0,.88-.35,1.67-.93,2.24-.57.58-1.36.93-2.23.93h3.42c1.75,0,3.16,1.41,3.16,3.16Z"/>
      </g>
      <line class="cls-17" x1="49.11" y1="53.44" x2="62.67" y2="53.44"/>
      <line class="cls-17" x1="54.89" y1="47.12" x2="60.66" y2="47.12"/>
      <line class="cls-17" x1="64.86" y1="47.12" x2="62.67" y2="47.12"/>
      <line class="cls-17" x1="69.34" y1="53.44" x2="67.44" y2="53.44"/>
      <g>
        <path class="cls-3" d="m75.92,56.61c0,.87-.35,1.66-.93,2.23-.57.58-1.36.93-2.24.93h-26.78c-1.75,0-3.16-1.41-3.16-3.16,0-.88.35-1.67.93-2.24.57-.58,1.36-.93,2.24-.93h3.13c-1.74,0-3.16-1.41-3.16-3.16,0-.87.35-1.66.93-2.23.58-.58,1.37-.93,2.24-.93h5.78c-1.74,0-3.16-1.41-3.16-3.16,0-.88.35-1.66.93-2.23.57-.58,1.36-.93,2.23-.93h6.04c.97,0,1.9-.38,2.6-1.06.67-.65,1.64-1.56,2.77-2.51,1.91-1.62,1.33,6.73,1.33,6.73,0,1.75-1.41,3.16-3.16,3.16h4.87c1.74,0,3.16,1.41,3.16,3.16,0,.88-.35,1.67-.93,2.24-.57.58-1.36.93-2.23.93h3.42c1.75,0,3.16,1.41,3.16,3.16Z"/>
        <path class="cls-17" d="m75.92,56.61c0,.87-.35,1.66-.93,2.23-.57.58-1.36.93-2.24.93h-26.78c-1.75,0-3.16-1.41-3.16-3.16,0-.88.35-1.67.93-2.24.57-.58,1.36-.93,2.24-.93h3.13c-1.74,0-3.16-1.41-3.16-3.16,0-.87.35-1.66.93-2.23.58-.58,1.37-.93,2.24-.93h5.78c-1.74,0-3.16-1.41-3.16-3.16,0-.88.35-1.66.93-2.23.57-.58,1.36-.93,2.23-.93h6.04c.97,0,1.9-.38,2.6-1.06.67-.65,1.64-1.56,2.77-2.51,1.91-1.62,1.33,6.73,1.33,6.73,0,1.75-1.41,3.16-3.16,3.16h4.87c1.74,0,3.16,1.41,3.16,3.16,0,.88-.35,1.67-.93,2.24-.57.58-1.36.93-2.23.93h3.42c1.75,0,3.16,1.41,3.16,3.16Z"/>
      </g>
      <line class="cls-17" x1="49.11" y1="53.44" x2="62.67" y2="53.44"/>
      <line class="cls-17" x1="54.89" y1="47.12" x2="60.66" y2="47.12"/>
      <line class="cls-17" x1="64.86" y1="47.12" x2="62.67" y2="47.12"/>
      <line class="cls-17" x1="69.34" y1="53.44" x2="67.44" y2="53.44"/>
      <g>
        <path class="cls-3" d="m75.92,56.61c0,.87-.35,1.66-.93,2.23-.57.58-1.36.93-2.24.93h-26.78c-1.75,0-3.16-1.41-3.16-3.16,0-.88.35-1.67.93-2.24.57-.58,1.36-.93,2.24-.93h3.13c-1.74,0-3.16-1.41-3.16-3.16,0-.87.35-1.66.93-2.23.58-.58,1.37-.93,2.24-.93h5.78c-1.74,0-3.16-1.41-3.16-3.16,0-.88.35-1.66.93-2.23.57-.58,1.36-.93,2.23-.93h6.04c.97,0,1.9-.38,2.6-1.06.67-.65,1.64-1.56,2.77-2.51,1.91-1.62,1.33,6.73,1.33,6.73,0,1.75-1.41,3.16-3.16,3.16h4.87c1.74,0,3.16,1.41,3.16,3.16,0,.88-.35,1.67-.93,2.24-.57.58-1.36.93-2.23.93h3.42c1.75,0,3.16,1.41,3.16,3.16Z"/>
        <path class="cls-17" d="m75.92,56.61c0,.87-.35,1.66-.93,2.23-.57.58-1.36.93-2.24.93h-26.78c-1.75,0-3.16-1.41-3.16-3.16,0-.88.35-1.67.93-2.24.57-.58,1.36-.93,2.24-.93h3.13c-1.74,0-3.16-1.41-3.16-3.16,0-.87.35-1.66.93-2.23.58-.58,1.37-.93,2.24-.93h5.78c-1.74,0-3.16-1.41-3.16-3.16,0-.88.35-1.66.93-2.23.57-.58,1.36-.93,2.23-.93h6.04c.97,0,1.9-.38,2.6-1.06.67-.65,1.64-1.56,2.77-2.51,1.91-1.62,1.33,6.73,1.33,6.73,0,1.75-1.41,3.16-3.16,3.16h4.87c1.74,0,3.16,1.41,3.16,3.16,0,.88-.35,1.67-.93,2.24-.57.58-1.36.93-2.23.93h3.42c1.75,0,3.16,1.41,3.16,3.16Z"/>
      </g>
      <line class="cls-17" x1="49.11" y1="53.44" x2="62.67" y2="53.44"/>
      <line class="cls-17" x1="54.89" y1="47.12" x2="60.66" y2="47.12"/>
      <line class="cls-17" x1="64.86" y1="47.12" x2="62.67" y2="47.12"/>
      <line class="cls-17" x1="69.34" y1="53.44" x2="67.44" y2="53.44"/>
    </g>
  </g>
  <rect class="cls-18" x="-1875.51" y="-5543.63" width="6467.34" height="6437.3"/>
</svg>