<?xml version="1.0" encoding="UTF-8"?>
<svg id="Calque_1" data-name="Calque 1" xmlns="http://www.w3.org/2000/svg" viewBox="0 0 128 128">
  <defs>
    <style>
      .cls-1 {
        fill: #87ccf3;
      }

      .cls-1, .cls-2, .cls-3, .cls-4, .cls-5, .cls-6, .cls-7, .cls-8 {
        stroke-linecap: round;
        stroke-linejoin: round;
      }

      .cls-1, .cls-2, .cls-3, .cls-5 {
        stroke: #231f20;
      }

      .cls-2 {
        fill: #baa584;
      }

      .cls-3 {
        fill: #bbfedb;
      }

      .cls-4, .cls-5 {
        fill: #fff;
      }

      .cls-4, .cls-6, .cls-9, .cls-10, .cls-8 {
        stroke: #000;
      }

      .cls-6, .cls-7 {
        fill: none;
      }

      .cls-9 {
        fill: #d6d6d6;
      }

      .cls-9, .cls-10 {
        stroke-miterlimit: 10;
        stroke-width: .25px;
      }

      .cls-7 {
        stroke: #fff;
        stroke-width: 8px;
      }
    </style>
  </defs>
  <g>
    <g>
      <path class="cls-10" d="m108.32,115.53v1.5c0,2.94-18.2,6.2-44.32,6.2s-44.32-3.26-44.32-6.2v-1.5c-.58.47-.89.96-.89,1.5,0,4.61,23.29,7.09,45.21,7.09s45.21-2.48,45.21-7.09c0-.53-.31-1.03-.89-1.5Z"/>
      <path class="cls-9" d="m108.32,117.02c0,2.94-18.2,6.2-44.32,6.2s-44.32-3.26-44.32-6.2,18.2-6.19,44.32-6.19,44.32,3.26,44.32,6.19Z"/>
      <path class="cls-10" d="m108.32,115.53v1.5c0-2.93-18.2-6.19-44.32-6.19s-44.32,3.26-44.32,6.19v-1.5c4.46-3.64,24.93-5.58,44.32-5.58s39.85,1.94,44.32,5.58Z"/>
    </g>
    <g>
      <path class="cls-2" d="m100.38,119.14l-14.81-1.16s-.35-2.26.42-3.97c.74-1.64-.28-2.83-1.29-4.79.94.97,4.18.83,6.32.54.26.43,2.9,4.34,3.78,4.97.97.7,5.28,1.61,5.58,4.41Z"/>
      <path class="cls-2" d="m82.99,117.98h-14.81s-.35-2.26.42-3.97c.74-1.64,2.03-3.41,1.02-5.36.94.97,3.91.86,6.05.57.26.43-.99,3.2,1.74,5.51.91.77,5.28.45,5.58,3.25Z"/>
      <path class="cls-1" d="m80.53,65.36s-4.92-1.97-11.64,4.86c-12.91,10.46-29.49,37.06-31.05,38.93-3.12,3.74-.71,8.94,12.06,8.82,7.46-.07,12.03-3.5,14.08-6.58.54-.82,2.55-4.56,5-9.57-.07,5.03-.1,8.68-.1,8.68-.38,3.57,7.63,2.59,7.63,2.59,13.59-45.47,4.03-47.74,4.03-47.74Z"/>
      <path class="cls-5" d="m61.71,88.97c-.43,4.99-.86,9.85-1.14,12.69-.73,7.63-4.45,17.81-20.59,15.87-.39-.05-.77-.11-1.13-.17h0c-6.62-1.47-7.56-5.29-5.12-8.21.72-.87,4.69-7.56,9.96-15.63,2.35-3.61,4.96-7.49,7.66-11.26,1.27,1,2.56,1.95,3.81,2.82,2.46,1.72,4.79,3.11,6.55,3.89Z"/>
      <path class="cls-5" d="m63.18,71.83s-.08.96-.21,2.56c-1.18-1.03-2.29-1.96-3.35-2.79.41-.47.81-.93,1.22-1.37,1.44.93,2.34,1.6,2.34,1.6Z"/>
      <path class="cls-5" d="m48.01,101.46c-2.23-1.69-3.57-4.59-4.32-7.93,2.35-3.61,4.96-7.49,7.66-11.26,1.27,1,2.56,1.95,3.81,2.82,1.08,9.52-2.36,20.03-7.15,16.37Z"/>
      <path class="cls-5" d="m85.44,90.45c-.65,1.24-1.39.53-1.39.53l-.42-4.81c.16,0,.29,0,.4,0,.43,1.34.91,2.76,1.41,4.29Z"/>
      <path class="cls-1" d="m92.17,111.02s-6.11,4.43-7.47,1.11c0,0-9.17-13.75-13.54-24.18-5.21,11.1-12,21.89-12.94,23.3-2.04,3.08-4.99,6.65-12.45,6.73-2.78.03-5.07-.2-6.92-.61h0c-6.62-1.47-7.56-5.29-5.12-8.21.72-.87,4.69-7.56,9.96-15.63,2.35-3.61,4.96-7.49,7.66-11.26,1.27,1,2.56,1.95,3.81,2.82,2.46,1.72,4.79,3.11,6.55,3.89,1.05.46,1.89.71,2.45.68,1.89-.11,3.61-1.87,4.91-3.84,4.52.36,12.26.36,14.56.35.16,0,.29,0,.4,0,.43,1.34.91,2.76,1.41,4.29,1.82,5.54,4.04,12.31,6.73,20.58Z"/>
      <path class="cls-5" d="m83.37,83.18s.02.01.03.01c.33.16,3.25,1.65,2.64,5.24-.16.95-.38,1.6-.59,2.01-.5-1.52-.98-2.95-1.41-4.29-.11,0-.24,0-.4,0-2.29.01-10.04,0-14.56-.35.28-.43.55-.86.79-1.29-.61-1.86-.96-3.5-.97-4.81,3.28.78,11.6,2.24,14.07,3.28l.4.19Z"/>
      <path class="cls-5" d="m68.9,79.71c0,1.31.36,2.96.97,4.81-.24.43-.51.86-.79,1.29-1.03-.08-1.89-.19-2.48-.31-2.34-.49-3.76-1.83-15.79-7.31-12.04-5.48-8.16-11.46-8.16-11.46,6.29-6.47,23.47,11.99,25.08,12.64.21.09.62.2,1.17.33Z"/>
      <g>
        <path class="cls-6" d="m68.04,59.35s3-2.24,3.63-4.75c.76-3.03-1.75-4.21-1.75-4.21-.38-2.84-5.8-6.77-12.65-6.19-3.52.3-5.07,2.44-5.59,4.7"/>
        <path class="cls-6" d="m51.64,49.11s-2.29,2.44-1.81,5.22c.42,2.42,1.02,5.06.31,7.34"/>
        <path class="cls-4" d="m56.79,65.66c.38.53,2.49,2.16,4.69,3.03,2.33.92,2.79-.82,4.15-3.07,1.34-2.24,2.53-1.91,2.84-2.49.31-.6-1.24-2.63.02-5.2.14-.28.25-.54.34-.82.78-2.22.2-4.06-.2-5.05,0,0-4.36,3.18-5.19,3.63-.82.45-3.44,1.7-4.51.65-.98-.96-1.6-2.28-2.88-2.08-1.28.2-2.31,2.29-1.45,3.51,0,0-2.11,1.59-3.21,2.84l-3.66,4"/>
        <ellipse class="cls-8" cx="64.54" cy="58.76" rx=".84" ry=".39" transform="translate(-18.01 87.12) rotate(-61.28)"/>
        <path class="cls-6" d="m65.2,66.37s-.22-1.01-4.37-2.22"/>
        <line class="cls-6" x1="56.3" y1="56.27" x2="56.77" y2="56.75"/>
        <line class="cls-6" x1="64.17" y1="56.42" x2="66.29" y2="56.08"/>
      </g>
      <line class="cls-6" x1="58.09" y1="66.79" x2="57.8" y2="68.85"/>
      <path class="cls-1" d="m62.97,74.39c-1.18-1.03-2.29-1.96-3.35-2.79.41-.47.81-.93,1.22-1.37,4.42-4.92,8.53-8.21,11.48-8.05,2.46.14,3.89,1.31,4.55,3.18,0,0,.34.31,6.1,17.63-2.47-1.04-10.8-2.51-14.07-3.28,0-.26,0-.5.04-.73-.38-.09-.73-.17-.98-.21-.98-.16-2.93-2.54-2.93-2.54-.71-.65-1.39-1.26-2.05-1.84Z"/>
      <path class="cls-3" d="m71.64,80.3c.06.68-3.25,9.11-7.48,9.35-.56.04-1.4-.21-2.45-.68-1.77-.78-4.1-2.17-6.55-3.89-1.25-.87-2.54-1.82-3.81-2.82-2.7,3.77-5.31,7.65-7.66,11.26-5.27,8.08-9.24,14.76-9.96,15.63-2.44,2.92-1.5,6.74,5.12,8.21-14.51-2.67-5.03-20.75-3.31-23.33,1.76-2.64.24-22.94,7.83-28.95.72-.57,1.62-.85,2.66-.9h0s.04,0,.04,0c0,0,.02,0,.04,0,4.49-.21,11.22,3.74,14.75,6.05-.41.44-.81.9-1.22,1.37,1.05.83,2.17,1.76,3.35,2.79.66.58,1.35,1.2,2.05,1.84,0,0,1.96,2.38,2.93,2.54.98.16,3.62.85,3.68,1.52Z"/>
    </g>
    <path class="cls-10" d="m109.21,49.09v67.93h-.89V49.09c0-24.43-19.88-44.32-44.32-44.32S19.68,24.66,19.68,49.09v67.93h-.89V49.09C18.79,24.17,39.07,3.89,64,3.89s45.21,20.28,45.21,45.21Z"/>
    <path class="cls-10" d="m75.88,123.35h-.89V49.1c0-24.02-5.03-44.32-10.99-44.32s-10.99,20.29-10.99,44.32v74.25h-.89V49.1c0-25.35,5.22-45.21,11.88-45.21s11.88,19.86,11.88,45.21v74.25Z"/>
    <path class="cls-10" d="m93.85,122.03h-.89V49.1c0-24.44-12.99-44.32-28.96-44.32s-28.96,19.88-28.96,44.32v72.94h-.89V49.1c0-24.93,13.39-45.21,29.85-45.21s29.85,20.28,29.85,45.21v72.94Z"/>
  </g>
  <rect class="cls-7" x="-5102.69" y="-4682.29" width="6467.34" height="6437.3"/>
</svg>