<?xml version="1.0" encoding="UTF-8"?>
<svg id="Calque_1" data-name="Calque 1" xmlns="http://www.w3.org/2000/svg" viewBox="0 0 200.13 128.13">
  <defs>
    <style>
      .cls-1, .cls-2, .cls-3, .cls-4 {
        stroke: #000;
      }

      .cls-1, .cls-2, .cls-3, .cls-5 {
        stroke-linecap: round;
        stroke-linejoin: round;
      }

      .cls-1, .cls-6 {
        fill: #bfe6fc;
      }

      .cls-2 {
        fill: #fff;
      }

      .cls-7 {
        fill: #fab0b4;
      }

      .cls-8 {
        fill: #ff6d75;
      }

      .cls-3, .cls-4 {
        stroke-width: 2px;
      }

      .cls-3, .cls-4, .cls-5 {
        fill: none;
      }

      .cls-6 {
        stroke: #ffbeed;
      }

      .cls-6, .cls-4 {
        stroke-miterlimit: 10;
      }

      .cls-5 {
        stroke: #fff;
        stroke-width: 8px;
      }
    </style>
  </defs>
  <path class="cls-1" d="m139.96,28.23h-17.68l.92-12.31v-.36c0-.93.71-1.69,1.58-1.69s1.58.76,1.58,1.69v.61c0,.93.71,1.68,1.58,1.68s1.58-.75,1.58-1.68v-.25h.03v-.36c0-.93.71-1.69,1.58-1.69s1.58.76,1.58,1.69v.61c0,.93.71,1.68,1.58,1.68s1.58-.75,1.58-1.68v-.61c0-.93.71-1.69,1.58-1.69s1.58.76,1.58,1.69v.36h.02l.92,12.31Z"/>
  <path class="cls-1" d="m158.83,28.23h-17.68l.92-12.31v-.36c0-.93.71-1.69,1.58-1.69s1.58.76,1.58,1.69v.61c0,.93.71,1.68,1.58,1.68s1.58-.75,1.58-1.68v-.25h.03v-.36c0-.93.71-1.69,1.58-1.69s1.58.76,1.58,1.69v.61c0,.93.71,1.68,1.58,1.68s1.58-.75,1.58-1.68v-.61c0-.93.71-1.69,1.58-1.69s1.58.76,1.58,1.69v.36h.02l.92,12.31Z"/>
  <path class="cls-1" d="m177.71,28.23h-17.68l.92-12.31v-.36c0-.93.71-1.69,1.58-1.69s1.58.76,1.58,1.69v.61c0,.93.71,1.68,1.58,1.68s1.58-.75,1.58-1.68v-.25h.03v-.36c0-.93.71-1.69,1.58-1.69s1.58.76,1.58,1.69v.61c0,.93.71,1.68,1.58,1.68s1.58-.75,1.58-1.68v-.61c0-.93.71-1.69,1.58-1.69s1.58.76,1.58,1.69v.36h.02l.92,12.31Z"/>
  <rect class="cls-1" x="121.68" y="59.62" width="18.88" height="59.07"/>
  <rect class="cls-2" x="125.16" y="64.27" width="11.92" height="49.77"/>
  <rect class="cls-1" x="123.23" y="47.6" width="15.78" height="12.02"/>
  <polygon class="cls-1" points="133.87 28.23 128.37 28.23 125.51 36.14 123.23 42.44 123.23 47.6 139.01 47.6 139.01 42.42 136.74 36.17 133.87 28.23"/>
  <rect class="cls-1" x="125.25" y="20.72" width="11.73" height="7.51" rx="2.68" ry="2.68"/>
  <g>
    <line class="cls-6" x1="128.5" y1="76.55" x2="128.5" y2="111.39"/>
    <line class="cls-6" x1="131.51" y1="76.55" x2="131.51" y2="111.39"/>
  </g>
  <rect class="cls-1" x="140.56" y="59.62" width="18.88" height="59.07"/>
  <rect class="cls-2" x="144.04" y="64.27" width="11.92" height="49.77"/>
  <rect class="cls-1" x="142.11" y="47.6" width="15.78" height="12.02"/>
  <polygon class="cls-1" points="152.74 28.23 147.25 28.23 144.39 36.14 142.11 42.44 142.11 47.6 157.88 47.6 157.88 42.42 155.62 36.17 152.74 28.23"/>
  <rect class="cls-1" x="144.13" y="20.72" width="11.73" height="7.51" rx="2.68" ry="2.68"/>
  <g>
    <line class="cls-6" x1="147.37" y1="76.55" x2="147.37" y2="111.39"/>
    <line class="cls-6" x1="150.38" y1="76.55" x2="150.38" y2="111.39"/>
  </g>
  <rect class="cls-1" x="159.43" y="59.62" width="18.88" height="59.07"/>
  <rect class="cls-2" x="162.91" y="64.27" width="11.92" height="49.77"/>
  <rect class="cls-1" x="160.98" y="47.6" width="15.78" height="12.02"/>
  <polygon class="cls-1" points="171.62 28.23 166.13 28.23 163.26 36.14 160.98 42.44 160.98 47.6 176.76 47.6 176.76 42.42 174.49 36.17 171.62 28.23"/>
  <rect class="cls-1" x="163" y="20.72" width="11.73" height="7.51" rx="2.68" ry="2.68"/>
  <g>
    <line class="cls-6" x1="166.25" y1="76.55" x2="166.25" y2="111.39"/>
    <line class="cls-6" x1="169.26" y1="76.55" x2="169.26" y2="111.39"/>
  </g>
  <rect class="cls-1" x="128.08" y="23.48" width="6.07" height="1.85" rx=".92" ry=".92"/>
  <rect class="cls-1" x="146.96" y="23.48" width="6.07" height="1.85" rx=".92" ry=".92"/>
  <rect class="cls-1" x="165.83" y="23.48" width="6.07" height="1.85" rx=".92" ry=".92"/>
  <rect class="cls-1" x="88.36" y="46.72" width="6.75" height="21.14" transform="translate(58.27 160.13) rotate(-103.96)"/>
  <rect class="cls-1" x="76.57" y="58.21" width="5.65" height="4.3" transform="translate(39.97 151.96) rotate(-103.96)"/>
  <path class="cls-1" d="m74.82,58.58l1.8-.45,1.36,5.48-1.79.45-2.38-.25-2.99-.31-.81.2c-.5.13-1.02-.18-1.14-.69v-.04c-.14-.51.17-1.02.68-1.15l.81-.2v-.03s2.5-1.69,2.5-1.69l1.97-1.33Z"/>
  <path class="cls-3" d="m37.59,90.08c.71-3.67-1.5-4.33-1.5-4.33-18.88-1.87-26.16-12.98-25.62-24.75.51-11.77,9.42-31,32.35-27.68,6.33.92,10.56,3.05,13.33,5.65,7.3,6.81,4.78,16.88,4.78,16.88,0,0,.91,2.88,3.72,2.81,2.8-.07,1,4.52,1,4.52,0,0,8.18,13.93-3.15,18.3-4.14,1.58-5.64,3.11-5.45,4.63,0,.06.03.11.03.18.02.07.06.15.08.25.18.52.53,1.03,1.04,1.54"/>
  <path class="cls-3" d="m35.39,69.8s-6.06,2.7-1.96,7.51c4.1,4.81,6.86-.04,6.86-.04"/>
  <circle cx="57.23" cy="60.77" r="1.46" transform="translate(-16.06 100.72) rotate(-75.31)"/>
  <path class="cls-3" d="m52.24,58.87s.04-3.8,3.98-3.94"/>
  <line class="cls-3" x1="36.03" y1="74.64" x2="37.23" y2="73.94"/>
  <circle class="cls-7" cx="50.64" cy="67.78" r="3.07" transform="translate(-27.76 99.57) rotate(-75.31)"/>
  <path class="cls-8" d="m64.2,71.91s.02.01,0,.03c-.08,1.11-.95,2.25-2.62,2.55-1.36.26-2.35-.04-3.07-.46,0,0,.01-.02.03-.05.01-.03.04-.08.08-.15.07-.12.16-.28.32-.49.06-.07.11-.14.17-.21.11-.14.24-.28.4-.43.3-.28.7-.56,1.19-.76.12-.04.24-.1.38-.13.09-.04.18-.06.29-.08.75-.18,1.7-.18,2.83.17Z"/>
  <polygon class="cls-7" points="58.52 74.03 58.52 74.03 58.52 74.03 58.52 74.03"/>
  <path class="cls-7" d="m64.2,71.91c-1.14-.35-2.08-.35-2.83-.17-.11.01-.2.04-.29.08-.14.03-.26.09-.38.13-.48.2-.88.48-1.19.76-.16.14-.29.28-.4.43-.07.07-.13.14-.17.21-.15.2-.25.37-.32.49-.04.07-.07.12-.08.15-.01.03-.03.05-.03.05-.99-.58-1.41-1.41-1.41-1.41-.77-2.79,3.97-3.06,3.97-3.06,2.17-.33,3.24.98,3.12,2.34Z"/>
  <path class="cls-7" d="m64.25,71.92l-.05.02s0-.03,0-.03c.02,0,.03.01.05.01Z"/>
  <path class="cls-4" d="m61.1,69.71s-4.75.27-3.97,3.06c0,0,.43.82,1.41,1.41.72.42,1.71.72,3.07.46,1.67-.3,2.54-1.44,2.62-2.55.01-.02,0-.03,0-.03.12-1.37-.95-2.68-3.12-2.34Z"/>
  <path class="cls-3" d="m56.15,38.96s-4.33,13.19-16.17,15.28c0,0,3.13,7.08-5.51,10.33"/>
  <rect class="cls-5" x="-3237.5" y="-2339.62" width="6467.34" height="6437.3"/>
</svg>