<?xml version="1.0" encoding="UTF-8"?>
<svg id="Calque_1" data-name="Calque 1" xmlns="http://www.w3.org/2000/svg" viewBox="0 0 128 128">
  <defs>
    <style>
      .cls-1 {
        fill: #87ccf3;
      }

      .cls-1, .cls-2, .cls-3, .cls-4, .cls-5, .cls-6, .cls-7, .cls-8 {
        stroke: #000;
      }

      .cls-1, .cls-2, .cls-3, .cls-9, .cls-10 {
        stroke-linecap: round;
        stroke-linejoin: round;
      }

      .cls-2 {
        fill: #fff;
      }

      .cls-3, .cls-9, .cls-10 {
        fill: none;
      }

      .cls-11 {
        fill: #222221;
      }

      .cls-4 {
        fill: #b4eac3;
      }

      .cls-4, .cls-5 {
        stroke-width: 2px;
      }

      .cls-4, .cls-5, .cls-6, .cls-7, .cls-8 {
        stroke-miterlimit: 10;
      }

      .cls-5, .cls-7 {
        fill: #d6d6d6;
      }

      .cls-6 {
        fill: #ff6d75;
      }

      .cls-8 {
        fill: #76ac75;
      }

      .cls-9 {
        stroke: #fff;
        stroke-width: 8px;
      }

      .cls-10 {
        stroke: #222221;
        stroke-width: .82px;
      }
    </style>
  </defs>
  <path class="cls-5" d="m94.99,110.41v2.63c0,2.98-2.41,5.39-5.39,5.39h-50.26c-2.84,0-5.13-2.3-5.13-5.13v-2.89c0-2.83,2.29-5.13,5.13-5.13h50.52c2.83,0,5.13,2.3,5.13,5.13Z"/>
  <path class="cls-5" d="m94.99,113.04v.26c0,2.83-2.3,5.13-5.13,5.13h-.26c2.98,0,5.39-2.41,5.39-5.39Z"/>
  <rect class="cls-4" x="30.54" y="79.32" width="68.12" height="29.19" rx="9.13" ry="9.13"/>
  <path class="cls-4" d="m88.74,79.33c-6.51,1.43-14.9,2.66-24.68,2.61-9.3-.04-17.31-1.23-23.6-2.61-2.62-3.77-10.24-15.78-8.3-31.36.58-4.61,1.77-14.13,9.76-21.49.35-.32.7-.63,1.06-.92-.71-.86-1.14-1.97-1.14-3.17v-3.25c0-2.78,2.26-5.04,5.04-5.04h35.44c2.78,0,5.04,2.26,5.04,5.04v3.25c0,1.21-.43,2.32-1.15,3.18.36.29.72.59,1.07.91,7.94,7.15,9.47,16.25,10.11,20.05,2.81,16.67-6.38,29.75-8.65,32.8Z"/>
  <rect class="cls-8" x="44.15" y="31.28" width="40.89" height="22.53" rx="6.21" ry="6.21"/>
  <ellipse class="cls-8" cx="64.88" cy="93.92" rx="20.16" ry="6.58"/>
  <g>
    <path class="cls-1" d="m75.12,54.65c1.7-.54,6.06-1.99,10.45-3.79l4.53,8.08c-2.61,2.45-5.39,4.82-7.86,6.38l.51,11.55c.68,8.99,2.1,22.77,1.59,29.07l-6.89,3.84c-2.4-4.26-7.21-13-10.49-19.7-5.2,1.12-8.26-.08-8.27-.09-1.32,7.38-3.45,16.46-4.49,20.69l-7.7-2.1c-3.08-7.52-2.95-25.32-1.86-32.66,0,0,0,0,0,0,.42-3.9,2-10.17,2-10.17-2.72-1.72-5.76-4.41-8.51-7.09l5.8-6.97c4.05,1.63,8.05,2.76,9.94,2.67"/>
    <path class="cls-2" d="m85.64,42.89c-.07-.28-.16-.56-.3-.81-.49-.84-1.63-1.15-2.57-.92-.13.03-.26.08-.4.13.19-4.29-.58-8.7-2.75-12.34-5.27-8.87-15.94-7.75-15.94-7.75-16.25.27-18.11,14.8-18.28,19.72-.88-.11-1.83.21-2.28.97-.15.25-.23.53-.3.81-.1.39-.19.79-.21,1.19-.05,1.36.84,2.7,2.11,3.18.7.27,1.48.25,2.19.02,2.3,4.94,6.51,9.01,11.66,10.77,6.67,2.28,14.67.41,19.37-4.85,1.5-1.68,2.65-3.67,3.4-5.79.76.31,1.63.35,2.4.05,1.27-.48,2.16-1.82,2.11-3.18-.01-.4-.1-.8-.21-1.19Z"/>
    <path class="cls-2" d="m89.58,108.52c-.79.85-1.8,1.47-2.8,2.02-1.52.85-3.09,1.61-4.68,2.28-.83.34-1.8.66-2.51.2-.28-.17-.48-.44-.66-.71-.08-.12-.63-1.06-1.47-2.55l6.89-3.84c1.57.07,3.1.33,4.63.65.46.1.99.27,1.11.74.11.43-.18.87-.49,1.2Z"/>
    <path class="cls-2" d="m54.21,110.68c-.34,1.38-.56,2.24-.6,2.37-.1.31-.2.63-.42.88-.55.65-1.57.64-2.46.56-1.73-.16-3.45-.42-5.16-.77-1.12-.23-2.26-.51-3.28-1.08-.4-.23-.82-.56-.84-1-.03-.47.42-.8.83-1.03,1.36-.77,2.74-1.47,4.22-2.02l7.7,2.1Z"/>
    <path class="cls-2" d="m38.15,58.65c-4.58-4.48-8.33-8.95-8.33-8.95-.99-.6-1.84-1.46-2.48-2.47-.31-.5-.58-1.13-.36-1.69.02-.06.06-.13.11-.15.11-.05.22.07.29.17.22.33.45.65.67.98-.26-.37-.52-.76-.64-1.21-.11-.45-.03-.99.31-1.29.22.4.49.77.8,1.1-.42-.45-.6-1.15-.46-1.77.03-.13.08-.27.19-.33.18-.11.4.06.54.22.33.38.62.81.85,1.27-.26-.4-.44-.87-.51-1.36-.03-.22-.04-.45.04-.65.08-.2.29-.36.49-.32.11.02.19.09.27.17.58.56.87,1.38,1.35,2.05.06.08.14.17.24.17.08,0,.15-.06.2-.12.21-.26.27-.62.41-.93.15-.31.49-.58.77-.42.19.11.25.38.28.61.07.64.17,1.22.03,1.84,1.93,2,6.36,4.34,10.72,6.09l-5.8,6.97Z"/>
    <path class="cls-2" d="m90.1,58.94c5.06-4.75,9.43-9.79,9.43-9.79.99-.6,1.84-1.46,2.48-2.47.31-.5.58-1.13.36-1.69-.02-.06-.06-.13-.11-.15-.11-.05-.22.07-.29.17-.22.33-.45.65-.67.98.26-.37.52-.76.64-1.21.11-.45.03-.99-.31-1.29-.22.4-.49.77-.8,1.1.42-.45.6-1.15.46-1.77-.03-.13-.08-.27-.19-.33-.18-.11-.4.06-.54.22-.33.38-.62.81-.85,1.27.26-.4.44-.87.51-1.36.03-.22.04-.45-.04-.65-.08-.2-.29-.36-.49-.32-.11.02-.19.09-.27.17-.58.56-.87,1.38-1.35,2.05-.06.08-.14.17-.24.17-.08,0-.15-.06-.2-.12-.21-.26-.27-.62-.41-.93-.15-.31-.49-.58-.77-.42-.19.11-.25.38-.28.61-.07.64-.17,1.22-.03,1.84-1.85,1.92-6.22,4.05-10.57,5.83"/>
    <path class="cls-11" d="m54.09,42.11c0,.64-.44,1.16-.98,1.16s-.98-.52-.98-1.16.44-1.16.98-1.16.98.52.98,1.16Z"/>
    <path class="cls-11" d="m76.33,42.11c0,.64-.44,1.16-.98,1.16s-.98-.52-.98-1.16.44-1.16.98-1.16.98.52.98,1.16Z"/>
    <path class="cls-10" d="m64.59,45.89c.52-.25.89-.81.87-1.39-.02-.58-.46-1.13-1.04-1.22-.31-.05-.63.03-.94.11"/>
  </g>
  <g>
    <path class="cls-7" d="m81.46,52.72h-5.42c-.41,0-.74.33-.74.74v.7c0,.41.33.74.74.74h1.68l-11.58,24.22-1.04,2.43,2.23.93,1.42-3.35,11.58-24.23h1.13c.41,0,.74-.33.74-.74v-.7c0-.41-.33-.74-.74-.74Z"/>
    <path class="cls-7" d="m49.55,54.09h1.64c.39,0,.71-.32.71-.71v-.76c0-.39-.32-.71-.71-.71h-4.91c-.39,0-.71.32-.71.71v.76c0,.39.32.71.71.71h.64l12.49,25.04,1.49,3.38,2.2-.98-1.06-2.41-12.5-25.04Z"/>
  </g>
  <rect class="cls-7" x="62.92" y="89.45" width="2.41" height="6.32"/>
  <rect class="cls-7" x="53.77" y="66.38" width="5.52" height="9.03" rx="1.02" ry="1.02" transform="translate(-23.44 28.16) rotate(-23.32)"/>
  <rect class="cls-7" x="66.99" y="68.13" width="9.03" height="5.52" rx="1.02" ry="1.02" transform="translate(-21.9 108.49) rotate(-66.68)"/>
  <path class="cls-7" d="m67.86,80.24h-7.6c-.92,0-1.58.88-1.33,1.76l1.62,5.7c.45,1.57,1.88,2.65,3.51,2.65h0c1.63,0,3.07-1.08,3.51-2.65l1.62-5.7c.25-.88-.41-1.76-1.33-1.76Z"/>
  <path class="cls-6" d="m64.12,87.99c-.63,0-1.19-.42-1.36-1.03l-1.2-4.24c-.11-.39.18-.78.59-.78h3.95c.41,0,.7.39.59.78l-1.2,4.24c-.17.61-.73,1.03-1.36,1.03Z"/>
  <path class="cls-7" d="m70.91,104.43c0,.6-.5,1.09-1.1,1.09h-11.38c-.6,0-1.09-.49-1.09-1.09s.49-1.1,1.09-1.1h2.88v-6.54c0-.56.45-1.01,1.02-1.01h3.48c.56,0,1.01.45,1.01,1.01v6.54h2.99c.6,0,1.1.49,1.1,1.1Z"/>
  <g>
    <line class="cls-3" x1="8.25" y1="14.8" x2="32.48" y2="18.29"/>
    <polygon points="30.32 23.02 39.58 19.31 31.74 13.15 30.32 23.02"/>
  </g>
  <rect class="cls-9" x="-235.86" y="-314.74" width="1215" height="875.1"/>
</svg>