<?xml version="1.0" encoding="UTF-8"?>
<svg id="Calque_1" data-name="Calque 1" xmlns="http://www.w3.org/2000/svg" viewBox="0 0 128 128.13">
  <defs>
    <style>
      .cls-1 {
        fill: #ffd4ad;
      }

      .cls-2 {
        fill: #fff;
      }

      .cls-2, .cls-3 {
        stroke: #000;
        stroke-width: 2px;
      }

      .cls-2, .cls-3, .cls-4 {
        stroke-linecap: round;
        stroke-linejoin: round;
      }

      .cls-3, .cls-4 {
        fill: none;
      }

      .cls-4 {
        stroke: #fff;
        stroke-width: 8px;
      }
    </style>
  </defs>
  <path class="cls-1" d="m61.59,49.02c-1.21-3.5-2.77-6.86-4.67-10.01-4.27,1.37-11.91,2.29-20.63,2.29s-15.63-.83-19.99-2.09c-1.84,3.1-3.36,6.38-4.54,9.8-.26.74-.51,1.49-.73,2.25v.02s-.01,55.12-.01,55.12c0,5.27,11.48,9.54,25.65,9.54s25.65-4.27,25.65-9.54v-55.12c-.23-.76-.47-1.52-.73-2.26Zm-4.86,55.23c-1.81.85-4,1.58-6.47,2.15-3.94.92-8.6,1.45-13.59,1.45s-9.65-.53-13.59-1.45c-2.64-.61-4.96-1.4-6.84-2.32v-43.98c4.68,1.66,12.09,2.72,20.43,2.72s15.36-1.01,20.06-2.59v44.02Z"/>
  <path class="cls-3" d="m11.76,49.01c-.26.74-.51,1.49-.73,2.25v.02c-.01-.78.24-1.54.73-2.27Z"/>
  <path class="cls-3" d="m62.32,51.28c-.23-.76-.47-1.52-.73-2.26.48.72.73,1.48.73,2.26Z"/>
  <rect class="cls-3" x="27.39" y="20.75" width="18.56" height="5.21"/>
  <path class="cls-3" d="m27.27,7.94h18.8c1.59,0,2.88,1.29,2.88,2.88v7.32h-24.55v-7.32c0-1.59,1.29-2.88,2.88-2.88Z"/>
  <rect class="cls-3" x="26.11" y="18.14" width="21.11" height="2.6" rx="1.3" ry="1.3"/>
  <path class="cls-3" d="m61.59,49.02c-1.33-3.86-3.1-7.55-5.26-10.98-2.57-4.1-5.71-7.84-9.32-11.13l-1.06-.96h-18.56l-1.04.95c-6.66,6.04-11.67,13.64-14.59,22.11-.26.74-.51,1.49-.73,2.25v.02s-.01,55.12-.01,55.12c0,5.27,11.48,9.54,25.65,9.54s25.65-4.27,25.65-9.54v-55.12c-.23-.76-.47-1.52-.73-2.26Zm-4.86,55.23c-1.81.85-4,1.58-6.47,2.15-3.94.92-8.6,1.45-13.59,1.45s-9.65-.53-13.59-1.45c-2.64-.61-4.96-1.4-6.84-2.32v-43.98c4.68,1.66,12.09,2.72,20.43,2.72s15.36-1.01,20.06-2.59v44.02Z"/>
  <path class="cls-3" d="m56.73,60.23v44.02c-1.81.85-4,1.58-6.47,2.15-3.94.92-8.6,1.45-13.59,1.45s-9.65-.53-13.59-1.45c-2.64-.61-4.96-1.4-6.84-2.32v-43.98c4.68,1.66,12.09,2.72,20.43,2.72s15.36-1.01,20.06-2.59Z"/>
  <path class="cls-2" d="m117.2,64.94l-.73.65-39.22,34.37c0,.05-.01.09-.02.14-.21,1.06-.48,2.11-.72,3.16-.19.82-.36,1.65-.54,2.48h0c-.55,2.5-1.19,5-2.64,7.12-4.31,6.3-15.91,8.46-22.78,5.93-.78-.29-1.58-.65-2.27-1.13-.88-.6-1.62-1.36-2.02-2.34-.68-1.69-.19-3.67.83-5.18,2.09-3.12,5.87-5.35,9.26-6.74,2.24-.91,4.58-1.54,6.91-2.16,1.05-.28,2.1-.57,3.14-.87,1.67-.5,3.32-1.05,4.89-1.79.02,0,.04-.02.06-.03l42.01-33.73c1.2-.98,2.86-1.08,3.84.12Z"/>
  <path class="cls-2" d="m116.6,68.77l-39.26,34.23h0c-.21,1.09-.48,2.16-.73,3.22-.77,3.27-1.24,6.77-3.19,9.6-4.31,6.3-13.85,8.22-20.72,5.69-1.78-.65-3.58-1.72-4.29-3.47-.05-.13-.09-.25-.13-.38.69.48,1.49.84,2.27,1.13,6.87,2.53,18.47.37,22.78-5.93,1.45-2.12,2.09-4.62,2.64-7.11h0c.18-.84.35-1.67.54-2.49.24-1.05.51-2.1.72-3.16.01-.05.02-.09.02-.14l39.22-34.37.75-.61c.83.95.55,2.78-.62,3.79Z"/>
  <path class="cls-1" d="m48.97,116.71c-1.05-1.8,2.54-5.38,4.2-6.89,3.66-3.3,7.54-4.3,9.99-4.89,2.68-.65,5.27-1.24,7.92,0,.79.37,2.33,1.14,2.89,2.62,1,2.62-3.03,6.75-4.2,7.58-4.94,3.48-11.85,3.87-13.95,3.69-2.57-.22-6.13-.88-6.84-2.1Z"/>
  <rect class="cls-4" x="-3367.22" y="-1872.09" width="6467.34" height="6437.3"/>
</svg>