<?xml version="1.0" encoding="UTF-8"?>
<svg id="Calque_1" data-name="Calque 1" xmlns="http://www.w3.org/2000/svg" viewBox="0 0 128 128">
  <defs>
    <style>
      .cls-1 {
        fill: none;
        stroke: #fff;
        stroke-width: 8px;
      }

      .cls-1, .cls-2, .cls-3 {
        stroke-linecap: round;
      }

      .cls-1, .cls-3 {
        stroke-linejoin: round;
      }

      .cls-2 {
        fill: #bfe6fc;
        stroke-miterlimit: 10;
      }

      .cls-2, .cls-3 {
        stroke: #000;
        stroke-width: 3px;
      }

      .cls-3 {
        fill: #f3d587;
      }
    </style>
  </defs>
  <circle class="cls-3" cx="41.78" cy="57.84" r="18.02"/>
  <line class="cls-3" x1="41.78" y1="93.18" x2="41.78" y2="82.01"/>
  <line class="cls-3" x1="16.79" y1="82.83" x2="24.69" y2="74.93"/>
  <line class="cls-3" x1="6.44" y1="57.84" x2="17.61" y2="57.84"/>
  <line class="cls-3" x1="16.79" y1="32.86" x2="24.69" y2="40.76"/>
  <line class="cls-3" x1="41.78" y1="22.51" x2="41.78" y2="33.68"/>
  <line class="cls-3" x1="66.77" y1="32.86" x2="58.87" y2="40.76"/>
  <line class="cls-3" x1="77.12" y1="57.84" x2="65.95" y2="57.84"/>
  <line class="cls-3" x1="66.77" y1="82.83" x2="58.87" y2="74.93"/>
  <path class="cls-2" d="m104.58,63.98c-2.59-10.44-12.02-18.2-23.28-18.2-8.1,0-15.28,4.03-19.61,10.17-1.41-.33-2.88-.49-4.39-.49-9.45,0-17.4,6.39-19.75,15.09-6.97,3.26-11.8,10.35-11.8,18.54,0,11.32,9.17,20.47,20.47,20.47l47.1-.42c13.24,0,23.98-10.74,23.98-23.98,0-9.19-5.16-17.16-12.73-21.19Z"/>
  <rect class="cls-1" x="-2952.75" y="-841.59" width="6562.35" height="1176.7"/>
</svg>