<?xml version="1.0" encoding="UTF-8"?>
<svg id="Calque_1" data-name="Calque 1" xmlns="http://www.w3.org/2000/svg" viewBox="0 0 200.13 128.13">
  <defs>
    <style>
      .cls-1 {
        fill: #77eddf;
      }

      .cls-1, .cls-2, .cls-3, .cls-4, .cls-5, .cls-6, .cls-7, .cls-8, .cls-9, .cls-10, .cls-11 {
        stroke-linecap: round;
        stroke-linejoin: round;
      }

      .cls-1, .cls-3, .cls-5, .cls-7, .cls-12 {
        stroke: #231f20;
      }

      .cls-2, .cls-4, .cls-6, .cls-8, .cls-11 {
        stroke: #000;
      }

      .cls-2, .cls-5 {
        fill: #d6d6d6;
      }

      .cls-3, .cls-4 {
        fill: #afaff9;
      }

      .cls-6, .cls-7 {
        fill: #fff;
      }

      .cls-8, .cls-9, .cls-12, .cls-10 {
        fill: none;
      }

      .cls-13 {
        fill: #ff6d75;
      }

      .cls-9 {
        stroke: #ff6d75;
      }

      .cls-9, .cls-12 {
        stroke-width: 2px;
      }

      .cls-12 {
        stroke-miterlimit: 10;
      }

      .cls-10 {
        stroke: #fff;
        stroke-width: 8px;
      }
    </style>
  </defs>
  <path class="cls-5" d="m84.49,109.62l-14.61-1.15s-.35-2.23.41-3.92c.73-1.62-.27-2.79-1.28-4.73.93.96,4.13.82,6.24.53.26.42,2.86,4.28,3.73,4.9.95.69,5.21,1.59,5.51,4.35Z"/>
  <path class="cls-5" d="m67.33,108.47h-14.61s-.35-2.23.41-3.92c.73-1.62,2.01-3.36,1-5.29.93.96,3.86.85,5.97.57.26.42-.98,3.16,1.71,5.43.9.76,5.21.44,5.51,3.21Z"/>
  <path class="cls-3" d="m64.91,56.55s-4.85-1.94-11.49,4.8c-12.74,10.32-29.11,36.58-30.65,38.42-3.08,3.69-.7,8.83,11.9,8.71,7.36-.07,11.87-3.45,13.89-6.49.54-.81,2.51-4.5,4.94-9.45-.07,4.97-.1,8.57-.1,8.57-.38,3.52,7.53,2.56,7.53,2.56,13.41-44.87,3.98-47.11,3.98-47.11Z"/>
  <path class="cls-7" d="m46.33,79.85c-.43,4.92-.85,9.72-1.12,12.53-.72,7.53-4.39,17.57-20.32,15.67-.39-.05-.76-.11-1.12-.17h0c-6.54-1.45-7.46-5.22-5.05-8.1.71-.86,4.63-7.46,9.83-15.43,2.32-3.56,4.9-7.39,7.56-11.11,1.25.98,2.52,1.93,3.76,2.78,2.42,1.69,4.72,3.07,6.47,3.84Z"/>
  <path class="cls-7" d="m47.79,62.93s-.08.95-.21,2.52c-1.17-1.02-2.26-1.93-3.3-2.76.4-.46.8-.91,1.2-1.35,1.42.92,2.31,1.58,2.31,1.58Z"/>
  <path class="cls-7" d="m32.81,92.17c-2.2-1.67-3.52-4.53-4.27-7.83,2.32-3.56,4.9-7.39,7.56-11.11,1.25.98,2.52,1.93,3.76,2.78,1.06,9.4-2.33,19.77-7.06,16.16Z"/>
  <path class="cls-7" d="m69.75,81.3c-.64,1.22-1.37.52-1.37.52l-.41-4.75c.15,0,.29,0,.39,0,.43,1.32.9,2.73,1.39,4.23Z"/>
  <path class="cls-3" d="m76.39,101.61s-6.03,4.37-7.37,1.1c0,0-9.05-13.57-13.36-23.86-5.15,10.96-11.84,21.6-12.77,22.99-2.02,3.04-4.92,6.57-12.29,6.64-2.75.03-5-.2-6.83-.6h0c-6.54-1.45-7.46-5.22-5.05-8.1.71-.86,4.63-7.46,9.83-15.43,2.32-3.56,4.9-7.39,7.56-11.11,1.25.98,2.52,1.93,3.76,2.78,2.42,1.69,4.72,3.07,6.47,3.84,1.03.46,1.86.7,2.42.67,1.87-.11,3.56-1.85,4.85-3.79,4.46.35,12.1.36,14.37.34.15,0,.29,0,.39,0,.43,1.32.9,2.73,1.39,4.23,1.8,5.47,3.99,12.15,6.64,20.31Z"/>
  <path class="cls-7" d="m67.71,74.13s.02.01.03.01c.33.15,3.21,1.62,2.6,5.17-.16.94-.37,1.57-.58,1.98-.49-1.5-.96-2.91-1.39-4.23-.11,0-.24,0-.39,0-2.26.01-9.91,0-14.37-.34.28-.42.54-.85.78-1.27-.6-1.83-.95-3.46-.96-4.75,3.23.77,11.45,2.21,13.89,3.24l.39.19Z"/>
  <path class="cls-7" d="m53.42,70.7c0,1.29.35,2.92.96,4.75-.24.42-.5.85-.78,1.27-1.01-.08-1.86-.18-2.45-.3-2.31-.48-3.71-1.81-15.58-7.21-11.88-5.41-8.06-11.31-8.06-11.31,6.21-6.39,23.16,11.84,24.76,12.48.21.08.61.2,1.15.32Z"/>
  <g>
    <path class="cls-6" d="m56.17,45.93c-.6,2.4-3.4,4.54-3.58,4.67.06-.44.2-.9.44-1.38.13-.27.25-.54.33-.82.77-2.19.2-4-.2-4.98,0,0-4.3,3.13-5.12,3.58-.82.44-3.4,1.67-4.46.64-.96-.94-1.57-2.25-2.84-2.05s-2.28,2.26-1.43,3.47c0,0-2.08,1.56-3.18,2.8l-.95,1.03c.69-2.24-.15-4.84-.57-7.23-.46-2.66,1.74-5.4,1.88-5.56h0c.55-2.16,2.09-4.15,5.46-4.44,6.76-.58,12.1,3.3,12.48,6.1,0,0,2.49,1.17,1.73,4.16Z"/>
    <path class="cls-8" d="m36.27,43.05c-.08-.91-.04-1.95.21-2.95"/>
    <path class="cls-8" d="m52.59,50.6s0,0,0,0"/>
    <line class="cls-8" x1="35.18" y1="52.9" x2="35.18" y2="52.9"/>
    <path class="cls-6" d="m32.79,55.5l2.38-2.6h0s.95-1.04.95-1.04c1.1-1.24,3.18-2.8,3.18-2.8-.85-1.21.17-3.27,1.43-3.47s1.88,1.11,2.84,2.05c1.06,1.03,3.64-.2,4.46-.64.82-.45,5.12-3.58,5.12-3.58.39.98.96,2.8.2,4.98-.08.27-.2.54-.33.82-.24.48-.37.95-.44,1.38,0,0,0,0,0,0-.28,1.86.67,3.26.42,3.73-.29.56-1.36.28-2.61,2.16-.06.09-.13.2-.19.3-.15.26-.3.51-.43.75-.93,1.66-1.5,2.83-3.08,2.47-.18-.04-.38-.1-.59-.18-1.25-.5-2.47-1.24-3.35-1.88-.65-.48-1.12-.89-1.28-1.12"/>
    <ellipse class="cls-11" cx="49.13" cy="50.03" rx=".83" ry=".38" transform="translate(-18.36 69.07) rotate(-61.28)"/>
    <path class="cls-8" d="m49.78,57.55s-.22-1-4.31-2.19"/>
    <line class="cls-8" x1="40.99" y1="47.57" x2="41.46" y2="48.05"/>
    <line class="cls-8" x1="48.76" y1="47.72" x2="50.85" y2="47.39"/>
  </g>
  <line class="cls-8" x1="42.76" y1="57.96" x2="42.54" y2="59.53"/>
  <path class="cls-3" d="m47.58,65.45c-1.17-1.02-2.26-1.93-3.3-2.76.4-.46.8-.91,1.2-1.35,4.37-4.86,8.41-8.1,11.33-7.94,2.43.14,3.84,1.29,4.49,3.14,0,0,.34.31,6.02,17.4-2.44-1.03-10.66-2.47-13.89-3.24,0-.25,0-.49.04-.72-.38-.09-.72-.17-.96-.2-.96-.16-2.9-2.51-2.9-2.51-.7-.64-1.37-1.24-2.02-1.82Z"/>
  <path class="cls-1" d="m56.13,71.29c.06.67-3.21,8.99-7.38,9.23-.56.04-1.38-.21-2.42-.67-1.74-.77-4.04-2.14-6.47-3.84-1.24-.86-2.51-1.8-3.76-2.78-2.66,3.72-5.24,7.55-7.56,11.11-5.2,7.97-9.12,14.57-9.83,15.43-2.41,2.88-1.48,6.66,5.05,8.1-14.33-2.64-4.96-20.48-3.27-23.03,1.74-2.61.24-22.64,7.72-28.57.71-.56,1.6-.84,2.62-.89h0s.04,0,.04,0c0,0,.02,0,.04,0,4.43-.2,11.08,3.69,14.56,5.97-.4.44-.8.89-1.2,1.35,1.04.82,2.14,1.74,3.3,2.76.65.58,1.33,1.18,2.02,1.82,0,0,1.93,2.35,2.9,2.51.96.15,3.57.84,3.63,1.5Z"/>
  <g>
    <circle class="cls-13" cx="69.02" cy="41.77" r="6.82"/>
    <path class="cls-8" d="m75.84,41.77c0,3.77-3.05,6.82-6.82,6.82s-6.82-3.05-6.82-6.82,3.05-6.82,6.82-6.82c1.17,0,2.27.29,3.23.81"/>
    <path class="cls-8" d="m66.21,45.25c.7-.76,1.7-1.24,2.81-1.24s2.12.48,2.81,1.24"/>
    <g>
      <circle class="cls-11" cx="66.35" cy="40.45" r=".85"/>
      <circle class="cls-11" cx="71.69" cy="40.45" r=".85"/>
    </g>
  </g>
  <path class="cls-12" d="m15.07,33.3c17.71-17.68,46.4-17.66,64.08.05,17.68,17.71,17.66,46.4-.05,64.08"/>
  <path class="cls-6" d="m159.17,37.95l5.96,3.51s.2,1.44,1.46,6.32c2.53-.35,9.52-3.16,9.87-3.28.34-.12,2.17-4.77,2.62-4.39.44.38-1.01,2.44-.44,2.76.57.32,5.98-1.92,5.96-1.45-.03.88-3.27,1.51-3.22,1.92.06.41,3.35-1,3.66-.37.31.63-3.21,1.02-3.31,1.35-.1.34,3.33.12,3.07.84-.14.39-3.05.11-2.98.57.07.47,2.24,1.07,2.04,1.5-.2.43-1.74-.78-2.93-.53-1.18.25-2.12-.24-3.93.76-1.81,1-10.99,7.03-13.09,5.81-1.83-1.06-4.75-15.32-4.75-15.32Z"/>
  <line class="cls-4" x1="144.13" y1="115.91" x2="140.59" y2="114.65"/>
  <path class="cls-6" d="m134.41,18.15h0c.09-.03.68-.29.89-1.32.23-1.11.7-1.06.57-2.16-.13-1.03-1.13-.42-1.24-.34"/>
  <path class="cls-6" d="m144.4,113.08l-.85-.63-.63-5.49s-4.86.77-4.86.84.49,5.14.49,5.14l-.35,1.41,3.59.28,2.04-.49.57-1.06Z"/>
  <polygon class="cls-6" points="119.82 114.45 119.61 109.13 125.18 109.07 124.15 114.22 122.32 115.94 119.82 114.45"/>
  <path class="cls-6" d="m126.18,117.97c-.14-.45-1.64-3.1-2-3.76-.73.31-1.44.49-2.24.49-.73,0-1.54-.07-2.13-.51-.37.52-.83,1.24-1.17,1.82-.31.53-.75,1.08-.97,1.67-.22.6-.12,1.28.35,1.67,1.57,1.3,5.98,1.62,7.87.18.57-.43.38-1.25.28-1.55Z"/>
  <path class="cls-6" d="m150.36,117.91c-.9.16-1.87.09-2.78.09-2.61,0-5.23-.13-7.84-.25-.42-.02-.84-.04-1.22-.21-.3-.13-.56-.36-.73-.63-.11-.17-.19-.36-.21-.56,0-.07,0-.14,0-.21.02-.28.12-.55.22-.81.19-.48.27-.83.46-1.31,2.07,0,4.14-.39,6.14-.94.2.1.4.2.6.3l3.47,1.75c.47.24.94.47,1.41.71.11.06.22.11.34.17.33.17.8.27,1.05.58.05.07.1.15.13.24.2.69-.45.98-1.02,1.08Z"/>
  <path class="cls-6" d="m143.89,109.84s-1.77.72-3.87,1.02c-2.1.29-2.25.04-2.25.04l-3.82-25.28s-1.08-2.78-2.51-6.53c-.11-.29-.23-.59-.34-.9-.5-1.28-1.02-2.65-1.55-4.04.05,4.09.1,8.15.15,12.06l-4.3,25.88c-1.67.6-1.79.57-3.6.57-1.66,0-1.66-.04-3.16-.63.68-9,1.88-25.58,1.88-25.58,0,0-3.78-17.5-2.87-26.57.44-4.38,2.39-7.95,3.73-10.34.85.71,2.25,1.29,3.3,1.54,1.74.43,2.45.5,4.19.43.28-.03.56-.05.81-.07,2.53-.29,4.15-.57,4.15-.57,0,0,3.51,7.79,4.93,12.46,1.41,4.64,3.66,22.73,3.66,22.73l1.48,23.79Z"/>
  <path class="cls-6" d="m132.47,27.15c-.25.11-.51.19-.76.26-2.16.51-4.62-.4-5.45-.75l.26-3.67.03-.41,5.67-1.09.15,1.18.48,3.99c-.03.07-.05.16-.07.22-.02.05-.03.09-.05.13,0,.02,0,.04-.02.06h0l-.22.1Z"/>
  <g>
    <path class="cls-6" d="m146.8,63.65c.02.18.02.36.01.54,0,.48-.03.96-.04,1.44,0,.21,0,.42.06.62s.18.39.37.48.44.06.57-.1c.11-.14.11-.34.11-.52,0-.24-.02-.48-.02-.72-.01-.32-.02-.65-.05-.97-.05-.65-.18-1.33-.59-1.85-.13-.16-.75-.58-.75-.11,0,.18.15.39.2.56.07.21.11.42.13.64Z"/>
    <path class="cls-6" d="m147.18,63.95c.02.18.02.36.01.54,0,.48-.03.96-.04,1.44,0,.21,0,.42.06.62s.18.39.37.48.44.06.57-.1c.11-.14.11-.34.11-.52,0-.24-.02-.48-.02-.72-.01-.32-.02-.65-.05-.97-.05-.65-.18-1.33-.59-1.85-.13-.16-.75-.58-.75-.11,0,.18.15.39.2.56.07.21.11.42.13.64Z"/>
    <path class="cls-6" d="m142.49,57.35c.06-.27.89-.48,1.27-1.02,1.18.69,3.16,4.46,3.65,5.45.33.67.67,1.37.82,2.11.15.78.18,1.58.22,2.38,0,.12.01.25-.03.37-.07.21-.35.35-.54.2-.42-.32-.45-.98-.49-1.46-.04-.45-.05-.9-.16-1.34-.11-.43-.34-.78-.62-1.12-.21-.24-1.25-1.62-1.36-1.51-.11.11-.46.7-.43.84.03.16.1.31.17.45.12.25.27.5.32.78,0,.05.01.09.02.14.02.51-.49,1.13-.93.57-.09-.12-.16-.26-.22-.4-.31-.66-.76-1.25-.94-1.95-.12-.45-.19-.91-.26-1.37-.26-1.73-.64-2.31-.48-3.12Z"/>
    <path class="cls-6" d="m145.72,61.93c-.06-.09-.13-.18-.2-.26-.13-.15-.27-.28-.46-.35-.18-.06-.41-.03-.53.11-.11.12-.12.3-.1.46.06.39.32.72.56,1.05.12.17.24.34.31.53-.05-.28-.2-.53-.32-.78-.07-.15-.14-.3-.17-.45-.03-.13-.09-.31.02-.42.11-.1.32-.13.45-.11.16.02.31.11.43.21Z"/>
  </g>
  <path class="cls-8" d="m129.03,8.05s0,.96-.35,1.62h0"/>
  <path class="cls-8" d="m127.16,10.08c-.76-.44-1.28-1.56-1.28-1.56"/>
  <path class="cls-6" d="m124.75,18.93h0c-.09-.02-.72-.18-1.08-1.17-.4-1.07-.85-.94-.9-2.05-.03-1.04,1.05-.59,1.17-.53"/>
  <path class="cls-8" d="m133.58,9.42s-.75.44-1.58.6"/>
  <path class="cls-6" d="m125.59,10.55c.48.02,1.03-.09,1.58-.47.23.14.47.21.73.18.37-.04.61-.28.78-.59,0,0,.02.02.03.02.1.1.76.68,1.58-.11.43.51,1.1.56,1.72.45.37.29.88.26.88.26.03.04.07.09.09.13,1.53,2.15,1.68,3.62,1.69,3.77.09-.38.16-.75.21-1.1-.08.65-.2,1.11-.23,1.21h0s0,.03,0,.03h0c.02.61.03,2.19-.22,3.83-.21,1.36-.62,2.76-1.37,3.66-1.72,2.1-2.84,2.14-3.01,2.13-.17.04-1.35.22-3.39-1.6-.88-.77-1.5-2.1-1.91-3.41-.5-1.58-.73-3.14-.81-3.75h0c-.01-.07-.02-.14-.02-.22.02.06.04.09.04.09-.02-.25-.02-.51-.01-.75.17-1.27,1.32-3.37,1.46-3.73l.17-.03Z"/>
  <path class="cls-8" d="m123.96,14.31c-.03.24-.04.46-.03.66"/>
  <path class="cls-8" d="m123.94,15.19s0,0-.01-.02h0c-.05-.13-.33-.75-.52-1.59v-.03c-.38-1.69-.39-4.24,2.42-5.38,0,0,.17-.93,1.36-.78,0,0,1.38-1.5,3.03-.27,1.15-.33,1.47.56,1.47.56,3.17.75,3.38,3.61,3.19,5.32,0,.04-.01.06-.01.09"/>
  <path class="cls-8" d="m133,10.58s1.63,2.37,1.63,3.74"/>
  <path class="cls-8" d="m123.91,14.93h0s0,.11.03.23h0s0,.03,0,.03"/>
  <path class="cls-8" d="m134.65,14.32v-.02"/>
  <path class="cls-8" d="m134.63,14.06s0,.09,0,.24"/>
  <path class="cls-8" d="m130.96,8.63c-.21.38-.41.67-.61.87-.02.03-.04.06-.07.07"/>
  <path class="cls-8" d="m128.7,9.68l-.02-.02"/>
  <line class="cls-6" x1="129.54" y1="74.15" x2="129.28" y2="63.09"/>
  <path class="cls-2" d="m117.82,42.69c.83-.87,1.6-1.79,2.3-2.75.04.41.02,1.31-.04,2.44-.09,2.27-.3,5.5-.43,7.55.49.71.94,1.44,1.36,2.18.27.46.3,1.02.09,1.51-.03.06-.06.14-.09.2.04.02.06.03.1.04,3.94,1.26,8.24,1.41,12.28.48.82-.18,1.67-.45,2.18-1.16.08-.12.17-.25.22-.39,1.05,1.31,2.16,2.59,3.35,3.8,1.01,1.02,2.58,1.25,3.85.57.95-.51,1.49-1.47,1.49-2.46,0-.47-.12-.95-.38-1.39-.71-1.21-1.44-2.35-2.26-3.52-.45-.64-1.29-1.73-1.75-2.32-.2-.26-.3-.59-.29-.92.14-2.27,1.31-12.23-1.46-16.02-.09-.13-.17-.29-.28-.4-1.19-1.2-3.56-2.65-5.06-3.25-.1.06-.2.12-.3.17h0l-.22.1c-.25.11-.51.19-.76.26-2.16.51-4.62-.4-5.45-.75-.19-.08-.29-.14-.29-.14-1.35.17-2.68.47-3.98.9-1.42.48-2.66,1.04-3.83,1.98-1.19.97-2.24,2.09-3.25,3.25-.49.56-.96,1.13-1.43,1.71-.23.28-.46.55-.69.84"/>
  <path class="cls-6" d="m133.01,26.87c-.1.06-.2.12-.3.17h0c-.07.04-.15.07-.22.1-.25.11-.51.19-.76.26l.81-.33.2-.08.28-.12Z"/>
  <path class="cls-8" d="m137.34,39.99c-.05,1.31-.85,9.65-1.07,10.95-.13.76-.25,1.59-.71,2.23-.51.71-1.36.97-2.18,1.16"/>
  <path class="cls-6" d="m129.11,58.42s-2.68-1.27-2.68-1.27c-.4-.19-.8-.35-1.19-.55-.2-.1-.39-.22-.56-.35-.16-.12-.37-.29-.07-.32.2-.02.41,0,.6.03.31.02.65.05.95-.03.17-.04.34-.14.41-.31.09-.21-.02-.46-.2-.61,0,0-.01-.01-.02-.02-.19-.14-.43-.19-.66-.23-.75-.14-1.52-.17-2.26-.36-.42-.11-.8-.29-1.24-.36-.36-.05-.72-.07-1.08-.05l-.48-.54s.02-.04.02-.04c-.15-.17-.3-.34-.45-.51-.61.96-1.22,1.91-1.83,2.87.38.3.62.48.63.47,0,0,0,0,0-.01.26,1.34,1.21,2.72,2.3,3.39.11.07.23.13.32.23.07.07.12.16.17.25.3.51.58,1.03.84,1.56.16.33.37,1.13.84,1.14.32,0,.54-.34.4-.63-.26-.52-.53-1.03-.8-1.53-.1-.19-.22-.37-.3-.57-.02-.06-.1-.21-.06-.28.2-.36.69.31.82.45.23.27.47.54.71.8.34.38.68.75,1.02,1.12.22.23.49.68.87.51.26-.11.35-.47.15-.68-.11-.12-.22-.23-.33-.35-.02-.04-.04-.09-.08-.13-.37-.42-.72-.86-1.07-1.3-.17-.22-.34-.44-.51-.67-.07-.09-.5-.44-.35-.57.17-.16.63.34.75.42.34.23.68.46,1.02.69.46.31.9.63,1.36.93.28.19.77.66,1.11.34.18-.17.17-.49-.02-.65-.02-.02-.04-.05-.06-.07-.57-.56-1.22-1.03-1.85-1.52-.31-.24-.62-.47-.92-.73-.16-.13-.31-.26-.46-.4-.06-.06-.24-.17-.17-.27.07-.09.28,0,.36.03.21.08.4.23.6.31.35.13.71.26,1.06.38.49.18.98.36,1.47.55.29.11.73.43,1.03.16.21-.19.17-.6-.1-.73Z"/>
  <path class="cls-2" d="m117.82,42.69c-.73.77-1.48,1.51-2.24,2.23,1.55,1.63,2.92,3.28,4.07,5,.49.71.94,1.44,1.36,2.18.27.46.3,1.02.09,1.51-.03.06-.06.14-.09.2-.31.74-.66,1.45-1.08,2.14-.34.56-1.05.77-1.65.5-2.12-.98-4.11-2.31-5.91-3.78-1.52-1.24-3.06-2.59-4-4.34-1.57-2.92-.4-6.26,1.23-8.88.93-1.51,2.06-2.9,3.19-4.27"/>
  <line class="cls-8" x1="115.57" y1="44.92" x2="112.79" y2="42.45"/>
  <line class="cls-2" x1="130.31" y1="27.41" x2="129.55" y2="54.7"/>
  <line class="cls-2" x1="128.98" y1="30.48" x2="131.97" y2="30.48"/>
  <g>
    <path class="cls-6" d="m147.91,118.76s-1.78,2.35,0,2.61,6.4,0,6.4,0c0,0,1.4.47.18-2.81-.64-.05-1.28-.16-1.92-.21-1.56-.13-3.11.17-4.65.4-.62.1-1.36.15-1.78-.32-.17-.18-.26-.42-.33-.65-.27-.91-.29-1.87-.28-2.81.02-.94-.07-1.87-.09-2.81-.06-1.98-.05-3.96-.09-5.94-.06-2.98-.12-5.96-.18-8.94,0-11.75-.87-23.36-1.43-35.08-.04-.82-.09-1.82-.07-2.88,0-.13.01-.26.02-.39-.05-.79,0-1.59.14-2.37.01-.06.02-.13.04-.19.21-1,.57-1.97.92-2.93.53-1.43.86-3.15,1.4-4.48.5-1.22,2.27-1.24,3.48-1.43,3.27-.52,6.62-.45,9.9-.11.13.01.28.03.39.11.16.12.21.33.25.53.44,2.36.81,4.74,1.12,7.12.05.36.1.79.14,1.25.37,2.05.73,4.1,1.06,6.16.72,4.53,1.31,9.08,1.79,13.65.26,2.46.79,5.15.64,7.62,0,.08-.01.15-.02.23-.02.2-.04.39-.06.59-.15,1.26-.47,2.52-.84,3.76-.26.88-.54,1.75-.81,2.6-2.68,8.46-5.35,16.93-8.03,25.39,0,.35-.02.69-.02,1.04,0,.49.36,1.14-.38,1.12-.09,0-.18-.02-.28-.03"/>
    <line class="cls-6" x1="155.18" y1="116.44" x2="154.91" y2="63.49"/>
  </g>
  <path class="cls-2" d="m159.29,47.12c.71,0,8.07-.75,7.99-1.09-1-4.56-2.23-9.07-3.68-13.51-.3-.93-.65-1.9-1.39-2.54-.34-.29-.74-.5-1.13-.7-.34-.17-.68-.35-1.06-.4-1.98-.26-2.26,3.48-2.31,4.76-.07,1.54.15,3.08.36,4.61.21,1.54.48,3.08.68,4.61.19,1.43.26,2.85.54,4.27Z"/>
  <path class="cls-6" d="m146.52,30c-.46-.48-1.14-.73-1.8-.65-2.52.3-3.03,4.83-3.38,6.72-.35,1.92-.68,3.84-.99,5.76-.22,1.36-.42,2.73-.62,4.09-.24,1.67-.46,3.34-.66,5.01-.03.21-.07.44-.09.65-.37.83-.6,1.75-.77,2.46-1.07,4.52-1.88,9.11-2.62,13.69-.04.22-.06.45-.05.67-.1.13-.19.28-.26.44-.76,1.93-.47,4.23.41,6.09.04.09.1.18.2.21.12.03.24-.05.29-.14s.04-.2.03-.31c.02.19.14.35.32.45.28.17.34-.11.32-.32-.05-.46-.1-.91-.16-1.37-.07-.48-.08-.96-.05-1.44.02-.33.04-.67.13-.99.04-.14.06-.38.27-.35.11.02.19.1.25.19.09.13.16.27.22.42.06.16.1.34.17.5.07.16.19.31.35.37.31.12.38-.17.34-.42,0-.02,0-.04-.01-.06-.03-.12-.08-.24-.12-.36-.13-.35-.2-.72-.21-1.08,0-.13.04-.25.04-.38,0-.18-.02-.38-.04-.56-.03-.22-.1-.42-.19-.61,1-2.66,1.92-5.37,3.08-7.96,1.15-2.58,2.11-5.26,2.91-7.97.06-.22.12-.44.17-.67.03-.06.05-.12.07-.18.54-1.52.83-3.12,1.11-4.72.59-3.4,1.15-6.8,1.66-10.21.21-1.37.41-2.75.45-4.14.03-1.01-.06-2.11-.75-2.84Z"/>
  <path class="cls-2" d="m141.88,31.61c-.98,1.65-1.51,3.78-1.99,5.35-.98,3.19-1.63,6.46-2.28,9.72.38.07.94.32,1.31.32.73.29,1.63.28,2.4.44,1.51.31,3.04.54,4.57.69.17-2.53.68-5.06,1.01-7.58.34-2.59.64-5.18.9-7.78.06-.59.12-1.2,0-1.78-.11-.59-.41-1.16-.93-1.47-.67-.4-2.01-.45-2.74-.11-.96.44-1.68,1.24-2.25,2.2Z"/>
  <path class="cls-2" d="m163.16,36.17c-.15,1.14-.38,2.28-.53,3.35-.31,2.22-.65,4.43-1.02,6.64-.15.87-.16,1.73-.41,2.59-.05.18-.12.37-.26.49-.15.13-.37.16-.57.17-.73.07-1.47.11-2.21.15-3.55.19-7.11.39-10.67.3-.4,0-.82-.03-1.17-.22-.63-.35-.84-1.14-.98-1.84-.67-3.34-.68-6.99-2.05-10.12-.25-.58-.48-1.07-.91-1.52-.64-.67-.72-1.33-.73-2.29-.03-3.21,3.29-5.33,6.02-6.16.66-.2,1.34-.36,2.02-.47,1.3-.21,2.64-.27,3.97-.2,1.13.06,2.27.16,3.37.47.04.01.08.02.12.03,1.89.56,4.43,1.35,5.45,3.18.42.75.55,1.62.65,2.47.11.96.04,1.97-.1,2.98Z"/>
  <path class="cls-6" d="m145.24,52s11.25.86,15.6-.34"/>
  <path class="cls-6" d="m148.5,52.19s-.07,5.02-4.81,5.35"/>
  <path class="cls-6" d="m157.53,52.16s.22,5.83,4.18,5.69"/>
  <path class="cls-8" d="m159.75,15.85s1.02-2.57.44-4.4c-.7-2.2-2.74-1.96-2.74-1.96-1.35-1.64-6.28-2.01-10.35,1.02-2.98,2.21-2.01,5.22-.71,6.94"/>
  <path class="cls-8" d="m145.41,15.92s-.44,2.29.94,3.85c1.21,1.36,2.28,3.16,2.72,4.86"/>
  <path class="cls-6" d="m155.13,24.19c.45.19,2.4.39,4.13.08,1.83-.33,1.44-1.6,1.41-3.54-.03-1.93.85-2.18.82-2.67-.04-.49-1.8-1.17-2.01-3.27-.02-.23-.06-.44-.11-.65-.37-1.7-1.45-2.63-2.09-3.1,0,0-1.51,3.69-1.85,4.3-.34.6-1.5,2.4-2.58,2.16-.99-.22-1.89-.82-2.62-.19-.73.62-.56,2.34.45,2.77,0,0-.71,1.82-.92,3.04l-2.08,4.58s6.62,4.35,9.36-.2l-1.91-3.31Z"/>
  <line class="cls-8" x1="151.17" y1="18.47" x2="151.66" y2="18.59"/>
  <line class="cls-9" x1="110.15" y1="12.45" x2="176.87" y2="92.9"/>
  <line class="cls-9" x1="176.87" y1="12.45" x2="110.15" y2="92.9"/>
  <rect class="cls-10" x="-5251.58" y="-4681.75" width="6467.34" height="6437.3"/>
</svg>