<?xml version="1.0" encoding="UTF-8"?>
<svg id="Calque_1" data-name="Calque 1" xmlns="http://www.w3.org/2000/svg" viewBox="0 0 128 128">
  <defs>
    <style>
      .cls-1, .cls-2, .cls-3, .cls-4, .cls-5, .cls-6 {
        stroke-linecap: round;
        stroke-linejoin: round;
      }

      .cls-1, .cls-2, .cls-3, .cls-5 {
        stroke: #000;
      }

      .cls-1, .cls-4 {
        fill: #76ac75;
      }

      .cls-2 {
        fill: #ff6d75;
      }

      .cls-3, .cls-6 {
        fill: none;
      }

      .cls-4 {
        stroke: #1d1d1b;
      }

      .cls-4, .cls-5 {
        stroke-width: 2px;
      }

      .cls-5 {
        fill: #d6d6d6;
      }

      .cls-6 {
        stroke: #fff;
        stroke-width: 8px;
      }
    </style>
  </defs>
  <polygon class="cls-4" points="110.28 25.14 103.72 31.09 55.44 23.56 62.54 18.1 110.28 25.14"/>
  <polygon class="cls-4" points="115.56 20.37 110.29 25.14 110.28 25.14 62.53 18.1 68.42 13.55 115.56 20.37"/>
  <polygon class="cls-4" points="103.72 31.09 103.72 110.35 103.08 111.21 58.26 102.76 55.98 44.36 55.44 23.56 103.72 31.09"/>
  <polygon class="cls-4" points="115.56 37.71 115.56 95.99 103.72 110.9 103.72 31.09 115.56 37.71"/>
  <polygon class="cls-4" points="118.14 39.14 115.56 37.71 103.72 31.09 110.28 25.14 110.29 25.14 115.56 34.55 118.14 39.14"/>
  <polygon class="cls-4" points="118.14 39.15 115.56 34.55 110.29 25.14 115.56 20.37 118.14 39.15"/>
  <path class="cls-5" d="m81.36,70.91c-.12.64-.56,1.25-1.29,1.82-.45.36-1.01.71-1.68,1.04,0,0,0,0,0,0-.1.06-.23.12-.39.18-.99.46-2.17.89-3.53,1.29-2.43-2.29-13.65-4.03-27.13-4.03-12.35,0-22.83,1.46-26.35,3.47-.19-.06-.37-.12-.56-.17h0s-.03,0-.04,0c-.08-.03-.15-.04-.23-.07-.99-.33-1.9-.67-2.71-1.02-.15-.06-.3-.13-.44-.21-2.18-1.02-3.48-2.14-3.68-3.31,3.14-3.08,17.02-5.42,33.69-5.42,18.45,0,33.53,2.87,34.34,6.44Z"/>
  <path class="cls-5" d="m81.37,71.02c0,.16,0,.31,0,.47-.54,17.61-8.79,32.59-20.34,39.41-9.62,3.83-19.18,3.94-28.67-.45-10.88-6.9-18.45-21.2-19.03-37.89-.04-.87-.04-1.75-.04-2.62,0,0,.02-.03.03-.04.21,1.17,1.5,2.29,3.68,3.31.14.07.29.14.44.21.81.35,1.71.69,2.71,1.02.08.03.15.04.23.07.02,0,.03,0,.04,0h0c.19.05.37.11.56.17.19.05.37.11.56.16.29.09.58.17.89.24.52.13,1.07.27,1.62.39h.02c.27.07.55.13.82.2.22.04.44.1.66.14h0c1.67.35,3.48.67,5.41.95h.02c3,.42,6.28.74,9.74.95.21.02.46.04.69.04.25.02.51.04.77.05.63.02,1.26.06,1.89.08h.28c.26.03.51.03.77.04.47,0,.93.02,1.42.03h.46s.19,0,.19,0c4.54.07,8.9-.06,12.86-.38,1.71-.13,3.36-.3,4.93-.5,1.14-.15,2.25-.3,3.3-.48,1.07-.18,2.09-.36,3.05-.58.47-.09.94-.21,1.39-.3.23-.05.47-.12.69-.18.04,0,.06-.02.09-.02.33-.09.65-.18.96-.27,1.36-.4,2.54-.83,3.53-1.29.15-.06.29-.12.39-.18,0,0,0,0,0,0,.66-.33,1.23-.68,1.68-1.04.73-.57,1.17-1.18,1.29-1.82,0,.04.02.07.02.11Z"/>
  <path class="cls-2" d="m74.47,75.26c-.3.09-.63.18-.96.27-.03,0-.05,0-.09.02-.22.05-.46.11-.69.16-.45.09-.91.21-1.39.29-.97.2-2,.37-3.07.54-1.06.17-2.17.31-3.31.46-1.58.19-3.24.35-4.96.49-3.95.31-8.28.48-12.78.49h-.64c-.48-.02-.94-.04-1.42-.04-.26,0-.51,0-.77-.04h-.28c-.63-.02-1.26-.06-1.89-.08-.26-.02-.52-.04-.77-.05-.23,0-.47-.02-.69-.04-3.46-.21-6.74-.53-9.74-.95h-.02c-1.93-.28-3.74-.6-5.41-.95h0c-.22-.04-.45-.1-.66-.14-.28-.06-.56-.13-.82-.2h-.02c-.56-.13-1.1-.26-1.62-.39-.3-.07-.6-.15-.89-.24-.2-.05-.38-.11-.56-.16,3.52-2.01,13.99-3.47,26.35-3.47,13.47,0,24.7,1.74,27.13,4.03Z"/>
  <g>
    <path class="cls-1" d="m95.08,45.46c-.02.1-.42.12-.77.08-.61-.07-1.09-.35-1.21-.44-.47-.29-.55-.5-.79-.47-.26.03-.51.31-.51.59,0,.2.14.34.19.39.19.2.36.15.5.3.16.18.11.47.07.68-.11.58-.5,1.07-.61,1.02-.08-.04.07-.32-.03-.77-.06-.28-.18-.47-.28-.63-.32-.5-.54-.45-.69-.8-.18-.42.05-.66-.15-.85-.19-.18-.55-.1-.96-.02-.3.06-.33.11-.67.21-.03.01-.06.02-.09.03-.6.17-.65.08-.84.21-.44.3-.43.96-.55.94-.06,0-.1-.19-.1-.35,0-.45.29-.78.51-1.04.28-.32.47-.54.8-.63.1-.03.26-.06.48-.1.09-.01.19-.03.29-.05.23-.04.37-.06.4-.15.01-.03.02-.11-.19-.33-.06-.07-.13-.14-.21-.21-.17-.15-.39-.3-.68-.34-.39-.05-.45.17-.89.16-.47-.01-.9-.28-.88-.41.01-.1.29-.06.82-.24.45-.15.43-.23.68-.29.49-.1,1.06,0,1.42.2.01,0,.02.01.03.02.34.2.44.44.61.59h0c-.11.46-.25.83-.25.83,0,0,.31.34.59.41.28.07.69-.04.69-.04,0,0,.06-.92.09-1.6.06-.11.12-.22.2-.33.22-.29.53-.42.67-.47.02,0,.04-.01.06-.02.34-.1.43.03.71-.08.41-.16.58-.55.63-.52.05.03-.06.25-.19.61-.11.31-.16.47-.19.57-.03.14-.04.17-.1.28-.23.38-.46.32-.87.84-.14.16-.36.44-.28.56.08.13.39-.08.78.06.28.1.46.33.61.52.17.22.13.25.27.43.36.47.87.52.85.64Z"/>
    <g>
      <path class="cls-2" d="m96.63,52.29c-1.5,2.34-4.17,2.8-4.88,2.93-3.81.66-7.9-1.69-9.92-5.27-.52-.93-1.72-6.85,4.43-8.86.38-.13,2.03-.62,4.15-.26h0c.12.12.24.25.35.36.05.05.08.11.11.18.14.34.05.91-.06,1.39-.17-.15-.27-.39-.61-.59-.01,0-.02-.01-.03-.02-.36-.2-.92-.3-1.42-.2-.25.05-.23.13-.68.29-.53.18-.81.14-.82.24-.02.13.41.39.88.41.44.01.49-.21.89-.16.29.04.5.18.68.34.08.07.15.14.21.21.21.22.2.3.19.33-.03.09-.18.11-.4.15-.11.02-.21.04-.29.05-.22.04-.38.07-.48.1-.33.1-.52.32-.8.63-.23.26-.52.59-.51,1.04,0,.15.04.34.1.35.12.01.11-.64.55-.94.19-.13.23-.04.84-.21.03,0,.07-.02.09-.03.35-.1.37-.15.67-.21.41-.09.77-.17.96.02.2.19-.03.44.15.85.15.35.36.3.69.8.1.15.22.35.28.63.1.45-.05.73.03.77.11.05.5-.44.61-1.02.04-.21.09-.5-.07-.68-.14-.15-.31-.1-.5-.3-.05-.05-.18-.19-.19-.39,0-.27.25-.55.51-.59.24-.03.32.18.79.47.13.08.61.36,1.21.44.35.05.75.02.77-.08.02-.11-.49-.17-.85-.64-.14-.18-.1-.21-.27-.43-.14-.18-.33-.42-.61-.52-.39-.14-.7.07-.78-.06-.08-.12.14-.4.28-.56.41-.51.64-.46.87-.84.07-.11.07-.15.1-.28.11.07.22.15.34.22.31.22.63.48.94.78.16.15.32.32.47.5.15.18.4.46.66.85.2.29.41.65.61,1.06.26.55.49,1.21.61,1.98.08.52.33,2.08-.3,3.73-.13.34-.3.7-.52,1.04Z"/>
      <path class="cls-2" d="m92.8,41.57c-.14.05-.45.18-.67.47-.08.11-.15.22-.2.33.02-.32.02-.59.02-.67,0-.1-.07-.3-.16-.52.3.1.64.23,1.01.4Z"/>
    </g>
    <path class="cls-1" d="m91.84,43.96s-.41.11-.69.04c-.28-.07-.59-.41-.59-.41,0,0,.13-.37.25-.83h0c.11-.48.2-1.05.06-1.39-.03-.07-.06-.13-.11-.18-.11-.11-.22-.23-.35-.36h0c-.39-.4-.82-.84-1.12-1.02-.03-.02-.06-.03-.09-.05-.08-.04-.15-.08-.23-.14.13-.12.27-.25.39-.32.21-.12.48-.17.76-.17.01,0,.02.01.03.02.14.07.33.21.52.38.29.25.58.53.65.64.06.08.18.31.29.58.06.13.12.27.17.41.09.22.15.42.16.52,0,.09,0,.35-.02.67-.03.68-.09,1.6-.09,1.6Z"/>
    <path class="cls-3" d="m89.28,39.82s-.06-.03-.09-.05c-.08-.04-.15-.08-.23-.14"/>
    <path class="cls-1" d="m79.96,44.93c.06.12-.37.5-.8.74-.75.44-1.53.52-1.74.54-.78.07-1.05-.1-1.3.14-.26.25-.31.79-.07,1.09.17.22.45.26.54.28.39.07.53-.14.82-.09.34.07.52.44.65.71.38.75.34,1.63.18,1.67-.12.02-.19-.42-.68-.85-.31-.26-.61-.38-.85-.46-.79-.29-.99-.05-1.45-.32-.56-.32-.51-.79-.89-.84-.37-.04-.71.35-1.1.8-.28.32-.27.4-.58.81-.02.04-.05.08-.08.11-.54.7-.66.65-.76.95-.23.71.33,1.45.19,1.53-.08.05-.28-.13-.41-.31-.38-.5-.34-1.12-.31-1.61.05-.59.08-1,.37-1.4.09-.12.24-.29.46-.53.09-.09.18-.2.29-.31.22-.24.36-.38.32-.51-.01-.04-.07-.15-.49-.22-.13-.02-.27-.04-.42-.06-.33-.03-.7,0-1.05.19-.48.28-.36.57-.87.93-.54.39-1.25.45-1.34.29-.07-.13.27-.32.72-.97.38-.55.29-.63.53-.9.47-.53,1.2-.9,1.77-.98.02,0,.04,0,.05,0,.56-.06.86.12,1.19.14h0c.27.62.43,1.15.43,1.15,0,0,.64.13,1.02-.03.38-.16.74-.64.74-.64,0,0-.72-1.09-1.26-1.88-.03-.17-.05-.35-.05-.54,0-.51.24-.92.36-1.1.02-.03.04-.05.05-.07.3-.4.51-.33.74-.7.33-.53.18-1.11.27-1.13.07,0,.15.33.3.85.14.44.22.66.28.81.08.18.11.23.12.41.06.62-.24.76-.27,1.69-.01.3-.03.8.17.88.2.07.36-.42.93-.6.41-.12.81-.02,1.13.07.38.1.37.17.67.26.81.22,1.43-.15,1.5,0Z"/>
    <g>
      <path class="cls-2" d="m87.52,51.33c.3,3.91-2.33,6.72-3.02,7.45-3.74,3.98-10.36,4.82-15.68,2.49-1.38-.6-7.77-6.27-2.54-13.76.33-.47,1.76-2.43,4.46-3.83h0c.24.03.48.07.69.11.09.02.18.05.27.11.44.27.84.99,1.12,1.62-.32-.02-.63-.21-1.19-.14-.02,0-.04,0-.05,0-.57.08-1.29.45-1.77.98-.24.27-.15.35-.53.9-.45.65-.79.85-.72.97.09.16.79.1,1.34-.29.51-.36.38-.65.87-.93.35-.2.72-.22,1.05-.19.15.01.29.03.42.06.42.07.48.18.49.22.04.13-.1.28-.32.51-.1.11-.2.22-.29.31-.22.24-.37.41-.46.53-.29.39-.32.8-.37,1.4-.03.49-.08,1.11.31,1.61.13.17.33.35.41.31.14-.08-.42-.82-.19-1.53.1-.3.22-.25.76-.95.03-.04.06-.08.08-.11.31-.41.3-.49.58-.81.39-.45.73-.84,1.1-.8.39.05.33.52.89.84.47.27.66.03,1.45.32.25.09.55.2.85.46.5.42.56.87.68.85.16-.04.19-.92-.18-1.67-.14-.27-.32-.65-.65-.71-.29-.06-.43.15-.82.09-.09-.02-.37-.06-.54-.28-.24-.3-.19-.84.07-1.09.24-.24.51-.07,1.3-.14.22-.02.99-.1,1.74-.54.43-.25.86-.62.8-.74-.07-.14-.69.22-1.5,0-.31-.08-.3-.15-.67-.26-.32-.08-.72-.19-1.13-.07-.57.17-.73.67-.93.6-.2-.07-.18-.57-.17-.88.03-.93.33-1.06.27-1.69-.02-.18-.05-.22-.12-.41.18-.02.37-.02.57-.03.54-.01,1.12.01,1.72.08.31.04.63.09.96.16.32.07.84.18,1.47.39.47.16,1.02.38,1.59.69.77.4,1.59.95,2.37,1.71.53.51,2.14,2.07,2.83,4.47.15.5.25,1.04.3,1.62Z"/>
      <path class="cls-2" d="m74.07,42.48c-.12.18-.36.59-.36,1.1,0,.2.02.37.05.54-.25-.38-.47-.68-.55-.78-.09-.11-.33-.27-.62-.45.42-.14.92-.29,1.48-.41Z"/>
    </g>
    <path class="cls-1" d="m75.02,46s-.37.47-.74.64c-.38.16-1.02.03-1.02.03,0,0-.16-.53-.43-1.14h0c-.28-.64-.67-1.35-1.12-1.62-.09-.05-.18-.09-.27-.11-.22-.03-.45-.07-.69-.11h0c-.78-.12-1.64-.25-2.13-.19-.05,0-.1.01-.14.02-.12.02-.25.04-.38.04.04-.25.1-.51.17-.7.13-.31.4-.59.72-.84.02,0,.03,0,.05,0,.22-.04.56-.04.91-.02.54.03,1.11.11,1.28.17.13.04.46.2.82.4.18.1.37.21.54.31.29.17.53.34.62.45.08.1.3.4.55.78.54.79,1.26,1.88,1.26,1.88Z"/>
    <path class="cls-3" d="m68.61,43.5c-.05,0-.1.01-.14.02-.12.02-.25.04-.38.04"/>
  </g>
  <path class="cls-3" d="m30.53,59.98c-1.6-1.35-2.68-3.34-2.59-5.47.15-3.32,2.54-4.77,4.44-7.06.65-.78,1.16-1.71,1.31-2.71.37-2.52-1.42-4.95-2.85-6.85"/>
  <path class="cls-3" d="m37.1,59.98c-1.6-1.35-2.68-3.34-2.59-5.47.15-3.32,2.54-4.77,4.44-7.06.65-.78,1.16-1.71,1.31-2.71.37-2.52-1.42-4.95-2.85-6.85"/>
  <path class="cls-3" d="m44.07,59.98c-1.6-1.35-2.68-3.34-2.59-5.47.15-3.32,2.54-4.77,4.44-7.06.65-.78,1.16-1.71,1.31-2.71.37-2.52-1.42-4.95-2.85-6.85"/>
  <g id="jkvMcz">
    <path class="cls-5" d="m30.38,73.99s0,0-.03,0c-.65-1.17-.83-1.68-.99-2.17-1.26-3.97-3.13-7.72-4.76-11.55-1.44-3.4-7.17-15-9.2-18.12-.37-.57-.82-1.12-1.29-1.61-.99-1.04-1.72-1.18-2.88-.65-1.17.55-1.5,1.17-1.33,2.56.14,1.12.53,2.18.94,3.22,2.41,6.08,10.02,19.89,13.31,25.52.55.92,1.05,1.85,1.61,2.77.04.06.07.13.1.19"/>
  </g>
  <path class="cls-5" d="m25.87,74.15h.09c1.79-.15,2.57-.19,4.36-.12h.06"/>
  <rect class="cls-6" x="-1319.68" y="-2049.43" width="3385.57" height="2571.67"/>
</svg>