<?xml version="1.0" encoding="UTF-8"?>
<svg id="Calque_1" data-name="Calque 1" xmlns="http://www.w3.org/2000/svg" viewBox="0 0 200.13 128.13">
  <defs>
    <style>
      .cls-1 {
        fill: #d6d6d6;
      }

      .cls-1, .cls-2, .cls-3, .cls-4, .cls-5, .cls-6 {
        stroke-linecap: round;
        stroke-linejoin: round;
      }

      .cls-1, .cls-2, .cls-3, .cls-4, .cls-6 {
        stroke: #000;
      }

      .cls-2 {
        fill: #b4eac3;
      }

      .cls-3, .cls-7 {
        fill: #fff;
      }

      .cls-4, .cls-5 {
        fill: none;
      }

      .cls-7 {
        stroke: #1d1d1b;
        stroke-miterlimit: 10;
      }

      .cls-5 {
        stroke: #fff;
        stroke-width: 8px;
      }

      .cls-6 {
        fill: #fce9b9;
        stroke-width: 1.09px;
      }
    </style>
  </defs>
  <path class="cls-6" d="m178.63,77.63c0-38.39-35.17-69.51-78.56-69.51S21.5,39.24,21.5,77.63v44.02h157.13v-44.02Z"/>
  <g>
    <path class="cls-3" d="m102.1,12.66s0,.06,0,.09c-.05.32-.11.68-.2,1.05-.02-.16-.16-1.55-1.62-3.6-.02-.04-.06-.09-.09-.13,0,0-.48.03-.83-.24-.6.11-1.23.06-1.64-.43-.77.75-1.41.21-1.51.11,0,0-.02-.01-.03-.01-.16.28-.39.52-.74.56-.24.03-.48-.04-.7-.18-.53.37-1.06.48-1.51.45l-.16.04c-.14.34-1.24,2.34-1.4,3.55,0,.24,0,.48.02.71,0,0-.02-.03-.05-.09,0,.08,0,.15.02.21h0v-.02c-.05-.12-.31-.71-.49-1.51,0,0,0-.02,0-.03-.35-1.62-.37-4.05,2.31-5.13,0,0,.17-.89,1.3-.75,0,0,1.31-1.43,2.89-.25,1.11-.31,1.4.54,1.4.54,3.03.71,3.22,3.45,3.05,5.07Z"/>
    <path class="cls-3" d="m101.65,17.57h0c.08-.03.65-.28.85-1.26.22-1.06.67-1.01.54-2.06-.13-.99-1.08-.4-1.18-.33"/>
    <path class="cls-4" d="m96.52,7.94s0,.92-.33,1.54h0"/>
    <path class="cls-4" d="m94.73,9.87c-.73-.42-1.22-1.49-1.22-1.49"/>
    <path class="cls-4" d="m100.86,9.24s-.71.42-1.51.57"/>
    <path class="cls-4" d="m91.67,13.91c-.03.23-.04.44-.03.63"/>
    <path class="cls-4" d="m100.31,10.35s1.56,2.27,1.56,3.57"/>
    <path class="cls-4" d="m91.63,14.5h0s0,.11.03.22h0s0,.02,0,.02"/>
    <path class="cls-4" d="m101.87,13.92v-.02"/>
    <path class="cls-4" d="m101.86,13.67s0,.08,0,.23"/>
    <path class="cls-4" d="m98.35,8.49c-.2.37-.39.64-.58.83-.02.03-.04.05-.06.06"/>
    <path class="cls-4" d="m96.2,9.49l-.02-.02"/>
    <g>
      <g>
        <path class="cls-3" d="m70.2,66.21c-.11-.39-.48-.63-.84-.8-.03-.01-.05-.03-.08-.04-.71-.34-1.43-.72-1.99-1.28-.07-.07-.14-.17-.21-.26-1.05-3.21-2.1-6.41-3.16-9.62-.45-1.37-1.17-2.84-1.15-4.28.01-1.55-.28-3.12-.44-4.65-.04-.42-.08-.84-.12-1.27-.2-2.21-.37-4.43-.77-6.62-.31-1.69-.74-5.19-2.97-5.45-.63-.08-1.3.16-1.74.63-.67.7-.76,1.77-.73,2.75.04,1.34.23,2.68.43,4,.23,1.54.66,3.16.73,4.71.17,3.5.84,6.78,2.03,10.08.9,2.49,1.99,4.91,3.13,7.29.55,1.14,1.19,2.23,1.88,3.29.03.04.05.07.08.09-.17.57.19,1.24.33,1.77.18.69.55,1.3.93,1.91.34.54.75,1.11,1.37,1.25.28.06.57-.28.81-.41.44-.25.9-.52,1.14-.97.06-.11.11-.24.1-.37,0-.2-.12-.37-.2-.55-.17-.38-.41-1.36.3-1.09.23.09.46.18.69.26.12.04.25.09.36.03.13-.07.15-.25.11-.39Z"/>
        <g>
          <path class="cls-3" d="m45.8,118.38s-1.72,2.27,0,2.53c1.72.26,6.18,0,6.18,0,0,0,1.36.46.17-2.71-.62-.05-1.24-.15-1.86-.2-1.5-.12-3.01.16-4.5.39-.6.09-1.31.14-1.72-.31-.16-.18-.25-.41-.32-.63-.26-.88-.28-1.81-.27-2.72.01-.91-.06-1.81-.09-2.72-.06-1.91-.05-3.83-.09-5.75-.06-2.88-.11-5.76-.17-8.64,0-11.36-.84-22.58-1.39-33.91-.04-.79-.09-1.76-.07-2.78,0-.12.01-.25.02-.38-.05-.77,0-1.53.14-2.29.01-.06.02-.12.04-.18.2-.97.55-1.9.89-2.83.51-1.38.83-3.05,1.36-4.33.48-1.18,2.2-1.2,3.37-1.38,3.16-.5,6.4-.43,9.57-.11.13.01.27.03.37.11.16.11.2.32.24.51.42,2.28.78,4.58,1.08,6.88.05.35.1.77.14,1.21.36,1.98.71,3.96,1.02,5.95.69,4.38,1.27,8.78,1.73,13.19.25,2.38.76,4.98.62,7.36,0,.07,0,.15-.02.22-.02.19-.03.38-.06.57-.15,1.22-.46,2.44-.81,3.64-.25.85-.53,1.69-.79,2.51-2.59,8.18-5.18,16.37-7.76,24.55,0,.34-.02.67-.02,1.01,0,.47.35,1.11-.36,1.08-.09,0-.18-.02-.27-.02"/>
          <line class="cls-3" x1="52.83" y1="116.13" x2="52.57" y2="64.94"/>
        </g>
        <path class="cls-2" d="m56.81,49.11c.69,0,7.8-.72,7.72-1.06-.97-4.41-2.15-8.77-3.56-13.06-.29-.9-.63-1.84-1.34-2.46-.32-.28-.71-.48-1.09-.68-.32-.17-.66-.34-1.02-.38-1.91-.26-2.18,3.36-2.24,4.6-.06,1.49.14,2.98.35,4.46.21,1.48.46,2.98.66,4.45.19,1.39.25,2.75.52,4.12Z"/>
        <path class="cls-3" d="m44.46,32.56c-.44-.46-1.1-.7-1.74-.63-2.44.29-2.93,4.67-3.26,6.49-.34,1.85-.66,3.71-.95,5.57-.21,1.32-.41,2.64-.6,3.96-.23,1.61-.44,3.23-.64,4.84-.03.2-.07.42-.09.63-.36.8-.58,1.69-.75,2.38-1.04,4.37-1.81,8.8-2.54,13.24-.03.21-.05.43-.04.65-.1.13-.19.27-.25.43-.73,1.86-.45,4.09.4,5.89.04.08.09.17.19.2.11.03.23-.04.28-.14s.04-.2.03-.3c.02.18.13.34.31.44.27.16.33-.11.3-.31-.05-.45-.09-.88-.15-1.32-.06-.46-.08-.93-.05-1.4.02-.32.04-.65.12-.96.04-.14.06-.37.26-.34.1.02.18.1.25.19.09.12.16.26.21.4.06.16.1.33.17.48.07.15.18.3.34.36.3.12.37-.17.32-.41,0-.02,0-.04-.01-.05-.03-.12-.08-.23-.12-.35-.12-.34-.19-.69-.2-1.05,0-.13.03-.24.04-.37,0-.18-.02-.37-.04-.54-.03-.21-.1-.4-.18-.59.96-2.57,1.86-5.19,2.97-7.69,1.11-2.49,2.04-5.08,2.81-7.7.06-.21.12-.43.17-.64.03-.06.05-.12.07-.18.52-1.47.8-3.02,1.07-4.56.57-3.28,1.11-6.58,1.6-9.87.2-1.33.39-2.66.43-4,.03-.97-.06-2.04-.73-2.75Z"/>
        <path class="cls-2" d="m39.98,34.12c-.95,1.6-1.46,3.66-1.93,5.17-.94,3.08-1.58,6.24-2.2,9.4.37.07.91.31,1.27.31.71.28,1.57.27,2.32.43,1.46.3,2.93.53,4.42.67.16-2.45.66-4.89.98-7.33.33-2.5.62-5.01.87-7.52.06-.57.11-1.16,0-1.72s-.4-1.12-.9-1.42c-.65-.39-1.95-.43-2.65-.11-.92.42-1.62,1.2-2.18,2.12Z"/>
        <path class="cls-2" d="m60.54,38.53c-.15,1.1-.37,2.2-.51,3.23-.3,2.15-.63,4.29-.99,6.42-.14.84-.16,1.67-.4,2.5-.05.17-.11.35-.25.47-.15.13-.36.15-.55.17-.71.06-1.42.1-2.13.14-3.44.19-6.88.38-10.32.29-.39,0-.79-.03-1.13-.21-.61-.34-.81-1.1-.95-1.78-.65-3.23-.66-6.75-1.98-9.78-.25-.56-.46-1.04-.88-1.47-.62-.65-.7-1.29-.7-2.22-.03-3.11,3.18-5.15,5.82-5.96.64-.19,1.29-.34,1.96-.45,1.26-.21,2.55-.26,3.84-.19,1.1.06,2.2.16,3.25.46.04.01.08.02.11.03,1.83.54,4.28,1.3,5.27,3.08.4.72.53,1.56.62,2.39.11.93.04,1.9-.09,2.88Z"/>
        <path class="cls-3" d="m43.22,53.83s10.88.83,15.08-.33"/>
        <path class="cls-3" d="m46.37,54.01s-.06,4.86-4.65,5.18"/>
        <path class="cls-3" d="m55.1,53.98s.21,5.64,4.04,5.5"/>
        <path class="cls-4" d="m57.25,18.89s.98-2.49.43-4.25c-.68-2.13-2.65-1.9-2.65-1.9-1.3-1.58-6.07-1.94-10.01.99-2.88,2.14-1.95,5.04-.69,6.71"/>
        <path class="cls-4" d="m43.39,18.95s-.42,2.22.91,3.72c1.17,1.31,2.2,3.05,2.63,4.7"/>
        <path class="cls-3" d="m52.79,26.95c.43.18,2.32.38,3.99.08,1.76-.32,1.39-1.54,1.37-3.43-.03-1.86.82-2.11.79-2.58-.04-.48-1.74-1.13-1.94-3.16-.02-.22-.05-.42-.1-.63-.36-1.64-1.4-2.54-2.02-2.99,0,0-1.46,3.57-1.79,4.15-.33.58-1.45,2.32-2.5,2.09-.95-.21-1.83-.79-2.53-.18-.71.6-.55,2.26.43,2.68,0,0-.69,1.76-.89,2.93l-2.02,4.43s6.4,4.21,9.05-.19l-1.84-3.2Z"/>
        <line class="cls-4" x1="48.96" y1="21.42" x2="49.43" y2="21.54"/>
      </g>
      <g>
        <path class="cls-3" d="m73.14,114.58s-.26,2.27-.26,2.66v.39s.19.39.19.39l.07.16-1.36,1.91s-5.46.08-5.58.08.73-1.32.73-1.32c0,0,1.81-1.36,2.13-2.31.32-.95-.28-2.94-.28-2.94l4.35.99Z"/>
        <path class="cls-3" d="m99.44,100.98s1.94,1.21,2.25,1.45l.3.24.19.39.08.16,2.34.12s3.46-4.22,3.53-4.32c.08-.1-.99.14-.99.14,0,0-2.18.3-3.13-.04-.95-.34-2.87-2.23-2.87-2.23l-1.69,4.09Z"/>
        <path class="cls-3" d="m81.78,79.66l20.94,17.83-3.23,4.56s-21.52-13.36-22.64-13.51c-1.13-.15-2.04.37-2.25,1.19-.21.82-.76,25.48-.76,25.48h-5.59s-2.91-31.04-2.91-31.04l16.44-4.51Z"/>
        <path class="cls-7" d="m52.26,54.57c-1.5-1.09-4.93-5.17-6.1-6.56,0-.16-.08-1.06-1.01-2.26-.66-.84-1.1-2.72-1.58-2.22-.48.5.58,2.03.06,2.01-.52-.02-2.96-3.05-3.4-2.6-.44.45,2.06,3.17,1.59,3.15-.47-.01-2.47-2.74-3.09-2.1-.62.64,2.65,2.99,2.32,3.33-.33.34-2.36-1.19-2.86-.67-.5.52,2.86,1.96,2.59,1.95-.27,0-2.25-.16-2.28.22-.04.43,4.95,1.35,5.53,2.13h0c1.21,2.15,3.35,6.09,5.63,7.88,2.79,2.19,9.26,6.87,9.26,6.87l3.54-4.12s-8.42-5.72-10.19-7.01Z"/>
        <path class="cls-3" d="m82.31,49.53c1.23-1.39,3.72-6.11,4.56-7.71-.03-.15-.15-1.06.51-2.42.46-.97.49-2.89,1.07-2.5s-.14,2.1.37,1.98c.51-.13,2.24-3.61,2.77-3.26.53.35-1.34,3.53-.88,3.42.45-.11,1.83-3.2,2.57-2.71.74.49-1.95,3.48-1.56,3.75.4.27,2.05-1.66,2.65-1.26.6.4-2.38,2.53-2.12,2.46.27-.07,2.16-.64,2.28-.27.13.41-4.55,2.37-4.95,3.26h0c-.72,2.36-1.98,6.66-3.83,8.9-2.26,2.74-7.59,8.69-7.59,8.69l-4.33-3.28s7.01-7.38,8.47-9.02Z"/>
        <path class="cls-2" d="m78.8,52.7l3.91,5.1-4.85,7.22s.46,5.36,1.16,7.04c.7,1.67,4.75,8.55,4.75,8.55,0,0-9.83,6.03-19.45,5.14,0,0-2.71-13.94-3.47-15.28-.76-1.34-8.1-7.97-8.1-7.97l3.56-5.75,6.15,3.41s11.24-1.82,11.78-2.36c.54-.54,4.56-5.1,4.56-5.1Z"/>
        <path class="cls-3" d="m59.54,51.03c-1.82,3.49.9,4.14.9,4.14,1.2,3.57,5.16,2.42,5.16,2.42,0,0,.57.59,2.79.93,2.23.35,2.96-1.14,2.96-1.14,4.89-.26,3.94-4.44,3.94-4.44,2.17-4.45-1.26-6.17-1.26-6.17.59-3.53-2.82-3.19-2.82-3.19-1.3-3.33-5.09-1.32-5.09-1.32-4.27-1.74-4.77,2.88-4.77,2.88-4.18,1.37-1.81,5.88-1.81,5.88Zm3.43-.13c.23-.09.49-.06.73.07-.1-.97,0-1.92.17-2.71,4.97.44,6.62-3.39,6.62-3.39,1.31.77,2.1,2.22,2.51,3.8.18-.17.39-.3.62-.31.62-.03,1.15.69,1.19,1.61.04.91-.42,1.68-1.04,1.7-.14,0-.27-.02-.38-.09-.04,3.3-2.85,6.69-6.69,4.44-1.04-.61-1.75-1.42-2.23-2.31-.1.13-.23.24-.38.3-.59.21-1.3-.32-1.61-1.17-.31-.87-.1-1.73.48-1.94Z"/>
        <path class="cls-3" d="m62.48,52.83c.31.86,1.02,1.39,1.61,1.17.14-.06.28-.16.38-.3.48.9,1.19,1.7,2.23,2.31,3.84,2.25,6.65-1.14,6.69-4.44.12.07.24.1.38.09.62-.03,1.08-.79,1.04-1.7-.05-.91-.58-1.64-1.19-1.61-.22,0-.43.13-.62.31-.41-1.58-1.2-3.03-2.51-3.8,0,0-1.66,3.83-6.62,3.39-.18.8-.27,1.74-.17,2.71-.24-.13-.5-.15-.73-.07-.58.2-.79,1.07-.48,1.94Z"/>
        <path class="cls-3" d="m70.48,56.01c0,.06.49,2.18.75,3.3.1.42-.11.84-.5,1.02-1.04.48-3.09,1.14-4.51-.14-.13-.12-.2-.29-.19-.46l.17-5.06,4.28,1.34Z"/>
        <path class="cls-3" d="m62.48,52.83c.31.86,1.02,1.39,1.61,1.17.14-.06.28-.16.38-.3.48.9,1.19,1.7,2.23,2.31,3.84,2.25,6.65-1.14,6.69-4.44.12.07.24.1.38.09.62-.03,1.08-.79,1.04-1.7-.05-.91-.58-1.64-1.19-1.61-.22,0-.43.13-.62.31-.41-1.58-1.2-3.03-2.51-3.8,0,0-1.66,3.83-6.62,3.39-.18.8-.27,1.74-.17,2.71-.24-.13-.5-.15-.73-.07-.58.2-.79,1.07-.48,1.94Z"/>
        <path class="cls-3" d="m74.13,121.47c.83-.11-.61-3-1.07-3.46l-6.13.83s-2.95,1.37-3.65,2.07c-.17.17-.19.46.53.56,2.31.34,8.47.23,10.32,0Z"/>
        <path class="cls-3" d="m104.28,106.09c-.72.43-2.03-2.38-2.1-3.03l4.95-3.9s3.82-1.1,4.59-.32c.7.7-5.81,6.28-7.44,7.26Z"/>
      </g>
      <g>
        <path class="cls-3" d="m105.61,117.33c-.13-.91.16-2.47.87-4.92-1.41,0-2.59-.62-4.03-.6-.39,2.3-1,6.07-1,6.07l-.07,2.98,10.02.08s-.08.04-3.04-1.82c-.22-.14-2.63-.92-2.75-1.8Z"/>
        <path class="cls-3" d="m101.33,121.64h10.35c.38-.03.48-.35.34-.54-.27-.4-2.29-1.35-3.65-1.98-2.38.25-6.56-.73-6.94-1.28-.65,1.83-.32,3.75-.1,3.8Z"/>
      </g>
      <g>
        <path class="cls-3" d="m93.13,117.33c-.13-.91-.34-2.05-.03-5.07-1.41,0-2.75-.26-4.19-.24,0,2.36.05,5.87.05,5.87l-.07,2.98,10.02.08s-.08.04-3.04-1.82c-.22-.14-2.63-.92-2.75-1.8Z"/>
        <path class="cls-3" d="m88.85,121.64h10.35c.38-.03.48-.35.34-.54-.27-.4-2.29-1.35-3.65-1.98-2.38.25-6.56-.73-6.94-1.28-.65,1.83-.32,3.75-.1,3.8Z"/>
      </g>
      <path class="cls-3" d="m102.85,49.27l-3.06,4.68-10.45-3.04,15.35,38.7s-1.25,3.93-1.66,5.9c-.43,2.06-1.47,19.7-1.47,19.7l4.74.08s4.5-18.79,5.27-24.89c.93-7.4-4.71-25.04-4.71-25.04-1.05-3.6-1.28-13.77-1.28-13.77,0,0-2.59-2.01-2.72-2.32Z"/>
      <path class="cls-3" d="m87.87,53.76c-2.5,6.61-1.07,13-.39,16.29,0,0,1.86,14.24,2.2,19.55.12,1.92-.71,5.38-1.13,7.72-.37,2.07-.24,17.4-.24,17.4l5.04.1,4.05-25.15,1.12-25.36"/>
      <line class="cls-3" x1="100.41" y1="51.59" x2="92.21" y2="48.67"/>
      <path class="cls-2" d="m107.8,62.08l-3.27-28.79c1.69.78,4.74,1.95,4.74,1.95l1.74-5.5c-6.14-3.49-9.79-3.41-12.23-3.61-1.46-.12-2.7-1.37-4.2-.96-5.68,1.55-8.36-1.04-13.43,12.65,0,0,3.86,1.73,5.24,2.29.59-1.69,1.67-5.07,2.3-3.14l-3.55,25.12s10.61,1.42,22.67,0Z"/>
      <path class="cls-3" d="m97.16,55.34c.07,0,.38-.03.64-.03.35,0,.66.06.66.06,0,0,.14-.12.4-.24.11-.05.29-.07.41-.13.13-.06.23-.17.35-.22.31-.14.6-.17.7,0,.08.14-1.66,1.2-1.66,1.2-1.61,0-3.3.83-7.04-1.61-2.13-.93-12.49-6.05-12.7-7.17-.12-.63,1.47-5.47,2.77-9.15,1,.45,3.13,1.4,4.32,1.9-1.09,2.32-2.38,5.39-2.25,5.76.03.1.16.27,7.17,4.86.18.11.36.23.54.35.49.32,1.02.67,1.58,1.03l2-.21s3.16.22,3.26.58c.04.16-.22.25-.54.29h0s-.09.01-.14.02h0c-.35.04-.71.05-.8.08-.1.03-.3.11-.48.23,1.97.81,1.82.52,2.47.48.16-.01.34.03.49.02.27-.02.48-.18.68-.19.3-.02.54.12.6.18.07.07-.06.17-.31.28-1.52.66-2.78.41-3.19.51-.27.07.22.17,1,.09.19-.02.45.05.7,0,.17-.04.33-.15.49-.19.15-.04.31-.03.44-.06.17-.03.41-.16.54-.18.51-.06.75.03.81.08.12.1-2.18.99-2.18.99,0,0-1.58.23-1.94.23,0,0-.21.09.2.16Z"/>
      <path class="cls-3" d="m99.8,26.16c-.24.11-.48.18-.73.25-2.06.49-4.41-.39-5.2-.72l.25-3.5.03-.39,5.41-1.04.14,1.12.46,3.81c-.03.07-.04.15-.07.21-.02.04-.03.09-.04.12,0,.02,0,.04-.02.05h0l-.21.1Z"/>
      <path class="cls-3" d="m92.43,18.32h0c-.09-.02-.68-.17-1.03-1.12-.38-1.02-.82-.9-.85-1.95-.03-.99,1-.56,1.12-.51"/>
      <path class="cls-3" d="m101.87,13.92c.02.59.03,2.1-.22,3.65-.2,1.3-.59,2.63-1.3,3.5-1.64,2.01-2.71,2.05-2.87,2.03-.17.04-1.29.22-3.24-1.52-.83-.74-1.42-2.01-1.82-3.25-.48-1.51-.7-3-.77-3.57h0c0-.07-.02-.14-.02-.22.03.06.05.09.05.09-.02-.23-.03-.48-.02-.71.16-1.21,1.26-3.21,1.4-3.55l.16-.04c.45.03.98-.08,1.51-.45.22.14.45.21.7.18.35-.04.59-.27.74-.56,0,0,.02.01.03.01.1.1.73.65,1.51-.11.41.49,1.05.54,1.64.43.35.27.83.24.83.24.03.04.07.09.09.13,1.46,2.06,1.6,3.45,1.62,3.6.09-.37.15-.72.2-1.05-.08.62-.19,1.06-.22,1.16h0v.02Z"/>
      <path class="cls-3" d="m119.77,40.44l-10.5-5.2,1.74-5.5,9.01,4.83s-.42,2.58-.24,5.87Z"/>
      <g>
        <path class="cls-3" d="m133.01,18.01v.03c-.19.84-.47,1.46-.52,1.58h0s0,.03,0,.03c0-.07.02-.14.02-.22-.03.06-.05.09-.05.09.02-.25.03-.51.02-.75-.17-1.26-1.32-3.37-1.46-3.72l-.18-.04c-.47.03-1.03-.09-1.58-.47-.23.14-.47.21-.73.18-.36-.03-.61-.28-.77-.59,0,0-.02.02-.03.02-.11.1-.76.68-1.58-.12-.43.52-1.1.57-1.72.45-.37.28-.88.25-.88.25-.03.04-.07.1-.09.14-1.53,2.15-1.67,3.61-1.68,3.77-.06-.23-.11-.44-.15-.65-.02-.16-.05-.3-.07-.45,0-.02,0-.05,0-.09-.19-1.7.02-4.56,3.19-5.32,0,0,.31-.88,1.47-.56,1.65-1.23,3.03.27,3.03.27,1.18-.15,1.36.77,1.36.77,2.81,1.15,2.8,3.69,2.42,5.39Z"/>
        <path class="cls-3" d="m122.01,22.6h0c-.09-.03-.68-.29-.89-1.32-.23-1.11-.7-1.06-.57-2.16.13-1.03,1.13-.42,1.24-.34"/>
        <path class="cls-3" d="m112.03,117.51l.85-.63.63-5.49s4.86.77,4.86.84-.49,5.14-.49,5.14l.35,1.41-3.59.28-2.04-.49-.57-1.06Z"/>
        <polygon class="cls-3" points="136.6 118.88 136.82 113.57 131.24 113.5 132.28 118.65 134.1 120.37 136.6 118.88"/>
        <path class="cls-3" d="m130.24,122.41c.14-.45,1.64-3.1,2-3.76.73.31,1.44.49,2.24.49.73,0,1.54-.07,2.13-.51.37.52.83,1.24,1.17,1.82.31.53.75,1.08.97,1.67.22.6.12,1.28-.35,1.67-1.57,1.3-5.98,1.62-7.87.18-.57-.43-.38-1.25-.28-1.55Z"/>
        <path class="cls-3" d="m106.07,122.34c.9.16,1.87.09,2.78.09,2.61,0,5.22-.13,7.84-.25.42-.02.84-.04,1.22-.21.3-.13.56-.36.73-.63.11-.17.19-.36.21-.56,0-.07,0-.14,0-.21-.02-.28-.12-.55-.22-.81-.19-.48-.27-.83-.46-1.31-2.07,0-4.14-.39-6.14-.93-.2.1-.4.2-.6.3l-3.47,1.75c-.47.24-.94.47-1.41.71-.11.06-.22.11-.34.17-.33.17-.8.27-1.05.58-.05.07-.1.15-.13.24-.2.69.45.98,1.02,1.08Z"/>
        <path class="cls-3" d="m112.54,114.28s1.77.72,3.87,1.02c2.1.29,2.25.04,2.25.04l3.82-25.27s1.08-2.78,2.51-6.53c.11-.29.23-.59.34-.9.5-1.28,1.02-2.65,1.55-4.04-.05,4.09-.1,8.15-.15,12.06l4.3,25.87c1.67.6,1.79.57,3.59.57,1.66,0,1.66-.04,3.16-.63-.68-9-1.88-25.58-1.88-25.58,0,0,3.78-17.5,2.87-26.57-.44-4.38-2.39-7.95-3.73-10.34-.85.71-2.25,1.29-3.3,1.54-1.74.43-2.45.5-4.19.43-.28-.03-.56-.05-.81-.07-2.53-.28-4.15-.57-4.15-.57,0,0-3.51,7.79-4.93,12.46-1.41,4.64-3.66,22.73-3.66,22.73l-1.48,23.78Z"/>
        <path class="cls-3" d="m123.95,31.6c.25.11.51.19.76.26,2.16.51,4.62-.4,5.45-.75l-.26-3.67-.03-.41-5.67-1.09-.15,1.18-.48,3.99c.03.07.05.16.07.22.02.05.03.09.05.13,0,.02,0,.04.02.06h0l.22.1Z"/>
        <g>
          <path class="cls-3" d="m109.63,68.09c-.02.18-.02.36-.01.54,0,.48.03.96.04,1.44,0,.21,0,.42-.06.62s-.18.39-.37.48-.44.06-.57-.1c-.11-.14-.11-.34-.11-.52,0-.24.02-.48.02-.72.01-.32.02-.65.05-.97.05-.65.18-1.33.59-1.85.13-.16.75-.58.75-.11,0,.18-.15.39-.2.56-.07.21-.11.42-.13.64Z"/>
          <path class="cls-3" d="m109.25,68.4c-.02.18-.02.36-.01.54,0,.48.03.96.04,1.44,0,.21,0,.42-.06.62s-.18.39-.37.48-.44.06-.57-.1c-.11-.14-.11-.34-.11-.52,0-.24.02-.48.02-.72.01-.32.02-.65.05-.97.05-.65.18-1.33.59-1.85.13-.16.75-.58.75-.11,0,.18-.15.39-.2.56-.07.21-.11.42-.13.64Z"/>
          <path class="cls-3" d="m113.94,61.79c-.05-.27-.89-.48-1.27-1.02-1.18.69-3.16,4.46-3.65,5.45-.33.67-.67,1.37-.82,2.11-.15.78-.18,1.58-.22,2.38,0,.12-.01.25.03.37.07.21.35.35.54.2.42-.32.45-.98.49-1.46.04-.45.05-.9.16-1.34.11-.43.34-.78.62-1.12.21-.24,1.25-1.62,1.36-1.51.11.11.46.7.43.84-.03.16-.1.31-.17.45-.12.25-.27.5-.32.78,0,.05-.01.09-.02.14-.02.51.49,1.13.93.57.09-.12.16-.26.22-.4.31-.66.76-1.25.94-1.95.12-.45.19-.91.26-1.37.26-1.73.64-2.31.48-3.12Z"/>
          <path class="cls-3" d="m110.71,66.37c.06-.09.13-.18.2-.26.13-.15.27-.28.46-.35.18-.06.41-.03.53.11.11.12.12.3.1.46-.06.39-.32.72-.56,1.05-.12.17-.24.34-.31.53.05-.28.2-.53.32-.78.07-.15.14-.3.17-.45.03-.13.09-.31-.02-.42-.11-.1-.32-.13-.45-.11-.16.02-.31.11-.43.21Z"/>
        </g>
        <path class="cls-4" d="m127.39,12.51s0,.96.35,1.62h0"/>
        <path class="cls-4" d="m129.26,14.53c.76-.44,1.28-1.56,1.28-1.56"/>
        <path class="cls-3" d="m131.67,23.38h0c.09-.02.72-.18,1.08-1.17.4-1.07.85-.94.9-2.05.03-1.04-1.05-.59-1.17-.53"/>
        <path class="cls-4" d="m122.85,13.88s.75.44,1.58.6"/>
        <path class="cls-3" d="m132.48,19.64h0c-.08.61-.31,2.16-.81,3.74-.41,1.31-1.04,2.63-1.91,3.41-2.04,1.82-3.21,1.64-3.39,1.6-.17.02-1.28-.03-3.02-2.12-.74-.9-1.15-2.3-1.36-3.66-.25-1.64-.24-3.21-.23-3.82h0s0,0,0-.02h0c-.02-.09-.1-.36-.17-.77.04.21.09.42.15.65,0-.16.16-1.62,1.68-3.77.02-.04.06-.1.09-.14,0,0,.51.03.88-.25.63.12,1.29.07,1.72-.45.81.79,1.47.22,1.58.12,0,0,.02,0,.03-.02.17.3.41.56.77.59.26.03.51-.04.73-.18.55.38,1.11.5,1.58.47l.18.04c.14.35,1.29,2.46,1.46,3.72,0,.24,0,.5-.02.75,0,0,.02-.03.05-.09,0,.08,0,.15-.02.22Z"/>
        <path class="cls-4" d="m132.47,18.76c.03.24.04.46.03.66"/>
        <path class="cls-4" d="m123.42,15.03s-1.63,2.37-1.63,3.74"/>
        <path class="cls-4" d="m132.52,19.38h0s0,.11-.03.23h0s0,.03,0,.03"/>
        <path class="cls-4" d="m121.78,18.78v-.02"/>
        <path class="cls-4" d="m121.79,18.51s0,.09,0,.24"/>
        <path class="cls-4" d="m125.47,13.09c.21.38.41.67.61.87.02.03.04.06.07.07"/>
        <path class="cls-4" d="m127.72,14.14l.02-.02"/>
        <line class="cls-3" x1="126.89" y1="78.59" x2="127.14" y2="67.53"/>
        <path class="cls-2" d="m138.61,47.14c-.83-.87-1.6-1.79-2.3-2.75-.04.41-.02,1.31.04,2.44.09,2.27.3,5.5.43,7.55-.49.71-.94,1.44-1.36,2.18-.27.46-.3,1.02-.09,1.51.03.06.06.14.09.2-.04.02-.06.03-.1.04-3.94,1.26-8.24,1.41-12.27.48-.82-.18-1.67-.45-2.18-1.16-.08-.12-.17-.25-.22-.39-1.05,1.31-2.16,2.59-3.35,3.8-1.01,1.02-2.58,1.25-3.85.57-.95-.51-1.49-1.47-1.49-2.46,0-.47.12-.95.38-1.39.71-1.21,1.44-2.35,2.26-3.52.45-.64,1.29-1.73,1.75-2.32.2-.26.3-.59.29-.92-.14-2.27-1.31-12.23,1.46-16.01.09-.13.17-.28.28-.4,1.19-1.2,3.56-2.65,5.06-3.25.1.06.2.12.3.17h0l.22.1c.25.11.51.19.76.26,2.16.51,4.62-.4,5.45-.75.19-.08.29-.14.29-.14,1.35.17,2.68.47,3.98.9,1.42.48,2.66,1.04,3.83,1.98,1.19.97,2.24,2.09,3.25,3.25.49.56.96,1.13,1.43,1.71.23.28.46.55.69.84"/>
        <path class="cls-3" d="m123.42,31.32c.1.06.2.12.3.17h0c.07.04.15.07.22.1.25.11.51.19.76.26l-.81-.33-.2-.08-.28-.12Z"/>
        <path class="cls-4" d="m119.09,44.43c.05,1.31.85,9.64,1.07,10.95.13.76.25,1.59.71,2.23.51.71,1.36.97,2.18,1.16"/>
        <path class="cls-3" d="m127.31,62.86s2.68-1.27,2.68-1.27c.4-.19.8-.35,1.19-.55.2-.1.39-.22.56-.35.16-.12.37-.29.07-.32-.2-.02-.41,0-.6.03-.31.02-.65.05-.95-.03-.17-.04-.34-.14-.41-.31-.09-.21.02-.46.2-.6,0,0,.01-.01.02-.02.19-.14.43-.19.66-.23.75-.14,1.52-.17,2.26-.36.42-.11.8-.29,1.24-.36.36-.05.72-.07,1.08-.05l.48-.53s-.02-.04-.02-.04c.15-.17.3-.34.45-.51.61.96,1.22,1.91,1.83,2.86-.38.3-.62.48-.63.47,0,0,0,0,0-.01-.26,1.34-1.21,2.72-2.3,3.39-.11.07-.23.13-.32.23-.07.07-.12.16-.17.25-.3.51-.58,1.03-.84,1.56-.16.33-.37,1.13-.84,1.14-.32,0-.54-.34-.4-.63.26-.51.53-1.03.8-1.53.1-.19.22-.37.3-.57.02-.06.1-.21.06-.28-.2-.36-.69.31-.82.45-.23.27-.47.54-.71.8-.34.38-.68.75-1.02,1.12-.22.23-.49.68-.87.51-.26-.11-.35-.47-.15-.68.11-.12.22-.23.33-.35.02-.04.04-.09.08-.13.37-.42.72-.86,1.07-1.3.17-.22.34-.44.51-.67.07-.09.5-.44.35-.57-.17-.16-.63.34-.75.42-.34.23-.68.46-1.02.69-.46.31-.9.63-1.36.93-.28.19-.77.66-1.11.34-.18-.17-.17-.49.02-.65.02-.02.04-.05.06-.07.57-.56,1.22-1.03,1.85-1.52.31-.24.62-.47.92-.73.16-.13.31-.26.46-.4.06-.06.24-.17.17-.27-.07-.09-.28,0-.36.03-.21.08-.4.23-.6.31-.35.13-.71.26-1.06.38-.49.18-.98.36-1.47.55-.29.11-.73.43-1.03.16-.21-.19-.17-.6.1-.73Z"/>
        <path class="cls-2" d="m138.61,47.14c.73.77,1.48,1.51,2.24,2.23-1.55,1.63-2.91,3.28-4.07,5-.49.71-.94,1.44-1.36,2.18-.27.46-.3,1.02-.09,1.51.03.06.06.14.09.2.31.74.66,1.45,1.08,2.14.34.56,1.05.77,1.65.5,2.12-.98,4.11-2.31,5.91-3.78,1.52-1.24,3.06-2.59,4-4.34,1.57-2.92.4-6.26-1.23-8.88-.93-1.51-2.06-2.9-3.19-4.27"/>
        <line class="cls-4" x1="140.85" y1="49.37" x2="143.64" y2="46.9"/>
        <line class="cls-1" x1="126.11" y1="31.86" x2="126.88" y2="59.15"/>
        <line class="cls-1" x1="127.45" y1="34.93" x2="124.46" y2="34.93"/>
      </g>
      <g>
        <path class="cls-3" d="m153.72,56.97c-7.54,1.01-4.83-7.87-4.1-9.04.73-1.18-.08-.95,1.42-3.31,1.5-2.35,3.82-1.51,3.82-1.51,1.22-.57,5.51-.66,6.52,1.69,1.01,2.35,1.97,3.68,3.1,5.88,0,0,2.22,5.54-6.1,7.29"/>
        <path class="cls-3" d="m144.75,108.98s-.48,7.29-1.56,8.62c-1.08,1.32-4.88,4.16-3.75,4.19,1.13.03,9.23-1.2,8.77-2.51-.46-1.31-.84-2.12-.84-2.12l1.25-5.37-3.87-2.8Z"/>
        <path class="cls-3" d="m157.06,115.55s.18,1.8.18,2.59-.74,3.02-.4,3.36c.34.34,10.1.3,10.1-.02,0-.32-1.72-1.3-4.07-1.96-2.34-.67-3.14-3.26-2.53-4.76l-3.29.79Z"/>
        <path class="cls-3" d="m148.95,83.81l-1.45,1.83s-1.01,5.59-1.06,5.96c-.07.51-2.78,21.87-2.78,21.87l4.66.8s2.85-9.22,3.05-12.29c.2-3.06,5.22-16.62,5.22-16.62l-7.63-1.56Z"/>
        <path class="cls-3" d="m154.2,88.71l2.13,27.25h4.93s1.77-20.4,1.16-27.56l-8.22.3Z"/>
        <path class="cls-2" d="m162.85,61.26s-3.13-.82-6.7-1.02c-1.84-.1-4.32.29-4.32.29,0,0-2.25,5.05-2.92,9.19-.67,4.14-4.32,17.41-4.32,17.41,0,0,7.43,5.72,18.26,1.95v-27.82Z"/>
        <path class="cls-3" d="m154.41,56.74s.1,3.23-.21,3.53c-.3.3-.73.81-.28,1.58.45.77,2.38.28,3.29-.16.87-.42,1.43-1.21,1.43-1.21l-.45-5.12-3.77,1.38Z"/>
        <path class="cls-3" d="m152.02,55.16c1.54,2.8,3.5,2.11,4.32,1.83.81-.29,2.41-.91,3.23-3.53.07-.23.13-.48.17-.76.06.31.23.59.63.63.96.1,1.86-2.77.69-3.14-.76-.24-1.06.46-1.18.99,0-2.76-1.17-6.08-4.7-5.67,0,0-1.82-.04-2.75,1.38-.93,1.42-1.94,5.48-.4,8.28Z"/>
        <path class="cls-3" d="m162.85,61.26s1.42.12,1.58,2.89c.06,1.09,2.85,16.94-1.64,20.57l.06-23.46Z"/>
        <line class="cls-4" x1="161.61" y1="118.86" x2="157.25" y2="118.14"/>
        <line class="cls-4" x1="147.37" y1="117.15" x2="143.67" y2="116.53"/>
      </g>
      <polygon class="cls-3" points="151.83 60.53 138.85 62.09 139 65.3 150.03 65.3 151.83 60.53"/>
    </g>
  </g>
  <rect class="cls-5" x="-627.66" y="-326.12" width="1466.44" height="999.05"/>
</svg>