<?xml version="1.0" encoding="UTF-8"?>
<svg id="Calque_1" data-name="Calque 1" xmlns="http://www.w3.org/2000/svg" viewBox="0 0 260 128">
  <defs>
    <style>
      .cls-1 {
        fill: #fff;
      }

      .cls-1, .cls-2, .cls-3, .cls-4, .cls-5, .cls-6, .cls-7, .cls-8, .cls-9, .cls-10, .cls-11, .cls-12, .cls-13, .cls-14, .cls-15 {
        stroke: #000;
      }

      .cls-1, .cls-2, .cls-3, .cls-16, .cls-15 {
        stroke-linecap: round;
        stroke-linejoin: round;
      }

      .cls-2, .cls-16, .cls-14 {
        fill: none;
      }

      .cls-3, .cls-13 {
        fill: #fab0b4;
      }

      .cls-17 {
        fill: #f3babd;
      }

      .cls-18, .cls-7 {
        fill: #f3d587;
      }

      .cls-19, .cls-5 {
        fill: #f387d5;
      }

      .cls-20 {
        fill: #f37f83;
      }

      .cls-21, .cls-6 {
        fill: #ffd4ad;
      }

      .cls-22 {
        fill: #a0d0f4;
      }

      .cls-23, .cls-8 {
        fill: #afaff9;
      }

      .cls-24, .cls-9 {
        fill: #87f3b9;
      }

      .cls-25, .cls-11 {
        fill: #76ac75;
      }

      .cls-26, .cls-12 {
        fill: #77eddf;
      }

      .cls-4 {
        fill: #ff6d75;
      }

      .cls-4, .cls-5, .cls-6, .cls-7, .cls-8, .cls-9, .cls-10, .cls-11, .cls-12, .cls-13, .cls-14 {
        stroke-miterlimit: 10;
      }

      .cls-10 {
        fill: #87ccf3;
      }

      .cls-16 {
        stroke: #fff;
        stroke-width: 8px;
      }
    </style>
  </defs>
  <line class="cls-1" x1="3.42" y1="105.96" x2="253.27" y2="105.96"/>
  <path class="cls-4" d="m3.42,110.22c-.55,0-1-.45-1-1v-6.51c0-.55.45-1,1-1s1,.45,1,1v6.51c0,.55-.45,1-1,1Z"/>
  <path class="cls-5" d="m31.21,110.22c-.55,0-1-.45-1-1v-6.51c0-.55.45-1,1-1s1,.45,1,1v6.51c0,.55-.45,1-1,1Z"/>
  <path class="cls-13" d="m58.99,110.22c-.55,0-1-.45-1-1v-6.51c0-.55.45-1,1-1s1,.45,1,1v6.51c0,.55-.45,1-1,1Z"/>
  <path class="cls-6" d="m86.78,110.22c-.55,0-1-.45-1-1v-6.51c0-.55.45-1,1-1s1,.45,1,1v6.51c0,.55-.45,1-1,1Z"/>
  <path class="cls-7" d="m114.57,110.22c-.55,0-1-.45-1-1v-6.51c0-.55.45-1,1-1s1,.45,1,1v6.51c0,.55-.45,1-1,1Z"/>
  <path class="cls-8" d="m142.36,110.22c-.55,0-1-.45-1-1v-6.51c0-.55.45-1,1-1s1,.45,1,1v6.51c0,.55-.45,1-1,1Z"/>
  <path class="cls-10" d="m170.14,110.22c-.55,0-1-.45-1-1v-6.51c0-.55.45-1,1-1s1,.45,1,1v6.51c0,.55-.45,1-1,1Z"/>
  <path class="cls-12" d="m197.93,110.22c-.55,0-1-.45-1-1v-6.51c0-.55.45-1,1-1s1,.45,1,1v6.51c0,.55-.45,1-1,1Z"/>
  <path class="cls-9" d="m225.72,110.22c-.55,0-1-.45-1-1v-6.51c0-.55.45-1,1-1s1,.45,1,1v6.51c0,.55-.45,1-1,1Z"/>
  <path class="cls-20" d="m1.23,116.11v-.81c.76-.07,1.29-.2,1.59-.37s.53-.58.67-1.23h.83v8.36h-1.12v-5.94h-1.97Z"/>
  <path class="cls-19" d="m28.69,120.16c.26-.54.77-1.02,1.52-1.46l1.12-.65c.5-.29.86-.54,1.06-.75.32-.33.48-.7.48-1.12,0-.49-.15-.88-.44-1.17-.29-.29-.68-.43-1.17-.43-.72,0-1.22.27-1.5.82-.15.29-.23.7-.25,1.22h-1.07c.01-.73.15-1.33.4-1.79.46-.81,1.26-1.22,2.42-1.22.96,0,1.66.26,2.11.78s.67,1.1.67,1.73c0,.67-.24,1.25-.71,1.72-.27.28-.76.61-1.47,1.01l-.8.45c-.38.21-.68.41-.9.6-.39.34-.64.72-.74,1.13h4.58v1h-5.76c.04-.72.19-1.35.45-1.89Z"/>
  <path class="cls-17" d="m56.62,121.46c-.45-.54-.67-1.21-.67-1.99h1.1c.05.54.15.94.3,1.18.27.44.77.66,1.48.66.55,0,1-.15,1.34-.45s.5-.68.5-1.15c0-.58-.18-.98-.53-1.21s-.84-.35-1.47-.35c-.07,0-.14,0-.21,0s-.15,0-.22,0v-.93c.11.01.2.02.28.02s.15,0,.24,0c.39,0,.72-.06.97-.19.45-.22.67-.61.67-1.17,0-.42-.15-.74-.45-.97s-.64-.34-1.04-.34c-.7,0-1.19.23-1.46.7-.15.26-.23.62-.25,1.1h-1.04c0-.62.12-1.16.38-1.59.43-.78,1.19-1.17,2.27-1.17.86,0,1.52.19,1.99.57s.7.93.7,1.66c0,.52-.14.93-.42,1.25-.17.2-.39.36-.67.47.44.12.79.35,1.03.7s.37.77.37,1.27c0,.8-.26,1.45-.79,1.96s-1.28.76-2.24.76-1.71-.27-2.16-.82Z"/>
  <path class="cls-21" d="m87.43,122.05v-2.05h-3.68v-1.03l3.84-5.33h.89v5.44h1.24v.92h-1.24v2.05h-1.05Zm-.02-2.97v-3.81l-2.69,3.81h2.69Z"/>
  <path class="cls-18" d="m112.71,119.91c.07.6.35,1.02.84,1.25.25.12.54.18.87.18.62,0,1.09-.2,1.39-.6s.45-.84.45-1.32c0-.59-.18-1.04-.54-1.36s-.79-.48-1.29-.48c-.36,0-.67.07-.93.21s-.48.34-.67.59l-.91-.05.64-4.52h4.36v1.02h-3.57l-.36,2.33c.2-.15.38-.26.56-.33.31-.13.67-.19,1.08-.19.77,0,1.42.25,1.96.74s.8,1.12.8,1.89-.25,1.49-.74,2.1-1.27.91-2.35.91c-.68,0-1.29-.19-1.81-.58s-.82-.98-.88-1.77h1.1Z"/>
  <path class="cls-23" d="m144.49,114.35c.37.49.55.99.55,1.5h-1.04c-.06-.33-.16-.59-.3-.78-.25-.35-.64-.53-1.15-.53-.59,0-1.06.27-1.41.82s-.54,1.33-.58,2.34c.24-.36.55-.62.91-.8.34-.16.71-.23,1.12-.23.7,0,1.32.22,1.84.67s.79,1.12.79,2.01c0,.76-.25,1.44-.74,2.02s-1.2.88-2.12.88c-.79,0-1.46-.3-2.03-.89s-.86-1.6-.86-3.01c0-1.04.13-1.93.38-2.65.49-1.39,1.38-2.09,2.68-2.09.94,0,1.59.24,1.96.73Zm-.79,6.42c.28-.37.41-.81.41-1.32,0-.43-.12-.84-.37-1.23s-.69-.58-1.34-.58c-.45,0-.85.15-1.19.45s-.51.75-.51,1.36c0,.53.16.98.47,1.34s.74.54,1.29.54.97-.19,1.25-.56Z"/>
  <path class="cls-22" d="m173.08,113.8v.92c-.27.26-.63.72-1.08,1.37s-.84,1.35-1.19,2.1c-.34.73-.6,1.4-.77,2-.11.39-.26,1.01-.44,1.87h-1.17c.27-1.6.85-3.2,1.76-4.78.54-.93,1.1-1.73,1.69-2.41h-4.64v-1.06h5.84Z"/>
  <path class="cls-26" d="m195.74,117.14c-.31-.31-.46-.72-.46-1.22,0-.62.23-1.16.68-1.61.45-.45,1.09-.67,1.93-.67s1.43.21,1.89.64.68.92.68,1.49c0,.52-.13.95-.4,1.27-.15.18-.38.36-.69.54.35.16.62.34.82.55.37.39.56.9.56,1.52,0,.74-.25,1.36-.74,1.88s-1.2.77-2.1.77c-.82,0-1.51-.22-2.07-.67s-.85-1.09-.85-1.93c0-.5.12-.92.36-1.29s.6-.64,1.08-.83c-.29-.12-.52-.27-.69-.44Zm3.4,3.79c.32-.26.48-.66.48-1.18s-.17-.96-.5-1.24-.76-.42-1.28-.42-.92.14-1.23.43-.48.68-.48,1.19c0,.44.15.82.44,1.13s.74.48,1.35.48c.49,0,.89-.13,1.22-.4Zm-.2-4.15c.26-.26.39-.57.39-.93,0-.31-.12-.6-.37-.86-.25-.26-.63-.39-1.14-.39s-.87.13-1.1.39c-.23.26-.34.57-.34.92,0,.4.15.7.44.93.29.22.64.33,1.04.33.46,0,.83-.13,1.09-.39Z"/>
  <path class="cls-24" d="m223.97,120.02c.03.58.26.98.67,1.21.21.12.46.18.73.18.5,0,.93-.21,1.29-.63s.61-1.27.76-2.56c-.23.37-.52.63-.87.78s-.72.23-1.12.23c-.81,0-1.45-.25-1.92-.75-.47-.5-.71-1.15-.71-1.94s.23-1.43.7-2.01c.46-.58,1.15-.87,2.06-.87,1.22,0,2.07.55,2.53,1.65.26.6.39,1.36.39,2.27,0,1.03-.15,1.94-.46,2.73-.51,1.32-1.38,1.98-2.6,1.98-.82,0-1.44-.21-1.87-.64s-.64-.97-.64-1.62h1.07Zm2.75-2.14c.35-.27.52-.75.52-1.44,0-.62-.16-1.08-.47-1.38-.31-.3-.71-.45-1.19-.45-.52,0-.92.17-1.23.52-.3.34-.45.81-.45,1.38,0,.55.13.98.4,1.3.27.32.69.48,1.27.48.42,0,.8-.14,1.15-.41Z"/>
  <path class="cls-11" d="m253.5,110.22c-.55,0-1-.45-1-1v-6.51c0-.55.45-1,1-1s1,.45,1,1v6.51c0,.55-.45,1-1,1Z"/>
  <g>
    <path class="cls-25" d="m246.64,116.11v-.81c.76-.07,1.29-.2,1.59-.37s.53-.58.67-1.23h.83v8.36h-1.12v-5.94h-1.97Z"/>
    <path class="cls-25" d="m257.77,115c.38.69.56,1.64.56,2.84,0,1.14-.17,2.08-.51,2.83-.49,1.07-1.3,1.61-2.41,1.61-1.01,0-1.76-.44-2.25-1.31-.41-.73-.62-1.71-.62-2.94,0-.95.12-1.77.37-2.46.46-1.27,1.29-1.91,2.5-1.91,1.09,0,1.87.45,2.36,1.34Zm-1.06,5.59c.33-.48.49-1.39.49-2.71,0-.95-.12-1.74-.35-2.35-.24-.62-.69-.92-1.37-.92-.62,0-1.08.29-1.36.88-.29.58-.43,1.44-.43,2.58,0,.86.09,1.54.28,2.06.28.79.76,1.19,1.44,1.19.55,0,.98-.24,1.31-.73Z"/>
  </g>
  <path class="cls-14" d="m121.51,9.61s2.09,5.61,5.45,5.49c3.36-.12,3.8-6.14,3.8-6.14"/>
  <path class="cls-2" d="m116.36,14.07s4.13,2.98,8.52.36"/>
  <path class="cls-2" d="m115.11,17.05s4.25.04,6.03-1.54"/>
  <path class="cls-14" d="m129.31,9.17s-.52,2.21-1.52,3.77"/>
  <path class="cls-2" d="m143.62,13.97s-6.94,3.41-9.59-.3"/>
  <path class="cls-2" d="m144.87,16.95s-4.3.15-6.08-1.43"/>
  <path class="cls-14" d="m129.37,13.57s2.91,3.68,6.83-2.48"/>
  <path class="cls-2" d="m117.06,28.14s7.08-3.96,10.63,4.62"/>
  <path class="cls-2" d="m119.22,29.96s2.59-2.11,5.65.48"/>
  <path class="cls-2" d="m124.65,33.24s-.74-.08-2.12.05c-2.5.24-3.72-1.12-3.72-1.12l.04-.45s3.29-2.9,6.72,1.17"/>
  <path class="cls-2" d="m127.34,37.87s-2.17,2.21,0,3.83"/>
  <path class="cls-2" d="m127.49,40.54s.9.78,1.61,1.08"/>
  <path class="cls-2" d="m114.4,28.51s-3.38-1.93-3.53,1.28c-.14,3.21,1.21,2.95,2.12,6.13.91,3.17,2.9,3.65,2.9,3.65"/>
  <circle class="cls-15" cx="121.69" cy="32.17" r="1.08"/>
  <path class="cls-2" d="m142.91,28.04s-7.08-3.96-10.63,4.62"/>
  <path class="cls-2" d="m140.75,29.85s-2.59-2.11-5.65.48"/>
  <path class="cls-2" d="m132.63,37.77s2.17,2.21,0,3.83"/>
  <path class="cls-2" d="m141.7,17.2s4.18,7.24,3.88,11.2c0,0,6.08-15.7-7.04-19.9,0,0-.71-2.65-4.13-1.97-4.51-3.94-8.84.1-8.84.1-3.43-.68-4.13,1.97-4.13,1.97-13.12,4.2-7.04,19.9-7.04,19.9-.3-3.96,3.88-11.97,3.88-11.97"/>
  <path class="cls-2" d="m145.63,27.65s-.33,15.94-6.29,22.11c-5.97,6.17-9.28,5.48-9.28,5.48h.1s-3.55.79-9.51-5.38c-5.97-6.17-6.29-22.11-6.29-22.11"/>
  <path class="cls-2" d="m145.58,28.4s3.38-1.93,3.53,1.28c.14,3.21-1.21,2.95-2.12,6.13-.91,3.17-2.9,3.65-2.9,3.65"/>
  <path class="cls-2" d="m126.11,46.93s3.61,2.15,7.48-.07"/>
  <path class="cls-2" d="m135.3,33.12s.74-.08,2.12.05c2.5.24,3.72-1.12,3.72-1.12l-.04-.45s-3.29-2.9-6.72,1.17"/>
  <circle class="cls-15" cx="137.59" cy="32.04" r="1.11"/>
  <path class="cls-2" d="m132.48,40.54s-.9.78-1.61,1.08"/>
  <path class="cls-3" d="m166.83,43.76v48.97c-11.07,6.45-20.44,5.97-34.3,2.55v-48.97s.07.01.2.03c1.98.24,18.6,2.11,31.37-1.67l.16-.05c.23-.06.46-.13.68-.21.65-.2,1.27-.42,1.89-.65Z"/>
  <path class="cls-3" d="m127.45,95.28c-11.27,2.78-24.34,2.66-34.4-2.43v-48.97c.48.12.96.24,1.44.35h.03c7.35,1.8,14.91,3.4,22.38,3.4,3.12,0,6.22-.28,9.29-.94.39-.09.78-.18,1.16-.27l.1,48.86Z"/>
  <rect class="cls-3" x="127.35" y="46.23" width="5.09" height="48.97"/>
  <path class="cls-1" d="m170.15,80.24c-1.59.53-4.21,1.86-5.45,2.48-4.88,2.44-5.29.97-4.67-.12.71-1.24,4.85-3.03,7.64-4.67-3.37.69-4.41,1-8.07,2.31-2.24.81-5.38-1.28.72-3.23,1.35-.43,3.77-1.06,6.42-2.07-1.77-.03-4.75.35-7.16.86-3.89.82-5.3.71-5.55-.38-.39-1.68,3.84-2.32,4.82-2.52.95-.19,6.44-1.23,7.41-1.4-2.46-.25-7.66.31-10.17.57-1.75.18-2.86-.88-1.8-2.02.46-.49,1.85-.83,2.46-.92,2.09-.31,4-.56,6.11-.69.73-.04,3.43-.3,4.07-.38l-.03-4.69c1.84.71,7.5,1.7,7.29,9.72-.14,5.18-1.12,5.65-4.04,7.14Z"/>
  <path class="cls-1" d="m89.85,80.24c1.59.53,4.21,1.86,5.45,2.48,4.88,2.44,5.29.97,4.67-.12-.71-1.24-4.85-3.03-7.64-4.67,3.37.69,4.41,1,8.07,2.31,2.24.81,5.38-1.28-.72-3.23-1.35-.43-3.77-1.06-6.42-2.07,1.77-.03,4.75.35,7.16.86,3.89.82,5.3.71,5.55-.38.39-1.68-3.84-2.32-4.82-2.52-.95-.19-6.44-1.23-7.41-1.4,2.46-.25,7.66.31,10.17.57,1.75.18,2.86-.88,1.8-2.02-.46-.49-1.85-.83-2.46-.92-2.09-.31-4-.56-6.11-.69-.73-.04-3.43-.3-4.07-.38l.03-4.69c-1.84.71-7.5,1.7-7.29,9.72.14,5.18,1.12,5.65,4.04,7.14Z"/>
  <path class="cls-1" d="m127.35,46.23l-1.16.46c-3.07.66-6.17.94-9.29.94-7.47,0-15.03-1.6-22.38-3.39h-.03s3.83-1.64,3.83-1.64l29.03,3.63Z"/>
  <path class="cls-1" d="m164.94,44.41c-.22.08-.45.15-.68.21l-.16.05c-12.77,3.78-29.39,1.91-31.37,1.67l-.29-.11,30.09-3.63,2.41,1.81Z"/>
  <path class="cls-2" d="m164.96,44.42l-.7.2c.23-.06.46-.13.68-.21h.02Z"/>
  <rect class="cls-16" x="-5135.93" y="-2762.19" width="6467.34" height="6437.3"/>
</svg>