<?xml version="1.0" encoding="UTF-8"?>
<svg id="Calque_1" data-name="Calque 1" xmlns="http://www.w3.org/2000/svg" viewBox="0 0 260 128">
  <defs>
    <style>
      .cls-1 {
        fill: #ff6d75;
      }

      .cls-1, .cls-2, .cls-3, .cls-4, .cls-5, .cls-6 {
        stroke: #000;
      }

      .cls-1, .cls-2, .cls-3, .cls-4, .cls-5, .cls-6, .cls-7 {
        stroke-linecap: round;
        stroke-linejoin: round;
      }

      .cls-2 {
        fill: #f3d587;
      }

      .cls-3 {
        fill: #fee4cb;
      }

      .cls-4 {
        fill: #fff;
      }

      .cls-5, .cls-7 {
        fill: none;
      }

      .cls-6 {
        fill: #fab0b4;
      }

      .cls-8 {
        font-family: Helvetica, Helvetica;
        font-size: 12px;
      }

      .cls-7 {
        stroke: #fff;
        stroke-width: 8px;
      }
    </style>
  </defs>
  <g>
    <path class="cls-2" d="m109.76,82.61c-.41.75-.16,1.76-.02,2.56.18,1.07.35,2.13.48,3.22.05.38.08.75.11,1.12.03.54.04,1.05,0,1.5-.25,2.96,0,3.35,0,3.35h-18.36s-.64-2.76-1.44-5.43c-.3-1.04-.63-2.06-.96-2.89-1.17-3.04-1.86-11.55.69-15.86l1.14-2.44s0-.02.02-.03c.1-.27-.1-.57-.26-.77-.53-.65-1.33-1.19-1.94-1.79-.68-.66-1.35-1.36-1.83-2.19-.88-1.5-.88-3.35-1.22-5.04-.38-1.84-.67-3.71-.9-5.57-.04-.35-.08-.69-.12-1.04,1.99-5.48,5.08-12.05,8.81-13.24,6.6-2.11,15.64,7.78,15.64,7.78-.07.71.13,1.52.5,2.36,0,0,0,.02,0,.02.72,1.7.68,3.59,1.3,5.3.22.61.48,1.22.75,1.82.48,1.07,1,2.12,1.4,3.22,1.24,3.41,1.96,7.03,1.4,10.66-.73,4.77-2.88,9.2-5.21,13.37Z"/>
    <path class="cls-4" d="m117.01,76.47c-.9.24-1.48.27-1.04.64.45.37.38,1.22-.13,1.54-.51.32-.16,1.07-.82,1.54-.67.48-.93.88-1.76.94-.83.05-1.49,1.06-2.66.66-.02,0-.05-.02-.07-.02-1.17-.44-2.88-2.11-3.52-2.58-.67-.48-5.72-4.58-9.6-7.02-1.93-1.21-4.18-3.14-6.05-4.91h0c-.58-.55-1.21-1.06-1.77-1.64-.68-.69-1.5-1.48-2.07-2.34-.02-.03-.05-.06-.06-.1-.03-.04-.05-.08-.08-.12-.1-.15-.17-.28-.24-.43-.03-.06-.05-.12-.07-.18,0,0-.02-.02-.02-.03-.1-.25-.18-.51-.25-.77-.18-.71-.24-1.47-.32-2.2-.08-.55-.16-1.09-.34-1.61,0,0,0-.02,0-.03-.02-.05-.02-.08-.03-.12-.04-.17-.06-.26-.06-.26,0,0-.6-3.45-.89-6.12v-.05c-.1-.88-.15-1.68-.15-2.23.05-2.23-.06-4.92-.06-4.92,0,0-1.43-7.5-.63-10.93.26-1.11.68-2.46,1.25-3.79.24-.55.5-1.08.79-1.6.61-1.07,1.34-2.05,2.2-2.76.21-.17.42-.32.64-.46.67-.41,1.41-.65,2.23-.65,2.86,0,6-.39,7.79,1.11.7-3.92,5.25-8.01,5.25-8.01,0,0,5.26-6.06,7.86-1.31,0,0,.35,2.68-2.05,6.46-2.4,3.78-2.03,4.47-2.03,5.17s-1.47,0-1.47,0c0,0-3.7,3.18-6.04,1.89-.52-.28-.97-.78-1.3-1.58-.16-.38-.25-.77-.29-1.17-.34.12-.68.22-1.01.33-1.52,3.21,1.5,6.38,1.5,6.38,0,0,10.3,9.34,9.97,12.69,0,0-9.02-9.87-15.62-7.78-.12.89-.8,3.69-.25,7.62.64,4.63-.17,11.01-.17,11.01-.17,1.55,1.2,2.33,2.13,3.32,1.52,1.61,2.79,3.45,4.19,5.17,1.47,1.8,2.96,3.59,4.6,5.26,1.04,1.07,2.35,2.53,3.85,2.93.83.21,1.64.45,2.5.35.75-.09,1.45-.41,2.23-.33.9.08,1.9.93,2.58,1.45.19.15.31.23.31.23,0,0,1.97,1.14,1.06,1.38Z"/>
    <path class="cls-4" d="m84.95,44.1s-1.43-7.5-.63-10.93c.36-1.56,1.04-3.62,2.04-5.39h0c16.37-.28,25.96-12.08,25.96-12.08,0,0,.35,2.68-2.05,6.46-2.39,3.78-2.02,4.47-2.02,5.16,0,.69-1.47,0-1.47,0,0,0-3.7,3.18-6.05,1.89-.52-.28-.96-.79-1.3-1.58-.16-.38-.25-.77-.29-1.17-.33.12-.67.22-1.02.33-1.52,3.21,1.51,6.38,1.51,6.38,0,0,0,0,.01,0,.29-.11,6.49-2.56,9.4-5.21,2.93-2.67,7.99-7.1,3.87-16.24-.06-.14-.13-.28-.19-.42-2.04-4.29-7.27-6.14-11.76-5.78-7.69.63-9.16,7.06-11.72,12.96-1.27,2.92-2.66,5.8-4.29,8.54-.14.23-.27.47-.39.7-4.29,8.08.39,16.37.39,16.37Z"/>
    <path class="cls-4" d="m105.43,21.85s.24,1.47,1.78,1.48"/>
  </g>
  <g>
    <path class="cls-6" d="m175.5,64.97c-.02,3.16-.41,6.77-2.07,9.53-1.47,2.44-2.73,5.32-4.75,7.32-1.64,1.64-.46,4.51-.21,6.56.04.38.08.75.1,1.12.04.54.05,1.05,0,1.5-.24,2.96,0,3.35,0,3.35h-18.35s-.64-2.76-1.44-5.43c-.31-1.04-.64-2.06-.96-2.89-1.17-3.04-1.87-11.55.68-15.86l1.15-2.44s0-.02,0-.03c.1-.27-.09-.57-.25-.77-.53-.65-1.34-1.19-1.95-1.79-.68-.66-1.35-1.36-1.83-2.19-.88-1.5-.88-3.35-1.22-5.04-.38-1.84-.66-3.71-.89-5.57-.05-.35-.08-.69-.12-1.04,1.99-5.48,5.09-12.05,8.82-13.24,6.59-2.11,15.63,7.78,15.63,7.78-.06.71.14,1.52.5,2.36,0,0,0,.02.02.02,1.06,2.51,2.58,4.8,3.95,7.13,1.72,2.95,3.22,6.11,3.19,9.6Z"/>
    <path class="cls-4" d="m175.26,76.47c-.91.24-1.49.27-1.04.64.46.37.38,1.22-.13,1.54-.5.32-.16,1.07-.82,1.54-.67.48-.93.88-1.76.94-.82.05-1.49,1.06-2.66.66-.02,0-.05-.02-.07-.02-1.17-.44-2.87-2.11-3.52-2.58-.66-.48-5.72-4.58-9.6-7.02-1.93-1.21-4.18-3.14-6.05-4.91h0c-.58-.55-1.22-1.06-1.78-1.64-.68-.69-1.5-1.48-2.07-2.34-.02-.03-.04-.06-.06-.1-.03-.04-.05-.08-.08-.12-.09-.15-.17-.28-.23-.43-.03-.06-.05-.12-.08-.18,0,0,0-.02-.02-.03-.11-.25-.18-.51-.25-.77-.18-.71-.24-1.47-.33-2.2-.08-.55-.16-1.09-.33-1.61,0,0,0-.02-.02-.03,0-.05-.02-.08-.02-.12-.04-.17-.06-.26-.06-.26,0,0-.61-3.45-.89-6.11v-.06c-.11-.88-.16-1.68-.15-2.23.05-2.23-.05-4.92-.05-4.92,0,0-1.43-7.5-.63-10.93.25-1.11.67-2.46,1.24-3.79.24-.55.51-1.08.8-1.6.61-1.07,1.34-2.05,2.19-2.76.21-.17.42-.32.64-.46.67-.41,1.42-.65,2.23-.65,2.86,0,6-.39,7.79,1.11.71-3.92,5.25-8.01,5.25-8.01,0,0,5.27-6.06,7.86-1.31,0,0,.35,2.68-2.05,6.46-2.4,3.78-2.02,4.47-2.02,5.17s-1.47,0-1.47,0c0,0-3.7,3.18-6.05,1.89-.51-.28-.97-.78-1.3-1.58-.15-.38-.25-.77-.29-1.17-.33.12-.67.22-1.01.33-1.52,3.21,1.5,6.38,1.5,6.38,0,0,10.3,9.34,9.98,12.69,0,0-9.02-9.87-15.62-7.78-.12.89-.79,3.69-.25,7.62.64,4.63-.17,11.01-.17,11.01-.17,1.55,1.2,2.33,2.13,3.32,1.53,1.61,2.79,3.45,4.2,5.17,1.47,1.8,2.96,3.59,4.59,5.26,1.05,1.07,2.35,2.53,3.85,2.93.84.21,1.64.45,2.5.35.75-.09,1.45-.41,2.22-.33.9.08,1.9.93,2.59,1.45.19.15.31.23.31.23,0,0,1.96,1.14,1.06,1.38Z"/>
    <path class="cls-4" d="m143.2,44.1s-1.43-7.5-.63-10.93c.36-1.56,1.04-3.62,2.04-5.39h0c16.37-.28,25.96-12.08,25.96-12.08,0,0,.35,2.68-2.05,6.46-2.39,3.78-2.02,4.47-2.02,5.16,0,.69-1.47,0-1.47,0,0,0-3.7,3.18-6.05,1.89-.52-.28-.96-.79-1.3-1.58-.16-.38-.25-.77-.29-1.17-.33.12-.67.22-1.02.33-1.52,3.21,1.51,6.38,1.51,6.38,0,0,0,0,.01,0,.29-.11,6.49-2.56,9.4-5.21,2.93-2.67,7.99-7.1,3.87-16.24-.06-.14-.13-.28-.19-.42-2.04-4.29-7.27-6.14-11.76-5.78-7.69.63-9.16,7.06-11.72,12.96-1.27,2.92-2.66,5.8-4.29,8.54-.14.23-.27.47-.39.7-4.29,8.08.39,16.37.39,16.37Z"/>
    <path class="cls-5" d="m163.68,21.85s.24,1.47,1.78,1.48"/>
  </g>
  <g>
    <path class="cls-1" d="m235.45,67.31c-.28,2.76-1.97,5.4-3.35,7.72-1.47,2.44-3.12,4.79-5.15,6.79-.25.25-.5.49-.67.79-.41.74-.18,1.74-.03,2.52.19,1.08.35,2.16.48,3.26.05.38.08.75.11,1.12.03.54.04,1.05,0,1.5-.24,2.96,0,3.35,0,3.35h-18.35s-.64-2.76-1.44-5.43c-.31-1.04-.64-2.06-.96-2.89-1.17-3.04-1.87-11.55.69-15.86l1.14-2.44s0-.02,0-.03c.1-.27-.09-.57-.25-.77-.53-.65-1.34-1.19-1.95-1.79-.68-.66-1.35-1.36-1.83-2.19-.88-1.5-.88-3.35-1.22-5.04-.38-1.84-.66-3.71-.89-5.57-.05-.35-.08-.69-.12-1.04,1.99-5.48,5.09-12.05,8.82-13.24,6.59-2.11,15.63,7.78,15.63,7.78-.06.71.14,1.52.5,2.36,0,0,.02.02.02.02,1.32,3.11,4.02,5.33,5.81,8.15.08.15.18.29.26.44,1.83,3.12,3.12,6.83,2.75,10.49Z"/>
    <path class="cls-4" d="m201.66,51.31s0-.04,0-.06h0s0,.04,0,.06Z"/>
    <path class="cls-4" d="m215.65,26.46c-.33.12-.67.22-1.01.33-1.51,3.21,1.51,6.38,1.51,6.38,0,0,10.29,9.34,9.96,12.69,0,0-9.01-9.87-15.61-7.78-.12.89-.8,3.69-.25,7.62.64,4.63-.17,11.01-.17,11.01-.18,1.55,1.19,2.33,2.12,3.32,1.53,1.61,2.79,3.45,4.2,5.17,1.47,1.8,2.96,3.59,4.6,5.26,1.04,1.07,2.35,2.53,3.85,2.93.83.21,1.63.45,2.5.35.75-.09,1.45-.41,2.23-.33.9.08,1.89.93,2.58,1.45.19.15.3.23.3.23,0,0,1.97,1.14,1.07,1.38-.91.24-1.49.27-1.04.64.45.37.37,1.22-.14,1.54-.5.32-.16,1.07-.82,1.54-.67.48-.93.88-1.76.94-.82.05-1.48,1.06-2.66.66-.02,0-.05-.02-.07-.02-1.17-.44-2.87-2.11-3.52-2.58-.66-.48-5.72-4.58-9.6-7.02-1.93-1.21-4.17-3.14-6.05-4.91-.58-.55-1.21-1.06-1.77-1.64-.68-.69-1.5-1.48-2.07-2.34-.03-.03-.05-.06-.06-.1-.04-.04-.06-.08-.08-.12-.09-.15-.16-.28-.23-.43-.03-.06-.05-.12-.08-.18,0,0-.02-.02-.02-.03-.11-.25-.18-.51-.25-.77-.18-.71-.24-1.47-.33-2.2-.07-.55-.16-1.09-.34-1.61,0,0,0-.02,0-.03,0-.05-.02-.08-.02-.12-.04-.17-.06-.26-.06-.26,0,0-.61-3.45-.89-6.11v-.06c-.11-.88-.16-1.68-.15-2.23.05-2.23-.06-4.92-.06-4.92,0,0-1.44-7.5-.63-10.93.25-1.11.67-2.46,1.25-3.79.23-.55.5-1.08.79-1.6.61-1.07,1.34-2.05,2.2-2.76.21-.17.41-.32.64-.46.67-.41,1.41-.65,2.22-.65,2.86,0,6.01-.39,7.79,1.11.71-3.92,5.25-8.01,5.25-8.01,0,0,5.27-6.06,7.86-1.31,0,0,.35,2.68-2.05,6.46-2.4,3.78-2.02,4.47-2.02,5.17s-1.47,0-1.47,0c0,0-3.7,3.18-6.05,1.89-.51-.28-.96-.78-1.3-1.58-.15-.38-.25-.77-.28-1.17"/>
    <path class="cls-4" d="m201.45,44.1s-1.43-7.5-.63-10.93c.36-1.56,1.04-3.62,2.04-5.39h0c16.37-.28,25.96-12.08,25.96-12.08,0,0,.35,2.68-2.05,6.46-2.39,3.78-2.02,4.47-2.02,5.16,0,.69-1.47,0-1.47,0,0,0-3.7,3.18-6.05,1.89-.52-.28-.96-.79-1.3-1.58-.16-.38-.25-.77-.29-1.17-.33.12-.67.22-1.02.33-1.52,3.21,1.51,6.38,1.51,6.38,0,0,0,0,.01,0,.29-.11,6.49-2.56,9.4-5.21,2.93-2.67,7.99-7.1,3.87-16.24-.06-.14-.13-.28-.19-.42-2.04-4.29-7.27-6.14-11.76-5.78-7.69.63-9.16,7.06-11.72,12.96-1.27,2.92-2.66,5.8-4.29,8.54-.14.23-.27.47-.39.7-4.29,8.08.39,16.37.39,16.37Z"/>
    <path class="cls-4" d="m221.94,22.1s.24,1.47,1.78,1.48"/>
  </g>
  <g>
    <path class="cls-4" d="m40.89,26.46c.04.4.13.79.29,1.17.33.8.78,1.3,1.3,1.58,2.35,1.29,6.05-1.89,6.05-1.89,0,0,1.47.69,1.47,0,0-.69-.37-1.38,2.02-5.16,2.39-3.78,2.05-6.46,2.05-6.46-2.6-4.75-7.86,1.31-7.86,1.31,0,0-4.55,4.1-5.25,8.01-.01.1-.03.19-.04.29-.05.39-.06.77-.02,1.15Z"/>
    <path class="cls-3" d="m52.07,89.51c.03.54.04,1.05,0,1.5-.24,2.96,0,3.35,0,3.35h-18.35s-.64-2.76-1.44-5.43c-.31-1.03-.64-2.05-.96-2.89-1.17-3.03-1.26-6.79-.94-9.98.34-3.48,1.56-6.86.99-10.39.55.55,1.16,1.04,1.72,1.57h0c1.87,1.77,4.11,3.69,6.04,4.91,3.89,2.45,8.94,6.54,9.6,7.02.64.46,2.28,2.07,3.44,2.55-.64,1.02-1.02,1.76-.78,3.21.04.26.69,4.57.64,4.57h0Z"/>
    <path class="cls-4" d="m58.76,76.47c-.91.24-1.49.27-1.04.64.45.37.37,1.22-.13,1.54-.51.32-.16,1.07-.83,1.54-.67.48-.93.88-1.76.94-.82.05-1.49,1.06-2.66.66-.02,0-.05-.02-.07-.02-.03,0-.05-.02-.08-.03-1.16-.48-2.8-2.09-3.44-2.55-.67-.48-5.71-4.58-9.6-7.02-1.93-1.21-4.17-3.14-6.04-4.91h0c-.56-.54-1.17-1.03-1.72-1.57,0-.06-.02-.12-.02-.17-.13-.12-.26-.23-.38-.35-.69-.66-1.36-1.36-1.84-2.19-.35-.61-.57-1.28-.71-1.97-.08-.51-.14-1.03-.2-1.54-.07-.52-.16-1.04-.31-1.54-.15-.79-.3-1.58-.42-2.37-.12-.73-.25-1.61-.37-2.5-.02-.15-.05-.3-.06-.45-.02-.12-.03-.24-.05-.35-.03-.22-.05-.45-.08-.67,0-.08-.02-.17-.03-.25h0s0-.04,0-.06c-.09-.88-.15-1.68-.14-2.23.05-2.23-.06-4.92-.06-4.92,0,0-1.43-7.5-.64-10.93.16-.7.39-1.49.68-2.32.05-.15.11-.3.16-.45,0,0,0-.02,0-.02.15-.41.32-.81.51-1.22.15-.34.31-.66.48-.98.06-.13.14-.26.21-.39,4.92-.08,9.23-1.21,12.85-2.74,2.4-1.02,4.5-2.22,6.27-3.41,4.45-2.99,6.84-5.93,6.84-5.93,0,0,.35,2.68-2.05,6.46-2.4,3.78-2.02,4.47-2.02,5.17s-1.47,0-1.47,0c0,0-3.7,3.18-6.05,1.89-.51-.28-.97-.78-1.3-1.58-.15-.38-.25-.77-.29-1.17-.33.12-.67.22-1.01.33-1.51,3.21,1.5,6.38,1.5,6.38,0,0,8.81,5.95,10.16,10.78-.17-.22-6.76-8.87-15.8-5.87-.12.89-.8,3.69-.25,7.62.64,4.63-.18,11.01-.18,11.01-.17,1.55,1.2,2.33,2.13,3.32,1.53,1.61,2.79,3.45,4.2,5.17,1.47,1.8,2.96,3.59,4.59,5.26,1.05,1.07,2.35,2.53,3.86,2.93.83.21,1.63.45,2.5.35.75-.09,1.44-.4,2.21-.33h0c.9.08,1.9.93,2.59,1.45.19.15.3.23.3.23,0,0,1.97,1.14,1.07,1.38Z"/>
    <path class="cls-4" d="m27.31,29.37c.03-.08.07-.15.11-.22-.18.41-.35.81-.51,1.22.12-.33.25-.67.4-1Z"/>
    <path class="cls-4" d="m40.96,25.02v.02c-3.62,1.53-7.93,2.66-12.85,2.74-.07.13-.15.26-.21.39.06-.13.13-.26.2-.39.61-1.07,1.34-2.05,2.2-2.76.21-.17.42-.32.64-.46.68-.41,1.42-.65,2.23-.65,2.86,0,6-.39,7.79,1.11Z"/>
    <path class="cls-3" d="m53.81,55.77c-.19-.72-.47-1.46-.76-2.19-.6-1.5-1.26-3.02-1.4-4.53-.04-.48.08-2.41.06-3.77,0-.21-.01-.41-.03-.58-.03-.25-.08-.49-.15-.75-.17-.22-6.76-8.88-15.8-5.88-.12.89-.8,3.68-.25,7.62.64,4.63-.17,11.01-.17,11.01-.17,1.55,1.2,2.34,2.13,3.32,1.52,1.62,2.79,3.44,4.2,5.17,1.47,1.8,2.96,3.6,4.59,5.26,1.05,1.07,2.35,2.52,3.86,2.93.83.22,1.63.45,2.5.35.75-.09,1.45-.4,2.21-.33.96-5.83.52-11.87-.98-17.63Z"/>
    <path class="cls-4" d="m50.8,27.95c-2.91,2.65-9.12,5.1-9.4,5.21,0,0-.02,0-.02,0,0,0-3.02-3.17-1.5-6.38.35-.11.68-.21,1.01-.33.05.4.14.79.29,1.17.33.8.78,1.3,1.3,1.58,2.35,1.29,6.05-1.89,6.05-1.89,0,0,1.47.69,1.47,0s-.38-1.38,2.02-5.17c2.4-3.78,2.05-6.46,2.05-6.46,0,0-2.4,2.95-6.84,5.93-1.77,1.19-3.87,2.39-6.27,3.41-3.62,1.53-7.93,2.66-12.85,2.74-.07.13-.15.26-.21.39-.18.32-.34.64-.48.98-.18.41-.35.81-.51,1.22,0,0,0,.02,0,.02-.06.15-.12.31-.16.45-.29.83-.52,1.62-.68,2.32-.79,3.43.64,10.93.64,10.93,0,0-4.68-8.29-.39-16.38.12-.23.25-.47.39-.7,1.64-2.74,3.02-5.62,4.29-8.54,2.56-5.9,4.03-12.33,11.72-12.96,4.49-.36,9.73,1.49,11.76,5.78.07.14.13.28.19.41,4.12,9.14-.93,13.57-3.86,16.24Z"/>
    <path class="cls-4" d="m47.18,21.85s.24,1.47,1.78,1.48"/>
  </g>
  <g>
    <line class="cls-4" x1="18.09" y1="105.96" x2="240.39" y2="105.96"/>
    <line class="cls-4" x1="18.09" y1="102.71" x2="18.09" y2="109.22"/>
    <line class="cls-4" x1="45.88" y1="102.71" x2="45.88" y2="109.22"/>
    <line class="cls-4" x1="73.67" y1="102.71" x2="73.67" y2="109.22"/>
    <line class="cls-4" x1="101.46" y1="102.71" x2="101.46" y2="109.22"/>
    <line class="cls-4" x1="129.24" y1="102.71" x2="129.24" y2="109.22"/>
    <line class="cls-4" x1="157.03" y1="102.71" x2="157.03" y2="109.22"/>
    <line class="cls-4" x1="184.82" y1="102.71" x2="184.82" y2="109.22"/>
    <line class="cls-4" x1="212.61" y1="102.71" x2="212.61" y2="109.22"/>
    <line class="cls-4" x1="240.39" y1="102.71" x2="240.39" y2="109.22"/>
  </g>
  <text class="cls-8" transform="translate(14.76 122.05)"><tspan x="0" y="0">1</tspan></text>
  <text class="cls-8" transform="translate(42.55 122.05)"><tspan x="0" y="0">2</tspan></text>
  <text class="cls-8" transform="translate(70.33 122.05)"><tspan x="0" y="0">3</tspan></text>
  <text class="cls-8" transform="translate(98.12 122.05)"><tspan x="0" y="0">4</tspan></text>
  <text class="cls-8" transform="translate(125.91 122.05)"><tspan x="0" y="0">5</tspan></text>
  <text class="cls-8" transform="translate(153.69 122.05)"><tspan x="0" y="0">6</tspan></text>
  <text class="cls-8" transform="translate(181.48 122.05)"><tspan x="0" y="0">7</tspan></text>
  <text class="cls-8" transform="translate(209.27 122.05)"><tspan x="0" y="0">8</tspan></text>
  <text class="cls-8" transform="translate(237.06 122.05)"><tspan x="0" y="0">9</tspan></text>
  <rect class="cls-7" x="-648" y="-3948.24" width="6467.34" height="6437.3"/>
</svg>