<?xml version="1.0" encoding="UTF-8"?>
<svg id="Calque_1" data-name="Calque 1" xmlns="http://www.w3.org/2000/svg" viewBox="0 0 308.07 128">
  <defs>
    <style>
      .cls-1 {
        fill: #baa584;
      }

      .cls-1, .cls-2, .cls-3, .cls-4, .cls-5, .cls-6, .cls-7, .cls-8 {
        stroke: #000;
      }

      .cls-1, .cls-2, .cls-3, .cls-4, .cls-6, .cls-7, .cls-9 {
        stroke-linecap: round;
        stroke-linejoin: round;
      }

      .cls-2 {
        fill: #a07637;
      }

      .cls-3 {
        fill: #ff6d75;
      }

      .cls-4, .cls-9 {
        fill: none;
      }

      .cls-5, .cls-8 {
        stroke-miterlimit: 10;
      }

      .cls-10 {
        fill: #87f3b9;
      }

      .cls-6 {
        fill: #fff;
      }

      .cls-6, .cls-7, .cls-8 {
        stroke-width: 2px;
      }

      .cls-7 {
        fill: #f3d587;
      }

      .cls-9 {
        stroke: #fff;
        stroke-width: 8px;
      }
    </style>
  </defs>
  <g>
    <path class="cls-10" d="m49.22,98.93c-.14,0-.29-.03-.42-.09-.28-.13-.48-.38-.55-.67l-8.77-36.15c-.11-.45.11-.92.52-1.13,9.07-4.6,19.24-7.07,29.41-7.14h0c.46,0,.86.32.97.76l8.77,36.15c.07.3,0,.61-.18.85-.19.24-.48.38-.78.38-9.86.07-19.72,2.46-28.52,6.92-.14.07-.3.11-.45.11Z"/>
    <path d="m69.42,54.76l8.77,36.15c-10.04.07-20.01,2.49-28.97,7.03l-8.77-36.15h0c8.96-4.54,18.92-6.96,28.97-7.03m0-2h-.01c-10.32.07-20.65,2.58-29.86,7.25-.83.42-1.26,1.35-1.04,2.26l8.77,36.15c.14.59.55,1.09,1.11,1.34.27.12.55.18.84.18.31,0,.62-.07.9-.22,8.66-4.39,18.37-6.74,28.08-6.81.61,0,1.19-.29,1.56-.77s.51-1.11.37-1.7l-8.77-36.15c-.22-.9-1.02-1.53-1.94-1.53h0Z"/>
  </g>
  <g>
    <path class="cls-10" d="m20.26,105.96c-.14,0-.29-.03-.42-.09-.28-.13-.48-.38-.55-.67l-8.77-36.15c-.11-.45.11-.92.52-1.13,9.07-4.6,19.24-7.07,29.41-7.14h0c.46,0,.86.32.97.76l8.77,36.15c.07.3,0,.61-.18.85-.19.24-.48.38-.78.38-9.86.07-19.72,2.46-28.52,6.92-.14.07-.3.11-.45.11Z"/>
    <path d="m40.45,61.79l8.77,36.15c-10.04.07-20.01,2.49-28.97,7.03l-8.77-36.15c8.96-4.54,18.92-6.96,28.97-7.03m0-2h-.01c-10.32.07-20.65,2.58-29.86,7.25-.83.42-1.26,1.35-1.04,2.26l8.77,36.15c.14.59.55,1.09,1.11,1.34.27.12.55.18.84.18.31,0,.62-.07.9-.22,8.66-4.39,18.37-6.74,28.08-6.81.61,0,1.19-.29,1.56-.77s.51-1.11.37-1.7l-8.77-36.15c-.22-.9-1.02-1.53-1.94-1.53h0Z"/>
  </g>
  <path class="cls-6" d="m75.02,88.78h0c-9.22-.13-18.32,2.08-26.46,6.42h0s-8.77-36.15-8.77-36.15h0c8.14-4.34,17.24-6.55,26.46-6.42h0s8.77,36.15,8.77,36.15Z"/>
  <path class="cls-6" d="m48.56,95.2h0c-9.22-.13-18.32,2.08-26.46,6.42h0s-8.77-36.15-8.77-36.15h0c8.14-4.34,17.24-6.55,26.46-6.42h0s8.77,36.15,8.77,36.15Z"/>
  <circle class="cls-2" cx="50.47" cy="67.51" r="1.7" transform="translate(-33.81 68.9) rotate(-54.16)"/>
  <circle class="cls-2" cx="59.38" cy="64.69" r="1.7" transform="translate(-27.83 74.95) rotate(-54.16)"/>
  <path class="cls-1" d="m53.59,72.83s-3.85,2.91-3.38,4.8c.46,1.89,1.2,1.93,1.2,1.93l2.78-.88-.59-5.84Z"/>
  <path class="cls-1" d="m60.03,70.79s4.82.16,5.53,1.97c.71,1.81.13,2.26.13,2.26l-2.78.88-2.88-5.12Z"/>
  <polygon class="cls-1" points="55.02 84.26 57.76 82.17 54.8 80.64 55.02 84.26"/>
  <polygon class="cls-1" points="65.69 80.88 62.25 80.75 63.79 77.79 65.69 80.88"/>
  <path class="cls-1" d="m64.15,75.2c-.99-3.12-4.6-5.73-7.73-4.74-3.12.99-4.58,5.2-3.59,8.32.99,3.12,4.05,3.98,7.17,2.99,3.12-.99,5.13-3.45,4.14-6.58Z"/>
  <path class="cls-2" d="m61.8,75.57c-.6-1.88-2.78-3.45-4.66-2.86-1.88.6-2.76,3.14-2.16,5.02.6,1.88,2.44,2.4,4.33,1.81,1.88-.6,3.1-2.08,2.5-3.97Z"/>
  <rect class="cls-1" x="51.6" y="78.91" width="3.62" height="5.83" rx="1.27" ry="1.27" transform="translate(-36.31 43.13) rotate(-33.53)"/>
  <rect class="cls-1" x="63.59" y="75.11" width="3.62" height="5.83" rx="1.27" ry="1.27" transform="translate(132.99 154.16) rotate(178.37)"/>
  <path class="cls-1" d="m61.17,68.03s.86,4.33-3.51,5.62c-.11.03-.21.06-.31.07-.09.04-.19.08-.3.12-4.31,1.45-6.1-2.58-6.1-2.58,0,0-.47-.91.17-3.69.64-2.78,3.23-3.33,3.23-3.33,0,0,2.43-1.04,4.56.87,2.12,1.9,2.27,2.92,2.27,2.92Z"/>
  <circle cx="52.8" cy="69.24" r=".5" transform="translate(-34.24 71.51) rotate(-54.16)"/>
  <circle cx="58.46" cy="67.44" r=".5" transform="translate(-30.44 75.35) rotate(-54.16)"/>
  <ellipse cx="55.9" cy="69.17" rx="1.35" ry=".65" transform="translate(-18.28 20.12) rotate(-17.58)"/>
  <path class="cls-7" d="m32.24,72.81l.81,1.65c.21.43.62.72,1.09.79l1.82.26c1.19.17,1.66,1.63.8,2.47l-1.32,1.29c-.34.33-.5.81-.42,1.28l.31,1.81c.2,1.18-1.04,2.08-2.1,1.52l-1.63-.86c-.42-.22-.92-.22-1.35,0l-1.63.86c-1.06.56-2.3-.34-2.1-1.52l.31-1.81c.08-.47-.08-.95-.42-1.28l-1.32-1.29c-.86-.84-.38-2.29.8-2.47l1.82-.26c.47-.07.88-.36,1.09-.79l.81-1.65c.53-1.07,2.06-1.07,2.59,0Z"/>
  <g>
    <g>
      <path class="cls-10" d="m145.96,98.93c-.14,0-.29-.03-.42-.09-.28-.13-.48-.38-.55-.67l-8.77-36.15c-.11-.45.11-.92.52-1.13,9.07-4.6,19.24-7.07,29.41-7.14h0c.46,0,.86.32.97.76l8.77,36.15c.07.3,0,.61-.18.85-.19.24-.48.38-.78.38-9.86.07-19.72,2.46-28.52,6.92-.14.07-.3.11-.45.11Z"/>
      <path d="m166.15,54.76l8.77,36.15c-10.04.07-20.01,2.49-28.97,7.03l-8.77-36.15c8.96-4.54,18.92-6.96,28.97-7.03m0-2h-.01c-10.32.07-20.65,2.58-29.86,7.25-.83.42-1.26,1.35-1.04,2.26l8.77,36.15c.14.59.55,1.09,1.11,1.34.27.12.55.18.84.18.31,0,.62-.07.9-.22,8.66-4.39,18.37-6.74,28.08-6.81.61,0,1.19-.29,1.56-.77s.51-1.11.37-1.7l-8.77-36.15c-.22-.9-1.02-1.53-1.94-1.53h0Z"/>
    </g>
    <g>
      <path class="cls-10" d="m116.99,105.96c-.14,0-.29-.03-.42-.09-.28-.13-.48-.38-.55-.67l-8.77-36.15c-.11-.45.11-.92.52-1.13,9.07-4.6,19.24-7.07,29.41-7.14h0c.46,0,.86.32.97.76l8.77,36.15c.07.3,0,.61-.18.85-.19.24-.48.38-.78.38-9.86.07-19.72,2.46-28.52,6.92-.14.07-.3.11-.45.11Z"/>
      <path d="m137.18,61.79l8.77,36.15h0c-10.04.07-20.01,2.49-28.97,7.03l-8.77-36.15c8.96-4.54,18.92-6.96,28.97-7.03m0-2h-.01c-10.32.07-20.65,2.58-29.86,7.25-.83.42-1.26,1.35-1.04,2.26l8.77,36.15c.14.59.55,1.09,1.11,1.34.27.12.55.18.84.18.31,0,.62-.07.9-.22,8.66-4.39,18.37-6.74,28.08-6.81.61,0,1.19-.29,1.56-.77s.51-1.11.37-1.7l-8.77-36.15c-.22-.9-1.02-1.53-1.94-1.53h0Z"/>
    </g>
    <path class="cls-6" d="m171.75,88.78h0c-9.22-.13-18.32,2.08-26.46,6.42h0s-8.77-36.15-8.77-36.15h0c8.14-4.34,17.24-6.55,26.46-6.42h0s8.77,36.15,8.77,36.15Z"/>
    <path class="cls-6" d="m145.29,95.2h0c-9.22-.13-18.32,2.08-26.46,6.42h0s-8.77-36.15-8.77-36.15h0c8.14-4.34,17.24-6.55,26.46-6.42h0s8.77,36.15,8.77,36.15Z"/>
    <path class="cls-3" d="m120.97,72.05l2.19-.54,9.66,9.4-2.73-11.1,1.76-.43,3.37,13.7-2.08.51-9.76-9.36,2.73,11.09-1.77.44-3.37-13.7Z"/>
    <path class="cls-3" d="m160.39,70.96c1.12,4.74-1.17,7.93-4.69,8.76s-6.86-1.36-7.84-5.53,1.01-7.87,4.69-8.74c3.76-.89,6.87,1.42,7.83,5.51Zm-10.63,2.74c.69,2.94,2.91,5.2,5.71,4.54,2.82-.66,3.8-3.64,3.07-6.76-.65-2.74-2.75-5.26-5.71-4.56-2.94.69-3.77,3.76-3.06,6.78Z"/>
  </g>
  <g>
    <g>
      <path class="cls-10" d="m267.74,98.93c-.14,0-.29-.03-.42-.09-.28-.13-.48-.38-.55-.67l-8.77-36.15c-.11-.45.11-.92.52-1.13,9.07-4.6,19.24-7.07,29.41-7.14h0c.46,0,.86.32.97.76l8.77,36.15c.07.3,0,.61-.18.85-.19.24-.48.38-.78.38-9.86.07-19.72,2.46-28.52,6.92-.14.07-.3.11-.45.11Z"/>
      <path d="m287.93,54.76l8.77,36.15c-10.04.07-20.01,2.49-28.97,7.03l-8.77-36.15c8.96-4.54,18.92-6.96,28.97-7.03m0-2h-.01c-10.32.07-20.65,2.58-29.86,7.25-.83.42-1.26,1.35-1.04,2.26l8.77,36.15c.14.59.55,1.09,1.11,1.34.27.12.55.18.84.18.31,0,.62-.07.9-.22,8.66-4.39,18.37-6.74,28.08-6.81.61,0,1.19-.29,1.56-.77s.51-1.11.37-1.7l-8.77-36.15c-.22-.9-1.02-1.53-1.94-1.53h0Z"/>
    </g>
    <g>
      <path class="cls-10" d="m238.77,105.96c-.14,0-.29-.03-.42-.09-.28-.13-.48-.38-.55-.67l-8.77-36.15c-.11-.45.11-.92.52-1.13,9.07-4.6,19.24-7.07,29.41-7.14h0c.46,0,.86.32.97.76l8.77,36.15c.07.3,0,.61-.18.85-.19.24-.48.38-.78.38-9.86.07-19.72,2.46-28.52,6.92-.14.07-.3.11-.45.11Z"/>
      <path d="m258.97,61.79l8.77,36.15c-10.04.07-20.01,2.49-28.97,7.03l-8.77-36.15c8.96-4.54,18.92-6.96,28.97-7.03h0m0-2h-.01c-10.32.07-20.65,2.58-29.86,7.25-.83.42-1.26,1.35-1.04,2.26l8.77,36.15c.14.59.55,1.09,1.11,1.34.27.12.55.18.84.18.31,0,.62-.07.9-.22,8.66-4.39,18.37-6.74,28.08-6.81.61,0,1.19-.29,1.56-.77s.51-1.11.37-1.7l-8.77-36.15c-.22-.9-1.02-1.53-1.94-1.53h0Z"/>
    </g>
    <path class="cls-6" d="m293.54,88.78h0c-9.22-.13-18.32,2.08-26.46,6.42h0s-8.77-36.15-8.77-36.15h0c8.14-4.34,17.24-6.55,26.46-6.42h0s8.77,36.15,8.77,36.15Z"/>
    <path class="cls-6" d="m267.08,95.2h0c-9.22-.13-18.32,2.08-26.46,6.42h0s-8.77-36.15-8.77-36.15h0c8.14-4.34,17.24-6.55,26.46-6.42h0s8.77,36.15,8.77,36.15Z"/>
    <g>
      <line class="cls-4" x1="238.38" y1="72.45" x2="254.81" y2="68.07"/>
      <line class="cls-4" x1="239.23" y1="75.65" x2="255.66" y2="71.26"/>
      <line class="cls-4" x1="240.93" y1="82.03" x2="257.36" y2="77.65"/>
      <line class="cls-4" x1="241.78" y1="85.22" x2="258.22" y2="80.84"/>
      <line class="cls-4" x1="242.63" y1="88.41" x2="259.07" y2="84.03"/>
      <line class="cls-4" x1="240.08" y1="78.84" x2="249.81" y2="76.24"/>
    </g>
    <g>
      <line class="cls-4" x1="264.08" y1="65.4" x2="280.61" y2="61.4"/>
      <line class="cls-4" x1="265.64" y1="71.82" x2="282.17" y2="67.82"/>
      <line class="cls-4" x1="266.41" y1="75.03" x2="282.95" y2="71.03"/>
      <line class="cls-4" x1="267.19" y1="78.24" x2="283.72" y2="74.24"/>
      <line class="cls-4" x1="264.86" y1="68.61" x2="274.65" y2="66.24"/>
      <line class="cls-4" x1="268.13" y1="82.09" x2="277.92" y2="79.72"/>
    </g>
  </g>
  <line class="cls-5" x1="14.82" y1="43.45" x2="259.23" y2="43.45"/>
  <line class="cls-8" x1="14.21" y1="39.51" x2="14.21" y2="47.39"/>
  <line class="cls-8" x1="137.03" y1="39.51" x2="137.03" y2="47.39"/>
  <line class="cls-5" x1="38.77" y1="40.28" x2="38.77" y2="46.62"/>
  <line class="cls-5" x1="63.34" y1="40.28" x2="63.34" y2="46.62"/>
  <line class="cls-5" x1="87.9" y1="40.28" x2="87.9" y2="46.62"/>
  <line class="cls-5" x1="112.46" y1="40.28" x2="112.46" y2="46.62"/>
  <line class="cls-5" x1="161.59" y1="40.28" x2="161.59" y2="46.62"/>
  <line class="cls-5" x1="186.15" y1="40.28" x2="186.15" y2="46.62"/>
  <line class="cls-5" x1="210.72" y1="40.28" x2="210.72" y2="46.62"/>
  <line class="cls-5" x1="235.28" y1="40.28" x2="235.28" y2="46.62"/>
  <line class="cls-8" x1="259.85" y1="39.51" x2="259.85" y2="47.39"/>
  <path d="m15.92,31.3c.24.45.36,1.06.36,1.84,0,.74-.11,1.35-.33,1.83-.32.69-.84,1.04-1.56,1.04-.65,0-1.14-.28-1.46-.85-.27-.47-.4-1.11-.4-1.9,0-.62.08-1.15.24-1.59.3-.82.84-1.24,1.62-1.24.7,0,1.21.29,1.52.87Zm-.69,3.62c.21-.31.31-.9.31-1.75,0-.62-.08-1.12-.23-1.52s-.45-.6-.88-.6c-.4,0-.7.19-.88.57s-.28.93-.28,1.67c0,.55.06,1,.18,1.33.18.51.49.77.93.77.35,0,.64-.16.85-.47Z"/>
  <path d="m37.95,32.17v-.52c.49-.05.84-.13,1.03-.24s.34-.38.44-.8h.54v5.41h-.73v-3.84h-1.28Z"/>
  <path d="m86.58,35.48c-.29-.35-.43-.78-.43-1.29h.71c.03.35.1.61.2.77.18.29.5.43.96.43.36,0,.65-.1.86-.29s.33-.44.33-.74c0-.37-.11-.64-.34-.78s-.55-.22-.95-.22c-.05,0-.09,0-.14,0s-.09,0-.14,0v-.6c.07,0,.13.01.18.02s.1,0,.16,0c.25,0,.47-.04.63-.12.29-.14.43-.39.43-.76,0-.27-.1-.48-.29-.63s-.42-.22-.67-.22c-.45,0-.77.15-.94.45-.1.17-.15.4-.16.71h-.67c0-.4.08-.75.24-1.03.28-.51.77-.76,1.47-.76.55,0,.98.12,1.29.37s.45.6.45,1.07c0,.33-.09.6-.27.81-.11.13-.25.23-.43.3.29.08.51.23.67.45s.24.5.24.82c0,.52-.17.94-.51,1.27s-.83.49-1.45.49-1.11-.18-1.4-.53Z"/>
  <path d="m61.91,34.79c.17-.35.5-.66.98-.94l.73-.42c.33-.19.55-.35.69-.49.21-.21.31-.45.31-.72,0-.32-.09-.57-.28-.75s-.44-.28-.76-.28c-.47,0-.79.18-.97.53-.1.19-.15.45-.16.79h-.69c0-.47.09-.86.26-1.16.3-.53.82-.79,1.57-.79.62,0,1.08.17,1.36.5s.43.71.43,1.12c0,.43-.15.81-.46,1.11-.18.18-.49.4-.95.65l-.52.29c-.25.14-.44.27-.58.39-.25.22-.41.46-.48.73h2.96v.64h-3.73c.03-.47.12-.87.29-1.22Z"/>
  <path d="m113.04,36.01v-1.33h-2.38v-.67l2.49-3.45h.58v3.52h.8v.6h-.8v1.33h-.68Zm-.01-1.92v-2.46l-1.74,2.46h1.74Z"/>
  <path d="m135.97,34.49c.05.39.23.66.54.81.16.08.35.11.56.11.4,0,.7-.13.9-.39s.29-.54.29-.86c0-.38-.12-.67-.35-.88s-.51-.31-.83-.31c-.24,0-.44.05-.6.14s-.31.22-.43.38l-.59-.03.41-2.92h2.82v.66h-2.31l-.23,1.51c.13-.1.25-.17.36-.22.2-.08.44-.13.7-.13.5,0,.92.16,1.27.48s.52.73.52,1.22-.16.97-.48,1.36-.82.59-1.52.59c-.44,0-.83-.12-1.17-.37s-.53-.63-.57-1.15h.71Z"/>
  <path d="m163.06,30.89c.24.31.36.64.36.97h-.67c-.04-.21-.11-.38-.19-.5-.16-.23-.41-.34-.75-.34-.38,0-.69.18-.91.53s-.35.86-.38,1.51c.16-.23.35-.4.59-.52.22-.1.46-.15.73-.15.45,0,.85.15,1.19.44s.51.72.51,1.3c0,.49-.16.93-.48,1.31s-.78.57-1.37.57c-.51,0-.95-.19-1.32-.58s-.55-1.03-.55-1.95c0-.67.08-1.25.25-1.72.32-.9.89-1.35,1.73-1.35.61,0,1.03.16,1.27.47Zm-.51,4.15c.18-.24.27-.53.27-.85,0-.28-.08-.54-.24-.79s-.45-.38-.87-.38c-.29,0-.55.1-.77.29s-.33.49-.33.88c0,.34.1.63.3.87s.48.35.84.35.63-.12.81-.36Z"/>
  <path d="m188.1,30.67v.6c-.17.17-.41.46-.7.88s-.55.87-.77,1.36c-.22.47-.39.9-.5,1.29-.07.25-.17.65-.28,1.21h-.75c.17-1.04.55-2.07,1.14-3.09.35-.6.71-1.12,1.09-1.56h-3v-.69h3.78Z"/>
  <path d="m209.38,32.68c-.2-.2-.3-.46-.3-.79,0-.4.15-.75.44-1.04s.71-.44,1.25-.44.93.14,1.22.41.44.59.44.96c0,.34-.09.61-.26.82-.1.12-.25.24-.45.35.22.1.4.22.53.36.24.25.36.58.36.99,0,.48-.16.88-.48,1.22s-.77.5-1.36.5c-.53,0-.98-.14-1.34-.43s-.55-.7-.55-1.25c0-.32.08-.6.24-.83s.39-.41.7-.54c-.19-.08-.34-.18-.44-.28Zm2.2,2.46c.21-.17.31-.43.31-.76s-.11-.62-.32-.8-.49-.27-.83-.27-.59.09-.8.28-.31.44-.31.77c0,.28.09.53.28.73s.48.31.87.31c.32,0,.58-.09.79-.26Zm-.12-2.68c.17-.17.25-.37.25-.6,0-.2-.08-.39-.24-.56s-.41-.25-.74-.25-.57.08-.71.25-.22.37-.22.6c0,.26.09.45.28.6s.41.22.67.22c.3,0,.54-.08.71-.25Z"/>
  <path d="m234.22,34.55c.02.38.17.64.44.78.14.08.3.11.47.11.33,0,.6-.14.83-.41s.39-.82.49-1.66c-.15.24-.34.41-.56.51s-.46.15-.72.15c-.52,0-.94-.16-1.24-.49s-.46-.75-.46-1.26.15-.93.45-1.3.74-.56,1.33-.56c.79,0,1.34.36,1.64,1.07.17.39.25.88.25,1.47,0,.66-.1,1.25-.3,1.77-.33.85-.89,1.28-1.68,1.28-.53,0-.93-.14-1.21-.42s-.41-.63-.41-1.05h.69Zm1.78-1.38c.22-.18.34-.49.34-.93,0-.4-.1-.7-.3-.89s-.46-.29-.77-.29c-.33,0-.6.11-.79.34s-.29.52-.29.9c0,.35.09.64.26.84s.45.31.82.31c.27,0,.52-.09.74-.27Z"/>
  <g>
    <path d="m256.06,32.02v-.52c.49-.05.84-.13,1.03-.24s.34-.38.44-.8h.54v5.41h-.73v-3.84h-1.28Z"/>
    <path d="m263.26,31.3c.24.45.36,1.06.36,1.84,0,.74-.11,1.35-.33,1.83-.32.69-.84,1.04-1.56,1.04-.65,0-1.14-.28-1.46-.85-.27-.47-.4-1.11-.4-1.9,0-.62.08-1.15.24-1.59.3-.82.84-1.24,1.62-1.24.7,0,1.21.29,1.52.87Zm-.69,3.62c.21-.31.31-.9.31-1.75,0-.62-.08-1.12-.23-1.52s-.45-.6-.88-.6c-.4,0-.7.19-.88.57s-.28.93-.28,1.67c0,.55.06,1,.18,1.33.18.51.49.77.93.77.35,0,.64-.16.85-.47Z"/>
  </g>
  <rect class="cls-9" x="-4777.28" y="-3043.9" width="6467.34" height="6437.3"/>
</svg>