<?xml version="1.0" encoding="UTF-8"?>
<svg id="Calque_1" data-name="Calque 1" xmlns="http://www.w3.org/2000/svg" viewBox="0 0 128 128">
  <defs>
    <style>
      .cls-1 {
        fill: #a07637;
      }

      .cls-1, .cls-2, .cls-3 {
        stroke: #1a2e35;
      }

      .cls-1, .cls-2, .cls-3, .cls-4 {
        stroke-linecap: round;
        stroke-linejoin: round;
      }

      .cls-2 {
        fill: #baa584;
      }

      .cls-3 {
        fill: #fff;
      }

      .cls-4 {
        stroke: #fff;
        stroke-width: 8px;
      }

      .cls-4, .cls-5 {
        fill: none;
      }

      .cls-5 {
        stroke: #000;
        stroke-miterlimit: 10;
      }
    </style>
  </defs>
  <g>
    <g>
      <path class="cls-3" d="m107.03,21.02c-1.85-1.8-4.7-2.75-7.02-3.72-.16-.18-3.34-1.65-3.58-1.72-2.15-.65-19.4-5.79-24.05-5.33-5.28.5-8.11,7.66-8.22,7.96-.02.05-.03.11-.05.16h-.2c-.01-.06-.02-.11-.05-.16-.12-.3-2.95-7.46-8.22-7.96-4.66-.46-21.9,4.68-24.05,5.33-.24.07-3.43,1.54-3.58,1.72-2.32.98-5.18,1.93-7.02,3.72-1.94,1.89-1.61,4.82,1.52,4.85,5.86.05,6.98-5.54,11.17-8.06.12-.07.23-.13.34-.2,6.98-2.01,18.44-5.07,21.38-4.78,1.49.14,2.8,1.25,3.84,2.54.33.92,2.25,6.24,2.38,7.16.14,1,0,3.3,0,3.3h4.44s-.14-3.15.43-4.59c.57-1.43,1.43-4.3,1.43-4.3l.71-1.38c1.06-1.37,2.43-2.58,3.99-2.73,2.94-.28,14.4,2.77,21.38,4.78.11.07.22.13.34.2,4.19,2.51,5.31,8.11,11.17,8.06,3.13-.03,3.47-2.95,1.52-4.85Z"/>
      <polygon class="cls-2" points="67.69 28.91 60.31 28.91 61.05 25.08 66.95 25.08 67.69 28.91"/>
      <path class="cls-3" d="m66.17,92.87h.05s-.55-1.36-.14-2.73l-4.09-.14s.27,1.23-.14,2.86c0,0-1.25,1.7-1.25,2.9v5.31c0,1.96,1.58,3.54,3.54,3.54s3.54-1.58,3.54-3.54v-5.31c0-1.2-.6-2.26-1.52-2.9Zm-2.02,8.18c-.98,0-1.77-1.19-1.77-2.66s.79-2.66,1.77-2.66,1.77,1.19,1.77,2.66-.79,2.66-1.77,2.66Z"/>
      <polygon class="cls-3" points="60.31 86.44 67.69 86.44 66.95 90.28 61.05 90.28 60.31 86.44"/>
      <path class="cls-1" d="m60.57,28.62h7.15c.47,0,.85.38.85.85v56.41c0,.47-.38.85-.85.85h-7.15c-.47,0-.85-.38-.85-.85V29.47c0-.47.38-.85.85-.85Z"/>
    </g>
    <line class="cls-5" x1="64.15" y1="101.04" x2="64.15" y2="117.78"/>
  </g>
  <rect class="cls-4" x="-773.4" y="-2748.45" width="6467.34" height="6437.3"/>
</svg>