<?xml version="1.0" encoding="UTF-8"?>
<svg id="Calque_1" data-name="Calque 1" xmlns="http://www.w3.org/2000/svg" viewBox="0 0 200.13 128.13">
  <defs>
    <style>
      .cls-1, .cls-2, .cls-3, .cls-4, .cls-5 {
        stroke-linecap: round;
        stroke-linejoin: round;
      }

      .cls-1, .cls-2, .cls-3, .cls-5 {
        stroke: #000;
      }

      .cls-1, .cls-6 {
        fill: #bfe6fc;
      }

      .cls-2 {
        fill: #fff;
      }

      .cls-3, .cls-4 {
        fill: none;
      }

      .cls-4 {
        stroke: #fff;
        stroke-width: 8px;
      }
    </style>
  </defs>
  <g>
    <path class="cls-3" d="m22.63,72.65c2.58.43,5.27.76,7.88.66,3.48-.13,6.82-1.36,9.97-2.76,2.56-1.14,5.31-2.55,6.85-5.01,1.25-1.97,2.48-4.72,2.57-7.1"/>
    <path class="cls-3" d="m37.51,49.04c-.22.07-.43.15-.65.23-.01,0-.02,0-.02,0-.82.35-1.66.82-2.43,1.01-.73.18-1.5.2-2.27.12-1.2-.12-2.38-.51-3.4-1-1.87-.92-3.45-2.32-4.88-3.84-2.57-2.73-4.27-5.55-4.38-9.34-.1-3.15.76-6.34,2.5-8.96,2.6-3.9,7.43-6.81,12.2-6.68,4.84.13,9.3,2.89,12.44,6.45,1.62,1.84,3.03,4.08,3.41,6.54.03.19.05.38.05.56t0,.02c-.02.5-.11,1.02-.23,1.53-.07.31-.18.62-.27.95-.07.23-.18.51-.28.81-.22.57-.48,1.1-.76,1.56-.73,1.21-2.15,2.68-3.68,2.69.32,1.07-.64,2.41-1.11,2.81s-1.37.77-2.34.62"/>
    <path class="cls-3" d="m52.92,41.69s-3.95-.33-4.02-2.45c-.01-.52.2-1.2.41-1.81"/>
    <path class="cls-3" d="m50.08,34.15c.02.53-.08,1.02-.23,1.53"/>
    <path class="cls-3" d="m37.55,49.03c.65-.18,1.29-.23,1.93.05,1.96.84,4.13,2.72,4.13,2.72,0,0-3.16,2.08-3.99,5.46-.83,3.39-1.47,6.37-4.11,7.78-1.97,1.05-5.55.95-7.65,1.02-1.12.05-2.94.43-4.24.74-.08.02-.17.04-.24.06-.03,0-.1.02-.13.03,0,0-.01.01-.03,0"/>
    <path class="cls-3" d="m37.51,49.04c-.35.15-.59.22-.65.23"/>
    <path class="cls-3" d="m49.86,35.68c-.13.61-.32,1.2-.55,1.76"/>
    <path class="cls-3" d="m26.26,47.84s-.1,2.26,1.41,3.24c2.6,1.69,4.49-.67,4.49-.67"/>
    <path class="cls-3" d="m47.26,27.66s2.24-.28,3.34,1.15c1.88,2.46-.33,4.53-.33,4.53"/>
    <path class="cls-3" d="m85.48,92.65c-.08-.02-.13-.03-.13-.03-.7-.17-1.54-.26-2.58-.22-4.07.15-5.1.23-5.1.23,0,0,1.97-3.39,2-7.29.02-2.15-.31-4.87-.62-6.88"/>
    <path class="cls-3" d="m91.7,96.28c1,1.01,2.02,2.47,3.18,4.52,1.98,3.45.85,6.71-1.68,7.42-2.52.72-3.79-1.56-5.51-3.78-1.71-2.23-2.03-2.51-2.93-2.37-2.08.33-3.89.81-6.05.69-5.09-.3-10.31-2.16-12.23-7.23-2.14-5.64-2.85-11.67-2.07-17.64,0,0-5.7-3.41-9.2-6.4-3.49-2.98-6.32-9.2-6.32-9.2"/>
    <path class="cls-3" d="m88.77,99.6c.49.08,1-.07,1.42-.35s.75-.66,1.02-1.08c.24-.37.45-.78.52-1.21.14-.81-.27-1.47-.88-1.96-1.58-1.28-3.51-2-5.49-2.37"/>
    <g>
      <path class="cls-3" d="m14.56,68.92c.84.62,2.08,1.37,2.56,1.42"/>
      <path class="cls-3" d="m23.68,66.78c-.47.21-.97.33-1.49.36-.13,0-.26,0-.39-.04-.46-.17-.92-1.31-1.18-1.71-.47-.7-.97-1.43-1.61-1.99-1.06-.92-1.51-.22-1.62.21s.94.8,1.43,1.96c.49,1.17.74,2.14.23,2.08-.51-.05-1.13-.27-1.97-1.07-.86-.81-1.54-1.76-2.01-2.58-.48-.82-2.38-.86-1.49.77.22.39.41.72.6,1.01,0,0-.92-.24-1.2.42-.27.64.47,1.84,1.29,2.48.09.08.19.15.3.24-.1.02-.67.17-.79.56-.13.42-.27,1.31,1.24,2.24,1.5.93,3.49,1.37,4.8,1.32,1.3-.07,2.85-.42,2.85-.42"/>
      <path class="cls-3" d="m14.17,65.79c.6.92,1.08,1.41,1.58,1.97.67.72,1.41,1.17,1.89,1.33"/>
    </g>
    <path class="cls-3" d="m60.85,46.25c2.29-.65,4.67-2.49,6.29-4.17,2.03-2.08,2.74-5.08,3.25-7.84.62-3.4,1.03-6.93.34-10.34-.52-2.56-1.48-5.1-2.5-7.5"/>
    <path class="cls-3" d="m52.92,41.7s1.27-3.56,4.37-5.16c3.1-1.6,5.84-2.93,6.58-5.83.56-2.17-.38-5.62-.8-7.68-.24-1.16-.29-3.18-.29-4.54,0-.04,0-.1,0-.14,0,0,0-.02,0-.03"/>
    <path class="cls-3" d="m85.86,69.97c2.01-.15,5.58-.48,8.16-1.12,3.77-.95,6.61-3.66,6.61-3.66,0,0,.16,1.02.97,5.01.21,1.02.5,1.81.83,2.45,0,0,.02.04.05.12"/>
    <path class="cls-3" d="m64.36,44.36s6.71,1.28,10.43,3.98c3.73,2.7,8.39,7.44,8.39,7.44,5.62-2.16,11.64-2.89,17.63-2.14,5.39.67,8.43,5.31,9.91,10.18.63,2.07.59,3.94.76,6.04.07.9.42,1.14,2.99,2.28,2.57,1.15,5.08,1.84,4.97,4.46-.1,2.62-3,4.49-6.82,3.38-2.27-.65-3.93-1.3-5.15-2.03"/>
    <path class="cls-3" d="m110.01,74.32c.19.46.17.99,0,1.46s-.46.88-.81,1.25c-.3.32-.65.62-1.06.79-.75.32-1.49.09-2.11-.39-1.61-1.23-2.77-2.94-3.6-4.78"/>
    <g>
      <path class="cls-3" d="m64.69,11.58c-.16-.45-1.18-1.48-1.98-2.15"/>
      <path class="cls-3" d="m68.22,16.43s-.02-1.59-.26-2.87c-.25-1.29-1.15-3.12-2.41-4.36s-2.09-.89-2.47-.67c-.36.21-.36.8-.36.9-.1-.08-.2-.17-.3-.24-.81-.64-2.15-1.08-2.71-.67-.57.42-.12,1.26-.12,1.26-.33-.12-.69-.22-1.13-.34-1.79-.47-1.3,1.36-.4,1.63.9.26,1.99.7,2.98,1.34.98.63,1.34,1.18,1.51,1.66.18.48-.83.47-2.08.27-1.24-.2-1.85-1.14-2.24-.93s-.97.81.18,1.62c.69.49,1.52.81,2.31,1.1.45.16,1.67.34,1.94.74.07.11.1.24.13.37.09.51.1,1.03,0,1.53"/>
      <path class="cls-3" d="m63.6,12.38c-.26-.43-.88-1.04-1.74-1.52-.66-.35-1.26-.7-2.29-1.07"/>
    </g>
    <path class="cls-3" d="m70.52,80.84c4.03.65,9.05-1.53,10.39-4.78,1.37-3.33-1.54-6.66-3.41-8.29-1.41-1.23-2.98-1.64-3.89-1.81"/>
    <path class="cls-3" d="m84.44,60.54c5.61,3.81,2.22,10.76-2.79,12.93"/>
  </g>
  <path class="cls-1" d="m133.9,115.42l-2.96,3.31-6.8-5.24c-.56-.43-1.02-.96-1.37-1.57-.51-.89-1.16-3.16-.53-3.86.67-.75,2.99-.43,4,.02l.04.02c.63.28,1.2.68,1.68,1.18l5.94,6.16Z"/>
  <rect class="cls-3" x="122.68" y="42.68" width="72.01" height="33.87" transform="translate(218.29 -99.07) rotate(90)"/>
  <polygon class="cls-3" points="170.92 15.27 175.61 23.61 141.75 23.61 146.44 15.27 170.92 15.27"/>
  <line class="cls-3" x1="171.33" y1="89.71" x2="144.98" y2="89.71"/>
  <line class="cls-3" x1="171.33" y1="87.19" x2="144.98" y2="87.19"/>
  <line class="cls-3" x1="171.33" y1="84.66" x2="144.98" y2="84.66"/>
  <line class="cls-3" x1="171.33" y1="82.14" x2="144.98" y2="82.14"/>
  <line class="cls-3" x1="171.33" y1="79.62" x2="144.98" y2="79.62"/>
  <line class="cls-3" x1="171.33" y1="77.1" x2="144.98" y2="77.1"/>
  <line class="cls-3" x1="171.33" y1="74.58" x2="144.98" y2="74.58"/>
  <line class="cls-3" x1="171.33" y1="72.06" x2="144.98" y2="72.06"/>
  <line class="cls-3" x1="171.33" y1="69.54" x2="144.98" y2="69.54"/>
  <line class="cls-3" x1="171.33" y1="67.01" x2="144.98" y2="67.01"/>
  <line class="cls-3" x1="171.33" y1="64.49" x2="144.98" y2="64.49"/>
  <line class="cls-3" x1="171.33" y1="61.97" x2="144.98" y2="61.97"/>
  <line class="cls-3" x1="171.33" y1="59.45" x2="144.98" y2="59.45"/>
  <line class="cls-3" x1="171.33" y1="56.93" x2="144.98" y2="56.93"/>
  <line class="cls-3" x1="171.33" y1="54.41" x2="144.98" y2="54.41"/>
  <line class="cls-3" x1="171.33" y1="51.88" x2="144.98" y2="51.88"/>
  <line class="cls-3" x1="171.33" y1="49.36" x2="144.98" y2="49.36"/>
  <line class="cls-3" x1="169.6" y1="46.84" x2="146.71" y2="46.84"/>
  <line class="cls-3" x1="167.63" y1="44.32" x2="148.68" y2="44.32"/>
  <line class="cls-3" x1="165.73" y1="41.8" x2="150.58" y2="41.8"/>
  <line class="cls-3" x1="162.74" y1="39.28" x2="153.58" y2="39.28"/>
  <path class="cls-2" d="m165.62,84.6h-13.88l-1.97-26.77c-.16-2.19.11-4.39.81-6.48,1.01-3.03,4.96-9.28,7.91-9.28,3.13,0,7.23,6.07,8.29,9.35l.04.13c.67,2.06.93,4.22.77,6.38l-1.97,26.67Z"/>
  <path class="cls-6" d="m159.58,46.28s2.6,2.56,3.78,5.18c1.18,2.62,1.06,7.35.95,8.65-.12,1.3-1.06,15.14-1.06,15.14h-3.67s1.04-11.91,1.06-17.03c.02-5.49-1.06-11.94-1.06-11.94Z"/>
  <g>
    <polygon class="cls-5" points="100.29 81.81 92.75 81.68 93.71 89.17 100.29 81.81"/>
    <line class="cls-3" x1="96.95" y1="85.54" x2="116.59" y2="103.12"/>
  </g>
  <rect class="cls-4" x="-2876.69" y="-1872.09" width="6467.34" height="6437.3"/>
</svg>