<?xml version="1.0" encoding="UTF-8"?>
<svg id="Calque_1" data-name="Calque 1" xmlns="http://www.w3.org/2000/svg" viewBox="0 0 128 128">
  <defs>
    <style>
      .cls-1 {
        fill: #fff;
      }

      .cls-2, .cls-3, .cls-4 {
        fill: #11066e;
      }

      .cls-3 {
        stroke: #fff;
      }

      .cls-3, .cls-4, .cls-5 {
        stroke-width: 2px;
      }

      .cls-3, .cls-4, .cls-5, .cls-6 {
        stroke-linecap: round;
        stroke-linejoin: round;
      }

      .cls-4, .cls-6 {
        stroke: #11066e;
      }

      .cls-5 {
        stroke: #8987f3;
      }

      .cls-5, .cls-6 {
        fill: none;
      }

      .cls-6 {
        stroke-width: 3px;
      }
    </style>
  </defs>
  <rect class="cls-4" x="3.48" y="7.76" width="121.04" height="112.48"/>
  <path class="cls-5" d="m46.03,42.56h-13.11s0-5.44,7.12-5.34c5.26.08,5.98,5.34,5.98,5.34Z"/>
  <path class="cls-3" d="m112.86,35.6c2.6-11.65-4.04-27.84-4.04-27.84h-48.78s1.04,14.4,5.25,36.9c4.21,22.49,12.14,22.01,8.58,27.19-3.56,5.17-2.92.96-10.52,6.79l.48,6.79s-18.93-2.1-21.68-4.21c0,0,3.23,9.06,17.89,13.59,0,0-2.52,1.94-5.43,1.94,0,0,4.88,10.05,1.46,16.44,55.51,18.53,55.66-45.08,55.66-45.08,9.71-5.67,1.74-15.69,1.74-15.69,10.47-17.32-.61-16.83-.61-16.83Z"/>
  <path class="cls-1" d="m65.29,44.66c-4.21-22.5-5.25-36.9-5.25-36.9H3.48v89.72c.29,3.3,3.49,13.61,31.22,19.67,13.25,2.89,19.12.27,21.37-3.96,3.42-6.39-1.46-16.44-1.46-16.44,2.9,0,5.43-1.94,5.43-1.94-14.65-4.53-17.89-13.59-17.89-13.59,2.75,2.1,21.68,4.21,21.68,4.21l-.48-6.79c7.61-5.83,6.96-1.62,10.52-6.79,3.56-5.18-4.37-4.7-8.58-27.19Zm-32.36-2.1s0-5.44,7.12-5.34c5.26.08,5.98,5.34,5.98,5.34h-13.11Z"/>
  <path class="cls-2" d="m46.03,42.56h-13.11s0-5.44,7.12-5.34c5.26.08,5.98,5.34,5.98,5.34Z"/>
  <rect class="cls-6" x="3.48" y="7.76" width="121.04" height="112.48"/>
  <path class="cls-1" d="m86.35,88.45c-.54.54-13.75,13.36-28.8-.24.77.16,19.18,4.2,28.8.24Z"/>
  <path class="cls-1" d="m94.9,43.52h-15.21s0-2.09,7.12-5.34c8.3-3.76,8.09,5.34,8.09,5.34Z"/>
</svg>