<?xml version="1.0" encoding="UTF-8"?>
<svg id="Calque_1" data-name="Calque 1" xmlns="http://www.w3.org/2000/svg" viewBox="0 0 128 128">
  <defs>
    <style>
      .cls-1 {
        fill: #87ccf3;
      }

      .cls-1, .cls-2, .cls-3, .cls-4 {
        stroke-linecap: round;
        stroke-linejoin: round;
      }

      .cls-1, .cls-2, .cls-5 {
        stroke: #000;
      }

      .cls-2 {
        fill: #fff;
      }

      .cls-3 {
        stroke: #222221;
      }

      .cls-3, .cls-4, .cls-5, .cls-6, .cls-7 {
        fill: none;
      }

      .cls-8 {
        fill: #d6d6d6;
      }

      .cls-9 {
        fill: #222221;
      }

      .cls-4 {
        stroke: #fff;
        stroke-width: 8px;
      }

      .cls-5, .cls-6, .cls-7 {
        stroke-miterlimit: 10;
      }

      .cls-6, .cls-7 {
        stroke: #d6d6d6;
      }

      .cls-7 {
        stroke-dasharray: 0 0 1.98 1.98;
      }
    </style>
  </defs>
  <g>
    <line class="cls-6" x1="32.44" y1="106.12" x2="33.44" y2="106.12"/>
    <line class="cls-7" x1="35.43" y1="106.12" x2="105.85" y2="106.12"/>
    <line class="cls-6" x1="106.85" y1="106.12" x2="107.85" y2="106.12"/>
  </g>
  <g>
    <line class="cls-6" x1="32.44" y1="18.25" x2="33.44" y2="18.25"/>
    <line class="cls-7" x1="35.43" y1="18.25" x2="105.85" y2="18.25"/>
    <line class="cls-6" x1="106.85" y1="18.25" x2="107.85" y2="18.25"/>
  </g>
  <g>
    <path class="cls-1" d="m66.98,102.47l-7.19-1.96c-2.88-7.03-2.76-23.67-1.74-30.52h0c.39-3.65,1.87-9.52,1.87-9.52-2.53-1.6-5.38-4.12-7.95-6.63l5.42-6.51c3.78,1.52,7.52,2.58,9.28,2.5l19.85.28c1.59-.51,5.66-1.86,9.76-3.55l4.24,7.55c-2.43,2.29-5.04,4.51-7.34,5.96l.48,10.8c.63,8.39,1.96,21.28,1.48,27.16l-6.43,3.59c-2.25-3.98-6.75-12.15-9.81-18.41-4.86,1.05-7.71-.07-7.72-.08-1.23,6.9-3.23,15.38-4.2,19.34Z"/>
    <path class="cls-2" d="m96.36,39.11c-.07-.26-.15-.52-.28-.76-.46-.79-1.52-1.07-2.41-.86-.12.03-.24.07-.38.12.17-4.01-.54-8.13-2.57-11.53-4.93-8.29-14.89-7.25-14.89-7.25-15.18.26-16.93,13.83-17.08,18.43-.82-.1-1.71.2-2.13.9-.14.23-.21.5-.28.76-.1.37-.18.74-.19,1.11-.05,1.27.79,2.52,1.97,2.97.65.25,1.38.24,2.05.02,2.15,4.62,6.08,8.42,10.9,10.06,6.24,2.13,13.71.38,18.1-4.53,1.4-1.57,2.48-3.43,3.17-5.41.71.29,1.53.32,2.25.05,1.19-.45,2.02-1.7,1.97-2.97-.01-.38-.1-.75-.19-1.11Z"/>
    <path class="cls-2" d="m100.04,100.45c-.74.8-1.68,1.37-2.62,1.89-1.42.8-2.89,1.51-4.38,2.14-.77.32-1.68.61-2.35.19-.26-.16-.44-.41-.62-.67-.08-.11-.59-.99-1.37-2.38l6.44-3.59c1.47.07,2.9.31,4.32.6.43.09.93.25,1.03.69.11.4-.17.81-.46,1.12Z"/>
    <path class="cls-2" d="m66.98,102.46c-.31,1.29-.52,2.09-.56,2.21-.09.29-.19.59-.39.82-.51.6-1.47.6-2.3.53-1.61-.15-3.22-.39-4.82-.72-1.05-.21-2.11-.47-3.06-1.01-.38-.21-.77-.53-.78-.93-.03-.44.39-.75.77-.96,1.27-.72,2.56-1.38,3.94-1.89l7.19,1.96Z"/>
    <path class="cls-2" d="m51.97,53.84c-4.28-4.18-7.78-8.37-7.78-8.37-.92-.57-1.72-1.36-2.32-2.31-.29-.46-.54-1.05-.34-1.58.02-.06.05-.12.11-.14.1-.05.2.06.27.16.21.31.42.61.62.92-.24-.35-.49-.71-.59-1.13-.1-.42-.03-.93.29-1.21.2.38.45.72.74,1.03-.4-.42-.56-1.07-.43-1.65.03-.12.08-.25.18-.31.17-.1.37.06.5.21.31.36.58.76.8,1.19-.25-.38-.41-.82-.48-1.27-.03-.2-.04-.42.04-.6.08-.19.27-.34.45-.3.1.02.18.09.26.16.55.52.82,1.29,1.26,1.92.06.08.13.16.22.16.07,0,.14-.06.19-.11.2-.24.25-.58.39-.87.14-.29.46-.54.72-.39.18.11.24.35.26.57.07.6.16,1.14.03,1.72,1.8,1.87,5.94,4.05,10.02,5.7l-5.42,6.52Z"/>
    <path class="cls-2" d="m100.52,54.11l-4.24-7.55c4.06-1.66,8.15-3.65,9.88-5.45-.13-.58-.03-1.12.03-1.72.03-.22.08-.47.26-.57.27-.15.59.1.72.39.14.29.19.63.39.87.05.06.11.11.18.11.1,0,.17-.08.23-.16.44-.62.71-1.4,1.26-1.92.07-.07.16-.13.26-.16.18-.03.37.11.45.3.08.19.07.4.04.61-.04.31-.14.62-.28.91.18-.29.38-.57.6-.83.14-.15.33-.3.51-.21.1.06.15.19.18.31.13.59-.04,1.24-.43,1.66.29-.31.54-.65.74-1.03.32.28.39.79.29,1.21-.07.32-.23.6-.41.86.14-.22.29-.43.44-.65.07-.09.17-.2.27-.16.05.03.08.09.11.15.2.52-.05,1.11-.34,1.57-.6.95-1.4,1.75-2.32,2.31,0,0-4.09,4.72-8.82,9.15Z"/>
    <path class="cls-9" d="m66.86,38.38c0,.6-.41,1.08-.91,1.08s-.91-.48-.91-1.08.41-1.08.91-1.08.91.48.91,1.08Z"/>
    <path class="cls-9" d="m87.65,38.38c0,.6-.41,1.08-.91,1.08s-.91-.48-.91-1.08.41-1.08.91-1.08.91.48.91,1.08Z"/>
    <path class="cls-3" d="m76.69,41.91c.48-.24.83-.76.81-1.3-.02-.54-.43-1.05-.97-1.14-.29-.05-.59.03-.87.11"/>
  </g>
  <g>
    <line class="cls-5" x1="28.36" y1="9.74" x2="28.36" y2="111.69"/>
    <line class="cls-5" x1="25.29" y1="111.69" x2="31.42" y2="111.69"/>
    <line class="cls-5" x1="25.29" y1="9.74" x2="31.42" y2="9.74"/>
    <line class="cls-5" x1="26.31" y1="15.41" x2="30.4" y2="15.41"/>
    <line class="cls-5" x1="26.31" y1="21.08" x2="30.4" y2="21.08"/>
    <line class="cls-5" x1="26.31" y1="26.75" x2="30.4" y2="26.75"/>
    <line class="cls-5" x1="26.31" y1="32.42" x2="30.4" y2="32.42"/>
    <line class="cls-5" x1="26.31" y1="38.09" x2="30.4" y2="38.09"/>
    <line class="cls-5" x1="26.31" y1="43.76" x2="30.4" y2="43.76"/>
    <line class="cls-5" x1="26.31" y1="49.43" x2="30.4" y2="49.43"/>
    <line class="cls-5" x1="26.31" y1="55.1" x2="30.4" y2="55.1"/>
    <line class="cls-5" x1="26.31" y1="60.77" x2="30.4" y2="60.77"/>
    <line class="cls-5" x1="26.31" y1="66.44" x2="30.4" y2="66.44"/>
    <line class="cls-5" x1="26.31" y1="72.11" x2="30.4" y2="72.11"/>
    <line class="cls-5" x1="26.31" y1="77.78" x2="30.4" y2="77.78"/>
    <line class="cls-5" x1="26.31" y1="83.44" x2="30.4" y2="83.44"/>
    <line class="cls-5" x1="26.31" y1="89.11" x2="30.4" y2="89.11"/>
    <line class="cls-5" x1="26.31" y1="94.78" x2="30.4" y2="94.78"/>
    <line class="cls-5" x1="26.31" y1="100.45" x2="30.4" y2="100.45"/>
    <line class="cls-5" x1="26.31" y1="106.12" x2="30.4" y2="106.12"/>
  </g>
  <g>
    <path class="cls-8" d="m5.61,58.03c.31-.2.68-.3,1.13-.3.59,0,1.08.14,1.47.42s.58.7.58,1.25c0,.34-.08.62-.25.86-.1.14-.29.32-.57.54l-.28.21c-.15.12-.25.25-.3.41-.03.1-.05.25-.05.46h-1.06c.02-.44.06-.74.12-.91.07-.17.24-.36.52-.58l.28-.22c.09-.07.17-.15.23-.23.1-.14.16-.3.16-.47,0-.2-.06-.38-.17-.54-.12-.16-.33-.24-.63-.24s-.52.1-.64.3c-.13.2-.19.41-.19.62h-1.13c.03-.74.29-1.27.78-1.58Zm.65,4.39h1.17v1.13h-1.17v-1.13Z"/>
    <path d="m12.31,60.82c-.02-.16-.07-.3-.16-.43-.13-.17-.32-.26-.58-.26-.38,0-.63.19-.77.56-.07.2-.11.46-.11.79s.04.56.11.75c.13.35.38.53.75.53.26,0,.45-.07.56-.21.11-.14.18-.32.2-.55h1.14c-.03.34-.15.66-.37.96-.35.49-.87.73-1.55.73s-1.19-.2-1.51-.61c-.32-.41-.48-.93-.48-1.58,0-.73.18-1.3.54-1.71.36-.41.85-.61,1.48-.61.53,0,.97.12,1.31.36.34.24.54.66.6,1.27h-1.14Z"/>
    <path d="m19.53,59.31c.18.07.35.2.5.38.12.15.2.33.24.55.03.14.04.35.04.63v2.68h-1.15v-2.71c0-.16-.03-.29-.08-.4-.1-.2-.28-.3-.55-.3-.31,0-.52.13-.64.38-.06.14-.09.3-.09.49v2.54h-1.12v-2.54c0-.25-.03-.44-.08-.55-.09-.21-.28-.31-.55-.31-.32,0-.53.1-.64.31-.06.12-.09.29-.09.52v2.56h-1.13v-4.25h1.08v.62c.14-.22.27-.38.39-.47.22-.17.5-.25.84-.25.33,0,.59.07.79.21.16.13.28.3.37.51.15-.25.33-.43.54-.55.23-.12.48-.18.77-.18.19,0,.37.04.55.11Z"/>
  </g>
  <rect class="cls-4" x="-2105.49" y="-4096.59" width="6467.34" height="6437.3"/>
</svg>