<?xml version="1.0" encoding="UTF-8"?>
<svg xmlns="http://www.w3.org/2000/svg" viewBox="0 0 200.13 128">
  <defs>
    <style>
      .cls-1 {
        fill: #87ccf3;
      }

      .cls-1, .cls-2, .cls-3, .cls-4, .cls-5, .cls-6, .cls-7, .cls-8, .cls-9, .cls-10, .cls-11, .cls-12, .cls-13 {
        stroke-linecap: round;
        stroke-linejoin: round;
      }

      .cls-1, .cls-2, .cls-3, .cls-4, .cls-5, .cls-6, .cls-7, .cls-8, .cls-9, .cls-10, .cls-11, .cls-13, .cls-14 {
        stroke: #000;
      }

      .cls-2, .cls-15 {
        fill: #ff6d75;
      }

      .cls-3, .cls-16, .cls-10 {
        fill: #fff;
      }

      .cls-4, .cls-6, .cls-8, .cls-11, .cls-12, .cls-13, .cls-14 {
        fill: none;
      }

      .cls-17 {
        opacity: .11;
      }

      .cls-18 {
        fill: #fab0b4;
      }

      .cls-5 {
        fill: #76ac75;
      }

      .cls-5, .cls-7, .cls-9, .cls-10, .cls-11, .cls-14 {
        stroke-width: .9px;
      }

      .cls-6 {
        stroke-dasharray: 0 0 3.04 3.04;
      }

      .cls-6, .cls-8, .cls-13 {
        stroke-width: .9px;
      }

      .cls-7 {
        fill: #d6d6d6;
      }

      .cls-8 {
        stroke-dasharray: 0 3;
      }

      .cls-9 {
        fill: #fce9b9;
      }

      .cls-12 {
        stroke: #fff;
        stroke-width: 8px;
      }

      .cls-14 {
        stroke-miterlimit: 10;
      }
    </style>
  </defs>
  <g id="Calque_2" data-name="Calque 2">
    <g class="cls-17">
      <path d="m94.23,58.84c-.91.25-.95,1.25-.98,2.04-.04.9.05,1.86.55,2.63.82,1.24,2.74,1.53,3.64.25l-1.14-.15c.29,1.85,1.61,3.43,3.31,4.17,1.78.77,3.77.48,5.29-.7,1.49-1.14,2.55-3.17,2.09-5.07-.45-1.85-2.54-2.56-4.24-2.13l.79.6c0-2.38.46-5.69-2.21-6.89-.92-.41-2.05-.36-2.81.34-.76.7-.99,1.78-.53,2.71l.37-.92c-1.78.25-3.78-.59-5.32.73-1.06.91-1.13,2.63.04,3.45.66.46,1.28-.62.63-1.08-.34-.24-.3-.76-.13-1.09.26-.5.85-.7,1.37-.78,1.23-.19,2.49.15,3.73-.02.43-.06.53-.6.37-.92-.28-.56.17-1.24.73-1.4.71-.2,1.47.25,1.88.81,1.05,1.4.62,3.44.62,5.05,0,.41.4.7.79.6,1.4-.35,2.82.38,2.75,1.95-.06,1.41-.98,2.69-2.18,3.39-2.56,1.49-5.71-.33-6.16-3.14-.09-.59-.87-.54-1.14-.15-.46.65-1.43-.07-1.65-.56-.19-.43-.23-.89-.22-1.36,0-.12.01-1.15.07-1.17.78-.21.45-1.41-.33-1.21h0Z"/>
    </g>
    <g class="cls-17">
      <path d="m96.46,64.45c0,1.62-.01,3.24-.02,4.86,0,.36-.01.72.19,1.03.21.33.56.44.92.51.8.15,1.6.29,2.39.44.3.06.71-.08.77-.44.16-1,.22-2.01.13-3.03-.03-.34-.27-.62-.62-.62-.32,0-.65.29-.62.62.07.9.06,1.8-.09,2.69l.77-.44c-.68-.13-1.36-.25-2.03-.38-.16-.03-.32-.06-.48-.09-.01,0-.18-.04-.18-.04.05.1.08.13.1.08,0,0,0,0,0-.01.04-.03,0-.35,0-.41v-.56c0-1.41.01-2.82.02-4.24,0-.8-1.25-.81-1.25,0h0Z"/>
    </g>
    <g class="cls-17">
      <path d="m119.86,54.85l-2.18-.21c-.61-.06-1.26-.16-1.85.04-1.07.35-1.63,1.51-1.77,2.56-.32,2.28,1.29,4.44,3.58,4.75l-.44-.44c.51,2.01,3.21,2.86,5.05,2.62,1.03-.13,1.95-.69,2.4-1.66s.39-2.12.26-3.17l-.46.6c2.06-.54,2.8-3.08,1.66-4.79-1.37-2.05-3.97-2.16-6.06-1.27-.74.31-.1,1.39.63,1.08,1.4-.59,3.24-.6,4.26.7.8,1.02.57,2.72-.82,3.08-.24.06-.49.34-.46.6.17,1.42.27,3.37-1.58,3.6-1.22.15-3.33-.36-3.68-1.72-.05-.19-.23-.41-.44-.44-1.67-.23-2.93-1.65-2.68-3.38.13-.88.54-1.62,1.5-1.59,1.02.03,2.05.19,3.07.28.8.08.8-1.17,0-1.25h0Z"/>
    </g>
    <g class="cls-17">
      <path d="m116.98,61.52c-.08,1.87.02,3.73.29,5.58.05.34.48.51.77.44.65-.17,1.31-.3,1.95-.51.33-.1.62-.28.76-.61s.04-.7-.02-1.05c-.23-1.34-.47-2.68-.7-4.02-.06-.33-.47-.52-.77-.44-.35.1-.49.44-.44.77.2,1.13.4,2.26.59,3.39.05.28.1.56.15.85.05.32-.04-.18.17-.12-.07-.02-.29.08-.36.1-.56.14-1.11.29-1.67.43l.77.44c-.25-1.74-.32-3.5-.24-5.25.01-.34-.3-.62-.62-.62-.35,0-.61.29-.62.62h0Z"/>
    </g>
    <g class="cls-17">
      <path d="m134.54,57.53c.55-1.27,1.48-2.24,2.72-2.84l-.86-.22c1.37,2,3.44,3.26,5.5,4.46l.48-1.14c-3.52-.83-7.14-1.13-10.74-.86-.58.04-.78.64-.44,1.07.78,1.01.87,2.37.93,3.59.05,1.04.06,2.57,1.46,2.64.72.04,1.5-.16,2.22-.25.79-.1,1.58-.2,2.38-.3,1.62-.21,3.24-.42,4.87-.62.35-.04.61-.25.62-.62.08-1.83-.21-3.64-.86-5.35-.28-.74-1.49-.42-1.21.33.62,1.61.89,3.29.82,5.02l.62-.62c-2.98.38-5.96.78-8.94,1.15-.22.03-.46.12-.6-.08-.12-.17-.09-.54-.1-.73-.03-.6-.05-1.21-.12-1.81-.14-1.18-.46-2.26-1.2-3.21l-.44,1.07c3.5-.26,7,0,10.41.82.68.16,1.11-.78.48-1.14-1.86-1.07-3.81-2.19-5.06-4.01-.2-.29-.53-.38-.86-.22-1.41.69-2.54,1.86-3.17,3.29-.32.73.76,1.37,1.08.63h0Z"/>
    </g>
    <g class="cls-17">
      <path d="m97.59,81.13c-.29,2.5.37,5.03-.03,7.51-.37,2.34-2.04,4.16-3.67,5.76-3,2.96-6.69,5.23-10.68,6.57-4.57,1.53-9.38,1.64-14.15,1.8-5.13.17-10.26.35-15.39.52v1.25c9.31-1.01,18.68-2.02,27.75-4.44,3.59-.96,7.36-2.15,9.26-5.62,1.72-3.14,1.68-6.93,1.57-10.4-.03-.8-1.28-.81-1.25,0,.11,3.34.22,7.11-1.57,10.08-2.1,3.48-6.54,4.32-10.19,5.21-8.39,2.06-16.99,2.99-25.56,3.92-.78.08-.82,1.28,0,1.25,4.3-.15,8.61-.29,12.91-.44,4.11-.14,8.27-.14,12.33-.8,6.91-1.12,13.61-4.78,17.95-10.33,1.18-1.51,1.89-3.13,2.02-5.05.16-2.27-.32-4.52-.05-6.79.09-.8-1.16-.79-1.25,0h0Z"/>
    </g>
    <g class="cls-17">
      <path d="m98.13,83.28c.51,1.9-.8,3.88-1.65,5.51-.83,1.58-1.73,3.13-2.7,4.64-.95,1.48-1.97,2.92-3.05,4.32-.36.46-1.28,2.03-1.87,2.14-.27.23-.34.15-.2-.23.03-.15.08-.29.16-.43.17-.38.44-.72.68-1.05,3.78-5.29,9.98-9.1,11.17-15.93.14-.78-.96-1.11-1.21-.33-1.88,5.93-6.36,10.67-11.77,13.59-6.28,3.38-13.57,4.25-20.6,3.91-.8-.04-.8,1.21,0,1.25,7.37.36,15.03-.63,21.56-4.26,5.55-3.09,10.09-8.04,12.02-14.16l-1.21-.33c-.77,4.42-3.87,7.69-6.86,10.81-1.43,1.49-2.85,2.98-4.06,4.65-.65.9-1.8,2.53-.82,3.63,1.19,1.33,2.6-.75,3.25-1.56,1.34-1.67,2.6-3.4,3.76-5.2s2.33-3.82,3.33-5.82c.86-1.72,1.79-3.51,1.26-5.48-.21-.78-1.41-.45-1.21.33h0Z"/>
    </g>
    <g class="cls-17">
      <path d="m144.75,94.07c-.93,1.14-.77,2.74.31,3.75.97.91,2.97,1.48,4.22.86,1.36-.67,1.45-2.36.88-3.58-.76-1.62-2.29-2.76-3.92-3.39-.3-.12-.7.13-.77.44-.18.82-.48,1.53-.94,2.23l.71-.29c-.76-.2-1.58-.33-2.31-.61-.67-.25-.6-.45-.59-1.13,0-.38.01-.77.02-1.15.01-.78-.21-1.9.93-1.7.55.1,1.04.34,1.61.24.86-.15,1.3-.83,1.55-1.61.14-.46.19-.99.4-1.42.36-.74,1.5-.5,2.18-.49,1.69.02,3.38.03,5.07.05.44,0,.88,0,1.31.01s.71-.16.79.31c.08.52-.12.94.17,1.46.61,1.1,1.86,1.35,3.01,1.44.2.01.93-.02,1.08.1.22.18.05,1.11.05,1.36-.01.88-.03,1.77-.04,2.65l.79-.6c-1.33-.2-3.08-.78-4.37-.2-.88.4-1.48,1.38-1.08,2.33.83,1.98,4.07,1.12,3.92-.98-.07-.98-.91-1.82-1.88-1.95-1.03-.14-1.86.57-2.24,1.48-.65,1.56-.76,4.93,1.29,5.51,1.12.32,2.2-.53,2.59-1.53.59-1.5-.35-2.97-1.21-4.14-.47-.64-1.56-.02-1.08.63s1.02,1.34,1.18,2.13c.13.63-.16,1.7-.97,1.73-1.23.04-.98-2.66-.8-3.39.13-.55.44-1.3,1.15-1.18.95.17.92,1.43-.02,1.56-.39.05-1.11-.16-.65-.85.24-.37.9-.34,1.27-.33.85.04,1.73.25,2.57.37.4.06.78-.16.79-.6.01-.82.02-1.64.04-2.46,0-.66.19-1.51-.13-2.12-.6-1.14-2.36-.58-3.36-.96-.89-.34-.8-.91-.76-1.7.02-.5-.15-.91-.6-1.15-.54-.29-1.28-.17-1.86-.17-.88,0-1.75-.02-2.63-.03-1.63-.02-3.38-.21-5-.02-.98.11-1.54.71-1.84,1.62-.14.43-.2.88-.35,1.3-.28.76-.78.63-1.46.44-.97-.27-1.97-.2-2.42.83-.27.62-.21,1.37-.23,2.03-.01.76-.2,1.74.04,2.46.17.54.6.77,1.12.93.87.27,1.77.46,2.64.69.28.07.55-.05.71-.29.51-.78.86-1.62,1.06-2.53l-.77.44c.86.33,1.63.84,2.27,1.51.6.64,1.5,1.83.95,2.74-.92,1.54-4.92-.44-3.49-2.21.5-.62-.38-1.51-.88-.88h0Z"/>
    </g>
    <g class="cls-17">
      <path d="m154.58,94.49h-4.28c-.34,0-.62.29-.62.62s.29.62.62.62h4.28c.34,0,.62-.29.62-.62s-.29-.62-.62-.62h0Z"/>
    </g>
    <g class="cls-17">
      <path d="m115.68,90.6c-3.13-1.19-6.43,1.6-5.65,4.9.71,3.02,4.62,3.72,6.43,1.26l-1.14-.15c.47,3.04,3.32,5.08,6.21,5.54,1.55.25,3.33.14,4.63-.84,1.19-.9,1.63-2.44,1.03-3.81l-.22.86c1.68-.98,3.61-2.43,3.14-4.64-.43-2.06-2.63-3.42-4.46-4.09-.58-.21-1.2-.35-1.82-.33-.74.03-1.32.2-2.05-.08-1.23-.47-2.49-.8-3.8-.91-1.41-.13-5.33-.23-4.78,2.2.18.78,1.38.45,1.21-.33-.26-1.16,4.96-.41,5.42-.29.84.22,1.67.72,2.53.82.91.1,1.69-.26,2.63.02,1.41.41,3.31,1.49,3.82,2.97.6,1.74-1.21,2.85-2.48,3.59-.32.18-.36.55-.22.86.62,1.41-.86,2.51-2.06,2.77-1.13.24-2.34.1-3.43-.25-2.04-.65-3.76-2.19-4.1-4.37-.09-.59-.86-.53-1.14-.15-1.32,1.79-3.99.74-4.2-1.32-.23-2.33,2.1-3.8,4.17-3.01.75.29,1.08-.92.33-1.21h0Z"/>
    </g>
    <g class="cls-17">
      <path d="m116.07,98.5c0,1.73.01,3.45.02,5.18,0,.32.29.65.62.62,1.46-.1,2.9.03,4.32.39.39.1.79-.19.79-.6,0-.81.01-1.62.02-2.43s-1.24-.81-1.25,0-.01,1.62-.02,2.43l.79-.6c-1.51-.39-3.09-.54-4.65-.43l.62.62c0-1.73-.01-3.45-.02-5.18,0-.8-1.25-.81-1.25,0h0Z"/>
    </g>
  </g>
  <g id="Calque_1" data-name="Calque 1">
    <path class="cls-5" d="m86.8,81.06c.57,3.38,1.44,8.46-1.89,11.79-3.65,3.65-9.75,2.64-33.16,2.42l-31.97-45.19h73.87c-13.32,4.74-16.17,9.17-16.49,12.22-.62,5.86,7.91,8.65,9.64,18.76Z"/>
    <polygon class="cls-16" points="48.13 71.65 44.59 74.63 48.61 77.73 47.93 75.68 50.45 77.62 51.02 77.57 49.51 75.69 51.62 77.31 52.5 77.84 52.79 77.14 50.35 74.75 50.56 74.49 52.66 76.24 53.47 76.9 53.93 76.45 52.47 74.69 53.68 74.51 53.68 74.03 51.04 73.78 49.26 72.69 48.13 71.65"/>
    <polygon class="cls-16" points="64.95 64.69 61.95 66.38 61.95 67.91 67.32 66.4 64.95 64.69"/>
    <path class="cls-7" d="m164.31,71.09c-5.75-.23-11.5-.63-17.24-.31-7.12.41-14.38,2.03-20.24,6.11-2.9,2.02-5.45,4.64-8.7,6.03-6.03,2.58-11.17,3.1-18.85,2.84.3,3.78-.49,7.7-2.78,10.69-2.85,3.72-7.58,5.53-12.22,6.2-7.05,1.02-14.37.69-21.48.66-2.05-.01-3.87-.01-5.37-.01l-3.01-4.26-2.67-3.77c23.41.22,29.51,1.23,33.16-2.42,3.33-3.33,2.46-8.41,1.89-11.79-1.73-10.11-10.26-12.9-9.64-18.76.32-3.05,3.17-7.48,16.49-12.22h15.91c-13.31,4.73-20.4,9.62-20.72,12.67-.42,4.01,3.12,6.6,5.28,9.45,1.32,1.73,2.43,3.78,3.28,5.93,7.19.19,12.15-.38,17.93-2.86,3.25-1.39,5.8-4.01,8.71-6.03,5.85-4.08,13.11-5.7,20.24-6.11,4.85-.27,9.69-.03,14.54.19l2.65,3.74,2.84,4.03Z"/>
    <path class="cls-5" d="m158.82,63.32c-4.85-.22-9.69-.46-14.54-.19-7.13.41-14.39,2.03-20.24,6.11-2.91,2.02-5.46,4.64-8.71,6.03-5.78,2.48-10.74,3.05-17.93,2.86-.85-2.15-1.96-4.2-3.28-5.93-2.16-2.85-5.7-5.44-5.28-9.45.32-3.05,7.41-7.94,20.72-12.67h39.89l9.37,13.24Z"/>
    <path class="cls-5" d="m190.54,108.17v.04H60.9l-3.47-4.91c1.5,0,3.32,0,5.37.01,7.11.03,14.43.36,21.48-.66,4.64-.67,9.37-2.48,12.22-6.2,2.29-2.99,3.08-6.91,2.78-10.69,7.68.26,12.82-.26,18.85-2.84,3.25-1.39,5.8-4.01,8.7-6.03,5.86-4.08,13.12-5.7,20.24-6.11,5.74-.32,11.49.08,17.24.31l26.23,37.08Z"/>
    <path class="cls-10" d="m60.39,87.39c-4.42-3-22.2-.31-25.19-7.09-2.98-6.78,2.67-9.7,2.67-9.7,0,0,.96,1.28,2.81,2.33,1.85,1.05,3.41,1.67,4.25,2.35,2.11,1.76,4.77,4.15,4.22,2.64-.14-.39-.3-.72-.46-.98l.76.34s0,0,.01,0c.74.48,1.67,1.02,1.97.87.71.34,1.43.69,2.15,1.01,2.31,1.06,4.57,1.93,6.19,2,.17,0,.71.33,1.21.66.37.24.71.48.85.57.2.13.4.29.62.46,4.04,3.07,2.36,7.54-2.07,4.55Z"/>
    <path class="cls-11" d="m48.61,76.8c.06.03.13.06.2.09.08.04.16.07.24.11"/>
    <path class="cls-11" d="m53.91,76.99c-.37.23-.63.2-.9,0,.29,1.91-1.49.67-1.62.58.1.16.16.32.13.46-.01.06-.04.1-.09.12-.3.15-1.23-.38-1.97-.87,0,0-.01,0-.01,0-.15-.1-.29-.19-.41-.28-.3-.2-.52-.37-.56-.39.04.06.08.12.12.19.03.04.06.09.08.14.16.26.32.59.46.98.55,1.51-4.36-2.76-4.42-2.82-.2-.17-.42-.34-.64-.51l4.13-3.34.07.1c1.17,1.41,2.23,2.47,3.7,2.38,3.25-.2,2.04,1.56.61.88.22.15,2.41,1.65,1.3,2.37Z"/>
    <path class="cls-11" d="m47.77,75.88s.33.19.7.73h0"/>
    <path class="cls-11" d="m61.31,58.79c.55,1.53,1.05,2.71,1.63,3.67.68,1.12,1.48,1.94,2.6,2.64,2.91,1.82,4.28,3.92,2.35,4.12"/>
    <path class="cls-11" d="m37.72,70.24c-6.27-5.05-1.59-17.73-1.59-17.73,2.57-6.12,7.36-5.37,8.06-7.19"/>
    <path class="cls-11" d="m50.35,74.63c1.52.71,2.08,1.92,2.67,2.36"/>
    <path class="cls-11" d="m52.61,74.61s-.01-.01-.02-.01"/>
    <path class="cls-11" d="m49.51,75.87s1.42.94,1.87,1.69h0"/>
    <path class="cls-11" d="m48.48,76.61h0"/>
    <path class="cls-11" d="m51.39,77.57h0"/>
    <line class="cls-11" x1="47.51" y1="70.41" x2="47.5" y2="70.41"/>
    <path class="cls-11" d="m45.83,68.56h-.02"/>
    <path class="cls-10" d="m59.46,64.12s-.84,1.9.47,4.97c0,0,3.96,8.19,1.05,12.72,0,0,0,.01-.01.02-2.51-1.48-2.64-.06-5.78-1.79-.65-.35-1.17-.65-1.61-.89l-2.06-1.14c.03-.13-.03-.29-.13-.46.13.1,1.92,1.33,1.62-.58.27.2.53.23.9,0,1.11-.72-1.07-2.23-1.3-2.37,1.43.69,2.64-1.07-.61-.88-1.48.09-2.53-.98-3.7-2.38l-.07-.1-4.13,3.34s-3.84-1.69-5.33-3.07c0,0-1.56-1.57-2.52-2.76-4.43-5.49-.31-18.04,1.69-19.94,2-1.9,6.26-3.51,6.26-3.51,4.1,1.4,7.56.77,8.25.11.03-.03,0,.03,0,0-.02-.08,1.54.21,5.1,2.71,0,0,0,0,.01,0,.08.06.16.12.24.18.05.04.1.09.16.15,3.55,3.22,7.1,15.75,7.1,15.75-.03.06-.1.13-.19.22-.82.75-3.83,2.21-3.83,2.21l-1.58-2.53Z"/>
    <path class="cls-11" d="m61.77,66.79s-.56,5.82.67,4.31.77-3.75,2.42-1.89c1.65,1.86,1.35,3.08,2,1.87s-.62-2.76-.62-2.76"/>
    <path class="cls-11" d="m67.45,70.06s3.08,3.38,1.7.28l-1.08-1.66"/>
    <path class="cls-10" d="m65.24,82.18c-1.3.39-1.79,1.2-1.79,1.2.71.81,1.48,2.35,1.38,3.27-.23,2.06,11.63-.7,9.37-4.52-1.14-1.93-6.13-.73-6.13-.73"/>
    <path class="cls-10" d="m67.06,73.08s-2.36-.53-2.55,4.43c-.05,1.24,0,4.99,0,4.99,0,0,3.16-1.25,6.09-1.44,0,0,2.89-4.8,3.66-10.62s-5.84-4.11-5.84-4.11l-8.66,2.3s3.9,7.98,1.22,13.18l.84.57s1.33-1.11,2.45-2.74"/>
    <path class="cls-9" d="m59.46,64.12c-1.16-2.11-2.95-6.54-4.11-8.76"/>
    <path class="cls-11" d="m42.21,53.35s.48,8.86.03,12.66c0,0,.68-.18,3.34,2.31.08.07,1.18,1.13,1.26,1.21l1.45,1.82"/>
    <path class="cls-18" d="m56.81,43.77h-.02s0-.02,0-.02c0,0,0,.01,0,.02Z"/>
    <path class="cls-8" d="m54.42,99.04h.18c26.75.14,31.77-.15,35.61-4.32,3.34-3.61,3.21-8.56,2.64-12.22-1.73-10.95-10.67-13.24-10.06-19.58.32-3.31,4.41-7.67,17.72-12.79"/>
    <g>
      <path class="cls-13" d="m98.14,81.89c.52.03,1.02.05,1.5.07"/>
      <path class="cls-6" d="m102.69,82.05c6.04.06,9.13-.7,14.64-3.06,3.25-1.4,5.8-4.01,8.7-6.03,5.86-4.08,13.12-5.7,20.25-6.11,4.06-.23,8.12-.1,12.18.08"/>
      <path class="cls-13" d="m159.97,67c.5.02,1,.05,1.5.07"/>
    </g>
    <path class="cls-10" d="m44.41,45.01c.7-1.82,0-6.86,0-6.86-4.59-6.84-2.88-12.34,1.21-15.42,4.09-3.08,12.98-5.4,18.2,3.2,5.22,8.59-2.54,12.29-2.54,12.29,0,0-.72,1.1.08,2.02.8.92-1.23,1.58-1.23,1.58,0,0-1.08,3.66-3.41,4.83,0,0-1.3.7-2.76.31s-2.9-1.64-2.9-1.64"/>
    <path class="cls-11" d="m49.55,33.51s-2.58-1.29-3.06,1.42c-.48,2.7,1.91,2.29,1.91,2.29"/>
    <circle cx="58.61" cy="38.33" r=".63"/>
    <path class="cls-11" d="m57.87,36.14s1.28-1.03,2.42.25"/>
    <line class="cls-11" x1="48.11" y1="35.07" x2="48.68" y2="35.27"/>
    <circle class="cls-18" cx="54.44" cy="38.06" r="1.33"/>
    <path class="cls-15" d="m56.8,43.75s0,0,0,0c-.39.28-1.01.3-1.58-.17-.46-.38-.63-.8-.69-1.15,0,0,0,0,.02,0,.01,0,.04,0,.07-.01.06,0,.14-.02.25-.03.04,0,.08,0,.12,0,.08,0,.16,0,.25.01.18.02.38.08.58.19.05.03.1.05.15.09.04.02.07.04.11.08.27.2.53.52.73,1Z"/>
    <polygon class="cls-18" points="54.52 42.43 54.52 42.43 54.52 42.43 54.52 42.43"/>
    <path class="cls-18" d="m56.8,43.75c-.2-.48-.46-.79-.73-1-.03-.03-.07-.06-.11-.08-.05-.04-.1-.06-.15-.09-.2-.11-.4-.16-.58-.19-.09-.01-.17-.02-.25-.01-.04,0-.08,0-.12,0-.11,0-.19.02-.25.03-.03,0-.06,0-.07.01-.01,0-.02,0-.02,0-.08-.49.08-.86.08-.86.72-1.03,2.12.49,2.12.49.71.63.57,1.36.08,1.69Z"/>
    <path class="cls-14" d="m56.68,42.1s-1.4-1.52-2.12-.49c0,0-.16.37-.08.86.06.36.23.77.69,1.15.56.48,1.18.45,1.58.17,0,0,0,0,0,0,.49-.34.63-1.06-.08-1.69Z"/>
    <path class="cls-11" d="m65.61,31.96s-5.61,2.19-9.58-1.19c0,0-1.51,3.01-4.98,1.01"/>
    <g>
      <path class="cls-1" d="m143.54,109.95s-.07,0-.1,0h-16.94c-.73,0-1.33-.6-1.33-1.33,0-.58.38-1.08.92-1.25.13-.05.27-.07.41-.07h14.32l2.73,2.64Z"/>
      <path class="cls-1" d="m140.75,107.31h-14.25c-.14,0-.29.02-.41.07v-4.09l1.59-5.08h10.15l1.59,7.74,1.34,1.35Z"/>
      <polygon class="cls-1" points="158.22 97.78 156.61 109.96 143.55 109.96 143.54 109.95 140.82 107.31 139.42 105.96 138.1 98.18 133.94 98.18 133.94 94.51 158.22 97.78"/>
      <circle class="cls-3" cx="133.94" cy="109.96" r="3.7"/>
      <circle class="cls-3" cx="150.95" cy="109.96" r="3.7"/>
      <rect class="cls-1" x="129.15" y="100.39" width="4.01" height="3.14"/>
    </g>
    <g>
      <polygon class="cls-2" points="188.64 84.84 188.64 89.61 157.86 89.61 157.86 84.84 165.71 82.54 167.37 77.86 183.58 77.86 186.23 84.84 188.64 84.84"/>
      <line class="cls-4" x1="157.86" y1="87.45" x2="188.64" y2="87.45"/>
      <circle class="cls-3" cx="164.53" cy="89.61" r="3.7"/>
      <circle class="cls-3" cx="180.49" cy="89.61" r="3.7"/>
    </g>
    <rect class="cls-12" x="-270.22" y="-133.07" width="1496.63" height="1236.8"/>
  </g>
</svg>