<?xml version="1.0" encoding="UTF-8"?>
<svg id="Calque_1" data-name="Calque 1" xmlns="http://www.w3.org/2000/svg" viewBox="0 0 200 128">
  <defs>
    <style>
      .cls-1 {
        fill: #ff6d75;
      }

      .cls-1, .cls-2, .cls-3, .cls-4, .cls-5, .cls-6, .cls-7, .cls-8, .cls-9 {
        stroke: #000;
      }

      .cls-1, .cls-2, .cls-3, .cls-4, .cls-5, .cls-6, .cls-7, .cls-8, .cls-9, .cls-10 {
        stroke-linecap: round;
        stroke-linejoin: round;
      }

      .cls-2 {
        fill: #f3d587;
      }

      .cls-3 {
        fill: #fee4cb;
      }

      .cls-4, .cls-11, .cls-8 {
        fill: #fff;
      }

      .cls-5, .cls-9, .cls-10 {
        fill: none;
      }

      .cls-6 {
        fill: #76ac75;
      }

      .cls-6, .cls-7, .cls-8, .cls-9 {
        stroke-width: 2px;
      }

      .cls-12 {
        fill: #ed1c24;
      }

      .cls-7 {
        fill: #d6d6d6;
      }

      .cls-10 {
        stroke: #fff;
        stroke-width: 8px;
      }
    </style>
  </defs>
  <g>
    <path class="cls-12" d="m71.39,48.21c0-.22,0-.41,0-.61,0-9.55,0-19.1,0-28.65,0-4.94,3.29-8.89,8.14-9.76.56-.1,1.14-.13,1.71-.13,18.46,0,36.91,0,55.37,0,.18,0,.35,0,.57,0v39.16h-65.8Zm41.28-21.13c0-.15.01-.28,0-.39-.26-2.2-1.53-3.64-3.47-4.57-1.54-.74-3.17-.82-4.83-.75-4.05.17-6.72,2.58-7.11,6.56-.32,3.26,1.23,5.9,4.12,7.07,2.43.98,4.94.99,7.41.12,1.8-.63,3.06-1.89,3.67-3.73.15-.44.19-.92.3-1.44-1.38,0-2.65,0-3.92.02-.12,0-.3.2-.35.34-.21.69-.56,1.27-1.2,1.65-2.2,1.31-5.08.09-5.59-2.39-.12-.6-.1-1.25-.04-1.87.16-1.65,1.49-2.94,3.16-3.06,1.87-.14,3.28.41,3.7,2.35,0,.03.04.05.07.08h4.09Zm-26.38-1.18v9.25h4.71v-9.27h5.19c0-1.23,0-2.39-.01-3.55,0-.09-.19-.24-.3-.26-.26-.04-.54-.02-.8-.02-4.43,0-8.86,0-13.28,0q-.72,0-.72.74c0,.79,0,1.58,0,2.36q0,.74.72.74c1.47,0,2.94,0,4.51,0Zm40.7,9.26v-3.62h-7.29c0-.28,0-.49,0-.71,0-2.72-.01-5.44.01-8.16,0-.51-.16-.66-.64-.63-.5.03-1,0-1.5,0-.78,0-1.57,0-2.37,0v13.11h11.8Z"/>
    <path class="cls-11" d="m112.66,27.08h-4.09s-.06-.05-.07-.08c-.42-1.95-1.83-2.5-3.7-2.35-1.67.13-3,1.41-3.16,3.06-.06.62-.08,1.27.04,1.87.51,2.49,3.39,3.7,5.59,2.39.64-.38.99-.96,1.2-1.65.04-.14.22-.34.35-.34,1.27-.03,2.54-.02,3.92-.02-.11.52-.15,1-.3,1.44-.61,1.84-1.87,3.1-3.67,3.73-2.47.87-4.98.86-7.41-.12-2.89-1.17-4.44-3.81-4.12-7.07.39-3.99,3.06-6.39,7.11-6.56,1.66-.07,3.3,0,4.83.75,1.94.93,3.21,2.37,3.47,4.57.01.12,0,.24,0,.39Z"/>
    <path class="cls-11" d="m86.28,25.9c-1.58,0-3.04,0-4.51,0q-.72,0-.72-.74c0-.79,0-1.58,0-2.36q0-.74.72-.74c4.43,0,8.86,0,13.28,0,.27,0,.54-.02.8.02.12.02.3.17.3.26.02,1.16.01,2.32.01,3.55h-5.19v9.27h-4.71v-9.25Z"/>
    <path class="cls-11" d="m126.99,35.16h-11.8v-13.11c.8,0,1.59,0,2.37,0,.5,0,1.01.03,1.5,0,.48-.03.65.12.64.63-.02,2.72-.01,5.44-.01,8.16,0,.21,0,.43,0,.71h7.29v3.62Z"/>
  </g>
  <g>
    <circle class="cls-9" cx="79.11" cy="94.79" r="5.65"/>
    <circle class="cls-9" cx="79.11" cy="94.79" r="2.29"/>
  </g>
  <g>
    <circle class="cls-9" cx="32.27" cy="94.79" r="5.65"/>
    <circle class="cls-9" cx="32.27" cy="94.79" r="2.29"/>
  </g>
  <path class="cls-6" d="m18.81,63.63h60.55c4.64,0,8.41,3.77,8.41,8.41v16.94c0,1.12-.91,2.03-2.03,2.03H12.49v-21.06c0-3.49,2.83-6.32,6.32-6.32Z"/>
  <path class="cls-7" d="m12.49,91.01h75.28c0,2.41-1.95,4.36-4.36,4.36H16.85c-2.41,0-4.36-1.95-4.36-4.36h0Z"/>
  <rect class="cls-8" x="55.15" y="68.16" width="12.92" height="22.85"/>
  <path class="cls-8" d="m72.78,68.16h15v12.21h-3.78c-6.19,0-11.22-5.03-11.22-11.22v-.98h0Z"/>
  <path class="cls-3" d="m85.47,83.68h2.31v4.62h-2.31c-1.28,0-2.31-1.04-2.31-2.31h0c0-1.28,1.04-2.31,2.31-2.31Z"/>
  <rect class="cls-3" x="12.49" y="82.28" width="4.62" height="2.81"/>
  <path class="cls-4" d="m12.49,85.09h4.62c0,2.18-1.77,3.95-3.95,3.95h-.67v-3.95h0Z"/>
  <rect class="cls-8" x="42.69" y="68.16" width="8.28" height="8.28" rx="2.03" ry="2.03"/>
  <rect class="cls-8" x="30.59" y="68.16" width="8.28" height="8.28" rx="2.03" ry="2.03"/>
  <rect class="cls-8" x="18.43" y="68.16" width="8.28" height="8.28" rx="2.03" ry="2.03"/>
  <path class="cls-5" d="m87.78,69.6h2.56c.73,0,1.32.59,1.32,1.32v5.97"/>
  <g>
    <path class="cls-8" d="m73.43,89.72c-3.12,0-5.65,2.53-5.65,5.65s2.53,5.65,5.65,5.65,5.65-2.53,5.65-5.65-2.53-5.65-5.65-5.65Zm0,7.94c-1.27,0-2.3-1.03-2.3-2.3s1.03-2.29,2.3-2.29,2.29,1.03,2.29,2.29-1.03,2.3-2.29,2.3Z"/>
    <path class="cls-8" d="m75.72,95.37c0,1.27-1.03,2.3-2.29,2.3s-2.3-1.03-2.3-2.3,1.03-2.29,2.3-2.29,2.29,1.03,2.29,2.29Z"/>
    <path class="cls-8" d="m75.72,95.37c0,1.27-1.03,2.3-2.29,2.3s-2.3-1.03-2.3-2.3,1.03-2.29,2.3-2.29,2.29,1.03,2.29,2.29Z"/>
  </g>
  <g>
    <path class="cls-8" d="m26.59,89.72c-3.12,0-5.65,2.53-5.65,5.65s2.53,5.65,5.65,5.65,5.65-2.53,5.65-5.65-2.53-5.65-5.65-5.65Zm0,7.94c-1.27,0-2.3-1.03-2.3-2.3s1.03-2.29,2.3-2.29,2.29,1.03,2.29,2.29-1.02,2.3-2.29,2.3Z"/>
    <path class="cls-8" d="m28.88,95.37c0,1.27-1.02,2.3-2.29,2.3s-2.3-1.03-2.3-2.3,1.03-2.29,2.3-2.29,2.29,1.03,2.29,2.29Z"/>
    <path class="cls-8" d="m28.88,95.37c0,1.27-1.02,2.3-2.29,2.3s-2.3-1.03-2.3-2.3,1.03-2.29,2.3-2.29,2.29,1.03,2.29,2.29Z"/>
  </g>
  <line class="cls-9" x1="61.62" y1="68.16" x2="61.62" y2="91.01"/>
  <line class="cls-5" x1="59.59" y1="78.7" x2="59.59" y2="81.21"/>
  <line class="cls-5" x1="63.52" y1="78.7" x2="63.52" y2="81.21"/>
  <rect class="cls-5" x="89.72" y="72.22" width="1.94" height="5.84"/>
  <path class="cls-7" d="m154.86,69.33h-42.89c0-5.65,9.6-8.44,21.44-8.44l3.53.09h.21c5.24.29,9.82,1.17,13.01,2.66,2.94,1.38,4.69,3.27,4.69,5.69Z"/>
  <path class="cls-9" d="m136.94,60.98l-3.53-.09c1.2,0,2.39.03,3.53.09Z"/>
  <line class="cls-9" x1="154.86" y1="93.58" x2="154.86" y2="69.33"/>
  <polyline class="cls-9" points="148.84 98.77 153.09 98.77 154.62 98.77 154.86 98.77 154.86 98.57 154.86 97.17 154.86 93.58"/>
  <path class="cls-7" d="m187.52,71.77l-26.39,21.66-6.27,5.14v-29.25l29.71-3.26c1.36,1.72,2.37,3.65,2.95,5.7Z"/>
  <path class="cls-9" d="m180.37,62.13l-27.21-.72c3.64-2.24,8.16-3.57,13.06-3.57,5.4,0,10.34,1.61,14.15,4.29Z"/>
  <path class="cls-9" d="m184.57,66.07l-29.71,3.26c0-2.42-1.76-4.31-4.69-5.69-3.19-1.49-7.77-2.37-13.01-2.65l16.01.43,27.21.72c1.62,1.13,3.05,2.46,4.2,3.94Z"/>
  <path class="cls-9" d="m184.57,66.07l-29.71,3.26c0-2.42-1.76-4.31-4.69-5.69-3.19-1.49-7.77-2.37-13.01-2.65l16.01.43,27.21.72c1.62,1.13,3.05,2.46,4.2,3.94Z"/>
  <path class="cls-7" d="m184.57,66.07l-29.71,3.26c0-2.42-1.76-4.31-4.69-5.69-3.19-1.49-7.77-2.37-13.01-2.65l16.01.43,27.21.72c1.62,1.13,3.05,2.46,4.2,3.94Z"/>
  <path class="cls-9" d="m161.13,93.43l26.39-21.66c.38,1.33.58,2.7.58,4.11v12.5h-17.48l-6.01,5.49"/>
  <line class="cls-9" x1="164.6" y1="93.87" x2="138.63" y2="117.63"/>
  <polyline class="cls-7" points="154.86 98.77 124.19 98.77 119.81 98.77 111.97 98.77 111.97 69.33 154.86 69.33 154.86 98.57 154.62 98.77"/>
  <line class="cls-9" x1="153.09" y1="98.77" x2="135.54" y2="114.67"/>
  <line class="cls-9" x1="148.84" y1="98.77" x2="130.35" y2="114.68"/>
  <line class="cls-9" x1="122.48" y1="98.77" x2="98.44" y2="113.35"/>
  <line class="cls-9" x1="118.71" y1="98.77" x2="92.03" y2="113.35"/>
  <rect class="cls-4" x="126.95" y="71.64" width="10.48" height="24.81" rx="2.46" ry="2.46"/>
  <rect class="cls-4" x="114.42" y="71.64" width="10.48" height="12.12" rx="1.72" ry="1.72"/>
  <rect class="cls-4" x="141.13" y="71.64" width="10.48" height="12.12" rx="1.72" ry="1.72"/>
  <rect class="cls-5" x="129.12" y="73.66" width="6.13" height="12.22" rx="1.32" ry="1.32"/>
  <polygon class="cls-4" points="156.67 73.57 162.84 72.05 162.84 81.01 156.67 84.34 156.67 73.57"/>
  <polygon class="cls-4" points="164.6 71.93 169.32 70.78 169.32 77.62 164.6 80.16 164.6 71.93"/>
  <polygon class="cls-4" points="171.19 70.64 174.94 69.77 174.94 74.92 171.19 76.83 171.19 70.64"/>
  <polygon class="cls-4" points="176.82 69.85 180.09 68.74 180.09 77.49 176.82 80.37 176.82 69.85"/>
  <path class="cls-9" d="m172.39,61.95s5.17.54,7.19,1.76,2.39,2.64,2.39,2.64v9.97"/>
  <line class="cls-5" x1="116.92" y1="102.58" x2="144.31" y2="102.58"/>
  <line class="cls-5" x1="113.35" y1="104.56" x2="141.72" y2="104.56"/>
  <line class="cls-5" x1="107.89" y1="108.03" x2="137.92" y2="108.03"/>
  <line class="cls-5" x1="104.59" y1="110" x2="135.08" y2="110"/>
  <line class="cls-5" x1="115.64" y1="83.76" x2="115.64" y2="98.77"/>
  <line class="cls-5" x1="151.1" y1="83.76" x2="151.1" y2="98.77"/>
  <rect class="cls-1" x="125.58" y="63.27" width="15.65" height="3.69" rx="1.84" ry="1.84"/>
  <rect class="cls-2" x="118.71" y="91.03" width="5.69" height="4.38" rx="2.19" ry="2.19"/>
  <rect class="cls-2" x="140.92" y="91.03" width="5.69" height="4.38" rx="2.19" ry="2.19"/>
  <line class="cls-5" x1="120.51" y1="91.03" x2="120.51" y2="95.2"/>
  <line class="cls-5" x1="144.81" y1="91.03" x2="144.81" y2="95.09"/>
  <rect class="cls-10" x="-983.58" y="-282.18" width="1509.9" height="999.05"/>
</svg>