<?xml version="1.0" encoding="UTF-8"?>
<svg id="Calque_1" data-name="Calque 1" xmlns="http://www.w3.org/2000/svg" xmlns:xlink="http://www.w3.org/1999/xlink" viewBox="0 0 200 128">
  <defs>
    <style>
      .cls-1, .cls-2 {
        fill: none;
      }

      .cls-3, .cls-4 {
        stroke: #000;
      }

      .cls-3, .cls-4, .cls-2 {
        stroke-linecap: round;
        stroke-linejoin: round;
      }

      .cls-3, .cls-5 {
        fill: #d6d6d6;
      }

      .cls-4 {
        fill: #fff;
      }

      .cls-6 {
        clip-path: url(#clippath);
      }

      .cls-7 {
        fill: #ff6d75;
      }

      .cls-8 {
        fill: #b2f0e9;
      }

      .cls-9 {
        fill: #bfe6fc;
      }

      .cls-10 {
        fill: #8987f3;
      }

      .cls-11 {
        fill: #87ccf3;
      }

      .cls-2 {
        stroke: #fff;
        stroke-width: 8px;
      }
    </style>
    <clipPath id="clippath">
      <rect class="cls-1" x="9.37" y="17.32" width="62.98" height="35.58"/>
    </clipPath>
  </defs>
  <g>
    <rect class="cls-9" x="8.51" y="16.88" width="64.7" height="36.46"/>
    <path d="m73.22,54.22H8.51c-.49,0-.88-.39-.88-.88V16.88c0-.49.39-.88.88-.88h64.7c.49,0,.88.39.88.88v36.46c0,.49-.39.88-.88.88Zm-63.82-1.76h62.94V17.76H9.39v34.7Z"/>
  </g>
  <rect x="7.63" y="52.73" width="66.46" height="4.21"/>
  <circle class="cls-7" cx="68" cy="55.09" r=".83"/>
  <circle class="cls-5" cx="70.43" cy="55.09" r=".83"/>
  <g class="cls-6">
    <rect class="cls-8" x="9.37" y="17.32" width="62.98" height="35.58"/>
    <g>
      <path class="cls-10" d="m-24.51,69.06H119.1c.09,0,.17.07.17.17v.05c0,.09-.07.17-.17.17H-24.51c-.09,0-.17-.07-.17-.17v-.05c0-.09.07-.17.17-.17Z"/>
      <path class="cls-11" d="m48.9,45.76H9.19v-19.86c3.03-.96,6.26-1.47,9.6-1.47,3.67,0,7.2.62,10.48,1.76,5.27,1.83,9.92,5.01,13.52,9.12,2.65,3.03,4.74,6.56,6.11,10.44Z"/>
      <path class="cls-10" d="m25.2,44.75s.97-.51,1.27-.43c.3.08,1.51.56,1.66.78.24.34.66.89.39.92s-2.65-.08-2.92-.12c-.27-.05-.88-.37-.4-1.15Z"/>
      <path class="cls-10" d="m44.71,45.11c-.15-.22-1.36-.7-1.66-.78-.1-.03-.28.01-.47.08-.65-.35-5.54-1.12-5.95-1.32-.41-.2-3.05-6.56-3.58-6.97,0,0,0,0,0,0v-.02s-.99-.71-3.1-.87l.06-.66c.1,0,.15-.01.15-.01.76-.13.87-2.97.72-3.97.03-.02.06-.03.06-.06.69-.18.64-1.52.64-1.59,0,0-.88-.15-1.88-.7-.81-.45-1.92-.14-2.28.01.01-.06.04-.13.1-.2,0,0-.17.1-.2.25-.02.01-.03.02-.02.02,0,0-.17-.05-.29,0,0,0,.08,0,.1.05,0,0,0,.01.01.02-1.38.52-1.69,2.59-1.31,3.11.46.63.95,1.99.95,1.99,0,0,.04-.06.09-.15.01.04.03.08.05.11,0,.18,0,.35,0,.5-.05.5-.22.91-.38,1.5-.75.13-1.57.32-2.47.6-.03,0-.06.02-.08.02,0,0-.01,0-.02,0h0c-.61.19-1.35.5-1.87,1-.97.92-3.95,5.57-4.81,7.26-.14.27.12.91.35,1.1.59.48,1.85.9,5.09.67l1.66-.08c.5,1.12,1.29,1.88,2.51,1.89.12,0,.23,0,.35,0,4.57,0,5.83-1.11,5.83-1.11v-3.6s0,.01,0,.02h0c1,1.34,2.01,2.46,2.27,2.56.48.19,5.36.35,6.64.07.07.03.14.06.19.07.27.05,2.64.15,2.92.12.27-.03-.15-.58-.39-.92Zm-23.99-1.27s1.8-1.54,2.85-2.56c.01.98.09,1.98.26,2.9l-3.11-.34Z"/>
      <polygon class="cls-10" points="52.15 42.58 48.38 42.07 51.68 47.42 55.26 47.9 52.15 42.58"/>
      <path class="cls-10" d="m58.03,41.92c-.98,1.23-2.31,2.38-3.08,2.72-.11.05-.24.09-.4.12-.26-.19-.44-.46-.57-.73,1.01.22,2.88-1.42,3.21-1.74.34-.33.81-.36.83-.37Z"/>
      <path class="cls-10" d="m64.91,43.71c-.07-.11-.14-.22-.19-.34-.13-.3-.2-.63-.19-.96,0-.07,0-.15,0-.22.04-1,.18-1.9.27-2.58.09-.27.16-.52.2-.73.02-.1.04-.2.04-.29.21-1.66-.58-2-.58-2-.02,0-.03-.02-.05-.02,0,0,0,0-.01,0-.12-.06-.25-.11-.39-.15-.6-.16-1.31-.16-1.31-.16-.17-.01-.35-.02-.5-.02-.25-.17-.62-.86-.78-1.94,0-.03.19-.6.54-.46.36.14.85-.33,1.02-1.08,0,0,0,0,0-.01.08-.19,1.09-2.6-.22-3.5-.89-.61-1.42-.17-1.61.07-.88-.53-1.9.4-2.46,1.06-.18-.12-.49-.19-.82.33-.51.78.16,1.99.16,1.99.01,0,.02,0,.03,0,.14.93.6,2.48,1.1,2.46,0,0,.15-.02.37-.06.03.19.06.41.09.63.05.43.07.85,0,.95-.14.04-.23.06-.23.06-1.07.26-1.43.6-1.43.6h0c-.14.12-.31.3-.47.54,0,0-.01,0-.01.02-.04.05-.07.1-.11.16-.01.01-.02.03-.03.04-.08.12-.16.25-.24.39-.91,1.44-1.97,3.66-2.68,4.27-.11.1-.36.21-.68.34-.32.13-.71.26-1.11.39l-.5-.86-3.76-.5,1.17,1.9c-.16,0-.29.01-.35.06-.19.15-.22,1.02.07,1.35.17.2.63-.08.95-.32l1.46,2.36,3.58.48-.64-1.1c.55-.12,1.1-.19,1.38-.22h0s.02,0,.04,0c.09,0,.16-.01.16-.01h0c.33-.02.72-.05,1.15-.09h0c.07,0,.14-.01.21-.02.29-.03.59-.07.88-.11.05.58.08.97.08.97-.11.37.93.57,2.28.63.05,0,.09,0,.14,0,.17,0,.33.01.5.02.11,0,.23,0,.35,0,.1,0,.2,0,.31,0,.01,0,.03,0,.04,0,.12,0,.24,0,.36-.01.13,0,.25,0,.37-.01.02,0,.03,0,.05,0,1.67-.08,3.19-.34,3.25-.73.4-.93-.62-2.63-1.21-3.5Zm-11.14,1.72c.16.04.32.07.32.07-.08.02-.16.03-.26.03l-.06-.1Zm3.07-.22c-.34.14-.67.27-.94.37h0c-.11,0-.46.04-.83.04.03,0-.45-.37-.66-.39-.34-.05-.65-.1-.83-.12l-.13-.23c.41-.01.8-.05,1.11-.11.16-.03.29-.07.4-.12.1-.04.21-.1.32-.17.04-.02.08-.05.12-.08.08-.05.16-.1.25-.17.05-.03.1-.07.15-.11.08-.06.16-.12.25-.19.06-.05.12-.1.18-.15.08-.07.16-.13.24-.2.06-.06.13-.12.19-.18.08-.07.15-.14.23-.22.07-.07.13-.13.2-.2.07-.07.15-.15.22-.23.07-.07.14-.15.2-.22.07-.08.14-.15.2-.23.07-.08.13-.16.2-.24.01-.02.03-.04.05-.05.05.38.1.78.15,1.19.05.47.1.94.14,1.4-.21.09-.42.19-.64.28-.23.1-.46.19-.68.28-.03.01-.05.02-.08.03Z"/>
    </g>
  </g>
  <rect class="cls-5" x="9.37" y="45.76" width="62.98" height="7.14"/>
  <rect class="cls-3" x="126.55" y="77.9" width="28.58" height="40.6"/>
  <rect class="cls-3" x="61.92" y="77.9" width="28.58" height="40.6"/>
  <rect class="cls-3" x="90.5" y="77.9" width="36.05" height="40.6"/>
  <rect class="cls-3" x="90.5" y="77.9" width="36.05" height="4.55"/>
  <rect class="cls-3" x="90.5" y="82.81" width="36.05" height="2.91"/>
  <rect class="cls-3" x="90.5" y="86.09" width="36.05" height="29.49"/>
  <rect class="cls-4" x="95.05" y="91.92" width="26.95" height="20.94"/>
  <rect class="cls-3" x="90.5" y="118.5" width="36.05" height="4.73"/>
  <rect class="cls-3" x="90.5" y="35.11" width="36.05" height="4.73"/>
  <path class="cls-4" d="m94.5,89.82h28.05c.49,0,.89-.45.89-1h0c0-.55-.4-1-.89-1h-28.05c-.49,0-.89.45-.89,1h0c0,.55.4,1,.89,1Z"/>
  <circle class="cls-4" cx="100.6" cy="80.17" r=".79"/>
  <rect class="cls-4" x="107.57" y="79.39" width="3.94" height="1.57" transform="translate(219.08 160.35) rotate(-180)"/>
  <rect class="cls-3" x="126.55" y="118.5" width="28.58" height="4.73" transform="translate(281.69 241.73) rotate(-180)"/>
  <rect class="cls-3" x="62.46" y="118.5" width="27.49" height="4.73"/>
  <line class="cls-3" x1="62.46" y1="88.37" x2="89.96" y2="88.37"/>
  <line class="cls-3" x1="62.46" y1="98.02" x2="89.96" y2="98.02"/>
  <line class="cls-3" x1="62.46" y1="107.66" x2="89.96" y2="107.66"/>
  <rect class="cls-3" x="34.43" y="77.9" width="27.49" height="40.6"/>
  <rect class="cls-3" x="34.43" y="118.5" width="27.49" height="4.73" transform="translate(96.35 241.73) rotate(-180)"/>
  <rect class="cls-3" x="6.57" y="77.9" width="27.49" height="40.6"/>
  <rect class="cls-3" x="6.57" y="118.5" width="27.49" height="4.73"/>
  <polygon class="cls-3" points="120 29.83 115.6 29.83 108.53 29.83 101.46 29.83 97.06 29.83 90.5 35.11 97.42 35.11 108.53 35.11 119.63 35.11 126.55 35.11 120 29.83"/>
  <polygon class="cls-3" points="35.15 75.17 33.33 75.17 33.33 74.98 35.15 74.99 35.15 75.17"/>
  <rect class="cls-3" x="90.5" y="76.08" width="36.05" height="1.82" transform="translate(217.06 153.97) rotate(-180)"/>
  <polygon class="cls-3" points="115.63 12.9 103.99 12.9 101.43 12.9 97.06 12.9 97.06 29.83 101.43 29.83 115.63 29.83 120 29.83 120 28.9 120 12.9 115.63 12.9"/>
  <path class="cls-3" d="m189.67,30.2h-33.01s-.04,0-.06,0c-.81.03-1.46.7-1.46,1.51v49.83h36.05V31.71c0-.84-.68-1.52-1.52-1.52Z"/>
  <polygon class="cls-3" points="156.59 81.54 155.14 81.54 155.14 121.41 156.59 121.41 191.19 121.41 191.19 81.54 156.59 81.54"/>
  <g>
    <rect class="cls-4" x="158.05" y="52.41" width="1.82" height="27.67" transform="translate(317.92 132.49) rotate(-180)"/>
    <rect class="cls-4" x="158.05" y="82.99" width="1.82" height="15.66" transform="translate(317.92 181.65) rotate(-180)"/>
  </g>
  <g>
    <path class="cls-3" d="m158.51,121.41h0c.9,0,1.64.73,1.64,1.64v.18h-3.28v-.18c0-.9.73-1.64,1.64-1.64Z" transform="translate(317.01 244.64) rotate(-180)"/>
    <path class="cls-3" d="m187.82,121.41h0c.9,0,1.64.73,1.64,1.64v.18h-3.28v-.18c0-.9.73-1.64,1.64-1.64Z" transform="translate(375.64 244.64) rotate(180)"/>
  </g>
  <g>
    <path class="cls-5" d="m33.65,75.11c-.13,0-.26-.05-.35-.15s-.14-.22-.14-.36c0-.05.04-5.12,0-6.76v-.42s0-.09.02-.13c.04-1.54.45-2.71,1.19-3.48.64-.66,1.48-.99,2.5-.99,1.73,0,3.58,1.41,3.58,5.38,0,.28-.22.5-.5.5h-1.28c-.28,0-.5-.22-.5-.5,0-1.85-.52-3.09-1.3-3.09-.39,0-.66.1-.86.3-.2.21-.54.74-.56,2.03,0,.11,0,7.18,0,7.18,0,.13-.05.26-.15.36-.09.09-.22.14-.35.14,0,0-1.29-.01-1.29-.01Z"/>
    <path d="m36.86,63.32c1.49,0,3.08,1.28,3.08,4.88h-1.28c0-2.22-.69-3.59-1.8-3.59-.52,0-.92.15-1.22.46-.32.33-.68,1-.71,2.37,0,.12,0,.24,0,.37,0,0,0,0,0,.01v6.81h-1.28c0-.06.04-5.12,0-6.79,0,0,0-.01,0-.02v-.38h.01c.02-1.45.37-2.56,1.05-3.26.55-.56,1.27-.84,2.14-.84m0-1c-1.14,0-2.13.4-2.86,1.15-.83.85-1.28,2.12-1.33,3.77-.01.06-.02.13-.02.19v.38s0,.04,0,.05c.04,1.64,0,6.69,0,6.74,0,.27.1.52.29.71.19.19.44.3.7.3h1.28s0,.01,0,.01c.26,0,.52-.1.7-.29.19-.19.3-.44.3-.71v-6.81c0-.15,0-.26,0-.36.02-1.18.33-1.59.42-1.69.05-.05.15-.15.5-.15.33,0,.8.9.8,2.59,0,.55.45,1,1,1h1.28c.55,0,1-.45,1-1,0-4.34-2.2-5.88-4.08-5.88h0Z"/>
  </g>
  <g>
    <rect class="cls-5" x="38.03" y="67.57" width="2.54" height="1.64" rx=".5" ry=".5"/>
    <path d="m40.07,68.07v.64h-1.54v-.64h1.54m0-1h-1.54c-.55,0-1,.45-1,1v.64c0,.55.45,1,1,1h1.54c.55,0,1-.45,1-1v-.64c0-.55-.45-1-1-1h0Z"/>
  </g>
  <rect class="cls-3" x="16.4" y="74.62" width="35.69" height="1.46" transform="translate(68.49 150.7) rotate(-180)"/>
  <rect class="cls-3" x="96.16" y="75.73" width="8.17" height=".34" transform="translate(200.49 151.81) rotate(-180)"/>
  <path class="cls-3" d="m94.31,67.99v5.35c0,1.32.95,2.39,2.12,2.39h7.63c1.17,0,2.12-1.07,2.12-2.39v-5.35h-11.87Z"/>
  <path class="cls-3" d="m99.81,66.19c.06,0,.13,0,.19,0-.71.01-1.38.08-2.02.2.57-.13,1.18-.2,1.82-.2Z"/>
  <path class="cls-3" d="m106.09,67.99h-11.69c.74-.73,2.02-1.31,3.59-1.6.63-.12,1.31-.18,2.02-.2h.23c2.56,0,4.77.73,5.85,1.8Z"/>
  <rect class="cls-3" x="99.09" y="65.47" width="2.18" height=".75" transform="translate(200.37 131.7) rotate(-180)"/>
  <path class="cls-3" d="m98.82,65.55h2.73c.09,0,.17-.08.17-.17s-.08-.17-.17-.17h-2.73c-.09,0-.17.08-.17.17,0,.09.08.17.17.17Z"/>
  <circle class="cls-4" cx="103.64" cy="80.17" r=".79"/>
  <path class="cls-4" d="m80.4,82.65v.98h-.73s-6.91,0-6.91,0h-.73v-.98c0-.16.13-.3.3-.3h7.78c.16,0,.3.13.3.3Z"/>
  <path class="cls-4" d="m80.4,93.03v.98h-.73s-6.91,0-6.91,0h-.73v-.98c0-.16.13-.3.3-.3h7.78c.16,0,.3.13.3.3Z"/>
  <path class="cls-4" d="m80.4,102.68v.98h-.73s-6.91,0-6.91,0h-.73v-.98c0-.16.13-.3.3-.3h7.78c.16,0,.3.13.3.3Z"/>
  <path class="cls-4" d="m80.4,113.06v.98h-.73s-6.91,0-6.91,0h-.73v-.98c0-.16.13-.3.3-.3h7.78c.16,0,.3.13.3.3Z"/>
  <path class="cls-4" d="m39.15,82.01c.16,0,.3.13.3.3v7.78c0,.16-.13.3-.3.3h-.98v-.73s0-6.91,0-6.91v-.73h.98Z"/>
  <path class="cls-4" d="m29.34,82.01h.98v.73s0,6.91,0,6.91v.73h-.98c-.16,0-.3-.13-.3-.3v-7.78c0-.16.13-.3.3-.3Z"/>
  <path class="cls-4" d="m6.26,76.08h148.88v1.82H6.26c-.43,0-.78-.35-.78-.77v-.27c0-.43.35-.77.78-.77Z"/>
  <rect class="cls-2" x="-3407.7" y="-5966.44" width="6467.34" height="6437.3"/>
</svg>