<?xml version="1.0" encoding="UTF-8"?>
<svg id="Calque_1" data-name="Calque 1" xmlns="http://www.w3.org/2000/svg" viewBox="0 0 200 128">
  <defs>
    <style>
      .cls-1, .cls-2, .cls-3, .cls-4, .cls-5, .cls-6, .cls-7 {
        stroke-linecap: round;
      }

      .cls-1, .cls-2, .cls-3, .cls-4, .cls-5, .cls-6, .cls-7, .cls-8 {
        stroke-linejoin: round;
      }

      .cls-1, .cls-2, .cls-3, .cls-4, .cls-5, .cls-6, .cls-8 {
        stroke: #000;
      }

      .cls-1, .cls-9 {
        fill: #87ccf3;
      }

      .cls-2 {
        fill: #b4eac3;
      }

      .cls-3 {
        fill: #f3d587;
      }

      .cls-4 {
        fill: #fff;
      }

      .cls-5, .cls-7 {
        fill: none;
      }

      .cls-6 {
        fill: #fab0b4;
      }

      .cls-10 {
        fill: #bfe6fc;
      }

      .cls-7 {
        stroke: #fff;
        stroke-width: 8px;
      }

      .cls-8 {
        fill: #baa584;
      }
    </style>
  </defs>
  <rect class="cls-3" x="16.4" y="85.73" width="74.72" height="5.77"/>
  <g>
    <rect class="cls-5" x="16.46" y="62.25" width="74.66" height="28.81"/>
    <g>
      <rect class="cls-4" x="16.46" y="62.25" width="74.66" height="3.95"/>
      <rect class="cls-4" x="91.12" y="59.81" width="3.84" height="47.86" transform="translate(186.08 167.48) rotate(180)"/>
      <rect class="cls-4" x="16.46" y="91.06" width="74.66" height="9.27"/>
      <circle class="cls-4" cx="93.04" cy="57.05" r="3.17"/>
      <rect class="cls-4" x="12.56" y="59.81" width="3.84" height="47.86" transform="translate(28.95 167.48) rotate(180)"/>
      <rect class="cls-4" x="24.15" y="66.2" width="3.84" height="24.86" transform="translate(52.13 157.26) rotate(180)"/>
      <rect class="cls-4" x="35.24" y="66.2" width="3.84" height="24.86" transform="translate(74.31 157.26) rotate(180)"/>
      <rect class="cls-4" x="46.33" y="66.2" width="3.84" height="24.86" transform="translate(96.49 157.26) rotate(180)"/>
      <rect class="cls-4" x="57.42" y="66.2" width="3.84" height="24.86" transform="translate(118.68 157.26) rotate(180)"/>
      <rect class="cls-4" x="68.51" y="66.2" width="3.84" height="24.86" transform="translate(140.86 157.26) rotate(180)"/>
      <rect class="cls-4" x="79.6" y="66.2" width="3.84" height="24.86" transform="translate(163.04 157.26) rotate(180)"/>
      <circle class="cls-4" cx="14.48" cy="57.05" r="3.17"/>
    </g>
    <polyline class="cls-5" points="14.48 53.88 14.48 35.71 30.47 35.71 30.47 41.18 20.52 46.99"/>
    <polyline class="cls-5" points="30.52 35.71 30.52 41.18 40.47 46.99"/>
    <line class="cls-5" x1="30.47" y1="41.18" x2="30.47" y2="46.41"/>
    <rect class="cls-1" x="28.98" y="46.52" width="2.97" height="2.97" transform="translate(42.87 -7.48) rotate(45)"/>
    <rect class="cls-2" x="19.01" y="46.52" width="2.97" height="2.97" transform="translate(68.5 27.52) rotate(90)"/>
    <rect class="cls-6" x="38.71" y="46.61" width="3.51" height="3.51" rx="1.75" ry="1.75" transform="translate(46.05 -14.45) rotate(45)"/>
  </g>
  <line class="cls-5" x1="5.57" y1="107.78" x2="195.18" y2="107.78"/>
  <path d="m162.5,91.18h-21.29c-.17,0-.31-.14-.31-.31s.14-.31.31-.31h21.29c.17,0,.31.14.31.31s-.14.31-.31.31Z"/>
  <g>
    <rect class="cls-10" x="117.21" y="47.83" width="69.3" height="39.05"/>
    <path d="m186.51,87.82h-69.3c-.52,0-.94-.42-.94-.94v-39.05c0-.52.42-.94.94-.94h69.3c.52,0,.94.42.94.94v39.05c0,.52-.42.94-.94.94Zm-68.35-1.88h67.41v-37.16h-67.41v37.16Z"/>
  </g>
  <rect x="150.09" y="87.34" width="3.53" height="1.96"/>
  <g>
    <polygon points="141.64 89.3 141.22 90.68 162.5 90.68 162.04 89.3 141.64 89.3"/>
    <path d="m162.5,90.99h-21.28c-.1,0-.19-.05-.25-.13-.06-.08-.08-.18-.05-.28l.42-1.38c.04-.13.16-.22.3-.22h20.4c.13,0,.26.09.3.21l.46,1.38c.03.1.02.2-.04.28-.06.08-.15.13-.25.13Zm-20.86-.63h20.42l-.25-.75h-19.94l-.23.75Z"/>
  </g>
  <polygon class="cls-9" points="118.15 48.78 118.15 85.94 139.5 48.78 118.15 48.78"/>
  <rect class="cls-8" x="115.99" y="90.03" width="71.74" height="17.7"/>
  <rect class="cls-8" x="132.54" y="96.33" width="38.64" height="6.3"/>
  <rect class="cls-8" x="149.3" y="99.18" width="5.11" height=".6"/>
  <rect class="cls-7" x="-4016.72" y="-5543.69" width="6467.34" height="6437.3"/>
</svg>