<?xml version="1.0" encoding="UTF-8"?><svg id="Calque_1" xmlns="http://www.w3.org/2000/svg" viewBox="0 0 128 128.13"><defs><style>.cls-1{stroke:#e30613;stroke-width:8px;}.cls-1,.cls-2,.cls-3,.cls-4,.cls-5,.cls-6{stroke-linecap:round;stroke-linejoin:round;}.cls-1,.cls-4,.cls-7{fill:none;}.cls-8,.cls-9{stroke-miterlimit:10;}.cls-8,.cls-9,.cls-2,.cls-3,.cls-4,.cls-5,.cls-6{stroke:#000;}.cls-9,.cls-5{fill:#8987f3;}.cls-2{fill:#77eddf;}.cls-10,.cls-6{fill:#d6d6d6;}.cls-3{fill:#fff;}</style></defs><rect class="cls-1" x="-242.61" y="-269.94" width="2655.08" height="1511.77"/><path class="cls-5" d="m89.56,79.62c-11.38-3.55-18.34-7.34-18.34-7.34l-7.77.73-7.77-.73s-6.95,3.79-18.34,7.34c-11.38,3.55-15.85,17.61-14.29,31,0,0,10.83,9.89,39.11,10.46v.03c.43,0,.86,0,1.28,0,.42,0,.85,0,1.28,0v-.03c28.28-.57,39.11-10.46,39.11-10.46,1.56-13.39-2.9-27.45-14.29-31Z"/><path class="cls-3" d="m74.38,75.62s-3.19,4-10.53,4-10.54-4-10.54-4c1.5-4.1,1.57-8.92,1.37-12.21,5.7,5.8,9.09,5.05,9.09,5.05.57.06,3.72.07,8.99-5.38.1-.1.2-.21.29-.32-.24,3.28-.26,8.48,1.33,12.86Z"/><path class="cls-7" d="m48.44,41.92s-6.64-15.73,6.9-19.5c0,0,.75-2.85,4.05-1.93,0,0,3.29-4.09,8.66-.1,0,0,3.03-.98,4.05,1.93,0,0,12.43,2.07,6.9,19.5,0,0,.12-4.5-4.19-11.54,0,0-1.76-.03-2.74-1.22,0,0-3.01.74-4.39-1.67,0,0-2.27,1.92-4.77.2,0,0-1.87,2.03-4.88.64,0,0-.98,1.08-3.73.97,0,0-.32.58-2.55,1.28,0,0-3.28,5.02-3.29,11.45Z"/><path class="cls-4" d="m50.95,41.91s6.94-3.88,10.41,4.53"/><path class="cls-4" d="m53.06,43.68s2.53-2.07,5.53.47"/><path class="cls-4" d="m58.38,46.9s-.72-.08-2.08.05c-2.45.23-3.64-1.1-3.64-1.1l.04-.44s3.22-2.84,6.58,1.15"/><path class="cls-4" d="m61.02,51.44s-2.13,2.17,0,3.76"/><path class="cls-4" d="m61.16,54.05s.88.77,1.58,1.05"/><path class="cls-4" d="m55.3,23.75s2.04,5.5,5.34,5.38c3.29-.11,3.72-6.01,3.72-6.01"/><path class="cls-4" d="m50.25,28.12s4.05,2.92,8.34.36"/><path class="cls-4" d="m49.03,31.04s4.17.03,5.9-1.51"/><path class="cls-4" d="m48.33,42.26s-3.31-1.89-3.46,1.26c-.14,3.14,1.18,2.89,2.08,6,.89,3.11,2.84,3.58,2.84,3.58"/><path class="cls-4" d="m62.94,23.32s-.5,2.17-1.49,3.69"/><circle class="cls-4" cx="55.7" cy="45.81" r="1.11"/><circle class="cls-8" cx="56.05" cy="45.79" r=".55"/><path class="cls-4" d="m76.27,41.81s-6.94-3.88-10.41,4.53"/><path class="cls-4" d="m74.15,43.58s-2.53-2.07-5.53.47"/><path class="cls-4" d="m66.2,51.33s2.13,2.17,0,3.76"/><path class="cls-4" d="m76.96,28.02s-6.8,3.34-9.4-.29"/><path class="cls-4" d="m78.18,30.94s-4.22.15-5.95-1.4"/><path class="cls-4" d="m75.08,31.19s4.1,7.09,3.8,10.97c0,0,5.96-15.38-6.9-19.5,0,0-.7-2.6-4.05-1.93-4.42-3.86-8.66.1-8.66.1-3.36-.67-4.05,1.93-4.05,1.93-12.85,4.12-6.9,19.5-6.9,19.5-.29-3.88,3.8-11.73,3.8-11.73"/><path class="cls-4" d="m48.28,41.52v.02c0,.07.01.29.02.63,0,.02.01.03.01.05v.03c.08,1.72.38,6.24,1.48,10.84.9,3.82,2.35,7.7,4.66,10.09.08.08.15.16.23.23"/><path class="cls-4" d="m63.67,68.45s.03,0,.1,0"/><path class="cls-4" d="m73.05,62.76c2.14-2.4,3.5-6.11,4.37-9.77,1.09-4.6,1.39-9.12,1.47-10.84.02-.47.03-.73.03-.73"/><path class="cls-4" d="m78.88,42.16s3.31-1.89,3.46,1.26c.14,3.14-1.18,2.89-2.08,6-.89,3.11-2.84,3.58-2.84,3.58"/><path class="cls-4" d="m63,27.63s2.85,3.61,6.69-2.43"/><path class="cls-4" d="m58.74,58.08h9.34s-4.67,3.89-9.34,0Z"/><path class="cls-4" d="m68.81,46.78s.72-.08,2.08.05c2.45.23,3.64-1.1,3.64-1.1l-.04-.44s-3.22-2.84-6.58,1.15"/><circle class="cls-4" cx="71.49" cy="45.69" r="1.11"/><path class="cls-4" d="m66.05,54.05s-.88.77-1.58,1.05"/><circle class="cls-8" cx="71.93" cy="45.69" r=".55"/><path class="cls-6" d="m81.85,43.29l-1.37-.44c.04-.13,4.2-13.22-1.61-21.21-3.02-4.15-8.23-6.26-15.51-6.26s-12.5,2.11-15.51,6.26c-5.81,8-1.65,21.08-1.6,21.21l-1.37.44c-.18-.56-4.43-13.91,1.81-22.5,3.3-4.55,8.91-6.85,16.67-6.85s13.37,2.31,16.67,6.85c6.23,8.59,1.99,21.93,1.81,22.5Z"/><path class="cls-2" d="m48.99,21.43c-.57,0-1.14-.23-1.57-.68-.82-.87-.78-2.23.09-3.05,3.66-3.45,9-5.2,15.86-5.2s11.99,1.68,15.64,5c.88.8.95,2.16.15,3.04-.8.88-2.16.95-3.04.15-2.84-2.57-7.13-3.88-12.75-3.88s-10.07,1.36-12.91,4.03c-.42.39-.95.59-1.48.59Z"/><path class="cls-2" d="m85.37,49.26c-.49,4.47-4.69,7.67-6.92,7.43-2.23-.25-1.66-3.85-1.17-8.32.49-4.47.72-8.11,2.95-7.86,2.23.25,5.63,4.29,5.14,8.76Z"/><path class="cls-3" d="m79.2,48.37c.4-3.63.63-6.71,1.89-7.61-.3-.14-.58-.22-.85-.25-2.23-.25-2.46,3.4-2.95,7.86-.49,4.47-1.06,8.07,1.17,8.32.39.04.84-.02,1.32-.18-1.52-.81-1.02-4.13-.58-8.14Z"/><path class="cls-2" d="m41.53,49.26c.49,4.47,4.69,7.67,6.92,7.43,2.23-.25,1.66-3.85,1.17-8.32-.49-4.47-.72-8.11-2.95-7.86-2.23.25-5.63,4.29-5.14,8.76Z"/><path class="cls-3" d="m49.62,48.37c-.49-4.47-.72-8.11-2.95-7.86-.27.03-.56.12-.85.25,1.27.9,1.49,3.98,1.89,7.61.44,4.02.95,7.33-.58,8.14.48.16.93.22,1.32.18,2.23-.25,1.66-3.85,1.17-8.32Z"/><path class="cls-10" d="m65.13,64.32c-.28,0-.5-.22-.5-.5v-.96c0-.28.22-.5.5-.5,6.62,0,11.5-1.67,14.13-4.83,1.89-2.28,1.97-4.56,1.97-4.58,0-.27.23-.49.5-.49,0,0,.97.01.97.01.13,0,.26.06.35.15.09.1.14.23.14.36,0,.3-.14,3.05-2.42,5.79-2.1,2.53-6.52,5.54-15.64,5.54Z"/><path d="m81.73,52.96h.96c0,.13-.07,2.81-2.31,5.5-2.03,2.45-6.33,5.36-15.25,5.36v-.96c6.77,0,11.79-1.73,14.52-5.01,2.02-2.44,2.08-4.86,2.08-4.89m0-1c-.26,0-.51.1-.7.29-.19.18-.29.43-.3.69,0,.07-.11,2.17-1.85,4.27-2.53,3.04-7.28,4.65-13.75,4.65-.55,0-1,.45-1,1v.96c0,.55.45,1,1,1,9.31,0,13.85-3.11,16.02-5.72,2.41-2.9,2.53-5.79,2.54-6.11,0-.27-.1-.52-.28-.71-.19-.19-.44-.3-.7-.3h-.96s-.01-.01-.02-.01h0Z"/><path class="cls-6" d="m67.52,63.18c0,1.06-1.39,1.92-3.11,1.92s-3.11-.86-3.11-1.92,1.39-1.92,3.11-1.92,3.11.86,3.11,1.92Z"/><path class="cls-3" d="m123.7,39.16c0,8.85-7.18,16.03-16.04,16.03-4.24,0-8.1-1.66-10.97-4.36l.04.05-5.1,2.33,2.28-5.81c-1.45-2.41-2.28-5.22-2.28-8.24,0-8.86,7.18-16.04,16.03-16.04s16.04,7.18,16.04,16.04Z"/><path class="cls-9" d="m112.58,30.64c1.51.89,2.71,2.08,3.59,3.59.89,1.51,1.33,3.15,1.33,4.92s-.44,3.41-1.33,4.92c-.89,1.51-2.08,2.71-3.59,3.59-1.51.89-3.15,1.33-4.92,1.33s-3.41-.44-4.92-1.33c-1.51-.89-2.71-2.08-3.59-3.59-.89-1.51-1.33-3.15-1.33-4.92s.44-3.41,1.33-4.92c.89-1.51,2.08-2.71,3.59-3.59,1.51-.89,3.15-1.33,4.92-1.33s3.41.44,4.92,1.33Zm-8.72,1.94c-1.16.68-2.09,1.61-2.77,2.77-.68,1.16-1.03,2.43-1.03,3.8s.34,2.63,1.03,3.8c.68,1.16,1.61,2.09,2.77,2.77,1.16.68,2.43,1.03,3.8,1.03s2.63-.34,3.8-1.03c1.16-.68,2.09-1.61,2.77-2.77.68-1.16,1.03-2.43,1.03-3.8s-.34-2.63-1.03-3.8c-.68-1.16-1.61-2.09-2.77-2.77-1.16-.68-2.43-1.03-3.8-1.03s-2.63.34-3.8,1.03Zm9.27,4.25c0,.13-.05.23-.15.3l-6.53,6.5c-.1.1-.22.15-.34.15s-.23-.05-.3-.15l-3.46-3.46c-.1-.1-.15-.22-.15-.34s.05-.23.15-.3l.87-.87c.08-.08.18-.11.3-.11s.24.04.34.11l2.24,2.32,5.39-5.36c.08-.08.18-.11.3-.11s.24.05.34.15l.84.84c.1.1.15.22.15.34Z"/></svg>