<?xml version="1.0" encoding="UTF-8"?>
<svg id="Calque_1" data-name="Calque 1" xmlns="http://www.w3.org/2000/svg" viewBox="0 0 128 128">
  <defs>
    <style>
      .cls-1, .cls-2, .cls-3, .cls-4, .cls-5, .cls-6 {
        stroke: #000;
      }

      .cls-1, .cls-2, .cls-3, .cls-7 {
        stroke-linecap: round;
        stroke-linejoin: round;
      }

      .cls-1, .cls-8 {
        fill: #87f3b9;
      }

      .cls-2 {
        fill: #ff6d75;
      }

      .cls-3, .cls-9 {
        fill: #fff;
      }

      .cls-4, .cls-10, .cls-5, .cls-6 {
        stroke-miterlimit: 10;
      }

      .cls-11 {
        fill: #bfe6fc;
      }

      .cls-12 {
        fill: #87ccf3;
      }

      .cls-10 {
        fill: #cfb999;
      }

      .cls-10, .cls-7 {
        stroke: #fff;
      }

      .cls-10, .cls-6 {
        stroke-width: .5px;
      }

      .cls-5 {
        fill: #f3d587;
      }

      .cls-7 {
        stroke-width: 8px;
      }

      .cls-7, .cls-6 {
        fill: none;
      }
    </style>
  </defs>
  <g>
    <path class="cls-4" d="m70.79,5.71H30.52c-4.08,0-7.4,3.32-7.4,7.4v101.79c0,4.08,3.32,7.39,7.4,7.39h40.27c4.08,0,7.4-3.31,7.4-7.39V13.11c0-4.08-3.32-7.4-7.4-7.4Zm7.12,109.19c0,3.92-3.19,7.11-7.12,7.11H30.52c-3.92,0-7.11-3.19-7.11-7.11V13.11c0-3.92,3.19-7.12,7.11-7.12h40.27c3.93,0,7.12,3.2,7.12,7.12v101.79Z"/>
    <path class="cls-4" d="m77.91,13.11v101.79c0,3.92-3.19,7.11-7.12,7.11H30.52c-3.92,0-7.11-3.19-7.11-7.11V13.11c0-3.92,3.19-7.12,7.11-7.12h40.27c3.93,0,7.12,3.2,7.12,7.12Z"/>
  </g>
  <path class="cls-11" d="m76.14,13.94v100.12c0,3.47-2.81,6.28-6.28,6.28H31.45c-.29,0-.58-.02-.86-.06-3.07-.42-5.43-3.04-5.43-6.22V13.94c0-3.47,2.81-6.28,6.28-6.28h1.12c3.45,0,6.91.06,10.36,0,0,.02-.02.06-.01.1.94-.15,2.41.26,3.09.94,1.08,1.08,2.35,2.57,4.01,2.74,1.73.18,3.1-1.22,4.23-2.33,1.26-1.25,2.95-1.44,4.66-1.44h10.94c3.47,0,6.28,2.81,6.28,6.28Z"/>
  <circle class="cls-10" cx="50.33" cy="9.03" r="1.11"/>
  <path class="cls-4" d="m78.03,39.31h0v-14.47h0c.55,0,.99.44.99.99v12.49c0,.55-.44.99-.99.99Z"/>
  <path class="cls-4" d="m78.03,51.78h0v-7.22h0c.55,0,.99.44.99.99v5.24c0,.55-.44.99-.99.99Z"/>
  <rect class="cls-8" x="66.18" y="10" width="3.2" height="2.63"/>
  <rect class="cls-9" x="69.38" y="10" width="1.59" height="2.63"/>
  <rect x="70.97" y="10.74" width=".68" height="1.16"/>
  <g>
    <rect x="28.5" y="10.82" width=".88" height="1.51"/>
    <rect x="29.89" y="10.29" width=".88" height="2.04"/>
    <rect x="31.27" y="9.66" width=".88" height="2.66"/>
  </g>
  <rect class="cls-6" x="66.18" y="10" width="4.8" height="2.63"/>
  <g>
    <circle class="cls-2" cx="37.88" cy="101.1" r="9.66"/>
    <path class="cls-3" d="m32.56,100.67c.19-.14.37-.29.57-.43,2.54-1.76,5.23-2.1,8.08-.84.9.4,1.69.96,2.38,1.65.16.16.23.34.21.57-.04.44-.07.89-.1,1.33-.03.41-.25.61-.67.59-.94-.05-1.88-.09-2.81-.13-.4-.02-.6-.23-.6-.64,0-.56.01-1.12.02-1.68,0-.08-.02-.12-.09-.16-.59-.35-1.24-.46-1.91-.42-.5.03-.98.15-1.42.41-.08.05-.11.1-.11.19.01.56.02,1.11.03,1.67,0,.4-.2.61-.6.63-.94.04-1.88.09-2.83.13-.4.02-.62-.17-.65-.58-.03-.42-.06-.83-.1-1.24-.02-.18-.02-.35.06-.52l.54-.54Z"/>
  </g>
  <g>
    <circle class="cls-1" cx="62.86" cy="101.1" r="9.66"/>
    <g id="JKa6IG.tif">
      <path class="cls-3" d="m65.69,105.47c-.23-.03-.47-.06-.7-.1-3.04-.55-5.18-2.21-6.3-5.12-.35-.91-.52-1.87-.52-2.85,0-.23.08-.41.26-.55.34-.28.68-.58,1.02-.87.31-.27.61-.25.89.06.63.7,1.26,1.39,1.89,2.08.27.3.26.59-.03.87-.4.39-.8.78-1.21,1.17-.06.05-.07.1-.05.18.17.67.55,1.2,1.05,1.65.38.34.8.58,1.29.71.09.02.15.01.21-.06.38-.4.77-.8,1.16-1.2.28-.29.57-.29.87-.02.7.63,1.4,1.27,2.09,1.9.3.27.31.56.05.87-.27.32-.54.63-.81.95-.12.14-.24.26-.41.33h-.76Z"/>
    </g>
  </g>
  <path class="cls-12" d="m51.07,27.9c-11.6,0-21,9.4-21,21.01,0,5.09,1.81,9.76,4.83,13.39.56-8.45,7.59-15.13,16.17-15.13s15.62,6.68,16.18,15.13c3.01-3.63,4.83-8.3,4.83-13.39,0-11.6-9.4-21.01-21.01-21.01Zm0,17.41c-3.63,0-6.57-2.94-6.57-6.57s2.94-6.58,6.57-6.58,6.58,2.94,6.58,6.58-2.94,6.57-6.58,6.57Z"/>
  <path class="cls-9" d="m67.24,62.29c-3.86,4.65-9.67,7.61-16.18,7.61s-12.31-2.96-16.17-7.61c.56-8.45,7.59-15.13,16.17-15.13s15.62,6.68,16.18,15.13Z"/>
  <path class="cls-9" d="m57.65,38.73c0,3.63-2.94,6.57-6.58,6.57s-6.57-2.94-6.57-6.57,2.94-6.58,6.57-6.58,6.58,2.94,6.58,6.58Z"/>
  <rect class="cls-9" x="37.91" y="75.35" width="27.06" height="4.09"/>
  <path class="cls-3" d="m105.34,48.07c-10.68-1.61-20.64,5.75-22.24,16.43-.68,4.53.25,8.92,2.37,12.61h0l-2.05,6.48,6.07-1.54h0c2.73,2.42,6.16,4.1,10.04,4.69,10.68,1.61,20.64-5.75,22.24-16.43,1.61-10.68-5.75-20.64-16.43-22.24Z"/>
  <path class="cls-5" d="m109.17,70l.49-5.29c.31-3.32-1.7-6.32-4.69-7.4.08-1-.65-1.88-1.65-1.97-1-.09-1.88.64-1.98,1.63-3.14.52-5.66,3.1-5.97,6.42l-.49,5.29s-3.56,1.53-2.94,6.26l6.6.61c-.15,1.59,1.02,3,2.62,3.15s3-1.03,3.15-2.62l6.6.61c1.47-4.54-1.74-6.7-1.74-6.7Z"/>
  <rect class="cls-7" x="-840.69" y="-359.81" width="1447.07" height="727.52"/>
</svg>