<?xml version="1.0" encoding="UTF-8"?>
<svg id="Calque_1" data-name="Calque 1" xmlns="http://www.w3.org/2000/svg" viewBox="0 0 128 128">
  <defs>
    <style>
      .cls-1, .cls-2, .cls-3, .cls-4 {
        stroke: #000;
        stroke-miterlimit: 10;
      }

      .cls-5 {
        fill: #b4eac3;
      }

      .cls-6 {
        stroke: #ff6d75;
        stroke-width: 2px;
      }

      .cls-6, .cls-7 {
        stroke-linecap: round;
        stroke-linejoin: round;
      }

      .cls-6, .cls-7, .cls-4 {
        fill: none;
      }

      .cls-2 {
        fill: #fff;
      }

      .cls-3 {
        fill: #b2f0e9;
      }

      .cls-7 {
        stroke: #fff;
        stroke-width: 8px;
      }
    </style>
  </defs>
  <g>
    <g>
      <path class="cls-2" d="m15.28,41.9v4.16l-8.96-.69c-.77,0-1.39-.62-1.39-1.39s.62-1.38,1.39-1.38l8.96-.7Z"/>
      <path class="cls-3" d="m71.48,35.66c-.66,0-1.7.12-2.9.35-.06,0-.12.01-.17.02l-17.83,3.14-35.29,2.73v4.16l35.29,2.74,17.85,3.17c.11.02.21.04.31.02,1.14.21,2.11.33,2.74.33h41.26v-16.66h-41.26Zm27.99,12.65h-24.99v-8.64h24.99v8.64Z"/>
      <rect class="cls-4" x="74.49" y="39.67" width="24.99" height="8.64"/>
      <path class="cls-2" d="m123.07,40.67v6.63c0,2.77-2.24,5.01-5,5.01h-5.33v-16.66h5.33c2.77,0,5,2.25,5,5.01Z"/>
      <rect class="cls-1" x="74.49" y="39.67" width="24.99" height="8.64"/>
      <g>
        <path class="cls-5" d="m76.85,44.99c0,.21.03.39.1.53.13.26.36.39.7.39.21,0,.39-.07.54-.21s.23-.34.23-.61c0-.35-.14-.59-.43-.71-.16-.07-.42-.1-.77-.1v-.75c.34,0,.58-.04.71-.1.23-.1.35-.31.35-.63,0-.2-.06-.37-.18-.5-.12-.13-.29-.19-.5-.19-.25,0-.43.08-.55.24-.12.16-.17.37-.17.63h-.98c.01-.27.06-.52.14-.76.09-.21.22-.4.41-.58.14-.13.3-.22.49-.29.19-.07.42-.1.7-.1.51,0,.93.13,1.24.4.31.27.47.62.47,1.07,0,.32-.09.58-.28.8-.12.13-.24.23-.37.28.1,0,.23.08.41.25.27.25.4.59.4,1.02,0,.45-.16.85-.47,1.2s-.78.52-1.39.52c-.76,0-1.28-.25-1.58-.74-.15-.26-.24-.61-.26-1.03h1.03Z"/>
        <path class="cls-5" d="m83.81,42.17c-.16.16-.38.43-.66.83-.28.4-.52.81-.71,1.23-.15.33-.29.74-.41,1.22-.12.48-.18.87-.18,1.18h-1.09c.03-.96.35-1.96.95-3,.39-.64.71-1.09.97-1.35h-2.67v-.95h3.8v.82Z"/>
        <path class="cls-5" d="m84.51,45.53h1.12v1.1h-1.12v-1.1Z"/>
        <path class="cls-5" d="m89.65,41.96c.27.48.41,1.16.41,2.05s-.14,1.56-.41,2.04-.75.72-1.43.72-1.16-.24-1.44-.72c-.27-.48-.41-1.16-.41-2.04s.14-1.57.41-2.05c.27-.48.75-.72,1.44-.72s1.16.24,1.43.72Zm-2.06,3.46c.1.33.31.49.62.49s.52-.16.61-.49c.1-.33.15-.8.15-1.41s-.05-1.12-.15-1.43c-.1-.31-.3-.46-.61-.46s-.52.15-.62.46c-.1.31-.15.79-.15,1.43s.05,1.09.15,1.41Z"/>
        <path class="cls-5" d="m95.41,41.6c.38.36.59.77.63,1.23h-.72c-.08-.35-.24-.63-.49-.83-.24-.2-.58-.31-1.02-.31-.53,0-.97.19-1.3.56-.33.38-.49.95-.49,1.73,0,.64.15,1.15.45,1.55.3.4.74.59,1.33.59.54,0,.95-.21,1.24-.62.15-.22.26-.51.34-.86h.72c-.06.57-.28,1.05-.63,1.44-.43.47-1.01.7-1.74.7-.63,0-1.16-.19-1.59-.57-.56-.51-.85-1.28-.85-2.34,0-.8.21-1.46.63-1.97.46-.56,1.09-.83,1.89-.83.69,0,1.22.18,1.6.54Z"/>
        <path class="cls-5" d="m98.73,41.67c.21.22.32.48.32.79s-.11.59-.33.8c-.22.21-.48.32-.78.32-.33,0-.6-.11-.8-.33-.21-.22-.31-.48-.31-.78,0-.32.11-.58.33-.8.22-.22.48-.33.79-.33s.58.11.79.32Zm-1.3,1.29c.14.14.31.21.51.21s.36-.07.5-.21.21-.31.21-.51-.07-.36-.21-.5-.31-.21-.5-.21-.36.07-.5.21-.21.31-.21.51.07.36.21.5Z"/>
      </g>
    </g>
    <g>
      <path class="cls-2" d="m15.28,81.93v4.16l-8.96-.69c-.77,0-1.39-.62-1.39-1.39s.62-1.38,1.39-1.38l8.96-.7Z"/>
      <path class="cls-3" d="m71.48,75.68c-.66,0-1.7.12-2.9.35-.06,0-.12.01-.17.02l-17.83,3.14-35.29,2.73v4.16l35.29,2.74,17.85,3.17c.11.02.21.04.31.02,1.14.21,2.11.33,2.74.33h41.26v-16.66h-41.26Zm27.99,12.65h-24.99v-8.64h24.99v8.64Z"/>
      <rect class="cls-4" x="74.49" y="79.69" width="24.99" height="8.64"/>
      <path class="cls-2" d="m123.07,80.7v6.63c0,2.77-2.24,5.01-5,5.01h-5.33v-16.66h5.33c2.77,0,5,2.25,5,5.01Z"/>
      <rect class="cls-1" x="74.49" y="79.69" width="24.99" height="8.64"/>
      <g>
        <path class="cls-5" d="m76.7,85.02c0,.21.03.39.1.53.13.26.36.39.7.39.21,0,.39-.07.54-.21s.23-.34.23-.61c0-.35-.14-.59-.43-.71-.16-.07-.42-.1-.77-.1v-.75c.34,0,.58-.04.71-.1.23-.1.35-.31.35-.63,0-.2-.06-.37-.18-.5-.12-.13-.29-.19-.5-.19-.25,0-.43.08-.55.24-.12.16-.17.37-.17.63h-.98c.01-.27.06-.52.14-.76.09-.21.22-.4.41-.58.14-.13.3-.22.49-.29.19-.07.42-.1.7-.1.51,0,.93.13,1.24.4.31.27.47.62.47,1.07,0,.32-.09.58-.28.8-.12.13-.24.23-.37.28.1,0,.23.08.41.25.27.25.4.59.4,1.02,0,.45-.16.85-.47,1.2s-.78.52-1.39.52c-.76,0-1.28-.25-1.58-.74-.15-.26-.24-.61-.26-1.03h1.03Z"/>
        <path class="cls-5" d="m80.08,84.36c.14-.24.33-.43.6-.55-.26-.17-.43-.36-.51-.56s-.12-.39-.12-.56c0-.39.15-.72.44-.99.29-.27.71-.41,1.24-.41s.95.14,1.24.41c.29.27.44.61.44.99,0,.18-.04.36-.12.56s-.25.38-.5.52c.26.15.46.34.6.59.13.24.2.52.2.82,0,.45-.17.84-.5,1.15s-.8.47-1.4.47-1.05-.16-1.36-.47-.46-.7-.46-1.15c0-.3.07-.57.2-.82Zm1.09,1.36c.14.15.33.22.57.22s.43-.07.57-.22c.14-.15.2-.35.2-.61s-.07-.48-.21-.62c-.14-.14-.33-.21-.56-.21s-.42.07-.56.21c-.14.14-.21.35-.21.62s.07.47.2.61Zm.07-2.44c.12.12.29.19.5.19s.38-.06.5-.19c.12-.12.18-.28.18-.48,0-.21-.06-.38-.18-.5-.12-.12-.28-.18-.5-.18s-.38.06-.5.18c-.12.12-.18.29-.18.5,0,.19.06.35.18.48Z"/>
        <path class="cls-5" d="m84.36,85.56h1.12v1.1h-1.12v-1.1Z"/>
        <path class="cls-5" d="m86.47,85.61c.15-.36.51-.74,1.06-1.13.48-.35.8-.6.94-.75.22-.23.33-.49.33-.77,0-.23-.06-.42-.19-.57s-.31-.23-.54-.23c-.32,0-.54.12-.65.36-.07.14-.11.36-.12.66h-1.02c.02-.46.1-.82.25-1.1.28-.53.78-.8,1.5-.8.57,0,1.02.16,1.35.47.34.31.5.73.5,1.25,0,.4-.12.75-.36,1.06-.16.2-.41.43-.77.68l-.42.3c-.26.19-.44.32-.54.41-.1.08-.18.18-.25.29h2.34v.93h-3.67c.01-.38.09-.74.25-1.05Z"/>
        <path class="cls-5" d="m94.65,81.63c.38.36.59.77.63,1.23h-.72c-.08-.35-.24-.63-.49-.83-.24-.2-.58-.31-1.02-.31-.53,0-.97.19-1.3.56-.33.38-.49.95-.49,1.73,0,.64.15,1.15.45,1.55.3.4.74.59,1.33.59.54,0,.95-.21,1.24-.62.15-.22.26-.51.34-.86h.72c-.06.57-.28,1.05-.63,1.44-.43.47-1.01.7-1.74.7-.63,0-1.16-.19-1.59-.57-.56-.51-.85-1.28-.85-2.34,0-.8.21-1.46.63-1.97.46-.56,1.09-.83,1.89-.83.69,0,1.22.18,1.6.54Z"/>
        <path class="cls-5" d="m97.97,81.7c.21.22.32.48.32.79s-.11.59-.33.8c-.22.21-.48.32-.78.32-.33,0-.6-.11-.8-.33-.21-.22-.31-.48-.31-.78,0-.32.11-.58.33-.8.22-.22.48-.33.79-.33s.58.11.79.32Zm-1.3,1.29c.14.14.31.21.51.21s.36-.07.5-.21.21-.31.21-.51-.07-.36-.21-.5-.31-.21-.5-.21-.36.07-.5.21-.21.31-.21.51.07.36.21.5Z"/>
      </g>
    </g>
  </g>
  <line class="cls-6" x1="58.82" y1="67.9" x2="68.52" y2="81.09"/>
  <line class="cls-6" x1="68.52" y1="88.33" x2="58.82" y2="101.52"/>
  <line class="cls-6" x1="68.52" y1="85.11" x2="55.24" y2="85.11"/>
  <line class="cls-6" x1="55.24" y1="74.5" x2="61.88" y2="79.69"/>
  <line class="cls-6" x1="61.88" y1="89.12" x2="55.24" y2="94.32"/>
  <rect class="cls-7" x="-5251.06" y="-979.45" width="6467.34" height="6437.3"/>
</svg>