<?xml version="1.0" encoding="UTF-8"?>
<svg id="Calque_1" data-name="Calque 1" xmlns="http://www.w3.org/2000/svg" viewBox="0 0 128 128">
  <defs>
    <style>
      .cls-1 {
        fill: #f3d587;
      }

      .cls-1, .cls-2, .cls-3, .cls-4, .cls-5, .cls-6, .cls-7 {
        stroke: #000;
      }

      .cls-1, .cls-2, .cls-8 {
        stroke-linecap: round;
        stroke-linejoin: round;
      }

      .cls-2, .cls-8, .cls-7 {
        fill: none;
      }

      .cls-9 {
        fill: #bbfedb;
      }

      .cls-10, .cls-5 {
        fill: #87ccf3;
      }

      .cls-3 {
        fill: #fff;
      }

      .cls-3, .cls-4, .cls-5, .cls-6 {
        stroke-width: 2px;
      }

      .cls-3, .cls-4, .cls-5, .cls-6, .cls-7 {
        stroke-miterlimit: 10;
      }

      .cls-4 {
        fill: #b2f0e9;
      }

      .cls-6 {
        fill: #77eddf;
      }

      .cls-8 {
        stroke: #fff;
        stroke-width: 8px;
      }
    </style>
  </defs>
  <path class="cls-4" d="m33.27,111.44h52.89c1.62,0,3.1-.9,3.85-2.33,3.13-5.94,12.31-21.83,25.37-31,3.29-2.31,2.08-7.44-1.91-7.91-13.07-1.55-33.44-1.46-48.35,10.21-14.29,11.2-29.09,10.98-38.59,9.04-3.68-.75-6.54,3.14-4.68,6.4l7.64,13.39c.77,1.36,2.21,2.19,3.78,2.19Z"/>
  <path class="cls-6" d="m31.55,96.27c-7.2,0-12.56-1-13.8-1.25-2.51-.51-4.13-2.97-3.62-5.48.51-2.51,2.96-4.13,5.48-3.62,9.17,1.87,28.04,2.42,40.61-7.43,17.77-13.92,48.24-11.56,57.16-10.5,2.55.3,4.37,2.61,4.07,5.16-.3,2.55-2.61,4.37-5.16,4.07-16.53-1.95-38.44-.73-50.34,8.59-10.9,8.54-24.41,10.47-34.4,10.47Z"/>
  <path class="cls-7" d="m21.27,86.22s1.2-6.08,9.71-5.23c0,0,6.13-7.15,13.28-3.23,0,0,6.47-7.85,14.47-3.16,0,0,4.41-6.55,14.55-3.06"/>
  <circle class="cls-7" cx="53.9" cy="67.15" r="2.65"/>
  <circle class="cls-7" cx="64.91" cy="61.73" r="1.33"/>
  <circle class="cls-7" cx="51.25" cy="45.92" r="1.33"/>
  <path class="cls-1" d="m106.72,59.71h-10.96l-.08.05c.07-.24.12-.49.12-.75,0-1.42-1.15-2.57-2.57-2.57s-2.5,1.09-2.56,2.46l-1.51,1,1.93.52c.46.7,1.24,1.16,2.14,1.16-.02,1.05.26,5.43,6.28,5.43,8.53,0,7.22-7.3,7.22-7.3Z"/>
  <path class="cls-1" d="m96.9,62.01h5.74s.13,2.64-2.87,2.72"/>
  <path class="cls-3" d="m34.05,57V20c0-1.9-1.54-3.44-3.44-3.44s-3.44,1.54-3.44,3.44v37c-2.81,1.3-4.76,4.14-4.76,7.44,0,4.53,3.67,8.2,8.2,8.2s8.2-3.67,8.2-8.2c0-3.3-1.95-6.13-4.76-7.44Z"/>
  <line class="cls-7" x1="33.81" y1="20.31" x2="36.69" y2="20.31"/>
  <line class="cls-7" x1="33.81" y1="22.99" x2="36.69" y2="22.99"/>
  <line class="cls-7" x1="33.81" y1="25.68" x2="36.69" y2="25.68"/>
  <line class="cls-7" x1="33.81" y1="28.36" x2="36.69" y2="28.36"/>
  <line class="cls-7" x1="33.81" y1="31.05" x2="36.69" y2="31.05"/>
  <line class="cls-7" x1="33.81" y1="36.41" x2="36.69" y2="36.41"/>
  <line class="cls-7" x1="33.81" y1="33.73" x2="36.69" y2="33.73"/>
  <line class="cls-7" x1="33.81" y1="39.1" x2="36.69" y2="39.1"/>
  <line class="cls-7" x1="33.81" y1="41.78" x2="36.69" y2="41.78"/>
  <line class="cls-7" x1="33.81" y1="44.46" x2="36.69" y2="44.46"/>
  <line class="cls-7" x1="33.81" y1="47.15" x2="36.69" y2="47.15"/>
  <line class="cls-7" x1="33.81" y1="49.83" x2="36.69" y2="49.83"/>
  <line class="cls-7" x1="33.81" y1="52.52" x2="36.69" y2="52.52"/>
  <line class="cls-7" x1="33.81" y1="55.2" x2="36.69" y2="55.2"/>
  <path class="cls-10" d="m36.54,64.38c0,3.27-2.65,5.91-5.92,5.91s-5.91-2.65-5.91-5.91c0-2.67,1.77-4.94,4.21-5.67v-27.9h3.42v27.9c2.43.74,4.21,2.99,4.21,5.67Z"/>
  <g>
    <path d="m39.35,32.1c0,.16.03.29.08.4.1.19.27.29.52.29.15,0,.29-.05.4-.16.11-.11.17-.26.17-.46,0-.26-.11-.44-.32-.53-.12-.05-.31-.07-.57-.07v-.56c.25,0,.43-.03.53-.07.17-.08.26-.23.26-.47,0-.15-.04-.28-.13-.37-.09-.1-.21-.14-.38-.14-.19,0-.32.06-.41.18-.09.12-.13.27-.12.47h-.73c0-.2.04-.39.1-.56.06-.16.17-.3.3-.43.1-.09.22-.17.37-.22.14-.05.31-.07.52-.07.38,0,.69.1.92.3.23.2.35.46.35.79,0,.24-.07.43-.21.6-.09.1-.18.17-.28.21.07,0,.17.06.31.18.2.19.3.44.3.76,0,.34-.12.64-.35.89-.23.26-.58.38-1.04.38-.57,0-.96-.18-1.18-.55-.12-.2-.18-.45-.19-.77h.77Z"/>
    <path d="m44.54,29.99c-.12.12-.28.32-.49.62s-.39.6-.53.92c-.11.25-.21.55-.3.91-.09.36-.14.65-.14.88h-.82c.02-.72.26-1.46.71-2.23.29-.48.53-.81.73-1h-1.99v-.71h2.83v.61Z"/>
    <path d="m45.86,29.3c.24,0,.45.09.63.26.18.18.26.38.26.63s-.09.45-.26.63c-.18.18-.38.26-.63.26s-.45-.09-.63-.26c-.18-.18-.26-.38-.26-.63s.09-.45.26-.63c.18-.18.38-.26.63-.26Zm-.45.89c0,.12.04.23.13.32.09.09.19.13.32.13s.23-.04.32-.13c.09-.09.13-.19.13-.32s-.04-.23-.13-.32c-.09-.09-.19-.13-.32-.13s-.23.04-.32.13c-.09.09-.13.19-.13.32Z"/>
  </g>
  <g>
    <rect class="cls-9" x="9.17" y="32.45" width="11.08" height="11.08" rx="4.14" ry="4.14"/>
    <path class="cls-2" d="m20.25,37.11v4.86c0,.86-.7,1.56-1.56,1.56h-7.97c-.86,0-1.56-.7-1.56-1.56v-7.97c0-.86.7-1.56,1.56-1.56h7.97"/>
    <polyline class="cls-2" points="10.7 35.72 14.71 41.47 21.47 32.45"/>
  </g>
  <path class="cls-5" d="m56.23,49.23c0,3.59-2.91,6.51-6.51,6.51s-6.51-2.91-6.51-6.51c0-2.65,3.55-8.6,5.4-11.53.51-.81,1.7-.81,2.21,0,1.86,2.93,5.4,8.88,5.4,11.53Z"/>
  <rect class="cls-8" x="-50.41" y="-603.76" width="1215" height="875.1"/>
</svg>