<?xml version="1.0" encoding="UTF-8"?>
<svg id="Calque_1" data-name="Calque 1" xmlns="http://www.w3.org/2000/svg" viewBox="0 0 199.39 122.08">
  <defs>
    <style>
      .cls-1, .cls-2, .cls-3, .cls-4, .cls-5, .cls-6, .cls-7 {
        stroke: #010101;
      }

      .cls-1, .cls-2, .cls-8 {
        stroke-linecap: round;
        stroke-linejoin: round;
      }

      .cls-1, .cls-8, .cls-7 {
        fill: none;
      }

      .cls-2, .cls-9 {
        fill: #f4d688;
      }

      .cls-10 {
        fill: #010101;
      }

      .cls-11, .cls-3 {
        fill: #89ccf2;
      }

      .cls-12 {
        fill: #1d1d1b;
      }

      .cls-3, .cls-13, .cls-4, .cls-5, .cls-6, .cls-7 {
        stroke-miterlimit: 10;
      }

      .cls-13 {
        fill: #ffce05;
        stroke: #1d1d1b;
      }

      .cls-4 {
        fill: #fff;
      }

      .cls-5 {
        fill: #8bcdcd;
      }

      .cls-6 {
        fill: #b8dfde;
      }

      .cls-8 {
        stroke: #fff;
        stroke-width: 8px;
      }
    </style>
  </defs>
  <rect class="cls-8" x="-4857.43" y="-1178.02" width="6467.34" height="6437.3"/>
  <g id="Titres_catégories" data-name="Titres catégories">
    <g>
      <path class="cls-6" d="m92.27,102.04h53.65c1.64,0,3.14-.91,3.9-2.36,3.17-6.02,12.48-22.14,25.73-31.44,3.34-2.34,2.11-7.55-1.94-8.02-13.26-1.57-33.92-1.48-49.04,10.36-14.5,11.36-29.51,11.14-39.14,9.17-3.73-.76-6.63,3.19-4.75,6.49l7.75,13.58c.78,1.38,2.24,2.22,3.83,2.22h0Z"/>
      <path class="cls-5" d="m90.53,86.66c-7.31,0-12.74-1.02-14-1.27-2.55-.52-4.19-3.02-3.67-5.56s3-4.19,5.56-3.67c9.3,1.9,28.44,2.46,41.19-7.53,18.02-14.12,48.93-11.72,57.98-10.65,2.59.3,4.43,2.65,4.13,5.24-.31,2.59-2.65,4.43-5.24,4.13-16.77-1.98-38.99-.74-51.06,8.71-11.06,8.66-24.76,10.62-34.89,10.62h0s0,0,0,0Z"/>
      <path class="cls-7" d="m80.1,76.46s1.22-6.17,9.85-5.31c0,0,6.22-7.26,13.47-3.27,0,0,6.56-7.96,14.68-3.21,0,0,4.48-6.65,14.75-3.1"/>
      <path class="cls-7" d="m113.2,59.81c1.48,0,2.69-1.2,2.69-2.69s-1.2-2.69-2.69-2.69-2.69,1.2-2.69,2.69,1.2,2.69,2.69,2.69Z"/>
      <path class="cls-7" d="m124.36,52.97c.74,0,1.35-.6,1.35-1.35s-.6-1.35-1.35-1.35-1.35.6-1.35,1.35.6,1.35,1.35,1.35Z"/>
      <path class="cls-7" d="m99.09,61.14c1.12,0,2.02-.9,2.02-2.02s-.9-2.02-2.02-2.02-2.02.9-2.02,2.02.9,2.02,2.02,2.02Z"/>
      <path class="cls-2" d="m166.77,49.57h-11.12l-.08.05c.07-.24.12-.49.12-.76,0-1.44-1.17-2.61-2.61-2.61s-2.54,1.1-2.6,2.49l-1.53,1.02,1.96.53c.47.71,1.26,1.17,2.17,1.17-.02,1.07.27,5.51,6.37,5.51,8.65,0,7.32-7.41,7.32-7.41h-.01.01Z"/>
      <path class="cls-9" d="m156.81,51.91h5.82s.13,2.68-2.91,2.76"/>
      <path class="cls-1" d="m156.81,51.91h5.82s.13,2.68-2.91,2.76"/>
      <path class="cls-4" d="m72.99,75.93V19.8c0-2.89-2.33-5.22-5.21-5.22s-5.22,2.33-5.22,5.22v56.13c-4.26,1.97-7.22,6.28-7.22,11.29,0,6.88,5.57,12.44,12.44,12.44s12.44-5.57,12.44-12.44c0-5.01-2.96-9.3-7.22-11.29h0Z"/>
      <path class="cls-7" d="m72.63,20.27h4.37"/>
      <path class="cls-7" d="m72.63,24.34h4.37"/>
      <path class="cls-7" d="m72.63,28.42h4.37"/>
      <path class="cls-7" d="m72.63,32.48h4.37"/>
      <path class="cls-7" d="m72.63,36.57h4.37"/>
      <path class="cls-7" d="m72.63,44.7h4.37"/>
      <path class="cls-7" d="m72.63,40.63h4.37"/>
      <path class="cls-7" d="m72.63,48.78h4.37"/>
      <path class="cls-7" d="m72.63,52.84h4.37"/>
      <path class="cls-7" d="m72.63,56.91h4.37"/>
      <path class="cls-7" d="m72.63,60.99h4.37"/>
      <path class="cls-7" d="m72.63,65.06h4.37"/>
      <path class="cls-7" d="m72.63,69.13h4.37"/>
      <path class="cls-7" d="m72.63,73.2h4.37"/>
      <path class="cls-11" d="m76.78,87.12c0,4.96-4.02,8.97-8.98,8.97s-8.97-4.02-8.97-8.97c0-4.05,2.69-7.49,6.39-8.6v-42.32h5.19v42.32c3.69,1.12,6.39,4.53,6.39,8.6h-.01Z"/>
      <path class="cls-10" d="m88.76,27.42c0,.62.12,1.14.32,1.57.39.75,1.06,1.14,2.04,1.14.59,0,1.14-.19,1.57-.62.43-.43.67-1.02.67-1.8,0-1.02-.43-1.73-1.25-2.08-.47-.19-1.22-.27-2.24-.27v-2.2c.98,0,1.69-.12,2.08-.27.67-.32,1.02-.9,1.02-1.85,0-.59-.16-1.1-.52-1.45-.35-.39-.82-.55-1.49-.55-.75,0-1.25.23-1.61.71-.35.47-.52,1.06-.47,1.85h-2.87c0-.79.16-1.53.39-2.2.24-.62.67-1.17,1.17-1.69.39-.35.87-.67,1.45-.87.55-.19,1.22-.27,2.04-.27,1.5,0,2.71.39,3.62,1.17.9.79,1.38,1.8,1.38,3.11,0,.94-.27,1.69-.82,2.36-.35.39-.71.67-1.1.82.27,0,.67.24,1.22.71.79.74,1.18,1.73,1.18,2.98,0,1.33-.47,2.51-1.38,3.5-.9,1.02-2.28,1.5-4.09,1.5-2.24,0-3.77-.71-4.63-2.16-.47-.78-.71-1.76-.74-3.02h3.02l.04-.08h.02Z"/>
      <path class="cls-10" d="m109.14,19.13c-.47.47-1.1,1.25-1.93,2.44s-1.53,2.36-2.08,3.62c-.43.98-.82,2.16-1.18,3.57-.35,1.41-.54,2.55-.54,3.45h-3.22c.08-2.83,1.02-5.74,2.79-8.75,1.15-1.89,2.08-3.18,2.87-3.92h-7.81v-2.79h11.12v2.39h0Z"/>
      <path class="cls-10" d="m114.32,16.43c.95,0,1.76.36,2.47,1.02.71.71,1.02,1.5,1.02,2.48s-.36,1.77-1.02,2.48c-.71.71-1.49,1.02-2.47,1.02s-1.77-.35-2.48-1.02c-.71-.71-1.02-1.5-1.02-2.48s.35-1.76,1.02-2.48c.71-.71,1.5-1.02,2.48-1.02Zm-1.77,3.5c0,.47.16.9.52,1.25.35.36.74.52,1.25.52s.9-.16,1.25-.52c.35-.35.51-.74.51-1.25s-.16-.9-.51-1.25c-.36-.35-.75-.51-1.25-.51s-.9.16-1.25.51c-.36.36-.52.75-.52,1.25Z"/>
      <path class="cls-3" d="m106.64,60.53c0,5.44-4.41,9.88-9.88,9.88s-9.88-4.41-9.88-9.88c0-4.02,5.39-13.05,8.19-17.49.77-1.22,2.58-1.22,3.35,0,2.82,4.45,8.19,13.47,8.19,17.49h.01Z"/>
    </g>
    <g>
      <path class="cls-13" d="m18,64.66l16.08-27.94c.93-1.61,3.26-1.61,4.19,0l16.07,27.94c.93,1.61-.23,3.64-2.09,3.64H20.09c-1.86,0-3.02-2-2.09-3.64h0Z"/>
      <path class="cls-12" d="m36.15,63.08c-1.56,0-2.56-.98-2.56-2.25s1-2.27,2.56-2.27,2.54,1,2.54,2.27-1,2.25-2.54,2.25Zm-2.39-16.67h4.74l-.52,10.62h-3.72l-.52-10.62h0Z"/>
    </g>
  </g>
</svg>