<?xml version="1.0" encoding="UTF-8"?>
<svg id="Calque_1" data-name="Calque 1" xmlns="http://www.w3.org/2000/svg" viewBox="0 0 128 128">
  <defs>
    <style>
      .cls-1 {
        fill: #bbfedb;
      }

      .cls-2 {
        fill: #fff;
      }

      .cls-2, .cls-3, .cls-4, .cls-5, .cls-6 {
        stroke: #000;
        stroke-width: 2px;
      }

      .cls-2, .cls-3, .cls-4, .cls-6 {
        stroke-miterlimit: 10;
      }

      .cls-3 {
        fill: #87ccf3;
      }

      .cls-4 {
        fill: #d6d6d6;
      }

      .cls-5, .cls-6, .cls-7 {
        fill: none;
      }

      .cls-5, .cls-7 {
        stroke-linecap: round;
        stroke-linejoin: round;
      }

      .cls-7 {
        stroke: #fff;
        stroke-width: 8px;
      }

      .cls-8 {
        font-family: Helvetica-Bold, Helvetica;
        font-size: 12px;
        font-weight: 700;
      }
    </style>
  </defs>
  <path class="cls-2" d="m68.72,90.54V11.87c0-4.04-3.27-7.31-7.31-7.31s-7.31,3.27-7.31,7.31v78.68c-5.97,2.77-10.12,8.8-10.12,15.81,0,9.63,7.81,17.43,17.43,17.43s17.44-7.81,17.44-17.43c0-7.01-4.15-13.05-10.12-15.81Z"/>
  <line class="cls-6" x1="68.21" y1="12.52" x2="74.33" y2="12.52"/>
  <line class="cls-6" x1="68.21" y1="18.23" x2="74.33" y2="18.23"/>
  <line class="cls-6" x1="68.21" y1="23.94" x2="74.33" y2="23.94"/>
  <line class="cls-6" x1="68.21" y1="29.64" x2="74.33" y2="29.64"/>
  <line class="cls-6" x1="68.21" y1="35.35" x2="74.33" y2="35.35"/>
  <line class="cls-6" x1="68.21" y1="46.76" x2="74.33" y2="46.76"/>
  <line class="cls-6" x1="68.21" y1="41.06" x2="74.33" y2="41.06"/>
  <line class="cls-6" x1="68.21" y1="52.47" x2="74.33" y2="52.47"/>
  <line class="cls-6" x1="68.21" y1="58.18" x2="74.33" y2="58.18"/>
  <line class="cls-6" x1="68.21" y1="63.89" x2="74.33" y2="63.89"/>
  <line class="cls-6" x1="68.21" y1="69.59" x2="74.33" y2="69.59"/>
  <line class="cls-6" x1="68.21" y1="75.3" x2="74.33" y2="75.3"/>
  <line class="cls-6" x1="68.21" y1="81.01" x2="74.33" y2="81.01"/>
  <line class="cls-6" x1="68.21" y1="86.71" x2="74.33" y2="86.71"/>
  <rect class="cls-4" x="57.77" y="12.89" width="7.28" height="34.68"/>
  <path class="cls-3" d="m74,106.24c0,6.95-5.64,12.58-12.59,12.58s-12.58-5.63-12.58-12.58c0-5.68,3.77-10.5,8.94-12.06v-59.33h7.28v59.34c5.18,1.56,8.94,6.37,8.94,12.05Z"/>
  <text class="cls-8" transform="translate(78.02 40.19)"><tspan x="0" y="0">37°</tspan></text>
  <g>
    <rect class="cls-1" x="15.81" y="38.34" width="23.55" height="23.55" rx="4.14" ry="4.14"/>
    <path class="cls-5" d="m39.36,48.25v10.33c0,1.82-1.49,3.31-3.31,3.31h-16.94c-1.82,0-3.31-1.49-3.31-3.31v-16.94c0-1.82,1.49-3.31,3.31-3.31h16.94"/>
    <polyline class="cls-5" points="19.06 45.3 27.58 57.52 41.96 38.34"/>
  </g>
  <path class="cls-3" d="m115.88,74.02c0,7.64-6.2,13.84-13.84,13.84s-13.84-6.2-13.84-13.84c0-5.64,7.54-18.29,11.49-24.53,1.09-1.73,3.61-1.73,4.7,0,3.95,6.24,11.49,18.89,11.49,24.53Z"/>
  <rect class="cls-7" x="-221.99" y="-603.76" width="1215" height="875.1"/>
</svg>