<?xml version="1.0" encoding="UTF-8"?>
<svg id="Calque_1" data-name="Calque 1" xmlns="http://www.w3.org/2000/svg" viewBox="0 0 200 128">
  <defs>
    <style>
      .cls-1, .cls-2, .cls-3, .cls-4, .cls-5, .cls-6, .cls-7, .cls-8, .cls-9, .cls-10 {
        stroke: #000;
      }

      .cls-1, .cls-2, .cls-7, .cls-8, .cls-11 {
        stroke-linecap: round;
        stroke-linejoin: round;
      }

      .cls-1, .cls-4, .cls-9 {
        fill: #fff;
      }

      .cls-2, .cls-8, .cls-10, .cls-11, .cls-12 {
        fill: none;
      }

      .cls-13 {
        fill: #bbfedb;
      }

      .cls-3 {
        fill: #f3d587;
      }

      .cls-3, .cls-4, .cls-5, .cls-6, .cls-7, .cls-8, .cls-10 {
        stroke-width: 2px;
      }

      .cls-3, .cls-4, .cls-5, .cls-6, .cls-9, .cls-10, .cls-12 {
        stroke-miterlimit: 10;
      }

      .cls-5, .cls-7 {
        fill: #87ccf3;
      }

      .cls-6 {
        fill: #d6d6d6;
      }

      .cls-11 {
        stroke: #fff;
        stroke-width: 8px;
      }

      .cls-12 {
        stroke: #231f20;
      }
    </style>
  </defs>
  <rect class="cls-7" x="97.59" y="19.69" width="82.68" height="94.12" rx="20.3" ry="20.3"/>
  <path class="cls-9" d="m136.98,37.5s.14-.21.4-.45c1.12-1.06,3.4-1.33,4.13,1.16.5,1.7-1.68,5.43-1.41,6.17,0,0-5.79-2.94-3.12-6.87Z"/>
  <path class="cls-9" d="m166.16,49.5s.02-.25-.02-.6c-.19-1.53-1.78-3.18-3.92-1.73-1.47,1-2.16,5.25-2.83,5.65,0,0,6.34,1.41,6.78-3.32Z"/>
  <path class="cls-3" d="m128.56,62.36c-1.76,2.17-5.85,7.53-5.95,10.53,0,.06-.04.1-.1.11-1.12.05-11.35.86-11.07,12.24,0,.08-.07.15-.15.12-.94-.35-5.82-2-4.91,2.34,0,.02.01.04.03.06.38.4,5.33,5.54,8.58,3.58.02-.01.04-.03.05-.06.28-.59,4.22-8.7,10.51-5.86,0,0,10.92,2.31,5.7,10.71-.01.02-.03.03-.04.04-.38.22-4.84,2.9-.61,6.93,0,0,7.37,7.37,6.11,0l-1-2.79c-.03-.08.02-.16.1-.16.91-.05,5.55-.52,7.63-5.26h0s2.28-6.65.05-9.62c-.03-.04-.03-.08,0-.12.56-.68,5.89-7.28,5.89-11.7,0-.13.16-.17.22-.05.77,1.53,3.42,5.23,10.05,2.34,7.66-3.34,7.62-5.4,7.59-5.66,0-.02,0-.03-.02-.05l-2.89-4.33s-.07-.07-.12-.05c-.68.17-5.7,1.46-7.34,2.82-.09.07-.22-.01-.19-.12.43-1.52.97-6.11-6.08-10.93,0,0-4.95-4.9-14.77-5.83-1.41-.13-2.86.14-4.01.95-.6.42-1.12.97-1.33,1.67-.04.12-.2.13-.23,0-.37-1.81-1.51-6.7-3.19-8.12-.03-.03-.07-.03-.11-.02l-4.9,1.23c-.05.01-.09.05-.09.11-.05.99-.53,10.55,1.27,12.55,1.69,1.88,2.71,3.92,5.15,2.25.12-.08.25.06.17.17Z"/>
  <path class="cls-1" d="m122.76,42.98s-1.33-4.52-1.47-1.85c-.14,2.67.06,4.77.69,6.18l5.05-1.26s1.15-2.1.54-3.18c-.18-.31-.64-.27-.78.06-.18.43-.39,1.02-.39,1.43,0,0,.95-3.4.13-4.54-.23-.32-.74-.21-.83.17-.19.78-.48,2.21-.28,3.1,0,0,.02-2.37-.41-3.63-.13-.37-.64-.36-.76,0-.26.83-.55,2.24.04,3.39,0,0-.7-3.66-1.12-3.62-.91.09-.41,3.76-.41,3.76Z"/>
  <path class="cls-1" d="m169.83,66.33s4.2-2.14,2.36-.2c-1.84,1.93-3.51,3.23-4.96,3.74l-2.84-4.31s1.03-2.51,2.23-2.81c.35-.09.64.28.49.61-.19.42-.48.99-.77,1.27,0,0,1.82-3.02,3.21-3.21.39-.05.66.39.45.73-.43.67-1.28,1.86-2.06,2.33,0,0,1.71-1.65,2.92-2.19.35-.16.71.22.52.56-.42.76-1.25,1.93-2.49,2.3,0,0,3.14-2.01,3.4-1.68.56.72-2.45,2.88-2.45,2.88Z"/>
  <path class="cls-4" d="m151.94,56.36s-3.51,5.54-8.98,1.75c0,0-4.42-2.53-1.54-6.18l10.53,4.42Z"/>
  <path class="cls-12" d="m128.71,81.83s10.43-18.04,14.25-23.72"/>
  <path class="cls-4" d="m139.47,37.02c-1.43,5.83-4.38,10.95.21,13.81,4.14,2.58,13.82,8.77,16.92,6.8,4.75-3.01,20.47-21.26.95-28.67-.23-.09-6.24-2.74-8.65-2.48-4.06.44-7.77,3.76-9.44,10.55Z"/>
  <path d="m148.84,48.27c-.16.01-.31-.06-.41-.2-.3-.44-.43-.94-.33-1.36.06-.3.24-.56.49-.71.26-.16.54-.19.76-.21.24-.02.39-.04.53-.16.21-.16.33-.66.36-.96.02-.25.25-.44.49-.42.25.02.44.24.42.49,0,.11-.11,1.13-.7,1.6-.36.28-.73.32-1,.35-.16.02.05.27,0,.37,0,.02-.43-.25-.45-.17-.03.13,0,.38.19.64.15.21.09.49-.12.64-.07.05-.15.08-.23.08Z"/>
  <path class="cls-2" d="m143.53,40.45s1.51,2.34,3.56,2"/>
  <path class="cls-2" d="m158.28,48.26s-2.78-.18-3.48-2.13"/>
  <path class="cls-2" d="m145.31,49.81s.89,2.13,3.83,1.69"/>
  <path class="cls-2" d="m140.44,33.99s4.23,2.98,14.45,1.07"/>
  <path class="cls-2" d="m154.8,31.49s-1.89,9.79,10.58,15.81"/>
  <path class="cls-4" d="m47.68,91.23V12.56c0-4.04-3.27-7.31-7.31-7.31s-7.31,3.27-7.31,7.31v78.68c-5.97,2.77-10.12,8.8-10.12,15.81,0,9.63,7.81,17.43,17.43,17.43s17.44-7.81,17.44-17.43c0-7.01-4.15-13.05-10.12-15.81Z"/>
  <line class="cls-10" x1="47.17" y1="13.21" x2="53.29" y2="13.21"/>
  <line class="cls-10" x1="47.17" y1="18.92" x2="53.29" y2="18.92"/>
  <line class="cls-10" x1="47.17" y1="24.63" x2="53.29" y2="24.63"/>
  <line class="cls-10" x1="47.17" y1="30.33" x2="53.29" y2="30.33"/>
  <line class="cls-10" x1="47.17" y1="36.04" x2="53.29" y2="36.04"/>
  <line class="cls-10" x1="47.17" y1="47.46" x2="53.29" y2="47.46"/>
  <line class="cls-10" x1="47.17" y1="41.75" x2="53.29" y2="41.75"/>
  <line class="cls-10" x1="47.17" y1="53.16" x2="53.29" y2="53.16"/>
  <line class="cls-10" x1="47.17" y1="58.87" x2="53.29" y2="58.87"/>
  <line class="cls-10" x1="47.17" y1="64.58" x2="53.29" y2="64.58"/>
  <line class="cls-10" x1="47.17" y1="70.29" x2="53.29" y2="70.29"/>
  <line class="cls-10" x1="47.17" y1="75.99" x2="53.29" y2="75.99"/>
  <line class="cls-10" x1="47.17" y1="81.7" x2="53.29" y2="81.7"/>
  <line class="cls-10" x1="47.17" y1="87.41" x2="53.29" y2="87.41"/>
  <rect class="cls-6" x="36.73" y="13.58" width="7.28" height="34.68"/>
  <path class="cls-5" d="m52.96,106.93c0,6.95-5.64,12.58-12.59,12.58s-12.58-5.63-12.58-12.58c0-5.68,3.77-10.5,8.94-12.06v-46.6h7.28v46.61c5.18,1.56,8.94,6.37,8.94,12.05Z"/>
  <g>
    <path d="m56.55,52.47v-1.14c.53-.02.89-.06,1.1-.11.33-.07.61-.22.82-.45.14-.15.25-.36.33-.61.04-.15.06-.27.06-.34h1.39v8.5h-1.71v-5.86h-2Z"/>
    <path d="m63.03,54.68c.21-.39.53-.68.95-.87-.41-.27-.68-.57-.8-.89-.12-.32-.19-.62-.19-.89,0-.62.23-1.14.7-1.58.46-.44,1.12-.65,1.97-.65s1.51.22,1.97.65.7.96.7,1.58c0,.28-.06.58-.18.89s-.39.59-.8.83c.42.23.74.54.95.93s.32.82.32,1.29c0,.71-.26,1.32-.79,1.83-.53.5-1.27.75-2.22.75s-1.67-.25-2.16-.75c-.49-.5-.73-1.11-.73-1.83,0-.48.11-.91.32-1.29Zm1.74,2.16c.22.23.52.35.9.35s.68-.12.9-.35.33-.55.33-.97-.11-.76-.33-.99-.52-.34-.89-.34-.67.11-.89.34-.33.55-.33.99.11.74.33.97Zm.11-3.87c.19.2.45.29.79.29s.6-.1.79-.29c.19-.2.28-.45.28-.76,0-.34-.09-.6-.28-.79-.19-.19-.45-.28-.79-.28s-.6.09-.79.28c-.19.19-.29.45-.29.79,0,.31.09.56.29.76Z"/>
    <path d="m71.51,49.78c.52,0,.96.19,1.33.56s.56.82.56,1.33-.19.96-.56,1.33-.82.56-1.33.56-.96-.19-1.33-.56-.56-.82-.56-1.33.19-.96.56-1.33.82-.56,1.33-.56Zm-.95,1.89c0,.26.09.49.28.67.18.19.41.28.67.28s.49-.09.67-.28c.18-.18.28-.41.28-.67s-.09-.49-.28-.67-.41-.28-.67-.28-.49.09-.67.28c-.19.18-.28.41-.28.67Z"/>
    <path d="m78.47,54.23c-.03-.24-.11-.45-.24-.64-.19-.26-.48-.39-.88-.39-.56,0-.95.28-1.16.84-.11.3-.16.69-.16,1.18s.05.84.16,1.13c.2.53.58.8,1.13.8.39,0,.67-.11.83-.32.17-.21.26-.48.3-.82h1.71c-.04.51-.22.99-.55,1.44-.52.73-1.3,1.1-2.33,1.1s-1.79-.3-2.27-.91c-.49-.61-.73-1.4-.73-2.37,0-1.1.27-1.95.8-2.56.54-.61,1.27-.91,2.22-.91.8,0,1.46.18,1.97.54.51.36.81.99.91,1.9h-1.71Z"/>
  </g>
  <g>
    <path d="m56.94,42.8c.24-.57.8-1.17,1.69-1.8.77-.55,1.27-.95,1.49-1.18.35-.37.52-.78.52-1.22,0-.36-.1-.66-.3-.9s-.48-.36-.86-.36c-.51,0-.85.19-1.04.57-.11.22-.17.57-.19,1.04h-1.62c.03-.72.16-1.31.39-1.75.45-.85,1.24-1.27,2.38-1.27.9,0,1.62.25,2.15.75.53.5.8,1.16.8,1.98,0,.63-.19,1.19-.56,1.68-.25.32-.65.69-1.21,1.08l-.67.47c-.42.3-.71.51-.86.64s-.28.29-.39.46h3.71v1.47h-5.82c.02-.61.15-1.17.39-1.67Z"/>
    <path d="m68.43,37.06c.44.76.65,1.84.65,3.25s-.22,2.48-.65,3.24-1.19,1.14-2.28,1.14-1.84-.38-2.28-1.14-.65-1.84-.65-3.24.22-2.48.65-3.25,1.19-1.14,2.28-1.14,1.84.38,2.28,1.14Zm-3.26,5.49c.16.52.49.78.98.78s.82-.26.98-.78.23-1.26.23-2.24-.08-1.78-.23-2.27-.48-.74-.98-.74-.82.25-.98.74-.24,1.25-.24,2.27.08,1.72.24,2.24Z"/>
    <path d="m71.97,35.91c.52,0,.96.19,1.33.56s.56.82.56,1.33-.19.96-.56,1.33-.82.56-1.33.56-.96-.19-1.33-.56-.56-.82-.56-1.33.19-.96.56-1.33.82-.56,1.33-.56Zm-.95,1.89c0,.26.09.49.28.67.18.19.41.28.67.28s.49-.09.67-.28c.18-.18.28-.41.28-.67s-.09-.49-.28-.67-.41-.28-.67-.28-.49.09-.67.28c-.19.18-.28.41-.28.67Z"/>
    <path d="m78.92,40.37c-.03-.24-.11-.45-.24-.64-.19-.26-.48-.39-.88-.39-.56,0-.95.28-1.16.84-.11.3-.16.69-.16,1.18s.05.84.16,1.13c.2.53.58.8,1.13.8.39,0,.67-.11.83-.32.17-.21.26-.48.3-.82h1.71c-.04.51-.22.99-.55,1.44-.52.73-1.3,1.1-2.33,1.1s-1.79-.3-2.27-.91c-.49-.61-.73-1.4-.73-2.37,0-1.1.27-1.95.8-2.56.54-.61,1.27-.91,2.22-.91.8,0,1.46.18,1.97.54.51.36.81.99.91,1.9h-1.71Z"/>
  </g>
  <g>
    <rect class="cls-13" x="82.56" y="10.1" width="23.55" height="23.55" rx="4.14" ry="4.14"/>
    <path class="cls-8" d="m106.11,20.01v10.33c0,1.82-1.49,3.31-3.31,3.31h-16.94c-1.82,0-3.31-1.49-3.31-3.31V13.41c0-1.82,1.49-3.31,3.31-3.31h16.94"/>
    <polyline class="cls-8" points="85.81 17.06 94.33 29.28 108.71 10.1"/>
  </g>
  <rect class="cls-11" x="-4604.82" y="-5317" width="6467.34" height="6437.3"/>
</svg>