<?xml version="1.0" encoding="UTF-8"?>
<svg id="Calque_1" data-name="Calque 1" xmlns="http://www.w3.org/2000/svg" viewBox="0 0 128 128">
  <defs>
    <style>
      .cls-1 {
        fill: #77eddf;
      }

      .cls-1, .cls-2, .cls-3, .cls-4, .cls-5, .cls-6, .cls-7 {
        stroke: #000;
      }

      .cls-1, .cls-2, .cls-3, .cls-4, .cls-5, .cls-7, .cls-8 {
        stroke-linecap: round;
        stroke-linejoin: round;
      }

      .cls-2 {
        fill: #fce9b9;
      }

      .cls-3 {
        fill: #bbfedb;
      }

      .cls-4 {
        fill: #f3d587;
      }

      .cls-5, .cls-7, .cls-8 {
        fill: none;
      }

      .cls-9 {
        fill: #d6d6d6;
      }

      .cls-6 {
        fill: #fee4cb;
        stroke-miterlimit: 10;
      }

      .cls-7 {
        stroke-dasharray: 0 0 .97 2.91;
      }

      .cls-8 {
        stroke: #fff;
        stroke-width: 8px;
      }
    </style>
  </defs>
  <line class="cls-6" x1="69.92" y1="90.25" x2="66.96" y2="86.41"/>
  <path class="cls-3" d="m66.93,55.48c-.02-.81-.02-1.61-.01-2.42-.42-2.99-.48-6.05-.48-8.78,0-4.3-.34-13,.43-17.3-4.28-1.53-13.89,1.09-17.97,2.66-14.43,5.55-22.85,21.21-25.77,27.33-3.13,6.55-5.62,16.78-6.65,23.91,1.87,3.06,5.09.17,8.32.68,3.38.53,9.44,3.09,12.4,4.76,5.48,3.09,11,6.5,15.97,10.36,1.96,1.52,5.81,7.15,7.68,9.58.78,1.02,2.78,3.36,4.34,2.79,1.93-.7,2.64-4.52,3.35-6.27,1.04-2.55,1.43-5.31,1.54-8.04.26-6.41-.7-12.9-1.44-19.25-.77-6.65-1.57-13.31-1.72-20.01Z"/>
  <path class="cls-3" d="m65.53,46.13c-.31-4.29-1.28-15.43-2.05-19.73,4.43,0,9.97.48,14.18,1.68,23.47,6.68,28.28,22.77,31.2,28.88,3.13,6.55,6.71,21.62,6.73,22.49-1.51,2.45-6.43.92-9.49,1.77-3.3.92-8.34,3.43-11.31,5.1-5.48,3.09-13.59,7.67-18.57,11.53-1.96,1.52-6.6,11.2-11.03,11.2.17-1.44.02-5.05-.46-7.84-.46-2.71-.61-16.87.12-23.23.77-6.65,1.12-25.67.68-31.87Z"/>
  <path class="cls-1" d="m17.41,75.54c1.63.27,8.57.68,13.66,2.21,4.47,1.35,8.17,3.14,12.26,5.37,4.24,2.31,8.25,5.24,11.84,8.2,3.49,2.88,6.27,5.87,9.46,9.08.03-1.95,0-3.57-.23-5.28-6.22-7.08-14.71-13.6-23.38-17.51-7.69-3.47-14.4-4.96-22.72-6.1-.21,1.13-.65,2.59-.89,4.02Z"/>
  <path class="cls-1" d="m114.53,74.69c-.58.1-2.16.56-4.19.88-3.62.57-8.65,1.2-11.91,2.18-4.47,1.35-8.17,3.14-12.26,5.37-4.24,2.31-8.25,5.24-11.84,8.2-3.49,2.88-6.51,5.87-9.7,9.08-.03-1.95-.18-3.84-.23-5.28,6.22-7.08,15.41-13.6,24.07-17.51,6.48-2.92,14.21-4.81,21.36-6.1,1.33-.24,2.45-.63,3.64-.88.21,1.13.81,2.61,1.06,4.04Z"/>
  <path class="cls-1" d="m74.52,76.83c.8,7.15.68,13.86,1.9,20.95,3.65-2.7,9.61-6.32,15.91-9.77,2.81-1.54,9.58-5.54,11.29-5.94-.43-1.65-2.47-12.43-4.54-17.96-2.04-5.44-4.02-9.59-8.83-11.49-5.03-1.99-10.99.94-13.8,5.43-3.44,5.48-2.61,12.69-1.92,18.78Z"/>
  <g>
    <path class="cls-9" d="m122.93,78.95c-.28,0-.54-.14-.67-.38-3.51-6.02-8.93-17.06-9.87-19.33-.57-1.37-.99-2.05-1.49-2.85-.38-.62-.82-1.32-1.36-2.43-.1-.21-.09-.46.04-.67.14-.23.41-.37.68-.37s.52.15.64.4c.37.79.85,1.58,1.45,2.57.82,1.34,1.83,3.01,3.06,5.48,1.08,2.18,2.53,5.02,4,7.88,1.55,3.03,3.16,6.16,4.31,8.5.13.26.12.54-.03.78-.16.25-.46.42-.76.42h0Z"/>
    <path d="m110.27,53.42c.08,0,.15.03.19.11.91,1.92,2.4,3.79,4.51,8.05,2.24,4.52,6.08,11.86,8.31,16.39.13.26-.12.48-.34.48-.1,0-.19-.04-.24-.13-3.42-5.86-8.86-16.91-9.84-19.27-1.04-2.52-1.67-2.86-2.85-5.31-.08-.17.1-.32.27-.32m0-1c-.45,0-.87.23-1.1.61-.22.35-.24.78-.06,1.15.55,1.13.99,1.85,1.38,2.48.48.78.9,1.45,1.45,2.78.94,2.28,6.37,13.35,9.9,19.4.23.39.64.63,1.11.63s.93-.25,1.18-.65c.24-.38.26-.86.06-1.27-1.16-2.35-2.77-5.49-4.32-8.53-1.43-2.8-2.91-5.69-3.99-7.86-1.23-2.48-2.25-4.16-3.07-5.51-.6-.98-1.07-1.75-1.43-2.53-.2-.42-.62-.69-1.09-.69h0Z"/>
  </g>
  <g>
    <path class="cls-9" d="m60.17,112.58c-.24,0-.47-.1-.64-.27-.15-.16-.24-.37-.23-.58.31-13.46,1.37-25.42,3.25-36.57.04-.24.23-.52.9-.52.2,0,.41.03.61.07.25.06.42.31.38.57-.53,3.17-1.18,11.3-1.8,19.17-.69,8.66-1.28,16.14-1.73,17.6-.1.32-.38.52-.73.52h0Z"/>
    <path d="m63.44,75.13c.15,0,.32.02.49.06-1.1,6.53-2.66,33.96-3.51,36.71-.04.12-.14.17-.25.17-.18,0-.37-.13-.37-.34.28-12.25,1.21-24.41,3.24-36.5.01-.06.17-.1.4-.1m0-1c-1.14,0-1.35.72-1.39.94-1.88,11.17-2.94,23.16-3.25,36.64,0,.36.12.69.37.95.26.27.62.42.99.42.56,0,1.05-.35,1.21-.88.44-1.41.95-7.63,1.75-17.71.62-7.86,1.27-15.99,1.79-19.14.09-.52-.24-1.01-.75-1.14-.24-.06-.49-.09-.73-.09h0Z"/>
  </g>
  <g>
    <path class="cls-9" d="m11.13,82.34c-.25,0-.47-.11-.61-.3-.11-.15-.22-.42-.09-.83l.52-1.64c2.8-8.84,5.69-17.98,10.3-25.84.09-.16.26-.25.43-.25.08,0,.16.02.24.06.34.18.8.45.99.56.12.07.21.19.24.33s0,.28-.09.4c-2.48,3.36-6.65,15.41-8.88,21.88-1.14,3.31-1.53,4.41-1.71,4.69-.38.59-.89.95-1.34.95Z"/>
    <path d="m21.68,53.97c.33.18.78.44.98.55-3.49,4.73-10.02,25.69-10.61,26.59-.32.49-.68.72-.92.72-.21,0-.32-.17-.22-.48,2.91-9.17,5.9-19.08,10.77-27.38m0-1c-.34,0-.68.18-.86.49-4.64,7.91-7.54,17.08-10.34,25.95l-.52,1.64c-.2.64.01,1.08.16,1.28.23.32.6.5,1.01.5.64,0,1.28-.43,1.76-1.18.21-.32.52-1.19,1.76-4.8,2.23-6.45,6.37-18.44,8.81-21.74.17-.23.23-.52.18-.79s-.23-.52-.47-.66c-.2-.12-.66-.38-1.01-.57-.15-.08-.32-.12-.48-.12h0Z"/>
  </g>
  <path class="cls-4" d="m64.8,24.29s1.23,1.29,1.19,3.03c-.04,1.74-35.44,12.43-35.44,12.43,0,0,12.8-13.21,34.24-15.45Z"/>
  <path class="cls-4" d="m63.48,24.42s2.07,1.16,2.51,2.9c.44,1.74,47.48,30.47,47.48,30.47,0,0-8.13-16.74-17.62-24.31-15.3-12.21-29.69-9.2-32.38-9.05Z"/>
  <path class="cls-4" d="m42.34,65.66c3.44,1.74,17.98,11.38,21.14,14.21,1.85-8.38,5.08-18.63,5.58-27.21.79-13.64-2.96-25.42-3.07-25.33-18.8-1.26-40.86,10.4-46.17,29.07,3.31.59,15.51,5.72,22.52,9.27Z"/>
  <path class="cls-2" d="m63.48,79.86c5.41-7.43,10.42-16.22,23.61-21.49,10.69-4.27,17.52-2.78,26.38-.58-12.75-22.59-27.5-29.77-47.48-30.47-.08,1.71-.04,6.54,0,8.42.12,5.44,0,11.72-.01,17.28-.02,8.97-1.27,17.96-2.5,26.85Z"/>
  <g>
    <path class="cls-5" d="m99.81,83.6c-.03-.11-.07-.27-.11-.48"/>
    <path class="cls-7" d="m99.09,80.27c-.61-2.81-1.51-6.68-2.42-9.1-1.41-3.76-2.78-6.63-6.11-7.95-3.48-1.38-7.6.65-9.55,3.75-2.38,3.79-1.8,8.78-1.33,12.99.48,4.29.48,8.35,1.02,12.55"/>
    <path class="cls-5" d="m80.91,93.97c.03.16.05.33.08.49"/>
  </g>
  <rect class="cls-8" x="-1499.93" y="-998.25" width="2244.45" height="5948.74"/>
</svg>