<?xml version="1.0" encoding="UTF-8"?>
<svg id="Calque_1" data-name="Calque 1" xmlns="http://www.w3.org/2000/svg" viewBox="0 0 128 128.13">
  <defs>
    <style>
      .cls-1 {
        fill: #d6d6d6;
      }

      .cls-1, .cls-2, .cls-3, .cls-4, .cls-5, .cls-6, .cls-7, .cls-8 {
        stroke: #000;
      }

      .cls-1, .cls-2, .cls-3, .cls-9 {
        stroke-linecap: round;
        stroke-linejoin: round;
      }

      .cls-2 {
        fill: #87ccf3;
      }

      .cls-3, .cls-9, .cls-8 {
        fill: none;
      }

      .cls-4, .cls-5, .cls-6, .cls-7, .cls-8 {
        stroke-miterlimit: 10;
      }

      .cls-5 {
        fill: #7bd7ff;
      }

      .cls-6 {
        fill: #a07637;
      }

      .cls-7 {
        fill: #8987f3;
      }

      .cls-9 {
        stroke: #fff;
        stroke-width: 8px;
      }
    </style>
  </defs>
  <path class="cls-1" d="m107.4,28.2c-.43,0-.85,0-1.27-.01h-.12c-.25,0-.5,0-.74,0-.47-.01-.93-.02-1.38-.04-.6-.01-1.2-.04-1.78-.06-.2,0-.41-.02-.61-.03-.26,0-.52-.02-.78-.03-.19,0-.37-.02-.56-.03-1.12-.05-2.24-.13-3.42-.21l-1.37-.1c-.12-.01-.23-.01-.34-.03-.45-.04-.91-.07-1.38-.11-2.35-.19-4.94-.41-8-.66-.46,1.37-.91,2.73-1.32,4.08h0c-.05.19-.11.36-.16.53-.08.27-.16.53-.24.8-.05.17-.1.34-.15.51-.77,2.64-1.48,5.26-2.1,7.87-.02.1-.05.2-.07.29-.1.38-.19.75-.27,1.14h0c-.03.12-.06.24-.08.36-5.5,24.03-5.13,46.94-6.88,70.71,0,.15-.02.3-.03.44-.02.31-.04.62-.07.94,0,.14-.02.3-.03.44-.07.9-.15,1.81-.22,2.72,5.5.25,10.98.79,16.43,1.54.15-.82.31-1.72.48-2.67h0c.07-.45.15-.89.23-1.36,2.39-14.18,5.74-38.75,7.33-50.17h0c.02-.11.03-.21.05-.31.43-3,.71-5.04.83-5.67.07.6.21,2.46.4,5.19,0,0,0,.01,0,.02.04.48.08.98.11,1.51.85,12,2.53,36.62,3.64,49.75,0,.04,0,.08,0,.12.04.46.08.9.11,1.33,0,.01,0,.03,0,.04.09.99.17,1.89.25,2.7,5.48-.36,11-.49,16.5-.36-.02-.91-.02-1.81-.03-2.72,0-.1,0-.21,0-.32,0-.36,0-.71,0-1.07,0-.11,0-.21,0-.33-.08-23.88,1.72-47.77-1.35-71.07-.06-.51-.13-1.01-.2-1.51v-.02c-.07-.51-.15-1.03-.23-1.54h0c-.35-2.34-.75-4.68-1.23-7-.04-.22-.09-.45-.13-.68-.05-.22-.09-.45-.14-.68-.04-.22-.09-.44-.13-.66-.27-1.25-.55-2.49-.86-3.73-3.32.12-6.08.16-8.57.15-.03,0-.08,0-.11,0Z"/>
  <path class="cls-3" d="m84.74,29.64s13.45,4.52,31.96,1.07"/>
  <line class="cls-2" x1="100.72" y1="28.02" x2="99.36" y2="59.08"/>
  <path class="cls-3" d="m93.65,27.55s-.56,9.55-11.83,12.51"/>
  <path class="cls-3" d="m110.44,28.19s-.65,12.52,8.36,14.16"/>
  <g>
    <path class="cls-4" d="m16.51,94.22c-.23-.29-.47-.61-.74-.87-.1-.1-.22-.2-.33-.29-.02-.02-.24-.21-.14-.11-.15-.15-.29-.3-.45-.44-.15-.13-.3-.25-.46-.37-.08-.06-.16-.13-.25-.18-.03-.02-.07-.04-.1-.06-.03-.02-.04-.03-.04-.03-.28-.27-.78-.32-1.08-.05-.33.3-.4.78-.12,1.13.14.18.33.28.52.41.14.11.29.22.43.33.02.02.05.04.07.06,0,0,0,0,.03.03.06.07.13.13.2.2.16.16.33.3.51.44.01.01.01.01.02.02.03.04.07.07.1.11.05.06.1.12.14.18.13.16.27.31.39.47.1.13.2.27.29.41.02.03.09.16.1.18.05.09.09.18.13.28.17.38.68.59,1.07.39.39-.2.6-.66.42-1.06-.19-.41-.43-.81-.71-1.17Z"/>
    <path class="cls-4" d="m27.47,101.22c-.23.22-.47.37-.73.46l-1.41.45c-1.8.14-2.17-1.85-2.46-2.99-.33-1.34-.77-2.65-1.33-3.9-.32-.73-.69-1.51-1.39-1.96,1.48-.46,3.2-1.22,4.52-1.95h0c-.17.83.15,1.64.44,2.38.52,1.27,1.16,2.49,1.9,3.66.63.99,1.78,2.62.45,3.85Z"/>
    <path class="cls-4" d="m33.25,112.42l-2.39,2.04c-.09.07-.18.14-.28.19-.32.17-.65.33-.97.49-2.04.95-4.17,1.66-6.37,2.08l-.25.04c-.64.11-1.29-.21-1.58-.79-.03-.07-.07-.13-.1-.2-.22-.45-.44-.89-.65-1.34l12.6-2.51Z"/>
    <path class="cls-6" d="m56.74,100.84s-.03.03-.05.05c-4.12,4.83-9.78,8.3-15.96,9.83-.46.12-.93.22-1.41.31-.15.03-.29.04-.44.04-.44,0-1.44.02-2.35.02-1.13,0-2.23.42-3.09,1.16l-.19.16-12.6,2.51c-.18-.38-.34-.75-.51-1.13-.22-.5-.42-1.01-.61-1.51-.57-1.49-1.06-3.01-1.44-4.56-.6-2.33-.86-4.68-1.18-7.05-.25-1.93-.62-3.87-1.69-5.47-.23-.35-.5-.68-.8-1l.35-.15c.27-.12.57-.24.88-.37,1.14-.46,2.45-.91,3.51-.77.4.06.73.19.99.36.7.45,1.07,1.23,1.39,1.96.56,1.25.99,2.55,1.33,3.9.28,1.14.66,3.13,2.46,2.99l1.41-.45c.26-.09.51-.24.73-.46,1.33-1.23.18-2.85-.45-3.85-.74-1.17-1.38-2.39-1.9-3.66-.29-.74-.61-1.55-.44-2.37h0c.05-.33.19-.65.42-.96.43-.59,1.15-1.09,1.93-1.48.37-.21.76-.38,1.13-.55l.03.07c.14.37.3.73.47,1.08.95,2.02,2.28,3.84,3.93,5.36,3.62,3.29,8.64,4.92,13.59,4.38,2.53-.28,5.04-1.35,7.6-1.07.25.02.5.06.75.12.58.13,1.14.34,1.64.62.12.07.24.14.35.22h.01c.56.38.66,1.18.22,1.7Z"/>
  </g>
  <g>
    <path class="cls-4" d="m23.66,96.04c-.23-.29-.47-.61-.74-.87-.1-.1-.22-.2-.33-.29-.02-.02-.24-.21-.14-.11-.15-.15-.29-.3-.45-.44-.15-.13-.3-.25-.46-.37-.08-.06-.16-.13-.25-.18-.03-.02-.07-.04-.1-.06-.03-.02-.04-.03-.04-.03-.28-.27-.78-.32-1.08-.05-.33.3-.4.78-.12,1.13.14.18.33.28.52.41.14.11.29.22.43.33.02.02.05.04.07.06,0,0,0,0,.03.03.06.07.13.13.2.2.16.16.33.3.51.44.01.01.01.01.02.02.03.04.07.07.1.11.05.06.1.12.14.18.13.16.27.31.39.47.1.13.2.27.29.41.02.03.09.16.1.18.05.09.09.18.13.28.17.38.68.59,1.07.39.39-.2.6-.66.42-1.06-.19-.41-.43-.81-.71-1.17Z"/>
    <path class="cls-4" d="m34.62,103.04c-.23.22-.47.37-.73.46l-1.41.45c-1.8.14-2.17-1.85-2.46-2.99-.33-1.34-.77-2.65-1.33-3.9-.32-.73-.69-1.51-1.39-1.96,1.48-.46,3.2-1.22,4.52-1.95h0c-.17.83.15,1.64.44,2.38.52,1.27,1.16,2.49,1.9,3.66.63.99,1.78,2.62.45,3.85Z"/>
    <path class="cls-4" d="m40.41,114.24l-2.39,2.04c-.09.07-.18.14-.28.19-.32.17-.65.33-.97.49-2.04.95-4.17,1.66-6.37,2.08l-.25.04c-.64.11-1.29-.21-1.58-.79-.03-.07-.07-.13-.1-.2-.22-.45-.44-.89-.65-1.34l12.6-2.51Z"/>
    <path class="cls-6" d="m63.89,102.66s-.03.03-.05.05c-4.12,4.83-9.78,8.3-15.96,9.83-.46.12-.93.22-1.41.31-.15.03-.29.04-.44.04-.44,0-1.44.02-2.35.02-1.13,0-2.23.42-3.09,1.16l-.19.16-12.6,2.51c-.18-.38-.34-.75-.51-1.13-.22-.5-.42-1.01-.61-1.51-.57-1.49-1.06-3.01-1.44-4.56-.6-2.33-.86-4.68-1.18-7.05-.25-1.93-.62-3.87-1.69-5.47-.23-.35-.5-.68-.8-1l.35-.15c.27-.12.57-.24.88-.37,1.14-.46,2.45-.91,3.51-.77.4.06.73.19.99.36.7.45,1.07,1.23,1.39,1.96.56,1.25.99,2.55,1.33,3.9.28,1.14.66,3.13,2.46,2.99l1.41-.45c.26-.09.51-.24.73-.46,1.33-1.23.18-2.85-.45-3.85-.74-1.17-1.38-2.39-1.9-3.66-.29-.74-.61-1.55-.44-2.37h0c.05-.33.19-.65.42-.96.43-.59,1.15-1.09,1.93-1.48.37-.21.76-.38,1.13-.55l.03.07c.14.37.3.73.47,1.08.95,2.02,2.28,3.84,3.93,5.36,3.62,3.29,8.64,4.92,13.59,4.38,2.53-.28,5.04-1.35,7.6-1.07.25.02.5.06.75.12.58.13,1.14.34,1.64.62.12.07.24.14.35.22h.01c.56.38.66,1.18.22,1.7Z"/>
  </g>
  <path class="cls-5" d="m70.61,69.09c-.14-.42-.39-.62-.86-.29-1.59,1.13-4.04,1.38-5.81.62-.32-.14-.59.08-.66.49-.07.38.14.7.21,1.06.14.73-.31,2.59.49,2.93,1.76.76,3.7.57,5.4-.14.39-.16.82-.26,1.17-.55.45-.38.39-.77.29-1.41-.06-.4,0-2.05-.23-2.71Z"/>
  <path class="cls-5" d="m5.92,69.09c.14-.42.39-.62.86-.29,1.59,1.13,4.04,1.38,5.81.62.32-.14.59.08.66.49.07.38-.14.7-.21,1.06-.14.73.31,2.59-.49,2.93-1.76.76-3.7.57-5.4-.14-.39-.16-.82-.26-1.17-.55-.45-.38-.39-.77-.29-1.41.06-.4,0-2.05.23-2.71Z"/>
  <path class="cls-5" d="m66.43,37.81c-1.7-5.49-3.33-10.22-5.56-15.69-.35-.86-.9-1.63-1.63-2.21-1.88-1.49-3.93-2.52-6.66-3.4h0c-2.69-.89-8.05-2.47-14.32-2.47-6.27,0-11.63,1.58-14.32,2.47h0c-2.73.89-4.78,1.91-6.66,3.4-.73.58-1.28,1.35-1.63,2.21-2.23,5.47-3.86,10.2-5.56,15.69-3.48,11.27-5.51,24.32-5.64,28.65-.02.77.37,2.18,1.05,2.55,2.98,1.63,6.37,1.44,8.21.82.8-.27,1.34-1.66,1.4-2.5.74-11.55,3.67-21.25,5.13-25.72.66,12.93-.11,25.95-.3,28.87-.03.41.13.81.43,1.09,3.75,3.62,12.2,6.11,17.88,6.32,0,0,.02,0,.02,0s.02,0,.02,0c5.68-.21,14.13-2.7,17.88-6.32.3-.29.46-.68.43-1.09-.19-2.92-.96-15.94-.3-28.87,1.46,4.47,4.39,14.16,5.13,25.72.05.84.6,2.24,1.4,2.5,1.84.61,5.23.8,8.21-.82.68-.37,1.07-1.78,1.05-2.55-.13-4.33-2.16-17.38-5.64-28.65Z"/>
  <path class="cls-7" d="m38.27,19.6c1.59-.06,3.06-1.6,4.08-2.76,1.09-1.23,2.08-2.3,2.83-3.79.09-.19.25-.65-.27-1.38-2.03-.36-4.33-.55-6.65-.55-2.32,0-4.62.19-6.65.55-.51.73-.36,1.19-.27,1.38.76,1.49,1.74,2.56,2.83,3.79,1.02,1.16,2.49,2.7,4.08,2.76Z"/>
  <path class="cls-5" d="m38.27,19.8c.43,1.12,2.17,4.93,2.2,4.97.1.26.44.45.71.2,2.83-2.66,4.93-5.91,6.27-9.64.12-.32.07-.46.02-.56-.6-1.12-1.35-2.12-2.26-2.98-.32-.3-.6.05-.73.35-1.27,3-3.6,5.61-6.21,7.3-2.61-1.69-4.93-4.3-6.21-7.3-.13-.31-.42-.65-.73-.35-.91.86-1.67,1.86-2.26,2.98-.05.1-.1.24.02.56,1.35,3.74,3.45,6.99,6.27,9.64.27.25.61.07.71-.2.03-.04,1.77-3.85,2.2-4.97Z"/>
  <path class="cls-7" d="m52.22,34.15c.37,0,.67.3.67.67,0,.24.03,5.86-.07,6.09-.05.1-.11.2-.2.3-.71.84-3.4,2.6-4.05,2.88-.18.08-.49.08-.67,0-.65-.28-3.33-2.03-4.05-2.88-.09-.1-.15-.2-.2-.3-.1-.22-.07-5.84-.07-6.09,0-.37.3-.67.67-.67h7.96Z"/>
  <path d="m39.28,26.11c-.14-.04-.27-.03-.4,0-.09-.02-.18-.01-.27.06-.11.1-.17.23-.2.37,0,0,0,0,0,0,0,0,0,.01,0,.02-.04.22.01.45.17.61.3.3.79.17,1-.17.2-.33.08-.77-.3-.9Z"/>
  <path d="m39.28,34.13c-.14-.04-.27-.03-.4,0-.09-.02-.18-.01-.27.06-.11.1-.17.23-.2.37,0,0,0,0,0,0,0,0,0,.01,0,.02-.04.22.01.45.17.61.3.3.79.17,1-.17.2-.33.08-.77-.3-.9Z"/>
  <path d="m39.28,42.15c-.14-.04-.27-.03-.4,0-.09-.02-.18-.01-.27.06-.11.1-.17.23-.2.37,0,0,0,0,0,0,0,0,0,.01,0,.02-.04.22.01.45.17.61.3.3.79.17,1-.17.2-.33.08-.77-.3-.9Z"/>
  <path d="m39.28,50.17c-.14-.04-.27-.03-.4,0-.09-.02-.18-.01-.27.06-.11.1-.17.23-.2.37,0,0,0,0,0,0,0,0,0,.01,0,.02-.04.22.01.45.17.61.3.3.79.17,1-.17.2-.33.08-.77-.3-.9Z"/>
  <path d="m39.28,58.2c-.14-.04-.27-.03-.4,0-.09-.02-.18-.01-.27.06-.11.1-.17.23-.2.37,0,0,0,0,0,0,0,0,0,.01,0,.02-.04.22.01.45.17.61.3.3.79.17,1-.17.2-.33.08-.77-.3-.9Z"/>
  <path d="m39.28,66.22c-.14-.04-.27-.03-.4,0-.09-.02-.18-.01-.27.06-.11.1-.17.23-.2.37,0,0,0,0,0,0,0,0,0,.01,0,.02-.04.22.01.45.17.61.3.3.79.17,1-.17.2-.33.08-.77-.3-.9Z"/>
  <path d="m39.28,74.24c-.14-.04-.27-.03-.4,0-.09-.02-.18-.01-.27.06-.11.1-.17.23-.2.37,0,0,0,0,0,0,0,0,0,.01,0,.02-.04.22.01.45.17.61.3.3.79.17,1-.17.2-.33.08-.77-.3-.9Z"/>
  <path class="cls-8" d="m16.39,20.83s3,1.38,3.93,10.31"/>
  <path class="cls-8" d="m60.14,20.83s-3.54,2.65-3.65,11.26"/>
  <line class="cls-7" x1="38.27" y1="19.43" x2="38.27" y2="77.89"/>
  <rect class="cls-9" x="-711.77" y="-5541.86" width="2244.45" height="5948.74"/>
</svg>