<?xml version="1.0" encoding="UTF-8"?>
<svg id="Calque_1" data-name="Calque 1" xmlns="http://www.w3.org/2000/svg" viewBox="0 0 128 128.13">
  <defs>
    <style>
      .cls-1 {
        fill: #76ac75;
      }

      .cls-1, .cls-2, .cls-3, .cls-4, .cls-5, .cls-6, .cls-7, .cls-8, .cls-9, .cls-10, .cls-11, .cls-12 {
        stroke-linecap: round;
      }

      .cls-1, .cls-2, .cls-3, .cls-4, .cls-5, .cls-6, .cls-7, .cls-8, .cls-9, .cls-10, .cls-13, .cls-14 {
        stroke: #000;
      }

      .cls-1, .cls-2, .cls-3, .cls-4, .cls-5, .cls-6, .cls-7, .cls-8, .cls-9, .cls-10, .cls-12 {
        stroke-linejoin: round;
      }

      .cls-2 {
        fill: #afaff9;
      }

      .cls-3 {
        fill: #8987f3;
      }

      .cls-4 {
        fill: #87ccf3;
      }

      .cls-5 {
        fill: #baa584;
      }

      .cls-6 {
        fill: #a07637;
      }

      .cls-7 {
        fill: #b4eac3;
      }

      .cls-8 {
        fill: #f3d587;
      }

      .cls-9, .cls-11, .cls-12 {
        fill: none;
      }

      .cls-10, .cls-14 {
        fill: #fab0b4;
      }

      .cls-15 {
        fill: #251f2d;
      }

      .cls-11, .cls-13, .cls-14 {
        stroke-miterlimit: 10;
      }

      .cls-11, .cls-12 {
        stroke: #fff;
      }

      .cls-13 {
        fill: #ff6d75;
      }

      .cls-12 {
        stroke-width: 8px;
      }
    </style>
  </defs>
  <path class="cls-3" d="m57.35,46.71c-1.49-4.8-5-15.53-6.96-20.31-.31-.75-.79-1.43-1.42-1.93-1.19-.94-2.45-1.67-3.95-2.29-.33-.13-.55-.22-.74-.29,0,0-.01,0-.02,0-.12-.04-.23-.08-.35-.12-.19-.06-.42-.12-.76-.22-2.57-.71-6.19-1.47-10.26-1.47s-7.69.76-10.26,1.47c-.35.1-.57.16-.76.22-.32.1-.55.19-1.1.41-1.5.62-2.76,1.35-3.95,2.29-.64.5-1.12,1.18-1.42,1.93-1.96,4.78-5.47,15.51-6.96,20.31-1.42,6.59-1.55,14.22-1.66,18.02-.02.68.32,1.9.91,2.22,2.56,1.4,4,1.14,5.58.63.69-.22,1.25-1.02,1.29-1.73.41-7.35,2.09-12.88,3.58-17.08-.11,6.66-1.59,33.44-1.32,35.62.17,1.37.32,2.05,1.15,2.66,3.54,2.59,10.35,3.88,14.89,4.05h.05c4.54-.17,11.35-1.46,14.89-4.05.84-.61.98-1.29,1.15-2.66.28-2.18-1.21-28.96-1.32-35.62,1.49,4.2,3.18,9.72,3.58,17.08.04.71.61,1.51,1.29,1.73,1.58.51,3.02.76,5.58-.63.59-.32.94-1.55.91-2.22-.11-3.79-.24-11.42-1.66-18.02Z"/>
  <path class="cls-2" d="m32.88,23.51c7.98-.35,9.38-6.24,8.65-6.74-1.46-.71-3.04-.53-4.57-.16-1.57.38-2.82.58-4.09.58-1.27,0-2.52-.2-4.09-.58-1.53-.37-3.1-.55-4.57.16-.72.5.67,6.39,8.65,6.74Z"/>
  <path class="cls-2" d="m32.88,24.17c3.94.86,12.22.15,11.6-3.07-.16-.84-.88-.71-1.13-1.59-.6-2.09-1.88-2.99-2.44-2.94,0,0,2.94,3.49-8.02,6.23-10.96-2.74-8.02-6.23-8.02-6.23-.56-.06-1.84.85-2.44,2.94-.25.89-.97.76-1.13,1.59-.62,3.22,7.66,3.94,11.6,3.07Z"/>
  <line class="cls-5" x1="32.88" y1="22.8" x2="32.88" y2="91.1"/>
  <path class="cls-9" d="m18.14,48.77s3.31-17.45.88-23.22"/>
  <path class="cls-9" d="m47.63,48.77s-4.34-19.18-2.04-22.76"/>
  <line class="cls-5" x1="31.94" y1="30.17" x2="33.68" y2="30.17"/>
  <line class="cls-5" x1="31.94" y1="35.6" x2="33.68" y2="35.6"/>
  <line class="cls-5" x1="31.94" y1="41.03" x2="33.68" y2="41.03"/>
  <line class="cls-5" x1="31.94" y1="46.45" x2="33.68" y2="46.45"/>
  <line class="cls-5" x1="31.94" y1="51.88" x2="33.68" y2="51.88"/>
  <line class="cls-5" x1="32.02" y1="57.31" x2="33.75" y2="57.31"/>
  <line class="cls-5" x1="32.02" y1="62.73" x2="33.75" y2="62.73"/>
  <line class="cls-5" x1="32.02" y1="68.16" x2="33.75" y2="68.16"/>
  <line class="cls-5" x1="32.02" y1="73.59" x2="33.75" y2="73.59"/>
  <line class="cls-5" x1="32.02" y1="79.02" x2="33.75" y2="79.02"/>
  <path class="cls-9" d="m6.76,63.77s3.51,1.75,7.88.7"/>
  <path class="cls-9" d="m51.11,64.29s4.53,2.02,7.87-.52"/>
  <g>
    <path class="cls-4" d="m99.26,63.08c-.28.01-.56.02-.84.03h-.08c-.16,0-.33.01-.49.02-.31,0-.61.01-.91.02-.4,0-.79,0-1.18.01-.13,0-.27,0-.4,0-.17,0-.34,0-.52,0-.12,0-.25,0-.37,0-.74,0-1.48-.02-2.26-.04l-.91-.03c-.08,0-.15,0-.23,0-.3-.01-.6-.02-.91-.03-1.55-.06-3.27-.13-5.3-.21-.27.91-.52,1.82-.76,2.73h0c-.03.12-.06.24-.09.35-.04.18-.09.36-.14.53-.03.11-.06.22-.08.34-.43,1.76-.82,3.51-1.16,5.25-.01.06-.03.13-.04.2-.05.25-.1.5-.15.76h0c-.01.08-.03.16-.04.24-2.94,16-2.05,31.1-2.53,46.83,0,.1,0,.2,0,.29,0,.21-.01.41-.02.62,0,.1,0,.2,0,.29-.02.6-.05,1.2-.07,1.8,3.63,0,7.26.21,10.88.55.08-.55.16-1.14.24-1.77h0c.03-.3.07-.59.11-.9,1.18-9.42,2.69-25.72,3.41-33.3h0c0-.07.01-.14.02-.21.2-1.99.33-3.35.38-3.76.06.4.21,1.61.41,3.41,0,0,0,0,0,.01.04.31.08.64.12.99.9,7.89,2.71,24.08,3.81,32.71,0,.03,0,.05,0,.08.04.31.08.59.11.88,0,0,0,.02,0,.03.09.65.17,1.24.24,1.77,3.61-.39,7.24-.63,10.87-.7-.04-.6-.07-1.2-.09-1.79,0-.07,0-.14-.01-.21-.01-.24-.02-.47-.03-.7,0-.07,0-.14-.01-.21-.73-15.74-.22-31.55-2.91-46.83-.05-.33-.11-.66-.18-.99h0c-.06-.35-.13-.69-.19-1.03h0c-.3-1.54-.63-3.06-1.01-4.58-.03-.15-.07-.3-.11-.44-.04-.15-.07-.3-.11-.45-.03-.15-.07-.29-.11-.43-.21-.82-.44-1.63-.67-2.44-2.18.17-4.01.28-5.65.34-.02,0-.05,0-.07,0Z"/>
    <path class="cls-4" d="m84.35,64.67s9,2.6,21.11-.2"/>
    <line class="cls-4" x1="94.85" y1="63.15" x2="94.83" y2="83.67"/>
    <path class="cls-9" d="m90.17,63.04s-.1,6.32-7.45,8.59"/>
    <path class="cls-9" d="m101.26,62.99s-.07,8.28,5.91,9.1"/>
  </g>
  <g>
    <path class="cls-15" d="m106.35,7.37s.02.03,0,.01c0,0,0,0,0-.01Z"/>
    <path class="cls-15" d="m93.79,8.4s0,0,0-.01c0,0,0,0,0,.01Z"/>
    <path class="cls-8" d="m120.74,44.85c.02-2.69-.39-5.38-.66-8.06-.28-2.74-.56-5.49-.85-8.24-.49-4.81-.77-9.93-3.36-14.26-1.23-2.08-3.31-4.08-5.56-5.89l-.79-.62s-.03-.03-.05-.04c-.27-.21-.54-.41-.81-.61-.37-.27-.73-.54-1.1-.8l-.53-.37-.42-.3c-.05.07-1.25,1.45-3.2,2.44,0,0,0,0-.01,0-.04.02-.09.05-.13.06,0,0-.01,0-.01,0-1.04.51-2.28.89-3.67.92h0s-.02,0-.02,0c-.22,0-.45,0-.69-.02h0c-2.18-.14-4.68-1.21-7.31-4.02,0,0,0,0,0,0l-.17.09-.69.38c-.51.28-1.01.57-1.52.87l-.86.52s-.03.01-.04.02l-.86.54c-2.23,1.45-4.28,3.1-5.68,4.94-3.05,4.03-3.89,9.08-4.9,13.81-.58,2.7-1.17,5.4-1.74,8.1-.56,2.63-1.26,5.26-1.54,7.94-.39,3.71.51,8.02,3.85,10.26,0,0,0,0,0,0,.04.03.08.05.12.08h0s0,.03,0,.04c0,.06,0,.12.02.18.02.28.05.57.07.85,0,.06.01.12.02.18.11,1.14.26,2.26.47,3.38.06.36.13.71.2,1.06h0c.27.05.53.09.79.13l.26.03c.25.03.49.06.74.08.03,0,.06,0,.1.01.33.03.66.06.99.06h.08c.31.02.62.02.93.01.02,0,.05,0,.08,0,.34,0,.67,0,1-.03.06,0,.11,0,.16-.01.26-.01.52-.04.78-.06.02,0,.04,0,.06,0l.17-.02c.26-.03.52-.06.78-.1.02-.34.04-.68.06-1.02.06-1.15.1-2.31.11-3.47,0-.14,0-.27,0-.4v-.02c0-.23,0-.46,0-.69h0s0-.05,0-.07v-.05s0,0,0,0h0c1.2-.95,1.98-2.36,2.03-3.81.01,0,.04,0,.05,0,0,0,.03,0,.04,0,.34-.02.68-.03,1.02-.04h0c.28-.01.56-.02.83-.02h.18s.83-.02.83-.02c.06,0,.12,0,.17,0,.36,0,.72,0,1.09,0h.12s.89,0,.89,0c.04,0,.08,0,.12,0,.37,0,.73.01,1.1.02.03,0,.08,0,.11,0,.3.01.59.02.89.03h.12c.45.02.9.04,1.35.06h0s1,.05,1,.05t.01,0c.47.02.94.04,1.42.06h.05c.31.02.63.03.95.05h.05c.39.02.78.04,1.17.07h.03c.33.02.64.04.97.07h.04c.4.03.8.07,1.2.12h.03c.33.04.66.08.98.13h.03c.27.04.53.09.79.13.02,0,.05,0,.08.01.31.06.61.12.91.19.03,0,.06.01.09.02,0,0,.02,0,.03,0-.14,1.45.44,2.94,1.52,4.03l.03.03s.02.03.04.04c.02.03.05.05.08.07h0s0,.05,0,.05c0,.08-.02.16-.03.24-.02.23-.05.47-.07.7,0,.06-.01.12-.01.17h0c-.11,1.12-.2,2.22-.26,3.33l-.06,1.02c.27.08.54.14.82.19.04.01.09.02.14.03,0,0,.02,0,.03,0,.25.05.48.1.73.14h.08s.09.03.14.04c.32.05.64.1.96.13.04,0,.07.01.12.01.3.04.59.06.89.08h.12c.33.03.67.05,1,.05h.06c.25,0,.49.01.74,0,.08,0,.16,0,.24,0,.01,0,.03,0,.04,0,.26,0,.53-.01.78-.03h0c.11-.35.22-.69.32-1.04.3-1.05.58-2.11.81-3.18,0-.02,0-.05.01-.07.08-.37.16-.74.22-1.11,0,0,0,0,0,0h0s0-.06.01-.09c3.6-1.85,4.97-6.06,5-9.81Z"/>
    <path class="cls-15" d="m106.35,7.37s.02.03,0,.01c0,0,0,0,0-.01Z"/>
    <path class="cls-15" d="m93.79,8.4s0,0,0-.01c0,0,0,0,0,.01Z"/>
    <path class="cls-9" d="m87.79,20.43s-.74,4.34-1.63,8.07-1.7,11.05,1.4,20.37"/>
    <path class="cls-9" d="m111.44,21.89s-.05,5.77,0,9.61c.05,3.84-.15,9.9-5.21,18.32"/>
    <line class="cls-10" x1="90.15" y1="46.27" x2="89.86" y2="48.83"/>
    <line class="cls-10" x1="92.52" y1="46.54" x2="92.3" y2="48.56"/>
    <line class="cls-10" x1="95.17" y1="46.58" x2="94.92" y2="48.85"/>
    <line class="cls-10" x1="97.2" y1="47.05" x2="97.02" y2="48.68"/>
    <line class="cls-10" x1="99.46" y1="47.3" x2="99.36" y2="49.04"/>
    <line class="cls-10" x1="101.89" y1="47.57" x2="101.7" y2="49.09"/>
    <line class="cls-10" x1="104" y1="47.56" x2="104.06" y2="49.32"/>
    <line class="cls-10" x1="77.43" y1="52.53" x2="85.44" y2="52.68"/>
    <line class="cls-10" x1="107.89" y1="53.98" x2="115.72" y2="54.75"/>
    <path class="cls-9" d="m91.57,5.07l-.04,4.14,3.37-1.41,1.9,3.79,2.52-2.48,2.48,2.35.99-3.05,3.16,1.35-.48-2.97,3.2.35s-.99,3.94-8.79,4.57c-7.79.62-10.69-5.3-10.69-5.3"/>
    <line class="cls-10" x1="78.99" y1="52.56" x2="79.38" y2="58.45"/>
    <line class="cls-10" x1="80.81" y1="52.76" x2="80.77" y2="58.61"/>
    <line class="cls-10" x1="82.44" y1="52.63" x2="82.3" y2="58.62"/>
    <line class="cls-10" x1="84.07" y1="52.81" x2="83.86" y2="58.56"/>
    <line class="cls-10" x1="114.31" y1="54.68" x2="112.96" y2="60.13"/>
    <line class="cls-10" x1="112.48" y1="54.58" x2="111.57" y2="60.05"/>
    <line class="cls-10" x1="110.86" y1="54.4" x2="110.06" y2="59.82"/>
    <line class="cls-10" x1="109.25" y1="54.1" x2="108.53" y2="59.51"/>
  </g>
  <path class="cls-1" d="m74.8,91.2c-.65-.57-1.71-.69-2.34.23-.71,1.04-2.41,3.93-2.69,2.7-.58-2.55-.27-5.34-.28-7.91,0-.76.09-1.55,0-2.31-.13-.97-.69-1.88-1.74-1.93-.86-.04-1.58.53-1.65,1.4-.1,1.13-.1,2.26-.14,3.39-.03.78.05,1.55,0,2.33-.02.29.07,1.14-.37,1.16-.5-1.42-.71-3.01-1.05-4.47-.36-1.53-.71-3.06-1.07-4.59-.46-1.98-3.59-1.42-3.12.57.38,1.63.76,3.26,1.14,4.89.19.83.39,1.66.58,2.48.13.55.72,1.64.24,2.15-.38-.22-.52-.83-.62-1.23-.16-.66-.32-1.33-.49-1.99-.34-1.3-.72-2.58-1.14-3.86-.64-1.93-3.5-.53-2.86,1.38.73,2.2,1.3,4.44,1.75,6.71-.71-.11-1.75-4.34-1.95-4.89-.61-1.71-2.48-.28-2.11,1.01,1.1,3.81,2.08,7.7,3.33,11.46.54,1.63,1.32,3.03,2.51,4.03.19,1.44.33,3.35,1.21,4.57.61.85,1.45.79,2.38.65,1.7-.25,7.13-.96,6.67-3.63-.18-1.04-.37-2.08-.55-3.12,2.41-2.69,4.16-5.88,5.04-9.42.19-.77-.15-1.41-.67-1.78Z"/>
  <path class="cls-7" d="m71.08,100.02c-.82-.28-1.84,0-2.08,1.1-.26,1.23-.74,4.56-1.47,3.52-1.5-2.14-2.28-4.83-3.26-7.22-.29-.7-.51-1.47-.89-2.14-.49-.85-1.35-1.48-2.34-1.13-.81.28-1.26,1.09-1,1.92.34,1.08.77,2.13,1.16,3.19.27.73.63,1.42.87,2.16.09.28.5,1.03.1,1.21-1-1.12-1.8-2.51-2.67-3.74-.91-1.28-1.82-2.56-2.73-3.84-1.18-1.66-3.86.05-2.67,1.72.97,1.36,1.94,2.73,2.91,4.09.49.69.99,1.39,1.48,2.08.33.46,1.29,1.25,1.04,1.89-.44-.06-.8-.57-1.03-.9-.4-.55-.79-1.11-1.21-1.65-.81-1.07-1.65-2.12-2.52-3.13-1.33-1.54-3.44.83-2.12,2.37,1.51,1.76,2.89,3.62,4.16,5.55-.7.17-3.27-3.35-3.66-3.79-1.21-1.35-2.4.69-1.57,1.74,2.47,3.11,4.84,6.33,7.43,9.34,1.12,1.3,2.37,2.3,3.86,2.78.72,1.27,1.58,2.97,2.85,3.77.88.55,1.64.18,2.45-.3,1.48-.87,6.24-3.6,4.79-5.89-.56-.89-1.13-1.79-1.69-2.68,1.21-3.41,1.62-7.01,1.09-10.63-.11-.79-.67-1.24-1.29-1.39Z"/>
  <path class="cls-7" d="m62.89,117.14s3.95-.53,8.4-5.09"/>
  <line class="cls-7" x1="64.77" y1="116.58" x2="67.68" y2="120.89"/>
  <line class="cls-7" x1="67.09" y1="115.42" x2="69.73" y2="119.67"/>
  <line class="cls-7" x1="69.34" y1="113.83" x2="71.84" y2="118.05"/>
  <path class="cls-5" d="m7.92,114.69c.07,0,5.75,1.12,12.3,1.13,8.23.02,17.7-1.07,17.7-1.07.1-1.66-.41-4.77-.9-6.06-.23-.62-.36-1.27-.4-1.94-.26-3.99.37-6.03.61-8.12.05-.4-.24-.76-.64-.81-2.08-.24-7.45-.82-10.63-.01-.31.08-.52.36-.52.67.06,4.31.17,1.72.16,4.96,0,.46-.22,1.39-.33,1.82-.22.87-6.63,3.59-7.86,3.67-3.02.17-6.2.26-6.78.52-1.21.53-1.55,2.82-2.15,4.01-.09.17-.4,1.22-.56,1.23Z"/>
  <path class="cls-6" d="m6.98,115.09c.13-.49.21-1.47.91-1.38,4.21.43,12.67,1.28,12.73,1.27,2.53-.37,5.07-.7,7.61-.97.16-.02,6.8-.02,9.93.09.36.01.54,2.36-.12,2.67-.85.39-8.62.08-9.45.09-.38,0-.26-1.34-.26-1.34,0,0-2.59.42-4.74.75-.04,0-.46.85-.87.95-.44.11-15.77-.96-15.83-1.52-.02-.19.03-.38.08-.56,0-.02,0-.03.01-.05Z"/>
  <path class="cls-6" d="m25.34,101.87c1.17.68,2.65.48,3.95.54,1.47.06,2.94.22,4.41.31.82.05,3.42.35,3.63-.88.2-1.13.94-3.86.27-4.87-.41-.61-1.61-.66-2.25-.73-2.5-.25-5.02,0-7.53-.18-1-.07-2.39-.21-2.86.93-.5,1.23.33,2.68-.02,3.83-.12.38,0,.83.39,1.06Z"/>
  <path class="cls-9" d="m17.05,108.96s2.21,2.25.79,5.76"/>
  <path class="cls-9" d="m36.7,107.5s-5.37.19-6.57,6.51"/>
  <line class="cls-9" x1="20.09" y1="108.09" x2="21.22" y2="110.2"/>
  <line class="cls-9" x1="22.68" y1="106.96" x2="23.63" y2="108.09"/>
  <path class="cls-5" d="m13.16,117.86c.07,0,5.75,1.12,12.3,1.13,8.23.02,17.7-1.07,17.7-1.07.1-1.66-.41-4.77-.9-6.06-.23-.62-.36-1.27-.4-1.94-.26-3.99.37-6.03.61-8.12.05-.4-.24-.76-.64-.81-2.08-.24-7.45-.82-10.63-.01-.31.08-.52.36-.52.67.06,4.31.17,1.72.16,4.96,0,.46-.22,1.39-.33,1.82-.22.87-6.63,3.59-7.86,3.67-3.02.17-6.2.26-6.78.52-1.21.53-1.55,2.82-2.15,4.01-.09.17-.4,1.22-.56,1.23Z"/>
  <path class="cls-6" d="m12.22,118.26c.13-.49.21-1.47.91-1.38,4.21.43,12.67,1.28,12.73,1.27,2.53-.37,5.07-.7,7.61-.97.16-.02,6.8-.02,9.93.09.36.01.54,2.36-.12,2.67-.85.39-8.62.08-9.45.09-.38,0-.26-1.34-.26-1.34,0,0-2.59.42-4.74.75-.04,0-.46.85-.87.95-.44.11-15.77-.96-15.83-1.52-.02-.19.03-.38.08-.56,0-.02,0-.03.01-.05Z"/>
  <path class="cls-6" d="m30.59,105.04c1.17.68,2.65.48,3.95.54,1.47.06,2.94.22,4.41.31.82.05,3.42.35,3.63-.88.2-1.13.94-3.86.27-4.87-.41-.61-1.61-.66-2.25-.73-2.5-.25-5.02,0-7.53-.18-1-.07-2.39-.21-2.86.93-.5,1.23.33,2.68-.02,3.83-.12.38,0,.83.39,1.06Z"/>
  <path class="cls-9" d="m22.29,112.13s2.21,2.25.79,5.76"/>
  <path class="cls-9" d="m41.95,110.67s-5.37.19-6.57,6.51"/>
  <line class="cls-9" x1="25.33" y1="111.26" x2="26.47" y2="113.37"/>
  <line class="cls-9" x1="27.92" y1="110.13" x2="28.87" y2="111.26"/>
  <g>
    <path class="cls-13" d="m72.73,17.44c-.14-2.19-.45-2.72-.64-4.91-.12-1.31-1.88-3.84-2.7-4.94-1.45-1.95-3.08-2.71-6.51-2.71s-5.06.76-6.51,2.71c-.82,1.11-2.58,3.63-2.7,4.94-.19,2.19-.5,2.72-.64,4.91h19.7Z"/>
    <path class="cls-14" d="m62.89,22.86c2.35.1,9.52-.62,10.35-1.54.6-.66.37-1.81.37-2.6,0-.89.25-1.96-.47-2.61-1.02-.92-3.03.56-10.24.56-7.21,0-9.23-1.48-10.24-.56-.72.66-.48,1.72-.47,2.61,0,.79-.23,1.94.37,2.6.83.92,7.99,1.65,10.35,1.54Z"/>
  </g>
  <g>
    <line class="cls-11" x1="98.66" y1="21.63" x2="98.66" y2="37.57"/>
    <line class="cls-11" x1="90.69" y1="29.6" x2="106.63" y2="29.6"/>
    <line class="cls-11" x1="93.02" y1="23.97" x2="104.29" y2="35.24"/>
    <line class="cls-11" x1="93.02" y1="35.24" x2="104.29" y2="23.97"/>
    <polyline class="cls-11" points="94.94 22.78 95.89 26.84 91.83 25.89"/>
    <polyline class="cls-11" points="102.63 36.69 101.68 32.63 105.74 33.58"/>
    <polyline class="cls-11" points="91.83 33.58 95.89 32.63 94.94 36.69"/>
    <polyline class="cls-11" points="105.74 25.89 101.68 26.84 102.63 22.78"/>
    <polyline class="cls-11" points="96.58 37.37 98.79 33.83 100.99 37.37"/>
    <polyline class="cls-11" points="100.99 22.1 98.79 25.64 96.58 22.1"/>
    <polyline class="cls-11" points="106.42 31.94 102.88 29.73 106.42 27.53"/>
    <polyline class="cls-11" points="91.15 27.53 94.69 29.73 91.15 31.94"/>
  </g>
  <rect class="cls-12" x="-1387.31" y="-5545.26" width="2244.45" height="5948.74"/>
</svg>