<?xml version="1.0" encoding="UTF-8"?>
<svg id="Calque_1" data-name="Calque 1" xmlns="http://www.w3.org/2000/svg" viewBox="0 0 128 128">
  <defs>
    <style>
      .cls-1, .cls-2, .cls-3 {
        stroke: #000;
      }

      .cls-1, .cls-2, .cls-3, .cls-4 {
        stroke-linecap: round;
        stroke-linejoin: round;
      }

      .cls-1, .cls-4 {
        fill: none;
      }

      .cls-2 {
        fill: #b2f0e9;
      }

      .cls-2, .cls-3 {
        stroke-width: 2px;
      }

      .cls-3 {
        fill: #fee4cb;
      }

      .cls-4 {
        stroke: #fff;
        stroke-width: 8px;
      }
    </style>
  </defs>
  <path class="cls-2" d="m40.93,68.96S7.59,56.33,14.15,42.1c7.98-17.3,44.5,1.16,44.5,1.16l-2.55,2.84-2.65,2.95s-24.14-11.45-28.42-4.24c-3.65,6.13,19.98,16.6,19.98,16.6l-4.09,7.55Z"/>
  <ellipse class="cls-2" cx="63" cy="64.8" rx="39.09" ry="17.08" transform="translate(-26.02 80.43) rotate(-55.77)"/>
  <ellipse class="cls-1" cx="64.97" cy="66.14" rx="37.14" ry="14.7" transform="translate(-26.26 82.64) rotate(-55.77)"/>
  <path class="cls-3" d="m72.04,57.43c-.99-.99-5.97,3.87-6.59,4.61-2.89,3.45-4.14,7.79-3.72,12.25,0-.1,3.35.78,4.91,1.55,5.14,2.53,4.75,9.18,7.05,13.78,2.62,5.24,5.81,8.24,10.21,10.51,7.55,3.9,17.38,2,23.66-3.72,3.35-3.05,5.81-7.11,6.73-11.55,1.27-6.05-.47-12.66-4.54-17.31-4.08-4.65-10.4-7.23-16.57-6.76-4.11.31-8.32,2.43-12.45,2.2-3.57-.2-6.31-3.16-8.69-5.56Z"/>
  <path class="cls-1" d="m90.07,68.07s4.76-.77,8.75,1.21c3.99,1.98,7.05,4.76,7.74,6.29"/>
  <path class="cls-1" d="m75.91,50.52c-1.02-.54-.94-2.69.17-4.82,1.12-2.12,2.85-3.41,3.87-2.87.51.27.75.94.71,1.81"/>
  <path class="cls-1" d="m49.96,87.86c-1.02-.54-.94-2.69.17-4.82,1.12-2.12,2.85-3.41,3.87-2.87.51.27.75.94.71,1.81"/>
  <rect class="cls-4" x="-4928.44" y="-5822" width="6467.34" height="6437.3"/>
</svg>