<?xml version="1.0" encoding="UTF-8"?>
<svg id="Calque_1" data-name="Calque 1" xmlns="http://www.w3.org/2000/svg" viewBox="0 0 128 128">
  <defs>
    <style>
      .cls-1 {
        fill: #d6d6d6;
      }

      .cls-1, .cls-2, .cls-3, .cls-4, .cls-5, .cls-6, .cls-7 {
        stroke-linecap: round;
        stroke-linejoin: round;
      }

      .cls-1, .cls-2, .cls-3, .cls-4, .cls-5, .cls-7 {
        stroke: #000;
      }

      .cls-2 {
        fill: #b2f0e9;
      }

      .cls-3 {
        fill: #fff;
      }

      .cls-4, .cls-6, .cls-7 {
        fill: none;
      }

      .cls-5 {
        fill: #fab0b4;
      }

      .cls-6 {
        stroke: #fff;
        stroke-width: 8px;
      }

      .cls-7 {
        stroke-width: 3px;
      }
    </style>
  </defs>
  <g>
    <path class="cls-7" d="m49.77,34.14s.2-9.91-11.73-10.55c-11.93-.64-26.55,11.13-21.07,44.26"/>
    <rect class="cls-1" x="47.58" y="32.73" width="5.13" height="8.41" rx="2.56" ry="2.56" transform="translate(-3.52 5.33) rotate(-5.87)"/>
    <path class="cls-1" d="m65.82,32.84l-2.97,4.21-11.76,3.48,2.87,9.7,11.76-3.48,4.84,1.72c.91.33,1.81-.53,1.53-1.46l-4.17-13.84c-.28-.95-1.53-1.15-2.1-.34Z"/>
    <rect class="cls-2" x="45.51" y="38.5" width="12.22" height="14.01" rx="6.11" ry="6.11" transform="translate(-4.38 5.52) rotate(-5.87)"/>
    <path class="cls-3" d="m59.96,79.96l-1.96,12.82c-.32,2.07-2.24,3.49-4.31,3.17l-18.38-2.81c-2.06-.32-3.49-2.24-3.17-4.31l1.96-12.82,25.86,3.96Z"/>
    <path class="cls-2" d="m61.95,66.96l-1.99,13-25.86-3.96,1.99-13.01c.15-.96.7-1.81,1.52-2.33l5.25-3.38,14.79,2.26,3.66,4.87c.55.73.77,1.65.64,2.54Z"/>
    <rect class="cls-1" x="41.53" y="49.18" width="18.39" height="9.25" rx="3.91" ry="3.91" transform="translate(8.72 -7.05) rotate(8.7)"/>
    <line class="cls-4" x1="42.77" y1="50.17" x2="59.49" y2="52.73"/>
    <line class="cls-4" x1="41.61" y1="52.58" x2="59.79" y2="55.36"/>
    <line class="cls-4" x1="41.99" y1="55.23" x2="58.72" y2="57.79"/>
    <rect class="cls-1" x="13.28" y="58.9" width="6.28" height="6.28" rx="2.75" ry="2.75" transform="translate(-4.96 1.53) rotate(-4.63)"/>
    <circle class="cls-2" cx="17.08" cy="70.08" r="7.37" transform="translate(-53.26 54.11) rotate(-63.51)"/>
    <line class="cls-2" x1="41.5" y1="63.08" x2="37.65" y2="88.27"/>
    <line class="cls-2" x1="39.99" y1="62.85" x2="44.7" y2="63.57"/>
    <line class="cls-2" x1="39.44" y1="66.45" x2="42.46" y2="66.91"/>
    <line class="cls-2" x1="36.69" y1="84.44" x2="39.71" y2="84.9"/>
    <line class="cls-2" x1="37.01" y1="80.81" x2="40.04" y2="81.27"/>
    <line class="cls-2" x1="38.89" y1="70.05" x2="41.91" y2="70.51"/>
    <line class="cls-2" x1="38.34" y1="73.64" x2="41.36" y2="74.11"/>
    <line class="cls-2" x1="36.14" y1="88.03" x2="40.85" y2="88.76"/>
    <path class="cls-4" d="m80.24,49.63c.25,6.77,2.29,20.29,14.45,20.35,13.53.06,18.26-5.62,18.26-5.62"/>
    <path class="cls-4" d="m83.29,43.57c13.63-10.6,32.47-28.99,32.47-28.99"/>
    <path class="cls-5" d="m80.24,49.63c-.01-.25-.02-.48-.02-.71-.02-1.09,0-1.96.02-2.48.01-.37.19-.7.49-.92.64-.47,1.3-.96,1.97-1.48.2-.15.4-.31.6-.47,0,0,.18,4.85-3.05,6.06Z"/>
    <path class="cls-4" d="m94.69,69.98s.38,17.36,4.09,24.26c3.7,6.89,2.68,25.15,2.68,25.15"/>
    <path class="cls-4" d="m85.83,41.56s1.62,8.69-5.39,10.91"/>
    <path class="cls-3" d="m77.38,55.78s-3.98,6.04,0,6c2.58-.03,0-6,0-6Z"/>
    <path class="cls-3" d="m80.21,65.6s-2.58,5.92,0,6c3.08.11,0-6,0-6Z"/>
  </g>
  <rect class="cls-6" x="-3645.1" y="-3880.11" width="6467.34" height="6437.3"/>
</svg>