<?xml version="1.0" encoding="UTF-8"?>
<svg id="Calque_1" data-name="Calque 1" xmlns="http://www.w3.org/2000/svg" xmlns:xlink="http://www.w3.org/1999/xlink" viewBox="0 0 128 128">
  <defs>
    <style>
      .cls-1 {
        stroke-width: 1.47px;
      }

      .cls-1, .cls-2, .cls-3, .cls-4, .cls-5, .cls-6 {
        stroke: #000;
      }

      .cls-1, .cls-2, .cls-7, .cls-4, .cls-6 {
        fill: none;
      }

      .cls-1, .cls-2, .cls-7, .cls-5, .cls-6 {
        stroke-linejoin: round;
      }

      .cls-1, .cls-7, .cls-5, .cls-6 {
        stroke-linecap: round;
      }

      .cls-8 {
        fill: #dba9be;
        stroke: #c97195;
        stroke-width: .12px;
      }

      .cls-8, .cls-3, .cls-4, .cls-9 {
        stroke-miterlimit: 10;
      }

      .cls-10 {
        fill: #e3d3dc;
      }

      .cls-11, .cls-5 {
        fill: #fff;
      }

      .cls-12 {
        fill: #c4708c;
      }

      .cls-13 {
        fill: #2f6294;
      }

      .cls-14, .cls-9 {
        fill: #5f485a;
      }

      .cls-2, .cls-5, .cls-6 {
        stroke-width: 1.1px;
      }

      .cls-15 {
        fill: url(#Dégradé_sans_nom_30);
      }

      .cls-16 {
        fill: url(#Dégradé_sans_nom_20);
      }

      .cls-3 {
        fill: #e5e5e5;
      }

      .cls-7 {
        stroke: #fff;
        stroke-width: 8px;
      }

      .cls-4 {
        stroke-width: .15px;
      }

      .cls-9 {
        stroke: #5f485a;
        stroke-width: .11px;
      }
    </style>
    <linearGradient id="Dégradé_sans_nom_20" data-name="Dégradé sans nom 20" x1="11.54" y1="65.81" x2="116.63" y2="65.81" gradientUnits="userSpaceOnUse">
      <stop offset="0" stop-color="#dfb6c8"/>
      <stop offset=".17" stop-color="#d4bbce"/>
      <stop offset=".46" stop-color="#b9cade"/>
      <stop offset=".56" stop-color="#aed0e5"/>
      <stop offset=".57" stop-color="#afcfe3"/>
      <stop offset=".73" stop-color="#c8c1d4"/>
      <stop offset=".88" stop-color="#d6b9cb"/>
      <stop offset="1" stop-color="#dcb7c8"/>
    </linearGradient>
    <linearGradient id="Dégradé_sans_nom_30" data-name="Dégradé sans nom 30" x1="11.69" y1="30.86" x2="95.91" y2="30.86" gradientUnits="userSpaceOnUse">
      <stop offset="0" stop-color="#dc87a1"/>
      <stop offset=".08" stop-color="#d587a1"/>
      <stop offset=".19" stop-color="#c487a4"/>
      <stop offset=".32" stop-color="#a787a8"/>
      <stop offset=".46" stop-color="#7f87ae"/>
      <stop offset=".61" stop-color="#4c87b6"/>
      <stop offset=".77" stop-color="#0e87bf"/>
      <stop offset=".78" stop-color="#0987c0"/>
      <stop offset="1" stop-color="#dc87a1"/>
    </linearGradient>
  </defs>
  <rect class="cls-3" x="7.29" y="24.39" width="113.42" height="79.22" rx="6.45" ry="6.45"/>
  <path class="cls-10" d="m116.4,31.2v65.61c0,2.09-1.7,3.79-3.79,3.79H15.39c-2.09,0-3.79-1.7-3.79-3.79V31.2c0-.28.03-.56.09-.82v3.94h84.22v-6.91h16.69c2.09,0,3.79,1.7,3.79,3.79Z"/>
  <rect class="cls-16" x="11.54" y="34.32" width="104.91" height="62.99"/>
  <path class="cls-11" d="m112.61,100.59H15.18c-2.09,0-3.68-1.7-3.68-3.79l29.72,1.9,43.41-.65,31.76-1.24c0,2.09-1.7,3.79-3.79,3.79Z"/>
  <polygon class="cls-11" points="42.56 98.03 11.52 96.76 11.54 56.39 42.56 56.39 42.56 98.03"/>
  <g>
    <path d="m113.65,43.55l.84-.54v.33l-.64.39h0s.64.4.64.4v.31l-.84-.54-.88.56v-.33l.69-.42h0s-.69-.42-.69-.42v-.31l.88.56Z"/>
    <path d="m113.65,45.12l.84-.54v.33l-.64.39h0s.64.4.64.4v.31l-.84-.54-.88.56v-.33l.69-.42h0s-.69-.42-.69-.42v-.31l.88.56Z"/>
    <path d="m113.65,46.7l.84-.54v.33l-.64.39h0s.64.4.64.4v.31l-.84-.54-.88.56v-.33l.69-.42h0s-.69-.42-.69-.42v-.31l.88.56Z"/>
    <path d="m113.65,48.27l.84-.54v.33l-.64.39h0s.64.4.64.4v.31l-.84-.54-.88.56v-.33l.69-.42h0s-.69-.42-.69-.42v-.31l.88.56Z"/>
    <path d="m113.65,49.85l.84-.54v.33l-.64.39h0s.64.4.64.4v.31l-.84-.54-.88.56v-.33l.69-.42h0s-.69-.42-.69-.42v-.31l.88.56Z"/>
    <path d="m113.65,51.43l.84-.54v.33l-.64.39h0s.64.4.64.4v.31l-.84-.54-.88.56v-.33l.69-.42h0s-.69-.42-.69-.42v-.31l.88.56Z"/>
    <path d="m113.65,53l.84-.54v.33l-.64.39h0s.64.4.64.4v.31l-.84-.54-.88.56v-.33l.69-.42h0s-.69-.42-.69-.42v-.31l.88.56Z"/>
    <path d="m113.65,54.58l.84-.54v.33l-.64.39h0s.64.4.64.4v.31l-.84-.54-.88.56v-.33l.69-.42h0s-.69-.42-.69-.42v-.31l.88.56Z"/>
    <path d="m113.65,56.15l.84-.54v.33l-.64.39h0s.64.4.64.4v.31l-.84-.54-.88.56v-.33l.69-.42h0s-.69-.42-.69-.42v-.31l.88.56Z"/>
    <path d="m113.65,57.73l.84-.54v.33l-.64.39h0s.64.4.64.4v.31l-.84-.54-.88.56v-.33l.69-.42h0s-.69-.42-.69-.42v-.31l.88.56Z"/>
    <path d="m113.39,58.76h.27v.68h-.27v-.68Z"/>
    <path d="m113.65,60.11l.84-.54v.33l-.64.39h0s.64.4.64.4v.31l-.84-.54-.88.56v-.33l.69-.42h0s-.69-.42-.69-.42v-.31l.88.56Z"/>
    <path d="m113.65,61.69l.84-.54v.33l-.64.39h0s.64.4.64.4v.31l-.84-.54-.88.56v-.33l.69-.42h0s-.69-.42-.69-.42v-.31l.88.56Z"/>
    <path d="m112.4,62.67l2.2.68v.23l-2.2-.68v-.23Z"/>
    <path d="m113.65,64.29l.84-.54v.33l-.64.39h0s.64.4.64.4v.31l-.84-.54-.88.56v-.33l.69-.42h0s-.69-.42-.69-.42v-.31l.88.56Z"/>
    <path d="m113.65,65.87l.84-.54v.33l-.64.39h0s.64.4.64.4v.31l-.84-.54-.88.56v-.33l.69-.42h0s-.69-.42-.69-.42v-.31l.88.56Z"/>
    <path d="m112.4,66.85l2.2.68v.23l-2.2-.68v-.23Z"/>
    <path d="m113.65,68.47l.84-.54v.33l-.64.39h0s.64.4.64.4v.31l-.84-.54-.88.56v-.33l.69-.42h0s-.69-.42-.69-.42v-.31l.88.56Z"/>
    <path d="m113.65,70.05l.84-.54v.33l-.64.39h0s.64.4.64.4v.31l-.84-.54-.88.56v-.33l.69-.42h0s-.69-.42-.69-.42v-.31l.88.56Z"/>
    <path d="m113.65,71.62l.84-.54v.33l-.64.39h0s.64.4.64.4v.31l-.84-.54-.88.56v-.33l.69-.42h0s-.69-.42-.69-.42v-.31l.88.56Z"/>
    <path d="m113.65,73.2l.84-.54v.33l-.64.39h0s.64.4.64.4v.31l-.84-.54-.88.56v-.33l.69-.42h0s-.69-.42-.69-.42v-.31l.88.56Z"/>
  </g>
  <g>
    <path d="m51.52,39.37l.6-.99-.53-.91h.25l.29.49c.06.1.1.18.12.23.03-.07.07-.14.12-.22l.32-.51h.22l-.55.9.59,1.01h-.25l-.39-.68s-.04-.08-.07-.13c-.04.07-.06.12-.08.14l-.39.66h-.25Z"/>
    <path d="m53.05,39.37l.6-.99-.53-.91h.25l.29.49c.06.1.1.18.12.23.03-.07.07-.14.12-.22l.32-.51h.22l-.55.9.59,1.01h-.25l-.39-.68s-.04-.08-.07-.13c-.04.07-.06.12-.08.14l-.39.66h-.25Z"/>
    <path d="m54.59,39.37l.6-.99-.53-.91h.25l.29.49c.06.1.1.18.12.23.03-.07.07-.14.12-.22l.32-.51h.22l-.55.9.59,1.01h-.25l-.39-.68s-.04-.08-.07-.13c-.04.07-.06.12-.08.14l-.39.66h-.25Z"/>
    <path d="m56.12,39.37l.6-.99-.53-.91h.25l.29.49c.06.1.1.18.12.23.03-.07.07-.14.12-.22l.32-.51h.22l-.55.9.59,1.01h-.25l-.39-.68s-.04-.08-.07-.13c-.04.07-.06.12-.08.14l-.39.66h-.25Z"/>
    <path d="m57.65,39.37l.6-.99-.53-.91h.25l.29.49c.06.1.1.18.12.23.03-.07.07-.14.12-.22l.32-.51h.22l-.55.9.59,1.01h-.25l-.39-.68s-.04-.08-.07-.13c-.04.07-.06.12-.08.14l-.39.66h-.25Z"/>
    <path d="m59.19,39.37l.6-.99-.53-.91h.25l.29.49c.06.1.1.18.12.23.03-.07.07-.14.12-.22l.32-.51h.22l-.55.9.59,1.01h-.25l-.39-.68s-.04-.08-.07-.13c-.04.07-.06.12-.08.14l-.39.66h-.25Z"/>
    <path d="m60.72,39.37l.6-.99-.53-.91h.25l.29.49c.06.1.1.18.12.23.03-.07.07-.14.12-.22l.32-.51h.22l-.55.9.59,1.01h-.25l-.39-.68s-.04-.08-.07-.13c-.04.07-.06.12-.08.14l-.39.66h-.25Z"/>
    <path d="m62.25,39.37l.6-.99-.53-.91h.25l.29.49c.06.1.1.18.12.23.03-.07.07-.14.12-.22l.32-.51h.22l-.55.9.59,1.01h-.25l-.39-.68s-.04-.08-.07-.13c-.04.07-.06.12-.08.14l-.39.66h-.25Z"/>
    <path d="m63.79,39.37l.6-.99-.53-.91h.25l.29.49c.06.1.1.18.12.23.03-.07.07-.14.12-.22l.32-.51h.22l-.55.9.59,1.01h-.25l-.39-.68s-.04-.08-.07-.13c-.04.07-.06.12-.08.14l-.39.66h-.25Z"/>
    <path d="m65.32,39.37l.6-.99-.53-.91h.25l.29.49c.06.1.1.18.12.23.03-.07.07-.14.12-.22l.32-.51h.22l-.55.9.59,1.01h-.25l-.39-.68s-.04-.08-.07-.13c-.04.07-.06.12-.08.14l-.39.66h-.25Z"/>
  </g>
  <g>
    <path d="m99.16,31.68l.6-.99-.53-.91h.25l.29.49c.06.1.1.18.12.23.03-.07.07-.14.12-.22l.32-.51h.22l-.55.9.59,1.01h-.25l-.39-.68s-.04-.08-.07-.13c-.04.07-.06.12-.08.14l-.39.66h-.25Z"/>
    <path d="m100.69,31.68l.6-.99-.53-.91h.25l.29.49c.06.1.1.18.12.23.03-.07.07-.14.12-.22l.32-.51h.22l-.55.9.59,1.01h-.25l-.39-.68s-.04-.08-.07-.13c-.04.07-.06.12-.08.14l-.39.66h-.25Z"/>
    <path d="m102.22,31.68l.6-.99-.53-.91h.25l.29.49c.06.1.1.18.12.23.03-.07.07-.14.12-.22l.32-.51h.22l-.55.9.59,1.01h-.25l-.39-.68s-.04-.08-.07-.13c-.04.07-.06.12-.08.14l-.39.66h-.25Z"/>
    <path d="m103.76,31.68l.6-.99-.53-.91h.25l.29.49c.06.1.1.18.12.23.03-.07.07-.14.12-.22l.32-.51h.22l-.55.9.59,1.01h-.25l-.39-.68s-.04-.08-.07-.13c-.04.07-.06.12-.08.14l-.39.66h-.25Z"/>
    <path d="m105.29,31.68l.6-.99-.53-.91h.25l.29.49c.06.1.1.18.12.23.03-.07.07-.14.12-.22l.32-.51h.22l-.55.9.59,1.01h-.25l-.39-.68s-.04-.08-.07-.13c-.04.07-.06.12-.08.14l-.39.66h-.25Z"/>
    <path d="m106.82,31.68l.6-.99-.53-.91h.25l.29.49c.06.1.1.18.12.23.03-.07.07-.14.12-.22l.32-.51h.22l-.55.9.59,1.01h-.25l-.39-.68s-.04-.08-.07-.13c-.04.07-.06.12-.08.14l-.39.66h-.25Z"/>
    <path d="m108.36,31.68l.6-.99-.53-.91h.25l.29.49c.06.1.1.18.12.23.03-.07.07-.14.12-.22l.32-.51h.22l-.55.9.59,1.01h-.25l-.39-.68s-.04-.08-.07-.13c-.04.07-.06.12-.08.14l-.39.66h-.25Z"/>
    <path d="m109.89,31.68l.6-.99-.53-.91h.25l.29.49c.06.1.1.18.12.23.03-.07.07-.14.12-.22l.32-.51h.22l-.55.9.59,1.01h-.25l-.39-.68s-.04-.08-.07-.13c-.04.07-.06.12-.08.14l-.39.66h-.25Z"/>
    <path d="m111.42,31.68l.6-.99-.53-.91h.25l.29.49c.06.1.1.18.12.23.03-.07.07-.14.12-.22l.32-.51h.22l-.55.9.59,1.01h-.25l-.39-.68s-.04-.08-.07-.13c-.04.07-.06.12-.08.14l-.39.66h-.25Z"/>
  </g>
  <g>
    <path class="cls-13" d="m44.76,39.37v-1.9h.31l.64,1.27v-1.27h.29v1.9h-.32l-.63-1.24v1.24h-.29Z"/>
    <path class="cls-13" d="m46.34,38.43c0-.23.03-.41.1-.56.07-.15.15-.26.26-.33.11-.07.24-.11.39-.11.22,0,.41.08.55.26s.21.41.21.73-.07.57-.22.75c-.13.16-.31.24-.53.24s-.4-.08-.53-.23c-.15-.18-.22-.42-.22-.74Zm.32-.01c0,.22.04.38.12.49.08.11.19.16.31.16s.23-.05.31-.16c.08-.11.12-.28.12-.5s-.04-.38-.12-.49c-.08-.11-.18-.16-.31-.16s-.23.05-.31.16-.12.27-.12.49Z"/>
    <path class="cls-13" d="m48.18,39.37v-1.9h.47l.28,1.3.28-1.3h.47v1.9h-.29v-1.5l-.31,1.5h-.3l-.31-1.5v1.5h-.29Z"/>
    <path class="cls-13" d="m50.68,38.36v-.36h.3v.36h-.3Zm0,1.01v-.36h.3v.36h-.3Z"/>
  </g>
  <g>
    <g>
      <path d="m56.72,44.64l.6-.99-.53-.91h.25l.29.49c.06.1.1.18.12.23.03-.07.07-.14.12-.22l.32-.51h.22l-.55.9.59,1.01h-.25l-.39-.68s-.04-.08-.07-.13c-.04.07-.06.12-.08.14l-.39.66h-.25Z"/>
      <path d="m58.26,44.64l.6-.99-.53-.91h.25l.29.49c.06.1.1.18.12.23.03-.07.07-.14.12-.22l.32-.51h.22l-.55.9.59,1.01h-.25l-.39-.68s-.04-.08-.07-.13c-.04.07-.06.12-.08.14l-.39.66h-.25Z"/>
      <path d="m59.79,44.64l.6-.99-.53-.91h.25l.29.49c.06.1.1.18.12.23.03-.07.07-.14.12-.22l.32-.51h.22l-.55.9.59,1.01h-.25l-.39-.68s-.04-.08-.07-.13c-.04.07-.06.12-.08.14l-.39.66h-.25Z"/>
      <path d="m61.32,44.64l.6-.99-.53-.91h.25l.29.49c.06.1.1.18.12.23.03-.07.07-.14.12-.22l.32-.51h.22l-.55.9.59,1.01h-.25l-.39-.68s-.04-.08-.07-.13c-.04.07-.06.12-.08.14l-.39.66h-.25Z"/>
      <path d="m62.86,44.64l.6-.99-.53-.91h.25l.29.49c.06.1.1.18.12.23.03-.07.07-.14.12-.22l.32-.51h.22l-.55.9.59,1.01h-.25l-.39-.68s-.04-.08-.07-.13c-.04.07-.06.12-.08.14l-.39.66h-.25Z"/>
      <path d="m64.39,44.64l.6-.99-.53-.91h.25l.29.49c.06.1.1.18.12.23.03-.07.07-.14.12-.22l.32-.51h.22l-.55.9.59,1.01h-.25l-.39-.68s-.04-.08-.07-.13c-.04.07-.06.12-.08.14l-.39.66h-.25Z"/>
      <path d="m65.92,44.64l.6-.99-.53-.91h.25l.29.49c.06.1.1.18.12.23.03-.07.07-.14.12-.22l.32-.51h.22l-.55.9.59,1.01h-.25l-.39-.68s-.04-.08-.07-.13c-.04.07-.06.12-.08.14l-.39.66h-.25Z"/>
      <path d="m67.46,44.64l.6-.99-.53-.91h.25l.29.49c.06.1.1.18.12.23.03-.07.07-.14.12-.22l.32-.51h.22l-.55.9.59,1.01h-.25l-.39-.68s-.04-.08-.07-.13c-.04.07-.06.12-.08.14l-.39.66h-.25Z"/>
      <path d="m68.99,44.64l.6-.99-.53-.91h.25l.29.49c.06.1.1.18.12.23.03-.07.07-.14.12-.22l.32-.51h.22l-.55.9.59,1.01h-.25l-.39-.68s-.04-.08-.07-.13c-.04.07-.06.12-.08.14l-.39.66h-.25Z"/>
      <path d="m70.52,44.64l.6-.99-.53-.91h.25l.29.49c.06.1.1.18.12.23.03-.07.07-.14.12-.22l.32-.51h.22l-.55.9.59,1.01h-.25l-.39-.68s-.04-.08-.07-.13c-.04.07-.06.12-.08.14l-.39.66h-.25Z"/>
    </g>
    <g>
      <path class="cls-13" d="m44.9,44.64v-1.9h.51c.19,0,.31,0,.37.03.09.03.17.09.23.19.06.1.09.22.09.37,0,.14-.03.25-.08.35-.05.09-.12.16-.19.2-.08.04-.21.06-.4.06h-.21v.72h-.31Zm.31-1.58v.54h.17c.12,0,.2,0,.24-.02.04-.02.08-.05.1-.09s.04-.1.04-.16-.01-.12-.04-.16-.06-.07-.1-.09c-.04-.02-.13-.02-.26-.02h-.15Z"/>
      <path class="cls-13" d="m46.44,44.64v-1.9h.66c.17,0,.29.02.36.05.07.03.13.09.18.18.05.08.07.19.07.3,0,.15-.04.27-.11.36-.07.09-.17.15-.3.17.07.05.12.1.17.16.04.06.1.16.18.31l.19.37h-.38l-.23-.41c-.08-.15-.14-.24-.17-.28-.03-.04-.06-.06-.09-.08-.03-.01-.09-.02-.16-.02h-.06v.79h-.31Zm.31-1.1h.23c.14,0,.23,0,.27-.02.04-.01.07-.04.09-.08s.04-.09.04-.15-.01-.11-.04-.15-.06-.06-.1-.08c-.03,0-.11-.01-.26-.01h-.25v.48Z"/>
      <path class="cls-13" d="m48.09,44.64v-1.9h1.16v.32h-.84v.42h.78v.32h-.78v.52h.87v.32h-1.19Zm.4-2.03l.15-.39h.34l-.29.39h-.19Z"/>
      <path class="cls-13" d="m49.62,44.64v-1.9h.31l.64,1.27v-1.27h.29v1.9h-.32l-.63-1.24v1.24h-.29Z"/>
      <path class="cls-13" d="m51.21,43.7c0-.23.03-.41.1-.56.07-.15.15-.26.26-.33.11-.07.24-.11.39-.11.22,0,.41.08.55.26s.21.41.21.73-.07.57-.22.75c-.13.16-.31.24-.53.24s-.4-.08-.53-.23c-.15-.18-.22-.42-.22-.74Zm.32-.01c0,.22.04.38.12.49.08.11.19.16.31.16s.23-.05.31-.16c.08-.11.12-.28.12-.5s-.04-.38-.12-.49c-.08-.11-.18-.16-.31-.16s-.23.05-.31.16-.12.27-.12.49Z"/>
      <path class="cls-13" d="m53.05,44.64v-1.9h.47l.28,1.3.28-1.3h.47v1.9h-.29v-1.5l-.31,1.5h-.3l-.31-1.5v1.5h-.29Z"/>
      <path class="cls-13" d="m55.55,43.62v-.36h.3v.36h-.3Zm0,1.01v-.36h.3v.36h-.3Z"/>
    </g>
  </g>
  <g>
    <g>
      <path d="m44.83,53.23l.6-.99-.53-.91h.25l.29.49c.06.1.1.18.12.23.03-.07.07-.14.12-.22l.32-.51h.22l-.55.9.59,1.01h-.25l-.39-.68s-.04-.08-.07-.13c-.04.07-.06.12-.08.14l-.39.66h-.25Z"/>
      <path d="m46.36,53.23l.6-.99-.53-.91h.25l.29.49c.06.1.1.18.12.23.03-.07.07-.14.12-.22l.32-.51h.22l-.55.9.59,1.01h-.25l-.39-.68s-.04-.08-.07-.13c-.04.07-.06.12-.08.14l-.39.66h-.25Z"/>
      <path d="m47.89,53.23l.6-.99-.53-.91h.25l.29.49c.06.1.1.18.12.23.03-.07.07-.14.12-.22l.32-.51h.22l-.55.9.59,1.01h-.25l-.39-.68s-.04-.08-.07-.13c-.04.07-.06.12-.08.14l-.39.66h-.25Z"/>
      <path d="m49.43,53.23l.6-.99-.53-.91h.25l.29.49c.06.1.1.18.12.23.03-.07.07-.14.12-.22l.32-.51h.22l-.55.9.59,1.01h-.25l-.39-.68s-.04-.08-.07-.13c-.04.07-.06.12-.08.14l-.39.66h-.25Z"/>
      <path d="m50.96,53.23l.6-.99-.53-.91h.25l.29.49c.06.1.1.18.12.23.03-.07.07-.14.12-.22l.32-.51h.22l-.55.9.59,1.01h-.25l-.39-.68s-.04-.08-.07-.13c-.04.07-.06.12-.08.14l-.39.66h-.25Z"/>
      <path d="m52.49,53.23l.6-.99-.53-.91h.25l.29.49c.06.1.1.18.12.23.03-.07.07-.14.12-.22l.32-.51h.22l-.55.9.59,1.01h-.25l-.39-.68s-.04-.08-.07-.13c-.04.07-.06.12-.08.14l-.39.66h-.25Z"/>
      <path d="m54.03,53.23l.6-.99-.53-.91h.25l.29.49c.06.1.1.18.12.23.03-.07.07-.14.12-.22l.32-.51h.22l-.55.9.59,1.01h-.25l-.39-.68s-.04-.08-.07-.13c-.04.07-.06.12-.08.14l-.39.66h-.25Z"/>
      <path d="m55.56,53.23l.6-.99-.53-.91h.25l.29.49c.06.1.1.18.12.23.03-.07.07-.14.12-.22l.32-.51h.22l-.55.9.59,1.01h-.25l-.39-.68s-.04-.08-.07-.13c-.04.07-.06.12-.08.14l-.39.66h-.25Z"/>
      <path d="m57.09,53.23l.6-.99-.53-.91h.25l.29.49c.06.1.1.18.12.23.03-.07.07-.14.12-.22l.32-.51h.22l-.55.9.59,1.01h-.25l-.39-.68s-.04-.08-.07-.13c-.04.07-.06.12-.08.14l-.39.66h-.25Z"/>
      <path d="m58.63,53.23l.6-.99-.53-.91h.25l.29.49c.06.1.1.18.12.23.03-.07.07-.14.12-.22l.32-.51h.22l-.55.9.59,1.01h-.25l-.39-.68s-.04-.08-.07-.13c-.04.07-.06.12-.08.14l-.39.66h-.25Z"/>
    </g>
    <g>
      <path class="cls-13" d="m45.3,49.67l-.56-1.9h.34l.4,1.41.38-1.41h.33l-.56,1.9h-.34Z"/>
      <path class="cls-13" d="m47.68,49.67h-.34l-.14-.43h-.62l-.13.43h-.33l.61-1.9h.33l.62,1.9Zm-.58-.75l-.22-.71-.21.71h.43Z"/>
      <path class="cls-13" d="m47.94,49.67v-1.89h.31v1.57h.78v.32h-1.1Z"/>
      <path class="cls-13" d="m50.75,49.67h-.34l-.14-.43h-.62l-.13.43h-.33l.61-1.9h.33l.62,1.9Zm-.58-.75l-.22-.71-.21.71h.43Z"/>
      <path class="cls-13" d="m50.99,47.77h.62c.17,0,.29.02.36.05s.13.09.18.16c.05.08.07.17.07.27,0,.09-.02.17-.06.25-.04.07-.09.13-.16.16.09.03.16.09.22.17.05.08.08.18.08.29,0,.14-.03.26-.1.35-.07.1-.15.15-.24.18-.06.02-.21.02-.44.02h-.53v-1.9Zm.31.32v.44h.21c.12,0,.2,0,.23,0,.05,0,.1-.03.13-.07s.05-.09.05-.15c0-.06-.01-.1-.04-.14-.02-.03-.05-.06-.09-.07-.04,0-.14-.01-.3-.01h-.18Zm0,.76v.51h.29c.13,0,.21,0,.25-.02.04-.01.07-.04.09-.08.02-.04.04-.09.04-.15s-.01-.11-.04-.15c-.03-.04-.06-.07-.1-.08-.04-.02-.13-.02-.27-.02h-.25Z"/>
      <path class="cls-13" d="m52.65,49.67v-1.89h.31v1.57h.78v.32h-1.1Z"/>
      <path class="cls-13" d="m54.06,49.67v-1.9h1.16v.32h-.84v.42h.78v.32h-.78v.52h.87v.32h-1.19Z"/>
      <path class="cls-13" d="m56.84,47.77h.31v1.2c0,.19-.02.34-.06.43-.04.1-.1.17-.17.22-.08.05-.17.08-.29.08-.15,0-.27-.05-.35-.15-.08-.1-.13-.26-.13-.47l.3-.04c0,.11.02.19.04.24.03.06.08.1.15.1s.11-.02.15-.07.05-.15.05-.31v-1.23Z"/>
      <path class="cls-13" d="m57.56,47.77h.31v1.03c0,.16,0,.26.01.31.01.08.05.15.1.19s.12.07.21.07c.07,0,.13-.02.18-.05.05-.03.08-.08.09-.13s.03-.18.03-.37v-1.05h.31v1c0,.26-.01.44-.04.55-.03.11-.09.21-.18.28-.1.07-.22.11-.38.11s-.29-.03-.38-.09-.16-.14-.2-.25-.06-.3-.06-.59v-1.02Z"/>
      <path class="cls-13" d="m59.14,49.05l.31-.04c.03.24.15.36.34.36.1,0,.17-.02.22-.07.05-.05.08-.11.08-.19,0-.04,0-.08-.03-.11s-.05-.06-.09-.07c-.04-.02-.13-.05-.28-.1-.13-.04-.23-.08-.29-.13-.06-.05-.11-.11-.15-.19-.04-.08-.06-.16-.06-.25,0-.1.02-.2.07-.28s.11-.15.2-.19.19-.06.31-.06c.18,0,.33.05.43.15.1.1.16.24.16.43l-.32.02c-.01-.1-.04-.17-.09-.21-.05-.04-.11-.06-.2-.06s-.15.02-.2.05c-.05.04-.07.08-.07.13s.02.1.06.13c.04.04.14.07.29.12.16.05.27.09.34.15.07.05.12.12.16.2s.06.18.06.29c0,.17-.05.3-.15.42s-.26.17-.48.17c-.38,0-.6-.22-.64-.65Z"/>
      <path class="cls-13" d="m62.01,49.43c.08.07.16.12.25.16l-.12.27s-.09-.04-.14-.07c-.01,0-.08-.06-.21-.17-.1.05-.22.08-.35.08-.22,0-.41-.08-.55-.25-.14-.17-.21-.41-.21-.73s.07-.56.21-.73c.14-.17.32-.25.55-.25s.41.08.55.25c.14.17.21.41.21.73,0,.15-.02.29-.05.4-.03.11-.08.22-.15.31Zm-.25-.22c.08-.11.12-.28.12-.49s-.04-.39-.12-.5-.18-.16-.31-.16-.23.05-.31.16c-.08.11-.12.27-.12.49s.04.39.12.5.18.16.3.16c.04,0,.09,0,.13-.03-.07-.05-.13-.09-.19-.12l.09-.22c.1.04.2.11.3.19Z"/>
      <path class="cls-13" d="m62.53,47.77h.31v1.03c0,.16,0,.26.01.31.01.08.05.15.1.19s.12.07.21.07c.07,0,.13-.02.18-.05.05-.03.08-.08.09-.13s.03-.18.03-.37v-1.05h.31v1c0,.26-.01.44-.04.55-.03.11-.09.21-.18.28-.1.07-.22.11-.38.11s-.29-.03-.38-.09-.16-.14-.2-.25-.06-.3-.06-.59v-1.02Z"/>
      <path class="cls-13" d="m64.17,47.77h.3v.26c0,.15-.02.26-.05.33-.04.09-.11.15-.21.2l-.06-.15c.06-.02.1-.06.13-.1.03-.04.04-.1.04-.17h-.14v-.36Z"/>
      <path class="cls-13" d="m66.28,49.67h-.34l-.14-.43h-.62l-.13.43h-.33l.61-1.9h.33l.62,1.9Zm-.58-.75l-.22-.71-.21.71h.43Z"/>
      <path class="cls-13" d="m66.52,47.77h.31v1.03c0,.16,0,.26.01.31.01.08.05.15.1.19s.12.07.21.07c.07,0,.13-.02.18-.05.05-.03.08-.08.09-.13s.03-.18.03-.37v-1.05h.31v1c0,.26-.01.44-.04.55-.03.11-.09.21-.18.28-.1.07-.22.11-.38.11s-.29-.03-.38-.09-.16-.14-.2-.25-.06-.3-.06-.59v-1.02Z"/>
      <path class="cls-13" d="m68.78,48.66v-.36h.3v.36h-.3Zm0,1.01v-.36h.3v.36h-.3Z"/>
    </g>
  </g>
  <g>
    <g>
      <path d="m44.83,60.43l.6-.99-.53-.91h.25l.29.49c.06.1.1.18.12.23.03-.07.07-.14.12-.22l.32-.51h.22l-.55.9.59,1.01h-.25l-.39-.68s-.04-.08-.07-.13c-.04.07-.06.12-.08.14l-.39.66h-.25Z"/>
      <path d="m46.36,60.43l.6-.99-.53-.91h.25l.29.49c.06.1.1.18.12.23.03-.07.07-.14.12-.22l.32-.51h.22l-.55.9.59,1.01h-.25l-.39-.68s-.04-.08-.07-.13c-.04.07-.06.12-.08.14l-.39.66h-.25Z"/>
      <path d="m47.88,60.46l.45-1.97h.16l-.45,1.97h-.15Z"/>
      <path d="m48.58,60.43l.6-.99-.53-.91h.25l.29.49c.06.1.1.18.12.23.03-.07.07-.14.12-.22l.32-.51h.22l-.55.9.59,1.01h-.25l-.39-.68s-.04-.08-.07-.13c-.04.07-.06.12-.08.14l-.39.66h-.25Z"/>
      <path d="m50.11,60.43l.6-.99-.53-.91h.25l.29.49c.06.1.1.18.12.23.03-.07.07-.14.12-.22l.32-.51h.22l-.55.9.59,1.01h-.25l-.39-.68s-.04-.08-.07-.13c-.04.07-.06.12-.08.14l-.39.66h-.25Z"/>
      <path d="m51.64,60.46l.45-1.97h.16l-.45,1.97h-.15Z"/>
      <path d="m52.33,60.43l.6-.99-.53-.91h.25l.29.49c.06.1.1.18.12.23.03-.07.07-.14.12-.22l.32-.51h.22l-.55.9.59,1.01h-.25l-.39-.68s-.04-.08-.07-.13c-.04.07-.06.12-.08.14l-.39.66h-.25Z"/>
      <path d="m53.87,60.43l.6-.99-.53-.91h.25l.29.49c.06.1.1.18.12.23.03-.07.07-.14.12-.22l.32-.51h.22l-.55.9.59,1.01h-.25l-.39-.68s-.04-.08-.07-.13c-.04.07-.06.12-.08.14l-.39.66h-.25Z"/>
      <path d="m55.4,60.43l.6-.99-.53-.91h.25l.29.49c.06.1.1.18.12.23.03-.07.07-.14.12-.22l.32-.51h.22l-.55.9.59,1.01h-.25l-.39-.68s-.04-.08-.07-.13c-.04.07-.06.12-.08.14l-.39.66h-.25Z"/>
      <path d="m56.93,60.43l.6-.99-.53-.91h.25l.29.49c.06.1.1.18.12.23.03-.07.07-.14.12-.22l.32-.51h.22l-.55.9.59,1.01h-.25l-.39-.68s-.04-.08-.07-.13c-.04.07-.06.12-.08.14l-.39.66h-.25Z"/>
    </g>
    <g>
      <path d="m44.83,63.93l.6-.99-.53-.91h.25l.29.49c.06.1.1.18.12.23.03-.07.07-.14.12-.22l.32-.51h.22l-.55.9.59,1.01h-.25l-.39-.68s-.04-.08-.07-.13c-.04.07-.06.12-.08.14l-.39.66h-.25Z"/>
      <path d="m46.36,63.93l.6-.99-.53-.91h.25l.29.49c.06.1.1.18.12.23.03-.07.07-.14.12-.22l.32-.51h.22l-.55.9.59,1.01h-.25l-.39-.68s-.04-.08-.07-.13c-.04.07-.06.12-.08.14l-.39.66h-.25Z"/>
      <path d="m47.89,63.93l.6-.99-.53-.91h.25l.29.49c.06.1.1.18.12.23.03-.07.07-.14.12-.22l.32-.51h.22l-.55.9.59,1.01h-.25l-.39-.68s-.04-.08-.07-.13c-.04.07-.06.12-.08.14l-.39.66h-.25Z"/>
      <path d="m49.43,63.93l.6-.99-.53-.91h.25l.29.49c.06.1.1.18.12.23.03-.07.07-.14.12-.22l.32-.51h.22l-.55.9.59,1.01h-.25l-.39-.68s-.04-.08-.07-.13c-.04.07-.06.12-.08.14l-.39.66h-.25Z"/>
      <path d="m50.96,63.93l.6-.99-.53-.91h.25l.29.49c.06.1.1.18.12.23.03-.07.07-.14.12-.22l.32-.51h.22l-.55.9.59,1.01h-.25l-.39-.68s-.04-.08-.07-.13c-.04.07-.06.12-.08.14l-.39.66h-.25Z"/>
      <path d="m52.49,63.93l.6-.99-.53-.91h.25l.29.49c.06.1.1.18.12.23.03-.07.07-.14.12-.22l.32-.51h.22l-.55.9.59,1.01h-.25l-.39-.68s-.04-.08-.07-.13c-.04.07-.06.12-.08.14l-.39.66h-.25Z"/>
      <path d="m54.03,63.93l.6-.99-.53-.91h.25l.29.49c.06.1.1.18.12.23.03-.07.07-.14.12-.22l.32-.51h.22l-.55.9.59,1.01h-.25l-.39-.68s-.04-.08-.07-.13c-.04.07-.06.12-.08.14l-.39.66h-.25Z"/>
      <path d="m55.56,63.93l.6-.99-.53-.91h.25l.29.49c.06.1.1.18.12.23.03-.07.07-.14.12-.22l.32-.51h.22l-.55.9.59,1.01h-.25l-.39-.68s-.04-.08-.07-.13c-.04.07-.06.12-.08.14l-.39.66h-.25Z"/>
      <path d="m57.09,63.93l.6-.99-.53-.91h.25l.29.49c.06.1.1.18.12.23.03-.07.07-.14.12-.22l.32-.51h.22l-.55.9.59,1.01h-.25l-.39-.68s-.04-.08-.07-.13c-.04.07-.06.12-.08.14l-.39.66h-.25Z"/>
      <path d="m58.63,63.93l.6-.99-.53-.91h.25l.29.49c.06.1.1.18.12.23.03-.07.07-.14.12-.22l.32-.51h.22l-.55.9.59,1.01h-.25l-.39-.68s-.04-.08-.07-.13c-.04.07-.06.12-.08.14l-.39.66h-.25Z"/>
    </g>
    <g>
      <path class="cls-13" d="m44.9,54.97h.57c.15,0,.25.02.33.05.07.03.14.09.2.16.06.08.11.18.15.3.04.12.05.28.05.46,0,.16-.02.31-.06.43s-.08.22-.14.29c-.06.07-.13.12-.21.16-.08.04-.18.05-.31.05h-.59v-1.9Zm.31.32v1.26h.24c.1,0,.17,0,.22-.03s.08-.05.11-.09.05-.1.07-.18.03-.19.03-.33,0-.25-.03-.33c-.02-.08-.05-.15-.09-.19-.04-.05-.09-.08-.15-.09-.04-.01-.13-.02-.26-.02h-.14Z"/>
      <path class="cls-13" d="m47.96,56.87h-.34l-.14-.43h-.62l-.13.43h-.33l.61-1.9h.33l.62,1.9Zm-.58-.75l-.22-.71-.21.71h.43Z"/>
      <path class="cls-13" d="m48.4,56.87v-1.58h-.46v-.32h1.24v.32h-.46v1.58h-.31Z"/>
      <path class="cls-13" d="m49.46,56.87v-1.9h1.16v.32h-.84v.42h.78v.32h-.78v.52h.87v.32h-1.19Z"/>
      <path class="cls-13" d="m51.68,56.87v-1.9h1.16v.32h-.84v.42h.78v.32h-.78v.52h.87v.32h-1.19Z"/>
      <path class="cls-13" d="m53.56,56.87v-1.58h-.46v-.32h1.24v.32h-.46v1.58h-.31Z"/>
      <path class="cls-13" d="m55.32,56.87v-1.89h.31v1.57h.78v.32h-1.1Z"/>
      <path class="cls-13" d="m56.71,56.87v-1.9h.31v1.9h-.31Z"/>
      <path class="cls-13" d="m57.41,56.87v-1.9h1.16v.32h-.84v.42h.78v.32h-.78v.52h.87v.32h-1.19Z"/>
      <path class="cls-13" d="m58.94,54.97h.31v1.03c0,.16,0,.26.01.31.01.08.05.15.1.19s.12.07.21.07c.07,0,.13-.02.18-.05.05-.03.08-.08.09-.13s.03-.18.03-.37v-1.05h.31v1c0,.26-.01.44-.04.55-.03.11-.09.21-.18.28-.1.07-.22.11-.38.11s-.29-.03-.38-.09-.16-.14-.2-.25-.06-.3-.06-.59v-1.02Z"/>
      <path class="cls-13" d="m61.28,54.97h.57c.15,0,.25.02.33.05.07.03.14.09.2.16.06.08.11.18.15.3.04.12.05.28.05.46,0,.16-.02.31-.06.43s-.08.22-.14.29c-.06.07-.13.12-.21.16-.08.04-.18.05-.31.05h-.59v-1.9Zm.31.32v1.26h.24c.1,0,.17,0,.22-.03s.08-.05.11-.09.05-.1.07-.18.03-.19.03-.33,0-.25-.03-.33c-.02-.08-.05-.15-.09-.19-.04-.05-.09-.08-.15-.09-.04-.01-.13-.02-.26-.02h-.14Z"/>
      <path class="cls-13" d="m62.93,56.87v-1.9h1.16v.32h-.84v.42h.78v.32h-.78v.52h.87v.32h-1.19Z"/>
      <path class="cls-13" d="m65.15,54.97h.57c.15,0,.25.02.33.05.07.03.14.09.2.16.06.08.11.18.15.3.04.12.05.28.05.46,0,.16-.02.31-.06.43s-.08.22-.14.29c-.06.07-.13.12-.21.16-.08.04-.18.05-.31.05h-.59v-1.9Zm.31.32v1.26h.24c.1,0,.17,0,.22-.03s.08-.05.11-.09.05-.1.07-.18.03-.19.03-.33,0-.25-.03-.33c-.02-.08-.05-.15-.09-.19-.04-.05-.09-.08-.15-.09-.04-.01-.13-.02-.26-.02h-.14Z"/>
      <path class="cls-13" d="m66.8,56.87v-1.9h1.16v.32h-.84v.42h.78v.32h-.78v.52h.87v.32h-1.19Zm.4-2.03l.15-.39h.34l-.29.39h-.19Z"/>
      <path class="cls-13" d="m68.34,56.87v-1.89h.31v1.57h.78v.32h-1.1Z"/>
      <path class="cls-13" d="m69.74,56.87v-1.9h.31v1.9h-.31Z"/>
      <path class="cls-13" d="m70.83,56.87l-.56-1.9h.34l.4,1.41.38-1.41h.33l-.56,1.9h-.34Z"/>
      <path class="cls-13" d="m71.97,56.87v-1.9h.66c.17,0,.29.02.36.05.07.03.13.09.18.18.05.08.07.19.07.3,0,.15-.04.27-.11.36-.07.09-.17.15-.3.17.07.05.12.1.17.16.04.06.1.16.18.31l.19.37h-.38l-.23-.41c-.08-.15-.14-.24-.17-.28-.03-.04-.06-.06-.09-.08-.03-.01-.09-.02-.16-.02h-.06v.79h-.31Zm.31-1.1h.23c.14,0,.23,0,.27-.02.04-.01.07-.04.09-.08s.04-.09.04-.15-.01-.11-.04-.15-.06-.06-.1-.08c-.03,0-.11-.01-.26-.01h-.25v.48Z"/>
      <path class="cls-13" d="m75.03,56.87h-.34l-.14-.43h-.62l-.13.43h-.33l.61-1.9h.33l.62,1.9Zm-.58-.75l-.22-.71-.21.71h.43Z"/>
      <path class="cls-13" d="m75.28,56.87v-1.9h.31l.64,1.27v-1.27h.29v1.9h-.32l-.63-1.24v1.24h-.29Z"/>
      <path class="cls-13" d="m77.92,56.17l.31.12c-.05.21-.13.37-.24.47s-.25.15-.41.15c-.2,0-.37-.08-.49-.23-.15-.18-.22-.42-.22-.73,0-.32.07-.58.22-.76.13-.16.3-.24.51-.24.18,0,.32.06.44.18.08.08.15.21.18.38l-.31.09c-.02-.1-.06-.18-.12-.24-.06-.06-.13-.08-.21-.08-.12,0-.21.05-.28.15-.07.1-.11.27-.11.5s.04.41.11.51.16.15.28.15c.08,0,.16-.03.22-.1s.1-.17.13-.31Z"/>
      <path class="cls-13" d="m78.58,56.87v-1.9h1.16v.32h-.84v.42h.78v.32h-.78v.52h.87v.32h-1.19Z"/>
      <path class="cls-13" d="m80.71,55.86v-.36h.3v.36h-.3Zm0,1.01v-.36h.3v.36h-.3Z"/>
    </g>
  </g>
  <g>
    <g>
      <path d="m44.83,70.94l.6-.99-.53-.91h.25l.29.49c.06.1.1.18.12.23.03-.07.07-.14.12-.22l.32-.51h.22l-.55.9.59,1.01h-.25l-.39-.68s-.04-.08-.07-.13c-.04.07-.06.12-.08.14l-.39.66h-.25Z"/>
      <path d="m46.36,70.94l.6-.99-.53-.91h.25l.29.49c.06.1.1.18.12.23.03-.07.07-.14.12-.22l.32-.51h.22l-.55.9.59,1.01h-.25l-.39-.68s-.04-.08-.07-.13c-.04.07-.06.12-.08.14l-.39.66h-.25Z"/>
      <path d="m47.89,70.94l.6-.99-.53-.91h.25l.29.49c.06.1.1.18.12.23.03-.07.07-.14.12-.22l.32-.51h.22l-.55.9.59,1.01h-.25l-.39-.68s-.04-.08-.07-.13c-.04.07-.06.12-.08.14l-.39.66h-.25Z"/>
      <path d="m49.43,70.94l.6-.99-.53-.91h.25l.29.49c.06.1.1.18.12.23.03-.07.07-.14.12-.22l.32-.51h.22l-.55.9.59,1.01h-.25l-.39-.68s-.04-.08-.07-.13c-.04.07-.06.12-.08.14l-.39.66h-.25Z"/>
      <path d="m50.96,70.94l.6-.99-.53-.91h.25l.29.49c.06.1.1.18.12.23.03-.07.07-.14.12-.22l.32-.51h.22l-.55.9.59,1.01h-.25l-.39-.68s-.04-.08-.07-.13c-.04.07-.06.12-.08.14l-.39.66h-.25Z"/>
      <path d="m52.49,70.94l.6-.99-.53-.91h.25l.29.49c.06.1.1.18.12.23.03-.07.07-.14.12-.22l.32-.51h.22l-.55.9.59,1.01h-.25l-.39-.68s-.04-.08-.07-.13c-.04.07-.06.12-.08.14l-.39.66h-.25Z"/>
      <path d="m54.03,70.94l.6-.99-.53-.91h.25l.29.49c.06.1.1.18.12.23.03-.07.07-.14.12-.22l.32-.51h.22l-.55.9.59,1.01h-.25l-.39-.68s-.04-.08-.07-.13c-.04.07-.06.12-.08.14l-.39.66h-.25Z"/>
      <path d="m55.56,70.94l.6-.99-.53-.91h.25l.29.49c.06.1.1.18.12.23.03-.07.07-.14.12-.22l.32-.51h.22l-.55.9.59,1.01h-.25l-.39-.68s-.04-.08-.07-.13c-.04.07-.06.12-.08.14l-.39.66h-.25Z"/>
      <path d="m57.09,70.94l.6-.99-.53-.91h.25l.29.49c.06.1.1.18.12.23.03-.07.07-.14.12-.22l.32-.51h.22l-.55.9.59,1.01h-.25l-.39-.68s-.04-.08-.07-.13c-.04.07-.06.12-.08.14l-.39.66h-.25Z"/>
      <path d="m58.63,70.94l.6-.99-.53-.91h.25l.29.49c.06.1.1.18.12.23.03-.07.07-.14.12-.22l.32-.51h.22l-.55.9.59,1.01h-.25l-.39-.68s-.04-.08-.07-.13c-.04.07-.06.12-.08.14l-.39.66h-.25Z"/>
    </g>
    <g>
      <path class="cls-13" d="m44.9,67.38v-1.9h.31l.64,1.27v-1.27h.29v1.9h-.32l-.63-1.24v1.24h-.29Z"/>
      <path class="cls-13" d="m47.96,67.38h-.34l-.14-.43h-.62l-.13.43h-.33l.61-1.9h.33l.62,1.9Zm-.58-.75l-.22-.71-.21.71h.43Z"/>
      <path class="cls-13" d="m48.4,67.38v-1.58h-.46v-.32h1.24v.32h-.46v1.58h-.31Z"/>
      <path class="cls-13" d="m49.46,65.48h.31v1.03c0,.16,0,.26.01.31.01.08.05.15.1.19s.12.07.21.07c.07,0,.13-.02.18-.05.05-.03.08-.08.09-.13s.03-.18.03-.37v-1.05h.31v1c0,.26-.01.44-.04.55-.03.11-.09.21-.18.28-.1.07-.22.11-.38.11s-.29-.03-.38-.09-.16-.14-.2-.25-.06-.3-.06-.59v-1.02Z"/>
      <path class="cls-13" d="m51.11,67.38v-1.9h.66c.17,0,.29.02.36.05.07.03.13.09.18.18.05.08.07.19.07.3,0,.15-.04.27-.11.36-.07.09-.17.15-.3.17.07.05.12.1.17.16.04.06.1.16.18.31l.19.37h-.38l-.23-.41c-.08-.15-.14-.24-.17-.28-.03-.04-.06-.06-.09-.08-.03-.01-.09-.02-.16-.02h-.06v.79h-.31Zm.31-1.1h.23c.14,0,.23,0,.27-.02.04-.01.07-.04.09-.08s.04-.09.04-.15-.01-.11-.04-.15-.06-.06-.1-.08c-.03,0-.11-.01-.26-.01h-.25v.48Z"/>
      <path class="cls-13" d="m52.77,67.38v-1.9h1.16v.32h-.84v.42h.78v.32h-.78v.52h.87v.32h-1.19Z"/>
      <path class="cls-13" d="m54.98,65.48h.57c.15,0,.25.02.33.05.07.03.14.09.2.16.06.08.11.18.15.3.04.12.05.28.05.46,0,.16-.02.31-.06.43s-.08.22-.14.29c-.06.07-.13.12-.21.16-.08.04-.18.05-.31.05h-.59v-1.9Zm.31.32v1.26h.24c.1,0,.17,0,.22-.03s.08-.05.11-.09.05-.1.07-.18.03-.19.03-.33,0-.25-.03-.33c-.02-.08-.05-.15-.09-.19-.04-.05-.09-.08-.15-.09-.04-.01-.13-.02-.26-.02h-.14Z"/>
      <path class="cls-13" d="m56.63,65.48h.31v1.03c0,.16,0,.26.01.31.01.08.05.15.1.19s.12.07.21.07c.07,0,.13-.02.18-.05.05-.03.08-.08.09-.13s.03-.18.03-.37v-1.05h.31v1c0,.26-.01.44-.04.55-.03.11-.09.21-.18.28-.1.07-.22.11-.38.11s-.29-.03-.38-.09-.16-.14-.2-.25-.06-.3-.06-.59v-1.02Z"/>
      <path class="cls-13" d="m59.33,67.38v-1.58h-.46v-.32h1.24v.32h-.46v1.58h-.31Z"/>
      <path class="cls-13" d="m60.38,67.38v-1.9h.31v1.9h-.31Z"/>
      <path class="cls-13" d="m61.42,67.38v-1.58h-.46v-.32h1.24v.32h-.46v1.58h-.31Z"/>
      <path class="cls-13" d="m62.48,67.38v-1.9h.66c.17,0,.29.02.36.05.07.03.13.09.18.18.05.08.07.19.07.3,0,.15-.04.27-.11.36-.07.09-.17.15-.3.17.07.05.12.1.17.16.04.06.1.16.18.31l.19.37h-.38l-.23-.41c-.08-.15-.14-.24-.17-.28-.03-.04-.06-.06-.09-.08-.03-.01-.09-.02-.16-.02h-.06v.79h-.31Zm.31-1.1h.23c.14,0,.23,0,.27-.02.04-.01.07-.04.09-.08s.04-.09.04-.15-.01-.11-.04-.15-.06-.06-.1-.08c-.03,0-.11-.01-.26-.01h-.25v.48Z"/>
      <path class="cls-13" d="m64.14,67.38v-1.9h1.16v.32h-.84v.42h.78v.32h-.78v.52h.87v.32h-1.19Z"/>
      <path class="cls-13" d="m66.27,66.36v-.36h.3v.36h-.3Zm0,1.01v-.36h.3v.36h-.3Z"/>
    </g>
  </g>
  <g>
    <path d="m44.83,78.42l.6-.99-.53-.91h.25l.29.49c.06.1.1.18.12.23.03-.07.07-.14.12-.22l.32-.51h.22l-.55.9.59,1.01h-.25l-.39-.68s-.04-.08-.07-.13c-.04.07-.06.12-.08.14l-.39.66h-.25Z"/>
    <path d="m46.36,78.42l.6-.99-.53-.91h.25l.29.49c.06.1.1.18.12.23.03-.07.07-.14.12-.22l.32-.51h.22l-.55.9.59,1.01h-.25l-.39-.68s-.04-.08-.07-.13c-.04.07-.06.12-.08.14l-.39.66h-.25Z"/>
    <path d="m47.89,78.42l.6-.99-.53-.91h.25l.29.49c.06.1.1.18.12.23.03-.07.07-.14.12-.22l.32-.51h.22l-.55.9.59,1.01h-.25l-.39-.68s-.04-.08-.07-.13c-.04.07-.06.12-.08.14l-.39.66h-.25Z"/>
    <path d="m49.43,78.42l.6-.99-.53-.91h.25l.29.49c.06.1.1.18.12.23.03-.07.07-.14.12-.22l.32-.51h.22l-.55.9.59,1.01h-.25l-.39-.68s-.04-.08-.07-.13c-.04.07-.06.12-.08.14l-.39.66h-.25Z"/>
    <path d="m50.96,78.42l.6-.99-.53-.91h.25l.29.49c.06.1.1.18.12.23.03-.07.07-.14.12-.22l.32-.51h.22l-.55.9.59,1.01h-.25l-.39-.68s-.04-.08-.07-.13c-.04.07-.06.12-.08.14l-.39.66h-.25Z"/>
    <path d="m52.49,78.42l.6-.99-.53-.91h.25l.29.49c.06.1.1.18.12.23.03-.07.07-.14.12-.22l.32-.51h.22l-.55.9.59,1.01h-.25l-.39-.68s-.04-.08-.07-.13c-.04.07-.06.12-.08.14l-.39.66h-.25Z"/>
    <path d="m54.03,78.42l.6-.99-.53-.91h.25l.29.49c.06.1.1.18.12.23.03-.07.07-.14.12-.22l.32-.51h.22l-.55.9.59,1.01h-.25l-.39-.68s-.04-.08-.07-.13c-.04.07-.06.12-.08.14l-.39.66h-.25Z"/>
    <path d="m55.56,78.42l.6-.99-.53-.91h.25l.29.49c.06.1.1.18.12.23.03-.07.07-.14.12-.22l.32-.51h.22l-.55.9.59,1.01h-.25l-.39-.68s-.04-.08-.07-.13c-.04.07-.06.12-.08.14l-.39.66h-.25Z"/>
    <path d="m57.09,78.42l.6-.99-.53-.91h.25l.29.49c.06.1.1.18.12.23.03-.07.07-.14.12-.22l.32-.51h.22l-.55.9.59,1.01h-.25l-.39-.68s-.04-.08-.07-.13c-.04.07-.06.12-.08.14l-.39.66h-.25Z"/>
    <path d="m58.63,78.42l.6-.99-.53-.91h.25l.29.49c.06.1.1.18.12.23.03-.07.07-.14.12-.22l.32-.51h.22l-.55.9.59,1.01h-.25l-.39-.68s-.04-.08-.07-.13c-.04.07-.06.12-.08.14l-.39.66h-.25Z"/>
    <path d="m60.16,78.42l.6-.99-.53-.91h.25l.29.49c.06.1.1.18.12.23.03-.07.07-.14.12-.22l.32-.51h.22l-.55.9.59,1.01h-.25l-.39-.68s-.04-.08-.07-.13c-.04.07-.06.12-.08.14l-.39.66h-.25Z"/>
    <path d="m61.69,78.42l.6-.99-.53-.91h.25l.29.49c.06.1.1.18.12.23.03-.07.07-.14.12-.22l.32-.51h.22l-.55.9.59,1.01h-.25l-.39-.68s-.04-.08-.07-.13c-.04.07-.06.12-.08.14l-.39.66h-.25Z"/>
    <path d="m63.23,78.42l.6-.99-.53-.91h.25l.29.49c.06.1.1.18.12.23.03-.07.07-.14.12-.22l.32-.51h.22l-.55.9.59,1.01h-.25l-.39-.68s-.04-.08-.07-.13c-.04.07-.06.12-.08.14l-.39.66h-.25Z"/>
  </g>
  <g>
    <path d="m44.83,81.66l.6-.99-.53-.91h.25l.29.49c.06.1.1.18.12.23.03-.07.07-.14.12-.22l.32-.51h.22l-.55.9.59,1.01h-.25l-.39-.68s-.04-.08-.07-.13c-.04.07-.06.12-.08.14l-.39.66h-.25Z"/>
    <path d="m46.36,81.66l.6-.99-.53-.91h.25l.29.49c.06.1.1.18.12.23.03-.07.07-.14.12-.22l.32-.51h.22l-.55.9.59,1.01h-.25l-.39-.68s-.04-.08-.07-.13c-.04.07-.06.12-.08.14l-.39.66h-.25Z"/>
    <path d="m47.89,81.66l.6-.99-.53-.91h.25l.29.49c.06.1.1.18.12.23.03-.07.07-.14.12-.22l.32-.51h.22l-.55.9.59,1.01h-.25l-.39-.68s-.04-.08-.07-.13c-.04.07-.06.12-.08.14l-.39.66h-.25Z"/>
    <path d="m49.43,81.66l.6-.99-.53-.91h.25l.29.49c.06.1.1.18.12.23.03-.07.07-.14.12-.22l.32-.51h.22l-.55.9.59,1.01h-.25l-.39-.68s-.04-.08-.07-.13c-.04.07-.06.12-.08.14l-.39.66h-.25Z"/>
    <path d="m50.96,81.66l.6-.99-.53-.91h.25l.29.49c.06.1.1.18.12.23.03-.07.07-.14.12-.22l.32-.51h.22l-.55.9.59,1.01h-.25l-.39-.68s-.04-.08-.07-.13c-.04.07-.06.12-.08.14l-.39.66h-.25Z"/>
    <path d="m52.49,81.66l.6-.99-.53-.91h.25l.29.49c.06.1.1.18.12.23.03-.07.07-.14.12-.22l.32-.51h.22l-.55.9.59,1.01h-.25l-.39-.68s-.04-.08-.07-.13c-.04.07-.06.12-.08.14l-.39.66h-.25Z"/>
    <path d="m54.03,81.66l.6-.99-.53-.91h.25l.29.49c.06.1.1.18.12.23.03-.07.07-.14.12-.22l.32-.51h.22l-.55.9.59,1.01h-.25l-.39-.68s-.04-.08-.07-.13c-.04.07-.06.12-.08.14l-.39.66h-.25Z"/>
    <path d="m55.56,81.66l.6-.99-.53-.91h.25l.29.49c.06.1.1.18.12.23.03-.07.07-.14.12-.22l.32-.51h.22l-.55.9.59,1.01h-.25l-.39-.68s-.04-.08-.07-.13c-.04.07-.06.12-.08.14l-.39.66h-.25Z"/>
    <path d="m57.09,81.66l.6-.99-.53-.91h.25l.29.49c.06.1.1.18.12.23.03-.07.07-.14.12-.22l.32-.51h.22l-.55.9.59,1.01h-.25l-.39-.68s-.04-.08-.07-.13c-.04.07-.06.12-.08.14l-.39.66h-.25Z"/>
    <path d="m58.63,81.66l.6-.99-.53-.91h.25l.29.49c.06.1.1.18.12.23.03-.07.07-.14.12-.22l.32-.51h.22l-.55.9.59,1.01h-.25l-.39-.68s-.04-.08-.07-.13c-.04.07-.06.12-.08.14l-.39.66h-.25Z"/>
    <path d="m60.16,81.66l.6-.99-.53-.91h.25l.29.49c.06.1.1.18.12.23.03-.07.07-.14.12-.22l.32-.51h.22l-.55.9.59,1.01h-.25l-.39-.68s-.04-.08-.07-.13c-.04.07-.06.12-.08.14l-.39.66h-.25Z"/>
  </g>
  <g>
    <path d="m44.83,85.07l.6-.99-.53-.91h.25l.29.49c.06.1.1.18.12.23.03-.07.07-.14.12-.22l.32-.51h.22l-.55.9.59,1.01h-.25l-.39-.68s-.04-.08-.07-.13c-.04.07-.06.12-.08.14l-.39.66h-.25Z"/>
    <path d="m46.36,85.07l.6-.99-.53-.91h.25l.29.49c.06.1.1.18.12.23.03-.07.07-.14.12-.22l.32-.51h.22l-.55.9.59,1.01h-.25l-.39-.68s-.04-.08-.07-.13c-.04.07-.06.12-.08.14l-.39.66h-.25Z"/>
    <path d="m47.89,85.07l.6-.99-.53-.91h.25l.29.49c.06.1.1.18.12.23.03-.07.07-.14.12-.22l.32-.51h.22l-.55.9.59,1.01h-.25l-.39-.68s-.04-.08-.07-.13c-.04.07-.06.12-.08.14l-.39.66h-.25Z"/>
    <path d="m49.43,85.07l.6-.99-.53-.91h.25l.29.49c.06.1.1.18.12.23.03-.07.07-.14.12-.22l.32-.51h.22l-.55.9.59,1.01h-.25l-.39-.68s-.04-.08-.07-.13c-.04.07-.06.12-.08.14l-.39.66h-.25Z"/>
    <path d="m50.96,85.07l.6-.99-.53-.91h.25l.29.49c.06.1.1.18.12.23.03-.07.07-.14.12-.22l.32-.51h.22l-.55.9.59,1.01h-.25l-.39-.68s-.04-.08-.07-.13c-.04.07-.06.12-.08.14l-.39.66h-.25Z"/>
    <path d="m52.49,85.07l.6-.99-.53-.91h.25l.29.49c.06.1.1.18.12.23.03-.07.07-.14.12-.22l.32-.51h.22l-.55.9.59,1.01h-.25l-.39-.68s-.04-.08-.07-.13c-.04.07-.06.12-.08.14l-.39.66h-.25Z"/>
    <path d="m54.03,85.07l.6-.99-.53-.91h.25l.29.49c.06.1.1.18.12.23.03-.07.07-.14.12-.22l.32-.51h.22l-.55.9.59,1.01h-.25l-.39-.68s-.04-.08-.07-.13c-.04.07-.06.12-.08.14l-.39.66h-.25Z"/>
    <path d="m55.56,85.07l.6-.99-.53-.91h.25l.29.49c.06.1.1.18.12.23.03-.07.07-.14.12-.22l.32-.51h.22l-.55.9.59,1.01h-.25l-.39-.68s-.04-.08-.07-.13c-.04.07-.06.12-.08.14l-.39.66h-.25Z"/>
    <path d="m57.09,85.07l.6-.99-.53-.91h.25l.29.49c.06.1.1.18.12.23.03-.07.07-.14.12-.22l.32-.51h.22l-.55.9.59,1.01h-.25l-.39-.68s-.04-.08-.07-.13c-.04.07-.06.12-.08.14l-.39.66h-.25Z"/>
    <path d="m58.63,85.07l.6-.99-.53-.91h.25l.29.49c.06.1.1.18.12.23.03-.07.07-.14.12-.22l.32-.51h.22l-.55.9.59,1.01h-.25l-.39-.68s-.04-.08-.07-.13c-.04.07-.06.12-.08.14l-.39.66h-.25Z"/>
  </g>
  <g>
    <path class="cls-13" d="m44.9,74.86v-1.9h.66c.17,0,.29.02.36.05.07.03.13.09.18.18.05.08.07.19.07.3,0,.15-.04.27-.11.36-.07.09-.17.15-.3.17.07.05.12.1.17.16.04.06.1.16.18.31l.19.37h-.38l-.23-.41c-.08-.15-.14-.24-.17-.28-.03-.04-.06-.06-.09-.08-.03-.01-.09-.02-.16-.02h-.06v.79h-.31Zm.31-1.1h.23c.14,0,.23,0,.27-.02.04-.01.07-.04.09-.08s.04-.09.04-.15-.01-.11-.04-.15-.06-.06-.1-.08c-.03,0-.11-.01-.26-.01h-.25v.48Z"/>
    <path class="cls-13" d="m46.55,74.86v-1.9h1.16v.32h-.84v.42h.78v.32h-.78v.52h.87v.32h-1.19Z"/>
    <path class="cls-13" d="m48.08,74.86v-1.9h.47l.28,1.3.28-1.3h.47v1.9h-.29v-1.5l-.31,1.5h-.3l-.31-1.5v1.5h-.29Z"/>
    <path class="cls-13" d="m51.39,74.86h-.34l-.14-.43h-.62l-.13.43h-.33l.61-1.9h.33l.62,1.9Zm-.58-.75l-.22-.71-.21.71h.43Z"/>
    <path class="cls-13" d="m51.64,74.86v-1.9h.66c.17,0,.29.02.36.05.07.03.13.09.18.18.05.08.07.19.07.3,0,.15-.04.27-.11.36-.07.09-.17.15-.3.17.07.05.12.1.17.16.04.06.1.16.18.31l.19.37h-.38l-.23-.41c-.08-.15-.14-.24-.17-.28-.03-.04-.06-.06-.09-.08-.03-.01-.09-.02-.16-.02h-.06v.79h-.31Zm.31-1.1h.23c.14,0,.23,0,.27-.02.04-.01.07-.04.09-.08s.04-.09.04-.15-.01-.11-.04-.15-.06-.06-.1-.08c-.03,0-.11-.01-.26-.01h-.25v.48Z"/>
    <path class="cls-13" d="m54.54,74.62c.08.07.16.12.25.16l-.12.27s-.09-.04-.14-.07c-.01,0-.08-.06-.21-.17-.1.05-.22.08-.35.08-.22,0-.41-.08-.55-.25-.14-.17-.21-.41-.21-.73s.07-.56.21-.73c.14-.17.32-.25.55-.25s.41.08.55.25c.14.17.21.41.21.73,0,.15-.02.29-.05.4-.03.11-.08.22-.15.31Zm-.25-.22c.08-.11.12-.28.12-.49s-.04-.39-.12-.5-.18-.16-.31-.16-.23.05-.31.16c-.08.11-.12.27-.12.49s.04.39.12.5.18.16.3.16c.04,0,.09,0,.13-.03-.07-.05-.13-.09-.19-.12l.09-.22c.1.04.2.11.3.19Z"/>
    <path class="cls-13" d="m55.06,72.96h.31v1.03c0,.16,0,.26.01.31.01.08.05.15.1.19s.12.07.21.07c.07,0,.13-.02.18-.05.05-.03.08-.08.09-.13s.03-.18.03-.37v-1.05h.31v1c0,.26-.01.44-.04.55-.03.11-.09.21-.18.28-.1.07-.22.11-.38.11s-.29-.03-.38-.09-.16-.14-.2-.25-.06-.3-.06-.59v-1.02Z"/>
    <path class="cls-13" d="m56.72,74.86v-1.9h1.16v.32h-.84v.42h.78v.32h-.78v.52h.87v.32h-1.19Z"/>
    <path class="cls-13" d="m58.17,74.24l.31-.04c.03.24.15.36.34.36.1,0,.17-.02.22-.07.05-.05.08-.11.08-.19,0-.04,0-.08-.03-.11s-.05-.06-.09-.07c-.04-.02-.13-.05-.28-.1-.13-.04-.23-.08-.29-.13-.06-.05-.11-.11-.15-.19-.04-.08-.06-.16-.06-.25,0-.1.02-.2.07-.28s.11-.15.2-.19.19-.06.31-.06c.18,0,.33.05.43.15.1.1.16.24.16.43l-.32.02c-.01-.1-.04-.17-.09-.21-.05-.04-.11-.06-.2-.06s-.15.02-.2.05c-.05.04-.07.08-.07.13s.02.1.06.13c.04.04.14.07.29.12.16.05.27.09.34.15.07.05.12.12.16.2s.06.18.06.29c0,.17-.05.3-.15.42s-.26.17-.48.17c-.38,0-.6-.22-.64-.65Z"/>
    <path class="cls-13" d="m60.39,73.85v-.36h.3v.36h-.3Zm0,1.01v-.36h.3v.36h-.3Z"/>
  </g>
  <g>
    <path class="cls-12" d="m84.71,88.56l.29-.03c.03.23.14.34.32.34.09,0,.16-.02.21-.07.05-.05.08-.1.08-.17,0-.04,0-.07-.03-.1-.02-.03-.04-.05-.08-.07-.04-.02-.12-.05-.26-.09-.12-.04-.22-.08-.27-.12s-.1-.1-.14-.18-.05-.15-.05-.23c0-.1.02-.18.07-.26.04-.08.1-.14.18-.18s.17-.06.29-.06c.17,0,.3.05.4.14s.15.23.15.4l-.29.02c-.01-.1-.04-.16-.08-.2-.04-.04-.1-.06-.18-.06s-.14.02-.18.05c-.04.03-.06.07-.06.12s.02.09.06.12c.04.03.13.07.27.11.15.04.25.09.32.14s.12.11.15.18.05.17.05.27c0,.15-.05.28-.14.39-.1.1-.24.16-.45.16-.36,0-.56-.2-.6-.61Z"/>
    <path class="cls-12" d="m86.21,89.14v-1.78h.29v1.78h-.29Z"/>
    <path class="cls-12" d="m87.54,88.49v-.3h.63v.71c-.06.08-.15.14-.27.19s-.23.08-.35.08c-.14,0-.27-.04-.38-.11s-.2-.18-.26-.32c-.06-.14-.1-.31-.1-.5s.03-.36.1-.5c.06-.14.15-.24.25-.31.1-.07.23-.1.37-.1.17,0,.31.04.42.13.1.09.17.22.2.39l-.29.07c-.02-.09-.06-.16-.12-.21-.06-.05-.13-.07-.21-.07-.12,0-.23.05-.3.15-.08.1-.12.25-.12.45,0,.21.04.38.13.49.07.1.17.14.29.14.06,0,.12-.01.18-.04.06-.03.12-.06.17-.11v-.22h-.34Z"/>
    <path class="cls-12" d="m88.52,89.14v-1.78h.29l.6,1.19v-1.19h.27v1.78h-.3l-.59-1.16v1.16h-.27Z"/>
    <path class="cls-12" d="m91.37,89.14h-.32l-.13-.4h-.58l-.12.4h-.31l.57-1.78h.31l.58,1.78Zm-.54-.7l-.2-.66-.2.66h.4Z"/>
    <path class="cls-12" d="m91.78,89.14v-1.48h-.43v-.3h1.16v.3h-.43v1.48h-.29Z"/>
    <path class="cls-12" d="m92.77,87.36h.29v.96c0,.15,0,.25.01.29.01.08.04.14.09.18.05.04.11.06.19.06.07,0,.12-.02.17-.05s.07-.07.09-.13.02-.17.02-.35v-.98h.29v.93c0,.24-.01.41-.04.52-.03.11-.08.19-.17.26-.09.07-.21.1-.35.1s-.27-.03-.36-.08c-.08-.05-.15-.13-.19-.23-.04-.1-.06-.28-.06-.55v-.95Z"/>
    <path class="cls-12" d="m94.31,89.14v-1.78h.62c.16,0,.27.02.34.05s.12.09.17.17c.04.08.07.17.07.28,0,.14-.03.25-.1.34-.07.08-.16.14-.28.16.06.04.11.09.16.15.04.05.1.15.17.29l.18.35h-.35l-.21-.39c-.08-.14-.13-.23-.16-.26s-.06-.06-.09-.07c-.03-.01-.08-.02-.15-.02h-.06v.74h-.29Zm.29-1.02h.22c.13,0,.22,0,.25-.02.04-.01.07-.04.09-.07.02-.04.03-.08.03-.14s-.01-.1-.03-.14c-.02-.03-.05-.06-.09-.07-.03,0-.11-.01-.24-.01h-.23v.45Z"/>
    <path class="cls-12" d="m95.86,89.14v-1.78h1.08v.3h-.79v.39h.73v.3h-.73v.48h.81v.3h-1.11Z"/>
    <path class="cls-12" d="m97.93,87.36h.54c.14,0,.24.02.31.05.07.03.13.08.19.15s.1.17.14.28.05.26.05.43c0,.15-.02.29-.05.4-.03.11-.08.2-.13.27-.05.07-.12.12-.19.15-.08.03-.17.05-.29.05h-.55v-1.78Zm.29.3v1.18h.22c.09,0,.16,0,.21-.03.04-.02.08-.04.1-.08.03-.04.05-.09.07-.17.02-.08.03-.18.03-.31s0-.24-.03-.31c-.02-.08-.05-.14-.08-.18-.04-.04-.08-.07-.14-.09-.04-.01-.12-.02-.24-.02h-.13Z"/>
    <path class="cls-12" d="m99.47,89.14v-1.78h1.08v.3h-.79v.39h.73v.3h-.73v.48h.81v.3h-1.11Z"/>
    <path class="cls-12" d="m101.55,89.14v-1.76h.29v1.46h.73v.3h-1.02Z"/>
    <path class="cls-12" d="m102.74,87.36h.28v.24c0,.14-.02.24-.05.31-.04.08-.11.14-.2.19l-.05-.14c.06-.02.09-.05.12-.09.02-.04.04-.09.04-.16h-.13v-.34Z"/>
    <path class="cls-12" d="m104.7,89.14h-.32l-.13-.4h-.58l-.12.4h-.31l.57-1.78h.31l.58,1.78Zm-.54-.7l-.2-.66-.2.66h.4Z"/>
    <path class="cls-12" d="m104.93,87.36h.29v.96c0,.15,0,.25.01.29.01.08.04.14.09.18.05.04.11.06.19.06.07,0,.12-.02.17-.05s.07-.07.09-.13.02-.17.02-.35v-.98h.29v.93c0,.24-.01.41-.04.52-.03.11-.08.19-.17.26-.09.07-.21.1-.35.1s-.27-.03-.36-.08c-.08-.05-.15-.13-.19-.23-.04-.1-.06-.28-.06-.55v-.95Z"/>
    <path class="cls-12" d="m106.8,89.14v-1.48h-.43v-.3h1.16v.3h-.43v1.48h-.29Z"/>
    <path class="cls-12" d="m107.7,88.26c0-.21.03-.39.09-.52.06-.14.14-.24.25-.31.1-.07.22-.1.37-.1.21,0,.38.08.51.24.13.16.2.39.2.68s-.07.53-.21.7c-.12.15-.29.22-.5.22s-.38-.07-.5-.22c-.14-.17-.21-.4-.21-.69Zm.3-.01c0,.2.04.36.12.46.08.1.17.15.29.15s.21-.05.29-.15.11-.26.11-.47-.04-.36-.11-.46c-.07-.1-.17-.15-.29-.15s-.22.05-.29.15c-.08.1-.11.25-.11.46Z"/>
    <path class="cls-12" d="m109.41,89.14v-1.78h.62c.16,0,.27.02.34.05s.12.09.17.17c.04.08.07.17.07.28,0,.14-.03.25-.1.34-.07.08-.16.14-.28.16.06.04.11.09.16.15.04.05.1.15.17.29l.18.35h-.35l-.21-.39c-.08-.14-.13-.23-.16-.26s-.06-.06-.09-.07c-.03-.01-.08-.02-.15-.02h-.06v.74h-.29Zm.29-1.02h.22c.13,0,.22,0,.25-.02.04-.01.07-.04.09-.07.02-.04.03-.08.03-.14s-.01-.1-.03-.14c-.02-.03-.05-.06-.09-.07-.03,0-.11-.01-.24-.01h-.23v.45Z"/>
    <path class="cls-12" d="m110.95,89.14v-1.78h.29v1.78h-.29Z"/>
    <path class="cls-12" d="m111.92,89.14v-1.48h-.43v-.3h1.16v.3h-.43v1.48h-.29Z"/>
    <path class="cls-12" d="m112.92,89.14v-1.78h1.08v.3h-.79v.39h.73v.3h-.73v.48h.81v.3h-1.11Zm.37-1.89l.14-.36h.31l-.27.36h-.18Z"/>
  </g>
  <path class="cls-15" d="m95.91,27.43v6.88H11.69v-3.94c.38-1.7,1.89-2.97,3.7-2.97h80.49s.03.01.03.03Z"/>
  <path class="cls-4" d="m90.2,76.94s1.93,8.02-1.04,6.68c-2.97-1.34-2.67-3.71-1.19-4.01s4.61,2.97,6.83,2.08c2.23-.89,4.01-3.57,2.53-4.16s-.59,4.75,1.63,4.61-8.62-4.01-15.45-3.12"/>
  <g>
    <path class="cls-11" d="m48.18,29.39h-.66v-.59h1.97v.59h-.67v3.55h-.64v-3.55Z"/>
    <path class="cls-11" d="m50.66,28.8v4.14h-.64v-4.14h.64Z"/>
    <path class="cls-11" d="m51.87,29.39h-.66v-.59h1.97v.59h-.67v3.55h-.64v-3.55Z"/>
    <path class="cls-11" d="m54.35,31.09v1.85h-.64v-4.14h.88c.63,0,1,.25,1,1v.16c0,.64-.26.8-.42.86.24.11.38.29.38.85,0,.35,0,1.02.04,1.27h-.62c-.05-.25-.04-.93-.04-1.23,0-.5-.06-.62-.44-.62h-.15Zm0-.53h.15c.34,0,.46-.13.46-.58v-.14c0-.32-.07-.51-.43-.51h-.18v1.23Z"/>
    <path class="cls-11" d="m57.86,31.05h-.91v1.3h1.05l-.08.59h-1.61v-4.14h1.6v.59h-.96v1.07h.91v.59Z"/>
    <path class="cls-11" d="m60.1,28.8h.89c.88,0,1.09.45,1.09,1.22v1.59c0,.63-.11,1.33-1.09,1.33h-.88v-4.14Zm.64,3.59h.2c.42,0,.48-.27.48-.7v-1.72c0-.38-.07-.62-.49-.62h-.2v3.05Z"/>
    <path class="cls-11" d="m64.35,31.05h-.91v1.3h1.05l-.08.59h-1.61v-4.14h1.6v.59h-.96v1.07h.91v.59Z"/>
    <path class="cls-11" d="m67.02,31.72v.26c0,.31.09.48.33.48s.31-.24.31-.5c0-.44-.1-.58-.54-.93-.45-.35-.68-.58-.68-1.19,0-.55.17-1.1.91-1.1.76,0,.88.54.88.99v.22h-.63v-.2c0-.29-.05-.46-.26-.46s-.26.18-.26.45c0,.29.06.44.42.7.62.46.81.72.81,1.42,0,.59-.21,1.14-.98,1.14s-.95-.49-.95-1.03v-.25h.64Z"/>
    <path class="cls-11" d="m70.5,31.05h-.91v1.3h1.05l-.08.59h-1.61v-4.14h1.6v.59h-.96v1.07h.91v.59Zm.31-3.13l-.79.63h-.6l.6-.63h.79Z"/>
    <path class="cls-11" d="m72.26,31.99c0,.55-.07.99-.81.99-.09,0-.22-.01-.32-.03v-.54c.05,0,.11.01.19.01.22,0,.3-.06.3-.36v-3.27h.64v3.19Z"/>
    <path class="cls-11" d="m74.99,29.9v1.93c0,.79-.34,1.17-1.04,1.17s-.98-.38-.98-1.16v-1.95c0-.79.4-1.15,1.02-1.15s1,.36,1,1.16Zm-1.36-.06v2.08c0,.34.12.51.35.51.25,0,.36-.15.36-.51v-2.08c0-.33-.1-.51-.36-.51-.23,0-.35.16-.35.51Z"/>
    <path class="cls-11" d="m76.33,28.8v3.15c0,.3.1.47.35.47s.33-.19.33-.47v-3.15h.64v3.14c0,.65-.29,1.06-.99,1.06s-.97-.36-.97-1.06v-3.14h.64Z"/>
    <path class="cls-11" d="m79.07,31.09v1.85h-.64v-4.14h.88c.63,0,1,.25,1,1v.16c0,.64-.26.8-.42.86.24.11.38.29.38.85,0,.35,0,1.02.04,1.27h-.62c-.05-.25-.04-.93-.04-1.23,0-.5-.06-.62-.44-.62h-.15Zm0-.53h.15c.34,0,.46-.13.46-.58v-.14c0-.32-.07-.51-.43-.51h-.18v1.23Z"/>
  </g>
  <path class="cls-11" d="m53.21,95.1c-6.08,1.19-11.2,1.27-22.77-.08-10.87-1.28-18.89.08-18.89.08l.1,1.75,3.75,3.74,37.81-1.06v-4.43s7.48-1.99,18.89-.08c11.49,1.92,15.07,1.94,22.77,0,5.48-1.38,15.7-1.37,21.58.43l-.06,1.35-3.79,3.79-59.4-1.06"/>
  <g>
    <path class="cls-14" d="m44.37,31.14v2.46h-9.11v-2.46h3.17c.14.64.71,1.12,1.39,1.12s1.25-.48,1.39-1.12h3.17Z"/>
    <path class="cls-14" d="m44.37,27.97v2.47h-3.19c-.17-.59-.72-1.03-1.36-1.03s-1.19.43-1.36,1.03h-3.19v-2.47h9.11Z"/>
    <path class="cls-9" d="m40.53,30.83c0,.11-.02.21-.07.3-.11.25-.37.42-.66.42s-.54-.17-.66-.42c-.04-.09-.07-.19-.07-.3,0-.14.04-.28.12-.39.13-.2.35-.33.61-.33s.48.13.61.33c.07.11.12.25.12.39Z"/>
  </g>
  <polygon class="cls-8" points="24.65 33.97 24.65 27.89 29.19 27.89 29.19 29.37 26.64 29.37 26.64 30.2 29.19 30.2 29.19 31.67 26.64 31.67 26.64 33.97 24.65 33.97"/>
  <path class="cls-5" d="m29.11,94.94c-3.47.74-6.49-2.61-6.49-2.61l.41-5.86.04-.66,9.07-1.75.24,1.88.76,6.38c-.04.12-.07.25-.12.35-.03.07-.04.15-.07.21-.02.03-.02.06-.03.09,0,0-1.39,1.46-3.82,1.98Z"/>
  <path class="cls-6" d="m26.33,60.68s0,1.69-.61,2.83h-.02"/>
  <path class="cls-6" d="m23.05,64.23c-1.34-.77-2.24-2.73-2.24-2.73"/>
  <path class="cls-6" d="m18.82,79.76h-.02c-.16-.03-1.26-.32-1.9-2.05-.7-1.87-1.5-1.65-1.57-3.59-.05-1.83,1.84-1.04,2.05-.93"/>
  <path class="cls-1" d="m34.3,63.08s-1.31.78-2.77,1.04"/>
  <path class="cls-5" d="m20.29,65.06c.83.04,1.8-.15,2.77-.83.4.25.83.37,1.29.32.64-.07,1.07-.5,1.37-1.03.02.01.03.03.05.03.18.17,1.34,1.19,2.77-.2.75.9,1.92.99,3.01.78.65.5,1.54.45,1.54.45.05.07.12.16.16.23,2.68,3.78,2.94,6.34,2.96,6.62.16-.67.28-1.31.37-1.92-.14,1.13-.36,1.95-.41,2.12v.02s-.01.03-.01.03h.01c.04,1.07.05,3.84-.39,6.71-.37,2.38-1.09,4.84-2.4,6.42-3.02,3.68-4.99,3.76-5.28,3.73-.3.07-2.37.38-5.94-2.8-1.54-1.36-2.62-3.67-3.35-5.97-.88-2.76-1.29-5.5-1.42-6.57h.01c-.02-.12-.03-.24-.03-.38.04.1.07.16.07.16-.03-.44-.04-.89-.02-1.32.29-2.22,2.32-5.9,2.56-6.54l.3-.06Z"/>
  <path class="cls-1" d="m17.43,71.65c-.06.42-.08.81-.05,1.16"/>
  <path class="cls-6" d="m17.41,73.19s0-.02-.02-.03v-.02c-.09-.21-.58-1.29-.91-2.78v-.05c-.66-2.96-.69-7.44,4.24-9.44,0,0,.31-1.62,2.39-1.37,0,0,2.41-2.63,5.32-.47,2.02-.57,2.57.99,2.57.99,5.56,1.31,5.92,6.33,5.6,9.32-.01.06-.02.11-.02.16"/>
  <path class="cls-6" d="m33.29,65.11s2.86,4.16,2.86,6.56"/>
  <path class="cls-1" d="m17.34,72.73v.02s.02.18.05.4v.02s0,.03,0,.03"/>
  <path class="cls-1" d="m36.17,71.68v-.03"/>
  <path class="cls-1" d="m36.15,71.22s.01.15.02.41"/>
  <path class="cls-6" d="m35.76,78.38h.02c.15-.06,1.19-.51,1.56-2.32.4-1.95,1.23-1.86,1-3.79-.23-1.81-1.98-.74-2.17-.6"/>
  <path class="cls-6" d="m29.7,61.7c-.36.67-.72,1.18-1.07,1.53-.04.05-.07.1-.11.12"/>
  <path class="cls-1" d="m25.75,63.54l-.03-.03"/>
  <path class="cls-5" d="m27.68,71.44s.64,5.76,1.9,8.65c0,0-.24.59-2.12.23"/>
  <ellipse class="cls-5" cx="23.82" cy="74.19" rx=".2" ry=".58" transform="translate(-5.65 2.06) rotate(-4.42)"/>
  <ellipse class="cls-5" cx="31.75" cy="73.43" rx=".2" ry=".58" transform="translate(-5.57 2.67) rotate(-4.42)"/>
  <path class="cls-2" d="m42.56,93.11s-6.59-.54-9.41-.8"/>
  <path class="cls-2" d="m22.55,92.33s-8.64,1.47-11.01,1.47"/>
  <rect class="cls-7" x="-581.16" y="-536.83" width="1509.9" height="999.05"/>
</svg>