<?xml version="1.0" encoding="UTF-8"?>
<svg id="Calque_1" data-name="Calque 1" xmlns="http://www.w3.org/2000/svg" viewBox="0 0 128 128">
  <defs>
    <style>
      .cls-1 {
        fill: #76ac75;
      }

      .cls-1, .cls-2, .cls-3, .cls-4 {
        stroke: #000;
      }

      .cls-1, .cls-2, .cls-3, .cls-5 {
        stroke-linecap: round;
        stroke-linejoin: round;
      }

      .cls-2 {
        fill: #ff6d75;
      }

      .cls-3, .cls-5 {
        fill: none;
      }

      .cls-4 {
        fill: #fab0b4;
        stroke-miterlimit: 10;
        stroke-width: .5px;
      }

      .cls-5 {
        stroke: #fff;
        stroke-width: 8px;
      }
    </style>
  </defs>
  <path class="cls-1" d="m116.81,61.98c0,.24-1.09,2.15-1.62,3-.52.85-3.28,1.74-4.58,1.74s-2.18-.85-3.36-1.34c-1.17-.48-2.75-.73-2.75-.73,0,0,.81,2.39.85,3.28.02.51-.24,2.09-.47,3.36-1.1-.88-2.17-1.57-3.12-2.11-.03-.6-.11-1.26-.3-1.53-.32-.45-.41-1.13-.57-1.66-.16-.53-1.3-1.26-1.99-1.26s-1.01.69-1.62,1.1c-.23.15-.39.64-.49,1.18-1.26-.4-2.48-.69-3.65-.88.15-.46.31-.88.42-1.07.32-.57,1.21-.89,1.33-1.06.13-.16.25-1.29,0-1.62-.24-.32-2.35-1.86-3.93-1.5-.72.17-1.57.18-2.36.08h-.01c-.95-.11-1.82-.36-2.29-.64-.85-.53,1.34-.12,1.99-.37.65-.24,1.46-.89,2.51-1.25.39-.14,1.48-.29,2.68-.41,1.03.32,1.92.61,2.18.66.22.04.52.44.82.96.58,1.02,1.17,2.47,1.17,2.47,0,0,1.19.81,2.27.68,1.08-.14,1.9-1.59,1.9-1.59,0,0-.41-.98-.83-1.81-.2-.41-.41-.78-.56-.98-.2-.25-.73-.9-1.33-1.58.18-.09.35-.16.49-.19.61-.12,1.42.08,2.19.08s1.5-.64,1.87-1.05c.36-.4.85-1.3,1.25-2.19.41-.89,3.61-2.43,3.2-1.94-.4.48-2.31,3.52-2.43,4.21-.08.47,0,.96.15,1.57.06.28.14.59.22.94.24,1.1-.94,3.29-.94,3.29,0,0,1.1,0,1.83-.17.73-.16,2.31,0,2.95,0s2.07.65,3.12.85c1.06.21,3.81-.77,3.81-.52Z"/>
  <path class="cls-1" d="m49.4,77.49c-1.16.45-2.23.29-4.17,0-1.19-.19-1.79-.28-2.54-.67-.82-.42-1.05-.81-1.78-.91-1.04-.15-1.86.45-1.93.51-.92.69-1.05,1.77-1.12,2.39-.03.21-.09.86.25,2.29.38,1.55.72,1.85.97,2.79.57,2.15-.18,4.46-.66,4.48-.32,0-.32-.99-1.33-2.85-.51-.95-1-1.85-1.93-2.8-.6-.61-.95-.8-1.32-1.47-.2-.36-.59-1.08-.51-1.93.14-1.37,1.38-1.91,1.12-2.6-.15-.4-.69-.53-1.22-.66-1.34-.32-2.52.2-2.85.36-.83.38-.71.6-2.03,1.32-.78.42-1.29.6-1.48.66-.53.18-1.03.28-1.68.36-1.16.14-3.16.38-3.3-.05-.13-.4,1.5-.74,3.05-2.5.77-.87.64-1.09,1.88-2.59,1.12-1.35,1.67-1.71,2.29-1.83.78-.15,1.42.15,1.47,0,.08-.19-1.14-.45-1.88-1.48-.34-.47-.46-1.28-.71-2.89-.25-1.67-.18-2.01-.56-2.6-.48-.76-.88-.63-1.22-1.32-.18-.36-.24-.73-.21-1.16v-.08c.03-.42.14-.89.26-1.46.3-1.35.81-2.53.97-2.49.16.05-.44,1.36.2,2.44.25.43.52.52.84.74.18.12.37.27.59.53.45.56.4.85.91,2.29.04.11.08.22.11.32.45,1.24.69,1.89,1.11,2.33.52.55,1.11.82,2.29,1.37.49.23.95.44,1.58.61.15.04.35.1.59.15-.4,1.58-.69,3.44-.69,3.44,0,0,1.99.73,2.79.51.79-.22,1.52-1.43,1.52-1.43,0,0-.33-1.26-.26-2.06.02-.33.31-.83.66-1.35.41-.3.88-.6,1.69-.78,1.18-.27,1.38.09,2.24-.31,1.1-.52.98-1.21,2.09-1.78.69-.35.76-.1,2.64-.51,1.38-.3,1.89-.56,2.04-.35.18.27-.45,1.12-1.12,1.67-.81.67-1.17.48-1.99,1.12-.84.67-.61.98-1.42,1.63-.92.74-1.35.45-2.24,1.17-.1.08-1.44,1.2-1.17,1.98.21.61,1.17.41,2.7,1.17,1.31.66,1.22,1.11,2.13,1.53,2.24,1.03,4.59-.85,4.99-.26.32.49-.89,2.32-2.65,3.01Z"/>
  <path class="cls-3" d="m26,62.26v.08s-.04-.03-.06-.05l.06-.03Z"/>
  <path class="cls-1" d="m99.92,73.45c.08.29-.99.91-2.02,1.26-1.78.63-3.48.5-3.95.45-1.7-.16-2.21-.64-2.83-.22-.66.44-.99,1.56-.6,2.31.28.54.86.75,1.05.82.8.3,1.2-.09,1.79.15.69.28.93,1.15,1.11,1.79.5,1.76.07,3.63-.29,3.65-.27,0-.23-.98-1.12-2.09-.55-.68-1.15-1.05-1.64-1.34-1.57-.94-2.09-.5-2.98-1.27-1.07-.91-.76-1.9-1.57-2.16-.77-.24-1.67.47-2.68,1.27-.74.58-.75.75-1.57,1.5-.06.07-.14.14-.22.21-1.44,1.28-1.68,1.12-2.02,1.72-.79,1.43.12,3.23-.22,3.35-.18.07-.54-.4-.75-.82-.62-1.23-.27-2.54,0-3.57.34-1.25.57-2.12,1.35-2.84.24-.22.63-.52,1.19-.94.22-.16.47-.35.74-.55.57-.42.93-.67.9-.97-.01-.1-.09-.35-.97-.67-.27-.1-.56-.2-.88-.29-.69-.19-1.49-.3-2.33-.01-1.15.4-1,1.08-2.23,1.64-1.32.61-2.86.46-2.98.08-.1-.3.71-.57,1.93-1.79,1.04-1.03.88-1.24,1.5-1.72,1.23-.95,2.93-1.44,4.18-1.38.04,0,.08,0,.12.01,1.22.09,1.8.61,2.48.79h0c.32,1.43.45,2.63.45,2.63,0,0,1.32.53,2.19.34.87-.2,1.85-1.06,1.85-1.06,0,0-1.1-2.63-1.93-4.54.01-.37.04-.76.12-1.18.21-1.09.89-1.87,1.22-2.2.06-.05.1-.09.13-.12.81-.74,1.22-.5,1.86-1.19.92-.99.84-2.31,1.04-2.31.16.01.18.77.3,1.94.11,1,.2,1.51.27,1.84.09.42.14.53.1.92-.12,1.36-.82,1.52-1.26,3.5-.15.64-.39,1.71,0,1.94.4.24.95-.76,2.23-.9.92-.1,1.74.29,2.39.6.77.37.72.52,1.34.82,1.64.8,3.11.26,3.21.6Z"/>
  <g>
    <path class="cls-2" d="m113.5,90.21c-.94,8.5-7.7,13.43-9.48,14.73-9.62,7.01-25.33,7.63-34.57-1.02-.78-.73-4.88-4.69-6.54-10.55,1.85-5.39,1.41-10.31,1.29-11.48-.03-.27-.08-.68-.16-1.21,1.71-3.51,4.2-5.93,5.55-7.25.9-.86,4.76-4.49,11.1-6.38h.01c.5.17.99.35,1.44.51.19.07.37.19.54.34.84.76,1.39,2.45,1.73,3.92-.68-.18-1.26-.7-2.48-.79-.04-.01-.08-.01-.12-.01-1.25-.06-2.95.43-4.18,1.38-.62.48-.46.69-1.5,1.72-1.22,1.22-2.03,1.49-1.93,1.79.12.38,1.66.53,2.98-.08,1.23-.56,1.08-1.24,2.23-1.64.84-.29,1.64-.18,2.33.01.32.09.61.19.88.29.88.32.96.57.97.67.03.3-.33.55-.9.97-.27.2-.52.39-.74.55-.56.42-.95.72-1.19.94-.78.72-1.01,1.59-1.35,2.84-.27,1.03-.62,2.34,0,3.57.21.42.57.89.75.82.34-.12-.57-1.92.22-3.35.34-.6.58-.44,2.02-1.72.08-.07.16-.14.22-.21.82-.75.83-.92,1.57-1.5,1.01-.8,1.91-1.51,2.68-1.27.81.26.5,1.25,1.57,2.16.89.77,1.41.33,2.98,1.27.49.29,1.09.66,1.64,1.34.89,1.11.85,2.09,1.12,2.09.36-.02.79-1.89.29-3.65-.18-.64-.42-1.51-1.11-1.79-.59-.24-.99.15-1.79-.15-.19-.07-.77-.28-1.05-.82-.39-.75-.06-1.87.6-2.31.62-.42,1.13.06,2.83.22.47.05,2.17.18,3.95-.45,1.03-.35,2.1-.97,2.02-1.26-.1-.34-1.57.2-3.21-.6-.62-.3-.57-.45-1.34-.82-.65-.31-1.47-.7-2.39-.6-1.28.14-1.83,1.14-2.23.9-.39-.23-.15-1.3,0-1.94.44-1.98,1.14-2.14,1.26-3.5.04-.39-.01-.5-.1-.92.4.04.81.1,1.23.16,1.17.19,2.39.48,3.65.88.65.21,1.31.45,1.98.73.66.28,1.73.73,2.99,1.44.95.54,2.02,1.23,3.12,2.11,1.48,1.17,3.01,2.68,4.39,4.62.93,1.31,3.75,5.29,4.25,10.72.11,1.13.12,2.33-.02,3.58Z"/>
    <path class="cls-2" d="m88.31,65.81c-.33.33-1.01,1.11-1.22,2.2-.08.42-.11.81-.12,1.18-.39-.91-.73-1.65-.86-1.89-.15-.27-.6-.72-1.14-1.21.95-.13,2.08-.25,3.34-.28Z"/>
  </g>
  <g>
    <path class="cls-2" d="m94.89,64c-.12.17-1.01.49-1.33,1.06-.11.19-.27.61-.42,1.07-.42-.06-.83-.12-1.23-.16-.07-.33-.16-.84-.27-1.84-.12-1.17-.14-1.93-.3-1.94-.2,0-.12,1.32-1.04,2.31-.64.69-1.05.45-1.86,1.19-.03.03-.07.07-.13.12-1.26.03-2.39.15-3.34.28-.33-.3-.68-.61-1.03-.89.41-.67.89-1.29,1.41-1.83,1.04-1.08,2.18-1.86,3.24-2.41h.01c.79.1,1.64.09,2.36-.08,1.58-.36,3.69,1.18,3.93,1.5.25.33.13,1.46,0,1.62Z"/>
    <path class="cls-2" d="m101.76,69.18c-1.26-.71-2.33-1.16-2.99-1.44-.67-.28-1.33-.52-1.98-.73.1-.54.26-1.03.49-1.18.61-.41.94-1.1,1.62-1.1s1.83.73,1.99,1.26c.16.53.25,1.21.57,1.66.19.27.27.93.3,1.53Z"/>
    <path class="cls-2" d="m118.02,82.91c-1.42,1.7-3,2.88-4.5,3.72-.5-5.43-3.32-9.41-4.25-10.72-1.38-1.94-2.91-3.45-4.39-4.62.23-1.27.49-2.85.47-3.36-.04-.89-.85-3.28-.85-3.28,0,0,1.58.25,2.75.73,1.18.49,2.07,1.34,3.36,1.34s4.06-.89,4.58-1.74c.53-.85,1.62-2.76,1.62-3s-2.75.73-3.81.52c-1.05-.2-2.47-.85-3.12-.85s-2.22-.16-2.95,0c-.73.17-1.83.17-1.83.17,0,0,1.18-2.19.94-3.29-.08-.35-.16-.66-.22-.94.97-.39,2.05-.66,3.45-.64,4.73.07,8.09,3.4,8.75,4.08,3.13,3.24,3.59,7.07,3.79,8.76.12.99.82,7.61-3.79,13.12Z"/>
  </g>
  <path class="cls-3" d="m26,62.26v.08s-.04-.03-.06-.05l.06-.03Z"/>
  <g>
    <path class="cls-2" d="m36.84,65.75c-.28.57-.55,1.07-.75,1.42-.22.38-.45,1.11-.64,1.92-.24-.05-.44-.11-.59-.15-.63-.17-1.09-.38-1.58-.61-1.18-.55-1.77-.82-2.29-1.37-.42-.44-.66-1.09-1.11-2.33-.03-.1-.07-.21-.11-.32-.51-1.44-.46-1.73-.91-2.29-.22-.26-.41-.41-.59-.53,1.35-.41,2.58-.68,3.55-.89,1.87-.41,3.6-.62,5.08-.71.65,1.14,1.07,2.02,1.11,2.3.09.69-.55,2.28-1.17,3.56Z"/>
    <path class="cls-2" d="m62.91,93.37c-1.01,2.98-2.72,6.09-5.57,8.8-10.16,9.65-25,4.72-26.4,4.23-1.09-.39-15.98-5.88-18.09-20.13-1-6.82,1.02-14.9,6.57-19.99,2.07-1.9,4.36-3.15,6.52-3.99.02.02.04.03.06.05-.03.43.03.8.21,1.16.34.69.74.56,1.22,1.32.38.59.31.93.56,2.6.25,1.61.37,2.42.71,2.89.74,1.03,1.96,1.29,1.88,1.48-.05.15-.69-.15-1.47,0-.62.12-1.17.48-2.29,1.83-1.24,1.5-1.11,1.72-1.88,2.59-1.55,1.76-3.18,2.1-3.05,2.5.14.43,2.14.19,3.3.05.65-.08,1.15-.18,1.68-.36.19-.06.7-.24,1.48-.66,1.32-.72,1.2-.94,2.03-1.32.33-.16,1.51-.68,2.85-.36.53.13,1.07.26,1.22.66.26.69-.98,1.23-1.12,2.6-.08.85.31,1.57.51,1.93.37.67.72.86,1.32,1.47.93.95,1.42,1.85,1.93,2.8,1.01,1.86,1.01,2.85,1.33,2.85.48-.02,1.23-2.33.66-4.48-.25-.94-.59-1.24-.97-2.79-.34-1.43-.28-2.08-.25-2.29.07-.62.2-1.7,1.12-2.39.07-.06.89-.66,1.93-.51.73.1.96.49,1.78.91.75.39,1.35.48,2.54.67,1.94.29,3.01.45,4.17,0,1.76-.69,2.97-2.52,2.65-3.01-.4-.59-2.75,1.29-4.99.26-.91-.42-.82-.87-2.13-1.53-1.53-.76-2.49-.56-2.7-1.17-.27-.78,1.07-1.9,1.17-1.98.89-.72,1.32-.43,2.24-1.17.81-.65.58-.96,1.42-1.63.82-.64,1.18-.45,1.99-1.12.67-.55,1.3-1.4,1.12-1.67-.15-.21-.66.05-2.04.35-1.88.41-1.95.16-2.64.51-1.11.57-.99,1.26-2.09,1.78-.86.4-1.06.04-2.24.31-.81.18-1.28.48-1.69.78.51-.73,1.17-1.5,1.5-1.89.18-.2.32-.65.41-1.17.23-1.16.26-2.72.08-2.95-.13-.16-.58-1.22-1.03-2.3.67.03,1.17.08,1.45.12,1.54.18,4.36.51,7.54,1.75,1.9.74,3.93,1.81,5.88,3.36,6.47,5.12,8.24,12.38,8.74,15.56.08.53.13.94.16,1.21.12,1.17.56,6.09-1.29,11.48Z"/>
  </g>
  <path class="cls-1" d="m55.39,31.5c-.03.27-.54.41-1.28.56-.12.03-.25.05-.38.08-.93.19-1.83.28-4.2.37-.96.04-1.15.04-1.52.14-1.12.31-1.83,1.01-2.12,1.29-.59.6-.96.96-1.01,1.52-.12,1.28,1.56,2.29,1.75,2.4,1.01.58,1.32.21,2.44.74,1.13.53,1.76,1.35,2.49,2.3.59.77,1.78,2.51,1.43,2.86-.27.27-1.12-.69-2.99-1.2-1.6-.43-1.85.03-3.6-.37-.96-.22-2.36-.53-3.5-1.61-1.35-1.28-1.19-2.53-2.08-2.68-1.09-.18-2.26,1.55-2.39,1.76-.68,1.01-.37,1.34-1.02,2.3-.62.93-1.42,1.38-2.63,2.07-1.05.61-2.45,1.23-2.58,1.02-.16-.25,1.87-1.09,2.35-3,.31-1.19-.31-1.52,0-2.76.44-1.74,1.95-2.28,1.71-2.86-.23-.55-1.58-.05-3.87-.55-.14-.03-.29-.06-.44-.11.55-.62,1.01-1.22,1.15-1.38.32-.37,2.23-1.86,3.29-1.86s1.94.37,2.09,1.17c.15.79,0,2.23,0,2.23,0,0,1.11.69,2.01.05.91-.63.8-2.02.8-2.02,0,0-2.17-3.67-2.81-3.88-.35-.11-1.17-.41-2.08-.56.07-.34.18-.73.37-1.2.13-.34.55-1.01,1.38-2.36.08-.13.15-.25.22-.36.83-1.32.95-1.44,1.07-1.89.38-1.41-.18-2.43.09-2.54.28-.11,1.28.87,1.52,2.17.18.92-.14,1.38-.39,2.3-.11.38-.21.83-.25,1.43-.06.78-.12,1.67.27,2.67.43,1.09,1.16,1.77,1.62,2.13.61-.58,1.76-1.49,3.45-2.08.77-.26,2.17-.64,3.92-.51.63.05,1.16.16,1.65.29.4.11.77.23,1.16.36.79.26,2.98.99,2.91,1.57Z"/>
  <path class="cls-1" d="m32.34,30.85c-.94.93-1.77,2.02-1.9,2.28-.13.24-.78.78-1.46,1.21-1.07-.87-1.57-1.86-1.8-2.34-.28-.57-.89-1.81-.51-2.16.4-.37,1.35.74,3.37,1.06,1.08.17,1.28-.07,2.3-.05Z"/>
  <g>
    <path class="cls-2" d="m36.9,59.89c-1.48.09-3.21.3-5.08.71-.97.21-2.2.48-3.55.89-.32-.22-.59-.31-.84-.74-.64-1.08-.04-2.39-.2-2.44-.16-.04-.67,1.14-.97,2.49-.12.57-.23,1.04-.26,1.46l-.06.03c-1.88-1.52-3.23-3.19-3.47-3.49-.8-1.01-2.59-3.44-3.75-7.02-.37-1.16-1.24-3.99-1.14-7.66,1.46,1.12,2.95,2.28,3.2,2.57.53.6,7.42,4.57,9.74,5.23,1.67.48,4.74,5.06,6.38,7.97Z"/>
    <path class="cls-2" d="m53.09,58.94c-1.11,1.03-2.1,1.74-2.7,2.17-.32.23-.64.45-.97.65-3.18-1.24-6-1.57-7.54-1.75-.28-.04-.78-.09-1.45-.12-.52-1.25-1.03-2.53-1.03-2.53,0,0-1.79-5.04-1.39-4.44.4.59,2.25,2.12,3.51,2.45,1.26.33,5.1,1.86,6.5,1.92,1.1.06,3.47,1.18,5.07,1.65Z"/>
    <path class="cls-2" d="m38.37,25.6c-.07.11-.14.23-.22.36-.83,1.35-1.25,2.02-1.38,2.36-.19.47-.3.86-.37,1.2-.8-.15-1.68-.19-2.35.08-.53.22-1.14.7-1.71,1.25-1.02-.02-1.22.22-2.3.05-2.02-.32-2.97-1.43-3.37-1.06-.38.35.23,1.59.51,2.16.23.48.73,1.47,1.8,2.34-.49.32-1,.59-1.31.63-.74.11-2.45,0-3.35.8-.91.8-1.6,1.97-2.02,2.29-.43.32-1.7.42-2.18.42-.32,0-.93-.16-1.47-.43.7-2.2,2.25-6.32,6.29-9.17,3.11-2.19,6.17-2.55,9.58-2.95,1.15-.14,2.43-.29,3.85-.33Z"/>
    <path class="cls-2" d="m51.32,29.57c-.49-.13-1.02-.24-1.65-.29-1.75-.13-3.15.25-3.92.51-1.69.59-2.84,1.5-3.45,2.08-.46-.36-1.19-1.04-1.62-2.13-.39-1-.33-1.89-.27-2.67.04-.6.14-1.05.25-1.43,1.82.12,3.8.49,5.9,1.32.81.32,2.68,1.09,4.76,2.61Z"/>
    <path class="cls-2" d="m59.09,48.5c-.54,2.92-1.73,5.3-3.09,7.19-1.15-.31-2.32-.52-3.28-.52-1.85,0-11.2-6.09-11.75-6.23-.55-.13-8,0-8,0l-6.82-3.85s-.79-.72-1.9-1.74c-1.21-1.38-.25-2.53-.25-2.53l2.77-2.5s2.44-.69,3.24-.85c.45-.09,1.26-.92,1.94-1.7.15.05.3.08.44.11,2.29.5,3.64,0,3.87.55.24.58-1.27,1.12-1.71,2.86-.31,1.24.31,1.57,0,2.76-.48,1.91-2.51,2.75-2.35,3,.13.21,1.53-.41,2.58-1.02,1.21-.69,2.01-1.14,2.63-2.07.65-.96.34-1.29,1.02-2.3.13-.21,1.3-1.94,2.39-1.76.89.15.73,1.4,2.08,2.68,1.14,1.08,2.54,1.39,3.5,1.61,1.75.4,2-.06,3.6.37,1.87.51,2.72,1.47,2.99,1.2.35-.35-.84-2.09-1.43-2.86-.73-.95-1.36-1.77-2.49-2.3-1.12-.53-1.43-.16-2.44-.74-.19-.11-1.87-1.12-1.75-2.4.05-.56.42-.92,1.01-1.52.29-.28,1-.98,2.12-1.29.37-.1.56-.1,1.52-.14,2.37-.09,3.27-.18,4.2-.37.13-.03.26-.05.38-.08.8.85,1.57,1.83,2.27,2.96,1.18,1.9,3.9,7.03,2.71,13.48Z"/>
  </g>
  <path class="cls-1" d="m101.82,61.47s-.82,1.45-1.9,1.59c-1.08.13-2.27-.68-2.27-.68,0,0-.59-1.45-1.17-2.47-.3-.52-.6-.92-.82-.96-.26-.05-1.15-.34-2.18-.66-1.54-.48-3.42-1.06-3.98-1.06-.93,0-4.24-.8-5.04-1.06-.79-.27-2.73-1.33-2.73-1.33,0,0-5.55,2.39-6.28,2.45-.73.07-2.98.73-2.98.73l-.86,1.82s4.9,2.95,6.09,2.95,4.04.9,4.64,1.21c.26.14.91.62,1.6,1.2.35.28.7.59,1.03.89.54.49.99.94,1.14,1.21.13.24.47.98.86,1.89.83,1.91,1.93,4.54,1.93,4.54,0,0-.98.86-1.85,1.06-.87.19-2.19-.34-2.19-.34,0,0-.13-1.2-.45-2.62h0c-.34-1.48-.89-3.17-1.73-3.93-.17-.15-.35-.27-.54-.34-.45-.16-.94-.34-1.44-.51h-.01c-1.79-.64-3.74-1.31-4.78-1.29-1.32.01-3.38-.58-4.04-.85-.66-.26-3.64-2.72-3.64-2.72,0,0-7.94-.19-8.84-.33-.9-.13-3.9-2.73-5.21-2.71-.28,0-.65-.08-1.09-.21-1.6-.47-3.97-1.59-5.07-1.65-1.4-.06-5.24-1.59-6.5-1.92-1.26-.33-3.11-1.86-3.51-2.45-.4-.6,1.39,4.44,1.39,4.44,0,0,.51,1.28,1.03,2.53.45,1.08.9,2.14,1.03,2.3.18.23.15,1.79-.08,2.95-.09.52-.23.97-.41,1.17-.33.39-.99,1.16-1.5,1.89-.35.52-.64,1.02-.66,1.35-.07.8.26,2.06.26,2.06,0,0-.73,1.21-1.52,1.43-.8.22-2.79-.51-2.79-.51,0,0,.29-1.86.69-3.44.19-.81.42-1.54.64-1.92.2-.35.47-.85.75-1.42.62-1.28,1.26-2.87,1.17-3.56-.04-.28-.46-1.16-1.11-2.3-1.64-2.91-4.71-7.49-6.38-7.97-2.32-.66-9.21-4.63-9.74-5.23-.25-.29-1.74-1.45-3.2-2.57-1.59-1.22-3.16-2.4-3.16-2.4l-5.5-6.3-6.63-4.1s-.37-2.81.02-4.06c.4-1.26,1.05-2.52,1.05-2.52,0,0,7.42,5.71,8.61,6.64,1.19.93,4.5,4.91,4.97,5.3.09.07.46.41,1.01.92.02.02.04.04.07.05.18.15.4.29.63.4.54.27,1.15.43,1.47.43.48,0,1.75-.1,2.18-.42.42-.32,1.11-1.49,2.02-2.29.9-.8,2.61-.69,3.35-.8.31-.04.82-.31,1.31-.63.68-.43,1.33-.97,1.46-1.21.13-.26.96-1.35,1.9-2.28.57-.55,1.18-1.03,1.71-1.25.67-.27,1.55-.23,2.35-.08.91.15,1.73.45,2.08.56.64.21,2.81,3.88,2.81,3.88,0,0,.11,1.39-.8,2.02-.9.64-2.01-.05-2.01-.05,0,0,.15-1.44,0-2.23-.15-.8-1.02-1.17-2.09-1.17s-2.97,1.49-3.29,1.86c-.14.16-.6.76-1.15,1.38-.68.78-1.49,1.61-1.94,1.7-.8.16-3.24.85-3.24.85l-2.77,2.5s-.96,1.15.25,2.53c1.11,1.02,1.9,1.74,1.9,1.74l6.82,3.85s7.45-.13,8,0c.55.14,9.9,6.23,11.75,6.23.96,0,2.13.21,3.28.52,1.07.29,2.12.65,2.95,1.01,1.72.72,6.03,1.32,8.88,0,2.85-1.33,3.78-2.59,5.17-2.85,1.39-.27,3.24-.34,4.37-1.06,1.13-.73,3.98-2.12,5.44-2.12s3.72,1.98,4.24,2.51c.53.53,9.14,2.06,9.87,2.06.42,0,1.37.94,2.18,1.86.6.68,1.13,1.33,1.33,1.58.15.2.36.57.56.98.42.83.83,1.81.83,1.81Z"/>
  <path class="cls-4" d="m56.28,82.4c-1,1.43-1.54,3.12-1.55,4.86-.02,1.94-.31,4.66-1.63,6.58-2.27,3.32-2.48,3.01-3.47,4.17-2.26,2.63-2.04,5.88,2.49,3.57,4.52-2.31,6.75-5.24,7.81-10.25,1.01-4.78,1.07-7.1.61-9.5-.46-2.4-2.7-1.65-3.8-.08-.15.21-.3.43-.44.63Z"/>
  <path class="cls-4" d="m103.94,82.97c-.39,1.34-.37,2.77.07,4.1.49,1.48.96,3.62.46,5.42-.87,3.11-1.11,2.92-1.57,4.07-1.04,2.58-.03,4.99,2.81,2.08,2.84-2.92,3.78-5.72,3.29-9.8-.47-3.9-1.02-5.67-1.98-7.38-.97-1.7-2.47-.56-2.91.92-.06.2-.12.4-.17.6Z"/>
  <rect class="cls-5" x="-883.99" y="-2048.4" width="3385.57" height="2571.67"/>
</svg>