<?xml version="1.0" encoding="UTF-8"?>
<svg id="Calque_1" data-name="Calque 1" xmlns="http://www.w3.org/2000/svg" viewBox="0 0 128 128">
  <defs>
    <style>
      .cls-1 {
        fill: #87ccf3;
      }

      .cls-2 {
        stroke: #000;
        stroke-width: 2px;
      }

      .cls-2, .cls-3 {
        fill: none;
        stroke-linecap: round;
        stroke-linejoin: round;
      }

      .cls-3 {
        stroke: #fff;
        stroke-width: 8px;
      }
    </style>
  </defs>
  <path class="cls-1" d="m66.16,28.33c-1.12-.65-2.49-.84-3.8-.4-1.21.41-2.15,1.28-2.69,2.34-.53,1.07-.66,2.34-.25,3.55l2.12,6.34c-.81-2.43-3.46-3.75-5.89-2.94-1.21.4-2.15,1.27-2.68,2.34-.53,1.06-.66,2.34-.26,3.55l6.22,18.6c-.65.49-1.33.95-2.03,1.38-1.34-.75-3.32-1.23-5.42.45-1.05.85-1.66,1.74-1.99,2.59-1.95.48-3.99.73-6.09.73-14.36,0-25.99-11.64-25.99-25.99s11.63-25.99,25.99-25.99c9.8,0,18.34,5.43,22.76,13.45Z"/>
  <g>
    <path class="cls-2" d="m105.24,110.12l-26.05,8.71-5.12-15.29s-4.91-.91-9.46-4.84c-4.56-3.93-8.66-14.15-8.66-14.15l-6.35-14.41s-.95-1.85-.11-4.01c.33-.85.94-1.74,1.99-2.59,2.1-1.68,4.08-1.2,5.42-.45,1.05.58,1.7,1.33,1.7,1.33l2.54,3.88-2.21-6.59-6.22-18.6c-.4-1.21-.27-2.49.26-3.55.53-1.07,1.47-1.94,2.68-2.34,2.43-.81,5.08.51,5.89,2.94l-2.12-6.34c-.41-1.21-.28-2.48.25-3.55.54-1.06,1.48-1.93,2.69-2.34,1.31-.44,2.68-.25,3.8.4.95.54,1.72,1.43,2.09,2.54l2.12,6.33c-.41-1.21-.28-2.48.25-3.55.53-1.07,1.47-1.93,2.68-2.34,2.43-.81,5.08.51,5.89,2.94l3.74,11.17c-.41-1.21-.28-2.48.25-3.55.53-1.07,1.47-1.93,2.69-2.34,2.42-.81,5.07.51,5.88,2.94l10.55,31.52s2.37,5.85.99,10.91c-1.37,5.07-3.63,8.55-3.63,8.55l5.58,16.67Z"/>
    <polyline class="cls-2" points="61.14 68.3 64.88 77.94 66.64 82.47"/>
    <line class="cls-2" x1="82.93" y1="45.42" x2="88.54" y2="62.19"/>
    <line class="cls-2" x1="70.37" y1="37.21" x2="79.71" y2="65.14"/>
    <line class="cls-2" x1="70.89" y1="68.09" x2="61.54" y2="40.16"/>
  </g>
  <rect class="cls-3" x="-2953.15" y="-998.34" width="6467.34" height="6437.3"/>
</svg>