<?xml version="1.0" encoding="UTF-8"?>
<svg id="Calque_1" data-name="Calque 1" xmlns="http://www.w3.org/2000/svg" viewBox="0 0 128 128">
  <defs>
    <style>
      .cls-1 {
        fill: #fab0b4;
      }

      .cls-2 {
        stroke: #000;
        stroke-width: 2px;
      }

      .cls-2, .cls-3 {
        fill: none;
        stroke-linecap: round;
        stroke-linejoin: round;
      }

      .cls-3 {
        stroke: #fff;
        stroke-width: 8px;
      }
    </style>
  </defs>
  <path class="cls-1" d="m56.08,47.52c-7.81,12.58,6.9,18.44.56,22.21-5.16,3.06-11.4,4.38-17.77,3.28-14.22-2.45-23.76-15.97-21.31-30.19,2.45-14.22,15.97-23.76,30.19-21.31,7.76,1.34,14.13,5.98,17.92,12.23,3.14,5.2-4.75,6-9.58,13.78Z"/>
  <g>
    <path class="cls-2" d="m114.38,96.25l-17.14,12.36-7.26-10.06s-3.82.46-8.06-1.39c-4.25-1.84-9.6-8.41-9.6-8.41l-7.97-9.13s-1.12-1.14-1-2.92c.05-.7.29-1.49.87-2.36,1.16-1.72,2.72-1.82,3.88-1.57.9.19,1.55.59,1.55.59l2.75,2.27-3.13-4.34-8.83-12.24c-.57-.8-.77-1.77-.62-2.67.14-.91.64-1.76,1.43-2.33,1.6-1.15,3.85-.79,5,.81l-3.01-4.17c-.58-.8-.77-1.76-.63-2.67.15-.9.65-1.76,1.44-2.34.86-.62,1.91-.8,2.88-.58.82.18,1.59.66,2.12,1.39l3.01,4.17c-.58-.8-.77-1.76-.63-2.67.14-.91.64-1.75,1.43-2.33,1.6-1.15,3.85-.79,5,.81l5.31,7.35c-.58-.8-.77-1.76-.63-2.67.14-.91.64-1.75,1.44-2.34,1.59-1.15,3.84-.79,4.99.81l14.97,20.74s3.08,3.76,3.23,7.79c.15,4.04-.71,7.11-.71,7.11l7.92,10.97Z"/>
    <polyline class="cls-2" points="72.4 75.63 77.36 81.85 79.69 84.78"/>
    <line class="cls-2" x1="83.17" y1="53.82" x2="91.13" y2="64.86"/>
    <line class="cls-2" x1="72.06" y1="50.67" x2="85.32" y2="69.05"/>
    <line class="cls-2" x1="79.52" y1="73.24" x2="66.25" y2="54.86"/>
  </g>
  <rect class="cls-3" x="-2473.39" y="-749.68" width="6467.34" height="6437.3"/>
</svg>