<?xml version="1.0" encoding="UTF-8"?>
<svg id="Calque_1" data-name="Calque 1" xmlns="http://www.w3.org/2000/svg" viewBox="0 0 128 128">
  <defs>
    <style>
      .cls-1 {
        fill: #fff;
      }

      .cls-2 {
        fill: #87ccf3;
      }

      .cls-3 {
        stroke: #000;
        stroke-width: 2px;
      }

      .cls-3, .cls-4 {
        fill: none;
        stroke-linecap: round;
        stroke-linejoin: round;
      }

      .cls-4 {
        stroke: #fff;
        stroke-width: 8px;
      }
    </style>
  </defs>
  <path class="cls-2" d="m66.16,28.33c-1.12-.65-2.49-.84-3.8-.4-1.21.41-2.15,1.28-2.69,2.34-.53,1.07-.66,2.34-.25,3.55l2.12,6.34c-.81-2.43-3.46-3.75-5.89-2.94-1.21.4-2.15,1.27-2.68,2.34-.53,1.06-.66,2.34-.26,3.55l6.22,18.6c-.65.49-1.33.95-2.03,1.38-1.34-.75-3.32-1.23-5.42.45-1.05.85-1.66,1.74-1.99,2.59-1.95.48-3.99.73-6.09.73-14.36,0-25.99-11.64-25.99-25.99s11.63-25.99,25.99-25.99c9.8,0,18.34,5.43,22.76,13.45Z"/>
  <g>
    <g>
      <path class="cls-1" d="m55.7,17.41l-.55.27-.57.28-3.41,1.71-4.53-2.27-4.54,2.27-4.53-2.27-4.53,2.27-2.07-1.04-.55-.27-.52-.27c.35-.21.7-.4,1.05-.59l.54.27h.01l.56.29.98.49,4.53-2.26,4.53,2.26,4.54-2.26,4.53,2.26,2.25-1.12.59-.29.57-.29c.38.18.75.36,1.12.56Z"/>
      <path class="cls-1" d="m62.99,23.04l-.46.23-.47.23-1.82.91-4.53-2.27-4.54,2.27-4.53-2.26-4.54,2.26-4.53-2.26-4.53,2.26-4.53-2.26-4.53,2.26-.49-.24-.44-.22c.22-.27.44-.53.67-.78l.26.13.53-.27h.01l1.46-.73,2.53-1.27,4.53,2.27,4.53-2.27,4.53,2.27,4.54-2.27,4.53,2.27,4.54-2.27,4.53,2.27,1.09-.55.47-.23.47-.24c.25.25.49.5.72.76Z"/>
    </g>
    <g>
      <path class="cls-1" d="m65.9,26.9l-.87-.44h-.01l-.24-.12-.33.16-1.57.79-2.47,1.22-.17.09-4.53-2.26-4.54,2.26-4.53-2.26-4.54,2.27-4.53-2.27-4.53,2.27-4.53-2.27-4.53,2.26-2.25-1.12-.46-.23-.44-.22c.17-.28.36-.57.54-.84l.45.22.46.23,1.7.85,4.53-2.27,4.53,2.27,4.53-2.27,4.53,2.27,4.54-2.27,4.53,2.27,4.54-2.27,4.53,2.27,3.62-1.81.47-.23.44-.23c.4.54.77,1.1,1.13,1.68Z"/>
      <path class="cls-1" d="m59.76,33.11l-.54-.27-.53-.27-2.98-1.49-4.54,2.27-4.53-2.27-4.54,2.27-4.53-2.27-4.53,2.27-4.53-2.27-4.53,2.27-4.17-2.09-.37-.18-.13.07h-.01l-.65.33c.17-.48.37-.95.59-1.42l.2-.1.31.15.46.23,3.77,1.89,4.53-2.27,4.53,2.27,4.53-2.27,4.53,2.27,4.54-2.27,4.53,2.27,4.54-2.27,3.05,1.53.47.24.47.23c-.03.38-.02.77.06,1.15Z"/>
    </g>
    <g>
      <path class="cls-1" d="m61.06,37.13l-.45.22-.37.19-1.68-.84-2.85-1.43-4.54,2.27-4.53-2.27-4.54,2.27-4.53-2.27-4.53,2.27-4.53-2.27-4.53,2.27-4.54-2.27-1.01.5-.56.28-.55.28c.06-.42.14-.83.24-1.24l.58-.29.58-.29.72-.36,4.54,2.27,4.53-2.27,4.53,2.27,4.53-2.27,4.53,2.27,4.54-2.27,4.53,2.27,4.54-2.27,3.97,1.99.56.28.05-.03.45-.22.32.96Z"/>
      <path class="cls-1" d="m53.28,40.11c-.17.4-.26.83-.28,1.26l-.51.25-.5.25-.82.41-4.53-2.27-4.54,2.27-4.53-2.27-4.53,2.27-4.53-2.27-4.53,2.27-4.54-2.27-2.02,1.01-.49.25c-.01-.13-.01-.27-.01-.4,0-.24,0-.48.02-.72l.5-.25.51-.26,1.49-.74,4.54,2.26,4.53-2.27,4.53,2.27,4.53-2.26,4.53,2.26,4.54-2.26,4.53,2.26.91-.45.58-.29.62-.31Z"/>
    </g>
    <g>
      <path class="cls-1" d="m53.91,45.11l-.45.22-.45.23-1.84.91-4.53-2.26-4.54,2.26-4.53-2.26-4.53,2.26-4.53-2.26-4.53,2.26-4.54-2.26-1.22.61-.46.23-.46.23c-.07-.34-.12-.69-.15-1.04l.46-.23.48-.24,1.35-.68,4.54,2.27,4.53-2.27,4.53,2.26,4.53-2.26,4.53,2.26,4.54-2.26,4.53,2.27,1.52-.76.45-.23.45-.22.32.96Z"/>
      <path class="cls-1" d="m55.27,49.17l-.45.22-.45.23-3.2,1.6-4.53-2.27-4.54,2.27-4.53-2.27-4.53,2.27-4.53-2.27-4.53,2.27-4.54-2.27-.17.09-.45.22-.45.23c-.12-.32-.22-.64-.32-.96l.46-.23.45-.23.48-.24,4.54,2.27,4.53-2.27,4.53,2.27,4.53-2.27,4.53,2.27,4.54-2.27,4.53,2.27,2.88-1.44.45-.23.45-.22.32.96Z"/>
    </g>
    <g>
      <path class="cls-1" d="m56.77,53.67l-.62-.31-.44-.22-.14.07-4.4,2.2-4.53-2.27-4.54,2.27-4.53-2.27-4.53,2.27-4.53-2.27-4.53,2.27-2.23-1.12-.83-.41h-.01l-.8-.4c-.25-.47-.49-.95-.71-1.44l.04-.02.65.33.77.38,3.12,1.56,4.53-2.27,4.53,2.27,4.53-2.27,4.53,2.27,4.54-2.27,4.53,2.27,4.08-2.04.45-.23h.01l.61.31.45,1.34Z"/>
      <path class="cls-1" d="m58.68,59.37l-.63-.32-.63-.31-1.71-.86-4.54,2.27-4.53-2.27-4.54,2.27-4.53-2.27-4.53,2.27-4.53-2.27-2.74,1.37-.48.25-.46.22c-.26-.24-.5-.49-.73-.75l.45-.22.48-.24,3.48-1.75,4.53,2.27,4.53-2.27,4.53,2.27,4.54-2.27,4.53,2.27,4.54-2.27,1.26.63.63.32.63.31.45,1.35Z"/>
    </g>
    <g>
      <path class="cls-1" d="m58.74,62.47c-.3.22-.62.44-.94.65l-.52-.27h-.01l-1.56-.78-.72.36-1.03.51-2.44,1.22-.35.18-.37-.18-.46-.24-3.7-1.85-4.54,2.27-4.53-2.27-4.32,2.17-.21.1-4.53-2.27-.08.04-.49.24c-.31-.21-.6-.43-.89-.67l.48-.24.51-.25.47-.24,4.53,2.27,4.53-2.27,4.53,2.27,4.54-2.26,4.48,2.23.05.03,2.5-1.25h.01l2.03-1.01,2.01,1,.51.26.51.25Z"/>
      <path class="cls-1" d="m40.57,67.2c-1.49-.15-2.93-.43-4.33-.83l.66-.33.67-.34,3,1.5Z"/>
    </g>
  </g>
  <path d="m51.17,63.15s-.03.03-.05.04l.05.03,2.5-1.25c-.79.13-1.64.49-2.5,1.18Zm15.43-35.06c-.22-.41-.46-.8-.7-1.19-.36-.58-.73-1.14-1.13-1.68-.56-.76-1.15-1.49-1.78-2.18-.23-.26-.47-.51-.72-.76-1.93-1.96-4.15-3.61-6.57-4.87-.37-.2-.74-.38-1.12-.56-3.44-1.6-7.25-2.47-11.17-2.47-4.5,0-8.74,1.13-12.46,3.12-.35.19-.7.38-1.05.59-2.31,1.37-4.39,3.09-6.18,5.08-.23.25-.45.51-.67.78-.6.71-1.16,1.46-1.68,2.24-.18.27-.37.56-.54.84-.6.97-1.13,1.98-1.59,3.03-.22.47-.42.94-.59,1.42-.46,1.16-.82,2.37-1.09,3.61-.1.41-.18.82-.24,1.24-.23,1.24-.36,2.52-.38,3.82-.02.24-.02.48-.02.72,0,.13,0,.27.01.4.01,1.01.08,2,.22,2.97.03.35.08.7.15,1.04.17,1.11.43,2.2.75,3.25.1.32.2.64.32.96.29.87.63,1.72,1.03,2.55.22.49.46.97.71,1.44,1.09,2,2.43,3.84,3.99,5.49.23.26.47.51.73.75.7.7,1.44,1.35,2.22,1.96.29.24.58.46.89.67,2.48,1.8,5.28,3.17,8.3,4.02,1.4.4,2.84.68,4.33.83.9.11,1.82.16,2.75.16h.09c.78,0,1.57-.03,2.34-.1h.02c.47-.05.94-.1,1.41-.17.55-.08,1.11-.18,1.65-.29.27-.06.53-.12.79-.18l.25-.06.09-.25c.3-.77.83-1.49,1.56-2.15.09-.07.18-.15.28-.23.69-.55,1.41-.89,2.16-.99.87-.12,1.78.08,2.7.59l.26.14.25-.15c.21-.13.42-.27.63-.4.32-.21.64-.43.94-.65h.01c.17-.12.33-.24.49-.36l.28-.22-.84-2.52-.45-1.35-1.46-4.35-.45-1.34-1.05-3.16-.32-.96-1.04-3.1-.32-.96-.4-1.2c-.17-.51-.23-1.05-.19-1.58.02-.43.11-.86.28-1.26.04-.11.09-.22.14-.33.5-1,1.35-1.74,2.39-2.08,1.05-.36,2.18-.27,3.18.22.99.5,1.73,1.35,2.08,2.39h0s.48-.15.48-.15l.47-.16-.96-2.87-.32-.96-.84-2.51c-.06-.18-.11-.37-.14-.55-.08-.38-.09-.77-.06-1.15.05-.5.19-.99.42-1.46.51-1,1.36-1.74,2.41-2.1,1.11-.37,2.35-.24,3.39.36l1.55.91-.87-1.58Zm-4.39-.63c-.68.23-1.29.59-1.8,1.05-.48.43-.88.95-1.18,1.54-.23.46-.39.95-.47,1.44-.07.36-.09.72-.07,1.08.02.48.1.95.26,1.41l.73,2.16.43,1.29c-.22-.15-.44-.28-.68-.4-.28-.14-.57-.26-.87-.33-.99-.31-2.06-.29-3.06.05-1.3.43-2.36,1.35-2.97,2.59-.22.43-.37.9-.45,1.37-.08.38-.11.77-.09,1.16.01.47.1.95.25,1.4l.45,1.33.32.96,1.04,3.1.32.96.88,2.63.32.96,1.4,4.18.45,1.35.93,2.78c-.21.15-.42.3-.63.44-.27.19-.55.38-.83.56-.36-.18-.75-.34-1.18-.45-.62-.17-1.3-.23-2.03-.1h-.01c-.79.13-1.64.49-2.5,1.18-.02,0-.03.03-.05.04-.28.23-.54.48-.78.73-.52.55-.93,1.15-1.21,1.78-.59.14-1.19.26-1.79.35-.61.1-1.23.17-1.85.23-.69.05-1.38.08-2.08.08-3.61,0-7.05-.75-10.16-2.12-1.86-.8-3.61-1.83-5.21-3.05-.79-.59-1.55-1.24-2.27-1.94-.25-.24-.5-.49-.74-.74-1.24-1.29-2.34-2.7-3.28-4.22-.32-.5-.62-1.02-.89-1.56-.63-1.17-1.16-2.41-1.59-3.69-.12-.32-.22-.64-.31-.97-.32-1.06-.56-2.14-.74-3.25-.05-.35-.1-.7-.13-1.05-.11-.95-.17-1.92-.17-2.9v-.1c0-.38.01-.76.03-1.13.06-1.32.23-2.61.48-3.87.09-.43.19-.85.29-1.26.29-1.12.65-2.2,1.09-3.25.12-.31.25-.62.4-.92.44-.99.95-1.94,1.52-2.86.17-.28.35-.56.55-.84.52-.78,1.08-1.52,1.7-2.23.62-.75,1.29-1.46,2-2.11,1.5-1.42,3.18-2.65,4.99-3.67.36-.2.72-.4,1.09-.57,3.42-1.72,7.27-2.68,11.35-2.68,3.5,0,6.89.72,10.01,2.05.39.17.78.34,1.16.53,2.49,1.22,4.77,2.83,6.75,4.79.25.24.49.49.73.75.64.69,1.25,1.42,1.8,2.18.21.27.41.54.59.82.19.27.37.55.55.83-.7-.17-1.42-.18-2.12-.04-.23.04-.45.09-.67.17Zm-11.04,35.69s-.03.03-.05.04l.05.03,2.5-1.25c-.79.13-1.64.49-2.5,1.18Z"/>
  <g>
    <path class="cls-3" d="m105.24,110.12l-26.05,8.71-5.12-15.29s-4.91-.91-9.46-4.84c-4.56-3.93-8.66-14.15-8.66-14.15l-6.35-14.41s-.95-1.85-.11-4.01c.33-.85.94-1.74,1.99-2.59,2.1-1.68,4.08-1.2,5.42-.45,1.05.58,1.7,1.33,1.7,1.33l2.54,3.88-2.21-6.59-6.22-18.6c-.4-1.21-.27-2.49.26-3.55.53-1.07,1.47-1.94,2.68-2.34,2.43-.81,5.08.51,5.89,2.94l-2.12-6.34c-.41-1.21-.28-2.48.25-3.55.54-1.06,1.48-1.93,2.69-2.34,1.31-.44,2.68-.25,3.8.4.95.54,1.72,1.43,2.09,2.54l2.12,6.33c-.41-1.21-.28-2.48.25-3.55.53-1.07,1.47-1.93,2.68-2.34,2.43-.81,5.08.51,5.89,2.94l3.74,11.17c-.41-1.21-.28-2.48.25-3.55.53-1.07,1.47-1.93,2.69-2.34,2.42-.81,5.07.51,5.88,2.94l10.55,31.52s2.37,5.85.99,10.91c-1.37,5.07-3.63,8.55-3.63,8.55l5.58,16.67Z"/>
    <polyline class="cls-3" points="61.14 68.3 64.88 77.94 66.64 82.47"/>
    <line class="cls-3" x1="82.93" y1="45.42" x2="88.54" y2="62.19"/>
    <line class="cls-3" x1="70.37" y1="37.21" x2="79.71" y2="65.14"/>
    <line class="cls-3" x1="70.89" y1="68.09" x2="61.54" y2="40.16"/>
  </g>
  <rect class="cls-4" x="-2620.92" y="-749.68" width="6467.34" height="6437.3"/>
</svg>