<?xml version="1.0" encoding="UTF-8"?>
<svg id="Calque_1" data-name="Calque 1" xmlns="http://www.w3.org/2000/svg" viewBox="0 0 200 128">
  <defs>
    <style>
      .cls-1 {
        fill: #f3d587;
      }

      .cls-1, .cls-2, .cls-3 {
        stroke: #000;
        stroke-miterlimit: 10;
        stroke-width: 2px;
      }

      .cls-2 {
        fill: #ff6d75;
      }

      .cls-3 {
        fill: #d6d6d6;
      }

      .cls-4 {
        fill: none;
        stroke: #fff;
        stroke-linecap: round;
        stroke-linejoin: round;
        stroke-width: 8px;
      }
    </style>
  </defs>
  <path class="cls-2" d="m110.31,101.92c1.2,0,2.21-.88,2.4-2.07,1.25-7.74,5.87-14.64,12.76-18.76l4.84-2.89,1.3,4.91-4.06,2.44c-5.61,3.38-9.04,9.45-9.04,16v.36s0,3.4,0,3.4c0,1.48-1.2,2.68-2.68,2.68h-49.8v-6.09h44.28Z"/>
  <path class="cls-3" d="m115.67,7.98c.92-.21,2.51,3.35,3.54,7.94l5.3,23.51c1.04,4.59,1.13,8.49.21,8.69-.92.21-2.51-3.35-3.54-7.94l-5.3-23.51c-1.04-4.59-1.13-8.49-.21-8.69Z"/>
  <path class="cls-3" d="m125.9,106.59c0,7.96,6.45,14.42,14.42,14.42,7.96,0,14.42-6.45,14.42-14.42,0-7.96-6.45-14.42-14.42-14.42s-14.42,6.45-14.42,14.42Zm5.96,0c0-4.67,3.79-8.46,8.46-8.46,4.67,0,8.46,3.79,8.46,8.46s-3.79,8.46-8.46,8.46c-4.67,0-8.46-3.79-8.46-8.46Z"/>
  <rect class="cls-2" x="127.45" y="44.04" width="7.41" height="53.8" transform="translate(275.46 108.44) rotate(166.16)"/>
  <rect class="cls-2" x="120.54" y="43.8" width="8.68" height="3.42" transform="translate(257.02 59.81) rotate(166.16)"/>
  <rect class="cls-3" x="120.96" y="41.69" width="6.57" height="2.44" transform="translate(255.14 54.85) rotate(166.16)"/>
  <rect class="cls-2" x="102.61" y="8.94" width="16.24" height="6.35" rx="3.04" ry="3.04" transform="translate(217.61 -19.25) rotate(157.4)"/>
  <circle class="cls-2" cx="104.27" cy="15.16" r="3.79"/>
  <path class="cls-2" d="m125.48,110.6c-.28-1.15-.45-2.34-.45-3.58,0-8.2,6.65-14.85,14.85-14.85,6.26,0,11.6,3.87,13.79,9.35l-28.19,9.08Z"/>
  <path class="cls-1" d="m135.95,51.7l1.89,6.77c-2.94.44-5.46-.34-5.92-2-.46-1.65,1.28-3.63,4.03-4.77Z"/>
  <path d="m120.92,45.15l.85-.53-2.3-3.69c-2.46-3.95-1.57-9.11,2.08-12.01,3.36-2.67,4.98-6.79,4.34-11.03-.65-4.24-3.43-7.69-7.43-9.24l-.36.93c3.67,1.41,6.21,4.57,6.8,8.45.59,3.88-.89,7.66-3.97,10.1-4.05,3.21-5.04,8.93-2.31,13.32l2.3,3.69Z"/>
  <path class="cls-3" d="m38.86,106.59c0,7.96,6.45,14.42,14.42,14.42s14.42-6.45,14.42-14.42c0-7.96-6.45-14.42-14.42-14.42s-14.42,6.45-14.42,14.42Zm5.96,0c0-4.67,3.79-8.46,8.46-8.46s8.46,3.79,8.46,8.46-3.79,8.46-8.46,8.46-8.46-3.79-8.46-8.46Z"/>
  <path class="cls-2" d="m68.15,110.11c.28-1.15.45-2.34.45-3.58,0-8.2-6.65-14.85-14.85-14.85-6.26,0-11.6,3.87-13.79,9.35l28.19,9.08Z"/>
  <rect class="cls-4" x="-1006.77" y="-3916.59" width="2244.45" height="5948.74"/>
</svg>