<?xml version="1.0" encoding="UTF-8"?>
<svg id="Calque_1" data-name="Calque 1" xmlns="http://www.w3.org/2000/svg" viewBox="0 0 200 128">
  <defs>
    <style>
      .cls-1 {
        fill: #d6d6d6;
      }

      .cls-1, .cls-2, .cls-3, .cls-4, .cls-5, .cls-6, .cls-7, .cls-8, .cls-9, .cls-10, .cls-11 {
        stroke: #000;
      }

      .cls-1, .cls-2, .cls-12 {
        stroke-linecap: round;
        stroke-linejoin: round;
      }

      .cls-2, .cls-12 {
        fill: none;
      }

      .cls-3 {
        fill: #e9cb61;
      }

      .cls-3, .cls-4, .cls-5, .cls-6, .cls-7, .cls-8, .cls-9, .cls-10, .cls-11 {
        stroke-miterlimit: 10;
        stroke-width: 2px;
      }

      .cls-4 {
        fill: #f37211;
      }

      .cls-5 {
        fill: #edd112;
      }

      .cls-6 {
        fill: #c2524d;
      }

      .cls-7 {
        fill: #9e8987;
      }

      .cls-8 {
        fill: #e0ebf4;
      }

      .cls-9 {
        fill: #d77970;
      }

      .cls-10 {
        fill: #f9a533;
      }

      .cls-11 {
        fill: #f2e2a8;
      }

      .cls-12 {
        stroke: #fff;
        stroke-width: 8px;
      }
    </style>
  </defs>
  <path class="cls-2" d="m35.75,46.2c.04.07.08.14.11.21h0c-.03-.06-.07-.14-.1-.21Z"/>
  <path class="cls-2" d="m34.24,80.49s.07,0,.12,0c.33-.4.64-.88.94-1.41l-1.06,1.42Z"/>
  <path class="cls-2" d="m35.74,46.19c-.45-.81-.93-1.49-1.4-2.04l.14-.09c.45.57.87,1.28,1.27,2.13Z"/>
  <path class="cls-2" d="m73.2,81.31s0,.1-.02.14c-.09.96-.69,1.84-1.71,2.61-.7.56-1.62,1.06-2.71,1.49-3.81,1.57-9.74,2.42-16.36,2.11-5.46-.25-10.41-1.24-14.03-2.65-1.71-.67-3.14-1.42-4.18-2.24-.33-.26-.63-.52-.89-.81.18-.18.37-.39.55-.62.33-.44.66-.98.97-1.57l3.6-5.25c3.76-1.15,8.9-1.72,14.55-1.47,11.34.52,20.39,4.21,20.23,8.25Z"/>
  <path class="cls-1" d="m65.45,80.02c0,.16-.06.32-.15.48-.16.3-.47.58-.9.84-2.09,1.29-6.16,2.12-11.96,1.92-4.63-.16-8.69-.91-11.13-1.92-1.09-.45-1.85-.95-2.19-1.49-.16-.24-.24-.47-.22-.71.1-2.02,6.34-3.44,13.93-3.18s12.72,2.05,12.62,4.07Z"/>
  <path class="cls-2" d="m73.19,86.31c-.05,1.21-1.03,2.31-2.7,3.22-3.56,1.95-10.25,3.08-17.86,2.75-6.88-.3-12.93-1.49-16.52-3.43h0l-8.5-.63-3.66-.27,2.47-3.76,6.25.56,4.9.44h0c3.65,1.51,9.04,2.59,15.06,2.84,6.93.3,13.08-.56,16.81-2.11,1.24-.53,2.22-1.13,2.86-1.78.61.7.93,1.42.89,2.16Z"/>
  <polygon class="cls-2" points="21.18 56.58 21.18 88.86 11.13 88.86 11.13 57.39 20.01 57.39 21.18 56.58"/>
  <rect class="cls-2" x="8.87" y="54.08" width="11.14" height="3.31"/>
  <path class="cls-2" d="m26.84,49.35c-.35,1.2-.65,2.52-.89,3.93l-4.76,3.3-1.17.81v-3.31l6.83-4.73Z"/>
  <path class="cls-2" d="m38.44,41.25v3.32l-2.59,1.83h0c-.03-.06-.07-.14-.1-.21,0,0,0,0,0-.02-.45-.81-.93-1.49-1.4-2.04l.14-.09,3.97-2.8Z"/>
  <path class="cls-2" d="m34.24,80.49s.08,0,.12,0c-.17.21-.35.4-.53.57-.32.28-.63.51-.96.64-.33.15-.66.23-1,.23-.99,0-1.94-.64-2.78-1.81-2.29-3.12-3.87-9.97-3.87-17.91,0-3.21.26-6.24.73-8.93.24-1.41.54-2.73.89-3.93,1.21-4.21,3.02-6.86,5.03-6.86.93,0,1.8.56,2.6,1.57l-.14.09c-.97-1.09-1.96-1.63-2.92-1.51-1.75.22-3.07,2.55-3.8,6.17-.22,1.11-.39,2.34-.51,3.67-.27,3.35-.18,7.33.36,11.56.83,6.53,1.78,11.14,3.14,13.79.61,1.21,1.3,2.01,2.11,2.4.19.1.39.17.59.21.3.08.61.09.94.06Z"/>
  <path class="cls-2" d="m29.09,80.12l-2.68,4.08-2.47,3.76-.6.91h-2.16v-32.28l4.76-3.3c-.47,2.68-.73,5.71-.73,8.93,0,7.94,1.58,14.79,3.87,17.91Z"/>
  <path class="cls-2" d="m37.72,45.13v5.84c-.54-1.76-1.16-3.3-1.86-4.56l1.86-1.28Z"/>
  <polyline class="cls-2" points="8.88 54.08 26.95 41.23 38.44 41.25"/>
  <ellipse class="cls-2" cx="24.21" cy="46.52" rx="2.06" ry="1.02" transform="translate(-21.81 21.37) rotate(-33.85)"/>
  <line class="cls-2" x1="22.74" y1="46.52" x2="22.74" y2="46.52"/>
  <line class="cls-2" x1="25.54" y1="46.7" x2="25.54" y2="46.7"/>
  <line class="cls-2" x1="25.54" y1="46.52" x2="22.74" y2="46.52"/>
  <line class="cls-2" x1="36.1" y1="88.86" x2="36.1" y2="88.85"/>
  <path class="cls-2" d="m36.11,88.86v.03"/>
  <line class="cls-2" x1="34.24" y1="80.49" x2="33.83" y2="81.05"/>
  <path class="cls-2" d="m68.8,108.03l.83,2.1c-.42.5-.99.97-1.69,1.42-.39.25-.83.5-1.3.72-1.13.57-2.48,1.07-4,1.5-3.69,1.06-8.43,1.68-13.58,1.68-4.53,0-8.74-.49-12.2-1.32-1.13-.28-2.18-.58-3.13-.92-.85-.3-1.63-.63-2.32-.97l2.13-9.35.51-2.27s-2.05-1.9-4.02-4.83c-1.98-2.93-2.43-7.58-2.43-7.58l8.5.63h0c3.59,1.93,9.64,3.13,16.52,3.43,7.61.32,14.3-.8,17.86-2.75,0,.08,0,.17,0,.25,0,2.79-1.57,5.34-4.17,7.3-.45.34-.93.67-1.45.97l2.38,6.06,1.54,3.92Z"/>
  <path class="cls-2" d="m40.06,96.96s8.32,2.67,13.77,2.6c5.46-.06,11.05-1.51,11.05-1.51"/>
  <path class="cls-2" d="m35.3,79.07l-1.06,1.42c-.33.03-.64.02-.94-.06-.21-.04-.41-.11-.59-.21-.8-.38-1.5-1.19-2.11-2.4-1.35-2.66-2.3-7.27-3.13-13.79-.54-4.22-.63-8.21-.36-11.56.11-1.33.28-2.57.5-3.67.74-3.61,2.06-5.94,3.81-6.16.96-.12,1.95.41,2.92,1.5.48.55.95,1.23,1.4,2.04,0,0,0,0,0,.02.04.07.07.15.11.22"/>
  <path class="cls-2" d="m35.86,46.41s1.84,3.69,3.04,9.54c.35,2.13.58,4.41.66,6.8.13,4.9-.52,8.92-1.14,11.78"/>
  <g>
    <path class="cls-11" d="m137.18,37.11c5.7,0,10.32-4.62,10.32-10.32s-10.32-18.25-10.32-18.25c0,0-10.32,12.54-10.32,18.25s4.62,10.32,10.32,10.32Z"/>
    <path class="cls-10" d="m137.18,77.61c5.7,0,10.32-4.62,10.32-10.32s-10.32-18.25-10.32-18.25c0,0-10.32,12.54-10.32,18.25s4.62,10.32,10.32,10.32Z"/>
    <path class="cls-9" d="m137.18,118.11c5.7,0,10.32-4.62,10.32-10.32s-10.32-18.25-10.32-18.25c0,0-10.32,12.54-10.32,18.25s4.62,10.32,10.32,10.32Z"/>
  </g>
  <g>
    <path class="cls-8" d="m108.92,37.11c5.7,0,10.32-4.62,10.32-10.32s-10.32-18.25-10.32-18.25c0,0-10.32,12.54-10.32,18.25s4.62,10.32,10.32,10.32Z"/>
    <path class="cls-5" d="m108.92,77.61c5.7,0,10.32-4.62,10.32-10.32s-10.32-18.25-10.32-18.25c0,0-10.32,12.54-10.32,18.25s4.62,10.32,10.32,10.32Z"/>
    <path class="cls-7" d="m108.92,118.11c5.7,0,10.32-4.62,10.32-10.32s-10.32-18.25-10.32-18.25c0,0-10.32,12.54-10.32,18.25s4.62,10.32,10.32,10.32Z"/>
  </g>
  <g>
    <path class="cls-3" d="m165.45,37.11c5.7,0,10.32-4.62,10.32-10.32s-10.32-18.25-10.32-18.25c0,0-10.32,12.54-10.32,18.25s4.62,10.32,10.32,10.32Z"/>
    <path class="cls-4" d="m165.45,77.61c5.7,0,10.32-4.62,10.32-10.32s-10.32-18.25-10.32-18.25c0,0-10.32,12.54-10.32,18.25s4.62,10.32,10.32,10.32Z"/>
    <path class="cls-6" d="m165.45,118.11c5.7,0,10.32-4.62,10.32-10.32s-10.32-18.25-10.32-18.25c0,0-10.32,12.54-10.32,18.25s4.62,10.32,10.32,10.32Z"/>
  </g>
  <rect class="cls-12" x="-2137.38" y="-5543.69" width="6467.34" height="6437.3"/>
</svg>