<?xml version="1.0" encoding="UTF-8"?>
<svg id="Calque_1" data-name="Calque 1" xmlns="http://www.w3.org/2000/svg" viewBox="0 0 128 128.13">
  <defs>
    <style>
      .cls-1, .cls-2, .cls-3, .cls-4, .cls-5, .cls-6, .cls-7, .cls-8, .cls-9, .cls-10 {
        stroke-linecap: round;
        stroke-linejoin: round;
      }

      .cls-1, .cls-3, .cls-4, .cls-5, .cls-6, .cls-7, .cls-8, .cls-11, .cls-10 {
        stroke: #000;
      }

      .cls-1, .cls-4 {
        fill: #d6d6d6;
      }

      .cls-2 {
        stroke: #f3d587;
      }

      .cls-2, .cls-3, .cls-7, .cls-9, .cls-11, .cls-10 {
        fill: none;
      }

      .cls-12 {
        fill: #fab0b4;
      }

      .cls-13 {
        fill: #ff6d75;
      }

      .cls-4, .cls-5, .cls-6, .cls-7 {
        stroke-width: 2px;
      }

      .cls-5 {
        fill: #fce9b9;
      }

      .cls-6 {
        fill: #fff;
      }

      .cls-8, .cls-10 {
        stroke-width: 3px;
      }

      .cls-9 {
        stroke: #fff;
        stroke-width: 8px;
      }

      .cls-11 {
        stroke-miterlimit: 10;
      }
    </style>
  </defs>
  <g>
    <line class="cls-11" x1="69.98" y1="77.54" x2="57.35" y2="75.87"/>
    <path class="cls-7" d="m114.98,86.52l-37.01-5.21c.14-.23.27-.47.38-.71.56-1.19.75-2.53.54-3.84-.04-.26-.09-.52-.17-.78l37.01,5.21-.75,5.33Z"/>
    <path class="cls-5" d="m90.83,83.13l-12.86-1.81c.14-.23.27-.47.38-.71.56-1.19.75-2.53.54-3.84-.04-.26-.09-.52-.17-.78l12.86,1.81-.75,5.33Z"/>
    <path class="cls-7" d="m78.34,80.61l-2.65-.37-1.9-1.13-3.95-1.65,4.25-.49,2.14-.56,2.65.37c.21,1.31.02,2.65-.54,3.84Z"/>
    <line class="cls-10" x1="116.35" y1="77.84" x2="114.66" y2="89.92"/>
    <rect class="cls-8" x="94.64" y="80.99" width="13.03" height="1.75" transform="translate(196.31 -6.91) rotate(98.01)"/>
    <line class="cls-11" x1="86.73" y1="79.83" x2="86.35" y2="82.5"/>
    <line class="cls-11" x1="83.84" y1="79.43" x2="83.46" y2="82.09"/>
    <line class="cls-11" x1="80.92" y1="79.02" x2="80.55" y2="81.68"/>
  </g>
  <path class="cls-3" d="m14.56,99.76c-2.61-.27-.74-3.11,3.19-5.58s4.92-5.92,7.93-15.14c3-9.22,5.5-10.5,5.5-10.5,5.05-3.23,9.75-5.97,2.88-7.88-6.87-1.91-2.88-10.51-2.88-10.51,0,0-1.31-2.59.33-2.7,1.65-.11,2.01-1.85,2.01-1.85,0,0-3.9-10.97,9.33-14.2,13.22-3.23,19.51,7.51,20.48,14.36.97,6.85-2.66,13.75-13.6,15.92,0,0-1.42.57-.48,3.04.94,2.47,7.43,1.45,10.91,9.74,0,0,6.13,18.07-2.36,24.91,0,0-6.62,2.99-9.27,5.67-2.65,2.68-6.75,5.92-5.99,3.81.76-2.11,1.86-2.77,1.86-2.77"/>
  <path class="cls-3" d="m37.3,107.58c.79-.59,1.55-2.24,3.61-3.19"/>
  <path class="cls-3" d="m37.85,104.37s.02-.02.03-.02"/>
  <path class="cls-3" d="m51.92,75.59s-.64,11.99-.05,17.14c0,0-.92-.24-4.52,3.12-.11.1-.22.21-.33.32"/>
  <path class="cls-3" d="m42.05,106.07s-1.92,1.27-2.53,2.28h0"/>
  <path class="cls-3" d="m39.33,108.98c.17.97,3.89-1.76,4.11-1.91h0"/>
  <path class="cls-3" d="m39.5,108.37h0"/>
  <path class="cls-3" d="m26.53,114.14c-.35.19-.74.45-1.16.75-.27.18-.54.39-.85.62-5.46,4.15-3.19,10.2,2.8,6.15,5.98-4.06,30.05-.41,34.09-9.59,4.04-9.18-3.62-12.7-3.62-12.7"/>
  <line class="cls-3" x1="44.75" y1="98.68" x2="44.76" y2="98.68"/>
  <path class="cls-1" d="m27.94,96.9s4.25,3.83,16.81,1.79c.68-.82,1.43-1.68,2.27-2.5-.72.04-15.3.7-18.15-1.81l-.7,1.91-.23.62Z"/>
  <path class="cls-3" d="m47.03,96.18h.03"/>
  <path class="cls-1" d="m26.53,114.14c3.4-2.01,3.57-.07,7.82-2.42l4.97-2.73c-.04-.18.04-.4.18-.62-.18.13-2.6,1.8-2.2-.78-.36.27-.72.31-1.22,0-1.5-.98,1.45-3.01,1.76-3.21-1.93.93-3.57-1.45.83-1.19,2.43.15,4.01-2.02,6.08-4.5-12.56,2.04-16.81-1.79-16.81-1.79,0,0-5.38,11.12-1.41,17.24Z"/>
  <path class="cls-3" d="m33.16,71.5s-5.11,14.66-4.29,22.87"/>
  <path class="cls-3" d="m28.96,87.99l-4.16,6.28s.76,7.88-.91,5.83c-1.67-2.05-1.04-5.07-3.28-2.56-2.24,2.51-1.83,4.17-2.7,2.53s.83-3.73.83-3.73"/>
  <path class="cls-3" d="m17.76,98.21s-4.16,4.57-2.31.38l1.46-2.25"/>
  <line class="cls-3" x1="28.17" y1="96.28" x2="24.99" y2="95.24"/>
  <path class="cls-3" d="m25.38,114.89s-1.79-1.5-3.32-3.71"/>
  <path class="cls-3" d="m23.18,116.24s.69-.96-2.42-1.38"/>
  <path class="cls-3" d="m18.49,93.63s-11-2.79-9.95,5.09c1.05,7.88,4.94,14.87,4.94,14.87"/>
  <path class="cls-3" d="m16.93,114.14s-8.18-1.11-9.65-.15c-1.05.69-3.02,8.99,14.04,6.67"/>
  <path class="cls-3" d="m22.32,115.09s-.11-2.01-.54-7.42c-.43-5.41-.63-5.61-.63-5.61"/>
  <path class="cls-3" d="m18.3,102.3s1.94-.55,3.44,6"/>
  <path class="cls-3" d="m49.24,52.31s3.7,1.24,1.57,4.28c-2.13,3.04-4.01.36-4.01.36"/>
  <circle cx="36.22" cy="47.48" r=".86"/>
  <path class="cls-3" d="m38.77,45.56s-.24-2.22-2.55-2.08"/>
  <line class="cls-3" x1="46.8" y1="77.41" x2="45.67" y2="77.41"/>
  <line class="cls-3" x1="36.21" y1="76.48" x2="35.12" y2="76.22"/>
  <line class="cls-3" x1="49.13" y1="55.18" x2="48.39" y2="54.84"/>
  <path class="cls-13" d="m32.51,54.7s-.01,0,0,.02c.01.65.48,1.35,1.45,1.58.79.2,1.38.05,1.81-.17,0,0,0-.01-.01-.03,0-.02-.02-.05-.04-.09-.04-.07-.09-.17-.17-.3-.03-.04-.06-.08-.09-.13-.06-.08-.13-.17-.22-.27-.17-.17-.39-.35-.67-.48-.07-.03-.14-.07-.22-.09-.05-.03-.11-.04-.17-.05-.44-.13-.99-.16-1.67,0Z"/>
  <polygon class="cls-12" points="33.41 53.97 33.41 53.97 33.41 53.97 33.41 53.97"/>
  <path class="cls-12" d="m32.49,55.08c.68-.17,1.23-.14,1.67,0,.06,0,.12.03.17.05.08.02.15.06.22.09.28.14.5.31.67.48.09.09.16.17.22.27.04.04.07.09.09.13.08.12.13.23.17.3.02.04.04.07.04.09,0,.02.01.03.01.03.6-.31.87-.78.87-.78.54-1.61-2.23-1.92-2.23-1.92-1.26-.27-1.93.47-1.91,1.27Z"/>
  <path class="cls-12" d="m32.48,55.18h.03s0,0,0,0c0,0-.02,0-.03,0Z"/>
  <path class="cls-11" d="m34.78,56.58s-2.77-.31-2.23-1.92c0,0,.28-.47.87-.78.43-.22,1.02-.37,1.81-.17.97.23,1.44.93,1.45,1.58,0,.01,0,.02,0,.02.03.8-.64,1.54-1.91,1.27Z"/>
  <path class="cls-3" d="m35.36,35.45s3.27,7.47,10.31,8.03c0,0-1.43,4.32,3.8,5.73"/>
  <circle class="cls-2" cx="55.9" cy="75.59" r=".22"/>
  <path class="cls-7" d="m109.06,57.79c0,2.51-5.47,4.54-12.22,4.54s-12.21-2.03-12.21-4.54v-23.8c0-1.51.84-2.9,2.18-3.6.02-.01.05-.03.07-.04,1.63-.85,2.65-2.53,2.65-4.36v-2.57h14.62v2.58c0,1.83,1.02,3.51,2.64,4.36l.09.05c1.34.7,2.18,2.08,2.18,3.59,0,6.52,0,23.79,0,23.79Z"/>
  <path class="cls-5" d="m109.06,57.79c0,2.51-5.47,4.54-12.22,4.54s-12.22-2.03-12.22-4.54v-22.87c1.82,2.5,5.47,2.84,12.22,2.84s9.89-.35,12.21-2.73c0,7.15,0,22.76,0,22.76Z"/>
  <path class="cls-6" d="m103.91,34.06v20.96c-.87.4-1.9.75-3.08,1.02-1.88.43-4.09.69-6.47.69s-4.59-.25-6.47-.69c-1.26-.29-2.37-.67-3.26-1.1v-20.95c2.23.79,5.75,1.3,9.72,1.3s7.31-.48,9.56-1.23Z"/>
  <path class="cls-4" d="m88.36,16.59h16.96c.78,0,1.4.63,1.4,1.4v4.01c0,.78-.63,1.41-1.41,1.41h-16.96c-.78,0-1.4-.63-1.4-1.4v-4.01c0-.78.63-1.41,1.41-1.41Z"/>
  <rect class="cls-13" x="91.43" y="40.26" width="3.58" height="10.22"/>
  <rect class="cls-13" x="91.44" y="40.26" width="3.57" height="10.22" transform="translate(47.85 138.59) rotate(-90)"/>
  <rect class="cls-9" x="-3026.85" y="-2118.09" width="6467.34" height="6437.3"/>
</svg>