<?xml version="1.0" encoding="UTF-8"?>
<svg id="Calque_1" data-name="Calque 1" xmlns="http://www.w3.org/2000/svg" viewBox="0 0 128 128">
  <defs>
    <style>
      .cls-1 {
        fill: #ff6d75;
      }

      .cls-2 {
        fill: #d6d6d6;
      }

      .cls-2, .cls-3, .cls-4, .cls-5, .cls-6, .cls-7, .cls-8, .cls-9 {
        stroke-linecap: round;
      }

      .cls-2, .cls-3, .cls-4, .cls-5, .cls-6, .cls-7, .cls-10, .cls-9 {
        stroke: #000;
      }

      .cls-2, .cls-3, .cls-4, .cls-5, .cls-6, .cls-8, .cls-9 {
        stroke-linejoin: round;
      }

      .cls-2, .cls-3, .cls-4, .cls-5, .cls-7 {
        stroke-width: 2px;
      }

      .cls-3, .cls-11 {
        fill: #fce9b9;
      }

      .cls-4 {
        fill: #fff;
      }

      .cls-5, .cls-7, .cls-8, .cls-10, .cls-9 {
        fill: none;
      }

      .cls-6, .cls-9 {
        stroke-width: 3px;
      }

      .cls-11 {
        stroke: #fce9b9;
      }

      .cls-11, .cls-7, .cls-10 {
        stroke-miterlimit: 10;
      }

      .cls-8 {
        stroke: #fff;
        stroke-width: 8px;
      }
    </style>
  </defs>
  <path class="cls-7" d="m18.66,6.92s17.8,7.45,20.91,35.61c0,0,18.22,30.43,21.95,48.24"/>
  <path class="cls-7" d="m60.19,85.58s12.48,11.63,16.23,16.99c5.22,7.47,11.18,19.67,11.18,19.67"/>
  <path class="cls-7" d="m16.79,66.34s10.77,22.15,30.85,32.71"/>
  <path class="cls-7" d="m39.8,94.26s7.77,20.25,13.57,28.32"/>
  <g>
    <line class="cls-10" x1="41.23" y1="31.1" x2="28.6" y2="29.44"/>
    <path class="cls-5" d="m86.22,40.09l-37.01-5.21c.14-.23.27-.47.38-.71.56-1.19.75-2.53.54-3.84-.04-.26-.09-.52-.17-.78l37.01,5.21-.75,5.33Z"/>
    <path class="cls-3" d="m62.08,36.7l-12.86-1.81c.14-.23.27-.47.38-.71.56-1.19.75-2.53.54-3.84-.04-.26-.09-.52-.17-.78l12.86,1.81-.75,5.33Z"/>
    <path class="cls-5" d="m49.59,34.18l-2.65-.37-1.9-1.13-3.95-1.65,4.25-.49,2.14-.56,2.65.37c.21,1.31.02,2.65-.54,3.84Z"/>
    <line class="cls-9" x1="87.6" y1="31.41" x2="85.9" y2="43.49"/>
    <rect class="cls-6" x="65.89" y="34.56" width="13.03" height="1.75" transform="translate(117.58 -31.33) rotate(98.01)"/>
    <line class="cls-10" x1="57.97" y1="33.4" x2="57.6" y2="36.07"/>
    <line class="cls-10" x1="55.08" y1="33" x2="54.71" y2="35.66"/>
    <line class="cls-10" x1="52.17" y1="32.59" x2="51.79" y2="35.25"/>
  </g>
  <path class="cls-5" d="m115.66,90.5c0,2.51-5.47,4.54-12.22,4.54s-12.21-2.03-12.21-4.54v-23.8c0-1.51.84-2.9,2.18-3.6.02-.01.05-.03.07-.04,1.63-.85,2.65-2.53,2.65-4.36v-2.57h14.62v2.58c0,1.83,1.02,3.51,2.64,4.36l.09.05c1.34.7,2.18,2.08,2.18,3.59,0,6.52,0,23.79,0,23.79Z"/>
  <path class="cls-3" d="m115.66,90.5c0,2.51-5.47,4.54-12.22,4.54s-12.22-2.03-12.22-4.54v-22.87c1.82,2.5,5.47,2.84,12.22,2.84s9.89-.35,12.21-2.73c0,7.15,0,22.76,0,22.76Z"/>
  <path class="cls-4" d="m110.51,66.78v20.96c-.87.4-1.9.75-3.08,1.02-1.88.43-4.09.69-6.47.69s-4.59-.25-6.47-.69c-1.26-.29-2.37-.67-3.26-1.1v-20.95c2.23.79,5.75,1.3,9.72,1.3s7.31-.48,9.56-1.23Z"/>
  <path class="cls-2" d="m94.97,49.31h16.96c.78,0,1.4.63,1.4,1.4v4.01c0,.78-.63,1.41-1.41,1.41h-16.96c-.78,0-1.4-.63-1.4-1.4v-4.01c0-.78.63-1.41,1.41-1.41Z"/>
  <rect class="cls-1" x="98.03" y="72.97" width="3.58" height="10.22"/>
  <rect class="cls-1" x="98.04" y="72.97" width="3.57" height="10.22" transform="translate(21.74 177.9) rotate(-90)"/>
  <circle class="cls-11" cx="24.78" cy="28.73" r=".94"/>
  <rect class="cls-8" x="-3814.6" y="-2339.75" width="6467.34" height="6437.3"/>
</svg>