<?xml version="1.0" encoding="UTF-8"?>
<svg id="Calque_1" data-name="Calque 1" xmlns="http://www.w3.org/2000/svg" viewBox="0 0 128 128">
  <defs>
    <style>
      .cls-1 {
        fill: #ffbeed;
      }

      .cls-1, .cls-2, .cls-3 {
        stroke: #000;
      }

      .cls-1, .cls-2, .cls-3, .cls-4 {
        stroke-linecap: round;
        stroke-linejoin: round;
      }

      .cls-2 {
        fill: #fee4cb;
      }

      .cls-3 {
        fill: #fff;
      }

      .cls-4 {
        fill: none;
        stroke: #fff;
        stroke-width: 8px;
      }
    </style>
  </defs>
  <g>
    <path class="cls-3" d="m82.01,83.76c.01.46-.06.96-.17,1.47l-.66-5.66s.77,2.15.83,4.19Z"/>
    <path class="cls-3" d="m69.64,77.97l-.13,2.91c-.11-1.64.13-2.91.13-2.91Z"/>
    <path class="cls-3" d="m32.59,97.17s-1.1-.13-2.01-.26c-.91-.13-1.23-2.01-1.23-2.01l-4.53-8.83c.63.34,1.35.68,2.15.94l-.31,1.58c-.13.6.27,1.18.87,1.31h.13c.6.14,1.2-.26,1.31-.86l.3-1.5c.87.13,1.78.14,2.75.01h.01s.1.19.1.19h0c.2.74.43,1.57.66,2.47.76,2.88,1.8,3.41,1.8,3.41,0,0,2.82.83,3.85,1.91,2.14,2.22,2.41,6.63,2.41,6.63h-9.94v-2.21c0-1.17,1.68-2.79,1.68-2.79Z"/>
    <path class="cls-3" d="m32.13,87.76l-.1-.19h.06c.01.06.03.11.04.19Z"/>
    <path class="cls-3" d="m77.98,104.2s-.61.06-3.12.33c-2.51.27-4.41-.67-4.41-.67,0,0,.13-2.65-.27-3.81-.41-1.16-2.45-2.78-2.45-2.78l1.91-2.78s.13-3.19-.17-5.63c-.2-1.71-1.2-5.92-1.78-8.28.09.01.16.01.2.03.6.1,1.13.21,1.63.34.13,1.77.67,3.95,2.38,5.43.76.66,1.4,1.23,1.94,1.7-.21.97-.41,2.05-.47,2.95-.13,2.24.76,6.39.76,6.39,0,0,.87.33,2.37,2.02,1.5,1.7,1.5,4.76,1.5,4.76Z"/>
    <path class="cls-3" d="m69.61,80.98s-.07-.01-.1-.03v-.07s.1.1.1.1Z"/>
    <path class="cls-1" d="m39.56,84.95l-.06.1c-.31.54-1,.73-1.53.41l-1.24-.71c-.67.93-1.45,1.73-2.35,2.18l.71,1.24c.31.54.13,1.23-.41,1.53l-.1.07c-.54.3-1.23.11-1.53-.41l-.93-1.58h0c-.01-.09-.03-.14-.04-.2h-.07c-.97.13-1.88.11-2.75-.01l-.3,1.5c-.11.6-.71,1-1.31.87h-.13c-.6-.14-1-.73-.87-1.33l.31-1.58c-.8-.26-1.53-.6-2.15-.94-.37-.2-.71-.41-1.03-.61.1-.21.23-.44.37-.67.47-.81,1.04-1.7,1.63-2.55.27-.39.54-.77.81-1.14t.01-.01c.09-.07.17-.16.27-.23.06-.04.67-.54,1.31-1,2.62-1.88,3.98-2.85,5.49-2.61,1.25.21,3.14,1.34,3.39,1.5.68.41,1.38.77,2.07,1.1-.3.87-.7,1.88-1.2,2.88l1.2.7c.54.3.73.98.41,1.53Z"/>
    <path class="cls-3" d="m32.13,87.76l-.1-.19h.06c.01.06.03.11.04.19Z"/>
    <path class="cls-3" d="m12.48,83.2c-.64,3.95-4.08,4.76-4.08,4.76,0,0-1.2-3.56-.54-6.82.39-1.9,3.18-3.25,3.85-5.2,0,0,1.18,4.72.77,7.26Z"/>
    <path class="cls-3" d="m10.54,46.87c-.8,1.2-1.5,3.04-1.44,5.7.11,5.72,2.79,10.34,3.28,14.17.48,3.84,0,7.24-.67,9.2"/>
    <path class="cls-3" d="m12.38,44.96s-.97.53-1.84,1.9"/>
    <path class="cls-3" d="m69.51,80.88l.13-2.91s-.24,1.27-.13,2.91Zm11.68-1.31l.66,5.66c.11-.51.19-1.01.17-1.47-.06-2.04-.83-4.19-.83-4.19Z"/>
    <path class="cls-3" d="m120.95,57.23c-.29.5-.57.68-2.11,1.85-2.57,1.95-2.4,1.91-2.61,2-2.02.83-4.92.17-6.22-1.5-.48-.61-.46-1-.76-1.43h0c-.07-.16-.19-.29-.36-.44-.43-.36-1.23-.86-3.74-.87-2.4,0-2.15.31-3.49.44-1.25,0-1.5-.19-1.81-.36-1.73.7-3.42,1.7-4.15,3.07-.16.31-.27.64-.33.98-.06.39.04.19.09,1.45v.2c.06,1.93-.17,3.55-.43,4.75-.16.74-.33,1.31-.44,1.7-.03.09-.04.11-.06.19-1.11,3.39-3.61,5.29-4.48,5.89-1.7,1.17-2.3.93-2.71,1.81-.58,1.24.47,2.05.27,3.89-.19,1.71-1.34,3.34-2.72,4.06-.7.39-1.51.54-3.07.3.11-.51.19-1.01.17-1.47-.06-2.04-.83-4.19-.83-4.19l.66,5.66c-.43,1.75-1.44,3.68-1.54,4.98-.13,1.65,1.01,3.18,1.01,3.18l.23.19c1.2,1.01,1.91,2.5,1.95,4.06l.11,3.19s2.17.96,3.25,2.37c1.08,1.4.37,3.62.37,3.62,0,0-6.05.26-6.69,0-.63-.26-1.91-2.41-1.91-3.36,0-.96.84-2.42-.44-4.41-.76-1.18-1.74-1.88-2.4-2.25-.36-.21-.46-.68-.19-1.01l1.5-1.88-.76-3.51s-.68-.68-2.52-2.31c-.54-.47-1.18-1.04-1.94-1.7-1.71-1.48-2.25-3.66-2.38-5.43.03.01.07.01.1.03l-.1-.1.13-2.91s-.24,1.27-.13,2.91v.07c-.5-.13-1.03-.24-1.63-.34-.04-.01-.11-.01-.2-.03-.66-.1-2.32-.34-4.48-.29-2.87.06-4.46.57-7.13,1.06-4.12.77-6.17,1.15-8.73.91,0,0-3.92-.39-8.2-2.41-.68-.33-1.38-.68-2.07-1.1-.26-.16-2.14-1.28-3.39-1.5-1.51-.24-2.87.73-5.49,2.61-.64.46-1.25.96-1.31,1-.1.07-.19.16-.27.23t-.01.01c-.27.37-.54.76-.81,1.14-.58.86-1.15,1.74-1.63,2.55-.14.23-.27.46-.37.67-.43.77-.7,1.43-.76,1.87-.26,2.15-.3,5.19.4,6.97.7,1.78,3.62,3.69,3.62,3.69h-2.3s-.64,1.87-.64,1.87c0,0,1.75.37,2.42,1.41.93,1.41,1.47,3.36,1.47,3.36h-7.9s-2.37-.34-2.45-3.18c-.04-1.24,1.06-3.05,1.06-3.05l-2.11-.26s0-3.69,0-6.12c0-1.88.64-4.83.91-6.82h0c.09-.61.14-1.11.13-1.47-.06-1.51.04-3.02.17-4.08v-.03c.04-.87.13-1.74.1-2.18-.13-1.61.17-2.59-1.01-6.07-2.57-7.6-.44-8.16-3.11-13.42-1.27-2.54-2.4-3.68-2.98-6.59-.03-.16-.07-.37-.11-.64h0c-.17-.97-.37-2.48-.16-3.88h0c.14-1.03.51-1.97,1.27-2.57.37-.3.84-.51,5.48-.5,1.55.01,2.52.03,3.19.06,1.13.03,1.4.06,2.14-.06,3.65-.54,3.61-2.17,6.22-2.24,2.4-.07,3.17,1.25,5.87,1.87.43.1.91.19,1.47.24,1.51.16,2.54-.09,3.72-.11,3.58-.1,8.47-.24,14.05-.13,3.32.07,5.4.2,6.87.27,2.31.11,3.05.13,4.56-.4,3.34-1.14,3.84-2.55,6.84-2.85,2.44-.26,3.31.56,5.75,1.27.73.21,1.61.41,2.71.58,1.83.29,4.31.67,7.12.2.84-.14,1.7-.37,2.58-.68.94-.34,2.18-.8,3.47-1.57,1.01,2.24,2.65,4.68,5.02,4.65,4.36-.03,5.53-2.38,5.53-2.38,0,0,.11-1.08-.54-1.78-1.57-1.65-2.68-.5-2.68-.5,0,0-2.24,1.14-3.68.5-.73-.31-1.5-.87-2.21-1.47.63-.5,1.24-1.1,1.8-1.81.98-1.24,1.5-2.5,3.11-3.22.77-.36,1.71-.4,3.61-.5,2.5-.13,3.76-.19,4.85.5.27.17.77.73,1.74,1.87l2.74,3.95c.2,1.24-.5,1.94,0,3.75.19.68,1,1.78,2.61,3.98.76,1.03,1.31,1.78,1.77,2.37.44.56.77.94,1.1,1.24,1.47,1.35,2.17,1.4,2.61,2.48.44,1.08.3,2.4-.26,3.36Z"/>
    <path class="cls-2" d="m104.4,42.52s-1.17,2.35-5.53,2.38c-2.37.03-4.01-2.41-5.02-4.65-.8-1.78-1.2-3.44-1.24-3.65.2.21,1.33,1.53,2.68,2.67.71.6,1.48,1.15,2.21,1.47,1.44.64,3.68-.5,3.68-.5,0,0,1.11-1.16,2.68.5.66.7.54,1.78.54,1.78Z"/>
    <path class="cls-2" d="m116.36,34.59c-.44,2.47-2.01,4.33-3.24,5.46l-2.74-3.95s1.93-1.14,2.75-3.12c.71-1.7.37-5.53.37-5.53,0,0,3.59,2.98,2.85,7.14Z"/>
    <path class="cls-3" d="m95,51.54c.27.72.73,1.7,1.53,2.7,1.18,1.47,2.51,2.28,3.33,2.69"/>
    <path d="m110.27,45.41c0,.68-.56,1.23-1.24,1.23s-1.23-.54-1.23-1.23.56-1.24,1.23-1.24c.68,0,1.24.56,1.24,1.24Z"/>
    <path d="m62.98,54.21c-.37,1.11-1.14,2.02-2.71,3.85-2.52,2.94-3.25,2.85-3.84,4.39-.77,2.04.26,2.81-.67,4.52-1.07,1.95-3.27,2.58-3.74,2.71-3.04.87-5.6-.77-5.97-1.01-3.28-2.18-3.76-6.42-3.84-7.23-.26-2.8.81-3.98-.23-5.65-.61-.98-1.21-.93-3.39-2.48-1.63-1.17-3.09-2.22-3.84-3.38-1.07-1.71-.9-4.26-.04-6.5.43.1.91.19,1.47.24,1.51.16,2.54-.09,3.72-.11,3.58-.1,8.47-.24,14.05-.13,3.32.07,5.4.2,6.87.27,1,1.94,1.6,4.06,1.7,4.42.63,2.24,1.13,4.06.46,6.09Z"/>
    <path d="m28.44,72.51c-.39,1.95-2.07,2.41-5.08,5.19,0,0-2.24,2.07-3.95,4.41-.78,1.07-1.4,2.12-1.9,3.11.09-.6.14-1.1.13-1.45-.06-1.51.04-3.02.17-4.08v-.03c.04-.87.13-1.74.1-2.18-.13-1.61.17-2.59-1.01-6.07-2.57-7.6-.44-8.16-3.11-13.42-1.27-2.54-2.4-3.68-2.98-6.59-.03-.16-.07-.37-.11-.64h0c-.17-.97-.37-2.48-.16-3.88h0c.14-1.03.51-1.97,1.27-2.57.37-.3.84-.51,5.48-.5,1.55.01,2.52.03,3.19.06.44,1.28.5,2.75,1.98,4.49,1.11,1.31,1.84,1.35,2.6,2.71,1.03,1.85.77,3.82.67,4.51-.09.67-.43,3.27-2.37,5.09-.71.66-1.47,1.08-1.81,2.14-.07.23-.4,1.27.11,1.92.6.74,1.64.13,3.05.67,1.43.56,2.15,1.9,2.71,2.94.5.93,1.34,2.51,1.01,4.18Z"/>
    <path d="m95.72,60c-.29-.31-.6-.66-.91-1.04-1.54-1.87-2.51-3.04-2.6-4.75-.11-2.11,1.24-3.18.57-4.51-.56-1.08-1.65-.76-2.94-1.7-1.87-1.37-1.61-3.59-2.04-5.5-2.81.47-5.29.09-7.12-.2-1.1-.17-1.98-.37-2.71-.58-1.04,1.38-1.47,3.09-1.45,4.49.04,3.29,2.6,4.82,1.7,6.76-.64,1.37-2.12,1.11-2.6,2.6-.51,1.61.97,2.7.33,3.95-.1.21-.4.67-2.82,1.47-3.12,1.04-4.29.81-4.62,1.58-.37.88.57,2.51,1.93,3.17,2.04.98,3.69-.94,5.52.11,1.24.7,1.63,2.22,1.81,2.94.7,2.68-.8,4.38,0,5.08.7.6,2.65-.03,3.61-1.24.91-1.17.26-2.02,1.13-3.17.66-.86,1.73-1.14,3.85-1.7,1.63-.41,2.72-.7,4.28-.78,1.97-.11,3.35.19,4.42.41l.67-7.39Z"/>
    <path d="m120.95,57.23c-.29.5-.57.68-2.11,1.85-2.57,1.95-2.4,1.91-2.61,2-2.02.83-4.92.17-6.22-1.5-.48-.61-.46-1-.76-1.43h0c.07-.67.07-1.2.51-1.7.51-.58,1.24-.61,2.98-.84,2.08-.29,3.14-.41,3.44-.64,1.51-1.15.41-3.75,1.31-4.83.44.56.77.94,1.1,1.24,1.47,1.35,2.17,1.4,2.61,2.48.44,1.08.3,2.4-.26,3.36Z"/>
  </g>
  <rect class="cls-4" x="-98.31" y="-164.33" width="3385.57" height="2571.67"/>
</svg>