<?xml version="1.0" encoding="UTF-8"?>
<svg id="Calque_1" data-name="Calque 1" xmlns="http://www.w3.org/2000/svg" viewBox="0 0 260 128">
  <defs>
    <style>
      .cls-1, .cls-2, .cls-3, .cls-4 {
        stroke: #000;
      }

      .cls-1, .cls-4, .cls-5 {
        fill: none;
      }

      .cls-1, .cls-5 {
        stroke-linecap: round;
        stroke-linejoin: round;
      }

      .cls-2, .cls-3, .cls-4 {
        stroke-miterlimit: 10;
        stroke-width: 1.82px;
      }

      .cls-2, .cls-6 {
        fill: #1d1d1b;
      }

      .cls-3 {
        fill: #baa584;
      }

      .cls-5 {
        stroke: #fff;
        stroke-width: 8px;
      }
    </style>
  </defs>
  <g>
    <path class="cls-4" d="m105.88,57.13h67.46c.94,0,1.71.77,1.71,1.71v16.76c0,.75-.61,1.36-1.36,1.36h-68.02c-.71,0-1.28-.57-1.28-1.28v-17.06c0-.82.67-1.49,1.49-1.49Z" transform="translate(279.45 134.08) rotate(-180)"/>
    <path class="cls-3" d="m176.51,57.13h67.46c.94,0,1.71.77,1.71,1.71v16.76c0,.75-.61,1.36-1.36,1.36h-68.02c-.71,0-1.28-.57-1.28-1.28v-17.06c0-.82.67-1.49,1.49-1.49Z" transform="translate(420.7 134.08) rotate(-180)"/>
    <path class="cls-6" d="m105.43,64.64h53.17c.94,0,1.71.77,1.71,1.71v1.74c0,.75-.61,1.36-1.36,1.36h-53.73c-.71,0-1.28-.57-1.28-1.28v-2.04c0-.82.67-1.49,1.49-1.49Z" transform="translate(264.25 134.08) rotate(-180)"/>
    <path class="cls-2" d="m105.84,57.13h24.48c.94,0,1.71.77,1.71,1.71v16.76c0,.75-.61,1.36-1.36,1.36h-25.04c-.71,0-1.28-.57-1.28-1.28v-17.06c0-.82.67-1.49,1.49-1.49Z" transform="translate(236.38 134.08) rotate(-180)"/>
    <path class="cls-3" d="m104.54,58.41v17.05c0,.82-.67,1.49-1.49,1.49h-23.91c-.75,0-1.85-.9-2.16-1.85-.03-.09-.15-.08-.17.01-.2,1.1-.9,1.91-2.29,1.83l-40.13-5.23c-.58,0-1.05-.76-1.05-1.7v-6.31c0-.75.38-1.35.84-1.35l40.47-5.23c.26,0,1.56.48,1.87,1.52.09.29.5.29.58,0,.32-1.07,1.17-1.52,1.68-1.52h24.47c.7,0,1.28.58,1.28,1.28Z"/>
    <rect class="cls-6" x="31.03" y="57.58" width="3.24" height="18.92" rx="1.31" ry="1.31" transform="translate(65.29 134.08) rotate(-180)"/>
    <path class="cls-1" d="m26.83,64.91c-.88-4.4-.13-8.37,2.49-12,1.09-1.5,2.25-3.04,2.65-4.85,1.07-4.83-6.19-8.46-8.61-3.7-1.01,1.99-.77,4.72,1,6.08"/>
    <path class="cls-1" d="m21.73,58.85c.27-2.02-.36-4.06-1.31-5.87-.94-1.8-2.19-3.43-3.27-5.15-1.59-2.53-2.86-5.38-2.84-8.37s1.6-6.1,4.36-7.25c.99-.41,2.14-.55,3.12-.13,1.48.63,2.23,2.48,1.82,4.03-.41,1.56-1.8,2.74-3.36,3.14"/>
  </g>
  <rect class="cls-5" x="-1120.19" y="-4971.2" width="6467.34" height="6437.3"/>
</svg>