<?xml version="1.0" encoding="UTF-8"?>
<svg id="Calque_1" data-name="Calque 1" xmlns="http://www.w3.org/2000/svg" viewBox="0 0 128 128">
  <defs>
    <style>
      .cls-1 {
        fill: #f3d587;
      }

      .cls-1, .cls-2, .cls-3, .cls-4, .cls-5, .cls-6, .cls-7 {
        stroke-linecap: round;
        stroke-linejoin: round;
      }

      .cls-1, .cls-2, .cls-3, .cls-4, .cls-5, .cls-8, .cls-9, .cls-10 {
        stroke: #000;
      }

      .cls-2, .cls-8 {
        fill: #fff;
      }

      .cls-3, .cls-6, .cls-7, .cls-11, .cls-10 {
        fill: none;
      }

      .cls-4 {
        fill: #8987f3;
      }

      .cls-4, .cls-5, .cls-6 {
        stroke-width: 2px;
      }

      .cls-5 {
        fill: #fce9b9;
      }

      .cls-6 {
        stroke: #f3d587;
      }

      .cls-8, .cls-9, .cls-11, .cls-10 {
        stroke-miterlimit: 10;
      }

      .cls-9 {
        fill: #87ccf3;
      }

      .cls-7 {
        stroke: #fff;
        stroke-width: 8px;
      }

      .cls-11 {
        stroke: #231f20;
      }
    </style>
  </defs>
  <circle class="cls-5" cx="35.02" cy="54.94" r="16.09"/>
  <path class="cls-1" d="m30.16,45.62l.83.89c.12.13.29.19.46.16l1.19-.18c.43-.06.75.39.54.78l-.58,1.06c-.08.15-.09.33-.01.49l.54,1.09c.19.39-.14.83-.57.75l-1.19-.23c-.17-.03-.34.02-.47.14l-.86.85c-.31.31-.83.12-.89-.31l-.15-1.21c-.02-.17-.13-.32-.28-.4l-1.07-.56c-.39-.2-.37-.76.02-.94l1.09-.51c.16-.07.27-.22.29-.39l.2-1.2c.07-.43.6-.59.9-.27Z"/>
  <path class="cls-8" d="m82.09,46.41s.14-.21.4-.45c1.12-1.06,3.4-1.33,4.13,1.16.5,1.7-1.68,5.43-1.41,6.17,0,0-5.79-2.94-3.12-6.87Z"/>
  <path class="cls-8" d="m111.27,58.41s.02-.25-.02-.6c-.19-1.53-1.78-3.18-3.92-1.73-1.47,1-2.16,5.25-2.83,5.65,0,0,6.34,1.41,6.78-3.32Z"/>
  <path class="cls-9" d="m73.67,71.27c-1.76,2.17-5.85,7.53-5.95,10.53,0,.06-.04.1-.1.11-1.12.05-11.35.86-11.07,12.24,0,.08-.07.15-.15.12-.94-.35-5.82-2-4.91,2.34,0,.02.01.04.03.06.38.4,5.33,5.54,8.58,3.58.02-.01.04-.03.05-.06.28-.59,4.22-8.7,10.51-5.86,0,0,10.92,2.31,5.7,10.71-.01.02-.03.03-.04.04-.38.22-4.84,2.9-.61,6.93,0,0,7.37,7.37,6.11,0l-1-2.79c-.03-.08.02-.16.1-.16.91-.05,5.55-.52,7.63-5.26h0s2.28-6.65.05-9.62c-.03-.04-.03-.08,0-.12.56-.68,5.89-7.28,5.89-11.7,0-.13.16-.17.22-.05.77,1.53,3.42,5.23,10.05,2.34,7.66-3.34,7.62-5.4,7.59-5.66,0-.02,0-.03-.02-.05l-2.89-4.33s-.07-.07-.12-.05c-.68.17-5.7,1.46-7.34,2.82-.09.07-.22-.01-.19-.12.43-1.52.97-6.11-6.08-10.93,0,0-4.95-4.9-14.77-5.83-1.41-.13-2.86.14-4.01.95-.6.42-1.12.97-1.33,1.67-.04.12-.2.13-.23,0-.37-1.81-1.51-6.7-3.19-8.12-.03-.03-.07-.03-.11-.02l-4.9,1.23c-.05.01-.09.05-.09.11-.05.99-.53,10.55,1.27,12.55,1.69,1.88,2.71,3.92,5.15,2.25.12-.08.25.06.17.17Z"/>
  <path class="cls-2" d="m67.87,51.9s-1.33-4.52-1.47-1.85c-.14,2.67.06,4.77.69,6.18l5.05-1.26s1.15-2.1.54-3.18c-.18-.31-.64-.27-.78.06-.18.43-.39,1.02-.39,1.43,0,0,.95-3.4.13-4.54-.23-.32-.74-.21-.83.17-.19.78-.48,2.21-.28,3.1,0,0,.02-2.37-.41-3.63-.13-.37-.64-.36-.76,0-.26.83-.55,2.24.04,3.39,0,0-.7-3.66-1.12-3.62-.91.09-.41,3.76-.41,3.76Z"/>
  <path class="cls-2" d="m114.94,75.24s4.2-2.14,2.36-.2c-1.84,1.93-3.51,3.23-4.96,3.74l-2.84-4.31s1.03-2.51,2.23-2.81c.35-.09.64.28.49.61-.19.42-.48.99-.77,1.27,0,0,1.82-3.02,3.21-3.21.39-.05.66.39.45.73-.43.67-1.28,1.86-2.06,2.33,0,0,1.71-1.65,2.92-2.19.35-.16.71.22.52.56-.42.76-1.25,1.93-2.49,2.3,0,0,3.14-2.01,3.4-1.68.56.72-2.45,2.88-2.45,2.88Z"/>
  <path class="cls-8" d="m97.06,65.27s-3.51,5.54-8.98,1.75c0,0-4.42-2.53-1.54-6.18l10.53,4.42Z"/>
  <path class="cls-11" d="m73.83,90.75s10.43-18.04,14.25-23.72"/>
  <path class="cls-8" d="m84.59,45.93c-1.43,5.83-4.38,10.95.21,13.81,4.14,2.58,13.82,8.77,16.92,6.8,4.75-3.01,20.47-21.26.95-28.67-.23-.09-6.24-2.74-8.65-2.48-4.06.44-7.77,3.76-9.44,10.55Z"/>
  <path d="m93.95,57.18c-.16.01-.31-.06-.41-.2-.3-.44-.43-.94-.33-1.36.06-.3.24-.56.49-.71.26-.16.54-.19.76-.21.24-.02.39-.04.53-.16.21-.16.33-.66.36-.96.02-.25.25-.44.49-.42.25.02.44.24.42.49,0,.11-.11,1.13-.7,1.6-.36.28-.73.32-1,.35-.16.02.05.27,0,.37,0,.02-.43-.25-.45-.17-.03.13,0,.38.19.64.15.21.09.49-.12.64-.07.05-.15.08-.23.08Z"/>
  <path class="cls-3" d="m88.64,49.37s1.51,2.34,3.56,2"/>
  <path class="cls-3" d="m103.39,57.17s-2.78-.18-3.48-2.13"/>
  <path class="cls-3" d="m90.42,58.72s.89,2.13,3.83,1.69"/>
  <path class="cls-3" d="m85.56,42.91s4.23,2.98,14.45,1.07"/>
  <path class="cls-3" d="m99.91,40.41s-1.89,9.79,10.58,15.81"/>
  <g>
    <path d="m79.15,28.2l4.83-6.11h-4.71v-1.67h7.16v1.58l-4.89,6.2h4.9v1.67h-7.29v-1.67Z"/>
    <path d="m87.09,28.62l3.62-4.58h-3.53v-1.25h5.37v1.19l-3.67,4.65h3.68v1.25h-5.47v-1.25Z"/>
    <path d="m93.06,28.83l3.02-3.82h-2.94v-1.05h4.47v.99l-3.06,3.87h3.07v1.04h-4.56v-1.04Z"/>
    <path d="m98.15,26.43v-.93h3.45v.95l-2.14,2.48h2.22v.94h-3.68v-.89l2.16-2.55h-2.01Z"/>
  </g>
  <path class="cls-4" d="m49.64,75.48h-29.18c-1.42,0-2.24-1.6-1.42-2.75l4.05-5.72c.33-.46.86-.74,1.42-.74h21.21c.58,0,1.11.28,1.44.76l3.92,5.72c.79,1.16-.04,2.73-1.44,2.73Z"/>
  <path class="cls-1" d="m41.96,53.97l.83.89c.12.13.29.19.46.16l1.19-.18c.43-.06.75.39.54.78l-.58,1.06c-.08.15-.09.33-.01.49l.54,1.09c.19.39-.14.83-.57.75l-1.19-.23c-.17-.03-.34.02-.47.14l-.86.85c-.31.31-.83.12-.89-.31l-.15-1.21c-.02-.17-.13-.32-.28-.4l-1.07-.56c-.39-.2-.37-.76.02-.94l1.09-.51c.16-.07.27-.22.29-.39l.2-1.2c.07-.43.6-.59.9-.27Z"/>
  <path class="cls-1" d="m33.24,59.74c-.4,1.02-1.39,1.74-2.55,1.74-1.51,0-2.74-1.23-2.74-2.74s1.23-2.74,2.74-2.74c.06,0,.13,0,.19,0-.12.31-.19.65-.19,1,0,1.45,1.12,2.64,2.55,2.73Z"/>
  <line class="cls-6" x1="12.44" y1="38.82" x2="16.77" y2="42.83"/>
  <line class="cls-6" x1="58.32" y1="40.82" x2="52.8" y2="42.91"/>
  <line class="cls-6" x1="25.1" y1="29.39" x2="27.04" y2="35.46"/>
  <line class="cls-6" x1="44.79" y1="28.97" x2="42.1" y2="34.73"/>
  <circle cx="26.83" cy="71.29" r=".98"/>
  <circle cx="29.89" cy="71.29" r=".98"/>
  <g>
    <line class="cls-10" x1="35.05" y1="108.23" x2="35.05" y2="83.04"/>
    <path d="m39.85,89.87c-.23.15-.54.08-.69-.15l-4.11-6.45-4.11,6.45c-.15.23-.46.3-.69.15s-.3-.46-.15-.69l4.53-7.11c.09-.14.25-.23.42-.23s.33.09.42.23l4.53,7.11c.05.08.08.18.08.27,0,.17-.08.33-.23.42Z"/>
  </g>
  <rect class="cls-7" x="-6113.51" y="-5822" width="6467.34" height="6437.3"/>
</svg>