<?xml version="1.0" encoding="UTF-8"?>
<svg id="Calque_1" data-name="Calque 1" xmlns="http://www.w3.org/2000/svg" viewBox="0 0 200 128">
  <defs>
    <style>
      .cls-1, .cls-2, .cls-3, .cls-4, .cls-5, .cls-6, .cls-7 {
        stroke: #000;
      }

      .cls-1, .cls-2, .cls-3, .cls-4, .cls-5, .cls-6, .cls-7, .cls-8 {
        stroke-linecap: round;
        stroke-linejoin: round;
      }

      .cls-1, .cls-3 {
        fill: #d6d6d6;
      }

      .cls-2, .cls-6, .cls-7, .cls-8 {
        fill: none;
      }

      .cls-3, .cls-4, .cls-5, .cls-6 {
        stroke-width: 2px;
      }

      .cls-4 {
        fill: #8987f3;
      }

      .cls-5 {
        fill: #fce9b9;
      }

      .cls-7 {
        stroke-width: .25px;
      }

      .cls-8 {
        stroke: #fff;
        stroke-width: 8px;
      }
    </style>
  </defs>
  <path class="cls-1" d="m151.86,28.39l-.86,3.13-5.45-1.51.88-3.13c.15-.53.7-.84,1.23-.69l.73.2,2.06.58.74.2c.53.15.84.7.69,1.23Z"/>
  <path class="cls-1" d="m150.66,26.54c-.05.16-.13.3-.23.43l-2.06-.58c-.01-.15-.01-.31.04-.48.18-.63.81-.99,1.44-.81.61.18.98.81.81,1.44Z"/>
  <g>
    <path class="cls-3" d="m70.16,56.42c-14.01,0-25.36,11.36-25.36,25.36s11.35,25.36,25.36,25.36,25.36-11.35,25.36-25.36-11.36-25.36-25.36-25.36Zm0,45.07c-10.89,0-19.71-8.82-19.71-19.71s8.82-19.71,19.71-19.71,19.71,8.83,19.71,19.71-8.83,19.71-19.71,19.71Z"/>
    <circle class="cls-6" cx="70.16" cy="81.78" r="19.71" transform="translate(-25.96 33.07) rotate(-22.5)"/>
    <circle class="cls-6" cx="70.16" cy="81.78" r="19.71" transform="translate(-25.96 33.07) rotate(-22.5)"/>
    <line class="cls-2" x1="70.15" y1="62.08" x2="70.15" y2="101.5"/>
    <line class="cls-2" x1="89.46" y1="81.79" x2="50.84" y2="81.79"/>
    <line class="cls-2" x1="56.74" y1="95.2" x2="83.57" y2="68.37"/>
    <line class="cls-2" x1="83.7" y1="95.33" x2="56.61" y2="68.24"/>
    <line class="cls-2" x1="88.24" y1="89.62" x2="52.06" y2="73.96"/>
    <line class="cls-2" x1="88.4" y1="74.33" x2="51.9" y2="89.24"/>
    <line class="cls-2" x1="62.32" y1="99.88" x2="77.99" y2="63.7"/>
    <line class="cls-2" x1="77.61" y1="100.04" x2="62.7" y2="63.54"/>
  </g>
  <g>
    <path class="cls-3" d="m164.56,56.42c-14,0-25.36,11.36-25.36,25.36s11.36,25.36,25.36,25.36,25.36-11.35,25.36-25.36-11.35-25.36-25.36-25.36Zm0,45.07c-10.88,0-19.71-8.82-19.71-19.71s8.83-19.71,19.71-19.71,19.71,8.83,19.71,19.71-8.82,19.71-19.71,19.71Z"/>
    <circle class="cls-6" cx="164.56" cy="81.78" r="19.71" transform="translate(-18.77 69.2) rotate(-22.5)"/>
    <circle class="cls-6" cx="164.56" cy="81.78" r="19.71" transform="translate(-18.77 69.2) rotate(-22.5)"/>
    <line class="cls-2" x1="164.56" y1="62.08" x2="164.56" y2="101.5"/>
    <line class="cls-2" x1="183.87" y1="81.79" x2="145.25" y2="81.79"/>
    <line class="cls-2" x1="151.15" y1="95.2" x2="177.98" y2="68.37"/>
    <line class="cls-2" x1="178.11" y1="95.33" x2="151.01" y2="68.24"/>
    <line class="cls-2" x1="182.65" y1="89.62" x2="146.47" y2="73.96"/>
    <line class="cls-2" x1="182.81" y1="74.33" x2="146.31" y2="89.24"/>
    <line class="cls-2" x1="156.73" y1="99.88" x2="172.39" y2="63.7"/>
    <line class="cls-2" x1="172.01" y1="100.04" x2="157.11" y2="63.54"/>
  </g>
  <path class="cls-6" d="m115.46,88.13c-.65.23-1.35.34-2.08.34s-1.43-.11-2.08-.34h4.15Z"/>
  <path class="cls-6" d="m122.05,72.23l-3.45,5.49c-1.21-1.55-3.09-2.54-5.22-2.54-3.67,0-6.64,2.98-6.64,6.64,0,.44.04.88.13,1.29h-6.34c-.04-.43-.06-.85-.06-1.29,0-3.87,1.7-7.34,4.39-9.71,1.25-1.1,2.73-1.98,4.34-2.53,1.31-.45,2.73-.7,4.19-.7,3.34,0,6.38,1.26,8.67,3.34Z"/>
  <path class="cls-6" d="m120.02,81.83c0,.44-.04.88-.13,1.29-.44,2.21-1.98,4.04-4.03,4.87-.12.06-.26.11-.41.15h-4.15c-2.25-.74-3.98-2.65-4.44-5.02-.09-.41-.13-.85-.13-1.29,0-3.67,2.98-6.64,6.64-6.64,2.13,0,4,.99,5.22,2.54.9,1.13,1.43,2.55,1.43,4.1Z"/>
  <path class="cls-6" d="m126.32,81.83c0,7.13-5.79,12.92-12.94,12.92-4.84,0-9.07-2.66-11.27-6.62h9.2c.65.23,1.35.34,2.08.34s1.43-.11,2.08-.34h2.75l2.26-2.59,5.57-6.38c.18.86.28,1.75.28,2.66Z"/>
  <path class="cls-6" d="m111.3,88.13h4.15c-.65.23-1.35.34-2.08.34s-1.43-.11-2.08-.34Z"/>
  <path class="cls-6" d="m120.47,83.11v2.43l-2.26,2.59h-2.75c.15-.04.29-.09.41-.15,2.05-.83,3.59-2.65,4.03-4.87h.58Z"/>
  <line class="cls-6" x1="113.38" y1="81.82" x2="113.38" y2="104.03"/>
  <rect class="cls-3" x="113.38" y="101.2" width="12.93" height="4.08"/>
  <path class="cls-5" d="m104.49,35.37h0c0,1.64-1.33,2.96-2.96,2.96h-19.5v-7.97h12.53l7.76,2.15c1.28.36,2.17,1.52,2.17,2.86Z"/>
  <path class="cls-4" d="m166.88,80.85l-4.75,1.61-13.72-28.32-.16-.4-.35.4-21.86,25.02-5.57,6.38v-2.43h-.58c.09-.41.13-.85.13-1.29,0-1.55-.53-2.98-1.43-4.1l3.45-5.49,11.33-18.09h-31.56l7.37,15.45c-1.61.55-3.09,1.43-4.34,2.53l-9.13-19.13-12.89,16.56c-4.3,5.52-.36,13.56,6.63,13.56h17.4c.46,2.36,2.19,4.28,4.44,5.02h-43.95c-.18,0-.34-.01-.5-.05h-.03c-.43-.05-.85-.23-1.21-.5-1.09-.85-1.29-2.43-.44-3.53l28.12-36.13-4.58-9.58h5.55l2.46,5.15,1.49,3.13h47.04l-6.08-14.5-.23-.58-6.81-1.88.95-3.5h.01l23.46,6.48-.96,3.49-10.52-2.9,21.8,47.62Z"/>
  <g>
    <polygon class="cls-5" points="167.99 35.04 167.8 35.74 166.83 39.24 166.64 39.94 155.42 36.84 155.6 36.14 156.57 32.65 156.77 31.93 167.99 35.04"/>
    <polygon class="cls-5" points="133.3 25.47 133.11 26.17 133.1 26.17 132.15 29.67 132.13 29.67 131.95 30.37 120.72 27.27 120.91 26.57 121.88 23.08 122.08 22.38 133.3 25.47"/>
  </g>
  <polygon class="cls-6" points="148.41 54.14 147.9 54.14 148.25 53.74 148.41 54.14"/>
  <path class="cls-6" d="m120.47,83.11v2.43l-2.26,2.59h-2.75c.15-.04.29-.09.41-.15,2.05-.83,3.59-2.65,4.03-4.87h.58Z"/>
  <path class="cls-6" d="m120.47,83.11v2.43l-2.26,2.59h-2.14l-.2-.15c2.05-.83,3.59-2.65,4.03-4.87h.58Z"/>
  <polyline class="cls-2" points="126.31 100.36 124.96 98.25 123.83 100.36 122.4 98.25 121.16 100.36 119.85 98.25 118.87 100.36 117.65 98.25 116.13 100.36 114.81 98.25 113.38 100.36"/>
  <line class="cls-7" x1="124.25" y1="22.97" x2="122.89" y2="27.87"/>
  <line class="cls-7" x1="125.45" y1="22.97" x2="124.09" y2="27.87"/>
  <line class="cls-7" x1="126.66" y1="22.97" x2="125.3" y2="27.87"/>
  <line class="cls-7" x1="127.87" y1="22.97" x2="126.51" y2="27.87"/>
  <line class="cls-7" x1="129" y1="23.29" x2="127.64" y2="28.18"/>
  <line class="cls-7" x1="130.03" y1="23.91" x2="128.67" y2="28.8"/>
  <line class="cls-7" x1="131.15" y1="24.22" x2="129.79" y2="29.11"/>
  <line class="cls-7" x1="158.81" y1="33" x2="157.45" y2="37.89"/>
  <line class="cls-7" x1="160.02" y1="33" x2="158.66" y2="37.89"/>
  <line class="cls-7" x1="161.23" y1="33" x2="159.87" y2="37.89"/>
  <line class="cls-7" x1="162.44" y1="33" x2="161.08" y2="37.89"/>
  <line class="cls-7" x1="163.56" y1="33.31" x2="162.2" y2="38.2"/>
  <line class="cls-7" x1="164.6" y1="33.93" x2="163.24" y2="38.83"/>
  <line class="cls-7" x1="165.72" y1="34.25" x2="164.36" y2="39.14"/>
  <line class="cls-2" x1="17.23" y1="49.58" x2="34.42" y2="49.58"/>
  <line class="cls-2" x1="10.68" y1="56.43" x2="27.87" y2="56.43"/>
  <line class="cls-2" x1="13.34" y1="63.28" x2="30.53" y2="63.28"/>
  <rect class="cls-8" x="-884.91" y="-3659.78" width="2244.45" height="5948.74"/>
</svg>