<?xml version="1.0" encoding="UTF-8"?>
<svg id="Calque_1" data-name="Calque 1" xmlns="http://www.w3.org/2000/svg" viewBox="0 0 200 128">
  <defs>
    <style>
      .cls-1, .cls-2, .cls-3, .cls-4, .cls-5, .cls-6, .cls-7 {
        stroke: #000;
      }

      .cls-1, .cls-2, .cls-3, .cls-4, .cls-5, .cls-6, .cls-7, .cls-8 {
        stroke-linecap: round;
        stroke-linejoin: round;
      }

      .cls-1, .cls-9, .cls-3 {
        fill: #d6d6d6;
      }

      .cls-2, .cls-6, .cls-7, .cls-8 {
        fill: none;
      }

      .cls-10, .cls-4 {
        fill: #ff6d75;
      }

      .cls-3, .cls-4, .cls-5, .cls-6 {
        stroke-width: 2px;
      }

      .cls-5 {
        fill: #fce9b9;
      }

      .cls-7 {
        stroke-width: .25px;
      }

      .cls-8 {
        stroke: #fff;
        stroke-width: 8px;
      }
    </style>
  </defs>
  <path class="cls-1" d="m129.18,38.96l-.66,2.38-4.15-1.15.67-2.38c.11-.4.53-.64.93-.52l.55.15,1.57.44.56.15c.4.11.64.53.52.93Z"/>
  <path class="cls-1" d="m128.26,37.55c-.04.12-.1.23-.17.32l-1.57-.44c0-.11,0-.24.03-.36.13-.48.62-.75,1.09-.62.47.13.74.62.62,1.09Z"/>
  <g>
    <path class="cls-3" d="m67.03,60.28c-10.66,0-19.29,8.64-19.29,19.29s8.63,19.29,19.29,19.29,19.29-8.63,19.29-19.29-8.64-19.29-19.29-19.29Zm0,34.28c-8.28,0-14.99-6.71-14.99-14.99s6.71-14.99,14.99-14.99,14.99,6.72,14.99,14.99-6.72,14.99-14.99,14.99Z"/>
    <circle class="cls-6" cx="67.03" cy="79.57" r="14.99" transform="translate(-25.35 31.71) rotate(-22.5)"/>
    <circle class="cls-6" cx="67.03" cy="79.57" r="14.99" transform="translate(-25.35 31.71) rotate(-22.5)"/>
    <line class="cls-2" x1="67.02" y1="64.58" x2="67.02" y2="94.57"/>
    <line class="cls-2" x1="81.71" y1="79.57" x2="52.34" y2="79.57"/>
    <line class="cls-2" x1="56.82" y1="89.78" x2="77.23" y2="69.37"/>
    <line class="cls-2" x1="77.33" y1="89.88" x2="56.72" y2="69.27"/>
    <line class="cls-2" x1="80.79" y1="85.53" x2="53.26" y2="73.62"/>
    <line class="cls-2" x1="80.9" y1="73.9" x2="53.14" y2="85.24"/>
    <line class="cls-2" x1="61.07" y1="93.34" x2="72.98" y2="65.81"/>
    <line class="cls-2" x1="72.69" y1="93.45" x2="61.35" y2="65.69"/>
  </g>
  <g>
    <path class="cls-3" d="m138.83,60.28c-10.65,0-19.29,8.64-19.29,19.29s8.64,19.29,19.29,19.29,19.29-8.63,19.29-19.29-8.63-19.29-19.29-19.29Zm0,34.28c-8.28,0-14.99-6.71-14.99-14.99s6.72-14.99,14.99-14.99,14.99,6.72,14.99,14.99-6.71,14.99-14.99,14.99Z"/>
    <circle class="cls-6" cx="138.83" cy="79.57" r="14.99" transform="translate(-19.88 59.19) rotate(-22.5)"/>
    <circle class="cls-6" cx="138.83" cy="79.57" r="14.99" transform="translate(-19.88 59.19) rotate(-22.5)"/>
    <line class="cls-2" x1="138.84" y1="64.58" x2="138.84" y2="94.57"/>
    <line class="cls-2" x1="153.52" y1="79.57" x2="124.15" y2="79.57"/>
    <line class="cls-2" x1="128.63" y1="89.78" x2="149.04" y2="69.37"/>
    <line class="cls-2" x1="149.14" y1="89.88" x2="128.53" y2="69.27"/>
    <line class="cls-2" x1="152.6" y1="85.53" x2="125.07" y2="73.62"/>
    <line class="cls-2" x1="152.72" y1="73.9" x2="124.96" y2="85.24"/>
    <line class="cls-2" x1="132.88" y1="93.34" x2="144.79" y2="65.81"/>
    <line class="cls-2" x1="144.51" y1="93.45" x2="133.17" y2="65.69"/>
  </g>
  <path class="cls-6" d="m101.48,84.4c-.49.17-1.03.26-1.58.26s-1.08-.09-1.58-.26h3.16Z"/>
  <path class="cls-6" d="m106.5,72.3l-2.63,4.18c-.92-1.18-2.35-1.93-3.97-1.93-2.79,0-5.05,2.26-5.05,5.05,0,.33.03.67.1.98h-4.82c-.03-.32-.05-.65-.05-.98,0-2.94,1.29-5.59,3.34-7.38.95-.84,2.07-1.5,3.3-1.92,1-.34,2.07-.53,3.19-.53,2.54,0,4.85.96,6.59,2.54Z"/>
  <path class="cls-6" d="m104.96,79.6c0,.33-.03.67-.1.98-.33,1.68-1.5,3.07-3.06,3.7-.09.05-.2.09-.31.11h-3.16c-1.71-.56-3.03-2.02-3.38-3.82-.07-.31-.1-.65-.1-.98,0-2.79,2.26-5.05,5.05-5.05,1.62,0,3.04.75,3.97,1.93.69.86,1.08,1.94,1.08,3.12Z"/>
  <path class="cls-6" d="m109.75,79.6c0,5.42-4.41,9.83-9.84,9.83-3.68,0-6.9-2.03-8.57-5.03h6.99c.49.17,1.03.26,1.58.26s1.08-.09,1.58-.26h2.09l1.72-1.97,4.23-4.85c.13.66.21,1.33.21,2.03Z"/>
  <path class="cls-6" d="m98.33,84.4h3.16c-.49.17-1.03.26-1.58.26s-1.08-.09-1.58-.26Z"/>
  <path class="cls-6" d="m105.3,80.58v1.85l-1.72,1.97h-2.09c.11-.03.22-.07.31-.11,1.56-.63,2.73-2.02,3.06-3.7h.44Z"/>
  <line class="cls-6" x1="99.91" y1="79.6" x2="99.91" y2="96.49"/>
  <rect class="cls-3" x="99.91" y="94.34" width="9.83" height="3.1"/>
  <path class="cls-5" d="m93.14,44.27h0c0,1.25-1.01,2.26-2.26,2.26h-14.84v-6.06h9.53l5.91,1.63c.98.27,1.65,1.16,1.65,2.17Z"/>
  <path class="cls-4" d="m140.6,78.86l-3.62,1.23-10.44-21.54-.12-.3-.27.3-16.62,19.03-4.23,4.85v-1.85h-.44c.07-.31.1-.65.1-.98,0-1.18-.4-2.26-1.08-3.12l2.63-4.18,8.62-13.76h-24.01l5.61,11.75c-1.23.42-2.35,1.08-3.3,1.92l-6.95-14.55-9.8,12.6c-3.27,4.2-.28,10.32,5.04,10.32h13.24c.35,1.8,1.67,3.25,3.38,3.82h-33.43c-.13,0-.26,0-.38-.04h-.02c-.32-.04-.65-.17-.92-.38-.83-.65-.98-1.85-.33-2.68l21.39-27.48-3.48-7.29h4.23l1.87,3.92,1.13,2.38h35.78l-4.62-11.03-.18-.44-5.18-1.43.72-2.66h0l17.84,4.93-.73,2.66-8-2.21,16.58,36.22Z"/>
  <g>
    <polygon class="cls-5" points="141.44 44.01 141.3 44.55 140.56 47.21 140.42 47.74 131.88 45.38 132.02 44.85 132.76 42.2 132.91 41.65 141.44 44.01"/>
    <polygon class="cls-5" points="115.06 36.73 114.91 37.27 114.9 37.27 114.18 39.93 114.17 39.93 114.03 40.46 105.49 38.1 105.63 37.57 106.37 34.92 106.52 34.38 115.06 36.73"/>
  </g>
  <polygon class="cls-6" points="126.55 58.54 126.16 58.54 126.43 58.24 126.55 58.54"/>
  <path class="cls-6" d="m105.3,80.58v1.85l-1.72,1.97h-2.09c.11-.03.22-.07.31-.11,1.56-.63,2.73-2.02,3.06-3.7h.44Z"/>
  <path class="cls-6" d="m105.3,80.58v1.85l-1.72,1.97h-1.63l-.15-.11c1.56-.63,2.73-2.02,3.06-3.7h.44Z"/>
  <line class="cls-7" x1="108.17" y1="34.84" x2="107.14" y2="38.56"/>
  <line class="cls-7" x1="109.09" y1="34.84" x2="108.06" y2="38.56"/>
  <line class="cls-7" x1="110.01" y1="34.84" x2="108.98" y2="38.56"/>
  <line class="cls-7" x1="110.93" y1="34.84" x2="109.9" y2="38.56"/>
  <line class="cls-7" x1="111.78" y1="35.07" x2="110.75" y2="38.8"/>
  <line class="cls-7" x1="112.57" y1="35.55" x2="111.54" y2="39.27"/>
  <line class="cls-7" x1="113.42" y1="35.79" x2="112.39" y2="39.51"/>
  <line class="cls-7" x1="134.46" y1="42.46" x2="133.43" y2="46.18"/>
  <line class="cls-7" x1="135.38" y1="42.46" x2="134.35" y2="46.18"/>
  <line class="cls-7" x1="136.3" y1="42.46" x2="135.27" y2="46.18"/>
  <line class="cls-7" x1="137.22" y1="42.46" x2="136.19" y2="46.18"/>
  <line class="cls-7" x1="138.08" y1="42.7" x2="137.04" y2="46.42"/>
  <line class="cls-7" x1="138.86" y1="43.17" x2="137.83" y2="46.9"/>
  <line class="cls-7" x1="139.72" y1="43.41" x2="138.68" y2="47.13"/>
  <g>
    <path class="cls-10" d="m58.7,94.57c0,3.51-2.85,6.35-6.36,6.35s-6.36-2.84-6.36-6.35,2.85-6.36,6.36-6.36,6.36,2.85,6.36,6.36Z"/>
    <g>
      <path class="cls-9" d="m52.34,103.75c-5.06,0-9.18-4.12-9.18-9.18s4.12-9.18,9.18-9.18,9.18,4.12,9.18,9.18-4.12,9.18-9.18,9.18Zm0-14.54c-2.96,0-5.36,2.4-5.36,5.36s2.4,5.35,5.36,5.35,5.36-2.4,5.36-5.35-2.4-5.36-5.36-5.36Z"/>
      <path d="m52.34,86.39c4.52,0,8.18,3.66,8.18,8.18s-3.66,8.18-8.18,8.18-8.18-3.66-8.18-8.18,3.66-8.18,8.18-8.18m0,14.53c3.51,0,6.36-2.84,6.36-6.35s-2.85-6.36-6.36-6.36-6.36,2.85-6.36,6.36,2.85,6.35,6.36,6.35m0-16.53c-5.61,0-10.18,4.57-10.18,10.18s4.57,10.18,10.18,10.18,10.18-4.57,10.18-10.18-4.57-10.18-10.18-10.18h0Zm0,14.53c-2.4,0-4.36-1.95-4.36-4.35s1.96-4.36,4.36-4.36,4.36,1.96,4.36,4.36-1.96,4.35-4.36,4.35h0Z"/>
    </g>
  </g>
  <g>
    <path class="cls-9" d="m52.34,95.07c-.14,0-.28-.06-.38-.18-.17-.2-.16-.51.04-.69l17.75-16.62c.09-.09.21-.13.34-.13,0,0,.02,0,.02,0,.13,0,.26.07.35.17l1.47,1.65c.09.1.14.24.12.38s-.08.26-.19.35l-19.22,14.97c-.09.07-.2.11-.31.11Z"/>
    <path d="m70.09,77.95l1.47,1.65-19.22,14.97,17.75-16.62m0-1c-.25,0-.5.1-.68.27l-17.75,16.62c-.39.37-.42.97-.08,1.38.2.23.48.35.76.35.22,0,.43-.07.61-.21l19.22-14.97c.22-.17.36-.42.38-.7.03-.28-.06-.55-.25-.76l-1.47-1.65c-.18-.2-.43-.32-.7-.34-.02,0-.03,0-.05,0h0Z"/>
  </g>
  <rect class="cls-8" x="-4918.67" y="-678.71" width="6562.35" height="1176.7"/>
</svg>