<?xml version="1.0" encoding="UTF-8"?>
<svg id="Calque_1" data-name="Calque 1" xmlns="http://www.w3.org/2000/svg" viewBox="0 0 128 128">
  <defs>
    <style>
      .cls-1 {
        fill: #d6d6d6;
      }

      .cls-1, .cls-2, .cls-3, .cls-4, .cls-5, .cls-6, .cls-7, .cls-8, .cls-9, .cls-10 {
        stroke-linecap: round;
        stroke-linejoin: round;
      }

      .cls-1, .cls-2, .cls-3, .cls-4, .cls-5, .cls-6, .cls-7, .cls-8, .cls-10 {
        stroke: #000;
      }

      .cls-2 {
        fill: #8987f3;
      }

      .cls-3 {
        fill: #87ccf3;
      }

      .cls-4 {
        fill: #ff6d75;
      }

      .cls-5, .cls-7 {
        fill: #fff;
      }

      .cls-6, .cls-8, .cls-9 {
        fill: none;
      }

      .cls-7, .cls-8, .cls-10 {
        stroke-width: 2px;
      }

      .cls-9 {
        stroke: #fff;
        stroke-width: 8px;
      }
    </style>
  </defs>
  <polygon class="cls-5" points="21.66 48.66 23.28 49.6 22.02 49.73 21.66 48.66"/>
  <polygon class="cls-2" points="17.45 85.68 16.95 87.73 17.45 92.38 19.05 92.38 19.3 92.77 19.3 93.9 32.23 93.9 32.53 93.29 35.83 93.24 37.71 91.09 17.45 85.68"/>
  <rect class="cls-2" x="32.53" y="78.62" width="10.91" height="13.07"/>
  <path class="cls-4" d="m20.26,44.36c-3.43,2.66-10.73,4.26-12.28,4.58l-.63-1.9c1.57-.32,8.85-1.93,12.28-4.59.01.03.02.06.03.09l.6,1.81Z"/>
  <path class="cls-1" d="m19.63,42.46c-3.43,2.66-10.71,4.26-12.28,4.59l-.13-.38c-.36-1.07.23-2.23,1.3-2.59l8.55-2.83c1.04-.34,2.17.2,2.56,1.21Z"/>
  <path class="cls-1" d="m23.93,55.43l-12.43,4.12-3.51-10.6c1.55-.32,8.85-1.93,12.28-4.58l3.66,11.07Z"/>
  <path class="cls-3" d="m22.04,49.71s1.06-.6,1.31,0,3.55,11.71,3.55,11.71l5.25,17.2h.96v13.07h-12.19c-1.04,0-1.97-.67-2.29-1.67l-10.07-31.17,1.94-2.6,11.54-6.53Z"/>
  <polygon class="cls-3" points="9.68 54.07 8.56 58.85 10.5 56.24 9.68 54.07"/>
  <line class="cls-1" x1="33.11" y1="82.25" x2="43.44" y2="82.25"/>
  <line class="cls-1" x1="33.11" y1="87.37" x2="43.44" y2="87.37"/>
  <g>
    <path class="cls-7" d="m52.67,82.42c-.04-.43-.09-.87-.13-1.32-.97-8.86-5.13-9.51-5.26-11.76-.11-2.27,7.58-6.39,7.34-16.14-.04-1.06,0-2.06.11-3.03.74-7.99,5.16-12.87,7.82-15.4,0,0,9.01,16.07,10.94,18.65,1.91,2.58,8.25,10.14,13.06,8.43,4.4-1.56,8.21-4.81,11.92-2.36,3.68,2.43,3.92,10.4-.48,12.96,0,0,4.29,7.91,5.94,13.39l7.86,20.23"/>
    <path class="cls-7" d="m53.43,89.8c.69,3.96,2.3,6.43,7.63,6.72,8.06.41,16.92-1.62,18.87-2.73l-11.63,18.28"/>
    <path class="cls-8" d="m53.99,58.21s-6.14-11.21-4.53-19.9c1.94-10.5,11.42-10.57,11.42-10.57,5.23-8.27,27.62-12.78,48.04-1.23,14.92,8.44,12.2,22.76,7.23,31.4"/>
    <path class="cls-8" d="m119.75,50.33s3.32,10.25-2.12,18.19c-4.75,6.92-10.34,14.26-11.4,22.32"/>
    <ellipse class="cls-10" cx="65.7" cy="61.35" rx="1.31" ry="2.86" transform="translate(-4.24 4.88) rotate(-4.12)"/>
    <line class="cls-7" x1="94.8" y1="65.32" x2="92.66" y2="66.15"/>
    <path class="cls-8" d="m52.67,82.42c1.26.09,2.32.28,3.14.48,1.82.43,3.51.84,3.77,1.88.26,1.15-1.39,2.45-2.25,3.12-1.36,1.06-2.77,1.62-3.9,1.91"/>
  </g>
  <g>
    <line class="cls-6" x1="33.92" y1="21.44" x2="27.67" y2="40.11"/>
    <polygon points="24.84 35.67 25.76 35.26 27.79 39.75 32.12 37.39 32.6 38.27 27.33 41.14 24.84 35.67"/>
  </g>
  <rect class="cls-9" x="-219.84" y="-2354.22" width="6467.34" height="6437.3"/>
</svg>