<?xml version="1.0" encoding="UTF-8"?><svg id="Calque_1" xmlns="http://www.w3.org/2000/svg" viewBox="0 0 128 128.13"><defs><style>.cls-1{stroke:#e30613;stroke-width:8px;}.cls-1,.cls-2,.cls-3,.cls-4,.cls-5,.cls-6,.cls-7{stroke-linecap:round;stroke-linejoin:round;}.cls-1,.cls-4,.cls-7{fill:none;}.cls-2,.cls-3{fill:#fff;}.cls-2,.cls-7{stroke:#d6d6d6;}.cls-3,.cls-4,.cls-5,.cls-6{stroke:#000;}.cls-5{fill:#fab0b4;}.cls-6{fill:#d6d6d6;}</style></defs><rect class="cls-1" x="-391.03" y="-269.94" width="2655.08" height="1511.77"/><path class="cls-3" d="m58.77,67.35c-.09-.34-.43-.55-.75-.71-.02-.01-.05-.02-.07-.03-.63-.3-1.27-.63-1.76-1.13-.06-.06-.12-.15-.19-.23-.93-2.83-1.86-5.67-2.79-8.5-.4-1.21-1.03-2.51-1.02-3.79.01-1.37-.25-2.76-.39-4.12-.04-.37-.07-.75-.11-1.12-.18-1.96-.33-3.92-.69-5.85-.27-1.49-.66-4.59-2.62-4.82-.56-.07-1.15.14-1.54.55-.59.62-.67,1.57-.65,2.43.04,1.19.21,2.37.38,3.54.2,1.36.58,2.79.65,4.17.15,3.09.74,6,1.8,8.92.79,2.2,1.76,4.34,2.77,6.45.48,1,1.05,1.97,1.66,2.91.02.04.04.06.07.08-.15.5.17,1.09.29,1.57.16.61.49,1.15.82,1.69.3.47.66.98,1.21,1.1.24.05.51-.25.72-.36.39-.22.8-.46,1.01-.86.05-.1.09-.21.09-.33,0-.17-.11-.33-.18-.49-.15-.33-.36-1.2.27-.96.2.08.41.16.61.23.1.04.22.08.32.02.11-.06.13-.22.09-.35Z"/><path class="cls-3" d="m37.2,113.48s-1.52,2.01,0,2.23c1.52.23,5.47,0,5.47,0,0,0,1.2.41.15-2.4-.55-.04-1.09-.13-1.64-.18-1.33-.11-2.66.14-3.98.34-.53.08-1.16.13-1.52-.27-.14-.16-.22-.36-.28-.56-.23-.78-.25-1.6-.24-2.4.01-.8-.06-1.6-.08-2.4-.05-1.69-.04-3.39-.08-5.08-.05-2.55-.1-5.09-.15-7.64,0-10.05-.74-19.97-1.23-29.99-.03-.7-.08-1.56-.06-2.46,0-.11,0-.22.01-.33-.04-.68,0-1.36.12-2.02.01-.05.02-.11.03-.16.18-.86.48-1.68.79-2.5.45-1.22.73-2.69,1.2-3.83.43-1.04,1.94-1.06,2.98-1.22,2.79-.44,5.66-.38,8.46-.09.12.01.24.03.33.09.14.1.18.29.21.45.37,2.02.69,4.05.96,6.08.04.31.09.68.12,1.07.32,1.75.63,3.51.9,5.26.61,3.87,1.12,7.76,1.53,11.67.22,2.1.68,4.4.55,6.51,0,.07,0,.13-.01.2-.01.17-.03.34-.05.5-.13,1.08-.4,2.16-.72,3.22-.22.75-.47,1.49-.69,2.22-2.29,7.24-4.58,14.47-6.86,21.71,0,.3-.01.59-.02.89,0,.42.31.98-.32.96-.08,0-.16-.02-.24-.02"/><line class="cls-3" x1="43.41" y1="111.49" x2="43.18" y2="66.23"/><path class="cls-3" d="m46.93,52.23c.61,0,6.89-.64,6.83-.93-.85-3.9-1.91-7.76-3.15-11.55-.26-.8-.55-1.63-1.19-2.17-.29-.25-.63-.43-.97-.6-.29-.15-.58-.3-.9-.34-1.69-.23-1.93,2.98-1.98,4.07-.06,1.32.12,2.63.31,3.94.18,1.31.41,2.63.58,3.94.16,1.22.22,2.43.46,3.65Z"/><path class="cls-3" d="m36.01,37.6c-.39-.41-.98-.62-1.54-.55-2.16.26-2.59,4.13-2.89,5.74-.3,1.64-.58,3.28-.84,4.93-.19,1.16-.36,2.33-.53,3.5-.2,1.43-.39,2.85-.57,4.28-.02.18-.06.37-.08.56-.32.71-.52,1.49-.66,2.1-.92,3.87-1.6,7.79-2.24,11.71-.03.19-.05.38-.04.58-.09.11-.17.24-.22.38-.65,1.65-.4,3.62.35,5.21.04.07.08.15.17.18.1.03.21-.04.25-.12s.03-.18.02-.26c.02.16.12.3.27.39.24.14.29-.1.27-.27-.04-.39-.08-.78-.14-1.17-.06-.41-.07-.82-.04-1.23.02-.28.03-.57.11-.85.03-.12.05-.33.23-.3.09.01.16.09.22.16.08.11.14.23.19.36.05.14.08.29.15.43.06.14.16.27.3.32.27.1.33-.15.29-.36,0-.02,0-.03,0-.05-.03-.1-.07-.2-.1-.31-.11-.3-.17-.61-.18-.93,0-.11.03-.21.04-.33,0-.16-.01-.33-.04-.48-.03-.19-.09-.36-.16-.52.85-2.27,1.64-4.59,2.63-6.8.99-2.2,1.8-4.49,2.48-6.81.06-.19.11-.38.15-.57.02-.05.05-.1.06-.15.46-1.3.71-2.67.95-4.03.51-2.9.98-5.82,1.42-8.73.18-1.17.35-2.35.38-3.54.03-.86-.05-1.8-.65-2.43Z"/><path class="cls-3" d="m32.05,38.97c-.84,1.41-1.29,3.23-1.7,4.58-.83,2.72-1.39,5.52-1.95,8.31.32.06.81.28,1.12.28.63.25,1.39.24,2.05.38,1.29.27,2.6.47,3.91.59.15-2.17.58-4.32.86-6.48.29-2.21.55-4.43.77-6.65.05-.51.1-1.02,0-1.52s-.35-.99-.79-1.26c-.58-.34-1.72-.38-2.34-.1-.82.37-1.44,1.06-1.92,1.88Z"/><path class="cls-3" d="m50.23,42.87c-.13.97-.33,1.95-.45,2.86-.26,1.9-.55,3.79-.87,5.68-.13.75-.14,1.48-.35,2.21-.04.15-.1.31-.22.42-.13.11-.31.13-.49.15-.63.06-1.26.09-1.89.13-3.04.17-6.08.33-9.12.26-.34,0-.7-.02-1-.19-.54-.3-.72-.97-.84-1.57-.57-2.85-.59-5.97-1.75-8.65-.22-.5-.41-.92-.78-1.3-.55-.57-.62-1.14-.62-1.96-.02-2.75,2.81-4.56,5.15-5.27.57-.17,1.14-.3,1.73-.4,1.11-.18,2.26-.23,3.39-.17.97.05,1.94.14,2.88.4.03,0,.07.02.1.03,1.62.48,3.78,1.15,4.66,2.72.36.64.47,1.38.55,2.11.09.82.03,1.68-.08,2.55Z"/><path class="cls-3" d="m57.33,69.63s0-.03,0-.05c0-.04,0-.07.01-.1.04-.09.17-.07.27-.1.14-.04.22-.19.21-.33,0-.14-.08-.26-.15-.38-.18-.3-.57-.85-1.02-.76-.07.01-.13.04-.17.1-.04.06-.04.13-.03.2.02.15.08.29.17.41-.1-.15-.33-.29-.5-.34-.17-.05-.43-.02-.41.22,0,.1.06.19.12.27.07.11.15.21.22.32-.05-.03-.11-.07-.16-.1-.08-.05-.16-.1-.25-.13-.09-.03-.19-.04-.27,0-.43.18.04.73.2.92-.11-.08-.28.03-.29.16,0,.13.09.24.2.32.1.08.21.15.33.21.11.05.23.1.36.08.12-.02.23-.14.2-.25.27.05.56-.18.54-.44.17.05.37-.07.41-.23Z"/><path class="cls-2" d="m81.96,68.6c-.1,4.29-1.21,8.7-1.95,12.78-1.19,6.67-1.64,13.47-1.34,20.23.07,1.59.51,2.83-1.19,3.31.07.32.13.65.19.97.02.08.03.16.04.24.12.87.25,1.89-.07,2.74,0,.04-.03.07-.04.11-.18.42-.5.8-.95,1.03-.75.37-1.73.18-2.24-.39-.04-.04-.06-.07-.09-.12h0c-.06-.08-.12-.17-.17-.26-.05-.08-.09-.17-.12-.26-.17-.42-.2-.86-.23-1.32-.03-.42-.02-.84,0-1.26.03-.53.05-1.05.05-1.59-.19-.04-.37-.09-.55-.12-.12,1.75-.27,3.5-.48,5.25-.06.51-.12,1.04-.04,1.54.05.33.17.65.14.97-.04.28-.2.76-.53.82-.17.04-.35-.03-.51-.09-.22-.08-.46-.14-.69-.19.13.37.21.74.32,1.13.07.24.25.43.2.69,0,.04-.02.1-.04.14-.12.26-.46.29-.75.3h-2.29c-.34,0-.72,0-1.02-.14-.08-.04-.19-.09-.25-.15-.02-.02-.04-.04-.04-.05-.06-.12-.07-.23-.04-.35h0c.1-.39.2-.78.3-1.16-.04.02-.09.04-.12.05-.12.06-.51.2-.62.09-.08-.07-.1-.19-.12-.29-.16-.89-.31-1.81-.26-2.72.03-.6.15-1.21.06-1.82-.05-.4-.19-.77-.28-1.16-.16-.72-.02-1.41-.06-2.12-.05-.76-.1-1.52-.14-2.29-.47-7.39-.93-14.79-1.4-22.18-.25-4.02-.51-8.04-.75-12.06l-.03-.32c-.17-2.25-.58-4.68.35-6.81.89-2.05,2.93-2.43,5-2.44.51,0,1.02.02,1.52.04l5.71.67,3.51.41c.99.91,1.46,2.27,1.71,3.6.28,1.48.37,2.99.33,4.53Z"/><path class="cls-2" d="m63.11,50.62c-.57-.5-1.41-.56-2.14-.39-.7.16-1.38.51-1.8,1.1-.3.42-.44.94-.58,1.44-.71,2.58-1.42,5.16-2.06,7.75-.29,1.17-.57,2.37-1.06,3.47-.12.27-.24.54-.31.82-.07.06-.14.13-.21.22-.19.27-.33.56-.48.86-.23.49-.47.98-.67,1.49-.16.41-.48,1.3.19,1.35.03.16.04.32.11.47.08.14.22.26.38.25.02,0,.04,0,.06,0,.03.02.03.06.04.09,0,.13.05.25.13.35.08.09.21.15.34.13.03.13.07.26.14.37.1.14.37.33.55.32.16,0,.14-.15.18-.25.22-.58.4-1.16.56-1.76.04-.16.06-.32.26-.33.3-.02.57.27.78.45.09.08.44.46.56.39.05-.03.06-.09.07-.15.03-.28-.03-.53-.11-.8-.23-.79-.39-1.6-.45-2.42,0-.11-.02-.22-.04-.33,0-.04-.02-.07-.03-.1.03-.04.07-.07.1-.12.08-.14.16-.3.25-.45.44-.8.89-1.6,1.32-2.41.86-1.61,1.7-3.24,2.49-4.89.76-1.58,1.46-3.22,1.89-4.92.2-.8.2-1.41-.47-2Z"/><path class="cls-2" d="m64.95,45.95c-.14,1.76-.26,3.52-.39,5.27-.06.9-.13,1.79-.19,2.69-.05.68-.02,1.33-.52,1.86-.06.06-.13.13-.22.15-.1.02-.21-.01-.3-.05-.69-.3-.94-.92-1.4-1.45-.4-.45-1.04-.58-1.63-.6-.57-.02-1.07.04-1.59.27-.3.13-.52.1-.66-.24-.17-.42-.07-.89.1-1.31.17-.41.42-.79.58-1.21.21-.54.26-1.14.23-1.72-.03-.68-.16-1.41.15-2.02.15-.3.39-.54.55-.82.52-.93.14-2.04.32-3.04.09-.53.29-1.02.39-1.56.12-.63.23-1.26.36-1.89.33-1.72.58-3.94,1.58-5.43.71-1.05,1.93-2.67,3.38-2.29.1.03.2.07.27.15.08.1.07.24.05.37-.15,1.55-.29,3.1-.42,4.65-.1,1.15-.02,2.24-.16,3.4-.19,1.61-.34,3.22-.47,4.84Z"/><path class="cls-2" d="m77.32,41.92c-.19,3.48-.45,6.96-.65,10.44-.14,2.56-.29,5.15-.26,7.72l-5.71-.67c-.5-.03-1-.04-1.52-.04.06-1.9.12-3.78.18-5.67.1-2.97.19-5.93.29-8.89.09-2.89.26-5.78.28-8.66,0-.81-.03-1.6.05-2.4.06-.68-.14-1.41.27-2.04.27-.43.77-.66,1.27-.81,1.1-.32,2.22-.58,3.37-.65.3-.03.63-.03.9.12.27.14.43.4.58.66.74,1.3.82,2.78.84,4.24,0,2.22.2,4.47.09,6.66Z"/><path class="cls-2" d="m83.63,40.38c-1.9,8.13-1.59,16.6-1.2,24.95.03.62,0,1.29.04,1.93.02.3.05.58.12.87.04.17.21.32.23.48h-6.33c.04-.38.09-.75.12-1.13.16-1.56,0-3.15-.11-4.7-.06-.9-.09-1.79-.09-2.69-.04-2.57.12-5.16.26-7.72.19-3.48.46-6.96.65-10.44.12-2.19-.08-4.45-.09-6.66-.02-1.46-.11-2.94-.84-4.24-.15-.26-.32-.51-.58-.66-.27-.14-.6-.14-.9-.12-1.15.07-2.27.33-3.37.65-.5.14-.99.38-1.27.81-.41.63-.2,1.36-.27,2.04-.08.8-.05,1.59-.05,2.4-.03,2.89-.2,5.78-.28,8.66-.1,2.96-.19,5.92-.29,8.89-.06,1.89-.12,3.77-.18,5.67-.03,1.02-.07,2.05-.12,3.07-.09,2.06-.14,4.13.02,6.18h-5.73c.28-5.11.11-10.25.26-15.37.14-5.17.25-10.35-.4-15.48-.12-.97-.16-1.78.11-2.71.23-.81.21-1.66.95-2.22.27-.2.58-.32.89-.43,1.47-.52,2.93-1.05,4.39-1.58.99-.35,2-.73,3.05-.93.41-.08.91-.22,1.33-.2.53.03,1.11.24,1.64.34,1.98.34,3.91.97,5.71,1.86.8.39,1.73.78,2.28,1.5.57.76.82,1.59.82,2.53.03,1.5-.47,3.15-.76,4.45Z"/><path class="cls-2" d="m88.57,68.87c-.11-.24-.21-.49-.32-.73-.07-.16-.15-.32-.25-.48.16-.94.06-2.01.08-2.92.03-1.34.05-2.68.06-4.02.02-2.68,0-5.36-.06-8.04-.04-1.66-1.87-1.24-2.97-.91-.47.14-1.15.34-1.38.84-.22.48-.02,1.29.03,1.8.22,2.22.45,4.44.67,6.66.15,1.54.31,3.07.55,4.6.12.76.26,1.52.44,2.27.02.07.03.13.04.2-.16.35-.26.73-.3,1.11-.07.68-.04,1.49.26,2.11.04.08.14.23.2.1.01-.03-.01-.1,0-.14.01-.14.09-.27.21-.28.02.02.03.05.05.07.04.07.08.15.09.24.01.08,0,.16-.03.24-.05.15-.13.3-.1.46,0,.04.07.05.11.04.08.06.18.13.26.13.28.02.56-.26.69-.48,0,.09.07.18.16.2.09.03.19,0,.27-.04.23-.1.41-.31.46-.56.15.09.35.1.5,0s.24-.28.22-.45c0,.02.17-.08.18-.09.06-.05.11-.13.13-.21.04-.14.05-.34.05-.49,0-.44-.14-.85-.32-1.24Z"/><path class="cls-2" d="m82.07,45.94c0,.53,0,1.07.01,1.6.04.98.21,1.94.51,2.87.13.4.32.78.42,1.19.22.96-.12,1.93-.14,2.89,0,.35-.02,1.08.32,1.29.22.14.78.05,1.03.03.91-.08,1.83-.16,2.74-.24.49-.04,1.29.2,1.68-.18.46-.45.42-1.47.23-2.02-.1-.28-.24-.54-.32-.83-.28-1.06.45-2.27-.04-3.26-.12-.24-.3-.44-.44-.67-.35-.58-.4-1.27-.43-1.92-.03-.6-.12-1.2-.15-1.8-.09-1.54-.52-3.12-.81-4.63-.33-1.72-.58-3.94-1.58-5.43-.71-1.05-1.93-2.67-3.38-2.29-.1.03-.2.07-.27.15-.08.1-.07.24-.05.37.15,1.55.29,3.1.42,4.65.1,1.15.02,2.24.16,3.4.19,1.6.1,3.22.08,4.84Z"/><path class="cls-2" d="m63.75,50.91c-.02-1.56-.02-3.11,0-4.67.01-.88.03-1.76.05-2.63,0-.06-.17-.07-.17,0-.04,1.56-.06,3.13-.06,4.69,0,1.56.02,3.11.05,4.67.02.88.05,1.76.08,2.63,0,.07.17.06.17,0-.06-1.56-.1-3.13-.12-4.69Z"/><line class="cls-2" x1="73.29" y1="104.69" x2="72.5" y2="66.02"/><path class="cls-7" d="m71.19,113l-3.62.35s-3.29,4.45,0,4.78,7.24,1.19,4.31-4.97"/><line class="cls-2" x1="73.84" y1="104.81" x2="77.49" y2="104.92"/><path class="cls-3" d="m34.91,56.4s9.62.73,13.33-.29"/><path class="cls-3" d="m37.7,56.56s-.06,4.3-4.11,4.58"/><path class="cls-3" d="m45.42,56.54s.18,4.99,3.57,4.87"/><path class="cls-2" d="m78.49,20.2s0,.05,0,.08c-.04.29-.1.61-.18.95-.02-.14-.14-1.4-1.46-3.26-.02-.04-.05-.08-.08-.12,0,0-.43.03-.75-.22-.54.1-1.12.05-1.49-.39-.7.68-1.28.19-1.36.1,0,0-.02,0-.03,0-.14.26-.35.47-.67.51-.22.03-.43-.04-.63-.16-.48.34-.96.43-1.36.41l-.14.04c-.12.31-1.13,2.12-1.27,3.22,0,.21,0,.43.02.65,0,0-.02-.03-.04-.08,0,.07,0,.13.02.19h0v-.02c-.04-.11-.28-.64-.44-1.36,0,0,0-.02,0-.03-.32-1.46-.34-3.67,2.09-4.64,0,0,.15-.81,1.18-.68,0,0,1.19-1.29,2.61-.23,1-.28,1.27.49,1.27.49,2.74.65,2.91,3.12,2.76,4.59Z"/><path class="cls-2" d="m78.09,24.65h0c.07-.03.59-.25.77-1.14.2-.96.6-.92.49-1.86-.11-.89-.98-.36-1.07-.3"/><path class="cls-2" d="m76.74,31.8c-4.08,3.61-5.7-.3-6.42-.61l.95-2.36.02-.36,4.9-.94.13,1.02.42,3.25"/><path class="cls-7" d="m73.45,15.93s0,.83-.3,1.4h0"/><path class="cls-7" d="m71.83,17.68c-.66-.38-1.1-1.35-1.1-1.35"/><path class="cls-2" d="m69.75,25.33h0c-.08-.02-.62-.16-.93-1.01-.34-.92-.74-.81-.77-1.77-.02-.9.91-.51,1.01-.46"/><path class="cls-7" d="m77.37,17.12s-.64.38-1.36.51"/><path class="cls-2" d="m78.29,21.35c.02.53.03,1.9-.2,3.3-.18,1.18-.53,2.38-1.18,3.16-1.49,1.82-2.45,1.85-2.6,1.83-.15.04-1.17.2-2.93-1.37-.75-.67-1.28-1.82-1.65-2.94-.43-1.36-.64-2.71-.7-3.23h0c0-.06-.02-.12-.02-.19.03.05.04.08.04.08-.02-.21-.03-.43-.02-.65.14-1.1,1.14-2.91,1.27-3.22l.14-.04c.41.03.89-.07,1.36-.41.19.12.41.19.63.16.32-.04.53-.25.67-.51,0,0,.02,0,.03,0,.09.09.66.58,1.36-.1.37.44.95.49,1.49.39.32.25.75.22.75.22.03.04.06.08.08.12,1.32,1.86,1.44,3.12,1.46,3.26.08-.34.13-.66.18-.95-.07.56-.17.96-.19,1.05h0v.02Z"/><path class="cls-7" d="m69.06,21.34c-.03.21-.04.4-.02.57"/><path class="cls-7" d="m76.87,18.12s1.41,2.05,1.41,3.23"/><path class="cls-7" d="m69.02,21.87h0s0,.1.02.2h0s0,.02,0,.02"/><path class="cls-7" d="m78.29,21.35v-.02"/><path class="cls-7" d="m78.28,21.12s0,.08,0,.2"/><path class="cls-7" d="m75.11,16.43c-.18.33-.36.58-.53.75-.02.02-.03.05-.06.06"/><path class="cls-7" d="m73.16,17.34h-.02"/><path class="cls-4" d="m47.32,25.5s.87-2.2.38-3.76c-.6-1.88-2.34-1.68-2.34-1.68-1.15-1.4-5.37-1.72-8.85.87-2.55,1.89-1.72,4.46-.61,5.93"/><path class="cls-4" d="m35.06,25.56s-.38,1.96.81,3.29c1.03,1.16,1.95,2.7,2.33,4.16"/><path class="cls-3" d="m43.37,32.63c.38.16,2.06.33,3.53.07,1.56-.28,1.23-1.37,1.21-3.03-.02-1.65.73-1.87.7-2.28-.03-.42-1.54-1-1.72-2.8-.02-.2-.05-.38-.09-.55-.32-1.45-1.24-2.25-1.79-2.65,0,0-1.29,3.16-1.58,3.67-.29.52-1.28,2.05-2.21,1.85-.84-.19-1.62-.7-2.24-.16-.62.53-.48,2,.38,2.37,0,0-.61,1.55-.78,2.59l-1.78,3.91s5.66,3.72,8-.17l-1.63-2.83Z"/><line class="cls-4" x1="39.99" y1="27.74" x2="40.4" y2="27.85"/><path class="cls-5" d="m63.05,20.89c0-1.6-1.3-2.89-2.89-2.89-1.17,0-2.18.7-2.64,1.7-.45-1-1.46-1.7-2.63-1.7-1.6,0-2.89,1.3-2.89,2.89,0,.34.06.66.16.96.12.34.3.66.54.92.1.12.21.22.32.32l4.41,4.38s.06.04.1.04.07-.01.1-.04l4.58-4.55h0c.3-.3.53-.66.67-1.06.11-.31.17-.64.17-.98Z"/><polyline class="cls-4" points="57.52 19.7 56.51 22.1 58.64 23.46 57.53 27.52"/><polyline class="cls-6" points="97.61 100.35 82.56 112.51 106.22 112.51 122.17 97.21"/><path class="cls-6" d="m122.17,74.53v22.68l-3.14,3.14v-22.68c0-1.92-.5-3.71-1.38-5.26-.48-.85-1.08-1.63-1.76-2.31-1.93-1.94-4.61-3.14-7.57-3.14-2.16,0-4.16.64-5.84,1.73,1.91-2.93,5.22-4.87,8.98-4.87,2.96,0,5.64,1.2,7.57,3.13,1.94,1.94,3.14,4.62,3.14,7.58Z"/><path class="cls-6" d="m119.03,77.67v19.54h-18.28v-22.68c0-2.16.64-4.16,1.73-5.84,1.68-1.09,3.68-1.73,5.84-1.73,2.96,0,5.64,1.2,7.57,3.14.68.68,1.28,1.46,1.76,2.31.88,1.55,1.38,3.34,1.38,5.26Z"/><path class="cls-6" d="m119.03,77.67v22.68h-21.42v-22.68c0-3.76,1.94-7.07,4.87-8.98,1.68-1.09,3.68-1.73,5.84-1.73,2.96,0,5.64,1.2,7.57,3.14.68.68,1.28,1.46,1.76,2.31.88,1.55,1.38,3.34,1.38,5.26Z"/><line class="cls-4" x1="102.53" y1="80.45" x2="112.57" y2="80.45"/><line class="cls-4" x1="102.53" y1="83.65" x2="112.57" y2="83.65"/><line class="cls-4" x1="102.53" y1="86.86" x2="112.57" y2="86.86"/><polygon class="cls-6" points="82.56 112.51 82.56 116.51 106.15 116.51 106.22 112.51 82.56 112.51"/><polygon class="cls-6" points="122.17 97.51 122.17 100.93 106.15 116.51 106.22 112.17 122.17 97.51"/></svg>