<?xml version="1.0" encoding="UTF-8"?>
<svg id="Calque_1" data-name="Calque 1" xmlns="http://www.w3.org/2000/svg" viewBox="0 0 200.13 128">
  <defs>
    <style>
      .cls-1, .cls-2 {
        fill: #ff6d75;
      }

      .cls-3 {
        fill: #fff;
      }

      .cls-3, .cls-2, .cls-4, .cls-5 {
        stroke: #000;
        stroke-miterlimit: 10;
        stroke-width: 2px;
      }

      .cls-4 {
        fill: #baa584;
      }

      .cls-5, .cls-6 {
        fill: none;
      }

      .cls-6 {
        stroke: #fff;
        stroke-linecap: round;
        stroke-linejoin: round;
        stroke-width: 8px;
      }
    </style>
  </defs>
  <path class="cls-4" d="m96.76,24.11c-.16,1.96-.56,4.06-.91,5.82-.22,1.08-.41,2.1-.62,3.04-.88,4.16-1.79,6.91-3.96,7.7-3.07,1.1-4.8-3.06-10.52-3.39-4.32-.27-7.81,1.83-10.68,3.55-3.32,2-4.39,3.53-8.2,7.13-3.54,3.35-7.72,7.3-12.81,10.33-5.19,3.08-10.54,6.26-16.73,4.98-6.67-1.37-10.43-7.07-12.11-9.61-1.12-1.69-7.49-11.78-3.2-23.14,3.48-9.2,11.63-13.06,13.53-13.89,10.05-4.39,20.95-1.04,26.71.72,5.1,1.56,8.64,3.52,16.02,4.63,8.33,1.25,10.89-.16,11.76-.72,1.48-.95,2.84-2.42,5.69-3.2,1.59-.44,3.29-.9,4.52-.12,1.54.96,1.77,3.44,1.53,6.18Z"/>
  <path class="cls-5" d="m135.88,26.85c0,4.11-7.2,10.8-12.17,8.4-4.98-2.4-7.03-6.52-7.03-6.52l-21.45,4.24c.21-.95.4-1.96.62-3.04.35-1.76.75-3.86.91-5.82l18.72-3.61s1.71-9.6,8.23-8.4c6.51,1.2,5.12,9.77,5.12,9.77,0,0,7.06.86,7.06,4.98Z"/>
  <path class="cls-3" d="m187,81.53l-.03,1.09c-.05.46-.14.92-.27,1.38-.21.68-.49,1.3-.85,1.87-1.63,2.58-4.65,4.05-6.94,5.17-5.72,2.78-10.09,2.44-16.35,3.04-8.52.82-14.85,2.89-18.82,4.17-12.52,4.1-14.9,8.44-26.42,10.28-4.22.66-8.82.87-12.56-1.72-1.77-1.22-2.26-2.32-4.36-5.5-5.84-8.81-10.28-15.5-16.35-19.97-.82-.6-2.51-1.79-3.81-3.98-.17-.3-.71-1.23-1.14-2.47-.49-1.38-.84-3.13-.41-4.85l.22-.66c.89-2.31,3.46-3.54,8.56-5.9,5.69-2.63,6.45-2.02,9.31-3.99,4-2.74,3.26-4.41,6.85-6.85,4.51-3.05,9.55-3.04,12.18-3.04,3.04,0,6.01.76,11.97,2.28,6.53,1.66,7.76,2.5,11.21,2.47,4.3-.05,5.12-1.36,8.56-1.71,3.37-.35,5.95.57,17.51,7.23,13.32,7.67,15.24,9.52,16.92,11.59,1.87,2.32,4.9,6.1,5.04,10.09Z"/>
  <path class="cls-2" d="m186.97,82.62l-.16,5.98-.11,3.95c-1.15,3.78-5.12,5.66-8,7.04-5.88,2.78-10.34,2.44-16.76,3.04-8.76.82-15.24,2.89-19.31,4.17-12.84,4.1-15.29,8.44-27.1,10.28-4.33.66-9.05.87-12.87-1.72-1.82-1.22-2.32-2.32-4.48-5.5-5.99-8.79-10.55-15.5-16.78-19.97-.84-.6-2.58-1.79-3.89-3.99-.41-.66-2.74-4.54-1.38-7.99l2.55-7.89c-.43,1.72-.08,3.48.41,4.85.43,1.23.96,2.17,1.14,2.47,1.3,2.2,2.99,3.38,3.81,3.98,6.07,4.48,10.52,11.16,16.35,19.97,2.1,3.18,2.59,4.29,4.36,5.5,3.73,2.59,8.33,2.39,12.56,1.72,11.53-1.83,13.9-6.18,26.42-10.28,3.97-1.28,10.29-3.35,18.82-4.17,6.26-.6,10.63-.25,16.35-3.04,2.29-1.12,5.31-2.59,6.94-5.17.36-.57.65-1.19.85-1.87.13-.46.22-.92.27-1.38Z"/>
  <line class="cls-5" x1="187.02" y1="81.06" x2="187" y2="81.53"/>
  <path class="cls-1" d="m136.67,62.19c-.25-3.15-4.38-4.94-6.2-5.73-.79-.34-2.3-.93-10.34-1.75-3.92-.4-5.87-.6-6.84-.48-1.7.22-3.77.79-10.34,5.09-6.71,4.4-5.88,4.68-9.39,6.52-5.59,2.94-8.2,2.48-9.23,4.93-1.34,3.18,1.68,7.23,2.23,7.95,2.1,2.81,4.85,3.93,6.2,4.45,6.5,2.53,12.69.14,14.16-.48,1.41-.59,1.28-.73,9.7-7.48,8.47-6.78,9.76-7.57,11.93-7.79,2.4-.25,4.54.32,6.36-1.27,1.04-.91,1.87-2.43,1.75-3.98Z"/>
  <path class="cls-1" d="m175.96,75.07c.48-2.34-2.52-4.74-5.73-7.32-4.21-3.38-8.25-4.93-12.41-6.52-2.89-1.11-1.2-.23-9.07-2.7-4.1-1.29-5.87-1.94-7.32-.95-1.24.85-1.94,2.68-1.59,4.14.38,1.6,1.76,1.6,2.39,3.02,1.15,2.59-1.62,6.61-3.82,8.75-2.84,2.77-4.59,2.3-6.2,5.09-.91,1.58-1.19,3.18-1.43,4.61-.41,2.4-.68,4.01.16,4.93,1.43,1.56,5.2.21,6.68-.32,4.01-1.44,4.55-3.04,9.39-6.04,3.77-2.34,6.2-3.84,9.54-3.98,3.63-.15,4.05,1.5,8.11,1.75,4.68.29,10.69-1.48,11.29-4.45Z"/>
  <path class="cls-1" d="m177.87,78.41c-5.17,1.73-5.77,3.27-9.23,4.3-1.2.35-4.35,1.12-7.95.32-3.45-.77-3.8-2.19-6.04-2.07-2.69.15-3.42,2.27-7.32,5.09-2.78,2.01-5.12,2.9-9.23,4.45-3.77,1.43-6.75,2.1-10.82,3.02-3.46.78-6.16,1.24-10.66,2.55-5.05,1.46-6.29,2.23-6.52,3.34-.33,1.57,1.43,3.42,3.02,4.3,3.06,1.68,6.68.39,10.02-.8,1.15-.41,2.54-.99,8.43-4.29,5.76-3.24,4.94-3.08,6.36-3.66,5.43-2.23,7.41-.37,13.04-2.39,4.14-1.48,3.15-2.51,7.32-3.98,4.55-1.6,9.21-1.59,12.73-1.59,4.19,0,5.79.45,7.95-.8.29-.17,3.38-2.01,3.66-5.09.04-.42.19-2.07-.8-2.86-.9-.73-2.33-.39-3.98.16Z"/>
  <path class="cls-1" d="m137.62,69.82c-1.33,3.64-4.83,3.76-9.23,7.64-3.34,2.94-2.19,3.63-5.41,6.36-1.9,1.61-4.74,2.79-10.34,5.09-6.76,2.77-8.96,3.21-11.45,2.7-.16-.03-3.76-.79-3.82-2.07-.03-.84,1.45-1.62,7.95-3.82,9.64-3.25,10.43-2.89,12.57-4.61,2.55-2.06,1.93-2.98,6.2-7,.6-.56,2.54-2.36,5.41-4.29,2.77-1.87,6.8-4.59,8.11-3.5.96.8.07,3.3,0,3.5Z"/>
  <path class="cls-1" d="m128.87,86.68c.51.93-2.01,3.61-4.77,5.25-3.45,2.04-4.63.89-8.43,2.55-5.27,2.3-6.08,5.86-8.91,5.41-2.23-.35-4.26-2.96-3.82-4.61.54-1.99,4.22-.91,10.66-3.66,4.02-1.71,5.46-3.35,10.34-4.61,1.65-.43,4.47-1.15,4.93-.32Z"/>
  <rect class="cls-6" x="-1245.91" y="-1054.38" width="3385.57" height="2571.67"/>
</svg>