<?xml version="1.0" encoding="UTF-8"?>
<svg id="Calque_1" data-name="Calque 1" xmlns="http://www.w3.org/2000/svg" viewBox="0 0 128 128">
  <defs>
    <style>
      .cls-1 {
        fill: #baa584;
      }

      .cls-1, .cls-2 {
        stroke: #000;
      }

      .cls-1, .cls-2, .cls-3 {
        stroke-linecap: round;
        stroke-linejoin: round;
      }

      .cls-2, .cls-4 {
        fill: #ffd4ad;
      }

      .cls-5 {
        fill: #fee4cb;
      }

      .cls-3 {
        fill: none;
        stroke: #fff;
        stroke-width: 8px;
      }
    </style>
  </defs>
  <path class="cls-2" d="m60.49,36.89c-1.04.72-2.79,1.04-5.64,1.56-3.22.59-5.77,1.06-7.15-.43-1-1.07-.9-2.65-.86-3.42.16-2.65,1.72-4.84,2.97-6.07,1.26-1.24,2.58-2.23,3.97-2.66.54.2,1.27.47,2.06,1.11,1.76,1.43,2.36,3.56,2.6,4.39.68,2.43-.05,3.3.93,4.59.31.41.67.69,1.12.93Z"/>
  <path class="cls-2" d="m69.37,37.74c-.78.34-1.6.47-2.08.55-2.29.35-4.1-.31-5.06-.67-.72-.27-1.28-.48-1.74-.73-.45-.24-.81-.52-1.12-.93-.98-1.29-.25-2.16-.93-4.59-.24-.83-.84-2.96-2.6-4.39-.79-.64-1.52-.91-2.06-1.11-.51-.2-.84-.32-.86-.62-.07-.83,2.18-1.66,4.79-2.6,1.4-.5,2.4-.86,3.17-1.09.37.6,1.42.94,1.93,1.14,3.38,1.37,4.84,6.14,5,6.71.63,2.13-.09,2.43.75,5.87.27,1.11.54,1.88.81,2.46Z"/>
  <path class="cls-2" d="m84.63,15.3c-1.37,1.12-2.23,2.39-2.91,3.42-1.68,2.53-2.3,4.78-3.55,9.28-1.4,5.05-.59,4.58-1.68,7.53-.28.76-.74,1.89-.56,3.36.02.19.07.49.17.85-.03.04-.06.06-.09.09-1.02.87-1.91.98-2.16,1-1.42.11-2.59-.78-3.21-1.38,0-.01-.01-.01-.01-.01-.2-.19-.34-.34-.42-.43-.29-.33-.57-.71-.84-1.27.15-.07-.14.08,0,0-.36-1.04-.08-2.15-.15-2.83-.09-.92-.07-1.85-.04-3.06.07-3.03.39-3.21.33-4.8-.03-.73-.08-2.22-.7-3.82-.27-.71-.66-1.44-1.2-2.14-.45-.58-1.39-1.76-3.11-2.44-.66-.26-1.29-.39-1.86-.45,1.72-1.52,3.92-2.33,3.92-2.33.66-.24,2.74-1.08,7.22-1.4,4-.29,5,.09,10.31.73.14.02.34.04.54.1Z"/>
  <path class="cls-1" d="m69.37,37.34c-.14.08.15.33,0,.4-.27-.58-.54-1.35-.81-2.46-.84-3.44-.12-3.74-.75-5.87-.16-.57-1.62-5.34-5-6.71-.51-.2-1.56-.54-1.93-1.14-.07-.11-.12-.22-.14-.35-.02-.12-.01-.33.3-.92.27-.53.61-1.16,1.32-1.85.09-.09.18-.17.28-.24.57.06,1.2.19,1.86.45,1.72.68,2.66,1.86,3.11,2.44.54.7.93,1.43,1.2,2.14.62,1.6.67,3.09.7,3.82.06,1.59-.26,1.77-.33,4.8-.03,1.21-.05,2.14.04,3.06.07.68-.21,1.39.15,2.43Z"/>
  <path class="cls-2" d="m109.69,23.97c-.32-.08-.68-.17-1.08-.27-1.64-.4-2.46-.59-2.99-.68-3.99-.65-8.27.63-8.84.81-7.33,2.25-16.21,10.01-15.99,17.55.02.7.19,1.62.4,2.45-1.42-.24-2.66-.59-3.7-1.64-.81-.81-1.2-1.75-1.39-2.45-.1-.36-.15-.66-.17-.85-.18-1.47.28-2.6.56-3.36,1.09-2.95.28-2.48,1.68-7.53,1.25-4.5,1.87-6.75,3.55-9.28.68-1.03,1.54-2.3,2.91-3.42.49-.42,1.05-.82,1.7-1.18.94-.53,2.51-1.23,4.54-1.43,3.11-.31,5.47.75,6.66,1.3.61.29.73.39,5.23,3.8,2.76,2.09,3.91,2.96,5.41,4.48.67.69,1.16,1.25,1.52,1.7Z"/>
  <path class="cls-1" d="m110.98,28.47c-.69-1.13-1.32-1.6-1.56-1.78-.54-.38-1.17-.69-2.18-.92-.45-.1-.99-.19-1.62-.26-1.62-.18-4.69-.48-8.59.75-5.53,1.73-8.78,5.28-10.33,7.03-.36.4-4.36,4.98-4.48,9.27-.02.59.04,1.07.14,1.45-.04-.01-.09-.01-.14-.02-.35-.05-.69-.1-1.02-.16h-.01c-.21-.83-.38-1.75-.4-2.45-.22-7.54,8.66-15.3,15.99-17.55.57-.18,4.85-1.46,8.84-.81.53.09,1.35.28,2.99.68.4.1.76.19,1.08.27.69.86.91,1.35,1.03,1.66.08.21.44,1.5.26,2.84Z"/>
  <path class="cls-2" d="m107.24,25.77l-24.88,18.24c-.1-.38-.16-.86-.14-1.45.12-4.29,4.12-8.87,4.48-9.27,1.55-1.75,4.8-5.3,10.33-7.03,3.9-1.23,6.97-.93,8.59-.75.63.07,1.17.16,1.62.26Z"/>
  <path class="cls-2" d="m91.67,61.26c-.06-.02-.11-.04-.17-.07"/>
  <path class="cls-2" d="m95.43,48.11c-.58-.68-1.29-1.35-2.17-1.93-.54-.37-1.35-.9-2.38-1.28h0c-.98-.37-2.16-.59-3.49-.38-.36.06-.7.14-1.02.24,2.92-2.1,8.24-3.93,12.08-3.43,1.69.23,4.41.59,6.56,2.76,1.38,1.41,1.88,2.92,1.99,3.28.28.9.36,1.76.34,2.51-.04,1.17-.32,2.11-.5,2.66"/>
  <path class="cls-2" d="m110.03,49.66c-.11.07-.24.13-.37.18-.83.34-1.59.22-1.8.19-.19-.03-.38-.08-.54-.15"/>
  <path class="cls-2" d="m111.1,48.71c-.09.12-.19.23-.29.34-.07.07-.14.14-.21.2-.07.07-.14.12-.21.18-.11.08-.23.16-.35.23l1.06-.95Z"/>
  <path class="cls-1" d="m92.37,60.67c-.19.26-.42.45-.69.59-.06.04-.12.07-.19.11.01-.06.02-.12.02-.18.06-.68.06-1.41-.04-2.17-.14-1.11-.44-1.93-.53-2.17-.24-.62-.78-2-2.1-3.23-1.81-1.68-3.9-1.98-4.56-2.06-.9-.12-1.71-.08-2.4.03.17-.58.16-1.41.34-1.7.54-.9,3.14-.64,3.35-.6.76.14,1.7.48,2.99,1.54,1.03.84,3.37,2.77,4.06,6.08.26,1.22.56,2.67-.25,3.76Z"/>
  <path class="cls-2" d="m111.84,47.42c-.22.49-.47.92-.75,1.29-.04-2.34-1.2-4.3-1.64-5.05-1.98-3.37-5.11-4.7-6.03-5.08-3.87-1.59-7.33-.79-9.55-.29-.7.17-1.66.39-2.74.83-1,.41-2.13.99-3.24,1.88-.52.41-1.21.91-1.81,1.76-.22.32-.56.8-.81,1.34-.2.42-.34.87-.32,1.28-.35.21-.66.42-.92.64-.38-.17-.76-.42-1.07-.78-.1-.12-.25-.32-.39-.62h0c-.08-.18-.15-.37-.21-.61-.1-.38-.16-.86-.14-1.45.12-4.29,4.12-8.87,4.48-9.27,1.55-1.75,4.8-5.3,10.33-7.03,3.9-1.23,6.97-.93,8.59-.75.63.07,1.17.16,1.62.26,1.01.23,1.64.54,2.18.92.24.18.87.65,1.56,1.78.26.43.54.97.81,1.63.12.29.24.61.36.95.28.82.8,2.55.88,7.53.07,4.5-.29,6.88-1.19,8.84Z"/>
  <path class="cls-2" d="m106.83,52.54s-.02.07-.03.1c-.74,2.24-2.1,3.56-3.61,5.03-1.1,1.07-2.47,2.38-4.7,3.28-1.05.42-2.58,1.02-4.56.81-.59-.06-1.42-.15-2.25-.5.27-.14.5-.33.69-.59.81-1.09.51-2.54.25-3.76-.69-3.31-3.03-5.24-4.06-6.08-1.29-1.06-2.23-1.4-2.99-1.54-.21-.04-2.81-.3-3.35.6-.18.29-.17,1.12-.34,1.7-.06.22-.14.39-.27.5-.08.07-.16.13-.21.17-.03-.19-.05-.38-.06-.57-.03-.5.02-.96.05-1.24.18-1.66,1.07-2.78,1.47-3.27.2-.24.59-.69,1.18-1.16.26-.22.57-.43.92-.64.41-.24.88-.45,1.4-.62.32-.1.66-.18,1.02-.24,1.33-.21,2.51.01,3.49.38h0c1.03.38,1.84.91,2.38,1.28.88.58,1.59,1.25,2.17,1.93"/>
  <path class="cls-1" d="m111.1,48.71l-1.06.95c-.11.07-.24.13-.37.18-.83.34-1.59.22-1.8.19-.19-.03-.38-.08-.54-.15.02-.75-.06-1.61-.34-2.51-.11-.36-.61-1.87-1.99-3.28-2.15-2.17-4.87-2.53-6.56-2.76-3.84-.5-9.16,1.33-12.08,3.43-.52.17-.99.38-1.4.62-.02-.41.12-.86.32-1.28.25-.54.59-1.02.81-1.34.6-.85,1.29-1.35,1.81-1.76,1.11-.89,2.24-1.47,3.24-1.88,1.08-.44,2.04-.66,2.74-.83,2.22-.5,5.68-1.3,9.55.29.92.38,4.05,1.71,6.03,5.08.44.75,1.6,2.71,1.64,5.05Z"/>
  <path class="cls-2" d="m111.1,48.71c-.09.12-.19.23-.29.34-.07.07-.14.14-.21.2-.07.07-.14.12-.21.18-.11.08-.23.16-.35.23l1.06-.95Z"/>
  <path class="cls-2" d="m91.5,61.19c0,.06-.01.12-.02.18-.73.33-1.74.43-3.1.67-2.49.43-4.41.04-5.77-.26-1.99-.43-3.68-.82-4.97-2.27-.36-.41-1.17-1.32-1.02-2.39.09-.68.53-1.16,1.19-1.88.35-.37.83-.84,1.84-1.59,1.86-1.37,1.08-.81,1.74-1.39.05-.04.13-.1.21-.17.13-.11.21-.28.27-.5.69-.11,1.5-.15,2.4-.03.66.08,2.75.38,4.56,2.06,1.32,1.23,1.86,2.61,2.1,3.23.09.24.39,1.06.53,2.17.1.76.1,1.49.04,2.17Z"/>
  <g>
    <path class="cls-4" d="m95.42,48.11c1.3,1.54,1.92,3.16,2.25,4.05.55,1.48.74,2.78.81,3.66"/>
    <path d="m95.81,47.78c1.7,2.34,2.59,5.18,2.68,8.03-.19-1.39-.61-2.73-1.2-3.99-.57-1.26-1.31-2.43-2.24-3.4-.48-.51.34-1.2.76-.65h0Z"/>
  </g>
  <path class="cls-2" d="m77.72,72.35c-2.22-1.71-4.77-2.78-9.86-4.93-3.27-1.38-5.75-2.41-9.32-3.07-2.59-.47-5.77-1.02-9.59-.13-1.1.26-2.52.89-5.33,2.13-10.39,4.62-10.9,4.87-12.12,5.6-1.93,1.16-4.51,2.71-7.32,5.32-2.14,1.98-2.27,2.59-4.53,4.4-1.74,1.4-2.61,1.8-3.2,3.06-.39.85-.58,1.91-.47,2.91.45-1.08,1.24-2.38,2.66-3.32,1.66-1.11,3.27-1.12,5.49-1.14,4.22-.03,7.2,1.54,7.86,1.89,1.25.69,1.08.83,3.97,3.03,2.26,1.73,2.35,1.63,6.72,4.74,2.87,2.03,4.81,3.48,6.35,5.49.65.85,1.14,1.68,1.51,2.56.27.61.74,1.73.86,3.21.13,1.69-.35,1.77-.19,3.32.16,1.66.73,1.8.75,3.31.01.64.03,1.73-.66,2.75-.34.51-.78.86-1.22,1.12.05.09.12.16.2.23.56.45,1.5.17,2,0,4.94-1.72,13.58-7.72,13.58-7.72,6.78-4.71,7.79-3.38,10.93-6.93,1.44-1.63,1.71-2.46,5.46-7.19,3.29-4.16,3.43-3.95,3.72-4.8,1.79-5.11-3.48-12.17-8.25-15.84Z"/>
  <path class="cls-2" d="m42.55,102.91c-1.83-1.64-3.34-2.83-3.55-2.99-.16-.13-.32-.25-.48-.38-.01-.01-.02-.01-.02-.02-.7-.8-1.6-1.75-2.9-3.21-1.47-1.65-1.43-1.34-2.02-1.71-1.23-.79-2.09-.81-3.2-1.01h-.01c-1.4-.88-2.67-1.52-3.94-1.96-.57-.59-1.08-1.16-2.38-1.51-1.11-.3-1.25.42-2.45-.12-.61-.28-3.96-.08-4.25-.3,1.88-.8,6.29-1.51,7.97-1.19,4.99.94,8.41,3.9,10.41,5.68.34.3,4.49,4.04,6.82,8.72Z"/>
  <path class="cls-2" d="m51.07,113.22c-.34.51-.78.86-1.22,1.12-.87.51-1.8.63-2.19.68-.16.02-2.05.24-3.08-.41.78-.36,1.17-1.15,1.59-1.95.28-.54.29-1.1.43-2.17.11-.86.27-2.05.15-3.4-.07-.82-.24-1.7-.58-2.6-.19-.5-.64-1.25-1.52-2.75-.89-1.49-1.34-2.26-2.1-3.11-.27-.3-.51-.55-.79-.8,0,0,0-.01-.01-.01,0-.01,0-.01,0-.02-.95-1.03-3.26-4.12-3.89-4.74-1.04-1.03-1.57-1.55-2.25-2.1-1.02-.82-1.88-1.35-2.74-1.88-.46-.28-.6-.34-2.9-1.59-1.89-1.03-2.3-1.25-3.11-1.66-1.48-.76-2.22-1.14-2.67-1.23-1.84-.4-3.42.26-3.98.5-.26.11-.5.24-.73.37-1.71.96-2.72,2.37-2.6,2.53h.01c-.03.07-.04.12-.04.16h-.01c-.26.11-.52.27-.77.48-.04.03-.08.06-.12.1-.34.3-.61.61-.83.93.04-.2.07-.35.08-.41.06-.29.2-1.02.56-1.88.45-1.08,1.24-2.38,2.66-3.32,1.66-1.11,3.27-1.12,5.49-1.14,4.22-.03,7.2,1.54,7.86,1.89,1.25.69,1.08.83,3.97,3.03,2.26,1.73,2.35,1.63,6.72,4.74,2.87,2.03,4.81,3.48,6.35,5.49.65.85,1.14,1.68,1.51,2.56.27.61.74,1.73.86,3.21.13,1.69-.35,1.77-.19,3.32.16,1.66.73,1.8.75,3.31.01.64.03,1.73-.66,2.75Z"/>
  <path class="cls-2" d="m41.74,97.8c-.38-.34-.82-.7-1.43-1.2-1.39-1.12-1.89-1.37-2.82-2.09-2.44-1.88-1.99-2.43-3.91-3.84-1.65-1.21-1.87-.71-4.77-2.38-2.43-1.4-2.38-1.81-3.69-2.17-2.2-.62-4.22-.01-4.92.21-.13.04-.25.08-.37.13-.17.06-.33.13-.49.2-1.52.63-2.33,1.43-2.46,1.34h-.01c-.12-.16.89-1.57,2.6-2.53.23-.13.47-.26.73-.37.56-.24,2.14-.9,3.98-.5.45.09,1.19.47,2.67,1.23.81.41,1.22.63,3.11,1.66,2.3,1.25,2.44,1.31,2.9,1.59.86.53,1.72,1.06,2.74,1.88.68.55,1.21,1.07,2.25,2.1.63.62,2.94,3.71,3.89,4.74Z"/>
  <path class="cls-2" d="m44.35,111.89c-.25.87-.62,1.53-.29,2.18.07.14.17.26.28.36l-3.51-.63c1.6-.77,1.78-4.17,1.79-4.32.09-1.91-.55-3.5-1.23-5.21-.18-.46-.46-1.15-.94-2.02-.58-1.06-1.12-1.78-1.93-2.71-.01-.01-.02-.01-.02-.02-.7-.8-1.6-1.75-2.9-3.21-1.47-1.65-1.43-1.34-2.02-1.71-1.23-.79-2.09-.81-3.2-1.01h-.01c-1.18-.74-2.27-1.31-3.34-1.74-.38-.15-.73-.37-1.03-.66-.44-.42-.98-.81-1.95-1.07-1.11-.3-1.25.42-2.45-.12-.61-.28-3.96-.08-4.25-.3,1.49-1.23,6.29-1.51,7.97-1.19,4.99.94,8.41,3.9,10.41,5.68.34.3,4.49,4.04,6.82,8.72.52,1.03.95,2.11,1.23,3.21.69,2.73,1.04,4.09.57,5.77Z"/>
  <path class="cls-2" d="m46.6,110.49c-.14,1.07-.15,1.63-.43,2.17-.38.73-.74,1.45-1.39,1.85-.06.03-.13.07-.2.1-.09-.06-.17-.11-.24-.18-.11-.1-.21-.22-.28-.36-.33-.65.04-1.31.29-2.18.47-1.68.12-3.04-.57-5.77-.28-1.1-.71-2.18-1.23-3.21-2.33-4.68-6.48-8.42-6.82-8.72-2-1.78-5.42-4.74-10.41-5.68-1.68-.32-6.48-.04-7.97,1.19.29.22,3.64.02,4.25.3,1.2.54,1.34-.18,2.45.12.97.26,1.51.65,1.95,1.07.3.29.65.51,1.03.66,1.07.43,2.16,1,3.34,1.73h.01c1.11.21,1.97.23,3.2,1.02.59.37.55.06,2.02,1.71,1.3,1.46,2.2,2.41,2.9,3.21,0,.01.01.01.02.02.81.93,1.35,1.65,1.93,2.71.48.87.76,1.56.94,2.02.68,1.71,1.32,3.3,1.23,5.21-.01.15-.19,3.55-1.79,4.32-.07.04-.15.07-.23.09-.02,0-.03.01-.05.01-.57.15-1.33.01-1.62-.44-.01-.02-.03-.04-.03-.06.48-.22.91-.52,1.26-.9,2.1-2.28.37-6.69.03-7.55-1.49-3.8-4.45-5.91-8.69-8.94-2.49-1.78-3.78-2.69-5.89-3.42-.86-.29-1.96-.59-3.12-.8-1.44-.27-2.99-.4-4.34-.22,0,.01-.01.01-.02,0,0,0,0,.01-.01.01-.32.11-.61.27-.89.47-2,1.39-1.99,4.13-2.6,4.05-.08-.01-.14-.08-.19-.19,0-.02,0-.04,0-.06-.26-.62-.22-2.21-.21-3.09.02-.9.17-2.04.88-3.08h0c.22-.33.49-.64.83-.94.04-.04.08-.07.12-.1.25-.21.51-.37.77-.48h.01s.01-.09.04-.16c.13.09.94-.71,2.46-1.34.16-.07.32-.14.49-.2.12-.05.24-.09.37-.13.7-.22,2.72-.83,4.92-.21,1.31.36,1.26.77,3.69,2.17,2.9,1.67,3.12,1.17,4.77,2.38,1.92,1.41,1.47,1.96,3.91,3.84.93.72,1.43.97,2.82,2.09.61.5,1.05.86,1.43,1.2,0,.01,0,.01,0,.02.01,0,.01.01.01.01.28.25.52.5.79.8.76.85,1.21,1.62,2.1,3.11.88,1.5,1.33,2.25,1.52,2.75.34.9.51,1.78.58,2.6.12,1.35-.04,2.54-.15,3.4Z"/>
  <path class="cls-2" d="m40.16,112.5c-.35.38-.78.68-1.26.9-1.51.74-3.37.73-3.77.1-.02-.02-.03-.05-.04-.09.91-.36,1.75-1.07,2.18-1.77,2.23-3.75-5.09-11.49-5.52-11.93-.19-.2-3.89-3.96-9.87-5.89-2.35-.76-3.56-.76-4.58-.24-1.4.72-2.32,2.34-2.49,3.98-.16-.36-.32-.97-.37-1.65.05.11.11.18.19.19.61.08.6-2.66,2.6-4.05.28-.2.57-.36.89-.47.01,0,.01-.01.01-.01.01.01.02.01.02,0,1.35-.18,2.9-.05,4.34.22,1.16.21,2.26.51,3.12.8,2.11.73,3.4,1.64,5.89,3.42,4.24,3.03,7.2,5.14,8.69,8.94.34.86,2.07,5.27-.03,7.55Z"/>
  <path d="m24.49,100.89c-.07.19-.36,1.03-1.09,1.31-.86.34-1.35-.48-3.08-.86-1.63-.36-2.01.18-2.94-.36-.8-.47-1.6-1.49-1.41-2.54.02-.06.2-.94.91-1.27.6-.27,1.03.11,2.26.32,1.18.2,1.15-.08,2.31.09,1.09.16,2.28.33,2.86,1.27.56.9.2,1.96.18,2.04Z"/>
  <path d="m34.74,109.63c-.16.82-1.06,1.54-1.77,1.49-.44-.03-.5-.32-1.27-.75-.69-.38-.83-.25-2.1-.7-1.03-.36-1.55-.56-2.01-1.03-.19-.19-.73-.74-.75-1.49-.01-.32.09-.37.33-1.13.4-1.27.26-1.51.61-1.91.3-.36.81-.61,1.31-.61.36,0,.72.13,1.87,1.12.74.64,1.1.96,1.63,1.54,1.56,1.73,2.33,2.59,2.15,3.47Z"/>
  <path class="cls-2" d="m37.27,111.64c-.43.7-1.27,1.41-2.18,1.77-.07-.24.05-.69.25-1.49.44-1.7.74-1.96.76-2.73.01-.67-.26-1.21-.79-2.3-.45-.9-.97-1.73-1.8-2.84-1.06-1.41-1.65-2.19-2.59-3.05-1.67-1.53-2.01-1.09-4.7-3.13-1.34-1.01-1.72-1.47-2.84-1.94-1.01-.42-1.83-.51-2.95-.64-2.13-.25-3.26-.38-4.13.29-1.08.84-.95,2.35-1.22,2.33-.08-.01-.17-.14-.27-.35.17-1.64,1.09-3.26,2.49-3.98,1.02-.52,2.23-.52,4.58.24,5.98,1.93,9.68,5.69,9.87,5.89.43.44,7.75,8.18,5.52,11.93Z"/>
  <path class="cls-2" d="m35.34,111.92c-.2.8-.32,1.25-.25,1.49-.58.23-1.17.32-1.7.19-.68-.16-.82-.58-1.97-1.03-1.19-.47-1.66-.27-2.57-.51-.95-.26-1.44-.75-3.6-3.04-2.94-3.13-2.75-2.98-3.04-3.23-1.97-1.69-2.63-1.39-4.58-3.09-1.42-1.23-2.37-2.06-2.72-3.46-.13-.54-.16-1.11-.1-1.68.1.21.19.34.27.35.27.02.14-1.49,1.22-2.33.87-.67,2-.54,4.13-.29,1.12.13,1.94.22,2.95.64,1.12.47,1.5.93,2.84,1.94,2.69,2.04,3.03,1.6,4.7,3.13.94.86,1.53,1.64,2.59,3.05.83,1.11,1.35,1.94,1.8,2.84.53,1.09.8,1.63.79,2.3-.02.77-.32,1.03-.76,2.73Z"/>
  <path d="m24.56,99.31c.48.77.17,1.67.15,1.73-.06.16-.31.88-.93,1.11-.73.29-1.15-.41-2.62-.73-1.39-.31-1.71.15-2.5-.31-.68-.4-1.36-1.27-1.2-2.16.02-.05.17-.8.77-1.08.51-.23.88.09,1.92.27,1,.17.98-.07,1.96.08.93.14,1.94.28,2.43,1.08Z"/>
  <path d="m33.43,108.47c-.14.7-.9,1.31-1.51,1.27-.37-.03-.43-.27-1.08-.64-.59-.32-.71-.21-1.79-.6-.88-.31-1.32-.48-1.71-.88-.16-.16-.62-.63-.64-1.27,0-.27.08-.31.28-.96.34-1.08.22-1.28.52-1.62.26-.31.69-.52,1.11-.52.31,0,.61.11,1.59.95.63.54.94.82,1.39,1.31,1.33,1.47,1.98,2.2,1.83,2.95Z"/>
  <path class="cls-5" d="m47.36,88l27.12-13.8,3.14,3.86-20.52,19.75s-1.53-3.1-4.02-5.73c-2.06-2.17-5.73-4.07-5.73-4.07Z"/>
  <rect class="cls-3" x="-93.7" y="-1054.38" width="3385.57" height="2571.67"/>
</svg>