<?xml version="1.0" encoding="UTF-8"?>
<svg id="Calque_1" data-name="Calque 1" xmlns="http://www.w3.org/2000/svg" viewBox="0 0 128 128">
  <defs>
    <style>
      .cls-1, .cls-2, .cls-3, .cls-4, .cls-5, .cls-6, .cls-7, .cls-8, .cls-9, .cls-10 {
        stroke-linecap: round;
      }

      .cls-1, .cls-2, .cls-4, .cls-5, .cls-6, .cls-7, .cls-8, .cls-9, .cls-10 {
        stroke-linejoin: round;
      }

      .cls-1, .cls-2, .cls-7, .cls-8, .cls-11, .cls-9 {
        fill: none;
      }

      .cls-1, .cls-4, .cls-5, .cls-8 {
        stroke: #231f20;
      }

      .cls-2, .cls-3, .cls-12, .cls-6, .cls-7, .cls-11, .cls-10 {
        stroke: #000;
      }

      .cls-13 {
        fill: #d6d6d6;
      }

      .cls-14, .cls-4 {
        fill: #87ccf3;
      }

      .cls-3 {
        fill: #bfe6fc;
      }

      .cls-3, .cls-12, .cls-4, .cls-5, .cls-6, .cls-7, .cls-8, .cls-11 {
        stroke-width: 2px;
      }

      .cls-3, .cls-12, .cls-11 {
        stroke-miterlimit: 10;
      }

      .cls-12 {
        fill: #ff6d75;
      }

      .cls-5, .cls-6 {
        fill: #fff;
      }

      .cls-9 {
        stroke: #fff;
        stroke-width: 8px;
      }
    </style>
  </defs>
  <path class="cls-6" d="m97.76,68.78c-.89-.18-4.13-1.92-6.48-4.2-2.48-2.42-.55-3.98,1.53-6.97,2.07-2.96.97-4.27,1.54-4.99.58-.73,4.01.08,6.54-2.96.27-.34.55-.62.85-.89,2.36-2.24,5-2.55,6.48-2.6,0,0-1.54,7.3-1.64,8.6-.11,1.29-.19,5.29,1.73,6.06,1.76.69,3.78.72,4.26,2.45.48,1.73-1.58,4.21-3.6,3.82,0,0-1.34,3.83-2.3,5.94"/>
  <path class="cls-13" d="m104.55,54.52c-.15-.5-.42-.94-.9-1.28-.74-.52-1.86-.81-2.76-.71-.9.1-1.68.68-2.28,1.33-.3.32-.55.65-.65,1.08-.1.4.01.74.04,1.11,0,.09,0,.17,0,.26.04.69.49,1.08.99,1.17.15.21.34.39.56.55.58.64,1.42.98,2.27.85,2.2.29,4.11-2.43,2.71-4.35Z"/>
  <path class="cls-4" d="m60.53,115.85h53.71c12.54-22.76,5.93-27.09,5.88-27.14h0s0,0,0,0h0s-10.65-12.73-12.54-15.25c-1.9-2.53-5.14-5.5-8.39-5.87-1.96-.22-8.32.84-13.04,1.72-3.59.67-18.08,2.51-19.82,5.72-2.18,4.01-7.57,12.89-7.15,21.18.54,10.71,2.72,11.19,1.36,19.64"/>
  <path class="cls-7" d="m99.35,51.03s1.12-5.05,3.93-7.27c3.39-2.68,6.3-.17,6.3-.17,3.8-1.12,11.82,3.48,14.96,12.45,2.29,6.55-2.36,10.19-6.18,11.49"/>
  <path class="cls-7" d="m121.48,66.17s-1.72,4.01-5.5,4.97c-3.29.84-6.96,1.58-9.43,3.76"/>
  <ellipse class="cls-10" cx="102.08" cy="55.11" rx="1.16" ry=".53" transform="translate(-3.45 103.28) rotate(-52.9)"/>
  <path class="cls-1" d="m103.31,115.85c.94-4.69,3.24-20.15,11.96-28.05"/>
  <path class="cls-12" d="m100.7,83.57s-13.68,29.73-26.26,23.44c-4.35-2.18-7.81-7.46-10.27-12.46-1.34,10.78-1.06,21.21-1.06,21.21H13.43s.18-2.24.5-5.82c.32-3.58.77-8.52,1.33-13.92.23-2.33.49-4.75.76-7.19-5.36.73-10.04.76-11.92-.78-.86-.71-1.25-2.14-1.25-4.06,0-10.61,11.86-36.18,22.07-37.15,0,0,16.08-4.6,25.27-2.59,4.41.97,9.37,4.41,13.22,7.62s6.6,6.17,6.6,6.17c4.13,3.02,10.51,28.31,10.51,28.31l9.55-10.42s.3.22.8.58c1.31.96,4.05,2.95,6.51,4.71,1.26.9,2.43,1.74,3.32,2.35Z"/>
  <g>
    <path class="cls-14" d="m107.19,72.9c1.11,1.55,1.36,3.62.44,5.3-.5.91-1.32,1.71-2.69,1.91-3.64.53-9.48-4.88-10.86-8.33-1.39-3.45,1.64-4.04,3.91-3.82,2,.19,6.07.56,9.2,4.94Z"/>
    <path class="cls-1" d="m107.63,78.2c-.5.91-1.32,1.71-2.69,1.91-3.64.53-9.48-4.88-10.86-8.33-.66-1.65-.16-2.73.79-3.39"/>
    <path class="cls-1" d="m106.08,79.75s-.62,7.21-2.46,13.3"/>
    <path class="cls-1" d="m90.87,71.74s-5.3,3.21-7.69,6"/>
    <path class="cls-1" d="m102.83,79.86s-1.34,5.71-2.68,9.45"/>
  </g>
  <path class="cls-5" d="m99.76,72.13c0,.23-.08.47-.23.66-.26.33-.7.47-1.1.36l-2.11-.58,1.21,2.04c.92,1.54,1.07,3.42.43,5.1l-.58,1.51c-2.46-1.76-5.2-3.75-6.51-4.71v-4.77c0-.85.32-1.66.9-2.29,1.15-1.23,3.05-1.42,4.42-.43l3.13,2.26c.29.21.44.53.44.85Z"/>
  <path class="cls-1" d="m80.52,86.35s-2.66,3.58-4.11,7.07"/>
  <path class="cls-2" d="m64.17,94.55c.14-5.16,1.55-9.5,2.68-12.97,2.01-6.17,2.84-11.72,3.14-15.87"/>
  <path class="cls-1" d="m49.49,49.51s-2.93,24.47-5.5,39.81c-2.58,15.34-2.24,26.44-2.24,26.44"/>
  <path class="cls-5" d="m54.73,72.96c-.14.27-.16.59-.04.87l.57,1.35c.15.34.09.74-.14,1.03l-1.17,1.41c-.15.19-.23.43-.22.68l.02.72c.01.36-.17.7-.47.89l-.77.49c-.36.22-.53.64-.45,1.05,0,.07.02.13.02.2,0,.36-.2.7-.52.88l-1.65.91c-.15.08-.31.13-.49.13-.56,0-1.99-.02-3.73-.14-1.82-.13-3.98-.36-5.84-.8v-11.24l.44-.06,1-.12s2.41-3.47,2.86-3.64c.45-.17,4.25-1.29,5.2-1.06.59.14,1.1,1,1.4,1.62.19.41.61.66,1.06.65.83-.01,2.06-.04,2.24-.04.2,0,.94,1.25,1.35,1.97.17.3.17.66.01.97l-.68,1.27Z"/>
  <path class="cls-8" d="m39.85,82.63v.68s-13.67,3.89-23.83,5.52"/>
  <path class="cls-8" d="m27.28,49.34c3.71,8.6-4.52,21.04-4.52,21.04l17.09-.71v1.72"/>
  <path class="cls-1" d="m22.76,70.38s-2.23,1.14-5.21,3.24"/>
  <path class="cls-7" d="m72.37,33.01s4.34-3.71,5.04-7.59c.85-4.69-3.1-6.22-3.1-6.22-.87-4.28-9.51-9.71-19.86-8.11-7.56,1.16-8.69,7.57-7.98,11.96"/>
  <path class="cls-7" d="m46.16,19.32s-3.01,3.76-1.99,7.93c.89,3.64,2.06,7.59,1.23,11.12"/>
  <path class="cls-6" d="m55.91,43.76c.64.77,4.01,3.02,7.44,4.13,3.64,1.16,4.16-1.52,5.99-5.1,1.81-3.54,3.65-3.16,4.06-4.08.41-.94-2.15-3.87-.51-7.9.19-.44.32-.85.43-1.29.96-3.45-.11-6.19-.82-7.66,0,0-6.3,5.28-7.52,6.05-1.2.77-5.05,2.93-6.79,1.45-1.58-1.35-2.66-3.31-4.59-2.87-1.93.43-3.28,3.72-1.85,5.48,0,0-3.04,2.63-4.6,4.65l-5.41,7.21s7.74,10.23,17.12,4.58l-2.95-4.66Z"/>
  <line class="cls-2" x1="67.54" y1="25.95" x2="70.57" y2="30.85"/>
  <ellipse class="cls-10" cx="66.98" cy="32.47" rx="1.28" ry=".59" transform="translate(9.35 79.58) rotate(-65.12)"/>
  <path class="cls-2" d="m68.76,43.98s-.44-1.52-6.86-2.92"/>
  <line class="cls-6" x1="54.2" y1="29.52" x2="54.97" y2="30.21"/>
  <line class="cls-2" x1="102.82" y1="50.46" x2="104.73" y2="54.04"/>
  <path class="cls-8" d="m95.57,67.79s7.9-.5,12.86,6.76"/>
  <g>
    <g>
      <line class="cls-3" x1="81.71" y1="40.98" x2="77.96" y2="41.48"/>
      <line class="cls-3" x1="71.11" y1="52.5" x2="71.3" y2="48.71"/>
    </g>
    <line class="cls-3" x1="79.14" y1="49.25" x2="77" y2="47.28"/>
  </g>
  <g>
    <g>
      <line class="cls-3" x1="53.76" y1="60.37" x2="53.47" y2="64.15"/>
      <line class="cls-3" x1="62.8" y1="73.15" x2="59.14" y2="72.17"/>
    </g>
    <line class="cls-3" x1="61.31" y1="64.62" x2="58.94" y2="66.29"/>
  </g>
  <path class="cls-2" d="m91.99,58.74s4.46,1.57,5.14,3.52"/>
  <path class="cls-11" d="m40.95,43.74s8.4,9.6,17.91,4.68"/>
  <rect class="cls-9" x="-4604.82" y="-3944.23" width="6467.34" height="6437.3"/>
</svg>