<?xml version="1.0" encoding="UTF-8"?>
<svg id="Calque_1" data-name="Calque 1" xmlns="http://www.w3.org/2000/svg" viewBox="0 0 128 128">
  <defs>
    <style>
      .cls-1, .cls-2, .cls-3, .cls-4, .cls-5, .cls-6, .cls-7, .cls-8, .cls-9, .cls-10, .cls-11 {
        stroke-linecap: round;
      }

      .cls-1, .cls-2, .cls-3, .cls-5, .cls-6, .cls-7, .cls-9, .cls-10, .cls-11 {
        stroke-linejoin: round;
      }

      .cls-1, .cls-3, .cls-4, .cls-12, .cls-7, .cls-8, .cls-9, .cls-13, .cls-11 {
        stroke: #000;
      }

      .cls-1, .cls-14, .cls-12 {
        fill: #ff6d75;
      }

      .cls-2, .cls-3, .cls-9, .cls-13, .cls-10 {
        fill: none;
      }

      .cls-2, .cls-5, .cls-6 {
        stroke: #231f20;
      }

      .cls-4, .cls-12, .cls-5, .cls-6, .cls-7, .cls-9, .cls-13 {
        stroke-width: 2px;
      }

      .cls-4, .cls-12, .cls-8, .cls-13 {
        stroke-miterlimit: 10;
      }

      .cls-4, .cls-8 {
        fill: #bfe6fc;
      }

      .cls-5 {
        fill: #87ccf3;
      }

      .cls-6, .cls-7 {
        fill: #fff;
      }

      .cls-10 {
        stroke: #fff;
        stroke-width: 8px;
      }
    </style>
  </defs>
  <circle class="cls-14" cx="41.92" cy="19.32" r="7.06"/>
  <path class="cls-3" d="m34.86,19.32c0,3.9,3.16,7.06,7.06,7.06,3.9,0,7.06-3.16,7.06-7.06,0-3.9-3.16-7.06-7.06-7.06-1.21,0-2.35.31-3.35.84"/>
  <path class="cls-3" d="m44.83,22.92c-.72-.79-1.76-1.28-2.91-1.28-1.15,0-2.19.5-2.91,1.28"/>
  <g>
    <circle class="cls-11" cx="44.68" cy="17.95" r=".88"/>
    <circle class="cls-11" cx="39.15" cy="17.95" r=".88"/>
  </g>
  <path class="cls-6" d="m43.92,44.31c-.11.28-.09.61.09.88.7,1.07,1.85,2.88,2.57,4.33,0,0-1.61.59-2.34,1.34-.73.75-.42,1.81-.42,1.81,0,0-3.13,1.89-3.46,4.21-.21,1.47.3,3.52,1.93,6.04.95,1.47,2.29,3.09,4.08,4.83l6.23-5.89-1.72-10.22c-.11-.66-.33-1.3-.66-1.88-.72-1.3-2.25-3.65-4.82-5.82-.29-.25-.7-.29-1.04-.12-.22.11-.37.29-.45.5Z"/>
  <path class="cls-5" d="m63.73,114.74H12.86c-10.34-18.02-5.62-25.65-5.57-25.7h0s0,0,0,0h0s10.09-12.05,11.88-14.44c1.8-2.39,4.87-5.21,7.95-5.56,1.86-.21,7.88.8,12.35,1.63,0,0,24.26,6.21,24.26,44.08Z"/>
  <path class="cls-9" d="m26.96,46.13s-1.06-4.78-3.72-6.89c-3.21-2.54-5.97-.16-5.97-.16-3.6-1.06-11.2,3.29-14.17,11.79-2.17,6.2,2.23,9.65,5.85,10.88"/>
  <path class="cls-9" d="m6,60.47s.9,6.14,4.47,7.05c3.12.8,7.33-.84,9.67,1.22"/>
  <path class="cls-7" d="m20.04,66.97c-.91-1.99-2.18-5.62-2.18-5.62-1.92.37-3.86-1.98-3.41-3.62.45-1.64,2.37-1.67,4.03-2.32,1.82-.72,1.74-4.51,1.64-5.74-.09-1.23-1.55-8.14-1.55-8.14,1.4.05,3.91.35,6.14,2.47.28.26.54.53.8.85,2.39,2.88,5.65,2.12,6.2,2.8.53.68-.5,1.92,1.46,4.72,1.97,2.83,3.8,4.31,1.45,6.6-2.23,2.16-5.29,3.81-6.14,3.98l3.03,6.41s-3.18,7.41-11.01,3.69l-.45-6.07Z"/>
  <ellipse class="cls-11" cx="24.38" cy="49.99" rx=".5" ry="1.1" transform="translate(-25.22 24.82) rotate(-37.1)"/>
  <path class="cls-2" d="m23.21,114.74c-.89-4.44-3.07-19.08-11.33-26.57"/>
  <line class="cls-3" x1="22.77" y1="45.59" x2="20.97" y2="48.98"/>
  <path class="cls-3" d="m33.94,53.43s-2.91,0-4.86,3.33"/>
  <path class="cls-12" d="m118.13,114.79h-41.87s-.44-20.67-1.32-23.95c-.46-1.71-2.16-4.79-3.85-7.7-.92,1.71-2.18,3.84-3.7,5.84-2.28,3-5.15,5.68-8.32,6.17-7.68,1.17-15.08-16.38-16.78-30.35,0,0,4.57-2.11,11.24-2.91l5.54,15.8s1.89-6.66,3.53-11.81c.97-3.04,2.48-5.87,4.45-8.37l1.96-2.49s0,0,0,0c0,0,9.61-6.55,15.49-6.55s18.8,4.23,18.8,4.23c5.23.82,16.38,21.48,21,31.66,1.49,3.29,2.1,6.93,1.67,10.52-.66,5.42-2.53,13.8-7.83,19.93Z"/>
  <path class="cls-7" d="m81.46,47.15c-.76.57-4.36,1.9-7.77,2.16-3.61.26-3.5-2.33-4.39-6.02-.88-3.66-2.66-3.72-2.83-4.66-.17-.95,2.84-3.08,2.22-7.16-.07-.45-.11-.86-.11-1.28-.12-3.39,1.47-5.67,2.46-6.87,0,0,4.63,6.26,5.58,7.24.94.98,4,3.82,5.93,2.84,1.76-.89,3.18-2.46,4.86-1.63,1.68.83,2.2,4.15.49,5.46,0,0,2.22,3.09,3.2,5.3l3.38,7.84s-9.4,7.71-16.78.42l3.75-3.64Z"/>
  <path class="cls-3" d="m76.19,44.19c-3.83-1.16-6.61.32-6.61.32v.02s-.28-1.25-.28-1.25c0,0,1.87-2.36,5.4-1.23,1.26.41,1.7,1.27,1.5,2.14Z"/>
  <path class="cls-1" d="m76.19,44.19c-.37,1.55-2.81,3.14-6.21,2.15l-.41-1.81v-.02s2.79-1.49,6.62-.32Z"/>
  <path class="cls-2" d="m59.12,79.95c.07,1.81.21,4.35.55,6.23"/>
  <path class="cls-2" d="m106.92,114.79c.02-8.76,3.78-26.28,3.78-26.28,0,0-9.89-15.51-12.47-21.78"/>
  <path class="cls-9" d="m68.69,33.61s-3.17-4.37-2.96-8.11c.26-4.51,4.23-5.04,4.23-5.04,1.75-3.75,10.91-6.83,20.09-3.07,6.71,2.75,6.33,8.9,4.7,12.79"/>
  <path class="cls-9" d="m95.85,26.8s1.94,4.12.08,7.74c-1.62,3.16-3.58,6.53-3.59,9.97"/>
  <line class="cls-3" x1="74.69" y1="28.17" x2="70.82" y2="32.01"/>
  <ellipse class="cls-11" cx="73.76" cy="34.3" rx=".56" ry="1.21" transform="translate(-5.31 15.18) rotate(-11.34)"/>
  <line class="cls-7" x1="86.18" y1="34.42" x2="85.33" y2="34.88"/>
  <path class="cls-13" d="m95.23,50.45s-9.86,6.98-17.53.34"/>
  <g>
    <g>
      <line class="cls-4" x1="61.75" y1="55.54" x2="63.12" y2="52.23"/>
      <line class="cls-4" x1="57.38" y1="41.38" x2="60.38" y2="43.34"/>
    </g>
    <line class="cls-4" x1="56.21" y1="49.5" x2="58.83" y2="48.69"/>
  </g>
  <g>
    <g>
      <line class="cls-8" x1="65.89" y1="49.79" x2="66.5" y2="48.32"/>
      <line class="cls-8" x1="63.96" y1="43.52" x2="65.29" y2="44.38"/>
    </g>
    <line class="cls-8" x1="63.44" y1="47.11" x2="64.6" y2="46.75"/>
  </g>
  <path class="cls-9" d="m25.6,14.76v10.31c0,3.51,2.62,6.39,5.82,6.39h11.61s8.62,6.8,8.62,6.8v-6.8h1.5c3.2,0,5.82-2.87,5.82-6.39v-10.31c0-3.51-2.62-6.39-5.82-6.39h-21.74c-3.2,0-5.82,2.88-5.82,6.39Z"/>
  <rect class="cls-10" x="-4778.85" y="-3944.23" width="6467.34" height="6437.3"/>
</svg>