<?xml version="1.0" encoding="UTF-8"?>
<svg id="Calque_1" data-name="Calque 1" xmlns="http://www.w3.org/2000/svg" viewBox="0 0 128 128">
  <defs>
    <style>
      .cls-1, .cls-2, .cls-3, .cls-4, .cls-5, .cls-6, .cls-7, .cls-8, .cls-9, .cls-10, .cls-11 {
        stroke-linecap: round;
      }

      .cls-1, .cls-2, .cls-3, .cls-4, .cls-6, .cls-7, .cls-8, .cls-9, .cls-10, .cls-11 {
        stroke-linejoin: round;
      }

      .cls-1, .cls-2, .cls-6, .cls-7 {
        fill: #fff;
      }

      .cls-1, .cls-4, .cls-5, .cls-12, .cls-7, .cls-8, .cls-13, .cls-11 {
        stroke: #000;
      }

      .cls-2, .cls-3, .cls-6, .cls-9 {
        stroke: #231f20;
      }

      .cls-3, .cls-4, .cls-8, .cls-9, .cls-10, .cls-13 {
        fill: none;
      }

      .cls-14 {
        fill: #fab0b4;
      }

      .cls-15 {
        fill: #e9cb61;
      }

      .cls-16 {
        fill: #d6d6d6;
      }

      .cls-5 {
        fill: #bfe6fc;
      }

      .cls-5, .cls-12, .cls-17, .cls-6, .cls-7, .cls-8, .cls-9 {
        stroke-width: 2px;
      }

      .cls-5, .cls-12, .cls-17, .cls-13 {
        stroke-miterlimit: 10;
      }

      .cls-12 {
        fill: #ff6d75;
      }

      .cls-17 {
        fill: #87ccf3;
        stroke: #87ccf3;
      }

      .cls-10 {
        stroke: #fff;
        stroke-width: 8px;
      }
    </style>
  </defs>
  <polygon class="cls-15" points="93.09 44.43 96.5 56.02 106.08 48.65 102.03 60.03 114.11 59.7 104.14 66.53 114.11 73.36 102.03 73.02 106.08 84.41 96.5 77.04 93.09 88.63 89.68 77.04 80.1 84.41 84.15 73.02 72.07 73.36 82.04 66.53 72.07 59.7 84.15 60.03 80.1 48.65 89.68 56.02 93.09 44.43"/>
  <path class="cls-16" d="m106.26,74.51c-.12-.39-.33-.74-.7-1-.58-.41-1.46-.63-2.16-.56-.71.08-1.31.53-1.79,1.04-.24.25-.43.51-.51.84-.08.31.01.58.03.87,0,.07,0,.14,0,.2.03.54.38.84.78.91.12.16.27.3.44.43.45.5,1.11.77,1.78.66,1.72.23,3.22-1.9,2.12-3.41Z"/>
  <path class="cls-2" d="m89.94,78.92s3.57-3.89,6.79-9.79c0,0,2.18-2.94,3.19-4.89.16-.31.07-.69-.21-.9h0c-.3-.23-.72-.18-.97.09l-3.04,3.34,3.46-5.16c.24-.36.18-.84-.13-1.12h0c-.36-.33-.93-.29-1.24.09-.95,1.15-2.83,3.41-3.52,4.18,0,0,2.03-3.17,3.2-4.98.33-.51.22-1.18-.26-1.54h0c-.49-.37-1.18-.29-1.58.19-1.03,1.23-2.9,3.53-3.77,4.92,0,0,1.38-2.7,2.44-4.58.26-.46.09-1.03-.37-1.27h0c-.4-.21-.89-.1-1.17.26-1.07,1.4-3.74,4.97-6.09,8.9-3.02,5.06-3.8,8.17-3.8,8.17l7.07,4.09Z"/>
  <path class="cls-2" d="m95.72,67.89s-1.56-2.17-5.26-4.42"/>
  <path class="cls-2" d="m84.09,73.3c-.56-1.67-.49-4.62-.05-6.7.15-.73.64-1.34,1.33-1.64,1.24-.53,3.37-1.4,4.85-1.82.32-.09.64.1.72.42h0c.22.9-.19,1.83-1,2.29-.52.3-1.16.62-1.84.9,0,0,2.03,2.49,1.3,5.21"/>
  <path class="cls-12" d="m92.24,78.64s-12.61,27.4-24.2,21.6c-4.01-2.01-7.2-6.87-9.46-11.48-1.23,9.93-.98,19.55-.98,19.55H11.81s.17-2.06.46-5.36c.29-3.3.71-7.85,1.23-12.83.21-2.15.45-4.38.7-6.63-4.94.67-9.25.7-10.98-.72-.79-.65-1.15-1.97-1.15-3.74,0-9.78,10.93-33.34,20.34-34.24,0,0,14.82-4.24,23.29-2.39,4.06.89,8.63,4.06,12.18,7.02,3.55,2.96,6.08,5.69,6.08,5.69,3.81,2.78,9.69,26.09,9.69,26.09l8.8-9.6s.28.2.74.53c1.21.88,3.73,2.72,6,4.34,1.16.83,2.24,1.6,3.06,2.17Z"/>
  <path class="cls-3" d="m73.64,81.2s-2.45,3.3-3.79,6.52"/>
  <path class="cls-8" d="m58.57,88.76c.13-4.75,1.42-8.76,2.47-11.95,1.86-5.69,2.61-10.8,2.89-14.63"/>
  <path class="cls-3" d="m45.04,47.25s-2.7,22.55-5.07,36.68c-2.37,14.13-2.06,24.37-2.06,24.37"/>
  <path class="cls-6" d="m49.87,68.86c-.13.25-.15.54-.04.8l.53,1.24c.14.31.08.68-.13.95l-1.08,1.3c-.14.18-.21.4-.2.63l.02.66c0,.33-.16.64-.44.82l-.71.45c-.33.2-.49.59-.41.97,0,.06.02.12.02.18,0,.33-.18.65-.48.81l-1.52.84c-.14.07-.29.12-.45.12-.52,0-1.83-.02-3.44-.13-1.68-.12-3.67-.33-5.38-.74v-10.36l.41-.06.92-.11s2.22-3.2,2.64-3.35c.41-.16,3.92-1.19,4.79-.98.55.13,1.01.92,1.29,1.49.18.38.56.61.98.6.77-.01,1.9-.03,2.06-.03.18,0,.87,1.15,1.24,1.82.16.28.16.61,0,.89l-.63,1.17Z"/>
  <path class="cls-9" d="m36.16,77.77v.63s-12.6,3.58-21.96,5.09"/>
  <path class="cls-9" d="m24.58,47.09c3.42,7.93-4.17,19.39-4.17,19.39l15.75-.65v1.59"/>
  <path class="cls-3" d="m20.41,66.49s-2.06,1.05-4.8,2.99"/>
  <path class="cls-8" d="m66.12,32.05s3.99-3.42,4.64-7c.78-4.32-2.85-5.73-2.85-5.73-.81-3.95-8.76-8.94-18.31-7.48-6.97,1.07-8.01,6.98-7.36,11.03"/>
  <path class="cls-8" d="m41.97,19.42s-2.77,3.46-1.84,7.31c.82,3.36,1.9,7,1.13,10.25"/>
  <path class="cls-7" d="m50.96,41.95c.59.71,3.69,2.79,6.86,3.81,3.36,1.07,3.84-1.41,5.52-4.7,1.67-3.26,3.37-2.91,3.74-3.76.38-.86-1.99-3.56-.47-7.28.17-.41.3-.79.4-1.19.88-3.18-.1-5.7-.76-7.06,0,0-5.81,4.86-6.93,5.57-1.11.71-4.66,2.7-6.26,1.34-1.46-1.25-2.45-3.05-4.23-2.65-1.78.4-3.03,3.43-1.71,5.05,0,0-2.8,2.42-4.23,4.29l-4.98,6.64s7.14,9.43,15.77,4.22l-2.72-4.3Z"/>
  <line class="cls-4" x1="61.68" y1="25.54" x2="64.47" y2="30.05"/>
  <ellipse class="cls-11" cx="61.16" cy="31.55" rx="1.18" ry=".54" transform="translate(6.81 73.76) rotate(-65.12)"/>
  <path class="cls-4" d="m62.81,42.15s-.4-1.4-6.33-2.69"/>
  <line class="cls-1" x1="49.38" y1="28.83" x2="50.09" y2="29.46"/>
  <g>
    <g>
      <line class="cls-5" x1="48.98" y1="57.26" x2="48.71" y2="60.74"/>
      <line class="cls-5" x1="57.31" y1="69.04" x2="53.94" y2="68.13"/>
    </g>
    <line class="cls-5" x1="55.94" y1="61.17" x2="53.75" y2="62.72"/>
  </g>
  <path class="cls-13" d="m37.18,41.93s7.74,8.85,16.5,4.31"/>
  <path class="cls-1" d="m85.12,117.32c-2.09-.22-.6-2.49,2.55-4.47,3.15-1.98,3.94-4.74,6.35-12.13,2.41-7.39,4.4-8.41,4.4-8.41,4.05-2.59,7.81-4.78,2.3-6.31-5.5-1.53-2.3-8.42-2.3-8.42,0,0-1.05-2.07.27-2.16,1.32-.09,1.61-1.48,1.61-1.48,0,0-3.12-8.79,7.47-11.37,10.59-2.59,15.63,6.01,16.4,11.5s-2.13,11.02-10.89,12.75c0,0-1.14.46-.38,2.44.76,1.98,5.95,1.16,8.74,7.8,0,0,4.91,14.47-1.89,19.95,0,0-5.3,2.39-7.43,4.54-2.13,2.15-5.41,4.74-4.8,3.05.61-1.69,1.49-2.22,1.49-2.22"/>
  <path class="cls-4" d="m103.34,123.59c.63-.47,1.24-1.79,2.89-2.56"/>
  <path class="cls-4" d="m103.78,121.02s.01-.01.02-.01"/>
  <path class="cls-4" d="m115.05,97.97s-.52,9.6-.04,13.73c0,0-.74-.19-3.62,2.5-.09.08-.18.17-.27.26"/>
  <path class="cls-4" d="m107.14,122.38s-1.54,1.02-2.03,1.83h0"/>
  <path class="cls-4" d="m104.96,124.71c.14.77,3.12-1.41,3.29-1.53h0"/>
  <path class="cls-4" d="m105.1,124.22h0"/>
  <line class="cls-4" x1="109.31" y1="116.46" x2="109.31" y2="116.46"/>
  <path class="cls-1" d="m111.13,114.45c-.58.03-12.26.56-14.54-1.45"/>
  <path class="cls-4" d="m111.13,114.45h.02"/>
  <path class="cls-4" d="m104.96,124.71c-.03-.15.03-.32.14-.49-.14.1-2.08,1.45-1.76-.63-.29.21-.58.25-.97,0-1.2-.78,1.17-2.41,1.41-2.57-1.55.74-2.86-1.17.66-.95,1.95.12,5.04-3.62,6.69-5.61"/>
  <path class="cls-4" d="m100.02,94.68s-4.09,11.74-3.44,18.32"/>
  <path class="cls-4" d="m96.66,107.89l-3.34,5.03s.61,6.31-.73,4.67c-1.34-1.64-.83-4.06-2.62-2.05-1.79,2.01-1.46,3.34-2.16,2.03s.67-2.99.67-2.99"/>
  <path class="cls-4" d="m87.69,116.08s-3.34,3.66-1.85.3l1.17-1.8"/>
  <path class="cls-4" d="m112.9,79.32s2.96.99,1.26,3.43c-1.7,2.44-3.21.29-3.21.29"/>
  <circle cx="102.47" cy="75.44" r=".69"/>
  <path class="cls-4" d="m104.52,73.91s-.19-1.78-2.04-1.67"/>
  <line class="cls-4" x1="110.94" y1="99.42" x2="110.04" y2="99.42"/>
  <line class="cls-4" x1="102.46" y1="98.68" x2="101.59" y2="98.47"/>
  <line class="cls-4" x1="112.82" y1="81.61" x2="112.22" y2="81.34"/>
  <polygon class="cls-14" points="100.22 80.64 100.22 80.64 100.22 80.64 100.22 80.64"/>
  <path class="cls-14" d="m99.48,81.61h.02s0,0,0,0c0,0-.01,0-.02,0Z"/>
  <path class="cls-4" d="m101.78,65.81s2.62,5.98,8.26,6.43c0,0-1.15,3.46,3.04,4.59"/>
  <path class="cls-4" d="m97.6,80.42s1.58-1.9,3.82,1.82"/>
  <path class="cls-17" d="m104.93,80.91s-.61,2.68.66,2.65c1.27-.03-.66-2.65-.66-2.65Z"/>
  <path class="cls-16" d="m111.92,106.24c-.59-1-1.76-1.58-2.91-1.53-.6.03-1.17.21-1.7.49-.56.3-1.04.98-1.65,1.1-.48.1-.91.02-1.25.45-.36.45-.27,1.1-.09,1.61.44,1.21,1.49,2.32,2.76,2.63.67.16,1.39.11,2.01-.2.31-.15.55-.37.82-.57.07-.05.13-.09.19-.12.64.2,1.38-.02,1.83-.64.62-.87.52-2.31,0-3.21Z"/>
  <path class="cls-16" d="m106.54,93.83c-.12-.39-.33-.74-.7-1-.58-.41-1.46-.63-2.16-.56-.71.08-1.31.53-1.79,1.04-.24.25-.43.51-.51.84-.08.31.01.58.03.87,0,.07,0,.14,0,.2.03.54.38.84.78.91.12.16.27.3.44.43.45.5,1.11.77,1.78.66,1.72.23,3.22-1.9,2.12-3.41Z"/>
  <rect class="cls-10" x="-4597.86" y="-4184.37" width="6467.34" height="6437.3"/>
</svg>