<?xml version="1.0" encoding="UTF-8"?>
<svg id="Calque_1" data-name="Calque 1" xmlns="http://www.w3.org/2000/svg" viewBox="0 0 128 128">
  <defs>
    <style>
      .cls-1, .cls-2, .cls-3, .cls-4, .cls-5, .cls-6, .cls-7, .cls-8, .cls-9, .cls-10, .cls-11 {
        stroke-linecap: round;
      }

      .cls-1, .cls-2, .cls-3, .cls-4, .cls-6, .cls-7, .cls-8, .cls-9, .cls-10, .cls-11 {
        stroke-linejoin: round;
      }

      .cls-1, .cls-4, .cls-5, .cls-12, .cls-8, .cls-9, .cls-13, .cls-11 {
        stroke: #000;
      }

      .cls-1, .cls-12 {
        fill: #ff6d75;
      }

      .cls-2 {
        fill: #d6d6d6;
        stroke: #d6d6d6;
      }

      .cls-3, .cls-4, .cls-9, .cls-13, .cls-10 {
        fill: none;
      }

      .cls-3, .cls-6, .cls-7 {
        stroke: #231f20;
      }

      .cls-14, .cls-7, .cls-8 {
        fill: #fff;
      }

      .cls-5 {
        fill: #bfe6fc;
      }

      .cls-5, .cls-12, .cls-6, .cls-7, .cls-8, .cls-9, .cls-13 {
        stroke-width: 2px;
      }

      .cls-5, .cls-12, .cls-15, .cls-13 {
        stroke-miterlimit: 10;
      }

      .cls-6, .cls-15 {
        fill: #87ccf3;
      }

      .cls-15 {
        stroke: #87ccf3;
      }

      .cls-10 {
        stroke: #fff;
        stroke-width: 8px;
      }
    </style>
  </defs>
  <path class="cls-2" d="m38.45,32.76l1.19-.47c2.53-1,3.7-4.09,2.61-6.86l-3.22-8.16c-1.1-2.77-4.06-4.23-6.59-3.23l-17.19,6.79c-2.53,1-3.7,4.09-2.61,6.86l3.22,8.16c1.1,2.78,4.06,4.23,6.59,3.23l9.18-3.63,6.82-2.69Z"/>
  <g>
    <g>
      <path class="cls-14" d="m18.95,34.23c-.8-.25-1.41-.73-1.85-1.44-.52-.84-.67-1.73-.47-2.67.23-1.04.87-1.89,1.93-2.54.92-.56,1.78-.78,2.59-.64.76.14,1.36.55,1.79,1.25.36.59.49,1.2.4,1.83s-.36,1.08-.8,1.35c-.26.16-.48.21-.68.16s-.35-.16-.45-.33c-.02-.03-.03-.06-.05-.09s-.03-.07-.04-.11c.05.38,0,.7-.13.95s-.31.44-.53.58c-.32.2-.64.24-.98.13s-.62-.34-.84-.7c-.32-.51-.43-1.07-.33-1.67s.34-1.02.72-1.25c.26-.16.53-.22.79-.17s.47.17.61.38l-.21-.77.57-.35.53,2.01c.04.16.08.28.11.37s.07.17.1.23c.07.12.16.18.26.19s.2-.01.29-.07c.29-.18.46-.5.51-.95s-.09-.92-.39-1.42c-.37-.6-.87-.94-1.49-1.02s-1.29.09-2,.52c-.98.6-1.55,1.35-1.72,2.24-.14.76.01,1.51.46,2.25.4.64.94,1.06,1.63,1.23.81.21,1.68.04,2.59-.52.43-.26.78-.58,1.07-.94s.51-.75.68-1.17l.47.19c-.11.35-.33.76-.68,1.22s-.8.87-1.36,1.21c-1.08.66-2.11.84-3.11.52Zm1.23-4.95c-.19-.06-.37-.03-.56.08-.29.18-.44.51-.44.99s.1.89.31,1.23c.16.25.33.41.52.48s.37.05.54-.06c.35-.21.49-.58.44-1.11s-.18-.95-.38-1.28c-.1-.16-.24-.27-.43-.33Z"/>
      <path class="cls-14" d="m21.29,34.2c-.81.32-1.61.36-2.38.12h0c-.82-.26-1.46-.76-1.9-1.48-.53-.86-.69-1.78-.48-2.74.23-1.06.89-1.94,1.97-2.6.93-.57,1.83-.79,2.66-.65.79.14,1.41.58,1.85,1.3.37.6.51,1.24.41,1.9-.1.66-.38,1.14-.84,1.42-.27.17-.53.23-.75.18-.16-.04-.3-.12-.41-.23-.01.23-.07.43-.16.6-.14.27-.33.47-.57.62-.34.21-.7.26-1.06.14-.36-.11-.66-.36-.89-.75-.33-.53-.44-1.11-.34-1.73.1-.63.36-1.07.77-1.32.28-.17.57-.24.86-.19.15.03.29.08.41.16l-.13-.49.74-.46.56,2.14c.04.15.08.27.11.36.03.09.06.16.09.21.05.09.12.14.19.14.08,0,.16-.01.23-.06.27-.17.42-.45.46-.87.04-.43-.08-.88-.38-1.36-.35-.58-.82-.9-1.42-.98-.6-.08-1.25.09-1.94.51-.95.58-1.51,1.32-1.67,2.18-.14.73.01,1.47.45,2.18.38.62.91,1.02,1.57,1.19.78.21,1.63.03,2.52-.51.42-.26.77-.56,1.05-.92.28-.35.5-.74.66-1.15l.04-.09.64.26-.03.08c-.11.36-.34.78-.7,1.25-.36.47-.82.89-1.38,1.23-.27.17-.54.31-.82.41Zm-1.88-6.94c-.26.1-.53.24-.81.41-1.03.63-1.66,1.47-1.88,2.48-.2.91-.05,1.78.46,2.59.42.68,1.02,1.15,1.8,1.4h0c.96.3,1.98.13,3.03-.51.54-.33.99-.73,1.33-1.18.31-.42.53-.79.64-1.11l-.3-.12c-.16.39-.38.76-.65,1.1-.29.37-.66.69-1.1.96-.93.57-1.83.75-2.67.54-.71-.18-1.28-.61-1.69-1.28-.46-.75-.62-1.53-.48-2.31.17-.91.76-1.69,1.76-2.31.72-.45,1.42-.63,2.06-.54.65.09,1.18.45,1.56,1.07.31.51.45,1.01.4,1.48-.05.48-.23.82-.55,1.02-.11.07-.23.09-.35.08-.13-.01-.25-.09-.34-.23-.04-.07-.08-.15-.11-.25-.03-.09-.07-.22-.11-.37l-.5-1.88-.4.24.34,1.25-.32-.47c-.13-.19-.31-.3-.55-.34-.24-.04-.48,0-.72.16-.36.22-.59.62-.68,1.19-.09.57.02,1.11.32,1.6.21.34.47.56.79.66.31.1.61.06.9-.12.21-.13.37-.31.5-.54.12-.23.16-.53.12-.89l.19-.04s.02.07.04.1c.01.03.02.06.04.08.09.15.22.25.39.29.17.04.37,0,.6-.15.41-.25.66-.68.75-1.28.09-.61-.04-1.2-.39-1.77-.41-.67-.99-1.08-1.72-1.21-.54-.09-1.12-.02-1.72.22Zm1.06,4.89c-.16.06-.33.06-.5,0-.21-.07-.41-.25-.57-.52-.22-.36-.33-.79-.33-1.28,0-.51.17-.87.49-1.07.21-.13.43-.16.64-.09h0c.21.07.37.19.48.37.21.34.34.78.4,1.32.06.56-.1.97-.48,1.2-.04.02-.08.04-.12.06Zm-.69-2.76s-.08.03-.12.06c-.27.16-.4.46-.4.91,0,.46.1.86.3,1.18.14.23.3.38.47.43.16.06.31.04.46-.05.32-.2.44-.53.39-1.02-.05-.51-.18-.93-.37-1.24-.09-.14-.21-.24-.37-.29h0c-.12-.04-.24-.04-.36.01Z"/>
    </g>
    <g>
      <path class="cls-14" d="m24.71,28.85l.9-.55-.45-1.55-.9.55-.16-.52.9-.55-.61-2.02.58-.35.6,2.02.85-.53-.59-2.02.57-.35.6,2.02.9-.55.16.52-.9.55.45,1.56.9-.55.16.52-.89.55.58,2.01-.57.35-.59-2.01-.86.53.6,2-.58.35-.59-2.01-.9.55-.16-.52Zm2.32-1.43l-.45-1.56-.85.53.46,1.55.84-.52Z"/>
      <path class="cls-14" d="m26.3,30.98l-.59-2.01-.9.55-.22-.71.9-.55-.4-1.36-.9.55-.21-.71.9-.55-.61-2.02.75-.46.6,2.02.68-.42-.59-2.02.74-.45.6,2.02.9-.55.21.71-.9.55.4,1.36.9-.55.21.71-.89.55.58,2.01-.74.45-.59-2.01-.69.43.6,2-.75.46Zm-.48-2.31l.59,2.01.4-.25-.6-2,1.03-.64.59,2.01.4-.24-.58-2.01.89-.55-.1-.33-.9.55-.51-1.75.9-.55-.1-.33-.9.55-.6-2.02-.4.25.59,2.02-1.02.63-.6-2.02-.41.25.61,2.02-.9.55.1.33.9-.55.51,1.75-.9.55.1.33.9-.55Zm.3-.58l-.52-1.74,1.03-.63.51,1.75-1.01.62Zm-.29-1.65l.4,1.36.67-.41-.4-1.36-.68.42Z"/>
    </g>
    <g>
      <path class="cls-14" d="m27.76,22.14l.78-.48,1.15,1.87,1.32,2.58-.39.24-1.71-2.34-1.15-1.87Zm3,4.88l.77-.47.49.8-.77.47-.49-.8Z"/>
      <path class="cls-14" d="m31.22,27.96l-.6-.97.93-.57.6.97-.93.57Zm-.33-.91l.39.64.6-.37-.39-.64-.6.37Zm-.3-.58l-1.77-2.41-1.2-1.96.95-.58,1.2,1.95,1.37,2.66-.55.34Zm-2.7-4.3l1.1,1.78,1.66,2.26.24-.15-1.28-2.5-1.1-1.78-.62.38Z"/>
    </g>
    <g>
      <path class="cls-14" d="m31.31,22.47c-.2-.14-.35-.29-.46-.47-.23-.37-.29-.75-.19-1.14s.36-.72.77-.97.77-.32,1.13-.23.64.29.83.6c.22.36.3.75.24,1.17-.04.24-.15.56-.33.97l1.8.6c-.06-.25-.1-.43-.14-.55s-.1-.28-.18-.48l.66-.41c.18.39.31.79.38,1.21s.09.59.05.53l1.76.6-.9.55-.93-.32c-.07.36-.16.65-.27.86-.19.37-.49.68-.89.93-.59.36-1.12.47-1.58.31s-.82-.43-1.06-.83c-.26-.43-.36-.87-.27-1.32.05-.27.21-.68.49-1.21-.41-.13-.71-.26-.91-.4Zm3.63,2.15c.13-.26.19-.5.2-.73l-2.25-.78c-.21.47-.34.8-.37.99-.05.3,0,.59.18.86.19.3.44.47.76.49s.61-.04.86-.19c.29-.18.49-.39.62-.65Zm-2.03-3.18c.04-.27,0-.51-.13-.72-.1-.17-.25-.28-.43-.33s-.37-.02-.56.09c-.29.18-.43.39-.42.65,0,.13.04.26.11.37.1.16.23.28.41.37s.43.19.78.3c.14-.32.22-.57.25-.73Z"/>
      <path class="cls-14" d="m34.21,26.24c-.42.17-.82.19-1.17.07-.48-.16-.86-.45-1.12-.87-.28-.45-.37-.92-.29-1.39.05-.27.2-.64.45-1.13-.36-.12-.64-.25-.83-.38-.21-.14-.37-.31-.48-.5-.24-.39-.31-.8-.2-1.21.1-.42.38-.76.81-1.03.41-.26.82-.34,1.2-.24.38.09.68.31.89.64.24.38.32.8.26,1.23-.03.23-.13.53-.3.89l1.53.51c-.04-.16-.07-.29-.1-.38-.03-.11-.09-.27-.18-.47l-.03-.08.82-.51.05.1c.18.39.31.81.39,1.23.04.24.07.39.07.48l1.87.64-1.11.68-.87-.3c-.07.32-.15.58-.26.78-.2.39-.51.71-.92.97-.17.1-.33.19-.49.25Zm-2.42-6.43c-.1.04-.2.09-.3.15-.39.24-.64.55-.73.91-.09.37-.04.72.18,1.06.1.16.25.31.43.44h0c.19.13.48.26.88.39l.11.03-.05.1c-.27.52-.43.92-.48,1.18-.08.42.01.84.26,1.25.23.38.57.64,1.01.79.43.14.94.04,1.5-.31.38-.24.67-.54.85-.89.11-.21.19-.49.26-.83l.02-.11,1,.34.68-.42-1.51-.52-.05.02-.06-.08-.14-.23.14.05c0-.07-.03-.19-.06-.38-.07-.37-.18-.74-.33-1.08l-.5.31c.07.17.12.31.15.41.04.12.08.31.14.56l.04.17-2.06-.69.05-.1c.18-.39.29-.71.32-.94.06-.39-.02-.76-.23-1.1-.18-.29-.43-.47-.77-.56-.24-.06-.49-.04-.75.07Zm2.37,5.64c-.21.08-.44.12-.7.1-.35-.03-.63-.21-.83-.54-.18-.3-.25-.61-.19-.93.03-.21.16-.54.38-1.02l.04-.08,2.4.83v.07c-.01.24-.09.5-.22.77h0c-.13.27-.35.51-.65.69-.07.04-.14.08-.22.11Zm-1.21-2.23c-.19.41-.3.71-.32.89-.05.28,0,.54.17.8.17.28.39.42.68.45.3.02.56-.04.8-.18.27-.17.46-.37.58-.61h0c.11-.22.17-.43.19-.62l-2.09-.72Zm-.23-.94l-.08-.03c-.34-.11-.61-.21-.79-.3-.19-.1-.34-.24-.45-.41-.08-.13-.12-.27-.13-.42,0-.29.15-.54.47-.74.21-.13.43-.17.64-.11.21.06.37.19.49.37.14.23.19.5.14.79h0c-.03.18-.11.43-.25.76l-.03.08Zm-.76-1.79s-.08.04-.13.06c-.26.16-.38.34-.37.57,0,.11.04.22.1.33.09.14.21.26.37.34.16.08.38.17.68.26.11-.27.18-.48.21-.63h0c.04-.25,0-.46-.12-.66-.09-.15-.21-.24-.38-.29-.12-.03-.24-.03-.36.02Z"/>
    </g>
  </g>
  <path class="cls-11" d="m37.06,15.38v11.32c0,3.86,2.87,7.01,6.38,7.01h12.74s9.46,7.46,9.46,7.46v-7.46h1.65c3.51,0,6.38-3.15,6.38-7.01v-11.32c0-3.85-2.87-7.01-6.38-7.01h-23.85c-3.51,0-6.38,3.16-6.38,7.01Z"/>
  <path class="cls-7" d="m57.16,47.8c-.12.31-.1.67.1.96.76,1.17,2.03,3.16,2.82,4.75,0,0-1.77.64-2.57,1.47-.8.83-.46,1.98-.46,1.98,0,0-3.44,2.07-3.8,4.62-.23,1.61.32,3.87,2.12,6.62,1.05,1.61,2.51,3.39,4.48,5.3l6.83-6.46-1.88-11.22c-.12-.72-.36-1.42-.72-2.07-.79-1.42-2.47-4.01-5.28-6.38-.32-.27-.77-.31-1.14-.13-.24.12-.4.32-.49.54Z"/>
  <path class="cls-6" d="m4.34,90.86s7.74-7.49,10.94-9.1c3.2-1.61,8-2.99,11.49-1.72,2.1.77-3.44,5.04.91,8.31,0,0,11.46,7.99,22.29,36.79l-46.27-.15c.16-21.73.55-34.1.63-34.12h0"/>
  <path class="cls-9" d="m44.79,65.75s3.42-4.77,3.17-8.83c-.3-4.9-4.62-5.46-4.62-5.46-1.93-4.06-11.89-7.36-21.85-3.23-7.27,3.02-6.83,9.7-5.04,13.92"/>
  <path class="cls-9" d="m15.23,58.5s-4.76,5.7-2.72,9.63c1.78,3.42,6.61,5.87,6.64,9.6"/>
  <path class="cls-8" d="m20.65,76.22c1.05-2.4,3.28-6.43,3.28-6.43-1.87-1.41-1.32-5.03.5-5.94,1.82-.91,3.38.78,5.29,1.74,2.1,1.05,5.42-2.05,6.43-3.12,1.03-1.07,6.03-7.89,6.03-7.89,1.08,1.3,2.81,3.77,2.71,7.45,0,.46-.04.91-.11,1.39-.66,4.44,2.63,6.74,2.45,7.77-.18,1.02-2.12,1.09-3.05,5.07-.95,4.02-.81,6.83-4.74,6.57-3.71-.26-7.63-1.68-8.45-2.3l-3.3,7.83s-9.15,3.08-12.09-6.88l5.06-5.25Z"/>
  <ellipse class="cls-11" cx="39.27" cy="66.53" rx="1.31" ry=".6" transform="translate(-33.56 92.3) rotate(-78.93)"/>
  <line class="cls-4" x1="41.92" y1="61.58" x2="37.45" y2="62.67"/>
  <path class="cls-4" d="m43.8,79.82s-2.22-2.69-6.79-1.95"/>
  <path class="cls-12" d="m124.43,58.05v67.09h-31.78s-.48-22.68-1.45-26.28c-.5-1.88-2.37-5.26-4.22-8.45-1.01,1.89-2.39,4.22-4.07,6.42-2.5,3.29-5.65,6.23-9.13,6.77-8.43,1.27-16.55-17.97-18.41-33.31,0,0,5.01-2.32,12.33-3.19l6.08,17.34s2.07-7.31,3.87-12.96c1.06-3.32,2.72-6.43,4.88-9.18l2.15-2.73s2.63-1.8,6.08-3.6c3.45-1.8,7.69-3.6,10.92-3.6,6.45,0,20.63,4.64,20.63,4.64.64.1,1.34.46,2.12,1.05Z"/>
  <path class="cls-8" d="m98.35,50.92c-.83.63-4.79,2.08-8.53,2.37-3.96.29-3.84-2.55-4.81-6.61-.97-4.02-2.92-4.08-3.11-5.11-.18-1.05,3.12-3.38,2.43-7.86-.08-.49-.12-.94-.12-1.4-.13-3.72,1.62-6.22,2.7-7.54,0,0,5.09,6.86,6.13,7.94,1.03,1.07,4.39,4.19,6.51,3.12,1.93-.98,3.49-2.69,5.34-1.79,1.85.91,2.41,4.56.54,5.99,0,0,2.44,3.39,3.51,5.82l3.71,8.6s-10.31,8.46-18.41.46l4.12-3.99Z"/>
  <path class="cls-4" d="m92.57,47.68c-4.2-1.28-7.25.35-7.25.35v.02s-.31-1.37-.31-1.37c0,0,2.05-2.59,5.92-1.35,1.38.45,1.86,1.39,1.64,2.35Z"/>
  <path class="cls-1" d="m92.57,47.68c-.4,1.7-3.09,3.45-6.82,2.36l-.45-1.98v-.02s3.07-1.63,7.26-.35Z"/>
  <path class="cls-3" d="m73.84,86.91c.07,1.99.23,4.77.6,6.84"/>
  <path class="cls-9" d="m84.34,36.06s-3.48-4.8-3.25-8.9c.28-4.95,4.64-5.53,4.64-5.53,1.92-4.11,11.97-7.5,22.04-3.37,7.36,3.01,6.94,9.76,5.16,14.03"/>
  <path class="cls-9" d="m114.15,28.59s2.13,4.53.08,8.5c-1.78,3.46-3.93,7.17-3.94,10.94"/>
  <line class="cls-4" x1="90.93" y1="30.1" x2="86.68" y2="34.31"/>
  <ellipse class="cls-11" cx="89.91" cy="36.82" rx=".61" ry="1.33" transform="translate(-5.49 18.41) rotate(-11.34)"/>
  <line class="cls-8" x1="103.54" y1="36.95" x2="102.6" y2="37.46"/>
  <path class="cls-13" d="m113.47,54.54s-10.82,7.66-19.23.37"/>
  <g>
    <g>
      <line class="cls-5" x1="79.01" y1="59.16" x2="80.52" y2="55.52"/>
      <line class="cls-5" x1="74.22" y1="43.61" x2="77.51" y2="45.77"/>
    </g>
    <line class="cls-5" x1="72.93" y1="52.52" x2="75.81" y2="51.63"/>
  </g>
  <path class="cls-15" d="m36.52,69.54s-3.04,2.8-1.44,3.84,1.44-3.84,1.44-3.84Z"/>
  <g>
    <g>
      <path class="cls-14" d="m41.54,26.23c-.84-.68-1.35-1.55-1.54-2.6-.22-1.25.01-2.39.7-3.42.77-1.14,1.94-1.86,3.52-2.14,1.37-.24,2.51-.09,3.41.47.85.52,1.37,1.31,1.55,2.35.16.88.03,1.67-.39,2.39s-.95,1.13-1.6,1.24c-.38.07-.68.03-.89-.12s-.34-.35-.39-.61c0-.04-.01-.09-.01-.13s0-.1,0-.15c-.13.48-.33.84-.61,1.07s-.58.39-.91.44c-.47.08-.89-.02-1.24-.31s-.58-.7-.68-1.24c-.14-.77,0-1.48.39-2.16s.89-1.06,1.46-1.16c.39-.07.74-.01,1.03.17s.48.43.55.75l.12-1.02.85-.15-.32,2.66c-.02.21-.04.37-.04.5s0,.23.02.32c.03.17.11.29.23.35s.25.08.38.05c.44-.08.79-.38,1.06-.9s.33-1.15.2-1.89c-.16-.89-.59-1.54-1.31-1.94s-1.6-.51-2.65-.32c-1.46.26-2.5.88-3.12,1.88-.53.84-.7,1.82-.51,2.92.17.96.63,1.71,1.38,2.26.88.64,2,.84,3.36.6.64-.11,1.21-.32,1.73-.62s.97-.66,1.37-1.08l.47.45c-.29.37-.76.75-1.4,1.14s-1.37.66-2.2.81c-1.61.29-2.94,0-3.98-.85Zm3.82-5.36c-.19-.16-.43-.22-.71-.17-.44.08-.77.4-1,.98s-.3,1.12-.21,1.63c.07.38.2.65.4.82s.43.23.68.19c.52-.09.87-.47,1.05-1.12s.23-1.23.14-1.72c-.04-.24-.16-.44-.35-.6Z"/>
      <path class="cls-14" d="m44.37,27.31c-1.13,0-2.1-.33-2.91-.98h0c-.86-.7-1.39-1.6-1.58-2.68-.23-1.28.02-2.46.72-3.51.78-1.17,1.99-1.9,3.6-2.19,1.39-.25,2.57-.08,3.5.48.88.54,1.42,1.36,1.61,2.43.16.9.02,1.73-.4,2.47-.43.74-1,1.18-1.68,1.3-.41.07-.74.02-.98-.15-.18-.12-.3-.28-.38-.47-.12.27-.28.48-.47.65-.3.25-.62.41-.97.47-.51.09-.96-.02-1.34-.34-.38-.31-.62-.75-.72-1.32-.14-.79,0-1.54.41-2.24.42-.7.94-1.12,1.55-1.22.42-.07.8-.01,1.12.18.17.11.31.23.41.38l.08-.66,1.11-.2-.34,2.83c-.02.2-.04.36-.04.49,0,.12,0,.22.01.3.02.13.08.22.16.26.09.05.19.06.3.04.4-.07.72-.34.97-.83.25-.49.32-1.1.19-1.81-.15-.86-.56-1.47-1.25-1.85-.68-.38-1.55-.48-2.57-.3-1.42.25-2.44.86-3.04,1.82-.51.81-.68,1.77-.49,2.83.16.92.61,1.66,1.33,2.18.84.62,1.94.81,3.27.58.62-.11,1.19-.31,1.69-.6.5-.29.95-.65,1.34-1.06l.09-.09.65.62-.07.09c-.3.38-.78.77-1.43,1.17-.65.4-1.41.67-2.25.82-.41.07-.8.11-1.17.11Zm1.04-9.22c-.37,0-.75.04-1.16.11-1.54.27-2.69.97-3.44,2.08-.67,1-.9,2.12-.68,3.33.18,1.02.68,1.87,1.49,2.53h0c1.01.82,2.32,1.1,3.88.82.81-.14,1.53-.41,2.16-.79.58-.35,1.01-.7,1.29-1.02l-.3-.29c-.38.39-.82.73-1.31,1.02-.53.3-1.12.52-1.77.63-1.39.25-2.56.04-3.46-.62-.77-.56-1.25-1.34-1.42-2.33-.2-1.12-.02-2.14.52-3,.64-1.02,1.72-1.67,3.21-1.93,1.08-.19,2-.08,2.73.33.74.42,1.21,1.1,1.37,2.03.14.76.06,1.42-.22,1.97-.28.55-.67.88-1.15.96-.16.03-.32,0-.46-.07-.16-.08-.25-.23-.29-.44-.02-.1-.02-.21-.02-.35,0-.13.02-.29.04-.5l.3-2.5-.59.1-.19,1.66-.16-.71c-.06-.28-.23-.5-.5-.67-.27-.17-.58-.22-.95-.15-.54.1-1,.47-1.38,1.1-.38.65-.51,1.34-.38,2.07.09.51.3.9.63,1.17.33.27.71.36,1.14.28.31-.05.59-.19.86-.42.26-.22.45-.56.57-1.01l.25.04s0,.1,0,.14c0,.04,0,.08,0,.12.04.23.15.4.34.53.18.13.45.17.8.1.61-.11,1.12-.51,1.51-1.18.4-.69.52-1.46.37-2.3-.18-1-.68-1.76-1.5-2.26-.61-.37-1.33-.56-2.17-.56Zm-1.04,6.37c-.22,0-.42-.08-.6-.23-.22-.19-.37-.49-.44-.89-.09-.53-.02-1.1.21-1.7.25-.61.61-.97,1.1-1.05.32-.05.59,0,.81.2h0c.22.18.35.41.4.67.09.5.04,1.1-.15,1.77-.2.7-.58,1.11-1.15,1.21-.06.01-.12.02-.17.02Zm.48-3.64c-.05,0-.11,0-.17.02-.4.07-.69.37-.91.9-.22.55-.29,1.07-.2,1.56.06.35.18.6.36.75.17.14.36.2.57.16.47-.08.78-.42.95-1.03.18-.64.22-1.2.14-1.66-.04-.21-.14-.38-.31-.53h0c-.13-.11-.27-.16-.44-.16Z"/>
    </g>
    <g>
      <path class="cls-14" d="m51.01,22.51l1.34-.24.19-2.08-1.34.24.06-.7,1.34-.24.23-2.71.86-.15-.24,2.71,1.28-.23.25-2.71.85-.15-.24,2.71,1.34-.24-.06.7-1.34.24-.2,2.08,1.34-.24-.06.7-1.33.24-.25,2.69-.85.15.24-2.69-1.29.23-.23,2.69-.86.15.24-2.69-1.34.24.05-.7Zm3.46-.61l.2-2.08-1.28.23-.18,2.08,1.26-.22Z"/>
      <path class="cls-14" d="m51.92,25.82l.24-2.69-1.34.24.07-.96,1.34-.24.17-1.82-1.34.24.08-.96,1.34-.24.23-2.71,1.11-.2-.24,2.71,1.02-.18.25-2.71,1.1-.2-.24,2.71,1.34-.24-.08.96-1.34.24-.17,1.82,1.34-.24-.08.96-1.33.24-.25,2.69-1.1.2.24-2.69-1.03.18-.23,2.69-1.12.2Zm.52-2.99l-.24,2.69.6-.11.23-2.69,1.54-.27-.24,2.69.59-.11.25-2.69,1.33-.24.04-.44-1.34.24.22-2.34,1.34-.24.04-.44-1.34.24.24-2.71-.59.11-.25,2.71-1.53.27.24-2.71-.6.11-.23,2.71-1.34.24-.04.44,1.34-.24-.21,2.34-1.34.24-.04.44,1.34-.24Zm.64-.55l.2-2.34,1.53-.27-.22,2.34-1.51.27Zm.43-2.12l-.16,1.82,1-.18.17-1.82-1.02.18Z"/>
    </g>
    <g>
      <path class="cls-14" d="m57.85,15.9l1.17-.21.49,2.79.37,3.72-.59.1-.95-3.62-.49-2.79Zm1.29,7.28l1.15-.2.21,1.2-1.15.2-.21-1.2Z"/>
      <path class="cls-14" d="m59.25,24.52l-.26-1.45,1.39-.25.26,1.45-1.39.25Zm.03-1.24l.17.95.9-.16-.17-.95-.9.16Zm-.08-.83l-.98-3.73-.52-2.92,1.42-.25.52,2.91.38,3.84-.82.14Zm-1.21-6.44l.47,2.66.92,3.5.36-.06-.36-3.6-.47-2.66-.92.17Z"/>
    </g>
    <g>
      <path class="cls-14" d="m61.96,17.98c-.17-.26-.28-.52-.33-.78-.1-.55,0-1.03.31-1.46s.77-.69,1.39-.8,1.08-.02,1.47.26.63.65.71,1.11c.1.54,0,1.05-.26,1.52-.16.27-.44.61-.86,1l1.87,1.57c.05-.33.08-.57.09-.73s.02-.38.01-.66l.99-.17c.03.55,0,1.1-.12,1.63s-.17.75-.19.66l1.83,1.56-1.34.24-.97-.83c-.25.4-.5.7-.73.9-.41.36-.91.59-1.51.7-.88.16-1.56.03-2.05-.37s-.78-.9-.88-1.5c-.11-.64-.01-1.21.3-1.71.19-.3.58-.71,1.16-1.22-.43-.35-.73-.65-.9-.91Zm3.34,4.3c.27-.25.47-.51.59-.78l-2.33-2c-.48.46-.78.8-.91,1.02-.2.33-.27.71-.19,1.12.08.45.31.77.68.95s.74.24,1.12.18c.43-.08.78-.24,1.05-.49Zm-.93-4.79c.18-.3.24-.61.19-.93-.04-.25-.17-.45-.36-.6s-.44-.2-.72-.15c-.43.08-.7.27-.81.58-.06.16-.07.33-.04.5.04.23.15.45.31.64s.43.43.79.72c.32-.32.53-.58.64-.76Z"/>
      <path class="cls-14" d="m63.65,23.88c-.59,0-1.07-.16-1.44-.47-.51-.42-.82-.95-.93-1.57-.12-.67-.01-1.28.31-1.8.19-.3.54-.67,1.07-1.15-.38-.32-.65-.6-.81-.85-.18-.27-.29-.55-.34-.83-.1-.58.01-1.1.33-1.55.32-.45.82-.74,1.47-.85.62-.11,1.14-.02,1.56.28.42.29.67.7.76,1.19.1.57,0,1.11-.28,1.6-.15.26-.41.57-.78.93l1.6,1.34c.03-.21.05-.38.06-.5.01-.15.02-.36.01-.65v-.11s1.23-.22,1.23-.22v.14c.04.56,0,1.12-.11,1.66-.06.31-.1.5-.14.61l1.94,1.66-1.66.29-.91-.77c-.23.35-.46.62-.68.81-.42.37-.95.62-1.57.73-.25.04-.49.07-.71.07Zm.14-8.86c-.14,0-.28.01-.44.04-.58.1-1.02.36-1.31.75-.29.4-.38.85-.29,1.36.04.24.15.49.31.73h0c.16.25.46.54.88.88l.12.09-.11.1c-.57.5-.95.9-1.14,1.19-.29.47-.39,1.02-.28,1.63.1.56.38,1.04.84,1.43.45.38,1.11.49,1.95.34.57-.1,1.06-.33,1.45-.67.22-.2.46-.49.71-.88l.08-.12,1.03.88,1.02-.18-1.57-1.34h-.07s-.03-.12-.03-.12l-.06-.35.15.12c.02-.09.06-.24.11-.48.1-.48.14-.97.12-1.46l-.74.13c0,.24,0,.43-.01.57-.01.17-.05.41-.1.74l-.03.22-2.15-1.8.1-.1c.4-.39.69-.71.83-.97.25-.44.34-.92.25-1.43-.08-.44-.29-.77-.66-1.03-.26-.18-.57-.28-.94-.28Zm.17,7.9c-.29,0-.59-.07-.88-.21-.41-.2-.66-.55-.75-1.04-.08-.45,0-.85.21-1.21.14-.23.44-.57.93-1.04l.08-.08,2.49,2.13-.04.08c-.13.29-.34.57-.62.82h0c-.29.27-.66.44-1.11.52-.1.02-.21.03-.31.03Zm-.39-3.25c-.42.41-.69.72-.81.91-.19.31-.25.65-.18,1.04.07.41.27.69.61.86.34.17.69.22,1.04.17.4-.07.73-.23.99-.46h0c.23-.21.41-.43.52-.66l-2.17-1.86Zm.17-1.24l-.09-.07c-.36-.29-.63-.54-.81-.74-.18-.21-.3-.44-.34-.7-.03-.2-.02-.39.05-.57.13-.36.44-.58.91-.66.32-.06.59,0,.82.18.22.17.36.4.41.68.06.35,0,.69-.2,1.02h0c-.12.2-.34.46-.66.79l-.08.08Zm-.06-2.51c-.06,0-.12,0-.18.02-.38.07-.62.23-.72.5-.05.14-.06.29-.04.44.04.21.13.41.28.58.15.17.38.38.69.64.27-.27.45-.49.55-.66h0c.17-.28.22-.55.17-.85-.04-.22-.14-.39-.32-.52-.13-.1-.27-.15-.44-.15Z"/>
    </g>
  </g>
  <rect class="cls-10" x="-5126.93" y="-3944.23" width="6467.34" height="6437.3"/>
</svg>