<?xml version="1.0" encoding="UTF-8"?><svg id="Calque_1" xmlns="http://www.w3.org/2000/svg" viewBox="0 0 200.13 128.13"><defs><style>.cls-1{fill:#ff6d75;}.cls-1,.cls-2,.cls-3,.cls-4,.cls-5,.cls-6,.cls-7,.cls-8,.cls-9,.cls-10,.cls-11,.cls-12,.cls-13,.cls-14{stroke:#000;}.cls-1,.cls-2,.cls-15,.cls-6,.cls-8,.cls-9{stroke-linecap:round;stroke-linejoin:round;}.cls-2,.cls-16{fill:#a07637;}.cls-3,.cls-4,.cls-5,.cls-7,.cls-10,.cls-11,.cls-12,.cls-13,.cls-14{stroke-miterlimit:10;}.cls-3,.cls-9{fill:#b2f0e9;}.cls-15{stroke:#e30613;stroke-width:8px;}.cls-15,.cls-4{fill:none;}.cls-5{fill:#fce9b9;}.cls-6,.cls-7{fill:#76ac75;}.cls-8,.cls-12{fill:#fff;}.cls-10{fill:#b4eac3;}.cls-11{fill:#87f3b9;}.cls-13{fill:#d6d6d6;}.cls-14{fill:#f3d587;}</style></defs><rect class="cls-15" x="-1352.25" y="-68.32" width="2655.08" height="1511.77"/><path class="cls-5" d="m16.16,95.32v-59.68s52.85-3.08,108.31,20.5l5.25,42.41-113.57-3.23Z"/><path class="cls-6" d="m186.23,95.31v23.22H16.16v-23.21c13.56-.86,27-1.55,40.29-2.04,45.03-1.68,88.43-1.2,129.78,2.03Z"/><path class="cls-11" d="m186.23,46.36v48.95c-41.35-3.23-84.75-3.71-129.78-2.03,11.83-11.27,52.83-44.24,129.78-46.92Z"/><path class="cls-4" d="m56.45,93.28c-2.46,2.34-3.66,3.75-3.66,3.75"/><rect class="cls-8" x="33.68" y="77.54" width="35.41" height="19.71"/><polygon class="cls-1" points="51.39 67.31 69.1 77.54 51.39 77.54 33.69 77.54 51.39 67.31"/><rect class="cls-9" x="40.76" y="83.47" width="8.82" height="7"/><polyline class="cls-2" points="62.74 97.03 62.74 85.87 56.39 85.87 56.39 97.03"/><path class="cls-16" d="m138.53,100.68l.17-17.62h2.29l.08,3.54c1.98-.81,3.32-2.44,3.63-4.46l.03-.17,1.37-1.32.09,1.04s.37,4.84-5.06,7.18l.4,11.82h-3.01Z"/><path d="m145.7,81.73s.42,4.63-5.08,6.8l.39,11.65h-1.98l.16-16.62h1.31l.09,3.74c2.55-.78,4.25-2.75,4.61-5.09l.5-.48m.81-2.16l-1.5,1.44-.5.48-.24.23-.05.33c-.25,1.6-1.21,2.94-2.65,3.75l-.05-2.28-.02-.98h-3.28v.99s-.17,16.62-.17,16.62v1.01s1,0,1,0h3.02l-.03-1.03-.37-10.96c4.33-2.02,5.21-5.77,5.05-7.54l-.19-2.07h0Z"/><path class="cls-7" d="m134.59,82.49c-1.81-1.03-3.38-2.48-4.65-4.09-3.59-4.57-5.06-10.21-3.58-15.8.73-2.75,1.9-5.3,3.26-7.56,1.42-2.36,2.86-4.75,4.68-6.6,2.16-2.19,4.88-3.53,7.55-2.47,2.64,1.04,4.94,4.19,6.61,7.05,1.79,3.06,3.38,6.64,3.71,10.57.3,3.56.03,7.29-1,10.76-1.01,3.39-2.94,7.27-6.42,8.84-1.62.73-3.44.99-5.22.85-1.78-.14-3.43-.7-4.93-1.56Z"/><path class="cls-16" d="m156.78,100.68l.14-11.22c-1.11-.49-4.38-2.39-4.75-8l-.05-.82,1.56.68.03.29s.53,4.37,3.22,5.33v-4.24s2.01,0,2.01,0l.07,2.75c1.45-.65,2.43-1.88,2.67-3.39l.03-.17,1.27-1.21.09,1.04s.3,3.86-4,5.75l.31,13.21h-2.59Z"/><path d="m152.67,81.43l.54.24s.6,5.35,4.22,5.92v-4.38s1.02,0,1.02,0l.07,2.96c2.02-.61,3.36-2.17,3.64-4.02l.4-.38s.33,3.66-4.01,5.38l.31,13.04h-1.57l.14-11.06s-4.34-1.35-4.76-7.69m10.7-1.83l-1.5,1.44-.4.38-.24.23-.05.34c-.17,1.08-.77,2.01-1.69,2.62l-.03-1.43-.02-.98h-3.01v1s0,2.91,0,2.91c-1.82-1.28-2.21-4.53-2.22-4.57l-.07-.57-.53-.23-.54-.24-1.5-.65.11,1.64c.36,5.41,3.35,7.56,4.75,8.27l-.13,10.4v1.01s1,0,1,0h2.59l-.02-1.02-.29-12.37c3.43-1.66,4.12-4.68,3.99-6.11l-.19-2.07h0Z"/><path class="cls-10" d="m153.94,82.59c-1.91-.82-3.68-2-5.05-3.14-.31-.26-.61-.52-.9-.79-.71-.65-1.36-1.39-1.81-2.24-1.02-1.95-.92-4.33-.18-6.4.62-1.74,1.62-3.36,2.79-4.8,1.22-1.5,2.45-3.02,4-4.19,1.85-1.39,4.17-2.24,6.45-1.57,2.25.66,4.23,2.66,5.66,4.47,1.53,1.94,2.89,4.21,3.17,6.71.46,4.05-1.8,7.8-4.35,10.74-2.6,3-6.39,2.66-9.77,1.2Z"/><path class="cls-12" d="m93.45,88.93h.84s.01-5.31.01-5.31c0-.74-.56-1.27-1.33-1.27v.83c.31,0,.5.16.5.44v5.32Z"/><rect class="cls-13" x="92.95" y="88.46" width="1.84" height="3.84" rx=".69" ry=".69" transform="translate(187.49 181.01) rotate(-179.85)"/><path class="cls-12" d="m115.03,102.07c0,.66.53,1.19,1.19,1.19.66,0,1.19-.53,1.19-1.18s-.53-1.19-1.19-1.19-1.19.53-1.19,1.18Z"/><path class="cls-14" d="m90.57,94.26l.91,7.6,16.24.04c4.31-.32,11.09-4.26,11.09-4.26l3.03-3.27-1.85-1.78-1.78-.23.03-10.56c0-.7-.56-1.27-1.27-1.27l-12.28-.03c-.63,0-1.17.46-1.27,1.08l-1.51,7.94-8.62,1.36c-1.6.34-3.05.84-2.72,3.38Z"/><path class="cls-13" d="m107.97,102.82v-1.5s.3-.16.3-.16c.05-.45.14-.89.26-1.31l-.21-.26.58-1.39.32-.03c.21-.38.46-.74.73-1.09l-.09-.31,1.07-1.06.31.09c.35-.28.73-.53,1.13-.75l.03-.31,1.39-.57.24.2c.42-.12.85-.2,1.3-.25l.15-.28h1.51s.15.28.15.28c.46.05.91.15,1.34.27l.24-.2,1.39.58.02.31c.39.22.76.47,1.1.75l.3-.1,1.06,1.07-.1.31c.28.35.53.73.75,1.13l.32.03.57,1.39-.22.25c.12.42.2.84.25,1.28l.3.15v1.5s-.31.16-.31.16c-.05.45-.14.88-.27,1.3l.22.26-.58,1.39-.35.03c-.21.37-.45.73-.72,1.06l.11.34-1.07,1.06-.34-.11c-.34.27-.71.51-1.09.73l-.03.36-1.39.57-.27-.24c-.4.11-.82.19-1.25.24l-.17.32h-1.51s-.16-.33-.16-.33c-.44-.05-.86-.14-1.28-.26l-.28.23-1.39-.58-.04-.36c-.37-.21-.72-.44-1.05-.7l-.35.1-1.06-1.07.1-.34c-.27-.34-.51-.7-.73-1.09l-.35-.04-.57-1.39.22-.27c-.12-.41-.2-.83-.25-1.26l-.3-.16Z"/><path class="cls-13" d="m87.65,104.93v-1.07s.21-.11.21-.11c.04-.32.1-.63.19-.93l-.15-.18.41-.99.23-.02c.15-.27.33-.53.52-.77l-.06-.22.76-.75.22.06c.25-.2.52-.38.8-.53l.02-.22.99-.4.17.14c.3-.08.61-.14.92-.18l.11-.2h1.07s.11.2.11.2c.33.04.64.1.95.19l.17-.14.99.41.02.22c.28.16.54.33.78.53l.22-.07.76.76-.07.22c.2.25.38.52.53.8l.23.02.4.99-.15.18c.08.3.14.6.18.91l.21.11v1.07s-.22.11-.22.11c-.04.32-.1.63-.19.93l.16.19-.41.99-.25.02c-.15.27-.32.52-.51.75l.08.24-.76.75-.24-.08c-.24.19-.5.37-.78.52l-.02.25-.99.4-.19-.17c-.29.08-.58.14-.89.17l-.12.23h-1.07s-.12-.23-.12-.23c-.31-.04-.61-.1-.91-.18l-.2.16-.99-.41-.03-.26c-.26-.15-.51-.31-.74-.5l-.25.07-.76-.76.07-.24c-.19-.24-.37-.5-.52-.77l-.25-.03-.4-.99.15-.19c-.08-.29-.14-.59-.18-.9l-.21-.12Z"/><path class="cls-13" d="m111.18,102.06c0,2.78,2.25,5.05,5.03,5.05,2.79,0,5.05-2.24,5.06-5.03,0-2.78-2.25-5.05-5.03-5.05-2.79,0-5.05,2.24-5.06,5.03Z"/><path class="cls-12" d="m115.03,102.07c0,.66.53,1.19,1.19,1.19.66,0,1.19-.53,1.19-1.18s-.53-1.19-1.19-1.19-1.19.53-1.19,1.18Z"/><path class="cls-12" d="m116.23,99.69c1.32,0,2.39,1.07,2.38,2.39,0,1.32-1.08,2.38-2.39,2.38-1.32,0-2.39-1.07-2.38-2.39,0-1.32,1.08-2.38,2.39-2.38Z"/><path class="cls-12" d="m91.04,104.48c0,1.37,1.1,2.48,2.47,2.48,1.37,0,2.48-1.1,2.48-2.47,0-1.37-1.1-2.48-2.47-2.48-1.37,0-2.48,1.1-2.48,2.47Z"/><rect class="cls-13" x="90.29" y="95.15" width="2.68" height="2.11" rx=".6" ry=".6" transform="translate(183.26 192.4) rotate(180)"/><rect class="cls-8" x="162.87" y="41.51" width="16.3" height="9.07"/><polygon class="cls-1" points="171.02 36.8 162.87 41.51 171.02 41.51 179.16 41.51 171.02 36.8"/><rect class="cls-9" x="171.85" y="44.24" width="4.06" height="3.22"/><polyline class="cls-2" points="165.79 50.48 165.79 45.34 168.71 45.34 168.71 50.48"/><rect class="cls-8" x="99.38" y="59.42" width="21.05" height="11.72"/><polygon class="cls-1" points="109.91 53.34 99.38 59.42 109.91 59.42 120.43 59.42 109.91 53.34"/><rect class="cls-9" x="110.98" y="62.95" width="5.24" height="4.16"/><polyline class="cls-2" points="103.16 71 103.16 64.37 106.93 64.37 106.93 71"/><path class="cls-3" d="m103.83,88.81l1.12-5.71c0-.4.28-.72.62-.72h3.72c.34.01.62.34.62.74l-.02,5.71c0,.4-.28.72-.62.72h-4.82c-.34-.01-.62-.34-.62-.74Z"/><path class="cls-11" d="m19.51,118.53c.16-.12.33-.25.49-.37,4.73-3.49,9.68-6.2,15.12-5.97,2.17.09,4.15-.87,5.29-2.51,4.88-7.02,15.96-7.87,21.2-.94.84,1.11,2.25,1.7,3.74,1.55,4.19-.42,7.8.81,10.92,3.18,1.09.83,2.62,1.05,3.88.43,1.77-.88,4.14-1.21,6.37-.74,1.24.26,2.56-.21,3.19-1.2,3.58-5.7,12.27-6.58,16.5-1.34.78.97,2.04,1.51,3.38,1.41,4.82-.37,8.7,2.51,11.76,6.49H19.51Z"/><path class="cls-4" d="m49.58,37.06s15.94,8.69,34.25,36.32"/><path class="cls-4" d="m61.13,38.55s19.55,14.55,27.31,32.29"/><path class="cls-4" d="m33.69,35.8s36.43,26.74,43.25,41.74"/></svg>