<?xml version="1.0" encoding="UTF-8"?><svg id="Calque_1" xmlns="http://www.w3.org/2000/svg" viewBox="0 0 200.13 128.13"><defs><style>.cls-1{fill:#baa584;}.cls-1,.cls-2,.cls-3,.cls-4,.cls-5,.cls-6,.cls-7,.cls-8,.cls-9,.cls-10,.cls-11,.cls-12,.cls-13,.cls-14,.cls-15{stroke:#000;}.cls-1,.cls-16,.cls-6,.cls-7,.cls-9,.cls-10,.cls-12,.cls-14{stroke-linecap:round;stroke-linejoin:round;}.cls-2{fill:#b2f0e9;}.cls-2,.cls-17,.cls-3,.cls-4,.cls-5,.cls-8,.cls-11,.cls-18,.cls-13,.cls-15{stroke-miterlimit:10;}.cls-16{stroke:#e30613;stroke-width:8px;}.cls-16,.cls-17,.cls-18{fill:none;}.cls-17,.cls-18{stroke:#fff;}.cls-4{fill:#76ac75;}.cls-5{fill:#ff6d75;}.cls-6,.cls-11{fill:#fff;}.cls-7{fill:#afaff9;}.cls-8{fill:#bbfedb;}.cls-9{fill:#fce9b9;}.cls-10{fill:#87ccf3;}.cls-12{fill:#8987f3;}.cls-18{stroke-dasharray:0 0 11.86 11.86;}.cls-19{fill:#a07637;}.cls-13,.cls-14{fill:#d6d6d6;}.cls-15{fill:#f3d587;}</style></defs><rect class="cls-13" x="10.13" y="97.95" width="182.13" height="24.8"/><line class="cls-17" x1="13.58" y1="111.4" x2="19.58" y2="111.4"/><line class="cls-18" x1="31.44" y1="111.4" x2="167.84" y2="111.4"/><line class="cls-17" x1="173.77" y1="111.4" x2="179.77" y2="111.4"/><rect class="cls-16" x="-1115.57" y="-68.32" width="2655.08" height="1511.77"/><polygon class="cls-12" points="134.47 97.95 97.83 97.95 97.83 47.18 97.83 37.38 134.47 37.38 134.47 97.95"/><polygon class="cls-1" points="60.64 97.95 38.68 97.95 38.68 47.18 38.68 37.38 60.64 37.38 60.64 97.95"/><polygon class="cls-14" points="70.86 25.47 70.86 97.95 104.06 97.95 104.06 9.95 82.74 9.95 70.86 9.95 70.86 25.47"/><rect class="cls-6" x="88.98" y="14.04" width="3.87" height="3.72"/><rect class="cls-6" x="96.11" y="14.04" width="3.87" height="3.72"/><rect class="cls-6" x="81.85" y="20.89" width="3.87" height="3.72"/><rect class="cls-6" x="88.98" y="20.89" width="3.87" height="3.72"/><rect class="cls-6" x="96.11" y="20.89" width="3.87" height="3.72"/><rect class="cls-6" x="74.73" y="27.73" width="3.87" height="3.72"/><rect class="cls-6" x="74.73" y="20.89" width="3.87" height="3.72"/><rect class="cls-6" x="81.85" y="14.04" width="3.87" height="3.72"/><rect class="cls-6" x="74.73" y="14.04" width="3.87" height="3.72"/><rect class="cls-6" x="81.85" y="27.73" width="3.87" height="3.72"/><rect class="cls-6" x="88.98" y="27.73" width="3.87" height="3.72"/><rect class="cls-6" x="96.11" y="27.73" width="3.87" height="3.72"/><rect class="cls-6" x="74.73" y="34.58" width="3.87" height="3.72"/><rect class="cls-6" x="81.85" y="34.58" width="3.87" height="3.72"/><rect class="cls-6" x="88.98" y="34.58" width="3.87" height="3.72"/><rect class="cls-6" x="96.11" y="34.58" width="3.87" height="3.72"/><rect class="cls-6" x="74.73" y="41.42" width="3.87" height="3.72"/><rect class="cls-6" x="81.85" y="41.42" width="3.87" height="3.72"/><rect class="cls-6" x="88.98" y="41.42" width="3.87" height="3.72"/><rect class="cls-6" x="96.11" y="41.42" width="3.87" height="3.72"/><rect class="cls-6" x="74.73" y="48.26" width="3.87" height="3.72"/><rect class="cls-6" x="81.85" y="48.26" width="3.87" height="3.72"/><rect class="cls-6" x="88.98" y="48.26" width="3.87" height="3.72"/><rect class="cls-6" x="96.11" y="48.26" width="3.87" height="3.72"/><rect class="cls-6" x="74.73" y="55.11" width="3.87" height="3.72"/><rect class="cls-6" x="81.85" y="55.11" width="3.87" height="3.72"/><rect class="cls-6" x="88.98" y="55.11" width="3.87" height="3.72"/><rect class="cls-6" x="96.11" y="55.11" width="3.87" height="3.72"/><rect class="cls-6" x="74.73" y="61.95" width="3.87" height="3.72"/><rect class="cls-6" x="81.85" y="61.95" width="3.87" height="3.72"/><rect class="cls-6" x="88.98" y="61.95" width="3.87" height="3.72"/><rect class="cls-6" x="96.11" y="61.95" width="3.87" height="3.72"/><rect class="cls-6" x="74.73" y="68.8" width="3.87" height="3.72"/><rect class="cls-6" x="81.85" y="68.8" width="3.87" height="3.72"/><rect class="cls-6" x="88.98" y="68.8" width="3.87" height="3.72"/><rect class="cls-6" x="96.11" y="68.8" width="3.87" height="3.72"/><rect class="cls-6" x="74.73" y="75.64" width="3.87" height="3.72"/><rect class="cls-6" x="81.85" y="75.64" width="3.87" height="3.72"/><rect class="cls-6" x="88.98" y="75.64" width="3.87" height="3.72"/><rect class="cls-6" x="96.11" y="75.64" width="3.87" height="3.72"/><rect class="cls-6" x="74.73" y="82.49" width="3.87" height="3.72"/><rect class="cls-6" x="81.85" y="82.49" width="3.87" height="3.72"/><rect class="cls-6" x="88.98" y="82.49" width="3.87" height="3.72"/><rect class="cls-6" x="96.11" y="82.49" width="3.87" height="3.72"/><rect class="cls-6" x="74.73" y="89.33" width="3.87" height="3.72"/><rect class="cls-6" x="81.85" y="89.33" width="3.87" height="3.72"/><rect class="cls-6" x="88.98" y="89.33" width="3.87" height="3.72"/><rect class="cls-6" x="96.11" y="89.33" width="3.87" height="3.72"/><rect class="cls-10" x="112.23" y="49.92" width="23.08" height="48.03"/><rect class="cls-7" x="129.92" y="30.35" width="20.42" height="67.6"/><rect class="cls-9" x="135.53" y="11.25" width="29.74" height="86.7"/><rect class="cls-6" x="139.75" y="16.04" width="4.52" height="4.34"/><rect class="cls-6" x="148.07" y="16.04" width="4.52" height="4.34"/><rect class="cls-6" x="156.4" y="16.04" width="4.52" height="4.34"/><rect class="cls-6" x="139.75" y="24.04" width="4.52" height="4.34"/><rect class="cls-6" x="148.07" y="24.04" width="4.52" height="4.34"/><rect class="cls-6" x="156.4" y="24.04" width="4.52" height="4.34"/><rect class="cls-6" x="139.75" y="32.03" width="4.52" height="4.34"/><rect class="cls-6" x="148.07" y="32.03" width="4.52" height="4.34"/><rect class="cls-6" x="156.4" y="32.03" width="4.52" height="4.34"/><rect class="cls-6" x="139.75" y="40.03" width="4.52" height="4.34"/><rect class="cls-6" x="148.07" y="40.03" width="4.52" height="4.34"/><rect class="cls-6" x="156.4" y="40.03" width="4.52" height="4.34"/><rect class="cls-6" x="139.75" y="48.03" width="4.52" height="4.34"/><rect class="cls-6" x="148.07" y="48.03" width="4.52" height="4.34"/><rect class="cls-6" x="156.4" y="48.03" width="4.52" height="4.34"/><rect class="cls-6" x="139.75" y="56.02" width="4.52" height="4.34"/><rect class="cls-6" x="148.07" y="56.02" width="4.52" height="4.34"/><rect class="cls-6" x="156.4" y="56.02" width="4.52" height="4.34"/><rect class="cls-6" x="139.75" y="64.02" width="4.52" height="4.34"/><rect class="cls-6" x="148.07" y="64.02" width="4.52" height="4.34"/><rect class="cls-6" x="156.4" y="64.02" width="4.52" height="4.34"/><rect class="cls-6" x="139.75" y="72.01" width="4.52" height="4.34"/><rect class="cls-6" x="148.07" y="72.01" width="4.52" height="4.34"/><rect class="cls-6" x="156.4" y="72.01" width="4.52" height="4.34"/><rect class="cls-6" x="139.75" y="80.01" width="4.52" height="4.34"/><rect class="cls-6" x="148.07" y="80.01" width="4.52" height="4.34"/><rect class="cls-6" x="156.4" y="80.01" width="4.52" height="4.34"/><rect class="cls-6" x="139.75" y="88" width="4.52" height="4.34"/><rect class="cls-6" x="148.07" y="88" width="4.52" height="4.34"/><rect class="cls-6" x="156.4" y="88" width="4.52" height="4.34"/><rect class="cls-14" x="102.72" y="57.97" width="35.08" height="39.98"/><rect class="cls-6" x="121.61" y="62.03" width="2.92" height="7.04"/><rect class="cls-6" x="127" y="62.03" width="2.92" height="7.04"/><rect class="cls-6" x="132.38" y="62.03" width="2.92" height="7.04"/><rect class="cls-6" x="121.61" y="74.99" width="2.92" height="7.04"/><rect class="cls-6" x="127" y="74.99" width="2.92" height="7.04"/><rect class="cls-6" x="132.38" y="74.99" width="2.92" height="7.04"/><rect class="cls-6" x="121.61" y="87.96" width="2.92" height="7.04"/><rect class="cls-6" x="127" y="87.96" width="2.92" height="7.04"/><rect class="cls-6" x="132.38" y="87.96" width="2.92" height="7.04"/><rect class="cls-6" x="105.38" y="62.03" width="2.92" height="7.04"/><rect class="cls-6" x="110.77" y="62.03" width="2.92" height="7.04"/><rect class="cls-6" x="116.15" y="62.03" width="2.92" height="7.04"/><rect class="cls-6" x="105.38" y="74.99" width="2.92" height="7.04"/><rect class="cls-6" x="110.77" y="74.99" width="2.92" height="7.04"/><rect class="cls-6" x="116.15" y="74.99" width="2.92" height="7.04"/><rect class="cls-6" x="105.38" y="87.96" width="2.92" height="7.04"/><rect class="cls-6" x="110.77" y="87.96" width="2.92" height="7.04"/><rect class="cls-6" x="116.15" y="87.96" width="2.92" height="7.04"/><rect class="cls-14" x="26.13" y="57.97" width="35.08" height="39.98"/><rect class="cls-6" x="45.02" y="62.03" width="2.92" height="7.04"/><rect class="cls-6" x="50.4" y="62.03" width="2.92" height="7.04"/><rect class="cls-6" x="55.78" y="62.03" width="2.92" height="7.04"/><rect class="cls-6" x="45.02" y="74.99" width="2.92" height="7.04"/><rect class="cls-6" x="50.4" y="74.99" width="2.92" height="7.04"/><rect class="cls-6" x="55.78" y="74.99" width="2.92" height="7.04"/><rect class="cls-6" x="45.02" y="87.96" width="2.92" height="7.04"/><rect class="cls-6" x="50.4" y="87.96" width="2.92" height="7.04"/><rect class="cls-6" x="55.78" y="87.96" width="2.92" height="7.04"/><rect class="cls-6" x="28.79" y="62.03" width="2.92" height="7.04"/><rect class="cls-6" x="34.17" y="62.03" width="2.92" height="7.04"/><rect class="cls-6" x="39.55" y="62.03" width="2.92" height="7.04"/><rect class="cls-6" x="28.79" y="74.99" width="2.92" height="7.04"/><rect class="cls-6" x="34.17" y="74.99" width="2.92" height="7.04"/><rect class="cls-6" x="39.55" y="74.99" width="2.92" height="7.04"/><rect class="cls-6" x="28.79" y="87.96" width="2.92" height="7.04"/><rect class="cls-6" x="34.17" y="87.96" width="2.92" height="7.04"/><rect class="cls-6" x="39.55" y="87.96" width="2.92" height="7.04"/><path class="cls-13" d="m187.07,106.05c0,.39-.43,1.28-1.11,1.28h-5.09c-.69,0-1.37-.47-2.33-.47h-28.2c-.61,0-2.07-.39-2.71-.81-.64-.43-.71-.54-.71-.81v-1.69c0-.26.77-.54.77-.98v-2.48c0-.64,5.78-4.75,7.62-5.2,1.84-.45,9.91-.49,12.07-.3,2.16.19,6.81,2.48,9.74,4.65,3.15,0,6.53.79,8.01,1.68,1.48.89,1.95,2.41,1.95,3.05v2.1Z"/><path class="cls-2" d="m163.35,99.47h-8.98c.09-.54,2.67-4.04,3.38-4.13.22-.03.68-.04,1.4-.04s1.56.01,2.31.02c.48,0,.91.02,1.22.02.05.2.38,1.64.67,4.13Z"/><circle class="cls-3" cx="179" cy="106.14" r="3.37"/><circle class="cls-11" cx="179" cy="106.14" r="2.39"/><circle class="cls-3" cx="153.7" cy="106.14" r="3.37"/><circle class="cls-11" cx="153.7" cy="106.14" r="2.39"/><path class="cls-15" d="m185.37,101.84s.39.47.46.7,0,.48-.31.48h-1.82c-.29,0-.82-.44-1.12-.79-.3-.35-.75-.93-.62-1.01.13-.07,1.79.14,3.41.62Z"/><path class="cls-2" d="m174.52,99.47h-10.47c-.28-2.44-.61-3.88-.67-4.13h.53c1.49,0,3.39.07,4.88.58.86.3,2.01.86,3.25,1.57,1.33.77,2.16,1.43,2.49,1.98Z"/><path class="cls-5" d="m124.88,113.57c0,.39-.43,1.28-1.11,1.28h-5.09c-.69,0-1.37-.47-2.33-.47h-28.2c-.61,0-2.07-.39-2.71-.81-.64-.43-.71-.54-.71-.81v-1.69c0-.26.77-.54.77-.98v-2.48c0-.64,5.78-4.75,7.62-5.2s9.91-.49,12.07-.3,6.81,2.48,9.74,4.65c3.15,0,6.53.79,8.01,1.68,1.48.89,1.95,2.41,1.95,3.05v2.1Z"/><path class="cls-2" d="m101.16,106.99h-8.98c.09-.54,2.67-4.04,3.38-4.13.22-.03.68-.04,1.4-.04s1.56.01,2.31.02c.48,0,.91.02,1.22.02.05.2.38,1.64.67,4.13Z"/><circle class="cls-3" cx="116.81" cy="113.67" r="3.37"/><circle class="cls-11" cx="116.81" cy="113.67" r="2.39"/><circle class="cls-3" cx="91.51" cy="113.67" r="3.37"/><circle class="cls-11" cx="91.51" cy="113.67" r="2.39"/><path class="cls-15" d="m123.18,109.37s.39.47.46.7,0,.48-.31.48h-1.82c-.29,0-.82-.44-1.12-.79-.3-.35-.75-.93-.62-1.01.13-.07,1.79.14,3.41.62Z"/><path class="cls-2" d="m112.33,106.99h-10.47c-.28-2.44-.61-3.88-.67-4.13h.53c1.49,0,3.39.07,4.88.58.86.3,2.01.86,3.25,1.57,1.33.77,2.16,1.43,2.49,1.98Z"/><path class="cls-8" d="m74.63,115.34c0,.39-.43,1.28-1.11,1.28h-5.09c-.69,0-1.37-.47-2.33-.47h-28.2c-.61,0-2.07-.39-2.71-.81-.64-.43-.71-.54-.71-.81v-1.69c0-.26.77-.54.77-.98v-2.48c0-.64,5.78-4.75,7.62-5.2s9.91-.49,12.07-.3,6.81,2.48,9.74,4.65c3.15,0,6.53.79,8.01,1.68,1.48.89,1.95,2.41,1.95,3.05v2.1Z"/><path class="cls-2" d="m50.91,108.76h-8.98c.09-.54,2.67-4.04,3.38-4.13.22-.03.68-.04,1.4-.04s1.56.01,2.31.02c.48,0,.91.02,1.22.02.05.2.38,1.64.67,4.13Z"/><circle class="cls-3" cx="66.56" cy="115.44" r="3.37"/><circle class="cls-11" cx="66.56" cy="115.44" r="2.39"/><circle class="cls-3" cx="41.25" cy="115.44" r="3.37"/><circle class="cls-11" cx="41.25" cy="115.44" r="2.39"/><path class="cls-15" d="m72.93,111.13s.39.47.46.7,0,.48-.31.48h-1.82c-.29,0-.82-.44-1.12-.79-.3-.35-.75-.93-.62-1.01.13-.07,1.79.14,3.41.62Z"/><path class="cls-2" d="m62.07,108.76h-10.47c-.28-2.44-.61-3.88-.67-4.13h.53c1.49,0,3.39.07,4.88.58.86.3,2.01.86,3.25,1.57,1.33.77,2.16,1.43,2.49,1.98Z"/><path class="cls-19" d="m67.66,97.99l.09-9.01h1.61l.04,1.55c.68-.39,1.13-1.02,1.24-1.78l.03-.17,1.11-1.07.09,1.04c.08.86-.35,2.67-2.43,3.65l.2,5.79h-1.98Z"/><path d="m71.38,88.6s.2,2.23-2.45,3.28l.19,5.61h-.96l.08-8.01h.63l.04,1.8c1.23-.37,2.05-1.32,2.22-2.45l.24-.23m.81-2.16l-1.5,1.44-.24.23-.24.23-.05.34c-.04.27-.14.51-.28.74l-.02-.94h-2.6v.99s-.09,8.01-.09,8.01v1.01s1,0,1,0h1.99l-.03-1.03-.17-4.95c2.62-1.4,2.43-3.88,2.42-4l-.19-2.07h0Z"/><path class="cls-4" d="m66.03,88.97c-.87-.5-1.63-1.19-2.24-1.97-1.73-2.2-2.44-4.92-1.73-7.61.35-1.32.91-2.55,1.57-3.64.69-1.14,1.38-2.29,2.25-3.18,1.04-1.06,2.35-1.7,3.64-1.19,1.27.5,2.38,2.02,3.19,3.4.86,1.47,1.63,3.2,1.79,5.09.14,1.72.01,3.51-.48,5.18-.48,1.63-1.42,3.5-3.09,4.26-.78.35-1.66.48-2.51.41-.86-.07-1.65-.34-2.37-.75Z"/><path class="cls-19" d="m17.56,97.99l.09-9.01h1.61l.04,1.55c.68-.39,1.13-1.02,1.24-1.78l.03-.17,1.11-1.07.09,1.04c.08.86-.35,2.67-2.43,3.65l.2,5.79h-1.98Z"/><path d="m21.28,88.6s.2,2.23-2.45,3.28l.19,5.61h-.96l.08-8.01h.63l.04,1.8c1.23-.37,2.05-1.32,2.22-2.45l.24-.23m.81-2.16l-1.5,1.44-.24.23-.24.23-.05.34c-.04.27-.14.51-.28.74l-.02-.94h-2.6v.99s-.09,8.01-.09,8.01v1.01s1,0,1,0h1.99l-.03-1.03-.17-4.95c2.62-1.4,2.43-3.88,2.42-4l-.19-2.07h0Z"/><path class="cls-4" d="m15.93,88.97c-.87-.5-1.63-1.19-2.24-1.97-1.73-2.2-2.44-4.92-1.73-7.61.35-1.32.91-2.55,1.57-3.64.69-1.14,1.38-2.29,2.25-3.18,1.04-1.06,2.35-1.7,3.64-1.19,1.27.5,2.38,2.02,3.19,3.4.86,1.47,1.63,3.2,1.79,5.09.14,1.72.01,3.51-.48,5.18-.48,1.63-1.42,3.5-3.09,4.26-.78.35-1.66.48-2.51.41-.86-.07-1.65-.34-2.37-.75Z"/></svg>