<?xml version="1.0" encoding="UTF-8"?>
<svg id="Calque_1" data-name="Calque 1" xmlns="http://www.w3.org/2000/svg" viewBox="0 0 200.13 128.13">
  <defs>
    <style>
      .cls-1 {
        fill: #d6d6d6;
      }

      .cls-1, .cls-2, .cls-3, .cls-4, .cls-5, .cls-6, .cls-7, .cls-8, .cls-9, .cls-10 {
        stroke: #000;
      }

      .cls-1, .cls-2, .cls-3, .cls-4, .cls-5, .cls-6, .cls-11, .cls-9, .cls-10 {
        stroke-linecap: round;
        stroke-linejoin: round;
      }

      .cls-2 {
        fill: #b4eac3;
      }

      .cls-3, .cls-7, .cls-9 {
        fill: #fff;
      }

      .cls-4, .cls-6, .cls-11, .cls-8, .cls-10 {
        fill: none;
      }

      .cls-5, .cls-9 {
        stroke-width: .75px;
      }

      .cls-12 {
        fill: #87f3b9;
      }

      .cls-6 {
        stroke-width: 2px;
      }

      .cls-7, .cls-8 {
        stroke-miterlimit: 10;
      }

      .cls-11 {
        stroke: #fff;
        stroke-width: 8px;
      }

      .cls-10 {
        stroke-width: 3px;
      }
    </style>
  </defs>
  <rect class="cls-8" x="110.65" y="10.29" width="57.26" height="93.22" rx="5.11" ry="5.11"/>
  <path class="cls-1" d="m84.32,125.85h-40.95c-1.08-8.54-1.78-17.63-1.11-24.27.81-8.01,4.37-14.56,6.83-18.93,1.54,1.29,4.12,2.35,6.04,2.83,3.18.79,4.48.91,7.67.79.5-.05,1.03-.09,1.48-.13,4.62-.52,7.59-1.05,7.59-1.05,0,0,6.43,14.26,9.02,22.8,1.02,3.34,2.27,10.5,3.43,17.96Z"/>
  <path class="cls-3" d="m69.39,41.7c-.45.2-.93.35-1.4.47-3.95.94-8.45-.74-9.98-1.38l.47-6.71.05-.76,10.38-2,.27,2.15.88,7.3c-.05.13-.08.29-.13.4-.03.08-.05.17-.08.24-.02.03-.02.07-.03.1h-.02l-.4.19Z"/>
  <g>
    <path class="cls-9" d="m95.62,108.49c.03.33.03.65.02.98-.02.88-.06,1.75-.07,2.63,0,.38,0,.76.11,1.13s.34.71.68.87.8.11,1.04-.18c.21-.26.21-.63.2-.96-.01-.44-.03-.88-.04-1.31-.02-.59-.04-1.18-.09-1.77-.1-1.2-.33-2.44-1.07-3.38-.24-.3-1.37-1.06-1.37-.2,0,.33.27.71.37,1.02.12.38.2.77.24,1.17Z"/>
    <path class="cls-9" d="m96.31,109.05c.03.33.03.65.02.98-.02.88-.06,1.75-.07,2.63,0,.38,0,.76.11,1.13s.34.71.68.87.8.11,1.04-.18c.21-.26.21-.63.2-.96-.01-.44-.03-.88-.04-1.31-.02-.59-.04-1.18-.09-1.77-.1-1.2-.33-2.44-1.07-3.38-.24-.3-1.37-1.06-1.37-.2,0,.33.27.71.37,1.02.12.38.2.77.24,1.17Z"/>
    <path class="cls-9" d="m87.72,96.96c.1-.5,1.63-.89,2.32-1.87,2.16,1.26,5.79,8.16,6.68,9.98.6,1.23,1.23,2.51,1.5,3.86.28,1.44.33,2.89.4,4.35.01.23.02.46-.05.68-.13.39-.64.64-.99.37-.77-.58-.82-1.79-.89-2.67-.07-.82-.09-1.66-.29-2.46-.2-.79-.62-1.43-1.14-2.04-.38-.44-.74-.9-1.13-1.33-.15-.17-.31-.33-.48-.48-.23-.2-.49-.35-.79-.39-.25-.03-.64,0-.83.19-.21.21-.1.53-.04.77.06.29.19.57.32.83.22.46.5.92.58,1.42.02.08.03.17.03.26.03.94-.9,2.07-1.7,1.05-.17-.22-.29-.48-.4-.73-.57-1.2-1.38-2.29-1.72-3.58-.22-.82-.34-1.66-.47-2.5-.47-3.17-1.18-4.24-.88-5.72Z"/>
    <path class="cls-9" d="m93.64,105.35c-.11-.16-.23-.32-.36-.47-.23-.27-.5-.52-.84-.64-.33-.11-.75-.06-.98.21-.19.22-.23.55-.18.85.11.72.59,1.32,1.02,1.91.22.3.43.62.58.97-.09-.51-.36-.96-.58-1.42-.13-.27-.25-.54-.32-.83-.05-.25-.16-.57.04-.77.19-.19.58-.23.83-.19.3.04.56.2.79.39Z"/>
  </g>
  <path class="cls-4" d="m62.26,4.55s0,1.94-.7,3.24h-.02"/>
  <path class="cls-4" d="m58.51,8.61c-1.53-.89-2.57-3.13-2.57-3.13"/>
  <path class="cls-4" d="m53.66,26.39h-.02c-.18-.04-1.44-.36-2.17-2.35-.8-2.14-1.71-1.89-1.8-4.11-.06-2.09,2.11-1.19,2.35-1.06"/>
  <path class="cls-4" d="m71.39,7.3s-1.5.89-3.17,1.2"/>
  <path class="cls-3" d="m55.34,9.56c.95.05,2.06-.18,3.17-.95.46.28.95.42,1.47.36.73-.07,1.22-.57,1.57-1.18.02.02.04.03.05.03.21.2,1.53,1.36,3.17-.23.85,1.03,2.2,1.13,3.45.9.75.58,1.77.52,1.77.52.06.08.14.18.18.27,3.07,4.33,3.36,7.26,3.39,7.58.19-.77.32-1.5.43-2.2-.16,1.3-.41,2.23-.46,2.43v.02s-.01.04-.01.04h.02c.04,1.23.06,4.4-.44,7.68-.42,2.73-1.25,5.54-2.74,7.35-3.46,4.21-5.71,4.3-6.05,4.27-.35.08-2.71.44-6.8-3.21-1.76-1.56-3-4.21-3.84-6.84-1-3.16-1.47-6.3-1.62-7.52h.02c-.03-.14-.04-.28-.03-.44.04.12.09.19.09.19-.04-.51-.04-1.02-.03-1.51.33-2.54,2.66-6.76,2.93-7.48l.34-.06Z"/>
  <path class="cls-4" d="m52.07,17.11c-.07.48-.09.92-.06,1.33"/>
  <path class="cls-4" d="m52.04,18.87s0-.02-.02-.03v-.02c-.11-.24-.66-1.48-1.04-3.18v-.05c-.76-3.39-.79-8.52,4.85-10.8,0,0,.35-1.86,2.73-1.57,0,0,2.76-3.01,6.09-.54,2.31-.65,2.94,1.13,2.94,1.13,6.37,1.5,6.78,7.24,6.41,10.67-.01.07-.03.13-.02.18"/>
  <path class="cls-4" d="m70.23,9.62s3.28,4.77,3.28,7.51"/>
  <path class="cls-4" d="m51.97,18.35v.02c0,.05.02.21.05.45v.02s0,.04,0,.04"/>
  <path class="cls-4" d="m73.52,17.14v-.04"/>
  <path class="cls-4" d="m73.5,16.61s.01.18.02.47"/>
  <path class="cls-4" d="m73.06,24.82h.02c.17-.07,1.36-.58,1.78-2.66.46-2.24,1.4-2.13,1.14-4.33-.27-2.08-2.27-.85-2.48-.69"/>
  <path class="cls-4" d="m66.12,5.71c-.42.77-.83,1.35-1.22,1.75-.05.06-.08.11-.13.13"/>
  <path class="cls-4" d="m61.6,7.83l-.04-.03"/>
  <path class="cls-3" d="m63.81,16.86s.73,6.59,2.17,9.9c0,0-.28.68-2.42.26"/>
  <ellipse class="cls-3" cx="59.39" cy="20.02" rx=".23" ry=".66" transform="translate(-1.37 4.64) rotate(-4.42)"/>
  <line class="cls-3" x1="63.56" y1="125.85" x2="63.09" y2="111.46"/>
  <path class="cls-2" d="m42.57,70.13c1.51-1.6,2.93-3.28,4.21-5.03.07.76.03,2.39-.07,4.46-.17,4.16-.56,10.06-.79,13.82.89,1.3,1.72,2.64,2.49,3.99.49.84.56,1.87.17,2.76-.05.12-.1.25-.17.37.07.03.12.05.19.07,7.22,2.31,15.08,2.57,22.46.87,1.5-.34,3.06-.82,3.99-2.12.15-.22.3-.45.4-.71,1.92,2.41,3.95,4.75,6.12,6.95,1.85,1.87,4.73,2.29,7.05,1.04,1.73-.93,2.73-2.69,2.73-4.51,0-.86-.22-1.73-.69-2.54-1.3-2.22-2.64-4.31-4.14-6.44-.82-1.18-2.36-3.16-3.2-4.24-.37-.47-.56-1.08-.52-1.68.25-4.16,2.4-22.38-2.68-29.31-.17-.24-.3-.52-.51-.74-2.17-2.2-6.51-4.85-9.26-5.94-.18.12-.37.22-.55.32h-.02l-.4.19c-.45.2-.93.35-1.4.47-3.95.94-8.45-.74-9.98-1.38-.35-.15-.54-.25-.54-.25-2.47.32-4.91.86-7.29,1.65-2.59.87-4.86,1.9-7.02,3.62-2.17,1.77-4.11,3.82-5.94,5.94-.89,1.03-1.75,2.07-2.61,3.13-.42.5-.84,1.01-1.26,1.53"/>
  <path class="cls-3" d="m70.37,41.19c-.18.12-.37.22-.55.32h-.02c-.13.07-.27.13-.4.19-.45.2-.93.35-1.4.47l1.48-.61.37-.15.52-.22Z"/>
  <path class="cls-4" d="m78.3,65.19c-.08,2.41-1.55,17.65-1.95,20.04-.24,1.4-.45,2.91-1.3,4.09-.93,1.3-2.49,1.78-3.99,2.12"/>
  <path class="cls-9" d="m63.25,98.92s-4.9-2.32-4.9-2.32c-.72-.34-1.47-.63-2.18-1-.36-.19-.71-.39-1.03-.64-.3-.22-.69-.53-.14-.59.36-.04.75.02,1.11.05.56.04,1.18.09,1.74-.05.31-.08.62-.27.74-.56.16-.39-.04-.84-.37-1.11-.01,0-.02-.02-.04-.03-.35-.26-.79-.35-1.21-.43-1.37-.25-2.79-.32-4.13-.66-.78-.2-1.46-.53-2.26-.65-.65-.1-1.31-.13-1.97-.1l-.88-.98s.04-.07.04-.07c-.27-.31-.54-.62-.82-.93-1.11,1.75-2.23,3.5-3.34,5.24.7.54,1.14.87,1.15.85,0,0,0-.01.02-.03.48,2.44,2.21,4.97,4.2,6.21.2.13.41.24.58.42.13.13.22.29.32.45.55.94,1.06,1.89,1.54,2.86.3.61.68,2.06,1.53,2.08.59.02,1-.63.74-1.15-.48-.94-.97-1.88-1.47-2.81-.19-.35-.41-.68-.55-1.05-.04-.12-.18-.39-.11-.52.36-.65,1.27.57,1.49.83.43.49.86.98,1.3,1.46.62.69,1.24,1.37,1.87,2.04.4.42.9,1.24,1.59.94.48-.21.63-.86.27-1.24-.2-.21-.4-.42-.6-.64-.03-.08-.08-.16-.14-.23-.67-.78-1.33-1.57-1.96-2.38-.32-.41-.63-.81-.94-1.22-.13-.17-.91-.8-.64-1.05.31-.29,1.16.62,1.37.76.62.42,1.25.84,1.87,1.26.84.56,1.65,1.15,2.48,1.71.52.35,1.4,1.21,2.03.62.33-.31.32-.9-.03-1.19-.03-.04-.07-.09-.11-.13-1.05-1.02-2.23-1.89-3.39-2.78-.57-.43-1.14-.87-1.69-1.33-.28-.24-.56-.48-.83-.73-.11-.1-.45-.31-.31-.49.13-.17.52,0,.66.06.38.15.73.43,1.1.56.65.23,1.3.47,1.94.7.9.33,1.8.67,2.7,1,.54.2,1.34.78,1.88.3.39-.35.31-1.1-.18-1.33Z"/>
  <path class="cls-2" d="m42.57,70.13c-1.33,1.41-2.71,2.76-4.11,4.09,2.84,2.98,5.33,6.01,7.45,9.15.89,1.3,1.72,2.64,2.49,3.99.49.84.56,1.87.17,2.76-.05.12-.1.25-.17.37-.57,1.35-1.21,2.66-1.99,3.92-.62,1.03-1.92,1.41-3.01.91-3.89-1.8-7.52-4.22-10.82-6.92-2.78-2.27-5.6-4.75-7.32-7.94-2.88-5.35-.72-11.46,2.25-16.26,1.7-2.76,3.77-5.3,5.84-7.81"/>
  <line class="cls-4" x1="38.47" y1="74.22" x2="33.37" y2="69.7"/>
  <line class="cls-1" x1="65.42" y1="43.02" x2="64.04" y2="92.12"/>
  <circle class="cls-8" cx="58.21" cy="20.52" r="4.58"/>
  <circle class="cls-7" cx="69.8" cy="18.87" r="4.58"/>
  <ellipse class="cls-3" cx="70.07" cy="19.19" rx=".23" ry=".66" transform="translate(-1.27 5.46) rotate(-4.42)"/>
  <line class="cls-8" x1="62.79" y1="20.02" x2="65.45" y2="20.02"/>
  <line class="cls-8" x1="53.66" y1="19.6" x2="51.67" y2="18.61"/>
  <line class="cls-5" x1="80.94" y1="20.73" x2="99.45" y2="19.6"/>
  <line class="cls-5" x1="80.94" y1="23.45" x2="98.28" y2="36.88"/>
  <path d="m137.98,19.67h5.14l7.69,21.73h-4.92l-1.43-4.47h-8l-1.47,4.47h-4.75l7.76-21.73Zm-.3,13.52h5.56l-2.74-8.55-2.82,8.55Z"/>
  <path d="m138.61,54.05h3.85l5.77,16.3h-3.69l-1.08-3.35h-6l-1.1,3.35h-3.56l5.82-16.3Zm-.22,10.14h4.17l-2.06-6.41-2.11,6.41Z"/>
  <path d="m139.25,84.11h2.57l3.84,10.86h-2.46l-.72-2.23h-4l-.74,2.23h-2.37l3.88-10.86Zm-.15,6.76h2.78l-1.37-4.27-1.41,4.27Z"/>
  <path class="cls-4" d="m66.38,31.07s-1.82,1.11-4.52,0"/>
  <g>
    <rect class="cls-12" x="158.46" y="46.76" width="28.46" height="28.46" rx="5.15" ry="5.15"/>
    <path class="cls-6" d="m186.92,58.73v12.49c0,2.2-1.8,4-4,4h-20.47c-2.2,0-4-1.8-4-4v-20.47c0-2.2,1.8-4,4-4h20.47"/>
    <polyline class="cls-10" points="162.4 55.16 172.69 69.92 190.06 46.76"/>
  </g>
  <rect class="cls-11" x="-1789.16" y="-2748.39" width="6467.34" height="6437.3"/>
</svg>