<?xml version="1.0" encoding="UTF-8"?>
<svg id="Calque_1" data-name="Calque 1" xmlns="http://www.w3.org/2000/svg" viewBox="0 0 200 128">
  <defs>
    <style>
      .cls-1 {
        fill: #b2f0e9;
      }

      .cls-1, .cls-2, .cls-3, .cls-4, .cls-5, .cls-6, .cls-7, .cls-8, .cls-9 {
        stroke: #000;
      }

      .cls-1, .cls-2, .cls-3, .cls-4, .cls-5, .cls-6, .cls-7, .cls-8, .cls-9, .cls-10 {
        stroke-linecap: round;
        stroke-linejoin: round;
      }

      .cls-2 {
        fill: #baa584;
      }

      .cls-3 {
        fill: #fce9b9;
      }

      .cls-4 {
        fill: #ff6d75;
      }

      .cls-5, .cls-11 {
        fill: #f3d587;
      }

      .cls-6 {
        fill: #fee4cb;
      }

      .cls-7, .cls-12 {
        fill: #fff;
      }

      .cls-8, .cls-9, .cls-10 {
        fill: none;
      }

      .cls-13 {
        fill: #ffd4ad;
      }

      .cls-14 {
        fill: #afaff9;
      }

      .cls-15 {
        fill: #8987f3;
      }

      .cls-9 {
        stroke-width: 1.05px;
      }

      .cls-10 {
        stroke: #fff;
        stroke-width: 8px;
      }
    </style>
  </defs>
  <rect class="cls-6" x="104.17" y="15.54" width="91.23" height="108.43"/>
  <rect class="cls-3" x="132.16" y="32.37" width="35.35" height="62.97"/>
  <path class="cls-11" d="m149.94,33.29s-2.21,25.68-16.57,26.79l-.28-27.25,16.85.46Z"/>
  <rect class="cls-6" x="4.27" y="15.54" width="91.23" height="108.43"/>
  <rect class="cls-14" x="29.2" y="35.41" width="35.35" height="62.97"/>
  <path class="cls-15" d="m46.04,35.83s0,32.42-9.88,39.97l3.87,22.34-10.56.18.61-39.89-.43-22.4,16.39-.2Z"/>
  <path class="cls-15" d="m48.16,35.83s0,32.42,9.88,39.97l-3.87,22.34,10.56.18-.61-39.89.43-22.4-16.39-.2Z"/>
  <path class="cls-2" d="m65.2,99.92H28.65v-63.26h36.54v63.26Zm-34.9-1.64h33.26v-59.98H30.3v59.98Z"/>
  <rect class="cls-2" x="26.16" y="96.93" width="41.22" height="3.21" rx="1.41" ry="1.41"/>
  <rect class="cls-2" x="27.3" y="35.1" width="38.94" height="3.21" rx="1.41" ry="1.41"/>
  <path class="cls-1" d="m54.59,81.29s-5.58,4.26-6.71-2.7c0,0-6.63-.31-11.21,1.22-4.57,1.54-4.72,3.87-4.45,6.42.28,2.54,3.13,10.71,3.13,10.71h23.23s1.59-12.27-3.99-15.65Zm-14.81,8.99l-.39-3.16,1.59-.39-1.2,3.55Z"/>
  <path class="cls-7" d="m37.97,87.32s3.54-.37,5.95-1.85"/>
  <path class="cls-7" d="m42.57,96.46c-.88-.56-1.99-.57-2.9-.42-.04,0-.09.02-.13.03-.72.16-.69.58-.63.78.02.06.07.1.13.1.11,0,.25.01.45.04,1.12.14,0,1.53.43,1.55.55.03.45-1.28.74-1.24.54.06-.15,1.2.21,1.28.39.09.11-1.32.74-1.25.33.03-.13,1.3.26,1.22.41-.08.1-1.22.48-1.19.56.05-.17,1.14.24,1.22.25.05.62-1.71,0-2.11Z"/>
  <path class="cls-7" d="m55.02,89.63s.37,5.52-.46,7.31"/>
  <path class="cls-7" d="m39.27,87.11s1.11,5.23.92,8.87"/>
  <path class="cls-12" d="m48.65,72.48c.39,1.08.95,2.8,1.08,4.16.16-.21.31-.44.46-.67.51-.84,1.57-1.98,1.57-1.98-.62-.62-.24-1.94.48-2.19.72-.25,1.22.46,1.89.91.73.49,2.12-.49,2.55-.84.44-.35,2.64-2.64,2.64-2.64.32.51.8,1.44.67,2.69.5-.14,1.29-.51,1.36-1.53.14-1.84-1.45-2.26-1.45-2.26-.51-1.61-4.06-3.33-7.97-2.29-1.99.53-2.68,1.91-2.76,3.26,0,0-1.09,1.82-.52,3.38Z"/>
  <path class="cls-8" d="m60.05,72.25s1.23-.23,1.34-1.76c.13-1.84-1.45-2.26-1.45-2.26-.51-1.61-4.06-3.34-7.98-2.29-3.92,1.04-2.78,5.37-1.91,6.29"/>
  <path class="cls-8" d="m49.12,69.46s-1,1.57-.44,3.13c.49,1.36,1.11,2.83.94,4.22"/>
  <path class="cls-7" d="m60.41,75.78c-.12.37-.85.3-1.39,1.74-.56,1.45-.64,2.51-2.09,2.21-1.37-.28-2.76-1.01-3.03-1.27.09.13.26,1.03.45,1.86.08.35.17.7.25.98,0,0-5.58,4.26-6.71-2.7,0,0,1.33-.87,2.35-2.51.51-.85,1.57-1.98,1.57-1.98-.62-.62-.24-1.93.49-2.18.72-.25,1.22.46,1.88.91.73.49,2.12-.5,2.56-.85.43-.35,2.64-2.64,2.64-2.64.33.54.86,1.54.64,2.91-.02.17-.06.33-.12.51-.46,1.62.64,2.64.53,3.01Z"/>
  <path class="cls-9" d="m51.53,73.65s.3.87,1.31,1.19"/>
  <path class="cls-11" d="m150.57,33.29s2.21,25.68,16.57,26.79l.28-27.25-16.85.46Z"/>
  <path class="cls-2" d="m168.15,96.6h-36.54v-63.26h36.54v63.26Zm-34.9-1.64h33.26v-59.98h-33.26v59.98Z"/>
  <path class="cls-7" d="m148.45,65.27v.02c-.17.78-.43,1.35-.48,1.46h0s0,.02,0,.02c.01-.07.01-.12.01-.2-.02.05-.04.08-.04.08.01-.23.02-.46.01-.69-.15-1.17-1.22-3.1-1.35-3.43l-.15-.03c-.44.03-.95-.08-1.46-.43-.21.13-.43.2-.67.17-.33-.03-.56-.26-.72-.54,0,0-.01.01-.02.01-.1.09-.7.62-1.46-.11-.39.47-1.01.52-1.58.41-.35.26-.81.24-.81.24-.03.04-.07.08-.08.12-1.41,1.98-1.54,3.33-1.55,3.48-.09-.35-.15-.7-.2-1.01,0-.03,0-.05,0-.09-.17-1.57.02-4.2,2.94-4.89,0,0,.28-.81,1.35-.51,1.52-1.13,2.79.25,2.79.25,1.09-.13,1.25.72,1.25.72,2.59,1.05,2.57,3.4,2.22,4.95Z"/>
  <rect class="cls-2" x="130.26" y="31.78" width="38.94" height="3.21" rx="1.41" ry="1.41"/>
  <path class="cls-7" d="m127.21,60.35s-.34-2.82-.55-2.84c-.21-.02.08,1.75-.17,1.78-.25.03-1.58-3.36-1.75-3.28-.17.08.37,2.84.21,2.85-.15.02-1.76-2.45-2.04-2.32-.28.14,1.18,2.72.98,2.78-.2.06-2.23-1.95-2.53-1.69-.21.18,1.95,2.26,1.8,2.35-.15.09-2-.79-2.12-.58-.07.12,2.81,2.41,2.81,2.41,0,0,1.92-.03,2.01-.02.09.02,1.35-1.44,1.35-1.44Z"/>
  <path class="cls-5" d="m132.11,90.65l1.44-4.8s-10.03-10.15-10.81-24.14l4.74-1.8s4.74,13.9,9.02,14.91c0,0,1.06.46,3.36.88,0,0,1.15,2.67,5.9,1.2,0,0,3.91.69,5.2,2.17,1.29,1.47,4.87,12.06,5.15,14.54l-24.76.04.76-3.01Z"/>
  <rect class="cls-2" x="129.12" y="93.61" width="41.22" height="3.21" rx="1.41" ry="1.41"/>
  <line class="cls-7" x1="133.55" y1="85.85" x2="135.56" y2="80.72"/>
  <path class="cls-7" d="m150.96,79.07s-1.95,1.19-2.46,5.03"/>
  <line class="cls-7" x1="148.5" y1="93.63" x2="148.5" y2="89.18"/>
  <path class="cls-8" d="m143.28,60.21s0,.89.32,1.49h0"/>
  <path class="cls-8" d="m145,62.07c.7-.41,1.18-1.43,1.18-1.43"/>
  <path class="cls-7" d="m149.05,67.26c-.04,1.01-.46.9-.83,1.88-.34.91-.91,1.06-.99,1.08.46-1.45.67-2.88.74-3.45.11-.05,1.1-.47,1.08.49Z"/>
  <path class="cls-8" d="m147.23,70.22h-.01"/>
  <path class="cls-8" d="m139.1,61.47s.69.41,1.45.55"/>
  <path class="cls-7" d="m147.96,66.77h0c-.07.56-.28,2-.74,3.45-.38,1.2-.96,2.42-1.76,3.13-.17.14-.32.28-.47.39-1.59,1.25-2.51,1.12-2.64,1.08-.12.01-.78-.01-1.8-.93-.3-.26-.62-.59-.97-1.02-.69-.83-1.06-2.12-1.25-3.37-.23-1.5-.22-2.96-.2-3.51h0s0,0,0-.02h0c-.03-.09-.14-.52-.22-1.12.05.31.12.65.2,1.01,0-.14.14-1.49,1.55-3.48.01-.04.05-.08.08-.12,0,0,.46.02.81-.24.57.11,1.19.06,1.58-.41.75.73,1.35.2,1.46.11,0,0,.01,0,.02-.01.16.28.38.51.72.54.24.03.46-.04.67-.17.51.35,1.01.46,1.46.43l.15.03c.13.33,1.2,2.27,1.35,3.43,0,.22,0,.46-.01.69,0,0,.01-.03.04-.08,0,.07,0,.13-.01.2Z"/>
  <path class="cls-8" d="m147.95,65.97c.03.22.04.42.03.61"/>
  <path class="cls-8" d="m139.63,62.54s-1.5,2.18-1.5,3.44"/>
  <path class="cls-8" d="m148,66.53h0s0,.1-.02.22h0s0,.02,0,.02"/>
  <path class="cls-8" d="m138.12,65.98v-.02"/>
  <path class="cls-8" d="m138.13,65.74s0,.08,0,.22"/>
  <path class="cls-7" d="m138.33,69.49c-.08-.03-.63-.26-.82-1.22-.21-1.02-.64-.98-.53-1.98.12-.95,1.04-.38,1.14-.31-.02.56-.03,2.01.2,3.51Z"/>
  <path class="cls-8" d="m138.34,69.49h0"/>
  <path class="cls-8" d="m141.51,60.75c.19.35.38.62.56.8.02.03.04.05.06.06"/>
  <path class="cls-8" d="m143.59,61.71h.02"/>
  <path class="cls-7" d="m142.57,65.85s-.34,3.02-.99,4.54c0,0,.13.31,1.11.12"/>
  <ellipse class="cls-7" cx="144.6" cy="67.3" rx=".3" ry=".1" transform="translate(66.34 206.27) rotate(-85.58)"/>
  <ellipse class="cls-7" cx="140.44" cy="66.9" rx=".3" ry=".1" transform="translate(62.9 201.76) rotate(-85.58)"/>
  <path class="cls-7" d="m145.76,76.9c-4.74,1.47-5.9-1.2-5.9-1.2l.69-1.83c1.03.92,1.68.95,1.8.93.14.04,1.06.17,2.64-1.08l.76,3.17Z"/>
  <path class="cls-8" d="m141.58,72.41s1.42.23,2.03-.37"/>
  <rect class="cls-13" x="8.62" y="67.33" width="14.79" height="5.89"/>
  <rect class="cls-13" x="17.61" y="105.27" width="14.79" height="5.89"/>
  <rect class="cls-13" x="177.79" y="26.65" width="13.29" height="5.89"/>
  <rect class="cls-13" x="183.79" y="33.98" width="7.18" height="5.89"/>
  <rect class="cls-13" x="175" y="40.96" width="14.79" height="5.89"/>
  <rect class="cls-13" x="183.37" y="48.11" width="7.71" height="5.89"/>
  <rect class="cls-13" x="172.72" y="68.72" width="14.79" height="5.89"/>
  <rect class="cls-13" x="179.7" y="77.1" width="9.03" height="5.89"/>
  <rect class="cls-13" x="148.72" y="21.63" width="14.79" height="5.89"/>
  <rect class="cls-13" x="129.5" y="105.32" width="14.79" height="5.89"/>
  <rect class="cls-13" x="73.61" y="38.88" width="14.79" height="5.89"/>
  <rect class="cls-13" x="77.28" y="31.38" width="14.79" height="5.89"/>
  <rect class="cls-13" x="72.04" y="23.53" width="14.79" height="5.89"/>
  <rect class="cls-13" x="170.06" y="108.93" width="14.79" height="5.89"/>
  <rect class="cls-13" x="111.37" y="26.51" width="14.79" height="5.89"/>
  <rect class="cls-13" x="173.02" y="91.09" width="14.79" height="5.89"/>
  <rect class="cls-13" x="107.55" y="94.21" width="14.79" height="5.89"/>
  <rect class="cls-13" x="11.78" y="31.38" width="14.79" height="5.89"/>
  <rect class="cls-13" x="17.61" y="21.63" width="14.79" height="5.89"/>
  <rect class="cls-13" x="73.61" y="105.27" width="14.79" height="5.89"/>
  <polygon class="cls-4" points="4.27 15.54 48.75 4.59 95.5 15.54 4.27 15.54"/>
  <polygon class="cls-4" points="104.17 15.54 151.43 4.59 195.4 15.54 104.17 15.54"/>
  <path class="cls-8" d="m56.45,76.64s.9,1.87,2.35,1.49"/>
  <ellipse cx="57.63" cy="73.77" rx=".51" ry=".36" transform="translate(-26.39 115.07) rotate(-78.18)"/>
  <rect class="cls-10" x="-526.05" y="-4783.19" width="2244.45" height="5948.74"/>
</svg>