<?xml version="1.0" encoding="UTF-8"?><svg id="Calque_1" xmlns="http://www.w3.org/2000/svg" viewBox="0 0 200 128"><defs><style>.cls-1,.cls-2,.cls-3,.cls-4,.cls-5,.cls-6,.cls-7,.cls-8,.cls-9,.cls-10,.cls-11,.cls-12,.cls-13,.cls-14,.cls-15,.cls-16{stroke:#000;}.cls-1,.cls-2,.cls-3,.cls-4,.cls-10,.cls-11,.cls-16{stroke-miterlimit:10;}.cls-1,.cls-5,.cls-15{fill:#baa584;}.cls-17,.cls-7,.cls-14{fill:#fff;}.cls-2,.cls-8{fill:#b2f0e9;}.cls-18{stroke:#e30613;stroke-width:8px;}.cls-18,.cls-3,.cls-6,.cls-9{fill:none;}.cls-18,.cls-5,.cls-6,.cls-7,.cls-8,.cls-9,.cls-12,.cls-13,.cls-14,.cls-15{stroke-linecap:round;stroke-linejoin:round;}.cls-4,.cls-12{fill:#fce9b9;}.cls-5,.cls-6,.cls-7,.cls-8{stroke-width:.5px;}.cls-19{fill:#8987f3;}.cls-20{fill:#afaff9;}.cls-9,.cls-12,.cls-13,.cls-14,.cls-15{stroke-width:.4px;}.cls-21,.cls-13{fill:#f3d587;}.cls-10{fill:#fee4cb;}.cls-11{fill:#a07637;}.cls-16{fill:#d6d6d6;}</style></defs><rect class="cls-18" x="-2321.18" y="-1253.45" width="2655.08" height="1511.77"/><polygon class="cls-16" points="191.99 81.91 189.9 81.91 179.37 81.91 179.37 58.9 156.02 58.9 156.02 80.5 143.4 80.5 143.4 67.3 132.52 67.3 132.52 123.51 136.82 123.51 150.49 123.51 156.02 123.51 160.17 123.51 169.92 123.51 179.37 123.51 189.9 123.51 189.9 84.31 191.99 84.31 191.99 81.91"/><polygon class="cls-16" points="34.55 73.52 28.54 73.52 28.54 69.07 30.36 69.07 30.36 65.77 9.88 65.77 9.88 69.07 11.95 69.07 11.95 123.37 110.62 123.37 110.62 45.09 34.55 45.09 34.55 73.52"/><line class="cls-16" x1="5.88" y1="123.73" x2="194.12" y2="123.73"/><rect class="cls-4" x="19.9" y="11.47" width="72.52" height="112.26" transform="translate(112.32 135.19) rotate(-180)"/><rect class="cls-1" x="28.34" y="45.42" width="13.47" height="2.32" transform="translate(70.14 93.15) rotate(-180)"/><rect class="cls-1" x="49.5" y="45.42" width="13.47" height="2.32" transform="translate(112.46 93.15) rotate(-180)"/><rect class="cls-1" x="28.34" y="79.86" width="13.47" height="2.32" transform="translate(70.14 162.04) rotate(-180)"/><path class="cls-2" d="m39.14,59.97h-8.33s0,18.41,0,18.41h8.33s0-18.41,0-18.41Z"/><path class="cls-2" d="m60.3,59.97h-8.33s0,18.41,0,18.41h8.33s0-18.41,0-18.41Z"/><path class="cls-2" d="m81.56,59.97h-8.33s0,18.41,0,18.41h8.33s0-18.41,0-18.41Z"/><path class="cls-2" d="m39.14,25.51h-8.33s0,18.41,0,18.41h8.33s0-18.41,0-18.41Z"/><path class="cls-2" d="m60.3,25.51h-8.33s0,18.41,0,18.41h8.33s0-18.41,0-18.41Z"/><rect class="cls-1" x="49.5" y="79.86" width="13.47" height="2.32" transform="translate(112.46 162.04) rotate(-180)"/><rect class="cls-1" x="70.66" y="79.86" width="13.47" height="2.32" transform="translate(154.78 162.04) rotate(-180)"/><rect class="cls-1" x="35.14" y="95.24" width="42.17" height="28.48" transform="translate(112.45 218.97) rotate(-180)"/><rect class="cls-11" x="38.74" y="98.72" width="34.98" height="25.01" transform="translate(112.45 222.44) rotate(-180)"/><rect class="cls-1" x="19.9" y="11.47" width="72.52" height="4.35"/><rect class="cls-1" x="19.9" y="53.61" width="72.52" height="2.17"/><rect class="cls-1" x="19.9" y="87.11" width="72.52" height="2.17"/><line class="cls-3" x1="56.13" y1="98.72" x2="56.13" y2="123.73"/><line class="cls-3" x1="51.56" y1="112.83" x2="53.79" y2="112.83"/><line class="cls-3" x1="58.02" y1="112.83" x2="60.25" y2="112.83"/><rect class="cls-10" x="100.6" y="11.47" width="72.52" height="112.26" transform="translate(273.72 135.19) rotate(-180)"/><rect class="cls-1" x="130.2" y="45.42" width="13.47" height="2.32" transform="translate(273.86 93.15) rotate(-180)"/><rect class="cls-1" x="151.36" y="45.42" width="13.47" height="2.32" transform="translate(316.18 93.15) rotate(-180)"/><rect class="cls-1" x="109.04" y="79.86" width="13.47" height="2.32" transform="translate(231.54 162.04) rotate(-180)"/><path class="cls-2" d="m119.84,59.97h-8.33s0,18.41,0,18.41h8.33s0-18.41,0-18.41Z"/><path class="cls-2" d="m141,59.97h-8.33s0,18.41,0,18.41h8.33s0-18.41,0-18.41Z"/><path class="cls-2" d="m162.26,59.97h-8.33s0,18.41,0,18.41h8.33s0-18.41,0-18.41Z"/><path class="cls-2" d="m141,25.51h-8.33s0,18.41,0,18.41h8.33s0-18.41,0-18.41Z"/><path class="cls-2" d="m162.26,25.51h-8.33s0,18.41,0,18.41h8.33s0-18.41,0-18.41Z"/><rect class="cls-1" x="130.2" y="79.86" width="13.47" height="2.32" transform="translate(273.86 162.04) rotate(-180)"/><rect class="cls-1" x="151.36" y="79.86" width="13.47" height="2.32" transform="translate(316.18 162.04) rotate(-180)"/><rect class="cls-1" x="115.84" y="95.24" width="42.17" height="28.48" transform="translate(273.85 218.97) rotate(-180)"/><rect class="cls-11" x="119.44" y="98.72" width="34.98" height="25.01" transform="translate(273.85 222.44) rotate(-180)"/><rect class="cls-1" x="100.6" y="11.47" width="72.52" height="4.35"/><rect class="cls-1" x="100.6" y="53.61" width="72.52" height="2.17"/><rect class="cls-1" x="100.6" y="87.11" width="72.52" height="2.17"/><line class="cls-3" x1="136.83" y1="98.72" x2="136.83" y2="123.73"/><line class="cls-3" x1="132.26" y1="112.83" x2="134.49" y2="112.83"/><line class="cls-3" x1="138.72" y1="112.83" x2="140.95" y2="112.83"/><rect class="cls-20" x="69.07" y="18.76" width="17.7" height="31.19"/><path class="cls-19" d="m77.51,18.96s0,16.06-4.95,19.8l1.94,11.06-5.28.09.31-19.76-.22-11.1,8.2-.1Z"/><path class="cls-19" d="m78.57,18.96s0,16.06,4.95,19.8l-1.94,11.06,5.28.09-.31-19.76.22-11.1-8.2-.1Z"/><path class="cls-5" d="m87.09,50.71h-18.29v-31.33h18.29v31.33Zm-17.47-.81h16.65v-29.71h-16.65v29.71Z"/><rect class="cls-5" x="67.55" y="49.23" width="20.63" height="1.59" rx=".73" ry=".73"/><rect class="cls-5" x="68.12" y="18.6" width="19.49" height="1.59" rx=".73" ry=".73"/><path class="cls-8" d="m81.79,41.48s-2.8,2.11-3.36-1.34c0,0-3.32-.15-5.61.61-2.29.76-2.36,1.92-2.23,3.18.14,1.26,1.57,5.3,1.57,5.3h11.63s.8-6.08-2-7.75Zm-7.41,4.45l-.2-1.56.8-.19-.6,1.76Z"/><path class="cls-7" d="m73.47,44.47s1.77-.18,2.98-.92"/><path class="cls-7" d="m75.77,49c-.44-.28-1-.28-1.45-.21-.02,0-.04,0-.07.01-.36.08-.34.29-.32.38,0,.03.03.05.06.05.06,0,.13,0,.22.02.56.07,0,.76.22.77.28.01.22-.63.37-.62.27.03-.07.59.1.63.2.04.06-.65.37-.62.17.02-.06.64.13.6.21-.04.05-.6.24-.59.28.03-.09.57.12.6.12.02.31-.85,0-1.04Z"/><path class="cls-7" d="m82,45.61s.19,2.74-.23,3.62"/><path class="cls-7" d="m74.12,44.37s.55,2.59.46,4.39"/><path class="cls-17" d="m78.81,37.12c.2.53.48,1.39.54,2.06.08-.1.16-.22.23-.33.26-.42.79-.98.79-.98-.31-.31-.12-.96.24-1.08.36-.12.61.23.94.45.37.25,1.06-.25,1.28-.42.22-.17,1.32-1.31,1.32-1.31.16.25.4.71.33,1.33.25-.07.65-.25.68-.76.07-.91-.73-1.12-.73-1.12-.26-.8-2.03-1.65-3.99-1.14-1,.26-1.34.95-1.38,1.61,0,0-.55.9-.26,1.67Z"/><path class="cls-6" d="m84.52,37.01s.61-.12.67-.87c.07-.91-.73-1.12-.73-1.12-.26-.8-2.03-1.65-3.99-1.13s-1.39,2.66-.96,3.12"/><path class="cls-6" d="m79.05,35.62s-.5.78-.22,1.55c.25.68.56,1.4.47,2.09"/><path class="cls-7" d="m84.7,38.75c-.06.18-.42.15-.7.86-.28.72-.32,1.24-1.05,1.09-.69-.14-1.38-.5-1.52-.63.04.06.13.51.22.92.04.18.08.35.13.48,0,0-2.8,2.11-3.36-1.34,0,0,.67-.43,1.17-1.24.26-.42.79-.98.79-.98-.31-.3-.12-.96.24-1.08.36-.12.61.23.94.45.37.24,1.06-.25,1.28-.42.22-.17,1.32-1.31,1.32-1.31.17.27.43.76.32,1.44-.01.08-.03.17-.06.25-.23.8.32,1.31.26,1.49Z"/><path class="cls-6" d="m80.25,37.7s.15.43.65.59"/><path class="cls-6" d="m82.71,39.18s.45.93,1.17.74"/><ellipse cx="83.31" cy="37.76" rx=".25" ry=".18" transform="translate(28.82 111.23) rotate(-77.82)"/><rect class="cls-12" x="107.04" y="18.9" width="17.69" height="31.18"/><path class="cls-21" d="m115.94,19.36s-1.11,12.72-8.29,13.27l-.14-13.49,8.43.23Z"/><path class="cls-21" d="m116.26,19.36s1.11,12.72,8.29,13.27l.14-13.49-8.43.23Z"/><path class="cls-15" d="m125.06,50.71h-18.29v-31.33h18.29v31.33Zm-17.47-.81h16.65v-29.7h-16.65v29.7Z"/><path class="cls-14" d="m115.2,35.2h0c-.09.39-.21.68-.24.73h0s0,.01,0,.01c0-.03,0-.06,0-.1-.01.03-.02.04-.02.04,0-.11.01-.23,0-.34-.08-.58-.61-1.54-.67-1.7h-.08c-.22,0-.47-.05-.73-.23-.11.06-.22.1-.34.08-.17-.01-.28-.13-.36-.27,0,0,0,0-.01,0-.05.04-.35.31-.73-.05-.2.23-.5.26-.79.2-.17.13-.41.12-.41.12-.01.02-.03.04-.04.06-.7.98-.77,1.65-.78,1.72-.04-.18-.08-.34-.1-.5,0-.01,0-.03,0-.04-.08-.78.01-2.08,1.47-2.42,0,0,.14-.4.67-.25.76-.56,1.4.12,1.4.12.54-.06.62.36.62.36,1.29.52,1.29,1.68,1.11,2.45Z"/><rect class="cls-15" x="106.09" y="18.61" width="19.49" height="1.59" rx=".7" ry=".7"/><path class="cls-14" d="m104.57,32.76s-.17-1.4-.28-1.41c-.11,0,.04.87-.08.88-.12.02-.79-1.66-.88-1.63-.08.04.18,1.41.11,1.41-.08,0-.88-1.22-1.02-1.15-.14.07.59,1.34.49,1.38-.1.03-1.11-.97-1.27-.84-.11.09.98,1.12.9,1.16-.08.05-1-.39-1.06-.29-.04.06,1.41,1.19,1.41,1.19,0,0,.96-.02,1.01,0,.05,0,.68-.71.68-.71Z"/><path class="cls-13" d="m107.02,47.77l.72-2.37s-5.02-5.03-5.41-11.95l2.37-.89s2.37,6.88,4.51,7.39c0,0,.53.23,1.68.43,0,0,.58,1.32,2.95.59,0,0,1.96.34,2.6,1.07.65.73,2.44,5.97,2.58,7.2l-12.39.02.38-1.49Z"/><rect class="cls-15" x="105.52" y="49.23" width="20.63" height="1.59" rx=".7" ry=".7"/><line class="cls-14" x1="107.74" y1="45.39" x2="108.74" y2="42.85"/><path class="cls-14" d="m116.45,42.03s-.98.59-1.23,2.49"/><line class="cls-14" x1="115.22" y1="49.24" x2="115.22" y2="47.04"/><path class="cls-9" d="m112.61,32.69s0,.44.16.74h0"/><path class="cls-9" d="m113.47,33.61c.35-.2.59-.71.59-.71"/><path class="cls-14" d="m115.5,36.18c-.02.5-.23.44-.41.93-.17.45-.46.52-.5.53.23-.72.34-1.43.37-1.71.05-.03.55-.23.54.24Z"/><path class="cls-9" d="m114.59,37.65h0"/><path class="cls-9" d="m110.52,33.32s.34.2.73.27"/><path class="cls-14" d="m114.95,35.94h0c-.03.28-.14.99-.37,1.71-.19.6-.48,1.2-.88,1.55-.08.07-.16.14-.24.19-.79.62-1.25.55-1.32.53-.06,0-.39,0-.9-.46-.15-.13-.31-.29-.49-.51-.34-.41-.53-1.05-.63-1.67-.12-.74-.11-1.46-.1-1.74h0s0,0,0-.01h0s-.07-.26-.11-.55c.03.15.06.32.1.5,0-.07.07-.74.78-1.72,0-.02.03-.04.04-.06,0,0,.23.01.41-.12.29.05.59.03.79-.2.38.36.68.1.73.05,0,0,0,0,.01,0,.08.14.19.25.36.27.12.01.23-.02.34-.08.25.18.51.23.73.22h.08c.07.18.6,1.14.67,1.71,0,.11,0,.23,0,.34,0,0,0-.01.02-.04,0,.04,0,.06,0,.1Z"/><path class="cls-9" d="m114.95,35.54c.02.11.02.21.01.3"/><path class="cls-9" d="m110.78,33.84s-.75,1.08-.75,1.7"/><path class="cls-9" d="m114.97,35.82h0s0,.05-.01.11h0s0,.01,0,.01"/><path class="cls-9" d="m110.03,35.55h0"/><path class="cls-9" d="m110.03,35.43s0,.04,0,.11"/><path class="cls-14" d="m110.13,37.29s-.32-.13-.41-.6c-.11-.51-.32-.48-.26-.98.06-.47.52-.19.57-.15-.01.28-.01,1,.1,1.74Z"/><path class="cls-9" d="m110.14,37.29h0"/><path class="cls-9" d="m111.73,32.96c.1.18.19.31.28.4.01.01.02.03.03.03"/><path class="cls-9" d="m112.76,33.44h0"/><path class="cls-14" d="m112.26,35.49s-.17,1.5-.5,2.25c0,0,.06.15.56.06"/><ellipse class="cls-14" cx="113.27" cy="36.2" rx=".15" ry=".05" transform="translate(68.32 146.29) rotate(-85.52)"/><ellipse class="cls-14" cx="111.19" cy="36" rx=".15" ry=".05" transform="translate(66.6 144.04) rotate(-85.52)"/><path class="cls-14" d="m113.85,40.96c-2.37.73-2.95-.59-2.95-.59l.34-.9c.51.46.84.47.9.46.07.02.53.09,1.32-.53l.38,1.57Z"/><path class="cls-9" d="m111.76,38.73s.71.11,1.02-.18"/></svg>