<?xml version="1.0" encoding="UTF-8"?>
<svg id="Calque_1" data-name="Calque 1" xmlns="http://www.w3.org/2000/svg" viewBox="0 0 200 128">
  <defs>
    <style>
      .cls-1, .cls-2, .cls-3, .cls-4, .cls-5, .cls-6, .cls-7 {
        stroke: #000;
        stroke-miterlimit: 10;
      }

      .cls-2 {
        fill: #f3d587;
      }

      .cls-2, .cls-3, .cls-4, .cls-5, .cls-7 {
        stroke-width: 2px;
      }

      .cls-3 {
        fill: #ff6d75;
      }

      .cls-4 {
        fill: #b2f0e9;
      }

      .cls-5 {
        fill: #d6d6d6;
      }

      .cls-6 {
        fill: #fff;
      }

      .cls-7, .cls-8 {
        fill: none;
      }

      .cls-8 {
        stroke: #fff;
        stroke-linecap: round;
        stroke-linejoin: round;
        stroke-width: 8px;
      }
    </style>
  </defs>
  <path class="cls-5" d="m197.24,90.29c0,1.87-2.07,6.22-5.39,6.22h-24.67c-3.32,0-6.63-2.28-11.3-2.28H19.3c-2.95,0-10-1.87-13.11-3.94-3.11-2.07-3.42-2.59-3.42-3.94v-8.19c0-1.24,3.73-2.59,3.73-4.77v-12.03c0-3.11,27.99-23.01,36.9-25.19,8.91-2.18,48-2.38,58.47-1.45,10.47.93,32.96,12.02,47.17,22.49,15.24,0,31.62,3.83,38.77,8.13,7.15,4.31,9.43,11.67,9.43,14.78v10.16Z"/>
  <path class="cls-4" d="m82.38,58.44h-43.46c.46-2.63,12.93-19.56,16.35-20,1.06-.14,3.28-.21,6.77-.21s7.56.06,11.16.12c2.35.04,4.42.08,5.93.09.23.97,1.85,7.94,3.25,20Z"/>
  <path class="cls-5" d="m83.05,91.07h-21.43c-2.05,0-4.16-1.49-5.61-3.96-.67-1.14-2.32-3.34-4.24-5.91-2.52-3.37-5.65-7.55-7.54-10.66l-.13-.21c-3.27-5.38-5.64-9.26-5.19-11.89h43.46c.23,1.94.45,4.02.65,6.22,1.49,15.81.21,25.22.02,26.41Z"/>
  <circle class="cls-1" cx="158.15" cy="90.76" r="16.33"/>
  <circle class="cls-6" cx="158.15" cy="90.76" r="11.55" transform="translate(18.79 208.35) rotate(-70.01)"/>
  <circle class="cls-1" cx="35.63" cy="90.76" r="16.33"/>
  <circle class="cls-6" cx="35.63" cy="90.76" r="11.55" transform="translate(-61.88 91.1) rotate(-68.77)"/>
  <path class="cls-2" d="m189.01,69.92s1.87,2.28,2.23,3.37c.36,1.09,0,2.33-1.5,2.33h-8.81c-1.4,0-3.99-2.12-5.44-3.84-1.45-1.71-3.63-4.51-3.01-4.87.62-.36,8.66.67,16.53,3.01Z"/>
  <path class="cls-1" d="m187.28,87.34c.52-1.03,1.78-1.87,2.81-1.87h7.15v4.82c0,.51-.16,1.22-.46,1.97h-10.11c-1.03,0-1.45-.84-.93-1.87l1.54-3.06Z"/>
  <path class="cls-4" d="m32.41,41.45c1.19.51,2.83,1.21,3.22,1.37.62.26.52,1.3-1.19,2.28-1.71.98-7.2,5.6-9.38,7.62-2.18,2.02-3.63,2.64-5.18,2.64h-7.57c5.27-4.28,13.23-9.84,20.11-13.91Z"/>
  <path class="cls-3" d="m6.5,73.4v-11.09h8.86c1.3,0,1.97.49,1.3,2.35-.67,1.85-3.99,6.83-4.92,7.55-.93.73-1.76,1.3-2.95,1.3h-2.29s.01-.07.01-.1Z"/>
  <path class="cls-4" d="m136.45,58.44h-50.68c-1.37-11.84-2.95-18.8-3.25-20h2.55c7.21,0,16.41.31,23.62,2.81,4.16,1.44,9.74,4.15,15.71,7.61,6.44,3.72,10.48,6.94,12.04,9.58Z"/>
  <path class="cls-7" d="m137.79,84.78c-.01.25-.01.52-.02.78-.04,2.71-.09,5.52-2.7,5.52h-48.62c.21-1.38,1.44-10.77-.02-26.44-.21-2.19-.42-4.26-.65-6.19h50.68c.39.63.62,1.23.72,1.79.62,3.69.7,21.63.62,24.54Z"/>
  <rect x="91.03" y="62.31" width="6.52" height="1.69" rx=".85" ry=".85"/>
  <rect x="45.43" y="62.31" width="6.52" height="1.69" rx=".85" ry=".85"/>
  <rect class="cls-8" x="-1106.5" y="-3659.78" width="2244.45" height="5948.74"/>
</svg>