<?xml version="1.0" encoding="UTF-8"?>
<svg id="Calque_1" data-name="Calque 1" xmlns="http://www.w3.org/2000/svg" viewBox="0 0 128 128">
  <defs>
    <style>
      .cls-1 {
        fill: #d6d6d6;
      }

      .cls-1, .cls-2, .cls-3, .cls-4, .cls-5, .cls-6, .cls-7, .cls-8, .cls-9 {
        stroke-linecap: round;
        stroke-linejoin: round;
      }

      .cls-1, .cls-2, .cls-3, .cls-4, .cls-5, .cls-7, .cls-9 {
        stroke: #000;
      }

      .cls-2 {
        fill: #87f3b9;
      }

      .cls-3 {
        fill: #ffd4ad;
      }

      .cls-4 {
        fill: #fee4cb;
      }

      .cls-5, .cls-6, .cls-10 {
        fill: #fff;
      }

      .cls-6 {
        stroke: #1d1d1b;
      }

      .cls-7, .cls-8 {
        fill: none;
      }

      .cls-8 {
        stroke: #fff;
        stroke-width: 8px;
      }
    </style>
  </defs>
  <g>
    <path class="cls-5" d="m10.19,49.73l-2.23,3.34-1.64,3.17-.42,2.81c-.15.63.38,1.14.54.37l-.64,2.96c-.25.84.5,1.29.85.55l1.32-3.63-.52,5.71c-.06.86.73,1.4,1.06.38l1.38-5.75-.02,3.56.46,2.67c.27.97,1.26,1.1,1.32.11l-.14-3.43s.44-2.36.72-3.43c.05-.17,1.48-1.71,1.48-1.71l2.51,3.92c.79.87,1.66.25,1.15-.87l-1.78-5.26s-1.37-2.49-1.5-2.72l-.12-.23.42-1.94-3.56-1.71-.64,1.13Z"/>
    <path class="cls-1" d="m18.94,105.85l-1.48,4.5-.89,6.52v5.98c-.01,1.05-.31,1.82-1.07,2.13-1.86.55-4.5.18-5.98-1.18-1.54-1.95-1.27-4.91-1.01-7.64l2.04-6.63,1.16-2.19,2.01-3.38,4.86,1.9h.36Z"/>
    <path class="cls-1" d="m67.09,105.62l.54,3.92,3.51,3.19,9.04,3.21c1.04,1.13.85,2.18,0,3.2-3.46,1.42-8.87.8-14.69-.24-2.46.77-4.82.51-7.11-.59-.18-2.67.02-4.91.77-6.52l.53-5.33,7.4-.83Z"/>
    <path class="cls-9" d="m11.55,111.27c2.08,2.67,6.76,2.74,8.17.45,1.89-6.99,5.35-13.65,8.41-21.44l3.91-6.64c5-9.35,9.15-17.69,11.91-26.18l2.09.04c2.77,8.82,5.9,16.7,10.65,24.24-.09,12.47-.95,26.92,2.13,31.15,1.01.36,1.99.55,2.96.55,2.28,0,4.44-1.09,6.4-3.75l-.82-22.03c.7-3.76.92-7.63.08-11.13-1.98-10.19-5.04-19.61-10.74-30.68-5.45,2.1-14.87,1.39-22.29-5.27-1.5,1.4-3.46,5.64-4.13,9.42-4.61,8.58-6.93,19.29-8.41,30.8-5.1,5.64-7.93,16.16-11.26,26.77-.15,1.55.25,2.78.96,3.7Z"/>
    <path class="cls-3" d="m68.4,18.02l-.87,8.52c-1.61,2.97-4.08,9.3-6.19,11.67-.53.58-1.03,1.12-1.53,1.56-.33.31-.65.58-.95.81l-2.19,5.28c-4.76,3.03-12.54,2.17-17.64-.66-.84-.45-1.56-.98-2.23-1.55-.29-.23-.57-.47-.81-.71-.05-.02-.08-.06-.11-.09-.11-.13-.21-.23-.31-.36-.06-.06-.12-.12-.15-.18-.44-.55-.79-1.13-1.04-1.73-.36-2.97-.12-6.22.51-9.65-3.83,1.95-7.4,3.59-10.1,3.7-2.71,6.09-7.52,11.16-10.71,17.03-1.91-.15-3.33-.42-4.11-1.61,2.98-8.65,6.09-16.7,10.17-22.15,6.9-5.47,13.57-9.67,19.82-11.62,3.2-1.52,8.18-1.23,11.36.38,6.31-1.36,11.35-1.18,17.08,1.36Z"/>
    <polygon class="cls-5" points="101.89 26.8 108.87 30.62 110.41 33.68 109.63 37.34 106.23 40.04 105.43 38.99 106.61 37.74 105.88 35.21 103.5 35.83 105.43 38.61 104.64 39.62 101.78 35.83 101.35 31.82 98.7 30.12 101.89 26.8"/>
    <rect class="cls-2" x="100.29" y="36.44" width="15.8" height="12.15"/>
    <path class="cls-5" d="m101.89,26.8l6.98,3.82,1.54,3.06-.77,3.66-3.41,2.7c-1.06.42-1.23-.02-.79-1.05l1.18-1.24-.73-2.53-2.38.62h-1.72l-.43-4.02-2.65-1.7,3.19-3.32Z"/>
    <path class="cls-3" d="m64,15.28l21.67,3.77c5.57,2.07,12.56,5.17,17.25,8.24.95,1.44-.24,2.98-1.57,4.52-4.89-.79-9.71-1.6-17.45-4.49-7.17.63-13.7.45-21.76-1.25l1.86-10.8Z"/>
    <path class="cls-5" d="m59.71,23.55v4.76c-1.15,1.1-1.58.79-2.82,1.74q-1.38-1.6-2.82-4.22c1.01-1.29,1.94-2.59,2.83-3.85.17.21.4.39.65.52.79.41,1.5.77,2.17,1.05Z"/>
    <path class="cls-4" d="m69.72,12.69c.09,5.5-1.92,11.48-5.72,12.24-.95.19-2.51,1.69-4.29,3.38v-4.76c-.67-.28-1.38-.64-2.17-1.05-.25-.13-.48-.31-.65-.52-.89,1.26-1.82,2.56-2.83,3.85l1.9-7.08,2.42-9.02,9.65,2.52,1.69.44Z"/>
    <path class="cls-5" d="m67.12,16.54l-.8,1.35.34,1.76c.28,1.52-.89,1.01-1.36,1.26,0,0-.83,2.17-1.73,2.97-1.22.52-2.43.28-3.86-.33-.67-.28-1.38-.64-2.17-1.05-.25-.13-.48-.31-.65-.52-.28-.3-.46-.68-.54-1.09l-.39-2.14-.3-1.66-2.44-1.25c-.88-1.24-1.07-3.11-.8-5.42.65-3.38,2.66-6.34,6.57-6.35,5.44-.01,8.6,3.37,9.04,8.18.02.15.03.3.04.45,0,.06.01.12.01.18.06,1.28-.3,2.55-.96,3.66Z"/>
    <path class="cls-9" d="m66.87,16.97s-8.12-.41-10.85-2.85l-.5,1.02c2.27,1.29,3.57,1.64,6.19,2.22.58,1.9,1.42,2.47,2.34,2.47.59,0,1.14-.26,1.5-.7l.82-.99.5-1.16Z"/>
    <path class="cls-10" d="m65.56,17.77l-1.5-.11c-.38,1.42,1.31,1.38,1.5.11Z"/>
    <path class="cls-3" d="m69.72,12.69c-.58-.04-1.13-.04-1.65.01-5,.42-7.82,4.53-11.18,9.28-.89,1.26-1.82,2.56-2.83,3.85-4.84-2.75-7.78-6.3-9.02-10.55l2.64-1.61c1.5-.92,2.54-2.4,3.01-4.11.92-3.37,3.46-6.18,7.99-6.73,6.53-.8,11.92,7.37,11.04,9.86Z"/>
    <line class="cls-5" x1="100.29" y1="43.66" x2="116.09" y2="43.66"/>
    <line class="cls-5" x1="108.19" y1="42.52" x2="108.19" y2="45.23"/>
    <rect class="cls-7" x="92.63" y="48.59" width="29.62" height="71.84"/>
    <line class="cls-6" x1="62.8" y1="22.23" x2="64.38" y2="22.82"/>
  </g>
  <rect class="cls-8" x="-5300.97" y="-3944.23" width="6467.34" height="6437.3"/>
</svg>