<?xml version="1.0" encoding="UTF-8"?>
<svg id="Calque_1" data-name="Calque 1" xmlns="http://www.w3.org/2000/svg" viewBox="0 0 128 128">
  <defs>
    <style>
      .cls-1, .cls-2, .cls-3 {
        stroke: #000;
      }

      .cls-1, .cls-2, .cls-4 {
        fill: none;
        stroke-linecap: round;
        stroke-linejoin: round;
      }

      .cls-5 {
        fill: #87ccf3;
      }

      .cls-2 {
        stroke-width: 2px;
      }

      .cls-3 {
        stroke-miterlimit: 10;
        stroke-width: .25px;
      }

      .cls-4 {
        stroke: #fff;
        stroke-width: 8px;
      }
    </style>
  </defs>
  <ellipse class="cls-5" cx="64" cy="50.78" rx="20.09" ry="7.75"/>
  <g>
    <path class="cls-1" d="m48.73,48.07s8.37-4.68,12.56,5.46"/>
    <path class="cls-1" d="m51.28,50.22s3.06-2.49,6.68.57"/>
    <path class="cls-1" d="m57.69,54.1s-.87-.1-2.51.06c-2.96.28-4.4-1.32-4.4-1.32l.05-.53s3.89-3.42,7.94,1.39"/>
    <path class="cls-1" d="m60.87,59.57s-2.57,2.61,0,4.53"/>
    <path class="cls-1" d="m61.05,62.73s1.07.93,1.9,1.27"/>
    <path class="cls-2" d="m53.98,26.18s2.47,6.63,6.44,6.49c3.97-.14,4.49-7.25,4.49-7.25"/>
    <path class="cls-2" d="m47.89,31.44s4.88,3.53,10.06.43"/>
    <path class="cls-2" d="m46.41,34.97s5.03.04,7.12-1.82"/>
    <path class="cls-2" d="m45.57,48.5s-4-2.28-4.17,1.52,1.43,3.49,2.51,7.24,3.42,4.32,3.42,4.32"/>
    <path class="cls-2" d="m14.04,112.39s.59-14.46,15.93-16.65c15.33-2.18,23.2-11.16,22.55-22.47"/>
    <path class="cls-1" d="m39.92,96.77s19.64,1.38,22.21,6.28"/>
    <path class="cls-1" d="m63.2,25.65s-.61,2.62-1.8,4.45"/>
    <circle class="cls-1" cx="54.47" cy="52.78" r="1.34"/>
    <circle class="cls-3" cx="54.88" cy="52.76" r=".66"/>
    <path class="cls-1" d="m79.27,47.95s-8.37-4.68-12.56,5.46"/>
    <path class="cls-1" d="m76.72,50.09s-3.06-2.49-6.68.57"/>
    <path class="cls-1" d="m67.13,59.45s2.57,2.61,0,4.53"/>
    <path class="cls-2" d="m80.11,31.32s-8.21,4.03-11.34-.35"/>
    <path class="cls-2" d="m81.59,34.84s-5.09.18-7.18-1.69"/>
    <path class="cls-2" d="m77.84,35.15s4.94,8.55,4.59,13.24c0,0,7.19-18.56-8.32-23.52,0,0-.84-3.14-4.89-2.33-5.33-4.65-10.44.12-10.44.12-4.05-.81-4.89,2.33-4.89,2.33-15.51,4.97-8.32,23.52-8.32,23.52-.35-4.68,4.59-14.14,4.59-14.14"/>
    <path class="cls-2" d="m82.48,47.49s-.39,18.84-7.44,26.13c-7.05,7.29-10.96,6.48-10.96,6.48l.12.02s-4.19.92-11.24-6.37-7.44-26.13-7.44-26.13"/>
    <path class="cls-2" d="m82.43,48.38s4-2.28,4.17,1.52c.17,3.79-1.43,3.49-2.51,7.24-1.08,3.75-3.42,4.32-3.42,4.32"/>
    <path class="cls-2" d="m113.96,112.26s-.59-14.46-15.93-16.65c-15.33-2.18-23.2-11.16-22.55-22.47"/>
    <path class="cls-1" d="m88.08,96.65s-19.64,1.38-22.21,6.28"/>
    <path class="cls-2" d="m63.26,30.85s3.43,4.35,8.07-2.93"/>
    <path class="cls-1" d="m58.13,67.58h11.26s-5.63,4.69-11.26,0Z"/>
    <path class="cls-1" d="m59.42,70.28s4.27,2.54,8.84-.08"/>
    <path class="cls-1" d="m70.28,53.95s.87-.1,2.51.06c2.96.28,4.4-1.32,4.4-1.32l-.05-.53s-3.89-3.42-7.94,1.39"/>
    <circle class="cls-1" cx="73.51" cy="52.63" r="1.34"/>
    <path class="cls-1" d="m66.95,62.73s-1.07.93-1.9,1.27"/>
    <circle class="cls-3" cx="74.04" cy="52.63" r=".66"/>
  </g>
  <rect class="cls-4" x="-2941.53" y="-501.76" width="6467.34" height="6437.3"/>
</svg>