<?xml version="1.0" encoding="UTF-8"?>
<svg id="Calque_1" data-name="Calque 1" xmlns="http://www.w3.org/2000/svg" viewBox="0 0 128.13 128">
  <defs>
    <style>
      .cls-1 {
        fill: #bfe6fc;
      }

      .cls-1, .cls-2, .cls-3, .cls-4, .cls-5 {
        stroke: #000;
      }

      .cls-1, .cls-2, .cls-3, .cls-4, .cls-5, .cls-6 {
        stroke-linecap: round;
        stroke-linejoin: round;
      }

      .cls-2 {
        fill: #fff;
      }

      .cls-3, .cls-5, .cls-6 {
        fill: none;
      }

      .cls-4 {
        fill: #ffbeed;
      }

      .cls-4, .cls-5 {
        stroke-width: 2px;
      }

      .cls-6 {
        stroke: #fff;
        stroke-width: 8px;
      }
    </style>
  </defs>
  <path class="cls-4" d="m112.64,18.67c0,6.28-1.45,11.38-3.24,11.38s-3.23-5.1-3.23-11.38,1.45-11.39,3.23-11.39,3.24,5.1,3.24,11.39Z"/>
  <path class="cls-4" d="m109.4,30.05h-22.89c-1.78,0-3.23-5.1-3.23-11.38s1.45-11.39,3.23-11.39h22.89c-1.78,0-3.23,5.1-3.23,11.39s1.45,11.38,3.23,11.38Z"/>
  <path class="cls-4" d="m103.64,50.27l2.05-3.55c1.12-1.93,1.33-4.25.59-6.35h0c-.78-2.21-.5-4.66.76-6.64l2.36-3.68h-22.89l-2.35,3.66c-1.26,1.97-1.55,4.41-.78,6.62l.02.05c.73,2.09.52,4.41-.59,6.33l-2.06,3.55h22.89Z"/>
  <path class="cls-5" d="m49.65,35.02c-.24-.2-.55-.37-.89-.5-.03-.21-.07-.41-.11-.61-.62-3.5-1.5-6.54-2.56-8.9h.01c.96,1.72,1.82,3.83,2.55,6.24.38,1.19.71,2.44,1,3.78Z"/>
  <path class="cls-3" d="m45.94,24.71c.06.09.11.19.15.28h-.01c-.05-.08-.09-.19-.14-.28Z"/>
  <path class="cls-3" d="m48.76,34.52s-.08-.02-.11-.02v-.59c.04.2.08.4.11.61Z"/>
  <path class="cls-3" d="m48.76,34.52s-.08-.02-.11-.02v-.59c.04.2.08.4.11.61Z"/>
  <path class="cls-3" d="m43.87,71.77c.06,0,.1,0,.17-.01.45-.55.88-1.2,1.29-1.94l-1.46,1.95Z"/>
  <path class="cls-5" d="m50.13,63.35l-4.79,6.46-1.46,1.95c-.46.04-.88.02-1.29-.09-.29-.06-.56-.14-.81-.29-1.1-.52-2.06-1.63-2.9-3.29-1.85-3.64-3.15-9.97-4.3-18.92-.74-5.79-.87-11.27-.49-15.86.16-1.83.39-3.52.69-5.04,1.01-4.96,2.83-8.16,5.23-8.46,1.32-.17,2.67.57,4,2.06.66.76,1.3,1.69,1.93,2.8,0,.01.01.01.01.02.06.1.1.2.14.3,1.06,2.36,1.94,5.4,2.56,8.9,0,0,0,.01.01.03.03.09.13.33.26.65,0,0,1.34,3.5,1.36,3.49.48,2.92.8,6.05.9,9.33.18,6.73-.19,12.02-1.05,15.95Z"/>
  <path class="cls-3" d="m45.93,24.69c-.62-1.1-1.27-2.05-1.93-2.8l.19-.13c.61.78,1.2,1.76,1.74,2.93Z"/>
  <path class="cls-5" d="m97.33,72.88c0,.06-.01.14-.02.2-.13,1.32-.94,2.52-2.35,3.59-.96.77-2.23,1.45-3.72,2.05-5.23,2.15-13.37,3.32-22.45,2.89-7.49-.35-14.28-1.7-19.25-3.64-2.35-.92-4.3-1.95-5.74-3.08-.46-.36-.86-.72-1.22-1.11.25-.25.5-.53.76-.86.46-.61.91-1.34,1.33-2.16l4.94-7.2c5.15-1.58,12.21-2.36,19.96-2.01,15.56.71,27.98,5.77,27.76,11.32Z"/>
  <path class="cls-1" d="m86.7,71.11c-.01.22-.08.44-.2.65-.22.41-.65.8-1.23,1.15-2.87,1.77-8.45,2.91-16.41,2.64-6.35-.22-11.92-1.24-15.27-2.64-1.49-.62-2.54-1.31-3.01-2.04-.22-.32-.33-.65-.31-.98.14-2.77,8.7-4.73,19.11-4.37,10.41.36,17.46,2.82,17.31,5.58Z"/>
  <path class="cls-5" d="m97.33,79.74c-.07,1.66-1.42,3.18-3.71,4.42-4.88,2.67-14.06,4.22-24.51,3.78-9.44-.41-17.74-2.05-22.67-4.7h-.01l-11.67-.87-5.03-.37,3.39-5.16,8.58.77,6.72.6h.01c5.01,2.07,12.4,3.55,20.67,3.9,9.51.41,17.95-.77,23.07-2.9,1.71-.72,3.04-1.55,3.92-2.44.84.96,1.27,1.95,1.23,2.96Z"/>
  <polygon class="cls-5" points="25.96 38.95 25.96 83.25 12.16 83.25 12.16 40.06 24.35 40.06 25.96 38.95"/>
  <rect class="cls-5" x="9.07" y="35.51" width="15.28" height="4.55"/>
  <path class="cls-5" d="m33.72,29.03c-.48,1.65-.89,3.46-1.22,5.4l-6.53,4.53-1.61,1.12v-4.55l9.37-6.49Z"/>
  <path class="cls-5" d="m49.64,17.92v4.56l-3.55,2.52h-.01c-.05-.08-.09-.19-.14-.28,0-.01-.01-.01-.01-.02-.62-1.1-1.27-2.05-1.93-2.8l.19-.13,5.45-3.85Z"/>
  <path class="cls-5" d="m43.87,71.76c.06,0,.11,0,.16-.01-.24.29-.48.55-.73.78-.44.39-.87.69-1.32.88-.45.21-.91.32-1.38.32-1.36,0-2.66-.88-3.81-2.48-3.14-4.28-5.31-13.68-5.31-24.58,0-4.41.35-8.57,1-12.25.33-1.94.74-3.75,1.22-5.4,1.66-5.77,4.14-9.42,6.9-9.42,1.27,0,2.47.76,3.57,2.15l-.19.13c-1.33-1.49-2.69-2.23-4.01-2.07-2.4.31-4.21,3.5-5.22,8.46-.31,1.52-.54,3.21-.69,5.03-.38,4.6-.25,10.06.49,15.86,1.14,8.96,2.44,15.28,4.3,18.92.83,1.66,1.79,2.76,2.89,3.29.26.14.53.24.81.29.41.11.83.13,1.29.08Z"/>
  <path class="cls-5" d="m36.81,71.25l-3.68,5.59-3.39,5.16-.82,1.25h-2.96v-44.3l6.53-4.53c-.65,3.68-1,7.84-1,12.25,0,10.9,2.17,20.3,5.31,24.58Z"/>
  <path class="cls-5" d="m48.64,23.23v8.02c-.74-2.41-1.6-4.53-2.55-6.25l2.55-1.76Z"/>
  <polyline class="cls-5" points="9.07 35.51 33.88 17.89 49.64 17.92"/>
  <ellipse class="cls-3" cx="30.12" cy="25.14" rx="2.83" ry="1.4" transform="translate(-8.9 21.04) rotate(-33.85)"/>
  <line class="cls-3" x1="28.1" y1="25.14" x2="28.1" y2="25.14"/>
  <line class="cls-3" x1="31.93" y1="25.39" x2="31.93" y2="25.39"/>
  <line class="cls-3" x1="31.93" y1="25.14" x2="28.1" y2="25.14"/>
  <line class="cls-3" x1="46.43" y1="83.25" x2="46.43" y2="83.22"/>
  <path class="cls-3" d="m46.44,83.24v.04"/>
  <path class="cls-2" d="m51.29,35.52c0,1.05-1.47,1.9-3.28,1.9v-3.82c1.81,0,3.28.86,3.28,1.92Z"/>
  <path class="cls-2" d="m41.13,40.86c0,.26-.09.5-.25.72-.18.23-.45.47-.77.64-.02.01-.06.02-.08.03-.17.11-.36.19-.56.23-.47.18-1.04.28-1.64.28v-3.82c.37,0,.71.03,1.04.1.21.04.41.1.6.17.03,0,.07.01.11.02.35.13.65.3.89.5.41.3.65.7.65,1.13Z"/>
  <line class="cls-3" x1="43.87" y1="71.76" x2="43.31" y2="72.53"/>
  <path class="cls-5" d="m91.3,109.55l1.14,2.89c-.58.68-1.36,1.34-2.32,1.95-.53.35-1.14.68-1.78.99-1.55.78-3.4,1.47-5.49,2.06-5.07,1.45-11.57,2.31-18.63,2.31-6.22,0-11.99-.67-16.74-1.81-1.55-.38-2.99-.79-4.29-1.26-1.17-.41-2.24-.86-3.19-1.34l2.92-12.83.7-3.11s-2.82-2.61-5.52-6.63c-2.72-4.02-3.33-10.41-3.33-10.41l11.67.87h.01c4.93,2.65,13.23,4.29,22.67,4.7,10.44.45,19.62-1.1,24.51-3.78.01.11.01.23.01.35,0,3.83-2.15,7.32-5.73,10.02-.62.47-1.28.91-1.98,1.33l3.27,8.31,2.12,5.38Z"/>
  <ellipse class="cls-2" cx="109.41" cy="18.67" rx="1.03" ry="3.63"/>
  <path class="cls-5" d="m51.86,94.36s11.41,3.66,18.9,3.57c7.49-.09,15.16-2.07,15.16-2.07"/>
  <rect class="cls-6" x="-1327.2" y="-1718.48" width="2244.45" height="5948.74"/>
</svg>