<?xml version="1.0" encoding="UTF-8"?>
<svg id="Calque_1" data-name="Calque 1" xmlns="http://www.w3.org/2000/svg" viewBox="0 0 128 128">
  <defs>
    <style>
      .cls-1, .cls-2, .cls-3, .cls-4, .cls-5, .cls-6 {
        stroke-linecap: round;
        stroke-linejoin: round;
      }

      .cls-1, .cls-4 {
        stroke: #000;
      }

      .cls-1, .cls-4, .cls-5, .cls-6 {
        fill: none;
      }

      .cls-2 {
        fill: #d6d6d6;
      }

      .cls-2, .cls-3, .cls-4, .cls-5 {
        stroke-width: 2px;
      }

      .cls-2, .cls-3, .cls-5 {
        stroke: #1d1d1b;
      }

      .cls-3 {
        fill: #b2f0e9;
      }

      .cls-6 {
        stroke: #fff;
        stroke-width: 8px;
      }
    </style>
  </defs>
  <path class="cls-5" d="m52.34,46.25c-.16-.49-.24-.99-.24-1.51,0-.4.05-.79.14-1.18l.1,2.69Z"/>
  <path class="cls-5" d="m106.71,48.32c-3.6,4.75-14.17,8.18-26.66,8.18s-23.05-3.44-26.64-8.18c3.57-4.76,14.16-8.19,26.64-8.19s23.07,3.44,26.66,8.19Z"/>
  <path class="cls-5" d="m108.02,44.74c0,.52-.08,1.02-.24,1.51l.1-2.69c.09.39.14.78.14,1.18Z"/>
  <path class="cls-5" d="m106.71,48.32c-3.6,4.75-14.17,8.18-26.66,8.18s-23.05-3.44-26.64-8.18c3.57-4.76,14.16-8.19,26.64-8.19s23.07,3.44,26.66,8.19Z"/>
  <path class="cls-5" d="m106.71,48.32c-3.6,4.75-14.17,8.18-26.66,8.18s-23.05-3.44-26.64-8.18c3.57-4.76,14.16-8.19,26.64-8.19s23.07,3.44,26.66,8.19Z"/>
  <path class="cls-3" d="m107.29,58.84l-1.31,33.82c-.28,7.24-5.66,13.25-12.84,14.31l-.3.05c-8.55,1.26-17.23,1.26-25.78-.03h-.11c-7.15-1.08-12.54-7.09-12.81-14.31l-1.47-37.95c.89,1.88,2.53,3.27,4.47,3.88h.01c.68.21,1.41.33,2.15.33h46.78c.42,0,.82-.04,1.21-.1Z"/>
  <path class="cls-5" d="m107.88,43.53v.03l-.1,2.69c-.2.7-.58,1.4-1.07,2.06-3.59-4.76-14.17-8.19-26.66-8.19s-23.07,3.44-26.64,8.19c-.5-.67-.87-1.36-1.07-2.06l-.1-2.69v-.03c.29-1.2,1.02-2.34,2.1-3.41,4.27-4.2,14.17-7.14,25.71-7.14s21.45,2.93,25.71,7.14c1.09,1.07,1.81,2.22,2.11,3.41Z"/>
  <path class="cls-5" d="m52.34,46.25c-.16-.49-.24-.99-.24-1.51,0-.4.05-.79.14-1.18l.1,2.69Z"/>
  <path class="cls-5" d="m106.71,48.32c-3.6,4.75-14.17,8.18-26.66,8.18s-23.05-3.44-26.64-8.18c3.57-4.76,14.16-8.19,26.64-8.19s23.07,3.44,26.66,8.19Z"/>
  <path class="cls-5" d="m108.02,44.74c0,.52-.08,1.02-.24,1.51l.1-2.69c.09.39.14.78.14,1.18Z"/>
  <path class="cls-5" d="m107.78,46.25c-.2.7-.58,1.4-1.07,2.06-3.6,4.75-14.17,8.18-26.66,8.18s-23.05-3.44-26.64-8.18c-.5-.67-.87-1.36-1.07-2.06-.16-.49-.24-.99-.24-1.51,0-.4.05-.79.14-1.18v-.03c.29-1.2,1.02-2.34,2.1-3.41,4.27-4.2,14.17-7.14,25.71-7.14s21.45,2.93,25.71,7.14c1.09,1.07,1.81,2.22,2.11,3.41v.03c.09.39.14.78.14,1.18,0,.52-.08,1.02-.24,1.51Z"/>
  <path class="cls-5" d="m107.29,58.84c-.39.06-.79.1-1.21.1h-46.78c-.74,0-1.47-.11-2.15-.33h-.01c-1.94-.6-3.57-2-4.47-3.88-.06-.14-.13-.26-.18-.4l-5.47-13.69c-1.93-4.81,1.62-10.04,6.81-10.04h46.78c3,0,5.69,1.82,6.8,4.61l5.49,13.69c1.76,4.42-1.09,9.21-5.6,9.94Z"/>
  <path class="cls-2" d="m106.71,48.32c-3.6,4.75-14.17,8.18-26.66,8.18s-23.05-3.44-26.64-8.18c3.57-4.76,14.16-8.19,26.64-8.19s23.07,3.44,26.66,8.19Z"/>
  <g id="jkvMcz">
    <path class="cls-4" d="m34.54,12.82c3.38,4.75,5.64,10.74,3.74,17.69-.83,3.02-3.06,5.19-5.09,7.42-1.19,1.3-1.81,2.67-1.68,4.47.38,5.5.71,47.21.96,52.72.23,4.89.2,9.78-.43,14.65-.12.9-.33,1.8-.61,2.66-.58,1.79-1.37,2.36-3.06,2.35-1.71-.01-2.47-.58-3.06-2.36-.48-1.43-.63-2.91-.73-4.4-.62-8.65.4-53.43,1.09-62.03.11-1.41.18-2.81.33-4.22.15-1.44-.4-2.56-1.3-3.62-1.23-1.45-2.47-2.91-3.56-4.47-2.7-3.88-2.73-8.15-1.56-12.53.92-3.44,2.27-6.68,4.86-9.25,3.03-3,6.37-2.93,10.1.91Z"/>
  </g>
  <path class="cls-1" d="m24.54,31.16c-.78-1.61-1.24-3.66-1.24-5.89,0-5.18,2.51-9.38,5.61-9.38"/>
  <rect class="cls-6" x="-745.88" y="-334.38" width="3385.57" height="2571.67"/>
</svg>