<?xml version="1.0" encoding="UTF-8"?>
<svg id="Calque_1" data-name="Calque 1" xmlns="http://www.w3.org/2000/svg" viewBox="0 0 128 128">
  <defs>
    <style>
      .cls-1, .cls-2, .cls-3, .cls-4, .cls-5 {
        stroke: #000;
      }

      .cls-1, .cls-2, .cls-3, .cls-4, .cls-5, .cls-6, .cls-7, .cls-8, .cls-9 {
        stroke-linecap: round;
        stroke-linejoin: round;
      }

      .cls-1, .cls-6 {
        fill: #d6d6d6;
      }

      .cls-2 {
        fill: #baa584;
      }

      .cls-3 {
        fill: #ffbeed;
      }

      .cls-4 {
        fill: #fee4cb;
      }

      .cls-5 {
        fill: #fff;
      }

      .cls-6, .cls-7, .cls-8 {
        stroke: #1d1d1b;
        stroke-width: 2px;
      }

      .cls-7 {
        fill: #b2f0e9;
      }

      .cls-8, .cls-9 {
        fill: none;
      }

      .cls-9 {
        stroke: #fff;
        stroke-width: 8px;
      }
    </style>
  </defs>
  <g>
    <path class="cls-5" d="m47.42,105.16c0,.26-.03.55-.1.85l-.38-3.27s.45,1.25.48,2.42Z"/>
    <path class="cls-5" d="m40.26,101.81l-.07,1.68c-.07-.95.07-1.68.07-1.68Z"/>
    <path class="cls-5" d="m18.84,112.92s-.63-.07-1.16-.15c-.53-.07-.71-1.16-.71-1.16l-2.62-5.11c.36.2.78.4,1.25.54l-.18.92c-.07.35.16.68.5.76h.07c.35.08.69-.15.76-.49l.17-.87c.5.07,1.03.08,1.59,0h0s.06.11.06.11h0c.12.43.25.91.38,1.43.44,1.67,1.04,1.97,1.04,1.97,0,0,1.63.48,2.23,1.11,1.24,1.29,1.39,3.83,1.39,3.83h-5.75v-1.28c0-.68.97-1.62.97-1.62Z"/>
    <path class="cls-5" d="m18.57,107.48l-.06-.11h.03s.02.07.02.11Z"/>
    <path class="cls-5" d="m45.09,116.99s-.35.03-1.81.19c-1.45.16-2.55-.39-2.55-.39,0,0,.07-1.53-.16-2.2-.24-.67-1.42-1.61-1.42-1.61l1.11-1.61s.07-1.85-.1-3.26c-.12-.99-.69-3.42-1.03-4.79.05,0,.09,0,.12.02.35.06.65.12.94.2.07,1.02.39,2.28,1.38,3.14.44.38.81.71,1.12.98-.12.56-.24,1.19-.27,1.71-.07,1.29.44,3.69.44,3.69,0,0,.5.19,1.37,1.17.87.98.87,2.75.87,2.75Z"/>
    <path class="cls-5" d="m40.25,103.55s-.04,0-.06-.02v-.04s.06.06.06.06Z"/>
    <path class="cls-3" d="m22.87,105.86l-.03.06c-.18.31-.58.42-.88.24l-.72-.41c-.39.54-.84,1-1.36,1.26l.41.72c.18.31.07.71-.24.88l-.06.04c-.31.17-.71.07-.88-.24l-.54-.92h0s-.02-.08-.02-.12h-.04c-.56.07-1.09.07-1.59,0l-.17.87c-.07.35-.41.58-.76.5h-.07c-.35-.08-.58-.42-.5-.77l.18-.92c-.46-.15-.88-.35-1.25-.54-.21-.12-.41-.24-.59-.35.06-.12.13-.26.21-.39.27-.47.6-.98.94-1.48.16-.22.31-.45.47-.66t0,0s.1-.09.16-.13c.03-.02.39-.31.76-.58,1.52-1.09,2.3-1.65,3.18-1.51.73.12,1.81.78,1.96.87.4.24.8.45,1.2.64-.17.5-.4,1.09-.69,1.67l.69.4c.31.17.42.57.24.88Z"/>
    <path class="cls-5" d="m18.57,107.48l-.06-.11h.03s.02.07.02.11Z"/>
    <path class="cls-5" d="m7.21,104.84c-.37,2.28-2.36,2.75-2.36,2.75,0,0-.69-2.06-.31-3.94.22-1.1,1.84-1.88,2.23-3.01,0,0,.68,2.73.45,4.2Z"/>
    <path class="cls-5" d="m6.09,83.83c-.46.69-.87,1.76-.83,3.3.07,3.31,1.62,5.98,1.9,8.2.28,2.22,0,4.19-.39,5.32"/>
    <path class="cls-5" d="m7.15,82.72s-.56.31-1.06,1.1"/>
    <path class="cls-5" d="m40.19,103.5l.07-1.68s-.14.73-.07,1.68Zm6.75-.76l.38,3.27c.07-.3.11-.59.1-.85-.03-1.18-.48-2.42-.48-2.42Z"/>
    <path class="cls-5" d="m69.94,89.82c-.17.29-.33.4-1.22,1.07-1.48,1.13-1.39,1.11-1.51,1.15-1.17.48-2.85.1-3.6-.87-.28-.35-.26-.58-.44-.82h0c-.04-.09-.11-.16-.21-.26-.25-.21-.71-.49-2.16-.5-1.39,0-1.25.18-2.02.26-.73,0-.87-.11-1.05-.21-1,.4-1.98.98-2.4,1.77-.09.18-.16.37-.19.57-.03.22.02.11.05.84v.12c.03,1.11-.1,2.05-.25,2.75-.09.43-.19.76-.26.98-.02.05-.02.07-.03.11-.64,1.96-2.09,3.06-2.59,3.41-.98.68-1.33.54-1.57,1.05-.34.72.27,1.19.16,2.25-.11.99-.78,1.93-1.58,2.35-.4.22-.87.31-1.77.17.07-.3.11-.59.1-.85-.03-1.18-.48-2.42-.48-2.42l.38,3.27c-.25,1.01-.83,2.13-.89,2.88-.07.96.59,1.84.59,1.84l.13.11c.69.59,1.11,1.44,1.13,2.35l.07,1.85s1.25.55,1.88,1.37c.63.81.21,2.09.21,2.09,0,0-3.5.15-3.87,0-.36-.15-1.11-1.39-1.11-1.95,0-.55.49-1.4-.26-2.55-.44-.68-1.01-1.09-1.39-1.3-.21-.12-.26-.4-.11-.59l.87-1.09-.44-2.03s-.4-.4-1.46-1.34c-.31-.27-.68-.6-1.12-.98-.99-.86-1.3-2.12-1.38-3.14.02,0,.04,0,.06.02l-.06-.06.07-1.68s-.14.73-.07,1.68v.04c-.29-.07-.59-.14-.94-.2-.02,0-.07,0-.12-.02-.38-.06-1.34-.2-2.59-.17-1.66.03-2.58.33-4.12.61-2.38.45-3.57.67-5.05.53,0,0-2.27-.22-4.74-1.39-.4-.19-.8-.4-1.2-.64-.15-.09-1.24-.74-1.96-.87-.87-.14-1.66.42-3.18,1.51-.37.26-.73.55-.76.58-.06.04-.11.09-.16.13t0,0c-.16.21-.31.44-.47.66-.34.49-.67,1.01-.94,1.48-.08.13-.16.26-.21.39-.25.45-.4.82-.44,1.08-.15,1.25-.17,3,.23,4.03.4,1.03,2.09,2.14,2.09,2.14h-1.33s-.37,1.08-.37,1.08c0,0,1.01.21,1.4.82.54.82.85,1.95.85,1.95h-4.57s-1.37-.2-1.42-1.84c-.02-.72.61-1.76.61-1.76l-1.22-.15s0-2.14,0-3.54c0-1.09.37-2.8.53-3.94h0c.05-.35.08-.64.07-.85-.03-.87.02-1.75.1-2.36v-.02c.02-.5.07-1.01.06-1.26-.07-.93.1-1.5-.59-3.51-1.48-4.4-.26-4.72-1.8-7.76-.73-1.47-1.39-2.13-1.72-3.81-.02-.09-.04-.21-.07-.37h0c-.1-.56-.21-1.44-.09-2.24h0c.08-.59.3-1.14.73-1.48.21-.17.49-.3,3.17-.29.9,0,1.46.02,1.85.03.65.02.81.03,1.24-.03,2.11-.31,2.09-1.25,3.6-1.29,1.39-.04,1.83.73,3.4,1.08.25.06.53.11.85.14.87.09,1.47-.05,2.15-.07,2.07-.06,4.9-.14,8.12-.07,1.92.04,3.13.12,3.98.16,1.34.07,1.76.07,2.64-.23,1.93-.66,2.22-1.48,3.96-1.65,1.41-.15,1.91.32,3.32.73.42.12.93.24,1.57.34,1.06.16,2.49.39,4.12.12.49-.08.98-.21,1.49-.4.54-.2,1.26-.46,2-.91.59,1.29,1.53,2.71,2.9,2.69,2.52-.02,3.2-1.38,3.2-1.38,0,0,.07-.63-.31-1.03-.91-.96-1.55-.29-1.55-.29,0,0-1.29.66-2.13.29-.42-.18-.87-.5-1.28-.85.36-.29.72-.64,1.04-1.05.57-.72.87-1.44,1.8-1.86.45-.21.99-.23,2.09-.29,1.44-.07,2.18-.11,2.8.29.16.1.45.42,1.01,1.08l1.58,2.28c.12.72-.29,1.12,0,2.17.11.4.58,1.03,1.51,2.3.44.59.76,1.03,1.02,1.37.26.32.45.54.64.72.85.78,1.25.81,1.51,1.44.26.63.17,1.39-.15,1.95Z"/>
    <path class="cls-4" d="m60.37,81.31s-.68,1.36-3.2,1.38c-1.37.02-2.32-1.39-2.9-2.69-.46-1.03-.69-1.99-.72-2.11.12.12.77.88,1.55,1.54.41.35.86.67,1.28.85.83.37,2.13-.29,2.13-.29,0,0,.64-.67,1.55.29.38.4.31,1.03.31,1.03Z"/>
    <path class="cls-4" d="m67.29,76.73c-.26,1.43-1.16,2.51-1.87,3.16l-1.58-2.28s1.11-.66,1.59-1.81c.41-.98.21-3.2.21-3.2,0,0,2.08,1.72,1.65,4.13Z"/>
    <path class="cls-5" d="m54.93,86.53c.16.42.42.99.89,1.56.68.85,1.45,1.32,1.93,1.56"/>
    <path d="m63.77,82.99c0,.4-.32.71-.72.71s-.71-.31-.71-.71.32-.72.71-.72.72.32.72.72Z"/>
    <path d="m36.41,88.07c-.21.64-.66,1.17-1.57,2.23-1.46,1.7-1.88,1.65-2.22,2.54-.45,1.18.15,1.62-.39,2.61-.62,1.13-1.89,1.49-2.16,1.57-1.76.5-3.24-.45-3.46-.59-1.9-1.26-2.18-3.71-2.22-4.18-.15-1.62.47-2.3-.13-3.27-.35-.57-.7-.54-1.96-1.44-.94-.68-1.79-1.29-2.22-1.95-.62-.99-.52-2.47-.02-3.76.25.06.53.11.85.14.87.09,1.47-.05,2.15-.07,2.07-.06,4.9-.14,8.12-.07,1.92.04,3.13.12,3.98.16.58,1.12.92,2.35.98,2.56.36,1.29.65,2.35.26,3.52Z"/>
    <path d="m16.44,98.66c-.22,1.13-1.2,1.39-2.94,3,0,0-1.29,1.2-2.28,2.55-.45.62-.81,1.23-1.1,1.8.05-.35.08-.64.07-.84-.03-.87.02-1.75.1-2.36v-.02c.02-.5.07-1.01.06-1.26-.07-.93.1-1.5-.59-3.51-1.48-4.4-.26-4.72-1.8-7.76-.73-1.47-1.39-2.13-1.72-3.81-.02-.09-.04-.21-.07-.37h0c-.1-.56-.21-1.44-.09-2.24h0c.08-.59.3-1.14.73-1.48.21-.17.49-.3,3.17-.29.9,0,1.46.02,1.85.03.26.74.29,1.59,1.15,2.6.64.76,1.06.78,1.5,1.57.59,1.07.45,2.21.39,2.61-.05.39-.25,1.89-1.37,2.94-.41.38-.85.63-1.05,1.24-.04.13-.23.73.07,1.11.35.43.95.07,1.76.39.82.32,1.25,1.1,1.57,1.7.29.54.78,1.45.59,2.42Z"/>
    <path d="m55.35,91.42c-.16-.18-.35-.38-.53-.6-.89-1.08-1.45-1.76-1.5-2.75-.07-1.22.72-1.84.33-2.61-.32-.63-.96-.44-1.7-.98-1.08-.79-.93-2.08-1.18-3.18-1.62.27-3.06.05-4.12-.12-.64-.1-1.15-.21-1.57-.34-.6.8-.85,1.79-.84,2.6.02,1.91,1.5,2.79.98,3.91-.37.79-1.23.64-1.5,1.5-.3.93.56,1.56.19,2.28-.06.12-.23.39-1.63.85-1.81.6-2.48.47-2.67.92-.21.51.33,1.45,1.11,1.83,1.18.57,2.14-.54,3.19.07.72.4.94,1.29,1.05,1.7.4,1.55-.46,2.53,0,2.94.4.35,1.53-.02,2.09-.72.53-.68.15-1.17.65-1.83.38-.49,1-.66,2.23-.98.94-.24,1.58-.4,2.47-.45,1.14-.07,1.94.11,2.56.24l.39-4.27Z"/>
    <path d="m69.94,89.82c-.17.29-.33.4-1.22,1.07-1.48,1.13-1.39,1.11-1.51,1.15-1.17.48-2.85.1-3.6-.87-.28-.35-.26-.58-.44-.82h0c.04-.39.04-.69.3-.98.3-.34.72-.35,1.72-.49,1.2-.17,1.81-.24,1.99-.37.87-.67.24-2.17.76-2.8.26.32.45.54.64.72.85.78,1.25.81,1.51,1.44.26.63.17,1.39-.15,1.95Z"/>
  </g>
  <g>
    <path class="cls-8" d="m83.86,22.91c-2.67,3.52-10.52,6.07-19.78,6.07s-17.1-2.55-19.77-6.07c2.65-3.53,10.51-6.08,19.77-6.08s17.12,2.55,19.78,6.08Z"/>
    <path class="cls-8" d="m84.83,20.25c0,.38-.06.76-.18,1.12l.07-2c.07.29.1.58.1.88Z"/>
    <path class="cls-8" d="m83.86,22.91c-2.67,3.52-10.52,6.07-19.78,6.07s-17.1-2.55-19.77-6.07c2.65-3.53,10.51-6.08,19.77-6.08s17.12,2.55,19.78,6.08Z"/>
    <path class="cls-8" d="m83.86,22.91c-2.67,3.52-10.52,6.07-19.78,6.07s-17.1-2.55-19.77-6.07c2.65-3.53,10.51-6.08,19.77-6.08s17.12,2.55,19.78,6.08Z"/>
    <path class="cls-7" d="m84.29,30.71l-.97,25.09c-.21,5.37-4.2,9.83-9.53,10.62l-.22.04c-6.34.93-12.78.93-19.13-.02h-.08c-5.3-.8-9.3-5.26-9.51-10.62l-1.09-28.16c.66,1.39,1.88,2.43,3.32,2.88h0c.5.16,1.05.24,1.6.24h34.71c.31,0,.61-.03.9-.07Z"/>
    <path class="cls-8" d="m84.72,19.36v.02l-.07,2c-.15.52-.43,1.04-.79,1.53-2.66-3.53-10.52-6.08-19.78-6.08s-17.12,2.55-19.77,6.08c-.37-.49-.64-1.01-.79-1.53l-.07-2v-.02c.21-.89.76-1.74,1.56-2.53,3.17-3.12,10.52-5.3,19.08-5.3s15.91,2.18,19.08,5.3c.81.79,1.34,1.64,1.57,2.53Z"/>
    <path class="cls-8" d="m83.86,22.91c-2.67,3.52-10.52,6.07-19.78,6.07s-17.1-2.55-19.77-6.07c2.65-3.53,10.51-6.08,19.77-6.08s17.12,2.55,19.78,6.08Z"/>
    <path class="cls-8" d="m84.83,20.25c0,.38-.06.76-.18,1.12l.07-2c.07.29.1.58.1.88Z"/>
    <path class="cls-8" d="m84.65,21.37c-.15.52-.43,1.04-.79,1.53-2.67,3.52-10.52,6.07-19.78,6.07s-17.1-2.55-19.77-6.07c-.37-.49-.64-1.01-.79-1.53-.12-.36-.18-.74-.18-1.12,0-.3.04-.59.1-.88v-.02c.21-.89.76-1.74,1.56-2.53,3.17-3.12,10.52-5.3,19.08-5.3s15.91,2.18,19.08,5.3c.81.79,1.34,1.64,1.57,2.53v.02c.07.29.1.58.1.88,0,.38-.06.76-.18,1.12Z"/>
    <path class="cls-8" d="m84.29,30.71c-.29.05-.59.07-.9.07h-34.71c-.55,0-1.09-.08-1.6-.24h0c-1.44-.45-2.65-1.48-3.32-2.88-.05-.1-.09-.2-.13-.3l-4.06-10.16c-1.43-3.57,1.2-7.45,5.05-7.45h34.71c2.22,0,4.22,1.35,5.04,3.42l4.07,10.16c1.31,3.28-.81,6.84-4.16,7.38Z"/>
    <path class="cls-6" d="m83.86,22.91c-2.67,3.52-10.52,6.07-19.78,6.07s-17.1-2.55-19.77-6.07c2.65-3.53,10.51-6.08,19.77-6.08s17.12,2.55,19.78,6.08Z"/>
  </g>
  <g>
    <path class="cls-2" d="m90.82,103.86c.1-.2.17-.4.23-.61.15-.57.16-1.14.18-1.59.04-1.59-.53-2.83-.92-3.51"/>
    <path class="cls-2" d="m82.78,95.75c.6-.25,1.17-.47,1.17-.47"/>
    <path class="cls-2" d="m88.25,105.74s-.1.07-.16.1h0c.05-.04.1-.07.16-.1Z"/>
    <path class="cls-2" d="m91.33,117.81s-2.02.06-2.2,0c-.18-.06-.38-.83-.38-.83,0,0-.6.06-.67-.09-.08-.15.16-.49.22-.7.02-.07.04-.18.07-.3-.31-.56-.35-1.08-.54-1.95-.23-1.08-.28-.76-.64-2.34-.2-.84-.26-1.39-.65-2.12-.29-.54-.36-.52-.47-.87-.11-.32-.13-.64-.12-.93.01-.02.03-.03.04-.04.88-.97,1.73-1.56,2.05-1.77.02-.01.04-.02.05-.03.06.27.11.46.14.54.4.91.75,1.61,1.11,1.98-.22.37-.39.73-.49,1.17-.05.2-.12.59.13,2.35.19,1.31.28,1.96.5,2.76.15.54.3.99.43,1.35l.26.11,1.15,1.71Z"/>
    <path class="cls-2" d="m105.87,104.78c-.35.51-.55.79-.61.91-.3.59-.68,1.34-.72,2.33-.02.6.1.79-.05,1.25-.18.53-.46.65-.81,1.17-.45.66-.57,1.29-.68,1.87-.21,1.15.08,1.44-.01,2.32,0,.12-.05.45.12.79.05.09.1.15.11.17.08.1.21.28.39.55.19.28.43.65.76,1.16-1.43.17-2.29-.07-2.29-.07-.1-.03-.27-.08-.36-.23-.03-.04-.11-.2,0-.6.15-.55.4-.59.37-.85-.02-.19-.18-.36-.32-.49-.15-.13-.29-.21-.29-.21,0,0-.28-.1-.38-.23-.15-.18,0-.52.17-.9.13-.3.31-.74.52-1.3,0,0,.29-.66.64-1.56.16-.43.22-.61.22-.86,0-.38-.14-.55-.11-.93.02-.24.07-.36.19-.86,0,0,.09-.4.19-.86.15-.73.06-1.46,0-1.9-.12-.93-.36-1.58-.55-2.04.2.07.44.15.77.24,1.15.32,1.79.5,2.37.31.07-.02.15-.05.24-.02.17.08.16.37.12.85Z"/>
    <path class="cls-2" d="m109.17,96.64s.38,2.31.34,3.14c-.03.83.04,1.66-.34,2.25-.37.57-.77,1.47-.95,2.15"/>
    <polyline class="cls-2" points="115.54 89 115.43 91 116.2 90.34 115.97 91.53 116.82 90.87 116.88 91.73"/>
    <path class="cls-2" d="m91.05,103.24c-.06.21-.13.41-.23.61"/>
    <path class="cls-2" d="m125.1,91.61c-.15.36-.41.61-.51.71-.14.14-.37.36-.75.48-.06.02-.72.21-1.32-.12-.31-.16-.47-.39-.77-.4h-.05c-.14,0-.24.05-.29.08-.54.24-1.59.08-2.43-.28-.03,0-.05-.02-.08-.03-.87-.4-.92-.76-1.38-.71l-.63.89-.03-.5c-.13.1-.29.23-.49.4-.56.47-.85.7-.91.76-.68.64-.77,1.15-1.57,2.7-.58,1.12-.87,1.69-1.39,2.41-.58.8-.81.92-1.23,1.66-.44.79-.36,1-.78,1.59-.48.68-.77.67-1.32,1.3-.16.18-.65.77-.95,1.63,0,.02,0,.04-.02.05-.04.11-.07.22-.1.33-.32,1.23.06,2.01-.23,2.98-.02.09-.11.35-.08.69.03.35.15.45.25.76.14.45.08.82-.04,1.57-.08.46-.12.5-.19.9-.17.92-.03,1.25.04,2.97.01.36.02.61.17.9.09.17.16.22.15.33,0,.08-.06.15-.13.22l.52.22,1.15,1.71s-2.02.06-2.2,0c-.18-.06-.37-.83-.37-.83,0,0-.6.06-.68-.09-.08-.15.16-.49.23-.7,0-.01,0-.03,0-.05-.24.06-.35.21-.45.16-.1-.05-.1-.26-.09-.32.02-.64.03-.95.19-1.47,0,0,.27-.9.19-1.95,0-.11-.12-.64-.36-1.71-.16-.73-.2-.9-.24-1.21-.06-.56-.01-.83,0-1.39.03-1.19-.16-1.15-.15-2.24,0-.48.04-.9.07-1.23.04-.48.04-.77-.12-.85-.08-.04-.17,0-.24.02-.58.19-1.21.01-2.37-.31-.33-.09-.57-.18-.77-.24h0c-.32-.11-.56-.17-.94-.15-.22,0-.37.04-.66.1-.65.12-1.31.21-1.96.32-1.46.25-3.79.27-5.18.26-.39,0-.71,0-.9-.01-.5,0-1.15-.03-1.9-.06-.11.22-.24.44-.42.64-.11.12-.21.22-.31.29-.06.04-.12.08-.18.12-.05.04-.11.06-.17.09-.15.07-.32.14-.53.23-.06.03-.13.06-.2.09-.07.03-.14.07-.22.11-.07.04-.15.08-.23.13-.08.05-.17.1-.26.16-.01,0-.03.02-.04.03-.05.03-.1.06-.16.1h0s-.04.02-.05.04c-.32.21-1.17.8-2.05,1.77-.01.01-.03.03-.04.04-.39.43-.88.99-1.33,1.85-.64,1.22-.79,2.27-.83,2.47-.14,1.02-.03,1.86.01,2.11.08.51.17.91.17.91.21.91.44,1.44.24,1.59l1.15,1.71s-2.02.06-2.2,0c-.18-.06-.38-.83-.38-.83,0,0-.6.06-.67-.09-.08-.15.16-.49.22-.7.02-.07.04-.17.06-.28h0c.03-.2.06-.42.07-.51,0-.03,0-.04,0-.04.03-.1.02-.07-.24-4.06-.03-.51-.06-.95-.33-1.44-.24-.4-.41-.43-.43-.67-.04-.54.83-.8,1.55-1.66.36-.42.53-.83.86-1.65.67-1.68,1.21-3.02.75-4.3-.3-.85-.7-.71-1.4-2.07-.3-.59-.63-1.23-.73-2.07-.09-.76,0-1.52.27-2.23-.41.17-.83.37-1.08.52-.6.38-1.04.78-1.04.78,0,0-.03-1.11.36-1.44.38-.33,3.62-3.07,5.09-3.05,1.41-.72,2.56-1.3,4.02-1.59.48-.09.67-.09,3.47-.06,4.48.05,4.73.07,5.42-.06,1.47-.27,1.73-.58,3.47-.79,1.39-.17,2.57-.13,2.74-.12,2.15.08,2.42.51,3.59.24,1.03-.23,1.79-.78,2.37-1.22.55-.4.96-.84,1.77-1.7,1.38-1.48,1.54-1.88,2.49-2.62.14-.11.4-.3.75-.49.26-.15.56-.29.92-.42.09-.03.17-.06.25-.08.08-.03.16-.04.24-.06h.06s.3-.09.3-.09l1-.26.42-.11-.27.66-.07.17.18-.09.77-.39-.19.84s.01.01.02.02c.32.27.67.61.98,1.07.05.08.1.15.13.22.39.65.26.9.79,1.58.16.21.4.45.9.92.76.72.87.76,1.36,1.24.48.47.81.81,1.01,1.11-.3,0-.62,0-.76.03-.28.08-.42.29-.36.46.07.17.34.61.56.62.11,0,.4,0,.68,0Z"/>
    <path class="cls-2" d="m121.08,93.58c-.23.48-.29,1.05-.29,1.72s.29,1.53.29,1.53c0,0-.23-.08-.42-.29-.18-.19-.55-1.02-.68-.78-.14.24-.06.38,0,.66-.21-.15-.37-1.31-.55-1.07s-.18.24-.23.51c-.12-.34-.17-2-.17-2l-.29.32s-.08-.81,0-1.19c.06-.28.17-.65.26-.92.83.36,1.88.52,2.43.28.05-.02.15-.07.29-.08h.05c-.24.46-.56,1.03-.68,1.3Z"/>
    <path class="cls-2" d="m114.79,86.78s1.08-1.23,1.69-1.69,1.88-.91,1.88-.91c0,0-.18,1.67-.83,2.32s-2.36,1.41-2.36,1.41"/>
    <path class="cls-2" d="m122.76,82.93s-.06,1.11-.65,1.7c-.33.32-.82.72-1.19,1.02-.04-.07-.08-.14-.13-.22-.32-.47-.67-.81-.98-1.07.52-.1,1.31-.27,1.72-.46.67-.31,1.23-.96,1.23-.96Z"/>
    <path class="cls-1" d="m125.21,91.14c0,.16-.04.32-.11.46-.28,0-.57,0-.68,0-.21-.01-.49-.45-.56-.62-.07-.17.08-.39.36-.46.14-.04.46-.04.76-.03.16.23.24.44.23.65Z"/>
    <path class="cls-2" d="m91.05,103.24c-.06.21-.13.41-.23.61"/>
    <g>
      <path class="cls-3" d="m93.62,103.93c-.18.82-.55,2.34-.95,2.81-.2.23-.38.46-.57.68-.25.3-.52.58-.82.79v.91s0,.02,0,.03c-.01.32-.27.56-.59.56s-.6-.27-.6-.6v-.48c-.06,0-.12,0-.17,0-.2,0-.39-.1-.57-.28-.36-.37-.71-1.07-1.11-1.98-.04-.08-.08-.27-.14-.54.05-.04.11-.07.16-.1.02,0,.03-.02.04-.03.09-.06.18-.11.26-.16.08-.04.16-.09.23-.13.08-.04.15-.08.22-.11.07-.04.14-.07.2-.09.21-.09.38-.16.53-.23.06-.03.12-.05.17-.09.06-.03.12-.07.18-.12.1-.07.2-.16.31-.29.18-.2.32-.42.42-.64.76.04,1.4.05,1.9.06.2,0,.51,0,.9.01Z"/>
      <path class="cls-3" d="m92.1,107.42v1.19c0,.33-.27.6-.6.6-.08,0-.16-.02-.23-.05,0,0,0-.02,0-.03v-.91c.3-.21.56-.49.82-.79Z"/>
    </g>
    <path class="cls-1" d="m117.95,83.51l-.3.08h-.06c-.08.03-.16.05-.24.08-.08.02-.16.05-.25.08-.36.12-.66.27-.92.42-.2-.46-.58-1.19-1.13-1.83-.69-.8-3.2-1.68-3.2-1.68,0,0,2.08-.44,3.85.54.29.16.6.43.9.72.56.55,1.07,1.23,1.35,1.6Z"/>
    <path class="cls-1" d="m118.96,83.25l-1,.26c-.28-.37-.79-1.05-1.35-1.6-.75-.91-2.35-2.03-2.35-2.03,0,0,2.12.12,3.57,1.54.43.42.83,1.17,1.14,1.83Z"/>
    <circle cx="119.27" cy="87.74" r=".46"/>
  </g>
  <rect class="cls-9" x="-98.31" y="-334.38" width="3385.57" height="2571.67"/>
</svg>